<svg xmlns="http://www.w3.org/2000/svg" viewBox="0 0 1000 761.79">
<g fill="#ccc" stroke="#333" stroke-width="0.5" stroke-linejoin="round">
<path fill-rule="evenodd" d="M975.71 127.48 L976.06 128 L976.19 128.59 L976.11 129.22 L975.84 129.88 L975.36 132.65 L974.25 132.97 L972.89 131.76 L971.63 129.89 L971.4 129.63 L971.14 129.42 L969.78 128.98 L968.3 129.08 L965.41 129.88 L963.61 131.38 L957.81 135.08 L954.42 137.86 L952.76 138.47 L948.19 137.9 L947.06 138.19 L946.06 138.96 L945.61 140.17 L945.27 143.14 L944.61 144.02 L940.51 145.37 L938.5 145.36 L936.44 144.57 L934.37 144.05 L928.69 140.43 L926.54 139.54 L922.29 138.74 L918.05 138.56 L918.02 138.56 L918.01 138.56 L917.89 138.55 L913.07 138.34 L904 139.9 L901.74 139.54 L899.59 139.22 L895 139.85 L891.67 139.61 L888.21 140.83 L887.21 140.96 L886.18 140.83 L884.15 140.28 L881.96 140.04 L871.59 141.15 L870.46 141.57 L868.8 142.73 L867.98 143.12 L867.03 143.08 L864.88 142.2 L863.16 142.62 L861.48 143.52 L859.46 144.09 L853.32 144.4 L847.53 143.54 L842.93 143.87 L838.46 144.94 L835.09 146.67 L830.75 150.37 L829.29 150.76 L826.11 150.56 L823.26 151.5 L820.18 151.69 L814.05 153.1 L811 154.41 L809.88 155.21 L809.61 156.31 L810.65 157.98 L811.14 159.4 L809.93 160.11 L805.89 160.68 L804.14 161.25 L803.32 161.7 L802.72 162.43 L802.84 163.14 L803.13 163.88 L803.04 164.66 L801.92 165.73 L799.07 166.42 L797.63 167.24 L796.51 168.4 L793.22 170.3 L792.26 171.1 L791.42 171.99 L790.53 172.76 L789.41 173.19 L784.91 173.48 L783.48 174.41 L783.57 177.14 L784.75 179.48 L784.95 180.66 L784.13 181.61 L783.04 182.02 L781.94 182.08 L780.92 181.66 L778.87 179.46 L774.88 176.76 L773.48 176.18 L772.18 176.31 L771.51 177.06 L770.67 179.72 L770.09 181.11 L769.53 182.03 L767.79 183.76 L767.44 185.07 L768.17 186.4 L768.56 187.53 L767.22 188.27 L765.53 188.62 L764.22 189.1 L763.06 189.89 L757.76 195.84 L756.35 196.94 L751.96 198.49 L751.6 199.05 L751.26 200.89 L750.77 201.69 L750.12 202.16 L748.01 203.17 L745.29 204.95 L744.92 205.59 L744.57 207.41 L744.22 208.2 L741.98 210.47 L741.32 211.8 L741.6 213.08 L741.67 213.41 L742.43 214.11 L744.93 215.49 L745.9 216.24 L747.68 218.16 L749.54 218.94 L751.5 219.38 L753.52 220.25 L754.55 221.46 L754.84 224.27 L755.58 225.57 L758.73 227.82 L759.73 229.12 L762.04 233.31 L762.49 234.58 L762.57 235.43 L762.5 236.17 L762.51 236.94 L762.82 237.91 L763.22 238.5 L764.25 239.31 L764.7 239.79 L765.58 241.29 L765.89 242.8 L765.49 244.36 L764.23 245.98 L763.36 247.69 L764.01 249.14 L765.4 250.28 L769.22 252.16 L770.36 253.02 L771 254.28 L770.96 255.92 L770.49 257.46 L770.19 259.08 L770.61 260.97 L771 261.54 L771.51 262.29 L772.42 263.33 L773.01 264.49 L772.9 266.15 L772.22 267.4 L768.84 270.37 L766.71 273.15 L766.58 275.45 L767.83 277.6 L771.68 282.04 L773.79 283.76 L774.09 284.9 L773.49 286.56 L771.74 289.27 L766.94 292.63 L765.13 294.89 L765.03 298.6 L765.41 299.46 L765.3 300.25 L764.81 300.94 L764.06 301.49 L764.05 301.49 L764.05 301.5 L763.5 302.39 L762.9 304.36 L762.4 305.25 L761.73 305.85 L760.71 306.27 L752.36 309.67 L749.9 311.57 L748.6 314.18 L747.55 317.06 L743.9 322.3 L742.96 323.24 L740.28 324.65 L735.4 328.66 L734.68 329.64 L734.58 330.93 L735.1 332.82 L735.35 334.56 L735.12 336.62 L734.37 338.31 L733.1 338.93 L730.29 338.49 L728.82 338.5 L728.65 338.58 L727.63 339.05 L726.82 340.54 L726.73 342.39 L727.11 344.28 L727.78 345.86 L729.22 348.03 L731.18 350.44 L733.34 352.51 L738.28 355.29 L738.58 357.35 L736.54 363.22 L736.53 364.74 L737.2 367.67 L737.41 369.37 L737.31 371.38 L736.87 372.5 L734.93 374.73 L734.16 376.4 L734.24 377.78 L734.47 379.11 L734.15 380.68 L733.05 381.72 L729.65 382.44 L728.22 382.93 L727.43 384.07 L726.61 384.82 L725.62 385.15 L724.34 385.04 L722.47 384.44 L721.78 384.64 L721.47 385.71 L720.24 388.18 L715.32 389.11 L705.94 389.01 L696.62 390.36 L694.51 390.28 L688.78 389.04 L683.17 388.8 L681.9 388.44 L679.52 387.22 L675.58 386.84 L660.58 381.56 L658.24 381.4 L654.56 381.97 L652.7 382.61 L651.54 383.78 L651.39 385.11 L651.63 386.37 L651.5 387.61 L650.27 388.88 L649.36 390.1 L649.78 391.34 L651.81 393.38 L652.43 394.48 L653.36 397.65 L653.97 398.98 L655.62 401.42 L656.23 402.67 L656.72 404.29 L657.44 405.9 L658.49 406.56 L660.14 406.79 L661.21 406.94 L664.94 408.55 L667.89 408.02 L668.59 408.92 L669.17 412.22 L669.59 413.52 L669.89 413.95 L670.52 414.48 L671.67 415.04 L672.2 415.42 L672.47 415.97 L672.43 417.99 L671.01 423.24 L670.89 424.82 L671.14 426.42 L671.75 427.92 L672.72 429.18 L673.26 429.55 L675.2 430.19 L675.69 430.63 L676.2 431.97 L676.56 432.58 L680.22 436.71 L681.32 439.3 L680.83 442.03 L669.05 451.98 L667.7 452.75 L666.19 452.62 L664.54 452.06 L663.72 452.39 L661.39 456.81 L660.86 457.56 L660.02 457.93 L658.01 457.76 L657.32 457.9 L652.12 461.08 L649.19 461.3 L644.55 458.97 L641.85 459.42 L638.59 461.79 L637.32 462.1 L636.7 461.98 L636.1 461.7 L635.44 461.5 L633.2 461.93 L631.77 461.89 L628.98 462.26 L626.66 463.78 L624.83 466.13 L624.16 467.54 L623.49 468.95 L624.79 477.92 L624.1 480.32 L623.7 480.7 L621.9 482.06 L620.2 484.45 L617.85 486.22 L617.09 487.33 L617.21 488.95 L617.57 489.6 L618.07 490.14 L618.68 490.54 L619.27 490.79 L619.75 491.15 L619.93 491.78 L620.06 493.23 L620.76 495.96 L620.54 496.97 L619.7 498.58 L616.04 504.11 L614.82 505.13 L611.94 506.14 L610.54 507.04 L608.43 509.7 L607.13 512.82 L606.8 516.22 L607.53 519.76 L609.33 524.35 L609.58 526.08 L609.5 527.86 L609.02 531.37 L608.98 534.84 L608.45 538.31 L608.4 540.08 L609.76 547.84 L611.94 554.07 L612.13 555.13 L611.87 555.59 L611.71 555.88 L608.39 558.39 L606.5 560.44 L598.9 572.22 L597.91 573.34 L596.85 574.01 L595.94 575.48 L593.75 577.5 L591.25 579.29 L589.39 580.07 L586.87 579.9 L584.51 580.66 L580.11 582.93 L577.35 583.25 L575.51 581.94 L572.31 577.3 L570.52 575.2 L570 574 L569.79 570.7 L569.33 569.7 L568.46 569.2 L564.55 568.49 L560.5 566.17 L558.17 565.26 L556.61 565.29 L554.97 565.86 L551.97 567.46 L550.62 568.52 L550.86 569.33 L552.07 569.87 L553.58 570.11 L557.74 570.01 L559.08 570.2 L559.72 570.93 L558.82 571.95 L557.31 572.86 L556.12 573.24 L553.55 572.82 L546.27 570.2 L543.52 569.98 L540.78 570.11 L539.26 569.88 L538.39 569.02 L537.68 567.94 L535.91 566.49 L534.38 565.65 L532.6 565.02 L531.17 565.12 L530.28 566.2 L528.81 569.69 L528.38 570.48 L528.04 571.09 L525.75 573.22 L525.41 573.95 L525.18 575.67 L524.78 576.25 L521.14 578.28 L519.98 579.23 L519.2 580.34 L518.44 580.75 L515.63 580.9 L513.52 580.55 L512.57 580.59 L510.63 581.54 L506.36 586.38 L504.08 587.99 L502.58 589.04 L500.47 589.91 L498.33 590.13 L493.82 589.12 L491.63 589.17 L490.74 590.61 L491.24 591.83 L492.26 593.06 L493.17 594.47 L493.58 597.65 L494.58 598.86 L495.96 599.73 L497.33 600.12 L503.11 599.35 L505.61 600.17 L505.94 603.58 L505.22 605.1 L504.16 605.59 L501.35 605.49 L500.23 605.82 L499.26 606.52 L498.36 607.36 L493.93 610.21 L492.65 610.69 L488.94 611.39 L486.38 612.5 L482.25 613.06 L477.44 615.12 L476.17 615.36 L471.72 614.95 L468.12 615.13 L466.97 614.99 L465.54 614.49 L463.01 613.07 L461.63 612.65 L460.25 612.71 L457.58 613.39 L456.17 613.36 L454.58 613.07 L453.72 612.79 L453.19 612.36 L453.1 611.71 L453.38 611.22 L453.76 610.72 L453.94 610.06 L453.79 608.25 L453.3 607.12 L452.28 606.58 L448.2 606.67 L445.6 607.42 L440.92 609.74 L438.85 611.54 L437.23 613.41 L435.44 614.79 L432.79 615.15 L431.1 616.33 L428.75 625.47 L427.42 627.33 L420.9 634.07 L419.33 634.76 L409.95 636.68 L408.77 637.32 L408.14 638.45 L401.32 664.42 L401.11 667.93 L402.29 671.13 L403.97 673.3 L404.5 674.34 L404.89 675.99 L405.06 677.63 L403.75 688.26 L403.91 693.12 L403.6 694.67 L399.12 703.82 L398.11 706.86 L397.94 708.13 L398.35 709.21 L400.79 710.91 L403.65 713.83 L405.79 715.49 L406.35 716.25 L406.1 716.61 L405.52 716.81 L405.1 717.05 L403.66 719.52 L401.82 721.97 L396.3 725.96 L390.38 727.69 L386.35 728.88 L382.32 730.06 L378.28 731.24 L374.26 732.42 L370.23 733.6 L366.2 734.79 L362.17 735.97 L358.13 737.15 L354.1 738.33 L350.07 739.52 L346.05 740.7 L342.01 741.88 L338 743.06 L333.96 744.24 L329.92 745.42 L325.89 746.59 L315.82 749.54 L312.37 749.43 L300.82 747.33 L291.35 747.26 L278.55 747.15 L277.04 747.13 L258.3 752.75 L255.86 754 L254.28 756.06 L251.75 761.01 L249.86 761.79 L241.94 758.36 L229.16 755.89 L213.93 752.95 L203.34 753.95 L199.93 754.27 L196.52 754.59 L193.11 754.91 L189.71 755.24 L186.31 755.56 L182.9 755.87 L179.5 756.2 L176.1 756.52 L172.69 756.84 L169.29 757.16 L165.89 757.49 L162.49 757.8 L159.08 758.13 L155.68 758.45 L152.28 758.77 L148.87 759.09 L146.87 759.28 L138.19 760.1 L131.04 758.74 L124.44 756.62 L118.67 754.75 L112.89 752.89 L107.1 751.02 L101.33 749.15 L95.55 747.29 L89.77 745.42 L83.99 743.55 L78.21 741.69 L72.43 739.83 L66.65 737.95 L60.88 736.09 L55.09 734.22 L49.32 732.36 L43.54 730.49 L37.75 728.61 L31.98 726.74 L27.02 725.14 L24.82 724.13 L28.83 719.43 L34.11 713.24 L34.13 713.22 L44.86 700.39 L50.59 693.53 L54.52 688.82 L62.03 679.81 L67.68 673.03 L75.63 663.41 L84.4 652.78 L90.13 645.84 L91.32 644.58 L91.15 644.15 L91.05 644.06 L91.15 642.6 L91.32 642.03 L91.74 641.8 L91.48 636.27 L91.17 635.33 L92.5 632.69 L93 630.99 L92.99 629.4 L92.65 627.79 L91.81 625.14 L90.59 622.56 L90.42 621.72 L90.31 619.35 L89.72 617.52 L87.86 614.43 L87.18 612.78 L87.16 611.16 L87.64 607.67 L87.16 606.17 L84.67 603 L83.31 601.92 L81.52 601.21 L77.71 600.65 L69.7 599.49 L56.09 597.49 L44.31 595.76 L44.2 595.75 L32.57 594.04 L25.56 593.01 L23.25 592.04 L22.43 584.4 L21.39 580.47 L21.23 578.56 L22.11 572.53 L21.15 564.97 L21 561.01 L21.52 555.96 L21.39 554.18 L21.12 553.31 L20.78 552.51 L20.63 551.66 L21.23 549.86 L20.82 549.4 L20.24 549.06 L20 548.56 L20.54 547.3 L22.36 544.96 L22.77 543.59 L23.7 537.07 L23.85 530.38 L21.49 521.59 L18.43 510.19 L15.61 500.66 L13.06 491.98 L10.64 483.73 L8.29 475.73 L6.3 468.94 L5.29 463.65 L5.19 457.1 L5.61 455.94 L8.97 451.39 L12.74 446.28 L16.12 441.69 L18.76 438.09 L20.76 436.31 L23.04 434.88 L23.76 433.94 L24.15 432.28 L24.02 430.84 L23.78 429.46 L23.98 428.26 L25.2 427.44 L28.5 427.22 L29.52 426.84 L30.06 425.92 L30.13 425.8 L29.52 424.6 L28.35 423.55 L27.27 422.92 L24.94 422.33 L22.26 422.13 L17.15 422.4 L11.72 421.98 L6.11 419.66 L1.74 415.44 L0.01 409.35 L0.57 406.62 L2.71 401.77 L2.86 398.49 L0.88 385.71 L0.12 378.45 L0 377.33 L0.42 373.58 L2.37 369.62 L4.56 366.78 L6.99 364.24 L10.29 362.48 L11.37 361.29 L10.89 359.5 L15.8 359.21 L22.85 358.78 L28.02 358.47 L27.23 356.9 L22.08 350.18 L20.99 348 L20.31 347.02 L19.47 346.25 L17.77 345.47 L17.15 344.88 L16.56 342.88 L16.11 342.3 L15.52 341.96 L14.78 341.85 L15.8 340.08 L17.53 339.19 L21.33 338.68 L23.06 338.19 L24.41 337.26 L27.56 333.65 L27.92 332.98 L28.37 332.42 L29.3 331.88 L30.27 331.73 L31.17 331.8 L31.98 331.6 L32.71 330.64 L32.99 328.59 L32.76 326.4 L32.84 324.41 L34.1 322.94 L36.3 321.22 L37.64 318.79 L38.04 317.39 L40.17 316.68 L40.72 313.89 L41.02 310.9 L40.97 310.16 L40.67 308.59 L40.59 307.72 L40.82 306.66 L41.8 305.07 L42.01 304.26 L42.24 302.6 L43.26 299.42 L43.67 295.92 L44.17 294.7 L45.85 292.34 L45.12 291.56 L45.01 290.87 L45.2 290.11 L45.34 289.15 L45.14 288.79 L42.67 285.45 L42.32 284.6 L42.73 284.22 L43.43 283.85 L43.46 283.03 L43.12 282.22 L42.73 281.85 L42.68 281.02 L42.74 279.21 L43.15 277.4 L44.14 276.57 L45.62 276.54 L47.28 276.26 L48.61 275.49 L49.17 273.98 L48.84 269.6 L49.17 267.86 L49.57 266.91 L51.03 264.95 L51.41 264.07 L52.01 261.4 L52.78 259.76 L54.4 257.77 L55.33 256.16 L55.76 254.39 L55.59 252.67 L54.86 249.17 L54.35 248.38 L55.29 248.03 L58.93 247.32 L59.52 247.32 L60.03 247.58 L60.68 248.16 L60.62 248.39 L60.03 249.35 L60.89 250.11 L61 250.09 L61.15 250.13 L62.25 251.11 L62.27 251.48 L62 252.41 L62.02 252.75 L62.48 253.41 L62.92 253.92 L63.48 254.24 L64.27 254.37 L64.73 254.58 L65.32 254.84 L69.83 258.99 L73.02 262.56 L77.61 264.41 L86.97 265.84 L91.09 265.52 L99.45 262.6 L103.5 262.67 L105.56 263.7 L107.39 264.97 L114.51 272 L116.42 273.3 L120.25 274.99 L121.27 276.05 L122.01 277.39 L122.48 278.89 L122.58 280.39 L122.47 283.82 L122.87 285.11 L124.18 288.18 L124.91 289.06 L126.01 288.48 L132.76 279.27 L135.02 277.17 L136.9 277.06 L141.46 281.29 L142.22 281.7 L142.91 281.64 L143.6 281.44 L144.35 281.41 L146.39 282.27 L147.01 282.37 L148.16 282.09 L153.19 279.91 L154.23 279.26 L155.14 278.38 L156.01 277.16 L157.84 275.31 L162.18 273.18 L162.49 273.03 L168.78 268.02 L173.44 265.77 L174.85 265.44 L177.73 265.19 L179.1 264.83 L180.03 263.85 L180.45 262.27 L180.74 259.04 L181.45 256.36 L181.21 255.47 L180.06 254.52 L179.83 253.48 L179.66 249.12 L179.78 247.85 L181.62 246.03 L186.95 244.28 L188.88 242.85 L189.29 242.07 L189.35 241.48 L188.99 241.03 L187.23 240.36 L186.77 239.97 L185.8 238.65 L182.24 235.44 L181.8 234.33 L181.49 232.81 L180.8 231.72 L180.32 230.63 L180.62 229.15 L181.69 228.03 L183.16 227.7 L198.27 228.04 L204.33 226.78 L209.94 224.14 L210.97 223.21 L212.61 220.95 L213.57 219.96 L214.87 219.24 L216.27 218.93 L224.84 218.39 L227.63 217.67 L234.15 213.83 L236.23 213.18 L237.38 213 L238.46 212.83 L240.41 213.25 L247.01 215.83 L247.04 214.75 L246.41 210.69 L246.39 209.16 L246.98 207.8 L247.85 206.69 L252.44 203.18 L254.9 201.96 L257.48 201.47 L260.34 201.94 L261.49 202.42 L262.35 202.63 L263.04 202.05 L264.14 198.59 L264.96 197.55 L266.02 196.84 L267.29 196.31 L272.4 195.11 L274.74 194.24 L277.04 192.37 L278.46 190.67 L283.91 182.21 L285.14 179.23 L285.94 176.04 L286.26 172.6 L286.07 170.81 L285.09 167.51 L284.77 165.75 L284.75 164 L284.98 162.22 L285.87 158.8 L287.01 156.03 L294.45 142.34 L297 137.65 L297.94 134.71 L297.65 131.31 L296.33 124.7 L296.65 121.31 L297.94 119.1 L299.96 117.58 L312.54 110.77 L317.68 109.06 L347.17 108.3 L348.1 108.27 L350.57 106.98 L353.78 102.53 L355.73 100.53 L356.62 99.3 L356.99 97.53 L356.95 95.59 L356.41 91.85 L356.74 89.89 L357.43 88.03 L358.29 86.3 L358.3 86.29 L358.3 86.27 L359.02 84.86 L359.73 83.96 L360.57 83.45 L361.77 83.19 L364.63 83.22 L365.55 82.45 L365.98 80.15 L366.16 78.9 L367.2 79.38 L368.59 79.69 L369.13 80.04 L370.3 82.68 L370.85 83.52 L371.34 84.08 L372.66 85.07 L388.25 90.93 L389.51 92.02 L391.44 94.62 L392.64 95.81 L394.04 96.52 L394.84 96.64 L397.14 96.52 L397.88 96.71 L398.86 97.53 L399.51 97.71 L400.13 98.03 L400.61 98.27 L401.76 99.46 L403.15 100.51 L404.98 100.69 L409.76 99.12 L411.42 98.9 L412.12 99.25 L413.17 100.8 L414.03 101.23 L414.75 101.1 L415.34 100.64 L416.4 99.45 L417.63 98.38 L418.78 97.63 L420.13 97.2 L421.91 97.06 L423.57 97.26 L428.16 99.21 L429.02 99.37 L430.9 99.45 L431.64 99.17 L433 97.99 L433.74 97.71 L442.82 97.31 L449.19 95.8 L452.54 95.87 L453.81 96.47 L456.58 98.47 L458.04 98.9 L458.89 99.69 L460.04 103.48 L460.69 104.81 L462.09 105.69 L465.17 106.88 L466.57 108.17 L467.27 109.67 L467.77 111.29 L468.57 112.62 L470.12 113.25 L471.67 112.95 L474.32 111.22 L476.1 110.82 L477.78 110.68 L479.29 110.25 L480.68 109.52 L482.06 108.49 L484.34 106.18 L485.62 105.21 L487.06 104.81 L488.66 105.6 L489.97 109.21 L491.1 110.22 L491.85 109.94 L492.39 109.11 L492.81 108.24 L493.25 107.84 L493.97 107.75 L495.3 107.34 L496.09 107.24 L496.88 107.49 L498.4 108.64 L499.16 109.03 L500.04 109.15 L502.52 109.03 L503.96 109.39 L505.19 110.14 L506 111.3 L506.32 112.93 L505.72 118.49 L505.8 119.8 L506.65 120.97 L508.23 122.13 L509.95 123.01 L513.09 123.76 L514.05 124.84 L514.78 126.38 L515.89 128.16 L516.64 128.82 L518.28 129.69 L518.9 130.24 L521.29 133.21 L521.69 133.93 L521.97 134.69 L522.32 135.37 L522.95 135.82 L523.27 135.84 L523.82 135.86 L524.66 135.51 L525.37 135.04 L529.96 131.08 L530.81 130.54 L532.1 129.99 L533.21 128.84 L534.49 127.77 L536.31 127.52 L539.17 128.48 L540.83 128.49 L541.57 127.24 L541.1 123.58 L541.04 121.83 L541.57 120.39 L542.88 119.43 L544.23 119.53 L545.58 120.07 L546.95 120.39 L548.75 120.19 L550.11 119.5 L550.57 118.21 L549.58 116.17 L553.88 115.85 L557.18 115.1 L557.92 115.04 L558.53 114.66 L559.49 112.98 L559.83 112.6 L561.22 112.42 L563.81 111.6 L565.07 111.41 L565.34 110.75 L565.73 109.35 L566.58 108.09 L568.15 107.84 L567.75 106.78 L567.55 106.4 L567.2 106.06 L567.98 105.13 L569.24 105.07 L571.94 105.46 L573.37 105.31 L574.28 105.4 L575.09 105.79 L577.68 107.46 L578.5 107.52 L578.79 106.67 L578.61 104.81 L577.79 102.18 L578.04 101.19 L579.57 100.69 L581.03 101.06 L581.81 102.18 L582.43 103.58 L583.35 104.81 L584.35 105.27 L585.13 105.06 L585.5 104.29 L585.25 103.02 L584.93 102.65 L583.8 101.8 L583.35 101.23 L582.99 100.2 L583.19 99.91 L583.59 99.99 L583.83 100.1 L588.57 100.69 L589.94 101.46 L591.35 102.75 L592.43 104.29 L593.45 107.46 L594.83 108.72 L596.41 109.76 L597.66 110.82 L598.9 113.92 L599.55 114.64 L601.09 115.71 L601.45 115.87 L608.02 120.33 L609.42 120.2 L610.8 119.54 L612.39 119.2 L612.63 119.15 L613.45 118.84 L614.21 118.14 L615.32 116.82 L618.13 115.04 L619.27 113.92 L621.66 109.9 L621.87 108.78 L620.6 108.52 L619.42 107.98 L619.98 106.06 L619.41 105.27 L618.95 102.26 L618.36 100.96 L618 100.36 L617.79 99.61 L617.69 98.79 L617.66 97.99 L617.75 97.72 L617.94 97.67 L618.1 97.53 L618.13 97.06 L617.92 96.68 L617.27 96.5 L617.14 96.19 L617.09 92.86 L617.24 91.23 L617.66 89.85 L618.02 89.36 L619.01 88.66 L619.55 88.16 L619.82 87.73 L620.25 86.68 L620.5 86.26 L623.58 84 L625.08 82.52 L626.28 78.85 L627.67 78.23 L637.13 79.09 L638.68 78.79 L641.61 77.52 L643.33 77.3 L643.88 77.37 L645.42 77.84 L645.94 78.22 L646.66 78.62 L647.38 78.24 L648.1 77.62 L648.79 77.3 L650.2 76.9 L653.12 75.41 L654.75 75.5 L655.89 76.51 L656.54 77.91 L657.29 79.15 L658.76 79.69 L659.66 79.87 L660.02 80.31 L660.28 80.89 L660.68 81.26 L660.91 81.48 L661.56 81.74 L663.72 82.13 L663.28 81.48 L665.19 81.8 L667.26 82.56 L669.35 82.93 L671.35 82.13 L673.76 79.1 L674.23 78.82 L674.41 78.06 L675.41 75.5 L675.55 75.48 L676.88 75.42 L677.11 75.5 L677.47 75.14 L677.62 74.96 L678.01 74.3 L678.1 73.72 L678.01 72.92 L677.99 72.22 L678.28 71.91 L678.61 71.67 L679.49 70.39 L679.62 69.29 L679.86 68.58 L680.04 67.81 L679.96 66.52 L679.25 63.96 L679.1 62.74 L679.49 61.73 L678.82 61.11 L678.19 60.18 L677.73 59.03 L677.54 57.77 L677.07 57.04 L674.79 56.33 L673.99 55.95 L672.82 54.11 L671.86 51.55 L671.53 48.85 L672.34 46.61 L673.73 47.77 L675.29 48.09 L676.92 47.82 L678.54 47.21 L678 46.49 L677.75 45.77 L677.77 45.02 L678.01 44.21 L678.5 43.94 L679.32 43.79 L680.08 43.46 L680.43 42.67 L680.78 42.21 L681.11 42.03 L682.46 41.31 L683.04 40.87 L686.15 36.73 L689.22 33.53 L689.96 32.99 L692.32 31.97 L693.03 31.24 L693.89 29.75 L695.69 24.88 L697.73 20.86 L698.37 18.68 L699.22 18.19 L700.17 17.94 L700.86 17.58 L701.8 14.57 L701.81 13.83 L701.73 12.92 L701.74 12 L702.04 11.22 L702.68 10.85 L704.27 10.95 L704.91 10.58 L707.36 8.75 L707.92 7.71 L706.54 6.65 L706.54 6.05 L707.82 5.24 L711.88 4.81 L712.74 3.3 L713.22 2.67 L714.34 2.41 L716.54 2.42 L717.17 2.54 L718.29 2.93 L718.91 2.97 L719.38 2.73 L719.64 2.33 L720.04 1.95 L720.85 1.81 L723.71 3.19 L725.38 3.61 L726.11 2.7 L725.88 0.68 L726.39 0.05 L728 0 L728.89 0.25 L729.68 0.71 L730.4 1.34 L731.1 2.11 L731.51 2.82 L732.09 4.43 L732.54 5.17 L733.26 5.76 L733.77 5.73 L734.31 5.48 L735.15 5.45 L736.01 5.66 L737.95 6.65 L740.63 8.64 L744.92 13.1 L750.64 15.5 L753.02 17.09 L754.67 19.69 L755.11 23.62 L754.73 25.62 L753.47 29.44 L753.03 32.02 L751.74 34.52 L750.8 38.13 L748.73 42.04 L748.26 44.28 L747.56 46.28 L747.47 47.21 L747.73 48.34 L748.1 48.52 L748.63 48.36 L749.37 48.47 L752 50.61 L753.49 51.26 L754.86 50.49 L756.13 49.53 L764.6 46.6 L767.09 46.75 L769.19 48.2 L771.3 50.81 L770.78 51.42 L771 52.48 L771.11 54.4 L771.05 56.49 L770.78 58.08 L769.7 59.63 L767.14 61.3 L766.56 62.87 L766.68 63.69 L767.31 65.56 L767.47 66.52 L767.35 67.38 L766.56 70.12 L766.23 72.82 L766.05 73.71 L765.71 74.44 L764.87 75.6 L764.62 76.1 L764.32 79.93 L765.29 87 L764.62 90.5 L763.84 92.46 L763.62 93.71 L764.14 97.06 L764.27 100.75 L764.09 102.58 L763.67 103.67 L763.61 106.11 L761.05 110.5 L761.3 112.6 L760.82 113.39 L760.42 114.71 L759.88 118.29 L759.73 123.54 L759.88 124.6 L760.29 125.53 L761.49 127.4 L761.73 128.43 L761.73 131.99 L761.95 133.88 L762.55 135.44 L766.49 141.86 L767.19 143.6 L767.66 147.59 L768.18 149.36 L768.95 151 L769.88 152.51 L772.22 154.97 L775.14 156.51 L778.39 157.24 L781.77 157.24 L785.17 156.59 L787.88 155.46 L808.02 140.42 L809.83 138.42 L812.19 137.06 L812.82 136.4 L813.83 134.87 L814.52 134.1 L817.26 132.21 L824.28 129.34 L827.4 128.7 L832.19 129.58 L834.53 128.4 L844.88 126.86 L845.5 126.03 L845.92 124.36 L848.81 119.8 L852.05 113.05 L854.11 110.19 L856.88 108.49 L860.13 107.87 L861.85 107.27 L863.38 105.43 L868.33 102.43 L873.33 101.92 L874.73 100.96 L875.53 99.76 L876.72 97.21 L877.81 95.87 L880.46 93.78 L881.07 93.57 L882.57 94.14 L883.32 93.78 L886.71 90.13 L887.8 89.31 L889.21 88.83 L890.94 88.65 L892.59 88.87 L893.76 89.57 L894.91 89.91 L899.23 87.52 L902.33 87.43 L910.64 90.5 L915.46 91.79 L918.47 91.72 L920.94 92.02 L920.5 94.23 L920.42 94.95 L920.41 98.62 L919.95 99.89 L918.78 101.28 L917.58 102.28 L916.57 102.78 L913.9 103.06 L912.44 103.59 L910.98 104.86 L910.1 106.57 L910.4 108.39 L911.52 109.07 L914.45 108.14 L915.88 108.26 L916.4 108.74 L917.4 110.11 L917.87 110.48 L918.62 110.43 L919.75 109.55 L920.43 109.29 L922 109.44 L923.06 109.7 L924.05 109.47 L926.69 107.01 L928.09 106.59 L931.07 106.25 L934.98 104.39 L936.44 104.08 L941.68 102.17 L949.39 100.61 L951.08 99.89 L952.36 98.38 L952.48 95.39 L953.6 94.21 L955.44 94.18 L957.46 94.72 L959.15 94.49 L959.97 92.15 L960.33 93.29 L961.14 92.73 L961.92 92.67 L962.61 93.11 L963.62 94.82 L964.31 95.05 L965.09 95.08 L967.1 95.45 L968.32 95.17 L969.63 95.06 L971.14 95.72 L973.65 96.49 L974.24 96.64 L974.84 96.62 L981.89 96.16 L983.9 95.03 L992.8 100.52 L994.76 102.63 L997.94 108.07 L1000 109.25 L994.5 110.61 L993.18 110.74 L992.43 110.24 L989.7 104.25 L989.25 103.58 L988.14 103.43 L987.3 104.04 L986.58 104.95 L985.01 106.4 L984.63 106.61 L983.25 106.76 L982.92 107.18 L982.7 107.74 L981.79 108.62 L981.6 108.97 L981.32 109.27 L980.75 109.48 L980.33 109.33 L979.47 108.41 L979.01 108.18 L978.04 108.28 L975 109.15 L972.77 109.2 L971.88 109.7 L971.14 111.08 L970.52 112.84 L969.76 113.93 L968.71 114.52 L967.23 114.74 L964.59 114.39 L963.63 114.83 L963.47 116.51 L964.62 118.35 L966.82 119.98 L971.14 122.13 L972.36 123.58 L973.17 125.27 L974.1 126.73 Z "/>
</g>
</svg>
