<svg xmlns="http://www.w3.org/2000/svg" viewBox="0 0 1000 595.58">
<g fill="#ccc" stroke="#333" stroke-width="0.5" stroke-linejoin="round">
<path fill-rule="evenodd" d="M945.78 299.37 L924.7 342.19 L921.69 465.89 L1000 567.6 L1000 595.58 L669.28 595.58 L669.28 567.6 L683.13 482.54 L576.51 277.03 L568.07 199.22 L360.24 143.74 L274.7 134.95 L195.18 145.39 L2.11 214.79 L0 143.31 L24.66 111.65 L68.51 124.98 L142.5 134.98 L169.91 68.33 L219.24 60 L231.57 43.33 L249.38 20 L267.2 0 L279.53 5 L298.71 6.67 L317.9 6.67 L346.67 6.67 L368.59 1.67 L371.33 60 L390.52 99.99 L460.44 154.57 L568.37 183.04 L581.62 152.19 L627.91 173.12 L651.24 194.51 L674.2 152.19 L720.29 106.38 L841.74 124.05 L850.16 246.83 L777.86 246.83 L760.65 222.18 L717.8 261.01 L723.54 324.24 L749.17 341.67 L775.18 310.06 L853.6 299.37 Z "/>
</g>
</svg>
