<svg xmlns="http://www.w3.org/2000/svg" viewBox="0 0 1000 732.16">
<g fill="#ccc" stroke="#333" stroke-width="0.5" stroke-linejoin="round">
<path fill-rule="evenodd" d="M482.73 431.77 L495.37 457.93 L487.51 480.67 L477.23 502.93 L482.73 527.66 L475.59 535.23 L471.01 532.6 L466.75 525.29 L460.79 518.23 L439.41 506.33 L434.94 500.98 L432.62 480.05 L436.84 459.42 L443.42 439.97 L447.89 422.32 L461.92 460.25 L470.4 475.1 L474.1 462.11 L467.37 436.31 L468.91 427.64 Z M79.76 331.72 L82.02 341.24 L93.02 354.74 L97.44 362.44 L99.6 370.3 L100.99 378.36 L101.76 401.1 L99.7 411.53 L94.82 413.34 L89.12 412.25 L84.49 414.42 L75.34 402.23 L60.85 374.23 L49.54 362.44 L54.48 383.89 L56.89 404.04 L54.58 422.94 L45.23 440.44 L32.84 447.25 L19.84 441.16 L8.74 423.56 L2.16 396.29 L0.46 384.87 L0 378.93 L2.78 374.02 L10.79 366.37 L15.21 356.91 L15.01 344.19 L13.88 330.27 L15.11 317.44 L18.35 311.33 L29.81 296.06 L34.54 288.24 L41.47 281.4 L50.88 281.4 L60.13 285.96 L72.57 299.01 L76.58 307.29 L79.04 318.11 Z M577.65 274.77 L582.02 278.97 L584.64 284.3 L585.77 291.4 L586.19 300.87 L555.56 362.44 L547.95 359.75 L547.95 353.19 L550.88 344.65 L551.34 336.43 L552.27 330.53 L552.16 316.4 L549.08 306.57 L530.37 321.68 L525.54 310.4 L526.57 291.09 L534.07 274.77 L547.18 269.69 L566.96 282.64 Z M824.55 317.44 L806.66 309.1 L800.7 277.36 L804.6 248.49 L815.91 248.65 L822.28 255.28 L841.66 268.86 L846.13 274.77 L844.59 290.15 L837.19 298.8 L827.78 301.8 L819.82 300.87 Z M439.25 326.96 L447.63 345.74 L452.51 352.93 L445.68 356.65 L439.82 357.22 L434.32 359.08 L428.46 366.37 L425.12 374.43 L419.83 391.95 L417.67 396.29 L409.7 400.06 L405.08 396.76 L400.76 391.33 L393.93 388.39 L367.72 388.39 L362.42 380.95 L363.55 363.58 L367.77 344.5 L372.03 331.72 L385.03 319.2 L416.28 316.61 L426.3 300.87 L400.71 301.39 L377.53 308.17 L359.13 328.62 L348.29 370.25 L343.97 370.25 L345.87 339.58 L337.86 324.63 L327.58 312.06 L322.39 288.24 L330.4 266.89 L343.51 239.78 L346.13 218.26 L322.39 213.9 L322.39 222.62 L328.81 238.85 L323.16 261.09 L309.49 273.06 L292.22 258.19 L294.63 280.68 L303.63 305.64 L315.6 326.34 L326.7 336.43 L320.54 345.17 L316.84 355.36 L315.76 366.68 L317.71 378.98 L284.77 364.92 L274.59 352.93 L278.29 346.36 L279.47 342.02 L278.91 326.96 L261.79 329.34 L253.47 335.19 L255.16 348.58 L263.03 362.96 L271.82 375.83 L281.43 384.87 L299.41 392.57 L305.27 401.51 L309.9 410.5 L313.75 414.42 L319.97 411.53 L324.8 404.92 L329.48 396.45 L335.34 388.39 L328.25 428.98 L326.45 448.49 L326.7 466.44 L329.02 470.77 L333.23 473.66 L337.44 478.35 L339.29 487.99 L335.7 501.08 L327.37 501.18 L311.44 492.32 L285.95 496.44 L275.21 505.61 L276.75 523.02 L281.02 543.72 L274.9 551.44 L268.12 548.05 L270.27 535.54 L259.43 495.93 L250.8 483.86 L235.79 483.66 L227.41 489.74 L225.51 496.6 L224.28 503.55 L218.16 509.58 L209.58 512.21 L201.15 511.18 L195.81 505.1 L196.58 492.32 L185.53 485.41 L174.12 489.95 L164.35 502.32 L157.78 518.23 L148.01 483.45 L124.47 427.9 L114.61 396.29 L110.39 359.24 L106.85 343.1 L99.6 336.43 L98.26 326.96 L84.49 274.77 L96.93 274.3 L107.15 276.48 L112.55 286.42 L110.7 309.57 L115.63 296.32 L119.54 281.92 L123.86 270.73 L129.92 266.06 L138.25 264.3 L162.5 248.65 L157.67 243.15 L154.49 236.83 L149.14 222.62 L162.2 226.87 L166.82 231.33 L170.68 227.18 L172.47 226.56 L178.95 231.33 L168.98 268.09 L159.11 296.06 L160.96 306.93 L166.2 315.94 L171.14 326.96 L176.07 358.15 L180.23 367.15 L190.1 370.25 L194.88 363.42 L195.96 347.55 L194.57 329.75 L192.26 317.44 L203.52 324.79 L213.85 336.43 L218.16 300.87 L231.47 283.47 L234.56 266.06 L235.69 239.16 L239.75 222.62 L243.09 241.29 L244.01 250.67 L244.37 262.18 L247.76 267 L255.16 265.55 L262.62 260.16 L265.96 253.47 L264.16 231.38 L259.43 212.86 L252.44 198.23 L244.37 187.79 L240.06 180.58 L237.64 174.09 L234.86 173.41 L229.11 183.07 L222.22 206.01 L217.55 214.21 L211.69 209.13 L202.18 187.64 L193.24 171.33 L182.39 161.93 L166.82 160.84 L176.69 153.83 L182.24 143.22 L186.4 130.8 L192.26 118.01 L205.21 102.82 L218.78 96.27 L233.12 96.27 L248.33 100.64 L252.85 117.65 L255.94 141.51 L261.64 159.07 L288.47 152.73 L304.66 159.07 L319.87 172.06 L330.66 187.79 L325.42 162.09 L322.39 152.89 L331.69 155.07 L352.91 167.39 L359.34 165.62 L366.17 160.74 L373.52 167.39 L387.09 187.79 L419.88 201.76 L428.72 215.35 L421.99 248.65 L431.39 243.46 L434.94 240.04 L444.86 248.55 L457.76 254.56 L482.73 258.19 L460.79 300.87 L456.47 317.44 Z M860.16 720.02 L855.53 715.25 L851.83 702.33 L857.39 691.51 L866.02 687.71 L874.19 687.25 L879.95 695.56 L883.9 711.71 L888.53 726.17 L883.6 732.16 L868.02 726.32 Z M928.56 683.92 L919.62 682.58 L919.52 684.79 L928.92 692.12 L933.4 704.12 L928.05 710.69 L896.08 692.64 L887.45 683.56 L884.16 676.78 L885.39 675.6 L888.37 670.63 L897.73 664.72 L925.48 672.22 L932.47 672.42 L936.32 674.94 L936.79 681.09 Z M692.72 554.84 L694.26 556.8 L697.66 558.34 L695.96 559.78 L688.46 561.43 L686.92 562.15 L691.54 566.26 L692.57 573.98 L690.31 583.08 L684.09 591.41 L678.23 601.44 L672.11 603.29 L655.05 587.87 L652.33 590.85 L648.37 599.69 L640.25 605.3 L630.69 603.7 L623.7 595.68 L626.68 581.08 L642.72 550.52 L651.56 540.79 L660.04 538.88 L666.26 539.71 L671.29 536.93 L675.51 536.93 L678.18 541.05 L678.69 546.04 L680.7 547.43 L685.48 545.11 L689.49 545.89 L691.8 551.55 Z M575.24 541.87 L590.91 529.36 L599.55 527.25 L592.25 561.02 L580.33 580 L561.52 584.78 L553.81 576.04 L562.24 560.5 Z M636.55 550.98 L635.42 557.41 L623.39 565.75 L605.1 559.47 L604.07 539.19 L615.63 532.81 L637.22 529.82 L639.22 528.9 L633.57 527.04 L634.8 522.72 L644.26 518.6 L649.6 521.94 L645.8 530.59 L639.74 539.86 Z M738.98 446.53 L740.98 451.58 L742.06 463.65 L738.1 472.32 L731.52 473.55 L721.55 465.04 L710.76 445.49 L708.76 429.5 L714.15 422.63 L720.17 420.1 L724.18 422.17 L729.67 428.15 L736.51 439.2 Z M739.23 320.96 L753.21 335.14 L759.79 346.52 L754.34 358.77 L741.13 365.23 L730.96 359.34 L726.8 351.95 L726.39 337.51 L729.57 324.37 Z M798.33 197.29 L774.75 215.25 L770.12 212.76 L769.35 204.3 L769.55 199.94 L770.12 189.3 L771.82 182.86 L776.96 169.26 L779.11 164.89 L781.48 161.05 L784.15 153.57 L785.59 146.71 L790.11 144.47 L797.56 146.34 L804.66 152.01 L807.59 163.75 L805.94 176.58 L803.37 188.26 Z M485.08 641.23 L498.08 613 L521.79 586.3 L536.3 589.38 L559.06 600.17 L583.24 605.4 L589.75 617.79 L559.13 635.25 L539.28 634.44 L521.71 636.69 L512.55 640.5 L511 658.81 L501.08 670.24 L486.59 664.12 Z M328.67 531.26 L350.49 519.84 L371.38 491.57 L389.55 501.77 L410.53 500.6 L429.43 528.8 L441.72 566.31 L447.95 592.9 L449.65 604.78 L441.17 622.88 L425.92 641.54 L418.02 647.76 L423.65 620.62 L415.73 613.28 L403.3 620.64 L385.21 625.75 L373.89 616.16 L381.23 604.84 L384.04 590.7 L373.26 576.01 L356.85 576.04 L344.34 561.91 L323.37 558.01 Z M994.91 0.83 L998.77 6.67 L1000 22.21 L994.66 36.59 L988.44 40.76 L979.96 33.31 L976.36 17.99 L979.55 8.24 L987.2 0.47 L992.39 0 Z "/>
</g>
</svg>
