<svg xmlns="http://www.w3.org/2000/svg" viewBox="0 0 1000 2271.66">
<g fill="#ccc" stroke="#333" stroke-width="0.5" stroke-linejoin="round">
<path fill-rule="evenodd" d="M733.92 598.54 L719.52 607.36 L718.98 620.08 L718.81 624.21 L723.32 643.41 L724.28 654.15 L724.73 659.12 L721.04 665.78 L707.86 678.78 L702.3 686.16 L697.73 696.27 L696.09 704.27 L700.6 759.18 L703.47 775.37 L715.47 810.52 L715.52 815.6 L715.53 817.16 L712.49 825.03 L707.68 829.96 L700.07 834.58 L691.87 838.06 L664.23 844.13 L666.33 854.89 L664.69 875.3 L668.68 886.56 L675 889.46 L679.34 893.99 L685.44 905.72 L686.54 907.83 L688.42 913.65 L689.59 926 L690.7 930.1 L694.74 933.54 L704.17 935.06 L708.45 937.91 L715.18 947.52 L718 955.1 L718.64 956.81 L718.52 967.04 L714.54 979.64 L709.15 989.94 L701.77 999.31 L693.63 1004.3 L685.49 1001.72 L683.47 1016.53 L683.26 1018.03 L686.31 1040.75 L695.91 1081.42 L703.06 1100.54 L724.02 1130.31 L732.99 1147.77 L735.86 1164.77 L735.5 1178.1 L739.49 1188.32 L751.08 1193.76 L755.53 1195.86 L763.27 1196.67 L770.41 1196.32 L771.88 1196.54 L776.91 1197.29 L783.06 1202.03 L788.86 1214.15 L799.81 1263.22 L810.76 1306.38 L818.96 1323.71 L826.53 1330.16 L832.38 1335.14 L846.67 1338.31 L856.62 1334.32 L875.48 1318.44 L886.59 1315.69 L887.08 1315.57 L917.01 1319.91 L945.18 1328.32 L954.67 1337.54 L959.29 1351.64 L959.53 1371.54 L960.52 1407.03 L957.07 1422.93 L947.29 1434.53 L952.85 1439.09 L954.96 1444.73 L956.07 1450.76 L958.53 1456.37 L974.7 1471.75 L989.75 1490.13 L995.55 1500.64 L999.24 1513.69 L1000 1528.36 L998.01 1542.05 L991.98 1568.01 L990.98 1576.61 L990.75 1582.82 L989.87 1588.64 L986.88 1596.15 L983.02 1600.39 L977.8 1603.4 L972.59 1607.64 L968.72 1615.27 L961.4 1617.27 L955.37 1621.47 L951.97 1628.09 L952.38 1637.34 L950.74 1641.65 L948.87 1645.34 L943.42 1653.08 L929.31 1662.74 L916.66 1659.63 L903.71 1653.43 L888.54 1653.74 L880.99 1658.82 L877.94 1665.09 L875.72 1672.21 L871.09 1679.83 L866.05 1682.68 L854.28 1685.49 L849.24 1690.72 L848.31 1697.72 L850.77 1717.98 L851.06 1725.75 L849.13 1734.93 L846.61 1741.08 L840.4 1752.73 L831.62 1774.62 L829.98 1778.73 L825.52 1782.72 L819.32 1785.95 L813.17 1790.29 L808.72 1797.5 L806.14 1814.43 L807.31 1829.28 L807.19 1844.5 L800.87 1862.22 L797.76 1864.71 L789.39 1867.28 L786.75 1871.34 L786.46 1875.9 L788.33 1884.1 L788.51 1887.86 L791.2 1901.61 L790.38 1904.98 L781.89 1929.07 L779.49 1934.24 L775.33 1937.14 L761.25 1943.88 L739.96 1954.06 L725.84 1955.44 L695.79 1950.96 L685.49 1953.68 L676.58 1958.84 L657.78 1956.62 L647.01 1961.52 L639.45 1970.36 L633.01 1982.06 L628.27 1995.22 L625.86 2008.48 L616.49 2010.47 L588.2 2011.35 L581.35 2013.53 L584.22 2019.3 L592.71 2064.18 L595.64 2068.61 L609.11 2082.01 L635.23 2125.43 L637.52 2138.24 L632.95 2152.96 L623.11 2163.17 L613.45 2162.07 L603.43 2156.01 L582.29 2147.86 L581.59 2147.58 L575.96 2146.71 L571.22 2148.65 L567.24 2154.18 L568.64 2157.19 L571.98 2160.31 L573.85 2166.1 L572.98 2169.92 L569.4 2178.75 L568.76 2181.04 L570.17 2183.48 L574.32 2188.7 L575.32 2190.91 L577.49 2197.34 L580.53 2200.62 L582.23 2204.5 L580.53 2212.5 L572.74 2222.05 L562.2 2228.18 L553.65 2236.47 L551.95 2252.61 L546.97 2249.56 L542.05 2248 L537.25 2248 L532.68 2249.56 L528.23 2254.51 L527.59 2260.18 L527.82 2265.54 L525.83 2269.42 L516.87 2271.66 L505.33 2266.3 L489.16 2251.66 L463.16 2237.96 L440.61 2230.65 L421.64 2224.26 L412.44 2230.07 L410.74 2230.76 L410.18 2235.08 L406.31 2235.08 L403.22 2224.29 L405.16 2212.06 L414.06 2189.75 L404.37 2185.7 L401.56 2183.06 L410.18 2164.16 L420.56 2127.27 L421.76 2118.35 L418.07 2103.12 L412.12 2098.89 L403.31 2098.17 L390.81 2093.6 L389.98 2091.77 L389.85 2088.79 L389.2 2085.64 L386.94 2083.08 L379.19 2078.51 L373.52 2076.35 L363.84 2075.99 L359.5 2073.01 L359.5 2068.41 L367.89 2057.86 L373.43 2052.27 L379.19 2048.21 L369.37 2038.73 L342.71 1987.3 L339.12 1978.15 L335.15 1970.29 L330.49 1966.94 L312.37 1966.4 L303.38 1964.71 L297.24 1961.43 L301.76 1956.88 L286.36 1946.27 L283.96 1951.13 L283.13 1953.3 L282.48 1956.88 L280.64 1950.22 L277.92 1946.97 L274.46 1944.71 L270.49 1941.21 L269.76 1938.26 L265.7 1929.52 L261.04 1922.22 L258.97 1923.73 L253.34 1917.94 L215.98 1905.82 L184.62 1887.05 L166.45 1870.64 L134.45 1859.77 L115.73 1845.52 L61.81 1784.97 L55.5 1774.72 L52.73 1768.53 L45.07 1735.31 L40.92 1726.17 L21.09 1706.46 L14.08 1696.98 L13.12 1694.02 L13.12 1693.17 L9.93 1691.9 L9.93 1686.81 L25.01 1678.93 L34.28 1678.11 L43.14 1684.26 L63.34 1709 L68.69 1717.27 L76.2 1734.89 L79.29 1745.69 L80.58 1755.85 L85.89 1759.12 L97.79 1756.31 L109.68 1750.59 L114.99 1745.48 L118.77 1677.96 L117.16 1666.93 L102.63 1658.45 L83.17 1638.65 L67.63 1616.36 L64.81 1600.34 L68.69 1604.98 L70.25 1610.54 L71.73 1617 L76.34 1615.63 L80.58 1615.63 L91.56 1628.19 L98.62 1624.31 L102.35 1610.35 L103.46 1592.45 L96.4 1578.13 L81.41 1570.35 L67.76 1574.21 L64.81 1594.79 L60.75 1583.29 L21.42 1524.91 L18.33 1518.35 L21.14 1509.47 L28.84 1502.11 L37.97 1495.24 L45.07 1487.7 L50.15 1476.02 L52.41 1463.52 L53.01 1419.04 L54.85 1406.92 L59.92 1398.82 L70.39 1395.77 L76.34 1393 L74.82 1386.6 L70.67 1379.56 L68.69 1374.9 L71.18 1368.86 L75.24 1362.79 L78.97 1358.28 L80.58 1356.97 L76.07 1348.37 L67.49 1337.18 L61.86 1327.41 L66.75 1323.26 L75.33 1320 L86.44 1303.89 L95.71 1297.14 L87.82 1305.99 L92.58 1323.57 L87.96 1338.58 L87.96 1354.41 L92.21 1354.41 L93.96 1343.7 L93.87 1346.02 L94.7 1348.55 L95.71 1354.41 L103.18 1344.25 L132.93 1329.79 L142.47 1318.14 L143.44 1299.67 L137.49 1284.93 L130.02 1271.37 L126.61 1256.61 L124.67 1275.89 L117.66 1293.17 L103.04 1315.64 L102.81 1312.34 L99.58 1307.88 L105.67 1301.66 L112.17 1291.06 L116.28 1277.35 L114.99 1261.74 L112.17 1258.05 L103 1254.2 L99.58 1251.48 L95.53 1243.07 L95.9 1239.04 L98.29 1235.52 L104.47 1178.42 L101.52 1166.36 L98.29 1161.28 L95.85 1155.34 L96.26 1150.44 L108.62 1144.84 L110.56 1136.29 L110.56 1126.12 L111.48 1117.55 L134.59 1080.09 L138.6 1065.68 L136.76 1050.4 L130.85 1037.23 L122.41 1027.93 L113.28 1024.43 L100.88 1024.43 L90.45 1022.47 L83.26 1015.78 L80.58 1001.5 L80.58 970.32 L78.65 963.62 L70.25 955.78 L68.69 947.11 L76.16 957.04 L88.79 956.33 L98.11 945.85 L95.71 926.44 L109.13 918.87 L123.1 907.34 L134.08 891.64 L138.6 871.57 L137.22 859.03 L133.25 854.26 L127.12 852.38 L119.23 848.53 L111.07 840.64 L101.98 825.11 L95.71 817.06 L145.1 823.75 L161.15 818.82 L166.13 817.28 L177.25 791.16 L181.12 791.16 L181.49 799.49 L183.61 803.93 L187.58 804.67 L193.2 801.98 L188.68 781.63 L185.92 776.35 L181.12 781.26 L178.54 775.15 L161.84 760.09 L173.46 739.53 L172.45 715.78 L169.5 690.38 L169.59 676.68 L179.92 680.27 L185.27 670.38 L185.73 654.39 L181.12 639.91 L177.48 640.1 L109.64 612.02 L101.52 606.64 L91.19 602.02 L52.73 614.38 L52.24 606.4 L52.65 586.5 L48.14 578.4 L42.87 573.28 L41.53 570.25 L41.88 567.1 L41.58 561.99 L42.29 558.19 L44.45 554.23 L45.8 548.8 L42.17 531.24 L45.1 528.48 L49.72 527.85 L53.12 525.02 L56.11 512.17 L51.95 506.89 L51.77 506.78 L46.56 495.29 L44.51 480.71 L45.16 465.6 L47.91 452.49 L58.28 429.68 L56.93 422.36 L55.52 420.64 L47.03 410.3 L14.58 386.14 L5.68 376.28 L5.62 376.15 L0 363.95 L1.64 355.85 L18.45 337.62 L72.74 252.78 L73.27 248.82 L72.92 238.32 L74.03 232.75 L79.36 220.19 L82.29 215.81 L111.28 182.04 L118.84 169.47 L130.02 162.06 L139.28 151.39 L147.12 138.53 L153.98 124.21 L153.98 124.09 L157.14 112.53 L163.93 106.65 L172.07 101.97 L179.1 93.88 L182.27 84.68 L185.43 64.5 L188.71 53.88 L198.2 38.37 L213.01 20.78 L218.74 15.56 L228.94 6.27 L242.12 0 L255.07 6.73 L263.79 23.43 L268.6 43.06 L269.09 50.74 L269.59 58.46 L268.6 57.66 L265.96 61.92 L261.74 71 L260.75 76.43 L259.69 88.06 L260.04 93.26 L261.98 100.4 L271.76 124.21 L290.38 138.69 L299.99 143.63 L310.3 144.9 L315.66 143.17 L319.32 142 L340.75 129.25 L345.96 124.21 L346.08 124.05 L360.14 114.22 L387.78 115.06 L402.19 110.87 L422.57 83.59 L434.75 74.72 L449.34 83.19 L461.05 96.06 L489.34 111.74 L498.89 123.97 L499 123.97 L499 124.05 L499.06 124.21 L514.99 162.86 L518.1 167.2 L525.71 174.6 L528.52 180.51 L528.35 186.86 L522.49 195.86 L521.79 200.78 L524.42 205.58 L533.27 213.19 L536.55 217.85 L537.89 223.77 L536.9 234.14 L537.72 239.58 L542.64 252.14 L547.26 257.35 L554 258.36 L592.71 257.43 L601.44 258.92 L671.49 310.53 L680.95 320.77 L685.49 325.68 L696.32 340.59 L717.76 387.32 L723.85 407.68 L725.31 421.18 L725.43 445.63 L728.89 459.89 L746.69 506.78 L749.33 521.96 L752.14 531.99 L752.14 541.65 L746.16 555.59 L741.54 561.57 L737.44 564.66 L733.98 568.85 L731.29 578.04 L731.4 583.57 L734.27 592.95 Z "/>
</g>
</svg>
