<svg xmlns="http://www.w3.org/2000/svg" viewBox="0 0 1000 1000.55">
<g fill="#ccc" stroke="#333" stroke-width="0.5" stroke-linejoin="round">
<path fill-rule="evenodd" d="M186.95 686.02 L178.55 680.29 L170.14 674.57 L161.74 668.84 L153.33 663.1 L147.47 659.28 L146.28 658.51 L139.35 653.99 L131.23 648.69 L123.12 643.39 L115 638.09 L105.42 631.82 L95.83 625.55 L86.25 619.27 L76.67 612.98 L67.08 606.69 L57.5 600.39 L47.92 594.09 L38.33 587.77 L28.75 581.46 L19.17 575.13 L9.59 568.8 L0 562.46 L0 557.33 L0 552.21 L0 547.08 L0 541.94 L0 538.66 L0 535.38 L0 532.1 L0 528.82 L0 525.53 L0 522.25 L0 518.96 L0 515.67 L0 512.38 L0 509.09 L0 505.79 L0 502.49 L0 499.19 L0 495.89 L0 492.59 L0 489.29 L0 486.77 L0.18 485.28 L0.72 484.24 L1.62 483.45 L7.82 480.07 L10 478.32 L12.2 477.09 L12.81 476.47 L14.47 473.51 L15.2 472.92 L16.91 472.15 L17.7 471.67 L20.91 468.59 L24.22 466.33 L29.67 463.9 L31.28 462.77 L35.71 458.53 L40.83 455.05 L43.79 452.26 L46.12 451.04 L46.86 450.45 L49.82 447.43 L51.47 446.7 L53.74 446.8 L55.87 447.17 L56.96 447.21 L58.03 447.08 L59.03 446.71 L64.54 447.03 L68.94 442.37 L74.35 440.03 L78.07 439.64 L83.49 440.03 L91.95 443.53 L96.01 439.64 L102.78 438.87 L109.89 436.92 L116.65 436.14 L123.76 436.14 L129.85 436.14 L135.61 434.98 L141.7 434.2 L143.39 439.26 L147.45 440.81 L152.19 439.26 L157.26 432.64 L161.66 425.63 L165.05 419 L169.79 413.92 L174.86 410.4 L180.28 405.71 L184.34 402.58 L189.41 399.84 L196.52 396.7 L203.29 391.21 L208.7 384.15 L213.44 381.4 L219.2 379.82 L226.64 379.43 L234.76 377.46 L243.9 372.74 L243.56 369.2 L243.22 365.65 L245.59 363.29 L248.3 358.95 L245.68 354.72 L245.62 353.62 L245.4 352.62 L244.94 351.57 L244.37 351.05 L242.62 350.19 L241.76 349.36 L240.43 347.23 L239.74 346.49 L238.9 346.27 L238.18 346.65 L236.76 348 L235.9 348.38 L235.09 348.33 L234.52 347.82 L234.35 346.84 L234.67 345.73 L235.7 343.99 L235.8 342.69 L235.49 338.42 L235.69 337.38 L236.3 336.61 L238.96 334.66 L242.55 334.43 L243.22 319.74 L246.52 318 L248.59 318.48 L250.39 318.32 L264.54 315.76 L275.04 312.58 L283.5 311.38 L281.47 305.8 L278.13 296.89 L280.91 295.31 L289.9 294.54 L298.59 292.11 L305.25 292.42 L308.32 292.56 L311.8 292.73 L315.59 292.91 L319.62 293.1 L323.8 293.3 L328.06 293.5 L332.3 293.7 L336.45 293.89 L340.42 294.08 L344.12 294.25 L347.49 294.41 L350.43 294.55 L352.86 294.66 L354.7 294.75 L355.86 294.81 L356.27 294.83 L359.92 295 L361.82 294.54 L362.78 292.51 L362.53 291.32 L361.75 290.62 L360.74 290.31 L359.81 290.32 L358.01 291.04 L357.23 291.03 L357.02 290.1 L357.2 289.74 L358 289.1 L358.3 288.8 L358.61 288.18 L358.68 287.71 L358.67 287.23 L358.77 286.55 L359.54 281.31 L360.18 279.25 L360.67 278.23 L361.45 277.2 L362.24 276.78 L364.25 276.49 L366.04 275.75 L367.65 274.51 L370.46 271.36 L369.71 270.06 L356.17 259.6 L353.1 258.46 L351.51 257.1 L344.95 246.08 L347 244.59 L347.36 244.19 L347.65 243.71 L347.85 243.17 L347.96 242.58 L348.12 241.32 L348.13 239.97 L347.82 238.77 L347 237.98 L345.59 236.94 L344.34 235.78 L343.34 234.36 L342.68 232.54 L341.81 230.89 L339.36 228.49 L338.91 226.59 L338.92 220.89 L339.42 219.41 L340.09 217.96 L341 214.72 L341.72 213.63 L342.34 212.05 L342.11 210.14 L339.93 204.89 L339.4 204.2 L338.56 203.57 L336.88 202.97 L336.14 202.45 L335.84 201.53 L336.06 200.64 L336.53 200.05 L337.1 199.55 L337.59 198.93 L337.95 198.07 L337.99 197.43 L337.48 195.73 L337.04 192.86 L337.2 190.13 L339.46 180.72 L339.58 179.55 L339.46 178.8 L339.33 177.99 L335.88 167.19 L334.66 164.59 L332.8 162.38 L337.97 156.08 L337.42 155.77 L335.66 155.23 L329.82 149.21 L330.22 148.21 L332.76 144.26 L333.94 141.6 L334.57 141.12 L334.74 140.69 L333.86 139.78 L328.77 136.54 L327.13 134.98 L324.56 133.38 L323.9 132.58 L323.66 131.76 L323.6 130.95 L323.41 130.25 L322.79 129.78 L320.62 129.57 L318.99 128.51 L317.48 127.08 L315.68 125.77 L314.2 125.21 L313.33 124.03 L312.88 122.47 L312.81 120.14 L313.89 119.73 L314.09 119.81 L314.26 119.83 L314.41 119.92 L314.56 120.17 L315.99 119.45 L317.66 119.82 L319.41 120.57 L321.05 120.98 L324.18 120.54 L325.29 120.91 L325.69 120.98 L326.01 120.86 L326.85 120.17 L331.39 118.86 L332.65 117.94 L333.06 117.84 L334.51 117.89 L335.15 117.75 L335.9 117.21 L337.49 115.33 L340.59 114.27 L341.13 113.91 L341.52 112.86 L347.29 107.92 L348.24 107.6 L352.83 107.1 L354.11 106.71 L354.38 106.57 L354.62 106.34 L355.9 104.72 L356.81 104.46 L357.73 103.82 L358.51 103.02 L359.04 102.29 L359.46 101.1 L360.03 98.28 L360.53 97.22 L361.09 96.29 L362.79 91.84 L363.13 91.22 L363.7 90.95 L364.84 90.89 L365.09 90.6 L366.34 88.82 L366.86 88.44 L368 87.6 L369.48 86.19 L370.05 85.27 L370.41 84.9 L372.17 84.48 L373.09 83.88 L373.87 83.19 L374.61 82.71 L375.75 82.36 L376.35 82.41 L376.62 82.91 L376.88 83.16 L377.45 82.91 L379.29 81.81 L380.48 79.77 L381.61 79.45 L382 79.68 L382.36 80.1 L382.8 80.5 L383.43 80.68 L383.92 80.74 L384.86 81.05 L385.41 81.12 L385.99 81.3 L386.25 81.73 L386.47 82.26 L386.9 82.71 L387.38 82.83 L389.22 82.71 L390.09 82.49 L391.08 82.02 L391.89 81.33 L392.48 79.64 L393.07 79.54 L393.74 79.74 L394.24 79.82 L394.74 79.51 L395.08 79.11 L397.33 74.35 L397.38 73.71 L397.26 73.54 L397.17 73.17 L397.15 72.77 L397.21 72.52 L397.49 72.44 L397.77 72.59 L398.01 72.81 L398.2 72.89 L398.69 72.86 L399.7 72.95 L400.19 72.89 L402.22 71.9 L403.55 71.5 L404.15 71.87 L404.38 72.55 L404.9 72.87 L405.46 73.05 L405.81 73.26 L405.98 73.88 L405.68 74.7 L405.81 75.34 L406.6 76.21 L407.87 76.85 L411.32 77.58 L413.4 78.47 L414.43 78.68 L414.92 78.56 L416.41 78.23 L418.57 77.1 L420.57 75.62 L422.1 74.12 L423.82 70.62 L424.31 69.11 L425.95 65.33 L426.36 63.94 L426.42 63.27 L426.59 62.9 L426.99 62.61 L427.48 62.35 L427.89 62.05 L430.22 59.56 L431.06 58.96 L434.16 57.89 L434.69 57.51 L434.91 57.11 L435.98 56.42 L436.37 56.05 L436.54 55.52 L436.78 54.1 L437 53.6 L437.86 53.12 L439.05 52.88 L441.17 52.78 L442.28 52.56 L443.1 52.02 L443.83 51.34 L447.38 48.91 L449.22 48.36 L450.06 47.62 L450.8 46.79 L451.62 46.22 L452.55 45.99 L456.28 45.68 L456.9 45.63 L457.65 45.26 L459.28 44.13 L462.3 43.3 L463.07 42.71 L463.57 42.15 L464.68 41.39 L465.23 40.84 L465.44 40.38 L465.57 39.86 L465.77 39.31 L466.22 38.79 L467.04 38.44 L469.2 37.91 L471.02 36.71 L474.52 36.69 L475.58 36.31 L477.51 35.26 L478.67 35.05 L480.74 35.1 L481.71 34.99 L482.81 34.64 L485.64 33.21 L486.66 33.03 L487.54 33.2 L489.65 33.98 L490.78 34.23 L491.92 34.17 L493.91 33.58 L502.79 33.07 L503.55 33.03 L504.04 32.9 L505.18 32.35 L505.71 32.21 L506.14 32.27 L507.18 32.57 L507.73 32.58 L510.38 31.85 L513.1 31.68 L515.36 32.17 L515.96 32.21 L520.18 31.69 L532.28 28.05 L533.24 27.64 L534.3 27.58 L535.35 27.85 L536.25 28.43 L536.56 28.97 L536.65 29.52 L536.84 29.94 L537.42 30.11 L537.94 30.17 L538.93 30.46 L539.41 30.52 L546.37 30.11 L547.93 29.58 L552.51 25.95 L555.67 24.28 L556.92 23.2 L558.13 21.41 L558.43 20.59 L559.68 19.33 L562.46 17.29 L564.59 16.85 L564.97 16.9 L566.39 17.1 L568.02 18.11 L569.28 19.54 L570.63 20.72 L572.49 21.34 L574.09 21.28 L574.38 21.27 L575.89 20.39 L576.41 19.54 L576.65 18.64 L576.71 17.06 L577.21 17.02 L580.37 18.49 L582.19 18.98 L588.01 19.32 L588.97 19.19 L590.83 18.62 L591.84 18.49 L592.35 18.33 L592.72 17.95 L593.02 17.55 L593.33 17.29 L593.8 17.21 L594.84 17.32 L595.34 17.29 L597.16 16.36 L600.05 13.38 L601.62 12.29 L605.77 10.98 L608.01 10.72 L609.89 11.06 L611.62 12.16 L612.38 12.29 L612.9 12.23 L613.95 11.95 L615.64 11.89 L616.03 11.95 L618.26 12.24 L619.2 12.74 L621.22 11.65 L621.85 11.5 L622.43 11.63 L623.66 12.17 L624.31 12.29 L624.91 12.11 L626.19 11.28 L626.81 11.06 L627.61 11.12 L628.94 11.73 L629.63 11.88 L635.46 11.06 L636.06 11.15 L636.79 11.4 L637.48 11.73 L637.94 12.09 L638.53 12.41 L640.1 12.45 L640.78 12.74 L642.28 12.07 L642.76 12.05 L644.28 11.98 L647.92 12.29 L651.36 11.88 L652.24 12.04 L660.12 15.4 L661.01 16.26 L661.27 16.67 L661.85 16.78 L662.52 16.77 L663 16.84 L663.34 17.15 L663.77 17.89 L663.96 18.11 L664.77 18.5 L665.72 18.81 L666.72 18.97 L667.62 18.94 L666.65 21.88 L666.91 22.84 L668.28 23.89 L673.97 26.81 L675.57 27.23 L677.28 27.29 L680.58 26.81 L683.27 26.03 L683.55 25.95 L685.06 25.95 L685.28 25.8 L685.89 25.05 L686.23 24.75 L688.17 23.99 L689.13 23.27 L689.8 21.07 L690.45 20.14 L691.3 19.39 L692.18 18.94 L694.31 18.3 L695.21 17.83 L696.95 16.27 L698.08 15.85 L699.29 15.79 L702.63 16.49 L704.62 16.42 L712.77 14.57 L720.51 11.62 L722.38 10.47 L723.41 8.99 L723.49 7.71 L723.3 6.71 L723.29 5.76 L723.89 4.62 L724.26 4.23 L726.2 2.75 L726.89 1.94 L727.37 1.5 L728.96 0.63 L731.1 0.06 L733.36 0 L735.31 0.67 L737.05 2.04 L737.32 2.13 L737.34 2.75 L737.46 3.2 L737.71 3.47 L738.15 3.57 L738.7 4.01 L739.21 6.32 L740 7.33 L740.71 7.04 L741.55 7.37 L742.5 7.89 L743.47 8.16 L750.77 8.57 L751.39 8.78 L752.26 9.32 L753.08 9.99 L753.58 10.64 L753.56 11.63 L755.01 12.18 L756.9 12.36 L758.21 12.29 L762.51 10.95 L763.86 10.19 L764.63 10.53 L765.85 10.83 L766.99 10.87 L767.5 10.41 L767.94 9.83 L769.98 8.07 L770.67 7.71 L770.97 7.43 L771.36 6.77 L771.7 6.02 L771.85 5.45 L771.77 4.77 L771.52 4.3 L769.61 2.24 L768.19 1.04 L768.19 0.67 L768.72 0.59 L769.67 0.28 L770.17 0.25 L770.66 0.41 L771.56 0.93 L772.01 1.04 L772.11 1.09 L772.29 1.17 L772.5 1.39 L772.7 1.49 L773 1.27 L773.35 0.83 L773.56 0.69 L773.81 0.67 L774.27 0.84 L775.17 1.38 L775.66 1.5 L776.07 1.37 L777.31 0.67 L777.96 0.66 L778.09 0.72 L778.13 0.96 L778.47 1.5 L778.67 2.18 L778.99 2.57 L779.64 2.74 L780.62 2.75 L781.04 2.87 L781.48 3.15 L782.27 2.66 L783.13 2.36 L784.87 3.69 L786.31 5.22 L787.91 6.45 L790.07 6.88 L790.55 6.75 L790.97 6.53 L791.44 6.4 L792.05 6.5 L792.6 6.77 L793.09 7.09 L793.52 7.49 L793.9 7.93 L796.23 7.71 L796.71 7.51 L797.6 6.51 L798.06 6.09 L797.7 7.32 L797.09 8.66 L796.88 9.85 L797.7 10.64 L796.84 12.37 L796.86 12.38 L798.61 13.69 L801.35 14.52 L803.38 14.81 L810.24 13.12 L811.35 12.52 L812.32 11.65 L819.11 8.24 L819.98 8.81 L820.83 9.71 L821.77 10.19 L823.95 10.07 L825.05 10.19 L825.93 10.64 L826.64 10.35 L827.26 10.63 L827.88 11.14 L828.58 11.5 L830.25 11.66 L831.91 11.5 L836.96 9.37 L836.99 9.37 L837.14 10.97 L837.1 11.7 L837.27 12.32 L838.93 14.88 L838.89 15.61 L838.02 16.23 L834.67 17.59 L833 17.94 L831.19 17.81 L829.32 18.04 L827.82 18.78 L827.51 19.75 L829.2 20.64 L830.18 21.87 L829.76 23.99 L828.65 26.11 L827.57 27.32 L821.71 30.89 L818.58 32.07 L817.18 32.96 L816.04 34.36 L815.94 36.4 L815.94 36.44 L817.92 37.25 L822.13 37.8 L823.06 38.29 L823.98 38.54 L824.73 39 L825.14 40.11 L825.23 41.26 L825.16 43.75 L825.03 44.58 L824.98 44.89 L822.68 51.33 L822.45 53.81 L822.68 55 L823.04 56.12 L823.17 57.2 L822.73 58.33 L822.18 59.33 L821.16 63.74 L821.01 67.03 L820.81 67.74 L819.79 71.48 L819.51 76.24 L819.72 78.77 L820.29 80.86 L822.66 84.76 L823.48 86.71 L823.66 88.55 L824.14 93.52 L824.12 95.27 L822.38 99.49 L821.86 101.56 L821.76 103.73 L822.07 106.17 L823.18 108.28 L825.02 109.18 L827.03 109.81 L828.7 111.11 L828.22 112.27 L825.29 116.79 L823 119.32 L822.36 121.42 L821.51 125.77 L820.36 128.93 L819.87 131.21 L819.96 133.41 L820.86 139.36 L820.72 140.16 L820.34 140.69 L820.28 140.78 L818.72 142.43 L818.15 143.31 L818.01 144.23 L819.27 146.2 L818.9 146.86 L817.15 147.97 L816.85 148.45 L816.51 149.47 L816.3 149.87 L815.91 150.27 L814.77 150.97 L812.78 152.75 L812.37 153.12 L807.77 155.23 L805.75 156.68 L801.55 158.54 L799.66 159.92 L798.71 161.98 L796.89 168.91 L796.45 169.87 L795.84 170.6 L794.93 171.09 L791.85 171.59 L789.97 172.54 L788.64 173.92 L787.46 175.5 L785.5 177.53 L784.45 178.63 L783.78 180.21 L783.63 184.51 L782.63 190.37 L782.87 192.64 L783.53 195.85 L783.87 196.85 L785.26 199.56 L785.75 202.59 L786.17 204.07 L789.25 209.47 L792.96 215.96 L793.69 218.24 L793.69 218.48 L793.76 226.16 L794.5 228.87 L795.74 230.25 L797.53 230.79 L799.85 231.01 L801.61 231.61 L806.98 235.5 L807.92 235.99 L808.91 236.3 L809.93 236.37 L810.94 236.14 L812.02 236.8 L816.6 243.99 L821.51 251.69 L822.17 253.53 L822.82 261.62 L823.29 267.56 L823.86 269.45 L823.92 269.52 L825.25 270.98 L831.19 274.78 L838.92 280.41 L849.05 287.76 L857.2 293.68 L857.87 294.48 L858.42 295.56 L859.3 299.66 L859.43 300.26 L860.81 306.54 L862.18 312.81 L863.56 319.07 L864.93 325.33 L866.3 331.58 L867.68 337.82 L869.04 344.05 L870.42 350.28 L871.8 356.5 L873.17 362.72 L874.54 368.92 L875.91 375.12 L877.29 381.31 L878.66 387.49 L880.03 393.67 L881.4 399.85 L870.11 406.11 L871.25 407.94 L874.13 411.39 L876.66 414.41 L882.86 423.7 L888.57 434.52 L892.41 447.86 L896.24 461.18 L897.31 469.64 L897.46 480.13 L896.3 489.37 L893.86 508.71 L894.49 511.9 L901.56 530.7 L901.48 532.86 L901.33 533.34 L898.04 544.24 L897.23 545.33 L895.87 546.08 L894.68 546.95 L894.84 548.09 L895.54 549.31 L896.02 550.45 L895.64 551.49 L893.55 553.8 L892.86 554.96 L892.22 558.17 L891.42 560.32 L891.19 561.2 L891.17 562.11 L895.27 576.63 L896.21 582.31 L896.68 583.37 L897.21 583.86 L899.38 585.08 L900.14 585.73 L900.33 586.51 L899.12 592.29 L898.98 594.18 L899.53 595.68 L899.64 596.83 L897.62 603.79 L896.71 604.88 L879.61 613.08 L879.55 614.16 L879.37 615.08 L878.94 615.86 L877.29 617.43 L876.4 619.58 L875.73 620.44 L874.53 622.99 L875.66 625.99 L882.45 635.53 L889.84 645.91 L895.79 654.23 L903.18 664.59 L905.05 668.02 L905.7 671.42 L905.9 678.46 L906.11 686.02 L906.21 693.42 L906.82 694.85 L914.02 699.1 L914.94 700.54 L915.79 705.49 L916.39 707.35 L917.27 708.33 L923.63 713.48 L924.54 713.83 L926.46 713.64 L932.11 711.54 L937.46 709.55 L938.51 709.42 L939.56 709.63 L948.79 712.7 L960.35 716.54 L975.71 721.65 L977.71 722.31 L979.3 723.18 L980.55 724.81 L983.9 731.67 L987.4 738.81 L987.47 738.96 L992.9 750.06 L996.3 756.96 L1000 764.5 L996.71 766.62 L993.41 768.74 L990.12 770.86 L986.82 772.97 L983.52 775.09 L980.23 777.21 L976.94 779.32 L973.64 781.43 L970.34 783.55 L967.05 785.66 L963.76 787.77 L960.46 789.88 L957.17 791.99 L953.87 794.1 L950.57 796.21 L947.28 798.32 L943.98 800.43 L940.68 802.54 L937.39 804.64 L934.09 806.75 L930.8 808.85 L927.5 810.96 L924.21 813.06 L920.92 815.17 L917.62 817.27 L914.32 819.37 L911.03 821.48 L907.73 823.58 L904.44 825.68 L901.15 827.78 L897.85 829.88 L894.56 831.98 L891.26 834.08 L887.97 836.17 L884.67 838.27 L881.37 840.37 L878.08 842.46 L874.79 844.56 L871.49 846.65 L868.2 848.75 L864.9 850.84 L861.61 852.93 L858.31 855.03 L855.02 857.12 L851.72 859.21 L848.42 861.3 L845.13 863.39 L841.83 865.48 L838.54 867.57 L835.24 869.66 L831.95 871.75 L828.65 873.83 L825.36 875.92 L822.06 878.01 L818.77 880.09 L815.47 882.17 L812.18 884.26 L808.88 886.34 L805.58 888.43 L802.3 890.51 L799 892.59 L795.7 894.67 L792.41 896.76 L789.11 898.84 L782.77 902.84 L777.97 907.03 L774.51 910.04 L771.06 913.06 L767.6 916.07 L764.14 919.08 L760.39 922.36 L758.56 924 L755.77 926.57 L752.71 929.37 L749.66 932.17 L746.61 934.97 L743.56 937.76 L740.5 940.56 L737.45 943.36 L734.39 946.16 L731.35 948.95 L728.29 951.74 L725.24 954.54 L722.19 957.33 L719.13 960.12 L716.08 962.91 L713.03 965.7 L709.97 968.49 L706.92 971.28 L703.1 974.75 L701.01 976.23 L698.83 977.06 L692.59 978.33 L687.77 979.31 L677.16 981.46 L666.56 983.61 L661.73 984.59 L652.59 986.45 L643.46 988.3 L634.33 990.16 L625.19 992.01 L616.91 993.64 L608.63 995.27 L603.97 996.19 L600.35 996.9 L592.07 998.53 L587 999.52 L586.99 999.52 L583.07 1000.48 L581.83 1000.55 L581.12 1000.44 L580.63 1000.24 L579.49 999.52 L576.64 996.68 L574.4 995.71 L573.38 995.12 L572.42 994.38 L571.55 993.52 L570.74 992.35 L570.67 991.43 L571.11 990.52 L571.83 989.39 L572.2 988.39 L572.44 987.92 L573.09 987.5 L574.14 986.4 L574.36 985.52 L574.6 983.54 L575.04 982.6 L575.94 981.82 L576.97 981.26 L577.85 980.56 L578.33 979.39 L578.2 978.25 L577.68 977.43 L577.07 976.67 L576.64 975.72 L576.65 975.23 L576.92 974.22 L576.95 973.88 L576.74 973.44 L576.49 973.24 L576.23 973.08 L575.98 972.77 L575.36 970.89 L575.3 968.9 L576.2 958.53 L576 957.83 L575.33 957.17 L574.57 956.8 L572.82 956.27 L572.02 955.9 L569.21 953.65 L563.08 950.93 L549.81 948.12 L547.15 948.01 L542.73 947.15 L542.2 947.11 L541.26 946.89 L539.52 945.93 L538.58 945.55 L537.4 945.28 L536.66 945.01 L536.1 944.45 L534.14 940.83 L532.6 938.64 L530.81 936.69 L527.84 934.31 L527 933.8 L526.11 933.56 L525.09 933.75 L523.97 934.48 L522 936.37 L520.72 936.93 L520 936.84 L516.96 935.76 L516.47 935.45 L516.1 935.12 L515.68 934.86 L515.11 934.78 L514.43 934.98 L513.61 935.75 L513.08 936.01 L512.02 935.97 L511.65 935.34 L511.48 934.36 L511.01 933.3 L510.25 932.72 L509.47 932.66 L508.6 932.78 L507.55 932.72 L506.53 932.23 L500.77 927.42 L500.29 926.66 L500.33 922.79 L500.04 920.95 L499.05 919.47 L495.96 917.08 L494.05 916.07 L492.26 915.78 L491.41 915.22 L490.52 914.95 L488.57 914.62 L486.48 913.96 L485.65 913.37 L484.91 912.4 L483.89 910.6 L483.22 910.04 L482.09 909.73 L481.07 909.76 L479.14 910.18 L478.11 910.19 L477.01 910.04 L476.34 909.77 L475.98 909.11 L475.85 907.83 L475.89 906.81 L476.96 902.14 L477.57 896.47 L477.47 895.33 L476.57 892 L475.95 890.95 L470.27 886.97 L466.07 884.03 L461.88 881.09 L457.69 878.14 L453.49 875.2 L449.29 872.25 L445.1 869.3 L440.9 866.35 L436.71 863.4 L432.51 860.45 L428.32 857.5 L424.12 854.55 L420.61 852.07 L419.93 851.59 L415.73 848.63 L411.53 845.67 L407.34 842.72 L403.14 839.76 L398.95 836.8 L394.75 833.83 L390.56 830.87 L386.36 827.9 L382.16 824.94 L377.97 821.97 L373.77 819.01 L369.58 816.04 L365.38 813.06 L361.18 810.09 L356.99 807.12 L352.79 804.15 L348.59 801.17 L344.4 798.19 L340.21 795.21 L336.01 792.23 L331.81 789.25 L327.62 786.27 L323.42 783.29 L319.23 780.31 L315.03 777.32 L310.84 774.33 L306.64 771.34 L302.45 768.36 L298.25 765.37 L294.05 762.37 L289.86 759.38 L285.66 756.38 L281.47 753.39 L277.27 750.39 L273.07 747.39 L268.88 744.39 L265.02 741.63 L261.16 738.87 L257.3 736.11 L253.44 733.34 L249.58 730.58 L245.72 727.82 L241.86 725.05 L238 722.28 L234.15 719.51 L230.28 716.74 L226.42 713.97 L222.56 711.19 L218.7 708.42 L214.85 705.65 L210.99 702.87 L207.13 700.09 L201.75 696.22 L198.05 693.67 L194.36 691.13 L190.66 688.58 L186.97 686.03 L186.96 686.03 L186.95 686.02 Z "/>
</g>
</svg>
