<svg xmlns="http://www.w3.org/2000/svg" viewBox="0 0 1000 1220.32">
<g fill="#ccc" stroke="#333" stroke-width="0.5" stroke-linejoin="round">
<path fill-rule="evenodd" d="M169.35 1125.74 L174.4 1121.4 L177.47 1123.53 L177.05 1127.89 L171.68 1130.3 L151.81 1131.33 L146.01 1132.94 L137.71 1139.14 L124.65 1157 L115.48 1164.49 L113.14 1161.82 L99.14 1152.23 L90.13 1147.58 L87.25 1145 L101.81 1136.21 L107.3 1135.12 L119.16 1135.35 L124.75 1134.35 L132.62 1124.22 L145.28 1121.35 L159.42 1122.12 Z M554.56 1111.08 L561.33 1113.69 L562.67 1118.85 L560.28 1122.5 L555.83 1120.66 L553.11 1123.59 L550.35 1124.88 L547.34 1124.73 L543.96 1123.07 L542.77 1126.17 L540.75 1127.78 L537.93 1128.18 L534.41 1127.89 L533.49 1123.67 L532.2 1120.09 L530.32 1117.39 L527.62 1115.84 L532.8 1112.05 L540 1110.73 Z M999.62 1220.32 L995.69 1217.08 L998.96 1215.7 L1000 1216.1 Z M481.98 1094.03 L484.74 1092 L488.15 1091.91 L491.91 1093.06 L495.86 1094.78 L487.48 1099.05 L484.2 1098.62 Z M4.69 0.4 L4.46 3.74 L1.71 5.13 L0 3.12 L0.31 0 Z "/>
</g>
</svg>
