<svg xmlns="http://www.w3.org/2000/svg" viewBox="0 0 1000 835.14">
<g fill="#ccc" stroke="#333" stroke-width="0.5" stroke-linejoin="round">
<path fill-rule="evenodd" d="M838.04 555.04 L811.53 586.5 L780.4 601.06 L746.69 601.45 L713.54 589.34 L706.34 577.61 L698.56 574.48 L690.2 578.68 L680.12 590.51 L649.86 692.49 L560.52 730.29 L384.73 753.23 L369.16 771 L357.06 792.68 L339.48 814.16 L307.2 832.02 L284.44 835.14 L115.56 812.59 L83.57 788.77 L83.57 741.42 L3.17 615.62 L50.43 594.03 L66.28 589.92 L121.33 550.15 L111.82 490.34 L62.82 446.54 L0 454.95 L9.22 411.93 L55.33 331.73 L55.62 317.16 L32.28 301.31 L35.73 265.6 L51.3 227.34 L63.69 204.54 L125.36 179.28 L168.3 29.97 L256.48 34.58 L338.33 3.13 L380.98 0 L532.28 104 L562.82 118.4 L879.83 149.72 L855.62 226.65 L900.58 255.23 L965.42 275.38 L988.89 309.58 L1000 325.76 L929.97 332.32 L878.96 382 L848.13 460.62 Z "/>
</g>
</svg>
