<svg xmlns="http://www.w3.org/2000/svg" viewBox="0 0 1000 1124.98">
<g fill="#ccc" stroke="#333" stroke-width="0.5" stroke-linejoin="round">
<path fill-rule="evenodd" d="M113.32 19.76 L112.65 22.08 L109.76 23.12 L93.91 26.83 L91.47 28.22 L90.12 29.73 L89.2 31.43 L88.68 33.25 L88.51 35.13 L87.76 36.11 L84.13 38.22 L82.92 39.22 L82.22 40.95 L82.05 42.23 L81.46 43.16 L79.49 43.83 L76.37 44.06 L75.66 44.61 L75.42 46.26 L74.11 49.32 L71.1 51.25 L64.32 53.6 L63.65 53.68 L63.05 53.6 L62.54 53.76 L62.14 54.54 L62.1 55.23 L62.25 56.1 L62.56 56.87 L63.02 57.3 L67.99 59.06 L68.97 59.75 L69.5 62.47 L69.26 68.69 L68.99 75.6 L68.62 85.29 L68.23 95.38 L68.03 100.65 L67.75 108.16 L61.82 108.1 L54.47 108.02 L47.58 109 L43.67 111.17 L43.65 111.15 L39.73 104.51 L38.56 99.37 L40.41 94.24 L41.4 93.31 L42.28 93.1 L43.21 93.04 L44.32 92.58 L45.1 91.73 L45.41 90.7 L45.41 88.16 L45.18 87.13 L43.96 84.24 L42.53 81.39 L40.51 75.96 L40.57 73.77 L37.36 68.13 L36.73 64.27 L32.31 59 L28.54 53.02 L28.56 52.15 L29.51 52.41 L31.1 52.72 L32.15 53.04 L32.68 53.51 L33.21 55.41 L34.79 55.78 L36.1 54.93 L36.95 53.62 L37.05 52.51 L37.79 52.09 L37.74 50.51 L37.37 49.77 L36.63 49.51 L35.79 49.46 L35.16 50.35 L35 51.51 L35.05 53.25 L34.58 53.67 L33.99 53.41 L33.63 51.77 L33.1 50.93 L32.47 50.72 L32.05 51.46 L31.26 51.51 L30.31 50.99 L29.14 51.14 L27.45 50.88 L28.14 49.99 L37.23 42.24 L39.36 38.81 L41.81 30.51 L42.19 30.14 L43.15 30.14 L43.91 30.6 L44.64 31.53 L45.66 33.42 L46.38 32.8 L47.54 32.35 L48.77 32.05 L51.5 31.77 L52.66 31.33 L53.5 30.33 L56.87 23.63 L57.25 21.94 L57.15 18.47 L57.91 17.34 L60.09 17.62 L61.3 17.51 L66.8 15.71 L75.75 14.07 L77.02 13.6 L77.91 12.67 L79.66 9.4 L80.79 8.11 L82.1 7.05 L83.56 6.22 L84.66 4.91 L85.31 2.98 L86.22 1.11 L88.14 0 L89.25 0.4 L89.83 0.72 L91.32 1.52 L92.43 1.76 L93.68 1.5 L94.65 1.06 L95.61 0.96 L96.87 1.68 L98.05 3.31 L99.5 7.2 L101.08 8.99 L104.27 11.54 L109.57 17.89 Z M992.39 527.96 L992.94 531.99 L993.45 533.39 L995.02 535.81 L995.32 537.01 L994.8 538.59 L994.51 540.06 L994.58 544.62 L994.22 547.79 L994.68 548.93 L996.26 549.18 L995.92 560.9 L996.39 563 L999.95 570.94 L1000 571.93 L999.22 573.05 L996.7 575.03 L995.82 576.25 L995.63 577.16 L995.6 578.2 L995.81 580.19 L995.8 581.52 L995.45 582.49 L993.22 585.96 L991.79 589.24 L991.36 590.87 L991.36 592.96 L991.98 594.55 L992.82 596.12 L993.51 598.11 L993.85 604.27 L994.23 606.3 L994.1 607.13 L992.36 611.14 L991.88 621.77 L991.33 633.34 L991.76 637.03 L993.51 639.59 L995.55 641.74 L996.38 643.83 L996.71 648.87 L997.51 652.59 L997.28 654 L996.62 655.41 L993.9 659.42 L990.24 664.8 L989.27 667.18 L987.82 672.94 L986.28 679.05 L984.71 682.78 L984.18 686.05 L984.91 688.7 L986.56 691.02 L990.95 695.56 L992.74 697.94 L994.12 700.57 L995.07 703.58 L992.46 703.58 L982.44 703.58 L972.41 703.58 L962.39 703.58 L952.35 703.58 L942.32 703.58 L932.3 703.58 L922.26 703.58 L912.23 703.58 L902.2 703.58 L892.17 703.58 L882.15 703.58 L872.12 703.58 L862.1 703.58 L852.07 703.58 L842.04 703.58 L832.01 703.58 L832.01 716.07 L832.02 728.54 L832.03 741.05 L832.04 753.56 L832.04 761.08 L832.05 766.08 L832.06 778.6 L832.06 791.14 L832.07 803.67 L832.08 816.21 L832.09 828.78 L832.1 841.34 L832.11 853.92 L832.11 866.5 L832.12 879.09 L832.13 891.69 L832.14 904.3 L832.14 907.63 L832.14 909.4 L832.14 911.94 L832.14 915.63 L832.13 924.18 L832.11 932.73 L832.09 941.29 L832.08 949.85 L832.06 953.65 L832.14 953.88 L832.14 959.21 L832.14 964.3 L832.14 965.66 L832.32 967.47 L834.47 970.18 L837.28 974.73 L835.23 974.8 L834.57 974.73 L835.43 975.92 L835.73 976.98 L835.87 978.04 L836.23 979.28 L836.58 979.77 L837.55 980.62 L837.83 981 L837.96 981.82 L838 983.68 L838.14 984.18 L840.82 984.8 L842.15 985.42 L841.99 986.47 L841.24 987.55 L840.57 989.03 L840.15 990.6 L840.08 992.01 L840.45 993.06 L841.84 995.4 L842.29 996.61 L842.23 997.75 L842.02 998.66 L842.36 999.27 L843.9 999.48 L844.77 1000 L845.12 1001.22 L845.34 1002.64 L845.87 1003.79 L852.81 1009.5 L853.91 1009.89 L854.53 1009.82 L855.75 1009.35 L856.53 1009.15 L856.82 1008.89 L857.09 1008.74 L857.48 1008.97 L858.09 1009.62 L858.4 1009.82 L860.55 1010.19 L861.35 1010.99 L861.88 1012.1 L863.15 1013.83 L863.7 1014.84 L864.13 1015.34 L864.58 1015.57 L865.87 1015.82 L866.63 1016.27 L867.25 1017 L873.1 1026.35 L873.96 1028.72 L874.67 1029.79 L875.82 1030.51 L878.38 1031.31 L879.4 1032.38 L879.57 1033.06 L879.56 1034.53 L879.9 1035.26 L880.38 1035.62 L881.4 1035.63 L886.22 1037.59 L887.34 1038.43 L890.96 1042.38 L892.6 1044.59 L893.73 1046.84 L894.62 1050.78 L895.37 1052.03 L896.43 1052.93 L898.94 1054.29 L902.15 1057.21 L904.33 1058.65 L909.2 1060.78 L913.05 1061.84 L914.21 1062.51 L917.58 1066.17 L918.07 1067.13 L918.69 1069.41 L920.22 1071.92 L922.2 1074.21 L924.13 1075.8 L927.7 1077.19 L928.54 1078.1 L928.78 1079.46 L928.6 1080.78 L928.65 1081.99 L929.63 1083.04 L931.03 1083.44 L932.42 1083.28 L933.8 1082.92 L935.17 1082.73 L937.79 1082.95 L938.97 1083.3 L940.16 1083.88 L941.81 1085.09 L943.33 1086.96 L945.17 1088.5 L944.6 1089.72 L944.66 1090.8 L945.12 1091.9 L938.38 1093.23 L921.9 1096.49 L905.43 1099.77 L888.96 1103.05 L872.48 1106.32 L852.23 1110.24 L831.97 1114.15 L811.72 1118.06 L791.47 1121.98 L785.66 1123.1 L784.15 1123.54 L783.69 1123.38 L782.37 1121.64 L779.97 1120.45 L775.38 1118.8 L771.72 1116.76 L770.41 1116.43 L767.12 1116.65 L765.95 1116.43 L764.48 1116.69 L763.11 1117.32 L761.77 1117.65 L760.45 1117.06 L752.99 1119.1 L751.84 1119.41 L745.54 1121.14 L744.42 1123.38 L741.77 1123.91 L739.37 1124.81 L737.3 1124.98 L735.55 1123.38 L733.12 1122.14 L731.75 1121.76 L731.14 1122.52 L730.54 1122.87 L729.22 1122.64 L727.89 1122.06 L727.29 1121.35 L726 1120.64 L723.08 1120.36 L719.91 1120.52 L717.87 1121.06 L716.85 1120.54 L714.52 1118.8 L711.74 1117.4 L710.93 1116.75 L709.37 1114.99 L707.55 1113.36 L705.54 1112.49 L703.45 1113.01 L700.3 1110.35 L699.37 1110.01 L696.67 1110.51 L695.55 1110.58 L694.69 1110.01 L691.88 1112.37 L689.98 1111.58 L687.82 1111.47 L685.9 1111.98 L684.71 1113.01 L684.11 1112.37 L682.97 1112.88 L681.92 1113.05 L679.71 1113.01 L675 1113.49 L674.22 1113.37 L671.39 1112.37 L668.37 1110.64 L655.61 1110.64 L655.1 1110.99 L654.16 1112.57 L653.76 1113.01 L652.49 1112.91 L650.62 1112.31 L648.94 1111.54 L648.21 1110.93 L647.48 1109.4 L645.82 1108.97 L643.98 1109.17 L639.38 1110.21 L625.54 1110.39 L612.72 1106.54 L611.44 1105.7 L607.83 1105.96 L605.43 1105.46 L604.52 1105.43 L602.79 1105.8 L600.03 1106.9 L593.2 1107.25 L582.67 1105.29 L575.47 1101.68 L572.34 1100.92 L571.23 1099.96 L569.62 1097.81 L564.99 1092.91 L564.21 1092.37 L562.72 1091.64 L561.95 1090.87 L561.52 1090.1 L561.11 1088.6 L560.85 1087.98 L556.64 1084.46 L555.57 1083.88 L555.31 1082.94 L552.54 1077.53 L550.61 1076.95 L550.38 1076.77 L550.24 1075.9 L548.91 1072.7 L548.39 1072.27 L547.86 1071.94 L547.57 1071.15 L547.45 1070.64 L546.82 1070.59 L542.51 1070.59 L521.8 1070.58 L510.89 1070.57 L501.1 1070.57 L480.4 1070.56 L459.7 1070.56 L452.67 1070.56 L438.99 1070.55 L418.28 1070.54 L397.58 1070.54 L376.88 1070.53 L356.19 1070.53 L335.48 1070.53 L314.78 1070.52 L313.88 1070.52 L294.08 1070.52 L273.38 1070.51 L252.67 1070.51 L231.96 1070.5 L211.26 1070.49 L205.75 1070.49 L205.72 1070.49 L204.81 1070.48 L204.73 1070.91 L203.97 1072.59 L202.19 1072.87 L198.62 1072.27 L198.07 1072.47 L196.8 1073.23 L195.92 1073.49 L194.96 1073.49 L193.65 1073.07 L191.9 1072.85 L190.42 1072.38 L189.51 1072.27 L188.79 1072.46 L187.5 1073.3 L186.5 1073.49 L184.62 1073.11 L183.45 1072.19 L179.75 1067.19 L178.74 1066.3 L171.16 1062.03 L163.39 1057.68 L156.31 1051.83 L149.44 1047.99 L150.22 1045.58 L149.52 1044.2 L148.35 1043.06 L147.29 1039.73 L146.09 1038.57 L144.4 1037.86 L142.49 1037.62 L141.04 1037.18 L138.2 1035.2 L136.72 1034.68 L135.29 1035.06 L133.32 1035.59 L132.81 1035.54 L132.26 1035.19 L131.02 1035.49 L128.96 1036.47 L128.96 1035.84 L128.12 1036.16 L127.17 1036.13 L125.36 1035.84 L124.49 1035.41 L123.95 1034.59 L123.36 1034.11 L122.29 1034.68 L120.79 1033.57 L119.03 1033.69 L117.2 1034.32 L108.53 1035.84 L104.28 1038.33 L101.76 1038.9 L100.19 1039.69 L98.27 1040.22 L97.88 1041.04 L97.73 1041.99 L97.4 1042.75 L96.7 1043.24 L95.26 1043.68 L94.65 1043.95 L93.91 1044.61 L93.25 1045.84 L92.71 1046.55 L89.97 1047.42 L86.38 1049.15 L83.55 1051.57 L82.03 1052.36 L79.99 1052.65 L78.02 1053.33 L74.41 1056.5 L72.45 1057.51 L71.43 1057.6 L68.58 1056.94 L63.84 1056.54 L62.32 1056.02 L60.4 1054.88 L59.57 1054.93 L58.47 1055.83 L57.3 1056.31 L52.07 1056.12 L46.26 1056.69 L45.99 1056.34 L45.77 1055.54 L45.38 1054.75 L44.62 1054.39 L43.76 1054.18 L42.86 1053.68 L42.06 1053.12 L41.61 1052.65 L41.3 1051.99 L41.16 1051.34 L40.97 1050.77 L40.45 1050.3 L39.71 1050.05 L39.32 1050.29 L38.89 1050.67 L37.97 1050.87 L35.2 1050.04 L34.37 1049.49 L33.79 1049.45 L33.31 1049.63 L32.75 1049.77 L29.01 1050.28 L25.31 1051.37 L22.01 1052.94 L18.2 1055.82 L14.89 1057.41 L13.41 1058.43 L12.93 1059.11 L12.76 1059.67 L12.35 1060.03 L11.15 1060.15 L10.29 1059.98 L8.89 1059.23 L7.81 1059.05 L7.81 1059.04 L7.81 1058.42 L7.15 1057.9 L6.73 1057.05 L6.56 1056.02 L6.65 1054.9 L7.2 1051.65 L7.25 1040.49 L8.29 1033.23 L8.93 1026.69 L7.97 1020.71 L7.97 1018.16 L9.4 1017.76 L9.8 1021.35 L10.84 1022.86 L12.19 1019.27 L11.96 1012.8 L12.4 1010.64 L11.65 1002.63 L12.31 993.81 L8.86 961.93 L8.91 960.28 L9.29 958.92 L11.1 955.12 L9.28 951.24 L5.42 945.17 L5.34 941.55 L6.65 936.68 L7.6 935.92 L9.3 934.85 L10.94 934.18 L11.65 934.66 L12.02 936.12 L12.95 936.57 L14.11 936.22 L18.18 932.29 L18.88 931.01 L19.13 929.88 L19.21 927.54 L19.43 926.38 L21.07 924.39 L26.04 921.44 L27.09 919.52 L27.36 917.09 L28.98 910.8 L29.94 908.55 L29.1 906.34 L29.38 903.87 L30.44 899.12 L31.23 889.28 L31.66 888.01 L32.37 886.91 L35.15 884.24 L35.75 884.09 L36.99 884.76 L37.65 884.76 L38.4 883.89 L38.76 882.5 L38.7 881.02 L38.2 879.89 L37 879.27 L36.15 879.55 L35.75 879.42 L35.96 877.65 L36.75 875 L38.87 869.97 L39.31 867.05 L39.63 865.92 L40.4 864.99 L41.32 864.15 L42.06 863.29 L42.51 862.15 L43.25 857.57 L43.25 856.47 L43.44 855.88 L44.04 855.11 L44.59 855.1 L45.12 855.26 L45.69 855.02 L46.39 853.93 L47.08 851.62 L48.69 848.97 L48.65 847.49 L48.31 845.99 L48.17 844.43 L48.36 843.38 L49 841.48 L50.3 835.37 L50.81 828.71 L51.2 827.58 L52.47 825.47 L53.41 822.54 L54.29 817 L54.55 811.66 L54.29 808.95 L53.43 806.15 L52.84 804.81 L52.67 804.18 L52.59 803.32 L52.47 802.88 L52.11 802.08 L52.03 801.61 L52.15 801.01 L52.42 801.04 L52.79 801.22 L53.49 800.88 L54.46 800.7 L54.83 800.47 L55.17 799.83 L55.34 799.08 L55.39 798.29 L55.34 797.57 L54.69 796.42 L53.71 795.3 L53.21 794.12 L54.5 792.01 L54.9 790.23 L56.53 788.27 L56.9 787.08 L57.12 785.82 L57.59 784.56 L58.95 782.42 L59.19 781.57 L59.29 778.66 L59.54 777.35 L60.21 776.35 L62.13 775.75 L62.59 775.32 L63.03 775.01 L63.65 775.13 L64.75 776.01 L65.28 776.31 L65.87 776.23 L67.22 774.41 L67.75 771.45 L68.34 762.77 L68.05 754.61 L68.31 753.62 L69.46 751.44 L69.76 750.32 L68.93 749.16 L68.81 748.58 L68.96 748.23 L69.17 747.92 L69.21 745.28 L69.01 744.03 L68.23 741.39 L68.05 740.1 L68.26 738.77 L68.81 737.49 L69.69 736.53 L70.84 736.17 L72.52 735.98 L73.11 735.45 L73.55 734.56 L74.67 733.33 L75.99 732.63 L77.05 732.4 L77.88 731.91 L78.52 730.44 L78.58 729.67 L78.39 729.05 L78.15 728.49 L78.02 727.87 L78.2 727.33 L78.95 726.5 L79.14 725.92 L79.66 724.64 L81.96 723.41 L82.49 722.47 L82.69 721.55 L83.16 721.51 L83.71 721.81 L84.14 721.9 L85.64 720.9 L85.73 720.77 L87.18 720.14 L88.13 719.45 L93.43 712.55 L95.73 710.88 L96.56 709.98 L97.94 707.77 L102.92 702 L104.04 699.77 L104.05 697.59 L103.3 695.35 L102.11 693.01 L101.52 690.38 L102.49 688.28 L106.22 684.43 L108.15 683.3 L113.43 678.22 L115.53 677.09 L116.19 676.52 L117.58 674.04 L118.09 673.39 L120.42 671.29 L121.78 670.5 L123.35 670.31 L123.42 670.66 L125.21 670.95 L126.16 671.44 L128.71 668.92 L129.72 668.56 L131.12 668.8 L132.51 669.9 L133.87 670.31 L136.75 669.76 L139.08 667.91 L142.69 664.05 L144.47 662.69 L145.24 661.66 L145.54 660.36 L145.7 656.95 L146.03 655.41 L146.64 653.89 L148.17 651.46 L153.26 646.51 L153.81 646.51 L153.81 647.08 L152.96 647.39 L152.42 647.9 L152.31 648.59 L152.71 649.38 L153.97 648.13 L155.59 645.46 L158.23 642.55 L159 641.33 L160.92 634.8 L163.33 629.9 L164.27 627.24 L165.08 621.5 L165.68 620.21 L166.84 618.97 L167.8 617.6 L168.59 616.06 L169.22 614.25 L170.52 606.03 L171.3 603.56 L171.49 601.85 L170.13 586.93 L170.47 578.03 L170.8 576.16 L171.49 574.7 L170.85 573.96 L170.91 573.03 L171.27 572.02 L171.49 571.02 L171.46 566.54 L171.55 565.78 L171.94 564.89 L173.46 562.77 L173.67 561.78 L173.69 559.53 L175.68 547.8 L175.76 543.01 L175.84 536.98 L175.43 533.99 L174.24 531.36 L167.03 520.65 L166.4 519.08 L166.37 517.68 L167.04 516.29 L169.49 513.33 L169.65 511.99 L169.1 510.69 L168.13 509.38 L164.78 506.59 L164.27 505.76 L163.93 504.85 L156.29 495.6 L151.14 491.37 L149.95 489.71 L149.55 488.18 L149.4 482.64 L149.12 480.85 L148.44 479.09 L144.1 472.92 L143.09 471.09 L142.17 467.08 L140.89 465.4 L137.77 462.18 L132.99 454.44 L133.18 453.24 L133.93 452.08 L134.42 450.38 L133.77 447.04 L132.02 443.48 L129.81 440.14 L123.4 432.52 L122.8 431 L123.2 429.58 L125.01 427.65 L125.56 426.19 L125.44 424.79 L124.95 423.15 L124.29 421.78 L123.63 421.21 L123.71 420.27 L121.09 412.7 L120.95 411.14 L121.15 407.47 L120.81 406.21 L119.29 403.35 L118.95 401.56 L117.11 400.16 L111.04 390.02 L108.73 384.6 L107.08 382.23 L106.76 377.67 L109.82 371.26 L114.35 365.77 L118.39 364.03 L116.63 366.64 L110.83 371.5 L107.93 378.29 L107.39 380.45 L108.42 381.41 L109.27 380.69 L113.8 372.98 L113.98 372.15 L114.39 371.28 L115.35 371.01 L116.45 370.98 L117.29 370.82 L118.47 369.73 L119.34 367.05 L120.32 365.41 L122.35 363.26 L122.8 362.35 L122.88 361.46 L122.75 359.54 L123.08 358.73 L125.46 356.09 L126.87 355.02 L128.32 354.54 L124.3 358.58 L123.35 360.12 L124.49 359.44 L127.17 358.23 L128.65 357.27 L129.29 357.13 L129.81 356.8 L130.01 355.92 L130.05 355.35 L130.21 354.92 L130.54 354.64 L131.11 354.54 L136.11 355.26 L138.05 354.56 L139.11 350.41 L140.3 347.36 L140.53 346.14 L140.14 344.93 L137.77 341.63 L136.86 339.2 L135.78 333.72 L134.98 331.09 L136.06 330.86 L136.83 330.96 L137.44 330.84 L138.03 329.97 L138.25 329.18 L138.32 323.04 L137.95 321.27 L137.18 319.34 L129.72 307.55 L128.75 306.8 L127.61 303.12 L126.94 301.71 L126.3 300.79 L125.33 298.64 L124.76 297.8 L123.35 294.73 L122.65 291 L117.29 281.35 L106.27 256.38 L102.47 247.04 L100.23 238.84 L98 236.45 L96.81 235.08 L95.27 233.21 L95.69 230.39 L95.26 228.25 L93.92 212.05 L93.12 209.56 L92.95 208.26 L92.82 207.84 L92.58 207.55 L92.46 207.27 L92.68 206.88 L93.22 206.24 L93.45 205.82 L93.65 204.99 L93.88 204.73 L93.94 204.45 L93.56 203.82 L91.2 205.34 L89.59 204.65 L83.72 196.48 L76.74 190.03 L71.11 181.72 L63.65 168.17 L60.73 161.29 L58.6 156.7 L56.44 153.71 L54.48 150.99 L52.43 148.23 L49.23 142.35 L48.87 139.68 L50.1 138.2 L51.91 137.71 L53.6 136.73 L53.07 137.97 L52.89 140.29 L54.67 140.11 L57.52 139.3 L61.62 139.21 L66.78 138.04 L69.27 136.43 L71.04 135.81 L73.53 135.45 L77.74 133.15 L78.77 132.71 L80.73 132.77 L82.42 133.39 L84.46 134.01 L86.6 134.37 L88.91 133.74 L92.64 132.94 L96.19 131.69 L97.88 130.44 L101.53 128.84 L103.04 126.79 L104.64 124.83 L105.17 123.32 L106.23 122.34 L108.27 121.89 L109.78 121.71 L111.12 121.09 L112.54 121.26 L115.49 121.54 L116.4 121.46 L117.8 120.91 L121.07 119.15 L122.21 118.72 L122.29 118.71 L129.11 119.29 L132.47 120.14 L135.01 121.49 L135.91 120.84 L137.54 119.08 L138.07 118.71 L140.73 118.76 L147.17 118.88 L149.55 119.62 L150.53 119.57 L152 118.95 L152.77 118.79 L159.14 119.47 L172.51 118.39 L183.52 117.51 L186.64 118.46 L188.58 119.57 L189.78 120.02 L199.38 119.29 L201.23 119.5 L206 121.19 L207.58 121.4 L216 121.56 L223.31 121.71 L226.98 121.07 L232.1 122.38 L234.6 122.63 L244.86 120.74 L249.37 120.66 L252.4 120.61 L259.76 120.49 L267.12 120.36 L274.48 120.24 L281.84 120.12 L289.21 119.99 L296.56 119.88 L303.93 119.75 L311.29 119.63 L318.66 119.51 L326.02 119.39 L333.38 119.26 L340.75 119.14 L348.11 119.01 L355.47 118.89 L357.6 118.85 L362.83 118.76 L370.2 118.64 L374.94 118.57 L377 118.99 L378.39 119.83 L379.67 120.86 L381.43 121.77 L382.74 121.99 L383.95 121.81 L386.54 121.05 L388.14 120.81 L389.59 120.86 L391.02 121.2 L394.08 122.44 L394.67 122.77 L397.66 124.25 L397.4 124.94 L396.31 126.22 L396.32 126.74 L397.1 127.77 L397.5 128.62 L397.65 129.38 L397.97 134.47 L398.22 135.38 L398.69 135.33 L399.45 134.95 L400.17 134.85 L400.47 135.66 L398.77 137.65 L400.37 137.8 L401.35 138.53 L402.73 140.42 L403.67 140.92 L404.74 141.26 L405.61 141.8 L405.98 142.89 L407.39 144.49 L408.1 145.71 L407.91 146.79 L407.34 147.82 L407.14 149.15 L407.19 155.1 L407.31 155.79 L407.57 156.55 L407.75 157.34 L407.64 158.15 L407.18 158.44 L406.44 158.5 L405.74 158.75 L405.43 159.57 L405.38 162.7 L405.52 163.01 L405.98 163.75 L406.51 164.08 L407.05 163.96 L407.47 164.07 L407.64 165.13 L407.17 166.19 L406.44 167.31 L406.44 168.11 L408.19 168.19 L407.66 169.37 L407.7 170.28 L408.21 171.04 L409.04 171.81 L409.76 172.74 L409.72 173.52 L408.73 175.2 L408.43 176.62 L408.69 177.94 L409.87 180.66 L410.22 182.1 L410.46 185.09 L410.82 186.55 L411.44 187.87 L415.88 194.11 L416.19 195.31 L416.32 196.49 L416.67 197.58 L417.6 198.45 L418.48 198.75 L420.42 198.95 L421.34 199.15 L423.29 200.53 L424.26 202.52 L424.87 207.17 L424.68 207.5 L424.39 208.27 L424.4 209.03 L425.12 209.39 L426.04 209.58 L426.54 210.07 L426.87 210.72 L427.3 211.35 L427.99 212.78 L427.68 214.05 L427.11 215.44 L427.02 217.21 L424.43 216.51 L424.27 218.55 L425.92 223.87 L425.77 228.22 L426.19 228.92 L426.97 229.4 L427.96 230.46 L429.27 232.31 L429.48 233.58 L429.48 234.84 L429.84 235.81 L432 236.47 L434.73 238.41 L436.81 239.42 L437.69 240.23 L438.05 241.46 L438.05 242.35 L438.07 244.31 L438.55 245.42 L439.69 246.19 L440.34 245.05 L440.82 244.89 L441.31 245.23 L441.95 245.58 L443.67 246.03 L444.4 246.41 L444.7 247 L444.27 247.5 L443.32 247.82 L442.38 248.28 L441.95 249.25 L442.14 250.02 L442.66 250.55 L443.34 251.05 L444.1 251.75 L445.18 253.58 L446.53 257.49 L447.73 259.25 L451.67 261.24 L453.27 262.44 L452.97 263.97 L453.35 265.29 L453.27 267.21 L453.47 268.49 L454.67 267.92 L454.84 268.54 L455.02 268.69 L455.02 268.73 L454.67 269.08 L456.01 269.65 L456.03 270.36 L455.51 271.13 L455.22 271.86 L455.65 272.9 L457.11 274.21 L457.42 274.94 L457.79 275.38 L459.65 275.65 L460.45 276.05 L460.57 276.82 L460.51 277.83 L460.9 278.57 L462.43 278.58 L462.43 279.14 L461.68 279.87 L462.24 280.05 L463.31 280.06 L464.09 280.25 L464.33 281.17 L464.29 282.21 L464.56 282.83 L465.73 282.47 L466.66 283.52 L466.36 284.24 L465.61 285 L465.18 286.11 L465.48 286.65 L466.21 287.18 L467.94 288.04 L467.56 288.65 L467.52 288.88 L467.69 289.11 L467.94 289.71 L468.17 289.35 L468.66 288.94 L469.04 288.55 L469.77 291.14 L470.2 291.93 L471.01 292.69 L472.79 293.61 L473.45 294.2 L473.73 295.59 L472.79 297.91 L473.42 299.12 L473.45 299.17 L474.07 299.88 L478.59 301 L480.86 300.96 L487.71 298.54 L490.14 298.74 L492.87 299.76 L493.87 299.64 L498.89 296.87 L500.2 296.6 L502.89 296.89 L505.27 298.04 L509.39 301.56 L511.54 302.04 L518.77 301.88 L518.25 299.83 L518.34 297.57 L519.09 295.69 L520.56 294.8 L521.81 294.48 L525.1 292.91 L526.4 292.72 L532.42 292.96 L536.37 293.11 L539.39 294.27 L540.43 294.34 L541.67 293.98 L543.44 293.03 L544.78 292.83 L549.73 292.76 L550.22 292.83 L551.81 292.77 L551.38 289.72 L551.55 288.14 L552.53 287.45 L558.35 287.46 L564.66 287.46 L570.44 287.46 L571.15 287.91 L571.54 290.2 L572.04 291.2 L573.29 293.14 L576.86 293.14 L587.14 293.14 L597.44 293.14 L607.73 293.14 L618.03 293.14 L620.23 293.14 L618.5 286.8 L618.25 284.71 L618.48 282.16 L619.67 278.43 L620.43 275.99 L622.03 270.98 L622.32 268.85 L622.29 266.89 L621.66 264.77 L620.74 262.59 L620.08 260.41 L620.24 258.29 L625.81 258.74 L627.37 258.38 L628.52 257.16 L629.37 253.97 L630.47 252.54 L630.53 252.49 L630.59 252.45 L630.66 252.41 L632.95 250.58 L633 248.06 L630.86 242.65 L630.23 239.86 L629.98 237.27 L630.86 224.09 L631.65 221.48 L632.59 219.97 L634.81 217.14 L635.33 215.83 L635.14 214.97 L633.65 211.74 L637.87 211.74 L641.26 211.74 L644.65 211.74 L648.03 211.74 L651.42 211.74 L654.81 211.74 L658.21 211.74 L661.59 211.74 L664.98 211.74 L668.37 211.74 L669.26 211.74 L671.76 211.74 L675.15 211.74 L678.55 211.74 L681.93 211.74 L685.32 211.74 L688.71 211.74 L692.11 211.74 L695.99 211.74 L695.98 210.56 L696.34 207.88 L696.7 206.71 L697.36 205.49 L698.02 204.96 L698.96 204.82 L703.2 204.81 L709.95 204.78 L716.92 204.77 L721.58 204.75 L719.7 209.7 L717.51 215.47 L716.25 218.78 L714.56 223.22 L714.06 227.01 L714.15 230.87 L714.24 234.87 L718 234.85 L723.87 234.84 L729.74 234.83 L735.6 234.8 L741.47 234.79 L747.35 234.78 L753.22 234.75 L759.09 234.74 L764.95 234.73 L770.83 234.71 L776.69 234.69 L782.56 234.68 L788.44 234.66 L794.3 234.64 L800.18 234.63 L806.05 234.61 L811.91 234.59 L814.63 234.58 L816.28 234.63 L816.25 234.91 L816.54 235.31 L817.07 235.49 L817.69 235.89 L818.2 236.5 L820.02 240.39 L820.47 240.91 L820.91 241.66 L820.71 242.34 L820.31 242.92 L820.15 243.36 L820.61 244.28 L821.18 244.85 L821.66 245.46 L821.86 246.47 L821.76 246.96 L821.35 247.7 L821.26 248.11 L821.44 248.58 L822.22 249.33 L822.41 249.8 L822.26 250.84 L821.52 252.49 L821.26 253.41 L821.2 254.43 L821.38 254.94 L821.65 255.38 L821.86 256.19 L821.86 259.25 L821.59 259.88 L820.41 261.07 L820.15 261.55 L820 263.06 L819.63 264.11 L819.07 265.72 L818.13 268.48 L817.09 271.49 L816.46 273.31 L815.57 275.89 L815.11 277.23 L814.63 280.81 L815.14 282.91 L815.24 283.86 L814.98 284.82 L813.81 286.42 L813.54 287.21 L813.77 292.76 L814.14 294.2 L814.93 294.86 L817.46 296.3 L818 297.25 L818.18 299.22 L818.71 300.86 L819.59 302.3 L821.62 304.67 L822.11 305.76 L822.35 307.14 L822.53 310.62 L823.4 314.5 L824.06 315.97 L826.42 318.28 L827.22 319.79 L826.62 320.12 L825.98 320.47 L825.55 321.41 L826.48 323.49 L828.46 326.65 L829.1 330.15 L828.79 333.74 L826.87 340.01 L827.28 340.16 L827.53 340.33 L827.85 340.48 L828.46 340.53 L826.99 343.14 L826.12 345.61 L825.17 351.6 L824.33 356.78 L823.77 357.35 L823.15 360.05 L822.32 362.02 L821.66 368.51 L821.86 372.76 L820.7 382.11 L821.68 390.33 L821.66 393.67 L820.81 397.11 L818.31 402.2 L817.79 405.05 L816.95 406.74 L816.84 407.77 L817.19 408.66 L818.55 410.33 L819.1 411.17 L820.09 414.5 L821.01 421.68 L821.86 425.09 L823.86 428.3 L828.98 433.69 L830.12 436.87 L830.62 436.6 L831.87 436.08 L832.37 435.8 L832.52 438.45 L833.5 440.75 L838.14 446.17 L838.94 446.64 L839.5 446.46 L840.08 445.87 L840.97 446.32 L842.31 447.49 L845.43 449.47 L846.53 450.77 L847.15 452.59 L847.8 455.48 L849.45 459.96 L850.16 463.41 L850.55 464.43 L850 467.09 L851.47 470.83 L853.46 474.51 L854.89 478.37 L856.78 481.73 L857.48 484.2 L858.65 485.65 L858.92 486.6 L858.83 487.53 L858.41 489.14 L858.32 489.98 L857.93 491.22 L856.12 494.18 L855.57 495.89 L855.74 497.63 L856.55 498.74 L857.55 499.82 L858.32 501.54 L858.6 505.01 L858.53 506.62 L858.45 508.35 L858.65 511.24 L859.97 513.36 L859.54 513.87 L859.41 514.12 L859.64 517.27 L859.41 518.84 L858.62 519.54 L857.08 519.77 L855.08 520.37 L851.71 521.78 L850.25 522.83 L848.38 524.52 L846.98 526.32 L847 527.67 L847.74 528.94 L849.45 534.69 L849.45 537.82 L849.71 538.24 L850.9 539.1 L851.15 539.5 L851.43 540.92 L852.78 543.34 L853.31 544.89 L854.25 552.15 L853.97 555.61 L852.81 558.98 L854.86 558.87 L856.37 557.92 L859.91 554.1 L861.09 553.27 L869.16 550.53 L871.5 548.52 L874.06 541.94 L877.01 541.51 L883.15 544.01 L886.16 545.22 L889.23 546.1 L892.35 546.41 L895.3 545.89 L897 544.91 L898.74 543.64 L900.54 542.74 L902.47 542.82 L904.12 543.69 L907.16 545.72 L908.77 546.41 L911.87 546.88 L915.48 546.88 L923.58 545.49 L930.2 544.36 L939.06 539.42 L944.45 536.41 L947.85 535.43 L951.12 535.25 L954.25 535.52 L959.28 536.92 L966.1 538.82 L968.78 539.03 L971.95 538.77 L975.03 539.13 L978.37 540.19 L981.6 540.79 L984.32 539.8 L984.86 539.02 L985.48 537.18 L985.96 536.35 L986.73 535.7 L988.45 534.68 L989.21 533.96 L989.87 532.31 L990.23 530.36 L990.88 528.72 Z M4.55 1005.54 L4.62 1008.76 L5.5 1011.78 L5.58 1012.9 L3.74 1011.15 L2.63 1008.68 L0 1000.38 L0.16 998.07 L0.96 997.04 L2.63 995.6 L4.06 996.08 L4.21 1000.23 L4.55 1002.08 Z "/>
</g>
</svg>
