<svg xmlns="http://www.w3.org/2000/svg" viewBox="0 0 1000 905.15">
<g fill="#ccc" stroke="#333" stroke-width="0.5" stroke-linejoin="round">
<path fill-rule="evenodd" d="M837.59 687.7 L884.1 680.54 L906.66 681.74 L906.17 695.53 L866.39 763.32 L851.18 783.24 L829.35 797.72 L777.43 813.38 L654.5 890.34 L648.84 881.49 L635.41 871.78 L626.03 861.74 L580.34 896.13 L553.17 905.15 L518.72 904.64 L569.91 844.37 L585.27 831.94 L608.24 823.6 L659.03 814.4 L681.67 803.42 L717.58 764.17 L742.81 726.79 L776.37 698.77 Z M1.7 17.66 L0 0 L10.43 2.56 Z M935.36 653.36 L950.32 647.69 L956.31 636.97 L983.84 642.64 L1000 652.73 L987.43 657.77 L961.7 665.34 L956.91 672.27 L938.35 684.87 L931.77 677.94 L939.55 667.86 Z M351.38 687.79 L332.61 680.94 L330.31 668.84 L348.31 658.75 L364.15 666.36 L383.17 666.82 Z M485.59 698.1 L495.55 701.32 L487.5 704.15 L480.61 703.75 L475.24 699.31 L470.26 696.48 L474.48 695.68 L481.76 697.29 Z M505.89 705.36 L509.72 705.36 L512.02 703.34 L516.23 703.75 L517.76 711.01 L511.63 711.81 L506.27 710.6 Z "/>
</g>
</svg>
