<svg xmlns="http://www.w3.org/2000/svg" viewBox="0 0 1000 1224.63">
<g fill="#ccc" stroke="#333" stroke-width="0.5" stroke-linejoin="round">
<path fill-rule="evenodd" d="M682.63 1044.82 L689.09 1027.25 L683.83 1012.24 L684.36 999.04 L708.22 986.66 L697.69 982.53 L667.15 965.65 L683.35 950.32 L709.41 939.07 L743.25 928.93 L731.35 908.6 L733.8 890.4 L747.19 874.44 L768.35 860.74 L815.22 866.62 L833.87 893.96 L845.11 925.68 L869.5 944.69 L870.94 931.06 L874.88 922.05 L888.75 902.66 L897.12 915.8 L908.54 923.43 L922.88 925.93 L939.74 923.68 L932.57 931.81 L928.44 937.56 L922.23 941.69 L908.84 944.69 L915.53 966.71 L930.6 977.09 L949.96 976.53 L969.87 965.65 L980.81 965.65 L988.34 973.22 L993.36 980.85 L1000 998.11 L990.02 997.36 L969.81 998.86 L959.83 998.11 L973.46 1015.24 L986.07 1023.43 L993.24 1031.69 L989.96 1049.63 L973.4 1076.27 L956.78 1077.39 L937.77 1067.64 L913.86 1061.01 L902.44 1066.58 L901.9 1080.52 L908.84 1118.34 L897.84 1136.66 L873.75 1125.03 L849.89 1103.28 L839.49 1091.65 L829.57 1094.15 L799.5 1108.9 L779.23 1112.53 L748.63 1112.72 L729.5 1108.4 L682.57 1079.77 L672.71 1065.76 Z M748.27 207.16 L729.38 217.57 L721.31 195.37 L718.26 132.45 L711.56 104.16 L703.01 80.51 L696.98 56.35 L698.17 26.3 L703.55 31.38 L705.82 36.4 L708.22 48.32 L717.18 67.02 L740.5 95.19 L748.27 111.44 L747.85 133.02 L742.05 151.27 L742.05 165.76 L759.27 175.55 L766.56 146.82 L768.71 107.55 L759.63 72.79 L733.2 57.92 L722.56 41.04 L729.56 11.42 L749.94 0 L779.23 37.78 L769.37 43.68 L759.27 48.32 L778.7 55.29 L809.48 44.56 L828.55 48.32 L852.22 66.39 L872.67 90.86 L888.81 117.71 L899.63 143.06 L910.15 189.22 L911.59 214.68 L908.84 238.76 L898.91 267.73 L888.81 273 L873.69 271.62 L848.58 280.77 L839.31 253.25 L813.19 233.68 Z M3.92 1213.62 L5.37 1211.67 L7.64 1210.92 L7.85 1214.8 L7.64 1219.88 L5.58 1223.76 L1.76 1224.63 L0 1222.04 L1.45 1216.31 Z "/>
</g>
</svg>
