<svg xmlns="http://www.w3.org/2000/svg" viewBox="0 0 1000 2204.37">
<g fill="#ccc" stroke="#333" stroke-width="0.5" stroke-linejoin="round">
<path fill-rule="evenodd" d="M320.36 56.2 L322.94 51.87 L324.42 50.09 L328.21 47.07 L328.77 46.25 L328.88 45.06 L328.46 40 L329.32 39.96 L330.43 40.07 L331.2 39.89 L331.85 39.44 L332.33 38.7 L333.35 37.61 L334.69 36.9 L340.33 35.12 L340.9 34.73 L340.93 34.17 L340.62 32.6 L340.75 32.15 L341.39 31.34 L341.76 30.11 L342.35 26.08 L342.72 24.81 L343.37 23.73 L344.52 22.72 L345.2 22.41 L345.75 22.47 L346.3 22.65 L347.29 22.77 L348.11 23.05 L348.37 22.99 L348.52 22.64 L348.66 22.23 L348.85 21.97 L354.7 20.36 L361.37 18.42 L362.59 17.47 L362.79 16.96 L363.1 16.44 L363.49 15.99 L363.92 15.72 L364.55 15.64 L364.77 15.77 L364.88 15.71 L365.18 15.05 L365.4 14.26 L365.88 9.2 L368.27 0.3 L369.15 0 L373.4 1.38 L375.58 2.49 L377.13 4.17 L377.73 6.8 L377.99 7.09 L382.61 7.91 L383.71 8.53 L390.14 16.18 L391.61 17.23 L393.15 17.71 L400.15 16.9 L400.52 16.72 L400.74 16.47 L400.99 16.26 L401.42 16.22 L404.91 16.73 L407.58 17.03 L420.98 16.87 L429.53 16.77 L438.96 18.98 L442.49 20.99 L444.47 21.47 L444.93 21.38 L445.85 20.97 L446.25 20.9 L446.67 21.04 L447.74 21.2 L448.69 21.92 L449.82 22.49 L450.83 22.73 L451.3 23.07 L452.64 24.71 L453.06 25.36 L453.51 26.47 L453.54 27.34 L453.19 28.09 L452.54 28.88 L452.04 30.14 L452.7 31.09 L453.76 31.83 L454.43 32.43 L454.49 33.02 L454.1 34.07 L454.09 34.62 L454.37 35.02 L455.27 35.62 L455.46 35.94 L455.75 37.19 L456.48 38.18 L459.26 40.97 L459.18 41.77 L458.81 42.33 L458.4 42.81 L458.2 43.4 L458.15 43.95 L457.91 45.01 L457.86 45.63 L457.99 46.44 L458.31 46.75 L458.76 46.93 L459.26 47.31 L460.6 50.22 L461.15 50.66 L462.24 51.16 L462.91 52.37 L463.08 53.85 L462.69 55.15 L463.31 55.91 L463.5 58.46 L464.43 58.91 L464.35 58.22 L465.53 54.03 L465.98 52.97 L466.01 49.05 L468.17 40.88 L468.9 39.57 L471.5 37.1 L472.71 35.32 L476.44 25.52 L476.81 25.12 L477.82 24.56 L478.21 23.96 L479.78 19.95 L480.55 16.91 L480.99 16.03 L481.26 15.83 L481.6 15.72 L481.99 15.53 L482.37 15.14 L482.55 14.7 L482.73 13.65 L483.21 12.44 L483.24 12.12 L483.4 11.94 L484.13 11.63 L485.47 11.38 L490.16 11.7 L491.17 12.16 L493.24 14.01 L493.81 14.27 L496.14 12.18 L496.95 11.73 L498.88 11.4 L514.68 11.48 L530.47 11.57 L530.5 11.57 L537.92 11.17 L540.11 11.58 L540.82 11.75 L540.97 12.26 L541.29 14.31 L541.29 14.84 L541.15 15.29 L541.49 15.95 L541.5 17.67 L541.87 18.63 L542.58 19.38 L544.96 20.54 L547.1 22.09 L547.7 22.73 L547.91 23.22 L547.98 23.7 L548.12 24.09 L548.56 24.24 L549.06 24.34 L549.49 24.58 L549.84 24.94 L550.1 25.36 L549.76 25.36 L550.07 26.09 L549.87 26.65 L549.54 27.13 L549.44 27.58 L549.81 28.07 L550.42 28.42 L551.1 28.62 L551.67 28.69 L552.86 28.99 L553.71 29.72 L554.93 31.32 L555.57 31.61 L557.58 32.24 L558.02 32.62 L558.37 33.44 L559.22 34.3 L562.72 36.73 L563.7 37.11 L564.07 37.16 L565.86 37.4 L566.43 37.57 L566.79 37.79 L566.93 38.05 L566.97 38.33 L566.96 38.93 L567.09 39.32 L567.38 39.4 L567.72 39.37 L567.99 39.45 L569.1 40.75 L569.5 41.73 L569.22 42.64 L568.51 43.62 L568.52 44.3 L569.18 44.85 L570.42 45.42 L571.05 45.58 L571.34 45.54 L571.53 45.64 L571.79 46.2 L571.44 47.4 L571.42 48.11 L572.38 48.72 L571.76 50 L571.97 50.29 L572.64 50.49 L572.98 50.95 L573.2 51.57 L573.51 52.15 L574.88 53.67 L575.06 54.07 L575.2 54.56 L575.4 54.98 L575.75 55.15 L575.8 55.35 L576.23 55.74 L576.73 56.08 L576.97 56.09 L577.16 56.75 L577.62 57.38 L578.68 58.5 L579.42 59.61 L580.36 61.63 L580.91 62.45 L581.03 62.97 L580.77 64.24 L580.91 64.5 L580.92 64.74 L581.62 65.79 L583.41 67.77 L589 71.2 L589.41 71.61 L590.55 73.27 L591.13 73.81 L592.27 74.46 L592.81 74.93 L593.35 75.58 L593.66 76.11 L593.8 76.75 L593.83 77.76 L594.06 78.72 L594.63 79.19 L595.35 79.51 L596.06 80 L596.85 80.89 L597.27 81.15 L597.95 81.34 L600.32 81.34 L601.05 81.69 L603.59 84.38 L604.03 84.61 L604.62 84.72 L605.52 84.74 L605.29 85.19 L605.05 85.82 L605.01 86.37 L605.81 86.9 L606.28 88.18 L606.74 88.47 L607.82 88.52 L608.74 88.71 L609.56 89.05 L610.32 89.59 L610.91 90.14 L611.42 90.49 L612.11 90.69 L613.27 90.75 L616.53 92.21 L616.93 92.9 L617.23 93.77 L617.75 94.52 L618.79 94.83 L619.24 95.04 L620.21 96.03 L620.67 96.36 L621.01 96.38 L622.01 96.31 L622.39 96.36 L623.01 96.87 L623.68 97.63 L624.44 98.31 L625.3 98.61 L625.92 99.09 L626.11 100.2 L625.93 101.44 L625.47 102.34 L625.93 102.85 L626.79 104.29 L628.12 105.05 L628.93 106.09 L629.53 107.23 L629.62 107.96 L629.92 108.28 L630.65 109.49 L631.12 109.97 L632.71 111 L634.62 110.43 L636.47 111.35 L638.15 112.74 L639.6 113.62 L640.64 113.74 L642.1 113.71 L645.04 113.63 L645.51 113.79 L646.54 114.68 L647.03 114.82 L649.33 114.69 L649.92 114.74 L650.47 114.93 L651.34 115.42 L651.8 115.52 L651.85 115.84 L652.66 117.59 L652.95 117.69 L654.75 117.78 L655.66 118.23 L657.31 119.42 L660.42 120.03 L662.21 119.95 L662.66 120.03 L663.2 120.37 L664.18 121.26 L664.72 121.56 L665.19 121.65 L666.78 121.56 L670.71 122.17 L674.47 122.05 L675.67 121.77 L678.03 120.93 L679.07 120.82 L679.97 121.05 L698.05 133.06 L699.98 135.05 L700.86 136.26 L701.23 136.6 L701.73 136.78 L702.99 136.95 L703.84 137.47 L704.77 137.66 L705.17 137.95 L705.71 138.55 L706.25 138.97 L707.4 139.64 L708.49 140.12 L708.8 140.4 L708.97 140.78 L709.1 141.28 L709.27 141.71 L710.49 142.27 L712.45 144 L712.91 144.54 L713.94 146.49 L714.76 147.52 L716.41 148.13 L717.07 148.92 L717.54 149.09 L718.3 149.21 L718.67 149.5 L718.95 149.87 L719.43 150.26 L721.52 150.98 L722.95 152 L724.13 152.41 L726.01 153.66 L727.01 154.02 L727.95 154.03 L728.26 154.1 L728.75 154.41 L729.76 155.41 L730.24 155.77 L731.84 156.16 L741.47 163.5 L742.51 163.76 L745.07 163.83 L745.79 164.04 L746.15 164.33 L746.55 164.51 L746.86 164.74 L746.98 165.18 L747.24 165.45 L758.33 167.62 L759.47 168.2 L760.09 168.81 L761.28 170.49 L764.5 174.11 L764.81 174.65 L764.97 175.09 L765.24 175.4 L765.87 175.59 L766.44 175.5 L767.08 175.17 L767.68 174.73 L769.09 173.25 L769.93 172.63 L770.86 172.6 L775.39 175.73 L775.88 176.57 L776.51 176.54 L780 178.31 L780.5 178.35 L781.62 178.21 L782.09 178.31 L782.43 178.78 L782.62 179.41 L782.93 179.97 L783.63 180.2 L787.61 180.22 L788.6 180.58 L789.32 181.22 L791.53 183.82 L792.29 184.39 L793.86 185.16 L794.46 185.89 L796.08 189.51 L797.06 190.88 L798.58 191.93 L798.61 191.95 L800.13 195.86 L800.15 196.53 L803.27 198.99 L803.94 199.75 L804.3 200.48 L804.36 201.38 L803.7 206.21 L803.44 207.2 L802.84 207.83 L802.16 208 L801.61 208.4 L801.38 209.7 L801.04 210.04 L800.25 210.06 L798.78 209.87 L798.68 210.13 L798.42 211.37 L798.23 211.8 L797.76 212.12 L797.27 212.17 L796.74 212.13 L796.18 212.18 L795.11 212.63 L794.48 213.24 L793.43 214.85 L793.74 215.31 L794.13 215.63 L794.61 215.85 L795.15 215.99 L794.61 216.7 L793.77 217.58 L792.8 218.33 L791.87 218.65 L791.12 219.12 L791.3 220.19 L792.06 222.08 L791.51 222.86 L791.17 223.11 L790.49 223.61 L789.43 224.18 L788.37 224.58 L788.23 224.97 L788.37 225.37 L789.52 225.8 L789.57 226.38 L789.29 227.02 L788.97 227.46 L787.22 228.9 L786.84 229.75 L789.16 230.43 L789.16 231.18 L788.5 232.07 L782.7 236.45 L781.03 237.41 L777.77 238.61 L777.25 239.14 L776.77 241.02 L776.32 242.18 L775.88 242.79 L775.7 242.39 L775.42 242.07 L775.02 241.83 L774.51 241.65 L774.63 242.65 L775.22 243.21 L776.02 243.62 L776.76 244.14 L776.79 244.9 L775.92 245.57 L774.78 246.05 L773.98 246.23 L773.57 246.62 L773.57 247.53 L773.83 249.33 L773.69 250.25 L773.44 251.05 L771.75 254.04 L771.41 254.93 L771.58 255.64 L772.8 256.79 L772.63 257.37 L771.93 257.9 L771.77 258.34 L771.63 259.32 L771.35 260.19 L771.19 261.05 L771.39 262 L771.66 262.32 L772.8 263.15 L773.1 263.58 L773.55 264.37 L773.83 264.68 L773.5 265.03 L772.64 265.66 L772.45 265.83 L772.46 266.5 L772.71 267 L773 267.45 L773.14 267.96 L772.88 268.3 L772.28 268.34 L770.7 268.03 L770.44 267.84 L770.28 267.91 L770.02 268.55 L769.8 269.62 L769.66 274 L769.47 274.29 L769.09 274.36 L768.48 274.34 L767.65 274.59 L767.72 275.16 L768.12 275.8 L768.31 276.26 L767.62 277 L766.77 276.87 L765.87 276.57 L765.03 276.84 L764.41 278.07 L765.01 278.86 L765.93 279.55 L766.25 280.53 L765.59 281.09 L763.29 281.28 L762.79 281.82 L762.33 282.53 L761.24 282.97 L759.02 283.57 L758.23 284.12 L757.82 284.84 L757.92 285.58 L758.67 286.26 L758.28 287.06 L757.38 288.17 L756.93 288.95 L756.75 289.4 L756.66 289.79 L756.62 290.72 L756.42 291.01 L756 290.92 L755.99 290.91 L755.64 290.67 L755.59 290.53 L755.59 290.31 L755.47 289.9 L755.19 289.66 L755.18 289.66 L754.72 289.93 L754.4 290.33 L754.17 290.75 L754 291.19 L753.88 291.69 L753.87 292.7 L753.96 293.57 L753.71 294.16 L751.17 294.6 L750.03 295.28 L749.3 296.43 L749.04 298.06 L749.35 298.79 L750.03 299.47 L751.27 300.41 L751.9 301.48 L751.98 302.64 L751.77 305.43 L751.77 305.47 L751.97 305.28 L756.46 303.33 L770.15 302.12 L775.64 302.84 L776.38 302.8 L779.42 302.24 L781 302.28 L781.01 302.28 L781.93 302.48 L784.9 303.11 L784.92 303.12 L786.46 303.78 L787.16 303.93 L789.39 304.41 L789.4 304.41 L791.56 305.15 L791.57 305.16 L796.71 306.24 L797.27 306.44 L797.29 306.45 L805.43 310.61 L806.22 310.89 L806.55 311.01 L807.84 311.13 L812.91 310.4 L814.23 310.4 L814.43 310.45 L815.5 310.74 L815.95 311.05 L816.76 311.86 L817.12 312.22 L817.64 312.51 L818.12 312.64 L820.4 313.27 L820.43 313.27 L820.93 313.53 L822.27 314.67 L822.73 314.97 L823.27 315.14 L823.29 315.15 L824.46 315.17 L824.89 315.24 L826.86 315.33 L828.5 314.96 L833.47 312.2 L835.3 311.46 L837.13 311.26 L837.14 311.26 L838.9 311.99 L842 315.12 L843.81 316.24 L843.83 316.25 L845.68 315.89 L848.25 313.87 L850.51 313.2 L851.77 312.83 L855.09 313.32 L855.11 313.32 L857.13 315.87 L858.08 317.41 L859.38 318.92 L860.89 320.13 L862.45 320.77 L862.48 320.78 L864.1 320.43 L865 319.06 L865.68 317.32 L866.66 315.89 L867.64 314.78 L868.23 313.66 L868.42 312.39 L868.23 310.85 L868.5 309.62 L869.66 308.98 L871.1 308.58 L872.24 308.07 L874.07 305.95 L875.02 305.22 L876.3 304.49 L877.59 304.58 L878.83 304.82 L878.85 304.83 L882.21 306.15 L883.32 306.38 L884.26 306.34 L884.53 306.34 L885.75 306.15 L886.92 306.13 L887.94 306.52 L888.69 307.58 L889.45 309.7 L889.88 310.27 L890.49 310.63 L891.84 311.01 L894.87 312.68 L896.74 311.19 L898.54 309.04 L899.95 307.95 L901.2 307.74 L902.27 307.12 L903.08 306.15 L903.57 304.86 L903.61 304.08 L903.49 303.62 L903.45 303.24 L904.12 302.09 L904.22 301.5 L904.12 300.9 L903.91 300.23 L902.7 297.92 L902.73 297.07 L904.06 296.73 L904.89 296.29 L905.18 295.28 L905.39 294.12 L905.97 293.23 L906.96 293.12 L908.35 293.26 L909.58 293.14 L910.11 292.25 L910.24 289.64 L910.54 288.49 L911.14 287.42 L911.99 286.48 L912.87 285.89 L913.88 285.58 L916.24 285.28 L918.69 283.92 L919.89 283.93 L920.97 284.36 L921.9 284.87 L922.67 285.11 L924.66 285.21 L925.83 285.01 L926.64 284.33 L926.81 283.11 L926.12 280.89 L926.46 279.93 L929.72 276.65 L930.73 276.27 L933.19 276.05 L934.02 275.67 L934.74 274.8 L935.23 273.97 L935.6 272.98 L936.26 270.39 L936.8 269.28 L937.63 268.48 L938.84 268.17 L941.07 268.17 L941.45 268.38 L941.68 268.67 L941.95 268.81 L942.47 268.55 L943.17 267.64 L943.58 266.39 L943.76 265.01 L943.81 263.72 L943.65 262.68 L943.39 261.89 L943.33 261.1 L943.81 260.08 L944.57 259.17 L945.98 257.99 L947.52 256.23 L947.96 255.47 L948.19 254.56 L948.68 251.13 L948.83 250.82 L948.9 250.52 L949.67 248.75 L949.67 246.23 L949.55 245.13 L949.61 244.86 L949.64 244.71 L950.05 243.97 L950.62 243.14 L950.95 242.51 L950.77 241.79 L949.86 240.69 L949.66 239.84 L950.7 236.26 L950.73 235.01 L950.19 233.22 L949.94 231.52 L949.77 230.94 L949.74 230.38 L950.05 229.78 L950.46 229.58 L951.68 229.5 L952.1 229.36 L952.55 228.52 L952.5 227.47 L952.1 224.96 L952.36 224.04 L952.91 223.16 L953.39 222.17 L953.48 220.94 L953.14 220.26 L952.01 218.86 L951.76 218.1 L951.62 217 L950.7 214.08 L950.71 212.62 L951.18 212.09 L952.94 212.18 L953.7 211.68 L953.56 210.56 L952.76 208.76 L952.86 207.79 L954.87 207.53 L955.6 207.78 L955.88 208.45 L955.95 209.26 L956.27 209.78 L957.32 209.53 L958.34 209.97 L959.25 210.62 L959.87 211.53 L960.05 212.7 L960.07 213.23 L960.22 213.82 L960.54 214.15 L961.04 213.93 L961.25 213.45 L961.02 212.27 L961.03 211.69 L961.34 211.24 L962.28 210.7 L962.66 210.29 L962.77 209.76 L962.73 209.2 L962.77 208.64 L963.14 208.13 L963.61 207.91 L964.03 207.94 L964.92 208.31 L965.44 208.21 L966.27 207.07 L966.84 206.69 L967.97 206.55 L968.72 206.78 L969.26 207.45 L969.78 208.63 L970.16 209.12 L970.46 208.81 L970.76 207.94 L971.19 207.89 L971.5 207.91 L972.46 208.19 L973.45 208.11 L973.22 207.14 L972.21 205.37 L972.61 205.17 L973.12 205.27 L974.08 205.61 L974.71 205.53 L975.25 205.19 L976.56 203.65 L976.87 203.41 L977.16 203.32 L977.4 203.39 L977.62 203.65 L977.38 204.7 L976.97 205.59 L976.68 206.51 L976.82 207.61 L977.09 208.1 L977.53 208.64 L978.04 209.03 L978.5 209.04 L978.69 208.66 L978.66 208.06 L978.54 207.42 L978.52 206.89 L978.85 206.4 L979.36 206.7 L980.22 207.56 L980.85 207.43 L981.16 207.21 L981.48 207.08 L982.17 207.24 L983.13 207.79 L983.76 208.59 L984.09 209.58 L984.2 210.72 L984.62 212.15 L985.61 212.01 L987.52 210.81 L988.12 211.38 L988.65 212.6 L989.21 214.64 L989.12 215.1 L988.9 215.51 L988.75 216.01 L988.86 216.74 L989.18 217.33 L990.14 218.28 L990.57 218.82 L991.02 219.85 L991.17 220.84 L990.96 224.11 L991.56 227.1 L991.51 227.68 L991.34 228.16 L991.24 228.69 L991.37 229.39 L991.73 229.97 L993.41 231.52 L993.41 231.53 L993.41 231.53 L994.8 233.07 L995.38 234.78 L995.72 236.62 L996.39 238.56 L998.82 241.99 L999.74 243.76 L1000 246.03 L999.41 247.87 L997.27 250.9 L996.84 252.55 L997.43 257.79 L997.42 259.51 L997.42 259.53 L996.69 260.13 L996.33 260.52 L996.19 260.92 L996.28 261.47 L996.47 262.06 L996.65 262.41 L996.72 262.22 L996.58 263.19 L995.94 265.14 L995.91 266.19 L996.17 268.32 L996.08 269.36 L995.76 270.39 L995.37 270.71 L994.87 270.78 L994.47 270.94 L994.34 271.54 L994.57 272.23 L995 272.58 L995.43 272.75 L995.67 272.93 L995.69 273.49 L995.36 274.28 L995.41 274.85 L995.57 274.94 L996.18 274.99 L996.36 275.08 L996.94 277.16 L997.53 280.51 L997.44 282.24 L996.83 284.26 L994.63 288.98 L994.39 289.32 L994.05 289.52 L993.26 289.64 L993 289.82 L992.8 290.56 L992.88 292.16 L992.8 292.94 L992.56 293.31 L991.82 293.79 L991.6 294.07 L991.63 294.49 L992.1 295.03 L992.08 295.5 L991.54 296.46 L990.94 296.84 L990.6 296.5 L990.14 295.57 L989.59 294.72 L988.92 294.38 L988.48 294.79 L988.05 296.56 L987.55 297.11 L986.75 296.98 L986.09 296.39 L985.47 295.96 L984.8 296.31 L984.7 297.05 L984.96 297.82 L984.92 298.42 L983.93 298.66 L983.58 298.55 L983.37 298.34 L983.14 298.18 L982.74 298.24 L982.46 298.56 L982.09 299.6 L978.39 303.71 L976.56 303.92 L975.06 303.39 L975.17 302.16 L974.73 301.76 L974.11 301.35 L973.48 302.34 L972.05 306.21 L971.82 306.63 L971.56 306.98 L971.36 307.46 L971.47 308.62 L971.37 309.11 L970.99 309.29 L970.41 309.37 L969.88 309.57 L969.65 310.09 L969.51 310.57 L969.2 311.12 L968.84 311.58 L968.59 311.81 L967.59 311.84 L966.85 311.31 L966.23 310.55 L965.54 309.88 L965.62 311.71 L965.54 312.23 L965.21 312.82 L964.75 313.23 L964.34 313.29 L964.17 312.8 L963.98 311.49 L963.47 310.84 L962.7 310.63 L960.68 310.71 L959.86 310.92 L959.67 311.53 L960.52 312.8 L960.48 313.54 L959.47 314.18 L956.21 315.15 L955.72 315.13 L955.19 314.9 L955 314.61 L954.51 313.58 L954.35 313.36 L953.95 313.27 L953.68 313.15 L953.4 313.18 L952.94 313.55 L952.6 314.05 L952.38 314.65 L952.1 315.68 L951.57 316.73 L950.88 317.38 L950.3 317.33 L950.05 316.28 L949.88 316.02 L949.53 316.08 L949.18 316.42 L949.02 317.03 L949.03 317.8 L948.99 318.23 L948.79 318.49 L948.33 318.77 L947.86 318.87 L946.74 318.75 L946.24 318.77 L944.13 319.48 L943.81 319.38 L943.74 319.27 L943.43 318.86 L943.33 318.77 L943.14 318.65 L943.22 318.37 L943.4 318.05 L943.5 317.8 L943.21 317.18 L942.57 317.36 L941.87 317.92 L941.44 318.42 L941.13 319.57 L940.96 320.99 L940.56 322.2 L939.54 322.71 L938.31 322.7 L937.89 322.87 L937.98 325 L937.72 327.45 L937.45 328.74 L937.14 329.29 L936.14 329.69 L933.52 332.04 L932.32 332.22 L931.39 331.91 L930.54 331.46 L929.55 331.23 L928.7 331.64 L929.2 332.56 L930.75 333.98 L931.48 335.16 L931.29 335.75 L930.48 335.75 L929.38 335.11 L928.87 335.34 L927.76 335.36 L927.32 335.53 L927.18 335.88 L926.79 337.47 L925.76 337.23 L924.67 336.18 L923.86 335.92 L922.85 336.32 L922.12 337.26 L921.53 338.2 L919.71 339.65 L919.21 339.83 L918.68 339.72 L917.62 339.35 L917 339.41 L916.21 340.15 L916.05 341.2 L915.81 342.14 L914.76 342.55 L914.24 342.58 L913.87 342.71 L913.65 343 L913.57 343.52 L913.62 344.74 L913.52 345.05 L913.2 345.62 L910.93 348.27 L910.64 348.73 L909.43 349.08 L908.9 349.15 L908.56 348.97 L908.34 348.63 L908.02 348.45 L907.37 348.73 L907.17 349.02 L906.65 350.32 L906.42 350.54 L905.77 351.03 L905.47 351.31 L905.24 351.77 L905.17 352.2 L904.98 352.53 L904.41 352.65 L903.8 352.46 L903.68 352 L903.72 351.5 L903.57 351.13 L902.41 350.9 L901.81 351.61 L901.49 352.46 L901.45 352.56 L901.01 353.04 L900.54 353.37 L898.42 355.41 L895.22 356.52 L893.98 357.45 L894.28 358.91 L894.88 359.37 L896.88 360.3 L897.55 360.47 L898.27 360.76 L898.77 361.43 L899.45 362.84 L898.76 365.54 L898.42 366.35 L897.91 367.04 L897.34 367.47 L896.87 367.29 L896.68 366.15 L895.89 365.09 L894.05 364.61 L891.97 364.36 L890.47 363.97 L888.21 364.94 L887.3 365.78 L887.56 366.95 L887.75 367.43 L887.73 370.09 L887.68 370.5 L887.48 370.76 L887.04 371.06 L886.62 371.23 L884.99 371.42 L883.6 372.13 L881.97 372.55 L881.48 373.34 L881.4 374.36 L881.53 375.39 L881.46 377.65 L880.51 378.98 L877.38 381.22 L873.28 386.72 L871.58 387.86 L869.22 388.31 L868.18 388.78 L867.75 389.67 L867.44 394.59 L866.33 396.6 L862.89 398.65 L861.92 400.89 L861.87 403.22 L861.68 404.34 L861.06 405.4 L860.24 405.88 L856.78 406.77 L855.02 407.71 L853.21 408.99 L851.55 410.64 L850.23 412.66 L849.88 413.41 L849.59 414.23 L849.55 415.07 L849.89 415.84 L849.38 416.96 L848.55 419.41 L847.97 420.35 L847.12 421.16 L846.49 421.61 L844.71 422.53 L844.25 422.84 L843.89 423.2 L843.59 423.62 L843.34 424.13 L843.25 424.72 L843.28 425.36 L843.21 425.89 L842.39 426.36 L842 426.98 L841.73 427.7 L841.63 428.27 L841.42 428.73 L837.49 432.23 L837.14 433.04 L836.73 433.54 L834.76 435.15 L834.05 436 L833.37 437.97 L831.89 439.56 L831.65 440.17 L831.28 440.76 L827.6 444.73 L826.66 445.54 L825.63 445.9 L823.42 445.94 L821.3 446.25 L819.15 447.08 L817.69 448.38 L816.84 450.32 L816.32 457.1 L816 457.99 L811.67 461.39 L806.91 467.47 L804.78 468.96 L803.77 469.34 L801.61 469.72 L800.49 469.75 L800.07 470.3 L800.29 471.58 L801.01 474.08 L800.64 476.35 L799.55 478.21 L789.66 487.31 L788.28 489.03 L787.65 491.13 L787.85 493.41 L788.97 495.67 L789.72 496.8 L790.84 499.23 L791.26 500.54 L791.72 502.6 L792.06 504.12 L792.18 505.18 L792.35 506.63 L792.41 509.07 L792.35 509.68 L792.06 511.09 L791.79 511.97 L791.17 512.21 L790.01 512.07 L787.87 512.63 L786.93 513.27 L786.54 514.3 L786.86 514.97 L788.97 518.1 L789.38 520.84 L788.45 522.84 L787.18 524.8 L786.54 527.39 L786.88 530 L786.88 531.52 L786.39 532.2 L785.34 534.42 L784.97 534.8 L784.15 535.46 L783.8 535.85 L783.34 537.06 L783.09 539.72 L782.6 540.83 L781.81 541.52 L779.92 542.67 L778.97 543.48 L778.33 545.3 L779.56 546.81 L780.15 547.27 L781.44 548.27 L782.77 549.95 L783.14 552.58 L782.68 555.18 L779.66 564.29 L779.13 565.14 L777.92 565.63 L775.54 566.1 L774.43 566.58 L773.64 567.18 L772.27 568.75 L771.93 569.96 L772.55 571.16 L774.13 572.97 L774.63 574.82 L774.81 577.35 L774.66 580.02 L774.13 582.31 L773.03 584.14 L772.74 585.35 L773.31 586.61 L776.74 591.22 L777.26 592.95 L777.01 594.76 L773.83 599.41 L772.57 602.05 L772.08 602.69 L772.06 602.84 L772.04 602.68 L771.06 605.36 L770.92 608.02 L771.48 615.36 L772.42 619.45 L773.1 625.57 L773.59 626.76 L774.92 628.96 L775.19 629.87 L775.02 631 L774.27 633.31 L774.1 634.63 L774.62 637.34 L774.74 638.83 L774.29 639.5 L772.42 641.13 L771.84 641.35 L770.63 641.54 L769.98 641.54 L762.87 640.36 L761.07 641.13 L760.84 641.43 L760.51 641.99 L760.41 642.53 L761.38 642.96 L761.38 643.41 L761.19 644.02 L761.07 644.63 L760.94 645.93 L760.42 648.61 L760.35 649.77 L761.16 652.36 L761.4 653.73 L760.9 654.32 L760.01 654.8 L759.01 655.92 L757.61 658.02 L756.67 660.2 L755.91 662.82 L755.4 665.5 L755.21 667.91 L755.55 670.63 L755.44 671.23 L754.95 672.43 L754.52 676.9 L754.53 678.25 L754.96 680.66 L755.78 682.62 L758.54 686.53 L758.95 687.56 L759.23 688.74 L759.41 691.5 L760.04 694.84 L759.93 695.46 L759.68 696.15 L759.66 696.49 L759.65 696.71 L760.2 696.94 L760.67 697.05 L761.89 697.64 L762.25 697.96 L762.63 698.89 L762.8 700.09 L762.76 702.74 L762.46 704.68 L762.41 705.41 L762.52 705.75 L762.99 706.81 L763.1 707.49 L761.41 709.33 L761.2 709.78 L760.94 710.62 L760.73 711.03 L759.96 711.91 L759 712.63 L758 712.9 L757.08 712.5 L756.68 712.39 L754.83 712.31 L754.52 712.61 L754.34 713.03 L754.07 713.39 L753.46 713.56 L756.38 715.23 L757.27 716.01 L758.68 717.19 L759.28 718.3 L758.34 720.25 L757.73 720.79 L757.17 721.45 L756.42 722.55 L756.48 723.34 L756.84 724.2 L758.14 725.43 L758.32 725.95 L758.26 727.18 L758.29 727.76 L759.43 728.51 L760.35 729.01 L761.38 729.81 L763.09 730.87 L763.86 731.7 L764.78 733.03 L765.44 734.5 L766.29 736.04 L770.25 738.7 L772.56 740.8 L774.33 741.73 L776.17 741.93 L777.39 742.18 L778.92 743.11 L780.57 743.49 L782.1 743.98 L783.87 746.26 L785.21 746.82 L788.04 746.53 L788.59 746.59 L789.56 747.7 L791.83 749.19 L794.22 751.48 L797.84 752.96 L802.02 756.26 L806.12 757.82 L807.85 759.73 L809.9 761.34 L814.78 766.21 L816.57 768.62 L818.76 771.11 L819.84 772.29 L822.21 776.06 L824.19 779.85 L825.62 782.62 L825.9 784.14 L825.06 786.79 L823.27 789.12 L821.09 792.04 L816.08 799.89 L814.62 801.82 L813.97 804.06 L813.68 805.68 L813.19 808.25 L812.58 810.2 L813.07 812.47 L813.57 814.95 L813.63 816.74 L813.72 817.27 L813.93 817.95 L814.85 818.77 L815.06 819.4 L815.16 819.57 L816.46 823.02 L816.63 824.34 L816.82 824.91 L817.71 825.36 L818.68 826.38 L818.86 826.65 L819.16 828.03 L819.88 829.29 L826.9 836.26 L832.06 839.46 L834.33 839.93 L835.46 840.53 L835.91 841.33 L835.04 842.23 L835.39 842.65 L836.31 841.73 L837.34 841.04 L839.53 840.1 L840.67 839.9 L843.99 840.1 L843.45 838.7 L843.58 837.76 L844.26 837.57 L845.36 838.4 L845.65 839.16 L846.27 841.68 L846.58 842.23 L847.52 843.36 L847.42 851.18 L848.62 854.61 L848.79 856.13 L848.99 864.64 L849.16 871.82 L848.96 874.53 L848.08 876.64 L842.87 883.59 L837.92 891.38 L831.36 903.09 L829.53 907.21 L824.01 914.98 L822.25 916.99 L816.81 921.95 L814.82 925.31 L814.22 925.89 L813.4 926.34 L809.34 931.44 L807.85 933.81 L806.63 936.36 L805.77 938.99 L805.3 941.64 L805.12 944.42 L805.21 944.82 L805.64 945.55 L805.77 945.99 L805.74 946.38 L805.49 947 L805.43 947.24 L805.57 949.11 L805.43 949.86 L804.29 952.2 L802.52 954.24 L797.86 957.56 L792.64 960.59 L789.05 963.27 L781.17 968 L779.46 968.31 L778.79 968.65 L776.19 970.9 L774.29 971.98 L768.27 974.45 L766.41 975.59 L765.49 976 L761.04 976.73 L757.32 978.03 L753.63 980.24 L745.49 982.15 L734.89 985.85 L732.03 987.78 L730.47 988.15 L728.71 988.92 L714.42 991.81 L700.13 994.71 L691.87 998.24 L690.74 998.38 L687.22 998.24 L664.34 1002.64 L656.37 1003.99 L648.56 1004.99 L638.19 1007.09 L632.53 1007.01 L631.29 1006.66 L630.61 1006.61 L630.01 1006.73 L629.57 1006.99 L628.9 1007.53 L624.24 1008.73 L614.48 1007.46 L609.94 1007.53 L606.68 1008.61 L606.17 1009.05 L605.42 1009.41 L597.53 1008.27 L596.86 1007.67 L595.96 1007.4 L595.45 1006.79 L595.14 1006.61 L594.72 1006.62 L594.38 1006.78 L594.07 1006.98 L593.8 1007.09 L591.74 1007.53 L589.3 1007.43 L579.88 1004.63 L578 1003.69 L576.54 1002.33 L575.53 1000.44 L574.69 998.12 L574.04 996.94 L573.32 996.43 L565.21 995.79 L564.37 995.33 L563.21 994.94 L562.15 995.66 L561.62 996.71 L562.12 997.31 L561.81 998.67 L562.73 1001.09 L562.44 1002.21 L563.13 1001.59 L563.82 1001.56 L564.34 1002.01 L564.56 1002.86 L564.42 1005.26 L564.56 1005.73 L565.12 1006.13 L565.82 1006.09 L567.45 1005.73 L567.44 1006.06 L567.1 1006.88 L566.82 1007.89 L566.96 1008.81 L565.72 1009.48 L565.22 1010.09 L564.56 1012.39 L564.02 1013.74 L563.72 1014.33 L563.34 1014.83 L563.25 1015.28 L563.54 1015.77 L563.94 1016.29 L564.18 1016.84 L564.13 1018.02 L563.89 1019.02 L563.79 1020.03 L564.18 1021.23 L565.06 1022.29 L567.31 1024.04 L568.3 1025.21 L567.53 1025.19 L566.91 1025.01 L565.59 1024.32 L564.87 1025.15 L565.33 1025.84 L566.44 1026.32 L567.64 1026.58 L571.56 1026.71 L572.79 1027.01 L576.75 1029.02 L578.88 1030.6 L580.02 1032.3 L580.06 1033.1 L579.85 1033.87 L579.48 1034.55 L578.99 1035.04 L578.36 1035.34 L577.95 1035.2 L577.63 1034.88 L577.28 1034.59 L576.27 1034.06 L573.38 1031.48 L572.45 1030.12 L572.26 1029.77 L571.99 1029.07 L571.76 1028.79 L571.37 1028.57 L571.14 1028.64 L570.97 1028.77 L570.73 1028.79 L569.77 1028.56 L566.96 1028.79 L567.07 1029.39 L567.25 1030.02 L567.53 1030.6 L567.95 1031.05 L568.49 1031.12 L569.17 1031.02 L569.76 1031.1 L570.01 1031.7 L570.43 1033.04 L571.4 1034.4 L573.47 1036.37 L574.41 1036.91 L576.88 1037.57 L578.13 1037.67 L578.42 1037.96 L578.58 1038.6 L578.68 1039.45 L578.45 1040.15 L577.86 1040.73 L577.58 1041.3 L577.45 1045.88 L577.09 1046.6 L576.87 1047.34 L575.61 1056.25 L575.47 1062.06 L575.22 1063.17 L574.92 1063.12 L573.16 1064.22 L572.97 1064.51 L569.19 1063.85 L568.08 1063.18 L565.9 1061.39 L565.71 1062.09 L565.92 1062.77 L566.96 1064.1 L565.72 1064.68 L565.42 1065.2 L565.54 1066.05 L565.59 1067.68 L565.38 1068.81 L564.7 1071.15 L564.36 1073.38 L563.39 1076.11 L562.98 1076.66 L562.82 1077.3 L564.18 1081.15 L564.12 1082.53 L563.35 1085.27 L563.15 1086.35 L562.7 1087.62 L561.62 1088.32 L560.37 1088.76 L559.38 1089.27 L558.53 1090.15 L557.62 1091.32 L556.9 1092.64 L556.61 1093.98 L556.84 1094.93 L558.32 1097.81 L559.09 1101.7 L559.54 1102.32 L559.55 1102.6 L560.38 1104.15 L560.86 1104.54 L562.44 1105.05 L564.13 1106.22 L564.71 1106.41 L564.89 1106.76 L564.84 1108.31 L565.04 1108.67 L565.74 1109.24 L566.31 1110.31 L566.97 1110.91 L567.95 1110.06 L568.64 1113.05 L568.63 1114.74 L567.8 1115.48 L565.4 1115.03 L565.14 1114.77 L564.38 1113.57 L563.84 1113.22 L563.79 1113.83 L563.87 1114.35 L564.06 1114.81 L564.37 1115.25 L564.7 1115.95 L564.62 1116.49 L564.36 1116.81 L564.18 1116.84 L564.66 1117.84 L565.03 1118.09 L568.95 1115.71 L570.49 1115.12 L572.1 1115.03 L571.51 1115.77 L569.7 1117.14 L569.32 1117.99 L569.22 1118.98 L568.77 1120.98 L568.67 1122.08 L568.45 1122.96 L566.96 1125.96 L565.59 1129.55 L564.25 1131.34 L556.79 1135.32 L550.74 1139.13 L547.34 1140.54 L546.48 1141.16 L545.56 1142.05 L544.59 1142.54 L543.48 1142.75 L542.17 1142.8 L540.96 1142.58 L540.49 1142.74 L539.9 1143.46 L538.59 1144.59 L537.83 1145.47 L534.25 1146.44 L528.3 1149.61 L526 1150.12 L515.07 1149.67 L512.89 1150.36 L511.7 1150.53 L506.91 1150.08 L499.77 1150.52 L491.85 1150.38 L489.6 1149.85 L487.47 1148.71 L482.44 1143.81 L480.2 1142.8 L478.12 1142.87 L477.62 1142.55 L477.49 1141.9 L477.69 1141.23 L478.14 1140.28 L477.65 1139.77 L476.49 1140.08 L475.12 1140.65 L474.03 1140.94 L472.02 1140.4 L459.82 1133.87 L453.05 1132.02 L448.39 1129.6 L443.86 1128.53 L441.43 1128.33 L437.92 1128.7 L436.3 1128.57 L435.01 1128.1 L434.97 1127.1 L435.89 1126.41 L437.18 1125.99 L438.09 1126.19 L437.87 1127.32 L438.22 1127.29 L438.61 1127.13 L438.9 1126.96 L438.93 1126.87 L441.95 1126.92 L442.84 1126.8 L443.36 1126.33 L442.93 1124.96 L441.44 1124.39 L440.58 1123.79 L442.02 1122.3 L440.78 1121.43 L436.05 1120.28 L433.23 1120.64 L431.46 1121.43 L430.98 1121.85 L431.89 1121.97 L433.53 1121.53 L434.44 1121.85 L433.74 1122.85 L433.95 1123.43 L434.57 1123.89 L435.13 1124.53 L430 1124.34 L429.11 1124.77 L428.44 1125.51 L424.42 1128.75 L423.93 1129.33 L423.75 1129.94 L423.8 1131.41 L423.61 1132.02 L422.89 1133.26 L422.33 1134.68 L421.93 1136.2 L421.73 1137.75 L421.75 1140.48 L423.18 1151.84 L425.18 1159.73 L425.28 1161.8 L426.55 1165.59 L426.86 1167.69 L427.48 1169.75 L430.23 1172.76 L430.98 1174.82 L430.89 1176.76 L430.46 1179.01 L429.82 1181.06 L429.11 1182.43 L428.68 1184.29 L429.2 1186.7 L430.64 1190.51 L430.55 1192.92 L429.66 1195.82 L427.55 1200.68 L426.81 1203.55 L427.05 1205.9 L427.81 1207.58 L430.3 1213.17 L431.93 1215.45 L433.79 1217.28 L437.72 1219.97 L438.38 1220.11 L439.47 1220.03 L440.03 1220.09 L440.44 1220.34 L441.27 1221.05 L442.47 1221.72 L443.74 1222.21 L444.76 1222.43 L447.29 1222.45 L448.42 1222.75 L449.42 1223.62 L450.49 1224.35 L451.67 1224.2 L452.88 1223.69 L454.08 1223.4 L455.46 1223.49 L456.13 1223.7 L456.62 1224.11 L457.33 1225.05 L457.46 1225.51 L456.11 1226.12 L455.11 1227.1 L451.27 1232.71 L450.93 1233.41 L450.52 1235.48 L450.86 1236.06 L452.33 1236.43 L456.38 1236.11 L458.42 1237.16 L460.15 1237.13 L461.88 1236.81 L463 1236.43 L464.13 1235.82 L464.92 1235.55 L474.37 1236.21 L475.57 1235.87 L476.09 1234.78 L476.34 1234.62 L477.77 1233.17 L478.1 1232.53 L478.18 1232.09 L478.14 1230.86 L478.1 1230.5 L477.83 1230.14 L477.77 1229.67 L477.88 1229.48 L478.13 1229.35 L478.38 1229.14 L478.49 1228.73 L478.38 1227.92 L477.88 1226.59 L477.77 1225.94 L477.34 1225.12 L476.3 1224.66 L474.03 1224.36 L468.57 1224.63 L465.87 1224.31 L463.71 1222.94 L465.38 1222.04 L472.63 1221.04 L478.81 1217.52 L482.89 1214.54 L487.25 1212.52 L490.32 1211.61 L492.39 1212.12 L494.22 1213.98 L495.36 1215.95 L496.9 1220.03 L497.1 1221.27 L497.43 1222.34 L498.21 1223.24 L499.84 1224.74 L500.96 1227.18 L501.34 1229.99 L500.99 1236.81 L501.9 1247.12 L501.26 1249.89 L500.01 1252.71 L499.19 1255.43 L499.84 1257.94 L497.27 1261.42 L494 1262.97 L483.69 1265.36 L480.53 1265.36 L479.48 1265.54 L477.26 1266.66 L475.35 1267.01 L473.81 1265.86 L472.63 1264.48 L470.96 1261.85 L470.03 1260.74 L469.03 1260.27 L468.15 1259.57 L468.17 1258 L468.57 1256.39 L468.85 1255.56 L469.79 1251.42 L470.38 1250.9 L470.94 1250.62 L470.61 1250.02 L469.51 1249.03 L469.27 1248.87 L468.52 1248.52 L468.26 1248.27 L468.04 1247.82 L467.83 1247.63 L465.99 1246.63 L465.34 1245.86 L465.08 1244.59 L464.57 1243.68 L463.4 1242.9 L461.28 1241.96 L458.79 1241.26 L453.54 1241.22 L449.89 1241.83 L448.65 1242.27 L447.48 1242.88 L446.2 1244 L444.45 1244.38 L443.87 1244.73 L443.49 1245.09 L441.28 1248.17 L440.39 1249.07 L439.43 1249.46 L436.92 1249.72 L434.44 1250.43 L433.26 1251.31 L432.64 1252.34 L432.19 1253.53 L431.51 1254.86 L429.94 1256.61 L429.6 1257.64 L429.95 1259.29 L430.69 1260.24 L432.72 1260.76 L434.34 1262.05 L437.56 1263.08 L443.71 1266.14 L445.41 1267.33 L447.35 1269.17 L448.35 1269.86 L449.95 1270.27 L451.11 1270.9 L451.65 1271.08 L452.41 1271.06 L453.72 1270.69 L455 1270.61 L455.5 1270.68 L455.92 1270.89 L456.69 1271.78 L457.59 1272.32 L458.01 1272.73 L459 1273.36 L460.28 1273.35 L464.28 1271.68 L464.91 1271.58 L464.95 1271.89 L465.6 1273.67 L465.37 1274.54 L464.29 1275.66 L458.29 1279.7 L452.38 1282.14 L442.34 1285.12 L433.37 1291.46 L431.78 1293.53 L430.8 1294.49 L429.78 1295.23 L428.92 1295.6 L428.37 1297.12 L428.43 1298.36 L428.74 1299.55 L428.92 1301.03 L428.59 1302.24 L427.78 1303.02 L426.83 1303.63 L422.75 1307.95 L420.87 1311.52 L420.01 1312.67 L417.31 1315.13 L416.72 1315.51 L414.8 1319.05 L414.64 1319.75 L413.94 1320.79 L413.77 1321.43 L413.86 1325.47 L414.11 1326.55 L415.18 1328.83 L414.89 1329.75 L414.61 1331.2 L414.57 1332.53 L414.99 1333.11 L415.66 1333.63 L416.06 1334.82 L416.37 1336.17 L416.72 1337.15 L416.94 1338.14 L416.71 1340.81 L416.89 1341.72 L417.58 1341.96 L418.53 1341.66 L419.07 1342.5 L417.9 1343.4 L418.36 1344.98 L418.4 1346.13 L419.38 1346.8 L421.17 1346.71 L419.93 1347.75 L418.89 1348.94 L418.6 1350.1 L418.69 1351.15 L418.8 1352.16 L419.44 1352.53 L419.76 1353.83 L418.96 1354.24 L417.37 1354.55 L416.36 1355.03 L415.54 1355.86 L415.04 1358.22 L415.14 1359.94 L415.24 1361.02 L415.91 1362.06 L416.25 1362.56 L416.66 1362.81 L417.09 1363.28 L416.89 1363.99 L417.05 1364.59 L417.2 1365.32 L417.88 1365.74 L417.66 1366.26 L417.58 1366.85 L418.18 1367.66 L419.04 1367.62 L419.43 1367.92 L419.45 1369.15 L419.66 1369.89 L419.06 1370.17 L418.77 1370.79 L418.73 1371.31 L418.1 1371.39 L417.5 1371.44 L417.19 1371.9 L416.97 1372.65 L416.51 1372.73 L416.2 1373.12 L416.52 1373.43 L416.55 1373.79 L416.11 1373.94 L416.01 1374.1 L416.37 1374.31 L416.19 1374.54 L415.64 1374.46 L415.25 1374.08 L414.98 1374.24 L414.91 1374.63 L415.19 1375.04 L415.02 1375.4 L414.68 1375.55 L414.44 1375.88 L414.04 1376.03 L413.9 1376.52 L414.15 1376.76 L414.71 1376.87 L414.9 1377.24 L414.77 1377.62 L414.53 1378.05 L414.38 1378.47 L414.8 1378.88 L415.1 1378.76 L415.43 1378.7 L415.67 1378.54 L416.36 1378.76 L416.34 1379.16 L416.07 1379.51 L416.13 1379.88 L416.48 1380.08 L416.52 1380.43 L415.99 1380.58 L415.33 1380.39 L415.03 1380.62 L414.85 1380.94 L414.74 1381.44 L414.47 1381.59 L414.28 1381.16 L414.44 1380.43 L414.19 1379.87 L413.6 1379.78 L413.04 1379.93 L412.83 1380.32 L412.53 1380.34 L412.21 1380.2 L411.81 1380.42 L411.74 1380.78 L411.99 1381.36 L412.39 1381.67 L412.41 1382.13 L411.97 1382.35 L411.42 1382.2 L411.05 1382.48 L410.8 1382.94 L410.93 1383.58 L411.45 1384.02 L411.88 1384.03 L412.19 1384.42 L412.65 1384.5 L412.54 1384.93 L412.03 1385.35 L411.77 1385.31 L411.69 1384.64 L411.32 1384.66 L411.05 1384.95 L410.87 1385.38 L410.73 1385.9 L410.44 1385.56 L410.05 1385.32 L409.94 1384.66 L409.61 1384.45 L409.41 1384.57 L409.25 1384.47 L408.99 1384.2 L408.55 1384.45 L407.95 1384.63 L407.36 1384.68 L407.18 1385.1 L407.16 1385.7 L407.4 1386.4 L406.67 1386.34 L406.46 1386.7 L405.44 1386.64 L403.29 1387.71 L401.51 1389.71 L400.49 1389.35 L398.25 1391.13 L397.38 1392.19 L396.85 1393.2 L396.43 1393.75 L396.12 1394.27 L395.6 1395.85 L395.74 1397.81 L395.63 1398.9 L395.4 1399.93 L395.18 1400.55 L394.51 1400.76 L394.03 1401.14 L394.05 1402.6 L394.47 1402.98 L394.16 1403.21 L393.97 1403.83 L394.62 1405.42 L395.5 1405.71 L396.1 1405.67 L396.29 1405.97 L396.69 1406.02 L396.91 1406.36 L397.16 1406.83 L398 1406.79 L398 1406.83 L398.71 1406.45 L399.54 1406.73 L400.51 1407.49 L401.78 1407.25 L402.78 1408.33 L403.67 1408.65 L404.36 1409.81 L403.73 1409.95 L403.03 1410.77 L402.42 1411.11 L402.18 1411.57 L401.73 1411.92 L401.07 1411.67 L400.66 1412.22 L400.14 1412.71 L400.41 1413.55 L401.03 1414.2 L401.23 1415.17 L400.37 1414.95 L399.82 1414.56 L399.3 1415.14 L399.55 1415.58 L400.28 1416.61 L398.24 1418.01 L397.18 1417.67 L396.14 1417.81 L395.86 1419.1 L393.65 1417.15 L392.81 1416.32 L391.08 1416.57 L390.21 1416.6 L389.5 1417.5 L388.83 1417.11 L388.94 1415.82 L388.28 1414.87 L387.54 1414.97 L386.74 1414.88 L385.86 1415.22 L385.82 1416.51 L385.97 1417.44 L384.92 1417.41 L383.53 1418.1 L382.12 1417.62 L381.06 1416.22 L379.5 1414.86 L378.08 1414.93 L374.79 1413.82 L371.86 1414.39 L370.26 1414.14 L369.21 1415.77 L367.29 1417.42 L366.18 1418.73 L365.22 1418.02 L364.49 1417.8 L363.44 1417.76 L362.76 1417.73 L361.89 1418 L361.62 1418.55 L360.57 1418.38 L360.03 1419.16 L356.84 1420.12 L355.39 1420.92 L354.02 1422.39 L353.94 1424.02 L356.42 1424.78 L357.49 1425.26 L356.56 1426.64 L351.63 1424.68 L350.8 1424.55 L350.78 1426.5 L353.05 1427.03 L354.08 1428.39 L354.01 1430.02 L352.16 1429.94 L346.7 1429.91 L340.86 1430.95 L336.69 1431.41 L333.66 1432.9 L332.05 1434.36 L329.64 1436.28 L326.85 1439.57 L325.26 1442.57 L323.37 1445 L321.7 1447.55 L319.99 1450.44 L318.89 1452.37 L316.55 1454.67 L315.35 1456.76 L314.65 1457.59 L313.43 1458.45 L312.8 1459.87 L312.21 1461.72 L312.21 1463.94 L312.3 1465.08 L313.27 1466.02 L313.04 1466.73 L312.71 1467.11 L311.83 1467.23 L311.8 1468.26 L311.54 1469.15 L311.58 1469.63 L311.99 1470.18 L311.79 1470.9 L311.17 1471.44 L310.16 1471.22 L308.62 1472.44 L307.88 1473.14 L307.21 1473.67 L306.3 1476.35 L304.75 1477.51 L304.23 1478.88 L303.17 1480.24 L302.59 1481.49 L303.33 1483.28 L302.1 1483.95 L301.05 1485.78 L300.89 1486.3 L299.29 1491.5 L298.9 1493.5 L298.74 1495.71 L298.84 1498.16 L301.24 1509.65 L302.94 1515.42 L304.08 1518.1 L308.85 1527.53 L311.77 1530.37 L313.2 1531.76 L315.67 1532.56 L317.23 1533.09 L317.74 1533.69 L318.45 1535.11 L320.38 1536.57 L322.45 1537.02 L323.57 1537.71 L324.31 1539.87 L325.98 1541.42 L327.72 1544.24 L328.44 1545.96 L328.97 1546.12 L329.64 1546.15 L330.11 1546.39 L330.59 1547.43 L330.99 1547.66 L331.51 1548.11 L335.98 1553.28 L338.91 1557.89 L340.83 1559.75 L345.21 1562.04 L347.13 1561.89 L348.75 1563.04 L350.8 1562.27 L351.82 1562.8 L352.85 1562.69 L353.89 1562.36 L354.95 1562.27 L355.75 1562.58 L357.39 1563.56 L358.19 1563.78 L360.96 1563.52 L361.81 1563.78 L362.33 1564.2 L365.04 1564.7 L370.26 1565.87 L376.02 1565.35 L378.88 1564.22 L380.16 1563.95 L381.35 1564.14 L384.38 1566.18 L386.29 1566.38 L387.45 1567.62 L387.99 1569.56 L389.16 1570.57 L390.08 1571.66 L390.55 1572.12 L393.14 1574.33 L392.61 1575.75 L393.5 1579.76 L394.17 1582.13 L394.74 1584.49 L394.05 1589.49 L393.6 1596.97 L392.29 1601.32 L390.84 1606.13 L388.08 1614.3 L387.1 1614.88 L385.6 1614.94 L384.25 1614.63 L381.69 1614.21 L378.72 1614.1 L377.22 1615.5 L375.52 1617.69 L374.2 1618.6 L372.89 1619.11 L369.76 1620.76 L366.57 1623.07 L365.44 1623.4 L361.57 1623.21 L360.78 1623.4 L363.22 1624.25 L365.2 1624.05 L369.07 1621.82 L370.29 1621.47 L373.07 1620.73 L377.85 1618.01 L379.19 1616.45 L381.62 1615.98 L383.87 1616.2 L385.26 1616.38 L386.12 1617.41 L386.99 1621.25 L387.69 1624.58 L389.01 1626 L390.85 1626.46 L392.29 1627 L390.97 1628 L390.62 1628.8 L391.65 1629.4 L392.28 1629.75 L391.06 1630.11 L389.75 1630.63 L388.53 1630.83 L388.01 1629.44 L385.37 1628.53 L383.97 1629.21 L383.03 1630.79 L382.74 1632.16 L383.84 1632.93 L383.5 1634.79 L383.32 1635.18 L382.99 1635.58 L382.89 1636.48 L381.91 1637.15 L382.13 1637.88 L383.47 1638.99 L385.19 1639.51 L385.46 1640.7 L384.48 1642.16 L383.09 1642.46 L382.68 1641.48 L381.75 1641.08 L380.82 1641.66 L379.56 1641.6 L377.24 1641.88 L375.8 1642.34 L374.87 1642.87 L373.7 1643.85 L373.29 1645.65 L372.65 1646.75 L372.31 1647.54 L370.22 1648.56 L368.36 1649.32 L367.03 1651.87 L365.22 1652.56 L364.41 1653.49 L363.41 1655.15 L362.5 1657.79 L363.19 1660.17 L362.61 1660.43 L360.93 1660.05 L359.18 1659.99 L357.8 1659.99 L357.65 1660.35 L356.74 1661.09 L357.03 1662.14 L356.8 1663.77 L355.16 1664.8 L352.96 1665.56 L351.39 1665.55 L347.63 1666.1 L345.5 1667.91 L342.67 1669.44 L341.49 1670.88 L339.69 1672.28 L338.23 1674.32 L337.24 1674.98 L337.11 1676.61 L336.81 1678.13 L335.64 1678.59 L334.35 1679.23 L330.76 1679.79 L327.89 1682.27 L324.36 1684.51 L323.23 1685.96 L322.78 1689.74 L320.83 1691.96 L320.4 1693.83 L320.14 1695.52 L317.66 1697.61 L313.94 1699.26 L309.73 1702.08 L302.15 1710.61 L301.23 1713.07 L300.47 1715.88 L300.15 1717.59 L299.19 1718.46 L298.33 1719.37 L298.2 1721.33 L299.2 1721.76 L299.47 1723.06 L298.76 1723.58 L298.38 1724.02 L297.45 1724.44 L297.16 1725.05 L296.94 1725.82 L296.54 1726.59 L296.18 1728.5 L294.82 1729.94 L293.32 1730.49 L293.8 1731.23 L294.41 1731.95 L294.74 1732.74 L294.35 1733.64 L293.63 1733.83 L292.95 1734.56 L292.04 1735.12 L292.67 1735.71 L292.65 1736.73 L291.21 1738.17 L288.37 1738.57 L288.29 1739.02 L289.21 1739.48 L290.27 1739.51 L293.68 1739.43 L295.05 1737.98 L295.81 1735.25 L295.72 1733.21 L296.5 1732.14 L296.79 1729.91 L297.67 1728.75 L298.12 1728.38 L298.85 1728.65 L299.58 1729.75 L299.57 1731.23 L299.4 1734.23 L297.29 1738.38 L297.12 1739.74 L296.13 1744.93 L294.94 1750.52 L294.63 1752.68 L294.63 1756.08 L294.27 1757.91 L294.04 1761.09 L294.32 1762.25 L293.34 1769.69 L291.77 1774.91 L291.34 1776.66 L290.58 1778.32 L290.24 1779.35 L289.98 1779.7 L288.26 1783.19 L285.16 1786.49 L280.78 1790.12 L276.05 1793.56 L271.34 1795.66 L266.9 1796.49 L263.39 1796.14 L262.71 1795.94 L262.21 1795.38 L260.96 1793.26 L259.82 1792.63 L258.69 1790.74 L257.97 1789.2 L257.52 1787.17 L256.65 1785.21 L255.44 1783.57 L253.72 1782.09 L252.67 1780.15 L252.31 1778.44 L251.3 1775.72 L250.01 1773.84 L247.67 1769.17 L247.03 1767.87 L246.12 1766.93 L244.94 1766.14 L243.73 1765.63 L242.73 1765.52 L245.87 1767.71 L246.53 1768.62 L246.83 1769.79 L248.21 1772.53 L249.96 1775.68 L250.86 1779.15 L250.89 1781.09 L250.09 1781.87 L248.42 1783.07 L247.23 1783.47 L246.01 1784.27 L244.65 1784.43 L242.56 1783.94 L239.52 1784.26 L235.92 1783.81 L234.01 1785.26 L232.37 1786.05 L230.92 1786.1 L228.98 1787.34 L228.98 1787.93 L229.24 1787.95 L229.76 1787.9 L230.01 1787.93 L231.17 1787.81 L233.93 1787.62 L235.59 1786.16 L236.89 1785.45 L237.58 1785.26 L238.24 1785.3 L239.65 1785.53 L241.26 1785.33 L243.85 1785.91 L246.19 1786.33 L247.79 1785.51 L249.69 1784.59 L250.58 1784.42 L251.37 1784.72 L251.77 1785.15 L252.15 1786.71 L253.15 1787.39 L253.82 1787.96 L253.82 1788.7 L253.86 1789.84 L254.19 1791.49 L255.08 1793 L256.44 1794.57 L257.52 1795.32 L258.82 1795.5 L259.64 1795.89 L260.24 1796.83 L261.64 1797.24 L262.31 1798.38 L261.69 1799.99 L260 1800.66 L258.87 1801.76 L257.88 1802.46 L249.02 1806.48 L242.88 1809.58 L241.34 1809.36 L240.12 1810.56 L239.97 1811.63 L238.42 1812.15 L237.68 1812.28 L236.88 1812 L235.86 1812.66 L235.64 1814.4 L234.68 1815.13 L232.35 1818.47 L230.91 1820.4 L230.18 1822.19 L229.16 1824.21 L227.45 1827.23 L226.64 1829.28 L225.81 1830.76 L225.64 1834.27 L223.5 1840.24 L222.5 1843.38 L222.12 1845.18 L222.25 1846.49 L223 1848.5 L223.27 1853.49 L223.23 1855.98 L222.79 1858.01 L221.67 1858.97 L219.32 1860.56 L216.57 1863.64 L212.19 1867.19 L210.06 1869.57 L209.03 1872.4 L210.54 1870.88 L213.42 1868.28 L215.19 1866.96 L218.22 1865.07 L219.78 1864.13 L221.23 1863.96 L221.69 1865.42 L221.75 1866.95 L222.35 1870.27 L223.44 1876.45 L224.21 1880.44 L224.42 1882.89 L225.29 1884.52 L225.68 1887.92 L226.51 1891.44 L231.48 1905.88 L231.86 1907.61 L231.94 1909.28 L231.54 1910.68 L230.57 1911.6 L229.69 1911.41 L228.66 1910.92 L227.27 1910.92 L226.2 1911.66 L224.57 1913.83 L223.65 1914.28 L222.25 1914.16 L221.03 1913.85 L215.38 1910.64 L211.57 1910.32 L210.71 1910.41 L210.13 1910.64 L208.66 1911.52 L205.84 1911.9 L204.55 1912.3 L202.26 1914.37 L199.82 1915.24 L198.68 1915.93 L209.63 1913.3 L211.93 1912.96 L214.36 1913.37 L219.58 1915.55 L221.77 1916.72 L221.38 1918.08 L218.66 1920.41 L218.66 1920.91 L219.66 1920.91 L220.58 1920.5 L224.73 1918.19 L226.88 1916.31 L228.2 1915.04 L229.62 1914.81 L230.99 1915.51 L232.87 1917.58 L236.03 1926.77 L238.36 1930.41 L242.06 1939.43 L245.47 1946.79 L253.68 1959.74 L259.9 1968.9 L261.52 1971.45 L262.06 1972.99 L261.68 1974.15 L260.29 1975.69 L259.44 1976.77 L258.9 1978.01 L258.05 1978.4 L257.66 1977.47 L257.97 1976.39 L257.35 1974.77 L257.37 1971.79 L257.05 1970.93 L255.88 1970.56 L251.91 1969.6 L251.09 1969.32 L249.57 1968.31 L248.65 1967.95 L238.67 1966.27 L236.76 1965.46 L229.28 1961.02 L219 1957.65 L205.28 1957.2 L196.31 1953.3 L187.8 1949.59 L181.81 1946.99 L177.74 1946.92 L166.41 1946.76 L155.09 1946.6 L143.77 1946.44 L132.44 1946.28 L121.12 1946.12 L109.79 1945.95 L98.47 1945.79 L87.14 1945.63 L83.12 1945.57 L80.73 1943.99 L80.99 1940.51 L81.57 1937.91 L81.07 1935.63 L79.91 1933.76 L78.49 1932.36 L75.34 1928.37 L71.85 1925.19 L69.59 1923.67 L64.87 1922.11 L63.88 1921.3 L63.21 1919.68 L62.78 1915.21 L62.37 1913.85 L61.33 1912.56 L60.12 1912.24 L58.8 1912.26 L57.44 1911.96 L56.38 1910.07 L57.78 1907.63 L61.35 1903.88 L61.49 1903.27 L61.46 1902.52 L61.36 1901.74 L61.32 1901.02 L61.49 1900.22 L61.83 1899.61 L62.19 1899.08 L62.46 1898.47 L62.74 1897.02 L62.75 1892.49 L62.89 1890.73 L63.25 1889.56 L65.4 1886.47 L65.99 1885.32 L66.05 1884.15 L65.23 1883.04 L61.44 1880.41 L59.79 1878.54 L58.74 1875.78 L58.67 1874.15 L59.07 1873.06 L60.5 1871.02 L61.37 1869.43 L61.98 1868.65 L62.79 1868.31 L64.25 1868.03 L65.07 1866.28 L65.63 1862.57 L66.09 1855.75 L65.76 1852.66 L64.73 1850.62 L63.36 1848.88 L62.01 1846.65 L61.54 1845.26 L61.53 1844.14 L61.86 1843.04 L63.67 1839.05 L63.78 1837.79 L62.82 1837.2 L61.65 1836.87 L59.73 1835.52 L53.58 1834.01 L51.41 1835.11 L47.94 1839.2 L45.71 1839.28 L44.7 1838.63 L42.15 1835.84 L41.03 1835.22 L39.89 1835.47 L33.64 1839.19 L31.86 1840.68 L28.26 1844.73 L26.17 1846.42 L23.94 1847.44 L21.76 1847.41 L19.84 1845.76 L19.39 1843.16 L19.46 1840.13 L19.11 1837.19 L18.59 1836.01 L16.46 1833.08 L15.83 1831.78 L15.61 1830.48 L15.62 1825.93 L15 1821.69 L14.92 1820.14 L15.07 1816.92 L14.99 1815.32 L14.48 1812.85 L13.63 1810.22 L12.55 1807.76 L11.37 1805.82 L10.43 1804.91 L8.38 1803.73 L2.12 1797.76 L1.57 1795.64 L2.07 1793.24 L4.62 1788.51 L4.73 1787.48 L4.28 1786.05 L3.64 1785.07 L0.92 1782.61 L0 1781.46 L0.22 1780.5 L0.94 1779.56 L1.55 1778.51 L1.73 1777.12 L1.7 1775.94 L1.92 1774.85 L4.55 1772.06 L5.51 1770.14 L5.41 1768.03 L18.88 1762.01 L22.06 1757.24 L25.76 1752.13 L25.88 1746.01 L24.53 1741.89 L22.81 1739.56 L23.29 1733.25 L23.83 1730.34 L23.86 1729.86 L20.6 1729.22 L20.2 1728.66 L19.57 1727.75 L19.51 1725.84 L20.16 1723.93 L23.38 1719.74 L23.89 1718.7 L24 1717.74 L23.99 1716.74 L24.13 1715.61 L24.82 1713.9 L27.88 1709.27 L27.89 1709.27 L28.28 1708.67 L30.29 1706.67 L32.67 1705.75 L37.56 1705.16 L39.75 1704.34 L41.68 1702.81 L45.24 1698.93 L47.91 1695.62 L49.24 1693.45 L49.75 1691.12 L49.96 1688.17 L49.65 1680.12 L48.52 1675.94 L48.12 1672.08 L50.02 1667.69 L51.97 1666.11 L54.05 1664.89 L57.24 1663.77 L58.06 1663.08 L59.47 1661.04 L60.05 1659.99 L60.33 1659.69 L60.98 1659.44 L61.67 1659.49 L63.15 1659.99 L63.8 1659.78 L64.17 1658.7 L63.73 1657.4 L63.04 1656.11 L62.63 1655.1 L62.71 1653.82 L63.34 1650.98 L63.44 1649.49 L62.25 1640.43 L61.76 1638.9 L60.05 1638.28 L59.5 1637.95 L59.13 1637.43 L59.01 1636.78 L58.96 1636.1 L58.77 1635.42 L57.94 1634.32 L57.05 1633.92 L56.08 1633.69 L55.01 1633.14 L53.4 1631.58 L52.1 1629.54 L51.67 1627.22 L52.66 1624.81 L53.85 1622.58 L55.16 1617.34 L56.02 1614.82 L60.76 1606.31 L61.32 1605.06 L61.69 1603.87 L61.91 1602.6 L62.03 1601.14 L62.93 1597.14 L62.87 1596.14 L62.04 1595.36 L60.99 1595.02 L60.38 1594.36 L60.85 1592.61 L61.58 1591.52 L62.48 1590.79 L64.52 1589.94 L65.78 1589.86 L68.48 1590.33 L69.58 1590.13 L70.42 1589.39 L71.69 1587.48 L76.08 1582.3 L77.07 1580.46 L77.51 1579.17 L77.45 1578.43 L77.14 1577.69 L76.82 1576.45 L76.72 1575.19 L76.91 1574.29 L77.47 1573.84 L78.49 1573.88 L81.71 1576.07 L83.38 1576.57 L84.98 1575.64 L85.85 1573.77 L85.89 1571.72 L85.31 1569.77 L84.34 1568.21 L82.99 1567.13 L79.78 1565.2 L78.73 1563.83 L78.99 1562.37 L82.27 1560.32 L83.27 1559.15 L82.67 1558.07 L80.99 1556.48 L80.48 1555.47 L80.51 1554.4 L81.34 1550.05 L81.57 1549.52 L81.91 1549.03 L82.19 1548.55 L82.23 1547.95 L82 1547.37 L81.69 1546.85 L81.46 1546.29 L81.49 1545.59 L82.3 1544.53 L83.64 1544.19 L86.23 1544.15 L87.32 1543.72 L88.05 1543.02 L89.37 1540.97 L90.24 1540.02 L93.04 1538.37 L94.7 1536.5 L95.05 1534.27 L94.28 1528.97 L94.4 1527.66 L94.77 1526.54 L95.03 1525.4 L94.81 1524.02 L91.45 1514.82 L90.96 1512.27 L90.89 1509.39 L91.08 1506.08 L90.87 1504.02 L89.9 1502.58 L86.88 1500.5 L84.45 1498.1 L83.99 1497.81 L83.53 1497.64 L83.27 1497.33 L83.38 1496.58 L83.79 1496.17 L84.49 1495.96 L88.21 1495.48 L89.42 1495.12 L90.53 1494.45 L91.24 1493.58 L92.27 1491.45 L92.87 1490.47 L96.61 1486.26 L98.46 1484.17 L97.85 1481.54 L97 1479.49 L95.77 1477.92 L94.01 1476.8 L91.89 1476.01 L91.12 1475.34 L90.8 1474.1 L91.04 1473.01 L91.47 1472 L91.59 1470.91 L90.9 1469.61 L89.58 1468.33 L89.11 1467.54 L88.94 1466.4 L89.06 1465.9 L89.85 1464.56 L90.01 1463.91 L89.9 1463.44 L89.72 1463.01 L89.64 1462.47 L89.74 1461.29 L89.92 1460.48 L90.81 1458.67 L91.1 1458.32 L91.47 1457.96 L91.78 1457.55 L91.9 1457.08 L91.72 1456.57 L90.95 1455.78 L90.79 1455.5 L91.56 1453.84 L93.36 1452.69 L95.46 1452 L97.11 1451.75 L101 1452.03 L102.8 1451.67 L104.65 1450.2 L105.2 1449.07 L105.04 1448.01 L104.02 1445.93 L103.58 1444.47 L103.68 1443.75 L108.72 1441.63 L109.66 1441.06 L110.41 1440.23 L111.59 1438.35 L112.42 1437.63 L113.56 1435.97 L113.28 1433.66 L112.2 1431.31 L110.97 1429.5 L109.35 1427.87 L106.66 1425.95 L104.74 1423.41 L104.25 1422.58 L103.34 1419.32 L101.33 1415.06 L99.64 1413.09 L97.87 1412.86 L95.98 1413.16 L93.94 1412.77 L93.12 1412.11 L91.8 1410.43 L91.05 1409.8 L89.91 1409.49 L88.75 1409.62 L87.6 1410.04 L86.53 1410.62 L84.54 1410.9 L82.53 1409.94 L80.51 1408.63 L78.49 1407.87 L76.31 1408.03 L75.3 1407.7 L74.92 1406.59 L75.23 1404.23 L75.27 1403.08 L74.53 1399.24 L75.16 1397.69 L76.59 1397.26 L78.49 1398.02 L79.61 1398.51 L86.29 1399.82 L87.46 1399.62 L88.37 1398.94 L88.98 1398.11 L89.69 1397.44 L90.91 1397.23 L92.05 1397.47 L95.43 1398.94 L97.51 1399.05 L102.07 1396.96 L104.24 1396.42 L106.25 1397.08 L110.18 1399.89 L112.34 1400.57 L114.25 1400.15 L116.01 1398.84 L117.25 1396.77 L117.61 1394.06 L117.19 1391.58 L117.13 1390.43 L117.41 1389.07 L118.49 1386.83 L119.2 1385.74 L119.73 1385.26 L120.81 1385.21 L121.81 1384.98 L122.6 1384.26 L123.06 1382.76 L123.05 1381.42 L122.65 1380.72 L122.05 1380.15 L121.41 1379.18 L121.04 1377.97 L120.89 1376.91 L120.61 1375.92 L119.85 1374.92 L118.67 1374.19 L117.41 1373.92 L114.81 1373.89 L107.22 1372.35 L96.91 1372.43 L94.34 1371.78 L92.16 1371.78 L90 1372.43 L87.93 1372.47 L85.99 1370.64 L85.81 1369.38 L86.64 1368.6 L87.78 1368.08 L88.51 1367.58 L88.83 1366.26 L88.45 1365.26 L87.83 1364.3 L87.43 1363.13 L87.63 1361.86 L88.72 1359.79 L88.78 1358.57 L88.41 1357.36 L86.82 1354.38 L86.08 1351.76 L87.26 1350.82 L89.25 1350.23 L90.93 1348.7 L91.78 1347.37 L95.58 1341.42 L96.1 1340.02 L96.07 1339.08 L93.26 1334.37 L92.61 1333.5 L92.2 1333.19 L91.25 1332.69 L90.95 1332.26 L90.83 1331.49 L91 1330.95 L91.26 1330.47 L91.4 1329.84 L91.29 1328.29 L90.94 1328.12 L90.26 1328.59 L89.18 1328.95 L88.25 1328.5 L88.07 1327.37 L88.36 1326.07 L88.87 1325.14 L89.72 1324.53 L91.83 1323.7 L92.76 1323.15 L93.59 1322.25 L93.87 1321.36 L93.52 1317.37 L93.34 1316.54 L92.86 1316.03 L90.73 1314.45 L90.4 1314.14 L90.09 1313.72 L89.86 1313.3 L89.54 1312.88 L89 1312.52 L87.86 1312.38 L86.46 1312.41 L85.32 1312.16 L84.94 1311.16 L85.1 1310.79 L86.08 1309.41 L86.09 1309.37 L86.1 1307.9 L85.58 1306.87 L84.71 1306.23 L83.7 1305.95 L83.18 1306.06 L82.66 1306.33 L82.13 1306.48 L81.63 1306.22 L81.24 1305.55 L81.46 1305.21 L81.9 1304.91 L82.16 1304.39 L81.95 1302.43 L81.95 1301.97 L82.26 1301.35 L82.63 1301.03 L83.03 1300.77 L83.39 1300.32 L83.55 1299.76 L83.64 1297.68 L83.92 1297.16 L84.54 1296.96 L85.82 1296.85 L87.81 1295.87 L88.78 1295.64 L91 1296.11 L91.51 1295.32 L91.62 1294.05 L91.57 1292.82 L91.47 1292.26 L91.19 1291.17 L91.16 1290.49 L91.29 1289.87 L91.76 1288.69 L91.9 1288.06 L91.54 1286.84 L90.53 1286.08 L85.92 1284.14 L78.49 1283.26 L76.25 1282.23 L74.16 1280.38 L72.49 1277.89 L71.53 1274.9 L71.85 1272.49 L72.99 1268.03 L73.33 1265.65 L72.9 1255.78 L72.68 1254.7 L71.96 1252.37 L71.88 1251.41 L72.33 1249.77 L72.38 1249.25 L72.23 1248.61 L71.68 1247.64 L71.53 1247.1 L71.8 1244.68 L72.83 1242.83 L74.33 1241.52 L76.88 1240.18 L77.02 1239.51 L76.69 1238.74 L75.21 1236.28 L75.14 1235.57 L75.94 1231.87 L75.48 1230.58 L72.88 1228.07 L72.27 1226.34 L72.72 1224.69 L73.81 1223.17 L75.11 1221.84 L76.03 1220.24 L76.41 1218.4 L76.98 1216.65 L78.49 1215.3 L80.12 1215.34 L80.93 1216.66 L81.6 1218.18 L82.81 1218.84 L83.53 1218.52 L83.97 1217.9 L84.33 1217.19 L84.8 1216.62 L85.43 1216.31 L88.97 1215.68 L90.38 1214.98 L91.57 1213.92 L92.23 1212.54 L92.07 1209.02 L91.85 1208.51 L90.91 1207.36 L90.58 1206.84 L90 1205.95 L90.04 1204.99 L90.28 1203.91 L90.32 1202.76 L89.33 1197.92 L88.3 1195.92 L87.08 1194.26 L86.18 1192.43 L86.09 1189.91 L85.57 1187.68 L82.71 1183.48 L82.71 1181.46 L83.41 1180.6 L85.13 1179.57 L85.84 1178.87 L86.36 1177.72 L86.18 1176.96 L85.61 1176.23 L84.98 1175.2 L84.61 1174.06 L84.58 1173.21 L84.95 1171.22 L85.07 1169.92 L85.02 1168.96 L84.8 1168.04 L84.4 1166.86 L83.81 1164.34 L83.9 1162.22 L85.13 1157.79 L85.35 1156.42 L85.22 1155.38 L84.59 1153.15 L84.54 1151.78 L84.94 1151.31 L85.45 1150.91 L85.72 1149.82 L85.89 1147.44 L86.32 1145.06 L86.38 1143.61 L85.66 1141.15 L85.65 1140.48 L85.63 1139.74 L86.45 1136.99 L86.45 1135.7 L86.03 1134.05 L85.47 1132.87 L83.47 1129.84 L82.94 1128.36 L81.22 1121.23 L81.52 1120.5 L85.35 1116.38 L86.37 1114.35 L86.64 1111.92 L86.47 1111.3 L85.99 1110.58 L85.93 1109.94 L86.08 1109.46 L86.98 1107.71 L88.82 1101.8 L89.21 1101.01 L89.8 1100.8 L91.93 1101.43 L92.58 1101.46 L93.1 1100.91 L95.14 1096.12 L95.36 1095.05 L95.38 1094.37 L95.3 1093.73 L95.1 1093.15 L94.72 1092.71 L94.12 1092.33 L93.78 1092.28 L93.13 1092.56 L92.85 1092.81 L92.76 1093.15 L92.55 1093.37 L91.91 1093.24 L91.54 1092.91 L90.5 1091.3 L88.93 1089.67 L88.23 1088.67 L87.84 1087.55 L87.91 1087.07 L88.35 1086.11 L88.43 1085.88 L88.19 1085.21 L88.21 1084.55 L88.58 1082.54 L88.79 1081.93 L88.89 1081.37 L88.68 1080.87 L88.3 1080.29 L88.33 1079.85 L89 1078.98 L90.7 1078.8 L92.97 1079.91 L94.87 1080.25 L95.51 1077.74 L95.4 1077.05 L95.02 1075.66 L94.92 1074.94 L95.03 1074.38 L95.34 1074.04 L95.7 1073.79 L95.96 1073.43 L97.83 1069.24 L98.24 1067.85 L98.01 1066.88 L97.34 1066.12 L95.6 1064.53 L95.09 1063.79 L94.83 1062.85 L94.71 1061.42 L94.46 1060.01 L93.53 1057.23 L93.33 1055.85 L93.61 1054.68 L94.12 1053.49 L94.35 1052.4 L93.25 1050.52 L93.11 1049.13 L93.33 1047.69 L93.78 1046.54 L94.57 1045.55 L95.19 1045.55 L97.01 1047.61 L97.45 1048.1 L98.18 1048.69 L99.04 1048.88 L100.26 1048.56 L101.34 1048.44 L102.26 1048.63 L103.09 1048.58 L103.92 1047.71 L104.32 1045.36 L101.99 1043.2 L103.31 1041.18 L104.03 1040.33 L104.98 1038.56 L105.58 1037.78 L106.03 1036.79 L105.22 1034.73 L105.28 1033.48 L106.08 1032.45 L107.16 1031.73 L108.11 1030.83 L108.52 1029.26 L109.02 1023.94 L108.49 1015.17 L107.56 1010.34 L107.6 1008.61 L108.33 1004.49 L109.13 1002.89 L110.59 1001.43 L115.16 998.99 L116.47 997.87 L117.11 996.95 L117.36 996.51 L117.76 996.33 L121.53 995.68 L122.34 995.26 L125.26 992.99 L126.78 992.32 L128.71 992.3 L130.86 992.59 L131.97 992.36 L132.75 991.62 L133.46 990.1 L133.75 989.73 L135.27 988.97 L135.55 988.77 L135.62 988.13 L135.39 987.71 L135.09 987.31 L134.95 986.78 L134.98 986.07 L135.07 985.66 L135.59 984.67 L136.86 982.88 L137.37 981.89 L137.53 980.6 L136.81 978.24 L135.25 976.66 L133.36 975.37 L131.7 973.86 L130.53 971.63 L128.37 961.39 L128.22 959.45 L128.31 957.49 L128.76 955.36 L128.78 955.19 L128.76 955.02 L128.71 954.84 L128.4 953.66 L128.05 952.33 L128.03 951.16 L128.71 950.09 L128.84 949.74 L128.88 949.38 L128.84 949.02 L128.71 948.67 L127.33 946.82 L126.88 945.78 L126.6 944.44 L126.14 943.11 L124.81 940.68 L124.44 937.95 L122.52 934.2 L119.92 925.79 L119.55 922.93 L119.63 921.6 L119.98 920.7 L120.55 919.98 L121.32 919.22 L122.53 918.47 L122.79 918.08 L122.82 917.33 L122.2 916.2 L122.09 915.51 L122.36 914.27 L123.14 911.86 L123.3 910.61 L123.03 909.14 L122.36 907.99 L120.76 905.87 L119.43 902.83 L118.93 901.06 L118.89 899.62 L119.31 898.5 L121.3 896.03 L121.85 894.71 L121.9 893.49 L121.78 892.25 L121.8 890.93 L122.21 889.57 L122.93 888.74 L124.73 887.69 L122.84 886.06 L122.2 885.06 L121.75 882.03 L121.37 881.36 L119.8 880.35 L118.81 879.44 L119.13 879.39 L120.12 879.63 L121.1 879.64 L122.01 879.01 L122.4 878.13 L122.17 877.26 L120.72 876.28 L120.75 875.8 L120.99 875.29 L121.12 874.82 L121.15 874.3 L121.25 874.07 L121.24 873.81 L120.91 873.15 L120.52 872.77 L120.03 872.57 L119.59 872.28 L119.32 871.65 L119.41 871.08 L119.72 870.53 L120.08 870.03 L120.34 869.55 L121.6 866.14 L121.84 864.93 L121.73 862.6 L121.91 861.62 L122.68 860.91 L123.69 861.01 L124.65 861.7 L125.54 862.15 L126.33 861.58 L126.43 860.56 L125.7 856.33 L125.75 853.99 L126.13 851.12 L127.04 848.86 L127.81 848.67 L128.71 848.44 L129.73 848.8 L130.67 848.93 L131.56 848.75 L132.48 848.13 L133.06 847.14 L133.42 844.8 L133.84 843.92 L134.72 843.62 L135.81 843.89 L137.81 844.84 L138.23 845.13 L138.54 845.47 L138.89 845.68 L143.34 844.51 L143.83 843.8 L143.85 842.35 L143.6 841.61 L142.82 840.28 L142.66 839.5 L142.79 838.95 L143.64 837.38 L143.7 836.84 L143.59 836.34 L143.53 835.82 L143.75 835.23 L144.12 834.87 L144.58 834.66 L145.53 834.4 L146.2 833.91 L148.06 831.46 L148.3 831.28 L148.87 831.01 L149.08 830.8 L149.23 830.4 L149.29 829.59 L149.38 829.24 L149.88 828.04 L150.23 827.6 L150.89 827.34 L152.05 827.57 L154.37 828.87 L155.77 828.8 L156.76 828.16 L157.58 827.17 L157.8 826.74 L158.2 825.95 L158.81 823.9 L159.13 823.33 L160 822.35 L160.33 821.56 L160.16 820.6 L158.71 816.77 L158.71 816.06 L159.09 814.88 L159.36 814.53 L159.77 814.2 L160.11 813.81 L160.16 813.32 L159.81 812.86 L158.72 813 L158.3 812.73 L158.33 810.54 L161.49 807.25 L161.27 805.26 L160.53 803.91 L158.26 797.62 L158.2 796.64 L158.73 794.39 L158.74 793.16 L158.44 790.69 L158.93 788.14 L158.52 787.21 L157.78 786.39 L157.06 785.36 L155.87 781.27 L155.74 780.33 L156.31 779.81 L157.31 779.55 L157.92 778.95 L157.35 777.42 L155.56 776.3 L153.28 776.03 L151.29 775.34 L150.36 772.96 L152.17 769.86 L160.02 767.24 L160.93 762.97 L160.73 758.69 L160.72 758.52 L161.67 754.15 L165.54 744.66 L165.34 743.93 L164.73 743.39 L163.99 742.51 L163.55 741.44 L163.89 741.08 L164.71 740.88 L165.72 740.3 L166.77 738.4 L167.26 733.73 L167.99 731.65 L168.93 730.59 L171.01 728.79 L171.86 727.55 L172.99 724.59 L173.69 723.24 L176.04 721.25 L176.49 720.1 L176.45 718.71 L176.24 716.93 L176.19 715.1 L176.54 713.74 L177.01 713.27 L177.41 712.88 L179.97 712.39 L181.03 712.45 L182.07 712.68 L183.88 713.34 L184.16 713.1 L184.21 712.68 L184.34 712.37 L187.83 710.82 L188.03 710.22 L187.6 708.77 L186.36 706.39 L186.03 705.57 L185.8 704.56 L185.84 704.01 L186.04 703.5 L186.27 702.59 L186.69 697.96 L186.68 695.14 L186.18 693.5 L185.25 693.29 L184.44 693.59 L183.98 693.39 L184.05 691.7 L184.52 689.34 L184.59 688.28 L183.71 683.58 L183.74 682.27 L184.13 681.57 L185.83 680.19 L186.46 679.52 L186.48 678.61 L185.12 676.64 L184.69 675.65 L184.76 674.47 L185.82 671.05 L185.77 670.41 L185.61 669.89 L185.52 669.36 L185.7 668.72 L186 668.45 L187 668.07 L187.4 667.84 L187.56 667.14 L187.76 664.34 L187.93 663.35 L188.44 662.43 L189.76 660.73 L190.14 659.8 L190.1 658.61 L189.19 656.5 L188.78 653.2 L187.63 651.78 L185.98 650.81 L184.19 650.12 L182.42 650.4 L180.24 653.5 L178.93 653.78 L177.37 650.17 L176.83 649.35 L175.13 647.91 L174.37 647.04 L173.94 646.01 L173.92 644.8 L174.8 641.34 L174.64 640.11 L174.15 639.13 L174.11 638.99 L173.85 638.14 L174.26 636.94 L174.97 636.33 L176.6 635.92 L177.3 635.4 L177.71 634.46 L178.21 631.94 L178.57 630.85 L179.43 629.2 L179.42 628.45 L178.71 627.91 L177.59 627.45 L176.71 626.91 L175.05 625.27 L172.4 621.98 L171.61 620.2 L170.37 613.74 L170.34 612.39 L170.46 611.28 L170.6 610.78 L170.87 610.31 L172.05 610.28 L172.52 610.09 L171.5 608.51 L171.41 607.48 L171.49 606.37 L171.36 605.11 L170.77 603.89 L169.97 603.22 L168.02 602.09 L167.11 600.27 L167.26 595.88 L166.57 594.93 L165.91 594.03 L164.74 593.55 L163.88 593.39 L163.27 592.91 L162.87 591.44 L162.87 590.93 L163.02 589.86 L163 589.32 L162.82 588.72 L162.79 588.63 L162.2 587.37 L162.08 586.65 L162.16 586.11 L162.52 585.13 L162.6 584.59 L162.41 584.19 L161.57 583.56 L161.36 582.99 L161.39 581.84 L161.29 581.38 L160.95 580.85 L160.12 579.96 L159.89 579.43 L159.97 578.76 L160.68 578.09 L161.74 578.26 L163.86 579.12 L165.14 579.06 L165.6 578.53 L166.01 576.34 L166.49 575.47 L166.99 574.78 L167.29 574.01 L167.16 572.87 L166.59 571.89 L165.62 570.78 L164.56 569.84 L163.7 569.31 L161.49 568.98 L159.65 569.05 L157.92 568.6 L156.12 566.72 L155.57 565.64 L155.13 564.32 L154.9 562.91 L155.01 560.39 L154.48 559.41 L152.96 557.62 L150.29 552.2 L149.81 550.75 L149.73 549.68 L150.24 547.09 L150.41 544.93 L150.35 542.75 L150.54 541.63 L151.42 539.8 L151.58 538.69 L151.31 537.44 L150.95 536.35 L150.86 535.24 L151.97 532.91 L152.17 531.86 L152.14 529.59 L152.24 528.42 L152.52 527.51 L155.34 523.05 L155.94 522.62 L156.93 523.11 L157.31 524.35 L157.56 525.67 L158.17 526.4 L158.91 526.18 L159.69 525.45 L160.3 524.52 L160.73 522.79 L161.23 521.67 L162.37 519.83 L163.31 519.36 L165.46 519.7 L166.05 519.52 L165.99 518.78 L165.38 517.99 L163.94 516.69 L163.1 515.72 L162.6 514.81 L162.4 513.76 L163.39 505.73 L164.11 503.66 L164.36 503.23 L165.26 502.04 L165.56 501.33 L165.54 500.75 L165.4 500.16 L165.38 499.43 L165.57 498.26 L165.86 497.34 L166.84 495.55 L167.61 493.51 L168.53 489.05 L169.54 487.4 L170.41 486.83 L171.21 486.43 L171.84 485.82 L172.21 484.64 L171.97 483.43 L170.71 481.3 L170.72 480.28 L172.05 479.66 L176.21 481.71 L177.92 482.17 L179.71 481.65 L181.21 480.87 L182.55 479.75 L183.85 478.24 L184.32 477.26 L184.46 476.19 L184.55 473.99 L184.76 472.92 L184.92 472.39 L185.15 471.93 L185.61 471.47 L186.6 471.02 L187.02 470.65 L187.68 468.49 L186.98 466.44 L185.42 464.88 L183.52 464.19 L181.56 464.48 L180.78 464.28 L180.42 463.3 L180.66 462.5 L182.38 459.85 L183.05 457.75 L183.34 455.59 L183.67 447.83 L183 442.78 L182.98 442.76 L182.55 442 L181.27 440.89 L180.78 439.76 L180.79 438.44 L181 436.7 L181.02 434.98 L179.85 429.49 L179.63 428.81 L179.32 428.19 L178.93 427.64 L178.45 424.66 L178.08 423.82 L177.64 423.07 L177.29 422.28 L177.2 421.3 L177.39 418.5 L177.87 417.33 L178.93 416.71 L179.44 416.51 L179.97 416.19 L180.42 415.76 L180.7 415.23 L180.63 414.81 L180.03 414.04 L179.96 413.72 L180.18 413.37 L180.43 413.22 L180.69 413.13 L181.47 412.43 L182.82 411.56 L183.35 411.05 L183.69 410.36 L183.72 409.94 L183.91 409.62 L184.73 409.28 L187.25 408.82 L188.36 408.29 L189.28 407.06 L189.62 405.79 L189.69 404.27 L189.39 401.39 L189.16 400.25 L189.15 399.09 L189.34 397.94 L189.73 396.84 L190.21 395.99 L190.83 395.23 L191.12 394.75 L191.16 394.27 L191.14 393.79 L191.24 393.28 L192.7 390.63 L192.86 389.59 L192.67 388.34 L191.94 385.9 L191.69 384.63 L191.82 382.66 L192.45 380.79 L193.39 379.07 L194.46 377.57 L194.84 377.31 L195.25 377.19 L195.59 376.97 L195.76 376.36 L195.89 370.33 L196.81 367.09 L196.86 366.91 L199.16 364.54 L201.86 362.35 L204.04 359.48 L204.48 358.5 L205.02 355.53 L205.74 354.94 L206.75 355.39 L207.78 356.11 L208.55 356.35 L208.97 355.77 L210.08 353.46 L211.22 351.66 L213.04 347.22 L214 346.32 L214.04 345.91 L213.9 345.53 L213.93 345.07 L214.43 344.21 L215.04 343.64 L215.84 343.27 L218.81 342.45 L220.1 341.47 L220.97 339.92 L222.92 331.3 L223.41 329.15 L223.72 328.46 L224.22 328.1 L225.58 327.42 L225.85 326.98 L225.64 326.15 L225.26 325.45 L224.98 324.73 L225.02 323.81 L225.36 323.19 L226.49 322.1 L226.95 321.51 L228.22 318.77 L228.7 317.24 L228.84 315.87 L228.66 315.12 L228.63 314.36 L228.78 313.63 L229.15 312.97 L229.98 312.34 L231.73 311.4 L232.54 310.71 L233.1 309.94 L235.53 304.27 L235.72 303.34 L235.61 301.11 L235.7 300.12 L236.15 298.81 L238.24 295.29 L238.98 294.4 L239.65 293.98 L241.49 293.52 L243.79 293.63 L245.58 294.78 L247.26 296.15 L249.21 296.96 L250.46 296.8 L250.98 296.04 L251.29 294.92 L251.89 293.67 L252.77 292.71 L253.86 291.95 L255.06 291.49 L257.63 291.38 L258.68 291.12 L260.93 290.12 L261.47 290.07 L262.92 290.19 L263.28 290.15 L263.39 289.73 L263.25 288.31 L263.35 287.62 L263.62 286.55 L264.44 284.5 L264.71 283.48 L264.54 281.87 L263.8 280.3 L254.26 266.75 L252.55 264.51 L251.25 262.34 L250.38 259.96 L249.98 257.1 L250.05 252.69 L250.38 250.41 L250.99 248.48 L252.45 246.55 L258.79 241.52 L259.34 239.56 L258.93 236.73 L255.45 222.37 L254.84 217.82 L254.39 216.37 L253.67 215.07 L252.69 214.05 L251.79 212.7 L251.71 211.15 L251.77 209.66 L251.31 208.51 L252.01 207.66 L251.42 206.5 L249.6 204.21 L249.33 203.22 L249.25 202.18 L249.45 200.11 L252.04 192.01 L253.96 186.03 L254.95 184.73 L255.12 184.5 L256.07 183.92 L256.86 183.89 L257.68 184.07 L258.75 184.1 L259.83 183.88 L260.83 183.44 L261.47 182.7 L261.43 181.58 L260.34 180.15 L258.76 178.69 L257.6 177.02 L257.78 174.95 L257.91 174.42 L257.79 174.06 L257.53 173.73 L257.28 173.3 L257.08 173.04 L256.52 172.61 L256.32 172.35 L256.29 172.09 L256.34 171.81 L256.43 171.6 L256.49 171.54 L256.12 170.75 L255.81 170.29 L255.27 170.08 L254.26 170.07 L253.88 169.76 L252.68 169.07 L252.21 168.59 L252 168.22 L250.85 165.26 L250.82 164.32 L251.13 163.11 L253.7 157.88 L254.26 156 L254.36 155.21 L254.58 154.41 L254.99 153.82 L255.68 153.66 L256.64 155.01 L257.2 155.34 L257.56 154.29 L257.9 152.6 L259.91 148.23 L260.8 147.71 L261.68 147.88 L262.56 148.19 L263.47 148.11 L264.11 147.5 L265.98 144.47 L266.46 142.92 L266.7 142.51 L267.6 141.88 L269.28 141.17 L271.8 140.1 L274.32 139.04 L276.84 137.97 L279.37 136.9 L285.64 134.08 L291.92 131.26 L298.2 128.44 L304.48 125.63 L304.93 125.45 L305.93 125.06 L306.94 124.67 L307.39 124.49 L309.4 123.72 L311.9 122.33 L313.04 120.69 L314.13 117.1 L315.8 111.55 L317.48 106 L317.65 105.43 L321.18 93.79 L324.71 82.16 L328.23 70.55 L329.12 67.64 L329.4 65.93 Z M247.03 2189.87 L247.62 2187.03 L247.64 2182.28 L248.12 2182.81 L249.28 2185.16 L249.77 2185.96 L250.72 2187.12 L251.16 2187.82 L251.34 2189.18 L250.39 2189.79 Z M247.64 2180.87 L247.73 2157.58 L247.82 2134.46 L247.91 2111.51 L248 2088.71 L248.09 2066.04 L248.18 2043.53 L248.27 2021.15 L248.36 1998.93 L250 2000.15 L250.46 2000.85 L251.45 2003.52 L251.86 2004.29 L255.13 2009.15 L258.38 2015.11 L259.27 2016.27 L262.71 2019.38 L264.24 2021.55 L265.52 2024.18 L266.52 2027.27 L268.37 2036.18 L268.54 2037.45 L268.3 2038.8 L267.76 2037.94 L267.18 2036.17 L265.8 2030.17 L264.57 2029.44 L263.56 2029.56 L262.32 2030.24 L260.75 2031.48 L259.29 2032.94 L256.77 2036.1 L253.73 2038.97 L252.02 2042.85 L251.58 2045.79 L252.22 2048.85 L254.33 2051.33 L257.21 2053.82 L259.26 2054 L261.56 2054.76 L265.01 2055.71 L270.37 2055.16 L274.28 2057.69 L275.26 2060.37 L276.04 2062.03 L275.74 2064.93 L275.93 2065.62 L276.55 2067.21 L277.08 2071.11 L277.49 2072.82 L280.26 2078.34 L280.7 2079.42 L290.24 2090.09 L293.72 2092.84 L294.82 2094.13 L295.01 2095.44 L294.51 2096.67 L295.82 2096.56 L296.95 2096.28 L298.45 2097.4 L302.07 2099.36 L302.52 2100.31 L301.12 2100.68 L300.58 2102.18 L300.8 2104.22 L301.4 2105.47 L315.15 2117.93 L323.03 2123.88 L328.73 2126.67 L332.04 2128.88 L332.96 2130.45 L334.76 2131.55 L341.83 2134.74 L345.08 2138.04 L347.48 2143.06 L352.49 2148.05 L353.8 2150.23 L355.6 2151.24 L356.11 2153.35 L357.81 2154.01 L359.33 2154.32 L361.4 2155.05 L365.89 2157.99 L383.13 2166.7 L383.82 2166.93 L385.2 2167.07 L385.91 2167.3 L387.62 2168.84 L388.15 2169.08 L391.98 2169.35 L395.49 2170.38 L407.6 2168.48 L410.15 2168.89 L411.48 2168.85 L415.01 2167.27 L422.73 2168.48 L423.42 2169.04 L423 2170.26 L422.05 2171.49 L421.18 2172.05 L420.82 2172.79 L419.29 2177.44 L419.51 2177.9 L419.79 2178.8 L420.01 2179.28 L418.31 2180.9 L417.92 2181.54 L417.98 2182.35 L418.26 2183.33 L418.32 2184.18 L417.22 2184.82 L415.61 2186.31 L415.18 2186.9 L413.86 2192.28 L413.25 2192.96 L412.52 2193.4 L411.9 2193.56 L410.81 2193.3 L410.62 2192.59 L410.69 2191.61 L410.38 2190.52 L409.02 2189.68 L407.31 2189.71 L406.17 2190.6 L406.57 2192.32 L405.45 2193.96 L401.39 2193.55 L399.65 2194.06 L399.24 2194.8 L399 2195.68 L398.67 2196.5 L397.97 2197.1 L396.94 2197.35 L396.11 2197.12 L395.44 2196.44 L394.88 2195.3 L394.85 2194.87 L394.97 2193.62 L394.88 2192.91 L394.69 2192.36 L394.45 2191.88 L393.79 2191.73 L392.88 2191.66 L391.89 2191.59 L389.82 2192.43 L386.5 2191.05 L385.26 2192.06 L382.02 2191.25 L380.95 2192.01 L381.71 2193.33 L382.8 2194.56 L381.89 2196.06 L380.66 2197.4 L377.26 2198.41 L374.45 2199.43 L370.46 2199.19 L364.4 2199.38 L361.66 2200.3 L361.83 2201.79 L361.66 2203.12 L358.98 2203.88 L357.69 2204.37 L353.18 2204.29 L348.68 2202.54 L347.2 2201.64 L346.15 2200.43 L345.29 2199.11 L344.46 2198.1 L340.01 2194.79 L338.59 2194.26 L332.84 2193.57 L328.55 2191.53 L313.39 2190.4 L302.94 2188.85 L296.56 2189.38 L283.3 2187.8 L275.98 2186.37 L273.67 2184.44 L268.88 2183.97 L266.21 2182.26 L264.71 2181.67 L264.05 2182.47 L264.23 2184.45 L264.08 2185.19 L263.39 2186.04 L253.75 2186.9 L252.44 2186.56 L251.52 2185.73 L249.99 2183.33 L247.93 2180.99 Z M486.38 2176.25 L487.39 2176.52 L488.52 2175.57 L489.53 2174.95 L490.21 2176.25 L489.13 2177.12 L488.71 2177.63 L488.31 2178.33 L487.67 2180.13 L487.28 2180.75 L486.56 2180.99 L485.62 2181.12 L484.99 2181.46 L482.44 2183.66 L481.86 2183.75 L481.23 2183.33 L481.53 2182.51 L482.44 2180.6 L482.64 2180.09 L482.39 2178.8 L481.79 2178.64 L481.05 2179.2 L480.37 2180.09 L479.68 2180.78 L478.92 2181.03 L477.11 2180.94 L476.89 2180.78 L476.61 2180.74 L476.09 2180.99 L475.81 2181.37 L475.65 2181.87 L475.54 2182.37 L475.4 2182.73 L474.19 2183.38 L469.51 2184.24 L469.2 2185.13 L468.49 2185.58 L467.71 2185.43 L467.17 2184.52 L467.2 2183.57 L467.49 2182.37 L468.14 2180.35 L467.22 2180.39 L466.86 2180.58 L466.46 2180.99 L465.74 2180.31 L465.15 2180.4 L464.02 2181.54 L461.28 2183.33 L460.75 2183.89 L459.83 2185.13 L459.22 2185.71 L458.42 2186.13 L457.54 2186.31 L455.77 2186.36 L455.92 2186.01 L456.02 2185.72 L456.16 2185.45 L456.45 2185.16 L456.45 2184.52 L455.86 2184.52 L455.33 2184.73 L454.84 2185.12 L454.39 2185.71 L454.59 2185.84 L455.04 2186.36 L454.43 2186.97 L452.02 2188.14 L451.44 2188.87 L450.72 2190.52 L450.28 2191.12 L449.41 2191.4 L446.81 2191.36 L446.13 2191.12 L445.86 2190.35 L446.16 2189.71 L446.71 2189.03 L447.19 2188.14 L442.67 2185.16 L442.92 2183.52 L444.02 2182.48 L445.22 2181.67 L445.79 2180.68 L446.46 2179.75 L447.98 2180.4 L450.45 2182.18 L451.5 2182.01 L454.53 2180.75 L455.42 2179.82 L452.64 2176.91 L452.15 2175.57 L453.53 2175 L453.94 2175.41 L455.16 2177.33 L455.77 2178.03 L457.51 2178.63 L458.04 2178.4 L458.98 2177.61 L459.39 2177.44 L459.82 2177.39 L460.33 2177.46 L460.76 2177.88 L460.94 2178.95 L460.96 2180.26 L461.12 2180.78 L461.47 2180.99 L462.06 2180.84 L462.15 2180.4 L462.03 2179.84 L461.97 2179.28 L461.98 2177.82 L461.86 2176.64 L461.91 2175.5 L462.5 2174.17 L462.96 2174.27 L463.67 2175.04 L464.51 2175.58 L465.43 2175 L465.67 2175.45 L465.89 2175.57 L466.14 2175.57 L466.46 2175.65 L467.13 2176.01 L468.65 2175.54 L469.51 2175.65 L470.14 2176.26 L470.77 2177.1 L471.37 2177.73 L471.94 2177.73 L472.28 2176.88 L472.07 2176.01 L472.01 2175.29 L472.8 2175 L473.18 2175.21 L473.88 2176.06 L474.37 2176.25 L474.78 2176.01 L475.14 2175.5 L475.55 2175.04 L476.09 2175 L476.36 2175.5 L476.97 2177.45 L477.46 2178.03 L478.08 2177.88 L479.55 2176.57 L485.09 2174.99 L486.75 2175.65 Z M585.88 1017.5 L586.07 1017.21 L586.5 1017.71 L587.22 1019.05 L588.16 1022.25 L588.28 1023.24 L587.83 1024.16 L586.82 1024.24 L585.71 1023.82 L585.01 1023.24 L584.18 1022.36 L581.02 1021.23 L579.87 1020.5 L578.98 1019.63 L576.9 1016.62 L576.34 1015.37 L576.3 1014.34 L577.28 1014.2 L579.14 1015.11 L584.14 1016.28 L585.16 1017.95 L585.27 1018.53 L585.52 1018.57 L585.77 1018.19 Z M576.9 1010.17 L576.17 1010.93 L575.19 1010.79 L574.65 1010 L575.22 1008.81 L579.2 1009.02 L581.08 1009.62 L582.61 1010.86 L582.86 1011.7 L582.45 1012.4 L581.64 1012.81 L580.7 1012.83 L579.71 1012.39 Z M573.42 1098.35 L574.74 1098.55 L576.5 1098.57 L577.87 1100.02 L578.73 1101.85 L579.79 1103.68 L579.33 1105.62 L577.87 1107.44 L576.9 1109.51 L575.76 1110.89 L574.37 1110.94 L573.11 1110.43 L573.45 1108.41 L572.89 1107.28 L571.5 1108.15 L570.11 1108.14 L569.3 1107.31 L570.19 1106.12 L571.22 1104.24 L571.5 1101.61 L572.54 1098.41 Z M575.24 1082.33 L576.18 1082.28 L577.68 1082.73 L579.18 1083.37 L580.48 1085.25 L580.28 1088.07 L580.19 1091.7 L580.48 1095.33 L580.15 1096.33 L579.66 1094.95 L579.11 1093.26 L577.93 1091.68 L575.64 1088.16 L574.53 1085.64 Z "/>
</g>
</svg>
