<svg xmlns="http://www.w3.org/2000/svg" viewBox="0 0 1000 1001.81">
<g fill="#ccc" stroke="#333" stroke-width="0.5" stroke-linejoin="round">
<path fill-rule="evenodd" d="M494.61 0 L506.3 24.9 L503.12 33.76 L504.86 38.96 L510.28 41.3 L530.91 41.33 L536.31 43.08 L552.85 56.09 L556.94 62.05 L557.35 68.73 L546.51 76.68 L515.28 75.36 L511.91 88.83 L515.98 95.82 L522.82 100.45 L528.92 101.08 L530.85 96.1 L531.76 88.48 L536.98 91.29 L547.3 102.07 L553.76 106.1 L558.66 111.4 L563.85 115.77 L578.73 117.52 L592.57 123.23 L599.77 124.4 L614.48 117.02 L617.51 115.51 L626.22 114.56 L628.15 124.46 L625.38 137.99 L629.26 142.23 L633.72 143.41 L636.87 144.24 L645.22 151.13 L658.73 168.58 L663.73 173.7 L670.16 175.77 L677.6 176.31 L683.09 179.22 L683.66 188.46 L677.73 205.65 L669.41 215.15 L644.93 226.99 L632.16 233.16 L619.81 243.35 L611.86 257.36 L611.84 267.35 L611.83 275.09 L616.33 284.74 L622.41 290.74 L628.79 295.79 L634.29 302.69 L635.53 306.79 L636.24 315.98 L637.7 320.45 L640.62 323.73 L647.16 328.07 L649.82 332.9 L660.04 354.74 L678.74 372.3 L752.32 414.12 L752.56 414.39 L765.99 429.24 L772.33 429.59 L774.47 428.96 L778.95 427.64 L785.87 427.21 L790.48 429.65 L795.01 434.08 L803.12 444.83 L803.71 447.22 L803.92 449.66 L803.71 452.12 L797.98 478.69 L794.13 488.81 L788.11 496.92 L781.11 503.06 L779.93 506.2 L776.21 525.17 L774.06 529.56 L769.81 533.14 L747.75 535.32 L695.85 526.69 L675.86 539.68 L676.27 543.77 L676.85 549.46 L686.87 554 L719.81 557.4 L728.44 561.68 L735.28 569.28 L749.41 598.42 L751.83 603.39 L766.06 617.63 L772.79 621.08 L783.2 626.42 L803.12 632.45 L811.76 640.9 L823.93 665.69 L833.86 673.66 L845.83 677.14 L851.27 680.21 L855.82 685.83 L863.23 699.92 L867.87 704.37 L874.89 706.55 L885.85 704.26 L907.43 693.18 L918.23 693.96 L922.71 697.63 L930.15 707.73 L934.88 711.16 L941.12 712.24 L961.06 710.34 L966.15 711.46 L971.39 714.89 L975.26 720.18 L976.2 726.93 L973.36 732.14 L968.76 735 L965.07 738.38 L964.98 745.15 L967.15 749.46 L967.03 753.29 L964.88 756.29 L961.06 758.15 L960.95 758.17 L937.82 762.53 L927.8 768.74 L923.65 779.26 L927.99 792.1 L938.34 800.15 L961.06 810.32 L966.1 814.5 L968.44 820.43 L970.1 826.92 L973.17 832.93 L980.81 841 L994.29 850.5 L996.38 852.42 L998.5 854.86 L998.9 855.92 L1000 858.77 L997.23 860.14 L990.58 860.39 L975.94 870.86 L972.06 871.43 L952.87 861.65 L941.8 860.22 L934.52 867.05 L934.83 879.57 L942.91 887.63 L953.42 893.62 L961.06 899.79 L965.04 913.17 L966.8 924.71 L965.89 936.1 L961.74 949.01 L961.52 950.29 L961.06 951.45 L959.95 956.39 L959.41 961.41 L959.72 966.36 L961.06 971.1 L972.03 994.32 L966.35 992.73 L933.44 978.01 L929.14 977.06 L925.77 977.5 L918.12 979.99 L905.86 980.49 L901.68 981.43 L895.56 984.42 L879.15 996.35 L873.63 999.03 L852.59 1001.81 L834.18 966.59 L817.73 920.55 L811.33 907.66 L803.12 895.86 L796.45 884.83 L793.58 874.13 L795.5 863.76 L803.12 853.69 L805.26 850.94 L805.91 848 L805.2 844.93 L803.12 841.72 L796.68 835.55 L778.66 826.7 L774.06 824.43 L766.52 818.57 L760.51 812.03 L754.01 806.71 L736.09 802.09 L735.26 800.15 L733.45 795.93 L735.46 787.75 L746.08 770.2 L747.49 763.75 L744.63 745.06 L744.63 745.02 L745.66 734.61 L745.59 727.67 L742.75 722.51 L735.61 717.35 L726.89 713.98 L719.56 714.11 L717.8 714.54 L679.07 723.97 L670.62 727.48 L645.22 743.71 L641.86 745.15 L638.33 746.95 L634.74 747.67 L631.19 747.12 L627.79 745.13 L627.75 745.08 L617.77 734.87 L612.25 731.97 L597.3 730.57 L592.7 728.71 L589.52 724.1 L585.78 715.59 L577.93 704.5 L575.96 701.72 L567.5 704.58 L558.53 712.94 L546.89 715.72 L540.7 711.74 L539.46 705.76 L542.56 691 L543.09 681.42 L541.72 673.83 L538.47 666.98 L517.54 640.12 L515.18 637.08 L504.44 631.67 L492.59 635.75 L480.94 644.77 L479.08 645.81 L470.85 650.43 L460.08 653.02 L446.27 652.81 L431.62 655.48 L422.66 659.43 L417.78 651.09 L398.4 625.55 L396.59 622.37 L395.06 620.99 L393.56 620.65 L390.03 621.2 L388.43 620.99 L382.59 617.4 L371.16 604.16 L366.95 606.75 L365.78 604.37 L365.68 599.74 L364.7 595.72 L359.94 592.21 L357.26 589.47 L356.08 585.89 L354.62 579.64 L351.06 573.64 L342.95 564.55 L324.68 548.59 L298.34 533.12 L280.88 522.87 L269.32 519.27 L258.65 519.27 L239.62 524.47 L230.58 525.6 L224.12 527.52 L220.82 527.96 L218.14 527.07 L214.13 523.17 L211.03 522.34 L204.29 524.13 L193.3 531.86 L188.28 533.61 L150.28 527.13 L115.75 507.99 L86.83 499.73 L72.37 491.71 L68.29 479.8 L72.66 475.7 L86.96 472.58 L90.04 467.24 L88 462.59 L78.14 450.41 L74.78 443.12 L80.56 438.61 L80.24 437.86 L75.7 427.3 L61.64 408.94 L53.11 400.87 L49.88 394.38 L52.03 387.59 L54.72 382.97 L59.43 367.15 L59.7 366.23 L59.7 363.4 L46.92 352.44 L40.21 344.92 L38.91 339.44 L49.71 326.52 L56.53 321.78 L64.01 320.88 L63.16 317.89 L62.64 316.65 L61.64 314.95 L63.57 315.66 L64.97 315.98 L66.38 316.54 L68.29 318.04 L67.96 308.08 L72.17 299.49 L85.55 283.73 L83.14 274.31 L85.06 271.73 L91.62 259.99 L92.55 256.61 L90.91 227.76 L89.8 220.86 L86.86 213.04 L73.74 191.97 L70.51 183.69 L68.81 174.19 L68.11 165.82 L66.75 157.83 L63.13 149.62 L53.24 137.15 L40.79 126.78 L27.19 119.94 L13.68 118 L7.64 112.24 L2.61 100.28 L0 86.96 L1.31 77.18 L4.47 77.98 L7.59 78.04 L10.69 77.35 L27.75 70.37 L41.16 69.85 L92.67 77.13 L100.39 76.48 L106.57 73.86 L121.3 60.86 L134.84 55.2 L164.09 54.57 L171.01 52.87 L171.14 52.84 L178.38 51.06 L191.08 45.32 L197.38 44.64 L210.77 48.42 L217.42 47.2 L223.63 43.84 L228.59 38.87 L230.2 34.78 L230.42 31.22 L231.23 28.09 L234.98 25.42 L238.35 25.38 L246.92 28.94 L262.19 39.59 L268.03 41.82 L275.46 40.59 L278.38 38.59 L280.65 35.97 L283.23 33.65 L286.97 32.43 L290.87 32.89 L307.71 43.15 L314.61 45.68 L321.71 46.18 L329.38 43.95 L335.75 36.81 L337.81 35.23 L341.2 35.12 L342.86 38.29 L344.01 42.58 L345.74 45.77 L352.22 47.64 L356.87 43.47 L360.72 36.81 L364.8 31.37 L371.59 28.29 L377.99 29.16 L391.19 34.43 L437.49 35.38 L445.78 34.25 L448.92 29.87 L447.69 28.12 L445.55 25.08 L433.71 19.35 L431.09 13.42 L437.23 7.19 L467.72 12.05 L479.7 11.66 L483.55 9.01 L490.7 2.52 Z M487.37 87.46 L482.47 90.93 L481.44 96.73 L483.42 103.05 L487.37 108.15 L498.82 112.09 L503.33 102.44 L499.82 90.45 Z M560.16 135.21 L563.49 130.58 L554.45 122.73 L553.14 122.49 L551.9 122.69 L550.79 123.32 L549.81 124.4 L552.85 134.02 Z M656.09 287.88 L645.22 284.61 L643.33 280.61 L642.71 276.27 L643.36 271.93 L645.22 267.8 L649.17 264.94 L653.53 263.64 L658.15 263.56 L662.72 264.18 L670.94 268.87 L666.67 279.73 Z "/>
</g>
</svg>
