<svg xmlns="http://www.w3.org/2000/svg" viewBox="0 0 1000 512.67">
<g fill="#ccc" stroke="#333" stroke-width="0.5" stroke-linejoin="round">
<path fill-rule="evenodd" d="M973.35 80.75 L974.57 90.02 L973.87 92.5 L973.59 93.52 L971.44 95.8 L969.27 97.55 L968.29 99.42 L967.6 102.05 L964.17 107.01 L962.84 109.67 L962.3 112.5 L961.14 123.04 L960.8 124.29 L960.47 124.87 L960.24 125.77 L960.16 127.94 L960.57 129.12 L961.58 129.74 L964.23 130.02 L964.97 130.46 L966.35 131.6 L967.7 133.11 L968.29 134.67 L967.99 135.55 L967.48 136.69 L967.23 137.69 L967.8 138.09 L968.16 138.51 L968.6 139.5 L969.02 140.63 L969.19 141.53 L969.62 142.69 L970.62 143.33 L971.81 143.88 L973.26 145.21 L974.08 145.49 L974.57 146.17 L974.69 147.02 L974.51 149.28 L974.57 150.22 L976.61 157.29 L977.24 160.85 L977.25 165.11 L978.18 168.17 L981.49 171.81 L983.29 172.92 L985.39 173.24 L986.77 174.13 L988.74 177.72 L989.36 178.85 L991.07 180.69 L989.73 182.34 L989.05 184.33 L988.31 187.98 L988.82 188.31 L990.39 189.62 L989.69 192.84 L992.7 194.49 L996.94 196 L1000 198.76 L991.77 205.68 L993.16 207.28 L993.1 208.5 L992.47 209.72 L992.1 211.4 L991.84 211.73 L990.62 212.57 L990.27 213.12 L990.41 213.97 L991.06 214.37 L991.75 214.59 L992.02 214.98 L991.48 218.46 L990.72 221.02 L989.42 223 L987.26 224.7 L982.72 225.72 L981.08 226.58 L981.12 228.71 L981.95 229.59 L984.7 230.87 L985.73 231.65 L986.99 235.29 L987.85 236.53 L985.88 238.72 L986.06 242.08 L986.94 246.03 L987.18 252.4 L987.83 254.37 L988.94 255.85 L990.43 256.79 L987.74 258.05 L978.18 259.33 L967.79 261.94 L962.82 261.03 L960.91 255.92 L959.17 257.4 L956.6 261.51 L955.15 262.94 L954 263.22 L946.61 262.05 L945.2 261.19 L943.74 259.66 L942.74 257.65 L942.25 255.59 L941.54 253.84 L939.89 252.68 L929.39 248.57 L923.89 247.88 L919.08 250.06 L918.29 251.95 L918.52 254.52 L917.8 256.19 L916.69 257.27 L911.46 260.04 L909.9 261.45 L909.03 261.99 L908.43 261.87 L907.77 261.26 L907.02 260.3 L906.05 261.27 L904.06 264.51 L902.91 265.97 L905.28 267.34 L912.63 270.33 L916.26 269.51 L924.89 273.05 L929.21 272.31 L932.07 273.62 L934.36 276.71 L935.47 280.64 L934.74 284.4 L936.96 285.66 L938.78 287.51 L939.79 289.95 L939.65 292.94 L938.25 295.41 L934.43 297.03 L932.94 298.65 L933.47 306.46 L931.64 307.89 L926.72 311.75 L912.63 318.21 L911.05 315.65 L909.31 314.42 L907.67 314.87 L906.34 317.33 L906.66 324.75 L906.38 325.32 L905.73 325.66 L905.16 326.18 L905.08 327.33 L905.44 328.07 L906.04 328.39 L906.62 328.61 L906.98 329 L910.96 337.38 L911.49 340.55 L910.62 343.14 L908.76 344.84 L904.69 347.06 L904.69 347.08 L905.12 350.44 L903.1 354.67 L903.56 357.86 L904.35 358.54 L905.39 358.45 L906.49 358.55 L907.37 359.8 L907.41 361.49 L906.34 364.78 L906.3 365.85 L908.06 367.01 L912.49 364.88 L914.64 365.09 L916.24 367.43 L915.62 369.69 L912.63 373.65 L909.86 375.37 L909.01 378.19 L909.98 380.73 L912.63 381.61 L914.17 382.4 L914.63 383.4 L914.1 384.45 L912.63 385.4 L906.76 387.79 L905.12 389.27 L908.87 389.74 L910.74 390.36 L912.63 392.1 L913.21 394.18 L910.73 394.78 L907.31 394.82 L905.13 395.23 L905.13 395.25 L904.56 395.78 L903.93 395.94 L903.25 395.75 L902.54 395.22 L900.28 393.51 L897.5 393.17 L892.16 393.82 L887.27 392.83 L885.48 393.07 L884.24 395.2 L883.67 398.12 L882.61 398.99 L881.31 399.28 L879.98 400.42 L879.64 401.6 L879.75 402.66 L879.68 403.83 L878.8 405.23 L877.9 405.93 L875.16 407.1 L871.82 409.55 L870.31 411.13 L865.55 417.64 L863.87 419.27 L861.77 420.25 L856.38 423.46 L853.64 425.09 L853.17 425.2 L847.81 426.53 L847.04 426.98 L845.77 428.33 L845.89 428.75 L846.47 429.18 L846.58 430.53 L845.67 436.48 L845.64 437.06 L845.47 439.84 L845.58 443.19 L847.08 447.87 L849.87 449.66 L851.35 452.62 L851.63 457.02 L851.62 457.01 L849.17 453.92 L847.73 452.91 L842.41 451.96 L833.52 447.46 L829.87 446.73 L826.23 447.05 L821.2 449.08 L817.34 450.65 L813.87 450.84 L803.83 449.35 L801.71 448.06 L801.31 450.94 L801.32 453.4 L800.54 455.07 L799.85 455.59 L799.18 456.09 L797.49 456.57 L795.51 456.01 L792.72 456.05 L789.91 456.79 L787.91 458.33 L786.62 461.05 L786.55 461.41 L786.2 463.22 L785.71 464.3 L785.36 465.1 L782.92 467.02 L778.99 467.72 L776.02 465.86 L775.41 465.33 L773.08 463.27 L769.22 461.82 L761.96 462.2 L745.19 463.08 L740.96 462.62 L732.18 461.67 L729.57 461.39 L726.45 461.06 L718.91 463.48 L714.03 470.47 L711.51 466.84 L709.62 466.48 L707.78 467.65 L704.92 469.46 L704.44 469.52 L702.21 469.82 L700.37 469.59 L698.72 470.3 L696.52 473.49 L695.03 476.71 L694.01 479.8 L693.05 482.72 L691.67 485.88 L690.61 488.31 L689.88 488.96 L686.98 490.29 L683.62 490.85 L682.46 490.02 L680.27 491.01 L679.49 491.91 L678.84 493.21 L677.31 495.06 L676.37 497.41 L675.4 497.24 L674.62 497.1 L674.03 497.25 L671.4 500.01 L670.04 500.89 L668.72 501.29 L665.87 501.54 L664.6 502.06 L662.66 504.86 L661.56 508.54 L660.92 510.18 L660.34 511.66 L658.06 512.67 L656.33 510.85 L654.85 507.59 L653.06 505.12 L648.54 506.2 L646.34 505.86 L644.54 505.02 L642.29 503.98 L641.56 503.09 L641.14 502.02 L640.52 501.13 L639.12 500.81 L634.7 501.79 L618.99 501.34 L606.87 500.99 L606.62 500.92 L605.22 500.54 L597.85 494.16 L595.92 493.19 L593.78 492.55 L591.48 492.49 L589.18 492.91 L587.06 493.29 L584.9 493.02 L572.91 487.34 L568.96 486.68 L560.45 488.08 L558.66 488.1 L550 485.99 L548.01 485.82 L545.97 486.22 L543.99 486.02 L528.12 480.85 L522.55 480.64 L521.55 479.93 L519.69 477.82 L518.78 477.47 L510.79 478.05 L505.06 477.04 L491.7 479.9 L486.41 479.64 L483.65 478.53 L475.31 473.39 L464.57 470.89 L433.88 468.68 L426.42 463.8 L423.14 462.69 L422.01 462.31 L420.98 462.45 L418.88 463.27 L417.64 463.31 L416.44 462.78 L414.05 460.97 L413.02 460.5 L412.79 460.39 L406.31 459.73 L398.69 460.74 L396.76 460.55 L394.59 459.51 L390.54 456.74 L386.57 456.04 L383.43 455.49 L378.1 453.3 L373.56 449.28 L371.08 443.15 L369.93 438.96 L367.75 437.55 L365.03 437.17 L362.29 436.11 L361.03 435.22 L360.28 434.47 L359.97 433.17 L360 430.7 L360.35 428.48 L360.84 427.16 L361.2 425.77 L361.16 423.41 L359.96 419.22 L357.88 417.79 L352.37 417.6 L350.58 416.93 L349.78 416 L349.06 414.79 L347.57 413.27 L346.11 412.53 L343.02 411.97 L341.64 411.41 L343.56 409.49 L343.58 407.74 L342.67 405.92 L341.81 403.78 L341.01 399.35 L340.45 397.16 L339.58 395.25 L340.96 391.88 L348.9 387.44 L351.69 383.65 L351.73 381.01 L351.77 378.57 L348.68 377.51 L342.46 378.74 L340.24 379.18 L326.96 386.12 L317.61 386.56 L311.83 388.57 L306.26 391.59 L301.73 395.2 L295.78 396.15 L294.33 397.09 L291.76 399.2 L290.24 399.55 L287.79 398.62 L283.55 395.46 L281.05 395.2 L280.06 395.34 L279.07 395.25 L278.91 395.2 L278.84 395.2 L272.1 393.82 L268.98 394.11 L265.17 395.23 L265.16 395.23 L265.13 395.25 L265.12 395.25 L263.88 395.92 L262.65 396.14 L261.46 395.93 L260.36 395.25 L259.67 394.32 L258.91 393.6 L258.06 393.09 L255.75 392.54 L254.44 392.85 L253.27 393.74 L252.27 395.23 L252.26 395.25 L247.8 399.58 L243.79 399.37 L239.71 397.38 L235.04 396.35 L225.85 397.89 L216.77 400.85 L214.42 402.26 L205.94 410.72 L204.86 413.08 L203.48 419.83 L201.01 425.74 L200.9 426.47 L201.05 428.46 L200.82 429.42 L200.25 430.04 L198.8 430.7 L198.26 431.21 L195.32 436.26 L193.49 438.2 L191.62 438.46 L189.4 437.71 L184.83 437.26 L182.58 437.58 L178.2 439.06 L176.9 439.16 L175.56 438.6 L173.33 436.68 L172.15 436.06 L170.81 436.04 L168.31 436.76 L167.02 436.71 L163.26 434.56 L161.74 434.05 L158.98 434.93 L157.57 434.88 L156.78 433.2 L157.39 432.25 L160.3 429.88 L160.94 428.56 L159.67 426.62 L149.64 420.6 L147.62 420.06 L145.3 420.32 L131.97 424 L126.54 423.4 L122.28 419.93 L121.97 415.84 L123.59 409.32 L122.89 406.08 L121.72 404.68 L117.27 401.13 L114.53 396.71 L113.17 395.25 L113.17 395.22 L113.16 395.22 L112.47 394.77 L111.74 394.62 L111.02 394.77 L107.21 396.96 L103.91 400.76 L101.62 405.17 L101.55 408.76 L98.28 408.91 L95.73 408.24 L93.61 408.64 L91.62 412 L90.99 414.43 L90.88 416.05 L90.53 417.52 L89.19 419.47 L83.47 422.39 L80.08 423.36 L79.19 423.32 L77.37 423.25 L71.71 421.43 L68.76 419.72 L63.69 414.88 L49.66 410.35 L46.41 407.85 L44.74 405.48 L44.53 403.68 L44.95 401.61 L45.27 397.1 L45.81 395.26 L45.81 394.13 L45.31 393.53 L44.5 393.6 L43.94 393.12 L44.16 390.93 L19.39 383.09 L17.2 382.76 L10.33 383.62 L7.87 382.97 L11.49 378.36 L12.4 373.36 L11.07 368.45 L7.95 364.08 L4.05 361.77 L4.04 360.1 L5.34 357.2 L5.47 355.82 L4.35 353.14 L3.1 351.46 L2.52 349.76 L3.4 347.08 L1.19 345.02 L0 343.26 L4.21 336.1 L8.69 330.69 L9.19 329.36 L9.86 325.95 L10.47 324.22 L15.56 317.78 L16.83 314.83 L16.94 306.62 L13.18 303.3 L8.31 301.07 L4.43 295.21 L4.18 294.05 L3.45 290.62 L3.77 290.82 L4.33 290.97 L11.99 293.08 L20.39 292.94 L23.97 291.23 L25.87 288.26 L27.49 284.73 L30.35 281.39 L32.25 280.38 L34.22 280.16 L36.07 280.83 L37.6 282.51 L38.04 284.81 L37.78 287.17 L38.28 289.22 L40.95 290.61 L42.01 290.53 L43.62 289.48 L44.28 289.3 L48.23 290.77 L52.13 291.08 L54.11 290.69 L55.69 289.41 L56.06 292.62 L57.43 294.44 L59.07 296.09 L60.26 298.7 L60.26 299.28 L60.3 299.88 L60.5 301.01 L61.94 301.87 L63.09 301.37 L64.26 300.35 L65.75 299.67 L72.2 309.14 L73.35 311.41 L72.74 313.45 L69.76 315.78 L71.19 317.46 L71.55 319.47 L71.67 321.55 L72.37 323.4 L73.65 324.64 L74.53 324.6 L75.53 323.86 L77.25 323.03 L77.9 323.12 L79.26 323.94 L79.93 323.95 L80.49 323.52 L82.05 321.79 L87.81 320.74 L90.22 322.05 L90.13 325.53 L87.75 332.69 L88.05 333.96 L88.12 335.12 L87.79 336.41 L87.16 337.04 L85.42 337.56 L84.89 337.92 L83.69 340.1 L83.16 341.31 L83.74 341.65 L85.72 341.41 L94.16 340.37 L97.02 339.26 L102.89 335.65 L105.45 333.3 L107.81 330.12 L110.72 324.25 L111.51 323.03 L112.86 322.12 L115.63 321.15 L116.75 320.39 L118.93 317.48 L120.84 313.56 L122.04 309.21 L122.01 305.05 L121.47 302.65 L120.76 300.94 L119.64 299.69 L117.8 298.68 L119.12 290.94 L119.29 289.14 L118.42 286.97 L117.28 284.83 L117.09 283.15 L119.06 282.37 L121.25 281.97 L122.25 281.58 L122.71 281.94 L123.3 283.75 L123.13 284.51 L122.5 285.45 L122.01 286.68 L122.24 288.35 L122.93 289.24 L124 290.01 L126.05 290.95 L131.63 291.8 L133.18 291.53 L134.84 290.19 L137.5 286.47 L139.31 285.2 L142.48 285.24 L159.79 291.8 L160.32 292.41 L160.75 293.42 L161.4 294.34 L162.53 294.68 L166.4 294.21 L171.69 291.78 L173.54 291.25 L175.36 291.38 L176.75 292.17 L179.76 294.44 L178.66 295.77 L174.44 298.67 L175.33 300.21 L182.08 303.34 L188.62 310.42 L189.02 311.3 L189.06 312.6 L188.76 313.94 L188.34 314.83 L188.03 314.85 L189.37 317.48 L191.2 318.55 L204.87 318.75 L207.43 317.96 L216 312.02 L219.3 311.11 L222.11 312.26 L221.82 317.53 L224.97 317.89 L227.83 316.58 L229.7 314.56 L231.43 312.22 L233.96 309.86 L236.4 309.08 L242.09 308.94 L244.22 308.02 L245.35 306.1 L244.85 304.66 L243.42 303.72 L241.81 303.28 L247.99 296.15 L250.97 295.44 L254.2 295.89 L257.16 296.83 L263.32 295.8 L266.16 294.67 L268.55 292.01 L269.21 290.22 L270.24 285.72 L271.13 283.66 L274.79 280.48 L275.24 279.91 L277.67 279.99 L283.38 281.14 L294.06 281.19 L301.45 282.71 L302.8 282.26 L304.12 278.95 L305.59 278.07 L316.6 275.82 L346.72 277.13 L347.76 276.92 L351.5 272.1 L351.98 270.86 L352.11 269.04 L351.9 263.84 L351.53 262.77 L350.87 262.32 L349.8 261.25 L348.83 259.97 L348.41 258.9 L348.16 257.31 L350.23 256.46 L353.39 253.82 L354.52 253.11 L356.43 252.27 L356.76 252.2 L356.35 253.09 L356.01 255.17 L355.55 256.71 L354.71 257.88 L354.28 259.24 L355 261.39 L356.3 262.55 L357.72 262.33 L360.65 260.8 L363.51 260.39 L371.08 262.01 L373.31 261.64 L378.45 259.66 L380.61 260.08 L381.22 261.21 L382.59 265.36 L383.31 266.95 L384.36 268.22 L388.27 271.37 L390.11 272.28 L392.8 272.35 L395.57 271.81 L397.62 270.9 L398.87 269.78 L403.46 265.67 L405.95 264.41 L410.62 263.29 L415.3 263.29 L422.66 265.19 L424.91 264.89 L423.55 268.29 L425.61 270.83 L429.01 273.08 L431.61 275.6 L428.04 277.38 L426.44 281.89 L427.13 286.68 L430.37 289.3 L432.39 289.65 L433.62 290.1 L434.73 290.99 L440.72 297.61 L447.14 302.47 L448.58 303.05 L449.69 302.67 L450.77 302.08 L452.14 302.04 L453.4 302.71 L454.13 303.49 L454.95 303.99 L456.36 303.92 L457.26 303.13 L461 298.68 L460.96 297.06 L460.63 295.89 L460.21 294.89 L459.91 293.83 L459.8 292.62 L459.8 289.24 L460.12 288.74 L461.37 285.59 L461.52 285.31 L461.24 285.42 L461.13 281.01 L461.48 281.14 L463.59 278.36 L463.67 277.82 L465.23 273.97 L465.56 273.54 L465.84 271.19 L465.92 268.83 L465.56 266.33 L464.51 263.51 L461.95 259.11 L460.34 257.15 L458.71 255.92 L456.68 255.59 L453.36 257.06 L451.4 257.4 L444.09 256.03 L441.95 253.85 L444.39 250.07 L444.42 250.04 L445.26 248.66 L445.49 247.37 L445.53 246.12 L445.79 244.88 L446.51 243.35 L454.96 229.74 L454.35 229.13 L451.52 224.89 L447.07 214.54 L444.87 212.36 L443.81 211.79 L441.17 209.06 L438.02 207.16 L436.97 205.61 L436.26 203.56 L436.21 203.28 L435.87 201.17 L433.9 196.8 L424.68 187.11 L423.46 185.17 L422.29 182.81 L421.63 180.22 L421.88 177.58 L422.68 176.16 L423.52 175.88 L424.38 175.92 L425.18 175.55 L427.05 172.61 L427.58 171.96 L432.79 168.3 L434.5 166.33 L436.9 162.54 L438.09 161.22 L440.07 160.16 L447.33 158.74 L447.16 158.28 L449.19 156.63 L453.42 154.26 L458.29 149.56 L460.41 148.05 L474 142.64 L492.06 139.47 L496.47 137 L509.29 125.77 L511.11 122.69 L511.86 118.5 L512.12 117.48 L512.71 116.46 L513.3 115.1 L513.57 113.05 L513.32 107.46 L513.57 105.62 L514.19 103.81 L515.95 100.06 L516.32 98.13 L516.03 96.4 L514.81 94.49 L514.29 90.92 L513.89 90.03 L513.81 89.31 L514.53 87.93 L515.71 86.84 L519.99 85.22 L524.38 84.63 L537.97 88.44 L540.26 89.68 L542.39 91.26 L544.4 94.35 L549.77 96.78 L550.05 97.09 L551.22 91.8 L552.33 89.54 L552.78 89.65 L555.5 89.21 L556.54 88.76 L557.63 87.68 L558.25 86.74 L560.5 81.85 L561.31 79.25 L561.72 76.39 L561.81 73.06 L561.12 66.65 L561.46 64.28 L563.21 62.61 L561.57 61.81 L560.92 61.21 L559.52 58.45 L558.85 58.69 L559.14 56.8 L563.06 48.52 L568.33 49.94 L570.83 51.31 L573.21 53.18 L576.08 55.57 L584.9 60.44 L586.06 61.69 L588.24 65.05 L589.08 66.68 L589.74 67.31 L590.65 67.67 L591.44 68.23 L591.77 69.44 L591.53 70.68 L590.93 70.86 L590.3 70.74 L589.9 71.03 L589.02 72.89 L588.28 73.16 L588.03 73.74 L588.64 76.44 L589.21 77.53 L591.48 80.36 L592.57 81.34 L597.03 83.22 L615.61 85.31 L628.62 89.91 L629.88 89.77 L630.91 89.36 L633.55 87.24 L640.37 84.29 L642.44 82.16 L645.38 74.33 L647.29 73.01 L650.44 76.72 L655.67 79.47 L657.21 79.85 L659.18 79.4 L663.11 77.51 L665.12 77.34 L665.96 78.09 L666.13 79.35 L666.14 80.68 L666.56 81.51 L667.58 81.62 L669.58 80.92 L670.44 81.11 L671.85 82.98 L672.62 84.84 L673.65 86.14 L675.8 86.28 L677.84 84.24 L678.43 83.65 L679.09 78.49 L679.03 72.43 L679.5 67.07 L681.98 63.04 L688.88 56.96 L689.54 53.16 L690.86 50.82 L691.39 48.41 L692.16 46.52 L694.14 45.76 L700.98 46.7 L707.75 49.49 L710.41 49.24 L711.91 45.76 L711.63 45.4 L711.05 44.11 L710.48 42.54 L710.22 41.28 L710.44 39.89 L711.39 37.38 L714.16 24.9 L714.18 19.39 L713.64 13.28 L713.69 7.6 L715.48 3.39 L715.36 2.3 L715.36 1.37 L715.56 0.7 L715.98 0.37 L718.85 0 L726.14 2.51 L736.35 3.35 L737.31 6.16 L737.86 8.88 L737.81 11.59 L736.94 14.44 L739.54 14.49 L749.54 11.79 L750.22 11.36 L752.04 9.17 L752.47 8.12 L752.8 5.43 L753.32 4.62 L754.33 4.61 L754.99 5.43 L755.53 6.42 L756.18 6.88 L762.32 6.95 L765.25 7.79 L771.55 11 L777.38 12.98 L780.2 14.59 L786.67 20.22 L789.68 21.4 L797.49 24.44 L807.66 30.2 L810.6 30.9 L813.63 30.9 L815.83 30.2 L820.5 27.73 L821.63 27.45 L825.64 27.44 L826.4 28.01 L826.93 30.47 L827.58 31.49 L828.48 31.87 L830.98 32.05 L832.42 33.1 L833.4 33.54 L834.49 33.47 L833.15 35.25 L834.8 34.86 L836.28 34.92 L837.26 35.82 L837.39 37.92 L839.62 37.34 L840.31 38.2 L840.31 39.58 L840.5 40.56 L853.68 50.19 L860.63 53.21 L872.75 52.48 L891.08 55.2 L891.23 55.07 L893.95 54.66 L895.69 56.07 L896.42 56.31 L898.48 55.7 L899.92 54.36 L906.57 42.93 L908.85 41.41 L912.63 41.96 L913.98 41.9 L916.35 40.89 L917.56 40.73 L918.76 41.14 L921 42.58 L928.83 44.86 L931.26 45.15 L933.76 46.17 L934.79 48.56 L935.28 51.42 L936.23 53.77 L937.95 54.99 L940.04 55.36 L945.03 55.15 L947.03 55.84 L951.77 58.99 L954.19 59.89 L956.71 59.59 L961.75 57.79 L963.9 57.95 L967 62.33 L968.82 75.47 Z "/>
</g>
</svg>
