<svg xmlns="http://www.w3.org/2000/svg" viewBox="0 0 1000 782.28">
<g fill="#ccc" stroke="#333" stroke-width="0.5" stroke-linejoin="round">
<path fill-rule="evenodd" d="M35.02 184.44 L41.76 186.05 L43.66 192.54 L41.22 197.76 L35.02 195.63 L32.88 192.87 L31.81 189.45 L32.37 186.31 Z M38.94 137.11 L55.25 123.57 L81.19 102.03 L86.68 100.1 L92.27 100.4 L95.46 102.06 L103.69 106.34 L106.34 106.87 L109.79 106.56 L115.44 104.83 L117.97 105.29 L120.44 108.14 L126 113.4 L150.57 123.02 L161.7 125.29 L165.69 126.89 L165.91 128.3 L163.47 129.64 L159.55 131.04 L155.75 135.79 L159.83 142.28 L166.89 148.35 L170.18 150.37 L178.8 155.67 L204.16 164.87 L212.41 165.89 L216.55 165.51 L219.92 164.27 L224.41 161.38 L228.77 158.57 L232.58 157.68 L245.43 157.63 L248.5 158.71 L251.2 161.36 L256.17 167.59 L266.23 176.76 L269.78 178.88 L279.96 182.21 L282.76 184.68 L287.54 191.15 L290.6 193.03 L294.34 192.87 L295.84 190.5 L296.79 186.94 L298.72 183.31 L302.33 181.04 L305.68 181.36 L308.93 182.26 L312.28 181.72 L314.63 178.4 L315.59 177.05 L317.02 169.76 L317.92 161.97 L319.58 155.85 L320.59 154.44 L322.85 152.32 L323.85 150.88 L324.22 149.38 L324.4 145.4 L324.74 143.65 L326.24 141.88 L327.65 142.09 L328.18 141.81 L327.1 138.49 L321.73 130.24 L318.43 126.52 L317.28 124.57 L317.08 124.43 L315.89 123.64 L313.24 124.69 L310.53 118.33 L302.14 113.31 L285.51 106.25 L277.5 98.78 L274.02 97.92 L272.03 96.99 L263.09 90.79 L260.15 87 L258.63 82.03 L257.27 73.12 L257.01 71.47 L253.22 64.17 L252.83 62.89 L250.46 62.99 L249.33 64.71 L248.48 66.82 L246.98 68.06 L242.38 64.2 L240.2 53.92 L240.12 42.31 L241.73 34.47 L245.04 30.94 L248.77 30.53 L256.77 32.36 L260.33 32.02 L263.05 30.68 L265.55 28.45 L272.89 19.44 L276.56 13.48 L283.08 0 L286.74 0.98 L291.35 0.79 L299.25 1.87 L302.33 3.71 L303.28 8.05 L302.46 17.36 L303.41 21.26 L306.44 23.8 L309.69 23.78 L312.65 21.85 L318.22 16.96 L321.73 15.71 L328.64 14.28 L330.7 12.71 L331.73 11.92 L334.61 8.96 L336.04 9 L336.76 11.55 L338.3 20.55 L339.22 23.66 L340.88 26.31 L352.11 36.73 L355.03 38.54 L357.18 39.15 L361.64 39.74 L363.63 40.74 L364.43 42.07 L365.34 46.26 L365.98 48.02 L368.29 51.16 L376.79 58.41 L381.01 65.29 L382.5 72.13 L384.96 76.37 L385.17 76.34 L392.16 75.37 L395.43 74.08 L398.71 73.4 L401.8 74.23 L404.5 77.4 L405.76 81.36 L406.36 85.23 L407.57 88.56 L410.59 90.85 L410.98 91.25 L412.31 92.64 L413.12 94.68 L413.69 96.9 L414.61 99.21 L419.9 105.89 L421.2 108.59 L421.83 114.16 L421.51 126.08 L423.21 131.29 L426.21 134.3 L439.21 142.16 L443.11 143.62 L444.53 144.16 L462.23 145.86 L465.96 147.14 L470.78 153.9 L473.88 156.38 L477.38 156.42 L483.43 152.38 L486.73 151.06 L490.16 151.47 L499.1 156.05 L504.17 158.64 L507.45 159.33 L519.37 158.26 L521.98 158.03 L529.22 155.81 L533.24 153.28 L533.96 151.06 L533.1 148.15 L532.32 143.48 L532.81 138.74 L534.4 136.53 L536.68 134.88 L539.19 131.85 L540.64 127.71 L541.45 124.15 L543.25 122.24 L547.69 123.01 L551.53 120.81 L557.15 104.5 L560.39 98.2 L566.04 94.69 L585.74 90.85 L590.78 88.12 L599.73 80.34 L614.51 71.06 L618.42 66.78 L621.87 60.22 L629.08 40.36 L630.24 38.85 L641.94 23.64 L650.19 10.36 L651.97 11.95 L657.23 15.15 L663.27 20.61 L678.34 41.61 L684.18 47.55 L686.58 51.11 L687.56 56.67 L699.23 69.87 L705.76 84.03 L709.22 85.3 L712.1 88.31 L714.27 91.86 L715.69 94.81 L719.65 100.66 L720.35 102.02 L721.21 102.96 L725.44 104.25 L726.87 105.05 L729.41 108.89 L735.59 121.84 L740.76 132.71 L743.24 136.37 L745.38 140.63 L746.41 145.59 L748.52 165.28 L749.61 169.45 L751.49 171.2 L752.65 173.82 L755.56 190.05 L763.71 203.65 L784.21 226.96 L785.91 229.54 L787.44 233.19 L791.06 236.34 L798.84 241.18 L802.65 240.17 L805.88 243.02 L808.94 246.84 L812.36 248.74 L814.24 250.94 L813.48 255.88 L810.5 264.29 L809.48 268.66 L809.23 271.02 L809.44 273.53 L810.15 274.96 L812.45 277.83 L812.95 278.98 L813.06 279.18 L814.25 281.17 L817.29 284.06 L820.62 286.59 L822.92 287.66 L830.35 288.11 L833.68 289.01 L836.4 290.58 L842.49 296.02 L845.85 297.66 L854.42 298.82 L861.74 301.12 L865.77 301.48 L868.9 300.84 L878.4 296.87 L882.49 296.15 L901.95 296.87 L903.38 298.3 L904.13 299.87 L904.69 301.5 L905.45 303.02 L908.5 306.78 L911.75 309.74 L915.21 311.68 L930.67 315.01 L933.66 316.69 L935.53 320.05 L937.62 325.25 L940.21 330.07 L943.59 332.17 L947.3 333.52 L950.47 336.95 L952.98 341.45 L954.67 346.1 L956.43 364.6 L957.61 366.45 L959.03 370.64 L959.9 375.27 L959.35 378.37 L956.06 371.98 L952.52 366.45 L948.27 361.48 L939.83 354.58 L936.23 352.57 L932.36 351.12 L924.73 350.07 L918.3 347.95 L914.88 347.49 L912.96 347.71 L910.64 348.73 L909.05 349.16 L902.49 349.16 L899.48 350.45 L893.7 355.28 L890.28 355.28 L889.05 354.2 L886.86 350.67 L885.51 349.16 L883.71 348.44 L879.32 347.68 L874.84 345.23 L871.45 347.13 L865.77 352.23 L866.94 357.54 L862.13 362.49 L855.17 366.13 L843.82 368.7 L833.86 374.5 L820.79 379.36 L817.73 381.6 L811.17 388.87 L808.22 390.94 L806.33 393.39 L805.96 398.22 L806.9 404.3 L807.02 406.68 L797.8 410.28 L796.09 413.73 L796.51 418.24 L798.84 422.76 L800.37 424.43 L802.81 426.34 L804.14 428.02 L804.85 430.31 L803.89 431.73 L802.18 432.84 L799.18 435.63 L797.84 436.29 L796.56 437.23 L795.34 439.51 L794.56 442.17 L794.46 444.18 L795.34 448.65 L797.3 453.42 L797.88 456.02 L797.09 458.6 L795.59 460.26 L794.28 461.34 L793.34 462.61 L793 464.74 L793.31 465.98 L793.88 467.16 L794.34 468.49 L794.17 470.06 L793.45 471.04 L790.67 473.1 L789.62 476.24 L789.69 477.64 L790.67 479.18 L789.89 482.09 L790.86 485.13 L794.75 490.55 L794.55 492.45 L792.2 494.27 L787.77 496.76 L783.46 502 L779.79 506.47 L776.51 512.02 L776.67 515.84 L774.69 519.52 L772.93 524.4 L771.58 529.54 L770.85 534.01 L771 540 L772.7 544.09 L788.61 558.68 L790.67 561.21 L792.04 564.07 L791.89 565.04 L791.12 565.82 L790.05 573.19 L790.29 575.4 L791.72 577.94 L789.62 576.83 L788.05 575.45 L786.87 573.78 L785.91 571.9 L784.85 571.9 L785.49 575.18 L786.94 578.79 L789.04 581.96 L791.72 583.84 L791.72 585.49 L787.87 584.56 L785.45 581.87 L783.28 578.72 L774.52 572.89 L768.83 575.09 L764.42 580.81 L762.67 587.81 L762.79 611.96 L762.2 614.86 L761.4 618.76 L759 625.88 L758.18 629.31 L757.68 637.09 L756.9 641.78 L755.28 645.69 L742.46 654.71 L735.7 657.35 L730.96 653.45 L731.5 650.88 L731.44 649.11 L731.69 647.63 L733.29 645.96 L740.97 644.45 L743.6 643.09 L745.85 639.73 L747.24 635.33 L747.4 630.92 L745.46 626.77 L742.04 625.01 L733.88 624.77 L733.88 622.8 L732.88 613.76 L732.22 611.24 L729.19 608.68 L725.95 607.84 L718.65 608.09 L716.62 608.8 L715.62 610.56 L714.95 612.81 L713.53 615.98 L713.39 617.1 L713.45 619.49 L713.09 621.22 L712.26 621.68 L711.43 621.67 L711.01 621.9 L710.69 632.18 L711.28 637.59 L714.06 642.32 L713.36 647.69 L708.77 663.47 L708.18 664.9 L704.84 672.78 L704.42 673.29 L699.58 679.2 L693.4 677.59 L693.53 685.39 L693.91 688.97 L694.67 692.43 L698.76 702.7 L699.68 736.46 L700.66 773.21 L700.66 773.25 L689.63 770.94 L684.16 770.9 L680.34 772.99 L676.97 776.41 L672.64 779.13 L668.01 781.11 L663.89 782.28 L656 781.63 L655.13 781.55 L649.68 776.23 L645.01 768.4 L642.79 765.59 L638.55 760.21 L636 756.6 L633.12 753.45 L630.32 749.04 L627.58 746.53 L625.37 743.57 L624.18 737.78 L622.22 733.04 L618.2 733.04 L609.53 737.09 L604.28 736.97 L601.19 734.04 L598.5 730.05 L590.22 723.4 L589.9 719.7 L590.61 715.42 L589.81 712.23 L589.35 710.42 L587.2 708.6 L564.57 697.38 L553.46 688.47 L550.07 682.22 L549.66 673.19 L551.25 670.69 L560.21 665.13 L560.7 663.71 L560.67 662.05 L561.25 660.63 L592.81 655.03 L599.85 650.65 L599.86 650.6 L599.89 650.6 L601.44 648.27 L602.76 645.44 L602.79 645.34 L603.59 642.36 L603.68 639.3 L602.77 636.52 L597.61 625.44 L595.04 622.92 L585.27 618.85 L575.54 609.38 L571.37 603.46 L569.08 597.55 L569.39 589.97 L572.54 583.7 L577.48 578.96 L583.24 575.97 L593.95 573.81 L602.94 567.72 L607.37 566.3 L609.17 565.72 L605.38 557.71 L600.57 551.1 L588.86 540.26 L560.14 505.65 L549.66 495.84 L546.36 493.56 L544.02 492.96 L543.94 492.94 L541.96 495.91 L540.18 497.57 L538.08 498.09 L525.08 497.84 L521.01 498.94 L517.71 501.25 L515.05 503.98 L507.71 511.49 L487.15 523.11 L484.08 524.84 L475.04 534.06 L472.83 535.58 L468.99 536.01 L457.04 540.11 L449.88 544.07 L444.3 548.77 L435.8 559.75 L435.79 559.77 L430.13 565.57 L425 568.5 L423.02 569.63 L405.99 576.29 L397.81 581.31 L396.15 583.21 L395.57 585.41 L389.38 595.32 L386.51 603.69 L385.62 605.33 L383.84 607.45 L382.67 608.11 L372.44 613.91 L370.36 614.3 L367.8 613.6 L363.03 611.47 L360.35 611.54 L357.51 612.86 L357.47 612.87 L354.87 615.05 L352.55 617.75 L348.16 625.4 L347.19 626.75 L345.83 627.85 L343 629.39 L341.68 630.5 L339.6 633.75 L336.73 640.43 L333.92 643.13 L324.01 648.2 L320.89 650.83 L318.62 653.79 L313.8 663.79 L311.84 666.93 L309.47 669.57 L306.83 671.76 L304.07 673.49 L300.37 674.99 L297.29 675.17 L291.35 662.61 L290.63 660.04 L290.46 657.37 L290.75 654.65 L291.35 651.98 L291.6 651.35 L291.72 650.65 L293.97 643.67 L294.46 637.5 L293.51 631.26 L291.35 624.02 L287.22 620.68 L281.53 617.44 L277.16 613.08 L276.99 606.3 L280.93 602.61 L286.92 603.38 L297.3 608.67 L299.41 608.36 L307.33 602.7 L310.92 602.56 L312.42 601.82 L311.83 600.28 L311.61 599.71 L310.46 598.38 L309.33 597.35 L302.04 592.21 L297.91 587.84 L296.24 584.59 L295.34 581.07 L294.08 577.86 L291.35 575.6 L279.06 570.1 L273.46 565.75 L271.11 558.8 L273.35 553.1 L278.78 549.74 L291.29 547.39 L291.35 547.37 L293.42 546.37 L294.58 544.74 L294.65 542.67 L293.47 540.34 L293.52 536.67 L295.52 534.84 L298.01 533.3 L299.55 530.48 L299.04 526.83 L296.94 523.96 L294.11 522.11 L291.35 521.5 L280.56 522.53 L277.19 521.95 L274.62 520.09 L270.6 514.62 L268.18 512.64 L262.33 512.21 L250.66 518.21 L244.72 519.45 L240.92 518.27 L238.41 515.86 L234.4 508.24 L231.94 505.2 L229 503.53 L222.52 501.65 L217.15 497.34 L210.56 483.93 L205.89 479.35 L195.1 476.09 L189.47 473.2 L185.83 471.33 L178.13 463.63 L176.82 460.94 L169.17 445.17 L165.47 441.05 L160.8 438.74 L142.98 436.9 L137.56 434.44 L137.24 431.36 L137.02 429.15 L147.84 422.12 L175.92 426.79 L187.86 425.61 L190.16 423.67 L191.32 421.3 L193.34 411.03 L193.97 409.33 L197.76 406.01 L201.02 401.62 L203.1 396.14 L206.2 381.77 L206.32 380.44 L206.2 379.12 L205.89 377.82 L201.5 372 L199.04 369.61 L196.55 368.29 L192.81 368.52 L190.38 369.23 L189.22 369.57 L185.79 369.39 L178.53 361.35 L178.39 361.2 L138.58 338.57 L128.46 329.07 L122.93 317.25 L121.49 314.64 L117.95 312.29 L116.37 310.51 L115.58 308.1 L115.19 303.12 L114.52 300.9 L111.55 297.17 L108.09 294.44 L104.81 291.19 L102.37 285.97 L102.38 281.78 L102.39 276.37 L106.69 268.79 L113.37 263.28 L120.28 259.94 L133.53 253.53 L138.03 248.39 L141.24 239.09 L140.93 234.09 L137.96 232.51 L133.93 232.22 L130.45 231.1 L127.75 228.33 L120.44 218.89 L115.92 215.16 L114.21 214.71 L111.8 214.07 L109.7 211.78 L111.2 204.46 L110.16 199.1 L105.44 199.61 L103.81 200.43 L95.84 204.42 L91.95 203.79 L84.46 200.7 L76.4 199.75 L73.6 197.39 L70.95 194.52 L67.45 192.34 L61.87 186.51 L59.04 184.99 L58.55 189.11 L57.5 191.8 L54.2 191.46 L50.5 188.96 L48.3 185.17 L50.12 177.88 L67.02 178.6 L72.89 174.3 L72.67 170.68 L70.45 167.46 L61.5 160.42 L58.58 159.47 L47.42 159.46 L44.49 158.19 L43.54 155.37 L45.26 150.58 Z M126.32 292.89 L132.04 288.48 L134.36 282.6 L129.91 280.07 L127.43 279.73 L124.93 279.77 L122.58 280.47 L120.44 282.02 L119.43 284.26 L119.08 286.61 L119.41 288.96 L120.44 291.12 Z M232.66 679.23 L230.98 679.45 L221.05 676.94 L209.75 671.81 L173.73 664.21 L169.8 662.66 L161.05 659.22 L145.82 659.06 L136.09 656.67 L131.36 656.51 L130.06 656.22 L129.25 656.04 L125.74 653.98 L123.05 653.26 L121 652.71 L117.12 650.79 L113.49 648.35 L111.52 646.01 L111.21 643.65 L111.71 641.78 L112.41 639.94 L112.79 637.67 L111.97 636.2 L107.89 634.35 L106.27 633.15 L105.41 631.29 L104.06 626.56 L103.36 624.82 L101.75 623.1 L100.16 622.16 L98.68 621.04 L97.54 618.81 L99.01 615.56 L98.04 613.19 L95.76 611.76 L93.38 611.28 L91.7 610.46 L91.74 608.58 L92.18 606.51 L91.7 605.12 L90.09 604.93 L88.54 605.54 L87.36 606.36 L86.91 606.77 L69.11 600.86 L64.63 602.25 L63.53 598.91 L61.74 587.92 L60.56 585.53 L59.1 583.41 L58.07 581.1 L54.94 574.08 L53.56 571.96 L51.98 571.07 L50.26 568.98 L48.87 566.68 L48.3 565.11 L47.36 563.97 L41.2 559.75 L40.6 558.97 L40.23 557.96 L39.62 557.09 L38.29 556.73 L36.43 556.79 L35.54 556.6 L31.19 553.44 L30.55 551.86 L31.97 549.17 L28.39 546 L26.29 541.54 L21.17 520.24 L19.12 515.45 L15.52 512.87 L16.19 512.21 L16.7 511.21 L12.76 511.09 L9.11 510.38 L8.44 509.99 L6 508.57 L5.54 507.92 L3.62 505.15 L1.67 496.74 L0 493.95 L4.85 491.82 L12.78 490.37 L20.25 490.48 L26.08 489.08 L30.53 486.58 L31.54 486.02 L37.84 481.13 L44.26 478.93 L50.07 481.86 L51.35 483.5 L62.67 498.04 L64.43 501.74 L65.17 505.85 L64.89 511.03 L63.21 519.02 L63.88 522.26 L67.23 524.41 L73.52 522.91 L78.38 518.38 L82.96 516.83 L84.02 518.34 L88.27 524.34 L90.3 528.95 L92.02 531.44 L94.51 532.45 L102.6 533.21 L105.58 534.77 L110.98 540.3 L111.01 540.33 L112.84 541.4 L114.77 541.7 L116.71 541.31 L118.62 540.34 L120.44 539.56 L134.18 530.78 L138.76 528.88 L159.71 523.77 L160.67 523.54 L164.63 523.47 L169.35 525.29 L173.22 528.09 L174.75 530.88 L174.79 534.64 L174.23 540.27 L174.23 540.29 L175.78 550.4 L175.02 553.89 L169.27 563.39 L168.18 567.81 L169.16 570.1 L169.61 571.15 L179.31 573.65 L182.83 576.53 L186.08 580.07 L190.16 583.24 L192.65 584.47 L202.4 589.25 L205.89 592.6 L207.01 594.33 L207.4 595.99 L207.04 597.59 L205.89 599.07 L201.76 604.52 L200.72 610.13 L202.27 615.93 L205.89 621.89 L210.33 628.28 L213.79 635.25 L222.69 660.17 Z M74.41 210.27 L70.45 209.63 L68.81 204.42 L69.34 203.84 L69.94 203.5 L70.61 203.39 L71.32 203.52 L76.21 207.77 Z M998.83 360.71 L995.62 359.88 L993.48 360.57 L990.95 358.46 L989.28 355.14 L989.67 352.23 L991.89 353.98 L993.53 353.46 L995.03 352.31 L996.79 352.23 L999.24 354.87 L1000 358.39 Z M959.44 337.91 L956.9 338.49 L953.5 338.31 L954.35 332.85 L948.78 325.25 L948.85 319.9 L950.93 321.02 L953.5 320.17 L954.67 321.57 L955.06 326.26 L956.73 328.73 L958.86 330.65 L960.61 333.71 L960.78 336.37 Z "/>
</g>
</svg>
