<svg xmlns="http://www.w3.org/2000/svg" viewBox="0 0 1000 961.64">
<g fill="#ccc" stroke="#333" stroke-width="0.5" stroke-linejoin="round">
<path fill-rule="evenodd" d="M963 877.18 L958.02 879.66 L956.55 881.21 L955.19 881.39 L954.91 879.74 L955.32 877.8 L954.27 874.78 L952.36 871.75 L951.8 868.54 L953.27 867.38 L956.68 866.25 L959.42 864.56 L961.98 861.43 L964.17 859.87 L965.54 860.73 L967.31 863.03 L968.85 864.41 L971.76 865.99 L974.65 867.28 L976.01 868.84 L975.4 871.95 L972.65 873.77 L967.2 874.4 L964.65 876.81 Z M942.61 733.7 L940.1 733.02 L938.69 731.98 L939.03 730.49 L941.71 728.4 L940.87 727.28 L940.81 726.55 L941.71 724.97 L942.39 722.93 L942.13 721.23 L942.16 719.8 L943.7 718.5 L946.2 721.82 L947.45 722.62 L949.67 722.92 L949.66 722.59 L950.51 721.88 L951.68 721.14 L952.68 720.76 L953.71 720.84 L955.89 721.57 L957.11 721.74 L960.71 723.09 L968.23 728.28 L971.71 728.4 L970.99 727.52 L969.71 724.97 L974.58 727.45 L977.01 728.06 L978.59 727.23 L980.88 729.01 L983.13 729.98 L985.75 730.38 L989.15 730.47 L990.12 730.91 L991.27 731.98 L993.18 734.29 L994.58 735.3 L997.45 735.3 L998.71 735.86 L1000 738.76 L999.31 741.93 L997.42 744.51 L995.14 745.56 L992.54 744.7 L985.75 738.02 L982.79 735.82 L980.46 734.51 L977.89 733.87 L974.19 733.7 L972.54 733.89 L970.36 734.7 L969.21 734.87 L967.49 734.53 L966.54 733.76 L965.79 732.98 L964.63 732.62 L961.49 733.29 L955.7 736.34 L952.17 737.03 L950.62 736.69 L949.65 735.95 L948.92 735.22 L948.14 734.87 Z M894.49 698.25 L893.54 698.49 L887.38 696.58 L884.65 695.75 L881.68 695.27 L881.33 694.44 L883.94 694.09 L886.43 693.74 L889.75 694.57 L893.07 696.11 Z M868.45 938.31 L868.72 935.34 L867.01 933.24 L865.41 931.51 L865.41 929.91 L870.44 932.34 L873.41 931.22 L875.92 930.32 L877.64 928.96 L882.2 927.57 L883.23 924.51 L886.46 921.61 L887.79 918.7 L891 919.45 L893.9 917.78 L898.16 917.75 L899.66 917.7 L901.14 916.97 L902.64 915.83 L904.79 912.75 L906 911.42 L906.54 912.1 L907.48 915.36 L909.8 918.17 L912.73 922.06 L916.51 923.83 L925.68 926.81 L928.9 924.79 L932.12 923.21 L939.43 921.36 L942.82 917 L945.79 910.89 L952.98 899.42 L955.19 896.38 L958 894.64 L961.15 895.95 L962.26 898.71 L962.1 902.31 L959.2 919.06 L957.98 923.42 L948.68 935.21 L943.98 948.93 L940.86 950.74 L930 955.38 L923.67 954.4 L921.81 954.97 L920.43 955.67 L917.6 957.69 L916.6 957.69 L916.6 956.54 L917.57 955.68 L915.41 953.99 L912.28 953.6 L904.68 957.99 L899.64 957.69 L891 959.76 L884.55 957.13 L875.2 956.31 L873.1 956.61 L870.73 957.85 L870.12 959.01 L869.27 960.4 L868.73 961.64 L867.78 961.43 L866.07 960.28 L864.2 958.08 L863.79 956.39 L863.43 953.69 L863.31 950.17 L860.72 945.7 L860.25 944.85 L860.73 943.74 L865.08 943.28 L867.53 941.7 Z M775.47 684.94 L774.72 689.38 L770.54 695.91 L765.11 702.1 L760.61 705.56 L761.9 698.77 L766.15 694.25 L771.35 690.24 Z M817.54 687.2 L816.6 686.17 L814.54 682.87 L819.37 684.28 L820.52 684.94 L821.01 683.18 L822.09 681.83 L823.4 681.21 L824.6 681.7 L825.49 681.03 L825.88 680.81 L826.5 680.72 L826.5 679.53 L825.31 679.2 L824.81 678.86 L824.42 678.3 L823.52 677.28 L831.05 677.36 L834.65 676.78 L838.56 675.2 L838.72 675.82 L838.78 676.33 L838.99 676.81 L839.56 677.28 L836.12 683.41 L834.48 684.94 L834.4 683.35 L833.89 682.08 L832.94 681.19 L831.58 680.72 L832.09 682.87 L833.29 684.94 L834.88 685.94 L836.57 684.94 L837.55 687.25 L838.89 699.07 L839.69 701.5 L841.56 705.56 L839.05 706.17 L838 708.85 L837.48 712.31 L836.57 715.26 L835.14 717.09 L833.04 719.22 L830.82 721 L829.04 721.74 L827.37 723.15 L822.52 732.62 L814.9 738.95 L813.55 739.63 L812 739.75 L803.13 743.4 L799.48 744.19 L797.24 746.24 L793.6 752.12 L792.42 753.41 L788.56 756.82 L787.08 757.51 L783.77 758.02 L781.17 759.41 L776.47 763.96 L776.28 762.54 L776.47 756.97 L777.13 755.42 L778.66 754.98 L784.42 755.45 L785.65 754.87 L790.05 750.94 L790.17 749.93 L788.62 748.79 L788.62 747.82 L791.48 745.98 L792.51 745.56 L791.66 745.3 L790.99 745.01 L790.55 744.44 L790.43 743.4 L793.37 742.24 L797.66 739.61 L801.04 739.09 L801.82 738.58 L803.42 736.36 L805.35 734.99 L805.19 733 L804.64 730.83 L804.67 729.39 L807.36 728.3 L811.35 727.88 L814.96 726.99 L816.54 724.48 L817.14 720.66 L818.82 718.83 L821.39 718.08 L824.6 717.52 L830.39 715.36 L834.4 711.65 L835.77 706.53 L833.57 700.16 L829.55 697.17 L819.17 696.99 L814.54 694.66 L812.35 692.55 L812.6 691.96 L814.36 689.1 L815.32 688.19 L816.39 687.58 Z M775.02 675.2 L765.52 661.05 L766.06 660.54 L766.3 660.02 L766.41 659.48 L766.6 658.9 L768.2 658.8 L770.64 657.95 L771.58 657.8 L773.33 658.31 L777.47 661.05 L778.93 661.44 L782.1 661.72 L783.54 662.14 L787.62 665.49 L788.07 666.84 L788.24 669.63 L788.62 670.79 L789.14 670.94 L790.92 670.71 L791.52 670.79 L791.83 671.25 L792.51 673.05 L795.37 674.04 L800.61 674.41 L803.67 675.2 L802.58 673.05 L805.82 673.84 L814.54 677.28 L803.67 687.2 L803.17 685.91 L803.1 685.56 L801.58 684.94 L801.71 682.33 L799.03 682.82 L795.24 683.99 L784.45 681.17 L782.95 679.92 L780.56 677.28 L779.75 679.13 L778 680.71 L776.27 681.56 L775.47 681.21 L776.32 677.78 L776.29 675.98 Z M865.66 618.73 L852.65 621.36 L846.5 621.23 L843.64 616.46 L854.61 617.55 L862.81 616.67 L865.66 617.55 Z M575.45 559.93 L580.35 560.3 L586.63 562.09 L592.06 564.99 L594.39 568.62 L589.14 566.91 L583 565.67 L577.82 563.74 Z M554.33 547.32 L556.62 552.27 L562.11 556.22 L574.36 561.02 L572.27 563.26 L568.93 562.34 L562.39 558.74 L554.98 558.17 L552.21 556.73 L553.42 553.4 L550.71 551.5 L547.95 548.93 L545.42 547.49 L543.35 548.95 L538.29 543.53 L532.83 539.45 L526.66 537.41 L519.43 538.08 L519.43 536.99 L523.74 535.67 L524.42 535.31 L524.14 533.89 L523.17 532.44 L523.32 531.55 L521.77 530.51 L520.56 528.67 L520.26 526.62 L521.42 524.92 L523.22 525.28 L524.48 524.77 L525.43 524.06 L526.32 523.84 L527.45 524.36 L528.21 525.2 L529.5 527.19 L531.11 528.8 L532.9 529.76 L535.18 530.24 L538.29 530.37 L537.79 531.05 L537.53 531.56 L537.14 532.02 L536.29 532.54 L545.84 542.76 L552.76 546.79 Z M691.46 636.06 L693.22 637.68 L694.48 641.76 L695.21 646.56 L695.41 652.77 L695.13 654.45 L694.26 655.15 L692.46 654.57 L691.61 653.46 L690.55 648.08 L690.01 648.45 L688.56 649.15 L687.61 645.02 L683.44 637.56 L681.92 631.08 L680.54 628.86 L675.61 622.8 L674.1 621.36 L672.27 620.47 L655.57 617.14 L651.94 614.85 L650.07 613.31 L639.64 606.67 L637.35 605.72 L637.78 604.17 L638.46 602.76 L639.37 601.47 L640.53 600.2 L641.43 600.2 L642.89 602.49 L647 604.52 L648.5 606.71 L644.74 606.17 L643.52 605.72 L644.52 607.56 L646.02 609.13 L647.77 610.05 L649.5 609.96 L651.28 611.15 L654.06 613.52 L655.39 614.29 L657.04 614.69 L659.4 614.9 L660.89 614.43 L659.92 612.72 L651.58 603.41 L650.5 600.74 L651.05 596.45 L652.28 593.36 L653.61 590.84 L654.39 588.26 L654.27 584.49 L653.31 580.22 L651.66 576.42 L649.5 574.04 L648.97 574.77 L647.41 576.23 L647.66 572.48 L642.14 567.78 L642.43 564.28 L640.46 563.78 L638.68 563.06 L637.76 561.87 L638.43 559.93 L635.47 557.56 L634.37 555.04 L633.45 547.88 L630.46 540.26 L629.05 539.51 L628.09 539.86 L627.06 540.66 L625.39 541.24 L626.38 533.57 L625.55 531.27 L622.49 533.72 L623.86 531.62 L624.47 530.92 L625.39 530.37 L623.56 529.79 L622.36 530.93 L621.19 532.63 L619.4 533.72 L619.4 532.54 L620.89 530.94 L622.03 529.07 L622.63 526.76 L622.49 523.84 L623.38 524.07 L624.11 524.53 L624.77 525.19 L625.39 526.01 L633.95 540.26 L635.94 541.51 L638.57 544.54 L641.01 548.16 L642.43 551.23 L644.2 562 L645.96 564.76 L648.51 567.61 L657.15 584.45 L656.93 586.09 L658.08 587.55 L658.46 591.01 L658.47 598.03 L659.66 605.68 L662.13 610.45 L666.27 613.36 L678.72 618.06 L684.08 622.26 L693.54 632.91 L692.92 633.73 L692.12 635.28 Z M685.48 520.57 L692.83 518.39 L698.28 518.46 L700.14 519.28 L703.42 521.66 L701.95 524.14 L701.01 526.17 L699.54 527.33 L696.45 527.19 L696.45 528.19 L697.36 529.4 L694.73 529.44 L691.22 528.31 L689.46 526.01 L686.82 527.22 L682 527.27 L679.41 528.19 L678.86 524.54 L679.85 522.51 L682.12 521.4 Z M477.38 477.86 L475.18 475.59 L472.49 469.92 L470.1 466.26 L468.31 461.49 L466.8 458.91 L466.24 457.25 L466.24 454.93 L469.84 457.49 L478.29 476.87 Z M748.47 470.22 L747.27 472.11 L745.17 478.63 L745.02 480.03 L735.41 481.13 L735.41 480.03 L737.9 476.89 L739.57 471.94 L740.18 466.4 L739.5 461.49 L739.56 457.65 L741.17 455.32 L743.71 453.9 L746.56 452.75 L747.37 452.08 L748.17 451.2 L749.03 450.68 L750.01 451.11 L752.19 455.05 L752.54 455.44 L752.84 457.1 L754.17 459.35 L754.54 460.4 L754.45 461.85 L753.65 465 L753.45 466.45 L747.48 476.87 L747.04 475.03 L747.3 473.45 Z M250.24 443.91 L248.34 445.29 L240.91 449.04 L238.28 449.37 L237.33 448.18 L236.58 446.06 L236.28 443.82 L236.7 442.32 L238.04 442.16 L239.86 442.67 L241.49 442.74 L242.18 441.22 L243.63 440.68 L251.65 435.16 L252.34 434.87 L254.72 433.47 L256.23 432.97 L262.21 432.97 L261.67 434.59 L260.79 435.4 L258.22 436.16 L257.02 436.18 L256.39 435.64 L255.66 435.36 L254.15 436.16 L253.14 437.67 L251.73 442.05 Z M244.26 431.78 L242.1 431.86 L241.19 433.21 L241.3 435.23 L242.18 437.35 L240.08 436.82 L236.38 437.37 L234.21 437.35 L232.62 436.68 L230.93 435.36 L230.34 433.95 L232.12 432.97 L235.92 432.23 L239.7 430.43 L242.71 429.59 Z M457.25 439.53 L454.51 439.51 L452.85 438.7 L446.7 430.76 L445.34 428.42 L445.29 426.41 L447.54 427.71 L448.87 429.71 L449.89 431.96 L451.28 434.07 L453.01 435.43 L454.58 436.22 L455.99 437.29 Z M302.18 484.4 L303.41 486.67 L302.52 492.72 L303.27 495.41 L300.78 501.09 L298.83 502.1 L295.2 500.95 L295.68 502.96 L298.33 505.15 L299.18 507.5 L298.97 509.64 L298.14 511.99 L297.09 513.99 L296.2 515.12 L291.61 516.72 L288.13 515.21 L284.95 512.85 L281.25 511.85 L283.76 514.91 L283.71 516.32 L282.33 518.39 L281.25 518.39 L278.82 514.99 L274.49 513.83 L265.2 514.14 L270.19 511.85 L269.45 509.12 L272.58 509.2 L280.25 511.85 L281.14 508.96 L282.62 506.92 L284.65 505.42 L292.49 501.68 L294.7 499.93 L294.7 498.13 L292.09 497.11 L289.52 498.6 L287.05 500.82 L284.69 501.95 L276.17 507.5 L276.74 507.94 L277.16 508.49 L273.67 508.07 L270.15 503.03 L267.19 501.95 L276.79 498.45 L281.64 495.52 L282.33 492.13 L280.24 494.39 L277.38 495.32 L269.64 495.41 L267.56 495.82 L265.78 496.59 L264.08 497.08 L262.21 496.6 L261.03 495.32 L260.14 493.41 L258.01 482.67 L257.82 478.63 L258.72 476.87 L256.58 476.13 L256.5 474.36 L257.13 472.17 L257.13 470.22 L255.47 468.37 L253.46 467.16 L252.3 466.1 L253.24 464.76 L253.24 463.68 L250.39 461.88 L241.28 458.22 L242.14 457 L243.17 455.92 L245.27 457.31 L246.09 456.87 L246.21 455.7 L246.17 454.93 L246.26 453.43 L245.84 452.7 L245.81 451.99 L247.08 450.56 L248.56 449.77 L252.51 448.44 L254.15 447.18 L254.73 445.82 L255.68 441.89 L256.23 440.63 L261.23 440.28 L263.12 439.53 L264.59 438.26 L265.1 437.25 L265.42 436.01 L266.29 434.07 L268.48 432.22 L274.51 429.69 L276.17 427.5 L280.25 425.22 L281.61 427.38 L282.68 429.94 L283.89 432.08 L285.68 432.97 L286.66 433.85 L285.27 435.74 L276.26 443.27 L272.68 445.26 L268.19 446.1 L268.19 447.18 L270.78 447.39 L271.87 448.59 L271.23 449.93 L268.64 450.56 L268.07 451.19 L269.59 452.63 L273.18 454.93 L275.5 453.92 L276.29 455.68 L275.92 458.57 L273.52 463.12 L273.03 465.19 L272.26 466.89 L270.19 468.03 L272.9 468.8 L275.22 466.72 L279.75 457.43 L282.8 453.96 L284.23 451.65 L284.82 448.51 L284.98 444.46 L285.51 440.67 L287.23 438.33 L290.12 438.79 L292.3 441.99 L294.07 446.01 L295.7 448.87 L297.56 451.15 L298.6 453.57 L299.08 456.39 L299.36 461.67 L300.11 465.05 L300.28 466.45 L300.11 468.28 L299.36 471.35 L299.18 473 L299.66 473.89 L301.71 476.92 L302.18 478.44 L301.71 480.33 L300.68 481.6 L299.66 482.39 L299.18 482.86 L297.68 483.56 L294.5 483.64 L291.65 484.83 L291.12 488.87 L296.23 485.22 L299.25 483.84 Z M266.74 421.43 L263.94 423.36 L262.05 422.93 L261.37 421.33 L262.21 419.75 L265.42 418.14 L268.14 416.18 L270.89 414.94 L273.81 414.2 L276.17 414.38 L277.18 414.94 L278.36 415.95 L279.18 417.24 L279.16 418.65 L278.03 419.53 L276.53 419.05 L274.98 418.09 L273.72 417.56 L271.14 417.73 L269.61 418.33 Z M624.93 438.93 L626.06 441.3 L628.48 450.56 L621.85 448.35 L618.84 448.09 L615.42 448.37 L608.81 449.72 L606.5 450.99 L603.95 453.25 L600.34 453.6 L596.43 450.98 L594.76 447.7 L597.93 446.1 L600.07 445.52 L603.19 444.01 L606.06 441.92 L607.52 439.53 L610.34 439.61 L611.64 435.26 L611.01 430.04 L607.99 427.5 L603.72 426.56 L600.71 424.19 L592.91 411.39 L591.76 406.87 L588.95 402.7 L588.31 400.54 L587.43 395.43 L584.95 391.6 L581.17 389.36 L576.35 388.98 L576.92 387.29 L577.04 385.36 L576.82 383.33 L576.35 381.41 L575.57 379.44 L574.83 378.71 L573.82 378.21 L567.38 372.54 L562.67 370.16 L561.39 369.25 L560.41 367.89 L560.26 366.66 L560.93 365.36 L563.97 361.73 L565.18 361.21 L567.38 361.48 L568.34 362.19 L572.27 365.96 L576.07 367.44 L577.82 368.42 L579.43 370.34 L580.56 380.58 L581.43 383.6 L582.85 385.3 L585.2 387.44 L587.36 389.98 L589.12 395 L593.17 402.47 L601.37 414.38 L603.99 416.51 L609.7 419.63 L612.42 421.93 L616.04 429.55 L616.91 430.78 L618.53 431.88 Z M308.75 314.62 L306.54 313.34 L303.71 313.04 L301.01 313.11 L299.18 312.92 L296.79 310.19 L298.38 307.1 L301.86 304.46 L305.17 303.03 L307.31 302.65 L312.24 300.82 L314.47 300.57 L320.71 300.82 L326.91 299.68 L329.19 299.72 L331.22 300.44 L334.73 302.58 L340.31 303.87 L338.72 305.8 L323.42 312.98 L319.89 312.88 L315.23 310.83 L314.38 312.18 L312.71 314.1 L310.68 315.32 Z M181.18 368.06 L182.75 367.07 L183.88 365.87 L184.14 364.38 L183.08 362.56 L185 359.8 L187.34 359.88 L189.31 362.01 L190.15 365.36 L189.98 368.12 L189.44 370.54 L188.5 372.7 L187.16 374.74 L184.6 376.54 L184.17 376.93 L184.46 378.51 L185.16 379.92 L186.23 380.51 L190.17 378 L192.33 377.37 L193.52 376.1 L193.15 372.54 L195.99 373.91 L196.01 376.8 L195.25 380.17 L195.69 383.01 L198.1 384.5 L199.48 382.47 L199.82 378.93 L199.13 375.83 L200.53 376.46 L202.05 377.37 L203.36 377.77 L204.12 376.93 L204.03 374.63 L202.95 373.02 L201.48 371.74 L200.21 370.34 L200.03 369.39 L200.36 366.96 L200.21 365.96 L199.32 364.76 L197.04 362.65 L196.14 361.48 L195.56 359.23 L195.16 356.7 L194.26 355.18 L192.15 355.98 L193.69 357.32 L194.24 359.82 L194.15 365.96 L192.77 364.25 L191.83 361.63 L190.69 359.23 L188.66 358.18 L188.41 356.97 L188.84 354.22 L190.15 349.39 L192.39 347.04 L195.58 344.39 L197.82 341.19 L197.22 337.22 L198.61 336.24 L202.42 335.48 L203.21 334.51 L203.65 332.48 L205.65 328.57 L206.1 326.33 L207.41 326.18 L206.9 324.92 L205.72 323.23 L205.11 321.82 L205.42 320.55 L206.2 318.31 L207.32 316.18 L208.64 315.22 L209.78 313.2 L209.46 308.67 L208.1 301.43 L206.52 296.32 L203.47 289.62 L201.51 283.46 L203.21 279.89 L205.67 280.03 L210.97 281.05 L213.18 282 L214.97 283.69 L215.97 285.49 L217.18 286.94 L219.61 287.52 L221.83 286.57 L223.99 284.8 L226.22 283.71 L228.73 284.81 L230.59 286.18 L232.64 287.28 L234.62 288.68 L236.19 290.92 L234.02 293.44 L233.65 296.28 L234.8 298.92 L237.2 300.82 L235.36 307.19 L234.78 311.15 L235.65 312.92 L238.32 313.34 L240.52 314.65 L242.42 317.06 L251.31 339.22 L257.76 348.93 L260.18 351.55 L262.67 352.69 L264.43 353.75 L269.83 359.17 L271.19 361.48 L271.34 364.37 L271.1 368.3 L270.52 372 L269.64 374.19 L268.8 377.25 L269.98 381.17 L273.18 387.99 L273.88 393.65 L272.55 397.77 L269.16 400.29 L263.66 401.14 L261.42 401.84 L259.89 403.46 L258.61 405.29 L257.13 406.61 L252.7 407.19 L251.55 408.58 L253.24 412.09 L251.5 413.87 L246.17 417.56 L243.53 418.36 L238.45 418.4 L236.7 419.2 L230.95 423.43 L230.21 424.72 L230.51 426.12 L231 427.42 L231.1 428.6 L230.21 429.69 L228.8 430.04 L227.41 429.55 L226.17 428.58 L225.23 427.5 L223.57 423.1 L222.64 417.62 L221.11 412.96 L217.71 410.99 L213.23 409.03 L212.24 404.3 L213.18 393.37 L210.55 395.43 L208.75 397.57 L206.52 399.26 L202.67 399.94 L199.75 399.17 L181.47 388.74 L172.73 380.62 L169.95 377.28 L168.13 373.64 L170.08 373.15 L173.11 371.76 L175.89 370.07 L177.11 368.66 L177.56 366.42 L178.63 366.62 L179.98 367.7 Z M501.31 286.51 L505.7 289.41 L507.59 291.64 L508.37 294.71 L507.14 308.38 L506.52 310.96 L506.38 312.37 L505.79 314.06 L504.45 315.09 L503.06 315.72 L502.31 316.23 L501.8 319.33 L502.44 322.2 L504.29 326.33 L504.86 328.99 L504.29 336.67 L503.52 339.92 L500.09 345.46 L499.31 347.7 L498.95 358.97 L499.46 365.15 L501.31 370.34 L496.46 368.19 L493.94 363.07 L492.35 357.17 L490.34 352.69 L487.92 350.93 L481.54 348.31 L478.83 346.61 L475.75 343.03 L476.13 341.54 L478.51 341.36 L492.83 343.81 L493.79 343.38 L494.47 342.34 L495.08 341.1 L495.83 340.01 L498.22 337.58 L498.92 336.15 L499.31 333.92 L499.19 330.22 L498 331.06 L496.33 333.64 L494.79 335.12 L493.9 333.3 L494.06 329.17 L495.33 321.82 L496.15 319.12 L496.56 318.48 L497.41 317.43 L501.61 313.52 L502.31 312.37 L503.44 303.17 L503.39 299.72 L500.78 292.3 L496.19 288.36 L490.94 285.66 L486.35 282 L474.3 264.26 L470.6 261.2 L465.06 259.15 L453.37 256.55 L447.35 253.46 L438.53 245.03 L432.79 243.3 L429.61 242.96 L423.57 241.44 L420.78 241.09 L417.64 241.91 L412.51 244.79 L410.31 244.4 L413.95 240.59 L416 234.24 L418.29 222.21 L417.29 222.21 L422.31 222.15 L424.58 222.46 L426.27 223.31 L424.67 225.82 L423.96 228.31 L423.91 231.07 L424.27 234.47 L426.56 231.43 L428.2 232.95 L429.51 236.07 L430.84 237.79 L433.66 238.57 L452.2 252.96 L457.56 256.02 L464.33 257.65 L471.08 257.93 L473.51 258.6 L475.83 260.46 L483.37 270.99 L492.2 279.68 Z M259.21 198.89 L257.43 198.71 L255.58 196.54 L253.24 192.26 L250.27 188.94 L249.27 186.92 L250.24 185.6 L252.08 185.95 L253.51 187.59 L258.97 197.43 Z M300.28 101.57 L299.65 102.81 L295.2 107.74 L296.04 104.1 L295.29 101.84 L294.24 99.7 L294.21 96.52 L295.55 97.31 L299.46 100.61 Z M146.65 64.13 L144.09 65.83 L140.97 67.41 L138.42 69.24 L137.06 70.4 L134 70.67 L132.62 71.35 L126.66 70.78 L120.84 68.71 L117.3 65.19 L110.95 61.28 L95.61 45.41 L88.64 39.62 L87.1 37.16 L88.67 37.13 L89.95 37.47 L91.03 38.21 L92 39.38 L110.77 51.33 L115.11 57.33 L118.01 56.79 L120.32 56.43 L125.03 58.48 L128.51 58.52 L131.81 56.98 L134.79 54.87 L136.8 53.94 L138.51 52.88 L139.65 52.12 L140.2 50.8 L142.04 49.3 L142.42 47.26 L144.55 45.46 L146.34 41.78 L149.05 39.96 L148.71 38.23 L145.2 36.03 L139.13 34.92 L140.14 32.8 L144.12 28.23 L144.97 26.21 L146.1 19.3 L148.88 21.3 L151.45 24.53 L153.34 28.05 L154.08 30.96 L156.84 32.63 L168.88 37.4 L171.91 36.6 L178.64 38.27 L186.09 39.57 L190.89 39.74 L192.86 36.79 L195.88 35.26 L200.44 37.32 L203.22 37.84 L208.42 35.67 L215.44 36.66 L220.08 35.23 L224.72 33.12 L227.68 32.7 L236.95 32.54 L239.2 31.58 L240.57 29.76 L241.57 27.65 L242.87 25.85 L245.17 24.87 L245.51 27.91 L244.78 31.24 L244.38 34.6 L246.99 40.38 L247.1 43.51 L245.87 46.15 L243.17 47.3 L242.12 46.88 L239.65 44.75 L238.28 43.95 L236.4 43.62 L226.86 44.17 L218.16 46.19 L198.1 50.23 L189.97 50.23 L159.3 58.11 L156.67 58.55 L153.94 59.42 L149.51 63.25 Z M260.21 3.54 L257.54 3.11 L245.99 3.99 L241.36 5.71 L238.28 5.79 L238.71 5.15 L239.14 4.91 L240.19 4.67 L245.45 1.22 L252.07 0 L265.74 0.19 L279.2 3.27 L286.87 3.96 L290.22 1.31 L298 4.98 L304.18 9.64 L330.95 35.88 L333.99 37.95 L337.41 39.06 L342.24 39.38 L341 41.18 L339.03 41.78 L334.26 41.62 L336.4 46.04 L339.43 49.62 L343.22 52 L352.15 53.66 L356.17 55.66 L363.18 60.78 L368.54 63.75 L370.25 65.24 L371.57 67.37 L372.66 70.36 L372.68 73 L370.75 74.15 L370.28 75.28 L370.25 82.55 L370.75 85.21 L372.08 86.95 L374.03 87.99 L376.33 88.63 L374.45 92.42 L374.23 93.63 L374.56 95.4 L375.27 96.52 L376 97.31 L376.33 98.14 L376.49 99.46 L376.68 100.09 L376.43 100.73 L375.23 102.08 L374.06 103.06 L372.85 103.65 L370.25 104.2 L370.55 103.51 L371.25 101.07 L366.5 101.64 L362 104.2 L358.01 107.81 L354.75 111.53 L353.37 115.55 L352.08 127.99 L352.3 131.07 L350.77 140.23 L351.51 153.31 L350.98 165.03 L345.74 170.1 L341.89 168.07 L338.5 163.46 L336.09 158.38 L335.18 155.03 L332.83 152.91 L322.15 150.56 L319.22 146.61 L321.58 146.59 L324.23 145.68 L326.4 143.99 L328.04 139.96 L329.83 139.47 L331.96 139.22 L333.72 138.34 L339.07 132.21 L342.49 129.32 L346.23 127.74 L345.28 126.41 L344.7 125.06 L344.4 123.53 L344.33 121.58 L343.74 120.45 L342.51 119.49 L341.39 118.28 L341.16 116.52 L342.07 114.69 L343.43 113.3 L344.69 111.75 L345.23 109.36 L345.17 105.07 L344.76 102.97 L342.28 100.51 L346.91 93.63 L346.73 92.06 L345.45 90.1 L345.23 78.61 L347.38 78.57 L348.96 77.65 L350.19 76.09 L351.21 74.15 L351.37 73.33 L351.21 70.2 L351.61 69.07 L352.53 68.39 L353.57 67.94 L354.29 67.46 L355.77 64.9 L356.41 61.96 L355.37 59.56 L350.19 58.17 L346.78 56.58 L333.25 54.58 L330.69 52.97 L329.05 50.19 L327.29 46.19 L327.95 45.19 L328.12 43.86 L327.72 42.44 L326.06 40.26 L325.31 38.51 L324.79 37.71 L324.03 37.45 L323.34 38.07 L322.63 38.95 L321.76 39.38 L318.79 39.1 L316.49 38.17 L315.46 36.47 L316.32 33.91 L313.9 28.37 L307.25 17.21 L303.27 12.48 L300.8 10.68 L297.62 9.47 L294.37 9.37 L291.66 10.87 L289.13 11.77 L285.67 11.21 L277.08 8.36 L274.44 8.03 L268.64 8.02 L266.92 7.47 L262.8 4.7 Z M11.73 554.16 L11.21 554.42 L8.43 552.44 L8.17 551.84 Z M4.53 546.04 L6.05 548.1 L5.81 548.19 L0 541.58 L0.83 542.11 Z M47.55 226.26 L47.87 226.38 L48.51 227.96 L48.19 227.84 Z M44.6 222.93 L44.67 222.31 L45.99 224.14 L45.92 224.77 Z M565.45 759.07 L566.02 760.14 L566.52 762.17 L565.47 763.36 L563.65 763.41 L562.44 762.12 L561.58 760 L561.4 758.76 L562.09 758.57 L562.96 758.86 L563.85 759.51 L563.7 758.54 L562.9 755.87 L563.38 755.56 L564.08 756.6 Z M561.96 753.79 L561.42 753.98 L560.87 753.58 L561.1 749.5 L561.73 749.78 L562.12 752.43 Z M552.36 732.4 L552.92 733.33 L553.68 735.3 L553.26 736.18 L552.15 734.82 L551.12 732.44 L550.61 730.16 L551.21 729.74 L552.08 731.4 Z M872.67 696.1 L874.45 694.8 L876.23 695.98 L874.21 699.9 L871.6 700.37 Z M654.96 498.16 L655.4 498.89 L655.44 500.63 L654.72 502.67 L653.74 503.23 L652.83 500.7 L653.76 498.39 Z M251.91 418.19 L256.21 417.67 L257.22 417.75 L256.61 418.93 L254.92 421.28 L252.19 422.57 L249.8 421.32 L249.81 419.1 Z M411.79 387.42 L411.98 388.54 L412.05 390.56 L411.12 391.32 L409.61 390.66 L408.76 388.58 L409.15 385.74 L410.28 385.13 L411.33 386.59 Z M252.65 247.4 L250.41 247.4 L249.11 247.26 L246.43 247.21 L246.56 246.9 L247.41 246.17 L248.52 245.65 L249.42 245.58 L251.09 245.72 L253.39 245.56 L255.11 244.5 L256.24 243.02 L256.64 243.1 L255.86 244.92 L254.42 246.62 Z M50.27 188.01 L50.86 189.77 L51.27 193.17 L50.88 194.52 L50.57 193.81 L49.61 194.28 L47.81 194.85 L47.55 193.38 L48.57 190.94 L48.02 190.13 L46.04 192.02 L44.99 193.39 L44.21 194.64 L43.88 196.77 L45.42 198.05 L47.63 198.97 L49.11 200.28 L48.56 201.13 L44.56 200.5 L42.89 200.45 L42.36 199.74 L42.8 197.39 L43.89 194.28 L45.85 190.84 L48.67 188.46 Z M343.17 73.55 L344.14 74.27 L344.37 74.87 L344.29 75.03 L344.02 74.9 L343.49 74.83 L343.36 75.08 L343.69 75.36 L343.72 75.48 L343.43 75.55 L343.28 77.47 L343.64 79.36 L342.82 80.04 L342.25 80.11 L341.67 80.13 L340.39 79.46 L339.78 77.66 L339.07 76.45 L338.21 75.61 L338.44 74.94 L339.07 75.02 L339.77 74.51 L340.6 73.65 L341.78 73.29 Z M254.16 53.58 L254.94 52.81 L256.54 51.5 L256.96 51.99 L255.65 53.59 L255.14 54.55 L255.13 55.26 L254.44 56.43 L253.9 58.16 L252.98 59.57 L252.03 59.61 L251.72 59.14 L251.38 58.52 L249.37 56.06 L248.72 54.68 L248.42 53.28 L249.2 52.63 L253.61 51.79 L254.26 52.57 L252.9 54.26 L252.6 54.75 L253.68 54.06 Z M412.4 224.2 L414.11 224.58 L415.94 225.22 L415.37 226.1 L413.77 225.98 L409.88 225.72 L410.79 224.71 Z M403.81 227.37 L405.42 227.25 L406.67 227.75 L406.45 228.64 L403.81 229.78 L400.95 229.78 L399.12 231.18 L397.52 231.43 L397.41 230.16 L399.7 228.64 L401.53 228.26 Z "/>
</g>
</svg>
