<svg xmlns="http://www.w3.org/2000/svg" viewBox="0 0 1000 1790.81">
<g fill="#ccc" stroke="#333" stroke-width="0.5" stroke-linejoin="round">
<path fill-rule="evenodd" d="M389.39 236.5 L487.56 322.57 L510.63 285.99 L544.83 258.76 L559.49 296.87 L574.15 356.76 L603.47 359.48 L580.36 388.3 L579.03 435.68 L533.13 447.19 L546.46 594.65 L541.46 818.07 L507.57 1096.89 L487 1152.16 L420.88 1260.9 L420.51 1261.31 L405.32 1184.87 L379.39 1101.01 L343.45 1019.28 L297.88 948.97 L198.6 836.19 L181.93 766.04 L226.39 681.03 L238.8 644.13 L251.21 607.23 L238.24 511.86 L203.6 418.11 L164.89 349.81 L155.63 319.27 L157.11 277.79 L183.6 157.84 L200.27 128.31 L229.72 113.86 L230.09 113.96 L232.31 113.96 L280.84 115.3 L309.18 121.19 L345.67 137.92 L375.31 151.54 L375.5 151.44 L469.22 114.06 L484.23 123.98 L493.67 157.12 L510.34 180.04 L515.35 190.47 L520.35 200.89 L507.57 227.83 L486.08 233.82 L421.25 224.74 Z M39.09 285.99 L63.52 294.15 L87.95 307.76 L87.95 351.31 L92.84 386.7 L97.73 424.79 L56.19 413.91 L12.22 416.63 L0 375.81 L4.89 324.1 Z M503.3 21.8 L574.15 0 L625.45 27.25 L627.9 65.39 L627.9 103.53 L662.1 152.56 L691.42 166.18 L679.21 201.58 L666.99 215.2 L630.34 193.41 L620.57 158.01 L608.35 122.6 L576.59 114.43 L547.27 108.98 L527.73 117.15 L498.41 62.67 Z M896.29 1432.88 L915.02 1436.07 L933.74 1421.69 L956.79 1408.89 L956.79 1424.88 L951.03 1447.27 L933.74 1472.85 L916.46 1495.23 L927.98 1506.42 L945.26 1525.6 L936.62 1538.38 L909.25 1531.99 L896.29 1541.58 L877.56 1559.16 L868.92 1568.75 L879 1602.31 L896.29 1626.28 L900.61 1642.25 L884.77 1648.64 L876.12 1664.62 L873.24 1685.39 L886.21 1694.97 L896.29 1709.35 L881.89 1723.73 L868.92 1746.09 L857.4 1768.45 L863.16 1784.42 L855.96 1790.81 L830.03 1778.03 L812.75 1750.88 L821.39 1726.92 L838.67 1686.99 L837.23 1663.02 L837.23 1627.87 L817.07 1605.5 L818.51 1583.13 L821.39 1552.77 L830.03 1519.2 L853.08 1482.44 L883.33 1445.67 Z M899.17 1354.52 L916.46 1346.53 L932.3 1348.13 L935.18 1364.12 L910.69 1373.71 Z M965.43 1539.98 L1000 1541.58 L992.8 1565.55 L974.07 1578.34 L963.99 1563.95 L959.67 1551.17 Z M939.5 1608.7 L953.91 1610.3 L981.27 1615.09 L992.8 1627.87 L989.92 1647.05 L981.27 1659.83 L972.63 1656.63 L961.11 1653.44 L945.26 1656.63 L933.74 1663.02 L923.66 1642.25 L927.98 1629.47 L920.78 1618.29 L925.1 1607.1 Z "/>
</g>
</svg>
