<svg xmlns="http://www.w3.org/2000/svg" viewBox="0 0 1000 1391.42">
<g fill="#ccc" stroke="#333" stroke-width="0.5" stroke-linejoin="round">
<path fill-rule="evenodd" d="M985.51 1103.55 L988.62 1117.65 L989.22 1124.7 L985.44 1160.35 L988.62 1215.85 L989.15 1221.75 L991.43 1233.4 L999.22 1256.96 L999.61 1259.3 L1000 1261.66 L998.03 1265.43 L993.83 1269.86 L988.75 1273.17 L984.37 1273.54 L981.79 1270.63 L980.25 1265.83 L978.6 1256.44 L974.39 1247.1 L968.8 1245.83 L961.6 1247.4 L952.45 1246.51 L947.51 1244.81 L945.2 1243.52 L943.37 1241.6 L941.87 1237.53 L941.42 1233.64 L940.51 1229.83 L937.64 1226.02 L930.71 1223.68 L922.46 1233.64 L915.61 1233.53 L912.01 1234.09 L909.6 1238.66 L906.67 1248.55 L900.63 1257.3 L899.47 1261.36 L899.42 1265.91 L900.97 1275.14 L900.7 1279.67 L899.49 1286.55 L898.75 1290.18 L900 1294.29 L901.64 1297.49 L906.71 1302.27 L908.14 1305.72 L909.42 1309.3 L918.26 1316.74 L916.84 1325.69 L916.52 1335.29 L917.47 1344.75 L919.74 1353.27 L925.94 1362.8 L926.98 1365.21 L927.46 1369.55 L931.42 1381.73 L933 1384.71 L933.66 1387.16 L933.16 1389.64 L931.33 1391.42 L929.99 1390.66 L928.88 1388.98 L927.77 1388.06 L926.03 1385.97 L921.06 1373.97 L906.27 1346.94 L902.63 1331.91 L901.2 1329.55 L889.91 1319.89 L887.8 1316.89 L884.28 1310.06 L881.85 1306.36 L872.25 1295.01 L870.72 1291.26 L870.4 1286.36 L872.2 1271.36 L871.81 1265.84 L870.68 1261.4 L858.67 1239.41 L856.66 1237.19 L854.27 1235.83 L852.17 1232.49 L850.71 1228.34 L850.01 1224.49 L851.34 1224.49 L851.8 1225.27 L851.98 1225.42 L852.26 1225.45 L852.96 1225.95 L854.58 1221.78 L857.19 1217.41 L860.68 1214.93 L864.76 1216.42 L862.05 1213.81 L859.89 1209.56 L858.67 1204.72 L858.72 1200.39 L860.57 1197.79 L863.58 1194.95 L865.68 1191.7 L864.76 1187.82 L868.02 1183.87 L868.64 1182.13 L867.76 1179.88 L869.06 1177.68 L868.66 1175.68 L867.07 1174.14 L865.82 1173.66 L866.42 1171.24 L867.23 1169.14 L867.23 1167.12 L866.38 1165.28 L866.07 1167.18 L865.68 1167.9 L864.76 1168.6 L866.38 1168.6 L863.57 1176.6 L861.05 1179.95 L857.4 1179.88 L855.71 1177.1 L856.31 1173.45 L857.47 1169.78 L857.4 1167.01 L855.92 1167.01 L854.81 1171.01 L852.81 1170.71 L850.85 1167.94 L850.01 1164.55 L850.71 1159.33 L852.65 1158.05 L855.43 1157.44 L858.72 1154.29 L857.4 1152.7 L853.81 1155.35 L852.29 1153.4 L853.65 1149.89 L858.72 1147.78 L858.72 1146.17 L848.7 1146.97 L844.46 1148.41 L841.13 1149.36 L839.09 1147.41 L839.44 1141.87 L841.71 1136.88 L845.6 1134.9 L843.93 1132.51 L844.78 1130.31 L847.1 1128.45 L850.01 1127.09 L850.01 1125.34 L847.73 1125.61 L845.73 1126.63 L844.04 1128.28 L842.64 1130.41 L841.48 1127.5 L840.46 1122.68 L839.51 1113.4 L838.86 1111.18 L835.79 1107.62 L835.11 1105.51 L835.11 1096.68 L829.56 1072.82 L829.19 1064.78 L831.44 1065.72 L832.15 1066.24 L831.04 1063.15 L829.14 1063.58 L827.57 1066.57 L827.57 1071.03 L826.23 1071.03 L823.91 1067.01 L821.79 1061.9 L820.42 1056.21 L820.21 1050.43 L821.26 1046.87 L823.2 1044.58 L825.12 1042.81 L826.23 1040.7 L825.91 1036.86 L824.06 1034.94 L821.76 1033.88 L820.21 1032.58 L819.52 1026.74 L823.34 1023.95 L828.94 1022.3 L833.63 1019.8 L835.99 1015.63 L840.99 999.04 L839.65 999.2 L836.59 999.04 L836.11 1002.57 L834 1011.6 L834.37 1013.41 L832.85 1014.64 L830.4 1017.32 L827.13 1020.05 L823.31 1021.4 L822.64 1022.57 L817.3 1025.44 L815.74 1027.78 L816.3 1031.49 L818.59 1033.26 L821.34 1034.29 L823.31 1035.77 L823.22 1040.27 L819.54 1043.13 L814.82 1042.74 L811.47 1037.51 L807.74 1010.76 L805.42 1002.24 L790.78 973.31 L763.1 934.45 L756.23 931.67 L752.41 928.13 L749.36 923.86 L747.67 920.18 L745.98 921.15 L744.55 920.01 L743.6 917.57 L743.23 914.63 L743.67 911.76 L745.71 908.88 L747.05 902.07 L750.52 892.15 L750.63 886.52 L749.03 886.52 L748.29 890.9 L744.55 903.22 L742.4 905.75 L737.63 907.24 L734.67 911.07 L733.56 916.28 L734.23 921.93 L730.97 919.45 L727.8 917.95 L724.19 917.17 L719.46 916.97 L719.46 918.72 L724 920.07 L724.58 922.29 L722.42 924.35 L718.63 925.28 L707.41 925.52 L711.32 926.77 L714.83 928.4 L716.5 929.8 L715.88 933.19 L713.17 935.19 L709.52 936.11 L706.04 936.34 L705.83 936.1 L699.19 934.7 L698.24 934.95 L697.46 934.91 L697.16 934.01 L697.27 930.44 L697.16 929.8 L694.52 928.83 L691.24 928.42 L683.85 928.33 L683.85 929.8 L686.6 932.27 L687.6 934.82 L686.07 936.5 L681.05 936.34 L681.05 938.08 L693.59 941.32 L699.33 943.75 L701.72 948.41 L700.98 951.45 L699.26 954.74 L696.76 963.75 L692.39 968.02 L688.36 971.29 L682.7 972.88 L672.04 975.08 L663.79 971.01 L659.54 964.65 L657.17 954.63 L655.02 951.85 L652.7 947.7 L650.26 940.57 L648.45 938.5 L645.3 939.54 L648.54 942.87 L651.46 949.34 L653.19 956.17 L652.7 960.65 L648.29 962.84 L641.27 963.99 L634.73 963.65 L631.88 961.29 L630.54 958.06 L624.62 953.8 L623.29 951.63 L622.58 949.5 L619.41 945.21 L617.76 938.57 L615.38 937.55 L608.99 938.08 L607.98 936.74 L605.43 928.33 L603.75 926.94 L601.76 926 L600.11 924.83 L598.68 920.64 L595.62 916.22 L594.93 914.63 L594.61 912.16 L591.97 905.75 L590.39 897.74 L588.64 893.64 L586.69 890.15 L585.11 886.25 L584.47 880.9 L583.34 878.04 L566.61 855.14 L564.29 848.94 L563.8 846.24 L563.81 843.71 L566.3 829.3 L566.61 819.65 L567.85 814.46 L570.28 809.88 L572.04 805.55 L571.16 801.1 L572.5 801.1 L568.94 793.42 L568.78 790.29 L571.16 788.24 L570.42 788.01 L569.78 787.99 L569.43 787.67 L569.54 786.47 L564.08 788.41 L560.38 783.47 L558.3 776.4 L557.74 771.99 L557.98 758.13 L559.82 752.76 L565.13 749.45 L577.74 749.51 L582.82 746.71 L582.99 738.03 L581.99 734.8 L580.77 733.46 L578.66 733.23 L574.86 733.32 L574.26 734.3 L576.18 736.47 L580.03 739.62 L578.55 744.46 L574.75 742.24 L572.37 742.02 L568.2 744.46 L562.7 746.31 L559.6 748.42 L558.65 747.57 L555.36 738.26 L556.21 731.57 L559.69 726.08 L565.13 723.51 L563.8 721.9 L563.41 722.87 L563.39 723.11 L563.13 723.17 L562.18 723.51 L560.52 721.27 L556.95 721.68 L549 724.98 L550.24 728.29 L549.14 730.29 L546.5 731.27 L543.1 731.57 L539.46 731.27 L536.66 730.29 L531.16 726.74 L532.91 730.4 L535.94 732.8 L539.53 734.19 L543.1 734.8 L551.15 735.11 L552.91 737 L553.37 758.15 L552.72 760.72 L551.03 762.14 L549.25 765.57 L547.91 769.74 L547.52 773.46 L540.25 770.32 L497.86 762.06 L489.64 759.02 L482.26 754.12 L482.05 756.85 L484.09 759.4 L512.16 776.42 L515.54 779.24 L517.55 782.18 L518.91 785.09 L520.81 787.33 L527.68 788.83 L533.68 791.87 L537.06 793.07 L551.24 794.66 L553.02 796.21 L559.36 805.91 L560.27 809.79 L561.07 818.1 L560.17 816.76 L558.51 814.44 L556.52 812.35 L557.58 816.93 L558.55 830.85 L557.74 836.45 L551.86 844.87 L550.48 846.24 L547.91 845.61 L547.38 843.65 L548.39 841.31 L550.48 839.67 L550.48 838.06 L549 838.06 L546.59 841.33 L544.21 843.67 L541.22 845.24 L537.06 846.24 L528.94 846.01 L526.25 847.08 L525.23 850.98 L525.49 852.48 L526.41 857.61 L529.42 865.01 L533.47 872.05 L537.8 877.7 L538.3 878.89 L537.93 881.63 L538.54 883.31 L539.09 883.58 L539.93 883.64 L540.83 883.9 L541.5 884.76 L544.07 886.79 L544.95 888.4 L543.84 890.6 L540.62 892.24 L537.4 891.89 L534.23 891.06 L531.16 891.32 L527.03 896.57 L525.05 904.39 L522.45 910.93 L516.37 912.32 L519.84 915.37 L518.96 918.52 L516.04 919.73 L513.41 916.97 L508.71 920.12 L511.88 922.5 L518.06 924.56 L522.27 926.72 L524.3 922.42 L527.99 923.07 L531.74 926.32 L534.1 929.8 L534.76 932.21 L535.58 939.54 L538.23 947.1 L539.04 955.29 L538.45 956.99 L536.32 959.78 L534.42 960.83 L529.49 961.57 L527.47 962.84 L526.21 966.37 L523.77 979.37 L523.75 982.9 L524.38 980.45 L525.72 979.04 L527.2 977.99 L528.2 976.5 L528.4 974.05 L527.73 969.43 L528.2 966.9 L530.34 963.7 L533.54 961.8 L537.4 961.21 L541.5 961.95 L549.21 966.81 L553.12 973.53 L555.7 981.31 L559.36 989.43 L556.05 988.32 L554.94 987.69 L554.99 992.99 L556.54 997.26 L560.84 1005.56 L561.91 1010.29 L562.11 1015.15 L560.84 1024.74 L553.93 1042.67 L548.83 1050.82 L544.58 1051.87 L538.82 1055.05 L536.53 1057.05 L535.58 1059.14 L535.07 1062.3 L533.75 1065.95 L527.55 1076.85 L525.48 1079.46 L523.01 1080.58 L520.16 1079.91 L516.48 1078.26 L513.31 1076.21 L511.93 1074.36 L513.18 1068.58 L518.43 1057.44 L519.33 1051.87 L516.81 1045.23 L516.37 1042.16 L517.69 1034.82 L517 1031.91 L513.41 1030.98 L514.36 1035.83 L512.2 1046.18 L512.67 1049.55 L514.45 1051.09 L515.84 1051.72 L516.92 1052.61 L517.73 1054.93 L517.43 1056.74 L516.42 1058.34 L514.77 1060.01 L514.47 1060.41 L514.03 1060.81 L513.61 1061.61 L513.04 1064.93 L512.2 1064.82 L511.14 1064.29 L510.33 1064.78 L509.7 1067.12 L508.97 1074.36 L508.13 1077.35 L507.23 1079.36 L503.27 1085.41 L500.52 1088.56 L499.97 1089.43 L499.04 1093.54 L494.87 1102.05 L493.95 1106.31 L493 1115.2 L490.99 1123.91 L489.3 1128.46 L487.1 1131.58 L475.18 1141.83 L472.19 1143.9 L468.08 1144.74 L463.66 1143.97 L455.53 1140.59 L451.69 1139.82 L448.2 1137.91 L447.25 1134.07 L448.73 1131.11 L452.43 1131.85 L450.81 1128.59 L452.07 1126.29 L454.24 1124.14 L455.4 1121.37 L455.03 1119.38 L454.45 1118.07 L454.35 1116.62 L455.4 1114.2 L453.24 1117.14 L449.4 1126.64 L447.32 1128.68 L445.26 1129.36 L442.56 1132.51 L440.61 1133.46 L438.76 1133.07 L435.94 1130.71 L433.37 1130.41 L434.85 1124.16 L435.43 1111.49 L437.81 1106.22 L439.82 1104.53 L442.32 1103.01 L444.78 1101.12 L446.65 1098.27 L447.69 1094.71 L448.11 1091.79 L448.85 1088.96 L450.95 1085.65 L459.84 1077.54 L460.9 1076.17 L462.46 1073.36 L463.59 1071.88 L465.49 1071 L467.43 1071.51 L469.14 1072.44 L470.3 1072.75 L474.86 1069.54 L478.23 1064.31 L479.83 1058.09 L479.18 1051.87 L475.32 1061.96 L472.63 1067.27 L469.56 1069.57 L463.75 1070.34 L460.17 1072.45 L447.32 1086.37 L445.79 1088.75 L444.04 1093.83 L441.3 1098.13 L440.63 1099.79 L439.43 1100.89 L436.33 1101.46 L434.18 1101.1 L427.3 1098.27 L428.55 1095.03 L428.77 1091.47 L430.41 1088.7 L432.46 1086.93 L434.36 1085.96 L435.75 1084.36 L436.33 1080.73 L435.59 1073.76 L436.54 1071.17 L437.33 1067.67 L439.36 1065.37 L441.77 1064.29 L443.8 1062.81 L445.05 1060.01 L439.46 1062.02 L436.75 1066.08 L433.37 1077.54 L431.42 1080.14 L425.6 1085.94 L424.35 1087.9 L424.88 1098.46 L424.35 1101.46 L421.11 1104.26 L417.2 1102.78 L413.89 1098.86 L412.56 1094.29 L412.13 1091.98 L410.23 1086.68 L409.6 1083.92 L409.12 1066.66 L407.11 1057.01 L406.64 1051.15 L406.07 1048.88 L403.31 1044.45 L402.2 1042.16 L401.39 1039.1 L401.11 1036.65 L401.43 1034.14 L402.2 1030.98 L406.48 1020.29 L424.35 994.23 L425.55 991.31 L426.34 988.47 L427.63 985.9 L430.27 983.71 L424.35 987.69 L423.65 988.42 L416.71 995.54 L413.72 999.32 L412.56 1003.03 L410.86 1006.74 L407.11 1005.66 L400.58 1000.47 L401 1005.38 L402.24 1009.37 L403.01 1013.37 L402.2 1018.35 L393.18 1035.77 L395.81 1040.73 L398.08 1049.04 L400.58 1064.78 L400.88 1072.91 L400.25 1076.87 L398.43 1079.87 L394.8 1081.83 L391.63 1081.52 L388.31 1080.58 L384.2 1080.58 L384.2 1082.33 L388.78 1084.3 L392.58 1086.77 L395.17 1090.41 L396.14 1095.88 L395.86 1098.11 L394.75 1102.31 L394.8 1104.78 L395.68 1106.93 L398.61 1111.55 L400.35 1115.99 L402.46 1118.62 L403.68 1121.63 L402.2 1125.34 L400.65 1125.95 L395.83 1126.9 L390.26 1131.85 L389.05 1133.41 L388.62 1134.5 L387.88 1135.45 L385.82 1136.63 L381.86 1138.22 L379.55 1138.54 L378.57 1137.43 L377.42 1134.07 L374.73 1134.73 L371.49 1136.94 L368.76 1138.22 L365.15 1137.96 L361.1 1137.11 L357.4 1135.63 L354.79 1133.46 L353.84 1131.65 L353.03 1129.17 L352.91 1126.58 L355.23 1122.51 L354.79 1120.29 L351.69 1115.79 L345.63 1128.68 L348.1 1132.97 L352.29 1138.82 L357.12 1143.97 L361.45 1146.17 L363.32 1148.5 L360.99 1153.08 L356.29 1156.41 L350.95 1155.01 L348.35 1153.34 L345.93 1153.27 L340.55 1154.29 L339.96 1155.6 L342.34 1161.82 L342.82 1163.83 L338.7 1168.07 L334.1 1165.15 L327.92 1155.73 L328.31 1151.62 L325.8 1141.98 L326.44 1136.63 L328.18 1133.63 L332.2 1128.93 L333.84 1125.34 L334.52 1121.49 L333.62 1104.59 L335.31 1091.03 L336.48 1086.25 L341.65 1077.02 L342.82 1071.88 L342.08 1066.91 L340.18 1062.03 L337.5 1057.67 L334.58 1054.2 L334.43 1050.95 L341.07 1042.19 L342.82 1038.31 L343.06 1033.31 L343.82 1028.49 L345.19 1023.92 L347.25 1019.8 L344.88 1021.61 L342.87 1024.57 L339.89 1030.98 L337.38 1033.55 L336.58 1035.59 L338.54 1040.99 L337.27 1043.01 L333.1 1046.21 L330.52 1050.38 L330.77 1053.45 L335.31 1061.45 L336.41 1064.35 L336.93 1066.59 L337.06 1071.88 L336.55 1074.68 L334.33 1079.15 L333.84 1081.46 L332.11 1096.35 L331.02 1099.71 L327 1101.89 L325.24 1098.29 L324.96 1087.9 L325.54 1085.45 L327.78 1080.62 L327.92 1077.54 L318.16 1054.32 L317.6 1049.55 L318.62 1039.09 L318.37 1034.42 L316.24 1029.38 L314.64 1029.38 L312.84 1044.83 L314.64 1074.36 L316.24 1074.36 L316.44 1071.08 L317.46 1068.06 L318.62 1066.36 L319.2 1067.04 L319.5 1069.06 L320.26 1071.91 L321.37 1074.73 L322.69 1076.74 L323.85 1079.41 L323.66 1082.8 L321.86 1088.7 L320.79 1089.76 L318.13 1090.25 L317.6 1091.03 L317.81 1092.72 L318.3 1093.84 L319.2 1095.08 L319.99 1097.72 L322.64 1103.43 L324.22 1105.51 L324.61 1107.12 L322.6 1119.52 L320.38 1122.23 L317.53 1124.36 L314.64 1127.09 L312.23 1131.17 L312.02 1134.47 L312.76 1138.3 L313.28 1143.94 L312.49 1149.32 L310.41 1153.73 L307.49 1157.4 L299.64 1164.22 L297.21 1164.45 L291.68 1158.18 L290.51 1154.71 L290.2 1148.73 L290.87 1138.22 L292.03 1133.97 L294.85 1126.82 L295.43 1121.37 L294.49 1116.68 L290.46 1108.81 L289.51 1104.78 L287.91 1104.78 L286.55 1108.35 L287.17 1111.35 L288.56 1114.27 L289.51 1117.53 L289.51 1121.26 L288.72 1123.4 L285.07 1127.09 L282.85 1129.9 L281.5 1132.23 L277.94 1140.86 L276.88 1142.78 L275.79 1142.85 L274.59 1139.82 L273.13 1139.82 L273.24 1145.71 L275.46 1154.8 L274.59 1160.5 L270.91 1168.55 L271.55 1171.16 L276.07 1173.36 L273.55 1176.28 L269.84 1178.98 L265.51 1180.86 L261.3 1181.32 L257.23 1178.95 L255.93 1174.63 L256.75 1170.45 L258.99 1168.6 L259.45 1166.07 L252.74 1147.01 L252.42 1145.03 L252.3 1142.28 L251.36 1141.33 L249.36 1142.63 L247.3 1144.92 L246.4 1146.99 L245.13 1148.03 L242.26 1147.24 L237.52 1144.74 L235.29 1142.75 L234.33 1141.27 L228.98 1122.26 L228.52 1118.33 L229.09 1113.51 L231.39 1103.74 L231.48 1098.27 L229.91 1093.38 L225.11 1086.76 L224.1 1083.12 L225.42 1072.4 L224.75 1068 L224.82 1067.85 L228.6 1063.09 L228.17 1057.44 L226.99 1052.82 L225.17 1048.9 L215.72 1036.49 L213.66 1031.59 L216.78 1029.44 L213.19 1023.21 L212.01 1020.35 L209.43 1007.89 L209.41 1005.61 L209.99 1003.2 L211.85 1000.12 L212.23 998.28 L211.33 992.83 L207.35 983.54 L205.41 974.87 L202.82 972.79 L196.1 970.14 L200.93 966.89 L202.25 961.5 L201.3 955.19 L199.21 949.2 L196.54 944.24 L195.65 939.03 L194.92 936.01 L192.33 929.23 L191.81 924.97 L193.28 921.77 L195.72 918.81 L198.03 915.22 L198.96 912.09 L199.81 907.53 L200.17 902.96 L199.68 899.8 L197.21 897.42 L191.16 895.47 L188.63 892.37 L184.02 881.3 L181.77 877.62 L177.66 872.41 L176.8 869.77 L176.93 865.18 L178.95 858.48 L179.51 846.42 L182.43 840.5 L194.18 827.89 L199.97 823.07 L201.88 820.85 L202.99 818.34 L203.02 816.4 L201.78 815.29 L195.88 815.5 L193.95 815.01 L192.13 814.11 L176.98 808.84 L173.31 808.09 L170.47 808.54 L168.61 809.79 L167.15 811.15 L165.42 811.96 L163.15 811.94 L148.93 807.33 L146.03 804.7 L143.87 800.17 L143.72 795.06 L145.69 790.51 L150.93 782.1 L161.46 754.04 L161.95 748.96 L159.06 746.61 L156.22 748.84 L153.67 752.78 L150.97 753.85 L147.77 747.46 L145.42 746.37 L139.08 742 L135.43 738.04 L130.37 728.89 L127.13 725.36 L125.4 725 L121.13 725.47 L118.94 724.53 L116.84 722.24 L116.7 720.68 L117.42 718.89 L117.84 715.93 L116.74 715.04 L114.51 714.59 L112.48 713.56 L112.16 710.92 L116.73 689.4 L116.41 687.21 L114.85 683.63 L114.89 681.37 L115.97 678.84 L119.14 673.82 L120.26 671.07 L120.28 668.92 L119.81 666.8 L119.58 664.66 L120.28 662.4 L123.74 659.62 L127.98 659.4 L132.47 659.8 L136.62 658.94 L139.52 656.64 L147.72 648.54 L149.83 645.83 L150.48 641.58 L149.87 636.54 L148.57 632.01 L147.11 629.23 L149.76 624.63 L152.28 621.26 L152.18 619.02 L146.96 617.77 L146.29 614.78 L142.22 611.23 L141.16 608.53 L141.44 606.35 L142.83 601.41 L143.08 598.65 L142.07 593.83 L142.02 591.54 L143.25 588.64 L145.42 586.55 L150.21 584.75 L153.57 583.12 L153.61 583.11 L154.3 581.07 L156.81 577.36 L157.54 575.18 L157.04 574.3 L156.49 570.4 L156.08 569.42 L154.88 560.03 L149.92 553.3 L142.83 548.91 L138.14 547.88 L135.84 553.31 L132.59 558.36 L127.82 558.65 L117.14 555.01 L103.13 554.36 L98.16 553.29 L82.13 540.48 L25.32 510.57 L19.08 509.2 L18.64 507.54 L16.66 504.09 L14.76 501.59 L13.9 500.7 L13.68 499.51 L13.68 487.1 L12.99 485.68 L9.84 482.39 L7.67 477.53 L4.14 476.02 L0 474.79 L1.16 467.62 L2.95 463.31 L5.77 459.17 L6.8 448.74 L9.19 447.74 L11.94 447.26 L13.46 445.05 L13.75 441.82 L14.38 438.93 L15.8 437.27 L18.61 437.75 L20.69 433.42 L23.69 430.43 L25.79 427.38 L25.16 422.87 L22.32 414.6 L21.33 412.54 L20.15 411.29 L20.15 410.24 L30.89 404.35 L34.89 402.95 L39.1 403.35 L42.63 405.77 L45.67 409.8 L47.63 414.45 L47.82 418.79 L50.43 418.94 L59.51 421.39 L63.15 421.72 L65.13 420.2 L69.05 413.17 L76.58 403.28 L79.22 397.75 L79.9 391.46 L84.9 385.15 L87.43 378.1 L89.24 362.42 L88.66 348.95 L90.78 344.96 L98.16 343.67 L101.72 344.62 L108.5 347.33 L114.31 348.92 L115.32 349.4 L116.33 349.49 L118.78 348.9 L120.3 347.88 L122.99 344.86 L124.93 344.14 L132.54 344.35 L139.1 345.64 L152.07 350.52 L164.99 351.84 L166.75 350.49 L168.95 345.34 L170.38 343.63 L172.1 343.26 L173.51 343.73 L174.94 344.57 L189.75 349.84 L195.27 350.18 L192.13 345.09 L196.08 344.24 L196.71 341.87 L196.1 338.69 L196.34 335.46 L198.22 332.89 L206.35 326.89 L207.87 324.58 L208.43 322.17 L207.94 319.9 L206.35 317.94 L195.78 318.46 L190.67 317.76 L187.04 314.01 L185.76 312.96 L181.23 312.66 L179.01 312.06 L177.49 310.72 L172.37 304.29 L171.44 301.72 L171.28 299.41 L170.65 297.4 L168.32 295.68 L168.26 294.22 L171.94 285.71 L171.63 280.59 L169.67 277.45 L166.91 274.99 L164.29 271.82 L162.42 270.19 L155.84 267.6 L155.98 271.82 L153.83 272.82 L151.77 272.72 L149.83 272.39 L148.11 272.66 L145.82 274.59 L143.97 276.92 L142.02 278.84 L139.48 279.56 L134.95 278.49 L127.98 273.92 L123.74 271.84 L114.51 271.51 L110.04 270.61 L107.91 268.43 L106.25 264.98 L100.37 260.44 L98.16 255.66 L90.02 251.51 L86.99 248.54 L86.05 233.77 L80.33 227.29 L64.59 216.61 L51.53 201.28 L44.51 197.62 L34.82 200.46 L31.26 202.58 L26.97 204.48 L22.92 204.67 L20.15 201.71 L18.66 197.13 L17.65 195.09 L14.24 191.2 L14.24 189.03 L14.54 186.95 L13.04 183.29 L11.38 172.64 L12.03 171.52 L13.17 170.76 L14.34 169.01 L18.34 155.36 L22.52 147.31 L27.97 142.99 L29.46 138.38 L29.13 135.74 L27.96 134.4 L26.62 133.55 L25.83 132.36 L25.56 129.98 L25.88 128.73 L26.55 127.44 L28.96 119.58 L30.73 116.69 L37.9 112.07 L39.79 110.44 L41.15 108.67 L42.65 107.12 L45.01 106.19 L49.45 105.23 L62.09 100.87 L65.89 98.5 L67.68 94.91 L67.33 86.12 L68.13 82.6 L71.39 77.97 L74.66 74.97 L84.83 68.5 L86.43 66.44 L87.47 64.22 L88.7 63.19 L90.94 64.66 L92.37 65.31 L94.39 65.41 L96.54 65.16 L98.16 64.73 L102.97 65.48 L102.5 59.35 L98.16 46.32 L95.08 41.04 L89.33 38.31 L76.85 35.85 L71.79 33.62 L70.27 33.75 L69.51 35.4 L68.91 40.97 L67.91 42.41 L65.08 41.55 L63.47 38.34 L63.21 34.35 L64.39 31.12 L67.21 26.34 L71.64 10.86 L73.25 7.37 L75.9 2.89 L78.66 0 L80.63 1.34 L80.96 5.8 L80.76 10.93 L81.39 15.69 L84.23 18.98 L91.9 21.29 L95.34 22.92 L98.16 26.27 L100.87 28.49 L103.19 31.13 L104.96 32.88 L109.29 35.84 L114.25 37.95 L116.03 38.18 L120.62 38.1 L123.21 39.26 L124.67 41.62 L125.9 44.35 L127.62 46.61 L129.97 48.13 L132.27 49.2 L137.3 50.4 L136.36 52.35 L135.92 54.45 L136.43 56.11 L138.34 56.75 L139.95 57.51 L139.72 61.75 L141 63.55 L145.96 66.07 L148.87 68.4 L149.41 71.39 L147.41 75.88 L144.63 78.25 L136.65 82.29 L135.04 84 L138.85 86.79 L157.14 80.02 L164.95 83.05 L166.68 86.75 L168.08 90.84 L170.14 94.27 L173.78 95.93 L177.2 94.61 L180.45 86.63 L184.81 83.67 L190.63 84.75 L200.18 94.4 L206.35 96.47 L215.9 94.02 L220.28 90.96 L219.12 86.47 L216.78 85.73 L214.2 85.64 L212.63 84.07 L213.41 78.9 L211.39 80.26 L209.45 80.77 L207.73 80.18 L206.35 78.22 L204.33 71.34 L198.96 68.53 L192.74 66.39 L188.28 61.6 L188.15 57.49 L189.93 52.98 L192.64 48.93 L195.36 46.3 L198.92 44.53 L200.9 45.13 L202.88 47.16 L206.35 49.74 L208.77 50.99 L212.07 54.75 L214.04 56.43 L216.4 57.38 L221.15 58.63 L223.07 60.19 L224.08 63.09 L223.39 65.18 L223.63 66.86 L227.23 68.4 L232.4 69.88 L233.96 71.61 L234.09 74.9 L232.2 75.91 L229.07 74.44 L226.59 74.77 L226.71 81.25 L228.11 85.19 L232.43 92.44 L234.06 96.27 L235.86 110.9 L237.48 115.21 L240.16 118.31 L254.5 124.59 L257.7 126.69 L259.96 129.68 L261.3 134.35 L263.11 136.54 L270.76 140.06 L275.94 146.16 L279.88 148.9 L284.24 150.88 L287.74 151.29 L291.27 149.22 L293.86 146.85 L296.39 146.81 L299.68 151.72 L300.68 152.17 L301.73 152.31 L302.83 152.17 L303.95 151.75 L303.96 151.72 L315.69 150.71 L316.78 150.84 L317.86 151.18 L318.88 151.72 L321.93 157.12 L323.82 159.66 L326.03 160.85 L328.91 160.23 L330.51 158.03 L331.1 154.98 L330.85 151.72 L332.69 145.18 L342.15 137.22 L343.98 133.14 L342.36 130.14 L339.53 130.05 L336.54 130.63 L334.39 129.56 L334.37 126.69 L336.74 124.7 L339.91 123.08 L342.44 121.45 L338.45 120.93 L334.9 119.19 L333.47 116.18 L335.77 111.81 L337.18 110.51 L338.66 109.76 L340.23 109.64 L344.64 110.97 L344.83 109.79 L343.36 107 L342.91 99.68 L344.41 97.66 L349.08 96.1 L353 96.86 L354.16 100.44 L354.04 105.43 L353.91 110.69 L353.6 111.67 L354.11 112.17 L356.75 113.4 L358.34 113.64 L362.66 113.24 L364.58 113.39 L367.17 115.47 L368.43 119.06 L369.39 123.03 L371.11 126.31 L373.95 130.33 L374.23 133.3 L373.71 136.32 L374.03 140.52 L375.25 142.73 L379.7 148.55 L381.33 151.71 L382.52 153.43 L383.84 153.91 L385.25 153.27 L386.72 151.71 L386.79 151.71 L386.82 151.69 L387.19 151.49 L387.55 151.41 L387.86 151.46 L388.11 151.71 L391.01 155.49 L390.35 158.79 L387.31 161.31 L383.08 162.78 L387.13 165.27 L390.53 165.58 L392.25 166.96 L391.31 172.68 L381.98 189.23 L381.15 195.17 L385.14 216.74 L390.05 228.89 L392.25 238.33 L390.24 255.2 L389.83 273.26 L386.66 285.16 L384.96 291.54 L384.64 293.93 L383.73 300.82 L384.49 308.98 L386.4 317.5 L388.93 322.17 L392.29 322.78 L400 319.64 L408.21 319.31 L456.24 339.73 L490.18 347.27 L506.99 354.46 L514.6 354.69 L536.58 349.96 L554.32 351.58 L563 349.33 L566.06 349.42 L568.52 350.19 L573.2 352.36 L581.23 353.74 L583.11 353.6 L584.34 352.88 L586.64 350.42 L587.78 349.81 L591.25 350.26 L594.04 351.94 L596.75 353.99 L599.9 355.56 L605.96 356.3 L630.38 352.93 L632.24 352.68 L639.11 350.19 L673.78 344.6 L685.79 345.02 L688.45 344.57 L693.17 342.11 L695.49 342.04 L705.94 347.53 L737.94 357.34 L746.42 358.3 L748.52 357.98 L752.88 356.57 L755.21 356.25 L757.76 355.61 L761.38 352.63 L763.24 351.8 L767 352.07 L768.58 353.91 L770.04 356.63 L773.5 359.5 L777.17 360.4 L782.7 360.66 L787.75 359.9 L789.96 357.68 L791.08 353.83 L793.57 353.74 L796.36 355.14 L798.28 355.73 L799.81 354.49 L801.1 351.6 L802.49 350.28 L805.78 349.82 L816.24 350.79 L839.37 347.86 L851.43 349.73 L855.5 348.39 L861.27 346.57 L868.24 346.88 L875.18 348.59 L880.99 350.94 L882.63 352.28 L884.77 355.68 L886.02 356.98 L887.75 357.57 L890.88 357.71 L892.38 358.83 L893.56 359.3 L896.54 358.39 L898.26 358.77 L899.67 360.03 L902.89 364.22 L905.91 366.86 L908.52 368.7 L911.45 370 L915.32 370.99 L926.57 372.55 L928.43 373.91 L931.9 378.83 L937.98 381.46 L943.35 384.7 L944.19 389.15 L944.61 391.38 L944.62 391.44 L944.62 391.46 L946.3 391.91 L950.01 393.27 L950.07 393.29 L950.1 393.3 L950.14 394.03 L950.15 394.09 L957.07 399.26 L957.08 399.27 L959.08 400.26 L959.14 400.29 L959.96 401.38 L960.01 401.45 L958.27 403.03 L958.22 403.08 L963.52 405.4 L963.54 405.41 L965.58 407.43 L967.2 411.2 L967.21 411.23 L967.91 415.39 L967.26 418.04 L964.26 422.77 L956.54 424.8 L943.28 429.26 L941.16 428.97 L939.57 428.23 L939.55 428.2 L938.65 427 L938.64 426.94 L938.43 425.22 L938.39 425.19 L923.73 416.24 L923.7 416.22 L915.46 413.45 L909.15 416.22 L907.99 420.22 L908.88 424.41 L908.88 424.44 L911.73 432.05 L911.75 432.1 L912.15 435.96 L912.06 439.67 L911.48 443.36 L900.47 474.4 L898.42 483.65 L897.43 491.76 L896.29 495.36 L894.03 498.84 L893.34 499.4 L890.88 501.42 L887.55 503.4 L884.88 506.04 L883.81 510.57 L884.95 525.06 L884.17 531.79 L879.99 537.57 L874.46 540.1 L868.11 540.61 L850.06 539.06 L849.81 541.88 L854.69 549.91 L854.87 553.15 L850.73 551.5 L845.95 548.18 L843.98 546.39 L839.21 547.93 L838.48 552.19 L840.73 561.63 L840.53 566.31 L835.86 586.5 L834.29 590.65 L831.56 592.42 L827.18 591.29 L820.58 584.7 L820.07 582.59 L819.71 577.25 L819.13 575.68 L816.87 575.57 L803.09 572.56 L800.95 575.72 L801.55 580.21 L802.89 585.04 L803.03 589.16 L800.54 592.8 L796.76 594.23 L792.54 593.63 L788.64 591.15 L786.7 587.49 L782.87 577.92 L780.62 577.06 L779.63 579.88 L777.31 594.9 L775.63 599.94 L773.57 603.23 L770.39 605.34 L765.38 606.86 L756.48 607.92 L748.45 607.25 L732.04 603.67 L723.05 604.45 L720.41 610.52 L720.07 619.57 L717.86 629.24 L715.26 630.98 L712.92 630.6 L711.23 629.89 L710.48 629.56 L707.59 629.34 L703.81 630.9 L700.95 633.49 L698.67 636.63 L691.29 649.8 L690.35 653.1 L690.53 656.35 L692.96 661.85 L693.86 664.81 L693.23 669.27 L688.89 682.17 L686.68 686.05 L682.7 688.09 L678.58 688.46 L675.16 689.66 L673.13 694.21 L674.04 699.35 L677.47 701.22 L681.04 702.55 L682.41 706.11 L680.51 709.94 L677.44 709.7 L674.71 710.06 L673.98 715.74 L674.96 719.86 L681.25 731.69 L682.9 735.87 L684.71 743.59 L686.7 747.46 L688.49 749.17 L692.27 751.54 L693.68 753.69 L694.2 755.48 L695.22 761.36 L698.13 771.38 L700.35 776.13 L703.12 778.26 L705.94 779 L706.65 780.39 L705.71 782.25 L703.54 784.41 L702 786.56 L702.38 788.4 L703.54 790.3 L704.48 792.71 L709.52 830.61 L712.33 840.32 L717.5 847.37 L724.75 849.32 L725.55 841.57 L721.5 821.83 L721.46 811.35 L722.6 805.84 L725.01 802.46 L729.82 802.28 L733.98 805.58 L737.14 810.08 L738.95 813.53 L738.88 813.33 L739.62 811.7 L739.69 811.5 L741.1 813.38 L741.16 814.96 L740.87 816.32 L741.1 817.53 L744.29 820.7 L744.81 820.77 L746.28 828.03 L747.29 830.43 L752.28 847.63 L753.4 853.64 L754 854.4 L756.06 854.96 L756.62 855.84 L756.89 862.76 L757.8 865.21 L760.6 868.35 L763.46 869.44 L766.35 869.97 L769.3 871.42 L770.66 874.01 L770.64 876.33 L771.31 877.14 L774.85 875.14 L776.12 873.41 L776.93 871.18 L777.93 869.24 L779.9 868.42 L781.42 868.72 L782.96 869.26 L784.48 869.59 L786.03 869.24 L788.96 868.17 L794.82 866.88 L797.48 865.18 L799.09 863.35 L802.74 860.01 L804.26 858.29 L807.88 852.75 L808.15 851.82 L807.99 850.72 L808.08 849.62 L809.15 848.69 L809.87 848.65 L811.93 848.83 L812.46 848.74 L815.73 845.19 L816.65 843.04 L815.86 840.3 L813.07 833.09 L809.8 816.89 L806.6 809.4 L805.42 800 L809.51 788.4 L815.8 777.37 L821.43 769.69 L824.92 766.63 L836.89 761.44 L840.35 758.91 L843.17 755.77 L848.07 747.46 L848.41 738.2 L842.7 710.87 L842.37 701.85 L842.81 696.76 L844.16 693.66 L847.18 693.53 L849.88 696.78 L852.59 701.19 L861.65 711.52 L865 713.25 L870.06 711.95 L873.79 708.66 L880.84 698.77 L884.35 694.78 L893.52 691.61 L897.81 698.23 L900 707.27 L902.93 711.34 L906.2 708.16 L908.95 697.25 L912.55 695.11 L917 697.56 L917.09 698.47 L917.52 702.61 L914.99 712.65 L915.59 720.52 L923.87 747.43 L925.12 758.92 L926.13 762.41 L927.27 764.28 L930.09 767.04 L931.29 769.08 L931.63 770.85 L931.29 774.11 L931.58 775.74 L932.66 777.3 L935.52 779.55 L936.33 780.73 L936.53 782.89 L935.92 787.52 L935.99 789.85 L937.11 793.75 L938.11 796.04 L938.25 798.44 L936.77 802.67 L932.88 810.85 L931.99 814.4 L931.78 823.76 L937.29 857.05 L937.11 873.41 L938.76 881.33 L942.83 887.48 L950.01 890.42 L953.14 894.38 L955.02 912.64 L956.54 919.77 L959.07 923.28 L964.91 928.4 L967.26 931.94 L968.2 935.56 L969.72 953.62 L969.27 967.23 L970.07 971.16 L972.85 978.47 L973.18 982.5 L985.75 1058.93 L985.44 1064.86 L982.98 1066.02 L979.76 1065.98 L977.16 1068.29 L982.06 1084 L984.9 1099.39 L985.35 1101.46 Z M846.94 1154.29 L847.63 1164.81 L855.45 1180.2 L857.4 1189.41 L856.93 1194.32 L854.92 1204.09 L854.44 1209.33 L852.47 1213.38 L847.73 1213.57 L842.29 1212.61 L838.07 1213.24 L838.07 1214.49 L839.07 1216.25 L839.17 1218.06 L836.59 1219.44 L834.3 1219.23 L832.41 1217.89 L831.14 1215.99 L830.21 1211.87 L829.56 1210.28 L829.61 1208.61 L832.99 1203.72 L833.56 1201.32 L833.63 1195.77 L832.52 1186.38 L827.97 1170.88 L829.19 1162.25 L831.23 1157.64 L833.26 1155.49 L835.64 1155.71 L838.81 1158.18 L839.86 1161.21 L838.86 1164.81 L837.27 1168.51 L836.59 1171.77 L839.97 1167.6 L841.31 1162.02 L841.06 1156.11 L839.51 1150.95 L843.38 1150.36 L846.94 1149.36 L847.01 1153.09 Z M236.73 1149.36 L241.77 1152.7 L243 1159.1 L240.36 1163.23 L233.82 1159.7 L222.84 1146.55 L222.82 1145.64 L224.19 1144.2 L225.58 1139.82 L225.49 1135.3 L223.31 1127.54 L222.75 1123.91 L221.36 1119.84 L221.57 1117.67 L224.1 1117.53 L225 1118.17 L225.74 1119.27 L226.32 1120.63 L227.17 1123.91 L229.28 1139.62 L231.76 1146.5 Z M836.59 1129.54 L835.88 1133.24 L832.84 1139.23 L831.2 1147.3 L826.5 1160.01 L824.65 1162.25 L822.8 1158.34 L826.23 1139.02 L824.65 1127.09 L825.44 1123.03 L827.01 1120.03 L832.15 1114.2 L832.99 1114.92 L833.35 1115.68 L833.63 1117.53 L836.23 1126.25 Z M556.52 1101.46 L556.52 1106.22 L557.35 1107.34 L558.11 1108.92 L559.36 1112.6 L555.94 1113.46 L553.78 1118.74 L551.98 1117.53 L550.48 1117.53 L548.65 1122.23 L545.11 1127.27 L540.88 1130.64 L537.06 1130.41 L537.06 1128.68 L538.61 1128.32 L541.36 1127.32 L543.1 1127.09 L541.25 1124.43 L540.16 1123.22 L538.54 1122.15 L539.95 1120.61 L539.93 1118.81 L539.62 1116.69 L540.14 1114.2 L541.04 1112.6 L541.99 1111.48 Z M499.97 1112.6 L504.69 1103.75 L508.46 1099.54 L513.41 1098.27 L512.62 1103.39 L507.18 1112.62 L502 1130.91 L499.97 1133.42 L497.97 1134.73 L497.03 1134.18 L497.03 1123.33 L497.88 1117.76 Z M511.93 1087.11 L510.56 1092.93 L504.43 1099.96 L502.95 1104.78 L501.58 1104.78 L502.93 1099.81 L505.7 1093.02 L508.99 1087.69 Z M522.27 1088.7 L530.51 1097.47 L533.29 1103.74 L531.16 1111.15 L526.51 1113.94 L521.55 1119.84 L518.01 1121.53 L515.16 1120.05 L513.46 1116.65 L513.41 1112.6 L514.59 1109.3 L516.04 1106.87 L517.22 1103.92 L517.73 1098.99 L517.22 1091.62 L518.01 1089.38 L520.81 1087.11 Z M545.9 1083.92 L544.58 1082.33 L535.28 1087.82 L534.1 1090.16 L532.75 1090.16 L533.17 1084.7 L534.49 1079.61 L536.96 1075.83 L540.8 1074.36 L543.53 1072.62 L549.28 1066.17 L551.98 1066.24 L553.83 1063.56 L556.36 1061.09 L558.9 1059.65 L560.84 1060.01 L556.52 1074.36 L556.51 1072.04 L556.15 1070.51 L554.94 1067.83 L552.42 1075.87 L551.15 1084.76 L549.21 1092.78 L544.58 1098.27 L540.51 1099.56 L538.24 1098.46 L537.29 1095.87 L537.06 1092.69 L538.23 1090.58 Z M631.88 1050.43 L633.04 1048.89 L633.92 1048.69 L634.56 1049.72 L635.12 1051.87 L635.12 1064.5 L633.45 1069.92 L629.2 1071.03 L627 1067.46 L627.23 1060.94 L628.8 1053.89 L630.54 1048.69 Z M639.38 1054.93 L639.52 1042.44 L640.79 1037.77 L643.82 1039.1 L644.01 1043.4 L643.36 1048.38 L641.85 1052.69 Z M634.29 1045.35 L630.89 1043.96 L631.54 1040.66 L633.78 1036.74 L635.12 1033.45 L635.88 1022.85 L637.16 1017.14 L639.38 1013.41 L641 1015.15 L642.22 1018.69 L643.08 1023 L643.27 1027.74 L642.34 1032.58 Z M676.7 1014.88 L678.34 1020.72 L681.58 1023.63 L683.74 1032.06 L683.85 1037.51 L684.91 1045.12 L681.4 1052.27 L679.3 1055.8 L677.88 1058.7 L675.1 1064.18 L670.61 1067.89 L667.51 1069.91 L664.76 1070.57 L662.32 1074.65 L658.18 1077.34 L652.84 1077.04 L649.35 1076.17 L646.92 1074.48 L645.59 1071.04 L651.83 1063.58 L655.79 1057.35 L657.27 1053.47 L659.26 1042.09 L659.44 1025.65 L660.67 1007.5 L664.45 1006.86 L671.95 1010.71 Z M562.18 999.04 L560.87 998.13 L559.43 998.41 L558.23 998 L557.74 994.97 L558.27 993.52 L559.57 993.04 L561.05 993.35 L562.18 994.23 L565.1 997.43 L568.25 1003.14 L570.63 1009.62 L571.16 1015.15 L568.78 1010.41 L568.2 1008.63 L566.67 1012.78 L568.04 1022.13 L566.61 1026.18 L565.5 1024.11 L565.29 1021.59 L565.35 1018.98 L565.13 1016.61 L566.61 1016.61 L565.24 1012.41 L563.58 1003.2 Z M568.2 999.04 L569.5 985.29 L570.05 985.94 L571.16 986.09 L572.06 988.64 L572.43 991.15 L572.5 995.69 L570.28 996.95 L569.54 997.56 Z M678.81 980.61 L687.76 977.97 L690.11 982.46 L687.99 987.93 L683.49 990.96 L679.01 992.97 L673.52 993.25 L669.09 990.45 L671.23 983.96 Z M745.67 961.19 L764.88 986.52 L766.46 996.49 L764.63 1004.35 L754.31 1005.58 L747.5 1001.71 L741.11 992.36 L737.46 983.05 L736.19 975.49 L741.17 963.54 Z M599.16 982.51 L608.7 991.18 L613.11 996.71 L608.78 1018.96 L609.04 1056.71 L607.24 1062.73 L595.74 1080.6 L591.97 1083.92 L591.66 1082.92 L590.39 1080.58 L585.42 1085.79 L583.41 1087.02 L577.76 1096.68 L575.86 1097.39 L573.17 1098.86 L570.42 1099.99 L568.2 1099.71 L566.46 1094.56 L569.01 1087.9 L573.06 1080.83 L575.63 1074.36 L563.55 1091.98 L560.1 1092.69 L558.69 1088.05 L559.6 1081.43 L562.04 1074.67 L565.13 1069.57 L562.74 1064.44 L564.82 1055.79 L573.83 1036.08 L574.91 1032.25 L575.63 1027.78 L575.65 1014.09 L576.97 1010.06 L575.23 1003.15 L574.75 998.58 L575.63 995.69 L575.63 994.23 L573.2 989.88 L570.68 975.7 L568.2 970.1 L564.71 966.99 L552.51 958.25 L549 957.3 L547.96 948.65 L548.47 940.47 L553.3 921.16 L554.78 918.57 L557.1 916.85 L560.84 915.37 L564.64 914.44 L568.87 914.02 L571.04 920.97 L573.41 929.28 L576.12 935.85 L579.86 943.47 L582.92 949.01 L586.33 953.17 L589.73 958.71 L591.36 970.07 L594.05 977.31 Z M567.72 899.5 L571.7 904.28 L574.86 909.11 L571.42 909.78 L564 908.23 L555.97 907.8 L549.65 913.7 L546.36 914.9 L543.12 918.29 L542.71 924.13 L543.78 927.78 L540.83 931.77 L538.66 929.2 L535.9 926.6 L535.58 924.41 L534.74 922.04 L532.59 920.52 L526.71 918.72 L528.54 916.03 L528.86 913.87 L528.2 907.35 L528.31 903.07 L528.94 898.92 L530.53 895.77 L533.44 894.53 L540.87 895.89 L544.42 895.39 L545.9 892.12 L547.7 891.88 L556.26 891.84 L559.36 892.93 L563.72 897.64 Z M572.5 875.13 L566.93 875.3 L565.13 875.13 L567.6 876.78 L569.75 878.82 L571.42 881.05 L572.5 883.31 L565.77 882.57 L563.8 881.7 L562.18 879.95 L559.59 875.23 L557.74 873.68 L555.48 873 L554.62 873.4 L553.86 874.3 L551.98 875.13 L549.64 875.47 L543.76 875.55 L541.5 875.13 L538.03 869.78 L542.35 862.29 L549.55 856.42 L554.94 855.88 L559.5 859.82 L567.74 870 L572.5 873.68 Z M538.54 847.85 L539.99 850.14 L539.67 851.87 L536.32 855.14 L531.48 861.17 L529.68 862.29 L527.84 852.68 L526.71 849.32 L535.07 849.29 L536.82 848.83 Z M541.5 788.24 L537.61 790.14 L533.49 788.99 L529.53 786.03 L522.71 778.92 L520.4 775.58 L521.07 773.41 L526.71 773.46 L534.53 776.27 L544.81 781.7 L553.09 787.91 L554.94 793.07 L547.01 787.3 L542.68 785.57 Z "/>
</g>
</svg>
