<svg xmlns="http://www.w3.org/2000/svg" viewBox="0 0 1000 1325.74">
<g fill="#ccc" stroke="#333" stroke-width="0.5" stroke-linejoin="round">
<path fill-rule="evenodd" d="M1000 832.41 L986.22 988.12 L873.25 1105.02 L785 1166.22 L733.26 1202.06 L639.46 1298 L604.91 1302.22 L576.8 1301.85 L549.59 1306.63 L519.51 1325.74 L476.19 1251.13 L394.92 1204.45 L296.1 1181.11 L237.38 1176.88 L202.65 1174.5 L143.57 1132.41 L92.73 1033.33 L35.8 832.41 L0 223.52 L8.77 153.43 L39.92 94.2 L102.4 29.81 L181.88 0 L262.8 44.16 L323.31 135.77 L344.43 181.58 L375.04 248.17 L459.36 431.18 L517.36 511.55 L599 574.26 L714.46 662.7 L781.06 701.32 L867.17 729.45 L948.44 766.96 Z "/>
</g>
</svg>
