<svg xmlns="http://www.w3.org/2000/svg" viewBox="0 0 1000 871.34">
<g fill="#ccc" stroke="#333" stroke-width="0.5" stroke-linejoin="round">
<path fill-rule="evenodd" d="M46.12 824.01 L45.71 821.76 L44.28 820.9 L42.61 820.26 L41.31 817.63 L42.03 817.7 L42.74 817.63 L40.45 813.67 L39.54 811.33 L39.17 808.91 L39.72 804.35 L39.58 802.72 L38.39 801.42 L38.39 800.16 L39.33 800.03 L39.97 799.64 L41.31 797.97 L40.79 797.24 L40.16 796.07 L39.82 794.99 L40.23 794.51 L41.19 794.05 L40.96 793 L40.25 791.81 L39.87 790.94 L40.47 787.05 L40.89 785.23 L41.31 784.02 L43.09 781.96 L45.28 780.61 L47.3 778.61 L48.46 774.68 L46.54 772.06 L44.89 769 L46.06 767.59 L46.5 763.92 L47.75 763.21 L47.7 762.43 L47.62 762.23 L47.44 762.22 L47.03 762.06 L47.71 760.14 L47.78 754.64 L48.46 751.52 L50.44 746.81 L51.82 744.63 L53.46 743.41 L52.26 740.5 L50.78 734.08 L49.91 731.96 L49.81 729.99 L49.38 728.03 L48.11 727.13 L47.12 726.69 L46.5 725.62 L45.97 724.23 L45.27 722.91 L43.3 721.71 L38.34 721.86 L36.3 721.22 L33.39 715.39 L33.82 714.79 L34.11 712.74 L33.71 711.46 L31.96 713.17 L31.26 712.36 L30.23 711.49 L29.81 710.73 L28.38 712.48 L27.38 712.29 L26.44 711.31 L25.13 710.73 L23.63 711.31 L23.32 711.03 L24.09 709.45 L24.09 708.39 L21.9 708.16 L15.39 705.71 L14.02 704.32 L12.41 704.95 L4.88 702.91 L2.52 701.4 L3.35 698.36 L3.02 696.11 L1.87 694.43 L1.09 693.77 L0.32 693.12 L0 693.04 L4.86 683.09 L6.78 680.08 L10.98 674.93 L23.72 655.26 L32.95 647.55 L42.22 642.13 L59.71 637.13 L73.62 627.62 L77.78 622.47 L79.22 615.09 L79 609.9 L78.13 588.89 L77.86 587.57 L77.43 586.69 L77.08 585.65 L76.98 583.79 L77.27 582.42 L78.43 580.08 L78.74 579.01 L78.7 577.61 L77.81 572.77 L77.8 571.66 L78.05 569.57 L77.88 568.24 L76.68 565.66 L73.51 561.57 L72.61 558.62 L72.75 555.22 L73.76 552.82 L75.02 550.72 L75.96 548.21 L76.2 543.98 L75.1 541.88 L73.3 540.48 L71.43 538.42 L70.19 535.71 L69.38 533.17 L68.35 530.7 L66.47 528.17 L64.62 523.18 L60.43 506.62 L58.33 501.07 L53.4 490.77 L44.52 463.38 L42.02 451.06 L41.78 440.21 L41.77 440.21 L39.23 436.46 L38.12 432.81 L37.16 423.39 L36.09 418.92 L34.7 414.83 L33.62 410.49 L33.49 405.28 L37.11 406.22 L46.51 411.94 L48.3 412.58 L49.92 412.44 L55.08 410.22 L61.63 409.28 L63.45 407.94 L65.06 407.3 L65.78 407.45 L67.67 408.56 L68.55 408.83 L69.36 408.7 L77.36 404.07 L78.94 403.77 L80.57 404.45 L83.65 406.45 L85.37 406.86 L92.08 406.78 L95.18 405.91 L101.64 402.41 L105.08 401.79 L108.38 402.93 L111.32 406.51 L113.12 411.62 L114.24 413.32 L116.26 413.72 L119.8 413.56 L123.12 414.56 L126.88 414.6 L130.67 412.67 L142.67 401.89 L147.95 398.82 L154.63 397.5 L157.13 395.57 L157.52 395.5 L157.91 395.6 L158.29 395.84 L159.64 399.31 L161.19 400.85 L163.1 400.99 L169.88 399.87 L171.73 398.87 L173.06 395.84 L173.08 395.83 L173.09 395.81 L173.1 395.8 L173.3 390.93 L172.37 387.54 L170.97 384.49 L169.72 380.64 L169.24 377.92 L169.42 377.32 L170.08 377.25 L171.01 376.07 L172.97 374.84 L173.02 374.15 L172.89 372.96 L172.9 371.61 L173.32 370.48 L176.4 368.62 L176.93 368.3 L181.77 367.76 L186.59 368.45 L194.84 371.67 L199.54 370.9 L204.1 367.93 L208.38 363.12 L210.12 359.39 L212.26 350.96 L213.59 348.61 L215.46 348.29 L222.1 350.68 L230.7 350.2 L233.24 348.54 L237.44 342.33 L240.08 341.06 L241.41 341.37 L242.1 342.06 L242.61 343.07 L249.99 353.18 L249.1 353.85 L246.65 353.65 L244.51 354.88 L244.26 356.66 L246.78 358.02 L247.37 359.55 L246.61 360.88 L243.62 361.92 L242.85 363.18 L243.64 366.37 L246.01 368.65 L248.84 370.05 L258.11 371.59 L260.4 371.52 L261.5 370.87 L263.15 368.55 L264.29 368.03 L268.21 368.57 L269.46 368.39 L271.87 366.57 L272.7 363.76 L272.8 355.58 L273.12 354.75 L274.36 353.09 L274.61 352.29 L274.34 351.2 L273.83 350.82 L273.25 350.61 L272.83 350.01 L272.14 348.03 L271.32 346.42 L270.39 345.11 L269.38 343.98 L268.91 343.87 L267.7 344.27 L267.28 344.17 L266.88 343.51 L265.77 340.32 L265.45 338.57 L264.85 337.1 L263.42 336.26 L261.85 336.68 L255.58 339.99 L251.03 340.3 L248.76 339.41 L247.33 337.1 L247.48 332.58 L249.44 328.7 L254.25 322.88 L256.12 318.98 L256.51 315.51 L256.43 311.76 L256.89 307.04 L258.03 303.39 L259.63 301.22 L266.04 297.41 L268.04 295.35 L269.5 292.54 L270.04 288.95 L269.45 285.46 L266.85 279.04 L266.15 275.46 L266.27 273.17 L266.72 271.38 L267.27 269.71 L267.68 267.79 L267.85 265.92 L267.49 256.66 L267.81 254.23 L268.93 252.61 L271.21 250.56 L272.24 250.03 L272.95 250.01 L273.48 249.67 L273.95 248.14 L273.88 246.63 L272.98 243.01 L272.83 241.38 L273.93 237.96 L276 235.79 L278.44 233.9 L280.62 231.31 L281.29 229.45 L281.48 227.8 L281.85 226.44 L283.09 225.37 L287.03 223.69 L288.94 223.75 L292.75 224.63 L294.7 224.67 L307.41 222.06 L311.18 219.88 L312.75 218.14 L314.5 215.45 L316.33 212.62 L320.18 204.2 L320.68 202.64 L320.87 200.44 L320.78 195.9 L321.06 193.82 L324.35 188.61 L329.06 187.78 L340.66 190.8 L341.55 190.78 L342.58 190.45 L343.22 189.73 L343.84 188.66 L344.73 187.76 L346.22 187.59 L357.27 192.55 L359.57 192.14 L361.18 189.47 L362.35 184.15 L363.02 179.06 L363.78 177.11 L365.43 174.82 L368.44 171.83 L370.05 170.87 L374.12 169.78 L376.8 169.06 L379.32 167.13 L380.48 164.17 L379.52 161.07 L377.12 159.22 L359.75 156.16 L353.44 157.87 L351.66 157.78 L345.42 155.43 L343.78 154.29 L343.3 152.37 L344.32 148.94 L346.82 144.29 L347.54 142.55 L348.93 135.68 L349.82 133.64 L353.53 129.86 L353.87 127.71 L351.9 123.85 L352.37 119.4 L354.41 116.02 L356.97 113.05 L359.01 109.82 L360.01 105.73 L360.27 100.85 L359.87 95.88 L358.9 91.48 L361.11 87.58 L363.67 86.17 L366.47 86.47 L372.04 88.71 L374.44 88.53 L382.8 84.21 L384.88 81.75 L390.89 70.71 L396.92 63.29 L399.19 61.85 L399.36 61.74 L412.93 59.99 L417.19 60.7 L419.47 61.96 L425.99 67.52 L428.87 69.13 L430.9 68.26 L435.79 63.48 L437.94 60.93 L440.55 63.99 L443.82 65.94 L447.27 66.98 L460.44 68.2 L463.38 67.82 L464.3 64.96 L465.2 60.98 L465.94 52.11 L468.85 43.84 L479.26 36.94 L482.67 30.83 L483.11 26.34 L486.39 22.95 L493.52 17.45 L494.78 14.97 L495.7 12.67 L496.74 10.62 L498.37 8.91 L499.69 8.22 L504.02 7.29 L508.5 5.1 L511.36 3.03 L513.15 1.73 L517.63 0 L521.6 2.7 L523.71 5.93 L530.97 13.93 L534.2 18.51 L536.35 20.68 L538.55 21.42 L540.91 20 L544.37 14.59 L546.81 12.81 L562.3 11.1 L568.26 12.1 L570.01 12.83 L570.98 13.86 L572.69 17.1 L576.34 22.38 L577.25 24.28 L578.23 28.68 L578.81 33.13 L579.95 36.92 L582.62 39.36 L590.68 41.65 L592.98 41.07 L593.2 36.71 L596 33.82 L602.53 30.88 L602.54 30.87 L602.56 30.86 L608.67 26.88 L613.9 24.88 L619.96 25.06 L625.9 27.16 L630.87 30.88 L634.13 33.49 L650.18 38.01 L652.09 39.19 L653.91 41.01 L655.85 43.59 L656.85 45.32 L657.2 46.81 L656.79 48 L656.08 48.19 L655.22 48.1 L654.37 48.48 L653.36 49.25 L652.51 49.62 L651.71 50.27 L650.89 51.85 L650.53 53.47 L650 58.03 L649.61 59.97 L647.12 66.22 L646.64 69.17 L647.39 73.07 L648.72 75.78 L653.91 80.19 L658.93 87.71 L661.01 88.86 L663.86 88.04 L671.95 78.28 L682.29 72.22 L685.08 71.64 L692.31 73.49 L695.01 72.06 L699.1 64.41 L701.69 61.06 L705.7 58.7 L709.88 57.77 L714.12 58.03 L726.47 62.67 L729.2 61.74 L733.9 57.18 L736.31 55.94 L738.14 56.47 L741.67 59.74 L743.69 61.04 L764.42 67.96 L765.32 69.03 L765.36 70.64 L764.73 72.16 L764.47 73.7 L765.66 75.32 L774.97 79.86 L776.07 80.75 L776.84 81.95 L777.27 84.29 L776.94 85.98 L776.45 87.48 L776.45 89.22 L777.77 91.79 L779.89 93.25 L782.25 93.8 L786.52 93.45 L787.96 94.23 L788.96 96.05 L789.98 98.95 L793.03 104.94 L796.02 105.46 L799.51 103.46 L804.07 101.86 L808.1 103.81 L810.3 108.02 L810.89 109.16 L811.62 116.02 L809.49 122.56 L811.05 123.64 L811.58 123.82 L810.94 126.15 L808.21 128.3 L807.59 131.37 L808.41 134.7 L810.1 137.01 L811.5 139.45 L811.47 143.11 L810.17 145.28 L803.86 149.86 L800.26 155.02 L798.79 158.48 L798.48 161.93 L799.51 164.24 L801.32 165.81 L805.03 167.82 L806.39 170.01 L808.14 176.8 L809.63 179.07 L814.49 182.88 L815.81 184.49 L815.96 185.23 L815.5 186.89 L815.71 187.81 L816.06 188.1 L817.13 188.47 L817.4 188.71 L817.87 189.68 L818.35 190.29 L818.5 191.22 L817.99 193.14 L817.16 194.38 L816.91 195.68 L817.2 197.05 L817.99 198.45 L819.41 201.98 L820.69 206.47 L820.61 210.02 L817.99 210.81 L813.06 209.54 L810.94 209.73 L810.24 211.93 L811.33 214.94 L812.84 216.92 L813.33 219.1 L811.37 222.62 L809.5 224 L803.13 225.31 L800.64 227.34 L800.91 229.23 L801.96 231.98 L801.82 236.54 L800.2 239.45 L797.81 241.96 L795.75 245.19 L795.17 250.27 L796.01 253.16 L797.62 254.37 L801.94 255.88 L817.99 267.74 L819.55 270.6 L819.91 273.95 L822.21 273.53 L831.02 274.5 L833.48 279.55 L837.6 282.95 L834.62 289.95 L829.39 298.43 L826.78 306.29 L829.81 308.61 L837.59 310.83 L838.76 313.3 L838.78 313.35 L841.9 314.26 L843.61 317.86 L846.05 327.07 L847.41 329.28 L848.71 330.7 L849.83 332.36 L850.58 335.25 L851.33 345.77 L852.44 350.84 L854 353.54 L870.33 366.53 L873.02 368.8 L875.58 369.96 L881.05 371.38 L889.83 376.31 L893.06 377.01 L895.99 377.1 L897.13 377.69 L898.32 379.09 L899.12 381.12 L899.84 383.73 L900.75 385.83 L902.03 386.32 L904.64 384.5 L905.2 384.31 L906.12 384.95 L906.25 385.54 L906.22 386.37 L908.62 395.84 L908.09 397.22 L907.91 398.53 L907.86 399.86 L907.72 401.22 L906.52 405.12 L904.81 415.35 L902.97 419.82 L898.92 426.53 L897.96 430.92 L902.42 431 L911.41 434.06 L933.44 428.3 L935.79 428.77 L941.94 433.25 L955.08 436.94 L958.79 439.67 L962.09 444.22 L963.6 445.16 L968.81 444.91 L970.96 445.24 L973 446.5 L974.99 449.11 L975.75 450.41 L976 451.75 L975.75 453.07 L974.99 454.35 L967.19 458.41 L966.46 459.12 L966.35 460.53 L966.67 463.63 L967.76 468.48 L969.63 472.14 L972.1 474.81 L974.99 476.71 L980.25 479.21 L982.7 481.08 L984.34 484.29 L984.34 484.32 L985.06 485.44 L985.84 485.76 L986.7 485.37 L987.55 484.32 L989.39 483.99 L991.23 484.28 L992.75 485.16 L992.47 486.62 L991.85 488.44 L992.38 490.37 L993.58 490.78 L996.75 489.63 L998.09 489.65 L1000 493.63 L999.82 495.1 L998.42 506.45 L999.78 511.97 L997.74 513.56 L996.05 513.4 L994.47 512.6 L992.71 512.2 L985.39 513.83 L985.76 514.38 L986.64 516.02 L987.06 516.65 L984.26 518.3 L980.93 518.96 L977.61 518.59 L974.99 517.19 L972.3 518.02 L971.49 520.06 L972.41 521.98 L974.84 522.49 L973.8 525.89 L972.38 529.18 L969.03 534.82 L967.14 536.87 L965.42 537.75 L961.62 539 L958.21 542.09 L955.58 545.91 L952.74 548.72 L947.26 548.59 L946.72 549.24 L946.57 550.19 L946.32 550.88 L946.3 551.32 L946.35 552.14 L946.24 552.98 L945.74 553.47 L945.35 553.43 L944.43 553.17 L940.63 553.68 L937.93 555.79 L936.96 556.33 L933.35 556.19 L925.72 553.05 L922.65 553.39 L919.95 554.79 L917.44 555.07 L914.97 554.45 L909.56 551.25 L908.22 550.92 L904.47 551.3 L903.36 550.88 L901.71 548.18 L900.58 540.96 L899.18 537.93 L897.32 536.89 L892.71 536.83 L890.66 536.42 L884.29 533.88 L882.15 533.72 L880.06 534.35 L876.11 536.49 L873.61 536.62 L868.58 535.59 L863.6 535.59 L859.64 538.73 L857.69 547.14 L857.82 549.33 L857.86 549.55 L858.21 551.34 L858.44 553.23 L858.09 555 L857.08 556.16 L854.5 556.64 L853.43 557.16 L848.2 565.51 L845.88 567.95 L853.79 574.43 L855.52 577.74 L858.35 586.34 L860.62 589.91 L863.78 592.99 L867.22 595.25 L870.33 596.33 L872.89 596.69 L873.69 598.05 L873.94 600.24 L874.86 603.14 L876.37 605.18 L877.64 606.07 L878.72 607.4 L879.63 610.78 L879.71 618.09 L877.37 621.47 L870.33 625.48 L871.48 628.13 L876.14 634.45 L879.25 641.4 L880.62 643.52 L884.41 646.84 L885.82 648.65 L885.36 650.37 L883.95 650.73 L880.14 649.82 L878.56 649.94 L879.01 650.54 L880.3 652.66 L878.44 653.48 L877.64 654.87 L877.9 656.53 L879.21 658.18 L881.55 659.91 L881.71 664.13 L881.07 669.23 L881.02 673.62 L881.81 675.49 L882.87 676.94 L883.66 678.81 L883.72 681.9 L883.11 684.22 L882.01 686.33 L880.68 688.06 L879.4 689.28 L882.52 693.91 L884.25 695.84 L886.11 697.25 L887.92 697.9 L891.55 698.55 L893.23 699.53 L892.12 700.94 L891.39 703.12 L891.14 705.61 L891.44 707.99 L892.19 709.76 L893.15 710.81 L898.42 714.48 L899.84 716.88 L900.26 720.26 L900.02 725.28 L888.05 725.92 L869.72 722.35 L860.11 722.4 L851.88 725.81 L849.77 728.58 L848.16 731.98 L846.44 734.83 L843.98 735.9 L841.46 734.93 L836.68 730.81 L834.13 729.36 L830.1 728.85 L815.76 729.7 L813.15 730.54 L811.52 732.33 L812.14 735.21 L811.62 736.06 L811.31 736.9 L811.08 737.71 L810.73 738.56 L813.79 738.99 L814.8 741.25 L813.87 743.46 L811.14 743.66 L810.43 742.68 L809.84 742.41 L809.23 742.69 L808.37 743.36 L807.55 744.41 L807.36 745.46 L807.42 746.33 L807.39 746.88 L806.32 748.35 L805.16 749.6 L803.86 750.67 L802.37 751.59 L799.4 752.74 L799.35 753.35 L799.63 754.41 L800.19 755.11 L800.19 756.27 L798.78 758.24 L797.85 759.28 L796.94 759.74 L793.82 759.45 L792.98 759.74 L792.58 760.81 L792.51 762.4 L792.23 763.84 L790.08 764.99 L789.41 766.1 L788.91 767.22 L788.34 767.74 L788.05 768.32 L785.76 771.32 L785.09 772.54 L784.64 773.04 L784.67 773.69 L785.44 775.3 L785.54 777.93 L783.67 779.86 L781.34 781.4 L780.05 782.87 L782.14 783.92 L782.98 784.02 L782.98 785.28 L781.82 786.53 L781.5 788.51 L781.35 790.6 L780.76 792.21 L779.6 792.74 L776.35 792.85 L775.04 793.25 L775.64 795.53 L774.41 799.09 L775.04 801.42 L774.33 802.13 L773.47 803.4 L772.91 803.84 L773.21 804.49 L773.61 806.12 L772.27 806.71 L769.27 809.49 L769.27 810.74 L771.3 812.49 L772.2 813.04 L772.2 814.08 L771.37 814.31 L770.94 814.6 L770.59 814.94 L770.04 815.34 L770.04 816.38 L771.26 817.98 L774.74 818.99 L776.48 819.83 L775.68 821.7 L775.16 822.49 L774.26 823.28 L775.54 824.24 L776.62 825.36 L777.08 826.61 L776.48 827.97 L776.99 829.99 L777.87 831.26 L778.95 832.01 L780.05 832.46 L780.05 833.72 L778.66 833.45 L777.48 833.84 L776.69 835.03 L776.48 837.15 L776.88 839.14 L777.69 839.55 L778.78 839.61 L780.05 840.59 L780.52 841.7 L781.54 846.42 L782.07 847.32 L782.81 848.32 L782.92 849.19 L781.54 849.75 L782.16 854.49 L779.24 857.55 L776.05 859.88 L775.77 862.33 L773.9 865.62 L773.61 865.96 L773.47 869.95 L773.4 870.11 L772.99 871.07 L771.83 871.34 L771.03 869.76 L769.86 868.46 L768.53 867.57 L767.12 867.2 L765.66 867.38 L764.02 866.86 L761.69 863.33 L760.16 861.87 L758.63 861.49 L755.52 861.51 L753.91 860.88 L752.52 859.61 L749.32 855.47 L748.54 853.69 L748.83 853.53 L749.71 850.03 L749.89 848.7 L749.9 846.97 L749.79 845.64 L749.49 844.53 L748.86 843.38 L747.52 842.12 L742.24 839.53 L740.76 837.96 L736.84 832.57 L733.91 830.38 L730.91 829.55 L716.26 829.95 L713.86 830.66 L707.51 834.02 L706.2 834.09 L704.52 832.95 L703.44 832.85 L702.12 833.8 L700.36 837.04 L699.3 838.21 L697.41 838.7 L687.91 837.1 L686.6 835.26 L685.68 832.71 L683.94 829.68 L682.14 828.42 L679.84 828.09 L677.43 828.47 L675.37 829.35 L673.2 831.31 L671.72 833.52 L670.15 835.4 L667.73 836.4 L665 836.72 L663.59 837.45 L662.55 839.43 L661.01 843.52 L659.49 846.24 L657.4 846.27 L652.83 844.38 L650.42 845.15 L647.65 847.58 L646.33 848.75 L644.17 849.51 L641.77 848.14 L640.47 845.12 L639.58 841.45 L638.4 838.21 L636.26 835.69 L634.52 834.4 L633.81 832.49 L634.8 828.13 L634.39 823.73 L633.17 820.97 L629.67 815.66 L627.47 809.55 L626.17 807.47 L623.65 805.88 L619.44 804.84 L617.3 804.95 L615.24 805.69 L613.15 807.74 L610.68 813.07 L608.67 815.25 L605.93 816.29 L599.47 816.36 L596.41 817.02 L593.09 818.82 L589.73 821.45 L586.8 825.04 L584.74 829.68 L584.45 832.51 L584.68 838.91 L584.17 841.38 L582.29 843.52 L581.19 841.78 L580.44 838.66 L579.69 836.58 L578.35 836.44 L576.97 837.34 L575.46 838.03 L573.73 837.19 L572.72 835.4 L572.04 833.05 L570.4 823.65 L570.14 820.22 L569.22 817.93 L566.52 816.82 L557.13 814.82 L554.29 814.88 L551.58 815.81 L546.36 819.36 L543.65 822 L542.32 822.71 L540.95 822.16 L540.36 820.82 L539.23 816.18 L538.55 814.41 L537.25 812.97 L534.24 811.07 L532.99 809.81 L532.11 807.9 L532.01 806.38 L532.06 804.95 L531.67 803.26 L530.13 801.48 L527.99 801.34 L525.65 802.49 L523.41 804.52 L521.36 807.68 L517.97 814.21 L515.45 816.5 L513.42 817.24 L503.2 817.21 L501.27 816.71 L499.32 815.66 L492.99 808.75 L490.75 807.52 L488.35 807.93 L486.39 809.76 L485.03 812.6 L484.37 816 L484.42 818.14 L484.68 819.95 L484.78 821.79 L484.3 824.03 L483.75 825.1 L478.85 831.74 L477.76 832.79 L476.1 833.04 L474.61 832.39 L472.91 831.05 L471.5 829.49 L471.07 828.59 L470.85 828.14 L474.33 819.67 L475.15 815.44 L473.84 811.92 L472.18 810.98 L466.3 810.8 L454.98 806.21 L454.96 806.21 L451.3 806.11 L449.36 807.16 L446.45 810.37 L444.15 811.5 L441.99 811.67 L435.78 810.62 L431.62 811.96 L429.33 812.21 L427.93 810.88 L428.52 808.03 L430.07 804.41 L430.38 801.48 L427.29 800.72 L424.75 801.05 L422.65 800.81 L421.12 799.35 L420.29 796.04 L420.33 791.52 L420.62 787.92 L419.96 785.28 L417.15 783.64 L412.85 782.69 L403.6 782.33 L393.05 786.05 L386.14 784.9 L366.35 776.09 L343.31 775.38 L341.84 774.6 L340.55 772.79 L340.31 771.14 L340.63 769.6 L340.61 768.39 L339.35 767.76 L315.02 766.72 L311.89 765.34 L305.12 759.27 L301.97 758.57 L294.7 758.79 L272.38 754.55 L263.54 756.33 L249.3 756.09 L228.84 755.74 L211.19 750.94 L206.45 751.08 L201.7 752.64 L192.29 757.61 L162.88 762.38 L160.71 762.28 L154.3 760.72 L128.24 762.77 L126.02 763.61 L123.75 765.97 L119.94 771.66 L118.33 774.95 L115.84 785.99 L112.88 790.16 L101.02 798.33 L85.37 812.46 L81.19 813.15 L78.21 810.34 L75.28 806.76 L71.14 805.08 L68.52 804.83 L61.13 802.61 L58.68 802.54 L48.5 805.21 L47.21 805.93 L46.14 807.05 L44.87 809.27 L44.76 810.62 L45.37 811.96 L48.22 820.06 L48.46 821.69 L47.99 824.26 L47.08 824.73 Z "/>
</g>
</svg>
