<svg xmlns="http://www.w3.org/2000/svg" viewBox="0 0 1000 816.62">
<g fill="#ccc" stroke="#333" stroke-width="0.5" stroke-linejoin="round">
<path fill-rule="evenodd" d="M0 169.63 L5.24 165.78 L15.09 162.5 L50.32 135.74 L104.29 103.84 L156.53 69.32 L214.7 50.42 L214.81 50.39 L217.06 66.39 L215.99 76.69 L215.8 86.37 L219.47 96.79 L225.78 103.72 L227.63 104.58 L233.64 107.37 L241.93 108.34 L254.21 106.41 L254.96 102.49 L254.29 97.24 L254.78 92.45 L257.62 89.51 L261.43 88.56 L265.59 88.31 L275.92 85.98 L282.33 85.61 L288.95 86.69 L320.69 97.27 L325.6 100.51 L326.94 105.94 L326.51 110.55 L326.94 114.87 L330.8 119.48 L334.02 120.9 L364.74 120.52 L370.56 118.64 L382.39 109.34 L414.55 93.09 L427.43 82.94 L437.65 68.94 L439.1 64.8 L441.03 55.13 L441.17 53.39 L441.34 53.5 L446.24 58.13 L448.31 62.26 L450.15 69.83 L454.44 75.07 L459.15 79.19 L462.32 83.26 L463.27 85.9 L463.65 88.43 L462.95 91.35 L461.2 94.26 L460.69 95.1 L463.71 93.58 L465.8 91.25 L469.54 83.26 L460.8 79.5 L458.77 77.84 L457.76 74.16 L457.95 65.16 L457.14 60.84 L455.22 57.5 L451.44 52.82 L456.64 53 L458.98 53.08 L468.36 58.2 L473.38 59.92 L485.48 60.7 L490.41 58.07 L491.7 50.91 L490.12 46.82 L484.3 39.86 L482.29 36.12 L482.47 31.9 L484.16 28.65 L484.7 25.69 L481.56 22.23 L495.14 14.28 L509.06 9.13 L516.73 7.86 L520 8.47 L522.07 11.94 L521.72 18.91 L519.52 24.09 L519.04 28.16 L524 31.73 L527.43 32.05 L534.92 30.68 L543.21 32.77 L547.23 32.5 L550.72 31.17 L553.4 29.17 L573.47 4.43 L582.03 0 L585.78 0.37 L590.5 2.18 L594.85 5.05 L597.53 8.58 L598.09 14.87 L596.48 20.84 L595.33 27.15 L597.21 34.39 L585.89 29.08 L582.96 29.51 L581.49 34.52 L586.99 36.9 L605.15 37.53 L609.92 38.82 L619.96 43.45 L625.56 41.9 L632.11 35.5 L638.09 27.37 L642.14 20.64 L643.94 15.52 L644.82 11.64 L646.38 9.13 L650.38 8.1 L651.1 9.09 L658.88 14.28 L663.98 24.04 L663.07 30.97 L660.17 37.62 L659.26 46.63 L660.92 50.67 L669.85 60.59 L671.22 64.2 L673.88 73.37 L675.14 76.08 L679.62 78.57 L689.65 77.69 L694.45 78.18 L699.01 83.99 L699.15 98.76 L703.71 99.93 L705.39 99.51 L713.5 97.48 L744.21 98.77 L749.63 96.77 L760.53 89.06 L765.65 86.58 L771.26 87.23 L777.34 91.09 L782.15 97.39 L784 105.43 L784.83 114.85 L786.35 116.16 L790.76 119.94 L805.46 124.39 L808.97 126.87 L811.47 129.75 L814.28 131.77 L818.74 131.73 L829.6 129.48 L832.93 129.84 L837.17 132.38 L842.59 139.89 L846.05 142.81 L854.01 140.78 L858.44 141.13 L860.75 146.4 L861.39 148.39 L857.74 152.01 L856.91 156.74 L862.81 163.08 L860.42 164.69 L857.8 165.76 L855.01 166.19 L852.16 165.88 L852.81 168.87 L853.21 170.13 L853.93 171.8 L852 177.46 L850.58 180.4 L848.62 183.08 L845.59 180.47 L843.47 181.78 L842.16 185.79 L841.54 191.26 L845.05 196.06 L840.95 206.12 L830.73 222.5 L836.52 220.93 L839.02 220.99 L841.54 222.5 L838.56 227.53 L834.08 237.1 L830.73 242.17 L829.49 243.17 L826.49 244.25 L823.49 245.46 L804.76 266.45 L805.32 275.64 L809.54 281.91 L813.87 284.95 L815.38 286 L820.99 288.7 L825.04 289.91 L824.59 294.75 L821.9 304.16 L826.62 306.88 L829.44 307.45 L832.15 306.9 L833.43 304.97 L836.23 300.77 L838.53 298.99 L841.14 299.99 L846.45 305.86 L849.1 307.72 L871.61 307.15 L874.57 308.1 L877.41 309 L896.24 309.61 L901.47 308.64 L901.04 309.4 L900.88 310.14 L900.91 310.88 L901.28 311.65 L905.6 313.91 L905.73 317.86 L904.77 322.18 L905.79 325.61 L909.22 326.01 L919.5 323.17 L923.81 323.58 L928.8 328.57 L944.6 352.79 L941.14 355.01 L944.18 360.89 L949.51 363.7 L967.43 364.14 L968.02 366.59 L966.2 370.23 L963.25 373.82 L963.25 375.3 L957.45 378.76 L949.27 385.58 L944.5 393.1 L948.82 398.57 L946.78 401.71 L947.13 403.57 L949.22 404.45 L952.25 404.68 L950.18 408.21 L952.28 410.15 L954.5 414.81 L956.57 416.47 L959.14 416.6 L967.92 413.88 L968.48 413.31 L969.12 413.1 L969.71 413.31 L970.3 413.88 L974.27 415.78 L985.51 418.37 L990.24 418.64 L987.34 421.49 L986.69 424.75 L987.45 428.42 L988.87 432.55 L991.09 436.24 L992.94 436.59 L993.94 437.98 L993.75 444.78 L991.9 454.38 L990.1 459.83 L990.45 464.64 L999.46 480.37 L999.71 482.95 L1000 486.04 L996.75 489.5 L989.86 490.76 L986.37 490.13 L983.42 488.98 L980.52 488.73 L977.01 490.76 L974.43 493.91 L972.72 497.82 L972.18 501.91 L973.34 505.56 L968.56 509.89 L957.4 513.03 L952.01 515.59 L949.46 519.53 L943.59 523.71 L940.9 527.23 L944.36 531.08 L945.81 535.69 L945.65 540.26 L944.09 544.09 L942.16 545.35 L936.99 545.77 L934.76 547.15 L934.28 548.49 L933.42 553.03 L932.85 555.02 L935.48 557.16 L936.4 559.65 L935.64 562.37 L933.28 565.15 L929.42 563.41 L928.83 560.21 L929.13 556.38 L928 552.66 L924.65 549.41 L922.63 549.68 L920.97 551.48 L918.72 552.89 L912.82 553.83 L909.89 553.41 L908.75 552.85 L906.46 551.74 L904.88 548.76 L904.02 544.89 L902.35 543.07 L898.36 546.27 L892.83 546.86 L890.63 550.61 L889.56 556.15 L887.49 561.97 L883.63 566.01 L873.97 570.76 L869.68 574.69 L868.74 577.26 L868.23 583.82 L867.59 586.58 L866 588.88 L862.22 592.18 L860.67 594.69 L860.96 599.36 L860.96 603.16 L860.32 606.36 L858.44 608.36 L853.18 610.7 L851.57 612.85 L851.28 618.42 L853.1 620.67 L854.15 622.91 L851.3 628.45 L849.16 630.48 L845.32 631.37 L843.5 632.6 L841.46 635.31 L840.49 637.42 L839.88 639.46 L838.83 642.02 L829.84 657.66 L828.8 661.49 L831.86 662.97 L837.6 667.36 L840.01 671.03 L833.2 670.32 L833.22 672.65 L832.85 673.86 L832.36 674.79 L831.91 676.25 L834.4 678.58 L831.32 680.66 L830.17 684.5 L830.54 689.31 L832.12 694.36 L834.86 698.93 L837.49 700.22 L840.28 700.69 L843.58 702.73 L845.29 705.28 L851.41 717.41 L851.81 719.3 L852.38 724.9 L852.27 725.83 L853.93 727.18 L857.55 728.28 L859.11 729.15 L860.56 729.42 L862.22 728.86 L863.91 728.99 L865.41 731.37 L865.52 732.28 L865.76 734.44 L864.8 736.1 L863.54 737.53 L863.13 739.75 L863 742.36 L862.22 743.65 L861.85 745.08 L862.76 748.02 L864.53 749.37 L869.73 749.97 L871.61 751.56 L873.06 757.26 L871.61 760.74 L869.04 763.14 L866.97 765.59 L863.64 774.82 L861.58 778.83 L858.65 781.61 L863.05 784.03 L860.59 790.27 L854.63 796.66 L848.46 799.62 L845.43 798.87 L839.74 795.36 L836.95 794.94 L834.16 796.43 L830.81 800.88 L827.59 802.28 L821.98 801.31 L816.4 798.54 L810.56 797.2 L804.09 800.5 L801.01 804.74 L800.42 807.61 L799.56 809.22 L795.72 809.74 L793.49 809.14 L785.37 805.34 L780.48 807.53 L773.96 812.67 L767.23 816.62 L761.62 815.13 L760.02 811.58 L760.28 808.01 L761.12 804.25 L761.17 800.07 L760.1 796.41 L747.6 773.72 L744.76 771.17 L742.77 769.37 L734.72 766.41 L731.77 764.63 L730.16 764.36 L729.19 765.44 L728.09 767.64 L726.72 769.66 L724.87 770.24 L720.55 769.4 L719.29 767.82 L718.68 764.14 L719.48 758.46 L721.57 757.12 L722.75 755.67 L720.96 749.66 L715.94 743.48 L710.52 738.09 L704.91 738.24 L693.19 741.51 L687.21 739.75 L682.49 736.23 L678.63 732.47 L667.57 716.41 L664.49 713.44 L655.23 710.77 L650.06 707.82 L640.4 698.24 L635.7 695.62 L635.02 695.66 L630.26 695.89 L618.99 699.88 L613.17 700.82 L606.38 699.84 L604.05 696.79 L604.1 681.74 L603.46 679.35 L600.91 675.12 L600.37 673.11 L600.86 670.65 L603.16 667.95 L604.02 665.84 L605.42 660.91 L606.73 657.54 L607.4 654.06 L606.95 648.81 L602.9 641.4 L590.61 636.33 L587.15 630.68 L588.28 624.24 L598.26 599.3 L598.5 594.98 L598.09 591.62 L598.39 587.96 L603.27 577.2 L604.85 576.82 L607.64 579.87 L608.23 572.78 L609.63 564.42 L609.98 557.32 L607.59 554.16 L599.46 555.86 L596.54 554.62 L595.36 548.6 L588.36 551.82 L560.67 579.93 L559.17 583.11 L558.47 587.1 L559.09 589.53 L560.06 591.55 L560.32 594.33 L558.34 607.24 L556.51 613.64 L554.13 618.25 L551.31 620.11 L540.5 621.84 L504.31 639.83 L496.61 641.19 L494.68 640.66 L455.73 629.93 L439.73 632.25 L435.88 632.81 L432.39 631.81 L417.85 623.95 L418.03 623.97 L419.92 624.14 L419.59 618.21 L418.17 612.04 L416.94 611.51 L418.01 606.76 L419.33 603.73 L421.2 601.41 L425.95 596.96 L431.96 592.66 L438.18 589.55 L438.27 586.89 L436.47 583.68 L434.91 579.87 L430.54 562.41 L427.96 561.09 L425.17 561.53 L420 563.89 L416.32 562.03 L416.94 554.71 L421.93 538.46 L423.32 531.08 L424.5 527.77 L427.27 523.81 L433.38 519.01 L435.93 516.07 L436.55 511.84 L434.97 509.19 L431.75 506.36 L428.26 504.16 L425.93 503.32 L422.68 504.7 L422.55 507.31 L422.87 510.1 L420.96 511.98 L416.19 509.74 L409.08 494.44 L403.71 489.63 L398.19 486.42 L389.58 476.84 L384.53 474.42 L379.03 475.01 L362.54 481.98 L356.66 482.05 L352.02 479.82 L347.57 476.69 L342.2 473.96 L331.42 472.63 L320.1 473.49 L316.58 474.8 L314.49 477.19 L309.82 485.16 L308.7 488.54 L308 489.76 L306.82 490.58 L306.39 490.2 L306.01 490.43 L304.99 493.05 L295.87 484.48 L293.59 467.86 L293.57 448.87 L291.37 433.12 L287.16 425.43 L282 420.48 L276.32 417.63 L270.44 416.39 L253.68 416.28 L250.46 413.88 L252.98 409.34 L253.38 406.05 L251.69 403.92 L247.96 402.78 L244.26 403.08 L241.6 404.83 L239.03 407.43 L235.52 410.15 L224.14 414.3 L217.84 415.06 L213.3 413.77 L201.96 407.85 L198.55 405.15 L194.47 399.89 L193.13 395.25 L192.73 382.23 L185.86 359.22 L183.77 347.37 L187.39 340.54 L184.44 330.78 L182.37 326.99 L178.89 325.84 L175.24 325.33 L173.17 322.92 L169.98 315.12 L166.38 308.63 L162.07 300.85 L157.67 296.68 L150.93 294.62 L130.3 301.11 L116.7 305.39 L110.72 309.15 L106 314.25 L98.19 327.83 L94.76 330.48 L90.71 329.61 L89.53 329.07 L68.77 319.53 L63.96 315.48 L62.6 312.96 L59.11 304.67 L57.63 301.96 L47.98 292.69 L46.26 289.61 L45.45 286.83 L44.14 284.45 L40.73 282.65 L38.26 282.37 L33.44 283.05 L31.32 282.97 L27.51 282.16 L25.6 281.31 L24.23 278.98 L22.01 273.77 L20.83 272.44 L17.69 270.82 L16.86 269.42 L17.13 267.53 L19.14 262.96 L19.43 260.28 L14.31 242.23 L15.81 238.47 L21.79 232.46 L23.32 230 L22.49 221.8 L18.41 215.62 L9.13 205.29 L6.56 197.32 L3.95 179.11 Z "/>
</g>
</svg>
