<svg xmlns="http://www.w3.org/2000/svg" viewBox="0 0 1000 1880.65">
<g fill="#ccc" stroke="#333" stroke-width="0.5" stroke-linejoin="round">
<path fill-rule="evenodd" d="M29.84 1513.23 L35.89 1439.17 L48.47 1237.29 L60.07 1050.85 L59.02 845.78 L55.24 645.84 L52.3 489.79 L51.7 426.81 L56.82 398.15 L71.52 377.03 L128.71 356.1 L143.44 361.26 L154.79 371.57 L165.08 383.12 L176.65 392.09 L184.85 392.95 L192.65 391.31 L199.18 392.8 L208.62 413.13 L217.45 419.93 L245.06 436.19 L251.23 434.39 L255.35 428.57 L258.46 412.57 L261.52 407.38 L296.65 380.84 L303.12 373.18 L312.97 344.88 L316.24 338.34 L326.46 329.74 L335.87 324.21 L344.1 317.96 L350.8 307.25 L352.97 299.45 L355.07 283.1 L356.95 275.9 L374.05 246.96 L376.34 238.83 L373.98 228.74 L371.46 226.65 L391.05 212.03 L411.13 202.36 L419.33 196.05 L426.25 185.1 L428.26 176.7 L428.88 174.13 L430.03 162.68 L432.63 150.36 L439.26 138.69 L460.52 114.03 L469.04 100.47 L471.42 92.15 L474.12 73.76 L480.32 56.33 L484 34.41 L487.59 26.56 L492.84 21.18 L514.14 4.54 L521.05 5.32 L527.42 8.88 L534.51 10.91 L540.57 10.07 L554.31 5.06 L561.8 1.27 L566.44 0 L570.05 1.31 L576.66 7.72 L581.89 10.93 L585.92 10.25 L589.94 8.02 L595.18 6.5 L637.79 6.15 L641.71 6.83 L641.71 9.42 L653.55 20.29 L640.03 38.05 L586.76 76.73 L581.74 87.15 L589.61 98.5 L599.35 99.12 L632.3 84.08 L628.44 94.64 L622.03 105.85 L606.27 125.93 L602.49 132.33 L604.45 135.63 L609.77 135.28 L615.84 130.89 L627.43 117.79 L650.25 101.25 L661.03 96.12 L672.45 93.99 L687.82 96.17 L707.81 105.97 L716.82 108.86 L731.44 106.62 L752.27 92.1 L776.09 84.73 L784.18 83.64 L787.76 86.32 L786.42 96.56 L782.61 103.25 L768.95 113.81 L753.25 120.6 L750.19 123.66 L749.97 131.59 L754.93 133.28 L760.94 130.74 L766.1 122.13 L771.72 118.15 L778.75 115.05 L785.41 113.81 L787.68 117.76 L793.25 203.44 L787.76 269.85 L785.53 281.16 L775.89 298.48 L773.65 309.82 L747.79 376.26 L736.03 384.35 L735.94 384.5 L707.42 440.88 L711.59 459.55 L703.27 519.57 L686.48 579.32 L681.02 591.4 L663.13 612.82 L655.9 626.07 L652.8 641.52 L655.82 658.82 L664.14 667.6 L688.66 680.14 L693.78 691.06 L700.36 697.05 L729.2 702.13 L735.64 708.06 L727.35 722.06 L709.6 721.88 L691.96 719.24 L684.01 725.76 L682.22 736.94 L671.7 772.23 L653.78 832.35 L647.11 905.53 L646.41 920.6 L643.98 948.88 L648.85 964.09 L651.54 977.8 L651.65 979.23 L652.21 985.59 L655.82 1002.14 L658.51 1011.13 L665.03 1014.83 L679.7 1019.8 L688.04 1030.76 L693.76 1044.67 L697 1060.3 L698.79 1083.11 L702.77 1100.61 L701.15 1108.98 L696.83 1110.8 L690.79 1110.71 L684.01 1113.17 L676.48 1120.16 L667.08 1131.08 L659.15 1143.54 L655.82 1155.1 L658.87 1168.33 L672.31 1189.56 L674.97 1201.97 L676.17 1202.02 L678.58 1203.92 L680.35 1207.17 L679.7 1211.32 L677.15 1212.03 L668.08 1210.8 L665.2 1211.32 L656.46 1218.31 L652.94 1222.67 L651.54 1229.19 L650.03 1232.7 L646.61 1236.21 L643.22 1241.09 L641.71 1248.58 L642.41 1257.17 L645.66 1268.52 L646.41 1275.53 L640.06 1326.45 L635.8 1334.25 L629.79 1340.41 L622.9 1349.59 L615.03 1378.92 L611.28 1387.88 L608.93 1400.53 L613.49 1418.58 L610.64 1425.21 L605.74 1431.54 L601.09 1432.01 L599.02 1420.83 L620.57 1339.24 L632.16 1326.91 L636.59 1319.7 L618.45 1329.08 L599.86 1376.14 L584.91 1393.67 L589.44 1394.4 L599.02 1399.01 L594.37 1401.38 L590.79 1402.4 L586.53 1401.76 L580.23 1399.01 L581.66 1405.32 L583.42 1408.3 L587.04 1409.09 L594.26 1408.83 L594.26 1413.26 L586.95 1418.2 L581.77 1425.41 L580.57 1434.06 L582.39 1437.91 L584.91 1443.11 L571.97 1452.86 L557.89 1481.23 L544.96 1487.22 L543.61 1491.16 L542.35 1508.2 L542.63 1511.7 L538.72 1514.09 L535.08 1514.15 L532.78 1512.96 L532.78 1511.7 L528.41 1514.62 L526.98 1516.11 L526.14 1517.95 L523.43 1521.45 L514.58 1542.89 L511.87 1546.39 L506.49 1549.46 L488.38 1573.32 L486.34 1577.11 L483.48 1586.56 L481.55 1590 L481.1 1592.08 L482 1598.2 L481.55 1600.21 L479.64 1600.68 L474.04 1599.77 L472.14 1600.21 L469.12 1601.96 L460.8 1603.83 L457.64 1605.58 L456.18 1608.38 L452.94 1619.81 L452.94 1590 L448.23 1590 L443.5 1605.58 L433.84 1607.85 L424.35 1601.87 L420.07 1592.69 L417.38 1588.6 L411.59 1588.14 L405.85 1589.25 L403.38 1590 L402.52 1592.57 L402.82 1605.17 L400.84 1610.01 L395.88 1611.64 L372.64 1614.91 L368.67 1617.59 L365.42 1620.98 L360.49 1623.92 L351.31 1625.15 L341.57 1629.69 L338.71 1640.92 L340.2 1668.73 L337.68 1683.65 L331.15 1694.5 L321.47 1701.2 L309.46 1703.41 L305.96 1705.28 L301.9 1709.8 L298.51 1715.36 L295.49 1727.8 L291.29 1731.45 L285.35 1733.78 L278.72 1737.62 L271.08 1744.21 L267.66 1747.88 L264.61 1752.31 L262.96 1760.23 L263.52 1768.15 L261.61 1774.3 L243.64 1779.57 L231.77 1786.8 L220.26 1796.32 L212.51 1806.08 L210.1 1823.84 L224.46 1853.65 L221.92 1870.42 L195.83 1880.65 L134.98 1864.86 L112.92 1865.01 L93.3 1868.37 L40.64 1865.9 L28.03 1871.15 L21.79 1871.52 L13.74 1874.21 L7.24 1877.5 L5.69 1879.8 L0 1870.44 L0.34 1861.45 L1.64 1826.78 L19.26 1661.25 Z M962.01 797.15 L970.6 789.47 L978.58 802.34 L990.17 836.98 L986.98 842.29 L985.81 849.42 L985.89 866.49 L981.19 866.49 L981.44 859.04 L981.19 856.63 L977.3 857.86 L974.66 859.89 L972.93 862.73 L971.42 866.49 L971.98 822.79 L969.62 804.63 Z M969.26 683.86 L977.52 684.16 L987.32 686.57 L995.77 693.67 L1000 708.06 L997.17 718.98 L982.95 747.15 L973.82 759.48 L966.83 771.74 L956.86 778.32 L943.2 767.58 L936.14 779.31 L927.44 786.06 L919.51 794.78 L914.59 812.35 L910.3 844.58 L908.62 849.83 L905.09 857.16 L901.99 866.13 L901.32 876.34 L891.52 866.49 L894.09 864.08 L894.99 861.68 L895.27 859.21 L896.22 856.63 L897.87 841.33 L904.23 815.9 L907.53 781.31 L912.99 769.93 L921.81 761.68 L933.79 752.85 L947.9 738.08 L954.84 737.47 L965.09 741.75 L973.71 742.99 L980.35 736.71 L985.64 722.56 L986.93 707.41 L981.19 698.25 L973.6 705.06 L967.25 708.7 L962.01 708.06 L962.35 703.48 Z M797.59 614.41 L807.03 622.51 L813.86 640.05 L820.6 678.52 L815.93 678.52 L812.46 671.53 L806.41 654.41 Z M740.34 584.82 L754.76 578.12 L793.81 551.26 L801.82 547.61 L795.49 571.07 L779.42 585.5 L757.95 592.72 L735.64 594.69 L735.58 591.31 L736.53 589.11 Z M910.3 336.76 L914.59 336.76 L909.15 368.02 L895.77 396.8 L874.27 417.9 L844.54 426.05 L844.54 421.16 L851.68 421.4 L853.95 421.16 L879.03 403.07 L887.96 390.39 L891.52 371.79 L880.65 372.35 L883.57 349.92 L896.22 304.66 L897.7 301.48 L900.9 298.89 L904.17 295.5 L905.6 289.82 L906.02 282.75 L916.21 244.63 L922.98 238.21 L933.79 242.84 L948.94 232.73 L955.79 242.63 L954.65 258.71 L945.55 267.14 L940.45 275.33 L926.4 314.26 L919.71 327.31 L914.98 324.04 L910.3 321.92 L908.62 329.51 L906.02 334.9 L902.04 338.79 L896.22 341.7 L896.22 346.59 L901.32 356.98 L907.78 347.44 L909.32 343.12 Z M784.97 704.18 L797.76 714.05 L804.17 723.56 L802.71 730.69 L800.78 733.95 L800.61 738.29 L797.73 744.81 L792.97 744.28 L791.71 738.29 L790.79 723.29 L789.86 720.12 L784.35 720.86 L778.41 718.1 L774.44 713.08 L772.14 709.47 L770.04 707.44 L770.13 703.18 L774.75 700.13 Z M872.03 289.76 L876.01 288.08 L878.05 290.11 L876.54 297.65 L870.97 302.6 L863.52 303.96 L861.51 299.39 L866.46 292.23 L869.96 289.88 Z M892.36 269.67 L894.01 272.56 L894.51 280.34 L890.48 287.88 L884.8 292.15 L882.39 291.65 L881.49 287.93 L880.4 285.08 L881.55 282.57 L885.08 280.57 L888.72 277.45 L889.95 273.41 L891.24 270.73 Z M934.41 204.79 L936.93 206.06 L937.35 208.98 L936.93 212.69 L934.49 219.94 L927.94 228.43 L923.99 224.98 L925.9 212.6 L928.61 208.27 L930.77 209.98 L931.13 208.51 L929.98 205.35 L930.26 204.12 L932.64 204.62 Z "/>
</g>
</svg>
