<svg xmlns="http://www.w3.org/2000/svg" viewBox="0 0 1000 2037.69">
<g fill="#ccc" stroke="#333" stroke-width="0.5" stroke-linejoin="round">
<path fill-rule="evenodd" d="M921.68 233.73 L914.53 241.28 L891.96 279.92 L888.1 294.86 L886.05 299.91 L879.54 317.74 L880.11 325.37 L884.94 334.38 L943.18 416.93 L951.04 424.43 L953.72 424.89 L956.78 424.33 L957.16 424.35 L959.8 424.49 L962.52 427.13 L959.2 439.99 L959.2 447.15 L960.51 453.77 L962.92 459.84 L966.25 465.49 L966.25 465.58 L972.93 495.06 L972.56 504.8 L965.51 522.22 L965.11 527.95 L966.75 531.9 L969.37 534.65 L972.23 537.06 L974.68 539.9 L976.29 543.45 L979.35 554.3 L982.4 557.97 L986.57 559.24 L991.17 560.11 L995.3 562.5 L998.29 568.89 L999.9 578.51 L999.94 586.52 L1000 596.67 L997.55 605.54 L989.25 622.04 L986.33 630.85 L986 647.91 L983.85 654.02 L978.91 660.21 L973.84 661 L953.02 650.05 L946.17 648.83 L939.79 650.91 L933.44 657.23 L931.29 660.33 L930.38 662.43 L930.05 668.94 L928.77 672.86 L920.58 685.54 L913.89 700.49 L914.2 706.66 L918.83 714.2 L940.93 737.11 L943.85 741.27 L944.79 746.43 L943.92 752.34 L943.65 754.19 L940.69 761.43 L936.63 764.47 L931.89 766.75 L926.86 771.6 L924.74 776.94 L922.73 805.12 L919.43 811.68 L908.92 824.3 L900.36 840 L894.62 845.39 L875.07 843.26 L862.41 846.64 L839.04 856.28 L833.8 860.2 L830.94 866.79 L830.2 874.25 L831.35 880.74 L835.34 890.89 L837.93 900.91 L835.64 909.55 L825.07 915.5 L819.32 915.16 L812.98 913.97 L807.74 915.59 L805.29 923.71 L805.69 925.93 L807.4 930.13 L807.03 931.83 L787.22 957.89 L784.8 960.01 L779.56 961.79 L777.21 963.55 L770.96 973.72 L769.69 982.84 L771.87 992.03 L776 1002.38 L777.11 1007.88 L777.08 1029.26 L775.06 1036.1 L768.38 1048.89 L757.56 1082.66 L752.59 1092.94 L744.6 1098.52 L722.4 1104.31 L718.61 1104.35 L715.35 1102.76 L712.19 1100.6 L708.63 1098.9 L705.11 1098.47 L695.13 1098.79 L691.64 1099.46 L688.18 1101.7 L685.43 1104.61 L682.31 1106.94 L677.94 1107.55 L652.89 1105.48 L653.93 1114.21 L653.22 1135.06 L651.44 1144.07 L650.4 1146.07 L646.74 1151.6 L645.93 1152.28 L646.51 1154.97 L647.88 1155.69 L649.49 1156.27 L650.74 1158.57 L650.6 1163.59 L646.54 1172.95 L645.33 1178.03 L645.73 1180.94 L647.41 1185.99 L647.01 1188.91 L645.26 1190.64 L639.79 1193.17 L637.94 1195.65 L637.84 1199.14 L637.87 1199.5 L644.2 1279.61 L644.96 1289.2 L642.41 1300.29 L639.82 1304.16 L633.34 1311.5 L631.63 1315.61 L631.56 1318.52 L632.37 1324.59 L632.37 1327.64 L629.88 1341.24 L629.48 1347.53 L630.65 1355.35 L633.17 1362.59 L639.55 1376.26 L641.77 1383.25 L641.6 1390.45 L639.05 1396.48 L635.66 1401.96 L633.14 1407.52 L632.27 1413.52 L631.56 1433.15 L627.46 1453.93 L626.22 1474.61 L625.08 1477.53 L621.76 1483.78 L621.02 1486.29 L621.22 1487.76 L621.39 1489.02 L624.01 1493.04 L627.67 1502.45 L635.46 1511.18 L638.35 1515.89 L639.25 1520.6 L636.14 1564.8 L635.39 1575.54 L637.1 1588.39 L643.62 1600.59 L653.22 1612.09 L660.41 1624.1 L659.54 1637.8 L658.76 1640.73 L658.53 1642.57 L657.49 1643.23 L650.47 1641.83 L647.08 1641.79 L644.59 1643.23 L643.79 1646.86 L650.6 1727.44 L650.27 1731.97 L649.19 1735.07 L646.61 1738.45 L643.62 1744.66 L642.21 1746.85 L641.87 1749.11 L643.11 1753.38 L645.9 1756.9 L654.43 1763.92 L656.31 1767.01 L655.04 1770.55 L651.71 1772.33 L647.55 1773.56 L643.75 1775.37 L635.32 1787.15 L636.4 1799.02 L640.8 1811.57 L642.41 1825.29 L638.95 1839.01 L638.08 1846.1 L639.72 1852.55 L642.21 1855.87 L644.96 1857.86 L648.29 1858.86 L652.32 1859.24 L654.23 1860.72 L654.87 1864.04 L655.94 1879.13 L654.13 1882.82 L650.13 1885.47 L644.26 1890.72 L640.53 1897.75 L640.43 1904.45 L643.21 1918.25 L642.54 1925.17 L636.52 1942.74 L635.42 1945.95 L634.29 1952.63 L631.8 1967.27 L631.66 1987.2 L631.48 1987.21 L502.71 1999.25 L476.66 2005.07 L365.44 2017.78 L279.37 2037.69 L277.03 2030.87 L283.74 2027.29 L325.49 2017.38 L332.24 2016.97 L326.12 1992.98 L319.81 1968.43 L311.45 1954.94 L308.66 1952.84 L301.68 1949.24 L299.53 1947.47 L298.82 1944.61 L299.63 1937.6 L299.22 1934.31 L297.18 1931.52 L291.77 1927.05 L290.93 1924.78 L290.49 1921.04 L288.14 1920.21 L284.95 1920.51 L281.9 1920.16 L279.34 1918.64 L276.62 1916.45 L274.07 1913.86 L272.12 1911.17 L271.08 1907.83 L271.28 1904.81 L271.85 1902.07 L271.79 1899.53 L268.23 1892.98 L264.03 1889.55 L261.95 1885.88 L264.63 1878.54 L269.47 1872.03 L272.02 1868.6 L273.33 1863.53 L271.42 1855.64 L268.93 1848.94 L267.52 1843.3 L267.32 1837.71 L269.77 1823.97 L269.1 1819.42 L266.18 1815.89 L261.36 1812.27 L260.84 1811.88 L257.18 1806.45 L250.86 1783.19 L275.41 1783.36 L281.32 1781.6 L281.09 1733.51 L280.89 1685.97 L280.69 1637.05 L280.54 1604.84 L280.41 1576.63 L280.38 1570.86 L280.12 1505.86 L279.91 1453.93 L280.72 1401.64 L281.29 1364.02 L277.83 1335.85 L276.19 1332.82 L274.27 1332.17 L273.33 1330.8 L274.94 1322.79 L274.94 1317.09 L275.45 1314.3 L286.13 1296.58 L287.34 1290.77 L285.96 1287.57 L277.56 1276.88 L275.92 1273.2 L275.45 1269.33 L275.32 1259.52 L274.78 1215.51 L274.37 1185.03 L273.9 1149.12 L273.37 1107.96 L271.62 1098.98 L269.03 1091.06 L262.35 1079.26 L242.17 1057.96 L216.21 1030.62 L214.54 1028.05 L208.38 1018.51 L203.68 1005.39 L201.46 972.01 L197.74 962.66 L192.16 965.39 L187.36 960.47 L184.07 952.41 L183.03 945.7 L184.37 941.42 L190.15 932.5 L192.16 928.32 L192.56 924.95 L192.46 918.34 L193.24 915.06 L193.71 911.05 L191.15 895.66 L190.75 870.05 L190.15 834.02 L189.78 809.72 L189.74 807.19 L185.58 795.96 L151.29 773 L104.75 741.85 L77.08 723.32 L58.37 710.79 L27.47 690.09 L2.89 673.6 L0.27 668.63 L0 661.03 L4.53 627 L9.3 608.59 L9.54 595.67 L6.95 565.88 L11.62 554.82 L29.28 537.88 L33.48 531.8 L34.49 528.4 L34.99 520.84 L35.63 517.3 L40.7 507.55 L40.23 503.97 L37.51 497.25 L36.74 493.68 L37.68 487.1 L46.01 466.73 L55.92 472.23 L60.28 472.83 L66.09 472.88 L67.47 471.11 L68.27 467.25 L67.97 463.36 L66.09 461.58 L63.51 460.35 L62.36 457.34 L62.2 453.63 L62.57 450.29 L63.71 449.52 L66.46 445.32 L68.37 441.32 L70.52 438.38 L71.97 437.8 L73.48 438.33 L80.6 439.47 L82.78 441.03 L84.43 442.58 L86.17 443.3 L87.11 444.02 L88.83 447.25 L89.4 448.01 L91.45 447.91 L94.97 446.11 L96.25 445.76 L106.26 446.86 L109.55 448.01 L110.42 449.64 L112.74 452.93 L115.12 455.16 L116.2 453.66 L116.57 448.35 L112.87 444.53 L110.82 441.01 L110.29 437.41 L110.22 433.66 L109.55 429.73 L108.94 429.75 L105.85 428.32 L104.91 427.67 L104.71 426.15 L105.28 422.04 L104.91 420.68 L101.86 419.97 L99.81 421.83 L98.6 422.28 L98.26 417.29 L99.94 416.55 L110.66 414.12 L112.54 412.79 L114.75 406.75 L116.2 405.06 L119.66 405.09 L126.14 408.2 L129.5 409.38 L127.82 403.67 L126.54 392.38 L120.46 382.33 L122.07 378.18 L125.43 374.95 L128.82 369.76 L131.95 372.26 L134.4 376.03 L133.96 377.73 L136.82 377.77 L138.53 376.93 L140.21 375.9 L143.03 375.25 L149.18 375.55 L154.45 377.07 L165.23 382.23 L169.36 374.54 L169.86 371.97 L169.12 368.71 L165.93 365.54 L165.23 362.91 L166.84 358.93 L170.47 360.75 L174.26 365.09 L176.31 368.66 L178.53 365.93 L180.81 365.01 L183.13 365.93 L185.38 368.66 L191.05 363.81 L190.42 359.55 L187.26 355.01 L185.38 349.34 L188.2 343.06 L194.68 338.82 L202.04 335.58 L207.37 332.26 L204.29 325.19 L204.69 322.41 L207.37 318.46 L211.61 315.3 L215.54 314.01 L215.67 313.96 L218.99 312.13 L220.88 307.37 L226.18 310.38 L232.46 311.68 L263.02 314.15 L262.35 316.35 L261.61 321.01 L261.04 323.2 L266.68 322.86 L273.5 335.58 L279.85 333.39 L285.39 330.43 L300.4 327.23 L306.61 324.23 L311.68 322.62 L326.06 323.64 L332.2 323.2 L344.96 318.03 L351.18 316.75 L356.82 318.46 L359.94 316.37 L363.91 316.95 L372.33 320.94 L386.07 326.28 L397.56 327.18 L406.45 322.91 L407.97 321.35 L450.72 277.53 L474.46 258.03 L491.86 248.24 L496.36 243.85 L497.53 240.69 L497.26 237.06 L497.46 231.26 L500.96 221.87 L513.45 207.82 L518.02 199.19 L529.74 167.09 L529.1 163.69 L525.3 157.94 L524.87 154.3 L526.72 150.03 L529.47 149.31 L532.53 149.74 L535.35 148.93 L537.53 146.44 L540.08 141.64 L542.33 139.25 L545.59 138.94 L548.98 140.2 L551.37 139.68 L551.57 133.98 L550.89 129.84 L548.78 128.28 L545.69 127.54 L542.23 125.96 L538.87 123.2 L536.56 120.51 L534.74 117.21 L523.79 86.06 L520.6 67.54 L520.33 59.98 L523.19 54.21 L531.05 50.57 L535.51 50 L542.97 50.31 L547.13 49.9 L547.91 49.04 L550.59 45.31 L552.27 44.07 L554.69 44.64 L556.54 46.56 L558.18 47.11 L560.03 43.64 L561.54 39.53 L563.82 38.59 L566.88 39.05 L570.71 39.19 L571.62 39.95 L572.12 41.77 L573.13 43.26 L575.58 43.09 L577.43 41.97 L580.38 39.12 L581.86 38.16 L593.41 35 L594.69 35.24 L597.47 36.89 L599.09 37.06 L601.07 36.08 L604.96 33.18 L607.21 32.75 L618.67 35.82 L621.62 34.1 L626.15 26.88 L627.23 24.31 L627.87 21.69 L628.81 19.31 L630.55 17.35 L634.08 15.97 L637.51 18.29 L640.9 17.45 L643.89 15.01 L649.09 8.75 L652.68 6.38 L655.81 5.76 L662.39 6 L665.72 5.33 L673.44 5.05 L677.3 0 L692.88 14.03 L699.5 17.6 L702.76 21.16 L705.28 25.25 L707.36 32.73 L710.01 35.51 L713.6 37.39 L717.43 38.81 L728.21 40.03 L730.93 40.89 L732.14 42.63 L735.33 48.81 L748.5 68.33 L804.38 119.6 L805.39 121.36 L809.79 124.71 L810.79 126.5 L811.6 133.59 L813.21 141.12 L815.6 147.16 L823.02 159.74 L827.65 165.15 L830.41 167.74 L834.4 170.45 L838.9 171.62 L843.27 169.58 L847.84 166.83 L851.66 167.59 L855.16 169.65 L858.78 170.83 L873.36 179.89 L885.25 184.15 L888.87 186.68 L891.49 189.19 L902.37 204.82 L904.56 206.76 L906.37 207.85 L907.81 209.21 L909.02 211.81 L910.67 217.06 L911.88 219.6 L912.52 222.53 L913.66 225.07 L916.38 226.56 L919.4 231.83 Z "/>
</g>
</svg>
