<svg xmlns="http://www.w3.org/2000/svg" viewBox="0 0 1000 697.88">
<g fill="#ccc" stroke="#333" stroke-width="0.5" stroke-linejoin="round">
<path fill-rule="evenodd" d="M880.58 0 L1000 101.49 L967.48 145.76 L965.85 190.04 L946.34 174.64 L917.07 147.69 L860.93 133.75 L842.28 155.39 L816.26 122.66 L746.34 184.26 L759.35 226.6 L801.63 242 L873.17 268.94 L786.99 309.35 L708.94 363.23 L610.01 438.06 L550.09 474.41 L512.2 526.74 L430.89 601.74 L321.95 657.51 L217.89 697.88 L154.47 695.96 L105.69 694.04 L40.65 649.82 L13.01 580.59 L0 526.74 L39.27 544.91 L33.63 509.37 L48.02 461.68 L26.02 413.25 L56.91 424.79 L71.54 395.94 L91.06 424.79 L117.07 451.73 L79.67 484.43 L67.91 540.57 L58.54 557.51 L79.67 574.82 L156.1 584.44 L156.1 599.82 L95.92 594.05 L91.06 626.74 L118.7 665.2 L164.23 665.2 L222.76 640.2 L239.02 605.59 L278.05 601.74 L347.97 559.44 L440.84 502.07 L448.78 484.43 L383.74 492.12 L338.21 472.89 L302.17 420.5 L315.32 402.73 L444.08 423.31 L520.9 385.95 L565.46 372.62 L611.38 320.9 L629.27 326.67 L702.44 322.82 L721.95 293.96 L757.72 261.25 L725.2 228.53 L676.94 247.7 L642.28 272.79 L634.56 302.74 L614.63 297.81 L605.52 276.07 L627.64 222.75 L687.92 179.54 L725.2 120.74 L791.81 75.2 Z M295.93 495.97 L310.57 490.2 L328.46 507.51 L360.98 522.89 L349.59 534.43 L313.82 528.66 L274.8 534.43 L235.77 530.59 L224.39 503.66 L237.4 494.04 L273.17 503.66 Z "/>
</g>
</svg>
