<svg xmlns="http://www.w3.org/2000/svg" viewBox="0 0 1000 558.12">
<g fill="#ccc" stroke="#333" stroke-width="0.5" stroke-linejoin="round">
<path fill-rule="evenodd" d="M519.59 96.65 L524.76 95.96 L529.96 96.06 L549.38 98.85 L555.97 97.25 L563.26 96.44 L571.94 91.71 L576.83 90.58 L581.72 91.68 L594.52 100.24 L602.97 102.45 L612.92 105.04 L631.45 106.21 L648.9 110.04 L664.1 122.83 L668.44 127.09 L678.47 132.26 L691.3 133.6 L703.39 130.6 L711.39 122.83 L711.45 122.78 L715.67 116.3 L728.19 101.67 L733.79 97.25 L741.52 95.8 L749.12 96.95 L756.14 96.48 L762.23 90.22 L768.01 102.03 L777.49 110.75 L800.54 122.83 L805.79 124.64 L808.75 125.66 L813.06 126.33 L823.96 126.42 L835.86 131.39 L848.11 132.96 L854.67 134.79 L860.94 137.67 L865.77 141.37 L870.21 149.12 L869.04 155.7 L865.53 162.43 L862.91 170.69 L843.86 171.14 L844.36 181.34 L856.06 184.85 L865.12 194.32 L864.88 206.41 L862.42 216.55 L848.48 236.21 L846.51 249.07 L853 273.7 L855.8 278.48 L864.27 285.36 L866.88 290.96 L871.56 296.27 L878.36 298.38 L885.71 299.75 L892.3 302.69 L892.31 302.71 L907.93 303.88 L918.85 302.24 L930.87 300.6 L943.97 302.78 L962.64 299.7 L966.15 298.52 L980.59 307.13 L998.83 354.92 L1000 358.91 L997.94 364.67 L988.65 372.62 L984.52 377.62 L983.44 380.65 L982.49 387 L981.63 389.88 L979.97 392.57 L976.09 396.7 L975.29 397.83 L974.46 399 L972.34 403.88 L970.83 409.65 L969.97 415.84 L969.91 421.94 L973.54 432.81 L988.37 447.76 L993.51 458.41 L993.51 458.45 L998.55 477.66 L997.5 482.92 L995.23 494.21 L984.24 505.19 L966.15 507.94 L960.89 505.38 L951.44 497.24 L946.24 495.07 L941.75 496.35 L942.46 500.71 L942.46 505.64 L936.06 508.71 L939.6 513.19 L939.9 518.68 L937.44 522.49 L932.79 521.9 L929.63 517.32 L928.76 511.9 L927.1 507.02 L921.5 503.99 L912.61 505.64 L893.65 518.09 L884.88 522.33 L870.48 524.18 L865.77 523.83 L852.6 519.9 L847.22 520.11 L836.42 523.88 L830.85 524.3 L826.91 520.81 L820.08 505.9 L817.28 501.62 L812.97 500.35 L800.94 499.62 L796.82 500.3 L791.49 503.99 L788.41 509.21 L786.01 515.26 L782.54 521.44 L778.72 525.26 L774.11 528.33 L769.09 530.61 L764.14 531.97 L758.01 532.14 L753.83 530.48 L745.06 525.11 L734.84 522.71 L713.67 523.19 L703.21 521.9 L694.31 521.97 L679.64 528.71 L678.04 529.45 L659.31 530.54 L591.6 534.48 L553.1 530.14 L519.59 512.68 L492.02 492.86 L481.96 491.24 L475.93 493.24 L471.65 496.67 L467.68 500.71 L462.79 504.45 L457.3 506.28 L446.33 505.85 L440.9 506.31 L430.93 512.8 L423.42 532.91 L415.97 539.7 L404.65 542.93 L370.74 546.22 L351.93 551.26 L345.47 551.88 L342.46 551.42 L336.4 549.54 L336.03 549.48 L333.67 549.11 L332.55 548.56 L330.18 546.42 L328.96 546.32 L327.41 547.63 L326.79 549.35 L326.67 550.87 L326.52 551.61 L326.53 552.33 L326.07 554.28 L325.13 556.5 L323.7 558.1 L322.62 558.12 L319.76 556.91 L318.58 556.67 L306.73 556.77 L305.06 556.51 L300.32 555.74 L284.36 548.64 L277.84 548.33 L267.44 552.66 L261.93 552.76 L258.27 549.85 L263.02 540.65 L262.39 534.84 L254.87 528.81 L243.08 524.31 L230.85 522.26 L212.23 524.49 L201.65 519.02 L190.2 511.03 L182.09 505.37 L169.74 508.68 L165.63 508.49 L161.83 508.85 L158.66 511.37 L155.58 514.56 L152.07 516.9 L143.73 519.14 L135.33 519.97 L118.5 519 L109.1 516.35 L104.92 511.47 L102.5 504.68 L98.44 496.31 L93.73 491.08 L86.79 485.89 L79.36 482.53 L73.02 482.87 L70.19 484.96 L66.84 485.91 L63.33 485.55 L60.22 483.7 L58.13 480.32 L58.16 477.09 L58.62 473.62 L57.88 469.53 L52.57 463.04 L46.56 463.75 L40.8 468.67 L36.22 474.95 L34.4 458.45 L34.4 458.41 L34.4 440.16 L32.97 431.57 L29.05 424 L22.39 418.94 L3.72 409 L0.9 406.91 L0 406.25 L2.49 396.6 L7.23 385.61 L13.63 376.15 L21.17 370.94 L39.11 366.26 L43.48 362.88 L46.02 360.92 L48.31 351.13 L55.11 346 L65.72 346.88 L72.01 352.19 L79.48 346 L74.76 338.03 L69.65 325.19 L65.8 311.7 L67.73 303.72 L70.31 296.64 L75.3 291.74 L74.43 289.95 L72.99 286.97 L72.32 283.34 L73.93 279.1 L78.22 276.68 L81.85 272.59 L81.18 268.96 L85.2 263.81 L90.3 262.75 L92.18 257.6 L95.54 252.91 L99.43 250.33 L107.62 247 L110.84 247.76 L111.89 247.98 L112.99 248.21 L115.94 249.57 L117.48 250.7 L118.29 246.52 L126.82 233.61 L139.38 211.79 L144.85 198.15 L147.33 185.8 L157.4 179.16 L169.54 173.54 L180.41 165.18 L190.57 151.61 L204.63 124.88 L205.71 122.83 L205.77 122.83 L212.72 110.54 L216.97 104.93 L221.89 100.37 L227.85 98.12 L233.71 93.43 L247.54 75.63 L252.88 72.25 L258.36 70.5 L294.08 64 L305.41 58.83 L310.7 49.24 L312.85 43.83 L317.38 39.97 L327.41 33.56 L330.06 30.6 L334.64 24.06 L337.29 21.18 L340.47 19.55 L342.76 20.59 L353.13 14.48 L363.97 16.96 L369.64 13.65 L375.26 12.78 L399.2 4.46 L414.88 7.8 L423.7 12.25 L430.56 11.14 L437.43 3.34 L445.27 0 L456.05 7.8 L456.05 20.04 L464.88 32.82 L476.21 34.7 L483.49 20.04 L493.3 20.04 L502.12 25.61 L513.88 25.61 L528.58 36.74 L541.32 37.85 L553.09 42.3 L556.03 53.42 L547.21 56.76 L541.32 67.88 L531.52 68.99 L522.7 79 Z "/>
</g>
</svg>
