<svg xmlns="http://www.w3.org/2000/svg" viewBox="0 0 1000 1131.57">
<g fill="#ccc" stroke="#333" stroke-width="0.5" stroke-linejoin="round">
<path fill-rule="evenodd" d="M12.82 660.56 L12.82 660.46 L12.96 654.32 L12.71 651.28 L11.79 648.75 L10.61 647.2 L8.98 645.51 L5.67 642.85 L4.38 642.39 L0.17 641.83 L0 641.81 L1.4 639.61 L2.68 634.85 L3.58 632.99 L3.95 632.87 L5.36 632.64 L5.86 632.48 L10.29 628.42 L12.82 626.69 L15.06 625.8 L17.4 625.36 L19.59 624.52 L21.35 622.48 L21.74 621.12 L21.35 620.58 L20.75 620.32 L20.48 619.82 L20.73 618.99 L21.26 618.42 L24.77 616.32 L25.74 615.17 L27.91 610.41 L36.23 601.51 L37.36 599.69 L38.92 595.07 L39.68 593.85 L40.99 593.02 L43.92 592.74 L45.44 592.37 L50.22 589.88 L51.59 588.84 L52.95 587.06 L53.94 585.75 L51.75 582.66 L51.34 581.24 L51.54 578.58 L51.44 573.59 L51.61 571.85 L52.34 570.36 L54.49 567.69 L57.22 566.28 L66.44 562.59 L68.27 559.67 L67.44 557.36 L65.55 556.08 L61.29 554.35 L57.95 550.65 L56.1 549.51 L53.79 550.29 L51.12 549.45 L50.24 549.37 L49.34 549.69 L47.75 550.92 L46.83 551.32 L44.72 551.32 L42.77 550.66 L41 549.55 L39.47 548.23 L36.62 544.62 L34.78 539.97 L31.3 531.17 L27.81 522.39 L24.33 513.61 L20.84 504.83 L19.85 502.31 L19.38 499.76 L20.11 497.22 L25.42 489.14 L25.85 487.48 L26.06 485.77 L26.48 484.1 L27.55 482.57 L28.38 482.11 L30.62 481.35 L31.19 480.97 L31.23 480.23 L30.29 477.7 L30.76 476.33 L32.07 474.59 L33.65 473.15 L36.38 472.2 L37.49 468.92 L39.08 468.82 L41.01 468.95 L42.3 467.9 L42.49 466.35 L40.55 464.43 L38.52 461.53 L37.2 460.23 L32.32 456.57 L30.97 455.19 L26.26 447.94 L24.89 446.65 L23.13 444.99 L22.61 443.52 L22.97 441.94 L24.31 438.76 L24.49 438.1 L24.14 431.16 L24.26 429.71 L25 428.56 L26.84 427.44 L31.39 426.16 L32.69 425.39 L33.82 422.95 L34.34 412.09 L35.39 410.45 L37.01 410.28 L38.87 410.68 L40.66 410.73 L41.14 409.78 L40.9 405.88 L41.16 404.42 L41.66 404.03 L43.06 403.67 L43.64 403.38 L46.88 399.62 L48.47 398.44 L53.79 395.45 L55.43 393.92 L55.07 392.23 L53.95 390.54 L53.3 389.03 L53.21 385.76 L53.34 384.12 L53.79 382.66 L55.86 381.18 L58.62 380.47 L64.16 379.75 L65.74 378.04 L65.37 375.08 L63.34 369.42 L62.82 366.51 L62.35 365.2 L61.5 363.99 L57.11 361.08 L56.02 359.53 L55.53 356.82 L55.51 353.75 L55.2 350.88 L53.79 348.74 L52.73 345.5 L52.64 344.36 L52.92 343 L53.32 342 L53.32 341.04 L52.41 339.78 L47.98 336.17 L46.3 333.74 L47.45 331.82 L48.52 331.72 L51.02 332.17 L51.95 331.99 L52.67 331.07 L52.69 330.09 L52.53 329.02 L52.73 327.86 L53.36 326.9 L55.1 325 L55.8 323.92 L56.53 321.9 L57.02 319.81 L56.72 317.9 L57.68 301.46 L56.51 294.83 L56.29 291.44 L56.91 281.47 L56.76 280.26 L55.76 271.98 L55.73 268.38 L56.19 266.48 L58.77 264.46 L59.65 262.42 L60.64 260.85 L62.44 261.1 L63.48 258.73 L64.74 256.99 L66.41 255.85 L73.17 254 L73.79 253.25 L75.69 249.49 L74.87 248.56 L72.22 247.83 L71.46 247.04 L71.56 245.66 L72.34 244.45 L73.47 243.49 L75.91 242.17 L77.08 241.11 L78.02 239.87 L78.7 238.59 L79.2 236.92 L79.68 236.14 L80.51 235.78 L80.08 235.02 L78.05 231.4 L69.5 216.21 L60.95 201.02 L52.39 185.85 L43.84 170.69 L35.29 155.53 L26.73 140.38 L18.19 125.25 L9.63 110.14 L9.34 109.63 L9.05 109.11 L8.75 108.58 L8.46 108.06 L8.17 107.55 L7.87 107.04 L7.58 106.53 L7.28 106.01 L13.41 106.26 L16.65 105.92 L22.17 104.57 L24.87 104.99 L27.61 105.77 L30.57 106.23 L35.22 106.06 L41.63 106.83 L44.67 107.54 L47.51 107.25 L48.78 107.49 L54.87 110.14 L55.24 110.2 L55.99 110.2 L56.35 110.14 L58.28 110.03 L62.16 111.11 L64.13 111.36 L66.19 110.87 L68.42 110.02 L70.64 109.55 L73.1 110.28 L74.49 110.99 L73.15 112.92 L72.2 114.94 L71.74 117.1 L72.08 120.52 L72.33 121.3 L72.99 121.74 L74.43 121.78 L86.12 119.39 L88.39 118.23 L92.65 115.13 L96.16 113.95 L97.53 113.73 L98.91 113.73 L100.33 113.98 L101.49 113.64 L104.1 111.2 L105.58 110.41 L109.45 110.03 L110.87 109.44 L112.55 108.24 L114.1 106.66 L115.48 104.88 L116.61 103.06 L118.76 98.14 L119.9 96.55 L124.52 91.6 L127.4 86.13 L128.57 84.77 L130.48 83.43 L133 82.2 L134.36 81.77 L135.75 81.6 L138.08 81.98 L147.85 81.52 L149.07 81.7 L150.25 82.04 L151.81 82.95 L155.03 85.5 L156.6 86.14 L159.4 85.42 L160.76 83.01 L161.5 79.99 L162.43 77.49 L163.32 76.56 L165.81 74.49 L166.85 73.25 L168.46 70.68 L169.37 69.57 L170.63 68.43 L172.23 67.94 L175.16 66.49 L178.54 65.34 L180.19 64.3 L181.62 62.94 L182.76 61.4 L183.12 60.45 L183.15 59.77 L183.36 59.14 L184.26 58.4 L185.01 58.18 L188.63 58.12 L189.58 57.96 L190.45 57.65 L191.07 57.14 L191.2 56.34 L190.73 54.52 L190.86 53.79 L192.03 53.18 L193.91 52.87 L197.31 52.75 L198.79 52.98 L202.01 53.85 L203.41 53.84 L204.43 53.24 L205.04 52.32 L205.51 51.38 L206.11 50.7 L206.93 50.41 L208.65 50.33 L209.53 50.16 L213.28 48.03 L226.53 34.39 L237.35 26.02 L238.91 25.19 L245.6 22.6 L246.41 22.09 L246.84 21.41 L247.03 20.49 L247.32 19.63 L247.84 18.97 L248.72 18.67 L258.4 16.98 L263.39 17.37 L265.05 17.16 L266.64 16.58 L270.04 14.65 L271.39 14.12 L279.42 12.89 L280.92 12.33 L283.47 10.67 L284.89 10.06 L289.41 9.59 L289.72 9.75 L290.03 10.09 L290.38 10.42 L290.83 10.49 L291.24 10.19 L291.82 9.2 L292.15 8.95 L293.38 8.71 L293.81 8.8 L294.83 9.17 L297 10.4 L298.1 10.68 L299.66 10.33 L303.33 8.06 L304.86 7.61 L306.3 7.52 L307.46 7.64 L310.8 8.44 L311.78 8.48 L312.77 7.94 L314.11 6.52 L314.31 7.11 L314.66 7.83 L315.09 8.48 L315.55 8.83 L316.38 8.7 L316.6 7.96 L316.59 7.06 L316.69 6.45 L317.35 4.81 L317.84 4.43 L318.36 5.53 L318.55 6.33 L318.76 6.95 L319.16 7.4 L319.92 7.69 L323.01 6.4 L324.28 6.33 L323.97 8.23 L323.68 9.27 L324.03 9.51 L324.69 9.44 L325.34 9.52 L325.56 9.47 L326.44 9.15 L326.82 9.11 L327.34 9.38 L328.07 10.24 L328.5 10.61 L330.93 12.23 L332.12 12.82 L333.61 13.15 L334.61 13.09 L334.99 12.72 L335.18 12.17 L335.6 11.56 L335.7 11.31 L335.76 10.49 L335.92 10.17 L336.34 9.93 L337.33 9.75 L337.65 9.59 L338.6 8.53 L339.41 7.32 L339.74 6.55 L340.09 5.27 L340.61 4.51 L344.34 1.38 L345.44 0.13 L346.21 0 L348.36 0.03 L349.85 0.58 L352.11 2.56 L353.29 5.14 L353.48 5.42 L354.6 9.14 L355.4 10.06 L356.52 11.04 L357.53 12.13 L357.96 13.43 L357.59 15.36 L355.82 18.74 L355.16 20.55 L354.87 23.91 L355.19 27.33 L355.91 30.5 L357.43 34.82 L357.77 36.6 L357.96 40.2 L358.15 41.06 L358.96 42.99 L359.13 43.85 L358.86 44.64 L357.45 46.8 L356.6 50.89 L355.6 52.81 L352.56 54.29 L351.39 55.9 L350.49 57.78 L350.13 59.28 L350.12 59.32 L350.26 59.96 L350.39 60.24 L350.73 60.5 L348.79 64.04 L347.61 65.21 L345.59 65.62 L345.59 66.19 L346.58 67.66 L346.76 68.21 L346.68 68.62 L346.29 69.39 L346.21 69.89 L346.28 70.6 L346.47 71.46 L346.75 72.19 L347.07 72.5 L347.29 73.4 L346.77 77.52 L346.76 78.77 L348.16 80.33 L349.62 81.24 L350.77 82.42 L351.24 84.79 L351.14 86.26 L350.53 89.44 L349.3 93.24 L349.71 94.32 L352.94 95.18 L354.43 96.21 L355.66 97.51 L356.33 98.76 L356.84 105.9 L357.06 106.36 L357.52 106.82 L357.92 107.46 L357.96 108.5 L357.64 109.22 L357.09 109.71 L356.42 110.16 L355.72 110.77 L354.44 112.73 L354.39 114.22 L354.85 115.65 L355.16 117.39 L354.52 118.9 L351.35 121.38 L350.12 122.81 L349.84 124.86 L350.9 126.17 L352.28 127.15 L352.97 128.27 L352.47 129.54 L351.44 130.21 L350.62 131.14 L350.73 133.18 L351.78 134.71 L353.47 135.94 L355.03 136.82 L355.72 137.38 L355.42 138.44 L353.99 140.13 L353.48 141.11 L353.4 141.94 L353.54 142.63 L356.28 149.8 L358.5 152.17 L361.36 151.38 L363.37 152.47 L364.22 153.23 L364.77 154.3 L364.77 155.12 L364.15 156.62 L364.16 157.72 L364.5 158.85 L364.89 159.1 L365.48 159.11 L366.45 159.49 L368.21 160.69 L368.75 161.44 L366.82 162.08 L366.63 162.85 L366.96 164.92 L366.79 165.74 L366.06 167 L365.89 167.8 L365.93 170.85 L366.39 172.01 L367.52 173.26 L368.99 174.36 L370.06 174.63 L370.71 173.85 L371.16 169.79 L371.49 168.73 L371.99 168.06 L373.18 167.72 L373.42 168.51 L373.17 170.4 L374.34 171.54 L375.83 172.15 L377.1 172.95 L377.86 175.68 L378.92 177.52 L379.32 178.45 L379.4 179.26 L379.26 180.96 L379.32 181.78 L379.71 183.56 L380.17 184.33 L381 184.72 L381.28 184.74 L382.1 185.12 L382.63 186.01 L382.76 187.04 L382.4 187.86 L381.27 189.47 L381.13 190.99 L381.7 192.32 L382.68 193.32 L383.83 193.96 L385.13 194.3 L388.61 194.47 L390.3 194.81 L392.02 195.43 L393.78 195.71 L395.6 195.04 L396.6 195.5 L398.1 195.8 L399.48 196.36 L400.08 197.61 L400.47 199.31 L401.44 200.88 L404.05 203.67 L403.44 204.83 L403.82 205.75 L404.73 206.19 L405.73 205.92 L405.94 205.24 L406.22 203.01 L406.54 202.53 L407.89 202.38 L408.17 202.85 L408.57 204.25 L408.57 204.94 L408 205.97 L407.96 206.53 L408.21 206.97 L408.93 207.69 L409.08 207.97 L409.94 208.8 L411.93 209.99 L415.8 211.74 L416.81 211.86 L418.96 211.89 L419.48 212 L420.82 213.1 L422.51 213.98 L422.61 213.72 L422.61 213.53 L422.73 213.42 L423.93 213.59 L424.32 213.71 L425.66 214.86 L425.99 215.52 L426.06 216.49 L425.97 218.36 L425.55 220.17 L424.07 223.53 L424.29 224.96 L424.8 225.3 L426.6 225.94 L427.35 226.37 L428.04 227.16 L429 228.93 L429.61 229.81 L430.72 230.96 L432 231.99 L433.55 232.71 L435.49 232.99 L438.81 232.37 L440.04 232.69 L440.87 235.33 L441.63 235.51 L442.41 235.34 L442.81 235.17 L443.39 234.8 L444.3 233.84 L445.05 233.51 L446.79 233.37 L448.24 233.78 L449.43 234.56 L451.71 236.99 L452.57 237.28 L453.39 236.48 L454.61 234.7 L455.87 236.17 L460.79 236.33 L462.56 238.75 L464.09 238.55 L466.69 237.58 L467.77 237.92 L468.53 238.66 L469.43 239.28 L470.89 239.29 L471.88 238.45 L472.43 237.71 L472.89 236.89 L475.65 233.45 L475.67 232.99 L477.09 232.8 L479.6 231.98 L480.71 231.79 L492.49 233.51 L492.72 233.75 L497.18 236.08 L500.6 238.92 L501.96 239.6 L503.76 239.87 L504.8 239.9 L505.73 240.05 L506.58 240.4 L507.37 241.01 L507.98 241.93 L508.12 242.77 L508.17 243.57 L508.49 244.4 L509.17 244.98 L509.9 245.21 L510.48 245.58 L510.73 246.52 L511.03 247.07 L514.16 249.39 L515.98 249.84 L516.93 250.24 L519.31 252.12 L520.34 252.53 L526.13 252.48 L527.06 252.25 L527.38 251.62 L528.15 250.9 L529.85 249.67 L530.23 249.58 L531.19 249.72 L531.59 249.67 L531.96 249.31 L532.33 248.36 L532.7 247.95 L534.96 246.96 L535.19 246.8 L536.15 246.98 L537.77 247.77 L540.25 248.39 L541.09 249.53 L541.66 252.53 L542 253.07 L542.54 253.5 L542.83 253.97 L542.21 254.96 L542.12 255.43 L542.21 255.91 L542.47 256.29 L544.29 257.89 L545.19 258.9 L545.57 259.76 L545.82 261.61 L546.46 263.22 L547.38 264.46 L548.42 265.21 L549.31 265.53 L550.07 265.6 L550.78 265.41 L551.47 264.93 L552.22 264.64 L552.64 265.21 L552.91 266 L557.22 271.62 L557.46 272.17 L557.86 272.57 L558.77 272.72 L559.6 272.77 L560.21 272.96 L560.6 273.38 L560.73 274.11 L561.14 275.48 L562.18 276.65 L563.62 277.64 L565.21 278.47 L565.36 276.8 L566.24 276.34 L567.6 276.36 L569.18 276.12 L570.23 275.45 L571.07 274.78 L572.08 274.64 L573.65 275.6 L574.44 276.29 L574.97 276.96 L575.29 277.72 L575.48 279.72 L575.77 280.11 L582.9 283.21 L587.98 283.06 L589.66 283.35 L590.78 284.15 L593.04 286.83 L593.22 287.23 L593.32 288.07 L593.6 288.23 L594.73 288.16 L595.02 288.23 L596.42 289.12 L597.06 289.36 L600.9 289.8 L602 289.68 L602.91 288.86 L604.56 289.54 L605.93 289.23 L607.12 288.59 L610.19 287.79 L611.02 287.71 L611.89 287.91 L614.1 289.43 L614.22 287.5 L615.05 287.75 L616.9 289.96 L617.77 290.29 L618.48 290.1 L618.96 290.23 L619.14 291.45 L619.14 297.1 L619.39 298.54 L620.23 299.69 L621.99 300.98 L625.6 304.99 L626.74 305.58 L626.83 305.94 L628.09 307.93 L628.54 308.24 L630.38 309.08 L631.77 310.04 L635.75 313.95 L636.6 314.57 L638.2 315.4 L638.82 315.99 L639.13 316.65 L640.82 322.29 L641.77 323.11 L643.61 323.42 L645.22 323.09 L646.86 322.5 L648.49 322.24 L650.07 322.9 L651.66 321.93 L653.53 321.21 L655.56 320.74 L661.38 320.2 L661.71 320.26 L662.12 320.33 L664.35 322.44 L665.17 322.9 L669.06 323.75 L672.72 323.37 L676.27 322.06 L681.82 319.16 L683.08 319.25 L684.33 319.77 L687.27 320.3 L689.01 321.38 L689.95 321.75 L690.82 321.75 L692.69 321.16 L698.1 321.36 L698.9 320.87 L699.37 319.18 L700.59 318.38 L704.09 317.86 L704.4 317.53 L705.39 316.92 L706.45 316.7 L706.94 317.55 L706.94 320.97 L708.52 322.66 L712.13 323.31 L716.11 323.58 L718.78 324.15 L720.3 325.62 L720.92 326.05 L726.55 328.47 L732.81 333.42 L738.78 338.14 L741.62 339.67 L743.51 340.07 L744.04 340.31 L744.34 340.7 L744.78 341.71 L745.14 342.09 L745.89 342.46 L752.07 343.96 L753.54 344.81 L754.15 346.39 L754.32 348.66 L754.8 350.98 L755.5 353.16 L756.34 354.99 L757 355.69 L758.79 357.19 L758.95 357.69 L758.55 358.55 L759.05 359.07 L759.85 359.43 L760.34 359.76 L760.55 360.47 L760.48 360.98 L759.78 362.59 L758.73 366.55 L757.9 368.38 L756.44 369.65 L754.46 370.21 L753.9 370.64 L753.47 371.78 L753.13 373.71 L753.03 375.63 L753.29 376.75 L754.38 378.65 L754.41 380.8 L754.12 383.1 L754.22 385.41 L755.04 386.95 L759.5 390.69 L760.21 392.07 L761.41 397.39 L764.1 403.39 L764.54 406.92 L762.02 407.79 L763.37 410.54 L767.36 413.32 L768.37 415.18 L768.61 420.32 L768.93 427.26 L769.26 434.21 L769.59 441.16 L769.91 448.11 L770.17 453.61 L769.74 454.61 L760.37 454.73 L744.56 454.93 L748.88 458.74 L754.56 465.58 L763.42 476.23 L770.93 485.28 L772.09 487.17 L772.78 489.24 L773.85 501.9 L775.32 519.07 L776.4 531.72 L776.96 540.87 L777.54 550.53 L779.11 554.19 L781.64 554.89 L787.33 555.1 L802.94 555.67 L818.55 556.23 L834.16 556.8 L849.76 557.37 L865.37 557.94 L880.98 558.51 L896.58 559.09 L912.19 559.65 L918.12 559.86 L919.96 559.62 L921.65 558.77 L922.25 557.96 L923.39 555.85 L924 555.43 L927.54 555.52 L928.37 556.28 L928.78 564.59 L928.43 565.78 L926.51 567.38 L926.4 568.87 L928.12 571.99 L927.02 575.1 L918.84 584.46 L917.46 587.07 L916.84 589.99 L917.14 593.7 L918.81 600.15 L919.08 603.48 L918.9 604.08 L918.17 605.61 L917.96 606.41 L917.99 607.42 L918.8 611.68 L920.21 614.27 L920.76 615.82 L921.22 621.81 L921.65 623.13 L922.52 624.64 L922.91 626.52 L923.02 634.2 L923.49 637.44 L924.96 640 L928.03 641.69 L930.62 642.03 L931.44 642.28 L932.25 642.78 L933.71 644.02 L934.52 644.53 L935.21 644.74 L936.54 644.97 L937.23 645.36 L938.15 646.62 L939.48 649.46 L940.76 650.41 L941.9 650.72 L942.83 650.83 L943.73 651.09 L944.78 651.79 L947.02 654.28 L947.92 654.94 L950.82 656.2 L951.8 656.75 L955.37 659.71 L957.72 660.74 L960.83 661.52 L963.93 661.74 L966.29 661.04 L968.16 660.72 L969.58 660.94 L971.41 661.68 L972.54 662.86 L973.35 664.78 L973.56 666.92 L973.45 668.94 L973.62 670.35 L973.58 673.65 L973.75 675.25 L974.4 676.8 L975.26 677.94 L976.29 678.96 L977.48 679.79 L978.79 680.34 L978.09 683.08 L978.39 684.01 L979.86 685.86 L981.05 687.95 L980.89 689.5 L978.33 689.76 L985.96 703.12 L990.18 713.6 L993 718.85 L996.27 720.74 L997.95 720.74 L999.27 720.96 L1000 721.8 L999.91 723.68 L994.26 723.76 L992.77 724.11 L991.72 725.1 L990.38 729.39 L986.53 741.71 L982.68 754.04 L978.83 766.38 L974.97 778.73 L974.04 781.68 L977.33 781.96 L978.19 782.69 L978.53 784.42 L979.01 789.55 L979.5 793.31 L974.9 793.67 L973.5 794.58 L971.61 798.56 L969.06 803.92 L963.45 815.72 L957.84 827.54 L955.29 832.91 L955.29 832.92 L955.28 832.93 L954.27 835.09 L952.07 839.83 L949.86 844.57 L948.85 846.72 L945.99 852.86 L946.62 855.31 L952.83 861.01 L959.45 867.08 L967.7 874.66 L966.88 875.78 L965.95 877.2 L964.76 878.5 L962.93 879.38 L960.86 878.85 L959.55 878.68 L958.96 879.11 L958.75 879.87 L958.19 880.54 L957.38 881.03 L956.44 881.22 L954.37 882.07 L951.82 885.79 L949.68 886.64 L949.14 886.95 L948.15 888.45 L947.72 888.97 L946.67 889.53 L943.19 890.81 L943.13 888.53 L944.34 883.92 L944.47 882.09 L944.36 878.41 L944.58 876.48 L944.31 873.75 L942.91 868.75 L942.74 865.96 L942.99 863.08 L942.73 861.84 L941.84 860.83 L938.63 858.82 L930.98 854.06 L923.34 849.29 L915.69 844.53 L908.05 839.76 L900.4 835.01 L892.76 830.25 L885.11 825.49 L877.47 820.73 L873.33 818.17 L870.99 816.49 L868.53 814.74 L866.9 814.32 L860.25 814.41 L844.81 814.62 L829.37 814.82 L813.93 815.02 L798.48 815.22 L791.76 815.31 L779.41 818 L751.67 824.03 L723.93 830.07 L696.19 836.11 L668.45 842.15 L666.69 842.42 L662.82 843.02 L658.95 843.61 L657.19 843.88 L649.89 845 L648.59 845.55 L647.93 846.58 L646.38 850.86 L644.08 857.25 L641.78 863.65 L639.47 870.07 L637.16 876.48 L636.1 878.73 L635.05 880.98 L634.53 882.08 L633.98 883.23 L632.93 885.48 L631.56 887.57 L630.2 889.64 L628.84 891.73 L627.47 893.81 L623.81 899.13 L620.14 904.44 L616.48 909.76 L612.81 915.08 L611.1 917.57 L609.31 920.17 L606.32 924.73 L605.63 927.06 L605.72 935.03 L605.82 942.73 L605.92 951.16 L606.07 963.94 L606.07 963.98 L605.76 969.75 L603.12 978.77 L600.46 987.88 L597.58 997.7 L594.59 1007.95 L591.79 1017.29 L587.97 1030.07 L584.98 1040.07 L581.41 1052.06 L579.23 1059.94 L576.93 1068.32 L575.05 1072.74 L574.35 1072.49 L574.11 1071.86 L574 1071.06 L573.65 1070.27 L572.68 1069.22 L569.18 1066.7 L565.3 1064.8 L564.14 1063.57 L563.53 1062.01 L563.52 1059.21 L562.97 1058.13 L563.19 1057.4 L563.2 1056.52 L562.68 1053.19 L562.43 1052.36 L561.27 1052.07 L557.71 1051.4 L545.58 1052.05 L545.54 1052.06 L519.77 1051.92 L493.99 1051.77 L490.84 1052.32 L489.52 1053.06 L485.71 1056.47 L484.78 1056.04 L481.4 1053.01 L479.75 1052.26 L472.11 1051.74 L469.91 1052.15 L468.73 1052.67 L468.46 1052.95 L468.41 1053.47 L467.63 1055.45 L467.33 1057.17 L467.05 1057.88 L466.42 1058.52 L465.79 1058.84 L465.22 1059.01 L464.79 1059.33 L464.08 1060.77 L462.81 1065.74 L460.25 1072.27 L459.62 1073.26 L457.97 1074.17 L457.37 1074.82 L451.28 1090.82 L449.3 1093.72 L445.06 1097.76 L443.88 1099.88 L440.34 1113.22 L440.29 1119.62 L439.56 1121.35 L437.64 1128.18 L437.77 1129.31 L436.25 1128.58 L435.94 1124.42 L434.93 1123.18 L435.56 1121.06 L435.28 1118.64 L434.19 1116.67 L432.41 1115.85 L431.51 1115.13 L429.33 1110.39 L428.52 1109.76 L427.78 1109.47 L427.25 1108.96 L427.04 1107.64 L427.13 1106.63 L427.51 1104.89 L427.6 1104 L427.92 1103.04 L428.6 1102.25 L429.2 1101.34 L429.33 1100.03 L424.79 1095.49 L423.61 1093.86 L423.12 1091.83 L422.81 1091.3 L421.34 1090.33 L420.89 1089.68 L420.91 1088.78 L421.55 1087.07 L421.44 1086.11 L420.35 1085.13 L418.63 1083.92 L417.55 1082.37 L418.37 1080.3 L419.43 1079.02 L419.99 1077.79 L419.95 1076.37 L419.2 1074.56 L418.52 1073.51 L416.33 1070.82 L415.57 1070.27 L413.92 1069.88 L412.09 1068.95 L410.52 1067.78 L408.78 1067.51 L408.09 1067.28 L407.45 1067.4 L405.94 1068.07 L405.19 1068.21 L401.95 1067.42 L396.2 1064.16 L380.8 1060.54 L366.86 1060.7 L344.99 1060.97 L340.63 1060.47 L334.94 1059.64 L334.24 1059.71 L333.83 1060.05 L333.47 1060.45 L332.86 1060.76 L321.44 1062.08 L318.93 1061.29 L316.53 1059.59 L306.03 1047.09 L304.24 1046.08 L296.7 1044.75 L296.27 1044.27 L295.3 1039.98 L292.77 1037.24 L289.22 1035.43 L282.28 1033.17 L280.84 1033.66 L276.94 1048.19 L276.16 1056.44 L275.8 1057.74 L275.3 1058.81 L275.12 1058.91 L274.77 1058.7 L273.74 1058.84 L273.03 1059.27 L272.4 1060 L271.89 1060.86 L271.56 1061.69 L269.57 1063.23 L258.68 1066.41 L249.14 1069.03 L248.83 1069.45 L248.61 1070.12 L248.36 1070.69 L247.94 1070.8 L246.6 1070.34 L244.99 1070.14 L244.08 1069.84 L243.2 1069.75 L242.09 1070.26 L240.2 1071.91 L239.13 1073.66 L238.54 1075.73 L237.57 1082.31 L236.98 1084.32 L235.92 1085.64 L235.72 1086.37 L236.22 1088.94 L236.16 1089.85 L235.23 1090.5 L226.04 1093.39 L223.85 1094.55 L222.19 1096.33 L221.4 1097.54 L220.34 1098.27 L219.08 1098.56 L217.27 1098.39 L215.87 1098.45 L216.55 1106.71 L216.37 1108.65 L215.46 1109.99 L209.27 1114.92 L206.85 1117.83 L202.66 1124.89 L176.73 1130.55 L173.71 1131.14 L168 1131.57 L155.32 1130.8 L152.69 1129.91 L152.06 1129.29 L150.27 1126.48 L149.87 1126.55 L146.72 1125.9 L145.84 1124.58 L145.48 1122.28 L145.5 1115.42 L148.17 1102.2 L148.13 1100.47 L145.63 1095.49 L144.93 1091.08 L144.22 1089.18 L141.07 1083.35 L140.53 1081.56 L140.51 1079.8 L141.93 1074.27 L141.84 1072.55 L141.1 1070.42 L138.8 1067.08 L138.51 1066.13 L138.78 1065.3 L139.82 1063.82 L140.1 1063.01 L139.82 1061.09 L138.83 1058.96 L137.39 1057.09 L135.75 1055.97 L131.77 1052.06 L129.81 1050.25 L129.04 1049.2 L128.7 1047.93 L127.77 1033.41 L126.07 1026.59 L120.97 1017.25 L120.32 1014.2 L120.71 992.77 L119.58 988.89 L102.47 960.37 L101.18 959.08 L99.38 958.61 L95.94 958.78 L94.77 958.65 L93.02 957.56 L91.09 956.35 L89.71 952.7 L89.64 941.35 L90.27 939.3 L91.49 937.51 L97.11 932.6 L97.17 931 L94.77 929 L92.63 928.11 L88.78 925.6 L80.4 921.55 L78.6 920.16 L76.78 918.26 L75.06 915.86 L73.85 913.19 L73.56 910.5 L74.49 908.21 L76.33 906.74 L80.98 905.09 L77.74 899.27 L76.8 896.36 L76.9 892.95 L77.31 890.45 L77.06 889.57 L74.38 888.98 L71.88 887.38 L71.63 885.7 L73.02 884.22 L83.08 881.13 L85.6 880.88 L86.77 881.07 L87.64 881.34 L88.37 881.25 L89.1 880.36 L89.5 879.47 L90.19 876.48 L90.29 874.77 L91.95 870.71 L92.2 869.46 L92.09 868.91 L91.76 868.39 L91.38 867.19 L91.3 864.62 L91.22 864.01 L90.6 862.83 L89.8 862.24 L87.28 861.18 L85.86 860.13 L83.28 857.36 L79.35 854.29 L78.77 853.2 L78.95 851.61 L80.01 849.85 L83.43 846.8 L84.87 845.2 L89.32 838.47 L92.98 832.94 L92.98 832.93 L94.77 830.39 L95.91 829.24 L99.21 827.75 L99.9 827.17 L99.29 825.5 L97.85 823.77 L96.16 822.16 L87.41 815.77 L84.48 814.66 L82.22 813.18 L79.34 808.15 L77.47 806.08 L69.76 799.27 L67.14 797.43 L63.25 796.08 L62.13 795.34 L61.21 794.11 L59.29 789.55 L57.77 786.8 L56.76 785.65 L55.48 784.81 L57.92 781.46 L58.58 779.86 L58.61 777.95 L58.34 777.06 L53.79 767.38 L53.76 767.32 L53.75 767.25 L53.76 767.19 L54.37 766.02 L54.54 764.87 L54.34 763.7 L53.79 762.58 L51.85 759.09 L51.12 754.86 L51.21 750.4 L51.77 746.26 L51.81 744.29 L51.21 742.52 L48.25 737.43 L47.92 736.02 L48.13 731.31 L47.99 730.55 L46.78 726.89 L46.69 726.13 L46.68 725.23 L46.4 723.22 L45.56 721.81 L43.05 719.13 L41.89 715.11 L44.31 712.6 L47.31 710.18 L47.93 706.46 L47.88 706.39 L47.08 705.03 L46.09 705.07 L44.8 705.59 L43.08 705.67 L41.7 705.24 L40.37 704.65 L37.89 703.12 L35.96 702.63 L35.38 702.41 L34.8 701.88 L33.15 699.92 L31.87 700.22 L30.86 701 L29.84 700.97 L28.57 698.85 L27.84 695.71 L27.77 689.37 L27.23 686.29 L25.17 682.3 L22.27 679.01 L15.63 673.09 L13.88 670.43 L13.14 667.31 Z "/>
</g>
</svg>
