<svg xmlns="http://www.w3.org/2000/svg" viewBox="0 0 1000 969.73">
<g fill="#ccc" stroke="#333" stroke-width="0.5" stroke-linejoin="round">
<path fill-rule="evenodd" d="M496.37 854.03 L496.25 853.94 L471.56 838.7 L476.04 838.87 L482.99 842.03 L487.3 843.24 L483.49 839.46 L477.75 836.13 L491.55 833.22 L498.78 827.87 L497.91 818.16 L497.88 818.15 L497.85 818.08 L497.83 818.07 L489.99 799.53 L482.2 790.3 L479.48 787.06 L444.51 763.88 L442.24 762.38 L438.32 757.72 L435.36 750.95 L433.21 743.76 L431.52 740.03 L428.82 737.55 L423.63 734.22 L413.19 724.44 L403.26 709.28 L397.54 691.71 L402.36 662.07 L398.28 652.95 L390.34 647.59 L365.55 643.73 L350.64 635.28 L344.94 630.16 L336.79 622.83 L324.35 608.25 L283.83 566.61 L255.34 543.84 L251.66 537.96 L249.48 530.42 L248.56 524.45 L246.62 519.28 L236.06 509.43 L227.72 497.82 L215.16 484.87 L207.89 474.05 L205.1 469.89 L201.13 465.2 L196.63 461.7 L185.4 457.62 L183.31 453.42 L182.14 448.17 L178.83 442.72 L176.26 441.67 L169.59 442.16 L166.83 441.89 L164.32 440.45 L161.43 438.2 L156.51 433.24 L152.75 426.96 L147.05 413 L143.35 406.48 L132.22 394.46 L128.04 388.33 L123.25 372.96 L120.81 361.77 L120.57 356.33 L121.31 352.43 L123.91 346.64 L124.81 343.64 L125.5 337.64 L125.44 337.38 L124.73 334.07 L121.97 331.32 L116.65 327.86 L111.99 326.66 L109.13 326.55 L108.18 327.68 L108.31 324.88 L110 323.38 L112.18 321.95 L113.71 319.39 L113.66 313.87 L111.94 307.07 L105.64 289.39 L104.28 282.35 L102.59 276.04 L99.62 272.12 L94.2 271.21 L84.87 275.37 L79.58 274.7 L74.31 269.02 L76.32 263.26 L80.56 257.79 L81.7 253.05 L83.81 251.96 L84.21 251.62 L83.28 246.79 L82.01 242.29 L80 238.9 L76.85 237.37 L70.6 236.48 L67.4 235.42 L64.8 233.67 L61.38 228.65 L59.45 219.67 L56.7 215.76 L54.76 215.58 L52.65 216.79 L50.47 217.36 L48.51 215.33 L47.64 212.21 L46.95 208.46 L46 205.09 L44.25 203.04 L41.05 202.83 L39.25 205.09 L37.87 208.18 L35.96 210.49 L33.76 211.24 L29.18 211.59 L26.72 212.41 L22.96 212.99 L20.74 210.6 L19.07 206.95 L17.11 203.63 L11.07 199.46 L9.64 197.61 L3.18 186.86 L0.32 180.59 L0 174.54 L3.73 169.56 L9 167.92 L13.48 165.83 L14.7 159.44 L12.29 152.57 L8.18 146.07 L4.66 138.79 L3.79 129.71 L4.62 127.1 L5.83 123.33 L12.18 112.21 L13.16 105.81 L10.12 94.82 L10.22 88.05 L16.23 72.4 L17.35 66.76 L16.39 45.19 L16.63 42.39 L19.54 34.47 L22.16 32.04 L27.86 26.76 L41.71 24.49 L66.23 25.16 L72.11 24.02 L74.92 24.15 L77.99 25.69 L80.24 28.92 L80.11 32.12 L79.15 34.79 L78.99 36.46 L81.22 38.13 L86.83 39.33 L90.04 41.81 L93.96 48.35 L99.41 62.54 L103.89 68.48 L127.32 91.95 L134.55 96.49 L144.32 100.76 L153.78 102.91 L160.03 101.21 L161.41 96.1 L164.21 85.73 L169.43 75.95 L170.62 73 L171.15 68.74 L170.62 66.38 L170.57 64.34 L172.47 60.98 L174.86 59.31 L181.58 57.19 L184.34 55.16 L187.83 49.62 L196.23 30.93 L208.28 22.66 L223.16 23.17 L274.22 38.45 L280.73 37.59 L283.94 34.73 L284.33 32.08 L284.15 28.92 L285.6 24.58 L288.17 22.03 L291.03 20.78 L293.55 19.04 L294.98 14.97 L297.04 13.68 L299.72 10.67 L301.81 7.64 L302.58 5.96 L309.6 0 L311.72 2.09 L313.78 9.75 L314.15 12.62 L313.99 15.76 L315.48 17.78 L320.77 17.19 L320.08 14.67 L319.02 12.23 L322.81 13.6 L325.94 17.48 L328.64 19.34 L331.1 14.69 L332.05 17.49 L332.45 19.64 L332.19 21.86 L331.1 24.88 L332.66 23.57 L336.71 20.95 L338.28 19.68 L343.26 30.6 L354.19 38.88 L360.91 42.01 L376.91 49.45 L379.67 47.86 L391.88 46.98 L392.96 45.34 L397.89 34.56 L407.84 41.15 L412.64 43.14 L421.06 48.68 L423.42 50.71 L426.96 52.7 L431.68 52.19 L440.2 49.45 L440.73 48.23 L441.4 45.98 L442.56 44.55 L444.57 45.85 L446.06 48.27 L446.35 50.34 L445.55 52.34 L443.7 54.63 L446.93 55.74 L450 55.2 L456.12 51.95 L453.76 59.51 L452.44 61.86 L454.35 61.18 L467.22 59.48 L472.83 60.06 L475.64 59.68 L480.93 56.34 L490.39 46.26 L495.92 43.35 L504.42 43.86 L512.05 48.2 L518.93 55.01 L533.31 73.64 L537.95 77.91 L543.11 80 L545.65 79.7 L553.23 76.53 L560.25 75.16 L562.44 73.96 L566.68 69.98 L582.25 51.18 L586.09 49.17 L590.09 49.13 L594.17 51.35 L608.34 64.19 L614 66.87 L618.98 67.86 L622.02 67.92 L624.57 67.98 L630.02 66.81 L634.53 64 L636.27 60.19 L636.46 55.61 L637.04 51.09 L639.85 47.56 L646.15 46.22 L652.32 48.68 L663.97 57.09 L667.79 58.78 L685.87 60.32 L690.77 62.57 L695.2 66.29 L700.97 72.55 L704.62 76.51 L708.63 79.09 L710.95 80.6 L717.68 83.11 L723.85 83.31 L723.37 78.21 L722.13 73.79 L722.23 71.3 L722.26 70.56 L726.02 68.99 L728.09 69.12 L732.22 70.15 L734.28 70.23 L736 69.55 L739.58 67.36 L741.27 67.06 L743.21 67.94 L744.35 69.59 L746.09 74.33 L747.55 77.26 L749.32 79.66 L751.42 80.63 L753.83 79.32 L754.62 77.58 L755.15 75.38 L755.87 73.26 L757.22 71.86 L758.96 71.67 L760.47 72.61 L761.74 74.26 L771.3 93.88 L774.38 97.59 L777.4 98.92 L784.55 99.61 L786.32 100.29 L787.35 101.28 L788.07 102.8 L788.81 105.01 L788.94 105.77 L788.94 107.7 L789.1 108.77 L789.66 109.8 L790.95 111.58 L791.35 112.83 L790.58 116.41 L785.02 120.65 L783.17 124.19 L785.92 134.59 L794.74 144.07 L800.98 148.15 L805.23 150.94 L813.15 153.59 L835 153.03 L842.7 152.83 L845.48 151.99 L853.66 149.43 L858.96 148.66 L863.09 147.17 L886.08 130.36 L889.31 129.6 L890.92 131.76 L891.88 134.79 L893.15 136.53 L895.72 136.53 L900.24 134.59 L902.79 134.08 L914.15 136.53 L916.5 136.16 L918.62 135.09 L920.9 135.09 L926.04 140.03 L928.58 140.93 L931.17 140.65 L931.86 140.25 L931.92 139.92 L932.89 141.05 L934.38 142.78 L935.89 144.22 L936.95 146.27 L937.69 149.28 L937.93 152.94 L937.03 153.93 L935.68 154.29 L934.62 155.97 L925.56 199.53 L922.91 206.21 L920.45 209.93 L915.29 214.29 L912.56 217.23 L910.62 220.57 L906.94 231.36 L894.89 251.97 L893.73 253.15 L890.95 254.78 L889.68 256.42 L889.15 258.83 L889.41 264.59 L888.91 267.14 L887.45 270 L885.78 272.45 L883.77 274.16 L874.72 277.17 L874.05 282.83 L878.16 298.76 L877.65 308.59 L874.64 313.85 L871.09 318.36 L868.89 325.84 L869.34 332.68 L871.33 339.82 L877.02 352.13 L881.65 357.78 L886.82 360.14 L897.81 362.55 L903.1 365.25 L905.35 365.95 L908.98 366.15 L917.24 364.14 L920.18 364.71 L924.53 368.37 L928.95 374.86 L932.13 382.55 L932.66 389.81 L934.27 394.39 L939.09 399.43 L950.29 407.76 L953.02 410.5 L954.82 411.54 L956.33 411.1 L959.22 408.14 L960.75 408.11 L962.93 410.93 L963.48 417.31 L965.1 419.58 L969.07 423.31 L973.69 430.1 L975.19 432.3 L983.53 437.21 L987.71 442.33 L990.1 444.25 L991.02 443.25 L992.59 441.11 L994.89 440.3 L998.09 443.18 L1000 449.88 L997.83 455.74 L993.46 460.62 L982.92 468.51 L976.86 470.72 L970.58 471.27 L955.99 469.8 L942.38 470.78 L938.56 471.92 L934.86 472.12 L931.54 470.04 L924.92 463.82 L918.44 459.22 L915.05 457.97 L911.31 458.19 L906.02 459.94 L903.82 461.89 L902.42 465.27 L902.44 467.81 L903.66 472.29 L903.1 474.81 L900.19 477.68 L903.18 479.57 L912 486.36 L919.81 496.51 L933.53 518.74 L959.72 547.16 L964.86 558.84 L971 578.54 L971.43 587.91 L964.86 594.37 L963.77 598.6 L963.3 603.7 L963.61 608.61 L964.86 612.35 L966.71 614.09 L967.43 615.71 L966.87 617.18 L964.86 618.46 L955.17 614.56 L952.07 614.82 L948.86 622.55 L946.67 625.56 L944.65 622.42 L942.53 616.47 L938.91 609.71 L934.54 604.05 L930.22 601.48 L927.47 602.3 L921.53 607.03 L918.52 608.75 L915.52 608.88 L908.98 607.81 L906.18 608.63 L902.63 614.47 L900.22 622.38 L897.15 628.37 L891.48 628.37 L879.27 626.48 L872.89 627.26 L866.03 635.4 L861 637.4 L855.52 637.59 L851.2 636.07 L847.84 631.82 L845.08 626.61 L841.48 623.04 L835.65 623.62 L831.87 626.43 L825.78 633.27 L821.06 635.65 L818.63 637.39 L817.12 640.3 L817.25 643.27 L819.71 645.12 L823.66 646.22 L825.51 647.39 L828.93 652.74 L828.8 655.04 L827.68 657.94 L827.66 659.75 L833.3 658.29 L835.1 659.64 L843.97 671.38 L851.57 692.63 L859.28 707.38 L857.45 708.95 L850.72 709.32 L847.76 710.94 L847.2 711.71 L845.82 713.6 L844.21 716.71 L842.17 719.66 L839.49 722.07 L838.74 720.34 L838.59 720.01 L833.38 713.23 L831.05 709.27 L830.44 706.33 L830.65 703.81 L830.49 701.38 L828.69 698.85 L821.8 693.99 L815.58 692.21 L800.33 693.65 L795.61 695.91 L796.49 697.32 L797.95 700.57 L798.77 701.99 L792.01 704.14 L759.31 728.27 L755.42 734 L761.59 737.07 L750.54 752.63 L746.39 761.52 L744.35 772.16 L744.21 772.87 L744.35 782.04 L748.93 808.76 L738.52 807.28 L723.29 807.48 L708.97 810.72 L701.21 818.16 L696.28 831.89 L696.41 837.95 L698.96 844.96 L705.02 857.26 L706.48 863.95 L704.6 867.36 L701.39 869.86 L698.88 873.77 L699.12 879.84 L701.5 888.2 L704.97 896.56 L713.87 911.13 L719.08 916.55 L723.48 922.28 L726.13 931.83 L726.02 941.98 L724.29 946.33 L723.16 949.16 L717.73 954.5 L715.05 956.06 L709.89 959.08 L711.69 962.56 L712.25 965.68 L711.3 967.8 L708.65 968.17 L705.76 966.3 L702.8 966.07 L699.91 967.29 L697.26 969.73 L693.08 968.19 L683.92 967.19 L680.13 964.71 L679.95 964.45 L674.78 956.83 L671.97 954.66 L665.03 955.11 L651.08 950.35 L642.63 945.76 L597.85 915.55 L584 906.59 L577.99 901.53 L566.97 889.02 L560.72 884.22 L551.75 881.68 L548.94 879.88 L540.91 867.25 L540.38 863.26 L540.68 854.83 L539.93 851.43 L536.97 847.41 L534.64 847.49 L532.6 849.25 L530.56 850.37 L525.1 849.41 L514.38 845.17 L508.74 844.04 L503.07 845.37 L499.6 849.05 Z "/>
</g>
</svg>
