<svg xmlns="http://www.w3.org/2000/svg" viewBox="0 0 1000 1052.41">
<g fill="#ccc" stroke="#333" stroke-width="0.5" stroke-linejoin="round">
<path fill-rule="evenodd" d="M563.55 1.38 L559.24 10.98 L559.24 14.15 L559.95 16.82 L563.04 24.59 L567.45 32.16 L570.34 35.31 L573.97 37.47 L577.18 40.07 L579.45 44.22 L582.87 52.89 L586.32 58.54 L587.17 60.78 L588.17 65.52 L588.71 67.02 L590.09 69.3 L597.12 76.78 L600.75 79.26 L602.21 80.77 L607.27 88.08 L610.34 90.8 L614.46 92.88 L617.13 95.31 L618.35 99.28 L619 107.53 L622.82 116.01 L636.21 128.1 L639.06 136.98 L639.1 137.09 L638.73 139.43 L636.99 143.61 L636.65 145.92 L637.05 148.64 L637.9 150.77 L640.52 155.25 L643.75 159.55 L646.2 164.51 L656.43 193.62 L659.13 197.7 L663.28 200.31 L668.05 201.59 L673.76 201.71 L674.92 202.24 L675.95 203.03 L676.79 203.92 L677.85 205.38 L678.12 206.29 L677.35 208.66 L676.58 210.06 L675.88 210.44 L675.84 210.64 L677.15 211.52 L677.99 211.89 L681.24 212.48 L683.64 213.78 L686.59 218.37 L688.61 220.29 L690.58 221.06 L694.79 222.04 L696.83 222.87 L701.14 225.68 L702.96 227.58 L703.87 229.7 L704.63 232.27 L706.08 233.79 L708.06 234.68 L712.9 236.08 L714.43 236.95 L714.79 237.34 L715.6 238.21 L717.08 240.25 L718.71 241.94 L720.53 242.91 L722.65 243.33 L725.17 243.35 L729.17 244.1 L741.24 250.29 L745.08 251 L748.63 250.95 L752.08 251.33 L755.65 253.31 L756.63 254.43 L758.47 257.06 L759.62 258.01 L760.94 258.5 L762.02 258.57 L763.08 258.47 L764.38 258.51 L766.62 258.88 L768.84 259.54 L770.77 260.75 L772.17 262.73 L777.62 276.79 L779.54 290.14 L777.88 306.57 L781.89 304.47 L785.6 303.98 L797.67 304.01 L806.23 305.12 L812.28 304.01 L816.01 305.75 L820.3 305.81 L822.2 306.6 L823.73 308.09 L824.53 310.09 L824.21 314.59 L822.9 318.62 L822.06 322.7 L824.71 331.76 L824.96 336.32 L823.33 345.57 L822.76 346.86 L821.99 347.83 L821.37 348.87 L821.24 350.38 L821.27 351.68 L821.01 354.24 L821.01 355.37 L821.83 361.78 L821.69 364.19 L820.39 370.25 L820.37 372.25 L821.24 374.41 L824.91 379.48 L826.53 381.22 L833.94 386.68 L837.12 390.61 L839.84 394.95 L843.67 399.59 L844.67 401.21 L844.92 402.14 L844.86 403.91 L845.04 404.78 L845.72 405.84 L847.46 407.73 L850.63 414.28 L850.93 415.46 L850.57 416.36 L849.75 417.74 L849.53 418.83 L849.9 419.04 L850.65 419.29 L851.08 419.95 L850.53 421.43 L850.95 422.55 L851.47 422.67 L852.07 422.55 L852.8 423 L853.35 423.94 L854.31 426.27 L854.92 427.3 L856.21 428.71 L857.71 429.71 L859.45 430.28 L865.63 430.67 L873.62 432.27 L886.34 432.46 L890.29 433.22 L894.54 434.69 L903.22 439.22 L905.52 439.75 L907.31 439.41 L909.01 438.74 L912.76 437.76 L913.88 437.22 L915.06 437.02 L918.46 437.92 L921.64 438.23 L923.13 438.71 L927.26 442 L932.15 443.55 L947.8 450.89 L951.02 451.76 L957.51 452.15 L960.6 452.9 L962.51 454.18 L966.78 455.55 L968.54 456.94 L968.8 459.15 L967.49 461.83 L965.73 464.6 L964.56 467.07 L964.12 471.93 L964.95 476.81 L966.97 481.2 L970.2 484.66 L974.17 486.75 L978.1 487.46 L988.18 487.15 L988.72 487.5 L989.76 488.81 L990.34 489.85 L991.17 492.12 L991.84 493.19 L1000 500.29 L998.02 500.99 L994.97 500.7 L989.13 499.43 L986.34 499.77 L984.28 501.18 L982.56 502.71 L980.66 503.44 L967.75 504.16 L966.78 504.58 L964.55 507.63 L964.57 508.17 L962.94 509.13 L960.91 511.28 L958.4 514.53 L959.22 522.63 L958.74 523.99 L957.68 524.98 L955.22 529.6 L953.31 531.08 L948.71 530.53 L946.28 530.65 L945.23 532.18 L944.63 534.39 L943.1 535.62 L940.96 536.23 L938.61 536.6 L933.98 538.04 L926.26 542.44 L922.51 543.69 L919.67 543.68 L917.57 543.37 L915.68 543.71 L913.4 545.71 L911.69 546.23 L904.96 544.48 L896.15 545.1 L892.07 546.21 L888.15 548.43 L886.55 549.82 L882.68 554.42 L881.62 555.03 L879.03 555.29 L877.87 555.61 L876.88 556.27 L873.51 560.55 L872.98 561.65 L872.77 563.14 L872.98 564.55 L873.3 565.45 L873.28 566.37 L872.48 567.88 L871.51 568.78 L870.41 569.19 L869.34 569.45 L868.47 569.9 L868.02 570.58 L867.44 572.35 L867.01 573.06 L865.42 573.74 L862.96 574.46 L860.97 575.39 L860.79 576.65 L861.7 579.13 L861.25 581.7 L859.94 584.02 L858.27 585.78 L856.83 586.73 L854.81 587.77 L852.57 588.61 L850.52 588.94 L849.27 590.09 L849.32 592.74 L850.19 597.65 L848.48 600.9 L844.8 603.5 L840.34 605.37 L836.28 606.43 L836.98 608.55 L835.29 609.17 L833 609.02 L831.85 608.8 L831.58 609.71 L831.89 610.61 L832.37 611.42 L832.58 611.98 L832.79 612.31 L833.25 612.82 L833.46 613.29 L832.96 613.49 L832.82 613.65 L832.01 614.29 L831.85 614.35 L830.27 618.82 L829.65 619.9 L828.11 620.69 L826.68 620.01 L823.76 616.73 L819.53 620.21 L818.29 620.69 L816.83 620.21 L815.31 619.47 L814.11 619.43 L813.18 622.67 L811.17 624.9 L810.71 626.68 L810.62 627.34 L810.39 628 L810.02 628.5 L809.62 628.7 L809.35 629.01 L809.52 629.78 L809.82 630.7 L809.99 631.47 L809.38 634.08 L807.81 636.17 L805.67 637.6 L803.36 638.29 L798.93 638.45 L797.54 639.01 L796.53 640.16 L795.65 641.49 L794.61 642.2 L793.11 641.39 L793.89 639.71 L793.04 639.48 L791.47 640.03 L790.18 640.67 L789.88 641.34 L788.86 642.7 L787.78 643.34 L786.58 639.73 L785.04 641.01 L782.53 645.03 L780.78 646.74 L778.91 648.12 L774.82 650.19 L770.85 651.43 L769.67 652.8 L771.18 655.04 L770.11 655.51 L769.15 655.53 L768.3 655.1 L767.53 654.17 L767.27 654.87 L766.47 655.83 L766.01 656.63 L765.15 655.56 L763.93 655.07 L762.83 655.27 L762.37 656.19 L762.83 657.62 L763.72 658.39 L764.3 659.14 L763.83 660.52 L762.51 659.71 L761.33 659.84 L760.31 660.7 L759.46 662.11 L760.18 662.11 L758.21 663.53 L757.6 664.23 L757.26 665.3 L756.54 664.84 L755.8 664.51 L755.97 666.82 L756.65 668.85 L756.71 670.53 L755.08 671.73 L753.25 671.65 L752.42 670.37 L751.83 668.95 L750.71 668.48 L749.68 669.33 L747.8 674.13 L745.73 677.82 L745.19 680 L745.45 681.14 L745.67 682.08 L742.64 687.64 L743.37 690.01 L742.96 693.16 L735.46 724.18 L735.25 729.39 L733.2 739.65 L732.08 741.7 L730.38 743.25 L728.14 744.52 L718.72 747.59 L716.47 748.84 L715.53 750.58 L709.06 757.37 L702.11 761.91 L699.21 764.31 L696.53 767.85 L693.41 776.19 L692.63 777.54 L685.68 784.74 L685.64 784.73 L683.25 784.35 L681.32 784.18 L679.3 783.71 L677.29 783.52 L672.28 784.23 L660.24 788.03 L643.98 793.16 L640.52 795.72 L638.91 796.57 L633.43 796.37 L629.91 797.58 L629.1 797.73 L628.49 798.29 L628.33 801.16 L629.44 809.75 L629.38 814.49 L628.26 818.28 L625.15 825.45 L624.95 829.83 L621.72 835.54 L619.37 843.38 L610.04 864.45 L606.63 879.8 L605.49 882.56 L600.8 893.9 L598.49 901.03 L584.75 911.89 L577.07 915.72 L554.8 918.06 L550.34 917.26 L545.46 915.73 L541.35 915.04 L537.25 915.66 L532.41 918.01 L526.05 922.89 L523.94 923.79 L517.57 925.49 L514.34 925.87 L511.36 925.09 L507.87 924.29 L500.08 925.17 L496.31 924.31 L490.66 920.43 L482.57 917.41 L477.86 915.66 L475.73 915.92 L473.59 916.84 L470.66 917.6 L465.29 916.7 L460.79 913.34 L453.42 904.52 L448.7 901.79 L443.1 901.83 L432.02 904.85 L429.73 905.19 L429.58 904.63 L430.15 903.61 L430.05 902.65 L428.94 901.72 L427.85 901.03 L426.61 900.8 L421.1 902.18 L419.07 900.91 L417.46 898.59 L412.63 895.07 L408.58 889.69 L407.63 889.09 L405.47 888.38 L404.48 887.77 L403.76 886.72 L402.67 884.25 L401.67 883.35 L395.7 881.5 L394.37 880.11 L393.56 878.94 L382.29 870.04 L379.6 868.38 L376.48 866.93 L375.41 866.13 L374.01 864.63 L372.38 862.12 L371.43 861.17 L369.9 860.69 L368.52 860.95 L365.02 862.25 L363.12 862.4 L361.47 862.01 L356.61 860.13 L350.77 859.02 L345.48 859.4 L340.41 860.91 L332.39 864.74 L331.37 865.6 L330.07 866.34 L329.41 865.73 L328.95 864.53 L328.24 863.57 L325.69 863.2 L323.17 864.55 L319.01 868.8 L318.43 869.85 L318.18 870.87 L317.74 871.78 L316.53 872.56 L315.05 873.22 L313.94 873.96 L313.02 874.97 L312.14 876.42 L310.43 881.01 L309.27 882.41 L306.56 883.5 L305.84 884.67 L303.72 891.98 L302.88 893.81 L302.58 894.77 L302.51 895.77 L303.13 896.94 L304.15 898.2 L304.64 899.44 L303.68 900.59 L302.24 901.72 L302.11 902.66 L302.51 903.69 L302.68 904.97 L302.45 906.66 L302.17 907.88 L301.55 909.05 L296.79 914.69 L295.37 917.11 L294.73 919.68 L294.8 921.33 L295.21 921.71 L295.84 921.94 L296.59 923.11 L297.25 924.82 L297.4 925.55 L296.25 927.55 L294.63 929.34 L292.49 931.21 L291.35 933.2 L292.72 935.33 L293.27 936.83 L293.32 939.48 L293 942.27 L292.48 944.26 L291.53 945.76 L290.48 946.52 L287.45 947.66 L286.31 948.62 L286.37 949.67 L286.77 950.86 L286.68 952.24 L282.22 959.11 L281.97 959.38 L280.93 960.45 L278.84 961.95 L277.63 963.54 L275.88 967.65 L273.88 970.77 L272.05 971.52 L267.21 970.47 L263.83 971.09 L261.48 973.05 L257.87 978.45 L252.3 983.86 L249.73 985.22 L248.07 985.79 L243.17 986.66 L242.21 987.38 L241.09 989.74 L236.79 994.18 L234.75 998.46 L231.32 1007.91 L227.26 1014.19 L221.88 1019.65 L215.61 1023.54 L208.87 1025.17 L198.52 1025.25 L195.15 1025.85 L192.31 1026.88 L191.04 1028.13 L190.91 1030 L191.87 1035.36 L191.98 1037.67 L191.54 1039.85 L190.36 1041.97 L188.38 1043.88 L182.34 1048.03 L179.92 1048.97 L177.66 1048.94 L171.32 1047.22 L162.22 1046.98 L156.97 1044.59 L154.54 1044.14 L149.65 1044.3 L140.7 1046.75 L139.2 1046.81 L136.21 1046.43 L134.69 1046.45 L125.39 1049.15 L122.08 1049.25 L107.99 1046.04 L103.7 1043.35 L99.17 1041.44 L93.21 1042.21 L90.45 1043.68 L85.48 1047.18 L78.6 1050.41 L76.31 1052.08 L76.02 1052.41 L75.48 1051.21 L74.38 1047.42 L73.34 1046.11 L71.73 1044.98 L71.12 1044.36 L70.46 1043.46 L68.98 1040.16 L67.9 1035.84 L67.32 1031.42 L67.28 1027.83 L69.61 1019.73 L69.79 1016.98 L69.29 1015.25 L67.56 1012.76 L66.9 1011.31 L66.58 1008.26 L66.9 1004.81 L68.28 998.43 L68.74 996.98 L71.89 994.63 L73.37 992.72 L76.52 986.79 L82.69 978.96 L85.14 974.72 L87.11 970.12 L91.72 963.57 L92.1 961.73 L88.09 954.59 L87.73 952.36 L87.97 943.82 L87.05 933.54 L84.17 926.48 L84.14 926.04 L82.95 924.66 L82.34 924.6 L81.28 925.15 L79.83 925.65 L79.9 924.56 L81.03 922.28 L78.79 914.42 L77.74 912.31 L76.63 911.4 L73.91 910.02 L73.04 908.81 L73.03 907.59 L73.95 905.03 L73.89 903.72 L73.06 903.01 L71.82 902.82 L70.71 902.41 L70.38 901.13 L70.96 900.29 L73.29 898.84 L73.95 897.68 L73.09 894.55 L68.31 890.26 L68.51 886.96 L69.2 885.09 L72.37 883.09 L70.98 881.86 L70.01 881.89 L69.07 882.49 L68.1 882.89 L67.04 882.41 L66.96 881.2 L67.55 879.73 L67.61 878.74 L66 878.96 L65.65 876.64 L65.06 875.55 L61.93 874.14 L60.17 872.98 L59.49 871.67 L58.78 868 L58.34 867.07 L57.23 865.55 L56.78 864.72 L56.77 863.83 L57.25 863.17 L57.64 862.45 L57.41 861.34 L56.72 860.62 L54.79 859.62 L54.12 858.92 L53.91 858.16 L53.71 855.07 L51.66 854.27 L49.67 853.05 L48.67 851.45 L49.6 849.48 L49.77 847.75 L48.61 845.2 L45.72 840.61 L42.38 833.34 L41.25 831.82 L27.46 820.38 L19.31 815.39 L18.22 815.08 L16.01 814.93 L15 814.65 L13.82 813.83 L10.96 810.57 L5.44 806.17 L3.43 802.97 L1.55 801.54 L0.86 800.72 L0.33 798.8 L0.32 778.59 L0.3 758.43 L0.26 738.3 L0.25 718.18 L0.23 698.09 L0.23 694.82 L0.21 678.04 L0.19 658.01 L0.17 637.99 L0.16 630.09 L0.15 618.01 L0.13 598.06 L0.1 578.14 L0.09 558.23 L0.07 540.84 L0.06 523.46 L0.03 506.12 L0.01 488.78 L0 478.87 L24.98 478.87 L49.96 478.87 L74.94 478.87 L99.92 478.87 L106.02 478.87 L107.39 474.64 L107.38 469.91 L107.36 463.28 L107.34 456.66 L107.31 450.05 L107.29 443.42 L107.27 436.8 L107.25 430.18 L107.22 423.57 L107.2 416.97 L107.18 410.36 L107.16 403.75 L107.14 397.15 L107.12 390.55 L107.11 383.96 L107.08 377.38 L107.05 370.78 L107.04 364.19 L107.04 364.1 L107 349.91 L106.95 335.64 L106.91 321.38 L106.86 307.13 L106.82 292.9 L106.81 290.09 L106.79 278.69 L106.74 264.48 L106.7 250.27 L106.66 236.09 L106.62 221.91 L106.57 207.75 L106.53 193.6 L106.49 179.45 L106.43 165.32 L106.41 156.42 L106.4 151.2 L106.36 137.09 L106.36 132.48 L106.36 127.87 L106.36 123.27 L106.36 118.67 L106.36 114.07 L106.36 109.47 L106.36 104.87 L106.36 100.27 L106.36 95.67 L106.36 91.08 L106.36 86.49 L106.36 81.89 L106.36 77.28 L106.36 72.69 L106.36 68.11 L106.36 63.52 L106.36 60.33 L108.31 60.24 L111.59 60.11 L117.62 59.86 L123.63 59.61 L129.66 59.36 L135.68 59.11 L140.69 58.9 L145.72 58.69 L150.72 58.48 L155.74 58.27 L157.76 58.18 L159.78 58.1 L161.61 57.75 L163.42 57.39 L165.25 57.03 L167.07 56.67 L176.08 54.91 L185.06 53.16 L194.07 51.4 L203.07 49.63 L212.09 47.88 L221.08 46.11 L230.08 44.36 L239.09 42.6 L248.1 40.83 L257.1 39.08 L266.1 37.32 L275.1 35.55 L284.11 33.8 L293.11 32.04 L302.12 30.29 L311.12 28.52 L320.43 26.71 L333.05 25.61 L342.25 24.81 L349.63 24.17 L353.66 24.35 L355.04 25.08 L355.66 25.57 L355.8 26.32 L355.79 27.83 L356.13 28.63 L356.92 28.86 L357.7 28.95 L358.04 29.32 L357.91 31.99 L358.04 32.77 L358.34 33.37 L359.56 35.06 L360.79 37.84 L364.01 41.67 L364.66 42.8 L364.71 43.48 L364.51 45.37 L364.66 45.95 L365.24 46.28 L366.2 46.62 L367.12 46.74 L368.24 45.63 L369.83 47 L371.37 48.9 L371.95 49.78 L373.4 50.39 L374.85 50.64 L375.94 51.13 L376.38 52.46 L376.98 53.69 L378.09 54.58 L378.68 55.65 L377.78 57.45 L381.27 61.24 L382.26 63.6 L380.75 65.96 L381.7 67.5 L383.38 72.32 L384.22 77.03 L385.61 78.19 L387.5 78.13 L391.29 76.82 L391.76 76.53 L392.47 75.95 L395 72.94 L397.21 72.54 L398.8 71.54 L408.84 60.59 L410.51 60.07 L411.76 58.81 L413.68 55.91 L414.99 54.72 L418.13 52.56 L419.83 50.93 L420.16 47.05 L423.88 44.41 L424.5 44.29 L425.07 44.43 L425.58 44.74 L426.05 45.1 L426.45 44.34 L426.96 43.76 L428.25 42.8 L431.29 41.48 L432.13 40.83 L435.2 37.83 L436.08 37.4 L439.97 36.68 L443.54 34.06 L448.66 27.77 L452.42 25.88 L454.55 25.58 L456.79 25.88 L457.94 26.24 L459.8 27.21 L460.76 27.41 L461.76 26.64 L464.79 21.27 L466.54 19.54 L468.1 18.94 L471.75 19.12 L474.11 19.58 L475.42 20.79 L477.25 24.35 L478.05 25.11 L478.75 25.44 L479.25 26.09 L479.44 27.83 L483.08 31.24 L484.44 30.9 L489.35 30.39 L490.43 30.12 L490.77 29.45 L492.27 27.65 L492.62 27.03 L493 26.79 L498.4 20.29 L499.98 18.84 L503.66 16.49 L506.52 12.79 L507.1 12.34 L507.89 11.86 L508.82 11.48 L509.8 11.32 L510.7 10.97 L511.36 9.38 L512.03 9.02 L514.21 8.55 L516.71 6.44 L518.55 5.97 L520.62 5.8 L528.48 3.22 L529.17 2.84 L529.98 2.04 L530.34 1.29 L530.85 0.74 L532.02 0.54 L531.36 2.14 L532.48 2.9 L533.18 3.87 L534.05 4.33 L535.67 3.6 L536.59 4.92 L537.93 4.7 L540.9 2.84 L541.91 5.14 L545.21 5.04 L548.73 3.56 L552.26 0 L556.55 0.06 Z "/>
</g>
</svg>
