<svg xmlns="http://www.w3.org/2000/svg" viewBox="0 0 1000 1798.66">
<g fill="#ccc" stroke="#333" stroke-width="0.5" stroke-linejoin="round">
<path fill-rule="evenodd" d="M978.03 1759.15 L981.27 1755.22 L983.9 1753.16 L986.28 1750.1 L988.39 1743.45 L990.7 1748.04 L991.89 1752.63 L991.49 1758.02 L988.65 1764.6 L982.19 1772.32 L959.03 1792.74 L949.93 1798.66 L945.12 1775.58 L949.93 1728.82 L944.39 1709.33 L939.05 1704.74 L920.58 1694.56 L913.71 1692.64 L906.46 1687.98 L888.98 1664.7 L899.73 1666.23 L939.64 1693.77 L949.93 1703.74 L954.88 1723.5 L949.93 1793.07 L958.31 1785.76 Z M991.56 1672.82 L1000 1687.45 L995.91 1698.62 L987.6 1709.53 L983.11 1723.3 L983.51 1728.95 L984.37 1733.74 L987.33 1741.19 L984.04 1736.8 L980.41 1730.55 L978.43 1723.76 L980.61 1717.71 L993.4 1692.57 L985.88 1672.95 L969.33 1653.93 L955.47 1630.72 L964.18 1636.77 Z M72.43 1161.82 L81.93 1162.15 L76.39 1164.94 L73.55 1164.41 L72.43 1162.62 Z M0.33 946.49 L0 937.86 L1.12 934.55 L5.15 931.36 L6.33 937.93 L5.34 941.71 L3.1 944.3 Z M62.74 789.34 L65.9 782.97 L69.73 778.19 L74.81 775.07 L80.68 774.21 L77.58 783.5 L73.03 792.92 L67.88 796.64 Z M415.2 173.59 L408.27 168.42 L406.43 166.69 L414.01 168.02 L416.32 169.94 L415.99 171.86 Z M778.55 82.08 L786.27 75.12 L784.09 79.63 L781.71 81.62 L779.73 82.02 Z M385.91 47.43 L394.02 34.98 L392.7 42.13 L390.2 45.71 L387.43 47.17 Z M404.71 7.82 L411.44 5.83 L409.72 9.94 L408.14 10.33 L406.69 8.94 Z M571.61 6.36 L570.35 4.37 L568.84 3.44 L567.98 2.52 L568.84 0 L571.87 0.4 L572.33 1.79 L571.61 3.84 Z "/>
</g>
</svg>
