<svg xmlns="http://www.w3.org/2000/svg" viewBox="0 0 1000 862.61">
<g fill="#ccc" stroke="#333" stroke-width="0.5" stroke-linejoin="round">
<path fill-rule="evenodd" d="M275.95 714.28 L258.97 738.48 L227.14 761.26 L195.76 759.09 L167.64 757.97 L118.96 754.7 L146.02 729.85 L181.7 726.75 L197.91 699.85 L215.3 674.72 L222.9 641.16 L262.87 618.66 L291.56 627.19 L338.52 617.7 L360.24 624.1 L424.9 612.49 L490.4 622.93 L510.98 643.52 L504.45 654.34 L481.67 651.09 L447.88 641.47 L422.91 655.55 L412.52 671.93 L397.32 685.74 L378.88 691.62 L363.28 688.55 L351.71 682.24 L339.02 677.55 L319.13 678.58 L320.18 684.97 L304.58 701.59 L285.41 715.65 Z M781.69 556.35 L764.96 576.89 L726.88 607.07 L684.91 631.79 L657.02 635.62 L706.34 568.03 L719.84 534.44 L712.56 491.3 L721.38 491.3 L727.04 494.37 L731.73 499.14 L738.36 504.26 L848.8 501.87 L890.12 491.3 L873.71 522.5 L836.35 543.14 L798.84 554.22 Z M869.26 46.1 L781.86 42.18 L745.8 29.71 L726.15 3.24 L901.52 0 L971.54 25.53 L1000 95.62 L982.54 94.42 Z M406.45 813.8 L408.96 828.62 L409.61 856.9 L403.54 862.61 L396.02 845.15 L374.92 833.39 L344.28 827.09 L339.75 818.74 L357.54 814.14 L371.77 813.8 L379.85 810.73 L388.75 808.35 Z M87.81 613.89 L92.34 621.3 L98.88 636.39 L86.76 646.45 L29.03 638.18 L0 637.24 L11.08 621.82 L61.77 610.65 Z M479.46 528.64 L485.77 531.88 L486.98 554.39 L486.5 565.81 L481.65 585.42 L471.86 595.14 L468.47 589.34 L470.25 575.36 L466.04 552.26 L469.52 535.89 Z "/>
</g>
</svg>
