<svg xmlns="http://www.w3.org/2000/svg" viewBox="0 0 1000 766.4">
<g fill="#ccc" stroke="#333" stroke-width="0.5" stroke-linejoin="round">
<path fill-rule="evenodd" d="M842.45 109.58 L842.92 126.45 L849.67 133.33 L859.46 137.97 L868.95 144.43 L887.39 170.68 L935.35 309.8 L938.53 327.27 L937.39 340.03 L931.48 369.14 L931.1 398.13 L935.19 429.21 L944.83 458.15 L961.75 480.73 L987.55 505.05 L998.18 520.81 L1000 536.06 L989.38 547.69 L973.29 547.08 L956.29 539.64 L943.01 530.76 L936.56 528.36 L922.44 528.93 L914.78 525.68 L903.32 516.03 L897.17 513.82 L875.24 516.03 L859.91 512.72 L818.1 497.17 L808.39 490.65 L802.54 480.2 L793.74 407.63 L785.17 378.6 L761.19 321.24 L754.81 292.67 L751.85 232.75 L756.99 174.34 L770.45 188.2 L783.9 179.57 L798.42 163.28 L814.85 154.56 L830.74 151.2 L831.22 142.6 L824.95 131.05 L820.64 118.76 L822.26 113.09 L827.04 110.21 L833.91 109.34 L842.21 109.58 Z M721.69 123.92 L704.96 140.7 L702.6 152.02 L702 164.34 L697.22 175.6 L685.53 182.81 L672.63 183.12 L659.12 180.83 L645.69 180.11 L629.22 184.64 L615.94 193 L592.27 215.65 L579.82 223.51 L552.88 234.84 L546.57 240.69 L545.67 241.52 L545.22 253.69 L550.68 267.35 L564.87 294.54 L569.12 309.76 L571.62 326.09 L575.19 412.17 L579.59 439.12 L592.72 459.65 L607.14 464.9 L617.99 463.11 L623.45 466.71 L621.78 487.79 L615.03 515.69 L609.57 528.02 L601.67 540.55 L584 557.65 L579.36 562.13 L575.04 568.92 L575.49 584.03 L598.41 574.69 L600.92 587.53 L595.6 601.05 L578.83 626.14 L573.67 640.47 L569.58 670.86 L563.96 681.65 L496.42 746.24 L461.82 766.4 L431.61 762.9 L427.97 757.08 L422.51 738.82 L418.94 731.27 L413.1 725.66 L397.54 714.69 L351.4 671.97 L340.93 657.85 L333.72 643.45 L318.47 596.91 L309.21 587.18 L295.63 586.39 L265.58 591.79 L233.48 585.43 L208.43 583.66 L205.02 576.93 L203.73 565.91 L206.08 561.6 L216.33 552.64 L218.75 545.56 L213.75 512.68 L203.73 497.55 L203.73 477.02 L198.04 456.4 L193.71 448.31 L185.97 439.75 L183.54 434.93 L182.86 429.13 L181.19 424.22 L175.88 422.16 L164.57 421.86 L160.02 419.63 L154.4 404.54 L145.75 398.89 L127.69 391.96 L103.71 373.24 L88.23 365.15 L48.01 358.96 L0 336.05 L185.71 342.28 L240.74 331.82 L291.47 303.2 L363.95 277.03 L389.53 267.79 L404.94 252.6 L416.24 231.28 L442.77 204.3 L531.5 133.51 L559.05 116.78 L682.55 41.75 L777.56 2.28 L795.97 0 L809.83 5.4 L810.9 15 L800.21 22.55 L777.26 32.84 L771.17 42.77 L758.98 72.07 L756.83 80.88 L751.87 90.99 L729.04 112.19 Z "/>
</g>
</svg>
