<svg xmlns="http://www.w3.org/2000/svg" viewBox="0 0 1000 650.7">
<g fill="#ccc" stroke="#333" stroke-width="0.5" stroke-linejoin="round">
<path fill-rule="evenodd" d="M637.27 549.41 L631.12 549.99 L627.77 549.01 L625.71 547.27 L621.46 542.39 L620.14 541.57 L617.85 541.4 L614.35 544.78 L605.59 545.05 L601.32 546.23 L597.02 549.74 L595.83 550.25 L594.74 550.31 L593.67 550.64 L592.58 551.88 L591.69 554.54 L591.59 557.63 L592.03 560.66 L592.79 563.16 L593.51 564.23 L594.69 566 L596.97 567.08 L599.22 567.52 L601.05 568.4 L602.42 570.03 L603.35 571.83 L604.82 577.28 L604.93 578.9 L604.68 582.26 L604.97 583.7 L605.86 584.44 L608.37 584.9 L609.26 585.9 L610.07 588.72 L610.28 591.15 L610.04 593.56 L609.46 596.26 L607.59 598.19 L607.31 599.62 L608.96 603.38 L609.64 604.35 L611.85 606.45 L612.35 607.74 L612.07 609.46 L611.26 609.95 L610.25 610.32 L609.41 611.61 L607.62 616.91 L605.16 622.32 L603.31 625.24 L602.32 625.79 L601.15 625.5 L587.49 628.67 L585.43 629.71 L581.17 632.59 L577.55 634.35 L575.79 634.57 L573.64 634.15 L571.41 634.13 L567.43 636.21 L565.15 636.68 L562.06 635.39 L557.37 630.17 L553.8 628.81 L552.17 629.44 L546.21 633.49 L540.66 633.91 L538.86 634.53 L536.89 635.99 L535.76 637.13 L534.67 637.88 L532.87 638.14 L531.35 637.71 L528.01 635.73 L526.44 635.18 L512.34 634.2 L510.17 634.94 L508.94 636.95 L507.9 639.3 L506.49 641.05 L504.92 641.67 L503.68 641.54 L502.43 641.14 L500.77 640.99 L496.67 641.7 L469.87 650.42 L466.12 650.7 L462.42 650.1 L459.32 648.23 L452.52 638.84 L449.44 636.24 L448.8 635.94 L442.84 633.13 L442.21 632.4 L440.97 630.29 L440.49 629.74 L439.69 629.73 L437.06 630.29 L410.95 619.16 L406.06 616.12 L403.92 615.86 L402.33 616.19 L398.99 617.37 L392.79 617.81 L392.29 620.65 L392.72 624.36 L391.35 627.45 L388.18 627.31 L384.69 624.19 L379.28 617.17 L376.16 614.35 L373.23 612.95 L370.1 612.49 L366.41 612.49 L367.39 610.36 L361.82 610.45 L359.64 609.91 L357.18 607.62 L357.07 606.84 L357.46 604.48 L357.28 603.42 L356.67 602.71 L355.15 601.74 L354.57 601.11 L353.71 599.87 L352.89 599.04 L352.23 598.04 L351.76 596.29 L351.25 590.38 L349.27 584.79 L345.95 581.78 L341.34 583.58 L337.81 584.37 L334.56 589.02 L332.18 589.55 L328.81 588.99 L326.35 589.25 L320.98 590.86 L319.56 591.01 L315.29 590.5 L313.9 590.71 L312.86 591.32 L311.75 591.68 L310.26 591.18 L309.98 590 L310.35 588.19 L310.2 586.32 L307.08 584.31 L304.5 581.39 L301.71 581.74 L298.69 583.03 L296.03 584.75 L295.8 584.9 L293.45 586.96 L292.79 588.32 L292.1 591.67 L291.64 592.47 L290.45 592.37 L289.75 591.45 L289.04 590.22 L287.81 589.22 L283.05 587.81 L276.68 587.25 L272 589.44 L272.4 596.29 L272.83 601.02 L272.75 602.83 L271.77 604.44 L269.99 605.32 L268.09 604.94 L264.55 602.58 L263.98 604.1 L263.22 604.61 L262.34 604.81 L261.45 605.42 L258.79 608.08 L256.43 608.25 L248.92 602.72 L247.63 602.54 L243.3 606.56 L240.72 607.82 L237.42 608.67 L234.04 609.05 L231.21 608.91 L228.82 610.06 L225.2 616.11 L222.61 616.79 L217.36 615.58 L212.06 615.62 L208.97 616.76 L204.96 620.83 L204.49 621.13 L202.51 622.43 L197.16 622.22 L186.62 616.74 L170.89 616.27 L167.85 617.26 L162.99 620.82 L160.14 622.38 L156.75 622.79 L155.08 621.18 L153.58 618.73 L150.62 616.64 L147.78 616.84 L144.05 618.44 L140.48 620.72 L138.17 622.94 L137.63 624.57 L137.38 628.45 L136.54 630.52 L135.12 631.99 L133.37 633 L129.77 634.06 L123.06 634.84 L91.39 629.93 L95.2 626.94 L95.78 622.98 L94.97 618.51 L94.64 613.96 L95.15 612.65 L97 610.35 L97.4 609.35 L97.2 608.11 L96.28 605.94 L96.06 604.91 L95.64 589.98 L95.55 586.71 L96.33 583.17 L96.46 581.92 L96.09 580.47 L94.58 578.09 L94.06 576.88 L93.8 574.02 L93.95 570.95 L94.44 567.99 L95.2 565.54 L96 564.81 L98.51 564.08 L99.38 563.53 L99.88 562.46 L100.92 559.36 L102.33 557.08 L104.43 553.67 L106.18 548.7 L106.07 543.65 L103.25 539.14 L101.54 538.34 L97.76 538.14 L96.01 537.35 L95.02 535.78 L91.6 527.71 L89.9 520.37 L88.89 517.83 L88.15 516.96 L86.29 515.95 L85.81 515.43 L85.61 515.2 L85.2 513.57 L85.26 510.4 L85.01 508.9 L83.3 503.99 L82.11 499.05 L81.83 493.89 L81.45 491.58 L80.19 489.25 L80.14 489.22 L80.01 486.37 L79.99 486.26 L79.68 484.74 L78.8 483.66 L77 482.46 L76.1 482.39 L73.65 483.25 L72.53 483.28 L71.27 482.3 L70.73 480.84 L70.35 479.43 L69.64 478.56 L68 478.39 L60.72 478.71 L59.67 478.29 L58.95 477.39 L58.36 476.45 L57.63 475.82 L52.86 474.81 L45.08 470.83 L43.58 470.06 L29.73 460.06 L26.39 456.68 L25.87 455.79 L23.91 452.42 L21.8 446.22 L15.75 441.67 L0 420.29 L3.06 418.66 L9.71 418.54 L12.62 417.6 L14.93 414.54 L17.47 406.6 L19.93 403.37 L22.38 402.19 L24.37 401.75 L26.17 400.51 L27.88 397.05 L30.06 389.11 L30.6 384.6 L29.96 381.35 L29.96 381.32 L28.73 378.26 L26.7 375.76 L21.8 372.2 L13.52 364.44 L12.83 364.12 L13.39 359.8 L15.39 351.09 L15.9 348.83 L16.65 343.47 L15.51 340.49 L19.67 332.52 L21.8 330.49 L21.98 329.84 L22.03 329.16 L21.98 328.5 L21.8 327.85 L19.42 325.95 L17.27 322.67 L13.48 313.41 L12.91 312.6 L13.16 311.78 L13.65 311.03 L14.66 309.46 L16.05 308.17 L20.11 306.01 L21.8 304.56 L24.29 300.71 L25.73 299.47 L27.93 299.42 L30.77 299.86 L31.87 299.19 L31.92 299.12 L32.75 297.89 L34.93 296.38 L39.29 295.81 L51.33 299.07 L56.18 297.88 L61.04 295.81 L62.92 293.52 L63.04 293.2 L63.99 290.76 L66.82 280.15 L67.81 277.4 L68.93 275.55 L70.8 274.42 L75.22 273.37 L77.3 272.55 L77.32 272.55 L77.34 272.54 L77.34 272.51 L79.45 269.48 L86.15 263.11 L87 261.42 L88.15 257.41 L88.94 255.88 L90.3 254.67 L93.01 253.38 L94.31 252.42 L97.56 247.45 L100.5 240.24 L102.19 232.92 L101.92 230.14 L101.68 227.58 L99.02 226.39 L91.16 224.67 L88.32 222.9 L86.09 220.65 L81.86 214.87 L78 210.98 L77 209.5 L76.51 207.77 L76.01 203.76 L75.44 202.02 L73.42 199.05 L61.99 187.51 L60.61 186.51 L59.81 185.94 L57.19 184.76 L55.64 184.57 L52.6 184.73 L51.08 184.16 L50.16 183.16 L49.77 182.74 L47.99 178.98 L46.78 177.65 L45.3 177.23 L41.85 177.42 L40.15 177.03 L38.63 175.87 L36.38 172.85 L35.27 171.71 L29.97 169.18 L27.78 167.11 L26.26 162.9 L23.27 152.43 L21.32 148.38 L21.19 147.3 L21.35 146.19 L21.8 145.1 L22 144.53 L22.06 143.96 L22 143.42 L21.8 142.89 L21.27 142.13 L21.1 141.31 L21.27 140.51 L21.8 139.72 L21.85 139.62 L21.88 139.51 L21.85 139.4 L21.8 139.25 L20.58 136.52 L20.43 131.46 L19.37 128.55 L17.72 126.94 L13.01 124.33 L11.01 122.47 L9.56 120.14 L8.29 117.44 L7.27 114.56 L6.56 111.67 L6.52 109.83 L7.12 106.14 L6.95 104.42 L2.81 99.43 L0.71 93.44 L1.55 88.61 L3.6 83.51 L5.12 76.69 L5.43 70.04 L5.91 68.92 L7.5 65.96 L7.91 64.97 L8.27 61.51 L8.36 55.07 L8.72 52.32 L10.67 49.3 L14.27 47.74 L19.31 46.92 L21.8 46.52 L25.35 46.42 L27.15 44.11 L28.37 40.91 L30.22 38.14 L33.49 36.96 L36.78 37.19 L39.62 36.63 L41.5 33.2 L41.48 31.24 L40.44 26.54 L40.28 24.37 L40.59 21.86 L42.24 15.26 L42.01 15.25 L41.7 14.55 L41.52 13.36 L41.73 12.01 L42.11 11.72 L44.7 8.7 L47.13 4.71 L48.53 3.22 L55.38 0 L89.7 23.51 L95.48 26.06 L102.75 27.04 L105.98 28.51 L109.6 30.15 L111.06 36.99 L108.33 43.81 L102.75 46.91 L99.27 47.38 L92.91 49.47 L89.6 49.95 L86.42 52.05 L84.63 57.05 L80.77 73.7 L80.85 78.72 L82.83 82.92 L86.88 86.44 L91.8 87.61 L113.05 85.71 L125.72 84.57 L130.53 82.49 L136.12 81.29 L142.12 78.07 L156.61 76.01 L182.1 77.33 L199.36 86.9 L203.86 87.66 L206.29 88.07 L219.82 85.04 L223.35 85.73 L232.47 91.1 L288.34 105.21 L289.9 105.6 L318.24 104.21 L321.68 104.04 L324.43 103.19 L333.33 96.48 L338.95 94.65 L344.35 95.3 L370.17 105 L377.18 107.63 L384.69 108.73 L418.41 106.34 L437.26 113.12 L457.98 114.68 L464.54 116.28 L469.82 119.43 L470.35 119.75 L475.83 124 L481.68 127.41 L488.63 128.34 L492.3 127.38 L498.9 124.43 L501.31 124 L502.31 123.82 L509.51 124.23 L513.15 123.86 L516.1 122.31 L519.11 121.58 L522.73 120.02 L526.14 117.91 L528.64 115.51 L531.49 113.47 L541.33 113.16 L542.39 113.12 L549.03 110.23 L552.75 104.06 L553.05 103.23 L558.33 97.75 L563.12 94.99 L570.65 85.36 L571.94 82.21 L573.46 79.61 L592.68 65.42 L593.85 61.99 L596.68 57.71 L602.57 51.09 L608.09 48.08 L620.98 44.73 L633.62 39.15 L637.1 38.63 L650.44 36.66 L682.14 31.98 L687.5 30.08 L690.71 29.7 L692.23 29.26 L695.4 27.25 L697.24 26.8 L704.43 26.8 L710.14 25.06 L725.27 16.02 L744.03 14.11 L748.17 11.45 L759.8 18.7 L776.63 22.1 L780.01 24 L783.91 23.63 L784.16 23.82 L786.77 25.85 L786.02 30.88 L789.38 34.74 L798.38 39.04 L800.28 40.78 L803.36 46.23 L805.11 47.49 L835.58 47.22 L845 44.22 L848.65 45.53 L851.82 52.27 L852.84 53.67 L859.1 62.22 L869.59 59.63 L880.63 53.36 L889.52 52.32 L889.52 52.34 L893.32 58.74 L900.53 84.26 L905.93 88.54 L938.92 103.6 L973 109.52 L995.98 108.18 L995.63 111.22 L995.14 138.03 L995.53 140.86 L997.15 144.72 L998.78 147.4 L999.87 149.82 L1000 153.03 L998.57 158.68 L996 165.67 L993.1 171.6 L990.68 174.09 L989.05 174.95 L981.64 182.03 L980.14 184.15 L979.29 186.91 L979.17 190.73 L976.98 187.69 L969.81 183.69 L968.27 182.41 L966.49 180.3 L962.47 178.66 L954.96 177.22 L951.37 177.94 L945.36 181.04 L942.42 181.73 L932.01 181.25 L928.69 181.73 L922.55 185.31 L918.2 191.37 L917.47 193.28 L908.54 216.62 L906.38 220.18 L903.59 222.27 L892.7 225.21 L890.88 226.47 L889.8 226.84 L888.22 226.84 L888.22 228.34 L893.78 232.51 L894.87 234.18 L894.67 236.75 L891.61 246.28 L889.41 256.88 L888.28 258.91 L886.87 260.36 L885.62 261.91 L884.96 264.35 L885.26 269.24 L887.65 279.23 L888.22 283.73 L887.34 298.48 L888.22 301.74 L885.03 304.21 L884.96 307.79 L886.25 312.49 L887.13 318.23 L887.13 328.63 L886.74 332.71 L886.35 334.22 L878.17 334.7 L869.59 333.21 L862.53 333.02 L860.85 333.35 L859.72 334.66 L858.67 337.69 L858.16 340.04 L858.34 342.05 L859.49 343.68 L861.95 344.97 L857.67 345.71 L850.71 348.74 L847.12 349.42 L844.2 351.94 L844.51 357.64 L846.28 363.7 L847.67 367.33 L845.09 366.11 L830.2 365.72 L825.51 368.42 L823.44 372.88 L822.31 378.24 L820.5 383.63 L817.64 382.18 L816.15 384.23 L816.23 387.45 L818.19 389.53 L817.62 391.03 L817.46 392.15 L818.19 395.45 L818.63 393.83 L818.87 393.55 L818.79 393.52 L818.19 392.62 L819.31 388.18 L824.3 393.5 L825.94 393.97 L827.89 392.12 L829.18 389.61 L830.78 388.58 L833.59 391.14 L835.03 388.91 L836.39 389.19 L837.69 390.43 L838.94 391.14 L841.19 390.5 L842.77 389.48 L844.35 388.88 L846.58 389.53 L846.5 390.64 L846.33 390.85 L846.02 390.8 L845.48 391.14 L846.43 394.89 L847.99 397.57 L850.48 398.09 L854.3 395.45 L854.6 397.49 L855.48 398.57 L856.89 398.82 L858.67 398.39 L858.67 400.01 L857.75 400.29 L855.31 401.49 L856.5 403.61 L857.17 404.14 L858.67 404.45 L857.15 406.6 L856.97 409.56 L857.93 412.56 L859.76 414.78 L862.09 415.78 L863.96 415.55 L865.94 414.91 L868.49 414.78 L868.49 416.13 L867.55 417.31 L867.52 418.5 L868.28 419.67 L869.67 420.82 L865.69 424.15 L863.81 428.15 L864.56 432.16 L868.49 435.43 L867.78 436.01 L867.72 436.23 L867.41 437.03 L873.17 440.81 L874.05 442.2 L874.81 443.78 L876.63 445.86 L878.78 447.78 L880.59 448.81 L880.27 449.54 L879.82 451.23 L879.5 451.88 L884.25 454.65 L885.47 456.13 L888.22 462.06 L896.82 467.56 L897.87 469.64 L899.2 471.63 L901.42 472.34 L900.76 474.71 L901.54 476.72 L903.07 478.38 L904.69 479.7 L904.78 480.77 L904.54 481.06 L904.11 481.08 L903.59 481.3 L905.42 483.25 L906.61 486.03 L906.82 489.02 L905.78 491.58 L906.25 493.75 L900.53 492.47 L898.12 491.69 L890.31 492.6 L888.13 491.92 L883.9 489.85 L879.96 488.83 L878.49 488.76 L875.45 489.25 L874.8 488.99 L874.16 488.9 L873.52 488.99 L872.89 489.25 L872.4 491.41 L872.39 494.32 L872.05 496.44 L874.53 497.98 L874.06 499.28 L872.06 500.08 L869.98 500.17 L867.8 499.43 L859.46 494.82 L853.57 494.6 L841.14 497.85 L840.75 499.99 L840.19 501.04 L839.35 501.04 L838.14 500.12 L836.84 501.84 L835.21 502.93 L831.78 504.14 L832 504.65 L832.45 504.97 L832.93 505.24 L833.37 505.54 L832.86 506.01 L831.87 506.52 L831.49 507 L833.7 507.95 L831.09 509.08 L828.98 507.6 L825.19 502.21 L822.77 500.13 L811.03 493.5 L807.2 490.15 L803.68 485.98 L796.91 475.5 L792.56 471.16 L787.46 468.11 L781.85 466.78 L778.36 467.27 L776.35 468.89 L772.8 473.68 L772.38 474.54 L772.25 475.3 L771.56 475.57 L767.69 474.55 L764.11 474.39 L762.33 474.55 L759.87 472.55 L757.16 470.98 L754.25 470.06 L751.44 470.01 L751.22 470.01 L747.4 471.95 L743.85 478.64 L740.76 480.78 L738.54 481.72 L737.11 483.93 L735.81 486.52 L734.02 488.66 L732.63 489.03 L729.64 488.54 L727.98 489.25 L726.26 490.98 L724.79 490.96 L723.29 490.4 L721.54 490.45 L719.82 491.53 L717.88 493.18 L716.25 494.56 L714.93 495.23 L713.17 494.75 L710.22 492.16 L708.72 491.41 L706.81 491.98 L703.36 495.48 L701.72 496.67 L698.66 497.03 L683.64 494.5 L680.78 494.85 L678.19 496.71 L673.58 501.67 L672.41 502.55 L671.42 503.56 L670.76 504.96 L671.04 505.81 L672.97 507.03 L673.45 507.76 L673.32 508.96 L672.64 510.85 L672.46 511.97 L672.34 513.27 L672.21 514.82 L671.53 518.72 L670.21 522.64 L668.07 525.59 L660.44 527.94 L644 527.22 L637.4 533.03 L635.14 538.19 L634.54 542.83 L635.65 547.13 Z "/>
</g>
</svg>
