<svg xmlns="http://www.w3.org/2000/svg" viewBox="0 0 1000 735.88">
<g fill="#ccc" stroke="#333" stroke-width="0.5" stroke-linejoin="round">
<path fill-rule="evenodd" d="M1000 413.78 L995.44 426.27 L993.67 429.62 L988.81 435.08 L987.45 438.74 L987.37 440.99 L987.47 442.41 L987.02 443.63 L985.27 445.34 L978.5 449.15 L969.27 456.74 L952.64 473.78 L952.05 474.38 L948.59 476.05 L944.12 475.7 L938.78 473.62 L935.5 472.07 L933.96 471.84 L932.75 472.65 L930.55 471.99 L928.14 472.49 L923.17 474.5 L920.78 474.67 L915.19 474.27 L913.22 474.9 L910.8 476.07 L904.96 477.31 L902.81 478.46 L900.34 479.31 L897.69 474.36 L895.49 474.5 L895.72 473.64 L896 471.83 L896.27 470.98 L884.38 470.02 L881.94 469.51 L879.87 468.34 L879.14 470.19 L877.85 470.9 L877.8 470.92 L876.27 471.42 L874.62 472.65 L873.58 474.19 L873.42 475.27 L874.62 478.02 L872.55 479.31 L869.68 480.57 L867.16 482.22 L866.07 484.66 L866.8 486.87 L868.03 488.64 L868.27 490.29 L866.07 492.18 L865.19 491.12 L864.29 490.76 L863.4 491.12 L862.54 492.18 L861.74 490.79 L860.27 489.1 L858.86 488.39 L858.23 489.94 L858.5 490.96 L859.74 492.2 L860.03 493.46 L859.84 494.47 L858.23 497.46 L854.04 495.45 L851.99 494.86 L849.6 494.74 L848.5 494.99 L847.85 495.39 L847.18 495.72 L846.07 495.7 L846.24 495.05 L845.29 493.58 L844.07 492.6 L842.75 494.63 L841.45 495.88 L840.82 497.5 L843.18 501.4 L843.68 505.79 L844.33 508.01 L843.03 507.56 L840.51 506.35 L839.16 506.33 L838.6 506.99 L837.74 509.34 L837 509.86 L832.84 510.8 L832.19 511.09 L832.32 513.03 L832.79 512.86 L833.58 512.14 L834.77 512.41 L834.91 512.94 L834.69 514.54 L834.77 515.13 L835.14 515.38 L836.34 515.94 L836.57 515.93 L836.83 517.46 L836.86 518.92 L837.07 520.32 L837.87 521.69 L839.3 523.17 L839.16 525.24 L838.74 525.82 L837.81 524.95 L836.91 523.67 L836.57 523.04 L835.29 522.59 L831.4 522.16 L830.9 522.3 L829.53 523 L828.74 523.04 L828.51 522.74 L827.85 521.49 L827.48 521.21 L826.8 520.93 L826.16 520.32 L825.31 519.72 L822.55 519.28 L821.96 519.07 L821.4 519.29 L820.56 520.44 L819.82 521.99 L818.74 523.63 L818.3 523.92 L818.16 525.23 L818.22 526.67 L818.67 527.84 L819.67 528.32 L820.4 529.01 L820.52 530.52 L820.21 532.02 L819.67 532.71 L817.41 532.69 L815.71 532.46 L811.86 530.32 L795.44 530.62 L783.28 530.86 L775.35 532.4 L759.56 537.98 L761.09 532.51 L759.05 532 L759.5 531.49 L759.68 530.96 L759.77 530.42 L759.94 529.85 L759.88 529.45 L759.71 529.15 L759.43 528.97 L745.3 526.06 L734.28 523.79 L705.46 517.87 L689.96 514.68 L683.39 513.33 L676.94 512 L659.81 508.4 L659.46 510.48 L659.95 511.69 L660.24 512.85 L659.25 514.76 L657.64 516.33 L651.31 520.99 L649.04 518.26 L646.64 516.32 L644.2 516.32 L641.77 519.41 L641.19 521.29 L640.9 524.21 L640.22 525.57 L638.72 526.79 L635.4 528.38 L634.21 529.85 L634.21 529.87 L633.9 530.2 L633.52 530.48 L633.11 530.7 L632.66 530.85 L627.74 530.68 L625.11 530.96 L623.3 531.65 L622.13 533.79 L621.21 536.95 L619.93 539.86 L617.71 541.23 L611.65 535.36 L612.03 534.46 L612.97 533.44 L613.51 532.41 L612.76 531.51 L611.59 531.4 L610.71 531.73 L610.14 531.61 L609.98 530.15 L609.09 530.14 L594.69 529.87 L594.69 529.84 L594.03 528.92 L593.32 528.63 L592.58 528.94 L591.85 529.84 L589.15 530.3 L586.32 533.42 L584.12 533.73 L584.96 531.97 L583.64 532.02 L583 531.61 L582.11 529.87 L581.15 529.2 L580.09 528.98 L562.67 527.59 L559.08 528.15 L557.96 530.11 L542.73 529.97 L526.66 529.81 L523.49 529.22 L519.29 527.58 L518.02 527.08 L516.45 526.46 L500.48 525.96 L498.28 526.65 L497.37 528.91 L495.9 529.75 L476.26 529.95 L448.61 530.22 L420.17 530.5 L389.6 530.81 L364.93 531.06 L353.07 531.18 L350.3 531.21 L350.25 529.84 L339.36 529.64 L339.53 530.39 L339.18 531.3 L339.94 533.76 L341.32 536.04 L342.08 538.5 L341.37 541.45 L339.67 543.34 L337.65 544.89 L335.96 546.85 L335.02 549.53 L333.63 555.5 L331.5 558.98 L331.05 561.92 L330.35 563.14 L329 564.49 L328.62 565.26 L328.91 566.56 L329.05 567.14 L329.3 567.14 L329.84 567.24 L330.42 567.52 L330.79 568.09 L330.79 568.92 L330.51 569.49 L330.15 569.98 L329.38 572.09 L327.69 575.16 L327.33 576.43 L327.86 578.89 L331.65 585.65 L331.96 586.92 L332.17 589.66 L332.51 590.92 L333.09 591.67 L334.8 593.38 L335.17 593.99 L335.56 596.5 L336.55 598.12 L340.99 602.05 L342.54 602.85 L344.6 603.2 L347.69 603.28 L348.18 603.83 L347.63 605.03 L346.47 606.24 L345.09 606.79 L343.45 606.92 L342.23 607.36 L341.25 608.15 L340.35 609.34 L339.49 611.22 L338.86 613.84 L338.86 616.54 L339.88 618.63 L340.99 619.12 L342.28 619.26 L343.36 619.53 L343.81 620.39 L344.12 621.85 L344.94 622.16 L346.04 622.12 L347.25 622.58 L348.52 623.37 L349.34 623.75 L349.77 624.44 L349.84 626.08 L349.42 627.79 L348.48 628.92 L345.92 630.95 L344.27 633.59 L344.21 636.14 L345.53 641.94 L345.53 652.94 L346.15 655.54 L349.02 659.87 L349.84 662.18 L349.69 665.47 L348.52 671.29 L349.06 674.53 L352.07 679.4 L352.43 680.65 L351.62 681.96 L347.25 686.86 L345.14 691.15 L344.67 693.83 L345.53 696.49 L346.56 697.65 L347.25 697.77 L347.96 697.69 L349.06 698.25 L349.7 699.28 L349.86 700.45 L350.27 701.63 L351.23 702.38 L351.64 702.7 L350.02 704.1 L348.94 705.98 L348.31 708.08 L348.12 710.14 L348.34 712.23 L348.99 713.54 L353.52 717.69 L358.08 723.48 L354.13 727.26 L351.04 733.8 L348.67 735.88 L345.64 735.65 L342.76 733.42 L330.15 716.56 L323.87 704.27 L321.6 698.3 L320.06 695.32 L318.08 693.3 L315.68 692.73 L311.34 694.02 L309.06 693.91 L306.85 692.06 L305.61 689.07 L304.02 682.9 L301.49 679.79 L298.56 679.12 L295.73 679.06 L293.52 677.76 L292.97 675.19 L293.24 672.16 L293.2 669.69 L291.66 668.74 L289.7 670.14 L285.43 676.25 L283.68 678 L280.67 678.3 L279.39 676.63 L279.17 674.01 L279.28 671.45 L278.71 670.58 L277.41 671.09 L275.93 672.02 L274.78 672.42 L273.43 671.71 L271.21 669.66 L269.62 669.05 L249.74 667.39 L242.18 668.41 L240.02 667.96 L238.67 667 L237.85 665.95 L236.88 665.03 L235.18 664.47 L234.75 664.77 L233.58 666.22 L232.91 666.61 L232.11 666.46 L230.46 665.51 L229.52 665.38 L223.38 666.14 L221.54 666.73 L220.26 667.58 L218.23 669.76 L217.16 670.57 L214.73 671.3 L206.36 671.46 L206.12 671.53 L203.78 672.22 L199.03 675.32 L196.32 676.01 L194.44 677.01 L193.91 679.11 L193.1 680.91 L189.05 680.97 L188 681.31 L186.06 682.25 L185.93 682.6 L185.89 683.27 L185.64 683.88 L184.85 684.05 L184.12 683.82 L182.8 683.09 L175.61 680.96 L173.43 681.23 L171.15 682.95 L167.53 688.07 L165.2 689.36 L160.44 689.98 L158.26 690.76 L156.58 692.29 L157.14 692.4 L158.61 692.9 L154.79 696.93 L154.09 698.1 L154.07 699.23 L154.45 702.26 L154.13 703.87 L152.49 707.09 L151.67 708.07 L151.66 708.08 L148.23 706.65 L146.29 706.12 L145.91 708.14 L145.94 710.25 L145.51 711.4 L143.78 710.57 L142.93 709.18 L141.85 704.97 L140.72 703.1 L137.65 702.36 L133.12 702.58 L129.02 702.16 L127.22 699.51 L127.51 697.17 L128.75 693.85 L129.03 691.64 L128.73 691.01 L127.97 690.62 L126.98 690.42 L124.69 690.42 L124.29 690.67 L124.19 691.17 L123.79 692.04 L123.17 693.8 L123.11 695.53 L122.64 696.85 L120.8 697.37 L119.33 696.84 L117.51 694.11 L116.08 692.91 L114.45 694.62 L112.96 695.41 L111.4 695.62 L109.54 695.62 L109.68 695.94 L109.23 696.7 L108.4 697.57 L107.38 698.25 L106.35 698.7 L106.26 698.6 L106.29 698.1 L105.65 697.37 L103.94 696.67 L103.26 696.13 L102.99 695.14 L102.81 693.79 L102.34 692.95 L100.87 691.64 L100.16 690.72 L99.74 690.03 L99.11 689.58 L97.81 689.41 L96.55 689.56 L96.1 689.99 L96.32 690.59 L97.03 691.24 L95.11 691.61 L93.44 688.91 L91.77 689.41 L91.4 688.38 L91.16 687.88 L90.04 686.86 L90.04 685.91 L91.27 686 L92.34 685.84 L94.36 685.11 L93.16 682.95 L92.54 680.05 L91.51 678.12 L89.1 678.9 L88.25 676.27 L86.46 674.67 L83.95 673.86 L80.99 673.65 L79.94 673.38 L79.5 672.77 L78.93 672.17 L77.49 671.9 L76.52 672.48 L75.86 673.64 L75.14 674.47 L74.05 674.08 L70.33 670.62 L70.17 669.16 L71.99 663.9 L71.75 663.09 L70.38 660.08 L68.96 658.22 L68.39 656.92 L71.07 656.83 L71.55 655.09 L70.68 652.74 L69.26 650.79 L67.73 649.8 L66.07 649 L64.71 647.77 L64.07 645.45 L62.82 646.53 L61.34 647.17 L59.93 646.96 L58.9 645.45 L60.63 644.65 L59.8 644.39 L59.07 644.05 L58.24 643.79 L57.18 643.78 L58.33 642.71 L61.29 641.68 L61.06 640.67 L57.86 638.56 L57.11 637.25 L57.96 634.93 L54.58 635.08 L54.65 633.68 L55.73 631.36 L55.37 628.72 L55.01 629.57 L54.43 630.4 L53.68 631.05 L52.79 631.35 L51.25 631.21 L51.1 630.64 L51.58 629.89 L51.91 629.2 L51.91 622.14 L50.98 620.23 L50.89 620.17 L48.9 618.85 L46.83 618.68 L45.89 620.39 L44.76 620.51 L38.54 616.84 L36.53 617.39 L30.68 616.52 L28.55 616.44 L27.61 617.03 L26.97 617.92 L26.17 618.72 L24.71 619.07 L23.26 619.12 L22.6 619 L22.04 618.63 L21.39 618.34 L20.92 618.84 L20.44 619.56 L19.85 619.95 L17.29 619.85 L15.17 619.33 L13.44 618.43 L12.08 617.23 L11.69 616.45 L11.26 615.31 L10.71 614.26 L9.96 613.81 L8.79 613.76 L7.92 613.6 L6.12 612.94 L5.98 610.7 L4.43 607.46 L2.21 604.55 L0 603.28 L0.69 601.42 L1.72 594.87 L2.2 593.81 L5.17 589.16 L6.88 582.41 L6.51 581.19 L5.56 580.3 L5.71 578.33 L6.58 576.27 L7.84 575.12 L5.9 574.37 L5.74 573.29 L5.11 571.18 L5.05 570.02 L6.26 563.12 L6.9 561.21 L7.76 560.26 L8.8 559.76 L9.62 559.15 L9.8 557.88 L9.76 556.8 L11.52 549.37 L11.06 547.8 L9.55 545.09 L7.2 536.09 L5.49 532.53 L2.63 533.22 L3.41 529.87 L2.15 523.21 L1.93 522.05 L2.32 520.03 L4.15 518.81 L16.74 517.19 L18.9 516.54 L21.02 515.62 L24.02 513.73 L25.31 511.93 L26.08 506.68 L27.28 503.7 L31.26 499.67 L32.82 496.98 L33.07 494.9 L32.19 481.46 L32.75 479.12 L34.68 477.44 L37.43 476.11 L38.45 474.99 L38.34 473.32 L37.66 470.37 L37.65 459.7 L36.48 455.16 L31.99 451.53 L30.56 451.32 L29.27 451.48 L28.13 451.23 L27.17 449.78 L27.14 448.32 L27.84 446.91 L28.79 445.57 L29.49 444.26 L30.57 439.22 L30.84 436.38 L30.71 434.12 L29.75 431.55 L28.26 429.77 L26.26 428.51 L23.8 427.43 L22.49 427.03 L21.39 426.95 L19.2 427.4 L18.71 426.86 L15.44 424.93 L14.73 424.66 L13.95 423.2 L13.93 422.56 L14.74 422.32 L16.46 422.07 L17.02 422.27 L18.57 423.38 L19.3 423.64 L19.97 423.44 L20.92 422.42 L21.33 422.15 L25.72 421.41 L26.25 421.17 L26.73 420.71 L27.31 420.3 L28.11 420.26 L28.96 420.67 L29.64 421.19 L30.34 421.54 L31.27 421.41 L32.14 420.69 L34.67 417.15 L39.57 413.14 L42.93 409.34 L44.83 407.69 L48.73 406.47 L52.91 403.93 L54.75 403.09 L56.72 402.93 L61.71 403.09 L64.01 402.83 L65.45 402.91 L66.77 402.58 L68 401.89 L69.14 400.9 L71.89 399.75 L74.63 400.01 L77.33 400.66 L79.95 400.68 L85.35 398.73 L88 398.77 L90.46 400.9 L92.64 400.18 L96.21 399.56 L98.03 398.47 L99.03 397.16 L99.88 395.6 L100.78 393.94 L102.11 392.79 L103.45 392.47 L106.01 392.78 L107.29 392.7 L109.81 391.48 L109.93 391.16 L110.44 389.82 L110.7 387.75 L112.03 385.22 L116.55 382.64 L120.36 382.46 L121.59 381.09 L118.42 374.92 L129.56 365.68 L130.05 365.14 L130.21 364.37 L129.99 362.91 L130.43 360.89 L130.41 359.84 L130.73 358.96 L132.11 358.1 L133.97 357.99 L135.21 359.01 L136.21 360.41 L137.34 361.41 L141.09 360.67 L139.93 355.12 L135.34 344.13 L136.35 341 L138.5 338.39 L140.91 336.02 L142.7 333.62 L143.53 331.84 L143.48 331.36 L142.8 330.91 L141.69 329.23 L139.03 323.17 L136.93 321.09 L131.44 316.82 L130.33 314.67 L131.1 307.95 L131.54 307.6 L132.4 307.81 L133.73 307.62 L137.41 306.17 L141.61 305.12 L145.81 304.8 L149.52 305.61 L153.13 307.78 L154.86 308.28 L157.5 307.95 L159.86 307.14 L161.4 306.1 L161.59 305.98 L162.83 304.37 L165.47 295.97 L165.64 294.41 L164.03 288.53 L164.45 281.18 L163.44 277.59 L161.1 274.6 L157.42 271.45 L155.8 269.22 L152.44 261.77 L148.77 258.38 L148.05 257.21 L148.05 255.62 L148.71 254.47 L149.5 253.41 L151.09 249.1 L153.22 248.19 L161.31 248.59 L162.75 248.18 L163.64 247.03 L163.35 245.9 L160.67 244.4 L159.8 243.18 L160.38 241.24 L162.24 238.94 L164.53 236.86 L166.45 235.54 L167.67 235.32 L168.86 235.56 L170.07 235.62 L171.44 234.87 L173.83 232.08 L175.79 228.94 L177.93 223.65 L179.24 221.29 L181.36 219.3 L182.4 218.77 L185.78 217.87 L186.92 217.17 L188.86 214.95 L190.4 214.4 L191.74 213.91 L193.66 212.66 L195.34 211.17 L196.01 209.95 L195.02 209.25 L193.4 209.14 L192.68 208.58 L194.38 206.56 L194.79 206.18 L195.23 206.06 L195.69 206.19 L196.17 206.55 L196.79 207.45 L196.91 207.63 L197.57 210.22 L197.97 211.03 L199.06 211.48 L202.1 212.06 L202.79 212.41 L202.71 213.8 L201.83 214.32 L200.65 214.51 L199.66 214.89 L197.1 217.33 L196.01 217.96 L194.44 219.5 L196.01 220.76 L198.94 221.53 L201.42 221.61 L203.94 221.38 L205.99 221.78 L210.36 223.52 L215.54 224.93 L217.87 225.91 L227.25 233.48 L233.02 237 L243.37 245.09 L244.26 245.35 L245.93 245.11 L246.77 245.43 L248.8 247.58 L249.92 248.33 L250.75 248.47 L253.57 248.4 L258.91 249.22 L260.46 249.46 L262 249.06 L263.26 246.98 L263.12 244.65 L261.64 240.15 L262.11 236.48 L264.9 235.38 L285.64 234.12 L287.38 232.97 L282.91 200.56 L284.78 195.77 L285.45 192.7 L285.98 185.47 L285.15 182.34 L282.53 180.33 L285.05 177.83 L288.42 179.01 L294.05 183.31 L297.58 183.67 L300.34 183.08 L302.99 183 L306.16 184.89 L308.41 187.04 L309.03 188.26 L309.38 190.17 L310.27 192.17 L311.72 191.64 L313.92 189.2 L315.39 188.45 L316.38 188.17 L319.46 188.5 L320.52 188.88 L321.41 189.46 L322.3 189.87 L323.22 189.71 L327.59 188.04 L332.04 186.33 L328.48 174.05 L327.89 167.08 L329.9 162.1 L332.14 158.37 L337.08 141.49 L336.87 141.28 L336.67 140.96 L336.3 140.77 L335.57 140.92 L338.91 135.39 L357.57 124.94 L359.71 122.53 L366.85 114.46 L369.68 112.03 L379.95 106.09 L386.83 104.38 L396.44 106.5 L425.98 120.65 L430.03 121.61 L431.99 121.3 L434.43 120.19 L440.64 117.38 L441.73 116.48 L442.22 115.11 L444.54 83.08 L445.55 79.62 L449.34 77.92 L455.4 77.65 L465.78 78.46 L474.66 78 L483.48 76.31 L527.29 47.72 L532.66 45.15 L556.81 39.17 L561.63 37.09 L566.08 34.27 L566.1 34.25 L592.23 10.98 L592.25 10.97 L599 4.13 L600.46 3.05 L602.78 1.33 L606.98 0.19 L634.7 0.02 L638.8 0 L639.97 0.58 L642.88 8.47 L644.13 10.12 L647.68 10.18 L652.25 8.14 L660.12 3.29 L668.02 1.87 L676.83 3.96 L693.71 10.99 L693.74 10.99 L725.54 22.1 L725.84 25.08 L724.71 26.83 L722.96 28.27 L721.41 30.31 L721.2 34.05 L724.86 41.63 L725.7 45.6 L717.26 69.7 L718.01 76.31 L721.78 82.62 L723.51 84.21 L741.71 100.91 L747.07 108.21 L747.43 108.95 L747.3 110.03 L746.1 111.59 L745.63 112.77 L744.97 116.81 L744.37 118.35 L741.34 123.08 L740.8 124.61 L741.35 126.1 L742.96 128.53 L743.74 129.42 L744.54 130.03 L745.23 130.72 L745.76 131.82 L745.62 132.66 L744.57 134.76 L744.59 135.91 L745.75 137.24 L747.4 138.05 L748.72 139.2 L748.98 141.51 L749.99 143.8 L752.07 145.23 L754.29 146.39 L755.65 147.92 L755.6 149.05 L754.56 151.4 L754.63 152.76 L755.41 153.71 L758.05 155.46 L759.04 156.58 L760.11 158.99 L761.11 160.39 L761.64 161.13 L763.56 162.92 L767.82 165.73 L769.11 167.45 L770.53 168.98 L772.96 169.88 L773.83 171.1 L773.07 173.56 L771.84 176.27 L771.29 178.25 L773.04 181.49 L776.37 182.65 L793.14 182.11 L794.42 182.38 L794.79 183.28 L794.76 184.34 L794.87 185.13 L794.78 185.61 L794.35 186.15 L794.45 187.01 L795.97 188.46 L798.45 189.67 L800.69 189.79 L805.45 189.33 L811.29 191.11 L818.12 195.23 L823.22 200.7 L823.88 206.56 L826.24 210.51 L830.41 213.59 L844.18 220 L846.44 220.74 L851.79 221.41 L853.92 221.96 L855.85 223.32 L858.27 226.05 L854.83 227.42 L852.38 226.24 L850.31 224.38 L848.03 223.7 L847.36 224.41 L846.76 225.85 L845.49 230.29 L844.62 230.56 L841.81 229.39 L835.02 227.67 L824.91 223.61 L822.23 223.15 L820.57 228.35 L820.63 239.36 L820.69 251.58 L820.73 259.84 L820.74 262.23 L821.11 264.7 L822.23 266.77 L825.86 268.78 L834.9 269.54 L838.72 271.45 L845.91 277.55 L853.48 283.97 L862.83 291.91 L866.09 294.67 L876.39 303.39 L883.35 309.28 L892.03 316.65 L895.57 318.64 L899.77 319.74 L912.71 320.88 L928.71 322.26 L930.94 322.02 L933.09 320.6 L934.6 318.37 L935.93 315.82 L938.08 312.65 L938.94 310.91 L939.5 310.29 L940.53 310.07 L941.42 310.5 L942.41 310.69 L943.81 309.75 L945.95 307.38 L947.11 306.71 L959.4 307.74 L964.47 309.12 L967.78 313.01 L968.51 315.54 L968.99 316.23 L970.34 317.62 L971.67 318.7 L973.98 320.13 L975.12 321.58 L975.97 323.33 L976.37 324.97 L977.34 332.77 L977.95 334.41 L978.98 336.42 L979.7 337.42 L981.31 339.19 L981.82 340.17 L981.82 340.71 L981.41 342.07 L981.4 342.72 L981.65 345.57 L980.76 346.95 L978.91 347.44 L971.4 348.08 L970.76 347.96 L969.4 347.3 L969.02 347.17 L968.22 347.62 L967.31 348.89 L966.73 349.33 L959.44 350.85 L957.54 352.46 L957.24 356.21 L959.65 360.74 L965.07 368.36 L974.52 381.62 L983.4 394.11 L993.42 408.15 Z "/>
</g>
</svg>
