<svg xmlns="http://www.w3.org/2000/svg" viewBox="0 0 1000 1171.68">
<g fill="#ccc" stroke="#333" stroke-width="0.5" stroke-linejoin="round">
<path fill-rule="evenodd" d="M848.75 52.87 L830.82 75.44 L823.57 86.92 L803.04 136.93 L798.62 154.13 L796.27 159.84 L791.06 166.62 L778.14 178.89 L773.72 185.61 L771.62 198.94 L777.63 204.77 L788.15 204.88 L799.57 201.12 L818.99 192.27 L831.41 187.68 L827.91 197.93 L796.77 230.65 L792.41 237.76 L790.64 246.16 L790.45 259.94 L778.64 275.91 L772.43 287.96 L773.61 297.31 L787.15 314.85 L795.37 322.58 L805.22 325.27 L802.76 331.21 L805.89 335.52 L810.59 340.17 L812.87 346.91 L812.94 347.12 L815.54 345.89 L826.26 331.09 L832.69 325.77 L840.25 322.97 L844.64 323.7 L879.81 344.77 L886.97 347.79 L889.32 349.36 L890.72 352.67 L892.23 361.52 L893.69 363.87 L900.9 365.44 L906.56 364.04 L911.95 361.91 L918.64 361.46 L925.3 363.93 L937.69 372.05 L944.83 374.18 L957.47 373.06 L982.77 366 L995.41 366.11 L991.8 372.57 L990.18 375.47 L973.42 394.8 L969.84 403.43 L972.53 411.39 L985.84 423.94 L991.19 431.45 L991.27 434.31 L988.7 441.54 L988.25 444.67 L990.18 448.76 L997.2 453.92 L999.44 457.79 L1000 464.62 L999.05 471.4 L994.35 484.35 L986.68 495.28 L986.96 499.26 L989.37 508.9 L989.65 512.04 L981.48 526.61 L968.44 535.52 L953.42 537.2 L939.09 530.08 L937.44 536.53 L933.97 541.4 L928.69 544.37 L922.03 545.21 L907.23 550.82 L895.28 558.22 L885.07 567.75 L875.11 579.74 L878.88 581.8 L895.22 590.73 L894.52 605.19 L880.31 618.98 L854.91 630.81 L847.86 639.22 L843.55 642.97 L839.83 644.32 L825.42 647.63 L824.58 648.97 L823.66 653.68 L823.07 654.86 L812.72 655.7 L812.44 654.69 L811.38 654.58 L802.37 655.92 L800.97 657.6 L798.95 663.99 L797.61 666.18 L782.53 677 L779.59 683.5 L780.88 694.38 L780.68 704.3 L776.63 714.4 L754.3 749.55 L750.5 759.31 L750.47 759.71 L749.88 769.79 L752.18 778.93 L755.25 787.29 L756.93 795.76 L755.08 805.29 L730.94 797.38 L717.26 806.13 L696.44 842.13 L668.02 871.3 L661.53 882.4 L652.13 921.5 L643.7 941.85 L642.28 945.28 L629.58 967.27 L613.24 987.19 L576.36 1017.93 L570.77 1026.01 L556.95 1059.11 L550.12 1067.75 L538.09 1074.54 L532.61 1078.98 L514.03 1089.52 L494.61 1107.76 L465.85 1121.29 L461.1 1122.91 L452.03 1121.4 L446.16 1118.42 L440.39 1117.69 L431.61 1123.08 L430.63 1124.99 L429.48 1133.86 L426.68 1138.51 L417.45 1142.84 L414.04 1146.04 L412.02 1153.72 L411.74 1160.74 L410.09 1166.86 L403.86 1171.68 L401.39 1170.73 L379.29 1168.99 L352.66 1162.7 L225.92 1164.33 L208.91 1033.13 L205.91 1022.76 L190.89 970.75 L157.46 914.15 L136.92 891.94 L128.67 880.27 L123.52 865.8 L118.93 801.81 L124.65 762.38 L127.97 739.46 L129 696.9 L118.99 559.12 L120.11 543.25 L122.46 536.02 L134.93 524.51 L137.51 522.12 L128.28 514.73 L124.53 504.13 L123.02 467.99 L124.86 457 L128.92 447.87 L135.83 444 L138.29 437.78 L137.87 434.21 L134.12 402.98 L129.12 394.97 L121.62 389.2 L112.39 385.67 L102.37 384.49 L91.96 380.34 L87.32 370.65 L85.19 359.45 L82.03 350.82 L73.89 345.33 L63.98 342.02 L55.7 337.65 L52.18 328.97 L51.34 320.23 L49.1 314.85 L41.04 303.03 L36.06 288.52 L33.66 284.2 L25.54 280.62 L14.21 279.55 L4.34 276.69 L0 267.56 L1.04 256.02 L4.67 246.78 L11.55 240.84 L22.58 239.44 L15.42 226.33 L24.73 172.11 L37.01 160.07 L68.52 157.99 L77.33 159.28 L110.2 173.62 L122.29 177.32 L145.15 180.17 L156.59 182.92 L166.49 188.58 L173.1 193.51 L173.49 196.03 L172.79 202.41 L174.65 209.76 L174.78 210.26 L186.53 221.29 L189.83 228.01 L188.65 234.17 L181.15 243.36 L179.31 249.02 L180.54 255.29 L185.57 266.55 L186.22 273.33 L191 283.64 L204.32 282.41 L227.68 272.27 L237.39 271.15 L247.84 273.1 L267.44 276.75 L280.03 283.87 L290.32 280.39 L300.45 273.95 L312.31 272.38 L317.91 272.6 L322.22 270.92 L326.25 268.46 L342.36 262.63 L346.22 262.86 L352.01 264.77 L374.53 272.21 L384.75 273.78 L396.86 272.27 L402.12 269.08 L404.47 264.03 L406.26 252.66 L410.29 247.62 L416.5 247.56 L428.59 251.2 L442.04 251.6 L452.98 249.52 L463.17 243.53 L474.25 232.27 L481.46 222.47 L488.07 211.26 L493.22 199.44 L496.13 187.51 L496.37 181.47 L498.64 125.9 L510.37 84.96 L506.48 43.29 L510 15.57 L509.95 10.53 L511.51 7.5 L517.05 7.34 L521.39 9.8 L525.1 12.99 L526.04 13.8 L535.57 22.01 L539.77 22.62 L544.33 22.18 L549.53 22.34 L555.72 24.53 L562.32 29.62 L579.11 49.51 L588 57.29 L599.31 64.8 L611.73 69.61 L623.81 69.22 L633.05 62.83 L657.5 32.14 L658.62 28.34 L658.9 23.24 L660.83 19.6 L667.12 20.22 L684.02 28.45 L690.74 29.96 L699.47 29.57 L709.82 27.44 L720 24.14 L727.78 20.16 L734.75 13.72 L737.23 10.45 L739.47 7.5 L744.76 2.58 L753.46 0 L756.09 1.34 L773.21 5.43 L775.06 4.76 L777.63 7.73 L780.43 15.34 L783.54 19.6 L812.94 43.74 L830.96 52.19 Z "/>
</g>
</svg>
