<svg xmlns="http://www.w3.org/2000/svg" viewBox="0 0 1000 924.07">
<g fill="#ccc" stroke="#333" stroke-width="0.5" stroke-linejoin="round">
<path fill-rule="evenodd" d="M243.55 886.86 L247.72 890.75 L250.08 896.33 L251.12 902.75 L251.37 909.27 L250.03 915.35 L246.9 918.13 L243.52 920.19 L241.24 924.07 L238.48 924.07 L235.71 920.16 L228.6 915.36 L226.03 910.69 L223.28 913.35 L224.85 909.91 L225.39 906.63 L224.85 903.36 L223.28 899.99 L228.32 899.99 L226.81 892.75 L231.19 890.24 L237.98 889.31 Z M394.93 880.44 L393.09 884.69 L394.31 888.92 L396.14 893.19 L396.31 897.6 L393.81 901.38 L380.85 913.35 L365.23 919.44 L350.95 917.57 L338.3 910.96 L316.96 892.96 L311.84 885.66 L309.66 877.68 L311.75 869.79 L316.9 860.6 L323.52 852.39 L332.55 845.79 L355.25 834.14 L361.88 832.03 L369.57 831.31 L377.59 833.1 L382.8 837.72 L386.17 843.76 L390.96 856.66 L395.22 875.46 Z M706.66 839.66 L707.48 841.47 L708.48 842.94 L709.79 843.99 L711.74 844.65 L709.99 850.39 L707.45 854.17 L698.82 860.64 L701.59 863.27 L697.96 869.27 L695.7 875.32 L692.84 880 L687.54 881.87 L684.6 882.25 L678.8 883.86 L676.03 884.25 L673.04 883.91 L669.9 882.26 L667.15 881.87 L654.82 881.59 L644.54 880.22 L635.04 877 L625.1 873.53 L610.78 860.88 L605.04 854.2 L604.98 841.64 L600.76 838.63 L594.74 836.72 L589.62 834.15 L589.39 832.73 L586.85 823.91 L585.83 822.41 L584.35 820.92 L582.93 818.89 L582 815.79 L583.02 812.69 L588.3 803.3 L589.62 799.8 L589.3 794.76 L584.54 781.66 L588.09 780.61 L590.34 778.02 L591.6 774.26 L591.93 769.74 L592.74 765.59 L594.59 762.97 L596.4 761.05 L597.23 758.98 L595.98 752.5 L592.88 745.02 L588.76 738.91 L584.54 736.53 L587 735.64 L594.69 731.5 L589.25 729.29 L586.85 728.89 L597.23 720.77 L599.99 720.77 L600.21 723.7 L600.78 725.32 L601.56 726.71 L602.29 728.89 L609.24 724.56 L615.17 728.2 L617.18 734.79 L612.41 739.39 L617.36 746.46 L623.15 750.76 L635.48 757.54 L632.68 760.42 L639.1 761.75 L642.26 764.48 L647.89 773.77 L659.36 786.31 L665.61 790.28 L671.18 789.55 L672.38 791.33 L673 792.65 L673.92 793.73 L676.03 794.79 L675.49 795.29 L677.84 797.62 L680.5 799.78 L681.08 799.8 L682.1 800.05 L685.4 799.55 L686.39 799.8 L686.61 801 L686.15 804.12 L686.39 805.31 L701.59 834.15 L703.04 835.59 L704.13 836.01 L705.21 836.86 Z M828.79 728.89 L830.98 733.71 L831.49 739.79 L831.1 750.15 L835.22 772.08 L834.68 782.65 L828.79 792.38 L826.93 793.12 L821.04 793.87 L818.64 794.79 L817.26 796.64 L815.48 801.19 L813.56 802.68 L808.4 803.16 L803.49 801.83 L795.62 797.42 L786.9 791.07 L782.66 786.54 L780.39 781.66 L781.52 776.92 L784.42 772.16 L785.92 767.5 L782.93 763.05 L788.19 759.92 L790.53 754.94 L789.05 750.76 L782.93 750.15 L785.01 744.51 L793.03 738.5 L798.35 728.89 L796.61 728.17 L796.36 727.82 L796.43 727.29 L795.62 726.01 L800.77 723.8 L805.75 720.77 L805.86 722.03 L805.75 726.01 L808.94 723.47 L809.8 722.62 L810.8 720.77 L813.56 723.62 L810.8 726.01 L816.11 728.54 L824.44 726.54 Z M994.23 419.64 L995.62 420.3 L998.43 424.03 L1000 428.19 L997.79 430.18 L996.65 431.84 L996.09 435.46 L995.09 439.1 L988.91 443.08 L968.63 459.44 L955.08 466.76 L948.19 468.96 L926.83 470.33 L923.04 469.75 L919.42 467.88 L914.17 463.34 L909.9 462.08 L896.44 455.92 L891.91 451.62 L889.6 443.36 L889.87 436.02 L891.91 429.14 L895.75 424.03 L901.24 422.03 L908.31 415.02 L904.28 381.24 L907.56 369.25 L909.04 372.05 L910.67 374.1 L915.17 377.42 L921.55 380.48 L930.97 383.69 L939.55 384.7 L943.3 381.24 L946.14 375.26 L952.77 374.13 L974.71 379.73 L978.73 381.36 L982.45 384.02 L983.94 386.78 L986.19 394.14 L987.75 395.65 L994.09 398.37 L995.5 404.89 Z M479.94 226.07 L487.21 231.92 L491.12 234.17 L492.83 232.69 L492.83 246.02 L488.64 247 L462.42 247.24 L433.75 234.38 L418.4 230.64 L403.92 236.41 L398.71 242.79 L387.95 262.29 L384.48 276.91 L381.25 272.15 L376.02 257.81 L373.83 254.53 L371.31 251.92 L369.28 248.66 L368.44 243.41 L368.2 239.39 L367.32 236.44 L365.4 234.65 L362.06 234.02 L353.45 231.4 L347.35 224.83 L345.15 216.17 L348.14 207.33 L370.82 199.85 L373.51 200.23 L378.59 202.27 L383 205.2 L391.73 212.91 L396.31 215.26 L400.19 215.45 L420.82 212.25 L424.42 212.99 L437.98 219.51 L440.99 220.19 L471.6 222.76 Z M902.51 234.02 L897.98 204.58 L892.36 192.93 L884.54 196.97 L883 191.35 L882.48 183.78 L883.63 176.78 L887.06 172.93 L887.06 170.28 L882.64 168.92 L880.22 165.22 L879.36 160.03 L879.64 147.88 L887.32 141.76 L905.02 130.57 L907.04 133.33 L913.75 139.67 L915.17 142.59 L914.72 144.25 L912.33 148.84 L909.72 152.64 L910.4 153.72 L911.85 154.51 L912.66 155.85 L911.62 178.83 L912.66 186.15 L914.33 188.74 L919.22 193.32 L920.28 195.55 L919.88 199.87 L918.31 207.56 L917.95 211.54 L917.23 213.68 L913.8 216.17 L912.66 218.13 L912.8 220.19 L913.57 223.08 L914.52 225.47 L915.17 226.07 L912.71 229.18 L910.07 230.61 L906.8 231.78 Z M163.59 117.07 L162.41 118.73 L165.55 122.37 L170.87 126.02 L176.15 127.68 L177.93 129.79 L179.72 134.62 L180.71 140.02 L180.17 143.81 L174.22 148.54 L165.16 151.82 L155.01 153.76 L145.63 154.38 L143.25 155.23 L139.66 158.86 L138.24 159.71 L135.57 159.33 L112.2 150.21 L108.47 148.1 L105.52 145.24 L103.68 141.41 L98.85 143.81 L100.48 135.54 L104.77 128.72 L110.19 124.08 L115.19 122.37 L126.82 122.14 L131.58 119.94 L129.27 114.67 L139.73 108.97 L141.92 106.24 L144.46 106.24 L146.71 111.7 L150.43 110.98 L156.91 106.24 L160.62 108.26 L163.95 111.95 L165.46 115.49 Z M116.35 62.75 L113.17 66.73 L90.78 77.34 L80.55 87.99 L73.3 97.59 L64.06 104.23 L47.93 106.24 L33.87 106.24 L29.55 107.12 L26.27 108.5 L22.91 108.42 L18.43 105.04 L17.46 100.24 L17.28 74.43 L12.2 65.4 L10.91 64.34 L4.5 63.11 L2.07 61.42 L0 54.91 L1.8 49.35 L10.95 38.76 L16.19 35.16 L21.63 34.4 L26.46 34.81 L29.94 34.68 L33.71 31.96 L42.72 23.27 L49.79 20.17 L58.55 14.7 L67.14 12.52 L89.75 1.45 L95.7 0 L99.99 1.39 L104.28 4.36 L113.77 4.05 L119.12 5.5 L122.59 8.21 L124.04 11.23 L124.19 20.08 L126.16 21.85 L134.89 24.25 L136.85 25.52 L138 27.54 L143.09 31.9 L144.46 34.68 L143.81 38.84 L141.59 42.62 L128.18 57.28 L126.49 57.33 L124.92 58.73 L117.94 61.42 Z M285.01 222.04 L293.6 223.73 L291.45 229.33 L286.08 228.77 L281.78 227.65 L280.71 223.17 Z M217.88 153.07 L227 156.44 L231.84 162.05 L235.6 170.46 L242.58 172.15 L246.88 169.34 L251.17 171.02 L250.63 176.07 L244.19 178.88 L236.67 179.44 L230.23 179.44 L227 176.07 L224.86 171.58 L217.88 168.78 L212.5 163.73 L212.5 158.12 Z "/>
</g>
</svg>
