<svg xmlns="http://www.w3.org/2000/svg" viewBox="0 0 1000 829.72">
<g fill="#ccc" stroke="#333" stroke-width="0.5" stroke-linejoin="round">
<path fill-rule="evenodd" d="M982.99 0 L985.26 5.2 L984.28 10.1 L979.89 20 L979.62 23.02 L980.35 28.82 L980.13 31.91 L979.15 34.11 L976.44 38.05 L975.62 40.7 L975.45 42.08 L974.74 44.74 L972.48 49.85 L970.78 52.8 L968.4 54.79 L964.75 55.71 L963.53 55.1 L962.83 53.81 L961.73 52.96 L959.29 53.73 L957.79 55.13 L957.2 56.75 L956.91 58.51 L956.37 60.29 L952.52 67.15 L951.15 70.71 L950.8 74.69 L951.22 76.44 L952.88 80.2 L953.42 82.16 L953.39 83.99 L952.44 90.85 L946.05 109.3 L945.14 113.98 L945.94 116.27 L947.73 118.12 L949.83 121.48 L950.23 125.3 L949.59 129.34 L949.52 133.29 L951.68 136.83 L954.89 138.02 L961.96 137.31 L964.88 138.46 L966.06 140.32 L966.18 142.22 L965.94 144.08 L966.12 145.86 L968.78 151.57 L968.94 152.54 L969.33 154.94 L968.81 157.18 L967.78 159.38 L966.94 162.64 L968.99 168.54 L968.75 170.28 L967.53 174.45 L967.47 176.49 L968.42 179.41 L972.01 183.74 L973.81 186.67 L974.19 187.54 L978.52 192.32 L981.84 197.08 L997.43 227.67 L998.83 234.76 L1000 253.81 L999.33 259.76 L993.28 274.52 L990.76 280.66 L971.66 327.26 L972.15 330.03 L975.09 332.21 L975.56 333.62 L975.62 334.89 L975.16 335.93 L974.19 336.7 L973.06 338.61 L972.73 340.71 L973.16 342.86 L975.29 347.74 L975.99 353.61 L976.75 356.52 L978.06 358.81 L983.36 364.86 L985.92 370.25 L986.43 375.33 L986.26 380.53 L986.7 386.31 L991.42 407.65 L991.78 413.93 L991.11 419.79 L990.08 422.26 L988.91 424.35 L988.51 426.45 L989.83 428.95 L989.85 428.98 L989.83 433.51 L984.28 449.27 L983.34 454.02 L981.84 458.41 L979.05 461.9 L974.19 463.91 L969.63 467.07 L963.25 475.76 L958.94 476 L955.31 472.79 L949.65 463.96 L945.19 461.24 L936.88 461.98 L927.75 464.84 L924.75 465.78 L913.54 471.32 L907.96 477.27 L906.69 480 L904.42 482.1 L899.39 485.67 L893.43 493.08 L880.53 506.05 L875.95 509.17 L868.94 511.9 L861.96 512.71 L847.55 511.6 L845.21 511.81 L841.7 512.11 L837.4 514.72 L834.3 519.24 L832.1 525.52 L828.41 530.45 L824.43 531.56 L815.01 529.42 L816.52 532.32 L800.25 530.07 L791.21 529.96 L785.4 534.06 L782.9 533.9 L781.88 532.59 L781.11 530.9 L779.42 529.67 L776.98 529.29 L774.77 529.48 L770.34 530.64 L770.61 531.42 L772.14 535.84 L777.73 546.36 L778.79 551.11 L778.3 551.6 L775.51 556.16 L775.3 557.43 L775.18 561.08 L774.93 562.75 L773.62 565.5 L772.07 568.06 L771.06 570.71 L771.26 573.76 L776.4 582.59 L778 586.84 L778.09 587.07 L776.35 590 L773.89 590.06 L771.49 588.75 L767.34 585.8 L764.71 584.9 L762.85 584.59 L760.84 584.8 L750.21 587.59 L747.71 587.16 L746.01 585.77 L743.3 581.52 L741.88 579.87 L738.18 577.87 L725.15 573.76 L717.33 573.61 L707.52 570.56 L698.87 569.09 L694.47 573.76 L694.32 576.43 L693.84 579.03 L692.77 581.4 L687.52 586.93 L685.8 590.96 L683.52 593.7 L678.12 593.42 L669.14 590.1 L665.92 590.75 L662.17 593.97 L661.61 594.45 L659.13 597.16 L656.96 600.55 L656.4 604.39 L656.92 605.26 L658.84 608.47 L661.14 609.72 L666.16 610.64 L668.25 612.2 L669.12 614.37 L669.31 616.93 L668.9 621.95 L671.83 632.12 L672.14 635.05 L671.62 637.93 L669.53 644.48 L666.41 658.96 L666.59 661.69 L669 663.6 L672.08 664.39 L674.58 665.92 L675.09 670.07 L675.09 670.09 L677.06 675.42 L680.94 678.36 L691.05 680.85 L693.84 683.43 L698.44 690.68 L701.27 693.88 L707.87 699.52 L710.4 702.66 L712.32 706.64 L714.48 702.49 L717.39 700.75 L720.67 701.27 L724.04 703.87 L726.23 707.18 L729.31 718.2 L731.43 722.03 L730.1 723.19 L728.13 723.12 L724.11 722.99 L720.77 723.38 L720.16 724.06 L719.09 726.03 L719.5 726.47 L719.26 731.42 L718.96 731.85 L719.93 734.97 L724.58 743.82 L729.44 762.29 L725.23 758.83 L720.29 757.58 L709.59 756.52 L704.59 754.8 L699.34 752.11 L694.56 748.65 L691.05 744.62 L689.29 742.54 L683 737.4 L682.72 740.53 L680.95 744.74 L678.72 748.54 L676.96 750.47 L673.06 750.53 L669.72 748.37 L667.18 745.27 L665.76 742.52 L663.6 735.83 L662.25 732.92 L655.83 724.01 L652.49 718.15 L649.31 714.47 L644.26 713.94 L638.82 715.5 L634.43 718.16 L634.38 718.19 L630.82 720.49 L626.53 722.48 L623.7 723.08 L606.03 726.84 L596.63 728.83 L595.11 728.65 L590.88 726.51 L585.53 725.02 L584.67 724.59 L582.29 726.21 L574.63 735.17 L569.01 746.64 L567.19 748.45 L564.38 747.46 L557.9 741.76 L555 739.87 L546.66 738.31 L528.28 734.86 L525.59 733.94 L523.43 731.02 L522.99 728.51 L521.89 727.68 L517.71 729.88 L515.25 731.63 L514.46 732.36 L512.67 733.99 L510.55 736.78 L509.33 739.81 L509.98 746.46 L512.93 753.68 L519.68 766.22 L519.78 772.46 L515.19 776.9 L496.67 786.35 L494.22 788.45 L492.02 790.89 L484.25 802.8 L479.69 807.53 L472.97 810.25 L464.48 810.61 L455.16 809.45 L450.66 808.9 L436.49 807.14 L428.37 807.49 L425.4 808.16 L422.98 810.03 L421.15 812.82 L419.58 815.85 L411.71 827.42 L409.72 829.28 L407.04 829.72 L403.6 828.97 L403.6 828.94 L403.2 827.83 L400.02 823.86 L398.07 822.71 L395.34 823.89 L388.69 816.99 L386.95 815.9 L381.17 815.9 L377.98 817.18 L376.19 817.66 L374.6 817.22 L373.11 814.03 L372.45 805.78 L370.16 804.11 L369.1 803.55 L366.84 800.91 L365.56 800.06 L364.21 800.29 L363.06 801.14 L361.88 801.43 L360.43 800.06 L357.48 803.95 L352.6 804.04 L342.96 801.49 L339.75 801.85 L335.21 803.06 L331.95 802.8 L313.88 797.71 L310.7 797.43 L308.12 796.63 L302.91 792.19 L302.59 790.77 L298.44 783.13 L297.87 782.99 L295.17 783.13 L294.49 782.81 L294.55 782.04 L294.74 781.14 L294.57 780.39 L294.02 779.24 L293.69 776.38 L293.17 775.26 L291.76 779.06 L291.91 783.18 L293.17 790.28 L292.5 793.61 L290.88 796.94 L286.74 802.8 L284.52 805.1 L282.13 806.27 L278.95 806.68 L274.43 806.74 L271.99 806.3 L270.86 805.27 L270.05 803.97 L268.58 802.8 L266.69 802.28 L263.52 802.18 L262.12 801.49 L262.12 802.8 L266.13 804.97 L269.68 808.5 L270.65 811.82 L266.69 813.29 L260.48 812.9 L253.41 814.47 L249.94 814.6 L247.39 813.37 L246.13 810.66 L245.79 807.96 L245.95 806.74 L245.36 806.2 L244.89 803.67 L244.07 802.8 L242.58 802.68 L241.75 803.25 L241.12 803.93 L240.2 804.11 L239 803.79 L237.23 802.97 L235.62 801.58 L234.12 797.13 L232.27 795.08 L228.48 792.19 L225.34 793.53 L224.38 791.06 L225.3 787.54 L227.79 785.76 L229.31 784.33 L231.24 781 L232.9 777.26 L233.64 774.55 L236.73 770.04 L244.01 767.92 L258.77 767.3 L258.91 767.29 L259.63 767.27 L259.63 766.88 L259.63 765.96 L257.16 765.19 L256.52 764.02 L257.62 755.69 L258.25 754.15 L259.82 752.82 L262.03 751.65 L264.29 750.05 L265.99 747.36 L266.36 745.15 L265.99 737.69 L263.15 730.91 L257.71 721.28 L254.12 711.75 L256.96 705.23 L253.35 702.38 L251.54 701.65 L245.95 701.04 L243.64 700.04 L241.98 698.56 L239.77 691.68 L235.68 688.18 L230.23 686.16 L224.51 685.52 L224.93 686.19 L224.99 686.35 L225.16 686.43 L225.9 686.84 L223.33 690.77 L221.93 690.77 L221.06 689.45 L220.46 688.93 L218.06 688.27 L218.06 689.45 L219.18 691.75 L218.02 694.59 L214.19 700.08 L218.02 698.37 L218.38 700.34 L216.97 703.84 L212.16 712.65 L210.95 716.22 L210.43 720.49 L208.34 725.53 L207.88 727.79 L208.01 729.63 L208.94 732.67 L209.14 734.94 L208.09 737.83 L205.53 739.71 L202.48 740.37 L200.01 739.59 L199.21 740.51 L198.34 741.13 L196.12 742.1 L194.57 737.57 L190.61 734.86 L185.89 732.86 L181.97 730.42 L174.23 735.13 L170.96 738.14 L171.65 740.91 L169.02 740.82 L166.76 741.21 L165.01 742.12 L163.81 743.53 L160.16 741.7 L155.79 741.23 L153.54 740.3 L156.07 736.97 L150.26 732.41 L148.85 731.71 L147.65 730.16 L148.54 726.86 L150.08 723.81 L150.91 723.07 L150.49 717.11 L148.65 707.25 L148.21 701.99 L148.84 700.18 L150.14 698.16 L151.51 695.57 L152.08 692.08 L151.83 688.79 L151.06 686.48 L148.21 681.57 L147.78 680.1 L147.56 678.49 L147.22 676.91 L146.35 675.59 L145.1 675.26 L141.37 675.2 L140.49 675 L140.86 672.87 L143.03 671.57 L144.58 670.3 L143.07 668.31 L143.07 667.13 L144.5 664.85 L149.56 659.93 L154.92 656.64 L157.36 659.23 L158.53 659.23 L158.33 656.26 L156.5 651.36 L156.07 648.6 L153.35 649.68 L152.11 650.34 L150.91 651.34 L148.54 648.96 L147.84 646.81 L147.73 644.27 L147.04 640.71 L145.81 637.83 L143.01 633.84 L141.78 631.39 L143.35 631.86 L143.9 631.96 L144.09 632.43 L144.49 634.13 L145.65 634.13 L146.85 632.02 L148.79 630.36 L151.23 629.27 L154.14 628.87 L156.67 629.93 L159.67 634.5 L162.52 635.45 L156.56 624.11 L154.78 622.3 L155.64 620.21 L156.07 619.55 L154.78 619.55 L154.35 620.25 L153.49 622.3 L154.27 623.83 L153.9 625.57 L152.66 626.98 L150.91 627.44 L149.03 626.5 L146.81 623.05 L141.78 620.53 L140.43 616.37 L140.25 611.54 L140.49 607.7 L139.2 609.02 L139.82 605.08 L140.49 603.65 L138.74 603.58 L137.79 603.06 L136.62 601.01 L136.68 607.69 L136.34 610.7 L135.33 612.97 L134.04 612.97 L132.01 612.3 L129.34 612.91 L126.71 614.23 L124.91 615.6 L121.04 610.23 L124.91 607.7 L125.88 608.94 L128.76 611.65 L130.17 611.65 L129.49 609.76 L127.43 607.22 L126.3 605.08 L126.3 597.18 L128.45 595.08 L131.09 595.95 L134.22 597.44 L137.79 597.18 L137.79 595.74 L135.47 595.95 L133.58 595.41 L132.17 594.37 L131.34 593.11 L131.34 591.8 L132.78 591.8 L132.78 590.48 L130.78 591.36 L130.17 591.8 L128.76 591.8 L128.54 590.38 L127.59 587.84 L126.3 587.84 L126.3 591.8 L124.91 590.48 L124.91 594.54 L123.72 594.54 L124.02 589.2 L125.05 585.13 L127.03 582.13 L130.17 579.95 L132.04 579.11 L133.7 578.73 L135.33 579.12 L137.22 580.55 L139.54 581.62 L142.2 581.11 L144.49 579.51 L145.65 577.32 L144.49 577.32 L142.8 579.76 L140.19 579.58 L137.42 577.93 L135.33 576 L134.04 576 L126.3 579.95 L125.24 578.76 L123.9 576.35 L122.79 573.6 L122.33 571.4 L121.32 569.78 L116.9 567.43 L110.6 557.57 L109.43 557.57 L112.22 563.88 L121.46 573.66 L123.72 579.95 L123.3 583.18 L121.09 588.88 L121.04 591.8 L123.01 600.05 L122.76 603.44 L121.04 607.7 L120.67 605.25 L118.88 601.77 L118.46 599.04 L117.77 597.77 L114.45 594.57 L113.3 593.11 L116.17 588.72 L115.48 577.71 L113.34 570.05 L107.94 561.92 L99.98 550.66 L91.31 533.89 L89.43 524.31 L86.4 517.61 L85.25 516.22 L82.65 513.05 L72.97 498.03 L71.51 490.36 L75.82 458.73 L76.77 455.06 L78.77 451.41 L83.64 447.13 L85.27 444.4 L85.01 442.68 L84.7 440.58 L82.53 438.09 L76.45 434.82 L73.89 432.03 L73.38 430.52 L73.07 427.28 L72.37 425.7 L71.04 424.42 L66.34 421.61 L51.94 406.99 L46.29 402.85 L35.56 399.26 L34.44 398.41 L32.65 397.05 L31.31 393.97 L30.82 389.84 L31.06 385.74 L31.96 382.72 L34.32 380.63 L34.33 380.62 L36.27 374.49 L36.48 372.6 L36.04 370.23 L35.32 368.92 L34.38 367.73 L33.29 365.71 L32.08 361.7 L31.3 354.28 L30.33 349.8 L29.16 347.65 L28.58 345.49 L28.86 343.48 L30.99 341.15 L31.24 340.43 L30.99 339.72 L29.38 338.18 L29.03 337.36 L29.34 336.6 L30.33 335.91 L31.71 335.22 L32.7 334.4 L33.29 333.39 L33.35 332.38 L33.36 332.21 L30.15 330.26 L28.27 327.71 L25.27 321.6 L16.7 311.49 L12.96 304.97 L2.98 278.6 L2.79 278.11 L2.58 264.47 L3.81 252.67 L3.01 238 L3.04 237.46 L3.15 235.18 L3.01 233.63 L2.28 231.87 L0.25 228.59 L0 226.51 L3.55 221.93 L10.93 221.09 L26.2 222.4 L37.72 221.44 L41.36 220.14 L50.24 214.96 L53.68 214 L47.02 209.61 L42.97 205.62 L43.22 201.52 L49.27 196.82 L68.25 187.49 L72.72 183.62 L73.48 181.79 L73.73 177.79 L74.2 175.82 L75.11 174.17 L78.47 169.94 L80 166.55 L83.24 155.95 L86.73 149.73 L91.37 145.08 L102.24 136.52 L105.03 133.29 L105.7 130.8 L105.61 127.89 L106.25 123.42 L107.58 120.38 L111.51 114.73 L112.86 111.59 L113.32 107.76 L113.37 105.2 L113.38 104.34 L114.25 101.19 L117.17 98.18 L120.35 96.69 L127.31 94.67 L130.53 92.77 L132.81 90.8 L145.66 79.71 L151.9 76.31 L155.71 75.04 L167.1 73.34 L175.54 70.72 L181.28 68.94 L194.06 68.97 L198.12 68.47 L201.4 66.99 L206.65 63.15 L209.38 62.36 L210.08 62.81 L211.07 63.79 L212.54 64.69 L214.51 64.94 L215.89 64.39 L223.03 59.42 L230.31 55.69 L233.49 55.14 L236.87 56.3 L239.41 57.96 L242.15 58.56 L246.06 56.57 L247.21 55.02 L247.5 53.45 L248.07 52.04 L249.88 50.97 L251.79 50.83 L253.68 51.38 L255.23 52.4 L256.38 53.64 L256.83 55.64 L256.42 60.26 L257.02 62.04 L258.41 62.56 L264.88 63.01 L275.97 65.84 L279.55 66.26 L282.02 66.03 L283.57 65.65 L285.18 65.63 L287.9 66.54 L289.94 67.77 L291.81 69.22 L293.92 70.46 L296.72 71.02 L300.04 70.62 L301.03 69.48 L301.51 67.93 L303.26 66.31 L313.49 65.78 L318.66 70.11 L325.18 68.65 L326.9 67.79 L327.03 67.73 L332.32 65.11 L339.2 63.22 L340.32 63.8 L341.29 64.96 L342.63 65.96 L345 66.03 L346.42 65.33 L351.1 60.18 L351.4 59.14 L351.82 58.58 L353.45 58.63 L352.86 59.34 L353.04 61.08 L354.11 62.86 L356.39 63.7 L359.77 62.74 L362.27 60.75 L365.11 59.19 L369.6 59.59 L379.83 63.77 L401.31 66.92 L402.59 67.46 L403.84 67.8 L404.96 67.78 L405.61 67.76 L406.65 67.19 L407.86 66.09 L409.38 65.02 L411.39 64.47 L414.83 65.15 L417.79 66.51 L420.88 67.13 L424.64 65.55 L426.73 63.2 L428.54 60.22 L430.65 57.46 L433.64 55.71 L436.68 55.65 L441.36 57.67 L444.57 57.53 L445.77 56.55 L447.65 53.45 L449.2 52.78 L450.74 53.54 L451.71 57.02 L452.97 58.07 L455.82 57.47 L461.48 52.96 L464.07 51.63 L467.21 51.96 L469.77 53.54 L472.27 55.54 L475.35 57.11 L476.69 57.17 L480.25 56.65 L481.99 56.72 L483.44 57.35 L486.45 59.36 L487.96 60.13 L491.25 60.73 L498.71 62.08 L502.24 63.18 L503.17 65.54 L503.21 68.18 L502.33 77.01 L502.64 78.67 L508.64 89.83 L511.97 93.62 L516.11 95.63 L526.33 92.42 L532.14 82.65 L536.44 72.96 L541.97 69.98 L541.96 76.13 L542.67 80.64 L544.45 84.68 L555.68 101.79 L559.15 105.22 L560.45 105.91 L563.17 106.77 L564.56 107.64 L569.38 114.42 L570.95 115.89 L572.85 116.66 L575.91 117.05 L581.27 117.11 L586.88 116.31 L592.15 114.5 L596.63 111.51 L599.78 110.65 L602.57 109.07 L607.83 105.32 L609.36 106.32 L610.81 107.5 L612.06 108.87 L613.16 110.41 L616.02 109.27 L619.42 110.76 L622.31 113.8 L623.71 117.26 L626.66 115.11 L628.59 115.22 L630.51 116.47 L633.54 117.76 L636.24 118.06 L640.3 117.45 L642.35 117.54 L647.64 120.38 L650.45 125.14 L652.57 130.55 L655.77 135.32 L672 149.58 L676.25 151.93 L677.02 152.35 L681.72 153.42 L686.37 152.94 L691.05 151.06 L695.48 151.25 L705.25 153.74 L709.02 153.53 L711.79 150.14 L711.44 141 L713.72 138.04 L716.44 135.28 L719.83 133.02 L722.78 130.49 L724.18 126.88 L723.25 123.21 L720.75 120.37 L717.72 117.78 L715.17 114.89 L710.35 103.33 L707.4 99.96 L700.92 95.83 L698.32 93.35 L696.73 89.43 L697.47 84.59 L696.81 80.84 L694.72 77.73 L691.05 74.74 L690.14 72.65 L689.89 70.44 L690.19 68.2 L691.05 66.06 L694.85 66.73 L703.17 69.61 L706.42 69.46 L706.93 68.54 L707.4 65.48 L707.96 64.68 L708.92 64.58 L710.96 64.72 L713.9 64.54 L718.43 65.35 L725.06 65.73 L728.67 65.32 L731.67 63.52 L734.46 59.43 L735.73 55.24 L737.64 45.08 L739.4 41.77 L740.51 42.96 L751.98 50.07 L753.82 50.54 L756.4 50.73 L758.91 50.03 L760.15 49.86 L770.3 48.46 L775.1 46.45 L777.05 42.65 L777.8 42.52 L779.18 41.35 L780 40.01 L777.82 38.8 L777.64 37.49 L777.95 36.09 L778.36 35.27 L780.12 34.24 L782.18 34.47 L784.59 35.09 L787.49 35.27 L787.49 34.06 L786.11 33.55 L785.29 32.6 L784.87 31.2 L784.8 29.33 L785.11 27.41 L786.04 26.87 L787.29 26.75 L788.66 26.06 L792.71 22.29 L793.83 23.33 L796.21 27.05 L796.96 29.53 L797.95 35.68 L798.61 37.55 L800.25 38.56 L804.59 39.52 L806.53 40.7 L810.24 46.42 L813.39 48.18 L815.73 49.48 L829.46 53.69 L830.28 54.37 L831.74 55.92 L832.62 57.14 L834.09 60.05 L840.7 69.48 L845.67 74.49 L848.29 76.37 L850.92 77.42 L853.75 77.52 L861.07 73.37 L861.96 72.52 L863.05 71.97 L865.05 71.82 L866.77 72.4 L870.3 74.62 L872.21 74.96 L874.57 74.31 L875.25 73.31 L875.33 72.1 L877.4 67.13 L879.77 66.61 L880.58 66.14 L884.25 60.35 L889.76 53.51 L889.89 52.53 L890.47 52.37 L892.85 53.42 L895.95 55.89 L897.56 58.21 L899.58 59.25 L903.77 57.92 L909.56 54.04 L914.71 49.36 L916.24 46.31 L917.3 42.98 L918.83 40.66 L921.65 40.67 L921.67 40.68 L921.71 40.7 L921.74 40.7 L924.62 41.19 L926.23 40.3 L928.22 36.35 L928.62 32.44 L928.9 31.15 L929.65 30.2 L931.84 28.87 L932.79 28.02 L936.13 23.26 L938.98 20.7 L942.45 20.95 L947.55 24.65 L951.11 27.89 L952.97 28.61 L956.51 29.37 L960.91 31.35 L963.07 31.44 L965.51 29.44 L966.1 27.94 L966.1 26.28 L965.87 24.63 L965.98 23.09 L966.54 21.51 L967.89 19.64 L968.53 18.54 L970.03 14.13 L971.25 12.84 L974.19 11.38 L980.44 2.17 Z M277.7 810.66 L280.37 812.5 L281.76 816.56 L281.56 820.61 L279.64 822.46 L276.55 822.42 L273.81 821.89 L271.57 820.35 L269.96 817.22 L271.53 816.79 L272.31 816.24 L273.83 814.6 L272.59 812.3 L273.17 810.9 L275.03 810.36 Z M185.71 769.18 L186.52 769.91 L188.15 770.16 L189.56 771.08 L189.69 773.84 L187.2 774.71 L184.97 775.79 L183.17 777.51 L181.97 780.39 L180.35 779.05 L179.48 776.82 L179.02 774.74 L178.7 773.84 L178.84 773.37 L172.82 771.08 L169.94 768.73 L167.73 765.99 L167.09 763.16 L168.95 760.59 L172.76 759.25 L175.89 760.15 L178.47 762.3 L180.68 764.65 L181.1 765.28 L181.47 766.62 L181.97 767.27 L183.03 767.57 L184.25 767.47 L185.29 767.75 Z M136.62 648.6 L137.5 650.76 L138.46 652.41 L138.8 653.8 L137.79 655.18 L138.79 657.8 L138.65 661.39 L137.79 664.86 L136.62 667.13 L134.04 668.37 L131.04 668.39 L129.25 667.41 L130.17 665.69 L128.09 663.59 L127.45 659.57 L127.59 652.55 L126.16 644.32 L126.11 639.59 L127.59 635.45 L127.9 636.29 L128.42 637.21 L128.76 638.08 L130.88 636.24 L132.7 636.05 L134.18 637.18 L136.53 642.03 L136.65 644.12 L136.44 646.11 Z M135.33 620.86 L136.28 622.67 L138.4 625.84 L139.2 627.44 L139.2 628.87 L138.33 630.22 L136.21 634.38 L135.33 635.45 L133.46 635.3 L133.3 633.37 L134.04 628.87 L132.34 625.75 L129.86 622.14 L128.83 618.58 L131.34 615.6 L134.59 617.55 L135.33 618.23 L135.75 619.23 L135.73 620.16 L135.52 620.79 Z M192.7 797.43 L193.04 797.53 L193.59 798.23 L193.59 799.64 L192.79 801.14 L191.93 803.27 L190.68 804.88 L188.66 803.63 L184.77 797.58 L183.45 794.53 L184.19 791.9 L186.72 790.87 L188.86 790.61 L189.93 791.02 L190.32 792.36 L188.49 794.99 L188.36 795.88 L188.29 796.85 L188.61 798.36 L189.56 799.26 L190.91 799.36 L192.21 798.28 Z "/>
</g>
</svg>
