<svg xmlns="http://www.w3.org/2000/svg" viewBox="0 0 1000 1498.38">
<g fill="#ccc" stroke="#333" stroke-width="0.5" stroke-linejoin="round">
<path fill-rule="evenodd" d="M365.72 1431.97 L326.89 1431.98 L288.04 1431.99 L249.21 1431.99 L247.27 1431.99 L218.75 1431.99 L210.38 1431.99 L192.91 1431.99 L190.28 1431.56 L182.07 1427.46 L179.82 1426.93 L177.48 1426.06 L174.19 1423.82 L171.19 1421.16 L169.53 1419.1 L169.24 1416.42 L169.66 1413.73 L169.55 1411.3 L168.06 1409.11 L169.7 1407.57 L169.7 1406.76 L170.61 1404.53 L171.09 1380.37 L175.02 1362.95 L177.26 1357.6 L177.76 1355.46 L178.21 1338.97 L179.53 1333.06 L181.53 1327.67 L183.96 1323.91 L186.73 1320.55 L188.34 1316.99 L188.63 1312.87 L183.65 1293.9 L181.37 1290.83 L181.37 1290.02 L182.61 1290.05 L183.43 1289.82 L184.92 1289.13 L184.92 1288.25 L182.9 1288.41 L181.5 1288.07 L180.45 1287.37 L179.53 1286.47 L178.7 1285.29 L175.3 1278.88 L165.64 1266.77 L160.2 1262.04 L147.62 1253.46 L150.49 1252.82 L153.66 1251.24 L164.32 1243.1 L167.18 1242 L170.66 1241.91 L166.51 1240.7 L162.87 1242.13 L159.5 1244.32 L156.03 1245.46 L147.14 1246.26 L145.56 1245.53 L144.92 1243.87 L145.53 1242.09 L147.62 1241.02 L143.78 1231.87 L137.62 1223.3 L135.86 1220.01 L135.13 1216.96 L138.38 1220.1 L139.12 1220.51 L139.76 1221.1 L140.8 1223.92 L141.4 1224.95 L143.05 1225.72 L145.3 1225.99 L150.28 1225.92 L148.97 1225.23 L144.89 1224.07 L143.58 1223.34 L143.07 1222.8 L142.7 1222.12 L141.82 1220.96 L140.75 1218.26 L141.13 1214.94 L142.64 1211.83 L144.89 1209.78 L149.81 1214.18 L152.5 1214.82 L153.81 1211.63 L158.18 1213.81 L159.85 1215.07 L160.91 1216.96 L161.67 1215.57 L161.69 1214.21 L161.09 1212.89 L160.11 1211.63 L160.52 1211.57 L161.88 1211.63 L155.77 1209.43 L152.91 1207.74 L152.05 1205.33 L153.73 1203.58 L157.08 1202.42 L160.76 1201.82 L163.5 1201.77 L163.49 1201.2 L163.31 1200.8 L162.68 1199.99 L163.02 1199.82 L163.31 1199.83 L163.5 1199.69 L163.5 1199.02 L150.56 1201.25 L146.64 1200.88 L144.61 1198.65 L145.23 1195.34 L147.33 1192.35 L149.84 1191.03 L151.97 1189.08 L157.59 1180.53 L161.4 1178.59 L161.94 1177.89 L162.51 1176.59 L162.22 1175.83 L160.11 1176.73 L157.66 1178.53 L156.56 1179.73 L155.58 1181.26 L154.7 1181.26 L154.7 1178.59 L152.39 1180.34 L148.17 1186.79 L145.84 1189.33 L143.01 1190.8 L139.47 1191.79 L136.87 1191.3 L136.9 1188.36 L135.13 1190.14 L132.62 1188.83 L130.28 1186.44 L128.98 1183.44 L129.72 1180.37 L127.88 1178.41 L126.38 1178.99 L122.73 1183.04 L123.05 1183.47 L123.62 1184.23 L124.65 1184.62 L125.83 1184.88 L127.14 1185.69 L127.27 1186.29 L128.6 1189.39 L130.08 1190.95 L132.23 1192.69 L133.39 1194.86 L131.58 1197.33 L129.72 1196.59 L128.79 1196.39 L127.88 1196 L126.17 1194.67 L124.5 1191.92 L123.76 1191.38 L123.18 1191.06 L122.83 1190.52 L122.73 1189.33 L121.12 1189.52 L119.98 1190.03 L119.31 1190.95 L119.09 1192.4 L122.6 1194.51 L123.53 1195.56 L123.82 1197.08 L123.51 1198.23 L122.99 1199.48 L122.73 1201.33 L123.11 1202.32 L125.16 1203.45 L126.17 1204.44 L124.5 1205.2 L122.45 1205.75 L117.76 1206.22 L115.33 1205.94 L110.89 1204.71 L108.85 1204.44 L104.99 1202.49 L103.54 1198.04 L104.19 1193.23 L106.6 1190.14 L106.6 1189.33 L103.39 1190.06 L101.94 1192.22 L101.17 1194.49 L96.76 1198.58 L92.91 1197.91 L91.61 1198.14 L91.66 1195.76 L91.94 1193.93 L91.6 1192.43 L89.76 1191.03 L88.24 1190.77 L85.87 1190.77 L83.57 1191.01 L82.26 1191.48 L80.27 1191.16 L73.36 1186.8 L62.1 1181.46 L60.52 1180.37 L60.29 1176.7 L62.76 1168.9 L63.08 1165.18 L59.1 1161.48 L55.98 1157.1 L53.73 1152.09 L50.6 1133.54 L51.28 1130.34 L54.65 1124.54 L55.91 1121.46 L53.04 1124.67 L51.35 1125.58 L50.6 1123.72 L50.91 1122.14 L51.47 1120.55 L51.83 1118.86 L51.48 1117.01 L50.47 1116.07 L47.63 1115.05 L46.61 1112.93 L45.6 1111.47 L44.39 1110.2 L43.43 1109.82 L42.93 1111.51 L46.95 1117.62 L47.86 1120.58 L47.1 1122.59 L45.92 1123.08 L44.86 1122.22 L44.39 1120.16 L38.11 1115.22 L38.03 1116.9 L38.22 1118.26 L38.84 1119.26 L39.96 1119.75 L38.24 1122.9 L37.66 1123.32 L36.79 1123 L34.21 1121.48 L33.67 1121.02 L32.71 1119.92 L30.58 1119.12 L28.44 1117.92 L27.46 1115.67 L26.07 1110.86 L20.29 1102.5 L19.48 1097.36 L17.35 1100.64 L18.21 1104.42 L20.18 1108.34 L23.45 1120.42 L24.64 1121.46 L26.13 1122.19 L27.46 1123.32 L28.25 1126.69 L25.53 1128.23 L9.3 1129.45 L7.84 1128.75 L8.47 1127.14 L10.08 1125.36 L11.52 1124.13 L9.95 1123.38 L8.5 1123.37 L7.48 1124.07 L6.67 1126.87 L5.62 1127.38 L4.19 1127.28 L2.66 1126.87 L0.68 1124.87 L0 1121.76 L0.63 1119.43 L2.66 1119.75 L3.34 1118.07 L6.11 1113.45 L4.32 1114.77 L2.68 1114.79 L1.44 1113.68 L0.8 1111.59 L1.12 1109.86 L2.09 1108.08 L4.35 1105.44 L8.12 1102.87 L8.85 1101.81 L8.9 1100.21 L8.39 1098.65 L8.12 1097.11 L8.85 1095.51 L9.74 1096.48 L9.28 1091.32 L9.52 1088.71 L11.03 1087.58 L11.57 1087.33 L11.69 1087.32 L13.91 1085.17 L13.42 1083.3 L13.03 1081.5 L12.62 1078.72 L13.76 1076.73 L17.3 1074.1 L18.09 1071.75 L23.19 1063.67 L23.19 1063.65 L25.12 1060.94 L26.33 1058.37 L28.25 1052.68 L29.05 1050.94 L31.58 1047.07 L32.88 1045.68 L34.33 1045.02 L35.86 1044.75 L37.21 1044.13 L38.15 1042.45 L41.63 1024.74 L41.49 1023.35 L40.42 1020.2 L40.27 1018.48 L41.1 1015.33 L43.89 1009.81 L44.75 1006.89 L44.69 1004.14 L44.23 1001.62 L44.04 999.07 L44.85 996.25 L46.79 993.71 L49.23 991.36 L51.21 988.82 L51.78 985.67 L50.46 982.19 L48.01 979.62 L45.12 977.37 L42.5 974.83 L40.79 971.53 L41.79 969.66 L44.08 967.96 L46.36 965.15 L46.94 961.88 L45.8 959.6 L44.4 957.53 L44.16 954.88 L45.54 952.74 L50.13 949.65 L51.88 947.44 L54.09 945.3 L56.88 945.7 L59.71 946.72 L62.01 946.44 L62.48 944.73 L62.76 941.02 L63.46 940.13 L65.54 939.05 L67.17 937.29 L69.95 933.26 L69.95 933.24 L81.93 920.75 L99.74 906.36 L103.05 901.7 L106.76 893.85 L108.53 891.83 L110.31 890.85 L111.84 890.69 L113.48 890.84 L115.53 890.71 L119.15 888.52 L123.09 880.9 L126.91 878.51 L127.69 878.22 L132.88 876.28 L135.52 874.96 L137.58 872.94 L140.61 867.17 L142.54 865.55 L146.39 864.77 L147.97 864.76 L152.61 864.73 L154.23 863.44 L154.35 863.05 L164.2 831.75 L166.63 829 L169.71 829.23 L172.24 830.47 L174.76 831.21 L177.8 829.93 L209.59 802.9 L212.64 801.16 L214.45 801.54 L215.51 803.67 L217.37 813.29 L218.73 815.84 L221.45 817.97 L225.03 819.04 L258.47 818.56 L258.55 815.62 L259.09 813.57 L260.15 811.8 L261.75 809.65 L262.56 809.03 L263.3 808.86 L263.85 808.43 L264.62 798.41 L265.72 793.49 L267.33 788.73 L269.21 785.05 L271.61 788.13 L272.31 794.57 L274.65 796.44 L278.08 797.58 L287.16 802.41 L297.83 806.44 L302.08 809.33 L304.2 814.55 L305.39 820.5 L308 826.21 L312.14 830.38 L324.25 832.6 L328.67 836.09 L331.17 841.34 L331.57 847.57 L331.36 852.76 L331.77 857.86 L333.96 867.96 L336.51 874.18 L338.64 876.15 L342.13 876.64 L350.17 875.8 L353.99 875.39 L354.69 875.62 L356.14 876.55 L357.08 876.68 L357.86 876.34 L359.24 875.1 L359.72 874.82 L361.14 874.95 L363.96 875.64 L365.38 875.73 L368.59 874.96 L371.92 873.31 L374.46 870.94 L375.27 867.96 L376.07 862.54 L378.01 858.12 L381.43 855.34 L386.56 854.83 L390.09 852.85 L393.16 848.57 L396.92 839.76 L397.76 836.28 L398.1 832.73 L397.47 830.39 L394.61 827.15 L393.76 825.19 L394.49 821.69 L396.84 818.37 L404.82 811.02 L412.33 806.27 L412.82 805.59 L413.29 803.88 L413.81 803.26 L414.43 803.1 L415.76 803.23 L417.2 802.89 L419.23 802.81 L420.12 802.49 L420.87 801.46 L421.1 800.21 L421.47 799.03 L423.4 797.78 L428.92 792.76 L430.41 791.86 L432.18 791.31 L433.63 791.45 L434.8 791.99 L435.9 792.3 L437.14 791.78 L438.32 788.82 L436.71 785.54 L431.66 780.01 L425.2 770.63 L423.38 769.07 L420.29 768.48 L419.54 767.72 L420.57 766.55 L422.89 764.8 L425.52 762.32 L433.57 750.29 L441.21 742.81 L449.34 734.84 L452.8 729.66 L454.84 728.23 L456.46 726.75 L456.97 724.08 L455.12 716.4 L454.91 713.63 L455.31 710.75 L456.2 708.06 L460.87 699.54 L473.76 681.53 L478.67 676.38 L479.41 674.47 L479.06 672.3 L478.16 669.09 L477.45 664.05 L477.44 658.96 L478.17 655.77 L483.47 648.2 L484.07 646.51 L484.47 645.39 L484.59 642.78 L482.52 632.18 L482.2 626.21 L483.21 620.55 L486.19 616.29 L489.02 615.11 L494.01 615.95 L496.75 615.56 L498.29 614.45 L499.32 612.94 L500.15 611.35 L501.13 610.01 L505.04 607.29 L506.16 606.08 L506.08 602.44 L505.72 600.58 L502.68 593.14 L501.62 591.24 L505.19 592.4 L507.04 592.7 L508.83 592.53 L510.89 591.63 L512.39 590.57 L514.01 589.72 L516.38 589.45 L518.07 589.93 L522.25 591.86 L524.17 592.23 L526.17 591.75 L539.47 584.71 L541.78 582.16 L543.68 577.94 L544.82 574.22 L545.76 572.68 L547.24 571.95 L549.09 572.02 L550.74 572.32 L552.35 572.35 L554.08 571.61 L556.88 567.73 L558.33 562.09 L561.26 537.32 L560.32 532.53 L560.47 527.22 L563.07 520.96 L569.07 510.14 L569.87 507.87 L570.37 505.44 L570.49 500.23 L569.44 496.29 L568.18 493.63 L564.49 493.05 L563.87 492.61 L564.79 490.22 L565.65 489.59 L573.27 485.96 L574.34 485.22 L575.78 483.78 L579.53 478.91 L581.28 477.53 L590.27 473.59 L600.48 472.01 L608.93 468.62 L612.57 459.29 L613.21 450.76 L614.89 441.88 L616.15 438.73 L617.37 436.56 L617.69 434.45 L616.27 431.48 L612.5 427.54 L611.17 425.43 L610.96 422.45 L611.95 419.78 L615.01 414.94 L615.55 411.81 L615.04 409.28 L613.48 404.97 L613.44 402.34 L615.75 397.85 L620.08 396.17 L630.27 395.06 L632.68 394 L634.54 392.9 L635.74 392.18 L638.5 390.06 L640.02 388.09 L642.09 383.64 L642.37 381.87 L642.15 380.34 L641.27 377.66 L641.31 375.94 L644.21 367.75 L648.63 342.83 L653.51 326.32 L657.07 318.71 L680.2 285.47 L680.9 283.89 L681.84 281.8 L680.98 276.78 L681.56 274.07 L682.99 271.79 L685.08 269.99 L690.02 267.12 L691.58 265.06 L693.81 259.8 L696.92 254.25 L701.21 248.76 L706.1 243.77 L711.09 239.72 L715.09 239.71 L720.2 241.19 L729.3 245.09 L731.98 245.49 L734.86 244.75 L737.63 243.3 L739.95 241.6 L743.52 237.87 L745.1 237.19 L748.6 236.76 L749.62 236.34 L761.19 225.59 L763.63 224.22 L771.32 221.79 L774.04 220.18 L778.81 215.88 L781.53 214.22 L788.24 211.77 L790.47 210.57 L792.02 208.14 L793.38 204.97 L794.37 201.68 L794.86 198.92 L794.8 195.56 L794.05 192.9 L792.6 190.64 L790.48 188.49 L789.8 187.61 L789.34 186.66 L788.8 185.81 L787.84 185.22 L785.62 185.24 L785.1 185.05 L783.92 183.44 L783.73 182.28 L784.34 181.12 L789.1 174.79 L790.07 172.56 L792.84 159.06 L794.32 154.87 L794.8 150.42 L794.77 149.47 L794.55 148.02 L792.09 142.3 L791.84 139.75 L794.16 138.22 L793.86 136.82 L796.1 127.3 L796.88 125.76 L797.53 124.96 L797.85 124.13 L800.36 121.56 L800.14 120.15 L799.51 118.89 L797.97 118.06 L796.88 118.48 L795.08 119.43 L793.39 120.03 L792.65 119.42 L791.81 116.66 L789.76 114.95 L787.14 113.55 L784.59 111.71 L785.87 111.01 L786.36 110.81 L786.36 109.82 L784.94 109.21 L781.09 106.3 L780.16 105.36 L779.91 104.13 L780.58 102.18 L780.16 100.82 L776.62 98.93 L768.31 96.89 L741.63 96.07 L739.63 95.65 L737.91 94.6 L736.73 92.58 L736.64 91.02 L737.41 86.96 L737.45 84.41 L736.78 82.22 L736.58 81.58 L736.41 71.3 L729.11 35.88 L721.81 0.42 L767.67 0 L769.91 1.45 L775.83 10.75 L775.98 10.97 L777.81 12.97 L778.9 14.94 L779.29 17.15 L779.09 19.86 L777.08 25.95 L777.01 27.65 L778.35 29.58 L782.32 32.62 L784.66 35.03 L784.66 40.05 L784.93 41.23 L785.41 41.86 L786.17 41.95 L787.3 41.52 L787.3 42.83 L787.48 44.05 L788.07 44.78 L789.31 44.59 L791.8 42.67 L792.65 42.46 L793.66 42.88 L793.92 43.57 L793.97 44.39 L794.43 45.19 L796.69 46.65 L797.53 47.42 L799.65 48.64 L803.48 47.6 L805.55 48.33 L806.43 50.52 L804.53 54.89 L806.03 57.08 L808 53.79 L808.69 53.37 L809.88 53.8 L811.02 54.89 L811.88 56.24 L812.23 57.5 L813.2 59.64 L815.45 59.91 L819.73 58.9 L821.23 61.64 L825.53 77.97 L825.05 78.68 L824 80.73 L823.76 81.6 L823.68 83.08 L823.86 83.33 L824.44 83.41 L825.53 84.41 L825.27 83.75 L825.8 83.67 L826.64 83.96 L827.3 84.41 L827.43 84.94 L827.22 86.46 L827.3 87.05 L829.08 90.31 L831.3 100.38 L831.04 101.57 L830.86 110.81 L830.63 112.42 L829.97 114.65 L829.97 116.24 L830.35 117.23 L830.99 117.82 L831.54 118.52 L831.73 119.88 L831.19 120.76 L830.21 120.99 L829.55 121.57 L829.97 123.51 L830.63 124.43 L833.95 126.72 L836.81 130.07 L838.64 131.52 L840.19 131.29 L842.41 129.63 L844.74 129.37 L847.16 130.4 L849.63 132.56 L849 133.39 L848.51 134.82 L848.47 136.41 L849.14 137.67 L850.1 138.74 L850.18 139.56 L849.85 140.58 L849.63 142.21 L850.96 144.15 L853.18 146.07 L853.75 147.55 L850.03 148.14 L849.48 148.73 L849.77 150.05 L850.42 151.43 L850.91 152.18 L851.44 153.44 L850.55 154.61 L849.3 155.71 L848.66 156.75 L848.94 160.07 L849.83 162.16 L851.36 163.23 L853.57 163.53 L854.42 164.96 L857.61 172.6 L856.89 173.95 L854.78 175.95 L854.05 177.2 L854.28 177.75 L855.66 179.06 L855.83 179.92 L855.29 180.55 L854.42 180.65 L853.57 180.59 L853.09 180.74 L852.07 183.57 L851.84 186.16 L852.22 188.79 L854.27 194.74 L855.64 197.09 L859.29 201.72 L860.82 206.01 L859.09 209.67 L853.09 216.28 L851.91 218.63 L851.08 221.2 L850.26 228.1 L849.63 230.13 L849.63 231.65 L850.03 232.64 L850.71 233.22 L851.29 233.93 L851.4 235.27 L850.53 237.45 L847.53 241.84 L846.88 243.93 L845.96 252.13 L846.95 265.67 L847.78 276.99 L851.32 285.44 L852.65 287.42 L853.46 289.75 L853.02 293.01 L851.4 298.66 L851.76 303.63 L861.68 322.91 L862.67 326.09 L862.48 328.18 L861.18 330.51 L860.39 333.71 L860.31 336.98 L861.15 339.49 L861.96 340.2 L863.15 340.77 L864.59 341.15 L866.06 341.3 L867.43 341.58 L868.3 342.19 L868.93 342.81 L871.55 344.04 L872.71 346.29 L874.52 351.21 L876.4 353.3 L878.1 354.72 L879.35 356.31 L879.84 358.91 L880.11 362.25 L880.93 364.93 L882.34 367.2 L900.23 383.89 L905.06 390.81 L906.91 391.91 L906.84 392.48 L912.81 397.7 L921.47 402.91 L926.03 404.37 L931.65 409.47 L929.38 410.15 L900.25 417.32 L892.93 417.52 L871.11 410.41 L863.39 410.09 L857.44 410.75 L856.28 411.1 L854.82 411.98 L852.51 414.12 L851.16 415.01 L847.49 415.85 L843.52 415.56 L835.95 413.74 L829.98 413.53 L813.68 418.63 L808.47 418.36 L770.57 408.94 L738.87 411.07 L736.97 411.19 L735.91 411.61 L735.6 412.59 L735.54 413.87 L735.24 415.21 L728.93 427.82 L724.87 433.4 L714.25 442.67 L706.36 454.08 L706.58 456.04 L718.12 465.13 L755.1 507.98 L756.37 513.62 L758.76 517.81 L787.6 541.13 L816.44 564.44 L818.52 565.1 L819.73 564.71 L820.87 564.5 L822.01 564.52 L823.22 564.79 L825.02 565.79 L830.14 569.6 L831.3 570.85 L831.96 572.48 L832.81 573.1 L833.77 573.45 L834.69 574.24 L835.43 575.47 L836.6 578.8 L836.91 580.4 L836.91 581.62 L837.38 582.49 L839.12 583.02 L843.96 583.75 L847.27 584.78 L849.95 586.75 L852.11 589.36 L857.58 598.39 L865.08 605.81 L867.06 608.36 L870.56 615.89 L888.04 653.39 L895.99 681.5 L900.43 692.27 L906.55 696.78 L909.34 696.9 L913.41 697.85 L916.29 698.42 L916.19 711.82 L914.47 719.6 L910.97 726.77 L905.66 733.68 L904.65 735.54 L897.66 745.04 L897.15 747.09 L899.68 749.44 L899.39 751.17 L898.83 751.29 L896.39 751.44 L895.56 751.61 L894.8 752.34 L893.73 754.51 L893.23 755.27 L887.12 760.01 L877.13 765.63 L875.22 767.27 L872.28 769.78 L869.83 775.97 L868.04 778.96 L867.43 780.4 L867.27 781.64 L867.9 789.24 L867.55 790.57 L866.45 791.91 L863.47 793.3 L862.29 794.07 L860.88 796.24 L859.94 798.7 L857.91 806.78 L853.63 818.11 L850.87 823.58 L848.69 829.53 L847.69 831.36 L846.11 832.69 L838.32 836.6 L836.21 838.03 L834.44 840.05 L833.06 843.17 L818.19 876.96 L814.93 881.43 L814.65 882.92 L815.21 885.99 L815.25 887.41 L814.96 888.86 L813.64 891.27 L808.78 897.52 L806.73 899.16 L788.21 908.05 L782.83 908.01 L781.67 910.1 L779.72 912.55 L775.98 916.24 L774.02 916.83 L771.01 919.74 L769.28 921.33 L769.44 921.78 L769.56 922.5 L769.67 923.19 L769.09 924.45 L768.69 925.02 L768.23 926.13 L767.67 926.68 L766.99 926.69 L765.63 925.67 L765.01 925.79 L764.05 926.85 L763.66 927.74 L763.94 928.78 L765.01 930.33 L766.1 931.39 L767.59 933.19 L769.51 934.73 L771.4 936.74 L772.3 938.85 L772.86 941.13 L773.84 943.19 L775.98 944.63 L778.19 944.64 L782.27 945.11 L784.19 944.9 L787.7 942.73 L789.3 942.83 L791.02 945.43 L791.66 948.05 L793.54 950.46 L794.4 964.38 L795.31 967.02 L794.44 968.9 L792.65 976.01 L790.35 981.92 L790 983.95 L790.17 986.21 L790.83 988 L792.65 991.07 L793.51 993.13 L793.73 994.75 L793.54 998.69 L793.11 1000.05 L791.22 1003.73 L790.79 1005.88 L790.92 1009.62 L790.35 1011.11 L788.63 1011.72 L788.59 1012.73 L787.49 1014.9 L786.19 1016.92 L785.56 1017.46 L785.3 1019.17 L784.58 1021.48 L783.44 1023.69 L781.93 1025.06 L780.87 1025.38 L781.4 1026.8 L783.45 1029.13 L786.15 1030.86 L791.74 1032.72 L794.45 1034.06 L796.53 1036.12 L797.97 1038.82 L798.92 1041.81 L799.48 1044.77 L799.46 1051.34 L800.03 1056.38 L799.11 1061.2 L799.08 1061.77 L799 1063.65 L799.51 1065.12 L800.34 1066.24 L800.95 1067.48 L800.64 1070.97 L801.12 1072.28 L801.87 1073.56 L802.57 1075.13 L804.45 1087.45 L804.34 1088.76 L803.75 1091.96 L803.2 1093.4 L803.05 1094.25 L803.91 1096.46 L804.81 1106.34 L806.5 1112.5 L809.94 1117.98 L814.61 1122.53 L835.2 1136.74 L840.88 1138.75 L842.42 1139.69 L843.28 1141 L844.17 1144.31 L845.01 1146.07 L849.51 1151.62 L851.49 1155.29 L852.66 1158.87 L853.97 1166.74 L854.18 1174.14 L855.05 1177.64 L856.52 1178.86 L858.5 1178.61 L860.45 1179.36 L861.29 1181.18 L861.72 1183.02 L862.48 1183.86 L864.29 1183.86 L866.28 1184.19 L867.85 1185.27 L868.14 1186.69 L865.59 1187.79 L862.74 1188.47 L857.65 1190.89 L855.11 1191.42 L852.97 1191.15 L848.81 1190.09 L846.58 1190.09 L854.23 1208.34 L865.45 1224.85 L876.01 1236.05 L877.26 1237.39 L886.02 1246.7 L896.95 1258.29 L910.45 1272.64 L923.29 1286.27 L935.47 1299.18 L945.2 1309.52 L946.18 1310.13 L947.2 1310.44 L948.82 1310.69 L949.35 1310.54 L950.85 1309.69 L951.51 1309.44 L952.29 1309.59 L953.68 1310.5 L954.18 1310.69 L959.76 1310.1 L961.87 1310.82 L964.39 1312.92 L966.55 1315.63 L967.61 1318.16 L969.34 1324.7 L969.69 1325.41 L970.15 1326.03 L970.7 1326.58 L972.44 1325.97 L973.82 1325.64 L975.08 1325.7 L976.44 1326.29 L977.47 1327.38 L980.22 1331.39 L982.14 1335.7 L983.74 1338.42 L985.03 1341.33 L985.39 1344.77 L984.31 1347.84 L980.81 1351.35 L980.33 1354.78 L980.83 1359.2 L980.73 1361.02 L981.16 1362.14 L982.49 1362.18 L984.23 1361.91 L985.9 1362.04 L987.37 1362.37 L986.19 1364.13 L985.2 1366.05 L984.76 1367.5 L985.12 1370.16 L987.12 1374.69 L987.51 1377.34 L986.9 1379.83 L984.88 1384.29 L984.76 1387.18 L985.28 1388.87 L986.93 1391.9 L987.51 1394.28 L987.51 1399.13 L987.7 1400.18 L988.73 1402.89 L990.35 1406.11 L992.81 1408.91 L993.71 1410.25 L994.18 1411.43 L994.42 1412.61 L994.58 1415.21 L994.98 1415.85 L996.78 1416.98 L997.25 1417.43 L997.3 1418.52 L996.57 1420.18 L996.36 1421.42 L998.07 1422.39 L998.56 1422.79 L999.3 1423.37 L1000 1424.53 L998.93 1425.94 L993.71 1429.85 L991.29 1427.55 L988.66 1427.09 L986.58 1428.36 L985.72 1431.22 L984.17 1434.13 L983.87 1435.61 L984.14 1437.28 L984.69 1438.42 L985.04 1439.62 L984.76 1441.46 L984.48 1441.59 L983.95 1441.61 L983.38 1441.78 L982.99 1442.35 L982.84 1443.12 L982.84 1443.7 L982.92 1444.05 L982.99 1444.12 L983.17 1445.27 L983.62 1446.28 L983.64 1447.42 L981.66 1450.2 L981.31 1451.44 L981.46 1456.24 L981.95 1456.94 L982.76 1457.33 L983.87 1458.31 L986.19 1462.24 L990.57 1473.6 L993.68 1487.95 L993.26 1490 L991.87 1490.62 L989.08 1489.67 L987.94 1490 L982.1 1498.38 L976.99 1491.77 L975.89 1489.51 L975.89 1488.18 L976.26 1486.96 L976.45 1485.68 L975.89 1484.19 L974.83 1483.21 L973.39 1482.61 L971.84 1482.58 L970.49 1483.31 L968.25 1482.43 L965.73 1481.87 L963.81 1480.92 L963.41 1478.87 L962.03 1479.62 L960.28 1480.3 L958.74 1480.36 L958.1 1479.27 L957.76 1477.32 L956.89 1476.4 L955.63 1475.79 L952.53 1473.75 L949.07 1472.55 L947.44 1471.7 L942.48 1465.36 L941.54 1464.81 L938.51 1464.33 L936.88 1463.69 L935.53 1462.94 L934.96 1462.34 L922.63 1460.97 L911.58 1457.69 L905.9 1456.64 L900.23 1457.43 L893.6 1461.36 L890.98 1462.23 L888.54 1463.47 L887.01 1463.71 L887.06 1463.41 L884.02 1462.05 L883.39 1461.94 L882.37 1460.84 L882.18 1460.31 L882.41 1459.57 L882.58 1457.87 L882.3 1456.92 L881.56 1455.91 L880.54 1455.09 L876.13 1453.47 L875.42 1453.07 L874.91 1452.2 L874.19 1450.22 L873.55 1449.44 L870.81 1448.36 L868.79 1448.96 L867.04 1449.7 L862.9 1448.18 L861.19 1452.01 L859.29 1451.3 L858.5 1451.3 L857.18 1453.4 L855.1 1455.53 L852.93 1456.19 L851.4 1453.88 L848.88 1454.69 L846.88 1454.12 L840.7 1449.21 L839.44 1449.03 L838.41 1452.15 L837.22 1452.75 L834.4 1453.07 L829.25 1452.68 L829.78 1449.49 L831.18 1445.86 L828.64 1444.12 L828.23 1442.84 L826.52 1440.3 L824.64 1438.44 L823.76 1439.24 L823.76 1440.86 L823.5 1442.44 L822.59 1443.64 L820.66 1444.12 L812.67 1445 L812.26 1444.39 L812.38 1441.49 L812.23 1440.57 L811.57 1440.57 L810.43 1440.88 L809.08 1441.03 L807.8 1440.57 L808.61 1440.25 L810.47 1438.8 L806.97 1436.93 L806.03 1437.4 L806.92 1440.57 L805 1439.8 L802.44 1437.16 L800.62 1436.05 L797.26 1436.18 L796 1435.54 L797.1 1433.48 L794 1432.09 L789.7 1427.3 L786.36 1426.38 L785.7 1427.21 L784.5 1428.35 L784.52 1429.56 L784.82 1430.75 L784.4 1431.87 L783.24 1432.28 L773 1434.47 L770.34 1436.1 L769.59 1436.34 L767.74 1435.93 L765.23 1433.61 L763.19 1432.45 L754.96 1431.34 L749.25 1433.56 L748.04 1433.7 L734.38 1433.58 L713.74 1433.4 L690.53 1433.19 L669.54 1433.01 L664.09 1432.97 L644.13 1432.79 L621.8 1432.58 L621.76 1429.37 L622.3 1425.47 L621.75 1423.56 L620.51 1422.04 L618.57 1420.28 L616.55 1418.83 L615.09 1418.24 L614.19 1418.44 L612.33 1419.22 L611.12 1419.2 L610.26 1418.83 L608.45 1417.43 L604.83 1416.72 L600.87 1416.54 L599.74 1416.99 L598.24 1418.08 L595.63 1420.58 L594.4 1421.09 L588.87 1421.78 L585.24 1420.21 L583.16 1419.73 L581.37 1420.58 L579.95 1420.98 L577.69 1420.61 L573.79 1419.2 L572.46 1420.44 L570.99 1420.98 L569.34 1420.85 L567.51 1420.1 L566.4 1421.68 L563.83 1421.12 L560.87 1419.83 L558.65 1419.2 L557.02 1419.89 L555.53 1421.09 L553.72 1422.24 L551.09 1422.75 L533.52 1420.13 L530.42 1418.99 L528.36 1417.43 L525.33 1418.14 L523.08 1417.43 L515.84 1415.07 L510.85 1414.72 L503.7 1416.36 L501.35 1415.89 L497.09 1413.29 L495.48 1412.7 L494.25 1412.85 L491.54 1414.3 L490.18 1414.66 L487.62 1415.03 L482.63 1416.7 L480.04 1417.19 L474.4 1416.95 L469.16 1416.11 L466.81 1416.03 L459.18 1416.61 L449.34 1415.99 L439.42 1416.86 L428.05 1416.5 L423.63 1417.11 L421.63 1416.89 L414.96 1414.7 L412.32 1412.53 L411.05 1411.8 L409.23 1411.61 L407.6 1411.98 L404.22 1413.18 L369.56 1414.46 L369.32 1415.64 L369.91 1417.33 L370.12 1419.06 L369.34 1420.88 L368.34 1422.25 L367.52 1423.73 L367.29 1425.86 L367.29 1427.49 L367.06 1429.08 L366.55 1430.6 Z "/>
</g>
</svg>
