<svg xmlns="http://www.w3.org/2000/svg" viewBox="0 0 1000 309.99">
<g fill="#ccc" stroke="#333" stroke-width="0.5" stroke-linejoin="round">
<path fill-rule="evenodd" d="M165.95 252.92 L176.93 254.24 L187.6 257.66 L193.52 265.14 L195.25 281.11 L183.36 290.27 L166.54 293.14 L146.19 287.61 L132.17 289.77 L119.55 291.93 L108.34 294.08 L99.25 300.44 L88.81 308.61 L82.95 309.38 L44.54 304.22 L34.71 303.58 L24.16 304.71 L17.19 309.99 L11.01 303.54 L12.2 293.88 L14.29 289.66 L16.36 282.63 L18.41 272.09 L18.37 262.97 L15.51 254.56 L6.35 247.59 L0 243.42 L1.36 235.69 L4.85 230.76 L13.27 227.9 L24.16 231.53 L22.46 239.79 L28.13 250.28 L33.11 262.19 L31.07 274.83 L39.54 286.01 L55.69 285.92 L66.89 281.66 L68.22 274.4 L72.63 265.78 L76.02 267.67 L84.76 270.04 L84.69 267.21 L83.82 265.22 L81.08 261.13 L84.76 265.78 L83.63 263.15 L82.16 261.39 L81.99 259.7 L84.76 257.2 L82.04 254.8 L80.35 252.05 L77.08 244.39 L87.82 245.77 L109.47 255.01 L121.14 257.2 L153.12 252.81 Z M815.85 33.69 L833.07 33.75 L849.47 27.24 L859.39 33.15 L857.08 34.22 L851.3 37.83 L835.92 42.35 L792.1 65.13 L771.28 62.21 L779.92 50.78 L789.99 45.07 L801.5 35.8 Z M914.05 33.32 L954.91 15.59 L974.99 3.52 L988.6 0 L997.12 3.48 L1000 12.93 L972.04 27.83 L924.04 41.94 L901.11 49.01 Z "/>
</g>
</svg>
