<svg xmlns="http://www.w3.org/2000/svg" viewBox="0 0 1000 676.57">
<g fill="#ccc" stroke="#333" stroke-width="0.5" stroke-linejoin="round">
<path fill-rule="evenodd" d="M649.13 6.37 L649.3 8.51 L660.2 24.49 L668.16 30.13 L682.08 43.75 L694.83 64.46 L707.58 85.15 L709.17 88.62 L711.41 102.05 L711.03 105.03 L709.99 107.33 L707.16 111.71 L706.21 113.95 L706.26 114.8 L707 116.73 L707.16 117.75 L707.06 120.16 L707.27 120.9 L707.85 121.88 L708.42 121.86 L708.87 122.03 L709.29 122.66 L709.33 123.18 L707.41 129.21 L707.31 130.59 L708.09 132.98 L708.2 134.11 L707.52 135.04 L706.51 135.83 L703.55 139.56 L701.87 141.27 L700.98 141.83 L699.75 142.04 L697.27 141.94 L696.11 142.4 L695.23 143.72 L694.84 144.31 L693.15 154.18 L693.35 156.07 L694.36 157.65 L696.4 158.83 L698.5 158.66 L701.34 155.86 L702.69 155.92 L703.25 157.6 L703.13 160.3 L702.19 164.71 L700.89 166.84 L697.73 170.42 L696.72 172.44 L696.68 174.3 L697.32 176.38 L698.48 178.07 L700.05 178.79 L701.18 178.53 L702.99 177.15 L704.05 176.54 L705.46 176.26 L706.76 176.41 L707.97 176.92 L709.11 177.73 L710.11 178.13 L712.57 178.08 L715.03 178.75 L716.27 178.37 L718.68 177.26 L721.32 177.19 L726.17 178.3 L730.43 177.86 L733.48 179.14 L734.95 179.36 L737.12 178.99 L745.11 180.33 L749.43 179.73 L750.2 179.62 L753.06 179.56 L754.44 180.3 L754.27 181.4 L752.86 183.45 L752.56 184.56 L753.11 185.64 L755.19 187.29 L755.57 188.23 L755.05 188.96 L751.95 191.03 L751.18 191.89 L746.89 199.13 L745.97 201.77 L745.69 204.29 L746.44 206.55 L748.09 208.5 L750.17 210.06 L752.21 211.18 L753.42 211.65 L756.07 212.27 L756.54 212.32 L757.91 212.48 L759.02 212.48 L759.57 212.56 L760.15 212.86 L761.42 213.87 L761.82 214.09 L766.76 212.38 L769.4 212.1 L771.23 213.86 L771.53 214.55 L771.95 215.06 L772.5 215.39 L773.25 215.56 L775.67 217.07 L778.11 217.15 L783.48 216.3 L787.77 217.1 L789.27 217.11 L790.81 217.29 L793.24 218.65 L797.68 219.15 L800.12 220.28 L806.7 226.37 L807.45 227.61 L807.63 230.36 L809.2 231.99 L809.36 233.37 L809.77 233.94 L810.29 234.45 L810.89 234.88 L811.55 235.24 L815.23 239.38 L817.52 241.14 L819.85 242.01 L820.91 241.94 L823.28 241.41 L824.37 241.41 L826.25 241.72 L826.81 242.07 L827.19 242.54 L827.66 242.97 L829.6 243.62 L830.58 244.58 L831.33 245.79 L832.11 248.24 L833.25 250.29 L833.66 251.6 L833.72 252.73 L833.42 256.06 L833.72 257.22 L834.16 258.29 L834.39 259.43 L834.05 260.79 L832.33 262.3 L827.27 264.02 L825.64 265.58 L825.59 266.55 L825.93 267.8 L827.57 271.67 L832.13 274.08 L833.15 274.77 L833.64 275.29 L834.37 276.52 L834.83 277.04 L835.43 277.38 L836.71 277.78 L837.21 278.15 L837.82 279.26 L838.31 281.48 L838.72 282.6 L839.55 283.73 L840.57 284.46 L844.86 286.61 L847.85 288.89 L849.84 289.82 L851.31 289.31 L852.57 289.53 L853.71 290.24 L857.16 293.4 L858.37 294.06 L863.09 295.29 L864.52 295.87 L866.38 297.35 L867 297.53 L868.49 297.5 L869.25 297.83 L870.46 299.06 L871.3 299.27 L873.21 299.36 L873.62 299.99 L873.63 301.02 L874.33 302.27 L875.48 302.67 L878.92 302.99 L880.2 303.6 L880.53 304.21 L880.71 305.66 L881.07 306.37 L883.48 307.73 L884.26 307.94 L885.79 308.16 L886.56 308.48 L887 309.02 L887.04 309.61 L887.25 310.09 L888.14 310.35 L891.59 310.63 L892.06 312.37 L892.33 316.37 L893.07 318.11 L893.46 318.34 L893.95 318.29 L894.45 318.16 L894.89 318.16 L895.23 318.46 L895.19 318.88 L895.04 319.35 L895.07 319.83 L895.39 320.81 L895.52 321.69 L895.79 322.53 L896.58 323.46 L898.3 324.53 L899.69 324.9 L900.9 325.44 L903.28 328.43 L906.4 330.62 L907.68 331.97 L910.32 333.32 L914.85 335.01 L918.55 337.12 L918.64 338.81 L918.69 339.7 L918.11 340.47 L916.87 342.81 L914.44 346.07 L912.96 349.18 L912.3 349.75 L911.53 350.16 L910.81 350.68 L910.29 351.59 L911.74 352.07 L911.86 353.2 L911.43 354.65 L911.25 356.04 L911.78 357.63 L912.62 358.36 L913.78 358.84 L915.27 359.69 L916.54 360.94 L918.38 363.39 L919.82 364.31 L923 364.99 L924.22 365.87 L924.47 367.87 L924.49 369.71 L925.21 370.18 L926.32 370.13 L927.57 370.43 L928.58 371.64 L928.62 373.11 L927.9 374.53 L926.63 375.57 L925.24 376.35 L923.72 377.44 L922.47 378.76 L921.86 380.26 L922.13 381.89 L923.34 381.54 L926.44 379.39 L927.8 379.78 L928.65 381.1 L929.27 382.76 L930.03 384.14 L931.23 385.09 L935.72 386.65 L938.18 386.97 L943.6 386.72 L949.06 388.87 L950.44 389.74 L951.26 390.77 L951.7 394.22 L952.32 395.59 L954.1 396.38 L955.88 396.25 L957.16 395.79 L958.09 395.97 L958.82 397.72 L959.8 399.05 L961.4 399.14 L964.74 398.31 L965.57 399.2 L966.46 401.39 L967.88 402.48 L968.46 403.65 L968.96 404.02 L969.67 404.03 L971.06 403.58 L971.77 403.55 L974.99 404.78 L975.68 405.28 L976.22 406.56 L976.26 407.38 L976.64 407.95 L978.16 408.46 L979.25 409.01 L980.16 410 L980.81 411.2 L981.04 412.39 L981.08 413.09 L981.24 413.54 L981.6 413.88 L982.92 414.78 L982.99 415.19 L982.8 415.69 L982.68 417.03 L982.33 418.14 L982.38 418.66 L982.84 419.39 L983.25 419.47 L983.61 419.29 L983.9 419.22 L984.17 419.13 L984.58 418.89 L985.16 418.84 L985.89 419.34 L986.19 419.99 L986.03 421.35 L986.17 422.1 L983.06 430.52 L982.9 431.7 L983.06 432.66 L983.68 434.62 L984.09 438.41 L984.41 439.57 L986.45 444.42 L987.71 446.7 L989.28 448.65 L993.66 451.6 L995.75 453.37 L997 456.39 L999.22 458 L1000 458.99 L997.97 458.22 L997.24 458.06 L996.18 457.34 L995.33 457.17 L993.86 457.09 L993.11 456.94 L992.45 456.69 L991.37 455.91 L990.38 455.02 L989.32 454.28 L987.98 453.97 L986.33 453.78 L984.56 453.29 L978.26 450.17 L975.11 449.03 L971.84 448.79 L968.3 449.82 L965.56 451.26 L963.26 452.8 L961.11 454.7 L958.84 457.17 L958.47 457.82 L957.74 459.65 L957.32 460.32 L956.44 461.22 L956.01 461.54 L954.65 461.42 L954.58 461.25 L954.32 460.87 L953.9 460.5 L953.37 460.32 L952.88 460.53 L952.08 461.34 L951.51 461.42 L951.02 461.01 L947.86 457.65 L947.33 457.33 L946.23 457.17 L942.58 457.17 L941.78 457.56 L940.73 458.41 L939.96 458.8 L938.93 458.41 L938.28 458.46 L937.83 459.27 L937.35 459.27 L936.74 458.41 L935.43 458.23 L934.01 458.71 L933.11 459.84 L932.59 459.27 L932.05 459.83 L931.07 460.34 L930.06 460.73 L929.41 460.9 L928.09 460.78 L925.99 460.03 L925.03 459.84 L924.88 459.35 L923.44 456.41 L922.48 455.68 L921.33 454.99 L920.24 454.15 L919.51 452.97 L917.89 453.62 L917.37 453.97 L916.65 453.07 L915.36 453 L913.9 453.17 L911.94 452.82 L910.46 452.2 L909.05 451.18 L908.48 449.82 L908.14 449.97 L907.26 450.19 L906.92 450.34 L906.88 449.12 L906.92 448.72 L905.95 449.11 L905.46 448.46 L904.78 446.1 L904.54 446.37 L903.73 447.1 L903.51 446.77 L903.02 446.46 L902.68 446.1 L901.64 446.55 L901.14 445.97 L900.64 445.06 L899.55 444.52 L899.17 445.31 L898.75 445.85 L898.21 446.1 L897.6 446.08 L897.13 446 L896.74 445.86 L896.36 445.62 L896.62 447.58 L896.88 448.2 L896.18 447.88 L895.5 447.79 L894.99 448.11 L894.79 448.98 L894.39 449.04 L893.5 449.03 L892.45 449.21 L891.65 449.82 L890.65 449.11 L889.33 447.57 L888.52 447.1 L887.44 446.92 L886.74 447.16 L886.4 447.91 L886.42 449.25 L885.24 448.73 L883.89 448.91 L882.89 449.79 L882.76 451.35 L881.39 450.19 L880.67 448.78 L879.82 447.73 L878.05 447.67 L877.8 448.15 L877.04 449.05 L876.27 449.46 L875.72 447.93 L875.36 447.39 L875.14 446.67 L875.39 445.62 L875.05 445.77 L874.23 445.96 L873.86 446.1 L873.68 444.22 L872.61 443.73 L871.91 444.04 L872.82 444.52 L872.1 445.55 L871.05 445.63 L869.96 445.16 L869.12 444.52 L867 442.16 L865.93 441.37 L864.23 440.88 L864.12 440.8 L863.78 440.65 L863.22 439.99 L862.79 439.79 L861.85 439.97 L861.33 440.45 L860.74 440.59 L859.65 439.79 L859.65 439.32 L860.04 439.05 L860.27 438.77 L860.47 438.49 L860.7 438.22 L858.98 438.24 L858.36 437.57 L858.11 436.56 L857.51 435.59 L857.04 435.59 L856.02 435.74 L854.64 435.56 L853.8 435.8 L854.42 437.17 L853.51 437.36 L851.63 438.1 L850.95 437.93 L850.13 437.1 L849.91 436.98 L849.75 437.26 L846.31 439.15 L844.65 439.54 L843.3 438.74 L842.5 439.7 L841.38 440.06 L840.84 440.54 L841.82 441.89 L840.25 442.4 L839.29 443.52 L838.82 445.07 L838.69 446.86 L838.18 447.82 L837.21 448.88 L836.56 450.18 L837.07 451.88 L837.61 452.19 L839.12 452.46 L839.69 452.97 L839.74 453.53 L839.32 455.06 L839.21 455.86 L838.97 456.34 L837.88 457.65 L837.64 458.51 L837.57 460.41 L837.26 461.18 L836.55 461.95 L835.38 462.26 L832.02 462.57 L831.32 463.24 L830.42 463.69 L825.52 464 L824.83 463.71 L824.3 463.34 L823.73 463.05 L822.9 463 L822.31 463.77 L821.74 464.29 L821.05 464.53 L820.72 464.85 L819.92 466.39 L819.48 467.95 L818.82 468.13 L816.09 467.34 L813.48 465.9 L810.64 465.09 L809.77 465.1 L809.22 465.38 L807.8 466.4 L807.4 466.62 L805.66 466.98 L802.89 468.71 L801.37 469.3 L800.49 469.22 L799.78 468.9 L799.16 468.7 L798.51 469.01 L797.67 469.9 L796.85 470.59 L796 470.69 L795.09 469.82 L793.82 470.68 L792.35 470.77 L787.27 470.24 L786.5 469.86 L786.74 469.06 L787.76 467.72 L786.7 466.95 L784.45 466.21 L783.53 465.58 L783.11 464.68 L783.12 463.14 L782.44 462.42 L781.47 462.04 L779.54 461.75 L778.78 461.42 L778.31 460.86 L777.65 459.39 L777.21 458.8 L775.73 457.72 L773.7 456.68 L773.22 456.56 L771.59 456.17 L769.83 456.69 L769.55 457.56 L769.59 458.62 L769.37 459.25 L768.32 458.8 L767.9 458.13 L767.15 455.86 L766.74 455.02 L765.68 456.14 L764.56 457.93 L764.05 459.59 L764.88 460.32 L766.78 460.72 L766.92 461.66 L765.96 462.71 L764.61 463.47 L759.1 464.18 L758.33 464.81 L758.19 465.01 L757.29 467.2 L757.04 468.09 L757.03 468.8 L756.89 469.37 L756.24 469.82 L755.76 469.82 L755.24 467.96 L753.98 467.42 L752.44 467.8 L751 468.72 L748.86 471.52 L748.08 471.92 L747.05 471.7 L745.57 470.67 L744.69 470.35 L743.25 470.56 L741.93 471.33 L739.98 472.97 L736.06 474.81 L734.69 475.64 L733.55 474.53 L733.1 474.36 L732.61 474.6 L732.28 475.07 L732.03 475.83 L732 476.69 L732.35 477.46 L732.42 478.45 L730.59 478.44 L727.33 477.74 L726.79 477.89 L725.99 478.57 L725.29 478.79 L724.73 478.73 L723.22 478.32 L722.34 478.22 L720.94 478.67 L718 480.77 L716.3 481.42 L712.85 481.85 L711.31 482.33 L708.35 484.02 L704.82 484.88 L703.18 485.62 L698.54 489.31 L697.19 489.81 L695.4 490.01 L694.12 490.61 L693.26 491.6 L692.72 492.96 L692.58 493.85 L692.59 494.52 L692.52 495.08 L692.15 495.64 L691.53 495.88 L690.11 495.83 L689.53 496.16 L688.21 495.39 L686.89 494.91 L685.5 494.66 L684.02 494.59 L683.75 494.4 L682.91 493.51 L682.73 493.25 L682.39 493.06 L680.7 492.72 L680.07 492.49 L679.07 490.34 L676.95 489.03 L676.69 488.76 L675.76 488.22 L673.85 485.55 L672.7 484.56 L669.27 486.29 L667.39 486.6 L665.7 485.88 L664.88 485.17 L664 484.59 L663.05 484.19 L662.02 484.04 L661.1 483.61 L660.63 482.6 L660.33 481.46 L659.49 479.85 L658.68 477.78 L658.05 477.17 L657.1 477.09 L656.18 477.44 L655.29 477.91 L654.39 478.22 L653.28 478.18 L652.57 477.95 L651.99 477.99 L651.25 478.79 L650.8 479.75 L650.76 480.69 L651.1 481.6 L651.78 482.47 L651.14 483.23 L649.46 484.52 L648.58 486.63 L647.31 486.4 L645.84 485.6 L644.68 485.14 L643.38 485.6 L642.65 486.72 L641.79 489.34 L641.19 490.51 L640.53 491.47 L639.7 492.28 L638.6 492.96 L638.62 493.87 L639.08 495.43 L639.18 496.16 L638.99 496.69 L638.25 498.04 L638.08 498.52 L637.84 498.93 L636.81 499.71 L636.57 500.12 L636.58 501.94 L636.42 502.75 L635.99 503.51 L634.93 504.04 L633.3 504.18 L629.93 504.08 L628.56 504.89 L628.14 506.75 L628.29 508.86 L628.67 510.37 L630 511.94 L630.19 512.52 L629.85 513.36 L629.13 514.19 L628.21 514.84 L627.34 515.09 L626.73 515.81 L624.49 519.91 L624.52 520.77 L624.98 522.38 L625.01 523.06 L624.57 523.82 L623.17 525.04 L622.87 525.39 L622.28 526.58 L620.92 527.91 L618.21 529.82 L617.76 530.01 L616.25 530.63 L615.55 530.92 L606.4 531.39 L599.05 529.73 L597.32 528.63 L595.57 527.97 L594.79 527.49 L593.36 526.02 L592.97 525.68 L591.48 525.16 L587.6 524.41 L585.98 523.65 L583.85 522.66 L583.28 522.48 L582.37 522.51 L581.99 522.61 L581.66 522.79 L580.93 523.06 L579.33 523.34 L574.87 523.06 L573.04 522.72 L571.83 521.94 L570.77 521.05 L569.37 520.39 L568.69 520.29 L566.48 520.39 L565.63 520.27 L565.25 519.98 L565.03 519.64 L564.67 519.34 L563.05 518.74 L561.95 518.6 L559.34 518.81 L556.44 518.56 L555.15 518.68 L547.79 522.48 L547 522.13 L545.49 522.12 L544.66 521.96 L544.09 521.59 L543.52 521.06 L542.81 520.59 L541.82 520.39 L538.5 520.53 L537.03 520.41 L535.28 519.91 L534.01 519.34 L530.34 516.99 L529.97 516.45 L529.46 515.91 L528.65 515.67 L527.66 515.73 L526.94 515.92 L526.36 516.23 L525.77 516.67 L525.31 517.17 L524.89 517.8 L524.37 518.4 L523.68 518.81 L522.72 518.88 L522.12 518.49 L521.56 518.01 L520.78 517.76 L519.25 517.68 L518.68 517.45 L518.06 516.18 L517.14 515.72 L515.27 515.09 L514.49 514.14 L513.02 511.45 L512.39 510.9 L511.13 510.66 L503.77 507.96 L496.72 506.45 L493.72 506.65 L492.68 507.2 L491.78 507.92 L490.62 508.54 L488.78 508.8 L482.69 508.8 L476.16 509.8 L474.41 509.4 L472.85 508.37 L464.95 500.96 L464.61 500.64 L463.83 498.98 L464.21 497.51 L464.98 496.22 L465.43 495.11 L464.93 493.53 L463.69 491.79 L462.18 490.39 L460.89 489.81 L460.26 489.25 L458.59 485.62 L457.08 483.24 L455.93 481.97 L454.67 481.42 L453.08 481.22 L449.48 480.03 L448.09 479.32 L446.6 478.08 L443.12 473.78 L441.65 472.84 L436.58 470.87 L434.15 469.21 L432.34 467.66 L430.27 466.39 L423.48 464.96 L421.6 464.27 L420.8 463.24 L420.43 462.04 L419.1 459.79 L418.49 458.76 L417.6 457.7 L416.53 456.97 L413.05 455.34 L410.72 454.86 L409.18 454.14 L408.48 453.97 L399.75 453.79 L396.93 452.5 L395.38 452.79 L392.97 453.97 L391.39 454.14 L386.41 453.97 L384.69 454.4 L383.55 455.43 L381.94 457.7 L375.1 461.95 L371.51 463.6 L370.96 464.26 L369.8 466.27 L368.35 468.25 L367.07 468.55 L363.55 468.51 L362.26 469.01 L361.53 469.7 L359.74 471.4 L358.65 472.79 L357.78 474.6 L357.11 477 L356.74 477.74 L356.1 478.42 L355.42 478.92 L354.87 479.55 L354.24 482.5 L353.21 483.6 L351.86 484.47 L350.47 485.62 L347.86 490.07 L347.52 490.35 L346.04 490.89 L345.71 491.17 L345.54 491.29 L344.66 493.54 L342.05 495.64 L340.2 498.26 L336.27 507.98 L334.46 510.5 L331.99 512.29 L328.41 513.52 L326.86 513.83 L325.31 513.93 L323.81 513.64 L322.39 512.76 L320.91 512.64 L319.41 514.07 L318.27 516.09 L317.9 517.76 L318.51 519.07 L320.61 520.87 L321.08 521.7 L321.48 523.16 L324.22 528.25 L325.22 531.26 L326.28 537.74 L326.19 542.62 L325.9 544.48 L325.36 546.21 L323.76 548.84 L323.61 550.56 L323.64 551.52 L323.7 554.04 L322.18 563.56 L324.74 581.43 L321.37 581.39 L320.44 580.46 L319.22 577.63 L316.08 572.58 L314.83 571.1 L312.92 569.52 L311.92 569.57 L311.07 570.6 L309.67 571.97 L308.97 572.26 L307.67 572.19 L306.8 572.3 L306.46 572.62 L306.15 573.67 L305.85 573.95 L305.32 573.94 L304.45 573.5 L303.99 573.41 L297.89 573.95 L297.04 573.92 L296.35 573.73 L295.79 573.91 L295.33 574.97 L294.79 577.28 L294.49 578.03 L293.61 579.35 L292.27 580.63 L290.66 581.39 L289 581.17 L287.99 580.05 L287.02 576.98 L285.67 575.67 L283.04 574.79 L280.36 574.81 L277.76 575.52 L275.36 576.68 L274.41 576.78 L273.68 576.5 L270.97 574.79 L270.57 574.62 L270.13 574.95 L267.2 576.38 L265.75 576.79 L264.66 576.58 L264.14 575.37 L263.77 573.85 L263.05 572.44 L262.07 571.32 L260.91 570.64 L260.24 570.58 L258.76 570.88 L258.06 570.87 L257.57 570.59 L256.83 569.74 L256.32 569.51 L255.77 569.54 L254.88 569.87 L254.47 569.95 L248.2 569.96 L245.1 569.51 L242.32 568.29 L239.48 565.9 L239.13 565.71 L238.07 565.59 L237.69 565.29 L237.39 564.28 L237.06 563.94 L235.3 563.67 L234.06 564.21 L232.9 565.07 L231.9 565.58 L228.93 567.11 L227.4 569.03 L225.76 570.56 L222.98 570.76 L221 570.1 L220.02 569.99 L218.91 570.4 L217.85 571.28 L217.23 572.1 L216.54 572.8 L215.26 573.39 L214.16 573.55 L211.08 573.45 L210.03 573.74 L207.97 574.55 L206.92 574.71 L204.85 574.58 L204.16 574.75 L202.89 575.35 L202.36 575.7 L201.5 576.45 L200.85 576.73 L200.39 576.76 L199.36 576.63 L198.76 576.74 L197.74 577.09 L197.13 576.71 L196.56 576.06 L195.72 575.58 L194.97 575.52 L192.85 575.77 L192.15 575.64 L190.74 575.12 L190.02 574.93 L188.9 575.05 L188.8 575.67 L189.01 576.48 L188.86 577.14 L187.36 577.9 L185.74 577.99 L179.43 576.42 L177.89 576.3 L176.12 576.42 L172.53 577.46 L169.39 579.53 L167.03 582.39 L165.8 585.81 L165.12 592.23 L163.21 597.06 L163.16 598.94 L162.72 600.59 L160.09 604.26 L159.2 606.02 L159.15 607.91 L159.76 609.54 L160.56 611.11 L161.14 612.82 L160.63 615.57 L157.67 621.27 L157.89 624.66 L158.82 626.11 L159.93 627.35 L160.6 628.73 L160.25 630.58 L158.06 635.23 L156.29 639 L155.23 641.25 L151.97 648.17 L148.49 655.56 L146.03 660.81 L142.54 668.21 L138.61 676.57 L138.32 676.34 L137.31 675.77 L137.43 675.03 L137.86 674.05 L137.83 673.41 L137.56 673.15 L136.49 672.48 L136.26 672.1 L136.16 670.57 L136.02 669.87 L135.74 669.18 L135.21 668.39 L133.76 666.73 L132.8 664.84 L132.2 663.23 L132.08 662.61 L132.08 659.75 L131.74 658.35 L130.77 656.56 L130.46 655.56 L130.53 653.86 L131.73 651.23 L132.08 649.76 L131.85 648.19 L130.68 645.52 L130.46 643.95 L130.72 643.09 L131.31 641.96 L132.01 640.92 L131.13 640.73 L130.15 640.65 L129.12 640.81 L128.34 640.79 L128.09 640.12 L128.14 639.05 L127.85 636.44 L128.13 634.42 L130.2 632.35 L130.83 630.54 L130.62 628.51 L129.86 626.79 L128.92 625.19 L127.79 622.64 L126.16 620.28 L125.55 619.63 L124.75 619.29 L124.01 619.25 L123.19 619.44 L122.16 619.81 L121.84 619.48 L121.57 619.11 L121.36 618.7 L120.34 614.84 L119.72 613.34 L118.44 611.75 L116.95 610.51 L115.71 610.08 L112.42 610.43 L112.12 610.32 L111.3 609.78 L110.84 609.69 L110.45 609.84 L109.57 610.34 L109.26 610.43 L108.3 610.28 L107.7 610.1 L107.12 609.74 L101.38 603.64 L94.19 596.02 L86.62 587.98 L78.65 579.51 L72.2 572.67 L67.03 567.18 L66.29 566.39 L60.06 559.78 L53.44 550.04 L48.93 539.27 L50.24 539.27 L52.7 539.89 L53.96 540.06 L55.46 539.74 L58.46 538.32 L60.15 537.91 L61.65 537.26 L61.48 536.43 L60.55 535.79 L59.38 535.59 L58.31 535.59 L57.86 535.09 L57.61 534.01 L57.12 532.94 L55.96 532.49 L54.8 532.64 L53.92 531.92 L53.41 529.86 L53.29 525.49 L52.52 520.85 L51.83 518.74 L50.65 516.57 L48 513.29 L47.5 512.26 L46.98 510.3 L46.47 509.53 L45.56 508.97 L42.22 507.79 L30.06 499.4 L27.31 496.72 L25.28 493.49 L24.28 489.85 L23.75 484.02 L23.25 482.72 L23.33 482.21 L23.66 481.37 L24.01 479.48 L24.07 478.7 L22.96 471.44 L22.55 470.51 L22.11 469.75 L21.82 468.98 L22 466.92 L21.65 466.19 L21.16 465.53 L20.85 464.66 L20.9 463.55 L20.92 463.22 L21.46 460.37 L21.12 457.4 L21.14 453.52 L20.81 451.78 L20.24 450.01 L19.4 448.41 L18.17 447.2 L16.57 446.41 L13.27 445.31 L11.68 444.29 L10.47 442.92 L10.16 442.08 L10.78 441.89 L11.67 441.08 L12.34 439.78 L12.77 438.41 L12.92 437.41 L13.29 437.09 L14.06 435.9 L14.71 434.62 L14.73 434.02 L15.75 433.66 L16.09 432.78 L16.01 430.58 L16.26 429.3 L17.38 427.13 L17.63 426.33 L17.74 424.01 L17.62 423.05 L17.11 421.84 L16.03 420.02 L15.64 418.97 L15.54 417.63 L15.75 416.43 L17.11 412.95 L18.16 408.75 L18.68 407.64 L18.14 406.08 L17.63 397.87 L16.52 396.45 L16.14 394.9 L15.13 393.37 L14.19 393.31 L12.11 394.59 L10.98 394.72 L8.57 394.44 L7.27 394.43 L6.01 393.58 L5.43 392.37 L5.1 391.02 L4.57 389.78 L3.45 388.59 L2.32 387.68 L1.44 386.62 L0.8 385.99 L0.17 385.08 L0 384.46 L0.23 383.94 L0.8 383.31 L1.16 383.24 L1.96 383.85 L2.37 383.84 L2.7 383.51 L2.97 382.86 L3.21 382.53 L3.55 381.78 L3.48 381.38 L3.41 380.95 L3.32 380.69 L4.34 379.75 L6.11 378.03 L7.27 377.68 L9.48 375.5 L10.63 374.06 L11.31 372.83 L14.49 372.85 L25.41 367.6 L26.63 366.63 L29.49 362.94 L30.27 361.52 L30.44 360.67 L30.42 359.83 L30.09 358.02 L30.25 357.14 L32.18 354.51 L40.95 334.56 L41.76 332.72 L42.81 331.53 L44.05 330.69 L48.65 328.38 L49.59 327.59 L50.17 326.51 L51.46 323 L53.09 319.78 L55.61 313.09 L56.81 308.32 L57.37 306.87 L58.2 305.6 L58.9 305.14 L60.65 304.32 L61.3 303.53 L61.51 302.74 L61.14 298.26 L61.23 297.53 L61.59 296.68 L62.65 294.91 L64.09 291.26 L65.83 289.78 L66.96 288.81 L72.85 285.49 L76.46 282.7 L76.75 282.25 L77.38 280.97 L77.83 280.54 L78.32 280.44 L79.76 280.35 L80.09 280.28 L80.26 279.26 L78.77 277.87 L79.07 276.66 L83.2 271.05 L83.79 269.96 L86.43 270.81 L89.22 270.99 L94.8 270.23 L98.15 270.5 L102.09 274.18 L105.03 275.19 L107.75 275 L117.82 272.67 L119.19 272.12 L121.68 270.58 L122.81 269.49 L124.48 267.1 L125.56 265.97 L126.84 265.27 L128.54 264.71 L133.41 264.07 L136 263.17 L137.76 263.2 L139.42 262.98 L140.95 262.05 L143.6 260.02 L145.2 259.39 L151.95 258.43 L152.88 257.8 L153.2 256.71 L153.19 251.46 L153.59 249.84 L154.75 248.87 L155.58 248.89 L156.27 249.23 L157.05 249.47 L158.08 249.18 L158.57 248.6 L159.5 246.57 L159.99 245.8 L161.21 244.76 L162.55 244.06 L165.57 243.16 L165.69 243.8 L165.73 244.5 L165.69 245.21 L165.28 247.56 L165.62 248.98 L166.45 250.14 L167.7 251.06 L168.5 251.39 L169.23 251.58 L169.91 251.88 L170.51 252.57 L170.9 253.65 L170.74 254.46 L170.41 255.23 L170.26 256.18 L170.59 257.88 L171.39 258.72 L174.35 259.59 L176.16 260.49 L177.92 261.89 L180.74 265.07 L182.42 267.88 L183.48 268.58 L185.25 268.38 L185.81 268.07 L185.98 267.93 L187.64 266.54 L187.86 266.55 L188.69 266.67 L188.95 266.54 L189.1 265.93 L188.84 265.56 L188.51 265.21 L188.44 264.68 L189.03 263.14 L189.84 262.14 L191.01 261.49 L193.99 260.62 L197.29 260.11 L198.76 260.26 L199.3 259.33 L199.96 258.87 L200.78 258.8 L203.13 259.2 L203.37 258.85 L203.29 258.19 L203.64 257.48 L204.69 256.57 L206.21 257.08 L207.06 257.55 L207.47 257.98 L207.96 258.02 L209.06 257.32 L210.53 255.91 L213.21 252.63 L214.6 251.34 L215.19 251.26 L215.82 251.37 L216.32 251.02 L216.58 249.59 L217.05 248.71 L218.06 247.73 L218.12 247.67 L219.36 246.8 L229.7 243.12 L231.25 242.15 L232.25 240.97 L235.87 242.07 L236.79 241.47 L237.47 239.72 L238.73 238.81 L240.27 238.44 L243.03 238.15 L244.64 237.7 L246.11 236.94 L247.69 234.75 L249.17 234.26 L250.84 234.16 L252.22 234.25 L262.75 236.03 L265.93 236.16 L268.93 235.62 L275.01 233.32 L282.15 231.62 L315.69 230.73 L321.89 229.4 L324.09 226.13 L324.14 222.37 L325.67 219.36 L328.28 217.05 L331.53 215.41 L336.03 213.86 L337.36 213.19 L339.04 211.71 L342.24 206.8 L344.74 204.39 L345.8 203.02 L346.49 201.14 L347.27 199.66 L354.93 190.87 L358.05 184.67 L358.89 184.18 L359.61 183.77 L360.36 182.56 L362.87 180.84 L361.31 179.06 L358.99 177.31 L357.78 176.6 L357.09 175.36 L347.93 171.42 L347.02 170.75 L346.65 169.73 L346.44 168.41 L345.92 167.68 L344.66 168.37 L343.38 167.32 L343.37 166.18 L345.14 163.56 L345.8 163.87 L346.51 163.85 L347.06 163.49 L347.28 162.79 L347.45 161.99 L347.89 161.72 L348.49 161.59 L349.68 160.92 L351.2 160.44 L351.51 160.14 L351.71 159.57 L352.19 159.02 L353.32 158 L355.04 156.79 L358 155.32 L361.06 154.46 L363.06 155.09 L363.59 155.09 L364.24 154.97 L366.29 155.47 L366.73 155.35 L367.12 154.46 L368.07 154.08 L371.2 153.92 L372.77 153.48 L373.52 153.45 L374.44 153.94 L375.25 154.65 L375.99 154.91 L376.71 154.03 L377.58 154.63 L378.89 155.14 L380.34 155.49 L381.65 155.62 L382.67 155.4 L385.6 154.29 L386.31 154.65 L392.17 154.56 L392.56 154.69 L392.87 154.91 L393.29 154.96 L394.02 154.56 L395.78 154.61 L398.03 153.68 L400.36 153.19 L402.39 154.56 L403.64 154 L406.98 154.05 L407.67 153.74 L408.05 153.39 L409.9 152.59 L410.57 152.44 L411.45 152.39 L413.47 151.86 L415.07 151.68 L421.49 152.05 L422.47 151.63 L423.41 150.27 L424.5 150.79 L424.76 150.73 L425.63 150.54 L427.59 149.22 L428.16 149.12 L428.85 149.19 L429.43 149.08 L429.68 148.44 L429.74 148 L429.93 147.55 L430.19 147.23 L430.49 147.1 L431.07 147.4 L431.34 148.58 L431.83 148.68 L432.29 148.36 L432.25 147.97 L432.13 147.53 L432.35 147.1 L434.6 145.22 L435.22 144.93 L435.86 145.04 L436.9 145.47 L437.57 145.51 L437.66 145.24 L437.59 144.69 L437.7 144.16 L438.36 143.92 L438.94 144.34 L439.59 145.27 L440.5 146.2 L441.8 146.61 L442.95 146.27 L445.13 144.75 L446.25 144.4 L447.04 144.63 L447.92 145.21 L449.65 146.61 L451.17 146.28 L457.49 146.61 L458.94 146.33 L459.41 146.06 L460.83 145.02 L461.56 144.63 L462.37 144.53 L463.3 144.93 L464.85 143.29 L465.78 141.36 L466.87 139.77 L468.82 139.1 L469.26 138.28 L468.47 136.45 L467.97 134.63 L469.35 133.8 L470.29 133.64 L470.84 133.17 L471.12 132.43 L471.19 131.44 L471.47 130.69 L472.16 130.8 L473.8 131.73 L473.9 131.66 L475.33 131.74 L475.38 131.73 L476.67 132.15 L477.2 132.21 L481.13 132.21 L480.13 129.03 L483.26 127.44 L486.72 126.38 L487.45 125.8 L488.02 126.38 L488.69 125.65 L489.03 124.76 L489.45 124 L490.35 123.68 L490.66 123.52 L491.11 122.79 L491.4 122.62 L491.76 122.79 L492.26 123.12 L492.31 123.14 L492.8 123.34 L493.25 123.2 L493.75 121.71 L493.87 119.75 L494.42 118.05 L496.13 117.32 L496.93 116.64 L499.88 113.4 L500.53 112.26 L500.83 111.43 L501.53 110.85 L503.19 109.89 L503.54 109.22 L503.68 108.53 L504.09 108.25 L505.27 108.78 L505.17 107.77 L505.05 107.52 L504.71 107.19 L504.71 106.66 L505.8 106.3 L506.26 105.32 L506.33 102.69 L506.57 101.5 L507.66 99.4 L507.9 97.91 L508.09 97.57 L508.53 97.16 L509.04 96.79 L509.46 96.58 L509.56 96.47 L509.64 96.27 L509.84 96.09 L510.27 96 L510.62 96.18 L511.33 96.93 L511.61 97.06 L512.17 96.82 L512.72 96.43 L513.7 95.52 L514 95.44 L514.35 95.53 L514.63 95.55 L514.74 95.23 L514.68 94.16 L514.74 93.88 L515.89 91.05 L516.68 89.68 L520.91 86.91 L521.54 86.74 L521.77 85.52 L522.32 84.44 L526.25 79.86 L527.35 78.97 L528.41 79.64 L531.54 80.87 L532.57 81.09 L535.24 80.07 L537.74 77.54 L539.76 74.39 L543.75 65.19 L545.88 62.37 L548.31 60.86 L549.04 60.96 L549.98 61.28 L550.94 61.46 L551.74 61.12 L552.03 61.28 L554.47 60.51 L554.88 60.28 L556.84 59.79 L557.81 58.58 L558.42 57.03 L559.34 55.49 L559.99 55.22 L560.87 55.13 L561.63 54.89 L561.95 54.16 L561.88 53.52 L561.55 52.37 L561.48 51.53 L561.76 49.89 L564.1 45.92 L563.53 45.36 L563.47 44.83 L563.59 44.31 L563.58 43.8 L563.1 43.1 L561.76 41.54 L561.48 40.82 L561.31 39.54 L560.61 36.56 L560.44 34.97 L560.61 33.46 L561.31 31.15 L561.48 29.62 L561.92 28.4 L562.98 27.66 L564.28 27.31 L565.43 27.21 L565.87 26.96 L566.22 26.41 L566.69 25.86 L567.5 25.61 L568.12 25.52 L569.58 25.12 L570.37 25.03 L571.89 25.79 L572.72 25.96 L573.09 25.32 L573.37 25.21 L575.13 23.53 L577.47 21.9 L578.81 21.26 L583.47 20.09 L584.29 19.21 L583.55 17.58 L584.04 16.5 L584.57 14.9 L585.43 13.43 L586.89 12.78 L593.32 13.44 L594.53 13.27 L596.68 14.4 L597.71 12.76 L598.54 10.31 L600.74 8.49 L601.57 7.41 L602.55 6.67 L603.73 7.17 L604.35 7.2 L605.18 6.62 L606.61 5.33 L607.59 4.8 L609.17 4.14 L610.84 3.68 L611.11 3.64 L613.19 3.3 L614.35 2.95 L615.29 2.35 L616.7 0.72 L617.42 0.2 L618.44 0 L619.66 0.22 L620.76 0.6 L621.69 0.68 L622.39 0 L624.13 1.58 L625.74 1.71 L627.38 1.23 L629.2 1.02 L629.83 1.22 L631.29 1.93 L632.07 2.08 L634.74 2.01 L635.47 2.08 L638.32 2.82 L640.25 4.45 L644.91 5.96 Z "/>
</g>
</svg>
