<svg xmlns="http://www.w3.org/2000/svg" viewBox="0 0 1000 1580.51">
<g fill="#ccc" stroke="#333" stroke-width="0.5" stroke-linejoin="round">
<path fill-rule="evenodd" d="M58.44 1037.92 L36.73 1007.39 L15.01 976.83 L14.33 973.71 L13.65 970.6 L12.97 967.48 L12.28 964.37 L11.61 961.26 L10.93 958.15 L10.25 955.02 L9.56 951.91 L8.89 948.79 L8.21 945.67 L7.52 942.57 L6.85 939.44 L6.17 936.33 L5.48 933.21 L4.8 930.09 L4.13 926.97 L3.14 922.47 L1.81 917.49 L0 910.68 L0.03 904.91 L3.14 900.54 L5.56 899.33 L8.99 897.9 L12.83 897.58 L15.08 897.14 L16.62 896.84 L19.81 894.15 L20.54 892.37 L20.65 890.55 L20.04 886.8 L19.73 886.22 L18.71 885.29 L18.56 884.79 L18.9 884.28 L20.78 882.96 L23.81 879.54 L24.76 878.81 L26.66 878.37 L28.47 878.21 L29.92 877.44 L30.76 875.14 L30.64 873.14 L29.31 868.96 L28.93 866.95 L29.04 864.86 L29.55 862.98 L30.97 859.93 L34.07 853.24 L36.52 847.93 L39.28 844.05 L42.11 840.06 L44.94 836.04 L47.78 832.04 L50.61 828.03 L53.44 824.03 L56.28 820.02 L59.1 816.01 L61.94 812 L64.77 808 L67.61 803.98 L70.43 799.97 L73.28 795.96 L76.1 791.95 L78.93 787.93 L81.77 783.92 L84.6 779.9 L87.31 776.06 L92.49 770.47 L98.05 764.46 L101.72 760.48 L107.04 754.73 L112.38 748.96 L117.71 743.2 L123.03 737.44 L128.35 731.67 L133.67 725.9 L139 720.13 L144.32 714.36 L149.65 708.59 L154.97 702.82 L160.29 697.04 L165.62 691.26 L170.95 685.48 L176.27 679.71 L181.6 673.91 L186.92 668.14 L190.15 664.63 L191.39 662.8 L191.67 661.79 L192 660.62 L192.21 658.1 L192.6 653.57 L192.98 649.05 L193.35 644.52 L193.74 639.99 L194.12 635.46 L194.5 630.93 L194.88 626.39 L195.27 621.85 L195.66 617.32 L196.04 612.78 L196.43 608.25 L196.81 603.7 L197.19 599.16 L197.57 594.62 L197.96 590.08 L198.33 585.53 L198.71 580.98 L199.1 576.43 L199.49 571.89 L199.87 567.33 L200.25 562.79 L200.63 558.24 L201.02 553.68 L201.09 552.82 L201.4 549.13 L201.78 544.58 L202.16 540.02 L202.56 535.46 L202.94 530.91 L203.31 526.35 L203.69 521.79 L204.08 517.22 L204.46 512.66 L204.84 508.1 L205.22 503.53 L205.61 498.97 L206 494.39 L206.38 489.83 L206.77 485.26 L207.15 480.69 L207.53 476.11 L207.91 471.53 L208.29 466.96 L208.67 462.38 L209.05 457.81 L209.44 453.23 L209.83 448.65 L210.21 444.07 L210.59 439.49 L210.97 434.9 L211.36 430.31 L211.74 425.73 L212.12 421.14 L212.5 416.55 L212.9 411.96 L213.27 407.37 L213.65 402.78 L214.03 398.18 L214.42 393.59 L214.8 388.99 L215.18 384.4 L215.56 379.79 L215.96 375.19 L216.34 370.58 L216.72 365.99 L217.07 361.78 L220.03 353.85 L221.46 351.22 L225.26 344.26 L229.05 337.29 L232.86 330.31 L236.67 323.33 L238.61 319.76 L239.31 318.03 L239.1 316.36 L237.76 314.15 L235.51 311.65 L229.98 305.48 L224.45 299.31 L218.92 293.14 L213.39 286.96 L210.75 284.02 L203.03 277.84 L201.33 275.9 L199.99 273.69 L198.86 271.12 L198.08 266.54 L198.87 261.85 L201.21 257.92 L205.04 255.71 L203.47 253.26 L201.89 250.76 L200.29 248.28 L198.7 245.79 L197.11 243.3 L195.52 240.8 L193.92 238.31 L192.34 235.82 L190.75 233.33 L189.16 230.84 L187.58 228.33 L185.98 225.84 L184.39 223.35 L182.8 220.85 L181.21 218.36 L179.61 215.87 L178.03 213.37 L175.77 209.84 L172.51 205.83 L170.69 204.54 L166.21 202.17 L164.72 200.67 L164.33 199.03 L164.3 196.36 L164.27 194.35 L164.18 189.03 L164.05 181.5 L163.91 172.88 L163.78 164.24 L163.65 156.7 L163.57 151.37 L163.53 149.35 L162.82 145.23 L162.04 140.88 L161.27 136.52 L160.12 130.1 L158.98 123.68 L157.84 117.25 L156.69 110.82 L155.56 104.39 L154.41 97.95 L153.28 91.52 L152.13 85.08 L150.99 78.63 L149.86 72.19 L148.71 65.74 L147.58 59.29 L146.44 52.83 L145.3 46.38 L146.96 45.54 L152.45 42.84 L157.92 40.15 L163.37 37.45 L168.86 34.76 L174.33 32.06 L179.81 29.37 L185.28 26.66 L190.75 23.96 L196.23 21.26 L201.71 18.56 L207.19 15.86 L212.66 13.15 L218.13 10.45 L223.6 7.75 L229.07 5.05 L234.55 2.35 L238.77 0.26 L240.71 0 L249.35 4.66 L261.08 10.96 L272.8 17.27 L284.53 23.57 L296.25 29.87 L307.98 36.17 L319.7 42.46 L331.43 48.75 L343.15 55.03 L354.88 61.32 L366.6 67.59 L378.32 73.87 L390.05 80.15 L401.77 86.42 L413.5 92.7 L425.22 98.96 L436.94 105.22 L448.67 111.48 L460.4 117.74 L472.11 124 L483.85 130.25 L495.57 136.51 L507.29 142.75 L519.01 149 L530.75 155.24 L542.46 161.48 L544.52 162.57 L554.18 167.71 L565.91 173.95 L577.63 180.19 L589.36 186.42 L601.08 192.64 L612.81 198.87 L624.53 205.08 L636.26 211.31 L647.98 217.52 L659.71 223.73 L671.43 229.95 L683.16 236.16 L694.88 242.36 L706.6 248.57 L718.33 254.77 L730.04 260.96 L741.78 267.16 L753.5 273.35 L765.22 279.54 L776.94 285.74 L788.68 291.92 L800.39 298.1 L812.12 304.28 L823.85 310.46 L835.57 316.63 L847.29 322.8 L859.02 328.98 L870.74 335.15 L882.46 341.32 L894.19 347.48 L905.91 353.64 L917.64 359.8 L929.36 365.96 L941.09 372.11 L952.81 378.26 L964.54 384.42 L976.26 390.56 L987.98 396.7 L999.71 402.85 L999.73 426.22 L999.74 449.56 L999.76 472.87 L999.78 496.14 L999.79 519.38 L999.81 542.59 L999.84 565.77 L999.85 588.92 L999.87 612.05 L999.89 635.14 L999.91 658.2 L999.93 681.23 L999.94 704.24 L999.96 727.22 L999.99 750.17 L1000 773.1 L1000 778.79 L1000 778.87 L998.88 781.83 L996.31 781.72 L985.26 777.89 L973.72 776.13 L962.82 776.12 L956.59 777.49 L944.13 782.1 L936.99 782.79 L922.39 779.68 L917.88 780.24 L915.54 780.53 L913.06 782.26 L906.99 789.68 L899.5 794.36 L897.71 796.58 L897.02 799.66 L897.72 802.49 L899.31 805.04 L901.34 807.25 L903.38 810.04 L904.32 813.11 L904.51 816.4 L903.3 827.84 L902.57 830.03 L898.33 837.89 L897.59 838.79 L894.37 840.06 L892.21 841.25 L890.33 842.81 L881.78 851.84 L880.67 853.88 L880.17 856.27 L880.08 858.11 L879.54 859.74 L877.66 861.5 L874.18 863.86 L873.42 865.38 L873.42 867.91 L874.19 873.3 L874.72 875.02 L876.16 878.16 L876.32 879.03 L875.86 880.4 L874.89 881.11 L855.82 886.25 L851.77 888.23 L847.93 891.17 L846.15 894.66 L848.31 898.29 L851.24 900.49 L851.97 901.83 L853.32 912.37 L853.63 912.95 L854.1 913.47 L854.45 914.05 L854.35 914.77 L853.87 915.26 L852.58 915.87 L852.17 916.28 L851.33 917.95 L851.23 918.72 L851.5 919.88 L852.37 922 L853.5 923.44 L855.08 924.3 L860.44 925.24 L862.13 926.31 L862.98 928.21 L863.63 931.36 L863.5 934.23 L862.09 935.9 L859.88 936.78 L857.34 937.28 L855.18 938.49 L851.66 941.82 L849.83 943.08 L834.76 950.3 L832.02 952.14 L829.73 954.47 L828.8 955.67 L821.07 965.56 L818.76 969.38 L818.64 970.26 L820.86 972.37 L822.36 974.31 L822.68 975.74 L822.49 977.26 L822.49 979.44 L824.18 983.22 L830.23 988.9 L831.63 992.69 L831.69 998.3 L832.11 1000.18 L833.34 1002.51 L836.7 1006.6 L837.84 1008.83 L837.04 1012.9 L833.69 1017.34 L824.93 1026.66 L823.36 1027.76 L813.16 1031.85 L811.49 1032.79 L808.23 1035.93 L805.48 1039.75 L797.68 1054.7 L795.3 1061.96 L793.78 1065 L793.55 1065.61 L793.96 1066.72 L796.54 1069.96 L800.26 1077.03 L802.23 1078.96 L805.56 1080.61 L809.48 1081.36 L813.51 1081.4 L817.22 1080.88 L821.69 1079.55 L825.32 1077.52 L828.37 1074.58 L831.09 1070.51 L842.98 1078.48 L852.69 1082.13 L853.95 1083.38 L849.22 1094.56 L847.03 1097.76 L847.23 1098.95 L850.36 1103.92 L857.34 1125.59 L857.59 1126.75 L857.65 1127.94 L857.57 1129.12 L855.12 1139.79 L855.73 1139.54 L856.3 1139.24 L857.34 1138.45 L863.51 1136.49 L867.22 1135.82 L868.48 1136.6 L869.29 1135.2 L869.77 1135.68 L869.88 1137.19 L869.59 1138.9 L867.92 1143.82 L862.62 1173.69 L863.06 1178.33 L864.96 1182.89 L867.87 1186.99 L871.26 1190.27 L874.53 1191.89 L882.17 1194.5 L884.61 1196.8 L884.88 1197.68 L884.91 1200.6 L885.85 1201.01 L894.88 1200.05 L897.11 1200.1 L898.47 1201.28 L899.76 1208.15 L902.16 1215.33 L902.24 1216.6 L902.43 1219.41 L902.01 1221.13 L900.41 1224.53 L899.82 1226.27 L899.5 1228.18 L899.46 1230.14 L899.19 1231.19 L897.69 1232.85 L897.09 1233.82 L893.37 1247.42 L888.14 1246.91 L882.37 1245.04 L879.97 1243.03 L876.44 1242.11 L875.54 1242.02 L872.23 1242.11 L871.27 1241.92 L869.46 1241.04 L868.67 1240.79 L866.41 1241.05 L864.39 1241.64 L862.39 1241.49 L860.23 1239.53 L859.37 1240.37 L858.22 1240.27 L856.85 1239.81 L855.35 1239.53 L854.08 1239.78 L853.18 1240.43 L851.43 1242.44 L850.28 1243.18 L848.83 1243.62 L846.26 1244.04 L845.92 1244.09 L843.86 1244.66 L841.9 1245.47 L840.68 1246.13 L838.91 1247.73 L837.89 1248.45 L837.12 1248.41 L835.66 1247.8 L834.43 1248.71 L833.41 1250.05 L830.69 1252.31 L829.66 1255.34 L828.38 1257.37 L825.71 1255.97 L824.21 1256.18 L816.25 1255.37 L814.44 1256.16 L813.38 1257.99 L812.72 1259.98 L812.1 1261.31 L813.03 1263.33 L812.01 1264.42 L806.24 1265.87 L804.58 1266.66 L801.68 1268.68 L799.5 1270.77 L799.15 1270.9 L798.69 1271.7 L797.66 1271.49 L795.78 1270.54 L794.8 1270.65 L792.99 1271.15 L792.22 1271.26 L791.22 1271.57 L790.64 1272.25 L790.21 1272.93 L789.66 1273.24 L788.24 1273.36 L786.63 1273.8 L785.31 1274.72 L784.76 1276.23 L784.56 1278.13 L783.68 1280.98 L783.48 1282.86 L783.68 1284.82 L784.56 1288.52 L784.76 1290.11 L785.11 1291 L786.77 1292.93 L787.36 1293.79 L787.38 1294.44 L787.23 1295.08 L787.3 1295.74 L788.01 1296.43 L785.11 1301.35 L784.76 1303.38 L784.85 1304.42 L785.26 1305.85 L785.35 1306.64 L784.95 1307.54 L784.01 1307.84 L782.92 1307.95 L782.11 1308.29 L780.98 1310.19 L780.21 1312.12 L779.01 1313.62 L776.58 1314.22 L776.07 1314.5 L773.05 1315.46 L772.7 1315.26 L771.71 1315.68 L770.51 1315.47 L769.35 1315.06 L768.45 1314.93 L765.44 1316.81 L762.8 1320.3 L757.85 1331.71 L755.34 1335.61 L752.25 1338.74 L748.95 1340.01 L747.67 1339.74 L743.79 1338.21 L742.47 1337.38 L741.11 1338.48 L736.24 1344.16 L735.56 1345.49 L735.27 1347.01 L734.5 1347.22 L729.25 1350.66 L728.28 1352.34 L726.85 1355.86 L726.78 1356.2 L726.85 1357.53 L726.71 1357.92 L726.36 1357.9 L725.93 1357.79 L725.56 1357.89 L724.34 1359.02 L723.67 1359.5 L722.97 1359.8 L722.63 1359.64 L721.74 1358.7 L721.31 1358.48 L720.77 1358.59 L720.53 1358.81 L720.43 1359.06 L720.31 1359.2 L719.79 1359.46 L719.15 1359.92 L718.61 1360.43 L718.37 1360.85 L718.07 1362.69 L716.73 1365.3 L716.43 1366.76 L716.35 1370.03 L715.77 1371.25 L714.42 1371.7 L714.42 1372.35 L714.84 1372.76 L714.99 1373.06 L715.12 1374.32 L713.65 1373.66 L713.14 1374.01 L712.97 1374.86 L712.54 1375.7 L710.48 1376.88 L709.61 1377.6 L709.24 1378.62 L708.43 1380.04 L704.78 1384.06 L703.79 1384.9 L701.67 1385.8 L700.99 1387.91 L700.84 1390.34 L700.22 1392.18 L699.66 1392.36 L699.06 1392.11 L698.99 1392.08 L698.37 1391.68 L697.92 1391.47 L697.57 1391.67 L697.01 1392.58 L696.63 1392.78 L695.51 1393.17 L694.99 1394.11 L694.57 1395.22 L693.74 1396.12 L693.04 1395.41 L692.13 1396.12 L687.85 1397.44 L683.96 1399.41 L685.2 1403.35 L680.33 1403.35 L679.68 1403.28 L678.08 1402.75 L678.02 1402.77 L676.24 1402.66 L676.13 1402.75 L674.09 1401.6 L673.23 1401.46 L672.89 1402.4 L672.8 1403.62 L672.46 1404.54 L671.77 1405.12 L670.61 1405.32 L668.9 1406.34 L669.51 1408.6 L670.49 1410.86 L669.94 1411.89 L667.53 1412.71 L666.19 1414.69 L665.03 1417.07 L663.11 1419.11 L661.96 1418.62 L660.95 1418.73 L660.05 1419.22 L658.29 1420.51 L657.71 1420.85 L655.92 1421.2 L648.08 1420.78 L646.19 1421.2 L644.06 1419.45 L642.97 1418.74 L641.99 1418.45 L640.59 1418.88 L637.89 1420.77 L636.47 1421.2 L634.86 1420.68 L633.74 1419.53 L632.92 1418.38 L632.2 1417.86 L631.39 1418.15 L631.25 1418.82 L631.34 1419.49 L631.23 1419.82 L630.4 1419.78 L629.1 1419.24 L628.32 1419.11 L627.55 1419.47 L624.76 1421.79 L624.49 1422.34 L624.64 1422.87 L624.68 1423.36 L624.11 1423.76 L623.5 1423.64 L623.17 1422.17 L622.45 1421.79 L622.08 1421.96 L621.76 1422.36 L621.53 1422.91 L621.45 1423.46 L621.14 1424.26 L620.42 1424.39 L619.57 1424.3 L618.86 1424.42 L616.43 1426.05 L615.36 1426.3 L615.04 1426.37 L613.68 1425.73 L612.52 1427.41 L611.31 1427.93 L603.34 1427.47 L601.36 1427.7 L598.87 1428.35 L597.77 1428.42 L596.95 1428.6 L594.65 1429.59 L594.18 1430.03 L593.33 1430.41 L589.19 1430.34 L587.64 1431.04 L585.13 1429.34 L582.23 1429.95 L579.45 1431.11 L577.27 1431.04 L576.37 1431.54 L575.85 1431.48 L575.46 1431.21 L574.97 1431.04 L567.71 1431.15 L566.84 1430.71 L563.2 1432.08 L561.94 1432.35 L560.32 1432.19 L558.52 1431.76 L556.9 1431.13 L555.81 1430.38 L554.93 1431.47 L554.01 1431.16 L553.01 1430.27 L551.87 1429.67 L550.94 1429.7 L548.98 1430.24 L545.11 1430.45 L543.93 1430.92 L543.45 1432.02 L542.9 1432.17 L540.37 1431.55 L539.57 1431.7 L538.91 1431.7 L536.43 1430.92 L532.64 1431.99 L528.96 1433.81 L526.83 1435.3 L525.44 1436.57 L524.84 1437.24 L524.6 1437.96 L524.21 1438.32 L522.33 1438.92 L520.85 1439.75 L520.1 1439.91 L519.56 1440.25 L519.36 1441.24 L519.07 1442.11 L518.4 1442.55 L517.52 1442.57 L516.7 1442.19 L514.51 1445.44 L514.52 1446.86 L516.11 1448.16 L517.67 1447.3 L518.31 1448.21 L518.57 1449.83 L519.03 1451.11 L520.15 1451.93 L531.5 1456.82 L532.37 1458.35 L533.86 1459.23 L536.74 1461.39 L538.66 1463.6 L535.56 1465.73 L534.63 1467.23 L533.74 1467.75 L532.7 1468.35 L528.82 1476.03 L519.34 1486.92 L518.38 1488.76 L517.51 1491.09 L516.2 1492.79 L513.11 1495.78 L509.14 1501.86 L507.07 1503.68 L505.41 1504.52 L499.84 1506.44 L495.8 1508.47 L492.58 1511.33 L490.68 1515.07 L490.61 1519.72 L487.9 1523.77 L480.21 1525.42 L438.65 1526.52 L429.8 1528.63 L422.27 1531.48 L418.56 1532.15 L414.61 1531.99 L401.57 1529.78 L399.86 1529.68 L397.78 1529.8 L395.96 1530.4 L393.99 1533.12 L392.17 1534.05 L390.18 1534.62 L386.76 1534.98 L384.85 1535.43 L383.29 1536.56 L382.45 1538.73 L381.31 1539.47 L376.83 1538.12 L375.58 1539.57 L373.66 1540.78 L360.85 1545.34 L359.31 1546.41 L359.23 1546.49 L357.99 1547.7 L357.4 1548.79 L357.08 1550.56 L356.46 1550.99 L355.68 1550.87 L354.95 1550.96 L353.23 1552.55 L349.91 1556.62 L348.08 1558.36 L346.72 1559.24 L346.11 1559.19 L345.61 1558.66 L344.55 1558.07 L342.68 1557.44 L341.37 1558.57 L340.94 1559.45 L341.04 1560.27 L340.74 1560.7 L337.83 1560.21 L336.81 1560.3 L336 1560.86 L335.33 1562.02 L333.5 1561.83 L329.41 1562.46 L325.71 1563.54 L324.27 1564.34 L323.26 1565.59 L322.54 1567.49 L322.62 1568.15 L323.04 1568.57 L323.36 1569.04 L323.17 1569.8 L322.84 1569.95 L321.82 1569.8 L321.54 1569.8 L319.49 1571.52 L319.28 1571.69 L318.58 1572.08 L316.38 1572.32 L315.08 1571.45 L313 1567.97 L309.5 1564.03 L307.32 1562.3 L305.07 1561.19 L301.4 1560.11 L300.42 1559.06 L300.01 1556.95 L300.2 1555.78 L300.61 1554.82 L300.8 1553.82 L300.32 1552.49 L299.57 1551.63 L298.74 1551.25 L297.82 1551.02 L296.83 1550.61 L295.29 1549.47 L294.26 1548.03 L293.84 1546.28 L294.35 1543.36 L294.4 1542.48 L294.34 1541.62 L294.2 1540.82 L290.46 1541.94 L288.8 1542.81 L287.28 1544.1 L286.68 1545.05 L285.52 1547.56 L284.92 1548.29 L283.64 1548.64 L282.68 1548.35 L281.81 1547.92 L280.79 1547.9 L279.35 1549.1 L278.86 1551.11 L278.87 1557.62 L278.48 1558.96 L277.32 1559.74 L268.96 1560.93 L266.98 1561.72 L263.69 1564.23 L261.79 1565.39 L259.74 1565.65 L257.56 1565.62 L254.34 1566.73 L248.31 1567.53 L246.2 1568.22 L244.62 1569.09 L243.29 1570.48 L241.21 1573.44 L239.82 1574.8 L236.73 1576.71 L235.03 1577.39 L222.56 1580.28 L219.18 1580.51 L215.55 1579.26 L210.66 1574.7 L206.51 1574.37 L199.59 1575.31 L196.14 1575.09 L192.86 1574.03 L196.75 1568.98 L199.31 1563.73 L200.57 1558.05 L200.63 1548.25 L198.53 1547.83 L195.55 1547.14 L193.51 1547.05 L189.04 1543.75 L185.79 1535.88 L179.98 1515.32 L167.2 1487.91 L164.64 1482.41 L163.2 1480.54 L157.71 1475.11 L153.71 1468.52 L152.13 1466.6 L150.17 1465.17 L147.76 1464.41 L144.22 1463.88 L142.94 1463.49 L142.6 1462.85 L142.6 1461.96 L142.37 1460.8 L141.52 1458.36 L140.98 1457.46 L140.3 1456.88 L139.6 1456.62 L138.98 1456.17 L138.5 1454.98 L137.65 1454.07 L133.9 1451.28 L132.59 1450.55 L131.71 1450.35 L130.87 1450.34 L130.04 1450.49 L129.16 1450.77 L127.64 1450.29 L106.55 1433.25 L85.46 1416.2 L83.72 1413.14 L82.78 1409.01 L55.75 1377.68 L47.31 1371.04 L47.15 1369.61 L52.92 1361.27 L60.68 1354.49 L63.65 1350.41 L68.26 1341.18 L68.48 1340.21 L68.53 1339.27 L68.75 1338.55 L69.53 1338.25 L70.92 1338.16 L94.09 1336.6 L121.81 1343.49 L125.61 1343.69 L137.53 1339.95 L141.9 1340.11 L147.43 1341.44 L150.34 1341.65 L153.01 1341.04 L154.01 1340.39 L155.69 1338.83 L156.76 1338.18 L157.61 1337.93 L161.96 1337.44 L167.6 1337.68 L183.55 1342.87 L188.91 1342.73 L210.21 1337.48 L211.87 1336.99 L207.76 1333.26 L204.42 1332.19 L198.09 1328.38 L193.73 1324.57 L193.78 1324.15 L192.42 1323.35 L188.89 1318.29 L175.81 1306.08 L174.78 1304.42 L174.19 1302.46 L173.99 1300.02 L173.63 1298.12 L172.71 1296.96 L171.47 1295.92 L170.09 1294.39 L168.77 1290.8 L167.93 1289.15 L166.01 1288.25 L165.55 1287.8 L164.91 1287.35 L163.91 1287.14 L162.83 1287.04 L161.79 1286.76 L160.91 1286.34 L160.32 1285.83 L159.71 1283.99 L159.76 1281.6 L160.34 1279.26 L161.29 1277.55 L161.43 1276.03 L160.71 1273.7 L153.46 1259.61 L153.19 1255.97 L154.38 1251.84 L154.7 1249.46 L154.1 1247.75 L153.13 1246.31 L150.54 1240.13 L149.94 1231.85 L149.22 1221.95 L149.89 1215.96 L150.37 1214.43 L152.55 1211.22 L153.19 1209.62 L153.11 1208.65 L152.69 1208.13 L152.19 1207.7 L151.9 1206.98 L151.9 1205.87 L152.36 1204.38 L152.96 1199.34 L153.56 1197.46 L154.43 1195.74 L158.81 1190.91 L160.08 1188.23 L158.96 1185.1 L156.29 1181.71 L155.29 1179.99 L153.79 1175.64 L153.52 1173.72 L153.68 1171.83 L154.43 1169.76 L154.78 1169.65 L155.4 1169.69 L156.04 1169.62 L156.43 1169.16 L156.31 1168.53 L155.3 1167.57 L155.13 1167.17 L155.66 1166.25 L157.2 1164.79 L157.73 1163.8 L155.4 1158.22 L154.78 1157.18 L153.16 1156.96 L152.04 1156.17 L151.4 1154.65 L151.19 1152.21 L151.66 1151.46 L152.57 1150.66 L153.22 1149.8 L152.84 1148.88 L152.48 1148.32 L152 1147.32 L151.79 1146.35 L152.19 1145.92 L154.91 1145.49 L154.5 1144.41 L152.87 1143 L151.9 1141.59 L152.06 1140.39 L152.3 1139.65 L152.24 1139.05 L151.54 1138.27 L151.05 1137.34 L151.08 1136.18 L151.44 1135.14 L151.9 1134.53 L150.09 1132.95 L148.33 1132.2 L146.62 1132.39 L145 1133.61 L143.86 1133.77 L142.53 1132.71 L140.44 1130.26 L138.01 1128.58 L137.52 1127.91 L137.22 1126.5 L137.7 1126.07 L138.42 1125.9 L138.81 1125.26 L138.67 1124.26 L138.27 1123.75 L137.8 1123.32 L137.52 1122.6 L137.52 1121.44 L138.01 1119.81 L138.17 1118.63 L138.31 1111.87 L138.5 1111 L136.88 1103.64 L135.57 1101.25 L135.51 1100.83 L135.67 1099.71 L135.57 1099.33 L135.09 1099 L134.47 1098.79 L134.09 1098.84 L134.28 1099.33 L133.48 1098.6 L133.06 1098.54 L132.92 1098.36 L132.98 1097.28 L133.16 1096.64 L133.92 1095.14 L134.28 1094.62 L131.14 1082.68 L130.04 1080.68 L126.91 1081.42 L125.26 1081.22 L124.56 1079.65 L124.3 1078.73 L123.67 1077.75 L122.84 1076.95 L121.97 1076.63 L121.47 1076.94 L120.02 1079.34 L118.92 1077.74 L120.32 1074.55 L119.67 1072.95 L118.16 1072.42 L115.35 1073.17 L113.8 1072.28 L113.2 1071.72 L111.54 1070.65 L111.2 1070.07 L111.16 1069.46 L110.98 1068.96 L110.24 1068.66 L109.61 1068.81 L107.8 1070.21 L106.89 1070.35 L106.46 1069.82 L106.33 1068.92 L106.33 1067.97 L105.5 1068.28 L104.94 1068.21 L104.59 1067.76 L104.4 1066.89 L104.4 1063.22 L102.69 1061.46 L99.78 1059.24 L98.8 1057.83 L98.85 1056.59 L100.32 1052.13 L100.47 1050.15 L100.19 1048.54 L99.39 1047.09 L98.05 1045.63 L97.94 1045.47 L93.61 1038.67 L91.98 1037.61 Z "/>
</g>
</svg>
