<svg xmlns="http://www.w3.org/2000/svg" viewBox="0 0 1000 1368.1">
<g fill="#ccc" stroke="#333" stroke-width="0.5" stroke-linejoin="round">
<path fill-rule="evenodd" d="M194.97 985.92 L196.03 985.42 L195.58 984.21 L194.75 983.5 L193.86 982.93 L193.23 982.16 L193.15 981.13 L193.3 979.85 L193.31 978.58 L192.81 977.56 L192.38 977.44 L191.51 977.85 L190.19 978.44 L189.63 977.79 L188.95 977.17 L188.07 977.04 L187.42 976.45 L185.95 975.64 L185.35 975.35 L183.57 974.23 L182.58 973.17 L181.98 972.18 L182.31 971.06 L182.84 970.4 L183.9 970 L185.22 969.67 L186.41 968.55 L187.46 966.5 L188.38 965.25 L190.1 963.53 L191.49 961.95 L192.41 960.96 L193.8 959.83 L196.94 959.13 L198.46 959.37 L199.63 959.23 L201.1 959.55 L202.38 960.12 L203.82 960.47 L206.08 960.63 L207.57 960.96 L209.52 961.2 L209.86 961.37 L210.33 961.93 L210.98 962.4 L211.66 962.61 L212.31 962.49 L212.27 961.54 L212.35 961.03 L212.61 959.95 L213.51 958.97 L213.99 957.25 L213.46 956.15 L213.55 955.14 L213.66 954.92 L213.88 954.59 L214.06 954.15 L214.05 953.55 L213.85 953.16 L213.58 953.43 L213.17 954.27 L212.29 954.76 L210.95 954.76 L210.53 953.88 L210.49 952.62 L210.79 951.25 L210.87 950.23 L211.21 948.59 L211.29 947.78 L211.07 947.2 L210.52 946.51 L209.83 945.92 L209.16 945.69 L208.42 946.1 L207.86 946.98 L207.17 949.11 L206.45 949.49 L205.95 948.96 L205.83 947.56 L205.61 945.72 L204.78 943.43 L204.19 940.23 L203.6 937.92 L203.42 935.02 L204.19 933.36 L205.02 931.52 L205.5 929.8 L207.31 929.06 L207.88 927.15 L209.87 923.56 L211.33 920.64 L212.11 918.62 L213.13 917.54 L212.71 918.66 L212.64 919.81 L212.82 920.96 L213.13 922.1 L214.08 919.05 L214.67 915.79 L215.42 914.41 L216.67 914.73 L218.36 912.61 L220.05 910.61 L221.67 908.24 L223.11 907.68 L224.29 906.56 L225.73 905.19 L227.47 904.13 L228.29 904.2 L228.91 905.76 L229.66 907.57 L230.72 909.31 L232.09 911.24 L233.62 911.29 L232.9 909 L232.53 907.07 L232.59 905.01 L233.15 904.02 L234.15 903.08 L234.9 904.27 L235.39 906.32 L234.96 907.82 L235.64 908.94 L236.26 910.38 L236.79 911.59 L237.77 912.67 L238.36 913.09 L240.76 914.28 L241.86 914.6 L242.5 914.54 L243.6 913.82 L244.94 913.4 L245.03 913.03 L245.05 912.52 L245 912.1 L244.94 911.97 L245.18 911.58 L245.28 911.31 L245.3 908.89 L245.05 907.89 L244.74 906.83 L244.05 905.71 L243.68 904.52 L244.31 903.9 L245.8 904.21 L246.49 903.71 L248.11 903.65 L249.35 903.72 L250.48 903.65 L251.35 903.09 L252.85 902.22 L254.16 902.35 L255.1 903.19 L255.8 904.46 L256.33 905.19 L257.05 905.38 L258.32 905.03 L257.71 906.08 L257.15 907.49 L257.22 908.72 L258.57 909.25 L259.36 909.34 L260.72 909.65 L261.57 909.67 L263.32 909.31 L264.09 909.25 L265.73 908.87 L266.91 907.93 L267.53 906.72 L267.51 905.53 L267.1 904.68 L266.34 903.51 L265.37 902.56 L264.33 902.26 L264.33 901.85 L265.72 901.85 L265.72 901.34 L264.83 901.17 L264.41 900.71 L264.4 900.11 L264.75 899.5 L264.05 899.32 L263.82 898.91 L263.95 898.33 L264.33 897.66 L263.74 897.54 L263.45 897.36 L263.38 896.98 L263.41 896.28 L264.6 896.77 L265.53 896.37 L266.38 895.68 L267.3 895.32 L267.74 895.27 L268.34 895.1 L268.72 894.82 L268.48 894.44 L267.92 894.35 L266.81 894.86 L266.22 894.86 L265.21 894.23 L265.47 893.74 L266.21 893.3 L266.63 892.83 L267.1 892.99 L268.18 893.21 L269.42 893.3 L270.35 893.06 L270.63 893.5 L271.08 894.05 L271.23 894.44 L271.73 894.44 L271.08 893 L268.6 892.37 L269.4 891.18 L270.43 890.62 L271.41 890.5 L272.31 890.27 L273.11 889.33 L273.77 889.61 L274.3 889.9 L274.69 890.26 L274.91 890.76 L275.29 889.19 L273.83 888.7 L271.77 889 L270.35 889.79 L269.98 888.78 L269.92 887.31 L270.3 885.92 L271.23 885.19 L272.15 885.3 L272.77 885.85 L273.33 886.52 L274.04 887.03 L274.79 887.27 L275.01 887.14 L275.08 886.73 L275.41 886.11 L276.03 885.49 L276.32 885.28 L276.39 885.01 L276.33 884.27 L276.1 883.91 L275.18 883.65 L274.91 883.35 L274.92 883.01 L275.3 882.77 L275.62 881.88 L275.97 881.77 L276.16 881.62 L275.87 881 L275.43 880.75 L274.88 880.78 L274.36 880.7 L274.04 880.08 L273.94 880.57 L273.84 880.68 L273.84 880.72 L274.04 881 L273.31 881.44 L272.56 881.59 L271.96 881.35 L271.73 880.58 L270.04 882.1 L269.4 882.43 L269.51 881.61 L271.99 878.66 L273.52 876.46 L274.5 875.42 L279.64 871.09 L280.99 868.59 L281.78 867.12 L282.76 866.82 L283.87 867.28 L284.08 866.6 L284.15 866.02 L284.33 865.33 L284.8 865.32 L285.41 865.47 L285.82 865.06 L285.43 864.37 L284.4 863.89 L283.36 864.23 L281.85 864.41 L281.64 863.8 L282.46 862.77 L284.1 861.35 L285.22 860.66 L286.82 860.05 L285.96 859.28 L286.03 857.89 L286.56 857.15 L287.32 856.38 L288.12 855.9 L288.79 856.05 L289.9 855.76 L290.86 855.63 L291.15 855.44 L292.47 854.25 L293.98 857.08 L294.97 858.18 L296.65 858.82 L296.34 858.06 L294.1 855.38 L293.5 854.39 L293.4 853.28 L293.71 852.22 L294.35 851.4 L294.59 851.98 L295.05 852.6 L295.49 852.93 L295.69 852.62 L295.55 852.12 L294.95 851.26 L294.81 850.99 L295.15 849.62 L295.79 848.47 L296.15 847.3 L295.69 845.88 L296.38 845.83 L297.06 845.88 L296.85 846.21 L296.73 846.55 L296.66 846.97 L296.65 847.51 L296.83 848 L297.26 848.01 L297.9 847.58 L299.08 847.67 L299.39 847.84 L300 848.43 L300.33 848.64 L300.24 847.99 L299.98 847.48 L299.54 847.11 L298.94 846.84 L299.23 846.69 L299.54 846.47 L299.82 846.34 L298.56 845.89 L297.99 845.88 L298.27 845.24 L298.53 845.07 L298.87 845.19 L299.41 845.46 L299.61 844.46 L298.66 844.1 L297.28 844.18 L296.19 844.5 L296.45 843.44 L297.21 843.28 L298.26 843.5 L299.41 843.57 L299.05 843.39 L298.35 842.9 L297.99 842.69 L298.37 842.54 L298.6 842.39 L298.87 842.26 L299.41 842.19 L299.2 841.92 L298.94 841.23 L300.29 840.93 L301.71 840.81 L301.71 841.23 L301.38 841.85 L302.04 841.83 L304.01 841.23 L303.05 840.99 L302.83 840.53 L303.13 839.91 L304.32 838.49 L304.75 837.66 L305.38 835.7 L306.15 836.25 L306.71 836.4 L307.22 836.15 L307.94 835.49 L308.68 835.21 L309.71 834.95 L310.16 834.66 L309.1 834.32 L308.21 834.45 L307.31 834.78 L306.62 834.71 L306.34 833.67 L306.82 833.51 L307.87 833.31 L308.98 832.88 L309.61 832.01 L308.45 832.16 L305.64 832.93 L304.74 832.5 L304.46 831.45 L304.6 830.24 L304.96 829.25 L306.85 830.61 L307.86 830.94 L309.36 831.05 L309.66 830.91 L309.49 830.61 L309.01 830.31 L308.4 830.17 L307.67 830.18 L307.12 830.11 L306.69 829.85 L306.34 829.25 L307.45 829.33 L308.4 829.15 L309.12 828.67 L309.61 827.86 L308.56 827.2 L307.92 826.4 L308 825.5 L309.1 824.6 L309.63 824.97 L309.94 825.32 L310.06 825.78 L310.02 826.48 L311.01 825.52 L310.59 824.13 L310.41 822.88 L313.5 821.85 L314.33 820.73 L315.02 819.49 L316 818.61 L316 818.19 L311.86 819.07 L311.86 818.61 L312.33 818.45 L312.78 818.19 L311.08 818.21 L310.31 818.07 L309.61 817.68 L309.84 820.61 L305.92 822.85 L301.07 823.67 L298.48 822.34 L298.62 821.71 L299.59 821.18 L299.82 820.66 L299.59 820.4 L298.42 819.83 L297.6 819.28 L297.3 819.27 L297.13 819.11 L297.06 818.39 L297.14 817.82 L297.3 817.33 L297.57 816.76 L297.91 815.01 L298.25 814.41 L298.94 814 L299.91 813.84 L300.55 814.06 L300.61 814.59 L299.82 815.34 L303.04 814.82 L304.01 814.46 L304.01 814 L301.71 814.46 L302.01 813.6 L302.48 812.84 L304.29 810.72 L305.38 808.38 L304.67 808.41 L304.33 808.33 L304.19 808.05 L304.01 807.5 L302.98 807.73 L302.18 807.16 L301.38 806.29 L300.33 805.62 L300.61 806.27 L300.71 807.01 L300.61 807.73 L300.33 808.38 L299.74 808.06 L299.16 807.96 L298.57 808.08 L297.99 808.38 L297.99 808.88 L298.32 809.18 L298.34 809.21 L298.19 809.32 L297.99 809.85 L297.69 809.56 L297.48 809.48 L297.2 809.47 L296.65 809.34 L296.85 810.61 L296.65 812.48 L296.15 814.18 L295.46 814.92 L295.25 815.33 L295.01 817.18 L294.81 817.68 L293.74 817.78 L292.89 817.22 L292.55 816.3 L292.97 815.34 L289.5 812.62 L289.11 812.07 L288.82 810.94 L289.14 809.95 L290.63 809.85 L289.85 808.86 L289.57 808.38 L289.09 806.55 L288.82 804.49 L288.82 802.45 L288.97 801.51 L289.39 800.75 L290.17 800.09 L291.1 799.87 L292.01 799.98 L292.7 799.85 L292.97 798.95 L293.23 798.48 L293.87 797.99 L294.68 797.76 L295.46 798.03 L296.59 799.37 L297.04 799.5 L297.99 799.21 L299.2 798.49 L300.28 797.48 L302.21 795.01 L296.51 794.94 L295.46 794.78 L294.53 793.63 L292.05 789.48 L293.95 786.78 L294.35 785.75 L294.88 782.84 L295.55 781.8 L297.06 781.09 L297.06 780.63 L295.69 781.09 L295.87 779.18 L296.6 776.01 L296.65 766.75 L296.86 767.38 L297.13 767.86 L297.5 768.27 L297.99 768.64 L298.3 767.96 L298.48 766.86 L298.26 765.83 L296.65 764.99 L296.43 764.1 L296.36 763.03 L296.19 762.1 L297.7 762.32 L298.88 763.15 L299.74 764.25 L300.33 765.37 L300.75 765.37 L299.96 763.21 L297.1 759.76 L296.65 757.48 L296.33 757.62 L295.54 757.84 L295.23 757.98 L294.65 755.23 L293.85 746.55 L293.43 745.44 L293.01 735.29 L293.35 732.98 L293.95 730.79 L294.81 728.82 L293.84 728.23 L293.77 726.76 L293.93 725.27 L293.64 724.58 L293 724.03 L292.65 722.7 L292.47 720.01 L291.47 720.33 L290.87 720.03 L290.61 719.26 L290.63 718.12 L291.09 718.12 L291.39 718.43 L291.63 718.59 L291.94 718.52 L292.47 718.12 L291.77 717.67 L291.5 717.06 L291.01 714.96 L291.08 714.73 L291.03 714.45 L290.63 713.96 L290.32 713.84 L289.21 713.66 L288.79 713.49 L288.03 712.77 L287.55 712.05 L287 711.48 L286.03 711.19 L285.07 711.19 L284.36 711.39 L283.92 711.84 L283.73 712.57 L282.92 711.86 L282.12 711.9 L281.43 712.16 L280.93 712.11 L280.46 711.35 L280.62 710.75 L281.23 710.36 L282.1 710.22 L282.68 709.51 L284.26 706.19 L285.07 705.14 L285.67 704.95 L287.18 704.85 L287.83 704.68 L288.63 704.1 L289.22 703.51 L289.87 703.05 L290.86 702.87 L292.05 703.22 L293.06 703.88 L294.17 704.25 L295.69 703.75 L296.12 703.35 L296.27 702.94 L296.37 702.46 L296.65 701.91 L296.71 701.61 L296.59 700.83 L296.65 700.52 L296.95 700.44 L297.39 700.52 L297.81 700.56 L297.99 700.31 L298.3 699.58 L299.05 698.98 L299.9 698.46 L300.54 697.96 L300.98 697.28 L301.33 696.51 L301.56 695.71 L301.71 694.93 L301.53 692.11 L300.51 689.73 L297.76 685.28 L297.52 685.06 L297.06 684.72 L297.01 683.24 L294.35 675.94 L293.85 675.94 L293.85 677.78 L293.43 677.78 L292.34 674.82 L290.62 672.16 L286.49 667.11 L285.76 665.92 L285.5 664.93 L285.57 662.23 L286.03 659.83 L286.09 658.64 L285.57 657.77 L286.03 657.36 L288.56 659.46 L290.17 661.52 L290.85 661.03 L291.53 659.86 L292.47 657.36 L292.69 656.09 L292.75 654.89 L292.67 653.88 L292.47 653.15 L291.23 651.45 L291.42 650.9 L292.97 650.33 L293.15 650.75 L293.36 650.95 L293.6 651.08 L293.85 651.3 L294.13 650.26 L293.88 649.32 L293.29 648.55 L292.47 648.06 L292.47 647.6 L293.49 645.87 L293.82 644.78 L293.85 643.39 L294.72 642.38 L295.02 640.87 L294.86 639.36 L294.35 638.3 L292.05 636.45 L291.58 635.93 L291.26 635.45 L290.87 635.02 L290.17 634.6 L290.2 633.84 L290.54 632.43 L290.63 631.56 L290.43 630.7 L289.93 630.36 L289.25 630.17 L286.97 628.87 L285.38 629.26 L284.07 630.27 L283.27 631.31 L283.55 631.77 L283.73 632.24 L283.19 632.34 L282.82 632.48 L282.31 632.74 L281.89 632.74 L281.88 631.03 L281.99 630.22 L282.31 629.46 L279.51 623.43 L278.17 621.59 L276.25 619.7 L275.28 619.06 L273.51 618.63 L273.22 618.28 L272.93 618.09 L272.15 618.35 L271.92 618.74 L271.94 619.3 L271.83 619.83 L271.23 620.16 L270.89 615.47 L271.51 613.51 L273.36 612.71 L274.16 611.51 L273.34 608.87 L271.23 604.87 L270.77 604.87 L271.2 605.67 L271.4 605.94 L271.73 606.22 L271.73 606.73 L271.23 606.73 L270.09 605.14 L265.13 599.83 L264.4 599.41 L263.18 599.27 L262.52 598.88 L262.1 598.04 L261.58 597.22 L260.62 596.91 L261.08 596.49 L260.22 596.23 L259.44 595.6 L258.32 594.13 L257.79 593.97 L260.54 585.13 L262.89 577.58 L264.5 577.94 L265.98 577.7 L267.27 576.93 L268.27 575.67 L268.88 573.92 L268.68 572.47 L267.15 569.49 L266.55 567.39 L266.23 564.5 L266.66 562.01 L268.27 561.11 L268.97 561.49 L272.33 564.37 L272.99 565.12 L272.96 565.3 L272.68 565.9 L272.68 566.16 L272.88 566.34 L273.45 566.48 L273.62 566.61 L275.49 569.14 L276 570.04 L276.82 573.44 L277.54 574.21 L279.06 574.06 L280.75 572.69 L283.82 569.59 L293.27 563.7 L295.24 561.9 L294.82 560.65 L293.44 559.33 L292.54 557.34 L292.76 556.51 L294.74 553.98 L296.46 550.09 L297.89 548.66 L299.96 547.57 L302.22 546.81 L304.25 546.39 L306.74 546.42 L307.13 546.13 L306.6 545.07 L305.94 544.37 L305.22 543.85 L304.57 543.23 L304.13 542.23 L304.01 540.59 L302.56 535.29 L300.61 531.52 L299.98 530.59 L298.24 528.02 L296.78 524.94 L296.28 524.23 L295.42 523.86 L294.52 523.81 L293.66 523.49 L292.91 522.32 L292.33 519.89 L291.77 515.22 L290.8 512.85 L289.68 510.94 L288.98 510.35 L287.84 509.97 L285.82 510.16 L285.21 509.77 L285.21 508.21 L285.77 506.19 L286.51 505.4 L288.41 503.37 L289.23 501.67 L289.15 500.45 L288.83 499.76 L288.9 499.24 L289.99 498.54 L291.08 498.3 L292.17 498.19 L292.87 497.69 L292.97 496.75 L292.99 496.44 L293.11 496.25 L293.28 496.07 L293.43 495.82 L294.44 496.44 L295.13 498.95 L295.94 500.24 L296.77 501.07 L297.44 501.91 L298 502.92 L298.48 504.2 L299.05 506.83 L299.62 508.26 L304.01 511.25 L307.4 512.63 L308.4 513.35 L309.13 514.21 L314.57 523.2 L316 524.31 L316.93 524.47 L318.81 524.5 L319.11 524.57 L319.72 524.73 L320.14 523.85 L320.68 523.87 L321.08 524.55 L321.06 525.66 L320.64 525.66 L320.42 525.45 L320.14 525.24 L320.14 526.94 L320.61 528.15 L321.43 528.59 L322.48 528.03 L322.48 529.42 L323.4 528.45 L323.67 529.15 L323.03 530.25 L322.94 531.28 L322.63 531.14 L321.86 530.94 L321.56 530.81 L321.99 533.24 L323.62 534.25 L325.15 534.03 L325.28 532.71 L329.42 532.71 L329.01 533.3 L328.66 533.98 L328.44 534.71 L328.46 535.5 L328.96 535.5 L329.2 535.31 L329.88 534.99 L329.88 535.5 L327.54 536.39 L327.54 536.85 L328.14 536.96 L328.54 537.14 L329.1 537.75 L329.02 537.87 L329.03 538.06 L328.96 538.28 L328.67 537.96 L328.28 537.76 L327.77 537.7 L327.12 537.78 L327.67 538.38 L328.33 538.8 L328.97 539.31 L329.42 540.14 L327.73 539.35 L325.91 538.85 L324.34 539 L323.4 540.14 L323.37 540.44 L323.46 540.51 L323.62 540.51 L323.82 540.57 L322.59 544.41 L324.38 546.79 L327.98 547.93 L332.18 548.04 L332.97 547.9 L333.77 547.62 L334.47 547.2 L334.94 546.64 L335.15 546.05 L335.13 545.64 L335.01 545.22 L334.94 544.58 L335.08 544.02 L335.71 543.34 L335.86 542.7 L336.27 538.51 L336.17 536.61 L335.36 534.99 L335.19 535.53 L335.12 535.88 L335.17 536.25 L335.36 536.85 L334.94 536.85 L334.59 535.77 L334.34 534.2 L334.33 532.62 L335.1 530.33 L334.84 528.88 L333.97 526.63 L333.6 524.42 L333.61 514.92 L333.29 513.65 L332.41 513.12 L331.45 512.73 L331.03 511.78 L330.77 510.56 L330.34 509.39 L328.99 507.95 L326.88 506.51 L324.42 505.34 L322.48 505.13 L322.48 505.63 L321.68 504.88 L322.78 503.16 L324.43 501.21 L325.28 499.78 L331.95 497.69 L333.57 497.56 L340.13 495.69 L341.01 495.21 L341.37 494.64 L341.39 493.91 L341.5 493.12 L341.78 492.44 L342.34 492.06 L342.34 491.64 L341.87 491.64 L341.87 491.13 L343.16 490.91 L347.73 489.22 L348.64 488.59 L351.61 485.58 L355.1 483.15 L356.63 481.78 L356.63 481.36 L356.14 480.55 L356.72 480 L360.81 478.99 L362.4 478.06 L363.65 477.9 L364.22 477.47 L364.57 476.81 L365.18 475.96 L367.67 474.16 L368.21 473.4 L367.62 471.03 L368.3 469.08 L369.61 467.52 L371.88 465.51 L372.5 464.7 L372.91 463.69 L373.69 458.02 L374.15 457.06 L374.53 456.98 L376.42 456.27 L376.72 456.09 L377.59 455.77 L377.89 455.05 L377.87 453.8 L378.01 452.61 L378.26 451.97 L379 451.18 L379.64 450.72 L380.22 450.45 L382.94 449.58 L385.11 448.92 L387.02 447.81 L388.62 446.46 L388.78 444.79 L389.25 443.84 L390.77 444 L391.53 444.69 L393.72 444.57 L396.05 444.12 L397.68 443.46 L398.2 443.64 L398.72 443.98 L399.07 444.54 L399.06 445.37 L398.13 444.96 L397.14 444.84 L396.19 445.08 L395.38 445.79 L395.92 446.16 L396.32 446.28 L396.73 446.17 L397.26 445.79 L397.65 446.2 L397.91 446.38 L398.07 446.63 L398.14 447.19 L400.21 445.77 L401.5 445.13 L403.03 444.86 L404.54 445.11 L405.79 445.46 L405.85 445.48 L407.52 445.93 L408.46 445.25 L411.02 443.01 L412.64 439.87 L413.95 435.54 L414 431.52 L413.27 429.64 L412.43 428.65 L411.96 428.23 L411.19 426.86 L410.14 426.87 L409.22 426.17 L408.52 425.77 L407.16 425.82 L406.27 426.19 L405.48 426.76 L405.33 426.08 L409.09 422.27 L409.72 420.44 L410.87 416.67 L410.82 415.1 L411.24 413.64 L412.09 411.75 L412.83 409.45 L413.11 408.07 L413.08 406.66 L414.01 402.76 L414.17 400.56 L413.18 398.21 L413.12 396.85 L413.49 396.33 L413.75 396.1 L414.27 395.99 L414.73 395.74 L414.99 395.36 L415.7 393.83 L416.18 393.13 L416.39 392.72 L416.62 391.96 L416.7 391.19 L416.69 390.5 L416.75 389.85 L417.08 389.16 L414.91 390.36 L412.14 392.21 L409.46 395.06 L406.69 396.63 L405.43 396.43 L406.42 394.13 L408.36 393.03 L409.28 392.38 L409.87 391.69 L410.33 391.02 L410.7 390.17 L411.31 389.37 L411.49 388.6 L411.21 387.76 L411.39 387.18 L412.94 387.24 L412.58 386.67 L412.45 386.08 L412.58 385.48 L412.94 384.91 L413.5 386.3 L414.87 385.98 L417.31 384.44 L418.09 383.8 L418.04 382.26 L417.67 380.41 L417.54 378.83 L417.08 378.83 L416.5 379.19 L416.16 378.73 L415.7 376.92 L415.24 376.92 L415.04 377.58 L414.82 378 L414.47 378.24 L413.86 378.36 L414.11 377.78 L414.47 376.52 L414.73 375.99 L415.15 375.58 L415.97 375.22 L416.41 374.84 L418.33 372.66 L418.96 372.24 L418.61 373.4 L417.89 374.81 L417.65 376 L418.71 376.5 L419.6 375.88 L420.01 374.42 L420.06 372.71 L419.88 371.31 L419.6 371.01 L419.12 370.9 L418.45 370.84 L418.49 370.44 L418.86 369.56 L418.96 369.4 L418.85 368.61 L418.84 367.87 L418.6 367.32 L417.76 367.1 L417.49 366.81 L417.82 366.16 L418.48 365.52 L419.17 365.23 L419.95 365.13 L420.79 364.83 L421.58 364.37 L422.18 363.78 L422.19 363.43 L421.67 362.74 L421.71 362.42 L421.93 362.29 L422.44 362.09 L422.64 361.96 L423.21 361.67 L423.8 361.72 L424.25 361.59 L424.43 360.77 L424.68 360.73 L425.2 360.12 L425.63 359.41 L425.62 359.06 L426.04 358.94 L427.69 358.17 L432.12 357.05 L432.79 356.51 L433.46 355.41 L433.99 354.77 L434.38 354.66 L434.71 354.86 L435.1 354.97 L435.42 355.15 L435.55 355.57 L435.41 355.84 L435.17 356.04 L435.12 356.31 L435.55 356.77 L435.55 357.06 L435.55 357.24 L436.01 357.24 L436.4 356.69 L437.85 355.32 L437.57 354.76 L437.42 354.27 L437.34 353.72 L437.35 353.02 L436.3 353.93 L436.01 354.43 L434.63 353.65 L434.26 352.37 L434.81 351.17 L437.21 350.34 L438.29 349.02 L439.02 348.72 L439.79 348.66 L440.54 348.48 L441.27 348.18 L445.54 345.33 L448.11 344.7 L449.48 343.91 L450.39 342.84 L450.31 341.75 L450.61 341.06 L450.95 339.49 L451.23 338.89 L451.86 338.47 L452.79 338.06 L454.03 337.99 L455.32 337.48 L456.18 336.48 L457.82 335.17 L457.96 333.99 L459.85 334 L462.14 333.78 L463.23 332.86 L463.12 331.61 L463.04 330.4 L462.9 330.03 L463.3 329.6 L464.98 330.41 L466.5 330.93 L470.11 332.14 L476.7 334.86 L481.62 336.54 L484.94 337.41 L488.42 337.84 L492.99 338.3 L497.45 338.02 L500.1 337.71 L499.12 338.44 L495.8 339.07 L489.31 338.89 L488.52 338.77 L487.78 338.57 L487.06 338.54 L486.3 338.89 L486.1 339.48 L486.19 340.27 L486.15 340.98 L485.59 341.27 L485.31 342.16 L486.06 344.14 L487.72 347.36 L486.68 346.8 L485.7 345.74 L484.8 345.12 L484.04 345.91 L483.57 345.26 L481.96 345.26 L481.01 344.8 L480.48 345.04 L479.96 346.19 L479.56 347.58 L479.4 348.51 L479.33 350.59 L479.44 351.6 L479.86 352.08 L480.79 351.75 L481.19 350.67 L481.49 349.46 L482.16 348.72 L482.16 349.44 L482.39 349.92 L482.85 350.19 L483.54 350.21 L483.42 350.89 L483.54 353.45 L484.57 353.91 L485.66 353.86 L486.51 353.26 L486.8 352.08 L486.03 352.5 L485.44 352.34 L485.05 351.68 L484.92 350.64 L485.19 349.74 L485.72 349.12 L486.07 348.55 L485.84 347.79 L487.19 348.03 L488.03 348.95 L488.47 350.31 L488.8 353.61 L489.41 354.41 L490.43 354.56 L493.08 354.41 L493.55 354.31 L494.2 353.96 L495.48 352.71 L495.77 352.51 L495.92 351.89 L497.88 348.3 L497.93 347.81 L497.88 345.91 L498.63 344.42 L498.76 343.85 L498.97 343.5 L499.92 342.38 L500.14 341.97 L500.64 339.36 L501.28 337.83 L505.47 331.7 L505.69 331.16 L505.49 330.35 L504.55 329.19 L504.27 328.54 L504.29 327.8 L504.67 326.63 L504.77 325.96 L504.65 325.28 L504.04 324.04 L503.85 323.38 L503.98 323.11 L504.63 322.52 L504.77 322.19 L504.7 321.79 L504.52 321.6 L504.35 321.48 L504.27 321.3 L504.43 320.58 L504.8 319.91 L505.69 318.66 L506.04 318.26 L506.35 318.07 L506.57 317.77 L506.66 317.04 L507.54 315.37 L508.59 315.29 L509.45 315.5 L509.94 315.18 L509.83 313.54 L510.34 313.54 L510.37 313.98 L510.49 314.27 L510.8 314.91 L511.51 313.94 L511.67 313.54 L511.9 313.68 L511.98 313.69 L512.03 313.72 L512.17 313.97 L512.59 313.97 L512.59 312.56 L513.26 313.11 L513.77 314.17 L514.52 314.43 L515.17 314.1 L515.48 313.39 L515.76 312.98 L516.31 313.54 L516.81 313.54 L516.93 313.04 L517.2 312.78 L517.6 312.66 L518.15 312.56 L519.85 312.74 L521.15 313.25 L522.28 314.07 L523.46 315.14 L523.96 315.34 L527.05 316.01 L529.23 317.29 L531.88 318.13 L540.02 318.72 L547.61 318.11 L549.42 318.11 L560.4 318.1 L567.82 316.95 L568.48 316.57 L568.91 315.98 L570.96 314.41 L572.69 313.45 L573.03 313.17 L573.54 312.56 L574.33 310.93 L574.67 310.68 L575.45 310.45 L576.04 309.88 L576.99 308.55 L577.73 307.91 L579.97 306.89 L583.82 303.21 L591.95 298.89 L603.69 289.24 L604.93 288.5 L607.4 287.64 L611.49 286.75 L612.54 286.26 L614.58 284.78 L615.96 285.19 L617.39 284.46 L618.87 283.43 L620.4 282.91 L624.41 282.76 L625.66 282.44 L626.73 281.81 L628.46 280.37 L630.64 279.83 L633.56 277.7 L637.14 276.25 L637.98 275.17 L639.22 273.93 L639.5 273.21 L639.61 272.6 L640.46 270.13 L642.87 266.35 L643.55 264.04 L645.06 262.03 L645.52 261.2 L645.62 259.86 L645.34 255.98 L645.06 254.57 L644.68 254.04 L644.04 253.49 L643.46 253.12 L643.22 253.16 L643.37 252.26 L643.95 251.67 L645.52 250.76 L647.61 251.52 L654.53 250.29 L656.9 250.83 L656.64 252.11 L653.84 255.04 L654.84 255.57 L655.87 257.32 L657.06 257.86 L659.06 256.94 L659.4 256.71 L659.57 255.81 L660.02 255.03 L660.62 254.43 L661.23 254.1 L662.11 254.05 L663.02 254.16 L663.74 254.06 L664.04 253.4 L663.77 252.69 L663.28 252.07 L663.05 251.45 L663.54 250.76 L662.85 250.22 L662.49 249.71 L662.08 249.27 L661.23 248.93 L660.36 248.84 L659.52 248.98 L658.85 249.32 L658.43 249.87 L658.02 249.87 L657.51 248.93 L660.59 246.79 L663.08 244.65 L663.24 244.32 L663.53 243.42 L663.78 243.23 L664.99 243.3 L665.33 243.23 L666.36 242.48 L666.92 242.37 L667.71 242.76 L666.52 243.37 L665.62 244.17 L665.42 245.11 L666.29 246.1 L666.78 246.37 L667.13 246.41 L668.13 246.1 L668.2 245.91 L668.12 245.58 L668.11 245.26 L668.36 245.12 L669.31 245.17 L669.55 245.12 L670.8 244.45 L671.62 243.86 L672.09 243.07 L672.31 241.82 L672.14 241.72 L671.78 241.68 L671.57 241.47 L671.81 240.88 L672.26 240.44 L672.87 240.13 L673.53 239.96 L674.15 239.89 L673.72 241.12 L674.13 241.73 L674.77 242.27 L675.07 243.23 L675.49 243.23 L675.67 242.98 L675.93 242.5 L676.04 242.03 L675.74 241.82 L675.28 241.66 L675.62 241.3 L676.21 240.97 L676.45 240.88 L677.24 240.44 L678.17 240.15 L679.05 239.74 L679.71 238.95 L678.87 239.05 L678.16 239.38 L677.59 239.73 L677.16 239.89 L676.47 239.67 L676.59 239.13 L677.17 238.51 L677.83 238.06 L677.07 238.05 L676.4 238.19 L675.86 238.49 L675.49 238.95 L675.61 237.85 L675.71 237.45 L675.99 237.07 L675.11 237.65 L673.33 239.22 L672.73 239.89 L672.31 239.47 L673 238.22 L674 237.15 L675.24 236.41 L676.7 236.13 L678.01 236.34 L680.04 237.29 L681.51 237.58 L686.4 237.58 L687.77 237.86 L689.16 238.51 L691.25 239.89 L692.17 240.8 L692.63 241.1 L693.5 241.35 L695.92 241.3 L696.54 241.59 L697.87 242.6 L699.24 243.1 L702.32 243.7 L704.57 244.85 L705.88 245.82 L706.6 246.99 L706.9 247.36 L707.21 247.92 L707.45 249.23 L711.53 256.23 L711.98 258.1 L714.53 261.9 L714.96 263.24 L714.55 264.79 L713.71 266.25 L712.9 267.31 L711.1 268.67 L706.44 271.23 L705.09 272.74 L704.11 273.28 L702.96 273.71 L702.08 273.89 L701.76 274.48 L700.44 278.17 L700.15 278.72 L700.14 278.73 L698.12 278.67 L696.92 279.34 L694.61 281.32 L691.93 282.48 L690.11 282.95 L686.16 283.99 L682.22 285.02 L678.27 286.05 L674.33 287.08 L670.38 288.11 L666.44 289.14 L662.49 290.18 L658.54 291.21 L656.8 291.66 L655.49 292.55 L654.32 294.23 L653.64 295.5 L651.63 299.27 L649.63 303.03 L647.62 306.8 L645.61 310.56 L643.6 314.32 L641.59 318.09 L639.58 321.85 L637.57 325.61 L636.87 326.5 L635.68 326.8 L633.18 326.14 L631.87 326 L630.51 326.28 L626.77 327.68 L623.88 327.81 L622.43 328.03 L621.23 328.84 L620.92 329.46 L620.87 330.77 L620.68 331.43 L620.17 332.15 L618.9 333.53 L618.35 334.31 L616.03 340.05 L614.82 341.73 L613.56 342.94 L610.63 345 L608.86 347.03 L607.3 350.07 L604.05 359.42 L602.23 362.41 L598.08 367.25 L596.84 370.85 L595.9 372.11 L594.78 373.26 L593.73 374.66 L593.24 376 L593.22 376.32 L593.15 377.3 L593.2 378.64 L591.84 393.64 L588.34 405.66 L588.33 408.33 L587.77 411 L587.71 412.41 L588.15 414.17 L588.75 415.43 L589.01 416.69 L588.48 418.46 L586.37 422.81 L582.67 428.58 L580.97 433.21 L580.26 434.46 L579.18 435.61 L576.48 437.31 L575.49 438.22 L574.21 441.24 L568.83 449.22 L566.51 455.06 L565.66 456.45 L564.47 457.59 L561.98 459.32 L561.19 460.64 L561.17 462.12 L562.06 462.67 L563.02 462.65 L570.41 462.47 L573.21 462.08 L575.64 460.88 L577.95 458.69 L579.13 457.91 L580.86 457.43 L582.39 456.56 L585.31 453.81 L586.85 453.76 L587.27 454.27 L588.11 456.74 L588.09 456.99 L587.81 457.6 L587.8 457.85 L588.03 458.19 L588.66 458.83 L588.85 459.14 L589.12 460.8 L588.95 463.67 L589.31 465.15 L590.52 466.81 L591.79 467.14 L593.15 466.61 L595.46 465.08 L595.99 464.81 L596.82 464.56 L597.59 464.58 L598.18 464.78 L598.68 464.79 L599.18 464.24 L600.46 465.47 L601.58 466.14 L601.95 466.92 L600.98 468.49 L602.12 469.82 L602.46 471.11 L603.23 474.08 L604 477.06 L604.78 480.04 L605.55 483.01 L606.33 485.99 L607.1 488.97 L607.88 491.94 L608.65 494.92 L609.37 497.66 L610.71 499.95 L611.95 501.29 L613.28 502.73 L614.6 504.16 L615.92 505.6 L617.24 507.04 L618.57 508.48 L619.89 509.91 L621.21 511.35 L622.53 512.79 L624.13 514.52 L624.92 515.18 L625.6 515.45 L626.24 515.62 L626.86 515.96 L626.9 515.98 L627.7 516.79 L628.35 517.82 L628.81 518.96 L629 520.11 L628.87 521.22 L628.27 523.44 L628.19 524.54 L628.55 526.06 L630.79 530.29 L632.24 534.93 L632.37 537.55 L631.28 539.1 L630.12 539.1 L628.7 538.86 L627.44 539.02 L626.76 540.25 L626.44 541.58 L625.89 542.65 L625.09 543.56 L624.1 544.38 L623.37 544.74 L622.61 545.02 L622 545.46 L621.77 546.25 L622.08 546.85 L623.49 548.49 L623.97 549.24 L624.25 550.42 L624.43 553.37 L624.27 554.56 L622.92 558.72 L622.3 565.84 L622.5 567.22 L623.42 569.88 L623.65 571.18 L623.38 572.67 L622.8 574.04 L622.39 575.44 L622.62 577.04 L624.46 580.04 L626.93 581.84 L628.2 582.27 L629.88 582.84 L633.18 583.45 L638.71 583.37 L640.97 584.01 L643.29 587.03 L643.65 587.25 L643.81 587.61 L643.17 590.37 L643.12 590.95 L643.31 592.97 L643.8 594.94 L644.53 596.86 L648.24 604.04 L649.4 605.41 L650.17 605.91 L652.02 606.75 L652.92 607.29 L654.5 608.63 L655.26 609.05 L655.27 609.06 L657.28 609.53 L662.87 610.84 L665.08 611.02 L666.13 610.85 L666.85 610.41 L667.51 609.85 L668.35 609.31 L669.09 609.27 L669.82 609.42 L670.24 609.17 L670.07 607.97 L672 607.94 L673.6 607.66 L675.19 607.56 L677.11 608.05 L676.84 606.93 L677.28 606.43 L678.14 606.31 L680.42 606.39 L680.97 606.78 L681.36 607.33 L682.15 607.89 L682.62 607.94 L683.1 607.79 L684.01 607.26 L684.59 607.13 L684.92 607.4 L685.09 607.77 L685.2 607.95 L685.25 608.01 L686.59 608.09 L686.57 608.01 L686.64 607.9 L687.86 607.58 L689.36 607.97 L690.7 609.08 L691.51 608.86 L693.28 608.05 L694.33 607.83 L695.38 607.93 L697.55 608.52 L698.67 608.61 L701.47 608.07 L702.5 608.18 L703.11 608.65 L703.25 609.44 L703.3 610.29 L703.65 610.99 L704.55 611.37 L707.84 611.45 L708.63 611.84 L709.15 612.28 L709.81 612.47 L711 612.09 L711.86 611.48 L712.41 610.87 L713.04 610.46 L717.79 610.98 L721.44 610.55 L724.81 609.29 L727.67 607.25 L728.39 606.31 L728.7 605.64 L729.24 605.28 L730.63 605.23 L733.2 604.37 L736.14 604.15 L740.18 603.19 L742.18 603.15 L742.62 603.37 L743.58 604.19 L744.21 604.42 L746.49 604.94 L747.6 604.9 L749.5 604.3 L750.58 604.11 L751.06 604.54 L754.47 608.87 L755.15 609.27 L756.22 609.55 L756.94 609.57 L758.48 609.37 L759.13 609.41 L759.44 609.61 L759.85 610.22 L760.06 610.4 L761.06 610.76 L768.06 614.12 L770.18 614.21 L773.97 612.06 L776.41 611.45 L778.92 611.32 L780.85 611.79 L783.04 613.7 L784.2 615.16 L789.31 621.64 L794.42 628.12 L799.53 634.6 L804.63 641.07 L809.74 647.55 L814.85 654.02 L819.95 660.49 L825.06 666.96 L827.02 669.43 L827.8 669.43 L827.86 669.43 L829.54 668.95 L832.77 667.44 L834.58 667.12 L835.93 667.81 L838.81 671.11 L840.32 672.25 L844.15 670.08 L848.14 666.2 L849.59 665.35 L851.49 663.53 L852.78 662.96 L854.41 662.89 L855.8 663.22 L858.34 664.35 L859.53 664.01 L861.05 664.36 L862.65 664.93 L864.1 665.23 L868.4 664.99 L869.83 665.23 L874.13 666.54 L875.64 666.7 L877.04 667.01 L879.84 668.32 L881.45 668.51 L882.35 668.1 L884.12 666.54 L884.86 666.2 L889.05 665.97 L894 664.5 L895.45 664.35 L896.85 664.51 L901.27 665.73 L903.75 665.72 L911.43 662.96 L914.37 662.55 L922.96 663.38 L925.72 662.96 L928.06 662.15 L928.71 662.03 L929.35 661.82 L929.88 661.3 L930.23 660.62 L930.36 659.93 L930.68 659.07 L931.46 658.86 L932.37 658.89 L933.12 658.75 L933.83 658.17 L935.07 656.88 L935.88 656.48 L936.46 656.46 L937.66 656.81 L942.36 657.21 L952.93 659.68 L954.89 660.91 L956.68 662.64 L958.55 664.05 L961.21 664.3 L961.28 664.3 L960.86 664.62 L959.52 665.63 L958.79 666.42 L958.49 667.35 L958.51 669.96 L960.99 673.87 L962.72 675.11 L963.24 676.47 L963.4 678.03 L963.13 679.19 L962.31 679.87 L959.87 680.9 L958.91 681.5 L955.73 684.99 L955.11 686.06 L951.1 689.86 L949.48 692.3 L948.41 694.99 L947.87 697.89 L947.87 700.99 L948.64 704.97 L948.75 706.3 L948.98 706.61 L949.99 707.6 L950.22 707.92 L950.03 708.74 L949.63 709.29 L949.16 709.74 L948.75 710.23 L948.01 712.68 L947.64 713.05 L946.84 713.25 L946.11 713.78 L944.87 715.13 L944.3 715.52 L942.31 716.28 L941.95 716.57 L941.3 717.35 L940.93 717.67 L940.62 717.73 L939.87 717.61 L939.56 717.67 L937.05 719.75 L935.38 722.43 L934.77 725.27 L935.42 727.87 L936.03 728.95 L936.45 729.97 L936.72 731.15 L936.8 732.76 L936.66 733.34 L936.05 734.94 L935.88 735.76 L935.85 736.53 L935.92 737.23 L936.06 737.89 L936.29 738.57 L936.72 739.22 L937.93 740.63 L938.17 741.09 L938.03 741.81 L937.72 742.27 L937.4 742.61 L937.26 742.96 L937.37 745.96 L937.26 747.25 L936.39 749.88 L935.93 752.48 L935.88 754.05 L936.01 754.5 L936.62 755.69 L936.8 756.15 L936.77 756.98 L936.56 757.43 L936.45 757.83 L936.8 758.46 L936.33 759.72 L936.17 762.7 L935.65 763.79 L934.97 764.87 L934.63 766.34 L934.42 770.09 L933.99 771.88 L934.09 774.04 L933.99 774.69 L933.63 775.24 L933.16 775.57 L932.77 776.02 L932.65 776.95 L932.87 777.7 L933.33 778.34 L933.9 778.88 L934.5 779.3 L934.5 778.84 L935.75 779.74 L936.24 780.63 L936.8 782.99 L937.07 783.26 L937.91 783.56 L938.17 783.96 L938.2 784.51 L937.82 785.45 L937.72 785.99 L937.93 786.87 L938.88 788.36 L939.1 789.24 L938.92 790.04 L937.72 792.26 L937.38 794.8 L937.75 797.04 L938.33 799.13 L938.64 801.25 L939.21 802.53 L940.47 803.57 L941.74 804.91 L942.31 807.09 L943.05 807.86 L943.5 809.11 L943.3 810.23 L943.3 810.27 L943.74 810.51 L944.33 812.12 L944.54 816.3 L944.86 817.75 L947.55 822.43 L948.19 824.09 L948.57 827.43 L949.04 829 L950.23 830.44 L951.53 831.09 L952.76 831.1 L954.01 830.87 L955.39 830.78 L957.92 831.97 L959.84 834.52 L964.38 846.37 L965.31 847.68 L966.3 848.36 L968.83 849.36 L971.07 851.68 L970.75 854.5 L969.01 857.32 L964.93 862.42 L964.11 863.05 L963.41 863.29 L961.94 863.58 L961.13 863.96 L959.87 865.13 L956.98 867.8 L954.1 870.48 L951.21 873.15 L948.33 875.82 L945.44 878.49 L942.56 881.17 L939.68 883.84 L936.79 886.51 L935.11 888.08 L933.99 889.96 L933.94 894.58 L934.93 893.79 L935.46 892.86 L936.14 892.04 L937.48 891.69 L938.96 891.76 L939.72 891.7 L941.01 891.05 L941.58 891.28 L942.31 892.11 L945.09 893.46 L946.76 893.8 L948.1 893.3 L949.39 892.98 L950.61 893.98 L951.56 895.5 L952.05 896.71 L952.43 899.75 L952.82 901.23 L953.62 901.86 L956.65 901.91 L957.89 902.29 L958.91 903.2 L959.19 903.76 L959.59 905.03 L959.87 905.54 L960.49 905.99 L961.93 906.69 L962.21 907.13 L962.45 907.68 L963.5 909 L963.78 909.26 L964.62 909.51 L965.1 910.11 L965.45 910.86 L965.89 911.56 L966.53 912.06 L968.02 912.87 L968.65 913.4 L968.97 914.09 L969.28 915.01 L969.67 915.82 L970.26 916.17 L971 916.39 L971.74 916.92 L973.02 918.2 L973.63 918.58 L976 919.35 L978.28 920.71 L978.81 921.23 L979.05 921.9 L979.08 923.18 L979.45 923.78 L979.88 925.13 L978.99 926.51 L977.69 927.74 L976.93 928.64 L976.95 929.88 L978.03 932.45 L978.5 934.53 L979.61 937.4 L980.19 938.3 L981.21 938.87 L982.42 939.24 L983.44 939.78 L983.87 940.87 L984.1 944.52 L983.87 945.7 L983.57 946.19 L982.48 947.58 L982.65 948.43 L983.13 949.12 L983.63 949.67 L984.15 950.54 L985.42 951.41 L985.71 951.93 L985.87 952.66 L987.08 954.94 L992.87 970.32 L993.06 971.78 L993.06 974.78 L993.32 976.11 L993.98 977.57 L995.41 979.94 L996.06 981.38 L996.32 982.88 L995.86 985.64 L996.12 986.58 L996.75 987.27 L997.52 987.89 L998.2 988.61 L998.91 989.95 L999.43 991.61 L999.5 993.22 L998.26 995.72 L998.6 997.31 L1000 1000.19 L997.42 1000.71 L993.05 1001.92 L987.19 1003.55 L985.79 1003.32 L985.22 1001.63 L984.97 998.11 L986.63 978.72 L986 974.45 L983.7 967.36 L981.1 962.09 L973.76 952.36 L972.15 949.5 L970.01 944.23 L968.65 941.74 L966.95 940.06 L965.88 939.54 L962.99 938.5 L961.97 938.4 L961.34 938.77 L960.2 939.97 L959.57 940.27 L957.22 940.57 L956.07 941.3 L954.25 942.88 L951.65 944.12 L946.48 949.61 L938.35 960.44 L936.31 962.36 L933.63 963.88 L931.43 964.67 L929.03 965.24 L926.61 965.32 L924.36 964.66 L922.1 962.8 L920.29 960.18 L918.9 957.25 L917.42 952.92 L916.76 951.69 L915.74 950.76 L914.2 950.13 L912.81 949.85 L912.31 949.62 L911.77 949.11 L911.63 948.6 L911.62 947.25 L911.3 946.81 L910.72 947.28 L906.67 957.36 L905.37 959.31 L905.81 959.58 L907.52 959.8 L908.15 960.6 L908 962.07 L908.15 963.29 L910.67 963.4 L911.21 963.73 L911.39 964.32 L911.33 965.17 L911.53 965.61 L912.09 966.02 L913.24 966.59 L908.17 966.6 L904.95 966.6 L896.45 966.61 L884.44 966.62 L870.67 966.63 L856.89 966.65 L844.88 966.66 L836.38 966.66 L833.16 966.66 L830.4 966.32 L825.3 964.16 L820.39 963.13 L817.81 963.29 L813.18 965.4 L810.42 965.63 L808.98 965.43 L807.79 965.4 L806.63 965.65 L803.74 967.16 L802.51 967.53 L800.24 967.51 L799.23 967.51 L799.73 970.12 L799.7 974.75 L799.68 979.38 L799.65 984 L799.63 988.64 L799.6 993.26 L799.57 997.89 L799.54 1002.52 L799.52 1007.15 L799.5 1011.18 L801.04 1011.32 L803.85 1009.51 L805.54 1009.04 L806.41 1009.08 L807.27 1009.23 L807.86 1009.59 L807.97 1011.07 L808.67 1011.23 L815.15 1010.28 L816.7 1010.34 L819.63 1011.35 L820.33 1011.44 L822.54 1011.4 L824.68 1011.09 L825.33 1011.18 L825.93 1011.46 L826.22 1011.76 L826.43 1012.07 L826.77 1012.37 L828.04 1013.13 L828.73 1013.25 L831.92 1010.94 L832.99 1010.66 L834.08 1010.86 L837.44 1012.59 L838.42 1013.28 L839.57 1014.71 L840.71 1015.47 L841.21 1015.96 L841.39 1016.59 L841.46 1017.37 L841.66 1018.06 L843.13 1018.97 L842.75 1021.41 L843.84 1022.45 L845.4 1023.05 L846.19 1023.52 L846.63 1024.08 L846.63 1025 L846.13 1025.31 L845.49 1025.41 L845.08 1025.66 L844.93 1027.06 L845.6 1030.07 L845.6 1031.61 L845.14 1032.33 L844.43 1032.85 L843.95 1033.44 L844.15 1034.37 L844.69 1034.88 L846.15 1035.57 L846.65 1036.02 L847.38 1037.53 L847.64 1038.74 L847.22 1039.59 L845.96 1040 L845.35 1039.91 L844.09 1039.45 L843.38 1039.46 L842.86 1039.79 L842.14 1040.8 L841.66 1041.12 L840.57 1041.19 L838.1 1040.83 L836.89 1040.9 L837.17 1039.05 L836.54 1038.31 L835.33 1038.33 L833.84 1038.74 L832.48 1039.36 L832.05 1039.13 L827.28 1034.32 L826.06 1033.5 L824.7 1033.18 L822.97 1033.39 L821.64 1033.98 L819.47 1035.37 L818.22 1035.52 L816.88 1036.11 L816.18 1037.58 L815.2 1038.71 L813.03 1038.26 L811.13 1037.4 L810.11 1037.49 L807.54 1039.5 L805.2 1040.73 L802.66 1041.65 L799.92 1042.21 L795.31 1042.49 L794 1042.86 L792.72 1043.08 L791.13 1042.77 L789.6 1042.81 L788.16 1043.48 L786.89 1043.83 L785.89 1042.92 L785.77 1047.61 L785.72 1049.32 L785.59 1053.85 L785.41 1060.25 L785.22 1067.58 L785.02 1074.92 L784.84 1081.31 L784.71 1085.84 L784.67 1087.56 L784.58 1090.94 L784.96 1093.31 L785.75 1094.72 L788.36 1097.73 L791.79 1100.87 L793.29 1103.1 L794.02 1103.7 L795.27 1104.19 L797.95 1104.79 L799.1 1105.52 L799.54 1106.16 L800.17 1107.66 L800.67 1108.34 L801.35 1108.81 L802.9 1109.53 L803.59 1110.02 L805.6 1112.22 L806.62 1113.04 L812.01 1115.05 L813.15 1115.66 L814.33 1116.67 L815.16 1117.86 L815.7 1119.21 L816.01 1120.7 L816.04 1122.7 L816.18 1123.36 L816.54 1124.05 L816.98 1124.56 L817.36 1125.12 L817.55 1125.94 L817.11 1127.53 L815.01 1130.71 L814.57 1131.93 L815.25 1133.51 L817.79 1136.37 L818.32 1137.32 L818.12 1139.05 L818.29 1139.72 L818.9 1140.68 L819.35 1141.09 L819.84 1141.34 L820.3 1141.71 L820.71 1142.44 L820.78 1143.22 L820.62 1143.86 L820.58 1144.53 L821.02 1145.44 L821.59 1145.9 L823.05 1146.53 L823.68 1146.93 L825.16 1149.07 L825.57 1149.41 L826.25 1149.52 L826.59 1149.66 L826.8 1149.93 L827.07 1150.44 L826.92 1150.6 L827.28 1153.16 L827.13 1153.91 L826.7 1155.29 L826.71 1156.08 L829.25 1160.17 L829.99 1162.19 L828.53 1165.95 L828.54 1166 L828.72 1169.02 L827.62 1175.23 L827.67 1178.32 L826.43 1182.92 L826.46 1184.29 L825.48 1187.68 L824.73 1191.81 L822.75 1202.67 L820.77 1213.53 L818.8 1224.39 L816.82 1235.25 L814.85 1246.12 L812.87 1256.98 L810.89 1267.85 L808.92 1278.71 L806.94 1289.58 L804.96 1300.45 L802.99 1311.32 L801.01 1322.2 L799.03 1333.08 L797.05 1343.95 L795.08 1354.83 L793.1 1365.71 L793.03 1365.87 L792.95 1366.01 L792.88 1366.16 L792.8 1366.31 L792.73 1366.45 L792.65 1366.61 L792.57 1366.76 L792.5 1366.91 L792.43 1367.05 L792.35 1367.2 L792.28 1367.35 L792.21 1367.5 L792.13 1367.65 L792.06 1367.8 L791.98 1367.95 L791.91 1368.1 L790.04 1364.35 L788.86 1362.61 L787.49 1361.02 L785.47 1359.37 L778.66 1355.89 L776.86 1354.09 L776.15 1351.86 L775.77 1349.44 L774.93 1347.07 L773.33 1344.77 L771.12 1342.45 L768.6 1340.61 L766 1339.7 L764.11 1339.9 L762.66 1340.78 L760.01 1343.2 L758.28 1343.95 L756.49 1343.93 L752.89 1343.04 L752.17 1342.54 L743.04 1337.74 L740.11 1337.42 L742.37 1333.88 L747.65 1325.63 L752.93 1317.38 L758.21 1309.11 L763.5 1300.86 L768.78 1292.6 L774.06 1284.34 L779.34 1276.1 L784.63 1267.85 L786.14 1265.45 L786.15 1265.4 L785.78 1265.27 L785 1264.66 L784.44 1263.85 L784.02 1262.85 L783.15 1259.88 L782.42 1259.39 L781.05 1260.3 L780.66 1260.92 L780.36 1261.64 L779.99 1262.2 L779.41 1262.36 L778.79 1262 L778.67 1261.41 L778.7 1260.73 L778.5 1260.05 L777.16 1259.01 L776.02 1259.33 L774.9 1259.86 L773.65 1259.38 L772.89 1258.18 L771.94 1255.31 L771.1 1254.07 L769.62 1253.33 L768.33 1253.77 L766.98 1254.59 L765.33 1255.03 L764.99 1254.83 L764.57 1254.34 L764.24 1253.72 L764.2 1253.15 L764.52 1252.83 L765.67 1252.4 L766 1252.19 L766.32 1250.72 L765.47 1250.07 L764.04 1249.91 L762.59 1249.93 L761.85 1250.1 L760.26 1250.79 L759.56 1250.85 L758.77 1250.46 L758.39 1249.89 L758.16 1249.2 L757.77 1248.46 L756.92 1247.75 L755.74 1247.16 L754.47 1246.77 L753.33 1246.63 L752.29 1246.1 L751.46 1245.13 L750.58 1244.58 L749.4 1245.32 L749.24 1245.95 L749.29 1246.71 L749.23 1247.35 L748.71 1247.63 L745.93 1247.63 L745.47 1247.27 L745.35 1246.44 L745.35 1245.5 L745.26 1244.82 L744.85 1244.09 L742.73 1242.33 L742.47 1242.19 L742.47 1240.24 L742.31 1239.71 L741.96 1239.37 L740.22 1239.15 L738.97 1238.85 L736.49 1237.97 L734.16 1236.44 L730.67 1232.72 L728.63 1231.47 L727.23 1232.09 L725.55 1231.77 L722.69 1230.55 L720.76 1230.51 L720.05 1231.45 L720.19 1232.99 L720.81 1234.7 L720.2 1235.04 L719.41 1235.13 L718.57 1234.95 L716.87 1233.93 L715.99 1233.91 L714.12 1234.24 L712.58 1234.96 L711.3 1238.15 L709.39 1239.12 L708.12 1240.11 L707.39 1240.27 L706.68 1240.03 L705.87 1239.43 L705.14 1239.26 L704.14 1239.65 L702.73 1240.39 L701.48 1240.69 L700.96 1239.76 L696.14 1242.11 L693.86 1242.59 L693.1 1241.18 L693.37 1240.67 L694.29 1239.83 L694.48 1239.26 L694.24 1238.57 L692.64 1236.54 L691.46 1234.44 L690.77 1234.2 L689.84 1235.16 L689.17 1237.69 L688.65 1238.48 L687.58 1237.97 L687.11 1236.94 L687.03 1234.12 L686.7 1232.85 L685.94 1232.28 L682.07 1231.47 L680.67 1230.72 L679.42 1229.75 L678.09 1228.96 L676.5 1228.67 L674.25 1229.84 L672.94 1230.05 L672.37 1228.9 L672.47 1226.53 L671.95 1226.17 L670.48 1226.84 L666.56 1229.31 L665.89 1229.36 L665.56 1230.06 L663.13 1233.78 L659.94 1236.25 L659.45 1236.77 L659.14 1238.27 L658.31 1239.09 L657.13 1239.39 L652.9 1238.79 L650.71 1238.82 L648.83 1239.55 L646.95 1241.18 L643.98 1244.59 L642.98 1244.9 L638.63 1243.9 L637.95 1243.96 L636.22 1244.31 L635.87 1244.59 L635.93 1245.97 L635.74 1246.44 L635.16 1246.63 L633.6 1246.79 L630.91 1247.5 L629.4 1247.63 L628.15 1247.34 L626.96 1246.71 L626.06 1245.89 L625.72 1245.08 L625.11 1244.56 L618.21 1243.47 L616.94 1243.07 L613.88 1240.59 L612.7 1239.95 L611.46 1239.76 L610.62 1240.85 L608.85 1244.53 L607.99 1245.32 L606.88 1245.7 L606.48 1245.55 L606.25 1243.78 L606.06 1243.09 L605.78 1242.5 L605.44 1242.02 L604.61 1242.42 L604.06 1242.91 L603.74 1243.53 L603.56 1244.36 L601.79 1243.1 L600.66 1242.71 L598.99 1243.55 L597.07 1244.23 L596.26 1245 L595.33 1245.34 L592.48 1245.91 L591.86 1245.92 L591.33 1245.49 L590.69 1244.36 L589.54 1241.25 L588.57 1240.39 L588.35 1240.01 L583.71 1237.46 L583.54 1238.18 L582.75 1239.71 L581.86 1240.51 L581.45 1239.07 L580.85 1238.47 L577.91 1237.74 L576.81 1237 L576.64 1236.48 L576.31 1234.47 L576.1 1234.11 L575.18 1233.4 L574.97 1233.07 L574.83 1232.67 L574.19 1231.64 L574.05 1230.98 L574.14 1230.31 L574.36 1229.87 L574.97 1229.13 L577.41 1226.93 L578.05 1225.46 L580.03 1222.2 L579.12 1221.35 L578.59 1219.93 L578.23 1218.39 L577.77 1217.13 L576.6 1215.39 L576.14 1214.51 L575.89 1213.45 L575.98 1212.5 L576.66 1210.81 L576.81 1210.19 L576.42 1209.06 L574.83 1207.19 L574.47 1206.25 L574.97 1203.75 L574.51 1203.01 L573.95 1202.65 L573.32 1202.38 L572.67 1201.91 L570.87 1199.89 L570.18 1199.89 L569.91 1201.67 L569.48 1201.9 L567.22 1201.32 L566.19 1201.44 L565.1 1202.5 L564.59 1203.25 L563.9 1203.14 L562.28 1201.67 L561.44 1201.14 L560.63 1201.02 L559.88 1201.06 L558.92 1200.95 L558.18 1201.05 L557.87 1200.99 L557.77 1200.76 L557.55 1199.86 L557.45 1199.6 L553.1 1196.94 L551.75 1195.27 L551.89 1192.66 L552.66 1190.43 L553.24 1189.41 L554.88 1188.44 L554.94 1187.15 L554.24 1184.34 L554.14 1183.46 L554.15 1182.75 L554.03 1182.08 L553.51 1181.35 L552.09 1180.31 L551.33 1179.13 L548.84 1177.96 L548.22 1176.94 L549.27 1175.66 L549.6 1174.95 L548.54 1174.46 L548.16 1174.02 L547.84 1173.47 L547.72 1173.01 L547.64 1171.55 L547.51 1170.99 L547.29 1170.5 L547.04 1170.44 L546.15 1170.56 L545.87 1170.5 L545.75 1170.19 L545.65 1169.46 L545.16 1168.41 L544.99 1167.67 L544.64 1167.07 L543.06 1166.61 L541.77 1165.66 L541.03 1165.44 L539.46 1165.18 L538.19 1164.46 L537.24 1163.44 L536.68 1162.23 L535.67 1162.6 L534.58 1164.31 L533.46 1164.94 L532.66 1164.92 L531.58 1164.69 L529.78 1164.06 L528.85 1163.45 L528.19 1162.74 L526.98 1160.84 L525.95 1158.17 L525.56 1157.54 L524.44 1157.14 L522.34 1157.61 L521.42 1157.12 L521.33 1156.56 L521.96 1155.38 L521.88 1154.82 L521.32 1154.34 L520.98 1154.52 L520.75 1154.95 L520.5 1155.25 L519.77 1155.59 L519.41 1155.94 L519.03 1156.05 L518.2 1155.7 L517.66 1155.25 L517.33 1154.67 L515.75 1149.98 L514.98 1149.27 L513.94 1151.24 L512.11 1151.29 L508 1149.73 L503.99 1148.99 L502.2 1148.01 L500.69 1146.04 L499.73 1142.99 L499.06 1142.1 L497.38 1140.97 L496.97 1140.36 L497.43 1139.56 L498.26 1139.41 L499.35 1139.6 L500.29 1139.6 L500.69 1138.85 L500.32 1138 L499.63 1137.29 L499.24 1136.51 L499.77 1135.43 L499.25 1135.2 L498.08 1135.16 L497.43 1134.97 L496.97 1134.66 L494.69 1132.13 L494.22 1131.15 L494.25 1129.86 L494.56 1129.29 L495.43 1128.54 L495.59 1128.07 L492.37 1121.13 L492.24 1120.52 L492.23 1120.5 L492.16 1119.75 L492.01 1119.08 L491.68 1118.78 L490.76 1118.75 L490.4 1118.6 L489.82 1117.66 L488.93 1116.66 L488.13 1115.96 L484.04 1113.51 L482.29 1112.12 L479.45 1109.13 L477.55 1105.93 L476.9 1105.41 L476.18 1105.56 L475.62 1105.89 L475.19 1106.21 L474.86 1106.37 L473.92 1106.33 L473.52 1106.08 L473.31 1105.74 L472.97 1105.41 L472.5 1105.06 L472.22 1104.77 L471.8 1104.57 L470.12 1104.41 L468.8 1104.07 L468.1 1103.99 L466.91 1103.58 L467.44 1102.68 L469.29 1101.27 L467 1096.61 L466.04 1095.26 L464.62 1094.01 L463.82 1094.2 L462.15 1096.89 L461.39 1097.48 L460.71 1097.53 L459.6 1097.13 L457.3 1096.63 L455.85 1096 L454.96 1095.31 L452.2 1092.31 L451.78 1091.99 L451.15 1091.8 L449.97 1091.78 L449.4 1091.57 L448.62 1090.82 L445.97 1087.18 L444.69 1086.17 L443.27 1085.46 L440.24 1084.63 L438.89 1084.49 L437.86 1084.71 L437.21 1085.4 L436.98 1086.7 L436.64 1087.57 L435.81 1088.56 L434.74 1089.38 L433.72 1089.74 L432.48 1089 L428.2 1087.43 L424.44 1086.72 L423.12 1085.77 L421.51 1085.21 L417.59 1082.8 L414.42 1079.97 L413.22 1079.57 L412.53 1079.14 L411.67 1078.18 L410.61 1077.22 L409.27 1076.78 L408 1076.93 L405.09 1077.59 L403.54 1077.74 L402.05 1077.61 L400.74 1077.29 L399.63 1076.85 L397.74 1075.79 L395.03 1073.79 L394.47 1072.86 L390.38 1070.34 L388.7 1068.79 L387.96 1067.71 L387.66 1066.41 L387.32 1065.56 L382.81 1059.86 L382.52 1059.06 L381.87 1058.05 L380.35 1058.23 L378.65 1058.78 L377.42 1058.84 L377.07 1058.31 L376.69 1056.53 L376.29 1055.81 L375.73 1055.56 L374.97 1055.51 L373.51 1055.58 L371.86 1055.47 L370.4 1055.14 L369.06 1054.55 L367.76 1053.7 L365.91 1051.74 L365.23 1051.44 L364.49 1051.65 L363.26 1052.57 L362.91 1052.78 L362.54 1053.12 L360.86 1055.12 L360.24 1055.35 L359.52 1055.49 L358.06 1055.58 L357.43 1055.46 L357.46 1055.9 L357.3 1060.92 L357.99 1065.39 L356.8 1066.18 L350.12 1066.96 L348.38 1067.85 L347.39 1067.98 L346.12 1067.54 L344.32 1065.86 L343.25 1065.12 L342.29 1064.83 L339 1064.47 L336.67 1063.84 L335.84 1064.15 L336.01 1066.83 L334.99 1066.86 L332.59 1065.78 L331.74 1065.7 L327.06 1066.4 L326.04 1066.36 L325.07 1066.01 L323.92 1065.17 L322.45 1063.68 L321.77 1063.2 L320.65 1062.81 L319.81 1062.67 L317.12 1062.62 L315.12 1061.94 L312.54 1059.03 L311.13 1058.68 L310.21 1058.45 L309.05 1058.67 L305.65 1059.94 L304.19 1060.02 L303.14 1059.71 L302.14 1059.2 L300.87 1058.74 L293.71 1057.29 L291.36 1056.42 L289.54 1055.03 L288.85 1053.31 L288.55 1051.3 L287.94 1049.04 L287.51 1041.96 L286.6 1038.7 L283.82 1038 L283.5 1038.04 L281.53 1038.32 L279.07 1037.34 L274.65 1034.29 L273.22 1032.17 L272.78 1027.33 L270.77 1025.75 L269.1 1025.73 L263.73 1027.77 L262.38 1028.05 L261.02 1028.03 L259.58 1027.7 L258.01 1027.1 L257.29 1026.49 L257.16 1025.76 L257.18 1025.01 L256.94 1024.33 L256.28 1023.64 L255.96 1023.6 L255.61 1023.78 L254.88 1023.76 L250.3 1022.04 L245.53 1021.86 L242.7 1020.48 L233.93 1013.86 L232.55 1013.13 L228.55 1012.05 L227.26 1011.42 L225.67 1010.21 L219.33 1003.16 L218.58 1002.58 L218.1 1002.2 L214.37 1001.35 L213.36 1001.43 L212.39 1001.99 L212.01 1000.9 L210.6 999.41 L210.34 998.72 L210.22 997.42 L209.59 997.23 L208.65 997.53 L207.59 997.71 L206.01 997.22 L204.69 996.19 L203.68 994.83 L203.02 993.34 L202.32 992.21 L200.34 990.6 L198.92 988.63 Z M241.93 905.53 L242.02 905.85 L243.6 907.79 L244.23 909.25 L244.3 911.41 L243.55 913.27 L241.72 913.82 L240.16 912.89 L238.35 911.05 L236.84 909.03 L236.2 907.58 L236.41 906.64 L236.87 906.23 L237.33 905.92 L237.65 905.2 L237.16 904.47 L236.18 902.64 L236.31 901.85 L236.98 901.48 L238.14 902.09 L239.6 901.6 L241.01 902.4 L241.38 903.63 L241.91 904.26 L242.09 905.1 Z M257.35 900.88 L258.32 901.47 L260.85 904.8 L261.87 905.59 L264.14 906.89 L265.26 907.79 L263.68 908.81 L261.56 908.9 L259.55 908.42 L258.32 907.79 L258.81 907.37 L258.32 906.87 L259.72 905.54 L259.7 904.68 L258.81 904.24 L257.61 904.11 L256.57 903.41 L256.15 901.99 L256.41 900.82 Z M263.83 903.19 L266.42 905.17 L267.34 906.16 L267 907.16 L265.87 907.3 L264.13 906.43 L261.08 904.11 L259.22 901.65 L258.81 900.88 L258.6 900.09 L258.51 899.3 L258.69 898.97 L259.23 899.5 L259.44 899.66 L260.2 899.96 L260.37 899.54 L260.57 899.34 L260.81 899.22 L261.08 899 L262.95 900.88 L263.22 901.41 L263.54 902.69 Z M294.35 795.01 L295.74 795.71 L297.14 795.54 L298.51 795.21 L299.82 795.47 L298.59 797.43 L297.72 798.23 L296.86 797.89 L295.69 796.4 L294.03 797.02 L292.43 797.29 L288.89 797.25 L287.56 796.96 L286.72 796.9 L285.68 797.1 L285.09 797.57 L284.66 798.17 L284.15 798.7 L281.67 799.46 L281.39 799.67 L281.11 799.1 L281.14 798.16 L281.47 797.29 L282.1 796.9 L283 796.61 L284.47 795.3 L285.32 795.01 L286.22 795.12 L287.85 795.49 L288.79 795.47 L288.47 794.93 L287.45 794.22 L286.95 793.63 L289.29 793.63 L287.68 793.23 L287.86 792.58 L288.97 791.87 L290.17 791.28 L289.8 791.16 L289.58 791.02 L289.31 790.9 L288.79 790.82 L288.87 790.54 L288.96 790.34 L289.29 789.9 L291.09 790.82 L292.12 791.68 L292.84 792.64 L293.39 793.74 Z M0.82 232.36 L0.26 230.97 L0.45 229.58 L1.17 228.4 L2.2 227.65 L2.51 228.42 L1.28 233.64 L0.42 233.78 L0 233.15 Z M22.97 177.34 L22.73 175.8 L23.23 174.33 L24.13 173.55 L25.07 174.09 L25.42 175.3 L25.02 176.31 L24.13 177.02 Z M7.54 815.7 L7.3 815.54 L7.23 815.37 L7.34 815.01 L7.67 814.62 L8.05 814.49 L8.17 814.31 L8.23 813.71 L8.59 813.52 L8.97 813.57 L9.33 813.44 L9.53 813.5 L9.76 814.4 L9.66 814.54 L9.35 814.64 L9.07 814.93 L8.72 814.9 L7.91 815.61 Z M238.21 881.05 L239.15 880.23 L239.71 880.29 L239.59 881.23 L239.59 882.18 L239.52 883.12 L238.52 884.25 L237.76 884.88 L236.76 885.13 L235.94 884.88 L235.94 884.18 L237.01 884.06 L237.33 883.05 L237.64 881.74 Z M413.3 380.46 L414.04 379.77 L414.56 380.11 L415.38 380.46 L416.59 380.81 L416.76 381.63 L416.03 382.41 L415.38 382.32 L414.6 382.1 L414.03 382.45 L413.86 383.32 L413.6 383.79 L413.04 383.79 L412.78 382.97 L412.69 381.84 L412.91 380.98 Z M110.03 159.4 L110.03 159.44 L110.07 159.43 L110.06 159.5 L110 159.52 L110 159.47 L109.96 159.48 L109.96 159.42 Z M116.81 5.06 L116.9 4.98 L117 5.1 L116.88 5.12 Z M207.87 0.36 L207.65 0.23 L207.89 0 Z "/>
</g>
</svg>
