<svg xmlns="http://www.w3.org/2000/svg" viewBox="0 0 1000 791.38">
<g fill="#ccc" stroke="#333" stroke-width="0.5" stroke-linejoin="round">
<path fill-rule="evenodd" d="M437.38 735.16 L443.69 737.95 L484.01 764.79 L492.73 778.21 L490.14 784.42 L478.57 786.06 L460.63 786.06 L409.05 775.55 L355.8 774.1 L343.5 769.73 L340.16 763.9 L340.9 750.48 L338.73 743.14 L332.12 736.87 L325.19 733.89 L319.75 729.72 L317.52 719.4 L316.66 691.36 L321.11 679.84 L333.54 684.27 L344.36 690.09 L376.28 696.17 L390.62 700.6 L430.21 727.06 Z M1000 676.68 L999.57 771.5 L995.36 785.56 L986.64 791.38 L979.96 788.59 L972.17 782.01 L965.86 774.03 L963.26 767.26 L961.78 757.57 L957.63 752.06 L901.6 713.32 L895.36 703.26 L890.72 691.36 L879.21 685.6 L849.16 679.34 L801.9 655.04 L795.53 649.91 L765.04 631.69 L754.78 620.49 L767.02 620.11 L777.17 622.64 L796.71 631.12 L809.94 634.54 L834.5 638.14 L843.47 641.75 L847.49 638.52 L855.09 634.54 L858.99 631.12 L881.81 635.86 L901.97 617.33 L913.54 588.42 L910.88 562.17 L918.3 559.95 L928.75 553.82 L936.92 551.54 L940.69 549.9 L943.97 547.43 L947.62 545.53 L952.87 545.72 L957.26 548.95 L963.26 559.76 L965.86 562.17 L997.96 665.79 Z M192.53 357.22 L194.45 364.99 L199.21 373.77 L217.02 397.53 L216.65 404.04 L208.05 417.88 L205.58 425.72 L204.71 431.35 L202.73 435.71 L197.17 439.69 L189.93 442.03 L179.6 443.55 L170.57 442.53 L166.55 436.72 L161.67 426.99 L119.12 387.42 L107.86 382.74 L75.27 380.85 L67.29 378.83 L58.57 374.02 L43.91 362.27 L37.73 354.37 L35.62 347.48 L34.63 340.72 L31.17 333.14 L11.81 314.19 L3.46 301.74 L0 282.73 L2.1 275.15 L7.05 265.74 L23.5 241.74 L23.69 233.47 L21.52 225.13 L20.78 216.04 L31.29 78.93 L29.69 69.84 L25.54 61.51 L32.96 48.07 L40.2 29.02 L48.12 14.19 L57.08 13.88 L89.37 2.9 L108.29 0 L122.21 5.68 L131.3 17.66 L138.04 30.16 L141.51 44.29 L124.56 189.08 L131.36 220.52 L165.13 269.09 L177.38 300.86 L177.75 308.82 L176.57 325.25 L177.38 333.14 L180.84 338.83 L185.85 343.76 L190.49 349.38 Z "/>
</g>
</svg>
