<svg xmlns="http://www.w3.org/2000/svg" viewBox="0 0 1000 1587.49">
<g fill="#ccc" stroke="#333" stroke-width="0.5" stroke-linejoin="round">
<path fill-rule="evenodd" d="M926.95 1579.72 L928.51 1580.31 L929.8 1581.51 L932.2 1584.5 L932.53 1585.9 L931.19 1586.83 L929.24 1587.33 L927.76 1587.49 L926.03 1587.27 L924.8 1586.65 L923.84 1585.59 L922.94 1584.12 L923.49 1582.62 L924.54 1581.15 L925.79 1580.09 Z M953.57 1314.44 L953.34 1317.08 L953.66 1320.51 L953.54 1323.68 L951.97 1325.51 L951.97 1323.81 L951.35 1322.57 L950.55 1321.77 L949.86 1320.84 L949.56 1319.11 L950.1 1318.11 L952.68 1315.19 Z M926.23 4.05 L923.75 4.05 L921.78 3.48 L919.6 2.13 L918.29 0.74 L918.93 0 L926.23 3.31 Z M708.05 1492.39 L710.33 1492.49 L712.68 1493.11 L714.52 1494.34 L715.27 1496.25 L715.31 1498.8 L715.09 1499.97 L714.46 1500.99 L711.22 1500.46 L710.81 1500.56 L708.58 1499.39 L703.91 1499.76 L702.36 1498.4 L703.23 1497.46 L703.94 1495.1 L704.1 1493.58 L705.04 1492.76 Z M1000 1362.94 L999.39 1365.02 L998.15 1365.93 L996.77 1365.5 L995.71 1363.63 L995.75 1361.45 L996.97 1360.71 L998.64 1361.25 Z M910.06 1342.8 L909.66 1345.12 L907.92 1345.99 L905.74 1345.49 L904 1343.62 L903.38 1340.58 L905.13 1340.13 L907.83 1341.22 Z M887.74 1322.61 L886.24 1321.28 L886.8 1321.47 L887.16 1321.81 Z M885.47 1319.86 L884.75 1320.61 L884.33 1320.7 L884.49 1320.35 Z M810.57 1252.37 L809.13 1251.75 L807.63 1250.53 L807 1249.39 L808.16 1248.99 L808.75 1249.64 L809.07 1250.86 L809.75 1251.75 L811.41 1251.36 L811.31 1251.73 L811.14 1251.97 Z M0 230.8 L1.02 230.62 L1.5 230.6 L1.98 230.74 L1.23 231.67 L0.68 231.97 L0.29 231.67 Z M568.43 171.07 L567.48 170.18 L567.23 169.81 L569.17 170.93 L574.08 175.93 Z M556.47 129.64 L558.58 128.73 L557.93 129.8 L556.56 130.78 Z M709.54 1197.88 L711.01 1197.65 L712.26 1198.68 L712.33 1199.69 L711.91 1199.23 L711.71 1198.42 L711.35 1198.31 L710.23 1200.62 L710.19 1201.05 L710.56 1203.76 L709.81 1204.97 L708.54 1204.91 L707.7 1203.76 L707.52 1202.22 L708.04 1199.83 L708.51 1199.01 Z "/>
</g>
</svg>
