<svg xmlns="http://www.w3.org/2000/svg" viewBox="0 0 1000 1264.27">
<g fill="#ccc" stroke="#333" stroke-width="0.5" stroke-linejoin="round">
<path fill-rule="evenodd" d="M751.11 61.15 L753.22 60.84 L754.34 61.41 L755.1 61.29 L756.27 61.9 L756.27 62.34 L755.7 62.76 L755.7 63.52 L756.65 63.41 L757.76 62.35 L757.95 61.44 L758.95 61.64 L762.56 63.53 L766.97 68.68 L772.58 79.04 L776.56 90.05 L776.05 97.12 L772.83 93.12 L767.06 78.81 L770.77 96.65 L770.4 103.86 L764.06 109.32 L767.41 108.7 L769.68 107.14 L771.82 105.19 L774.69 103.36 L773.69 104.5 L773.45 105.86 L773.83 107.48 L774.69 109.32 L775.53 106.69 L776.46 101.56 L777.69 98.78 L788.33 128.32 L801.67 159.93 L817.41 186.38 L859.29 241.42 L862.66 244.01 L876.65 261.21 L885.29 269.78 L890.52 266.84 L892.52 268.12 L898.31 269.14 L899.5 270.84 L899.66 275.01 L900.36 278.48 L901.97 281.56 L904.83 284.54 L915.05 299.77 L918.32 302.11 L930.97 319.27 L940.51 328.31 L946.12 326.59 L947.39 330.09 L948.59 339.06 L950.62 343.18 L954.01 345.79 L968.74 350.93 L973.97 351.48 L979.12 351.3 L983.96 351.7 L988.23 353.96 L993.72 362.28 L997.42 364.54 L997.64 364.68 L1000 373.03 L998.29 373.13 L994.94 371.35 L991.6 370.81 L990.04 373.21 L989.12 381.75 L987.7 384.6 L984.79 385.06 L980.71 384.35 L976.87 383.16 L974.71 382.14 L972.37 379.54 L969.57 374.17 L967.32 371.62 L965.56 372.44 L963.44 371.65 L954.28 363.86 L941.56 358.77 L937.51 359.23 L933.43 362.7 L930.94 366.24 L930.53 368.31 L933.19 373.04 L934.71 379.15 L935.65 380.43 L937.09 380.87 L938.1 381.49 L937.75 383.3 L934.47 385.18 L922.77 386.79 L918.66 388.25 L916.82 391.36 L916.25 395.63 L916.49 414.07 L916.83 440.74 L917.3 477.16 L917.33 479.62 L923.9 476.86 L925.93 476.84 L927.45 477.98 L928.24 479.66 L928.86 481.42 L929.83 482.78 L931.12 483.54 L936.06 485.75 L946.14 493.23 L956.12 496.64 L959.1 498.62 L964.76 508.21 L965.63 510.31 L965.46 510.59 L962.45 515.54 L955.88 519.54 L933.24 528.85 L930.68 530.69 L928.54 533.55 L929.58 534.56 L931.33 535.64 L931.29 538.66 L929.24 541.04 L922.71 545.13 L920.93 547.05 L920.67 550.37 L921.76 553.51 L923.71 556.43 L930.6 564.17 L934.27 569.36 L937 575.1 L938.74 581.84 L940.03 597.32 L939.39 605.12 L937.33 611.66 L932.47 617.67 L926.74 620.5 L920.54 622.41 L914.23 625.66 L904.51 634.97 L894.52 640.61 L892.58 642.18 L892.33 644.96 L894.35 647.13 L900.5 650.75 L901.66 652 L903.78 655.14 L905 656.12 L906.39 656.2 L909.04 655.14 L911.05 655.42 L914.89 657.45 L916.39 659.73 L917.39 666.76 L928.96 692.19 L927.87 702.09 L926.5 707.15 L923.51 704.8 L923.85 701.41 L925.51 697.68 L926.5 694.27 L925.89 691.56 L910.94 665.79 L905.65 660.21 L878.37 640.3 L870.9 632.94 L877.35 625.03 L878.54 624.4 L879.77 622.12 L882.16 619.17 L883.67 615.76 L882.28 612.21 L875.11 603.22 L873.9 600.7 L873.78 597.42 L875.35 596.27 L878.08 595.46 L881.53 593.26 L878.94 592.43 L872.53 592.78 L869.4 591.61 L867.76 589.78 L863.4 581.13 L864.12 579.98 L864.47 579.21 L864.9 577.96 L866.4 577.96 L868.51 581.56 L869.16 583.33 L869.4 586.3 L870.36 586.8 L876.89 584.17 L876.89 582.51 L873.89 581.24 L870.71 578.87 L868 576.04 L866.4 573.41 L864.9 573.41 L863.23 576.13 L859.24 576.3 L854.68 575.76 L851.27 576.44 L849.66 573.46 L847.09 570.33 L844.05 568.74 L840.93 570.39 L833.97 566.28 L831.93 562.94 L833.29 558.25 L831.79 558.14 L830.3 558.25 L831.2 554.62 L828.09 552.87 L823.46 551.91 L819.79 550.68 L818.5 553.28 L817.34 553.09 L815.9 552.03 L813.67 552.04 L812.63 553.24 L812.36 554.8 L811.45 556.15 L808.48 556.73 L801.22 555.64 L798.26 556.72 L797.17 561.14 L798.83 559.87 L798.81 559.77 L800.17 559.77 L807.88 571.42 L808.9 574.95 L813.4 582.07 L815.15 584.17 L818.05 585.66 L826.25 588.15 L829.55 588.58 L832.57 590.39 L835.44 593.92 L838.22 596.3 L840.93 594.65 L841.04 600.12 L840.61 602.37 L839.28 603.87 L839.28 605.39 L842.59 609.94 L843.93 617.71 L843.35 625.78 L840.93 631.29 L836 631.47 L827.97 628.88 L820.4 625.21 L816.81 622.2 L818.16 622.2 L819.14 622.99 L819.94 623.35 L822.93 623.7 L818.69 621.8 L816.98 620.67 L815.15 619.03 L815.15 622.2 L802.5 616.65 L797.99 616 L784.55 617.63 L780.82 617.65 L777.65 616.14 L774.73 613.13 L769.38 606.15 L750.29 588.31 L749.07 586.3 L748.12 586.06 L743.63 584.21 L742.26 583.34 L741.58 576.44 L748.26 566.1 L749.82 564.32 L753.26 562.25 L755.62 561.34 L756.7 561.98 L757.4 563.31 L758.92 561.78 L764.26 553.58 L765.7 552.04 L762.95 548.52 L766.26 544.55 L772.29 541.3 L777.69 539.91 L777.69 538.54 L772.94 537.97 L770.55 538.19 L768.92 539.51 L766.38 542.25 L763.81 543.46 L762.95 541.33 L763.99 537.56 L767.07 533.85 L772.51 531.19 L775.01 529.45 L776.05 526.95 L774.69 524.7 L771.84 523.13 L769.25 521.04 L768.7 517.16 L772.94 519.34 L775 519.98 L777.69 520.06 L776.38 518.43 L774.71 517.19 L771.55 515.5 L770.21 514.39 L769.45 513.36 L768.28 512.65 L765.7 512.47 L768.36 510.86 L767.99 509.7 L766.46 508.81 L765.7 508.05 L766.69 505.61 L767.82 503.79 L769.35 502.18 L771.55 500.34 L765.74 485.01 L764.66 483.06 L761.06 479.09 L759.56 480.59 L754.63 474.16 L750.14 466.66 L744.37 460.78 L735.59 459.2 L736.09 453.47 L731.26 448.56 L724.62 445.17 L719.71 443.88 L702.46 427.32 L685.55 419.42 L682.84 417.31 L661.72 408.96 L660.36 408.96 L658.94 410 L657.7 409.99 L656.68 409.04 L655.85 407.3 L652.84 408.61 L651.05 407.17 L649.01 405.07 L645.24 404.4 L647.6 400.29 L644.46 394.51 L638.73 389.43 L633.24 387.55 L633.24 389.05 L635.16 389.43 L636.47 389.98 L639.37 392.1 L633.66 391.09 L624.61 385.74 L618.86 384.51 L613.3 384.07 L583.94 375.85 L578.32 375.39 L575.7 375.85 L572.88 376.75 L569.96 377.34 L567.01 376.9 L564.44 374.73 L563.57 372.1 L562.54 369.98 L559.53 369.3 L560.09 370.2 L560.41 370.87 L560.87 372.48 L557.25 369.54 L549.11 364.26 L547.53 360.95 L546.75 357.88 L544.82 356.41 L542.38 355.44 L540.02 353.96 L539.27 351.7 L539.59 349.38 L538.98 347.87 L535.54 348.02 L536.41 345.49 L536.16 343.06 L535.6 340.78 L535.54 338.76 L536.83 336.26 L540.61 332.48 L542.11 328.71 L543.64 326.84 L545.19 324.41 L545.89 321.2 L545.16 318.53 L543.45 316.22 L540.02 312.77 L531.14 299.49 L528.66 297.54 L525.1 296.01 L525.57 292.64 L528.66 287.52 L523.26 283.06 L522.27 280.89 L523.41 277.63 L517.11 275.69 L497.65 277.63 L497.65 275.97 L500.35 274.91 L503.81 274.53 L511.42 274.58 L511.42 273.06 L504.42 272.72 L498.18 271.61 L492.53 269.67 L487.3 266.84 L480.68 261.32 L479.67 260.12 L478.25 259.79 L475.46 257.9 L473.5 255.79 L474.55 254.79 L470.88 252.88 L461.87 244.4 L457.08 242 L454.82 239.9 L453.43 239.43 L452.33 239.93 L451.39 240.77 L450.14 240.96 L448.2 239.43 L449.49 237.06 L449.92 235.55 L448.93 234.86 L448.07 234.45 L445.2 231.82 L441.24 233.12 L426.38 233.34 L422.45 232.33 L418.94 229.86 L413.44 224.08 L413.44 222.69 L414.7 218.61 L410.86 213.92 L401.44 207.31 L402.78 211.82 L409.12 216.48 L410.58 221.92 L411.16 232.27 L412.48 238.34 L415.07 242.48 L412.21 244.33 L412.62 247.42 L415.21 250.33 L421.92 252.7 L424.3 255.3 L427.2 260.88 L428.56 260.88 L430.33 260.15 L431.1 260.75 L431.43 262.27 L429.52 262.42 L427.54 262.16 L425.67 261.6 L424.06 260.88 L424.06 262.27 L428.18 265.94 L433.2 270.41 L446.52 275.85 L448.2 276.8 L449.76 276.19 L453.26 277.63 L461.74 282.53 L465.65 283.8 L469.85 283.9 L473.8 282.19 L476.39 284.27 L481.92 287.77 L484.44 289.94 L484.44 291.33 L480.06 292.39 L480.26 295.6 L482.91 299.34 L485.8 302.11 L484.01 302.73 L482.32 303.93 L479.67 306.67 L482.91 308.14 L486.75 308.58 L494.65 308.33 L494.65 309.72 L491.56 311.82 L487.63 313.47 L484.24 315.76 L482.8 319.68 L481.97 320.58 L476.8 323.55 L475.83 325.18 L474.7 329.28 L473.8 331.01 L466.91 327.59 L463.26 327.29 L461.68 330.25 L462.65 332.08 L466.03 336.38 L465.49 337.24 L458.38 340.73 L457.18 341.03 L456.38 342.17 L451.18 344.84 L450.11 346.6 L445.31 361.92 L443.3 365.82 L440.68 369.3 L439.06 369.3 L432.92 356.57 L414.63 331.68 L413.44 328.79 L412.54 327.75 L410.5 326.47 L405 324.19 L404.54 322.42 L404.62 320.39 L404.44 318.84 L399.22 313.05 L391.94 308.91 L368.33 300.45 L366.22 300.91 L363.08 303.11 L361.66 303.64 L359.54 303.14 L356.57 300.96 L354.16 300.45 L352.74 300.34 L352.25 299.98 L351.97 299.31 L351.16 298.31 L349.63 297.59 L348.35 297.92 L347.51 298.63 L347.35 299.07 L334.94 295.06 L329 294.13 L327.6 293.26 L326.48 292.2 L324.73 291.33 L322.26 291.44 L320.64 292.43 L319.19 292.53 L317.23 289.94 L318.81 285.79 L316.48 280.18 L294 252.44 L292.66 249.99 L290.89 243.99 L288.18 239.79 L279.62 218.74 L278.85 212.42 L277.91 208.58 L276.62 205.78 L279.65 202.8 L280.91 200.66 L280.44 198.86 L275.77 192.86 L272.83 191.06 L274.45 188.87 L278.26 185.83 L280.83 182.05 L282.63 178.35 L286.38 179.85 L288.41 177.48 L290 174.02 L294.67 170.47 L292.86 166.47 L289.55 162.29 L287.26 159.93 L288.64 158.97 L289.23 158.65 L290.25 158.4 L290.25 156.87 L287.26 156.87 L287.26 155.35 L289.76 154.87 L291.37 153.32 L293.25 149.1 L294.75 149.1 L297.8 151.6 L302.11 149.81 L306.5 147.33 L309.86 147.73 L311.23 147.73 L310.94 144.8 L311.69 143.38 L312.94 142.61 L314.1 141.63 L316.11 138.14 L316.9 138.33 L319.62 138.58 L326.23 131.65 L325.73 129.79 L324.57 128.37 L321.73 126.38 L312.73 135.53 L312.52 134.79 L312.54 134.14 L312.3 133.77 L311.23 133.86 L311.23 132.47 L313.78 129.68 L315.33 128.51 L317.23 127.91 L315.73 126.38 L315.54 126.58 L315.24 127.01 L314.79 127.48 L314.1 127.91 L314.65 126.06 L314.76 125.41 L317.23 124.72 L317.23 123.33 L315.73 123.33 L315.73 121.67 L319.4 118.73 L320.12 111.14 L318.87 96.42 L315.57 92.51 L308.31 89.26 L301.04 88.07 L297.74 90.32 L296.43 90.32 L290.37 85.29 L288.61 83.38 L289.66 83.72 L290.96 83.12 L291.51 81.87 L290.25 80.32 L288.64 79.96 L284.39 80.37 L282.63 80.32 L276.17 77.88 L271.08 74.89 L265.4 72.37 L257.14 71.31 L257.14 69.65 L262.11 68.39 L271.4 64.15 L276.62 63.53 L275.79 62.16 L275.13 61.31 L274.11 60.81 L272.13 60.48 L272.13 58.97 L282.98 58.31 L285.74 58.97 L286.9 60.69 L286.62 62.69 L286.08 64.35 L286.51 65.06 L287.42 65.49 L290.25 68.11 L291.61 68.11 L293.25 66.46 L293.25 65.06 L290.75 62.57 L293.14 60.96 L297.82 60.26 L302.24 60.48 L303.74 61.19 L305.71 63.14 L307.5 63.53 L308.93 63.01 L309.53 61.72 L309.29 60.2 L308.23 58.97 L308.23 57.3 L311.49 56.08 L312.41 53.63 L311.65 50.72 L309.86 48.13 L308.27 46.96 L304.58 45.43 L302.99 44.32 L301.14 42.35 L301.14 41.82 L302.25 41.59 L303.74 40.49 L307.1 37.37 L309.05 38.45 L311.33 40.57 L315.73 40.49 L318.38 38.05 L317.79 34.81 L315.41 31.67 L312.73 29.67 L310.86 28.88 L316.17 20.21 L320.18 11.44 L326.36 3.07 L333.68 0 L339.97 3.26 L346.16 8.86 L353.26 12.87 L375.48 21.15 L405.13 32.16 L413.01 35.09 L444.55 46.83 L479.99 59.97 L485.04 60.53 L490.18 58.67 L512.84 43.64 L529.09 32.87 L535.96 31.22 L539.85 32.94 L548.21 38.97 L552.04 39.53 L556.77 39.26 L561.83 40.88 L572.78 45.73 L573.97 46.07 L575.1 46.53 L576.17 47.1 L577.09 47.79 L582.08 54.03 L583.96 55.61 L585.93 56.74 L588.27 57.66 L590.67 57.9 L592.76 57.02 L604.57 49.29 L606.43 48.17 L608.51 49.23 L609.03 50.91 L608.98 53.17 L609.43 55.94 L610.4 57.56 L613.32 61.24 L613.93 62.81 L616.25 64.99 L626.45 68.93 L628.78 70.52 L630.75 72.7 L634.93 74.85 L638.73 78.06 L639.54 83.42 L636.5 85.02 L635.59 85.64 L634.62 87.37 L635.02 88.63 L635.92 89.58 L636.42 90.36 L641.25 94.25 L642.41 95.77 L644.87 93.98 L648.29 94.05 L649.85 94.27 L651.76 94.55 L654.4 94.11 L658.47 98.12 L661 99.08 L663.52 97.16 L665.03 97.16 L667.69 99.77 L673.14 96.26 L676.89 97.16 L679.49 94.54 L682.45 94.05 L684.87 95.7 L685.87 99.51 L699.11 110 L700.59 110.7 L702.64 111.02 L704.79 110.6 L707.84 108.46 L709.31 107.97 L715.32 109.17 L716.13 108.67 L720.62 103.39 L735.2 97.84 L736.33 97.57 L750.75 94.11 L758.46 90.12 L759.09 84.05 L757.08 76.1 L756.96 71.18 L754.77 70 L755.42 67.03 L754.99 65.72 L754.52 65.5 L752.81 61.6 Z M436.09 248.25 L438.24 248.77 L439.45 249.81 L441.24 250.29 L443.56 250.23 L443.56 251.61 L440.89 252.58 L437.52 253.4 L433.79 253.72 L430.06 253.28 L426.26 251.7 L424.25 249.65 L421.21 244.01 L425.35 242.61 L427.2 242.48 L434.2 243.68 L440.68 245.67 L440.68 247.19 L433.06 247.19 L435.15 248.31 Z M4.09 1264.06 L0 1264.27 L2.87 1259.34 L5.52 1257.3 L8.59 1255.45 L11.65 1254.84 L11.65 1257.1 L11.44 1259.96 L8.59 1263.04 Z M707.17 558.08 L710.06 556.63 L713.21 556.5 L712.95 559.13 L711.24 559.78 L708.49 559.26 Z "/>
</g>
</svg>
