<svg xmlns="http://www.w3.org/2000/svg" viewBox="0 0 1000 1053.84">
<g fill="#ccc" stroke="#333" stroke-width="0.5" stroke-linejoin="round">
<path fill-rule="evenodd" d="M102.92 93.91 L105.98 95.06 L109.42 95 L112.83 94.08 L115.79 92.68 L118.85 90.11 L120.39 89.11 L124.58 88.52 L126.19 87.93 L127.62 86.97 L129.2 85.65 L133.11 80.64 L133.74 79.37 L134.31 77.57 L135.38 76.65 L136.59 75.88 L137.5 74.57 L137.81 72.17 L139.77 68.82 L137.61 66 L140.91 65.3 L144.52 63.13 L146.38 60.39 L144.41 57.95 L145.92 57.18 L146.66 56.91 L146.66 55.78 L148.89 53.92 L150.34 53.58 L152.28 53.82 L153.73 53.35 L154.56 51.61 L155.21 49.55 L156.13 48.16 L159.52 47.6 L165.39 51.22 L169.21 51.58 L170.86 51.42 L173.8 51.46 L175.27 50.92 L176.54 49.74 L180.43 44.72 L182.78 44.58 L184.69 45 L186.26 45.97 L187.67 47.5 L188.56 49.43 L188.69 51.34 L188.56 53.09 L188.68 54.56 L189.33 56.22 L192.07 60.85 L192.3 62.66 L191.9 64.25 L192.12 65.28 L194.25 65.35 L195.75 64.96 L200.2 63.28 L203.91 63.52 L204.89 66.07 L203.85 72.86 L204 76.86 L205.37 78.91 L208.06 79.63 L218.36 79.85 L231.33 81.86 L247.43 86.38 L250.19 87.99 L252.86 91.16 L255.3 94.91 L258.2 97.55 L262.25 97.42 L266.07 96.05 L269.47 93.5 L271.47 90 L271.11 85.76 L269.54 83.92 L267.39 82.54 L265.66 81.04 L265.3 78.82 L269.22 65.59 L271.17 63.5 L274.85 62.93 L284.13 64.1 L287.28 63.67 L296.91 59.18 L300.48 58.82 L304.05 59.97 L310.22 63.64 L313.85 64.03 L317.61 62.81 L318.99 60.82 L319.1 60.02 L319.8 54.67 L320.51 53.44 L321.59 52.16 L322.42 50.7 L322.45 48.89 L321.44 47.67 L319.69 46.92 L317.89 46.37 L316.68 45.74 L314.6 42.49 L314.31 39.64 L315.91 34.29 L316.72 26.72 L316.26 25.38 L315.67 24.23 L315.36 22.81 L315.71 19.75 L316.49 16.63 L316.86 16.5 L319.16 12.58 L318.95 12.04 L322.56 10.85 L324.71 12.23 L328.04 17.98 L330.5 20.24 L333.85 22.53 L340.48 26.1 L343.13 27.01 L352.03 28.79 L355.46 29 L359.47 28.28 L362.53 26.19 L363.12 22.31 L361.9 20.75 L359.87 19.77 L357.97 18.57 L357.12 16.28 L357.43 9.75 L358.57 6.72 L361.38 5.34 L364.94 5.15 L368.3 5.7 L372.52 5.83 L375.71 4.33 L378.76 2.22 L382.62 0.53 L386.55 0 L388.21 0.96 L388.44 3.27 L387.62 10.14 L388.08 11.46 L391.17 12.59 L392.94 13.55 L394.43 14.81 L394.98 16.13 L394.11 18.1 L392.47 19.08 L390.68 19.9 L389.38 21.39 L390.33 23.7 L390.79 25.71 L390.58 27.67 L389.5 29.05 L386.51 31.5 L385.74 32.85 L385.68 35.35 L386.54 35.77 L387.91 35.4 L389.38 35.58 L390.23 36.44 L391.1 37.6 L392.04 38.59 L393.15 38.93 L395.02 38.63 L396.34 38.58 L397.3 39.17 L398.03 40.8 L397.75 41.79 L396 44.79 L395.65 46.22 L396.21 47.82 L398.89 50.97 L396.42 56.13 L395.91 59.19 L398.34 61.18 L394.35 65.65 L394.43 66.22 L394.83 67.2 L395.06 68.3 L394.7 69.17 L393.36 69.67 L392.25 69.24 L391.47 68.56 L391.07 68.29 L389.05 70.54 L388.62 72.79 L389.16 78.96 L391.65 78.44 L393.42 79.63 L396.64 83.57 L398.83 84.96 L411.2 89.37 L425.82 89.27 L428.9 86.23 L430.84 83.05 L431.98 79.51 L432.56 75.35 L434.48 73.84 L442.1 76.51 L444.02 75.07 L443.32 65.96 L444 62.93 L445.88 60.15 L448.38 58.32 L460.12 52.09 L481.18 47.43 L490.3 46.53 L494.84 45.36 L496.42 45.31 L498.5 46.04 L502.1 48.4 L506.54 50.09 L509.39 51.74 L512.28 55.51 L514.27 59.7 L514.46 62.6 L516.78 63.45 L517.91 63.66 L519.43 63.73 L520.4 64.31 L521.11 65.66 L521.67 67.15 L522.18 68.16 L523.93 69.71 L526.17 70.87 L528.92 71.55 L532.23 71.68 L533 71.17 L533.61 70.24 L534.22 69.59 L535.07 69.97 L535.79 70.45 L536.65 70.6 L538.52 70.54 L540.41 70.09 L541.44 69.05 L542.27 67.9 L543.5 67.13 L546.25 67.24 L553.82 68.36 L556.43 67.65 L564.47 72.4 L565.94 72.24 L567.15 70.03 L569.83 70.25 L572.42 71.96 L572.53 72.04 L573.74 74.51 L573.74 83.65 L573.31 84.55 L572.69 85.52 L572.88 86.25 L574.87 86.43 L576.02 86.05 L576.99 85.21 L577.74 84.13 L578.22 83.03 L578.68 86.44 L577.28 89.45 L577.19 91.26 L581.57 91.07 L580.46 94.07 L581.44 95.77 L585.58 98.5 L585.88 99.81 L582.05 101.14 L580.56 102.52 L581.94 102.54 L583.01 102.87 L583.95 103.32 L585.02 103.66 L582.79 104.69 L584.12 106.64 L585.94 106.91 L587.85 106.08 L589.48 104.69 L590.31 107.69 L592.06 109.28 L594.22 110.31 L596.2 111.6 L598.03 114.13 L599.16 117.17 L598.54 119.42 L595.07 119.54 L595.8 121.22 L597.64 123.63 L599.42 127.52 L599.73 128.57 L597.38 135.38 L597.58 137.27 L602.39 141.75 L603.81 142.26 L604.73 141.18 L605.6 139.68 L606.85 138.92 L608.71 139.28 L609.45 140.06 L610.02 140.84 L611.38 141.19 L615.21 141.47 L618.46 142.51 L620.78 144.58 L621.88 147.99 L625 146.98 L626.33 149.47 L627.14 153.24 L628.69 156.03 L626.08 156.97 L624.69 157.18 L623.1 157.06 L623.1 158.3 L624.55 159.61 L624.86 160.26 L625.33 161.59 L627.5 160.95 L629.66 164.44 L632.15 163.97 L631.22 163.12 L630.95 162.35 L631.52 161.79 L633.15 161.59 L634.84 161.82 L635.66 162.4 L636.2 163.3 L637.12 164.48 L639.02 166.18 L639.62 167.27 L639.86 169.02 L640.22 170.29 L641.1 170.99 L643.3 171.9 L644.13 172.84 L644.09 173.49 L644.21 173.62 L645.54 173.03 L646.87 172.16 L647.94 171.04 L648.52 170.05 L648.34 169.63 L650.75 169.64 L652.77 169.36 L654.7 168.34 L656.81 166.13 L658.66 167.68 L661.02 171.22 L662.92 171.9 L665.29 171.23 L665.91 169.51 L665.98 167.28 L666.79 165 L667.3 163.87 L667.43 163.22 L667.95 162.9 L670.92 162.9 L672.2 163.16 L673.18 163.67 L673.57 164.48 L673.2 167.34 L671.6 171.63 L671.23 174.67 L673.55 178.11 L678.87 178.65 L684.73 178.36 L688.7 179.31 L690.16 181.74 L691.57 187.19 L692.67 188.99 L694.91 190.06 L695.46 188.57 L695.42 185.84 L695.91 183.22 L698.42 183.91 L702.86 185.76 L702.87 185.75 L703.94 184.48 L706.06 180.31 L706.47 178.23 L705.99 174.31 L706.01 172.84 L706.91 171.33 L711.87 166.12 L709.96 165.47 L709.23 165.33 L711.41 163.35 L714.23 162.33 L720.39 161.53 L723.41 159.86 L728.1 153.24 L731.05 151 L733.86 150.65 L743.17 153.41 L744.88 154.36 L745.84 154.66 L746.85 154.44 L747.17 153.65 L747.23 152.78 L747.4 152.33 L749.91 151.11 L751.27 150.67 L756.51 150.59 L757.55 148.26 L758.24 145.55 L760.67 144.25 L764.18 143.35 L770.34 139.35 L773.36 138.45 L773.68 138.35 L784.51 138.15 L787.66 137.2 L789.05 136.16 L791.67 133.33 L793.32 132.23 L795.71 131.48 L803.66 130.49 L804.88 130.66 L807.01 131.88 L808.04 132.09 L808.91 131.58 L810.43 129.7 L810.99 129.31 L813.19 130.03 L814.44 131.23 L815.51 132.58 L817.25 133.82 L820.05 134.42 L829.83 133.09 L855.57 135.24 L857.63 136.02 L860.5 138.68 L862.24 139.6 L863.73 139.08 L865.65 137.88 L867.34 137.21 L868.07 138.35 L867.93 141.66 L868.22 145.05 L869.87 147.21 L873.78 146.82 L876.03 144.56 L881.57 136.65 L884.1 134.84 L886.09 136.07 L886.15 139.27 L885.79 143.19 L886.51 146.51 L889.37 148.2 L893.04 148.28 L896.83 149.14 L900.11 153.16 L902.16 161.16 L903.76 165.02 L906.62 167.42 L909.57 167.56 L915.2 165.89 L918.31 166.63 L920.87 169.24 L922.86 173.1 L925.8 180.83 L933.93 196.74 L950.25 218.57 L953.98 221.45 L957.9 221.76 L960.97 219.07 L964.97 210.59 L970.08 205.7 L972.3 208.52 L972.47 210.88 L971.8 216.17 L972.02 217.46 L972.83 220.24 L972.83 224.72 L971.99 227.54 L970.05 228.78 L967.81 229.82 L966.13 232.03 L965.86 235.16 L967.15 237.71 L969.46 239.42 L972.32 240.06 L974.89 241.48 L974.67 244.63 L972.72 247.78 L967.53 250.52 L965.62 253.52 L962.77 259.39 L959.28 262.99 L958.6 264.37 L958.29 272.66 L957.61 275.26 L956.07 277.6 L957.67 278.51 L958.72 279.6 L960 280.51 L962.27 280.88 L966.46 281.09 L970.6 282.02 L974.73 284.24 L975.79 286.9 L975.96 290.28 L978.51 298.05 L979.48 298.8 L980.58 298.96 L981.49 299.36 L981.87 300.78 L982.07 303.63 L985.4 315.18 L985.22 317.44 L983.49 318.41 L982.28 319.51 L981.86 321.61 L982.65 322.92 L982.69 322.97 L984.16 322.28 L984.94 324.88 L992.47 371.23 L1000 417.54 L998.88 420.06 L991.53 424.42 L989.3 425.17 L987.41 424.97 L985.33 423.99 L983.98 423.9 L982.93 424.89 L981.79 427.09 L981.1 429.7 L981.49 431.79 L983.66 436.54 L984.71 440.5 L984.56 443.38 L982.95 445.52 L979.57 447.24 L969.81 450.52 L966.8 452.67 L959.33 461.31 L956.66 463.57 L956.43 463.04 L955.61 462.1 L954.52 461.37 L953.49 461.49 L953.01 462.71 L952.3 475.04 L951.76 476.87 L950.46 478.27 L946.82 480.48 L945.41 481.82 L945.27 482.64 L945.75 484.79 L945.71 485.68 L945.08 486.77 L943.44 488.77 L942.8 489.85 L930.99 515.26 L928.8 521.95 L920.8 572.51 L920.95 574.45 L921.98 576.75 L923.07 578.11 L923.8 579.45 L923.68 581.7 L922.23 584.91 L914.73 594.32 L913.9 595.98 L912.55 604.23 L911.72 605.4 L903.62 608.05 L903.43 608.16 L903.32 608.23 L901.3 609.49 L882.43 641.96 L879.69 648.3 L879.47 654.26 L880.18 655.93 L882.22 658.57 L884.43 662.84 L884.81 663.94 L881.6 672.98 L880.71 674.06 L877.69 675.73 L876.52 677.46 L876.29 680.22 L889.2 738.38 L891.14 740.74 L891.62 741.32 L896.43 745.72 L899.92 754.91 L904.88 782.35 L907.25 788.23 L913.55 799.78 L915.55 805.74 L915.97 811.68 L914.37 830.44 L924.99 829.53 L923.34 839.81 L924.22 844.06 L928.09 846.22 L931.29 845.82 L936.62 842.59 L939.28 841.53 L950.93 844.54 L953.03 846.24 L954.31 848.4 L954.93 851.05 L955.32 859.67 L958.22 871.43 L962.68 881.91 L963.38 884.86 L962.97 887.73 L961.35 889.8 L959.17 890.2 L953.66 889.19 L952.59 899.35 L953.05 901.63 L955.34 904.92 L956.06 906.81 L955.98 908.22 L955.28 911.65 L955.42 913.15 L955.94 913.72 L958.09 915.57 L958.99 916.62 L957.42 919.72 L955.08 921.38 L951.32 921.93 L944.81 921.67 L944.4 917.09 L938.97 916.38 L932.26 917.18 L927.96 917.08 L929.3 920.39 L928.48 923.7 L926.11 926.27 L922.87 927.28 L920.31 926.53 L911.66 922.5 L908.96 920.44 L905.7 921.35 L899.21 921.53 L896.47 922.79 L895.21 919.67 L892.65 915.92 L889.64 912.79 L887.02 911.48 L885.68 910.25 L887.44 907.66 L889.98 905.29 L890.98 904.74 L891.76 902.42 L892.24 897.56 L893.21 895.66 L895.45 894.26 L897.19 893.83 L898.31 892.79 L898.71 889.55 L898.33 887.09 L897.24 885.91 L895.34 885.57 L892.61 885.57 L891.85 885.93 L890.88 886.74 L889.67 887.55 L888.19 887.91 L886.82 887.7 L884.58 886.78 L883.16 886.69 L881.57 887.25 L878.43 889.43 L876.36 890.17 L878 893.91 L878.83 897.28 L877.63 899.58 L873 900.14 L873.72 901.4 L873.72 902.56 L873.08 903.67 L871.88 904.74 L873.38 905.73 L874.11 905.96 L873 905.96 L874.56 906.55 L876.24 906.93 L878 907.09 L879.81 906.99 L879.81 908.11 L878.27 908.82 L875.77 908.6 L874.11 909.13 L872.72 910.18 L871.47 911.59 L870.43 913.2 L869.65 914.94 L867.93 913.77 L866.77 914.38 L867.05 915.81 L869.65 917.08 L868.68 919.27 L869.65 920.59 L871.71 921.31 L874.11 921.67 L868.16 926.47 L857.39 925.93 L815.84 917.08 L808.22 916.63 L803.06 915.6 L801.77 915.17 L801.21 914.33 L801.5 912.8 L801.89 911.64 L801.62 910.52 L799.99 909.13 L801.21 906.99 L799.53 908.38 L798.23 910.5 L797.31 912.87 L796.85 914.94 L795.63 914.94 L793.67 913.81 L790.5 913.49 L783.85 913.71 L781.66 913.12 L774.31 909.13 L762.86 907.64 L757.75 906.09 L755.31 902.39 L758.35 903.4 L761.8 903.06 L764.82 901.52 L766.6 899.03 L768.97 901.98 L770.15 903.15 L771.52 903.63 L772.59 903.2 L773.03 902.23 L772.84 901.08 L772.07 900.14 L772.07 899.03 L774.33 899.53 L779.98 901.85 L781.1 901.88 L782.77 901.35 L786.45 902.78 L792.38 905.96 L791.99 904.9 L791.71 903.26 L791.26 902.39 L793.81 902.46 L798.2 903.06 L799.99 902.39 L802.15 899.79 L801.13 898.36 L799.02 897.13 L797.87 895.15 L795.99 889.69 L795.63 887.3 L795.08 886.01 L793.71 885.13 L791.93 884.93 L790.16 885.57 L789.09 884.86 L787.55 884.4 L786.18 884.66 L785.58 886.13 L786.06 887.06 L789.54 889.55 L793.69 895.14 L796.15 897.78 L798.98 899.03 L797.52 901.16 L794.99 900.93 L792.23 900.33 L790.16 901.37 L788.93 901.37 L786.88 898.89 L785.35 898.25 L783.66 898.33 L781.1 898.01 L779.37 897.4 L777.44 896.29 L775.94 894.68 L775.52 892.51 L774.75 893.24 L773.77 893.96 L773.3 894.65 L772.62 893.3 L772.18 892.01 L771.98 890.64 L772.07 888.94 L770.96 888.94 L770.73 891.25 L769.93 893.24 L768.56 894.22 L766.6 893.52 L765.33 894.49 L763.54 894.76 L761.6 894.43 L759.79 893.52 L755.97 894.12 L754.1 894.65 L755.69 896.12 L758.25 896.73 L760.96 896.57 L763.04 895.66 L765.36 898.01 L763.18 899.69 L760.37 901.32 L757.42 901.96 L754.72 900.76 L752.66 899.57 L749.08 897.97 L745.67 896.96 L744.14 897.45 L742.79 898.89 L739.78 898.09 L735.1 895.66 L732.93 896.32 L731.19 897.45 L729.43 897.97 L727.18 896.89 L726.24 897.84 L725.17 897.86 L724.01 897.08 L722.82 895.66 L718.37 898.68 L716.2 899.53 L713.79 899.03 L714.11 898.28 L714.59 896.4 L714.91 895.66 L710.71 894.85 L708.9 895.15 L706.98 896.89 L705.77 895.76 L704.29 895.04 L703.04 895.08 L702.03 897.67 L699.44 899.74 L698.16 901.37 L696.99 900.17 L695.02 898.66 L692.93 897.37 L691.43 896.89 L689.72 897.82 L688 899.34 L686.29 899.92 L684.64 898.01 L685.14 897.64 L685.34 897.6 L685.5 897.48 L685.86 896.89 L679.8 897.17 L677.48 898.31 L676.83 901.37 L678.39 900.58 L679.76 900.81 L680.8 901.88 L681.4 903.63 L678.29 902.9 L666.67 902.39 L666.03 900.82 L665.25 899.43 L663.42 896.89 L662.49 898.46 L662.43 899.75 L663.11 900.74 L664.43 901.37 L664.43 902.39 L661.48 902.96 L659.24 904.02 L655.49 906.99 L652.46 905.01 L648.97 905.24 L645.93 906.63 L644.34 908.11 L643.21 908.11 L642.12 907.63 L640.71 906.76 L639.44 905.73 L638.74 904.74 L640.65 903.89 L642.25 904.07 L644.04 904.61 L646.46 904.74 L646.11 903.15 L645.59 902.13 L644.69 901.59 L643.21 901.37 L643.21 900.14 L644.89 899.38 L645.95 898.22 L646.46 896.65 L646.46 894.65 L645.45 894.65 L643.44 898.43 L640.7 900.45 L637.25 901.24 L633.05 901.37 L637.49 904.73 L634.21 907.64 L628.13 910.21 L624.13 912.59 L623.11 914.97 L623.35 916.52 L624.82 917.5 L627.47 918.19 L630.4 918.35 L633.31 917.86 L634.98 916.71 L634.17 914.94 L634.17 913.71 L638.3 912.59 L640.33 911.45 L641.06 912.21 L641.87 913.28 L643.21 913.71 L645.23 913.2 L648.55 911.77 L651.03 911.48 L656.11 911.48 L657.66 911.81 L658.69 912.53 L659.4 913.29 L659.96 913.71 L662.39 914.05 L664.09 913.81 L667.88 912.59 L666.19 912.79 L664.21 912.63 L662.65 911.88 L662.21 910.36 L663.21 909.5 L668.9 908.11 L668.9 910.36 L670.12 910.36 L673.73 908.6 L683.38 909.2 L688.09 906.99 L688.87 909.43 L690.14 908.44 L691.49 906.16 L692.55 904.74 L695.55 904.82 L698.1 906.03 L700.37 906.6 L702.51 904.74 L705.6 905.99 L708.8 905.45 L712.07 904.27 L718.79 903.07 L722.98 900.69 L725.56 900.14 L745.74 899.62 L750.85 901.37 L749.32 902.08 L747.69 902.44 L745.95 902.52 L744.14 902.39 L756.33 908.11 L705.22 912.3 L654.11 916.48 L627.26 922.52 L612.42 923.79 L609.59 925.04 L607.82 924.1 L605.9 923.77 L597.08 923.6 L594.97 923.81 L594.97 922.79 L595.51 922.75 L596.59 922.84 L597.1 922.79 L597.1 921.67 L592.51 921.73 L591.41 919.79 L591.49 916.8 L590.41 913.71 L592.51 911.21 L590.43 910.68 L581.51 911.8 L578.59 912.72 L575.88 914.17 L573.66 916.06 L570.92 913.69 L566.2 911.31 L560.72 910.16 L555.78 911.48 L555.15 910.77 L554.02 909.9 L553.74 909.53 L553.45 909.13 L552.43 909.13 L550.63 911 L547.72 910.13 L544.6 908.76 L542.16 909.13 L541.16 909.13 L539.43 908.35 L538.49 909.03 L538.34 910.61 L539.03 912.59 L538.52 912.41 L536.69 911.48 L536.77 913.2 L536.69 913.71 L538.03 913.33 L538.28 913.83 L538.95 914.83 L539.03 914.94 L540.17 914.27 L541.07 914.01 L543.38 913.71 L543.38 914.94 L542.13 916.33 L538.3 918.23 L536.69 919.31 L536.69 916.06 L534.36 922.87 L533.24 925.04 L527.75 917.08 L526.53 917.08 L526.46 917.59 L526.53 919.31 L524.31 918.19 L526.75 922.84 L533.48 925.88 L541.51 926.76 L547.96 925.04 L545.33 923.04 L542.56 923.1 L539.65 923.56 L536.69 922.79 L536.69 921.67 L538.35 921.77 L539.69 921.56 L540.89 921.11 L542.16 920.44 L543.04 919.73 L545.1 917.58 L545.72 917.08 L548.16 917.63 L550.87 918.99 L553.51 919.67 L555.78 918.19 L557.78 919.42 L559.78 919.86 L561.45 919.19 L562.47 917.08 L559.48 917.52 L558.16 916.2 L557.06 914.46 L554.66 913.71 L554.66 912.59 L556.9 913.71 L562.35 912.93 L572.27 918.74 L576.49 917.63 L578.79 915.82 L580.95 915.46 L586.6 916.06 L587.27 917.3 L588.2 920.13 L589.6 923.16 L591.63 925.04 L550.25 926.29 L543.88 928.75 L510.94 930.52 L506.17 929.77 L501.96 927.28 L497.4 930.64 L500.79 931.64 L501.96 931.76 L488.92 935.78 L452.75 941.24 L451.55 941.62 L433.1 947.38 L430.32 948.81 L429.15 950.31 L427.21 950.23 L418.66 953.42 L405.76 960.09 L360.99 975.09 L359.59 976.19 L358.63 978.68 L356.19 980 L338.91 984.26 L335.52 984.66 L332.91 985.51 L328.51 989.71 L325.88 991.38 L305.18 997.5 L288.77 998.61 L284.54 1000.69 L280.67 1001.66 L278.87 1002.69 L274.29 1008.3 L265.48 1015.7 L255.3 1021.85 L248.6 1023.9 L236.45 1025.17 L226.74 1029.35 L224.71 1030.72 L223.07 1033.91 L221.3 1034.22 L219.27 1034.19 L217.68 1034.73 L214.76 1037.2 L205.95 1042.02 L193.05 1052.7 L190.1 1053.84 L186.16 1053.5 L179.05 1052.09 L176.37 1052.4 L170.96 1048.7 L170.07 1046.77 L170.29 1045.1 L172 1042.04 L172.5 1040.42 L172.27 1038.88 L171.11 1035.57 L171.42 1031.41 L171.12 1029.71 L170.69 1028.19 L170.45 1026.72 L171.17 991.59 L170.45 983.06 L170.01 981.59 L169.03 980.39 L167.74 979.43 L166.5 978.24 L165.68 976.35 L165.68 976.15 L165.71 974.88 L166.63 971.49 L166.86 969.63 L165.69 964.56 L165.76 963.01 L170.76 959.05 L172.92 959.28 L174.28 960.25 L174.92 960.31 L174.91 957.82 L173.97 954.63 L172.45 952.47 L171.31 950.21 L171.54 946.68 L171.51 946.68 L170.24 937.18 L170.63 934.33 L172.68 931.36 L175.36 930.12 L178.13 930.17 L180.43 931.09 L184.84 923.06 L185.8 920.17 L185.93 917.41 L184.58 909.67 L186.31 904.25 L187 902.76 L188.22 901.25 L192.45 898.96 L192.85 898.5 L194.72 898.83 L194.46 899.47 L193.63 900.29 L193.81 901.15 L194.33 902.22 L194.34 903.46 L194.72 904.09 L196.31 903.38 L197.13 902.36 L197.73 899.65 L198.13 898.55 L200.11 895.77 L201.06 894.07 L201.21 892.22 L200.78 889.05 L199.89 885.97 L198.67 885.71 L196.95 886.04 L194.53 884.68 L192.99 882.46 L191.86 879.65 L191.21 876.71 L191.17 874.09 L193.46 875.31 L194.2 873.57 L194.09 867.38 L195.27 864.98 L197.18 863.45 L198.05 862.08 L197.77 861.81 L196.12 860.22 L197.18 860.27 L200.43 860.08 L198.22 857.22 L197.43 854.1 L198.55 852.12 L201.98 852.68 L199.93 850.03 L196.45 843.02 L194.31 838.71 L191.29 825.82 L191.44 819.79 L192.51 812.84 L191.77 807.14 L186.53 804.85 L186.02 809.73 L185.21 812.43 L183.94 813.68 L182.39 812.71 L181.58 810.39 L180.48 808.25 L177.94 807.79 L178.48 805.02 L177.27 805.52 L175.24 807.23 L173.35 808.15 L172.18 807.51 L170.02 804.78 L168.76 803.72 L170.09 802.01 L169.26 800.93 L165.72 799.38 L165.27 799.29 L161.9 797.44 L161.66 796.84 L158.76 796.4 L156.34 794.45 L154.55 792.38 L153.5 791.52 L151.69 793.69 L149.78 796.96 L147.49 798.13 L144.59 794.04 L142.59 792.07 L136.13 788.69 L134 786 L133.83 784.81 L133.95 780.13 L134.31 779.38 L135.81 778.55 L136.16 777.67 L135.79 776.62 L134.95 776.2 L134.07 775.93 L133.55 775.35 L133.01 771.6 L132.36 770.09 L130.77 768.63 L129.3 768.53 L127.26 769.08 L125.68 769.92 L125.62 770.69 L123.83 768.4 L123.39 765.07 L123.8 761.34 L124.56 757.88 L126.72 751.54 L126.32 749.31 L123.78 746.2 L116.51 740.34 L115.94 739.55 L115.51 737.64 L115.23 737.09 L114.22 736.75 L113.46 736.96 L112.76 737.25 L111.88 737.14 L101.33 734.63 L98.65 732.8 L95.82 732.15 L91.39 732.25 L83.78 733.31 L81.87 734.1 L78.22 736.13 L75.97 736.68 L73.32 736.72 L71.93 736.25 L70.84 735.43 L69.06 734.39 L67.12 733.67 L54.44 730.78 L52.95 730.24 L52.7 729.56 L52.7 728.42 L52.52 727.08 L51.7 725.75 L50.51 725.09 L49.82 725.6 L49.28 726.35 L48.49 726.44 L46.75 724.87 L45.17 723.06 L43.48 722.39 L41.35 724.2 L39.62 723.43 L37.61 723.37 L35.61 724.14 L33.85 725.85 L31.91 723.88 L32.49 722.88 L33.99 722.04 L34.81 720.55 L34.43 719.28 L32.96 716.28 L32.67 714.72 L33.51 712 L34.72 710.95 L34.95 710 L32.79 707.55 L27.66 704.79 L25.77 702.33 L24.74 701.64 L23.94 703.03 L23.2 706.08 L21.91 709.13 L19.88 710.81 L16.87 709.79 L12.01 703.27 L10.18 701.65 L8.29 701.09 L4.35 701.21 L2.76 700.87 L0 700.69 L4.02 695.58 L4.8 695.22 L6.77 694.9 L7.52 694.44 L7.87 693.73 L8.61 691.44 L8.43 691.18 L8.61 691.13 L11.33 689.61 L11.71 689.63 L13.93 686.94 L25.75 677.54 L28.97 673.94 L43.68 657.46 L46.01 653.85 L48.05 649.07 L49.42 644.12 L49.69 641.82 L49.57 639.59 L48.77 638.62 L47.44 637.73 L46.63 636.49 L48.72 631.95 L48.87 629.37 L48.67 626.66 L48.87 623.74 L49.76 622.32 L53.1 619.72 L54.33 618.17 L54.74 614.2 L51.94 598.48 L51.72 594.46 L51.27 592.92 L50.26 591.21 L47.85 588.77 L47.28 587.74 L47.14 586.69 L47.49 584.6 L47.4 583.51 L46.74 582.21 L44.78 579.75 L44.01 578.45 L42.73 573.33 L41.67 571.16 L38.88 567.18 L37.8 565.21 L36.92 562.01 L34.94 546.02 L31.59 534.36 L28.64 528.56 L21.8 525.11 L29.24 518.19 L33.36 516.05 L37.28 520.52 L40.32 520.28 L46.13 518.54 L51.61 519.94 L57.81 524.77 L63.76 527.37 L68.46 522.08 L68.54 520.92 L68.01 518.25 L68.07 516.99 L68.85 515.12 L72.12 510.94 L72.85 510.29 L74.7 509.24 L75.37 508.56 L75.47 507.88 L75.02 506.26 L75.13 505.58 L80.38 499.52 L81.16 497.13 L81.75 491.63 L82.39 488.98 L83.15 488.06 L84.22 487.41 L85.15 486.5 L85.47 484.85 L84.63 483.04 L80.98 479.87 L79.76 478.16 L80.14 471.52 L88.28 459.12 L89.95 452.69 L90.23 448.7 L89.92 447.29 L92.41 447.37 L99.26 446.25 L100.87 446.77 L102.45 448.13 L104.44 449.39 L107.34 449.62 L106.85 447.68 L106.42 446.01 L104.43 442.38 L101.71 439.35 L98.65 437.51 L97.74 435.16 L97.67 432.67 L98.65 427.64 L99.87 425.62 L100.83 423.32 L100.68 421.71 L98.65 421.74 L88.8 425.13 L87.23 425.35 L71.3 420.45 L57.71 411.47 L57.94 409.74 L60.61 406.91 L61.09 405.01 L60.71 401.91 L60.71 398.81 L62.73 389.4 L62.47 386 L61.62 383.9 L60.47 382.08 L59.62 380.3 L59.6 378.32 L60.51 377.15 L68.46 370.82 L70.74 370.51 L76.6 371.7 L79.94 371.35 L85.37 369.19 L88.69 368.93 L90.08 369.39 L91.87 370.98 L92.93 371.51 L94.27 371.59 L97.15 371.35 L98.65 371.58 L103.53 370.31 L106.04 369.97 L108.38 370.4 L110.41 372.01 L111.54 374.2 L112.42 376.58 L113.69 378.77 L115.48 380.35 L117.82 381.66 L120.47 382.46 L123.21 382.56 L126 381.27 L126.29 378.95 L125.86 376.22 L126.46 373.72 L130.05 373.13 L133.55 377.87 L138.69 388.24 L142.4 390.59 L146.91 391.21 L156.45 390.17 L153.05 383.14 L152.01 379.62 L152.52 375.66 L153.69 371.5 L153.7 368.63 L151.66 361.75 L151.29 358.26 L151.68 351.91 L150.83 348.81 L149.66 347.39 L145.1 344.31 L143.56 342.51 L139.65 335.37 L138.52 333.97 L135.43 331.26 L134.65 330.34 L133.34 328.26 L132.28 327.54 L131.32 327.52 L129.6 328.39 L128.87 328.49 L119.06 325.5 L115.44 325.08 L107.95 322.8 L106.31 317.7 L109.29 303.34 L109.98 295.22 L110.78 291.31 L112.37 287.29 L112.38 287.27 L114.84 284.66 L129.52 277.13 L132.67 276.76 L135.9 276.76 L139.8 276.17 L142.42 274.21 L142.65 274.04 L140.59 271.52 L133.77 267.69 L130.12 264.84 L128.35 263.02 L126.11 258.78 L124.74 258.5 L123.1 259.2 L121.07 259.55 L112.75 256.24 L112.57 250.2 L118.41 235.81 L118.94 231.98 L123.25 218.77 L122.39 217.33 L115.64 217.32 L112.18 218.05 L105.96 221.58 L102.6 222.85 L99.61 223.13 L95.94 222.96 L92.38 222.22 L89.7 220.82 L86.96 217.86 L77.44 204.3 L76.22 201.65 L75.44 198.71 L74.88 194.93 L74.79 191.28 L75 189.75 L81.02 146.59 L80.27 143.04 L77.2 143.3 L76.52 143.06 L75.85 141.55 L76.33 140.95 L77.12 140.74 L77.39 140.34 L77.14 139.44 L76.76 136.55 L76.16 135.62 L75.22 135.38 L74.31 135.33 L73.76 135 L73.16 133.64 L72.64 131.95 L72.78 130.48 L76.29 129.13 L78.3 127.52 L78.93 125.9 L76.87 125.16 L75.29 123.33 L77.05 119.16 L80.36 114.66 L83.43 111.82 L91.76 108.68 L95.52 106.57 L98.65 102.49 L99.2 100.08 L100.04 97.84 L101.25 95.78 Z M900.37 928.46 L899.66 931.16 L899.56 931.14 L892.43 929.49 L876.36 927.94 L874.02 926.77 L874.68 924.42 L877.8 921.59 L880.93 919.31 L885.31 920.44 L886.46 921.23 L886.94 922.2 L887.18 923.14 L887.63 923.81 L888.97 924.44 L892.5 925.56 L893.21 925.54 L893.85 925.16 L895.29 926.2 L897.69 928.4 L899.88 928.59 Z "/>
</g>
</svg>
