<svg xmlns="http://www.w3.org/2000/svg" viewBox="0 0 1000 980.83">
<g fill="#ccc" stroke="#333" stroke-width="0.5" stroke-linejoin="round">
<path fill-rule="evenodd" d="M510.27 11.14 L511.25 11.92 L518.56 16.5 L520.82 18.78 L521.85 18.78 L522.59 16.58 L523.64 15.75 L524.97 15.97 L526.49 16.95 L530.99 17.84 L534.64 20.36 L537.72 24.17 L540.45 28.86 L543.64 33.02 L548.8 36.23 L550.86 40.58 L552.02 40.58 L553.28 37.09 L554.49 37.88 L559.05 38.91 L559.81 39.24 L560.56 39.81 L561.28 40.56 L562.01 41.51 L563.13 42.51 L563.59 41.69 L563.95 40.57 L564.85 40.58 L567.02 42.75 L568.53 44.78 L569.55 46.16 L571.18 50.16 L570.62 54 L571.9 57.71 L573.58 62.58 L574.73 64.03 L575.96 65.09 L582.29 72.54 L586.46 80.39 L588.07 82.56 L597.08 89.92 L598.48 91.75 L599.32 94.39 L601.3 96.52 L609.47 102.7 L612 103.94 L625.74 104.42 L627.65 105.54 L634.42 114.41 L635.35 116.71 L637.46 124.52 L637.87 126.98 L639.04 131.05 L641.68 132.04 L644.45 132.42 L645.97 134.55 L644.71 134.8 L642.61 135.77 L641.45 136.06 L641.45 137.72 L643.94 138.61 L644.24 138.88 L645.93 140.37 L647.72 140.8 L649.54 137.72 L650.52 141.89 L650.26 144.06 L650.8 144.77 L654.18 144.52 L658.22 142.97 L660 143.74 L661.11 147.71 L662.02 146.99 L662.66 146.23 L663.14 145.43 L664.57 144.52 L679.01 145.2 L686.18 146.7 L692.41 149.52 L700.42 158.01 L701.67 160.32 L701.86 162.29 L702.73 165.91 L702.93 168.7 L703.17 169.98 L703.49 171.6 L704.87 172.52 L708.7 172.77 L729.33 179.14 L734.25 182.73 L737.59 188.5 L737.61 189.5 L739.64 189.08 L740.6 187.33 L741.41 185.43 L742.98 184.55 L745.77 184.55 L757.47 184.55 L775.27 189.5 L777.23 189.5 L779.06 188.8 L781.99 186.67 L783.47 186.19 L797.4 186.19 L800.55 187.19 L805.75 191.11 L809.6 191.16 L812.52 194.33 L815.43 195.43 L818.35 194.29 L821.09 192.74 L823.81 192.79 L826.62 196.42 L826.68 196.45 L827.8 196.76 L828.95 196.88 L830.11 196.76 L831.35 196.42 L834.57 193.89 L840.45 186.59 L843.21 184.72 L847.01 186.52 L851.42 184.86 L858.73 178.59 L860.76 176.1 L864.47 168.87 L866.98 166.01 L867.22 165.95 L867.68 164.46 L868.18 161.53 L868.81 160.3 L872.65 156.49 L875.81 155.81 L884.19 158.71 L890.88 162.23 L892.94 162.51 L894.71 161.51 L895.46 159.82 L896.22 157.59 L897.91 155.01 L900.1 157 L900.89 156.97 L901.89 156.94 L904.77 154.94 L908.17 153.93 L910.06 152.88 L911.74 150.93 L914.24 150.74 L915.2 154.51 L912.3 156.41 L910.97 157.69 L909.43 159.49 L912.91 162.26 L914.69 164.24 L915.2 166.13 L913.98 167.72 L911.84 168.19 L906.45 168.7 L905.96 175.33 L905.61 176.75 L905 177.78 L904.7 178.82 L905.33 180.32 L907.92 182.99 L909.13 185.07 L914.05 191.16 L914.83 194.83 L915.53 202.19 L916.95 205.31 L919.28 207.16 L922.17 208.83 L924.63 211.01 L925.61 214.48 L924.67 216.57 L920.01 223.04 L918.16 224.42 L916.11 226.47 L915.41 231.02 L915.2 235.56 L914.62 237.63 L916.06 238.81 L919.44 244.29 L921.08 245.89 L924.21 245.84 L926.4 244.12 L928.1 242.07 L931.06 240.51 L932.51 239.47 L934.01 239.01 L935.55 240.17 L936.6 242.1 L937.13 243.34 L937.88 244.42 L939.58 245.89 L942.43 247.23 L944.88 247.77 L947.05 249 L948.94 252.49 L944.02 257.32 L933.98 255.83 L932.58 255.62 L930.34 261.62 L930.47 266.04 L931.34 268.9 L933.73 271.34 L936.25 275.53 L934.78 278.86 L930.5 279.49 L926.81 281.57 L927.14 286.37 L930.22 288.53 L930.35 288.57 L932.22 289.19 L933.35 290.66 L936.07 292.66 L939.91 292.59 L942.33 293.07 L944.99 294.08 L947.24 296.51 L947.68 298.74 L948.58 303.83 L957.78 309.26 L964.33 311.97 L974.95 317.24 L980.01 318.85 L994.96 320.46 L998.22 321.98 L1000 326.82 L999.58 332.46 L997.65 334.39 L997.1 334.94 L982.47 335.61 L981.64 335.03 L980.28 332.93 L979.49 332.5 L978.27 333.04 L977.64 334.1 L977.13 335.18 L976.29 335.78 L969.2 336.71 L965.58 336.49 L962.33 335.25 L960.51 333.39 L957.32 328.78 L955.31 327.69 L951.58 328.58 L952.75 332.12 L954.94 336.66 L954.26 340.54 L950.6 341.29 L941.12 340.34 L938.55 342.64 L938.77 344.78 L940.12 346.64 L941.8 348.32 L943.06 349.89 L944.35 352.87 L944.88 355.19 L945.51 360.95 L946.91 368.02 L947.1 370.54 L946.73 372.79 L945.93 375.67 L945.37 378.59 L945.72 381.03 L947.56 382.72 L951.02 381.4 L952.56 383.11 L953.24 386.75 L952.04 388.48 L950.09 389.32 L948.48 390.33 L945.82 394.85 L944.27 396.88 L942.24 398.11 L939.77 397.8 L936.36 394.06 L934.07 393.33 L929.5 395.9 L929.99 400.7 L933.63 407.68 L931.79 408.24 L926.7 408.37 L912.26 408.74 L907.03 406.99 L904.22 405.15 L900.1 402.45 L894.27 396.18 L892.45 389.31 L893.68 386.98 L897.35 384.17 L897.86 381.81 L897.6 380.98 L896.74 379.8 L896.37 379.12 L896.27 378.42 L896.27 377.14 L896.18 376.64 L895.69 375.18 L895.22 374.17 L894.54 373.52 L893.36 373.07 L888.64 372.61 L886.64 371.74 L884.61 369.29 L878.3 356.32 L877.46 355.23 L876.46 354.61 L875.31 354.73 L874.41 355.66 L873.94 357.06 L873.59 358.51 L873.07 359.66 L871.47 360.53 L870.09 359.89 L868.92 358.3 L867.96 356.37 L866.8 353.23 L866.05 352.14 L864.77 351.56 L863.65 351.76 L861.29 353.21 L860.15 353.65 L858.79 353.6 L856.06 352.92 L854.69 352.84 L852.21 353.88 L852.19 354.36 L852.12 356.01 L852.94 358.93 L853.26 362.3 L849.18 362.17 L844.74 360.51 L843.2 359.51 L840.55 357.81 L838.14 355.19 L834.32 351.05 L831.4 348.6 L828.16 347.11 L816.21 346.09 L813.69 344.98 L805.99 339.42 L801.92 337.79 L797.75 338.67 L795.9 341.01 L795.51 344 L795.39 347.02 L794.23 349.54 L791.26 351.4 L787.65 352.17 L785.97 352.13 L783.96 352.09 L780.67 351.44 L776.93 349.66 L767.57 341.18 L764.87 339.72 L762.23 339.74 L759.69 341.07 L749.4 353.49 L746.6 356.12 L745.15 356.91 L740.51 357.82 L735.51 359.91 L733.83 360.11 L730.42 358.73 L727.35 355.91 L717.85 343.6 L713.3 339.1 L708.26 336.23 L702.65 335.9 L698.99 337.82 L692.74 344.48 L689.24 346.69 L687.39 346.94 L683.68 346.55 L675.17 347.68 L673.91 348.13 L674.79 346.58 L676.35 341.58 L672.3 343.72 L670.27 344.08 L668.14 343.35 L669.36 341.84 L669.89 340.51 L669.7 339.15 L668.72 337.55 L667.39 336.69 L666.62 337.63 L666.18 339.12 L665.83 339.93 L660.2 341.74 L657.08 342.07 L654.74 340.76 L653.18 339.42 L647.61 335.76 L644.45 334.44 L637.87 330.09 L634.61 337.21 L633.9 338.29 L625.83 338.87 L624.01 339.93 L613.43 335.01 L608.99 332.94 L601.77 327.47 L598.48 320.25 L597.45 321.1 L594.77 322.82 L593.74 323.69 L594.45 321.69 L594.63 320.23 L594.37 318.81 L593.74 316.96 L592.11 320.03 L590.32 318.8 L588.26 316.24 L585.76 315.33 L586.46 316.95 L586.91 318.61 L583.41 319 L582.43 317.67 L582.54 315.59 L582.29 313.69 L580.93 308.63 L579.53 307.25 L574.89 311.19 L574.38 312.3 L573 314.3 L571.23 316.29 L569.87 317.14 L568.92 319.83 L567.26 320.98 L565.37 321.8 L563.67 323.49 L562.71 326.36 L562.83 328.45 L562.57 330.2 L560.45 332.09 L556.15 332.66 L522.41 322.56 L512.58 322.23 L504.62 327.69 L499.07 340.04 L496.76 343.7 L494.94 345.04 L490.49 346.44 L488.92 347.54 L487.66 349.76 L487.69 351.11 L488.04 352.67 L487.69 355.49 L486.91 357.43 L483.46 363.9 L481.61 370.75 L480.7 374.12 L476.57 375.25 L470.32 373.83 L463.86 371.01 L459.08 368.01 L443.6 352.5 L440.64 348.57 L437.04 339.2 L434.45 334.88 L432.33 333.24 L428.62 332.45 L427.15 331.34 L427.25 330.24 L427.88 328.47 L427.97 326.36 L426.48 324.23 L424.45 323.21 L422.6 323.12 L418.72 323.88 L402.51 323.43 L393.36 324.93 L389.6 328.42 L387.87 330.02 L385.94 335.26 L385.78 337.11 L386.41 351.36 L385.68 355.09 L381.71 365.43 L381.64 369.9 L383.65 377.17 L383 381.4 L378.8 388.74 L378 391.23 L377.45 392.96 L378.03 398.96 L380.36 403.77 L383.07 408.06 L384.66 412.61 L383.86 416.82 L380.9 418.21 L377.42 419.29 L374.95 422.58 L375.16 426.58 L377.05 430.72 L381.32 437.83 L382.27 439.05 L386.26 441.81 L387.55 444 L388.65 446.41 L390.12 447.99 L392.61 447.61 L394.23 447.06 L397.26 446.83 L398.71 446.34 L399.97 444.81 L400.88 442.77 L402.07 441.28 L404.19 441.41 L405.35 442.77 L405.98 445 L406.43 447.47 L407.01 449.54 L408.3 450.88 L409.74 450.5 L411.14 449.7 L412.42 449.82 L414.24 452.41 L415.51 458.34 L417.77 461.66 L419.49 462.81 L421.6 463.51 L425.73 464.1 L427.81 465.11 L429.14 467.35 L429.98 470.32 L430.6 473.52 L430.33 473.74 L428.93 474.46 L428.18 477.59 L425.38 481.21 L424.05 485.01 L427.53 488.77 L431.03 489.21 L437.19 486.46 L440.78 487.06 L442.74 489.65 L443.86 493.82 L444.75 498.47 L448.92 510.15 L450.06 514.65 L450.09 518.3 L449.08 519.99 L447.64 520.93 L446.52 521.92 L446.43 523.77 L447.06 523.02 L448.95 523.1 L452.03 523.89 L455.55 526.18 L457.37 527.99 L457.84 530.18 L457.88 530.36 L457.42 534.32 L456.83 536.3 L455.11 540.13 L454.62 542.71 L454.78 546.3 L456.39 553.69 L459.56 563.85 L462.32 567.9 L469.67 575.85 L472.12 580.15 L475.88 589.38 L478.37 593.53 L481.62 596.81 L483.53 598.29 L485.19 599.24 L487.01 599.42 L491.42 599.09 L493.12 599.79 L495.31 603.39 L496.08 606.86 L497.46 609.63 L504.88 612.33 L507.85 614.65 L510.48 617.75 L512.32 620.49 L517.13 627.64 L525.42 636.2 L530.93 643.87 L537.92 650.38 L539.19 653.79 L539.81 657.74 L541.24 662.72 L543.67 666.61 L562.5 681.65 L589.27 709.17 L597.5 718.8 L602.88 723.65 L606.65 727.03 L616.5 732.61 L632.88 735.16 L638.13 738.71 L640.82 744.73 L637.64 764.32 L641.42 775.93 L647.98 785.95 L654.88 792.41 L658.31 794.61 L660.09 796.25 L661.21 798.71 L662.63 803.47 L664.59 807.93 L667.18 811.02 L668.68 812.01 L691.78 827.32 L693.58 829.46 L698.73 835.56 L703.91 847.82 L703.92 847.82 L703.94 847.87 L703.96 847.88 L704.54 854.29 L699.76 857.83 L690.64 859.75 L690.55 859.69 L685.39 856.69 L682.83 857.77 L679.63 855.86 L676.74 852.79 L675 850.37 L672.69 846.08 L672.06 843.24 L673.46 841.16 L677.32 839.17 L674.95 838.25 L672.19 839.29 L669.09 841.08 L665.74 842.32 L666.94 841.73 L670.25 839.17 L668.6 839.13 L666.94 838.87 L665.52 837.97 L664.48 836.01 L665.74 834.42 L664.7 832.25 L664.48 831.25 L660.83 834.42 L655.12 829.24 L645.88 816.86 L621.52 804.19 L615.7 799.43 L612.88 797.93 L611.62 796.91 L610.58 793.84 L609.31 792.61 L607.6 791.8 L605.89 791.49 L604.78 790.92 L603.62 789.55 L601.87 786.73 L601.55 785.75 L600.99 782.72 L600.71 781.84 L599.97 781.43 L597.82 780.83 L597.1 780.39 L581.15 759.59 L576.42 756.41 L574.68 754.7 L573.46 753.17 L572.12 752.06 L550.42 748.9 L540.5 744.52 L528.98 742.01 L513.58 730.79 L513.34 730.19 L513.19 729.11 L512.76 728.08 L511.85 727.6 L510.82 727.86 L509.29 728.94 L508.42 729.2 L502.02 727.6 L489.3 727.6 L489.3 726 L492.67 725.97 L496.55 725.02 L500.21 723.36 L503.17 721.22 L500.36 719.41 L496.48 718.51 L480.04 718.17 L478.04 718.79 L474.89 720.8 L473.7 721.22 L470.61 721.71 L463.59 723.92 L442.95 724.41 L442.95 726 L448.54 727.47 L450.94 729.17 L452.21 732.53 L441.79 732.53 L442.18 735.05 L439.7 734.78 L434.23 732.53 L429.72 732.27 L427.82 731.3 L425.39 729.2 L424.35 729.2 L424.35 730.79 L422.31 729.34 L418.53 729.4 L417.32 727.6 L417.18 728 L417.2 728.68 L416.99 729.21 L416.16 729.2 L416.47 726.61 L417.36 726.18 L418.68 726.21 L420.25 725.21 L420.82 723.75 L420.35 722.64 L420.02 721.41 L420.87 719.64 L418.11 719.96 L417.11 720.33 L416.16 721.22 L415.61 718.93 L414.23 717.77 L410.38 716.44 L413.19 716.11 L413.57 714.54 L412.08 713.09 L409.14 713.1 L409.14 711.65 L409.92 711.18 L410.76 710.43 L411.53 709.9 L409.84 708.64 L409.14 708.32 L410.38 706.87 L409.14 705.27 L410.38 703.53 L409.3 700.04 L411.09 698.76 L417.32 698.87 L417.32 697.13 L409.71 695.5 L406.9 695.53 L408.93 694.22 L410.6 694.36 L411.99 695.1 L413.27 695.53 L415.06 694.87 L414.8 693.33 L413.31 691.72 L411.53 690.75 L413.88 689.85 L414.96 688.1 L414.63 686.05 L412.69 684.2 L412.81 688.6 L411.37 688.87 L407.23 685.36 L404.89 683.25 L403.72 683.28 L402.16 682.98 L401.14 682.62 L400.08 681.45 L397.75 677.76 L396.61 676.35 L389.75 672.49 L387.83 670.6 L384.25 669.32 L373.3 668.51 L370.98 665.88 L369.21 660.59 L365.2 658.73 L360.88 657.47 L358.25 653.94 L363.31 656.2 L365.98 656.88 L368.65 657.15 L368.65 655.4 L367.66 654.94 L366.97 655 L366.6 655.24 L366.44 655.4 L361.88 651.45 L350.91 645.96 L346.31 641.95 L346.02 641.7 L342.59 636.34 L340.44 633.85 L337.98 632.8 L335.39 632.42 L333.91 631.95 L332.62 631.35 L330.76 629.86 L329.85 628.36 L329.17 626.73 L327.99 624.78 L318.74 613.55 L314.34 606.88 L311.21 603.66 L307.81 602.28 L300.71 593.54 L300.84 592.77 L293.2 584.44 L291.3 583.33 L289.76 582.05 L289.07 580.37 L289.73 577.99 L287.06 576.05 L278.19 566.85 L280.87 562.66 L279.48 557.44 L275.98 552.87 L272.4 550.57 L274.41 548.1 L277.52 546.29 L280.39 546.79 L281.66 551.31 L283.61 553.98 L287.22 552.24 L288.89 548.58 L285.1 545.6 L286.4 545.25 L286.59 544.83 L286.66 544.79 L287.42 545.6 L288.68 545.6 L287.78 542.73 L287.25 541.75 L295.63 547.35 L299.16 551.97 L301.04 553.55 L303.7 553.8 L301.42 545.6 L302.9 545.12 L303.65 544.45 L304.14 543.56 L304.97 542.35 L302.7 541.62 L300.81 539.82 L299.24 537.3 L297.94 534.43 L301.21 535.62 L305.96 539.95 L310.76 541.75 L322.88 548.7 L325.58 549.72 L338.98 551.79 L342.64 551.44 L343.22 548.81 L340.88 547.22 L329.77 545.6 L328.92 544.87 L323.82 538.22 L322.46 537.26 L305.85 529.27 L303.46 526.8 L279.96 502.65 L272.01 491.46 L267.27 486.18 L262.52 483.95 L261.82 482.79 L256.31 478.34 L254.96 478.19 L253.94 476.1 L237.02 449.53 L234.04 441.56 L235.97 438.58 L235.75 435.05 L234.66 430.89 L234.04 426.03 L233.63 412.83 L234.04 408.67 L237.68 393.58 L239.3 389.92 L240.45 385.41 L239.21 379.99 L229.41 357.22 L228.79 353.1 L227.05 350.25 L224.49 348.23 L214.09 342.62 L195.79 328.39 L187.12 316.91 L184.77 315.6 L181.93 312.6 L180.68 309.31 L182.98 307.05 L181.05 305.05 L174.88 300.47 L177.91 304.08 L178.44 304.52 L177.85 306.4 L176.39 307.41 L174.65 307.4 L173.19 306.23 L170.84 303.59 L152.53 294.23 L145.97 292.78 L142.96 291.09 L140.24 290.52 L137.15 292.94 L133.64 298.59 L130.45 305.91 L128.17 314.17 L126.35 330.83 L124.14 338.49 L124.03 338.85 L123.79 339.74 L119.83 345.25 L114.77 343.3 L117.47 346.64 L117.1 350.23 L114.95 353.63 L112.24 356.4 L111.19 354.62 L110.53 356.64 L110.49 358.3 L111.19 362.8 L110.53 362.37 L109.37 361.82 L108.77 361.32 L108.77 362.8 L111.4 365.88 L112.54 371.01 L112.13 376.56 L110.03 380.94 L108.09 382.41 L106.73 382.23 L105.43 381.43 L103.59 380.94 L101.56 381.71 L99.59 383.57 L98.02 385.78 L97.22 387.63 L96.06 387.63 L96.53 382.95 L97.88 380.83 L98.6 378.8 L97.22 374.39 L93.64 371.13 L93.13 369.31 L93.39 367.61 L93.2 366.44 L91.23 366.21 L91.87 369.04 L91.16 373.29 L91.9 375.21 L93.67 376.38 L95.26 376.56 L96.52 377.14 L97.22 379.45 L95.37 381.26 L93 385.96 L91.93 387.18 L91.23 385.99 L90.28 385.99 L90.96 387.65 L91.21 389.65 L91.02 391.86 L90.28 394.14 L88.91 393.72 L88.21 393.85 L88.24 394.54 L89.12 395.78 L89.12 397.4 L88.25 397.49 L88.04 397.71 L88.09 398.25 L87.88 399.2 L86.2 398.21 L82.45 399.28 L79.78 399.2 L81.14 400.29 L82.01 401.36 L83.22 403.94 L82.06 403.94 L82.06 405.43 L83.22 405.43 L83.22 407.21 L82.01 408.03 L81.24 409.07 L79.78 412.09 L80.11 413.88 L80.4 414.41 L80.38 415.02 L79.78 416.99 L81.57 416.89 L82.62 417.36 L83.39 418.46 L84.41 420.23 L78.29 420.53 L75.31 420.06 L72.83 418.46 L72.5 419.45 L72.47 419.71 L71.68 420.23 L70.64 416.42 L69.11 415.96 L67.4 416.42 L65.81 415.36 L64.62 416.99 L66.44 417.77 L68.2 419.23 L69.06 421.21 L68.23 423.64 L69.75 427.55 L70.52 428.54 L68.01 429.93 L67.38 427.65 L67.43 423.76 L66.96 420.23 L65.72 419.27 L60.71 417.22 L58.86 416.99 L59.22 416.18 L59.66 414.5 L60.02 413.74 L59.48 413.62 L58.26 413.77 L57.7 413.74 L58.86 412.09 L57.7 410.31 L55.86 410.76 L53.2 409.84 L50.43 407.94 L48.36 405.43 L49.63 403.94 L51.37 406.5 L53.86 407.2 L56.26 405.84 L57.7 402.31 L53.13 403.4 L51.37 402.96 L49.63 400.67 L49.63 399.2 L50.32 398.52 L51.13 396.93 L51.92 395.78 L49.99 393.52 L46.16 384.21 L39.16 376.76 L30.45 364.44 L29.1 363.31 L26.98 360.88 L24.1 358.65 L20.61 358.04 L21.37 356.52 L22.28 354.12 L22.93 353.12 L18.81 347.3 L23.2 344.38 L38.06 343.3 L34.75 341.72 L30.84 341.17 L22.93 341.5 L18.71 342.75 L16.78 342.64 L16 340.68 L16.33 338.15 L16.78 336.07 L16.58 334.47 L14.84 333.46 L15.62 331.83 L15.73 330.62 L15.09 329.54 L13.68 328.39 L13.68 326.9 L15.07 326.02 L15.75 324.54 L15.71 322.58 L14.84 320.2 L15.96 317.83 L15.87 315.36 L14.69 313.25 L12.52 311.98 L13.09 310.51 L14.01 309.28 L15.34 308.55 L17.14 308.55 L17.14 307.05 L15.42 306.22 L14.08 305.16 L13.12 303.76 L12.52 301.97 L14.26 301.65 L15.75 300.85 L18.3 298.68 L16.33 297.66 L11.78 297.5 L10.21 297.18 L8.32 295.27 L6.74 292.42 L6.61 289.86 L9.05 288.82 L9.05 287.31 L7.05 285.18 L2.01 270.7 L2.36 270.23 L2.89 269.7 L3.27 269.06 L2.45 267.99 L2.4 267.82 L2.77 267.43 L3.27 265.62 L0.52 259.19 L0 255.64 L0.95 252.42 L2.01 252.42 L3.67 253.79 L11.37 257.52 L14.16 257.9 L14.91 258 L20.76 264.3 L23.93 265.09 L23.95 265.1 L26.83 264.96 L43.65 264.19 L51.65 269.27 L53.91 271.56 L56.56 272.41 L65.61 273.73 L67.41 272.39 L68.9 270.06 L71.37 267.62 L79.3 264.24 L81.47 261.26 L77.88 256.96 L77.88 254.36 L78.47 252.65 L79.65 251.86 L82.28 252.42 L86.77 253.37 L89.2 254.66 L91.44 256.94 L95.69 260.06 L100.14 261.6 L104.17 261.82 L104.27 261.83 L104.67 261.85 L109.04 261.04 L117.09 257.26 L121.43 255.98 L125.14 256.91 L131.88 259.86 L139.74 261.36 L147.52 260.65 L154.03 256.94 L157.16 254 L163.8 249.12 L166.04 245.04 L166.93 241.62 L167.62 236.16 L167.75 235.13 L168.82 232.05 L170.39 229.71 L174.66 224.9 L176.45 222.3 L178.56 217.4 L179.88 215.94 L180.76 215.57 L182.76 214.7 L184.62 215.78 L184.99 219.5 L184.79 223.94 L184.95 227.21 L186.51 230.26 L188.7 232.56 L194.51 237.21 L195.7 237.71 L196.77 238.33 L196.83 238.37 L197.81 239.7 L198.13 241.57 L197.53 245.84 L197.59 247.09 L200.95 249.98 L216.66 256.91 L216.68 256.91 L216.69 256.94 L216.71 256.96 L219.37 263.71 L226.42 265.2 L233.67 262.6 L236.92 256.96 L237.54 251.81 L240.61 251.69 L244.46 254.21 L247.39 256.96 L249.88 257.3 L251.39 257.51 L253.28 258.39 L254.96 259.93 L263.22 260.15 L264.91 261.59 L277.29 272.19 L284.9 273.26 L291.95 270.64 L301.39 267.14 L306.88 267.25 L308.77 266.69 L310.24 265.32 L313.27 261.06 L314.9 259.64 L306.37 253.87 L303.94 249.75 L302.58 244.53 L301.56 238.23 L301.49 238.02 L300.56 235.31 L299.36 232.71 L299.18 230.72 L301.3 229.63 L302.45 228.62 L303.08 226.71 L304.06 224.9 L309.03 223.32 L311.13 222.19 L313.5 221.36 L317 221.39 L316.07 219.25 L313.3 214.64 L312.98 214.27 L310.24 211.11 L309.72 210.65 L309.09 210.98 L307.04 211.54 L306.27 212.19 L306.04 213.16 L305.34 213.65 L303.14 212.83 L301.63 211.72 L300.74 210.53 L299.06 207.28 L297.43 205.66 L296.19 205.05 L295.86 204.03 L296.03 203.57 L296.89 201.21 L298.33 199.53 L305.15 195.71 L309.76 194.17 L326.36 188.64 L326.47 188.54 L328.39 186.97 L328.13 184.66 L327.46 182.13 L328.27 179.85 L330.12 178.96 L332.03 179.19 L333.95 179.83 L335.89 180.17 L337.57 179.56 L340.72 176.95 L342.35 176.12 L346.79 176.88 L353.15 177.97 L359.71 177.73 L363.02 176.78 L366.48 174.94 L368.18 172.51 L368.07 169.04 L366.08 164.15 L365.36 161.05 L366.03 158.13 L367.22 155.25 L368.09 152.21 L368.35 148.16 L368.06 140.68 L367.86 135.65 L367.88 135.61 L369.18 130.68 L371.15 127.7 L371.89 125.15 L371.02 123.83 L369.51 121.51 L367.44 119.98 L362.7 118 L360.64 116.77 L359.3 115.34 L355.95 111.79 L353.59 106.28 L353.6 100.14 L356.04 93.22 L359.17 87.18 L359.8 86.32 L362.04 83.27 L365.68 81.4 L368.5 81.61 L380.66 82.51 L383.89 80.41 L387.32 74.61 L389.08 73.25 L389.69 72.78 L392.26 71.56 L394.95 70.86 L402.59 70.63 L402.86 70.62 L403.33 70.61 L409.29 67.32 L414.34 64.53 L419.98 63.52 L421.95 62.96 L422.76 62.73 L426.27 60.95 L429.62 58.59 L431.47 56.56 L431.89 56.1 L433.12 52.74 L433.13 49.55 L432.75 46.04 L432.84 41.65 L438.03 42.74 L439 42.94 L440.97 42.58 L442.58 41.22 L443.88 39.35 L445.3 37.84 L447.38 37.43 L449.02 38.24 L453.08 42.12 L455.5 43.55 L458.35 44.21 L459.78 44.15 L465.82 42.66 L469.69 42.72 L470.48 41.97 L470.42 41.37 L470.21 39.24 L469.43 38.07 L466.54 36.16 L465.51 34.91 L465.05 32.86 L465.37 28.9 L465.24 26.92 L463.23 20.15 L462.58 16.79 L462.67 15.28 L462.79 13.2 L467.2 8.22 L467.71 7.64 L473.03 5.55 L475.62 3.94 L478.89 2.84 L480.63 0.78 L481.29 0 L482.49 1.74 L482.57 1.84 L483.62 0 L485.58 1.58 L487.73 1.87 L489.88 1.69 L491.81 1.84 L493.31 2.81 L496.16 5.85 L497.58 6.88 L499.05 7.05 L502.73 6.58 L504.51 6.88 L506.17 7.83 Z M835.69 948.03 L836.48 951.75 L835.53 959.16 L835.65 963.15 L836.86 966.7 L838.66 969.73 L840.83 972.33 L842.15 973.15 L845.09 974.86 L845.93 977.43 L845.69 980.83 L841.97 975.09 L839.68 973.58 L834.03 971.9 L831.58 970.39 L831.37 967.14 L802.1 948.06 L798.98 943.44 L799.04 941.33 L799.42 938.16 L799.48 935.27 L798.47 934.03 L789.75 932.45 L782.78 928.39 L780.04 927.74 L777.16 927.54 L774.51 926.84 L772.47 925.39 L771.36 923.02 L774.73 923.02 L771.11 919.54 L769.74 917.79 L768.96 915.16 L766.44 917.63 L762.19 915.48 L755.07 908.86 L744.98 903.67 L741.44 899.78 L743.5 894.69 L738.8 894.89 L733.7 890.91 L728.9 889.82 L727.79 890.04 L726.48 890.6 L725.35 891.38 L724.41 893.28 L723.34 892.9 L722.32 892.04 L721.92 891.55 L720.8 890.82 L716.79 887.5 L714.4 886.52 L717.55 889.56 L719.09 891.79 L721.33 897.48 L721.33 898.5 L720.18 899.28 L719.09 899.02 L719.09 897.62 L719.36 895.87 L719.12 894.69 L715.72 892.4 L707.22 888.83 L699.58 887.28 L690.55 883.05 L681.26 881.35 L666.9 875.64 L667.29 869.8 L662.98 866.89 L651.75 864.45 L638.27 854.83 L632.54 852.97 L629.84 851.02 L628.54 850.37 L626.52 849.98 L608.48 849.95 L602.92 848.65 L600.15 847.49 L596.99 845.52 L595.36 843.15 L597.1 840.76 L597.1 839.17 L595.52 838.46 L594.52 837.27 L593.7 835.85 L592.61 834.42 L596.25 835.08 L601.76 839.64 L604.73 840.76 L619.2 839.17 L633.01 841.08 L658.44 851.5 L664.42 855.4 L669.22 859.7 L669.49 860.6 L669.52 861.87 L669.67 863.24 L670.25 864.45 L671.04 864.69 L673.02 864.29 L673.85 864.45 L676.86 866.74 L678.28 867.38 L680.18 867.6 L680.82 867.12 L680.74 864.94 L681.41 864.45 L682.42 864.72 L684.01 865.9 L684.87 866.18 L686.96 866.51 L688.52 867.38 L691.17 869.32 L697.79 871.49 L700.96 873.07 L702.84 875.64 L703.9 875.64 L706.39 875.24 L713.56 882.37 L717.87 883.51 L712.7 879.5 L711.17 876.76 L713.16 873.92 L712.1 872.48 L707.25 874.24 L702.95 871.57 L705.08 868.29 L707.37 865.86 L711.12 864.97 L714.84 865.73 L721.93 868.53 L725.54 869.16 L726.88 868.42 L728.23 867.25 L729.77 867.2 L731.73 869.86 L732.22 872.1 L732.03 877.67 L732.38 880.31 L737.68 888.66 L739.53 889.85 L745.47 891.52 L749.6 894.7 L756.87 902.96 L760.85 906.31 L770 912.23 L799.59 932.19 L805.17 935.22 L814.39 938.37 L818.98 938.07 L820.83 939.5 L824.25 944.54 L824.37 944.71 L826.87 946.35 L832.92 947.01 Z M568.32 896.26 L578.97 897.84 L581.15 899.28 L581.56 902.83 L579.57 906.09 L576.32 908.31 L572.85 908.86 L572.38 907.24 L571 906.96 L568.32 905.72 L566.54 907.89 L564.28 908.5 L561.99 907.32 L560.13 904.15 L562.24 902.93 L562.54 900.86 L561.66 899.64 L560.13 900.99 L558.98 900.99 L560.2 898.26 L563.23 896.97 Z M703.9 905.72 L707.36 908.74 L716.01 912.53 L719.12 916.88 L657.67 899.28 L655.62 901.8 L652.23 900.26 L648.96 897.11 L647.14 894.69 L650.16 894.1 L655.62 891.96 L658.76 892.18 L657.92 892.52 L657.01 893.07 L655.25 894.69 L657.12 894.5 L658.92 894.61 L660.65 895.17 L662.16 896.26 L663.43 894.69 L666.3 896.58 L674.62 896.69 L681 900.69 L689.59 902.37 L693.49 904.15 L692.97 904.63 L692.82 904.75 L692.34 905.72 L702.08 906.76 Z M614.65 853.4 L617.51 857.32 L620.15 859.89 L626.23 864.45 L625.07 866.18 L621.85 864.39 L618.25 864.6 L610.52 866.18 L594.92 862.86 L587.75 863.31 L575.18 868.13 L567.17 869.32 L548.27 865.51 L540.09 862.96 L536.94 863.3 L536.9 864.45 L534 863.41 L531.12 861.44 L542.69 855.12 L542.69 853.4 L539.47 852.38 L532.78 851.49 L529.97 850.37 L533.53 848.11 L537.27 847.99 L541.12 848.62 L545 848.65 L548.55 850.84 L553.15 852.77 L562.54 855.12 L571.79 855.12 L574.15 854.38 L578.03 852.25 L597.76 850.37 L611.14 854.61 Z M463.86 829.68 L464.58 828.66 L465.32 827.95 L465.93 828.31 L466.18 830.47 L465.71 831.89 L464.58 832.97 L462.6 834.42 L460.6 837.02 L458.63 838.64 L443.57 843.25 L437.78 843.7 L433.72 842.32 L437.33 840.34 L437.77 836.76 L436.42 834.01 L434.76 834.42 L433.72 834.42 L431.29 831.25 L431.99 830.53 L432.72 830.08 L433.56 829.84 L434.76 829.68 L438.69 827.18 L445.07 825.86 L451.83 826.03 L456.84 827.95 L455.98 829.11 L455.68 829.68 L459.56 828.01 L461.66 828.12 Z M540.37 816.86 L536.49 817.27 L517.81 813.21 L503.5 807.75 L498.39 806.75 L495.36 804.65 L493.46 804.19 L485.94 801.02 L486.65 799.99 L487.42 799.52 L489.3 799.43 L491.42 800.63 L493.34 800.33 L497.48 797.7 L498.54 799.43 L499.05 798.47 L500.95 796.26 L500.95 797.7 L507.07 795.77 L512.25 798.98 L516.98 802.78 L521.77 802.61 L517.14 797.7 L512.64 794.95 L511.15 793.24 L513.6 793.53 L518.3 793.24 L521.77 796.26 L522.42 796.2 L524.09 794.92 L525.25 794.52 L527.38 794.51 L532.4 795.35 L534.68 796.26 L535.83 797.45 L536.89 799.27 L538.27 801.19 L540.37 802.61 L540.46 803.68 L540.22 803.97 L539.75 803.97 L539.22 804.19 L542.52 806.75 L546.23 808.19 L550.21 808.81 L566.62 808.72 L569.38 807.21 L571.75 809.53 L574.85 810.47 L585.35 811.02 L595.47 813.7 L610.93 813.02 L618.62 813.83 L625.07 816.86 L582.72 816.86 Z M507.8 780.39 L494.45 772.64 L491.72 769.12 L493.09 770.02 L494.04 770.87 L495.2 770.87 L495.28 769.4 L495.77 769.17 L496.56 769.34 L497.48 769.12 L496.55 767.44 L496.66 765.92 L497.8 764.81 L499.8 764.35 L497.47 760.22 L495.2 754.82 L498.71 754.65 L499.8 754.82 L506.65 757.57 L539.45 758.8 L560.13 764.35 L560.13 765.93 L557.82 765.93 L559.62 766.84 L561.22 767.36 L562.57 767.18 L563.61 765.93 L565.13 767.21 L568.32 770.87 L570.15 771.47 L571.62 771.28 L572.88 771.62 L574.1 773.89 L571.94 778.14 L570.71 779.52 L569.38 778.66 L566.29 782.92 L560.7 784.22 L529.39 785.16 L518.51 783.69 Z M489.3 765.93 L486.68 768.95 L482.05 767.72 L470.73 760.58 L462.35 757.06 L458.08 756.41 L457.97 755.36 L458.2 755.04 L458.63 755.03 L459.12 754.82 L457.46 753.45 L456.96 751.8 L457.83 750.44 L460.28 749.9 L469.93 750.66 L473.51 752.6 L474.28 756.41 L478.87 755.84 L482.05 758.5 L485.11 762.49 Z M368.65 695.53 L379.07 700.33 L369.07 697.33 L367.5 698.01 L365.98 696.08 L358.62 690.64 L355.94 689.29 L357.22 687.55 L357.92 688.75 L358.62 689.11 L363.79 689.68 L365.73 691.45 L367.1 693.72 Z M297.94 644.18 L298.81 646.55 L311.69 657.15 L313.71 659.84 L315.91 662.25 L320.71 666.4 L319.23 665.36 L309.24 660.79 L306.02 658.61 L302.55 653.94 L297.94 650.59 L295.68 648.42 L293.23 645.33 L292.28 642.45 L294.47 640.97 Z M304.97 620.84 L304.02 618.09 L299.46 612.86 L297.94 610.33 L301.17 610.39 L303.9 611.61 L312.96 618.51 L317.81 619.6 L318.74 619.95 L319.16 621.3 L319.65 625.25 L320.02 626.53 L321.04 627.7 L323.32 628.71 L324.62 629.6 L325.97 631.26 L327.43 633.8 L328.67 636.67 L329.23 639.38 L327.99 638.64 L326.75 638.15 L325.45 637.86 L323.99 637.76 L322.63 637.35 L322.04 636.4 L321.7 635.33 L321.05 634.54 L316.71 633.19 L314.44 631.89 L312.96 629.6 L313.71 629.05 L314.12 628.13 L311.87 627.13 L308.82 625.06 L306.13 622.71 Z M296.79 608.72 L294.66 606.39 L293.04 603.17 L291.52 601.09 L289.73 602.28 L288.68 602.28 L288.48 601.22 L288.15 600.57 L287.82 599.98 L287.42 599.08 L285.74 601.68 L282.44 599.12 L278.9 594.95 L274.34 591.21 L268.46 583.78 L265.34 581.36 L265.7 580.5 L265.76 580.3 L265.91 580.22 L266.5 579.75 L265.81 578.43 L264.3 574.77 L291.94 597.33 L295.55 601.94 Z M227.1 577.99 L228.39 577.05 L229.55 577.1 L230.65 578.02 L231.56 579.82 L229.36 580.68 L225.81 579.55 L223.21 576.87 L223.65 573.17 L224.49 575.72 L225.86 577.34 Z M278.19 624.78 L290.42 633.44 L291 636.17 L286.81 637.57 L278.35 630.83 L276.28 631.46 L277.03 632.25 L277.47 633.39 L278.19 634.54 L282.44 637.63 L283.44 638.58 L284.77 639.51 L286.07 639.38 L287.03 639.65 L287.42 641.7 L286.65 642.88 L284.96 641.83 L283.37 640.15 L282.9 639.38 L276.82 635.74 L274.26 633.49 L271.77 630.47 L265.04 620.1 L260.96 615.19 L254.24 600.61 L250.85 597.32 L246.11 595.13 L231.73 579.75 L231.34 577.1 L230.51 574.98 L228.25 571.54 L229.2 571.33 L229.95 571.44 L230.57 571.54 L233.87 575.42 L243.41 582.97 L244.26 584.6 L245.04 586.75 L246 588.62 L247.39 589.41 L249.71 590.16 L251.19 591.5 L252.67 592.24 L254.96 591.02 L254.18 593.35 L253.8 594.23 L256.15 594.57 L257.56 595.92 L258.23 598.25 L258.43 601.48 L259.12 604.37 L260.71 606.71 L268.65 615.37 L270.5 616.44 L272.98 616.75 L273.51 617.91 Z M232.88 480.55 L231.01 478.99 L213.33 457.04 L210.31 451.84 L208.62 446.43 L209.38 446.45 L209.9 446.81 L216.46 454.45 L227.51 470.86 L234.04 475.83 L233.42 468.8 L237.47 468.61 L243.26 472.38 L248.01 477.31 L251.87 483.68 L254.38 486.18 L260.69 488.22 L262.48 490.91 L264.16 494.58 L266.5 498.53 L263.18 498.02 L258.48 494 L254.96 493.67 L255.7 491.22 L256.11 490.3 L249.13 486.17 L245.74 484.9 L243.91 483.48 L241.62 482.32 L238.67 482.32 L238.67 483.95 L247.96 489.08 L261.84 509.12 L270.08 514.87 L267.4 512.65 L264.71 509.47 L262.35 505.36 L260.74 500.29 L267.81 503.8 L283.61 520.53 L287.42 522.96 L289.81 525.76 L294.58 530.06 L296.79 532.67 L293.52 533.56 L289.57 531.22 L285.43 527.99 L281.66 526.19 L281.66 527.81 L284.68 528.45 L287.65 530.42 L290.26 533.12 L292.16 535.9 L288.68 535.9 L288.97 537.23 L289.43 538.04 L290.12 538.61 L291 539.13 L287.39 538.11 L279.88 534.81 L275.87 534.43 L275.87 535.9 L282.9 540.88 L282.9 542.35 L278.98 541.39 L275.51 539.3 L272.54 536.32 L270.08 532.67 L270.08 531.19 L272.4 531.19 L272.4 529.43 L271.03 528.61 L270.17 527.63 L268.82 524.57 L270.61 524.72 L271.82 524.34 L272.7 523.3 L273.56 521.5 L269.23 518.62 L267.77 518.11 L266.17 518.36 L263.5 519.84 L262.01 519.73 L260.21 517.69 L257.23 511.35 L246.74 502.65 L245.2 502.32 L236.35 496.9 L236.35 495.45 L237.32 495.11 L238.96 494.09 L239.94 493.67 L237.84 489.79 L232.99 482.56 Z M159.84 479.08 L173.57 493.86 L174.88 498.53 L171.09 498.96 L166.53 494.6 L160.92 487.18 L158.59 485.57 L158.59 483.95 L162.16 484.97 L163.32 485.57 L158.56 479.39 L155.96 477.2 L152.82 475.83 L151.62 478.32 L149.85 479.16 L147.84 478.7 L145.87 477.31 L145.87 475.83 L147.03 475.83 L147.03 475.79 L146.82 475.26 L146.16 474.03 L149.18 470.22 L148.06 465.51 L143.56 457.82 L142.74 454.69 L141.48 447.27 L141.26 443.19 L144.63 445.5 L148.93 447.52 L151.7 450.62 L150.5 456.2 L151.31 458.29 L152.06 462.07 L152.82 468.53 L153.82 470.76 Z M209.78 428.54 L209.78 430.39 L210.19 431.51 L212.08 433.43 L209.84 431.84 L207.14 431.07 L204.61 431.01 L202.83 431.65 L195.79 423.64 L197.91 423.47 L200.02 423.64 L202.05 424.2 L203.89 425.13 L203.89 423.64 L203.31 422.84 L203.16 422.31 L203.15 421.6 L202.83 420.23 L205.6 422.59 L206.3 423.64 L207.46 423.64 L205.31 418.95 L203.91 416.94 L201.58 415.36 L201.19 414.58 L200.52 412.09 L204.07 412.62 L207.46 413.74 L207.01 412.75 L206.3 410.31 L209.53 410.6 L211.94 412.41 L212.42 414.83 L209.78 416.99 L209.78 418.46 L211.06 419.34 L217.71 425.91 L221.8 428.31 L223.65 430.17 L228.53 438.31 L229.85 443.06 L228.25 446.43 L223.49 442.27 L215.27 432.81 Z M171.42 456.2 L170.42 458.31 L170.51 460.21 L171.6 460.96 L173.72 459.6 L174.88 462.84 L173.69 464.53 L172.51 465.87 L171.32 466.51 L169.45 466.17 L164.49 466.17 L156.85 457.53 L151.2 445.38 L151.66 434.89 L150.9 434.68 L150.42 434.31 L149.99 433.89 L149.34 433.43 L147.81 434.36 L146.74 432.64 L146.08 429.46 L145.87 421.79 L145.62 419.54 L144.78 418.63 L142.99 418.46 L140.25 415.25 L137.59 400.95 L134.22 397.4 L134.38 396.34 L134.56 395.66 L135.46 394.14 L133.93 389.82 L135.46 389.09 L139.46 390.74 L140.66 391.77 L143.71 396.38 L145.29 397.4 L148.26 397.52 L149.99 397.32 L150.98 395.94 L151.66 392.51 L151.04 391.16 L150.27 387.43 L150.49 385.03 L152.82 387.63 L154.06 385.99 L150.68 382.86 L148.19 378.69 L143.1 364.16 L142.11 362.22 L133.07 351.33 L131.56 348.38 L131.42 344.86 L133.26 339.86 L135.12 336.62 L137.51 334.2 L140.59 333.38 L144.71 334.96 L146.05 337.75 L145.44 347.35 L145.87 353.12 L146.99 357.45 L150.05 366.19 L154.21 374.67 L155.12 376.03 L157.35 377.87 L161.25 378.42 L163.32 379.45 L164.57 382.39 L164.16 386.57 L162.72 390.87 L160.92 394.14 L162.16 395.78 L160.59 399.94 L160.34 403.36 L160.92 411.2 L163.11 418.23 L163.4 422.2 L160.92 423.64 L161.79 426.27 L163.85 429.77 L164.47 431.65 L164.64 434.19 L163.58 437.15 L163.32 440.09 L164.35 445.3 L166.62 449.08 L169.28 452.39 Z M206.88 389.1 L204 388.3 L195.79 382.72 L190.89 380.77 L190.14 379.02 L190.02 375.21 L190.44 366.62 L189.52 364.62 L186.55 366.21 L186.55 367.84 L188.86 369.64 L184.41 369.98 L170.84 367.84 L166.58 366.44 L162.31 362.99 L158.69 358.65 L156.37 354.62 L157.74 352.58 L159.17 351.63 L160.79 351.34 L162.74 351.34 L163.38 350.31 L163.27 348.06 L163.48 345.8 L165.05 344.78 L171.43 344.61 L174.16 343.22 L172.66 339.86 L174.85 336.66 L175.76 334.69 L176.13 332.64 L175.73 330.74 L175.14 328.98 L175.3 327.16 L177.19 325.11 L177.49 322.43 L177.33 320.32 L176.47 318.98 L174.88 318.55 L177.33 315.86 L179.78 315.62 L185.29 318.55 L183.53 318.47 L182.98 318.55 L183.28 320.32 L183.82 321.72 L184.52 322.8 L185.29 323.61 L187.8 328.04 L190.02 333.46 L185.55 335.63 L188.12 337.36 L193.39 337.95 L197.04 336.75 L198 341.15 L195.97 349.58 L197.04 354.62 L199.21 356.99 L202.24 357.95 L209.78 358.04 L209.69 364.93 L219.82 374.3 L222.38 380.94 L221.34 380.94 L219.38 382.41 L217.26 382.89 L215.15 382.41 L213.23 380.94 L210.92 382.72 L210.92 384.21 L213.21 386.28 L212.55 387.82 L210.04 388.77 Z M475.56 728.31 L479.6 729.77 L486.56 732.42 L485.8 733.78 L479.46 734.47 L470.77 732.94 L468.29 733.18 L466.84 733.96 L464.75 734.46 L462.07 734.04 L459.98 733.32 L458.82 732.44 L458.88 731.16 L460.09 730.65 L460.83 730.73 L461.96 731.02 L464.25 731.3 L465.72 730.14 L465.02 728.19 L467.79 727.12 Z M213.04 544.02 L215.36 545.66 L218.44 548.64 L218.11 549.97 L215.69 550.04 L214.09 550.41 L213.07 551.64 L211.14 551.21 L209.38 548.74 L209.62 546.83 L211.33 546.82 L211.93 546.04 L211.93 544.27 Z M188.27 532.49 L193.37 536.05 L196.38 540.09 L195.71 540.9 L192.9 539.34 L185.8 532.9 L185.15 530.99 Z M219.49 523.76 L220.81 526.09 L221.75 530.3 L220.03 531.95 L217.34 531.05 L215.48 529.72 L212.44 526.99 L212.71 525.04 L214.47 522.2 L213.66 514.83 L214.28 514.52 L215.05 514.23 L216.95 513.98 L218.97 515.03 L220.4 517.16 L220.7 519.47 L219.79 521.39 L219.3 522.9 Z M125.74 456.37 L129.41 452.07 L131.89 452.54 L131.82 454.86 L130.83 456.31 L128.58 456.84 L128.33 457.15 L127.97 457.49 L127.89 458.37 L128.17 459.61 L127.81 460.9 L127.86 462.18 L128.26 462.88 L129.41 464.95 L130.32 468.01 L129.1 468.24 L127.11 466.98 L125 466.27 L123.79 464.8 L123.95 462.7 L124.29 460.94 Z "/>
</g>
</svg>
