<svg xmlns="http://www.w3.org/2000/svg" viewBox="0 0 1000 341.76">
<g fill="#ccc" stroke="#333" stroke-width="0.5" stroke-linejoin="round">
<path fill-rule="evenodd" d="M911.05 334.94 L911.06 327.63 L907.17 327.63 L907.34 327.17 L907.84 326.69 L909.2 325.76 L910.4 325.53 L911.5 323.44 L911.99 322.29 L911.44 321.34 L911.29 318.81 L909.41 319.18 L908.52 320.51 L907.95 321.54 L907.28 322.74 L906.54 322.28 L905.57 321.77 L904.17 322.32 L903.62 323.48 L903.44 324.44 L903.74 325.47 L904.24 325.63 L904.85 325.78 L905.22 325.68 L905.47 325.33 L905.66 324.91 L905.85 325.37 L906.25 326.38 L905.12 327.02 L905.03 327.72 L903.3 327.71 L898.67 330.99 L898.31 334.66 L893.52 335.82 L884.4 336.39 L883.38 336.29 L880.3 335.58 L879.39 335.1 L878.75 334.99 L878.48 335.18 L877.71 336.1 L877.14 336.39 L874.64 336.72 L871.68 336.67 L868.91 336.13 L866.99 334.99 L863.93 335.45 L860.15 333.43 L856.32 330.7 L853.1 329.01 L851.08 328.78 L844.46 329.01 L842.7 328.79 L839.09 327.83 L837.21 327.6 L833.66 328.01 L831.8 328.55 L830.58 329.32 L829.23 329.52 L817.03 326.56 L808.69 325.59 L804.44 325.76 L797.06 327.77 L793.54 328.28 L786.83 328.28 L784.83 328.56 L780.95 329.91 L778.91 330.35 L767.15 329.64 L755.18 330.66 L753.27 331.65 L751.25 331.56 L749.21 331.1 L747.28 330.96 L745.86 331.58 L742.88 334.02 L740.92 334.99 L738.74 335.55 L726.8 336.1 L724.45 335.72 L719.83 333.87 L717.47 333.43 L716.19 334.38 L715.56 334.38 L714.87 333.72 L713.92 333.58 L713.01 333.99 L712.4 334.99 L710.05 334.22 L707.36 334.01 L704.98 334.64 L703.5 336.39 L706.02 336.39 L706.02 337.06 L704.38 337.14 L701.79 338.16 L700.06 338.41 L691.49 338.64 L685.63 340.08 L682.3 340.42 L678.41 340.11 L672.7 341.65 L670.91 341.76 L669.66 341.55 L668.41 340.97 L667.4 340.1 L666.78 339.02 L666.89 337.21 L668.62 333.96 L668.73 333.04 L669.41 332.83 L670.58 332.7 L671.25 332.37 L671.88 331.76 L672.51 330.75 L673.15 330.35 L672.87 329.28 L673.3 328.52 L675.04 326.93 L677.1 324.07 L677.25 323.58 L677.58 322.83 L681.99 318.82 L681.81 317.96 L680.57 316.72 L680.72 316.12 L681.56 316.18 L684 316.98 L684.91 316.1 L686.69 315.53 L687.1 315.14 L687.35 314.55 L688.99 312.09 L690.6 310.97 L694.57 308.85 L696.09 306.62 L697.83 305.33 L707.14 300.93 L708.93 300.66 L710.3 299.9 L711.76 296.35 L713.09 295.21 L713.36 295.17 L713.69 295.16 L714.29 295.21 L713.77 296.36 L714.32 296.93 L715.52 296.98 L716.87 296.62 L718.13 295.8 L719.11 294.57 L719.75 293.1 L719.97 291.51 L720.65 290.95 L724.45 288.54 L724.74 283.81 L725.37 283.1 L726.08 282.45 L727.32 278.99 L724.45 274.34 L723.55 273.5 L721.06 271.82 L717.75 270.54 L716.85 270.41 L717.45 271.52 L716.87 272.19 L715.15 271 L713.72 270.34 L712.76 269.34 L712.4 267.14 L712.71 266.47 L713.44 266.08 L714.29 265.81 L714.93 265.45 L716.87 262.75 L716.87 262.08 L713.52 259.93 L711.73 259.56 L711.08 261.4 L709.22 259.56 L707.65 257.09 L705.83 254.92 L703.21 253.98 L700.57 254.22 L697.66 254.9 L695.24 255.96 L694.04 257.35 L693.16 256.8 L692.63 256.81 L692.16 257.09 L691.51 257.35 L690.53 257.61 L689.94 257.87 L689.32 258.04 L688.3 258.03 L686.68 257.75 L681.99 256.01 L678.39 257.94 L677.57 258.03 L676.23 257 L675.61 256.68 L674.91 256.54 L672.18 256.68 L671.45 256.6 L669.66 256.07 L669.05 255.7 L668.7 255.92 L667.51 256.01 L662.97 255.74 L661.39 255.23 L658.93 253.53 L657.2 253.02 L653.81 252.63 L651.8 253.11 L650.42 254.19 L649.25 255.33 L647.85 256.01 L641.83 256.19 L638.69 255.37 L637.69 253.24 L637 253.24 L636.43 254.66 L633.39 251.05 L632.29 250.55 L630.28 250.14 L629.16 249.06 L627.53 245.88 L626.55 244.76 L624.85 243.19 L622.98 242.02 L621.51 242.07 L620.52 242.62 L620.18 242.11 L620.13 241.19 L619.96 240.48 L618.85 239.13 L618.26 238.19 L618.01 237.35 L617.34 235.92 L610.81 231.14 L609.54 230.78 L606.3 230.96 L605.15 230.29 L604.12 228.8 L602.74 226.16 L601.6 225.03 L598.2 222.41 L597.38 222.31 L596.75 221.39 L596.18 218 L595.86 211.56 L595.13 208.78 L593.71 205.99 L592.73 203.18 L593.33 200.32 L594.18 201.32 L595.2 201.47 L596.07 200.8 L596.43 199.37 L595.75 198.36 L592.75 197.35 L592.07 196.63 L591.87 194.9 L591 191.68 L590.81 189.79 L590.41 188.11 L588.67 185.09 L588.28 183.67 L587.72 180.33 L586.3 177.16 L584.41 174.44 L582.48 172.47 L580.98 171.45 L579.53 170.91 L574.63 170.14 L573.49 169.77 L573.05 169.03 L573.65 167.66 L574.69 168.26 L575.87 168.46 L578.41 168.4 L578.78 167.95 L578.31 166.93 L577.15 165.34 L576.51 164.75 L575.56 164.05 L573.65 162.96 L572.29 162.56 L571.62 162.65 L571.02 163.05 L569.86 163.58 L565.58 164.58 L561.28 165 L560.82 165.18 L560.3 165.63 L559.88 166.18 L559.71 166.67 L559.4 167.04 L558.68 167.12 L555.85 166.95 L554.73 166.72 L553.74 166.64 L552.76 167.04 L552.13 166.3 L550.54 167.19 L548.85 167.58 L544.87 167.66 L543.05 167.98 L538.19 170.37 L534.39 171.4 L530.73 171.72 L526.98 171.37 L519.57 169.21 L518.04 168.27 L516.33 166.67 L515.02 166.47 L510.22 167.05 L508.41 167.04 L506.38 166.4 L505.5 165.86 L504.62 165 L503.22 162.64 L502.4 161.76 L502.04 162.6 L501.76 163.61 L501.07 164.26 L500.15 164.41 L499.22 163.92 L498.34 163.11 L497.81 162.83 L493.85 161.72 L493.3 161.49 L492.57 160.86 L492.02 159.94 L491.58 158.82 L490.94 157.87 L489.75 157.47 L483.22 157.3 L476.99 155.49 L474.62 155.53 L473.58 157.13 L472.95 158.87 L471.38 158.63 L469.33 157.56 L467.26 156.79 L467.26 156.11 L469.16 155.37 L469.16 154.75 L467.72 154.42 L467.42 153.31 L467.51 151.9 L467.26 150.68 L465.69 151.84 L464.06 152.34 L462.26 152.36 L460.21 152.03 L458.32 151.34 L457.25 151.09 L456.42 151.29 L456.17 152 L456.75 152.67 L457.67 153.16 L458.42 153.33 L457.29 154.57 L455.57 153.74 L454 151.96 L453.32 150.34 L453.11 148.2 L452.47 146.33 L451.37 145 L449.79 144.5 L447.89 144.17 L444.1 142.72 L440.19 141.87 L437.46 139.57 L432.63 138.03 L429.78 135.57 L419.69 124.7 L419.51 124.26 L419.51 123.75 L419.45 123.19 L419.06 122.66 L418.66 122.59 L417.54 122.76 L417.17 122.66 L416.16 121.75 L415.89 121.12 L415.9 119.93 L417.21 120.19 L418.82 120.12 L420.41 119.62 L421.65 118.57 L420.22 118.94 L419.69 119.19 L420.07 118.32 L420.58 117.47 L420.97 116.65 L420.95 115.84 L420.21 115.53 L419.1 115.83 L418.26 115.79 L418.37 114.49 L416.55 114.48 L415.38 113.75 L415.27 112.52 L416.59 111.01 L414.39 109.64 L413.52 108.79 L412.8 107.61 L412.17 108.62 L411.03 108.99 L409.66 108.82 L408.33 108.23 L407.83 110.36 L408.7 111.72 L411.49 113.74 L412.84 115.61 L414.06 117.88 L414.63 120.31 L414.07 122.66 L410.09 121.15 L398.61 121.48 L387.23 120.67 L373.9 122.17 L365.87 121.35 L364.06 120.73 L360.59 118.94 L356.96 118.2 L355.56 117.2 L354.62 115.67 L352.25 110.62 L351.92 109.65 L351.86 108.07 L352.56 103.83 L352.13 103.54 L349.69 99.74 L348.45 98.93 L347.21 98.66 L346.17 99.01 L345.56 100.04 L345.58 101.29 L346.87 105.57 L346.94 117.66 L346.21 120.75 L344.29 120.62 L345.61 118.44 L345.22 115.3 L343.89 112.41 L343.03 111.7 L340.45 112.64 L339.87 113.06 L339.58 113.91 L339.69 115.77 L339.3 116.53 L338.21 117.04 L337.47 116.67 L336.84 116.06 L336.08 115.84 L335.41 116.32 L335.3 117.01 L335.04 117.62 L333.9 117.89 L330.55 116.38 L328.52 109.73 L325.01 108.23 L320.56 108.23 L319.51 107.92 L317.73 106.61 L316.74 106.31 L316.03 106.61 L314.67 107.92 L313.59 108.23 L313.35 108.34 L313.17 108.6 L312.89 108.86 L312.33 108.97 L312.04 108.8 L311.82 107.92 L311.41 107.61 L307.57 106.31 L307.1 106.02 L306.01 105.54 L304.91 105.52 L304.41 106.61 L303.51 107.02 L301.48 107.13 L299.32 106.89 L298.05 106.31 L297.47 106.31 L297.23 107.53 L296.63 107.85 L294.89 107.61 L295.16 108 L295.32 108.27 L295.57 108.97 L294.55 108.97 L290.24 108.43 L288.92 107.92 L286.59 105.31 L285.75 103.92 L285.41 102.46 L283.81 100.78 L270.71 95.49 L269.37 94.72 L267.97 93.57 L267.15 93.09 L265.3 92.89 L264.53 92.6 L264.08 92.04 L263.02 90.21 L262.93 89.81 L261.67 89.82 L259.97 89.61 L258.4 88.84 L257.53 87.14 L258.05 85.57 L259.16 84.61 L260.56 84.01 L261.71 83.64 L272.35 84.01 L275.83 83.11 L278.29 83.5 L281.1 83.28 L282.81 82.97 L285.27 83.56 L287.38 83.75 L292.14 82.99 L295.8 81.42 L296.83 81.62 L297.79 81.1 L299.62 81.11 L300.62 80.87 L301.95 80.47 L303.17 79.23 L304.04 78.41 L304.9 78.04 L304.79 75.94 L305.16 74.99 L304.93 73.44 L305.73 70.62 L305.67 69.54 L304.34 69.09 L302.96 69.05 L300.42 66.85 L298.68 65.44 L295.49 63 L292.25 61.8 L284.02 58.83 L280.79 58.95 L273.38 59.63 L263.56 61.31 L260.58 60.01 L254.31 58.22 L247.28 58.24 L243.36 58.7 L241.35 58.93 L239.42 58.72 L236.49 57.96 L230.41 58.76 L225.54 57.57 L224.46 57.78 L222.67 58.72 L221.76 58.93 L217.46 58 L214.17 58.78 L204.42 56.16 L202.44 56.2 L200.52 57.18 L199.57 58.81 L199.26 60.76 L199.23 62.73 L198.67 64.53 L197.31 65.47 L194.18 66.52 L188.63 71.26 L187.52 71.99 L185.42 72.16 L184 72.61 L177.84 75.85 L174.81 77.88 L172.28 80.55 L167 90.7 L164.81 92.87 L161.81 93.22 L158.77 92.35 L157.51 92.23 L156.19 92.6 L156.15 92.85 L156.19 94.25 L156.04 94.63 L155.68 94.6 L155.26 94.47 L154.59 94.72 L154.17 94.59 L153.82 94.55 L153.67 94.96 L153.71 96.36 L153.67 96.63 L150.32 98.8 L149.2 100.04 L148.7 100.88 L148.62 101.36 L148.67 101.71 L148.56 102.15 L147.95 103.6 L147.5 104.24 L146.67 104.88 L146.37 104.57 L146.23 104.26 L146.18 105.43 L145.52 106.11 L145 105.1 L144.24 104.78 L143.43 104.89 L143.35 106.53 L141.83 108.2 L137.22 108.6 L132.45 107.99 L128.36 106.31 L129.13 105.47 L128.89 104.45 L128.21 103.33 L127.67 102.15 L127.04 102.15 L125.73 104.82 L123.44 107.24 L120.74 108.98 L118.21 109.65 L118.4 109.3 L118.6 108.61 L118.78 108.23 L108.55 109.73 L108.05 109.65 L107.69 109.26 L107.44 108.57 L107.32 107.91 L107.42 107.61 L106.36 107.93 L105.26 109.33 L103.92 109.65 L96.74 109.24 L94.68 109.65 L90.89 113.4 L90.78 114.16 L90.07 116.91 L89.63 117.89 L90.12 118.54 L90.26 119.14 L90.32 120.62 L89.27 119.73 L88.25 119.96 L87.63 121.03 L87.74 122.66 L88.44 123.98 L89.34 124.46 L90.41 124.2 L91.58 123.28 L91.06 125.44 L87.86 127.81 L87.1 129.84 L87.44 130.31 L88.06 130.89 L88.44 131.62 L88.03 132.56 L87.15 133.42 L86.16 134.19 L85.07 134.75 L83.94 134.97 L82.21 134.55 L78.71 132.67 L76.66 132.25 L74.65 132.71 L71.08 134.91 L69.37 135.65 L68.44 135.73 L66.52 135.59 L65.59 135.65 L64.57 136.08 L62.47 137.41 L59.58 138.28 L48.66 147.46 L44.69 149.64 L40.79 150 L39.59 148.03 L43.29 140.2 L44.01 136.27 L41.92 133.37 L38.23 132.73 L34.12 133.36 L26.78 135.53 L23.2 137.25 L13.86 143.5 L10.14 144.41 L6.12 144.35 L2.24 143.13 L0.97 142.1 L0.22 140.69 L0 139.05 L0.33 137.38 L0.64 136.73 L1.11 135.93 L1.7 135.27 L2.32 135.02 L2.76 135.27 L3.05 135.78 L3.3 136.36 L3.59 136.83 L4.26 137.37 L5.01 137.67 L5.83 137.78 L6.66 137.7 L8.24 137.03 L9.33 135.9 L9.37 134.63 L7.86 133.55 L9.43 132.69 L10.84 132.69 L11.71 133.66 L11.71 135.65 L19.28 131.57 L25.99 129.57 L33.86 126.02 L38.9 122.35 L39.59 121.98 L40.82 121.88 L41.94 122.04 L42.52 122.5 L42.12 123.28 L45.02 124.57 L47.18 123.96 L49.27 122.68 L51.98 121.98 L53.33 122.39 L54.9 123.37 L56.2 124.61 L56.75 125.73 L57.19 126.31 L59.7 124.48 L61.11 124.7 L62.43 119.19 L61.32 120.45 L60.35 122.18 L59.3 123.11 L58.01 121.98 L57.46 120.07 L57.58 118.6 L57.27 117.46 L55.43 116.53 L56.29 114.4 L56.75 113.74 L55.03 113.55 L53.16 112.87 L51.48 111.95 L50.32 111.01 L49.57 109.6 L48.96 107.94 L48.11 106.64 L46.59 106.31 L47.51 105.44 L48.55 103.9 L49.39 102.08 L49.75 100.42 L49.92 98.1 L50.32 95.95 L51.64 91.55 L51.87 91.31 L53.22 88.76 L53.7 88.5 L54.69 88.4 L55.14 88.11 L55.52 87.46 L55.88 86.2 L56.12 85.72 L58.09 82.81 L59.45 81.26 L61.11 80.25 L61.11 79.5 L59.22 79.5 L60.81 78.2 L64.77 77.47 L66.5 76.46 L67.6 74.95 L68.77 72.7 L69.19 70.54 L68.11 69.26 L68.11 68.51 L69.08 68.81 L70.01 69.26 L71.32 68.25 L72.57 68.05 L73.65 68.61 L74.42 69.88 L75.24 66.13 L75.74 65.16 L76.65 64.78 L79.04 64.57 L79.53 64.1 L79.6 63.09 L79.89 61.38 L80.55 60.18 L81.74 60.67 L82.97 61.47 L83.94 60.96 L84.84 59.86 L85.84 58.93 L85.14 57.79 L84.19 57.09 L82.95 56.81 L81.43 56.95 L81.84 56.17 L82.52 55.46 L83.35 54.97 L84.24 54.77 L85.73 55.32 L86.52 56.54 L87.13 57.76 L88.03 58.31 L89.27 58.09 L90.37 57.54 L96 53.46 L97.26 54.77 L98.14 52.64 L99.55 51.7 L103.58 51.41 L105.11 51.11 L111.48 47.86 L114.68 46.7 L116.2 46.55 L117.23 46.73 L118.4 47.28 L119.41 47.31 L120.05 47.09 L121.32 46.26 L121.99 45.93 L121.99 45.18 L121.33 45.5 L120.67 45.93 L120.55 45.57 L120.58 45.34 L120.5 45.23 L120.04 45.18 L122.01 43.93 L124.04 43.32 L128.65 43.13 L129.04 42.53 L130.2 39.36 L130.78 39.04 L134.62 39.02 L134.38 39.71 L134.24 40 L133.98 40.39 L135.79 40.73 L136.87 39.69 L137.62 38.15 L138.41 36.96 L139.79 36.39 L140.85 36.81 L141.96 37.66 L143.51 38.33 L142.86 39.37 L143.87 39.06 L145.34 38.13 L146.09 37.34 L146.65 35.69 L148.03 33.51 L149.76 31.61 L151.43 30.8 L152.68 30.38 L157.46 27.3 L159.33 26.51 L161.05 26.43 L162.54 26.96 L163.77 28.05 L163.77 28.68 L162.92 29.33 L162.56 30.53 L162.74 31.94 L163.45 33.2 L164.58 33.71 L165.53 33.1 L166.32 32.09 L166.98 31.42 L165.29 30.02 L165.4 28.71 L166.76 27.56 L168.81 26.68 L172.67 25.93 L173.39 25.56 L174.59 24.73 L175.13 24.57 L176.09 24.74 L177.36 25.63 L178.34 25.93 L178.82 25.66 L179.37 25.09 L180.05 24.77 L180.93 25.25 L181.51 26.29 L180.9 26.6 L179.98 26.75 L179.6 27.3 L179.98 28.35 L180.55 28.69 L181.27 28.34 L182.13 27.3 L181.93 29.29 L183.55 29.42 L185.38 28.2 L185.56 28.07 L186.55 25.59 L187.86 23.44 L190.86 23.37 L194.17 23.91 L196.39 23.54 L198.43 22.8 L206.8 23.19 L215.37 22.06 L217.59 21.14 L219.48 21.27 L223.5 18.95 L225.54 18.33 L226.05 18.01 L226.97 16.59 L227.43 16.27 L228.57 16.13 L229.45 15.79 L230.9 14.89 L233.64 12.74 L235.07 11.88 L238.75 11.32 L243.01 9.47 L249.48 8.4 L252.41 7.18 L258.8 8.72 L260.82 8.5 L263.44 7.84 L264.53 7.56 L266.68 7.34 L267.61 7.12 L268.62 6.73 L269.62 6.55 L270.52 7 L274 9.47 L276.75 10.25 L282.67 10.83 L285.41 11.52 L287.47 10.84 L301.91 10.93 L304.3 10.94 L305.76 10.74 L306.99 10.09 L308.04 10.66 L309.07 10.74 L310.17 10.69 L311.41 10.84 L312.05 11.22 L313.66 12.55 L315.63 13.7 L315.95 15.71 L315.65 18.03 L315.2 19.76 L314.64 20.55 L314.07 20.94 L314.06 21.24 L315.2 21.82 L316.25 21.96 L317.28 21.7 L318.67 21.14 L319.03 20.62 L319.6 18.17 L319.93 17.33 L320.7 16.62 L321.38 16.39 L322.22 16.36 L330 15.01 L331.04 14.55 L332.03 13.46 L334.32 12.81 L338.67 12.15 L340.05 11.67 L343.48 9.97 L345.74 8.23 L349.83 5.81 L351.35 5.35 L353.07 6.03 L351.76 7.17 L349.2 8.24 L345 9.35 L339.97 12.43 L338.67 13.58 L338.67 14.21 L342.77 15.27 L348.05 21.47 L351.35 23.19 L353.19 23.23 L353.98 22.78 L354.63 21.75 L356.03 20.07 L356.47 19.24 L357.45 16.78 L357.92 16.27 L358.97 16.15 L360.86 15.66 L361.45 15.58 L365.29 16.27 L365.93 16.24 L366.29 16.06 L366.46 16.43 L366.5 18.02 L367.19 20.23 L368.89 20.77 L370.99 20.38 L372.87 19.76 L387.39 16.95 L389.66 16.89 L393.97 17.8 L396.28 17.7 L398.21 16.87 L399.94 15.35 L400.45 13.46 L398.75 11.52 L399.95 10.95 L401.21 10.8 L402.37 11.01 L403.28 11.52 L403.28 12.15 L402.49 12.89 L400.06 17.7 L402.64 19.65 L402.76 19.87 L406.11 25.96 L408.01 27.3 L409.48 27.41 L413.23 28.14 L414.65 28.68 L415.52 29.5 L416.47 30.68 L417.7 31.73 L419.38 32.17 L424.59 32.16 L425.74 32.51 L427.13 33.74 L428.62 34.6 L430.16 35.16 L431.74 35.53 L434.78 35.63 L437.65 35.03 L443.16 32.85 L442.47 30.46 L444.02 30.41 L448.93 32.87 L451.11 33.55 L452.96 33.2 L453.32 30.8 L454.31 31.33 L455.32 32.05 L456.1 32.92 L456.42 33.88 L458.51 37.68 L458.71 38.33 L462.21 40.39 L462.71 40.47 L464.36 40.39 L465 40.62 L465.26 41.11 L465.32 41.6 L465.31 41.82 L467.23 41.24 L470.24 38.37 L475.92 36.77 L476.73 36.96 L476.73 37.73 L475.86 38.53 L474.15 39.71 L472.02 38.68 L471 39.49 L469.79 43.13 L470.79 44.69 L471.37 45.35 L472.25 45.93 L473.24 46.2 L477.05 46.55 L478.68 47.11 L484.11 51 L484.4 51.48 L484.75 51.91 L485.31 52.1 L485.82 51.87 L486.37 51.37 L486.78 50.88 L486.89 50.66 L488.99 50.39 L489.79 50.9 L492.07 61.05 L492.12 61.11 L493.51 61.57 L494.63 62.15 L495.63 62.96 L496.67 64.1 L497.73 65.7 L499 68.79 L499.85 70.25 L502.2 72.91 L502.72 73.36 L504.1 73.62 L506.77 73.68 L507.83 73.97 L510.3 77.8 L510.77 78.95 L511.51 79.58 L518.44 85.51 L521.15 86.8 L523.61 86.4 L524.55 87.34 L526.28 88.6 L527.97 89.18 L528.72 88.11 L529.71 87.98 L534.56 89.04 L536.29 89.06 L537.3 88.34 L537.5 87.71 L537.73 87.26 L538.88 87.14 L539.81 87.37 L541.25 88.25 L542.32 88.45 L544.31 88.16 L547.77 86.83 L549.55 86.4 L551.66 86.37 L556.77 86.95 L565.88 87.99 L570.21 87.76 L570.68 88.77 L572.44 94.59 L572.78 94.34 L573.65 93.91 L574.57 95.2 L575.43 94.4 L576.86 91.23 L575.68 89.55 L575.05 88.91 L574.28 88.45 L574.28 87.76 L577.03 88.14 L579.98 91.13 L590.08 94.72 L591.38 95.64 L592.17 96.92 L594.01 98.49 L596.13 99.93 L597.75 100.79 L599.95 101.46 L605.52 102.41 L607.22 102.15 L607.18 102.82 L607.27 104.21 L607.22 104.88 L608.17 104.41 L608.53 104.14 L609.16 105.13 L610.02 107.04 L610.69 107.92 L611.53 108.55 L613.18 109.42 L613.9 110.03 L614.62 110.42 L615.53 110.44 L616.5 110.34 L617.37 110.4 L620.53 111.7 L621.97 112.1 L626.55 112.44 L627.36 112.87 L627.54 113.85 L627.61 114.99 L628.1 115.84 L628.87 116.04 L631.24 116.01 L630.93 116.16 L630.63 116.53 L631.6 117.45 L632.75 117.89 L633.94 118.16 L634.92 118.51 L635.11 118.57 L636.47 118.09 L637.35 119.04 L638.58 121.66 L640.34 123.34 L640.84 124.02 L641.45 125.84 L643.11 128.79 L643.85 129.75 L644.95 130.14 L646.06 130.93 L650.31 135.31 L650.63 136.14 L652.19 139.03 L652.84 139.74 L653.95 139.57 L654.47 138.57 L654.91 131.13 L655.42 130.14 L656.44 129.71 L658.92 130.11 L660.41 130.14 L659.59 131.18 L656.63 131.71 L655.99 132.56 L656.12 134.34 L656.49 135.68 L657.08 136.74 L657.88 137.7 L658.94 138.7 L659.75 139.08 L662.02 139.06 L663.02 139.72 L663.72 141.26 L664.12 142.98 L664.25 144.15 L664.59 145.37 L665.45 146.23 L666.67 146.83 L669.29 147.67 L669.81 147.76 L671.17 147.1 L671.95 147.52 L672.7 148.21 L673.49 148.57 L679.11 147.72 L680.72 147.9 L682.27 148.63 L686.4 151.29 L686.46 149.92 L687.18 149.22 L689.56 148.57 L689.71 149.56 L690.25 150.06 L691.09 150.18 L692.14 150 L691.95 149.62 L691.72 148.91 L691.51 148.57 L692.81 149 L694.05 150.02 L695.92 152.03 L694.6 152.21 L693.68 151.65 L693.1 151.6 L692.78 153.33 L692.99 155.15 L694.34 158.26 L694.66 159.84 L695.16 160.86 L696.34 161.25 L699.14 161.61 L701.35 162.79 L701.95 162.96 L702.84 162.75 L703.31 162.29 L703.56 161.82 L703.82 161.61 L703.79 161.07 L703.24 159.88 L702.36 158.69 L699.95 157.59 L698.96 156.27 L697.82 153.33 L697.3 151.02 L696.88 150.34 L696.24 149.95 L694.42 149.2 L694.04 148.91 L693.92 147.87 L693.45 146.5 L692.49 145.77 L690.88 146.6 L689.56 145.18 L688.31 146.34 L687 145.52 L684.51 142.4 L681.03 139.4 L680.05 137.86 L679.42 137.69 L678.14 138.31 L678.93 136.61 L680.4 134.82 L682.09 133.66 L683.53 133.89 L686.75 136.62 L687.1 137.43 L687.69 139.95 L688.01 140.47 L697.83 147.64 L699.72 148.57 L704.42 150.05 L705.74 150.99 L707.06 152.33 L710.19 154.91 L711.43 155.37 L716.87 159.5 L718.24 160.2 L719.52 160.61 L720.9 160.62 L722.55 160.18 L721.84 162.06 L722.34 163.26 L723.27 164.13 L723.82 165 L723.49 166.97 L721.27 169.38 L720.66 171.11 L719.85 170.57 L718.25 168.78 L717.8 168.4 L711.85 165.62 L710.34 165.18 L708.61 165 L708.66 165.18 L708.43 165.54 L708.12 165.89 L707.98 165.99 L707.78 166.35 L707.31 166.2 L706.77 165.86 L705.95 165.49 L704.94 164.57 L704.14 164.26 L702.01 164.44 L701.26 165.43 L701.57 166.52 L702.62 167.04 L703.69 167.29 L704.46 167.88 L705.17 168.56 L706.02 169.07 L706.94 169.28 L709.53 169.07 L711.35 169.83 L711.83 171.48 L711.16 173.13 L709.53 173.88 L709.28 174.7 L709.86 176.49 L710.67 178.21 L711.08 178.88 L712.13 179.09 L714.2 178.74 L715.66 178.91 L714.93 180.67 L715.84 180.42 L718.14 179.25 L718.22 179.14 L719.1 178.63 L719.97 178.51 L720.79 177 L721.93 171.72 L724.26 167.27 L725.02 166.3 L726.77 165.98 L728.47 167.02 L738.39 179.25 L739.86 180.6 L740.04 180.73 L741.42 181.71 L744.76 183.33 L749.87 184.42 L751.08 185.36 L750.44 186.71 L752.34 186.71 L751.8 188.76 L751.06 189.78 L749.94 190.12 L746.66 190.33 L745.34 190.87 L744.42 191.82 L744.07 193.22 L745.36 195.66 L750.08 193.17 L749.81 195.64 L750.7 194.99 L751.11 193.97 L751.34 192.76 L751.71 191.58 L751.08 191.58 L752.37 189.64 L752.75 188.64 L752.91 187.45 L758.59 189.42 L759.12 189.39 L759.84 188.96 L760.25 189.12 L761.81 190.16 L764.31 190.77 L765.31 190.84 L766.73 191.48 L767.99 192.87 L768.53 194.27 L767.86 194.9 L766.36 195.24 L761.18 197.62 L761.53 196.13 L760.68 195.26 L759.77 195.21 L759.91 196.26 L759.46 197.83 L760.7 198.47 L762.56 198.79 L764.04 199.37 L765.43 200.46 L766.99 201.17 L768.74 201.55 L770.7 201.68 L770.7 201.06 L768.69 200.35 L768.08 199.9 L767.54 199.03 L766.92 197.61 L766.97 196.98 L768.75 196.26 L770.37 196.21 L772.57 196.91 L774.62 198.14 L775.81 199.71 L776.39 199.71 L776.39 197.62 L777.01 197.62 L776.69 201.59 L775.63 202.89 L770.7 203.1 L770.7 203.78 L772.59 203.78 L771.7 204.31 L771.33 204.45 L772.08 205.73 L772.98 205.68 L774.02 205.19 L775.12 205.12 L775.91 205.79 L776.84 207.52 L777.7 207.84 L778.17 207.63 L778.8 207.15 L779.36 206.59 L779.59 206.11 L779.82 205.79 L780.33 205.77 L780.94 205.84 L781.43 205.8 L784.15 204.2 L785.22 203.78 L783.79 203.27 L780.77 202.86 L779.59 202.42 L778.48 201.09 L778.17 199.51 L778.8 198.17 L780.49 197.62 L791.56 197.95 L793.82 198.67 L795.14 199.76 L798.12 200.94 L798.4 201.17 L800.55 202.97 L801.88 203.83 L811.7 207.59 L814.65 209.56 L815.05 211.89 L815.37 212.7 L815.3 214.82 L815.68 216.02 L816.59 217.07 L817.23 217 L818.16 216.02 L819.64 215.18 L820.67 214.94 L822 215.28 L822.94 215.85 L823.6 216.56 L823.95 217.48 L823.95 218.73 L824.53 218.73 L824.71 218.25 L825.01 217.76 L825.21 217.31 L825.84 218.83 L826.63 219.17 L827.18 218.4 L827.11 216.63 L827.88 216.77 L830.36 216.82 L831.52 216.63 L832.1 216.25 L833.54 214.94 L834.33 214.67 L835.48 214.72 L836.64 214.96 L837.53 215.46 L838.3 217.19 L839.08 217.34 L839.56 216.91 L839.09 216.02 L843.86 212.57 L844.37 212.69 L845.76 213.32 L846.04 213.59 L846.43 214.34 L847.33 214.38 L848.94 213.92 L852.14 213.92 L854.75 214.35 L856.57 215.92 L857.4 219.34 L861.05 218.57 L863.15 219.93 L866.36 224.81 L864.46 228.87 L863.92 229.56 L862.88 230.42 L862.51 230.96 L862.34 231.6 L862.13 233.07 L861.93 233.66 L861.14 234.79 L859.86 236.09 L858.34 237.01 L856.83 236.98 L856.37 236.03 L856.02 234.53 L855.45 233.57 L854.3 234.28 L853.55 233.8 L852.94 233.71 L852.4 233.91 L851.84 234.28 L852.59 234.39 L853.14 234.6 L853.5 235.01 L853.67 235.68 L851.05 235.88 L851.11 237.08 L852.31 238.78 L853.1 240.48 L853.67 240.48 L854.71 238.92 L857.14 238.18 L859.91 238.06 L861.93 238.33 L865.76 240.3 L866.36 240.78 L866.46 242.16 L866.83 243.2 L867.61 243.8 L868.88 243.8 L868.15 246.15 L866.85 246.15 L865.37 245.16 L864.12 244.53 L863.43 244.29 L863.12 243.7 L862.91 242.99 L862.51 242.38 L861.83 241.82 L861.54 241.66 L856.47 242.45 L854.68 243.09 L848.63 242.38 L849.11 243.51 L848.99 244.78 L848.05 247.17 L848.12 247.77 L848.04 249.02 L847.78 250.19 L847.36 251.22 L848.22 252.09 L849.29 254.23 L852.85 256.25 L854.3 256.74 L854.93 255.7 L855.95 253.55 L860.37 249.81 L861.3 247.84 L862.77 249.03 L863.65 250.56 L863.84 252.25 L863.2 253.98 L865.58 253.68 L866.45 253.99 L866.04 255.02 L865.89 255.99 L866.83 256.66 L868.88 257.35 L868.37 255.17 L873.82 256.46 L875.25 254.66 L875.82 254.66 L876.27 255.2 L876.87 255.75 L877.6 256.25 L878.41 256.68 L879.1 254.66 L877.57 254.03 L876.76 253.91 L875.82 253.98 L876.97 252.44 L879.19 251.79 L881.6 251.74 L883.4 251.96 L885.02 252.63 L886.92 253.84 L887.55 254.97 L885.35 255.39 L886.15 256.66 L886.61 258.03 L887.24 258.03 L887.35 257.6 L887.87 256.68 L888.66 258.81 L890.92 259.29 L896.14 258.7 L894.53 257.63 L891.03 255.86 L889.2 255.39 L890.37 254.12 L892.63 253.52 L895.06 253.5 L896.77 253.98 L896.14 253.24 L897.55 253.36 L901.87 254.26 L903.01 254.91 L903.33 255.59 L901.82 256.01 L901.82 256.68 L904.4 257.35 L904.57 257.15 L904.59 257.01 L904.68 256.88 L904.97 256.68 L906.05 257.48 L907.65 257.05 L909.17 257.14 L910.03 259.44 L910.21 258.91 L910.63 258.02 L910.71 257.35 L911.57 258.02 L912.4 258.41 L913.19 258.45 L913.87 258.03 L912.55 256.68 L919.99 255.74 L921.79 256.35 L922.68 256.85 L923.62 257.06 L924.36 257.43 L924.66 258.37 L925.31 258.93 L926.8 258.97 L929.08 258.7 L930.6 259.81 L931.92 261.15 L933.62 262.27 L940.93 263.14 L942.84 263.76 L944.28 264.77 L943.34 265.3 L942.96 265.45 L944.28 267.81 L944.34 268.89 L944.56 269.16 L944.95 269.2 L945.54 269.55 L946.17 270.03 L946.66 270.41 L950.02 271.52 L950.34 272.83 L952.13 274.27 L956.33 276.97 L957.07 277.85 L958.06 279.93 L960.99 284 L961.69 284.44 L962 285.08 L966.52 289.85 L967.38 290.28 L968.64 290.44 L970.66 291.04 L973.14 292.57 L975.2 294.57 L975.95 296.62 L976.64 296.62 L977.88 295.24 L979.75 295.25 L981.8 295.76 L983.59 295.89 L985.13 295.2 L986.75 294.18 L988.51 293.35 L990.47 293.2 L991.62 293.58 L992.54 294.21 L994.38 295.89 L997.52 297.91 L998.65 299.31 L999.38 300.97 L999.8 302.8 L1000 304.69 L999.16 306.86 L997.22 308.04 L995.27 308.82 L993.97 310.18 L992.1 311.27 L991.48 311.48 L990.99 312.01 L990.47 315.52 L987.56 318.11 L984.13 318.01 L980.24 317 L975.95 316.86 L970.14 318.08 L966.21 318.38 L958.62 320.15 L955.09 319.47 L952.18 320.68 L946.36 319.74 L939.4 320.95 L937.13 321.17 L934.81 322.23 L933.23 323.58 L931.79 325.13 L930.21 326.4 L928.15 326.93 L925.98 326.98 L924.7 327.2 L923.95 328 L923.39 330.05 L921.88 332.4 L918.9 333.53 L915.61 333.92 L915.12 332.76 L914.45 332.41 L913.96 332.54 L913.7 333.26 L913.7 334.19 L911.35 334.95 Z M611.69 270.17 L612.34 272.1 L612.13 273.46 L611.15 273.78 L609.46 272.56 L608.38 271.96 L607 271.56 L605.82 270.98 L604.6 268.29 L602.93 267.11 L599.64 265.45 L600.96 264.41 L602.41 264.75 L603.76 265.78 L604.75 266.8 L606.12 268.65 L606.97 269.43 L608.53 270.17 L608.79 268.63 L609.64 268.31 L610.72 268.92 Z M602.17 253.24 L600.97 254.66 L596.66 255.69 L595.17 256.68 L593.69 255.88 L592.07 255.39 L593.19 254.55 L596.41 253.82 L597.75 252.63 L598.24 252.83 L598.26 252.92 L598.44 253.24 L599.42 252.73 L600.35 252.67 Z M566.07 250.55 L567.88 250.15 L569.83 250.97 L573.07 253.24 L571.48 254.6 L569.24 253.84 L567.16 252.11 Z M872.03 246.49 L872.86 247.25 L874.19 249.77 L874.93 250.89 L875.26 252.08 L873.53 252.06 L870.46 251.22 L868.82 250.97 L867.37 250.2 L866.42 248.94 L866.36 247.17 L870.91 246.34 Z M556.89 245.15 L561.44 245.01 L563.12 245.97 L564.18 248.58 L563.49 248.58 L561.92 247.42 L555.43 246.65 L553.33 244.53 L554.46 242.82 L555.38 242.01 L556.26 242.07 L556.69 242.85 L556.87 243.87 Z M547.71 237.35 L548.79 237.79 L550.96 238.05 L552.7 238.65 L552.44 240.11 L551.63 241.51 L551.07 242.06 L550.81 241.43 L550.49 241.06 L548.29 240.48 L543.64 237.42 L542.66 236.3 L543.84 236.11 L545.52 236.23 L547.05 236.65 Z M543.23 234.28 L542.77 234.22 L541.34 234.28 L541.6 234.83 L541.97 236.3 L539.35 234.96 L537.6 233.35 L534.4 229.61 L534.4 228.87 L536.01 229.49 L537.2 230.62 L538.25 231.9 L539.45 232.98 L538.23 231 L536.19 228.43 L533.86 226.43 L531.82 226.16 L531.82 226.9 L532.13 227.25 L532.21 227.44 L532.27 227.69 L532.51 228.19 L531.46 227.87 L530.55 227.34 L529.82 226.58 L529.29 225.55 L533.2 225.34 L537.31 227.85 L540.89 231.38 Z M514.08 213.92 L517 213.49 L519.35 214.92 L522.98 218.73 L521.56 219.32 L520.01 219.37 L518.54 218.91 L517.3 217.99 L517.92 218.04 L519.82 217.99 L519.42 216.92 L518.74 216.24 L517.98 216.1 L517.3 216.63 L514.89 214.85 Z M330.72 156.11 L330.33 156.34 L326.54 159.84 L319.22 164.76 L316.35 166.01 L313.31 166.3 L313.3 164.37 L314.16 163.85 L316.74 164.26 L317.76 163.53 L318.63 162.05 L319.51 160.92 L320.56 161.24 L321.77 161.8 L323.12 161.44 L324.21 160.63 L324.66 159.84 L325.23 158.14 L326.56 156.93 L329.46 155.06 L330.22 154.76 L330.78 155.18 L330.99 155.8 Z M220.18 162.96 L219.51 164.14 L220.26 165.4 L221.6 166.46 L222.7 167.04 L221.76 168.56 L219.86 170.6 L217.72 172.38 L216.05 173.15 L214.31 173.48 L202.5 179.45 L195.44 182.03 L188.91 182.74 L187.81 182.34 L186.97 181.4 L180.93 181.29 L180.03 181 L178.22 180.2 L177.14 179.93 L173.82 180 L172.98 179.59 L169.96 175.57 L168.81 174.5 L166.21 172.77 L165.25 171.64 L164.4 169.75 L163.77 167.04 L162.72 164.58 L162.51 163.58 L163.13 163.58 L164.16 164.6 L168.81 168.02 L169.42 169.41 L170.87 170.59 L172.66 171.42 L174.21 171.72 L178.03 171.72 L178.34 171.32 L180.93 169.07 L182.37 168.1 L183.09 167.46 L183.39 166.67 L183.68 166.76 L184.16 167.36 L184.26 168.37 L183.39 169.75 L184.02 170.37 L185.69 167.28 L185.22 166.13 L182.47 165.68 L181.38 164.63 L173.45 150.62 L172.33 146.67 L173.29 142.4 L177.21 139.29 L177.71 138 L178.52 136.96 L180.38 135.64 L182.49 134.56 L184.02 134.23 L183.01 133.74 L181.99 133.55 L180.93 133.55 L179.81 132.98 L179.76 132.79 L180.35 132.56 L181.21 131.91 L193.28 133.38 L200.81 135.25 L205.99 136.72 L207.63 137.45 L208.88 138.55 L209.39 140.11 L209.06 141.95 L208.58 143.17 L208.67 144.3 L210.02 145.92 L214.17 149.32 L215.41 149.25 L216.33 149.72 L216.95 150.83 L217.42 152.07 L217.9 152.99 L217.93 153.76 L217.43 154.91 L216.39 156.79 L215.7 156.79 L216.2 157.63 L216.34 158.48 L216.16 159.34 L215.7 160.18 L217.79 161.52 L218.89 162.05 L220.18 162.22 Z M676.31 121.35 L677.01 122.57 L677.21 123.8 L676.97 125.15 L674.97 129.64 L675.25 130.61 L676.31 132.25 L674.88 132.3 L673.78 132.73 L671.83 134.23 L672.27 132.45 L671.67 131.64 L670.68 131.94 L669.93 133.55 L670.18 133.86 L670.58 134.52 L670.65 135.22 L669.93 135.65 L669.4 135.52 L669.05 135.05 L668.75 134.44 L667.62 132.87 L667.17 131.93 L666.61 131.03 L665.46 130.14 L664.14 130.78 L662.16 130.35 L660.18 129.4 L658.89 128.45 L658.66 127.58 L659.02 126.52 L659.56 125.41 L659.83 124.36 L659.39 123.64 L658.39 123.16 L656.63 122.66 L657.09 123.51 L657.27 124.37 L657.13 125.23 L656.63 126.07 L655.99 124.02 L655.42 124.02 L654.48 125.45 L652.97 125.85 L651.56 125.25 L650.94 123.65 L650.14 122.46 L648.54 121.17 L647.38 119.5 L647.85 117.21 L647.16 116.53 L648.94 116.58 L650.23 117.41 L651.4 118.46 L652.84 119.19 L654.35 119.22 L655.39 118.69 L656.28 117.92 L657.31 117.21 L658.9 116.74 L660.19 116.84 L661.31 117.29 L662.36 117.89 L662.71 118.31 L663.57 119.65 L663.96 119.93 L664.76 119.72 L666.09 118.79 L666.78 118.57 L667.79 119.02 L670.76 120.98 L671.83 121.35 L673.03 120.7 L673.79 119.85 L674.69 119.76 Z M656.63 100.79 L657.32 99.44 L656.29 97.94 L654.65 96.65 L653.52 95.95 L655.79 95.58 L657.81 97.23 L659.27 99.7 L660.45 103.99 L661.89 105.66 L663.56 107.2 L664.89 108.97 L662.67 109.03 L660.32 106.55 Z M642.74 112.07 L642.1 110.58 L639.16 108.47 L638.26 106.92 L639.76 106.36 L640.96 105.07 L641.75 103.43 L642.05 101.81 L642.18 98.18 L641.86 97.05 L640.84 95.33 L642.24 95.55 L643.67 96.04 L644.81 96.93 L645.26 98.34 L644.74 99.26 L643.74 100.26 L643.1 101.51 L643.65 103.14 L644.46 103.49 L646.74 103.16 L647.85 103.52 L648.48 104.41 L648.91 105.43 L649.57 106.17 L650.94 106.31 L649.73 105.57 L650.1 104.93 L650.51 104.38 L650.99 103.92 L651.52 103.52 L652.21 104.73 L653.13 105.33 L654.04 105.18 L654.73 104.14 L655.47 105.85 L654.46 106.59 L652.78 106.97 L651.52 107.61 L652.59 107.89 L653.38 108.48 L654.05 109.14 L654.73 109.65 L655.71 109.99 L657.61 110.38 L658.57 111.01 L656.49 115.19 L655.11 116.87 L654.1 115.84 L653.68 116.04 L652.61 116.33 L652.21 116.53 L651.91 115.76 L651.66 115.35 L650.94 114.49 L650.55 112.48 L648.59 111.78 L647.04 112.59 L647.85 115.11 L646.65 114.57 L643.4 112.62 Z M624.32 93.91 L626.28 92.66 L625.39 91 L623.52 90.03 L622.48 90.86 L622.36 91.8 L622.01 92.83 L621.4 93.48 L620.53 93.22 L619.96 92.16 L619.91 90.91 L620.34 90.13 L621.16 90.49 L621.18 88.75 L619.71 86.76 L617.55 85.81 L615.48 87.14 L615.01 86.62 L614.59 86.5 L614.15 86.52 L613.59 86.4 L614.87 84.79 L616.69 84.28 L619.96 84.35 L622.93 83.17 L624.22 83.11 L624.95 84.35 L626.79 83.32 L629.16 83.93 L631.48 85.45 L633.21 87.14 L634.1 88.38 L634.9 89.86 L635.5 91.42 L635.86 94.74 L636.29 95.78 L638.26 98 L639.05 98.02 L640.33 98.52 L641.47 98.68 L639.93 100.22 L637.72 99.6 L633.21 96.63 L631.2 96.24 L628.96 96.24 L626.63 95.75 Z M603.09 80.57 L601.29 81.37 L598.78 81.71 L594.59 81.62 L592.49 80.98 L589.96 79.19 L586.14 78.48 L583.47 77.62 L581.84 76.51 L583.17 75.41 L581.75 73.82 L579.87 75.25 L578.37 76.07 L578.12 72.67 L578.46 72.95 L579.33 73.36 L579.64 71.38 L580.49 71.16 L581.47 71.63 L582.19 71.65 L583.2 71.48 L587.3 72.33 L589.55 73.77 L592.16 73.98 L594.79 73.77 L597.11 73.97 L599.37 73.84 L600.83 72.65 L602.1 71.28 L603.75 70.62 L605.85 70.84 L608.06 71.46 L609.94 72.52 L611 73.97 L610.66 73.84 L609.8 73.36 L610.21 74.71 L616.4 81.08 L616.74 81.96 L616.46 82.95 L615.8 82.93 L614.97 82.52 L614.22 82.3 L602.74 84.97 L602.74 84.35 L602.94 84.05 L603.17 83.79 L603.35 83.39 L603.43 82.61 L603.7 82.24 L604.31 82.29 L604.95 82.42 L605.33 82.3 L605.4 81.36 L605.08 80.39 L604.32 79.94 Z M551.5 63.04 L550.98 61.66 L549.62 61.13 L544.08 60.77 L543.14 60.38 L541.97 59.62 L543.53 59.4 L552.21 59.95 L553.66 60.79 L553.63 61.89 Z M516.98 63.04 L516.17 62.87 L515.32 62.48 L514.08 61.67 L512.71 60.44 L509.6 56.95 L507.94 57.57 L506.24 57.36 L504.66 56.59 L502.56 54.95 L501.96 54.72 L501.59 54.29 L501.46 53.15 L501.14 52.76 L499.67 51.64 L499.22 51.41 L498.45 50.77 L497.98 49.35 L497.18 47.95 L495.43 47.31 L492.69 48.46 L491.46 48.39 L491.3 46.55 L493.93 45.74 L495.81 45.64 L497.34 46.36 L502.15 51.83 L504.15 53.47 L508.41 54.8 L511.86 57.66 L515.65 59.13 L517.5 61.07 L519.01 63.34 L519.82 65.16 L517.73 63.28 Z M467.26 30.8 L468.02 30.75 L467.96 32.09 L466.97 33.05 L465 31.79 L464.12 32.07 L463.15 33.44 L462.24 33.89 L461.52 31.42 L462.86 30.6 L464.32 30.08 L465.82 30.08 Z M427.95 28.05 L432.45 25.83 L434.5 25.6 L436.16 26.68 L435.68 26.97 L434.78 27.76 L434.33 28.05 L435.17 28.45 L435.76 29.03 L436.09 29.82 L436.16 30.8 L426.85 29.18 L425.43 28.05 L426 27.6 L426.55 27.37 L427.18 27.48 Z M439.38 14.21 L439.95 15.51 L440.96 16.63 L442.2 17.41 L443.48 17.7 L444.96 17.76 L445.45 17.96 L445.19 18.38 L444.42 19.08 L442.57 19.93 L440.7 19.57 L436.79 17.7 L437.01 16.68 L437.49 15.94 L438.1 15.2 L438.69 14.21 Z M381.02 8.72 L381.71 8.72 L382.6 10.19 L383.19 10.87 L383.18 11.33 L382.33 12.15 L380.8 13.07 L379.69 12.97 L378.71 12.45 L377.57 12.15 L374.59 12.45 L372.33 13.25 L367.76 15.58 L368.8 14.43 L374.4 10.7 L376.05 10.34 L377.85 10.4 L379.81 10.84 L379.45 10.29 L378.93 9.25 L378.55 8.72 L379.18 8.09 L379.59 8.79 L381.02 10.09 Z M412.12 7.34 L412.62 7.22 L413.27 6.96 L413.83 7 L414.07 7.72 L413.86 8.45 L413.31 8.87 L412.58 9.22 L411.81 9.78 L410.88 9.64 L409.24 8.94 L407.38 8.39 L405.8 8.72 L405.44 8.13 L405.03 8.09 L403.91 8.72 L404.25 7.34 L404.85 6.5 L405.85 6.09 L407.36 5.97 L407.73 6.16 L408.46 7.05 L408.96 7.34 L409.76 7.42 Z M588.71 259.6 L589.01 259.99 L589.03 260.91 L588.34 261.38 L587.57 261.45 L586.93 261.22 L586.43 260.73 L585.93 260.39 L585.78 259.97 L586.18 259.69 L586.64 259.93 L588.87 260.36 L588.8 260.02 L588.75 259.86 Z M582.25 259.27 L582.98 259.44 L584.27 259.88 L584.14 260.44 L582.72 260.52 L581.83 259.91 L581.96 259.39 Z M274.43 161.84 L275.13 162.63 L275.21 164.39 L273.63 165.72 L269.97 167.08 L267.27 168.44 L266.65 168.61 L266.18 168.93 L265.82 169.36 L264.52 169.76 L262.52 169.83 L262.13 169.55 L263.25 169.14 L265.09 167.59 L266.11 167.29 L266.97 166.76 L267.65 165.98 L268.22 165.53 L270.86 164.5 L271.96 164.45 L273 163.95 L273.83 163.13 L274.16 162.43 L274.27 161.99 Z M286.32 160.27 L287.57 160.01 L287.69 160.52 L286.31 161.63 L284.7 162.67 L281.81 165.04 L280.19 165.06 L278.94 163.76 L278.63 162.43 L278.9 162.6 L279.88 163.68 L281.41 163.51 L282.66 162.51 L283.03 161.92 L282.67 161.88 L282.94 161.69 L285.71 160.47 Z M213.04 131.3 L216.51 132.88 L218.04 134.08 L216.95 134.55 L214.44 134.67 L211.87 133.54 L210.93 131.84 Z M129.13 130.62 L129.36 130.61 L129.83 130.63 L129.33 130.81 L127.53 130.87 L125.46 130.74 L124.05 130.11 L124.97 129.58 L127.72 130.14 Z M313.71 120.19 L314.35 120.94 L314.57 122.32 L313.84 122.38 L312.87 121.79 L311.91 121.87 L311.35 121.72 L310.93 121.1 L310.7 120.35 L310.7 119.52 L311.29 119.13 L312.3 119.37 L313.26 119.87 Z M574.29 71.98 L574.5 71.69 L575.16 72.03 L575.11 72.65 L574.43 73.76 L574.19 74.39 L572.5 74.97 L571.67 74.94 L571.5 74.3 L571.47 72.65 L572.02 72.47 L573.31 72.84 L574.18 72.72 Z M225.13 64.29 L225.47 65.49 L225.75 67.81 L225.21 69.57 L224.73 70.24 L224.35 70.89 L223.93 70.47 L224.13 64.17 L223.89 63.33 L223.85 62.8 L224.19 62.72 L224.64 63.14 L224.99 63.89 Z M529.28 62.84 L530.09 62.5 L533.69 62.34 L532.49 63.36 L530.96 64.37 L530.32 64.37 L530.33 63.7 L530.03 63.14 Z M487.16 40.81 L488.43 41.54 L488.95 42.24 L488.11 43.13 L486.68 43.39 L486.03 42.74 L486.04 42.04 L485.77 41.71 L485.41 41.51 L484.9 41.58 L484.26 41.41 L482.47 40.14 L481.64 39.17 L481.74 38.16 L482.9 37.84 L482.71 37.21 L482.78 36.34 L483.28 36.01 L483.9 37.12 L483.63 38.74 L484.28 38.96 L486.06 39.35 L486.63 40.22 Z M473.65 30.25 L474.37 31.28 L474.5 32 L473.94 32.48 L472.84 32.83 L472.18 33.55 L472.6 34.11 L473.4 34.25 L473.55 34.82 L472.85 35.55 L471.78 35.7 L470.71 35.04 L470.12 34.13 L470.39 33.53 L470.97 33.05 L471.18 32.56 L470.36 32.43 L469.5 31.95 L470.43 30.45 L472.52 29.9 Z M451.91 21.7 L452.26 22.44 L452.64 23.77 L452.38 24.02 L451.86 23.26 L451.44 22.79 L451.05 22.83 L450.44 22.95 L449.7 22.85 L449.16 22.39 L448.82 21.84 L448.85 21.61 L449.17 21.68 L449.32 21.12 L449.49 19.92 L450.49 19.68 L451.62 20.87 Z M434.97 15.9 L435.2 16.22 L435.57 16.89 L435.46 17.55 L434.97 18.13 L434.45 18.17 L433.82 17.73 L433.39 17.04 L433.01 16.27 L432.28 16.02 L430.91 15.24 L430.5 15.06 L430.34 14.6 L430.18 14.38 L429.58 14 L429.32 13.18 L430.22 12.59 L430.91 12.45 L431.6 12.4 L432.4 12.63 L432.39 13.19 L433.04 13.89 L434.39 15.11 Z M420.48 11.16 L421.53 11.17 L422.8 11.41 L422.64 11.86 L421.89 12.05 L421.17 11.98 L418.79 12.29 L417.9 13.01 L416.5 13.62 L415.24 13.96 L415.08 13.78 L414.86 13.11 L415.21 12.91 L416.04 13.01 L415.89 12.12 L416.35 11.56 L417.67 11.37 L418.35 11.35 Z M395.78 5.37 L396.03 5.67 L396.24 6.46 L396.01 7.15 L395.6 7.12 L395.31 7.2 L395.22 7.92 L394.74 8.04 L393.68 7.83 L392.98 8.22 L392.8 8.89 L392.48 8.58 L392.42 7.29 L393.35 6.2 L394.94 5.56 Z M385.94 5.93 L391.72 6.61 L391.86 6.9 L391.77 7.52 L391.23 7.71 L390.55 7.32 L389.89 7.29 L389.47 7.93 L389.1 8.18 L387.14 7.28 L386.05 6.94 L385.41 6.83 L383.7 7.01 L382.7 6.94 L380.07 5.97 L379.17 5.74 L378.49 4.81 L377.95 4.55 L378.33 4 L380.13 4.23 L382.71 5.21 Z M376.35 1.52 L376.78 1.67 L377.07 2.53 L376.37 3.37 L375.3 3.19 L374.27 2.85 L373.17 2.7 L372.12 2.26 L371.66 1.55 L371.26 1.12 L370.44 0.84 L371.07 0.25 L373.18 0 L375.71 1.56 Z "/>
</g>
</svg>
