<svg xmlns="http://www.w3.org/2000/svg" viewBox="0 0 1000 829.37">
<g fill="#ccc" stroke="#333" stroke-width="0.5" stroke-linejoin="round">
<path fill-rule="evenodd" d="M905.06 695.68 L987.28 779.86 L1000 801.63 L979.37 815.89 L930.3 825.61 L872.66 829.37 L826.22 825.04 L765.19 795.85 L644.25 712.92 L525.48 677.18 L449 632.29 L380.33 576.41 L350.66 525.35 L334.56 477.17 L296.6 461.56 L251.95 457.42 L215.6 443.64 L184.8 406.63 L113.59 290.2 L86.47 270.54 L54.72 253.77 L28.26 232.56 L17.24 200.36 L22.61 115.33 L18.37 70.2 L0 29.89 L13 8.68 L24.39 0 L35.89 2.12 L48.88 13.69 L148.06 56.12 L190.17 82.06 L231.99 118.8 L257.7 163.34 L281.91 273.43 L303.19 320.95 L388.25 402.39 L487.14 450.48 L778.85 522.27 L812.38 542.89 L826.22 573.04 L833.1 621.02 L851.18 650.21 Z "/>
</g>
</svg>
