<svg xmlns="http://www.w3.org/2000/svg" viewBox="0 0 1000 562.33">
<g fill="#ccc" stroke="#333" stroke-width="0.5" stroke-linejoin="round">
<path fill-rule="evenodd" d="M650.68 378.04 L650.29 377.98 L649.97 376.42 L647.97 376.01 L645.96 376.01 L645.29 373.97 L643.6 373.13 L640.93 371.5 L641.91 370.66 L643.91 370.66 L647.3 371.5 L648.99 373.59 L650.99 373.59 L652.69 373.59 L654.69 374.79 L656.07 377.23 L655.4 377.23 L653.35 377.64 L652.02 378.05 Z M633.86 364.89 L632.52 364.18 L632.12 362.77 L632.76 360.23 L633.22 358.32 L635.3 357.54 L637.85 357.96 L637.85 363.26 L635.53 364.11 Z M704.4 329.17 L705.15 328.32 L707.82 327.09 L710.85 323.07 L707.46 317.71 L704.12 317.71 L704.12 314.82 L703.14 313.16 L701.09 308.26 L698.07 307.39 L697.04 302.9 L691.34 302.9 L689.34 312.78 L689.34 320.56 L691.65 325.11 L689.34 327.09 L687.33 330.41 L681.59 334.93 L676.91 335.74 L673.53 332.07 L668.85 330.41 L657.76 337.84 L656.07 344.39 L652.69 345.26 L647.97 344.39 L643.91 348.91 L632.51 340.7 L623.38 348.5 L618.69 350.13 L620.36 343.99 L623.76 332.51 L621.76 330.41 L617.71 330.41 L613.03 334.93 L606.31 336.18 L604.26 341.1 L604.92 346.05 L606.56 347.7 L608.96 350.13 L616.37 353.83 L617.71 357.53 L613.97 360.82 L615.3 364.11 L622.07 366.96 L620.36 373.13 L616.68 371.88 L616.07 379.8 L606.95 383.26 L595.62 394.6 L592.43 401.32 L589.49 409.87 L587.31 419.34 L586.54 428.7 L587.42 438.73 L586.37 443.06 L582.26 444.86 L579.63 446.85 L576.65 456.2 L574.76 459.19 L568.1 461.14 L553.79 461.28 L548.29 462.74 L544.53 466.67 L540.08 472.73 L534.93 478.24 L529.03 480.67 L515.29 484.09 L502.81 490.15 L492.71 492.41 L486.22 484.58 L485.8 499.3 L473.6 506.88 L441.58 513.53 L435.13 516.58 L431.24 519.21 L425.87 522.79 L419.63 523.98 L388.6 520.36 L357.7 523.98 L351.04 525.77 L344.94 530 L324.95 548.56 L320.53 557.41 L309.8 557.41 L300.67 558.65 L297.65 562.33 L294.66 560.31 L293.99 552.94 L298.98 548.42 L300.99 551.29 L309.4 551.29 L308.42 537 L294.28 534.94 L288.92 540.28 L286.24 545.2 L283.53 542.71 L278.14 540.28 L276.6 543.87 L264.03 540.55 L255.89 534.2 L253.66 529.54 L253.34 522.75 L250.79 523.33 L247.44 523.33 L245.2 523.33 L242.97 523.14 L241.54 522.56 L239.46 524.89 L237.39 527.6 L235.95 529.54 L230.21 530.51 L227.02 538.27 L218.4 537.11 L213.3 535.56 L210.43 539.24 L210.67 547.56 L205.73 549.33 L187.71 551.65 L169.79 548.12 L152.75 540.61 L130.69 526.82 L122.76 523.39 L113.79 521.19 L95.48 519.25 L87.94 516.14 L80.69 511.59 L63.5 497.9 L61.01 495.01 L58.31 479.84 L56.56 477.41 L56.28 472.47 L46.29 444.86 L41.45 440.69 L32.3 434.6 L28.4 430.5 L24.86 425.24 L22.27 418.94 L21.99 412.14 L25.7 405.38 L17.43 391.69 L16.62 386.17 L16.62 374.71 L14.73 364.8 L5.37 348.51 L1.89 340.41 L0 327.22 L1.47 317.62 L6.42 314.4 L15.15 320.49 L27.98 334.63 L35.17 340.33 L43.34 343.71 L61.22 342.9 L76.79 334.59 L89.59 321.88 L99.2 308.06 L105.62 291.73 L110.25 282.85 L117.08 277.87 L117.93 275.39 L119.12 272.88 L121.61 271.78 L123.75 272.38 L127.01 274.59 L127.74 275.08 L130.55 275.71 L134.9 274.7 L142.26 271.48 L149.8 268.18 L158.98 267.02 L163.16 266.5 L167.22 267.02 L180.89 268.8 L189.44 269.89 L204.08 271.78 L217.44 275.58 L228.24 282.81 L239.85 287.31 L255.73 282.89 L267.52 273.37 L277.05 259.77 L283.36 242.81 L285.68 222.98 L286.24 188.11 L284.56 172.44 L279.51 155.79 L289.82 157.51 L307.49 168.05 L316.43 170.55 L343.87 176.43 L374.16 174.61 L426.89 181.38 L434.71 185.01 L498 192.17 L598.32 176.11 L633.88 155.79 L651.4 145.78 L673.43 149.34 L696.4 141.98 L760.03 116.86 L777.56 104.73 L801.21 95.72 L822.95 73.03 L835.33 70.41 L860.07 63.46 L882.43 56.09 L900.44 44.36 L979.17 7.21 L993.93 1.17 L1000 0 L997.65 1.73 L996.18 3.71 L995.16 5.7 L994.11 7.21 L992.64 22.19 L991.48 25.68 L988.32 26.93 L978.36 29 L976.19 30.75 L934.88 57.43 L896.49 90.77 L804.02 146.63 L791.68 157.64 L781.51 170.55 L774.07 187.53 L770.08 194.71 L763.55 199.39 L753.21 199.86 L742.48 197.26 L732.34 196.21 L723.86 201.37 L711.76 218.77 L706.82 228.56 L704.78 237.58 L701.56 278.95 L707.52 283.28 L724.7 300.99 L728.28 306.26 L730.38 312.86 L735.5 319.5 L749.98 331.97 L754.15 335.54 L760.15 340.71 L766.67 348.16 L771.48 362.55 L776.32 371.8 L782.21 380.31 L787.4 383.86 L781.4 384.29 L770.29 383.09 L759.56 380.01 L754.79 374.71 L749.67 372.05 L726.28 375.05 L705.98 381.23 L701.56 383.86 L698.08 387.55 L686.26 385.01 L678.25 386.72 L674.91 384.63 L680.25 379.73 L683.95 378.86 L683.95 369.84 L675.89 369.03 L671.17 364.92 L671.52 353.42 L668.14 349.72 L658.08 345.26 L660.39 339.47 L664.44 336.18 L670.19 333.3 L673.53 335.74 L676.25 338.66 L682.26 337.43 L687.65 333.7 L690.67 330 L693.03 327.09 L700.78 333.3 Z "/>
</g>
</svg>
