<svg xmlns="http://www.w3.org/2000/svg" viewBox="0 0 1000 568.91">
<g fill="#ccc" stroke="#333" stroke-width="0.5" stroke-linejoin="round">
<path fill-rule="evenodd" d="M404.4 42.62 L407.55 42.73 L412.9 41.23 L429.79 42.48 L430.09 40.46 L429.91 32.32 L429.74 31.65 L429.65 30.75 L429.79 29.44 L430.2 28.64 L431.65 26.99 L432.11 25.81 L431.94 18.99 L429.7 15.7 L427.3 13.79 L426.67 11.13 L426.68 11.13 L427.36 10.33 L428.11 9.71 L428.95 9.31 L429.79 9.13 L431.93 7.56 L432.62 6.48 L433.03 4.55 L435.84 7.14 L443.33 8.79 L444.58 11.11 L446.33 12.83 L448.41 13.87 L450.07 13.53 L450.56 11.13 L450.56 11.11 L451.89 8.04 L453.8 6.69 L455.53 7.56 L456.22 11.13 L457.61 14.58 L466.03 14.72 L469.97 16.68 L472.34 20.53 L472.19 22.8 L470.91 25.26 L469.87 29.58 L470.31 32.91 L471.69 37.04 L473.43 40.92 L475 43.46 L477.95 45.83 L480.63 47.02 L482.88 48.88 L484.65 53.27 L484.69 55.55 L484.28 57.89 L484.16 60.12 L485.11 62.05 L486.95 62.64 L487.2 62.72 L488.84 60.99 L490.24 58.5 L491.62 56.78 L497.78 56.26 L527.37 66.66 L529.05 67.78 L531.01 70.79 L532.1 71.85 L533.66 72.35 L545.95 69.36 L549.61 69.71 L549.94 71.31 L550.41 72.73 L557.88 85.49 L558.83 85.82 L562.93 85.7 L571.69 82.4 L574.13 82.75 L576.12 84.68 L578.05 88.34 L579.33 91.5 L580.14 94.72 L579.8 97.49 L577.68 99.23 L577.39 99.99 L577.27 100.73 L577.37 101.47 L577.68 102.17 L583.96 101.01 L593.13 92.11 L599.37 92.74 L604.05 96.34 L606.29 97.4 L608.79 96.82 L610.59 94.54 L611.66 91.56 L612.75 89.23 L614.66 88.82 L620.02 88.92 L624.85 90.17 L629.39 92.74 L641.99 106.13 L643.33 110.57 L638.69 112.48 L639.25 114.24 L639.25 115.01 L638.84 115.66 L638.2 117 L637.97 118.18 L637.77 119.97 L637.78 121.34 L638.2 121.21 L636.93 122.99 L633.89 126.01 L632.49 127.97 L629.96 128.53 L625.22 127.21 L622.9 127.97 L621.75 130.97 L619.53 132.88 L616.93 134.43 L614.66 136.34 L613.85 136.66 L612.49 137.53 L611.58 137.61 L612.3 140.19 L612.58 140.9 L609.63 140.23 L608.47 143.91 L609.86 148.06 L614.66 148.91 L616.57 154.89 L617.27 156.23 L619.17 157.77 L620.25 157.53 L621.31 156.61 L623.03 156.04 L629.77 156.04 L631.18 156.49 L632.22 158.64 L632.33 160.8 L632.2 162.91 L632.59 164.93 L635.22 168.44 L641.8 170.86 L645.09 173.17 L647.22 176.17 L650.98 183.03 L653.12 185.95 L655 189.35 L659.47 194.04 L661.08 198.41 L662.76 206.28 L664.15 209.17 L666.75 212.58 L671.84 217.29 L678.05 220.52 L684.05 220.08 L688.61 213.84 L691.9 211.46 L693.7 208.89 L695.3 205.77 L697.96 201.74 L701.28 198.88 L704.22 198.45 L707.18 198.66 L708.98 198.2 L710.64 197.77 L712.03 196.53 L714.49 193.1 L716.26 191.87 L717.56 191.83 L720.3 192.81 L721.63 192.71 L721.99 191.86 L721.96 189.07 L722.38 188.43 L724.55 188.47 L725.43 189.08 L726.12 190.48 L727.7 192.84 L729.48 193.52 L730.43 191.55 L730.14 188.51 L728.22 185.95 L728 180.33 L726.44 176.18 L723.75 173.21 L720.14 171.1 L717.38 168.24 L715.93 163.75 L714.83 158.81 L713.14 154.57 L708.4 147.56 L708.39 144.32 L712.41 141.87 L715.79 142.3 L719.96 144.81 L722.15 146.13 L725.57 145.72 L740.77 149.99 L742.39 150.98 L745.83 153.89 L747.72 154.89 L749.75 154.92 L754.26 153.98 L755.99 154.51 L755.67 155.16 L756.17 157.67 L757.09 160.67 L757.98 162.68 L759.43 164.26 L764.64 167.56 L768.16 168.58 L775.1 168.38 L778.15 169.68 L775.43 170.78 L775.85 171.66 L776.37 172.44 L776.98 173.11 L777.65 173.69 L777.47 176.71 L777.76 179.64 L778.78 182.02 L780.75 183.51 L782.36 179.28 L785.63 179.03 L788.86 181.65 L790.23 185.95 L790.98 186.45 L791.77 186.63 L792.55 186.46 L793.32 185.95 L797.66 180.67 L804.71 180.02 L817.93 182.36 L821.35 181.47 L823.89 179.39 L828.28 173.3 L829.1 171.41 L829.49 169.83 L830.45 169.2 L832.96 170.14 L833.78 170.92 L836.5 174.6 L836.87 175.13 L836.94 175.75 L836.84 176.44 L836.5 177.17 L834.9 181.5 L834.61 183.62 L834.94 185.95 L836.5 187.5 L838.81 191.78 L837.42 195.28 L834.42 197.88 L828.12 201.66 L824.18 203.22 L817.04 203.49 L815.42 204.31 L814.34 206.64 L814.64 208.32 L821.83 217.44 L824.14 218.49 L825.63 218.22 L826.89 217.49 L828.46 217.12 L830.4 217.64 L834.42 219.65 L836.5 220.09 L836.56 220.31 L836.59 220.53 L836.56 220.71 L836.5 220.87 L835.13 222.05 L834.65 223.32 L835.11 224.64 L836.5 226.03 L838.14 228 L839.15 230.54 L839.97 233.39 L841.13 236.14 L842.8 238.44 L852.38 248 L857.76 249.14 L863.14 247.5 L867.5 243.6 L870.19 242.9 L876.12 242.72 L880.94 241.29 L881.69 240.27 L881.43 237.98 L880.39 236.39 L879.12 236.35 L877.94 236.72 L877.16 236.39 L876.5 231.17 L878.96 231.79 L881.06 232.32 L889.7 237.98 L888.73 242.22 L890.66 244.46 L900.11 246.25 L902.35 247.5 L907.02 251.53 L908.76 252.31 L912.23 253.04 L913.99 254.35 L914.61 255.6 L915.64 259.17 L916.46 260.72 L919.4 263.13 L921.54 262.7 L925.68 259.08 L925.51 258.69 L925.31 258.43 L925.05 258.3 L924.73 258.3 L930.69 257.56 L936.41 259.61 L947.4 265.69 L950.84 265.68 L956.66 261.94 L958.85 263.27 L959.77 267.44 L959.4 270.96 L960.04 273.77 L963.97 275.89 L959.9 280.62 L959.97 286.77 L962.53 293.73 L966.02 300.92 L967.5 307.58 L968.43 309.3 L970.41 310.68 L974.96 311.08 L977.07 311.72 L979 313.3 L981.9 316.74 L983.77 317.86 L985.92 317.68 L988.23 316.68 L990.54 316.28 L992.75 317.93 L993.37 319.71 L994.36 327.57 L995.05 329.77 L996.79 333.76 L997.45 335.82 L999.57 345.54 L1000 350.25 L999.37 354.06 L993.32 354.22 L990.55 355.28 L984.48 360.88 L980.34 361.12 L976.06 359.8 L971.22 357.35 L970.19 357.14 L969.17 357.35 L964.95 359.59 L958.41 358.63 L955.36 360.56 L954.6 362.43 L954.23 366.67 L953.48 368.67 L952.26 369.91 L947.4 372.53 L941.1 380.26 L937.79 382.45 L933.48 381.47 L933.11 392.26 L929.62 395 L924.15 399.29 L904.25 407.08 L899.89 411.21 L896.33 417.02 L893.56 423.92 L891.68 431.35 L891.15 437.41 L891.17 438.77 L891.36 448.87 L890.38 453.83 L887.31 459.04 L882.96 463.11 L878.05 465.37 L870.12 464.75 L866.54 465.31 L863.44 467.32 L861.48 471.25 L860.56 474.6 L859.42 481.57 L858.21 484.65 L855.49 487.32 L852.66 487.48 L849.54 486.94 L845.9 487.57 L843.52 489.56 L838.41 498.37 L835.8 500.55 L807.38 511.76 L801.97 510.92 L797.45 506.12 L795.29 505.08 L791.77 506.11 L789.06 507.89 L786.18 509.79 L783.61 510.28 L766.74 501.7 L759.63 499.84 L753.01 501.25 L745.06 507.06 L743.72 509.15 L742.84 513.39 L740.72 516.09 L735.63 520.51 L731.99 526.73 L724.52 548.34 L722.82 551.46 L720.48 554.32 L720.11 558.57 L715.01 552.61 L712.96 537.79 L709.46 532.86 L707.03 532.67 L701.34 534.7 L698.5 535.04 L695.78 534.02 L690.43 530.47 L688.17 529.69 L682.54 529.92 L680.19 529.51 L678.25 528.14 L677.18 525.48 L676.63 522.26 L675.46 519.56 L672.64 518.41 L669.9 518.09 L661.06 515.51 L658.54 513.89 L657.18 513.42 L655.82 513.61 L653.15 514.75 L651.62 514.81 L647.35 514.19 L644.78 515.91 L637.28 528.8 L635.66 530.32 L633.34 531 L632.51 530.73 L630.55 529.14 L627.48 529.6 L627.31 529.75 L606.63 526.68 L592.97 527.5 L585.12 524.09 L570.25 513.24 L570.04 512.12 L570.04 510.57 L569.26 509.6 L566.75 510.25 L566.6 507.89 L565.5 506.88 L563.83 506.81 L561.97 507.25 L563.48 505.24 L562.24 505.32 L561.14 504.82 L559.52 503.64 L556.69 503.43 L555.68 503 L554.95 501.85 L554.35 499.08 L553.5 498.43 L548.97 498.44 L547.69 498.76 L542.43 501.54 L539.94 502.33 L536.53 502.33 L533.21 501.54 L521.73 495.05 L512.93 491.62 L509.53 490.29 L502.23 483.94 L499.05 482.12 L492.48 479.89 L485.37 476.26 L482.07 475.32 L475.14 475.24 L474.41 474.72 L473.8 473.61 L473.05 472.67 L471.92 472.69 L471.32 473.61 L470.95 476.63 L470.46 477.82 L468.42 480.29 L467.65 480.78 L456.37 483.83 L453.44 483.77 L454.41 480.56 L454.47 477.5 L453.85 474.43 L452.76 471.25 L441.25 470.31 L433.03 467.48 L429.79 467.9 L429.31 468.27 L429.08 469.03 L429.08 470.08 L429.22 471.3 L427.2 476.05 L427.14 482.47 L427.75 489.35 L427.74 495.57 L424.61 509.65 L423.54 512.48 L423.29 514.05 L423.58 515.46 L424.22 517.24 L424.88 518.69 L425.2 519.1 L423.51 523.03 L420.51 523.31 L412.87 520.16 L405.15 519.1 L402.92 519.95 L402.04 522.09 L401.45 524.81 L399.96 527.44 L399.22 531.73 L391.44 538.59 L388.64 543.14 L388.1 549.18 L388.18 556.02 L387.43 561.84 L386.76 562.51 L384.46 564.81 L382.03 564.65 L380.87 563.19 L380 561.09 L378.41 558.98 L377.45 558.76 L375.19 559.55 L374.04 559.43 L373.57 558.49 L373.55 556.99 L373.37 555.57 L372.42 554.73 L370.14 554.91 L365.71 557.05 L363.49 557.55 L361.75 557.12 L355.85 554.02 L352.3 549.84 L350.15 551.33 L346.83 560.16 L344.49 562.57 L336.8 565.89 L333.82 568.28 L332.66 568.74 L331.24 568.91 L316.56 563.71 L295.61 561.35 L290.58 559.24 L289.34 558.13 L286.79 554.94 L286.15 553.71 L285.46 550.66 L285.73 550.01 L286.57 549.7 L287.57 547.6 L288.01 547.28 L288.73 547.42 L289.4 547.21 L289.68 545.81 L289.29 544.45 L288.41 543.82 L287.38 543.4 L286.63 542.7 L285.69 540.86 L283.23 537.07 L281.93 535.66 L271.98 530.17 L268.73 527.47 L266.04 525.36 L263.23 523.82 L257.29 522.22 L254.4 519.21 L247.26 504.94 L243.82 499.56 L241.74 498.4 L236.23 497.52 L233.43 496.2 L230.91 493.68 L228.6 490.17 L227.03 486.07 L226.66 481.81 L223.97 482.12 L221.45 480.72 L218.94 478.71 L216.34 477.11 L213.9 476.59 L212.95 476.39 L210.9 477.33 L209.49 479.81 L207.97 483.73 L204.51 482.07 L199.83 478.71 L195.58 474.71 L193.46 471.25 L193.37 464.93 L191.72 461 L185.43 454.58 L180.94 448.55 L179.14 446.99 L176.17 445.84 L167.23 445.42 L163.04 442.97 L160.69 439.18 L158.74 434.72 L144.9 415.86 L143.06 414.82 L143.03 414.79 L138.31 409.15 L137.63 407.04 L137.44 404.85 L136.61 403 L134.04 401.93 L129.88 397.51 L127.74 395.78 L125.24 394.43 L119.58 392.87 L117.55 393.51 L118.21 396.43 L115.44 396.81 L106.73 395.53 L103.79 394.46 L101.45 392.03 L96.61 381.15 L93.63 378.07 L86.81 374.85 L83.92 372.44 L82.24 369.15 L81.5 365.46 L81.08 357.99 L80.88 354.15 L79.78 353.26 L78.22 353.48 L76.55 352.97 L74.95 351.29 L73.79 349.58 L72.85 347.54 L71.91 344.81 L71.31 342.14 L70.62 337.08 L69.58 334.6 L68.02 332.88 L64.49 330.94 L62.98 329.1 L63.09 328.54 L63.79 326.75 L62.61 326.17 L62.23 325.86 L63.48 323.07 L63.38 320.03 L62.15 317.61 L60.1 316.54 L55.18 314.18 L52.92 312.63 L50.8 310.7 L47.74 306.29 L46.21 303.36 L45.48 300.95 L47.22 297.51 L53.33 294.9 L55.69 292.51 L56.16 288.75 L56.24 283.94 L57.14 280.71 L60.1 281.62 L61.19 278.07 L64.6 271.76 L65.79 268.25 L66.25 263.78 L65.33 262.12 L63.22 261.3 L57.17 257.74 L57.34 255.25 L58.36 252.15 L57.98 248.79 L55.49 246.41 L50.05 245.84 L47.78 243.6 L47.63 243.6 L25.25 231.59 L24.78 230.13 L24.75 228.03 L24.44 225.67 L23.13 223.4 L20.99 221.54 L18.62 220.17 L16.52 218.25 L15.24 214.76 L15.15 211.3 L16.19 206.06 L15.76 202.58 L14.63 199.84 L12.96 197.26 L9.34 193.27 L2.03 188.7 L0.5 185.95 L2.35 183.15 L3.88 182.15 L4.88 181.07 L5.15 178.11 L4.6 174.8 L3.41 172.75 L0 169.18 L3.73 169.46 L10.82 169.98 L13.67 172.01 L14.54 174.15 L14.49 178.12 L15.07 179.92 L16.72 181.38 L18.88 182.05 L23.13 182.16 L24.18 182.75 L24.67 183.58 L24.6 184.65 L23.94 185.95 L23.71 185.98 L23.51 186.06 L23.31 186.19 L23.13 186.35 L22.73 186.8 L22.59 187.26 L22.75 187.78 L23.13 188.31 L25.71 190.93 L26.35 191.8 L26.96 193.31 L27.22 194.66 L27.38 195.85 L29.15 202.21 L30.65 204.55 L33.17 204.87 L35.23 203.37 L35.23 201.32 L34.38 198.85 L33.93 195.98 L34.39 191.87 L35.19 189.7 L38.11 185.95 L38.51 182.28 L39.71 180.47 L41.36 179.31 L43.05 177.54 L47.63 169.18 L49.22 167.6 L53.56 165.16 L55.32 163.58 L55.85 163.27 L57.18 163.31 L57.78 162.99 L58.1 162.14 L58.01 161.23 L57.81 160.45 L57.78 159.97 L58.18 158.93 L58.48 157.76 L59 156.61 L60.1 155.65 L64.2 152.12 L70.16 150.36 L81.23 149.53 L89.13 150.97 L91.06 150.76 L92.71 149.16 L95.98 144.08 L97.88 142.19 L100.29 141.32 L102.66 141.17 L105.3 141.55 L106.22 141.19 L108.3 139.81 L109.63 139.53 L110.87 139.9 L124.57 148.26 L129.62 148.55 L130.82 147.37 L134.04 144.19 L136.14 141.7 L137.1 137.47 L138.06 127.99 L139.29 127.14 L140.52 126.84 L141.75 127.1 L142.89 127.97 L144.19 128.35 L145.57 128.47 L146.96 128.36 L148.3 127.99 L148.32 127.99 L148.35 127.97 L152.52 126.52 L160.32 126.98 L163.96 124.25 L166.08 120.39 L171 107.2 L173.88 107.46 L176.28 109.15 L178.74 110.24 L181.84 108.65 L183.42 103.94 L184.24 102.46 L189.79 98.5 L190.68 97.54 L190.77 96.7 L191.18 96.41 L192.99 97.07 L193.78 97.97 L195.86 101.48 L196.84 102.71 L200.14 104.33 L202.89 103.65 L205.4 101.36 L207.97 98.14 L209.43 97.31 L210.32 96.22 L210.46 94.81 L209.6 92.94 L212.06 91.07 L214.03 88.51 L214.61 85.37 L212.9 81.78 L218.96 78.12 L225.67 76.85 L238.95 76.92 L241.8 76.35 L247.43 74.26 L250.62 73.94 L257.41 74.7 L260.07 74.16 L264.35 71.48 L265.25 71.45 L266.11 71.15 L267.11 69.7 L267.19 68.47 L266.84 66.83 L266.66 64.84 L267.28 62.57 L268.64 60.89 L269.9 60.84 L271.33 61.28 L273.2 61 L274.71 59.86 L276.97 56.96 L278.56 55.83 L281.45 55.2 L286.86 55.9 L289.71 55.71 L312.76 45.09 L314.56 43.4 L317.27 39.31 L318.87 37.72 L324.19 36.6 L335.79 37.53 L340.14 33.83 L341.02 27.99 L337.08 25.7 L331.62 24.08 L327.85 20.34 L327.98 17.87 L329.24 17 L329.47 16.52 L326.52 15.32 L321.52 14.67 L319.79 13.53 L321.44 11.13 L323.52 4.37 L327.07 0.75 L331.77 0 L337.28 1.8 L338.39 2.83 L339.17 4.13 L340.14 5.41 L341.74 6.29 L343.38 6.32 L347.52 4.48 L352.88 4.79 L354.57 3.91 L355.85 0.66 L356.71 2.66 L357.03 4.07 L357.53 5.48 L358.92 7.41 L360.76 8.69 L364.75 9.7 L366.57 11.13 L368.35 13.31 L369.48 15.17 L369.94 17.46 L369.67 20.99 L368.52 23.82 L366.75 27.19 L365.94 30.05 L367.64 31.39 L375.81 27.99 L377.6 28.02 L378.4 30.68 L377.54 33.79 L375.03 39.69 L374.51 43.88 L375.23 45.64 L380.37 47.09 L382.48 48.27 L388.13 52.57 L393.62 53.81 L396.83 53.93 L399.22 53.27 L400.65 51.62 L402.06 48.91 Z "/>
</g>
</svg>
