<svg xmlns="http://www.w3.org/2000/svg" viewBox="0 0 1000 994.61">
<g fill="#ccc" stroke="#333" stroke-width="0.5" stroke-linejoin="round">
<path fill-rule="evenodd" d="M336.44 99.85 L334.69 87.62 L335.73 81.1 L335.69 79.37 L335.67 78.72 L335.77 77.54 L336.87 75.74 L337.23 74.56 L337.43 73.28 L337.5 69.94 L336.77 65.51 L336.09 63.45 L334.21 59.97 L333.93 58.96 L333.61 58.39 L332.17 57.17 L331.76 56.27 L332.01 55.12 L332.79 53.74 L333.82 52.76 L334.83 52.84 L335.8 53.44 L336.83 53.65 L337.89 53.58 L338.95 53.36 L341.4 52.52 L343.09 51.3 L344.33 49.57 L347.02 42.91 L348.29 41.12 L350.08 39.68 L350.68 38.14 L350.8 38.07 L351.02 37.87 L352.04 37.5 L352.26 37.31 L354.05 34.26 L355.01 33.48 L355.93 32.88 L356.64 32.13 L357.07 30.11 L357.44 29.68 L357.91 29.34 L358.34 28.87 L358.6 28.36 L359.06 26.72 L359.65 25.48 L360.4 24.53 L361.63 23.36 L362.12 22.89 L363.01 22.55 L365.42 22.58 L366.29 22.37 L367.29 21.02 L368.08 19.65 L368.46 19.19 L370.91 18.06 L375.6 15.15 L376.7 13.6 L377.48 12.9 L378.66 12.6 L382.07 12.72 L383.15 12.6 L384.8 11.79 L385.85 11.59 L387.78 12.48 L393.76 12.6 L394.24 12.71 L395.3 13.21 L396.89 13.54 L399.27 14.66 L400.01 15.15 L400.61 15.88 L401.03 16.59 L401.94 18.12 L402.2 18.94 L402.75 19.65 L404.03 20.12 L408.68 21.1 L410.1 21.97 L411.33 23.03 L413 24.17 L416.47 25.51 L417.47 26.16 L419.86 29.11 L420.88 29.95 L421.83 30.44 L424.29 31.25 L425.38 31.39 L426.24 31.76 L427.03 32.63 L428.06 34.26 L429.21 36.75 L429.64 37.13 L430.52 37.53 L431.55 38.49 L432.4 39.68 L432.75 40.76 L432.44 41.52 L431.91 42.41 L431.65 43.41 L432.19 44.55 L432.42 44.76 L437.82 49.84 L438.9 50.54 L440.1 50.82 L444.57 50.13 L448.73 50.13 L449.99 49.95 L450.79 49.53 L451.4 49.04 L452.12 48.66 L454.17 48.52 L458.99 49.56 L464.03 51.4 L464.9 51.57 L465.32 51.95 L466.33 53.79 L466.86 54.44 L468.14 54.87 L468.78 55.18 L469.2 56.05 L469.59 56.21 L470.64 56.27 L471.17 56.44 L471.55 56.77 L471.97 57.03 L472.62 56.99 L473.1 56.7 L473.45 56.29 L473.74 55.86 L474.05 55.52 L474.46 55.22 L474.85 55.01 L475.34 54.88 L476.03 54.83 L476.58 55 L476.93 55.37 L477.18 55.74 L479.7 57.35 L480.56 57.74 L481.76 58.08 L482.77 58.16 L485.04 58.06 L485.72 58.2 L486.21 58.53 L486.6 58.89 L486.98 59.14 L487.55 59.25 L488.59 59.26 L489.13 59.5 L494.16 56.89 L495.05 56.82 L497.03 56.99 L498.82 56.84 L499.57 56.94 L500.68 57.35 L500.93 57.55 L501.08 57.79 L501.34 57.98 L501.92 58.06 L503.43 58 L503.9 58.06 L504.85 58.52 L505.58 59.13 L506.41 59.66 L507.66 59.89 L510.72 60.09 L511.81 59.89 L512.31 59.71 L512.53 59.59 L512.8 59.52 L513.42 59.5 L513.81 59.62 L515.27 60.3 L516.38 60.82 L519.03 61.33 L520.05 61.69 L520.32 61.92 L521.3 62.93 L521.83 63.26 L523.03 63.71 L524.21 64.46 L529.25 65.59 L535.51 65.28 L535.99 65.08 L537.02 64.65 L537.33 64.52 L539.18 63.21 L540.12 62.31 L540.52 61.49 L540.73 61.25 L541.69 60.41 L541.99 59.89 L541.96 59.43 L541.65 58.33 L541.63 57.74 L543.16 54.93 L543.58 54.44 L544.18 54.27 L544.8 53.83 L545.3 53.26 L545.53 52.68 L545.4 52.28 L544.49 51.21 L544.23 50.18 L544.13 48.73 L544.41 47.45 L545.35 46.9 L547.66 46.97 L548.78 46.87 L549.5 46.51 L549.79 45.99 L549.9 45.44 L549.9 44.19 L550.06 43.91 L550.77 43.38 L550.93 43.1 L551.05 42.77 L551.56 41.85 L551.69 41.48 L551.62 40.98 L551.3 39.91 L551.29 39.29 L552.04 38.82 L552.61 38.27 L553.06 37.61 L553.47 36.81 L554.06 35.02 L554.56 34.25 L555.45 33.94 L556.24 34.25 L557.25 34.8 L558.12 34.96 L558.72 33.51 L559.88 32.63 L560.31 32.11 L559.85 31.51 L559.62 30.89 L559.64 30.25 L559.95 29.59 L560.46 29.05 L560.85 29.01 L561.34 29.17 L562.1 29.2 L562.72 28.99 L563.32 28.67 L563.95 28.43 L564.6 28.48 L565.04 28.9 L565.59 30.31 L566.16 31.42 L566.37 32.2 L566.69 32.89 L567.32 33.18 L568.03 33.29 L568.68 33.56 L569.28 33.96 L569.84 34.44 L571 34.94 L572.28 34.73 L574.63 33.54 L575.42 34.22 L576.73 36.05 L577.36 36.42 L577.54 36.6 L578.99 37.5 L579.67 38.96 L580.11 39.13 L581.26 39.36 L581.49 39.49 L581.62 39.67 L582.2 40.27 L582.38 40.4 L583.4 40.45 L584.35 40.62 L585.25 40.95 L586.15 41.48 L586.55 41.25 L587.52 41.29 L587.94 41.12 L588.2 40.74 L588.25 40.36 L588.24 39.9 L588.33 39.29 L588.71 38.36 L589.29 37.68 L590.17 37.27 L591.4 37.13 L592.32 36.79 L595.49 34.26 L596.62 33.76 L599.03 33.17 L601.06 32.01 L602.12 31.69 L604.48 31.39 L605.64 30.95 L607.66 29.51 L608.61 29.2 L609.22 29.27 L610.25 29.55 L610.63 29.59 L611.11 29.44 L611.66 28.97 L612.03 28.87 L614.26 29.35 L615.51 29.36 L615.47 28.68 L615.22 28.15 L615.24 27.57 L615.42 27.04 L615.64 26.72 L615.97 26.56 L616.29 26.67 L617.07 27.44 L618 26.86 L620.68 25.61 L622.02 24.48 L622.92 23.96 L623.91 23.81 L624.51 24.03 L625.52 24.74 L626.23 24.89 L626.77 24.61 L628.23 22.7 L629.22 22.07 L630.27 21.8 L631.13 22.18 L631.49 23.45 L631.82 23.45 L632.26 23.14 L632.36 22.75 L632.36 22.26 L632.54 21.65 L633.15 20.16 L633.25 20.02 L633.78 19.59 L637.55 19.11 L638.47 18.58 L639.13 17.86 L639.04 17.22 L637.73 16.95 L637.17 16.45 L637.51 15.31 L638.28 14.08 L639.01 13.32 L639.28 13.89 L639.8 15.45 L640.09 15.9 L640.81 16.21 L640.95 15.78 L640.93 15.06 L641.12 14.46 L642.33 14.1 L643.44 14.37 L643.77 14.45 L645.16 15.17 L646.17 15.9 L646.47 16.31 L646.93 17.31 L647.25 17.7 L647.77 17.92 L649.09 18.12 L649.75 18.39 L650.22 18.88 L650.21 19.93 L650.5 20.54 L651.13 20.98 L652.67 21.48 L653.4 22.01 L652.7 22.93 L652.53 23.48 L653.06 23.74 L656.54 24.1 L657.54 24.04 L658.41 23.45 L659.03 24.05 L659.62 23.98 L660.18 23.5 L660.75 22.89 L661.2 22.68 L661.62 22.82 L662.11 23.04 L662.71 23.09 L663.75 22.69 L665.65 21.51 L666.84 21.26 L667.11 21.11 L668.08 20.41 L668.46 20.22 L669.06 20.21 L671 20.76 L672.79 21.76 L674.65 22.29 L675.11 22.17 L675.41 21.1 L675.95 20.05 L676.18 19.83 L676.65 19.66 L677.04 19.31 L677.45 18.78 L678.01 18.81 L678.4 19.02 L678.77 19.27 L679.24 19.46 L682.59 19.26 L683.21 18.94 L683.69 18.49 L685.99 18.27 L686.79 18.06 L687.28 17.54 L687.49 17.01 L687.54 15.71 L687.7 15.12 L688.45 14.22 L688.61 13.89 L688.69 13.34 L688.98 12.3 L688.94 11.92 L688.56 11.57 L687.52 11.38 L687.15 11.17 L686.8 10.01 L687.24 9.11 L687.91 8.39 L688.26 7.73 L688.34 6.51 L688.67 5.44 L689.32 4.68 L690.4 4.33 L689.73 3.41 L690.1 3.08 L690.87 2.83 L691.41 2.18 L692.34 2.72 L693.48 2.45 L695.83 1.16 L695.94 0.97 L696.09 1.05 L696.65 1.62 L697.12 1.74 L698.4 1.23 L699.02 1.1 L698.6 0.16 L699.18 0 L700.12 0.12 L700.82 0.02 L701.14 0.02 L701.55 0.68 L701.72 1.37 L702.15 1.83 L703.33 1.82 L703.16 2 L703.03 2.2 L702.87 2.39 L702.61 2.57 L702.61 2.9 L703.35 3.44 L703.75 3.34 L704.11 3.02 L704.75 2.9 L705.05 3.03 L705.43 3.48 L705.67 3.58 L705.74 3.64 L706.9 3.97 L707.64 4.51 L709.09 6.13 L709.66 6.57 L710.41 6.89 L711.13 6.84 L711.62 6.13 L711 5.8 L711.48 5.59 L712.21 5.92 L712.33 7.21 L712.58 7.12 L713.15 6.98 L713.38 6.88 L713.21 7.6 L713.36 8.09 L713.61 8.46 L713.98 9.51 L714.51 9.23 L715.03 8.62 L715.2 8.29 L716.41 8.33 L716.99 9.04 L717.49 10.01 L718.43 10.81 L718.51 9.74 L719.2 9.14 L720.12 9.01 L720.93 9.37 L720.92 8.45 L721.15 7.94 L721.63 7.77 L722.37 7.9 L722.92 8.22 L723.83 9.27 L724.51 9.76 L725.06 9.34 L725.77 9.22 L726.39 9.22 L726.66 9.19 L726.8 8.59 L727.15 8.37 L727.61 8.43 L728.09 8.65 L727.91 8.23 L727.74 6.88 L728 7.05 L728.26 7.15 L728.58 7.2 L729 7.21 L729.37 7.04 L729.66 6.67 L729.92 6.13 L730.66 6.5 L731.01 7.13 L731.35 7.52 L732.06 7.21 L732.29 7.46 L732.63 7.67 L732.78 7.9 L733.34 7.4 L733.5 7.21 L733.96 8.83 L734.3 9.28 L734.96 9.01 L734.93 9.28 L734.96 10.12 L735.2 10.01 L735.8 9.86 L736.03 9.76 L736.42 10.69 L737.39 11.39 L738.4 11.81 L739.74 12.05 L740.74 11.94 L741.63 11.98 L742.12 12.6 L742.47 12.36 L743.58 11.92 L744.08 12.72 L744.83 13.3 L745.62 13.77 L746.27 14.27 L747.26 16.28 L747.36 16.62 L748.02 16.75 L749.45 17.26 L750.36 17.34 L750.8 17.23 L751.5 16.96 L752.16 16.61 L752.54 16.23 L752.89 16.62 L753.51 15.85 L754.48 15.52 L755.38 15.64 L755.79 16.23 L756.12 16.23 L756.43 15.67 L756.87 15.64 L757.58 15.9 L758.11 15.64 L758.82 15.06 L759.37 14.79 L761.88 14.79 L762.62 14.9 L762.99 15.12 L765.15 17.42 L765.49 17.7 L765.88 17.64 L766.42 17.09 L766.76 16.95 L767.12 17.07 L767.41 17.32 L767.59 17.58 L767.64 17.7 L768.57 17.78 L768.86 17.56 L769.46 16.95 L769.75 16.49 L770.25 15.23 L770.5 14.79 L772.06 13.1 L773.53 11.8 L775.1 10.74 L776.98 9.76 L779.4 9.06 L781.64 9.21 L783.8 10 L788.11 12.13 L789.32 12.47 L790.45 12.6 L791.37 12.81 L792.1 13.32 L792.77 13.93 L793.51 14.46 L793.97 14.64 L794.48 14.73 L795.48 14.79 L796.06 14.91 L796.79 15.4 L797.29 15.51 L798.68 16.04 L798.77 16.72 L798.42 19.07 L798.71 19.34 L799.02 19.58 L799.37 19.77 L799.74 19.92 L801.38 21.18 L801.83 21.69 L802.02 22.19 L802.24 23.32 L802.52 23.84 L803.47 24.62 L804.52 25 L809.15 25.5 L810.08 26.09 L810.77 27.34 L811.18 29.52 L811.51 30.4 L812.2 30.95 L812.59 30.95 L813.6 30.67 L814.07 30.64 L814.57 30.93 L815 31.46 L815.35 32.06 L815.56 32.54 L815.75 33.68 L815.33 36.75 L815.43 38.92 L815.67 40.17 L816.05 41.03 L816.28 41.03 L817.56 41.31 L817.97 41.44 L818.51 41.88 L819.46 42.91 L820.07 43.27 L820.48 43.31 L821.97 43.09 L822.26 43.13 L823.15 43.51 L823.47 43.48 L823.59 43.25 L823.63 43 L823.67 42.87 L823.58 42.8 L823.8 42.64 L824.27 42.39 L824.53 42.48 L825.07 43.06 L825.42 43.13 L826.01 43.05 L828.71 43.44 L828.87 44.02 L828.61 44.92 L828.45 46.12 L828.48 46.68 L828.57 47.11 L828.72 47.53 L828.98 48.03 L830.59 50.32 L831.11 50.27 L831.98 49.35 L832.46 49.05 L833.31 49.11 L833.66 49.54 L833.87 50.56 L835.33 52.42 L836.3 53.39 L837.29 54.1 L839.36 54.38 L841.67 53.94 L843.88 53.84 L845.64 55.14 L846.11 56.25 L846.28 56.99 L846.72 57.49 L847.98 57.89 L849.17 57.75 L850.29 57.07 L851.26 56.14 L853.28 53.49 L854.03 52.96 L855.21 52.68 L855.71 52.71 L856.22 52.81 L856.73 52.86 L857.2 52.72 L857.57 52.24 L857.7 51.64 L857.9 51.06 L858.52 50.67 L860.68 50.15 L861.47 49.64 L862.26 48.56 L864.43 44.36 L864.9 44.28 L865.97 44.28 L866.69 43.92 L867.14 43.48 L867.59 43.23 L868.31 43.45 L869.07 44.47 L869.15 45.65 L869.4 46.67 L870.73 47.21 L871.28 47.21 L872.88 46.99 L875.36 47.2 L876.51 47.08 L879.69 46.28 L880.11 46.73 L882.64 48.42 L883.21 48.66 L883.35 49.41 L883.5 49.35 L885.59 50.25 L886.18 50.68 L889.51 54.06 L890.7 54.64 L892.02 54.45 L892.41 53.61 L892.56 52.62 L893.15 51.99 L894.44 51.97 L895.49 52.19 L896.35 52.01 L897.13 50.75 L897.67 49.49 L898.19 48.72 L900.88 46.4 L901.53 45.43 L901.96 44.37 L902.3 43.15 L902.65 42.6 L903.63 41.68 L903.73 41.1 L903.68 40.56 L903.84 39.65 L903.97 37.81 L904.41 37.15 L905.2 37.01 L906.33 37.22 L906.54 37.36 L907.08 37.9 L907.33 38.07 L908.15 37.66 L908.47 37.62 L909.07 37.79 L910.66 38.47 L912.23 38.5 L912.85 38.62 L915.04 39.65 L915.65 40.07 L917.17 41.43 L917.93 41.88 L918.33 41.96 L919.49 41.66 L919.84 41.79 L921.03 42.52 L921.56 42.74 L922.2 43.12 L922.02 43.68 L921.75 44 L921.51 44.29 L921.2 44.81 L921.24 45.28 L921.6 46.15 L921.69 46.61 L921.62 47.16 L921.15 48.73 L921.12 51.03 L921.73 52.97 L923.15 54.13 L925.55 54.1 L926.7 54.27 L928.06 55.05 L929.2 56.13 L929.71 57.2 L929.54 57.73 L929.15 58.25 L928.83 58.81 L928.88 59.45 L929.3 59.95 L929.85 60.07 L930.45 60.07 L931.07 60.17 L932.3 60.91 L933.1 61.88 L934.32 64.24 L935.1 65.36 L935.89 65.86 L938.09 66.31 L939.29 66.98 L939.83 68.01 L940.12 69.22 L940.59 70.43 L941.85 71.93 L942.19 72.51 L942.31 73.09 L942.32 73.64 L942.41 74.17 L942.78 74.67 L943.65 74.97 L947.06 75.02 L950.58 76.15 L954.82 78.68 L956.81 79.32 L957.28 79.4 L958.33 79.43 L958.84 79.35 L959.36 79.21 L959.89 79.15 L960.4 79.32 L961.11 80.69 L962.37 88.4 L962.34 89.43 L961.95 91.47 L961.66 92.12 L961.35 92.44 L961.33 92.71 L961.88 93.15 L962.34 93.31 L962.88 93.33 L963.92 93.2 L964.58 93.03 L966.23 92.12 L967.14 91.78 L967.75 91.7 L969.21 91.7 L970.33 91.08 L971.21 90.05 L972.02 89.45 L972.98 90.14 L973.19 90.66 L973.35 92.46 L973.71 93.25 L974.39 93.77 L976.02 94.41 L976.78 95.34 L976.26 98.05 L976.88 99.15 L978.02 98.73 L979.01 97.88 L979.86 97.59 L980.54 98.84 L980.55 99.31 L980.2 100.8 L980.28 101.4 L980.81 102.5 L980.91 103.11 L980.58 104.24 L980.31 104.62 L979.91 105.2 L978.4 106.87 L977.36 108.66 L977.26 108.91 L977.2 109.46 L977.03 109.73 L976.79 109.86 L976.16 110 L975.97 110.12 L975.03 111.98 L972.89 118.42 L972.07 120.87 L971.86 121.99 L971.93 122.99 L972.55 123.77 L975 125.47 L975.9 126.31 L977.11 128.43 L977.68 130.51 L977.61 132.6 L976.31 136.13 L975.95 136.65 L975.75 136.75 L975.11 136.88 L974.89 137.02 L974.76 137.32 L974.75 137.84 L974.68 138.11 L972.93 142.83 L972.81 143.5 L972.77 143.72 L972.65 144.13 L971.63 145.73 L971.41 146.26 L971.35 147.24 L971.55 149.18 L971.5 150.12 L971.1 150.97 L970.44 152.04 L969.96 153.13 L970.12 154.03 L970.87 154.26 L974.54 154.29 L975.06 154.59 L975.18 155.23 L975.17 156.03 L975.31 156.8 L975.84 157.66 L976.71 158.69 L977.69 159.56 L978.57 159.96 L980.08 159.23 L980.81 157.54 L981.67 156.1 L983.62 156.11 L984.5 156.68 L987.46 160.01 L987.58 160.23 L987.7 160.61 L987.62 160.92 L987.33 161.07 L987.16 161.28 L987.43 161.76 L988.19 162.16 L990.49 162.55 L991.2 162.59 L992.07 162.45 L994.6 161.49 L994.68 163.76 L994.86 164.86 L995.26 165.76 L996.35 166.61 L999.32 168.3 L999.91 169.2 L1000 169.34 L999.98 169.44 L999.53 171.98 L998.03 174.7 L994.91 178.64 L991.54 182.88 L990.33 184.4 L986.65 189.02 L982.9 192.04 L975.7 197.87 L968.6 203.6 L964.18 209.3 L961.89 212.24 L957.94 217.33 L956.89 218.22 L956.22 218.68 L955.49 218.99 L954.5 219.25 L953.79 219.32 L952.6 219.19 L951.99 219.25 L951.11 219.93 L950.48 220.99 L949.84 221.67 L948.93 221.25 L948.36 220.79 L947.88 220.7 L947.43 220.84 L946.98 221.07 L945.38 222.71 L945.24 223.05 L945.13 224.18 L945 224.72 L944.81 225.18 L944.14 225.8 L944.16 226.82 L944.44 228.95 L944.08 229.92 L942.9 231.16 L942.65 232.01 L942.49 232.2 L941.54 233.97 L940.97 234.63 L940.46 234.92 L934.87 236.2 L932.67 237.19 L931.92 237.76 L930.77 238.65 L930.09 239.04 L929.09 241.12 L929.02 241.65 L929.31 244.36 L928.66 248.8 L928.63 249.87 L929.6 254.11 L929.73 256.16 L928.98 257.79 L928.81 258.16 L927.82 259.31 L925.05 262.51 L924.44 263.49 L924.08 264.62 L922.4 273.24 L922.22 273.65 L921.7 273.98 L921.34 273.83 L920.95 273.5 L920.34 273.26 L920.05 273.85 L917.74 277.06 L917.28 278.48 L917.21 279.39 L917.83 281.68 L917.88 282.68 L917.6 283.67 L916.81 285.6 L915.9 290.94 L915.58 292.82 L914.71 297.96 L914.55 298.88 L913.42 305.49 L913.55 306.47 L913.69 306.77 L914.24 307.92 L914.49 308.73 L914.66 311.95 L914.55 312.68 L914.13 312.97 L913.57 313 L913.08 313.14 L912.87 313.72 L912.95 314.03 L913.36 314.59 L913.48 314.91 L913.42 315.31 L913.16 315.58 L912.87 315.79 L912.69 316.07 L912.04 320.2 L912 321.29 L912.46 323.33 L912.58 324.44 L912.45 327.59 L912.3 328.35 L911.71 329.06 L910.16 329.58 L909.57 330.51 L909.5 330.98 L909.53 331.5 L909.74 332.49 L909.8 333.26 L909.6 333.77 L909.34 334.22 L909.33 334.23 L909.18 334.86 L909.32 335.78 L910.09 337.8 L910.31 338.81 L910.26 339.76 L909.62 343 L909.63 344.26 L910.06 345.11 L910.6 345.91 L910.91 347.04 L910.85 347.49 L910.36 348.82 L910.39 349.37 L911 350.43 L911.2 351.02 L911.21 352.02 L910.72 355.1 L908.66 355.83 L906.57 357.34 L904.77 359.22 L903.76 360.81 L903.58 361.09 L903.47 361.2 L903.35 361.28 L903.22 361.31 L899.22 361.47 L898.39 361.82 L897.78 362.6 L896.35 365.56 L895.82 366.25 L893.29 368.35 L892.65 369.28 L891.55 371.38 L890.2 373.52 L888.25 376.66 L887.26 378.97 L887 380.84 L887.11 382.76 L888.51 391 L888.61 392.89 L888.31 395.08 L887.49 397.56 L886.18 399.61 L884.37 401.03 L882.04 401.65 L880.53 401.6 L880.08 401.76 L879.54 402.26 L879.48 402.72 L879.3 403.28 L878.91 404.07 L878.3 405.01 L877.56 405.77 L876.65 406.31 L875.55 406.63 L874.14 407.12 L873.41 407.75 L873.01 409.13 L873.12 410.25 L873.31 411.3 L873.85 412.25 L874.03 412.89 L873.12 413.7 L872.93 414.39 L873.13 415.06 L873.59 415.38 L874.18 415.66 L874.72 416.21 L875.07 417.43 L874.72 421.44 L875.13 421.86 L877.08 423.14 L877.78 423.42 L879.35 423.58 L880.42 424.12 L881.22 425.01 L881.92 426.28 L880.85 426.42 L880.18 426.99 L879.83 427.89 L879.73 429 L880.15 429.89 L881.11 430.17 L882.2 430.27 L882.99 430.62 L883.22 431.03 L883.7 432.44 L884.48 433.58 L884.7 434.11 L884.78 434.95 L885.12 435.79 L885.93 436.22 L886.89 436.54 L887.67 437.07 L887.98 437.9 L888.19 438.99 L888.64 439.93 L889.64 440.33 L890.61 440.44 L891.51 440.79 L892.24 441.34 L892.72 442.12 L893.08 445.15 L893.12 445.49 L892.89 446.09 L892.22 446.47 L891.82 447.35 L891.64 448.42 L891.79 451.92 L892.15 452.94 L893.05 453.66 L892.8 453.89 L891.59 455.01 L891.36 455.71 L891.25 457.24 L892.22 470.59 L892.12 474.71 L891.8 476.93 L891.25 480.75 L891.69 486.95 L892.19 488.35 L892.99 489.48 L894.98 491.63 L898.22 497.11 L899.67 502.15 L899.96 503.16 L901.61 515.86 L901.77 516.54 L901.96 518.63 L901.46 523.07 L898.29 531.75 L897.25 536.2 L897.39 540.61 L898.39 544.81 L898.47 545.13 L900.23 549.42 L904.31 556.92 L906.45 565.44 L911.54 577.48 L912.53 581.91 L912.04 585.99 L910.35 588.95 L906.43 594.26 L905.38 597.61 L905.52 599.7 L907.1 605.6 L907.97 611.9 L908.61 613.97 L910.1 616.46 L913.66 621.07 L916.3 628.17 L917.49 630.17 L919.15 631.92 L926.2 637.29 L931.24 639.87 L933.52 641.04 L937.62 644.46 L945.16 653.29 L948.3 658.17 L952.24 666.67 L954.09 673.32 L954.6 676.81 L956.01 681.8 L967.2 699.32 L971.04 708.68 L972.29 713.45 L963.36 714.82 L949.9 716.88 L939.34 718.5 L925.41 720.64 L911.47 722.78 L910.61 722.91 L899.61 724.6 L891.33 725.87 L882.26 727.26 L875.97 728.22 L874.6 728.76 L874.79 729.76 L877.03 734.47 L876.77 739.2 L874.81 743.76 L868.11 752.69 L859.39 761.31 L854.52 764.92 L849.74 767.19 L847.5 768.67 L846.46 770.63 L847.3 772.58 L849.55 773.45 L852.12 773.98 L853.96 774.95 L855.03 776.29 L855.15 777.3 L855.05 778.26 L854.97 779.03 L855.23 779.86 L855.85 780.46 L857.11 781.39 L857.49 781.95 L857.7 782.54 L857.8 783.23 L857.83 784.13 L858.08 784.83 L858.72 785.09 L860.37 785.05 L860.02 785.47 L858.84 785.85 L858.58 786.14 L858.79 786.64 L859.78 787.77 L860.01 788.49 L860.12 789 L860.58 790.11 L860.69 790.68 L860.76 793.16 L861.08 794.22 L861.8 795.26 L862.32 795.62 L862.78 795.79 L863.11 796.1 L863.23 796.87 L864.61 798.28 L864.5 798.52 L863.54 798.91 L863.03 799.86 L862.52 802.16 L860.91 805.6 L860.69 806.75 L861.08 810.58 L860.94 814.83 L860.47 816.91 L859.65 818.55 L858.36 820.07 L857.86 821.05 L859.65 822.59 L859.75 822.83 L859.86 823.4 L860.01 823.68 L860.14 823.78 L860.6 824.05 L860.69 824.08 L860.97 825.12 L860.83 825.95 L860.53 826.79 L860.37 827.91 L860.54 829.25 L860.94 830.19 L861.42 831.04 L861.8 832.08 L861.86 832.72 L861.78 833.39 L861.57 834.01 L861.26 834.49 L861.04 834.99 L861.47 835.8 L861.26 836.31 L861.27 837.04 L861.96 838.01 L863.23 839.43 L863.25 840.06 L862.96 841.2 L862.88 841.81 L863.16 842.35 L864.38 843.3 L864.67 843.64 L864.39 844.71 L863.72 845.71 L862.9 846.53 L862.16 847.12 L861.86 847.2 L861.2 847.15 L860.89 847.29 L860.66 847.57 L859.86 848.88 L859.49 850.04 L859.1 850.56 L858.21 851.51 L857.53 852.65 L857.05 853.88 L856.79 855.13 L856.79 857.5 L856.67 858.08 L856.16 859.17 L856.04 859.72 L855.84 860.29 L854.92 861.24 L854.61 861.73 L854.55 862.27 L854.65 863.41 L854.61 863.95 L854.41 864.52 L853.72 865.82 L852.98 866.85 L852.95 867.37 L853.51 870.22 L853.53 870.89 L853.4 871.39 L852.95 872.06 L852.82 872.37 L852.75 872.95 L852.82 874.75 L851.84 876.78 L851.34 877.36 L850.85 878.14 L850.63 879.31 L851.03 881.3 L850.75 881.46 L849.58 882.38 L849.4 882.6 L846.7 886.58 L846.56 887.53 L846.63 890.39 L846.87 891.22 L847.15 891.65 L847.77 893.23 L848.16 893.77 L848.93 894.56 L849.24 895.05 L850.15 898.24 L850.11 898.78 L849.92 899 L850.27 899.49 L851.03 900.21 L851.19 900.75 L851.71 904.45 L852.13 905.13 L852.98 905.39 L853.61 905.95 L854.05 908.56 L854.61 909.38 L855.31 909.01 L855.85 909.04 L856.32 909.34 L856.79 909.75 L857.04 910.04 L857.66 911.08 L857.83 911.58 L859.06 910.87 L859.77 911.39 L860.69 913.4 L861.38 913.93 L863.95 915.35 L865.06 915.64 L866.89 915.36 L867.36 915.79 L867.53 917.28 L867.82 918.09 L868.55 918.66 L870.39 919.66 L871.05 920.26 L871.76 921.14 L872.34 922.17 L872.57 923.17 L873.05 923.81 L876.15 925.55 L877.52 927.25 L881.79 935.14 L881.92 935.68 L882.01 936.38 L882.26 936.53 L882.65 936.52 L883.18 936.79 L883.94 936.84 L884.84 936.4 L885.67 936.27 L886.24 937.31 L887.14 936.74 L888.23 936.25 L889.51 935.92 L893.79 935.85 L894.32 936.1 L895.26 937.15 L895.91 937.72 L896.4 937.92 L897.01 938.02 L899.11 938.07 L899.52 938.16 L901.7 939.36 L903.1 939.88 L903.45 939.92 L904.19 939.85 L904.53 939.88 L904.81 940.04 L905 940.26 L905.22 940.48 L905.61 940.61 L906.62 940.51 L907.4 940.02 L907.93 939.23 L908.11 938.23 L907.87 937.26 L907.24 936.98 L906.43 936.93 L905.61 936.62 L904.03 934.6 L903.83 934.18 L903.92 933.73 L904.11 933.25 L904.32 931.99 L904.95 929.89 L905.29 929.22 L906.09 928.62 L908.39 927.83 L909.42 927.2 L910.18 926.48 L910.66 926.29 L911.37 926.29 L912.05 926.54 L912.99 927.48 L913.55 927.79 L914.44 927.61 L917.19 926.34 L918.95 925.04 L920.07 924.65 L922.33 924.47 L922.34 924.56 L922.35 924.73 L922.35 924.75 L922.34 930.46 L922.32 936.71 L922.31 945.65 L922.3 953.69 L922.29 963.08 L922.27 971.14 L922.26 978.76 L922.25 986.81 L922.24 992.77 L921.44 994.46 L920.64 994.61 L917.27 994.57 L915.19 993.99 L914.05 993.54 L913.25 993.07 L912.79 992.6 L912.44 992.05 L912.17 991.46 L911.97 990.83 L911.97 990.08 L912.37 989.79 L912.87 989.7 L913.2 989.53 L913.3 989.03 L913.19 987.95 L913.27 987.49 L913.64 987.09 L914.58 986.86 L914.97 986.58 L915.21 986.17 L915.42 985.64 L915.51 985.06 L915.37 984.52 L914.89 983.92 L914.49 983.91 L914.03 984.07 L913.4 983.99 L912.4 983.35 L911.5 982.6 L910.54 982.05 L909.31 981.98 L908.1 982.52 L905.06 985.41 L903.99 986.09 L896.58 988.96 L893.54 991.01 L892.34 991.5 L891.64 991.91 L890.63 993.13 L890.07 993.45 L889.28 993.28 L888.82 992.65 L888.46 991.84 L887.99 991.16 L886.82 990.62 L885.56 990.63 L884.24 990.84 L883.85 990.85 L882.86 990.86 L881.91 991.22 L880.96 991.43 L880.1 991.24 L879.41 990.39 L877.81 988.82 L876.96 986.59 L875.35 978.65 L874.75 977.84 L874.27 977.64 L873.24 977.59 L872.74 977.29 L872.25 975.42 L872.07 975.3 L871.79 975.24 L871.49 975.15 L871.28 974.91 L871.22 974.61 L871.29 974.05 L871.26 973.81 L871.27 973.57 L871.52 972.98 L871.55 972.7 L871.35 972.48 L870.64 972.22 L870.42 971.98 L869.96 970.04 L869.58 969.46 L868.65 968.65 L865.1 963.98 L863 961.81 L860.55 961.28 L859.87 961.73 L859.11 963.28 L858.6 963.93 L857.79 964.29 L857 964.26 L856.44 963.76 L856.26 960.98 L855.44 959.7 L854.28 958.54 L853.2 957.12 L852.83 955.74 L853.36 954.97 L854.21 954.37 L854.81 953.48 L854.84 952.08 L854.3 951.07 L852.53 949.19 L851.89 947.98 L850.86 945.33 L850.15 944.18 L845.79 940.37 L844.89 939.87 L843.9 939.56 L842.86 939.49 L841.82 939.65 L840.43 939.65 L839.52 939.03 L838.73 938.24 L837.72 937.79 L836.41 938.13 L835.63 938.9 L834.86 939.23 L833.59 938.21 L833.35 937.73 L833.24 937.21 L833.06 936.75 L832.58 936.46 L828.71 936.08 L827.93 936.13 L826.98 936.3 L825.81 935.93 L825.47 934.79 L825.27 933.44 L824.51 932.47 L821.53 930.68 L820.46 930.28 L819.14 930.14 L818.45 930.56 L817.87 931.3 L816.88 932.11 L815.22 932.52 L812.81 932.63 L810.47 932.44 L809 931.95 L806.76 929.47 L806.47 929.23 L803.65 926.93 L802.83 925.83 L800.28 918.43 L800.06 916.29 L797.6 912.02 L787.82 905.97 L786.55 901.3 L786.65 899.5 L786.43 896.88 L785.88 894.44 L784.98 893.15 L784.64 893.2 L783.14 893.77 L780.9 893.97 L778.91 894.62 L778.39 894.64 L777.24 894.47 L776.78 894.54 L776.08 895.3 L776.11 896.32 L776.76 898.58 L776.67 900.01 L776.12 900.83 L775.35 901.58 L774.55 902.75 L774.04 904.87 L773.83 909.26 L772.8 911.33 L770.96 913.12 L768.94 914.29 L766.72 914.77 L764.27 914.51 L762.92 914.52 L762.12 915.19 L761.51 916.11 L760.72 916.9 L759.65 917.14 L758.75 916.72 L757.85 916.02 L756.85 915.43 L754.87 915.01 L750.62 914.72 L748.75 914.1 L747.78 913.36 L746.98 912.56 L746.09 911.86 L744.84 911.48 L742.84 911.53 L740.88 911.86 L740.34 912.09 L739.31 912.8 L738.73 913.05 L738.11 913.02 L737.03 912.5 L735.14 912.62 L734.08 912.11 L733.02 911.43 L731.84 910.97 L722.79 911.1 L722.11 911.01 L721.19 910.58 L720.47 908.91 L719.72 908.36 L718.6 907.93 L715.74 905.59 L715.54 905.33 L715.27 905.15 L714.7 905.05 L714.32 905.15 L713.28 905.64 L712.7 905.71 L709.68 905.69 L708.71 905.51 L706.71 904.34 L705.05 902.83 L703.25 901.68 L700.85 901.59 L700.44 901.94 L700.29 902.48 L700.08 902.98 L699.52 903.16 L698.86 903.25 L698.49 903.57 L698.17 903.93 L697.68 904.19 L696.65 904.23 L695.86 903.87 L695.52 903.14 L695.98 901.8 L696 901.51 L695.98 901.22 L695.89 900.94 L694.97 900.13 L691.97 898.69 L691.51 898.25 L691.26 897.8 L690.92 897.44 L690.23 897.3 L689.56 897.3 L689.12 897.24 L688.75 897.03 L688.32 896.57 L687.83 895.67 L686.41 891.29 L686.26 890.34 L686.27 889.85 L686.48 889.34 L687.2 888.49 L687.27 887.98 L686.88 887.04 L685.69 884.96 L685.29 883.87 L685.24 882.56 L685.68 881.97 L686.29 881.47 L686.73 880.49 L686.46 880.03 L685.88 879.57 L685.59 879.11 L686.2 878.64 L687.29 878.21 L687.7 877.85 L687.73 877.33 L687.62 876.23 L687.68 874.86 L687.57 873.67 L686.93 873.1 L685.28 873.37 L680.31 875.87 L677.18 876.54 L669.68 877.22 L667.67 877.04 L665.47 877.72 L661.58 879.66 L659.54 880.1 L655.59 880.11 L653.57 880.95 L653.01 881.49 L652.05 882.79 L651.53 883.32 L650.98 883.58 L649.8 883.84 L649.33 884.05 L648.88 884.47 L648.56 884.91 L648.35 885.42 L648.18 886.02 L647.84 886.46 L647.28 886.55 L646.67 886.5 L646.16 886.54 L643.97 887.36 L642.85 887.58 L641.64 887.47 L640.59 886.96 L638.81 885.32 L637.64 884.61 L636.67 884.45 L634.48 884.43 L633.64 884.03 L633.19 883.07 L633.87 882.5 L636.05 881.83 L636.71 881.13 L638.39 878.47 L638.79 877.61 L638.99 876.57 L639.08 875.42 L639.02 874.31 L638.74 873.37 L638.38 872.91 L637.49 872.11 L637.19 871.49 L637.23 870.73 L637.62 870.22 L638.06 869.75 L638.24 869.13 L637.65 868.04 L636.33 866.87 L634.81 865.9 L633.63 865.37 L632.65 865.25 L630.71 865.25 L629.67 865.1 L627.73 864.53 L626.85 864.5 L625.8 864.84 L624.74 865 L624.4 864.34 L624.48 862.56 L624.39 861.95 L624.02 860.87 L623.89 860.28 L623.93 859.79 L624.22 858.84 L624.21 858.37 L623.02 857.23 L620.76 856.4 L618.3 855.93 L616.52 855.87 L615.53 856.36 L615.11 857.43 L614.87 858.69 L614.45 859.77 L613.95 860.23 L612.84 860.9 L612.34 861.32 L612.02 861.86 L611.62 863.06 L611.27 863.56 L609.5 864.21 L607.41 863.82 L605.23 863.13 L603.23 862.9 L601.17 863.06 L599.43 862.93 L595 861.69 L591.73 860.78 L589.69 860.6 L587.57 860.73 L585.36 861.36 L581.86 863.32 L576.1 866.53 L571.8 867.26 L566.54 868.16 L564.19 868.16 L562.17 867.86 L561.13 867.41 L559.15 866.09 L558.08 865.52 L556.83 865.47 L555.66 866.06 L554.53 866.88 L553.42 867.52 L551.51 867.86 L549.48 867.66 L547.48 867.09 L545.52 866.3 L541.54 864.67 L539.62 864.95 L537.96 869.23 L536.44 870.54 L531.19 872.32 L530.43 872.86 L528.12 875.34 L527.14 875.95 L525.81 876.02 L526.56 873.84 L526.75 871.59 L526.13 866.87 L525.79 865.86 L524.91 864.29 L524.73 863.37 L524.57 863.11 L523.8 862.55 L523.63 862.28 L523.63 860.24 L522.51 856.51 L522.04 855.68 L522.02 854.8 L522.93 853.63 L524.15 852.54 L525.09 851.85 L527.29 850.94 L528.59 850.55 L529.58 850.39 L530.1 849.94 L530.25 848.92 L530.1 846.88 L530.18 846.71 L530.46 846.38 L529.61 845.01 L529.48 843.13 L529.53 842 L529.57 840.96 L529.39 838.7 L528.89 837.58 L528.24 836.88 L527.72 836.16 L527.6 835.03 L527.96 833.92 L529.14 832 L529.39 831.19 L529.45 830.65 L529.72 829.6 L529.78 828.99 L529.61 828.38 L528.84 827.43 L528.39 825.82 L527.16 823.64 L526.23 821.14 L524.94 818.74 L523.98 816.31 L524.34 814.59 L524.09 813.92 L523.63 811.68 L522.56 808.77 L522.13 806.89 L521.73 805.71 L521.02 804.87 L518.99 803.57 L518.12 802.81 L517.54 802.52 L517.16 802.91 L516.79 803.02 L516.27 802.72 L513.26 799.19 L512.63 797.7 L512.53 795.98 L512.2 796.16 L511.39 796.5 L511.07 796.68 L510.32 794.61 L507 791.11 L505.69 789.02 L505.15 786.8 L504.55 782.14 L503.9 779.97 L503.55 779.43 L502.66 778.35 L502.44 777.76 L502.51 777.09 L503.06 776 L503.39 774.15 L505.01 770.84 L505.56 768.6 L505.58 766.43 L504.94 761.09 L505.69 755.01 L505.57 752.25 L506 748.03 L506.54 746.76 L506.94 745 L507.3 744.63 L507.85 741.26 L508.46 737.37 L509.03 735.77 L509.99 734.07 L509.59 734.04 L509.38 733.94 L509.22 733.83 L508.95 733.73 L510.2 729.66 L510.4 727.32 L509.99 725.05 L508.7 722.99 L508.1 721.65 L508.38 721.03 L508.79 720.81 L509.18 720.59 L508.66 719.61 L507.13 718.11 L506.7 717.16 L506.13 714.63 L506.01 712.37 L505.86 711.48 L505.54 710.76 L504.22 709.23 L503.65 708.29 L503.3 707.23 L503.19 705.94 L502.84 705.33 L501.19 704.39 L500.68 703.97 L500.44 703.02 L500.29 699.42 L500.47 698.91 L501.22 697.86 L501.4 697.25 L501.33 696.63 L501 695.26 L501.31 692.94 L501.61 692.07 L502.19 690.39 L502.6 689.2 L503.27 687.25 L503.88 685.46 L504.25 684.41 L504.49 683.73 L504.58 682.75 L504.76 682.43 L505.52 681.66 L505.69 681.25 L505.69 679.26 L505.56 678.74 L505.39 678.45 L505.27 678.12 L505.3 677.46 L505.48 676.86 L505.96 675.79 L506.05 675.11 L505.93 674.8 L505.42 674.32 L505.3 674.01 L505.36 673.75 L505.64 673.27 L505.69 672.94 L505.56 672.29 L505.26 671.89 L504.89 671.52 L504.58 670.93 L504.69 670.64 L504.95 670.26 L505.08 669.82 L504.8 669.33 L504.5 668.99 L503.32 666.47 L502.99 666.07 L502.58 665.81 L502.24 665.69 L502.05 665.44 L502.07 665.25 L501 665.22 L499.23 665.23 L495.42 665.24 L491.61 665.25 L487.79 665.26 L483.98 665.27 L480.16 665.28 L476.34 665.29 L472.54 665.3 L468.72 665.32 L464.91 665.32 L461.09 665.33 L457.28 665.35 L453.46 665.35 L449.64 665.36 L445.83 665.38 L442.02 665.39 L438.2 665.4 L435.76 665.41 L435.71 662.81 L435.65 660.3 L435.97 657.84 L437.07 654.95 L437.88 652.8 L439.31 649.05 L440.53 645.83 L437.5 645.85 L432.97 645.86 L428.59 645.87 L425.83 645.88 L425.22 645.97 L424.79 646.31 L424.37 647.11 L424.13 647.87 L423.9 649.61 L423.9 650.38 L421.38 650.38 L419.17 650.38 L416.97 650.38 L414.77 650.38 L412.57 650.38 L410.36 650.38 L408.16 650.38 L406.53 650.38 L405.96 650.38 L403.75 650.38 L401.55 650.38 L399.35 650.38 L397.14 650.38 L394.94 650.38 L392.74 650.38 L390.54 650.38 L388.34 650.38 L386.13 650.38 L383.39 650.38 L384.36 652.47 L384.48 653.04 L384.15 653.89 L382.7 655.73 L382.09 656.71 L381.58 658.4 L381.01 666.97 L381.17 668.65 L381.58 670.46 L382.97 673.98 L382.94 675.62 L381.45 676.81 L381.41 676.83 L381.36 676.86 L381.32 676.89 L380.61 677.82 L380.06 679.89 L379.31 680.68 L378.3 680.92 L374.68 680.62 L374.58 682.01 L375 683.42 L375.6 684.84 L376.01 686.21 L376.03 687.49 L375.84 688.88 L374.8 692.13 L374.31 693.72 L373.54 696.14 L373.38 697.8 L373.55 699.16 L374.67 703.27 L373.24 703.27 L366.55 703.27 L359.86 703.27 L353.17 703.27 L346.49 703.27 L344.17 703.27 L343.35 702.01 L343.03 701.36 L342.78 699.87 L342.32 699.58 L338.56 699.58 L334.46 699.58 L330.68 699.58 L330.04 700.03 L329.93 701.05 L330.21 703.04 L329.18 703.07 L328.86 703.02 L325.64 703.07 L324.77 703.2 L323.62 703.82 L322.81 704.05 L322.14 704.01 L320.17 703.25 L317.61 703.16 L313.7 703 L312.85 703.12 L310.71 704.15 L309.9 704.35 L308.95 704.93 L308.46 706.15 L308.4 707.62 L308.74 708.95 L304.04 709.06 L302.64 708.74 L299.96 706.46 L298.42 705.71 L296.67 705.52 L295.82 705.7 L292.56 707.5 L291.91 707.58 L290.13 706.91 L288.56 706.79 L284.11 708.36 L282.63 708.38 L279.69 707.66 L279.29 707.19 L279.27 707.16 L278.86 706.37 L279.47 704.86 L279.29 703.97 L278.86 703.58 L277.71 702.98 L277.17 702.49 L276.9 701.97 L276.42 700.29 L276.18 700.55 L275.86 700.81 L275.71 701.04 L275.55 700.66 L275.43 700.51 L275.46 700.35 L275.71 699.96 L274.58 699.4 L274.11 699.06 L273.92 698.71 L274.19 697.98 L274.68 697.49 L274.88 697.02 L274.27 696.34 L273.51 696.57 L273.34 696.17 L273.36 695.5 L273.21 694.9 L272.7 694.77 L272 694.77 L271.64 694.65 L272.13 694.18 L272.13 693.82 L271.13 693.8 L270.88 693.32 L270.92 692.67 L270.84 692.17 L270.32 691.91 L269.11 691.73 L268.87 691.45 L268.67 690.97 L267.72 690.12 L267.44 689.45 L267.63 688.97 L267.97 688.47 L267.96 688.01 L267.08 687.64 L267.31 687.41 L267.31 687.38 L267.2 687.29 L267.08 686.89 L266.3 687.26 L266.18 686.42 L266.23 685.18 L265.98 684.32 L266.17 683.33 L265.13 682.54 L262.57 681.25 L261.79 680.11 L260.92 677.57 L260.22 676.38 L259.72 675.92 L259.28 675.6 L258.94 675.26 L258.82 674.75 L259.1 674.12 L259.71 673.82 L260.32 673.62 L260.61 673.29 L260.41 672.91 L259.93 672.66 L258.82 672.37 L258.4 672.14 L258.09 671.92 L257.77 672.02 L257.35 672.76 L256.61 672.27 L256.3 671.54 L256.29 670.27 L256.28 669.69 L256.05 668.89 L255.48 668.36 L254.12 667.71 L252.35 666.45 L250.95 666.02 L250.72 665.39 L250.72 664.57 L250.58 663.74 L249.73 662.55 L249.08 661.85 L248.57 661.54 L248.3 661.09 L248.4 658.26 L247.33 654.8 L247.44 653.48 L249.12 653.93 L249.18 652.78 L249.54 651.88 L249.74 651.05 L249.3 650.13 L249.02 649.72 L248.81 649.3 L248.48 648.97 L247.88 648.85 L247.41 648.62 L247.41 648.12 L247.59 647.62 L247.72 647.41 L247.32 644.39 L246.69 643.09 L245.43 642.2 L244.83 642.07 L243.57 641.94 L243 641.74 L242.39 641.18 L242.16 640.47 L242.08 639.7 L241.88 638.92 L238.99 634.87 L238.59 634.01 L238.35 633.06 L238.2 631.11 L237.97 630.18 L237.2 628.41 L237.04 627.56 L237.23 626.64 L237.88 625.54 L237.9 625.03 L237.43 624.43 L236.89 623.93 L236.56 623.44 L236.54 622.84 L236.88 622.08 L235.74 622.03 L235.74 621.51 L236.22 620.78 L236.52 620.09 L236.41 619.4 L236.14 619.33 L235.79 619.41 L235.44 619.19 L235.14 618.71 L235.05 618.51 L235.08 616.47 L235.29 615.95 L235.74 615.78 L236.22 615.74 L236.52 615.55 L236.59 615.03 L236.48 614.51 L236.31 614.02 L236.23 613.57 L236.2 609.71 L236.33 608.84 L236.7 608.17 L236.82 607.47 L236.36 606.68 L235.44 605.64 L235.2 604.93 L234.64 604.58 L233.94 604.36 L233.33 604.03 L232.43 602.81 L231.8 602.33 L230.76 602.23 L231.87 600.94 L231.66 600.41 L231.2 600.48 L230.71 600.72 L230.4 600.76 L230.24 600.16 L230.03 596.85 L229.93 596.36 L229.67 595.81 L229.17 595.14 L229.16 594.81 L229.87 593.97 L230.04 593.53 L228.09 592.56 L227.71 592.35 L225.72 591.54 L224.79 591.32 L223.85 591.29 L222.81 591.44 L221.13 591.94 L220.34 592.05 L219.49 591.91 L218.34 591.32 L217.51 590.65 L216.61 590.1 L215.27 589.83 L212.19 589.88 L207.4 589.96 L204 590.01 L202.62 590.04 L197.84 590.12 L193.06 590.2 L188.26 590.28 L183.48 590.37 L178.7 590.44 L173.91 590.52 L169.13 590.6 L164.34 590.68 L159.56 590.76 L154.78 590.84 L149.99 590.92 L145.2 591 L140.42 591.08 L135.64 591.16 L133.67 591.19 L130.74 591.24 L124.07 592.47 L122.45 592.31 L119.12 591.46 L116.74 591.87 L111.99 591.78 L106.52 591.67 L105.49 591.54 L102.39 590.44 L101.19 590.3 L94.95 590.77 L94.17 590.48 L92.91 589.76 L90.88 589.14 L83.72 589.72 L75.04 590.42 L70.9 589.98 L70.4 590.08 L69.44 590.49 L68.81 590.51 L67.26 590.03 L63.07 589.96 L61.35 589.92 L61 590.16 L59.94 591.31 L59.36 591.73 L57.71 590.85 L55.52 590.3 L51.09 589.92 L51.04 589.93 L51.06 589.91 L50.35 589.58 L49.52 589.7 L47.84 590.25 L47.05 590.27 L46.11 590.15 L44.92 590.25 L43.3 589.97 L40.84 588.83 L40.13 588.68 L38.3 587.96 L37.43 587.72 L35.95 587.72 L33.99 587.98 L32.09 588.52 L30.76 589.34 L30.35 589.55 L29.15 590.39 L28.52 591.26 L27.94 592.24 L26.59 593.87 L26.85 596.4 L24.2 597.5 L20.79 597.39 L18.14 598.84 L13.92 599.88 L12.53 600.23 L11.78 600.18 L11.61 599.31 L11.84 598.9 L12.93 598.21 L12.94 596.95 L12.93 596.53 L12.41 596.25 L11.55 596.19 L10.68 596.36 L10.51 596.77 L10.16 597 L9.75 597.81 L9.14 596.67 L8.86 595.71 L8.69 595.32 L8.42 595.08 L7.78 594.74 L7.58 594.6 L6.48 593.19 L2.94 589.63 L2.03 588.47 L0 585.02 L2.54 583.62 L7.02 582.98 L11.8 583.03 L15.65 583.07 L15.83 578.19 L15.96 574.77 L16.21 568.2 L16.46 561.91 L16.63 557.42 L16.79 553.38 L16.44 551.61 L15.81 551.16 L12.58 550.02 L12.28 549.74 L12.07 549.24 L11.98 548.67 L12 548.22 L12.26 547.71 L12.59 547.61 L12.98 547.66 L13.42 547.61 L17.82 546.09 L19.78 544.83 L20.63 542.84 L20.79 541.77 L21.25 541.42 L23.28 541.26 L24.56 540.83 L24.94 540.22 L25.05 539.39 L25.51 538.27 L26.29 537.62 L28.65 536.25 L29.14 535.61 L29.25 534.39 L29.59 533.21 L30.19 532.1 L31.06 531.12 L32.65 530.22 L42.95 527.81 L44.82 527.13 L45.26 525.62 L45.15 523.85 L46.01 522.69 L47.29 522.55 L48.43 523.89 L48.85 524.68 L49.79 526.05 L50.44 527.77 L50.95 528.29 L52.35 529.19 L54.81 531.34 L55.77 531.96 L58.94 533.11 L59.72 533.53 L60.21 534.01 L60.49 534.65 L60.87 536.48 L61.99 538.78 L62.54 538.33 L63.99 536.57 L66.69 534.58 L67.28 534.27 L67.43 533.87 L67.22 533.42 L66.69 532.96 L68.39 531.97 L68.99 531.88 L69.66 532.18 L70.69 533.26 L71.33 533.55 L71.81 533.39 L72.41 533.2 L73.55 531.09 L74.64 530.38 L75.15 530.41 L76.35 530.74 L76.81 530.7 L77.09 530.33 L76.94 529.36 L77.16 528.78 L77.59 528.56 L78.02 528.68 L78.41 528.73 L78.76 528.27 L78.06 526.01 L78.24 524.86 L79.06 522.73 L79.25 521.71 L78.68 516.64 L78.89 516.03 L79.5 515.7 L82.82 514.54 L83.9 514.65 L85.07 515.41 L85.56 516.05 L86.29 517.43 L86.87 517.94 L87.35 518.07 L88.82 517.97 L88.88 517.98 L90.41 518.42 L90.93 518.4 L91.47 518.08 L92.36 517.01 L93.19 516.41 L93.31 516.29 L93.4 516.14 L94.94 514.05 L96.9 513.27 L101.51 512.71 L103.52 512.06 L105.49 511.13 L107.45 509.4 L108.52 508.66 L110.9 508.08 L113.16 506.85 L114.13 506.78 L114.44 507.03 L114.57 507.44 L114.56 508 L114.47 508.68 L114.24 509.43 L114.06 509.72 L114.08 510 L114.43 510.76 L115.29 512.06 L116.31 513.27 L118.13 514.43 L118.47 514.79 L118.3 515.77 L117.56 516.82 L116.69 517.8 L116.1 518.63 L115.47 519.27 L113.49 520.09 L112.66 520.85 L112.23 521.61 L112.19 522.02 L112.58 523.19 L113.02 525.2 L113.81 526.19 L114.59 526.93 L115.17 527.76 L115.39 529.08 L115.29 529.58 L114.89 530.51 L114.76 531 L114.79 531.62 L115.01 532.12 L115.27 532.59 L115.47 533.14 L114.63 537.23 L114.85 538.83 L115.76 538.66 L116.77 538.51 L117.41 538.18 L118.49 537.03 L119.11 536.7 L120.13 536.43 L121.1 536.46 L121.53 537.03 L121.76 537.24 L122.88 537.19 L123.31 537.23 L123.56 537.47 L123.99 538.16 L124.23 538.3 L124.89 538.53 L126.52 539.52 L127.11 539.74 L129.11 539.55 L130.66 539 L134.13 536.83 L136.6 535.76 L137.42 535.08 L137.96 534.3 L138.36 533.43 L142.66 526.23 L146.71 522.24 L147.04 521.56 L147.47 520.98 L150.27 519.56 L151.41 518.5 L154.18 514.57 L156.14 511.78 L156.42 511.07 L156.97 510.04 L158.25 509.29 L159.69 508.67 L160.71 508 L166.55 505.06 L168.59 504.31 L169.89 503.63 L170.34 503.45 L170.55 503.1 L171.71 501.88 L171.99 501.42 L173.6 496.25 L174.27 495.26 L175.07 494.64 L176 494.21 L183.57 491.8 L185.87 491.46 L188.23 491.1 L190.55 490.4 L192.58 489.34 L192.84 489.09 L194.11 487.87 L195.06 484.78 L195.36 484.25 L195.73 483.84 L197.36 480.99 L198.25 478.49 L198.99 477.75 L199.38 476.56 L201.51 472.24 L204.77 468.26 L205.94 465.97 L207.02 463.17 L209.61 458.68 L210.29 457.1 L210.54 456.13 L210.64 454.9 L210.36 454.33 L209.75 453.91 L209.13 453.3 L208.85 452.19 L209.17 449.9 L209.16 448.7 L208.67 447.71 L208.45 446.84 L208.67 444 L208.39 441.05 L208.59 438.44 L208.36 436.55 L208 433.5 L208.06 432.75 L208.2 432.02 L209.44 428.27 L210.54 420.52 L208.8 407.92 L208.77 405.39 L208.67 404.9 L208.54 404.62 L208.06 403.9 L207.88 403.09 L207.99 402.24 L208.67 399.88 L208.68 399.54 L208.6 399.13 L208.54 397.92 L208.92 396.74 L209.56 395.63 L210.84 393.96 L212.14 392.79 L213.63 391.78 L216.55 388.98 L218.78 387.3 L222.08 384.06 L222.89 383.03 L223.36 382.6 L223.61 382.47 L224.42 382.13 L225.34 381.43 L225.67 381.28 L225.83 380.56 L226.12 379.93 L226.24 379.76 L230.4 374.28 L231.08 372.95 L231.39 371.4 L231.36 369.62 L231.43 369.02 L231.69 368.15 L232.08 367.29 L233.11 365.69 L233.82 364.59 L235.03 362.16 L236.76 359.9 L238.71 356.02 L239.58 354.78 L240.39 352.85 L241.6 350.68 L242.17 349.22 L242.41 348.84 L242.75 348.5 L243.95 347.78 L246.39 345.8 L248.03 343.89 L250.08 342.08 L251.32 340.65 L251.46 340.33 L251.78 340.2 L252.34 339.82 L252.66 339.68 L254.32 339.41 L256.85 338.7 L260.35 337.26 L261.37 336.98 L264.02 336.61 L266.76 335.83 L267.3 335.51 L268.33 334.29 L268.48 334.02 L269.89 333.34 L270.29 333.01 L271.36 331.71 L272.73 330.45 L279.78 321.96 L282.73 318.4 L283.82 317.59 L284.5 316.82 L285.11 316.37 L285.29 316.18 L285.37 315.96 L285.47 315.19 L285.69 314.79 L285.98 314.42 L289.33 311.29 L290.06 310.26 L290.46 309.74 L290 300.44 L288.71 295.2 L288.58 293.87 L288.72 292.55 L290.85 282.78 L291.81 280.9 L295.94 269.65 L300.44 263.34 L300.73 262.5 L301.07 257.41 L300.97 256.51 L300.64 255.5 L300.08 254.65 L299.31 254.22 L298.31 251.7 L297.99 250.42 L297.96 248.94 L298.74 244.89 L298.75 243.46 L297.19 236.77 L297.21 232.62 L296.6 228.97 L296.95 227.77 L297.95 225.79 L299.12 224.5 L301.3 220.84 L301.67 219.8 L301.86 216.54 L303.7 210.66 L303.94 208.74 L304.23 207.71 L307.33 200.92 L307.45 199.83 L307.06 184.79 L307.17 183.88 L307.7 182.15 L307.87 181.24 L307.88 180.41 L307.58 177.99 L307.83 172.97 L307.7 171.36 L307.39 169.77 L307.39 168.99 L309.42 163.47 L309.81 162.85 L311.07 161.35 L311.29 160.81 L312.18 160.54 L312.72 159.75 L313.45 157.92 L314.03 156.97 L314.49 155.98 L314.82 154.95 L315.4 151.86 L315.81 151.01 L316.5 150.16 L319.51 147.34 L320.04 147.16 L320.2 146.72 L324.21 139.93 L325.53 136.36 L325.71 134.94 L325.89 134.24 L327.15 131.57 L328.1 130.21 L328.33 129.67 L328.54 128.51 L328.74 127.98 L329.57 126.68 L331.3 121.5 L331.98 120.55 L333.07 119.81 L334.92 118.88 L335.74 118.17 L336.09 117.3 L336.2 116.67 L336.69 115.5 L337.28 107.89 L336.87 101.3 Z M36.43 590.61 L37.93 590.84 L38.97 590.73 L39.96 590.55 L41.11 590.55 L39.79 591.59 L38.28 592.06 L35.34 592.64 L34.59 593.16 L32.97 593.68 L31.3 595.07 L30.03 595.42 L28.87 595.3 L28.03 594.34 L29.1 593.28 L30.66 592.07 L32.39 590.74 L33.77 590.56 Z "/>
</g>
</svg>
