<svg xmlns="http://www.w3.org/2000/svg" viewBox="0 0 1000 810.37">
<g fill="#ccc" stroke="#333" stroke-width="0.5" stroke-linejoin="round">
<path fill-rule="evenodd" d="M80.31 729.94 L81.45 725.7 L80.4 724.02 L82.3 717.21 L81.1 710.94 L78.84 704.85 L77.5 698.58 L78.04 690.58 L79.7 683.95 L81.74 677.86 L83.3 671.4 L68.23 668.69 L66.55 668.87 L66.02 670.93 L65.66 680.52 L64.77 681.76 L63.39 682.03 L61.58 684.09 L59.63 686.86 L57.44 688.14 L55.25 687.64 L53.31 684.92 L51.69 678.77 L51.89 672.84 L52.78 666.84 L53.31 660.4 L55.96 655.53 L61.85 654.64 L67.82 656.4 L70.81 659.55 L68.91 660.05 L67.38 661.34 L64.91 664.62 L65.35 667.39 L73.79 668.63 L81.51 670.48 L84.37 669.32 L84.05 664.61 L81.45 656.16 L79.62 645.51 L78.56 634.88 L78.84 632.02 L80.11 628.52 L80.4 626.37 L80.15 623.19 L78.56 616.95 L77.28 605.69 L76.24 600.36 L74.2 595.58 L70.64 592.74 L65.56 591.49 L56.11 591.23 L49.3 589.08 L43.52 583.65 L30.66 564.37 L30.78 562.59 L33.77 562.03 L33.77 560.46 L31.05 559.35 L27.8 559.07 L24.63 559.9 L22.17 562.03 L20.55 565.56 L20.98 567.91 L25.18 572.44 L23.87 572.75 L23 573.35 L21.21 575.86 L24.48 576.46 L28.33 578.97 L31.56 582.71 L32.9 587.03 L31.08 587.74 L14.11 573.57 L10.65 571.53 L2.35 569.99 L0.17 567.78 L0 564.06 L7.97 542.66 L10.64 532.93 L12.42 522.59 L12.66 512.38 L5.89 462.78 L5.2 460.22 L4.79 459.69 L4.65 458.49 L4.79 457.31 L5.2 456.78 L6.05 457.06 L6.43 457.71 L6.68 458.36 L7.09 458.65 L8.01 459.99 L11.54 479.4 L14.08 486.09 L14.45 488.88 L14.11 491.3 L12.73 494.76 L12.42 497.57 L12.9 501.03 L14.11 501.74 L20.48 498.15 L27.25 492.75 L30.44 491.61 L35.97 487.23 L41.62 481.28 L42.41 477.16 L41.5 472.78 L39.52 468.5 L37.26 464.64 L31.95 457.71 L31.95 449.86 L30.34 440.76 L26.69 434.93 L21.78 431.39 L10.85 426.37 L7.89 425.97 L6.61 428.11 L6.75 438.96 L6.5 444.1 L5.64 449.86 L6.16 454.08 L5.78 455.7 L3.7 455.04 L3.11 453.7 L2.5 451.06 L1.97 448.01 L1.33 429.6 L1.76 423.86 L5.19 407.96 L5.64 401.97 L4.02 313.38 L4.62 309.07 L5.64 304.64 L12 282.38 L14.88 275.46 L16.99 272.12 L17.85 272.8 L18.42 275.06 L19.72 276.34 L19.61 278.17 L16.43 286.53 L15.33 288.83 L15.33 290.59 L16.2 291.47 L17.16 291.94 L19.72 292.19 L20.2 293.29 L20.76 295.78 L21.51 298.26 L22.66 299.37 L28.47 300.43 L30.03 301.51 L27.99 302.74 L28.51 305.11 L28.12 309.26 L28.95 311.67 L30.23 312.69 L31.34 312.04 L31.75 310.3 L30.89 308.16 L30.89 306.4 L35.35 304.92 L42.24 304.73 L48.53 306.03 L51.28 309.04 L52.59 309.46 L59.6 315.18 L61.57 314.28 L63.39 312.05 L64.91 309.17 L65.97 306.4 L66.85 306.4 L71.14 318.48 L71.25 320.45 L70.71 321.53 L70.93 323.96 L71.85 326.36 L74.17 328.24 L76.94 331.85 L78.56 332.88 L80.98 332.84 L89.63 330.96 L90.57 330.49 L91.33 329.2 L91.82 327.23 L92.02 324.84 L92.05 321.08 L92.24 318.54 L93.07 313.27 L93.68 311.8 L94.43 311.2 L94.73 310.36 L94.03 308.16 L89.63 304.64 L88.21 304.5 L87.14 303.89 L86.5 302.57 L86.29 300.34 L85.65 298.05 L83.24 296.75 L83.3 294.11 L85.18 292.38 L91.66 291.94 L100.81 276.34 L102.94 275.07 L108.76 273.24 L116.58 272.9 L116.86 272.33 L113.47 271.05 L107.28 270.84 L105.82 269.4 L107.14 264.79 L109.21 260.75 L110.9 258.56 L115.4 255.17 L122.1 248.56 L124.73 247.94 L126.28 248.25 L128.9 249.57 L130.49 249.89 L132.15 249.42 L133.01 248.35 L133.7 247.12 L134.83 246.17 L137.33 246.07 L140.58 247.15 L143.39 249.3 L144.6 252.43 L145.44 258.48 L147.43 262.07 L149.71 264.6 L151.45 267.52 L153.32 272.96 L149.38 273.95 L145.21 280.64 L141.62 281.62 L141.62 283.54 L142.19 285.89 L140.66 288.17 L136.78 292.19 L135.46 295.84 L135.3 299.1 L135.88 307.28 L136.96 309.76 L139.29 309.34 L141.62 306.59 L143.51 298.17 L145.6 297.59 L148.16 298.1 L150.4 297.61 L149.51 295.15 L148.37 294.24 L147.01 294.55 L145.57 295.7 L146.64 292.9 L147.75 290.88 L148.74 288.66 L149.43 285.15 L150.4 285.15 L149.55 290.94 L153.25 291.82 L158.3 290.94 L161.48 291.38 L163.41 292.7 L165.57 292.26 L167.51 292.46 L168.81 295.7 L168.39 298.23 L165.14 303.02 L163.85 306.4 L165.39 307.03 L165.69 308.16 L165.78 309.72 L166.75 311.67 L168.14 313.08 L171.69 315.18 L172.27 316.24 L172.61 317.63 L173.21 318.73 L174.59 318.86 L176.64 314.56 L177.5 313.27 L179.51 315.16 L181.24 313.11 L181.19 309.85 L178.02 308.16 L173.63 310.79 L173.35 311.58 L172.7 311.81 L171.2 311.67 L169.99 310.97 L169.91 309.49 L170.34 308.25 L170.72 308.16 L170.97 298.6 L173.3 290.36 L174.57 283.06 L174.56 283.01 L171.69 276.34 L170.3 274.77 L169.57 274.18 L166.75 274.57 L161.06 277.21 L159.65 279.23 L156.58 281.21 L153.58 281.4 L152.34 278.09 L153.93 274.98 L160.46 270.97 L161.93 266.63 L162.74 263.02 L162.45 261.23 L158.91 259.97 L157.46 258.68 L156.23 256.97 L155.26 255.17 L154.51 253.46 L153.7 250.84 L153.17 247.76 L153.32 244.56 L154.05 243.7 L157.3 238.55 L157.67 237.33 L158.34 235.99 L158.22 232.98 L157.55 230.01 L156.65 228.65 L154.99 228.3 L153.73 227.41 L151.45 224.94 L154.09 218.46 L156.74 213.31 L159.62 209.12 L164.01 204.57 L165 203.98 L166.06 203.62 L167.3 203.51 L168.04 202.69 L168.83 199 L169.29 198.18 L190.3 191.08 L194.98 191.23 L211.52 198.18 L211.52 200.11 L209.71 201.33 L209.58 202.94 L210.68 204.46 L212.58 205.45 L214.52 205.27 L215.9 203.92 L221.07 195.67 L223.41 190.97 L226 187.25 L231.56 185.18 L236.24 182.18 L243.02 183.96 L258.14 182.18 L249.75 174.33 L245.51 172.72 L242.64 170.28 L241.12 169.71 L239.98 170.35 L234.99 177.17 L232.27 180.04 L229.25 181.48 L226.6 179.42 L224.04 176.81 L221.34 177.55 L216.38 182.18 L210.68 184.6 L198.37 184.79 L165.95 196.55 L163.14 196.82 L160.46 195.6 L144.6 182.18 L145.5 185.61 L144.36 187.37 L139.69 189.3 L136.23 191.93 L134.42 192.82 L132.02 192.86 L132.91 191.23 L130.36 189.58 L127.92 190.13 L125.49 192.1 L123.15 194.78 L120.86 194.52 L117.95 197.39 L115.49 200.51 L114.44 201 L113.23 197.52 L110.41 196.18 L107.18 196.53 L104.76 198.18 L106.84 200.43 L101.69 205.27 L94.66 209.01 L89.61 207.51 L86.29 208.24 L82.97 209.77 L81.45 211.65 L80.67 216.68 L78.77 219.75 L76.53 222.07 L74.69 224.94 L73.88 232.33 L73.72 232.92 L73.48 235.17 L72.82 236.46 L71.89 237.54 L67.39 244.56 L64.19 244.84 L62.67 245.57 L62.03 247.05 L60.97 248.1 L58.64 249.04 L56.31 250.81 L55.25 254.2 L56.46 262.96 L56.32 267.06 L54.19 269.45 L54.19 271.05 L59.85 270.47 L61.15 271.05 L62.21 274.19 L61.36 276.38 L59.51 277.68 L57.67 278.09 L56.01 277.56 L52.69 275.13 L50.85 274.57 L49.16 275.07 L46.32 277.4 L44.52 278.09 L44.52 280.01 L51.28 278.09 L53.31 278.75 L56.28 281.11 L57.67 281.62 L67.67 277.24 L69.75 278.09 L70.14 279.98 L69.75 284.89 L69.75 287.07 L71.89 290.48 L72.84 292.95 L70.74 296.73 L69.29 298.54 L67.39 299.37 L65.38 299.69 L64.14 300.5 L64.19 301.59 L65.97 302.74 L63.1 302.81 L59.16 299.14 L55.68 294.43 L54.19 291.38 L52.89 287.54 L49.71 284.44 L45.73 282.38 L42.1 281.62 L39.59 280.27 L36.59 276.99 L33.8 273 L31.95 269.45 L30.37 260.14 L29.47 258.7 L27.55 258.03 L23.56 255.36 L21.21 255.17 L23.25 264.7 L23.97 270.28 L23.63 273.78 L21.52 274.13 L20.44 268.7 L20.15 256.78 L21.81 246.1 L24.99 238.13 L50.4 196.4 L58.04 188.41 L69.75 169.71 L74.25 165.41 L79.32 165.51 L91.13 169.71 L97.76 170.13 L110.57 167.18 L116.27 164.22 L123.07 156.61 L125.61 155.44 L161.06 160.65 L173.94 159.1 L186.77 154.3 L198.91 146.04 L209.6 134.03 L240.09 77.19 L245.48 69.12 L255.24 58.14 L260.13 48.66 L262.01 47.33 L265.39 42.34 L272.25 40.95 L285.33 41.92 L298.07 39.73 L309.68 34.53 L319.75 27.09 L337.02 9.07 L346.46 1.94 L350.28 0.45 L354.53 0 L358.63 0.97 L362.02 3.76 L354.3 6.71 L346.94 13.86 L335.32 31.97 L331.06 47.84 L335.02 59.75 L342.19 70.68 L347.52 83.52 L343.39 95.09 L343.46 108.78 L346.46 135.65 L344.03 139.57 L336.79 144.96 L333.38 149.21 L328.37 159.78 L326.11 166.88 L324.49 178.11 L320.97 190.64 L319.27 194.78 L318.07 196.59 L316.91 197.61 L315.37 198.08 L308.68 197.99 L306.63 198.52 L304.04 199.3 L292.18 191.23 L283.39 181.68 L277.55 179.27 L272.82 174.39 L269.31 173.28 L266.45 174.9 L262.44 181.5 L259.72 182.18 L262.35 182.51 L265.33 178.63 L267.82 176.85 L270.35 175.58 L273.28 176.83 L287.25 191.68 L291.89 193.98 L297.33 198.98 L300.45 200.11 L311.89 200.4 L314.53 201.89 L310.55 206.87 L309.68 209 L309 212.44 L308.23 219.51 L307.75 221.42 L308.77 225.66 L310.32 238.89 L310.93 249.3 L311.93 254.79 L315.41 265.75 L316.61 267.47 L318 268.99 L318.33 270.69 L316.38 272.96 L315.23 273.04 L311.9 271.48 L310.11 271.05 L303.73 271.05 L301.51 272.04 L298.96 274.57 L296.57 272.01 L293.9 270 L290.83 269.4 L287.25 271.05 L284.09 273.59 L282.77 274.12 L280.49 274.57 L278.34 275.63 L273.97 279.23 L268.78 281.12 L262.36 285.96 L242.57 288.83 L242.57 290.59 L249.01 291.74 L270.28 285.15 L275.02 282.18 L277.1 281.62 L277.57 281.06 L277.65 279.86 L277.93 278.65 L278.98 278.09 L280.13 278.4 L282.02 279.72 L282.91 280.01 L284.43 279.64 L286.17 278.6 L287.61 277.15 L288.22 275.46 L289.17 271.97 L291.41 271.45 L296.05 272.96 L295.7 273.9 L294.98 276.34 L297.45 276.82 L304.36 278.17 L310.25 277.81 L314.04 275.46 L317.43 274.18 L320.06 279.86 L320.75 288.39 L318.3 295.7 L308.75 303.08 L301.71 311.08 L300.45 311.67 L299.44 320.03 L298.96 322.37 L300.03 325.28 L299.37 328.97 L297.77 332.38 L296.05 334.46 L300.41 334.23 L302.04 332.88 L301.86 323.15 L302.31 316.1 L303.74 312.68 L309.68 308.16 L314.38 301.81 L316.88 300.12 L319.8 302 L320.3 303.63 L321.06 309.15 L321.2 310.79 L321.83 311.64 L326.02 315.18 L336.65 321.28 L348.22 322.65 L381.88 317.31 L386.58 317.85 L391.22 320.45 L393.33 322.87 L397.9 330.96 L406.68 339.88 L406.68 341.48 L403.4 344.73 L401.63 350.63 L400.93 357.44 L400.8 363.48 L399.25 369.16 L386.2 387.83 L379.6 392.41 L377.11 395.89 L376.34 399.28 L376.71 407.19 L374.73 414.94 L370.26 415.87 L365.32 412.23 L362.02 406.32 L365.67 405.7 L367.17 404.32 L367.9 401.1 L367.51 397.7 L366.08 396.66 L364.24 396.33 L362.54 395.02 L359.14 393.8 L355.62 398.01 L352.43 403.57 L347.89 408.91 L348.88 414.84 L350.75 421.31 L351.37 425.6 L349.98 427.38 L347.72 428.48 L345.31 428.76 L343.55 428.11 L342.12 426 L340.71 421.13 L339.68 418.65 L340.81 417.43 L343.2 415.69 L344.52 415.17 L343.5 412.33 L342.26 410.97 L336.4 409.2 L335.11 409.45 L331.95 411.53 L327.98 412.31 L325.54 410.32 L323.38 406.76 L320.33 402.84 L323.49 402.52 L328.22 398.65 L330.89 397.64 L332.9 399.13 L335.35 401.78 L337.77 402.77 L339.68 399.21 L337.28 395.15 L337.44 391.97 L341.59 383.53 L339.68 383.56 L337.63 382.73 L335.77 381.22 L334.35 379.26 L332.79 378.2 L329.12 379.93 L327.18 378.31 L326.65 381.73 L325.87 383.86 L324.63 384.97 L322.66 385.28 L321.62 386.65 L317.81 395.02 L314.35 399.5 L306.7 405.85 L303.26 410.66 L301.28 416.63 L302.22 420.35 L304.56 423.83 L306.78 429.05 L307.71 435.48 L307.12 440.37 L305.38 444.81 L302.82 449.86 L306.22 448.19 L308.71 447.88 L309.39 449.67 L305.84 457.66 L305.5 460.9 L305.73 467.29 L305.6 471.71 L305.39 473.66 L304.84 475.79 L301.44 480.26 L300.9 482.05 L300.2 482.04 L298.67 483.05 L297.02 484.61 L296.05 486.12 L296.76 486.77 L297.78 489.25 L298.32 491.92 L297.08 493.75 L296.62 494.99 L295.88 496.23 L294.54 496.78 L292.8 496.32 L291.47 495.11 L289.27 491.61 L288.64 489.97 L288.22 488.1 L287.61 486.23 L286.3 484.57 L284.5 483.93 L270.73 484.57 L268.9 485.21 L267.76 486.71 L266.87 488.43 L265.89 489.73 L262.21 491.21 L254.74 490.75 L251.29 491.61 L254.85 495.58 L275.12 500.08 L276.55 501.21 L276.05 503.86 L273.71 509 L272.53 513.4 L272.88 515.34 L274.85 515.8 L278.55 515.7 L278.55 517.45 L272.74 520.77 L271.04 523.6 L272.66 527.75 L272.13 528.18 L270.81 529.62 L267.48 527.53 L251.91 532.1 L244.82 535.94 L240.63 536.32 L231.95 532.88 L226.95 528.44 L225.65 527.75 L210.99 527.66 L207.67 526.03 L207.22 526.99 L206.95 527.68 L206.8 528.44 L206.7 529.62 L209.65 531.04 L219.84 531.18 L221.69 532.32 L229.02 539.92 L230.53 542.9 L231.56 545.6 L232.99 547.56 L235.8 548.32 L249.35 548.32 L247.03 551.19 L239.68 557.03 L235.73 562.13 L233.82 563.45 L230.52 563.89 L229.32 564.97 L229.07 567.31 L229.02 569.66 L228.54 570.73 L219.61 572.98 L216.38 575.32 L214.42 575.86 L212.72 575.46 L209.53 574.08 L207.67 574.15 L208.03 575.18 L208.63 575.86 L206.58 578.78 L201.34 580.51 L198.95 582.7 L201.44 584.28 L204.1 584.1 L211.08 582.27 L212.37 581.49 L213.73 581.11 L221.92 585.57 L222.5 588.39 L221.88 591.8 L220.33 594.79 L218.39 596.12 L213.59 597.1 L211.52 598.2 L212.27 600.97 L214.01 604.75 L214.52 606.73 L214.12 609.53 L213.29 611.69 L213.51 613.55 L216.38 615.38 L218.14 617.02 L219.81 619.33 L220.24 621.77 L218.3 623.74 L218.3 625.59 L219.75 627.24 L225 636.28 L226.74 637.03 L228.42 638.65 L229.02 642.73 L228.49 645.63 L227.49 647.42 L226.55 649.61 L226.12 653.61 L225.35 655.43 L223.53 656.7 L221.3 657.45 L219.36 657.7 L211.03 656.16 L209.12 656.68 L207.94 658 L207.01 659.65 L205.73 661.24 L202.32 663.41 L200.24 664.27 L198.43 664.62 L197.29 665.69 L197.29 667.88 L198.46 669.69 L200.91 669.69 L200.91 671.4 L196.73 671.25 L194.8 671.75 L193.07 673.25 L194.5 674.32 L196.27 674.74 L200.37 674.78 L202.25 675.69 L204.3 677.92 L207.67 683.24 L204 688.08 L201.58 690.38 L198.95 691.83 L192.48 693.15 L189.92 695.08 L191.13 698.58 L192.88 698.63 L200.91 695.37 L204.52 695.61 L205.73 695.37 L206.77 694.57 L207.76 693.38 L208.93 692.3 L210.55 691.83 L213.62 693.14 L219.32 699.48 L222.26 701.96 L230.05 704.07 L231.95 705.49 L233.03 709.08 L236.17 727.81 L236.52 728.92 L236.29 729.67 L234.93 730.75 L232.82 730.81 L230.82 729.61 L229.18 729.38 L228.05 732.44 L229.83 733.03 L231.51 734.09 L232.92 735.55 L233.86 737.34 L234.41 739.41 L234.68 742.27 L234.07 744.79 L231.99 745.89 L230.34 744.83 L228.32 740.22 L227.08 739.16 L221.19 739.6 L219.36 739.16 L216.69 737.58 L216.89 736.6 L218.04 735.65 L218.3 734.12 L215.8 730.45 L214.86 728.24 L215.88 727.23 L219.66 725.76 L218.9 722.93 L215.52 720.97 L211.52 722.2 L210.73 723.66 L208.87 728.68 L207.27 731.41 L206.39 733.29 L205.73 734.12 L204.66 734.47 L202.36 734.13 L201.37 734.96 L198.95 737.82 L193.04 742.87 L191.13 745.89 L190.2 751.07 L190.37 751.08 L190.29 751.15 L188.19 751.86 L185.79 751.58 L182.93 748.87 L180.37 749.46 L178.82 750.86 L176.8 751.42 L175.42 752.85 L173.3 753.25 L162.96 753.21 L160.45 752.19 L159.41 749.27 L158.99 745.84 L158.35 743.36 L155.97 741.25 L125.92 734.12 L114.79 729.54 L103.47 727.58 L100.16 728.09 L90.51 731.73 L85.28 731.5 Z M531.53 770.36 L529.92 772.17 L528.46 772.77 L527.21 773.61 L526.11 776.23 L531.71 778.73 L531.16 784.02 L526.64 789.2 L520.32 791.29 L498.28 786.43 L491.13 788.09 L484.35 791.29 L478.98 796.29 L475.79 795.74 L462.6 787.86 L453.95 780.26 L438.37 770.28 L431.35 768.73 L423.76 765.16 L416.09 763.31 L413.08 760.61 L411.65 756.89 L412.58 752.74 L416.13 750.65 L420.45 751.35 L424.48 751.03 L427.09 745.89 L424.8 745.03 L422.87 743.53 L415.34 734.09 L414.43 732.44 L414.43 728.2 L416.36 724.28 L422.25 717.15 L424.26 718.14 L444.6 713.93 L448.05 715.57 L454.77 721.03 L457.26 722.2 L459.78 724.31 L464.04 733.69 L467.42 735.8 L470.82 736.59 L496.04 750.91 L494.68 746.63 L493.04 743.97 L492.93 741.84 L496.04 739.16 L499.91 739.16 L503.35 737.56 L504.76 737.34 L503.48 734.66 L503.13 731.59 L503.35 728.47 L503.79 725.7 L514.6 735.59 L515.48 739.16 L518.84 743.53 L520.97 745.21 L523.32 745.89 L521.89 747.25 L521.29 747.57 L523.37 751.95 L530.47 757.87 L532.02 760.23 L532.4 764.25 L532.99 766.06 L532.99 767.5 Z M333.86 729.08 L336.19 731.35 L338.89 733.05 L340.81 735.29 L340.74 739.16 L342.07 740.13 L343.55 740.85 L332.43 743.44 L329.39 746.8 L327.64 747.57 L324.41 746.08 L300.03 719.33 L297.72 713.78 L296.88 709.92 L298.96 712.24 L310.99 718.99 L314.53 722.2 L317.86 727.57 L319.61 729.84 L321.69 730.75 L323.83 730.74 L325.53 730.15 L326.16 728.18 L325.17 724.02 L327.19 726.96 L328.91 734.33 L330.44 735.8 L333.38 735.83 L335.39 735.31 L335.77 733.35 Z M612.57 696.89 L624.98 699.47 L629.64 703.77 L631.92 712.24 L631.65 714.93 L630.35 716.42 L628.03 717.03 L624.7 717.15 L607.96 713.47 L602.83 714.23 L597.95 716.49 L593.14 720.51 L585.6 730.84 L582.9 732.44 L578.79 731.75 L569.76 727.23 L569.76 725.7 L571.76 725.7 L571.13 723.18 L571.73 721.23 L573.04 719.85 L574.59 718.97 L573.87 718.23 L572.53 716.31 L571.76 715.61 L574.91 712.04 L576.76 711.11 L578.54 712.24 L579.58 710.4 L578.54 707.02 L580.83 707.24 L584.25 709.63 L586.36 710.4 L587.78 710.13 L592.39 708.2 L594.11 707.02 L593.35 704.58 L593.32 702.59 L593.94 701.11 L595.15 700.27 L595.15 698.58 L590.53 695.26 L589.27 693.52 L588.54 691.04 L589.03 689.34 L590.58 688.47 L593.14 688.47 L596.22 693.96 L600.97 696.14 Z M271.69 710.4 L273.74 714.29 L279.3 731.29 L279.21 733.71 L277.22 734.24 L273.19 734.12 L271.08 735.23 L268.31 737.43 L265.54 739 L263.5 738.24 L261.17 736.2 L254.64 734.13 L252.26 732.44 L252.26 730.75 L256.03 728.86 L260.48 730.8 L264.95 733.97 L268.87 735.8 L268.87 734.12 L262.09 728.14 L255.66 725.83 L254.19 725.7 L252.78 726.24 L250.74 728.28 L249.35 729.08 L243.82 728.77 L239.03 724.89 L236.24 718.41 L236.69 710.4 L235.8 710.4 L235.8 708.86 L238.94 711.06 L242.31 714.93 L245.62 717.82 L248.46 717.15 L247.86 716.28 L246.93 714.59 L246.38 712.96 L246.93 712.24 L247.7 711.7 L246.72 710.49 L240.84 706.29 L239.86 704.32 L241.6 701.96 L241.6 700.27 L230.47 701.33 L228.54 701.11 L227.13 700.03 L225.41 699.78 L223.9 699.15 L223.14 696.89 L223.65 695.79 L226.32 693.78 L227.08 691.83 L224.48 691.95 L222.13 692.86 L219.84 693.27 L217.42 691.83 L217.42 690.01 L229.92 684.03 L234.93 683.24 L240.81 684.39 L249.25 694.45 L253.74 696.89 L260.02 697.89 L264.54 700.64 L268.17 704.91 Z M391.22 693.52 L392.21 686.53 L396.96 674.29 L402.45 664.84 L405.63 666.31 L398.87 696.89 L396.17 705 L388.78 719.85 L375.08 765.34 L373.69 768.37 L371.74 769.42 L368.39 769.54 L366.69 767.2 L363.08 752.74 L361.54 750.05 L359.64 747.88 L355.24 744.22 L358.68 743.98 L360.88 743.02 L362.67 740.94 L364.91 737.34 L366.22 733.21 L367.05 732.03 L368.39 733.28 L369.1 733.67 L372.72 732.44 L372.4 730 L371.78 727.23 L370.53 728.3 L369.31 728.65 L368.11 728.3 L366.84 727.23 L368.84 721.3 L371.85 716.91 L379.76 707.68 L383.17 705.21 Z M1000 671.4 L999.33 672.63 L999.03 673.47 L998.72 674.14 L998.06 674.78 L999.1 678.41 L999.48 680.71 L999.05 682.82 L997.58 685.85 L994.53 690.85 L993.66 693.32 L994.19 695.37 L994.19 696.89 L994.6 699.84 L992.34 702.43 L990.83 704.55 L988.85 706.42 L981.9 704.52 L976.12 704.11 L968.24 700.97 L958.52 694.91 L947.5 691.72 L935.98 682.3 L933.8 679.29 L935.62 674.01 L936.24 663.59 L936.85 648.46 L937.35 645.93 L938.53 643.21 L941.29 638.26 L942.44 634.56 L943.43 630.27 L944.67 627.66 L946.61 629 L952.33 637.33 L954.31 639.49 L957.5 642.85 L962.82 646.57 L968.18 650.9 L972.08 650.04 L974.78 650.82 L977.1 655.81 L978.62 657.7 L980.37 658.84 L990.53 666.1 L997.2 668.36 Z M54.19 618.65 L50.68 620.07 L46.94 616.13 L43.69 610.03 L39.24 598.2 L38.3 592.8 L39.73 589.24 L44.52 587.96 L45.05 595.38 L47.4 596.67 L50.29 596.17 L52.34 598.2 L52.29 601.12 L50.47 606.7 L50.85 609.19 L51.93 611.93 L52.92 616.59 Z M364.48 688.47 L358.13 688.47 L355.76 688.89 L353.12 690.14 L350.68 692.03 L348.91 694.45 L346.34 697.01 L343.31 696.62 L337.74 693.52 L328.26 692.75 L325.17 691.83 L323.8 690.88 L322.69 689.77 L321.44 688.85 L319.8 688.47 L316.26 688.81 L314.39 688.62 L303.26 681.55 L299.15 681.18 L298.07 683.07 L297.99 688.47 L295.85 686.84 L292.51 682.93 L290.16 681.55 L287.25 681.49 L281.9 682.85 L279.41 681.55 L290.28 673.23 L292.18 669.69 L289.72 666.17 L287.95 662.11 L286.08 658.85 L283.39 657.7 L281.26 658.32 L279.64 659.23 L277.98 659.85 L275.64 659.55 L272.43 656.25 L270.58 655.49 L268.87 657.7 L269.29 661.58 L274.2 669.12 L273.71 673.25 L273 673.56 L268.02 672.75 L267.65 672.04 L267.86 671.03 L267.82 669.69 L268.23 669.87 L268.62 668.87 L268.48 666.78 L266.43 661.28 L266.11 658.62 L266.43 656 L267.34 653.61 L267.17 651.64 L264.99 650.32 L259.3 648.88 L257.52 647.75 L255.92 646.35 L255.24 645.14 L254.94 643.78 L253.63 641.54 L253.31 640.04 L253.63 638.52 L254.94 636.28 L255.24 634.88 L254.94 632.15 L253.63 627.78 L253.31 626.37 L253.74 617.8 L252.29 616.68 L250.08 616.5 L245.96 616.95 L244.08 616.22 L242.08 614.43 L238.63 609.97 L241.01 609.07 L243.67 608.75 L246 607.81 L247.41 605.02 L239.68 601.61 L240.84 601.85 L244.51 601.61 L243.04 598.68 L240.46 597.1 L234.83 596.34 L232.85 595.51 L228.05 589.53 L228.05 587.96 L231.85 589.69 L235.85 593.19 L239.79 595.76 L243.46 594.79 L229.46 582.3 L224.2 581.14 L225.29 578.55 L226.65 577.51 L228.24 576.96 L230.08 575.86 L235.38 569.01 L243.02 567.47 L245.62 567.94 L246.1 569.27 L246.17 571.37 L247.41 574.15 L254.23 577.89 L261.61 575.25 L275.64 565.6 L293.97 559.46 L300.2 554.85 L303.7 553.62 L307.5 553.35 L308.63 553.62 L308.73 554.38 L309.61 557.94 L309.68 558.75 L311.68 558 L312.17 556.1 L311.7 550.97 L313.66 550.44 L318.02 552.48 L327.8 559.29 L330.01 562.03 L331.77 565.11 L333.01 566.75 L334.35 567.47 L336.94 567.79 L339.29 568.68 L343.58 571.69 L341.27 570.76 L339.05 570.76 L337.42 572.06 L336.77 575 L337.29 576.1 L339.38 577.78 L339.68 579.28 L338.94 581.37 L337.77 581.94 L336.35 582.03 L334.83 582.7 L329.53 590.36 L331.86 594.53 L336.88 594.29 L339.68 588.74 L341.27 589.17 L350.4 584.4 L355.76 582.7 L356.38 581.92 L356.11 580.21 L355.42 578.5 L354.76 577.72 L353.49 577.39 L352.13 576.53 L350.99 575.38 L350.4 574.15 L350.81 571.95 L352.58 572.77 L354.46 574.71 L355.24 575.86 L357.04 573.08 L356.58 569.14 L355.21 564.73 L354.27 560.46 L354.97 561.61 L357.16 563.89 L357.21 559.66 L356.28 553.44 L356.3 551.76 L359 551.6 L363.15 556.3 L369.84 567.47 L370.12 569.07 L370.26 571.31 L370.57 573.29 L371.29 574.15 L371.64 574.7 L374.66 577.72 L375.56 581.17 L375.26 583.19 L373.95 584.59 L369.82 587.28 L363.23 590.14 L353.44 589.22 L351.02 589.75 L349.34 591.23 L348.58 594.42 L349.89 596 L352.18 596.09 L354.27 594.79 L353.62 593.5 L353.47 592.71 L354.52 590.15 L357.32 590.85 L366.84 593.08 L368.96 595 L382.95 615.38 L383.86 617.57 L387.45 628.33 L388.29 632.39 L387.24 632.39 L385.57 629.76 L382.99 628.05 L380.63 628.74 L379.6 633.18 L380.4 636.23 L384.19 642.3 L385.32 645.99 L385.58 651.34 L385.22 656.25 L384.28 660.44 L382.12 665.51 L381.71 667.36 L381.53 672.32 L381.07 673.62 L377.59 678.31 L376.25 681.34 L375.31 684.16 L374.03 686.59 L371.78 688.47 L370.05 688.89 Z M640.71 532.88 L648.94 553.62 L649.05 554.7 L644.07 560.46 L641.91 561.12 L639.29 562.71 L636.9 564.7 L635.36 566.54 L632.29 567.42 L629.25 562.7 L627.22 555.83 L627.17 550.19 L628.71 547.01 L630.54 544.88 L632.36 543.23 L633.86 541.46 L635.38 538.33 L637.78 532.07 L639.67 529.62 L640.26 531.12 L640.48 531.8 Z M349.34 488 L351.28 484.83 L352.41 480.87 L352.29 476.57 L350.4 472.33 L347.81 470.45 L344.93 469.21 L343.1 466.52 L343.55 460.22 L345 456.91 L347.15 454.68 L348.97 455.24 L350.02 465.86 L352.29 470.25 L355.48 473.1 L359.09 474.21 L357.84 476.71 L357.27 479.4 L357.41 482.06 L358.13 484.57 L360.57 488.04 L362.27 487.03 L363.48 484.34 L364.48 482.84 L364.91 484.53 L362.89 488.23 L359.09 493.18 L358.39 497.74 L358.54 506.15 L357.16 510.56 L352.57 514.86 L347.6 513.49 L343.79 507.61 L342.56 498.35 L343.37 493.24 L344.84 491.12 L346.89 490.06 Z M559.18 730.75 L561.81 730.42 L564.56 729.56 L567.13 729.5 L569.31 731.6 L573.29 737.67 L577.58 742.69 L577.58 744.22 L565.04 754.51 L562.98 756.88 L557.43 767.51 L556.68 769.54 L555.26 770.56 L551.46 775.18 L549.96 776.23 L547.89 779.65 L547.83 787.42 L549.42 801.31 L549.07 810.08 L546.25 810.37 L543.29 806.61 L542.65 803.14 L540.62 800.36 L535.98 791.19 L534.92 788.09 L535.13 783.01 L536.84 779.07 L540.73 772.88 L537.86 772.26 L535.87 770.9 L535.37 768.4 L536.86 764.35 L535.25 763.39 L534.37 762.13 L532.99 759.31 L526.41 752.43 L525.89 751.3 L525.26 749.25 L524.96 747.28 L525.13 745.97 L525.1 744.65 L524.2 742.69 L521.73 739.83 L519.54 738.09 L517.99 735.65 L517.42 730.75 L517.38 726.24 L516.91 722.76 L515.48 720.33 L512.57 718.97 L512.57 717.15 L518.01 712.82 L519.36 712.24 L521.38 712.99 L524.13 716.38 L525.69 717.15 L527.22 716.19 L530.45 712.72 L531.05 713.08 L531.97 714.45 L533.98 713.32 L536.86 710.4 L536.86 708.86 L535.37 706.93 L532.71 699.39 L531.05 696.89 L521.53 692.35 L518.84 691.83 L518.08 691.31 L516.2 688.98 L515.03 688.47 L506.07 687.94 L503.4 686.47 L501.09 684.3 L499.04 681.55 L506.65 683.18 L521.62 690.16 L529.02 691.83 L525.88 686.09 L517.11 679.49 L513.45 673.25 L525.69 670.99 L526.48 669.99 L526.11 668.01 L523.06 665.44 L515 666.05 L512.57 662.79 L514.67 660.55 L515.87 657.64 L515.64 654.79 L513.45 652.76 L510.26 652.82 L507.87 654.98 L505.83 657.73 L503.79 659.55 L501.92 659.39 L496.7 656.98 L486.04 654.31 L483.47 652.76 L481.53 653.79 L471.73 649.39 L469.91 649.83 L466.03 652.05 L464.04 652.76 L454.27 652.76 L454.27 654.46 L457.18 656.16 L452.28 655.97 L448.75 654.68 L446.54 651.15 L445.57 644.29 L447.63 645.82 L449.72 645.91 L451.45 644.31 L452.34 640.89 L450.88 642 L449.37 642.54 L446.05 642.73 L445.6 641.38 L445.99 635.31 L445.08 633.95 L442.53 632.4 L434.74 625.2 L433.42 622.89 L434.72 622.28 L436.77 622.04 L438.44 621.18 L438.71 618.65 L437.6 617.41 L435.57 616.82 L433.39 616.71 L431.94 616.95 L430.96 618.29 L430.31 620.39 L429.27 622.04 L427.09 622.04 L426.21 620.92 L424.2 615.38 L424.2 613.54 L428 613.92 L430.03 613.73 L431.45 612.69 L432.7 611.05 L434.32 609.71 L436.1 608.77 L437.74 608.43 L440.72 607.08 L442.12 604.1 L441.97 601.11 L440.24 599.75 L440.79 597.22 L439.61 591.6 L436.77 582.7 L434.99 579.59 L433.18 577.48 L430.98 576.28 L428.06 575.86 L425.54 577.68 L423.92 578.17 L423.23 576.79 L423.5 573.41 L424.31 571.59 L425.68 570.88 L427.58 570.73 L431.31 569.32 L432.8 565.71 L432.41 561 L430.48 556.2 L424.22 548.25 L417.33 544.11 L401.84 539.92 L401.84 538.04 L424.2 539.92 L421.84 535.69 L412.99 531.84 L409.59 529.62 L408.12 527.17 L407.27 525.27 L406.13 523.77 L403.78 522.59 L396.39 522.03 L394.13 520.71 L394.13 519.15 L416.45 522.59 L421.07 521.79 L429.93 518.24 L434.83 517.45 L434.83 519.15 L433.26 518.92 L431.76 519.02 L430.31 519.58 L429.03 520.71 L431.26 525.11 L434.92 528.54 L439.06 529.81 L442.66 527.75 L436.77 522.59 L438.71 520.71 L440.03 522.08 L442.4 522.67 L447.5 522.59 L449.8 521.67 L454.62 518.19 L459.47 517.09 L461.68 515.86 L463.35 513.51 L464.04 509.77 L464.19 507.8 L464.86 504.32 L465 502.72 L464.49 500.72 L462.02 497.1 L461.13 495.06 L464.74 497.47 L468.23 498.06 L471.52 496.66 L474.59 493.18 L479.43 494.25 L483.35 487.38 L484.1 477.39 L479.41 469.02 L475.31 467.29 L466.22 466.63 L454.92 462.32 L451.71 459.51 L450.4 455.04 L468.53 463.8 L472.26 462.91 L494.1 466.37 L496.7 468.84 L502.58 468.5 L512.57 465.41 L517.73 462.22 L520.64 461.64 L522.26 463.83 L521.64 466.37 L517.66 471.19 L516.45 474.21 L518.11 476.86 L517.19 478.53 L514.9 478.9 L512.57 477.67 L512.87 476.74 L513.45 474.21 L508.94 474.46 L507.11 475.46 L505.73 477.67 L512.75 490.07 L515.43 496.98 L513.45 501.95 L511.29 502.33 L506.88 501.12 L504.76 501.95 L502.16 505.71 L500.5 507.09 L497.88 507.12 L497.88 509 L500.22 509.76 L507.21 509 L509.12 508.14 L511.35 506.39 L513.84 505.06 L516.45 505.39 L517.39 507.4 L518.87 511.54 L519.98 515.6 L519.84 517.45 L508.45 519.51 L505.93 520.56 L504.9 522.14 L506.69 524.15 L508.73 524.46 L515.1 523.97 L516.45 523.37 L517.52 522.1 L519.89 524.52 L523.32 529.62 L524.34 532.93 L524.24 534.17 L523.41 535.69 L522.26 539.92 L524.79 537.53 L526.62 535.15 L532.54 522.13 L532.84 521.81 L532.99 521.65 L532.67 519.84 L531.36 516.65 L531.05 515.7 L531.5 512.81 L532.59 509.19 L534.92 503.52 L537.03 501.28 L542.05 499.83 L544.59 498.35 L546.89 491.23 L543.99 482.99 L540.64 475.57 L541.68 470.75 L544.22 470.97 L549.21 476.3 L551.85 477.67 L553.21 478.77 L553.16 481.31 L552.59 484.15 L552.33 486.12 L552.95 489.32 L553.49 490.47 L554.16 491.24 L555.23 493.18 L557.89 500.54 L560.41 510.94 L560.82 520.68 L557.17 526.03 L552.05 524.16 L549.59 524.51 L548.55 528.67 L547.54 531.55 L542.56 536.4 L540.73 539.92 L543.61 540.55 L547.68 538.67 L550.94 535.2 L551.37 531.18 L553.63 530.23 L555.96 530.98 L557.98 533.12 L559.18 536.32 L554.78 534.8 L554.19 535.39 L555.08 537.69 L557.24 539.44 L562.01 541.46 L563.25 536.2 L566.51 528.21 L566.93 522.59 L561.04 495.06 L561.04 486.12 L560.52 482.51 L557.17 469.02 L554.96 465.5 L552.39 464.15 L549.31 464.34 L538.49 468.79 L534.4 469.53 L532.02 467.29 L534.41 461.08 L541.75 454.78 L555.23 446.39 L576.9 427.86 L588.2 421.5 L600 421.97 L612.25 429.05 L622.34 429.05 L625.07 430.54 L630.03 435.05 L634.24 436.86 L641.59 443.08 L639.67 447.07 L633.86 455.04 L631.78 459.32 L627.93 469.4 L626.11 472.33 L626.11 474.21 L630.02 479.92 L632.03 483.81 L632.89 487.08 L633.54 491.82 L635.08 497.37 L637.02 502.33 L638.8 505.39 L638.2 507.85 L637.9 511.22 L637.73 516.56 L636.93 520.91 L636.77 522.59 L636.95 523.8 L637.46 525.09 L638.8 527.75 L635.82 531.64 L630.12 542.75 L624.77 546.48 L623.85 549.55 L622.49 552.54 L619.35 553.62 L617.02 552.79 L615.35 551.4 L613.5 550.29 L610.65 550.19 L600.41 556.16 L597.68 559.03 L588.66 568.48 L588.63 568.51 L581.53 583.19 L585.33 596.34 L592.21 602.49 L594.63 603.32 L603.35 603.94 L605.72 605.02 L611.86 610.25 L615.06 614.11 L616.46 617.8 L616.7 622.08 L617.35 625.68 L619.35 632.39 L617.26 635.02 L616.46 635.8 L609.07 641.08 L579.36 648.07 L577.13 650.52 L573.49 652.84 L570.62 657.04 L568.92 662.09 L569.76 666.31 L568.69 668.45 L567.49 669.36 L566.23 669.16 L564.9 668.01 L565.95 662.68 L564.33 659.31 L561.46 658.38 L558.68 660.4 L557.41 661.61 L556.3 662.03 L555.54 662.9 L555.23 665.46 L556 666.48 L560.07 669.69 L571.96 670.73 L577.36 672.57 L578.54 678.31 L577.75 680.75 L576.85 681.78 L575.81 682.3 L574.59 683.24 L571.66 684.86 L570.25 686.17 L571.28 686.77 L576.61 698.58 L576.46 703.28 L574.57 705.81 L571.66 706.83 L568.34 707.02 L566.15 707.9 L561.39 711.58 L558.13 712.24 L553.19 710.16 L545.51 702.85 L540.73 701.96 L540.64 703.13 L540.87 703.42 L541.25 703.41 L541.68 703.65 L540.91 704.13 L540.48 704.7 L539.95 705.21 L538.89 705.49 L539.51 710.19 L538.5 713 L537.17 715.43 L536.86 718.97 L537.9 721.73 L539.77 723.36 L541.91 723.62 L543.71 722.2 L543.34 721.29 L542.65 718.97 L543.88 718.81 L547.49 717.15 L548.64 718.52 L550.66 723.05 L550.94 724.02 L552.25 725.01 L556.85 729.52 Z M484.35 276.34 L483.97 272.55 L485.57 271.19 L497.65 269.9 L503.79 267.52 L503.79 269.45 L503.19 269.49 L502.73 269.84 L501.85 271.05 L499.34 272.24 L497.39 274.87 L495.73 277.79 L494.1 280.01 L491.71 280.99 L488.81 280.68 L486.1 279.11 Z M103.7 263.85 L101.83 266.24 L95.96 271.05 L95.24 275.5 L83.94 278.63 L79.97 280.81 L78.56 280.06 L74.78 271.57 L73.23 269.45 L69.75 265.75 L66.35 264.01 L65.45 263.85 L61.06 265.54 L59.6 265.3 L60.09 262.24 L60.76 260.95 L61.82 259.84 L63.09 259.02 L64.42 258.7 L65.07 257.57 L64.84 255.07 L64.33 252.62 L63.94 251.63 L67.87 248.66 L77.91 247.24 L81.45 242.64 L79.67 242.82 L77.91 242.63 L76.23 242.06 L74.69 241.04 L75.48 238.57 L78.32 234.73 L79.51 232.01 L79.05 232.22 L78.75 230.09 L78.56 225.83 L79.01 224.92 L80.11 224.85 L81.36 225.03 L82.33 224.94 L86.4 223.4 L94.72 222.01 L98.87 219.64 L101.97 220.73 L104.82 216.99 L109.59 207.06 L112.84 209.18 L114.92 206.27 L116.51 202.88 L118.3 203.51 L117.48 205.6 L115.82 208.84 L115.4 210.77 L115.68 211.89 L117.1 215.5 L117.42 217.7 L117.1 218.25 L115.4 226.72 L114.26 229.94 L113.54 231.12 L112.5 232.01 L112.46 228.93 L111.75 226.95 L110.67 225.72 L109.59 224.94 L106.24 227.71 L105.65 228.65 L105.2 231.38 L105.57 233.05 L106.21 234.25 L106.7 235.58 L107.85 244.21 L109.1 246.86 L111.53 247.94 L110.63 249.23 L109.73 249.82 L108.73 249.96 L107.59 249.89 L108.64 250.64 L109.59 251.63 L107.71 254.52 L105.58 260.38 Z M431.94 110.58 L435.85 110.48 L437.48 111.11 L438.71 112.37 L439.72 115.56 L439.61 118.33 L438.56 120.57 L435.41 119.91 L432.06 118.71 L421.2 121.34 L423.48 123.29 L425.11 127.19 L424.68 131.44 L421.28 135.22 L419.35 138.4 L418.16 141.93 L415.85 144.76 L411.47 145.81 L408.64 143.5 L404.94 136.43 L399.94 135.48 L396.01 133.39 L393.5 130.96 L391.22 128.34 L391.22 126.7 L395.96 125.66 L400.61 121.09 L404.2 117.85 L409.91 117.49 L413.2 116.48 L415.7 113.64 L426.21 113.71 Z "/>
</g>
</svg>
