<svg xmlns="http://www.w3.org/2000/svg" viewBox="0 0 1000 894.03">
<g fill="#ccc" stroke="#333" stroke-width="0.5" stroke-linejoin="round">
<path fill-rule="evenodd" d="M431.88 704.37 L348.98 687.91 L174.62 697.35 L110.8 721.44 L116.57 647.15 L151.03 658.88 L167.12 601 L103.61 574.22 L91.08 543.36 L126.18 512.5 L113.64 477.81 L44.08 443.11 L21.57 420.33 L6.27 404.85 L0 358.41 L19.22 312.22 L82.31 300.48 L126.18 258.12 L164.19 258.12 L183 277.77 L151.03 385.46 L135.37 443.11 L179.44 427.81 L265.09 354.58 L372.05 431.63 L410.07 389.28 L454.36 397.45 L486.11 389.28 L501.98 327.79 L606.02 258.12 L649.89 273.69 L681.64 308.14 L725.51 300.48 L779.4 258.12 L798.2 226.98 L819.93 208.34 L798.2 165.71 L798.2 92.7 L817 0 L870.48 0 L880.09 42.14 L908.5 50.31 L927.72 96.27 L936.91 111.85 L936.91 138.91 L968.25 138.91 L1000 189.2 L971.59 226.98 L946.52 238.46 L939.49 246.48 L905.58 285.17 L832.88 226.98 L810.74 254.29 L782.33 289 L731.77 323.96 L675.37 335.44 L649.89 308.14 L618.55 285.17 L564.65 312.22 L526.63 343.1 L504.91 397.45 L599.33 439.29 L631.08 473.98 L627.74 581.87 L672.03 620.38 L747.65 628.03 L747.65 712.68 L712.97 720.83 L662.84 766.72 L694.17 786.35 L769.38 770.29 L880.21 794.18 L847.7 838.65 L810.2 877.58 L760.85 894.03 L700.65 871.56 L588.47 761.58 L525.97 722.84 L435.5 704.98 L448.09 705.03 L460.62 701.2 L479.84 697.38 L486.11 697.38 L473.16 674.43 L454.36 663.21 L438.48 663.21 L419.68 663.21 L403.8 643.58 L372.05 635.68 L353.25 635.68 L344.06 643.58 L369.12 658.88 L385 666.78 L391.27 685.91 L410.07 685.91 L428.87 689.73 Z M277.69 581.57 L293.44 574.28 L315.16 566.32 L315.16 516.58 L291.27 512.6 L271.71 519.9 L267.37 537.81 L261.39 561.68 L265.19 574.94 Z "/>
</g>
</svg>
