<svg xmlns="http://www.w3.org/2000/svg" viewBox="0 0 1000 1088.09">
<g fill="#ccc" stroke="#333" stroke-width="0.5" stroke-linejoin="round">
<path fill-rule="evenodd" d="M893.4 747.36 L862.3 796.3 L703.52 1046.02 L694.18 1042.72 L688.17 1047.91 L682.17 1055.3 L673.32 1058.55 L665.45 1057.23 L650.66 1052.94 L625.9 1050.4 L612.53 1047.44 L602.38 1038.85 L587.27 1005.61 L575.76 1001.27 L561.46 1000.7 L518.99 990.56 L514.51 990.91 L491.51 992.71 L437.59 1009.2 L397.79 1035.55 L384.91 1041.68 L375.87 1041.21 L366.59 1038.03 L353.03 1035.82 L333.47 1042.47 L328.33 1042.98 L317.62 1042.6 L312.48 1043.13 L291.13 1052.78 L283.02 1054.83 L271.69 1054.71 L240.93 1047.6 L207.93 1051.22 L191.84 1056.57 L173.27 1075.51 L156.74 1079.69 L122.81 1081.11 L118.73 1082.78 L116.01 1085.82 L112.85 1088.09 L107.65 1087.33 L104.06 1084.31 L102.51 1080.7 L100.47 1077.58 L29.71 1063.17 L14.79 1057.45 L10.43 1051.71 L7.3 1047.6 L18.08 1030.22 L21.85 1004.16 L23.28 886.73 L15.91 820.34 L0.43 750.09 L0 716.74 L17.7 661.29 L25.94 614.93 L35.41 595.49 L44.26 589.45 L67.78 579.08 L73.73 571.24 L77.07 562.51 L82.14 558.91 L88.89 556.85 L97.25 552.84 L105.54 546.42 L112.17 539.68 L135.1 506.96 L184.59 436.34 L208.8 391.08 L215.42 383.77 L229.54 376.81 L234.3 369.24 L243.4 346.92 L323.19 237.38 L341.46 197.29 L377.54 148.52 L408.37 115.14 L418.9 113.26 L435.18 117.58 L462.66 129.91 L556.51 213.45 L564.43 201.92 L567.25 201.13 L586.16 195.81 L594.33 183.98 L599.4 178.47 L617.29 175.08 L624.78 171.05 L628.25 154.54 L622.68 135.3 L620.57 117.04 L646.7 92.24 L660.63 59.04 L670.65 50.19 L675.98 50.86 L683.41 56.79 L689.53 56.18 L819.7 0 L829.45 6.57 L835.06 17.44 L839.74 29.58 L846.12 40.02 L904.71 107.14 L918.84 129.73 L927.33 138.65 L936.68 141.29 L946.48 134.5 L946.48 156.09 L947.6 166.42 L950.58 176.73 L955.3 185.17 L960.76 191.88 L965.15 199.36 L966.95 210.22 L967.68 233.62 L969.54 246.04 L973.24 254.57 L995.61 285.95 L997.37 296.27 L995.61 331.98 L1000 378.17 L996.78 397.76 L988.06 415.97 L975.09 431.1 L959.11 441.44 L954.38 442.83 L938.29 445.62 L921.91 453.99 L909.97 456.21 L884.24 456.78 L872.93 459.87 L853.43 473.85 L807.42 529.21 L804.3 531.21 L800.74 532.7 L794.84 535.24 L790.65 537.95 L787.97 542.14 L785.68 550.63 L782.46 554.26 L774.08 557.37 L741.32 558.87 L732.75 562.08 L723.78 568.43 L714.86 572.49 L698.63 566.51 L687.22 568.35 L631.46 588.29 L615.76 597.93 L601.92 612.79 L560 689.65 L556.01 694.9 L550.35 698.03 L531.78 703.53 L526.22 703.83 L511.89 701.19 L496.1 701.79 L491.08 701.19 L487.77 698.86 L482.11 690.87 L478.85 688.71 L465.83 689.53 L458.81 694.63 L458.72 698.86 L466.56 697.01 L469.2 710.3 L469.2 710.92 L469.54 725.57 L472.95 738.11 L492.64 745.77 L504.58 756.76 L511.89 759.64 L520.23 758.1 L529.73 749.22 L536.46 747.13 L541.68 748.55 L547.28 751.16 L553.08 752.33 L558.54 749.4 L562.05 741.64 L557.96 737.01 L551.81 733.85 L548.74 730.42 L554.01 720.3 L566 711.84 L593.34 701.19 L633.9 696.37 L646.86 692.89 L653.1 688.31 L657.88 683.26 L662.85 681.39 L669.53 686.39 L674.45 688.78 L689.76 688.56 L773.49 687.41 L786.27 684.82 L798.21 685.2 L811.12 692.89 L822.92 690.12 L829.21 681.69 L833.74 673.55 L840.17 671.61 L843.78 678.01 L852.36 713.73 L852.9 714.48 L859.33 723.71 L866.1 728.75 L884.77 738.78 Z "/>
</g>
</svg>
