<svg xmlns="http://www.w3.org/2000/svg" viewBox="0 0 1000 1870.02">
<g fill="#ccc" stroke="#333" stroke-width="0.5" stroke-linejoin="round">
<path fill-rule="evenodd" d="M525.98 1870.02 L479.12 1857 L470.63 1822.34 L484.55 1716.94 L482.51 1590.59 L484.55 1572.11 L461.63 1523.01 L408.83 1461.4 L399.32 1409.48 L391.85 1302.27 L372.84 1224.11 L313.75 1096.8 L305.6 1066.16 L295.59 986.92 L282.51 948.88 L186.59 853.24 L171.31 817.31 L163.33 776.09 L144.65 732.06 L120.54 697.18 L97.45 683.08 L70.29 660.36 L61.12 608.03 L57.22 502.85 L39.9 469.54 L16.98 448.4 L0 425.14 L0.17 384.61 L20.54 356.41 L90.32 307.06 L111.71 263.71 L82.85 258.07 L32.26 239.56 L0.17 236.57 L34.63 185.63 L83.19 0 L165.7 3.35 L215.62 5.29 L262.82 23.27 L313.75 61.88 L381.15 161.3 L435.14 197.08 L497.28 164.3 L549.07 154.07 L756.2 236.57 L763.67 266 L790.15 332.09 L831.58 402.41 L854.84 443.82 L919.19 536.85 L925.3 546.02 L964.86 698.41 L971.82 857.12 L942.95 978.47 L961.97 985.34 L979.29 999.78 L1000 1008.05 L973.85 1166 L979.97 1304.03 L981.32 1338.54 L969.1 1508.75 L883.36 1660.63 L853.31 1684.04 L832.94 1689.31 L816.64 1688.08 L774.19 1693.71 L738.71 1685.27 L712.39 1690.19 L689.81 1710.96 L668.42 1767.27 L610.19 1792.78 L596.6 1824.45 L594.74 1827.26 L576.57 1855.59 Z "/>
</g>
</svg>
