<svg xmlns="http://www.w3.org/2000/svg" viewBox="0 0 1000 686.26">
<g fill="#ccc" stroke="#333" stroke-width="0.5" stroke-linejoin="round">
<path fill-rule="evenodd" d="M68.56 65.72 L73.77 66.87 L78.65 69.37 L77.62 63.67 L72.8 52.53 L73.09 49.67 L73.09 47.51 L65.79 47.14 L64.86 44.06 L67.8 39.5 L72.08 34.8 L73.31 33.92 L74.7 33.63 L77.73 33.71 L79.57 32.95 L82.59 29.23 L84.22 27.79 L87.45 26.48 L89.86 25.88 L92.24 24.76 L95.36 21.88 L93.5 18.26 L93.2 15.02 L94.64 12.73 L98.13 11.84 L100.23 12.17 L103.48 13.65 L105.56 13.98 L106.47 13.37 L108.36 10.65 L109.34 10.05 L137.24 7.9 L144.34 8.9 L151.34 11.44 L177.27 24.97 L184.89 26.52 L192.12 23.69 L197.59 27.71 L201.5 29.52 L213.54 29.94 L216.71 29.06 L217.45 26.84 L217.6 23.9 L219.03 20.89 L222.23 19.64 L224.52 22.32 L227.53 29.94 L229.66 28.62 L231.26 27.21 L232.38 25.59 L233.11 23.69 L230.79 22.96 L230.31 22.61 L230.26 21.85 L229.39 19.9 L233.65 21.57 L237.22 21.37 L240.85 20.45 L245.24 19.9 L248.03 17.76 L253.06 8.25 L256.37 6.1 L260.51 5.04 L269.32 0.63 L274.08 0 L278.47 1.14 L282.65 3.61 L284.9 7.23 L283.51 11.84 L288.75 13.98 L290.77 13.98 L289.41 9.52 L288.75 7.9 L301.89 10.05 L305.76 9.65 L313.78 7.76 L316.9 7.9 L320.24 10.16 L332.19 24.51 L333.18 27.26 L331.73 29.94 L341.97 30.01 L345.88 31.95 L356.23 40.69 L366.08 45.73 L376.54 49.43 L388.66 51.26 L405.06 51.39 L406.43 50.56 L407.83 48.62 L411.11 46.34 L414.82 44.42 L417.55 43.57 L428.15 46.93 L444.72 64.54 L454.65 75.08 L459.16 78.31 L464.11 80.85 L469.68 82.54 L482.07 83.86 L492.03 87.48 L510.27 91.09 L514.34 91.02 L517.06 90 L519.48 87.9 L529.39 77.26 L534.53 74.85 L549.59 75.08 L556.96 74.37 L560.3 74.79 L564.43 77.24 L573.69 87.1 L576.61 93.8 L576.46 101.13 L572 116.97 L577.44 119.27 L579.51 124.39 L579.43 137.54 L580.09 143.26 L581.83 147.83 L599.92 175.02 L608.05 182.97 L609.07 183.98 L618.37 187.77 L623.88 186.86 L634.42 182.79 L639.86 181.88 L652.08 181.38 L657.5 180.22 L663.06 177.94 L671.08 172.56 L674.19 171.88 L677 172.49 L682.76 175.33 L686.33 175.96 L692.9 174.31 L695.76 174.01 L697.34 174.07 L698.81 174.42 L699.88 175.3 L700.32 176.96 L701.18 178.37 L703.06 177.83 L706.05 175.96 L721.81 182.43 L726.45 185.8 L729.52 179.56 L734.52 174.95 L746.86 168.1 L754.79 165.67 L756.67 168.99 L754.57 175.86 L750.57 184.01 L755.99 186.01 L762.11 185.98 L768.06 184.43 L772.99 181.88 L774.6 188.19 L771.06 193.15 L766.19 197.64 L763.72 202.59 L762.55 207.8 L759.39 212.5 L754.65 215.94 L748.71 217.41 L727.39 213.48 L704.03 215.27 L698.53 213.69 L688.46 208.65 L653.83 204.34 L649.93 205.42 L648.44 209.27 L647.55 222.95 L645.52 234.62 L646.36 239 L648.96 240.87 L652.33 243.32 L667.32 241.01 L672.49 242.93 L678.94 240.85 L691.72 245.83 L698.46 245.07 L696.81 243.63 L694.63 242.32 L692.03 241.35 L689.02 240.97 L689.02 239 L703.53 238.23 L707.75 239 L712.57 242.56 L716.3 251.39 L720.89 254.88 L725.53 256.12 L734.87 257.28 L760.1 264.14 L770.55 266.97 L774.84 266.67 L779.95 263.77 L778.26 261.67 L774.88 259.63 L774.84 256.85 L779.72 255.46 L783.96 259.32 L789.68 268.63 L793.37 270.78 L797.48 272.02 L800.99 273.57 L802.83 276.64 L806.08 273.98 L812.71 270.9 L815.83 268.63 L813.75 266.32 L814.75 265.76 L817.19 265.69 L819.52 264.87 L822.36 261.9 L823.22 260.73 L824.3 260.65 L834.03 261.17 L839.73 262.33 L844.83 264.17 L849.36 266.67 L849.88 267.46 L849.9 268.5 L850.12 269.59 L851.22 270.57 L856.78 272.54 L857.28 272.44 L866.99 274.5 L873.06 274.74 L875.52 275.62 L875.98 275.95 L878.2 277.54 L880.69 278.94 L885.53 279.34 L888.32 280.39 L919.89 309.84 L931.49 323.99 L947.87 336.53 L959.61 344.75 L962.95 346.24 L964.7 347.39 L976.96 359.27 L992.51 368.74 L1000 380.22 L998.52 391.46 L972.99 430.44 L971.18 432 L969.39 433.94 L968.56 436.66 L969.06 446.61 L968.56 449.45 L965.48 454.31 L961 456.6 L955.39 457.28 L948.93 457.28 L943.96 455.6 L933.19 448.5 L929.28 447.32 L924.79 450.34 L925.5 454.94 L926.95 460.39 L924.64 465.98 L921.3 470.45 L919.19 475.63 L915 492.27 L913.49 495.23 L910.4 496.35 L887.43 498.17 L882.75 496.51 L882.13 486.04 L875.52 472.18 L866.48 458.71 L858.47 449.45 L849.95 443.54 L838.66 438.73 L827.3 437.11 L814.2 442.5 L794.41 443.42 L789.27 442.5 L777.36 438.46 L771.97 437.57 L767.28 436.03 L759.42 429.32 L753.42 427.78 L748.18 428.88 L742.85 430.7 L737.47 431.07 L732.02 427.78 L726.34 433.06 L691.05 435.79 L680.5 439.69 L674.93 439.83 L660.06 429.51 L654.05 426.29 L650.06 425.83 L648.34 428.51 L648.48 431.72 L648.97 434.95 L648.21 437.57 L645.78 438.38 L641.97 438.36 L638.47 437.69 L636.93 436.66 L632.36 428.86 L630.2 426.76 L628.18 426.11 L586.32 421.49 L578.73 421.85 L577.57 421.91 L573.18 423.22 L564.65 427.37 L557.62 432.14 L554.96 433.42 L547.73 435.79 L544.88 437.25 L541.46 438.99 L535.39 444.4 L530.82 451.62 L529.02 460.21 L527.58 462.54 L521.33 465.85 L519.91 467.93 L518.8 471.09 L509.63 479.66 L503.03 487.28 L499.3 490.48 L497.65 489.69 L491.06 489.88 L486 490.74 L482.64 492.62 L477.84 489.65 L472.73 488.57 L437.97 488.71 L432.13 490.56 L420.96 496.92 L414.61 498.3 L395.79 498.25 L391.42 496.51 L391.05 494.05 L393.01 492.13 L395.56 490.46 L396.82 488.71 L396.04 485.62 L394.2 483.92 L392.28 482.82 L390.23 480.02 L385.03 476.63 L383.85 473.98 L384.51 471.14 L386.12 469.83 L387.96 468.84 L389.39 466.87 L390.65 461.12 L390.81 455.08 L390.07 449.78 L388.56 446.36 L382.59 438.85 L379 436.28 L372.71 433.83 L367.35 432.57 L360.57 432.05 L354.77 433.62 L352.32 438.62 L353.24 444.61 L352.56 447.01 L344.49 455.01 L342.27 456.44 L339.34 457.28 L336.17 457.16 L330.52 455.39 L328.02 455.15 L325.92 455.98 L322.14 458.65 L319.6 459.24 L316.15 458.79 L314.94 459.54 L312.26 462.08 L311.51 463.15 L309.8 466.69 L309.47 467.93 L308.74 469.06 L305.1 470.27 L303.75 470.95 L296.52 479.56 L292.66 481.87 L286.22 482.67 L283.61 481.69 L281.92 479.38 L280.49 476.51 L278.72 473.98 L275.88 471.83 L273 470.58 L261.21 468 L255.75 467.9 L251.51 469.61 L249.81 473.98 L249.23 476.39 L246.82 480.56 L246.25 483.75 L246.77 487.42 L248.09 489.43 L249.9 491.26 L251.82 494.4 L256.25 509.96 L257.68 512.62 L257.72 516.03 L252.44 524.08 L247.93 535.57 L222.22 573.25 L219.96 579.71 L218.84 582.01 L216.26 583.8 L210.85 586.62 L207.52 589.44 L205.13 592.23 L203.27 595.68 L201.57 600.43 L199.56 599.72 L198.78 599.23 L197.69 598.32 L197.28 600.38 L196.86 601.11 L195.83 602.02 L197.69 602.02 L196.6 604.42 L195.18 606.26 L193.45 607.45 L191.29 607.87 L190.3 609.04 L188.53 614.73 L187.49 616.8 L184.17 621.59 L175.02 648.4 L172.21 653.61 L160.98 669.38 L158.26 668.11 L155.92 665.88 L155.79 664.68 L153.13 662.39 L134.45 631.47 L129.91 626.54 L120.77 622.99 L99.07 625.91 L89.79 623.62 L92.41 621.59 L101.07 612.57 L102.93 608.93 L102.53 602.79 L101.39 598.47 L97.2 590.33 L94.26 585.84 L93.69 584.19 L93.5 580.77 L95.36 569.96 L93.34 564.98 L88.56 559.43 L78.65 551.17 L63.46 545.42 L66.71 536.77 L67.69 531.83 L67.09 523.53 L67.27 518.77 L66.62 515.57 L63.7 507.38 L63.3 504.68 L64.05 499.05 L66.2 493.68 L78.27 472.87 L78.43 472.59 L81.63 467.07 L81.04 466.25 L78.54 464.01 L74.67 461.44 L60.07 455.92 L49.82 449.07 L47.62 446.52 L43.49 440.4 L41.2 438.37 L30.6 435.69 L26.53 433.45 L24.9 428.15 L25.93 425 L27.96 423.83 L29.41 422.27 L28.74 417.97 L26.98 415.25 L2.41 389.98 L0 385.3 L4.67 381.76 L14.77 379.62 L35.19 383.41 L45.71 379.8 L49.24 375.99 L54.83 366.42 L58.54 362.26 L59.24 361.83 L61.1 360.66 L68.39 356.14 L72.2 353 L75.45 347.66 L77.31 342.81 L78.64 337.51 L79.05 332.12 L76.86 320.85 L76.58 309.21 L75.07 303.9 L73.05 301.3 L66.83 295.59 L64.35 292.66 L60.5 284.53 L58.02 282.51 L51.66 282.29 L44.91 284.61 L40.04 285.37 L39.24 280.39 L43.92 277.22 L57.86 273.45 L61.43 271.23 L73.21 258.14 L81.34 246.71 L85.45 243 L94.66 236.38 L98.08 231.29 L99.47 226.35 L100.71 209.19 L97.28 207.52 L79.68 198.94 L70.72 189.74 L69.57 188.57 L64.73 181.73 L63.38 175.99 L65.16 174.17 L72.49 169.98 L75.07 167.94 L78.51 159.16 L80.02 157.52 L83.12 150.9 L83.3 138.04 L80.06 115.51 L72.46 97.46 L71.21 90.91 L71.66 83.34 L71.93 78.76 L70.96 73.65 Z M131.85 686.26 L127.31 683.68 L127.26 677.54 L129.74 670.38 L132.77 664.68 L136.61 666.85 L140.51 669.71 L147.43 676.37 L143.24 677.7 L136.49 684.64 Z M908.88 508.24 L922.91 507.82 L926.61 509.13 L929.35 512.8 L932.39 518.42 L934.38 523.57 L933.92 525.81 L929.8 524.89 L921.03 520.87 L916.47 519.95 L911.63 520.54 L903.22 523.23 L898.6 523.86 L889.05 521.31 L882.25 515.15 L877.87 507.47 L875.49 500.42 L879.53 499.22 L884.29 500.14 L889.01 502.47 L893.05 505.4 L896.19 506.52 Z "/>
</g>
</svg>
