<svg xmlns="http://www.w3.org/2000/svg" viewBox="0 0 1000 398.13">
<g fill="#ccc" stroke="#333" stroke-width="0.5" stroke-linejoin="round">
<path fill-rule="evenodd" d="M785.43 13.71 L788.93 16.11 L790.18 17.85 L791.94 19.27 L792.55 20.28 L793.14 21.59 L794.03 22.8 L795.2 23.7 L796.6 24.14 L797.53 23.98 L798.37 23.72 L798.93 23.88 L799.03 25.03 L799.26 25.64 L800.5 26.96 L800.84 27.92 L801.7 27.43 L802.59 27.36 L805.89 28.11 L806.32 28.44 L806.98 28.96 L812.59 35.2 L814 36.27 L815.14 36.82 L818.68 37.78 L819.9 38.42 L827.65 44.29 L830.16 45.51 L834.38 45.66 L838.43 47.19 L839.08 47.2 L839.39 47.04 L839.67 47.08 L840.25 47.69 L840.46 48.29 L840.44 48.96 L840.57 49.6 L841.2 50.14 L842.59 50.67 L843.86 50.96 L845.07 50.98 L846.26 50.74 L851.01 48.93 L852.49 48.94 L854.27 50.34 L854.65 54.63 L855.92 56.5 L859.84 59.2 L862.01 60.06 L863.75 59.82 L864.03 59.78 L866.49 60.4 L867.3 63.29 L867.68 69.55 L868.22 71.55 L868.48 73.33 L869.1 74.85 L870.7 76.08 L872.78 76.85 L879.12 78.13 L880.24 78.54 L881.12 78.99 L882.05 79.27 L883.35 79.19 L886.35 78.06 L887.38 77.87 L888.19 78.08 L889.44 78.39 L891.72 80.96 L893.49 81.56 L895.88 81.61 L896.62 81.73 L897.61 82.07 L898.21 82.5 L899.51 83.82 L900.53 84.56 L901.38 84.87 L902.29 84.91 L906.42 84.28 L907.18 84.36 L909.3 85.31 L910.21 85.29 L910.06 82.92 L910.79 82.64 L912.85 83.2 L915.76 83.52 L916.61 83.77 L917.55 84.43 L919.15 85.92 L920.27 86.3 L921.14 86.19 L922.69 85.4 L928.6 84.71 L929.65 84.01 L929.04 80.06 L929.18 75.62 L929.15 75.23 L929.72 75.34 L931 75.26 L931.64 75.13 L932.19 74.93 L933.67 73.16 L934 72.86 L934.32 72.68 L935.4 71.86 L936.06 71.67 L936.65 71.94 L938.3 73.67 L939.44 74.43 L940.63 74.94 L941.92 75.24 L943.38 75.34 L944.68 75.27 L945.34 75.32 L945.84 75.54 L946.2 76.17 L946.53 77.75 L946.84 78.22 L947.92 78.16 L949.43 77.68 L950.78 77.52 L951.35 78.41 L951.61 79.12 L955.6 84.17 L955.9 84.92 L956.17 86.06 L956.82 87.02 L958.3 88.39 L961.92 90.63 L962.42 91.45 L964.81 93.21 L966.49 94.15 L967.47 94.54 L968.63 94.83 L969.95 94.94 L971.32 94.81 L973.89 94.22 L975.01 94.09 L976.2 94.47 L977.14 95.32 L977.9 96.17 L978.51 96.56 L979.57 96.91 L982.37 99.41 L985.84 101.54 L987.27 102.04 L988.43 102.88 L991.77 103.51 L995.55 104.9 L996.65 105.55 L995.94 106.46 L994.6 107.42 L993.83 107.79 L993.04 108.06 L992.09 108.11 L990.05 107.82 L989.55 107.86 L987.95 108.93 L986.42 108.78 L982.22 106.52 L981.41 106.33 L980.58 106.32 L979.51 106.43 L978.58 106.25 L977.49 105.81 L976.42 105.53 L975.55 105.82 L975.22 106.85 L975.5 108.17 L976.09 109.33 L976.63 109.96 L977.19 110.08 L978.46 109.98 L979.05 110.06 L979.77 110.5 L981.02 111.67 L981.75 112.05 L983.03 112.47 L983.98 113.07 L984.66 113.93 L986.57 120.66 L987.67 123.19 L989.37 125.53 L990.48 126.58 L991.16 127 L991.77 127.1 L992.5 127.04 L992.84 127.23 L993.09 127.59 L995.41 129.39 L995.66 129.67 L995.97 130.35 L996.2 130.63 L996.51 130.69 L997.06 130.41 L997.33 130.5 L998.01 131.56 L998.23 132.66 L998.04 135 L998.09 135.49 L998.23 135.92 L998.31 136.37 L998.19 136.9 L997.65 137.47 L996.93 137.84 L996.3 138.26 L996.03 138.97 L996.09 139.56 L996.34 140.65 L996.37 141.26 L996.25 141.87 L995.87 142.94 L995.84 143.68 L998.49 152.67 L998.51 153.21 L998.41 154.24 L998.52 154.79 L998.98 155.47 L999.55 155.97 L999.99 156.56 L1000 156.96 L999.47 157 L996.65 157 L994.12 157.3 L992.76 157.27 L992.18 156.79 L991.83 156.19 L991.02 155.25 L989.33 153.7 L988.96 154.23 L988.2 157.17 L986.42 164.19 L984.63 171.22 L982.84 178.25 L981.05 185.27 L980.17 188.71 L979.4 190.78 L978.94 191.34 L978 192.47 L974.73 195.51 L972.33 198.31 L969.35 201.77 L966.38 205.24 L963.4 208.71 L960.43 212.18 L957.45 215.64 L954.48 219.11 L951.5 222.58 L948.52 226.04 L944.97 228.77 L941.42 231.49 L937.86 234.21 L934.31 236.93 L930.75 239.66 L927.19 242.38 L923.64 245.11 L920.08 247.83 L916.71 250.42 L914.06 252.02 L913.17 252.56 L907.69 254.48 L900.19 257.11 L892.7 259.73 L885.21 262.35 L877.71 264.97 L870.22 267.59 L862.73 270.22 L855.24 272.84 L847.75 275.46 L846.1 276.04 L843.8 276.84 L842.68 277.41 L838.29 281.25 L832.27 289.33 L829.39 291.72 L828.55 292.64 L826.71 296.18 L825.97 297.24 L823.8 298.85 L823.1 299.7 L823.09 301 L823.78 302.09 L824.72 302.76 L825.47 303.61 L825.6 305.25 L825.05 306.48 L824.13 306.87 L823.07 307.09 L822.13 307.86 L821.32 308.25 L820.75 307.17 L819.93 303.33 L819.48 302.44 L818.73 301.84 L816.15 301.12 L814.9 300.94 L813.9 301.25 L813.25 302.37 L813.31 302.76 L813.67 303.93 L813.63 304.58 L813.18 307.16 L812.41 309.59 L812.33 309.84 L811.23 312.24 L810.83 313.47 L810.69 314.63 L810.72 316.77 L810.96 317.99 L810.93 318.57 L810.47 318.91 L809.71 319.04 L809.43 319.14 L809.4 319.45 L809.4 320.2 L810.16 324.06 L809.8 325.21 L808.34 326.63 L807.87 326.93 L807.14 327.28 L806.78 327.55 L806.16 328.7 L805.74 329.84 L805.15 334.26 L805.15 334.68 L804.91 334.92 L804.08 335.38 L803.31 335.62 L802.58 335.68 L801.92 335.85 L801.31 336.48 L801.03 337.46 L801.08 341.02 L800.45 343.66 L796.82 351.27 L796.25 353.88 L795.73 355.05 L794.64 355.96 L794.14 357.22 L794.22 359.46 L794.7 361.68 L795.42 362.82 L796.84 363.68 L796.68 364.65 L795.76 365.78 L794.9 367.17 L794.74 368.27 L794.8 369.46 L794.73 370.61 L794.19 371.57 L792.56 372.65 L791.92 373.07 L786.47 375.25 L783.98 376.66 L781.26 379.17 L780.15 380.71 L779.48 382.35 L779.52 383.99 L780.86 386.68 L781.17 388.1 L780.54 389.29 L779.16 389.6 L777.59 389.61 L776.39 389.92 L775.76 390.9 L775.1 393.81 L774.67 395.07 L773.13 396.7 L771.41 398.13 L770.31 397.04 L769.66 396.56 L769.02 396.26 L768.4 396.19 L767.44 396.43 L766.83 396.45 L765.79 396.22 L763.8 395.52 L762.75 395.34 L761.3 395.4 L758.52 395.5 L757.16 395.13 L756.33 394.13 L755.69 392.86 L754.9 391.73 L754.38 391.38 L753.22 390.94 L752.7 390.56 L752.38 390.05 L751.99 388.87 L751.67 388.34 L750.63 387.57 L749.41 386.92 L748.38 386.1 L747.95 384.84 L747.77 383.73 L747.75 383.65 L746.19 380.71 L745.51 377.16 L743.77 374.62 L743.81 373.33 L745.19 370.89 L745.34 370.01 L745 369.45 L743.79 368.74 L742.36 368.75 L741.99 368.55 L741.14 367.92 L740.68 367.7 L737.67 364.72 L736.02 363.9 L733.87 364.19 L731.81 365.41 L727.81 366.65 L725.6 366.3 L724.12 364.77 L722.87 362.9 L721.36 361.5 L719.79 361.11 L718.26 361.09 L716.71 360.9 L715.1 360.02 L713.9 359.17 L711.97 357.07 L710.9 356.15 L709.87 355.78 L708.66 355.56 L707.67 355.25 L707.29 354.6 L707.12 354.66 L704.69 354.98 L704.04 355.2 L703.43 355.5 L702.93 355.9 L702.42 356.74 L701.81 358.83 L701.36 359.78 L700.43 360.79 L695.84 364.31 L693.4 365.62 L692.83 366.14 L692.36 366.18 L691.31 366.22 L690.32 365.86 L687.64 364.34 L686.83 363.62 L686.31 362.36 L686.54 361.34 L694.41 350.86 L695.07 349.54 L692.32 349.88 L689.74 350.65 L687.66 350.42 L686.4 347.78 L686.41 347.23 L686.64 346.09 L686.62 345.53 L686.29 344.76 L685.31 343.41 L685.02 342.67 L685.12 341.57 L685.13 341.52 L685.64 340.02 L686.33 338.58 L686.98 337.61 L687.87 336.98 L688.97 336.66 L690.18 336.57 L691.39 336.64 L692.62 337.03 L695.13 338.38 L696.25 338.61 L697.49 338 L698.5 336.76 L699.36 335.37 L700.21 334.32 L704.85 332.19 L705.8 331.12 L705.81 330.56 L705.81 330.49 L705.45 330.14 L704.92 329.79 L704.4 329.19 L704.24 328.68 L704.24 327.57 L704.16 327.04 L703.63 325.83 L702.44 323.92 L702.16 322.72 L702.27 322.26 L702.52 321.85 L702.72 321.38 L702.66 320.8 L702.3 319.68 L702.24 319.22 L702.24 318.62 L702.34 318.09 L702.73 316.93 L702.82 316.34 L702.75 315.69 L702.41 314.55 L702.4 313.88 L702.24 313.32 L701.72 313.08 L701.13 312.89 L700.75 312.47 L700.75 312.01 L701.22 310.4 L701.33 309.26 L701.33 308.67 L701.19 308.14 L700.8 307.71 L699.82 307.3 L699.46 306.97 L699.33 305.72 L699.69 304.48 L699.82 303.44 L698.98 302.79 L696.72 302.2 L695.75 301.69 L695.34 301.48 L695.21 301.05 L695.14 300.6 L695.32 299.99 L696.12 299.51 L696.49 298.81 L696.79 297.97 L697.36 297.13 L696.76 298.81 L696.55 299.21 L696.92 300.44 L697.63 299.88 L697.97 298.01 L698.58 297.13 L700.21 298.77 L701.02 298.43 L705.33 297.54 L706.07 297.62 L706.56 297.74 L706.99 297.76 L707.57 297.54 L708.92 295.94 L709.19 295.71 L711.44 291.02 L712.08 290.17 L713.41 290.42 L713.69 291.85 L713.26 294.7 L713.9 294.32 L714.3 293.74 L714.64 293.07 L715.11 292.43 L715.65 292 L717.55 290.8 L718.43 289.78 L719.01 288.53 L719.34 287.18 L719.61 284.88 L720.58 282.73 L722.59 279.52 L723.1 278.32 L722.5 277.28 L722.72 275.93 L723.51 273.6 L723.64 272.55 L725.5 266.47 L726.76 264.21 L726.89 263.82 L727.48 262.54 L727.7 261.16 L728.96 257.68 L729.65 256.66 L731.43 254.83 L731.94 253.77 L732.02 252.33 L731.64 249.67 L730.83 247.59 L730.64 247.26 L729.34 247.33 L728.66 247.28 L728.18 247.04 L727.46 245.94 L726.31 242.74 L725.57 241.57 L725.21 240.84 L725.1 240 L725.15 236.52 L724.75 233.75 L724.73 232.97 L725.09 231.66 L725.19 230.85 L724.91 230.49 L724.81 230.25 L724.06 229.23 L723.87 229.07 L723.78 228.66 L723.61 228.36 L723.47 227.95 L723.51 227.23 L723.8 226.58 L724.2 226.07 L724.33 225.53 L723.87 224.8 L724.79 223.83 L725.73 223.55 L726.47 223.12 L726.76 221.72 L727.21 221.05 L728.19 220.61 L729.18 219.95 L729.61 218.66 L726.07 220.66 L725.69 220.96 L725.53 221.48 L725.5 222.53 L725.06 222.72 L723.13 222.85 L722.69 223.35 L722.59 223.82 L722.08 225.27 L721.57 227.66 L721.49 229.38 L721.85 231.11 L723.67 234.26 L723.8 236.07 L722.88 247.69 L722.25 250.11 L721.83 250.76 L720.2 252.58 L719.62 252.96 L718.66 253.25 L716.6 254.44 L715.74 254.62 L715.14 254.33 L714.79 253.53 L714.32 253.37 L713.04 253.51 L712.61 253.36 L711.85 252.78 L711.54 251.8 L712.33 250.87 L714.11 249.67 L714.65 248.42 L714.92 247.52 L715.54 246.99 L717.14 246.81 L717.52 247.06 L717.88 247.57 L718.33 248.03 L718.99 248.07 L719.56 247.73 L719.83 247.23 L719.79 246.62 L719.44 245.96 L719.17 247.22 L718.36 246.95 L716.96 245.59 L715.65 245.74 L714.46 246.35 L713.6 246.62 L713.26 245.78 L713.51 244.47 L714.63 241.92 L714.89 240.49 L715.11 239.75 L715.65 239.46 L716.33 239.33 L716.96 239.07 L717.41 238.61 L718.62 236.68 L718.07 236.82 L717.77 237.01 L717.14 237.66 L716.65 237.86 L715.44 237.76 L714.89 237.82 L714.21 238.28 L713.69 239.01 L711.11 245.65 L707.05 251.35 L705.21 253.34 L703.28 254.18 L702.83 254.96 L702.38 255.52 L701.83 255.85 L701.26 255.84 L700.95 255.59 L700.73 255.23 L700.43 254.83 L699.56 254.44 L698.98 254.89 L698.78 255.87 L698.98 257.07 L699.21 257.24 L700.84 258.9 L701.04 259.39 L701.09 260.07 L701.02 261.36 L700.42 261.9 L699.05 261.72 L696.55 260.73 L694.03 258.59 L693.15 258.1 L692.38 257.34 L692.03 257.07 L691.66 256.96 L690.6 256.82 L690.04 256.66 L687.77 255.21 L681.44 247.75 L676.52 243.15 L674.6 242.52 L672.86 241.69 L670.93 241.75 L667.77 240.7 L666.68 240.2 L664.17 237.99 L662.86 237.49 L661.92 237.5 L661.21 237.37 L660.76 236.83 L660.41 234.81 L659.95 233.92 L658.97 232.52 L658.15 231.67 L655.94 229.9 L655.7 229.52 L655.41 228.89 L655.29 228.31 L655.52 228.05 L655.99 228.17 L656.21 228.42 L656.34 228.7 L656.53 228.86 L658.05 229.23 L658.77 229.27 L659.08 229.46 L659.38 230.48 L660.16 231.32 L661.64 231.25 L663.78 230.48 L666.81 228.03 L669.13 226.88 L671.26 224.49 L671.71 220.95 L670.87 219.15 L670.39 217.29 L670.21 216.8 L670.48 216.18 L671.12 216.05 L671.96 215.6 L672.14 214.15 L671.97 212.64 L670.33 206.29 L669.43 203.78 L669.04 202.68 L668.52 201.76 L667.96 201.08 L667.25 199.97 L665.85 196.52 L665.03 195.46 L664.76 194.69 L664.67 193.82 L664.91 193.14 L667 191.67 L666.74 190.28 L666.76 188.55 L667.29 188.06 L668 187.41 L668.73 187.23 L669.72 187.23 L669.97 186.46 L669.94 185.61 L670.07 184.45 L670.38 183.42 L670.11 182.05 L670.36 181.2 L671.4 180.7 L671.3 179.24 L669.53 176.79 L665.98 172.54 L663.09 167.44 L661.83 164.41 L661.06 162.66 L661.45 161.44 L662.17 160.72 L663 160.01 L663.78 159.17 L664.23 158.59 L664.69 158.01 L665.46 157.17 L666.17 156.34 L666.36 155.82 L667 155.56 L667.84 155.82 L668.68 155.82 L669.52 155.3 L670.29 154.98 L671.2 155.17 L671.9 154.91 L672.61 154.65 L672.49 155.18 L673.58 155.69 L674.48 155.75 L675.19 155.14 L675.64 154.95 L676.09 154.37 L676.74 154.17 L677.31 155.01 L677.83 155.14 L678.92 155.27 L680.4 154.69 L681.69 153.53 L683.04 152.11 L683.9 148.41 L684.12 147.24 L684.91 143.39 L686 140.43 L687.35 137.73 L688.09 135.99 L688.38 135.67 L688.89 135.29 L689.73 135.16 L690.5 134.9 L690.63 136.44 L691.46 137.67 L693.07 138.37 L694.62 138.57 L697.83 138.63 L697.83 137.92 L696.16 137.47 L694.36 137.09 L693.14 137.09 L692.3 136.44 L691.66 134.77 L690.88 133.36 L690.05 133.04 L689.6 132.39 L689.53 130.98 L688.89 129.3 L688.71 127.58 L687.86 125.7 L686.77 124.41 L686.06 121.9 L686.71 121.06 L687.93 120.94 L689.86 119.39 L691.72 116.57 L692.33 115.52 L692.48 114.72 L693.01 113.42 L693.53 112.45 L694.81 112 L695.58 110.78 L696.36 109.49 L697.45 110.46 L698.74 109.82 L700.16 108.72 L701.83 107.5 L705.38 103.64 L708.21 99.99 L709.21 98.76 L709.64 97.57 L709.76 96.84 L710.05 96.59 L710.44 96.46 L711.68 96.07 L712.58 93.81 L713.1 91.82 L713.44 88.69 L713.36 87.26 L712.89 84.72 L712.75 80.21 L713.3 78.64 L713.32 78.12 L713.47 77.9 L714.11 78.21 L714.39 78.51 L714.61 78.95 L714.89 79.84 L715.33 79.84 L715.42 79.09 L716.03 77.93 L716.18 77.4 L716.04 76.65 L715.69 76.12 L714.89 75.33 L713.47 73.01 L713.05 71.83 L712.89 70.63 L713.06 69.31 L713.47 68.63 L714 68.07 L714.52 67.12 L714.63 65.88 L714.31 64.67 L713.88 63.63 L713.48 61.92 L712.94 61.21 L712.1 60.77 L711.03 60.61 L710.26 60.32 L709.73 59.6 L709.39 58.68 L709.19 57.76 L709.17 55.2 L709.85 52.68 L711.12 50.55 L712.89 49.15 L713.91 49.66 L714.78 49.77 L716.76 49.59 L717.64 49.34 L718.81 48.25 L719.62 48 L720.47 47.86 L721.97 47.28 L723.85 46.96 L724.98 46.11 L725.72 45.93 L726.17 45.7 L727.98 44.26 L728.41 43.81 L729.17 42.7 L729.61 42.27 L731.03 41.62 L734.59 40.49 L736.15 39.38 L736.47 39.99 L736.5 40.54 L735.3 44.26 L735.58 45.15 L736.07 45.68 L736.7 46.11 L737.37 46.74 L738.17 48.36 L738.59 48.81 L737.62 46.14 L736.85 45.49 L736.6 45.11 L736.6 44.78 L736.9 44.23 L736.96 43.89 L736.87 42.4 L737.01 41.26 L737.53 40.43 L738.59 39.83 L741.16 40.56 L743.97 38.97 L748.02 35.28 L749.3 34.94 L753.5 35.28 L754.02 35.15 L755.37 34.62 L755.95 34.5 L757.58 34.53 L758.34 34.4 L759 34.05 L760.44 34.81 L762.12 34.58 L763.83 33.98 L765.35 33.65 L766.44 33.07 L770.94 27.11 L771.81 26.63 L773.28 27.14 L774.45 28.11 L775.19 29.33 L775.59 30.78 L775.72 32.46 L776.86 31.86 L777.48 30.97 L777.74 29.86 L777.93 27.24 L778.3 26.55 L778.83 26.01 L779.46 25.1 L779.65 25.61 L780 25.85 L780.48 25.81 L781.08 25.51 L781.62 25.01 L781.7 24.59 L781.68 24.12 L781.89 23.48 L782.87 22.37 L783.86 22.21 L786.37 23.07 L785.94 22.21 L784.87 21.93 L783.63 21.8 L782.67 21.4 L782.26 20.57 L782.46 19.78 L782.99 19.09 L785.21 16.87 L785.56 16.08 L785.53 15.18 L785.32 14.37 Z M712.08 257.88 L714.78 257.97 L718.87 260.5 L721.43 261.14 L721.34 261.6 L721.17 262.03 L720.93 262.42 L720.62 262.77 L719.95 263.33 L716.96 264.62 L716.77 265.15 L715.93 265.95 L715.74 266.27 L715.38 267.19 L714.89 268.1 L714.39 268.62 L714.27 268.63 L713.63 269.72 L712.92 271.15 L712.17 272.51 L711.77 273.48 L710.81 273.87 L710.02 274.77 L710.06 276.16 L709.15 277.02 L708.79 277.88 L707.84 279.24 L705.7 279.03 L704.52 279.73 L703.51 280.03 L702.05 279.92 L700.65 279.55 L699.8 279.1 L699.45 277.78 L699.81 275.67 L700.02 268.5 L700.23 267.7 L702.24 264 L703.09 261.58 L703.94 260.97 L707.57 259.92 L710.82 258.3 Z M140.03 179.03 L141.62 179.55 L142.81 180.81 L142.89 182.1 L141.1 182.69 L139.15 182.45 L134.33 180.25 L135.55 179.03 L136.49 179.21 L139.29 179.17 Z M97.17 173.92 L97.3 174.09 L97.58 174.28 L97.86 174.54 L98.02 174.96 L97.98 175.37 L97.83 175.6 L97.69 175.77 L97.61 175.96 L97.45 176.18 L96.67 176.41 L96.39 176.55 L96.33 176.81 L96.44 177.53 L96.39 177.8 L96.06 178.18 L94.1 179.38 L93.72 179.46 L91.54 179.14 L90.69 178.52 L89.87 177.73 L88.63 176.99 L89.18 176.37 L89.69 175.59 L90.07 174.74 L90.46 172.94 L91.04 172 L91.73 171.67 L92.29 172.52 L93.47 172.21 L95.1 172.53 L96.55 173.21 Z M161.07 140.03 L161.81 140.49 L162.59 140.48 L163.38 140.18 L164.11 139.79 L164.25 142.03 L163.15 144.45 L161.43 146.6 L159.67 148 L157.55 148.62 L157.23 148.99 L157.11 149.55 L156.41 151.29 L155.2 153.1 L154.4 153.95 L153.53 154.55 L152.6 154.84 L151.69 154.94 L149.66 154.91 L149.04 155.11 L147.81 155.98 L146.98 156.17 L146.4 156 L145.12 155.19 L144.54 154.91 L142.42 154.6 L141.9 154.34 L141.81 153.79 L142.18 153.15 L142.91 152.27 L143.41 151.79 L145.78 150.67 L146.58 150.04 L147.2 148 L147.82 147.93 L150.3 147.33 L151 146.65 L151.9 144.74 L152.44 144.05 L154.01 142.57 L154.34 142.06 L154.81 141.69 L156.96 140.9 L157.6 140.27 L158.51 140.22 L160.35 139.74 Z M108.41 131.25 L109.09 131.86 L108.95 133.26 L108.19 135.76 L108.22 136.46 L108.55 137.33 L108.63 138 L108.49 138.17 L107.98 139.47 L108 139.79 L107.01 140.18 L106.29 141.11 L105.66 142.21 L104.93 143.08 L104.39 143.47 L104.07 143.57 L101.16 143.49 L100.87 143.69 L100.55 144.87 L99.77 145.47 L98.71 145.64 L97.61 145.56 L95.58 144.86 L94.3 144.6 L93.9 144.31 L93.62 144.02 L93.3 143.9 L92.86 143.49 L91.59 141.63 L91.07 141.05 L90.2 141.14 L89.09 140.88 L88.05 140.4 L87.41 139.79 L87.3 139.03 L87.41 136.13 L87.75 134.58 L88.42 133.13 L89.28 131.87 L90.22 130.87 L90.79 130.48 L92.41 129.79 L93.1 129.62 L93.75 129.64 L95.09 129.97 L95.54 130.02 L96.11 129.86 L96.79 129.41 L97.17 129.24 L102.82 128.6 L104.12 127.95 L104.45 128.08 L104.8 128.28 L105.13 128.54 L105.38 128.8 L105.51 129.38 L105.46 130.07 L105.51 130.64 L105.97 130.87 L106.58 130.93 L107.75 131.19 Z M36.37 126.16 L35.79 126.49 L31.67 128.15 L30.63 128.37 L30.03 128.4 L29.47 128.21 L28.2 127.36 L27.1 127.08 L25.32 126.36 L25.04 126.32 L24.41 126.4 L24.13 126.36 L23.84 126.16 L23.83 125.97 L23.88 125.76 L23.73 125.51 L22.7 124.44 L21.92 123.22 L21.43 121.88 L21.03 119.15 L20.27 116.9 L20.44 116.15 L25.66 116.29 L27.87 115.16 L30.64 114.52 L32.02 114.03 L32.42 114.1 L33.12 114.52 L35.19 116.64 L35.75 116.97 L36.47 117.52 L36.63 118.78 L36.37 121.03 Z M86.19 116.15 L86.99 116.62 L86.59 117.69 L85.34 119.61 L84.89 120.85 L83.81 121.21 L82.46 121.03 L79.91 120.26 L75.76 120.26 L74.61 119.9 L73.55 119.24 L72.43 118.88 L71.1 119.41 L70.27 118.4 L69.89 116.87 L69.27 115.6 L67.77 115.34 L70.3 111.85 L70.45 111.05 L70.1 109.99 L70.59 108.96 L71.57 108.19 L72.69 107.98 L73.12 108.29 L73.3 108.27 L73.54 107.98 L74.71 108.82 L78.78 110.19 L80.23 110.42 L82.17 111.17 L85.27 114.65 L86.96 115.74 L86.71 115.8 L86.55 115.89 Z M71.5 142.71 L72.06 143 L72.43 143 L72.63 143.2 L72.69 144.1 L72.39 144.45 L70.95 145.04 L70.45 145.33 L68.58 151.17 L68.82 152.63 L68.69 153.72 L67.4 153.32 L66.71 154.32 L65.18 156.03 L64.52 156.99 L63.51 156.52 L62.52 156.43 L60.63 156.58 L59.49 156.89 L57.58 158.3 L50.75 160.56 L49.43 160.24 L48.51 160.52 L43.15 159.76 L36.45 159.86 L35.2 159.46 L34.3 158.61 L34.04 157.98 L33.94 157.34 L33.94 155.95 L33.71 155.27 L33.16 155.1 L32.47 155.1 L31.83 154.91 L30.34 152.58 L30.88 149.86 L32.51 147.31 L34.3 145.56 L41.25 141.05 L41.57 140.56 L41.57 140.16 L41.77 139.89 L42.7 139.79 L44.21 139.16 L46.28 138.61 L46.99 138.6 L47.64 138.78 L48.02 139.04 L48.27 139.28 L48.58 139.46 L49.61 139.8 L50.26 139.85 L50.87 139.62 L51.17 139.26 L51.75 138.37 L52.07 138.19 L52.09 137.56 L52.62 136.32 L53.46 135.4 L54.35 135.76 L55.06 134.77 L55.1 133.88 L54.66 133.1 L53.9 132.46 L53.11 132.09 L51.35 131.57 L50.65 131.25 L49.24 129.95 L47.82 128.05 L46.69 125.92 L46.14 123.92 L46.23 122.2 L46.05 121.59 L45.32 121.03 L44.85 120.88 L44.07 120.8 L43.7 120.63 L43.48 120.37 L42.92 119.41 L39.3 117.48 L37.93 115.97 L38 114.08 L36.81 113.38 L36.05 112.07 L36.17 110.85 L37.59 110.42 L36.51 108.88 L36.1 108 L35.93 106.97 L35.93 104.91 L35.87 104.39 L35.62 103.43 L35.56 102.86 L35.05 100.88 L33.72 99.89 L31.88 99.84 L29.83 100.62 L27.77 102.03 L26.72 102.26 L25.54 101.64 L24.32 100.02 L24.13 99.61 L24.26 99.09 L24.6 98.83 L25.05 98.65 L29.08 96.41 L30.21 95.24 L30.64 92.85 L32.11 93.32 L33.3 93 L34.43 92.4 L36.37 91.88 L36.78 91.4 L37.13 90.84 L37.59 90.42 L38.3 90.2 L39.4 90.25 L40.03 90.01 L40.99 90.88 L41.44 92.25 L41.66 93.52 L41.88 94.08 L42.67 94.65 L43.38 97.2 L43.9 97.78 L44.27 98.03 L45.11 99.15 L45.53 99.41 L46.81 99.46 L47.4 99.58 L47.8 99.81 L48.22 100.86 L48.31 102.32 L48.17 105.1 L49.27 111.75 L49.93 112.79 L52.41 115.04 L52.64 115.31 L52.69 115.65 L52.68 116.35 L52.87 117.02 L53.29 117.31 L53.71 117.4 L53.9 117.58 L59.97 121.41 L60.41 122.07 L60.55 122.62 L60.89 123.11 L61.67 123.92 L61.94 124.09 L62.89 124.33 L62.91 124.68 L62.76 125.03 L62.59 125.34 L62.52 125.51 L63.05 127.78 L63.3 130.24 L62.95 131.37 L61.34 132.74 L60.86 133.69 L62.19 132.81 L62.58 133.33 L62.62 134.44 L62.89 135.35 L65.41 135.81 L66.65 136.46 L66.55 137.79 L67.38 137.9 L68.07 138.22 L68.63 138.75 L69.03 139.46 L68.62 140.27 L69.42 140.6 Z M89.24 82.28 L88.66 82.07 L88.09 81.58 L87.63 81.04 L87.41 80.66 L87.54 79.3 L88.48 78.31 L89.79 77.67 L91.07 77.4 L92.42 77.83 L93.85 78.52 L95.01 79.46 L95.54 80.66 L95.15 81.52 L94.1 82.49 L92.77 83.24 L91.51 83.5 L90.79 83.26 L90.01 82.45 Z M72.32 60.24 L74.75 61.6 L75.49 64.3 L74.53 66.19 L71.87 65.12 L72.29 63.86 L71.89 61.31 Z M781.08 17.3 L781.09 17.86 L781.17 18.26 L781.45 18.96 L781.51 20.96 L781.22 23.42 L780.44 24.98 L779.01 24.29 L778.44 24.96 L777.79 25.51 L776.58 24.59 L775.69 23.61 L775.49 22.5 L776.37 21.22 Z M11.46 16.57 L11.74 16.67 L11.95 17.12 L11.85 17.4 L11.55 17.66 L11.26 17.48 L11.1 17.13 L11.1 16.79 Z M11.29 16.09 L11.56 16.07 L11.39 16.27 Z M0 0.34 L0.33 0 L0.7 0.26 L0.7 0.79 L0.29 0.88 Z M726.39 247.33 L727.02 248.87 L728.47 249.41 L729.19 250.68 L727.93 252.58 L725.85 253.66 L725.58 256.28 L724.13 257.19 L722.96 257.1 L722.69 255.74 L723.5 253.48 L724.76 250.23 Z "/>
</g>
</svg>
