<svg xmlns="http://www.w3.org/2000/svg" viewBox="0 0 1000 888.29">
<g fill="#ccc" stroke="#333" stroke-width="0.5" stroke-linejoin="round">
<path fill-rule="evenodd" d="M782.91 42.71 L783.75 45.33 L786.98 55.41 L789.56 63.47 L792.7 71.78 L796.87 82.86 L801.92 96.2 L803.7 103.77 L803.88 107.7 L804.37 109.32 L805.67 111.1 L806.49 112.28 L806.47 113.57 L805.69 116.41 L805.55 118.08 L805.72 119.17 L806.29 120.06 L810.76 123.99 L811.67 125.35 L814.38 133.18 L819.22 147.15 L822.39 156.27 L822.62 156.8 L822.76 157.35 L822.81 157.92 L822.77 158.5 L823.29 163.64 L826.88 173.51 L830.08 182.38 L832.19 192.09 L832.04 198.6 L832.61 200.85 L834.49 204.75 L835.19 206.09 L834.26 206.58 L833.57 207.11 L832.98 207.77 L832.39 208.65 L831.94 209.75 L831.67 210.72 L831.21 211.46 L830.17 211.87 L830.45 211.95 L830.69 211.96 L830.81 212.09 L830.77 212.57 L830.07 212.92 L829.53 213.41 L829.33 213.95 L829.65 214.49 L828.87 214.64 L828.51 214.89 L828.57 215.25 L829.09 215.72 L828.14 216.63 L826.25 219.62 L825.85 220.02 L824.97 220.49 L824.57 220.84 L824.23 221.41 L823.97 221.96 L823.58 222.46 L822.9 222.89 L822.9 223.47 L823.61 224.77 L823.34 226.11 L822.7 227.41 L822.28 228.6 L822.28 233.44 L821.84 234.59 L820.89 235.45 L819.93 236.12 L819.49 236.67 L819.4 237.98 L819.09 239.48 L818.58 240.93 L817.82 242.1 L818.02 243.19 L817.82 248.86 L817.98 249.76 L818.8 250.92 L818.98 252.05 L818.73 253.14 L818.12 253.66 L817.37 253.94 L815.54 255.13 L815.25 255.63 L815.01 256.88 L815.06 257.45 L815.48 259.35 L815.57 264.91 L813.38 266.5 L813.38 267.09 L813.62 267.94 L813.86 269.21 L813.86 270.57 L813.38 271.67 L813.68 272 L813.94 272.42 L814.45 273.53 L813.7 274.03 L813.58 274.54 L813.76 275.11 L813.9 275.79 L813.72 276.77 L813.34 277.41 L812.96 277.87 L812.78 278.34 L812.34 279.99 L810.42 282.71 L809.28 287.02 L805.99 292.01 L804.94 294.67 L804.86 294.92 L804.87 295.16 L804.77 295.3 L804.39 295.25 L805.45 298.11 L804.47 299.93 L802.6 301.33 L800.98 302.94 L801.22 303.14 L801.3 303.18 L801.5 303.64 L800.38 304.19 L799.78 305.41 L799 309.55 L798.7 310.57 L797.74 312.13 L797.58 312.19 L797.32 313.25 L796.16 315.55 L795.9 316.66 L795.98 318.23 L796.2 319.44 L796.56 320.47 L797.02 321.48 L797.02 322.06 L796.39 323.62 L797.06 325.02 L798.14 326.29 L798.86 327.79 L799.63 328.53 L799.86 329.04 L799.86 329.73 L799.64 330.12 L799.42 330.39 L799.31 330.68 L799.24 331.84 L798.5 335.1 L797.52 337.71 L798.94 340.3 L797.58 346.84 L798.19 347.54 L796.06 347.86 L795.39 348.17 L795.12 348.69 L794.87 349.56 L794.51 350.35 L793.44 351 L792.94 352.35 L792.26 352.66 L791.64 352.73 L790.51 353.11 L789.71 353.23 L789.87 353.61 L789.89 353.7 L789.97 353.73 L790.31 353.92 L789.7 355.33 L788.86 358.13 L788.07 358.99 L787.51 358.99 L787.25 358.5 L786.57 358.26 L786.03 357.84 L785.46 358.4 L784.91 360.46 L784.15 361.51 L784.83 362.65 L783.79 363.65 L782.19 364.35 L781.09 364.61 L780.33 364.55 L780.11 364.59 L780.44 366.05 L780.69 366.6 L783.65 366.63 L783.65 367.2 L783.03 367.2 L783.03 367.83 L783.46 368.21 L783.74 368.64 L784.15 369.72 L783.35 369.32 L783.03 369.1 L783.15 369.44 L783.15 369.61 L783.25 369.68 L783.65 369.72 L783.65 370.41 L783.03 370.41 L782.63 369.6 L781.21 367.67 L779.65 366.03 L778.95 365.45 L778.12 365.03 L776.89 364.61 L769 363.74 L767.03 362.46 L761.55 355.78 L761.13 355.47 L760.43 355.54 L755.76 351.23 L754.71 350.67 L753.64 350.6 L752.7 351.33 L751.56 348.86 L751.02 349.43 L750.28 348.53 L747.43 346.1 L746.76 345.77 L746.54 345.64 L746.23 345.23 L745.94 344.43 L745.68 344.05 L745.11 343.6 L744.49 343.34 L743.19 343.05 L743.24 340.72 L739.31 338.29 L739.27 336.65 L738.12 335.64 L736.72 333.73 L735.76 331.72 L735.92 330.37 L735.53 330.07 L735.2 329.89 L734.93 329.61 L734.76 329.04 L734.24 329.04 L734.24 329.73 L733.64 329.73 L733.38 329.28 L732.66 328.44 L732.52 328.15 L731.3 323.61 L730.86 322.93 L730.28 323.33 L729.64 322.08 L727.72 319.2 L726.93 317.68 L716.22 311.23 L715.69 310.25 L715.34 310.13 L713.45 306.76 L711.87 305.29 L710.9 304.16 L710.91 303.64 L705.67 299.74 L704.82 298.84 L704.45 298.14 L704.19 297.38 L703.51 296.22 L702.61 295.16 L701.66 294.67 L702.17 293.98 L702.17 294.67 L702.77 294.67 L702.21 291.6 L700.83 291.38 L700.14 292.62 L701.66 293.98 L700.29 293.51 L699.41 292.32 L698.95 290.6 L698.61 286.85 L698.09 285.27 L696.63 282.45 L697.45 280.6 L698.51 276.3 L699.37 274.17 L698.35 272.92 L697.89 272.19 L697.45 270.31 L696.85 269.86 L696.13 269.58 L695.5 269.06 L694.98 267.33 L694.72 263.18 L694.38 261.98 L694.38 261.41 L695.1 260.53 L695.22 259.72 L694.9 257.57 L694.73 257.07 L694.41 255.73 L694.26 254.32 L694.65 253.68 L695.25 253.06 L694.66 251.79 L693.72 250.76 L693.22 250.83 L693.05 249.82 L692.56 249.11 L691.86 248.84 L691.04 249.14 L690.18 248.04 L687.97 246.84 L687.12 246 L686.1 243.65 L685.94 243.1 L685.69 242.58 L684.5 241.63 L684.22 241.18 L683.97 241.02 L682.6 238.91 L682.35 238.73 L681.67 238.42 L681.43 238.27 L681.29 238 L681.08 237.24 L680.92 236.98 L677.23 233.14 L675.93 232.72 L674.11 231.69 L672.38 230.43 L671.31 229.3 L670.86 227.81 L670.48 225.88 L669.9 224.19 L668.82 223.47 L668.06 223.17 L667.52 222.43 L665.86 218.4 L665.72 218.34 L666.02 214.83 L665.71 213.23 L663.5 212.16 L659.51 209.29 L660.14 209.29 L659.83 208.62 L659.47 208.28 L659.03 208.13 L658.45 208.01 L658.65 207.8 L658.87 207.61 L659.01 207.29 L658.95 206.67 L658.45 206.67 L658.06 207.48 L657.87 208.21 L657.99 208.83 L658.45 209.29 L657.34 209.29 L657.95 205.83 L658.09 201.43 L657.13 197.58 L654.54 195.74 L654.54 195.16 L655.03 194.03 L654.97 192.7 L654.67 191.31 L654.54 189.96 L654.74 188.57 L655.45 186.64 L655.61 185.74 L655.55 184.16 L655.35 183.14 L655.03 182.37 L654.54 181.52 L652.54 179.04 L652.26 177.98 L651.89 177.39 L650.01 175.44 L648.29 174.6 L648.7 173.68 L649.56 172.81 L650.01 172.51 L650 169.87 L648.94 168.03 L645.59 164.71 L646.32 164.22 L646.64 163.78 L646.57 163.34 L646.1 162.83 L646.57 162.65 L646.73 162.48 L646.57 162.3 L646.1 162.13 L645.77 161.57 L645.38 161.05 L644.93 160.6 L644.78 160.22 L644.87 159.98 L645.14 159.78 L645.47 159.63 L646.1 159.54 L646.1 158.96 L645.91 158.27 L645.91 157.72 L646.1 156.91 L645.59 156.91 L644.53 159.2 L644.44 160.21 L644.65 160.96 L645.1 161.48 L645.5 162.17 L645.59 163.42 L644.98 163.42 L644.79 162.22 L644.15 161.57 L643.23 161.53 L642.19 162.13 L640.83 161.62 L639.23 162.65 L637.84 164.4 L637.11 166 L637.01 167.73 L637.51 169.14 L638.67 170.12 L640.51 170.57 L639.04 171.78 L632.19 181.42 L631.79 182.17 L630.96 183.07 L628.59 187.42 L628.11 188.96 L628.06 192.86 L627.58 194.45 L626.44 195.74 L626.44 196.45 L627.31 197.15 L628.24 198.44 L628.98 199.77 L629.64 201.76 L630.54 202.74 L634.71 205.45 L635.75 206.35 L639.51 210.79 L642.07 212.33 L644.4 214.76 L646.38 217.46 L647.22 219.3 L647.54 221.61 L648.37 224.71 L649.45 227.6 L650.57 229.3 L650.57 229.88 L650.27 231.56 L652.52 240.78 L652.75 241.7 L652.81 243.74 L652.36 244.51 L651.54 245.25 L651.11 246.34 L650.23 246.74 L649.94 247.57 L650.57 248.56 L650.15 251.34 L650.01 254.64 L650.55 255.65 L653.06 258.25 L653.93 259.43 L654.19 260.42 L654.25 262.3 L654.54 263.26 L656.39 265.3 L656.73 265.52 L660.14 270.34 L663.03 270.85 L664.86 272.83 L665.99 275.66 L669.64 289.51 L669.94 291.43 L670.82 291.76 L674.72 293.98 L676.7 295.9 L677.69 297.13 L678.46 298.8 L679.25 299.11 L680.17 299.33 L680.92 299.77 L681.19 300.34 L681.75 302.23 L684.1 306.79 L684.84 307.46 L684.86 307.86 L684.74 307.98 L684.51 307.97 L684.22 308.03 L687.85 311.02 L689.42 313.02 L689.3 315.02 L689.93 315.55 L690.49 316.59 L690.89 317.75 L691.04 318.57 L691.37 318.88 L693.22 321.48 L697.1 325.65 L698.05 327.64 L698.87 328.13 L699.81 328.53 L700.49 329.04 L700.89 330.28 L700.83 331.31 L701.1 332.01 L702.47 332.27 L703.87 332.98 L706.59 336.33 L708.37 337.34 L708.26 337.93 L708.37 338.68 L708.37 339.24 L708.2 340 L708.82 340.58 L709.79 340.81 L710.66 340.57 L711.36 341.94 L713.16 342.74 L716.85 343.74 L722.65 349.07 L724.53 353.02 L725.51 353.92 L726.08 354.87 L727.86 359.13 L728.04 360.24 L728.04 360.82 L728.44 361.53 L728.76 363.33 L729.16 364.04 L729.16 364.61 L728.6 364.61 L727.48 364.61 L726.55 362.56 L724.61 361.39 L722.43 360.57 L720.72 359.55 L720.17 359.55 L719.67 360.88 L719.45 361.66 L719.61 362.34 L720.17 363.35 L721.73 364.96 L722.59 366.11 L722.96 367.51 L723.49 368.26 L724.67 367.9 L725.84 367.36 L726.37 367.51 L726.25 368.78 L725.93 370.11 L725.39 371.35 L724.64 372.31 L724.97 372.64 L725.41 373.23 L725.76 373.52 L727.24 374.61 L727.76 374.78 L728 375.14 L728.8 376.85 L729.16 377.36 L729.16 377.99 L728.3 377.27 L726.37 374.78 L725.76 374.78 L725.76 375.46 L726.05 375.96 L726.37 376.79 L725.76 376.79 L725.25 374.98 L723.8 375.13 L722.21 376.41 L721.33 377.99 L723.24 378.99 L724.6 380.81 L726.93 384.93 L726.61 385.52 L726.4 386.27 L726.29 387.14 L726.37 388.14 L727.72 389.15 L731.3 390.79 L732.52 391.92 L732.76 392.77 L732.86 394.79 L733.12 395.71 L733.68 396.48 L735.06 397.97 L735.64 398.89 L736.16 400.76 L736.76 404.85 L737.32 406.13 L740.03 408.73 L743.19 410.88 L746.66 412.56 L748.27 413.7 L749.34 415.28 L749.51 416.25 L749.34 419.74 L749.15 420.05 L748.41 420.66 L748.22 421 L748.27 421.54 L748.68 422.34 L748.78 422.88 L748.86 424.92 L749.2 426.49 L750.06 427.76 L751.6 428.85 L753 430.17 L754.5 432.2 L755.1 433.73 L753.87 433.56 L753.88 435.03 L754.46 436.29 L756.1 438.58 L756.8 439.97 L757.83 442.69 L758.62 443.94 L759.65 444.78 L760.84 445.41 L761.83 446.11 L762.25 447.1 L762.79 450.01 L762.87 451.47 L762.25 452.49 L760.91 452.56 L760.01 451.71 L759.27 451.4 L758.34 453.12 L758.14 454.33 L758.14 455.97 L758.3 457.58 L758.62 458.78 L758.64 461.16 L757.02 466.73 L757.78 469.4 L758.92 470.36 L761.57 471.18 L762.87 471.95 L763.72 473.23 L764.53 476.07 L767.19 479.58 L768.36 482.09 L771.16 490.16 L772.37 492.57 L774.04 495.13 L775.13 497.44 L777.11 500.38 L784.03 516.39 L787.23 521.11 L790.31 528.95 L796.76 537.93 L797.38 539.11 L798.18 541.69 L803.67 549.9 L806.65 553.17 L807.33 554.13 L814.45 568.27 L815.57 572.57 L817.56 576.41 L818.42 581.04 L819.9 583.55 L823.45 588.06 L823.94 589.19 L824.71 591.83 L825.22 593.06 L827.67 596.83 L828.65 600.71 L832.45 607.29 L839.48 619.54 L839.8 622.44 L840.68 624.89 L842 626.49 L843.63 628.42 L843.9 630.08 L843.97 633.45 L844.19 635.15 L844.65 636.49 L845.31 637.5 L846.25 638.34 L847.55 639.18 L849.67 641.14 L851.08 643.73 L852.99 650.81 L853.44 651.99 L854.87 654.34 L856.43 657.2 L857.59 658.22 L857.62 659.67 L856.3 662.44 L856.31 664.92 L859.68 666.22 L863.75 673.92 L874.82 682.37 L876.56 684.47 L879.57 693.16 L881.79 695.58 L884.91 700.08 L886.28 699.87 L885.67 698.62 L884.9 697.38 L885.73 697.24 L887.4 698.97 L889.68 699.93 L892.65 703.04 L893.83 705.53 L894.04 708.16 L896.52 709.68 L899.08 709.19 L901.08 709.75 L903.23 710.44 L904.95 711.34 L906.2 712.65 L907.92 716.66 L909.37 718.6 L908.82 719.43 L907.58 717.7 L905.92 715.9 L904.74 715.83 L901.77 717.21 L900.53 717.83 L898.87 717.13 L897.35 716.52 L895.83 716.24 L894.73 716.38 L893.48 716.17 L891.96 715.55 L891.41 714.79 L890.47 713.68 L889.63 713.39 L889.55 712.94 L888.3 712.37 L886.56 711.9 L885.82 712.44 L884.7 714.54 L884.09 717.21 L884.65 721.49 L883.89 725.22 L883.35 727.95 L884.04 730.22 L885.56 730.56 L886.25 731.66 L886.18 732.97 L885.92 733.61 L886.04 735.11 L886.11 736.15 L886.25 738.14 L885.87 741.85 L885.72 749.61 L885.54 751.01 L884.74 753.49 L884.55 754.85 L884.87 756.15 L885.63 757.51 L887.4 760.03 L888.8 762.65 L889.31 764.04 L889.63 765.51 L889.53 769.73 L890.18 774.02 L890.93 777.29 L891.53 780.22 L895.33 786.75 L879.62 801.07 L861.84 818.15 L872.78 807.89 L884.32 797.08 L895.33 786.75 L896.48 789.27 L898.08 792.58 L899.16 800.69 L899.75 802.12 L901.41 805.18 L904.83 809.46 L907.01 810.67 L906.02 809.29 L903.71 805.21 L905.31 805.26 L906.36 806.06 L907.07 807.36 L907.62 808.9 L908.5 813.27 L908.75 813.98 L910.09 814.92 L910.77 815.92 L911.35 817.03 L912.41 818.28 L913.88 820.21 L917.02 822.64 L919.99 823.84 L921.46 824.33 L921.7 824.67 L922.74 825.41 L923.86 825.99 L925.08 826.36 L929.64 826.68 L936.24 827.97 L942.56 830.1 L944.88 831.54 L948.86 835.36 L950.16 837.5 L950.63 841.6 L952.03 844.29 L954.47 846.46 L957.03 848.4 L958.29 848.98 L959.51 849.5 L959.25 848.11 L959.68 848.11 L961.42 850.1 L960.99 852.62 L962.38 856.27 L967.94 858.78 L970.63 860.34 L972.46 861.56 L977.41 865.73 L984.81 872.84 L986.37 873.68 L987.58 873.57 L987.89 873.04 L988.05 872.49 L988.34 872.16 L989 872.33 L990.42 873.26 L991.09 873.86 L991.52 874.47 L992.65 877.12 L993.37 878.17 L994.6 879.32 L997.77 881.24 L999.69 881.95 L1000 885.15 L999.94 886.25 L999.4 887.19 L998.74 888.09 L998.73 888.17 L979.58 888.17 L960.53 888.17 L941.48 888.18 L922.42 888.18 L903.37 888.18 L884.3 888.18 L865.25 888.18 L846.2 888.18 L827.15 888.18 L808.09 888.19 L789.03 888.19 L769.98 888.19 L769.47 888.19 L768.81 888.19 L750.92 888.19 L731.87 888.19 L712.81 888.19 L695.51 888.2 L693.76 888.2 L693.68 888.2 L685.38 888.2 L677 888.2 L668.61 888.2 L660.23 888.2 L651.84 888.2 L643.45 888.2 L641.74 888.2 L635.07 888.2 L626.69 888.2 L618.3 888.2 L609.92 888.2 L601.53 888.2 L593.15 888.2 L584.77 888.2 L576.39 888.2 L568 888.2 L559.62 888.2 L557.4 888.2 L552.55 888.2 L555.17 880.36 L557.06 874.69 L557.17 872.48 L556.44 870.52 L554.64 868.74 L553.13 867.97 L551.55 867.73 L549.98 868.01 L548.45 868.83 L546.33 871.16 L542.64 878.75 L542.35 879.33 L538.32 887.63 L537.23 888.29 L534.1 888.29 L526.14 888.29 L518.16 888.28 L510.19 888.28 L502.21 888.28 L494.24 888.28 L486.27 888.28 L478.3 888.28 L470.33 888.28 L462.37 888.27 L454.4 888.27 L446.41 888.27 L438.45 888.27 L430.48 888.27 L422.51 888.27 L414.55 888.26 L406.57 888.26 L398.6 888.26 L390.63 888.26 L382.65 888.26 L374.69 888.26 L366.73 888.26 L358.75 888.26 L350.78 888.26 L342.81 888.26 L334.84 888.25 L326.87 888.25 L318.89 888.25 L310.92 888.25 L302.96 888.25 L294.98 888.25 L287.01 888.25 L279.05 888.25 L271.07 888.25 L263.1 888.24 L255.13 888.24 L247.16 888.24 L239.19 888.24 L231.22 888.24 L223.24 888.24 L215.27 888.24 L207.31 888.23 L199.33 888.23 L191.36 888.23 L183.39 888.23 L175.42 888.23 L167.46 888.23 L159.48 888.22 L151.51 888.22 L143.54 888.22 L135.57 888.22 L127.61 888.22 L119.63 888.22 L111.67 888.22 L103.69 888.21 L95.72 888.21 L87.75 888.21 L79.79 888.21 L71.81 888.21 L63.84 888.21 L55.88 888.21 L47.9 888.21 L39.92 888.21 L31.95 888.21 L23.99 888.2 L23.99 862.4 L23.99 836.55 L23.99 810.64 L23.99 784.67 L23.99 758.65 L23.99 732.57 L23.99 706.42 L23.99 680.23 L23.99 653.97 L23.99 627.65 L23.99 601.27 L23.99 574.82 L23.99 548.32 L23.99 521.74 L23.99 495.1 L23.99 468.39 L23.99 450.46 L23.99 433.07 L23.99 424.9 L23.99 393.81 L23.99 379.73 L23.99 376.16 L23.99 343.55 L23.99 336.3 L23.99 299.57 L23.99 262.36 L23.99 246.66 L23.99 235.08 L23.42 229.68 L21.97 224.64 L15.18 208.13 L14.37 204.88 L14.19 201.24 L14.92 194.42 L14.93 192.12 L13.75 188.25 L9.55 181.15 L9 177.22 L10.37 172.3 L10.47 170.42 L10.1 168.3 L3.05 150.57 L0.74 146.39 L0 144.35 L0.03 140.69 L1.34 137.36 L4.73 131.21 L6.1 127.96 L6.88 126.63 L9.1 123.8 L11.58 121.27 L16.36 113.97 L17.96 110.71 L18.73 107.5 L19 105.61 L21.48 99.06 L22.35 93.82 L23.36 90.01 L24.59 86.74 L25.1 83.45 L23.99 79.6 L20.42 71.94 L19.35 67.07 L16.48 61.14 L15.91 59.2 L14.02 48.98 L13.94 41.14 L13.13 33.08 L13.15 29.57 L14.16 26.53 L27.47 15.58 L30.47 7.42 L32.76 4.13 L37.88 0 L37.76 0.73 L38.77 7.01 L39.68 10.09 L41.16 12.02 L42.93 12.51 L47.1 12.77 L50.26 14.41 L51.96 14.43 L55.7 13.86 L56.49 14.11 L57.43 14.55 L58.43 14.74 L59.93 13.87 L61.95 13.35 L64.33 13.07 L77.65 9.21 L93.01 4 L96.68 3.42 L104.7 3.84 L137.08 12.94 L160.7 16.12 L162.06 16.87 L163.36 17.33 L167.44 17.04 L169.1 17.2 L174.96 20.05 L178.32 21.11 L182.08 21.14 L185.05 20.01 L186.49 19.88 L187.89 20.81 L189.02 21.89 L189.85 22.24 L190.61 22.29 L191.53 22.51 L193.76 23.81 L198.92 25.56 L204.47 26.14 L206.51 26.74 L207.84 27.74 L208.35 27.3 L209.13 26.82 L209.47 26.44 L210.44 26.56 L215.57 26.46 L216.13 26.64 L216.73 27.03 L217.34 27.69 L217.32 28.03 L217.16 28.38 L217.34 29.06 L217.96 30.27 L218.33 30.8 L218.74 31.02 L218.98 31.31 L219.1 32.75 L219.32 33.31 L219.9 34.38 L220.72 37.25 L221.54 38.57 L223.5 40.25 L225.86 41.59 L228.46 42.48 L233.58 43.26 L235.62 44.1 L237.44 44.47 L239.26 43.51 L243.39 45.7 L248.23 44.84 L257.75 40.18 L259.16 39.95 L260.01 40.6 L260.44 41.95 L260.55 43.83 L260.78 44.62 L262.22 48.08 L262.55 51.22 L262.78 52 L265.22 53.47 L269.17 54.04 L283.86 54.02 L284.82 54.26 L285.56 54.82 L286.22 55.45 L286.88 55.92 L287.9 56.2 L290.33 55.92 L292.2 56.13 L295.7 57.02 L297.28 57.22 L298.94 56.81 L302.5 55.03 L304.37 54.67 L305.96 54.96 L307.42 55.64 L308.7 56.55 L309.68 57.58 L310.4 57.99 L313.31 57.94 L314.41 58.15 L315.29 58.49 L316.66 59.24 L331.21 64.46 L334.12 66.12 L335.72 66.79 L337.71 67.07 L338.2 67.6 L338.77 70.15 L339.09 71.04 L339.65 71.46 L341.17 71.92 L355.4 79.45 L368.6 78.86 L371.03 78.4 L382.23 72.96 L394.32 67.08 L398.66 63.81 L402.08 62.03 L402.55 61.79 L403.14 60.84 L403.77 60.14 L415.83 51.32 L417.1 48.79 L419.38 49.33 L421.76 48.2 L425.55 44.81 L424.81 43.73 L424.5 43.8 L423.82 44.16 L424.28 43.19 L424.92 42.51 L425.56 42.49 L426.06 43.51 L426.66 43.51 L427.6 42.46 L431.41 39.02 L432.54 38.28 L433.62 37.75 L435.25 35.47 L435.92 34.95 L437.05 34.72 L437.7 34.2 L438.24 33.55 L439.01 32.98 L438.76 32.87 L438.54 32.87 L438.41 32.75 L438.46 32.27 L440.69 31.02 L440.45 33.76 L442.77 35.61 L443.06 35.7 L446.13 36.64 L449.13 36.97 L448.46 37.39 L447.53 38.46 L446.85 38.87 L446.79 39.35 L446.91 39.49 L447.17 39.5 L447.45 39.58 L446.47 40.24 L446.77 40.99 L447.66 41.69 L448.53 42.2 L451.93 40.18 L451.51 41.27 L451.96 41.81 L452.67 41.95 L453.05 41.88 L453.37 41.24 L455.84 38.87 L456.07 39.33 L456.13 39.37 L456.4 39.58 L456.6 39.03 L456.78 38.71 L456.92 38.32 L457.01 37.56 L457.52 37.56 L457.48 38.59 L457.65 39.37 L458.04 39.89 L458.64 40.18 L458.97 39.54 L459.81 36.97 L458.55 36.32 L457.39 36.6 L456.18 37.21 L454.72 37.56 L454.72 36.97 L454.98 36.92 L455.58 37 L455.84 36.97 L455.84 36.31 L454.52 36.72 L449.69 36.97 L449.69 36.31 L452.73 35.53 L455.61 33.9 L460.61 29.38 L462.39 26.46 L463.53 22.59 L463.85 18.58 L463.16 15.24 L463.72 15.24 L464.13 17.08 L464.85 18.87 L465.99 20.16 L467.64 20.48 L465.35 18.73 L464.13 15.9 L464.65 14.2 L467.64 15.89 L469.85 17.58 L472.37 18.62 L475.33 18.96 L478.88 18.51 L490.4 15.41 L514.75 6.71 L514.75 7.36 L513.51 7.54 L505.95 10.4 L499.62 14.05 L495.28 16.13 L491.78 18.51 L491.32 18.73 L490.2 18.92 L489.54 19.17 L486.43 21.35 L485.01 21.85 L481.75 22.09 L481.05 22.51 L480.68 22.51 L479.44 24.41 L479.44 25.12 L481.12 25.58 L481.7 25.59 L482.22 25.12 L482.78 25.12 L484.02 25.85 L486.32 25.73 L488.54 25.04 L489.54 24.11 L490.28 22.57 L491.92 23.02 L493.63 24.44 L494.58 25.78 L495.14 25.78 L495.66 24.11 L496.92 22.43 L498.44 21.11 L499.66 20.48 L500.39 20.18 L501.3 20.6 L502.36 21.31 L503.57 21.85 L504.35 21.75 L505.4 21.44 L506.55 21.33 L507.53 21.85 L507.28 21.94 L507.05 21.94 L506.93 22.05 L506.97 22.51 L508.08 22.81 L509.47 22.36 L510.87 21.47 L511.95 20.48 L511.75 20.38 L511.55 20.4 L511.43 20.31 L511.45 19.88 L511.73 19.68 L511.77 19.59 L511.79 19.48 L511.95 19.17 L514.76 20.41 L515.31 21.14 L516.07 20.49 L516.64 19.74 L517.55 17.79 L517.07 17 L517.36 16.36 L518.67 15.24 L518.91 14.65 L518.82 14.16 L518.8 13.71 L519.28 13.27 L519.75 13.15 L522.73 13.38 L523.5 13.68 L524.87 14.58 L525.09 14.94 L525.06 15.39 L525.21 15.76 L525.99 15.89 L526.65 15.7 L527.15 15.25 L527.47 14.61 L525.99 13.86 L526.51 13.5 L527.01 13.32 L527.57 13.41 L525.99 11.22 L522.69 8.76 L518.79 7.07 L515.09 6.94 L515.87 6.5 L517.9 5.73 L524.87 4.67 L527.43 4.96 L534.99 7.36 L545.55 12.19 L547.89 13.27 L551.25 15.89 L559.78 19.88 L562.49 20.48 L563.7 20.44 L565.82 20.37 L578.17 16.81 L585.51 12.61 L588.49 11.62 L591.65 11.69 L594.27 13.03 L595.44 15.59 L595.85 16.73 L598.44 20.25 L599.52 22.99 L600.82 24.64 L603.45 27.03 L604.32 27.42 L606.32 27.87 L606.46 27.94 L607.32 28.34 L609.36 30.65 L609.86 31.02 L611.04 31.57 L614.3 34.16 L615.13 34.7 L612.62 34.16 L604.52 29.06 L604.98 29.1 L605.34 29.06 L605.56 29.17 L606.2 29.71 L606 29.01 L605.62 28.59 L605.05 28.39 L603.37 28.2 L603 27.86 L602.78 27.42 L602.38 27.03 L600.2 25.84 L599.32 25.09 L598.99 25.12 L598.37 25.12 L598.13 23.82 L597.61 22.69 L596.95 21.77 L596.19 21.14 L597.25 21.14 L598.25 21.01 L594.13 15.84 L593.25 14.3 L592.07 12.74 L591.13 12.2 L591.11 12.61 L589.73 11.96 L589.2 12.3 L588.87 13.27 L587.75 12.61 L587.73 12.92 L587.79 13.57 L587.75 13.86 L587.46 13.66 L586.89 13.46 L586.58 13.27 L586.61 14.02 L586.46 14.56 L586.07 15.24 L587.75 15.24 L587.3 16.3 L588.55 18.56 L588.31 19.88 L588.87 19.88 L588.87 20.48 L588.31 20.48 L588.49 20.91 L588.75 21.36 L588.87 21.85 L588.31 21.85 L588.03 20.67 L587.49 19.79 L586.66 19.26 L585.51 19.17 L585.82 18.45 L585.49 18.36 L584.9 19 L584.39 20.48 L584.9 20.56 L585.17 20.44 L585.51 19.88 L586.09 20.34 L586.55 20.52 L587.19 20.48 L587.19 21.14 L586.58 21.14 L586.58 21.85 L586.9 22.42 L587.37 22.82 L588.01 23.05 L588.87 23.1 L588.29 23.7 L587.46 23.91 L586.64 23.72 L586.07 23.1 L585.51 23.1 L585.56 23.6 L585.41 23.72 L585.16 23.7 L584.9 23.81 L585.27 24.09 L585.56 24.4 L586.07 25.12 L584.92 26.58 L584.69 27.68 L585.43 28.3 L587.19 28.34 L587.19 29.06 L586.1 28.84 L585.2 28.49 L584.46 28.42 L583.78 29.06 L583.27 29.06 L582.72 28.47 L582.18 28.52 L581.77 29.09 L581.6 30.07 L581.94 30.55 L582.51 30.89 L582.63 31.23 L581.6 31.68 L581.6 32.27 L582.07 33.18 L581.5 33.52 L580.56 33.75 L579.87 34.35 L579.7 35.7 L580.21 36.54 L581.11 36.78 L581.99 36.37 L582.11 36.31 L581.95 36.15 L581.84 36.1 L581.74 36.01 L581.6 35.66 L582.76 36.15 L583.32 36.27 L584.09 36.31 L584.75 36.71 L584.88 37.6 L584.89 38.47 L585.2 38.87 L586.12 39.12 L587.4 39.75 L588.63 40.62 L589.43 41.55 L590.05 39.99 L590.48 39.34 L591.11 38.87 L590.77 39.76 L590.65 40.36 L590.76 40.88 L591.11 41.55 L589.99 41.55 L589.99 42.2 L591.11 42.2 L590.84 42.41 L590.61 42.56 L590.47 42.86 L590.55 43.51 L590.93 43.44 L591.16 43.27 L591.35 43.04 L591.65 42.79 L591.76 42.95 L591.73 43.19 L591.83 43.4 L592.21 43.51 L592.21 42.79 L592.77 42.79 L592.37 44.15 L592.76 45.06 L593.44 45 L593.89 43.51 L594.85 43.37 L596.13 42.01 L597.69 40.91 L599.54 41.55 L598.37 41.55 L598.37 42.2 L599.54 42.79 L599.76 42.39 L600.28 41.99 L600.65 41.55 L601.82 42.2 L601.82 42.79 L601.48 43.22 L601.34 43.54 L601.21 44.81 L602.12 44.39 L602.38 44.16 L602.25 44.97 L602.09 45.5 L601.8 45.86 L601.21 46.12 L601.21 46.72 L601.76 47.54 L601.8 48.57 L600.1 50.04 L600.1 50.69 L600.98 50.73 L601.66 50.54 L602.14 50.1 L602.38 49.39 L602.89 49.39 L603 50.4 L603.07 50.63 L603.25 51.18 L603.74 51.72 L604.52 52 L604.52 52.72 L603.69 52.94 L603.09 53.31 L602.68 53.87 L602.38 54.67 L602.8 54.86 L603.45 55.33 L604.24 54.82 L604.97 54.68 L605.64 54.87 L606.2 55.33 L606.2 55.92 L605.64 55.92 L605.64 56.63 L606.46 57.34 L607.5 57.84 L608.6 57.88 L609.6 57.22 L609.6 56.63 L608.4 56.6 L607.58 55.98 L607.08 55.03 L606.81 54.02 L608.04 54.28 L609.69 55.13 L610.46 55.27 L610.77 55.33 L610.11 54.02 L611.42 53.97 L611.84 54.02 L611.84 53.31 L611.47 53.21 L611.4 53.14 L611.42 53 L611.3 52.75 L611.42 52.64 L612.4 52 L612.45 52.58 L612.68 52.7 L613.05 52.66 L613.52 52.72 L613.2 51.67 L613.84 50.99 L614.74 50.91 L615.63 52.5 L616.68 52.88 L617.96 52.91 L619.11 52.72 L621.08 51.57 L622 49.88 L621.76 48.12 L620.28 46.72 L622.24 46.65 L622.32 46.67 L622.52 46.72 L622.92 43.87 L622.95 42.53 L622.52 40.89 L621.14 39.13 L620.94 38.3 L621.96 37.56 L620.72 36.85 L618.99 36.22 L617.32 35.95 L616.32 36.31 L615.74 34.7 L616.76 34.83 L617.84 34.91 L619.8 35.3 L623.39 36.01 L624.48 36.85 L625 36.85 L625.92 36.97 L626.12 38.57 L626.98 39.8 L628.2 40.61 L630.72 41.27 L631.65 42.17 L633.19 44.16 L636.67 47.54 L638.19 48.7 L640.51 52.72 L642.66 54.66 L645.11 56.2 L647.9 57.06 L648.05 57.11 L651.65 57.22 L655.09 56.78 L661.19 55.18 L668.46 51.58 L669.87 50.48 L673.24 48.77 L674.16 48.08 L674.72 48.08 L674.72 48.79 L672.11 49.8 L667.54 53.26 L664.88 54.02 L660.41 56.12 L653.37 57.94 L657.34 57.94 L657.34 58.59 L656.17 59.24 L658.67 59.23 L659.62 58.87 L660.14 57.94 L660.65 57.94 L660.71 58.49 L660.98 58.58 L661.34 58.51 L661.81 58.59 L666.84 55.33 L671.08 53.99 L671.92 53.31 L672.43 53.31 L672.78 53.82 L673.94 54.12 L673.67 54.59 L673.04 54.67 L673.04 55.33 L673.9 55.02 L675.84 54.02 L675.84 53.31 L673.6 53.31 L673.6 52.72 L674.71 52.25 L676.09 52.62 L677.36 53.53 L678.12 54.67 L678.32 55.21 L678.49 56.15 L678.64 56.63 L677.51 56.63 L680.23 57.63 L681.49 57.56 L682.6 56.63 L682.6 55.92 L681.82 55.47 L681.43 55.33 L681.43 54.67 L684.6 53.85 L685.38 53.31 L684.98 52.59 L685.16 51.89 L685.6 51.09 L685.94 50.04 L685.38 50.04 L684.86 50.69 L683.16 52 L682.9 52.35 L682.63 52.64 L682.63 52.94 L683.16 53.31 L682.07 53.56 L680.2 53.53 L678.27 53.24 L676.95 52.72 L679.42 52.47 L680.83 51.01 L681.86 49.08 L683.16 47.43 L684.15 46.95 L686.17 46.59 L687.12 46.12 L688.69 44.62 L689.64 44.15 L691.04 44.16 L691.04 44.81 L688.76 44.81 L688.76 45.41 L689.78 46.17 L692.72 50.04 L693.6 51.67 L693.26 52.2 L692.22 52.46 L691.04 53.31 L690.94 53.07 L690.94 52.82 L690.84 52.66 L690.42 52.72 L690.42 53.31 L691.8 54.26 L692.53 55.5 L692.5 56.96 L691.6 58.59 L694.53 57.39 L696.05 57.04 L697.13 57.22 L697.69 57.11 L698.07 57.11 L698.81 57.22 L698.81 56.63 L697.69 55.92 L697.13 55.92 L697.13 56.63 L696.63 56.63 L696.63 55.92 L700.98 54.22 L702.17 53.31 L702.77 53.31 L702.17 54.02 L702.77 54.67 L703.38 54.13 L704.05 54.08 L704.63 54.48 L704.97 55.33 L705.57 55.33 L705.65 54.52 L705.62 53.55 L705.51 53.4 L706.69 53.31 L705.91 52.89 L705.1 53.01 L704.33 52.91 L703.38 52.72 L712.33 52 L711.61 50.27 L712.67 49.92 L713.96 49.81 L713.96 48.08 L714.85 48.52 L715.13 48.79 L715.69 48.79 L716.79 48.48 L720.05 50.2 L721.59 50.69 L727.56 51.32 L729.16 52 L729.16 51.34 L731.02 51.91 L733.74 51.73 L750.64 47.31 L766.43 41.02 L778.83 32.96 L778.97 32.86 L780.97 36.56 L781.44 38.14 Z M833.16 827.57 L826.25 843.57 L830.4 834.07 Z M818.43 861.45 L797.19 865.76 L774.65 870.83 L788.87 867.79 L803.66 864.62 Z M758.9 456.88 L760.16 456.82 L760.17 456.82 L760.57 456.88 L762.2 460.4 L762.81 462.24 L762.87 464.38 L761.72 463.28 L761.16 462.01 Z M763.11 390.67 L764.91 391.35 L765.43 392.92 L765.72 394.62 L766.77 395.71 L766.77 396.28 L766.19 396.19 L765.12 396.02 L763.64 394.31 L763.15 393.75 L761.41 393.19 L760.61 392.71 L759.83 391.76 L759 391.14 L759 391.14 L757.15 392.03 L756.39 391.41 L755.82 390.32 L755.5 389.35 L755.96 388.75 L756.5 388.37 L757.1 388.18 L757.78 388.14 L759.63 388.39 L760.27 388.8 L760.99 389.27 L761.65 389.85 L762.07 390.22 Z M810.49 349.43 L810.5 349.44 L811.82 350.59 L813.38 351.97 L813.38 352.66 L810.25 352.88 L807.39 352.72 L805 351.72 L803.37 349.62 L803.22 349.43 L803.34 348.17 L803.06 346.36 L802.66 345.64 L802.95 345.2 L803.06 345.11 L803.07 345.12 L803.22 345.64 L803.23 345.62 L803.52 344.92 L803.92 344.35 L804.4 343.96 L804.94 343.74 L804.95 343.74 L806.37 344.51 L806.84 344.98 L807.14 345.64 L805.01 346.07 L804.08 346.55 L803.78 347.54 L804.17 347.94 L804.49 348.29 L805.88 348.43 L808.27 348.04 L809.3 347.67 L809.48 347.85 L809.65 347.86 L810.04 348.47 L810.4 349.17 Z M678.92 55.13 L678.64 54.67 L678.2 54.66 L678.8 54.22 L679.29 54.34 L679.61 54.94 L679.8 55.92 Z M711.47 44.81 L713.93 45.3 L716.14 46.48 L719.65 49.39 L717.89 48.15 L705.14 42.59 L702.77 42.2 L705.34 42.29 L709.55 44.3 Z M687.12 41.21 L689.26 39.95 L702.17 41.55 L701.65 41.96 L700.62 41.96 L698.09 41.48 L695.65 41.13 L693.22 40.77 L690.42 41.55 L689.08 41.25 L686.94 42.02 L677.07 47.34 L675.33 48.79 L676.29 47.33 L678.2 46.39 L679.79 45.53 L680.8 44.93 L681.89 44.12 L686.16 42.14 Z M822.51 349.25 L822.53 352.79 L820.28 353.77 L818.35 353.14 L816.77 351.74 L818.41 349.1 Z "/>
</g>
</svg>
