<svg xmlns="http://www.w3.org/2000/svg" viewBox="0 0 1000 547.17">
<g fill="#ccc" stroke="#333" stroke-width="0.5" stroke-linejoin="round">
<path fill-rule="evenodd" d="M6.8 303.98 L0.19 276.4 L0 269.71 L1.02 262.8 L3.22 256.08 L6.5 249.93 L11.44 244.84 L22.77 238.79 L27.84 234.71 L31.67 228.72 L34.4 222.53 L37.91 216.56 L44.02 211.14 L83.71 183.27 L92.5 174.46 L96.9 171.57 L115.18 164.58 L121.27 164.16 L128.77 166.12 L139.51 174.5 L145.57 176.97 L151.61 173.71 L151.77 171.35 L151.46 170.63 L148.79 164.45 L148.39 161.18 L149.56 157.71 L167.21 126.42 L175.48 117.35 L185.89 109.33 L196.75 104.34 L241.1 93.69 L243.76 91.04 L243.69 84.4 L242.37 82.66 L237.13 80.04 L235.33 78.24 L234.56 75.47 L233.81 68.96 L233.28 66.97 L230.88 62.39 L229.68 60.77 L227.29 58.5 L224.44 57.22 L215.81 56.08 L213.26 50.04 L215.7 46.46 L219.84 43.49 L222.46 39.33 L221.26 34.36 L218.24 30.14 L216.47 25.33 L219.16 18.58 L225.02 14.22 L231.09 14.73 L235.6 19.32 L236.8 27.22 L242.41 23.16 L252.62 10.8 L255.47 9.58 L259.95 7.67 L266.5 8.53 L271.17 11 L275.83 12.73 L282.33 11.37 L291.72 1.64 L295.92 0 L296.46 8.24 L298.6 4.97 L299.05 4 L310.94 12.74 L311.02 12.75 L317.38 13.77 L333.34 16.34 L346.15 22.44 L367.22 26.96 L377.7 34.4 L396.76 40.11 L400.68 36.52 L406.62 25 L409.9 21.62 L413.55 20.6 L415.97 21.06 L418 22.96 L420.36 26.16 L422.42 30.08 L423.32 34.32 L422.96 38.66 L421.34 42.85 L426.04 46.92 L440.13 48.57 L446.73 51.88 L449.37 57.16 L451.01 70.22 L452.87 74.04 L463.34 82.02 L467.15 86.63 L470.85 92.92 L472.41 98.25 L472.65 100.24 L473.05 103.72 L474.4 108.25 L478.04 110.89 L482.04 110 L486.93 107.13 L492.71 104.63 L499.16 104.76 L509.38 111.31 L518.03 122.25 L524.23 134.98 L526.94 146.99 L534.19 145.91 L552.3 147.28 L557.22 145.35 L561.47 142.71 L565.08 142.34 L568.04 147.19 L567.7 154.4 L565.21 161.4 L564.97 167.4 L571.45 171.65 L580.31 172.84 L582.23 173.55 L585.2 176.11 L587.25 178.97 L588.18 182.52 L588.03 184.72 L587.98 185.48 L590.51 184.5 L601.03 182.87 L611.55 183.58 L642.83 193.61 L661.03 194.99 L665.03 196.67 L668.72 200.31 L668.4 201.65 L668.27 202.69 L668.03 202.9 L667.69 203.19 L667.58 203.18 L665.88 202.95 L666.33 203.95 L668.44 208.59 L668.14 213.55 L666.73 218.73 L665.88 225.01 L667.03 229.05 L671.5 240.22 L671.78 247.03 L668.14 253.04 L679.15 252.49 L686.88 247.78 L694.4 244.59 L711.04 240.89 L714.99 241.11 L721.58 243.72 L724.6 244.03 L725.09 242.8 L725.09 240.28 L725.39 237.65 L726.68 236.13 L729.37 235.95 L732.66 236.52 L735.95 237.51 L738.6 238.64 L741.47 233.3 L745.94 231.66 L750.94 231.28 L755.43 229.74 L758.7 226.61 L760.08 224.15 L761.74 221.21 L764.45 218.2 L769.39 216.08 L773.05 216.67 L775.7 216.06 L777.67 210.24 L776.93 209.1 L773.24 205.68 L772.39 204.16 L771.98 195.74 L772.17 194.31 L776.23 192.77 L782.43 193.43 L783.42 193.65 L793.41 195.88 L799.99 196.04 L821.52 193.45 L832.41 194.07 L837.15 198.01 L843.2 213.81 L849.19 221.01 L856.8 227.97 L863.54 236.04 L866.98 246.59 L885.8 237.16 L891.98 235.49 L892.88 235.68 L895.22 236.15 L901.31 240.13 L904.14 240.95 L906.03 240 L911.34 235.89 L914.55 234.78 L918.68 235.03 L926.76 236.72 L930.74 236.46 L934.74 233.61 L938.16 229.26 L942.31 225.8 L948.51 225.53 L952.4 228.61 L956.42 239.8 L959.77 244.84 L961.92 246.15 L967.69 248.39 L970.21 249.78 L976.74 255.41 L988.43 265.5 L995.7 268.44 L991.98 274.62 L983.64 293.9 L981.56 300.85 L984.24 307.89 L982.2 312.46 L978.06 316.4 L974.47 321.62 L972.97 329.12 L973.31 344.88 L972.37 352.62 L962.47 376.62 L960.05 388.36 L964.37 398.07 L968.63 399.6 L977.38 396.68 L983.39 399.03 L986.57 402.74 L988.69 407.83 L989.43 413.48 L988.45 418.94 L981.33 427.06 L948.8 441.98 L948.52 441.87 L945.28 439.97 L943.23 436.48 L940.08 427.38 L928.46 447.59 L925.43 459.51 L933.03 464.79 L937.88 466.64 L951.59 479.82 L959.39 485.1 L960.06 487.59 L960.06 492.71 L956.68 501.78 L948.47 508.25 L917.77 523.74 L909.45 530.4 L907.99 537.18 L917.52 543.81 L902.95 547.17 L846.04 543.26 L832.68 540.65 L829.86 540.65 L822.95 543.39 L787.29 546.41 L749.05 540.56 L739.12 543.81 L733.83 542 L727.83 540.65 L727.83 538.01 L737.15 537.39 L737.81 530.86 L732.82 522.79 L725.29 517.47 L726.92 520.77 L731.84 527.65 L733.76 531.95 L718.84 531.45 L711.53 532.21 L705.29 534.85 L709.28 536.58 L712.5 536.09 L716.38 534.97 L722.21 534.85 L722.21 538.01 L712.6 542 L702 541.68 L693.73 536.56 L691.18 526.15 L695.25 527.98 L696.83 529.05 L702.47 523.25 L702.47 520.63 L695.41 517.42 L687.65 506.47 L682.46 503.23 L683.85 509.37 L686.19 514.4 L687.4 518.87 L685.53 523.25 L679.53 519.84 L662.08 515.43 L654.53 511.41 L647.71 499.19 L644.53 497.2 L639.69 496.81 L626.08 494.04 L620 494.04 L603.27 497.2 L579.93 497.83 L574.83 500.1 L577.61 502.33 L580.63 503.95 L583.66 504.45 L586.36 503.23 L598.02 505.97 L631.18 502.38 L634.87 502.97 L640.2 505.87 L643.09 508.6 L648.23 514.88 L651.71 517.47 L651.71 520.63 L643.98 519.32 L638.35 518.25 L626.08 514.57 L626.08 517.47 L659.93 524.44 L677.6 530.21 L685.53 538.01 L682.64 543.08 L675.25 541.84 L667.02 537.51 L661.59 533.4 L655.49 530.29 L548.86 510.43 L536.07 504.47 L433.59 456.64 L384.57 426.48 L356.51 414.06 L326.2 406.84 L312.1 406.84 L301.36 404.3 L242.7 404.78 L217.62 398.51 L205.83 396.19 L179.64 387.55 L165.86 390.41 L126.67 390.9 L120.37 386.53 L116.21 370.92 L114.65 361.17 L109.48 356.9 L100.97 351.64 L67.5 332.58 L38.66 319.38 Z M986.33 530.31 L985.96 524.91 L988.97 522.76 L994.68 524.66 L998.19 532.47 L998.43 538.93 L1000 543.26 L996.5 545.15 L991.17 543.24 L987.65 544.87 L987.68 540.28 L985.48 535.7 Z M970.02 509.26 L973.27 511.15 L975.97 517.36 L973.54 520.87 L970.84 523.57 L965.44 518.71 L964.08 511.96 L966.51 509.53 Z "/>
</g>
</svg>
