<svg xmlns="http://www.w3.org/2000/svg" viewBox="0 0 1000 917.31">
<g fill="#ccc" stroke="#333" stroke-width="0.5" stroke-linejoin="round">
<path fill-rule="evenodd" d="M731.54 250.29 L733.55 253.24 L733.69 256.51 L733.13 260.12 L733.51 263.73 L735.75 266.5 L739.79 270.08 L744.22 273.11 L747.36 274.27 L750.39 274.98 L761.44 280.5 L764.98 281.08 L788.49 281.08 L799.74 281.08 L838.12 281.07 L840.74 281.07 L892.99 281.07 L945.26 281.06 L997.51 281.06 L998.84 287.75 L998.92 301.79 L999.19 347.6 L999.24 356.77 L999.46 393.38 L999.73 439.15 L1000 484.93 L947.68 484.75 L934.93 484.71 L895.37 484.59 L843.08 484.41 L839.06 484.4 L790.76 484.25 L771.7 484.17 L766.62 484.83 L763.19 485.27 L762.27 487.83 L762.25 493 L761.62 495.3 L759.56 497.3 L756.78 497.92 L753.68 497.45 L750.59 496.13 L747.7 493.89 L743.17 488.71 L740.28 486.67 L737.57 485.67 L732.38 485.07 L732.65 484.16 L732.41 481.16 L731.07 476.7 L731.45 474.62 L732.8 473.53 L735.08 472.74 L737.68 472.28 L739.91 472.13 L738.86 471.21 L736.73 470.48 L734.2 470.01 L732.05 469.84 L730.26 469.29 L725.89 466.82 L723.78 466.28 L716.61 467.82 L714.75 467.35 L714.04 465.6 L714.81 463.72 L716.17 462.19 L717.25 461.5 L714.01 462.86 L710.03 466.37 L706.65 470.25 L705.22 472.77 L704.03 474.02 L698.27 475.45 L693.94 477.28 L692.37 475.22 L689.64 466.83 L688.22 464.62 L686.33 462.93 L683.53 461.5 L680.34 460.74 L678.07 461.27 L676.02 462.19 L670.46 463.25 L665.3 465.71 L662.66 466.28 L661.12 465.31 L657.03 460.73 L654.78 459.11 L655.12 457.36 L654.68 455.98 L652.42 453.04 L655.15 451.91 L657.2 449.86 L658.68 447.31 L661.52 438.36 L663.06 435.19 L665.05 433.84 L667.72 432.41 L670.17 429.03 L672.04 425.07 L672.92 421.91 L672.47 415.22 L673.15 412.35 L677.96 410.25 L684.84 404.01 L687.87 400.07 L688.42 399.78 L688.8 398.84 L689.61 397.99 L690.42 396.82 L690.81 394.96 L692.86 389.96 L695.67 384.81 L699.25 382.03 L701.53 382.79 L703.72 384.84 L707.01 386 L711.68 385.39 L714.98 383.84 L718.02 381.86 L721.91 379.94 L718.39 380.11 L711.25 384.95 L708.15 384.21 L700.57 377.01 L697.94 372.18 L699.74 367.46 L710 357.27 L710.47 356.62 L711.49 354.67 L712.36 353.69 L715.94 351.3 L717.31 349.92 L718.06 348.68 L719.55 345.21 L720.29 344.14 L721.09 343.41 L721.66 342.24 L722.31 338.01 L723.11 336.85 L723.93 335.99 L724.3 335.08 L725.27 333.43 L731.45 327.32 L733.32 321.4 L732.63 314.16 L727.78 299.88 L726.12 296.6 L725.58 295.1 L725.4 293.19 L725.78 291.35 L726.59 290.17 L727.4 289.3 L727.78 288.36 L729.24 266.66 L728.72 262.72 L727.23 259.67 L725.84 255.75 L728.08 252.71 Z M2.49 913.91 L1.39 911.87 L1.17 909.85 L1.89 908.09 L3.68 906.84 L5.99 910.79 L5.37 915.06 L2.96 917.31 L0 915.2 L0.88 914.93 L1.63 914.26 Z M578.36 3.8 L582.99 9.54 L584.72 12.53 L585.42 16.23 L585.15 19.6 L584.44 22.65 L583.33 25.38 L581.92 27.69 L575.61 33.31 L573.82 38.16 L568.02 45.04 L567.52 45.62 L564.03 55.02 L561.01 57.41 L560.19 61.53 L559.7 62.47 L559.31 63.05 L554.29 66.04 L553.68 68.86 L553.59 76.92 L552.5 79.79 L544.65 88.84 L538.66 98.68 L537.04 100.65 L535.36 99.52 L531.36 97.81 L530.45 96.67 L529.34 97.14 L526.81 96.23 L521.96 93.53 L520.69 93.96 L516.68 94.86 L514.92 94.82 L513.04 94 L509.35 91.63 L507.07 91.14 L503.32 91.01 L499.17 90.04 L495.81 87.42 L494.42 82.28 L493.63 80.38 L492.03 78.09 L490.9 75.81 L491.46 73.86 L492.15 72.25 L493.23 64.85 L494.41 61.45 L496.7 57.04 L499.95 54.14 L504.09 55.29 L506.31 54.02 L509.25 54.15 L515.48 55.29 L518.42 54.1 L519.39 51.3 L518.89 48.08 L517.31 45.62 L519.48 44.45 L522.23 42.48 L524.65 40.14 L525.67 37.91 L526.86 21.72 L529.14 15.56 L533.72 8.08 L539.87 2.01 L547.04 0 L546.65 0.66 L545.94 2.49 L551.37 3.63 L553.76 3.75 L555.48 2.49 L559.42 3.7 L565.08 4.55 L571.01 4.4 L575.87 2.49 L576.39 3.26 L576.93 3.55 Z "/>
</g>
</svg>
