<svg xmlns="http://www.w3.org/2000/svg" viewBox="0 0 1000 873.35">
<g fill="#ccc" stroke="#333" stroke-width="0.5" stroke-linejoin="round">
<path fill-rule="evenodd" d="M999.08 820.16 L966.64 834.16 L965.11 834.31 L963.26 832.84 L961.94 832.67 L959.44 834.88 L955.97 843.15 L949.46 849.33 L949.98 853.88 L951.37 858.67 L950.51 862.79 L948.64 863.79 L944.18 864.64 L942.92 866.01 L940.88 868.96 L936.17 870.28 L935.47 870.48 L933.49 873.35 L910.11 852.54 L903.26 849.46 L899.2 848.39 L896.58 848.85 L888.9 857.17 L881.77 849.6 L869.6 833 L859.87 816.32 L852.76 810.15 L844.46 805.47 L835.94 801.94 L824.3 794.41 L816.49 783.42 L804.89 758.17 L800.14 750.23 L795.07 743.53 L789.25 737.45 L777.87 728.04 L762.23 715.08 L736.31 698.43 L716.18 685.49 L711.68 681 L701.13 662.21 L689.53 641.57 L673.73 623.51 L658.12 605.66 L649.03 599.13 L638.9 595.3 L625.42 593.37 L621.21 592 L605.38 584.34 L596.7 579.82 L586.55 570.35 L575.12 559.67 L569.24 556.15 L562.78 553.5 L549.37 550.21 L546.73 550.24 L539.36 552.44 L537.23 552.49 L533.74 551.86 L530.75 551.33 L528.02 552.02 L523.43 555.94 L520.51 556.77 L517.69 556.28 L515.42 555.2 L507.57 548.33 L503.45 545.72 L498.98 544.23 L494.23 544.39 L492.42 544.7 L485.67 545.85 L481.67 545.49 L473.99 543.17 L473.14 542.72 L472.23 541.84 L469.19 538.13 L466.92 536.23 L463.96 534.54 L461.39 534.51 L460.21 537.59 L457.56 541.19 L451.47 544.18 L439.23 547.6 L436.4 547.77 L428.31 546.46 L424.6 547.06 L422.58 548.91 L419.32 554.15 L415.59 554.19 L412.5 548.48 L408.17 535.69 L406.12 532.39 L403.54 529.2 L400.53 526.44 L397.28 524.38 L395.78 523.78 L391.52 522.8 L386.19 522.18 L385.97 521.64 L384.04 523.54 L383.81 526.11 L384.04 528.99 L383.6 531.83 L381.48 534.62 L378.43 536.54 L372.21 539.46 L367.29 544 L364.53 545.94 L357.88 546.59 L348.98 550.29 L346.14 550.97 L343.38 551.22 L340.67 550.95 L337.95 550.04 L335.04 549.94 L325.8 554.75 L320.24 556.24 L308.85 557.56 L301.49 557.5 L300.22 557.86 L298.97 557.73 L297.12 556.32 L296.32 554.94 L295.32 551.61 L294.11 550.47 L286.11 546.09 L283.78 544.26 L282.04 541.98 L280.82 539.27 L279.4 533.42 L278.44 531.44 L276.88 530.24 L275.14 529.27 L273.72 527.94 L272.98 526.43 L272.26 522.19 L271.96 521.45 L271.02 519.12 L269.5 517.25 L267.2 516.3 L263.66 516.07 L255.17 517.55 L252.47 517.05 L236.27 510.35 L235.04 509.35 L234.19 507.83 L234.08 506.48 L233.75 505.27 L232.29 504.16 L230.61 503.87 L229.96 503.13 L229.64 502.1 L229.07 500.99 L228.97 500.51 L229.02 498.88 L228.94 498.25 L228.42 497.72 L226.97 497.55 L226.32 497.01 L223.47 491.35 L221.66 488.69 L219.07 486.41 L212.98 501.17 L203.27 524.58 L193.66 547.78 L184.3 570.36 L175.72 591.04 L170.34 604.01 L168.66 605.73 L165.98 603.98 L164.42 602.14 L163.72 599.58 L163.55 595.65 L163.11 594.17 L161.95 593.01 L160.42 592.25 L158.88 591.97 L156.97 591.25 L156.07 589.52 L155.32 585.67 L154.22 582.77 L153.57 581.85 L147.54 576.77 L145.38 575.51 L144.97 573.88 L145.04 570.36 L144.83 568.07 L144.26 566.82 L141.97 564.53 L136.33 556.32 L133.51 554.66 L129.87 551.52 L127.81 551.83 L124.56 552.96 L113.51 552.74 L108.36 553.91 L104.09 557.17 L101.82 560.5 L100.62 563.53 L100.11 566.67 L100.02 570.36 L99.6 573.59 L98.48 576.13 L96.87 578.05 L95 579.35 L93.85 579.58 L91.13 579.25 L89.91 579.35 L87.74 581.16 L86.86 581.46 L85.33 581.31 L84.04 580.89 L82.86 580.23 L81.68 579.35 L78.98 575.63 L78.1 575.05 L73.15 574.39 L63.41 571.5 L58.62 570.84 L48.42 570.84 L46.97 571.19 L44.55 572.69 L43.28 573.04 L36.56 573.04 L33.57 573.54 L28.95 575.71 L26.89 576.2 L23.71 576.28 L21.19 576.87 L19.31 578.44 L18.22 581.46 L15.33 581.4 L12.03 553.08 L9.78 533.98 L7.51 514.61 L5.75 499.65 L4.75 491.11 L1.71 465.23 L0 450.56 L0.22 447.17 L1.42 444.48 L12.4 433.73 L15.12 429.47 L22.68 406.95 L25.59 402.17 L30.48 398.87 L28.43 392.11 L28.81 385.56 L36.91 355.87 L38.75 352.45 L46.12 344.76 L50.13 338.14 L57.29 317.68 L64.03 298.37 L69 284.2 L71.42 280.13 L77.67 273.63 L79.19 269.68 L78.79 266.36 L76.08 260.06 L75.31 256.79 L75.52 253.47 L76.05 250.68 L76.12 247.93 L75.17 245.24 L75.01 244.79 L72.9 241.93 L70.56 239.43 L68.61 236.67 L67.59 233.07 L67.7 230.93 L69.54 224.72 L69.98 221.71 L69.71 216.63 L69.95 213.87 L71.31 210.93 L73.58 208.87 L78.5 205.3 L80.1 203.15 L83.77 193.8 L84.35 184.47 L84.62 183.77 L85.7 182.53 L85.98 181.88 L85.8 180.97 L84.92 179.57 L84.72 178.97 L84.99 172.71 L84.62 170.73 L83.33 168.8 L81.77 167.27 L81.26 165.58 L84.89 160.34 L85.58 157.32 L85.04 154.34 L82.08 150.19 L81.74 148.81 L82.05 147.56 L82.06 147.49 L83.05 146.32 L86.09 145.92 L88.46 146.98 L90.72 148.54 L93.38 149.64 L97.23 150.3 L98.77 150.87 L104.54 154.44 L106.02 154.69 L114.12 153.36 L116.34 153.7 L120.86 153.4 L127.95 148.98 L132.26 148.61 L146.23 152.58 L154.64 142.47 L155.87 139.35 L156.58 135.86 L159.85 129.99 L160.79 126.79 L161.49 120.27 L161.35 117.43 L159.68 110.28 L160.05 108.49 L161.66 107.5 L181.42 101.32 L187.45 100.48 L193.54 97.28 L200.04 85.51 L205.25 82.69 L208.29 83.54 L212.76 87.87 L216.17 88.93 L219.73 88.1 L222.66 85.84 L227.34 79.78 L237.42 72.95 L237.56 72.86 L241.07 71.57 L244.49 71.59 L245.89 73.15 L246.05 75.75 L245.83 78.88 L246.68 82.26 L248.92 82.24 L251.39 80.08 L252.94 77.09 L252.99 75.45 L252.6 74.37 L252.42 73.38 L253.1 71.98 L253.98 71.83 L259.24 70.14 L261.66 71.67 L263.93 73.99 L266.56 75.62 L270.1 75.09 L272.61 72.57 L273 69.47 L272.81 66.15 L273.57 63.06 L276.14 60.67 L283.55 57.06 L286.57 54.7 L290.69 47.98 L299.68 23.98 L303.82 17.9 L325.05 0 L325.37 1.64 L326.77 3.35 L327.86 8.2 L334.21 17.24 L334.71 18.81 L334.89 22.02 L335.23 23.66 L337.93 27.51 L338.39 28.42 L339.12 31.09 L353.13 52.67 L363.57 77.04 L373.93 95.21 L377.55 108.48 L379.25 111.6 L377.45 117.66 L380.22 122.38 L384.3 126.65 L386.38 131.43 L387.14 137.47 L388.42 142.72 L392.86 151.93 L393.52 154.94 L394.02 161.27 L394.79 164.44 L397.13 168.97 L397.95 175.32 L398.69 177.89 L403.61 189.25 L406.86 201.39 L404.81 200.33 L407.79 207.28 L408.6 210.71 L408.9 215.23 L406.14 218.16 L408.54 225.25 L407.88 229.24 L406.86 228.18 L407.04 230.6 L408.49 231.27 L410.13 231.31 L410.94 231.85 L410.72 237.26 L410.94 238.71 L411.48 240.13 L412.14 241.33 L412.72 242.68 L412.96 244.61 L412.76 250.76 L412.96 252.71 L413.49 254.15 L414.84 256.62 L415.09 258.55 L414.87 260.46 L413.96 264.31 L413.98 266.52 L418.55 286.81 L419.17 293.68 L419.68 296.03 L423.17 303.75 L428.41 323.97 L431.3 329.37 L440.22 334.88 L441.6 337.29 L442.78 338.31 L448.25 340.79 L449.74 342.1 L449.82 344.1 L449.09 345.79 L448.16 347.34 L447.7 348.98 L448.18 350.8 L450.29 353.11 L450.76 354.32 L450.98 358.44 L451.81 360.93 L455.84 365.48 L453.26 365.72 L451.49 367.24 L450.87 369.5 L451.78 371.92 L452.41 370.6 L453.77 369.02 L455.4 368.35 L456.88 369.71 L456.57 372.64 L453.68 374.04 L450.33 374.46 L448.72 374.48 L449.06 375.94 L451.78 380.29 L452.46 385.51 L452.8 386.64 L454.92 387.44 L458.38 387.73 L461.66 387.34 L463.08 386.11 L464.21 384.29 L466.87 383.9 L469.89 384.5 L472.15 385.59 L475.76 390.45 L483.56 415.81 L484.18 416.38 L486.98 417.44 L487.61 417.97 L487.95 420.69 L488.84 423.26 L490.14 425.45 L491.72 427 L489.5 435.43 L488.73 448.69 L489.06 449.32 L490.46 450.33 L490.8 450.9 L491.32 453.26 L492.74 454.48 L494.68 454.56 L496.8 453.49 L498.28 456.37 L499.99 456.82 L502.33 456.12 L505.6 455.6 L506.63 454.82 L507.46 453.01 L507.82 451.07 L507.61 449.79 L506.85 448.35 L507.42 447.35 L509.23 446.1 L512.08 440.98 L512.39 437.97 L509.4 432.74 L507.79 426.53 L506.56 424.31 L504.58 424.28 L503.38 426.67 L502.38 427.99 L501.07 424.79 L500.71 421.78 L501.07 413.79 L500.88 412.06 L500.12 409.12 L499.95 407.4 L500.29 405.51 L501.12 404.89 L502.12 404.59 L502.99 403.65 L503.99 398.36 L504.98 396.82 L507.1 398.37 L508.12 398.37 L508.26 397.13 L509.23 394.14 L510.13 394.14 L510.19 394.64 L510.13 396.16 L511.78 394.85 L513.76 391.53 L515.15 389.81 L517.35 393.82 L520.33 397.04 L534.53 408.87 L536.72 409.99 L540.16 410.75 L541.35 411.18 L542.84 412.11 L544.58 413.56 L545.7 415.11 L546.18 416.73 L545.9 418.45 L544.82 420.28 L542.15 422.43 L540.81 423.83 L540 425.3 L537.74 431.12 L539.4 430.97 L540.67 431.34 L541.53 432.31 L541.82 433.91 L541.46 434.37 L539.93 434.95 L539.69 435.44 L539.96 436.11 L540.67 436.73 L540.81 437.12 L541.6 438.41 L545.1 441.03 L545.9 442.36 L546.33 444.33 L548.27 448.34 L548.96 450.33 L548.88 452.05 L548.46 454.07 L548.32 456.08 L548.96 457.81 L550.82 457.13 L552.86 457.56 L554.5 458.73 L555.16 460.3 L555.45 461.59 L556.1 461.88 L556.8 462.03 L557.21 462.98 L557.12 464.39 L556.29 466.71 L556.09 467.79 L557.56 470.54 L561.02 472.3 L572.06 476.25 L574.46 477.44 L575.55 478.33 L576.57 481.16 L578.8 480.63 L582.21 477.76 L585.58 476.44 L587.94 473.34 L589.85 469.85 L591.95 467.3 L591.75 469.75 L592.29 471.88 L593.67 473.03 L596.11 472.58 L596.9 471.22 L596.56 469.46 L596.85 467.95 L599.54 467.3 L601.14 467.2 L601.59 467.11 L603.15 468.26 L602.9 468.79 L602.59 469.87 L602.89 470.94 L604.71 471.43 L605.79 471.88 L606.24 472.79 L606.83 473.58 L608.25 473.63 L609.23 473.16 L610.1 472.35 L610.83 471.41 L611.4 470.46 L610.65 469.22 L610.32 467.99 L610.29 465.1 L611.12 465.86 L611.84 467.53 L612.42 468.26 L616.48 469.31 L616.85 470.63 L616.72 471.97 L616.74 473.34 L617.5 474.69 L618.64 475.44 L619.4 475.29 L620.23 474.84 L621.58 474.69 L624.32 475.07 L625.76 475.73 L626.39 477.18 L626.94 483.23 L627.45 484.48 L631.76 486.28 L631.08 483.69 L632.33 482.85 L636.4 483.12 L637.42 483.83 L637.86 485.19 L637.15 486.04 L634.82 485.23 L633.9 486.28 L641.04 493.77 L641.11 493.41 L641.62 493.14 L642.33 493.42 L643.08 494.72 L643.28 495.88 L643.08 500.08 L641.84 503.59 L641.81 505.31 L643.08 507.37 L646.89 510.1 L648.15 511.87 L648.16 514.84 L649.74 513.84 L651.17 513.19 L652.7 513.07 L654.38 513.68 L654.38 510.71 L657.8 512.23 L665.77 511.87 L670.17 514.25 L674.76 517.62 L678.94 518.81 L689.02 519.14 L706.31 523.13 L708.01 523.85 L709.81 526.19 L712.22 531.84 L714.17 534.46 L720.8 539.16 L725.25 542.26 L728.81 546.67 L731.15 551.97 L732.01 557.66 L733.15 560.07 L735.61 561.59 L738.09 562.73 L739.23 564.03 L739.88 565.18 L742.66 568.59 L744.62 574.77 L747.73 578.53 L754.6 584.58 L758.52 589.11 L759.8 591.3 L760.82 594.05 L761.96 599.06 L762.63 600.89 L763.87 602.55 L765.91 604.12 L770.87 607.16 L773.45 609.38 L775.69 612.17 L781.11 622.5 L782.69 628.86 L783.99 631.15 L793.47 634.03 L795.46 634.15 L800.27 632.29 L802.13 632.05 L803.31 632.77 L806.21 637.83 L808.62 640.36 L809.72 641 L811.86 641.5 L813.5 641.46 L816.82 640.59 L817.98 640.44 L820.56 641.47 L825.82 644.94 L827.75 645.69 L829.42 646.9 L830.18 649.71 L830.61 652.9 L831.32 655.23 L837.48 660.04 L838.44 662.06 L839.09 662.08 L842.52 666.78 L843.54 668.88 L843.88 669.08 L845.21 669.68 L845.58 669.92 L846.23 671.69 L847.13 675.08 L848.18 676.75 L849.72 677.17 L851.55 676.43 L853.08 675.57 L853.73 675.7 L854.25 676.66 L856.82 678.46 L857.81 679.36 L858.4 680.78 L859.25 684.33 L859.85 685.64 L863.31 688.26 L863.93 688.41 L864.5 690.52 L865.68 690.5 L866.63 689.57 L866.52 688.98 L865.74 688.41 L863.6 685.62 L863.09 684.7 L862.8 684.43 L862.33 684.18 L861.93 683.63 L861.89 682.51 L862.36 682.45 L864.44 682.56 L864.95 682.51 L865.06 678.43 L863.06 676.7 L860.5 675.33 L857.3 675.17 L856.13 674.75 L856.5 673.86 L857.88 673.11 L859.85 673.07 L864.95 677.26 L870.45 684.66 L872.61 685.64 L875.31 687.33 L876.26 691.12 L876.25 697.37 L877.92 702.45 L879.25 704.77 L880.84 705.76 L882.29 707.45 L883.39 711.35 L885.71 729.09 L887.83 732.75 L888.63 740.2 L888.5 740.89 L888.89 741.33 L893.48 744.1 L896.64 745.05 L903.43 745.64 L906.28 745.12 L908.01 743.73 L909.04 741.73 L909.97 739.36 L911.95 739.81 L912.53 740.78 L912.57 742.09 L913.12 743.55 L914.01 744.3 L915.02 744.86 L915.83 745.67 L916.17 747.26 L917.35 749.25 L924.87 755.63 L930.09 764.37 L932.01 765.62 L934.98 766.05 L937.42 767.17 L939.46 768.71 L941.18 770.37 L942.36 772.73 L943.79 781.31 L946.24 786.9 L946.83 789.77 L947.21 794.11 L947.77 796.56 L948.87 798.13 L950.98 798.67 L952.92 798.07 L954.88 796.99 L957 796.13 L959.02 800.28 L961.95 802.8 L966.03 804.06 L971.38 804.4 L970.68 805.18 L969.34 807.53 L970.76 807.64 L971.92 807.31 L973.4 806.48 L973.24 806.3 L976.02 804.47 L976.49 804.4 L978.23 802.41 L979.62 800.23 L980.01 798.82 L979.95 797.8 L980.24 796.95 L981.66 796.13 L980.75 794.61 L980.54 793.12 L980.89 791.79 L981.66 790.72 L985.91 794 L987.95 796.03 L988.8 797.61 L989.46 799.2 L991.01 800.51 L992.88 801.67 L994.41 802.88 L995.43 804.88 L995.63 809.51 L996.02 811.81 L1000 819.03 Z M591.44 368.56 L593.63 368.64 L594.4 369.05 L595.59 375.22 L594.67 378.05 L592.55 379.24 L592.51 379.22 L589.42 377.65 L588.38 377.42 L586.99 377.1 L579.75 378.9 L576.65 379.14 L573.46 378.06 L568.26 375.51 L564.85 375.01 L557.45 376.58 L555.97 376.31 L555.16 376.16 L554.56 375.6 L553.67 374.45 L553.08 373.67 L552.73 373.35 L552.11 372.81 L552.1 372.79 L550.75 375.33 L549.02 376.65 L546.5 376.87 L542.84 376.16 L536.8 373.78 L536.03 373.63 L533.99 373.21 L530.63 373.95 L530.61 373.95 L529.35 372.22 L528.37 370.88 L524.42 359.13 L526.12 359.17 L527.16 359.5 L527.31 360.09 L527.33 360.17 L526.44 361.25 L527.65 361.95 L528.56 362.88 L528.89 363.53 L529.14 364.05 L529.5 365.48 L529.52 365.48 L530.61 365.48 L532.02 364.93 L533.99 365.72 L536.06 366.91 L537.74 367.6 L537.75 367.6 L539.63 367.5 L545.9 365.48 L543.17 360.56 L539.52 356.51 L535.08 353.79 L530.05 352.78 L525.13 353.81 L523.38 353.32 L522.36 350.57 L522.57 347.51 L523.88 345.77 L525.82 345.52 L529.37 347.85 L530.29 348.45 L532.27 348.61 L532.86 347.38 L531.07 344.69 L530.25 342.1 L530.08 341.57 L533.01 340.12 L536.94 339.75 L538.57 339.87 L538.76 339.88 L539.35 337.99 L538.36 335.52 L536.66 333.38 L535.16 332.47 L535.15 332.47 L529.94 332.82 L528.27 331.99 L526.46 329.39 L526.44 329.37 L531.9 329.82 L537.68 331.13 L543.12 333.27 L546.42 335.52 L547.43 336.22 L548.84 338.42 L549.53 339.5 L549.52 339.51 L548.78 341.75 L547.23 343.46 L546.92 345.17 L548.05 346.34 L549.46 346.39 L550.87 345.84 L552.1 345.17 L551.84 344.6 L551.11 343.55 L550.99 342.55 L552.57 342.1 L554.14 342.99 L554.48 344.99 L554.5 345.16 L553.63 357.73 L554.05 360.1 L554.85 361.92 L555.02 362.33 L557.67 366.83 L558.22 368.08 L559.67 368.2 L568.41 370.77 L570.69 366.43 L571.55 365.48 L572.8 365.16 L570.79 364.4 L567.76 363.49 L566.48 361.73 L566.46 361.73 L567.58 360 L570.25 359.13 L573.61 358.91 L576.65 359.13 L578.33 359.45 L579.68 359.89 L580.25 360.19 L580.8 360.48 L581.76 361.25 L582.34 362.43 L582.56 363.83 L583.01 365 L584.29 365.48 L586.41 365.96 L589.52 368.08 Z M548 305.56 L545.79 307.61 L545.32 309.96 L546.25 310.84 L547.54 311.55 L548.6 312.59 L550.13 313.67 L550.86 315.1 L548.2 315.86 L543.82 314.39 L540.18 312.38 L533.77 311.71 L532.27 310.16 L532.31 307.6 L533.5 305.21 L536.14 304.2 L539.49 303.92 L540.81 303.06 L540.3 301.76 L540 300.24 L539.94 298.61 L540.22 296.9 L541.3 296.26 L545.06 299.23 L546.16 299.87 L547.64 300.22 L550.33 301.43 L551.5 303.29 L550.48 304.7 Z "/>
</g>
</svg>
