<svg xmlns="http://www.w3.org/2000/svg" viewBox="0 0 1000 651.09">
<g fill="#ccc" stroke="#333" stroke-width="0.5" stroke-linejoin="round">
<path fill-rule="evenodd" d="M389.32 547.33 L390.97 544.64 L392.19 541.83 L392.74 538.46 L393.13 534.92 L393.68 531.59 L401.12 513.06 L403.82 501.35 L411.42 492.06 L414.18 486.8 L414.18 472.39 L415.33 465.86 L415.56 462.2 L414.72 459.06 L413.5 456.3 L412.76 453.1 L412.72 449.76 L414.72 443.36 L414.81 440.08 L414.73 436.8 L415.26 433.47 L418.48 429.06 L423.21 425.94 L427.46 421.99 L429.33 415.09 L427.86 408.68 L424.36 403.6 L411.04 392.96 L404.59 390.19 L398.08 389.61 L392.6 392.36 L390.86 394.81 L389.07 398.38 L387.68 402.31 L387.13 405.87 L386.9 410.53 L386.29 413.23 L381.41 421.92 L379.43 424.71 L377.16 426.53 L374.31 427.35 L368.55 425.73 L365.69 425.72 L363 428.37 L360.16 435.19 L358.71 436.43 L355.95 435.34 L354.28 433.49 L349.52 425.29 L342.25 418.63 L338.03 413.26 L327.58 408.8 L321.26 408.24 L318.27 406.9 L317.45 405.97 L315.7 403.38 L314.94 402.61 L313.51 402.43 L312.55 403.27 L311.68 404.31 L310.56 404.85 L309.13 404.15 L307.6 402.87 L306.06 402.31 L304.64 403.73 L303.69 405.48 L302.68 406.79 L301.57 407.08 L300.37 405.87 L299.41 403.38 L298.53 399.94 L297.9 396.33 L297.65 393.38 L296.9 388.92 L295.11 386.58 L293.01 384.84 L291.31 382.13 L290.37 378.2 L290.38 375.11 L291.31 367.74 L291.46 358.82 L290.61 351.44 L288.23 347.81 L283.69 350.16 L281.71 349.94 L278.69 347.88 L275.72 345.19 L274.02 343.06 L272.88 338.85 L272.7 335.38 L272.08 333.64 L269.71 334.62 L267.6 337.53 L266.34 340.76 L265.03 342.25 L262.68 339.88 L262.14 336.94 L263.14 333.7 L264.58 330.42 L265.32 327.42 L264.41 321.79 L262.6 314.31 L261.38 306.35 L262.09 299.33 L263.48 296.67 L264.78 296.27 L268.1 297.46 L269.25 296.82 L269.79 295.39 L269.73 293.97 L267.18 291.38 L266.75 287.34 L267.65 283.91 L269.71 283.83 L275.75 286.8 L281.61 285.75 L287.46 283.47 L293.46 282.79 L296.54 284.05 L302.62 288.12 L305.23 289 L310.06 289 L310.52 288.04 L310.71 285.89 L310.43 283.75 L309.52 282.79 L307.05 281.37 L306.44 278.16 L307.38 274.65 L309.58 272.42 L312.21 272.64 L318.34 276.09 L321.37 276.57 L317.13 271.54 L312.13 267.98 L307.17 267.67 L303 272.42 L300.14 268.57 L296.93 268.25 L290.23 270.34 L278.72 269.54 L275.09 270.34 L271.94 272.27 L270.34 273.76 L269.18 275.44 L268.21 275.71 L263.22 274.31 L260.17 274.85 L251.35 278.64 L257.19 267.74 L260.2 265.04 L265.41 264.12 L266.56 261.96 L256.73 248.45 L255.38 242.72 L250.23 234.9 L250.18 228.79 L253.59 224.12 L264.04 224.86 L267.47 220.25 L270.19 222.04 L272.98 222.25 L275.75 221.21 L280.82 216.9 L282.1 215.4 L282.55 213.4 L282.61 209.66 L281.59 202.34 L279.05 197.04 L275.59 193.35 L271.86 190.88 L273.82 194.88 L278.49 199.55 L280.46 203.58 L279.13 204.43 L276.23 204.74 L275.09 205.48 L271.86 209.66 L271.65 210.71 L271.67 212.53 L270.79 215.92 L269.26 216.23 L268.29 214.86 L267.48 212.97 L266.49 211.93 L256.35 209.36 L252.19 205.86 L248.03 199.21 L249.11 199.4 L251.35 199.12 L252.42 199.21 L251.31 193.7 L252.21 189.87 L259.35 181.44 L260.99 180.02 L262.64 180.89 L265.32 184.6 L265.5 168.77 L260.27 153.68 L257.87 142 L266.49 136.38 L268.24 136.61 L271.54 137.97 L273.41 138.3 L274.8 137.65 L277.05 134.77 L280.63 132.89 L282.55 130.34 L284.77 128.08 L287.99 127.81 L296.37 136 L296.84 136.07 L298.72 136.38 L300.57 133.62 L300.68 130.31 L299.59 127.41 L297.65 125.71 L299.41 121.82 L302.87 120 L316.81 119.69 L323.65 121.5 L331 120.94 L339.19 117.75 L347.21 117.03 L353.82 123.8 L356.89 116.65 L355.63 111.08 L345.57 97.17 L344.19 94.2 L344.64 90.85 L346.62 87.59 L348.72 85.6 L351.05 84.9 L353.82 85.49 L358.24 88.77 L367.09 98.28 L371.65 100.23 L376.07 97.94 L374.72 92.66 L370.61 86.96 L366.81 83.38 L369.92 81.38 L383.83 80.35 L389.32 78.18 L391.14 74.5 L393.01 64.34 L393.68 62.23 L404.04 59.69 L407.64 60.11 L410.72 62.46 L416.41 69.11 L419.56 70.52 L422.47 69.16 L424.93 66.52 L427.41 64.6 L430.4 65.51 L439.48 72.05 L442.27 72.82 L445.09 71.52 L444.47 68.65 L441.92 65.81 L439 64.55 L439 62.23 L443.14 62.66 L444.78 61.78 L445.44 58.97 L446 55.57 L447.37 54.35 L449.15 54.65 L450.91 55.9 L453.76 60.59 L455.75 65.96 L458.29 69.48 L462.73 68.58 L464.55 67.14 L465.48 65.85 L469.13 58.07 L469.52 56.43 L468.11 51.66 L467.09 49.85 L465.68 48.56 L464.45 46.97 L463.91 44.14 L463.89 41.21 L463.73 39.01 L463.38 36.94 L462.73 34.51 L467.59 31.24 L473.6 36.23 L484.23 49.54 L488.2 50.63 L500.44 47.42 L504.15 48.41 L510.66 52.8 L513.91 53.78 L516.85 52.16 L515.5 44.13 L517.73 40.87 L521.42 40.98 L529.06 46.1 L562.68 55.9 L562.95 55.9 L561.84 48.68 L563.95 44.72 L567.78 43.15 L582.43 43.18 L584.09 42.22 L584.02 40.02 L582.89 37.82 L581.26 36.84 L576.75 31.12 L574.36 18.6 L573.83 6.03 L574.83 0.33 L577.59 2.69 L582.77 13.05 L585.66 15.41 L589.02 16.81 L591.69 20.19 L596.46 28.14 L599.95 30.82 L605.03 32.62 L609.61 31.62 L611.6 25.93 L610.38 20.65 L607.98 17.12 L606.29 13.16 L607.22 6.71 L606.22 6.44 L604.8 5.22 L604.07 4.79 L607.84 0 L612.67 1.57 L621.36 10.96 L620.19 13.28 L622.12 17.26 L623.43 24.8 L625.58 28.14 L628.54 29.76 L630.23 29.38 L631.42 29.11 L634.07 26.38 L636.42 21.79 L635.25 19.66 L637.49 12.32 L640.86 14.6 L644.4 20.42 L647.16 23.73 L650.39 22.9 L650.71 20.88 L650.03 18.17 L650.29 15.41 L652.26 12.34 L654.09 11.38 L656.18 11.91 L661.62 14.84 L667.62 20.73 L668.23 21.98 L668.54 23.73 L668.76 26.02 L670.22 26.53 L699.97 26.02 L703 26.98 L709.42 31.24 L719.12 33.55 L727.93 38.89 L734.24 40.72 L737.71 40.87 L740.32 39.88 L745.65 35.5 L747.92 34.51 L754.46 35.11 L760.56 37 L766.43 40.27 L772.2 45.11 L778.79 52.33 L786.03 60.27 L793.72 63.13 L800.29 67.32 L803.47 68.58 L831.57 71.08 L856.57 69.55 L877.65 68.03 L901.9 74.16 L926.12 75.69 L950.71 81.73 L957.23 79.59 L963.33 75.37 L968 69.55 L973.65 58.78 L976.72 64.59 L983.78 68.34 L987.15 71.95 L990.86 81.16 L992.34 83.98 L994.19 86.2 L998.25 89.69 L1000 91.83 L999.27 97.66 L995.45 95.2 L988.52 100.95 L975.75 102.01 L970.75 104.55 L982.17 109.11 L985.9 108.97 L982.71 113.33 L964.31 112.97 L955.53 117.92 L952.13 122.46 L953.46 127.88 L950.75 134.52 L945.85 157.66 L936.71 183.42 L934.01 189.92 L927.28 202.62 L925.54 209.5 L922.79 214 L922.56 214.38 L908.54 226.96 L888.47 245.03 L883.51 262.23 L877.89 281.67 L880.77 295.45 L883.98 310.85 L891.79 348.3 L900.6 390.22 L891.04 412.93 L889.26 428.17 L891.23 442.28 L895.05 450.33 L898.26 457.11 L904.51 470.81 L912.49 482 L913.46 490.66 L912.44 498.45 L912.67 507.02 L915.67 508.23 L918.57 510.64 L919.53 517.81 L918.79 521.62 L917.65 524.89 L917.05 528.3 L917.92 532.46 L919.21 534.12 L935.15 540.67 L937.74 543.58 L939.07 549.44 L937.1 553.43 L933.43 556.06 L923.55 560.15 L900.83 563.62 L897.89 564.07 L895.84 565.33 L897.09 565.99 L900.44 569.03 L896.08 571.25 L893.92 573.01 L892.35 575.59 L891.62 580.57 L893.36 588.89 L893.18 592.63 L890.45 595.62 L877.44 600.22 L874.88 602.81 L873.81 604.52 L873.03 606.86 L872.61 609.72 L872.75 611.2 L873.11 612.37 L873.52 616.26 L873.89 617.22 L874.18 618.27 L873.84 624.34 L873.41 625.6 L872.27 627.02 L870.33 627.99 L868.18 628.14 L866.25 628.82 L864.9 631.34 L864.98 635.03 L866.09 639.92 L867.57 644.56 L868.82 647.64 L863.63 651 L839.35 642.04 L826.71 641.23 L822.96 639.41 L819.78 635.66 L814 626.71 L810.3 623.75 L804.86 621.88 L802.13 621.82 L799.36 622.45 L796.92 621.99 L795.17 619.9 L793.23 618.41 L790.32 619.77 L787.87 623.49 L786.25 627.85 L784.37 631.92 L781.13 634.81 L778.35 635.65 L766.13 634.98 L760.86 636.71 L755.72 639.77 L751.07 643.91 L750.06 645.8 L749.51 647.96 L748.76 649.76 L747.15 650.5 L745.64 649.98 L742.73 647.86 L741.23 647.47 L739.1 648.73 L736.95 650.67 L734.51 651.09 L731.6 647.77 L726.33 640.21 L723.71 637.63 L723.68 637.62 L711.19 632.21 L709.19 631.34 L702.67 626.64 L697.31 620.27 L682.42 595.79 L677.18 589.68 L659.79 575.06 L658.42 571.42 L657.95 565.33 L658.42 562.62 L659.32 560.87 L659.87 559.09 L659.35 556.28 L658.18 554.83 L656.33 553.9 L623.26 550.94 L619.31 547.11 L617.29 541.2 L615.82 535.19 L613.45 531.06 L611.04 530.98 L609.28 531.6 L600.83 534.53 L596.89 534.87 L593.18 534.3 L589.7 532.15 L586.38 527.77 L585.54 525.42 L585.41 523.45 L585.36 523.14 L585.12 521.52 L583.77 519.29 L582.24 518.22 L576.67 516.99 L570.47 512.99 L560.94 501.37 L554.63 497.93 L553.03 498.02 L552.01 498.58 L551.03 498.81 L549.6 497.93 L548.61 496.19 L546.74 490.8 L545.66 488.76 L542.85 486.43 L539.99 485.92 L537.97 487.89 L537.79 493.04 L542.2 501.09 L543.27 505.84 L540.15 509.98 L535.11 512.6 L532.63 512.6 L530.33 510.64 L528.41 504.24 L526.96 496.92 L524.79 490.8 L520.71 488.04 L513.34 488.25 L509.64 489.35 L506.2 491.55 L504 493.82 L494.56 503.55 L490.54 506.35 L478.45 508.13 L474.65 510.59 L471.36 513.64 L469.69 515.18 L465.59 514.49 L461.49 511.85 L456.58 510.57 L454.27 513.65 L451.37 521.85 L448.92 523.81 L439.35 524.89 L428.31 523.86 L425.15 524.56 L416.89 532.19 L410.64 535.52 L408.68 537.81 L406.09 544.85 L404.33 547.84 L400.66 549.92 L396.17 550.16 Z M332.23 474.59 L331.38 467.41 L334.11 463.08 L338.66 461.49 L343.24 462.57 L344.62 469.62 L341.52 475.97 L336.53 478.64 Z M220.06 357.26 L223.91 358.69 L229.18 362.27 L233.86 367 L236.21 371.85 L234.9 376.08 L224.9 368.98 L221.16 371.85 L223.14 372.4 L224.95 373.28 L226.46 374.97 L227.51 377.82 L220.72 376.81 L217.7 375.01 L214.62 371.85 L214.01 370.42 L213.39 368.29 L212.39 366.34 L210.81 365.49 L208.39 365.48 L208.12 366.09 L207.2 367.74 L206.89 368.84 L206.05 373.21 L205.48 374.93 L204.28 376.92 L203.2 378.07 L200.86 380.07 L199.8 379.9 L198.32 379.31 L197.02 379.89 L196.44 383.23 L196.52 385.06 L196.71 386.99 L197.02 388.8 L197.41 390.3 L193.8 393.16 L190.45 397.35 L187.22 399.83 L180.23 394.3 L176.65 394.48 L175.5 397.01 L178.96 400.75 L168.44 415.24 L165.97 416.58 L163.45 417.39 L160.79 419.16 L156.2 425.01 L154.05 426.74 L150.49 427.35 L143.3 426.62 L139.88 427.67 L138.14 431.43 L145.47 436.07 L140.19 441.1 L131.7 442.27 L129.46 435.34 L127.08 433.68 L124.17 432.93 L121.21 433.12 L118.64 434.41 L116.24 436.9 L115.29 438.18 L114.56 437.56 L112.8 434.41 L110.58 432.54 L109.18 434.53 L107.84 439.61 L106.71 440.57 L106.2 441.25 L105.73 441.66 L104.64 441.81 L104.57 440.77 L103.74 436.28 L103.65 435.34 L101.42 435.21 L98.67 436.47 L96.11 438.51 L94.43 440.7 L92.74 442.23 L90.91 441.51 L89.09 440.41 L87.44 440.7 L86.27 441.69 L83.27 443.4 L82.06 443.68 L77.28 446.72 L72.82 450.83 L70.76 453.9 L69.62 454.88 L69.15 456.38 L68.85 467.48 L68.15 474.03 L66.8 480.53 L62.46 492.75 L61.17 495.49 L59.4 497.89 L57.84 500.52 L57.61 503.4 L58.33 510.05 L56.28 513.06 L33.99 533.44 L29.03 533.62 L24.82 527.36 L25.5 523.91 L24.92 520.65 L23.36 518.2 L21.16 517.25 L20.74 516.75 L20.5 515.59 L20.44 514.2 L20.62 513 L24.77 513.38 L26 513 L27.1 510.94 L28.8 504.68 L29.74 501.95 L35.66 492.71 L38.37 486.44 L39.87 483.7 L41.52 482.56 L43.8 483.26 L45.83 484.61 L47.71 485.44 L49.63 484.6 L50.49 482.61 L51.41 476.39 L52.36 473.49 L58.33 464.24 L54.76 460.38 L48.71 457.8 L37.76 455.9 L34.72 452.7 L29.03 438.57 L25.41 435.34 L15.19 435.21 L10.09 433.53 L5.58 429.38 L2.98 424.21 L1.79 420.7 L1.72 418.14 L3.66 416.73 L11.94 419.16 L10.12 414.62 L7.43 409.94 L6.44 406.31 L9.78 404.85 L12.59 406.87 L15.11 410.75 L17.66 413.17 L20.62 410.81 L19.29 405.58 L21.35 402.43 L24.88 401.44 L28.15 402.61 L26.73 399.17 L24.82 392.71 L17.88 379.09 L14.5 374.68 L10.82 368.23 L8.71 365.49 L4.25 361.16 L0 355.41 L8.29 359.26 L10.86 359.32 L13.2 358.36 L13.55 357.3 L13.63 355.72 L15.13 353.18 L21.13 353.42 L25.69 354.94 L29.65 358.94 L36.49 371.75 L37.37 374.82 L37.72 378.93 L37.96 380.71 L38.63 381.65 L39.5 382.03 L40.45 382.13 L41.88 380.95 L41.91 378.35 L41.04 373.91 L41.93 366.01 L42.7 362.57 L44.26 359.32 L46.34 357.32 L51.4 354.61 L53.43 352.22 L55.23 348.03 L55.93 345.79 L57.01 344.9 L59.89 344.74 L60.31 345.4 L60.85 346.96 L61.35 348.76 L61.55 350.16 L61.77 353.77 L62.4 355.53 L64.68 357.26 L69.38 358.11 L70.9 352.07 L71.07 343.78 L71.76 337.81 L77.05 333.15 L99.26 330.69 L112.99 319.61 L118.16 318.12 L119.88 319.75 L122.8 326.83 L124.55 328.45 L125.55 329.09 L127.23 331.92 L128.38 332.56 L129.97 331.92 L132.74 329.07 L133.74 328.45 L136.96 329.42 L139.58 331.21 L142.27 332.15 L145.67 330.69 L150.82 324.08 L154.07 321.62 L159.58 324.49 L167.97 322.43 L171.49 323.29 L174.95 325.48 L182.15 328.02 L189.5 333.33 L198.09 337.32 L201.28 341.92 L203.56 348.14 L204.78 349.98 L207.1 352.22 L213.45 355.58 Z M243.82 334.62 L246.26 339.52 L246.75 342.01 L243.55 344.38 L242.24 347.03 L240.76 348.93 L238.36 348.03 L235.84 346.21 L233.13 345.25 L227.6 344.74 L225.41 345.5 L220.72 348.27 L218.98 348.03 L204.95 334.62 L196.86 331.41 L193.1 327.51 L193.65 321.12 L195.63 319.54 L200.46 321.24 L202.79 319.99 L203.2 318.37 L204.28 312.08 L204.95 309.86 L208.1 305.59 L211.43 304.03 L214.88 304.17 L229.14 308.45 L235.73 312.51 L237.86 315.03 L238.71 317.95 L238.55 320.94 L238.21 323.82 L238.45 326.39 L239.73 329.05 L242.63 332.67 Z M241.05 198.18 L245.08 204.73 L245.72 208.18 L244.32 212.97 L242.66 214.5 L240.78 213.91 L238.91 212.56 L237.28 211.93 L235.61 212.58 L230.83 215.92 L227.6 215.98 L222.22 212.73 L218.92 211.93 L218 212.56 L217.61 213.94 L216.93 215.29 L211.17 216.7 L209.45 216.52 L207.1 214.96 L202.55 202.11 L201.72 200.37 L202.47 196.78 L204.43 194.58 L207.08 193.45 L210.54 193 L216.5 193.55 L227.51 197.13 L234.44 195.1 L237.94 195.02 Z M72.3 239 L62.09 241.67 L57.07 241.19 L36.22 229.66 L33.41 226.51 L35.12 221.47 L41.21 220.45 L52.86 222.18 L99.26 215.92 L96.18 213.83 L95.95 211.71 L97.93 210.94 L101.41 212.97 L103.25 212.79 L103.11 202.01 L105.74 199.21 L109.3 198.97 L112.07 197.83 L114.4 195.29 L116.55 190.88 L117.1 188.15 L117.1 185.58 L117.39 183.03 L118.79 180.42 L120.44 179.64 L127.18 180.39 L127.28 180.42 L131.3 181.05 L136 182.81 L138.77 185.75 L135.22 194.44 L136.76 199.4 L139.77 203.48 L142.32 205.48 L158.13 204.4 L173.39 211.91 L175.82 215.92 L176.31 219.06 L175.51 223.78 L175.82 226.51 L177.23 229.4 L180.53 232.17 L181.8 233.9 L182.81 235.76 L185.03 238.33 L186.14 240.04 L186.61 241.44 L186.76 243.02 L186.68 246.47 L187.18 248.48 L188.24 249.07 L189.35 249.11 L189.91 249.41 L190.14 255.57 L189.04 258.75 L186.76 259.12 L180.27 254.53 L178.61 253.83 L176.96 253.56 L175.82 254.61 L175.42 256.55 L174.67 257.57 L172.62 255.81 L170.01 257.14 L167.32 257.17 L164.81 258.02 L162.86 261.87 L164.35 261.92 L165.36 262.71 L165.97 264.37 L166.16 267.04 L165.93 270.86 L165.2 271.6 L163.97 271.64 L162.3 273.37 L159.43 275.1 L154.91 275.27 L150.72 273.74 L148.87 270.34 L150.6 267.16 L154.05 264.67 L156.52 262.14 L155.33 258.95 L152.64 258.73 L148.76 260.56 L144.92 263.37 L142.32 266 L138.94 273.42 L133.56 291.01 L129.46 297.46 L122.57 301.18 L113.83 302.24 L105.34 299.89 L99.26 293.32 L100.69 292.27 L102.08 290.79 L104.64 286.93 L102.46 283.69 L99.59 278.11 L97.12 271.97 L96.04 267.04 L96.04 259.69 L95.6 255.39 L94.05 252.02 L86.51 242.94 L82.21 239.96 L77.52 238.57 Z M422.33 22.66 L424.7 27.05 L427.71 35.2 L426.57 38.29 L422.39 39.39 L418.11 34.61 L417.83 28.75 L419.91 23.23 Z M224.76 563.49 L226.36 565.18 L227.05 567.86 L226.28 571.73 L223.14 572.1 L219.88 569.94 L218.03 567.21 L218.16 564.68 L218.47 562.26 L219.06 560.48 L221.47 560.82 Z "/>
</g>
</svg>
