<svg xmlns="http://www.w3.org/2000/svg" viewBox="0 0 1000 1323.56">
<g fill="#ccc" stroke="#333" stroke-width="0.5" stroke-linejoin="round">
<path fill-rule="evenodd" d="M873.99 184.94 L893.51 203.54 L915.04 215.17 L964.92 228.01 L955.08 254.21 L959.03 284.22 L967.9 315.09 L973.05 343.99 L970.34 366.25 L945.55 432.29 L941.91 456.65 L951.25 542.89 L956.86 566.32 L992.26 637.86 L1000 706.51 L997.37 922.74 L985.29 917.27 L966.85 898.7 L954.85 896.36 L904.58 896.1 L906.21 921.27 L893.51 995.51 L881.82 1064.59 L868.65 1141.9 L870.22 1193.82 L870.7 1209.87 L872.6 1272.32 L876.78 1284.69 L881.89 1293.84 L885.69 1302.81 L887.86 1312.4 L888.24 1323.56 L821.06 1322.68 L749.07 1321.64 L639.95 1320.16 L557.23 1319.02 L506.97 1308.74 L429.95 1282.07 L372.6 1262.21 L346.05 1253.01 L280.36 1230.25 L269.05 1222.58 L257.47 1210.92 L221.69 1156.69 L144.75 1086.67 L127.94 1057.46 L124.77 1036.52 L132.51 1003.5 L133.44 982.56 L129.03 965.89 L121.05 953.47 L99.6 930.64 L89.68 915.45 L76.72 877.09 L72.92 865.82 L64.32 876.49 L52.82 886.29 L40.12 893.41 L27.65 895.84 L14.64 896.62 L9.56 877.01 L2.09 819.42 L0.93 703.66 L0 614.5 L16.23 551.79 L85.73 463.38 L140.1 394.39 L190.99 303.36 L231.34 206.21 L242.76 162.28 L252.48 144.89 L318.85 85.41 L394.44 17.8 L415.5 7.22 L441.45 0.34 L463.52 0 L482.57 6.36 L561.96 57.88 L641.34 109.42 L710.15 154.19 L722.42 162.17 L788.07 204.92 L809.63 211.47 L831.01 206.39 Z "/>
</g>
</svg>
