<svg xmlns="http://www.w3.org/2000/svg" viewBox="0 0 1000 776.84">
<g fill="#ccc" stroke="#333" stroke-width="0.5" stroke-linejoin="round">
<path fill-rule="evenodd" d="M72.11 370.39 L71.86 365.21 L73.95 355.16 L82.2 331.71 L86.13 328.04 L87.64 325.78 L87.74 325.03 L87.52 323.37 L87.53 322.61 L87.72 322.25 L88.36 321.58 L88.57 321.19 L89.14 318.32 L89.07 315.26 L85.82 300.34 L85.52 297.53 L86.04 295.13 L91.78 286.96 L94.36 281.93 L95.42 280.51 L96.57 279.5 L104.61 273.92 L105.74 273.49 L106.56 273.82 L114.63 280.97 L116.59 282.24 L117.47 283.01 L117.9 284.04 L117.63 286.08 L117.72 287.07 L118.42 287.34 L118.96 286.79 L119.85 284.71 L120.67 283.98 L121.79 283.87 L122.6 284.11 L123.34 284.02 L124.19 282.89 L124.59 281.68 L124.6 280.86 L124.87 280.05 L126.09 278.89 L129.69 276.13 L130.82 274.51 L131.33 272.18 L130.96 271.16 L128.98 269.7 L128.34 268.81 L128.39 268.07 L132.8 255.06 L133.05 252.95 L132.2 251.55 L131.04 250.25 L130.39 248.4 L130.58 246.93 L138.99 228.27 L139.24 226.93 L139.07 225.66 L137.68 222.89 L137.19 221.49 L137.32 218.7 L136.82 216.12 L136.86 214.74 L137.33 213.12 L138.05 211.45 L138.96 209.89 L139.98 208.57 L142.56 206.88 L144.02 206.32 L148.49 204.59 L150.5 202.32 L150.64 201.65 L150.68 200.41 L150.69 200.1 L150.88 199.47 L151.48 198.87 L153.98 197.43 L155.28 195.92 L155.86 194.3 L156.52 190.56 L157.71 187.57 L158.21 186.8 L158.87 186.24 L160.32 185.48 L161.02 184.91 L161.63 183.98 L161.82 183.13 L162 181.23 L162.71 179.32 L175.26 158.27 L175.86 157.58 L176.43 157.35 L177.72 157.25 L178.3 157 L178.97 156.27 L179.21 155.57 L179.3 154.84 L179.76 153.1 L179.74 152.73 L179.99 152.52 L180.9 152.1 L180.99 152.05 L182.7 151.48 L202.82 148.56 L203.39 148.54 L204.2 148.67 L204.64 148.9 L205.03 149.19 L205.64 149.52 L207.46 150.03 L208.5 149.61 L209.07 148.26 L210.38 140.66 L210.37 138.99 L210.08 137.97 L208.52 135.25 L208.46 133.73 L209.23 132.56 L210.22 131.56 L210.82 130.56 L210.8 129.97 L210.59 129.38 L210.06 128.29 L209.96 126.98 L216.41 104.42 L226.31 90.06 L226.93 88.12 L227.16 84.23 L227.4 82.85 L230.17 75.97 L231.39 72.95 L231.2 69.53 L230.04 66.09 L229.68 64.41 L229.65 62.66 L229.95 61.2 L235.94 42.46 L237.23 42.49 L237.72 41.14 L238.56 40.44 L239.68 40.17 L241.1 40.14 L242.03 39.92 L244.09 38.95 L245.43 38.73 L248.43 38.73 L249 38.57 L250.08 37.9 L250.73 37.74 L255.29 37.74 L257.43 38.04 L261.78 39.33 L264 39.63 L264.39 39.89 L265.59 41.55 L266.13 41.94 L266.65 42.23 L267.23 42.42 L267.91 42.49 L268.3 42.36 L269.28 41.55 L269.82 41.5 L271.04 41.65 L271.55 41.55 L272.39 40.96 L273.1 40.11 L273.61 38.97 L273.79 37.53 L273.83 35.88 L274.06 34.48 L274.6 33.12 L275.61 31.63 L277.52 30.18 L279.83 29.65 L284.76 29.75 L286.22 29.25 L287.14 29.11 L288.76 30.51 L290.02 31.25 L292.55 34.92 L293.57 35.95 L293.82 36.5 L293.92 37.53 L293.89 39.1 L294.07 39.83 L295.04 40.39 L297.73 42.67 L298.02 43.08 L298.51 44.37 L298.85 46.09 L299.25 46.86 L300.1 47.19 L300.79 47.31 L301.48 47.65 L301.99 48.17 L302.19 48.83 L302.27 50.59 L302.58 51.73 L303.28 52.56 L304.48 53.34 L305.23 52.57 L307.63 46.77 L311.47 37.53 L315.65 27.43 L319.95 17.06 L324.29 6.6 L327.01 0 L328.17 1.02 L328.97 2.21 L330.25 4.74 L330.54 4.98 L331.19 5.06 L331.42 5.29 L331.46 5.57 L331.44 6.3 L331.48 6.52 L331.73 7.02 L331.88 7.48 L332.17 7.81 L332.92 7.93 L333.57 8.43 L333.72 8.97 L333.77 9.58 L334.15 10.26 L334.7 10.7 L341.94 13.7 L343.14 13.92 L346.94 13.26 L348.52 13.36 L349.55 13.79 L350.23 14.63 L350.65 15.67 L350.78 15.99 L351.11 17.89 L351.44 18.56 L352.07 19.16 L352.85 19.6 L353.55 20.13 L353.98 21.02 L354.61 23.63 L355.16 24.84 L355.93 25.86 L356.98 26.68 L360.55 28.63 L361.09 29.15 L361.54 30.64 L361.9 31.25 L362.73 31.88 L363.28 31.94 L363.85 31.78 L367.14 31.8 L372.23 31.22 L374.72 30.55 L378.85 28.4 L380.15 28.44 L381.36 28.85 L382.58 28.97 L383.81 28.86 L385.08 28.56 L389.06 26.9 L392.03 26.61 L393.26 25.75 L395.46 23.72 L398.24 22.41 L399.61 21.55 L400.55 20.31 L400.75 19.04 L400.65 17.75 L400.75 16.6 L401.61 15.75 L401.71 15.99 L404.1 16.27 L406 16.7 L406.67 16.98 L408.12 17.9 L409.47 19.13 L410.62 20.55 L411.54 22.03 L413.47 27.75 L414.85 30.3 L416.52 30.28 L417.98 27.94 L418.88 27.11 L420.54 26.84 L424.15 27.43 L425.42 27.35 L430.89 25.82 L433.61 24.49 L434.8 22.88 L435.32 21.5 L436.48 21.52 L437.8 22.27 L438.81 23.12 L440.17 24.78 L440.58 25.17 L440.96 25.37 L444.39 26.41 L446.18 26.57 L449.2 26.06 L450 25.92 L452.13 25.85 L454.13 26.51 L455.97 27.68 L459.48 30.75 L460.49 31.24 L461.75 31.45 L463.06 31.08 L465.11 29.33 L466.33 29.02 L467.67 29.26 L469.23 29.54 L470.18 29.52 L473.47 28.54 L474.65 28.52 L480.65 29.99 L483.53 31.17 L486.16 32.75 L491.27 37.52 L495.81 41.76 L499.69 43.78 L506.76 47.2 L508.65 47.81 L514.67 48.68 L519.2 50.39 L523.26 53.3 L530.24 61.28 L537.3 69.36 L542.49 78.58 L547.2 86.98 L549.22 88.99 L558.22 94.78 L569.8 102.22 L576.79 108.01 L581.88 112.22 L584.48 114.93 L586.75 117.93 L588.87 121.48 L594.06 132.76 L597.54 137.68 L602.75 141.05 L606.56 142.62 L610.27 144.72 L613.44 147.47 L617.8 154.93 L623.24 162.35 L626.42 165.73 L622.4 171.17 L620.37 175.63 L611.48 187.83 L610.47 190.32 L609.94 191.16 L608.36 191.94 L607.63 192.75 L604.93 197.79 L599.42 205.66 L596.86 209.3 L596.12 210.05 L595.2 210.77 L594.27 211.21 L593.52 211.44 L592.95 211.85 L592.58 212.82 L591.92 213.69 L589.3 214.85 L588.31 215.52 L587.26 217.68 L586.34 222.85 L584.37 229.02 L584.42 232.74 L586.14 240.56 L586.96 247.96 L586.8 261.04 L586.38 263.94 L585.18 265.88 L585.53 266.33 L586.02 266.97 L587.68 267.61 L595.56 269.22 L595.79 269.56 L595.96 269.97 L596.36 270.3 L596.94 270.39 L597.29 270.13 L597.59 269.8 L598.05 269.61 L601.83 269.45 L603.67 268.99 L605.74 266.88 L607.53 266.28 L611.2 265.88 L614.63 266.67 L615.89 266.68 L616.8 266.45 L619.17 265.38 L619.75 265.32 L620.94 265.36 L621.51 265.31 L623.69 264.56 L625.2 264.81 L626.24 265.17 L627.24 265.22 L628.68 264.54 L633.11 261.6 L639.12 259.76 L641.68 259.56 L642.18 259.52 L646.91 260.65 L648.5 260.72 L649.78 261.2 L651.46 264.9 L652.59 265.86 L654.08 266.19 L656.84 266.47 L658.49 266.95 L659.37 267.1 L660.35 266.74 L661.02 265.91 L661.69 265.33 L662.73 265.7 L661.9 267.16 L661.23 269.93 L660.72 271.08 L659.6 272.02 L656.8 273.2 L655.77 274.28 L655.25 275.63 L654.99 276.75 L654.56 277.79 L653.52 278.91 L651.13 280.85 L650.35 281.94 L649.71 283.59 L649.07 286.35 L648.58 287.68 L647.78 288.81 L646.49 289.55 L645.16 289.96 L644.29 290.6 L644.38 292.04 L645.71 295.08 L647.49 297.9 L651.17 301.5 L652.2 302.83 L652.92 304.69 L653.77 310.88 L655.02 315.23 L656.9 319.37 L658.64 321.47 L665.03 325.64 L666.61 327.26 L667.81 329.27 L668.66 331.49 L669.21 333.71 L670.48 336.86 L672.34 338.72 L674.78 339.71 L677.82 340.24 L680.31 341.37 L681.59 343.55 L683.52 354.34 L684.42 357.01 L685.88 358.63 L687.68 359.09 L688.23 359.36 L688.87 360.03 L689.51 361.5 L689.95 362.24 L690.59 362.82 L691.94 363.72 L692.55 364.32 L694.06 367.39 L694.47 368.6 L694.64 370.87 L694.93 372.14 L695.78 373.2 L699.26 375.3 L704.39 378.4 L705.64 378.52 L707.26 377.89 L708.33 377.82 L709.28 378.35 L714.42 383.06 L720.36 388.5 L728.86 396.28 L733.52 400.55 L736.13 402.09 L741.48 403.87 L747.36 405.82 L753.24 407.77 L759.12 409.73 L765 411.68 L770.88 413.63 L776.76 415.58 L782.64 417.54 L788.52 419.49 L794.4 421.44 L800.28 423.39 L806.16 425.34 L812.04 427.3 L817.92 429.24 L823.8 431.19 L829.68 433.14 L835.57 435.1 L841.17 436.99 L846.77 438.89 L852.38 440.78 L857.97 442.68 L863.57 444.57 L869.17 446.47 L874.76 448.37 L880.36 450.26 L885.96 452.15 L891.57 454.05 L897.16 455.94 L902.77 457.84 L908.37 459.73 L913.96 461.63 L919.57 463.52 L925.16 465.42 L929.37 466.84 L933.29 468.8 L939.22 468.8 L948.72 468.8 L959.1 468.8 L969.61 468.8 L978.3 468.8 L990.5 468.8 L1000 468.8 L996.76 471.96 L993.5 475.11 L990.26 478.27 L987.02 481.42 L983.78 484.58 L980.54 487.74 L977.3 490.89 L974.05 494.05 L970.81 497.2 L970.19 497.8 L967.57 500.35 L964.33 503.51 L961.09 506.66 L957.85 509.82 L954.61 512.97 L951.36 516.12 L948.11 519.27 L944.87 522.42 L941.63 525.57 L938.39 528.73 L935.14 531.88 L931.91 535.03 L928.67 538.18 L925.43 541.33 L922.18 544.48 L918.94 547.63 L915.7 550.78 L912.46 553.93 L909.22 557.07 L907.86 558.39 L904.87 561.29 L901.88 564.19 L900.52 565.51 L899.11 566.88 L896.24 569.67 L892.17 573.86 L888.11 578.06 L884.04 582.26 L879.96 586.45 L875.89 590.64 L871.82 594.84 L867.75 599.03 L863.69 603.23 L856.53 611.09 L849.38 618.94 L842.22 626.81 L835.84 633.81 L835.06 634.66 L827.91 642.52 L820.75 650.37 L813.59 658.22 L806.43 666.07 L802.64 670.24 L802.62 670.24 L797.35 675.96 L795.42 676.77 L791.8 676.55 L788.34 676.35 L784.89 676.15 L781.43 675.95 L777.97 675.75 L774.51 675.55 L774.35 675.54 L771.06 675.35 L767.59 675.15 L764.14 674.95 L760.69 674.75 L757.22 674.55 L753.77 674.35 L750.31 674.15 L746.85 673.95 L743.39 673.75 L739.94 673.55 L736.48 673.35 L732.46 673.11 L730.02 673.7 L724.2 675.76 L722.2 676.22 L715.62 677.74 L710.55 678.91 L703.08 680.64 L698.46 682.83 L690.97 686.39 L683.35 690.01 L675.78 693.62 L670.18 698.22 L665.18 702.34 L664.65 702.99 L664.21 703.71 L663.32 705.96 L662.13 710.64 L661.12 712.79 L659.16 715 L659.08 715.09 L656.59 716.73 L653.79 717.85 L649.05 718.66 L639.02 720.37 L628.79 722.12 L620.94 723.46 L615.91 723.51 L610.14 723.57 L607.97 724.11 L605.67 725.27 L601.9 728.29 L597.19 731.18 L596 732.23 L595.55 733.53 L595.6 735.58 L595.25 736.42 L594.33 737.16 L593.44 738.47 L590.16 740.33 L587.19 739.75 L584.25 738.19 L581.08 737.16 L578.25 738.77 L577.29 738.99 L576.34 738.82 L574.57 738.08 L573.51 738.01 L568.16 739.33 L566.4 739.43 L563.05 740.37 L555.57 740.8 L548.76 741.19 L545.27 740.78 L542.03 739.47 L539.07 737.16 L534.79 731.15 L533.04 729.54 L531.97 728.9 L528.78 727.81 L527.57 727.19 L526.88 726.51 L525.76 724.44 L524.12 722.57 L520.1 719.84 L518.63 717.89 L514.42 720.66 L508.87 722.8 L501.83 725.51 L493.21 728.83 L492.83 729.19 L492.44 730.27 L492.08 730.6 L486.82 732.44 L480.06 734.8 L479.87 734.81 L479.67 734.75 L479.47 734.64 L478.83 734.58 L478.77 734.84 L478.82 735.26 L478.51 735.65 L475.49 737.16 L469.03 740.29 L463.28 743.05 L457.57 745.82 L456.22 747.48 L454.91 750.97 L453.05 755.9 L451.95 757.96 L450.67 759.64 L445.43 764.45 L441.05 768.45 L439.32 770.52 L437.87 774.97 L436.74 776.73 L434.61 776.84 L433.55 776.13 L433.05 775.24 L432.7 774.33 L432.12 773.59 L430.06 772.89 L421.73 772.64 L422.35 771.41 L422.04 770.72 L421.16 770.67 L420.73 770.91 L418.15 772.4 L415.6 772.47 L413 771.92 L407 769.15 L406.14 768.76 L405.5 768.6 L401.66 769.41 L400.63 769.43 L399.63 769.05 L398.51 768.9 L395.71 769.44 L393.97 769.47 L389 768.12 L382.42 766.34 L381.2 765.67 L380.16 764.61 L378.35 762.23 L378.38 762.67 L378.29 763.61 L378.3 764.06 L374.41 763.78 L374.05 763.55 L373.99 763.19 L373.86 762.97 L372.92 763.34 L372.55 763.39 L371.68 763.29 L370.75 763.06 L370.49 762.67 L370.36 762.14 L369.82 761.5 L368.56 760.45 L368.21 760.3 L367.57 760.56 L367.43 761.11 L367.48 761.71 L367.4 762.09 L364 763.58 L360.26 763.9 L353.13 763.1 L346.05 762.3 L343.96 762.46 L341.86 762.98 L341.05 762.85 L339.51 761.51 L337.52 760.9 L336.66 760.42 L335.64 759.2 L333.94 756.48 L332.7 755.24 L330.64 753.92 L323.99 749.63 L317.64 745.54 L310.75 741.1 L304.63 737.16 L299.23 733.67 L291.62 728.78 L285.11 724.58 L278.61 720.39 L275 718.07 L274.61 717.96 L274.21 717.97 L273.86 717.89 L273.65 717.53 L273.3 716.05 L273.04 715.4 L272.6 714.8 L272.1 714.64 L270.77 714.74 L270.28 714.42 L269.23 712.65 L268.58 712.16 L265.86 711.53 L261.11 709.14 L257.13 708.03 L244.28 708.15 L244.11 708.11 L243.72 708.01 L242.73 707.42 L242.15 707.29 L231.71 707.5 L219.32 707.75 L218.45 707.64 L217.24 707.05 L216.58 706.87 L215.88 706.87 L213.59 707.19 L203.85 707.27 L203.58 707.27 L202.05 706.9 L200.63 705.98 L198.04 703.71 L196.85 702.96 L196.4 702.02 L196.42 700.88 L196.62 699.53 L196.55 698.24 L195.67 696.67 L195.54 695.51 L186.45 685.82 L184.81 683.04 L184.25 679.78 L184.54 665.78 L184.87 664.92 L187.43 661.68 L187.97 660.34 L187.96 658.96 L187.36 657.35 L186.04 654.81 L185.83 653.51 L186.28 651.95 L188.09 649.32 L187.76 648.73 L184.1 647.31 L179.72 644.6 L178.03 644.14 L176.79 644.43 L175.6 644.99 L174.01 645.33 L172.39 644.89 L169.52 642.56 L168 641.66 L166.81 641.35 L165.42 641.17 L164.01 641.17 L162.81 641.41 L161.34 642.39 L158.62 645.37 L157.12 646.42 L155.51 646.67 L154.28 646.09 L153.29 644.97 L151.1 641.5 L150.83 640.88 L150.91 640.06 L151.38 639.34 L151.96 638.64 L152.36 637.88 L152.07 637.08 L151.58 635.73 L149.01 633.65 L143.67 630.52 L140.69 628.32 L139.99 627.03 L139.42 623.14 L138.46 621.35 L133.06 613.67 L132.4 612.19 L132.29 611.3 L132.41 610.57 L132.62 609.8 L132.77 608.85 L132.56 608.1 L131.46 606.92 L131.13 606.19 L131.15 605.41 L131.39 604.65 L132.09 603.23 L131.97 602.46 L131.4 598.86 L130.87 597.56 L129.73 596.14 L128.47 594.97 L127.36 593.7 L126.1 590.42 L123.75 586.32 L123.42 584.98 L123.37 581.02 L122.94 579.28 L120.28 574.71 L119.72 573.35 L119.17 569.49 L117.69 565.66 L117 562.95 L116.33 560.21 L115.87 559.92 L115.06 558.99 L114.74 557.76 L114.33 557.03 L109.79 554.01 L108.66 553.56 L107.2 553.38 L104.35 553.38 L103.17 553.12 L102.4 552.46 L101.95 549.71 L101.86 549.43 L101.56 548.74 L101.49 548.34 L101.64 548.27 L102.26 547.84 L102.4 547.65 L102.31 546.33 L102.02 545.16 L101.57 544.14 L101 543.25 L96.69 540.24 L87.25 537.97 L87.04 537.72 L86.58 537.52 L86.12 537.2 L85.79 536.03 L85.46 535.63 L82.73 533.62 L82.07 532.76 L81.65 532.36 L81.14 532.19 L80.62 531.53 L80.46 530.01 L80.46 529.29 L80.46 527.19 L80.13 525.81 L79.5 524.62 L78.59 524.07 L77.48 524.6 L76.23 524.87 L74.95 523.92 L73.13 521.64 L70.06 519.23 L69.64 519.03 L69.47 518.69 L69.44 512.41 L68.97 510.14 L67.83 508.29 L59.55 499.8 L57.56 498.63 L56.86 498.47 L55.48 498.3 L54.82 498.13 L51.45 495.63 L49.34 492.67 L48.45 491.66 L47.82 491.34 L45.71 490.73 L43.89 489.54 L43.19 489.36 L38.86 489.77 L37.43 489.36 L36.73 488.84 L35.81 487.62 L35.16 487.01 L34.49 486.69 L33.27 486.34 L32.67 485.87 L31.52 485.44 L29.8 485.5 L26.92 486.1 L26.33 486.39 L24.68 487.47 L23.84 487.5 L20.13 486.55 L18.93 485.46 L17.88 484.23 L16.85 483.34 L16.29 483.17 L14.12 482.84 L12.22 482.06 L11.66 481.96 L9.49 482.45 L9.15 482.61 L8.74 483.16 L7.85 483.03 L6.38 482.38 L4.57 482.18 L4.1 481.96 L3.86 481.55 L3.66 480.93 L3.4 480.37 L2.25 479.68 L1.68 478.63 L0 474.14 L0.25 473.41 L1.13 472.44 L1.19 472.34 L1.48 471.71 L1.8 471.38 L2.12 470.91 L2.42 469.49 L2.76 468.82 L3.61 467.66 L7.39 463.78 L7.79 463.14 L8.11 462.46 L8.25 461.89 L8.52 461.55 L10.52 461.22 L11.67 460.68 L12.51 460 L13.03 459.06 L13.21 457.73 L13 457.37 L12.09 456.71 L11.89 456.35 L11.91 455.4 L12.02 454.72 L12.29 454.11 L12.8 453.36 L13.39 452.91 L14.01 452.7 L14.48 452.34 L14.58 451.47 L13.68 451.1 L13.07 450.74 L12.58 449.99 L12.11 449.49 L11.65 448.84 L11.43 448.04 L11.56 447.54 L12.14 446.27 L12.29 445.45 L12.18 445.21 L11.58 444.78 L11.43 444.57 L11.48 444.2 L11.81 443.75 L11.89 443.44 L11.88 442.3 L11.99 441.78 L12.29 441.3 L13.21 440.86 L14.22 440.65 L14.71 440.21 L14.51 439.81 L14.45 439.54 L16.37 437.85 L17.54 437.68 L24.79 439.29 L25.42 439.08 L26.34 438.37 L26.84 438.11 L27.38 438.06 L28.24 438.25 L32.74 437.72 L33.37 437.36 L33.39 437.12 L33.02 436.62 L34.38 436.56 L35.5 437.2 L36.51 438.02 L37.52 438.45 L38.78 438.23 L39.73 437.69 L40.72 437.29 L42.07 437.51 L44.16 439.28 L45.47 441.59 L47.08 443.44 L50.12 443.83 L50.84 443.71 L51.13 443.62 L53.9 441.23 L54.59 440.76 L55.66 440.29 L56.78 439.99 L59.07 439.72 L62.84 439.71 L64.08 439.37 L65.44 438.55 L72.04 432.59 L73.42 431.05 L74.28 429.51 L74.55 428.01 L74.86 426.32 L73.9 406.8 L72.94 387.25 Z "/>
</g>
</svg>
