<svg xmlns="http://www.w3.org/2000/svg" viewBox="0 0 1000 621.02">
<g fill="#ccc" stroke="#333" stroke-width="0.5" stroke-linejoin="round">
<path fill-rule="evenodd" d="M453.06 530.47 L457.97 533.88 L457.32 540.1 L453.39 546.11 L448.38 548.78 L446.01 549.41 L443.15 551.08 L440.75 553.6 L438.49 560.5 L435.89 560.32 L433.59 557.02 L433.38 551.53 L433.24 550.78 L433 550.12 L432.66 549.45 L432.12 548.78 L435.14 545.37 L437.7 539.44 L438.96 532.02 L438.01 523.95 L434.5 518.1 L430.03 515.17 L426.12 511.62 L424.49 503.81 L425.8 495.19 L428.69 498.92 L433.14 511.5 L446.9 509.95 L452.86 511.43 L457.05 517.43 L455.76 519.61 L454.62 522.72 L453.68 526.39 Z M34.65 353.2 L31.59 354.19 L23.22 359.63 L23.22 362.42 L25.82 363.96 L28.63 364.4 L31.6 363.81 L34.65 362.42 L28.09 373.52 L18.39 373.48 L8.2 366.42 L0 356.54 L1.36 355.14 L2.75 354.19 L5.72 353.2 L8.22 354.41 L14.19 356.17 L18.85 360.73 L20.12 358.89 L21.14 353.2 L22.05 350.99 L22.59 347.91 L23.8 345.08 L26.76 343.94 L29.2 344.57 L31.26 346.36 L33.06 349.34 Z M103.4 412.09 L95.36 414.82 L89.7 414.52 L76.56 409.03 L77.75 404.5 L78.46 402.85 L74.46 402.74 L72.71 399.86 L71.89 396.18 L70.66 393.57 L67.91 392.43 L62.01 391.8 L59.24 390.48 L58.23 389.37 L57.59 388.23 L56.8 387.39 L55.43 387.39 L57.59 377.45 L55.68 371.02 L51.3 367.31 L46.07 365.76 L50.93 359.81 L54.77 357.16 L59.22 356.47 L70.57 356.69 L72.19 356.28 L75.6 348.68 L80.86 340.31 L84.13 337 L88.15 334.95 L89.43 334.69 L92.44 334.69 L93.71 334.95 L95.87 336.49 L96.64 338.21 L96.89 339.76 L97.53 340.86 L103.18 343.72 L105.58 347.03 L104.35 351.76 L99.07 356.28 L85.38 364.26 L80.36 371.94 L79.68 375.69 L81.12 376.76 L101.35 369.77 L109.83 361.98 L115.33 358.89 L119.88 354.19 L122.46 343.94 L121.24 340.2 L118.55 338.77 L117.26 336.86 L120.37 331.61 L123.94 328.31 L127.05 327.87 L129.23 330.47 L130.07 336.42 L129.54 340.42 L128.25 345.01 L126.64 349.12 L125.23 351.76 L123.66 355.88 L123.07 366.98 L122.46 371.94 L120.69 377.27 L114.65 390.48 L126.25 390.48 L124.05 394.64 L122.1 402.88 L120.37 406.2 L116.46 409.03 Z M13.34 291.62 L19.35 291.47 L29.36 296.3 L34.65 297.51 L29.86 300.37 L18.89 299.67 L14.37 302.24 L12.24 306.75 L11.4 311.99 L11.43 325.45 L7.99 324.09 L4.48 321.89 L1.61 318.4 L0 313.12 L1.73 304.14 L3.86 298.14 L7.36 294.22 Z M470.38 319.03 L462.81 328.2 L444.36 345.15 L414.86 388.38 L409.25 400.01 L406.61 407.04 L403.6 412.83 L399.33 416.81 L387.04 420.09 L369.24 433.47 L367.11 420.2 L366.21 418.28 L359.18 417.21 L355.45 415.85 L353.82 413.78 L352.64 408.85 L349.89 409.03 L346.99 411.46 L345.24 413.78 L344.6 418.5 L347.92 427.79 L347.15 432.07 L341.55 435.35 L317.47 433.47 L311 437.16 L307.69 437.56 L306.02 433.47 L306.96 430.74 L311.97 425.36 L313.65 421.63 L295.3 429.34 L290.79 433.47 L287.86 441.73 L289.49 448.67 L292.7 456.27 L294.42 466.39 L292.99 473.19 L289.58 478.81 L267.24 505.66 L263.95 508.4 L257.79 508.03 L249.12 501.66 L242.99 502.18 L244.14 502.84 L244.51 505.21 L244.33 508.06 L243.85 509.95 L241.96 511.13 L240.04 509.28 L238.13 506.69 L233.47 503.36 L228.26 494.85 L226.63 492.93 L223.39 491.63 L217.94 486.75 L214.24 486.72 L212.52 488.64 L212.02 491.75 L212.87 494.7 L220.37 498.51 L224.62 504.77 L227.68 512.84 L229.48 520.84 L218.08 534.54 L202.41 543.52 L187.36 541.85 L177.71 523.95 L181.33 524.32 L184.06 525.35 L186.56 525.65 L189.49 523.95 L184.25 519.87 L177.37 512.02 L171.23 503.18 L168.35 496.04 L170.46 494.63 L174.16 490.19 L175.67 485.46 L171.3 483.31 L143.21 482.09 L139.6 483.31 L137.31 486.64 L138.97 488.57 L142.6 489.53 L146.18 489.82 L151.82 492.56 L158.13 499.37 L163.49 507.62 L166.27 514.91 L150.07 514.91 L145.48 514.06 L143.18 511.87 L141.74 508.77 L129.11 491.38 L125.81 488.2 L122.2 487.6 L118.42 487.75 L114.65 486.72 L109.73 481.91 L100.62 469.05 L95.6 464.99 L82.76 462.03 L78.48 457.05 L80.36 446.16 L83.27 441.58 L90.26 443.13 L105.3 449.52 L117.46 450.4 L120.37 452.36 L121.6 456.79 L121.46 461.92 L122.73 465.5 L128.16 464.99 L124.17 449.52 L143.06 446.97 L160.72 439.96 L160.72 436.86 L151.84 431.77 L144.3 430.37 L137.79 426.83 L131.97 415.44 L156.19 415.22 L168.87 418.43 L174.05 427.83 L175.96 427.83 L177.05 424.51 L178.21 422.41 L181.68 418.28 L182.15 422.96 L183.58 426.94 L185.76 428.6 L188.51 426.28 L191.41 423.15 L194.1 422.92 L197.06 424.03 L204.84 425.36 L207.7 426.83 L212.33 430.67 L216.96 435.79 L219.35 435.9 L221.86 430.67 L218.05 427.83 L218.05 424.73 L225.14 424.91 L233.03 423.37 L240.56 420.12 L246.62 415.44 L253.84 402.07 L255.38 400.01 L256.23 398.17 L254.66 394.64 L251.55 392.57 L247.67 395.11 L237.56 404.43 L224.19 409.59 L210.35 409.29 L198.84 402.85 L220.99 404.36 L226.63 401.41 L228.67 399.94 L234.09 397.54 L235.2 395.11 L236.1 391.03 L238.22 386.94 L240.8 383.45 L242.99 381.21 L240.39 375.87 L240.67 372.34 L242.13 369.4 L242.99 365.76 L242.65 361.46 L241.22 351.65 L240.92 345.48 L243.78 337.77 L250.53 332.16 L258.18 329.85 L263.95 331.61 L261.79 335.39 L259.45 338.69 L254.42 343.94 L262.97 341.85 L266.49 341.85 L267.92 345.48 L267.16 349.71 L261.86 362.42 L265.13 364.55 L273.29 371.94 L273.71 364.62 L275.91 359.04 L279.68 356.06 L284.91 356.54 L281.59 349.89 L280.57 344.71 L281.09 330.07 L282.15 325.85 L284.72 323.13 L287.9 322.03 L290.79 322.36 L292.63 324.45 L294.61 331.65 L296.33 334.95 L298.24 334.47 L300.78 332.31 L302.99 331.83 L303.95 336.42 L305.16 337.59 L307.9 335.79 L316.45 327.98 L317.24 319.69 L316.92 310.26 L317.47 303.67 L310 301.03 L303.12 302.53 L296.46 305.43 L289.74 307 L273.37 304.55 L266.24 306.78 L267.92 316.2 L265.7 321.37 L263.65 321.37 L261.3 319.5 L258.24 319.03 L245.71 327.24 L241.96 328.53 L229.39 328.53 L225.46 330.1 L223.35 333.81 L221.86 337.88 L219.78 340.86 L214.16 340.89 L211.3 334.21 L208.66 326.22 L203.67 322.36 L197.55 319.69 L192.31 312.79 L189.2 303.7 L189.49 294.44 L193.42 286.75 L197.92 287.59 L203.18 291.84 L231.06 300.59 L239.02 300.85 L245.6 297.84 L258.43 287.66 L264.9 285.46 L286.9 287.73 L306.54 279.83 L312.33 280.81 L324.01 292.68 L330.66 295.86 L346.22 297.51 L342.15 289.16 L335.43 284.55 L327.66 282.57 L320.4 282.13 L314.85 279.39 L298.39 260.66 L295.43 258.9 L289.79 256.71 L286.81 254.26 L279.18 242.24 L271.94 241.43 L230.98 222.44 L227.58 219.16 L224.65 209.89 L224.03 204.53 L226.63 202.16 L242.99 202.16 L256.41 205.74 L259.33 203.62 L255.38 194.51 L249.64 188.46 L242.22 184.38 L234.43 181.79 L223.8 180.37 L216.08 181.03 L212.33 180.48 L203.59 175.42 L199.79 174.62 L197.03 173.6 L193.92 170.9 L191.82 167.41 L192.16 163.99 L193.18 159.11 L191.75 153.73 L187.56 144.12 L190.72 144.45 L193.62 144.2 L196.31 143.03 L198.84 140.78 L208.02 147.11 L239.02 159.4 L248.73 165.41 L277.28 189.66 L300.03 201.14 L325.08 204.97 L370.98 196.04 L364.27 188.13 L344.48 186.38 L347.15 176.22 L352.99 168.46 L359.54 162.46 L361.1 156.56 L362.93 154.71 L366.21 157.87 L367.23 160.6 L369.24 171.85 L386.1 157.65 L395.3 153.65 L403.54 156.34 L403.54 159.4 L401.96 160.82 L401.17 162.24 L400.61 163.84 L399.73 165.51 L425.95 170.54 L434.19 174.62 L429.78 176.8 L425.07 177.75 L415.13 177.75 L423.1 186.85 L437.98 186.85 L490.47 174.62 L495.45 172.58 L504.85 163.88 L510.56 162.46 L510.56 165.51 L490.93 179.82 L483.72 183.54 L496.36 190.75 L509.74 190.97 L537.23 180.48 L535.32 176.29 L531.98 172.43 L528.15 169.59 L524.76 168.5 L522.96 165.95 L522.79 152.78 L522 147.18 L524.35 147.47 L529.19 146.85 L531.53 147.18 L531.01 145.14 L530.3 140.09 L529.78 138.02 L533.75 137.94 L538.83 139.04 L543.18 141.51 L545.03 145.65 L547.13 148.56 L575.41 160.17 L582.92 165.41 L587.12 171.85 L575.15 171.19 L570.24 173.49 L567.91 180.48 L568.94 187.22 L572.52 187.47 L577.11 185.91 L581.21 186.85 L573.78 191.3 L560.83 206.1 L554.37 211.35 L552.52 206.39 L549.6 204.79 L546.22 205.74 L542.95 208.29 L542.95 211.35 L543.97 213.72 L543.63 216.35 L541.21 223.58 L543.2 222.37 L549.01 220.77 L549.01 223.58 L540.18 236.1 L539.18 238.95 L538.27 251.41 L536.3 254.26 L532.85 256.27 L525.97 265.05 L522 266.76 L518.87 264.97 L517.34 261.06 L517.22 256.2 L518.36 251.44 L509.67 261.94 L504.92 265.85 L501.03 263.69 L485.8 279.06 L493.53 278.44 L492.37 283.34 L482.77 295.97 Z M395.91 122.76 L391.86 125.37 L390.04 125.59 L390.04 128.93 L393.9 134.17 L390.68 138.53 L384.27 141 L378.6 140.78 L373.15 137.36 L368.31 132.35 L364.31 126.24 L361.44 119.42 L374.58 115.28 L378.88 115.24 L383.17 116.44 L394.07 122.65 Z M320.4 162.46 L300.48 166.32 L296.35 165.62 L291.24 163.33 L287.26 159.18 L286.47 153.14 L290.39 146.74 L297.28 143.03 L310.7 140.78 L313.77 142.74 L319.41 151.33 L322.31 153.29 L326.43 152.96 L330.03 151.98 L333.36 150.09 L336.68 147.18 L331.62 142.23 L316.31 133.44 L305.59 130.02 L292.5 120.36 L288.7 116.44 L284.16 109.98 L283.85 106.96 L286.81 104.24 L291.38 103.7 L293.88 106.57 L295.5 110.99 L297.37 115.02 L303.13 119.92 L310.38 122.43 L318.06 123.27 L325.08 122.76 L340.13 119.16 L347.08 121.12 L350.03 130.39 L351.28 132.24 L353.44 137 L354.1 141.87 L350.88 144.12 L340.32 156.34 L335.95 166.68 L334.6 168.5 L331.71 168.24 L323.62 163.62 Z M977.13 297.51 L988.24 293.52 L993.69 292.79 L1000 294.44 L1000 297.51 L992.17 298.17 L963.85 312.24 L958.11 313.34 L939.17 313.75 L935.47 315.1 L935.23 318.59 L931.69 321.81 L927.97 323.43 L885.57 328.49 L863.9 325.01 L852.95 325.45 L852.95 328.53 L856.38 329.22 L866.12 334.95 L870.72 336.64 L885.35 337.77 L885.35 340.86 L877.53 343.28 L861.08 342.22 L852.95 343.94 L833.6 356.25 L826.11 356.54 L832.13 359.48 L837.87 359.04 L855.22 350.51 L873.92 350.37 L870.09 355.44 L863.09 360.47 L855.47 364.26 L843.54 367.75 L822.29 381.21 L808.93 387.13 L783.21 382.97 L768.8 384.04 L758.74 387.39 L714.41 386.72 L707.63 384.04 L698.13 375.03 L685.22 370.14 L679.01 364.7 L672.99 361.35 L670.17 358.08 L668.77 354.26 L667.75 349.63 L666.25 345.74 L663.49 343.94 L660.01 346.59 L656.95 352.94 L654.78 359.81 L653.97 364.11 L655.45 369.77 L659.12 375.28 L663.82 379.55 L676.81 383.6 L688.08 389.56 L698.31 397.58 L703.67 406.2 L699.73 414.15 L707.06 416.51 L722.89 412.09 L730.97 412.61 L741.5 415.55 L749.43 421.41 L749.56 430.67 L757.19 436.86 L742.68 446.82 L738.12 452.36 L741.39 455.5 L743.41 459.59 L744.69 464.76 L747.07 480.28 L746.94 484.87 L744.79 486.49 L740.05 486.72 L737.48 484.53 L728.79 467.79 L725.58 463.03 L722.34 459.08 L718.41 456.38 L713.29 455.46 L710.8 454.5 L707.44 450.4 L705.66 449.52 L703.96 450.4 L703.22 452.43 L702.05 454.5 L698.98 455.46 L696.53 454.94 L692.44 452.8 L690.33 452.36 L686.71 453.91 L686.89 457.45 L688.36 461.7 L688.42 464.99 L684.64 469.12 L675.96 474.56 L672.14 478.77 L667.54 482.06 L664.62 476.77 L661.41 461.59 L655.6 468.13 L652.44 464.32 L650.47 456.12 L648.24 449.52 L642.23 446.42 L636.05 447.97 L631.24 447.86 L629.19 439.96 L624.13 442.69 L620 441.44 L611.87 433.47 L609.81 430.08 L608.24 428.38 L606.17 427.83 L602.81 429.26 L601.54 431.59 L600.67 434.28 L598.54 436.86 L594.54 438.89 L590.95 439.37 L587.37 438.56 L583.31 436.86 L580.83 435.09 L578.96 432.95 L576.84 431.33 L573.61 430.67 L571.61 431.62 L567.52 435.83 L565.12 436.86 L562.21 439.52 L563.82 444.65 L567.99 447.78 L576.22 442.43 L590.84 446.16 L594.93 449.07 L595.47 455.53 L595.36 462.03 L597.49 464.99 L602.99 463.95 L606.76 462.25 L610.46 461.88 L615.68 464.99 L606.17 477.1 L616.29 476.44 L621.26 477.33 L625.4 480.51 L620.71 484.98 L609.85 489.45 L606.17 492.93 L604.02 501.4 L608.07 504.1 L614.52 503.51 L630.52 497.89 L635.98 497.59 L636.82 502.18 L633.86 506.03 L619.5 514.91 L623.03 520.91 L629.35 526.47 L633.17 532.47 L629.19 539.81 L623.2 541.14 L616.27 538.18 L604.26 530.47 L596.97 529.58 L590.67 530.69 L584.98 530.06 L579.5 523.95 L578.07 520.02 L577.44 516.24 L576.38 512.47 L573.61 508.4 L570.37 506.47 L566.97 505.66 L563.64 503.88 L560.46 499.07 L555.62 501.29 L544.47 488.2 L539.14 486.72 L537.94 489.53 L536.71 494.93 L535.32 503.81 L533.87 506.73 L530.67 503.62 L525.81 496.04 L519.58 500.48 L522.29 508.54 L531.53 520.84 L530.48 520.76 L528.54 523.58 L526.64 527.73 L525.81 531.88 L527.25 534.95 L530.62 536.03 L537.23 536.69 L544.13 540.77 L548.57 545.96 L550.31 552.71 L549.01 561.54 L547.31 563.21 L544.04 567.48 L542.51 571.94 L545.98 574.02 L546.6 575.8 L552.86 582.82 L554.37 583.38 L552.26 591.4 L546.67 588.65 L537.23 577.14 L530.8 573.27 L516.61 570.38 L510.56 564.96 L511.66 556.13 L508.21 550.49 L502.62 547.3 L489.79 544.03 L484.95 540.29 L484.82 534.62 L491.52 527.06 L486.78 524.54 L477.18 527.8 L473.23 525.5 L472.55 522.95 L472.74 517.06 L472.29 514.91 L463.56 504.92 L453.23 497 L450.58 494.19 L447.49 489.82 L445.5 484.76 L446.12 479.88 L448.01 478.32 L450.44 478.73 L452.92 480.14 L454.87 481.76 L460.73 488.53 L462.77 489.82 L467.91 489.45 L471.53 486.12 L472.17 480.8 L468.47 474.3 L479.97 471.86 L485.09 468.31 L487.7 461.59 L482.7 459.15 L477.12 454.94 L472.51 449.48 L470.38 443.06 L470.72 439 L472.13 437.12 L474.33 437.75 L477.15 441.51 L479.84 443.35 L483.89 443.72 L491.52 443.06 L487.14 434.21 L484.87 430.96 L481.81 427.83 L486.46 425.5 L496.39 423.85 L501.03 421.63 L501.03 418.28 L485.39 413.86 L478.1 409 L478 400.01 L484.64 395.78 L493.87 399.2 L503.33 404.61 L510.56 406.2 L516.42 400.67 L512.27 395.08 L504.9 389.48 L501.03 384.04 L502.67 379.04 L506.27 378.74 L510.57 379.62 L514.37 378.12 L516.11 374.4 L516 370.43 L514.11 367.31 L510.56 365.76 L515.4 362.68 L536.3 354.85 L541.89 360.36 L545.33 355.58 L549.01 334.95 L553.4 339.43 L557.89 340.31 L567.91 337.77 L563.18 327.1 L562.18 322.36 L589.02 303.67 L593.67 309.82 L597.27 306.93 L600.79 300.85 L605.21 297.51 L626.51 293.52 L631.1 294.44 L632.7 297.92 L632.76 301.91 L632.42 306.05 L632.84 310.08 L634.34 313.45 L636.24 316.46 L637.88 319.76 L638.56 323.9 L637.74 328.12 L636.21 332.16 L635.14 335.9 L636.75 342.51 L636.57 346.33 L635.8 350.11 L634.91 353.2 L639.59 351.21 L644.95 349.89 L649.59 347.14 L652.06 340.86 L650.74 334.36 L647.38 326.55 L644.72 318.44 L645.75 306.56 L642.1 302.82 L638.93 297.62 L640.64 288.28 L643.11 285.98 L646.29 285.54 L648.99 284.51 L650.15 280.6 L649.29 276.39 L647.07 275.95 L644.28 276.31 L638.43 272.8 L618.74 265.23 L606.17 254.26 L600 243.62 L604.96 236.06 L612.89 226.82 L615.68 211.35 L629.83 238.73 L638.71 248.23 L644.61 236.1 L637.19 225.66 L635.36 215.44 L639.55 210.11 L650.15 214.38 L642.85 206.9 L617.43 195.24 L611.87 191.3 L612.88 184.52 L615.53 177.31 L619.2 171.41 L623.31 168.5 L625.01 169.3 L630.51 173.45 L632.84 174.62 L636.31 174.69 L645.47 171.85 L647.9 169.96 L649.32 165.62 L650.24 161.29 L651.1 159.4 L669.97 158.86 L676.56 156.89 L682.1 153.18 L684.61 147.18 L682.97 141.07 L675 129.19 L672.06 121.45 L669.45 117.96 L666.5 114.91 L664.45 113.68 L663.08 111.72 L659.68 98.15 L665.59 100.54 L674.49 111.21 L678.74 113.68 L684.87 114.55 L698.04 119.63 L721.19 133.77 L727.74 134.96 L741.96 134.96 L745.16 136.38 L747.95 138.67 L751.06 140.53 L755.26 140.78 L755.26 138.02 L754.22 132.49 L758.46 127.66 L764.99 124.14 L791.53 121.56 L796.41 124.17 L801.03 127.92 L812.4 131.77 L817.37 136.49 L829.98 151.69 L831.82 157.87 L832.84 166.93 L834.03 173.09 L832.72 178.11 L826.11 183.54 L820.66 185.98 L813.44 187.91 L806.34 188.46 L801.16 186.85 L798.43 181.75 L793.75 166.53 L789.73 162.46 L785.02 163.69 L780.56 168.68 L772.61 180.48 L782.03 180.73 L783.74 186.78 L780.22 206.61 L783.86 209.78 L801.56 199.94 L808.01 200.63 L809.24 205.3 L808.76 210.99 L807.67 216.9 L807.06 222.23 L807.36 229.96 L808.33 232.74 L812.6 232.78 L813.69 232.08 L815.64 227.92 L817.37 226.97 L818.52 228.36 L820.27 235 L821.26 237.56 L825.01 240.04 L829.42 239.79 L833.32 237.2 L835.46 232.78 L841.32 236.28 L844.83 240.88 L846.6 247.21 L847.07 255.9 L848.71 261.97 L852.65 269.65 L857.4 276.31 L861.44 279.06 L866.32 276.17 L864.03 269.43 L856.76 257.59 L859.75 252.1 L865.76 253.35 L877.72 260.66 L875.66 250.09 L868.95 245.6 L861.8 242.82 L858.49 237.56 L860.37 234.27 L864.08 231.46 L866.64 227.85 L865.26 222.23 L861.67 220.25 L853.14 224.23 L848.99 223.58 L846.2 220.04 L845.95 216.61 L846.25 212.88 L845.17 208.29 L843.84 205.81 L841.87 203 L840.06 202.45 L839.28 206.61 L838.14 210.91 L835.4 213.29 L831.96 214.27 L828.81 214.38 L825.59 212.67 L826.9 208.69 L831.82 202.16 L844.59 175.89 L848.02 171.85 L851.17 170.43 L858.65 163.88 L862.39 162.46 L920.87 158.09 L936.22 153.22 L944.57 153.29 L951.97 155.36 L955.09 157.87 L958.08 162.46 L962.81 180.81 L964.66 183.54 L967.6 185.91 L976.18 200.63 L979.13 203.69 L983.02 205.95 L990.64 208.29 L988.36 212.74 L983.02 216.1 L980.94 220.77 L988.06 220.69 L990.27 224.78 L987.82 229.89 L980.94 232.78 L946.16 227.99 L922.69 213.83 L916.9 212.52 L914.45 216.1 L917.89 226.97 L903 220.62 L885.35 229.71 L890.28 238 L899.68 244.83 L910.03 249.54 L917.89 251.44 L933.93 247.46 L941.73 252.32 L967.8 255.03 L978.22 258.1 L986.97 264.17 L990.64 274.45 L985.51 280.19 L973.92 284.51 L954.1 288.28 L954.1 291.62 L970.87 297.77 Z M438.01 113.68 L426.26 110.7 L423.62 109.11 L421.76 105.33 L421.17 101.48 L422.53 98.69 L426.57 98.15 L432.89 94.88 L440.02 97.42 L447.33 101.92 L454.1 104.24 L482.77 101.19 L485.23 101.85 L485.42 103.48 L485.05 105.62 L485.8 107.84 L487.64 110.88 L488.56 113.68 L490.25 115.68 L494.36 116.44 L496.29 115.24 L497.49 112.45 L498.31 109.58 L499.13 107.84 L501.98 105.55 L504.01 104.61 L506.76 104.24 L513.05 106.64 L517.78 112.95 L520.81 121.81 L522 131.91 L515.23 133.58 L508.72 137.22 L492.47 138.02 L485.9 134.64 L476.6 119.82 L469.42 116.44 Z M432.42 584.66 L437.09 576.57 L444.18 574.14 L453.66 574.05 L454.66 579.25 L448.04 581.21 L448.09 587.37 L442.92 592.63 L439.66 598.82 L445.87 603.04 L456.77 601.52 L464.32 597.65 L467.7 603.31 L460.64 608.6 L455 614.35 L452.68 621.02 L445.05 617.29 L438.84 613.07 L434.52 608.36 L427.41 609.36 L424.04 603.7 L417.84 599 L426.32 591.82 L433.41 589.87 Z M809.9 433.25 L813.63 436.9 L813.69 437.53 L812.44 438.23 L812.06 441.44 L811.24 445.09 L807.98 445.2 L802.73 442.91 L800.22 442.98 L800.22 444.87 L801.91 449.33 L800.59 451.25 L797.49 450.85 L797.16 452.06 L800.09 454.06 L803.13 452.65 L805.51 449.92 L806.01 450.88 L804.71 455.02 L804.08 459.37 L804.56 463.58 L806.94 468.83 L806.69 471.49 L805.87 473.41 L806.06 476.22 L807.9 479.66 L806.55 481.61 L800.77 480.54 L798.58 478.14 L800.59 475.66 L800.76 472.56 L799.18 472.52 L796.18 473.56 L791.76 471.19 L787.74 468.13 L781.33 464.8 L780.65 462.48 L780.56 458.49 L779.2 454.83 L775.63 451.47 L773.3 447.52 L775.29 444.53 L778.72 442.03 L782.62 439.89 L786.67 438.78 L789.44 436.9 L792.03 436.34 L792.77 435.75 L790.78 433.69 L791.76 432.44 L795.93 432.66 L799.19 434.02 L800.79 436.2 L801.97 438.19 L803.49 438.45 L806.01 438.04 L807.6 435.98 L807.24 432.92 L808.44 432.47 Z M457.12 420.34 L458.78 422.52 L459.41 427.13 L457.02 430.37 L454.26 431.37 L452.67 430.81 L452.18 429.49 L451.5 428.01 L450.46 426.72 L449.05 426.61 L447.38 426.94 L446.24 425.14 L447.89 419.61 L447.35 416.14 L448.36 411.43 L451.83 408.04 L454.67 409.03 L454.78 412.02 L453.85 415.7 L455.32 419.09 Z M439.17 134.07 L443 138.33 L446.83 142.12 L454.47 147.8 L454.91 138.75 L461.1 139.67 L462.57 146.8 L468.79 150.57 L479.28 151.94 L480.27 157.17 L472.17 159.13 L461.71 164.44 L453.15 169.25 L445.05 170.24 L436.92 165.04 L437.84 158.36 L443.54 153.57 L436.86 151.7 L425.92 153.65 L417.33 148.44 L415.41 143.68 L423.02 142.7 L431.11 141.72 L433.46 133.62 Z M218.97 113.72 L222.67 117.89 L223.67 123.27 L222.41 127.84 L220.76 128.53 L219.87 126.03 L219.6 123.52 L218.69 121.56 L215.32 120.25 L209.86 118.91 L204.22 114.26 L201.32 104.79 L205.17 101.05 L212.88 107.44 L216.79 112.15 Z M73.28 19.18 L74.93 21.13 L75.19 23.34 L73 23.95 L69.19 22.83 L60.01 18.57 L56.19 17.7 L53.68 16.61 L53.53 14.3 L55.85 12.21 L57.47 10.26 L57.27 8.12 L55.36 3.83 L55.52 0 L59.31 0.97 L63 4.69 L66.87 10.29 L68.17 12.86 L69.28 15.82 L69.92 17.19 Z "/>
</g>
</svg>
