<svg xmlns="http://www.w3.org/2000/svg" viewBox="0 0 1000 1558.98">
<g fill="#ccc" stroke="#333" stroke-width="0.5" stroke-linejoin="round">
<path fill-rule="evenodd" d="M723.04 1556.19 L706.35 1558.98 L690.15 1543.51 L663.18 1503.05 L596.84 1440.14 L565.4 1394.73 L568.79 1355.83 L549.5 1332.06 L526.96 1295.72 L510.18 1257.93 L508.04 1230.1 L504.71 1222.66 L498.11 1199.51 L513.04 1199.51 L511.43 1193.88 L511.17 1192.38 L508.04 1188.12 L534.9 1170.03 L547.74 1168.15 L558.42 1178.61 L543.67 1195.13 L538.46 1199.51 L545.39 1206.27 L552.77 1209.52 L560.62 1210.28 L568.79 1209.09 L533.47 1241.55 L533.47 1251.05 L598.14 1243.42 L617.59 1269.11 L662.61 1275.86 L678.61 1293.04 L680.34 1313.64 L672.25 1325.88 L660.29 1328.31 L650.69 1319.7 L641.68 1308.15 L629.61 1302.66 L618.57 1304.15 L612.83 1314.02 L626.99 1317.83 L635.52 1330.75 L641.44 1345.6 L648.19 1355.83 L655.48 1357.32 L671.47 1353.46 L678.61 1355.83 L685.81 1364.81 L688.78 1374.54 L686.58 1382.77 L678.61 1388.19 L678.61 1398.66 L709 1414.73 L706.35 1427.81 L699.78 1430.12 L691.4 1428.37 L683.13 1429 L658.09 1443.07 L645.34 1444.69 L628.71 1439.46 L628.71 1450.91 L637.04 1452.84 L644.18 1458.26 L649.65 1467.97 L653.19 1482.28 L661.6 1464.86 L674.51 1459.26 L703.59 1461.37 L701.8 1467.03 L698.53 1482.28 L714.65 1489.12 L725.62 1511.44 L729.19 1537.55 Z M753.9 902.72 L743.73 919.15 L738.83 929.66 L741.24 934.44 L742.84 942.62 L741.24 987.09 L737.76 992.05 L732.43 1002.92 L725.77 1013.79 L718.52 1018.76 L713.34 1014.42 L665.71 913.86 L655.89 902.72 L588.93 890.5 L577.18 885.52 L567.46 874.5 L563.35 854.71 L560.23 827.66 L544.5 789.99 L538.46 765.18 L555.32 768.27 L586.31 782.23 L601.06 785.32 L624.43 781.41 L633.23 785.32 L640.13 793.21 L650.48 811.76 L658.63 817.06 L714.21 833.15 L723.04 844.12 L727.85 866.05 L749.03 887.6 Z M190.34 477.15 L170.57 460.25 L156.83 424.64 L155.37 393.84 L172.86 390.85 L198.85 417.64 L207.77 422.92 L213.21 424.07 L230.19 422.92 L235.9 419.55 L237.74 412.23 L238.34 404.92 L240.42 401.54 L248.86 398.04 L261.65 382.77 L312.97 369.46 L312.97 379.2 L308.04 379.2 L308.04 390.85 L336.35 410.64 L345.68 413.19 L353.71 418.28 L365.4 443.91 L372.89 454.91 L391.06 461.45 L410.36 460.25 L428.38 464.19 L442.74 486.93 L433.7 506.88 L427.04 527.07 L418.24 543.18 L402.78 550.8 L389.69 548.26 L377.74 542.42 L365.84 540.9 L352.94 550.8 L358.77 556.32 L364.77 560.12 L371.26 562.02 L378.33 562.41 L335.63 583.71 L323.02 594.36 L329.27 577.43 L332.54 572.11 L327.49 550.42 L319.16 531.25 L308.93 521.86 L298.05 529.48 L304.11 534.62 L313.12 545.34 L319.75 558.79 L318.45 572.11 L310.71 573.88 L278.12 550.8 L232.69 541.09 L203.13 519.96 L192.84 518.81 L192.84 508.27 L262.6 508.27 L246.31 495.38 L227.51 485.54 Z M308.04 358.76 L301.14 349.65 L298.85 343.79 L298.05 332.06 L299.77 315.23 L303.93 310.96 L308.81 310.52 L312.97 305.29 L317.02 283.79 L317.67 267.71 L320.88 256.8 L332.54 250.86 L318.62 227.68 L318.65 194.71 L327.93 132.8 L331.71 140.35 L335.1 141.89 L338.61 141.37 L342.89 143.55 L392.96 155.7 L417.68 171.06 L428.2 192.41 L437.51 230.56 L472.78 301.46 L472.66 337.42 L497.22 345.76 L539 382.45 L575.93 394.29 L582.32 403.45 L583.04 417.01 L578.4 433.61 L571.44 445.05 L561.75 455.16 L551.64 462.41 L543.46 465.59 L607.42 462.54 L618.31 482.04 L628.53 505.48 L631.98 522.05 L625.98 529.48 L583.34 529.48 L583.34 541.09 L609.21 552.89 L658.63 551.69 L678.61 572.11 L670.88 591.25 L665.11 616.73 L666.66 638.9 L690.83 652.95 L689.43 665.99 L685.69 686.11 L688.6 712.1 L664.78 721.14 L642.48 697.12 L621.4 664.72 L575.31 633.2 L536.41 566.02 L510.54 550.8 L500.1 547.18 L493.29 536.33 L489.67 518.18 L488.51 492.72 L483.78 478.42 L472.45 463.3 L459.04 450.58 L448.18 443.21 L390.76 433.61 L377.98 426.74 L370.54 411.85 L371.26 397.03 L382.88 390.85 L376.61 372.13 L366.62 374.11 L354.87 384.55 L342.89 390.85 L335.1 387.22 L314.58 367.93 Z M430.49 170.93 L424.28 161.46 L415.92 152.7 L409.32 143.55 L408.22 132.8 L414.37 121.79 L422.05 123.52 L430.37 129.98 L438.16 132.8 L454.04 125.89 L480.66 105.01 L514.11 97.58 L523.03 100.66 L530.58 106.93 L537.01 114.49 L543.85 120.51 L552.95 122.04 L556.1 138.11 L543.31 149.24 L526.72 159.03 L518.51 170.93 L518.81 197.27 L520.95 218.48 L526.87 235.86 L538.46 250.86 L531.12 203.02 L534.36 184.36 L588.78 164.92 L606.8 166.13 L618.31 186.46 L612.54 188 L598.8 198.16 L655.89 207.94 L662.85 215.29 L656.78 231.13 L643.58 246.2 L628.71 250.86 L628.71 262.54 L637.16 265.42 L651.02 279.65 L658.63 283.86 L664.6 282.64 L678.49 274.22 L685.87 272.24 L725.83 287.24 L756.76 308.99 L759.02 319 L749.35 324.8 L730.95 326.71 L687.09 320.33 L673.62 326.71 L673.62 337.42 L763 385.7 L789.29 413.19 L751.23 407.97 L713.52 390.85 L713.52 401.54 L729.58 405.04 L744.45 416.88 L768.89 443.21 L768.89 454.91 L755.69 452.87 L740.64 454.97 L727.14 462.6 L718.52 477.15 L721.7 480.14 L724.88 484.71 L728.48 486.93 L728.48 498.43 L722.32 504.97 L719.56 511.39 L719.88 519 L723.04 529.48 L696.27 510.69 L689.08 478.23 L688.87 439.27 L683.13 401.54 L670.4 373.34 L650.84 341.37 L628.71 320.84 L608.25 326.71 L625.38 347.1 L647.12 366.59 L665.85 392.82 L673.62 433.61 L660.53 467.37 L630.88 443.08 L573.34 369.46 L543.64 371.37 L535.97 364.11 L531.42 357.23 L516.07 340.73 L510.54 337.42 L501.8 329 L455.89 250.48 Z M808.77 326.71 L784.06 291.83 L775.67 267.9 L778.88 241.09 L784 231.51 L786.82 232.54 L788.78 237.9 L791.55 241.09 L797.35 238.99 L798.51 232.92 L798.57 224.1 L801.09 213.31 L802.52 199.82 L800.41 156.54 L798.8 143.55 L789.88 111.22 L783.76 82.21 L787.53 59.33 L808.77 45.87 L803.32 57.6 L823.78 119.48 L848.76 163.44 L879.87 194.84 L919.03 218.67 L905.38 242.75 L882.54 246.26 L859.11 235.98 L843.71 218.67 L838.71 230.36 L865.86 268.67 L880.1 281.18 L894.05 272.24 L896.22 299.68 L898.78 308.67 L904.04 316.13 L904.04 326.71 L891.82 335.44 L876.95 339.2 L862.56 335.38 L851.44 321.35 L831.43 278.62 L819.98 266.37 L808.77 272.24 L824.44 325.56 L831.04 342.32 L833.83 353.34 L828.9 353.73 L821.97 349.65 L814.68 343.09 L812.69 337.93 L811.23 332.19 Z M61.7 457.07 L71.72 466.35 L78.5 471.05 L71.55 473.85 L62.45 475.18 L2.53 469.4 L0 458.21 L19.66 446.58 L41.01 445.5 Z M966.64 143.04 L988.64 143.68 L1000 151.48 L999.23 161.59 L977.82 184.36 L982.63 200.46 L982.72 215.03 L979.3 224.87 L972.7 233.05 L963.25 238.79 L951.71 243.2 L939.55 240.84 L930.89 225 L923.31 204.3 L920.66 186.85 L929.35 174.64 L941.66 168.5 Z M773.83 171.69 L777.16 184.74 L777.9 207.94 L767.11 216.76 L751.23 208.71 L736.48 187.04 L729.22 172.08 L709.48 122.68 L701.45 86.44 L704.01 51.7 L716.08 38.94 L727.94 51.06 L734.37 73.94 L765.8 148.28 Z M723.1 212.22 L727.85 218.87 L734.46 235.86 L731.42 252.33 L720.24 255.52 L707.04 247.8 L696.54 230.75 L690.74 205.32 L683.43 182.05 L678.25 172.08 L663.8 149.24 L644.47 112.18 L639.24 99.12 L626.25 59.33 L624.91 37.21 L632.16 30.48 L642.27 39.71 L652.03 57.98 L672.19 110.39 Z M902.52 117.95 L908.12 124.28 L913.17 140.22 L909.66 154.04 L904.9 164.79 L891.91 170.93 L868.51 162.1 L846.77 140.03 L829.37 108.92 L818.55 82.59 L811.71 42.6 L802.31 32.79 L795.3 12.58 L805.05 0 L822.24 5.65 L832.76 17.84 L839.99 37.79 L845.61 60.81 L854.59 78.11 L865.06 93.1 L869.25 106.93 L869.16 117.69 L873.32 127.74 L881.11 125.76 L889.14 115.07 L897.89 114.49 Z "/>
</g>
</svg>
