<svg xmlns="http://www.w3.org/2000/svg" viewBox="0 0 1000 26.88">
<g fill="#ccc" stroke="#333" stroke-width="0.5" stroke-linejoin="round">
<path fill-rule="evenodd" d="M0 10.59 L0 10.53 L0.03 10.5 L0.07 10.48 L0.17 10.45 L0.14 10.51 L0.11 10.55 L0.06 10.57 Z M0 11.67 L0 11.52 L0.02 11.48 L0.1 11.43 L0.11 11.4 L0.14 11.38 L0.24 11.35 L0.28 11.35 L0.28 11.37 L0.26 11.37 L0.25 11.38 L0.25 11.39 L0.27 11.41 L0.27 11.43 L0.25 11.43 L0.24 11.44 L0.22 11.44 L0.2 11.44 L0.19 11.46 L0.17 11.48 L0.17 11.51 L0.2 11.52 L0.22 11.54 L0.18 11.58 L0.13 11.62 Z M0 12.9 L0 12.38 L0.03 12.34 L0.23 12.11 L0.28 12.08 L0.34 12.07 L0.38 12.08 L0.4 12.11 L0.43 12.19 L0.44 12.24 L0.44 12.27 L0.47 12.29 L0.5 12.31 L0.51 12.34 L0.5 12.36 L0.4 12.46 L0.37 12.51 L0.36 12.54 L0.36 12.6 L0.35 12.61 L0.33 12.61 L0.31 12.62 L0.14 12.73 L0.05 12.8 Z M1000 11.52 L1000 11.6 L1000 11.67 L1000 11.67 L999.98 11.67 L999.97 11.67 L999.96 11.66 L999.96 11.64 L999.96 11.6 L1000 11.52 Z M1000 12.38 L1000 12.89 L1000 12.9 L999.98 12.93 L999.95 12.95 L999.91 12.98 L999.87 13 L999.84 13.01 L999.8 13.01 L999.77 13 L999.76 12.95 L999.71 12.91 L999.69 12.87 L999.71 12.82 L999.74 12.79 L999.81 12.74 L999.91 12.59 L999.92 12.55 L999.94 12.5 L1000 12.38 Z M1000 10.53 L1000 10.59 L1000 10.59 L999.83 10.75 L999.81 10.76 L999.76 10.76 L999.73 10.77 L999.71 10.79 L999.68 10.84 L999.67 10.86 L999.63 10.9 L999.61 10.92 L999.61 10.93 L999.59 10.94 L999.55 11.01 L999.44 11.17 L999.39 11.21 L999.39 11.27 L999.34 11.35 L999.27 11.43 L999.21 11.46 L999.15 11.48 L998.88 11.67 L998.87 11.68 L998.85 11.7 L998.84 11.74 L998.84 11.78 L998.84 11.82 L998.83 11.87 L998.81 11.91 L998.78 11.94 L998.71 11.99 L998.68 12.01 L998.66 12.03 L998.63 12.08 L998.61 12.09 L998.57 12.11 L998.55 12.12 L998.58 12.15 L998.59 12.2 L998.58 12.26 L998.55 12.3 L998.57 12.32 L998.62 12.29 L998.67 12.27 L998.71 12.28 L998.74 12.32 L998.78 12.29 L998.85 12.21 L998.89 12.2 L998.92 12.2 L998.95 12.18 L998.98 12.16 L998.99 12.13 L999 12.09 L999.03 12.08 L999.06 12.07 L999.09 12.06 L999.09 12.05 L999.1 12.01 L999.11 12 L999.12 12 L999.15 11.99 L999.16 11.98 L999.18 11.95 L999.21 11.88 L999.23 11.85 L999.26 11.84 L999.28 11.83 L999.3 11.82 L999.31 11.79 L999.32 11.77 L999.35 11.76 L999.39 11.74 L999.48 11.68 L999.54 11.64 L999.56 11.59 L999.59 11.57 L999.73 11.5 L999.75 11.49 L999.76 11.47 L999.77 11.45 L999.79 11.44 L999.83 11.44 L999.84 11.46 L999.84 11.48 L999.87 11.55 L999.86 11.58 L999.84 11.6 L999.82 11.62 L999.79 11.7 L999.69 11.88 L999.69 11.9 L999.7 11.93 L999.69 11.94 L999.68 11.95 L999.65 11.94 L999.64 11.94 L999.58 12.02 L999.65 12.03 L999.7 12.06 L999.73 12.11 L999.73 12.18 L999.77 12.18 L999.82 12.19 L999.86 12.22 L999.87 12.26 L999.84 12.28 L999.8 12.27 L999.71 12.24 L999.72 12.26 L999.74 12.3 L999.75 12.32 L999.71 12.31 L999.69 12.3 L999.65 12.33 L999.62 12.32 L999.61 12.28 L999.62 12.24 L999.52 12.24 L999.48 12.22 L999.45 12.18 L999.39 12.2 L999.33 12.2 L999.28 12.19 L999.24 12.18 L999.21 12.19 L999.17 12.23 L999.13 12.24 L999.1 12.24 L999.07 12.25 L999.06 12.26 L999.05 12.3 L999.03 12.27 L999.03 12.26 L999.01 12.26 L998.98 12.32 L998.88 12.39 L998.84 12.44 L998.79 12.4 L998.74 12.39 L998.62 12.42 L998.53 12.42 L998.48 12.43 L998.44 12.46 L998.34 12.43 L998.27 12.42 L998.05 12.44 L998.05 12.43 L998.08 12.41 L998.1 12.37 L998.12 12.34 L998.17 12.32 L998.21 12.3 L998.19 12.26 L998.2 12.22 L998.17 12.2 L998.08 12.18 L998.01 12.13 L997.96 12.1 L997.94 12.11 L997.91 12.11 L997.7 12.19 L997.65 12.23 L997.56 12.3 L997.58 12.35 L997.56 12.39 L997.53 12.42 L997.49 12.44 L997.4 12.42 L997.35 12.49 L997.28 12.7 L997.35 12.65 L997.38 12.65 L997.43 12.66 L997.4 12.69 L997.33 12.75 L997.3 12.78 L997.28 12.78 L997.24 12.76 L997.13 12.73 L997.1 12.71 L997.08 12.68 L997.08 12.66 L997.07 12.64 L997.02 12.63 L997 12.61 L996.99 12.59 L996.99 12.56 L996.97 12.56 L996.97 12.62 L996.93 12.59 L996.9 12.59 L996.87 12.6 L996.84 12.62 L996.73 12.72 L996.71 12.74 L996.69 12.86 L996.67 12.88 L996.64 12.89 L996.63 12.91 L996.67 12.94 L996.57 13 L996.56 13.01 L996.48 13.02 L996.45 13.02 L996.4 13 L996.37 12.96 L996.34 12.88 L996.31 12.79 L996.31 12.71 L996.28 12.65 L996.22 12.6 L996.19 12.53 L996.21 12.44 L996.15 12.42 L996.13 12.4 L996.12 12.36 L995.95 12.45 L995.87 12.46 L995.79 12.4 L995.81 12.39 L995.81 12.39 L995.81 12.38 L995.78 12.35 L995.78 12.32 L995.79 12.3 L995.81 12.32 L995.83 12.32 L995.82 12.27 L995.85 12.22 L995.95 12.14 L995.95 12.2 L995.97 12.18 L995.98 12.14 L995.99 12.12 L996.02 12.14 L996.04 12.1 L996.07 12.03 L996.08 11.98 L996.02 12.01 L995.98 12.01 L995.95 11.98 L995.93 11.92 L996.03 11.88 L996.06 11.88 L996.08 11.9 L996.11 11.94 L996.13 11.96 L996.16 11.97 L996.25 11.98 L996.34 12.04 L996.36 12.04 L996.4 12.03 L996.41 12.02 L996.42 12.01 L996.44 11.98 L996.59 11.85 L996.63 11.83 L996.66 11.86 L996.67 11.94 L996.71 11.93 L996.71 11.91 L996.71 11.83 L996.72 11.8 L996.8 11.68 L996.81 11.7 L996.82 11.72 L996.82 11.74 L996.84 11.73 L996.86 11.71 L996.86 11.69 L996.86 11.66 L996.88 11.66 L996.91 11.7 L996.94 11.67 L996.97 11.63 L997 11.6 L997.03 11.59 L997.02 11.55 L997 11.5 L996.99 11.46 L997 11.47 L997.04 11.48 L997.05 11.49 L997.06 11.43 L997.09 11.43 L997.11 11.45 L997.13 11.46 L997.17 11.46 L997.24 11.43 L997.37 11.42 L997.52 11.36 L997.6 11.35 L997.69 11.35 L997.72 11.35 L997.72 11.34 L997.74 11.3 L997.75 11.28 L997.77 11.28 L997.82 11.27 L997.84 11.26 L997.89 11.25 L997.97 11.28 L998.05 11.29 L998.1 11.25 L998.14 11.28 L998.16 11.27 L998.18 11.24 L998.22 11.23 L998.24 11.23 L998.26 11.27 L998.28 11.28 L998.3 11.28 L998.31 11.28 L998.32 11.28 L998.34 11.28 L998.34 11.24 L998.32 11.2 L998.3 11.17 L998.27 11.15 L998.3 11.12 L998.33 11.11 L998.36 11.11 L998.38 11.13 L998.4 11.08 L998.42 11.03 L998.45 11 L998.49 11.03 L998.51 10.98 L998.52 10.93 L998.53 10.9 L998.57 10.87 L998.67 10.88 L998.71 10.86 L998.67 10.81 L998.7 10.81 L998.73 10.83 L998.75 10.86 L998.76 10.89 L998.79 10.79 L998.8 10.75 L998.81 10.79 L998.84 10.8 L998.87 10.81 L998.9 10.83 L998.92 10.81 L998.94 10.8 L998.96 10.82 L998.97 10.85 L998.97 10.81 L998.98 10.79 L999 10.79 L999.02 10.79 L999.04 10.78 L999.04 10.76 L999.05 10.74 L999.05 10.73 L999.06 10.73 L999.08 10.74 L999.09 10.75 L999.1 10.75 L999.15 10.76 L999.17 10.75 L999.18 10.72 L999.2 10.7 L999.26 10.68 L999.35 10.63 L999.36 10.67 L999.37 10.74 L999.39 10.77 L999.42 10.76 L999.48 10.7 L999.52 10.69 L999.55 10.7 L999.56 10.72 L999.55 10.74 L999.52 10.75 L999.55 10.76 L999.59 10.76 L999.6 10.77 L999.63 10.73 L999.73 10.65 L999.75 10.62 L999.95 10.53 L1000 10.53 Z M3.92 19.2 L3.94 19.25 L3.98 19.29 L4.03 19.31 L4.07 19.3 L4.06 19.36 L4.01 19.36 L3.91 19.3 L3.89 19.28 L3.9 19.22 L3.94 19.17 L4.02 19.16 L4 19.19 L3.98 19.2 L3.96 19.2 Z M2.86 18.74 L2.86 18.67 L2.89 18.63 L2.93 18.63 L2.97 18.68 L2.97 18.76 L2.93 18.8 L2.88 18.8 Z M0.38 18.74 L0.38 18.74 L0.42 18.62 L0.52 18.63 L0.59 18.71 L0.53 18.8 L0.51 18.7 L0.45 18.69 L0.4 18.73 L0.41 18.79 L0.43 18.85 L0.39 18.86 L0.36 18.82 Z M3.43 16.47 L3.47 16.51 L3.48 16.56 L3.47 16.61 L3.44 16.63 L3.34 16.63 L3.32 16.63 L3.29 16.61 L3.28 16.6 L3.26 16.59 L3.21 16.55 L3.26 16.47 L3.36 16.42 L3.43 16.47 Z M2.64 15.78 L2.69 15.81 L2.7 15.88 L2.7 15.92 L2.65 15.93 L2.61 15.91 L2.59 15.88 L2.56 15.82 L2.61 15.77 Z M4.74 15.57 L4.77 15.59 L4.83 15.62 L4.87 15.67 L4.89 15.72 L4.86 15.77 L4.8 15.8 L4.73 15.81 L4.66 15.79 L4.58 15.75 L4.56 15.66 L4.62 15.58 Z M2.88 13.51 L2.96 13.56 L3.01 13.59 L3.03 13.62 L2.98 13.72 L2.98 13.73 L2.93 13.75 L2.87 13.8 L2.83 13.86 L2.82 13.91 L2.78 13.88 L2.78 13.82 L2.82 13.77 L2.86 13.73 L2.85 13.7 L2.86 13.68 L2.88 13.67 L2.89 13.65 L2.89 13.61 L2.89 13.6 L2.86 13.57 L2.83 13.56 L2.77 13.55 L2.74 13.53 L2.73 13.51 L2.73 13.46 L2.72 13.43 L2.76 13.45 L2.79 13.48 L2.82 13.51 Z M999.38 19.2 L999.41 19.23 L999.43 19.28 L999.44 19.34 L999.45 19.38 L999.37 19.4 L999.33 19.41 L999.29 19.4 L999.28 19.39 L999.28 19.36 L999.3 19.35 L999.3 19.35 L999.3 19.35 L999.31 19.32 L999.33 19.33 L999.36 19.34 L999.37 19.34 L999.36 19.3 L999.33 19.25 L999.32 19.22 Z M995.64 18.71 L995.66 18.71 L995.76 18.73 L995.79 18.74 L995.81 18.78 L995.83 18.83 L995.82 18.88 L995.77 18.91 L995.72 18.94 L995.71 18.92 L995.68 18.91 L995.62 18.9 L995.63 18.93 L995.64 18.95 L995.63 18.97 L995.6 18.98 L995.57 18.97 L995.51 18.97 L995.44 18.97 L995.39 18.98 L995.4 18.96 L995.41 18.92 L995.41 18.9 L995.39 18.91 L995.37 18.92 L995.35 18.91 L995.33 18.9 L995.35 18.89 L995.36 18.87 L995.37 18.86 L995.3 18.83 L995.23 18.86 L995.11 18.96 L995.06 18.97 L995.02 18.97 L994.99 18.98 L994.97 19.01 L994.97 19.07 L994.97 19.09 L994.96 19.04 L994.93 19.06 L994.92 19.1 L994.93 19.13 L994.94 19.14 L994.99 19.15 L995 19.18 L994.99 19.25 L994.99 19.27 L994.97 19.29 L994.94 19.3 L994.92 19.3 L994.89 19.28 L994.89 19.26 L994.9 19.18 L994.86 19.22 L994.84 19.22 L994.8 19.22 L994.78 19.25 L994.76 19.28 L994.74 19.3 L994.7 19.3 L994.66 19.3 L994.58 19.27 L994.55 19.26 L994.49 19.3 L994.45 19.3 L994.44 19.26 L994.42 19.26 L994.4 19.27 L994.37 19.27 L994.34 19.25 L994.31 19.22 L994.39 19.14 L994.44 19.12 L994.5 19.14 L994.53 19.12 L994.54 19.05 L994.56 19.02 L994.59 19.01 L994.62 19.01 L994.78 19.05 L994.8 19.04 L994.82 19.02 L994.82 18.99 L994.83 18.97 L994.86 18.94 L994.9 18.97 L994.92 18.95 L994.93 18.89 L994.93 18.84 L994.97 18.78 L995.07 18.74 L995.18 18.73 L995.26 18.76 L995.28 18.68 L995.3 18.66 L995.34 18.66 L995.36 18.65 L995.37 18.64 L995.38 18.63 L995.4 18.62 L995.43 18.63 L995.45 18.64 L995.48 18.64 L995.51 18.62 L995.53 18.66 L995.62 18.66 Z M995.91 18.48 L995.93 18.5 L995.94 18.53 L995.94 18.55 L995.93 18.58 L995.89 18.57 L995.87 18.6 L995.86 18.63 L995.83 18.62 L995.76 18.57 L995.76 18.53 L995.79 18.49 L995.79 18.47 L995.82 18.44 L995.88 18.42 L995.92 18.43 Z M999.84 17.54 L999.86 17.56 L999.87 17.58 L999.85 17.61 L999.78 17.63 L999.75 17.66 L999.7 17.7 L999.72 17.72 L999.76 17.7 L999.77 17.7 L999.78 17.73 L999.73 17.78 L999.72 17.84 L999.67 17.85 L999.65 17.8 L999.64 17.75 L999.61 17.73 L999.59 17.7 L999.54 17.67 L999.53 17.64 L999.58 17.61 L999.69 17.57 L999.8 17.55 Z M993.47 17.35 L993.48 17.39 L993.49 17.43 L993.49 17.49 L993.51 17.63 L993.47 17.61 L993.43 17.56 L993.41 17.5 L993.39 17.45 L993.39 17.41 L993.39 17.39 L993.43 17.33 L993.44 17.34 L993.45 17.35 L993.46 17.35 Z M994.78 16.99 L994.8 16.94 L994.83 16.93 L994.86 16.96 L994.88 17.01 L994.87 17.07 L994.84 17.12 L994.8 17.13 L994.75 17.09 L994.77 17.09 L994.78 17.08 L994.78 17.07 L994.77 17.05 L994.78 17.04 L994.78 17.03 L994.78 17.01 Z M998.18 15.91 L998.22 15.99 L998.23 16.15 L998.2 16.26 L998.11 16.21 L998.09 16.17 L998.06 16.09 L998.05 16.06 L998 15.99 L997.98 15.96 L997.96 15.91 L997.95 15.94 L997.96 16 L997.95 16.02 L997.93 16.03 L997.92 16.01 L997.9 15.92 L997.91 15.84 L997.9 15.83 L997.88 15.78 L997.87 15.75 L997.9 15.77 L997.92 15.77 L997.98 15.72 L997.99 15.72 L998.01 15.73 L998.05 15.73 L998.09 15.76 L998.16 15.88 Z M998.42 15.31 L998.42 15.32 L998.42 15.33 L998.4 15.35 L998.41 15.37 L998.42 15.4 L998.42 15.42 L998.42 15.45 L998.4 15.48 L998.38 15.46 L998.36 15.41 L998.34 15.38 L998.32 15.35 L998.31 15.31 L998.32 15.27 L998.37 15.3 Z M996.46 15.11 L996.51 15.18 L996.56 15.22 L996.61 15.23 L996.6 15.25 L996.6 15.26 L996.59 15.27 L996.57 15.25 L996.55 15.26 L996.54 15.26 L996.52 15.24 L996.49 15.23 L996.44 15.12 L996.43 15.07 Z M996.6 14.83 L996.62 14.81 L996.66 14.8 L996.71 14.83 L996.74 14.9 L996.75 14.94 L996.76 14.98 L996.77 15.02 L996.76 15.06 L996.75 15.09 L996.73 15.12 L996.66 15.14 L996.63 15.15 L996.58 15.17 L996.55 15.12 L996.54 15.08 L996.5 14.96 L996.53 14.87 Z M997.24 14.81 L997.22 14.77 L997.22 14.74 L997.24 14.73 L997.28 14.75 L997.29 14.78 L997.33 14.87 L997.34 14.91 L997.31 14.91 L997.3 14.87 L997.29 14.85 L997.27 14.83 Z M996.42 15.89 L996.41 15.91 L996.39 15.95 L996.38 15.97 L996.38 16.01 L996.38 16.04 L996.37 16.08 L996.35 16.12 L996.31 16.15 L996.29 16.17 L996.15 16.24 L996.08 16.31 L996.08 16.25 L996 16.28 L995.97 16.29 L996 16.24 L996 16.23 L995.99 16.2 L995.97 16.2 L995.96 16.2 L995.94 16.18 L995.91 16.18 L995.83 16.22 L995.79 16.23 L995.8 16.29 L995.75 16.33 L995.69 16.34 L995.66 16.34 L995.66 16.3 L995.67 16.28 L995.66 16.27 L995.62 16.23 L995.59 16.21 L995.56 16.21 L995.53 16.21 L995.53 16.22 L995.54 16.22 L995.54 16.23 L995.53 16.26 L995.52 16.27 L995.5 16.28 L995.47 16.29 L995.47 16.28 L995.46 16.27 L995.45 16.26 L995.43 16.25 L995.41 16.25 L995.38 16.27 L995.36 16.27 L995.34 16.28 L995.32 16.3 L995.3 16.32 L995.27 16.33 L995.23 16.33 L995.21 16.34 L995.2 16.35 L995.18 16.37 L995.17 16.39 L995.16 16.43 L995.15 16.45 L995.12 16.46 L995.06 16.49 L995.04 16.5 L994.96 16.6 L994.91 16.64 L994.86 16.65 L994.84 16.65 L994.82 16.67 L994.76 16.61 L994.55 16.69 L994.46 16.67 L994.42 16.67 L994.4 16.67 L994.38 16.65 L994.37 16.67 L994.33 16.69 L994.29 16.7 L994.26 16.68 L994.23 16.67 L994.18 16.7 L994.15 16.71 L994.14 16.66 L994.13 16.65 L994.11 16.65 L994.08 16.67 L994.07 16.68 L994.05 16.69 L994.04 16.68 L993.98 16.63 L993.98 16.61 L993.96 16.6 L993.84 16.56 L993.61 16.5 L993.54 16.49 L993.46 16.47 L993.31 16.4 L993.24 16.41 L993.16 16.37 L993.12 16.37 L992.98 16.37 L992.96 16.37 L992.93 16.36 L992.91 16.34 L992.9 16.32 L992.88 16.31 L992.69 16.26 L992.6 16.22 L992.54 16.13 L992.52 16.15 L992.51 16.12 L992.5 16.06 L992.5 16.03 L992.49 16.01 L992.48 16 L992.47 15.98 L992.46 15.94 L992.45 15.92 L992.4 15.89 L992.4 15.88 L992.41 15.85 L992.39 15.83 L992.38 15.8 L992.37 15.77 L992.37 15.75 L992.41 15.7 L992.42 15.67 L992.42 15.63 L992.41 15.61 L992.39 15.59 L992.39 15.56 L992.4 15.5 L992.45 15.48 L992.58 15.47 L992.65 15.44 L992.67 15.43 L992.7 15.4 L992.7 15.37 L992.7 15.35 L992.69 15.32 L992.69 15.22 L992.7 15.18 L992.71 15.18 L992.72 15.18 L992.82 15.21 L992.84 15.21 L992.87 15.18 L992.88 15.16 L992.87 15.14 L992.86 15.12 L992.86 15.09 L992.85 15.03 L992.84 15 L992.83 14.97 L992.81 14.96 L992.79 14.95 L992.77 14.93 L992.75 14.86 L992.78 14.83 L992.83 14.81 L992.86 14.76 L992.87 14.74 L992.93 14.72 L992.96 14.71 L992.97 14.68 L992.96 14.64 L992.97 14.62 L993 14.59 L993.03 14.63 L993.05 14.62 L993.07 14.58 L993.05 14.55 L993.07 14.51 L993.1 14.47 L993.12 14.46 L993.15 14.49 L993.17 14.49 L993.28 14.39 L993.39 14.32 L993.4 14.31 L993.41 14.3 L993.41 14.29 L993.42 14.28 L993.44 14.27 L993.46 14.27 L993.48 14.28 L993.49 14.29 L993.48 14.29 L993.46 14.31 L993.47 14.37 L993.49 14.42 L993.51 14.45 L993.53 14.43 L993.51 14.4 L993.5 14.36 L993.5 14.33 L993.51 14.29 L993.53 14.28 L993.62 14.22 L993.64 14.22 L993.75 14.25 L993.76 14.24 L993.77 14.2 L993.78 14.17 L993.79 14.15 L993.82 14.14 L993.83 14.13 L993.85 14.12 L993.91 14.11 L993.92 14.09 L993.93 14.08 L993.96 14.07 L993.97 14.06 L993.98 14.07 L993.98 14.1 L993.98 14.13 L993.98 14.16 L993.96 14.19 L993.94 14.21 L993.99 14.23 L994.03 14.2 L994.06 14.16 L994.1 14.13 L994.16 14.17 L994.24 14.18 L994.32 14.17 L994.38 14.15 L994.46 14.12 L994.5 14.09 L994.53 14.06 L994.56 14.04 L994.63 14.03 L994.67 14.01 L994.76 14.03 L994.86 14.01 L994.95 13.96 L994.97 13.87 L995.03 13.89 L995.11 13.93 L995.17 13.98 L995.2 14.02 L995.21 14.06 L995.24 14.12 L995.24 14.15 L995.22 14.18 L995.15 14.26 L995.13 14.29 L995.16 14.31 L995.16 14.33 L995.15 14.35 L995.13 14.37 L995.16 14.36 L995.24 14.27 L995.29 14.25 L995.35 14.26 L995.41 14.28 L995.46 14.32 L995.49 14.37 L995.49 14.4 L995.48 14.43 L995.49 14.45 L995.5 14.46 L995.55 14.5 L995.56 14.51 L995.57 14.52 L995.68 14.6 L995.71 14.6 L995.74 14.6 L995.77 14.61 L995.82 14.64 L995.9 14.75 L995.92 14.77 L995.98 14.78 L996.04 14.8 L996.09 14.84 L996.12 14.89 L996.12 14.96 L996.09 15.02 L996.06 15.07 L996.04 15.12 L996.03 15.15 L996.03 15.17 L996.02 15.2 L996.03 15.22 L996.05 15.24 L996.1 15.28 L996.12 15.29 L996.12 15.32 L996.11 15.36 L996.11 15.39 L996.13 15.41 L996.17 15.4 L996.19 15.41 L996.18 15.43 L996.16 15.45 L996.19 15.46 L996.21 15.48 L996.21 15.51 L996.19 15.55 L996.18 15.54 L996.16 15.53 L996.16 15.54 L996.17 15.59 L996.09 15.61 L996.1 15.7 L996.15 15.79 L996.18 15.83 L996.24 15.83 L996.26 15.85 L996.28 15.87 L996.31 15.91 L996.32 15.93 L996.32 15.94 L996.33 15.95 L996.35 15.95 L996.37 15.94 L996.39 15.92 L996.4 15.9 L996.4 15.89 Z M991.93 13.71 L992 13.74 L992.03 13.74 L992.08 13.71 L992.12 13.77 L992.1 13.78 L992.09 13.79 L992.09 13.8 L992.05 13.86 L992.01 13.89 L991.98 13.9 L991.95 13.87 L991.94 13.83 L991.96 13.79 L991.96 13.75 L991.93 13.73 Z M998.48 13.84 L998.47 13.92 L998.45 13.98 L998.42 14.04 L998.38 14.09 L998.31 14.15 L998.29 14.14 L998.29 13.96 L998.28 13.92 L998.27 13.87 L998.25 13.83 L998.26 13.79 L998.25 13.76 L998.27 13.73 L998.39 13.71 L998.41 13.7 L998.44 13.7 L998.47 13.72 L998.47 13.74 Z M992.42 13.23 L992.43 13.22 L992.46 13.14 L992.48 13.17 L992.48 13.21 L992.47 13.25 L992.44 13.27 L992.42 13.33 L992.34 13.39 L992.33 13.43 L992.32 13.42 L992.31 13.42 L992.3 13.41 L992.29 13.39 L992.26 13.41 L992.24 13.43 L992.23 13.46 L992.23 13.49 L992.16 13.47 L992.16 13.45 L992.19 13.45 L992.19 13.45 L992.18 13.43 L992.18 13.39 L992.18 13.35 L992.2 13.33 L992.23 13.32 L992.24 13.29 L992.24 13.26 L992.25 13.23 L992.27 13.21 L992.33 13.17 L992.36 13.16 L992.36 13.17 L992.39 13.22 L992.41 13.23 Z M992.9 12.62 L992.81 12.68 L992.79 12.72 L992.82 12.74 L992.81 12.76 L992.8 12.78 L992.78 12.8 L992.76 12.82 L992.76 12.8 L992.74 12.77 L992.7 12.72 L992.72 12.69 L992.79 12.66 L992.77 12.61 L992.8 12.6 L992.86 12.6 Z M995.37 12.4 L995.36 12.46 L995.38 12.49 L995.37 12.5 L995.3 12.5 L995.25 12.52 L995.23 12.48 L995.22 12.38 L995.24 12.38 L995.26 12.4 L995.3 12.4 Z M993.22 12.06 L993.28 12.07 L993.31 12.09 L993.32 12.13 L993.3 12.18 L993.28 12.21 L993.23 12.25 L993.22 12.27 L993.21 12.29 L993.04 12.43 L993 12.47 L992.98 12.52 L992.95 12.51 L992.94 12.5 L992.93 12.52 L992.9 12.53 L992.88 12.54 L992.86 12.52 L992.86 12.5 L992.88 12.43 L992.88 12.4 L992.9 12.4 L992.93 12.44 L992.99 12.41 L993.09 12.3 L993.22 12.19 L993.26 12.13 Z M999.77 12 L999.68 12 L999.72 11.98 L999.74 11.98 L999.75 11.97 L999.75 11.93 L999.76 11.92 L999.79 11.92 L999.82 11.91 L999.85 11.89 L999.87 11.86 L999.87 11.92 L999.85 11.97 L999.82 12 Z M996.08 11.76 L996.1 11.78 L996.13 11.78 L996.15 11.78 L996.17 11.76 L996.15 11.79 L996.13 11.82 L996.09 11.83 L996.04 11.82 L996.02 11.82 L996.01 11.81 L996 11.8 Z M998.23 11.05 L998.27 11.05 L998.3 11.07 L998.27 11.08 L998.23 11.09 L998.18 11.08 L998.13 11.07 L998.13 11.05 Z M992.01 0.03 L992.03 0.08 L991.98 0.1 L991.92 0.12 L991.87 0.12 L991.83 0.1 L991.79 0.09 L991.74 0.09 L991.7 0.1 L991.69 0.06 L991.68 0.04 L991.72 0.05 L991.76 0.05 L991.83 0 L991.88 0.02 L991.98 0.02 Z M985.04 26.88 L984.99 26.84 L984.97 26.79 L984.98 26.75 L985.04 26.75 L985.07 26.77 L985.09 26.81 L985.08 26.85 Z M3.56 23.78 L3.54 23.76 L3.52 23.74 L3.53 23.71 L3.54 23.69 L3.54 23.72 L3.55 23.74 L3.57 23.76 L3.59 23.78 L3.58 23.78 Z M4.93 21.32 L4.92 21.3 L4.92 21.28 L4.93 21.26 L4.96 21.24 L4.95 21.26 L4.94 21.28 Z M4.39 19.33 L4.44 19.23 L4.46 19.22 L4.47 19.27 L4.47 19.33 L4.45 19.34 L4.42 19.35 L4.39 19.37 L4.38 19.36 L4.38 19.35 Z M3.06 18.48 L3.04 18.49 L3.01 18.5 L2.99 18.5 L2.97 18.5 L3 18.47 L3.04 18.44 L3.07 18.42 L3.11 18.41 L3.1 18.43 L3.09 18.45 L3.07 18.47 Z M4.15 17.86 L4.12 17.81 L4.14 17.78 L4.17 17.77 L4.2 17.79 L4.21 17.82 L4.19 17.85 L4.17 17.86 Z M1.88 15.24 L1.84 15.21 L1.85 15.15 L1.89 15.11 L1.95 15.11 L2 15.15 L2 15.21 L1.95 15.25 Z M2.34 14.37 L2.3 14.33 L2.29 14.28 L2.32 14.24 L2.37 14.23 L2.4 14.27 L2.41 14.32 L2.4 14.36 Z M2.34 13.79 L2.34 13.74 L2.37 13.72 L2.4 13.73 L2.42 13.77 L2.41 13.81 L2.39 13.82 L2.36 13.82 Z "/>
</g>
</svg>
