<svg xmlns="http://www.w3.org/2000/svg" viewBox="0 0 1000 2244.85">
<g fill="#ccc" stroke="#333" stroke-width="0.5" stroke-linejoin="round">
<path fill-rule="evenodd" d="M761.07 274.11 L750.05 285.02 L739.07 289.2 L715.59 306.46 L711.38 306.87 L711.65 311.55 L712.9 313.96 L714.49 315.16 L732.89 313.68 L740.44 315.36 L747.13 322.84 L742.17 341.87 L739.35 349.99 L715.93 396.51 L714.83 399.68 L714.78 403.38 L716.02 409.32 L717.84 416.41 L734.55 480.4 L736.97 485.52 L740.34 488.1 L766.44 499.25 L792.55 510.39 L795.49 512.61 L798.16 516.52 L805.7 532.52 L809.19 540 L824.75 573.23 L830.47 580.74 L857.48 606.46 L855.51 609.68 L854.58 612.14 L854.19 615.25 L853.39 630.74 L852.95 633.89 L850.54 644.71 L848.96 649.06 L812.75 698.98 L811.71 701.37 L810.66 705.58 L810.09 707.31 L809.19 708.77 L804.49 714.44 L774.41 771.17 L774.39 771.2 L769.97 790.64 L773.41 806.98 L794.7 843.44 L798.38 855.78 L798.51 856.23 L801.11 860.67 L801.38 862.7 L801.48 864.96 L801.93 867.35 L802.67 869.14 L813.18 886.86 L814.06 890.79 L815.16 900.41 L815.66 904.79 L817.31 912.69 L819.45 920.03 L824.72 933.23 L837.65 957.49 L845.23 968.18 L847.5 973.94 L849.36 982.83 L851.94 1000.22 L852.82 1004.13 L856.43 1013.62 L857.51 1017.17 L860.21 1028.42 L863.48 1037.92 L864.25 1041.98 L866.82 1062.58 L867.24 1068.09 L867.02 1072.9 L865.62 1074.93 L862.53 1073.75 L856.89 1070.1 L835.08 1076.76 L829.47 1080.91 L832.16 1085.48 L838.96 1090.75 L841.87 1095.17 L840.7 1098.02 L833.36 1106.97 L832.09 1110.16 L831.62 1111.35 L831.62 1111.41 L830.87 1119.57 L832 1139.06 L831.05 1147.01 L821.46 1160.06 L818.26 1167.48 L822.51 1171.88 L835.32 1171.41 L841.38 1174.1 L841.94 1182.4 L841.06 1184.2 L839.99 1185.59 L839.18 1187.11 L839.09 1189.26 L840.2 1191.17 L841.82 1191.54 L842.93 1192.26 L842.51 1195.19 L840.22 1198.31 L826.27 1201.71 L822.57 1205.12 L819.93 1211.15 L818.99 1220.44 L823.15 1238.62 L829.06 1253.25 L836.54 1262.61 L845.46 1264.91 L862.33 1265.06 L865.93 1266.92 L867.48 1268.53 L867.62 1269.9 L867.12 1271.45 L866.77 1273.57 L866.58 1276.3 L866.38 1277.6 L866.59 1278.78 L867.63 1281.17 L868.62 1282.81 L872.2 1286.99 L873.77 1291.12 L873.14 1295.29 L871.27 1298.85 L869.08 1301.13 L853.49 1308.96 L852.85 1309.76 L852.49 1311.01 L852.86 1311.65 L853.44 1311.98 L853.74 1312.32 L853.88 1316.03 L854.21 1317.98 L854.86 1319.99 L854.69 1320.57 L854.63 1321.19 L854.7 1321.78 L854.86 1322.37 L855.84 1322.86 L856.01 1323.39 L855.75 1324.78 L859.88 1327.48 L863.05 1331.63 L862.35 1336.61 L860.37 1342 L859.58 1347.5 L861.46 1351.48 L865.12 1355.04 L871.64 1359.12 L885.95 1364.23 L890.46 1367.78 L893.09 1371.51 L895.13 1375.4 L897.36 1378.32 L902.61 1379.79 L905.6 1381.7 L907.64 1384.85 L906.89 1389.22 L905.26 1393.35 L905.29 1396.84 L906.38 1400.23 L907.97 1404.2 L910.19 1413.14 L909.65 1420.16 L907.07 1426.28 L903.15 1432.59 L903.15 1432.61 L886.63 1452.45 L880.88 1465.99 L875.03 1473.87 L861.3 1479.84 L856.47 1483.28 L854.86 1484.43 L856.72 1489.84 L878.77 1517.32 L891.37 1527.44 L896.94 1535.82 L898.74 1539.64 L901.26 1541.84 L931.61 1559.49 L945.68 1577.1 L964.22 1590.08 L966.6 1592.62 L968.59 1596 L969.26 1600.11 L969.37 1603.85 L969.97 1608.2 L970.89 1612.29 L971.98 1615.3 L974.33 1618.5 L980.09 1623.05 L982.72 1625.92 L988.58 1635.19 L990.73 1637.28 L991.88 1638.33 L994.15 1641.97 L995.41 1647 L996.92 1651.75 L1000 1654.48 L991.88 1670.47 L988.28 1677.94 L985.48 1686.36 L981.16 1705.27 L979.67 1709.7 L975.63 1716.31 L973.92 1720.88 L971.73 1730.42 L970.24 1734.68 L968.27 1736.98 L968.25 1736.98 L968.21 1737 L963.38 1740.08 L961.95 1741.79 L960.91 1743.93 L959.24 1748.22 L946.2 1763.21 L944.96 1765.3 L942.66 1771.91 L941.18 1774.36 L939.53 1776.17 L929.13 1784.01 L920.92 1792.36 L917.41 1794.43 L915.79 1795.81 L914.63 1797.53 L912.09 1803.93 L900.53 1820.26 L887.67 1835.04 L887.65 1835.06 L887.64 1835.06 L869.92 1862.47 L854.58 1886.1 L842.2 1899.21 L840.34 1902.2 L838.17 1908.92 L836.44 1912.09 L823.28 1927.82 L820.47 1930.1 L814.57 1932.83 L812.5 1934.72 L810.85 1937.75 L809.19 1942.42 L807.6 1946.43 L794.35 1960.8 L791.69 1965.03 L790.57 1967.24 L789.22 1969.92 L783.82 1978.4 L777.15 1984.56 L763.51 1993.16 L758.54 1996.97 L752.06 2003.65 L746.77 2006.64 L745.29 2008.51 L742.44 2013.34 L736.85 2019.75 L735.18 2022.56 L733.64 2026.45 L733.63 2026.47 L730.05 2032.08 L722 2034.29 L717.84 2037.44 L704.6 2051.35 L696.19 2064.06 L687.44 2070.4 L674.25 2087.86 L672.17 2090.61 L664.13 2099.03 L656.36 2108.55 L654.83 2106.85 L653.59 2104.72 L652.17 2103.51 L650.11 2104.63 L650.45 2105.22 L651.03 2106.68 L651.36 2107.28 L649.81 2108.08 L649.55 2110.18 L650.21 2112.72 L651.36 2114.88 L649.98 2115.93 L649.49 2116.15 L650.74 2117.2 L651.36 2117.32 L648.19 2120.54 L647 2121.11 L640.7 2119.84 L641.55 2117.74 L644.36 2116.33 L645.74 2114.88 L642.09 2114.2 L640.3 2114.38 L638.83 2116.15 L638.12 2118.41 L638.36 2119.86 L639.13 2121.35 L640.07 2123.75 L636.68 2122.6 L629 2115.83 L625.73 2117.32 L626.61 2117.6 L626.98 2118.04 L627.61 2119.84 L627.05 2120.36 L626.25 2121.8 L625.73 2122.49 L626.73 2123.14 L627.59 2123.93 L628.3 2124.94 L628.84 2126.29 L624.28 2125.13 L616.29 2118.8 L612.26 2117.32 L605.28 2116.94 L603.79 2116.15 L603.64 2113.52 L605.99 2112.94 L610.7 2113.62 L608.58 2111.62 L601.91 2107.28 L603.36 2103.62 L602.16 2102.62 L600.07 2103.59 L598.79 2105.9 L599.35 2108.71 L600.55 2111.52 L600.89 2114.08 L598.79 2116.15 L598.61 2113.74 L598.05 2113.09 L596.25 2113.62 L595.13 2113.01 L593.88 2110.32 L592.84 2109.71 L592.2 2110.31 L591.3 2112.98 L590.63 2113.62 L589.77 2113.09 L588.29 2110.43 L587.52 2109.71 L586.68 2109.9 L585.6 2110.64 L584.78 2111.7 L584.74 2112.93 L585.03 2114.7 L584.45 2115.74 L583.62 2116.64 L582.39 2120.62 L580.44 2121.45 L576.29 2121.11 L578.49 2124.09 L579.39 2126.1 L579.12 2128.19 L578.41 2127.78 L575.64 2124.52 L574.76 2123.12 L566.39 2126.23 L563.7 2126.29 L564.38 2125.13 L564.87 2123.87 L565.63 2121.11 L564.01 2121.01 L562.14 2121.58 L560.34 2122.73 L559.02 2124.33 L558.71 2125.65 L558.89 2128.84 L558.71 2130.09 L558.06 2130.83 L556.12 2132.14 L555.28 2133.24 L553.99 2133.57 L552.34 2131.67 L550.66 2129.14 L549.29 2127.55 L547.57 2127.12 L545.5 2127.24 L543.92 2128.16 L543.68 2130.09 L541.75 2130.82 L539.37 2129.54 L537.06 2127.1 L535.29 2124.33 L534.58 2120.77 L536.1 2118.75 L538.45 2117.32 L540.22 2115.52 L542.69 2110.35 L543.05 2109.13 L542.76 2104.92 L543.03 2103.36 L544.17 2101.42 L548.3 2098.03 L552.1 2098.62 L560.01 2104.63 L558.05 2097.43 L555.08 2092.33 L551.42 2090.17 L547.43 2091.8 L545.26 2094.5 L541.75 2101.35 L533.75 2116.89 L532.88 2123.12 L535.57 2128.82 L534.08 2131.84 L533.29 2133.06 L532.45 2133.87 L529.87 2133.9 L529.23 2134.72 L529.95 2137.67 L528.91 2137.29 L527.98 2136.43 L526.22 2133.87 L526.33 2136.03 L526.02 2137.16 L525.37 2137.58 L524.34 2137.67 L523.3 2138.25 L523.08 2139.55 L523.02 2140.86 L522.45 2141.44 L520.8 2140.07 L519.54 2137.04 L518.53 2133.98 L517.71 2132.61 L516.66 2131.53 L515.18 2129.34 L513.64 2127.51 L512.37 2127.55 L512.15 2129.81 L513.39 2132.44 L516.18 2136.52 L507.55 2134.96 L506.77 2135.14 L504.97 2137.2 L504.21 2137.67 L503.48 2136.4 L499.84 2132.61 L496.88 2130.95 L495.69 2129.99 L492.45 2125.34 L489.46 2122.89 L486.29 2121.33 L483.64 2121.11 L483.64 2122.49 L488.63 2124.91 L489.61 2126.17 L491.54 2129.43 L493.85 2130.76 L494.5 2132.35 L494.79 2134.24 L494.86 2135.82 L494.17 2136.81 L492.79 2136.61 L491.82 2136.82 L492.31 2139.04 L493.32 2140.5 L496.73 2142.82 L498.47 2146.09 L499.3 2147.28 L500.46 2147.76 L501.08 2148.76 L500.92 2150.96 L500.32 2153.16 L499.54 2154.17 L494.86 2155.43 L494.75 2151.21 L490.93 2145.26 L491.73 2142.82 L490.6 2142.87 L489.82 2143.74 L489.13 2144.74 L488.28 2145.23 L487.23 2145.05 L486.43 2144.53 L481 2138.93 L479.07 2137.47 L476.77 2136.52 L480.03 2141.01 L481.98 2142.98 L483.64 2144.08 L482.72 2147.83 L480.63 2151.7 L480.52 2154.17 L481.37 2156.94 L484 2161.79 L484.82 2165.49 L482.92 2165.31 L481.59 2164.68 L480.48 2163.51 L479.22 2161.71 L479.89 2160.45 L478.5 2158.34 L476.72 2157.65 L474.78 2157.44 L472.98 2156.69 L470.22 2152.78 L468.7 2151.56 L467.36 2152.91 L467.94 2156.16 L471.19 2158.59 L477.39 2161.71 L471.15 2164.34 L471.15 2165.49 L469.45 2166.37 L467.04 2165.11 L459.75 2156.67 L459.19 2155.43 L459.31 2152.91 L460 2151.2 L461.1 2150.33 L459.19 2149.13 L459.19 2147.76 L464.19 2147.76 L462.9 2143.79 L460.93 2143.46 L458.86 2144.99 L457.32 2146.61 L454.9 2148.28 L447.91 2150.39 L447.91 2151.53 L449.29 2152.38 L449.77 2154.31 L449.64 2156.81 L449.21 2159.31 L448.8 2159.87 L448.15 2160.09 L447.55 2160.66 L447.06 2163.77 L446.52 2164.75 L445.77 2165.31 L432.88 2165.49 L433.05 2162.75 L431.9 2161.43 L428.51 2160.45 L428.73 2161.31 L429.03 2163.44 L429.2 2164.34 L426.39 2165.35 L417.89 2165.49 L417.4 2165.74 L417.24 2166.43 L417.29 2168.57 L417.23 2168.69 L416.82 2169.55 L415.75 2169.13 L414.12 2167.89 L414.01 2169.43 L417.32 2171.53 L418.48 2173.02 L417.63 2173.65 L416.42 2173.71 L417.85 2175.53 L416.01 2176.87 L410.54 2178.26 L408.5 2178.15 L408.74 2176.85 L408.89 2176.28 L409.12 2175.53 L405.2 2177.97 L404.22 2179.52 L406 2180.66 L405.42 2181.78 L403.98 2181.74 L402.52 2183.38 L400.83 2182.74 L399.65 2180.66 L400.83 2179.34 L401.81 2176.74 L402.21 2173.9 L401.58 2171.76 L399.73 2171.44 L398.43 2173.9 L396.3 2182.7 L395.36 2184.19 L387.58 2184.8 L385.7 2184.13 L384.69 2181.92 L388.05 2180.84 L387.86 2177.52 L385.45 2174.79 L382.2 2175.53 L384.07 2180.66 L382.72 2181.47 L380.28 2183.68 L379.07 2184.42 L374.35 2185.11 L371.32 2186.19 L370.58 2186.63 L370 2187.49 L369.8 2188.81 L370.14 2191.14 L369.72 2191.93 L368.46 2191.98 L367.83 2190.4 L367.52 2188.32 L367.16 2186.82 L366.1 2185.5 L360.48 2182.25 L359.1 2181.89 L358.64 2182.48 L359.68 2184.42 L361.17 2185.69 L362.46 2186.25 L363.01 2187.16 L362.17 2189.44 L360.99 2190.74 L359.7 2191.32 L358.55 2192.21 L357.86 2194.44 L364.05 2191.93 L363.55 2193.66 L362.78 2194.91 L360.93 2196.93 L362.8 2198.3 L362.8 2199.44 L356.64 2203.99 L353.04 2209.39 L351.25 2211.11 L349.2 2211.87 L346.52 2212.03 L347.25 2209.53 L349.87 2203.55 L350.89 2201.94 L349.25 2201.77 L346.94 2203.97 L342.73 2209.55 L342.08 2206.43 L340.49 2207.43 L338.61 2209.84 L337.05 2210.91 L337.64 2207.87 L338.69 2206.49 L339.94 2205.56 L341.16 2203.87 L341.41 2202.57 L341.35 2200.95 L341.45 2199.04 L342.1 2196.93 L337.69 2196.58 L335.52 2197.25 L333.94 2199.44 L335.19 2200.8 L332.34 2202.85 L331.55 2203.19 L330.33 2203.26 L327.12 2201.94 L324.62 2201.67 L322.97 2202.59 L322.92 2204.15 L325.2 2205.8 L323.49 2206.9 L321.98 2206.44 L320.53 2205.34 L318.97 2204.55 L318.17 2204.62 L314.71 2206.69 L313.82 2206.72 L312.73 2205.8 L311.06 2208.75 L309.37 2208.52 L308.73 2206.62 L310.24 2204.55 L310.24 2203.19 L308.56 2203.46 L307.6 2204.68 L306.84 2206.44 L305.81 2208.3 L304.41 2209.8 L303.07 2210.58 L296.89 2211.72 L290.17 2218.38 L287.59 2216.3 L272.64 2218.38 L271.44 2217.55 L270.47 2215.32 L269.53 2214.53 L268.46 2214.54 L262.4 2216.28 L258.52 2218.26 L256.37 2218.38 L257.39 2215.6 L261.31 2208.39 L262.66 2206.93 L265.29 2206.1 L266.55 2205.13 L266.72 2203.87 L266.11 2202.23 L265.95 2200.64 L266.23 2198.92 L267.03 2196.93 L263.69 2198.12 L262.66 2198.88 L261.92 2200.31 L261.5 2202.2 L260.87 2203.85 L259.51 2204.55 L258.59 2205.34 L258.19 2207.24 L257.88 2209.52 L257.3 2211.47 L256.43 2212.52 L254.4 2214.03 L253.56 2215.15 L250.48 2220.43 L246.96 2224.5 L238.8 2229.06 L237.45 2231.21 L237.43 2234.56 L238.44 2237.44 L240.09 2238.17 L240.09 2239.41 L224.5 2242.01 L223.36 2243.11 L217.76 2242.13 L215.66 2242.58 L213.92 2243.56 L208.47 2244.85 L206.92 2244.49 L208.55 2243.32 L210.87 2239.1 L212.21 2238.17 L215.91 2237.44 L228.78 2231.18 L232.5 2230.72 L231.86 2226.83 L232.29 2225.48 L233.31 2225.52 L234.42 2225.86 L237.45 2225.77 L239.71 2224.61 L241.7 2222.1 L243.97 2218 L245.37 2214.21 L246.96 2208.75 L247.54 2205 L246 2206.36 L239.95 2219.86 L237.54 2223.25 L235.74 2223.25 L235.87 2222.65 L236.07 2221.45 L236.29 2220.76 L235.38 2219.91 L234.38 2219.55 L233.4 2219.78 L232.5 2220.76 L232.78 2222.06 L229.18 2220.87 L228.18 2222.58 L227.9 2224.37 L227.25 2224.45 L226.61 2223.29 L226.32 2221.33 L227.25 2215.88 L227.31 2215.15 L228.85 2213.54 L235.74 2210.91 L237.05 2208.92 L239.19 2204.4 L240.67 2203.19 L235.87 2201.36 L226.84 2203.32 L222.56 2203.19 L220.38 2202.3 L218.35 2201.02 L216.85 2199.1 L216.29 2196.31 L216.88 2194.05 L218.31 2191.83 L221.33 2188.19 L219.46 2185.68 L218.95 2186.87 L217.94 2189.95 L217.58 2190.81 L216.84 2191.48 L215.11 2192.38 L214.35 2193.18 L214.24 2190.17 L213.36 2188.2 L211.89 2187.13 L208.72 2186.33 L206.81 2183.92 L205.69 2183.06 L206.61 2181.18 L206.68 2179.43 L206.1 2177.94 L205 2176.79 L209.97 2168.07 L211.92 2165.49 L217.83 2159.63 L219.46 2156.69 L219.99 2154.9 L220.62 2151.86 L221.33 2150.39 L223.76 2148.25 L224.7 2146.92 L224.5 2145.23 L222.64 2144.81 L220.26 2147.28 L218.1 2150.97 L216.96 2154.17 L211.76 2152.35 L205.91 2155.19 L193.03 2166.78 L181.61 2170.13 L176.34 2172.88 L173.75 2173.02 L175.09 2171.31 L179.99 2167.89 L178.17 2167.38 L178.04 2165.95 L179.71 2162.34 L180.69 2161.25 L184.99 2159.31 L180.45 2159.85 L178.27 2160.77 L173.96 2164.21 L171.79 2165.15 L166.84 2165.49 L167.6 2164.16 L167.73 2162.99 L167.73 2161.85 L168.08 2160.45 L168.66 2159.64 L170.31 2158.16 L172.26 2155.19 L175.14 2151.89 L175.63 2149.13 L180.26 2143.64 L183.12 2141.47 L183.46 2138.86 L182.81 2137.1 L178.84 2141.38 L175.43 2142 L168.08 2141.44 L169.96 2136.52 L155.58 2140.18 L152.41 2140.14 L151.37 2139.43 L148.58 2136.07 L142.36 2131.28 L140.5 2130.51 L136.44 2130.09 L135.92 2128.77 L135.66 2126.4 L135.01 2125.42 L133.33 2128.19 L131.67 2130.2 L130.08 2129.75 L127.43 2126.29 L127.37 2125.83 L127.48 2124.21 L127.43 2123.75 L127.01 2123.64 L125.94 2123.94 L125.56 2123.75 L124.78 2123.01 L124.13 2122.71 L123.88 2121.97 L124.31 2119.84 L119.88 2119.84 L120.27 2118.55 L120.81 2116.17 L121.25 2114.88 L119.54 2113.77 L116.93 2113.04 L114.27 2112.92 L112.4 2113.62 L111.52 2115.52 L111.94 2117.71 L114.27 2122.49 L110.12 2121.11 L108.06 2121 L106.17 2122.49 L106.56 2119.31 L107.78 2113.74 L108.03 2109.71 L108 2106.9 L108.23 2104.36 L109.3 2102.61 L111.72 2102.08 L110.55 2100.47 L110.11 2098.63 L110.33 2096.63 L111.21 2094.47 L105.13 2099.09 L103.33 2101.5 L101.28 2103.22 L96.45 2104.19 L94.88 2105.9 L94.73 2107.43 L95.54 2110 L95.16 2111.66 L94.6 2112.77 L94.32 2113.59 L94.21 2114.72 L94.2 2116.73 L93.02 2119.19 L90.34 2120.47 L87.4 2120.65 L85.41 2119.84 L87.75 2117.47 L86.47 2113.49 L81.72 2105.9 L83.16 2105.76 L87.29 2107.28 L87.29 2105.9 L85.13 2105 L78.83 2104.63 L75.96 2105.83 L74.86 2105.9 L74.1 2105.42 L72.65 2103.83 L71.75 2103.47 L71.75 2102.08 L72.34 2101.97 L72.74 2101.7 L73.56 2100.93 L72.32 2098.27 L75.09 2099.41 L76.69 2099.49 L77.36 2098.27 L72.94 2094.47 L70.96 2093.47 L69.11 2091.06 L67.59 2088.12 L66.7 2085.55 L66.77 2084.6 L66.93 2084.37 L66.97 2084.09 L66.7 2083.02 L73.34 2084.98 L74.53 2084.85 L75.14 2082.52 L74.71 2080.62 L73.81 2078.76 L72.99 2076.51 L77.36 2076.51 L77.36 2075.36 L75.4 2075.16 L73.44 2074.36 L71.56 2073.06 L69.81 2071.4 L71.27 2070.3 L72.03 2070.03 L72.99 2070.14 L70.99 2067.25 L69.84 2066.37 L68.62 2066.3 L69.22 2063.72 L68.62 2061.06 L67.39 2059.45 L66.08 2060.02 L65.4 2059.28 L64.87 2058.39 L64.47 2057.33 L64.2 2055.95 L65.16 2054.11 L63.53 2050.36 L64.8 2049.67 L69.35 2050.64 L71.69 2050.38 L73.56 2048.27 L72.55 2047.43 L71.51 2047.11 L69.22 2047.11 L68.57 2046.62 L66.7 2043.25 L67.66 2042.82 L69.29 2040.98 L70.13 2040.57 L70.94 2041.09 L71.64 2042.18 L72.45 2043.12 L73.56 2043.25 L73 2041.31 L72.6 2039.16 L72.13 2037.43 L71.38 2036.73 L70.29 2036.39 L69.86 2035.52 L69.64 2034.28 L69.19 2032.88 L65.09 2024.05 L63.53 2022.59 L64.83 2020.41 L65.4 2019.9 L62.89 2017.84 L62.02 2016.23 L61.71 2013.58 L63.69 2013.56 L67.7 2016.48 L69.81 2017.32 L71.78 2016.76 L71.71 2015.83 L71.67 2015.35 L70.18 2013.99 L67.95 2013.58 L70.54 2011.82 L75.89 2014.54 L78.48 2013.58 L77.2 2012.31 L75.98 2010.16 L75.58 2007.79 L76.74 2005.83 L75.75 2001.27 L75.17 1999.39 L74.19 1997.96 L75.09 1997.9 L77.36 1996.67 L76.69 1996.71 L76.07 1996.54 L75.45 1996.14 L74.86 1995.5 L76.11 1992.8 L74.86 1992.8 L76.07 1991.63 L77.46 1991.25 L80.42 1991.39 L80 1989.49 L79.79 1988.8 L82.53 1987.17 L85.41 1986.32 L84.07 1982.35 L82.3 1980.54 L77.92 1978.43 L78.79 1976.45 L80.04 1975.52 L80.86 1974.42 L80.42 1971.95 L84.16 1971.95 L84.16 1970.53 L83.94 1969.5 L84.16 1966.07 L84.16 1964.15 L83.94 1963 L83.23 1962.5 L82.91 1961.56 L82.84 1960.4 L83 1958.66 L82.91 1957.65 L82.32 1953.77 L81.78 1952.58 L80.42 1951.14 L79.2 1950.35 L76.64 1949.36 L75.44 1948.53 L78.08 1946.86 L83.91 1947.46 L86.72 1945.93 L85.39 1943.1 L83.96 1941.02 L81.04 1937.99 L74.81 1934.73 L72.99 1932.76 L85.19 1934.7 L88.52 1932.76 L86.6 1927.25 L86.1 1926.22 L84.76 1925.77 L82.32 1926.62 L81.04 1926.22 L77.36 1920.98 L76.62 1918.88 L76.46 1917.99 L77.04 1917.6 L78.48 1916.94 L80.83 1916.51 L91.37 1921.16 L97.17 1925.26 L99.86 1926.22 L99.86 1924.79 L93.63 1918.4 L90.54 1913.57 L88.49 1905.37 L86.79 1903.94 L84.9 1902.94 L83.54 1901.19 L83.4 1899.62 L84.13 1896.77 L83.85 1895.34 L81.72 1890.56 L81.72 1889.37 L83.42 1889.95 L86.53 1892.5 L87.95 1891.99 L85.52 1888.97 L79.12 1884.41 L77.36 1880.02 L77.61 1877.66 L78.45 1875.02 L79.1 1872.4 L78.83 1870.07 L77.59 1868.98 L76.04 1868.37 L75.04 1867.14 L75.44 1864.18 L72.65 1860.13 L71.26 1857.44 L70.44 1854.93 L71.29 1854.2 L72.06 1852.85 L72.25 1851.53 L70.38 1850.3 L70.01 1848.77 L69.8 1846.97 L69.19 1845.53 L68.36 1845.28 L64.18 1845.53 L63.36 1845.26 L62.97 1845.14 L60.94 1843.37 L59.78 1842.88 L61.37 1839.02 L60.05 1837.42 L56.04 1836.36 L59.66 1823.67 L60.4 1818.84 L60.83 1809.74 L61.5 1808.01 L62.95 1812.17 L64.49 1806.5 L64.8 1803.68 L64.2 1801.49 L65.52 1799.15 L68.33 1797.05 L69.5 1795.48 L70.05 1792.8 L69.22 1790.9 L66.7 1788.12 L68.62 1781.3 L66.61 1781.45 L65.49 1783.57 L64.51 1786.27 L62.95 1788.12 L63.31 1784.94 L64.43 1779.26 L64.83 1775.94 L64.89 1766.8 L65.4 1763.85 L60.49 1765.87 L59.15 1765.08 L58.4 1763.13 L58.22 1760.61 L58.66 1758.01 L59.78 1755.79 L59.15 1752.96 L53.16 1763.03 L52.92 1765.1 L54.17 1767.89 L52.18 1767.49 L51.76 1764.46 L52.25 1760.44 L52.92 1757 L52.38 1756.76 L51.51 1756.03 L50.99 1755.79 L51.73 1753.44 L52.2 1752.48 L52.92 1751.61 L51.42 1750.44 L49.66 1750.88 L47.93 1752.37 L46.63 1754.31 L46.43 1751.8 L48.05 1745.8 L48.54 1742.3 L46.94 1743.64 L45.78 1744.27 L45.06 1743.22 L44.75 1739.61 L44.98 1736.17 L45.78 1733.36 L47.02 1731.24 L48.54 1729.9 L48.02 1728.3 L46 1724.62 L47.84 1722.9 L49.71 1720.33 L51.62 1718.52 L53.54 1719.07 L52.11 1715.34 L45.53 1713.65 L44.13 1710.95 L43.02 1711.66 L42.03 1713 L40.38 1716.36 L40.63 1711.53 L42.02 1703.75 L41.64 1699.96 L43.46 1699.44 L45.91 1697.59 L48.1 1694.88 L49.12 1691.79 L49.06 1689.62 L48.64 1689.31 L48 1689.58 L47.25 1689.08 L45.65 1686.92 L45.07 1685.74 L44.28 1682.27 L44.8 1679.44 L46.22 1677.52 L48.21 1676.81 L50.05 1678.76 L51.18 1679.21 L51.67 1677.55 L51.99 1677.1 L53.58 1674.16 L54.17 1672.72 L54.7 1669.48 L54.77 1666.55 L55.14 1663.99 L56.66 1661.79 L58.86 1661.87 L65.09 1664.59 L67.01 1663.78 L67.7 1662.59 L69.4 1660.76 L70.13 1659.61 L70.56 1658.2 L70.94 1655.52 L71.81 1652.9 L72.8 1648.67 L72.99 1647.28 L73.48 1646.83 L76.74 1645.35 L75.22 1638.19 L74.87 1634.56 L74.86 1630.12 L74.78 1628.66 L74.69 1627.97 L75 1627.34 L76.11 1626 L77.09 1625.93 L77.84 1626.91 L78.32 1626.91 L78.48 1623.86 L79.66 1621.13 L82.25 1622.69 L86.06 1627.37 L88.82 1628.56 L91.59 1630.77 L94.42 1631.98 L97.32 1630.12 L93.41 1624.45 L87.33 1618.7 L85.55 1616.4 L84.97 1613.69 L86.72 1610.7 L85.59 1611.44 L84.3 1611.8 L83.03 1611.44 L82.01 1610.01 L81.64 1607.82 L81.73 1605.72 L81.58 1604.21 L80.42 1603.81 L81.06 1601.59 L82.13 1600.85 L84.85 1601.04 L84.85 1599.66 L81.28 1598.23 L80.19 1596.72 L79.79 1593.38 L80.55 1591.66 L82.27 1590.04 L84.16 1588.9 L85.41 1588.58 L90.65 1594.4 L93.55 1595.67 L95.45 1591.23 L97.28 1593.13 L99.72 1594.72 L102.24 1595.26 L104.24 1594 L102.85 1592.99 L100.01 1592.09 L98.62 1591.23 L98.62 1589.97 L102.36 1587.2 L103.68 1586.77 L107.36 1587.2 L109.46 1586.33 L113.89 1583.14 L116.15 1582.93 L115.22 1585.98 L115.06 1587.91 L115.86 1595.88 L115.72 1597.59 L114.9 1599.66 L117.15 1600.17 L124.31 1606.69 L123.24 1602.28 L121.75 1598.28 L124.32 1596.97 L125.27 1595.91 L126.18 1594 L126.7 1592 L126.93 1590.27 L127.24 1588.71 L128.04 1587.2 L129.72 1585.95 L130.67 1586.9 L131.39 1588.68 L132.36 1589.97 L133.78 1589.97 L136.2 1587.84 L137.4 1587.2 L138.52 1587.49 L140.32 1588.75 L141.77 1588.58 L142.24 1588 L142.33 1587.07 L142.3 1586.18 L142.4 1585.7 L142.89 1585.78 L143.59 1586.25 L144.18 1586.81 L144.32 1587.2 L148.13 1581.59 L150.11 1577.88 L151.18 1574.6 L151.81 1574.6 L153.88 1579.8 L155.94 1578.18 L157.96 1573.76 L159.92 1570.55 L159.03 1569.43 L158.41 1567.94 L157.47 1564.87 L156.28 1562.75 L153.68 1560.09 L149.11 1553.22 L148.66 1552.22 L147.06 1552.12 L145.72 1551.6 L144.58 1550.38 L143.65 1548.16 L143.22 1542.59 L145.27 1540.05 L148.32 1540.31 L150.87 1543.15 L153.64 1547.21 L156.4 1548.32 L159.3 1548.75 L162.47 1550.82 L154.85 1542.17 L151.36 1536.63 L150.56 1531.28 L151.49 1528.73 L152.48 1528 L154.95 1528.48 L156.6 1529.31 L156.57 1531.3 L156.04 1533.61 L156.23 1535.48 L158.25 1536.65 L160.51 1537.08 L162.03 1538.81 L161.85 1543.84 L163 1542.9 L164.48 1540.64 L165.59 1539.66 L165.59 1538.27 L164.92 1536.39 L165.2 1534.63 L165.85 1532.75 L166.22 1530.51 L166.48 1530.38 L168.08 1522.87 L168.94 1521.42 L169.97 1520.39 L170.83 1519.03 L171.21 1516.51 L171.77 1516.23 L175.63 1518.68 L174.91 1516.1 L171.21 1508.86 L172.77 1506.19 L173.49 1505.23 L174.38 1504.51 L174.15 1503.12 L174 1502.5 L173.75 1501.71 L177.61 1502.65 L179.29 1501.85 L179.99 1498.25 L179.78 1494.2 L179.59 1492.32 L180.05 1492.11 L181.81 1493.15 L183.13 1495.59 L183.98 1496.48 L184.35 1495.38 L184.69 1493.3 L185.53 1492.22 L186.55 1492.01 L187.47 1492.51 L188.88 1494.28 L189.94 1496.42 L190.37 1498.91 L189.97 1501.71 L190.94 1503.32 L192.84 1507.91 L193.43 1508.86 L194.77 1508.63 L196.44 1507.93 L198 1506.8 L199.07 1505.29 L199.8 1504.59 L200.74 1504.49 L201.54 1504.08 L201.88 1502.4 L201.88 1500.87 L201.92 1499.74 L202.13 1498.75 L202.55 1497.61 L203.93 1495.65 L206.81 1493.98 L208.17 1491.86 L206.65 1490.46 L201.88 1487.63 L208.17 1487.63 L206.36 1484.31 L205.69 1483.4 L208.04 1484.73 L209.34 1484.91 L210.36 1484.04 L210.6 1482.94 L210.73 1481.25 L210.67 1479.72 L210.36 1479.05 L208.71 1478.05 L207.89 1475.8 L208.23 1473.41 L210.04 1471.99 L211.92 1472.24 L213.01 1473.73 L214.68 1478.34 L216.22 1480.35 L217.2 1479.87 L217.3 1477.77 L216.29 1474.93 L216.29 1474.9 L216.65 1472.19 L216.63 1471.06 L216.29 1469.16 L221.48 1463.79 L222.88 1461.37 L223.98 1460.46 L228.22 1462.08 L229.25 1461.47 L230.14 1460.23 L231.16 1459.2 L230.95 1458.9 L230.07 1457.96 L230.09 1456.6 L231.3 1455 L232.42 1454.32 L235.22 1453.56 L242.28 1453.92 L245.13 1452.81 L246.96 1449.34 L249.18 1451.86 L251.19 1451.49 L253.15 1449.31 L255.12 1446.5 L252.29 1443.66 L251.01 1441.95 L251.01 1439.98 L251.74 1437.28 L251.55 1435.24 L251.01 1433.41 L250.7 1431.38 L250.93 1430.14 L252 1420.77 L253.36 1419.1 L255.07 1419.09 L258.24 1420.77 L258.84 1421.33 L259.85 1422.91 L260.74 1423.49 L261.68 1423.32 L262.52 1422.58 L263.42 1422.13 L266.31 1424.16 L272.36 1425.05 L273.76 1422.88 L272.49 1418.07 L270.28 1413.14 L268.85 1410.65 L269.53 1408.42 L270.62 1408.15 L273.27 1409.22 L273.96 1408.45 L276.04 1404.83 L277.06 1403.64 L277.46 1400.87 L279.21 1398.35 L281.47 1395.97 L281.67 1395.68 L283.24 1393.49 L282.62 1393.49 L282.86 1390.18 L283.31 1387.11 L284.34 1385.58 L286.35 1386.98 L287.73 1387.11 L291.96 1384.65 L293.28 1383.34 L294.02 1381.39 L295.8 1374.72 L297.67 1375.09 L301.59 1377.49 L303.32 1379.16 L302.51 1376.69 L301.87 1374.02 L301.65 1371.02 L302.01 1367.66 L303.09 1364.47 L305.86 1360.55 L307.05 1357.46 L308.13 1351.11 L308.89 1349.15 L310.81 1347.35 L314.76 1345.67 L316.23 1343.73 L315.85 1340.14 L317.01 1340.42 L318.07 1340.25 L319.04 1339.49 L319.91 1337.9 L320.29 1338.21 L323.95 1335.8 L327.28 1335.8 L327.75 1335 L327.72 1331.38 L327.88 1329.7 L328.38 1328.43 L329.46 1327.97 L332.02 1328.64 L333.05 1327.78 L333.63 1326.17 L334.15 1323.51 L334.61 1322.5 L336.47 1320.99 L338.24 1320.45 L339.92 1319.14 L341.48 1315.39 L341.39 1313.91 L340.98 1311.96 L340.92 1310.28 L342.64 1308.77 L342.7 1307.01 L342.37 1305.44 L342.1 1305.08 L342.79 1300.74 L343.45 1298.31 L345.84 1293.45 L346.34 1291.81 L346.7 1289.9 L347.12 1288.29 L347.71 1287.61 L348.79 1287.11 L351.51 1283.23 L355.22 1280.93 L356.93 1279.26 L358.38 1275.93 L357.5 1273.63 L357.13 1272.87 L357.13 1271.55 L358.16 1269.22 L359.39 1267.9 L362.17 1265.69 L358.74 1262.39 L357.68 1260.52 L359.34 1259.69 L361.33 1259.96 L368.65 1264.09 L369.54 1263.99 L370.29 1262.76 L370.32 1261.76 L369.3 1260.14 L369.04 1258.96 L369.76 1255.27 L371.49 1254.21 L375.33 1253.96 L375.76 1249.77 L379.12 1247.53 L390.43 1245.95 L406.58 1236.7 L408.5 1236.21 L410.1 1237.05 L410.97 1239.06 L411.7 1241.5 L412.93 1243.56 L413.64 1243.64 L414.32 1243.02 L415.07 1242.66 L416.04 1243.56 L416.28 1244.48 L416.65 1247.53 L416.95 1248.63 L418.34 1251.09 L419.72 1252.76 L421.37 1253.69 L423.53 1253.96 L423.53 1255.31 L422.66 1255.32 L421.91 1255.62 L420.41 1256.78 L423.55 1258.12 L432.26 1255.31 L432.93 1254.56 L431.86 1250.55 L431.98 1248.63 L433.34 1241.94 L433.51 1240.48 L432.69 1237.77 L431.62 1237.67 L430.43 1238.67 L429.2 1239.14 L427.83 1238.25 L425.4 1235.36 L421.88 1233.91 L420.26 1231.78 L417.29 1225.76 L417.75 1225.11 L418.68 1223.45 L419.16 1222.82 L418.48 1221.47 L420.03 1220.63 L429.23 1222.13 L430.91 1223.5 L434.19 1227.24 L436.3 1228.98 L438.36 1229.63 L439.87 1228.72 L440.36 1225.76 L439.7 1222.84 L438.61 1220.95 L437.92 1218.89 L438.5 1215.43 L437.86 1214.28 L437.58 1213.29 L437.6 1212.26 L437.87 1211 L435.71 1208.27 L434.64 1206.47 L434.19 1204.36 L434.04 1202.06 L433.64 1200.31 L433.05 1198.93 L432.32 1197.69 L429.45 1194.8 L419.16 1191.77 L419.78 1187 L420.48 1184.63 L423.53 1181.25 L424.75 1179.46 L425.65 1177.07 L425.94 1174.15 L425.4 1170.84 L426.53 1171.04 L427.66 1170.91 L428.74 1170.37 L429.76 1169.34 L429.14 1169 L427.97 1168.06 L427.26 1167.86 L428.06 1164.49 L428.51 1163.39 L427 1162.22 L426.25 1161.86 L425.4 1161.9 L426.72 1159.68 L427.97 1152.9 L429.2 1149.82 L428.84 1149.14 L428.24 1147.5 L427.89 1146.85 L428.74 1146.51 L429.3 1146.03 L430.45 1143.85 L424.16 1136.37 L425.43 1135.6 L427.88 1135.51 L429.2 1134.74 L430 1133.54 L431.52 1130.21 L432.32 1128.87 L431.31 1125.2 L432.61 1117.07 L431.98 1112.98 L429.4 1107.99 L426.68 1103.95 L419.85 1096.85 L417.85 1095.66 L415.38 1095.75 L413.26 1096.46 L411.25 1096 L409.12 1092.52 L408.65 1090.72 L408.36 1089.2 L408.23 1088.52 L407.65 1086.26 L406.63 1084.27 L405.39 1083.59 L403.12 1084.27 L401.9 1082.76 L400.29 1081.43 L395.93 1082.37 L394.11 1082.08 L392.91 1080.67 L391.27 1077.24 L390.3 1076.04 L386.98 1074.32 L383.36 1073.64 L379.77 1074.18 L376.58 1076.04 L374.18 1079.02 L373.06 1080.04 L371.25 1080.43 L370.23 1079.56 L369.79 1077.46 L369.71 1068.93 L369.49 1067.28 L368.75 1066.35 L362.98 1063.21 L361.84 1061.51 L360.35 1058.44 L359.18 1055.23 L358.78 1051.14 L359.68 1045.43 L361.05 1041.19 L366.23 1029.49 L367.48 1025.27 L368.2 1023.91 L369.72 1022.56 L372.22 1021.91 L373.13 1020.85 L373.41 1017.97 L371.94 1019.78 L367.16 1022.56 L366.45 1022.71 L365.62 1022.62 L364.94 1023.09 L364.67 1024.85 L364.72 1027.21 L364.63 1028.25 L364.36 1028.65 L362.13 1030.89 L358.15 1041 L355.88 1043.89 L353.65 1044.09 L351.74 1043.63 L349.87 1043.69 L347.82 1045.43 L347.59 1046.08 L347.42 1047.09 L347.12 1048.22 L346.47 1049.29 L345.47 1049.86 L341.11 1047.64 L338.44 1043.47 L337.42 1042.51 L333.87 1040.91 L330.26 1037.95 L331.17 1041 L331.44 1044.31 L330.81 1047.12 L329.01 1048.6 L327.33 1047.74 L325.69 1045.19 L324.3 1042.08 L323.39 1039.47 L323.39 1037.95 L323.42 1033.91 L319.86 1027.63 L317.84 1018.76 L315.43 1014.41 L313.49 1009.95 L313.69 1004.97 L313.54 1001.59 L311.21 990.4 L310.28 987.26 L309.35 985.76 L307.13 983.34 L306.17 981.88 L305.35 979.91 L300.4 964.78 L298.38 961.96 L288.9 958.44 L285.65 955.51 L283.29 951.66 L280.12 940.25 L279.32 934.35 L277.97 929.24 L277.68 926.73 L277.83 924.48 L278.62 921.49 L278.93 919.1 L278.99 916 L278.49 911.86 L278.36 908.78 L277.97 906.44 L276.21 902.22 L275.81 899.43 L276.74 894.27 L278.97 890.8 L281.64 888.74 L283.92 887.79 L283.92 884.13 L286.11 882.13 L288.93 880.62 L290.78 878.39 L290.92 875.85 L295.81 872.32 L297.7 870.27 L298.58 866.74 L298.74 862.8 L298.36 858.65 L297.7 854.57 L298.59 850.87 L299.27 846.6 L299.64 842 L299.62 837.25 L298.6 828.77 L298.66 827.07 L301.62 821.96 L302.94 817.75 L304.93 817.19 L307.06 817.32 L308.41 816.56 L308.86 814.49 L308.6 812.81 L304.91 801.33 L302.4 795.07 L300.48 791.66 L296.94 786.72 L291.74 774.85 L289.49 771.71 L286.72 770.46 L285.08 768.89 L282.94 765.18 L279.61 757.53 L278.96 755.43 L278.58 753.74 L278.4 751.74 L278.36 748.73 L278.03 746.19 L277.25 744.75 L276.31 743.69 L273.82 738.82 L271.85 736.23 L270.24 733.21 L269.57 728.53 L270.71 726.68 L271.72 724.47 L272.59 721.88 L273.31 718.87 L271.65 717.93 L271.17 716.27 L271.45 711.69 L272.2 707.95 L273.98 705.88 L284.32 700.99 L286.86 697.01 L288.91 689.66 L285.78 687.59 L285.77 682.06 L286.86 675.41 L287.04 670.05 L285.89 668.33 L283.89 667.35 L277.67 666.21 L271.45 662.07 L267.73 662.45 L264.11 664.16 L260.72 664.4 L257.67 660.3 L256.53 654.46 L257.65 649.88 L259.7 645.64 L261.41 640.74 L260.38 637.86 L262.76 635.15 L266.05 632.59 L267.7 630.19 L267.41 624.46 L266.7 620.68 L264.53 614.4 L263.79 610.45 L262.76 600.89 L261.75 597.08 L261.4 594.1 L261.41 579.84 L260.96 574.82 L260.69 568.93 L261.1 563.28 L262.71 559.03 L265.79 556.36 L272.25 553.98 L275.25 551.43 L277.54 546.72 L277.63 542.44 L275.89 539.34 L269.54 536.87 L261.41 526.49 L258.91 524.43 L252.12 517.85 L251.38 515.72 L251.05 513.65 L247.36 499.12 L246.35 496.55 L245.14 494.74 L241.99 494.9 L234.24 500.47 L232.27 500.52 L231.64 499.17 L231.26 498.98 L230.99 498.51 L230.78 496.27 L230.82 494.94 L231.25 492.74 L231.73 486.61 L231.62 484.65 L230.78 482.85 L231.31 477.09 L229.93 472.97 L225.8 467.71 L224.59 465.3 L224.12 463.19 L223.85 461.19 L223.25 459.14 L221.9 457.17 L208.34 447.68 L205.73 444.09 L201.91 435.74 L199.62 433.23 L194.17 435.57 L191.47 432.27 L188.84 427.81 L186.28 425.16 L184.56 425.19 L182.95 425.74 L181.29 425.78 L177.41 422.95 L173.41 422.48 L167.52 419.1 L160.31 418.52 L159.94 417.97 L160 415.52 L159.68 414.97 L153.47 413.04 L132.37 412.82 L129.29 410.02 L129.13 408.86 L129.2 407.08 L129.08 405.47 L128.41 404.76 L127.99 404.49 L126.89 403 L125.64 400.65 L123.03 396.91 L122.49 395.39 L118.4 390.06 L101.76 385.14 L99.91 377.3 L94.86 373.71 L86.72 365.22 L79.71 363.18 L76.78 360.32 L75.68 357.91 L72.91 350.1 L72.36 347.27 L71.55 344.71 L69.68 343.46 L63.17 343.41 L62.33 342.97 L61.92 342.11 L61.26 339.84 L60.77 339.38 L59.62 337.77 L54.21 327.46 L48.39 321.26 L41.01 314.24 L25.81 307.86 L23.88 304.79 L24.16 299.62 L26.92 298.13 L28.42 294.04 L28.45 289.48 L26.31 285.98 L22 284.56 L15.73 278.19 L4.78 276.43 L0 271.79 L8.54 255.82 L11.08 254.39 L37.4 270.6 L40.96 271.71 L43.47 269.89 L48.71 258.68 L37.49 234.68 L40.18 226 L41.7 222.08 L43.41 219.67 L63.07 206.27 L92.78 211.45 L94.98 213.56 L120.86 264.29 L127.89 278 L140.47 292.24 L141.71 295.39 L143.01 301.76 L144.07 304.35 L151.11 317.28 L158.38 323.53 L159.71 326.1 L162.02 349.01 L163.16 353.77 L164.95 354.49 L175.38 350.47 L177.86 350.27 L180.27 350.82 L203.58 363.13 L218.9 360.36 L223.67 361.83 L226.08 364.53 L233.15 376.69 L235.18 377.6 L261.13 360.63 L275.75 358.28 L284.26 353.13 L287.29 342.93 L289.05 331.87 L295.03 327.6 L302 327.72 L320.47 337.83 L323.45 343.22 L325.56 345.81 L338.86 354.85 L352.46 359.74 L369.1 365.54 L377.39 372.62 L384.28 383.59 L387.14 391.27 L388.81 393.41 L391.18 392.88 L393.18 389.52 L394.19 385.05 L395.44 380.85 L398.13 378.33 L400.47 378.46 L406.33 374.24 L408.78 373.66 L410.58 372.67 L411.94 370.17 L413.02 365.06 L411.92 362.91 L411.97 361.37 L412.52 359.96 L412.92 358.04 L413.08 346.29 L413.51 340.74 L414.71 335.71 L418.23 328.62 L435.22 312.95 L439.49 310.59 L443.79 309.61 L454.88 313.56 L457.19 313.05 L459.37 310.68 L460.71 307.16 L461.82 303.31 L463.32 299.99 L466.2 295.71 L467.21 293.15 L467.69 289.76 L468.71 286.57 L472.55 282.77 L473.36 279.5 L473.03 277.71 L472.28 276.43 L470.53 274.58 L469.81 273.24 L469.69 272.09 L469.8 271.06 L469.74 269.99 L468.38 265.94 L468.31 264.33 L469.01 261.88 L469.18 260.11 L469.32 251.63 L469.5 250.59 L469.85 249.69 L470.19 248.49 L470.3 246.51 L470.03 244.71 L468.84 240.24 L468.35 238.79 L466.91 232.07 L467.19 225.16 L470.6 204.36 L471.71 200.76 L480 185.73 L479.56 183.59 L476.71 173.54 L478.94 167.5 L480 165.93 L480.85 163.81 L480.76 157.57 L481.35 154.5 L482.65 151.64 L482.2 149.74 L481.2 148.26 L480.85 146.68 L482.08 143.77 L487.57 139.42 L489.94 135.04 L491.56 129.34 L491.67 123.14 L489.47 117.2 L487.95 114.79 L487.7 112.19 L488.35 109.4 L489.49 106.33 L491.67 102.52 L494.12 100.59 L507.77 96.75 L509.31 95.65 L510.47 93.69 L511.57 91.3 L515.7 84.35 L520.14 74.66 L529.45 63.88 L532.11 58.47 L531.02 53.64 L531.93 51.65 L535.14 46.96 L536.94 41.93 L539.97 40.08 L555.78 37.47 L561.71 39.25 L570.18 36.67 L573.02 37.66 L578.09 41.44 L580.82 40.61 L583.24 40.83 L589.97 46.02 L591.72 46.33 L611.04 38.96 L614.75 33.84 L614.08 33.29 L612.75 31.5 L612.08 30.91 L613.11 28.53 L614.45 27.82 L615.9 27.69 L617.35 27.02 L623.23 19.29 L634.01 13.85 L634.71 9.22 L638.51 3.55 L643.31 1.88 L654.92 4.39 L661.75 0 L664.52 1.24 L667.25 5.91 L672.17 17.59 L689.2 48.3 L691.2 50.51 L708.73 58.43 L708.6 67.4 L710.87 72.72 L714.35 75.58 L717.84 77.1 L747.55 91.82 L777.25 106.5 L778.7 109.21 L783.82 129.65 L796.74 161.41 L786.21 184.16 L752.91 225.57 L751.76 228.94 L751.02 234.66 L749.45 253.76 L749.51 257.87 L750.61 260.56 Z M163.09 2200.8 L162.49 2196.6 L163.4 2194.87 L165.1 2195.48 L166.84 2198.3 L166.86 2205.06 L166.71 2208.2 L166.22 2210.91 L165.59 2210.91 L164.66 2209.19 L163.19 2208.75 L161.82 2209.53 L161.22 2211.47 L160.75 2211.81 L159.71 2209.62 L158.64 2206.63 L158.05 2204.55 L157.7 2201.77 L157.65 2198.89 L158.2 2196.62 L159.64 2195.68 L160.74 2196.82 L160.81 2199.15 L161.15 2201.01 Z M79.79 2185.68 L82.82 2181.26 L86.59 2179.25 L90.56 2179.52 L94.2 2181.92 L93.58 2183.89 L92.65 2185.04 L90.45 2186.82 L92 2186.93 L92.62 2187.81 L92.45 2189.19 L91.64 2190.81 L90.44 2191.77 L89.16 2191.66 L86.68 2190.81 L85.75 2190.95 L83.24 2191.9 L82.32 2192.56 L81.42 2192.64 L80.46 2191.61 L79.48 2190.29 L78.48 2189.44 L80.03 2188.29 L81.8 2187.96 L85.41 2188.19 L84.58 2186.02 L83.12 2185.37 Z M102.36 2175.53 L107.47 2174.43 L112.4 2174.4 L115.52 2176.79 L115.52 2178.15 L114.5 2178.04 L113.51 2178.13 L112.59 2178.55 L111.72 2179.29 L112.29 2179.83 L113.71 2181.92 L106.73 2181.92 L109.9 2183.06 L109.08 2183.82 L108.16 2184.36 L107.2 2184.57 L107.6 2184.87 L108.03 2185.68 L105.98 2187.9 L103.14 2189.37 L100.22 2189.64 L97.99 2188.19 L98.78 2187.22 L99 2186.73 L98.62 2184.42 L99.95 2183.28 L100.43 2183.06 L100.43 2181.92 L98.84 2181.02 L99.12 2178.99 L100.52 2176.82 Z M66.7 2171.76 L68.13 2174.43 L70.45 2175.48 L75.44 2175.53 L75.44 2176.79 L71.82 2176.65 L70.44 2177.72 L69.81 2180.66 L69.19 2180.66 L68.43 2179.25 L67.05 2178.49 L64.18 2178.15 L62.8 2177.59 L61.9 2176.42 L60.89 2175.48 L59.15 2175.53 L60.48 2173.09 L62.42 2172.02 Z M131.16 2171.76 L132.36 2174.4 L126.81 2179.29 L127.37 2179.81 L128.66 2181.42 L129.24 2181.92 L126.63 2185.32 L123.74 2185.65 L121.28 2183.16 L119.88 2178.15 L121.23 2177.22 L125.56 2175.53 L128.2 2172.74 L129.6 2171.7 Z M474.23 2172.39 L474.94 2170.81 L476.64 2170.34 L479.89 2170.63 L478.69 2173.02 L477.68 2173.84 L476.18 2174.53 L474.81 2174.31 Z M144.9 2173.02 L146.1 2169.41 L148.24 2165.88 L150.6 2164.05 L152.43 2165.49 L152.9 2169.89 L150.38 2174.56 L147 2176.56 Z M456.7 2166.75 L453.93 2165.97 L451.93 2163.12 L451.41 2159.4 L452.99 2156.06 L454.5 2157.1 L462.37 2165.49 L461.69 2166.75 L460.13 2167.47 L458.65 2168.63 L457.74 2170.43 L457.95 2173.02 L455.71 2171.73 L454.96 2170.97 L455.4 2169.68 Z M202.84 2166.12 L204.87 2161.78 L207.17 2158.05 L209.89 2156 L213.15 2156.69 L212.52 2160.84 L210.78 2163.27 L208.59 2165.07 L206.59 2167.31 L205.94 2169.08 L205.54 2170.95 L204.97 2172.43 L202.5 2173.6 L201.92 2175.08 L201.97 2177.1 L202.55 2179.29 L201.92 2179.45 L201.5 2179.84 L201.11 2180.3 L200.63 2180.66 L201.15 2180.88 L202.55 2181.92 L202.13 2183.73 L201.88 2184.42 L203.14 2190.13 L200.07 2195.44 L192.51 2201.94 L192.51 2203.19 L193.36 2203.12 L193.91 2203.42 L195.03 2204.55 L194.13 2205.67 L192.94 2208.88 L192.45 2209.55 L190.22 2209.19 L189.26 2209.52 L188.1 2210.91 L186.91 2207.47 L185.61 2204.55 L184.82 2206.45 L181.87 2210.15 L181.36 2210.43 L181.08 2211.2 L181.18 2213.28 L180.62 2213.28 L180.77 2210.73 L180.5 2208.98 L179.81 2208.46 L178.68 2209.55 L178.3 2207.34 L178.84 2205.96 L179.64 2204.46 L179.99 2201.94 L178.91 2203.39 L175.68 2206.65 L174.19 2208.95 L170.21 2210.11 L168.71 2210.91 L168.68 2206.13 L168.87 2203.94 L169.38 2201.94 L168.85 2199.67 L169.03 2197.42 L169.3 2195.41 L169.05 2193.81 L167.96 2192.6 L165.5 2191.22 L164.34 2189.44 L166.25 2188.72 L169.67 2186.23 L171.53 2185.68 L180.62 2185.68 L180.62 2184.42 L163.71 2183.06 L164.71 2179.07 L165.42 2173.91 L166.72 2169.87 L169.38 2169.26 L167.43 2173.8 L166.98 2175.91 L168.4 2176.79 L177.54 2175.03 L180.78 2172.63 L182.48 2171.76 L200.23 2168.84 Z M135.54 2152.91 L137.84 2152.5 L148.6 2153.28 L155.13 2155.93 L156.81 2157.93 L156.58 2160.09 L156.09 2161.02 L154.36 2161.71 L153.66 2161.52 L152.98 2160.78 L152.26 2160.34 L151.5 2161.08 L151.14 2161.6 L150.02 2162.75 L149.62 2162.97 L145.47 2164.03 L144.13 2163.8 L145.57 2161.71 L144.41 2159.76 L142.33 2158.83 L140.12 2158.76 L138.65 2159.31 L142.4 2159.31 L140.7 2162.91 L138.29 2162.32 L135.8 2160.68 L133.94 2161.08 L133.1 2161.02 L132.78 2158.43 L133.44 2155.12 Z M161.22 2151.53 L159.57 2152.71 L157.81 2152.87 L154.36 2151.53 L155.87 2148.5 L157.78 2146.56 L159.92 2145.53 L162.16 2145.23 L162.49 2145.59 L162.48 2146.42 L162.38 2147.28 L162.47 2147.76 L164.97 2149.13 L166.33 2149.26 L167.58 2149.09 L168.63 2149.57 L169.38 2151.53 L167.3 2153.75 L164.63 2155.56 L161.85 2156.65 L159.35 2156.69 L159.99 2155.53 L160.49 2154.27 Z M125.56 2149.13 L123.92 2150.12 L122.18 2150.31 L120.4 2149.94 L118.63 2149.13 L118.35 2149.36 L117.91 2149.97 L117.37 2150.46 L116.77 2150.39 L116.71 2149.94 L116.8 2148.19 L116.77 2147.76 L114.75 2146 L113.76 2145.44 L110.93 2144.77 L108.83 2143.53 L106.97 2141.74 L106.17 2139.62 L106.8 2137.49 L108.32 2135.96 L110.15 2135.15 L111.72 2135.14 L111.72 2133.87 L107.36 2128.82 L107.69 2126.41 L108.25 2124.58 L109.14 2123.59 L110.47 2123.75 L111.93 2125.11 L115.95 2127.82 L116.77 2129.45 L117.07 2131.07 L117.82 2132.03 L118.75 2132.49 L119.57 2132.61 L121.25 2136.52 L121.25 2137.67 L118.57 2136.7 L117.28 2136.6 L116.15 2137.67 L117.37 2138.69 L120 2140.14 L121.25 2141.44 L120.5 2142.82 L123.48 2142.57 L124.74 2143.23 L125.56 2145.23 L123.34 2146.56 L122.44 2146.61 L123.91 2147.53 L124.68 2147.78 L125.56 2147.76 Z M100.74 2121.8 L99.75 2123.8 L98.44 2125.87 L97.28 2126.69 L96.7 2124.91 L97.55 2121.35 L99.67 2116.8 L102.2 2113.49 L104.24 2113.62 L103.9 2116.17 L103.02 2118.09 Z M63.58 2121.8 L61.84 2120.68 L58.72 2120.25 L57.29 2118.69 L58.23 2114.74 L57.53 2112.57 L56.21 2110.62 L55.36 2107.28 L57.29 2107.28 L59.87 2110.55 L62.28 2114.88 L62.53 2116.62 L64.1 2121.72 Z M70.44 2107.28 L71.97 2110.43 L76.62 2111.09 L78.48 2113.62 L78.07 2113.72 L77.8 2113.93 L77.43 2113.99 L76.74 2113.62 L76.31 2115.41 L76.11 2117.14 L76.22 2118.68 L76.74 2119.84 L75.21 2119.63 L74.04 2120.43 L73.77 2121.9 L74.86 2123.75 L72.58 2122.54 L70.26 2120.26 L68.34 2116.85 L67.32 2112.24 L66.12 2114.15 L65.13 2114.79 L64.45 2113.7 L64.2 2110.39 L64.92 2107.75 L66.63 2106.92 Z M61.71 2105.9 L60.1 2106.08 L59.39 2104.88 L59.07 2103.23 L58.58 2102.08 L56.75 2101.53 L55.73 2100.96 L54.79 2099.55 L53.96 2096.77 L54.44 2095.61 L56.66 2094.47 L57.19 2093.18 L57.56 2091.72 L58.11 2090.97 L59.15 2091.8 L59.23 2093.4 L59.54 2094.84 L60.12 2096.04 L61.03 2097 L60.31 2099.65 L59.85 2102.4 L60.14 2104.35 L61.71 2104.63 Z M58.58 2047.11 L55.59 2047.11 L54.21 2046.72 L52.92 2045.71 L55.24 2043.78 L59.7 2045.78 L61.71 2044.54 L61.4 2043.8 L61.26 2043.17 L61.18 2042.57 L61.03 2041.86 L61.59 2041.42 L62.42 2040.1 L62.95 2039.41 L60.3 2035.68 L58.62 2034.4 L56.66 2034.17 L59.09 2030.95 L60.46 2030.19 L62.28 2030.31 L63.84 2033.16 L65.22 2034.95 L68.62 2038.02 L66.83 2040 L65.35 2040.59 L64.38 2041.83 L64.2 2045.71 L63.49 2047.45 L61.59 2047.65 L59.57 2046.87 Z M72.99 1585.7 L72.36 1588.41 L72.32 1591.05 L72.76 1593.43 L73.56 1595.51 L71.38 1596.71 L68.91 1597.19 L67.67 1596.48 L69.19 1594 L67.57 1593.93 L61.03 1599.66 L61.03 1601.04 L61.67 1601.22 L63.53 1602.29 L61.97 1604.07 L60.32 1604.93 L56.66 1605.17 L55.54 1603.62 L54.46 1601.34 L53.37 1598.57 L51.67 1596.9 L50.49 1597.56 L49.19 1598.85 L47.88 1598.8 L46.63 1595.51 L48.54 1595.51 L48.54 1594 L47.36 1593.03 L44.76 1589.62 L43.82 1587.9 L43.24 1585.96 L41.9 1579.51 L41.64 1577.38 L45.41 1580.59 L48.99 1580.23 L52.65 1578.82 L56.66 1578.76 L56.66 1580.02 L55.18 1580.66 L54.08 1582.24 L52.25 1587.2 L52.51 1588.79 L52.65 1589.05 L52.6 1589.08 L52.25 1589.97 L53.56 1590.86 L58.58 1591.23 L59.29 1591.73 L59.96 1592.54 L60.63 1592.89 L61.37 1591.99 L61.64 1590.52 L61.34 1589.33 L60.95 1588.26 L61.03 1587.2 L63.27 1584.66 L66.94 1582.88 L70.63 1582.88 Z M63.53 1577.38 L63.23 1574.08 L62.37 1573.7 L61.16 1574.45 L59.78 1574.6 L55.36 1569.04 L55.81 1568.22 L56.24 1567.9 L57.29 1567.77 L59.7 1566.6 L62.84 1563.58 L66.03 1561.92 L68.62 1564.87 L68.58 1568.1 L67.15 1571.71 Z M399.24 1206.66 L402.91 1206.14 L405.49 1209.18 L402.4 1211.1 L396.39 1211.06 L388.64 1208.8 L383.37 1209.22 L381.71 1213.34 L374.48 1217.84 L377.08 1223.78 L382.7 1223.08 L384.07 1224.43 L383.04 1225.48 L382 1225.67 L380.92 1225.56 L379.76 1225.76 L378.95 1226.39 L378.02 1227.99 L377.2 1228.71 L375.61 1229.19 L373.64 1229.01 L372.5 1227.62 L373.41 1224.43 L372.99 1223.66 L372.21 1221.47 L370.97 1219.33 L368.64 1224.64 L366.19 1225.53 L363.06 1220.2 L361.38 1216.52 L360.55 1213.63 L359.9 1210.54 L362 1207.9 L368.25 1201.22 L376.17 1200.56 L384.73 1198.06 L389.16 1199.77 L390.43 1202.91 L388.24 1204.34 L389.14 1205.79 L391.3 1205.5 L394.02 1205.79 Z M300.74 2215.3 L301.5 2216.06 L301.19 2216.34 L301.22 2217.86 L300.15 2218.89 L298.99 2218.8 L298.96 2219.36 L298.83 2219.64 L298.08 2219.95 L296.68 2220.18 L295.35 2218.98 L294.83 2219.11 L294.55 2218.73 L295.15 2217.23 L296.64 2215.42 L298.65 2214.74 Z M206.85 2198.06 L209.62 2197.89 L210.43 2198.5 L209.79 2199.79 L209.54 2201.45 L209 2202.85 L208.6 2203.43 L208.07 2203.59 L207.4 2204.39 L206.54 2206.92 L206.18 2208.43 L205.46 2209.35 L204.3 2208.37 L203.53 2205.35 L203.95 2202.9 L206.47 2202.57 L206.52 2201.66 L205.73 2201.04 L204.53 2200.96 L203.9 2200.29 L204.65 2199.01 Z M213.25 2190.18 L213.63 2191.35 L213.77 2192.73 L213.23 2194.2 L212.27 2194.96 L211.37 2195.11 L210.92 2194.74 L211.04 2194.03 L210.55 2194 L209.37 2194.96 L207.9 2195.64 L205.29 2195.54 L204.49 2195.63 L203.02 2195.41 L202.98 2194.76 L204.04 2193.69 L204.71 2192.01 L205.56 2190.35 L206.15 2189.65 L207.23 2188.66 L209.55 2187.56 L211.44 2187.69 L212.57 2188.74 Z M125.01 2186.66 L125.76 2186.93 L126.91 2187.99 L126.45 2189.32 L124.65 2189.95 L123.16 2190.07 L120.65 2189.69 L120.24 2189.17 L119.38 2187.65 L119.91 2186.42 L121.26 2185.6 L122.32 2185.21 L123.7 2186.51 Z M154.39 2175.28 L160.04 2173.06 L161.01 2174.67 L159.39 2177.96 L157.23 2179.52 L155.01 2180.41 L154.93 2181.13 L156.23 2182.24 L156.56 2183.26 L155.36 2183.56 L153.07 2183.56 L152.12 2183.01 L152.47 2182.61 L152.48 2181.83 L152.34 2180.3 L152.61 2179.25 L153.02 2178.84 L153.1 2178.22 L153.13 2177.07 L153.6 2175.86 Z M124.24 2158.16 L123.66 2158.23 L123.31 2158.09 L123.86 2157.37 L125.45 2156.1 L126.54 2155.89 L126.33 2156.84 L125.39 2157.73 Z M121.84 2158.82 L120.72 2159.61 L119.02 2159.58 L117.53 2159.06 L116.28 2157.29 L115.27 2157.33 L114.39 2154.49 L114.79 2153.45 L116.21 2153.43 L117.42 2153.66 L118.97 2153.06 L122.11 2153.15 L123.39 2153.67 L123.53 2154.92 Z M153.15 2142.92 L152.23 2144.69 L144.25 2147.42 L143.24 2147.69 L141.33 2147.24 L140.14 2145.82 L140.13 2144.63 L140.78 2144.01 L149.14 2141.7 L151.81 2141.55 Z M144.62 2140.15 L144.74 2141.44 L136.06 2145.62 L135.3 2145.4 L136.93 2142.17 L138.38 2140.79 L139.19 2140.54 Z M65.31 2140 L66.61 2142.39 L67.05 2144.66 L66.89 2145.83 L66.65 2145.86 L66.01 2145.46 L65.34 2145.59 L64.91 2145.05 L64.94 2143.77 L64.67 2143.36 L64 2143.08 L62.19 2143.53 L61.32 2142.38 L61.48 2141.07 L62.11 2139.94 L62.54 2138.85 L63.64 2138.5 Z M546.2 2128.31 L550.04 2131.03 L550.82 2131.95 L550.55 2132.94 L549.34 2134.17 L543.55 2135.94 L542.26 2137.4 L541.32 2140.92 L540.38 2140.98 L539.26 2139.67 L537.53 2136.28 L538.1 2134.84 L542.44 2133.81 L543.7 2132.89 L544.25 2131.86 L544.21 2130.51 L544.64 2129.32 L545.41 2128.42 Z M128.18 1570.38 L128.84 1570.4 L131.33 1574.46 L131.09 1575.94 L130.04 1578.52 L128.5 1579.49 L127.05 1579.42 L126.43 1578.74 L126.52 1577.29 L126.2 1576.69 L125.58 1577.13 L125.38 1578 L125.29 1578.94 L124.86 1579.45 L124.35 1579.54 L123.8 1578.96 L123.44 1577.58 L123.74 1575.17 L124.78 1572.79 L125.99 1572.17 L127.77 1573.43 L128.52 1573.18 L128.18 1572.17 L126.87 1570.77 L126.47 1569.83 L126.94 1569.58 L127.48 1569.56 L127.81 1570.13 Z M138.96 1584.77 L138.25 1584.94 L133.59 1582.66 L133.03 1581.74 L133.38 1580.9 L132.95 1580.08 L131.91 1579.16 L132.06 1578.17 L132.7 1577.7 L133.39 1577.33 L133.9 1575.99 L133.34 1574.05 L132.43 1572.29 L132.1 1571.12 L132.96 1570.5 L134.24 1570.2 L135.85 1569.01 L137.07 1569.53 L137.85 1569.63 L138.57 1570.38 L139.3 1571.73 L140.23 1572.66 L140.72 1572.51 L140.8 1571.5 L141.28 1571 L142.09 1571.26 L142.8 1571.89 L143.19 1572.75 L143.65 1572.91 L144.29 1572.29 L144.78 1571.25 L145.03 1569.73 L145.45 1568.19 L146.03 1567.05 L146.46 1566.63 L146.91 1567 L147.31 1568.54 L147.44 1569.71 L147.61 1572.09 L148.28 1573.46 L148.11 1574.39 L147.19 1576.29 L146.12 1578.97 L144.84 1580.33 L142.89 1580.28 L140.08 1577.22 L136.23 1578.11 L136.2 1578.51 L138.48 1579.14 L140.26 1580.17 L140.68 1582.35 L140.14 1583.73 L139.36 1583.88 L138.94 1584.21 Z M121.87 1568.47 L121.12 1568.02 L120.96 1567.17 L121.12 1566.75 L121.34 1566.01 L121.78 1564.86 L122.23 1563.94 L122.68 1562.72 L123.19 1561.64 L123.79 1560.87 L124.29 1559.98 L124.55 1559.04 L125.45 1557.65 L127.12 1557.51 L128.55 1557.92 L129.97 1557.08 L131.25 1556.9 L131.71 1557.17 L132.16 1557.55 L133.04 1557.9 L133.92 1557.81 L134.55 1557.9 L134.55 1558.54 L133.9 1559.09 L133.04 1559.25 L133.11 1559.91 L133.56 1561.26 L132.74 1562.67 L131.2 1563.12 L128.23 1561.43 L126.94 1561.93 L125.96 1563.87 L125.51 1565.04 L124.33 1566.53 L122.68 1568.15 Z M199.59 1476.58 L201 1476.64 L201.5 1477.24 L201.2 1477.96 L200.79 1478.24 L200.7 1478.78 L200.61 1479.94 L200.25 1481.34 L199.96 1481.96 L199.72 1483.27 L199.06 1485.12 L198.24 1484.7 L197.23 1483.75 L196.78 1484.38 L197.08 1485.92 L196.68 1487.19 L195.62 1487.42 L194.9 1488.31 L193.35 1488.77 L191.49 1487.51 L189.99 1485.49 L189.02 1482.45 L188.54 1481.62 L188.19 1480.9 L188.04 1479.91 L190 1478.6 L190.77 1477.85 L191.52 1476.71 L193.14 1475.32 L195.56 1474.11 L197.2 1474.32 L197.93 1475.7 L198.47 1476.97 L198.89 1477.29 L199.27 1476.85 Z M171.32 2232.77 L172.4 2233.02 L172.63 2233.48 L171.92 2234.39 L166.31 2237.53 L164.86 2237.89 L163.79 2237.27 L163.59 2235.76 L164.32 2234.95 L164.86 2234.9 L165.41 2234.75 L167.53 2233.62 L169.64 2233.37 L170.37 2232.95 Z M89.28 2163.71 L90.69 2163.65 L91.68 2164.13 L91.21 2165.87 L90.16 2167.39 L89.83 2168.6 L89.4 2169.65 L88.53 2169.8 L88.09 2169.65 L87.22 2169.82 L85.9 2168.98 L85.79 2166.46 L86.59 2163.51 L88.04 2161.04 L89.66 2161.14 L89.86 2162.64 L89 2163.31 Z M58.14 2052.53 L58.85 2052.92 L58.87 2055.4 L58.47 2056.81 L57.28 2056.31 L53.59 2054 L53.18 2054.38 L52.92 2054.07 L52.8 2053.44 L52.28 2052.7 L51.44 2051.89 L51.73 2051.14 L53.3 2050.64 L54.66 2051.44 L54.95 2053.06 L55.12 2053.66 L55.93 2053.37 L56.54 2053.45 L56.89 2053.86 L57.44 2053.66 Z M72.97 1991.52 L73.65 1992.23 L73.86 1992.52 L73.12 1992.4 L69.95 1990.72 L68.17 1991.64 L66.62 1991.66 L66.1 1991.36 L66.23 1991.3 L66.38 1991.27 L66.14 1990.55 L65.76 1988.89 L66.08 1987.82 L66.72 1987.59 L67.08 1987.15 L67.02 1986.62 L67.6 1985.49 L69.15 1984.45 L70.18 1985.29 L69.67 1986.92 L69.98 1988.59 Z M82.04 1904.24 L82.29 1904.41 L82.49 1905.18 L82.11 1905.89 L81.44 1905.98 L81.06 1906.5 L80.82 1907.3 L80.19 1907.36 L78.13 1906.77 L76.62 1905.74 L76.45 1905.13 L77.45 1904.95 L78.69 1903 Z M53.47 1646.39 L51.91 1644.84 L51.13 1645.61 L49.79 1646.43 L47.82 1644.97 L46.85 1643.03 L46.89 1642.17 L47.38 1641.96 L47.96 1642.51 L48.18 1642.9 L48.57 1642.09 L48.98 1640.52 L48.37 1639.66 L47.25 1638.68 L46.47 1637.02 L46.34 1635.42 L46.87 1634.25 L47.69 1633.53 L48.28 1633.5 L48.6 1634.2 L49.03 1634.7 L51.3 1635.69 L52.3 1636.71 L53.37 1638.36 L54.16 1640.57 L54.63 1643.34 L54.7 1645.36 L54.21 1646.21 Z "/>
</g>
</svg>
