<svg xmlns="http://www.w3.org/2000/svg" viewBox="0 0 1000 692.75">
<g fill="#ccc" stroke="#333" stroke-width="0.5" stroke-linejoin="round">
<path fill-rule="evenodd" d="M65.33 488.77 L65.13 488.8 L65.02 488.77 L64.94 488.7 L64.68 488.37 L64.63 488.35 L64.49 488.36 L64.33 488.4 L64.18 488.45 L64.04 488.48 L63.61 488.42 L63.53 488.4 L63.43 488.34 L63.21 488.14 L63.1 488.07 L63.04 488.06 L62.98 488.07 L62.86 488.06 L62.78 488.04 L62.65 487.98 L62.59 487.96 L62.23 487.92 L62.09 487.84 L61.93 487.67 L61.64 487.45 L61.61 487.36 L61.8 487.33 L61.65 487.19 L61.48 487.06 L61.28 486.98 L61.05 486.96 L61.19 486.8 L61.31 486.78 L61.59 486.86 L61.76 486.85 L61.86 486.77 L62.09 486.19 L62.17 486.14 L62.26 486.09 L62.45 486.09 L62.58 486.07 L62.68 486.03 L63.09 485.62 L63.22 485.42 L63.56 484.58 L63.85 483.97 L64.47 483.13 L64.54 483 L64.67 482.61 L64.73 482.54 L64.83 482.48 L64.72 482.39 L64.67 482.33 L64.65 482.27 L64.66 482.19 L64.69 482.09 L64.81 481.92 L64.83 481.87 L64.89 481.61 L64.89 481.49 L64.84 481.47 L64.75 481.37 L64.71 481.25 L64.8 481.19 L64.84 481.14 L64.83 481.02 L64.77 480.81 L64.76 480.79 L64.68 480.73 L64.66 480.73 L64.68 480.68 L64.71 480.65 L64.75 480.63 L64.77 480.61 L64.79 480.43 L64.77 480.24 L64.68 480.12 L64.48 480.15 L64.66 479.72 L64.78 479.52 L65.09 479.15 L65.31 478.8 L65.59 478.6 L65.6 478.59 L65.69 478.45 L65.75 478.28 L65.77 478.13 L65.81 478.02 L66.11 477.69 L66.25 477.35 L66.23 476.71 L66.29 476.35 L66.36 476.16 L66.37 476.03 L66.32 475.92 L66.2 475.8 L66.13 475.77 L66.04 475.78 L65.94 475.81 L65.85 475.83 L65.85 475.78 L65.65 475.47 L65.48 474.87 L65.39 474.78 L65.21 474.52 L65.12 474.46 L64.83 474.37 L64.73 474.33 L64.69 474.29 L64.6 474.19 L64.52 474.02 L64.46 473.92 L64.43 473.93 L64.39 473.86 L64.23 473.77 L64.02 473.38 L63.96 473.32 L63.84 473.22 L63.79 473.14 L63.7 472.85 L63.64 472.76 L63.35 472.5 L63.27 472.36 L63.26 472.15 L63.3 472.02 L63.41 471.72 L63.43 471.59 L63.4 471.42 L63.31 471.35 L63.03 471.27 L62.92 471.2 L62.82 471.08 L62.79 470.94 L62.88 470.78 L62.94 470.63 L62.93 470.42 L62.85 470.05 L62.59 469.51 L62.45 468.59 L62.47 468.37 L62.64 468.06 L62.68 467.91 L62.68 467.56 L62.66 467.46 L62.56 467.19 L62.55 466.98 L62.58 466.81 L62.58 466.67 L62.48 466.51 L62.39 466.46 L62.31 466.44 L62.24 466.39 L62.21 466.28 L62.21 465.22 L62.16 465.1 L62.14 465.02 L62.18 464.93 L62.41 464.77 L62.45 464.73 L62.46 464.6 L62.39 464.26 L62.41 464.12 L62.47 463.98 L62.62 463.73 L63.09 463.21 L63.11 463.16 L63.13 463.06 L63.17 463.01 L63.3 462.91 L63.36 462.85 L63.46 462.52 L63.55 462.38 L63.63 462.26 L63.99 461.89 L64.66 461.41 L64.83 461.22 L65.11 461.12 L65.37 460.94 L65.6 460.71 L65.76 460.46 L66 459.88 L66.17 459.58 L66.22 459.42 L66.35 458.54 L66.5 458.28 L66.66 457.99 L66.75 457.83 L66.84 457.83 L67.22 457.89 L67.48 457.93 L67.68 458.01 L67.85 458.08 L67.91 458.09 L67.88 458.04 L67.7 457.94 L67.77 457.93 L67.89 457.95 L68.18 458.09 L68.4 458.24 L68.55 458.35 L68.7 458.43 L68.87 458.53 L69.83 458.92 L70.13 459.07 L70.38 459.23 L70.57 459.31 L70.68 459.33 L70.97 459.4 L71.31 459.39 L71.92 459.55 L72.21 459.62 L72.42 459.6 L72.54 459.67 L72.67 459.84 L72.82 459.96 L73.01 459.9 L73.01 459.8 L72.86 459.78 L72.7 459.67 L72.53 459.53 L72.38 459.49 L72.32 459.5 L72.3 459.45 L72.39 459.39 L72.47 459.41 L72.64 459.51 L72.9 459.61 L73.27 459.71 L73.46 459.8 L73.67 459.88 L74.08 460.16 L74.39 460.27 L74.73 460.34 L74.77 460.27 L74.82 460.28 L75.07 460.4 L75.66 460.73 L76.23 461.27 L76.62 461.49 L76.88 461.91 L77.49 462.39 L78.68 463.52 L78.77 463.56 L78.81 463.59 L78.8 463.64 L78.79 463.7 L78.8 463.73 L78.84 463.74 L78.95 463.72 L78.99 463.73 L79.2 463.85 L79.86 464.41 L80.05 464.73 L79.97 465.08 L80.13 464.98 L80.34 464.68 L80.53 464.61 L80.73 464.66 L80.91 464.78 L81.03 464.94 L81.08 465.11 L80.93 465.39 L80.62 465.8 L80.36 466.23 L80.38 466.54 L80.44 466.54 L80.46 466.42 L80.52 466.34 L80.58 466.28 L80.61 466.22 L80.66 466 L80.73 465.78 L80.85 465.64 L81.21 465.42 L81.31 465.25 L81.46 465.33 L81.64 465.47 L81.78 465.65 L81.84 465.81 L81.92 465.93 L82.48 466.25 L82.77 466.49 L83.07 466.8 L83.31 467.16 L83.41 467.5 L83.45 467.84 L83.65 468.5 L83.7 468.85 L83.6 469.23 L83.38 469.43 L83.11 469.59 L82.88 469.87 L83.4 469.71 L83.69 469.56 L83.82 469.38 L83.84 469.29 L83.92 469.06 L83.93 468.9 L83.86 467.68 L83.91 467.38 L84.05 467.13 L84.16 467.05 L84.29 467.02 L84.43 467.05 L84.57 467.13 L84.97 467.49 L85.04 467.59 L84.97 467.69 L85.2 468.01 L85.27 468.21 L85.29 468.4 L85.33 468.64 L85.42 468.82 L85.56 468.82 L85.55 468.9 L85.51 468.96 L85.47 469 L85.45 468.99 L85.46 469.06 L85.5 469.2 L85.56 469.31 L85.71 469.35 L85.85 469.37 L85.91 469.43 L85.88 469.55 L85.8 469.62 L85.72 469.7 L85.69 469.87 L85.7 470.02 L85.76 470.16 L86.09 470.65 L86.2 470.86 L86.25 471.1 L86.26 471.42 L86.23 471.68 L86.06 472.2 L85.97 472.38 L85.34 472.69 L85.12 472.88 L85 473.14 L84.92 473.42 L84.82 473.64 L84.68 473.84 L84.13 474.45 L83.86 474.58 L83.8 474.64 L83.78 474.73 L83.8 474.91 L83.79 474.98 L83.71 475.06 L83.65 475.06 L83.59 475.05 L83.51 475.09 L83.38 475.23 L83.32 475.4 L83.25 475.76 L83.17 475.96 L82.81 476.49 L82.72 476.73 L82.65 476.83 L82.48 476.92 L82.48 476.98 L82.5 477.06 L82.49 477.13 L81.34 479.02 L81.25 479.11 L81.14 479.16 L81.07 479.16 L81.01 479.15 L80.9 479.17 L80.74 479.31 L80.56 479.72 L80.26 479.94 L80.2 480.11 L80.21 480.3 L80.29 480.67 L80.28 480.73 L79.74 481.72 L79.69 481.85 L79.73 481.95 L79.79 482.03 L79.8 482.1 L79.69 482.16 L79.59 482.2 L79.52 482.24 L79.47 482.3 L79.41 482.38 L78.75 483.87 L78.69 484.13 L78.66 484.2 L78.59 484.24 L78.42 484.31 L78.38 484.35 L78.42 484.44 L78.55 484.65 L78.59 484.75 L78.57 484.86 L78.54 484.93 L78.49 484.98 L78.44 485.06 L78.26 485.45 L78.02 485.8 L77.7 486.07 L77.52 486.42 L77.41 486.57 L77.26 486.69 L76.31 487.26 L75.94 487.41 L75.8 487.52 L75.69 487.72 L75.63 487.92 L75.57 488 L75.48 488.07 L75.43 488.09 L75.34 488.07 L75.3 488.07 L75.25 488.11 L75.18 488.22 L75.12 488.25 L74.94 488.27 L74.62 488.19 L74.26 488.15 L73.99 487.94 L73.81 487.87 L73.65 487.87 L72.63 488.07 L72.5 488.07 L72.4 488 L72.46 487.87 L72.62 487.75 L72.78 487.69 L72.79 487.6 L72.25 487.16 L72.04 486.86 L71.97 486.8 L71.85 486.77 L71.81 486.78 L71.79 486.83 L71.56 487.12 L71.46 487.2 L71.16 487.31 L70.85 487.54 L70.76 487.58 L70.43 487.59 L70.26 487.64 L70.13 487.6 L69.86 487.44 L69.72 487.41 L69.43 487.4 L69.29 487.37 L68.72 487.12 L68.47 487.11 L68.41 487.08 L68.42 487.02 L68.51 486.86 L68.51 486.77 L68.42 486.64 L68.28 486.6 L68.12 486.64 L67.97 486.73 L67.88 486.84 L67.8 486.99 L67.72 487.1 L67.61 487.13 L67.41 487.15 L67.3 487.27 L67.23 487.41 L67.12 487.49 L66.94 487.48 L66.85 487.45 L66.81 487.49 L66.8 487.7 L66.74 487.85 L66.59 487.96 L66.23 488.09 L66.18 488.12 L66.1 488.2 L66.04 488.22 L66 488.21 L65.91 488.14 L65.87 488.13 L65.69 488.14 L65.63 488.18 L65.56 488.3 L65.44 488.65 L65.33 488.77 Z M546.69 0 L546.82 0.31 L546.91 0.91 L546.99 1.17 L547.3 1.51 L547.43 1.71 L547.46 1.98 L547.41 2.06 L547.21 2.25 L547.16 2.38 L547.33 2.97 L547.32 3.06 L547.25 3.21 L547.24 3.27 L547.27 3.31 L547.37 3.37 L547.41 3.41 L547.49 3.58 L547.53 3.66 L547.59 3.68 L547.72 3.71 L547.79 3.71 L547.95 3.69 L548.03 3.7 L548.14 3.76 L548.18 3.84 L548.21 3.93 L548.26 4.03 L548.58 4.33 L548.63 4.42 L548.74 4.69 L548.79 4.78 L548.94 4.91 L549.62 5.22 L549.66 5.24 L549.8 5.27 L549.91 5.18 L550.16 4.74 L550.32 4.57 L550.51 4.45 L550.96 4.31 L551.63 4.09 L551.86 4.16 L552 4.3 L552.14 4.55 L552.26 4.76 L552.36 5.02 L552.43 5.1 L552.55 5.12 L552.66 5.15 L552.73 5.28 L552.83 5.6 L552.71 5.82 L552.78 6.21 L553 6.96 L553.02 7.39 L553.06 7.54 L553.19 7.71 L553.31 7.8 L553.68 7.99 L553.83 8.04 L554.03 8.01 L554.4 7.88 L554.52 7.79 L554.6 7.7 L554.69 7.64 L554.81 7.63 L554.93 7.67 L554.99 7.74 L554.98 7.85 L554.89 8 L555 8.08 L555.55 8.08 L555.74 8.12 L555.93 8.21 L556.1 8.38 L556.23 8.63 L556.31 9.14 L556.31 9.77 L556.38 10.31 L556.68 10.59 L556.71 10.5 L556.73 10.5 L556.74 10.51 L556.78 10.48 L556.8 10.44 L556.84 10.33 L556.99 10.07 L557.06 9.99 L557.17 9.95 L557.55 9.92 L557.9 9.97 L558.07 10.06 L558.22 10.16 L558.37 10.23 L558.56 10.23 L559.1 10 L559.28 9.98 L559.45 10.06 L559.73 10.37 L559.91 10.48 L560.09 10.64 L560.32 11.14 L560.48 11.21 L560.54 11.15 L560.53 11.06 L560.53 10.97 L560.64 10.93 L560.72 10.95 L560.83 11.03 L560.94 11.12 L560.99 11.21 L560.97 11.34 L560.88 11.44 L560.68 11.6 L560.59 11.73 L560.55 11.84 L560.51 12.08 L560.35 12.61 L560.33 12.85 L560.45 12.91 L560.62 12.83 L560.71 12.82 L560.79 12.86 L560.93 13.43 L560.99 13.56 L561.04 13.66 L561.04 13.75 L560.84 13.85 L560.64 13.99 L560.49 14.14 L560.42 14.22 L560.38 14.31 L560.35 14.47 L560.39 14.49 L560.43 14.69 L560.44 14.88 L560.38 14.88 L560.38 14.88 L560.85 15.13 L560.97 15.17 L561.09 15.15 L561.62 15.07 L562.89 15.42 L562.95 15.44 L563.21 15.4 L564.39 14.81 L564.75 14.75 L564.84 14.69 L564.92 14.54 L564.98 14.33 L565.04 13.91 L565.03 13.82 L565 13.75 L564.98 13.67 L565 13.54 L565.05 13.44 L565.96 12.52 L566.19 12.41 L566.23 12.61 L566.32 12.65 L566.59 12.59 L566.67 12.7 L566.66 12.93 L566.61 13.2 L566.59 13.43 L566.5 13.33 L566.45 13.35 L566.29 13.7 L566.28 13.82 L566.29 13.93 L566.28 14.07 L565.96 14.89 L565.92 15.1 L566.03 15.28 L566.44 15.45 L566.57 15.69 L566.58 15.86 L566.56 15.98 L566.52 16.09 L566.47 16.25 L566.44 16.32 L566.37 16.41 L566.35 16.49 L566.37 16.55 L566.45 16.69 L566.47 16.77 L566.47 17.26 L566.55 17.36 L566.77 17.39 L566.96 17.36 L567.33 17.23 L567.49 17.23 L567.51 17.22 L567.66 17.31 L567.98 17.62 L568.15 17.72 L568.45 17.81 L568.55 17.91 L568.92 18.43 L569.04 18.55 L569.2 18.67 L569.39 18.73 L569.78 18.62 L569.96 18.62 L570.14 18.79 L570.3 18.99 L570.36 19.19 L570.32 19.24 L570.25 19.28 L570.23 19.47 L570.25 19.59 L570.29 19.64 L570.43 19.67 L570.49 19.65 L570.54 19.58 L570.57 19.51 L570.6 19.48 L570.66 19.48 L570.75 19.54 L571.02 19.64 L571.08 19.7 L571.17 19.78 L571.58 20.52 L571.62 20.64 L571.62 20.78 L571.59 20.9 L571.58 21.02 L571.63 21.14 L571.82 21.19 L572.04 21.06 L572.25 20.89 L572.41 20.82 L572.68 20.94 L572.75 20.96 L572.88 20.94 L572.9 20.89 L572.92 20.8 L573.02 20.66 L573.24 20.55 L573.43 20.59 L573.61 20.69 L573.79 20.72 L573.9 20.67 L574.01 20.53 L574.1 20.48 L574.19 20.49 L574.38 20.61 L574.48 20.63 L574.74 20.99 L574.89 21.13 L575.11 21.23 L575.65 21.36 L575.8 21.52 L575.92 21.89 L576.07 21.84 L576.79 21.8 L576.92 21.75 L577 21.63 L577.1 21.59 L577.12 21.52 L577.12 21.43 L577.17 21.35 L577.23 21.33 L577.47 21.31 L577.41 21.19 L577.9 21.13 L578.14 21.16 L578.38 21.25 L578.39 21.26 L578.8 21.57 L579.02 21.69 L579.19 21.71 L579.26 21.72 L579.35 21.7 L579.52 21.59 L579.58 21.56 L579.68 21.58 L580.46 21.97 L580.6 22.11 L580.66 22.22 L580.68 22.33 L580.68 22.4 L580.67 22.4 L580.72 22.49 L581.14 22.93 L581.17 23.01 L581.13 23.11 L580.98 23.12 L580.93 23.24 L580.99 23.39 L581.13 23.57 L581.69 24.11 L581.71 24.17 L581.69 24.3 L581.7 24.35 L581.74 24.39 L581.86 24.43 L581.9 24.47 L581.96 24.71 L581.99 24.76 L582 24.79 L582.02 24.89 L582.04 24.94 L582.08 24.94 L582.19 24.86 L582.23 24.86 L582.28 25.07 L582.24 25.23 L582.21 25.39 L582.32 25.57 L582.42 25.62 L582.8 25.62 L583.13 25.74 L583.24 25.72 L583.39 25.52 L583.35 25.31 L583.29 25.1 L583.34 24.92 L583.43 24.89 L583.78 24.98 L584.03 24.95 L584.12 24.97 L584.65 25.27 L584.84 25.28 L584.83 25.74 L584.93 26.09 L585.12 26.24 L585.38 26.07 L585.39 26.01 L585.36 25.94 L585.36 25.87 L585.43 25.79 L585.48 25.8 L585.81 26.04 L585.94 26.11 L586.07 26.15 L586.81 26.16 L587.03 26.26 L587.09 26.27 L587.14 26.22 L587.23 26.04 L587.28 25.97 L587.36 25.95 L587.53 25.92 L587.59 25.89 L587.64 25.82 L587.7 25.63 L587.74 25.57 L587.88 25.49 L587.91 25.48 L588.08 25.43 L588.24 25.44 L588.28 25.59 L588.65 25.61 L588.8 25.67 L588.86 25.86 L588.8 25.9 L588.77 25.93 L588.76 25.97 L588.88 26.09 L589.07 26.41 L589.18 26.55 L589.37 26.67 L589.74 26.73 L589.93 26.83 L589.99 26.91 L590.07 27.08 L590.15 27.15 L590.24 27.16 L590.27 27.17 L590.37 27.15 L590.47 27.1 L590.58 27.08 L590.67 27.1 L590.85 27.16 L590.93 27.17 L591.04 27.15 L591.24 27.04 L591.33 27.01 L592.04 27.22 L592.52 27.17 L592.68 27.18 L594.02 27.9 L594.86 28.08 L594.96 28.17 L594.95 28.18 L594.78 28.38 L594.51 28.88 L594.13 29.95 L594.02 30.12 L593.97 30.17 L593.66 30.34 L593.58 30.34 L593.57 30.37 L593.53 30.41 L593.49 30.48 L593.47 30.6 L593.45 30.67 L593.4 30.71 L593.34 30.74 L593.1 30.74 L593 30.77 L592.96 30.89 L592.95 31.13 L592.91 31.23 L592.82 31.36 L592.7 31.47 L592.6 31.53 L592.37 31.81 L592.24 31.93 L592.1 31.97 L592 32.04 L591.64 32.6 L591.57 33.02 L591.57 33.47 L591.67 33.74 L591.67 33.83 L591.46 34 L591.35 34.1 L591.31 34.22 L591.29 34.46 L591.25 34.59 L591.2 34.67 L591.14 34.79 L591.09 34.94 L591.03 35.28 L591.02 35.45 L591.05 35.6 L591.1 35.76 L591.15 35.93 L591.14 36.11 L591.02 36.3 L590.86 36.39 L590.73 36.5 L590.67 36.77 L590.65 37.03 L590.6 37.24 L590.51 37.43 L589.97 38.18 L589.91 38.34 L589.9 38.52 L589.85 38.62 L589.79 38.7 L589.73 38.81 L589.68 39.01 L589.62 39.26 L589.65 39.78 L590.02 40.43 L590.03 40.83 L589.95 40.98 L589.73 41.22 L589.68 41.39 L589.69 41.59 L589.68 41.65 L589.62 41.78 L589.59 41.84 L589.53 41.9 L589.51 41.95 L589.5 42 L589.5 42.04 L589.51 42.07 L589.51 42.12 L589.55 42.36 L589.53 42.5 L589.42 42.56 L589.37 42.63 L589.25 43.04 L589.23 43.21 L589.33 43.65 L589.33 43.86 L589.28 43.94 L589.14 44.09 L589.11 44.17 L589.13 44.44 L589.16 44.58 L589.19 44.64 L589.32 44.7 L589.43 44.86 L589.62 45.25 L589.67 45.31 L589.73 45.36 L589.77 45.42 L589.79 45.54 L589.77 45.59 L589.74 45.72 L589.73 45.72 L589.43 45.83 L589.23 45.95 L589.18 45.99 L588.86 46.25 L588.88 46.26 L589.02 46.37 L589.05 46.37 L589.05 46.49 L589.01 46.57 L588.95 46.59 L588.86 46.57 L588.81 46.6 L588.8 46.64 L588.82 46.69 L588.88 46.77 L588.88 46.8 L588.89 46.8 L588.88 46.84 L588.87 46.87 L588.86 46.89 L588.73 47.01 L588.62 46.99 L588.55 46.95 L588.51 46.92 L588.38 46.88 L588.28 46.91 L588.28 46.98 L588.32 47.06 L588.35 47.09 L588.39 47.15 L588.4 47.22 L588.38 47.34 L588.33 47.4 L588.21 47.56 L588.06 47.62 L587.97 47.66 L587.62 47.64 L587.38 47.63 L587.16 47.68 L586.84 47.82 L586.78 47.83 L586.71 47.8 L586.68 47.76 L586.66 47.71 L586.62 47.68 L586.37 47.6 L586.19 47.49 L586.14 47.29 L586.29 46.93 L586.06 46.95 L585.96 46.94 L585.95 46.94 L585.84 46.87 L585.64 46.83 L585.21 46.9 L584.99 46.87 L584.92 46.81 L584.84 46.79 L584.76 46.81 L584.69 46.87 L584.53 46.92 L584.55 47.06 L584.64 47.23 L584.68 47.38 L584.61 47.49 L584.49 47.6 L584.35 47.68 L584.13 47.73 L584.11 47.96 L583.9 48.09 L583.77 48.26 L583.66 48.46 L583.62 48.62 L584.63 48.52 L584.79 48.44 L584.92 48.54 L585.04 48.66 L585.13 48.79 L585.07 48.92 L584.99 48.98 L584.9 49 L584.81 49.05 L584.69 49.22 L584.64 49.24 L584.56 49.25 L584.4 49.41 L584.35 49.67 L584.38 49.98 L583.81 50.41 L583.56 50.66 L583.4 50.93 L583.38 50.95 L582.84 51.44 L582.59 51.53 L582.6 51.75 L582.47 51.81 L582.44 51.83 L582.41 51.91 L582.2 51.99 L582.12 52.07 L582 52.27 L582.11 52.5 L581.91 52.78 L581.34 53.21 L580.43 53.5 L580.02 53.74 L579.89 54.18 L579.93 54.29 L580.04 54.51 L580.07 54.64 L580.05 54.82 L580.02 54.89 L580.01 54.93 L579.95 55.04 L579.81 55.44 L579.8 55.51 L579.82 55.58 L579.87 55.64 L579.93 55.71 L579.94 55.92 L579.9 56.02 L579.81 56.14 L579.72 56.21 L579.44 56.36 L579.21 56.61 L579.13 56.68 L578.52 57.02 L577.38 58.07 L577.26 58.22 L577.29 58.38 L577.49 58.61 L577.19 58.99 L576.9 59.5 L576.8 59.6 L576.77 59.68 L576.77 59.74 L576.79 59.8 L576.81 59.85 L576.81 59.89 L576.81 59.98 L576.83 60.07 L576.81 60.15 L576.72 60.24 L576.76 60.27 L577.18 60.52 L577.3 60.66 L577.4 60.85 L577.42 60.98 L577.26 61.32 L577.14 61.6 L577.11 61.69 L577.05 62.04 L577.05 62.18 L577.05 62.29 L577.02 62.37 L576.83 62.43 L576.78 62.44 L576.73 62.43 L576.66 62.41 L576.65 62.41 L576.63 62.41 L576.62 62.41 L576.11 62.66 L575.9 62.79 L575.87 62.94 L575.96 63.11 L576.11 63.3 L576.08 63.4 L576.02 63.53 L575.91 63.79 L576.11 63.67 L576.5 63.58 L576.88 63.56 L577.17 63.69 L577.45 63.55 L577.88 63.04 L578.43 62.68 L578.65 62.45 L578.6 62.17 L578.54 62.14 L578.4 62.2 L578.31 62.16 L578.28 62.11 L578.19 61.9 L578.19 61.85 L578.11 61.64 L578.08 61.52 L578.12 61.35 L578.3 61.11 L578.54 60.79 L578.82 60.55 L579.08 60.46 L579.36 60.45 L579.64 60.38 L580.36 59.88 L580.91 59.77 L581.47 59.79 L582.74 60.12 L582.87 60.18 L582.95 60.31 L582.95 60.42 L582.96 60.54 L582.9 60.75 L582.68 61.01 L582.63 61.15 L582.8 61.43 L583.1 61.75 L583.29 62.09 L582.99 62.67 L582.84 63.11 L582.76 63.53 L582.84 63.74 L583.51 63.89 L583.64 64.02 L583.64 64.11 L583.58 64.2 L583.51 64.29 L583.47 64.35 L583.49 64.34 L583.51 64.46 L583.51 64.59 L583.5 64.6 L583.5 64.7 L583.48 64.75 L583.49 64.78 L583.56 64.84 L583.64 64.85 L583.71 64.8 L583.77 64.74 L583.84 64.71 L584.03 64.8 L584.61 65.45 L584.65 65.48 L584.68 65.61 L584.78 65.86 L584.84 66.08 L584.88 66.21 L584.94 66.31 L584.82 66.36 L584.73 66.48 L584.66 66.62 L584.61 66.79 L584.49 66.98 L584.32 67.13 L584.13 67.23 L583.95 67.28 L583.74 67.28 L583.68 67.29 L583.67 67.35 L583.66 67.44 L583.66 67.49 L583.6 67.51 L583.55 67.43 L583.5 67.39 L583.42 67.36 L583.19 67.43 L583.06 67.51 L582.95 67.69 L582.91 67.89 L582.9 68.11 L582.93 68.33 L583.02 68.83 L583.19 69.09 L583.42 69.26 L583.64 69.31 L583.76 69.35 L583.95 69.54 L584.06 69.63 L584.34 69.7 L584.44 69.77 L584.5 69.96 L584.48 70.02 L584.38 70.24 L584.36 70.34 L584.37 70.44 L584.47 70.58 L584.5 70.67 L584.55 71.17 L584.61 71.35 L585 71.57 L585.37 71.85 L585.4 71.89 L585.45 71.98 L585.51 72.13 L585.58 72.27 L585.69 72.35 L586.06 72.51 L586.12 72.56 L586.11 72.71 L586.04 72.9 L585.86 73.21 L585.59 73.54 L585.54 73.61 L585.59 73.96 L585.68 74.21 L585.68 74.4 L585.45 74.59 L585.28 74.89 L585.23 74.95 L585.18 74.93 L585.08 74.8 L585.01 74.77 L584.71 74.85 L584.4 74.99 L584.29 75.1 L584.15 75.36 L584.02 75.47 L583.95 75.49 L583.75 75.49 L583.68 75.52 L583.64 75.62 L583.67 75.69 L583.72 75.75 L583.71 75.82 L583.43 75.95 L583.12 75.85 L582.81 75.68 L582.52 75.63 L582.45 75.66 L582.3 75.78 L582.22 75.82 L582.16 75.83 L582 75.83 L581.93 75.84 L581.63 76.01 L581.61 76.03 L581.48 76.14 L581.38 76.27 L581.53 76.5 L581.67 76.62 L581.68 76.71 L581.67 76.8 L581.69 76.91 L581.79 77.09 L581.88 77.17 L582.18 77.2 L582.41 77.36 L582.46 77.7 L582.44 78.38 L582.59 78.63 L582.87 78.87 L583.46 79.21 L583.62 79.25 L584.04 79.17 L584.18 79.18 L584.61 79.36 L584.76 79.52 L584.8 79.58 L584.82 79.65 L584.81 79.69 L584.81 79.72 L584.81 79.78 L584.79 79.79 L584.75 79.98 L584.74 79.99 L584.84 80.25 L584.88 80.55 L584.92 80.65 L585.17 81.14 L585.22 81.3 L585.07 81.3 L584.77 81.21 L584.61 81.21 L584.41 81.32 L584.26 81.51 L584.2 81.75 L584.29 82.01 L584.17 82.1 L583.88 82.6 L583.45 82.94 L583.36 83.1 L583.39 83.47 L583.58 83.8 L583.83 84.08 L584.06 84.26 L583.77 84.42 L583.71 84.52 L583.64 84.89 L583.62 84.97 L583.62 85.03 L583.65 85.14 L583.68 85.19 L583.87 85.41 L583.94 85.53 L584.04 85.77 L584.09 85.86 L584.16 85.94 L584.33 86.06 L584.41 86.15 L584.46 86.27 L584.49 86.38 L584.53 86.48 L584.61 86.57 L584.72 86.62 L584.82 86.6 L584.93 86.57 L585.04 86.56 L585.15 86.59 L585.65 86.86 L585.99 86.98 L586.89 87.54 L587.05 87.61 L587.27 87.65 L587.38 87.69 L587.44 87.78 L587.49 87.88 L587.57 87.95 L587.65 87.97 L587.99 87.98 L589.47 87.55 L589.72 87.54 L590.07 87.31 L590.33 87.35 L590.21 87.74 L590.31 87.96 L590.5 88.15 L590.6 88.36 L590.64 88.44 L590.62 88.64 L590.52 88.77 L590.4 88.86 L590.31 88.97 L590.25 89.11 L590.18 89.38 L590.12 89.51 L589.93 89.72 L589.49 90.1 L589.32 90.37 L588.95 90.78 L588.82 91.02 L588.86 91.32 L589.02 91.89 L588.91 91.97 L588.88 91.97 L588.84 91.96 L588.8 91.98 L588.8 92.02 L588.81 92.17 L588.8 92.21 L588.74 92.25 L588.69 92.24 L588.62 92.3 L588.55 92.39 L588.47 92.46 L588.38 92.32 L588.21 92.23 L588.05 92.29 L587.92 92.43 L587.88 92.57 L587.86 92.71 L587.76 92.79 L587.66 92.88 L587.63 92.99 L587.56 93.13 L587.47 93.15 L587.31 93.12 L587.14 93.05 L586.94 93.07 L586.81 93.15 L586.7 93.28 L586.73 93.4 L586.57 93.58 L586.49 93.63 L586.43 93.48 L586.27 93.44 L586.15 93.49 L586.04 93.5 L585.98 93.61 L585.92 93.66 L585.89 93.75 L585.83 94.08 L585.88 94.4 L585.88 94.46 L585.91 94.59 L585.94 94.69 L585.82 94.76 L585.72 94.56 L585.64 94.52 L585.51 94.51 L585.36 94.61 L585.25 94.74 L585.14 94.83 L585.07 94.89 L585.02 94.76 L584.88 94.77 L584.7 94.75 L584.55 94.77 L584.43 94.85 L584.29 95 L584.25 95.17 L584.33 95.23 L584.32 95.23 L584.36 95.27 L584.37 95.32 L584.12 95.64 L584.08 95.92 L583.89 96.05 L583.85 96.17 L583.66 96.19 L583.65 96.12 L583.62 96.08 L583.59 96.03 L583.55 96.07 L583.53 96.15 L583.57 96.3 L583.45 96.34 L583.35 96.31 L583.22 96.3 L582.91 96.39 L582.83 96.27 L582.69 96.23 L582.6 96.28 L582.47 96.4 L582.48 96.7 L582.36 96.88 L582.36 97.07 L582.15 97.09 L581.99 97.12 L581.92 97.27 L581.88 97.4 L581.8 97.49 L581.56 97.71 L581.33 97.85 L581.28 98.02 L581.45 98.08 L581.97 97.94 L582.15 97.98 L582.19 98.06 L582.08 98.27 L581.94 98.37 L581.91 98.58 L581.97 98.67 L582.03 98.81 L581.87 98.94 L581.7 99.04 L581.6 99.06 L581.44 99.14 L581.35 99.12 L581.32 99.06 L581.3 98.97 L581.2 99.01 L581.05 99.01 L580.84 99.03 L580.82 99.15 L580.73 99.29 L580.55 99.4 L580.33 99.34 L580.09 99.38 L579.84 99.38 L579.67 99.44 L579.47 99.57 L579.37 99.77 L579.4 99.93 L579.45 100.1 L579.16 100.1 L579.05 99.99 L579.02 99.94 L578.86 99.88 L578.64 99.77 L578.41 99.75 L578.12 99.8 L577.9 99.89 L577.77 99.96 L577.64 100.08 L577.56 100.32 L577.55 100.6 L577.71 100.66 L577.83 100.63 L577.79 100.74 L577.57 100.76 L577.09 100.79 L577.01 100.75 L577.13 100.68 L577.27 100.63 L577.38 100.54 L577.35 100.32 L577.19 100.17 L577.04 100.19 L576.63 100.25 L576.49 100.25 L576.4 100 L576.19 99.96 L575.9 99.97 L575.7 99.83 L575.72 99.76 L575.73 99.65 L575.75 99.6 L575.61 99.59 L575.48 99.63 L575.23 99.75 L575.37 99.81 L575.5 100.07 L575.64 100.14 L575.84 100.22 L575.75 100.33 L575.55 100.31 L575.3 100.31 L575.2 100.35 L575.04 100.63 L574.72 100.53 L574.47 100.34 L574.4 100.23 L574.58 100.12 L574.71 100 L574.65 99.91 L574.56 99.85 L574.41 99.82 L574.39 99.72 L574.35 99.63 L574.22 99.62 L574.05 99.62 L573.67 99.45 L573.6 99.19 L573.48 99.06 L573.33 98.99 L573.15 98.98 L573.05 99.1 L572.96 99.29 L572.76 99.2 L572.62 99.19 L572.51 99.04 L572.41 98.9 L572.33 98.74 L572.22 98.68 L572.13 98.74 L572.04 98.76 L571.66 98.73 L571.49 98.74 L571.24 98.69 L571.12 98.68 L570.9 98.73 L570.71 98.64 L570.74 98.43 L570.76 98.32 L570.82 98.2 L570.89 98 L570.79 97.89 L570.78 97.75 L570.75 97.68 L570.64 97.26 L570.26 97.01 L569.78 97.33 L569.14 97.32 L568.82 97.36 L568.31 97.33 L568.05 97.25 L567.87 96.98 L567.8 96.71 L567.98 96.38 L568.24 96.23 L569 96.23 L569.23 96.16 L569.4 96.03 L569.57 95.81 L569.68 95.55 L569.65 95.27 L569.4 95.44 L569.16 95.53 L568.95 95.49 L568.76 95.27 L568.7 95.09 L568.7 94.99 L568.65 94.93 L568.48 94.87 L568.41 94.86 L568.21 94.87 L568.18 94.83 L568.06 94.67 L568 94.63 L567.95 94.71 L567.89 94.87 L567.85 95.03 L567.84 95.11 L567.88 95.33 L567.96 95.43 L568.06 95.49 L568.18 95.59 L568.29 95.89 L568.19 96.15 L567.99 96.29 L567.74 96.32 L567.61 96.29 L567.15 96.02 L566.93 96.12 L566.84 96.19 L566.64 96.24 L566.55 96.31 L566.48 96.47 L566.52 96.54 L566.61 96.75 L566.63 96.9 L566.91 96.88 L566.71 97.07 L566.53 97.17 L566.49 96.97 L566.34 96.7 L565.99 96.5 L565.7 96.23 L565.57 95.92 L565.59 95.23 L565.57 95.03 L565.51 94.86 L565.43 94.65 L565.31 94.48 L565.16 94.39 L565.16 94.47 L565.41 94.87 L565.45 94.99 L565.45 95.83 L565.57 96.23 L565.8 96.47 L566.06 96.65 L566.25 96.87 L566.23 97.12 L565.98 97.13 L564.92 97.1 L564.29 96.96 L564.07 96.83 L564.06 96.63 L564.23 96.44 L564.25 96.29 L564.18 96.14 L563.98 95.98 L563.62 95.84 L562.74 95.93 L561.01 95.79 L560.8 95.74 L560.62 95.65 L560.39 95.47 L560.25 95.2 L560.39 94.94 L560.37 94.9 L560.15 94.71 L559.66 94.66 L559.18 94.72 L558.86 94.85 L558.74 94.94 L557.05 96.34 L556.05 96.78 L555.77 97.02 L555.12 97.88 L554.94 97.96 L554.6 97.79 L554.4 97.83 L554.03 97.85 L553.46 98.09 L552.83 98.6 L552.69 98.78 L552.63 98.88 L552.52 98.98 L552.42 99.1 L552.28 99.23 L552.17 99.38 L552.07 99.58 L551.91 99.75 L551.73 99.92 L551.64 100.13 L551.57 100.31 L551.49 100.53 L551.36 100.84 L551.29 101.06 L551.23 101.24 L551.15 101.57 L551.09 101.82 L551.11 101.94 L551.22 102 L551.23 102.23 L551.16 102.93 L551.1 103.59 L551.09 104.05 L551.12 104.35 L551.08 104.83 L551.11 105.45 L551.15 105.93 L551.2 106.31 L551.32 106.46 L551.5 106.54 L551.73 106.59 L551.92 106.65 L552 106.77 L552 106.9 L551.97 107.03 L552.03 107.15 L552.12 107.23 L552.25 107.44 L552.3 107.69 L552.3 107.73 L551.93 107.8 L551.71 107.81 L551.49 107.78 L551.31 107.73 L551.21 107.66 L551.13 107.57 L551.06 107.47 L551.01 107.34 L550.95 107.32 L550.7 107.32 L550.61 107.3 L550.47 107.39 L550.19 107.29 L549.91 107.5 L549.77 107.53 L549.63 107.52 L549.49 107.54 L549.35 107.62 L549.1 107.87 L548.96 107.96 L548.78 107.98 L548.45 107.93 L548.28 107.95 L548.13 108.02 L547.77 108.31 L547.7 108.41 L547.78 108.63 L547.88 108.75 L547.89 108.8 L547.66 108.81 L547.47 108.77 L547.08 108.64 L546.92 108.64 L546.85 108.7 L546.78 108.89 L546.72 108.95 L546.63 108.95 L546.54 108.92 L546.37 108.82 L546.21 108.78 L546.04 108.65 L545.91 108.47 L545.85 108.28 L545.71 108.28 L545.45 108.22 L544.95 107.98 L544.85 107.9 L544.62 107.76 L544.35 107.79 L543.82 107.96 L543.42 107.91 L543.29 107.97 L543.25 108.03 L543.18 108.2 L543.14 108.27 L542.94 108.42 L542.8 108.58 L542.7 108.64 L542.56 108.68 L542.34 108.7 L542.22 108.68 L542.12 108.62 L541.95 108.47 L541.87 108.29 L541.76 107.86 L541.64 107.67 L541.51 107.61 L541.35 107.6 L541.15 107.56 L540.67 107.23 L540.5 107.15 L539.97 107.08 L539.81 107.01 L539.82 106.98 L539.81 106.95 L539.79 106.93 L539.77 106.91 L539.8 106.62 L539.89 106.38 L540.05 106.23 L540.26 106.21 L540.23 106.16 L540.16 106.06 L539.96 106 L539.82 105.91 L539.89 105.67 L538.93 105.58 L538.83 105.54 L538.37 105.22 L538.24 105.23 L537.99 105.32 L537.73 105.31 L537.59 105.76 L537.41 105.84 L537.28 105.68 L537.14 105.28 L536.98 105.06 L536.83 104.79 L536.76 104.75 L536.68 104.74 L536.63 104.7 L536.67 104.53 L536.47 104.48 L535.42 104.47 L535.14 104.57 L535.05 104.55 L534.9 104.45 L534.81 104.29 L534.75 104.11 L534.66 103.94 L534.51 103.81 L534.34 103.75 L533.61 103.7 L533.55 103.66 L533.41 103.55 L533.33 103.52 L533.25 103.55 L533.17 103.61 L533.09 103.66 L533 103.62 L532.86 103.48 L532.79 103.43 L532.53 103.33 L532.17 103.11 L532.02 103.08 L531.86 103.1 L531.71 103.07 L531.41 102.95 L531.27 102.94 L531.03 102.95 L530.84 103.03 L530.8 103.2 L530.81 103.44 L530.7 103.77 L530.79 103.9 L530.73 103.95 L530.69 104 L530.64 104.11 L530.76 104.16 L530.86 104.29 L530.92 104.46 L530.91 104.65 L530.9 104.68 L530.84 104.77 L530.73 104.81 L530.43 104.77 L529.37 104.8 L529.23 104.74 L528.9 104.83 L528.74 104.84 L528.57 104.8 L528.53 104.76 L528.52 104.72 L528.52 104.67 L528.5 104.63 L528.27 104.43 L528.11 104.49 L527.96 104.64 L527.73 104.98 L527.6 104.99 L527.47 104.84 L527.28 104.51 L527.15 104.45 L526.7 104.33 L526.56 104.35 L526.4 104.46 L525.88 104.53 L525.22 104.78 L524.93 104.8 L524.59 104.67 L524.54 104.62 L524.5 104.56 L524.44 104.51 L524.34 104.48 L524.25 104.44 L524.22 104.36 L524.21 104.28 L524.16 104.22 L524.02 104.1 L523.92 103.93 L523.87 103.73 L523.89 103.53 L523.73 103.59 L523.49 103.66 L523.26 103.63 L523.16 103.42 L522.66 103.12 L522.65 103.11 L522.51 102.98 L522.47 103.1 L522.41 103.19 L522.34 103.21 L522.27 103.14 L521.86 103.46 L521.65 103.58 L521.4 103.6 L520.94 103.39 L520.72 103.38 L520.71 103.66 L520.63 103.68 L520.49 103.78 L520.42 103.79 L520.34 103.74 L520.34 103.67 L520.35 103.59 L520.3 103.52 L520.27 103.51 L520.13 103.51 L520.07 103.49 L520.07 103.44 L520.09 103.39 L520.08 103.34 L519.75 102.9 L519.6 102.77 L519.3 102.59 L519.22 102.57 L519.14 102.59 L519.05 102.58 L518.97 102.49 L518.92 102.39 L518.93 102.32 L518.96 102.27 L518.96 102.19 L518.93 102.1 L518.8 101.78 L518.57 101.7 L517.92 101.82 L517.24 101.76 L516.92 101.65 L516.62 101.43 L516.52 101.31 L516.38 101.27 L516.08 101.23 L516.02 101.18 L515.88 101.09 L515.8 101.06 L515.48 101.09 L515.21 100.86 L514.91 100.7 L514.42 100.61 L514.26 100.51 L514.12 100.35 L514.08 100.19 L514.15 100.04 L514.33 99.88 L514.14 99.83 L513.94 99.91 L513.8 100.07 L513.74 100.31 L513.72 100.61 L513.65 100.77 L513.5 100.82 L513.27 100.8 L513.06 100.74 L512.87 100.63 L512.72 100.46 L512.61 100.2 L512.68 100.1 L513.03 99.73 L513.14 99.58 L513.27 99.21 L513.36 98.75 L513.33 98.32 L513.08 98.07 L512.98 98.07 L512.89 98.1 L512.79 98.12 L512.44 97.93 L512.18 97.85 L512.01 97.85 L511.88 97.92 L511.81 98.12 L511.76 98.22 L511.67 98.28 L511.56 98.29 L511.47 98.28 L511.37 98.23 L511.33 98.18 L511.26 97.98 L511.25 97.87 L511.27 97.8 L511.28 97.75 L511.19 97.69 L511.03 97.61 L510.95 97.6 L510.78 97.68 L510.6 97.7 L510.5 97.75 L510.41 97.76 L510.39 97.72 L510.36 97.67 L510.33 97.44 L510.23 97.3 L509.98 97.18 L509.98 97.04 L509.99 96.79 L510.01 96.65 L510.03 96.67 L510.04 96.67 L510.17 96.77 L510.23 96.68 L510.39 96.62 L511.14 96.49 L511.34 96.21 L511.53 96.11 L511.69 95.99 L511.76 95.89 L511.94 95.53 L511.98 95.4 L512.06 95.3 L512.39 94.87 L512.45 94.73 L512.71 94.38 L512.76 94.01 L512.97 93.34 L513.32 91.41 L513.52 90.74 L513.82 89.21 L514.37 85.86 L514.6 84.19 L514.66 83.45 L514.64 83.27 L514.56 82.94 L514.57 82.84 L514.8 82.51 L514.83 82.43 L514.85 82.29 L515.01 81.74 L515.17 81.53 L515.39 81.52 L515.91 81.65 L516.21 81.6 L516.38 81.48 L516.38 81.3 L516.17 81.08 L516.29 81.08 L516.2 80.91 L515.56 80.3 L515.47 80.26 L515.43 80.24 L515.39 80.2 L515.35 80.17 L515.29 80.18 L515.26 80.22 L515.24 80.27 L515.23 80.32 L515.21 80.34 L515.16 80.45 L514.77 81.03 L514.68 81.56 L514.6 81.85 L514.55 81.98 L515.06 76.07 L515.42 74.16 L515.57 71.6 L515.62 71.42 L515.91 70.83 L516.03 70.65 L516.17 70.59 L516.26 70.64 L516.28 70.69 L516.28 70.78 L516.27 70.92 L516.25 70.96 L516.23 71.02 L516.23 71.09 L516.25 71.15 L516.34 71.3 L516.42 71.39 L516.99 71.84 L517.35 72.04 L517.48 72.08 L518.51 73.23 L518.75 73.59 L518.85 73.95 L518.87 74.19 L518.98 74.64 L519.14 75.76 L519.17 75.9 L519.46 76.6 L519.75 76.98 L520.07 77.3 L520.35 77.46 L520.42 77.54 L520.49 77.69 L520.51 77.81 L520.48 78 L520.49 78.25 L520.53 78.5 L520.6 78.69 L520.71 78.78 L520.68 78.62 L520.65 78.27 L520.6 78.13 L520.68 77.8 L520.58 77.54 L520.39 77.35 L520.19 77.22 L520.45 77.24 L520.67 77.28 L520.87 77.38 L521.06 77.54 L520.85 77.17 L520.51 77 L520.14 76.88 L519.84 76.64 L519.68 76.33 L519.57 75.95 L519.25 73.63 L519.14 73.17 L518.86 72.4 L518.69 72.06 L518.5 71.76 L518.1 71.31 L516.9 70.43 L516.87 70.38 L516.84 70.15 L516.78 70.1 L516.5 69.99 L516.05 69.54 L515.79 69.43 L515.63 69.4 L515.49 69.31 L515.37 69.19 L515.27 69.05 L515.11 68.93 L514.81 69 L514.66 68.93 L514.8 68.08 L514.8 67.93 L515.37 67.75 L515.53 67.76 L516.07 68.4 L516.17 68.47 L516.27 68.56 L516.87 68.84 L516.68 68.62 L515.91 68.01 L515.69 67.74 L515.65 67.63 L515.64 67.49 L515.6 67.31 L515.54 67.13 L515.47 67 L515.56 66.95 L515.62 66.88 L515.67 66.81 L515.71 66.75 L515.8 66.67 L515.93 66.59 L516.01 66.58 L516.08 66.59 L516.13 66.56 L516.17 66.42 L516.16 66.29 L516.11 66.17 L516.05 66.06 L516 65.99 L516.04 65.96 L516.13 65.86 L516.17 65.83 L516.03 65.74 L515.94 65.57 L515.82 65.17 L516 65.29 L516.14 65.3 L516.25 65.2 L516.34 64.99 L516.34 64.92 L516.31 64.86 L516.26 64.81 L516.2 64.76 L516.04 64.7 L516.01 64.6 L516 64.48 L515.94 64.31 L515.95 64.2 L515.93 64.15 L515.9 64.13 L515.79 64.09 L515.76 64.07 L515.71 64.01 L515.66 63.97 L515.66 63.92 L515.76 63.82 L515.57 63.67 L515.5 63.65 L515.47 63.63 L515.47 63.57 L515.48 63.51 L515.47 63.48 L515.42 63.47 L515.29 63.48 L515.21 63.45 L515.13 63.46 L515.06 63.44 L514.98 63.36 L514.97 63.25 L515.02 63.13 L515.11 63.03 L515.18 62.98 L515.14 62.74 L515.23 62.58 L515.82 62.21 L515.89 62.06 L515.88 61.96 L515.84 61.85 L515.82 61.68 L515.63 61.41 L515.25 61.39 L514.94 61.58 L514.95 61.97 L514.72 61.91 L514.56 61.71 L514.4 61.47 L514.26 61.43 L514.18 61.42 L513.92 61.26 L513.73 61.09 L513.61 61.04 L513.16 61.19 L512.94 61.18 L512.85 60.91 L512.8 60.6 L512.67 60.38 L512.47 60.24 L512.24 60.2 L511.67 60.17 L511.44 60.1 L511.51 59.94 L511.37 59.81 L510.92 59.73 L510.64 59.48 L510.4 59.41 L510.29 59.35 L510.23 59.24 L510.13 58.97 L510.05 58.84 L510.05 58.99 L510.1 59.2 L510.11 59.3 L510.08 59.36 L510 59.31 L509.92 59.2 L509.73 58.3 L509.77 58.08 L509.63 58.02 L509.56 57.88 L509.52 57.72 L509.47 57.57 L509.34 57.42 L509.21 57.31 L509.11 57.19 L509.02 56.87 L508.91 56.78 L508.77 56.73 L508.63 56.72 L508.56 56.64 L508.3 56.13 L507.83 55.63 L507.57 55.44 L507.35 55.36 L507.25 55.28 L507.19 55.09 L507.15 54.85 L507.14 54.64 L507.16 54.37 L507.22 54.24 L507.44 54.08 L507.39 53.91 L507.52 53.78 L507.84 53.57 L507.94 53.39 L508.09 52.94 L508.19 52.72 L508.34 52.6 L508.32 52.39 L508.23 52.17 L508.14 52.03 L508 51.9 L507.49 51.61 L506.51 51.43 L506.21 51.27 L506.32 51.19 L506.41 51.1 L506.51 51.03 L506.79 50.99 L506.85 50.95 L506.88 50.85 L506.91 50.66 L506.91 50.49 L506.82 50.29 L506.8 50.11 L506.81 49.97 L506.84 49.81 L506.89 49.66 L506.97 49.55 L507.17 49.46 L507.96 49.38 L508.01 49.33 L508.07 49.3 L508.14 49.29 L508.2 49.38 L508.27 49.44 L508.7 49.55 L508.83 49.55 L508.77 49.46 L508.87 49.47 L508.96 49.49 L509.05 49.55 L509.12 49.63 L508.95 49.63 L508.95 49.72 L509.3 49.98 L509.65 50.05 L509.74 50.11 L509.93 50.31 L510.12 50.4 L510.58 50.41 L510.41 50.3 L510.06 50.23 L509.91 50.11 L509.65 49.8 L509.35 49.55 L509.06 49.37 L508.89 49.31 L508.69 49.29 L508.61 49.26 L508.5 49.14 L508.17 49.05 L507 49.13 L506.73 49.29 L506.67 49.39 L506.64 49.47 L506.59 49.55 L506.51 49.63 L506.25 49.7 L506.05 49.9 L505.89 49.97 L505.73 49.96 L505.57 49.9 L505.45 49.79 L505.24 49.54 L505.1 49.46 L504.96 49.45 L504.88 49.45 L504.82 49.46 L504.75 49.52 L504.72 49.61 L504.7 49.68 L504.7 49.72 L504.45 49.71 L503.65 49.29 L503.65 49.21 L503.85 49.24 L504.21 49.41 L504.41 49.38 L504.55 49.21 L504.47 49.04 L504.3 48.87 L504.17 48.69 L504.11 48.73 L504.08 48.74 L504.06 48.77 L504.1 48.86 L504.1 48.91 L504.06 49.04 L503.99 49.04 L503.98 48.67 L503.88 48.48 L503.53 48.25 L504.21 47.84 L504.3 47.85 L504.38 47.89 L504.53 47.91 L504.51 47.98 L504.5 47.99 L504.46 48.01 L504.53 48.09 L504.61 47.99 L504.9 47.83 L504.93 47.74 L504.8 47.72 L504.59 47.71 L504.45 47.66 L504.53 47.48 L504.39 47.38 L504.21 47.36 L504.1 47.3 L504.17 47.06 L504.05 46.89 L504.15 46.81 L504.68 46.78 L504.99 46.69 L505.17 46.71 L505.03 46.67 L504.8 46.71 L504.64 46.71 L503.99 46.45 L503.86 46.43 L503.75 46.44 L503.47 46.53 L503.15 46.53 L503.08 46.56 L503.03 46.61 L502.97 46.61 L502.89 46.53 L503.02 46.51 L503.16 46.42 L503.29 46.27 L503.36 46.1 L503.22 46.23 L503.1 46.25 L502.98 46.24 L502.83 46.28 L502.9 46.29 L502.96 46.32 L502.99 46.36 L503.01 46.45 L502.79 46.45 L502.69 46.43 L502.6 46.36 L502.59 46.66 L502.47 46.73 L502.19 46.63 L502.05 46.64 L501.61 46.79 L501.44 46.81 L501.31 46.79 L501.2 46.74 L501.09 46.63 L501.07 46.58 L500.94 46.33 L500.91 46.32 L500.87 46.25 L500.79 46.21 L500.7 46.2 L500.67 46.18 L500.68 46.17 L500.68 46.1 L500.53 46.05 L500.67 45.94 L500.9 45.94 L501.03 46.2 L501.09 46.2 L501.14 46.13 L501.18 46.1 L501.24 46.12 L501.32 46.2 L501.33 46.12 L501.38 45.93 L501.51 46.09 L501.73 46.16 L501.96 46.14 L502.14 46.02 L502.07 45.93 L502.41 45.47 L502.45 45.23 L502.25 44.99 L502.25 45.06 L502.34 45.15 L502.35 45.23 L502.3 45.29 L502.19 45.32 L502.31 45.41 L502.27 45.47 L502.24 45.5 L502.14 45.5 L502.09 45.43 L501.67 45.16 L501.85 45.18 L502.02 45.24 L501.92 45.1 L501.81 45.03 L501.55 44.99 L501.67 45.06 L501.49 45.15 L501.05 45.19 L500.97 45.28 L500.89 45.43 L500.72 45.51 L500.44 45.58 L500.44 45.5 L500.5 45.5 L500.5 45.41 L500.39 45.43 L500.36 45.45 L500.33 45.5 L500.27 45.5 L500.24 45.35 L500.23 45.22 L500.26 45.12 L500.33 45.06 L500.21 45.06 L500.12 44.99 L500.06 44.88 L500.04 44.72 L499.97 44.72 L499.99 44.82 L500.03 44.98 L500.04 45.06 L500.04 45.36 L500.07 45.49 L500.14 45.63 L500.24 45.76 L500.33 45.85 L500.31 45.93 L500.29 45.97 L500.27 46.02 L500.25 45.97 L500.16 45.85 L500.09 45.9 L500.01 45.81 L499.92 45.68 L499.81 45.58 L499.86 45.75 L499.81 45.83 L499.73 45.79 L499.69 45.63 L499.66 45.43 L499.6 45.45 L499.57 45.59 L499.63 45.76 L499.5 45.75 L499.45 45.73 L499.4 45.67 L499.13 45.82 L499 45.83 L498.88 45.76 L498.93 45.73 L498.99 45.67 L498.91 45.6 L498.81 45.53 L498.71 45.54 L498.64 45.67 L498.68 45.69 L498.71 45.74 L498.76 45.76 L498.66 46.18 L498.71 46.54 L498.85 46.84 L499.04 47.06 L498.93 47.05 L498.75 47 L498.69 47.06 L498.64 47.06 L498.54 46.69 L498.52 46.58 L498.54 46.44 L498.62 46.23 L498.64 46.06 L498.62 45.77 L498.56 45.55 L498.47 45.38 L498.34 45.24 L498.26 45.19 L498.17 45.15 L498.09 45.1 L498.05 45.02 L498.07 44.86 L498.18 44.51 L498.81 44.21 L498.78 44.14 L498.76 44.07 L498.76 43.98 L498.76 43.86 L498.72 43.88 L498.62 43.92 L498.58 43.95 L498.57 43.68 L498.58 43.6 L498.52 43.6 L498.46 43.73 L498.37 43.71 L498.25 43.65 L498.12 43.68 L498.24 43.72 L498.32 43.81 L498.37 43.95 L498.41 44.12 L498.36 44.13 L498.36 44.14 L498.36 44.16 L498.34 44.21 L498.24 44.14 L498.18 44.18 L498.12 44.26 L498 44.3 L498.03 44.33 L498.12 44.47 L498 44.53 L497.96 44.64 L497.93 44.76 L497.85 44.81 L497.79 44.76 L497.53 44.47 L497.31 44.41 L496.94 44.3 L496.71 44.3 L496.87 44.23 L497.02 44.25 L497.36 44.37 L497.36 44.3 L497.22 44.21 L497.07 44.16 L496.71 44.12 L496.71 44.03 L496.79 44.02 L496.83 43.99 L496.84 43.93 L496.84 43.81 L496.86 43.76 L497.01 43.79 L497.06 43.77 L497.17 43.49 L497.25 43.34 L497.36 43.25 L497.36 43.16 L497.17 43.38 L496.94 43.6 L496.68 43.75 L496.5 43.79 L496.57 43.83 L496.62 43.89 L496.66 43.95 L496.66 44.03 L495.96 44.2 L495.84 44.17 L495.81 44.1 L495.55 43.77 L495.43 43.51 L495.34 43.4 L495.3 43.35 L495.27 43.25 L495.18 43.33 L495.04 43.33 L494.74 43.25 L494.52 43.26 L494.45 43.25 L494.38 43.21 L494.28 43.1 L494.24 43.08 L493.92 43.1 L493.76 43.04 L493.69 42.86 L493.61 42.83 L493.17 43.08 L493.05 42.96 L492.86 42.96 L492.67 43 L492.52 42.99 L492.51 42.94 L492.35 42.64 L492.29 42.57 L492.22 42.52 L492.19 42.45 L492.23 42.3 L492.16 42.3 L492.1 42.27 L492 42.21 L491.97 42.07 L491.81 41.89 L491.58 41.73 L491.36 41.69 L491.44 41.95 L491.37 42.14 L491.18 42.35 L491.01 42.3 L491.1 42.31 L491.16 42.29 L491.21 42.23 L491.24 42.12 L491.14 42.16 L491.06 42.16 L490.99 42.19 L490.95 42.3 L490.71 42.1 L490.59 42.06 L490.46 42.04 L490.35 41.98 L490.25 41.83 L490.16 41.64 L490.14 41.43 L490.05 41.58 L490.1 41.77 L490.21 41.94 L490.31 42.04 L490.31 42.12 L490.21 42.13 L490.12 42.16 L490.05 42.22 L489.96 42.3 L489.8 42.02 L489.68 42.06 L489.66 42.21 L489.78 42.3 L489.76 42.35 L489.73 42.39 L489.73 42.47 L489.96 42.47 L489.96 42.56 L489.69 42.83 L489.55 42.91 L489.35 42.97 L488.1 42.91 L488.1 42.81 L488.09 42.64 L488.1 42.56 L488.15 42.53 L488.23 42.53 L488.3 42.51 L488.34 42.43 L488.31 42.2 L488.18 41.88 L488.1 41.53 L487.97 41.3 L487.57 40.77 L486.81 40.17 L486.73 40.13 L486.61 40.2 L486.51 40.33 L486.4 40.39 L486.14 40.14 L486 40.11 L485.71 40.13 L485.07 39.95 L485.13 39.9 L485.17 39.82 L485.21 39.74 L485.26 39.65 L485.26 39.61 L485.27 39.56 L485.3 39.51 L485.33 39.51 L485.4 39.59 L485.45 39.61 L488.18 38.99 L488.67 39.14 L488.8 39.09 L488.83 39 L488.92 38.64 L488.88 38.49 L488.76 38.34 L488.73 38.25 L488.69 37.96 L488.58 37.85 L488.21 37.77 L488.15 37.72 L488.09 37.66 L488.06 37.59 L488.04 37.5 L487.82 37.58 L487.37 37.29 L487.13 37.37 L487.01 37.6 L486.89 37.89 L486.74 38.13 L486.52 38.21 L486.6 37.94 L486.64 37.85 L486.54 37.71 L486.49 37.6 L486.47 37.5 L486.51 37.35 L486.58 37.3 L486.61 37.25 L486.55 37.12 L486.45 37.09 L485.94 37.07 L485.96 36.93 L485.94 36.81 L486.03 36.75 L486.1 36.76 L486.17 36.79 L486.26 36.81 L486.37 36.77 L486.39 36.68 L486.37 36.59 L486.35 36.54 L486.5 36.15 L486.61 36.04 L486.75 36.11 L486.64 36.58 L486.88 36.69 L487.63 36.64 L487.72 36.68 L487.78 36.74 L487.84 36.79 L487.95 36.81 L488.06 36.8 L488.46 36.68 L489.03 36.64 L488.97 36.69 L488.92 36.72 L488.8 36.72 L488.97 36.79 L489.67 36.64 L489.67 36.54 L489.4 36.56 L489.3 36.51 L489.26 36.36 L489.19 36.46 L489.07 36.5 L488.96 36.45 L488.92 36.32 L488.86 36.34 L488.5 36.36 L488.57 36.25 L488.61 36.22 L488.68 36.19 L488.68 36.13 L488.72 36.08 L488.81 36.02 L488.97 35.84 L488.83 35.84 L488.63 35.98 L488.5 36.02 L488.5 35.93 L488.56 35.93 L488.56 35.84 L488.5 35.84 L488.47 35.9 L488.42 35.97 L488.39 36.02 L488.26 35.97 L487.99 36.15 L487.8 36.19 L487.83 36.14 L487.84 36.13 L487.87 36.11 L487.8 36.02 L487.73 36.09 L487.63 36.14 L487.52 36.18 L487.4 36.19 L487.4 36.11 L487.89 35.52 L487.98 35.44 L488.8 34.96 L488.64 35 L488.38 35.16 L488.21 35.22 L487.63 35.31 L487.37 35.43 L486.83 35.77 L486.42 35.87 L486.17 36 L486 36.02 L485.85 35.99 L485.56 35.87 L485.39 35.84 L485.36 35.88 L485.36 35.97 L485.35 36.07 L485.27 36.11 L484.84 36.1 L484.73 36.06 L484.65 35.93 L484.6 35.66 L484.76 35.65 L484.75 35.48 L484.6 35.14 L484.59 34.9 L484.63 34.66 L484.73 34.48 L484.89 34.43 L484.89 34.35 L484.68 34.19 L484.76 33.82 L484.97 33.43 L485.12 33.21 L485.21 33.26 L485.3 33.3 L485.24 33.21 L485.38 33.11 L485.54 33.06 L485.8 33.03 L485.96 33.08 L486.25 33.24 L486.35 33.21 L486.16 32.93 L486.09 32.76 L486.21 32.68 L486.59 32.78 L486.75 32.77 L486.52 32.68 L486.55 32.63 L486.56 32.58 L486.54 32.54 L486.47 32.49 L486.47 32.42 L487.13 32.42 L487.33 32.38 L487.61 32.25 L487.8 32.24 L487.69 32.17 L487.63 32.15 L487.63 32.06 L487.88 32.01 L488.11 31.87 L488.34 31.78 L488.56 31.79 L488.72 31.98 L488.65 32.26 L488.85 32.24 L489.11 32.08 L489.2 32.06 L489.31 32.08 L489.5 32.15 L489.61 32.15 L489.61 32.06 L489.45 32.01 L489.49 31.88 L489.64 31.73 L489.78 31.62 L489.95 31.56 L490.14 31.52 L490.34 31.53 L490.49 31.62 L490.54 31.55 L490.59 31.55 L490.63 31.61 L490.66 31.7 L490.72 31.7 L490.77 31.64 L490.81 31.57 L490.81 31.47 L490.78 31.35 L490.9 31.33 L491 31.29 L491.18 31.18 L491.48 31.09 L491.53 31.13 L491.51 31.25 L491.48 31.34 L491.49 31.41 L491.59 31.45 L491.59 31.53 L491.53 31.53 L491.53 31.62 L491.62 31.68 L491.68 31.78 L491.69 31.9 L491.64 32.06 L491.88 31.82 L492.01 31.75 L492.18 31.79 L492.09 31.87 L492.06 31.89 L492.06 31.97 L492.16 32.11 L492.41 32.27 L492.52 32.42 L492.58 32.33 L492.52 32.24 L492.58 32.15 L492.54 32.07 L492.51 31.97 L492.47 31.7 L492.52 31.7 L492.55 31.78 L492.57 31.82 L492.64 31.89 L492.62 31.66 L492.64 31.42 L492.71 31.27 L492.82 31.35 L492.85 31.29 L492.87 31.23 L492.88 31.16 L492.87 31.08 L492.98 31.24 L493.14 31.29 L493.54 31.27 L493.63 31.3 L493.83 31.48 L493.92 31.53 L494.03 31.53 L494.33 31.45 L494.33 31.67 L494.54 31.73 L494.79 31.73 L494.91 31.66 L494.83 31.37 L494.79 31.17 L494.83 31.08 L495.27 31 L495.15 30.92 L494.85 30.55 L494.82 30.34 L494.9 30.23 L495.15 30.12 L495.33 29.79 L495.38 29.68 L495.43 29.68 L495.51 29.74 L495.78 29.76 L496.07 29.93 L496.19 29.94 L496.14 29.98 L496.12 30.02 L496.11 30.06 L496.08 30.12 L496.28 30.14 L496.38 30.13 L496.46 30.08 L496.54 29.97 L496.6 29.93 L497.32 29.66 L497.42 29.58 L497.47 29.58 L497.55 29.6 L497.81 29.29 L497.94 29.32 L498 29.51 L497.99 29.76 L497.93 29.99 L497.82 30.12 L497.83 30.18 L497.84 30.21 L497.88 30.3 L497.92 30.13 L497.99 30.01 L498.24 29.69 L498.45 29.51 L498.52 29.42 L498.61 29.46 L498.77 29.26 L498.88 29.23 L498.98 29.3 L499.04 29.42 L499.05 29.55 L498.99 29.68 L498.99 29.76 L499.1 29.86 L499.04 29.96 L498.93 30.3 L498.87 30.4 L498.69 30.64 L498.69 30.74 L498.76 30.74 L499.04 30.16 L499.2 29.91 L499.34 29.94 L499.43 29.87 L499.52 29.85 L499.6 29.87 L499.69 29.94 L499.63 30.03 L499.66 30.04 L499.68 30.04 L499.69 30.06 L499.69 30.12 L499.61 30.15 L499.54 30.18 L499.4 30.3 L499.4 30.38 L499.51 30.47 L499.73 30.56 L500.16 30.58 L500.33 30.64 L500.32 30.75 L500.32 30.83 L500.33 30.91 L500.25 30.98 L500.21 31 L500.21 31.08 L500.34 31.16 L500.49 31.3 L500.62 31.45 L500.68 31.58 L501.23 32.06 L501.31 32.44 L501.35 32.54 L501.36 32.61 L501.34 32.67 L501.32 32.73 L501.35 32.81 L501.39 32.85 L501.5 32.91 L501.71 33.06 L502.19 33.3 L502.17 33.42 L502.13 33.51 L502.08 33.58 L502.02 33.64 L502.12 33.65 L502.2 33.69 L502.27 33.77 L502.34 33.87 L502.46 33.96 L502.48 33.84 L502.48 33.66 L502.51 33.56 L502.85 33.58 L502.99 33.52 L503.15 33.34 L503.35 33.02 L503.42 32.94 L503.51 32.87 L503.66 32.82 L504.23 32.46 L504.35 32.33 L504.35 32.24 L504.28 32.23 L504.12 32.15 L504.49 32.04 L504.68 32.06 L504.75 32.24 L504.98 32.15 L505.23 31.98 L505.45 31.76 L505.57 31.53 L505.6 31.68 L505.66 31.77 L505.75 31.81 L505.86 31.79 L505.86 31.89 L505.8 31.94 L505.76 32.01 L505.73 32.08 L505.69 32.15 L505.45 32.42 L505.6 32.54 L505.76 32.43 L505.93 32.25 L506.13 32.15 L506.17 32.22 L506.21 32.52 L506.24 32.59 L506.34 32.64 L506.4 32.75 L506.43 32.89 L506.44 33.03 L506.54 32.98 L506.6 32.88 L506.63 32.75 L506.62 32.59 L506.66 32.78 L506.7 32.94 L506.78 33.02 L506.91 32.94 L506.91 32.85 L506.87 32.84 L506.8 32.77 L506.89 32.63 L506.99 32.55 L507.09 32.57 L507.2 32.68 L507.14 32.6 L507.1 32.51 L507.03 32.33 L507.41 32.19 L507.81 32.15 L507.84 32.21 L508.01 32.54 L508.03 32.68 L508.07 32.81 L508.15 32.9 L508.25 32.94 L508.22 33.07 L508.19 33.12 L508.41 33.45 L508.46 33.62 L508.43 33.91 L508.51 33.81 L508.77 33.64 L508.54 33.48 L508.58 33.38 L508.46 33.15 L508.43 32.94 L508.48 32.94 L508.52 33 L508.55 33.04 L508.66 33.12 L508.6 32.97 L508.52 32.89 L508.43 32.86 L508.33 32.85 L508.25 32.78 L508.1 32.4 L508.01 32.24 L508.04 32.14 L508.1 32.02 L508.2 31.93 L508.33 31.89 L508.36 31.85 L508.36 31.76 L508.38 31.67 L508.45 31.62 L508.77 31.62 L508.72 31.53 L509.59 31.35 L509.56 31.41 L509.56 31.47 L509.59 31.53 L509.65 31.62 L509.44 31.97 L509.44 32.27 L509.63 32.49 L509.99 32.59 L510.61 32.6 L511.29 32.49 L511.7 32.27 L511.75 32.26 L511.83 32.24 L512.5 32.33 L513.42 32.12 L513.73 32.24 L513.59 32.02 L513.4 31.92 L513.08 31.89 L513.08 31.92 L513.04 31.97 L512.99 31.99 L512.97 31.93 L512.96 31.85 L512.93 31.77 L512.88 31.72 L512.59 31.64 L512.49 31.57 L512.44 31.49 L512.37 31.19 L512.05 30.9 L511.98 30.6 L511.98 30.24 L511.94 29.93 L511.84 29.73 L511.63 29.68 L511.63 29.58 L511.75 29.53 L511.84 29.41 L511.9 29.26 L511.97 28.64 L512.02 28.51 L512.1 28.62 L512.14 28.47 L512.15 28.36 L512.11 28.29 L512.01 28.26 L511.97 28.18 L512.06 27.43 L512.12 27.24 L512.23 27.18 L512.44 27.28 L512.44 27.2 L512.28 27.12 L512.09 27.12 L511.93 27.21 L511.86 27.41 L511.83 27.46 L511.77 27.39 L511.71 27.26 L511.69 27.15 L511.69 26.84 L511.71 26.7 L511.75 26.57 L511.63 26.55 L511.58 26.45 L511.59 26.3 L511.63 26.13 L511.69 25.97 L511.75 25.89 L511.92 25.77 L511.81 25.69 L511.79 25.71 L511.75 25.77 L511.68 25.57 L511.62 25.32 L511.58 25.07 L511.57 24.83 L511.64 24.71 L511.79 24.7 L512.1 24.79 L512.1 24.71 L511.92 24.65 L511.7 24.55 L511.52 24.54 L511.45 24.79 L511.31 24.63 L511.17 24.15 L511.05 24 L511.1 23.94 L511.13 23.92 L511.16 23.9 L510.92 23.7 L510.82 23.56 L510.75 23.36 L510.93 23.36 L510.93 23.28 L510.82 23.01 L510.75 23.01 L510.68 23.23 L510.53 23.13 L510.34 22.92 L510.17 22.82 L510.19 22.73 L510.2 22.69 L510.23 22.64 L510.11 22.67 L510 22.72 L509.9 22.73 L509.82 22.64 L509.79 22.47 L509.82 22.03 L509.82 21.84 L509.79 21.75 L509.76 21.67 L509.63 21.44 L509.62 21.38 L509.62 21.31 L509.59 21.21 L509.5 21.07 L509.28 20.8 L509.24 20.72 L509.29 20.54 L509.53 20.32 L509.59 20.18 L509.63 19.77 L509.62 19.55 L509.56 19.37 L509.49 19.22 L509.44 19.1 L509.37 19 L509.1 18.95 L508.72 18.79 L508.79 18.48 L508.77 18.28 L508.81 18.18 L509.04 18.15 L509.12 18.18 L509.29 18.31 L509.39 18.33 L509.62 18.3 L509.71 18.33 L509.75 18.39 L509.78 18.55 L509.82 18.61 L509.86 18.62 L509.95 18.61 L509.99 18.61 L510.18 18.68 L510.74 18.76 L511.38 18.98 L511.51 18.97 L511.52 19 L511.52 19.07 L511.54 19.13 L511.6 19.16 L511.68 19.13 L511.8 19 L511.89 18.97 L511.99 18.99 L512.17 19.06 L512.27 19.06 L512.41 18.99 L512.54 18.87 L512.76 18.57 L512.89 18.47 L513.28 18.35 L513.43 18.33 L514.45 18.52 L514.52 18.56 L514.56 18.65 L514.6 18.87 L514.78 19.27 L514.82 19.5 L514.61 19.65 L514.57 19.78 L514.55 19.9 L514.51 19.95 L514.33 19.96 L514.25 19.99 L514.2 20.05 L514.16 20.36 L514.26 20.62 L514.41 20.85 L514.54 21.21 L515.18 22.03 L515.27 22.23 L515.29 22.52 L515.28 22.66 L515.24 22.76 L515.2 22.83 L515.18 22.87 L515.21 23 L515.28 22.99 L515.37 22.93 L515.47 22.92 L515.56 23 L515.62 23.09 L515.71 23.14 L515.88 23.1 L515.88 23.01 L515.79 22.88 L515.85 22.7 L516 22.54 L516.14 22.47 L517.26 22.53 L518.27 22.92 L519.73 23.01 L520.09 23.12 L520.3 23.14 L520.61 22.97 L520.82 23.02 L521.18 23.18 L521.76 23.18 L521.91 23.24 L522.17 23.41 L522.6 23.51 L523.39 24 L523.61 23.8 L524.97 23.47 L525.37 23.28 L525.6 23.08 L525.79 23.03 L525.87 22.96 L526.07 22.64 L526.64 22.23 L527.7 21.99 L528.75 21.75 L529.14 21.55 L529.31 21.4 L529.45 21.21 L528.85 21.59 L528.14 21.69 L527.44 21.59 L526.83 21.39 L526.66 21.39 L526.51 21.37 L526.32 21.31 L526.15 21.21 L526.07 21.08 L526.05 21 L525.93 20.92 L525.9 20.81 L525.91 20.67 L525.94 20.57 L526.37 19.77 L526.71 18.61 L526.84 18.46 L527.26 18.12 L527.36 18.11 L527.44 18.03 L528.55 17.51 L528.64 17.39 L529.7 16.75 L530 16.66 L530.33 16.43 L530.99 16.19 L531.73 16.2 L535.22 15.06 L535.43 14.9 L535.64 14.82 L535.98 14.45 L537.08 13.55 L537.53 12.99 L537.63 12.91 L537.71 12.8 L537.9 12.1 L538.19 11.7 L538.48 11.66 L539.32 12.07 L539.4 12.07 L539.47 12 L539.47 11.9 L539.38 11.91 L539.33 11.89 L539.28 11.83 L539.24 11.73 L539.41 11.73 L539.41 11.63 L539.25 11.63 L539.07 11.57 L538.94 11.47 L538.89 11.32 L538.81 11.15 L538.44 10.97 L538.36 10.86 L538.37 10.43 L538.45 9.91 L538.62 9.56 L538.81 9.6 L538.95 9.63 L538.95 9.54 L538.48 9.17 L538.48 9.08 L538.63 8.63 L538.64 8 L538.68 7.46 L538.95 7.26 L538.72 6.9 L538.67 6.72 L538.63 6.09 L538.54 5.51 L538.54 5.24 L538.58 5 L538.76 4.47 L538.86 4.27 L538.91 4.01 L538.85 3.7 L538.71 3.21 L538.69 3.02 L538.69 2.95 L538.9 2.79 L538.97 2.76 L539.15 2.74 L539.31 2.68 L539.45 2.53 L539.7 2.19 L539.96 1.94 L541.59 1.23 L541.74 1.26 L542.03 1.09 L543.4 0.91 L544.85 0.43 L544.94 0.39 L545.02 0.37 L545.52 0.44 L546.22 0.25 L546.56 0.09 L546.69 0 Z M542.12 107.62 L542.14 107.62 L542.22 107.6 L542.25 107.59 L542.16 107.42 L542.07 107.23 L541.99 107.11 L541.89 107.15 L541.8 107.36 L541.81 107.5 L541.92 107.59 Z M8.39 382.49 L8.29 382.54 L8.19 382.8 L8.1 382.91 L8 382.96 L7.88 382.97 L7.78 382.92 L7.74 382.79 L7.79 382.7 L7.89 382.67 L7.97 382.63 L7.98 382.49 L7.9 382.37 L7.78 382.42 L7.65 382.5 L7.51 382.49 L7.52 382.4 L7.46 382.39 L7.23 382.43 L6.73 382.37 L6.6 382.39 L6.39 382.47 L6.26 382.49 L6.19 382.45 L6 382.19 L6.01 382.12 L6 382.09 L5.96 382.06 L5.88 382.01 L6.11 381.77 L6.34 381.66 L6.41 381.59 L6.5 381.72 L6.63 381.76 L6.75 381.72 L6.82 381.59 L6.79 381.53 L6.72 381.44 L6.66 381.32 L6.64 381.17 L6.51 381.21 L6.41 381.23 L6.32 381.24 L6.23 381.23 L6.05 381.24 L6 381.23 L5.97 381.19 L5.91 381.09 L5.88 381.05 L5.58 380.84 L5.43 380.69 L5.36 380.54 L5.35 380.48 L5.33 380.43 L5.31 380.39 L5.27 380.35 L5.24 380.29 L5.25 380.23 L5.28 380.17 L5.3 380.11 L5.28 380.01 L5.23 379.91 L5.16 379.82 L4.92 379.56 L4.86 379.46 L4.84 379.33 L4.86 379.21 L4.92 379.12 L4.99 379.05 L5.33 378.85 L5.63 378.85 L5.91 378.94 L6.29 379.18 L6.62 379.33 L6.76 379.42 L6.8 379.49 L6.82 379.57 L6.86 379.63 L6.96 379.66 L7.11 379.96 L7.23 379.86 L7.41 379.78 L7.6 379.73 L7.81 379.72 L7.75 379.77 L7.7 379.81 L7.67 379.84 L7.69 379.9 L7.51 380.08 L7.41 379.92 L7.34 379.96 L7.32 380.13 L7.34 380.32 L7.41 380.29 L7.47 380.3 L7.52 380.33 L7.57 380.38 L7.34 380.5 L7.4 380.57 L7.3 380.62 L7.31 380.7 L7.39 380.72 L7.46 380.62 L7.74 380.75 L7.68 380.76 L7.65 380.77 L7.62 380.79 L7.57 380.81 L7.62 380.94 L7.69 381.01 L7.86 381.11 L7.88 381.16 L7.9 381.22 L7.93 381.27 L8.01 381.29 L8.07 381.32 L8.1 381.38 L8.1 381.46 L8.1 381.53 L8.21 381.47 L8.18 381.58 L8.17 381.7 L8.2 381.8 L8.27 381.89 L8.22 381.92 L8.2 381.95 L8.18 381.97 L8.16 382.01 L8.27 382.07 L8.31 382.19 L8.34 382.33 L8.39 382.43 Z M5.13 369.55 L5.13 369.66 L5.1 369.74 L5.05 369.8 L4.95 369.88 L4.74 369.99 L4.44 370.06 L4.19 370.02 L4.08 369.79 L4.07 369.73 L4.05 369.66 L4.02 369.6 L3.99 369.58 L3.96 369.55 L4 369.48 L4.08 369.36 L4.1 369.24 L4.16 369.14 L4.31 368.97 L4.5 368.86 L4.71 368.91 L4.88 369.06 L4.98 369.31 L5.04 369.36 L5.1 369.43 Z M6.87 365.88 L6.44 366.17 L6.2 366.27 L6 366.24 L6.11 366.18 L6.45 365.9 L6.65 365.81 Z M2.09 366.42 L2.11 366.46 L2.06 366.66 L2.12 366.84 L2.07 366.85 L1.91 366.89 L1.86 366.98 L1.87 367.39 L1.98 367.7 L2.04 368.18 L1.97 368.65 L1.7 368.97 L1.31 369.21 L0.87 369.39 L0.86 369.34 L0.81 369.21 L0.87 369.15 L0.81 369.03 L0.74 368.97 L0.65 368.91 L0.55 368.82 L0.49 368.72 L0.46 368.62 L0.43 368.53 L0.35 368.48 L0.25 368.17 L0.24 367.47 L0.12 367.15 L0.16 367.02 L0.12 366.92 L0.05 366.82 L0 366.73 L0 366.57 L0.03 366.3 L0 366.18 L0.09 366.11 L0.23 365.86 L0.35 365.75 L0.51 365.71 L0.59 365.76 L0.64 365.84 L0.73 365.88 L0.94 365.92 L1.26 366.03 L1.55 366.19 L1.69 366.36 L1.57 366.42 L1.64 366.45 L1.65 366.46 L1.66 366.45 L1.69 366.42 L1.72 366.45 L1.81 366.54 L1.85 366.45 L1.93 366.38 L2.04 366.36 Z M2.16 366.42 L2.16 366.42 L2.16 366.42 L2.3 365.96 L2.38 365.86 L2.53 365.82 L2.56 365.79 L2.57 365.71 L2.57 365.63 L2.56 365.57 L2.53 365.53 L2.47 365.49 L2.4 365.47 L2.33 365.45 L2.28 365.13 L2.24 365.05 L2.24 364.97 L2.31 364.85 L2.45 364.69 L2.48 364.63 L2.56 364.57 L2.83 364.43 L2.85 364.4 L2.88 364.41 L3.15 364.61 L3.3 364.76 L3.4 364.94 L3.44 365.18 L3.42 365.41 L3.43 365.5 L3.5 365.64 L3.58 365.76 L3.67 365.86 L3.78 365.93 L3.9 366 L3.96 365.93 L4.05 365.98 L4.13 365.99 L4.22 365.98 L4.31 366 L4.4 366.05 L4.58 366.21 L4.63 366.24 L4.72 366.29 L5.18 366.61 L5.34 366.66 L5.39 366.71 L5.3 366.79 L5.22 366.78 L4.99 366.73 L4.92 366.7 L4.79 366.66 L3.29 367 L3 367.13 L2.85 367.15 L2.67 367.12 L2.5 367.06 L2.36 366.97 L2.24 366.88 L2.16 366.77 L2.12 366.66 L2.12 366.55 Z M999.43 690.31 L999.55 690.39 L999.86 690.52 L999.96 690.62 L1000 690.8 L999.95 690.95 L999.88 691.11 L999.74 691.78 L999.72 691.97 L999.73 692.14 L999.71 692.33 L999.64 692.49 L999.46 692.56 L999.16 692.55 L999.01 692.57 L998.74 692.72 L998.54 692.75 L998.35 692.74 L998.21 692.68 L998.06 692.74 L997.85 692.75 L997.62 692.72 L997.45 692.68 L997.3 692.61 L997.03 692.41 L996.78 692.35 L996.43 692.21 L996.29 692.12 L996.22 692.04 L996.17 691.96 L996.12 691.9 L996.03 691.87 L995.75 691.87 L995.71 691.84 L995.65 691.72 L995.35 691.37 L995.25 691.19 L995.21 690.98 L995.21 690.82 L995.19 690.68 L994.83 690.2 L994.72 690 L994.65 689.81 L994.65 689.64 L994.7 689.46 L994.79 689.31 L995.08 689.19 L995.18 689.05 L995.22 688.88 L995.18 688.75 L995.23 688.7 L995.25 688.66 L995.23 688.62 L995.18 688.57 L995.31 688.51 L995.59 688.51 L995.83 688.33 L996.2 688.12 L996.61 688.11 L996.75 688.12 L997 688.22 L997.11 688.23 L997.22 688.19 L997.35 688.23 L997.65 688.23 L997.77 688.28 L997.89 688.35 L998.27 688.44 L998.38 688.51 L998.46 688.58 L998.65 688.78 L998.71 688.91 L998.74 689.21 L998.79 689.31 L999 689.53 L999.03 689.59 L999.04 689.77 L999.06 689.87 L999.08 689.94 L999.14 689.98 L999.29 690.04 L999.32 690.09 L999.33 690.13 Z M909.97 616.13 L910.1 616 L910.14 615.96 L910.2 616.1 L910.21 616.23 L910.19 616.35 L910.14 616.5 L910.08 616.5 Z M909.45 615.78 L909.59 615.88 L909.65 615.98 L909.65 616.1 L909.62 616.26 L909.41 616.56 L909.34 616.6 L909.35 616.7 L909.4 616.81 L909.55 616.9 L909.53 617.02 L909.48 617.14 L909.45 617.19 L909.37 617.37 L909.23 617.53 L909.17 617.71 L909.32 617.93 L909.29 617.99 L909.25 618.03 L909.21 618.07 L909.15 618.1 L909.1 618.01 L909.04 618.02 L908.97 618.07 L908.86 618.1 L908.77 618.08 L908.7 618.03 L908.65 618.01 L908.57 618.04 L908.58 617.92 L908.54 617.83 L908.46 617.79 L908.34 617.8 L908.34 617.75 L908.49 617.68 L908.51 617.53 L908.43 617.4 L908.27 617.31 L908.3 617.27 L908.36 617.22 L908.45 617.21 L908.51 617.25 L908.66 617.43 L908.8 617.51 L908.88 617.47 L908.9 617.36 L908.86 617.21 L908.79 617.11 L908.7 617.01 L908.45 616.79 L908.57 616.74 L908.63 616.74 L908.63 616.68 L908.58 616.61 L908.54 616.48 L908.51 616.23 L908.48 616.1 L908.41 616.05 L908.31 616.02 L908.22 615.96 L908.16 615.88 L908.12 615.8 L908.11 615.7 L908.1 615.57 L908.51 615.12 L908.55 615.18 L908.56 615.2 L908.57 615.24 L908.53 615.25 L908.51 615.26 L908.45 615.3 L908.51 615.29 L908.54 615.31 L908.55 615.34 L908.57 615.36 L908.68 615.46 L908.84 615.65 L908.92 615.71 L909.04 615.74 L909.3 615.74 Z M605.64 105.24 L605.85 105.56 L605.81 105.56 L605.81 105.57 Z M598.06 110.29 L598.13 110.16 L598.06 110.1 L597.95 110.06 L597.89 110.02 L597.93 109.91 L598.01 109.88 L598.24 109.89 L598.3 109.86 L598.37 109.81 L598.45 109.77 L598.79 109.7 L598.9 109.65 L598.99 109.58 L599.04 109.56 L599.08 109.57 L599.1 109.55 L599.11 109.46 L598.98 109.36 L598.97 109.35 L598.65 109.19 L598.63 109.14 L598.61 109.07 L598.57 109.02 L598.45 109.13 L598.4 109.12 L598.37 109.07 L598.35 108.99 L598.4 108.95 L598.65 108.8 L598.46 108.64 L598.28 108.66 L597.95 108.8 L598.01 108.71 L597.96 108.61 L597.93 108.49 L597.92 108.36 L597.95 108.25 L598.02 108.31 L598.1 108.3 L598.18 108.26 L598.24 108.17 L598.34 108.24 L598.38 108.19 L598.38 108.09 L598.42 108.01 L598.46 107.96 L598.47 107.91 L598.51 107.87 L598.79 107.83 L598.86 107.75 L598.88 107.64 L598.88 107.5 L598.97 107.35 L599.01 107.26 L598.97 107.22 L598.86 107.21 L598.84 107.17 L598.86 107.12 L598.93 106.83 L599.04 106.7 L599.18 106.63 L599.35 106.59 L599.3 106.48 L599.34 106.23 L599.28 106.11 L599.28 106.03 L599.35 106.06 L599.37 106.07 L599.38 106.09 L599.4 106.19 L599.54 106.11 L599.64 106.15 L599.71 106.23 L599.81 106.27 L599.94 106.23 L600.04 106.11 L600.12 105.96 L600.16 105.79 L600.1 105.71 L600.42 105.7 L600.96 105.41 L601.91 105.21 L602.18 105.07 L602.21 104.85 L602.66 104.33 L602.76 104.26 L602.96 104.23 L603.16 104.23 L603.25 104.25 L603.33 104.25 L603.77 104.37 L603.95 104.47 L604 104.53 L604.06 104.61 L604.1 104.7 L604.18 104.92 L604.24 104.92 L604.54 104.4 L604.67 104.06 L604.59 103.81 L604.65 103.59 L604.61 103.39 L604.49 103.2 L604.35 103.02 L604.59 102.7 L604.58 102.6 L604.53 102.49 L604.53 102.39 L604.56 102.27 L604.62 102.2 L604.82 101.98 L604.79 101.93 L604.78 101.89 L604.79 101.84 L604.82 101.75 L604.73 101.65 L604.67 101.47 L604.66 101.26 L604.7 101.11 L604.84 101.02 L605.19 101.02 L605.34 100.95 L605.46 101.11 L605.53 101.18 L605.7 101.27 L605.7 101.36 L605.63 101.45 L605.61 101.58 L605.65 101.71 L605.75 101.82 L605.71 102.04 L605.87 103.1 L605.86 103.45 L605.58 104.53 L605.59 104.67 L605.57 104.83 L605.58 105.17 L605.57 105.2 L605.55 105.23 L605.52 105.27 L605.52 105.32 L605.54 105.35 L605.58 105.38 L605.62 105.39 L605.64 105.39 L605.66 105.49 L605.68 105.56 L605.68 105.62 L605.64 105.71 L605.7 105.77 L605.73 105.85 L605.76 105.94 L605.81 106.03 L605.88 106.08 L606.11 106.19 L606.08 106.02 L606.04 105.94 L605.92 105.64 L606.16 106.01 L606.24 106.21 L606.28 106.43 L606.26 107.1 L606.29 107.45 L606.39 107.69 L606.34 107.84 L606.31 108 L606.28 108.18 L606.28 108.4 L606.32 108.63 L606.48 109.08 L606.51 109.31 L606.45 110.73 L606.51 111.01 L606.49 111.1 L606.47 111.3 L606.45 111.39 L606.39 111.49 L606.16 111.71 L606.07 111.86 L605.94 112.14 L605.36 112.99 L605.23 113.12 L605.18 113.22 L605.18 113.63 L605.11 114.42 L605.18 115.2 L605.17 116.03 L605.14 116.09 L605.08 116.12 L604.99 116.19 L604.92 116.29 L604.87 116.4 L604.99 116.4 L604.97 116.6 L604.93 116.73 L604.85 116.79 L604.76 116.78 L604.69 116.79 L604.66 116.85 L604.7 117.02 L604.59 116.97 L604.46 116.94 L604.34 116.93 L604.24 116.94 L604.25 117.04 L604.17 117.16 L604.12 117.26 L604.24 117.34 L604.52 117.22 L604.69 117.19 L604.76 117.3 L604.73 117.46 L604.65 117.59 L604.53 117.69 L604.38 117.72 L604.3 117.77 L604.24 117.89 L604.15 118 L604 118.03 L604.04 118.11 L604.05 118.19 L604.04 118.27 L604 118.35 L604.1 118.39 L604.13 118.47 L604.09 118.57 L604 118.65 L604.06 118.73 L603.92 118.79 L603.69 118.95 L603.55 118.97 L603.55 119.05 L603.63 119.12 L603.65 119.2 L603.62 119.29 L603.55 119.36 L603.55 119.43 L603.64 119.39 L603.78 119.26 L603.88 119.2 L603.85 119.37 L603.78 119.56 L603.71 119.73 L603.65 119.83 L603.51 119.9 L603.4 119.86 L603.19 119.67 L603.06 119.61 L602.79 119.57 L602.57 119.47 L602.67 119.18 L602.71 119.14 L602.79 119.12 L602.65 119 L602.44 118.91 L602.32 118.81 L602.43 118.65 L602.43 118.58 L602.33 118.61 L602.08 118.81 L602.03 118.73 L602.05 118.71 L602.06 118.7 L602.07 118.69 L602.08 118.65 L601.99 118.68 L601.96 118.7 L601.91 118.73 L601.85 118.65 L601.76 118.57 L601.55 118.5 L601.34 118.47 L601.21 118.5 L601.12 118.44 L601.05 118.36 L600.96 118.3 L600.77 118.25 L600.74 118.21 L600.73 118.16 L600.68 118.11 L600.6 118.09 L600.53 118.09 L600.47 118.08 L600.39 118.03 L600.51 117.95 L600.51 117.88 L600.4 117.84 L600.34 117.8 L600.26 117.81 L600.14 117.78 L600.03 117.73 L599.98 117.68 L600.02 117.47 L600 117.39 L599.87 117.34 L599.93 117.19 L599.99 116.96 L600.07 116.8 L600.22 116.87 L600.67 116.66 L600.74 116.59 L600.78 116.44 L600.88 116.36 L601 116.29 L601.1 116.17 L600.9 116.16 L600.36 116 L600.16 116 L599.96 115.96 L599.85 115.85 L599.93 115.62 L599.72 115.62 L599.37 115.76 L599.17 115.77 L599.19 115.73 L599.23 115.62 L599.11 115.63 L599.02 115.6 L598.93 115.57 L598.82 115.54 L598.93 115.48 L599.17 115.44 L599.28 115.38 L599.35 115.29 L599.39 115.17 L599.38 115.06 L599.28 115 L599.28 114.92 L599.48 114.91 L599.65 114.86 L599.93 114.69 L599.89 114.58 L599.82 114.51 L599.73 114.46 L599.64 114.45 L599.92 114.36 L599.98 114.29 L599.96 114.27 L599.93 114.19 L599.9 114.13 L599.87 114.14 L599.97 113.98 L599.98 113.97 L600.01 113.92 L600.08 113.82 L600.1 113.75 L600.08 113.74 L599.98 113.67 L599.94 113.57 L599.9 113.5 L599.84 113.46 L599.75 113.43 L599.58 113.45 L599.29 113.61 L599.11 113.67 L598.76 113.69 L598.61 113.73 L598.48 113.82 L598.42 113.67 L598.51 113.48 L598.48 113.32 L598.24 113.04 L598.66 113 L598.82 112.93 L598.94 112.73 L598.83 112.65 L598.9 112.52 L599.07 112.39 L599.26 112.33 L599.3 112.3 L599.53 112.18 L599.57 112.18 L599.59 112.04 L599.54 111.96 L599.4 111.86 L599.26 111.53 L599.2 111.43 L599.11 111.41 L598.87 111.48 L598.82 111.43 L598.76 111.29 L598.61 111.19 L598.41 111.15 L598.24 111.15 L598.28 111.05 L598.3 111.01 L598.24 110.95 L598.17 110.92 L598.09 110.91 L598.01 110.92 L598.1 110.9 L598.17 110.87 L598.3 110.77 L598.3 110.68 L598.06 110.68 L598.06 110.61 L598.16 110.57 L598.2 110.46 L598.17 110.34 Z M514.89 66.08 L514.85 66.19 L514.94 66.27 L515.18 66.42 L515.25 66.53 L515.26 66.63 L515.19 67.15 L515.1 67.47 L514.98 67.66 L514.83 67.59 L514.71 67.17 L514.64 67.01 L514.55 66.84 L514.05 66.27 L513.87 66.14 L513.68 65.92 L513.54 65.69 L513.58 65.58 L513.6 65.45 L513.5 65.17 L513.32 64.74 L513.58 64.78 L513.87 64.93 L514.13 65.14 L514.33 65.37 L514.43 65.42 L514.54 65.38 L514.65 65.37 L514.77 65.49 L514.81 65.65 L514.79 65.78 L514.8 65.9 L514.89 65.99 Z M514.37 63.48 L514.33 63.43 L514.29 63.42 L513.9 63.34 L513.08 62.81 L512.6 62.9 L512.47 62.85 L512.13 62.45 L512.03 62.38 L512.03 62.3 L512.52 62.18 L512.68 62.21 L512.74 62.26 L512.78 62.33 L512.79 62.4 L512.73 62.47 L512.53 62.39 L512.44 62.38 L512.59 62.64 L512.81 62.63 L513.06 62.53 L513.26 62.47 L513.26 62.56 L513.14 62.56 L513.14 62.65 L513.28 62.72 L514.14 62.86 L514.34 62.98 L514.5 63.17 L514.6 63.4 L514.52 63.41 L514.46 63.43 Z M505.39 56.38 L505.72 56.52 L505.88 56.65 L505.97 56.8 L505.78 56.73 L505.1 56.72 L505 56.49 L505.07 56.38 L505.23 56.35 Z M506.56 53.23 L506.65 53.33 L506.93 53.48 L507.03 53.57 L507.07 53.75 L507.09 54 L507.05 54.17 L506.91 54.08 L506.78 53.8 L506.6 53.52 L506.39 53.37 L506.16 53.49 L506.02 53.3 L505.89 52.82 L505.75 52.63 L506.23 52.6 L506.39 52.63 L506.56 52.74 L506.58 52.88 L506.55 53.05 Z M498.78 48.9 L498.89 48.95 L499.14 48.94 L499.23 49.04 L499.19 49.27 L498.96 49.34 L498.3 49.27 L497.86 49.14 L497.71 49.04 L497.74 48.84 L497.67 48.63 L497.58 48.43 L497.53 48.25 L497.6 48.18 L497.64 48.1 L497.69 48.1 L497.77 48.17 L497.88 48.2 L498.26 48.4 L498.47 48.57 L498.49 48.6 Z M482.33 34.35 L482.35 34.38 L482.37 34.42 L482.39 34.44 L482.45 34.43 L482.45 34.53 L482.01 34.76 L481.86 34.79 L481.86 34.7 L481.89 34.7 L481.95 34.71 L481.98 34.7 L481.93 34.58 L481.85 34.55 L481.63 34.61 L481.63 34.53 L481.98 34.33 L482.17 34.27 Z M1.47 370.08 L1.5 370.11 L1.54 370.18 L1.52 370.25 L1.45 370.3 L1.36 370.24 L1.39 370.13 Z M1.97 370.02 L1.97 370.03 L1.98 370.05 L1.93 370.1 L1.83 370.17 L1.74 370.2 L1.72 370.16 L1.76 370.12 L1.81 370.09 L1.85 370 L1.9 369.98 L1.95 370 Z M578.25 100.89 L578.31 100.86 L578.39 100.95 L578.4 101.12 L578.21 101.21 L578.1 101.27 L577.98 101.3 L577.87 101.27 L577.67 101.16 L577.66 101.1 L577.74 101.05 L577.98 101.06 L578.05 101.02 L578.08 100.98 L578.11 100.98 L578.13 100.98 L578.24 100.97 Z "/>
</g>
</svg>
