<svg xmlns="http://www.w3.org/2000/svg" viewBox="0 0 1000 1061.78">
<g fill="#ccc" stroke="#333" stroke-width="0.5" stroke-linejoin="round">
<path fill-rule="evenodd" d="M937.59 745.73 L937.09 746.04 L936.57 746.29 L937.71 745.14 L937.69 745.3 Z M926.8 715.18 L926.34 714.93 L925.85 714.88 L925.38 715.02 L924.96 715.35 L925.39 714.74 L926.07 714.52 L926.67 714.68 Z M918.02 707.98 L918.89 707.67 L919.22 708.04 L919.03 708.69 L918.34 709.23 L918.79 708.64 L918.71 708.28 L918.37 708.08 Z M913.58 708.23 L913.04 707.45 L912.8 707.21 L913.19 707.21 L913.4 707.4 L913.5 707.77 Z M908.57 706.62 L908.33 706.42 L908.17 706.2 L907.99 706.14 L907.67 706.42 L907.98 705.93 L908.36 705.93 L908.68 706.3 L908.84 706.95 L908.73 706.91 L908.69 706.82 L908.65 706.72 Z M720.78 614.12 L721.12 613.9 L721.74 614.19 L722.35 614.73 L722.67 615.32 L722.56 615.99 L722.14 616.44 L721.53 616.7 L720.86 616.81 L721.66 616.12 L722.18 615.54 L722.02 614.92 Z M782.62 599.86 L782.53 599.61 L782.48 599.36 L782.35 599.14 L781.98 598.99 L782.59 599.01 L782.95 599.33 L782.95 599.81 L782.47 600.32 Z M803.32 596.59 L802.85 596.51 L802.67 596.43 L802.53 596.24 L803.03 596.14 L803.43 596.13 L803.57 596.25 Z M677.29 591.9 L677.99 591.16 L678.77 591.37 L679.26 592.17 L679.12 593.18 L678.95 592.34 L678.48 591.83 L677.87 591.68 Z M705.07 588.13 L706.38 587.35 L707.71 588.03 L708.18 589.14 L706.91 589.63 L707.71 588.62 L707.13 588.05 L705.98 587.89 Z M803.07 568.25 L803.4 568.55 L803.49 568.72 L803.5 568.98 L801.64 567.96 L801.99 567.98 L802.35 568.04 Z M584.1 519.22 L584.67 518.38 L585.11 518.53 L585.75 519.89 L585.72 520 L585.49 519.78 L585.22 519.32 L585.08 518.74 L584.84 519.17 L584.6 519.45 L584.35 519.5 Z M198.11 509.33 L198.72 508.62 L198.87 509.19 L198.63 509.83 Z M668.49 493.24 L668.29 492.82 L667.71 492.4 L667.02 492.21 L666.28 492.2 L667.36 492 L668.15 492.37 L668.61 493.2 L668.62 493.38 L668.66 494.07 L668.67 494.38 L668.58 494.19 L668.58 494.03 Z M821.44 493.15 L820.43 493.11 L820.33 492.81 L820.31 492.65 L820.46 492.29 L821.17 491.35 L822.23 490.93 L820.77 492.26 L820.57 492.64 L820.62 492.75 L820.83 492.79 L821.13 492.89 Z M584.47 473.82 L584.01 473.47 L583.81 473.28 L583.64 473.05 L584.19 473.02 L584.73 473.22 L585.22 473.59 L585.64 474.06 L585.35 474.11 L585.07 474.08 L584.77 473.97 Z M252.8 472.89 L253.19 472.71 L253.39 472.65 L253.59 472.63 L253.38 472.91 L252.63 473.6 L252.63 473.4 L252.67 473.24 Z M30.77 462.78 L31.05 463.28 L31.35 464.03 L31.48 464.6 L31.27 464.61 L30.81 463.93 L30.3 462.25 L29.92 461.52 L30.32 461.56 L30.58 461.82 L30.73 462.24 Z M527.52 454.83 L527.65 454.5 L528.16 454.69 L528.75 455.2 L529.11 455.84 L528.69 455.65 L528.28 455.42 Z M116.99 443.94 L116.4 444.34 L116.02 444.12 L116.13 443.82 Z M440.85 414.41 L438.22 411.84 L440.07 413.11 L440.87 413.89 Z M696.54 410.78 L697.95 410.56 L698.41 410.56 L698.03 410.79 L697.01 411.77 L696.54 411.72 L696.23 411.48 L696.2 411.16 Z M320.82 413.31 L319.75 412.56 L319.36 411.35 L319.56 410.27 L320.25 409.87 L320.47 410.15 L321.06 411.42 L321.42 411.84 L321.89 412.29 L321.84 412.75 L321.44 413.13 Z M410.86 409.92 L411.06 410.53 L411.11 410.83 L411.1 411.16 L410.66 410.18 L410.37 409.71 L410.02 409.3 L410.23 409.42 Z M0.7 410.77 L0.83 410.19 L0.76 409.76 L0.48 409.46 L0 409.33 L0.62 409.17 L0.91 409.5 L1.01 410.08 L1.05 410.66 L0.91 410.98 L0.59 411.21 L0.42 411.18 Z M504.6 406.03 L505.47 405.94 L506.02 406.34 L506.1 406.93 L505.54 407.37 L505 407.36 L504.65 407.05 L504.5 406.56 Z M463.46 392.76 L464.07 392.76 L464.51 392.94 L464.65 393.23 L464.38 393.64 L463.39 392.87 L459.99 392.27 L458.68 391.3 L462.15 392.5 Z M425.78 386.4 L425.33 387.95 L425.56 386.94 L425.68 385.77 L425.57 385.3 L425.3 384.91 L425.11 384.76 L424.61 384.5 L424.77 384.47 L425.23 384.72 L425.46 384.82 L425.66 385.13 L425.85 385.7 Z M404.01 380.07 L403.08 379.68 L403.85 379.81 L404.47 380.28 L404.92 380.97 L405.19 381.75 L404.56 380.94 Z M371.58 379.68 L372.29 379.67 L372.48 379.83 L372.54 380.3 L372.32 380.02 L372.09 379.9 L371.85 379.81 Z M344.9 378.83 L345.15 378.67 L345.7 378.99 L346.38 379.48 L347.04 379.83 Z M361.23 373.8 L358.53 371.62 L357.56 371.03 L358.59 371.5 L359.52 372.2 Z M337.09 371.66 L336.97 371.45 L336.85 371.29 L336.8 371.13 L336.86 370.89 Z M439.65 337.51 L439.12 337.75 L438.57 337.93 L438 338.02 L437.42 338 L439.1 337.71 Z M681.97 324.65 L681.71 325.01 L681.21 324.68 L680.01 323.35 L680.53 323.63 Z M347.7 848.13 L347.7 847.75 L348.63 847.39 L349.55 847.17 L351.59 847.02 L351.42 847.39 L351.18 847.69 L350.88 847.92 L350.52 848.13 L348.99 848.48 L348.29 848.43 Z M258 819.5 L259.29 819.92 L259.57 820.8 L258.94 821.61 L256.67 821.87 L256.11 821.57 L255.8 820.95 L255.7 820.07 L255.97 819.77 L256.61 819.6 Z M996.1 806.16 L997.19 806.09 L998.85 804.66 L1000 804.27 L999.61 805.01 L997.88 807.33 L997.33 807.24 L996.86 807.06 L996.1 806.57 Z M160.77 767.68 L161.24 767.73 L161.76 768.33 L162.18 769.07 L162.35 769.57 L162.27 770.95 L162 772.41 L161.7 772.69 L161.54 772.76 L161.31 772.76 L161.1 771.34 L160.55 770.01 L160.25 768.77 Z M707.62 725.64 L708.57 724.99 L709.54 725.75 L711.1 728.27 L709.73 729.09 L708.31 728.59 L707.42 727.29 Z M707.27 515.31 L704.8 516.74 L703.22 518.06 L701.83 519.51 L701.29 519.73 L700.46 519.75 L699.66 519.59 L699.19 519.3 L699.11 518.69 L699.33 517.97 L699.92 516.74 L700.96 515.65 L701.98 513.77 L703.85 512.59 L707.62 510.89 L708.63 510.16 L710.03 510.33 L710.27 511.37 L709.83 512.53 L708.82 513.36 Z M273.22 512.68 L274.39 514.06 L274.97 516.47 L274.6 518.85 L272.87 520.07 L272.05 519.94 L269.27 519.14 L268.5 518.77 L266.83 516.56 L265.52 514.18 L265.06 512.34 L264.83 511.98 L264.34 511.96 L264.08 512.36 L263.9 512.85 L263.61 513.08 L262.58 513.22 L259.6 514.18 L258.49 514.25 L257.69 514.11 L256.09 513.48 L253.18 513.02 L252.6 512.68 L251.71 509.5 L251.36 509.03 L250.88 508.66 L250.38 507.76 L249.99 506.66 L249.81 505.7 L250.29 503.16 L251.74 501.68 L253.8 500.84 L256.09 500.22 L258.35 499.98 L260.66 500.38 L262.8 501.26 L264.51 502.45 L265.03 503.01 L265.46 503.73 L265.76 504.57 L265.87 505.54 L265.73 509.07 L265.87 510.16 L267.07 511.66 L269.15 512.23 Z M241.92 498.4 L242.46 498.64 L242.49 499.18 L241.51 501.55 L240.61 502.96 L239.57 503.91 L238.6 503.88 L237.41 503.26 L235.94 502.19 L234.74 500.97 L234.39 499.89 L234.91 499.31 L235.86 498.88 L236.77 498.81 L237.17 499.31 L237.37 499.86 L237.79 499.87 L238.18 499.64 L238.28 499.49 L238.68 499.4 L239.02 499.18 L239.42 499.12 L239.99 499.49 L240.14 498.84 L240.58 498.51 L241.2 498.41 Z M180.22 461.27 L180.39 460.82 L180.8 460.88 L181.26 461.27 L181.58 461.83 L181.62 462.27 L181.56 462.93 L181.34 463.4 L180.88 463.29 L180.78 463.63 L180.57 463.87 L180.26 464 L179.84 464.02 L178.91 463.25 L178.6 462.89 L178.48 462.38 L178.75 461.69 L179.34 461.47 L179.95 461.43 Z M156.08 459.62 L156.8 459.52 L157.72 459.74 L158.53 460.13 L158.87 460.53 L159.45 461.83 L162.52 466.03 L161.93 466.46 L160.05 467.46 L159.39 467.65 L158.86 467.28 L158.6 467.28 L158.49 467.83 L158.36 468.12 L158.03 468.3 L157.59 468.4 L157.13 468.38 L156.12 467.69 L155.6 465.92 L155.26 461.02 L155.44 460.26 Z M179.17 458.01 L180.13 459.74 L180.03 460.02 L179.68 460.18 L179.28 460.55 L178.77 460.92 L178.09 461.1 L177.8 460.44 L177.76 459.81 L177.88 459.18 L178.36 457.87 L178.72 457.28 L179.03 457.18 Z M157.13 453.8 L157.05 455.51 L156.87 456.2 L156.39 455.98 L155.99 455.71 L153.23 454.48 L152.93 454.2 L152.91 453.91 L153.15 451.98 L153.78 451.35 L154.86 451.2 L156.39 451.22 L156.19 451.75 L156.08 451.94 L157.06 451.9 L157.57 451.97 L157.79 452.13 L157.86 452.37 L158.12 452.75 L158.17 453.04 L158 453.31 L157.64 453.54 Z M140.68 445.77 L141.53 445.46 L142.05 446.07 L142.32 447.16 L142.39 448.31 L141.59 448.3 L140.87 447.56 L140.48 446.55 Z M415.93 426.09 L417.35 425.67 L418.46 426.37 L418.91 427.66 L418.4 429 L416.96 428.78 L415.7 428.17 L415.17 427.25 Z M808.32 128.03 L810.03 128.08 L810.78 128.29 L811.49 128.77 L812.32 130.39 L812.33 132.41 L811.47 134.04 L809.71 134.47 L808.99 134.04 L808.59 133.21 L808.54 132.26 L809.3 130.48 L809.19 129.69 Z M788.74 100.71 L789.42 100.94 L790.11 101.42 L790.51 101.91 L790.33 102.12 L790.14 102.21 L790.01 102.42 L789.9 102.66 L789.79 102.83 L789.54 102.98 L789.03 103.05 L788.74 103.18 L788.05 103.93 L786.9 105.93 L786.27 106.69 L785.6 105.81 L785.66 104.83 L785.85 103.82 L785.57 102.83 L786.11 102.21 L786.79 100.97 L787.65 100.13 Z M801.29 92.51 L802.44 92.43 L802.21 92.9 L799.62 95.12 L798.45 95.6 L797.2 95.9 L795.21 96.08 L792.46 96.03 L791.88 95.89 L791.61 95.73 L791.01 95.68 L790.41 95.74 L790.14 95.89 L790.14 97.49 L789.79 98.35 L789.3 98.39 L788.58 98.09 L786.5 97.64 L785.62 97.05 L784.94 96.35 L784.53 95.73 L784.25 95.05 L784.1 94.22 L784.3 93.54 L785.88 93.02 L790.32 90.45 L792.16 90.09 L793.74 90.35 L794.35 91.45 L794.92 92.13 L795.87 92.57 L796.97 92.82 L798.01 92.9 L799.23 93.19 L799.75 93.25 L800.32 93.15 L800.7 92.92 L800.99 92.67 Z M737.99 70.89 L739.16 72.08 L739.8 72.32 L740.5 71.95 L739.84 73.52 L739.41 75.28 L738.7 76.71 L737.17 77.31 L736.22 76.81 L733.82 73.4 L734.79 72.67 L735.71 71.76 L736.72 71.04 Z M766.69 48.18 L767.27 48.96 L767 49.63 L766.23 50.12 L765.3 50.36 L763.06 50.53 L762.17 50.92 L761.47 51.81 L761.68 51.03 L761.4 50.3 L760.99 49.57 L760.77 48.77 L762.48 46.84 L762.86 46.84 L763.23 47.4 L763.63 47.47 L764.45 47.18 L765.03 47.31 Z M739.39 45.04 L740.77 46.26 L741.09 46.91 L741.19 48.03 L740.93 48.82 L740.31 48.72 L739.07 47.9 L738.82 49.01 L738 49.79 L737.01 49.99 L736.28 49.3 L735.9 49.3 L735.28 49.86 L733.24 50.53 L732.8 50.91 L732.56 51.78 L731.99 51.61 L731.34 51.04 L730.29 50.4 L729.93 49.67 L729.4 47.3 L729.28 46.29 L729.17 45.84 L728.69 45.42 L728.59 45.04 L729.26 43.16 L730.85 42.86 L737.33 43.95 L738.9 43.95 L739.29 43.87 L740 43.44 L740.5 43.27 L740.49 43.52 L740.4 43.66 L740.27 43.78 L739.9 44.21 Z M706.57 3.35 L706.24 4.06 L705.78 4.62 L705.28 4.7 L704.8 4.02 L704.77 2.13 L705.86 0.67 L707.55 0 L709.33 0.49 L708.58 1.07 L708.31 1.2 L707.43 1.37 L707.01 1.81 Z M523.28 1058.21 L523.06 1058.5 L522.39 1059.14 L522.24 1059.39 L522.27 1059.44 L522.44 1060.56 L522.59 1060.61 L522.23 1061.28 L521.8 1061.72 L521.25 1061.78 L520.5 1061.35 L520.08 1060.29 L520.01 1058.58 L520.44 1057.06 L521.54 1056.6 L522.55 1057.27 L522.97 1057.69 Z M800.62 737.31 L796.41 737.31 L797.44 736.91 L798.48 737.02 L799.53 737.26 Z M973.74 718.46 L970.26 716.21 L971.38 716.34 L972.34 716.75 L973.14 717.44 Z M816.68 682.81 L817.47 681.94 L817.58 681.3 L816.39 678.05 L816.18 677.78 L815.91 677.66 L814.97 677.97 L815.18 677.79 L815.69 677.57 L815.97 677.52 L816.29 677.54 L817.46 679.41 L817.81 681.76 Z M930.02 557.59 L930.05 557.49 L930.09 557.24 L930.07 556.88 L929.92 556.46 L929.61 556.05 L929.15 555.72 L928.52 555.44 L926.97 554.97 L926.51 554.76 L926.2 554.51 L925.93 554.18 L925.5 553.78 L923.14 552.45 L922.51 552.28 L922.3 552.58 L922.31 553 L922.36 553.21 L922.18 552.99 L922.07 552.77 L921.92 552.58 L921.63 552.45 L922.64 552.04 L924.31 552.64 L925.85 553.65 L926.54 554.5 L929.19 555.45 L930.5 556.42 Z M707.62 549.51 L707.47 549.32 L707.16 548.7 L706.43 548.07 L703.53 546.64 L702.61 545.91 L702.14 545.33 L702.01 545.1 L703.32 546.09 L706.84 548.07 L707.28 548.74 Z M896.48 546.53 L891.57 541.39 L892.86 542 L894.5 543.44 L895.9 545.13 Z M699.92 538.8 L698.61 536.89 L696.21 535.09 L695.06 532.9 L694.43 532.23 L692.22 530.33 L692.69 530.67 L694.69 531.64 L696.05 534.02 L697.14 535.18 L698.46 536.19 L699.55 537.31 Z M610.37 506.79 L610.99 505.74 L607.2 502.05 L608.58 502.81 L610.36 504.14 L611.35 505.61 Z M567.7 498 L566.46 497.03 L564.56 496.57 L565.5 496.52 L566.47 496.72 L567.26 497.2 Z M467.31 499.49 L464.52 495.87 L465.32 496.39 L466.03 497.25 Z M457.21 494.04 L456.8 493.36 L456.55 492.69 L456.44 491.9 L456.47 490.93 Z M569.09 455.98 L565.63 453.56 L562.97 453.7 L560.7 453.43 L565.08 453.04 L566.32 453.36 L567.35 454.15 Z M559.65 454.16 L557.14 453.96 L555.11 452.37 L553 451.22 L554.8 451.64 L557.69 453.85 Z M547.07 449.04 L546.88 448.94 L545.49 446.55 L543.9 445.3 L542.16 444.66 L541.12 444.28 L541.32 444.27 L542.34 444.55 L544.02 444.79 L544.81 445.19 L546.3 446.85 L546.8 447.8 Z M524.68 445.77 L524.56 444.68 L524.45 444.31 L522.91 442.47 L523.69 442.97 L524.49 443.86 L524.94 444.87 Z M518.72 438.44 L517.04 437.84 L516.02 438.03 L515.59 437.35 L515.91 437.38 L515.97 437.48 L515.94 437.7 L516.73 437.42 L517.55 437.59 L518.25 438.01 Z M462.12 438.83 L461.1 438.24 L459.7 435.2 L458.5 433.74 L457.29 431.11 L456.6 428.4 L455.77 427.22 L455.4 424.61 L455.55 425.52 L455.92 426.74 L456.45 427.81 L457.02 428.27 L457.27 428.89 L457.73 431.64 L458.04 432.27 L458.19 432.73 L460.34 435.17 L461.52 438.16 Z M455.4 423.16 L450.55 423.56 L453.17 422.61 L454.51 422.39 Z M612.81 426.09 L613.19 424.82 L613.82 423.48 L614.56 422.28 L615.28 421.35 Z M736.28 419.14 L735.93 418.32 L734.6 418.26 L733.12 419.14 L734.17 418.1 L735.51 417.87 L736.44 418.26 Z M478.18 417.72 L474.69 414.43 L475.5 414.96 Z M483.78 415.15 L482.83 412.85 L480.1 408.57 L478.53 407.51 L479.91 407.78 L480.73 408.71 L482.01 411.13 L483.31 412.73 L483.73 413.76 Z M331.29 367.27 L330.85 366.58 L330.24 365.86 L329.32 365.01 L327.97 364.24 L324.63 363.27 L326.78 363.44 L329.08 364.05 L330.81 365.27 Z M301.57 361.83 L300.55 360.61 L298.37 359.66 L299.54 359.81 L300.93 360.25 L301.84 360.94 Z M476.78 349.54 L476.25 350.24 L475.35 350.94 L474.34 351.46 L473.44 351.67 L473.26 351.03 L473.8 349.6 L475.01 347.35 L473.98 350 L473.73 351.19 L474.81 350.93 Z M422.58 340.87 L423.15 339.73 L423.47 338.67 L421.86 337.6 L423.28 337.8 L423.87 338.72 L423.63 339.9 Z M486.57 341.59 L489.04 339.07 L491.29 337.81 L492.44 336.69 L491.16 337.21 L488.98 337.42 L486.57 337.99 L487.49 337.43 L488.65 337.11 L490.92 336.91 L491.97 336.38 L492.59 336.15 L492.87 336.35 L492.82 336.9 L492.69 337.17 L491.69 337.95 L490.05 338.88 L489.55 339.07 L489.04 339.41 L487.45 341.03 Z M443.52 334 L443.73 332.92 L442.83 332.79 L440.07 332.92 L442.92 332.43 L444.09 332.71 Z M908.35 706.9 L908.28 707.05 L908.17 707.06 L907.93 706.84 L908.04 706.83 L908.24 706.89 Z M786.04 678.6 L785.73 678.79 L785.57 678.85 L785.4 678.88 L786.01 678.6 Z M532.31 458.85 L533.68 458.5 L534.55 459.22 L535.01 460.23 L535.17 460.75 L534.56 460.17 L533.9 459.2 L533.11 458.75 L532.12 459.7 L532.08 459.46 L532.13 459.27 Z "/>
</g>
</svg>
