<svg xmlns="http://www.w3.org/2000/svg" viewBox="0 0 1000 1211.04">
<g fill="#ccc" stroke="#333" stroke-width="0.5" stroke-linejoin="round">
<path fill-rule="evenodd" d="M79.87 150.7 L79.14 150.35 L79.51 150.18 L80.05 150.27 Z M798.2 1203.72 L797.75 1203.69 L797.44 1203.49 L797.14 1203.19 L796.76 1202.89 L796.34 1202.73 L795.62 1202.59 L795.3 1202.33 L795.3 1202.06 L796.46 1201.7 L797.54 1201.89 L798.92 1203.45 L799.76 1204.1 L800.06 1204.62 L799.82 1205.12 L799.45 1205.05 Z M767.81 1195.65 L767.57 1196.2 L767.23 1196.47 L766.81 1196.47 L766.35 1196.19 L765.01 1196.19 L764.38 1196.02 L763.8 1195.65 L764.31 1194.8 L764.6 1194.57 L765.06 1194.52 L765.53 1194.64 L766.4 1195.05 L766.87 1195.1 L767.71 1194.85 L767.89 1195 Z M788.79 1189.83 L788.41 1190.02 L788.02 1190.1 L787.65 1189.96 L787.33 1189.55 L790.17 1187.99 L791.13 1187.9 L791.13 1188.17 L790.53 1188.59 L790.17 1189.51 L789.7 1190.18 Z M778.3 1181.23 L778.47 1180.8 L778.74 1180.51 L779.03 1180.28 L779.28 1180 L780.19 1178.63 L780.74 1177.99 L781.48 1177.45 L782.28 1177.12 L783 1177.12 L782.7 1177.97 L781.87 1178.71 L781.54 1179.32 L783.73 1178.9 L784.08 1178.9 L783.95 1179.49 L783.63 1180.11 L783.27 1180.66 L783 1180.99 L782.07 1181.69 L781.72 1182.19 L781.81 1182.77 L782.06 1183.53 L781.73 1183.94 L781.14 1184.2 L781.44 1184.57 L779.1 1185.58 L778.66 1185.26 L778.66 1183.19 L778.58 1182.66 L778.33 1181.52 Z M779.2 1176.03 L779.32 1176.86 L779.61 1176.82 L779.74 1176.98 L779.66 1177.35 L779.47 1177.54 L779.23 1177.69 L779 1177.94 L778.75 1178.51 L778.36 1179.69 L777.92 1180.53 L777.61 1180.9 L777.28 1181.1 L777.02 1180.99 L776.84 1180.61 L776.92 1180.49 L777.22 1179.09 L777.2 1179.04 L777.52 1178.01 L778 1176.99 L778.58 1176.24 Z M785.53 1177.12 L785.02 1176.8 L784.54 1176.32 L784.14 1175.7 L783.9 1174.9 L784.78 1174.91 L786.06 1175.97 L786.95 1176.03 L786.75 1176.55 L786.41 1176.88 L786 1177.06 Z M814.13 1189.16 L814.65 1190.63 L814.32 1192.55 L813.47 1194.2 L811.89 1196.19 L809.98 1195.87 L809.13 1195.43 L808.51 1195.99 L808.39 1196.69 L807.86 1197.07 L810.04 1198.11 L811.96 1199.53 L809.56 1199.18 L807.25 1199.53 L806.06 1196.32 L803.33 1195.46 L802.31 1195.82 L801.29 1196.26 L800.07 1196.32 L798.84 1196.05 L796.87 1195.57 L794.94 1195.91 L796.33 1196.61 L797.66 1197.59 L797.33 1197.77 L797 1197.95 L797.59 1198.62 L798.2 1199.26 L797.56 1199.52 L796.95 1199.7 L796.17 1198.83 L795.43 1197.83 L794.76 1197.6 L794.22 1198.13 L794.28 1198.81 L794.76 1200.11 L793.19 1198.88 L791.5 1198.13 L792.09 1199.07 L792.88 1199.65 L793.45 1200.25 L793.67 1200.85 L794.05 1201.15 L794.4 1201.5 L794.5 1202.47 L794.72 1203.33 L796.8 1204.46 L799.05 1204.88 L801.14 1205.86 L803.25 1206.81 L801.36 1205 L800.93 1202.84 L802.08 1202.43 L803.29 1202.24 L804.39 1202.56 L805.45 1203.07 L807.45 1203.24 L808.19 1205.04 L806.42 1206.68 L803.99 1206.81 L805.67 1207.32 L806.93 1208.28 L806.09 1209.57 L804.72 1209.54 L803.69 1209.86 L802.89 1210.71 L801.43 1210.77 L799.97 1210.12 L797.75 1210.22 L795.82 1209.31 L794.9 1207.74 L794.03 1206.23 L793.9 1204.52 L793.79 1202.83 L792.73 1201.96 L791.5 1202.06 L791.9 1202.63 L791.86 1203.45 L791 1202.52 L790.05 1202.19 L790.97 1203.82 L792.11 1205.33 L792.04 1207.59 L790.76 1208.73 L789.78 1208.4 L788.87 1207.87 L787.24 1207.74 L785.63 1207.36 L784.29 1206.15 L783.08 1204.7 L781.83 1204.58 L780.64 1204.56 L780.04 1202.91 L779.23 1201.54 L778.6 1201.86 L778.83 1202.71 L778.64 1202.8 L778.46 1202.89 L778.98 1203.87 L779.35 1204.98 L778.08 1204.26 L777.02 1202.59 L777.33 1203.71 L777.64 1204.84 L777.92 1205.42 L777.28 1206.03 L777.2 1207.06 L776.24 1206.21 L776.01 1204.46 L775.48 1203.65 L775.13 1205.33 L775.97 1207.89 L774.98 1209.79 L773.9 1210.56 L772.74 1211.04 L772.45 1210.87 L772.24 1210.68 L771.82 1210.72 L771.32 1210.79 L770.04 1210.83 L768.77 1210.86 L767.7 1210.57 L767 1209.14 L767.03 1208.17 L767.32 1207.33 L767.36 1205.77 L767.91 1204.64 L768.57 1203.44 L769.07 1202.33 L768.53 1201.38 L769.66 1200.48 L770.62 1199.21 L769.92 1197.82 L769.76 1196.64 L769.18 1196.46 L768.11 1196.56 L769.45 1195.04 L771.21 1194.8 L771.12 1194.1 L771.21 1193.41 L770.36 1193.75 L768.89 1194.03 L768.33 1193.14 L768.78 1192.94 L769.25 1192.86 L767.75 1191.79 L767.24 1190.08 L766.99 1189.39 L767.15 1188.86 L767.57 1189.44 L768.16 1190.08 L769.46 1188.78 L771.39 1187.62 L769.37 1187.78 L767.97 1187.07 L768.57 1186.53 L769.25 1186.24 L768.22 1186.23 L767.2 1186.24 L767.31 1185.68 L767.42 1185.12 L766.58 1184.87 L766.76 1183.69 L767.8 1183.42 L768.66 1183.96 L768.28 1182.45 L768.29 1180.37 L769.54 1180.4 L770.66 1180.76 L770.01 1179.55 L769.27 1178.41 L768.54 1177.31 L767.89 1176.33 L767.72 1175.6 L768.34 1175.26 L769.41 1174.61 L770.49 1174.65 L770.53 1173.79 L770.66 1172.99 L771.41 1172.38 L771.5 1171.19 L771.12 1170.65 L771.59 1169.68 L772.08 1168.59 L773.63 1167.91 L775.21 1168.07 L774.82 1168.57 L775.39 1169.43 L775.21 1170.25 L776.3 1170.8 L772.77 1173.68 L770.79 1177.51 L771.19 1177.11 L771.56 1176.68 L772.18 1176.5 L772.85 1176.84 L772.52 1175.48 L773.42 1175.05 L773.76 1176.03 L775.18 1173.36 L777.2 1171.92 L777.82 1172 L778.21 1172.66 L777.28 1173.44 L776.1 1174.08 L776.83 1175 L777.56 1174.08 L777.54 1175.59 L776.67 1176.98 L775.35 1178.01 L774.66 1179.62 L775.39 1179.01 L776.16 1178.52 L775.43 1180.7 L773.81 1182.18 L773.42 1183.69 L773.21 1185.42 L774.13 1185.82 L775.02 1186.24 L774.72 1183.35 L776.01 1181.51 L777.02 1182.11 L777.69 1183.53 L777.81 1184.98 L777.93 1186.23 L778.89 1186.66 L779.73 1186.19 L782.52 1185.04 L784.79 1182.36 L785.13 1182.98 L785.3 1183.73 L785.07 1184.55 L784.78 1184.95 L785.17 1185.36 L785.67 1185.05 L786.99 1181.59 L788.79 1179.87 L788.78 1180.96 L789.01 1182.02 L789.49 1182.36 L788.59 1182.91 L788.23 1183.74 L789.54 1183.71 L790.59 1184.29 L789.76 1184.83 L788.59 1185.42 L790.23 1185.82 L790.23 1186.79 L788.73 1187.15 L787.24 1187.34 L786.64 1187.06 L786.03 1186.78 L783.78 1186.36 L782.2 1187.84 L781.47 1188.51 L780.68 1189.21 L781.07 1189.65 L781.78 1189.21 L782.51 1188.66 L784.31 1187.29 L785.69 1187.9 L784.51 1188.6 L783.28 1189.14 L784.99 1189.69 L784.78 1190.45 L785.69 1190.65 L786.32 1191.45 L787.33 1191.46 L787.33 1191.61 L787.33 1191.76 L785.69 1192.02 L784.08 1192.86 L786.32 1192.67 L788.56 1192.47 L790.56 1192.03 L792.39 1191.76 L790.75 1193.25 L788.59 1193.97 L790.36 1194.25 L792.03 1194.17 L793.06 1193.13 L794.03 1192.03 L794.15 1192.77 L794.4 1193.41 L795.13 1192.22 L795.96 1191.48 L795.87 1190.78 L795.77 1190.21 L796.34 1190.03 L796.93 1190.08 L796.93 1189.34 L797.47 1189.05 L798.08 1188.83 L798.47 1188.2 L799.45 1187.7 L800.47 1187.21 L802.01 1186.65 L803.63 1187.34 L803.53 1187.78 L803.41 1188.2 L804.76 1188.1 L805.85 1187.11 L806.85 1184.85 L808.51 1183.95 L810.42 1184.04 L812.24 1184.73 L813.42 1185.64 L813.6 1187.62 Z M764.52 1166.7 L764.81 1167.19 L764.45 1167.54 L763.82 1167.68 L763.26 1167.5 L762.92 1167.24 L763.34 1166.92 L764.04 1166.7 Z M768.16 1165.88 L767.67 1166.37 L767.41 1165.92 L767.43 1165.12 L767.81 1164.5 L768.43 1164.4 L768.75 1164.83 L768.69 1165.44 Z M319.78 1078.8 L320.05 1079.04 L320.27 1079.33 L320.68 1080.09 L319.5 1081.66 L318.58 1081.46 L318.14 1081.43 L317.78 1081.66 L316.99 1081.51 L316.38 1081.14 L315.89 1080.56 L315.43 1079.85 L315.09 1078.87 L315.38 1078.3 L317.19 1076.92 L317.81 1076.99 L318.3 1077.51 L318.5 1078.4 L318.69 1078.64 L319.12 1078.75 Z M275.97 1066.89 L276.34 1066.59 L278.41 1066.09 L278.76 1066.64 L279.07 1067.34 L279.21 1068.1 L279.05 1068.85 L278.66 1069.27 L278.22 1069.27 L277.23 1068.85 L276.64 1068.75 L276.25 1068.36 L276.03 1067.73 Z M997.85 773.55 L998.91 773.44 L999.72 774.22 L1000 775.25 L999.47 775.88 L998.72 776.15 L997.87 775.52 L997.42 774.49 Z M998.62 803.35 L998.94 803.83 L999.05 804.09 L998.93 804.31 L998.7 804.34 L998.18 804.24 L998.08 804.05 L997.92 803.48 L998.04 803.23 L998.25 803.12 L998.48 803.23 Z M17.21 298 L17.19 297.75 L17.36 297.83 L17.37 298.45 L16.92 299.11 L16.39 299.19 L16.14 299.02 L15.94 298.69 L15.88 298.21 L16.06 297.91 L16.37 297.81 L16.65 297.78 L16.8 297.86 L16.88 298.17 L16.78 298.32 L16.65 298.42 L16.56 298.61 L16.72 298.77 L17.06 298.74 L17.26 298.44 Z M0 272.97 L0.02 272.9 L0.08 272.96 Z M390.58 118.01 L390.75 117.89 L390.76 118.14 Z M199.69 0.4 L200 0 L200.18 0.52 Z "/>
</g>
</svg>
