<svg xmlns="http://www.w3.org/2000/svg" viewBox="0 0 1000 1079.21">
<g fill="#ccc" stroke="#333" stroke-width="0.5" stroke-linejoin="round">
<path fill-rule="evenodd" d="M792.46 27.84 L792.52 38.18 L791.91 43.72 L790.15 47.86 L784 51.25 L782.97 52.04 L779.84 55.47 L778.93 56.1 L777.36 56.72 L777.31 58.17 L778.29 61.4 L777.93 63.14 L777.04 64.34 L775.9 65.42 L774.74 66.8 L773.57 68.81 L772.41 71.51 L770.36 72.1 L769.65 72.88 L771.88 75.94 L773.27 79.05 L774.16 80.34 L774.87 82.38 L774.62 85.14 L772.84 91.47 L771.52 94.07 L769.76 96.36 L767.58 97.62 L768.85 100.58 L768.35 103.6 L767.17 106.84 L766.52 110.47 L767.55 118.31 L767 122.46 L764.04 125.87 L766.85 130.87 L770.04 135.28 L771.22 134.01 L773.18 135.51 L774.39 137.54 L774.6 139.9 L773.57 142.34 L777.11 144.16 L780.21 152.49 L782.97 154.22 L782.79 155.66 L783.02 163.81 L782.92 165.22 L782.99 166.54 L783.56 167.7 L785 169.79 L784.63 170.7 L783.58 171.3 L781.96 174.76 L779.5 176.42 L776.58 177.41 L774.16 177.75 L772.78 178.89 L772.14 181.3 L770.86 183.42 L767.58 183.76 L769.33 185.29 L771.4 186.13 L773.03 187.23 L773.56 189.61 L773.57 189.63 L775.38 189.87 L778.89 189.31 L784.82 189.76 L788.39 189.03 L791.54 187.66 L794.74 183.74 L797.88 183.29 L800.8 182.51 L801.9 179.45 L803.29 178.16 L806.66 177.24 L810.41 176.81 L813.03 177.05 L819.05 179.2 L824.38 180.22 L829.58 180.19 L835.35 179.12 L837.57 177.52 L841.51 172.23 L847.69 169.83 L849.93 167.98 L852.37 166.39 L855.79 166.08 L857.41 166.15 L859 166.04 L862.17 165.46 L863.28 164.9 L865.35 163.29 L866.52 162.84 L867.39 163.02 L869.41 163.99 L869.92 164.17 L871.78 163.47 L872.35 163.09 L874.45 158.97 L876.07 154.51 L876.21 153.7 L878.65 153.11 L911.19 156.14 L914.16 156.8 L917.3 158.67 L919.84 161.17 L922.55 163.11 L926.2 163.33 L932.36 160.95 L935.46 160.15 L938.92 160.49 L945.7 162.34 L947.2 163.36 L948.3 164.5 L949.6 165.45 L951.65 165.84 L951.92 166.8 L952.18 167.75 L953.66 168.7 L955.62 169.52 L957.47 170.97 L958.51 172.89 L961.07 183.65 L961.53 188.16 L961.35 201.16 L962.76 205.56 L965.45 209.16 L973.71 212.97 L976.06 216.48 L978.75 225.29 L980.66 229.32 L983.08 233.1 L985.97 236.5 L989.24 239.48 L993.36 241.56 L994.68 242.94 L994.35 245.28 L992.77 246.88 L990.72 248.1 L989.42 249.5 L990.01 251.63 L991.15 259.65 L985.25 266.75 L977.31 273.56 L972.32 280.73 L971.81 289.57 L970.67 293.26 L957.9 304.3 L957.26 305.21 L956.28 305.92 L953.96 306.81 L945.31 307.28 L935.64 306.19 L927.11 307.35 L921.87 314.61 L923.81 318.21 L924.88 321.74 L924.21 325.3 L920.98 329 L908.25 336.02 L904.58 339.92 L898.47 353.62 L892.61 362.34 L891.83 366.46 L892.68 370.79 L894.36 376.13 L895.18 380.33 L895.91 392.78 L897.03 393.95 L899.04 394.01 L901.11 394.38 L902.46 396.5 L902.19 398.3 L899.75 401.45 L899.02 403.16 L899.36 405.69 L900.25 407.61 L900.43 409.43 L898.63 411.66 L896.87 413.33 L894.73 416.17 L886.91 426.54 L885.1 430.82 L884.94 435.7 L892.9 445.19 L893.93 445.96 L895.03 445.74 L897.31 444.91 L898.04 444.14 L898.51 442.89 L899.17 441.75 L900.5 441.29 L906.66 442 L908.34 442.66 L909.73 443.82 L910.97 445.49 L917.24 443.84 L924.15 444.91 L930.46 447.97 L934.94 452.37 L937.85 458.26 L939.97 465.17 L941.23 472.28 L941.53 478.73 L944.44 477.18 L947.29 476.2 L950.24 476.18 L953.39 477.46 L956.19 478.12 L958.83 477.23 L961.5 475.97 L964.45 475.5 L969.26 476.89 L975.82 479.79 L981.62 483.43 L985.43 488.56 L992.29 493.28 L994.41 495.54 L998.45 503.86 L1000 509.02 L998.82 514.61 L991.83 529.75 L990.86 533.97 L990.9 538.21 L992.06 542.59 L992.79 547.83 L990.85 551.52 L987.8 554.86 L985.15 559.1 L984.24 563.06 L983.38 570.5 L981.57 574.17 L981.53 576.65 L986.45 590.17 L988.28 593.89 L988.87 595.9 L988.73 597.38 L987.77 600.36 L987.82 601.83 L989.03 603.94 L989.74 604.63 L992.66 607.52 L994 609.74 L994.28 611.29 L994.11 616.67 L993.41 620.54 L992.79 622.19 L991.83 624.01 L990.58 625.42 L989.15 626.52 L987.96 627.77 L987.48 629.68 L988.51 632.97 L991.04 635.59 L997.1 639.6 L998.06 643.18 L996.83 645.16 L994.64 646.56 L992.64 648.49 L992.02 650.11 L991.74 654.26 L989.56 659.25 L991.83 661.49 L993.75 664.59 L993.82 667.19 L988.17 668.26 L987.07 669.76 L986.38 671.75 L985.22 673.5 L983.58 674.69 L981.96 675.5 L978.43 676.74 L976.88 678.12 L978.02 679.4 L981.37 681.27 L983.46 688.25 L986.39 689.16 L990.03 689.77 L991.34 690.91 L987.28 693.37 L985.2 695.68 L984.1 699.41 L983.56 713.14 L982.51 717.58 L982.4 719.04 L983.72 726.56 L982.48 728.93 L977.9 731.42 L977.53 731.57 L957.47 739.41 L956.24 740.66 L955.39 741.94 L954.96 743.47 L955.05 745.45 L954.14 747.07 L954.25 748.14 L955.14 749.03 L956.55 750.06 L957.38 751.53 L957.21 753.24 L956.07 756.64 L955.1 765.73 L954.3 768.19 L953.13 769.36 L950.15 770.42 L949.23 771.24 L949.03 772.93 L950.1 776.01 L950.06 777.28 L947.77 779.79 L941.85 781.95 L939.52 783.76 L940.07 789.66 L953.13 800.71 L954.41 806.2 L953.66 805.72 L945.43 807.65 L943.72 808.43 L942.16 809.48 L938.86 812.28 L937.45 813.76 L936.67 815.51 L936.74 820.04 L935.53 821.53 L933.88 822.83 L932.42 824.37 L931.34 827.44 L930.56 829.68 L929.53 830.98 L927.96 831.21 L926.25 830.5 L923.6 828.97 L921.87 828.82 L920.79 829.02 L912.86 831.5 L911.54 831.48 L910.44 830.46 L909.92 827.31 L908.34 826.15 L906.66 826.15 L905.01 826.9 L902.03 828.7 L898.42 829.45 L894.2 829.23 L890.26 827.93 L887.45 825.45 L887.64 824.6 L887.77 817.95 L889.05 816.43 L892.63 814.63 L895.07 809.43 L897.12 808.16 L897.85 807.04 L895.5 803.83 L893.72 802.57 L891.9 801.69 L890.56 800.43 L889.99 795.63 L888.84 793.94 L885.68 790.73 L883.57 787.56 L879.65 779.56 L878.08 772.43 L876.58 768.79 L874.5 765.53 L872.13 763.25 L870.32 761.95 L869.76 761.74 L869.37 762.66 L865.77 768.03 L863.96 771.47 L863.49 773.37 L863.23 776.78 L862.6 778.58 L861.21 780.5 L848.1 793.21 L846.94 794.99 L846.44 798.65 L845.68 800.18 L843.95 801.36 L839.84 802.67 L837.79 803.71 L836.08 805.24 L833.57 808.4 L832.11 809.84 L826.51 813.71 L824.8 815.37 L823.86 817.02 L823.38 818.63 L822.6 820.02 L820.78 821.05 L819.89 820.77 L818.45 818.64 L817.34 818.36 L814.92 819.11 L814.03 819.09 L810.29 818.48 L806.98 819.3 L803.91 818.95 L773.87 807.79 L772.18 807.42 L770.18 807.68 L766.89 809.61 L765 810 L761.4 809.13 L750.29 804.08 L746.02 803.32 L743.79 803.98 L740.67 807.1 L738.68 809.09 L736.37 809.22 L735.87 808.18 L736.76 806.58 L738.68 804.96 L739.48 803.74 L740.18 802.3 L740.66 800.79 L740.78 799.31 L741.14 797.56 L742.1 796.15 L743.54 794.62 L743.11 792.68 L742.3 792.5 L741.24 792.53 L740.02 791.21 L739.55 789.82 L738.68 785.17 L737.06 783.19 L733.84 777.92 L732.34 776.46 L728.16 778.6 L725.7 778.68 L724.95 775.62 L724.83 773.84 L724.17 772.63 L721.9 770.42 L721.49 769.27 L721.8 768.19 L722.53 766.89 L722.85 766.07 L723.52 764.93 L723.63 763.93 L720.39 763.09 L720.02 762.2 L720.19 761.17 L720.19 760.36 L720.5 760.29 L719.82 756.35 L719.05 755.32 L716.37 752.68 L715.37 751.42 L713.82 747.77 L710.03 735.26 L708.03 731.05 L705.13 729.06 L697.84 726.7 L697.08 726.15 L685.7 717.9 L678.36 714.85 L669.88 715.09 L668.03 715.76 L659.59 721.43 L658.54 722.41 L657.69 723.53 L656.63 725.72 L656.33 727.22 L656.21 729.09 L655.46 730.84 L653.23 732.05 L650.21 731.1 L646.94 727.64 L644.88 725.46 L642.96 725.01 L642.3 727.34 L643.74 745.93 L645.22 752.9 L648.8 758.42 L655.51 761.47 L654.75 764.45 L651.65 769.33 L650.42 771.95 L650.1 774.5 L651.33 781.63 L650.13 786.58 L647.82 792.52 L646.57 798.09 L648.53 801.89 L580.13 816.56 L574.78 815.97 L569.51 812.35 L563.67 805.1 L560.56 802.8 L558.77 801.75 L553.38 804.42 L546.11 806.76 L539.9 807.99 L536.07 809.52 L530.23 814.9 L527.36 816.58 L524.51 816.35 L521.38 814.69 L515.55 810.12 L514.23 808.59 L513.54 807.15 L512.47 805.81 L510.1 804.6 L501.39 801.96 L495.02 801.75 L494.64 801.85 L493.27 805.24 L496.98 815.29 L497.6 819.09 L496.35 828.64 L496.43 831.66 L497.76 835.29 L502.12 842.26 L503.74 846.13 L504.67 850.54 L504.67 854.12 L503.83 857.7 L502.25 862.07 L489.69 882.57 L489.37 883.83 L487.65 890.44 L488.54 894.49 L491.49 893.99 L498.47 889.08 L503.37 887.58 L506.81 888.71 L509.62 891.88 L515.57 900.53 L528.68 914.48 L531.21 918.45 L531.21 922.16 L526.95 924.78 L522.98 925.19 L520.61 925 L518.81 926.08 L516.53 930.37 L515.68 933.4 L515.52 945.35 L515.23 946.33 L515.55 946.99 L517.03 948.47 L518.37 949.47 L528.13 953.55 L531.76 955.73 L538.7 961.45 L544.97 964.43 L553.15 966.68 L559.81 969.8 L561.62 975.37 L559.31 979.08 L551.88 984.64 L549.55 988.8 L539.72 1012.07 L539.24 1016.06 L540.95 1019.67 L544.51 1021.79 L548.59 1023.11 L551.9 1024.9 L553.11 1028.55 L551.76 1032.45 L548.71 1036.09 L544.99 1038.87 L541.96 1040.03 L541.54 1040.19 L538.33 1040.1 L528.41 1037.26 L524.96 1036.87 L515.57 1038.08 L511.83 1036.82 L508.94 1033.69 L495.27 1011.53 L488.87 1006.62 L480.24 1005.38 L475.48 1008.64 L472.26 1013.96 L468.41 1018.9 L461.84 1021.1 L454.75 1022.52 L449.2 1025.95 L444.07 1030.18 L438.19 1034 L433.7 1037.83 L430.87 1043.28 L419.42 1074.2 L416.73 1079.21 L413.39 1077.04 L409.17 1074.36 L400.75 1065.55 L398.07 1054.39 L396.44 1051.34 L395.32 1048.22 L394.67 1044.79 L394.43 1040.83 L390.84 1036.83 L385.08 1032.63 L363.94 1014.64 L336.16 995.47 L334.77 987.7 L334.96 985.05 L335.97 982.06 L336.59 978.18 L335.89 974.85 L334.26 971.6 L331.76 969.58 L327.94 967.32 L322.98 963.47 L320.06 962.12 L319.39 958.74 L312.92 951.53 L310.62 948.81 L307.47 945.43 L302.76 940.47 L284.56 925.15 L262.53 908.03 L253.76 900.82 L231.46 884.57 L221.07 875.75 L207.96 865.79 L177.4 828.01 L173.67 821.4 L176.81 823.77 L181.74 829.02 L185.45 830.93 L189.43 831.38 L191.79 829.89 L193.95 827.11 L197.22 823.76 L196.78 826.18 L195.97 828.12 L195.49 829.97 L196.04 832.11 L196.95 831.8 L197.64 831.32 L198.14 830.62 L198.49 829.75 L198.44 832.89 L198.97 836.12 L200.43 837.92 L203.11 836.82 L209.26 838.99 L210.26 839.77 L210.61 839.84 L213.16 843.79 L213.79 847.52 L214.97 847.52 L215.29 845.84 L215.91 845.06 L216.92 845.22 L218.5 846.24 L218.71 845.61 L218.71 845.32 L218.88 845.19 L219.68 845.06 L220.23 851.38 L220.86 853.42 L222.04 852.1 L223.4 851.3 L224.98 850.94 L226.73 851.06 L226.16 853.49 L226.83 854.06 L228.35 853.39 L230.27 852.14 L231.59 850.75 L232.89 847.58 L233.9 846.24 L236.38 845.33 L240.17 844.77 L243.74 844.66 L245.67 845.06 L250.18 844.6 L251.75 843.8 L252.73 841.62 L249.45 839.66 L248.12 839.18 L248.46 835.95 L245.09 834.24 L240.9 832.64 L238.61 829.75 L237.43 829.75 L238.61 832.81 L240.97 841.62 L238.53 841.26 L237.18 840 L236.35 838.62 L235.6 838 L234.22 837.27 L232.29 834.03 L230.91 833.29 L229.61 833.1 L227.49 832.3 L226.2 832.11 L225.57 832.56 L225.64 833.57 L225.84 834.7 L225.67 835.55 L224.49 836.85 L223.38 838.49 L222.53 840.18 L222.04 841.62 L219.61 840.59 L217.42 839.18 L218.1 837.41 L217.07 833.85 L217.42 832.11 L219.01 831.29 L221.03 831.35 L222.72 831.21 L223.31 829.75 L221.28 828.06 L216.86 826.61 L212.11 825.79 L209.08 826.11 L205.2 818.16 L204.92 816.81 L203.15 815.59 L202.31 815.59 L201.93 817.34 L201.3 817.45 L198.8 818.79 L198.49 819.05 L194.1 818.16 L189.99 821.24 L186.07 825.02 L182.03 826.11 L180.38 825.19 L178.8 823.6 L177.68 821.65 L177.21 819.59 L177.63 819.04 L179.63 817.2 L180.22 816.81 L181.19 816.27 L179.84 815.21 L177.94 814.32 L177.21 814.34 L176.93 812.91 L177.19 811.53 L177.21 810.37 L176.14 809.62 L174.68 809.4 L173.56 809.51 L172.8 810.1 L172.49 811.29 L174.67 815.38 L175.26 817.93 L173.67 820.13 L170.95 818.96 L163.74 810.32 L160.74 808.35 L162.34 810.83 L166.16 815.43 L167.7 817.88 L163.86 815.29 L159.26 810.83 L155.33 805.73 L153.56 801.29 L153.56 800.33 L152.25 796.39 L151.24 780.73 L149.95 778.2 L132.85 761.36 L128.24 758.75 L123.01 752.54 L120.55 750.57 L121.03 749.9 L121.73 748.19 L118 747.18 L115.87 744.17 L113.49 737.61 L106.26 730.51 L105.13 728.71 L104.34 728.44 L102.72 726.97 L101.26 725.33 L101.03 724.56 L99.2 723.73 L99.6 722.06 L100.87 720.94 L101.62 721.61 L102.9 724.75 L106.05 727.19 L109.97 728.44 L113.49 728.06 L113.08 728.77 L112.87 728.91 L112.66 728.96 L112.2 729.37 L114.44 730.3 L115.67 729.37 L116.99 725.74 L118.06 725.74 L119.35 729.37 L118.34 729.72 L117.58 730.2 L117.16 730.97 L116.99 732.19 L117.58 733.24 L118.76 732.48 L119.64 731.15 L119.35 730.45 L128.18 730.45 L132.98 731.63 L135.39 734.5 L134.96 738.03 L131.13 741.14 L133.19 743.41 L134.3 744.31 L135.29 744.68 L139.04 745.01 L140 745.27 L140.44 746.29 L140.42 749.28 L140.66 750.57 L144.17 752.9 L144.28 753.71 L145.14 755.82 L146.06 757.22 L146.52 755.9 L147.07 755.03 L149.5 754.12 L150.06 753.55 L149.6 750.46 L148.46 747.01 L146.97 744.61 L145.35 744.68 L143.47 742.49 L139.25 739.57 L138.28 737.61 L140.3 734.58 L141.94 733.45 L141.67 732.32 L136.06 722.65 L132.87 719.37 L131.13 721.02 L128.48 719.48 L127.59 718.66 L126.98 720.28 L126.96 721.92 L127.59 725.74 L124.37 723.1 L119.99 715.06 L116.99 713.84 L115.73 714.97 L114.92 716.99 L114.41 718.95 L114.01 719.84 L112.36 720.38 L111.41 721.78 L111.05 723.65 L111.13 725.74 L109.88 724.47 L108.55 723.65 L107.02 723.27 L105.13 723.27 L107.12 719.84 L106.73 717.91 L102.8 715.02 L99.01 717.49 L96.46 716.59 L95 713.19 L94.56 708.07 L94.7 706.05 L95.43 703.04 L95.59 701.59 L95.59 694.48 L95.28 692.6 L93.77 688.75 L93.27 686.78 L93.46 681.43 L93.27 679.71 L90.38 672.55 L86.45 667.12 L76.9 657.25 L55.32 627.06 L53.68 624.07 L51.93 619.79 L50.44 616.01 L49.63 612.42 L51.93 617.02 L53.68 622.15 L55.8 625.15 L59.13 628.88 L61.8 628.62 L64.49 629.8 L66.64 631.83 L68.4 637.27 L72.44 641.48 L73.37 644.85 L74.45 646.54 L79.89 653.29 L82.2 654.79 L83.25 655.93 L91.54 662.61 L92.99 663.38 L98.06 664.89 L99.7 686.31 L100.75 688.98 L102.8 688.05 L103.31 686.28 L101.74 683.93 L102.21 682.65 L103.73 681.99 L105.02 682.67 L105.94 684.08 L106.31 685.6 L108.89 682.65 L112.93 680.31 L117.54 678.88 L121.73 678.53 L120.74 681.22 L120.53 684.12 L121.49 686.62 L124.06 688.05 L125.28 682.23 L125.2 679.38 L124.06 677.35 L129.44 676.61 L143.71 678.53 L148.88 677.35 L141.77 674.61 L139.04 672.57 L136.99 669.11 L135.39 662.69 L135.19 658.93 L135.92 656.07 L134.52 655.63 L131.13 653.71 L130.37 653.61 L128.18 653.71 L126.95 654.16 L126.86 655.25 L127.59 657.82 L127.34 659.59 L126.75 660.47 L126.02 661.06 L121.73 666.81 L117.78 669.65 L113.09 671.04 L107.48 671.47 L106.33 671.71 L105.24 672.06 L104.12 672.14 L102.8 671.47 L101.85 670.19 L101.64 667.42 L100.42 664.89 L100.28 663.31 L100.42 660.18 L99.7 659.32 L98.12 658.92 L96.46 658.71 L95.59 658.41 L95.28 655.7 L96.67 653.88 L99.2 652.86 L102.21 652.53 L103.66 651.51 L103.95 649.17 L103.25 646.73 L101.62 645.37 L101.62 644.29 L103.17 643.86 L107.29 643.47 L108.66 643.01 L110.04 641.33 L110.81 638.06 L113.54 633.04 L112.98 630.06 L109.84 624.07 L110.77 623.02 L110.93 622.22 L110.26 621.46 L108.66 620.54 L108.58 623.97 L109.84 632.98 L109.36 634.83 L108.1 636.54 L106.39 637.8 L104.54 638.31 L102.98 637.78 L101.55 635.39 L100.42 634.78 L97.61 635.73 L95.87 638.17 L94.5 640.69 L92.72 641.84 L84.46 643.39 L81.6 643.01 L79.68 640.74 L79.13 637.12 L79.43 633.77 L79.89 632.32 L79.5 632.08 L78.32 630.99 L77.7 629.89 L76.89 630.2 L75.89 630.88 L74.21 631.58 L73.87 632.25 L73.11 632.7 L70.91 632.32 L68.4 630.89 L62.35 626.35 L59.72 625.35 L57.63 624.17 L56.12 621.31 L55.7 617.8 L56.89 614.66 L56.33 614.04 L56.04 613.57 L55.61 612.42 L58.97 609.98 L58.15 605.97 L55.18 601.9 L51.98 599.37 L54.14 604.56 L53.13 609.22 L52.54 610.78 L51.45 610.61 L50.89 608.76 L49.63 598.19 L46.71 590.62 L29.62 568.66 L34.09 572.89 L36.56 574.1 L39.14 573.26 L36.68 572.19 L37.71 569.88 L39.14 567.9 L40.51 566.61 L41.38 566.33 L39.36 565.43 L34.31 568.85 L31.34 568.1 L30.21 565.33 L29.11 561.08 L27.81 558.14 L26.1 559.26 L24.82 559.26 L23.35 553.12 L22.45 551.01 L19.84 546.57 L15.3 536.29 L11.61 529.99 L9.33 520.92 L4.02 514.08 L0 501.38 L2.34 497.77 L3.62 499.03 L2.09 502.35 L3.97 503.84 L9.52 504.92 L8.76 506.47 L8.6 507.53 L8.88 508.38 L9.52 509.53 L13.22 509.42 L15.82 513.63 L17.26 519.52 L18.05 526.72 L19.03 529.25 L20.7 531.27 L23.1 532.08 L24.44 533.26 L24.81 535.8 L25.65 538.2 L28.45 539.04 L26.94 536.09 L27.11 533.2 L27.93 530.16 L28.45 526.72 L29.38 524.28 L31.68 524.09 L34.71 524.76 L37.74 524.93 L37.74 523.75 L36.05 522.97 L34.29 521.58 L33.11 519.77 L33.15 517.75 L34.41 516.63 L36.08 516.77 L40.23 518.73 L41.94 521.16 L43.23 524.1 L43.75 526.72 L45.06 530.15 L51.28 535.95 L53.26 539.04 L53.34 542.52 L52.15 548.57 L53.26 551.01 L54.44 551.01 L55.18 547.79 L55.61 537.33 L56.55 534.07 L60.66 529.57 L61.59 526.72 L61.42 524.37 L61.17 523.39 L61.42 522.76 L62.68 521.4 L63.69 520.75 L66.54 519.77 L67.48 519.14 L67.94 517.36 L67.6 515.53 L67.81 514.02 L69.83 513.15 L72.19 517.75 L71.84 513.74 L69.83 510.99 L68.4 508.12 L69.83 503.64 L80.03 494.53 L83.13 488.33 L98.54 471.36 L102.8 464.7 L105.27 457.56 L105.13 435.29 L106.42 431.68 L110.3 423.96 L111.13 420.48 L111.31 418.59 L112.07 414.9 L112.2 412.83 L111.8 411.24 L109.84 406.83 L110.04 404.68 L110.57 402.63 L111.52 400.78 L112.83 399.14 L113.68 397.52 L113.37 396.02 L112.59 394.63 L112.2 393.31 L111.97 389.63 L105.91 357 L103.95 351.45 L104.5 349.89 L105.38 345.34 L105.72 344.38 L106.48 343.88 L111.97 339 L113.84 338.51 L115.51 339.73 L116.99 343.09 L117.71 347.31 L117.36 350.8 L115.7 357.21 L116.02 359.22 L116.8 361.11 L116.88 362.54 L115.11 363.09 L114.22 363.83 L113.88 365.54 L114.02 367.54 L114.52 369.1 L116.02 367.72 L116.95 366.17 L118 364.91 L119.94 364.39 L125.57 364.43 L126.42 364.98 L127.34 367.2 L131.86 371.62 L133.45 374.97 L134.04 381.49 L135.14 382.45 L136.55 383.36 L137.75 383.34 L138.28 381.49 L137.33 374.11 L137.52 371.01 L139.34 367.91 L147.87 370.31 L150.06 371.45 L150.98 373.34 L152.44 379.32 L153.56 380.95 L154.32 379.76 L159.17 374.94 L160.74 373.8 L163.35 373.94 L164.87 374.99 L166.63 378.5 L175.21 377.07 L181.5 383.44 L186.78 391.78 L192.41 396.25 L186.1 384.73 L183.63 381.49 L183.17 378.67 L186.53 377.13 L190.98 377.34 L193.68 379.78 L195.8 378.46 L198.98 374.32 L200.85 372.51 L206.91 368.68 L209.08 367.91 L211.86 367.96 L216.89 369.81 L219.68 370.38 L222.22 370.16 L229.19 367.91 L229.19 366.62 L220.54 366.82 L217.16 365.84 L213.79 363.09 L211.14 364.84 L207.94 366.38 L204.55 367.49 L191.24 368.31 L188.97 369.1 L181.22 366.45 L179.04 364.98 L176.45 362.64 L175.05 361.84 L169.58 362.02 L167.73 361.15 L159.48 354.97 L153.51 351.43 L151.04 348.9 L150.06 345.46 L148.88 345.46 L147.9 347.55 L146.92 348.17 L144.76 347.8 L143.36 348.23 L139.48 349.94 L138.28 350.17 L136.9 348.19 L135.88 342.05 L134.04 340.74 L131.6 338.28 L123.34 319.33 L121.16 316.09 L116.36 310.69 L113.15 309.11 L110.12 309.34 L107.43 309.21 L105.13 306.52 L104.99 304 L105.68 294.5 L106.9 292.41 L110.64 292.03 L114.52 291.22 L116.46 290.43 L119.97 288.41 L121.73 287.69 L124.03 287.4 L125.53 287.81 L127.06 288.44 L129.4 288.77 L130.82 288.4 L133.15 286.77 L136.3 285.55 L139.01 283.84 L142.06 282.52 L145.35 282.88 L148.16 285.67 L149.44 289.65 L148.82 293.2 L145.94 294.76 L138.45 293.16 L134.79 293.63 L132.42 297.11 L136.4 295.89 L141.45 296.2 L145.49 298.42 L146.52 302.99 L148.57 302.33 L150.09 301.14 L150.98 299.38 L151.24 297.11 L153.31 299.87 L153.62 304.89 L152.72 309.82 L151.24 312.41 L152.88 317.31 L154.26 318.82 L157.21 319.46 L156.45 316.73 L156.48 313.22 L157.32 310.16 L158.86 308.88 L159.96 307.34 L161.72 299.86 L163.1 297.11 L160.74 293.69 L160.15 290.14 L160.74 281.7 L158.98 261.28 L152.88 245.1 L152.39 240.95 L151.63 238.18 L150.17 236.41 L149.22 234.39 L150.06 230.9 L152.22 227.23 L154.48 225.51 L157 225 L160.11 225 L163.16 224.14 L164.82 222.07 L166 219.71 L167.7 217.96 L170.8 217.42 L180.85 217.69 L183.63 218.55 L185.94 222.32 L187.39 229.7 L188.97 233.36 L190.39 230.43 L191.06 228.27 L196.18 228.86 L198.86 229.84 L201.7 231.85 L206.18 236.96 L209.02 239.17 L212.07 240.47 L215.13 240.93 L217.88 240.33 L219.91 238.35 L220.53 236.09 L220.55 230.99 L221.46 228.47 L224.84 228.03 L229.84 227.38 L248.65 227.45 L296.29 227.6 L300.26 227.61 L351.83 227.79 L390.85 227.91 L403.43 227.95 L455.04 228.13 L454.77 182.97 L454.5 137.82 L454.29 101.71 L454.24 92.66 L453.97 47.48 L453.9 33.64 L452.58 27.03 L453.68 25.21 L454.36 23.19 L454.66 21.08 L454.66 18.92 L454.97 16.09 L456.05 14.12 L457.39 12.31 L458.42 9.88 L458.14 7.59 L457.35 5.35 L457.67 3.78 L503.67 2.09 L508.16 0.49 L510.33 0 L512.74 0.26 L514.43 1.22 L517.94 4.1 L526.79 7 L529.44 7.3 L535.3 6.5 L550.4 6.97 L563.57 5.82 L576.62 6.64 L586.75 5.86 L589.87 5.98 L596.83 7.08 L604.31 7.41 L607.75 6.76 L614.37 4.54 L617.78 4.05 L619.57 3.57 L623.17 1.65 L624.81 1.45 L626.95 2.23 L632.59 5.68 L635.71 6.31 L645.2 4.14 L651.83 4.59 L661.44 7.73 L664.42 8.66 L668.44 7.73 L671.18 9.79 L675.3 11.31 L698.61 14.79 L702.1 14.11 L704.51 12.58 L706.48 10.99 L708.65 10.08 L711.59 10.91 L715.53 12.62 L718.93 13.37 L720.41 11.26 L722.83 12.26 L725.02 12.44 L726.98 11.72 L728.74 10.08 L733.93 11.94 L736.92 12.44 L738.81 11.91 L741.17 10.77 L743.93 11.42 L748.76 13.5 L756.1 12.58 L757.74 11.91 L761.19 8.58 L763.19 7.15 L764.68 6.55 L769.94 6.78 L774.74 7.73 L777.15 9.59 L778.29 10.08 L779.89 10.1 L782.37 9.07 L783.56 8.8 L785.5 9.59 L788.17 11.51 L790.75 13.84 L792.39 15.86 L793.12 18.39 L792.41 23.58 Z M51.98 508.45 L58.22 509.8 L59.61 515.73 L58.98 523.01 L59.13 528.46 L56.08 530.5 L53.6 531.63 L51.24 531.47 L48.55 529.64 L47.03 527.37 L47.02 525.21 L47.5 522.91 L47.5 520.22 L46.71 518.73 L44.34 516.24 L43.75 514.33 L43.75 512.42 L44.13 511.1 L46.11 508.45 L48.04 506.61 L51.79 504.33 L53.26 502.46 L54.18 504.17 L54.25 505.59 L53.47 506.61 L51.98 507.18 Z M117.38 260.73 L118.64 260.79 L117.87 261.25 Z "/>
</g>
</svg>
