<svg xmlns="http://www.w3.org/2000/svg" viewBox="0 0 1000 257.81">
<g fill="#ccc" stroke="#333" stroke-width="0.5" stroke-linejoin="round">
<path fill-rule="evenodd" d="M25.26 257.81 L20.2 253.43 L15.07 251.67 L14.27 249.26 L15.66 246.44 L18 241.53 L17.39 236.38 L10.95 219.53 L10.7 215.48 L11.51 199.52 L10.74 195.08 L8.88 190.55 L3.2 184.02 L1.74 179.5 L4.34 174.03 L3.12 172.25 L0 164.5 L2.99 160.89 L6.55 150.39 L10.01 148.19 L14.07 147.22 L18.39 144.82 L22.18 141.82 L41.6 117.76 L50.11 110.68 L50.8 114.18 L52.66 116.65 L55.53 118.54 L58.93 120.21 L64.79 117.1 L70.69 116.82 L75.83 118.85 L79.37 122.56 L81.16 128.71 L77.52 129.77 L72.04 130.15 L68.23 134.22 L73.39 138.83 L77.77 148.61 L80.15 158.78 L79.37 164.5 L91.61 179.08 L94.3 181.02 L111.1 181.77 L115.87 183.15 L120.21 185.88 L122.8 188.27 L126.21 189.91 L132.96 190.55 L136.18 192.81 L138.08 198.13 L138.23 204.24 L136.26 208.97 L142.79 203.47 L145.75 203.31 L150.09 206.64 L148.14 203.18 L142.07 196.98 L140.8 196.06 L139.96 191.73 L137.64 188.9 L134.07 187.63 L129.45 188.02 L129.45 185.69 L139.22 185.88 L143.77 185.19 L147.81 183.15 L151.1 189.98 L154.91 188.47 L159.42 183.73 L164.83 181.02 L171 179.16 L183.25 171 L189.88 169.15 L199.13 172.05 L200.53 178.82 L199.1 186.65 L199.96 192.66 L205.91 194.31 L213.97 191.88 L225.32 185.69 L225.32 183.15 L221.67 183.55 L218.26 184.72 L215.19 186.61 L212.52 189.27 L209.37 191.6 L207.96 189.61 L206.45 180.25 L206.28 176.44 L205.56 173.11 L203.48 171.72 L201.82 170.9 L200.75 168.83 L200.13 166.15 L199.96 163.33 L201.02 157.07 L203.75 152.82 L217.05 141.66 L219.53 138.97 L220.59 135.38 L222.02 133.72 L225.26 134.31 L230.68 136.52 L277.26 139.06 L295.05 134.83 L301.39 134.22 L305.02 134.4 L306.9 134.72 L308.56 134.8 L311.68 134.22 L314.16 133.13 L315.94 131.63 L317.28 130.24 L318.29 129.55 L325.54 129.1 L346.96 131.65 L353.78 130.91 L373.13 124.88 L376.27 123.07 L382.48 118.57 L385.59 117.65 L388.83 118.79 L393.56 123.74 L396.81 124.88 L401.48 124.8 L404.94 124.24 L408.11 122.88 L411.86 120.21 L414.74 116.82 L420.01 108.51 L423.21 106.22 L427.19 106.06 L431.32 107.37 L435.09 109.48 L438.05 111.84 L441.48 113.4 L445.05 112.8 L448.47 111.43 L451.57 110.68 L457.86 112.47 L461.92 116.68 L465.05 121.41 L468.57 124.88 L480 128.66 L494.57 129.58 L506.45 124.63 L509.78 110.68 L508.05 110.68 L507.41 110.68 L507.32 110.68 L506.69 115.81 L504.26 120.35 L500.78 123.63 L497.12 124.88 L490.88 124.14 L479.49 120.93 L474.34 120.21 L469.59 118.51 L464.12 114.57 L456.08 107.29 L453.16 105.9 L450.21 106.45 L447.32 107.65 L444.66 108.34 L441.66 107.62 L439.11 106.01 L437.11 104.4 L435.67 103.67 L431.08 102.62 L427.32 100.64 L422.97 99.7 L416.43 101.55 L413.05 104.23 L408.17 110.9 L404.86 113.01 L399.19 113.29 L390.25 109.04 L384.46 108.34 L378.46 109.72 L363.83 117.65 L351.98 121.29 L245.59 129.69 L235.07 125.89 L228.53 124.88 L222.29 126.24 L216.29 129.52 L206.96 136.52 L193.05 150.69 L189.88 153.07 L187.34 154.19 L184.88 156.28 L182.37 157.25 L179.53 155.17 L179.34 152.65 L180.33 149.11 L180.94 145.11 L179.53 141.19 L173.92 146.36 L173.23 149.19 L175.22 153.07 L171.9 154.8 L170.48 155.17 L170.48 157.5 L172.06 157.98 L173.6 159.03 L175.22 159.64 L168.65 163.03 L157.34 164.69 L145.86 165.07 L138.73 164.5 L112.99 158.15 L102.25 157.5 L104.26 154.48 L108.33 146.05 L109.06 142.47 L108.33 137.73 L105.04 130.97 L104.29 128.38 L102.94 125.99 L96.81 121.38 L94.72 117.6 L91.42 115.57 L90.72 114.29 L90.72 107.29 L93.56 92.94 L93.18 87.55 L91.3 83.04 L89.11 79.67 L109.91 79.76 L130.54 79.83 L151.15 79.92 L171.78 79.99 L192.43 80.08 L213.04 80.15 L233.67 80.24 L247.2 80.27 L254.28 80.29 L274.91 80.36 L295.56 80.45 L316.17 80.52 L336.8 80.61 L357.45 80.68 L378.06 80.77 L398.71 80.84 L419.32 80.92 L435.57 80.98 L440.79 79.21 L441.46 65.64 L442.27 61.01 L442.68 58.68 L445.29 51.17 L448.72 44.01 L452.41 38.19 L462.76 26.95 L476.8 16.58 L492.18 10.72 L506.56 13.03 L509.66 16 L516.1 24.6 L518.91 26.74 L525.99 25.05 L551.01 8.96 L575.23 0 L582.33 0.35 L602.1 7.9 L635.64 9.42 L647.77 13.48 L654.07 18.6 L659.49 23.02 L663.7 28.85 L666.67 35.15 L673.12 57.32 L675.42 59.93 L689.06 68.24 L693.72 69.92 L697.82 68.6 L718.21 57.13 L731.66 53.5 L745.32 54.54 L759.59 61.25 L766.01 66.44 L770.5 72.1 L773.66 78.63 L778.1 93.47 L780.25 98.05 L783.61 101.73 L786.31 103.68 L810.4 121.02 L818.39 124.79 L824.45 125.64 L830.21 124.24 L849.72 117.24 L868.12 105.69 L874.42 102.95 L893.58 98.59 L908.94 90.67 L915.68 88.98 L919.25 88.85 L925.03 89.35 L928.49 88.8 L932.4 87.05 L939.16 83.05 L943.61 82.33 L950.59 83.55 L959.02 86.5 L967 90.58 L972.56 95.15 L974.27 98.12 L976.39 104.6 L978.12 107.48 L978.81 108.07 L981.15 110.08 L988.68 114.55 L992.04 117.34 L1000 133.49 L998.72 150.96 L989.26 165.45 L972.81 172.68 L947.72 174.85 L934.39 178.45 L921 178.61 L906.75 183.81 L901 183.74 L896.02 185.98 L880.07 198.08 L872.81 201.69 L863.2 202.02 L845.17 198.62 L826.28 200.29 L817.3 199.59 L808.61 197.11 L796.5 190.81 L792.98 188.38 L789.84 185.54 L787.3 182.11 L783.59 178.24 L779.17 176.99 L768.72 176.57 L763.91 175.16 L759.5 172.64 L756.43 169.77 L746.92 160.87 L743.13 159.51 L732.37 162.23 L720.06 163.68 L707.93 162.23 L696.82 157.51 L687.55 149.19 L680.86 139.8 L677.31 137.59 L670.51 136.29 L664.42 134.29 L653.32 127.45 L648.32 125.97 L635.6 124.93 L624.38 121.97 L602.67 110.82 L602.62 110.79 L602.55 110.73 L602.5 110.71 L586 98.69 L571.09 84.61 L561.96 78.63 L554.37 81.7 L547.45 88.92 L539.94 96.76 L535.29 104.35 L534.04 125.48 L532.03 134.92 L525.2 143.86 L515.65 150.24 L504.77 154.29 L493.96 156.29 L481.72 156.31 L445.49 148.55 L435.13 148.09 L427.35 151.03 L419.68 155.23 L409.69 158.59 L404.27 159.14 L381.87 156.94 L377.68 157.05 L362.77 161.83 L339.62 164.07 L335.77 166.21 L334.45 171.02 L333.89 195.22 L333.76 200.54 L333.15 224.84 L330.92 226.49 L318.47 226.38 L309.62 226.3 L288.27 226.1 L244.98 225.71 L171.51 225.04 L121.05 224.58 L66.32 224.08 L51.87 223.94 L40.28 226.54 L35.38 234.88 L34.33 238.15 L29.08 243.35 L26.97 246.14 L25.76 249.95 Z "/>
</g>
</svg>
