<svg xmlns="http://www.w3.org/2000/svg" viewBox="0 0 1000 510.41">
<g fill="#ccc" stroke="#333" stroke-width="0.5" stroke-linejoin="round">
<path fill-rule="evenodd" d="M233.31 238.31 L225.7 190.96 L223.11 182.92 L219.32 176.14 L214.4 170.82 L208.31 167.29 L196.95 165.19 L194.53 163.82 L192.13 161.6 L188.52 159.58 L184.74 158.14 L181.75 157.71 L180.02 158.23 L177.02 160.08 L175.13 160.47 L173.54 159.5 L166.76 149.15 L163.34 136.62 L157.15 125.8 L154.59 119.96 L150.91 120.07 L145.04 122.73 L141.28 121.44 L136.84 114.59 L134.24 112.99 L134.19 111.95 L130.7 105.89 L129.68 105.06 L118.81 100.75 L103.88 98.68 L96.93 99.06 L92.12 100.28 L90.3 100.45 L88.53 99.8 L85.67 96.91 L84.15 96.27 L83.49 95.72 L80.94 92.98 L79.63 91.95 L78.15 91.4 L73.42 90.57 L61.46 84.79 L55.93 84.15 L52.04 89.18 L50.54 87.55 L48.34 82.05 L46.96 79.41 L43.58 75.96 L42.1 73.74 L42.75 67.27 L40.42 61.25 L37.15 55.72 L34.75 52.73 L30.15 50.57 L21.99 48.1 L17.19 43.27 L15.05 42.22 L8.17 41.09 L3.55 39.17 L0 38.39 L0.79 34.83 L10.91 8.36 L12.95 5.1 L16.5 2.72 L26.58 0 L36.84 0.02 L73.61 13.8 L79.54 14.53 L84.2 13.28 L93.84 8.23 L99.26 7.58 L103.61 9.83 L104.93 10.84 L112.42 16.56 L127.7 21.88 L132.51 24.71 L152.91 41.17 L157.48 42.31 L173.01 40.26 L178.09 41.32 L182.92 43.76 L187.51 47.57 L192.7 49.82 L203.36 47.74 L207.89 49.5 L209.24 51.53 L211.34 56.31 L212.72 58.41 L214.88 60.07 L222.66 62.51 L226.59 64.86 L233.21 71.72 L237.23 73.96 L242.69 74.43 L253.61 72.96 L259.03 73.56 L268.74 76.36 L273.42 76.84 L283.81 75.65 L288.18 75.87 L292.49 77.07 L297.18 79.41 L301.89 80.8 L306.67 81.06 L311.43 80.1 L323.21 73.51 L324.03 73.05 L327.83 71.88 L353.05 69.72 L354.25 69.89 L363.24 71.16 L371.71 76.9 L375.64 80.86 L379.94 84.23 L389.03 89.35 L391.91 89.97 L394.02 89.09 L398.02 85.31 L400.61 84.06 L405.28 83.95 L412.23 81.8 L418.16 81.96 L423.89 83.48 L428.05 86.19 L432.24 90.2 L436.57 93.04 L449.28 97.79 L449.29 100.51 L448.15 103.88 L447.74 107.18 L449.09 109.31 L456.46 114.46 L472.45 129.65 L475.38 131.27 L478.23 132.84 L506.83 140.95 L520.75 144.9 L526.39 146.33 L536.65 151.37 L539.14 153.57 L545.31 160.93 L548.06 162.71 L561.94 166.1 L565.9 168.12 L568.6 169.49 L570.26 175.41 L566.83 180.32 L561.62 184.05 L557.43 188.16 L556.97 194.14 L561.22 199.43 L567.94 201.24 L575.22 201.8 L581.23 203.39 L584.63 206 L586.52 207.46 L589.34 208.85 L592.12 208.41 L594.33 206.47 L598.02 201.33 L600.03 199.11 L606.53 196.08 L620.8 195.4 L626.02 193.81 L627.74 193.28 L629.82 191.15 L632.62 188.28 L635.38 182.56 L638.86 178.43 L652.08 178.15 L658.15 176.17 L669.75 169.93 L674.06 168.71 L681.54 168.14 L687.9 168.95 L693.53 170.77 L694.08 170.94 L699.59 174.11 L701.92 176.03 L706.31 180.73 L708.08 183.46 L711.76 195.28 L713.61 197.22 L714.93 195.81 L717.34 184.64 L721.65 175.27 L722.59 172 L726.41 166.84 L732.91 168.14 L749.18 179.87 L751.82 181.19 L754.54 181.77 L757.36 181.25 L758.71 180.65 L762.86 178.8 L765.71 178.45 L770.54 180.28 L774.83 184.01 L789.51 201.93 L791.15 204.66 L792.33 207.31 L793.97 210.97 L795.48 213.32 L800.44 215.38 L806.78 214.48 L818.82 210.85 L827.4 211.05 L839.89 213.27 L851.52 217.88 L857.62 225.18 L857.61 225.35 L857.14 230.01 L840 274.99 L841.49 279.68 L845.99 282.59 L851.98 285.4 L868.35 296.91 L878.75 299.62 L880.81 301.66 L885.03 312.15 L886.62 314.38 L888.62 315.5 L891.42 315.67 L892.48 315.25 L894.46 313.7 L895.71 313.39 L896.68 313.88 L899.17 316.08 L900.42 316.73 L903.11 316.54 L905.15 316.02 L906.61 317.02 L907.61 321.4 L911.22 323.09 L915.79 323.21 L924.54 321.39 L924.59 321.37 L924.64 321.35 L925.9 321 L927.16 320.88 L928.42 321 L929.87 321.4 L933.77 324.57 L940.28 332.4 L944.52 334.33 L953.38 335.08 L957.03 337.13 L960.66 342.05 L954.98 353.81 L951.78 359.01 L945.37 366.86 L943.2 368.81 L940.82 369.98 L937.72 370.28 L930.74 368.68 L927.49 369.04 L924.61 372.11 L923.2 378.96 L923.27 389.08 L925.17 398.05 L929.18 401.41 L930.49 400.33 L931.23 398.49 L932.22 396.99 L934.28 396.91 L934.62 398.02 L937.93 404.38 L938.15 405.82 L939.34 413.6 L940.67 417.93 L943.23 421.24 L951.03 426.65 L952.77 427.46 L955.8 428.21 L962.78 434.72 L977.29 440.88 L984.61 445.26 L986.97 450.8 L989.28 449.89 L990.32 450.58 L990.49 450.7 L991.5 452.4 L994.38 455.64 L999.06 462.84 L1000 465.73 L999.54 465.98 L998.31 465.79 L997 467.34 L996.7 468.87 L996.54 472.34 L996.23 473.64 L995.35 474.9 L993.38 476.75 L992.5 477.98 L991.05 483.32 L990.26 490.11 L989.02 496.47 L988.19 497.64 L986.14 500.54 L983.21 501.01 L980.37 500.23 L977.45 499.95 L974.3 501.93 L972.62 505.1 L971.79 508.2 L970.48 510.27 L967.22 510.41 L964.55 508.77 L960.38 503.13 L957.94 500.97 L949.07 498.07 L945.97 496.22 L937.19 488.22 L932.86 482.78 L930.51 480.47 L927.83 479.53 L916.62 479.58 L913.3 480.35 L909.49 482.8 L905.58 485.32 L902.64 486.41 L899.03 486.73 L891.84 485.84 L869.72 477.82 L862.2 473.2 L859.33 471.44 L853.17 466.14 L849.61 460.48 L852.92 456.34 L856.34 455.12 L858.47 453.95 L858.28 452.72 L854.8 451.33 L845.1 449.34 L823.67 440.96 L818.82 436.37 L816.66 433.88 L814.46 433.48 L809.53 434.99 L806.52 435.26 L804.2 434.8 L797.03 431.07 L794.24 429.62 L789.37 429.36 L784.58 431.04 L761.96 449.83 L747.73 461.63 L745.89 462.82 L742.51 465.89 L740.69 467.14 L735.04 467.32 L720.65 465.02 L717.76 467.97 L718.99 470.76 L724.58 473.47 L725.59 474.9 L726.17 475.73 L724.69 477.8 L720.78 478.33 L698.92 477.88 L692.69 475.39 L689.67 474.98 L686.47 476.44 L684.54 479.01 L682.72 482.15 L680.53 484.11 L677.47 483.23 L676.65 481.73 L676.11 479.7 L675.33 478.21 L673.73 478.26 L672.76 479.01 L669.75 482.37 L666.13 483.43 L662.78 483.19 L659.52 482 L651.57 477.15 L649.73 476.94 L647.97 477.51 L646.75 478.61 L645.68 479.85 L644.3 480.79 L640.8 481.37 L638.04 480.32 L630.83 475.29 L626.79 473.61 L625.2 473.63 L623.43 474.89 L623.04 476.37 L622.94 478.04 L622.18 479.98 L619.84 482.32 L616.91 483.91 L613.77 484.48 L607.45 482.7 L604.48 483.02 L598.49 485.73 L595.07 486.57 L595 486.59 L591.74 487.39 L577.94 487.69 L571.54 490.36 L564.59 496.49 L561.67 497.73 L558.03 498.04 L533.72 494.6 L527.39 494.85 L519.34 498.14 L517.88 498.46 L516.41 498.43 L514.91 498.06 L516.61 492.91 L514.49 488.24 L510.46 484.48 L506.39 482.1 L501.69 480.83 L497.35 481.14 L483.64 484.98 L481.49 483.42 L477.92 474.61 L474.9 471.17 L471.97 470.81 L468.69 471.18 L464.64 469.89 L472.7 465.74 L474.88 463.84 L476.89 460.97 L476.69 459.94 L472.33 459.37 L467.73 457.17 L460.54 450.83 L449.57 443.32 L447.41 440.94 L442.96 432.53 L441.8 431.2 L440.48 430.68 L439.76 429.9 L439.15 428.99 L438.25 428.14 L433.86 426.65 L432.72 425.97 L431.48 423.73 L430.65 421.25 L429.59 419.95 L427.59 421.23 L423.92 425.47 L421.12 424.54 L418.28 421.41 L414.46 419.13 L415.71 417.16 L418.65 414.66 L419.85 413.21 L420.47 411.44 L420.78 409.46 L421.27 407.45 L422.42 405.59 L419.59 404.22 L398.73 402.42 L391.21 403.06 L388.29 404.03 L387.65 404.24 L387.44 404.31 L384.45 406.63 L382.92 409.97 L381.52 418.08 L380.03 421.29 L376.79 424.73 L372.33 431.5 L369.23 433.55 L367.43 433.65 L365.47 433.75 L339.33 423.51 L331.99 423.93 L328.42 423.64 L325.94 421.29 L323.81 420.02 L321.55 419.94 L316.87 421.29 L314.74 420.32 L312.64 419.97 L310.55 420.27 L308.39 421.29 L303.12 422.97 L292.45 418.88 L286.46 421.29 L284.41 422.87 L279.74 429.59 L273.76 434.71 L272.33 435.55 L270.51 434.78 L264.58 429.24 L262.61 428.58 L258.25 428.04 L256.51 427.33 L255.88 426.07 L255.91 424.45 L256.08 422.96 L255.88 422.18 L254.74 422.16 L250.99 423.88 L246.54 424.23 L244.64 423.87 L228.77 417.16 L238.54 399.53 L242.93 393.57 L251.92 387.68 L254.43 381.67 L261.41 370.16 L261.8 367.81 L261.81 366.01 L262.03 364.42 L262.94 362.65 L265.37 359.31 L266.19 357.64 L266.51 355.83 L266.51 339.62 L266.51 338.75 L264.73 326.14 L264.47 321.59 L263.79 318.81 L257.76 308.19 L253.24 300.24 L251.66 298.91 L250.13 297.22 L249.4 293.39 L249.11 286.55 L247.91 277.46 L240.02 249.82 L239.43 248.61 L238.38 247.11 L234.38 243.08 L233.85 241.66 Z "/>
</g>
</svg>
