<svg xmlns="http://www.w3.org/2000/svg" viewBox="0 0 1000 1359.9">
<g fill="#ccc" stroke="#333" stroke-width="0.5" stroke-linejoin="round">
<path fill-rule="evenodd" d="M868.44 1116.07 L865.18 1122.96 L864.94 1124.53 L865.5 1124.33 L866.66 1126.63 L867.2 1127.13 L868.57 1127.79 L867.11 1129.18 L866.83 1131.15 L867.4 1136.48 L867.33 1139.26 L866.99 1141.63 L866.31 1143.8 L864.44 1147.86 L863.92 1148.64 L863.02 1149.54 L862.15 1149.91 L859.89 1150.28 L859.51 1150.2 L858.59 1152.07 L857.62 1156.47 L857.38 1156.22 L852.92 1154.2 L851.25 1151.63 L849.48 1150.31 L847.57 1149.28 L836.27 1146.11 L832.62 1146.6 L829.05 1147.94 L828.07 1148.85 L827.48 1150 L827.54 1150.6 L827.87 1151.34 L828.31 1154.31 L829.32 1155.89 L829.56 1157.34 L829.26 1158.94 L827.79 1162.06 L827.27 1163.57 L827.07 1165.1 L827.27 1169.74 L827.05 1171.46 L826.56 1172.59 L826.07 1173.44 L825.85 1174.28 L825.23 1177.77 L823.71 1180.33 L813.05 1189.67 L809.39 1191.73 L794.36 1194.36 L783.06 1198.86 L781.3 1200.12 L777.24 1204.03 L773.72 1206 L772.03 1207.37 L772.18 1207.76 L766.14 1208.93 L764.49 1209.82 L763.5 1210.91 L761.51 1214.06 L760.08 1215.7 L755.75 1218.75 L755.31 1219.29 L753.75 1221.74 L753.09 1222.04 L752.38 1222.01 L751.68 1222.25 L751.01 1223.42 L750.8 1225.62 L751.35 1227.77 L752.32 1229.74 L753.33 1231.35 L761.01 1239.41 L762.64 1243.05 L762.93 1244.8 L762.97 1245.03 L763.56 1246.74 L764.44 1248.03 L767.05 1249.6 L769.25 1251.88 L770.13 1252.36 L771.96 1254.16 L775.66 1262.77 L778.02 1266.3 L778.52 1266.81 L771.49 1278.13 L770.89 1279.41 L770.68 1280.44 L770.65 1281.48 L770.45 1282.55 L769.76 1283.7 L769.73 1283.72 L767.7 1286.87 L769.49 1288.68 L775.56 1289.81 L777.19 1289.53 L779.96 1288.32 L781.65 1288.59 L783 1289.61 L784.34 1291.24 L786.47 1294.9 L787.34 1297.25 L787.64 1299.32 L787.58 1301.29 L787.34 1303.24 L787.07 1303.6 L785.77 1306.8 L785.7 1307.25 L783.95 1309.56 L783.65 1309.46 L783.74 1313.12 L783.98 1313.03 L783.86 1313.26 L782.82 1315.88 L782.55 1316.3 L782.55 1319.12 L782.64 1320.12 L782.89 1321 L783.24 1321.83 L783.52 1322.81 L783.55 1324.15 L780.44 1327.85 L779.69 1328.51 L778.51 1328.57 L777.84 1328.15 L777.23 1327.51 L776.18 1326.95 L775.04 1326.98 L774.14 1327.47 L773.22 1327.79 L772.02 1327.3 L766.68 1323.26 L761.7 1317.76 L760.77 1317.01 L759.75 1316.65 L758.07 1316.35 L755.37 1314.17 L754.8 1310.19 L756.13 1306.44 L759.1 1304.96 L756.94 1302.86 L754.11 1300.99 L752.4 1298.88 L753.53 1296.05 L751.65 1296.29 L745.53 1294.71 L741.65 1294.71 L737.76 1295.65 L735.68 1296.7 L731.86 1300.11 L730.82 1301.05 L729.12 1301.8 L726.82 1302.25 L724.58 1302.2 L723.05 1301.44 L719.8 1298.82 L718.92 1297.76 L718.32 1296.44 L717.19 1292.98 L716.68 1292.05 L714.89 1291.7 L710.6 1293.35 L708.76 1293.65 L702.45 1292.3 L700.08 1292.64 L697.64 1293.92 L696.46 1294.1 L695.38 1293.13 L694.78 1291.35 L695.14 1290.22 L695.84 1289.24 L696.22 1287.96 L696.5 1286.23 L696.84 1285.49 L696.57 1285.55 L694.98 1286.25 L694.04 1286.84 L691.41 1289.04 L689.68 1289.74 L689.9 1291.06 L690.25 1291.96 L691.05 1293.02 L691.94 1293.91 L692.49 1294.28 L692.8 1295.17 L692.98 1299.5 L692.86 1301.01 L692.47 1302.05 L689.36 1306.05 L688.49 1306.23 L663.43 1305.13 L654.28 1307.01 L653.05 1307.74 L651.96 1310.49 L650.83 1310.87 L644.69 1309.6 L635.81 1309.56 L631.05 1308.61 L629.03 1308.54 L628.66 1309.01 L625.62 1311.66 L624.87 1313.37 L624.02 1317.11 L623.47 1318.61 L621.48 1320.82 L619.11 1321.76 L614 1322.61 L611.53 1321.83 L608.85 1321.46 L606.37 1322.05 L601.23 1327.98 L602.57 1328.35 L603.75 1329.13 L604.17 1330.33 L603.23 1331.93 L601.46 1332.69 L596.73 1332.8 L594.7 1333.45 L592.59 1335.42 L591.15 1337.37 L589.6 1339.04 L587.22 1340.13 L584.6 1339.83 L584.84 1335.45 L582.51 1334.49 L579.76 1335.25 L572.63 1340.19 L570.5 1340.85 L559.13 1340.68 L557.61 1339.79 L556.49 1337.61 L556.75 1337.59 L557.1 1336.85 L557.35 1335.73 L557.31 1334.65 L556.99 1333.92 L551.54 1328.03 L545.93 1325.42 L545.19 1324.14 L548.7 1321.74 L549.62 1320.63 L547.11 1318.74 L545.95 1318.08 L544.44 1317.97 L542.9 1318.42 L538.5 1320.44 L535.28 1320.83 L534.34 1320.54 L533.8 1319.78 L533.44 1318.94 L533 1318.43 L518.61 1312.97 L515.97 1312.94 L514.46 1314 L512.25 1317.09 L510.87 1318.21 L509.58 1318.43 L504.94 1317.72 L503.23 1316.94 L502.34 1316.3 L501.77 1315.56 L501.58 1314.17 L501.98 1313.15 L502.51 1312.37 L502.65 1311.74 L502.16 1310.23 L501.78 1309.93 L500.95 1310.26 L499.12 1310.59 L497.49 1311.23 L497.64 1312.63 L498.59 1314.41 L499.31 1316.22 L499.18 1317.71 L498.07 1324.15 L499.61 1324.99 L500.54 1326.03 L501.13 1327.45 L501.58 1329.45 L501.6 1332.91 L500.61 1336.53 L499.02 1339.79 L497.2 1342.21 L496.27 1342.84 L493.97 1343.65 L492.84 1344.41 L492.19 1345.42 L489.77 1350.31 L487.8 1352.95 L485.67 1354.9 L480.79 1357.91 L478.42 1358.83 L471.39 1359.69 L469.75 1359.9 L469.26 1359.61 L469.7 1358.61 L470.71 1356.79 L471.15 1356.49 L472.59 1356.06 L473.12 1355.53 L473.39 1354.46 L473.33 1353.5 L473.08 1352.44 L475.06 1346.49 L475.14 1343.59 L473.13 1342.5 L468.34 1343.38 L467.04 1344.81 L466.58 1345.17 L466.02 1345.17 L464.89 1344.48 L464.35 1344.41 L462.92 1345.09 L462.08 1345.71 L461.35 1345.75 L460.29 1344.72 L459.71 1343.18 L459.6 1341.45 L459.31 1339.77 L458.12 1338.37 L460.6 1336.44 L461.1 1334.74 L460.14 1332.85 L454.78 1324.97 L453.54 1325.54 L452.57 1326.39 L451.61 1326.81 L450.42 1326.09 L450.25 1325.15 L450.21 1324.66 L450.21 1324.17 L449.22 1322 L447.86 1320.63 L446.72 1319.12 L446.42 1316.45 L445.1 1317.51 L443.45 1317.83 L440.21 1317.57 L436.93 1316.35 L436.37 1316.5 L435.03 1317.37 L434.15 1317.44 L431.93 1316.29 L431.52 1314.58 L431.73 1312.61 L431.37 1310.7 L430.1 1309.3 L428.55 1308.74 L426.92 1308.93 L425.34 1309.77 L422.96 1312.55 L421.61 1315.49 L420.03 1317.96 L417.05 1319.38 L410.07 1319.5 L403.69 1317.74 L403.22 1317.61 L402.96 1317.45 L373.05 1298.77 L368.81 1297.78 L364.73 1297.79 L363.26 1295.47 L357.23 1295.47 L345.06 1294.1 L343 1294.92 L341.27 1296.81 L337.3 1298.08 L333.03 1298.49 L330.36 1297.79 L327.19 1295.42 L327.11 1295.33 L325.57 1293.79 L325.55 1292.66 L327.56 1292.19 L324.74 1289.52 L321.18 1287.44 L318.25 1287.3 L317.27 1290.48 L318.16 1291.48 L312.4 1291.56 L312.19 1290.51 L311.92 1289.27 L311.05 1288.2 L310.59 1286.87 L310.95 1285.81 L312.4 1283.62 L312.69 1283.01 L311.97 1281.37 L310.9 1281.16 L309.7 1281.41 L308.57 1281.16 L307.76 1279.87 L306.9 1277.99 L305.85 1276.39 L304.44 1275.92 L303.45 1276.96 L302.89 1280.5 L301.54 1281.39 L300.46 1280.59 L300.08 1278.62 L299.98 1276.52 L299.81 1275.34 L297.79 1274.42 L295.08 1274.27 L293.34 1275.27 L294.36 1277.83 L292.71 1278.67 L286.84 1279.84 L285.62 1279.81 L284.76 1280.32 L283.29 1282.5 L282.78 1283.68 L281.96 1286.92 L280.8 1288.01 L278.03 1289.53 L276.96 1290.76 L276.84 1291.96 L277.3 1293.14 L277.57 1294.52 L276.87 1296.28 L278.59 1296.91 L279.13 1296.99 L281.92 1299.13 L284.18 1300.42 L286.12 1300.33 L287.73 1299.5 L289.24 1298.41 L290.87 1297.59 L296.17 1296.69 L297.69 1296.95 L298.93 1297.46 L299.44 1297.67 L300.43 1297.76 L299.81 1301.6 L299.1 1301.24 L299.03 1300.24 L298.93 1299.98 L298.46 1300 L297.88 1300.22 L297.49 1300.56 L297.24 1301.46 L297.42 1302.19 L297.68 1302.82 L297.73 1303.38 L297.59 1304.48 L297.65 1305.63 L297.52 1306.84 L297.05 1307.68 L296.81 1308.09 L295.35 1308.59 L294.37 1307.38 L294.14 1307.1 L292.84 1304.91 L291.17 1303.33 L287.9 1303.66 L284.56 1305.88 L283.29 1308.64 L283.15 1309.41 L280.12 1309.93 L279.79 1309.98 L272.82 1309.94 L268.68 1308.84 L267.61 1308.13 L266.84 1306.58 L266.26 1305.02 L265.67 1304.32 L264.41 1304.18 L261.58 1303.31 L259.61 1303.32 L253.72 1304.32 L253.16 1304.68 L252.62 1305.47 L251.87 1306.26 L249.88 1306.86 L247.51 1308.14 L246.62 1308.84 L245.7 1309.9 L245.26 1310.72 L244.77 1311.42 L243.71 1312.15 L238.81 1313.25 L224.62 1313.25 L224.33 1312.56 L224.11 1311.05 L223.76 1309.53 L223.1 1308.84 L216.06 1308.41 L214.53 1307.63 L212.55 1310.74 L210.81 1312.82 L208.76 1313.99 L204.46 1314.89 L199.68 1315.88 L197.28 1315.56 L195.69 1314.72 L191.64 1312.57 L191.92 1312.57 L194.49 1312.6 L195.65 1311.47 L197.08 1307.42 L194.62 1307.68 L189.05 1309.36 L189.5 1307.71 L189.76 1307.13 L189.52 1305.59 L188.95 1304.74 L188.25 1304.13 L187.59 1303.31 L185.14 1298.39 L183.66 1296.32 L182.05 1295.47 L181.62 1294.73 L181.27 1292.98 L180.97 1289.5 L181.35 1288.52 L183.15 1286.6 L183.8 1285.53 L183.85 1282.88 L182.5 1277.2 L182.79 1274.94 L184.35 1269.68 L184.96 1268.9 L186.43 1268.09 L186.67 1266.27 L186.11 1263.25 L186.13 1262.53 L186.04 1262.12 L185.98 1261.7 L186.11 1261.02 L186.43 1260.32 L187.15 1259.62 L187.59 1258.81 L188.28 1257.18 L188.48 1256.46 L188.35 1253.81 L188.93 1251.64 L191.84 1248.54 L192.88 1246.58 L192.64 1241.5 L187.93 1233.17 L187.59 1226.44 L188.28 1223.25 L189.01 1220.76 L189.8 1219.3 L190.55 1218.31 L191.1 1217.03 L191.31 1214.67 L192.03 1212.67 L198.93 1202.98 L200.08 1200.61 L200.77 1197.83 L201 1194.5 L201.75 1191.06 L203.51 1189.61 L205.52 1188.52 L207.01 1186.11 L207.15 1183.81 L206.6 1181.63 L205.89 1179.53 L205.54 1177.55 L205.66 1175.4 L206.46 1171.06 L207.01 1169.18 L207.77 1167.63 L208.48 1166.56 L209.03 1164.97 L209.26 1161.83 L209.82 1160.34 L211.13 1159 L213.86 1156.83 L213.86 1155.7 L212.57 1152.21 L212.58 1146.47 L213.51 1141.09 L218.11 1133.88 L219.38 1132.98 L221.18 1132.39 L222.85 1130.94 L225.84 1127.35 L227.13 1126.51 L228.58 1125.1 L229.75 1123.53 L230.23 1122.22 L230.37 1119.07 L230.94 1117.59 L232.18 1117.18 L235.25 1117.13 L236.08 1116.83 L236.7 1116.3 L236.94 1115.38 L237.18 1113.82 L237.68 1112.94 L238.19 1112.46 L238.43 1112.05 L239.39 1112 L243.39 1109.85 L244.05 1109.27 L245.4 1106.99 L250.35 1093.33 L253.76 1086.86 L256 1084.28 L256.04 1084.22 L254.78 1083.03 L244.06 1080.8 L226.77 1071.55 L224.8 1071.32 L218.59 1071.98 L209.52 1069.34 L208.31 1069.66 L205.75 1071.06 L204.42 1071.41 L203.37 1071.25 L201.06 1070.43 L199.86 1070.22 L198.48 1070.51 L197.21 1071.06 L195.9 1071.4 L195.48 1071.3 L194.39 1071.06 L193.38 1070.19 L192.32 1068.03 L191.52 1067.03 L189.09 1065.77 L184.33 1064.93 L181.95 1063.42 L180.52 1061.6 L178.05 1057.58 L176.51 1055.98 L176.71 1055.43 L176.98 1055.05 L177.79 1054.52 L177.07 1052.11 L175.09 1051.39 L170.38 1051.07 L169.91 1049.21 L167.79 1049.03 L165.67 1049.67 L165.23 1049.8 L163.42 1050.84 L162.91 1051.66 L162.12 1054.09 L161.57 1055.01 L160.75 1055.39 L158.51 1055.68 L157.54 1056.01 L156.86 1056.85 L155.71 1059.2 L155.06 1059.86 L154.38 1059.76 L151.45 1058.38 L142.05 1058.3 L140.33 1057.71 L138.62 1056.82 L134.45 1053.78 L133.85 1053.7 L132.86 1054.68 L132.95 1055.6 L133.3 1056.47 L133.13 1057.32 L129.78 1059.43 L127.38 1057.54 L126.12 1052.97 L126.18 1047.08 L123.82 1046.96 L117.01 1043.09 L115.81 1042.91 L112.63 1043.22 L108.07 1042.18 L106.98 1042.45 L106.35 1044.77 L107.17 1047.47 L107.59 1050.23 L105.71 1052.74 L104.32 1053.06 L100.07 1051.48 L95.21 1051.44 L93.93 1050.89 L92.53 1048.55 L92.84 1046.51 L93.39 1044.4 L92.7 1041.75 L92.26 1041.76 L90.8 1042.72 L90.31 1042.78 L90.02 1042.18 L89.8 1040.87 L89.68 1040.5 L89.33 1039.8 L88.47 1036.7 L88.01 1036.22 L86.5 1035.67 L85.92 1035.22 L85.79 1034.54 L86.02 1032.85 L85.85 1032.14 L78.59 1025.12 L76.77 1022.9 L76.08 1020.96 L76.68 1019.43 L78.62 1019.33 L79.09 1017.98 L78.72 1016.98 L73.42 1011.33 L72.67 1010.22 L72.88 1010.15 L72.86 1009.21 L72.56 1007.83 L71.89 1006.43 L70.02 1004.62 L60.01 999.6 L58.8 999.39 L57.91 999.74 L55.84 1001.17 L54.68 1001.4 L53.74 1001.3 L53.75 1000.06 L53.41 994.98 L54.13 989.55 L54.34 987.94 L54.34 982.61 L54.96 980.76 L56.6 978.17 L59.44 974.66 L60.55 972.38 L61.37 971.16 L61.67 970.4 L61.56 969.29 L60.9 968.64 L60.2 968.16 L60.01 967.6 L61.7 965.22 L69.71 960.02 L69.5 959.65 L68.75 958.79 L69.13 957.97 L69.63 957.72 L70.58 958.09 L69.8 957.04 L69.28 955.83 L69.04 954.45 L69.12 952.95 L70.18 952.01 L70.22 951.36 L69.93 950.61 L69.94 949.41 L70.46 945.74 L70.61 945.63 L70.63 944.2 L70.86 943.97 L70.9 944 L70.31 943.37 L69.88 943.34 L66.52 942.34 L61.29 942.34 L59.39 941.82 L57.54 940.64 L54.41 937.64 L52.56 936.47 L51.6 936.45 L49.97 937.44 L49.09 937.36 L48.97 936.8 L48.32 935.05 L47.88 933.88 L47.36 932.95 L45.77 931.92 L42.08 930.27 L40.37 928.53 L36.79 919.87 L34.92 916.83 L33.75 919.16 L32.88 917.68 L31.22 912.92 L29.34 910.04 L28.87 908.66 L29.17 906.78 L28.49 903.23 L27.78 901.84 L26.6 901.15 L27.61 899.17 L28.02 898.62 L27.77 898.58 L27.12 898.64 L26.93 898.52 L27.61 893.74 L28.14 891.41 L28.9 888.95 L29.89 887.78 L30.21 886.63 L29.82 885.59 L28.72 884.69 L28.96 883.86 L29.32 881.95 L29.52 881.38 L30.46 880.8 L32.63 880.63 L33.44 880.1 L34.1 878.49 L34.16 876.57 L33.55 874.63 L32.1 873.01 L33.23 871.53 L35.7 869.78 L36.77 868.12 L39.03 867.05 L43.72 865.73 L45.73 863.91 L45.24 862.38 L45.47 860.66 L46.19 859.02 L47.27 857.69 L48.75 856.84 L49.97 856.94 L51.21 857.43 L52.67 857.69 L55.57 857.16 L56.93 855.71 L56.81 854.41 L56.71 853.32 L52.92 846.72 L52.77 844.69 L53.53 842.4 L54.31 838.37 L54.38 835.52 L53.97 834.93 L53.19 834.78 L52.25 833.23 L51.66 831.5 L51.34 829.96 L51.61 828.58 L52.83 827.39 L50.84 827.27 L46.12 826.18 L44.45 825.39 L44.21 825.15 L43.96 825.06 L43.69 825.15 L43.45 825.39 L39.77 826.53 L38.68 826.48 L37.82 825.78 L36.88 823.82 L36 823 L36.87 821.52 L35.59 821.43 L34.72 821.05 L34.57 820.27 L35.43 818.95 L33.61 816.66 L35.62 813.5 L39.06 810.63 L41.49 809.18 L41.49 808.56 L42.73 807.05 L43.5 805.52 L43.25 804.49 L35.72 804.3 L33.48 803.12 L32.2 800.65 L33.66 799.72 L27.02 789.55 L24.92 787.45 L23.11 787.28 L18.79 788.47 L17.35 788.3 L16.92 786.86 L17.32 785.04 L17.27 783.39 L15.45 782.43 L15.3 782.11 L15.28 781.8 L15.35 781.49 L15.53 781.17 L15.77 778.92 L15.06 777.87 L13.98 777.11 L13.14 775.67 L12.68 773.46 L14.34 773.88 L15.9 772.41 L16.48 770.36 L16.24 768.77 L16.14 767.28 L17.1 765.55 L18.6 764.69 L21.05 764.91 L22.27 763.44 L22.94 761.66 L22.97 760.29 L22.05 756.73 L22.25 755.59 L22.82 754.65 L23.04 753.96 L19.48 752.71 L16.91 751.1 L16.07 750.17 L15.79 748.8 L15.63 746.3 L16.05 744.86 L16.72 743.4 L16.49 742.5 L12.58 742.97 L9.72 742.02 L8.21 741.82 L6.73 742.24 L3.9 743.64 L2.41 743.95 L2.3 739.58 L0.62 734.6 L0 730.54 L3.05 728.92 L4.56 729.78 L5.86 731.46 L7.32 732.8 L9.32 732.59 L10.66 731.11 L12.76 726.69 L14.22 725 L24.31 717.06 L30.52 713.68 L32.15 711.52 L29.86 709.38 L32.35 707.33 L33.22 706.83 L30.71 705.96 L25.28 709.71 L22.72 708.28 L21.95 705.06 L22.26 701.18 L23.2 697.71 L24.31 695.79 L26.61 692.97 L32.2 682.62 L33.34 681.5 L36.11 679.56 L37.2 678.02 L37.78 675.85 L38.12 672.02 L38.75 670.49 L37.11 668.51 L37.25 665.29 L38.09 661.57 L38.48 658.11 L37.95 654.93 L37.17 649.2 L32.78 644.1 L25.52 634.08 L25.04 631.92 L25.63 629.41 L26.9 625.48 L19.52 622.23 L17.02 619.03 L18.48 614.04 L17.4 612.93 L14.97 611.07 L13.72 610.47 L10.55 610.55 L9.47 610.1 L9.56 608.21 L10.2 607.57 L11.98 605.8 L12.17 602.23 L10.72 598.82 L8.24 596.91 L8.61 595.34 L10.43 594.05 L14.88 593.26 L16.99 592.36 L19.24 590.67 L20.81 589.83 L25.25 588.63 L28.79 589.58 L31.36 590.24 L33.12 590.68 L31.65 588.36 L27.58 584.07 L26.23 583.04 L29.94 581.02 L33.45 582.69 L36.96 585.54 L40.64 587.06 L44.05 586.31 L44.95 586.42 L45.73 587.18 L46.93 589.35 L47.43 589.96 L51.61 590.59 L53.38 591.63 L53.71 594.38 L57.8 593.24 L58.25 591.47 L57.36 587.49 L64.35 589.57 L66.57 589.57 L68.37 588.75 L73.74 584.61 L84.59 580.89 L94.24 580.58 L97.2 578.97 L99.73 575.94 L102.22 571.4 L103.12 570.42 L103.95 570.27 L104.5 569.73 L104.6 567.57 L104.33 566.38 L103.77 565.52 L100.95 562.53 L93.83 558.53 L91.44 557.82 L89.7 556.58 L89.48 553.88 L90.23 552.03 L91.21 551.57 L92.36 551.48 L93.67 550.82 L94.55 549.71 L95.44 547.45 L96.01 546.44 L97.86 544.51 L99.61 543.53 L100.23 543.46 L106.68 542.73 L108.05 541.47 L110.46 536.53 L112.58 534.3 L117.26 532.24 L119.44 530.3 L121.99 526.13 L123.17 524.76 L128.01 521.79 L128.32 520.88 L128.04 520.37 L127.41 519.19 L126.44 515.38 L126.5 512.12 L127.29 509.43 L129.48 504.33 L130.4 497.82 L128.87 493.23 L122.23 482.39 L121.54 482.72 L120.87 483.92 L119.85 484.88 L117.13 485.68 L114.26 485.87 L111.19 485.37 L105.55 483.21 L96.92 481.98 L94.04 480.57 L91.89 478.05 L91.22 475.38 L91.07 472.23 L90.68 469.03 L89.34 466.22 L91.15 466.05 L97.2 462.98 L93.62 459.94 L92.86 458.79 L92.82 457.3 L93.32 455.81 L93.53 454.2 L92.62 452.32 L94.51 450.94 L96.47 449.52 L100.12 448.38 L110.46 448.21 L116.25 449.97 L121.62 449.17 L123.27 449.86 L127.16 451.08 L129.14 447.24 L129.94 440.9 L130.96 421.46 L131.9 415.42 L133.01 412.3 L133.85 409.93 L142.8 395.8 L145.17 389.73 L146.17 383.96 L146.34 377.46 L145.33 364.47 L144.92 362.88 L144.39 361.93 L143.97 360.78 L143.89 358.6 L144.17 357.14 L145.71 353.13 L146.45 350 L146.79 347.17 L146.68 344.24 L146.36 339.07 L147.44 338.48 L148.68 337.14 L149.64 335.81 L150.62 333.86 L150.99 331.68 L150.17 329.67 L152.92 325.48 L154.41 324.72 L156.93 324.68 L159.3 325.3 L163.06 327.7 L165.12 328.53 L162.5 324.66 L158.18 323.07 L133.34 322.18 L129.32 320.17 L127.72 315.09 L127.68 301.53 L128.16 298.45 L130.27 292.88 L130.75 290.15 L131.66 288.48 L133.8 288.51 L138.19 289.47 L138.78 287.99 L139.81 287.43 L140.6 285.64 L140.41 283.33 L139.44 282.01 L136.26 280.4 L134.84 278.93 L134.61 276.52 L136.15 274.49 L139.66 272.03 L143.62 267.58 L145.75 266.11 L149.8 261.88 L158.41 258.51 L175.18 256.6 L176.35 257.41 L177.52 259.02 L180.1 259.64 L196.18 256.27 L228.9 251.67 L237.63 254.22 L237.63 255.59 L236.92 260.76 L239.97 267.43 L244.46 273.24 L248.12 275.8 L248.12 276.93 L247.19 279.26 L248.88 280.09 L251.29 280.78 L252.52 282.7 L252.18 286 L251.15 287.69 L248.79 289.47 L246.82 290.49 L242.53 290.88 L240.61 292.09 L242.6 298.2 L243.6 300.5 L245.08 302.1 L246.47 301.43 L247.71 300.89 L249.54 300.96 L250.81 301.67 L252.89 304.08 L253.67 304.6 L254.56 305.38 L255.45 307.1 L256.59 308.82 L258.16 309.6 L259.99 309.54 L261.32 309.24 L262.49 308.52 L263.83 307.21 L266.13 303.36 L268.56 297.06 L269.15 290.77 L265.99 287.08 L261.7 288.23 L259.41 287.84 L259.63 285.15 L260.56 282.13 L261.34 275.89 L262.26 273.29 L263.72 271.74 L265.57 271 L270.12 270.78 L272.2 271.74 L273.82 274 L275.15 276.51 L276.48 278.31 L280.88 280.58 L290.19 282.42 L294.41 284.46 L294.41 285.82 L291.8 288.08 L289.4 291 L287.64 294.96 L286.97 300.28 L287.1 310.56 L287.74 315.08 L289.21 318.44 L289.53 313.92 L288.37 302.49 L288.46 297.09 L290.13 293.11 L292.63 291.33 L294.91 289.12 L295.9 283.9 L295.36 282.98 L292.56 275.8 L291.73 274.73 L290.59 272.24 L289.63 269.48 L288.86 265.98 L287.32 261.79 L286.97 258.73 L287.21 255.63 L287.88 252.91 L291.96 242.67 L294.85 231.54 L296.72 226.61 L298.28 224.25 L300.41 222.19 L302.82 220.74 L305.29 220.17 L307.56 220.33 L308.86 220.91 L311.54 223.96 L315.41 227.26 L319.53 229.42 L328.06 231.54 L332.74 231.4 L340.67 229.42 L345.03 229.78 L347.07 227.36 L355.74 225.23 L364.37 225.31 L366.23 223.96 L367.72 225.08 L369.51 225.41 L373.21 225.23 L374.16 225.87 L376.56 229.03 L387.17 247.89 L391.56 253.07 L394.62 255.59 L396.12 257.53 L397.61 263.1 L405.1 274.18 L406.77 275.71 L408.79 276.62 L411.39 276.93 L412.75 277.6 L419.23 282.07 L426.58 283.72 L432.58 285.06 L434 284.46 L432.64 282.07 L428.55 279.67 L418.77 278.53 L414.77 276.93 L406.91 271.82 L403.32 267.75 L402.05 261.88 L401.73 256.86 L401.3 253.65 L400.21 252.64 L395.09 249.78 L393.45 249.18 L390.78 246.73 L388.24 241.19 L386.51 235.23 L386.35 231.54 L382.38 229.96 L375.49 223.98 L371.37 221.45 L367.3 220.48 L353.45 220.17 L349.3 218.24 L346.52 217.46 L345.25 218.27 L344.11 220.17 L341.58 219.32 L337.75 216.39 L334.1 211.85 L325.08 193.48 L329.28 191.53 L331.33 191.37 L333.94 192.1 L338.23 194.99 L340.57 195.78 L342.96 194.64 L343.79 192.6 L344.68 188.92 L345.28 184.94 L345.25 182.06 L343.98 180.15 L341.96 178.35 L340.47 176.44 L340.78 174.32 L340.78 173.16 L338.12 172.35 L334.31 173.05 L330.76 174.78 L328.8 176.98 L328.06 176.98 L325.08 171.78 L323.16 167.59 L322.84 166.68 L323.73 162.95 L325.4 159.74 L326.54 156.79 L325.76 153.96 L325.76 152.68 L327.1 151.66 L331.72 150.32 L333.6 150.14 L334.75 149.19 L336.44 146.87 L338.15 143.9 L339.24 141.09 L336.74 141.58 L332.63 145.16 L330.29 146.2 L330.5 145.58 L330.81 144.25 L331.04 143.65 L327.73 144.04 L322.04 145.8 L318.68 146.2 L314.79 145.52 L313.1 146.2 L309.47 149.71 L308.19 150.14 L305.29 149.08 L302.18 146.23 L299.93 142.12 L299.62 137.26 L301.16 135.34 L304.14 133.97 L307.49 133.3 L310.06 133.42 L310.06 132.15 L308.09 131.68 L306.59 130.25 L305.16 129.79 L303.43 132.15 L302.49 130.09 L302.81 127.98 L303.83 126.02 L304.92 124.47 L307.24 125.52 L316.08 123.08 L328.06 123.08 L330.83 122.34 L333.14 120.89 L337.75 116.8 L341.95 114.71 L343.77 113.32 L344.51 110.27 L344.52 105.72 L341.74 101.41 L332.84 91.76 L331.57 89.76 L331.04 87.76 L330.03 86.88 L327.79 86.95 L325.49 87.6 L324.26 88.46 L323.52 87.05 L327.26 84.48 L323.45 74.23 L322.04 71.61 L318.9 69.64 L313.01 64.44 L309.31 62.6 L309.31 61.3 L309.92 57.88 L308.5 54.04 L306.38 50.25 L304.92 46.99 L304.3 42 L304.78 37.61 L306.26 32.12 L310.09 33.32 L314.11 33.5 L321.54 30.7 L324.09 30.3 L332.8 31.81 L341.37 35.34 L364.5 40.82 L366.32 42.45 L366.82 44.36 L367.15 47 L367.95 49.25 L369.87 50.03 L377.83 50.06 L379.46 49.76 L380.52 48.65 L382.08 48.22 L383.27 47.14 L385.25 46.69 L387.44 48.78 L389.29 48.99 L390.91 48.45 L390.97 48.39 L392.49 48.4 L398.98 45.1 L401.05 42.51 L403.71 41.45 L405.08 38.97 L406.5 37.82 L406.86 44.64 L412.14 46.6 L418.84 46.95 L423.37 48.98 L425.28 50.44 L428.11 51.66 L430.69 53.51 L431.83 56.78 L433.09 58.54 L435.94 58.05 L440.9 56.14 L440.47 52.21 L443.05 52.03 L446.59 54.24 L449.09 57.43 L450.58 63.88 L451.28 65.39 L452.26 66.81 L454.3 69.03 L452.9 70.11 L451.46 69.93 L450.11 69.3 L449.09 69.03 L449.15 69.44 L446.46 71.59 L446.11 71.61 L445.41 72.09 L444.94 72.04 L444.67 72.45 L444.62 74.19 L446.22 74.29 L449.07 73.43 L451.91 73.26 L453.56 75.47 L454.73 74.46 L455.97 74.37 L456.57 75.52 L455.79 78.17 L456.34 80.78 L456.41 84.52 L455.79 92.31 L455.24 95.64 L454.5 98.3 L453.45 100.46 L452.07 102.47 L448.56 105.75 L444.17 108.21 L439.44 109.76 L434.87 110.27 L434.87 111.55 L439.59 114.03 L465.91 107.71 L467.95 108.44 L474.55 114.23 L472.37 116.42 L472.36 118.47 L473.22 120.77 L473.8 123.78 L473.17 126.29 L471.63 128.62 L469.66 130.29 L467.77 130.87 L468.06 131.28 L468.43 131.6 L468.48 132.19 L467.77 133.42 L468.95 134.7 L469.27 136.26 L468.85 138.03 L467.77 139.82 L470.17 138.93 L471.98 136.69 L474.55 130.87 L475.99 124.65 L476.78 123.08 L477.87 122.35 L481.99 121.91 L483.48 121.03 L484.21 120.02 L484.77 118.97 L485.78 117.97 L487.03 117.55 L491.67 117.97 L494.06 119.16 L500.66 124.47 L517.86 132.15 L527.58 141.35 L532.06 142.47 L537.06 141.55 L540.74 139.26 L546.97 133.42 L550.56 131.09 L554.31 129.5 L563.42 128.31 L563.42 129.59 L561.46 129.68 L558.73 129.71 L560.62 130.57 L562.51 129.94 L565.07 131.73 L572.73 127 L576.15 128.31 L572.1 132.88 L570.94 134.7 L570.29 134.16 L568.63 133.42 L569.81 136.49 L570.81 143.93 L571.67 147.46 L570.87 149.82 L570.94 152.99 L571.67 158.37 L571.2 161.56 L570.16 163.26 L569.11 164.43 L568.63 166.05 L555.97 174.32 L551.59 179.96 L549.68 181.2 L545.27 182.73 L544.42 182.7 L543.5 183.53 L542.76 183 L541.99 182.16 L541.01 182.06 L540.15 182.62 L539.71 183.11 L535.51 189.69 L534.39 190.94 L534.39 192.1 L535.84 195.72 L537.43 198.4 L539.52 200.14 L542.49 201.09 L546.71 200.66 L547.79 201.09 L548.56 203.02 L548.67 205.23 L549.09 206.93 L550.69 207.41 L551.12 207.44 L552.39 207.52 L552.93 207.41 L554.32 206.31 L557.52 202.95 L559.32 202.24 L561.4 201.8 L567.2 198.67 L580.46 196.9 L581.42 197.27 L582.17 198.33 L582.88 200.94 L583.66 202.24 L587.53 203.31 L588.13 204.25 L587.62 208.47 L587.86 210.4 L589.25 211.21 L592.49 211.43 L593.4 211.21 L597.81 207.41 L598.65 207.97 L599.76 210.6 L600.44 211.21 L604.98 211.21 L605.04 211.79 L609.22 217.09 L610.04 217.64 L611.28 217.64 L611.43 215.69 L612.53 212.71 L613.37 209.01 L612.89 206.03 L613.7 204.67 L614.75 203.84 L615.67 203.61 L615.45 202.78 L615.19 200.69 L614.99 199.81 L618.72 196.02 L618.72 194.64 L617.97 194.64 L617.97 193.48 L620.76 194.64 L621.7 194.64 L623.91 193 L625.86 188.06 L627.32 187.02 L628.2 186.71 L628.92 185.89 L629.48 184.71 L629.96 183.33 L630.03 182.41 L629.21 181.75 L629.21 180.8 L629.56 179.84 L630.01 179.21 L630.42 178.71 L633.12 173.81 L636.59 171.39 L640.85 170.78 L649.95 172.4 L675.95 166.79 L680.04 164.15 L680.6 169.49 L680.19 174.66 L680.42 179.06 L682.97 182.06 L681.91 179.81 L681.37 174.98 L680.79 173.16 L681.93 170.99 L685.07 169.2 L686 166.68 L684.78 166.56 L683.61 166.78 L682.49 167.25 L681.48 167.96 L682.3 166.21 L686 161.34 L688.21 159.33 L690.8 154.96 L692.34 153.96 L693.77 153.54 L701.99 149.04 L706.12 145.55 L707.74 143.65 L711.67 135.98 L718.23 126.45 L718.94 124.65 L723.44 116.8 L725.17 111.87 L726.42 110.25 L728.65 109.12 L728.65 110.27 L727.9 110.27 L730.23 114.03 L734.93 115.97 L759.75 115.97 L763.84 117.97 L766.36 116.52 L769.49 117.3 L770.88 119.39 L768.18 121.91 L765.39 122.52 L753.71 121.51 L749.05 119.75 L746.17 119.36 L745.32 119.74 L744.16 121.44 L743.54 121.91 L741.32 121.91 L738.5 121.38 L737.44 121.97 L736.78 124.47 L736.1 123.08 L735.52 123.43 L734.56 124.27 L733.87 124.47 L734.06 126.07 L734.51 126.79 L735.21 127.03 L736.1 127.15 L735.71 127.25 L735.41 127.26 L735.25 127.51 L735.29 128.31 L733.19 127.17 L730.85 127.39 L728.88 128.72 L727.9 130.87 L726.13 128.62 L723.97 127.53 L720.02 127.15 L718.24 128.01 L716.77 130.18 L716.06 133.04 L716.67 135.98 L715.1 135.66 L714.46 135.39 L713.69 134.7 L712.95 135.98 L713.67 138.22 L713.13 140.44 L711.77 142.06 L709.96 142.47 L710.74 145.02 L711.64 147.02 L711.88 148.66 L710.65 150.14 L715.4 153.46 L718.06 154.15 L720.39 152.68 L718.7 152.75 L717.41 152.11 L715.17 150.14 L715.88 147.94 L716.91 146.32 L719.66 143.65 L720.3 143.2 L721.49 142.82 L721.95 142.47 L722.29 141.55 L722.4 139.19 L722.63 138.43 L724.48 136.85 L731.56 133.42 L730.08 132.32 L729.4 132.15 L729.4 130.87 L731.42 130.11 L732.16 130.18 L733.05 130.87 L733.05 129.59 L735.09 131.41 L738.34 130.55 L744.28 127.15 L744.04 126.53 L743.75 125.11 L743.54 124.47 L744.67 123.63 L745.95 123.11 L747.29 122.93 L748.68 123.08 L748.68 124.47 L747.04 124.9 L745.94 126.38 L745.3 128.53 L745.03 130.87 L746.4 128.49 L746.89 127.23 L747.27 125.74 L748.24 127.53 L749.36 129.18 L750.59 129.76 L751.79 128.31 L753.07 129.46 L754.24 129.4 L755.31 128.53 L756.27 127.15 L756.57 128.6 L757.09 129.95 L757.77 131.15 L759.64 133.54 L760.05 133.88 L760.44 133.68 L761.54 133.42 L763.63 133.56 L764.73 133.24 L765.96 132.15 L766.89 130.64 L768.02 127.6 L768.99 125.74 L771.78 122.98 L776.11 120.16 L780.44 118.54 L783.21 119.36 L781.83 120.71 L781.77 122.95 L782.6 125.33 L783.88 127.15 L788.61 129.61 L789.9 130.87 L787.84 134.56 L788.29 137.44 L791.39 142.47 L791.7 144.51 L791.7 146.53 L792.01 148.12 L793.22 148.75 L798.09 148.75 L798.09 150.14 L797.07 150.17 L796.35 150.49 L795.12 151.29 L798.69 150.95 L804.39 154.21 L808.18 155.12 L810.98 156.65 L814.57 164.07 L817.53 166.68 L815.83 167.89 L814.55 169.23 L817.27 169.21 L821.34 167.12 L823.49 167.96 L822.63 170.14 L822.11 171.01 L821.25 171.78 L822.54 172.57 L823.33 172.12 L824.05 171.51 L825.04 171.78 L825.63 172.72 L827.21 176.98 L828.6 179.73 L830.2 181.96 L832.22 183.29 L834.78 183.33 L834.78 182.06 L833.89 181.21 L832.64 179.08 L831.75 178.25 L831.75 176.98 L845.21 174.32 L848.44 172.82 L854.02 169 L857.12 167.96 L857.62 168.93 L857.42 169.75 L856.72 170.34 L855.63 170.63 L855.63 171.78 L858.96 173.51 L867.61 180.8 L867.61 182.06 L866.04 184.79 L865.14 188.38 L863.8 191.64 L860.85 193.48 L862.16 194.49 L865.32 198.56 L866.47 200.44 L867.11 200.93 L870.19 202.24 L870.94 202.78 L871.43 204.04 L871.77 205.39 L872.08 206.25 L872.21 206.92 L872.07 207.76 L872.03 208.49 L872.46 208.8 L874.02 208.65 L874.37 208.8 L874.96 209.29 L875.63 209.69 L876.32 209.97 L876.93 210.06 L878.29 210.8 L878.46 212.57 L877.78 214.65 L876.56 216.39 L868.75 222.85 L867.61 225.23 L868.59 227.48 L870.63 228.49 L872.65 228.97 L873.58 229.64 L874.27 231.67 L875.87 234 L877.62 235.57 L878.79 235.33 L886.82 242.06 L890.43 242.89 L892.2 245.1 L892.62 245.52 L895.25 245.31 L896.05 245.52 L898.79 247.17 L900.11 247.72 L908.88 248.37 L911.95 247.44 L913.25 244.89 L914.07 244.32 L915.82 244.65 L917.38 246.19 L917.7 249.18 L916.84 250.55 L911.74 254.22 L913.11 255.01 L914.71 255.57 L916.48 255.81 L917.32 255.71 L917.31 255.73 L917.45 260.91 L917 263.77 L918.64 267.37 L920.93 274.52 L921.13 276.33 L920.84 283.05 L920.92 287.12 L921.71 290.9 L924.36 295.01 L925.5 298.84 L927.78 302.71 L928.92 312.18 L931.21 322.83 L931.94 326.27 L932.11 327.81 L932.18 331.12 L932.52 332.91 L933.18 334.07 L934.85 335.49 L935.28 336.51 L936.7 337.83 L933.86 343.45 L933.06 344.65 L931.91 345.27 L930.83 346.89 L930.05 349.12 L929.75 351.54 L930.14 354.5 L930.79 357.07 L931.02 359.7 L927.75 369.99 L927.45 371.5 L925.98 374.78 L922.63 378.3 L916.21 383.44 L909.57 386.92 L904.3 390.86 L904.3 391.98 L904.95 393.8 L906.28 400.22 L906.53 402.48 L906.08 405.9 L904.95 408.09 L902.05 410.62 L903.3 413.15 L905.2 414.65 L907.49 415.36 L909.91 415.54 L912.1 416.51 L915.66 420.73 L918.63 422.33 L930.22 430.91 L931.91 432.89 L935.64 440.28 L936.78 441.38 L938.85 442.35 L941.99 446.65 L948.51 449.25 L954.84 456.39 L955.47 457.09 L958.86 459.89 L955.81 466.33 L954.96 470.49 L956.99 472.36 L957.5 474.27 L955.69 478.47 L953.06 482.67 L947.41 487.67 L948.02 494.77 L950.61 502.56 L952.9 507.75 L952.24 511 L954.69 513.76 L958.39 515.66 L961.49 516.39 L964.54 517.72 L966.23 520.85 L966.2 524.5 L964.07 527.32 L964.07 528.42 L965.65 530.9 L965.23 533.44 L964.06 536.68 L963.39 541.28 L964.48 543.83 L971.57 549.16 L969.57 551.67 L968.73 553.18 L968.38 554.77 L968.18 556.39 L967.72 558.07 L965.36 562.36 L964.78 564.08 L964.39 574.89 L963.47 578.34 L961.79 581.53 L959.78 584.23 L953.53 590.62 L952.1 593.68 L952.42 597.41 L954.22 600.16 L956.19 601.53 L957.7 603.56 L958.13 608.21 L959.25 612.69 L961.71 615.58 L967.01 620 L968.42 623.04 L969.49 627.5 L969.67 632.13 L968.38 635.64 L966.27 639.01 L965.37 642.42 L965.62 643.68 L965.97 645.53 L968.38 648.06 L975.51 650.46 L977.81 652.11 L977.81 652.13 L980.3 653.56 L985.41 655.08 L987.88 656.26 L989.59 657.6 L991.6 659.73 L992.73 662.14 L991.81 664.33 L992.21 668.94 L992.87 676.34 L992.87 676.5 L993.34 679.63 L993.64 680.84 L995.66 684.4 L998.13 687.31 L999.72 690.73 L999.15 695.79 L999.55 696.33 L1000 696.81 L998.13 700.5 L996.65 705.14 L995.76 710.02 L995.64 714.41 L995.41 716.64 L994.69 717.8 L993.85 718.6 L993.26 719.81 L993.07 721.51 L993.05 724.85 L992.72 726.84 L987.85 739.22 L982.35 752.35 L978.47 756.67 L976.93 759.23 L976.92 762.44 L975.19 767.07 L974.15 769.07 L973.1 770.29 L971.34 770.78 L968.97 770.69 L964.92 769.78 L960.75 766.6 L959.2 765.74 L955.41 764.66 L954.88 763.37 L955.26 760.28 L957.11 755.93 L957.74 753.63 L957.16 751.68 L955.84 751.65 L949.81 754.16 L948.56 753.17 L949.16 751.06 L950.46 748.57 L951.31 746.49 L951.51 743.89 L951.17 742.19 L950.34 740.83 L949.02 739.22 L947.68 738.17 L944.74 737.42 L943.38 736.47 L942.36 735.05 L941.99 734.01 L941.75 732.97 L941.12 731.5 L940.17 733.9 L938.93 734.54 L934.98 734.32 L931.92 735.68 L930.72 735.65 L929.53 735 L928.82 734.06 L928.25 733.1 L927.42 732.34 L923.37 731.01 L919.89 731.56 L917.28 734.23 L915.75 739.22 L914.53 740.99 L915.8 741.83 L919.49 742.31 L921.66 743.2 L921.5 743.55 L920.57 744.19 L920.47 746.01 L923.25 748.77 L927.28 749.96 L930.19 751.65 L929.53 755.96 L926.33 758.68 L917.78 758 L913.85 758.83 L912.67 760 L910.68 763.01 L909.35 764.26 L892.35 772.09 L890.25 772.23 L886.26 771.71 L884.13 772.18 L882.96 773.01 L881.29 775.15 L880.17 775.99 L878.8 776.2 L877.74 775.88 L876.82 775.91 L875.81 777.15 L875.35 778.83 L875.49 780.29 L875.75 781.5 L875.69 782.41 L874.95 783.48 L874.31 783.7 L873.65 783.72 L870.49 785.69 L868.53 786.09 L863.53 785.53 L861.17 785.77 L857.02 787.31 L854.92 787.73 L845.13 787.68 L840.18 788.61 L835.72 791.32 L836.98 793.96 L836.55 796.28 L835.1 798.16 L833.28 799.54 L833.91 800.92 L833.81 801.96 L833.16 802.77 L832.07 803.38 L830.18 805.75 L828.33 807.44 L826.3 807.94 L823.87 806.75 L823.15 805.84 L821.61 803.25 L821.03 802.59 L819.7 802.1 L819.39 802.31 L819.33 802.94 L818.67 803.65 L814.58 806.56 L813.97 807.65 L812.81 811.13 L810.52 812.3 L808.71 811.49 L806.94 810.25 L804.82 810.06 L801.19 819.79 L799.62 822.63 L796.94 824.64 L791.19 824.31 L788.12 825.37 L788.09 825.39 L788.08 825.39 L787.09 825.66 L786.07 825.74 L785.05 825.65 L784.09 825.37 L783.25 824.73 L782.35 824.54 L781.43 824.76 L780.53 825.39 L779.82 832.37 L779.11 835.5 L777.57 837.33 L775.19 839.68 L774.31 840.55 L770.58 840.34 L760.48 834.17 L759.57 833.9 L758.59 834.1 L757.05 835.12 L756.38 835.38 L754.43 835.11 L752.68 835.21 L750.9 835.86 L749.5 837.25 L747.09 841 L745.87 842.17 L744.45 842.33 L738.62 841.27 L730.46 841.88 L726.07 843.18 L723.05 845.78 L722.24 846.49 L721.85 847.34 L721.63 848.2 L721.33 848.97 L721.36 849.32 L721.5 849.9 L721.57 850.57 L721.33 851.2 L720.89 851.43 L719.91 851.4 L719.52 851.63 L718.22 852.79 L715.02 854.59 L713.85 855.76 L710.47 861.93 L709.23 863.23 L708.01 864.09 L707.12 865.42 L706.83 868.12 L704.68 870.89 L704.09 872.49 L703.75 875.52 L704.08 877.64 L704.71 879.46 L704.71 880.97 L703.19 882.08 L701.33 881.84 L700.22 880.12 L698.92 875.43 L698.8 874.55 L698.61 873.55 L698.16 872.44 L697.69 871.8 L695.78 869.87 L695.5 869.47 L695.39 869.09 L695.49 868.75 L695.78 868.42 L695.92 868.3 L696.06 868.2 L696.21 868.15 L696.38 868.12 L696.86 867.16 L696.92 866.38 L696.56 865.76 L695.78 865.33 L692.65 865.25 L691.06 864.76 L689.84 863.68 L689.41 862.35 L689.45 859.42 L688.81 857.84 L686.71 856.35 L681.48 855.96 L678.73 855.76 L681.24 858.39 L682.12 859.91 L682.53 862.34 L682.32 864.53 L681.59 865.32 L680.46 866.06 L679.1 868.12 L680.23 870.15 L685.62 873.52 L688.29 876.46 L689.52 878.37 L690.35 880.39 L690.67 882.95 L689.9 886.82 L689.97 889.37 L690.91 891.94 L692.46 893.36 L694.2 894.37 L695.78 895.74 L696.75 897.42 L696.98 899.15 L697 900.7 L697.35 901.78 L713.85 910.64 L713.96 910.64 L715.63 912.28 L719.64 912.71 L721.48 914.46 L721.76 916.94 L721.01 919.22 L720.88 921.06 L725.35 923.69 L726.9 924.29 L727.58 925.52 L727.24 928.81 L726.36 931.39 L723.85 936.05 L723.05 938.67 L720.86 937.99 L720.2 940.38 L720.14 943.92 L719.79 946.7 L718.05 948.46 L713.55 950.38 L712.26 952.92 L712.8 954.7 L713.93 956.86 L716.18 960.11 L717.75 961.53 L719.42 962.67 L723.05 964.41 L724.56 965.21 L725.46 966.99 L725.54 969.23 L724.61 971.29 L724.9 971.52 L725.76 971.94 L725.25 973.27 L725.17 973.68 L726.28 975.03 L728.89 976.47 L730.04 977.74 L730.8 979.56 L731.31 983.29 L731.75 985.26 L732.45 987.28 L733.14 988.78 L733.99 990.04 L735.18 991.28 L736.4 991.65 L737.55 991.49 L738.37 992.15 L738.51 994.98 L738.83 1000.49 L739.37 1003.21 L740.61 1005.63 L742.74 1007.41 L747.77 1009.78 L749.96 1012.06 L753.54 1020.08 L755.26 1021.87 L757.42 1022.66 L763.85 1023.6 L765.89 1023.33 L765.41 1021.17 L766.9 1020.7 L771.07 1021.85 L772.92 1022.84 L774.5 1024.12 L777.57 1027.38 L779.46 1028.17 L780.07 1029.53 L780.22 1031.15 L780.71 1032.7 L784.19 1036.86 L784.22 1036.88 L785.57 1037.65 L795.78 1051.56 L797.21 1054.84 L798.95 1057.64 L802.04 1059.45 L808.63 1059.76 L810.82 1060.6 L812.15 1061.76 L815.46 1066.21 L820.09 1070.94 L821.31 1073.83 L821.38 1078.5 L822.94 1081.05 L826.08 1083.99 L829.53 1086.47 L832.07 1087.7 L833.2 1084.81 L834.24 1082.98 L835.75 1082.28 L836.45 1082.43 L838.25 1082.82 L840.17 1083.99 L842.02 1085.48 L843.88 1086.51 L845.86 1086.28 L846.13 1089.42 L847.29 1092.44 L848.99 1095.03 L850.85 1096.89 L852.92 1097.87 L856.98 1098.51 L858.51 1099.37 L861.05 1103.33 L866.31 1113.86 Z M911.45 211.65 L909.59 216.65 L908.69 217.27 L907.65 217.58 L909.56 219.93 L910.44 222.82 L898.07 224.25 L895.64 223.89 L893.81 222.59 L891.27 225.47 L888.09 227.33 L881.83 229.01 L874.93 229.12 L871.1 227.97 L869.1 225.23 L870.51 224.7 L872.78 222.96 L876.29 222.19 L880.07 220 L881.08 218.9 L881.88 213.55 L877.84 205.85 L878.12 201.09 L883.61 201.43 L885.56 202.24 L884.81 203.61 L885.08 204.65 L884.21 208.27 L884.07 211.21 L885.77 208.16 L887.17 207.4 L891.57 207.41 L891.01 207.85 L890.56 208.34 L890.27 209.01 L890.1 210.06 L893.81 211.21 L892.93 208.8 L894.33 204.25 L894.13 199.3 L892.62 196.21 L890.1 197.27 L889.21 194.25 L888.02 191.76 L886.54 189.78 L884.81 188.4 L882.65 187.88 L880.48 188.36 L879.36 189.78 L880.34 192.1 L880.34 193.48 L879.41 194 L878.42 195.14 L877.62 196.58 L877.3 197.97 L876.64 198.36 L872.83 199.81 L873.06 197.32 L873.88 195.78 L874.75 194.68 L875.05 193.48 L874.48 191.21 L873.66 190.96 L872.72 191.64 L869.24 193.21 L867.63 195.36 L866.09 196.88 L863.9 196.02 L864.77 192.42 L867.74 186.3 L868.36 181.43 L867.4 178.57 L862.94 173.87 L861.59 171.78 L862.61 169.67 L864.28 167.89 L866.31 167.09 L868.36 167.96 L869.32 169.76 L871.53 175.85 L872.83 178.25 L875.72 181.21 L882.91 185.43 L887.03 187.02 L890.35 189.1 L909.52 210.24 L911.38 211.62 Z M103.13 273.29 L100.68 273.65 L96.89 275.31 L94.87 275.8 L94.87 276.93 L96.09 277.41 L97.03 278.08 L97.83 279.17 L98.59 280.92 L97.61 280.35 L96.2 278.67 L95.27 278.31 L94.17 278.5 L92.56 279.35 L91.89 279.56 L89.93 278.58 L88.43 276.43 L88.01 274.27 L89.28 273.29 L97.59 270.73 L101.66 270.42 Z M111.38 260.72 L115.42 258.72 L130.27 256.78 L134.46 258.1 Z M139.66 254.22 L144.66 251.27 L150.54 250.28 L162.9 250.55 L162.95 251.43 L162.77 251.64 L162.47 251.63 L157.4 253.68 L144.07 255.45 Z M165.12 250.55 L166.92 249.28 L169.15 248.94 L171.23 249.4 L172.64 250.55 L172.3 251.27 L171.93 251.56 L171.08 251.81 L166.72 250.45 Z M247.3 251.81 L248.67 249.43 L250.81 248.49 L253.26 248.89 L255.57 250.55 L254.01 250.55 L252.93 250.99 L251.19 252.69 L250.66 253.07 L249.71 252.82 L249.11 252.4 L248.45 252.31 L247.3 253.07 Z M181.57 244.26 L191.3 244.17 L193.49 245.52 L193.54 246.32 L193.38 246.5 L193.12 246.49 L192.83 246.66 L184.87 246.41 L181.19 247.32 L180.9 250.55 L177.7 250.71 L176.73 249.83 L176.35 247.35 L176.9 245.23 L178.25 244.38 Z M197.22 244.26 L199.99 240.77 L204.57 239.74 L213.79 240.37 L213.79 241.63 L212.24 241.63 L209.79 243.18 L206.74 244.47 L203.61 244.66 L200.94 242.89 L199.94 244.32 L198.98 245.05 L198.06 245.04 Z M220.44 241.63 L218.33 240.11 L218.81 238.94 L220.76 238.21 L223.04 237.95 L224.83 238.12 L226.45 238.64 L229.36 240.42 L228.32 240.22 L227.15 240.37 L222.56 239.3 L220.6 239.41 Z M602.34 203.61 L603.94 199.39 L607.89 195.99 L612.41 194.5 L615.67 196.02 L612.44 205.68 L611.28 207.41 L609.93 207.45 L609.85 206.16 L610.6 202.93 L610.12 200.78 L609.22 200.75 L608.62 202.33 L609.11 204.88 L607.51 206.23 L605.76 206.14 L604.01 205.08 Z M619 186.3 L619.01 185.86 L619.6 184.48 L627.01 180.9 L628.54 179.41 L626.69 182.03 L621.65 186.68 L620.21 189.67 L619.6 189.67 Z M339.24 102.47 L338.73 102.7 L338.49 103.26 L338.44 104.1 L338.55 105.14 L336.55 107.08 L335.16 109.4 L333.58 111.51 L331.04 112.84 L326.3 113.2 L324.05 112.39 L322.84 110.27 L324.03 109.63 L324.23 108.57 L323.73 107.43 L322.84 106.55 L326.3 103.21 L330.13 101.44 L334.44 101.19 Z M589.25 110.91 L595.64 123.08 L581.92 120.77 L579.93 121.91 L580.42 122.67 L580.9 123.01 L576.51 123.3 L573.65 122.82 L572.42 121.27 L572.63 117.45 L572.13 115.99 L570.56 115.4 L567.71 115.31 L566.54 115.68 L565.72 116.8 L564.91 116.8 L564.55 115.42 L564.17 114.65 L563.59 114.61 L562.29 115.42 L561.99 112.84 L565.04 105.25 L569.32 101.05 L574.59 100.16 L583.89 104.19 L586.68 106.6 L587.54 107.75 Z M795.12 88.46 L792.45 90.67 L791.82 93.75 L791.71 97.39 L790.67 101.29 L789.87 102.34 L788.32 103.69 L787.67 105.14 L787.27 106.98 L787.07 108.86 L786.92 112.84 L786.17 112.84 L786.17 110.27 L786.49 105.95 L789.9 93.61 L790.64 88.84 L791.44 87.53 L793.22 87.05 L794.73 86.98 L795.95 87.18 L796.63 88.29 L796.61 90.38 L796.55 90.17 L796.24 89.78 L795.8 89.73 L795.8 92.31 L795.12 92.31 Z M855.63 127.15 L858.53 132.49 L860.4 134.94 L863.07 135.98 L861.61 137.03 L860.19 138.81 L859.11 141.23 L858.68 144.28 L858.68 147.25 L858.35 148.42 L857.21 148.31 L854.83 147.46 L856.11 147.46 L857.12 146.89 L857.57 145.64 L857.12 143.65 L856.38 143.65 L855.26 144.86 L853.58 145.5 L851.82 145.52 L850.49 144.91 L850.49 143.65 L854.54 141.9 L856.22 140.56 L857.12 138.43 L851.45 138.81 L848.92 139.61 L846.76 141.09 L852.78 136.84 L854.83 135.98 L854.83 134.7 L851.9 134.42 L850.38 134.57 L849.31 135.34 L847.84 137.07 L846.92 136.65 L846.07 135.41 L844.84 134.7 L833.98 135.98 L832.02 137.22 L826.25 142.34 L825.04 144.28 L823.77 147.14 L821.1 147.71 L818.7 148.97 L818.28 153.96 L819.77 152.68 L819.79 151.73 L819.56 151.49 L819.26 151.47 L819.08 151.29 L824.29 150.38 L825.04 150.72 L825.84 154.98 L825.62 156.94 L823.89 157.79 L820.78 157.29 L817.33 156.06 L813.46 153.51 L814.33 152.52 L814.91 150.32 L816.04 147.46 L814.44 148.42 L813.72 149.16 L813.06 150.14 L813.49 150.65 L813.8 151.29 L811.62 151.09 L810.47 151.32 L809.68 151.99 L808.7 152.51 L807.62 151.77 L806.61 150.68 L805.92 150.14 L804.32 149.83 L802.4 148.9 L801.21 147.29 L801.82 144.91 L800.23 144.43 L796.9 146.07 L795.8 146.2 L795.06 144.76 L795.72 143.49 L797.18 142.95 L798.84 143.65 L798.84 142.47 L792.08 137.26 L793.58 133.24 L795.72 129.93 L798.49 128.67 L801.82 130.87 L802.57 129.59 L803.84 130.82 L805.34 130.55 L808.58 128.31 L806.87 128.12 L805.58 126.86 L805.04 125.04 L805.55 123.08 L805.55 121.91 L804.06 121.76 L803.25 120.86 L802.56 119.84 L801.45 119.36 L796.6 120.64 L798.49 116.74 L799.31 115.73 L802.26 115 L805.55 113.25 L807.79 112.84 L807.79 111.55 L807.92 111.51 L808.58 111.14 L809.27 110.27 L806.24 109.1 L804.92 108.21 L804.06 106.55 L804.43 106.11 L804.78 105.78 L804.96 105.18 L804.87 103.86 L801.65 105.13 L799.7 105.36 L798.84 104.5 L798.6 103.9 L798.09 103.76 L797.59 103.32 L797.35 101.88 L797.22 100.25 L796.81 99.27 L796.1 98.84 L795.12 98.85 L797.62 97.63 L805.97 96.39 L807.79 96.81 L808.37 97.93 L809.64 98.44 L810.92 99.41 L811.5 101.88 L811.97 103.22 L812.8 102.51 L813.21 100.37 L812.31 97.45 L813.88 95.27 L815.87 93.18 L817.93 91.6 L819.77 90.91 L818.55 94.74 L817.73 96.39 L816.78 97.45 L817.48 97.43 L818.07 97.54 L818.59 97.98 L819.08 98.85 L818.53 99.74 L817.53 102.47 L819.1 102.57 L820.36 102.11 L821.34 100.92 L821.99 98.85 L821.07 98.57 L820.03 97.72 L819.08 97.45 L819.08 96.16 L820.57 94.76 L821.78 97.28 L823.71 99.73 L824.99 102.3 L824.29 105.14 L826.45 108.28 L829.17 109.26 L834.78 109.12 L833.98 107.71 L835.02 105.23 L835.56 104.45 L836.27 103.86 L836.27 102.47 L835.42 99.86 L834.83 98.52 L833.98 97.45 L833.98 96.16 L834.61 95.69 L834.97 95.29 L835.41 94.97 L836.27 94.76 L836.27 93.61 L834.92 93.68 L834.04 94.5 L833.35 95.5 L832.55 96.16 L831.37 96.37 L827.62 96.16 L827.04 95.57 L826.45 94.24 L825.7 92.9 L824.67 92.31 L823.02 91.95 L822.35 91.02 L821.98 89.79 L821.25 88.46 L819.98 86.58 L819.74 85.83 L818.28 87.05 L817.42 87.96 L815.67 90.4 L813.11 91.95 L811.26 93.98 L809.29 95.46 L807.1 94.76 L806.72 92.54 L807.49 89.07 L808.91 85.89 L810.45 84.48 L810.78 83.68 L811.25 81.9 L811.49 80.15 L811.17 79.34 L806.29 80.61 L804.7 81.73 L804 81.53 L804.06 79.34 L804.67 78.07 L805.82 76.81 L807.14 75.86 L822.1 71.49 L825.14 71.45 L828.02 73.02 L828.02 74.19 L826.34 75.54 L824.09 76.84 L822.11 78.59 L821.25 81.26 L821.58 84.6 L822.51 87.27 L823.95 89.35 L825.78 90.91 L830.34 92.46 L844.47 89.73 L849.33 90.81 L852.62 94.47 L853.34 99.31 L850.49 103.86 L845.65 107.11 L843.26 109.44 L842.24 112.19 L842.64 115.35 L843.6 118.63 L844.82 121.42 L845.96 123.08 L848.19 124.26 L853.36 125.52 Z M270.45 70.43 L275.9 80.74 L277.97 81.9 L276.48 83.19 L272.77 84.54 L270.22 82.19 L268.16 78.44 L265.99 75.47 L269.15 69.5 L271.1 67.34 L273.5 66.46 L273.53 67.37 L273.37 67.58 L273.06 67.53 L272.75 67.75 L271.55 69 Z M288.46 58.61 L294.53 58.98 L297.01 60.5 L298.95 63.88 L298.95 65.17 L298.05 66.69 L296.81 70.32 L295.9 71.61 L294.41 72.09 L292.56 71.87 L290.89 71.22 L289.95 70.43 L287.11 71.51 L283.58 70.42 L277.23 66.46 L279.37 62.5 L281.83 60.11 L284.82 58.91 Z M273.5 22.28 L272.86 29 L276.55 32.52 L281.81 33.84 L305.57 32.63 L302.84 34.81 L289.21 34.04 L287.5 34.97 L284.5 37.34 L282.84 37.82 L275.33 37.82 L274.62 37.45 L273.68 35.79 L272.75 35.34 L271.71 35.39 L271 35.67 L267.7 37.98 L267.14 38.51 L266.84 39.9 L266.68 43.63 L266.36 44.4 L266.74 54.73 L266.45 58.1 L265.9 60.71 L265.22 61.26 L264.5 58.61 L264.41 53.62 L265.67 33.07 L266.7 29.04 L274.95 5.78 L279.54 0 L284.74 2.79 L278.08 3.15 L277.23 4.09 L280.24 4.41 L281.14 6.72 L280.17 9.34 L275.74 11.85 L273.68 14.94 L272.54 18.75 Z M303.4 98.9 L310.42 95.9 L310.64 97.94 L309.76 102.54 L307.24 106.56 L304.14 108.34 L301.69 108.3 L300.3 107.06 L299.18 104.35 L299.86 101.32 L301.83 99.79 L302.63 99.41 Z M223.75 166.7 L223.2 167.12 L223.04 166.34 L222.59 166.2 L222.25 165.37 L221.76 164.79 L221.1 164.18 L222.7 164.05 L223.36 164.79 Z M224.64 164.49 L226.55 163.92 L226.94 164.93 L225.22 165.47 Z "/>
</g>
</svg>
