<svg xmlns="http://www.w3.org/2000/svg" viewBox="0 0 1000 1458.65">
<g fill="#ccc" stroke="#333" stroke-width="0.5" stroke-linejoin="round">
<path fill-rule="evenodd" d="M695.75 6.4 L697.42 10.19 L701.14 13.65 L705.71 16.2 L709.85 17.27 L713.96 16.84 L721.59 14.81 L725.82 14.74 L733.32 17.62 L736.71 22.98 L737.43 30.07 L736.79 38.18 L736.26 41.04 L734.68 42.62 L732.72 43.88 L730.92 45.78 L729.83 47.93 L724.96 70.92 L725.13 73.13 L726.28 77.63 L725.87 80.06 L723.93 81.92 L719.34 85.05 L716.17 89.1 L714.46 93.09 L713.27 102.65 L712.5 105.88 L711.12 111.66 L710.97 116.42 L713.27 121.15 L715.24 122.8 L717.71 123.99 L720.39 124.69 L725.58 125.36 L727.18 126.44 L728.58 127.81 L730.61 129.2 L737.64 131.54 L739.68 132.8 L741.46 134.94 L744.08 140.02 L745.94 142.27 L757.83 149.78 L761.39 153.58 L772.83 175.04 L773.48 175.84 L775.2 175.66 L776.15 174.32 L776.76 172.82 L777.35 172.16 L783.31 174.52 L785.47 174.83 L788.02 174.16 L790.13 173.12 L792.17 172.47 L794.47 173 L796.68 175.24 L796.78 177.76 L796.03 180.18 L795.72 182.13 L798.24 186.28 L802.07 189.75 L804.43 193.39 L802.45 198.01 L805.59 197.98 L815.44 196.33 L817.6 197.36 L822.18 201.18 L816.67 205.31 L815.6 208.81 L814.95 212.56 L813.33 215.62 L813.7 223.31 L812.52 239.47 L814.72 245.37 L817.57 247.22 L820.05 247.82 L821.86 249.32 L822.53 253.94 L821.73 257.72 L821.58 258.42 L819.07 259.08 L815.6 258.5 L811.66 259.26 L813 261.5 L812.86 262.95 L812.1 264.37 L811.66 266.48 L812.03 268.01 L814.72 273.41 L816.25 277.92 L816.11 279.79 L814.54 281.19 L811.66 284.32 L809.85 287.78 L809.39 290.96 L810.41 300.1 L810.34 302.69 L805.52 320.42 L805.85 324.66 L807.02 327.11 L808.63 328.89 L810.13 331.16 L811.17 334.51 L811.69 338.66 L811.06 342.65 L808.71 345.46 L804.68 345.96 L800.91 343.86 L794.92 337.53 L791.71 344.01 L791.87 350.67 L795.45 355.45 L802.45 356.2 L811.57 353.87 L816.02 354.73 L817.94 359.45 L816.39 362.59 L812.75 363.63 L808.6 362.92 L805.52 360.88 L801.5 363.52 L796.1 363.84 L784.79 362.57 L784.24 364.03 L783.19 370.44 L783.27 371.9 L783.83 372.55 L785.47 373.99 L787.7 375.57 L790.03 376.58 L795.76 375.5 L798.94 375.66 L800.91 378.13 L800.05 380.49 L797.18 382.48 L793.68 383.85 L784.31 385.76 L784.29 389 L785.87 392.64 L784.03 395.24 L785.05 398.29 L789.22 398.74 L793.4 397.9 L803.67 394.3 L805.38 392.85 L806.26 390.91 L806.95 386.3 L808.07 384.5 L811.48 383.01 L816.53 382.1 L825.57 381.59 L829.79 382.29 L841.71 386.66 L843.15 388.68 L843.55 390.92 L843.04 393.26 L841.55 395.81 L841.5 396.03 L841.55 396.26 L841.71 396.49 L848.4 398.78 L852.47 402.35 L853.86 407.7 L851.77 419.24 L851.4 425.91 L850.47 428.78 L848.19 431.14 L845.66 432.62 L843.83 434.8 L843.62 439.29 L846.4 447.43 L846.47 451.06 L843.76 455.71 L838.67 460.27 L837.25 462.46 L837.27 466.02 L836.09 473.35 L832.28 480.42 L829.97 487.38 L832.99 494.44 L833.03 494.44 L833.03 494.46 L843.87 512.94 L846.68 524.06 L841.74 531.19 L841.71 531.23 L840.57 534.06 L840.25 537.61 L839.46 540.61 L836.99 541.8 L834.07 541.33 L831.8 540.63 L829.72 540.34 L827.35 541.13 L828.56 542.02 L827.06 545.82 L824.7 548.45 L822.3 543.34 L819.64 542.31 L816.81 542.83 L815.28 544.99 L815.78 547.9 L817.2 556.25 L823.78 570.49 L832.73 583.04 L841.71 589.2 L845.54 593.65 L850.98 598.68 L856.83 602.93 L871.55 609.88 L875.48 618.23 L878.38 626.82 L887 634 L887.49 636.35 L887.42 638.96 L887.97 642.29 L887.79 644.57 L887.93 645.64 L888.81 646.42 L891.5 646.85 L892.34 647.63 L893.22 653.21 L891.53 656.67 L887.93 658.91 L878.01 663.33 L874.25 665.81 L866.77 672.57 L864.89 673.47 L863.17 673.68 L862.01 674.56 L861.75 677.5 L862.68 679.89 L864.42 681.57 L865.98 683.52 L866.38 686.65 L865.14 689.59 L863.38 690.96 L862.27 692.57 L863.45 698.14 L864.29 708.81 L866.35 717.28 L866.47 721.63 L866.28 730.08 L868.49 745.09 L868.65 746.19 L868.47 759.77 L870.51 772.74 L870.02 784.59 L870.65 789.02 L864.15 787.92 L861.27 792.54 L860.57 799.57 L860.64 805.73 L859.36 808.78 L856.32 810.35 L852.72 811.33 L849.77 812.65 L847.5 814.88 L846.1 817.3 L845.29 820.09 L844.43 833.26 L845.54 844.42 L849.17 854.39 L856.25 860.68 L860.34 861.24 L864.8 860.44 L873.06 857.37 L874.55 859.35 L878.15 874.2 L877.87 879.11 L874.88 887.42 L872.79 897.93 L867.37 911.51 L866.61 920.38 L867.61 930.57 L867.44 940.42 L863.15 948.21 L860.24 949.83 L850.77 952.31 L847.47 952.55 L844.2 953.57 L846.78 957.03 L853.16 961.99 L855.81 966.78 L855.28 970.59 L850.54 978.53 L849.03 983.29 L849.75 985.45 L851.91 986.75 L854.65 988.86 L861.15 1001.01 L862.64 1002.99 L866.49 1003.81 L870.42 1005.98 L873.69 1009.1 L875.6 1012.75 L875.83 1016.42 L873.88 1027.84 L875.13 1032.57 L878.08 1035.28 L881.24 1037.61 L883.21 1041.21 L885.33 1041.42 L891.6 1041.22 L893.64 1041.64 L896.52 1044.46 L896.38 1046.57 L894.8 1048.69 L893.38 1051.57 L893.29 1052.94 L892.99 1057.59 L894.38 1063.14 L897.08 1068.51 L900.63 1073.98 L905.37 1078.85 L916.47 1084.35 L922.11 1087.93 L929.43 1096.76 L932.33 1098.97 L936.93 1100.21 L954.07 1100.28 L959.94 1118.39 L963.42 1123.39 L965.21 1124.7 L966.88 1125.4 L968.58 1126.32 L970.3 1128.3 L973.25 1132.88 L975.66 1135.69 L978.75 1137.27 L997.35 1139.4 L1000 1142.98 L999.42 1150.93 L999.29 1150.97 L997.85 1151.5 L987.66 1157 L979.97 1163.01 L968.56 1175.29 L965.94 1179.25 L960.4 1190.3 L959.36 1194.72 L959.03 1199.38 L956.71 1209.93 L954.75 1214.13 L947.62 1220.83 L938.53 1223.99 L895.63 1228.88 L815.07 1223 L805.41 1223.51 L800.05 1224.76 L797.33 1225.85 L796.19 1227.17 L795.06 1227.81 L789.63 1228.05 L787.75 1228.71 L783.49 1231.77 L768.44 1235.85 L765 1238.18 L758.82 1243.96 L750.08 1246.47 L746.93 1249.79 L744.45 1253.87 L740.82 1257.57 L722.95 1263.61 L721.91 1264.23 L718.97 1267.17 L717.66 1268.22 L715.68 1268.93 L712.12 1269.25 L663.9 1284.88 L653.73 1286.17 L652.34 1286.85 L649.58 1288.19 L633.07 1302.04 L631.31 1304.58 L630.13 1308.06 L627.11 1311.2 L619.05 1316.16 L603.33 1320.04 L600.65 1320.07 L599 1321.69 L595.36 1324.47 L591.63 1325.66 L589.77 1322.46 L578.14 1330.62 L575.27 1331.69 L562.14 1342.48 L556.8 1348.78 L553.41 1350.91 L536.71 1353.35 L531.55 1353.12 L528.26 1350.19 L526.74 1352.13 L524.61 1352.87 L519.06 1353.26 L513.64 1354.64 L510.98 1354.53 L509.84 1352.51 L509.04 1350.47 L507.24 1350.97 L504.48 1353.26 L500.78 1353.59 L497.19 1354.55 L473.74 1364.66 L471.37 1367.97 L469.36 1369.92 L464.77 1372.62 L455.88 1376.65 L451.27 1377.6 L436.64 1378.05 L434.23 1378.72 L429.03 1381.83 L426.58 1382.81 L424.31 1382.98 L419.67 1382.7 L417.39 1382.81 L413.23 1384.16 L405.08 1388.15 L389.45 1390.38 L384.37 1392.29 L380.57 1395.03 L380.41 1395.14 L377.19 1393.65 L373.23 1393.36 L369.41 1394.31 L366.63 1396.52 L366.27 1398.35 L367.83 1401.74 L367.32 1403.52 L365.91 1405.14 L364.98 1405.98 L349.59 1413.6 L346.86 1415.68 L340.38 1422.85 L339.87 1424.5 L340.28 1426.01 L340.17 1427.07 L338.18 1427.47 L336.09 1427.63 L320.66 1432.05 L303.43 1439.77 L299.84 1442.95 L294.41 1450.69 L291.03 1453.92 L287.85 1455.2 L272.36 1457.19 L269.34 1458.41 L263.33 1458.65 L261.98 1458.35 L260.34 1456.86 L259.71 1454.54 L259.95 1452.02 L259.42 1449.98 L256.5 1449.17 L254.69 1448.91 L251.29 1447.86 L248.77 1447.62 L248.99 1446.58 L246.89 1444.36 L237.33 1436.71 L232.58 1434.69 L230.42 1433.39 L229.5 1431.38 L229.12 1429.73 L228.13 1428.01 L226.89 1426.63 L203.55 1417.5 L165.54 1409.65 L128.55 1397.07 L99.23 1394.84 L66.85 1389.15 L35.67 1379.59 L32.11 1378.77 L33.08 1375.05 L34.65 1374.65 L36.74 1373.83 L39.29 1373.44 L55.37 1373.56 L60.22 1374.98 L61.57 1376.31 L64.31 1380.29 L65.51 1381.13 L68.48 1380.73 L73.09 1378.78 L75.54 1378.05 L74.93 1371.85 L81.18 1369.23 L89.25 1367.95 L94.1 1365.74 L103.06 1366.08 L108.22 1365.34 L111.42 1363.05 L113.58 1358.8 L112.35 1357.35 L109.39 1354.81 L108.68 1354.03 L108.5 1351.97 L109.45 1347.26 L109.57 1345.33 L108.57 1342.73 L105.43 1338.21 L104.79 1335.08 L106.27 1321.12 L113.84 1322.5 L116.82 1321.96 L119.05 1319.12 L119.62 1315.18 L118.66 1311.12 L112.53 1296.73 L108.54 1280.57 L108.01 1268.74 L107.16 1265.1 L105.4 1262.14 L102.52 1259.8 L86.51 1255.66 L82.86 1257.12 L75.54 1261.56 L71.15 1262.11 L65.84 1259.14 L64.62 1253.3 L66.89 1239.19 L52.3 1240.44 L54.5 1214.67 L53.92 1206.5 L51.18 1198.33 L42.53 1182.46 L39.26 1174.38 L32.45 1136.7 L27.67 1124.08 L21.06 1118.03 L20.4 1117.23 L17.73 1114 L0 1034.12 L0.31 1030.32 L1.93 1027.95 L6.07 1025.65 L7.29 1024.17 L11.7 1011.76 L11.18 1010.25 L8.15 1004.39 L5.34 1000.76 L4.37 998.46 L4.68 990.28 L8.44 981.57 L34.36 936.98 L37.13 935.25 L37.28 935.15 L37.53 934.99 L48.66 931.35 L49.8 929.75 L51.66 918.42 L52.8 916.14 L63.1 903.21 L65.09 898.81 L65.26 895.72 L64.26 893.88 L62.75 892.01 L61.34 888.85 L61.13 886.19 L72.12 816.74 L75.13 807.56 L91.35 772.66 L92.22 771.18 L94.48 768.42 L95.35 766.93 L95.41 765.7 L94.75 762.76 L94.94 761.62 L96.87 759.78 L101.87 756.76 L103.66 754.83 L104.4 752.32 L105.37 735.38 L106.03 733.71 L107.44 733.55 L108.94 734.55 L110.08 735.84 L110.39 736.56 L114.06 733.47 L124.31 721.59 L128.45 718.64 L141.86 714.13 L146.49 711.77 L148.71 708.83 L148.92 704.87 L147.47 699.44 L144.49 692.91 L143.95 690.04 L144.9 686.47 L146.47 683.43 L147.91 682.09 L149.76 682.2 L152.62 683.55 L155.21 683.83 L158.28 682.79 L168.37 676.81 L169.91 673.35 L159.57 609.74 L149.23 546.08 L148.16 542.52 L146.13 543.47 L146.08 543.39 L144.99 541.6 L145.57 538.7 L147.23 537.19 L149.61 535.87 L149.86 532.76 L145.28 516.89 L145 512.99 L144.49 511.03 L143.24 510.49 L141.73 510.27 L140.39 509.24 L136.89 498.57 L136.65 493.92 L135.2 490.26 L129.53 487.22 L123.85 485.94 L118.09 485.66 L114.98 485.14 L113.21 483.9 L111.77 482.4 L109.58 481.15 L111.69 477.93 L112.62 474.36 L113.05 462.98 L113.99 461.08 L118.77 456.14 L122.69 448.08 L125.31 443.95 L132.44 440.2 L135.12 435.87 L135.42 431.55 L131.89 429.59 L127.97 428.72 L124.79 426.37 L123.02 422.86 L123.39 418.56 L125.71 415.53 L128.77 414.1 L131.44 412.4 L132.59 408.52 L132.59 402.38 L131.48 398.56 L131.19 396.79 L132.1 389.51 L131.86 386.27 L128.82 382.39 L120.71 372.11 L112.67 364.73 L111.5 362.39 L111.11 358.68 L111.46 355.01 L112.57 351.29 L114.5 347.95 L117.37 345.46 L116.64 344.89 L114.93 343.55 L114.21 341.46 L113.93 339.38 L112.79 337.53 L110.83 336.54 L109.58 336.69 L108.35 336.47 L106.51 334.42 L104.98 329.69 L105.82 324.92 L109.58 317.3 L117.35 308.58 L118.77 306.25 L118.13 304.02 L112.79 295.36 L111.82 289.61 L113.91 279.26 L114.18 273.41 L112.71 269.31 L107.61 261.61 L106.51 256.99 L106.51 237.43 L104.17 227.12 L104.27 222.57 L107.21 217.88 L111.76 214.29 L113.43 212.27 L114.18 209.24 L114.05 206.3 L113.28 205.09 L111.82 204.4 L109.58 203.01 L107.42 202.19 L105.46 202.25 L104 201.71 L103.45 199.11 L102.65 197.58 L100.73 197.11 L98.43 196.85 L96.47 195.98 L94.64 192.26 L94.64 187.47 L95.77 182.81 L97.3 179.47 L98.91 177.35 L100.64 175.95 L102.81 175.17 L105.72 174.93 L108.18 173.96 L110.24 171.81 L111.21 169.67 L110.34 168.69 L104.85 168.55 L101.19 167.93 L98.43 166.51 L90.54 159.52 L88.78 156.63 L88.1 152.17 L87.43 151.09 L84.4 148.05 L83.36 146.71 L82.75 144.48 L82.38 139.6 L81.84 137.35 L75.1 125.33 L74.15 120.96 L74.79 118.7 L77.8 113.24 L79.17 109.49 L79.81 108.61 L80.3 107.6 L80.3 106.13 L79.65 105.11 L78.62 104.61 L77.65 104.43 L77.2 104.43 L76.97 103.41 L76.44 101.09 L77.12 99.72 L79.53 97.33 L80.76 95.16 L81.57 89.94 L85.35 83.74 L87.83 73.13 L89.49 68.37 L92.51 64.87 L96.09 62.11 L99.12 58.76 L100.38 53.52 L99.03 49.14 L96.57 45.08 L95.23 40.71 L95.85 39.09 L95.53 37.76 L114.91 38.12 L115 40.55 L119.92 40.5 L141.01 40.29 L184.87 39.84 L239.22 39.3 L289.77 38.79 L338.94 38.31 L373.85 37.96 L376.48 36.47 L378.09 32.45 L382 31.22 L410.39 32.11 L413.2 33.21 L415.45 34.09 L422.91 37.02 L428.54 38.06 L457.13 38.34 L484.21 38.6 L486.19 35.12 L492.57 34.12 L523.55 36.6 L525.44 36.98 L527.15 38.18 L528.72 41.27 L529.86 42 L532.21 41.91 L530.71 45.04 L534.63 44.49 L539.65 38.93 L544.46 38.12 L545.75 36.53 L547.07 35.97 L548.34 36.48 L549.5 38.12 L549.5 38.18 L575.1 38.64 L576.68 38.67 L576.98 41.26 L577.98 41.47 L579.55 40.89 L581.64 41.08 L582.98 42.68 L582.01 44.52 L580.33 46.33 L579.65 47.93 L590.44 58.37 L594.38 55.93 L596.65 50.76 L598.29 45.14 L600.37 41.33 L603.6 40.11 L608.27 39.61 L617.02 39.91 L617.81 39.65 L618.54 39.26 L619.21 38.76 L619.77 38.18 L619.77 38.14 L621.89 35.52 L627.8 32.7 L630.45 30.53 L631.67 28.1 L632.17 22.91 L633.22 19.58 L637.53 14.08 L641.87 14.08 L646.13 17.53 L650.17 22.38 L661.43 14.1 L664.28 11.31 L666.04 7.91 L665.54 5.85 L664.66 3.7 L665.28 0 Z "/>
</g>
</svg>
