<svg xmlns="http://www.w3.org/2000/svg" viewBox="0 0 1000 1027.2">
<g fill="#ccc" stroke="#333" stroke-width="0.5" stroke-linejoin="round">
<path fill-rule="evenodd" d="M155.43 139.26 L172.48 138.56 L180.72 136.07 L183.74 136.23 L188.01 137.13 L189.76 137.5 L193.76 137.5 L197.69 136.66 L199.51 135.62 L203.73 131.41 L206.48 130.16 L209.32 130.11 L218.18 131.35 L218.62 131.41 L223.74 136.03 L226.98 136.66 L228 135.99 L230.72 133.28 L231.88 132.35 L232.55 132.24 L234.22 132.34 L234.8 132.13 L235.24 131.27 L235.49 129.29 L235.73 128.69 L239.01 127.19 L245.03 128.54 L247.36 128.03 L248.34 127.81 L249.81 126.3 L250.23 124.56 L250.24 122.9 L250.45 121.62 L251.61 120.18 L255.97 117.11 L255.99 117.1 L256 117.08 L257.57 114.21 L261.71 110.2 L263.29 107.83 L263.51 106.66 L263.53 106.16 L263.63 103.6 L264.1 102.14 L265.01 101.11 L266.92 99.68 L267.99 98.88 L271.51 96.96 L278.94 94.77 L279.49 94.36 L280.68 93.02 L281.16 92.73 L282.01 93.03 L282.37 93.77 L282.56 94.55 L282.85 94.99 L286.7 97.08 L287.57 97.4 L290 96.53 L294.18 92.72 L296.83 91.48 L299.46 91.25 L300.37 91.37 L301.7 91.53 L306.1 92.94 L309.64 93.4 L310.7 93.71 L311 94.3 L311.17 96.34 L311.41 96.87 L312.14 96.96 L313.11 96.33 L315.31 96.26 L318.25 95.73 L319.7 95.83 L320.76 96.35 L323.22 97.96 L324.54 98.46 L327.98 98.61 L329.84 98.41 L331.46 97.98 L333.69 97.31 L335.54 97.29 L339.33 97.86 L341.89 97.71 L343.67 97.01 L344.08 96.85 L346.08 95.17 L348.07 92.61 L348.33 91.35 L348.24 89.96 L348.63 88.84 L350.4 88.35 L351.74 88.69 L351.86 88.85 L352.41 89.58 L352.93 90.77 L353.83 91.99 L355.89 93.85 L357.4 94.61 L358.66 93.69 L360 90.57 L361.1 84.62 L361.58 72.4 L361.71 71.86 L362.79 67.51 L364.07 66.38 L366.24 64.46 L368.08 64.13 L371.47 63.52 L382.03 64.33 L405.04 67.9 L409.91 67.33 L412.53 66.56 L413.8 65.83 L414.83 64.76 L415.44 63.26 L415.62 60.44 L416.02 59.25 L417.7 57.64 L420.29 55.98 L423 54.82 L425.07 54.67 L427.22 56.19 L428.31 57.97 L429.52 59.14 L431.98 58.85 L434.06 57.71 L437.58 55.13 L439.79 54.41 L451.23 54.74 L458.88 58.73 L462.77 58.88 L464.21 57.94 L464.55 57.72 L467.46 54.76 L469.71 53.94 L473.56 53.9 L477.37 54.78 L479.26 54.29 L481.88 49.9 L483.62 49.06 L485.68 49.16 L488.14 48.88 L490.54 48.26 L492.41 47.35 L495.55 44.43 L496.49 44.56 L501.95 48.58 L503.66 48.46 L505.59 46.52 L506.24 46.08 L506.88 45.93 L507.43 45.57 L507.85 44.46 L510.42 46.17 L511.8 46.45 L513.09 45.81 L513.8 44.64 L513.86 43.32 L513.55 39.89 L513.26 34.91 L516.66 33.32 L521.29 33.73 L524.75 34.75 L525.65 35.47 L526.16 36.37 L526.67 37.04 L527.53 37.11 L527.87 36.53 L528.37 34.1 L528.85 33.11 L530.55 31.61 L530.72 31.5 L532.65 30.26 L534.85 29.32 L536.88 29.06 L538.75 31.19 L541.02 32.64 L541.12 34 L540.86 35.31 L541.06 36.17 L542.14 36.54 L542.95 36.28 L543.7 35.83 L544.71 35.68 L547.82 36.05 L548.85 35.94 L552.75 34.77 L554.54 34.58 L556.99 34.99 L558.72 34.61 L561.08 31.23 L563.65 30.65 L566.99 29.34 L569.41 31.53 L570.85 35.59 L571.22 39.89 L571.55 41.16 L572.03 41.88 L572.63 42.49 L573.26 43.39 L573.68 43.84 L574.78 44.55 L575.23 45.07 L575.36 45.84 L575.07 47.55 L575.15 48.12 L576.94 49.78 L578.53 50.18 L582.57 50.11 L581.86 51.66 L584.54 51.66 L586.82 51.99 L588.94 53.01 L591.21 55.06 L595.15 60.16 L597.68 62.43 L599.98 62.53 L600.98 60.28 L600.66 57.59 L601.02 55.53 L605.54 55.21 L607.96 54.34 L609.11 54.1 L610.67 54.3 L614.22 56.5 L633.19 64.59 L635.1 64.18 L635.69 64.19 L636.04 64.59 L636.94 66.13 L637.39 66.65 L641.73 68.69 L642.19 68.91 L644.43 70.81 L649.37 77.62 L651.63 78.99 L654.31 79.42 L657.04 79.22 L676.51 72.88 L679.49 72.36 L680.69 72.48 L681.61 72.76 L682.51 72.86 L683.65 72.41 L684.67 71.14 L685.42 69.43 L686.32 67.97 L687.89 67.44 L698.14 68.15 L699.28 68.55 L701.7 69.98 L702.81 70.3 L704.12 70.1 L704.91 69.56 L705.74 68.73 L707.16 67.68 L708.47 67.22 L712.5 66.92 L716.84 63.98 L718.02 63.51 L720.62 64.5 L724.02 68.3 L726.27 69.23 L727.92 68.89 L730.81 67.38 L732.43 67.4 L733.99 67.7 L735.28 67.54 L737.91 66.26 L741 64.17 L742.5 63.42 L752.43 61.11 L753.28 61.32 L754 60.92 L755.34 58.8 L757.13 54.87 L758.42 51.02 L759.04 50.08 L759.77 49.82 L760.36 49.46 L760.56 48.21 L760.2 47.27 L758.59 45.74 L758.1 45.04 L756.9 42.31 L757.1 41.27 L758.46 39.86 L758.88 37.9 L759.06 36.15 L758.9 34.38 L758.32 32.34 L757.67 31.61 L755.85 31.27 L755.2 30.74 L754.99 29.69 L755.17 27.25 L755.09 26.08 L754.02 22.11 L753.35 20.81 L752.35 19.62 L751.02 18.98 L749.39 18.66 L747.73 17.88 L746.87 16.59 L746.35 15.82 L745.8 14 L745.48 11.8 L745.55 9.55 L746.2 7.62 L746.99 6.72 L747.77 6.48 L748.56 6.43 L749.43 6.06 L752.55 3.51 L755.65 2.66 L762.01 2.46 L764.56 0 L766.22 0.12 L767.18 0.72 L770.27 4.27 L771.77 5.54 L774.2 6.25 L778.67 5.82 L781.72 5.54 L783.78 6.2 L786.91 9.12 L791.37 10.27 L793.41 11.15 L795.25 11.63 L794.9 13.89 L793.88 15.85 L800.47 20.84 L805.74 23.58 L806.89 24.79 L809.1 21.46 L809.07 22.62 L809.19 23.77 L809.46 24.81 L809.89 25.69 L809.37 27.54 L809.82 31.56 L809.1 33.1 L810.33 35.33 L810.9 38.01 L811.47 43.78 L813.36 51.34 L813.85 54.46 L813.87 57.73 L813.31 60.96 L812.25 63.62 L810.75 65.11 L808.59 65.33 L806.1 64.66 L803.89 63.4 L802.68 61.85 L796.77 68.18 L795.55 68.37 L795.05 68.87 L794.76 69.56 L794.11 70.3 L790.87 72.4 L787.81 75.16 L785.83 76.2 L778.48 76.95 L777.18 78.17 L778.98 80.84 L777.76 84.22 L777.24 87.21 L777.6 89.95 L778.98 92.62 L776.81 96.02 L776.81 97.28 L778.55 97.78 L779.38 98.49 L777.4 102.48 L777.71 104.71 L779.33 108.18 L780.32 109.81 L783.41 111.32 L783.5 113.12 L782.7 114.92 L781.72 115.74 L779.98 115.95 L778.97 116.55 L778.64 117.54 L778.98 118.9 L780.19 120.46 L781.32 121.01 L781.66 121.55 L780.49 123.1 L778.86 124.38 L775.55 125.95 L774.14 127.39 L774.48 128.04 L775.18 129.11 L775.26 130.1 L773.71 130.54 L772.73 130.38 L771.91 129.91 L771.31 129.21 L770.9 128.34 L770.2 128.34 L769.25 131.4 L768.56 132.8 L767.74 133.69 L766.94 133.69 L766.8 133.05 L766.22 131.59 L766.24 133.2 L766.12 134 L765.61 134.35 L764.57 134.64 L764.48 135.37 L764.64 135.61 L764.94 135.65 L765.35 135.79 L764.2 136.34 L763.86 136.86 L763.78 137.88 L764.58 139.56 L758.34 144.97 L756.57 147.79 L755.58 151.88 L753 154.96 L749.44 156.71 L745.07 156.27 L745.41 155.65 L744.14 153.31 L743.86 150.17 L743.14 147.43 L740.65 146.23 L740.65 145.18 L742.25 145.22 L744.36 144.91 L746.2 144.34 L747 143.65 L746.23 142.09 L744.48 141.85 L742.59 142.36 L741.38 143.08 L740.93 142.05 L740.65 140.89 L739.78 140.89 L739.78 142.04 L740.29 142.83 L740.65 144.22 L739.78 144.22 L737.98 142.1 L734.35 139.85 L730.52 138.71 L727.97 139.94 L726.02 139.42 L719.73 139.21 L718.4 138.37 L717.12 138.16 L708.87 138.89 L704.11 137.91 L699 136.09 L694.05 135.15 L689.71 136.8 L688.75 136.54 L686.3 136.03 L683.87 134.7 L682.17 133.08 L680.39 131.93 L674.57 130.65 L672.59 130.5 L668.33 128.57 L663.44 125.08 L658.65 123.52 L654.76 127.35 L653.97 127.35 L653.91 126.58 L644.84 124.93 L642.4 123.54 L640.93 122.42 L639.89 122.25 L639.43 121.82 L639.63 119.92 L640.14 118.64 L641.07 117.64 L642.26 116.99 L643.59 116.76 L641.44 115.3 L639.94 114.56 L630.52 114.66 L628.4 115.18 L628.46 117.72 L626.05 119.95 L624.62 120.77 L622.9 120.97 L623.75 123.81 L622.68 125.01 L620.63 125.23 L618.51 125.16 L616.98 125.66 L613.19 127.81 L611.34 128.31 L608.02 130.68 L604.59 135.36 L600.88 138.63 L596.67 136.8 L592.33 138.74 L590.05 138.89 L587.89 137.84 L588.44 137.44 L588.49 137.3 L588.75 136.8 L584.71 134.6 L582.23 136.93 L581.54 137.84 L580.75 137.84 L579.71 135.38 L578.48 133.25 L576.98 131.3 L577.51 129.37 L575.83 128.55 L574.58 127.38 L573.81 125.74 L573.55 123.54 L567.88 122.55 L566.41 122.02 L565.31 122.9 L563.96 123.1 L562.67 123.54 L561.65 125.16 L559.21 124.1 L556.01 124.49 L553.25 125.88 L550.98 129.32 L545.8 133.6 L544.07 134.6 L545.46 135.78 L546.35 137.19 L546.23 138.39 L543.74 139.08 L543.29 139.61 L543.25 140.43 L543.71 141.46 L544.37 141.89 L546.3 141.74 L547.32 142.04 L532.28 150.95 L520.55 157.89 L516.25 158.88 L511.25 158.59 L506.18 157.23 L493.14 150.26 L490.85 149.72 L489.43 149.39 L485.62 149.84 L479.21 152.51 L476.62 154.22 L474.18 156.4 L472.59 158.88 L471.98 162.87 L472.96 166.19 L475.03 168.49 L477.69 169.33 L479.39 170.48 L481.35 173.24 L482.99 176.52 L483.69 179.3 L484.43 179.51 L488.44 183 L489.97 183.53 L491.8 183.71 L493.56 183.54 L494.86 183 L495.61 184.64 L497.88 186.8 L497.96 188.22 L497 188.87 L488.98 189.88 L487.22 191.68 L486.75 194.61 L487.64 198.64 L492.46 205.94 L493.59 207.06 L497.28 208.88 L497.96 209.62 L502.38 210.65 L503.57 211.13 L504.9 210.53 L508.05 210.07 L509.13 209.14 L509.11 207.72 L508.41 205.77 L506.75 202.8 L507.62 201.77 L506.75 200.72 L509.09 200.5 L511.11 203.11 L513.95 209.14 L515.33 210.89 L517.72 213.18 L520.41 214.49 L522.68 213.31 L523.89 213.99 L527.41 215.18 L528.65 215.39 L529.46 216.13 L530.75 219.55 L531.44 220.59 L534.86 220.66 L538.68 224.9 L544.99 234.19 L552.27 241.61 L553.49 245.66 L549.69 248.72 L544.76 249.88 L542.59 249.37 L541.7 247.16 L540.99 244.44 L539.31 242.86 L537.24 241.74 L535.43 240.42 L532.37 235.79 L530.14 231 L527.38 226.99 L522.68 224.75 L513.32 223.05 L510 221.64 L507.05 219.59 L502.82 215.22 L500.4 213.31 L498.78 212.67 L494.42 213.31 L490.15 212.16 L488.44 212.26 L482.48 215.21 L479.86 215.74 L476.47 214.25 L476.13 215.09 L475.34 216.41 L474.89 216.34 L472.9 219.22 L472.19 221.83 L472.43 224.31 L474.26 229.15 L474.83 230.03 L475.68 230.98 L479.63 233.63 L480.4 236.1 L482.06 238.03 L483.71 239.05 L484.49 238.81 L492.4 242.58 L493.86 242.04 L495.78 242.8 L497.7 244.32 L499.18 246.07 L500.88 247.33 L505.47 248.98 L506.75 250.79 L506.6 252.11 L505.14 253.56 L505.16 255.03 L505.82 255.92 L507.9 257.44 L508.33 258.61 L507.96 259.89 L507.14 260.11 L506.32 260.09 L505.93 260.67 L506.24 262.41 L507 263.11 L508.02 262.96 L509.13 262.18 L509.1 263.73 L509.18 264.77 L509.44 265.57 L510 266.33 L506.9 268.97 L506.38 270.32 L507.62 271.59 L507.62 272.63 L505.37 272.69 L504.27 273.64 L504.61 274.58 L506.75 274.7 L506.75 275.83 L500.79 276 L498.44 275.41 L498.81 273.66 L498.81 272.63 L497.96 272.63 L497.05 273.38 L496.23 273.17 L495.88 272.14 L496.45 270.55 L492.33 268.18 L491.61 267.92 L491.07 266.26 L489.76 265.14 L488.17 264.78 L487.34 265.48 L487.23 266.18 L487.64 267.46 L483.37 260.31 L482.82 258.61 L483.56 256.09 L483.77 254.57 L483.25 253.89 L482.03 253.39 L481.35 252.18 L480.91 250.77 L480.42 249.66 L470.09 235.72 L466.18 233.06 L463.96 232.42 L454.39 231.64 L447.87 227.86 L442.57 226.4 L437.91 226.62 L434.04 229.06 L431.15 234.19 L430.87 237.16 L431.76 239.73 L432.94 242.24 L433.53 245.03 L433.88 245.97 L434.78 246.44 L437.13 246.64 L438.18 246.95 L438.86 247.73 L439.94 249.66 L446.15 258.63 L449.58 262.39 L461.64 269.03 L469.48 270.91 L469.78 271.84 L469.78 273.16 L470.14 274.7 L471.24 276.52 L472.62 277.81 L474.45 278.58 L476.87 278.83 L478.5 279.33 L477.61 280.42 L475.45 281.53 L473.3 282.03 L463.24 280.41 L446.34 273.1 L443.51 272.63 L434.86 274.08 L433.53 274.7 L434.16 273.02 L435.64 270.15 L435.97 268.4 L435.6 267.14 L433.92 264.77 L433.53 263.83 L432.62 260.15 L430.57 257.51 L428.42 255.33 L427.18 252.95 L428.77 248.05 L429.35 242.25 L428.66 236.85 L426.39 233.06 L421.69 230.37 L419.14 229.38 L414.83 228.37 L412.84 227.14 L410.96 226.3 L408.96 226.82 L402.92 222.3 L401.74 222.16 L400.51 221.03 L397.79 220.39 L395.05 219.31 L392.93 215.43 L387.47 211.13 L385.26 210.09 L383.25 209.75 L378.68 210.09 L379.79 207.69 L378.85 205.2 L375.43 200.72 L375.79 200.59 L376.11 200.61 L376.28 200.46 L376.25 199.77 L372.03 194.91 L370.96 192.41 L373.5 191.34 L380.91 190.9 L384.88 190.12 L386.6 188.73 L387.36 187.37 L388.78 186.26 L389.71 184.7 L388.98 181.95 L386.15 180.15 L385.41 179.86 L384.9 179.4 L385.12 178.35 L385.81 176.63 L383.98 172.73 L381.27 170.64 L378.09 170.23 L374.72 171.42 L375.54 174.32 L375.26 176.65 L374.32 178.47 L373.13 179.86 L371.29 180.81 L370.2 181.6 L370.29 181.95 L367.94 181.93 L366.95 181.6 L365.93 180.81 L363.63 182.39 L362.17 184.3 L361.77 186.58 L362.68 189.26 L361.96 189.26 L361.09 188.22 L361.09 190.4 L360.37 190.4 L360.37 189.26 L359.52 189.26 L359.04 191.07 L358.11 190.97 L356.88 190.02 L355.56 189.26 L355.5 188.54 L353.76 188.64 L351.93 190.2 L351.76 192.05 L353.97 193.33 L352.89 193.45 L352.15 193.82 L351.73 194.63 L351.61 196.09 L351.11 196.89 L350.06 196.61 L348.34 195.51 L345.56 195.6 L344.12 196.19 L342.8 197.59 L344.46 199.12 L345.66 201.29 L346.24 203.7 L345.98 205.93 L347.37 207.22 L348.51 208.97 L349.87 210.48 L352 211.13 L352.32 212.72 L350.76 216.24 L347.62 221.64 L344.1 232.11 L344.16 233.86 L339.71 243.52 L339.38 246.97 L340.27 249.51 L341.48 252.04 L342.08 255.5 L341.61 258.97 L341.89 260.57 L343.27 261.24 L343.79 261.99 L345.26 266.33 L351.32 271.52 L352.38 272.1 L353.02 272.69 L355.78 273.62 L356.42 274.17 L356.67 274.73 L357.75 274.65 L358.01 275.26 L357.88 278.04 L357.97 278.64 L358.01 278.83 L359.5 284.28 L360.37 286.15 L361.58 287.77 L365.97 291.53 L368.58 292.97 L370.22 294.68 L373.13 298.55 L374.28 300.5 L375.26 303.11 L375.96 306.14 L376.25 309.37 L376.78 311.78 L380.27 320.38 L382.97 329.32 L384.64 332.16 L386.2 333.76 L392.23 337.77 L398.16 340.2 L402.64 343.69 L402.98 344.04 L403.49 344.7 L404.91 349.27 L406.25 351.16 L416.16 362.44 L417.65 365.56 L423.17 370.91 L425.6 379 L431.41 390.45 L431.58 392.4 L430.36 393.18 L426.64 396.63 L424.38 397.41 L419.95 398.08 L417.74 398.76 L416.01 399.55 L416.64 399.91 L417.12 400.26 L417.61 400.55 L418.4 400.66 L418.4 401.6 L417.38 401.92 L416.53 402.43 L415.84 403.01 L415.31 403.63 L413.89 403.15 L411.31 403.33 L408.65 404.05 L406.94 405.17 L405.07 406.07 L402.36 405.91 L397.7 404.66 L398.79 402.56 L400.15 400.66 L399.53 398.63 L401.08 397.25 L404.91 395.47 L404.89 397.39 L403.34 403.63 L411.6 399.09 L412.84 397.41 L412.05 396.02 L412.72 395.53 L413.83 395.62 L414.43 395.97 L414.8 396.62 L415.62 395.78 L416.46 394.12 L416.87 392.4 L416.31 390.77 L413.3 385.68 L412.05 384.21 L412.55 381.73 L411.3 379.07 L409.24 376.62 L407.29 374.81 L405.07 373.24 L403.06 372.52 L394.05 371.72 L393.96 371.2 L394.1 370.51 L393.82 369.78 L393.25 368.89 L392.06 366.48 L391.44 365.78 L390.59 365.63 L387.47 365.78 L384.84 365.08 L384.22 365.26 L385.03 366.7 L385.03 367.73 L383.86 368.95 L383.43 370.72 L383.79 372.52 L385.03 373.88 L382.29 374.56 L377.72 375.02 L373.38 376.08 L371.49 378.53 L371.26 384.33 L371.49 386.16 L374.72 395.47 L375.43 395.47 L376.34 393.88 L377.83 392.4 L377.38 390.79 L377.98 390.7 L378.91 391.7 L379.48 393.42 L380.27 392.4 L381.32 394.84 L381.75 397.76 L382.45 400.55 L384.24 402.61 L384.22 401.91 L384.37 401.73 L384.64 401.75 L385.03 401.6 L384.55 400.58 L384.24 399.55 L387.15 401.47 L388.57 404.02 L389.63 406.65 L391.44 408.84 L390.73 410.7 L390.9 411.1 L391.44 411.9 L387.77 414.09 L386.89 415.51 L387.47 417.92 L393.44 414.31 L396.6 413.27 L400.15 412.92 L400.15 413.84 L399.18 414.97 L395.41 417.01 L394.37 418 L393.88 419.07 L393.03 422.1 L392.5 423.16 L391.7 424.28 L391.28 424.73 L390.76 425.3 L389.87 426.09 L389.19 426.24 L387.5 425.95 L386.6 426.09 L385.83 426.79 L385.2 427.13 L384.24 427.2 L384.77 428.75 L385.03 429.33 L383.37 429.48 L381.04 430.92 L379.88 431.27 L378.48 430.96 L376.96 430.33 L375.4 429.94 L373.85 430.25 L373.3 431.33 L372.7 434.72 L371.88 435.44 L368.99 435.53 L368.05 436.12 L367.52 437.48 L365.85 437.4 L363.17 438.08 L360.63 438.31 L359.52 436.92 L358.96 435.72 L357.74 436.07 L355.56 437.48 L354.56 437.1 L352.61 435.75 L352 435.44 L351.78 435.04 L347.73 432.03 L346.77 432.24 L344.64 433.77 L343.93 434.49 L343 435.15 L341.72 435.44 L340.57 435.52 L339.66 435.8 L338.87 436.42 L338.12 437.48 L337.67 437.08 L336.53 436.37 L336.53 440.44 L342.08 439.52 L342.08 440.44 L339.87 441.94 L340.97 443.7 L343.23 444.34 L344.46 442.48 L345.26 442.48 L344.46 444.6 L346.17 444.52 L347.71 444.05 L349.02 443.86 L350 444.6 L355.71 441.65 L357.14 441.55 L359.95 446.18 L362.41 449.22 L363.68 449.98 L364.91 451.36 L365.93 451.82 L366.87 451.72 L369.12 450.9 L370.29 450.7 L371.84 451.18 L373.73 452.38 L375.4 454.01 L376.25 455.79 L378.61 453.4 L379.85 452.78 L381.78 452.74 L383.03 453.32 L385.32 455.34 L387.05 455.79 L393.56 455.88 L396.54 457.04 L398.56 459.86 L402.17 471.56 L403.8 473.15 L406.01 473.37 L407.14 472.95 L408.52 471.57 L409.83 470.91 L411.28 471.08 L412.85 470.87 L414.43 469 L412.19 467.47 L411.19 467.06 L413.35 466.07 L415.46 466.56 L419.26 469 L421.13 469.67 L424.98 470.21 L427.18 471.03 L428.93 472.43 L430.12 474.36 L430.64 476.42 L430.36 478.23 L428.95 479.68 L427.25 480.51 L425.72 481.96 L424.8 485.32 L425.96 483.59 L427.35 483.53 L428.77 484.5 L429.96 485.88 L431.21 486.94 L434.33 487.69 L435.97 488.46 L435.97 489.46 L434.95 489.85 L432.28 489.91 L431.15 490.38 L430.19 491.49 L429.89 492.46 L430.56 493.17 L432.37 493.43 L440.25 493.06 L451.97 495.08 L453.42 493.98 L454.71 491.96 L457.52 493.53 L461.48 497.57 L459.1 499.1 L458.25 499.5 L458.25 500.61 L459.69 500.94 L460.88 501.6 L461.34 502.51 L460.63 503.65 L460.63 504.66 L464.23 506.45 L469.78 514.98 L474.09 517.89 L475.82 517.98 L482.45 516.88 L485.13 518.52 L486.42 518.81 L497.6 523.59 L499.97 523.95 L502.08 524.67 L503.93 526.39 L506.75 530.1 L512.24 534.58 L513.15 535.61 L513.64 536.54 L515.78 537.41 L516.25 538.63 L516.01 539.82 L515.67 540.94 L515.84 542.02 L517.12 543.14 L515.89 543.61 L515.21 544.75 L514.85 546.36 L514.66 548.26 L513.95 546.2 L512.15 546.42 L506.49 549.54 L506.6 552.56 L508.33 558.88 L508.82 561.64 L509.92 563.69 L511.04 565.24 L511.56 566.48 L511.25 567.85 L509.69 571.01 L509.13 572.5 L509.15 573.76 L509.45 575.21 L509.61 576.83 L509.13 578.63 L510.41 578.56 L511.76 578.97 L512.79 579.92 L513.15 581.46 L512.67 582.24 L509.13 583.56 L509.96 584.53 L511 585.24 L512.28 585.6 L513.95 585.57 L513.15 586.67 L513.79 586.8 L515.53 587.58 L514.82 588.87 L514.65 589.91 L514.94 590.8 L515.53 591.59 L514.94 591.95 L514.46 592.32 L514.14 592.86 L513.95 593.69 L516.7 595.42 L517.59 596.79 L517.91 599.22 L517.77 602.37 L517.27 604.02 L514.66 606.82 L516.25 607.73 L516.25 608.83 L514.66 608.83 L514.66 609.74 L515.4 609.85 L515.51 610.31 L515.4 610.99 L515.53 611.83 L515.39 611.45 L515.34 611.02 L515.19 610.99 L514.66 611.83 L516.14 613.27 L515.16 614.89 L513.15 616.74 L511.56 618.84 L510.24 617.92 L505.8 616.09 L503.97 615.75 L501.93 615.04 L501.15 613.21 L501.19 607.73 L500.4 607.73 L498.79 608.62 L497.7 605.9 L496.45 599.71 L496 600.09 L494.86 600.81 L494.02 598.36 L492.16 595.92 L490.06 594.39 L488.44 594.7 L487.93 594.2 L487.49 593.91 L487.11 593.5 L486.77 592.69 L486.05 592.69 L485.39 595.79 L484.22 595.8 L482.99 595.26 L482.11 596.71 L481.92 595.71 L481.83 594.95 L481.48 594.57 L480.42 594.7 L481.16 592.89 L480.65 591.32 L478.14 588.58 L477.83 585.78 L473 578.64 L472.59 576.53 L470.63 575.59 L468.68 576.02 L466.67 576.95 L464.59 577.53 L464.54 576.8 L464.59 576.53 L465.7 576.02 L466.06 575.6 L466.18 574.61 L464.42 575.35 L463.42 574.5 L462.53 573.2 L461.05 572.5 L459.39 572.47 L457.96 572.23 L456.77 571.63 L455.87 570.5 L460.03 566.69 L461.08 564.5 L460.23 561.9 L459.16 560.8 L458.37 560.73 L457.63 561.1 L456.66 561.35 L452.25 561.35 L451.05 561.66 L450.28 562.36 L449.7 563.05 L449.09 563.37 L446.33 563.53 L445.12 563.87 L443.91 564.46 L439.48 568.45 L437.56 569.4 L441.52 570.5 L439.14 571.4 L429.96 570.5 L418 571.51 L413.63 573.69 L410.18 576.38 L408.19 577.92 L402.59 580.72 L397.7 578.63 L396.63 579.11 L395.71 579.06 L394.7 578.79 L393.42 578.63 L393 579.4 L393.03 581.09 L392.86 582.79 L391.84 583.56 L391.1 584.97 L391.61 587.83 L393.12 590.06 L395.41 589.58 L397.43 590.64 L400.2 591 L402.95 590.64 L404.91 589.58 L408.65 593.25 L410.69 594.81 L412.84 595.7 L412.33 597.15 L412.15 598.52 L412.33 599.76 L412.84 600.81 L411.25 601.11 L409.13 602.43 L406.55 602.85 L406.18 603.32 L406.07 604.25 L405.71 605.73 L408.6 607.94 L410.17 608.68 L412.05 608.83 L410.97 612.17 L410.69 614.43 L411.08 616.65 L412.05 619.84 L410.46 619.84 L410.77 623.02 L411.24 624.32 L413.74 625.32 L418.4 628.95 L419.26 627.85 L423.55 632.07 L424.06 632.26 L424.66 632.37 L425.6 632.85 L427.93 634.81 L429.17 635.56 L430.75 635.85 L433.5 634.06 L433.36 630.16 L431.21 626.35 L427.91 624.85 L427.91 623.85 L429.88 622.25 L432.05 621.35 L437.95 620.84 L439.15 622.59 L438.61 626.5 L437.04 630.59 L435.12 632.85 L436.28 634.09 L437.53 634.98 L438.96 635.55 L440.67 635.85 L440.67 636.94 L438.42 637.74 L437.56 637.85 L437.56 638.85 L438.35 638.85 L439.34 639.29 L442.32 639.85 L444.94 641.6 L447.3 642.4 L452.69 646.93 L452.1 647.61 L451.91 647.91 L452.12 648.22 L452.69 648.93 L452.69 649.93 L450.34 651.21 L443.51 653.53 L442.96 653.55 L429.2 654.24 L427.18 653.92 L427.35 654.44 L427.44 654.89 L427.59 655.36 L427.91 655.92 L423.72 655.33 L422.17 655.51 L422.36 657 L418.4 657.91 L418.37 659.32 L419.19 660 L420.39 660.13 L421.57 659.91 L420.84 660.99 L420.84 661.9 L421.73 662.03 L423.94 662.99 L422.13 663.85 L419.99 664.07 L415.67 663.89 L413.27 664.33 L413.19 665.57 L414.25 667.46 L415.31 669.88 L412.9 670.37 L411.24 670.34 L409.81 669.81 L408.09 668.88 L408.09 667.88 L410.46 667.88 L410.46 666.89 L409.1 666.51 L407.48 666.8 L405.99 666.65 L404.91 664.99 L407.29 665.98 L406.73 664.61 L405.88 663.6 L403.34 661.9 L402.44 662.85 L401.28 662.89 L400.15 662.21 L400.15 661.9 L399.8 657.28 L400.09 655.5 L401.39 656.46 L402.69 657.19 L403.88 656.11 L404.73 654.07 L404.91 651.92 L407.45 653.4 L408.09 653.92 L408.09 653.01 L407.52 651.67 L407.35 650.77 L407.29 649.43 L406.99 648.55 L406.24 648.19 L405.36 647.94 L404.59 647.39 L402.95 646.56 L398.87 647.62 L397 646.93 L398.56 645.93 L397 642.94 L394.1 644.65 L392.97 645.56 L392.23 646.93 L390.61 641.66 L389.43 639.75 L387.47 637.85 L386.93 637.7 L385.58 637.92 L385.03 637.85 L384.6 637.38 L384.39 636.73 L384.32 636.13 L384.24 635.85 L382.56 635.13 L381.55 634.92 L380.27 634.94 L381.72 635.36 L382.2 635.83 L382.65 636.94 L380.33 635.94 L378.32 636.19 L376.5 637.29 L374.72 638.85 L373.92 637.97 L370.69 635.85 L370.95 635.31 L371.49 633.86 L370.01 633.22 L368.68 632.13 L367.97 630.91 L368.31 629.85 L367.09 628.04 L365.93 626.85 L363.4 627.91 L361.3 629.2 L359.9 631.32 L359.52 634.94 L359.78 635.69 L360.86 637.44 L361.09 638.35 L360.96 639.29 L360.4 641 L360.37 641.85 L360.87 643.47 L361.47 644.33 L362.1 644.97 L362.68 645.93 L362.81 646.65 L362.68 649.43 L362.95 649.86 L364.36 651.01 L364.29 652.51 L363.49 654.45 L363.57 655.92 L369.65 663.2 L370.69 663.89 L369.9 665.98 L371.49 665.98 L371.49 666.89 L370.69 666.89 L370.69 667.88 L371.91 669.06 L374.69 674.08 L375.51 676.73 L379.48 683.91 L379.88 684.32 L380.82 685.74 L381.41 687.27 L380.67 687.98 L380.1 688.8 L379.73 690.7 L379.48 694.49 L380.42 696.32 L382.62 696.8 L385.02 696.49 L386.6 695.93 L386.68 696.6 L386.89 697.01 L387.16 697.38 L387.47 697.92 L386.65 698.43 L386.79 698.58 L387.47 698.92 L386.6 700.01 L388.59 700.73 L389.54 701.93 L389.25 702.65 L387.47 701.9 L388.52 704.49 L391.65 709.13 L391.44 710.84 L392.38 713.3 L393.03 715.89 L392.42 715.82 L391.18 715.93 L390.59 715.89 L390.87 716.6 L391.76 718.15 L392.23 718.78 L392.46 718.3 L392.55 718.2 L392.65 718.17 L393.03 717.88 L393.41 719.22 L393.57 720.47 L393.44 721.65 L393.03 722.84 L394.19 724.76 L396.5 730.61 L397.35 731.85 L397 732.98 L398.54 735.53 L401.74 738.78 L402.49 740.35 L402.76 741.98 L402.32 743.24 L401.02 743.73 L401.02 744.63 L402.24 744.7 L403.14 744.9 L404.91 745.71 L404.42 746.82 L403.09 747.83 L402.63 748.68 L402.46 749.5 L402.47 749.96 L402.55 750.4 L402.63 751.16 L401.96 752.73 L400.47 752.59 L398.83 751.62 L397.7 750.66 L396.71 752.27 L395.26 753.79 L394.64 755.23 L396.2 756.59 L395.96 757.08 L395.63 758.09 L395.41 758.57 L398.56 758.57 L395.66 761.13 L395.8 764.86 L397.52 768.71 L399.81 772.4 L401.02 774.96 L401.51 775.41 L403.82 776.4 L405.13 777.42 L407.29 778.41 L407.79 779.11 L408.07 779.83 L408.54 780.36 L409.67 780.48 L408.59 781.27 L408.09 781.47 L408.09 782.37 L408.79 783.18 L408.87 783.94 L408.37 784.64 L407.29 785.32 L409.3 788.25 L412.77 790.41 L415.31 792.75 L414.43 796.16 L410.46 794.18 L409.3 795.71 L407.84 795.93 L402.66 794.62 L401.62 793.11 L400.77 791.43 L399.36 790.25 L399.36 789.35 L400.04 787.41 L399.23 785.1 L397.59 783.17 L395.8 782.37 L390.82 783.48 L388.46 783.5 L387.47 781.91 L386.93 779.56 L384.33 773.96 L383.45 772.49 L382.12 771.21 L377.12 767.55 L378.77 765.82 L378.23 764.11 L373.38 759.66 L372.76 759.44 L372.3 760.55 L370.69 762.52 L370.18 761.75 L370.04 760.48 L370.69 757.09 L370.44 754.89 L369.36 751.76 L368.54 746.51 L366.92 743.95 L364.4 742.39 L361.09 741.76 L355.16 741.63 L347.85 742.5 L342.6 745.46 L342.8 751.64 L338.97 754.39 L337.5 756.45 L336.53 759.64 L338.29 759.63 L339.4 760.63 L339.85 762.38 L339.71 764.59 L338.92 764.59 L338.7 763.57 L338.27 762.52 L337.55 761.75 L336.53 761.62 L335.56 762.39 L334.94 763.73 L334.78 765.02 L335.3 765.58 L337.22 767.22 L336.64 770.17 L335.09 771.56 L334.16 768.45 L332.45 769.5 L331.76 771 L331.71 779.49 L332.06 782.79 L332.77 785.51 L334.95 791.23 L334.47 792.03 L334.95 793.3 L333.42 794.32 L332.91 795.83 L333.24 797.56 L334.16 799.21 L334.16 800.19 L333.09 800.08 L332.8 800.49 L332.79 801.24 L332.57 802.15 L331.26 800.55 L330.87 798.07 L330.73 795.43 L330.12 793.3 L328.43 791.87 L324.38 790.24 L322.98 788.27 L322.19 788.27 L321 789.52 L319.84 789.24 L318.75 788.11 L317.83 786.85 L316.72 784.69 L316.82 783.1 L317.54 781.54 L318.23 779.49 L320.1 780.03 L320.63 778.32 L320.15 775.94 L318.95 774.46 L319.53 773.76 L320.61 771.6 L318.23 771.6 L318.44 769.74 L318.28 767.5 L318.68 765.78 L320.61 765.58 L320.61 764.59 L318.34 763.79 L318.59 761.32 L320.61 756.59 L317.2 757.19 L314.97 753.66 L313.15 749.11 L311.03 746.61 L311.21 743.79 L309.43 740.08 L301.28 728.85 L298.81 727.56 L295.89 729.77 L292.83 727.45 L291.57 726 L291.06 723.83 L291.33 723.9 L291.89 723.1 L292.44 721.8 L292.72 720.35 L292.84 718.7 L293.4 715.87 L293.58 711.91 L293.35 710.88 L285.51 709.11 L281.15 708.85 L279.05 709.46 L274.66 712.2 L270.29 713.43 L268.96 714.94 L268.29 716.88 L267.12 730.75 L266.53 732.51 L266.48 733.83 L266.97 735.5 L267.69 736.76 L268.01 738.04 L267.27 739.77 L269.26 741.69 L270.48 742.5 L272.11 742.75 L272.11 743.73 L270.55 743.85 L269.19 744.46 L268.46 745.44 L268.86 746.61 L268.12 747.93 L263.29 752.41 L262.64 753.16 L261.93 753.65 L260.94 753.62 L258.94 749.51 L258.56 749.18 L254.99 741.76 L252.91 741.9 L251.15 742.31 L248.19 743.73 L246.81 742.28 L244.08 741.17 L243.35 739.77 L242.63 739.77 L241.59 740.39 L240.96 739.28 L240.34 737.43 L239.4 735.81 L239.85 734.44 L239.77 733.25 L239.48 731.83 L239.4 729.77 L239.76 728.45 L241.29 726 L241.84 724.73 L241.89 722.29 L241.04 720.18 L239.36 719.12 L237.02 719.86 L238.11 719.3 L238.46 718.84 L238.61 717.88 L237.57 717.81 L236.99 718.19 L236.3 719.86 L235.49 714.74 L232.52 710.93 L229.04 707.32 L226.64 702.81 L225.6 697.06 L225.36 691.22 L226.15 685.96 L228.21 681.91 L235.51 676 L238.68 672.61 L240.25 667.88 L239.74 662 L238.64 658.73 L237.81 656.25 L229.95 641.11 L225.53 634.4 L223.32 632.04 L213.29 624.89 L210.9 623.67 L209.6 622.34 L207.34 619.36 L206.16 618.27 L199.32 616.23 L197.05 616.87 L196.45 620.84 L195.72 620.84 L195.48 619.44 L195.5 617.98 L195.26 616.68 L194.14 615.75 L195.58 612.74 L196 610.33 L195.67 607.87 L193.75 601.21 L192.55 599.24 L190.93 598.02 L185.86 595.3 L173.64 591.55 L172.59 590.68 L171.96 588.9 L172.42 586.69 L171.8 585.57 L174.97 575.52 L175.77 575.52 L178.55 577.98 L183.59 575.57 L188.68 571.12 L191.69 567.48 L193.31 568.03 L194.7 567.13 L195.99 565.65 L197.31 564.46 L197.31 563.37 L196.88 563.07 L196.75 562.95 L196.69 562.81 L196.45 562.45 L195.32 562.95 L194.19 563.71 L193.2 564.58 L192.48 565.37 L197.7 557.32 L197.93 556.36 L202.08 549.77 L202.59 548.23 L202.85 546.31 L203.09 537.48 L202.92 535.06 L204.16 536.47 L205.71 539.16 L206.9 540.19 L206.8 538.42 L206.52 537.01 L206.01 535.93 L206.61 536.87 L208.3 537.77 L210.35 538.06 L212.84 538.09 L214.49 538.7 L220.29 543.14 L229.48 545.23 L231.72 544.79 L234.04 543.71 L237.81 541.12 L240.89 537.34 L245.56 527.81 L248.19 523.95 L257.05 518.35 L258.09 517.22 L265.76 518.81 L268.25 518.8 L269.36 518.54 L270.45 517.89 L271.56 518.91 L273.02 519.84 L274.7 520.56 L276.47 520.83 L277.93 521.37 L278.66 522.69 L279.14 524.37 L279.96 525.97 L281.24 527.06 L284.69 528.74 L285.94 529 L286.87 528.84 L288.18 528.15 L288.76 528.09 L289.74 529.13 L290.53 529.79 L291.5 530.1 L292.21 530.86 L293.45 534.65 L294.3 536.16 L295.27 536.68 L299.49 538.09 L299.85 538.42 L300.28 539.14 L300.94 539.86 L301.87 540.19 L305.47 540.19 L310.49 541.44 L311.89 542.21 L314.02 541.23 L315.84 542.43 L317.76 544.28 L321.33 545.73 L322.51 546.69 L323.72 547.29 L324.97 546.7 L325.81 546.49 L334.95 548.55 L347.62 555.31 L354.56 557.8 L355.56 558.88 L356.66 559.26 L365.93 567.48 L368.03 571.04 L368.71 571.51 L370.92 572.16 L374.53 575.35 L376.25 576.53 L378.04 576.81 L379.85 576.49 L382.65 575.52 L383.54 575.48 L384.5 575.58 L385.43 575.54 L386.21 575.07 L388.55 571.51 L388.8 570.72 L387.66 568.99 L385.97 567.26 L384.64 566.48 L382.82 565.88 L379.96 563.53 L377.83 563.37 L378.21 562.87 L378.6 562.66 L374.72 562.45 L377.21 560.35 L378.36 559.62 L379.88 559.33 L381.41 558.76 L383.98 556.08 L385.03 555.31 L388.15 555.54 L393.88 558 L396.2 557.32 L399.63 558.94 L403.38 558.42 L411.73 555.9 L413.69 553.7 L415.67 553.2 L416.82 552.38 L416.08 550.61 L414.21 548.9 L412.05 548.26 L412.02 547.52 L412.05 546.24 L413.52 546.08 L416.13 545.41 L417.6 545.23 L417.6 544.13 L416.44 543.98 L408.39 542.92 L406.58 542.21 L408.96 540.19 L405.91 536.92 L404.39 536.62 L400.66 540.21 L399.4 540.6 L395.41 540.19 L395.41 539.18 L397.7 539.18 L396.17 536.88 L394.58 535.66 L392.88 535.15 L386.08 534.38 L383.98 534.85 L382.65 537.08 L384.22 536.55 L385.92 536.67 L387.38 537.52 L388.12 539.18 L386.13 539.13 L382.67 538.49 L381.07 539.18 L379.48 532.03 L378.68 532.03 L377.83 534.13 L377.68 533.43 L377.32 532.75 L377.12 532.03 L375 532.74 L370.77 533.24 L369.1 534.13 L364.36 531.02 L365.33 529.5 L367.43 527.7 L368.31 525.97 L366.16 525.02 L361.75 523.76 L359.09 521.81 L357.17 521.25 L356.42 520.83 L355.84 520.05 L353.97 516.88 L355.03 514.29 L353.37 511.26 L350.62 510.01 L348.34 512.74 L350.43 513.03 L350.59 514.18 L349.49 515 L347.99 514.3 L346.66 513.88 L345.33 515.09 L344.27 516.79 L343.74 517.89 L343.74 518.81 L344.33 519.16 L344.67 519.45 L345.12 519.69 L345.98 519.92 L345.98 520.83 L345.12 521.43 L345.01 521.74 L345.2 522.12 L345.26 522.94 L343.91 524.36 L342.49 524.78 L340.87 524.29 L338.92 522.94 L338.87 522.51 L337.56 519.98 L337.33 519.92 L336.98 519.07 L336.66 518.63 L336.9 518.31 L338.12 517.89 L336.54 514.62 L330.98 507.69 L329.95 505.39 L329.33 504.66 L328.84 504.39 L327.61 504.01 L322.19 500.61 L322.34 502.14 L322.86 504.8 L322.98 506.21 L319.81 508.7 L318.95 509.71 L319.8 510.9 L320.38 511.46 L320.84 511.41 L321.4 510.72 L321.84 512.09 L321.57 513.21 L320.82 514.12 L319.81 514.77 L320.61 515.78 L319.95 517.01 L318.24 517.13 L316.01 516.32 L313.01 515.78 L308.65 516.33 L307.99 515.47 L306.5 514.66 L304.89 514.3 L303.82 514.77 L303.09 514.77 L301.67 514.44 L299.87 515.5 L298.32 517.48 L297.53 519.92 L296.57 518.89 L295.92 516.92 L295.16 515.78 L294.09 515.35 L293.07 515.52 L292.49 515.34 L292.72 513.85 L290.96 512.56 L287.26 511.44 L281.26 508.75 L279 508.64 L276.87 509.71 L274.13 506.96 L270.67 506.79 L267.32 508.1 L262.62 511.52 L261.55 511.78 L259.79 511.83 L258.86 511.35 L258.3 510.3 L257.71 509.22 L257.05 508.69 L255.97 509.02 L250.28 513.91 L249.4 515.54 L249.06 518.35 L248 519.13 L245.73 517.73 L242.63 514.77 L235.86 514.77 L233.96 515.27 L232.28 516.21 L230.7 516.68 L229.08 515.78 L221.63 521.27 L220.29 523.95 L219.58 523.95 L218.5 523 L216.87 522.64 L215.38 522.57 L214.74 522.43 L213.95 521.42 L209.2 518.81 L211.17 518.29 L213.01 519.34 L214.74 520.91 L216.33 521.93 L216.33 520.83 L215.79 520.19 L215.5 519.69 L215.63 519.03 L216.33 517.89 L215.22 517.08 L214.74 516.88 L214.74 515.78 L215.19 515.56 L216.33 514.77 L214.03 514.77 L214.74 512.74 L213.68 513.28 L212.7 513.51 L211.76 513.35 L210.86 512.74 L210.19 513.32 L209.69 513.53 L208.48 513.85 L209.21 510.93 L207.79 509.4 L205.42 508.8 L203.29 508.69 L202.41 507.31 L201.28 498.49 L198.83 495.55 L197.49 494.51 L196.91 494.25 L196.41 494.4 L195.29 494.54 L195.69 495.69 L200.48 503.65 L198.83 503.65 L199.07 504.19 L199.19 504.3 L199.34 504.32 L199.69 504.66 L199.26 506.19 L198.98 507.84 L198.54 509.16 L197.7 509.71 L196.51 509.98 L194.05 511.28 L193.27 511.83 L193.56 512.42 L193.68 512.46 L194.14 512.74 L193.27 513.85 L191.7 512.83 L190.76 513.28 L190.39 514.24 L190.53 514.77 L191.07 515.27 L190.22 516.39 L188.52 517.89 L187.24 518.72 L186.45 518.98 L184.16 518.81 L183.22 518.27 L182.35 517.39 L181.48 517.21 L180.52 518.81 L181.1 519.39 L181.82 519.76 L182.68 519.92 L182.11 520.08 L180.7 520.49 L179.79 521.36 L179.72 522.94 L177.53 522.75 L176.72 521.25 L176.4 519.33 L175.77 517.89 L174.38 517.39 L170.83 517.3 L169.36 516.88 L170.72 516.24 L171.74 515.49 L172.17 514.39 L171.8 512.74 L170.66 513.42 L170.21 513.85 L171.23 511.53 L171.8 510.72 L171.46 511.76 L172.65 512.39 L173.98 511.5 L174.98 510.21 L175.77 508.69 L173.68 506.99 L172.79 507.1 L171.8 508.69 L170.46 508.08 L169.54 506.97 L168.96 505.46 L168.63 503.65 L168.99 503.34 L169.1 503.33 L169.18 503.19 L169.36 502.54 L170.52 504.04 L171.86 504.76 L172.96 504.37 L173.38 502.54 L171.8 503.65 L172.34 501.69 L171.24 498.93 L171.8 497.57 L171.8 496.46 L170.69 496.45 L169.94 496.2 L168.63 495.55 L169.7 494.89 L170.22 494.65 L171 494.54 L170.54 494.22 L169.88 493.64 L169.36 493.43 L170.46 491.05 L170.78 489.85 L170.61 488.96 L169.53 488.29 L168.62 488.89 L167.72 489.87 L166.64 490.38 L166.21 490.96 L164.95 492.01 L163.62 492.68 L163.01 492.01 L162.76 490.65 L161.68 488.51 L161.42 486.89 L162.32 480.83 L162.33 477.6 L159.89 474.93 L158.09 469.34 L157.03 468.07 L152.51 468.02 L150.94 467.45 L149.53 466.04 L148.72 464.2 L145.9 452.18 L144.77 449.8 L143.2 448.58 L141.5 449.16 L139.8 450.92 L138.4 453.05 L137.57 454.68 L136.72 453.07 L136.03 453.34 L135.3 454.09 L134.39 453.85 L133.14 454.92 L132.68 454.31 L132.46 452.96 L132.03 451.82 L128.04 448.58 L128.04 447.65 L128.93 445.74 L129.45 443.01 L130.37 440.57 L132.45 439.52 L134.95 439.61 L136.28 439.48 L136.85 439.01 L136.47 438.06 L135.57 437.21 L134.62 436.6 L132.12 435.42 L131.14 433.17 L130.91 430.47 L131.31 428.21 L132.74 425.39 L133.36 426.49 L134.11 428.97 L135.98 430.25 L138.23 431.01 L140.42 429.88 L142.03 427.68 L143.2 425.16 L143.99 425.16 L144.37 426.35 L144.5 427.14 L144.39 427.71 L143.99 428.21 L144.2 428.47 L144.56 428.77 L144.63 429.3 L143.99 430.25 L146.34 430.29 L148.3 430.01 L149.69 428.81 L150.26 426.09 L151.05 426.09 L152.17 427.62 L153.34 427.69 L154.76 427.22 L156.6 427.2 L158.16 427.81 L159.27 428.52 L160.56 429.09 L162.64 429.33 L162.94 430.28 L162.57 432.38 L162.43 434.49 L163.41 435.44 L164.98 435.84 L166.52 436.85 L169.36 439.52 L169.5 438.17 L169.78 437.4 L170.28 436.92 L171 436.37 L171 435.44 L170.11 433.52 L171.34 432.58 L173.5 432.67 L175.37 433.82 L178.09 437.08 L178.14 437.48 L178.85 437.9 L179.51 438.14 L180.06 437.77 L180.52 436.37 L179.56 435.51 L179.17 434.82 L178.84 432.57 L178.43 432.43 L177.91 432.58 L177.41 432.2 L175.94 429.6 L175.74 428.03 L176.56 426.09 L175.94 424.88 L176.3 423.54 L177.18 422.74 L178.14 423.12 L178.03 419.6 L175.21 415.77 L169.36 409.86 L168.54 410.82 L168.1 411.79 L168.11 412.79 L168.63 413.84 L167.04 413.21 L166.47 413.43 L165.87 413.66 L163.8 415.99 L166.24 417.92 L159.84 417.01 L159.84 415.99 L158.41 415.64 L157.05 414.68 L155.98 413.71 L155.48 413.38 L154.1 414.16 L152.99 413.5 L152.21 412.14 L151.9 410.79 L152.13 410.79 L152.48 410.15 L153.49 409.86 L153.49 408.84 L152.63 408.84 L151.5 409.59 L150.2 409.62 L148.95 409 L148.02 407.72 L147.15 407.72 L146.49 409.22 L144.42 410.4 L143.99 411.34 L144.48 412.82 L145.77 413.11 L146.29 413.82 L141.46 413.75 L143.2 412.92 L143 411.9 L142.95 410.46 L142.63 409.48 L141.61 409.86 L141.64 409.28 L141.52 408.93 L141.46 408.67 L141.65 408.49 L141.61 407.72 L140.62 407.56 L140 407.77 L139.63 408.25 L139.23 408.84 L140.67 405.55 L140.21 403.05 L138.85 402.15 L137.57 403.63 L136.85 402.61 L136.39 403.69 L135.71 404.52 L134.78 405.16 L133.6 405.68 L133.6 406.79 L135.3 407.19 L134.85 408.44 L134.81 410.15 L134.39 411.9 L133.54 413 L132.62 413.63 L131.78 414.42 L131.31 415.99 L129.65 414.86 L129.73 416.39 L129.9 417.07 L130.37 417.18 L131.31 417.01 L136.7 421.46 L138.97 422.57 L139.68 423.63 L139.94 424.69 L139.59 425.16 L138.58 424.91 L136.49 423.65 L133.08 422.51 L132.34 422.61 L131.31 423.12 L131.25 423.78 L130.08 425.55 L128.71 426.72 L128.04 425.62 L127.69 424.23 L126.85 423.21 L126.05 422.39 L125.68 421.59 L125.55 420.7 L125.28 420.22 L125.02 419.89 L124.89 419.51 L125.14 418.53 L125.71 417.92 L126.25 417.49 L126.47 417.01 L125.3 412.01 L123.07 408.44 L119.99 405.81 L116.24 403.63 L112.55 400.75 L103.49 389.23 L100.06 386.86 L98.96 385.57 L99.38 384.21 L98.79 382.84 L98.53 381.09 L98.68 379.36 L99.38 378.07 L99.38 376.95 L97.98 377.58 L96.8 377.76 L95.94 377.28 L95.41 375.93 L93.69 376.92 L92.04 376.85 L90.48 376.03 L89.06 374.81 L85.81 376.2 L81.08 373.79 L77.36 369.33 L77.12 364.65 L75.55 363.14 L74.68 361.24 L73.43 359.75 L70.77 359.44 L70.77 358.41 L71.56 358.41 L71.56 357.47 L70.62 356.28 L69.33 353.95 L68.4 353.28 L70.39 352.63 L72.81 352.7 L74.4 352.29 L74.01 350.21 L72.88 348.99 L68.4 346 L68.4 345.07 L70.41 345.18 L71.85 345.56 L72.98 345.45 L74.01 344.04 L74.01 343.01 L72.81 342.16 L70.77 341.17 L69.14 341.1 L69.19 343.01 L68.17 342.05 L66.84 341.23 L65.5 341.04 L66.81 339.83 L64.63 339.3 L62.61 339.08 L60.73 339.24 L58.87 339.83 L59.77 338.61 L60.26 337.22 L60.45 335.6 L60.39 333.66 L61.25 334.68 L62.05 334.62 L62.83 333.84 L63.63 332.73 L63.68 332.22 L63.59 330.27 L63.63 329.55 L63.86 329.45 L64.97 328.67 L65.22 328.61 L64.47 325.56 L62.55 324.18 L60.57 323.59 L59.67 322.86 L59.28 322.23 L57.45 320.68 L56.86 320.38 L55.54 320.04 L54.57 319.3 L53.68 318.23 L48.54 317.05 L45.88 316.03 L44.53 315.14 L43.88 315.26 L43.35 315.15 L45.23 313.96 L49.12 315.27 L53.74 316.76 L59.07 319.57 L62.38 322.57 L64.74 323.67 L66.58 323.21 L66.99 322.41 L66.94 321.32 L67.07 320.15 L67.98 319.14 L68.92 318.82 L69.9 318.82 L70.91 319.14 L71.93 319.76 L72.28 316.46 L74.03 314.76 L76.19 313.5 L77.79 311.55 L78.13 309.91 L77.79 309.11 L77.16 308.44 L76.72 307.12 L76.51 306.67 L75.66 305.6 L75.37 305.1 L75.51 304.63 L76.24 302.82 L76.42 302.04 L76.03 300.86 L75.35 300.22 L75.06 299.6 L75.88 298.47 L76.85 298.07 L78 298.25 L78.15 298.3 L82.48 299.97 L84.53 301.21 L86.51 301.44 L88.53 299.35 L89.46 296.33 L88.99 293.71 L83.64 284.81 L80.88 282.07 L80.28 281.16 L78.54 271.97 L77.95 270.78 L79.36 270.34 L85.15 270.16 L87.07 269.75 L87.57 267.03 L88.54 264.34 L89.86 261.94 L91.4 260.13 L93.61 259.12 L97.46 259.58 L99.29 258.52 L101.4 257.96 L107.56 258.88 L110.45 258.6 L114.81 256.51 L117.7 255.13 L118.55 254.54 L119.04 253.48 L120.78 248.54 L120.95 247.85 L120.4 245.04 L120.36 244.27 L119.98 242.59 L120.04 241.65 L120.58 240.82 L122.29 240.29 L122.93 239.78 L124.22 236.15 L124.25 233.03 L124.01 229.99 L124.53 226.52 L125.45 225.05 L126.71 224.16 L127.98 223.5 L128.89 222.68 L129.23 221.84 L131.03 217.35 L132.3 214.97 L132.81 213.71 L133.21 211.82 L133.15 210.23 L132.65 206.08 L132.84 204.65 L133.87 203.58 L136.28 203 L137.31 202.42 L138.26 200.86 L138.72 199.4 L139.34 198.11 L140.89 197.07 L144 197.01 L146.65 198.28 L149.24 198.92 L152.13 196.94 L153.25 195.35 L153.63 194.59 L153.97 193.71 L153.88 191.82 L154.58 190.46 L155.82 189.6 L157.32 189.19 L158.11 187.63 L159.18 186.76 L160.24 186.14 L161.04 185.27 L161.65 183.73 L161.83 182.54 L161.88 181.27 L162.08 179.51 L163.32 174.19 L163.72 171.38 L163.57 168.38 L162.81 165.7 L161.62 163.55 L158.54 159.79 L155.23 156.63 L154.72 155.49 L154.5 154.25 L154.06 153.09 L152.93 152.16 L154.93 149.78 L155.64 146.53 Z M522.68 1021.5 L521.97 1022.74 L521.86 1024.21 L522.36 1025.52 L523.47 1026.24 L523.47 1027.2 L520.37 1026.98 L517.76 1025.6 L513.15 1022.38 L513.15 1021.5 L514.48 1021.48 L515.53 1021.05 L516.4 1020.35 L517.12 1019.57 L518.58 1019.49 L519.97 1019.69 L522.68 1020.45 Z M853.29 939.71 L856.35 938.91 L857.45 938.81 L857.62 939.71 L856.89 940.27 L856.03 940.69 L856.89 943.61 L856.89 944.49 L855.18 944.58 L852.34 945.12 L851.28 945.55 L849.8 946.52 L848.75 947.46 L847.68 948.18 L846.16 948.47 L845.12 948.93 L843.1 950.91 L841.75 951.39 L840.31 950.79 L839.09 949.45 L838.46 948.11 L838.87 947.5 L840 946.89 L842.06 944.22 L842.89 943.61 L843.31 943.16 L844.08 941.14 L844.48 940.69 L845.45 940.87 L846.75 941.57 L847.31 941.66 L851.5 939.96 Z M777.25 956.24 L776.23 958.85 L774.55 960.56 L772.59 962.06 L770.84 964.1 L772.92 971.46 L774.74 974.68 L777.25 972.92 L776.16 975.13 L774.26 977.41 L773.05 979.63 L774.09 981.65 L773.27 984.24 L772.18 986.82 L770.95 989.11 L769.7 990.86 L769.1 992.07 L767.94 995.47 L767.29 996.18 L765.95 996.42 L764.8 997.01 L763.78 997.68 L757.06 1000.69 L755.4 1001.1 L752.18 1001.1 L752 1000.71 L750.31 998.81 L749.45 998.21 L746.69 997.76 L744.39 998.06 L742.32 998.04 L740.22 996.66 L739.17 995.76 L738.21 995.46 L737.26 995.77 L736.25 996.66 L735.36 996.9 L731.15 996.18 L726.21 997.17 L717.69 1000.19 L693.67 999.08 L686.34 1001.43 L684.55 1002.51 L682.63 1003.2 L672.07 1001.9 L664.23 1002.21 L662 1002.82 L659.16 1003.17 L658.09 1003.71 L656.35 1004.89 L649.77 1007.5 L647.98 1007.88 L641.38 1007.28 L638.83 1007.88 L638.11 1008.35 L637.16 1009.49 L636.38 1009.81 L635.18 1009.81 L634.43 1009.46 L633.77 1009.04 L632.85 1008.84 L630.8 1009 L629.08 1009.41 L626.08 1010.7 L624.23 1009.94 L621.98 1009.69 L593.51 1010.7 L593.51 1009.81 L595.04 1008.59 L595.45 1006.97 L595.09 1001.59 L595.29 999.87 L595.99 997.14 L595.88 995.13 L595.52 993.71 L594.86 991.77 L594.01 990.06 L593.11 989.32 L592.49 989 L591.91 988.35 L591.14 987.68 L589.91 987.38 L579.63 987.2 L576.81 986.61 L575.13 985.52 L574.4 985.52 L573.32 985.96 L572.01 984.76 L569.58 981.65 L568.03 980.52 L565.9 979.39 L563.63 978.89 L561.65 979.71 L554.65 976.17 L554.45 974.78 L554.45 973.89 L541.81 975.15 L533.05 973.89 L532.54 973.5 L531.97 972.8 L531.56 972.14 L531.44 971.86 L530.67 971.9 L530.05 972.28 L529.54 972.71 L529.01 972.92 L520.69 972.92 L518.68 971.97 L517.59 971.98 L517.12 973.41 L516.64 973.27 L513.55 973.89 L511.41 972.96 L508.14 968.83 L506.33 967.9 L496.37 968.2 L491.53 967.47 L487.64 965.15 L486.68 965.91 L485.97 966.26 L485.3 966.29 L484.49 966.04 L482.46 967.7 L474.29 967.41 L471 968.96 L469.35 967.33 L462.55 967.66 L459.84 967.02 L459.27 966.21 L459.52 964.91 L459.04 964.1 L458.19 963.61 L456.61 963.45 L455.87 963.13 L454.93 962.13 L454.2 961.05 L453.32 960.05 L451.83 959.25 L452.69 958.27 L452.23 958.17 L451.96 958.16 L451.84 957.96 L451.83 957.31 L453.53 956.42 L454.23 956.25 L455.07 956.24 L455.22 955.82 L455.2 955.53 L455.31 955.36 L455.87 955.36 L455.14 954.32 L454.57 953.24 L454.45 951.99 L455.07 950.42 L454.2 947.87 L455.44 944.62 L457.28 941.46 L458.25 939.23 L458.01 938.32 L457.45 937.42 L456.92 936.81 L456.66 936.8 L456.78 935.86 L457.96 932.25 L458.73 930.94 L458.82 929.85 L457.39 928.92 L457.39 928.04 L457.96 927.34 L458.14 927.01 L457.96 926.69 L457.39 926 L459.15 922.41 L459.52 920.72 L459.04 919.09 L461.38 915.21 L461.88 913.85 L462.22 916.73 L462.27 922.55 L463 925.02 L463.63 926.49 L464.08 926.86 L465 926.97 L465.91 927.22 L466.01 927.77 L465.91 928.42 L466.18 928.92 L467.18 929.42 L468.23 929.75 L471 929.99 L473.28 929.52 L475.08 928.09 L476.17 925.67 L476.47 922.2 L475.82 919.42 L474.8 916.81 L474.41 914.66 L475.68 913.24 L474.55 910.68 L474.23 908.68 L474.77 906.87 L476.08 904.95 L477.76 903.23 L478.74 903.28 L479.88 904.31 L482.11 905.44 L482.11 906.51 L480.81 907.96 L480.84 909.79 L482.11 914.31 L481.95 917.98 L482.11 919.09 L484.49 923.56 L486.54 924.96 L496.32 926.05 L499.53 926.97 L501.28 926.36 L507.82 927.08 L510.71 926.97 L511.92 926.58 L512.95 925.98 L513.68 925.02 L513.95 923.56 L514.46 922.38 L515.7 922.01 L518.69 922.2 L517.26 917.1 L521.15 915.47 L526.39 916.07 L529.01 917.71 L531.37 923.96 L531.05 925.02 L530.5 925.42 L529.56 927.35 L529.01 928.04 L527.92 928.56 L526.78 928.82 L524.32 928.92 L519.78 927.93 L517.2 927.79 L515.53 928.92 L516.12 930.16 L518.1 931.46 L520.28 932.49 L523.7 933.51 L527.52 936.19 L529.44 936.8 L531.49 936.42 L533.6 935.46 L535.53 934.2 L537.07 932.91 L538.42 939.45 L538.59 942.15 L538.35 947.24 L538.59 948.47 L539.47 949.18 L541.84 949.34 L542.94 949.97 L547.25 951.53 L557.46 948.49 L561.65 949.52 L564.12 948.14 L573.55 946.43 L576.68 945.43 L583.92 941.66 L586.36 940.83 L588.86 940.36 L591.47 940.3 L602.99 942.32 L605.39 943.61 L606.49 942.79 L608.45 941.83 L611.73 940.69 L618.93 943.61 L619.61 942.72 L620.05 942.39 L620.33 941.93 L620.52 940.69 L626.04 942.04 L627.31 943.71 L629.37 943.39 L630.05 943.61 L630.2 944.55 L629.93 945.32 L629.52 946.08 L629.33 946.96 L630.29 950.55 L632.8 952.08 L636.26 952.37 L641.65 952.05 L644.95 951.28 L646.75 951.39 L647.15 951.74 L647.7 952.4 L648.49 953.03 L649.57 953.33 L653.1 953.33 L659.5 952.27 L662.38 953.17 L664.08 953.28 L665.85 952.27 L666.65 953.33 L667.52 952.27 L669.63 954.31 L671.24 956.61 L673.24 958.48 L676.53 959.25 L679.82 958.78 L698.03 951.88 L700.48 951.39 L701.81 951.69 L704.27 953.03 L706.04 953.33 L712.84 953.33 L712 955.27 L710.68 956.9 L708.01 959.25 L708.87 960.13 L708.16 961.43 L708.05 962.56 L708.53 963.45 L709.67 964.1 L709.52 961.62 L710.11 960.5 L711.05 960.67 L711.98 962.06 L711.37 963.04 L711.37 963.52 L711.98 964.1 L711.32 965.15 L710.73 964.66 L710.32 964.51 L709.78 964.9 L708.87 966.04 L709.21 967.3 L708.25 968.9 L707.4 971.01 L708.01 973.89 L706.61 975.06 L706.77 976.32 L707.54 977.7 L708.01 979.23 L708.45 982.09 L709.64 982.43 L711.31 982.13 L713.24 983.06 L714.76 984.27 L716.19 984.68 L718.79 984.56 L720.27 983.65 L722.28 979.65 L723.61 978.74 L724.58 978.68 L725.26 978.5 L726.39 977.68 L727.83 975.17 L727.97 974.78 L729.35 974.42 L733.13 974.17 L737.47 973.27 L738.27 972.92 L741.89 970.56 L742.97 969.51 L743.82 968.96 L744.93 968.68 L745.71 968.83 L746.35 968.77 L747 967.9 L747.79 967.9 L749.41 969.28 L753.85 970.45 L752.53 971.86 L755.03 973.22 L757.97 972.92 L760.8 971.61 L762.93 969.92 L762.33 969.65 L762.33 969.49 L762.13 968.96 L765.33 965.93 L767.57 962.85 L770.1 960.62 L774.09 960.13 L773.22 958.27 L774.47 958.33 L774.89 958.27 L774.63 957.79 L774.34 956.75 L774.09 956.24 Z M880.67 926.97 L883.13 929.34 L883.62 930.87 L883.05 933.88 L880.07 933.13 L877.07 934.35 L874.83 937.04 L874.26 940.69 L874.52 940.27 L874.74 939.85 L875.13 939.61 L875.93 939.71 L875.32 940.85 L874.41 941.96 L873.26 942.91 L871.88 943.61 L872.68 941.27 L871.77 940.44 L870.12 940.23 L868.71 939.71 L867.65 938.41 L866.87 936.79 L867.01 935.4 L868.71 934.77 L868.71 933.88 L867.91 933.88 L867.91 932.91 L869.86 932.4 L869.97 930.91 L868.71 926.97 L868.79 924.95 L869.14 923.7 L869.27 922.65 L868.71 921.13 L867.77 920.35 L864.76 918.48 L863.95 917.24 L864.12 915.34 L864.97 913.4 L866.01 911.9 L866.72 911.29 L869.46 909.62 L870.43 905.97 L870.92 902.32 L873.96 898.8 L874.85 894.66 L874.92 890.31 L874.26 887.87 L874.26 886.89 L875.93 885.82 L876.7 885.82 L876.7 886.89 L877.49 886.89 L878.14 886.05 L879.88 883.86 L880.88 883.05 L881.72 882.87 L882.41 883.18 L883.05 883.86 L882.63 885.78 L881.03 888.49 L880.67 890.31 L880.67 893.73 L880.82 894.96 L881.43 896.41 L881.46 897.63 L880.78 898.69 L879.44 900.02 L878.1 901.74 L877.49 903.97 L877 905.24 L875.88 906.58 L874.75 908.33 L874.26 910.8 L874.23 912.97 L874.47 913.94 L877.49 916.26 L880.3 921.36 L881.07 922.2 L881.71 922.65 L881.2 923.65 L880.33 924.63 L879.88 925.02 L879.79 925.98 L879.72 926.05 L879.91 926.1 Z M423.94 873.1 L426.02 874.75 L428.33 875.67 L430.06 877.76 L430.36 882.89 L429.56 882.89 L428.88 881.55 L425.99 878.53 L425.03 876.96 L424.28 875.25 L423.21 872.13 L423.72 872.07 L423.85 872.27 L423.85 872.65 Z M393.03 814.07 L400.6 819.48 L402.63 821.84 L403.72 824.3 L403.02 824.91 L401.28 824.98 L399.36 825.86 L398.45 827.29 L397.99 829.18 L397.7 837.59 L397.11 837.83 L395.41 837.64 L393.34 837.09 L391.95 837.33 L390.59 838.72 L390.22 836.63 L389.02 835.71 L385.81 834.7 L385.68 834.26 L385.81 833.64 L385.87 833.07 L385.41 832.83 L383.81 832.93 L383.45 832.83 L382.84 831.9 L381.75 829.59 L381.07 828.8 L382.07 820.71 L381.93 817.41 L381.07 814.07 L380.4 812.48 L380.02 811.2 L380.24 809.74 L383.84 803.55 L385.23 802.38 L386.6 803.23 L391.23 811.78 Z M709.27 803.23 L710.88 802.62 L711.98 801.43 L713.01 800.62 L717.09 802.35 L720.86 805.73 L723.15 806.1 L722.18 808.02 L721.16 807.8 L720.05 806.73 L718.79 806.1 L716.95 806.44 L715.56 807.11 L714.06 807.51 L711.05 806.87 L710.53 806.91 L710.17 806.78 L709.41 805.73 L708.9 804.74 L708.65 803.72 Z M1000 796.16 L998.38 798.26 L999.6 804.74 L997.22 806.1 L996.68 806.95 L995.98 812 L995.09 813.54 L992.54 816.64 L992.01 818.43 L991.72 822.49 L991.14 824.23 L990.11 824.97 L989.4 825.91 L987.94 830.35 L987.32 831.75 L986.99 831.61 L984.94 831.59 L984.16 831.75 L983.88 832.34 L983.67 833.33 L983.22 834.28 L982.12 834.7 L979.33 841.66 L980.39 842.45 L981.31 842.97 L982.23 843.3 L983.36 843.53 L983.05 844.72 L982.6 845.72 L981.89 846.63 L980.98 847.54 L981.46 848.15 L982.57 850.48 L976.53 848.57 L974.13 848.49 L971.4 849.5 L966.18 852.8 L964.3 854.76 L959.67 862.43 L956.32 866.86 L952.13 870.77 L946.67 874.17 L941.89 870.85 L941.13 870.57 L940.85 869.62 L938.76 865.18 L940.28 863.1 L943.61 853.06 L944.3 849.5 L943.96 846.28 L942.77 844.59 L941.18 843.37 L938.36 840.14 L938.18 839.43 L938.91 838.32 L938.76 837.64 L937.67 836.78 L936.93 836.91 L936.28 836.93 L935.51 835.68 L937.41 834.92 L941.92 831.75 L944.69 830.78 L945.69 829.97 L945.16 828.8 L946.16 827.99 L946.4 827.2 L946.41 826.25 L946.67 824.97 L947.45 823.16 L948.26 821.84 L949.32 819.55 L949.86 818.97 L953.29 818 L953.82 817.46 L954.69 816.2 L958.56 812.17 L959.43 810.57 L960.52 809.48 L967.43 807.08 L980.39 800.08 L982.12 798.72 L985.91 796.85 L993.52 797.32 L997 792.84 L997.99 792.77 L999 793.67 L1000 795.27 Z M668.23 789.35 L672.39 790.69 L676.39 793.6 L679.5 797.33 L680.91 801.18 L680.67 804.04 L679.59 806.93 L677.86 809.15 L675.72 810.03 L673.37 809.79 L667.97 808.21 L665.85 807.08 L667.21 806.38 L669.95 806.43 L671.4 806.1 L672.53 805.17 L673.64 802.95 L674.57 802.15 L673.79 798.37 L673.24 796.93 L672.19 796.16 L672.19 795.27 L672.85 793.47 L671.13 792.48 L666.65 791.23 L666.65 790.25 L667.18 789.98 L667.72 789.59 Z M902.14 795.27 L901.05 797.84 L902.46 799.38 L904.9 799.6 L906.97 798.23 L907.37 798.67 L907.54 799.11 L907.69 800.19 L907 801.64 L905.78 802.98 L904.35 803.69 L903 803.23 L902.42 803.92 L901.36 803.23 L899.94 803.44 L898.41 801.8 L897.56 799.37 L898.19 797.24 L896.66 796.34 L895.32 796.75 L894.25 797.88 L893.42 799.21 L892.63 799.21 L891.98 797.94 L890.53 796.87 L890.25 795.72 L890.33 792.82 L890.55 791.45 L890.97 790.25 L892.08 792.52 L893.8 791.92 L895.72 790.25 L897.37 789.35 L898.85 790.4 L900.38 794.48 Z M782.01 766.48 L785.63 766.68 L789.95 769.25 L793.31 772.44 L794.07 774.46 L793.37 775.19 L792.78 775.31 L792.21 774.77 L791.59 773.48 L789.85 775.06 L788.25 775.59 L784.86 775.45 L783.3 775.95 L782.11 777.22 L780.44 780.48 L780.33 782.37 L780.54 784.16 L779.63 785.06 L776.85 785.32 L774.91 784.5 L772.73 780.66 L770.84 779.49 L771.12 778.47 L771.29 778.07 L771.71 777.52 L770.65 775.82 L770.32 773.75 L770.9 772.55 L772.51 773.48 L774.19 772.46 L776.16 773.69 L778.1 775.54 L779.63 776.44 L780.7 775.9 L781.83 773.92 L782.45 773.48 L783.77 773.67 L784.77 773.97 L785.7 774.03 L786.85 773.48 L785.28 772.62 L784.66 771.27 L785.12 770.03 L785.18 769.62 L783.93 769.18 L782.92 768.43 L782.01 767.55 Z M957.06 773.48 L957.14 775.17 L957.37 776.41 L957.85 777.52 L956.78 778.2 L956.26 778.41 L956.84 778.73 L957.31 779.14 L957.63 779.7 L957.85 780.48 L955.27 782.01 L953.94 782.38 L952.23 782.37 L952.23 781.47 L952.91 781.14 L953.89 780.11 L954.68 779.49 L949.63 777.73 L948.07 776.74 L949.86 775.45 L944.3 775.45 L945.1 774.1 L946.37 772.6 L947.43 771.06 L947.53 769.53 L948.07 769.48 L948.39 769.25 L949.12 768.45 L949.12 769.53 L951.05 767.04 L953.82 765.49 L956.03 765.2 L956.26 766.48 L953.03 767.47 L951.53 768.52 L950.72 770.51 L951.79 770.09 L952.27 770.08 L953.09 771.6 L957.06 768.45 L957.31 768.99 L957.4 769.12 L957.51 769.2 L957.85 769.53 L957.23 770.03 L956.83 770.6 L956.55 771.16 L956.26 771.6 L957.06 771 L957.45 771.17 L957.41 772.02 Z M608.56 762.52 L617.82 768.44 L619.65 771.6 L619.65 772.49 L616.67 772.29 L614.91 771.63 L611.73 768.45 L609.86 767.22 L608.01 766.44 L606.42 765.17 L605.39 762.52 L607.8 762.42 Z M640.84 754.61 L645.44 754.72 L645.12 755.12 L645.05 755.77 L645.16 756.59 L638.91 763.23 L634.67 766.66 L631.69 766.48 L636.02 757.58 L637.39 757.12 L639.7 755.07 Z M248.19 749.67 L250.03 750.61 L250.21 752.22 L249.79 754.54 L249.77 757.58 L249.06 756.69 L248.64 756.32 L248.39 755.85 L248.19 754.61 L246.6 755.7 L247.25 751.54 L247.65 749.97 Z M562.84 750.66 L567.29 748.22 L569.69 747.64 L571.16 749.67 L570.83 751.25 L571.16 759.11 L570.18 760.19 L567.95 761.31 L564.03 762.52 L550.09 762.84 L545.73 764.59 L545.26 762.51 L546.23 759.35 L545.73 757.58 L546.23 757.18 L546.75 756.32 L547.32 755.7 L546.24 754.86 L545.73 754.61 L546.85 753.47 L547.79 750.88 L548.89 749.67 L549.45 750.47 L550.2 751.26 L551.08 752 L552.07 752.63 L553.67 752.29 L555.05 756.44 L557.28 757.58 L561.25 757.58 L562.5 756.88 L562.16 755.3 L561.07 753.62 L560.07 752.63 L558.48 753.51 L557.35 752.59 L556.38 750.96 L555.23 749.67 L555.23 748.68 L556.56 747.2 L558.07 748.07 L560.06 749.76 Z M582.33 744.63 L583.96 745.48 L585.06 746.68 L585.29 748.22 L584.32 750.17 L582.62 750.65 L580.88 749.15 L578.37 745.71 L579.96 743.73 L581.92 743.78 L582.51 744.02 Z M655.56 754.61 L655.82 754.32 L655.95 754.22 L656.09 754.08 L656.35 753.62 L655.35 753.75 L653.1 753.62 L653.71 752.29 L654.33 750.29 L654.63 748.49 L654.37 747.69 L659.5 743.73 L660.96 745.62 L662.9 749.13 L664.27 750.66 L666.35 751.76 L668.42 752.41 L670.24 753.44 L671.4 755.7 L669.95 755.97 L669.16 756.96 L669.09 758.33 L669.75 759.64 L669.75 760.55 L667.2 764.19 L663.1 762.08 Z M240.25 751.64 L240.38 746.51 L240.84 744.29 L241.84 742.75 L242.42 743.09 L242.88 743.5 L243.39 743.78 L244.14 743.73 L244.14 744.63 L243.63 744.92 L243.1 745.39 L242.63 745.71 L242.66 747.21 L241.95 748.56 L241.01 749.97 Z M578.37 737.79 L578.37 738.78 L577.48 739.8 L574.26 745.62 L572.36 745.85 L570.44 745.25 L569.58 744.18 L569.25 742.47 L568.61 741.48 L568.27 740.48 L568.85 738.78 L569.78 737.76 L571.3 736.84 L572.99 736.38 L574.4 736.8 L575.11 737.4 L575.79 737.71 L576.55 737.57 L577.51 736.8 L577.72 737.22 L577.69 737.48 L577.78 737.65 Z M672.99 738.29 L673.83 736.61 L675.76 734.67 L678.54 732.75 L679.4 732.75 L678.54 733.83 L679.18 733.91 L679.42 734.3 L679.34 737.9 L677.02 739.4 L674.3 739.72 Z M888.68 727.34 L889.91 729.68 L895.65 731.12 L897.37 733.83 L893.61 735.94 L880.93 739.54 L878.21 741.21 L871.15 748.68 L868.73 749.05 L865.72 748.62 L863.04 747.73 L861.58 746.61 L855.14 749.73 L853.25 751.58 L854.44 754.61 L852.78 755.14 L852.08 756.69 L852.18 758.69 L852.92 760.55 L850.88 760.14 L848.78 758.54 L847.17 756.59 L846.51 755.15 L846.81 750.08 L847.51 747.99 L848.83 748.68 L849.38 747.89 L850.71 746.49 L851.28 745.71 L851.89 746.19 L854.44 747.69 L856.01 746.12 L856.93 744.77 L858.48 741.76 L862.47 738.26 L863.17 737.3 L875.13 729.77 L886.9 727.91 Z M694.53 730.85 L695.22 729.4 L696.41 728.67 L697.87 728.02 L699.29 726.81 L700.43 727.41 L703.33 729.77 L702.12 731.47 L699.87 731.56 L697.19 731.01 Z M740.65 722.84 L742.18 724.85 L744.08 726.61 L746.26 727.98 L748.58 728.78 L748.64 729.47 L748.45 729.64 L748.15 729.64 L747.79 729.77 L745.79 728.93 L743.68 729.37 L741.82 730.02 L740.65 729.77 L738.92 731.53 L733.99 735.13 L732.33 735.81 L730.84 737.05 L727.61 742.5 L725.99 743.73 L716.59 746.95 L711.58 747.36 L709.67 743.73 L711.32 744.63 L712.19 743.14 L713.74 741.97 L715.46 741.66 L716.81 742.75 L717.6 742.75 L718.39 742.01 L719.42 741.73 L722.02 741.76 L722.48 741.23 L724.07 737.79 L722.73 738.49 L722.02 737.69 L721.83 736.46 L722.02 735.81 L723.32 735.6 L736.7 728.78 L736.7 727.88 L736.03 727.53 L735.63 727.22 L735.17 726.96 L734.24 726.81 L734.24 725.81 L737.45 724.87 L738.83 724.03 L739.78 722.84 Z M633.28 720.85 L631.6 720.48 L629.33 718.44 L627.41 715.57 L626.87 712.82 L627.99 710.78 L630.05 708.97 L632.31 707.83 L634.07 707.86 L631.94 715.48 L630.82 717.88 L631.56 718.51 L632.22 719.22 Z M589.54 708.85 L590.91 711.04 L595.03 716.03 L596.54 720.27 L596.67 721.35 L596.32 721.9 L594.67 722.78 L594.29 723.33 L590.27 727.88 L588.55 725.12 L586.58 721.02 L585.46 717.1 L586.31 714.9 L586.31 713.9 L585.07 712.88 L583.7 710.43 L582.33 709.93 L582.4 709.22 L582.54 708.78 L583.19 707.86 L582.73 707.73 L582.46 707.73 L582.37 707.54 L582.33 706.87 L583.92 706.87 L586.68 709.19 L587.79 709.72 L588.75 708.85 Z M845.8 721.84 L846.81 719.95 L847.35 719.33 L848.1 718.78 L847.39 716.63 L847.92 714.84 L848.94 713.3 L849.69 711.91 L849.94 711.61 L850.4 710.88 L850.71 709.91 L850.48 708.85 L849.52 708.04 L848.53 708.2 L847.75 708.68 L847.31 708.85 L846.45 707.91 L845.9 707.14 L844.86 704.88 L843.99 703.94 L843.17 703.64 L842.78 702.97 L843.27 700.9 L844.64 702.72 L854.44 706.87 L854.44 707.86 L852.92 707.86 L854 709.78 L855.52 710.64 L856.75 711.61 L856.89 713.9 L857.85 712.7 L858.84 712.12 L859.84 712.17 L860.86 712.82 L861.21 714.51 L860.35 717.1 L860.86 718.78 L860.28 719.76 L860.12 720.19 L860 720.85 L860.86 720.85 L860.86 719.86 L861.58 719.86 L860.75 721.95 L858.81 721.96 L855.3 720.85 L854.71 721.71 L854.46 723.02 L854.14 724.21 L853.29 724.73 L852.15 724.46 L851.28 723.99 L850.48 723.9 L849.69 724.73 L848.84 723.4 L847.92 722.28 L846.91 721.65 Z M717.6 698.92 L717.38 699.54 L717.33 699.67 L717.23 699.7 L716.81 700.01 L714.48 695.93 L716.44 696.04 L717.89 695.5 L720.77 693.94 L720.46 695.02 L720.04 695.93 L721.06 697.43 L721.63 697.92 L721.01 699.07 L720.12 699.81 L718.96 699.87 Z M656.35 706.87 L655.07 707.26 L654.4 708.16 L653.89 709.41 L653.1 710.84 L652.29 711.84 L650.82 713.22 L647.6 715.57 L645.75 716.1 L641.61 715.89 L640.5 715.41 L638.02 713.3 L636.81 712.82 L635.87 712.09 L635.83 710.43 L636.98 704.84 L638.42 703.12 L642.01 700.9 L641.19 700.37 L640.4 700.16 L639.63 700.32 L641.29 697.88 L644.6 695.13 L648.22 693.01 L651.59 691.87 L649.87 694.42 L650.79 695.41 L653.97 695.93 L655.56 693.94 L655.24 693.37 L654.76 691.87 L656.35 691.74 L657.92 691.87 L657.69 692.98 L657.31 694.1 L656.86 695.13 L656.35 695.93 L654.39 700.9 L654.38 702.97 L656.35 703.89 L656.35 704.88 L654.76 704.88 L654.76 705.97 L656.35 705.97 Z M684.95 685.4 L685.83 684.75 L687.74 685.76 L690.57 687.98 L691.93 690.59 L692.65 693.23 L692.95 699.47 L692.69 702.2 L691.55 708.18 L691.3 711.38 L688.01 718.48 L687.41 719.01 L686.6 719.18 L684.95 719.86 L680.91 723.83 L679.59 724.37 L677.4 724.93 L676.1 725.81 L675.83 724.9 L675.38 724.7 L674.57 723.83 L674.06 722.79 L673.37 719.87 L672.99 718.78 L672.24 717.87 L669.02 715.89 L669.53 715.1 L669.61 714.24 L669.29 713.33 L668.62 712.37 L668.07 711.24 L667.95 710.06 L668.1 709.14 L668.23 708.85 L666.47 705.3 L665.14 703.59 L663.55 702.81 L663.55 701.9 L664.21 701.25 L664.78 701 L665.28 701.21 L665.85 701.9 L667.04 701.01 L671.4 695.93 L678.97 690.42 L679.62 689.53 L681.35 686.44 L682.18 686.06 L684.49 685.85 Z M559.28 687.98 L558.41 686.98 L562.13 684.55 L564.14 683.96 L565.62 684.9 L566.41 684.9 L566.95 684.14 L567.55 683.98 L568.2 684.28 L568.85 684.9 L569.54 686.95 L569.84 689.56 L569.82 692.38 L569.58 695.03 L568.85 692.95 L568 692.95 L568.01 694.75 L567.59 696.09 L566.76 697.1 L565.62 697.92 L565.34 697.51 L565.28 697.32 L565.16 697.17 L564.82 696.83 L564.77 696.18 L564.98 696.04 L565.29 696.09 L565.62 695.93 L564.63 695.32 L563.61 695.09 L562.62 695.29 L561.65 695.93 L561.41 694.54 L561.11 694 L560.69 694.19 L560.07 695.03 L559.09 694.4 L558.2 694.44 L557.46 695 L556.82 695.93 L556.42 694.23 L556.75 693.86 L557.75 692.95 L556.93 692.16 L556.88 691.45 L557.43 690.74 L558.41 689.97 L558.01 688.89 L558.24 688.42 Z M406.58 671.96 L407.26 672.52 L409.2 673.65 L410.06 674.44 L410.53 675.47 L410.79 677.01 L410.52 678.41 L409.32 679.02 L406.88 678.48 L405.48 677.15 L404.34 675.5 L402.63 673.95 L403.44 673.05 L404.38 672.41 L405.42 672.05 Z M459.84 659.91 L457.97 661.75 L455.25 662.99 L452.42 663.46 L450.31 662.99 L450.74 665.9 L449.35 667.35 L446.94 667.83 L444.33 667.88 L437.7 669.8 L435.12 669.88 L435.12 668.88 L445.49 661.9 L448.28 660.99 L453.5 660.93 L455.87 659.91 Z M550.48 653.92 L551.28 650.04 L553.7 647.35 L556.48 645.2 L558.41 642.94 L559.28 642.94 L559.28 645.03 L558.99 646.17 L558.19 648.24 L557.75 648.93 L562.26 651.65 L563.8 653.85 L563.24 657 L561.56 656.47 L560.34 658.08 L559.56 660.66 L559.28 662.99 L557.65 664.6 L555.57 666.77 L552.93 668.24 L550.48 668.88 L551.5 663.7 L552.53 661.34 L554.45 659.91 L554.45 659 L553.93 658.69 L553.43 658.18 L552.86 657.91 L552.86 657 L553.84 655.44 L553.6 653.94 L552.41 653.2 Z M669.75 653.01 L668.28 652.78 L659.5 653.92 L659.77 652.78 L659.72 652.35 L659.6 652.09 L659.5 651.47 L659.77 650.37 L660.32 650.05 L660.88 650.05 L661.17 649.93 L661.76 646.47 L661.3 645.28 L659.5 645.03 L660.17 642.76 L661.53 641.75 L663.08 641.1 L664.27 639.85 L667.67 645.8 L668.23 645.47 L668.63 642.51 L669.77 641.92 L673.41 642.94 L673.89 643.26 L674.52 643.98 L675.37 644.69 L677.61 645.42 L677.92 646.4 L677.64 647.66 L676.96 648.93 L675.25 649.68 L673.04 649.65 L671.2 650.28 L670.61 653.01 Z M617.29 650.47 L617.6 650.84 L618.33 651.32 L619.12 652.03 L619.65 653.01 L619.94 654.52 L619.69 655.4 L618.82 656.09 L611.82 659.8 L610.15 660.99 L610.09 659.57 L610.19 658.53 L610.47 657.72 L610.94 657 L610.94 655.92 L610.17 656 L607.77 655.92 L608.08 654.6 L608.56 653.51 L609.24 652.63 L610.15 651.92 L609.67 651.73 L608.56 651.01 L610.71 650.5 L612.04 648.55 L612.57 646.05 L612.53 643.94 L611.82 640.75 L611.72 639.51 L612.83 639.46 L615.7 639.85 L616.76 641.08 L617.84 643.15 L618.65 645.33 L618.93 646.93 L618.63 647.97 L617.52 649.33 Z M447.08 632.85 L447.6 632.77 L447.76 632.99 L447.76 633.38 L447.87 633.86 L448.79 635.31 L449.81 636.26 L451.06 636.79 L452.69 636.94 L452.69 637.85 L450.45 639.16 L447.53 639.63 L444.6 639.21 L442.32 637.85 L442.32 636.94 L445.61 636.1 L446.86 635.06 Z M634.47 628.95 L633.22 628.32 L629.33 623.85 L624.87 621.74 L623.62 620.84 L622.82 619.65 L622.05 617.89 L621.71 616.1 L622.11 614.83 L623.62 614.39 L630.05 614.83 L630.57 615.06 L631.69 615.75 L631.69 616.84 L630.82 616.84 L630.82 617.84 L632 617.92 L632.86 618.34 L633.53 619.01 L634.07 619.84 L635.91 618.51 L638.11 618.82 L640.1 620.13 L641.21 621.84 L643 619.68 L646.23 620.34 L649.75 622.02 L652.38 622.85 L651.59 623.85 L652.58 624.21 L653.21 625.12 L653.66 626.38 L653.97 627.85 L651.11 631.83 L650.26 635.56 L648.94 636.22 L643.59 635.38 L640.36 633.32 L638.44 632.85 L637.28 632.24 L635.86 629.55 Z M551.28 613.75 L554.5 618.22 L553.71 622.78 L550.74 627.11 L547.32 630.85 L544.1 635.44 L541.84 637.28 L539.74 636.4 L539.71 634.36 L540.27 627.01 L540.11 625.76 L540.05 623.04 L541.35 619.75 L543.25 617.48 L544.99 617.84 L545.83 616.87 L546.52 615.75 L545.33 615.83 L544.99 615.75 L544.99 614.83 L546.13 614.08 L547.2 613.75 L548.17 613.95 L548.89 614.83 L549.69 614.83 L549.75 613.92 L550.09 613.77 L550.62 613.88 Z M782.01 613.75 L779.97 617.67 L777.01 621.37 L766.74 630.59 L764.8 631.5 L754.82 632.87 L752.53 633.86 L751.33 634.77 L749.06 637 L747.79 637.85 L746.68 638.22 L745.86 638.19 L744.93 637.97 L743.42 637.85 L738.89 639.11 L737.22 638.69 L736.7 635.85 L737.61 633.92 L741.4 630.05 L742.25 628.4 L743.03 626.27 L744.84 623.9 L746.97 621.9 L748.58 620.84 L751.46 620.67 L758.13 621.59 L760.54 620.84 L762.89 621.66 L766.35 620.59 L769.48 618.77 L772.56 615.33 L776.38 614.2 Z M455.07 600.81 L457.05 601.71 L456.31 603.27 L454.93 605.12 L455.07 606.82 L453.44 608.01 L453.15 609.6 L453.21 611.3 L452.69 612.84 L451.73 613.45 L449.09 614.15 L447.87 614.83 L447 613.94 L446.39 613.46 L444.77 612.84 L444.77 611.83 L446.12 610.99 L446.03 609.6 L444.99 608.31 L443.51 607.73 L442.1 606.8 L441.25 604.72 L440.95 602.66 L441.08 601.72 Z M861.58 607.73 L862.89 606.77 L863.64 607.46 L863.79 609.04 L863.17 610.74 L860.36 609.84 L856.16 610.76 L845.62 614.95 L844.54 615.63 L843.27 616.84 L842.57 617.87 L842.35 618.62 L841.99 619.23 L840.89 619.84 L839.91 620.04 L832.54 619.84 L831.39 619.47 L830.91 618.57 L830.65 617.4 L830.19 616.29 L828.31 613.24 L827.15 612.22 L824.4 611.5 L823.15 610.06 L822.19 609.74 L821.16 609.9 L819.33 610.58 L816.27 611.01 L814.37 611.81 L812.93 613.1 L812.28 614.83 L811.42 614.83 L811.42 613.75 L810.7 613.75 L809.44 615.08 L808.41 613.63 L807.71 611.12 L807.45 609.28 L807.33 605.74 L807.77 604.06 L809.04 602.72 L811.03 602.1 L813.1 601.8 L814.72 601.1 L815.38 599.22 L816.36 598.11 L829.57 594.97 L833.59 594.91 L837.73 595.7 L839.31 596.65 L842.35 599.19 L846.39 600.31 L850.88 603.38 L852.13 604.72 L852.57 603.1 L851.91 601.82 L850.77 600.49 L849.69 598.7 L851.61 599.34 L853 599.33 L854.16 598.73 L855.3 597.62 L855.37 599.4 L858.5 600.4 L863.95 600.81 L860.63 602.33 L860 602.72 L859.81 603.93 L860.26 604.97 L860.97 606.16 Z M148.02 598.16 L149.94 602.15 L157.94 607.34 L159.04 611.83 L157.5 609.92 L154.17 608.23 L150.28 607.08 L147.15 606.82 L145.44 607.59 L144.36 608.92 L143.59 610.17 L142.8 610.74 L141.3 611.5 L141.33 613.21 L141.98 614.92 L142.4 615.75 L142.21 617.68 L141.69 618.58 L140.42 618.84 L138 618.84 L137.16 618.17 L133.6 613.75 L127.86 609.02 L125.14 606.1 L124.89 603.72 L122.36 601.46 L117.95 595.42 L115.29 593.69 L116.1 591.99 L115.59 589.51 L116.24 588.58 L115.29 587.58 L119.99 580.79 L122.98 577.99 L125.68 578.63 L125.77 579.1 L125.77 579.46 L126.3 580.1 L126.22 580.41 L128.6 585.01 L129.51 587.89 L130.73 588.98 L133.6 590.68 L137.27 589.76 L142.06 591.7 L146.23 595 Z M622.9 601.72 L623.21 603.79 L622.18 606.45 L620.52 608.99 L618.93 610.74 L619.18 611.35 L619.65 613.75 L618.93 613.75 L618.03 612.3 L615.38 610.25 L614.12 608.83 L611.96 602.66 L611.34 601.72 L609.55 601.52 L608.22 600.89 L607.03 599.78 L605.78 598.16 L603.91 594.51 L602.57 593.54 L600.64 594.7 L599.97 590.61 L597.83 587.9 L595.29 585.81 L593.51 583.56 L592.72 583.56 L591.89 585.01 L590.91 585.42 L590.45 584.65 L591.13 582.55 L590.12 581.38 L588.51 578.72 L587.16 577.53 L588.53 577.11 L588.63 576.42 L588.18 575.41 L587.89 574.06 L588.29 572.66 L589.26 571.65 L595.65 568.13 L598.21 567.59 L599.91 568.49 L599.75 570.07 L600.03 570.99 L600.71 571.4 L601.87 571.51 L603.06 571.99 L604.14 573.06 L604.67 574.13 L604.21 574.61 L604.18 575.32 L605.01 578.59 L605.39 579.55 L606.26 580.16 L609.35 581.46 L618.51 581.46 L619.65 582.81 L619.12 585.82 L617.29 590.68 L622.11 594.7 L621.35 595.36 L621.03 595.56 L620.52 595.7 L620.62 597.58 L619.87 598.84 L619.03 599.8 L618.93 600.81 L619.73 601.64 L621.6 600.87 Z M439.08 582.55 L438.35 581.46 L438.35 580.55 L439.14 579.11 L440.76 577.49 L442.69 576.52 L446.06 577.63 L447.59 576.2 L448.79 574.06 L449.45 572.5 L448.04 572.59 L447.02 573.35 L446.15 574.2 L445.12 574.61 L444.12 574.37 L441.95 573.49 L440.67 573.51 L444.77 571.51 L443.24 570.69 L441.52 569.4 L442.84 569.26 L444.09 569.35 L445.26 569.73 L446.29 570.5 L446.54 569.41 L446.8 569.18 L446.8 569.1 L446.29 568.49 L447.18 567.79 L448.13 567.44 L449.17 567.35 L451.83 567.75 L453.26 568.42 L454 569.38 L453.42 570.5 L453.51 571.29 L453.77 572.3 L454.46 573.17 L455.19 573.68 L455.01 573.87 L455.07 574.61 L458.25 574.61 L454.28 576.53 L454.76 578.1 L452.24 580.29 L451.83 582.55 L451.11 582.55 L449.87 581.45 L448.79 582.33 L447.56 583.86 L445.89 584.66 L444.19 584.49 L440.59 583.38 Z M128.53 558.42 L126.78 557.85 L125.28 556.47 L122.51 553.2 L119.18 551.23 L114.72 549.95 L110.79 550.6 L108.96 554.31 L106.8 552.58 L102.55 551.29 L100.96 549.27 L100.6 547.95 L100.38 545.21 L100.17 544.13 L98.27 540.76 L97.79 539.18 L99.23 539.57 L101.17 541.52 L102.55 542.21 L102.55 541.12 L100.7 539.34 L99.55 537.1 L96.43 529.07 L95.07 526.85 L93.88 526.47 L93.05 529 L93.08 531.38 L93.99 536.27 L93.84 539.18 L92.74 541.76 L91.24 542.82 L89.63 543.57 L88.21 545.23 L87.49 545.23 L86.79 542.69 L83.47 540.76 L82.73 538.09 L83.19 536.87 L84.1 535.39 L84.81 533.89 L84.64 532.57 L84.18 531.33 L84.44 530.24 L85.09 529.43 L85.83 529 L87.44 527.18 L88.89 523.31 L89.6 518.49 L89.8 513.85 L90.44 515.95 L90.59 516.88 L91.38 516.88 L92.97 513.95 L93.88 515.01 L94.75 517.75 L96.2 519.92 L97.15 518.67 L97.58 519.53 L97.99 521.09 L98.98 521.93 L100.14 521.45 L102.17 519.3 L104.88 517.78 L105.91 515.33 L106.01 512.34 L105.01 509.71 L107.37 510.72 L105.97 505.76 L105.8 504.66 L106.03 502.71 L106.41 501.11 L106.48 499.76 L105.8 498.49 L105.8 497.57 L109.75 497.57 L116.02 515.67 L116.24 516.88 L116.06 519.12 L115.36 520.34 L114.27 521.35 L112.93 522.94 L113.86 524.29 L116.57 529.55 L118.01 530.22 L119.64 528.87 L121.23 526.98 L122.51 525.97 L122.25 526.48 L121.94 527.51 L121.71 528.09 L123.89 528.56 L124.58 530.08 L124.87 532.11 L125.68 534.13 L130.59 538.59 L131.86 542.49 L135.98 548.26 L136.83 550.55 L137.15 552.94 L136.79 555.39 L135.63 557.88 L135.01 558.04 L132.03 557.32 L130.95 557.48 L129.68 558.24 Z M126.47 509.71 L127.89 510.12 L129.14 510.86 L131.31 512.74 L130.75 512.66 L129 512.74 L129.71 516.76 L130.44 518.19 L132.03 518.81 L132.03 519.92 L128.83 520.36 L126.89 521.02 L125.31 520.63 L123.22 517.89 L124.09 516.88 L122.36 514.98 L120.84 512.74 L118.56 507.69 L118.34 506.56 L118.03 503.19 L117.69 501.62 L116.81 500.76 L115.5 499.87 L114.71 498.58 L115.29 496.46 L117.15 497.71 L118.16 496.87 L119.35 493.43 L121.37 494.06 L121.63 495.92 L120.94 498.05 L120.12 499.5 L122.11 499.36 L123.38 499.93 L124.41 500.81 L125.68 501.62 L124.97 504.67 L124.07 507.24 L121.71 511.83 L122.59 512.39 L123.75 512.77 L125.09 512.89 L126.47 512.74 L126.47 511.83 L124.89 510.72 L127.25 510.72 Z M152.63 478.23 L150.09 481.96 L148.94 484.36 L148.73 486.43 L147.15 486.43 L147.15 485.32 L151.59 478.41 Z M758.96 487.35 L757.48 489.19 L757.28 492.15 L756.73 494.75 L754.12 495.55 L755.03 496.9 L755.52 497.28 L756.5 497.57 L755.8 498.49 L757.85 498.55 L757.91 499.5 L756.5 501.62 L756.15 503.86 L756.14 505.73 L757.37 516.88 L758.96 522.94 L755.88 523.38 L753.15 525.66 L751.83 528.99 L752.98 532.57 L752.98 534.77 L750.2 536.25 L744.61 538.09 L743.69 539.64 L742.97 542.97 L742.25 544.13 L741.1 544.5 L738.7 543.46 L737.05 543.14 L735.86 542.27 L733.28 538.86 L732.79 538.63 L732.31 538.78 L731.2 537.65 L730.08 535.89 L729.56 534.13 L729.02 534.41 L727.7 534.79 L727.17 535.06 L727.23 534.06 L727.12 532.01 L727.17 531.02 L725.26 532.24 L724.41 531.36 L724.58 529.29 L725.6 526.98 L726.72 526.01 L728.23 525.44 L730.36 524.96 L730.98 524.49 L732.33 522.94 L735.18 523.15 L735.83 522.94 L736.58 521.21 L736.65 519.39 L737.13 517.82 L739.06 516.88 L738.45 515.22 L738.69 511.59 L738.27 509.71 L738.06 510.3 L738.04 510.45 L737.91 510.47 L737.41 510.72 L736.89 509.6 L736.19 508.75 L735.3 508.12 L734.24 507.69 L734.89 506.37 L734.81 504.35 L734.22 502.22 L733.45 500.61 L732.06 499.16 L730.75 498.68 L729.22 498.4 L727.17 497.57 L725.48 496.14 L721.77 491.43 L720.77 489.46 L720.55 487.16 L721.17 485.51 L722 483.92 L722.42 481.77 L739.43 478.23 L741.81 478.55 L747.39 480.34 L747.66 481.35 L752.53 487.35 L752.83 486.7 L753 486.03 L753.36 485.51 L754.12 485.32 L754.2 484.67 L754.05 484.45 L753.77 484.41 L753.4 484.31 L755.14 483.73 L756.63 484.14 L757.91 485.39 Z M692.23 477.11 L692.97 478.27 L696.12 481.26 L696.17 481.96 L696 482.15 L695.67 482.15 L695.26 482.28 L694.35 487.55 L694.1 488.46 L692.5 488.16 L691.3 487.68 L690.22 487.58 L688.97 488.46 L688.58 487.08 L688.79 486.09 L689.1 485.26 L688.97 484.31 L688.51 483.64 L687.17 482.28 L686.6 481.26 L685.19 480.08 L684.61 479.24 L684.95 478.23 L685.74 477.83 L686.47 478.17 L687.02 478.78 L687.33 479.24 L688.02 478.2 L688.89 477.47 L689.8 477.37 L690.57 478.23 L691.3 478.23 L691.3 477.11 Z M111.34 476.2 L110.26 477.67 L109.01 479.79 L107.37 483.38 L106.59 483.38 L106.63 479.64 L108.65 465.29 L110.85 460.37 L111.34 457.36 L113.32 451.82 L114.44 451.21 L115.38 449.76 L116.89 446.64 L118.28 444.9 L120.45 442.99 L123.04 441.64 L123.32 442.17 L123.5 442.94 L124.89 443.59 L126.7 445.72 L127.18 448.01 L127.3 450.12 L128.04 451.82 L127.41 453.58 L127.48 455 L127.83 456.23 L128.04 457.36 L128.09 458.66 L127.99 459.43 L127.55 460.32 L124.81 464.29 L124.28 465.5 L124.49 466.55 L125.34 466.9 L125.89 465.77 L126.44 464.12 L127.25 462.91 L127.41 465.11 L127.04 473.15 L126.49 474.84 L125.74 475.04 L124.89 473.15 L124.09 473.15 L124.34 473.84 L124.89 476.2 L124.43 475.83 L123.22 475.18 L123.15 476.29 L122.93 476.88 L122.68 477.37 L122.51 478.23 L120.55 477.23 L118.71 477.58 L117.77 478.77 L118.56 480.34 L118.56 481.26 L117.32 481.13 L116.61 480.59 L116.42 479.62 L116.89 478.23 L114.61 477.82 L113.29 474.88 Z M586.31 447.65 L586.55 448.09 L586.83 448.44 L587.06 449.03 L587.16 450.19 L587.05 451.45 L586.71 451.59 L586.21 451.46 L585.58 451.82 L584.86 452.82 L584.1 453.69 L583.26 453.84 L582.33 452.74 L581.54 452.74 L580.36 453.69 L579.02 453.11 L577.95 451.7 L577.51 450.19 L576.81 450.36 L575.32 450.99 L573.94 452.36 L573.55 454.68 L569.58 449.69 L574.4 447.65 L573.22 443.36 L572.43 442.29 L571.16 443.59 L570.5 443.59 L570.11 441.92 L569.1 441.42 L567.77 441.72 L566.41 442.48 L566.42 440.9 L563.79 439.75 L563.24 437.48 L562.81 437.75 L562.44 438.5 L561.56 437.14 L560.54 436.46 L559.49 436.54 L558.41 437.48 L558.25 435.97 L558.71 434.62 L559.52 433.68 L560.47 433.31 L561.42 432.56 L561.45 430.88 L560.86 428.21 L560.9 426.01 L561.3 424.09 L562.47 422.72 L564.82 422.1 L572.86 427.61 L574.4 429.33 L574.63 430.78 L574.23 434.42 L574.4 436.37 L574.94 437.84 L575.59 438.53 L577.51 439.52 L582.37 442.89 L584.77 445.13 Z M575.99 544.13 L574.98 551.5 L575.09 555.21 L576.79 558.42 L575.82 560.5 L574.58 566.96 L573.55 569.4 L571.86 570.84 L569.5 572.16 L566.89 573.14 L564.43 573.51 L563.13 573.15 L562.67 572.27 L562.44 570.5 L559.75 566.06 L559.28 565.92 L557.65 564.5 L554.56 565.87 L552.63 568.13 L554.45 569.4 L554.45 570.5 L552.68 571.99 L550.93 571.76 L549.23 570.5 L547.08 568.1 L546.52 567.18 L545.73 565.37 L544.97 564.2 L544.2 563.31 L544.22 562.45 L545.73 561.35 L544.31 558.06 L543.25 557.04 L541.7 557.32 L541.01 554.91 L539.03 553.55 L536.64 553.34 L534.64 554.31 L533.05 553.34 L532.45 553.48 L531.44 554.31 L531.46 553.63 L531.54 553.34 L531.76 553.27 L532.24 553.2 L532.24 549.27 L531.31 548.44 L529.37 548.84 L529.01 547.71 L529.5 546.66 L531.67 544.48 L532.24 543.14 L532 541.27 L530.29 539.28 L529.28 535.46 L527.82 534.19 L525.99 533.75 L524.32 534.13 L525.04 536.16 L522.42 535.53 L522.99 532.82 L525.02 529.75 L526.7 528.09 L525.59 526.09 L524.66 526.15 L523.77 527.19 L522.68 528.09 L522.48 528.49 L522.52 529.18 L522.36 529.82 L521.49 530.1 L520.46 529.79 L520.41 529.14 L520.8 528.44 L521.09 528.09 L521.09 526.98 L519.48 526.98 L521.88 521.93 L519.5 520.56 L516.99 519.57 L514.13 519 L510.71 518.81 L513.53 517.93 L514.7 517.22 L515.53 515.78 L514.63 514.44 L514.4 513.12 L514.51 512.15 L514.66 511.83 L513.46 509.34 L512.67 508.3 L512.28 509.2 L505.54 508.69 L497.59 509.71 L495.27 509.4 L491.29 508.01 L489.63 507.69 L487.39 507.91 L483.84 508.75 L482.11 508.69 L474.09 506.67 L472.37 506.87 L468.68 507.9 L467.04 507.69 L465.8 506.23 L463 499.5 L462.6 500.09 L462.19 500.55 L461.59 500.76 L460.63 500.61 L461.79 498.39 L463.97 495.95 L465.48 493.56 L464.59 491.49 L464.59 490.38 L465.45 490.38 L465.45 489.46 L462.96 485.1 L461.32 483.11 L459.44 482.28 L454.37 481.49 L451.9 480.54 L450.31 479.24 L449.91 478.11 L449.8 475.49 L449.45 474.25 L446.74 472.06 L446.29 471.57 L445.92 471.08 L445.1 470.87 L444.27 470.23 L443.91 468.54 L443.44 467.45 L442.37 466.48 L438.86 464.28 L435.97 462.91 L432.69 459.32 L431.58 458.85 L430.87 458.19 L429.74 455.33 L429.17 454.68 L426.5 453.25 L415.15 444.65 L411.19 442.48 L408.33 441.55 L406.84 441.43 L404.91 441.55 L401.36 442.3 L399.69 442.16 L398.15 440.99 L395.89 438 L394.99 437.57 L393.42 437.48 L391.52 437.06 L389.76 436.29 L388.11 435.82 L386.6 436.37 L386.6 437.48 L388.24 437.53 L389.8 438.14 L390.73 439.46 L390.59 441.55 L389.55 442.39 L387.66 443 L374.92 444.19 L372.28 445.71 L372.19 444.05 L372.36 442.34 L372.79 440.98 L373.5 440.44 L374.41 439.97 L377.14 437.94 L378.26 437.48 L380.92 436.83 L386.19 433.96 L389.68 433.05 L393.03 431.27 L395.8 430.25 L396.23 429.81 L396.74 427.77 L397 427.2 L398.34 426.74 L400.72 426.66 L401.74 426.09 L402.55 424.85 L402.97 423.44 L402.98 422.11 L402.63 421.08 L404.33 420.5 L406.46 418.4 L407.69 417.92 L414.85 417.92 L417.29 417.07 L423.36 413.47 L426.39 412.92 L427.57 413.55 L429.28 415.56 L429.96 415.99 L431.48 416.17 L433.2 416.76 L434.81 417.72 L435.97 419.04 L435.13 421.88 L436.32 424.12 L438.63 425.56 L441.08 426.09 L441.08 427.59 L443.01 434.44 L443.91 436.37 L443.99 437.99 L445.33 440.78 L447.45 443.43 L452.58 445.65 L457.6 450.02 L460.63 450.7 L460.63 451.82 L460.32 452.95 L460.63 453.54 L461.34 453.5 L462.21 452.74 L463.64 454.24 L466.95 454.88 L468.56 455.79 L469.77 454.99 L471 455.79 L473.24 454.3 L475.57 454.77 L477.4 456.64 L478.14 459.35 L479.16 461.14 L481.49 462.78 L486.05 464.93 L491.23 466.59 L496.84 467.06 L499.36 467.64 L501.7 468.54 L503.88 468.43 L505.93 466.04 L508.43 467.25 L511.11 467.27 L513.78 466.94 L516.25 467.06 L523.61 469.67 L525.83 471.03 L524.64 471.43 L523.43 472.34 L522.42 473.63 L521.88 475.18 L521.83 477.65 L522.45 479.07 L532.85 487.83 L534.64 490.38 L531.75 492.69 L529.61 497.54 L529.17 502.65 L531.44 505.76 L531.44 506.67 L529.25 507.4 L529.61 508.7 L532.24 511.83 L532.48 513.59 L532.51 515.92 L532.71 517.94 L535.43 521.38 L535.68 522.84 L536.25 523.63 L536.82 524.06 L537.07 524.46 L537 527.08 L537.09 528.42 L537.7 529.4 L536.53 531.33 L536.22 532.03 L537.07 533.98 L538.57 535.71 L541.7 538.09 L545.73 540.19 L546.11 541.07 L546.46 542.4 L546.96 543.6 L547.75 544.13 L551.72 543.36 L553.34 543.43 L556.6 545.89 L561.24 546.38 L563.24 547.16 L565.46 546.04 Z M442.32 397.41 L441.04 397.03 L439.8 396.86 L438.61 396.97 L437.56 397.41 L437.95 394.79 L439.34 393.79 L440.84 393.47 L441.52 392.91 L442.04 391.3 L443.29 389.57 L444.86 388.1 L446.29 387.28 L448.19 388.43 L450.15 390.2 L451.21 392.56 L450.31 395.47 L448.44 394.02 L446.83 395.67 L445.12 399.55 L444.25 399.31 L443.28 398.03 Z M469.42 401.6 L468.2 400.88 L464.55 397.24 L463.79 395.97 L463.35 393.97 L459.84 388.21 L461.48 387.28 L461.58 388.05 L461.9 388.22 L462.39 388.14 L463 388.21 L465.73 391.21 L468.93 393.89 L472.54 396.03 L476.47 397.41 L476.04 399.6 L478.26 400.01 L481.38 399.93 L483.69 400.66 L483.69 401.6 L479.93 405.72 L477.72 407.27 L474.89 407.72 L473.75 407.33 L472.07 405.97 L468.99 405.4 L468.07 404.66 L468.11 403.67 L469.42 402.61 Z M59.67 383.1 L61.43 385.07 L63.49 386.76 L65.44 388.95 L66.81 392.4 L64.44 392.32 L62.95 391.92 L61.79 390.97 L59.44 387.95 L58.24 385.88 L57.92 383.95 Z M500.4 386.16 L498.67 390.78 L495.67 395.07 L492.04 397.73 L488.44 397.41 L490.02 395.29 L491.63 393.96 L493.03 392.32 L494.92 386.73 L500.77 377.39 L502.78 375.93 L502.63 376.48 L502.55 377.03 L502.41 377.54 L501.98 378.07 L504.54 378.57 L503.93 381.68 L501.96 385 Z M811.05 411.9 L811.05 413.25 L810.79 415.84 L809.33 417.48 L805.87 415.99 L803.99 417.02 L802.59 416.37 L801.45 415 L800.26 413.84 L801.11 412.92 L800.06 412.17 L799.89 411.4 L800.11 410.63 L800.26 409.86 L800.38 409.36 L801.04 407.72 L801.11 406.79 L799.77 405.66 L799.53 405.17 L798.7 402.94 L796.77 402.27 L792.78 402.61 L790.7 403.79 L792.55 406.35 L797.08 409.86 L801.36 416.12 L803.49 417.92 L803.49 419.04 L803.19 419.68 L803.09 419.66 L803.2 419.83 L803.49 421.08 L800.47 422.41 L796.77 423.36 L789.21 424.14 L787.23 423.83 L783.52 422.42 L779.37 421.83 L777.76 421.1 L774.89 419.04 L772.05 417.68 L765.17 416.17 L759.2 415.92 L757.99 415.54 L756.95 414.46 L753.38 409.29 L752.07 408.11 L750.17 407.72 L750.17 406.79 L750.85 406.52 L751.81 405.68 L752.65 405.41 L753.15 405.5 L753.57 405.66 L754.12 405.68 L758.56 404.66 L759.07 404.22 L760.94 401.13 L762.19 400.19 L763.46 399.96 L764.78 399.93 L766.16 399.55 L769.26 396.48 L772.73 393.86 L772.86 393.42 L774.04 392.77 L773.66 391.33 L772.48 389.88 L771.29 389.23 L767.55 388.32 L766.16 388.21 L763.69 388.48 L761.72 389.04 L760.09 390.09 L758.56 391.84 L756.83 395.99 L756.5 395.97 L751.28 403.47 L749.57 405.04 L747.39 405.68 L744.95 405.33 L735.13 401.67 L733.45 400.66 L731.76 399.34 L730.67 398.76 L729.17 398.53 L727.07 397.62 L723.05 393.53 L720.77 392.4 L720.77 391.28 L722.08 390.79 L722.54 389.43 L722.73 387.71 L723.15 386.16 L722.66 386 L722.35 385.76 L722.07 385.46 L721.63 385.15 L722.52 384.53 L722.96 383.89 L723.13 382.98 L723.15 381.51 L723.55 380.47 L724.49 379.86 L725.6 379.45 L726.39 379 L729.59 375.91 L730.36 374.81 L731.15 374.81 L732.58 377.87 L736.36 377.56 L740.68 376.4 L743.82 376.95 L744.29 376.12 L744.75 375.5 L745.14 374.82 L745.41 373.88 L746.06 375.25 L746.2 375.93 L747 375.93 L748.45 373.87 L750.88 372.78 L755.8 371.92 L758.86 370.81 L760 369.04 L759.81 366.37 L758.96 362.52 L779.79 361.89 L782.01 362.52 L781.15 365.87 L783.31 367.31 L786.43 368.16 L788.44 369.78 L787.73 371.21 L784.04 376.95 L784.33 377.79 L789.21 382.59 L793.18 384.21 L794.1 384.96 L794.61 385.57 L798.56 391.59 L800.09 392.94 L802.63 394.44 L801.11 395.47 L801.59 396.74 L802.4 397.87 L803.49 399.03 L803.55 400.53 L803.88 401.44 L804.61 401.79 L805.87 401.6 L805.71 404.62 L807.24 408 L809.38 410.77 Z M625.28 334.69 L629.37 337.48 L628.55 341.21 L622.9 349.27 L622.11 349.27 L620.8 342.1 L621.15 338.64 L623.62 336.75 L623.22 335.55 L623.49 334.98 L624.23 334.79 Z M54.05 354.3 L54.61 355.91 L55.64 360.46 L57.03 362.64 L57.06 363.7 L55.64 364.65 L54.61 363.76 L51.73 362.9 L49.04 360.9 L47.13 360.09 L45.1 359.6 L43.28 359.44 L42.25 358.85 L39.29 356.19 L38.12 355.42 L36.14 355.15 L34.52 355.17 L33.13 354.78 L32.62 354.08 L33.48 354.24 L34.28 353.66 L34.95 352.25 L30.91 350.93 L29.4 350.21 L29.35 350.57 L29.29 351.14 L29.31 351.34 L27.76 349.03 L26.51 345.96 L25.68 342.85 L24.89 336.48 L23.5 333.41 L21.29 330.9 L18.31 328.61 L15.62 327.29 L14.17 326.23 L11.05 319.27 L10.73 318.23 L8.7 318.27 L7.34 318.07 L6.37 317.19 L5.56 315.14 L5.87 311.65 L5.25 310.54 L3.1 311.95 L3.15 309.58 L2.75 307.86 L1.76 306.93 L0 306.89 L1.15 305.65 L4.16 301.41 L4.76 300.05 L5.86 299.8 L16.63 299.36 L20.04 298.64 L23.04 297.33 L26.16 295.36 L27.76 295.89 L28.84 296.75 L29.78 297.72 L30.92 298.55 L33.94 299.55 L35.12 300.27 L35.74 301.64 L36.54 301.64 L36.54 300.53 L37.33 300.53 L37.13 305.23 L35.68 307.96 L33.26 309.57 L26.13 312.58 L24.97 313.54 L24.32 315.31 L24.69 317.2 L25.68 318.7 L26.96 319.26 L26.96 320.38 L25.37 320.38 L25.37 321.31 L32.2 324.87 L34.95 325.43 L34.49 328.72 L33.75 329.42 L31.77 328.61 L33.13 331.75 L35.53 347.51 L36 348.37 L37.33 349.27 L38.89 349.88 L42.14 350.56 L43.68 351.22 L46.12 353.12 L47.17 353.44 L49.23 353.28 L50.93 352.65 L51.97 351.98 L52.87 352.23 Z M676.1 263.31 L675.09 264.85 L674.57 265.39 L674.57 266.33 L675.14 266.26 L675.26 266.52 L675.25 266.96 L675.62 268.32 L675.79 269.83 L676.1 270.55 L673.38 272.1 L670.49 274.29 L668.63 277.22 L669.02 280.99 L667.42 280.96 L666.14 281.34 L665.14 282.04 L664.27 282.97 L665.85 283.96 L666.65 284.1 L664.87 285.06 L663.53 286.39 L663.38 287.85 L665.14 289.16 L663.66 290.81 L664.31 292.46 L665.74 293.99 L666.65 295.36 L666.81 296.48 L666.67 296.6 L666.13 296.65 L665.14 297.52 L664.93 298.59 L664.82 300.08 L664.38 300.93 L663.15 300.05 L662.43 299.66 L659.11 298.55 L658.14 297.91 L657.96 296.49 L657.96 295.06 L657.57 294.42 L655.57 293.67 L653.66 290.62 L651.59 290.29 L654.25 288.42 L655.71 286.96 L656.35 285.59 L655.81 283.4 L654.52 281.94 L652.97 281.14 L651.59 280.99 L646.75 285.03 L647.83 285.02 L648.7 285.19 L649.4 285.56 L650 286.15 L647.93 286.5 L646.41 287.94 L645.29 290.03 L644.44 292.26 L645.41 291.8 L645.65 291.65 L646.03 291.23 L647.34 292.87 L648.77 295.34 L649.53 297.56 L648.77 298.55 L646.24 298.4 L644.19 298 L640.5 296.49 L643.11 292.28 L643.59 291.74 L643.01 290.14 L641.72 290.63 L640.38 292.1 L639.63 293.39 L638.83 293.39 L638.78 292.2 L638.58 291.56 L638.3 291.06 L638.04 290.29 L631.31 292.39 L630.05 293.39 L629.33 293.39 L629.72 292.43 L630.13 291.64 L630.73 290.95 L631.69 290.29 L631.04 290.01 L630.2 289.4 L629.33 289.16 L629.5 287.85 L629.33 287.19 L630.05 286.56 L630.82 286.15 L630.82 285.03 L630.05 285.03 L630.05 284.1 L630.57 283.91 L630.9 283.69 L631.69 282.97 L630.82 282.97 L631.78 280.8 L631.29 279.48 L630.2 278.35 L629.33 276.76 L629.21 274.62 L629.39 272.6 L629.14 271.12 L627.74 270.55 L627.74 269.52 L631.83 269.27 L639.23 267.46 L640.39 267.77 L641.14 268.47 L641.63 269.18 L642.01 269.52 L643.82 269.26 L650 267.46 L652.58 268.43 L654.17 270.18 L655.48 272.38 L657.2 274.7 L656.97 275.87 L659.5 274.86 L662.67 272.99 L664.27 271.59 L664.27 270.27 L666.74 266.64 L668.23 265.39 L668.68 265.48 L671.8 265.39 L672.81 265.11 Z M704.05 200.72 L704.59 203.01 L703.12 204.48 L692.26 208.28 L689.71 208.02 L685.7 205.71 L678 199.49 L676.34 197.52 L675.36 195.51 L677.47 195.55 L684.28 191.56 L687.33 190.4 L690.72 190.49 L700.09 193.33 L701.87 194.65 L703.82 196.56 L704.85 198.69 Z M599.06 156.79 L596.64 156.9 L595.92 158.58 L596.77 160.4 L599.06 160.96 L599.06 164.01 L597.08 164.7 L596.67 166.8 L597.47 171.42 L598.27 173.18 L598.6 174.38 L598.34 175.6 L597.53 175.71 L595.5 174.41 L595.09 175.07 L594.2 176.17 L592.15 176.98 L588.32 177.68 L586.92 178.23 L584.1 180.92 L582.33 181.95 L581.78 180.55 L580.98 179.44 L579.17 177.68 L578.8 177.6 L577.83 177.8 L577.51 177.68 L577.46 177.28 L577.58 175.96 L577.51 175.6 L575.89 174.1 L575.13 173.61 L571.92 172.82 L569.39 172.73 L567.76 171.48 L567.21 167.24 L567.94 163.28 L569.69 159.37 L573.55 153.65 L582.33 146.23 L586.08 148.11 L590.82 148.67 L592.72 149.36 L593.18 150.32 L593.5 151.76 L594.12 153.07 L595.48 153.65 L596.69 153.94 L597.79 154.69 L598.62 155.71 Z M494.33 736.68 L494.7 737.4 L494.88 738.03 L494.33 738.31 L493.48 737.71 L493.45 736.66 Z M445.03 725.39 L445.56 726.02 L445.92 727.56 L445.52 727.91 L444.81 727.56 L444.48 726.57 L444.44 726.29 L444.2 726.1 L444.27 725.39 L443.88 724.26 L444.61 724.46 Z M921.74 823.19 L927.64 823.53 L927.93 824.2 L927.89 825.62 L927.4 826.83 L926.9 827.29 L926 827.22 L923.73 827.85 L922.07 827.48 L919.98 827.37 L917.77 827.97 L916.31 827.23 L916.14 825.21 L917.2 823.89 L918.03 823.63 L919.77 823.31 Z M877.64 769.7 L878.67 770.96 L879.99 773.83 L879.05 776.54 L876.33 777.67 L874.8 777.69 L872.34 777.28 L871.13 776.37 L870.71 774.84 L872 771.95 L875.43 769.78 Z M841.18 694.45 L841.89 695.2 L842.93 697 L842.93 698.59 L842.1 698.86 L841.61 698.88 L841.57 699.41 L840.96 699.7 L839.99 699.81 L838.64 699.64 L837.21 698.73 L837.21 697.65 L838.49 696.82 L838.92 695.84 L837.84 695.76 L836.3 696.69 L834.85 696.53 L834.05 695.14 L834.5 693.87 L834.81 692.64 L833.59 691.89 L832.28 691.34 L831.49 690.38 L830.08 689.27 L829.68 687.38 L831.01 686.09 L832.62 686.23 L832.96 685.93 L832.88 684.96 L833.81 684.81 L834.85 685.61 L835.53 685.83 L835.96 685.69 L836.43 685.9 L836.88 686.15 L837.61 686.43 L838.62 686.7 L838.98 687.51 L838.21 689.05 L837.96 690.39 L839.14 690.9 L840.31 691.66 L840.95 693.45 Z M809.49 662.18 L810.05 663.05 L810.34 664.49 L809.72 664.81 L809.1 664.19 L808.31 663.73 L807.88 663.61 L807.45 663.44 L806.42 663.38 L805.41 664.18 L804.95 665.25 L804.8 665.93 L804.37 666.31 L803.68 666.39 L804.27 667.36 L805.58 669.04 L805.88 673.97 L804.67 674.47 L803.4 673.6 L803.51 672.65 L803.21 671.96 L801.81 671.47 L801.33 670.16 L801.95 666.6 L802.35 665.67 L802.52 664.7 L802.17 663.39 L801.93 661.41 L802.24 659.65 L803.25 659.59 L804.56 659.74 L805.98 659.4 L807.37 660.03 L808.5 660.86 L809.24 661.62 Z M593.61 624.37 L593.42 625.24 L593.82 627.03 L591.14 627.34 L585.83 626.32 L584.35 625.39 L586.47 625.01 L588.34 624.17 L589.48 622.77 L590.9 621.84 L592.86 621.69 L593.8 622.59 Z M153.1 471.05 L153.85 471.54 L154 473.08 L152.69 474.79 L151.23 475.98 L149.55 476.98 L148.56 477.4 L147.64 477.96 L146.34 479.4 L145.38 481.17 L144.44 481.45 L144.07 480.01 L144.39 478.34 L146.5 474.55 L148.3 472.5 L150.34 471.71 Z M136.36 469.15 L136.83 469.09 L136.87 469.65 L136.47 470.43 L135.86 471.27 L134.92 472.21 L131.93 473.04 L131.56 474.79 L133.14 476.11 L134.11 477.09 L134.3 477.46 L135.17 478.08 L136.25 479.53 L134.75 478.89 L130.64 474.99 L128.93 471.1 L130.03 469.42 L131.83 469.03 L134.28 467.71 L134.9 468.33 L135.4 468.65 L135.97 468.45 L136.22 468.63 L136.11 469.09 Z M517.21 366.49 L518.28 367 L518.76 367.52 L518.68 369.85 L517.27 373.64 L515.1 374.8 L514 373.57 L514.12 372.52 L514.66 372.19 L514.27 371.51 L513.08 370.86 L512.59 369.77 L512.98 368.13 L513.66 366.55 L514.57 365.16 L515.56 364.89 L515.79 366.35 L515.87 367.5 L516.35 367.01 Z "/>
</g>
</svg>
