<svg xmlns="http://www.w3.org/2000/svg" viewBox="0 0 1000 1461.68">
<g fill="#ccc" stroke="#333" stroke-width="0.5" stroke-linejoin="round">
<path fill-rule="evenodd" d="M481.36 875.05 L504.08 922.11 L508.93 962.4 L499.34 1098.7 L492.83 1118.11 L480.92 1137.29 L462.83 1179.71 L463.71 1201.36 L478.93 1246.71 L472.09 1255.28 L457.97 1261.83 L450.03 1278.18 L446.72 1299.84 L445.84 1322.51 L430.84 1347.32 L314.69 1408.45 L314.69 1387.81 L291.53 1399.2 L274.21 1414.77 L263.18 1435.52 L259.1 1461.68 L233.84 1456.94 L209.46 1449.39 L186.41 1438.9 L165.01 1425.7 L137 1450.4 L91 1460.1 L40.59 1457.51 L0 1446.34 L93.98 1385.67 L111.18 1368.86 L120.78 1328.37 L112.95 1295.89 L99.6 1263.97 L92.43 1226.07 L106.99 1164.36 L163.25 1055.6 L165.01 1007.54 L322.74 815.01 L379.55 804.85 L441.43 813.21 L500.11 850.23 L498.35 858.8 Z M982.57 208.44 L934.81 194.21 L889.04 207.09 L843.81 230.47 L797.71 248.09 L807.08 231.15 L825.28 187.43 L834.55 170.49 L826.16 169.13 L797.71 170.49 L801.68 159.42 L817.67 132.53 L876.24 150.38 L911.32 102.48 L940.77 36.61 L982.57 0 L1000 45.42 L995.37 95.92 L984.34 150.83 Z "/>
</g>
</svg>
