<svg xmlns="http://www.w3.org/2000/svg" viewBox="0 0 1000 1295.06">
<g fill="#ccc" stroke="#333" stroke-width="0.5" stroke-linejoin="round">
<path fill-rule="evenodd" d="M799.5 43.66 L830.77 113.37 L884.62 152.81 L945.91 170.3 L999.26 174.26 L1000 211.02 L955.83 293.6 L862.28 431.17 L755.09 529.93 L561.29 653.42 L485.61 732.77 L442.68 862.35 L414.39 1155.36 L339.7 1269.57 L286.1 1292.51 L223.57 1295.06 L172.21 1277.09 L140.94 1220.5 L99.26 1166.57 L89.58 1151.02 L70.97 1032.33 L61.29 1011.29 L46.65 992.93 L28.78 978.39 L6.45 968.19 L37.72 936.69 L57.57 904.43 L67.99 864.39 L70.97 808.78 L65.01 782.89 L49.63 750.62 L32.26 723.2 L0 699.09 L13.65 675.36 L37.47 661.84 L50.12 678.43 L92.31 674.22 L276.43 566.67 L318.86 528.65 L485.61 431.17 L518.11 398.5 L545.91 360.73 L570.22 315.3 L634.24 104.94 L653.85 67.03 L689.83 32.56 L739.45 3.45 L781.89 0 Z "/>
</g>
</svg>
