<svg xmlns="http://www.w3.org/2000/svg" viewBox="0 0 1000 620.46">
<g fill="#ccc" stroke="#333" stroke-width="0.5" stroke-linejoin="round">
<path fill-rule="evenodd" d="M999.6 573.55 L907.83 570.72 L692.01 609.58 L514.39 620.46 L489.91 575.19 L496.57 446.35 L545.26 407.91 L626.39 371.63 L799.23 240.1 L834.02 212.15 L931.56 222.38 L955.83 142.21 L930.01 94.31 L841.87 34.94 L746.85 123.21 L718.25 104.22 L675.96 50.85 L694.83 0.26 L1000 0 Z M526.92 7.22 L467.74 38.72 L447 108.47 L503.65 163.54 L552 252.14 L439.92 276.22 L354.61 293.06 L288.11 343.19 L267.01 383.18 L226.34 375.89 L213.7 333.5 L173.36 326.59 L133.12 349.47 L106.95 367.02 L108.77 402.08 L196.57 463.2 L294.72 475.27 L303.51 503.44 L183.93 507.61 L12.98 548.62 L0 551.76 L28.2 263.39 L391.54 6.57 Z "/>
</g>
</svg>
