<svg xmlns="http://www.w3.org/2000/svg" viewBox="0 0 1000 1054.7">
<g fill="#ccc" stroke="#333" stroke-width="0.5" stroke-linejoin="round">
<path fill-rule="evenodd" d="M716.62 879.49 L716.57 879.49 L709.42 874.23 L709.15 874.82 L707.87 876.78 L707.54 871.83 L705.01 872.81 L699.36 878.67 L695.45 879.48 L692.65 878.44 L689.84 876.96 L685.9 876.44 L683.2 877.59 L681.49 878.32 L675.35 885.76 L671.97 888.2 L671.25 883.45 L668.54 880.69 L664.89 880.38 L661.36 883 L659.74 887.06 L660.81 889.96 L662.63 892.5 L663.35 895.48 L661.77 897.99 L659.28 899.78 L657.81 901.93 L659.35 905.56 L664.54 906.25 L666.25 907.02 L667.69 908.38 L668.41 909.36 L669.85 912.11 L670.18 913.31 L670.62 917.23 L671.09 918.9 L672.17 919.97 L675.32 921.55 L676.12 922.6 L676.16 926.6 L674.56 928.19 L647.88 934.6 L641.35 937.6 L635.08 942.42 L630.11 947.88 L619.49 966.7 L618.79 968.79 L619.03 970.76 L620.63 974.47 L620.82 974.91 L620.72 976.33 L617.09 978.29 L613.44 976.8 L606.98 971.76 L602.48 970.58 L598.81 970.84 L587.81 975.04 L585.16 976.78 L579.87 982.08 L556 998.85 L552.32 1002.11 L550.21 1005.7 L548.57 1009.42 L546.26 1013.03 L543.22 1015.48 L536.4 1019.12 L533.43 1022.18 L531.46 1025.88 L530.13 1029.92 L529.52 1034.08 L529.63 1038.11 L533.61 1054.7 L533.6 1054.69 L497.03 1039.52 L458.37 1022.16 L433.77 1012.92 L413.84 1008.17 L399.53 1005.84 L382.32 1004.17 L363.11 1006.05 L360.22 1006.92 L331.88 1008.72 L298.74 1008.09 L268.42 1004.73 L230.99 997.31 L172.5 971.3 L151.33 959.22 L120.16 939.82 L83.98 913.25 L48.86 881.41 L0 845.93 L5.01 845.15 L9.49 839.71 L14.95 824.55 L20.25 814.65 L21.23 810.7 L21 805.87 L16.61 793.22 L16.43 791.37 L16.75 787.61 L16.61 785.6 L14.31 779.26 L13.77 777.12 L13.56 771.71 L14.77 768.63 L19.93 762.58 L22.75 754.87 L22.03 738.87 L22.87 730.41 L25.81 727.44 L28.91 726.55 L32.12 726.18 L35.38 724.77 L37.92 721.8 L42.84 710.4 L10.66 668.33 L8.78 664.16 L8.69 659.35 L10.34 654.85 L14.93 646.9 L27.03 625.92 L34.86 612.35 L44.15 596.25 L63.76 562.2 L83.4 528.14 L100.51 498.4 L112.61 477.35 L117.2 469.38 L122.81 459.59 L125.81 455.79 L129.8 453.77 L141.07 453.75 L175.33 453.68 L209.59 453.64 L243.82 453.59 L278.08 453.52 L310.9 453.5 L312.34 453.49 L346.59 453.43 L380.83 453.37 L415.07 453.31 L437.36 453.28 L442.23 452.71 L446.69 451.07 L446.78 450.96 L447.69 449.67 L449.36 446 L450.1 443.85 L448.67 444.45 L448.04 444.62 L447.6 444.86 L446.7 445.77 L444.85 445.77 L443.88 441.36 L449.89 436.32 L446.7 433.24 L446.7 431.63 L452.17 429.37 L450.53 426.77 L443.3 422.65 L442.37 417.74 L444.13 414.21 L447.18 411.86 L450.1 410.44 L446.74 409.11 L444.29 407.13 L443.9 404.56 L446.7 401.44 L447.8 402.54 L448.57 402.94 L451.78 403.38 L450.85 402.01 L449.34 399.13 L448.4 397.75 L449.53 397.89 L449.84 397.53 L449.84 396.87 L450.1 396.15 L451.57 397.16 L453.63 397.75 L455.17 397.11 L455.18 394.38 L453.65 395 L450.03 393.65 L447.51 391.8 L449.25 390.84 L453.83 389.35 L457.5 385.81 L458.96 381.65 L456.87 378.32 L455.18 378.32 L455.18 380.24 L453.49 380.24 L454.13 376.58 L456.49 375.24 L459.87 375.48 L463.67 376.55 L460.8 371.71 L460.48 370.22 L460.42 366.82 L459.92 363.1 L458.51 362.75 L456.31 363.76 L453.49 364.16 L452.03 363.49 L450.19 362.27 L447.64 361.13 L439.82 360.12 L439.18 358.64 L439.51 356.42 L438.21 353.56 L436.74 352.13 L434.38 350.45 L431.6 349.66 L425.65 352.55 L424.11 350.24 L422.96 344.71 L420.55 344.7 L414.11 346.64 L412.77 347.29 L411.31 346.48 L407.81 345.75 L403.82 345.61 L400.75 346.49 L402.05 344.01 L404.26 342.15 L405.98 340.2 L405.84 337.48 L402.97 335.71 L399.16 335.47 L397.01 334.51 L399.05 330.56 L398.16 326.36 L399.78 321.98 L400.59 318.29 L397.21 316.24 L396.49 317.97 L395.66 318.82 L394.36 319.25 L392.28 319.63 L392.28 318.02 L395.55 311.95 L392.15 302.62 L375.36 278.24 L371.77 275.36 L362.87 270.87 L359.2 267.8 L360.05 264.73 L360.05 262.97 L356.66 261.03 L354.33 263 L351.41 262.97 L334.29 257.63 L329.71 254.95 L322.48 247.59 L317.33 245.08 L321.34 240.79 L320.74 238.75 L317.35 238.16 L313.02 238.14 L312.6 239.23 L313.51 241.6 L313.76 243.98 L311.33 245.08 L310.02 244.35 L306.9 240.95 L305.46 239.77 L295.96 236.34 L292.99 233.7 L291.89 228.32 L290.49 225.57 L281.72 214.93 L280.76 212.64 L279.49 207.68 L278.17 206.06 L275.53 205.57 L269.55 206.23 L267.07 205.18 L258.24 195.47 L255.96 191.87 L254.89 189.25 L253.62 184.65 L252.57 182.83 L250.28 181.48 L245.21 180.15 L244.23 178.48 L243.73 174.45 L242.32 169.76 L240.17 165.65 L237.46 163.31 L230.67 162.95 L224.02 164.02 L218.96 163.14 L216.95 156.94 L213.13 154.86 L205.45 153.26 L199.67 150.6 L200.73 146.51 L202.59 146.17 L311.6 146.97 L311.73 75.37 L311.86 3.67 L313.87 1.43 L318.99 0 L329.7 0 L384.32 0.05 L438.92 0.11 L493.53 0.18 L548.15 0.23 L602.74 0.27 L657.36 0.34 L711.98 0.39 L766.59 0.44 L767.65 56.79 L769.01 128.99 L769.39 203.03 L765.2 270.35 L760.66 343.24 L758.48 369.99 L754.66 423.43 L748.29 483.2 L747.82 495.72 L747.7 498.96 L749.76 502.34 L750.32 501.51 L752.66 500.33 L755.57 499.35 L757.83 499.22 L762.38 497.32 L781.39 498.22 L788.48 497 L796.44 496.95 L818.41 502.65 L827.83 498.96 L831.3 500.53 L839.7 507.64 L848.29 505.49 L859.29 507.96 L867.75 512.94 L868.69 518.37 L874.33 519.3 L899.38 535.12 L896.32 546.76 L896.83 548.49 L903.53 548.49 L906.23 547.45 L907.02 545.24 L906.74 543.31 L906.15 543.04 L906.08 541.97 L905.24 541.05 L904.44 539.86 L904.47 537.91 L905.72 537.53 L908.02 537.79 L910.26 537.41 L911.25 535.12 L912.21 530.97 L914.4 528.14 L916.75 525.93 L918.18 523.66 L918.48 519.69 L916.58 513.57 L916.34 509.55 L918.18 509.55 L918.09 512.25 L918.18 513.08 L919.73 513.08 L922.69 511.13 L929.92 512.53 L933.45 511.15 L927.7 505.77 L924.51 503.33 L919.92 501.23 L918 498.64 L916.34 495.7 L914.64 493.52 L903.95 487.47 L900.9 483.63 L904.47 479.4 L908.27 481.63 L915.31 484.72 L918.18 486.46 L925.4 494.1 L930.61 497.12 L943.61 508.06 L969.22 520.13 L977.62 527.76 L980.26 528.94 L991.21 538.61 L999.85 542.35 L1000 542.41 L997.1 543.5 L996.32 545.82 L996.53 548.62 L994.87 552.06 L993.34 550.14 L989.05 551.97 L985.4 554 L981.45 555.48 L976.22 555.58 L974.82 557.48 L967.3 570.47 L955.77 581.84 L938.76 595.27 L930.67 601.67 L908.97 618.58 L887.4 635.39 L865.86 652.16 L844.46 668.81 L813.06 693.24 L804.4 697.36 L779.18 705.84 L771.55 709.71 L769.96 711.03 L766.51 713.87 L763.54 718.51 L759.61 730.37 L764.45 734.91 L764.44 741.69 L761.36 748.99 L759.45 751.72 L757.07 755.12 L750.91 760.47 L748.96 763.48 L748.72 768.31 L749.9 771.89 L752.06 775.21 L757.07 781.27 L759.4 785.15 L764.09 796.5 L766.79 800.01 L769.07 802.02 L770.14 803.68 L770.56 804.33 L771.01 808.71 L770.38 810.72 L767.74 813.59 L766.86 815.2 L767.9 828.14 L767.77 832.7 L766.61 836.95 L763.69 839.74 L760.82 839.97 L754.58 837.8 L751.54 837.25 L747.31 837.8 L745.42 839.08 L744.22 841.08 L741.96 843.89 L734.18 850.62 L730.73 854.38 L728.25 858.85 L726.21 861.03 L720.69 862.44 L718.14 864.11 L716.53 867.46 L716.08 871.52 Z "/>
</g>
</svg>
