<svg xmlns="http://www.w3.org/2000/svg" viewBox="0 0 1000 980.21">
<g fill="#ccc" stroke="#333" stroke-width="0.5" stroke-linejoin="round">
<path fill-rule="evenodd" d="M185.28 729.41 L226.36 711.86 L268.82 679.72 L308.53 662.29 L341.37 689.44 L333.28 715.96 L300.77 771.12 L291.63 836.83 L279.26 884.6 L279.58 896.66 L276.99 904.87 L261.3 921.16 L241.25 933.97 L228.06 932.48 L215.85 925.39 L199.43 921.16 L8.17 921.16 L0 913.2 L5.34 897.03 L20.87 881.74 L42.94 877.38 L33.56 833.96 L46.1 820.9 L70.6 820.4 L97.05 814.68 Z M615.53 872.41 L630.25 892.18 L634.13 930.61 L613.75 960.95 L596.12 980.21 L587.06 976.61 L593.53 956.97 L596.93 941.43 L591.43 922.65 L592.24 907.23 L597.9 899.27 L603.4 886.96 L610.84 875.76 Z M991.75 0 L1000 8.13 L1000 25.15 L965.06 63.8 L939.34 78.93 L907.48 87.18 L888.88 72.43 L904.25 39.03 L931.66 22.39 L951.31 20.27 L983.5 1.5 Z M436.8 765.27 L448.44 758.92 L453.62 787.55 L437.44 825.63 L435.18 813.43 L434.05 786.18 Z "/>
</g>
</svg>
