<svg xmlns="http://www.w3.org/2000/svg" viewBox="0 0 1000 750.65">
<g fill="#ccc" stroke="#333" stroke-width="0.5" stroke-linejoin="round">
<path fill-rule="evenodd" d="M239.94 498.57 L238.42 497.64 L237.17 496.51 L236.61 494.99 L237.1 492.9 L237.47 492.83 L239.48 492.9 L240 492.69 L239.96 492.2 L239.8 491.61 L239.94 491.12 L243.62 487.31 L246.17 483.09 L247.76 481.07 L250.07 479.77 L252.46 479.65 L256.78 480.53 L259.27 479.77 L259.27 478.92 L251.07 479.22 L247.19 478.84 L245.54 477.43 L245.79 476.9 L246.98 475.8 L247.39 475.1 L247.39 473.32 L248.46 470.56 L249.14 467.73 L246.17 470.81 L244.86 474.14 L244.08 477.75 L242.7 481.71 L239.42 480.28 L238.02 479.38 L237.1 477.9 L238.26 477.22 L238.52 475.95 L238.11 472.39 L238.26 472.41 L238.58 471.75 L238.88 470.82 L239.02 470.06 L238.73 469.59 L237.44 468.84 L237.1 468.57 L236.71 465.83 L236.67 461.77 L237.57 459.25 L239.94 461.11 L239.57 458.11 L239.63 456.84 L239.94 455.51 L239.02 455.51 L238.21 456.51 L237.1 457.08 L235.66 457.33 L233.92 457.38 L232.96 457.98 L232.29 459.39 L230.93 465.71 L230.04 467 L226.94 465.48 L225.56 465.05 L224.99 464.18 L226.05 462.13 L224.71 460.93 L223.4 458.78 L222.45 456.17 L222.29 453.57 L223.22 451 L226.16 447.14 L227.06 444.24 L226.05 444.24 L222.78 446.79 L217.79 447.14 L213.24 445.68 L211.24 442.84 L210.32 438.76 L210.33 436.62 L211.75 434.44 L213.04 432.97 L214.04 431.19 L214.69 429.03 L214.92 426.51 L214 426.51 L211.02 432.61 L209.21 435.17 L206.73 435.93 L204.85 434.72 L202.98 432.23 L201.6 429.24 L201.21 426.51 L197.09 428.25 L193.82 430.14 L189.14 432.85 L185.39 433.97 L185.21 434.29 L184.24 434.91 L183.15 435.16 L182.63 434.44 L182.92 433.28 L183.62 432.91 L184.51 432.72 L185.39 432.12 L189.76 425.86 L192.55 422.67 L194.15 419.04 L196.17 415.82 L196.54 413.68 L196.36 405.84 L196.52 404.87 L197.15 404.22 L198.99 403.5 L199.36 402.62 L200.26 401.08 L202.25 400.13 L204.16 398.89 L204.89 396.54 L202.1 398.06 L200.42 398.46 L199.09 397.64 L193.21 390.62 L192.75 389.07 L192.21 389.22 L191.82 389.39 L190.92 389.92 L192.4 394.22 L192.84 398.08 L191.39 401.15 L187.23 403.09 L182.27 402.58 L179.81 399.34 L179.45 394.95 L180.79 390.94 L186.4 383.88 L188.6 379.41 L188.15 374.89 L186.98 373.89 L186.51 375.72 L186.28 378.33 L185.9 379.65 L184.45 380.54 L181.79 384.43 L179.87 385.25 L180.04 385.83 L179.46 386.25 L174.76 388.06 L174.21 388.09 L171.38 387.87 L168.95 387.36 L166.91 386.62 L166.06 385.68 L165.27 384.14 L163.37 381.77 L161.08 379.59 L159.13 378.63 L155.48 376.33 L154.74 375.32 L153.09 372.09 L151.9 371.54 L149.63 371.42 L148.5 371.08 L147.48 370.25 L144.82 367.42 L142.8 366.57 L141.38 366.34 L139.94 365.81 L137.87 364.1 L137.39 360.71 L139.51 356.68 L142.99 354.64 L146.57 357.14 L145.58 355.49 L143.74 353.22 L141.93 351.6 L141.14 351.96 L140.12 353.7 L138.08 352.97 L136.52 351.4 L136.9 350.51 L139.82 349.32 L142.1 346.49 L145.74 340.22 L143.77 341.17 L142.37 342.41 L139.71 345.36 L138.25 346.3 L134.56 348 L133.69 348.64 L133.44 350.31 L133.69 356.63 L133.29 358.18 L132.17 359.59 L130.44 360.58 L128.17 360.87 L125.08 359.95 L122.75 357.88 L121.49 355.21 L121.63 352.47 L123.79 350.23 L127.11 347.79 L129.06 345.31 L127.16 343.03 L126.63 345.04 L125.09 346.16 L123 346.66 L120.8 346.77 L121.13 349.83 L118.75 352.13 L115.75 353.04 L114.27 351.96 L113.84 351.01 L112.9 349.85 L111.95 348.33 L111.52 346.3 L111.97 345.31 L112.83 344.44 L113.37 343.59 L112.86 342.6 L112.13 342.34 L111.39 342.53 L110.82 342.98 L110.6 343.5 L109.32 345.7 L106.36 344.05 L98.23 336.59 L96.84 335.91 L94.95 335.47 L92.91 335.61 L91.07 336.16 L89.31 336.35 L87.5 335.47 L84.73 338.18 L83.37 336.74 L82.93 333.38 L82.9 330.31 L83.96 325.9 L83.91 324.16 L83.31 322.37 L82.56 321.52 L81.66 320.96 L73.31 312.28 L71.86 309.27 L71.47 306.4 L71.52 302.9 L72.2 299.76 L73.53 298.05 L73.61 297.95 L73.56 297.96 L71.4 298.15 L69.92 299.17 L68.68 300.52 L67.17 301.7 L65.34 302.37 L63.03 302.73 L60.95 302.33 L59.81 300.76 L58.89 300.76 L57.95 302.49 L57.06 301.88 L56.4 299.88 L56.13 297.48 L56.25 295.07 L56.61 293.23 L58.05 289.44 L59.54 289.94 L61.35 288.47 L63.32 286.33 L65.34 284.85 L62.08 284.77 L60.99 283 L61.16 280.5 L62.8 272.84 L63.87 270.91 L65.34 271.73 L66.17 271.73 L66.43 269.69 L67.45 268.62 L68.57 268.04 L69.1 267.39 L70.85 261.26 L74.11 254.71 L75.98 253.94 L77.03 252.1 L77.2 249.9 L76.46 248.06 L76.98 247.44 L78.3 245.42 L75.65 246.21 L75.29 247.27 L75.75 248.8 L75.45 250.95 L70.93 254.14 L70.39 254.71 L68.43 256.23 L66.15 259.68 L64.27 263.36 L62.7 267.81 L60.85 270.76 L57.05 275.4 L53.25 278.76 L51.4 279.45 L50.6 277.79 L50.87 275.65 L51.63 274.14 L52.8 273.16 L54.29 272.59 L53.29 272.37 L52.48 272.4 L51.66 272.77 L50.6 273.52 L48.77 271.73 L50.44 266.27 L51.5 263.93 L52.94 261.78 L53.77 260.98 L55.68 259.7 L56.59 258.92 L57.31 257.84 L57.67 256.88 L57.93 256.56 L57.23 256.29 L56.13 255.64 L54.34 257.98 L48.26 262.71 L46.69 265.05 L45.11 270.17 L43.24 271.73 L41.94 269.07 L40.23 267.36 L38.86 265.47 L38.56 262.28 L40.37 262.35 L41.94 261.09 L43.18 259.24 L44.08 257.52 L44.73 255.72 L45.16 253.65 L45.31 251.88 L45.08 250.95 L45.46 250.16 L45.66 249.56 L45.92 248.06 L43.43 249.9 L42.57 251.02 L42.24 252.32 L41.59 252.92 L37.72 254.71 L36.72 254.71 L36.59 253.15 L36.67 251.67 L37.02 250.32 L37.72 249.08 L36.91 247.83 L36.82 246.61 L37.38 245.46 L38.56 244.4 L36.02 244.16 L35.23 242.55 L35.63 240.47 L36.72 238.77 L38.42 237.67 L40.77 236.78 L43.3 236.18 L45.5 235.96 L47.09 235.08 L48.01 233.15 L48.6 231.22 L49.18 230.34 L51.45 229.72 L53.97 226.7 L56.13 225.56 L55.12 224.78 L54.44 223.94 L53.37 221.73 L53.13 223.02 L52.71 224.26 L52.05 225.19 L51.07 225.56 L50.31 225.74 L48.2 226.59 L47.76 226.93 L47.22 229.67 L45.78 231.97 L43.71 233.06 L41.32 232.12 L40.66 232.77 L39.97 233.07 L39.05 233.17 L37.72 233.15 L38.5 230.51 L37.72 228.84 L36.46 228.49 L35.8 229.83 L32.03 234.94 L27.84 234.14 L25.16 226.32 L21.91 226.5 L24.22 228.87 L24.58 231.4 L23.86 233.84 L22.92 235.96 L20.11 233.82 L18.49 233.21 L16.38 233.15 L20.86 236.58 L22.47 238.39 L22.92 240.64 L21.6 243.15 L19.05 245.7 L16.58 247.47 L15.46 247.64 L15.18 247.24 L14.55 247.11 L13.91 247.24 L13.62 247.64 L13.77 248.48 L14.41 249.79 L14.55 250.49 L14.55 255.18 L15.12 255.96 L16.38 256.56 L17.65 257.41 L18.23 258.92 L17.99 259.63 L16.38 262.28 L13.96 261.08 L9.06 260.31 L6.68 258.92 L3.84 255.95 L1.57 252.83 L0.22 249.87 L0 247.19 L0.92 244.63 L2.99 242.01 L3.98 241.51 L6.64 240.7 L7.19 240.17 L7.34 239.17 L7.76 238.22 L8.32 237.4 L8.94 236.82 L8.94 235.96 L8.34 236.01 L8.19 235.78 L8.22 235.39 L8.11 234.94 L11.93 230.99 L11.93 230.97 L16.45 225.56 L29.38 200.44 L32.06 189.64 L34.09 184.47 L47.47 164.78 L49.88 162.09 L53.16 160.28 L58.74 159.68 L69.94 160.98 L75.51 159.98 L87.46 153.42 L100 146.54 L101.72 145.16 L102.62 143.8 L104.18 140.49 L105.24 139.3 L106.68 138.52 L107.38 138.61 L108.16 139.04 L119.44 139.78 L122.55 139.36 L123.91 139.61 L125.1 140.45 L126.25 141.47 L127.54 142.25 L129.75 142.77 L131.62 142.69 L135.67 141.98 L137.8 141.94 L143.69 142.89 L146.21 141.96 L152.02 138.41 L153.09 137.58 L156.01 139.05 L158.72 139 L161.04 137.6 L162.78 134.99 L163.16 133.66 L163.45 130.51 L162.84 128.95 L163.25 128.22 L165.27 128.26 L166.45 129.1 L166.9 131.86 L168.03 132.57 L169.98 133.12 L170.06 134.01 L169.77 135.03 L170.56 136.05 L173.27 136.43 L176.73 135.79 L180 134.48 L182.13 132.88 L182.83 131.05 L183.53 125.13 L183.56 122.66 L181.5 106.44 L181.95 100.71 L183.12 95.14 L182.94 92.53 L181.46 90.26 L180.18 89.62 L175.43 88.87 L173.24 87.92 L171.64 86.81 L168.69 83.53 L167.94 82.2 L167.6 81.14 L166.97 80.33 L163.29 79.03 L161.94 78.07 L159.3 75.51 L156.73 73.93 L154 73.03 L150.47 72.53 L149.43 72.02 L149.99 70.51 L150.01 67.56 L150.35 66.14 L153.29 62.77 L161.48 58.94 L164.74 56.24 L167.3 54.7 L170.99 53.81 L173.27 54.48 L171.54 57.61 L180.66 57.49 L184.58 56.03 L186.84 52.52 L187.38 48.89 L188.46 46.21 L188.59 44.61 L188.17 40.62 L188.31 38.85 L188.59 37.71 L190.96 32.02 L191.46 29.65 L191.1 27.29 L189.58 24.49 L182.79 15.92 L181.5 12.16 L181.27 9.09 L182.36 0 L225.97 1.61 L232.03 3.27 L232.45 3.38 L233.07 3.65 L234.23 4.48 L234.88 4.72 L235.67 4.66 L236.04 4.33 L236.35 3.93 L237 3.71 L241.04 2.86 L242.22 2.77 L243.36 3.08 L245.02 4.17 L246.19 4.36 L247.36 4.18 L249.65 3.53 L250.66 3.46 L251.41 3.82 L252.7 5.21 L253.31 5.53 L253.85 5.43 L255.56 4.92 L256.76 4.93 L257.72 4.78 L258.6 4.87 L259.67 5.6 L260.94 4.07 L263.36 5.33 L265.83 5.25 L268.16 4.86 L270.22 5.18 L271.95 7.06 L272.53 9.66 L272.38 12.44 L271.87 14.81 L269.86 19.51 L269.38 21.78 L269.98 24.47 L271.53 26.69 L273.52 27.78 L275.86 28.01 L278.47 27.72 L280.87 28.66 L283.08 28.5 L284.63 27.15 L285.08 24.49 L287.33 18.99 L292.23 18.93 L297.5 21.68 L300.85 24.64 L300.79 25.18 L300.58 26.11 L300.86 27.28 L302.28 28.59 L303.57 29.09 L307.56 29.38 L309.71 30.42 L310.29 31.78 L311.09 32.91 L313.87 33.28 L322.57 32.78 L325.34 33.11 L327.97 34.2 L330.19 36 L333.98 40.24 L334.7 41.56 L334.81 42.52 L335.3 43.05 L337.22 43.11 L337.39 43.06 L338.4 42.76 L342.34 40.59 L344.97 39.56 L347.24 39.1 L349.57 39.2 L352.4 39.9 L358.25 42.01 L360.66 43.76 L364.49 49.66 L366.67 50.78 L389.43 44.82 L394.42 42.03 L398.89 37.93 L401.3 36.74 L404.65 36.63 L412.78 39.35 L415.65 39.63 L417.44 39.27 L422.56 36.45 L424.05 35.4 L424.64 35.17 L425.57 35.16 L425.84 35.31 L426.02 35.54 L434.17 38.98 L436.94 39.59 L447.97 40.05 L453.06 39.2 L463.43 35.32 L469.03 34.27 L480.64 33.38 L485.19 33.85 L494.04 37.06 L497.76 37.21 L497.73 39.9 L495.17 40.24 L491.93 40.1 L489.83 41.26 L489.26 44.36 L490.14 49.82 L490.19 53 L487.67 58.45 L483.84 62.46 L481.67 66.5 L484.12 72.07 L486.65 74.36 L494.91 78.04 L497.31 80 L502.76 87.35 L505 89.31 L507.64 91.08 L510.39 92.49 L513.05 93.43 L515.67 93.44 L520.01 91.63 L522.21 91.51 L524.35 90.93 L526.34 88.85 L527.79 86.21 L528.63 82.23 L529.53 81.77 L530.67 81.71 L531.74 81.19 L533.66 78.13 L534.28 77.38 L534.4 77.24 L538.75 74.09 L540.3 72.31 L542.05 66.39 L543.06 65 L544.89 64.62 L548.03 64.73 L553.89 62.78 L556.57 62.66 L559.86 63.56 L562.27 65.33 L567.69 73.83 L570.82 76.18 L573.98 77.69 L576.41 79.69 L577.27 83.53 L576.91 84.75 L575.59 87.19 L575.4 88.31 L576.02 89.77 L579.63 93.44 L585.11 103.95 L589.02 108.02 L594.6 107.79 L596.61 106.84 L597.95 105.54 L599.43 103.19 L600.63 100.65 L601.13 98.75 L602.17 97.37 L604.62 95.69 L607.41 94.25 L609.49 93.58 L608.55 90.54 L610.04 88.87 L612.74 87.58 L615.48 85.62 L615.51 84.63 L615.13 83.17 L615.18 81.84 L616.44 81.26 L616.91 80.74 L615.81 77.97 L615.95 76.64 L618.39 75.76 L624.83 76.28 L626.14 74.28 L627.09 73.15 L631.72 69.26 L633.5 68.08 L634.38 68.82 L635.27 69.27 L637.27 69.96 L637.18 67.98 L637.94 67.44 L639.17 67.35 L640.44 66.66 L641.02 65.38 L641.29 65.07 L642.25 65.77 L642.64 66.57 L642.99 66.58 L643.8 64.95 L648.93 62.89 L650 63.44 L650.66 64.35 L651.51 65.2 L655.95 66.09 L660.68 68.35 L663.31 68.86 L666.6 68.72 L667.57 68.86 L668.89 69.46 L670.73 71.05 L671.8 71.73 L672.73 72.02 L673.18 72.16 L675.43 72.26 L676.8 72.58 L678.43 73.43 L681.18 75.59 L682.82 76.39 L685.39 77.18 L690.09 79.68 L692.79 80.13 L695.26 80.84 L699.9 84.57 L702.33 85.74 L703.63 85.77 L706.39 85.33 L707.33 85.32 L708.76 85.9 L710.95 87.62 L712.32 88.46 L714.75 89.24 L722.25 89.41 L725.51 85.89 L727.19 83.52 L727.84 81.78 L727.55 78.93 L727.74 76.58 L728.7 74.45 L730.74 72.27 L735.03 69.46 L750.2 64.37 L752.86 61.94 L755.06 60.4 L760.55 57.79 L762.89 57.47 L771.16 58.91 L774.3 55.71 L774.97 53.93 L774.55 50.65 L776.32 50.14 L777.53 47.95 L778.12 45.34 L778.03 43.58 L777.27 42.9 L775 42.4 L773.99 41.81 L773.34 40.49 L773.27 39.27 L772.91 38.24 L769.2 36.22 L766.76 33.88 L764.81 31.52 L764.09 30.11 L766.04 27.64 L772.41 26.07 L774.66 24.46 L775.59 24.29 L776.37 24.42 L778.16 25.47 L780.06 26.19 L781.1 25.59 L782.11 24.72 L783.87 24.61 L794.16 26.81 L799.85 28.71 L815.96 37.1 L820.54 39.47 L822.95 42.07 L824.46 45.17 L824.68 48.21 L823.46 51.28 L821.69 54.02 L820.26 56.93 L820.03 60.54 L820.48 61.92 L821.79 64.11 L822.24 65.49 L823.23 67.06 L824.87 67 L827.52 65.92 L829.54 67.09 L831.31 69.5 L832.37 72.55 L832.24 75.64 L830.22 81.06 L829.64 84.06 L830.2 86.66 L832.68 88.73 L835.66 88.89 L838.74 88.53 L841.54 89.04 L844 91.17 L844.58 93.51 L844.45 96.11 L844.65 99.06 L845.32 100.57 L846.23 101.88 L846.96 103.23 L847.07 104.87 L840.3 140.02 L842.82 139.85 L845.09 140.88 L847.31 142.23 L849.74 143.05 L852.52 142.65 L854.7 141.64 L856.57 141.19 L858.41 142.48 L861.4 152.4 L861.85 154.87 L862.97 157.65 L864.46 160.26 L865.97 162.25 L873.33 165.59 L876.96 165.84 L880.42 163.11 L881.17 164.83 L881.79 167.76 L882.31 170.27 L883.39 172.29 L884.98 172.9 L888.7 173.01 L896.84 175.5 L900.9 177.45 L903.91 179.96 L901.48 180.6 L898.68 181.91 L897.07 183.69 L898.16 185.75 L900.64 186.21 L903.11 185.81 L904.49 186.43 L903.72 189.99 L902.15 191.81 L899.68 192.65 L896.96 192.8 L894.57 192.52 L889.36 191.33 L888.1 192.31 L886.68 195.39 L886.79 195.9 L887.2 196.58 L887.5 197.41 L887.27 198.4 L886.81 198.72 L885.48 198.84 L885 199.01 L883.85 199.74 L881.09 200.94 L880.12 201.53 L878.48 203.9 L877.71 208.8 L876.57 210.96 L875.38 211.59 L872.65 211.64 L871.55 212.06 L870.31 213.71 L870.26 215.06 L870.6 216.38 L870.51 217.94 L869.08 220.68 L862.87 227.01 L861.67 228.75 L860.56 231.02 L860.04 233.43 L860.65 235.59 L862.71 237.02 L864.83 236.38 L867.16 235.17 L869.82 234.89 L872.09 235.26 L874.52 235.32 L876.91 235.04 L879.08 234.37 L881.5 232.7 L882.84 230.6 L886.33 223.22 L888.58 223.23 L891.28 224.1 L894.02 224 L895.44 223.64 L896.66 223.84 L899.17 224.72 L900.49 224.52 L903.1 223.07 L904.72 223.03 L907.68 224.55 L910.48 227.2 L912.56 230.36 L913.37 233.46 L913.57 247.65 L913.27 250.2 L912.47 251.44 L911.51 252.5 L908.69 260.14 L908.41 262.97 L911.96 264.36 L912.56 266.81 L914.66 293.94 L916.16 297.53 L920.28 303.21 L923.65 309.57 L926.11 310.85 L929.02 310.91 L932.13 310.3 L934.2 309.42 L935.35 308.72 L936.24 309.04 L937.59 311.18 L938.04 312.85 L938.2 316.48 L938.93 318.23 L941.54 320.08 L945.05 320.75 L952.38 321.09 L955 322.61 L956.99 325.52 L958.38 328.98 L959.27 332.11 L959.54 335.63 L958.81 338.81 L955.89 345.39 L954.52 346.93 L953.52 348.63 L952.84 350.47 L952.38 352.46 L949.8 355.82 L946.7 357.56 L939.84 360.15 L937.31 362.49 L934.58 366.19 L933.14 369.63 L934.43 371.14 L936.13 371.75 L935.62 373.08 L933.96 374.41 L931.07 375.52 L930.95 376.73 L931.38 378.13 L931.87 379.24 L932.32 379.52 L933.07 379.56 L933.85 379.76 L934.34 380.52 L934.65 382.9 L934.86 383.65 L934.64 383.97 L933.99 384.15 L933.6 384.64 L934.15 385.88 L934.7 386.08 L937.23 385.87 L937.85 388.8 L932.89 424.36 L932.72 425.61 L932.79 428.62 L933.25 431.73 L933.9 434.16 L934.91 436.34 L942.75 447.51 L945.01 449.95 L947.21 451.11 L950.15 451.71 L953.17 451.86 L955.64 451.62 L958.4 450.58 L963.53 447.67 L966.38 447.07 L971.94 447.08 L972.65 448.26 L969.09 459.15 L968.66 462.3 L963.85 474.16 L963.99 479.13 L970.85 481.86 L972.52 481.57 L973.88 481 L975 481.23 L976.85 484.72 L978.31 486.22 L981.32 488.57 L986.93 491.72 L988.63 493.8 L988.44 493.95 L986.28 495.56 L983.07 496.04 L980.41 496.04 L977.81 496.35 L965.72 502.55 L963.69 504.71 L963.68 504.72 L962.37 508.03 L961.72 511.25 L961.15 517.95 L958.69 529.77 L960.04 533.98 L966.21 535.86 L969.2 536.2 L977.28 538.66 L977.88 538.59 L979.29 537.86 L980.09 537.88 L980.96 538.47 L982.04 540.19 L982.68 540.94 L985.23 543.18 L986.16 544.33 L989.38 550.22 L990.65 551.7 L994.41 554.23 L995.37 555.41 L996.07 557.96 L995.75 563.19 L996.06 566.07 L997.74 571.73 L997.73 574.1 L996.76 577.53 L996.34 580.79 L997.2 583.7 L1000 589.48 L992.14 590.34 L988.42 589.83 L985.37 587.89 L981.13 579.35 L978.25 575.45 L975.29 575.93 L974.8 577.99 L975.15 580.24 L974.91 582.15 L972.62 583.21 L970.36 583.13 L968.17 582.47 L966.24 581.4 L964.77 580.09 L963.72 578.28 L963 576.32 L962.06 574.52 L960.39 573.2 L958.47 572.84 L956.4 573.12 L952.38 574.17 L951.14 573.98 L948.77 574.18 L947.67 574.11 L946.79 573.68 L945.32 572.37 L944.17 571.98 L941.44 572.2 L936.96 573.98 L934.21 574.27 L929.38 573.29 L927.5 573.54 L920.95 578.76 L920.21 579.72 L920.22 581.35 L920.93 582.82 L921.87 584.32 L922.57 586.04 L922.78 588.85 L921.12 596.61 L921.12 599.16 L921.43 601.71 L921.04 603.28 L918.84 605.61 L918.65 607.04 L929.84 614.43 L942.97 618.47 L944.26 618.29 L952.38 615.49 L954.05 615.47 L954.17 616.8 L953.39 618.69 L952.38 620.36 L951.57 624.5 L951.63 626.56 L952.38 628.49 L954.9 630 L957.14 632.5 L958.78 635.49 L959.13 636.87 L959.54 638.47 L957.15 638.28 L955.51 637.24 L954.21 636.12 L952.88 635.69 L947.24 636.62 L945.19 636.55 L945.44 637.71 L945.21 641 L943.84 646.29 L937.13 656.51 L936.81 661.98 L937.82 663.39 L940.83 666.01 L941.52 667.49 L941.25 668.85 L940.49 669.61 L939.61 670.14 L938.98 670.89 L938.46 673.08 L937.97 677.61 L937.33 679.58 L933 684.57 L932.91 685.13 L933.28 686.47 L933.2 687.03 L932.65 687.59 L931.12 688.45 L930.52 688.99 L927.83 692.43 L927.19 693.98 L927.13 695.01 L927.57 697.21 L927.51 698.17 L923.63 702.53 L918.73 700.38 L913.63 696.41 L909.1 695.25 L904.32 696.68 L901.81 696.88 L898.59 693.2 L895.19 694.97 L889.06 700.67 L885 698.06 L880.66 694.85 L878.13 691.77 L877.29 688.05 L878.02 682.95 L861.95 682.12 L860.89 684.83 L857.36 689.14 L856.43 691.96 L856.1 696.66 L855.9 697.43 L855.11 698.84 L854.86 699.62 L855.02 700.46 L855.56 700.71 L856.16 700.88 L856.53 701.5 L856.67 704.67 L856.15 707.37 L854.81 709.83 L852.53 712.3 L848.77 714.57 L847.96 715.24 L847.48 716.5 L847.28 719.28 L846.77 720.48 L845.63 721.53 L843.42 722.17 L842.16 722.98 L839.7 726.02 L838.49 727.9 L837.85 729.36 L838.13 731.67 L839.13 734.12 L839.74 736.7 L838.87 739.4 L837.38 740.27 L831.54 742.51 L829.76 742.72 L827.2 738.63 L825.47 737.57 L824.75 740.77 L823.33 740.13 L822.71 740.33 L822.26 742.45 L821.66 742.52 L818.68 743.41 L817.59 744.04 L815.28 743.85 L813.42 744.88 L811.72 746.42 L809.85 747.78 L808.06 748.34 L806.16 748.67 L805.4 748.92 L804.35 749.27 L802.8 750.65 L804.06 745.97 L803.58 744.17 L800.95 742.82 L799.9 741.98 L799.83 739.62 L799.07 739.07 L796.06 739.19 L795.24 739.04 L791.9 735.96 L790.07 727.45 L788.12 724.68 L786.04 724.45 L781.45 725.67 L779.33 725.32 L778.52 724.39 L777.59 721.69 L776.65 720.52 L775.52 719.82 L774.55 719.47 L772.63 719.21 L770.38 719.28 L769.14 719.52 L768.58 719.99 L768.29 721.47 L767.61 721.92 L766.83 722.16 L764.8 725.13 L763.26 723.81 L760.65 719.21 L759.15 721.45 L755.22 725.28 L754.11 725.84 L754.05 725.79 L753.56 725.4 L755.04 724.13 L755.88 722.75 L756.23 721.14 L756.32 719.29 L756.86 717.6 L758.14 716.29 L760.92 714.18 L763.98 709.6 L765.12 706.7 L764.61 704.82 L767.02 701.99 L767.99 700.45 L768.65 696.82 L769.43 694.77 L770.58 693.01 L772.05 691.9 L769.2 688.57 L768.99 684 L770.32 679.15 L771.79 675.65 L768.35 671.23 L767.18 668.91 L763.67 664.42 L760.57 658.74 L759.26 653.07 L759.59 647.33 L761.33 641.42 L761.51 641 L762.48 639.74 L762.78 638.38 L762.53 636.97 L761.84 635.51 L760.27 633.65 L758.84 633.49 L757.4 634.61 L755.78 636.61 L755.98 635.04 L757.45 632.58 L757.73 631.17 L755.27 621.3 L755.26 619.73 L754.81 618.11 L753.48 617.39 L750.2 616.72 L748.24 615.28 L748.01 611.62 L748.88 607.74 L750.2 605.59 L750.85 604.99 L751.07 604.37 L750.86 603.76 L750.2 603.17 L749.44 601.8 L748.92 600.3 L748.24 598.87 L747 597.69 L748.47 596.18 L749.3 595.5 L750.2 595 L750.76 594.76 L752.42 593.76 L751.72 593.39 L750.76 592.35 L748.39 590.65 L741.63 587.79 L739.9 585.36 L738.81 584.57 L737.84 585.66 L737.19 586.56 L736.19 587.05 L735.04 587.2 L733.96 587.07 L731.63 587.13 L729.61 587.59 L728.41 587.21 L728.59 584.74 L729.86 583.01 L731.63 581.77 L732.75 580.14 L732.01 577.22 L730.27 575.45 L727.57 574.19 L724.91 574.16 L723.26 576.06 L722.92 578.88 L722.9 580.84 L722.37 581.2 L720.51 579.18 L719.11 576.78 L718.49 574.35 L717.62 567.97 L716.85 565.62 L715.43 563.84 L713.14 563.51 L713.21 565.19 L712.57 566.36 L711.6 567.36 L710.68 568.55 L710.68 569.64 L711.13 570.69 L710.95 571.58 L707.61 572.56 L705.17 573.83 L703.96 574.19 L703.31 573.31 L702.68 572.69 L702.06 572.38 L700.15 572.89 L699.48 572.98 L696.86 573.02 L694.59 573.32 L692.44 574.02 L690.15 575.21 L684.88 579.34 L679.47 582.56 L676.6 583.03 L674.8 582.43 L674.21 580.61 L675.57 574.22 L674.65 572.22 L672.63 571.05 L664.96 569.12 L662.69 569.07 L660.4 569.76 L655.84 574.26 L653.58 575.56 L652.52 573.28 L649.75 574.35 L648.34 574.59 L646.87 574.52 L645.32 574.74 L644.17 574.35 L643.09 573.74 L639.41 572.63 L638.5 572.56 L634.4 573.14 L632.37 573.91 L630.67 575.02 L629.1 576.49 L627.79 578.35 L624.53 585.02 L622.88 587.13 L614.91 594.94 L610.18 598.07 L607.72 599.06 L606.29 598.74 L602.43 596.24 L600.43 595.39 L595.97 595.15 L592.15 596.4 L589.49 599.25 L588.51 603.82 L585.8 601.41 L587.18 596.97 L590.28 592.38 L592.74 589.48 L594.72 586.18 L596.66 574.4 L598.12 574.22 L598.5 573.14 L598.48 571.52 L598.8 569.72 L599.74 568.07 L601.81 566.09 L603.96 562.12 L606.1 559.23 L608.69 557.05 L611.42 556.51 L614.53 556.27 L617.07 554.49 L618.91 551.84 L619.96 548.92 L614.18 541.13 L613.44 539.82 L611.4 538.34 L605.88 530.97 L605.5 530.62 L604.54 529.99 L604.08 529.43 L604.01 528.93 L604.15 527.48 L604.12 526.88 L602.89 523.03 L602.67 521.66 L602.43 511.72 L603.07 506.99 L605.14 498.91 L605.09 498.55 L604.96 497.74 L604.83 496.85 L603.23 495.53 L600.08 494.63 L594.72 494.08 L589.15 494.28 L584.31 492.8 L583.35 487.84 L584.82 481.95 L587.22 477.68 L588.53 476.75 L590.05 476.07 L591.47 475.18 L592.55 473.59 L592.72 472.33 L592.18 470.01 L592.16 468.84 L592.78 467.13 L593.56 465.61 L594.08 464.1 L593.91 462.39 L588.16 457.36 L586.75 456.69 L584.95 455.48 L583.35 454.05 L581.73 451.64 L580.48 451.35 L579.04 451.36 L577.72 451.18 L576.85 451.35 L574.46 451.25 L572.79 450.69 L574.09 449.49 L575.53 448.49 L575.27 447.72 L573.15 446.34 L571.15 444.12 L569.68 442.07 L569.11 439.64 L569.84 436.24 L569.99 434.3 L568.96 433.42 L567.56 432.75 L566.6 431.49 L565.91 427.73 L565.44 426.6 L564.13 425.25 L560.67 422.84 L559.68 421.5 L558.77 417.92 L558.19 416.86 L557.31 416.15 L555.11 415.34 L554.36 414.87 L553.54 413.56 L551.96 408.92 L548.75 402.76 L544.06 396.69 L538.53 391.35 L528.51 384.98 L527.52 383.38 L525.68 374.36 L524.7 371.32 L523.21 370.01 L521.34 369.84 L516.78 368.47 L513.36 368.11 L484.76 368.27 L427.44 368.59 L426.78 376.94 L425.86 378.21 L400.52 383.76 L396.27 384.69 L393.98 384.59 L391.75 384.1 L389.22 383.16 L386.02 381.17 L383.56 378.96 L381.14 377.36 L378.02 377.25 L357.76 381.58 L351.65 383.82 L346.8 386.67 L345.99 387.91 L345.9 388.76 L346.07 389.69 L346.09 391.13 L344.25 401.28 L344.33 401.69 L344.84 403.22 L344.89 403.9 L344.48 404.22 L343.78 404.12 L343.11 404.12 L342.85 404.79 L342.87 406.46 L342.7 406.98 L342.26 407.06 L338.07 409.63 L336.84 410.88 L334.63 414.78 L334.23 415.21 L334.07 421 L333.52 422.19 L332.44 422.27 L331.13 422.11 L329.88 422.57 L329.25 423.73 L328.07 428.21 L327.71 428.83 L327.42 429.19 L326.99 429.43 L326.23 429.66 L325.19 430.16 L325.11 430.73 L325.37 431.34 L325.34 432.03 L320.75 446.85 L320.13 447.71 L319.19 448.5 L318.75 449.01 L318.4 449.84 L317.87 450.7 L317.21 450.56 L316.52 450.09 L315.95 449.99 L313.67 451.28 L312.91 451.96 L311.83 453.4 L311.86 454.48 L312.4 455.72 L312.32 456.77 L310.46 457.29 L308.12 458.48 L304.9 463.85 L302.65 465.74 L299.82 466.21 L297.23 466.03 L294.59 466.21 L291.64 467.78 L289.02 465.04 L286.2 467.04 L284.06 471.26 L283.44 475.18 L284.04 476.55 L285.89 478.83 L286.03 479.96 L285.54 480.12 L283.43 480.32 L282.66 480.72 L281.36 482.57 L280.25 484.56 L278.47 488.85 L276.63 491.14 L274.19 492.7 L268.99 495.23 L264.9 498.24 L262.86 498.58 L259.79 497.51 L254.67 494.28 L252.55 493.77 L249.03 494.4 L243.14 496.24 Z "/>
</g>
</svg>
