<svg xmlns="http://www.w3.org/2000/svg" viewBox="0 0 1000 583.4">
<g fill="#ccc" stroke="#333" stroke-width="0.5" stroke-linejoin="round">
<path fill-rule="evenodd" d="M977.97 2.02 L975.36 24 L975.9 31.44 L979.02 40.51 L995.44 61.24 L999.12 68.02 L1000 73.73 L998.79 79.46 L993.05 93.2 L992.36 95.98 L992.03 100.26 L993.05 109.9 L992.73 113.78 L990.12 120.24 L988.81 129.04 L983.34 137.52 L973.88 141.05 L951.81 141.33 L956 133.78 L950.48 132.16 L941.56 134.31 L935.37 138.04 L927.49 144.55 L907.68 153.83 L900.57 161.96 L899.75 165.39 L899.71 172.52 L898.36 176.19 L900.86 177.42 L909.4 178.62 L916 180.8 L922.23 184.64 L928.59 190.82 L931.87 193.15 L940.77 196.28 L942.3 198.25 L943.12 200.8 L944.93 204.02 L952.07 211.96 L955.93 214.63 L961.23 216.94 L972.71 218.75 L975.81 220.3 L979.39 225.79 L979.83 232.09 L976.98 245.58 L975.9 259.42 L980.88 298.66 L980.81 304.63 L979.12 318.95 L977.44 323.37 L972.27 327.24 L964.37 330.4 L956 331.95 L949.46 331.02 L947.53 328.56 L948.23 326.09 L948.03 323.95 L943.33 322.61 L940.59 320.89 L939.51 314.23 L936.65 312.18 L931.76 312.1 L930.78 313.87 L932.26 317.64 L931.56 325.26 L930.63 328.46 L926.43 334.77 L920.81 338.16 L914.26 338.28 L907.19 334.74 L904.61 336.73 L890.56 345.33 L884.47 347.57 L870.22 345.26 L865.07 345.37 L855.28 347.09 L850.75 347.28 L845.42 346.02 L842.3 344.15 L839.5 341.67 L836.64 339.64 L833.34 339.04 L825.83 340.05 L798.54 338.26 L796.67 337.23 L794.97 337.01 L791.48 338.9 L788.93 341.77 L785.16 349.77 L782.97 353.07 L778.82 356.39 L748.49 373.04 L719.59 388.91 L706.12 391.33 L679.02 388.18 L665.53 389.63 L657.61 394 L651.77 400.51 L619.42 448.14 L614.52 460.63 L608.04 486.74 L576.77 547.5 L565.84 560.58 L565.84 560.64 L556.59 570.17 L543.93 579.16 L535.66 583.4 L531.89 582.83 L532.79 578.46 L535.06 576.21 L537.94 574.73 L540.79 572.65 L545.6 565.16 L547.67 563.36 L547.67 561.1 L545.24 561.1 L543.88 564.22 L542.21 566.89 L539.85 568.96 L536.34 570.17 L532.51 570.34 L528.93 569.53 L526.26 567.62 L525.23 564.59 L531.04 540.22 L533 536.16 L536.45 534.32 L538.49 530 L540.06 525.08 L542 521.32 L543.89 520.38 L547.96 520.63 L549.7 520.08 L549.93 518.81 L549.45 514.39 L549.7 513.26 L563.24 512.13 L562.63 509.36 L560.96 507.1 L558.81 505.4 L556.59 504.21 L560.92 499.56 L563.51 493.28 L563.14 487.36 L558.6 483.79 L555.66 492.44 L550.8 498.72 L544.29 502.62 L536.34 504.21 L538.16 509.53 L536.74 512.8 L533.51 513.49 L529.89 510.99 L529.17 512.72 L528.28 514.05 L527.62 515.54 L527.46 517.81 L526.16 516.97 L522.8 515.54 L522.66 521.93 L520.77 524.94 L517.43 527.03 L512.97 530.49 L509.23 535.31 L504.43 544.68 L495.98 556.19 L492.4 559.65 L488.41 561.1 L484.2 559.23 L479.18 554.85 L475.44 549.92 L475.05 546.35 L478.63 543.74 L488.38 538.84 L491.84 536.16 L493.5 532.32 L496.08 517.81 L492.57 489.81 L496.08 481.71 L488.74 482.84 L486.83 487.77 L487.9 494.17 L489.6 499.87 L490.05 504.91 L489.7 512.94 L487.31 518.67 L478.89 515.32 L467.35 515.54 L463.91 514.51 L461.43 513.09 L459.61 511.75 L458.26 510.99 L450.66 512.1 L446.65 511.47 L444.89 507.72 L444 504.07 L441.67 501.65 L438.43 500.29 L434.77 499.87 L429.93 496.39 L428.77 488.35 L429.12 472.44 L429.93 468.86 L429.76 466.61 L428 465.63 L425.95 465.59 L424.9 465.22 L424.52 464.18 L424.45 462.12 L424.83 458.57 L426.51 454.2 L426.89 450.68 L428.5 447.6 L436.76 436.45 L440.23 433.65 L442.34 434.12 L448.91 437.22 L452.68 437.96 L455.95 436.94 L460.55 432.42 L463.82 431.37 L467.13 429.51 L471.01 425.06 L474.38 419.81 L476.05 415.48 L458.11 430.06 L451.57 433.65 L446.57 430.66 L445.53 426.75 L447.13 416.61 L449.07 413.36 L452.89 409.25 L455.51 405.62 L453.8 403.92 L448.23 405.39 L443.97 409.57 L441.22 415.23 L440.23 421.05 L438.19 424.88 L433.5 427.3 L428.19 429.17 L424.45 431.37 L421.4 436.61 L419.75 441.03 L416.92 444.05 L410.2 445.19 L405.93 446.55 L402.3 448.43 L399.57 447.51 L398.13 440.45 L399.13 436.91 L404.02 424.89 L405.64 422.28 L406.62 420.01 L415.75 406.38 L410.05 406.14 L408.03 403.85 L408.16 399.99 L409.08 395.04 L411.64 396.64 L414.53 396.83 L417.47 395.49 L420.42 392.56 L420.66 394.69 L422.45 399.59 L423.89 395.2 L426.31 391.44 L429.01 390.63 L431.32 395.04 L433.75 395.04 L433.44 391.75 L432.59 388.74 L431.12 385.98 L429.12 383.47 L430.66 383.21 L430.9 382.9 L430.8 382.33 L431.32 381.2 L434.32 382.5 L437.87 383.21 L442.46 383.47 L447.91 384.86 L449.7 383.79 L447.13 378.93 L448.22 376.39 L449.35 372.11 L451.57 372.11 L454.2 375.75 L458.75 375.14 L462.52 375.28 L462.7 381.2 L468.94 378.96 L468.77 374.45 L464.94 369.33 L460.26 365.31 L458.9 366.18 L457.72 366.58 L453.8 367.59 L453.8 365.31 L460.9 362.83 L464.27 360.95 L467.35 358.28 L469.76 362.43 L473.86 367.21 L479.18 369.82 L485.16 367.59 L481.19 366.98 L480.9 364.74 L481.59 361.6 L480.7 358.28 L478.12 356.98 L475.37 357.02 L473.05 356.05 L471.79 351.66 L475.52 352.91 L482.61 354.42 L485.16 356.01 L489.6 353.73 L488.9 355.91 L488.02 360.65 L487.19 362.83 L495.25 368.59 L497.69 368.1 L500.74 362.83 L499.07 359.91 L494.91 354.32 L494.07 352.69 L494.96 350.42 L497.22 347.82 L500.04 345.68 L502.75 344.65 L503.45 345.38 L505.93 346.95 L509.37 348.49 L512.97 349.18 L515.04 350.33 L516.2 353.21 L516.63 356.9 L516.5 360.56 L522.8 358.28 L522.17 357.16 L521.41 354.8 L520.77 353.73 L525.65 354.02 L529.02 355.85 L531.64 358.92 L534.12 362.83 L521.25 365.36 L516.5 365.31 L518.01 367.1 L518.76 368.36 L519.98 369.21 L522.8 369.83 L521.41 375.09 L523.24 378.06 L526.03 377.78 L529.17 368.94 L533 368.56 L536.85 369.35 L538.56 368.72 L548.92 368.1 L551.93 367.59 L555.68 365.69 L558.28 363.52 L559.97 360.48 L561.04 356.01 L556.96 357.35 L554.01 358.97 L550.66 360.23 L539.79 361.41 L537.37 360.6 L536.34 357.15 L537.01 355.64 L538.68 354.55 L540.88 353.9 L543.22 353.73 L541.94 350.73 L541.86 348.94 L543.22 344.65 L539.51 343.78 L536.57 345.53 L534.67 349.1 L534.12 353.73 L529.65 348.61 L526.82 347.06 L522.8 347.11 L522.8 344.65 L525.12 343.35 L529.89 337.82 L529.89 335.55 L527.46 331.02 L525.23 331.02 L520.77 342.37 L516.87 343.32 L511.97 340.5 L507.4 340.1 L510.8 335 L515.41 332.76 L519.37 330.13 L520.77 323.99 L518.03 326.88 L514.96 328.46 L511.98 328.38 L509.43 326.27 L507.4 326.27 L507.11 329.69 L506.13 331.81 L504.1 332.93 L500.74 333.27 L501.71 338.13 L499.31 339.45 L495.98 337.69 L494.07 333.27 L489.1 340.42 L486.39 338.53 L488.01 332.86 L496.08 328.75 L493.2 326.63 L492 323.92 L492.34 320.81 L494.07 317.37 L496.08 317.37 L497.49 318.29 L498.75 318.7 L502.75 319.44 L501.31 314.85 L498.41 311.81 L491.84 308.29 L489.6 308.29 L488.7 313.71 L486.47 318.04 L484.72 322.61 L485.16 328.75 L481.78 330.13 L478.89 334.35 L476.05 335.55 L474.06 334.43 L474.93 331.35 L478.28 326.27 L474.46 324.57 L473.78 320.48 L476.05 310.54 L472.86 312.46 L470.82 315.28 L469.71 318.83 L469.36 322.95 L468.05 323.22 L461.24 323.11 L458.26 323.99 L462.7 326.27 L462.7 328.75 L466.44 331.37 L470.21 333.7 L471.79 336.68 L470.52 341.14 L467.61 342.24 L464.53 340.85 L462.7 337.82 L461.14 340.45 L459.89 343.24 L458.94 346.14 L458.26 349.18 L455.78 336.33 L453.76 331.83 L452.15 332.36 L449.35 333.27 L451.57 337.82 L447.13 337.82 L448.4 346.58 L449.97 350.33 L453.8 353.73 L451.57 358.28 L446.68 354.78 L442.3 350.04 L435.78 340.1 L434.77 345.97 L437.05 351.5 L440.35 357 L442.46 362.83 L440.92 362.12 L435.78 360.56 L434.32 365.04 L431.56 365.09 L429.25 361.71 L429.12 356.01 L426.89 356.01 L425.51 359.05 L424.6 362.44 L424.21 366.08 L424.45 369.83 L421.57 368.4 L420.42 367.59 L420.42 374.19 L417.02 371.97 L415.75 369.01 L414.85 365.47 L412.42 361.7 L410.59 358 L411.98 355.4 L415.75 352.69 L417.35 347.65 L420.7 342.51 L423.76 336.47 L424.45 328.75 L413.85 338.96 L408.22 341.83 L402.41 337.82 L403.97 334.95 L403.92 327.93 L404.42 323.99 L400.15 323.79 L397.52 325.13 L395.61 327.08 L393.49 328.75 L393.41 329.83 L390.93 332.77 L388.03 334.56 L386.63 332.16 L385.51 326.59 L383.73 321.19 L383.69 315.61 L389.73 306.56 L392.36 299.19 L394.61 295.78 L406.85 283.26 L410.44 280.78 L412.46 280.03 L413.34 278.87 L413.53 275.12 L414.33 271.81 L416.24 268.91 L420.42 264.89 L422.45 264.89 L423.34 267.04 L424.34 267.98 L425.51 268.56 L426.89 269.62 L428.14 266.53 L429.76 265.31 L431.67 265.62 L433.75 264.89 L441.27 265.12 L454.35 268.72 L461.48 269.62 L501.75 269.62 L503.45 268.48 L508.91 263.52 L510.67 262.38 L519.22 260.32 L524.63 255.55 L528.93 250.29 L534.12 246.67 L541.6 246.67 L542.94 251.71 L540.71 258.47 L537.45 263.63 L535.02 269.91 L535.26 278.22 L537.45 286.39 L540.79 292.14 L547.09 295.01 L555.35 296.39 L562.59 298.83 L565.7 304.77 L569.16 308.62 L576.75 310.35 L584.32 309 L587.74 303.52 L579.27 306.45 L573.38 301.19 L568.88 293.68 L564.46 289.89 L554.83 288.71 L551.93 287.82 L548.2 285.53 L546.32 283.18 L544.73 280.58 L542 277.4 L540.54 273.11 L543.48 269.11 L547.59 265.25 L549.7 261.35 L555.68 245.08 L555.91 243.02 L557.34 242.12 L562.16 241.91 L565.46 240.97 L565.38 238.82 L563.38 236.51 L561.04 235.1 L561.07 233.94 L557.7 232.88 L554 232.66 L550.82 234.06 L548.23 234.56 L541.01 231.6 L537.45 230.74 L532.83 232.15 L522.76 238.25 L517.54 239.66 L514.72 241.87 L505.45 252.24 L500.74 255.57 L493.32 256.83 L487.15 255.63 L474.03 251.22 L461.38 249.11 L457.34 247.17 L452.68 243.05 L446.56 238.98 L439.24 237.31 L431.6 237.64 L424.45 239.66 L422.05 241.22 L416.72 245.73 L414.63 246.67 L407.61 246.3 L403.98 246.52 L401.29 247.71 L391.08 258.05 L389.12 259.23 L384.41 261.16 L382.38 262.38 L372.75 276.27 L370.04 278.51 L363.52 280.35 L349.03 289.12 L342.81 291.76 L341.91 292.14 L320.82 296.03 L317.64 297.94 L314.52 300.78 L298.97 308.94 L292.74 310.54 L299.41 283.51 L305.42 272.29 L313.34 271.8 L315.17 273.02 L317.65 273.83 L320.65 274.16 L324.1 273.98 L324.1 271.7 L317.95 271.32 L310.35 264.8 L304.09 264.89 L298.87 268.8 L297.49 274.52 L296.85 280.82 L286.29 301.56 L282.94 303.52 L276.56 301.88 L275.23 297.64 L277.37 285.34 L271.91 287.94 L270.62 293.36 L270.46 299.94 L268.25 306.01 L266.26 307.08 L259.05 309.7 L256.02 311.7 L252.74 314.56 L250.83 315.05 L249.53 313.55 L248.23 310.54 L247.38 303.91 L249.26 297.25 L254.92 285.34 L259.62 266.84 L261.6 262.38 L262.92 261.06 L264.96 259.64 L267.3 258.53 L269.49 258.05 L270.76 256.85 L272.91 248.74 L281.35 235.97 L284.04 233.01 L288.65 230.23 L295.55 227.43 L302.82 225.6 L308.52 225.77 L310.27 227.73 L311.51 230.87 L313.22 233.8 L316.4 235.1 L322.87 235.48 L325.71 236.24 L328.55 237.57 L329.59 232.85 L331.96 228.04 L333.19 223.96 L330.78 221.45 L328.9 222.71 L325.82 225.77 L321.3 228.4 L315.21 228.28 L313.27 226.94 L311.04 223.07 L308.52 221.45 L305.66 220.59 L304.31 220.7 L302.9 221.16 L290.56 222.1 L286.36 220.89 L284.04 216.89 L281.82 216.89 L279.5 222.38 L273.45 225.85 L265.97 227.7 L259.37 228.28 L260.18 230.65 L260.67 231.66 L261.6 233.01 L260.48 233.33 L259.71 233.28 L259.3 233.64 L259.37 235.1 L256.75 233.66 L254.92 232.17 L255 233.72 L256.08 238.22 L255.47 242.36 L252.68 246.67 L247.92 251.05 L243.45 252.94 L219.31 253.3 L216.15 254.38 L209.65 257.4 L207.05 258.05 L205.33 259.15 L203.26 261.59 L200.53 263.95 L196.84 264.89 L193.68 263.75 L190.82 261.32 L185.7 255.57 L177.74 257.4 L167.3 255.44 L158.23 251.56 L154.37 247.71 L147.68 233.01 L144.55 231.2 L135.83 229.84 L132.09 228.28 L129.3 225.18 L127.27 221.05 L126.04 216.31 L124.9 206.11 L121.69 197.6 L120.98 193 L129.86 173.66 L133.28 169.48 L137.05 166.3 L141.05 163.9 L145.26 162.04 L145.43 166.01 L147.01 168.95 L149.48 169.6 L152.33 166.6 L152.65 163.83 L149.75 158.89 L149.89 155.23 L153.55 149.98 L159.11 146.54 L165.15 143.97 L189.07 129.79 L194.43 125.4 L196.95 122.27 L200.61 116.6 L203.51 114.02 L206.46 112.69 L213.62 110.92 L216.87 109.66 L208.2 109.33 L202.4 111.78 L197.93 116.27 L193.41 122.08 L186.8 126.67 L170.05 130.19 L163.26 132.46 L152.02 139.72 L148.8 142.58 L137.76 155.23 L131.65 152.65 L132.13 146.46 L134.55 138.97 L134.31 132.46 L132.64 137.4 L128.47 143.99 L126.49 156.15 L123.29 160.97 L118.36 162.6 L112.07 159.76 L109.84 162.04 L108.9 160.6 L105.19 157.48 L104.52 161.91 L101.95 163.89 L97.91 164.38 L92.96 164.32 L92.18 165.57 L90.25 167.96 L88.28 169.4 L87.39 167.85 L86.83 166.52 L85.45 165.41 L83.62 164.62 L77.33 163.45 L74.26 161.17 L72.4 157.88 L71.8 154.09 L69.77 152.35 L61.97 143.42 L61.77 141.35 L59.51 140.11 L52.62 134.25 L49.56 132.46 L48.02 132.79 L43.11 134.67 L40.64 134.52 L38.73 132.92 L35.71 127.7 L33.96 125.4 L21.82 115.89 L18.18 114.02 L13.32 114.02 L9.63 115.59 L6.26 117.55 L2.41 118.78 L0 115.83 L7.44 110.66 L19.42 107.76 L63.6 110.73 L69.61 110.48 L86.63 106.23 L103.05 106.09 L112.92 102.05 L139.03 87.91 L161.54 75.66 L164.96 74.94 L168.45 75.58 L175.49 78.37 L178.16 78.84 L179.7 78.21 L181.11 77.11 L183.32 76.14 L207.95 71.85 L219.52 72.88 L239.9 79.73 L246.17 80.89 L272.04 79.04 L275.28 79.23 L331.49 82.56 L342.73 80.2 L425.01 41.55 L425.95 40.86 L443.26 28.09 L463.08 18.96 L482.02 5.28 L490.47 1.42 L499.82 0 L515.76 0.07 L605.1 0.44 L631.32 0.55 L746.85 1.05 L777.56 1.18 L862.43 1.54 Z M254.92 492.85 L261.25 497.64 L266.24 504.13 L269.53 512.12 L271.73 526.54 L274.02 529.7 L276.32 532.08 L277.37 534.92 L275.7 539.24 L271.8 541.33 L267.35 541.65 L264.04 540.7 L261.45 542.3 L258.03 542.12 L249.43 540.7 L248.68 541.46 L246.65 542.84 L244.56 543.41 L243.58 541.81 L243.5 539.14 L243.64 537.38 L244.66 536.45 L247.12 536.16 L250.51 535.27 L259.66 530.97 L261.6 529.35 L260.11 525.62 L256.44 524.38 L253.13 526.19 L252.68 531.62 L250.31 529.39 L248.23 526.88 L251.12 521.94 L252.62 518.04 L252.97 514.06 L252.68 508.95 L250.93 501.48 L251.42 497.18 Z M246 506.48 L246.69 516.24 L245.77 520.78 L242.58 525.74 L235.66 534.19 L231.88 536.57 L230.24 532.65 L229.13 527.4 L227.23 523.31 L226.87 519.02 L230.24 513.26 L222.79 513.29 L219.15 510.02 L218.87 505.04 L221.51 499.87 L226.19 496.09 L243.58 490.58 L244.91 493.34 L245.63 497.8 Z M221.51 520.08 L216.87 520.08 L216.87 522.56 L220.07 528.97 L218.78 535.03 L217.16 539.97 L219.31 542.95 L212.63 547.38 L206.86 547.64 L201.09 547.23 L194.43 549.76 L193.33 546.87 L192.93 544.15 L193.29 541.38 L194.43 538.23 L192.37 538.23 L188.14 545.24 L190.18 549.76 L186.08 548.51 L185.01 547.6 L183.5 545.24 L176.02 546.22 L167.98 540.92 L160.94 532.59 L156.6 524.61 L160.86 520.23 L166.19 516.33 L171.72 514.32 L176.6 515.54 L172.14 517.43 L170.13 517.81 L170.42 519.27 L170.76 520.31 L171.35 521.28 L172.36 522.56 L175.26 519.66 L178.96 517.97 L182.12 515.44 L184.69 504.17 L187.44 502.18 L190.42 500.99 L192.37 497.39 L194.04 499.12 L199.07 501.94 L199.93 493.78 L204.87 490.21 L211.38 490.86 L216.87 495.32 L218.99 497.85 L218.04 499.74 L215.99 501.94 L214.83 505.32 L215.38 510.25 L216.82 513.33 Z M284.04 458.81 L292.49 458.71 L294.22 462.14 L290.74 474.49 L290.4 488.28 L287.49 492.61 L279.4 492.85 L271.33 486.89 L271.2 476.74 L276.32 466.15 Z M348.79 458.81 L347.78 464.82 L349.43 475.76 L348.79 481.71 L347.16 483.01 L345.17 479.26 L342.15 474.95 L337.47 474.49 L337.47 476.97 L339.91 476.97 L339.91 479.25 L337.44 483.72 L335.69 486.01 L333.22 488.12 L331.4 485.49 L330.52 484.65 L326.51 486.03 L328.29 489.56 L328.62 494.39 L327.9 499.58 L326.51 504.21 L325.85 502.79 L324.8 501.21 L324.1 499.87 L322.13 500.04 L321.38 500.27 L320.83 500.27 L319.64 499.87 L317.64 499.87 L314.44 503.6 L311.35 501.88 L309.16 497.39 L308.52 492.85 L310.79 490.7 L314.53 488.12 L315.85 485.67 L310.75 483.79 L310.75 481.71 L317.64 474.49 L317.94 473.05 L317.32 469.1 L317.64 467.7 L319.19 467.32 L321.38 467.72 L323.29 467.83 L324.1 466.67 L327.57 460.03 L335.4 457.77 L343.74 458.04 Z M181.07 486.03 L159.7 487.86 L155.48 487.06 L146.76 482.84 L145.26 482.75 L145.64 478.77 L146.86 475.51 L149.06 473.27 L152.33 472.44 L151.88 466.8 L156.39 461.56 L162.7 458.34 L167.7 458.81 L170.13 456.33 L173.07 460.23 L176.76 460.61 L181 459.99 L185.7 460.88 L187.12 463.29 L188.06 467.61 L188.43 471.97 L188.14 474.49 L184.29 476.09 L181.11 478.12 L179.65 481.25 Z M346.56 395.04 L347.24 395.8 L347.84 396.7 L348.93 397.29 L351.02 397.11 L350.78 398.67 L350.42 399.67 L348.79 401.86 L350.68 404.49 L349.07 407.17 L341.91 413.01 L340.32 409.9 L339.91 408.65 L337.47 408.65 L333.72 412.25 L328.45 412.25 L323.8 409.87 L322.08 406.38 L323.68 403.36 L326.35 403.04 L329.08 403.78 L330.78 403.92 L333.22 401.43 L335.08 398.72 L336.46 395.77 L337.47 392.56 L339.91 395.04 L341.59 393.62 L346.56 390.29 L348.2 391.63 L348.26 392.58 Z M154.37 410.74 L147.53 410.82 L143.63 410.25 L138.97 408.65 L142.91 405.97 L148.84 402.88 L154.21 398.94 L156.6 393.79 L160.3 390.53 L168.67 388.08 L177.77 387.04 L183.5 388.01 L185.09 391.34 L183.94 394.5 L174.27 404.82 L172.36 406.38 L171.24 407.84 L170.45 409.74 L169.45 411.6 L167.7 413.01 L164.93 413.12 Z M147.63 394.69 L145.62 395.47 L142.27 395.49 L138.97 397.11 L137.47 397.64 L136.41 398.96 L135.15 399.67 L133.2 398.34 L128.96 393.47 L127.66 392.56 L126.91 392.76 L109.84 392.56 L106.9 395.2 L104.29 396.77 L100.73 397.11 L101.74 394.84 L103.16 392.56 L101.09 388.41 L101.53 387.46 L103.16 385.74 L99.91 383.89 L98.5 383.47 L110.6 377.33 L124.05 377.05 L136.41 375.41 L145.26 365.31 L146.78 365.77 L147.07 365.96 L147.05 366.37 L147.68 367.59 L150.11 367.61 L152.54 367.26 L154.73 366.5 L156.6 365.31 L157.79 366.29 L158.38 367.3 L158.8 369.83 L157.74 375.84 L155.25 380.77 L149.89 388.01 L148.6 390.92 L148.28 392.89 Z M230.24 389.15 L231.22 383.63 L233.74 376.47 L237.02 370.23 L240.35 367.59 L245.63 365.43 L253.01 357.67 L257.14 358.28 L257.54 363.56 L259.98 367.02 L262.74 367.23 L264.04 362.83 L268.07 367.1 L267.02 375.99 L270.69 378.93 L266.66 385.64 L265.67 393.74 L267.18 401.89 L270.69 408.65 L264.25 410.96 L255.8 415.77 L248.64 417.57 L246 410.74 L243.58 410.74 L243.15 412.29 L242.19 413.93 L241.55 415.48 L240.52 414.24 L238.14 411.98 L237.1 410.74 L235.19 414.37 L232.28 417.04 L229.02 418.83 L225.97 419.81 L222.85 415.46 L211.63 407.5 L210.2 403.92 L221.51 397.11 L228.89 389.11 Z M409.08 349.18 L408.93 353.73 L405.35 357.57 L404.42 361.7 L406.29 365.39 L409.36 368.76 L409.67 371.19 L403.43 372.11 L399.33 371.51 L396.5 369.41 L393.49 369.83 L393 370.75 L386.63 376.66 L385 377.05 L377.72 376.66 L377.72 378.93 L384.66 381.5 L383.41 386.7 L378.82 389.71 L375.72 385.74 L372.03 386.75 L367.61 386.29 L363.91 385.25 L362.32 384.6 L360.76 385.73 L357.97 383.55 L357.1 380.47 L361.13 378.93 L365.43 376.52 L368.41 371.51 L372.51 367.4 L380.15 367.59 L380.79 362.52 L384.05 358.85 L388.08 355.59 L391.08 351.66 L396.58 353.12 L401.5 351.63 L405.69 349.58 Z M183.5 269.62 L189.19 267.61 L195.49 267.83 L207.05 269.62 L211.39 268.95 L216.25 267.23 L225.97 262.38 L224.72 261.05 L224.76 260.82 L225.4 260.29 L230.09 260.16 L234.38 259.94 L239.13 260.33 L241.51 263.22 L242.15 264.22 L241.01 272.86 L238.45 276.94 L235.2 280.68 L232.65 285.34 L229.79 298.26 L227.87 303.6 L223.95 308.29 L220.61 305.93 L216.79 306.43 L213.14 307.86 L210.2 308.29 L206.07 305.69 L197.96 293.41 L194.16 291.52 L190.18 291.52 L187 290.76 L185.7 286.58 L185.57 277.33 L184.93 272.98 Z "/>
</g>
</svg>
