<svg xmlns="http://www.w3.org/2000/svg" viewBox="0 0 1000 1506.46">
<g fill="#ccc" stroke="#333" stroke-width="0.5" stroke-linejoin="round">
<path fill-rule="evenodd" d="M1000 1352.63 L990.5 1356.21 L984.31 1359.75 L981.07 1359.99 L977.97 1358.46 L975.05 1356.09 L971.84 1354.06 L967.91 1353.6 L964.48 1354.98 L961.78 1357.06 L958.87 1358.64 L954.77 1358.49 L950.69 1357.81 L947.95 1358.46 L939.2 1365.36 L936.74 1366.49 L933.94 1366.48 L919.47 1364.02 L916.81 1363.1 L913.53 1360.44 L912.18 1358.49 L910.46 1357.42 L906.06 1357.38 L899.28 1358.13 L895.95 1358.08 L892.3 1357.32 L886.95 1354.51 L883.18 1351.31 L880.77 1347.12 L879.5 1341.32 L873.31 1336.37 L863.46 1340.29 L846.06 1351.22 L841.94 1350.47 L834.58 1345.86 L829.58 1345.4 L825.09 1347.08 L822.1 1349.85 L819.54 1353.03 L816.33 1355.97 L812.05 1358.19 L809.21 1359.23 L807.18 1361.04 L802.14 1374.57 L800 1378.25 L786.47 1395.39 L780.39 1399.99 L770.89 1402.4 L764.64 1402.59 L747.44 1399.44 L740.18 1399.07 L733.68 1400.81 L717.26 1408.07 L710.36 1412.28 L706.93 1413.52 L703.51 1413.35 L697.38 1410.87 L694.16 1410.42 L692.94 1411.91 L693.19 1415.12 L694.38 1421.33 L693.76 1424.85 L692.41 1428.58 L688.84 1435.16 L685.57 1439.09 L677.04 1440.69 L667.42 1440.37 L660.87 1438.64 L659.46 1436.95 L657.97 1432.51 L656.39 1430.55 L653 1428.76 L650.87 1429.11 L649 1430.32 L646.41 1431.11 L642.56 1430.98 L638.09 1430.24 L633.73 1428.97 L630.23 1427.22 L628.78 1425.67 L626.78 1422.39 L625.9 1421.92 L623.57 1423.51 L622.19 1426.2 L621.06 1429.19 L619.61 1431.67 L617.8 1432.88 L613.15 1434.95 L611.7 1436.26 L611.41 1438.28 L612.59 1442.58 L612.49 1444.52 L606.98 1448.21 L604.34 1448.67 L589.6 1451.2 L589.02 1451.93 L586.6 1454.96 L587.95 1459.17 L591.8 1467.17 L593.09 1471.41 L593.22 1476.33 L591.89 1479.88 L585.52 1489.89 L583.85 1489.97 L582.24 1489.02 L580.61 1488.44 L580.68 1488.04 L579.87 1487.21 L578.73 1486.36 L577.78 1485.89 L576.88 1486.25 L574.28 1488.24 L572.99 1488.77 L552.22 1486.8 L549.14 1487.08 L546.81 1488.87 L541.17 1497 L537.94 1500.53 L534.05 1503.32 L529.16 1505.24 L525.09 1506.17 L521.42 1506.46 L517.75 1505.87 L513.66 1504.14 L508.42 1499.95 L506.68 1495.74 L505.6 1491.32 L502.4 1486.44 L498.63 1483.43 L494.46 1481.16 L493.33 1480.72 L485.39 1477.62 L451.43 1471.6 L438.38 1467.39 L434.76 1465.43 L432.21 1462.03 L427.86 1452.27 L426.16 1450.06 L422.47 1447.91 L421.57 1444.4 L421.12 1440.58 L418.76 1437.51 L416.9 1437.22 L412.76 1438.37 L410.29 1437.77 L409.54 1436.84 L408.09 1433.64 L407.35 1432.46 L406.31 1431.93 L403.79 1431.68 L402.83 1431.27 L400.99 1429.1 L397 1421.96 L395.12 1419.86 L388.76 1414.82 L385.34 1410.43 L379.66 1401.19 L375.44 1397.64 L371.12 1396.28 L367.48 1396.74 L363.95 1397.74 L359.83 1397.98 L357.5 1397.38 L355.43 1396.32 L353.57 1394.88 L349.12 1390.13 L348.78 1388.46 L352.04 1384.08 L356.31 1375.82 L356.11 1373.32 L355.57 1373.04 L354.28 1373.37 L351.73 1372.76 L344.08 1369.77 L341.71 1369.64 L337.59 1371.12 L335.11 1371.01 L333.26 1368.81 L332.29 1364.65 L331.97 1360.16 L332.09 1356.92 L332.83 1354.6 L335.38 1350.67 L336.3 1348.51 L336.51 1346.65 L335.99 1341.32 L336.36 1339.59 L337.53 1336.22 L337.67 1334.55 L337 1332.31 L334.75 1328.07 L334.44 1325.38 L335.08 1323.24 L337.37 1319.65 L338.02 1317.63 L337.92 1315.55 L336.07 1309.49 L335.91 1301.89 L337.03 1294.02 L336.73 1287.03 L332.35 1282.11 L330.52 1281.62 L326.53 1281.52 L324.63 1281.14 L322.1 1279.83 L315.87 1274.48 L307.77 1270.29 L303.89 1267.52 L301.79 1263.63 L302.12 1261.78 L304.22 1258.38 L304.16 1256.12 L303.7 1253.96 L303.49 1249.55 L303.15 1247.33 L297.23 1234.07 L296.49 1230.17 L296.54 1227.64 L296.24 1226.1 L294.55 1222.67 L293.72 1221.84 L291.09 1220.87 L290.08 1220.08 L290.23 1219.43 L291.23 1216.92 L291.29 1215.83 L284.9 1203.34 L284.16 1199.41 L285.46 1166.16 L289.68 1149.45 L290.2 1145.14 L289.47 1133.49 L290.44 1128.38 L292.44 1123.54 L297.88 1114.66 L298.96 1113.79 L300.3 1113.29 L301.5 1112.64 L302.16 1111.32 L301.94 1109.9 L300.42 1107.74 L300.14 1106.5 L300.79 1105.94 L303.36 1105.54 L303.87 1104.75 L303.42 1103.41 L301.69 1101.5 L301.1 1100.17 L301.13 1097.52 L302.18 1095.95 L303.66 1094.65 L305.01 1092.79 L307.78 1083.58 L308.67 1081.54 L313.94 1072.82 L316.08 1065.96 L316.74 1065.79 L318.02 1065.7 L319.42 1065.36 L320.44 1064.42 L320.6 1063.01 L319.36 1060.32 L319.08 1058.95 L319.98 1049.11 L316.46 1050.39 L317.03 1046.8 L320.53 1038.37 L318.86 1033.2 L315.18 1028.98 L312.05 1024.51 L312.08 1018.53 L317.21 1012.91 L333.92 1007.03 L341.63 999.87 L346.22 997.87 L348.02 996.41 L349.26 994.07 L349.38 992.3 L349.13 990.51 L349.26 988.07 L350.96 982.95 L353.54 980.36 L361.84 976.64 L365.85 973.53 L366.5 970.65 L365.62 967.27 L365.05 962.67 L366.31 958.55 L369.27 953.8 L373.06 949.92 L376.84 948.39 L378.85 948.1 L379.96 947.12 L380.28 945.57 L379.89 943.55 L378.42 941.87 L376.01 941 L369.55 939.94 L367.6 940.03 L366.32 939.22 L366.51 933.98 L365.62 932.77 L364.4 931.78 L361.53 926.56 L354.64 920.14 L352.7 916.97 L353.34 912.19 L355.6 908.8 L356.17 905.9 L351.86 902.52 L343.12 899.69 L339.78 897.24 L337.39 891.87 L336.99 889.66 L336.97 887.88 L337.5 884.28 L337.99 883.09 L339.8 880.67 L340.24 879.37 L339.82 878.02 L337.75 875.69 L337.39 874.77 L339.56 870.96 L346.52 863.73 L347.79 858.88 L347.84 857.45 L347.92 855.47 L347.16 854.8 L344.82 854.56 L342.47 853.8 L340.67 852.1 L339.13 850.09 L337.5 848.45 L325.63 841.79 L322.91 838.21 L321.27 840.03 L319.53 840.49 L315.18 839.34 L314.22 839.23 L312.01 839.25 L311.11 838.98 L310.29 837.71 L310.86 835.12 L310.03 834.35 L307.41 834.34 L303.45 836.27 L301.56 836.46 L300.47 835.47 L297.55 831.58 L295.71 830.43 L293.72 830.02 L291.37 829.9 L289.36 830.47 L288.47 832.16 L287.32 833.51 L284.79 833.11 L279.97 831.45 L276 832.05 L272.87 832.94 L270.7 832.38 L269.62 828.66 L268.54 827.15 L266.32 826.01 L264.12 825.92 L263.05 827.55 L262.57 829.88 L261.39 830.78 L259.58 830.74 L257.15 830.23 L253.91 828.57 L251.63 825.55 L250.64 821.79 L251.31 817.92 L256.75 812.13 L258.5 811.84 L262.58 811.76 L264.43 811.11 L266.34 809.28 L267.03 807.36 L267.25 805.28 L267.77 802.99 L268.79 800.55 L274.61 792.08 L276.35 788.76 L277.58 785.21 L278.06 781.34 L277.16 772.47 L280.02 763.39 L280.53 751.15 L281.94 745.13 L283.45 741.43 L284.14 737.65 L284.33 729.78 L287.94 717.41 L287.62 711.59 L281.94 708.71 L272.97 703.59 L268.77 700.38 L266.13 697.4 L265.62 696.82 L259.15 681.78 L257.38 679.42 L248.26 682.74 L245.33 680.13 L243.43 675.32 L240.76 674.55 L232.25 676.75 L228.49 678.61 L220.28 686.87 L216.41 689.56 L211.95 689.68 L203.01 686.59 L198.77 686.81 L197.22 688.13 L194.83 692.09 L192.83 693.55 L191.33 693.46 L189.95 692.37 L188.55 690.97 L187.03 689.94 L182.97 689.12 L171.49 690.73 L168.55 690.39 L166.29 689.34 L164.2 688.04 L161.74 686.94 L159.34 686.46 L147.26 685.63 L142.74 685.85 L133.65 687.85 L117.97 670.9 L102.56 653.84 L87.13 636.78 L71.71 619.7 L56.3 602.63 L40.87 585.55 L25.46 568.48 L10.04 551.39 L3.48 544.11 L0 535.87 L2.12 533.62 L8.94 529.81 L11.93 527.44 L21.47 512.22 L24.04 505.7 L25.91 502.8 L28.61 501.33 L35.36 500.07 L38.7 499 L41.15 497.55 L43.13 494.86 L45.32 489.61 L47.93 487.31 L50.74 486.87 L53.72 487.18 L55.98 486.54 L56.64 483.28 L56.7 480.49 L57.75 472.73 L57.36 470.71 L56.72 470.05 L56.03 469.59 L55.46 468.21 L54.45 466.76 L50.87 464.53 L49.8 462.65 L48.27 456.94 L47.98 454.67 L49.22 444.8 L50.21 441.96 L52.01 439.5 L52.44 437.79 L52.52 436.1 L52.28 434.42 L51.7 432.75 L49.49 429.69 L47.55 423.57 L45.95 420.5 L42.85 417.62 L40.01 416.03 L38.06 414 L37.59 409.81 L39.05 402.77 L42.02 395.18 L45.99 387.88 L52.37 380.52 L54.3 378.18 L58.14 377.43 L62.6 377.85 L66.39 379 L68.26 375.27 L72.56 375.9 L76.92 377.24 L80.67 374.39 L89.95 375.54 L94.18 374.93 L95.29 374.08 L100.81 368.23 L101.17 367.38 L101.25 365.7 L100.8 363.81 L98.79 360.94 L98.34 358.64 L99.52 357.82 L102.17 358.04 L106.68 359.28 L108.04 360.26 L109.5 361.67 L111.31 363 L113.75 363.74 L115.65 363.58 L120.34 362.48 L122.73 362.21 L126.89 363.31 L134.34 368.16 L137.37 369.2 L141.68 367.69 L144.98 364.21 L150.75 355.91 L154.05 353.21 L157.89 351.54 L172.53 348.01 L198.53 331.8 L203.98 330.52 L207.4 332.55 L209.29 322.39 L210.99 318.95 L214.07 316.34 L217.53 314.1 L220.41 311.7 L222.41 308.85 L224 305.45 L224.85 301.85 L224.7 298.37 L223.15 295.14 L220.53 292.77 L213.46 288.81 L213.32 288.65 L210.91 285.97 L208.49 284.63 L205.81 284.42 L202.49 284.92 L199.58 284.82 L197.35 283.69 L195.24 282.28 L192.72 281.33 L187.47 281.3 L183.14 282.92 L179.83 286.08 L175.35 294.17 L172.68 294.22 L158.51 282.97 L156.32 280.76 L153.34 274.66 L153.24 268.55 L155.77 263.01 L160.73 258.55 L161.65 257.09 L162.11 255.58 L162.13 253.95 L161.74 252.25 L159.95 249.48 L157.62 243.76 L156.2 241.13 L154.76 240.01 L152.91 239.27 L151.27 238.24 L150.45 236.25 L150.52 234.52 L150.74 233.23 L150.65 232.01 L149.77 230.51 L147.01 228.59 L144.17 227.94 L141.62 226.94 L136.91 218.26 L135.71 215.28 L135.53 212.18 L138.4 206.81 L147.63 203.84 L150.78 199.91 L153.66 194.64 L155.65 191.83 L156.98 190.83 L159.93 191.37 L161.85 189.93 L162.62 187.29 L162.13 184.24 L165.25 178.7 L165.27 176.48 L164.6 172.58 L164.75 170.78 L165.75 168.89 L170.33 163.4 L174.34 155.79 L177.21 153.07 L181.78 151.53 L199.03 151.84 L207.93 150.97 L212.88 147.23 L214.51 142.51 L219 138.41 L228.86 131.63 L229.65 130.91 L232.64 128.18 L234.74 124.88 L237.15 122.1 L246.93 118.29 L250.46 115.34 L253.7 111.96 L257.89 108.81 L262.23 107.42 L270.34 108.21 L274.72 107.97 L278.16 105.93 L280.22 102.34 L281.94 94.09 L284.32 91.02 L284.58 88.62 L284.07 86.26 L284.04 83.3 L285.54 80.1 L290.76 76.01 L292.92 73.6 L296.44 71.89 L306.61 69.54 L310.79 69.28 L315.01 67.92 L318.91 64.36 L321.48 59.81 L321.7 55.58 L313.56 42.35 L292.38 18.48 L279.91 0 L283.96 1.88 L290.66 6.26 L297.92 13.63 L309.55 31.43 L317.18 38.82 L322.96 41.82 L332.9 44.54 L338.01 47.12 L349.17 55.29 L355.02 58.48 L361.05 59.75 L362.9 62.91 L363.28 63.32 L363.56 64.97 L364.36 65.34 L365.62 65.21 L377.07 67.57 L378.56 69.01 L381.23 72.29 L399.39 87.95 L394.71 80.37 L387.6 73.36 L379.08 67.69 L363.81 61.41 L345.08 48.39 L332.75 41.67 L331.07 39.39 L328.57 33.7 L329.04 31.04 L333.86 30.27 L337.21 31.76 L344.41 37.53 L352.7 40.02 L356.74 42.79 L363.28 48.39 L376.67 56.41 L395.25 64.87 L416.86 80.45 L454.04 102.66 L466.32 111.93 L469.3 114.73 L472.3 118.68 L483.28 128.91 L511.09 160.19 L521.54 168.48 L527.48 177.12 L532.69 184.07 L537.68 194.39 L541.03 199.27 L541.78 197.97 L539.75 192.9 L540.14 190.66 L542.94 190.86 L547.98 192.57 L552.27 196.15 L556.18 199.91 L559.52 204.05 L562.86 209.12 L567.13 216.07 L572.27 222.37 L575.5 226.98 L591.46 242.82 L595.16 249.12 L596.65 255.93 L594.63 262.54 L596.02 261.02 L594.96 269.83 L596.02 296.15 L592.42 317.74 L589.91 321.01 L585.39 324.53 L582.12 327.07 L579.06 330.8 L576.84 334.87 L575.5 339.05 L574.31 346.93 L569.49 359.24 L569.06 363.55 L569.49 377 L569.06 379.11 L567.16 381.65 L566.71 383.93 L566.71 420.41 L565.57 424.82 L564.97 427.13 L551.44 446.46 L552.3 447 L552.83 447.74 L559.09 442.01 L561.16 440.75 L561.78 439.93 L562.33 438.76 L563.15 438.09 L565.9 439.31 L567.64 439.53 L568.59 439.48 L568.62 439.48 L571.01 439.34 L569.49 438.08 L572.86 429.88 L573.66 403 L575.74 394.4 L597.2 356.47 L602.62 349.09 L610.04 343.86 L619 341.61 L627.59 342.06 L635.39 344.44 L647.54 350.86 L651.53 354.6 L652.54 355.18 L653.16 355.92 L654.85 357.34 L655.77 357.79 L656.59 358.19 L657.4 357.28 L658.1 354.89 L659.83 354.34 L677.3 356.49 L689.95 362.63 L693.99 366.02 L700.05 370.59 L707.67 378.09 L713.1 382.16 L724.05 392.63 L730.55 399.22 L732.41 402.29 L736.1 403.89 L740.55 408.53 L752.22 417.97 L758.67 423.23 L762.97 426.94 L765.73 429.87 L768.79 432.97 L772.78 437.29 L776.97 447.34 L783.15 461.88 L785.38 464.74 L786.02 468.73 L786.95 470.36 L788.68 467.85 L789.03 465.98 L789.37 463.71 L789.37 460.26 L791.98 457.4 L794.01 456.21 L794.74 455.37 L795.67 455.26 L799.68 455.58 L803.91 457.13 L807.29 458.68 L811.39 460.73 L817.78 464.5 L820.3 465.9 L827.33 470.63 L835.6 476.7 L852.35 493.76 L856.59 499.94 L860.53 507.32 L862.33 515.65 L862.96 520.71 L863.67 523.14 L864.71 525.23 L865.18 526.98 L865.35 529.24 L862.36 524.95 L860.84 523.57 L864.47 530.89 L865.68 533.79 L865.74 538.2 L866.08 541.53 L866.64 548.85 L863.3 556.01 L862.38 559.79 L860.91 563.32 L859.98 565.72 L859.86 569.93 L857.81 574.86 L857.32 579.67 L862.1 587.54 L861.71 598.58 L859.3 605.01 L856.79 609.13 L854.5 613.74 L844.18 628.65 L844.18 630.06 L842.29 634.32 L841.65 637.57 L841.42 641.95 L840.61 646.73 L838.52 649.99 L828.62 659.97 L826.96 662.16 L826.27 664.4 L827.08 666.3 L828.89 666.3 L831.82 665.1 L833.87 665.6 L835.15 665.54 L835.8 666.11 L836.12 680.38 L836.49 681.99 L837.51 683.11 L839.29 683.62 L841.05 683.38 L842.4 682.51 L842.93 681.15 L840.85 678.68 L839.8 676.7 L840.16 674.74 L841.87 673.74 L844.18 673.62 L846.22 674.25 L847.1 675.5 L847.26 675.91 L848.64 679.38 L855.42 687.64 L856.95 691.73 L855.95 694.58 L853.47 696.95 L850.26 698.8 L847.1 700.11 L845.99 696.05 L844.26 693.93 L841.68 693.13 L838.06 693 L835.77 694.21 L834.44 697.03 L833.08 702.9 L830.05 709.79 L829.42 712.1 L829.17 714.81 L830.08 717.1 L837.51 723.81 L835.47 725 L833.8 724.83 L832.21 724.15 L830.43 723.81 L827.54 724.22 L825.78 724.9 L824.27 725.75 L822.09 726.6 L816.97 727.97 L800.88 729.63 L797.45 730.68 L794.82 730.91 L793.47 730.23 L790.35 727.27 L789.26 726.6 L784.03 726.88 L779.36 727.69 L770.44 730.91 L762.45 727.42 L754.8 727.86 L747.98 731.22 L742.52 736.49 L739.46 742.31 L737.1 744.16 L732.11 744.85 L729.57 744.35 L727.61 743.38 L725.65 742.81 L723.09 743.46 L721.56 744.91 L717.41 751.82 L714.67 755.23 L710.96 759.22 L707.69 763.91 L706.29 770.77 L707.82 773.58 L711.22 775.31 L714.6 777.57 L717.32 785.96 L722.78 792.95 L724.47 796.56 L724.18 800.43 L722.56 803.97 L718.92 809.24 L715.7 819.63 L712.25 825.4 L708.51 834.48 L707 841.24 L705.08 843.91 L702.75 846.51 L700.74 849.65 L699.93 853.38 L700.57 856.59 L701.67 859.7 L702.24 863.07 L701.81 868.21 L700.5 872.24 L698.24 875.7 L680.52 893.85 L677.69 898.18 L677.33 902.41 L679.9 911.19 L682.56 928.54 L684.57 935.74 L689.5 941.95 L702.88 952.52 L706.19 956.4 L716.51 971.54 L720.84 980.82 L721.7 984.73 L722.25 993.99 L723.46 998.29 L725.74 1002.07 L729.13 1004.23 L739.07 1008.36 L746.83 1013.33 L747.57 1014.81 L748.59 1018.38 L750.21 1021.39 L750.39 1022.11 L750.65 1022.82 L751.56 1023.84 L752.55 1024.26 L754.74 1024.55 L755.17 1025.16 L755.96 1025.54 L760.2 1028.01 L763.53 1031.79 L763.23 1035.39 L760.14 1041.4 L760.18 1042.73 L760.62 1045.25 L760.5 1046.62 L759.47 1050.3 L759.34 1051.99 L759.77 1054.13 L760.65 1056.54 L761.33 1057.58 L762.33 1058.43 L764.05 1059.15 L769.8 1060.33 L773.22 1062.25 L773.27 1062.27 L779.58 1065.8 L781.8 1066.42 L783.67 1066.14 L785.66 1062.14 L788.28 1062.65 L790.88 1064.2 L792.04 1065.08 L793.68 1065.15 L795.28 1065.45 L796.49 1066.05 L796.96 1067.11 L797.67 1068.01 L799.19 1067.15 L800.63 1065.77 L801.14 1065.08 L806.89 1063.6 L808.31 1061.81 L808.09 1058.12 L814.51 1060.9 L819.95 1062.58 L825.38 1061.65 L831.82 1056.61 L836.88 1067.02 L837.51 1069.88 L837.03 1076.96 L836.74 1078.23 L835.06 1080.78 L835.51 1082.48 L836.78 1084.15 L837.51 1086.59 L837.24 1089.01 L836.15 1093.2 L835.98 1095.7 L836.45 1097.94 L838.63 1102.65 L838.06 1105.11 L836.75 1106.73 L836.37 1108.07 L838.63 1109.72 L840.67 1110.06 L842.69 1109.41 L844.47 1108.23 L845.85 1106.95 L846.22 1107.56 L846.27 1107.74 L846.4 1107.85 L847.1 1108.22 L843.99 1114.19 L845.85 1117.9 L849.36 1121.14 L851.26 1125.66 L851.48 1127.23 L852.45 1129.81 L852.66 1131.35 L852 1132.18 L849.15 1132.03 L848.49 1132.75 L848.85 1135.21 L849.44 1136.99 L849.57 1138.59 L848.49 1140.47 L846.83 1143.12 L849.43 1144.62 L856.19 1145.33 L857.17 1148.35 L854.95 1151.22 L851.78 1153.74 L849.88 1155.76 L852.58 1166.3 L853.42 1168.41 L855.05 1169.27 L855.7 1171.19 L856.6 1173.09 L859.04 1173.97 L860.94 1173.54 L865.02 1171.63 L867.43 1171.19 L868.85 1172.52 L865.34 1179.86 L866.68 1183.7 L867.36 1183.24 L874.32 1182.19 L876.28 1183.15 L875.82 1185.36 L874.42 1187.94 L873.62 1189.96 L874.69 1192.62 L879.94 1198.18 L881.96 1201.91 L883.18 1209.93 L884.8 1211.13 L889.03 1208.75 L890.4 1211.35 L889.86 1213.74 L888.89 1216.41 L889.03 1219.87 L890.02 1221.71 L895.16 1227.7 L895.53 1229.19 L894.45 1236.05 L895.77 1237.94 L898.64 1236.95 L902.79 1233.9 L904.48 1235.78 L904.21 1238 L903.21 1240.26 L902.79 1242.24 L903.45 1245.03 L904.41 1246.82 L907.78 1249.95 L908.76 1251.93 L908.4 1254.04 L907.09 1256.97 L908.64 1260.66 L915.92 1267.02 L918.19 1271.56 L918.08 1278.9 L918.96 1280.72 L920.84 1281.67 L925.54 1282.54 L927.35 1283.51 L929.93 1287.46 L931.94 1296.44 L933.48 1300.88 L934.96 1306.95 L954.55 1334.71 L960.12 1336.99 L980.07 1337.32 L987.74 1341.32 L988.88 1343.05 L990.32 1344.45 L992.04 1345.48 L996.3 1346.85 L998.09 1348.29 L999.33 1350.27 Z M614.08 325.67 L623.23 327.07 L623.01 327.95 L611.55 336.38 L601.37 339.47 L597.41 343.86 L596.8 340.39 L598.02 335.73 L600.16 331.62 L603.26 329.25 L605.14 326.44 L605.87 325.67 L607.76 325.36 Z "/>
</g>
</svg>
