<svg xmlns="http://www.w3.org/2000/svg" viewBox="0 0 1000 766.19">
<g fill="#ccc" stroke="#333" stroke-width="0.5" stroke-linejoin="round">
<path fill-rule="evenodd" d="M958.48 141.68 L961.58 151.93 L962.83 158.53 L962.48 164.44 L961.91 174.22 L963.52 182.68 L973.33 205.99 L977.52 235.09 L977.28 251.7 L973.27 260.25 L971.33 262.37 L966.89 273.71 L963.56 276.35 L954.09 281.76 L951.79 284.11 L953.53 291.53 L959.78 300.36 L961.26 301.88 L972.84 313.75 L995.57 324.84 L1000 327 L998.4 349.15 L996.61 355.54 L992.19 362.11 L980.29 370.67 L974.98 375.45 L964.48 390.22 L949.27 407.13 L944.66 409.99 L926.66 414.86 L920.6 418.96 L921.63 425.39 L927.93 424.41 L936.65 421.42 L944.86 421.69 L948.07 424.3 L953.04 434.81 L956.25 438.59 L964.28 445.97 L966.89 449.32 L968.83 456.18 L969.19 471.21 L972.02 485.78 L971.5 492.74 L969.77 499.59 L967.38 505.85 L963.17 512.75 L958.26 516.8 L948.85 522.64 L946.43 524.14 L945.53 524.7 L940.75 530.08 L933.53 542.43 L928.96 547.36 L915.38 552.02 L889 547.13 L875.96 549.9 L869.92 554.46 L873.04 560.51 L904.77 593.15 L907.04 596.66 L907.91 602.21 L906.04 604.24 L903.41 605.75 L902.09 609.81 L904.19 616.65 L909.45 619.56 L923.14 623.01 L926.1 625.63 L931.43 633.54 L934.27 636.83 L947.51 645.69 L966.37 652.81 L971.37 656.13 L974.6 659.02 L975.36 660.09 L971.23 667.21 L971.02 667.57 L955.43 694.45 L952.66 701.39 L951.68 708.66 L952.2 712.15 L955.98 722.73 L956.81 726.86 L956.57 733.01 L957.35 743.73 L956.08 750.12 L951.89 761.28 L946.15 757.36 L921.63 725.36 L910.93 715.67 L898.61 707.92 L871.01 698.44 L859.59 692.45 L848.19 688.07 L834.53 688.04 L806.52 692.76 L770.03 692.41 L718.89 693.09 L691.35 698.11 L684.29 694.38 L680.07 692.79 L678.18 694.23 L680.55 708.45 L677.24 712.07 L673.14 712.16 L663.56 708.45 L658.2 707.47 L616.94 711.27 L608.47 710.73 L609.17 712.43 L610.18 716.59 L610.87 718.29 L605.66 717.91 L603.57 717.34 L601.09 715.54 L591.38 721.82 L572.02 719.91 L562.54 723.56 L553.32 718.21 L540.93 713.34 L527.65 709.81 L490.64 705.68 L481.36 706.13 L478.45 705.68 L468.24 699.16 L465.17 698.11 L418.57 690.56 L397.64 692.73 L394.4 691.82 L396.24 687.01 L400.9 685.18 L413.57 685.28 L413.57 682.98 L390.13 680.46 L361.72 680.68 L353.45 682.98 L342.16 689.69 L337.88 690.56 L335.08 689.09 L332.05 682.31 L329.48 680.23 L324.8 683.07 L322.26 690.29 L319.66 695.7 L314.91 693.09 L312.72 693.09 L308.58 695.73 L305.1 693.84 L303.56 689.06 L305.31 682.98 L300.33 684.47 L295.98 694.14 L290.94 698.11 L291.18 693.13 L292.33 688.7 L295.73 680.23 L292.98 682.47 L289.02 687.7 L286.17 690.56 L285.88 689.66 L283.83 688.85 L280.06 688.04 L278.8 688.67 L278.94 690.14 L279.36 691.79 L278.97 693.09 L263.64 705.35 L238.54 717.01 L232.17 723.34 L226.06 733.43 L240.82 749.22 L243.04 754.97 L244.82 762.22 L243.98 765.06 L239.34 766.19 L216.1 766.09 L212.7 765.52 L209.29 763.89 L206.73 761.32 L205.39 755.88 L182.94 723.56 L181.83 722.72 L179.18 721.55 L177.93 720.81 L176.69 719.41 L176.41 718.29 L176.23 717.12 L175.29 715.54 L168.75 709.41 L134.77 684.34 L128.68 681.36 L117.97 679.56 L113.47 677.69 L109.65 674.9 L108.02 671.41 L107.28 667.47 L105.29 666.27 L102.31 666.07 L98.65 665.09 L89.6 661.56 L86.66 659.83 L84.29 662.57 L77.67 660.19 L70.64 663.17 L63.23 667.77 L55.52 670.14 L49.06 668.79 L41.05 665.54 L34.24 661.74 L31.37 658.67 L28.37 654.54 L15.18 647.84 L12.19 641.03 L11.41 633.81 L9.11 628.69 L0 617.15 L12.19 599.25 L11.14 597.78 L9.59 594.2 L16.02 589.62 L20.14 572.48 L25.37 568.69 L26.33 566.76 L25.73 562.42 L24.34 557.79 L22.97 554.91 L22.07 550.98 L24.78 547.54 L36.68 540.58 L52.27 534.25 L58.91 533.08 L67 535.07 L70.59 534.95 L72.07 531.93 L73.81 529.37 L77.71 528.24 L81.84 527.98 L101.54 529.1 L115.5 532.11 L161.42 552.63 L181.62 553.54 L182.35 554.09 L184.63 556.67 L185.11 557.44 L185.91 560.32 L187.87 560.1 L190.31 558.84 L192.51 558.6 L202.7 563.95 L207.23 565.57 L223.01 566.16 L226.75 566.88 L230.86 568.69 L238.41 575.2 L240.64 576.51 L244.25 576.78 L245.99 575.74 L247.16 574.43 L249.03 573.75 L252.53 574.32 L256.87 576.46 L260.01 576.51 L262.15 575.51 L266.64 572.18 L268.09 571.45 L268.52 570.56 L272.98 565.03 L275.33 563.84 L278.12 563.72 L281 563.96 L283.77 563.86 L299.67 559.23 L304.24 558.6 L316.75 561.73 L316.95 568.09 L309.84 572.89 L300.53 571.45 L300.53 573.75 L292.96 571.19 L286.21 570.27 L279.43 571.04 L271.78 573.75 L274.09 575.33 L279.91 578.45 L285.7 579.86 L286.08 582.03 L285.94 584.86 L287.48 587.75 L293.66 590.52 L304.81 588.9 L310.32 591.67 L322.63 584.23 L337.71 582.33 L393.2 586.61 L400.3 588.2 L414.27 595.34 L422.07 596.94 L450.18 595.91 L463.92 597.12 L476.29 601.75 L482.8 605.55 L488.11 607.58 L494.03 607.98 L502.88 606.4 L527.56 601.98 L557.94 609.34 L556.13 615.39 L562.83 614.08 L572.22 610.75 L578.42 610.72 L583.54 612.92 L608.47 617.15 L621.99 614.07 L631.51 605.95 L638.52 594.56 L644.4 581.57 L652.93 570.99 L664.06 568.51 L722.59 573.75 L724.71 572.97 L725.61 571.22 L726.18 569.47 L727.38 568.69 L729.58 569.14 L730.61 570.08 L731.29 571.01 L732.41 571.45 L739.7 579.67 L743.06 581.57 L749.23 579.89 L752.08 573.69 L752.88 565.08 L752.3 542.54 L752.88 538.37 L755.34 533.35 L758.05 530.36 L759.32 527.59 L757.44 523.18 L754.28 520.9 L738.26 513.06 L733.95 512.31 L725.41 512.04 L721.29 510.77 L714.18 504.64 L707.85 496.95 L701.07 491.61 L692.55 492.6 L680.55 485.26 L677.56 481.93 L674.6 474.88 L656.61 446.81 L651.64 441.72 L644.62 435.96 L637.24 431.25 L631.24 429.32 L624.7 425.97 L587.92 386.12 L586.24 376.6 L601.09 370.58 L614.55 369.67 L621.99 367.18 L625.24 361.72 L623.16 354.74 L618.05 351.11 L611.68 348.66 L605.86 345.22 L602.14 340.5 L593.72 325.55 L591.49 319.64 L593.89 317.92 L594.16 317.25 L593.78 316.52 L594.09 314.56 L597.52 311.32 L601.37 302.76 L603.69 299.33 L607.53 297.42 L613.1 296.32 L618.75 296.08 L622.86 296.79 L617.82 286.76 L614.19 284.72 L607.17 284.08 L603 280.89 L601.63 273.62 L602.17 265.91 L603.69 261.25 L605.9 263.56 L608.83 265.57 L612.2 266.65 L615.67 266.1 L619.53 263.29 L619.73 260.56 L618.49 257.49 L617.91 248.94 L617.02 247.32 L617.82 247.62 L622.86 248.53 L624.62 249.65 L627.07 251.75 L630.44 253.53 L634.84 253.62 L628.07 240.08 L624.53 238.08 L606.4 236.93 L601.8 233.57 L598.72 228.6 L594.09 222.91 L587.5 218.14 L565.14 207.88 L546.52 196.31 L539.87 194.7 L534.12 192.01 L521.74 181.41 L519.4 180.85 L515.88 182.43 L494.15 174.37 L490.56 173.96 L483.65 172.23 L480.12 171.87 L479.65 171.82 L477.88 172.67 L476.25 174.49 L473.94 176.32 L470.2 177.14 L464.99 175.85 L457.23 172.61 L449.67 168.39 L444.93 164.21 L437.85 171.14 L422.77 173.12 L389.33 171.43 L382.71 169.68 L378.82 169.3 L376.34 167.68 L370.14 160.69 L366.73 159.12 L361.86 155.81 L359.92 148.38 L359.27 140.57 L358.25 136.2 L370.77 116.01 L372.63 111.79 L376.07 111.7 L394.4 103.12 L394.4 100.34 L375.03 100.34 L380.69 96.04 L387.38 95.33 L394.53 95.92 L401.6 95.47 L444.34 75.73 L456.85 66.59 L463.87 56.8 L468.07 61.92 L472.08 63.28 L482.05 62.13 L487.17 62.89 L496.42 66.26 L501.32 67 L505.5 66.91 L507.83 66.56 L514.84 64.68 L520.02 64 L525.39 64.45 L530.26 66.27 L533.99 69.78 L536.5 64 L543.11 60.4 L551.16 59.61 L557.94 62.13 L567.31 58.26 L578.49 55.32 L590.18 53.84 L601.09 54.47 L636.89 62.89 L645.72 68.38 L653.01 71.88 L673.83 78.37 L675.07 79.92 L682.38 89.05 L691.78 95.44 L701.54 98.97 L706.91 95.47 L713.31 98.9 L723.93 103.02 L733.88 105.57 L738.26 104.27 L740.49 110.16 L757.44 126.03 L757.44 128.36 L755.76 127.6 L750.25 126.03 L754.69 136.89 L756.24 138.52 L762.45 139.92 L763.76 139.43 L762.45 136.2 L767.03 130.88 L765.87 130.82 L763.59 131 L762.45 130.88 L762.53 130.42 L763.26 128.85 L764.12 127.63 L764.63 128.36 L764.63 126.03 L763.82 124.87 L762.45 120.96 L764.63 120.96 L769.84 123.81 L777.01 124.48 L783.41 122.38 L786.2 116.89 L789.73 113.22 L796.65 113.04 L801.37 117.04 L798.38 126.03 L804.34 129.61 L810.07 130.21 L823.95 127.75 L825.15 127.85 L827.12 128.36 L829.55 130 L834.6 135.13 L838 136.2 L850.11 136.2 L852.95 137.01 L854.5 138.75 L855.62 140.5 L858.9 142.1 L863.67 145.59 L866.87 146.39 L869.58 145.12 L871.37 142.35 L873.61 139.65 L877.63 138.52 L884.3 133.4 L894.25 133.47 L911.41 138.52 L920.83 139.83 L923.35 141.71 L921.22 146.39 L918.18 148.38 L914.01 149.08 L904.22 148.94 L907.9 155.77 L913.98 156.48 L920.58 154.63 L925.77 153.78 L932.11 159.13 L936.03 161.59 L937.75 160.4 L939.64 155.3 L938.88 152.63 L931.14 150.6 L928.66 148.31 L927.4 145.03 L927.97 141.3 L930.66 138.98 L934.67 139.25 L943.75 141.3 Z M301.84 740.99 L307.75 741.35 L314.69 742.79 L319.7 745.82 L319.7 751.05 L315.34 753.84 L308.18 754.52 L294.53 753.81 L288.39 752.46 L283.03 749.19 L274.2 740.99 L275.33 737.31 L276.92 735.79 L278.91 736.32 L281.16 738.67 L285.18 735.86 L287.11 736.87 L288.51 739.38 L290.94 740.99 Z M243.04 543.41 L251.39 539.45 L262.87 540.37 L271.65 545.33 L271.78 553.54 L263.7 558.39 L252.5 558.33 L243.76 553.33 Z M574.93 0.47 L585.07 0 L591.84 0.96 L597.89 3.65 L605.86 8.38 L639.07 21.48 L653.18 30.46 L649.2 39.19 L643.51 36.75 L613.78 32.63 L599.99 27.19 L582.94 23.33 L577.13 20.66 L573.11 21.43 L568.94 23 L565.14 23.66 L557.8 22.18 L549.21 19.29 L541.41 15.32 L536.41 10.67 L537.96 10.69 L538.93 10.2 L540.97 8.38 L557.2 2.9 Z M431.75 450.84 L425.2 446.16 L423.35 444.53 L420.78 441.3 L418.46 437.48 L417.37 433.39 L418.57 429.32 L422.91 424.43 L429.05 420.29 L436.2 417.48 L443.74 416.43 L452.05 417.38 L500.78 437.92 L524.82 445.81 L551.55 459.38 L576.5 469.89 L586.7 482.49 L589.35 490.51 L590.61 500.07 L589.61 509.43 L585.5 516.74 L581.76 518.31 L579.27 516.03 L576.13 509.38 L573.13 506.73 L570.45 506.01 L562.54 505.5 L531.27 498.5 L520.59 497.67 L509.37 494.91 L478.45 474.88 L447.21 466.36 L438.82 460.84 Z "/>
</g>
</svg>
