<svg xmlns="http://www.w3.org/2000/svg" viewBox="0 0 1000 667.26">
<g fill="#ccc" stroke="#333" stroke-width="0.5" stroke-linejoin="round">
<path fill-rule="evenodd" d="M866.24 435.26 L912.71 454.09 L959.89 458.8 L1000 452.91 L738.7 534.37 L648.31 630.49 L598.45 652.88 L470.9 667.26 L412.01 657.59 L354.38 611.4 L337.43 588.31 L291.81 513.17 L234.18 371.98 L221.75 326.6 L234.75 297.21 L214.69 280.53 L203.53 259.85 L205.08 238.23 L222.88 218.26 L188.7 195.01 L161.16 183.03 L60.73 173.41 L30.65 154.15 L9.89 117.06 L0 58.87 L57.91 39.4 L105.65 0 L164.69 66.85 L175.56 69.66 L188.42 100.64 L217.09 137.25 L245.48 159.79 L258.47 148.52 L265.82 104.39 L283.9 84.68 L307.06 90.08 L330.65 119.88 L306.92 137.72 L329.1 183.74 L366.24 191.72 L406.5 172.94 L437.29 137.72 L471.47 154.86 L569.63 159.08 L610.17 187.97 L629.1 208.4 L668.08 225.08 L688.28 238 L701.41 257.03 L728.25 306.85 L741.67 316.96 L786.16 371.28 L804.38 401.85 Z "/>
</g>
</svg>
