<svg xmlns="http://www.w3.org/2000/svg" viewBox="0 0 1000 738.14">
<g fill="#ccc" stroke="#333" stroke-width="0.5" stroke-linejoin="round">
<path fill-rule="evenodd" d="M0.35 501.07 L0 495.92 L0.29 493.29 L1.33 491.13 L2.97 490.05 L6.54 489.14 L7.86 487.73 L9.46 484.85 L11.69 482.42 L16.71 478.07 L18.17 476.26 L18.95 474.97 L20.16 474.14 L22.89 473.79 L24.86 474.14 L28.89 475.54 L30.74 475.39 L32.63 473.59 L33.38 470.85 L33.46 467.9 L32.79 459.55 L33.36 458.51 L35.06 456.65 L35.47 455.35 L35.18 452.53 L34.91 452.11 L34.21 451.04 L32.75 449.74 L31 447.47 L27.98 440.14 L26.47 437.63 L23.23 433.72 L21.84 431.58 L21.07 429.27 L21.23 426.15 L22.49 424.2 L26.47 420.75 L28.01 418.55 L29.24 416.79 L31.23 412.08 L31.23 407.7 L28.11 404.76 L30.65 397.1 L32.56 394.11 L34.79 392.27 L35.82 391.43 L40.74 388.92 L57.03 383.45 L62.63 380.79 L82.9 365.01 L96.72 354.26 L110.63 343.43 L124.56 332.58 L138.57 321.66 L143.8 317.52 L154.78 308.85 L162.23 301.51 L167.08 293.12 L167.99 291.89 L171.37 291.82 L173.92 290.87 L176.28 289.56 L179.04 288.38 L180.03 289.62 L181.1 287.4 L180.97 285.59 L181.47 284.09 L183.35 283.39 L184.29 283.79 L191.56 289 L195.49 290.24 L199.72 288.35 L209.02 278.37 L212.97 275.84 L212.11 273.21 L213.72 272.68 L220.03 273.56 L229.39 267.86 L230.55 265.6 L230.89 263.96 L229.99 263.2 L228.2 262.68 L226.74 261.5 L226.08 260.32 L226.65 259.79 L233.43 259.64 L236.12 258.83 L238.75 256.94 L243.49 255.34 L257.28 254.39 L260.16 253.57 L261.09 251.21 L262.37 250.81 L263.36 250.49 L266.22 250.86 L268.92 251.82 L276.05 256.11 L278.78 256.37 L278.78 255.33 L277.14 253.73 L278.79 251.82 L284.36 248.39 L281.29 252.63 L280.19 255.22 L281.58 256.37 L282.46 257.52 L297.46 271.22 L302.31 273.32 L307.45 272.3 L308.35 271.37 L309.98 268.67 L310.74 267.86 L312.3 267.74 L316.46 267.92 L317.32 267.24 L318.26 264.41 L320.66 262.93 L323.86 262.6 L340.43 266.43 L354.88 271.52 L369.75 273.16 L386.84 277.11 L392.56 277.59 L398.67 276.97 L408.52 274.01 L411.36 273.56 L411.81 273.06 L414.48 270.96 L415.1 270.66 L416.01 269.9 L417.97 270.61 L419.89 271.73 L420.68 272.3 L427.49 272.89 L458.82 270.15 L464.15 270.29 L469.07 272.3 L469.4 272.52 L473.12 274.92 L475.63 275.59 L479.53 275.84 L482.7 275.33 L485.37 274.09 L500.62 264.55 L504.59 260.14 L506.41 258.65 L511.96 256.4 L517.54 255.04 L540.47 254.2 L542.49 253.61 L544.11 252.79 L550.35 248.2 L553.73 244.42 L555.18 240.39 L552.61 237.01 L542.45 235.54 L537.6 234.3 L538.37 232.44 L542.56 232.1 L554.96 234.56 L563.55 236.17 L569.57 236.87 L577.13 239.04 L584.67 241.01 L587.26 241.56 L589.05 242.39 L589.47 244.3 L589.44 246.57 L589.86 248.39 L591.05 248.39 L590.97 247.27 L591.29 246.74 L591.78 246.46 L592.15 246.11 L594.8 246.18 L596.22 248.32 L599.07 250.64 L602.46 253.14 L609.58 256.17 L621.69 259.39 L630.06 258.69 L642 257.47 L659.28 256.97 L668.57 253.07 L680.21 244.54 L687.91 239.93 L700.08 239.64 L707.97 242.3 L723.42 249.35 L742.81 255.14 L751.96 258.28 L754.25 260.05 L753.26 262.12 L751.27 265.17 L751.26 267.79 L751.24 271.95 L754.61 275.24 L757.78 275.7 L761.72 274.41 L762.29 271.02 L762.73 269.49 L764.26 269.61 L765.35 271.69 L768.18 273.68 L772.22 273.04 L776.05 273.5 L783.91 274.53 L785.34 272.79 L787.86 271.72 L784.48 270.28 L780.44 269.38 L767.78 267.23 L762.98 265.12 L758.94 263.13 L757.53 260.5 L763.98 261.85 L786.03 266.02 L800.45 267.54 L809.96 268.04 L813.23 269.16 L821.93 276.44 L833.7 286.04 L851.15 300.95 L868.05 315.5 L877.48 323.44 L889.77 330.98 L892.74 332.73 L895.65 334.03 L901.3 334.98 L902.72 335.73 L903.82 337.36 L903.92 338.66 L902.87 339.51 L900.48 339.82 L897.67 338.72 L891.59 333.9 L887.06 332.33 L884.01 330.17 L882.51 329.48 L877.64 329.44 L875.52 328.97 L873.64 327.11 L874.39 326.83 L875.07 326.33 L875.83 326.07 L874.44 324 L869.17 318.02 L868.07 318.02 L866.32 318.89 L864.16 317.61 L861.91 315.7 L859.85 314.72 L856.56 315.13 L855.06 316.17 L853.89 317.61 L851.64 319.15 L850.62 318.46 L846.17 316.88 L848.22 315.05 L849.08 314.04 L849.46 312.95 L848.69 312.57 L846.96 312.28 L845.07 312.21 L843.87 312.45 L843.42 314.24 L844.46 317.1 L846.32 320.16 L848.35 322.57 L847.95 322.93 L847.77 323.05 L847.62 323.24 L847.26 323.81 L846.17 323.81 L841.36 314.43 L839.59 312.45 L837.76 312.13 L835.65 312.53 L832.91 313.47 L831.01 313.33 L828.25 312.67 L826.35 312.45 L827.59 316.23 L828.62 317.52 L831.56 318.56 L831.6 319.95 L831.07 321.82 L830.73 323.81 L831.83 323.81 L832.33 321.26 L835.54 319.74 L836.99 315.13 L838.5 314.63 L840 315.54 L842.17 320.99 L844.77 325.39 L845.72 329.14 L842.28 330.73 L840.58 332.58 L841.81 336.79 L844.53 341.35 L847.26 344.26 L851.4 346.46 L854.82 347.29 L856.35 345.73 L854.82 340.85 L856.98 342.56 L858.88 344.81 L859.64 347.39 L858.32 350.04 L860.51 352.79 L863.61 353.3 L871.45 352.31 L871.45 353.44 L869.9 353.38 L868.86 353.69 L867.08 354.58 L867.08 355.62 L868.41 358.44 L870.38 361.04 L873.01 362.92 L876.38 363.67 L879.3 363.31 L883.04 362.35 L886.63 360.91 L889.07 359.13 L887.04 357.14 L880.22 353.44 L879.07 352.31 L878.53 351.2 L877.88 350.36 L876.38 350.04 L874.66 349.91 L862.4 345.54 L860.4 344.26 L856.68 338.86 L854.82 337.44 L856.24 336.17 L857.82 335.33 L861.4 334.03 L875.72 340.36 L878.03 343.74 L878.94 345.5 L881.14 347.13 L883.86 348.33 L888.43 349.31 L890.33 350.65 L891.97 352.51 L893.36 354.58 L892.29 355.3 L890.99 356.47 L890.07 356.85 L890.07 357.89 L892.71 358.48 L894.94 356.85 L896.67 356.63 L897.85 361.5 L897.49 367.69 L897.85 369.34 L899.03 370.53 L900.24 370.46 L901.06 369.27 L901.03 367.08 L902.23 367.08 L903.65 370.31 L904.99 369.54 L907.7 364.7 L910.19 363.25 L913.51 362.25 L919.25 361.5 L919.96 360.72 L919.62 356.94 L919.85 355.62 L920.92 354.9 L921.94 354.99 L923.15 355.37 L933.55 357.42 L936.28 356.85 L936.28 357.89 L935.32 358.88 L935.43 359.55 L935.96 360.28 L936.28 361.5 L936.28 366.51 L935.44 369.01 L933.59 370.05 L931.75 369.34 L930.9 366.51 L930.32 365.66 L928.93 365.1 L927.26 364.79 L925.87 364.7 L924.91 365.38 L924.04 366.89 L923.03 369.34 L922.31 370.2 L921.6 370.74 L921.07 371.56 L920.84 373.31 L921.23 374.84 L922.14 375.12 L923.23 374.64 L924.13 373.88 L923.31 372.48 L923.15 371.39 L923.47 370.41 L924.13 369.34 L925.32 369.34 L925.66 373.42 L926.75 376.34 L928.77 377.45 L931.9 376.16 L932.76 375.2 L934.23 372.77 L935.18 371.71 L936.45 370.9 L943.63 368.3 L943.57 367.71 L942.85 365.94 L942.18 364.91 L941.26 364.15 L940.34 363.19 L939.67 361.5 L939.13 359.15 L937.95 355.97 L935.96 354.09 L932.99 355.62 L928.22 352.75 L925.85 352.22 L923.03 353.44 L922.05 352.31 L922.4 351.69 L923.03 350.04 L920.45 349.69 L913.51 347.11 L912.08 346.06 L910.4 344.18 L907.05 343.09 L904.56 341.63 L905.52 338.58 L908.15 337.28 L910.65 338.66 L912.91 340.85 L914.83 341.98 L916.55 342.56 L933.88 351.64 L955.47 359.84 L963.76 365.94 L965.65 369.07 L968.24 379.75 L971.06 386.43 L975.32 392.76 L980.21 396.7 L1000 404.61 L997.88 404.96 L992.47 404.64 L990.23 405.07 L986 407.02 L978.89 406.91 L978.23 407.02 L976.28 406.25 L975.1 405.43 L975.22 404.55 L977.13 403.61 L970.06 402.86 L967.31 403.04 L964.88 404.64 L964.05 402.44 L962.37 401.4 L960.31 400.58 L958.31 398.97 L956.77 401.85 L954.27 404.62 L951.02 406.58 L947.26 407.02 L945.78 406.21 L943.83 403.19 L942.98 402.37 L940.87 402.01 L939.26 402.2 L938.71 403.04 L939.79 404.64 L938.95 405.75 L938.69 406.77 L938.59 409.29 L937.02 407.82 L936.12 408.53 L935.91 410.46 L936.4 412.69 L935.5 412.25 L933.12 411.55 L933.47 412.06 L933.9 413.23 L934.22 413.82 L931.91 414.51 L927.91 417.71 L923.99 419.19 L923.2 420.99 L922.86 423.23 L922.17 425.25 L920.97 425.25 L919.61 423.51 L916.66 422.63 L913.1 422.44 L909.92 422.88 L906.92 424.32 L906.3 426.16 L907.82 430.92 L906.63 430.92 L906.03 429.51 L904.84 428.76 L903.18 428.53 L901.16 428.66 L901.49 431.23 L898.15 432.54 L889.21 433.09 L890.35 435.03 L891.14 435.84 L892.39 436.69 L889.43 436.72 L886.25 437.75 L883.39 439.34 L881.44 441.12 L880.51 439.93 L879.95 439.52 L879.32 439.34 L878.16 438.86 L878.95 440.41 L879.15 441.12 L877.1 440.56 L874.51 437.78 L872.58 436.69 L871.79 440.49 L871.75 442.02 L872.58 443.38 L856.72 444.23 L853.96 443.9 L853.65 442.62 L852.83 442.16 L850.12 442.25 L848.44 442.02 L847.83 441.44 L847.42 440.67 L843.74 438.32 L842.57 438.41 L840.81 439.88 L842.67 443.78 L843.78 445.3 L845.19 446.68 L845.19 447.92 L844.09 448.62 L843.41 448.54 L842.66 448.15 L841.31 447.92 L839.85 448.24 L839.03 448.93 L838.38 449.72 L837.43 450.28 L833.52 451.42 L831.16 451.61 L829.21 450.8 L825.42 446.7 L824.18 445.65 L822.74 444.83 L820.52 444.05 L818.5 444.2 L817.61 446.16 L818.44 453.95 L817.62 457.6 L814.33 459.34 L812.55 459.21 L808.65 458.33 L806.21 458.1 L804.99 457.23 L803.84 452.92 L802.27 451.32 L800.16 454.45 L797.93 458.64 L794.98 462.3 L788.99 464.41 L784.84 466.74 L783.06 467.26 L780.6 466.52 L778.93 465.08 L777.23 464.14 L774.8 464.9 L775.28 461.65 L775.89 460.47 L764.17 460.12 L760.56 459.34 L754.34 456.65 L751.27 456.32 L748.31 458.1 L745.89 452.43 L744.21 449.65 L740.93 447.42 L741.1 445.21 L740.65 443.21 L737.46 442.81 L737.55 442.48 L738.8 440.86 L739.3 440.39 L736.94 436.46 L733.42 433.82 L729.25 432.56 L725.03 432.75 L715.44 434.5 L712.81 436.04 L705.45 443.19 L702.58 445.24 L700.08 446.94 L699.75 447.16 L697.56 449.23 L696.13 451.83 L695.29 457.96 L694.77 458.95 L693.94 459.34 L691.42 460.03 L692.29 461.65 L696.83 464.9 L693.3 468.25 L692.35 469.53 L696.51 469.53 L696.28 470.07 L695.32 472.32 L689.61 478.07 L686.21 479.68 L683.49 477.64 L680.93 474.8 L678.01 474.05 L676.73 476.41 L676.04 481.01 L675.71 489.39 L675.14 490.46 L671.44 494.42 L671.25 495.47 L671.62 498 L671.44 499.05 L667.05 502.44 L669.63 504.15 L672.5 506.77 L674.56 510.08 L674.72 513.85 L672.86 516.59 L669.56 518.59 L665.55 519.93 L661.58 520.63 L655.5 520.63 L653.84 520.99 L650.02 522.9 L648.52 523.28 L647.64 524.2 L646.99 525.32 L645.85 526.7 L645.4 527.91 L644.95 528.45 L644.27 528.59 L642.55 528.32 L641.86 528.45 L640.31 529.94 L638.47 532.36 L636.92 534.96 L635.76 539.19 L634.44 542.34 L632.67 545.53 L630.81 547.85 L626.66 551.13 L623.92 552.72 L618.15 554.31 L617.23 556.51 L616.87 559.14 L615.37 561.41 L612.38 562.4 L609.73 562.88 L608.36 563.12 L604.84 564.29 L603.32 566.59 L601.76 568.21 L596.14 569.94 L596.66 571.68 L596.17 571.84 L595.73 571.83 L595.48 572.02 L595.56 572.8 L594.57 572.8 L593.2 572.39 L589.94 575.22 L587.9 576.19 L585.05 575.99 L583.39 575.61 L582.61 576.51 L582.42 580.13 L580.83 585.11 L580.16 588.29 L580.77 589.73 L583.17 590.48 L584.08 592.4 L583.74 594.96 L582.42 597.62 L581.31 598.64 L580.96 598.96 L580.86 598.92 L580.55 598.8 L578.42 596.39 L575.15 596.11 L571.41 596.23 L567.85 595 L565.3 591.88 L563.73 588.49 L561.85 585.62 L558.32 584.06 L556.14 584.2 L554.68 584.81 L553.2 585.12 L550.97 584.35 L549.89 583.35 L546.42 578.73 L535.09 570.47 L534.63 566.09 L536.36 562.53 L536.4 560.7 L524.13 562.53 L521.92 563.68 L520.12 565.32 L519.28 566.76 L518.65 568.35 L517.5 570.46 L515.63 572.42 L513.69 573.44 L511.8 574.18 L510.12 575.3 L504.58 583.98 L494.07 595.32 L491.53 599.35 L490.27 604.25 L489.34 606.74 L487.47 608.86 L485.08 610.04 L482.14 610.76 L473.85 611.3 L472.73 611.13 L471.22 610.64 L470.26 609.96 L467.74 607.34 L465.39 607.68 L463.23 608.82 L460.9 609.57 L458.06 608.76 L452.75 605.83 L446.41 606.2 L433.33 608.71 L426.33 607.83 L422.98 608.12 L419.34 609.96 L417.49 611.24 L416.73 611.92 L416.45 612.93 L416.08 615.23 L415.93 618.09 L415.47 626.89 L415.77 628.39 L416.4 629.24 L417.06 629.74 L418.46 630.81 L419.07 631.87 L419.18 634.51 L418.18 639.8 L418.27 642.61 L423.45 662.4 L423.18 664.97 L421.14 669.52 L420.9 671.88 L421.51 673.52 L422.46 674.03 L423.56 674.29 L424.59 675.22 L425.75 677.33 L426.09 678.33 L427.05 683.05 L426.7 685.58 L425.46 687.75 L423.26 689.79 L422.1 690.58 L420.95 691.37 L419.44 691.77 L417.94 691.29 L408.7 686.72 L405.94 686.48 L403.36 687.23 L401.24 688.69 L393.53 695.35 L392.24 696.96 L391.09 699.17 L389.93 703.82 L389.66 704.25 L389.96 705.21 L391.17 707.86 L391.46 708.27 L390.07 716.94 L390.48 717.98 L391.38 718.38 L392.01 718.97 L391.58 720.59 L390.77 721.43 L388.41 722.62 L387.49 723.34 L383.74 729.23 L381.91 731.21 L377.81 733.81 L374.47 735.46 L373.59 738.14 L371.7 738.01 L368.01 735.74 L365.64 735.48 L328.84 737.85 L328.9 737.8 L330.46 736.71 L330.96 734.61 L332.12 732.99 L333.84 731.81 L336.04 730.99 L336.04 729.96 L331.6 729.82 L328.41 729.18 L325.99 727.79 L323.9 725.37 L322.85 723.74 L322.62 722.87 L322.9 720.25 L323.92 719.86 L328.83 719.1 L330.46 718.62 L321.17 716.14 L315.92 715.57 L312.94 716.47 L311.94 716.47 L311.5 710.12 L309.31 703.62 L306.21 697.86 L303.08 693.77 L302.08 691.13 L301.88 691 L301.49 690.32 L300.55 690.38 L299.49 690.61 L298.69 690.4 L297.58 688.91 L297.04 687.58 L297.32 686.22 L298.69 684.66 L300.06 683.78 L302.75 682.53 L304.18 681.28 L307.38 676.72 L308.56 675.65 L310.73 676.15 L313.26 675.53 L318.41 673.51 L318.19 672.12 L318.2 671.16 L318.41 670.03 L316.04 667.84 L314.95 667.06 L313.48 666.75 L310.26 667.35 L308.99 667.08 L307.46 665.52 L304.72 667.54 L303.87 668.41 L303.08 670.03 L302.78 672.25 L303.33 673.44 L303.45 674.34 L301.88 675.65 L300.89 675.77 L295.32 675.65 L292.81 676.27 L291.37 676.32 L289.83 675.65 L289.83 674.53 L292.13 674.53 L292.13 673.51 L289.09 672.86 L285.96 671.72 L283.14 671.48 L281.07 673.51 L279.98 673.51 L280.28 671.89 L282.07 667.78 L279.87 666.92 L279.36 665.11 L279.98 660.45 L279.11 657.97 L277.11 658.39 L274.88 660.27 L273.31 662.15 L274.78 666.83 L272.42 671.21 L268.08 674.43 L263.55 675.65 L260.68 675.1 L256.93 672.8 L253.87 671.77 L253.61 670.64 L253.61 669.51 L253.04 669 L251.48 668.92 L250.39 668.67 L248.12 667.82 L260.76 662.02 L263.52 658.87 L263.9 656.75 L263.62 654.55 L262.79 652.57 L261.56 651.13 L259.22 650.22 L255.82 651.35 L254.17 650.76 L252.49 646.99 L253.43 642.43 L257.28 633.1 L257.64 630.1 L257.51 623.97 L258.09 621.06 L259.49 619.03 L261.1 617.5 L261.89 615.72 L260.85 612.99 L261.65 610.29 L264.89 602.8 L266.34 600.4 L263.52 599.26 L258.97 595.34 L256.44 593.15 L255.46 592.61 L253.22 591.74 L252.38 591.23 L251.08 589.27 L249.52 584.93 L248 583.73 L245.6 583.83 L243.98 585.18 L242.66 586.87 L241.1 587.98 L239.56 588.08 L236.42 587.42 L234.81 587.32 L233.57 587.75 L231.5 589.35 L230.77 589.72 L229.67 589.4 L227.3 587.86 L226.39 587.67 L226.04 587.6 L223.64 588.25 L216.33 591.91 L215 587.81 L212.38 584.68 L209.42 581.98 L207.1 579.18 L204.75 573.04 L202.9 571.51 L198.67 571.27 L190.31 572.27 L187.75 572.21 L183.87 571.34 L183.49 571.26 L181.08 571 L179.5 571.6 L179.43 572.16 L179.58 575.43 L179.92 576.02 L181.35 577.35 L181.64 577.79 L180.87 580.05 L179.84 580.29 L178.42 580.06 L176.5 580.88 L175.45 582.05 L174.81 583.19 L174.27 584.15 L173 585.37 L171.25 585.96 L169.31 586.11 L167.57 586.75 L166.46 588.82 L165.43 588.39 L164.15 588 L162.87 587.78 L161.83 587.85 L161.33 588.44 L161.21 589.46 L161.21 590.44 L161.02 590.92 L159.85 590.8 L157.29 589.78 L155.75 589.7 L149.29 591.13 L146.37 592.37 L143.36 594.2 L139.09 594.42 L140.5 592.08 L140.39 589.44 L138.66 585.1 L138.21 583.53 L138.54 581.09 L139.09 579.08 L139.2 577.15 L138.38 575.35 L138.21 574.96 L138.87 575.05 L138.91 575.05 L139.04 574.94 L139.14 574.86 L139.19 574.45 L139.31 573.93 L137.88 572.52 L136.32 571.87 L129.25 571.33 L117.1 567.43 L113.01 567.16 L108.93 567.79 L107.94 568.17 L107.96 567.87 L108.02 567.02 L107.66 565.64 L106.87 564.53 L105.71 563.53 L104.96 563.26 L101.52 562.8 L99.01 561.15 L99.1 558.82 L100.06 556.09 L100.2 553.3 L99.05 551.41 L97.65 551.56 L95.99 552.58 L94.08 553.33 L87.05 552.8 L84.23 553.22 L83.18 548.55 L80.77 543.61 L77.41 539.36 L73.44 536.81 L70.93 536.76 L68.69 537.73 L66.79 538.85 L65.23 539.19 L63.82 538.17 L63.3 536.41 L63.14 535.06 L63.05 534.28 L62.44 532.21 L61 529.77 L59.52 527.98 L55.45 524.88 L54.73 523.39 L54.09 518.32 L53.07 516.27 L50.5 514.98 L45.03 514.34 L43.2 512.76 L43.84 511.13 L43.98 509.45 L43.63 507.8 L42.83 506.28 L41.91 505.03 L41.12 504.3 L40.18 504.12 L38.76 504.51 L37.49 505.82 L35.18 510.3 L33.66 511.7 L26.25 509.48 L22.18 506.59 L14 504.83 L9.02 502.46 L2.82 501.46 Z M280.53 687.02 L281.04 688.21 L280.73 690.77 L279.06 693.15 L275.49 693.77 L273.57 693.47 L272.89 693.18 L272.2 692.64 L272.2 691.62 L273.31 691.62 L272.7 690.75 L271.73 688.92 L271.12 688.04 L273.72 687.18 L275.77 686.9 Z M279.38 674.03 L280.97 674.5 L285.3 673.56 L287.65 673.51 L287.65 674.53 L284.87 675.83 L286.77 682.33 L284.36 684.66 L276.93 682.23 L273.49 680.16 L273.9 677.3 L275.99 674.22 L277.44 673.27 Z M398.67 216.38 L399.66 217.43 L398.28 220.18 L398.67 222.08 L395.65 221.97 L393.14 222.58 L388.81 224.36 L385.04 226.55 L382.6 224.65 L379.63 223.62 L381.02 221.69 L388.16 218.18 L392.31 217.25 L394.63 216.9 L396.78 216.29 Z M442.34 190.03 L443.5 185.97 L448.13 182.1 L454.51 178.13 L459.43 176.01 L468.99 171.38 L479.41 167.91 L486.36 165.88 L491.19 165.3 L497.56 165.69 L502.57 165.98 L510.49 166.09 L507.2 167.05 L503.73 168.78 L500.64 167.82 L495.82 168.97 L492.42 168.25 L489.57 168.72 L488.48 169.25 L486.27 170.73 L485.28 171.16 L483.85 171.22 L481.54 171.77 L478.64 173.89 L472.75 176.79 L466.96 178.91 L460.87 183.26 L455.38 184.98 L451.71 185.38 L449.2 187.79 L446.49 190.41 L443.31 192.63 Z M553.85 160.43 L556.4 155.96 L558.23 153.6 L563.53 151.2 L566.58 152.32 L569.01 154.36 L568.19 156.39 L564.63 156.79 L563.81 159.23 L561.67 162.07 L558.52 162.27 L556.38 164.7 L548.14 170.27 L547.53 168.75 L549.16 165.8 L551.41 161.64 Z M869.94 0 L871.15 0.13 L872.35 0.39 L873.5 0.77 L874.56 1.27 L873.02 1.61 L871.68 1.55 L870.63 1.03 Z "/>
</g>
</svg>
