<svg xmlns="http://www.w3.org/2000/svg" viewBox="0 0 1000 741.82">
<g fill="#ccc" stroke="#333" stroke-width="0.5" stroke-linejoin="round">
<path fill-rule="evenodd" d="M695.96 15.62 L704.62 14.91 L691.34 32.41 L682.4 43.19 L669.41 56.55 L660.75 56.55 L659.6 77.25 L674.89 72.8 L676.19 65.46 L696.97 59.52 L703.9 51.86 L717.6 26.4 L724.53 24.91 L730.01 30.93 L739.83 24.91 L745.31 30.93 L737.52 47.02 L748.05 44.44 L759.45 55.07 L758.59 68.11 L767.24 73.66 L781.39 65.46 L784.56 72.8 L784.56 84.91 L780.81 100.37 L794.08 101.31 L801.3 112.79 L817.75 120.83 L867.53 105.91 L878.5 99.82 L882.68 110.44 L849.35 137.39 L830.01 155.35 L809.09 164.48 L785.71 174.79 L764.94 189.86 L756.71 203.21 L738.38 215.31 L724.53 215.31 L698.41 180.72 L673.45 185.41 L663.92 179.24 L659.6 188.38 L662.48 204.69 L670.71 209.14 L673.45 222.65 L660.75 219.68 L659.6 210.86 L647.04 203.21 L626.41 206.18 L619.48 215.31 L585.43 222.41 L601.44 231.7 L620.92 245.29 L643.43 260.59 L663.92 275.1 L660.75 290.17 L669.41 297.58 L659.6 317.17 L670.71 313.97 L684.56 285.8 L703.75 267.14 L710.82 246.77 L720.78 246.46 L734.34 255.67 L762.19 255.67 L766.09 265.66 L762.19 284 L771.72 296.1 L778.64 276.59 L800.87 264.72 L778.64 230.22 L800.87 212.34 L823.23 206.18 L821.79 189.86 L862.48 161.05 L864.79 170.34 L874.89 172.45 L864.79 191.34 L883.69 196.18 L887.88 225.69 L878.5 237.87 L886.72 254.03 L896.25 242.32 L904.76 270.65 L913.13 269.17 L911.83 236 L926.55 197.28 L940.69 209.14 L939.83 225.85 L944.88 237.87 L972.44 239.35 L997.26 245.29 L993.07 260.12 L1000 290.17 L978.79 280.25 L965.37 278.07 L944.88 318.5 L953.39 313.58 L971 338.86 L979.51 379.9 L973.88 381.31 L972.44 371.79 L955.84 370.93 L961.33 387.32 L954.4 403.85 L944.88 412.75 L928.28 418.6 L922.51 444.18 L913.13 430.69 L913.13 406.82 L894.81 418.6 L889.61 405.34 L878.5 391.76 L881.24 361.96 L856.57 351.5 L853.39 334.96 L838.24 345.73 L820.49 349.94 L795.53 331.92 L781.39 331.92 L764.94 355.95 L773.16 384.35 L784.56 400.89 L778.64 414.23 L762.19 399.41 L760.75 379.9 L746.61 387.32 L741.56 399.17 L759.74 417.51 L771.72 466.65 L779.94 469.53 L804.91 474.6 L806.35 496.44 L813.28 496.44 L827.27 493.48 L840.98 511.49 L830.45 524.04 L816.31 533.87 L803.61 529.42 L800.87 530.91 L802.16 541.43 L801.88 556.32 L820.49 550.32 L825.97 565.37 L825.97 578.86 L814.57 586.26 L800.87 574.18 L781.96 562.95 L784.56 545.88 L773.16 514.45 L758.01 502.6 L759.45 487.55 L760.75 475.69 L741.56 463.53 L734.34 496.44 L737.09 514.45 L712.12 541.43 L692.93 521.94 L663.92 486.07 L669.41 504.08 L665.22 504.08 L635.06 471.33 L619.19 489.58 L627.85 502.6 L627.85 508.45 L614.14 502.6 L610.53 517.03 L601.44 523.42 L593.22 527.94 L584.99 517.49 L586.72 495.81 L582.25 486.07 L580.81 477.18 L571.28 477.18 L571.28 463.68 L558.3 451.67 L533.48 437.32 L508.95 425.38 L507.5 435.14 L489.47 405.34 L485.28 379.9 L474.31 372.41 L461.33 385.52 L428.72 379.9 L427.27 385.83 L413.28 385.83 L407.65 393.24 L391.2 388.8 L377.49 393.24 L359.16 400.89 L324.82 409.78 L315.01 403.85 L315.01 393.24 L286 393.24 L274.03 383.49 L257.72 378.34 L247.19 354.47 L240.4 352.99 L236.36 339.41 L225.25 351.66 L243.43 368.2 L208.51 372.41 L190.62 387.32 L165.51 373.9 L157.14 373.9 L136.65 360.4 L143.58 337.93 L129.87 317.17 L105.77 297.81 L127.85 278.93 L165.51 276.59 L183.84 263.24 L207.07 219.68 L248.63 201.73 L286 144.73 L297.11 144.73 L310.97 149.41 L309.24 161.05 L308.23 174.79 L315.01 170.34 L335.93 164.48 L341.41 164.48 L344.16 156.83 L342.71 146.45 L342.71 131.37 L363.35 120.83 L391.2 113.41 L397.98 105.91 L405.05 92.33 L418.76 87.87 L427.27 84.91 L439.68 78.73 L434.49 66.39 L450.62 56.75 L480.67 56.75 L490.57 67.46 L496.07 69.84 L516.96 49.61 L533.45 47.23 L552.15 49.61 L561.31 23.22 L575.6 6.55 L595.58 0 L612.99 14.88 L642.86 14.88 L679.8 16.94 Z M532.03 738.55 L484.99 741.82 L490.76 725.23 L490.76 667.02 L473.3 667.33 L477.06 655.01 L477.63 629.37 L489.32 634.05 L496.68 656.03 L511.4 672.16 L523.95 667.02 L523.95 678.86 L511.4 687.9 L533.48 686.34 L553.82 686.34 L562.63 691.02 L542.14 705.36 L535.06 714.94 L546.18 738.71 Z M670.71 533.87 L681.67 545.88 L692.93 542.91 L706.64 548.84 L720.49 574.18 L734.34 584.78 L734.34 604.27 L723.38 617.68 L730.01 635.61 L738.38 651.97 L730.01 655.01 L742.57 691.02 L720.49 695.46 L714.86 687.9 L701.15 675.9 L701.01 655.79 L695.38 633.58 L683.26 623.52 L672.87 632.18 L683.26 635.61 L683.26 650.49 L676.19 651.97 L663.92 667.02 L676.19 686.42 L670.71 699.9 L677.63 713.46 L656.71 717.9 L653.82 687.9 L659.6 683.46 L654.69 674.19 L636.08 683.46 L627.85 678.86 L636.08 668.57 L623.67 661.09 L631.89 649.01 L627.85 638.57 L612.41 635.61 L614.43 619.32 L591.92 634.13 L584.99 644.57 L580.81 644.57 L576.77 634.13 L573.88 620.56 L558.3 611.68 L529.58 610.27 L517.32 604.27 L510.1 589.23 L507.5 580.34 L499.13 565.37 L488.02 560.92 L489.47 548.84 L493.51 545.88 L502.02 541.43 L517.32 533.87 L535.06 527.94 L554.26 533.87 L566.96 541.43 L582.25 545.88 L605.63 545.88 L622.08 530.91 L637.37 521.94 L654.4 528.88 Z M16.16 703.49 L3.32 688.53 L1.01 663.51 L0 643.09 L3.32 632.41 L21.07 632.41 L21.07 613.39 L34.49 609.81 L34.49 597.8 L23.52 589.23 L24.39 588.52 L39.97 576.36 L52.53 565.76 L53.68 562.41 L69.99 559.44 L82.68 545.88 L97.84 520.3 L131.17 520.3 L149.21 521.94 L161.47 535.35 L179.65 527.94 L220.92 504.08 L247.19 510.01 L259.6 489.03 L275.04 486.07 L287.59 463.68 L319.19 438.26 L324.82 451.67 L366.09 418.6 L375.9 425.38 L385.71 436.7 L380.23 451.67 L377.49 468.13 L370.27 461.97 L356.42 459.24 L344.16 459.24 L340.98 489.11 L310.97 484.58 L310.97 510.01 L327.71 502.68 L319.62 527.32 L321.93 574.18 L295.82 574.18 L280.23 568.1 L301.3 598.11 L275.04 619 L315.01 646.05 L288.74 667.02 L256.42 682.14 L254.11 668.57 L254.11 626.56 L233.62 626.56 L216.74 626.56 L192.06 626.56 L161.47 651.97 L149.21 651.97 L143.58 661.09 L161.47 665.54 L161.47 677.3 L145.02 688.29 L122.22 690.24 L100.58 668.57 L97.84 655.01 L82.68 659.61 L64.5 672.86 L38.67 695.23 Z "/>
</g>
</svg>
