<svg xmlns="http://www.w3.org/2000/svg" viewBox="0 0 1000 613.24">
<g fill="#ccc" stroke="#333" stroke-width="0.5" stroke-linejoin="round">
<path fill-rule="evenodd" d="M1000 137.83 L997.58 140.68 L993.88 147.58 L991.47 149.8 L985.56 152.01 L983.19 153.67 L981.61 156.63 L981.67 158.51 L982.42 159.93 L982.71 161.54 L981.46 164.01 L980.57 164.6 L977.39 164.93 L974.39 166.31 L972.59 167.73 L968.95 172.54 L964.64 176.32 L959.26 178.65 L953.62 179.47 L948.53 178.63 L937.61 172.85 L933.08 173.91 L930.68 182.57 L928.99 184.19 L927.04 184.99 L924.92 185.18 L918.11 184.15 L916.23 184.33 L913.61 185.28 L910.89 186.8 L909.21 188.54 L905.98 193.44 L904.85 194.58 L902.35 196.4 L901.27 197.76 L900.72 199.39 L900.22 203.4 L899.76 205.29 L896.11 210.53 L895.67 211.97 L895.56 213.59 L895.34 215.01 L895.3 215.25 L894.52 216.9 L893.36 217.78 L892.53 218.4 L885.31 220.24 L876.15 227.15 L871.79 231.93 L868.99 237.27 L869.37 244.06 L870.66 251.61 L870.86 258.87 L867.91 264.91 L861.34 266.86 L858.69 268.49 L856.01 271.52 L850.31 279.85 L849.41 282.39 L847.72 290.17 L846.94 292.14 L845.24 295.36 L844.63 297.77 L844.58 300.29 L844.93 302.25 L844.98 304.25 L844.08 306.92 L842.84 308.66 L839.58 311.78 L838.18 313.86 L837.53 315.82 L836.79 319.64 L835.8 321.55 L832.82 324.5 L825.55 329.36 L822.26 332.48 L816.5 339.41 L816.71 340.12 L817.06 341.27 L818.33 341.89 L819.75 342.17 L820.77 343 L822.09 345.53 L822.18 345.75 L821.62 345.96 L818.82 356.64 L817.57 358.21 L810.83 363.75 L810.18 364 L809.99 364.58 L809.77 367.12 L809.9 369.75 L810.41 372.05 L810.45 374.39 L809.22 377.14 L807.69 378.47 L802.32 379.92 L799.24 382.82 L797.35 386.32 L794.2 395.01 L793.54 396.03 L793.04 397.18 L792.7 398.44 L792.56 399.73 L792.88 400.34 L793.27 400.84 L793.71 401.26 L797.68 403.98 L797.18 408.23 L794.5 412.24 L791.54 413.91 L787.52 414.62 L785.94 417.14 L785.65 417.96 L784.66 420.75 L781.6 424.8 L778.41 426.5 L772.99 426.08 L769.83 426.89 L767.58 429.61 L766.74 433.67 L766.16 441.88 L764.33 445.81 L761.79 449.04 L759.72 452.43 L759.35 456.84 L763.66 465.09 L764.59 469.78 L761.18 472.4 L754.93 472.67 L752.05 473.69 L749.57 476.61 L748.08 481.25 L747.47 490.75 L746.2 494.87 L744.51 498.11 L743.09 499.23 L738.78 499.19 L737.84 499.69 L730.8 508.27 L728.15 509.29 L725.27 506.79 L724.25 505.55 L723.09 504.97 L721.83 504.97 L720.48 505.55 L717.57 505.66 L712.07 503.27 L709.44 502.71 L708.43 503.03 L706.27 504.24 L704.81 504.37 L703.6 503.79 L700.95 501.52 L699.58 500.81 L696.63 500.68 L693.53 501.55 L691.87 502.45 L690.56 503.16 L684.79 507.98 L684.15 509.16 L684.22 511.17 L685.59 515.9 L685.58 517.61 L684.39 518.8 L682.99 518.58 L681.62 518.09 L680.51 518.5 L679.77 520.08 L679.63 522.66 L679.61 523.13 L678.81 525.23 L676.56 527.74 L673.68 529.21 L665.36 530.97 L664.26 530.94 L662.48 530.26 L661.02 529.26 L656.72 525.3 L650.89 522.85 L644.87 521.47 L641.27 527.27 L617.55 527.93 L611.59 535.52 L603.58 528.65 L600.93 527.56 L597.23 529.36 L596.15 529.49 L595.02 528.87 L593.51 526.77 L592.72 526.13 L590.31 525.55 L588.86 525.73 L585.15 527.61 L580.96 528.1 L574.78 524.6 L565.35 523.73 L559.43 525.03 L557.17 525.97 L544.91 531.06 L542.33 530.53 L533.33 524.75 L530.11 522.69 L527.05 521.69 L523.88 521.53 L515.32 523.21 L512.18 523.11 L509.45 523.59 L505.81 525.24 L502.38 527.54 L500.25 529.96 L500.51 531.71 L501.61 533.65 L501.99 535.41 L498.1 537.52 L497.07 538.95 L496.32 540.54 L495.27 542.01 L492.79 544.04 L491.52 544.57 L489.89 544.82 L488.05 545.69 L486.84 547.54 L485.75 549.66 L484.24 551.33 L481.77 552.19 L476.32 552.22 L473.63 552.83 L472.36 553.79 L470.68 555.05 L469.58 557.67 L468.9 560.26 L467.22 562.42 L463.12 563.21 L450.2 561.86 L446.93 559.94 L446.93 559.91 L444.75 555.73 L441.43 554.48 L438.03 555.93 L435.71 559.94 L435.55 566.24 L432.94 566.96 L429.21 566.42 L425.7 568.92 L425.25 569.69 L425.09 570.47 L425.26 571.25 L426.39 573.06 L426.72 573.96 L426.54 574.64 L425.7 575.05 L422.88 573.76 L413.83 573.07 L411.66 573.24 L410.19 574.93 L408.55 575.85 L405.59 576.73 L403.08 578.47 L402.21 578.5 L401.52 578.53 L399.62 576.8 L398.14 579.04 L397.49 580.98 L396.83 582.46 L395.29 583.32 L393.49 583.08 L387.67 580.01 L380.38 577.49 L377.62 578.08 L374.28 581.39 L373.73 582.47 L373.29 585.02 L372.9 586.32 L372.68 586.37 L370.5 588.86 L367.27 595.15 L365.51 597.32 L359.14 602.78 L355.3 604.22 L351.99 602.66 L349.58 604.29 L344.47 610.65 L341.66 612.85 L340.58 613.15 L339.57 613.24 L338.57 613.15 L337.59 612.87 L337.55 612.85 L335.1 609.69 L332.73 609.64 L330.34 611 L327.8 611.99 L325.27 611.03 L322.72 608.27 L319.37 608.22 L314.85 604.81 L312.1 603.94 L299.98 603.94 L298.68 604.36 L296.14 606.21 L294.54 606.82 L292.83 606.82 L277.34 602.51 L267.15 602.51 L264.72 602.51 L263.35 603.27 L262.65 604.93 L261.81 606.45 L260.04 606.82 L260.03 605.95 L257.12 600.93 L252.84 597.8 L234.87 592.26 L231.54 592.04 L230.33 591.24 L230.06 589.82 L229.85 588.71 L229.68 586.28 L228.92 583.13 L228.75 581.42 L227.67 579.4 L220.69 572.01 L215.27 569.56 L209.02 568.25 L196.45 567.66 L195.2 568.45 L194.79 569.15 L194.23 569.81 L193.43 570.43 L192.47 566.98 L190.92 566.31 L187.4 567.66 L184.46 567.88 L183.99 567.25 L184.22 565.37 L183.36 561.74 L181.78 564.42 L180.22 564.04 L178.75 562.74 L178.49 562.51 L176.32 561.74 L176.32 560.29 L177.33 560.04 L179.16 559.2 L180.25 558.98 L178.93 557.13 L176.52 556.8 L174.22 555.93 L173.2 552.39 L172.85 550.25 L171.01 543.44 L170.2 541.44 L164.3 533.72 L162.64 532.74 L150.68 532.32 L148.47 531.25 L141.36 525.87 L139.64 524.01 L138.9 521.71 L137.69 520.12 L129.84 513.71 L128.44 511.82 L124.81 504.99 L119.3 498.5 L118.23 497.57 L117.22 496.32 L115.76 492.07 L114.65 488.84 L115.14 485.5 L113.72 482.02 L112.83 480.82 L111.51 479.04 L109.62 477.16 L108.84 477.15 L108.52 478.13 L108.13 478.84 L107.15 477.97 L106.51 477.14 L105.89 476.49 L105.23 475.99 L104.58 475.7 L100.6 474.81 L99.55 474.12 L98.45 477.16 L97.45 477.16 L95.65 473.37 L91.16 470.58 L88.38 466.95 L86.01 462.87 L83.32 459.56 L80.14 457.36 L76.22 456.59 L74.9 455.74 L73.74 455.54 L72.83 456.27 L72.19 458.17 L71.29 458.17 L69.32 456.19 L62.95 452.21 L62.1 451.53 L59.97 442.29 L55 438.03 L49.56 429.51 L44.31 426.38 L41.62 424.21 L41.01 422.66 L40.45 421.23 L41.81 419.11 L44.61 417.76 L45.49 416.91 L46.65 415.78 L45.84 411.72 L43.64 410.24 L40.89 410.07 L40.12 409.74 L40 409.69 L38.85 409.19 L38.81 405.58 L36.76 405.93 L35.39 404.31 L34.13 401.83 L32.45 399.67 L30.43 393.48 L30.09 392.68 L30.29 391.88 L30.68 390.26 L32 388 L32.56 387.04 L33.58 384.61 L34.42 381.98 L34.75 380.06 L34.1 378.97 L31.93 378.85 L30.64 378.16 L29.98 377.33 L27.74 374.55 L26.24 373.68 L12.6 374.87 L6.09 375.43 L5.34 375.25 L0 373.94 L2.36 372.83 L4.25 371.01 L9.6 363.69 L11.3 361.91 L15.05 359.16 L18.13 357.84 L19.15 357.05 L20.14 355.48 L20.22 354.16 L20.1 352.96 L20.48 351.65 L21.97 350.36 L23.43 350.04 L24.62 349.05 L25.26 345.77 L26.66 343.38 L28.67 343.11 L34.17 344.22 L40.18 343.49 L43.3 343.88 L45.84 345.8 L46.64 346.39 L47.4 346.6 L48.11 346.42 L48.75 345.83 L48.75 345.81 L51.21 345.35 L55.05 345.31 L57.83 344.63 L57.18 342.29 L55.06 340.33 L52.96 339.63 L48.74 339.11 L50.58 337.45 L57.18 334.76 L58.84 333.69 L59.43 332.5 L58.92 331.38 L57.18 330.5 L54.21 329.5 L53.11 326.64 L54.07 323.48 L57.18 321.55 L60.55 317.09 L61.25 314.55 L59.45 311.92 L57.03 311.68 L52.05 314.08 L50.06 312.77 L50.11 311.57 L51.31 307.87 L51.27 305.97 L50.28 304.57 L49.04 304.45 L47.87 304.55 L46.99 303.79 L46.47 300.21 L48.74 295.45 L48.25 291.66 L48.25 291.64 L52.84 289.16 L54.92 287.24 L55.9 284.33 L55.31 280.76 L50.83 271.34 L50.43 270.9 L49.78 270.65 L49.1 270.29 L48.69 269.46 L48.78 268.17 L49.42 267.59 L50.16 267.2 L50.48 266.56 L50.11 258.22 L51.6 255.46 L53.45 254.95 L55.41 256.33 L57.18 259.21 L73.03 251.95 L78.56 247.61 L80.61 246 L80.02 237.21 L81.69 235.39 L85.99 233.58 L87.56 230.79 L87.73 227.43 L86.58 224.69 L84.54 222.61 L82.04 221.2 L82.87 216.96 L81.62 212.55 L79.04 209.08 L75.83 207.6 L70.97 208.43 L61.26 204.46 L57.18 205.37 L48.92 202.02 L46.26 200.47 L47.55 198.83 L49.79 195.19 L50.87 194.09 L51.73 195.17 L52.46 195.86 L53.14 196 L54.12 195.39 L55.87 193.81 L61.75 190.69 L63 189.48 L63.81 187.6 L63.55 184.71 L64.43 182.59 L69.84 180.13 L76.03 180.91 L87.83 185.53 L89.69 186.84 L90.49 188.81 L91.03 191.12 L92.16 193.38 L93.81 195.09 L95.39 196.07 L103.69 197.38 L104.99 197.07 L106.62 195.46 L109.51 190.83 L111.46 189.18 L113.61 194.91 L119.2 195.94 L130.89 193.01 L141.63 191.56 L144.66 190.15 L142.99 189.1 L141.74 187.43 L141.01 185.22 L140.73 178.06 L139.74 173.61 L139.54 169.84 L141.75 167.37 L140.79 165.98 L139.38 161.88 L138.22 161.01 L135.13 159.57 L134.2 158.58 L134.15 156.19 L135.99 155.22 L141.1 154.07 L143.52 152.15 L144.98 149.93 L145.84 147.05 L146.45 143.14 L146.14 142.7 L145.36 142.45 L144.63 142.01 L144.48 141.05 L144.88 140.43 L146.25 139.49 L146.54 139.12 L146.95 137.23 L147.67 135.85 L147.73 134.49 L146.17 132.68 L155.42 124.91 L160.8 121.64 L166.12 122.79 L172.22 124.5 L173.75 124.93 L183.36 126.39 L188.01 130.25 L203.14 150.58 L204.59 151.92 L206.11 152.55 L209.81 153.34 L211.18 154.24 L216.17 161.74 L217.96 163.6 L219.49 163.54 L220.96 162.82 L222.63 162.57 L224.82 163.67 L227.88 165.87 L230.61 168.48 L231.77 170.73 L233.31 172.46 L239.58 175.86 L242.93 177.68 L255.28 181.05 L263.8 180.5 L297.57 178.31 L315.75 180.2 L321.22 179.68 L332.25 175.18 L362.43 171.65 L369.04 172.13 L374.4 174.51 L378.81 175.37 L383.1 174.92 L386.7 172.69 L391.57 167.09 L394.13 165.19 L397.47 164.3 L401.1 163.02 L401.33 162.93 L395.66 158.79 L391.35 154.55 L390.39 150.43 L390.75 145.8 L392.23 136.72 L391.74 134.18 L390.72 133.3 L390.52 132.48 L392.44 130.11 L393.78 129.32 L396.65 128.83 L398.05 127.62 L402 119.39 L404.57 117.29 L418.59 114.13 L425.7 112.52 L427.87 111.51 L431.19 111.67 L434.08 111.81 L442.9 110.51 L461.19 112.75 L462.8 112.42 L471.61 106.75 L491.51 107.18 L499.4 101.55 L499.63 100.41 L499.7 99.25 L499.63 98.05 L499.4 96.84 L499.35 96.69 L499.32 96.55 L499.35 96.45 L499.4 96.35 L501.15 92.86 L502.54 84.3 L504.15 81.08 L506.7 79.6 L520.26 75.98 L521.83 76.04 L523.3 76.47 L524.98 77.9 L528.18 81.87 L529.66 82.64 L536.45 81.32 L539.91 81.89 L542.53 85.08 L542.61 87.25 L541.77 89.16 L541.4 91.02 L542.79 93.12 L544.19 93.3 L549.51 91.26 L553.13 92.42 L558.74 97.51 L561.8 98.69 L565.28 97.41 L571.95 91.16 L575.35 89.05 L580.96 87.29 L581.44 86.99 L587.31 83.39 L590.1 82.31 L591.32 81.34 L592.4 79.36 L593.2 75.38 L593.78 73.83 L595.63 71.63 L596.89 71.38 L598.4 71.94 L600.99 72.22 L603.46 71.12 L607.91 67 L609.57 66.27 L612.51 67.75 L614.17 69.59 L615.95 70.35 L619.32 68.59 L623.6 64.26 L627.29 58.61 L630.36 52.21 L636.09 34.59 L637.8 31.14 L640.01 28.22 L644.49 23.47 L644.82 23.11 L646.8 20.14 L646.93 19.36 L646.99 18.57 L646.97 17.78 L646.88 17 L646.59 13.14 L646.64 11.29 L646.8 9.61 L651.06 7.89 L660.2 7.27 L691.38 0.04 L693.78 0 L696.06 1.21 L700.43 5.21 L702.57 5.77 L707.2 6.27 L715.23 11.19 L720.48 11.66 L724.17 11.37 L728.51 12.16 L732.63 14.02 L735.6 16.97 L739.33 17.84 L750.74 12.36 L755.63 11.25 L758.3 12.42 L760.13 13.97 L761.8 14.7 L763.98 13.47 L765.7 10.98 L766.54 8.61 L767.78 6.53 L770.66 4.82 L773.12 4.32 L778.15 4.21 L785.8 1.77 L787.95 2.43 L792.9 5.4 L795.57 6.45 L796.83 7.61 L797.81 9.52 L799.15 13.83 L800.14 15.39 L802.48 16.47 L807.92 16.4 L810.44 16.97 L811.72 19.5 L813.64 28.68 L814.84 31.05 L823.1 43.78 L826.59 47.86 L830.49 50.75 L835.1 52.33 L839.58 51.94 L847.22 48.03 L853.57 47.08 L858.06 44.5 L860.21 43.65 L867.91 43.25 L870.62 42.31 L873.28 42.14 L882.11 43.01 L884.85 42.21 L887.42 40.16 L890.21 36.57 L893.7 37.18 L893.96 37.14 L894.11 37.12 L895.57 35.52 L900.4 33.61 L905.43 34.24 L910.7 36.87 L908.51 43.58 L908.48 47.12 L912.55 46.87 L913.57 47.06 L914.66 48.92 L914.66 51.1 L914.33 53.66 L914.47 56.72 L916.05 61.22 L923.27 72.42 L924.23 73.39 L925.3 73.69 L926.44 73.36 L927.6 72.43 L928.19 72.15 L928.79 72.06 L929.41 72.15 L932.31 73.34 L934.64 73.83 L936.92 73.62 L939.77 72.19 L940.4 72.11 L941.01 72.24 L941.6 72.54 L952.56 87.01 L954.49 91.57 L956.58 98.57 L959.09 103.81 L959.88 104.71 L960.27 104.75 L962.2 103.66 L972.82 103.66 L975.53 102.77 L978.03 101.15 L980.56 100.46 L982.97 102.01 L983.48 103.05 L988.77 106.05 L993.13 110.14 L995.09 112.65 L996.63 115.68 L997.64 119.85 L997.11 122.13 L996.13 124.17 L995.86 127.62 L993.34 130.75 L994.58 133.42 Z "/>
</g>
</svg>
