<svg xmlns="http://www.w3.org/2000/svg" viewBox="0 0 1000 679.45">
<g fill="#ccc" stroke="#333" stroke-width="0.5" stroke-linejoin="round">
<path fill-rule="evenodd" d="M903.9 40.78 L899.63 45.59 L883.55 53 L876.39 58.54 L868.06 60.66 L865.21 63.05 L863.02 66.98 L865.24 67.83 L866.33 68.98 L866.78 70.76 L867.25 71.19 L869.21 75.2 L869.59 76.21 L870.23 77.43 L869.82 80.09 L868.69 83.86 L867.95 85.55 L859.28 93.99 L857.76 94.73 L852.16 95.08 L849.77 97.24 L848.11 102.23 L850.89 104.44 L852.27 105.05 L857.64 105.41 L858.8 107.15 L859.3 111.38 L858.35 112.07 L856.69 113.8 L855.59 114.57 L857.47 116.02 L867.69 116.37 L873.59 119.15 L877.7 118.8 L885.16 111.95 L889.79 111.38 L891.81 112.47 L893.59 114.55 L894.87 117.91 L895.36 122.96 L895.94 125.58 L897.21 126.47 L898.48 126.77 L899.07 127.58 L899.28 130.14 L900.17 135.11 L900.3 137.54 L900.02 138.45 L898.87 139.64 L898.45 140.57 L898.39 141.59 L898.53 144.01 L898.45 144.97 L896.36 150.43 L896.03 151.94 L894.98 152.88 L889.11 160.25 L882.43 165.28 L880.4 167.95 L880.56 171.81 L878.78 174.97 L874.21 180.03 L876.91 179.85 L879.32 177.89 L883.55 172.34 L882.15 176.86 L879.55 181.81 L878.48 185.77 L881.69 187.41 L884.94 186.47 L892.05 182.33 L911.5 177.01 L918.5 173.14 L922.2 172.17 L925.11 175.36 L921.18 184.62 L918.94 186.9 L919.16 188.79 L919.83 190.63 L920.2 191.38 L920.63 191.94 L922.68 193.55 L928.42 197.44 L930.11 199.57 L925.18 201.09 L922.54 203.18 L920.33 208.85 L915.65 214.44 L913.81 219.13 L906.93 227.44 L905.55 230.19 L904.49 233.48 L904.01 237.13 L905.16 235.42 L907.1 230.65 L908.06 229.66 L909.1 229.07 L912.14 225.95 L913.07 224.5 L914.73 220.95 L925.95 203.99 L927.92 202.58 L930.34 203.21 L937.53 208.58 L936.11 206.48 L933.54 203.65 L932.53 201.22 L952.43 213.21 L954.97 213.61 L964.92 211.07 L966.61 211.32 L967.67 212.39 L968.35 215.01 L968.47 217.25 L967.96 218.78 L966.78 219.19 L966.78 220.56 L969.62 220.46 L970.88 220.89 L971.72 222.2 L971.82 223.73 L971.59 225.73 L971.16 228.31 L971.77 229.92 L972.56 231.13 L974.2 232.65 L978.42 226.37 L980.74 224.64 L983.48 225.32 L983.95 226.24 L984.06 227.64 L984.04 228.96 L984.15 229.66 L984.71 229.83 L986.02 229.42 L986.57 229.66 L989.76 233.26 L990.33 234.28 L990.48 239.11 L989.19 242.14 L987.52 244.22 L986.57 246.2 L986.79 247.47 L987.83 251.62 L987.87 253.51 L987.27 254.36 L984.15 256.62 L985.08 257.95 L985.06 259.61 L984.74 261.62 L984.77 264.06 L981.71 266.3 L973.46 265.04 L969.86 267.02 L972.1 268.97 L979.15 271.48 L979.44 275.04 L977.37 277.48 L974.48 278.79 L969.97 278.83 L968.06 279.44 L964.25 281.85 L956.68 283.27 L954.35 284.81 L955.77 286.84 L970.14 281.44 L974.51 281.85 L983.26 279.53 L986.01 280.36 L990.5 283.38 L992.81 285.92 L993.65 288.17 L994.1 289.37 L991.95 291.08 L988.27 296.96 L986.29 298.25 L974.82 301.18 L962.7 301.18 L957.44 302.53 L951.87 302.53 L954.66 304.77 L965.2 302.53 L979.15 304.14 L985.39 302.53 L988.79 302.53 L989.7 303.26 L989.27 304.84 L987.87 307.22 L987.63 308.58 L987.71 309.56 L987.71 310.41 L987.25 311.37 L983.82 312.97 L980.76 313.28 L977.91 314.44 L977.91 316.06 L984.93 314.57 L986.57 316.06 L986.57 317.38 L985.7 317.62 L984.9 318.22 L984.16 319.17 L983.48 320.46 L986.29 320.46 L987.18 320.9 L987.89 321.88 L988.41 322.84 L988.79 323.27 L989.7 322.61 L991.15 319.67 L991.91 319 L992.1 318.16 L994.73 312.97 L998.44 308.56 L998.69 311.72 L998.65 316.3 L998.36 320.69 L997.82 323.27 L997.82 324.87 L999.51 326.11 L1000 328.15 L999.4 330.75 L997.82 333.69 L995.99 335.39 L992.15 336.52 L990.33 338.08 L991.95 341 L992.77 343.02 L992.53 343.94 L991.12 344.64 L988.29 347.76 L986.91 348.46 L980.38 346.87 L974.75 347.89 L972.9 346.87 L972.04 344.87 L971.29 341.9 L970.34 339.25 L968.91 338.08 L967.44 337.6 L964.44 335.5 L959.69 333.9 L954.66 328.93 L951.87 327.81 L952.45 330.17 L953.39 331.91 L954.5 333.06 L955.53 333.69 L952.26 337.36 L933.82 338.08 L933.82 339.68 L962.39 342.47 L963.31 343.31 L964.57 344.94 L965.68 347.01 L966.16 349.12 L966.93 350.27 L971.16 354.18 L980.5 358.53 L982.3 361.61 L978.53 364.6 L974.09 363.93 L966.16 360.03 L957.13 361.61 L951.57 359.2 L950.02 360.03 L955.37 363.9 L968.35 366.93 L974.2 371.82 L974.92 373.08 L975.79 375.03 L976.08 376.85 L975.1 377.65 L973.63 378.33 L971.37 381.34 L970.17 382.02 L960.71 378.29 L958 380.68 L967.83 384.73 L969.47 386.33 L969.53 388.62 L966.94 389.43 L956.6 389 L953.72 387.82 L953.16 388.84 L952.41 389.57 L950.57 390.73 L950.57 392.32 L953.36 395.79 L954.83 398.14 L956.2 401.02 L954.73 401.58 L950.57 405.38 L930.44 409.71 L927.2 408.67 L925.4 407.52 L924.21 406.1 L921.61 397.82 L919.3 395.43 L916.86 390.53 L915.52 389.41 L908.4 387.82 L909.3 389.04 L910.27 389.47 L912.42 389.41 L913.66 390.4 L913.54 392.6 L912.94 395.01 L912.73 396.55 L914.13 398.34 L918.71 400.85 L920.2 401.02 L920.2 402.47 L920.06 405.13 L921.31 408.5 L923.01 411.39 L924.21 412.61 L928.81 414.19 L930.48 416.02 L929.49 418.4 L930.11 419.84 L914.92 414.7 L910.25 418.4 L911.73 420.21 L915.36 422.1 L917.12 424.16 L917.99 426.54 L917.88 428.55 L916.92 430.19 L915.2 431.38 L903.12 431.38 L902.01 432.76 L903.13 435.58 L904.93 437.95 L905.87 437.92 L906.8 440.09 L908.75 441.48 L910.52 441.61 L910.88 440.04 L914.61 439.01 L920.2 430.56 L923.02 428.5 L923.6 429.53 L922.2 431.89 L913.9 442.04 L912.73 444.49 L912.41 446.44 L912.15 450.79 L911.77 452.46 L908.81 457.71 L908.4 459.63 L908.5 460.93 L908.6 461.66 L908.81 463.13 L908.71 463.93 L908.26 464.59 L907.75 464.95 L907.34 465.57 L907.16 466.88 L906.95 467.78 L905.96 471.04 L905.59 471.74 L896.18 472.79 L889.66 475.14 L887.31 476.17 L891.23 473.05 L899.34 470.7 L903.45 469.01 L901.14 467.44 L891.07 465.82 L890.35 466.16 L890.23 467.05 L890.41 469.85 L890.06 470.44 L889.4 470.9 L887.46 472.87 L886.36 473.3 L885.94 473.87 L884.1 477.47 L883.06 478.56 L878.04 481.79 L875.99 483.97 L874.14 486.49 L872.97 489.05 L873.46 486.65 L873.77 485.64 L874.21 484.76 L874.21 483.33 L873.59 483.33 L872.97 485.41 L871.58 487.24 L870.04 488.54 L868.97 489.05 L868.64 489.72 L868.9 491.24 L869.59 492.76 L870.52 493.45 L872.48 493.22 L873.35 492.77 L874.21 491.9 L874.65 494.84 L875.45 497.61 L873.42 497.58 L870.75 501.08 L868.97 502 L864.77 501.55 L862.92 500.68 L861.16 499.15 L858.3 495.66 L856.56 494.1 L854.69 493.45 L853.88 494.04 L852.18 496.78 L851.32 497.61 L850.21 497.37 L849.18 496.56 L848.12 496.27 L846.94 497.61 L848.11 499.15 L847.14 500.17 L846.09 500.53 L843.84 500.45 L845.64 494.74 L845.64 493.45 L842.72 494.26 L841.3 494.15 L840.69 492.67 L840.28 489.45 L839.27 487.29 L838.06 486.55 L836.98 487.61 L836.98 489.05 L837.73 490.06 L838.25 491.12 L838.61 492.57 L838.89 494.74 L837.66 493.9 L835.08 492.93 L833.89 491.9 L833.89 490.6 L834.77 487.68 L833.43 483.28 L831.16 479.24 L829.22 477.47 L827.35 475.4 L823.77 473.97 L821.46 473.3 L823 474.58 L826.11 475.91 L827.98 476.83 L828.95 479.16 L830.61 484.29 L831.41 486.04 L830.64 487.18 L829.87 487.52 L829.09 487.11 L828.31 486.04 L828.31 487.61 L830.15 489.29 L830.47 492.51 L829.72 496.16 L828.31 499.15 L826.1 500.32 L821.05 498.93 L818.98 500.45 L820.25 501.57 L821.63 502 L824.61 502 L822.32 503.91 L816.51 506.02 L811.31 506.52 L805.84 508.59 L803.46 510.55 L803.03 509.51 L802.46 508.57 L802.23 507.56 L799.7 511.14 L791.66 517.64 L799.2 515.08 L800.98 516.35 L797.94 518.91 L774.47 526.14 L771.19 529.14 L775.46 529.14 L775.46 530.41 L769.7 535.42 L767.75 536.09 L766.87 536.63 L763.76 540.33 L761.61 541.92 L760.74 542.93 L760.05 544.7 L759.1 542.71 L758.2 542.35 L757.28 543.19 L756.28 544.7 L756.28 546.12 L757.51 546.12 L757.51 547.41 L752.07 551.22 L750.09 551.78 L750.66 548.82 L745.76 552.55 L743.42 555.41 L742 558.83 L743.48 558.91 L744.67 557.81 L745.57 556.65 L743.23 561.44 L742 563.2 L735.49 568.85 L731.15 575.73 L728.33 577.26 L729.46 576.64 L730.6 575.64 L731.53 574.05 L732.04 571.64 L718.38 583.02 L706.22 586.57 L704.41 586.03 L702.85 584.29 L703.54 585.54 L704.3 586.42 L705.11 586.94 L706 587.09 L704.32 588.12 L702.85 588.5 L703.15 590.66 L703.1 593.51 L702.62 595.95 L701.61 596.92 L701.17 596.27 L701 594.87 L701 592.06 L700.77 591.41 L699.14 589.9 L695.74 585.19 L694.81 584.29 L693.35 583.78 L692.62 584.37 L692.37 586.16 L692.34 589.2 L692.64 593.01 L692.59 595.68 L692.03 596.92 L690.82 596.21 L690.63 594.39 L691.1 589.2 L690.8 587.34 L690.15 584.94 L689.49 583.63 L689.19 584.99 L689.22 590.48 L689.07 593.04 L688.62 595.39 L689.84 597.26 L689.41 598.67 L687.96 599.55 L686.15 599.84 L687.17 595.19 L687.23 593.16 L686.71 591.43 L687.09 589.64 L687.33 588.84 L687.64 588.5 L688.47 587.92 L688.52 586.74 L688.21 585.73 L687.95 585.69 L688.46 580.17 L688.56 577.17 L688.29 575.85 L687.98 575.03 L687 573.45 L685.96 572.53 L685.47 573.68 L685.23 579.02 L685.38 581.19 L686.15 583.02 L684.67 584.36 L682.97 584.23 L681.47 584.53 L680.53 587.09 L681.63 589.2 L682.11 591.57 L682.72 593.76 L684.24 595.39 L682.59 597.72 L679.23 598.5 L672.74 598.32 L671.36 597.85 L668.1 595.39 L666.87 596.27 L665.64 597.67 L664.72 597.62 L664.38 594.12 L653.2 601.12 L640.77 605.33 L632.33 607.36 L633.32 605.88 L633.9 604.08 L633.86 601.89 L633.35 599.84 L632.67 602.76 L631.59 604.74 L630.29 605.33 L628.96 603.92 L629.18 605.06 L629.19 605.58 L629.24 605.98 L629.63 606.71 L629.63 608.23 L617.82 616.63 L618.71 612.16 L621.06 609.64 L623.96 608.49 L626.54 608.23 L626.54 606.71 L620.54 603.57 L618.39 601.12 L617.92 603.89 L618.01 605.01 L618.39 606.71 L616.06 608.34 L613.84 607.88 L611.57 606.83 L609.11 606.71 L610.96 608.23 L610.96 609.51 L608.68 609.46 L607.65 609.88 L606.69 611.03 L605.21 610.18 L603.56 611.41 L602.23 613.67 L601.68 615.93 L601.19 619.55 L599.97 622.05 L598.35 622.71 L596.67 620.81 L595.5 622.56 L595.07 624.36 L595.54 625.81 L597.01 626.4 L598.16 625.96 L599.97 624.04 L601.35 623.61 L608.5 624.41 L610.96 623.61 L607.06 631.22 L604.7 633.31 L602.3 631.96 L602.6 631.59 L602.71 631.59 L602.75 631.48 L602.92 630.69 L599.21 630.69 L599.34 632.6 L596.79 632.34 L595.39 633.48 L596.56 633.34 L597.36 633.93 L597.66 635.33 L597.35 637.66 L604.1 637.27 L605.39 636.15 L603.14 643.04 L599.88 649.34 L595.72 653.94 L586.44 658.2 L580.5 662.71 L574.84 664.03 L571.87 659.89 L573.02 658.4 L575.57 657.46 L576.55 656.35 L577.76 654.16 L578.9 653.17 L581.77 652.94 L581.77 651.55 L579.2 651.5 L574.34 653.02 L571.87 652.94 L565.69 649.07 L563.84 648.65 L564.4 650.18 L563.72 650.49 L563.44 650.86 L563.16 651.55 L564.03 652.79 L565.97 656.27 L566.59 656.99 L567.47 658.28 L567.9 661.14 L568.16 664 L568.47 665.3 L572.26 665.55 L574.4 665.55 L575.9 665.85 L556.51 668.82 L545.29 674.23 L526.22 679.45 L521.6 679.26 L504.23 673.85 L496.9 675.87 L494.27 675.11 L495.27 674.98 L495.68 674.67 L496.13 673.85 L492.89 673.12 L491.28 672.21 L489.94 670.95 L488.11 673.57 L475.91 670.95 L474.76 670.43 L470.03 666.8 L462.6 665.3 L452.02 658.1 L437.47 654.13 L434.6 651.55 L435.82 651.32 L436.52 650.54 L436.43 649.53 L435.28 648.65 L434.17 648.57 L432.65 649.82 L431.53 650.18 L422.85 648.65 L423.12 649.67 L432.18 651.55 L408.27 649.9 L406.71 647.38 L406.32 647.58 L406.08 647.88 L405.86 648.25 L405.53 648.65 L405.09 647.76 L404.82 647.56 L404.24 647.38 L404.86 650.18 L397.9 650.31 L394.51 649.49 L380.74 637.82 L379.38 636.15 L380.66 637.32 L382.12 637.81 L383.61 637.47 L385 636.15 L383.84 635.92 L381.78 634.98 L380.61 634.75 L381.05 631.59 L381.23 630.69 L379.57 633.14 L378.08 634.13 L376.45 633.71 L374.43 631.96 L374.43 630.69 L377.53 631.96 L376.31 628.85 L374.66 627.03 L372.88 625.59 L371.28 623.61 L369.82 620.17 L369.03 617.7 L367.97 616.46 L365.71 616.63 L365.71 617.9 L368.87 622.43 L370.7 625.79 L371.96 629.17 L365.93 623.66 L363.17 620.02 L361.44 615.23 L361.79 614.89 L362.67 613.71 L362 612.74 L360.76 609.51 L363.3 606.56 L366.17 604.86 L372.26 603.92 L375.13 605.26 L380.15 610.64 L383.14 611.03 L381.64 609.06 L379.42 605.24 L378.19 603.92 L371.28 599.84 L374.01 594.69 L374.43 592.71 L374.09 589.83 L373.08 589.08 L372.27 589.8 L372.57 591.43 L372.57 592.71 L371.49 594.69 L367.57 599.84 L365.03 602.77 L363.3 604.58 L361.09 605.33 L360.38 606.13 L360.28 608.08 L360.36 610.41 L360.14 612.43 L359.45 614.43 L359.01 614.86 L354.94 612.48 L350.94 608.98 L347.88 607.58 L341.53 602.52 L347.44 602.52 L348.5 603.06 L350.68 605.18 L352.05 605.33 L352.23 604.13 L353.43 603.76 L356.43 603.92 L356.43 602.52 L353.91 602.52 L353.91 601.12 L354.22 601.08 L354.87 601.17 L355.2 601.12 L355.2 599.84 L348.76 601.49 L346.48 601.12 L346.48 599.84 L349.56 595.77 L350.47 589.54 L349.22 584.24 L345.81 583.02 L345.81 584.29 L348.35 585.36 L348.07 588.2 L346.35 591.52 L342.97 596.11 L340.81 597.8 L338.37 598.35 L335.91 596.92 L336.88 600.29 L337.2 601.12 L333.54 597.18 L325.37 591.68 L313.78 587.32 L309.85 584.43 L307.66 583.4 L305.48 581.75 L303.63 578.55 L304.15 576.95 L304.02 574.91 L303.07 570.1 L310.13 570.56 L314.02 569.65 L316.67 567.28 L309.86 567.28 L305.55 564.82 L303.97 564.46 L299.31 565.71 L298.35 566.58 L297.53 567.85 L294.69 570.91 L293.67 571.64 L293.67 572.92 L298.28 574.99 L300.61 576.95 L301.77 580.07 L299.88 579.03 L295.78 578.4 L291.59 578.91 L289.04 579.97 L287.59 582.11 L288.78 585.69 L288.35 585.75 L288.08 586.13 L287.83 586.63 L287.49 587.09 L260.94 590.73 L257.73 588.5 L254.69 585.24 L251.87 583.22 L248.86 582.78 L233.8 588.29 L230.1 588.48 L228.82 588.4 L224.17 589.9 L199.65 584.29 L197.74 585.64 L196.07 588.21 L194.39 589.9 L192.45 588.5 L193.74 587.09 L191.61 587.1 L188.2 589.33 L185.3 590.25 L183.56 592.01 L182.55 592.71 L181.57 592.92 L172.8 591.91 L170.79 592.71 L170.36 593.29 L169.88 594.19 L169.31 595.02 L168.6 595.39 L167.5 594.77 L166.12 592.06 L165.12 591.43 L165.68 589.33 L166.39 588.01 L166.94 586.62 L167.08 584.29 L166.69 582.03 L165.93 581.03 L164.96 580.2 L163.93 578.55 L165.34 576.45 L167.16 568.94 L167.98 567.28 L171.97 567.26 L172.59 566.58 L172.21 564.44 L171.29 564.44 L169.19 565.87 L167.45 565.42 L165.54 563.93 L163.99 561.31 L163.37 557.43 L164.76 553.46 L165.12 551.78 L165.21 549.4 L165.06 545.07 L165.12 543.16 L165.01 541.49 L165.55 539.75 L166.51 538.3 L167.65 537.5 L168.95 537.99 L171.71 541.13 L174.86 543.34 L177.31 547.05 L179.53 552.06 L180.76 557.43 L179.46 557.43 L180.95 559.65 L183.15 560.33 L191.99 560.78 L194.17 560.25 L195.59 558.83 L194.58 557.3 L195.12 555.65 L196.35 554.18 L197.45 553.17 L198.77 552.51 L203.07 551.78 L206.38 549.18 L207.4 548.82 L208.53 549.28 L210.88 551.31 L212.08 551.78 L214.47 550.89 L218.88 547 L226.44 545.51 L228.9 543.82 L231.02 540.33 L231.79 541.52 L232.38 541.75 L232.9 541.29 L233.45 540.33 L233.45 539.05 L231.88 537.4 L229.7 535.85 L227.53 535.17 L226.02 536.09 L226.96 532.73 L229.21 531.1 L231.71 530.88 L233.45 531.83 L232.73 532.05 L231.02 533.39 L232.66 534.26 L234.5 534.5 L236.29 534.15 L237.83 533.39 L237.83 531.83 L235.97 531.83 L237.26 530.68 L237.83 530.41 L232.2 525.17 L229.14 523.53 L226.02 523.33 L228.76 521.2 L242.37 523.68 L243.03 524.52 L243.5 525.48 L244.02 526.17 L246.84 527.77 L248.28 527.64 L249.64 526.17 L248.61 526.35 L247.64 526.25 L246.73 525.73 L245.87 524.75 L246.95 523.14 L247.62 522.47 L248.41 521.91 L246.55 520.49 L248.9 519.6 L252.1 520.61 L253.32 520.58 L255.15 520.54 L257.06 516.35 L253.92 518.17 L252.23 518.39 L251.5 517.01 L252.12 514.52 L253.58 513.29 L256.44 511.85 L254.61 510.68 L251.87 510.35 L249.08 510.76 L247.1 511.85 L247.66 508.3 L246.63 506.68 L244.83 506.25 L242.29 506.35 L241.44 506.66 L240.64 507.27 L239.99 508.27 L236.59 507.56 L239.25 505.23 L240.13 503.53 L239.68 500.45 L245.24 496.5 L247.96 493.38 L249.95 489.81 L251.51 485.52 L252.37 484.29 L253.92 483.33 L255.89 482.86 L259.92 483.46 L261.6 483.46 L259.8 482.67 L259.02 481.9 L258.3 481.9 L261.97 478.79 L263.94 477.83 L266.09 477.47 L278.56 480.81 L280.68 480.34 L282.21 477.81 L283.21 476.17 L279.14 478.5 L276.97 477.47 L276.97 476.17 L277.83 476.21 L278.57 475.89 L280.01 474.74 L280.06 473.79 L279.93 473.53 L279.69 473.53 L279.44 473.3 L280.01 473.3 L263.54 472.25 L255.81 474.1 L248.96 480.34 L248.61 481.21 L248.32 482.36 L247.89 483.61 L247.1 484.76 L246.33 485.36 L244.57 485.98 L243.71 486.04 L242.28 486.6 L238.18 489.62 L236.9 491.24 L233.51 494.3 L229.22 493.72 L221.07 490.6 L221.07 489.05 L224.87 486.78 L228.49 483.33 L231.51 479.04 L233.45 477.81 L235.41 479.03 L237.08 477.23 L241.09 475.94 L242.84 474.74 L234.76 473.87 L232.26 474.74 L230.51 475.96 L229.1 476.42 L227.72 475.3 L226.02 471.74 L227.24 469.78 L227.44 467.26 L227.48 464.3 L228.18 461.06 L228.79 460.8 L229.52 461.41 L230.14 461.49 L230.61 457.85 L231.1 456.15 L232.26 453.24 L232.38 451.02 L234.67 448.88 L244.87 443.59 L250.26 443.05 L249.83 441.17 L248.97 440.11 L247.83 439.78 L246.55 440.04 L246.55 438.72 L248.2 437.14 L251.67 432.39 L254.7 431.02 L256.17 429.21 L257.06 428.5 L258.27 428.23 L262.07 428.5 L261.71 432.3 L263.54 432.92 L265.86 432.97 L267.01 435.12 L268.19 436.66 L275.73 437.15 L274.24 435.96 L271.08 436.28 L269.49 435.84 L268.19 434.4 L266.19 431.13 L264.54 430.08 L268.25 428.5 L268.25 427.2 L258.92 427.2 L258.92 425.61 L264.1 422.41 L265.78 420.64 L267.28 420.23 L274.44 421.42 L274.44 419.84 L267.39 418.32 L265.16 418.4 L259.36 423.85 L257.06 424.16 L257.06 422.72 L259.43 420.45 L260.3 418.89 L260.83 416.82 L257.21 420.8 L256.16 421.42 L255.33 422.51 L254.73 427.4 L253.63 428.5 L252.73 429.08 L248.96 432.82 L244.25 434.63 L242.84 435.84 L243.4 438.72 L240.71 437.77 L238.17 438.48 L232.88 443.05 L230.74 445.65 L229.31 446.52 L227.87 445.91 L226.9 443.87 L227.03 441.79 L228.49 437.15 L226.61 437.77 L225.72 440.13 L225.46 443.36 L225.45 446.63 L225.11 447.64 L222.93 451.67 L222.55 453.57 L222.55 455.05 L222.42 456.29 L221.69 457.54 L218.43 457.51 L217.92 458.26 L217.59 459.03 L216.83 459.67 L215.93 460.12 L215.2 460.29 L213.73 459.59 L212.09 457.72 L210.68 454.97 L209.88 451.67 L209.1 452.92 L208.39 453.72 L207.67 454.23 L206.78 454.54 L208.07 451.87 L209.19 448.59 L209.56 445.41 L208.64 443.05 L209.03 442.72 L209.88 441.61 L209.18 440.78 L208.45 440.25 L207.65 439.99 L206.78 440.04 L207.17 439.34 L208.07 437.15 L208.07 435.84 L203.91 438.98 L201.34 440.22 L199.37 440.04 L197.73 437.47 L197.07 434.01 L197.4 430.67 L198.69 428.5 L198.69 427.2 L197.12 426.89 L195.97 425.32 L195.18 423.56 L194.7 422.72 L193.53 422.12 L192.22 420.59 L190.97 418.67 L190.03 416.82 L192.29 417.83 L194.65 420.23 L197.05 421.7 L199.37 419.84 L197.45 419.84 L198 417.44 L198.86 415.85 L199.95 414.8 L201.16 414.05 L200.29 412.9 L199.92 412.61 L199.92 411.16 L210.42 405.86 L213.03 402.47 L213.03 401.02 L207.41 405.93 L204.42 407.53 L201.5 408.13 L199.03 409.73 L196.25 412.74 L193.7 414.57 L191.88 412.61 L193.07 411.75 L195.59 408.13 L197.43 406.2 L198.48 404.66 L199.37 402.47 L198.69 401.02 L199.5 400.64 L200.01 400.04 L201.16 398.13 L199.14 395.73 L196.41 394.96 L190.59 395.22 L191.88 392.32 L190.03 392.32 L190.67 390.16 L192.34 385.98 L193.12 383.48 L192.18 383.74 L191.36 384.58 L190.64 385.97 L190.03 387.82 L189.46 385.85 L188.72 385.05 L187.87 385.29 L186.93 386.37 L186.93 387.82 L181.94 386.37 L180.52 387.08 L177.85 390.11 L176.36 390.73 L176.36 392.32 L177.07 392.52 L178.84 393.77 L170.49 395.4 L168.32 393.77 L170.46 394.07 L171.55 393.9 L172.32 393.04 L172.05 391.85 L171.12 390.11 L169.99 388.53 L169.19 387.82 L159.6 387.82 L161.02 389.38 L165.79 392.32 L165.79 393.77 L163.36 393.67 L159.1 389.87 L156.5 389.41 L157.12 389.41 L145.76 388.36 L134.96 388.36 L122.48 387.43 L117.21 381.83 L112.19 381.46 L103.42 383.48 L103.37 384.08 L101.79 386.96 L101.17 387.82 L100.21 388.73 L99.2 389.4 L98.1 389.67 L87.56 386.37 L88.54 385.47 L89.61 384.93 L90.74 384.74 L89.21 384.1 L85.75 385.98 L83.03 389.54 L82.62 393.77 L80.94 398.76 L78.46 400.83 L71.76 401.02 L69.8 401.58 L65.83 403.8 L64 404.06 L57.45 400.23 L56.05 398.18 L54.75 397.66 L53.8 396.63 L53.42 393.04 L52.92 391.15 L49.04 384.93 L47.38 381.56 L45.98 377.98 L43.48 368.91 L44.09 367.32 L45.92 369.21 L47.62 368.41 L50.95 364.4 L52.69 363.3 L62.53 360.46 L64.45 360.69 L71.74 365.52 L81.72 367.32 L82.57 366.76 L84.23 364.05 L85.09 363.07 L88.83 363.28 L89.75 362.34 L93.06 357.09 L96.78 355.8 L104.99 357.24 L104.99 355.64 L104.47 355.02 L104.21 354.41 L104.02 353.67 L103.7 352.72 L107.5 352.45 L108.74 353.6 L108.09 357.24 L109.28 358.15 L110.07 357.01 L110.78 355.57 L111.8 355.64 L112.12 357.7 L112.14 360.69 L112.61 362.24 L114.27 360.03 L115.69 361.39 L117.32 360.56 L118.66 358.55 L119.22 356.43 L118.89 354.25 L118.2 351.47 L117.72 348.41 L117.99 345.4 L120.48 341.97 L124.25 341.29 L131.66 342.47 L130.97 344.92 L129.85 346.58 L127.26 348.46 L127.52 349.3 L127.94 351.39 L126.88 351.63 L126.12 352.44 L125.48 353.8 L124.79 355.64 L129.8 363.07 L129.26 359.83 L129.19 357.14 L129.6 354.84 L130.48 352.72 L131.06 352.24 L132.78 351.91 L133.51 351.39 L134.09 350.19 L134.67 347.44 L135.08 346.13 L137.58 342.81 L140.18 342.55 L142.63 344.68 L144.7 348.46 L146.14 346.24 L148.03 344.85 L153.59 343.47 L158.98 339.68 L157.54 338.75 L150.95 339.68 L150.95 338.08 L154.76 337.2 L161.53 330.16 L165.12 329.28 L164.6 330.15 L163.93 330.75 L165.55 331.19 L167.08 332.22 L166.94 333.87 L166.89 334.16 L166.93 334.18 L167.08 335.02 L165.81 336.89 L163.07 338.43 L162.07 339.68 L163.27 340.02 L164.78 339.9 L166.34 339.27 L167.65 338.08 L168.25 342.23 L169.02 343.98 L172.03 345.4 L176.08 349.17 L177.6 349.8 L177.6 348.46 L176.47 347.78 L175.45 346.44 L173.21 342.47 L175.67 339.17 L177.02 338.12 L178.84 338.08 L179.02 335.23 L180.71 334.4 L188.28 334.77 L195.7 332.98 L207.95 335.46 L216.07 339.68 L216.99 339.12 L218.37 337.19 L219.22 336.61 L226.02 336.61 L227.86 337.47 L229.8 338.98 L231.71 339.69 L231.88 339.53 L233.45 338.08 L235.82 339.69 L245.87 338.08 L248.28 336.02 L248.37 333.36 L246.75 331.22 L244.02 330.75 L244.93 327.9 L246.01 326.95 L247.33 326.43 L248.96 324.87 L250.12 322.38 L253.92 311.37 L254.22 303.9 L251.32 300.84 L247.39 301.24 L244.58 304.14 L244.58 305.61 L245.25 305.61 L245.25 307.22 L231.59 319 L227.06 320.9 L201.23 315.85 L194.72 310.49 L193.74 310.04 L193.3 310.17 L192.01 311.14 L183.75 312.44 L181.32 311.37 L179.6 309.27 L180.99 308.35 L183.64 307.51 L185.7 305.61 L186.39 306.74 L187.07 307.19 L188.73 307.22 L188.73 305.61 L186.73 304.12 L184.43 303.89 L180.07 305.61 L181 302.41 L182.65 299.32 L185.7 295.29 L189.91 293.27 L191.51 291.43 L191.27 287.9 L192.6 287.32 L195.87 287.9 L196.68 287.06 L199.37 281.85 L201.78 279.97 L211.89 277.08 L220.43 270.43 L223.71 266.29 L229.51 263.27 L231.59 260.95 L231.38 260.71 L231.16 260.77 L231 260.58 L231.02 259.6 L232.38 259.76 L234.61 262.26 L235.97 262.44 L235.16 259.08 L234.74 257.98 L240.36 254.68 L252.12 250.94 L255.55 248.87 L257.73 247.57 L249.03 250.45 L245.87 250.53 L239.41 249.06 L234.03 250.67 L232.26 250.53 L234.04 247.15 L235.97 244.59 L232.7 241.34 L231.48 238.97 L231.02 235.64 L229.84 236.54 L228.59 237.08 L227.3 237.29 L226.02 237.13 L226.53 240.2 L225.73 241.18 L224.44 240.87 L223.49 240.12 L222.66 238.15 L220.96 232.92 L219.78 231.15 L220.25 234.85 L220.03 237.94 L219.23 240.64 L217.92 243.09 L216.32 245.12 L215.4 245.9 L214.58 246.2 L214.25 247.14 L213.68 249.18 L212.95 251.22 L212.08 252.16 L208.66 252.48 L207.13 251.86 L204.7 248.01 L199.37 243.09 L195.55 241.13 L195.05 239.2 L196.83 235.64 L198.79 234.17 L208.83 231.96 L213.03 228.99 L215.2 228.31 L216.2 227.35 L216.47 225.11 L216.48 222.52 L216.69 220.56 L217.47 219.02 L218.47 217.84 L220.45 216.21 L217.77 216.96 L211.12 226.68 L208.03 229.28 L205.08 230.67 L198.69 231.15 L198.69 229.66 L202.52 226.88 L203.69 225.32 L203.69 223.68 L201.81 223.83 L200.46 225.12 L198.12 228.31 L196.25 229.04 L195.1 228.15 L194.05 226.93 L192.45 226.68 L192.45 228.31 L193.55 229.99 L193.08 231.96 L191.76 233.6 L186.76 235.64 L185.42 234.94 L184.46 231.15 L184.37 227.57 L184.71 224.88 L184.69 222.15 L183.51 218.44 L181.75 210.72 L180.67 208.03 L179.54 210.07 L179.6 211.25 L179.53 213.62 L179.66 215.96 L181.11 220.63 L181.12 222.42 L180.61 224.1 L178.87 227.96 L177.88 229.45 L176.74 229.61 L175.4 227.5 L173.68 223.35 L172.91 222.99 L172.34 228.69 L171.66 230.42 L170.68 231.25 L169.5 231.15 L168.8 230.22 L168.08 228.46 L166.01 221.59 L165.62 218.01 L166.27 214.34 L168.32 210.21 L167.5 209 L167.04 209.32 L166.59 210.07 L165.79 210.21 L163.37 208.58 L161.84 208.58 L161.32 208.95 L160.9 210.21 L160.96 211.47 L161.77 216.21 L162.64 218.92 L165.12 235.64 L163.85 237 L162.3 236.66 L160.63 235.81 L158.98 235.64 L158.98 234.28 L159.5 232.46 L159.06 230.99 L158.03 230.02 L156.81 229.66 L153.81 230.65 L152.82 230.38 L152.74 228.31 L152 228.48 L149.71 228.31 L149.71 226.68 L151.9 224.47 L155.95 218.89 L158.37 217.69 L157.46 215.28 L155.94 213.61 L152.74 211.57 L152.24 216.46 L150.4 220.65 L148.11 222.76 L146.25 221.37 L145.66 218.97 L145.25 216.29 L144.71 214.1 L143.74 213.21 L143.5 214.69 L143.06 221.61 L142.79 223.68 L140.86 226.19 L135.42 227.53 L132.87 228.99 L127.87 226.51 L125.2 223.78 L125.47 220.56 L125.47 219.19 L122.94 220.68 L121.4 225.01 L121.28 229.79 L122.99 232.65 L122.99 234.28 L121.82 235.5 L119.76 238.89 L118.55 240.12 L117.1 240.57 L111.07 239.85 L108.59 238.73 L107.13 238.49 L105.72 237.78 L104.65 236.16 L103.65 234.22 L103.14 234.28 L102.53 234.38 L102.1 234.69 L101.17 235.64 L101.58 235.93 L101.84 236.23 L102.46 237.13 L99.86 238.23 L95.09 242.21 L82.86 244.71 L80.08 243.09 L80 245.71 L79.61 246.56 L79 246.78 L78.23 247.57 L74.82 253.51 L58.2 258.19 L54.01 257.69 L50.33 255.13 L50.33 253.51 L50.84 251.78 L50.46 250.2 L49.55 248.78 L48.48 247.57 L50.13 247.68 L50.83 248.14 L51.57 249.06 L51.84 245.05 L50.17 243.02 L48.1 243.32 L47.18 246.2 L45.01 242.94 L31.1 237.13 L5.27 239.91 L1.96 239.27 L0 235.64 L3.98 233.24 L5.99 231.22 L6.86 228.99 L8 227.5 L13.3 224.1 L14.91 222.2 L15.27 218.8 L15.26 214.84 L15.78 211.57 L18.56 209.71 L20.15 207.57 L21.43 207.07 L23.73 207.5 L32.55 212.78 L35.09 213.21 L36.65 214.15 L41.62 220.56 L45.19 222.84 L51.52 224.56 L53.02 226.64 L54.34 229.1 L55.9 231.15 L58.63 232.54 L61.27 232.36 L66.42 229.66 L62.29 229.82 L60.14 229.23 L58.43 228.31 L56.95 226.35 L55.68 223.77 L54.28 221.53 L52.47 220.56 L48.01 215.62 L45.53 211.28 L42.64 207.37 L41.06 204.22 L54.72 207.07 L63.6 212.33 L66.42 213.21 L64.69 209.81 L62.27 206.94 L59.68 204.94 L55.74 203.48 L51.04 200.31 L46.85 198.76 L44.85 196.82 L41.62 192.2 L37.9 184.53 L37.6 181.73 L37.71 179.07 L37.61 176.47 L36.67 173.86 L40.51 170.41 L44.4 170.68 L82.62 192.2 L83.48 193.28 L85.09 196.56 L87.55 198.49 L88.18 199.57 L89.11 203.49 L88.71 205.97 L87.75 208.25 L87 211.57 L88.62 212.5 L90.7 210.83 L94.42 205.57 L94.78 206.67 L96.22 208.58 L97.21 206.51 L102.13 207.76 L104.32 207.07 L104.32 205.57 L103.52 205.13 L103.15 204.63 L102.46 202.58 L104.04 202.46 L108.09 199.57 L109.56 199.39 L111.01 199.61 L112.39 199.43 L113.66 198.07 L102.91 198.98 L98 197.39 L94.42 195.06 L93.17 193.59 L91.56 190.99 L90.67 188.52 L91.58 187.41 L97.22 184.78 L98.45 185.29 L99.85 186.55 L107.25 185.54 L109.61 183.38 L111.46 182.89 L115.43 184.43 L117.37 184.62 L119.22 182.89 L118.08 181.73 L117.51 181.36 L116.75 181.38 L116.75 180.03 L121.02 177.02 L122.32 175.36 L117.35 176.07 L114.49 177.4 L110.6 180.95 L86.18 180.35 L81.38 178.37 L78.23 175.36 L73.46 177.13 L72.38 176.18 L71.12 173.89 L65.85 167.95 L62.94 161.96 L61 154.74 L61.32 148.02 L65.18 143.6 L66.96 143.5 L72.1 146.63 L78.85 148.16 L80.54 149.27 L83.42 152.86 L85.09 154.21 L86.8 154.43 L92.51 152.7 L103.7 157.23 L107.42 157.23 L113.87 162.02 L117.37 163.47 L120.51 161.9 L113.02 159.46 L110.63 156.44 L103.14 155.73 L100.8 154.33 L96.55 150.46 L87.16 148.2 L85.09 146.63 L80.17 139.86 L77.68 138.44 L76.47 136.36 L74.51 135.53 L70.36 131.55 L66.66 126.36 L65.85 124.55 L65.84 117.67 L66.36 114.06 L67.71 111.38 L71.44 110 L76.14 111.08 L92.56 121.14 L97.37 122.41 L100.61 120.52 L101.03 124.02 L102.15 127.01 L103.72 129.08 L105.56 129.8 L105.56 128.41 L104.02 126.03 L101.24 119.09 L99.38 117.62 L97.3 117.14 L93.14 115.05 L90.97 114.57 L89.96 113.81 L87.2 109.99 L81.89 105.16 L78.85 100.85 L81.78 98.39 L89.68 97.61 L95.66 98.59 L103.7 105.29 L101.55 103.28 L97.99 97.37 L95.94 96.12 L87.24 96.33 L85.09 94.73 L85.09 93.06 L85.98 91.36 L87.3 89.34 L88.82 87.64 L89.7 87.23 L90.35 86.93 L94.1 86.74 L95.53 85.45 L95.66 82.48 L97.72 81.42 L111.95 85.55 L121.17 92.43 L123.9 93.06 L125.69 94.51 L127.98 97.92 L129.54 101.96 L129.18 105.29 L129.8 110.15 L134.27 103.06 L136.04 102.23 L137.01 102.82 L137.87 104.18 L139.13 106.95 L140.78 109.34 L140.97 110.55 L140.99 113.81 L141.48 117.42 L141.62 119.58 L141.02 121.22 L139.49 124.1 L139.13 124.55 L135.07 132.31 L134.18 134.5 L134.75 134.5 L136.69 131.33 L141.65 125.2 L143.46 122.2 L143.97 120.39 L144.38 118.36 L144.95 116.73 L145.94 116.1 L147.02 116.8 L147.71 118.47 L149.03 123.72 L148.6 124.71 L148.42 125.38 L149.72 124.09 L151.16 121.95 L152.61 120.73 L153.98 122.2 L152.43 127.38 L150.31 132.59 L147.7 136.79 L144.7 138.91 L148.34 138.68 L149.99 137.81 L151.51 135.87 L153.24 130.17 L154.55 126.77 L155.55 126.06 L156.81 132.07 L156.24 138.26 L155.41 143.49 L155.89 146.63 L158.98 135.87 L158.81 130.9 L159.19 125.16 L159.95 119.83 L160.9 116.1 L161.63 114.41 L162.13 114.06 L168.27 114.63 L168.88 115.34 L169.1 118.36 L169.67 120.19 L170.46 121.32 L173.93 125.03 L177.2 131.27 L177.73 132.07 L177.81 133.07 L177.4 137.9 L177.02 140.35 L176.46 142.51 L175.75 143.6 L175.98 144.42 L176.36 144.97 L171.7 158.06 L170.74 162.13 L171.4 164.01 L172.58 163.66 L174.71 155.12 L180.72 138.88 L181.32 134.5 L181.32 132.83 L183.25 132.48 L184.49 134.59 L185.53 137.74 L186.93 140.57 L187.59 140.73 L188.11 140.19 L188.67 140.2 L189.41 142.09 L189.36 143.88 L188.87 145.6 L188.8 147.1 L190.03 148.16 L190.19 147.03 L190.61 144.8 L191.22 143.11 L191.88 143.6 L191.89 145.12 L191.27 152.7 L190.52 155.19 L188.42 159.44 L187.55 161.9 L187.55 163.28 L191.02 161.31 L194.55 148.94 L197.45 146.63 L197.45 144.97 L195.58 142.93 L194.55 138.64 L193.89 133.73 L193.12 129.8 L191.8 126.63 L190.08 123.64 L188.16 121.41 L186.26 120.52 L187.19 117.62 L187.59 114.9 L188.11 112.39 L189.41 110.15 L191.14 109.26 L192.95 109.15 L194.54 108.33 L195.59 105.29 L193.73 105.36 L189.26 107.64 L187.55 109.31 L185.88 109.97 L178.29 106.17 L173.21 100.85 L151.67 91.44 L145.33 84.65 L141.55 74.67 L145.78 71.93 L159.23 68.25 L162.07 68.38 L171.7 71.46 L174.2 71.46 L175.17 71.84 L175.66 72.77 L175.96 73.83 L176.36 74.67 L178.8 77.22 L180.08 77.55 L181.32 76.21 L180.7 75.44 L180.26 74.43 L179.46 71.46 L183.93 71.49 L186.23 70.86 L190.21 67.64 L194.74 67.17 L196.83 65.44 L184.52 67.42 L180.76 65.44 L178.97 63.55 L179.35 63.24 L180.81 63.08 L182.27 61.52 L183.23 59.83 L184.56 58.48 L186.06 57.71 L187.55 57.76 L187.55 56.07 L185.54 54.91 L184.34 55.34 L180.76 59.15 L176.15 61.72 L170.79 62.24 L166.55 61.35 L165.79 60.84 L165.67 58.4 L166.45 56.77 L168.32 54.53 L168.66 52.92 L169.14 48.39 L169.5 46.97 L170.74 45.6 L175.07 43.74 L171.13 44.57 L168.16 46.7 L160.99 54.52 L159.31 55.46 L155.55 56.07 L154.44 54.75 L155.05 51.79 L156.45 48.69 L157.69 46.97 L157.69 45.29 L154.59 46.58 L153.05 47.91 L151.51 49.92 L147.89 56.45 L147.17 56.92 L144.99 59.53 L130.64 55.73 L126.9 53.59 L124.44 50.32 L122.96 48.85 L122.34 47.38 L123.55 45.29 L127.03 45.04 L131.41 46.75 L135.29 46.17 L137.27 39.12 L134.72 38.73 L131.85 36.53 L129.2 33.32 L127.26 29.84 L130.03 27.57 L132.88 28.9 L135.73 31.48 L138.46 32.93 L137.79 30.39 L137.33 29.29 L136.6 28.16 L146.52 26.48 L147.17 26.74 L147.72 27.66 L148.48 30.42 L149.03 31.38 L150.98 31.89 L151.8 30.17 L151.47 27.9 L149.99 26.74 L148.5 26.16 L144.02 22.09 L153.08 22.09 L154.69 22.81 L157.89 26.02 L161.98 27.6 L165.24 31.64 L167.08 32.93 L169.4 32.53 L172.94 28.3 L175.07 26.74 L174.87 25.91 L174.51 23.64 L178.07 22.34 L181 24.72 L183.85 28.12 L190.1 31.24 L191.47 30.95 L191.88 28.16 L191.23 25.91 L188.85 24.25 L188.17 22.09 L191.07 22.6 L193.87 25.44 L196 29.9 L196.83 35.25 L198.41 38.59 L205.79 42.72 L208.07 46.97 L206.78 49.22 L207.95 50.58 L211.8 51.46 L211.8 53 L210.14 52.45 L209.45 53.42 L209.31 55.36 L209.32 57.76 L209.77 58.92 L210.57 60.49 L210.73 62.18 L209.32 63.78 L209.32 65.44 L210.5 66.98 L211.73 65.61 L213.17 64.48 L214.67 63.79 L216.07 63.78 L216.9 64.78 L217.63 66.32 L218.5 67 L219.22 65.44 L220.56 62.6 L222.01 62.14 L222.84 63.72 L222.31 66.98 L228.76 66.3 L230.4 66.98 L231.2 65.57 L232 65.5 L232.76 66.18 L233.45 66.98 L233.96 67.83 L237.21 73.14 L236.35 74.73 L231.02 79.26 L232.23 80.09 L233.39 79.46 L234.61 78.29 L235.97 77.6 L237.31 77.94 L241.54 81.5 L242.68 83.23 L243.4 83.86 L244.3 83.91 L246.13 82.74 L247.1 82.48 L252.79 85.55 L252.52 86.35 L252.12 88.47 L253.68 89.49 L254.58 92.17 L254.56 94.89 L253.35 96.12 L253.69 97.51 L254.43 99.73 L254.59 100.85 L254.61 100.77 L254.76 104.44 L255.22 108.74 L255.82 110.24 L257.06 111.38 L258.35 111.18 L259.93 110.18 L261.48 109.77 L262.63 111.38 L262.81 114.47 L262.01 117.27 L260.93 119.83 L260.21 122.2 L261.37 121.87 L262.81 120.84 L264.02 119.54 L264.54 118.39 L264.58 114.65 L264.49 112.93 L262.63 108.47 L263.76 107.22 L266.98 105.57 L271.01 105.29 L271.68 106.06 L272.18 107.71 L272.57 109.38 L272.92 110.15 L274.6 110.95 L273.51 112.69 L271.57 114.27 L270.73 114.57 L270.13 116.71 L270.53 118.33 L272.28 121.35 L274.58 123.28 L284.4 120.52 L287 121.22 L289.14 122.47 L290.77 125.07 L291.87 129.8 L279.12 131.02 L276.69 133.05 L267.13 135.9 L265.78 135.87 L267.44 139.02 L269.98 138.67 L275.09 135.87 L283.58 134.32 L286.25 135.87 L285.15 137.75 L281.25 140.57 L281.25 142.09 L291 139.26 L293.39 141.33 L294.71 145.8 L295 149.62 L293.92 152.52 L291.2 154.21 L295.53 157.23 L295.53 158.88 L291.03 169.47 L289.4 172.34 L286.73 174.8 L277.53 178.37 L277.53 180.03 L279.49 180.17 L282.87 179.52 L284.4 180.03 L289.21 183.13 L290.64 184.53 L283.21 193.55 L280.55 195.61 L268.25 195.06 L267.38 194.04 L265.89 191.17 L265.47 190.56 L263.72 189.25 L262.09 186.34 L260.99 183.26 L260.83 181.38 L258.58 178.21 L255.79 176.67 L252.88 176.75 L250.26 178.37 L252.02 178.66 L256.28 181.48 L257.73 182.89 L257.92 183.49 L259.82 187.09 L260.21 187.41 L260.44 190.08 L260.16 191.83 L259.43 193.3 L258.3 195.06 L259.76 196.56 L260.51 197.67 L260.83 198.82 L261.31 201.74 L262.35 203.4 L263.39 204.29 L263.86 204.9 L265.47 206.38 L280.6 205.97 L283.19 207.34 L284.4 210.21 L283.47 212.71 L278.79 220.21 L276.97 222.2 L276.97 223.68 L281.36 221.24 L286.9 216.17 L291.66 215.09 L293.67 224.5 L291.75 232.5 L287.22 240.2 L281.88 245.79 L277.53 247.57 L277.53 249.06 L286.67 245.49 L290.18 242.33 L292.15 241.6 L294.19 242.03 L295.5 243.22 L298.06 247.57 L301.51 250.88 L302.44 253.01 L301.77 256.62 L303.05 257.43 L303.24 259.07 L303.02 261.33 L303.07 264.06 L303.61 268.86 L303.63 272.22 L303.21 276.58 L303.26 278.72 L306.78 290.11 L308.01 292.33 L307.65 292.72 L307.56 292.86 L307.54 293.05 L307.34 293.66 L309.15 295.61 L310.98 299.21 L311.94 303.43 L311.11 307.22 L311.11 308.56 L312.58 309.86 L313.16 309.38 L314.09 308.59 L314.8 305.63 L313.48 300.37 L313.22 296.87 L312.97 295.29 L312.17 293.08 L310.58 289.81 L309.86 287.9 L311.2 285.48 L311.72 284.81 L311.4 282.93 L311.98 281.55 L312.89 280.35 L313.58 279.01 L314.07 275.68 L314.02 272.66 L312.14 256.2 L311.77 249.29 L312.93 246.2 L315.73 247.79 L317.67 251.69 L320.44 260.95 L323.08 266.26 L323.48 267.77 L324.09 269.34 L327.18 270.35 L328.42 271.48 L329.1 269.84 L326.74 264.85 L324.6 258.16 L323 251.01 L322.24 244.59 L321.91 239.45 L321.88 235.91 L322.24 232.65 L322.65 231.45 L323.75 229.37 L324.15 228.31 L325.1 221.99 L325.39 220.56 L328.15 215.19 L338.38 207.07 L343.95 199.57 L345.63 198.64 L347.36 198.14 L348.64 197.23 L348.95 195.06 L350.14 194.86 L351.01 195.53 L352.72 198.07 L353.11 198.14 L354.27 197.87 L354.58 198.07 L354.85 199.96 L354.58 200.57 L354.14 200.7 L353.91 201.22 L353.27 210.01 L353.19 214.44 L353.91 217.69 L352.82 221.4 L352.76 225.22 L353.74 227.51 L355.76 226.68 L354.83 222.67 L354.99 219.13 L356.16 217.48 L358.28 219.19 L359.08 220.62 L359.17 221.49 L359.12 222.76 L359.47 225.32 L359.1 226.99 L358.9 228.46 L358.9 229.66 L359.22 229.58 L360.91 230.59 L361.44 231.15 L362.07 232.98 L362.41 234.46 L362.86 235.77 L363.86 237.13 L364.87 237.96 L365.95 238.49 L367.09 238.69 L368.24 238.49 L368.54 238.28 L370.25 237.07 L371.04 234.74 L371.51 231.36 L372.57 226.68 L371.53 225.76 L370.14 222.82 L369.12 222.2 L366 222.47 L364.49 222.04 L363.24 220.56 L366.26 219.39 L369.12 219.19 L370.32 218.73 L372.81 216.66 L374.12 216.21 L375.27 218.27 L374.91 228.01 L376.22 231.15 L375.89 227.63 L376.73 225.01 L377.31 222.49 L376.22 219.19 L377.26 216.28 L380.17 212.01 L381.57 209.39 L381.91 207.78 L382.02 204.2 L382.47 202.58 L383.32 201.74 L384.99 201.76 L386.86 201.22 L384.85 200.8 L383.61 198.08 L383.44 195.02 L384.67 193.55 L385.85 192.69 L386.73 190.43 L387.28 187.3 L387.48 183.71 L386.76 178.05 L385 172.87 L382.76 168.77 L380.61 166.44 L380.61 164.79 L383.02 162.53 L382.11 156.09 L379.76 148.89 L376.33 141.06 L375.69 138.98 L375.1 131.33 L374.54 127.64 L373.56 124.77 L372.24 122.47 L370.66 120.52 L372.05 118.34 L373.33 114.95 L373.75 111.33 L372.57 108.47 L374.4 106.83 L376.57 106.45 L380.34 106.95 L381.24 106.56 L382.88 104.64 L383.76 103.89 L384.95 103.51 L388.15 103.89 L389.89 102.89 L393.15 98.72 L394.59 97.79 L399.03 99.43 L400.02 99.54 L401.06 99.65 L403 97.79 L403.46 102.57 L404.66 105.35 L406.41 107.05 L408.56 108.47 L407.94 110.15 L408.89 111.04 L409.56 112.72 L410.42 116.1 L411.61 119.41 L415.43 126.76 L415.98 128.73 L416.29 130.47 L416.77 131.89 L417.85 132.83 L417.53 133.52 L416.98 135.19 L416.66 135.87 L418.42 138.84 L420.75 141.27 L422.43 144.08 L422.23 148.16 L423.86 149.73 L428.75 150.54 L432.37 152.98 L433.46 152.92 L434.46 153.13 L435.59 154.97 L436.11 155.58 L437.27 155.36 L437.76 155.73 L438.32 157.33 L438.57 158.9 L438.71 160.44 L438.99 161.9 L440.99 166.33 L441.52 167.95 L441.91 170.7 L442.42 176.67 L443.01 179.2 L444.97 181.89 L449.59 183.3 L451.42 186.04 L451.98 181.34 L452.62 179.67 L455.41 180.03 L455.76 180.41 L457.01 182.27 L457.66 182.89 L458.68 183.19 L461.25 183.05 L460.45 183.54 L459.79 184.29 L459.51 185.29 L459.84 187.08 L460.61 187.14 L462.27 186.04 L463.23 184.72 L464.06 181.65 L465.08 175.36 L465.72 168.92 L465.77 163.36 L465.17 158.15 L463.85 152.7 L461.27 145.01 L461.03 143.6 L455.7 137.54 L455.65 135.95 L456.05 133.86 L456.83 132.09 L457.94 131.33 L459.59 130.95 L461.39 129.8 L463.11 127.94 L464.46 125.38 L463.47 124.1 L462.59 122.31 L461.87 120.1 L461.01 115.36 L461 114.6 L461.39 114 L462.27 112.22 L463.9 110.17 L469.08 107.36 L481.16 105.29 L485.41 108.57 L487.66 108.98 L487.47 105.29 L488.17 104.4 L488.9 103.85 L489.69 103.66 L490.56 103.89 L490.31 104.75 L489.94 106.95 L491.76 107.67 L494.83 110.91 L496.69 111.38 L495.55 110.29 L494.72 109.01 L494.13 107.38 L493.65 105.29 L494.27 105.29 L494.27 103.89 L493.77 103.53 L492.91 102.6 L492.41 102.23 L492.41 100.85 L493.26 99.29 L494.24 94.03 L494.83 91.66 L495.72 90.29 L498.86 87.47 L506.95 84.45 L509.83 85.86 L509.17 93.06 L510.91 92.35 L512.12 90.38 L514.18 85.55 L513.78 83.34 L513.5 82.48 L515.16 81.15 L517.61 81.58 L522.16 83.86 L521.45 87.21 L519.92 92.08 L519.64 95.42 L520.64 95.35 L527.17 88.47 L529.82 89.09 L532.01 91.79 L533.87 94.73 L535.55 96.12 L536.4 97.72 L535.35 101.27 L532.79 106.95 L533.93 107.05 L535.23 106.69 L536.46 105.87 L537.38 104.59 L538.44 103.74 L539.62 104.69 L540.78 106.17 L541.79 106.95 L543.21 108.62 L544.09 112.53 L544.81 117.05 L545.78 120.52 L544.11 127.2 L543.39 131.11 L543.62 132.83 L550.11 134.5 L554.29 137.17 L561.01 138.17 L561.92 138.91 L562.89 140.65 L564.42 144.28 L566.51 145.96 L567.21 148.24 L567.68 150.81 L568.49 153.74 L568.66 154.71 L568.96 155.44 L569.68 155.73 L571.34 155.48 L572.16 155.66 L572.78 156.47 L573.68 159.23 L573.93 161.05 L573.73 167.2 L574.09 169.71 L575.76 173.67 L576.27 175.36 L576.25 184.61 L576.55 186.04 L577.33 186.66 L579.97 190.56 L584.25 195.06 L583.76 198 L584.21 201.92 L585.3 205.04 L586.78 205.57 L587.92 202.84 L587.84 198.81 L587.07 194.83 L586.16 192.2 L585.43 191.37 L583.55 189.91 L583.02 189.05 L582.62 186.56 L582.89 185.14 L583.38 184.13 L583.69 182.89 L583.63 180.82 L583.42 179.29 L583.34 177.71 L583.69 175.36 L584.16 174.49 L585.72 173.05 L586.16 172.34 L586.69 168.23 L586.42 164.7 L583.69 154.21 L583.62 153.52 L583.69 150.43 L583.45 149.59 L582.9 149.63 L582.26 149.88 L581.77 149.67 L579.99 145.73 L579.3 144.97 L579.21 144.74 L579.07 144.26 L578.82 143.81 L578.34 143.6 L577.89 144.08 L577.15 146.21 L576.83 146.63 L575.6 145.8 L572.8 142.19 L571.87 140.57 L572.73 137.42 L572.38 134.43 L571.23 132.21 L568.62 130.46 L566.79 125.85 L565.64 123.72 L565.64 122.2 L566.31 122.2 L566.31 120.52 L563.85 114.29 L562.72 103.88 L563.2 93.4 L565.64 86.93 L566.84 86.39 L574.97 86.93 L576.21 87.67 L578.39 89.6 L579.64 89.99 L583.51 89.6 L584.92 89.99 L584.74 90.81 L584.74 91.12 L584.68 91.26 L584.25 91.66 L587.65 93.67 L596.58 91.3 L600.45 93.06 L601.19 94.78 L602.13 99.19 L602.92 100.85 L603.92 101.36 L607.59 100.85 L609.17 101.8 L612.08 106 L613.77 106.95 L614.98 108.03 L618.54 113.64 L619.68 116.1 L621.14 122.53 L622.18 125.51 L625.08 127.7 L626.63 129.93 L628.96 134.5 L632.04 143.74 L633.35 146.63 L633.71 142.4 L632.95 139.09 L631.76 136.11 L630.81 132.83 L632.58 132.94 L634.65 132.37 L636.68 131.27 L638.29 129.8 L629.97 130.25 L627.78 128.41 L642.19 128.16 L643.25 129.23 L643.86 131.76 L645.15 135.87 L645.71 135.87 L646.2 134.3 L646.31 132.65 L645.97 131.12 L645.15 129.8 L645.15 128.41 L646.32 127.39 L647.35 125.73 L647.91 123.44 L647.63 120.52 L649.07 118.88 L649.65 117.78 L650.11 116.1 L650.17 114.82 L649.96 111.36 L650.11 108.47 L651.24 105.41 L653.54 102.45 L656.22 100.19 L658.48 99.32 L659.46 98.12 L659.98 95.49 L660.06 92.87 L659.69 91.66 L658.7 90.99 L659.14 89.39 L660.99 86.24 L663.46 83.65 L669 81.53 L669.96 77.6 L672.34 79.86 L681.46 80.8 L683.84 82.46 L683.92 82.63 L685.68 86.52 L689.19 96.12 L689.09 97.33 L689.09 97.81 L689.13 98.24 L689.19 99.32 L687.95 99.32 L687.95 100.85 L689.01 101.8 L690.15 102.3 L691.28 102.08 L692.34 100.85 L691.74 100.67 L690.42 99.32 L693.65 96.86 L705.06 93.66 L708.42 94.73 L706.96 94.67 L705.52 95.16 L704.15 96.18 L702.85 97.79 L704.01 98.58 L705.64 101.81 L706.28 101.53 L708.12 97.06 L709.2 95.25 L710.28 94.73 L712.84 97.22 L714.71 101.19 L716.71 104.58 L719.67 105.29 L719.67 103.89 L716.77 101.78 L715.33 100.17 L714.35 98.55 L713.64 95.62 L713.62 93.41 L713.26 91.66 L711.57 89.99 L715.7 86.99 L721.88 84.93 L725.61 82.54 L727.71 82.48 L719.69 87.23 L717.19 89.99 L725.14 86.82 L727.03 86.93 L729.23 88.95 L732.76 94.37 L735.13 94.73 L735.13 93.06 L731.94 89.72 L730.32 87.2 L729.62 84.71 L729.98 81.28 L730.92 78.39 L732.29 76.15 L733.89 74.67 L733.95 73.61 L733.81 73.34 L734.11 72.26 L734.91 70.5 L735.52 68.33 L735.75 66.21 L735.52 62.77 L734.92 60.88 L734.04 59.34 L732.6 55.92 L732.16 55.18 L731.64 54.69 L731.08 54.53 L730.61 53.69 L730.44 51.79 L730.37 49.75 L730.19 48.51 L727.68 46.47 L727.06 44.66 L727.71 40.65 L727.41 40.57 L726.47 40.65 L726.79 39.9 L727.38 38.18 L727.71 37.43 L727.07 36.78 L726.63 35.82 L725.8 32.93 L727.71 32.93 L727.71 31.38 L726.14 29.18 L724.4 21.95 L721.84 18.91 L722.66 15.77 L724.53 13.01 L726.47 12.66 L727 14 L727.07 15.73 L727.31 17.13 L728.33 17.44 L728.58 16.41 L728.95 14.23 L729.62 12.08 L730.81 11.1 L733.35 10 L734.82 10.09 L734.85 11.88 L734.39 14.39 L734.7 16.5 L735.48 18.07 L736.43 18.85 L736.25 17.61 L736.18 16.61 L736.07 15.61 L735.75 14.34 L737.18 13.78 L739.86 11.47 L740.71 11.1 L742.04 12.28 L743.04 14.03 L744.12 15.47 L745.71 15.75 L744.43 17.13 L743.85 17.44 L745.41 18.85 L747.09 18.52 L748.86 17.65 L749.41 17.44 L749.41 15.75 L750.42 14.14 L751.35 11.95 L752.41 10.53 L752.57 11.1 L753.2 13.71 L754.26 14.1 L755.23 12.79 L755.97 8.49 L756.75 7.45 L758.76 6.44 L761.27 6.44 L766.43 8.7 L767.46 8.12 L771.68 6.27 L779.31 13.99 L783.61 15.75 L782.39 17.83 L780.97 18.76 L779.79 20.16 L779.23 23.64 L780.15 23.58 L780.46 23.64 L780.46 25.06 L778.61 26.74 L779.1 27.38 L780 29.18 L780.46 29.84 L779.4 31.88 L780.63 32.21 L783.89 31.38 L787.53 32.22 L789.12 31.38 L788.95 32.42 L788.71 34.94 L788.56 36.03 L797.22 36.03 L798.85 36.63 L800.33 38.2 L801.17 40.24 L800.98 42.33 L800.98 43.74 L802.79 49.92 L799 57.06 L796.87 59.96 L794.13 62.24 L795.37 65.44 L796.45 64.22 L797.56 64.91 L798.81 66.25 L801.79 67.57 L802.11 69.16 L801.71 71.6 L800.98 74.67 L802.39 75.9 L809.03 76.21 L812.22 74.73 L813.29 75.03 L813.75 76.04 L814.65 77.6 L815.05 77.58 L815.58 77.18 L816.45 76.21 L816.66 78.65 L817.23 80.62 L818.14 81.99 L820.69 83.17 L823.4 86.24 L826.33 88.57 L828.1 91.66 L829.9 93.58 L832.03 91.66 L831.3 91.31 L831.01 90.87 L830.74 89.99 L832.33 88.82 L833.51 86.35 L834.25 82.82 L834.51 78.43 L834.14 73.9 L833.74 70.72 L834.34 68.54 L836.98 66.98 L848.14 66.98 L854.5 64.73 L855 62.99 L855.09 60.91 L855.59 59.15 L862.01 54.93 L863.02 52.23 L863.65 48.78 L865.16 46.02 L868.69 42.33 L871.11 40.59 L878.88 39.12 L881.02 39.74 L884.5 42.75 L886.63 43.74 Z M615.08 614.11 L615.76 615.38 L615.82 617.1 L615.26 619.4 L613.84 621.45 L613.28 621.7 L613.92 620.85 L614.38 619.77 L614.23 618.58 L613.48 617.98 L612.51 618.12 L608.55 619.52 L608.79 617.83 L611.56 615.06 L613.1 614.06 L613.77 613.84 Z M591.73 0 L593.99 3.09 L594.69 3.61 L594.32 5.72 L592.56 7 L590.99 4.36 L590.78 0.64 Z M387.61 669.74 L387.97 670.48 L388.45 672.81 L387.76 675.01 L386.9 676.94 L386.01 678.23 L385.35 677.47 L384.91 675.68 L384.33 674.11 L383.65 671.74 L383.92 669.48 L385.73 668.54 L387.88 668.38 L388.06 668.73 Z M558.09 124.38 L558.9 125.63 L560.22 128.59 L560.22 131.17 L559.03 131.98 L557.95 131.61 L557.16 130.77 L556.61 129.42 L556.41 127.69 L555.88 124.97 L555 121.81 L555.53 120.97 L557.27 122.95 Z "/>
</g>
</svg>
