<svg xmlns="http://www.w3.org/2000/svg" viewBox="0 0 1000 202.88">
<g fill="#ccc" stroke="#333" stroke-width="0.5" stroke-linejoin="round">
<path fill-rule="evenodd" d="M4.68 200.79 L5.38 201.5 L2.66 202.62 L1.02 200.58 L0.21 197.25 L0 194.44 L0.77 194.44 L0.77 195.56 L0.93 196.5 L1.54 198.35 L1.1 199.61 L1.65 200.82 L2.94 201.41 Z M9.07 202.88 L7.96 202.42 L7.66 202.06 L7.53 201.44 L8.83 201.37 L9.84 200.82 L10.46 199.84 L10.64 198.49 L11.19 199.84 L11.09 201.16 L10.39 202.26 Z M998.81 0 L1000 0.73 L999.77 2.3 L999.63 4.47 L999.06 7.25 L999.06 9.54 L998.11 11.22 L998.33 14.02 L997.74 15.33 L995.96 15.46 L995.37 13.52 L994.67 11.72 L994.31 10.02 L992.64 9.41 L990.27 8.93 L987.66 9.05 L985.41 9.78 L985.06 8.46 L986.24 7.73 L987.06 5.69 L986.46 4.1 L986.46 2.65 L987.91 3.15 L990.15 4.35 L993.24 4.47 L994.89 2.9 L996.69 1.09 Z "/>
</g>
</svg>
