<svg xmlns="http://www.w3.org/2000/svg" viewBox="0 0 1000 907.29">
<g fill="#ccc" stroke="#333" stroke-width="0.5" stroke-linejoin="round">
<path fill-rule="evenodd" d="M41.03 8.86 L41.17 9.06 L41.91 9.49 L42.11 9.61 L43.22 9.82 L44.41 9.86 L44.26 10.17 L44.06 10.36 L45.15 11.15 L45.77 12.6 L47.32 19.05 L47.96 20.41 L49.04 21.37 L48.61 22.18 L48.8 22.66 L50.12 23.62 L50.39 23.67 L50.96 23.66 L51.36 23.77 L51.55 24.03 L51.66 24.34 L51.84 24.57 L53.71 25.85 L53.99 26.2 L54.16 26.67 L54.59 27.37 L55.11 28 L55.59 28.27 L56.01 28.92 L56.95 31.05 L57.27 31.75 L57.71 32.39 L58.07 33.11 L58.61 36.44 L58.94 37.46 L60.3 37.03 L65.7 38.82 L65.83 38.7 L66.19 38.45 L66.66 38.27 L67.15 38.32 L67.29 38.74 L67.16 39.37 L67.15 39.94 L67.66 40.19 L68.38 40.34 L69.07 40.77 L69.36 41.49 L68.92 42.47 L69.26 43.15 L69.71 43.49 L70.19 43.77 L70.68 44.3 L70.89 44.82 L71.3 46.26 L71.56 46.82 L72.05 47.18 L73.29 47.74 L73.54 48.19 L73.42 48.88 L73.21 49.44 L73.06 50 L73.15 50.72 L73.75 51.43 L74.85 52.17 L76.03 52.75 L76.65 52.92 L77.46 53.13 L78.53 53.76 L78.77 53.81 L79.17 53.9 L80.6 53.95 L83.55 54.68 L88.17 54.72 L90.82 55.77 L92.01 56.23 L102.93 58.54 L106.35 60.09 L109.36 60.86 L109.87 60.79 L113.32 60.33 L114.22 59.89 L116.92 57.93 L117.92 57.44 L118.61 57.29 L120.62 57.21 L121.87 56.8 L122.42 56.73 L123.13 56.88 L128.53 59.3 L129.46 59.56 L130.39 59.5 L131.51 59.05 L132.35 58.52 L133.15 57.86 L133.87 57.06 L134.46 56.11 L135.92 53.08 L136.61 52.18 L137.56 51.38 L140.56 49.85 L141.41 49.03 L142.28 47 L142.91 46.02 L143.31 45.68 L144.17 45.21 L144.58 44.88 L144.88 44.47 L146.21 42.15 L146.91 41.33 L147.7 40.68 L147.71 40.67 L148.57 40.27 L149.39 40.25 L150.83 40.9 L151.61 41.11 L152.24 40.99 L155.34 39.23 L155.69 39.03 L156.23 38.39 L156.5 37.89 L157.37 35.36 L159.25 32.35 L159.42 31.68 L159.93 31.11 L162.41 29.59 L167.57 27.57 L168.17 27.23 L169.72 26.34 L171.44 24.58 L171.44 24.57 L174.02 21.25 L175.71 19.82 L177.88 18.62 L181.5 17.38 L182.66 17.25 L183.33 16.79 L186.07 13.99 L187.01 13.47 L193.24 9.95 L195.46 7.67 L196.27 6.84 L197.27 6.14 L198.5 5.81 L202.44 5.89 L203.08 5.73 L203.62 5.22 L204.22 4.32 L204.24 4.33 L204.95 4.51 L205.95 5.2 L209.13 8.18 L217.83 18.67 L221.38 21.95 L222.84 23.96 L223.99 26.38 L223.44 26.56 L222.1 26.99 L219.38 28.84 L216.13 29.49 L214.39 30.4 L212.89 31.83 L211.93 33.73 L211.84 36.03 L212.53 37.82 L213.8 39.62 L216.75 42.49 L219.71 43.72 L220.49 44.49 L222.05 47.84 L222.33 48.68 L222.3 49.61 L222.06 50.51 L222.05 50.55 L221.65 51.4 L221.18 52.11 L221.17 52.11 L221.16 52.12 L219.03 53.45 L209.47 55.15 L209.29 55.58 L209.3 56.08 L209.15 56.51 L206.44 58.2 L205.95 58.96 L206.08 61.69 L207.1 63.59 L210.47 66.29 L217.33 69.69 L217.98 70.24 L218.12 70.79 L218.36 71.76 L218.15 73.05 L218.25 74.17 L220.76 76.19 L221.57 77.4 L222.51 78.29 L224.1 78.32 L226.73 77.1 L227.94 77.1 L228.54 78.53 L228.9 80.29 L229.57 81.19 L230.4 81.95 L231.25 83.28 L232.12 84.24 L232.89 85.33 L234.18 86.96 L234.85 87.82 L236.27 90.19 L237.92 91.8 L238.18 91.82 L240.58 92.02 L241.82 91.67 L243.23 91.07 L244.54 90.24 L245.56 89.21 L246.72 88.57 L248.38 88.58 L251.72 89.28 L251.87 95.09 L251.29 97.03 L251.65 98.43 L251.75 101.92 L252.73 104.35 L253.45 112.41 L255.6 120.08 L255.19 121.34 L255.14 122.83 L255.36 124.25 L255.76 125.26 L257.58 128.25 L257.6 128.93 L257.44 129.51 L257.36 129.98 L257.91 132.55 L258.98 135.02 L261.61 138.97 L265.1 142.6 L268.88 145.32 L277.24 149.68 L281.12 150.99 L301.03 153.69 L303.17 153.36 L304.93 152.64 L306.6 152.33 L308.45 153.29 L307.96 153.37 L307.39 153.21 L307.09 153.16 L306.68 153.69 L311 155.38 L317.74 156.93 L320.17 157.88 L321.81 159.44 L321.6 161.79 L322.06 162.7 L322.73 165.05 L323.2 165.99 L323.95 167.16 L325.17 170.67 L326.73 173.25 L328.54 174.98 L332.28 177.81 L334.84 180.93 L335.62 181.4 L336.63 181.69 L342.36 185.58 L343.43 185.83 L344.16 186.16 L345.69 187.82 L346.46 188.48 L354.63 192.95 L362.08 198.24 L366.43 200.23 L380.89 203.1 L390.12 205.79 L399.7 207.51 L408.92 210.19 L418.51 208.91 L427.03 205.79 L435.94 203.58 L445.16 201.82 L454 200.01 L462.87 197.36 L471.43 194.71 L488.62 190.85 L490.94 190.46 L511.33 189.3 L515.05 188.41 L517.57 186.27 L517.46 188.73 L514.52 189.76 L510.84 190.22 L508.47 190.96 L507.82 191.28 L507.08 191.17 L505.69 190.73 L504.91 190.86 L503.48 191.41 L502.68 191.58 L499.65 191.18 L496.99 191.18 L497.39 191.9 L498.12 192.14 L499.82 192.06 L498.79 192.41 L498.38 192.46 L499.63 194.13 L501.75 195.08 L509.8 195.8 L510.61 196.26 L511.5 196.57 L517.98 194.79 L518.59 194.27 L518.95 193.19 L518.97 186.5 L518.69 185.39 L517.93 184.94 L516.95 184.55 L517.09 183.6 L518.27 181.4 L517.04 179.48 L516.22 177.09 L515.06 171.6 L513.49 167.36 L513.26 166.43 L512.77 160.91 L526.9 162.15 L527.93 162.1 L528.87 161.7 L529.83 160.77 L530.78 160.13 L531.91 160.07 L533.11 160.23 L534.25 160.23 L536.1 159.62 L544.86 154.52 L546.04 154.34 L549.19 155.03 L550.34 155.01 L551.11 154.65 L552.39 153.27 L553.41 152.86 L554.06 152.25 L556.52 150.62 L557.83 149.52 L558.07 149.05 L558.23 148.05 L558.94 146.41 L559.1 145.48 L559.16 143.91 L559.1 143.45 L558.86 143.02 L558.25 142.47 L558.07 142.11 L558.02 140.73 L558.87 138.7 L559.1 137.4 L559.38 136.36 L560.06 135.27 L561.61 133.58 L569.39 128.21 L571.81 125.49 L572.22 124.81 L572.49 123.92 L573.12 123.57 L573.84 123.45 L574.4 123.24 L574.78 122.73 L575.34 121.53 L575.79 121.04 L576.79 120.7 L579.78 120.13 L580.42 119.87 L580.89 118.84 L582.01 118.2 L584.38 117.41 L584.96 117.32 L586.03 116.45 L587.11 115.9 L590.95 112.91 L592.21 112.4 L595.51 112.26 L605.75 110.1 L607.29 110.1 L610.5 110.81 L612.52 111.99 L613.28 112.25 L615.92 112.27 L616.79 112.54 L618.2 113.29 L618.92 113.53 L619.72 113.57 L627.13 112.21 L629.22 112.48 L629.48 112.59 L631.09 113.26 L631.93 113.37 L636.37 112.62 L637.18 112.02 L637.7 110.98 L637.88 109.76 L637.63 108.62 L636.23 106.99 L636.55 106.09 L639.82 103.05 L641.56 101.83 L643.45 101.1 L648.2 100.95 L649.08 101.17 L649.8 101.61 L650.46 102.13 L651.15 102.46 L651.99 102.31 L656.14 100.48 L658.62 100.05 L659.12 100.15 L661.15 101.8 L662.92 102.83 L663.72 103.09 L671.52 104.56 L673.57 105.41 L674.63 105.57 L675.57 105.05 L676.29 104.4 L677.96 103.29 L678.58 102.62 L679.62 100.8 L679.78 100.62 L680.23 100.13 L681.13 99.69 L681.7 99.62 L682.27 99.69 L683.38 100.07 L683.95 100.44 L684.09 100.87 L684.12 101.36 L684.33 101.94 L685.53 103.98 L686.47 106.26 L687.07 107.18 L688.77 109.02 L689.37 110.99 L690.48 112.57 L690.73 113.72 L690.6 114.82 L689.58 118.29 L690.89 120.04 L698.35 123.01 L699.16 122.89 L699.97 122.64 L700.85 122.5 L701.72 122.62 L704.36 123.38 L706.88 123.33 L707.66 123.13 L708.44 123.14 L709.14 123.57 L709.79 124.14 L710.45 124.56 L710.7 124.58 L710.89 124.6 L711.74 124.4 L712.16 124.51 L712.53 124.87 L713 125.86 L713.3 126.27 L714.08 126.59 L714.93 126.53 L715.8 126.33 L716.64 126.26 L718.44 126.75 L726.56 130.66 L729.98 131.46 L731.72 131.61 L732.56 131.81 L733.43 132.24 L733.82 132.68 L733.83 133.13 L733.72 133.6 L733.76 134.11 L734.58 135.64 L734.76 136.13 L734.9 137.32 L734.9 138.23 L735.15 138.97 L736.04 139.71 L736.92 140.05 L740.96 140.66 L741.61 140.97 L742.97 141.95 L743.7 142.14 L748.39 141.67 L749.29 141.24 L749.98 140.16 L750.46 139.06 L751.08 138.14 L751.88 137.56 L752.9 137.48 L753.74 137.92 L756.34 140.23 L758.58 141.16 L759.75 141.33 L760.92 141.21 L761.37 140.93 L761.7 140.54 L762.07 140.24 L762.65 140.24 L763.76 140.45 L764.29 140.41 L764.83 140.22 L765.52 139.36 L765.65 138.39 L765.94 137.93 L769.04 139.67 L773.06 140.6 L775.11 141.54 L775.84 142.07 L776.53 142.29 L778.03 142.52 L778.6 142.84 L780.3 144.6 L787.21 149.59 L788.32 149.7 L791.22 148.36 L792.42 148.68 L793.46 149.67 L794.46 151.06 L794.7 151.92 L794.54 153.37 L794.85 154.08 L794.99 154.63 L794.78 155.21 L794.46 155.85 L794.28 156.58 L794.41 157.94 L795.43 162.43 L796.03 163.33 L799.27 166.03 L800.25 167.12 L800.55 167.56 L800.49 167.88 L800.3 168.1 L800.23 168.27 L800.16 168.71 L800.01 169.25 L800.16 169.71 L801.01 169.94 L801.35 170.29 L801.76 170.62 L802.2 170.84 L802.63 170.87 L804.27 170.22 L805.04 170.35 L805.91 171.29 L806.28 172.3 L806.52 173.53 L806.88 174.61 L807.58 175.16 L808.07 175.05 L808.43 174.66 L809.04 173.7 L809.53 173.44 L810.08 173.48 L817.54 175.91 L820.94 178.8 L822.84 179.92 L827.09 180.68 L829.04 181.52 L830.57 183.58 L832.52 187.73 L834.91 191.4 L840.4 198.11 L841.49 199.88 L842.99 203.84 L844.06 205.72 L845.77 206.68 L854.01 206.53 L861.25 206.4 L872.3 206.19 L878.44 206.08 L883.75 205.99 L886.33 206.44 L888.43 206.73 L888.85 208.92 L889.28 209.92 L889.47 210.51 L889.56 211.32 L889.49 212.12 L889.28 212.84 L889 213.46 L888.68 213.95 L888.46 214.63 L888.54 215.41 L888.85 216.37 L887.74 221.56 L887.44 224.71 L888.18 226.55 L888.01 226.81 L887.93 226.99 L887.79 227.43 L888.29 227.65 L888.7 227.98 L889.02 228.37 L889.24 228.75 L889.45 229.42 L889.54 230.09 L889.56 231.58 L889.73 232.21 L890.49 233.46 L891.26 237.45 L891.4 239.38 L891.48 239.71 L891.38 240.11 L890.83 240.82 L890.58 241.26 L890.42 241.84 L890.33 242.47 L890.3 243.05 L890.11 243.74 L889.67 244.07 L889.18 244.26 L888.85 244.56 L888.7 245.34 L888.89 246.62 L888.85 247.22 L888.22 247.9 L887.17 248.77 L886.57 249.53 L887.28 249.85 L888.55 250.05 L889.6 250.61 L890.5 251.45 L891.33 252.47 L891.87 253.35 L892.33 254.43 L892.65 255.56 L892.89 257.85 L893.08 258.81 L893.11 259.85 L892.78 261.28 L893.11 261.75 L893.12 262.38 L892.78 263.89 L892.74 264.25 L892.78 265.38 L892.62 265.82 L891.92 266.52 L891.71 266.9 L891.85 268.6 L892.55 270.04 L893.81 272.01 L894.19 272.6 L894.74 275.21 L894.87 276.49 L894.54 277.82 L893.85 279.02 L892.64 280.5 L892.07 281.73 L891.62 283.72 L891.33 284.37 L890.25 285.84 L889.95 286.54 L889.7 287.84 L889.95 291.11 L889.53 292.24 L888.54 292.81 L887.3 293.02 L886.2 293.05 L885.45 293.66 L885.15 295.01 L885.11 296.37 L885.14 296.98 L885.43 297.26 L885.68 297.87 L885.66 298.48 L885.14 298.75 L884.83 299.04 L885.1 299.67 L886.94 302.16 L887.09 302.43 L886.99 303.15 L886.85 303.71 L886.93 304.23 L887.47 304.81 L886.22 306.57 L885.84 307.48 L885.53 310.1 L884.78 312.47 L884.61 313.7 L884.45 314.31 L883.71 315.5 L883.55 316.29 L883.6 316.94 L883.83 318.11 L883.87 318.66 L883.64 320.89 L883.23 322.97 L881.64 323.51 L881.35 324.55 L880.34 326.36 L878.7 327.65 L877.77 328.74 L877.7 330.23 L877.87 331.86 L877.66 333.39 L877.12 334.11 L876.52 334.26 L875.84 334.2 L875.12 334.32 L874.43 334.72 L874.09 335.14 L873.83 335.64 L871.48 338.33 L870.46 339.02 L869.17 339.39 L866.34 339.77 L865.05 340.44 L864.29 341.76 L864.84 341.84 L865.28 342.09 L865.61 342.52 L866.06 344.02 L866.52 344.46 L867.79 345.04 L868.41 345.61 L868.92 346.34 L869.74 347.98 L873.58 352.99 L874.17 354.16 L870.31 354.39 L865.05 354.71 L861.38 354.93 L861.74 356.27 L860.93 357.15 L858.47 358.47 L856.66 360.36 L855.02 362.48 L853.57 365.43 L853.26 368.23 L853.34 369.07 L853.91 374.48 L855.39 384.02 L855.28 386.47 L853.68 390.09 L853.26 392.13 L854.55 396.67 L857.82 399.82 L862 401.55 L866.06 401.87 L869.86 401.66 L871.87 401.81 L873.61 402.25 L874.41 402.72 L875.28 403.51 L875.74 404.4 L875.69 404.49 L875.29 405.18 L874.52 405.46 L872.06 405.63 L871.15 406.24 L871 407.13 L871.18 408.17 L871.28 409.23 L870.99 410.47 L870.45 411.18 L868.75 412.24 L867.26 413.57 L865.29 416.26 L862.76 419.69 L859.95 423.5 L857.44 426.89 L857.13 427.76 L857.2 432.65 L857.96 436.6 L859.44 441.66 L861.2 447.63 L863 453.78 L864.91 460.26 L867.01 467.38 L869.29 475.89 L871.05 482.44 L870.95 487.43 L870.25 492.3 L869.94 493.32 L868.58 495.07 L868.18 496.01 L868.36 496.38 L868.79 496.63 L869.1 496.98 L868.65 498.32 L868.76 498.95 L869.02 499.55 L869.22 500.2 L869.31 501.53 L868.93 505.3 L869.04 508.25 L869.76 513.89 L869.1 518.39 L869.22 519.82 L870 522.76 L870.61 528.45 L872.33 529.18 L877.56 529.94 L886.24 531.22 L886.32 531.23 L895.11 532.52 L905.27 534.01 L911.25 534.88 L914.09 535.3 L915.42 535.83 L916.44 536.63 L918.29 539 L918.65 540.12 L918.29 542.72 L918.32 543.93 L918.82 545.16 L920.21 547.47 L920.64 548.83 L920.73 550.6 L920.86 551.23 L921.76 553.15 L922.39 555.13 L922.65 556.33 L922.65 557.52 L922.28 558.79 L921.29 560.75 L921.52 561.46 L921.71 565.58 L921.4 565.76 L921.28 566.18 L921.2 567.27 L921.27 567.34 L921.4 567.66 L920.52 568.6 L916.24 573.78 L909.69 581.71 L903.76 588.89 L899.54 593.95 L893.94 600.67 L891.01 604.19 L886.73 609.31 L878.72 618.88 L878.71 618.89 L874.77 623.51 L871.78 627.02 L875.96 631.99 L878.7 635.23 L882.09 639.3 L885.99 643.97 L890.04 648.83 L894.3 653.93 L895.32 654.76 L896.41 655.19 L897.32 655.85 L897.79 657.35 L897.7 658.51 L897.08 660.59 L897.08 661.76 L897.57 662.97 L899.22 664.79 L899.89 665.81 L900.05 666.48 L900.19 667.96 L900.46 668.63 L901.01 669.26 L901.48 669.43 L901.95 669.49 L902.52 669.79 L903.05 670.63 L903.32 671.64 L903.72 672.5 L904.6 672.88 L905.11 673.28 L905.26 673.79 L905.08 674.33 L904.6 674.84 L904.23 675.23 L904.08 675.59 L904.2 675.93 L904.6 676.24 L905.27 676.55 L905.85 677.01 L906.31 677.62 L908.5 682.67 L908.8 683.82 L908.92 684.81 L909.19 685.7 L910.68 687.37 L912.16 690.62 L913.67 692.48 L919.01 697.34 L921.16 700.14 L924.45 703.19 L926.09 705.09 L927.05 705.61 L930.15 706.48 L932.62 707.92 L934.19 708.41 L937.63 708.7 L939.28 709.06 L943.59 710.99 L950.43 712.38 L951.87 713.13 L952.47 713.84 L952.92 714.63 L953.45 715.35 L954.29 715.82 L955.15 716.1 L955.69 716.45 L956.05 717.05 L956.39 718.07 L957.14 719.34 L960.41 722.89 L961.46 723.55 L969.94 721.83 L971.09 722.53 L971.34 724.59 L970.58 730.62 L969.75 737.3 L970.71 741.35 L972.06 746.99 L972.38 750.47 L972.81 755.2 L973.07 758.13 L973.57 763.52 L973.84 766.57 L973.53 769 L970.81 775.14 L971.82 776.37 L972.08 777.01 L971.98 777.95 L971.74 778.79 L971.43 779.44 L970.92 779.82 L970.1 779.88 L972.34 781.88 L973.12 782.3 L973.53 782.29 L974.24 781.88 L974.6 781.81 L975.02 781.95 L976.23 782.62 L977.87 782.98 L979.28 782.9 L982.3 782.3 L983.64 782.09 L986.35 781.25 L987.73 781.18 L988.59 781.27 L989.26 781.25 L992.09 780.35 L992.62 780.36 L993.26 780.6 L994.6 781.83 L995.19 782.2 L996.47 782.66 L996.94 782.96 L997.49 783.57 L998.24 784.66 L1000 788.58 L999.11 788.23 L997.98 788.24 L996.96 788.68 L996.39 789.62 L996.2 790.2 L995.65 790.99 L995.43 791.58 L995.35 792.26 L995.62 798.83 L996.08 799.91 L996.73 800.86 L997.16 801.8 L997 802.86 L996.22 803.57 L994.12 803.91 L993.26 804.35 L992.88 805.27 L992.47 813.69 L991.93 816.01 L990.76 817.15 L990.24 817.12 L989.84 816.91 L989.46 816.65 L989.02 816.44 L988.52 816.4 L987.01 816.73 L984.97 816.68 L982.95 816.37 L978.26 816.25 L974.21 816.15 L970.68 816.06 L970.12 816.23 L969.72 816.75 L969.18 817.74 L968.84 818.01 L968.45 818.22 L968 818.39 L966.4 818.75 L965.96 818.72 L965.38 818.44 L964.83 818.32 L964.38 818.6 L963.97 819.03 L963.54 819.37 L962.48 819.74 L953.81 820.66 L953.32 820.8 L952.91 821.12 L952.49 821.87 L952.19 822.15 L951.66 822.29 L950.56 822.24 L950.08 822.29 L949.65 822.48 L948.98 822.97 L948.56 823.21 L947.54 823.62 L947.09 823.9 L946.77 824.34 L946.67 824.85 L946.83 825.23 L947.02 825.55 L947.07 825.91 L946.54 826.92 L944.91 828.52 L944.54 829.24 L944.82 830.57 L945.33 831.63 L945.38 832.45 L944.25 833.05 L942.31 832.78 L940.01 831.96 L938.06 831.7 L937.18 833.1 L936.99 834.53 L936.52 835.12 L934.38 835.48 L933.31 835.81 L932.35 836.29 L930.49 837.53 L924.24 839.31 L922.99 840.29 L922.23 841.84 L921.8 843.63 L921.32 847.14 L920.91 850.24 L920.41 853.83 L919.76 858.62 L919.21 862.64 L918.93 863.66 L918.14 864.62 L917.24 864.83 L916.24 864.8 L915.14 865.07 L914.05 866.58 L914.31 868.7 L914.88 870.97 L914.73 872.96 L914.4 873.4 L913.64 874.16 L913.34 874.71 L913.16 875.54 L912.95 878.89 L912.63 883.81 L912.27 889.52 L911.96 894.35 L910.31 899.12 L909.98 898.29 L909.87 897.33 L908.97 896.67 L908.81 896.32 L908.56 896.14 L908.06 896.48 L907.91 896.8 L907.83 897.72 L907.67 898.08 L907.96 898.35 L908.47 898.95 L908.77 899.21 L907.66 899.09 L906.82 898.75 L905.96 898.74 L904.84 899.6 L906.06 899.99 L906.57 900.28 L906.99 900.78 L906.72 901.33 L905.91 902.37 L905.67 902.98 L905.67 903.28 L905.61 903.51 L905.2 903.9 L904.45 904.3 L901.63 905.14 L902.38 905.67 L901.17 907.29 L892.46 904.28 L889.43 903.63 L889.45 902.7 L888.66 901.28 L881.43 898.68 L872.94 897.26 L865.74 895.55 L860.86 894.95 L860 894.48 L860.8 893.74 L859.54 891.93 L859.38 891.16 L859.37 887.94 L859.2 887.44 L857.32 885.57 L856.51 885.09 L855.6 884.98 L854.68 885.07 L851.13 886.17 L850.24 886.66 L849.74 887.44 L848.93 888.42 L848.52 889.05 L848.5 889.43 L848.66 889.79 L848.87 890.95 L849.12 891.11 L849.47 891.15 L850.05 891.43 L850.49 891.42 L850.71 891.57 L850.92 891.93 L851.47 892.52 L850.9 892.44 L850.89 892.56 L852.39 893.34 L852.24 894.07 L851.64 893.93 L849.98 893.23 L847.87 892.35 L846.82 891.76 L844.58 891.8 L843.08 890.57 L843.56 889.66 L843.79 889.44 L843.03 889.09 L842.09 888.95 L840.22 889.04 L838.78 889.32 L838.48 889.44 L838.02 889.96 L838.02 890.3 L838.15 890.58 L839.23 891.32 L838.88 892.39 L837.47 892.37 L836.43 891.68 L835.86 891.49 L834.09 891.23 L833.68 890.93 L833.11 890.18 L832.29 889.73 L830.39 889.85 L827.75 890.26 L824.98 890.37 L823.06 891.8 L820.88 891.05 L818.71 888.97 L816.38 888.36 L810.38 888.74 L808.05 888.71 L804.11 887.8 L801.65 885.29 L799.75 884.25 L796.82 884.81 L790.7 885.79 L789.25 886.02 L786.36 886.47 L783.41 887.87 L782.31 888.12 L781.87 888.03 L781.49 887.65 L781.11 887.42 L780.67 887.52 L780.19 887.74 L779.71 887.87 L778.52 887.8 L777.49 887.6 L776.62 887.22 L775.95 886.66 L773.55 882.82 L772.28 881.28 L770.25 880.35 L768.45 880.39 L767.97 880.16 L767.65 879.61 L767.46 879.04 L767.19 878.58 L766.59 878.39 L762.15 878.39 L752.74 876.67 L749.52 877.18 L746.74 877 L745.77 876.53 L746.14 875.61 L744.62 875.71 L742.96 876.04 L742.26 876.41 L741.07 877.41 L740.29 877.61 L739.93 877.46 L739.75 877.23 L739.5 877.24 L738.89 877.8 L738.48 878.1 L737.95 878.27 L737.49 878.21 L737.3 877.8 L737 877.94 L735.18 879.22 L733.27 879.51 L731.58 879.19 L729.94 878.66 L728.23 878.39 L726.83 877.74 L725.69 876.2 L724.15 872.9 L722.53 870.95 L720.57 870.48 L718.43 871.04 L716.33 872.12 L714.57 873.56 L713.43 874.27 L712.62 874.26 L712.83 871.73 L713.03 871.07 L713.17 870.78 L713.2 870.57 L713.12 870.12 L712.59 868.81 L711.78 868.1 L710.7 867.81 L709.4 867.77 L708.24 867.89 L705.37 868.55 L704.74 868.43 L703.66 867.89 L703.05 867.77 L702.46 867.83 L701.43 868.09 L700.9 868.16 L699.61 868.05 L696.08 866.94 L696.47 866.59 L689.54 866.13 L688.78 865.72 L688.41 864.82 L688.11 862 L686.85 859.08 L686.21 856.75 L685.78 855.65 L685.26 855.19 L685.18 854.97 L684.02 853.58 L683.79 853.53 L683.14 853.64 L682.93 853.58 L682.83 853.34 L682.69 852.66 L681.99 850.59 L681.78 849.63 L681.28 848.5 L681.16 847.82 L681.49 846.62 L683.1 844.86 L683.67 843.7 L682.96 841.86 L679.53 838.07 L679.81 836.53 L679.43 836.17 L679.13 833.56 L678.76 832.26 L678.19 831.22 L677.19 830.25 L676.95 829.82 L676.8 829.31 L676.61 827.99 L676.59 827.45 L677.48 820.23 L677.3 817.53 L673.93 804.06 L673.22 803.02 L671.46 801.49 L670.84 800.57 L670.9 799.64 L669.31 798.57 L668.78 798.01 L669.54 798.06 L670.1 797.84 L670.62 797.51 L671.26 797.22 L670.82 796.82 L670.75 796.27 L670.93 795.71 L671.26 795.23 L669.66 795.92 L669.14 796.03 L668.66 795.91 L668.35 795.63 L668.14 795.36 L667.88 795.23 L667.62 795.03 L667.34 794.65 L666.99 794.42 L665.97 794.91 L665.67 794.72 L665.54 794.24 L665.57 793.65 L664.9 793.8 L664.55 793.49 L664.56 793.07 L665.05 792.85 L665.3 792.65 L666.21 791.66 L666.66 791.3 L666.66 790.87 L665.14 790.65 L663.9 789.81 L663.07 788.6 L662.74 787.29 L662.13 787.88 L661.47 788.12 L660.07 788.12 L659.29 787.87 L658.81 787.31 L658.42 786.75 L657.93 786.5 L652.56 786.43 L651.38 786.06 L651.03 786.5 L649.77 785.8 L648.22 785.47 L644.99 785.3 L643.45 785 L640.74 783.91 L639.13 783.67 L635.92 783.86 L634.29 784.28 L633.09 785.1 L631.98 785.64 L628.62 785.79 L627.25 786.06 L626.82 786.34 L625.96 787.2 L625.79 787.49 L625.68 788.1 L625.4 788.3 L625 788.38 L624.56 788.68 L623.66 789.44 L620.18 791.55 L618.93 792.61 L618.91 792.85 L618.64 793.04 L617.69 793.85 L617.13 794.04 L614.82 794.32 L612.68 794.84 L612.13 794.9 L610.39 794.84 L609.82 794.96 L609.05 795.51 L608.6 795.63 L606.66 795.63 L605.03 795.25 L604.51 795.23 L603.53 795.67 L601.79 797.29 L601.14 797.65 L600.56 798.1 L597.76 801.22 L598.5 800.98 L598.83 800.8 L599.2 800.43 L599.42 801.85 L599.1 803.59 L598.49 805.24 L597.76 806.41 L596.06 807.92 L594.11 808.91 L591.95 809.35 L589.62 809.22 L585.45 807.77 L583.07 807.46 L581.1 808.39 L580.49 809.5 L580.21 810.53 L579.7 811.29 L578.45 811.6 L577.44 811.71 L575.16 812.38 L574.39 812.75 L571 815.79 L570.43 816.15 L565.45 820.2 L559.82 823.5 L559.46 823.81 L559.14 824.19 L558.76 824.51 L558.21 824.65 L557.56 824.53 L556.69 824.02 L556.07 823.89 L551.62 824.29 L549.35 823.93 L548.47 822.62 L547.83 820.94 L546.31 819.51 L544 819.05 L539.28 819.24 L537.41 818.32 L536.48 816.83 L535.71 814.98 L534.73 813.21 L533.2 811.95 L532.1 811.74 L531.06 811.91 L530.06 812.2 L526.12 812.47 L525.03 812.35 L521.47 811.31 L520.58 811.17 L520.02 810.99 L519.02 810.2 L518.59 809.98 L518.06 809.96 L516.98 810.18 L513.58 811.78 L511.2 812.11 L509.09 812.7 L507.95 812.75 L505.64 812 L504.38 811.89 L503.16 812.55 L502.53 812.33 L499.82 809.98 L495.93 807.68 L490.9 803.87 L490.16 802.95 L489.86 801.82 L489.74 799.06 L489.32 797.9 L488.44 796.82 L486.78 795.78 L469.17 789.77 L468.03 789.67 L466.92 789.35 L466.23 788.58 L465.68 787.65 L465.03 786.86 L461.95 786.08 L461.47 785.5 L461.02 784.24 L459.96 783.59 L457.58 782.88 L453.41 779.12 L451.56 777.86 L448.8 776.64 L444.78 774.86 L443.72 773.73 L443.63 772.53 L444.12 771.79 L444.99 771.41 L446.07 771.3 L447.04 771.33 L448.16 771.21 L448.81 770.63 L448.35 769.27 L447.52 768.56 L445.42 767.75 L444.63 767.1 L444.22 766.4 L443.39 764.49 L443.04 763.89 L439.15 759.88 L437.45 758.52 L435.55 757.7 L426.32 755.67 L424.37 754.69 L418.26 749 L416.36 747.71 L414.22 746.81 L411.76 746.48 L408.16 746.92 L407.34 746.66 L406.36 746.04 L404.51 746.17 L402.51 746.65 L399.28 747.26 L397.24 746.94 L392.76 746 L392.15 745.84 L391.88 745.46 L391.82 744.9 L391.65 744.46 L391.38 744.18 L389.76 743.95 L387.55 743.28 L386.45 742.08 L385.25 740.08 L384.01 739.28 L383.61 740.92 L382.55 741.01 L381.53 737.51 L380.51 736.04 L379.72 733.91 L377.77 730.72 L376.88 729.87 L375.81 728.76 L375.55 727.58 L376.7 724.42 L376.62 722.86 L375.55 721.12 L373.75 719.47 L373.11 718.71 L371.28 715.86 L369.58 714.05 L369.18 713.45 L366.02 705.6 L365.59 703.76 L365.54 696.23 L364.88 693.68 L363.72 691.52 L362.4 689.95 L360.73 688.91 L358.55 688.4 L356.45 688.28 L355.42 688 L354.98 687.37 L354.58 686.2 L352.15 683.11 L351.73 681.99 L351.41 680.36 L351.61 678.9 L352.68 678.26 L353.69 678.61 L354.71 679.47 L355.56 680.55 L356.07 681.53 L356.62 681.05 L356.55 680.62 L356.31 680.13 L356.39 679.47 L356.76 679.04 L357.81 678.11 L358.16 677.49 L358.33 676.2 L358.21 674.82 L357.7 673.97 L356.74 674.22 L356.31 672.5 L355.96 671.89 L355.33 671.35 L355.01 671.42 L354.54 671.67 L354.11 671.81 L353.92 671.55 L353.86 670.54 L353.75 670.05 L353.56 669.73 L352.33 669.51 L348.28 669.76 L347.34 669.93 L345.97 670.75 L344.53 670.57 L343.38 669.56 L342.92 667.91 L342.83 666.47 L342.97 665.75 L343.43 665.03 L343.8 664.23 L344.14 663.24 L344.61 662.8 L345.39 663.65 L345.62 661.22 L345.75 660.81 L345.25 660.64 L344.93 660.29 L344.3 659.15 L344.67 657.69 L344.65 655.38 L344.38 653.02 L343.98 651.4 L343.3 650.17 L342.29 648.79 L341.5 648.41 L341.47 650.18 L341.17 649.53 L339.7 647.3 L336.97 645.04 L336.53 644.27 L336.17 643.25 L335.35 642.1 L333.66 640.39 L330.6 639.16 L330.13 638.54 L329.8 637.35 L329.05 636.22 L327.65 634.65 L326.26 632.64 L323.91 628.32 L322.66 626.5 L321.69 625.65 L319.56 624.33 L317.54 622.25 L317.36 621.98 L317.21 621.25 L317.16 620.16 L316.97 619.53 L317.79 619.43 L317.98 619.08 L317.67 618.65 L316.97 618.3 L317.53 616.28 L316.35 612.88 L316.65 611.32 L315.92 610.74 L315.11 609.65 L314.42 608.43 L314.14 607.45 L313.84 606.82 L313.08 606.29 L312.66 606.13 L311.28 605.59 L309.43 605.37 L307.5 605.67 L305.61 606.33 L289.35 616.74 L287.47 617.54 L285.8 617.17 L284.35 615.03 L284.22 614.06 L284.2 611.36 L283.79 610.32 L283.42 609.78 L283.29 609.46 L283.09 609.2 L282.53 608.86 L282.03 608.65 L281.54 608.53 L280.42 608.45 L279.87 608.52 L278.75 608.8 L278.12 608.86 L277.55 608.74 L276.8 608.18 L276.36 608.05 L275.29 608.23 L273.35 609.05 L272.28 609.27 L270.93 609.18 L270.44 608.66 L270.51 606.19 L270.36 606 L269.64 605.49 L269.42 605.14 L269.4 604.82 L269.42 603.92 L269.5 603.46 L269.72 603.08 L269.69 602.7 L269.07 602.28 L268.77 603.3 L268.22 604.31 L267.48 605.02 L266.59 605.14 L265.66 604.56 L265.21 603.79 L264.66 603.19 L263.76 603.1 L262.56 602.68 L259.13 600.67 L258.42 600.01 L258.08 598.07 L257.17 596.86 L255.81 596.16 L254.15 595.72 L254.7 594.74 L255.57 594.5 L257.69 594.87 L258.79 594.81 L260.5 594.23 L261.45 594.08 L262.5 594.34 L264.62 595.46 L265.35 595.72 L266.5 595.84 L267.37 596.21 L268.07 596.84 L268.74 597.77 L269.05 596.96 L270.03 595.22 L271.56 593.26 L271.85 592.61 L271.9 591.59 L270.83 591.8 L270.06 591.3 L269.58 590.38 L269.17 588.18 L268.56 588.46 L267.76 589.34 L266.95 589.94 L267.02 589.18 L267.1 588.97 L267.3 588.71 L266.87 588.03 L266.43 588.14 L265.9 588.54 L265.18 588.71 L264.87 588.49 L264.29 587.67 L263.94 587.48 L263.61 587.55 L263.12 587.83 L262.86 587.89 L261.83 587.73 L260.89 587.45 L260.01 587.4 L259.13 587.89 L257.27 587.62 L255.8 588.55 L255.42 589.78 L256.82 590.4 L258.46 590.72 L259.76 591.55 L260.16 592.62 L259.13 593.67 L258.26 593.66 L255.46 593.27 L254.86 593.45 L252.02 596.1 L251.82 596.36 L251.36 597.08 L251.1 597.83 L251.69 598.37 L251.48 598.8 L251.14 599.28 L250.96 599.6 L251.35 600.89 L252.25 601.81 L253.3 602.61 L254.15 603.54 L254.58 604.61 L254.92 605.96 L255.21 608.66 L255.11 609.41 L254.65 610.64 L254.5 611.32 L254.53 611.96 L254.83 613.1 L254.86 613.77 L254.53 614.95 L253.85 616.02 L252.91 616.78 L251.85 617.08 L248.33 616.66 L247.43 617.08 L246.42 616.61 L242.8 616.63 L240.6 615.42 L239.76 615.23 L239.62 616.27 L239.87 616.98 L240.57 618.11 L240.71 618.93 L240.55 619.52 L240.17 620.04 L239.71 620.46 L239.26 620.75 L238.08 621.11 L234.27 620.75 L234.27 620.34 L233.99 620.71 L233.94 620.86 L233.58 620.69 L231.97 620.23 L231.2 619.76 L230.48 619.19 L230.15 618.85 L229.91 618.46 L229.45 617.29 L229.34 616.51 L228.39 613.54 L228.25 613.44 L227.96 612.82 L226.92 611.65 L226.28 610.26 L226.17 609.84 L226.29 609.18 L226.69 608.68 L227.19 608.23 L227.57 607.71 L227.7 607.07 L227.6 606.43 L227.34 605.82 L227 605.31 L224.99 603.46 L223.32 601.56 L222.27 599.8 L221.78 599.39 L221.16 599.17 L220.5 599.14 L218.61 599.46 L217.98 599.49 L217.37 599.39 L216.8 599.14 L216.38 598.69 L216.15 598.12 L215.73 595.48 L215.26 594.17 L214.6 592.99 L213.73 592.05 L213.2 591.72 L212.62 591.52 L207.14 590.73 L207.06 588.89 L207.23 559.86 L207.07 559.08 L206.51 558.75 L189.49 558.74 L189.67 544.11 L189.8 533.72 L197.7 512.2 L198 510.82 L197.86 509.52 L197.15 508.43 L195.11 506.89 L194.27 505.96 L194.09 505.5 L193.82 504.43 L193.53 503.88 L193.14 503.51 L192.2 502.9 L191.85 502.41 L189.99 499.08 L189.75 498 L189.75 497.99 L189.24 496.91 L187.43 496.02 L186.63 495.11 L185.45 492.45 L184.69 491.34 L184.58 491.18 L183.57 490.76 L182.79 490.66 L182.33 490.14 L181.92 489.51 L181.25 489.09 L180.44 488.86 L180.08 488.58 L180.04 488.1 L180.14 487.24 L180.35 486.58 L180.65 486.04 L180.93 485.45 L181.01 484.59 L180.74 483.8 L179.73 483.03 L179.45 482.25 L178.95 482 L178.62 481.65 L177.7 480.38 L177.51 480.04 L177.26 479.7 L175.72 478.22 L175.48 477.87 L175.13 477.04 L175.14 476.74 L175.35 476.51 L175.81 475.37 L176.1 475.03 L176.28 474.63 L176.2 473.92 L175.91 473.47 L174.53 472.41 L173.66 471.29 L173.08 470.35 L172.42 469.58 L171.31 468.99 L168.38 467.98 L167.65 467.94 L165.28 469.25 L164.36 469.6 L162.53 469.79 L160.9 469.43 L159.32 468.6 L157.67 467.39 L157.67 467.38 L157.66 467.38 L142.06 453.75 L139.91 451.3 L136.52 449.24 L134.14 447.31 L133.94 447.2 L129.11 444.39 L127.66 442.93 L122.5 440.46 L117 438.75 L110.89 439.44 L107.86 439.07 L106.75 436.6 L106.75 436.59 L107.39 435.83 L108.25 435.13 L109.02 434.33 L109.37 433.28 L109.07 432.44 L108.32 431.77 L107.35 431.35 L105.07 431.09 L104.35 430.47 L104.4 429.72 L105.44 429.13 L106.58 429.03 L107.45 429.1 L108.29 428.93 L109.38 428.1 L110.78 426.71 L111.49 425.84 L111.86 425.04 L111.83 424.48 L111.23 424.1 L111 423.53 L111.03 423.02 L111.35 421.83 L111.34 421.2 L110.88 420.15 L110.15 419.41 L108.5 418.08 L106.44 415.15 L104.71 413.47 L104.44 412.57 L104.41 411.53 L104.25 410.27 L103.84 409.1 L103.25 408.03 L101.51 405.85 L101.35 405.73 L101.19 405.63 L100.99 405.52 L100.93 405.49 L100.66 405.44 L100.4 405.49 L100.15 405.63 L99.19 406.55 L97.62 406.75 L96.08 406.39 L95.2 405.63 L96 404.56 L98.46 403.05 L99.1 402.11 L98.73 400.74 L97.64 399.98 L96.72 399.05 L96.92 397.14 L95.81 397.42 L93.29 397.46 L92.34 397.86 L90.84 399.31 L89.99 399.88 L89.08 400.11 L88.73 399.68 L88.74 397.46 L88.57 397.01 L88.39 396.52 L85.94 394.77 L85.16 393.98 L84.45 392.97 L83.93 391.96 L83.57 390.85 L83.35 389.59 L82.98 388.56 L82.3 387.81 L81.5 387.14 L80.8 386.36 L76.19 377.96 L76.1 377.87 L75.99 377.82 L75.86 377.8 L74.33 378.04 L72.98 377.95 L71.8 377.28 L70.73 375.78 L71.84 375.27 L72.35 374.93 L72.77 374.48 L72.78 374.48 L72.78 374.48 L73.57 372.74 L74.01 371.15 L74.59 369.76 L75.86 368.65 L76.62 367.83 L78.71 366.11 L79.24 365.4 L79.24 364.71 L78.94 364.17 L78.56 363.62 L78.31 362.91 L78.42 362.33 L79.14 361.15 L79.4 360.58 L80.09 357.57 L80.2 356.02 L79.91 354.6 L79.12 353.37 L78.05 352.68 L76.89 352.69 L75.86 353.52 L74.9 352.81 L74.24 351.45 L72.63 346.29 L73.14 345.46 L75.86 344.85 L76.23 344.51 L76.57 344.11 L76.86 343.66 L77.11 343.16 L77.18 341.3 L76.75 338.75 L76.97 337.03 L78.98 337.62 L80.76 338.56 L82.36 338.95 L85.92 339.23 L87.06 339.63 L87.37 339.57 L87.58 339.16 L87.72 338.49 L87.73 337.82 L87.58 337.41 L87 336.59 L86.84 335.53 L86.81 334.34 L86.65 333.15 L86.44 332.71 L86.17 332.4 L85.92 332.02 L85.76 331.35 L85.57 330.84 L85.19 330.38 L84.73 330.02 L84.3 329.77 L83.53 328.89 L83.93 327.88 L85.37 326.22 L85.53 325.49 L85.41 324.22 L85.57 323.46 L86.08 322.75 L86.73 322.47 L88.21 322.32 L89.64 321.32 L89.91 319.78 L89.8 318.17 L90.15 316.96 L91.35 316.9 L92.27 317.4 L92.89 317.72 L94.28 318.21 L95.07 317.16 L95.47 315.61 L95.91 314.46 L96.04 313.27 L95.56 311.63 L95.56 311.62 L95.41 310.76 L95.43 309.92 L95.68 309.19 L96.23 308.65 L96.57 308.53 L97.29 308.46 L97.6 308.3 L97.71 308 L97.57 307.23 L97.62 306.93 L98.33 305.74 L98.7 305.6 L99.46 305.86 L100.55 306.57 L101.09 306.79 L101.76 306.74 L103.31 307.42 L104.13 307.2 L104.89 306.49 L106.28 305.65 L106.8 305.59 L107.73 305.84 L109.05 305.4 L109.69 305.27 L110.24 304.97 L110.66 304.21 L109.59 302.95 L110.28 301.17 L111.4 299.24 L111.6 297.58 L110.82 296.92 L108.81 296.94 L108.09 296.43 L107.95 295.43 L108.41 294.63 L109.05 293.86 L109.32 293.22 L109.43 292.96 L109.06 291.09 L107.82 289.65 L104.95 287.08 L101.64 281.76 L100.97 279.92 L100.94 279.34 L101.07 278.82 L101.35 278.4 L101.76 278.09 L101.96 277.84 L102.03 277.58 L101.96 277.31 L101.76 277.04 L101.18 275.83 L100.73 274.54 L100.96 274.48 L101.21 274.48 L102.79 274.96 L102.94 274.08 L102.43 271.63 L102.44 270.58 L102.62 269.46 L103.03 268.45 L103.69 267.72 L104.75 267.35 L108.38 267.46 L109.44 267.21 L112.04 265.83 L114.07 265.94 L115.15 265.82 L115.96 265.04 L116.67 264 L118.24 262.99 L119.06 262.25 L119.67 261.2 L119.77 260.2 L119.39 259.35 L118.53 258.73 L117.41 258.62 L116.48 259.08 L115.6 259.7 L114.61 260.06 L112.41 260.54 L111.3 260.59 L110.26 260.14 L109.83 259.79 L109.52 259.44 L109.3 258.99 L109.04 257.69 L108.79 257.46 L108.41 257.4 L106.82 256.79 L105.96 256.77 L105.13 257.09 L104.13 257.66 L103.09 258 L99.79 257.85 L98.12 258.43 L97.59 258.37 L97.06 258.2 L96.53 258.18 L95.27 259.26 L94.27 259.76 L93.21 259.83 L92.36 259.25 L91.78 259.14 L89.83 259.73 L88.9 259.46 L88.26 258.62 L86.94 255.32 L84.54 251.91 L82.99 250.49 L81.59 250.22 L80.92 249.8 L79 248.02 L77 247.29 L75.86 246.87 L74.5 246.89 L72.78 247.75 L71.86 248.01 L71.85 248.02 L71.85 248.02 L71.83 248.02 L70.81 248.73 L69.66 249.12 L68.54 248.96 L67.63 248.02 L67.62 248.02 L67.62 248.01 L67.62 248 L67.28 246.97 L67.59 245.65 L68.22 244.33 L68.86 243.32 L69.07 242.03 L68.42 240.74 L66.81 238.64 L66.55 237.29 L66.68 234.33 L66.43 233.1 L65.68 232.35 L64.72 231.59 L64.42 230.82 L65.67 230.01 L64.7 228.76 L64.34 227.64 L64.21 224.87 L63.96 223.38 L63.4 221.77 L62.49 220.61 L61.18 220.52 L58.28 221.68 L56.77 221.8 L55.37 221.14 L54.77 220.45 L54.58 219.87 L54.5 219.23 L54.25 218.4 L53.83 217.78 L53.39 217.35 L53.06 216.82 L53.01 215.91 L52.34 215.19 L51.52 214.48 L51.34 214.32 L50.58 213.35 L50.69 212.32 L50.92 212.16 L51.56 211.91 L51.72 211.79 L51.77 210.43 L52.32 208.22 L53.33 205.89 L53.41 204.68 L52.86 203.29 L51.6 200.97 L50.83 199.92 L49.97 199.45 L49.29 199.43 L48.69 199.24 L48.15 198.85 L47.68 198.28 L47.03 197.71 L46.28 197.58 L44.67 197.67 L43.32 197.37 L42.29 196.68 L41.88 195.55 L42.44 193.95 L44.28 191.69 L44.99 190.53 L45.27 188.97 L45.03 187.52 L44.55 186.46 L44.25 185.31 L44.54 183.58 L45.11 182.87 L45.2 182.16 L44.85 181.58 L43.72 180.98 L43.14 180.34 L42.77 180.13 L42.27 180.16 L41.25 180.48 L40.77 180.37 L40.53 180.05 L40.27 179.06 L40.07 178.64 L39.69 178.36 L39.3 178.24 L38.94 178.07 L38.63 177.64 L38.22 176.49 L38.21 175.85 L38.92 173.98 L39.24 172.73 L38.92 171.63 L38.43 170.52 L38.26 169.21 L38.62 168.05 L39.27 167.5 L39.98 167.08 L40.59 166.28 L40.75 164.18 L39.58 162.8 L36.6 160.88 L36.16 160 L35.86 159.08 L35.39 158.48 L33.5 158.77 L33.02 158.23 L32.29 156.36 L31.49 155.76 L29.56 155.57 L28.87 155.18 L28.55 154.11 L29.24 152.16 L29.03 151.06 L29.03 151.05 L28.75 149.72 L28.85 148.1 L29.19 146.48 L29.66 145.17 L29.46 144.05 L28.29 143.17 L27.25 141.99 L27.48 140 L27.9 139.43 L29.7 137.98 L30.23 137.12 L30.11 136.51 L28.21 134.18 L26.91 133.05 L25.47 132.38 L24.05 132.55 L23.4 132.92 L22.57 133.22 L21.84 133.14 L21.46 132.4 L21.49 132.01 L21.7 130.96 L21.66 130.63 L21.27 130.33 L20.93 130.4 L20.58 130.53 L20.18 130.39 L19.6 129.65 L19.31 128.84 L19.11 128.08 L18.81 127.48 L18.25 127.08 L16.39 126.18 L15.77 125.99 L12.41 126.38 L10.61 126.09 L9.7 124.66 L9.85 124.16 L9.92 123.92 L10.46 123.25 L10.91 122.55 L10.87 121.71 L10.61 120.79 L10.7 119.95 L11.02 119.15 L11.46 118.31 L11.46 118.3 L11.94 117.35 L13.19 115.93 L13.65 114.92 L14.08 113.54 L14.56 112.7 L15.24 112.16 L16.24 111.68 L16.52 111.27 L16.1 110.03 L16.17 109.45 L16.6 109.08 L17.52 108.69 L17.91 108.17 L18.25 107.21 L18.56 105.92 L18.74 104.63 L18.52 101.47 L19.98 99.81 L21.85 98.34 L23.02 96.66 L22.99 95.61 L22.6 94.57 L21.96 93.68 L21.23 93.05 L20.42 92.74 L19.76 92.88 L18.05 93.87 L15.46 93.4 L14.7 93.04 L14.23 92.71 L14.08 92.13 L14.25 91.05 L14.28 90.44 L14.12 88.76 L14.12 87.98 L14.78 85.32 L14.84 84.18 L14.36 80.81 L14.61 78.19 L14.62 76.82 L14.25 75.72 L13.87 75.29 L13.47 75.02 L12.53 74.72 L11.89 74.39 L12.05 73.98 L12.5 73.53 L12.72 73.04 L12.46 71.85 L12.21 71.05 L12.11 70.22 L12.32 68.89 L13.72 64.08 L13.48 62.13 L10.73 60.8 L9.89 59.99 L9.18 58.99 L8.68 57.5 L8.46 56.99 L8.29 56.48 L8.31 55.93 L8.28 55.32 L7.89 54.91 L7.41 54.54 L7.1 54.07 L6.88 53.04 L6.72 52.59 L6.44 52.13 L6.44 52.11 L7.17 50.87 L8.01 50.17 L8.51 49.38 L8.03 46.75 L8.29 45.69 L9.32 43.67 L8.9 42.03 L6.9 40.6 L4.59 39.39 L3.26 38.36 L3.2 37.78 L3.55 36.57 L3.51 35.98 L2.89 34.65 L2.71 34.08 L2.69 33.48 L2.82 33.04 L2.83 32.54 L2.22 31.22 L1.91 29.79 L1.69 29.16 L1.68 29.13 L0.32 27.52 L0 26.71 L0.58 25.9 L1.63 25.24 L2.41 24.95 L3.22 24.93 L4.37 25.07 L5.56 24.94 L8.37 24.2 L9.61 24.34 L13.19 26.12 L14.51 26.23 L15.65 25.96 L18.33 24.73 L19.33 24 L20.2 22.67 L20.22 21.45 L20.04 20.19 L20.3 18.69 L20.3 18.69 L20.82 17.89 L20.85 17.09 L20.68 16.23 L20.57 15.28 L20.68 14.17 L20.91 13.27 L22.63 9.81 L22.94 8.94 L22.97 8.69 L23.07 7.88 L22.8 5.68 L23.03 4.92 L28.54 0.38 L29.82 0 L30.61 0.56 L32.01 2.69 L32.72 3.5 L35.82 4.95 L36.82 5.81 Z M544.5 835.42 L544.86 835.58 L545.15 835.82 L545.4 836.13 L545.59 836.53 L544.5 838.75 L544.23 838.81 L543.62 838.62 L543.01 838.3 L542.73 837.97 L542.67 837.21 L542.54 836.63 L542.52 836.09 L542.73 835.42 L543.05 834.97 L543.49 834.75 L543.99 834.86 Z M519.15 825.08 L515.32 824.86 L514.93 824.84 L513.25 824.03 L512.2 822.31 L512.72 821.5 L513.49 820.93 L514.41 820.64 L515.42 820.7 L516.29 821 L518.21 821.19 L518.95 821.49 L519.05 821.74 L519.09 821.86 L519.09 821.87 L519.07 822.39 L519.08 822.46 L519.13 822.86 L519.13 822.87 L519.5 823.07 L519.72 823.27 L519.85 823.38 L519.9 823.71 L519.95 824.07 L519.83 824.42 L519.72 824.77 Z M481.86 807.02 L480.93 807.56 L479.93 807.56 L476.98 807.05 L476.07 806.66 L475.96 806.59 L475.27 806.14 L473.64 804.78 L473.18 804.24 L473.38 803.99 L473.75 803.91 L474.16 803.75 L474.66 803.72 L479.03 805.07 L482.91 805.36 L484.12 805.83 L484.8 806.45 L485.22 806.84 L484.47 807.04 L482.48 806.87 Z M637.53 805.03 L637.77 803.48 L638.51 802.42 L639.83 801.81 L641.77 801.62 L642.03 803.41 L640.48 804.78 L638.5 805.42 Z M631.84 795.23 L632.86 795.48 L634.19 796.06 L635.01 796.7 L635.32 796.93 L635.73 798.01 L634.89 798.49 L634.06 798.96 L630.86 799.79 L629.72 800.82 L628.54 803.42 L627.95 804.43 L625.8 806.62 L625.47 807.4 L625.02 807.87 L623.06 808.87 L622.61 809.4 L622.17 809.69 L619.62 812.15 L618.09 813.04 L616.9 812.53 L615.77 811.38 L614.45 810.34 L610.99 812.12 L610.03 812.95 L609.06 813.5 L607.96 813.49 L605.6 813.14 L604.55 813.38 L603.45 813.89 L600.65 815.9 L597.76 817.13 L596 818.43 L595.09 818.92 L591.89 819.28 L589.62 819.9 L588.66 820.51 L588.18 820.7 L588.18 820.7 L588.02 820.67 L587.74 820.61 L587.16 820.42 L586.63 820.42 L586.41 820.91 L586.17 821.31 L585.61 821.62 L584.97 821.81 L584.5 821.88 L584.49 821.88 L584.27 821.73 L584.09 821.6 L583.82 820.94 L583.57 819.51 L583.92 818.49 L584.02 817.83 L583.75 817.53 L583.22 815.73 L583.78 815.13 L586.23 815.99 L586.79 815.73 L587.11 815.83 L587.27 815.87 L587.27 815.87 L590.01 814.33 L596.93 812.07 L597.94 811.95 L598.59 811.7 L598.77 811.63 L598.78 811.62 L601.18 810.15 L602.21 809.31 L605.6 807.99 L606.13 807.96 L607.21 808.04 L607.72 807.99 L608.1 807.83 L608.64 807.38 L609.14 807.2 L608.98 806.81 L608.76 806.41 L609.55 805.5 L609.74 804.41 L609.49 801.82 L609.09 800.83 L608.2 799.98 L607.34 799.3 L606.99 798.84 L608.3 798.08 L615.54 800.82 L617.5 800.36 L622.96 796.82 L629.81 795.27 Z M645.34 789.24 L645.89 789.6 L646.49 789.84 L646.98 790.23 L647 790.35 L647.18 791.08 L646.98 791.82 L646.49 792.36 L646.12 792.55 L645.79 792.71 L644.99 792.85 L643.35 792.22 L643.47 790.75 L644.43 789.43 Z M325.88 661.97 L326.81 662.39 L327.37 662.72 L327.13 663.75 L327.28 664.78 L326.94 665.67 L326.43 665.75 L325.92 665.29 L325.41 663.98 L325.08 662.81 L324.71 662.11 L325.32 661.74 Z M545.55 857.52 L545.81 858.03 L545.89 859.06 L545.38 859.45 L544.67 859.28 L543.85 858.9 L543.64 858.26 L544.32 857.89 Z M615.36 814.02 L615.76 814.63 L615.86 816 L615.12 817.24 L614.07 817.87 L613.23 817.4 L613.35 816.06 L614.02 814.77 L614.86 814.12 Z M498.56 813.47 L499.17 813.76 L499.58 814.63 L498.91 815.31 L498 815.18 L497.1 814.72 L496.58 814.01 L496.99 813.38 L498.03 813.34 Z M571.56 859.87 L571.62 860.43 L571.85 861.09 L571.45 861.45 L571.02 861.48 L570.73 861.66 L570.23 861.19 L569.99 861.38 L570.02 861.02 L569.85 860.67 L569.66 860.11 L570.41 859.7 L571.3 859.46 Z "/>
</g>
</svg>
