<svg xmlns="http://www.w3.org/2000/svg" viewBox="0 0 1000 1017.13">
<g fill="#ccc" stroke="#333" stroke-width="0.5" stroke-linejoin="round">
<path fill-rule="evenodd" d="M612.34 29.99 L610.95 33.68 L610.97 34.94 L611.78 37.21 L612.39 38.06 L613.11 38.4 L613.88 38.64 L614.61 39.18 L615.01 40.01 L615.53 41.96 L616 42.6 L616.95 42.8 L618.97 42.18 L619.95 42.13 L620.67 42.53 L621.83 43.8 L624.06 44.98 L624.73 46.13 L624.56 47.52 L623.44 48.94 L622.87 52.35 L623.46 54.61 L624.4 56.7 L624.88 59.56 L624.33 62.64 L622.92 64.92 L619.29 69.39 L618.2 72.54 L619 74.76 L621.04 76.13 L623.7 76.73 L626.87 76.56 L628.35 76.81 L629.62 77.93 L630.56 79.06 L631.62 79.81 L632.81 80.2 L634.14 80.24 L635.86 81.17 L637.37 83.23 L639.85 87.81 L640.94 90.56 L640.77 92.94 L638.79 97.55 L637.69 101.9 L637.6 104.58 L637.29 104.82 L636.02 105.32 L635.57 105.63 L635.36 107.66 L636.85 109.57 L637.22 109.89 L638.83 111.28 L640.14 112.71 L640.24 114.51 L640.89 115.55 L641.77 116.4 L642.59 117.62 L643.08 119.27 L643.25 120.52 L643.63 121.68 L644.8 123.02 L647.57 124.33 L650.55 124.09 L656.27 121.8 L658.86 121.99 L660.66 124.27 L661.76 127.45 L662.25 130.39 L662.51 135.86 L663.22 138.07 L665.14 140.52 L662.66 142.13 L663.24 143.66 L665.15 145.15 L666.64 146.63 L667.11 149.06 L666.86 154.9 L667.37 157.56 L670.54 161.69 L671.84 164.25 L671.42 166.79 L670.16 168.79 L668.91 171.39 L668.3 174 L668.97 176.03 L668.97 176.05 L668.98 176.07 L669 176.07 L670.8 177.93 L672.99 178.23 L675.27 177.46 L677.28 176.07 L677.31 176.07 L677.32 176.06 L677.35 176.04 L679.16 175.53 L682.55 173.84 L685.23 173.79 L687.49 174.62 L691.43 176.07 L695.21 179.58 L696.53 180.41 L699.31 180.94 L702.35 183.75 L707.09 190.47 L709.7 196.98 L710.96 198.64 L712.79 199.16 L716.65 197.99 L717.79 198.23 L719.45 199.37 L721.56 199.22 L723.53 198.23 L726.01 196.1 L727.05 196.15 L728.1 196.49 L729.16 196.6 L732.44 195.46 L738.95 195.76 L741 195.09 L742.97 193.95 L744.62 193.33 L746.31 193.36 L749.46 194.57 L750.2 194.69 L750.69 195.14 L751.2 197.71 L751.64 198.59 L752.26 199.28 L753.1 199.97 L755.16 200.86 L757.35 200.77 L761.69 199.82 L763.63 199.11 L765.38 197.88 L767.2 196.98 L769.41 197.2 L771.11 198.42 L771.87 200.1 L771.67 202.08 L770.47 204.13 L768.85 205.6 L765.74 207.58 L764.35 209.65 L762.76 211.18 L760.62 211.43 L756.61 211.2 L751.49 213.93 L749.38 214.42 L742.23 214.2 L740.13 214.93 L738.83 216.38 L738.02 218.37 L737.66 220.58 L737.66 222.65 L738.65 227.48 L738.37 229.22 L735.25 228.26 L734.75 228.26 L734.29 228.39 L735.18 230.93 L736.32 233.32 L736.72 233.84 L736.87 234.38 L736.73 234.89 L736.32 235.39 L735.51 236.01 L734.98 236.84 L734.72 237.85 L734.76 239.01 L736.1 242.63 L742.63 253.13 L748.28 258.2 L750.72 261.03 L751.46 264.72 L751.25 265.23 L750.71 266.49 L749.45 268.01 L748.54 269.61 L748.81 271.58 L750.24 272.57 L754.2 272.53 L755.74 273.83 L755.36 277.12 L753.14 280.92 L751.77 284.44 L753.88 286.92 L753.07 288.43 L751.97 289.02 L750.7 289.27 L748.11 290.14 L746.28 289.65 L745.25 289.76 L742.51 291.42 L741.01 292.83 L739.39 293.25 L736.32 291.92 L735.01 292.02 L733.95 291.58 L731.8 290.18 L730.29 289.66 L729.57 289.95 L728.16 292.29 L728.06 292.87 L728.34 294.41 L728.13 295 L727.52 295.31 L726.08 295.45 L725.41 295.68 L724.33 296.76 L723.83 298.19 L723.81 299.85 L724.11 301.55 L724.11 301.57 L725.05 304.8 L724.78 307.14 L723.92 309.42 L723.14 312.47 L721.58 314.54 L718.83 313.58 L717.62 312.94 L715.78 311.96 L713.42 312.08 L712.74 314.47 L712.94 317.63 L712.42 320.67 L709.59 322.65 L706.68 322.95 L705.39 323.5 L704.39 324.91 L704.06 326.4 L704.3 328.92 L703.99 330.34 L701.14 333.62 L700.36 335.62 L701.88 337.36 L702.73 337.84 L703.65 338.56 L704.4 339.46 L704.76 340.47 L705.07 341.79 L705.57 342.55 L706.1 343.16 L706.52 344.02 L706.84 346.37 L706.89 348.71 L707.22 350.81 L708.36 352.42 L708.66 353.23 L708.63 354.56 L708.36 355.88 L707.94 356.68 L707.33 356.81 L705.08 356.01 L698.06 355.46 L694.9 354.69 L691.39 352.84 L687.41 351.67 L686.99 355.07 L687.84 360.09 L687.7 363.76 L687.21 364.75 L686.63 365.65 L685.97 366.42 L685.23 367.1 L679.86 368.31 L678.87 369.94 L682.03 380.13 L683.34 382.81 L685.23 384.21 L687.26 382.57 L689.55 382.55 L691.66 383.9 L693.23 386.33 L693.79 389.14 L693.58 392.19 L692.22 398.14 L691.71 399.25 L690.27 401.59 L690.07 402.73 L690.56 404.14 L691.31 405.21 L691.9 406.28 L691.9 407.65 L690.86 409.05 L686.73 412.44 L685.23 414.05 L682.73 416.25 L681.58 418.99 L680.72 422.13 L679.16 425.56 L679.16 425.57 L679.14 425.57 L678.3 426.45 L677.3 427.13 L675.12 428.12 L677.23 431.09 L679.55 432.41 L682.2 432.58 L685.23 432.11 L685.48 432.15 L685.7 432.25 L685.89 432.42 L694.99 449.01 L696.36 450.53 L697.93 451.86 L699.27 453.34 L700.01 455.38 L700.45 457.87 L701.15 460.04 L702.18 462.04 L703.57 464.03 L705.13 465.58 L709.94 469.05 L710.3 470 L710.64 470.91 L710.62 475.27 L711.32 476.13 L713.1 475.68 L714.78 474.56 L717.75 471.69 L719.62 470.89 L724.58 470.81 L726.79 470.26 L726.39 474.03 L728.19 475.88 L730.36 477.37 L731.08 480.08 L729.82 481.93 L724.97 484.9 L723.38 487.01 L725.13 488.51 L728.16 489.22 L731.26 488.83 L733.15 487.02 L733.66 486.74 L734.17 486.64 L734.69 486.74 L734.81 486.81 L735.2 487.03 L735.52 487.21 L735.83 487.45 L739.26 491.75 L740.43 493.87 L741.25 496.18 L741.56 498.67 L741.62 500.71 L742.15 502.49 L745.57 505.81 L749.64 511.57 L752.89 514.21 L754.32 515.67 L755.22 517.73 L755.25 518.99 L754.63 521.33 L754.56 522.33 L755.01 523.47 L756.2 524.22 L756.26 525.32 L755.53 526.89 L754.13 528.61 L751.37 531.35 L749.21 532.99 L747.56 533.32 L745.84 533.19 L743.59 533.39 L741.54 534.54 L741.44 536.02 L742.87 537.25 L747.36 537.77 L749.28 538.59 L750.75 539.91 L751.34 541.58 L750.66 543.64 L749.14 545.22 L747.44 546.61 L746.18 548.09 L746.18 548.11 L748.36 552.99 L754.34 553.72 L766.39 552.36 L777.24 555.74 L787.43 560.6 L790.29 563.5 L799.83 569.03 L800.22 569.25 L804.91 573.06 L811.61 577.12 L815.84 581.95 L846.61 608.85 L846.63 608.85 L846.64 608.86 L849.9 611.27 L853.01 612.9 L856.24 613.61 L859.84 613.22 L861.64 612.54 L866.32 609.94 L867.76 610.04 L873.55 612.03 L875.73 613.19 L877.04 614.7 L878.18 616.57 L879.9 618.77 L882.63 620.86 L883.2 621.75 L883.36 623.15 L882.99 623.94 L882.42 624.61 L881.52 626.85 L881.11 627.31 L881.09 627.91 L881.78 629.55 L882.25 630.24 L885.29 633.15 L885.77 633.82 L886.16 634.49 L887.97 637.01 L888.62 637.7 L889.61 638.19 L890.16 639.72 L892.15 641.25 L892.69 642.81 L892.53 644.49 L891.98 645.67 L891.38 646.73 L890.98 648.04 L890.76 649.72 L890.86 650.68 L891.56 651.22 L893.16 651.68 L894.47 652.52 L895.3 653.75 L896.2 654.79 L897.75 654.98 L899.72 655.8 L899.94 656.12 L901.45 658.3 L903.78 663.56 L905.35 665.36 L908.92 667.11 L909.93 669.24 L909.93 669.26 L910.41 671.39 L914.07 677.96 L914.76 678.92 L916.61 680.14 L917.39 680.86 L917.96 681.95 L918.49 684.06 L918.86 684.97 L920.5 686.8 L924.53 689.84 L925.93 691.99 L926.21 694.55 L925.61 697.27 L910.03 739.74 L909.78 760.23 L909.42 789.1 L943 789.11 L944.1 789.77 L944.42 791.3 L944.07 848.58 L944.23 852.21 L955.05 853.76 L956.19 854.16 L957.25 854.82 L958.96 856.67 L960.27 858.99 L961.19 861.58 L962.03 866.79 L962.47 867.93 L963.29 868.79 L964.43 869.3 L965.63 869.49 L966.87 869.44 L970.61 868.81 L971.9 868.87 L973.13 869.29 L974.09 870.11 L976.16 873.58 L979.45 877.33 L983.42 880.98 L984.09 881.98 L984.61 883.18 L984.81 884.46 L984.54 885.72 L983.8 886.74 L982.82 887.62 L982.02 888.61 L981.79 889.92 L981.99 890.74 L983.27 893.48 L985.31 895.79 L985.89 897.01 L986.17 897.21 L988.04 903.08 L988.25 904.62 L989.16 906.92 L989.63 907.69 L990.3 908.37 L991.71 909.49 L993.23 910.42 L996.4 911.32 L997.11 911.65 L997.09 911.71 L997.09 912.25 L999.56 912.22 L1000 913.38 L998.74 914.79 L996.04 915.47 L984.94 914.35 L977.13 911.64 L973.46 908.91 L969.89 907.8 L964.23 904.2 L959.79 902.65 L955.02 901.77 L950.65 901.7 L946.75 902.74 L939.68 906.61 L938.95 903.5 L938.6 899.93 L937.9 896.66 L936.18 894.44 L937.44 898.29 L937.58 899.73 L937.33 901.26 L936.89 902.69 L936.81 903.96 L937.58 905 L937.53 907.79 L915.4 896.63 L909.54 895.49 L883.14 895.49 L877.25 896.21 L860.79 903.04 L855.43 906.69 L851.94 911.7 L843.24 933.94 L839.5 940.95 L838.98 942.64 L838.58 946.19 L838.33 947.38 L836.34 951.79 L828.7 964.47 L825.67 972.45 L824.15 974.75 L817.6 981.96 L811.2 992.76 L795.83 1009.99 L792.86 1013.32 L788.38 1014.27 L783.91 1015.23 L782.12 1015.61 L779.44 1016.18 L774.98 1017.13 L764.21 1016.16 L756.42 1015.45 L748.63 1014.74 L740.86 1014.04 L733.06 1013.33 L722.6 1012.38 L712.12 1011.43 L701.64 1010.48 L691.17 1009.53 L680.69 1008.58 L670.22 1007.63 L659.75 1006.68 L649.27 1005.73 L641.13 1004.99 L633 1004.25 L624.87 1003.52 L616.72 1002.77 L607.37 1001.93 L606.7 1001.67 L606.06 1001.41 L605.4 1001.15 L604.75 1000.9 L596.89 994.55 L587.16 986.67 L577.41 978.79 L567.66 970.9 L557.92 963.01 L546.22 953.51 L534.52 944.01 L522.81 934.5 L516.06 929.02 L511.1 924.98 L499.4 915.46 L487.68 905.93 L475.97 896.39 L464.27 886.85 L455.26 879.5 L446.25 872.14 L437.25 864.79 L428.24 857.41 L417.44 848.58 L417.43 848.57 L417.41 848.57 L417.4 848.56 L409.71 841.87 L407.72 840.14 L398.03 831.71 L388.36 823.28 L378.67 814.83 L370.03 807.34 L361.4 799.85 L352.77 792.35 L344.12 784.84 L337.35 778.94 L328.23 773.52 L319.28 768.18 L310.3 762.84 L301.34 757.5 L292.38 752.16 L283.41 746.81 L274.44 741.46 L265.48 736.11 L256.52 730.75 L247.55 725.39 L238.59 720.03 L229.62 714.67 L220.65 709.31 L211.7 703.94 L202.73 698.56 L193.75 693.2 L184.79 687.82 L174.28 681.51 L168.59 678.18 L163.09 676.02 L128.24 669.28 L128.22 669.28 L128.21 669.27 L128.19 669.27 L119.99 667.87 L99.8 664.4 L79.59 660.92 L59.38 657.44 L39.17 653.97 L38.88 654.06 L38.6 654.16 L38.3 654.26 L38 654.36 L37.98 653.43 L50.28 642.92 L52.89 639.1 L50.75 630.95 L49.24 627.23 L47.14 626 L27.78 631.36 L26.74 630.78 L25.98 628.96 L21 611.56 L20.86 611.37 L20.82 611.22 L20.86 611.13 L21 611.08 L28.89 608.6 L22.02 583.24 L17.2 565.4 L12.54 548.11 L9 535.14 L4.75 519.48 L0 502.03 L11.3 495.25 L22.6 488.47 L33.91 481.67 L45.21 474.88 L56.51 468.08 L67.81 461.28 L79.11 454.47 L90.42 447.67 L101.71 440.85 L113.02 434.03 L124.31 427.21 L135.61 420.38 L142.94 415.95 L146.92 413.54 L158.22 406.7 L169.52 399.86 L180.82 393.01 L195.81 383.92 L220.91 377.16 L223.9 375.21 L226.22 371.9 L229.9 363.76 L229.9 363.75 L247.44 329.69 L248.32 326.63 L248.55 323.37 L247.68 301.59 L247.1 281 L247.02 278.1 L248.02 270.48 L252.29 255.02 L253.19 242.78 L254.13 239.01 L254.14 239.01 L254.15 239.01 L254.15 238.99 L258.97 231.71 L262.42 226.51 L264.03 222.71 L264.59 218.77 L264.16 201.46 L263.68 197.32 L262.57 193.28 L254.67 176.04 L254.67 176.03 L254.66 176.03 L252.04 169.88 L251.63 167.69 L251.62 165.58 L254.92 133.79 L255.75 130.39 L264.77 112.72 L264.77 112.71 L264.78 112.7 L264.78 112.69 L266.83 109.86 L269.84 108.46 L276.48 107.35 L308.18 100.59 L310.98 99.26 L313.68 96.95 L327.45 82.2 L347.88 60.28 L358.42 48.94 L358.45 48.94 L358.45 48.92 L364.99 42.68 L368.15 40.23 L368.19 40.2 L368.16 38.34 L367.58 36.91 L366.81 35.6 L366.15 34.09 L370.72 33.55 L376.57 31.61 L385.37 30.13 L387.01 29.39 L387.35 28.69 L388.61 25.21 L401.42 6.45 L401.81 5.43 L401.94 4.54 L402.15 3.64 L402.79 2.6 L403.45 2.13 L408.5 0.08 L409.41 0 L410.63 0.15 L411.52 0.82 L411.96 3.04 L412.84 3.69 L421.29 6.5 L425.41 7.12 L429.76 5.61 L432.37 3.63 L436.29 1.96 L440.4 0.86 L443.58 0.56 L445.33 1.06 L458.76 8.33 L459.47 8.59 L460.32 8.71 L461.23 8.53 L462.18 7.55 L463.08 7.14 L464.97 6.85 L466.2 7.11 L468.89 9.2 L470.28 10.28 L474.44 12.38 L479.19 16.3 L480.86 16.98 L482.17 16.8 L484.69 15.83 L485.96 15.63 L487.28 15.83 L488.12 16.29 L489.99 17.71 L492.57 18.76 L495.03 19.08 L505.51 18.36 L508.18 18.61 L510.6 19.23 L511.62 19.93 L513.82 22.09 L514.56 22.58 L515.85 22.24 L517.69 20.35 L523.17 19.35 L526.29 15.73 L529.32 11.31 L533.06 8.1 L537.68 7.36 L541.1 7.94 L543.04 8.27 L552.9 12.38 L555.19 13.88 L556.85 15.61 L558.06 17.82 L558.93 20.77 L559.45 23.58 L559.56 25.18 L559.42 26.43 L558.58 27.94 L557.57 28.4 L556.4 28.62 L555.09 29.39 L553.38 31.62 L552.51 34.22 L552.44 36.95 L553.2 39.6 L557.32 48.92 L557.99 50.26 L558.91 51.02 L563.15 52.12 L564.42 52.02 L565.38 51.08 L566.33 48.94 L566.34 48.94 L566.35 48.94 L566.35 48.92 L567.94 46.19 L568.3 44.18 L569.11 42.74 L577.79 39.88 L580.49 38.4 L583.02 36.39 L585.49 33.24 L589.17 29.77 L593.14 26.85 L596.41 25.32 L598.32 25.23 L609.04 26.75 L611.09 27.78 Z "/>
</g>
</svg>
