<svg xmlns="http://www.w3.org/2000/svg" viewBox="0 0 1000 1475.68">
<g fill="#ccc" stroke="#333" stroke-width="0.5" stroke-linejoin="round">
<path fill-rule="evenodd" d="M720.47 123.96 L716.15 125.58 L714.19 128.04 L712.47 130.77 L710.65 132.8 L696.41 135.02 L693.75 137.11 L691.51 139.7 L685.21 149.55 L686.13 152.94 L685.54 153.61 L684.36 154.03 L683.46 156.78 L684.72 166.7 L684.45 169.93 L682.87 172.55 L682.56 173.06 L678.13 174.9 L676.29 177.29 L675.46 181.88 L676.4 191.74 L676.4 195.79 L674.1 204.1 L670.59 210.97 L654.41 231.17 L652.99 236.38 L652.55 246.01 L653.29 248.91 L654.49 250.22 L654.48 251.04 L651.56 252.32 L649.22 252.2 L645.04 249.86 L638.36 251.94 L630.7 249.8 L626.73 252.16 L618.97 259.84 L611.32 264.25 L603.76 264.81 L596.39 260.9 L590.02 255.31 L586.95 255.15 L579.32 262.87 L568.27 268.4 L571.94 271.51 L573.3 272.27 L571.58 278.07 L573.41 282.05 L577.1 284.46 L580.96 285.56 L582.84 286.77 L585.09 291.65 L586.84 293.56 L588.7 293.64 L592.16 290.99 L593.84 290.48 L596.92 292.27 L604.06 298.74 L607.54 300.09 L611.29 298.26 L614.76 295.71 L617.13 296.33 L617.71 303.84 L617.73 304.07 L608.5 307.15 L586.3 328.4 L577.76 331.78 L569 331.42 L552.1 327.43 L547.4 332.71 L542.88 339.42 L540.13 345.06 L538.99 346.68 L536.44 349.08 L530.95 352.34 L519.11 355.87 L515.03 358.14 L513.83 358.8 L516.65 361.46 L517.33 364.41 L517.8 367.5 L519.96 370.69 L525.29 376.63 L534.76 390.05 L540 395.53 L545.6 398.54 L552.1 398.58 L556.82 410.58 L559.72 416.07 L563.56 420.39 L565.51 421.16 L567.28 421.86 L576.01 423.18 L579.29 425.69 L580.76 431.78 L581.65 448.65 L584.6 454.54 L588.95 457.24 L601.18 458.89 L614.45 458.01 L618.42 458.76 L634.5 470.88 L636.05 473.31 L636.42 476.67 L637.15 479.86 L639.77 481.79 L663.57 487.41 L668.37 486.45 L677.55 479.11 L683.11 479.58 L680.63 482.91 L681.42 483.48 L683.65 483.1 L685.5 483.63 L687.13 486.98 L687.57 488.63 L688.56 488.9 L691.85 488.1 L702.67 491.79 L705 491.54 L706.38 491.38 L701.28 480.7 L701.28 478.17 L702.88 476.2 L709.67 472.18 L710.43 473.13 L709.79 475.88 L709.48 479.27 L709.5 483.65 L709.27 487.12 L710.06 488.59 L713.13 487.02 L715.2 484.7 L716.82 481.37 L717.4 477.5 L716.4 473.7 L720.77 471.48 L720.49 469.47 L718.42 467.7 L717.35 466.18 L718.6 462.38 L720.03 459.88 L721.86 458.01 L724.4 456.02 L736.61 452.77 L741.38 449.65 L739.95 443.38 L743.04 439.02 L735.1 432.28 L736.44 426.97 L728.96 423.24 L728.42 419.13 L729.49 418.85 L731.16 419.41 L732.38 417.85 L732.67 417.91 L734.4 414.37 L734.32 414.13 L733.73 413.54 L732.88 411.6 L732.33 409.27 L732.66 407.45 L733.32 407.08 L734.18 406.6 L738.1 407.34 L739.92 407.28 L747.25 401.7 L758.07 384.49 L764.59 378.06 L771.6 377.43 L779.12 381.29 L792.96 392.92 L794.51 395.51 L796.54 401.98 L798.34 403.07 L801 403.28 L802.4 404.83 L804.56 410.79 L807.14 417.93 L807.54 423.47 L805.75 427.32 L801.84 429.42 L809.76 433.54 L811.75 435.81 L812.77 439.02 L813.54 442.73 L814.83 446.56 L818.53 452.67 L822.88 457.75 L827.64 461.81 L832.48 464.92 L835.14 465.16 L836.94 463.23 L838.62 460.74 L841.01 459.31 L843.66 459.66 L846.05 461.04 L850.71 465.06 L853.96 468.93 L855.77 471.08 L857.06 477.89 L854.96 484.85 L849.95 491.34 L852.33 495.71 L852.04 500.03 L848.59 508.97 L851.99 511.73 L857.94 519.08 L861.09 520.8 L862.32 520.06 L863.6 518.07 L864.7 516.37 L865.86 515.05 L867.63 514.7 L871.04 516.15 L872.79 516.37 L891.85 509.24 L898.01 508.97 L898.16 509.63 L899.05 511.24 L900.38 512.93 L901.8 513.95 L903.39 513.91 L909.13 511.83 L914.38 510.93 L915.79 509.59 L916.74 506.43 L916.58 503.27 L916.2 500.34 L916.47 497.99 L919.43 492.92 L921.26 493.21 L922.97 495.84 L925.61 497.77 L928.58 497.08 L931.75 495.43 L935.08 494.98 L938.37 497.75 L952.39 511.52 L955.88 513.33 L957.46 514.53 L960.67 519.91 L962.03 521.12 L966.78 521.58 L968.71 522.29 L970.34 523.48 L974.63 529.78 L973.81 534.46 L966.55 543.13 L962.71 544.64 L957.18 542.64 L951.93 539.27 L948.88 536.68 L945.7 537.28 L930.09 530.45 L918.31 528.87 L918.31 531.73 L921 533.58 L919.65 537.15 L916.88 542.15 L915.39 548.44 L914.2 559.63 L914.05 566.44 L915.39 573.1 L920.33 579.87 L927.8 583.78 L944.32 586.03 L944.32 588.86 L941.91 595.56 L941.7 602.25 L943.93 608.04 L948.88 612.04 L944.31 617.23 L943.16 627.33 L943.75 637.18 L944.74 653.77 L945.83 659.33 L947.29 664.7 L948.88 668.65 L951.05 670.72 L954.41 673.01 L956.84 674.67 L960.7 683.84 L966.78 688.05 L973.48 691.32 L977.95 694.56 L979.72 697.98 L981.32 703.01 L981.84 708.6 L980.37 713.77 L976.59 719.86 L975.56 722.32 L975.04 725.31 L973.41 728.48 L970.81 735.28 L968.82 738.08 L967.15 734.32 L963.24 733.68 L958.73 735.25 L955.12 738.08 L969.43 745 L970.5 749.13 L971.3 753.51 L973.38 756.21 L972.59 757.39 L971.14 760.13 L970.34 761.32 L973.97 763.18 L983.15 763.74 L987.22 766.4 L984.73 773.14 L981.92 773.32 L978.89 770.68 L975.73 768.99 L974.82 768.12 L972.05 764.47 L971.17 763.65 L969.05 764.09 L965.16 765.98 L963.55 766.4 L950.54 776.62 L949.91 780.7 L951.43 783.86 L956.64 789.37 L961.01 795.93 L963.95 798.53 L970.21 800.02 L972.55 801.93 L974.22 802.35 L976.93 803.69 L976.93 806.66 L975.77 809.73 L975.04 811.28 L974.79 819.5 L975.17 824.6 L976.43 830.11 L978.72 834.04 L978.78 834.15 L981.39 837.35 L982.72 841.42 L981.14 848.14 L984.13 852.55 L991.78 868.65 L991.4 870.06 L991.26 870.28 L991.04 870.27 L990.28 870.96 L991.32 877.04 L991.02 886.05 L989.77 894.88 L987.98 900.45 L987.04 906.41 L989.97 912.14 L999.32 922.84 L1000 925.61 L997.11 926.87 L995.92 928.49 L993.69 935.43 L992.54 936.99 L990.09 939.58 L982.52 957.19 L984.19 959.94 L974.63 969.09 L972.01 972.53 L969.54 977.88 L964.24 995.43 L965.59 1003.62 L964.88 1005.31 L960.99 1014.44 L950.54 1033.13 L949.37 1040 L949.62 1045.5 L951.93 1055.93 L952.52 1061.58 L951.93 1077.24 L949 1083.64 L935.46 1106.08 L931.43 1111 L927.7 1113.09 L924.25 1117.96 L919.13 1127.33 L917.04 1133 L916.9 1139.68 L917.31 1146.04 L916.92 1150.92 L915.37 1148.16 L913.61 1146.42 L911.58 1145.66 L898.64 1146.73 L894.01 1145.23 L895.32 1138.66 L893.3 1139.42 L891.37 1140.49 L889.57 1141.9 L887.85 1143.66 L887.85 1145.93 L891.2 1147.19 L894.31 1150.03 L896.85 1154.06 L898.52 1158.85 L897.1 1162.67 L904.07 1164.24 L906.12 1167.22 L907.32 1171.05 L910.06 1167.83 L915.39 1158.85 L915.39 1161.12 L911.65 1168.73 L916.1 1177.11 L927.57 1188.71 L921.17 1204.55 L918.31 1208.58 L916.08 1210.83 L914.48 1211.48 L912.35 1211.06 L909.48 1208.83 L909.96 1206.95 L911.59 1205.26 L913.61 1200.79 L913.31 1199.19 L910.69 1198.88 L909.35 1199.58 L907.41 1202.39 L904.7 1204.74 L904.31 1205.45 L903.65 1205.81 L893.95 1205.88 L893.95 1203.63 L898.52 1203.63 L895.47 1200.94 L893.18 1201.01 L889.37 1203.63 L878.71 1205.88 L869.28 1211.48 L865.4 1210.97 L859.61 1204.74 L855.53 1202.54 L839 1197.5 L823.23 1199.9 L818.93 1198.88 L818.93 1196.14 L822.3 1194.66 L825.52 1191.46 L827.78 1186.9 L828.19 1181.24 L825.52 1185.03 L821.74 1188.84 L817.35 1190.71 L812.97 1188.71 L811.45 1190.97 L811.7 1193.89 L812.02 1195.06 L812.05 1196.2 L811.45 1198.88 L813.86 1197.15 L814.64 1196.14 L816.02 1196.14 L815.3 1201.47 L814.61 1203.57 L812.97 1205.88 L814.5 1206.03 L816.02 1205.88 L816.02 1208.58 L815.28 1208.73 L813.72 1208.55 L812.97 1208.58 L814.64 1211.06 L798.52 1220.99 L796.26 1223.34 L793.73 1227.91 L790.71 1230.94 L786.95 1228.66 L789 1224.2 L791.65 1221.8 L794.48 1219.97 L797 1217.26 L797.04 1213.67 L793.19 1198.88 L791.91 1196.38 L789.69 1192.97 L787.1 1189.99 L784.75 1188.71 L782.23 1186.3 L778.98 1174.92 L776.16 1171.06 L776.8 1175.32 L777.39 1179.23 L777.67 1181.1 L777.83 1184.75 L778.51 1186.48 L781.62 1192.56 L782.38 1196.14 L779.52 1205.14 L780.04 1208.67 L785.57 1208.58 L785.57 1211.06 L782.04 1213.99 L775.6 1222.93 L771.74 1225.96 L766.77 1227.11 L756.71 1227.42 L751.93 1228.66 L753.26 1224.58 L759.55 1216.02 L754.63 1213.82 L751.86 1213.37 L748.76 1213.76 L748.76 1216.02 L750.04 1217.08 L750.67 1218.19 L751.15 1219.44 L751.93 1220.99 L749.61 1220.59 L746.74 1218.9 L744.95 1218.5 L742.2 1219.44 L740.71 1221.57 L739.67 1224.05 L738.23 1225.96 L733.79 1228 L729.65 1228 L721.22 1225.96 L678.47 1230.57 L663.12 1238.92 L654.85 1240.84 L653.78 1241.74 L652.94 1243.61 L651.75 1245.37 L649.52 1245.8 L647.97 1244.4 L647.03 1241.84 L646.37 1239.43 L645.66 1238.36 L641.79 1239.52 L637.54 1242.71 L634.85 1247.5 L635.68 1253.43 L637.86 1250.7 L641.3 1250.17 L645.37 1251.29 L652.02 1254.32 L653.65 1254.67 L654.01 1256.22 L652.71 1260.65 L645.66 1265.82 L644.81 1276.83 L644.03 1279.35 L642.17 1280.11 L639.94 1280.52 L638.1 1282.01 L633.89 1284.57 L622.06 1283.26 L617.41 1285.61 L615.55 1290.67 L615.61 1294.39 L614.29 1296.22 L590.65 1293.01 L589.96 1291.51 L589.59 1288.19 L588.6 1284.88 L586.07 1283.35 L585.64 1284.44 L585.36 1285.14 L585.11 1293.76 L584.55 1296.83 L581.61 1301.66 L578.4 1305.43 L574.62 1307.75 L569.93 1308.06 L576.53 1314.19 L579.21 1315.22 L576.79 1318.87 L571.73 1321.07 L562.46 1323.1 L550.77 1328.3 L547.45 1332.71 L551.67 1337.64 L548 1339.8 L531.16 1343.34 L522.67 1346.71 L508.62 1348.09 L502.47 1347.5 L499.92 1347.68 L497.69 1347.45 L496.72 1346.15 L497.3 1343.59 L498.81 1341.74 L500.77 1340.49 L502.81 1339.89 L502.31 1338.58 L501.28 1335.17 L504.5 1334.56 L507.63 1333.28 L510.62 1331.12 L513.48 1327.8 L512.09 1327.02 L510.93 1326.14 L509.53 1325.45 L507.37 1325.33 L509.04 1320.63 L510.11 1319.16 L511.95 1317.93 L510.87 1314.81 L509.39 1313.99 L507.65 1315.16 L505.72 1317.93 L502.81 1315.91 L498.28 1314.9 L489.12 1315.22 L489.12 1313 L487.21 1311.13 L483.38 1312.03 L479.26 1313.99 L475.13 1315.22 L465.96 1314.69 L461.43 1315.3 L456.85 1317.93 L464.27 1320.72 L473.62 1322.09 L479.17 1326.3 L475.13 1337.64 L483.49 1336.85 L486.07 1337.64 L486.07 1339.89 L484.54 1339.89 L484.54 1342.57 L486.52 1344.25 L487.46 1344.82 L484.24 1345.6 L482.78 1346.4 L481.35 1347.5 L489.12 1347.5 L485.25 1353.52 L484.54 1354.87 L484.85 1356.86 L485.78 1358.62 L486.29 1360.68 L485.31 1363.49 L477.94 1371.75 L475.51 1375.56 L469.52 1378.86 L461.16 1380.92 L458.39 1382.99 L455.47 1387.07 L454.09 1383.03 L450.95 1380.02 L447.36 1378.6 L444.68 1379.47 L447.96 1382.07 L449.09 1386.24 L448.02 1390.18 L444.68 1392.21 L443.08 1384.92 L438.33 1382.27 L428.07 1382.15 L428.07 1384.39 L430.32 1385.76 L434.86 1386.24 L437.2 1387.07 L439.28 1384.73 L440.63 1384.32 L441.65 1387.07 L441.18 1389.14 L439.65 1390.76 L437.78 1391.81 L436.38 1392.21 L432.96 1400.72 L432.36 1403 L432.58 1406.95 L433.62 1412.37 L434.02 1416.51 L431.19 1413.95 L428.01 1406.73 L424.9 1404.23 L421.23 1403.9 L410.29 1406.94 L383.65 1404.23 L386.85 1407.74 L390.58 1409.13 L398.73 1409.14 L398.73 1411.82 L397.26 1412.84 L395.84 1414.27 L400.4 1416.51 L397.96 1418.7 L396.55 1421.37 L396.33 1424.65 L397.36 1428.76 L388.92 1427.64 L386.96 1429.13 L385.34 1427.77 L383.78 1425.41 L381.98 1423.87 L373.76 1423.87 L371.4 1423.27 L369.7 1422.31 L368.26 1422.12 L366.76 1423.87 L362.19 1421.84 L359.03 1425.96 L356.69 1432.15 L354.58 1436.32 L346.7 1438.98 L345.45 1439.77 L344.51 1443.58 L342.53 1442.71 L340.63 1440.09 L340.04 1438.54 L338.54 1437.81 L334.09 1434.49 L331.59 1433.67 L328.98 1433.96 L325.66 1435.87 L313.36 1438.54 L310.5 1437.54 L305.49 1434.43 L302.68 1433.67 L302.68 1436.32 L303.67 1436.85 L305.58 1438.54 L303.81 1442.66 L301.03 1445.75 L297.65 1447.69 L294.24 1448.34 L288.45 1446.86 L286.68 1447.43 L287.33 1451.01 L287.33 1453.24 L284.13 1453.37 L282.59 1455.63 L281.5 1458.58 L279.71 1460.79 L277.27 1461.08 L275.25 1460.06 L273.18 1459.41 L270.57 1460.79 L270.44 1458.34 L269.96 1456.65 L269.38 1455.17 L268.93 1453.24 L262.83 1457.14 L262.32 1460.28 L261.05 1460.79 L259.3 1460.68 L257.42 1462.03 L254.84 1464.48 L251.74 1465.54 L244.56 1465.69 L247.12 1463.91 L249.18 1462.03 L250.86 1459.51 L252.31 1455.91 L249.08 1458.18 L246.45 1459.36 L245.57 1458.17 L247.6 1453.24 L249.98 1450.09 L255.49 1446.33 L258.27 1443.68 L257.61 1442.86 L257.33 1442.61 L257.12 1442.22 L256.59 1440.99 L254.73 1442.89 L247.6 1447.25 L246.73 1449.31 L244.63 1451.8 L240 1455.91 L237.32 1452.25 L237.61 1448.83 L239.11 1444.87 L240 1439.77 L238.44 1437.54 L234.83 1435.61 L230.77 1434.91 L227.81 1436.32 L229.71 1440.6 L223.35 1443.68 L207.53 1447.18 L206.66 1448.64 L206.34 1452.14 L205.56 1453.33 L201.64 1453.02 L200.12 1453.24 L195.83 1457.35 L193.29 1458.45 L189.48 1458.36 L189.21 1454.79 L186.49 1450.79 L183.35 1449.02 L181.84 1452.14 L169.69 1463.26 L171.11 1464.84 L171.72 1465.35 L172.74 1465.69 L157.5 1473.03 L158.15 1469.02 L156.14 1469.77 L149.74 1475.68 L148.24 1473.03 L146.71 1475.68 L147 1471.11 L147.43 1469.45 L148.24 1467.9 L148.24 1465.69 L146.28 1465.05 L145.35 1464.22 L143.66 1460.79 L148.55 1459.28 L152.6 1456.36 L160.55 1448.34 L164.59 1445.57 L172.41 1443.44 L177.29 1440.99 L181.24 1437.75 L190.99 1426.54 L195.2 1423.26 L203.23 1419.56 L207.88 1416.51 L197.6 1415.46 L154.56 1437.43 L140.63 1438.54 L150.04 1432.33 L152.1 1431.42 L154.26 1429.9 L155.84 1426.54 L157.84 1423.17 L166.57 1420.06 L194.04 1405.15 L197.03 1400.45 L204.32 1399.49 L212.6 1395.12 L220.81 1393.17 L227.35 1390.2 L227.81 1384.39 L228.87 1382.65 L229.84 1380.53 L230.84 1379.47 L230.84 1377.23 L227.65 1375.59 L224.18 1377.67 L220.39 1379.21 L215.26 1375.12 L213.33 1375.26 L212.44 1374.77 L212.22 1373.37 L212.65 1368.82 L212.44 1367.42 L211.04 1365.89 L209.14 1364.31 L206.94 1363.02 L204.69 1362.26 L205.65 1366.92 L205.34 1370.25 L205.49 1373.32 L207.88 1377.23 L203.38 1378.43 L200.35 1380.63 L194.18 1387.07 L189.84 1389.82 L185.1 1391.35 L170.51 1392.91 L162.83 1396.16 L134.69 1400.2 L125.5 1404.36 L122.22 1406.94 L121.82 1407.92 L121.76 1409.23 L121.58 1410.59 L120.82 1411.82 L119.58 1412.73 L105.57 1417.31 L100.2 1421.64 L97.65 1421.23 L93.26 1419.39 L91 1418.96 L80.73 1420.28 L75.71 1422.57 L71.82 1426.54 L70.32 1423.87 L72 1422.6 L72.46 1420.63 L72.58 1418.44 L73.35 1416.51 L74.67 1415.5 L89.89 1411.26 L93.29 1409.14 L93.29 1407.57 L93.02 1407.22 L92.47 1407.29 L91.77 1406.94 L92.66 1402.48 L90.87 1399.89 L87.6 1398.87 L84.14 1399.1 L86.98 1394.65 L91.82 1393.66 L100.88 1394.42 L105.78 1392.34 L116.25 1382.15 L116.25 1379.47 L107.12 1379.47 L110.93 1372.97 L117.91 1367.52 L125.6 1363.72 L131.48 1362.26 L130.78 1363.91 L129.58 1367.62 L128.42 1369.63 L132.38 1368.82 L136.08 1366.95 L138.62 1363.34 L139.09 1357.33 L142.01 1359.34 L145.91 1360.03 L154.45 1359.78 L154.45 1357.33 L152.7 1357.01 L148.24 1354.87 L148.24 1352.65 L151.25 1350.67 L156.95 1344.03 L161.37 1341.55 L163.95 1336.72 L165.12 1335.17 L166.86 1334.7 L172.74 1335.17 L179.98 1332.91 L193.02 1325.51 L200.12 1323.1 L200.12 1320.4 L183.97 1322.53 L160.58 1331.47 L156.31 1334.09 L154.45 1336.41 L153.06 1338.76 L145.72 1338.74 L142.29 1339.89 L143.66 1342.57 L136.99 1346.89 L134.53 1347.5 L135.01 1345.79 L135.63 1341.69 L136.05 1339.89 L132.89 1339.89 L131.04 1341.37 L129.79 1343.34 L128.42 1344.82 L125.75 1345.79 L120.38 1346.62 L117.79 1347.5 L108.04 1355.29 L102.89 1357.57 L97.85 1354.87 L93.37 1359.71 L87.77 1364.31 L81.83 1367.87 L76.39 1369.63 L77.69 1364.88 L56.6 1354.87 L65.12 1352.17 L67.14 1343.5 L63.32 1334.32 L54.31 1330.02 L51.75 1331.97 L46.15 1340.61 L43.61 1342.57 L40.9 1343.95 L33.99 1350.53 L30.58 1352.65 L29.34 1348.03 L31.99 1337.51 L30.58 1332.71 L27.31 1331.97 L22.81 1332.4 L19.91 1331.77 L21.46 1327.8 L21.34 1326.07 L20.81 1325.57 L20.25 1325.54 L19.93 1325.33 L20.4 1323.98 L20.86 1323.1 L21.27 1322.13 L21.46 1320.4 L20.7 1320.28 L19.16 1320.45 L18.41 1320.4 L18.41 1317.93 L25.76 1316.96 L44.28 1310.31 L48.16 1310.31 L49.96 1309.19 L50.68 1306.72 L50.53 1304.25 L49.76 1303.12 L46.6 1301.19 L44.68 1297.16 L42.41 1293.58 L38.2 1293.01 L38.2 1290.77 L40.77 1289.09 L46.29 1287.12 L49 1285.61 L47.26 1280.33 L51.9 1277.94 L58.16 1276.54 L63.86 1272.59 L78.05 1265.82 L99.21 1261.26 L108.26 1255.89 L113.08 1243.55 L114.74 1243.55 L114.71 1250.06 L116.81 1252.9 L119.93 1253.56 L123.04 1253.43 L122.32 1250.08 L127.04 1228.66 L133.94 1232.8 L140.92 1233.15 L157.5 1230.92 L155.92 1229.52 L154.01 1227.04 L152.79 1225.96 L160.55 1220.99 L116.25 1223.47 L119.17 1230.92 L117.76 1235.09 L116.74 1236.7 L115.41 1230.83 L113.24 1228.4 L110.3 1226.86 L107.12 1225.96 L100.37 1225.5 L70.41 1233.1 L65.09 1236.46 L62.67 1234.29 L60.46 1230.79 L58.12 1228.66 L55.81 1229.58 L54.31 1231.77 L52.65 1232.71 L46.93 1226.89 L44.43 1226.68 L38.2 1228.66 L38.2 1230.92 L40.4 1230.91 L42.28 1231.46 L45.96 1233.39 L45.96 1235.64 L40.3 1234.66 L29.72 1230.94 L24.5 1230.92 L24.7 1233.36 L25.38 1234.48 L27.67 1235.64 L22.85 1235.8 L14.03 1240.01 L9.27 1240.84 L3.88 1238.8 L2.38 1234.4 L1.98 1228.26 L0 1220.99 L1.94 1219.88 L6.08 1216.02 L6.08 1213.76 L3.77 1210.83 L6.35 1207.59 L11.14 1204.88 L15.36 1203.63 L13.72 1208.58 L18.64 1212.72 L21.43 1213.76 L23.66 1212.42 L24.29 1209.5 L23.53 1206.96 L23.42 1204.34 L26.02 1201.12 L23.77 1199.34 L22.83 1198.88 L24.89 1193.28 L27.53 1191.82 L30.87 1191.95 L35.15 1190.97 L37.73 1188.31 L42.63 1180.39 L45.13 1178.75 L68.3 1171.94 L71.82 1174.92 L69.12 1188.75 L69.55 1190.97 L84.14 1188.71 L90.7 1184.88 L96.61 1178.33 L98.59 1170.65 L93.29 1163.62 L101.1 1163.44 L103.61 1164.82 L102.55 1168.57 L103.6 1173.88 L103.77 1179.58 L104.67 1184.13 L107.88 1185.99 L111.5 1186.66 L118.33 1189.86 L125.87 1191.52 L135.12 1191.67 L138.28 1189.83 L142.92 1183.79 L145.52 1182.35 L148.24 1183.5 L146.71 1184.64 L145.32 1185.99 L148.98 1188.22 L165.12 1185.99 L161.61 1182.33 L158.44 1181.35 L151.4 1181.24 L144.14 1177.1 L140.79 1176.25 L137.42 1178.75 L135.75 1176.92 L134.52 1174.7 L133.66 1171.94 L133.14 1168.57 L135.84 1171.23 L137.93 1172.69 L140.24 1172.69 L143.66 1171.06 L140.79 1169.36 L139.33 1168.81 L137.42 1168.57 L137.42 1165.87 L139.65 1165.8 L145.32 1163.62 L142.83 1157.5 L143.54 1139.68 L139.85 1135.94 L128.1 1133.71 L121.84 1130.68 L117.79 1126.2 L121.13 1122.75 L125.38 1121.27 L140.43 1120.24 L162.61 1109.88 L165.59 1107.36 L168.92 1102.37 L172.74 1100.06 L178.56 1100.21 L184.37 1101.75 L188.1 1103.71 L187.17 1098.75 L184.56 1096.29 L181.02 1095.58 L177.29 1096.01 L178.58 1094.15 L179.05 1092.27 L178.62 1090.35 L177.29 1088.5 L177.29 1085.99 L179.11 1083.77 L179.49 1081.62 L178.95 1077.24 L179.78 1074.64 L185.05 1068.24 L186.27 1069.36 L187.69 1068.33 L189.46 1066.63 L191.83 1065.73 L200.95 1068.24 L218.68 1068.24 L220.43 1069.04 L222.5 1070.66 L224.73 1071.37 L226.97 1069.61 L228.61 1067.21 L230.04 1066.09 L231.86 1065.76 L248.77 1066.39 L249.62 1066.42 L251.47 1066.98 L254.72 1065.43 L268.93 1065.73 L276.88 1064.12 L280.49 1062.65 L283.52 1059.46 L286.71 1057.19 L313.86 1048.49 L317.92 1045.68 L319.76 1049.72 L323.82 1050.63 L328.36 1049.72 L331.59 1048.19 L332.89 1046.1 L334.29 1042.72 L336.07 1039.55 L338.54 1038.16 L377.55 1033.13 L385.09 1030.56 L381.04 1030.49 L366.52 1024.6 L359.15 1023.08 L344.62 1025.37 L340.82 1024.69 L338.34 1022.94 L338.07 1020.61 L340.9 1018.06 L340.9 1015.54 L339.97 1012.37 L340.3 1007.98 L339.75 1004.16 L336.32 1002.76 L338.21 999.8 L340.69 995.01 L342.4 992.91 L336.54 994.53 L329.56 998.36 L324.35 1003.26 L323.86 1007.99 L316.63 1021.8 L296.87 1048.64 L292.65 1050.91 L272.79 1053.18 L271.65 1054.21 L268.11 1059.13 L265.88 1060.74 L263.14 1061.13 L260.33 1060.8 L257.64 1059.77 L255.34 1058.2 L258.89 1055.01 L263.78 1051.75 L267.47 1047.92 L267.4 1042.93 L260.35 1047.35 L244.06 1052.56 L232.73 1052.96 L227.89 1052.06 L223.59 1050.18 L221.73 1046.94 L220.19 1044.84 L212.57 1043.77 L209.54 1040.67 L210.7 1034.97 L208.27 1032.88 L200.12 1033.13 L200.12 1035.65 L202.2 1036.38 L203.98 1037.88 L205.41 1040.09 L206.34 1042.93 L189.48 1050.91 L179.6 1053.09 L174.77 1055.31 L172.74 1059.46 L171.99 1064.63 L170.29 1065.22 L168.25 1063.88 L166.65 1063.22 L160.7 1067.66 L120.82 1073.25 L120.82 1070.97 L124.87 1069.07 L134.36 1062.21 L145.85 1059.14 L190.99 1015.54 L190.41 1014.18 L189.48 1010.51 L191.91 1009.34 L195.11 1006.72 L197.23 1005.51 L200.12 1004.65 L207.1 1005.51 L209.6 1005.06 L213.76 1003.2 L216.25 1002.76 L218.42 1001.28 L219.32 997.77 L220.05 993.6 L221.73 990.17 L220.53 988.64 L220.5 988.44 L221.09 987.92 L221.73 985.35 L220.06 982.61 L222.44 981.26 L224.85 978.91 L227.16 975.9 L229.19 972.53 L230.49 969.26 L231.18 966.37 L232.06 964.05 L233.91 962.47 L233.91 959.94 L234.29 955.07 L248.15 941.63 L250.66 934.46 L246.46 933.11 L228.95 934.04 L223.1 931.93 L229.39 925.58 L232.04 922.16 L238.64 910.95 L240.74 908.32 L243.18 906.65 L241.51 904.12 L253.43 881.3 L258.27 876.04 L261.97 869.81 L265.02 861.89 L268.91 855.4 L273.62 853.45 L278.89 856.57 L289.35 866.52 L294.24 868.65 L298.49 867.02 L303.08 864.07 L308.05 862.71 L313.36 865.88 L313.99 859.94 L310.8 856.6 L301.03 853.45 L301.03 850.67 L314.1 848.14 L317.58 849.55 L324.38 855.22 L328.7 855.75 L328.7 853.45 L319.43 848.14 L319.43 845.34 L324.57 847.69 L327.46 848.19 L330.03 845.28 L332.58 844.13 L334.32 844.58 L333.13 848.14 L335.35 851.21 L337.75 853.5 L340.52 855 L343.79 855.75 L341.82 848.16 L340.73 845.34 L339.23 843.06 L342.09 837.42 L345.62 833.38 L353.06 827.79 L350.71 827.86 L346.52 829.65 L344.62 830.11 L322.59 829.38 L319.43 827.79 L323.35 825.32 L333.48 822.74 L337.83 822.47 L337.83 819.95 L331.59 819.95 L331.59 817.62 L333.68 815.74 L339.45 814.01 L342.4 812.55 L342.4 810 L324.68 807.45 L320.19 808.24 L312.43 811.73 L240.09 817.69 L233.07 821.19 L229.74 823.7 L224.79 825.04 L215.51 825.01 L210.77 822.74 L208.21 819.34 L206.27 815.69 L203.31 812.55 L207.58 806.09 L205.95 801.76 L202.2 801.85 L200.12 808.73 L199.12 816.78 L196.52 821.53 L193.08 822.1 L189.48 817.62 L189.48 814.86 L193.78 807.13 L191.96 790.28 L196.4 787.08 L197.13 787.41 L199.34 789.01 L200.95 789.37 L201.84 788.57 L203.28 785.09 L203.98 784.27 L204.56 782.91 L195.56 774.07 L198 771.27 L206.34 766.4 L198.3 766.02 L194.36 766.66 L190.99 768.99 L193.92 773.43 L194.35 779.87 L192.37 785.36 L188.1 787.08 L184.11 782.9 L185.13 775.92 L187.4 769.35 L187.25 766.4 L185.97 765.66 L185.04 764.29 L184.08 763.63 L182.7 765.03 L179.65 768.99 L176.93 770.2 L175.13 773.05 L172.74 778.96 L167.38 788.57 L163.92 792.93 L153.36 797.71 L149.73 797.71 L146.01 793.34 L141.65 789.6 L131.91 791.88 L128.42 789.37 L129.4 787.9 L130.53 783.16 L130.99 778.93 L131.78 776.2 L133.32 774.74 L135.28 774.19 L138.28 774.07 L142.01 772.94 L151.1 766.77 L154.45 763.65 L154.45 761.32 L146.71 761.32 L146.71 758.54 L151.4 756.21 L151.4 753.65 L148.08 753.65 L145.61 754.7 L140.63 758.54 L140.76 761.18 L137.8 763.1 L134.41 762.74 L133.14 758.54 L134.34 755.17 L138.72 752.05 L140.63 748.32 L137.77 748.78 L136.04 750.66 L134.52 752.69 L132.32 753.65 L130.27 752.87 L128.4 751.5 L126.37 751.23 L123.87 753.65 L123.2 757.3 L123.85 761.53 L123.94 764.97 L121.52 766.4 L119 766.83 L115.23 768.58 L106.38 768.71 L103.47 767.95 L100.88 766.4 L98.61 763.28 L97.26 759.95 L95.63 757.27 L92.53 756.21 L83.55 757.79 L78.18 757.26 L75.02 753.65 L73.18 755.35 L71.39 756.15 L67.27 756.21 L69.26 750.18 L71.62 746.11 L74.91 743.84 L79.57 743.2 L88.08 745 L91.47 744.54 L94.81 740.89 L94.81 738.08 L92.23 737.75 L90.08 736.33 L88.42 733.86 L87.19 730.43 L92.06 731.3 L97.54 733.78 L102.04 734.58 L103.93 730.43 L99.52 730.89 L91.15 729.21 L82.7 725.58 L78.05 720.18 L77.83 717.8 L76.58 713.34 L74.71 709.05 L72.59 707.15 L66.1 709.01 L63.49 709.24 L61.31 707.15 L66.42 702.69 L71.62 702.81 L77.01 704.49 L82.62 704.82 L82.16 703.14 L81.42 698.84 L80.96 697.13 L90.87 697.23 L100.88 699.91 L102.16 701.37 L105.46 707.15 L107.58 706.17 L110.71 701.45 L113.08 699.91 L99.51 690.8 L96.19 686.24 L104.7 684.3 L122.07 686.04 L128.42 684.3 L136.08 679.44 L139.09 679.16 L141.43 680.16 L146.12 683.55 L156.78 685.48 L174.24 686.64 L174.24 684.3 L170.38 682.27 L154.84 683.61 L145.14 679.88 L127.04 668.65 L123.87 651.84 L125.19 643.79 L127.66 637.61 L129.03 631.83 L127.04 624.94 L129.17 623.45 L137.62 621.9 L143.66 619.56 L148.95 618.92 L151.34 618.09 L153.63 615.69 L154.92 615.51 L159.43 618.47 L161.92 619.56 L203.31 612.04 L203.31 609.26 L199.94 608.63 L190.99 604.1 L192.19 603.31 L193.11 602.48 L194.14 601.8 L195.56 601.51 L195.56 598.93 L194.6 595.84 L196.97 592.43 L204.69 586.03 L202.88 585.87 L198.74 583.44 L200.52 581.87 L201.88 579.56 L202.82 576.59 L203.31 573.1 L201.81 573.4 L200.86 573.77 L199.95 574.45 L198.74 575.68 L192.37 573.28 L160.55 573.1 L138.6 585.6 L126.53 588.46 L119.17 580.64 L121.93 578.45 L123.31 567.91 L127.04 565.13 L126.41 561.64 L126.33 559.97 L127.04 557.37 L127.04 555.01 L125.38 555.01 L125.38 552.45 L136.05 549.6 L138.01 550.61 L142.96 554.22 L146.01 555.01 L148.63 557.04 L149.53 565.92 L152.1 567.95 L154.01 566.75 L153.94 563.65 L153.55 559.49 L154.45 555.01 L152.36 552.74 L150.53 549.92 L148.4 547.73 L145.32 547.24 L145.32 549.6 L146.71 552.45 L144.15 551.52 L142.63 548.76 L140.03 539.32 L140.18 537.48 L140.16 535.89 L139.09 534.06 L137.66 533.76 L133.9 534.23 L133.14 532.92 L132.4 530.52 L130.78 528.47 L129.17 525.33 L128.42 519.7 L129.44 514.02 L131.89 512.28 L134.85 511.33 L137.42 507.9 L134.3 506.53 L134.26 504.33 L136.21 502.01 L139.09 500.37 L137.42 497.77 L143.66 492.35 L141.52 490.5 L138.94 490.36 L133.14 492.35 L133.7 495.46 L133.45 496.87 L132.27 497.37 L129.96 497.77 L129.96 500.37 L131.48 500.37 L125.05 508.47 L118.77 509.8 L113.16 505.12 L108.64 495.19 L112.97 495.36 L123.04 492.35 L127.04 489.99 L120.26 484.92 L117.53 481.27 L116.25 476.74 L117.7 477.67 L120.75 478.74 L122.22 479.58 L119.39 475.1 L111.69 466.33 L114.7 468.44 L117.33 468.56 L119.44 466.93 L120.82 463.72 L109.26 453.89 L104.2 451.9 L100.88 455.94 L104.07 460 L102.84 463.21 L99.09 464.72 L94.81 463.72 L96.8 467.66 L97.85 468.93 L97.85 471.54 L94.69 471.07 L91.96 471.69 L87.19 474.39 L87.19 476.74 L90.1 477.86 L91.2 480.12 L91.77 487.38 L89.86 487.48 L85.53 489.99 L88.46 492.03 L91.22 495.57 L91.71 498.9 L87.9 500.37 L83.75 500.09 L80.44 498.53 L78.4 494.68 L78.05 487.38 L79.37 482.88 L84.42 472.05 L85.53 467.66 L86.29 460.81 L88.17 457.65 L90.7 455.19 L93.29 450.48 L86.3 450.32 L83.47 448.89 L80.96 445.53 L85.21 445.48 L87.22 441.99 L88.45 436.97 L90.24 432.5 L92.69 430.26 L102.55 424.45 L103.45 422.83 L103.99 420.87 L104.92 419.38 L107.12 419.22 L108.42 420.47 L108.91 422.74 L109.22 425.19 L110.03 427.03 L112.92 429.42 L116.77 431.44 L120.71 431.92 L123.87 429.67 L125.5 432.67 L127.31 434.3 L129.3 434.3 L131.48 432.5 L131.85 433.69 L131.82 434.3 L132.05 434.58 L133.14 434.86 L128.19 444.42 L122.87 448.69 L117.33 448.02 L111.69 442.68 L110.28 450.14 L113.73 452.4 L119.01 452.77 L123.04 454.65 L126.72 457.21 L129.79 454.46 L132.74 450.17 L136.05 448.13 L133.01 443.49 L134.46 437.34 L138.07 431.97 L141.44 429.67 L146.29 431.07 L154.1 436.86 L159.03 437.7 L157.72 434.42 L155.98 432.34 L151.4 429.67 L151.4 427.03 L153.58 426.14 L155.68 425.97 L160.55 427.03 L156.39 424.55 L144.71 421.93 L142.29 418.02 L140.96 412.53 L141.41 409.73 L154.45 406.17 L159.18 407.38 L167.65 412.78 L171.97 414 L210.23 416.83 L212.7 416.39 L216.89 414.46 L219.37 414 L221.3 414.66 L224.38 418.02 L226.15 419.22 L243.87 421.8 L246.03 421.21 L248.75 419.69 L251.31 417.6 L252.99 415.41 L255.08 413.73 L257.81 414.2 L267.79 418.97 L269.75 419.22 L271.41 420.84 L273.23 428 L274.38 429.67 L278.35 428.95 L280.63 428.14 L281.09 427.03 L282.56 430.04 L282.9 433.12 L282.34 435.84 L281.09 437.7 L281.09 440.31 L285.93 442.68 L285.93 445.53 L281.65 448.55 L282.7 452.09 L293.49 461.93 L296.31 466.28 L298.12 472.1 L298.12 479.58 L299.51 479.58 L299.69 472.7 L300.54 466.86 L300.87 461.54 L299.51 455.94 L304.51 453.81 L309.5 448.74 L313.33 441.05 L314.88 431.08 L318.18 424.74 L325.71 423.82 L339.23 427.03 L340.79 426.51 L342 425.22 L343.2 424.55 L345.76 426.79 L349.63 429.17 L353.2 430.48 L358.19 434.05 L361.58 434.86 L372.56 434.86 L377.41 433.4 L381.98 429.67 L388.15 434.44 L401.76 431.69 L408.02 434.86 L409.33 438.44 L409.98 442.84 L411.38 446.55 L417.67 449.11 L420.25 451.63 L424.9 458.76 L427.87 456.37 L431.32 455.6 L438.6 455.94 L438.6 453.35 L435.4 451.69 L431.38 450.45 L427.89 448.32 L426.42 444.08 L425.01 441.15 L421.63 438.93 L417.55 437.7 L414.12 437.7 L414.12 434.86 L415.62 433.02 L418.21 428.49 L420.2 427.03 L425.11 429.45 L428.12 430.2 L429.45 428.33 L432.01 426.7 L447.72 429.67 L444.23 425.07 L440.18 421.8 L435.89 419.87 L431.67 419.22 L427.13 419.56 L425.53 418.54 L424.9 415.41 L426.11 411.49 L428.88 412.52 L434.02 416.83 L438.49 414.09 L436.83 410.51 L432.06 407.48 L427.25 406.17 L405.12 406.19 L403.9 404.97 L403.57 400.94 L404.55 398.06 L406.8 395.54 L409.49 393.79 L415.93 391.86 L441.86 373.47 L445.53 372.19 L446.87 370.97 L447.51 367.95 L447.72 360.3 L448.52 353.71 L450.19 354.92 L451.83 359.08 L452.44 361.47 L453.33 361.8 L453.64 361.99 L453.8 364.33 L460.29 359.65 L466.92 356.3 L467.49 356.18 L485.67 352.57 L488.52 352.01 L498.61 344.98 L505.72 343.37 L505.72 340.5 L498.34 340.2 L495.07 338.65 L492.17 335.03 L504.34 324.77 L503.79 317.3 L514.12 307.8 L513.48 298.24 L515.87 299.78 L517.44 301.5 L519.13 302.93 L521.92 303.51 L524.47 291.08 L525.65 287.74 L524.96 286.94 L524.74 286.83 L524.58 286.57 L524.12 285.34 L519.86 289.47 L515.43 291.76 L500.2 294.36 L492.09 301.05 L487.46 303.51 L487.46 301.13 L489.77 297.76 L490.08 294.26 L488.54 291.5 L485.31 290.34 L481.96 292.02 L476.25 299.45 L470.57 302.35 L460.16 314 L457.16 316.55 L454.02 318.48 L450.77 319.28 L450.77 316.91 L456.2 310.37 L459.58 307.53 L463.8 306.39 L466.8 303.49 L466.14 298.03 L463.39 294.67 L460.05 298.24 L458.52 298.24 L459.23 289.76 L456.34 289.76 L452.62 295.03 L450.77 302.32 L449.68 304.57 L447.33 302.65 L445.17 299.53 L444.18 296.83 L444.4 295.13 L444.19 293.62 L442.41 292.98 L440.92 293.34 L438.58 294.98 L437.2 295.61 L431.79 295.96 L429.18 296.96 L426.82 302.27 L423.98 301.47 L419.49 298.24 L402.61 298.18 L398.73 295.61 L400.53 291.88 L398.42 289.76 L379.97 282.61 L376.03 282.71 L376.78 281.25 L377.24 279.87 L377.9 278.55 L379.08 277.2 L379.08 274.82 L376.19 272.96 L374.7 270.23 L375.2 267.74 L378.32 266.65 L381.57 266.28 L384.19 264.91 L385.93 262.08 L386.55 257.45 L389.08 254.54 L404.95 242.94 L410.64 240.69 L433.03 241.29 L444.73 245.21 L450.77 245.35 L450.77 242.94 L435.17 239.02 L430.98 234.78 L434.43 233.11 L444.46 232.61 L447.04 233.6 L449.84 238.22 L453.43 242.75 L457.45 245.03 L461.57 242.94 L449.73 231 L441.35 228.03 L433.3 222.12 L428.07 221.59 L428.98 217.84 L430.62 216.92 L432.83 216.97 L435.55 216.29 L437.73 214.56 L440.68 210.5 L443.17 208.37 L447.56 212.81 L452.45 213.24 L462.96 211.25 L475.38 216.23 L479.97 216.29 L479.97 213.66 L476.05 213.05 L471.12 210.92 L467.56 206.84 L467.67 200.42 L470.83 197.1 L479.59 198.67 L482.87 197.77 L479.93 195.27 L477.44 188.36 L474.45 186.94 L470.35 186.59 L469.19 186.94 L468.27 188.69 L467.9 191.42 L467.83 193.94 L467.67 195.12 L461.33 194.79 L456.13 189.16 L452.07 181.21 L449.25 173.93 L452.15 171.81 L454.28 172.91 L456.37 175.14 L459.28 176.36 L462.37 175.92 L465.33 174.76 L470.85 171.07 L464.26 168.32 L459.25 163.34 L450.77 152.71 L450.77 149.82 L452.67 147.97 L454.98 147.11 L457.51 147.59 L460.05 149.82 L462.35 145.93 L462.96 144.5 L461.57 144.5 L462.69 139.01 L464.46 138.05 L466.67 138.33 L469.19 136.79 L473.55 127.39 L475.13 125.93 L477.25 128.21 L477.88 137.3 L479.97 139.18 L481.24 137.59 L482.67 130.44 L484.54 128.35 L482.01 116.9 L481.14 110.09 L482.12 107.05 L484.73 104.53 L488.28 92.46 L490.5 88.4 L493.94 88.19 L506.54 93.73 L510.58 92.91 L517.44 89.24 L521.09 88.4 L519.69 91.83 L518.19 94.37 L517.01 96.91 L516.53 100.53 L517.7 102.46 L520.33 100.24 L526.98 90.67 L540.49 82 L544.83 80.42 L547.91 77.37 L549.96 71.01 L552.68 65.32 L557.76 64.43 L563.7 68.98 L561.81 73.3 L551.67 80.42 L551.67 83.09 L561.07 77.99 L562.46 78.96 L563.95 80.87 L567.31 80.55 L570.87 79.04 L572.98 77.51 L576.03 83.09 L576.03 85.52 L575.16 90.02 L577.02 89.29 L580.34 86.68 L583.79 85.52 L582.68 89.33 L580.94 91.89 L578.69 93.32 L576.03 93.73 L576.03 96.38 L580.12 96.21 L582.64 97 L584.6 96.81 L586.82 93.73 L589.45 86.67 L588.81 82.42 L583.79 75.08 L582.44 67.16 L585.98 62.36 L591.84 57.91 L597.48 51.06 L598.07 53.03 L598.29 53.1 L599.14 53.96 L594.02 72.27 L593.68 75.08 L594.13 75.78 L594.86 77.4 L595.94 79.18 L597.48 80.42 L599.46 80.47 L601.66 77.9 L603.71 77.51 L606.71 78.94 L611.31 82.11 L615.56 86.05 L617.41 89.73 L617.84 91.16 L619.81 96.27 L620.46 99.07 L620.39 101.86 L619.24 108.84 L618.93 112.38 L620.66 108.87 L624.21 98.57 L625.8 96.38 L626.58 93.61 L625.12 87.43 L623.04 81.38 L621.98 78.96 L621.64 75.13 L620.59 70.07 L618.68 65.78 L615.91 64.43 L614.15 67.29 L614.58 72.89 L616.05 78.9 L617.41 83.09 L614.33 82.47 L612.17 80.23 L610.33 77.43 L608.28 75.08 L601.72 73.13 L599.03 70.65 L599.83 65.73 L605.92 53.27 L605.92 51.06 L613.89 52.4 L617.41 51.06 L625.4 44.1 L628.21 43.05 L631.98 44.53 L634.36 48.32 L636.14 52.21 L638.1 53.96 L639.24 56.81 L638.84 62.92 L637.88 68.85 L637.34 71.08 L638.55 74.56 L641.46 77.18 L647.86 80.42 L647.97 85.03 L649.78 90.27 L652.38 94.59 L654.85 96.38 L657.88 99.32 L658.33 105.71 L657.03 112.14 L654.85 115.04 L651.51 116.01 L648.87 118.37 L644.81 123.27 L632.64 131.22 L632.64 133.88 L645.98 131.32 L650.29 133.63 L647.86 141.84 L645.22 144.69 L634.16 152.71 L626.72 163.29 L623.64 165.99 L623.64 168.65 L628.07 167.27 L632.11 164.43 L653.28 143.76 L655.61 143.19 L657.53 138.99 L662.02 136.95 L667.13 135.67 L670.97 133.88 L673.86 129.1 L675.23 122.79 L674.25 117.37 L670.15 115.04 L669.09 113.42 L670.02 109.89 L672.36 104.4 L672.36 95.07 L670.76 94.4 L661.83 80.42 L656.57 75.97 L654.85 73.75 L653.9 71.12 L653.03 66.97 L653.07 63.16 L658.04 58.62 L660.46 51.83 L661.05 43.91 L658.66 37.68 L662.43 38.13 L665.7 39.61 L668.86 40.17 L672.36 37.68 L671.76 36.38 L671.57 35.5 L671.43 34.4 L670.97 32.34 L675.41 36.22 L680.14 39.13 L685.06 38.99 L693.56 29.71 L698.08 28.28 L702.55 30.54 L705.98 37.68 L701.28 37.94 L699.77 37.68 L704.02 40.85 L708.94 43.16 L713.9 43.34 L718.32 40.14 L704.07 28.66 L697.37 20.08 L696.86 10.92 L690.94 7.35 L688.25 4.97 L686.33 2.4 L689.85 0 L693.89 0.94 L701.43 5.33 L716.8 10.92 L720.43 11.46 L729 16.19 L732 18.74 L743.43 36.36 L746.79 39.42 L757.88 44.58 L766.23 46.06 L776.36 50.42 L780.99 53.96 L785.94 51.75 L789.05 57.71 L788.33 65.73 L781.69 69.74 L775.43 70.98 L767.97 74.22 L760.91 78.86 L753.33 86.48 L746.07 90.38 L740.01 92.21 L737.03 95.05 L727.27 108.76 L723.78 115.18 L720.95 122.36 Z M181.84 807.45 L187.27 816.55 L182.82 823.41 L175.22 825.74 L171.21 821.19 L170.48 815.78 L169.29 813.05 L169.04 810.96 L171.21 807.45 L173.77 805.51 L176.93 804.86 L179.88 805.48 Z M114.74 552.45 L117.37 550.94 L119.88 550.14 L122.09 550.47 L123.87 552.45 L123.87 555.01 L122.07 557.97 L120.59 563.93 L119.97 570.59 L120.82 575.68 L115.99 580.18 L111.8 577.81 L107.55 572.45 L102.55 567.95 L99.64 567.68 L96.63 568.26 L94.24 567.64 L93.29 563.95 L93.76 558.38 L94.45 554.08 L94.18 550.57 L91.77 547.24 L87.18 545.8 L70.32 549.6 L64.22 548.78 L53.22 544.55 L47.33 544.43 L47.33 541.84 L53.08 541.64 L57.91 540.25 L61.7 536.4 L64.36 528.87 L66.07 531.09 L67.92 531.77 L69.85 531.03 L71.82 528.87 L76.65 534.83 L82.35 533.21 L87.96 528.84 L92.53 526.31 L112 526.92 L116.25 528.87 L120.82 539.03 L116.25 539.03 L116.83 542.11 L116.74 545.06 L116.03 547.65 L114.74 549.6 Z M435.55 147.16 L439.09 148.78 L441.86 150.67 L443.73 154.14 L444.68 160.45 L434.99 163.56 L430.1 163.21 L426.42 160.45 L426.42 158.03 L426.97 156.32 L427.11 156.23 L426.92 155.7 L426.42 152.71 L429.74 150.34 L430.98 149.82 L430.52 148.85 L429.83 147.83 L429.45 147.16 L431.39 144.98 L432.99 144.49 L434.32 145.36 Z M147.44 1406.43 L149.62 1405.91 L151.38 1407.17 L149.58 1409.71 L148.2 1410.46 L130.67 1416.33 L128.32 1415.24 L124.94 1413.43 L125.46 1409.95 L128.7 1407.22 L133.01 1405.64 L138.23 1405.15 L145.85 1406.41 Z M36.91 1303.1 L39.37 1303.37 L40.25 1305.68 L38.72 1308.46 L34.68 1311.15 L26 1315.21 L18.27 1316 L16.13 1318.07 L11.63 1318.74 L10.96 1316 L14.75 1310.84 L26.15 1303.03 L28.21 1301.07 L32.35 1301.26 L33.92 1301.62 L35.66 1303.31 Z M185.04 872.11 L185.76 871.78 L186.69 872.17 L186.35 875.04 L182.33 876.22 L155.97 864.03 L148.67 858.78 L150.96 855.48 L156.24 855.36 L161.88 859.59 L164.59 859.67 L170.02 858.54 L174.26 859.17 L179.98 861.41 L181.67 864.13 L179.71 866.84 L179.87 869.33 Z "/>
</g>
</svg>
