<svg xmlns="http://www.w3.org/2000/svg" viewBox="0 0 1000 1295.45">
<g fill="#ccc" stroke="#333" stroke-width="0.5" stroke-linejoin="round">
<path fill-rule="evenodd" d="M372.25 1295.45 L354.21 1250.22 L332.26 1246.74 L307.24 1261.1 L279.67 1271.1 L249.13 1259.5 L210.07 1207.88 L179.1 1195.98 L134.18 1216.87 L93.17 1258.34 L50.03 1287.34 L0 1271.1 L0 1244.57 L11.15 1238.04 L18.46 1231.95 L27.31 1226.73 L42.8 1222.38 L40.33 1153.33 L110.78 1053.18 L129.67 990.16 L130.69 882.92 L138.77 836.98 L158.26 783.76 L165.32 749.57 L162.85 725.56 L167.02 711.16 L213.31 699.95 L263.85 665.02 L307.58 608.23 L371.56 550.84 L401 510.92 L492.56 286.63 L541.9 189.98 L616.44 118.98 L727.98 52.63 L806.52 33.63 L845.66 11.84 L883.18 0 L917.64 18.72 L905.56 70.47 L862.76 205.16 L866.84 253.78 L878.07 280.5 L891.6 340.03 L903.17 363.96 L919.34 374.17 L957.63 378.98 L973.28 390.5 L984.34 410.63 L997.28 442.85 L1000 473.03 L981.11 486.14 L969.03 497.51 L939.59 559.58 L924.02 572.11 L911.26 600.66 L899.94 633.86 L887.69 659.63 L874.76 673.17 L817.58 706.06 L835.11 803.83 L789.5 856.17 L717.77 895.28 L657.96 952.39 L659.83 996.4 L545.48 1073.95 L515.19 1111.83 L502.6 1139.69 L473.24 1153.33 L440.31 1161.89 L416.57 1173.93 L399.81 1199.46 Z "/>
</g>
</svg>
