<svg xmlns="http://www.w3.org/2000/svg" viewBox="0 0 1000 1300.9">
<g fill="#ccc" stroke="#333" stroke-width="0.5" stroke-linejoin="round">
<path fill-rule="evenodd" d="M35.2 141.45 L38.96 145.68 L40.91 146.85 L43.49 147.38 L46.23 147.33 L48.76 146.86 L53.94 144.73 L56.3 143.26 L57.4 142.88 L63.71 143.55 L66.4 142.61 L71.36 138.96 L73.86 137.88 L75.62 137.65 L76.54 136.45 L77.35 135.08 L78.76 134.35 L87.31 136.49 L88.63 137.26 L89.89 138.43 L91.47 140.74 L91.59 141.04 L92.62 141.4 L93.32 141.23 L93.96 140.93 L94.78 140.84 L98.81 142.31 L101.12 142.27 L102.62 142.73 L103.11 142.76 L104.16 142.18 L104.36 141.78 L104.29 141.15 L104.55 139.91 L104.65 139.71 L106.38 139.63 L106.61 137.33 L107.52 135.59 L108.73 134.61 L114.68 133.26 L115.49 133.01 L116.09 132.51 L117.13 131.14 L117.2 130.88 L118.01 129.08 L118.17 128.84 L118.61 125.4 L118.62 124.04 L118.8 122.65 L119.4 121.41 L120.24 120.76 L121.98 120.57 L122.89 120.26 L126.56 117.07 L128.38 113.15 L128.14 108.7 L125.66 103.9 L123.7 102.19 L123.41 101.72 L123.76 100.69 L124.6 99.51 L126.24 97.84 L128.06 97 L131.7 96.18 L133.43 94.97 L137.56 89.51 L139.94 88.3 L140.9 87.56 L141.74 86.56 L142.24 85.44 L142.2 84.21 L141.65 83.79 L141.33 83.27 L142.03 81.73 L143.82 79.83 L146.1 78.58 L149.66 77.81 L150.77 77.57 L153.19 78 L154.34 79.67 L154.69 82.42 L154.73 86.09 L154.44 89.6 L153.08 95.89 L152.8 99.02 L153.12 101.98 L154.04 103.93 L155.59 105.21 L157.78 106.09 L160.1 107.27 L162.48 109.72 L167.78 117.57 L168.6 117.99 L170.22 118.56 L174.13 120.84 L175.61 120.92 L176.21 120.58 L177.51 119.42 L178.03 119.18 L178.46 119.34 L178.72 119.44 L179.34 120.57 L179.98 121.01 L181.33 121.2 L183.9 121.13 L185.17 121.58 L187.3 124.4 L186.06 127.24 L183.66 130.17 L182.18 133.57 L181.86 134.15 L181.72 134.47 L183.16 134.57 L184.45 135.02 L189.26 137.61 L189.83 138.05 L190.37 138.82 L191.2 140.75 L192.65 143.35 L193.36 144.92 L193.83 146.5 L193.96 148.59 L193.63 150.08 L193.12 151.52 L192.81 153.37 L196.13 152.36 L198.88 153.58 L201.41 154.05 L204.09 150.76 L206.18 146.68 L206.5 144.63 L205.54 142.62 L204.75 142.12 L202.92 141.75 L202.11 141.28 L201.35 140.15 L200.65 137.95 L199.75 137.04 L199.57 136.73 L199.51 136.43 L199.57 136.11 L199.75 135.81 L202.51 133.26 L201.02 129.05 L201.38 127.68 L203.53 126.01 L205.37 125.43 L206.17 124.96 L206.84 123.83 L207.11 122.34 L206.92 119.61 L207.25 118.05 L208.81 115.71 L214.9 111.58 L214.95 111.5 L215.56 110.33 L215.95 108.93 L216.42 107.73 L217.33 107.05 L218.34 106.58 L219.31 105.67 L220.07 104.44 L221.32 100.09 L223.78 94.94 L224.3 92.27 L224.19 90.71 L223.06 86.39 L223.05 84.65 L223.27 83.12 L223.1 81.9 L221.98 81.12 L221.18 79.47 L221.83 76.49 L223.29 73.56 L224.9 72.06 L228.98 71.56 L230.65 72 L230.71 73.51 L232.85 75.56 L233.48 75.84 L234.4 75.47 L234.8 74.74 L235.1 73.87 L235.67 73.1 L237.02 72.09 L237.68 71.95 L237.95 72.71 L238.45 84.39 L238.33 86.25 L238.5 86.93 L239.11 87.53 L240.96 88.56 L241.71 89.18 L243.38 93.56 L244.45 95.04 L246.23 96.25 L248.18 96.97 L257.8 97.08 L259.38 96.44 L260.66 94.66 L260.7 93.7 L260.57 92.32 L260.73 90.93 L261.64 89.9 L262.54 89.92 L264.59 91.16 L265.67 91.39 L267.41 90.82 L273 87.94 L276.66 87.31 L278.29 87.43 L280.01 87.88 L282.11 89.27 L282.67 91.25 L282.7 93.65 L283.25 96.31 L284.48 97.98 L287.79 100.93 L288.65 103 L288.71 105.74 L291.49 105.79 L295.03 104.44 L297.37 102.96 L298.47 100.64 L297.4 98.48 L293.94 94.94 L293.17 93.59 L292.83 92.56 L292.89 91.45 L293.31 89.81 L293.95 88.63 L295.71 87.04 L296.31 86.22 L296.95 83.57 L296.33 82.22 L294.88 81.63 L291.13 80.9 L288.66 79.94 L287.34 78.29 L288.83 75.77 L288.1 75.27 L287.69 74.59 L287.49 73.7 L287.39 72.57 L287.75 71.28 L287.77 68.6 L287.88 67.72 L288.6 66.64 L290.41 64.82 L291.11 63.89 L292.14 59.9 L292.51 59 L293.31 58.56 L301.26 56.26 L303.42 56.24 L304.75 57.34 L304.92 58.72 L304.46 61.23 L304.83 62.56 L308.29 63.75 L308.95 64.33 L309.39 64.95 L309.92 65.51 L310.87 65.95 L311.94 66.13 L314.87 65.85 L320.88 67.43 L322.4 67.14 L323.06 66.05 L323.57 65.19 L324.24 62.17 L324.3 59.01 L323.66 56.66 L321.91 55.18 L318.34 54.8 L316.82 53.03 L316.12 50.69 L316.52 49.53 L317.43 48.66 L318.23 47.21 L318.42 45.48 L318.34 44.08 L318.68 42.96 L320.1 42.05 L321.11 40.5 L320.91 38.81 L320.31 37.03 L320.15 35.2 L321.98 32.99 L322.48 32.21 L322.78 31.11 L323.22 27.16 L325.94 29.38 L329.42 29.76 L337.96 27.41 L339.44 27.24 L340.73 27.58 L347.15 31.44 L347.97 32.68 L347.56 33.53 L345.7 35.04 L345.31 35.65 L345.81 36.72 L346.71 36.76 L348.48 36.19 L349.45 36.52 L351.86 37.9 L352.69 37.93 L354.28 37.47 L355.14 37.48 L355.9 37.88 L357.33 39.11 L358.19 39.47 L359.02 39.4 L361.82 38.45 L363.26 38.25 L366.19 38.54 L367.61 39.02 L368.81 38.85 L369.98 37.61 L371.86 34.38 L372.21 34.05 L373.13 33.63 L373.5 33.23 L373.65 32.62 L373.55 31.34 L373.62 30.87 L375.2 27.09 L376.08 22.77 L376.78 21.26 L382.21 15.84 L383.71 14.94 L389.52 13.05 L395.4 12.06 L398.39 12.72 L401 14 L403.57 14.13 L406.43 11.36 L406.43 11.34 L407.08 10.39 L407.82 9.82 L408.66 9.62 L410.14 9.98 L410.69 10.3 L411.17 10.76 L411.61 11.36 L412.32 11.79 L413.08 11.93 L413.87 11.78 L414.66 11.36 L414.67 11.36 L414.68 11.34 L414.69 11.34 L417.13 10.63 L419.13 10.44 L423.45 11.33 L423.49 11.33 L423.59 11.36 L424.23 11.41 L424.86 11.33 L426.46 11.49 L429.17 13.51 L430.74 14.11 L431.71 13.88 L433.36 12.53 L434.29 11.94 L438.1 11.33 L440.99 9.02 L444.56 7.08 L448.26 5.8 L454.25 5.51 L462.75 1.07 L464.17 0.79 L468.15 0 L470.13 0.68 L470.11 2.24 L470.08 3.93 L468.29 6.36 L463.21 9.2 L462.32 11.36 L462.88 12.58 L463.24 13.98 L463.76 16.82 L464.3 18.19 L464.88 19.35 L464.87 20.48 L463.64 21.7 L464.53 22.06 L466.5 22.42 L467.44 22.89 L468.4 23.87 L468.86 24.64 L469.37 25.24 L470.51 25.66 L474.04 25.78 L475.37 26.7 L476.14 29.38 L476.17 30.89 L475.93 31.78 L475.62 32.63 L475.4 34.05 L475.38 35.63 L475.58 36.46 L476.06 36.95 L476.86 37.52 L478.61 38.19 L480.36 38.43 L481.75 39.34 L482.49 42.02 L484.08 45.95 L486.99 48.52 L490.39 49.92 L492.41 50.27 L494.95 50.72 L497.54 52.49 L498.93 53.16 L500.16 53.28 L505.05 52.64 L509.19 53.06 L509.34 53.13 L510 53.43 L511.53 54.58 L512.3 54.93 L513.09 54.9 L514.43 54.37 L515.09 54.28 L515.81 54.53 L517.92 55.24 L522.69 58.36 L542.34 59.78 L549.22 61.38 L554.55 64.67 L556.32 65.38 L559.7 65.55 L568.26 63.72 L571.92 64.36 L577.04 63.99 L577.62 64.21 L578.81 65.57 L579.45 66.02 L583.02 66.15 L593.18 69.46 L594.44 69.59 L595.75 69.33 L595.76 70.29 L595.61 71.15 L595.29 71.91 L594.83 72.55 L594.7 75.67 L594.49 76.12 L593.78 77.58 L592.21 78.43 L590.14 78.36 L587.3 78.73 L585.24 80.68 L583.45 83.2 L581.41 85.34 L577.52 87.43 L575.51 88.91 L574.47 89.42 L573.36 89.54 L572.45 90.63 L571.32 93.21 L570.13 95.27 L569.77 95.89 L567.58 97.26 L568.23 98.48 L568.7 99.92 L569.21 102.96 L569.22 102.98 L569.23 102.99 L570.34 104.52 L570.63 106.2 L571.34 107.25 L573.63 106.9 L572.41 104.75 L573.71 105.2 L576.23 105.38 L577.4 106.05 L579.74 106.53 L581.32 107.63 L583.84 110.15 L585.98 110.49 L588.45 110.22 L589.58 110.44 L590.42 110.6 L590.73 111.69 L591.06 112.86 L588.66 117.3 L580.78 123.32 L579.32 124.45 L577.4 127.01 L578.08 127.72 L578.28 128.5 L578.05 129.34 L577.4 130.2 L576.96 130.49 L575.68 131.66 L576.77 132.94 L577.16 133.26 L577.24 133.36 L577.31 133.47 L577.36 133.59 L577.4 133.73 L579.68 136.36 L582.2 136.17 L584.9 134.87 L587.34 134.29 L587.77 134.19 L589.2 136.49 L588.57 138.96 L587.97 141.3 L587.22 143.01 L584.7 148.78 L584.42 152.9 L585.11 154.26 L585.71 155.44 L588.05 156.72 L590.94 157.07 L592.34 157.51 L595.67 160.1 L596.47 160.72 L602.28 163.36 L608.97 174.66 L609.87 175.65 L611.13 176.37 L611.88 176.42 L611.93 176.53 L612.01 176.76 L611.37 178.33 L609.77 180.32 L608.08 182.42 L604.11 182.83 L600.8 181.04 L596.66 181.4 L597.25 180.51 L598.2 179.01 L600.46 178.94 L602.97 179.25 L604.75 178.87 L603.7 178.54 L602.93 177.66 L602.15 176.33 L598.97 174.69 L600.51 173.99 L600.18 171.9 L598.96 169.59 L597.88 168.13 L591.25 161.12 L589.71 159.85 L585.12 157.8 L583.19 157.46 L581.78 158.71 L580.92 161.35 L581.27 163.7 L583.5 164.1 L580.43 165.59 L580.01 166.08 L579.54 166.84 L577.23 167.29 L576.31 167.75 L574.83 169.32 L572.84 170.84 L570.64 171.53 L568.54 170.6 L569.74 170.29 L571.27 169.62 L572.58 168.75 L573.13 167.75 L572.39 165.68 L568.96 164.97 L567.93 163.21 L566.45 163.73 L558.32 161.84 L557.56 161.49 L555.54 159.43 L555.01 159.1 L554.12 159.23 L551.14 160.31 L550.16 162.01 L549.48 162.38 L548.66 161.98 L547.95 160.3 L546.94 159.92 L546.23 160.44 L546 161.58 L546.31 162.7 L547.24 163.21 L547.24 164.1 L545.37 164.22 L543.69 165.26 L542.76 166.93 L543.22 168.96 L544.6 169.88 L546.29 169.62 L549.48 168.13 L548.51 169.85 L545.57 172.3 L544.95 174.3 L544.94 174.32 L544.05 175.55 L542.01 176.18 L535.39 176.4 L532.21 177.16 L518.52 186.16 L504.33 193.03 L496.02 196.11 L494.62 197.31 L493.93 197.75 L490.88 198.5 L488.55 199.98 L487.43 200.2 L488.09 198.42 L489.02 196.88 L489.57 195.57 L489.16 194.48 L489.97 194.61 L490.53 194.45 L490.85 193.89 L490.88 192.78 L491.45 192.78 L491.84 193.8 L492.19 194.3 L492.6 194.26 L493.17 193.67 L492.02 192.03 L492.97 192.14 L493.88 192.08 L494.73 191.76 L494.89 192.03 L494.94 191.87 L495.22 192.22 L495.48 192.68 L495.51 192.78 L495.22 192.82 L494.36 192.78 L494.36 193.67 L496.23 193.44 L496.68 191.97 L496.76 190.29 L497.51 189.51 L499 189.33 L500.2 188.78 L501.13 187.77 L501.82 186.23 L500.81 186.65 L498.67 188.19 L498.09 188.28 L496.5 186.58 L495.84 185.49 L495.51 183.78 L493.72 184.78 L491.48 186.78 L490.08 188.93 L490.88 190.4 L490.88 191.14 L489.49 191.09 L488.05 189.74 L487.43 190.4 L486.86 190.4 L486.29 187.87 L485.23 189.81 L485.76 190.89 L488.58 192.03 L488.58 192.78 L487.54 193.37 L486.01 193.57 L484.93 193.19 L485.14 192.03 L482.4 191.99 L478.98 193.9 L475.88 196.93 L474.2 200.2 L474.2 200.95 L474.73 200.95 L473.98 202.06 L473.65 203.18 L473.85 204.23 L474.73 205.11 L473.91 206.27 L473.76 207.13 L473.81 208 L473.58 209.18 L472.95 209.58 L472.15 209.61 L471.78 210.04 L472.48 211.63 L471.53 213.25 L471.15 214.54 L470.51 215.39 L468.73 215.7 L467.62 215.22 L466.67 214.54 L465.96 214.87 L465.51 217.41 L466.41 218.49 L467.16 220.99 L468.16 221.48 L469.08 220.9 L469.73 219.51 L469.94 217.87 L469.56 216.52 L471.23 217.21 L471.58 218.47 L471.5 220.2 L471.87 222.3 L470.94 222.66 L470.71 223.27 L471.05 224.01 L471.87 224.74 L471.57 226.46 L472.34 227.89 L473.75 228.76 L475.35 228.8 L475.11 228.36 L475.03 228.31 L474.73 228.06 L475.96 227.11 L477.84 225.22 L478.78 224.74 L478.01 226.56 L478.5 228.31 L479.44 230.01 L479.94 231.69 L480.01 235.69 L480.56 240.18 L479.71 239.89 L478.78 239.36 L478.88 238.58 L478.78 237.42 L478.78 236.92 L477.95 239.54 L477.9 241.66 L478.73 242.85 L480.56 242.69 L480.29 242.24 L480.15 241.87 L479.94 241.06 L481.6 242.5 L482.62 244.23 L483.48 245.98 L484.57 247.55 L484.57 248.36 L483.91 248.48 L483.55 248.69 L483.28 248.96 L482.8 249.25 L483.95 250.88 L485.18 249.04 L485.44 247.58 L484.94 246.13 L483.95 244.38 L485.16 245.49 L486.68 246.26 L487.69 247.09 L487.43 248.36 L488.77 249.8 L489.43 250.33 L490.31 250.88 L491.99 253.13 L493.8 254.97 L494.89 254.11 L494.61 254.08 L494.04 254.16 L493.79 254.11 L493.79 253.23 L495.18 253.19 L496.37 253.65 L497.27 254.53 L497.8 255.73 L497.72 256.82 L496.9 258.11 L497.23 258.9 L496.54 260.03 L496.25 260.67 L496.02 261.39 L495.51 261.39 L494.88 261.49 L494.53 262.8 L494.36 266.62 L493.89 268.51 L492.79 270.46 L490.31 273.45 L490.18 272.92 L489.82 271.75 L489.26 270.43 L488.58 269.41 L489.86 266.69 L490.18 265.21 L489.78 263.91 L488.83 263.45 L487.87 264.05 L487.14 265.07 L486.86 265.85 L485.9 267.78 L485.86 268.91 L487.95 269.82 L487.9 270.72 L487.25 271.59 L486.29 271.91 L486.29 272.72 L486.89 272.87 L487.93 273.34 L488.58 273.45 L487.92 275.49 L486.39 276.61 L484.52 276.8 L482.99 275.39 L482.1 274.06 L479.94 271.91 L478.42 270.8 L477.53 270.76 L475.35 272.72 L475.35 273.45 L476.5 273.45 L474.28 281.63 L473.69 286.32 L474.2 291.42 L475.31 295.23 L476.07 297.07 L476.78 297.87 L476.98 299.17 L476.5 307.52 L476.8 312.73 L479.37 324.53 L479.7 327.59 L479.94 328.46 L480.31 329.15 L481.46 330.74 L481.71 331.3 L481.89 333.79 L482.39 336.15 L483.95 340.54 L485.72 343.82 L488.01 347.01 L491.43 350.41 L493.18 353.58 L495.87 356.47 L498.93 358.94 L501.19 359.86 L505.98 366.34 L508.46 368.89 L511.04 370.95 L512.61 371.85 L516.26 373.07 L516.45 373.14 L520.47 373.72 L522.07 374.69 L525.35 377.39 L530.95 379.67 L531.77 380.98 L532.5 381.79 L558.18 404.4 L567.99 410.52 L569.64 411.2 L570.47 412.24 L574.41 413.62 L576.66 414.98 L577.47 414.48 L578.11 413.63 L578.57 413.18 L578.81 413.07 L578.99 412.82 L579.26 412.57 L579.75 412.46 L580.24 412.69 L580.49 413.22 L580.65 413.74 L580.92 413.97 L582.52 414.84 L583.74 416.75 L584.69 418.65 L585.51 419.51 L587.11 419.9 L588.59 420.95 L589.34 422.49 L588.7 424.32 L600.73 455.23 L602.06 457.55 L602.41 458.37 L602.94 462.51 L603.29 463.49 L604.3 465.08 L606.99 470.94 L608.15 475.03 L609.56 484.73 L612.92 496.85 L616.21 508.68 L619.21 516.44 L620.96 520.09 L626.16 528.49 L626.63 530.23 L627.18 531.45 L639.36 546.11 L644.7 550.87 L650.75 554.89 L653.37 557.16 L656.86 562.98 L667.87 573.88 L670.86 575.81 L675.7 577.79 L679.07 578.44 L680.38 579.56 L681.03 581.31 L681.52 585.98 L682.08 588.2 L683.02 589.84 L684.43 590.5 L684.92 590.6 L686.33 590.9 L687.98 591.91 L690.97 594.42 L693.96 595.81 L700.75 597.03 L704.25 598.2 L705.4 599.25 L707.68 602.27 L708.57 602.91 L710.08 603.44 L713.54 605.97 L715.14 606.83 L716.83 607.17 L718.66 607.56 L728.43 607.53 L738.4 609.81 L742.22 609.91 L756.09 607.53 L769.78 608.3 L790.99 605.72 L798.02 607.53 L798.11 607.72 L800.5 608.45 L802.22 611.52 L803.75 611.45 L803.49 613.24 L804.12 615.37 L804.85 619.55 L804.91 621.01 L804.9 622.98 L804.18 624.25 L802.7 626.08 L800.95 627.72 L799.42 628.43 L797.71 628.98 L796.24 630.28 L794.01 633.04 L791.02 635.47 L782.44 639.95 L780.33 642.8 L779.6 647.04 L780.01 651.57 L781.31 655.33 L783.14 657.96 L785.45 660.2 L790.53 663.74 L795.86 665.44 L797.14 666.46 L798.29 667.65 L814.01 674.92 L827.35 682.21 L832.41 683.6 L833.92 684.8 L835.24 686.13 L838.56 688.42 L858.42 695.18 L860.17 696.67 L860.74 696.67 L860.74 695.85 L861.26 695.85 L863.01 697.67 L877.44 702.36 L889.69 709.14 L895.84 713.67 L898.67 716.5 L901.84 721.24 L902.96 721.87 L904.34 722.33 L907.35 724.68 L912.6 730.34 L913.93 730.97 L915.63 731.43 L918.67 733.46 L925.9 735.35 L926.8 735.92 L935.45 739.48 L943.47 745.41 L950.02 746.64 L952.86 748.03 L952.79 750.63 L953.75 750.65 L955.9 749.94 L957.16 750.21 L957.5 750.93 L957.54 751.93 L957.9 753.04 L959.87 754.91 L960.2 755.6 L959.72 760.58 L966.64 766.36 L974.34 770.76 L976 771.13 L976.57 771.54 L978.29 774.52 L979.25 775.56 L982.02 777.91 L984.19 781.57 L985.42 783.23 L986.91 783.92 L987.66 784.65 L993.27 792.44 L998.54 805.12 L998.89 805.79 L999.33 806.3 L999.89 806.58 L999.47 807.86 L999.69 808.63 L1000 809.33 L999.89 810.4 L999.21 811.48 L997.86 812.57 L997.16 815.8 L996.05 817.09 L993.01 819.38 L991.1 824.17 L990.81 825.3 L990.49 827.6 L989.71 830 L989.52 831.04 L990.12 833.86 L990.15 835.14 L989.01 840.96 L989.24 841.86 L988.8 842.21 L987.94 843.75 L987.49 844.1 L985.66 843.95 L984.97 843.72 L984.3 843.36 L980.25 840.1 L978.87 839.62 L975.4 839.62 L974.3 839.43 L972.23 838.06 L970.16 837.11 L967.54 834.61 L964.48 832.5 L963.36 832.09 L962.58 831.54 L957.19 823.38 L956.18 822.37 L956.18 821.56 L957.5 821.48 L958.27 820.73 L958.43 819.48 L957.9 817.88 L957 816.93 L954.76 816.19 L953.84 815.57 L956.82 813.69 L957.5 811.32 L956.34 808.64 L953.84 805.83 L951.59 803.97 L950.36 802.51 L949.83 800.92 L949.79 798.81 L949.61 796.95 L949.11 795.48 L948.15 794.51 L949.25 794.51 L949.25 793.83 L945.08 790.49 L943.79 790.01 L915.62 788.5 L914.1 788.09 L909.61 785.5 L908.77 785.43 L907.01 785.6 L906.17 785.5 L905.55 785.05 L904.09 783.56 L903.54 783.24 L902.12 782.88 L897.52 780.16 L892.79 778.41 L890.51 777.21 L889.45 775.65 L891.4 774.76 L893.04 773.33 L893.45 771.57 L891.74 769.69 L893.41 769.04 L897.46 769.82 L899.19 768.87 L899.77 767.03 L898.16 766.93 L894.61 768.11 L894.76 767.86 L895.18 767.29 L893.41 766.55 L891.86 767.21 L890.33 768.3 L888.59 768.87 L887.9 768.49 L887.45 767.62 L887.06 766.62 L886.59 765.85 L885.74 765.5 L883.84 765.47 L883.09 765.18 L876.8 764.76 L870.64 767.68 L865.27 772.91 L861.17 778.9 L854.41 788.74 L852.62 792.25 L850.62 798.7 L850.04 799.83 L848.81 800.61 L845.74 805.83 L842.43 808.83 L841.13 810.01 L839.47 812.59 L838.81 816.72 L839.02 818.11 L840.21 822.22 L841.72 825.55 L840.9 826.94 L839.53 828.1 L838.16 830.63 L834.22 834.4 L831.36 839.62 L829.98 843.13 L829.82 846.44 L830.86 849.51 L833.08 852.3 L833.08 853.05 L831.99 855.78 L834.53 858.91 L838.36 861.54 L841.16 862.79 L851.64 863.37 L854.39 864.28 L855.7 865.17 L857.21 866.52 L858.45 868.15 L858.98 869.86 L859.73 870.7 L864.75 873.2 L868.7 876.52 L870.2 876.98 L872.25 877.22 L873.61 877.94 L874.61 879.11 L875.65 880.7 L877.44 882.78 L880.07 884.85 L883.07 886.32 L885.96 886.63 L882.9 894 L882.29 900.02 L882.25 901.48 L882.52 902.93 L883.11 904.16 L884.57 906.58 L884.87 907.84 L884.43 911.28 L882.9 917.54 L883.09 920.8 L885.06 924.77 L885.39 925.67 L885.94 926.25 L888.8 927.27 L889.96 927.44 L888.33 928.57 L887.47 929.32 L887.11 930.06 L887.04 934.29 L887.11 934.89 L884.3 937.46 L883.97 937.9 L883.36 938.31 L882.62 939.3 L881.37 941.52 L880.61 939.35 L878.57 938.96 L876.19 939.66 L874.49 940.77 L872.34 938.23 L871.07 937.4 L869.06 937.09 L867.19 937.24 L859.09 939.45 L849.8 943.7 L846.44 946.18 L845.74 947.07 L845.01 947.82 L839.96 950.41 L837.86 952.43 L836.92 953.8 L836.03 956.85 L834.95 958.5 L833.94 960.45 L833.6 962.97 L834.61 963.69 L834.8 964.04 L834.75 965.96 L835.62 974.13 L837.14 981.37 L837.15 984.13 L836.52 991.99 L835.83 993.4 L832.52 996.53 L831.36 998.2 L830.47 998.44 L827.91 1000.64 L825.23 1001.58 L817.24 1005.76 L814.42 1008.3 L802.93 1022.6 L801.46 1026.06 L799.25 1037.36 L798.02 1040.68 L797.22 1042.08 L796.27 1043.28 L795.19 1044.27 L794.01 1045.04 L790.05 1045.89 L788.8 1046.49 L783.86 1044.99 L768.69 1045.83 L766.46 1045.22 L764.23 1044.15 L762.23 1042.82 L760.66 1041.4 L758.96 1039.11 L758.09 1036.9 L758.36 1034.92 L760.05 1033.34 L757.88 1029.96 L757.16 1028.06 L757.44 1026.43 L758.63 1024.45 L759.15 1022.61 L759.04 1020.59 L758.33 1018.04 L757.9 1014.37 L759.38 1012.16 L762.21 1010.87 L770.79 1008.2 L771.56 1007.4 L771.82 1006.85 L773 1005.79 L773.28 1005.21 L774.42 1000.39 L780.72 987.23 L781.81 982.63 L781.66 979.03 L780.33 976.04 L777.87 973.25 L777.26 972.82 L776.12 972.27 L775.62 971.78 L774.9 970.67 L774.75 970.07 L774.88 969.49 L775 968.44 L775.66 967.21 L777.22 966.37 L780.72 965.17 L786.03 961.6 L788.93 960.22 L792.81 959.97 L798.86 960.7 L800.13 960.39 L801.52 959.63 L803.75 957.76 L805.58 954.73 L806.77 950.67 L807.32 946.1 L807.18 941.52 L806.73 939.37 L805.88 937.74 L804.63 936.72 L802.89 936.36 L801.66 935.48 L800.43 933.46 L795.68 922.49 L792.24 897 L791.57 893.25 L788.33 883.09 L785.19 878.87 L783.1 874.95 L780.72 872.52 L778.32 870.83 L777.59 869.48 L776.94 866.77 L776.15 863.94 L775 859.81 L773.24 856.95 L772.46 855.14 L770.98 844.1 L770.98 844.79 L770.58 842.64 L770.15 841.53 L769.52 841.05 L769.38 840.44 L770.41 836.23 L769.78 833.77 L767.02 829.56 L766.4 828.01 L765.89 825.77 L764.64 823.93 L761.76 820.88 L759.47 817.07 L757.69 815.53 L757.21 814.74 L757.18 813.32 L756 813.83 L749.68 813.32 L747.85 814.43 L746.35 816.73 L743.37 818.63 L740.84 821.87 L739.2 822.51 L735.08 821.97 L733.58 821.4 L731.16 818.15 L730.19 817.88 L729.4 818.3 L728.54 818.58 L727.63 818.7 L726.71 818.63 L726.71 817.88 L728.21 816.63 L726.89 813.77 L724.41 810.89 L722.38 809.58 L720.73 808.79 L715.46 803.24 L714.25 802.68 L712.83 802.86 L710.3 803.58 L708.75 803.32 L707.71 802.61 L706.7 800.39 L705.04 798.78 L702.76 797.78 L701.96 797.21 L701.18 796.44 L699.59 796.85 L698.25 795.73 L697.32 795.33 L696.97 793.46 L699.07 790.5 L699.67 788.13 L699.11 786.24 L699.11 785.2 L699.93 784.74 L700.92 784.52 L701.79 783.94 L702.51 783.19 L704.32 782.48 L704.82 781.33 L704.64 778.17 L702.76 774.43 L695.45 758.8 L693.16 755.03 L690.97 752.21 L688.81 749.96 L686.49 748.09 L683.99 747.34 L681.28 748.43 L678.8 750.39 L677.76 750.66 L673.37 750.39 L672.33 750.75 L668.8 753.86 L666.53 754.32 L664.19 753.63 L661.69 752.21 L660.41 753.1 L656.28 754.1 L654.55 755.59 L650.72 757.63 L649.61 759.07 L648.54 757.54 L648.38 755.22 L649.2 753.12 L651.04 752.21 L652.72 752.08 L653.37 751.74 L654.27 750.97 L654.83 749.63 L658.14 746.31 L660.83 745.3 L661.12 743.49 L660.65 741.47 L659.51 739.86 L658 738.66 L656.21 739.12 L654.88 738.46 L653.96 737.94 L652.96 736.75 L651.62 735.88 L650.13 734.03 L647.07 730.56 L645.54 729.38 L643.99 729.24 L641.7 729.5 L639.62 730.2 L638.71 731.38 L637.93 733.55 L636.14 733.58 L634.75 731.93 L632.2 731.62 L630.21 730.4 L628.91 729.93 L627.78 730.21 L627.25 731.22 L627.35 732.53 L627.67 734 L627.78 735.51 L627.17 735.2 L624.86 734.83 L624.31 734.07 L625.24 729.51 L624.58 725.45 L622.64 720.16 L617.94 711.87 L614.99 709.9 L613.97 708.84 L613.68 707.78 L613.53 705.42 L613.35 704.28 L611.14 699.81 L608.41 695.07 L603.27 688.54 L597.51 683.35 L596.39 682.9 L593.89 683.56 L592.6 683.54 L592.03 682.55 L586.81 683.27 L584.23 684.96 L585.22 688.3 L582.58 688.46 L581.78 688.3 L581.01 687.48 L580.53 686.39 L580.1 685.89 L579.48 686.77 L578.86 686.77 L577.23 684.83 L564.15 678.61 L560.91 678.51 L554.12 679.85 L552.62 680.49 L549.61 682.48 L546.53 683.52 L544.52 686.23 L542.65 686.77 L540.67 686.13 L540.01 684.69 L539.73 682.85 L538.91 680.98 L537.93 679.54 L536.31 676.29 L535.2 674.57 L530.53 669.11 L527.99 666.93 L525.35 665.34 L523.63 664.79 L517.03 664.46 L515.82 664.2 L509.94 660.37 L507.88 659.5 L506.91 660.34 L506.31 661.54 L504.98 660.23 L498.78 650.71 L490.59 640.99 L481.76 632.95 L480.45 631.93 L478.22 631.25 L476.91 630.15 L476.21 629.9 L473.72 629.42 L473.05 629.13 L471.75 627.51 L471.05 625.55 L470.77 623.36 L470.72 621.07 L470.3 618.88 L469.32 616.62 L467.28 612.99 L465.37 610.3 L457.19 603.91 L456.25 603.34 L455.49 602.47 L455.19 601.01 L454.7 600.19 L452.32 599.83 L451.5 599.44 L450.39 598.12 L449.02 596.89 L447.5 595.85 L446.01 595.12 L439.54 595.29 L438.51 595.55 L438.06 594.12 L437 591.91 L435.67 589.86 L434.51 588.95 L433.86 587.39 L432.02 584.94 L431.64 583.96 L431.42 582.19 L430.85 580.31 L426.31 570.87 L424.31 567.79 L414.31 559.9 L410.13 558.7 L404.37 555.61 L402.31 554.89 L402.31 554.04 L401.53 553.6 L400.67 553.3 L399.76 553.19 L398.83 553.27 L399.45 554.04 L397.01 554.02 L390.8 551.72 L389.68 551.55 L388.15 551.57 L386.79 551.94 L386.21 552.84 L385.93 554.6 L384.7 556.44 L384.49 557.92 L383.72 557.57 L382.89 557.57 L382.27 557.75 L382.15 557.92 L381.47 557.34 L380.35 555.89 L378.01 555.08 L376.99 553.78 L376.34 552 L376.36 550.74 L377.38 549.21 L378.55 548.82 L380.97 549.68 L382.84 549.56 L384.14 547.66 L384.88 544.96 L384.92 542.18 L384.75 540.34 L383 537.45 L382.36 535.42 L381.54 535.52 L380.58 536 L379.86 536.1 L378.8 534.52 L378.07 532.37 L377.24 530.54 L375.85 529.87 L375.59 527.64 L373.55 525.95 L369.54 523.57 L369.08 522.21 L368.69 520.36 L368.22 518.74 L367.49 518.05 L366.74 517.62 L364.33 515 L359.9 512.61 L346.51 507.97 L348.53 506.29 L349.33 504.44 L349.45 502.28 L349.39 499.65 L349.65 498.87 L350.14 498.38 L350.4 497.64 L350.01 496.1 L349.22 494.94 L348.14 494.13 L342.32 491.41 L338.22 490.33 L334.09 490.19 L330.38 491.4 L330.75 492.59 L331.01 493.05 L328.66 494.13 L327.06 492.39 L325.21 486.71 L327.32 484.93 L328.53 482.82 L330.38 476.45 L330.09 475.07 L330.09 472.63 L330.4 470.15 L331.01 468.66 L330.32 466.69 L329.99 464.27 L329.86 459.56 L329.46 457.19 L328.52 454.88 L321.81 440.83 L316.47 433.36 L315.28 431.97 L312.52 430.62 L311.76 428.8 L309.87 420.01 L307.29 392.06 L306.25 387.73 L302.77 379.16 L300.3 375.07 L296.59 372.34 L294.01 367.9 L292.74 366.89 L291.18 366.41 L288.1 364.27 L286.38 363.78 L285.01 363.08 L284.17 362.88 L283.8 363.38 L283.51 364.03 L282.84 364.52 L282.01 364.64 L281.24 364.18 L279.92 362.81 L277.1 360.53 L275.73 358.99 L274.79 359.6 L272.1 357.17 L270.56 357.33 L271.14 358.2 L270.75 358.4 L270.36 358.75 L269.99 358.99 L270.4 359.94 L270.91 360.65 L271.55 361.12 L272.33 361.39 L272.33 362.11 L271.84 362.46 L271.61 362.81 L271.14 363.78 L272.24 364.45 L271.92 365.05 L271.06 364.92 L270.56 363.38 L270.01 362.46 L265.98 360.58 L261.71 356.6 L260.77 356.1 L258.5 353.9 L257.65 353.41 L255.19 353.23 L254.17 352.96 L253.33 352.53 L250.4 349.09 L249.88 348.94 L249.3 347.46 L247.91 346.46 L244.11 344.7 L243.09 343.92 L242.31 342.86 L241.86 341.35 L240.86 341.82 L239.3 342.07 L237.86 341.86 L237.23 340.94 L236.65 339.83 L232.64 338.07 L232.06 335.42 L223.25 330.49 L220.56 328.46 L219.75 329.59 L219.14 330.84 L218.81 332.32 L218.89 334.14 L215.06 332.62 L213.51 331.41 L213.68 330.07 L212.12 327.33 L209.77 326.08 L201.31 324.52 L197.25 323.05 L194.8 321.67 L194.03 321.98 L190.16 321.88 L188.23 321.44 L187.58 321.01 L186.68 319.68 L181.26 319.25 L179.14 319.64 L178.1 320.21 L175.67 322.24 L174.79 323.25 L174.22 323.65 L173.58 323.65 L172.9 323.55 L172.26 323.65 L167.11 327.4 L165.67 327.66 L164.68 328.06 L162.62 330.07 L156.39 334.26 L154.58 336.65 L155.02 338.94 L154.16 340.25 L153.91 340.91 L153.82 341.75 L153.56 342.03 L152.29 342.89 L151.84 343.31 L151.39 344.72 L151.56 346 L151.53 347.24 L150.39 348.54 L148.28 349.58 L143.58 351.11 L141.17 352.53 L139.9 353.65 L138.8 354.86 L136.84 357.76 L136.58 358.6 L136.68 360.48 L136.58 361.39 L136.06 363.18 L135.43 364.57 L131.47 369.08 L130.09 371.81 L131.37 374.21 L131.37 374.93 L129.42 375.38 L126.95 378.29 L124.76 379.2 L124.12 379.74 L123.61 380.39 L123.4 380.98 L122.96 381.9 L121.95 382.44 L119.91 382.97 L113.89 387 L99.3 390.6 L95.16 393.35 L91.67 394.17 L81.35 394.16 L79.01 394.95 L77.92 394.95 L77.26 394.42 L76.39 394.06 L75.5 394.06 L73.86 388.47 L73.45 385.53 L74.76 383.12 L78.39 379.09 L80.09 376.38 L84.42 372.7 L86.3 370.61 L86.95 369.26 L87.64 366.65 L88.18 365.22 L89.1 364.18 L90.31 363.25 L91.25 361.99 L91.42 359.97 L91.08 359.25 L90.1 357.13 L88.24 355.26 L87.22 353.08 L88.37 349.28 L85.78 348.81 L82.32 351.08 L79.9 351.27 L65.31 355.5 L61.93 355.41 L61.12 355.22 L60.33 354.45 L59.88 353.48 L59.3 352.62 L58.2 352.2 L56.01 351.83 L54.44 351.16 L45.51 345.63 L42.14 344.4 L37.21 341.76 L36.15 341.45 L35.02 341.55 L34.02 341.89 L33.02 342.05 L31.9 341.59 L31.11 340.69 L30.73 339.67 L30.45 338.57 L29.92 337.42 L29.15 336.51 L27.48 335.3 L26.73 334.51 L26.26 333.63 L25.27 331.24 L24.61 330.09 L22.77 327.91 L22.42 327.38 L22.11 326.3 L22.12 325.7 L22.33 325 L23.03 321.33 L23.62 320.32 L26.44 318.76 L24.25 316.92 L21.7 314.22 L19.82 310.93 L19.56 307.26 L20.45 305.68 L24.73 302.39 L27.61 297.37 L28.78 296.49 L27.83 293.99 L28.43 291.59 L29.97 289.68 L31.9 288.62 L33.44 288.61 L36.47 289.51 L37.97 289.48 L37.49 287.94 L34.94 283.1 L34.62 282.09 L34.16 279.17 L33.21 276.61 L33.27 276.46 L33.69 274.6 L33.84 274.51 L33.83 273.94 L33.91 273.63 L33.94 273.26 L33.76 272.57 L33.41 271.97 L31.9 270.32 L27.69 268.58 L26.24 268.46 L22.1 269.29 L20.51 268.88 L14.72 265.5 L11.98 263.11 L10.51 260.63 L10.67 253.99 L10.14 250.59 L7.93 248.98 L4.99 248.71 L4.11 247.94 L3.1 246.2 L2.88 245.12 L2.97 244.17 L2.84 243.33 L1.47 242.15 L0 239.89 L1 238.54 L2.24 237.5 L2.52 237.26 L5.43 235.58 L6.17 235.45 L7.69 235.51 L8.35 235.39 L9.08 234.98 L10.59 233.8 L11.22 233.48 L14.16 233.97 L17.24 235.65 L20.26 236.72 L22.99 235.39 L23.16 234.66 L22.67 234.11 L22.28 233.46 L22.72 232.45 L23.38 232.16 L25.34 232.13 L26.11 231.95 L27.34 230.83 L28.79 228.27 L29.88 227.23 L32.88 225.86 L35.84 225.04 L36.51 225.33 L37.56 226.61 L38 226.77 L38.56 226.19 L40.16 223.26 L42.44 221.34 L42.44 219.47 L41.54 217.08 L41.11 213.62 L41.55 212.91 L44.26 209.66 L46 206.54 L46.74 204.72 L46.83 203.23 L46.18 202.73 L42.59 201.15 L41.47 200.3 L40.79 198.96 L40.21 197.47 L39.67 196.6 L39.39 196.16 L35.73 193.39 L31.9 191.24 L31.27 189.5 L30.81 184.54 L30.48 183.65 L29.56 182.24 L29.39 181.27 L29.62 180.27 L30.58 178.16 L30.78 177.48 L30.27 175.7 L29.24 174.97 L26.51 174.28 L25.39 173.42 L23.49 171.52 L22.37 171.1 L20.17 170.65 L17.91 168.96 L16.22 166.4 L15.27 161.41 L15.05 159.26 L15.11 157.12 L15.56 155.14 L16.62 153.36 L17.92 152.59 L20.2 151.9 L20.92 152.19 L21.47 152.52 L21.97 153.31 L22.49 153.14 L22.57 152.6 L22.66 151.77 L22.72 151.15 L23.3 151.07 L25.38 151.09 L27.16 150.56 L29.06 149.58 L30.76 148.15 L31.9 146.21 L32.43 144.59 L33.11 143.14 L33.99 142.03 Z M489.04 382.44 L491.64 382.06 L493.14 379.53 L493.07 379.18 L493.11 378.81 L493.24 378.51 L493.46 378.26 L493.54 378.11 L494.15 376.95 L494.32 374.94 L494.05 372.99 L493.46 371.89 L491.04 372.3 L488.36 373.68 L487.49 374.56 L486.2 375.87 L485.36 378.65 L486.53 381.14 Z M491.02 610.38 L491.1 610.38 L491.1 610.26 L491.02 610.25 L490.99 610.3 L490.99 610.35 Z M452.95 1160.89 L456.15 1163.96 L457.32 1165.67 L457.48 1168.05 L455.56 1170.8 L452.67 1170.43 L449.74 1168.3 L447.73 1165.83 L447.37 1165.11 L446.7 1163.4 L446.46 1161.68 L447.48 1160.89 L447.86 1160.77 L448.47 1160.28 L448.91 1160.17 L449.44 1160.4 L450.25 1161.39 L450.6 1161.61 L451.37 1161.82 L451.93 1162.12 L452.4 1162 Z M475.92 1044.31 L477.08 1044.41 L477.92 1044.12 L478.63 1043.73 L479.37 1043.58 L479.96 1044.21 L481.26 1045 L482.76 1045.64 L483.95 1045.83 L483.01 1047.02 L481.71 1047.11 L480.37 1046.56 L479.37 1045.83 L478.14 1046.47 L477.15 1046.22 L476.38 1045.41 Z M749.15 1005.57 L751.72 1005.84 L756.48 1007.97 L759.47 1008.49 L759.19 1009.41 L758.7 1009.89 L758.03 1010.03 L757.18 1009.95 L753.78 1012.22 L752.6 1013.66 L752.04 1015.01 L751.78 1016.56 L753.12 1016.52 L749.02 1023.29 L746.78 1028.82 L737.73 1040.41 L730.19 1052.3 L728.57 1055.64 L727.13 1057.88 L725.03 1059.62 L722.67 1063.24 L722.12 1064.69 L722.26 1065.83 L723.13 1067.84 L723.27 1069.04 L722.92 1070.11 L721.75 1071.31 L721.49 1072.33 L721.3 1074.52 L720.27 1077.63 L719.77 1079.9 L718.53 1083.78 L714.51 1088.59 L712.9 1091.53 L712.47 1093.33 L712.3 1095.23 L712.51 1105.69 L712.9 1107.46 L713.47 1108.93 L714.07 1109.77 L719.89 1113.05 L723.03 1113.66 L724.65 1114.74 L725.93 1116.54 L726.71 1119.05 L725.34 1117.75 L724.56 1118.2 L723.99 1119.43 L723.27 1120.5 L723.39 1118.67 L722.9 1117.91 L722.02 1117.91 L720.97 1118.41 L721.49 1119.71 L720.18 1121.83 L721.12 1125.11 L722.95 1127.34 L724.36 1126.32 L725.56 1126.97 L725.56 1127.69 L724.02 1127.92 L724.24 1129.47 L725.48 1131.23 L727 1132.07 L729.02 1132.27 L730.23 1133.02 L730.62 1134.55 L730.19 1137.1 L728.95 1136.41 L728.45 1137.27 L728.59 1138.58 L729.28 1139.25 L730.99 1139.04 L731.73 1139.44 L732.43 1140.75 L732.68 1142.44 L732.04 1142.77 L731.16 1142.36 L730.71 1141.8 L730.25 1141.97 L727.28 1143.62 L727.86 1144.34 L727.12 1144.78 L726.93 1145.02 L727.28 1145.71 L727.28 1146.49 L725.3 1146.6 L723.81 1147.37 L722.55 1148.24 L721.24 1148.64 L719.44 1149.54 L718.08 1151.63 L713.82 1162.55 L713.73 1163.76 L712.67 1164.7 L713.08 1166.81 L714.62 1170.2 L716.11 1176.42 L716.05 1177.73 L714.39 1179.33 L712.67 1179.85 L710.96 1179.41 L709.41 1178.12 L708.2 1176.42 L707.56 1175.77 L706.55 1175.2 L705.38 1174.84 L704.6 1174.9 L704.25 1175.56 L703.31 1176.3 L701.2 1175.36 L697.95 1173.05 L694.89 1171.92 L691.93 1172.38 L686.38 1175.2 L685.99 1174.32 L685.77 1174.08 L684.72 1174.48 L683.32 1173.13 L678.31 1172.41 L677.22 1170.55 L676.16 1169.5 L671.22 1167.58 L669.72 1166.61 L668.35 1166.93 L661.75 1165.35 L660.78 1164.14 L653.97 1149.44 L651.9 1146.49 L644.25 1139.04 L638.35 1135.14 L631.45 1131.86 L628.29 1131.28 L618.87 1132.07 L618.11 1132.28 L616.54 1133.27 L615.69 1133.58 L611.99 1133.06 L606.81 1128.99 L603.61 1127.69 L600.01 1126.94 L597 1125.64 L594.28 1123.74 L587.18 1116.64 L584.69 1114.87 L581.78 1113.96 L577.93 1113.29 L574.91 1112.2 L572.3 1110.56 L568.17 1107.21 L564.59 1105.08 L563.05 1103.54 L562.27 1103.03 L561.2 1102.66 L560.26 1102.18 L558.18 1098.16 L557.68 1097.72 L555.84 1096.65 L554.89 1095.38 L554.22 1094.76 L553.25 1094.48 L552.8 1094.15 L551.98 1092.66 L551.53 1092.32 L541.25 1090.87 L540.01 1091.49 L539.14 1091.66 L538.34 1091.21 L537.8 1090.22 L537.27 1088.08 L536.92 1087.19 L534.75 1084.87 L532.11 1083.69 L525.35 1082.86 L518.54 1083.09 L511.56 1084.31 L508.33 1084.05 L506.39 1082.24 L502.91 1076.35 L501.49 1074.85 L500.29 1074.24 L496.94 1074.18 L495.48 1073.42 L494.04 1071.6 L492.81 1069.45 L492.02 1067.66 L491.64 1066.09 L491.53 1064.69 L491.29 1063.42 L490.59 1062.19 L489.61 1060.93 L488.83 1059.46 L488.87 1058.16 L490.31 1057.45 L490.43 1057.89 L491.64 1057.12 L492.02 1056.72 L491.86 1056.41 L492.46 1053.47 L492.64 1053.39 L493.09 1051.43 L493.17 1050.52 L493.01 1050.01 L492.25 1048.82 L492.02 1047.88 L491.95 1047.14 L491.98 1047.01 L492.19 1046.8 L494.16 1042.77 L494.67 1039.94 L495.2 1038.19 L495.31 1036.68 L494.36 1035.59 L496.93 1034.52 L499.13 1032.03 L501.37 1030.23 L504.06 1031.22 L506.6 1029.4 L507.68 1028.12 L508.13 1026.43 L508.59 1025.48 L509.73 1025.52 L511.06 1025.92 L512.13 1026.06 L513.87 1024.45 L513.76 1021.84 L513.41 1019.16 L514.41 1017.31 L514.92 1018.57 L515.89 1018.45 L516.86 1018.57 L517.29 1020.53 L519.36 1025.39 L521.68 1029.57 L522.55 1030.42 L524.92 1031.63 L525.92 1032.4 L525.98 1033.34 L528.62 1034.88 L532.24 1034.37 L539.22 1031.22 L542.07 1028.97 L542.77 1028.16 L542.91 1027.69 L542.76 1027.06 L542.65 1025.72 L542.48 1024.76 L541.69 1023.72 L541.51 1022.75 L544.42 1020.17 L543.95 1019.24 L544.44 1018.32 L545.39 1017.6 L546.36 1017.31 L547.2 1017.5 L550.1 1018.71 L551.98 1019.08 L554.31 1019.09 L556.25 1018.18 L556.98 1015.79 L558.27 1016.27 L559.24 1015.98 L560.17 1015.43 L561.82 1015 L562.96 1014.45 L563.62 1014.34 L564.05 1014.62 L564.2 1015.3 L564.29 1016.03 L564.48 1016.52 L567.66 1018.71 L568.14 1019.45 L568.25 1022.87 L568.54 1023.88 L569.77 1026.87 L580.02 1026.09 L582.35 1027.85 L582.19 1029.68 L582.32 1030.68 L582.86 1031.88 L583.71 1032.64 L586.2 1033.7 L589.16 1036.25 L591.57 1037.77 L595.49 1038.55 L596.67 1039.16 L596.33 1039.46 L596.29 1039.57 L596.1 1039.95 L597.92 1039.91 L603.29 1040.68 L605.13 1040.22 L608.87 1038.22 L612.32 1037.4 L613.49 1036.53 L614.54 1035.53 L615.69 1034.8 L621.45 1033.79 L622.57 1032.61 L626.1 1034.65 L627.84 1035.33 L629.77 1035.59 L631 1035.46 L633.56 1034.8 L643.78 1036.26 L648.65 1035.95 L653.13 1034.73 L657.1 1032.61 L659.81 1033.91 L663.8 1033.14 L674.12 1029.19 L676.9 1027.3 L679.27 1024.97 L682.43 1021.07 L683.36 1020.67 L686.12 1020.89 L687.84 1020.77 L694.21 1019.14 L695.39 1018.4 L696.18 1018.04 L696.98 1017.86 L699.35 1018.04 L700.17 1018.49 L701.68 1020.45 L702.24 1020.89 L703.25 1021 L705.4 1021.69 L708.06 1021.53 L708.9 1021.69 L709.24 1022.05 L710.09 1023.41 L710.55 1023.88 L712.16 1024.2 L713.62 1023.64 L715.07 1022.83 L719.67 1021.2 L721.85 1018.32 L724.99 1012.14 L724.73 1011.32 L724.6 1011.09 L724.67 1010.83 L724.99 1009.95 L724.69 1009.62 L725.19 1009.62 L725.46 1010.74 L724.99 1013.3 L725.38 1014.7 L726.4 1015.45 L727.79 1015.74 L729.28 1015.79 L731.73 1015.38 L738.33 1013.06 L740.19 1011.78 L741.19 1010.86 L744.47 1009.3 L747.83 1006.11 Z M701.96 991.62 L701.96 993.15 L703.31 993.82 L704.25 994.83 L704.93 996.09 L705.4 997.54 L704.66 998.25 L703.68 999 L701.72 997.12 L700.44 995.53 L700.19 993.84 L701.33 991.62 Z M697.04 987.23 L696.34 986.4 L696.44 984.58 L697.2 982.79 L698.47 982.04 L701.25 982.07 L701.94 982.69 L701.33 984.23 L701.89 984.7 L702.61 985.5 L703.05 985.77 L703.05 986.43 L700.81 986.43 L701.25 987.7 L701.53 988.19 L701.96 988.63 L701.96 989.43 L700.48 989.7 L699.29 988.87 L698.2 987.78 Z M693.31 979.18 L693.17 980.22 L690.01 978.87 L687.48 976.75 L689.25 975.44 L692.31 975.32 L693.62 975.73 L694.46 976.97 L694.03 977.43 L693.78 977.94 Z M155.54 922.68 L155.71 923.27 L156.14 923.57 L156.71 923.53 L157.26 923.09 L157.33 922.98 L157.49 922.82 L157.89 923.09 L156.22 924.52 L155.82 925.25 L156.17 926.04 L155.37 927.58 L154.75 931.24 L153.95 934.17 L153.57 934.64 L152.68 934.89 L151.67 934.75 L151.35 934.19 L151.27 933.43 L150.96 932.67 L147.9 927.44 L146.59 923.91 L146.94 921.61 L146.94 920.8 L146.32 920.8 L146.32 920.06 L147.52 917.85 L149.66 919.27 L152.33 919.1 L154.59 919.52 Z M142.94 909.72 L142.98 913.24 L143.46 917.62 L142.94 919.32 L141.62 919.94 L139.88 919.8 L138.65 919.05 L138.87 917.85 L138.87 917.18 L136.8 915.05 L136.13 913.64 L136.58 911.94 L137.86 911.05 L141.64 910.25 Z M616.21 744.58 L615.38 744.14 L614.12 744.26 L612.75 744.76 L611.63 745.41 L610.95 744.81 L609.08 743.9 L608.19 743.07 L608.78 740.9 L609.23 739.88 L609.95 739.36 L609.71 738.93 L609.34 737.85 L611.05 737.85 L616.35 739.76 L617.98 740.88 L617.72 741.55 L617.7 742.2 L617.98 743.07 L617.38 743.45 Z M140.33 705.1 L138.35 706.6 L138.34 709.68 L137.96 712.18 L134.87 711.94 L135.54 710.91 L135.88 709.87 L136 708.8 L136 707.73 L136.48 706.83 L137.53 705.68 L139.16 704.28 L140.41 703.71 L140.59 702.38 L140.41 700.85 L140.59 699.71 L141.14 699.58 L142.63 699.78 L142.94 699.33 L143.12 698.8 L143.57 698.27 L144.65 697.43 L144.63 698.3 L144.8 698.95 L145.17 699.71 L145.97 700.58 L146.21 701.87 L145.92 703.22 L145.17 704.28 Z M267.7 760.58 L270.07 762.85 L270.56 763.6 L270.59 764.7 L269.62 766.59 L269.37 767.71 L269.08 770.09 L268.37 771.78 L266.51 774.89 L265.13 778.92 L264.1 780.4 L262.25 780.98 L261 781.6 L260.03 783.08 L258.54 786.25 L257.45 787.51 L255.38 789.34 L254.47 790.82 L253.76 792.97 L253.65 794.66 L254 799.3 L254.17 800.32 L256.15 805.99 L257.02 807.42 L258.25 808.02 L258.93 808.62 L260.81 811.29 L262.66 812.65 L262.5 814.34 L259.4 822.63 L258.89 826.1 L259.67 829.1 L260.16 828.73 L260.77 828.39 L261.27 828.41 L261.45 829.1 L261.17 830.12 L260.64 830.37 L260.07 830.38 L259.67 830.67 L259.07 832.08 L258.64 833.43 L258.6 834.71 L259.1 835.89 L258.54 835.89 L258.54 836.57 L258.93 836.79 L259.27 837.17 L259.67 837.39 L259.67 838.06 L258.63 839.37 L257.9 841.66 L257.46 844.41 L257.33 847.09 L257.43 848.47 L257.86 851.15 L257.96 852.67 L257.78 853.78 L257 855.59 L256.82 857.18 L256.63 857.84 L256.24 858.69 L255.85 859.83 L255.67 861.3 L256.24 866.14 L256.01 869.16 L253.95 876.24 L255.33 878.18 L254.83 881.6 L252.74 887.37 L251.73 892.12 L251.6 893.71 L251.86 895.31 L252.53 896.36 L254.47 897.81 L254.47 898.49 L252.17 899.35 L250.04 901.81 L248.84 904.87 L249.32 907.5 L248.67 908.45 L248.95 909.07 L249.55 909.65 L249.88 910.39 L249.71 911.23 L248.92 913.39 L248.74 914.49 L248.02 915.52 L246.49 916.14 L245.07 917.12 L244.73 919.32 L244.07 918.95 L243.76 918.58 L243.8 918.05 L244.17 917.18 L242.86 916.18 L241.55 915.97 L240.26 916.37 L239 917.18 L238.37 917.18 L237.96 916.21 L237.21 915.64 L235.51 914.82 L233.39 912.32 L232.9 911.94 L232.08 911.47 L230.16 909.38 L229.46 908.91 L228.58 908.69 L227.41 908.14 L226.35 907.42 L225.72 906.69 L225.15 907.5 L223.97 906.77 L222.39 906.27 L219.36 905.96 L217.77 906.7 L216.39 908.22 L215.44 909.72 L215.14 910.39 L212.69 909.61 L210.73 907.75 L207.33 903.74 L206.55 904.33 L205.86 903.84 L205.19 902.93 L204.45 902.26 L203.25 901.97 L202.37 902.07 L202.26 902.43 L203.36 902.93 L203.36 903.74 L202.97 904.62 L203.46 905.12 L204.15 905.51 L204.38 906.06 L204.45 905.96 L205.4 906.22 L207.49 905.76 L207.9 906.33 L207.9 907.2 L207.83 907.66 L204.44 911.27 L203.4 912.76 L202.74 914.82 L202.54 917.24 L202.77 919.39 L203.27 921.32 L203.89 923.09 L204.37 923.75 L204.88 924.31 L204.97 925.09 L203.66 927.36 L202.74 931.13 L203.36 931.13 L202.47 931.74 L202.21 931.63 L201.59 931.13 L200.9 932.48 L192.37 941.17 L191.8 941.43 L190.92 941.52 L190.49 941.84 L189.57 943.35 L188.89 943.79 L187.9 943.51 L186.76 942.62 L184.87 940.77 L184.87 942.99 L183.66 940.94 L181.61 939.22 L179.34 938.11 L177.41 937.9 L175.57 938.69 L173.4 940.27 L171.96 942.33 L172.26 944.53 L171.07 945.26 L170.55 944.53 L171.23 942.5 L170.41 941.89 L168.94 941.85 L167.62 941.52 L167.62 940.77 L168.89 938.94 L168.93 936.28 L167.91 934.41 L165.96 934.89 L165.3 929.15 L164.24 924.5 L163.61 924.5 L162.95 925.09 L160.99 924.05 L159.61 923.82 L160 923.28 L160.76 921.61 L159.61 920.8 L157.79 921.94 L157.74 921.53 L157.35 920.85 L157 919.02 L156.31 917.71 L155.4 917.12 L154.39 917.85 L154.03 916.74 L154.09 914.07 L153.82 912.68 L153.23 911.9 L152.42 911.45 L151.9 911.62 L152.16 912.68 L151.64 912.31 L151.27 911.77 L151.04 911.01 L150.96 910.06 L150.74 908.87 L150.22 908.56 L149.63 908.52 L149.18 908.17 L148.56 906.6 L148.47 905.68 L148.89 904.89 L153.06 899.97 L153.54 897.96 L152.16 895.59 L152.29 893.92 L149.34 891.68 L148.67 889.6 L149.01 888.61 L150.48 886.84 L150.96 885.95 L151.27 884.35 L151.17 883.41 L149.96 880.53 L149.67 880.18 L149.74 879.72 L150.39 878.46 L152.68 875.5 L153.81 873.69 L155.18 870.09 L156.17 868.07 L155.54 867.25 L156.21 865.78 L156.06 863.68 L155.02 859.14 L154.77 854.2 L154.39 853.05 L154.39 852.3 L154.74 851.28 L154.54 848.42 L154.71 847.82 L155.86 848.05 L156.6 848.65 L159.22 852.88 L160.66 854.42 L162.45 855.08 L164.76 854.53 L160.45 853.15 L159.61 852.3 L159.81 850.45 L160.91 848.6 L162.22 846.92 L163.04 845.59 L162.48 845.59 L162.19 846.35 L161.8 846.96 L161.33 847.47 L160.76 847.82 L161.74 846.73 L162.66 844.91 L163.34 842.95 L163.61 841.46 L163.87 837.97 L163.73 836.74 L163.04 835.14 L161.21 832.92 L158.75 831.44 L156.14 831.25 L153.82 832.91 L154.39 833.59 L154.67 833.01 L155.04 832.9 L155.53 832.96 L156.17 832.91 L155.2 833.58 L154.59 834.59 L153.82 837.39 L153.26 836.57 L153.99 835.34 L153.45 834.42 L152.38 833.64 L151.14 832.48 L150.91 832.42 L150.7 832.21 L150.39 831.41 L150.3 830.56 L150.54 829.85 L150.84 829.17 L150.96 828.42 L150.3 824.38 L150.39 823.12 L151.39 820.77 L151.44 819.42 L150.39 817.88 L149.18 818.55 L148.93 818.15 L149.55 817.25 L150.96 816.38 L151.22 816.42 L153.77 816.26 L155.24 815.7 L155.86 815.57 L156.6 815.04 L157.48 813.72 L158.17 812.03 L158.4 810.4 L157.99 808.9 L156.49 805.98 L156.17 803.95 L155.85 798.15 L157.26 793.07 L157.23 789.77 L156.12 787.31 L154.31 785.45 L152.16 783.92 L151.53 784.74 L149.67 783.21 L149.46 781.01 L150.39 775.27 L150.05 773.23 L149.16 770.32 L147.96 767.74 L146.64 766.61 L145.11 765.69 L144.46 763.46 L144.1 760.73 L143.46 758.25 L141.74 756.33 L139.71 756.48 L135.43 759.07 L133.72 758.25 L134.51 756.06 L135.43 754.47 L133.5 753.89 L132.1 755.09 L131.22 757.32 L130.85 759.82 L130.12 758.28 L129.64 756.57 L129.08 753.72 L129.08 753.04 L130.51 752.25 L131.86 751.22 L132.83 749.57 L133.09 746.92 L133.31 746.93 L133.69 746.39 L133.84 745.73 L133.4 745.41 L132.29 745.34 L131.86 745.09 L131.37 744.58 L130.14 742.58 L129.51 741.88 L128.5 741.56 L134.87 726.42 L135.35 724.65 L135.43 722.63 L134.88 720.98 L133.4 720.29 L132.29 719.46 L132.57 717.55 L133.48 715.5 L134.24 714.22 L134.87 714.22 L135.11 715.54 L135.74 715.66 L136.49 715.64 L137.1 716.5 L137.04 717.42 L136.71 718.75 L136.51 720.19 L136.84 721.46 L140.59 726.42 L143.31 728.06 L152.68 729.38 L157.38 730.78 L159.32 730.97 L160.96 730.69 L167.5 727.8 L169.17 726.34 L170.51 724.63 L171.07 722.98 L176.79 720.29 L178.87 720.22 L180.32 720.46 L181.43 721.05 L186.31 717.33 L187.74 715.74 L190.74 710.57 L191.8 709.66 L191.63 709.24 L191.63 709.11 L191.57 709.05 L191.22 708.84 L193.91 707.84 L194.72 707.38 L195.28 706.62 L196.18 704.66 L196.7 704.28 L197.74 703.68 L199.17 702.27 L200.43 700.64 L201.67 697.9 L203.28 697.13 L209.01 696.42 L210.25 695.95 L212.58 693.62 L213.11 694.46 L214.43 692.67 L214.92 690.96 L214.87 686.36 L215.56 684.41 L217.15 683.49 L219.03 682.97 L220.56 682.21 L220.73 683.22 L221.2 683.75 L221.93 683.87 L222.84 683.66 L223.7 685.11 L223.65 688.98 L224.56 689.75 L224.26 689.25 L224.17 688.62 L224.28 687.81 L224.56 686.77 L225.15 686.77 L225.49 688.22 L225.4 688.55 L225.15 689.06 L225.15 689.75 L226.35 689.59 L226.84 689.43 L227.43 689.06 L227.77 689.59 L229.15 690.58 L229.34 687.9 L230.75 688.39 L233.78 691.35 L233.78 690.58 L234.49 690.99 L235.12 691.24 L235.81 691.35 L236.65 691.35 L236.65 692.04 L236.2 692.38 L235.98 692.74 L235.79 693.15 L235.51 693.62 L236.47 694.05 L237.01 694.86 L237.53 695.8 L238.37 696.67 L237.88 697.51 L237.86 698.63 L238.37 701.24 L239.32 699.01 L239.85 698.06 L240.66 697.43 L240.38 696.92 L240.24 696.51 L240.01 696.15 L239.52 695.85 L240.57 695.2 L241.61 695.27 L242.7 695.63 L243.84 695.85 L244.34 695.5 L244.71 694.92 L245.18 694.8 L245.87 695.85 L245.25 696.67 L246.05 697.21 L246.59 697.8 L247.04 698.01 L247.59 697.43 L248.17 697.43 L248.31 697.91 L248.35 697.99 L248.46 697.98 L248.74 698.19 L248.63 699.55 L248.39 700.66 L247.9 701.7 L247.02 702.83 L246.84 702.29 L246.59 701.75 L246.45 701.24 L244.95 707.95 L244.17 709.66 L245.87 709.66 L245.25 708.08 L246.79 707.36 L247.72 707.62 L248 708.69 L247.59 710.42 L248.02 710.42 L248.09 710.24 L248.06 709.96 L248.17 709.66 L248.68 710.26 L248.93 710.41 L249.32 710.42 L250.57 709.17 L252.88 709.29 L255.28 710.18 L256.82 711.18 L255.86 712.46 L254.58 712.32 L253.21 711.61 L251.92 711.18 L250.52 711.94 L250.09 713.7 L249.79 715.7 L248.74 717.18 L249.14 718.71 L247.99 719.12 L244.17 718.77 L244.11 719.32 L244.22 719.48 L243.52 719.6 L244.17 720.9 L244.85 720.92 L245.6 720.45 L246.45 720.29 L247.31 720.67 L248.81 721.65 L249.32 721.87 L250.96 721.49 L252.21 720.6 L253.46 719.94 L255.09 720.29 L254.68 721.3 L254.21 722.05 L253.56 722.51 L252.74 722.63 L252.74 723.32 L255.76 724.86 L256.24 725.24 L256.41 726.59 L256.87 727.22 L257.58 727.17 L258.54 726.42 L259.1 727.48 L259.9 728.13 L260.87 728.48 L261.97 728.7 L259.21 729.66 L258.36 730.38 L259.1 731.79 L259.1 732.49 L257.81 732.14 L256.75 732.68 L256.42 733.69 L257.33 734.75 L257.42 733.52 L257.92 734.94 L260.29 738.18 L260.82 739.71 L261.15 741.74 L263.69 746.92 L264.01 748.39 L264.42 755.24 L264.7 756.36 L265.12 757.22 L265.67 757.56 L266.83 757.81 L267.16 758.49 L267.25 759.45 Z M360.32 555.6 L361.8 556.9 L362.96 559.39 L363.15 560.84 L364.01 561.96 L362.63 563.32 L361.42 562.58 L358.29 559.31 L357.47 557.92 L358.69 556.99 L358.64 555.59 L359.24 554.98 Z M322.34 503.28 L321.73 504.12 L321.32 505.29 L321.28 506.63 L321.78 507.97 L321.22 509.9 L320.41 511.17 L319.28 512.03 L317.77 512.65 L319.37 513.37 L320.81 515.25 L321.28 517.38 L320.01 518.89 L319.63 517.86 L318.98 517.75 L318.14 517.83 L317.14 517.33 L316.8 516.71 L315.95 514.65 L315.71 514.22 L314.61 513.55 L313.49 512.5 L312.41 512.5 L311.46 515 L310.69 513.08 L307.41 514.82 L305.73 513.37 L305.28 515.12 L304.87 515.81 L304.41 515.86 L297.49 515.65 L295.61 514.98 L294.1 513.35 L293.64 510.31 L294.5 508.34 L296.29 507.12 L298.41 506.5 L300.2 506.33 L301.08 506.55 L302.94 507.58 L303.96 507.97 L305.46 508.12 L307.45 507.97 L307.37 507.4 L307.32 507.28 L307.18 507.31 L306.87 507.12 L307.97 506.33 L307.97 505.48 L307.97 505.35 L309.42 505.55 L312.56 505.48 L312.17 507.14 L313.06 507.8 L314.29 507.81 L314.9 507.54 L315.19 506.47 L315.85 505.85 L316.59 505.38 L317.14 504.77 L318.04 501.84 L318.7 500.6 L319.74 500.08 L320.56 500.37 L321.31 501.1 L321.94 502.13 Z M271.71 478.08 L271.86 478.28 L272.03 478.6 L272.33 478.84 L272.95 480.48 L271.88 482.7 L270.27 484.59 L268.47 484.67 L267.05 482.3 L268.93 477.94 L270.51 476.99 Z M482.54 203.88 L484.2 201.56 L485.66 200.52 L487.19 200.87 L489.16 202.66 L488.09 202.1 L486.97 201.87 L484.57 201.84 L479.97 210.74 L479.85 210.01 L480.51 207.85 Z M525.16 1261.32 L525.76 1261.32 L526.35 1261.92 L526.58 1263.02 L526.23 1263.39 L524.92 1263.39 L524.41 1263.01 L523.99 1262.31 L524.08 1261.73 L524.63 1261.42 Z M649.93 980.66 L649.62 979.36 L650.83 978.94 L651.14 980.25 Z M669.2 976.21 L669.5 977.34 L669.97 977.89 L669.99 978.27 L668.99 978.37 L667.15 977.83 L666.49 976.44 L666.38 975.11 L666.7 975 L668.19 975.36 Z M551.13 961.1 L552.51 961.07 L553.37 961.72 L553.49 962.06 L551.76 963.71 L550.79 963.92 L549.81 963.52 L549.77 962.71 L550.17 961.89 Z M723.9 951.09 L724.48 951.35 L724.86 951.76 L724.71 952.63 L724.29 953.35 L724.06 954.02 L723.63 954.69 L723.03 955.1 L722.08 954.86 L720.48 953.38 L720.48 952.98 L721.07 952.4 L721.87 952.02 L722.3 951.56 L722.58 951.07 L723.13 950.91 Z M572.09 734.17 L572.52 733.65 L573.18 733.52 L572.76 734.7 L571.73 735.25 Z M505.18 1298.78 L505.14 1298.94 L505.35 1299.62 L505.14 1300.58 L504.28 1300.9 L503.61 1300.67 L503.21 1300.37 L502.84 1300.36 L499.63 1298.96 L497.99 1298.49 L497.15 1298.07 L497.8 1297.56 L499.63 1297.6 L500.57 1297.82 L504.43 1298.21 L505.14 1298.41 L505.34 1298.56 Z M459.06 1041.29 L459.53 1042.12 L459.65 1043.17 L458.43 1043.11 L456.99 1042.05 L456.11 1040.67 L455.55 1039.54 L456.01 1038.83 L457.49 1038.68 L458.4 1039.34 Z M241.05 685.17 L241.35 686.02 L241.45 686.5 L241.43 687.31 L240.74 690.36 L241.02 690.95 L241.06 691.51 L240.68 692.31 L240.18 692.24 L239.51 691.35 L238.87 690.81 L238.27 691.09 L237.88 690.76 L238.78 688.63 L238.43 687.91 L238.67 686.92 L239.3 685.41 L239.81 684.47 L240.48 684.61 Z M237.37 686.43 L237.65 686.9 L237.74 687.3 L234.38 688.01 L232.84 687.71 L232.51 686.75 L232.51 685.86 L232.9 685.42 L233.51 685.12 L234.09 684.65 L234.46 683.87 L234.6 682.94 L234.96 682.78 L235.44 682.71 L235.97 682.23 L236.61 682.4 L237.08 683.16 L237.34 684.03 L237.33 684.98 L237.21 685.92 Z M310.06 560.35 L310.85 559.59 L311.65 560.82 L311.42 562.73 L309.85 562.26 Z M292.82 531.8 L293.19 532.38 L293.35 532.69 L293.35 533.16 L293.14 533.95 L292.33 534.46 L291.16 534.43 L290.05 534.06 L289.35 533.38 L289.55 532.57 L290.4 532.23 L291.23 531.27 L291.8 529.73 L292.21 529.64 L292.49 530.86 Z M480.68 197.5 L482.13 197.5 L483.52 198.6 L483.38 199.97 L482.55 200.47 L481.3 201.26 L479.9 200.97 L479.56 199.38 Z "/>
</g>
</svg>
