<svg xmlns="http://www.w3.org/2000/svg" viewBox="0 0 1000 395.47">
<g fill="#ccc" stroke="#333" stroke-width="0.5" stroke-linejoin="round">
<path fill-rule="evenodd" d="M965.35 246.93 L968.53 254.64 L972.2 263.52 L978.94 275.02 L987.53 284.14 L1000 293.5 L995.24 297.38 L971.6 303.36 L954.95 312.53 L945.4 315.31 L937.25 313.2 L940.44 310.89 L941.72 309.25 L943.51 303.36 L935.24 306.39 L927.91 317.34 L919.95 319.76 L912.86 317.73 L904.61 313.92 L896.22 311.75 L882.49 316.91 L846.54 320.04 L821.18 316.17 L817.49 316.32 L814.05 316.99 L810.31 316.5 L805.56 313.2 L803.5 308.85 L802.57 303.3 L801.19 298.53 L797.62 296.5 L793.93 295.36 L791.48 292.66 L789.36 289.46 L786.53 286.93 L772.79 283.63 L769.37 281.71 L762.34 278.86 L752.85 279.42 L736.29 283.35 L729.21 284.21 L705.36 283.35 L705.36 280.07 L755.6 277.09 L752.44 274.04 L750.13 271.81 L744.14 270.44 L730.33 270.25 L720.95 270.46 L711.4 264.76 L703.27 259.43 L697.26 256.58 L695.85 261.54 L693.7 266.62 L688.02 273.04 L686.27 276.74 L680.26 276.02 L678.48 279.55 L676.7 290.52 L668.52 319.54 L662.45 328.17 L655.12 332.86 L649.09 332.92 L645.11 331.1 L641.42 328.6 L636.4 326.61 L611.13 326.61 L611.13 323.05 L620.79 319.76 L615.85 315.44 L609.68 307.11 L604.88 303.36 L599.29 301.19 L586.12 299.74 L574.18 303.92 L563.87 310.01 L556.36 325.03 L554.58 329.4 L558.04 342.71 L554.71 344.04 L548.9 347.58 L545.55 348.99 L546.74 351.51 L547.54 356.37 L548.66 359.42 L543.77 357.2 L538.85 356.96 L534.09 358.66 L529.66 362.37 L537.7 367.34 L546.19 369.21 L555.08 368.47 L564.29 365.66 L568.92 383.71 L567.53 391.99 L556.35 395.47 L546.82 395 L538.3 393.07 L529.85 388.98 L490.14 353.38 L481.91 343.01 L447.73 323.07 L437.63 319.33 L426.96 317.93 L418.53 321.41 L408.86 327.98 L399.16 328.84 L379.2 323.05 L359.58 319.69 L297.62 323.24 L294.49 322.66 L284.96 316.17 L268.87 308.17 L264.83 305 L262.84 301.37 L258.09 289.05 L257.15 285.15 L255.41 282.1 L247.23 279.17 L244.66 277.09 L243.99 267 L244.81 254.87 L241.96 244.68 L230.33 240.39 L198.62 240.12 L191.33 237.4 L180.5 212.25 L176.89 207 L172.96 204.28 L168.4 201.95 L164.76 200.99 L161.93 198.47 L159.73 192.65 L156.94 181.25 L148.34 163.8 L136.96 157.4 L103.29 158.24 L82.73 154.76 L75.21 154.68 L70.92 158.63 L67.4 160.57 L64.31 159.93 L53.05 155.38 L51.92 154.68 L45.52 153.64 L31.45 149.11 L23.56 148.11 L15.52 146.12 L7.74 140.89 L2.01 133.48 L0 125.07 L2.53 121.08 L9.3 116.27 L12.5 112.24 L13.84 105.91 L13.19 91.38 L14.07 87.27 L17.55 81.56 L17.94 77.93 L19.54 76.03 L26.65 75.44 L31.11 72.52 L34.74 66.87 L39.45 63.03 L47.12 65.58 L51.84 51.93 L65.87 38.99 L82.17 33.57 L93.93 42.56 L100.73 34.51 L107.98 34.36 L116.47 37.49 L126.87 39.55 L156.46 35.91 L166.32 35.96 L171.27 37.81 L174.8 39.1 L179.87 40.38 L185.08 39.55 L189.71 36.26 L190.16 33.1 L190.03 29.41 L192.85 24.43 L203.22 11.13 L207.93 6.71 L216 3.04 L234.5 0 L255.45 0.8 L292.28 8.87 L324.75 15.99 L369.24 16.84 L388.89 21.64 L420.58 24 L432.53 26.94 L441.94 32.67 L456.46 28.9 L479.88 28.96 L503.98 31.69 L520.58 35.96 L522.63 38.12 L524.32 44.09 L526.54 46.15 L529.21 46.16 L531.69 44.99 L533.14 43.46 L532.79 42.56 L553.22 46.15 L555.75 47.67 L563.45 54.48 L565.84 56.01 L580.76 56.52 L596.48 53.87 L604.88 52.44 L610.35 53.81 L619.89 58.32 L625.31 59.31 L652.36 58.15 L657.64 55.35 L665.08 54.43 L671.13 54.91 L676.71 55.85 L679.95 60.04 L678.54 65.16 L678.52 71.66 L683.63 76.32 L699.9 86.6 L714.28 95 L716.63 99.67 L720.88 112.32 L723.6 116.49 L727.97 119.18 L736.29 121.49 L759.96 123.33 L767.81 125.07 L774.53 128.66 L783.23 137.48 L789.93 141.83 L797.69 144.26 L812.88 143.29 L820.83 148.93 L823.37 149.58 L825.66 151.78 L828.47 153.78 L832.25 154.68 L866.58 154.68 L868.98 156.13 L872.57 163.02 L874.23 165.14 L907.89 171.48 L925.38 177.83 L927.61 187.83 L940.6 200.31 L950.69 214.79 Z "/>
</g>
</svg>
