<svg xmlns="http://www.w3.org/2000/svg" viewBox="0 0 1000 626.9">
<g fill="#ccc" stroke="#333" stroke-width="0.5" stroke-linejoin="round">
<path fill-rule="evenodd" d="M681.75 44.55 L745.13 107.23 L947.08 208.3 L941.5 272.29 L961.35 299.21 L984.68 339.19 L1000 357.58 L962.74 391.96 L945.68 434.32 L941.16 488.67 L941.5 561.12 L930.54 626.9 L902.16 626.1 L864.21 598.14 L824.86 581.36 L693.25 578.7 L620.47 546.21 L521.07 444.71 L483.98 419.13 L445.33 402.35 L415.74 402.35 L381.09 439.65 L348.19 499.86 L313.72 581.36 L277.51 569.11 L223.89 510.51 L179.32 491.87 L167.13 501.99 L79.74 539.28 L35.86 540.61 L66.5 399.95 L37.6 252.56 L0 125.1 L3.83 44.55 L54.14 26.41 L114.73 44.55 L195.68 89.36 L253.66 85.1 L298.05 70.69 L339.31 43.49 L386.49 0 L420.26 33.88 L513.58 57.36 L561.98 89.36 L591.05 57.89 L618.04 48.29 Z "/>
</g>
</svg>
