<svg xmlns="http://www.w3.org/2000/svg" viewBox="0 0 1000 1127.18">
<g fill="#ccc" stroke="#333" stroke-width="0.5" stroke-linejoin="round">
<path fill-rule="evenodd" d="M152.53 189.46 L152.66 189.56 L158.11 190.21 L159.08 189.7 L161.8 188.29 L169.44 181.43 L182.1 173.41 L186.07 172.38 L186.11 172.36 L187.55 171.65 L188.91 171.35 L190.1 171.56 L191.07 172.32 L191.05 172.38 L193.17 175.08 L217.92 180.87 L220.11 182.16 L224.08 186.21 L225.22 186.59 L228.2 186.56 L229.08 187.03 L229.44 188.85 L229.13 190.63 L228.39 191.74 L227.53 191.62 L229.63 194.23 L231.65 196.15 L234.05 196.99 L237.39 196.37 L242.77 196.79 L243.84 199.9 L243.15 204.56 L243.31 209.69 L245.48 214.27 L255.86 230.09 L257.14 233.27 L257.19 234.44 L258.02 234.64 L260.79 234.73 L264.09 234.84 L272.61 233.68 L274.06 233.84 L276.44 234.77 L277.82 235.02 L278.96 234.47 L281.58 232.09 L282.77 231.71 L285.27 233.09 L292.77 240.65 L307.62 250.93 L327.85 270.16 L331.25 272.1 L335.8 273.49 L348.77 274.81 L352.51 277.15 L360.91 278.18 L392.42 282.04 L400.72 288.36 L404.72 286 L409.72 286.14 L424.43 290.03 L427.67 290.16 L430.62 289.14 L467.62 263.72 L502.87 240.67 L502.92 240.65 L528.41 224.31 L567.82 198.97 L586.1 187.22 L607.31 173.6 L646.77 148.21 L686.22 122.76 L715.55 103.82 L755.65 78.56 L775.19 66.23 L824.43 35.11 L880.83 0 L891.54 39.3 L901.11 74.6 L909.09 103.82 L919.58 142.78 L930.46 182.98 L945.93 240.1 L928.15 245.71 L927.84 245.81 L927.74 246 L927.84 246.34 L928.15 246.79 L939.38 286 L941.1 290.08 L943.43 291.4 L987.05 279.31 L991.79 282.09 L995.19 290.46 L1000 308.83 L994.12 317.44 L966.42 341.12 L966.47 343.21 L964.13 343.97 L959.66 347.36 L932.31 373.43 L924.34 376.81 L924.34 376.85 L924.32 376.84 L898.16 384.46 L846.37 399.5 L794.63 414.55 L742.87 429.58 L699.38 442.2 L691.08 444.6 L647.54 457.69 L634.03 461.75 L576.98 478.9 L519.94 496.03 L471.73 510.49 L462.89 513.14 L492.85 545.78 L522.82 578.38 L523.26 578.87 L552.78 610.92 L582.74 643.44 L583.46 644.29 L584.2 645.15 L584.91 646.01 L585.65 646.87 L610.9 676.74 L636.17 706.57 L661.47 736.34 L686.72 766.09 L698.12 779.51 L698.2 779.69 L698.1 779.8 L697.89 779.88 L696.34 780.83 L679.49 790.3 L651.67 805.97 L626.65 820.06 L621.32 824.53 L618.32 829.36 L611.57 845.91 L603.28 866.09 L595.67 884.64 L585.43 909.68 L580.48 914.1 L553.35 919.75 L522.53 926.18 L489.66 933.04 L456.53 939.96 L436.04 944.22 L416.07 948.39 L409.74 951.57 L404.25 957.51 L391.51 979.21 L380.92 997.22 L366.57 1021.61 L351.79 1046.7 L334.04 1061.43 L307.26 1083.65 L282.92 1103.85 L257.93 1124.52 L252.02 1126.93 L245.72 1127.18 L221.77 1123.03 L195.24 1118.44 L182.12 1116.16 L154.9 1111.42 L120.72 1105.51 L88.71 1099.95 L52.89 1093.74 L25.55 1088.97 L0 1084.49 L3 1082.35 L4.52 1058.28 L6.15 1051.35 L11.15 1040.52 L10.93 1036.31 L6.15 1031.47 L3 1031.47 L2.81 1030.61 L2.81 1029.9 L2.49 1029.52 L1.43 1029.66 L2.41 1022.46 L4.05 1016.65 L7.12 1011.65 L9.31 1005.04 L10.53 990.14 L12.24 983.53 L22.93 954.55 L23.9 949.16 L24.12 933.02 L25.81 923.99 L26.71 921.7 L27.85 919.64 L28.71 917.29 L28.85 914.09 L31.52 903.6 L41.37 888.78 L45.11 879.83 L45.11 871.43 L40.4 855.13 L40.49 847.52 L42.13 842.93 L44.3 829.04 L45.68 825.7 L47.23 822.96 L48.49 820.09 L48.99 816.38 L48.35 812.59 L45.04 807.18 L43.9 804.44 L43.9 798.02 L47.89 787.16 L48.99 780.79 L58.94 748.05 L72.41 720.56 L72.42 720.51 L74.19 714.15 L75.24 707.38 L76.02 704.36 L77.55 701.12 L79.33 699.02 L83.24 695.5 L84.57 692.95 L85.35 687.02 L85.24 681.01 L85.85 674.94 L88.78 668.87 L91.59 666.15 L97.8 660.13 L100.37 655.26 L100.35 646.83 L101.82 638.96 L112.63 617.51 L113.72 609.85 L112.1 602.5 L108.68 595.78 L106.23 590.37 L104.04 583.45 L102.78 576.07 L105.66 569.52 L108.89 563.86 L109.27 558.04 L107.56 556.09 L111.84 548.33 L115.94 537.48 L116.86 531.36 L116.92 528.66 L117.25 512.98 L117.15 512.89 L117.29 512.99 L117.39 512.91 L117.36 512.66 L117.29 512.22 L118.55 492.19 L122.22 472.57 L127.36 460.6 L133.14 447.15 L140.47 438.95 L135.62 424.33 L135.62 422.31 L138.09 418.94 L132.48 397.23 L133.12 395.03 L134.55 394.23 L136.14 393.77 L137.19 392.52 L137.36 390.36 L136 387.36 L135.62 385.1 L135.48 381.4 L134.98 378.51 L132.48 372.14 L132.05 359.6 L133.31 354.91 L137.19 351.72 L134.76 348.35 L134.91 345.21 L138.76 338.57 L137.55 336.83 L137.55 335.36 L138.59 334.13 L140.47 333.16 L140.47 331.14 L139.5 327.91 L140.51 323.57 L143.5 310.71 L140.47 310.71 L140.86 309.2 L141.47 308.2 L142.35 307.47 L143.5 306.82 L141.66 303.64 L140.81 298.45 L140.88 293.26 L141.9 290.08 L139.81 286.03 L140 277.86 L138.76 275.2 L138.76 273.33 L140.47 273.33 L140.47 275.2 L141.9 275.2 L141.52 272.72 L140.83 270.63 L139.88 268.94 L138.76 267.75 L138.21 266.86 L137.19 263.85 L139.43 263.41 L140.4 262.65 L140.19 261.55 L138.76 260.12 L138.76 258.43 L140.47 258.43 L140.12 257.15 L139.74 256.97 L139.26 257.06 L138.76 256.58 L141.9 254.54 L140.47 252.68 L142.05 251.97 L143.5 250.98 L143.5 248.95 L142.47 248.73 L141.85 248.37 L141.33 247.86 L140.47 247.25 L140.9 245.43 L141.76 243.56 L143.14 242.12 L145.21 241.5 L145.21 239.79 L143.04 237.53 L142.57 236.37 L140.93 233.93 L139.97 233.89 L138.76 234.03 L138.76 232.18 L141.9 232.18 L141.26 230.43 L140.47 224.71 L141.9 226.58 L142.95 223.65 L143.5 222.68 L143.81 223.67 L143.93 224.31 L144.26 224.16 L145.21 222.68 L143.93 219.3 L143.21 212.25 L141.9 209.79 L141.9 207.75 L143.5 207.75 L143.5 206.05 L141.55 204.89 L140.62 202.92 L140.74 200.67 L141.24 199.77 L142.88 199.07 L144.92 197.24 L148.4 192.61 L152.64 189.55 Z "/>
</g>
</svg>
