<svg xmlns="http://www.w3.org/2000/svg" viewBox="0 0 1000 548.81">
<g fill="#ccc" stroke="#333" stroke-width="0.5" stroke-linejoin="round">
<path fill-rule="evenodd" d="M1000 254.53 L996.99 253.65 L996.04 253.13 L994.92 252.87 L991.47 254.26 L990.76 254.19 L989.31 253.72 L988.63 253.78 L988.11 254.21 L987.57 255.53 L987.15 256.14 L986.2 256.96 L985.79 257.43 L985.4 258.07 L985.07 258.84 L984.96 259.42 L985.01 260.06 L985.17 260.98 L985.75 262.23 L986.53 262.99 L986.92 263.71 L986.31 264.88 L985.86 265.43 L985.69 265.78 L985.72 266.21 L986 267.79 L986 268.3 L985.82 268.74 L983.97 271.31 L982.8 272.47 L982.42 272.95 L982.12 273.54 L981.67 274.81 L981.42 275.27 L980.97 275.64 L978.13 276.8 L975.76 276.64 L975.12 276.91 L974.6 277.4 L973.63 278.59 L972.29 279.3 L967.74 278.88 L962.29 279.69 L961.41 280.34 L960.7 281.49 L957.46 289.49 L956.86 293.54 L956.5 294.92 L956.05 295.89 L955.78 296.69 L955.73 297.58 L957.69 308.37 L957.69 309.57 L957.31 312.01 L957.42 313.12 L957.42 313.13 L957.8 314.2 L959.52 317.06 L959.73 317.8 L959.61 318.5 L959.44 319.16 L959.52 319.78 L959.73 320.44 L959.73 321.01 L959.47 322.2 L959.37 322.94 L959.26 323.48 L958.96 323.79 L957.84 323.91 L957.25 324.1 L956.74 324.48 L956.5 325.08 L956.43 325.76 L956.29 326.31 L956.08 326.8 L955.76 327.3 L955.55 327.94 L955.49 328.61 L955.32 329.04 L953.69 329 L950.54 329.49 L949.13 329.31 L948.64 329.41 L948.13 329.69 L947.8 330.07 L947.21 331.16 L946.68 331.69 L945 332.94 L944.29 333.75 L943.97 333.95 L942.87 334.22 L942.51 334.42 L942.11 334.82 L941.56 335.89 L941.05 336.26 L939.19 336.67 L937.41 337.42 L936.73 337.54 L936.25 337.31 L936.14 336.81 L936.36 336.27 L936.71 335.7 L936.98 335.12 L937.03 333.85 L936.54 332.78 L935.74 331.97 L934.87 331.48 L933.71 331.4 L931.38 331.99 L930.27 331.79 L928.95 331.15 L928.56 331.11 L928.16 331.15 L928.14 331.16 L925.13 330.9 L922.52 331.15 L922.51 331.15 L922.5 331.15 L922.49 331.16 L920.93 332.07 L920.33 332.18 L918.61 331.83 L916.31 331.84 L906.98 328.49 L902.79 325.69 L901.83 325.23 L899.58 324.72 L899.09 324.42 L897.82 323.3 L897.24 323.08 L896.57 323 L895.9 323.04 L895.29 323.18 L894.67 323.5 L894.47 323.91 L894.51 325.35 L894.44 325.78 L894.18 326.54 L894.1 326.94 L894.13 327.31 L894.3 328.01 L894.28 328.4 L893.9 329.75 L893.79 330.45 L893.86 331.16 L893.98 331.78 L893.94 332.39 L893.79 332.97 L890.2 340.49 L887.96 349.01 L886.99 351.11 L886.83 351.73 L886.54 353.65 L886.17 354.77 L884.54 357.46 L883.57 359.53 L882.93 361.83 L882.29 366.72 L881.63 369.93 L881.31 370.94 L880.62 372.62 L878.77 375.82 L877.89 379.29 L877.12 381.12 L876.93 382.11 L876.8 382.86 L877.68 384.25 L877.68 384.25 L877.68 384.25 L878.54 384.67 L882.22 385.21 L884.73 386.27 L885.13 386.95 L885.24 388.24 L885.18 389.62 L884.71 392.78 L883.99 395.27 L882.87 397.12 L881.31 397.39 L880.13 396.65 L878.03 394.3 L876.87 393.49 L875.67 393.36 L874.35 393.7 L869.67 396.08 L868.44 396.39 L867.46 395.92 L866.99 395.38 L866.61 395.12 L864.94 394.86 L864.61 394.62 L864.48 394.15 L864.45 393.34 L864.31 392.15 L863.91 390.72 L863.28 389.66 L862.43 389.6 L861.46 389.32 L860.42 389.79 L858.45 391.22 L848.71 394.3 L846.71 395.43 L845.71 395.8 L844.59 395.82 L841.6 397.02 L840.96 397.04 L838.95 396.4 L837.76 396.42 L833.84 397.9 L832.14 397.72 L831.6 397.79 L831.1 398.21 L830.64 399.44 L830.24 399.82 L829.63 399.91 L827.81 399.8 L826.06 400.5 L824.31 400.21 L823.23 400.29 L822.21 400.75 L821.28 401.64 L818.85 403.77 L817.71 404.35 L817.22 404.73 L816.85 405.78 L817.48 406.61 L820.49 408.54 L821.66 408.64 L826.04 407.69 L826.69 407.77 L827.14 407.99 L828.4 409 L832.35 410.54 L832.75 410.8 L832.87 411.25 L832.74 411.7 L832.35 411.98 L830.76 412.36 L829.91 412.75 L829.41 413.39 L829.37 413.77 L829.49 414.08 L829.93 414.68 L830.09 415.11 L830 415.5 L829.62 416.25 L828.97 418.85 L828.78 420.25 L828.85 421.47 L829.83 426.51 L829.83 427.85 L829.17 430.31 L828.99 431.59 L829.14 432.22 L829.5 432.69 L830.3 433.5 L830.58 434.06 L830.73 434.64 L830.79 435.27 L830.8 435.96 L830.8 435.96 L831.05 436.68 L831.46 437.47 L832.35 438.78 L835.25 446.44 L838.14 454.06 L838.08 455.18 L837.69 456.23 L836.43 458.53 L836.82 459.06 L837.73 459.31 L838.7 459.79 L839.02 460.25 L839.2 460.84 L839.28 461.49 L839.3 462.15 L839.43 462.78 L839.99 463.84 L840.12 464.47 L839.98 465.19 L839.63 465.7 L839.14 466 L838.61 466.1 L838.1 465.97 L836.85 465.03 L835.84 464.98 L834.79 465.48 L832.88 466.93 L830.74 467.85 L829.71 468.53 L829.39 469.46 L829.85 470.31 L830.68 471 L832.35 471.82 L833.47 471.98 L833.99 472.27 L834.27 472.86 L834.13 473.55 L833.59 473.88 L832.35 474.03 L830.5 474.73 L830.04 475.12 L828.87 475.6 L828.45 475.65 L827.59 475.41 L827.18 475.38 L826.77 475.63 L826.26 476.47 L825.72 478.47 L825.32 479.45 L824.43 480.82 L824.22 481.34 L824.12 482.07 L824.26 482.59 L824.45 483.11 L824.67 484.41 L824.95 484.93 L825.59 485.87 L825.85 486.46 L825.89 486.86 L825.75 487.28 L825.46 487.94 L825.5 488.32 L826.05 490.96 L826.22 491.49 L826.46 491.97 L826.8 492.45 L827.27 494.84 L827.07 495.55 L826.79 495.93 L825.84 496.44 L824.77 495.8 L824.04 494.81 L823.39 493.67 L822.58 492.59 L820.99 491.14 L820.06 489.75 L819.72 489.35 L818.69 488.66 L813.26 487.49 L812.19 487.45 L810.21 487.83 L807.88 487.68 L806.63 487.16 L805.97 486.25 L804.86 483.58 L804.08 482.76 L802.14 481.84 L801.26 480.95 L800.92 480.34 L800.67 479.71 L800.52 479.04 L800.5 478.27 L800.64 476.98 L800.46 476.65 L799.84 476.47 L798.88 476.66 L796.97 477.63 L796.04 477.6 L795.09 477.22 L793.47 477.13 L791.51 476.31 L788.55 476.01 L788.13 475.79 L787.29 475.08 L786.28 474.49 L783.88 473.64 L782.25 473.47 L781.17 473.55 L780.66 473.75 L779.77 474.32 L779.35 474.48 L778.83 474.45 L777.83 474.08 L777.36 474 L776.22 474.16 L775.11 474.1 L772.48 474.34 L771.39 474.16 L770 473.33 L769.45 473.12 L768.89 473.05 L768.33 473.13 L768.11 473.23 L767.71 473.5 L767.08 473.79 L766.79 473.58 L766.63 473.39 L766.53 473.17 L766.37 472.97 L764.72 472.57 L763.11 472.51 L762.6 472.61 L761.31 473.23 L760.9 473.22 L760.43 472.95 L760 472.6 L759.53 472.34 L758.55 472.35 L757.87 472.11 L757.5 472.08 L757.12 472.17 L756.08 472.68 L755.28 472.91 L752.87 472.5 L752.44 472.5 L752.02 472.49 L751.62 472.39 L751.26 472.09 L750.55 471.1 L750.28 470.86 L749.45 470.55 L746.67 470.08 L746.19 469.87 L745.71 469.95 L744.74 470.34 L743.66 470.35 L743.17 470.43 L742.7 470.77 L742.18 471.39 L741.99 471.5 L741.85 471.51 L741.4 471.42 L741.22 471.46 L741.17 471.59 L741.14 471.74 L741.04 471.86 L740.1 472.37 L739.63 472.48 L738.54 472.46 L737.6 472.88 L737.09 473 L736.45 472.89 L735.18 472.34 L734.53 472.26 L734.07 472.46 L733.34 473.18 L732.9 473.31 L732.67 473.19 L732.39 472.65 L732.14 472.49 L731.85 472.51 L731.36 472.73 L731.1 472.77 L729 472.12 L726.77 472.12 L724.98 471.68 L724.35 471.69 L722.74 472.24 L722.19 472.2 L720.27 471.63 L719.31 471.5 L718.04 471.6 L717.8 471.62 L717.43 471.71 L717.15 471.97 L716.36 474.11 L716.1 474.54 L715.51 475.15 L714.82 475.65 L714.1 475.96 L713.47 475.99 L711.89 475.33 L711.41 475.27 L710.44 475.37 L704.92 474.64 L703.29 474.66 L702.66 474.51 L701.17 473.61 L700.59 473.15 L699.9 472.74 L698.41 472.28 L697.72 471.94 L697.02 471.33 L694.93 470.29 L692.13 469.82 L691.28 469.49 L688.77 467.53 L688.42 467.13 L687.8 466.06 L687.47 465.63 L687 465.36 L686 465.09 L685.13 464.5 L684.1 464.39 L683.61 464.14 L682.34 463.08 L681.64 462.72 L680.83 462.53 L680.13 462.25 L678.89 461.1 L678.18 460.7 L678.84 461.63 L679.1 462.21 L679.04 462.69 L678.63 462.92 L674.78 463.39 L674.33 463.24 L673.44 462.38 L672.95 462.21 L672.21 462.79 L671.39 465.09 L670.48 465.59 L669.46 465.55 L669.04 465.64 L664.84 467.39 L663.68 468.07 L663.3 468.41 L663.02 468.9 L662.09 471.62 L661.59 472.52 L661.39 473 L661.3 473.57 L661.36 474.13 L661.66 475.25 L661.73 475.85 L661.65 476.36 L660.99 477.81 L659.7 480.74 L659.42 481.92 L659.36 483.17 L659.54 484.29 L659.92 485.33 L661.68 488.76 L661.69 488.78 L661.68 489.37 L660.99 489.5 L659.54 488.91 L657.3 488.52 L657.02 488.09 L656.99 487.38 L657.07 486.36 L656.7 485.92 L656.13 485.71 L654.38 485.58 L653.95 485.46 L653.55 485.23 L653.06 484.85 L652.13 484.46 L651.05 484.43 L647.91 484.96 L647.07 484.93 L646.25 484.69 L645.42 484.3 L644.79 483.73 L643.95 482.15 L643.37 481.49 L642.61 481.07 L639.13 480.22 L637.36 480.25 L636.51 480.08 L633.61 478.12 L631.99 477.47 L628.85 477.33 L628.48 477.43 L627.77 477.77 L627.4 477.82 L626.62 477.6 L623.78 476.01 L622.27 475.63 L621.87 475.45 L621.49 475.2 L621.11 475.03 L620.71 475.11 L619.86 475.42 L618.14 475.51 L617.33 475.77 L614.64 477.51 L614.22 477.59 L613.91 477.47 L612.94 476.64 L612.7 476.51 L612.44 476.54 L612.03 476.72 L610.85 476.31 L610.26 476.34 L609.83 476.73 L609.57 477.22 L609.24 477.7 L608.86 478.07 L608.43 478.27 L607.91 478.16 L607.32 477.89 L606.78 477.72 L606.36 477.93 L605.83 478.9 L605.53 479.33 L605.13 479.59 L604.21 479.9 L604 480.24 L603.94 480.94 L603.98 482.25 L603.85 482.75 L603.46 483.14 L601.35 483.48 L600.43 484.04 L600.66 485.29 L600.91 485.61 L601.76 486.37 L601.76 486.37 L601.76 486.37 L601.77 486.37 L601.98 486.75 L601.92 487.14 L601.69 487.47 L601.36 487.65 L600.96 487.61 L599.79 486.86 L599.42 487.21 L599.07 487.77 L598.79 488.42 L598.64 489.06 L598.68 489.42 L598.82 489.64 L598.88 489.87 L598.71 490.26 L597.91 491.24 L597.63 491.51 L597.04 492.07 L596.75 492.58 L596.88 493.08 L597.85 494.05 L598.36 494.33 L599.07 494.5 L598.24 495.18 L597.41 495.86 L596.95 496.1 L596.49 496.34 L596.03 496.41 L595.57 496.47 L595 496.32 L594.43 496.16 L594.14 496.17 L593.85 496.18 L593.67 496.42 L593.5 496.66 L593.4 496.96 L593.3 497.27 L593.17 497.49 L593.04 497.71 L592.7 498.12 L592.35 498.54 L592.06 499.07 L591.78 499.61 L591.56 500.21 L591.33 500.82 L591.07 501.3 L590.81 501.79 L590.43 501.97 L590.05 502.16 L589.75 502.11 L589.46 502.07 L589.21 501.97 L588.95 501.87 L588.76 501.67 L588.57 501.48 L588.49 501.17 L588.4 500.86 L588.31 500.65 L588.22 500.43 L588.03 500.21 L587.83 499.99 L587.61 499.83 L587.38 499.67 L587.2 499.64 L587.02 499.6 L585.83 500.12 L584.63 500.64 L584.11 501.09 L583.58 501.55 L583.28 502.23 L582.98 502.9 L582.89 503.19 L582.8 503.47 L582.64 503.65 L582.49 503.83 L582.29 503.93 L582.09 504.04 L581.87 504.12 L581.64 504.2 L581.43 504.32 L581.22 504.44 L581.05 504.62 L580.87 504.8 L580.04 506.25 L579.21 507.69 L578.9 508.05 L578.59 508.42 L577.57 509.17 L576.55 509.93 L575.87 510.18 L575.19 510.43 L575 510.59 L574.81 510.74 L574.64 510.99 L574.47 511.25 L574.1 511.69 L573.73 512.13 L573.22 512.35 L572.71 512.56 L571.34 512.61 L569.98 512.67 L568.33 513.13 L566.68 513.59 L566.47 513.75 L566.26 513.92 L565.91 514.33 L565.56 514.73 L564.32 515.72 L563.07 516.71 L562.38 516.93 L561.68 517.15 L561.35 517.39 L561.03 517.63 L560.87 518.06 L560.71 518.48 L560.76 518.66 L560.8 518.83 L561 519.21 L561.21 519.58 L561.22 519.75 L561.24 519.92 L561.09 520 L560.95 520.09 L560.22 519.95 L559.5 519.82 L559.31 519.87 L559.13 519.92 L558.66 520.23 L558.18 520.53 L558 520.56 L557.83 520.58 L557.46 520.45 L557.1 520.32 L556.9 520.36 L556.7 520.4 L556.04 520.83 L555.37 521.25 L555.07 521.55 L554.77 521.85 L554.65 522.18 L554.52 522.52 L554.3 522.43 L554.07 522.34 L553.84 522.41 L553.61 522.49 L553.04 522.76 L552.48 523.04 L552.37 523.13 L552.27 523.21 L552.22 523.33 L552.16 523.44 L552.2 523.58 L552.23 523.71 L552.34 523.86 L552.45 524 L552.51 524.04 L552.57 524.09 L552.61 524.15 L552.64 524.2 L552.67 524.39 L552.71 524.59 L552.72 524.86 L552.73 525.12 L552.54 526.67 L552.35 528.22 L552.25 528.41 L552.15 528.6 L551.94 528.8 L551.73 529.01 L551.31 529.3 L550.89 529.59 L550.45 529.81 L550.01 530.03 L549.48 530.09 L548.96 530.16 L548.71 530.25 L548.46 530.33 L548.29 530.54 L548.14 530.75 L547.84 531.28 L547.53 531.81 L546.69 532.18 L545.85 532.55 L545.51 532.93 L545.18 533.31 L544.73 534.61 L544.28 535.91 L544.03 536.21 L543.78 536.52 L543.03 536.85 L542.81 536.95 L542.28 537.18 L541.94 537.41 L541.6 537.65 L541.46 538.03 L541.33 538.41 L541.27 538.37 L541.22 538.34 L541.1 538.29 L540.99 538.25 L540.93 538.22 L540.88 538.18 L540.88 538.36 L540.87 538.54 L540.9 538.9 L540.94 539.27 L540.92 539.42 L540.91 539.58 L540.83 539.76 L540.75 539.94 L540.67 540 L540.59 540.06 L540.52 540.15 L540.45 540.23 L540.41 540.48 L540.36 540.73 L540.48 542.08 L540.61 543.43 L540.69 543.74 L540.77 544.04 L540.87 544.17 L540.97 544.3 L541.09 544.37 L541.21 544.43 L541.52 544.51 L541.83 544.58 L541.82 544.78 L541.8 544.98 L541.85 545.19 L541.89 545.4 L541.97 545.59 L542.06 545.79 L542.16 545.97 L542.27 546.15 L542.24 546.26 L542.22 546.37 L541.92 546.86 L541.62 547.35 L541.86 547.48 L542.09 547.6 L542.02 547.81 L541.94 548.02 L541.68 548.18 L541.42 548.33 L541.1 548.29 L540.77 548.24 L540.28 547.99 L539.79 547.75 L539.65 547.73 L539.51 547.7 L539.39 547.78 L539.28 547.86 L539.21 548 L539.14 548.14 L539.06 548.25 L538.96 548.36 L538.78 548.35 L538.59 548.34 L538.44 548.5 L538.29 548.65 L538.25 548.73 L538.21 548.81 L535.33 547.29 L533.43 546.29 L532.44 545.77 L531.62 545.12 L530.8 544.47 L529.68 543.36 L528.56 542.25 L528.18 542.04 L527.81 541.82 L527.33 541.72 L526.84 541.61 L526.76 541.56 L526.68 541.5 L526.72 541.37 L526.76 541.25 L526.87 541.15 L526.98 541.04 L527.41 540.85 L527.84 540.66 L528.04 540.49 L528.25 540.33 L528.43 540.13 L528.61 539.92 L528.75 539.71 L528.88 539.5 L529.07 539.08 L529.26 538.66 L529.43 538.13 L529.62 537.6 L529.74 537.05 L529.86 536.51 L529.86 536.04 L529.86 535.58 L529.76 535.39 L529.66 535.2 L529.61 535.12 L529.55 535.05 L529.45 534.99 L529.35 534.94 L529.45 534.89 L529.55 534.83 L529.84 534.63 L530.12 534.42 L530.09 534.39 L530.05 534.35 L529.93 534.31 L529.82 534.28 L529.85 534.13 L529.88 533.98 L529.88 533.94 L529.87 533.9 L529.83 533.56 L529.78 533.21 L529.52 533.24 L529.26 533.27 L529.09 533.63 L528.92 533.99 L528.79 533.82 L528.65 533.65 L528.5 533.63 L528.35 533.6 L528.2 533.68 L528.04 533.75 L527.89 533.87 L527.75 533.99 L527.58 533.73 L527.42 533.46 L527.32 532.83 L527.23 532.2 L527.1 531.91 L526.98 531.63 L526.44 530.92 L525.9 530.2 L525.81 530.02 L525.73 529.84 L525.7 529.82 L525.67 529.8 L525.52 529.33 L525.37 528.87 L525.06 529.07 L524.75 529.27 L524.04 529.75 L523.33 530.22 L523.1 530.25 L522.86 530.29 L522.6 530.19 L522.33 530.1 L521.81 529.83 L521.3 529.56 L521.02 529.48 L520.74 529.4 L517.61 529.59 L514.43 529.78 L512.44 529.9 L509.32 530.09 L506.7 530.25 L503.13 530.46 L500.74 530.6 L497.9 530.77 L496.89 530.51 L496.5 530.41 L495.89 530.25 L495.34 529.58 L494.79 528.91 L493.74 524.11 L492.69 519.3 L491.91 515.26 L491.13 511.21 L490.71 507.06 L490.28 502.91 L490.22 502.87 L490.16 502.84 L490.08 502.82 L490 502.8 L489.9 502.79 L489.81 502.79 L489.72 502.8 L489.63 502.82 L486.67 502.8 L484 502.79 L481.31 502.78 L478.36 502.77 L478.26 502.69 L478.15 502.6 L478.12 502.43 L478.1 502.25 L478.19 495.82 L478.26 490.37 L478.28 489.37 L478.35 489.14 L478.42 488.91 L478.71 488.8 L479 488.69 L479.12 488.4 L479.24 488.12 L479.3 487.24 L479.36 486.37 L479.89 478.1 L480.42 469.81 L476.89 471.72 L473.35 473.64 L473.14 473.61 L472.93 473.59 L471.36 470.35 L469.52 466.56 L468.19 463.82 L466.11 459.51 L465.63 459.08 L465.15 458.65 L462.63 457.06 L460.1 455.48 L458.89 454.19 L457.67 452.89 L455.03 449.45 L452.39 446 L451.98 445.63 L451.57 445.27 L451.18 445.2 L450.79 445.14 L450.35 445.31 L449.91 445.48 L447.52 446.81 L445.09 448.16 L442.74 449.47 L440.28 450.84 L439.85 450.97 L439.42 451.09 L438.07 450.97 L434.68 450.66 L431.29 450.35 L427.9 450.04 L424.5 449.73 L420.78 449.39 L417.04 449.05 L413.32 448.71 L409.59 448.37 L407.35 448.74 L405.11 449.1 L402.88 449.47 L400.65 449.83 L398.41 450.19 L396.17 450.56 L393.94 450.92 L391.71 451.29 L390.32 451.54 L388.94 451.8 L387.56 452.06 L386.18 452.31 L385.32 452.47 L384.45 452.63 L383.59 452.79 L382.73 452.95 L380.7 453.32 L380.65 453.33 L380.16 453.12 L379.66 452.9 L377.82 450.79 L376.45 449.21 L375.07 447.62 L373.7 446.03 L372.32 444.44 L370.92 442.82 L369.51 441.19 L368.1 439.56 L366.69 437.94 L364.98 435.95 L363.64 434.5 L362.29 433.04 L359.49 430 L358.05 427.68 L357.81 426.88 L357.65 425.11 L357.49 424.28 L357.05 423.37 L356.42 422.66 L354.89 421.64 L352.74 420.21 L349.82 418.27 L346.25 415.89 L342.16 413.16 L337.68 410.16 L332.92 406.98 L328.02 403.69 L323.11 400.39 L318.3 397.16 L313.72 394.08 L309.51 391.23 L307.91 390.15 L305.78 388.71 L302.66 386.6 L300.27 384.98 L298.75 383.95 L298.21 383.59 L296.33 382.31 L295.67 382.02 L295.09 381.96 L293.11 382.53 L291.64 382.96 L290.16 383.39 L288.68 383.82 L287.21 384.25 L285.79 384.67 L284.38 385.09 L282.96 385.51 L281.55 385.94 L278.49 386.88 L275.43 387.82 L272.37 388.76 L269.31 389.7 L267.01 390.45 L264.72 391.19 L262.42 391.93 L260.12 392.67 L257.83 393.41 L255.53 394.15 L253.24 394.89 L250.94 395.63 L250.44 395.79 L248.65 396.37 L246.36 397.11 L244.06 397.84 L241.77 398.58 L239.47 399.32 L237.17 400.06 L234.88 400.8 L232.59 401.53 L232.58 401.53 L232.58 401.54 L232.58 401.54 L232.58 401.54 L232.57 401.54 L232.57 401.54 L232.57 401.54 L232.57 401.55 L232.56 401.55 L232.56 401.55 L232.56 401.55 L232.56 401.55 L232.55 401.55 L232.55 401.55 L232.55 401.56 L232.55 401.56 L232.55 401.56 L232.54 401.56 L232.54 401.56 L232.54 401.56 L232.54 401.57 L232.53 401.57 L232.53 401.57 L232.53 401.58 L232.53 401.58 L232.53 401.58 L232.53 401.59 L232.53 401.59 L232.53 401.6 L232.52 401.6 L232.52 401.6 L232.52 401.6 L232.52 401.61 L232.52 401.61 L232.52 401.62 L232.52 401.63 L232.52 401.63 L232.52 401.63 L232.52 401.64 L232.53 409.57 L232.53 417.46 L232.54 425.33 L232.54 433.17 L232.54 440.97 L232.55 448.74 L232.55 456.49 L232.55 464.2 L232.56 471.89 L232.56 479.55 L232.57 487.18 L232.57 494.78 L232.57 502.36 L232.58 509.9 L232.58 517.42 L232.59 524.92 L230.91 524.76 L230.09 524.83 L227.91 525.9 L225.63 526.23 L224.19 526.79 L221.1 526.97 L220.34 526.71 L219.66 526.31 L219.15 525.93 L218.74 525.37 L218.05 523.72 L217.75 523.16 L217.37 522.72 L215.83 521.66 L214.98 520.91 L214.22 519.99 L212.67 517.22 L211.08 514.38 L209.97 512.88 L207.43 509.41 L207.17 508.82 L207.04 508.16 L207.08 507.45 L207.18 506.88 L207.18 506.32 L206.94 505.68 L206.36 504.92 L202.23 501.1 L199.32 499.16 L196.86 497.5 L192.73 494.74 L188.93 492.19 L187.15 491.54 L185.31 491.28 L179.44 492.35 L175.69 493.03 L171.38 493.82 L169.76 494.17 L164.36 496.32 L162.98 497.15 L159.15 498.51 L153.91 502.9 L153.91 502.9 L153.9 502.91 L150.64 506.17 L146.91 509.91 L145.9 510.95 L145.85 510.3 L146.05 509.57 L146.98 507.17 L147.21 505.92 L147.05 504.61 L146.79 503.92 L146.48 503.38 L146.24 503.14 L146 502.94 L145.81 502.68 L145.73 502.24 L145.89 501.11 L145.88 500.79 L145.73 500.48 L145.03 499.64 L145.3 499.17 L145.52 498.56 L145.67 497.89 L145.73 497.28 L145.87 496.76 L146.22 496.49 L146.65 496.32 L147.05 496.03 L148.25 493.71 L149.57 491.89 L149.73 491.62 L149.85 491.3 L149.91 490.92 L149.88 490.21 L149.9 489.85 L149.99 489.58 L150.72 488.85 L150.92 488.53 L151 488.26 L151.04 487.69 L151.09 487.42 L151.5 486.09 L151.74 484.87 L151.75 483.68 L151.43 482.41 L150.8 480.98 L150.33 480.22 L149.28 479.55 L149 478.8 L148.99 478.09 L149.25 477.84 L149.42 478.19 L149.61 478.89 L149.89 479.58 L150.34 479.89 L150.56 479.97 L151.43 480.57 L151.55 480.81 L151.59 481.07 L151.63 481.24 L151.76 481.25 L152.1 482.46 L152.35 483.06 L152.58 483.32 L152.85 483.05 L153.12 482.37 L153.33 481.57 L153.42 480.92 L153.21 479.46 L152.64 478.48 L151.75 477.95 L150.59 477.84 L150.49 477.01 L149.24 476.22 L146.71 475.29 L144.29 475.08 L143.94 475.11 L143.63 475.19 L143.34 475.33 L143.04 475.54 L142.9 475.73 L142.63 476.31 L142.52 476.47 L141.87 476.21 L140.24 473.96 L139.33 473.26 L138.75 473.21 L136.61 473.55 L134.98 474.17 L134.09 474.81 L133.54 475 L133.04 474.75 L131.61 473.04 L131.26 472.51 L130.73 471.45 L130.35 470.87 L130.11 470.35 L129.86 469.1 L129.6 468.45 L128.44 467.12 L128.12 466.44 L127.8 466.32 L127.46 466.26 L127.25 466.14 L127.12 465.71 L127.2 465.42 L127.34 465.16 L127.43 464.76 L127.34 464.13 L127.05 463.46 L126.64 463.07 L125.69 463.55 L124.49 463.48 L123.92 463.62 L123.73 463.8 L123.57 464.03 L123.4 464.22 L123.15 464.3 L122.84 464.23 L122.28 463.9 L121.97 463.82 L119.71 464.3 L117.45 464.3 L117.13 463.96 L117.22 463.19 L118.11 460.46 L118.36 459.04 L118.53 454.62 L118.41 453.94 L117.64 452.39 L117.52 452.08 L117.48 451.76 L117.45 451 L117.39 450.7 L117.01 450.24 L116.04 449.52 L115.85 448.96 L115.77 448.47 L115.56 448.41 L115.29 448.54 L115.01 448.6 L114.7 448.53 L114.52 448.46 L114.18 448.16 L113.52 447.24 L111.27 442.49 L111.07 441.9 L110.99 441.3 L110.91 440.98 L110.75 440.69 L110.58 440.44 L110.48 440.25 L110.47 439.91 L110.53 439.18 L110.48 438.86 L110.29 438.48 L109.56 437.81 L109.4 437.53 L109.2 436.9 L108.83 436.31 L108.53 435.65 L108.3 435.35 L108.04 435.2 L107.49 435.04 L107.3 434.87 L107.1 434.41 L107.12 434.11 L107.23 433.82 L107.3 433.37 L107.21 430.52 L107.1 429.82 L106.96 429.28 L106.34 428.4 L105.35 427.69 L103.27 426.71 L94.66 425.11 L93.54 424.59 L93.02 424.25 L92.47 423.75 L92.03 423.12 L91.86 422.38 L92.02 420.84 L92.04 420.09 L91.86 419.44 L92.04 419.19 L91.79 418.57 L91.66 417.44 L91.72 416.32 L92.04 415.67 L92.44 416.67 L92.79 416.22 L93.04 415.26 L93.12 414.73 L93.39 414.55 L93.45 414.13 L93.45 413.66 L93.54 413.3 L93.84 413.06 L94.06 413.14 L94.27 413.37 L94.54 413.56 L98.41 414.32 L99.57 414.26 L100.72 413.84 L101.33 413.84 L101.58 414.38 L101.96 414.49 L104.1 414.5 L104.48 414.89 L104.75 415.03 L105.03 414.85 L105.2 414.5 L105.29 414.24 L105.42 414.08 L105.71 414.03 L106.98 414.08 L107.59 414.21 L108.13 414.5 L109 415.31 L109.73 416.25 L109.97 416.4 L110.57 416.3 L110.82 416.37 L110.98 416.65 L110.91 416.87 L110.72 417.03 L110.48 417.08 L110.88 417.65 L111.52 418.1 L113.51 419.04 L114.21 419.16 L114.93 419.14 L115.67 418.95 L116.22 418.65 L117.52 417.31 L117.58 417.23 L117.62 417.1 L117.7 416.97 L117.86 416.84 L118.03 416.8 L118.62 416.84 L118.99 416.79 L119.67 416.57 L120.04 416.59 L119.85 417.69 L120.56 417.9 L122.23 417.55 L123.87 418.32 L124.42 418.25 L124.75 417.82 L124.63 417.34 L124.28 416.91 L123.92 416.59 L122.44 415.78 L121.45 414.86 L120.88 414.79 L119.71 415.18 L118.52 415.33 L117.85 414.71 L117.02 412.15 L116.44 411.11 L115.62 410.35 L113.66 409.07 L113.41 408.82 L113.24 408.59 L113.05 408.42 L112.18 408.31 L111.92 408.2 L111.81 407.98 L111.54 407.7 L109.99 406.69 L109.78 406.12 L109.72 405.33 L109.86 404.63 L110.23 404.33 L110.45 404.21 L110.55 403.92 L110.56 403.6 L110.48 403.36 L110.21 403.18 L109.87 403.15 L109.59 403.06 L109.47 402.66 L109.71 402.14 L110.27 401.77 L110.91 401.55 L111.4 401.47 L112.01 401.56 L112.3 401.51 L112.65 401.24 L112.82 401.01 L113.1 400.53 L113.33 400.29 L114.38 399.55 L114.98 399.25 L115.51 399.13 L115.93 399.41 L116.37 399.99 L116.85 400.5 L117.39 400.55 L117.6 400.1 L117.43 399.43 L117.09 398.75 L116.77 398.27 L116.66 397.9 L116.77 397.49 L116.93 397.08 L117.02 396.74 L116.98 396.51 L116.78 395.97 L116.69 395.79 L116.85 395.32 L117.15 394.72 L117.89 393.58 L118.04 393.04 L118.27 392.47 L120.43 389.85 L120.65 389.3 L120.73 388.52 L120.88 387.86 L121.23 388.17 L121.88 389.34 L122.8 389.78 L124.01 389.77 L125.22 389.43 L126.08 388.86 L126.83 388.02 L127.05 387.87 L127.6 387.9 L127.84 387.78 L128.2 387.17 L128.49 386.48 L128.81 385.87 L129.27 385.51 L129.56 385.84 L129.83 386.31 L130.03 386.83 L130.11 387.32 L132.21 387.67 L132.6 387.82 L133.26 388.49 L133.72 388.64 L134.15 388.49 L134.94 387.82 L135.4 387.67 L135.95 387.75 L136.95 388.08 L137.49 388.15 L145.05 387.18 L146.1 387.49 L147.9 387.2 L149.06 387.48 L153.19 389.32 L155.63 389.71 L156.85 390.35 L157.46 390.55 L159.72 390.29 L160.37 390.42 L161.71 390.93 L162.32 391 L162.83 390.82 L163.85 390.21 L164.43 390.07 L164.58 390 L164.87 389.66 L165.01 389.58 L165.61 389.76 L165.68 389.81 L165.84 389.7 L166.06 389.5 L166.21 389.22 L166.18 388.86 L165.73 388.56 L163.17 388.06 L162.96 387.87 L162.82 387.63 L162.65 387.43 L162.41 387.29 L161.67 387.2 L160.54 386.85 L157.46 385.29 L156.85 385.15 L156.63 385.02 L156.17 384.41 L156 384.22 L155.77 384.11 L154.87 383.98 L153.68 383.43 L153.26 383.12 L153.39 382.68 L153.25 382.38 L153.11 382.12 L153.17 381.82 L153.37 381.45 L153.38 381.19 L153.31 380.95 L153.26 380.62 L153.3 379.79 L153.44 379.15 L153.72 378.73 L154.18 378.59 L154.58 378.32 L154.87 377.69 L155.27 376.41 L156.21 374.74 L156.62 374.25 L156.88 374.08 L157.49 373.84 L157.71 373.64 L158.55 372.44 L158.87 371.83 L159.34 370.48 L159.72 369.78 L160.43 369.03 L160.65 368.71 L160.76 368.41 L160.99 367.63 L161.15 367.25 L161.67 366.29 L161.79 365.75 L161.67 365.1 L161.67 365.32 L161.55 364.79 L161.68 364.33 L162.24 363.51 L162.45 363.02 L162.57 362.44 L162.79 360 L163.51 356.85 L163.51 354.39 L162.81 352.54 L161.7 351.08 L160.47 349.81 L160.97 349.88 L161.7 350.54 L162.17 350.78 L162.17 350.51 L161.73 350.19 L161.52 349.64 L161.51 348.98 L161.67 348.33 L161.22 348.56 L160.67 349.12 L160.1 349.53 L159.63 349.32 L159.58 348.6 L159.9 347.64 L160.65 346.14 L160.69 346.8 L161 347.15 L161.43 347.18 L161.82 346.87 L162.01 346.34 L162.12 345.03 L162.32 344.44 L162.55 345.16 L162.75 344.97 L162.94 344.4 L163.15 343.95 L163.39 343.87 L163.95 343.96 L164.18 343.95 L164.46 343.79 L164.58 343.67 L164.68 343.22 L164.75 341.82 L164.27 341 L163.51 340.61 L162.75 340.52 L162.26 340.31 L162.1 339.82 L162.17 338.67 L161.71 336.17 L161.25 335.23 L161.15 334.77 L160.94 334.55 L159.89 334.68 L159.48 334.65 L159.03 334.19 L158.09 332.74 L157.71 332.43 L156.61 332.46 L154.35 332.92 L152.99 332.7 L150.24 332.7 L149.64 332.54 L149.18 332.26 L148.33 331.31 L147.9 331.11 L146.35 330.86 L145.88 330.94 L145.65 331.26 L145.55 331.66 L145.54 332.56 L145.45 332.91 L144.34 334.36 L143.93 334.72 L141.61 335.56 L140.94 335.61 L140.13 335.01 L139.81 335.07 L139.61 335.37 L139.66 335.86 L139.82 335.97 L140.47 336.22 L140.68 336.34 L140.83 336.57 L141 336.91 L141.13 337.31 L141.18 337.71 L141.04 337.83 L137.94 337.62 L137.34 337.32 L137.1 337.15 L136.94 337 L136.86 336.73 L136.84 336.23 L136.7 336.28 L136.4 336.04 L135.61 335.18 L135.36 335.03 L135.19 334.83 L135.13 334.39 L135.27 334.15 L135.54 333.87 L135.74 333.55 L135.65 333.16 L135.16 333.02 L134.73 333.65 L134.22 335 L133.75 335.21 L132.97 335.17 L132.17 334.96 L131.61 334.65 L132.38 333.61 L132.63 333.39 L132.1 333.21 L131.5 333.48 L130.44 334.17 L129.92 334.16 L129.4 333.93 L128.92 333.53 L128.52 333.04 L127.58 332.29 L127.25 331.67 L127.74 330.14 L127.69 329.41 L127.36 328.86 L126.75 328.75 L126.27 329.15 L126.05 329.85 L125.91 330.64 L125.66 331.31 L125.2 331.36 L124.71 330.73 L124.07 329.47 L123.61 329 L123.01 328.7 L121.42 328.42 L120.05 327.9 L116.91 327.2 L115.91 326.56 L115.28 326.7 L114.18 327.5 L113.22 328.01 L109.99 328.75 L109.53 329.03 L108.81 330.01 L108.39 330.22 L108.03 330.1 L107.48 329.58 L107.21 329.47 L106.95 329.58 L106.8 329.85 L106.77 330.1 L106.88 330.22 L106.74 330.55 L104.77 333.93 L104.35 334.27 L104.1 333.65 L104.19 333.24 L104.66 332.52 L104.77 332.05 L104.63 331.81 L104.33 332.01 L103.45 332.96 L102.83 333.32 L102.17 333.48 L101.67 333.28 L101.3 333.21 L101.16 333.94 L101.08 335.63 L100.88 336.19 L100.55 336.74 L100.15 337.03 L99.73 336.83 L100.17 336.2 L100.44 335.65 L100.37 335.27 L99.82 335.12 L98.98 335.4 L98.81 335.5 L98.53 335.8 L98.31 335.72 L98.12 335.49 L97.32 334.79 L97.07 334.65 L96.86 334.6 L96.75 334.61 L96.63 334.75 L96.4 335.12 L95.61 337.43 L95.21 337.83 L95.33 337.38 L95.38 336.12 L95.06 336.41 L94.86 336.82 L94.72 337.25 L94.54 337.59 L94.37 337.68 L93.91 337.74 L93.71 337.83 L93.53 338 L93.42 338.15 L92.38 340.13 L91.88 340.71 L91.44 340.64 L91.44 340.3 L91.6 339.85 L91.68 339.46 L91.44 339.3 L91.13 339.39 L90.35 339.89 L88.16 342.22 L87.46 343.44 L87.05 343.96 L86.57 344.17 L85.65 344.06 L85.31 344.17 L85.07 344.37 L84.68 344.93 L84.47 345.17 L83.61 345.54 L83.34 346.07 L83 346.08 L82.3 345.9 L81.95 346.23 L81.89 346.87 L81.75 347.33 L81.12 347.09 L80.82 346.57 L80.62 346.38 L80.37 346.51 L80.37 347.29 L80.28 347.64 L80.03 347.48 L79.53 346.83 L79.21 346.58 L78.94 346.63 L78.9 346.9 L78.98 347.8 L78.94 348.08 L77.35 346.02 L76.98 345.82 L76.91 346.5 L77.08 348.08 L76.63 347.81 L76.37 348.02 L76.18 348.44 L75.91 348.81 L75.71 347.99 L75.4 347.55 L73.93 346.89 L73.51 346.61 L73.24 346.15 L73.22 345.41 L73.23 346.54 L73.3 347.11 L73.64 347.54 L73.9 348.45 L74.08 348.81 L73.8 348.79 L73.38 348.59 L73.14 348.55 L72.92 348.43 L72.94 348.16 L73.04 347.84 L73.06 347.6 L72.96 347.46 L72.47 346.98 L72.24 346.82 L72.11 346.97 L72.06 347.22 L72.05 347.36 L71.27 347.2 L70.4 346.87 L69.65 346.35 L69.21 345.65 L69.4 346.56 L71.01 348.41 L71.39 349.54 L70.91 349.34 L70 349.29 L69.9 349.32 L69.55 348.87 L69.32 348.33 L69.03 347.93 L68.55 347.86 L68.55 348.08 L68.95 348.49 L69.02 349.24 L69.17 349.96 L69.8 350.29 L70.72 351.26 L70.82 351.58 L70.86 351.95 L70.83 352.35 L70.72 352.71 L69.71 351.96 L69.24 351.48 L68.88 351 L68.54 350.41 L68.26 350.05 L67.87 349.86 L67.21 349.81 L67.48 350.02 L67.69 350.24 L67.83 350.58 L67.88 351.13 L67.99 351.47 L68.88 352.45 L68.79 352.51 L68.55 352.71 L68.2 352.46 L66.26 351.83 L65.99 351.84 L65.86 351.99 L65.91 352.36 L66.11 352.58 L66.36 352.69 L66.62 352.71 L67.02 353.02 L67.18 353.7 L67.22 354.37 L67.28 354.68 L67.3 354.88 L67.3 354.88 L62.55 352.15 L60.76 350.72 L59.73 349.68 L59.22 349.4 L58.52 349.4 L57.92 349.53 L57.32 349.51 L55.83 348.3 L55.2 347.56 L54.52 346.98 L53.54 346.74 L51.29 346.7 L50.46 346.35 L51.04 345.52 L50.64 345.24 L50.52 344.74 L50.46 344.21 L50.23 343.85 L49.34 343.3 L48.86 343.1 L48.4 343.04 L48.98 342.23 L49.64 340.48 L50.89 339.44 L52.39 339.13 L53.82 339.57 L54.33 340.03 L54.7 340.62 L55.36 341.98 L55.96 342.26 L59.7 341.55 L60.47 340.93 L61.89 339.18 L54.33 327.28 L50.63 317.6 L50.37 316.73 L50.11 316.12 L49.75 315.86 L48.84 315.75 L47.97 315.43 L47.32 314.84 L46.09 313.13 L46.08 313.12 L41.52 305.14 L40.01 303.84 L38.34 303.07 L28.68 303.22 L23.43 300.71 L22.86 300.66 L22.42 300.99 L22.29 301.53 L22.31 303.73 L22.15 305.41 L21.94 306.12 L21.58 306.21 L17.04 303.04 L16.21 302.24 L15.8 301.67 L15.7 301.25 L15.84 300.8 L16.16 300.16 L16.33 299.93 L16.49 299.81 L16.61 299.66 L16.66 299.36 L16.58 299.14 L15.75 297.76 L14.03 295.59 L13.86 295.17 L14.2 294.87 L16.13 293.67 L17.14 292.77 L17.47 292.04 L17.03 291.58 L15.7 291.43 L15.31 290.96 L15.32 290.3 L15.5 289.67 L15.62 289.03 L15.44 288.29 L15.29 288.06 L14.74 287.48 L14.62 287.14 L14.77 286.9 L15.03 286.7 L15.19 286.5 L15.52 285.81 L15.52 285.78 L15.51 285.46 L15.19 284.93 L14.69 284.56 L12.26 283.88 L6.14 281.74 L0.03 279.59 L0.01 279.59 L0 279.58 L0.01 279.56 L0.03 279.53 L3.47 270 L6.75 260.92 L7.34 260.1 L8.19 259.44 L10.03 258.44 L10.59 257.98 L11.06 257.56 L12.26 255.95 L13.28 254.1 L13.75 252.1 L13.47 250.18 L12.26 248.58 L8.63 245.8 L7.27 245.26 L8.79 236.08 L10.32 226.85 L10.88 225.29 L11.76 224.42 L17.12 222.03 L18.79 220.31 L20.33 218.31 L20.82 217.23 L20.79 215.85 L19.46 213.97 L19.26 212.9 L19.54 212.39 L20.43 211.52 L20.66 210.95 L20.53 210.36 L20.2 209.95 L19.99 209.49 L20.26 208.75 L20.68 208.38 L22.38 207.66 L22.72 207.24 L23.41 205.62 L23.52 205.36 L24.27 204.26 L25.3 203.3 L26.41 202.7 L27.45 202.69 L28.07 203.15 L29.67 205.24 L30.77 205.87 L31.11 206.24 L31.39 206.74 L31.55 207.13 L31.78 207.41 L32.26 207.6 L32.56 207.79 L33.69 209.13 L34.17 209.84 L35.14 210.7 L36.12 212.19 L37.09 213.08 L37.26 213.54 L37.38 214.06 L37.56 214.59 L37.86 215.01 L39.08 216 L39.61 217.02 L39.85 218.09 L40.01 219.18 L40.32 220.28 L40.49 220.64 L40.74 221.39 L40.91 221.73 L41.19 222.05 L42.16 222.87 L42.64 223.76 L42.82 224.6 L43.11 225.16 L43.96 225.22 L44.67 225.08 L44.9 225.2 L46.06 226.33 L47.48 227.17 L47.78 227.25 L48.1 227.05 L48.66 226.26 L48.98 225.98 L53.99 223.99 L56.46 222.55 L58.36 220.29 L58.76 219.63 L58.94 219.26 L58.94 218.86 L58.66 217.35 L58.45 216.73 L58.11 216.31 L56.42 215.77 L56.38 214.77 L56.57 213.41 L56.13 211.96 L55.1 209.88 L54.42 207.23 L53.77 201.7 L53.87 199 L53.74 197.81 L53.13 196.96 L51.88 196.71 L51.28 196.37 L51.17 195.61 L51.55 195.1 L52.16 195.17 L55.36 197.11 L56.5 197.38 L57.59 197.17 L62.05 193.8 L64.25 190.91 L65.26 190 L68.68 189.14 L70.78 188.25 L71.74 187.42 L72.11 186.11 L71.67 184.88 L70.83 183.88 L70.24 182.91 L70.53 181.81 L71.12 180.77 L71.35 180.19 L71.56 178.91 L71.79 178.19 L72.1 177.55 L72.43 177.15 L73 177 L74.95 177.6 L80.81 177.54 L81.22 177.26 L82.37 175.65 L85.9 172.56 L86.92 172.05 L91.3 171.15 L94.19 169.68 L94.6 169.32 L94.76 168.93 L94.73 168.43 L94.55 167.74 L94.49 166.99 L94.71 166.63 L95.08 166.39 L95.43 166.01 L95.35 165.85 L95.14 165.62 L95.02 165.37 L95.22 165.15 L95.52 165.06 L96.97 164.99 L97.42 164.84 L97.75 164.48 L97.95 163.79 L98.53 163.69 L98.91 163.55 L99.13 163.14 L99.23 162.25 L99 159.97 L99.08 159.39 L99.51 158.92 L99.98 158.79 L100.32 158.49 L100.36 157.5 L100.46 156.64 L100.91 156.66 L101.87 157.39 L103.01 157.41 L103.22 157.59 L102.75 158.25 L102.35 158.97 L102.65 159.31 L103.27 159.39 L103.85 159.31 L104.93 158.87 L105.58 158.14 L105.67 157.01 L104.52 153.73 L104.44 152.41 L105 151.74 L106.32 152.01 L106.77 152.28 L107.22 152.69 L107.61 153.22 L107.87 153.86 L108.27 154.59 L108.88 154.89 L114.86 155.29 L115.36 155.11 L115.91 154.8 L116.43 154.66 L116.87 154.93 L117.47 155.99 L117.76 156.34 L118.26 156.57 L119.33 156.6 L119.81 156.86 L120.05 157.64 L120.03 158.54 L119.84 159.15 L119.49 159.55 L119.01 159.8 L116.62 160.25 L116.49 160.55 L116.77 161.14 L117.16 161.77 L117.39 162.25 L117.39 162.26 L118.15 163.08 L119.99 163.26 L122.01 162.94 L123.31 162.25 L123.73 161.64 L124.04 161.02 L124.41 160.61 L125.01 160.59 L125.64 160.88 L125.89 161.23 L125.96 161.8 L125.99 162.71 L126.55 163.88 L127.68 163.77 L128.93 163.01 L129.86 162.25 L129.87 160.79 L129.5 159.49 L129.43 158.29 L130.78 156.73 L131.53 155.6 L131.98 155.15 L132.66 154.88 L133.34 154.94 L134.02 155.23 L134.66 155.65 L135.3 155.87 L136.05 155.96 L136.8 155.92 L137.43 155.71 L137.9 155.26 L138.45 154 L138.81 153.45 L139.45 153.09 L140.82 153.2 L141.51 153.13 L142.03 152.69 L142.34 151.49 L142.72 151.14 L143.38 151.56 L143.81 152.89 L144.11 154.47 L144.43 155.66 L146.07 158.81 L146.75 161.38 L146.91 161.77 L147.19 162.26 L147.57 162.8 L148.04 163.24 L148.55 163.56 L148.74 163.62 L149.26 163.26 L151.43 163.4 L151.55 163.73 L151.83 163.58 L152.14 163.21 L152.35 162.88 L152.56 162.67 L152.85 162.55 L153.44 162.48 L153.61 162.34 L153.73 162.05 L153.91 161.76 L154.28 161.65 L154.52 161.78 L155.04 162.33 L155.28 162.48 L156.64 162.36 L157.14 162.55 L156.8 163.26 L157.3 163.34 L157.93 163.72 L158.3 163.82 L158.68 163.7 L159.01 163.4 L159.32 163.04 L159.64 162.75 L160.58 162.37 L163.52 162.48 L163.31 161.78 L163.42 161.47 L163.73 161.39 L164.1 161.4 L164.33 161.48 L164.45 161.65 L164.53 161.87 L164.69 162.08 L164.91 162.17 L165.07 162.11 L165.2 161.99 L165.35 161.94 L167.19 162.21 L167.56 162.15 L168.15 161.85 L168.65 162.22 L168.71 162.21 L169.64 162.59 L169.93 162.95 L170.43 163.89 L170.77 164.25 L173.27 165.29 L174.3 166.01 L174.61 166.35 L174.8 166.99 L174.59 167.3 L173.73 167.73 L174.19 168.28 L174.19 168.93 L174.08 169.61 L174.21 170.23 L175.04 171.08 L175.4 171.56 L175.57 172.27 L176.17 172.95 L180.67 174.33 L181.92 174.1 L182.58 174.29 L183.53 175.04 L184 175.55 L184.58 176.89 L185.13 177.22 L186.4 177.43 L186.88 177.79 L187.09 178.36 L187.33 179.88 L187.54 180.41 L187.72 180.76 L187.8 181.15 L187.71 181.81 L188.47 182.77 L188.9 183.15 L189.87 183.74 L190.21 184.21 L190.52 184.73 L190.9 185.24 L191.5 185.61 L193.48 185.98 L193.74 186.17 L194.19 186.62 L194.42 186.79 L195.52 187.04 L195.87 187.21 L196.05 187.54 L196.09 187.91 L196.03 188.3 L195.87 188.68 L194.48 190.5 L194.3 191.28 L194.25 193 L194.12 193.74 L193.58 195.5 L193.45 196.27 L193.54 197.02 L193.93 197.84 L194.82 199.04 L195.31 199.5 L195.87 199.87 L196.38 199.98 L197.51 199.7 L197.63 199.66 L198.63 199.24 L200 198.05 L200.71 196.92 L200.64 195.69 L199.8 192.89 L199.79 192.07 L200.09 190.62 L200.07 189.82 L199.95 189.57 L199.58 189.15 L199.5 188.84 L199.57 188.5 L199.97 187.83 L200.11 187.5 L199.78 185.96 L198.44 185.19 L197.03 184.77 L196.46 184.31 L196.78 183.96 L197.24 183.72 L197.52 183.34 L197.01 181.87 L197.22 181.4 L197.68 181.13 L199.78 180.45 L200.36 180.44 L200.94 180.61 L201.46 180.89 L202.42 181.8 L204.02 182.6 L204.5 183.11 L205.24 184.09 L206.04 184.93 L209.8 186.02 L210.18 186.88 L210.14 188.41 L210.69 189.41 L216.11 194.51 L216.7 194.89 L217.15 195.04 L217.59 194.99 L218.82 194.65 L219.46 194.64 L220.08 194.82 L220.66 195.25 L221.01 195.85 L221.21 196.48 L221.47 196.99 L222.6 197.47 L222.98 197.85 L223.73 198.95 L224.79 199.71 L225.63 199.38 L227.36 197.53 L231.46 195.22 L235.05 192.2 L235.57 191.31 L236.48 186.62 L236.73 185.71 L236.99 185.2 L237.4 185.07 L239.44 186.01 L240.18 186.17 L240.84 186.04 L241.33 185.57 L241.53 184.97 L241.7 183.55 L242.05 183.16 L243.3 182.98 L243.69 182.45 L243.69 181.92 L243.41 180.8 L243.43 180.22 L243.66 179.76 L244.05 179.32 L244.83 178.68 L245.55 178.94 L247.72 182.15 L248.21 182.37 L249.97 182.72 L250.44 182.67 L250.49 182.24 L250.32 181.59 L249.82 180.34 L249.77 179.59 L250.12 179.05 L250.65 178.7 L251.12 178.5 L251.72 178.4 L252.12 178.57 L253.03 179.3 L253.65 179.52 L254.29 179.51 L254.94 179.32 L255.54 179.03 L256.15 178.86 L258.21 179.08 L259.37 178.81 L260.98 177.79 L261.38 177.63 L261.72 177.87 L262.04 178.66 L262.25 180.17 L262.43 180.85 L262.83 181.13 L263.4 181.15 L263.87 181.29 L264.28 181.62 L264.66 182.25 L264.88 182.89 L265.19 184.27 L265.41 184.9 L265.78 185.51 L266.23 185.95 L267.83 186.87 L268.44 187.05 L269.05 187.02 L269.63 186.7 L270.06 186.14 L270.33 185.54 L270.64 185.02 L271.21 184.68 L272.19 184.8 L274.47 185.54 L275.28 185.07 L275.65 183.92 L275.66 182.66 L275.43 180.08 L275.58 178.65 L276.03 177.73 L276.42 176.86 L277.09 176.72 L278.21 177.4 L278.6 177.5 L279.93 177.5 L280.25 177.64 L280.47 177.86 L280.86 178.44 L281.11 178.51 L281.8 178.12 L282.12 178.03 L283.97 177.71 L284.14 177.76 L284.25 177.94 L284.28 178.19 L284.27 178.42 L284.31 178.56 L284.86 178.99 L285.52 179.32 L286.18 179.38 L286.75 178.97 L287.03 178.27 L287.26 177.44 L287.56 176.73 L288.09 176.43 L288.64 176.28 L289.63 175.68 L290 175.99 L290.74 176.77 L291.04 177.28 L291.12 177.82 L291.16 178.33 L291.33 178.77 L291.82 179.04 L294.82 179.11 L295.88 179.61 L296.65 180.61 L296.83 182.25 L296.68 182.98 L296.41 183.55 L296.06 184.01 L295.65 184.42 L295.46 184.95 L295.55 185.67 L295.79 186.37 L296.07 186.83 L296.54 186.92 L297.77 186.83 L298.02 187.22 L297.84 188.72 L297.91 189.24 L298.35 189.68 L298.97 189.74 L299.7 189.54 L300.39 189.48 L300.89 189.96 L301.3 191.23 L301.52 191.7 L301.95 192.17 L303.79 193.58 L304.75 194 L311.4 194.6 L311.93 194.77 L312.33 195.3 L312.61 195.88 L312.91 196.23 L313.25 196.4 L313.68 196.42 L316.02 195.85 L317.28 195.82 L318.27 196.46 L318.76 197.03 L320.05 197.56 L320.36 197.8 L320.28 198.8 L319.67 199.08 L318.27 198.85 L317.62 199.44 L317.6 200.01 L317.98 200.59 L319.36 201.85 L320.15 201.47 L320.95 200.63 L321.8 199.94 L323.04 199.73 L324.32 199.81 L325.53 199.57 L326.53 198.45 L327.6 196.15 L327.91 195.63 L328.69 194.69 L328.97 194.17 L329.08 193.51 L328.94 192.15 L328.96 191.38 L329.09 190.72 L330.12 188.14 L330.29 187.84 L330.51 187.59 L331.57 187.19 L333.08 187.07 L334.38 187.56 L334.77 188.99 L334.84 190.41 L335.37 191.53 L336.17 192.39 L337.05 193.08 L338.4 193.75 L348.64 194.99 L351.08 194.59 L357.86 192.28 L364.64 189.97 L365.42 189.19 L365.98 188.01 L366.34 186.38 L366.71 182.88 L366.92 181.81 L368.09 175.31 L368.61 173.49 L369.42 172.4 L370.49 171.8 L371.78 171.44 L371.35 171.26 L370.05 170.68 L369.31 169.99 L368.72 168.91 L367.73 165.87 L367.23 165.06 L367.13 164.88 L366.24 164.63 L365.17 163.94 L364.25 163.55 L363.9 163.6 L363.32 163.8 L362.99 163.82 L362.66 163.73 L361.82 163.26 L361.23 163.12 L359.54 163.26 L358.99 163.18 L358.02 162.83 L357.52 162.75 L356.72 162.8 L356.46 162.75 L356.25 162.65 L356.1 162.54 L355.99 162.41 L355.9 162.28 L355.79 162.11 L355.62 161.94 L354.82 161.35 L354.52 160.99 L354.17 160.22 L354 159.73 L353.92 159.38 L353.9 158.09 L354 157.59 L353.6 157.58 L343.66 157.32 L343.43 157.25 L343.28 156.96 L343.25 156.56 L343.17 156.21 L342.91 156.02 L340.25 155.56 L339.74 155.21 L339.76 154.39 L340.14 153.88 L341.29 153.32 L341.75 152.96 L341.85 152.65 L341.82 151.95 L341.96 151.71 L342.45 151.35 L342.69 151.07 L342.79 150.75 L342.11 149.91 L337.77 148.83 L335.26 146.94 L334.43 146.61 L334.14 146.99 L333.93 147.61 L333.3 147.96 L332.53 147.8 L332.03 147.31 L330.91 144.73 L330.7 144.09 L330.73 143.43 L331.12 142.49 L331.77 142.49 L336.01 142.48 L339.56 138.63 L341.47 137.03 L343.45 136.15 L344.82 136.21 L346.18 136.5 L347.5 136.44 L348.74 135.44 L349.72 133.81 L350.17 133.4 L352.51 132.39 L353 132.04 L354.24 130.63 L354.69 130.24 L355.74 129.62 L356.51 128.82 L354.99 126.71 L354.58 126.14 L354.45 125.42 L354.34 123.76 L354.17 123.04 L353.97 122.66 L353.67 122.45 L351.4 121.67 L351 121.32 L350.88 120.65 L350.98 118.74 L350.96 117.95 L350.84 117.32 L350.71 117.05 L350.46 117.01 L349.2 117.15 L348.78 117.11 L348.47 116.87 L348.33 116.54 L348.28 116.27 L348.18 116.04 L347.86 115.83 L347.62 115.61 L347.51 115.26 L347.5 114.84 L347.54 114.38 L348.09 112.72 L349.13 112.08 L350.32 111.79 L351.34 111.24 L351.69 110.74 L352.27 109.6 L352.71 109.07 L356.96 105.14 L354.93 103.18 L354.91 103.14 L354.93 103.13 L356.81 103.12 L357.7 102.87 L358.52 102.28 L358.52 102.28 L358.53 102.27 L358.53 102.27 L359.34 101.58 L360.19 101.44 L361.03 101.71 L361.86 102.27 L362.56 102.58 L363.32 102.69 L364.08 102.59 L364.75 102.27 L365.92 101.27 L366.5 101.1 L367.23 101.47 L368.13 102.28 L369.59 103.77 L370.35 104.08 L371.11 103.6 L371.59 103.16 L372.06 103.05 L373.1 103.2 L375.6 102.86 L376.5 103.19 L378.11 104.49 L379.01 104.62 L380.86 103.9 L381.79 103.21 L382.32 102.28 L382.32 102.27 L382.79 100.27 L382.85 99.34 L382.66 98.37 L382.05 97.36 L381.25 96.89 L375.97 95.82 L374.24 95.07 L372.79 93.68 L371.79 92.23 L371.27 92.05 L368.93 93.35 L368.12 93.46 L367.23 93.2 L364.83 91.29 L363.97 90.95 L361.64 90.97 L360.5 90.69 L359.51 89.76 L359.02 88.78 L358.8 87.75 L358.89 86.73 L359.35 85.76 L360.45 84.14 L360.67 83.58 L360.77 83.08 L360.87 81.82 L361.29 81.39 L361.92 81.24 L362.57 81.38 L363.05 81.82 L363.57 82.72 L364.18 83.58 L364.87 84.14 L365.62 84.16 L366.23 83.72 L367.49 82.37 L368.13 81.82 L369.12 81.28 L368.46 78.56 L368.18 77.98 L367.84 77.85 L365.08 77.87 L364.37 78.11 L363.27 79.65 L362.4 79.77 L358.96 78.93 L358.5 78.64 L358.33 78.37 L358.06 77.7 L357.89 77.43 L356.67 77.04 L353.26 76.83 L352.6 76.04 L353.2 75.04 L355.71 75.92 L356.57 75.15 L356.63 74.64 L356.6 74.12 L356.62 73.62 L356.81 73.13 L357.19 72.89 L358.14 72.75 L358.36 72.29 L358.65 71.31 L359.24 70.56 L359.9 69.92 L360.4 69.24 L360.47 68.31 L359.87 67.76 L359.02 67.39 L358.34 66.95 L357.86 66.21 L357.61 66 L357.13 65.87 L355.52 65.83 L354.99 65.7 L354.83 65.26 L354.78 64.8 L354.84 64.31 L354.99 63.86 L355.43 63.25 L355.95 62.94 L357.09 62.67 L357.89 62.63 L359.08 62.89 L359.25 63.08 L359.34 63.38 L359.52 63.79 L359.84 64.29 L360.25 64.68 L360.69 64.65 L361.09 63.9 L361.17 63.18 L361.04 62.47 L360.54 61.12 L360.46 60.88 L360.27 60.05 L361.64 59.95 L362.26 59.62 L362.71 58.89 L363.16 58.32 L363.8 58.18 L365.75 58.48 L366.13 58.83 L366.84 60.35 L367.24 60.69 L369.06 61.12 L369.14 62.44 L369.33 62.82 L369.77 62.99 L370.23 62.88 L370.49 62.5 L370.62 61.89 L370.71 61.12 L373.04 61.12 L373.36 61.43 L373.7 61.58 L374.01 61.51 L374.55 60.82 L374.9 60.78 L375.27 60.92 L375.62 61.12 L375.8 61.93 L375.85 62.46 L376 62.85 L376.49 63.2 L377.36 63.47 L380.1 63.64 L380.09 61.13 L380.07 60.88 L380.07 60.09 L390.11 59.7 L390.62 59.78 L390.93 60.21 L390.88 61.13 L390.88 61.13 L389.79 61.87 L389.48 62.42 L389.56 63.24 L390 63.95 L391.19 64.59 L391.71 65.17 L391.94 65.56 L392.22 65.89 L392.54 66.11 L392.87 66.14 L393.26 65.94 L393.36 65.65 L393.15 64.35 L393.03 64.04 L393.03 63.71 L393.32 63.18 L394.37 62.07 L393.95 61.32 L393.8 61.12 L393.49 59.69 L394.23 58.58 L395.41 57.85 L396.42 57.57 L398.55 57.43 L399.89 56.85 L400.36 56.95 L401.44 57.5 L402.1 57.54 L404.14 56.94 L406.57 57.24 L407.24 56.91 L407.61 56.21 L407.56 55.6 L407.33 54.98 L407.19 54.22 L407.52 53.55 L408.33 53.3 L409.79 53.35 L412.54 54.01 L412.61 54.02 L413.51 54.02 L414.21 53.69 L415.5 52.62 L416.18 52.3 L417.83 52.19 L421.84 50.35 L422.71 50.42 L423.43 50.8 L425.45 52.38 L426.13 52.57 L426.47 52.71 L426.72 52.15 L427.52 51.82 L428.4 51.67 L429.17 51.26 L429.6 50.15 L428.82 49.09 L428.46 48.42 L428.49 48.12 L428.69 47.94 L428.88 47.62 L429.09 47.44 L429.54 47.95 L429.84 48.1 L430.15 48.16 L430.43 48.12 L430.64 47.95 L431.04 47.42 L431.27 47.26 L431.62 47.23 L432.7 47.54 L433.3 47.41 L434.49 46.82 L435.24 46.65 L435.74 46.41 L435.89 46.25 L436.17 46.03 L436.53 46.1 L437.15 46.4 L439.56 46.11 L439.86 45.98 L440.1 45.68 L440.28 45.38 L440.41 45.25 L440.7 45.29 L441.22 45.49 L441.5 45.54 L442.11 45.39 L443.14 44.68 L443.46 44.97 L444.95 46.29 L445.73 46.76 L446.61 46.85 L448.18 46.04 L449.72 44.75 L451.27 43.96 L452.91 44.63 L454.86 47.27 L455.21 47.65 L455.55 47.91 L455.91 48.04 L456.33 48 L456.51 47.9 L456.8 47.58 L456.98 47.53 L457.71 47.84 L457.97 47.83 L458.67 46.46 L457.9 42 L458.41 41.02 L458.34 40.37 L458.31 40.19 L458.31 39.18 L458.7 38.68 L461.82 37.27 L462.53 37.22 L463.92 37.63 L464.45 37.47 L464.63 36.57 L464.35 35.04 L464.47 34.48 L465.15 34.26 L467.53 34.56 L470.91 35.76 L471.67 35.6 L472.32 34.9 L473 33.6 L473.7 32.56 L474.5 32.01 L476.3 31.3 L476.76 31.68 L476.98 34.46 L477.39 35.14 L480.33 34.07 L488.87 30.94 L490.42 30.7 L493.55 30.83 L495.09 30.59 L495.63 30.25 L496.56 29.25 L497.08 28.94 L501.87 28.71 L502.62 28.53 L504.06 27.7 L504.83 27.5 L506.68 27.53 L507.65 27.29 L508.29 26.62 L508.79 25.6 L509.37 24.9 L510.04 24.62 L511.68 25.08 L513.27 24.74 L517.67 24.88 L519.52 24.28 L520.98 23 L521.95 21.33 L522.43 20.69 L523.15 20.19 L524.02 19.91 L524.78 19.97 L527.14 21.08 L530.97 20.52 L531.4 20.05 L531.58 18.97 L532.12 18.72 L532.34 18.32 L532.44 17.76 L532.65 17.01 L533.12 16.69 L533.8 16.64 L534.35 16.4 L534.45 15.54 L532.49 14.31 L531.57 13.29 L531.97 12.06 L531.43 11.49 L531.24 11.36 L532.8 10.47 L533.33 10.35 L533.69 10.48 L534 10.72 L534.39 10.89 L534.88 10.87 L536.13 10.3 L536.73 10.32 L538.59 10.83 L540.23 10.22 L540.79 10.2 L541.44 10.37 L541.72 10.28 L541.98 9.86 L542.04 9.43 L541.91 8.6 L541.93 8.24 L542.33 7.74 L543.47 6.95 L543.64 6.29 L543.57 5.37 L543.61 4.63 L543.77 3.93 L544.06 3.19 L544.59 3.52 L544.88 3.57 L547.04 3.92 L547.62 4.21 L548.13 4.69 L549.02 6.19 L549.5 6.81 L550.06 7.07 L550.67 6.71 L550.92 6.16 L550.98 5.43 L550.83 3.79 L550.22 3.39 L549.73 3.18 L549.38 2.74 L549.1 1.27 L549 0.95 L549 0.65 L549.21 0.31 L549.61 0.04 L550 0 L554.39 1.58 L555.01 2.43 L555.42 3.76 L555.95 4.69 L556.93 4.35 L558.98 2.29 L559.58 2.13 L563.07 3.67 L567.89 4.33 L571.03 6.14 L571.72 6.8 L573.71 9.59 L574.41 10.08 L576.36 10.29 L577.31 10.65 L580.69 12.94 L581.1 13.01 L581.53 12.6 L582.33 11.23 L582.84 10.81 L584.99 10.07 L585.23 9.82 L585.3 9.49 L585.31 9.13 L585.37 8.79 L585.66 8.12 L586.67 6.51 L587.13 6.34 L587.34 6.42 L589.06 7.12 L589.61 7.1 L590.18 6.95 L590.72 6.63 L591.18 6.12 L592.17 5.4 L593.53 5.23 L594.91 5.49 L595.95 6.05 L595.57 6.59 L595.19 7.28 L595.02 8.01 L595.29 8.67 L596.97 10.93 L599.38 14.14 L599.79 15.32 L599.81 15.84 L599.79 16.37 L599.8 16.45 L599.8 16.6 L599.79 16.68 L599.7 17.86 L599.6 18.43 L599.46 18.98 L599.3 19.78 L599.73 20.91 L599.53 21.42 L599.25 21.92 L599.07 22.65 L599.03 23.43 L599.21 24.04 L600.11 25.1 L600.28 25.68 L600.21 26.85 L600.5 28.26 L601.5 29.33 L602.73 30.01 L603.71 30.26 L604.77 30.25 L605.27 30.39 L605.71 30.81 L606.54 32.15 L606.83 33.03 L606.84 33.98 L606.53 34.57 L605.99 34.9 L604.74 35.27 L603.97 36 L603.81 37.17 L603.98 40.18 L603.93 40.44 L603.91 40.68 L603.95 40.86 L604.44 41.43 L604.54 41.92 L604.41 43.35 L604.48 43.61 L604.66 43.75 L605.09 43.9 L605.2 44.09 L605.2 44.42 L605.14 45.14 L605.15 45.72 L605.02 47.51 L603.64 47.79 L603.2 47.78 L602.72 47.61 L601.82 47.1 L601.32 46.92 L600.44 46.88 L599.86 47.22 L599.64 48.06 L599.79 49.52 L601.3 49.63 L601.63 49.81 L601.75 50.49 L601.73 51.48 L601.62 52.45 L601.43 53.05 L602.37 53.54 L602.74 53.92 L603.12 54.54 L603.87 56.07 L604.3 56.56 L604.82 56.58 L605.69 55.96 L606.37 55.15 L607.61 52.92 L608.2 52.42 L608.92 52.56 L609.69 52.93 L610.46 53.11 L611.21 53.08 L611.45 53.24 L611.67 53.65 L611.82 54.2 L612.03 56.24 L612.57 56.16 L613.8 55.52 L614.39 55.42 L614.66 55.56 L615.16 56.07 L615.41 56.24 L615.83 56.34 L616.2 56.28 L617.02 55.85 L617.7 55.3 L617.91 54.7 L617.79 52.85 L617.87 52.01 L618.11 51.24 L618.5 50.69 L619.02 50.47 L623.81 50.96 L624.43 51.14 L624.9 51.39 L625.29 51.83 L626.72 54.62 L627.27 55.31 L627.99 55.55 L628.63 55.46 L629.18 55.14 L629.5 54.47 L629.42 53.32 L629 52.59 L628.32 52.32 L627.56 52.2 L626.92 51.91 L626.47 51.53 L626.44 51.29 L626.44 50.75 L626.49 50.32 L626.6 49.83 L626.75 49.37 L627.25 48.25 L627.36 47.79 L627.16 47.4 L626.58 46.88 L625.78 46.34 L625.5 45.95 L625.44 45.29 L625.89 44.99 L628.55 45.41 L629.36 45.89 L630.27 46.88 L631.02 48.13 L631.38 49.38 L631.66 49.83 L632.78 50.22 L633.09 50.93 L632.99 51.47 L632.14 53.37 L634.34 54.23 L636.66 55.15 L636.69 55.29 L636.64 55.46 L636.51 55.65 L636.26 56.23 L635.96 56.34 L635.6 56.27 L635.2 56.28 L635.1 56.42 L634.92 56.94 L634.82 57.08 L634.59 57.07 L633.85 56.8 L633.61 56.94 L633.57 57.4 L633.65 57.95 L633.74 58.33 L634.18 59.02 L634.75 59.54 L635.09 60.14 L634.82 61.12 L634.82 61.13 L634.21 62.63 L633.96 63.47 L633.97 64.14 L634.44 64.63 L635.2 64.83 L635.99 64.75 L636.51 64.42 L637.52 63.18 L638.15 62.03 L638.47 61.76 L638.84 61.79 L641.33 62.87 L641.98 62.58 L641.85 61.12 L641.38 59.91 L640.9 59.04 L640.3 58.57 L639.46 58.54 L637.31 59 L637.15 58.69 L637.29 57.95 L637.55 57.13 L637.75 56.64 L638.87 55.44 L640.12 55.18 L643.38 55.56 L646.51 55.92 L647.9 55.73 L648.26 55.91 L648.54 56.47 L648.67 57.2 L648.75 58.82 L649.9 59.4 L650.18 59.96 L650.4 61.13 L650.85 61.68 L653.99 62.41 L658.14 63.38 L658.47 63.27 L658.6 62.95 L658.65 62.47 L658.73 62.05 L658.93 61.89 L659.7 61.95 L659.93 62.03 L660.24 62.32 L660.8 63.01 L661.11 63.09 L661.7 62.9 L662 62.64 L662.09 62.11 L662.05 61.13 L662.05 61.13 L662.25 60.37 L663.69 60 L664.12 59.37 L664.03 58.86 L663.81 58.41 L663.73 58.05 L664.04 57.84 L665.34 57.54 L665.73 57.65 L665.76 57.8 L665.84 58.66 L666.09 58.79 L667.45 58.4 L666.39 64.94 L666.04 66.05 L665.52 66.6 L664.85 66.74 L661.2 66.02 L660.48 66.07 L659.89 66.41 L659.38 67.04 L658.9 67.95 L660.04 68.77 L657.82 69.64 L657.43 70.15 L656.82 73.86 L655.78 74.05 L655.31 74.3 L654.94 74.82 L654.71 75.62 L654.82 76.16 L655.65 77.13 L654.96 78.53 L658.9 80.68 L657.82 83.19 L659.38 84.39 L659.7 84.29 L660.35 83.63 L662.14 81.83 L662.14 81.83 L662.14 81.82 L662.7 81.23 L662.91 80.91 L663.11 80.47 L663.34 79.74 L663.42 79.32 L663.58 79.1 L664.02 78.92 L664.2 78.91 L664.79 79.01 L665 78.91 L665.06 78.62 L665.09 78.25 L665.26 77.61 L665.26 77.28 L665.3 77.01 L665.47 76.92 L667.35 76.99 L667.76 77.1 L668.6 77.6 L668.98 77.46 L670.68 76.07 L671.45 75.78 L672.25 75.76 L673.23 75.94 L674.87 76.16 L675.22 76.38 L675.34 77.03 L675.3 77.83 L675.34 78.5 L675.68 78.79 L676.44 78.83 L676.71 78.65 L677.16 77.64 L677.42 77.48 L679.04 77.52 L679.27 77.62 L679.56 78.14 L679.72 78.72 L679.93 79.18 L680.42 79.32 L680.24 80.27 L680.4 80.89 L681.29 81.82 L681.29 81.83 L681.3 81.83 L682.59 82.91 L683.31 83.07 L683.82 82.44 L684.99 78.64 L684.95 78.33 L684.68 77.98 L684.24 77.54 L684.1 77.27 L684.32 75.18 L684.54 74.36 L684.9 73.88 L688.89 74.06 L689.15 73.79 L689.58 71.83 L689.82 71.26 L690.03 70.99 L690.32 70.9 L691.56 70.82 L691.79 70.57 L692 69.97 L692.27 68.77 L692.46 68.19 L692.7 67.84 L693.54 67.56 L695.55 67.62 L696.42 67.84 L698.3 68.85 L698.97 68.79 L702.14 66.42 L705.08 64.24 L708.91 61.37 L707.11 58.33 L708.79 57.06 L709.65 56.62 L710.52 56.54 L713.05 56.87 L713.96 56.69 L715.21 56.09 L716.69 55.38 L719.47 54.05 L723.79 51.97 L727.27 50.3 L726.97 49.33 L726.92 48.63 L727.1 47.99 L727.51 47.2 L728.02 46.5 L728.5 46.28 L733.37 47.58 L734.43 47.3 L735.99 46.13 L736.52 45.91 L736.9 45.89 L737.64 45.98 L738.02 45.92 L738.46 45.48 L738.56 44.75 L738.57 43.91 L738.72 43.13 L739.24 42.54 L739.93 42.38 L741.3 42.51 L741.91 42.41 L743.63 41.5 L744.12 41.35 L744.7 41.38 L745.06 41.77 L744.89 42.7 L744.45 43.11 L742.47 43.65 L742.03 43.95 L741.49 44.47 L741.2 45.05 L741.52 45.56 L742.74 45.94 L743.19 46.35 L743.41 47.33 L743.27 48.4 L742.86 49.21 L742.35 49.92 L741.92 50.69 L741.62 51.91 L741.43 52.35 L741.16 52.71 L740.54 53.29 L740.3 53.68 L739.04 55.22 L737.55 55.17 L734.43 53.97 L732.87 53.9 L732.4 54.06 L731.99 54.37 L731.93 54.65 L734.43 59.06 L734.58 59.56 L734.89 61.13 L735.64 62.42 L737.72 64.11 L740.73 66.55 L745.27 70.22 L749.81 73.88 L754.35 77.53 L758.89 81.17 L762.25 83.87 L765.22 87.21 L766.46 88.6 L768.47 90.86 L771.15 95.11 L772.8 98.03 L775.45 102.7 L778.1 107.36 L780.75 112.01 L783.4 116.64 L786.86 123.14 L790.33 129.61 L793.8 136.06 L797.26 142.49 L797.26 142.49 L797.26 142.49 L799.88 147.45 L802.49 152.4 L803.66 154.62 L805.1 157.34 L807.71 162.26 L809.9 166.97 L812.09 171.68 L814.28 176.36 L816.47 181.04 L817.6 183.46 L818.91 186.24 L819.6 188.28 L819.88 188.89 L820.45 189.75 L821.22 190.57 L822.04 191.11 L822.8 191.14 L821.46 188.95 L821.07 187.76 L821.9 187.26 L822.34 187.48 L823.18 188.45 L823.61 188.71 L824.19 188.62 L824.48 188.23 L824.81 186.97 L825.13 186.35 L825.48 186.1 L826.44 185.67 L826.66 185.46 L827.02 184.97 L827.24 184.8 L827.54 184.74 L828.54 184.86 L829.51 184.66 L830.56 184.1 L831.44 183.15 L831.94 181.81 L832.03 181.22 L832.08 180.52 L832.07 179.82 L831.98 179.23 L831.75 178.66 L831.08 177.94 L830.75 177.44 L830.66 176.96 L830.68 176.24 L830.82 174.96 L831.03 174.21 L831.33 173.7 L831.76 173.42 L832.35 173.35 L834.44 173.64 L835.37 173.39 L835.69 172.4 L835.73 171.78 L835.91 171.2 L836.18 170.68 L836.49 170.24 L836.97 169.81 L837.41 169.74 L840.69 171.34 L841.32 171.48 L841.62 171.2 L841.85 170.76 L842.3 170.41 L842.87 170.46 L843.08 170.98 L843.13 172.34 L843.32 173.1 L843.61 173.5 L844.59 174.07 L845.72 174.61 L846.28 174.76 L846.89 174.82 L847.59 174.08 L847.94 173.88 L848.43 173.94 L848.9 174.25 L849.06 174.73 L849 175.39 L848.78 176.23 L847.15 180.32 L846.5 182.7 L846.44 183.25 L846.6 183.58 L847.09 183.83 L847.73 183.99 L849.07 183.92 L851.97 182.98 L854.99 183.11 L855 184.52 L855.36 185.81 L855.94 186.97 L856.59 187.98 L856.07 188.77 L855.61 189.75 L855.43 190.74 L855.73 191.58 L856.45 191.98 L861.68 191.76 L862.25 191.42 L862.95 190.27 L863.4 189.87 L863.87 189.89 L864.79 190.53 L865.31 190.61 L867.09 190.29 L868.32 190.48 L869.42 190.85 L869.97 191.22 L871.45 192.55 L872 192.84 L873.27 193.09 L873.91 193.04 L874.53 192.82 L874.96 192.41 L875.45 191.82 L875.92 191.41 L876.35 191.49 L876.72 191.71 L877.03 191.57 L877.34 191.31 L877.7 191.14 L878.01 191.21 L878.26 191.4 L878.54 191.53 L879.66 191.29 L880.19 191.57 L881.31 192.62 L884.45 190.49 L886.13 189.68 L886.75 188.86 L886.8 186.15 L887.45 185.38 L888.38 185.15 L890.33 185.73 L893.55 186.11 L894.67 185.73 L895.56 184.74 L896.25 183.37 L896.78 181.81 L897.02 181.74 L897.26 181.71 L897.51 181.73 L898.14 181.97 L898.54 182.02 L898.94 181.96 L899.33 181.81 L902.07 181.43 L904.77 181.81 L905.45 182.91 L905.82 183.34 L906.34 183.65 L909.07 184.17 L909.63 184.45 L911.05 185.73 L911.59 186.1 L912.08 186.2 L913.19 186.21 L913.74 186.35 L914.23 186.65 L914.67 187.11 L915.43 188.46 L915.76 188.82 L916.72 189.26 L917.41 190.05 L917.39 192.47 L918.03 193.68 L920.79 195.68 L921.12 195.92 L921.88 196.99 L922.11 197.73 L922.18 198.33 L922.33 198.85 L923.18 199.79 L923.41 200.43 L923.47 201.14 L922.95 203.21 L923.32 204.42 L923.97 205.57 L924.49 206.84 L924.55 207.71 L924.49 208.58 L924.49 209.39 L924.75 210.09 L925.04 210.33 L925.76 210.54 L926.08 210.73 L926.27 210.99 L926.57 211.63 L926.74 211.87 L927.65 211.93 L928.55 211.2 L929.42 210.67 L930.27 211.35 L930.98 212.21 L931.74 212.73 L932.56 212.94 L933.46 212.86 L934.34 212.96 L934.95 213.53 L935.5 214.25 L936.26 214.8 L936.7 214.85 L937.56 214.74 L937.98 214.95 L938.25 215.3 L938.85 216.71 L939.16 216.93 L939.58 216.78 L940.02 216.49 L940.37 216.33 L940.91 216.39 L942.51 217.15 L942.78 217.46 L943.6 218.76 L943.8 219.23 L943.73 219.86 L943.34 220.1 L942.24 220.29 L942.24 220.29 L942.18 220.32 L942 220.38 L941.9 222.55 L942 223.56 L942.51 224.05 L943.91 224.39 L944.49 224.83 L944.84 225.71 L944.97 227.09 L945.11 227.62 L945.51 228.29 L947.1 230.12 L947.64 231.22 L947.88 234.22 L948.58 235.35 L949.55 235.89 L950.52 235.56 L950.95 235.21 L951.48 234.88 L952.02 234.65 L952.51 234.6 L953.08 234.82 L954.15 235.62 L954.75 235.83 L955.67 235.74 L956.12 235.6 L956.56 235.37 L957.33 234.68 L957.73 234.46 L958.16 234.54 L958.49 234.94 L958.83 236.04 L959.17 236.51 L959.59 236.68 L960 236.59 L960.88 236.21 L961.41 236.21 L961.83 236.44 L962.19 236.85 L962.56 237.38 L962.92 237.58 L963.37 237.41 L964.18 236.79 L964.67 236.57 L965.14 236.54 L966.14 236.71 L966.17 237.03 L965.92 238.58 L965.91 239.23 L966.27 239.66 L966.68 239.77 L967.1 239.61 L967.49 239.23 L967.49 239.23 L968.26 238.37 L969.32 237.97 L970.32 238.2 L970.94 239.23 L971.93 240.34 L972.84 239.11 L973.62 237.07 L974.25 235.81 L975.66 234.8 L977.18 234.24 L978.81 232.71 L979.23 232.51 L979.39 232.28 L979.41 231.93 L979.33 231.51 L979.16 231.09 L980.31 230.39 L980.43 230.29 L980.75 229.91 L980.95 229.79 L981.11 229.8 L981.26 229.84 L981.43 229.79 L981.91 229.13 L982.17 228.34 L982.53 227.79 L983.32 227.85 L984.36 228.44 L984.73 228.46 L985.48 228.28 L985.91 228.26 L986.17 228.43 L986.19 228.84 L986.01 229.28 L985.79 229.71 L985.65 230.08 L985.72 230.54 L985.99 230.96 L986.59 231.6 L986.09 232.11 L985.62 232.47 L985.12 232.66 L983.94 232.76 L983.43 233.16 L982.55 234.42 L982.18 235.12 L982.08 235.67 L982.26 236.19 L982.73 236.78 L983.32 237.17 L983.85 237.17 L984.96 236.91 L985.53 237.05 L987.24 238.12 L987.77 238.61 L987.74 239.23 L987.53 239.98 L987.52 240.84 L987.89 241.47 L988.51 241.93 L989.76 242.55 L990.43 243.1 L990.38 243.46 L990.01 243.86 L989.75 244.53 L989.94 245.03 L990.44 245.57 L992.08 246.9 L992.38 247.21 L992.49 247.51 L992.49 248.04 L992.67 248.4 L992.97 248.63 L993.31 248.78 L993.93 248.85 L996 248.66 L996.73 248.82 L997.41 249.12 L998.73 250.04 L999.12 250.82 L999.62 253.46 Z M92.59 401.06 L92.78 400.23 L92.87 399.45 L93 398.93 L93.29 398.69 L93.58 398.63 L93.71 398.64 L93.83 398.61 L94.29 398.64 L94.5 398.55 L94.64 398.42 L94.75 398.46 L94.88 398.87 L94.65 399.59 L94.49 399.92 L94.29 400.05 L94.21 400.26 L94.38 401.59 L94.17 402.33 L93.67 402.81 L93.11 402.94 L92.69 402.66 L92.5 401.89 Z M90.39 407.28 L89.72 407.7 L88.95 407.61 L88.16 407.16 L87.79 406.79 L87.67 406.48 L87.64 406.1 L87.49 405.51 L87.24 405.04 L86.32 404.09 L85.88 403.25 L85.88 402.51 L87.24 399.41 L87.49 399.13 L87.88 398.93 L89 398.64 L88.97 399.24 L87.53 400.06 L87.16 400.89 L87.08 401.37 L86.73 402.24 L86.66 402.78 L86.74 403.34 L86.95 403.8 L87.27 404.02 L87.65 403.86 L87.65 404.72 L87.74 405.56 L88.02 406.18 L88.59 406.43 L88.85 406.53 L89.07 406.74 L89.32 406.91 L89.68 406.93 L90.48 406.3 L90.85 406.19 Z M104.43 405.34 L104.77 405.88 L104.85 406.07 L104.33 405.96 L104 406.04 L103.67 406.25 L103.3 406.32 L103.2 406.1 L103.41 405.74 L103.41 405.53 L103.16 405.45 L103.08 405.24 L103.19 404.89 L103.03 404.46 L101.91 403.71 L101.55 403.1 L101.59 402.54 L101.79 402.53 L101.97 403.03 L102.37 403.52 L102.82 403.63 L103.18 403.46 L103.41 403.2 L103.55 402.98 L103.69 403 L103.76 403.25 L103.87 403.42 L104.04 403.46 L104.21 403.83 L104.26 404.6 L104.26 405 Z M152.15 385.42 L152.3 386.06 L152.39 386.62 L152.38 387.32 L151.76 387.61 L150.56 387.15 L149.59 386.36 L148.93 385.53 L148.7 384.77 L149.05 384.24 L149.45 383.94 L149.72 383.7 L149.82 383.43 L149.75 383.19 L149.87 383.06 L150.74 383.12 L151.22 383.27 L151.66 383.88 L152.01 384.89 Z M81.87 355.38 L82.26 356.37 L82.34 357.19 L81.85 358.79 L81.44 359.04 L80.88 358.56 L80.51 357.72 L79.39 354.52 L79.36 353.86 L80.1 353.83 L81.13 354.49 L81.61 354.93 Z "/>
</g>
</svg>
