<svg xmlns="http://www.w3.org/2000/svg" viewBox="0 0 1000 1215.77">
<g fill="#ccc" stroke="#333" stroke-width="0.5" stroke-linejoin="round">
<path fill-rule="evenodd" d="M227.08 51.58 L227.09 51.52 L227.79 46.29 L231.27 43.84 L236.16 44.19 L236.51 51.52 L245.93 51.56 L253.97 51.6 L254.21 53.76 L255.87 56.72 L256 59.14 L255.62 61.65 L255.58 63.79 L256.43 65.56 L258.66 66.97 L263.51 71.22 L266.17 72.95 L269.04 73.64 L269.54 73.63 L287.8 73.48 L292.11 72.9 L293.42 72.89 L294.65 73.22 L296.93 74.33 L298.54 74.55 L321.79 74.08 L341.36 73.68 L342.45 73.92 L344.3 75.03 L345.03 75.21 L345.34 75.28 L369.45 75.07 L376.91 77.14 L385.81 81.64 L390.91 82.81 L392.13 83.73 L394.09 87.05 L395.01 87.65 L397.52 87.47 L398.45 87.76 L399.28 88.88 L399.77 90.1 L400.42 92.89 L400.82 93.56 L401.46 93.71 L402.21 93.69 L402.95 93.88 L409.72 98.24 L421.92 106.1 L434.11 113.96 L448.38 123.15 L458.51 129.68 L469.98 137.08 L482.9 145.4 L494.8 153.07 L507.28 161.1 L511.13 163.58 L513.46 165.91 L516.64 171.01 L518.56 173.3 L520.17 174.19 L523.9 175.34 L526.79 177.85 L528.31 178.1 L532.26 177.12 L536.17 176.81 L549.45 178.32 L562.82 179.82 L569.82 179.22 L576.2 176.43 L576.35 175.71 L576.25 174.6 L576.51 173.55 L577.71 173.06 L578.37 173.35 L580.73 175.32 L581.74 176.51 L581.99 177.5 L582.48 178.24 L584.23 178.68 L585.85 178.86 L586.54 178.77 L588.31 178.07 L588.54 178.49 L588.67 179.16 L589.33 179.6 L596.64 180.13 L596.61 179.27 L596.78 177.51 L596.73 176.68 L600.11 181.15 L602.07 183.14 L604.35 184.39 L616.7 187.74 L626.02 190.26 L629.28 190.21 L634.53 189.2 L636.62 189.48 L638.5 190.18 L640.44 190.15 L647.62 188.63 L648.83 188.92 L650.44 189.67 L661.7 194.85 L666.58 195.89 L671.35 195.76 L676.19 192.97 L677 192.51 L678.64 192.6 L679.22 193.9 L678.07 196.21 L693.69 196.68 L697.54 197.98 L698.62 199.38 L699.28 201.08 L700.23 202.75 L702.22 204.08 L706.21 203.87 L708.32 200.57 L711.05 192.23 L714.28 188.34 L722.49 180.85 L732.33 171.84 L734.72 168.69 L736.79 164.82 L740.28 155.58 L742.73 149.02 L745.26 145.93 L755.97 140.73 L766.74 135.54 L778.87 129.67 L784.53 126.86 L785.1 126.12 L785.01 125.34 L785.13 124.84 L786.33 124.96 L786.7 125.17 L787.08 125.27 L787.43 125.26 L800.1 120.83 L809.96 117.39 L810.63 116.76 L811.37 114.73 L812.08 114.07 L828.24 107.84 L841.45 102.75 L851.86 98.75 L859.75 93.55 L862.5 97.2 L870.04 102.33 L873.11 105.84 L875.21 109.72 L876.5 110.99 L878.77 112.15 L884.75 114.19 L886.76 115.4 L890.04 118.42 L898.06 129.67 L903.62 134.01 L909.69 136.47 L916.23 137.24 L929 136.51 L943.03 135.7 L949.31 133.93 L952.62 133.75 L962.64 131.28 L964.63 131.41 L967.94 132.79 L969.72 133.12 L971.53 132.71 L976.83 129.67 L982.78 131.62 L988.29 134.53 L993.86 135.63 L1000 132.14 L989.53 147.19 L979.03 162.24 L968.55 177.29 L958.05 192.34 L951.58 201.6 L945.11 210.88 L938.64 220.14 L932.17 229.41 L921.9 239.6 L911.61 249.8 L901.32 259.98 L891.04 270.17 L886.76 274.41 L884.97 277.89 L885.03 284.59 L885.19 300.73 L885.36 317.59 L885.36 326.87 L885.36 340.2 L885.36 353.52 L885.36 366.84 L885.36 380.17 L885.36 395.82 L885.36 411.46 L885.36 427.1 L885.36 442.74 L885.36 458.38 L885.36 474.02 L885.36 476.13 L885.36 489.66 L885.36 505.29 L885.36 520.93 L885.36 536.56 L885.36 552.19 L885.36 567.83 L885.36 583.46 L885.36 599.11 L885.36 614.74 L885.36 630.38 L885.5 640.63 L885.6 649.07 L885.69 657.51 L885.87 671.1 L886.05 684.66 L886.23 698.24 L886.42 711.83 L886.53 720.64 L886.65 729.46 L886.76 738.96 L889.96 743.09 L893.12 747.21 L896.32 751.32 L899.5 755.45 L905.69 763.44 L912.09 771.73 L918.98 780.64 L924.69 788.01 L930.85 795.96 L937.3 804.3 L943.61 812.44 L949.9 820.58 L954.7 826.79 L956.21 829.55 L956.67 831.91 L956.34 839.75 L956.23 842.25 L956.16 842.32 L946.63 852.08 L942.13 858.95 L941.54 861.14 L938.83 862.81 L931.72 869.29 L927.26 874.77 L924.66 876.32 L922.74 873.95 L920.41 874.91 L918.25 874.69 L916.81 873.25 L916.69 870.55 L914.19 873.14 L913.7 876.13 L912.54 879.03 L908.92 878.69 L904.04 877.54 L902.95 877.46 L901.41 878.41 L898.93 881.14 L895.55 882.57 L894.25 884.26 L892.88 885.67 L890.92 885.57 L889.27 884.71 L888.08 883.87 L887.25 882.67 L886.73 880.88 L886.82 879.03 L888.06 875.56 L887.98 874.04 L887.67 872.3 L888.18 870.76 L890.06 867.96 L885.63 871.37 L885.12 886.08 L882.46 889.42 L880.14 887.67 L877.82 879.97 L875.54 878.23 L874.23 877.48 L873.08 876.15 L871.91 875.69 L870.43 877.46 L871.24 879.33 L871.61 880.98 L871.28 882.57 L873.32 881.68 L874.93 882.11 L876.01 883.52 L876.39 885.57 L876.13 886.4 L874.97 887.07 L874.68 887.79 L875.1 888.99 L876.01 889.27 L876.93 889.48 L877.33 890.31 L877.54 899.44 L878.28 904.29 L879.89 907.45 L881.01 907.75 L882.38 907.59 L883.9 907.66 L885.48 908.76 L886.7 910.56 L886.89 911.93 L885.48 915.18 L882.4 918.98 L879.62 919.53 L879.22 918.11 L883.31 916.06 L881.15 915.29 L879.42 914.13 L876.39 910.93 L875.92 909.93 L876.09 909.3 L876 908.82 L874.68 908.3 L874.84 908.59 L874 908.88 L872.17 909.22 L869.04 910.93 L866.24 914.29 L863.62 916.61 L861.02 915.21 L861.1 916.28 L861.43 917.41 L862.1 918.35 L863.13 918.71 L863.73 919.06 L863.49 919.87 L862.65 921.23 L863.46 923.06 L867.01 925.42 L867.86 927.17 L866.39 930.06 L862.94 933.46 L859.05 936.27 L853.24 938.66 L845.59 947.77 L841.25 949.42 L837.41 948.59 L833.69 946.9 L829.71 945.99 L825.62 946.42 L812.97 950.4 L807.78 954.13 L804.63 955.13 L800.95 957.42 L794.72 962.46 L793.25 964.01 L792.15 965.77 L789.84 971 L786.1 975.73 L785.56 977.84 L785.8 978.81 L787.67 981.3 L787.81 982.11 L787.33 984.03 L787.2 985.12 L784.84 993.12 L784.55 997.23 L787.2 999.24 L786.55 1002.52 L788.06 1003.97 L790.64 1003.71 L793.25 1001.78 L793.35 1003.19 L792.37 1004.68 L787.99 1008.85 L785.38 1012.35 L784.7 1013.85 L784.17 1020.22 L783.37 1022.4 L779.12 1028.45 L779.02 1030.13 L780.38 1034.69 L780.36 1037.02 L779.58 1038.95 L778.47 1040.75 L777.02 1042.32 L775.24 1043.5 L769.19 1046.25 L767.54 1047.36 L764.54 1050.87 L762.85 1052.22 L760.64 1052.58 L761.62 1050.45 L762.97 1045.66 L763.21 1043.93 L760.96 1044.48 L759.97 1045.7 L759.75 1047.34 L759.79 1049.1 L759.66 1050.26 L758.93 1053.35 L759.16 1054.05 L759.63 1054.73 L759.86 1055.47 L757.66 1059.08 L755.11 1065.77 L751.77 1071.14 L750.47 1078.35 L749.04 1081.27 L747.45 1082.7 L746.36 1082.93 L743.65 1081.74 L743.05 1081.38 L741.41 1079.48 L740.82 1079.36 L737.49 1079.08 L738.01 1077.99 L738.1 1077.49 L736.81 1076.45 L735.83 1078.75 L736.18 1080.66 L737.69 1081.78 L740.21 1081.74 L738.7 1083.52 L739.21 1084.99 L740.97 1085.57 L745.32 1083.79 L746.71 1084.8 L747.51 1086.72 L747.82 1088.58 L747.58 1092.54 L737.49 1120.4 L734.29 1123.49 L730.7 1124.06 L728.18 1122.17 L728.2 1117.92 L725.43 1119.45 L724.66 1120.4 L725.1 1121.65 L725.95 1122.92 L726.38 1124.1 L726.94 1125.24 L728.2 1126.4 L730.97 1126.18 L732.35 1126.86 L732 1129.02 L729.36 1131.94 L728.97 1132.83 L728.63 1133.94 L727.73 1135.49 L726.62 1136.86 L725.53 1137.45 L724.33 1136.8 L723.5 1133.92 L722.52 1133.25 L721.66 1131.73 L721.93 1128.86 L721.74 1127.12 L719.57 1128.97 L716.35 1127.2 L714.89 1126.98 L713.52 1128.11 L714.76 1129.31 L716.24 1129.89 L719.57 1130.68 L718.63 1132.92 L717.45 1133.98 L713.52 1134.88 L712.24 1134.91 L710.83 1134.77 L709.7 1134.91 L709.24 1135.78 L709.34 1138.43 L709.58 1139.67 L710.1 1140.96 L711.91 1138.51 L716.06 1138.22 L720.44 1139.51 L722.89 1141.82 L722.42 1144.84 L716.17 1155.59 L712.16 1165.82 L708.06 1181.22 L706.68 1184.77 L705.56 1183.14 L704.48 1183.23 L703.42 1184.32 L702.42 1185.73 L702.22 1186.41 L702.34 1187.98 L701.95 1188.68 L700.16 1190.3 L699.78 1190.86 L695.5 1203.78 L694.71 1201.45 L695.09 1197.8 L694.65 1196 L693.04 1197.26 L692.14 1199 L691.39 1200.96 L690.37 1202.84 L689.76 1202.77 L688.88 1202.29 L688.08 1202.41 L687.75 1204.18 L687.99 1205.22 L689.94 1207.95 L688.68 1209.69 L684.47 1210.31 L679.7 1209.13 L676.71 1205.42 L676.61 1206.14 L675.87 1207.99 L672.19 1206.88 L669.48 1209.48 L667.19 1213.06 L664.75 1214.84 L664.23 1215.02 L663.78 1215.06 L663.38 1215.24 L662.97 1215.77 L652.36 1208.09 L641.68 1200.39 L631 1192.67 L620.32 1184.96 L609.64 1177.26 L598.95 1169.54 L588.28 1161.83 L577.62 1154.13 L566.93 1146.43 L566.1 1145.83 L556.26 1138.72 L545.57 1131.02 L534.91 1123.31 L524.24 1115.61 L513.55 1107.9 L502.88 1100.19 L492.2 1092.48 L485.39 1087.59 L483.67 1085.33 L482.42 1082.77 L480.25 1075.05 L479.3 1073.12 L477.56 1071.51 L475.19 1070.37 L472.55 1069.67 L469.88 1069.44 L463.89 1069.79 L463.53 1068.07 L464.53 1065.62 L465.03 1063.55 L464.4 1062.56 L462.34 1062.3 L461.44 1061.38 L461.24 1060.06 L461.57 1058.6 L462.16 1057.2 L462.79 1056.09 L464.62 1054.07 L467.41 1051.85 L470.38 1050.26 L472.75 1050.08 L472.57 1047.84 L473.01 1046.09 L474.25 1045.01 L476.52 1044.85 L474.01 1029.53 L473.74 1027.88 L471.53 1014.3 L469.62 1011.22 L459.29 1005.45 L442.02 995.79 L432.44 990.43 L405.57 975.42 L378.72 960.42 L351.87 945.4 L325.02 930.41 L298.16 915.41 L271.32 900.4 L244.47 885.4 L217.62 870.39 L190.78 855.39 L169.6 843.57 L163.93 840.4 L137.06 825.39 L110.21 810.41 L103.62 806.73 L83.36 795.4 L56.49 780.42 L29.64 765.42 L20.27 760.18 L15.63 759.82 L13.95 758.72 L13.7 755.45 L11.76 755.38 L11.25 755.45 L1.72 755.45 L1.01 729.99 L0.54 712.94 L2.61 694.99 L5.58 669.2 L7.89 649.34 L7.76 644.51 L3.89 631.66 L0 618.77 L0.39 616.3 L7.67 606.6 L8.73 605.18 L18.78 591.78 L23.28 588.28 L24.36 586.63 L24.71 584.08 L23.3 579.52 L23.17 577.22 L23.72 576.08 L25.88 573.52 L26.76 572.21 L27.15 571.15 L30.16 558.81 L30.26 558.38 L32.41 554.53 L36.11 551.99 L41.19 550.16 L45.23 548.1 L48.25 544.87 L50.26 539.51 L50.76 536.63 L51.03 535.06 L52.06 533.96 L60.09 529.94 L62.23 527.99 L64.03 522.95 L67.64 518.26 L70.88 510.25 L71.62 507.69 L71.7 502.07 L72.34 499.41 L73.39 496.86 L74.62 494.63 L77.18 492.12 L79.25 492.6 L81.29 493.76 L83.76 493.29 L83.9 493.26 L84.61 492.06 L85.25 490.97 L85.45 488.15 L86.31 485.86 L92.37 484.48 L96.64 480.38 L99.23 478.79 L109.53 477.73 L113.51 475.93 L115.08 470.85 L113.78 465.87 L111.61 460.78 L111.36 458.43 L111.14 456.33 L118.57 450.25 L121.21 440.14 L124.1 435.85 L125.35 435.22 L127.97 434.68 L129.21 434.11 L130.49 432.91 L131.4 431.5 L135.37 423.09 L136.12 420.37 L136.25 396.05 L136.79 394.52 L139.13 391.56 L139.6 390.22 L138.96 388.83 L136.03 386.08 L134.93 384.78 L134.04 382.59 L133.52 380.08 L133.36 377.5 L133.56 375.06 L134.73 369.48 L134.72 367.06 L129.07 353.44 L126.81 347.99 L121.97 336.32 L121.16 331.4 L122.26 328.31 L124.52 326.56 L127.04 325.12 L128.89 322.9 L129.23 320.06 L128.08 317.93 L124.66 314.42 L123.94 312.03 L123.23 305.8 L121.97 304.09 L120.84 304.27 L120.01 305.31 L119 306.24 L117.28 306.11 L116.11 304.95 L110.83 293.98 L108.93 283.1 L106.38 275.21 L105.88 274.1 L105.03 273.04 L104.37 272.88 L100.82 271.17 L100.59 270.84 L100.35 270.61 L100.14 270.18 L99.87 269.74 L99.39 269.52 L99.08 269.72 L98.52 270.7 L98.21 270.92 L97.7 271.17 L96.3 272.31 L95.52 272.58 L93.82 272.13 L92.68 270.95 L90.81 267.96 L86.84 263.54 L85.58 261.36 L81.95 242.41 L81.94 242.4 L80.48 239.77 L77.85 238.03 L71.96 236.34 L69.35 234.67 L67.99 231.81 L66.75 216.42 L65.13 211.42 L64.21 210.08 L63.04 208.8 L62.05 207.46 L61.73 205.96 L62.11 204.54 L63.36 201.47 L63.55 200.28 L63.04 198.9 L61.5 196.22 L61.39 194.86 L62.09 193.77 L63.23 193.27 L64.51 192.93 L65.67 192.34 L68.05 188.68 L69.23 183.66 L69.54 173.58 L68.7 170.94 L66.86 169.76 L64.52 169.04 L62.17 167.81 L58.11 163.47 L55.86 162.56 L52.46 163.55 L51.16 164.78 L50.61 165.98 L50.03 166.5 L48.58 165.68 L46.7 160.62 L43.92 157.03 L43.84 156.42 L42.52 156.53 L40.04 157.23 L37.58 157.39 L35.42 157.95 L34.36 158.02 L32.77 157.42 L33.6 156.45 L36.09 154.85 L34.53 152.94 L32.57 152.21 L32.33 151.52 L38.31 148.42 L39.66 146.73 L39.34 145.02 L36.57 143.57 L34.14 143.56 L29.18 145.33 L27.21 145.72 L24.3 144.67 L24.49 142.49 L26.08 139.6 L27.41 136.39 L27.1 134.37 L25.65 132.92 L23.81 131.7 L22.33 130.31 L21.34 128.31 L21.4 127.04 L21.94 125.85 L22.43 124.1 L22.79 121.18 L22.75 119.71 L22.37 118.25 L21.32 116.84 L19.92 115.56 L18.82 114.19 L18.67 112.48 L18.84 108.62 L17.27 105.71 L14.45 103.49 L10.83 101.74 L23.48 89.17 L36.11 76.62 L48.74 64.06 L61.38 51.49 L71.2 46.42 L79.89 41.92 L88.52 37.59 L97.04 33.32 L109.21 28.88 L119.37 25.04 L128.88 21.45 L139.13 17.59 L150.58 13.26 L160.82 9.39 L169.52 6.11 L171.74 10.27 L180.51 5.41 L190.27 0 L193.04 3.33 L188.33 13.05 L200.78 13.05 L210.19 15.83 L204.1 31.38 L209.16 40.58 L215.11 51.41 L215.17 51.51 L215.36 51.58 L226.39 55.39 L227.07 51.61 Z M896.05 886.46 L897.51 884.8 L900.9 885.02 L904.65 886.24 L907.22 887.7 L909.66 891.64 L908.72 894.28 L906.42 894.71 L904.73 891.98 L904.84 893.36 L904.66 894.76 L904.17 895.81 L903.38 896.24 L903.01 896.4 L902.78 896.72 L902.41 897.03 L901.67 897.2 L900.8 896.9 L900.11 896.32 L899.66 895.74 L899.53 895.47 L897.88 895.71 L895.65 896.46 L890.99 898.89 L889.85 898.05 L888.75 898.26 L887.91 899.32 L887.57 901.03 L888.24 902.01 L889.58 902.8 L890.54 903.69 L890.06 904.96 L888.5 904.94 L887.53 904.21 L886.98 902.98 L886.73 901.46 L883.95 902.04 L883.96 899.19 L885.45 895.25 L887.16 892.44 L889.44 891.17 L892.38 890.29 L894.95 888.99 Z "/>
</g>
</svg>
