<svg xmlns="http://www.w3.org/2000/svg" viewBox="0 0 1000 46.29">
<g fill="#ccc" stroke="#333" stroke-width="0.5" stroke-linejoin="round">
<path fill-rule="evenodd" d="M989.15 9.64 L989.11 9.65 L989.09 9.65 L989.07 9.65 L989.21 9.59 L989.28 9.57 L989.47 9.55 L989.5 9.54 L989.45 9.53 L989.48 9.51 L989.51 9.52 L989.53 9.55 L989.53 9.58 L989.5 9.6 L989.47 9.6 L989.4 9.58 L989.34 9.58 L989.26 9.59 L989.2 9.6 Z M64.7 46.07 L64.73 46.12 L64.77 46.2 L64.78 46.27 L64.72 46.29 L64.69 46.24 L64.67 46.18 L64.67 46.11 Z M53.06 29.47 L53.11 29.45 L53.15 29.46 L53.17 29.49 L53.15 29.5 L53.04 29.52 L52.99 29.5 L52.96 29.44 L52.99 29.44 L53.01 29.44 L53.04 29.45 Z M55.58 24.98 L55.72 24.94 L55.79 24.94 L55.77 25 L55.75 25.02 L55.73 25.05 L55.73 25.09 L55.75 25.12 L55.72 25.12 L55.68 25.07 L55.64 25.06 L55.62 25.05 L55.59 25.02 L55.56 24.99 Z M8.15 21.52 L8.07 21.5 L8.06 21.49 L8.06 21.49 L8.11 21.51 L8.19 21.53 L8.21 21.54 L8.23 21.55 L8.23 21.55 L8.28 21.6 L8.28 21.6 L8.29 21.59 L8.29 21.59 L8.3 21.59 L8.3 21.59 L8.3 21.58 L8.22 21.44 L8.19 21.41 L8.15 21.38 L8.1 21.36 L8.05 21.35 L8.03 21.39 L8.01 21.37 L8.01 21.35 L8.03 21.33 L8.05 21.31 L8.15 21.36 L8.23 21.42 L8.29 21.51 L8.3 21.56 L8.31 21.59 L8.3 21.62 L8.26 21.6 L8.24 21.57 L8.21 21.54 L8.17 21.53 Z M999.82 20.88 L999.89 20.9 L999.96 20.95 L1000 21.01 L999.97 21.04 L999.93 21.02 L999.78 20.88 L999.8 20.87 L999.8 20.87 Z M997.53 20.59 L997.51 20.57 L997.5 20.54 L997.52 20.55 L997.54 20.57 L997.55 20.58 L997.56 20.6 L997.55 20.6 L997.54 20.6 L997.53 20.6 Z M996.42 18.79 L996.44 18.85 L996.4 18.93 L996.39 18.9 L996.4 18.78 L996.37 18.74 L996.32 18.67 L996.3 18.63 L996.33 18.65 Z M994.9 17.54 L994.92 17.61 L994.93 17.72 L994.9 17.82 L994.84 17.87 L994.77 17.87 L994.76 17.8 L994.79 17.73 L994.86 17.68 L994.86 17.7 L994.84 17.72 L994.81 17.75 L994.79 17.78 L994.78 17.82 L994.81 17.84 L994.84 17.83 L994.86 17.79 L994.87 17.78 L994.9 17.74 L994.9 17.67 L994.88 17.59 L994.84 17.54 L994.86 17.52 L994.87 17.53 L994.88 17.54 Z M998.74 17.25 L998.79 17.29 L998.84 17.37 L998.89 17.46 L998.9 17.54 L998.86 17.51 L998.84 17.47 L998.82 17.41 L998.8 17.37 L998.75 17.3 L998.72 17.26 L998.7 17.21 L998.72 17.21 L998.73 17.22 Z M997.6 17.25 L997.65 17.34 L997.63 17.41 L997.61 17.39 L997.59 17.37 L997.53 17.35 L997.53 17.33 L997.56 17.33 L997.63 17.37 L997.62 17.32 L997.6 17.28 L997.53 17.21 L997.48 17.14 L997.45 17.12 L997.42 17.11 L997.42 17.13 L997.42 17.13 L997.43 17.15 L997.4 17.14 L997.41 17.11 L997.46 17.1 L997.51 17.11 L997.55 17.18 Z M994.06 16.88 L994.09 17.01 L994.1 17.05 L994.04 17.04 L994.02 16.98 L994.02 16.87 L994.01 16.83 L993.93 16.69 L993.95 16.69 L993.97 16.69 L993.99 16.71 L994 16.72 L994.01 16.77 Z M993.24 15.48 L993.25 15.51 L993.28 15.58 L993.31 15.7 L993.3 15.72 L993.3 15.72 L993.3 15.75 L993.26 15.79 L993.24 15.77 L993.22 15.75 L993.23 15.74 L993.26 15.73 L993.26 15.75 L993.26 15.75 L993.26 15.75 L993.26 15.77 L993.3 15.72 L993.3 15.72 L993.3 15.72 L993.29 15.66 L993.24 15.56 L993.2 15.3 L993.24 15.36 Z M993.14 15.24 L993.16 15.25 L993.19 15.27 L993.21 15.29 L993.17 15.3 L993.13 15.28 L993 15.18 L992.97 15.14 L993.01 15.14 L993.03 15.17 L993.11 15.23 Z M990.81 13.08 L990.78 13.05 L990.79 13.01 L990.85 12.96 L990.86 12.9 L990.84 12.88 L990.81 12.86 L990.77 12.84 L990.83 12.83 L990.85 12.84 L990.87 12.86 L990.87 12.89 L990.86 12.91 L990.86 12.95 Z M991.41 12.18 L991.58 12.27 L991.65 12.32 L991.66 12.38 L991.51 12.26 L991.41 12.21 L991.33 12.22 L991.34 12.2 L991.36 12.18 L991.37 12.17 L991.39 12.16 Z M989 11.09 L989.01 11.09 L989.01 11.08 L989.01 11.09 L989.01 11.1 L989.01 11.11 L989 11.1 L988.99 11.09 Z M988.98 11.08 L988.98 11.08 L988.99 11.09 L988.98 11.09 L988.97 11.09 L988.96 11.08 L988.95 11.07 L988.97 11.07 Z M989.26 10.71 L989.27 10.72 L989.27 10.77 L989.22 10.85 L989.18 10.88 L989.07 11.03 L989.02 11.08 L989.03 11.05 L989.08 11.01 L989.11 10.94 L989.17 10.89 L989.2 10.82 L989.22 10.79 L989.24 10.75 L989.25 10.72 L989.22 10.68 L989.17 10.65 L989.11 10.62 L989.07 10.6 L989.07 10.61 L989.07 10.64 L989.05 10.64 L989.05 10.61 L989.04 10.58 L989.03 10.56 L989.01 10.54 L989.05 10.54 L989.08 10.59 L989.23 10.68 Z M988.99 9.1 L988.98 9.1 L988.97 9.09 L988.96 9.09 L988.95 9.08 L988.94 9.02 L988.92 8.87 L988.9 8.82 L988.94 8.84 L988.96 8.93 Z M989.14 8.4 L989.15 8.5 L989.12 8.57 L989.05 8.59 L989.03 8.59 L989.02 8.58 L989.01 8.57 L989.11 8.56 L989.14 8.49 L989.14 8.41 L989.11 8.32 L989.11 8.32 L989.12 8.31 L989.12 8.31 L989.12 8.3 Z M988.99 8.1 L989.1 8.25 L989.11 8.27 L988.97 8.12 L988.93 8.05 L988.91 8.03 L988.87 7.98 L988.85 7.96 L988.86 7.93 L988.88 7.97 L988.95 8.03 L988.97 8.05 Z M49.38 8.44 L49.41 8.46 L49.43 8.52 L49.42 8.57 L49.37 8.55 L49.35 8.57 L49.32 8.58 L49.29 8.59 L49.26 8.59 L49.22 8.58 L49.2 8.56 L49.18 8.54 L49.15 8.52 L49.12 8.48 L49.11 8.47 L49.04 8.47 L48.76 8.38 L48.65 8.33 L48.55 8.26 L48.48 8.19 L48.42 8.16 L48.4 8.17 L48.37 8.17 L48.31 8.15 L48.27 8.1 L48.28 8.03 L48.3 8.01 L48.38 7.97 L48.42 7.96 L48.44 7.97 L48.45 7.98 L48.45 7.99 L48.41 8 L48.37 8.04 L48.36 8.09 L48.4 8.14 L48.43 8.15 L48.47 8.14 L48.5 8.15 L48.51 8.17 L48.53 8.19 L48.56 8.2 L48.63 8.2 L48.69 8.22 L48.71 8.22 L48.68 8.19 L48.65 8.17 L48.62 8.16 L48.59 8.14 L48.57 8.1 L48.61 8.12 L48.64 8.12 L48.66 8.09 L48.65 8.05 L48.68 8.07 L48.69 8.09 L48.7 8.13 L48.72 8.15 L48.75 8.17 L48.76 8.14 L48.76 8.11 L48.72 8.04 L48.71 8.01 L48.72 7.99 L48.73 7.97 L48.76 7.99 L48.78 7.98 L48.77 7.93 L48.8 7.95 L48.8 7.97 L48.8 8 L48.81 8.03 L48.84 8.04 L48.85 8.03 L48.86 8.02 L48.89 8 L48.9 7.98 L48.92 7.96 L48.92 7.94 L48.91 7.91 L48.9 7.9 L48.84 7.89 L48.76 7.85 L48.66 7.78 L48.64 7.77 L48.63 7.75 L48.6 7.73 L48.57 7.71 L48.55 7.74 L48.54 7.76 L48.51 7.76 L48.48 7.73 L48.48 7.69 L48.51 7.67 L48.57 7.67 L48.72 7.71 L48.83 7.79 L49.01 7.84 L49.04 7.84 L49.04 7.87 L49.03 7.9 L49.01 7.92 L48.97 7.94 L48.96 7.96 L48.94 8.03 L48.94 8.16 L49 8.23 L49.1 8.28 L49.21 8.35 L49.25 8.38 L49.29 8.41 L49.34 8.43 Z M988.33 4.82 L988.39 4.85 L988.44 4.83 L988.48 4.8 L988.51 4.75 L988.55 4.73 L988.67 4.72 L988.72 4.71 L988.72 4.73 L988.72 4.74 L988.7 4.77 L988.6 4.74 L988.51 4.8 L988.43 4.87 L988.39 4.88 L988.37 4.87 L988.35 4.86 L988.34 4.84 Z M988.93 4.51 L988.95 4.53 L988.95 4.54 L988.95 4.55 L988.89 4.56 L988.76 4.63 L988.72 4.63 L988.88 4.55 Z M43.42 2.42 L43.44 2.44 L43.48 2.5 L43.51 2.55 L43.52 2.58 L43.51 2.61 L43.48 2.64 L43.43 2.66 L43.35 2.68 L43.28 2.67 L43.23 2.64 L43.21 2.58 L43.26 2.58 L43.39 2.62 L43.42 2.6 L43.43 2.57 L43.42 2.53 L43.4 2.5 L43.38 2.48 L43.31 2.45 L43.28 2.43 L43.26 2.4 L43.24 2.34 L43.23 2.32 L43.19 2.32 L43.16 2.33 L43.13 2.35 L43.11 2.38 L43.19 2.52 L43.07 2.46 L43.08 2.34 L43.16 2.25 L43.26 2.28 L43.29 2.32 L43.3 2.35 L43.31 2.37 L43.32 2.41 L43.36 2.42 L43.39 2.41 Z M6.6 26.29 L6.63 26.33 L6.66 26.33 L6.7 26.33 L6.74 26.31 L6.66 26.37 L6.59 26.33 L6.58 26.27 L6.67 26.26 L6.66 26.26 L6.67 26.28 L6.65 26.28 Z M0.11 26.82 L0.12 26.83 L0.12 26.84 L0.09 26.82 L0.06 26.8 L0.08 26.8 Z M0.04 26.8 L0.04 26.8 L0.04 26.8 L0.03 26.79 L0 26.77 L0.01 26.77 L0.02 26.78 Z M0.12 26.82 L0.08 26.78 L0.04 26.75 L0.02 26.75 L0 26.73 L0.01 26.72 L0.05 26.75 L0.12 26.81 Z M9.34 26.12 L9.39 26.11 L9.42 26.13 L9.43 26.16 L9.41 26.19 L9.37 26.19 L9.34 26.18 L9.33 26.15 Z M9.82 22.37 L9.83 22.34 L9.84 22.31 L9.85 22.37 L9.84 22.41 L9.82 22.41 Z M979.19 15.95 L979.18 15.94 L979.18 15.94 L979.17 15.94 L979.16 15.94 L979.15 15.93 L979.15 15.93 L979.14 15.92 L979.15 15.91 L979.15 15.9 L979.15 15.89 L979.15 15.89 L979.15 15.89 L979.16 15.88 L979.17 15.87 L979.18 15.87 L979.2 15.87 L979.21 15.87 L979.22 15.88 L979.23 15.89 L979.24 15.89 L979.24 15.9 L979.24 15.9 L979.24 15.91 L979.24 15.91 L979.24 15.92 L979.24 15.93 L979.23 15.94 L979.23 15.94 L979.22 15.95 L979.22 15.95 L979.21 15.95 L979.2 15.96 L979.2 15.95 L979.19 15.95 Z M989.87 7.67 L989.86 7.65 L989.85 7.65 L989.84 7.64 L989.83 7.64 L989.81 7.63 L989.8 7.64 L989.79 7.66 L989.8 7.71 L989.81 7.73 L989.8 7.75 L989.79 7.77 L989.77 7.77 L989.78 7.77 L989.78 7.76 L989.78 7.74 L989.78 7.73 L989.78 7.71 L989.77 7.68 L989.78 7.67 L989.78 7.64 L989.79 7.62 L989.79 7.61 L989.81 7.59 L989.82 7.59 L989.83 7.6 L989.85 7.6 L989.86 7.62 L989.88 7.64 L989.88 7.64 L989.88 7.67 L989.89 7.72 L989.91 7.78 L989.92 7.81 L989.93 7.81 L989.94 7.82 L989.95 7.83 L989.95 7.84 L989.95 7.85 L989.94 7.86 L989.93 7.86 L989.93 7.87 L989.92 7.87 L989.91 7.87 L989.89 7.87 L989.85 7.87 L989.81 7.86 L989.78 7.85 L989.77 7.84 L989.77 7.8 L989.77 7.79 L989.78 7.78 L989.79 7.78 L989.79 7.79 L989.79 7.8 L989.79 7.81 L989.79 7.83 L989.81 7.84 L989.86 7.85 L989.88 7.85 L989.9 7.85 L989.91 7.85 L989.91 7.85 L989.92 7.84 L989.91 7.83 L989.91 7.82 L989.9 7.8 L989.89 7.79 L989.89 7.79 L989.89 7.78 L989.88 7.77 L989.88 7.75 L989.87 7.72 L989.87 7.71 L989.87 7.69 Z M40.22 0.04 L40.2 0.02 L40.22 0 L40.25 0 L40.28 0.01 L40.31 0.03 L40.3 0.05 L40.26 0.05 Z "/>
</g>
</svg>
