<svg xmlns="http://www.w3.org/2000/svg" viewBox="0 0 1000 944.37">
<g fill="#ccc" stroke="#333" stroke-width="0.5" stroke-linejoin="round">
<path fill-rule="evenodd" d="M744.9 63.33 L748.63 73.51 L754.11 82.76 L759.25 94.59 L761.6 107.42 L761.48 129.94 L763.15 144.31 L769.95 164.31 L783.7 193.4 L799.85 215.67 L813.76 215.08 L822.8 242.23 L834.96 269.26 L857.14 301.29 L867.46 325.13 L865.28 337.41 L853.57 339.12 L832.01 329.72 L820.96 322.95 L817.49 317.39 L807.18 315.85 L794.32 313.11 L784.82 311.47 L754.12 316.62 L738.57 330.09 L725.23 343.54 L692.94 361.57 L670.72 382.34 L659.1 400.81 L648 415.38 L624.07 426.7 L621.87 436.2 L616.88 445.16 L628.6 446.19 L648.15 442.7 L662.67 439.81 L674.38 435.28 L686.65 430.74 L693.93 435.15 L678.92 445.28 L678.96 452.52 L675.67 460.9 L688.55 469.73 L697.49 469.67 L707.51 466.26 L719.21 462.29 L722.47 447.79 L730.27 444.41 L740.33 447.69 L750.88 439.84 L756.41 430.9 L764.76 426.96 L768.58 430.49 L776.68 441.81 L777.79 443.41 L785.54 450.44 L790.9 452.3 L805.56 457.39 L825.02 453.41 L821.23 480.14 L820.71 491.27 L822.45 509.06 L828.11 535.72 L832.6 547.94 L839.85 559.61 L842.67 571.83 L855.65 653.93 L864.9 674.08 L891.15 713.47 L899.07 721.05 L919.32 727.8 L920.87 736.85 L918.64 748.69 L917.95 760.76 L922.32 772.59 L936.71 792.97 L939.79 800.25 L945.28 808.58 L957.65 813.83 L979.36 818.52 L974.22 827.75 L972.04 838.35 L972.6 849.31 L975.77 859.49 L967.8 853.92 L964.97 851.33 L964.33 856.07 L964.85 859.12 L967.2 861.39 L972.17 863.95 L968.23 869.05 L965.75 870.52 L963.69 869.66 L961.46 867.69 L957.87 867.69 L957.4 880.23 L962.23 883.2 L969.43 879.54 L975.77 872.15 L977.22 878.3 L979.36 907.13 L981.25 914.52 L985.53 922.57 L993.75 933.54 L999.83 940.05 L1000 940.19 L906.57 941.15 L812.99 942.11 L719.42 943.1 L625.88 944.09 L597.62 944.37 L593.25 928.47 L583.4 918.16 L571.33 909.63 L560.1 899.24 L552.13 885.65 L544.95 867.96 L539.89 849.67 L537.88 817.33 L535.43 802.19 L506.26 722.04 L480.91 678.62 L474.47 667.58 L474.41 667.56 L474.14 667.5 L474.09 667.5 L444.72 663.6 L392.34 656.68 L339.91 649.75 L287.49 642.81 L235.11 635.91 L176.24 628.57 L117.53 621.27 L58.79 613.99 L0 606.69 L15.28 589.57 L94.41 500.82 L127.37 445.22 L161.09 408.11 L168.92 396.27 L184.53 355.2 L223.85 289.9 L234.13 267.17 L235.44 261.07 L237.45 242.76 L240.17 234.05 L259.42 198.01 L304.18 83.45 L322.18 57.68 L349.76 38.9 L434.55 3.71 L464.84 0 L600.81 0 L630.94 5.88 Z M950.24 385.25 L958.47 388.5 L962.58 392.01 L968.66 397.18 L972.81 402.66 L976.97 408.17 L982.47 424.62 L981.36 430.74 L973.56 427.97 L968.55 426.87 L963.53 423.53 L949.03 410.75 L939 406.87 L925.08 404.68 L913.94 405.26 L914.36 389.43 L914.36 389.38 L920.18 380.24 L929.35 379.01 Z M957.87 235.79 L947.93 254.28 L931.74 274.91 L912.39 292.62 L892.77 302.32 L889.26 301.95 L870.03 299.88 L857.32 284.29 L838.94 240.31 L817.06 200.63 L813.98 196.93 L811.07 193.43 L800.53 187.16 L796.51 180.82 L806.57 173.71 L812.69 170.45 L824.08 162.48 L829.91 160.9 L831.88 157.4 L834.96 136.46 L826.61 133.1 L822.2 132.39 L817.15 132.63 L817.06 132.66 L822.29 123.64 L829.74 124.31 L842.54 132.66 L848.49 133.6 L855.77 133.05 L859.89 128.98 L856.89 119.5 L866.39 115.27 L874.19 110.45 L876.16 105.04 L867.72 99.14 L867.68 99.11 L861.68 98.3 L854.75 101.54 L849.74 99.11 L847.42 95.11 L846.14 88.74 L845.62 82.29 L846.14 78.06 L846.14 78.01 L836.85 78.13 L835.56 77.07 L833.68 75.46 L835.86 71.01 L842.54 65.97 L850.12 62.78 L857.57 62.34 L864.77 64.64 L871.58 69.7 L953.54 186.81 L961.46 208.72 Z M813.76 57.24 L810.38 60.48 L805.28 67.33 L802.97 69.7 L788.63 77.32 L784.73 78.01 L780.83 75.69 L777.92 71.58 L777.15 67.68 L784.43 62.63 L795.22 48.14 L801.05 44.83 L821.6 41.91 L821.64 41.91 L829.74 42.7 L828.11 48.99 Z "/>
</g>
</svg>
