<svg xmlns="http://www.w3.org/2000/svg" viewBox="0 0 1000 491.11">
<g fill="#ccc" stroke="#333" stroke-width="0.5" stroke-linejoin="round">
<path fill-rule="evenodd" d="M995.72 132.31 L996.28 134.16 L996.58 138.14 L997.01 140.13 L997.97 141.92 L999.08 143.45 L999.91 145.17 L1000 147.5 L997.61 151.36 L993.14 152.91 L970.38 152.63 L965.73 153.86 L962.41 155.24 L960.95 156.41 L959.68 158.2 L958.87 160.34 L957.85 164.88 L957.01 167.03 L953.76 170.12 L949.73 170.71 L945.44 170.6 L941.39 171.6 L936.28 175.25 L930.41 177.48 L923.26 182.43 L921.43 183.14 L919.3 183.18 L913.57 181.34 L911.59 181.83 L910.01 182.92 L905.72 186.97 L903.76 188.39 L901.82 189.23 L897.6 190.24 L894.05 191.67 L883.84 199.04 L878.37 200.08 L876.7 200.92 L868.53 206.72 L856.28 211.57 L855.02 212.29 L853.82 213.35 L853.13 214.66 L852.38 217.68 L851.48 218.87 L848.29 220.33 L841.62 221.73 L833.2 228.26 L829.59 229.93 L827.97 231.03 L826.48 232.9 L826.11 235.07 L827.7 239.72 L827.96 241.9 L827.03 243.96 L825.4 245.37 L821.78 247.53 L820.31 248.97 L818.04 252.38 L816.32 255.72 L813.88 260.43 L812.62 262.35 L811.31 263.82 L802.14 271.76 L800.53 272.38 L798.66 272.17 L795.14 270.52 L783.26 268.81 L780.03 268.94 L777 269.93 L765.03 276.35 L763.65 276.85 L761.97 277.01 L757.34 276.78 L750.34 278.78 L747.75 278.66 L745.06 277.27 L739.94 275.11 L734.88 274.03 L732 274.19 L726.74 275.83 L715.47 275.11 L712.73 274.16 L707.87 271.66 L705.4 271.19 L695.65 273.41 L692.09 274.92 L689.73 277.29 L688.46 279.17 L685.11 281.65 L683.56 283.15 L682.71 285.42 L683.03 287.72 L683.7 290.07 L683.92 292.45 L683.17 294.86 L681.75 296.37 L678.16 298.38 L675.16 301.04 L672.78 304.7 L671.23 309.01 L670.63 321.12 L670.32 323.06 L669.29 324.75 L664.48 328.5 L662.2 332.17 L659.27 340.56 L657.24 343.95 L654.76 346.4 L646.86 351.59 L643.97 354.43 L642.47 354.99 L641.18 353.53 L639.73 346.19 L638.83 344.19 L636.18 343.34 L633.58 346.28 L630.82 350.13 L627.77 352.04 L626.06 351.64 L622.68 349.76 L620.95 349.21 L618.73 349.42 L610.64 353.33 L609.45 355.02 L608.43 357.03 L606.93 359.06 L605.15 360.28 L603.21 360.71 L601.22 360.58 L595.35 359.09 L593.38 358.94 L591.43 359.15 L587.25 360.96 L585.2 361.13 L583.67 359.47 L582.89 357.4 L581.43 352.14 L581.26 349.9 L581.99 347.62 L583.19 345.98 L584.07 344.4 L583.85 342.27 L582.97 340.97 L580.41 338.57 L579.41 337.06 L578.77 334.8 L578.3 328.06 L576.67 322.98 L574.15 320.48 L570.88 320.45 L567.07 322.72 L547.26 338.7 L546.36 339.2 L545.29 339.43 L544.18 339.87 L543.7 340.81 L543.35 341.94 L542.66 342.93 L540.97 343.34 L539.28 342.52 L537.59 341.33 L535.91 340.64 L533.65 341.01 L529.23 343.03 L526.94 343.36 L523.61 342.62 L520.32 341.19 L512.44 335.73 L510.38 334.77 L508.47 334.95 L508.19 335.37 L507.08 337.06 L506.72 338.28 L506.63 338.71 L505.9 340.89 L504.78 343.4 L504.12 345.78 L504.78 347.59 L509.04 351.58 L510.15 353.15 L510.9 357.03 L508.07 357.78 L500.43 355.81 L498.44 355.68 L496.72 356.43 L492.06 361.15 L490.55 362.29 L487.01 364.17 L484 366.45 L475.95 375.29 L466.27 383.19 L463 384.63 L460.2 385.06 L457.43 384.61 L454.31 383.42 L451.16 382.72 L447.94 383.13 L444.79 384.44 L441.92 386.39 L439.04 387.7 L433.1 388.53 L430.63 390.56 L429.69 391.79 L428.93 393.19 L428.4 394.75 L428.19 396.47 L427.67 399.27 L426.15 401.25 L424.36 403.07 L423.06 405.41 L422.36 410.32 L421.93 411.68 L421.22 412.65 L418.61 414.86 L417.51 416.56 L416.7 418.69 L416.3 421 L416.41 423.28 L417.29 425.61 L418.52 426.39 L420.04 426.77 L421.81 427.86 L423.09 429.92 L423.64 432.39 L424.06 437.45 L426.11 443.76 L425.64 445.02 L423.61 446.27 L422.14 447.49 L421 449.18 L419.98 451.83 L418.97 455.88 L418.09 457.54 L416.49 458.42 L399.44 460.75 L396.87 459.42 L388.53 458.51 L385.32 458.82 L375.42 461.28 L373.2 462.82 L372.51 464.64 L372.31 466.29 L371.68 467.49 L366.51 468.46 L357.31 471.65 L354.42 471.88 L351.25 470.97 L349.65 470.19 L348.54 469.85 L347.39 470.08 L342.94 472.45 L341.58 472.54 L339.99 472.02 L334.33 470.79 L332.45 470.65 L328.54 471.49 L327.16 471.55 L310.41 467.15 L308.89 467.06 L307.32 467.54 L306.39 468.36 L304.65 470.54 L303.63 471.19 L302.15 471.16 L299.86 469.66 L298.49 469.27 L297.5 469.71 L294.66 472.74 L293.18 472.97 L291.65 472.89 L288.67 472.12 L287.09 472.18 L283.71 473.91 L281.73 474.18 L280.12 474.77 L279.02 476.55 L276.95 482.86 L273.22 491.03 L272.19 491.11 L272.17 491.08 L271.25 489.74 L270.4 487.82 L270.16 486.7 L270.15 485.8 L269.87 485.07 L267.97 484.07 L266.59 482.97 L265.82 482.52 L261.91 481.87 L260.03 481.06 L259.21 479.3 L259.06 476.82 L258.52 473.85 L257.51 471.29 L255.95 470.07 L254.3 470.32 L251.12 472.06 L247.74 472.77 L246.21 473.57 L237.25 479.89 L233.95 481.32 L230.63 481.71 L228.89 481.16 L227.23 479.89 L225.91 478.02 L225.23 475.69 L225.42 473.28 L226.35 471.82 L227.57 470.57 L228.61 468.82 L228.94 466.46 L228.71 463.43 L227.89 460.75 L226.46 459.45 L224.66 459.5 L215.43 461.45 L211.04 461.24 L207.28 459.51 L205.4 455.42 L206.17 453.6 L208.47 450.19 L208.96 448.44 L208.42 446.55 L207.1 444.79 L206.99 444.69 L205.48 443.36 L202.45 441.5 L200.79 441.67 L197.66 443.14 L195.08 443.61 L194.2 443.92 L193.57 444.39 L192.32 445.72 L191.66 446.25 L188.52 447.96 L187.26 448.93 L184.36 452.25 L183.39 452.99 L182.27 452.98 L177.1 451.97 L173.25 452.19 L169.48 453.23 L166.49 455.19 L164.62 458.45 L163.29 462.29 L161.63 465.52 L158.72 467.02 L156.24 466.33 L154 464.9 L152.03 463.97 L150.32 464.79 L149.21 466.07 L148.48 466.35 L147.67 466.22 L146.29 466.25 L145.2 466.59 L142.44 468.14 L139.95 468.52 L137.2 468.03 L134.8 466.6 L133.42 464.19 L133.47 462.73 L133.87 461.17 L134.09 459.55 L133.57 457.95 L132.7 457.12 L130.58 456.22 L129.6 455.42 L129.6 455.4 L129.57 455.31 L127.79 449.68 L126.53 447.21 L124.33 445.53 L122.74 445.33 L119.41 445.95 L117.83 445.79 L116.69 445.1 L114.64 443.29 L113.4 442.78 L111.83 442.98 L108.9 444.09 L107.4 444.4 L106.53 444.71 L105.98 445.33 L105.53 445.98 L104.98 446.35 L104.07 446.33 L102.18 445.75 L101.25 445.64 L100.08 446.09 L91.99 452.05 L90.38 452.44 L88.81 451.85 L88.66 450.19 L89.63 445.97 L89.61 443.97 L89.2 441.78 L88.33 440.63 L86.93 441.7 L84.4 447.17 L83.64 448.3 L82.14 448.8 L80.68 448.26 L77.64 446.48 L75.78 446.05 L73.8 446.03 L71.92 446.62 L70.39 448 L68.97 450.02 L68.21 450.63 L65.48 449.38 L61.78 448.98 L54.77 450.42 L51.24 449.34 L47.46 447.18 L43.88 445.97 L40.17 445.53 L32.27 446.03 L30.7 446.67 L27.66 449.31 L26.12 450.26 L24.46 450.85 L22.75 451.11 L20.76 451.1 L16.85 451.74 L14.97 451.09 L12.77 448.81 L12.27 448.46 L11.4 448.85 L11.07 449.61 L10.84 450.52 L10.28 451.38 L6.71 452.84 L5.43 450.01 L5.88 435.99 L5.55 433.77 L4.88 431.82 L3.59 430.23 L2 428.86 L0.64 427.3 L0 425.14 L0.3 420.47 L1.31 415.94 L5.45 403.32 L7.2 399.44 L7.59 398.25 L7.62 397.52 L7.95 397.27 L9.21 397.53 L11.88 400.52 L16.23 408.01 L24.95 404.89 L24.85 403.33 L22.75 399.49 L22.83 398.68 L22.75 397.9 L22.56 397.18 L22.2 396.47 L21.47 392.72 L22.06 389.69 L23.52 387 L25.39 384.25 L25.65 383.47 L26.03 381.43 L26.44 380.91 L27.18 381.13 L28.13 382.95 L28.71 383.52 L30.15 383.68 L31.65 383.46 L67.38 370.65 L70.55 370.98 L83.48 379.5 L85.44 380.13 L89.95 379.84 L92.03 380 L94.02 381.01 L95.32 382.45 L96.45 384.1 L97.9 385.69 L99.53 386.55 L102.73 386.96 L106.18 388.48 L113.4 389.57 L115.66 390.28 L117.77 391.74 L118.69 393.84 L117.36 396.47 L115.92 397.49 L114.42 398.26 L113.03 399.26 L111.86 400.92 L111.01 403.13 L110.75 405.19 L111.44 406.74 L113.4 407.44 L114.19 406.42 L114.94 403.81 L115.54 402.76 L116.6 402.21 L120.45 402.08 L122.41 401.38 L124.22 400.23 L125.79 398.59 L127.01 396.45 L127.79 392.35 L127.68 388.7 L128.1 385.67 L130.51 383.39 L136.3 381.43 L137.53 380.67 L141.08 377.65 L141.64 376.89 L141.95 376.61 L142.45 376.54 L142.9 376.75 L143.21 377.05 L143.27 377.23 L144.92 376.35 L145.54 375.8 L146.75 375.37 L151.59 376.46 L154.38 375.51 L157.42 373.25 L158.93 370.35 L157.07 367.47 L160.35 364.12 L165.61 363.21 L176.14 364.73 L179.01 364.44 L180.29 362.43 L181.09 359.81 L182.51 357.64 L183.8 357.24 L184.72 357.98 L185.52 359.23 L186.46 360.33 L187.72 360.88 L189.21 361.02 L192.06 360.71 L193.89 360.84 L196.74 363.53 L200.8 364.79 L201.67 366.22 L202.39 367.97 L204.04 369.55 L205.97 370.77 L208.04 371.58 L212.3 372.43 L214.54 372.21 L215.33 370.84 L215.55 368.79 L216.1 366.52 L217.75 365.03 L219.35 366.43 L220.63 369.12 L221.27 371.53 L221.24 376.4 L221.8 378.21 L223.64 379.01 L224.9 378.63 L229.66 375.81 L231.13 374.41 L232.11 372.79 L233.81 369.02 L236.62 366.18 L239.92 365.99 L243.49 366.87 L247.07 367.17 L248.12 366.83 L248.65 366.75 L249.36 366.91 L250.45 367.36 L251.88 367.6 L253.15 367.27 L253.74 365.98 L253.24 365.05 L252.64 364.65 L251.98 364.21 L249.36 362.99 L247.65 361.75 L247.01 359.96 L247.51 358.28 L255.35 354.28 L257.75 351.89 L259.06 348.56 L259.61 346.34 L260.44 345.11 L266.48 341.77 L268 341.37 L272.14 341.15 L272.83 341.12 L274.49 341.31 L275.32 341.98 L275.34 342 L274.97 343.2 L273.66 343.64 L272.12 343.78 L271.07 344.09 L270.64 345.17 L270.63 345.2 L271.78 345.58 L275.88 345.39 L277.21 345.89 L282.57 349.04 L285.03 349.96 L287.16 349.51 L289.01 346.98 L289.98 343.97 L290.08 341.18 L290.07 341.16 L289.52 339.79 L289.12 338.81 L289.11 338.8 L285.19 335.95 L284.39 334.87 L284.39 334.86 L284.37 333.53 L284.98 331.59 L284.99 329.45 L284.97 329.43 L283.03 326.15 L283.03 326.14 L283.34 324.17 L286.03 322.96 L289.05 325.62 L292.04 329.13 L294.66 330.43 L298.15 330.9 L304.54 335.3 L308.14 335.09 L309.54 333.97 L310.41 332.5 L310.83 330.81 L310.95 329.05 L311.65 327.06 L313.3 327.07 L316.64 328.6 L319.28 327.38 L320.34 319.42 L322.5 316.09 L325.68 314.72 L332.21 313.05 L339.99 308.15 L348.49 304.99 L352.79 302.54 L355.57 298.85 L355.09 296.44 L355.08 296.44 L354.33 296.27 L352.29 295.8 L346.95 296.14 L345.11 294.84 L343.85 293.08 L342.4 292.09 L335.69 295.2 L331.5 298.14 L330.34 298.32 L330.58 296.32 L330.19 292.81 L326.69 291.86 L315.01 292.92 L311.11 292.45 L307.6 290.9 L304.79 287.81 L300.9 281.73 L299.15 281.05 L296.9 280.89 L295.26 280.04 L295.28 277.29 L295.43 276.56 L295.38 275.94 L295.13 275.45 L294.66 275.09 L289.83 274.62 L287.27 273.86 L285.37 272.67 L282.78 268.58 L281.57 267.75 L279.91 269.09 L279.43 269.96 L278.39 273.13 L277.71 273.68 L274.37 274.15 L269.16 275.74 L266.41 276.58 L267.65 273.72 L268.27 271.57 L268.27 269.22 L267.43 262.94 L267.27 259.5 L266.84 256.22 L265.8 253.91 L263.49 252.53 L261.28 252.88 L259.17 254.27 L257.21 256.04 L254.5 257.67 L252.94 256.84 L251.55 254.85 L249.36 253.02 L242.16 254.26 L239.8 253.11 L239.32 248.04 L239.55 242.89 L239.02 238.92 L237.57 235.34 L229.06 222.6 L228.34 221.93 L227.58 221.62 L227 222.13 L226.94 224.68 L226.21 225.32 L225.35 224.93 L224.87 222.98 L223.89 222.58 L223.47 223.25 L223.1 224.57 L222.56 225.55 L221.7 225.23 L221.63 223.77 L223.29 216.97 L223.28 214.45 L222.81 212.1 L221.65 210.48 L219.67 210.18 L217.66 210.99 L216.57 212.33 L214.77 216.98 L214.78 216.98 L214.78 217.01 L215.69 219.02 L218.23 222.32 L218.57 224.53 L218.18 226.95 L216.88 231 L213.87 237.55 L211.37 240.18 L208.27 240.79 L204.36 239.09 L199.99 234.98 L198.75 234.67 L198.19 236.2 L198.99 257.01 L198.51 261.19 L196.47 262.95 L190.27 257.59 L188 260.51 L187.03 262.82 L185.82 262.9 L184.66 261.66 L183.8 259.98 L182.68 255.44 L181.65 253.98 L179.5 253.8 L177.62 254.83 L177.38 256.5 L177.82 258.66 L178.01 261.18 L177.12 263.51 L175.69 262.54 L173.4 258.66 L171.95 257.48 L168.56 257.02 L166.91 256.09 L165.05 254.61 L163.03 253.68 L158.72 252.89 L154.82 253.48 L153.01 253.29 L151.36 251.71 L150.11 249.98 L148.62 248.45 L146.99 247.26 L145.24 246.53 L143.2 246.73 L141.44 247.57 L139.98 247.81 L138.85 246.16 L138.7 244.05 L140.04 236.65 L139.87 234.1 L139 231.64 L133.92 222.82 L132.39 220.76 L130.68 219.68 L127.59 220.15 L116.49 226.56 L113.4 227.75 L112.81 227.72 L111.22 227.65 L109.85 226.37 L107.63 222.18 L106.31 220.46 L104.79 219.07 L101.41 217.01 L101.39 216.99 L101.37 216.98 L101.36 216.97 L88.58 215.54 L85.24 213.77 L83.58 209.87 L85.48 206.73 L100.16 198.09 L105.57 193.79 L108.53 192.35 L111.26 190.51 L113.4 187.31 L116.05 181.58 L120 176.9 L128.97 169.19 L131.75 167.52 L140.78 166.48 L143.93 165.28 L144.94 163.23 L145.2 156.23 L146.78 151.76 L150.52 150.77 L154.98 150.97 L158.72 150.07 L171.52 140.46 L179.01 138.27 L182.38 135.89 L183.74 131.33 L183.44 131.23 L180.54 130.25 L167.82 121.09 L164.94 119.89 L162.06 120.29 L158.03 123.26 L156.06 125.14 L153.41 124.5 L151.53 123.49 L147.93 119.88 L147.43 118.04 L148.53 116.14 L150.71 114.05 L151.76 113.05 L154.69 109.44 L155.33 108.01 L155.11 107.16 L154.6 106.33 L154.44 105.01 L155 102.64 L156.04 100.22 L157.34 98.15 L158.72 96.84 L163.03 99.65 L164.51 99.79 L165.75 99.1 L166.61 97.88 L166.8 96.43 L166.03 95.04 L166.02 95.04 L166.01 95.03 L166.01 95.02 L162.85 92.21 L161.94 91.03 L161.08 86.42 L164.47 84.32 L172.3 83.08 L173.73 81.61 L174.21 79.78 L174.06 74.92 L174.3 72.32 L175.07 71.09 L178.49 69.94 L179.96 68.96 L181.08 67.39 L183.04 63.79 L184.59 62.99 L186.6 63.63 L188.75 64.65 L190.68 65.03 L192.3 64.32 L193.7 62.92 L194.9 61.17 L195.87 59.35 L197.47 57.89 L199.66 57.8 L204.04 59.29 L205.54 58.63 L206.49 58.54 L207.41 59.02 L210.99 62.09 L212.13 62.54 L213.69 62.24 L223.66 55.8 L226.64 54.83 L233.01 54.5 L236.16 53.36 L237.64 53.05 L239.04 53.67 L240.46 54.62 L241.96 55.27 L247.54 56.69 L258.03 62.55 L260.95 63.39 L262.32 63.21 L264.93 61.95 L266.32 61.57 L277.94 62.07 L283.93 64.49 L294.66 71.75 L297.83 72.37 L304.36 72.28 L317.24 75.41 L320.06 76.97 L322.2 79.41 L325.34 85.25 L327.66 87.38 L330.72 88.82 L333.78 89.69 L336.87 89.8 L348.49 87.85 L352.52 87.98 L355.93 89.41 L357.75 90.81 L359.23 91.68 L360.84 92.12 L367.32 92.58 L369.41 93.36 L370.79 95.01 L370.5 98.76 L370.59 101.41 L371.66 103 L379.94 104.42 L385.32 106.63 L387.88 106.16 L387.92 103.95 L387.88 103.87 L381.34 91.18 L379.94 87.32 L379.26 83.2 L379.5 78.56 L380.52 74.19 L385.32 63.32 L387.74 57.99 L388.06 56.1 L387.81 53.85 L386.69 49.72 L386.47 47.64 L386.78 45.52 L387.52 43.74 L389.39 40.42 L392.83 30.36 L393.85 28.55 L395.27 27.26 L399.57 24.76 L415.12 18.27 L416.68 17.95 L420.44 18.1 L423.83 16.26 L426.86 7.71 L429.6 5.57 L431.42 6.22 L434.69 9.38 L436.36 9.93 L450.63 8.2 L452.13 7.35 L452.38 5.57 L451.42 3.43 L448.95 0 L451.57 1.48 L456.19 5.72 L458.76 6.78 L461.76 7.47 L464.36 8.79 L469.05 12.71 L470.87 13.66 L474.69 14.06 L477.91 16.24 L481.63 17.26 L483.34 18.23 L484.6 19.83 L486.86 23.78 L488.16 25.29 L497.46 32.52 L500.62 33.75 L510.96 35.5 L518.73 39.34 L521.3 41.62 L523.88 42.86 L529.39 44.57 L531.94 46.09 L534.1 47.8 L539.58 51.12 L541.95 51.67 L547.98 51.6 L568.41 54.3 L571.98 53.92 L573.79 54.14 L579.64 56.6 L581.97 56.5 L584.61 55.36 L587.2 53.49 L589.35 51.24 L590.32 49.65 L593.25 41.72 L594.29 40.77 L595.66 40.41 L596.56 40.34 L601.26 39.96 L604.8 40.47 L611.92 42.57 L613.97 42.71 L619.9 40.69 L622.26 40.65 L628.89 42.27 L637.12 42.27 L644.91 44.69 L645.88 44.54 L647.68 43.7 L648.76 43.65 L649.7 44.24 L650.71 46.22 L651.58 46.69 L653.21 46.18 L655.92 43.53 L657.61 42.79 L660 43.1 L664.7 45.11 L667.08 45.54 L668.97 45.08 L672.46 43.52 L676.49 43.61 L678.22 43.2 L681.69 41.32 L682.07 40.86 L682.18 40.3 L682.39 39.85 L683.06 39.69 L684.71 40.03 L685.23 39.98 L685.93 39.56 L687.85 37.28 L689.6 36.01 L691.41 35.71 L695.42 35.66 L699.02 34.24 L700.79 33.93 L702.56 34.71 L712.85 36.45 L715.94 37.6 L716.94 38.49 L719.54 42.17 L720.89 43.26 L722.38 43.65 L723.91 43.66 L725.51 43.68 L734.44 45.19 L737.41 44.33 L741.25 42.45 L742.64 42.14 L744.04 42.24 L746.56 43.11 L750.16 43.09 L751.93 44.04 L753.51 45.35 L755.26 46.36 L756.77 46.4 L761.53 44.08 L763.42 43.72 L769.41 43.95 L775.52 45.43 L776.09 46.17 L776.46 46.99 L777.05 47.67 L778.12 48.44 L780.44 47.39 L781.95 46.38 L782.77 46.03 L784.82 45.73 L786.92 45.97 L788.94 46.75 L794.1 49.82 L798.12 50.5 L807.85 49.6 L811.99 49.82 L816.18 49.22 L817.93 49.54 L821.65 50.9 L823.56 51.01 L825.12 50.42 L828.41 48.29 L830.3 47.59 L834.29 47.28 L840.32 47.91 L849.22 51.05 L852.95 53.24 L856.08 55.88 L857.64 56.69 L868.59 57.8 L875.86 60.81 L881.86 61.16 L885.36 62.55 L888.8 62.67 L895.86 59.07 L899.44 58.37 L901.72 59.03 L902.39 60.28 L901.88 65.03 L901.96 67.88 L902.49 70.39 L903.42 72.71 L904.71 74.97 L907.95 78.26 L915.13 81.66 L918 84.72 L922.11 94.61 L924.59 97.97 L929.19 99.89 L937.85 100.44 L945.15 99.02 L949.14 99.17 L969.21 103.52 L973.04 106.09 L974.29 107.57 L977.75 112.71 L983.63 118.08 L986.63 122.05 L989.03 126.27 L991.76 129.96 Z M232 396.94 L229.74 397.65 L226.43 400.14 L224.87 400.92 L222.59 401.04 L221.12 402.8 L222.01 404.5 L223.96 405.91 L225.71 406.75 L228.03 407.46 L229.44 407.18 L230.33 405.72 L232.38 398.17 Z M176.83 390.75 L176.14 390.66 L175.79 390.44 L175.48 390.17 L170.4 388.04 L167.94 386.41 L166.39 384.45 L165.13 381.21 L163.62 378.32 L161.57 377.04 L158.72 378.6 L157.15 382.29 L156.62 384.38 L156.52 386.35 L157.02 388.26 L159.26 393.19 L160.29 394.67 L161.48 395.31 L163.9 395.83 L164.94 396.67 L165.35 400.12 L161.48 406.23 L161.63 409.24 L162.77 409.82 L164.06 409.02 L165.3 407.79 L166.32 407.06 L168.04 407.15 L168.47 408.16 L168.7 409.46 L169.75 410.44 L171.09 410.57 L175.38 409.41 L178.43 409.35 L179.69 408.88 L180.65 407.44 L180.83 403.8 L176.84 399.49 L176.63 396.44 L178.1 394.99 L182.3 392.04 L182.91 390.19 L182.21 389.09 L181.07 388.87 L178.76 389.5 L178.28 389.77 L177.28 390.59 Z M115.35 409.69 L113.99 409.65 L113.89 411.48 L114.57 413.44 L115.78 415.17 L118.85 417.32 L119.75 418.46 L122.34 422.89 L122.86 423.3 L127.52 419.54 L130.11 418.2 L133.1 417.61 L134.03 416.75 L134.17 414.64 L133.5 412.46 L132.38 412.17 L129.51 413.48 L126.33 413.37 Z "/>
</g>
</svg>
