<svg xmlns="http://www.w3.org/2000/svg" viewBox="0 0 1000 1195.02">
<g fill="#ccc" stroke="#333" stroke-width="0.5" stroke-linejoin="round">
<path fill-rule="evenodd" d="M267.15 14.08 L268.04 16.07 L268.83 17.49 L270.15 22 L270.52 22.51 L271.67 23.38 L272.1 24.01 L272.1 24.78 L271.66 26.47 L271.87 27.35 L273.79 29.5 L276.07 31.11 L277.97 32.95 L278.82 35.82 L281.37 38.24 L289.32 42.29 L298.79 51.61 L302.93 54.13 L304.17 55.3 L305.04 56.81 L306.34 60.35 L307.25 61.95 L309.96 64.06 L313.26 65.98 L315.28 67.77 L314.12 69.56 L313.74 69.97 L313.45 70.42 L313.22 70.93 L313.1 71.49 L314.64 76.87 L319.64 79.49 L325.5 81.45 L329.57 84.88 L334.08 95.23 L335.33 101.05 L334.69 109.4 L334.97 112.64 L335.62 115.86 L336.48 118.08 L337.45 119.54 L337.82 119.75 L338.35 119.45 L345.33 119.32 L346.77 118.99 L350.86 116.25 L353.84 112.42 L355.42 107.86 L355.75 96.42 L358.07 94.17 L360.68 96.28 L361.8 102.78 L361.4 108.45 L361.83 111.2 L363.42 112.9 L365.71 112.73 L375.29 108.55 L376.03 107.99 L376.72 108.26 L377.8 110.13 L378.32 111.68 L378.56 113.32 L378.44 123.09 L378.88 126.53 L380.19 129.65 L380.3 130.04 L380.35 130.45 L380.3 130.86 L380.19 131.26 L377.55 133.82 L372.59 140.03 L369.74 142.63 L363.75 152.55 L365.74 151.59 L368.39 149.91 L370.95 148.68 L372.78 149.05 L372.62 150.68 L368.26 157.81 L367.71 160.72 L367.6 167.21 L367.12 169.6 L365.51 171.23 L361.04 172.35 L358.87 174.05 L357.36 176.76 L358.4 177.36 L360.91 177.09 L363.82 177.2 L365.79 177.98 L367.51 179.2 L368.8 180.71 L369.47 182.39 L369.31 183.68 L368.15 186.5 L368.15 187.87 L368.96 189.29 L369.86 189.55 L370.95 189.6 L372.31 190.42 L373.79 192.8 L373.82 192.94 L375.06 198.36 L375.97 200.84 L376.59 202.11 L377.22 203.09 L378.26 203.54 L380.19 203.28 L383.51 204.73 L385.53 207.12 L388.52 213.5 L392.63 222.58 L395.07 226.73 L398.85 231.48 L400.8 233.39 L401.64 234.01 L403.04 234.64 L405.43 234.97 L406.77 235.32 L407.88 235.91 L409.66 237.21 L410.96 237.67 L412.5 237.7 L413.46 237.41 L415.08 236.92 L416.27 236.8 L418.42 237.42 L425.88 241.45 L429.56 242.69 L430.97 242.88 L431.69 242.9 L435.04 241.96 L435.27 241.89 L437.96 240.36 L438.89 239.48 L439.29 238.59 L439.99 238.22 L441.82 238.92 L443.42 240.54 L445.84 245.26 L447.26 247.1 L448.28 247.86 L449.34 248.45 L450.48 248.78 L451.82 248.84 L451.82 248.87 L459.99 250.63 L462.56 252.12 L467.67 257.71 L470.56 260.26 L470.98 260.82 L471.54 261.17 L472.99 261.42 L474.19 261.26 L475.81 260.71 L477.24 259.98 L478 259.28 L477.94 258.13 L476.6 255.38 L476.43 254.05 L477.08 252.19 L477.89 251.64 L479.03 251.49 L480.66 250.91 L483.33 249.22 L483.86 248.25 L483.41 246.89 L483.13 243.99 L483.62 241.71 L484.73 238.85 L486.1 236.21 L487.39 234.65 L488.86 234.15 L491.54 234.52 L492.88 234.41 L494.06 233.76 L496.01 231.99 L497.08 231.31 L506.79 228.17 L509.44 226.97 L510.78 226.62 L512.33 226.68 L517.16 225.86 L523.25 218.68 L527.96 218.35 L528.87 218.85 L530.86 220.35 L531.97 220.9 L533.22 221.11 L536.21 221.17 L537.62 221.38 L541.38 222.78 L542.36 223.41 L543.13 224.51 L544.51 227.43 L544.98 228.14 L545.9 228.09 L548.87 227.25 L550.12 227.16 L551.32 227.55 L552.62 228.2 L553.81 229.02 L554.78 229.86 L556.36 232.01 L558.48 236.36 L560.21 238.46 L561.31 239.22 L563.38 240 L564.39 240.71 L565.1 241.75 L566.2 244.21 L567.18 245.25 L569.85 246.07 L572.87 245.99 L575.58 246.29 L577.36 248.27 L578.62 252.71 L580.82 254.98 L587.64 258.28 L595.15 260.85 L597.06 262.84 L596.91 263.38 L596.01 266.71 L587.47 278.48 L584.58 280.8 L581.28 281.83 L577.83 281.23 L574.56 278.63 L571.77 284.16 L571.75 284.16 L564.19 289.37 L563.31 292.01 L567.5 294.7 L572.9 296.06 L591.81 295.64 L593.65 296.66 L596.68 300.9 L598.81 302.44 L603.83 304.41 L605.75 305.94 L606.24 307.06 L606.64 308.65 L606.85 310.3 L606.76 311.57 L605.87 313.48 L604.84 313.78 L603.75 313.73 L602.63 314.58 L602.13 316.44 L601.92 319.3 L602.06 322.17 L602.59 324.01 L607.06 326.28 L612.7 325.13 L618.68 323.12 L624.01 322.84 L635.75 329.27 L635.88 330.33 L635.15 331.84 L635.34 335 L637.12 337.66 L642.21 341.03 L643.21 343.24 L642.78 343.8 L640.97 344.16 L640.51 344.5 L640.46 345.37 L640.83 346.6 L641.08 349.21 L641.5 350.91 L641.73 352.64 L641.24 354.57 L640.73 355.01 L639.41 356.17 L637.66 356.44 L633.76 355.98 L631.24 356.38 L630.6 357.07 L630.36 358.28 L629.13 360.24 L626.15 362.53 L618.93 366.86 L616.43 370.04 L615.61 372.64 L616.29 373.42 L620.2 373.67 L622.7 374.51 L623.68 375.29 L623.71 376.57 L623.47 378.9 L622.14 383.33 L619.53 385.29 L616.29 386.75 L613.12 389.68 L610.61 390.45 L608.82 390.66 L607.17 391.11 L605.09 392.62 L603.38 394.51 L602.29 396.37 L598.1 407.59 L596.94 409.08 L595.71 409.21 L593.44 407.88 L592.31 407.59 L591.12 407.98 L589.08 409.36 L587.94 409.85 L584.85 410.21 L582.61 409.73 L575.11 405.19 L571.77 403.7 L570.66 402.99 L568.79 401.08 L567.53 399.34 L565.99 398.16 L563.34 397.85 L560.94 398.47 L554.78 402.42 L552.37 398.35 L547.76 396.77 L546.02 395.25 L542.22 396.29 L536.66 397.81 L533.78 397.85 L533.11 398.55 L532.21 399.47 L531.25 401.56 L530.2 402.42 L527.49 402.84 L524.97 401.98 L518.64 398.7 L517.12 398.26 L515.89 398.79 L515.13 401.02 L515.45 402.75 L518.06 410.06 L519.59 412.08 L523.72 414.59 L525.22 415.85 L526.07 418.13 L526.24 420.54 L526.67 422.84 L528.18 424.76 L528.2 424.77 L527.65 426.43 L526.5 427.05 L525.08 427.37 L523.76 428.17 L522.9 429.67 L522.36 432.91 L521.91 434.31 L520.89 436.28 L520.82 436.35 L520.4 435.82 L518.46 436.06 L515.32 437.19 L512.33 438.77 L509.53 439.43 L507.97 440.77 L505.36 444.78 L503.33 446.31 L498.59 448.4 L496.83 449.76 L495.73 452.18 L497.07 452.82 L499.47 452.75 L501.58 453.02 L503.33 456.36 L503.99 457.34 L504.92 458.02 L508.25 459.78 L512.16 462.62 L512.33 462.62 L515.13 461.43 L517.9 461.28 L520.62 461.93 L535.29 468.56 L540.58 472.24 L541.94 473.59 L542.42 476.37 L542.43 478.87 L543.6 480.05 L547.42 478.91 L550.07 479.57 L550.11 479.58 L552.02 481.07 L553.72 482.88 L555.79 484.53 L558.31 485.68 L560.58 486.42 L562.7 487.44 L564.92 489.44 L568.72 495.21 L570.37 496.49 L572.73 497.02 L576.83 496.59 L579.32 497.25 L581.53 498.61 L583.14 500.23 L587.69 507.15 L589.25 508.6 L593.69 511.02 L595.58 512.48 L599.18 516.15 L601.16 517.52 L602.5 517.92 L605.05 518.13 L606.36 518.61 L607.06 519.37 L608.6 521.72 L609.62 522.61 L611.17 523.18 L616.58 523.96 L621.7 525.54 L623.51 525.74 L631.12 525.14 L634.61 526.17 L635.92 529.65 L637.3 531.06 L639.62 531.68 L642.21 531.6 L644.45 530.99 L646.61 531.42 L653.24 535.32 L656.44 536.49 L658.08 536.37 L659.63 535.94 L661.16 535.74 L662.8 536.25 L666.56 542.57 L669.43 544.53 L670.31 545.71 L670.31 547.41 L670.31 547.9 L669.33 550.22 L668.01 550.42 L666.45 549.91 L664.84 550.12 L662.92 552.64 L661.19 556.78 L659.18 564.5 L658.48 570.27 L659.91 574.15 L662.97 577.13 L667.13 580.18 L669.43 582.57 L669.35 584.26 L668.52 586.11 L668.61 589 L669.87 590.82 L676.29 594.85 L677.05 595.83 L678.21 597.98 L679.09 598.8 L680.48 599.22 L681.86 599.07 L685.32 598.7 L685.97 598.25 L686.57 598.34 L687.46 599.83 L687.67 601.37 L686.81 604.71 L686.9 606.29 L688.29 608.31 L690.44 609.84 L692.86 610.87 L694.95 611.42 L695.92 611.91 L696.22 612.49 L696.58 612.64 L697.79 611.84 L698.33 610.86 L698.93 607.77 L699.71 606.48 L702.1 605.42 L704.92 605.6 L707.57 606.69 L709.59 608.33 L710.39 609.57 L711.46 613.35 L711.5 614.2 L711.23 614.93 L710.92 615.46 L710.82 615.79 L711.42 616.3 L712.93 616.66 L713.47 617.06 L715.64 621.97 L716.72 622.93 L719.02 624.21 L720.13 625.29 L720.84 626.82 L721.33 629.99 L721.82 631.35 L722.73 632.34 L725.85 634.07 L725.85 634.1 L727.65 637.76 L728 638.47 L726.43 649.03 L727.89 653.73 L733.01 658.47 L736.42 664.99 L739.36 669.02 L740.58 671.3 L742.24 676.59 L743.46 678.81 L745.08 680.12 L751.97 683.17 L756.26 686.01 L759.71 689.28 L768.32 700.53 L771.09 703.45 L771.12 703.45 L782.61 717.47 L804.56 736.45 L807.45 737.99 L809.37 738.18 L810.9 737.2 L812.82 735.23 L813.41 734.08 L813.73 732.88 L814.41 732.05 L816.08 731.96 L817.66 732.66 L817.94 733.8 L817.81 735.27 L818.11 736.95 L818.79 737.9 L820.62 739.83 L821.1 740.64 L820.99 741.92 L819.92 744.12 L819.81 745.56 L820.54 747.64 L824.53 754.27 L830.89 760.25 L832.25 762.65 L832.17 763.45 L831.32 764.9 L831.22 765.53 L833.45 770.02 L834.08 771.3 L834.42 772.62 L834.42 772.64 L835.59 773.61 L837.83 774.75 L840.39 775.7 L842.66 776.09 L845.71 777.03 L849.37 773.53 L850.55 775.82 L850.57 778.87 L850.77 815.74 L851.51 819.11 L852.71 822.05 L855.7 825.39 L858.21 826.92 L860.87 828.01 L862.64 828.16 L864.66 829.1 L865.2 830.66 L864.59 838.05 L864.79 839.62 L866.64 845.07 L868.69 848.71 L871.62 850.98 L875.56 850.35 L875.54 851.85 L875.96 852.47 L876.85 852.41 L878.17 851.86 L879.37 850.93 L879.5 850.83 L879.75 849.79 L879.78 848.73 L880.38 847.6 L883.94 845.3 L885.42 843.88 L885.96 841.59 L888.8 836.78 L891.95 836.91 L894.24 840.49 L894.61 846.03 L894.05 850.61 L893.89 850.98 L893.47 851.43 L893.16 852.02 L893.16 852.81 L893.69 853.2 L894.57 852.89 L895.4 852.44 L895.86 852.34 L897.46 856.08 L898.69 857.78 L900.97 859.68 L904.21 861.48 L905.07 862.25 L905.69 863.6 L906.14 866.69 L906.46 867.63 L907.88 868.61 L909.59 868.83 L914.1 868.68 L919.26 869.25 L921.19 869.86 L921.54 869.97 L923.98 871.2 L926.51 873.07 L927.65 874.85 L929.05 882.23 L929.83 883.98 L930.18 884.46 L930.97 885.53 L932.61 887.04 L934.63 888.29 L936.42 888.8 L938.26 889.1 L940.33 889.7 L943.76 892.02 L948.67 898.32 L951.71 901.05 L955.4 902.16 L959.24 901.72 L966.59 899.82 L969.17 899.74 L969.78 900.41 L969.48 901.98 L969.46 902.25 L969.31 904.61 L969.92 906.18 L970.82 907.27 L970.98 908.5 L969.39 910.43 L967.45 912.13 L963.83 918.69 L961.83 920.99 L959.92 921.92 L954.88 922.81 L952.52 923.73 L943.35 929.73 L942.23 930.03 L941.03 929.83 L939.8 929.23 L938.45 928.82 L936.82 929.19 L935.36 930.68 L932.05 938.14 L931.87 941 L933.38 943.02 L940.66 947.31 L942.03 948.77 L942.6 950.75 L943.2 956.44 L943.8 958.62 L945.07 960.54 L947.28 962.25 L952.32 964.84 L954.02 966.35 L961.01 979.06 L962.64 980.09 L963.57 979.55 L964.4 978.32 L965.73 977.34 L966.68 977.32 L969.31 977.99 L970.08 977.76 L970.74 977.26 L971.39 977.41 L972.12 979.08 L972.53 980.12 L973.1 980.66 L973.86 980.67 L974.81 980.13 L976.62 981.07 L976.98 983.8 L976.91 987.03 L977.48 989.49 L979.95 990.94 L985.63 990.07 L987.95 990.69 L988.37 991.81 L988.55 992.28 L988.83 997.55 L989.72 1000 L991.29 1001.74 L997.19 1006.23 L999.11 1008.34 L999.97 1010.24 L1000 1012.35 L999 1018.85 L998.63 1019.69 L997.77 1019.96 L997.13 1019.3 L996.35 1018.94 L995.1 1020.11 L994.61 1021.38 L994.31 1025.86 L993.58 1028.46 L992.21 1030.5 L991.39 1031.3 L989.51 1032.74 L988.92 1033.77 L988.96 1035.11 L990.17 1037.58 L990.05 1039.05 L988.59 1040.54 L986.55 1040.74 L982.93 1040.11 L980.79 1040.32 L978.6 1040.98 L974.81 1042.12 L972.34 1042.34 L971.09 1043.53 L970.97 1045.39 L971.86 1047.56 L971.66 1049.59 L972.19 1051.4 L973.25 1052.92 L974.81 1054.09 L976.89 1055.17 L984.84 1061.33 L985.97 1062.5 L985.59 1063.94 L983.64 1066.59 L978.13 1071.95 L977.08 1073.78 L977.53 1075.89 L978.85 1078.02 L979.51 1080.01 L978.02 1081.74 L978.86 1083.07 L980.22 1084.17 L981.22 1085.47 L980.97 1087.4 L979.19 1088.92 L974.81 1095.36 L972.76 1096.38 L971.91 1097.29 L970.85 1100.38 L970.41 1101.15 L969.46 1102.46 L969.07 1103.56 L969 1104.64 L969.15 1105.79 L969.15 1106.95 L968.74 1108 L967.04 1109.41 L965.52 1109.34 L962.44 1107.96 L959.96 1107.43 L958.66 1106.92 L956.17 1104.65 L952.6 1102.06 L950.17 1101.88 L948.18 1103.68 L945.84 1107.01 L945.17 1107.6 L943.64 1108.53 L943.12 1109.2 L942.92 1110.1 L942.64 1112.84 L941.24 1115.61 L940.12 1116.23 L938.1 1115.89 L938.08 1115.89 L938.05 1115.87 L938.04 1115.86 L936.07 1115.86 L935 1117.48 L934.25 1119.82 L933.18 1121.95 L929.57 1125.22 L925.52 1127.94 L922.59 1128.87 L921.17 1128.15 L920.05 1126.52 L917.88 1124.79 L916.22 1124.06 L915.81 1124.17 L915.72 1124.86 L911.86 1129.64 L909.29 1133.7 L908.72 1134.02 L907.07 1134.38 L905.62 1137.87 L905.56 1138.71 L905.08 1139.41 L903.43 1139.87 L902.09 1139.63 L899.62 1138.08 L898.42 1137.67 L897.02 1137.77 L896.26 1138.16 L895.63 1138.75 L890.51 1141.66 L888.53 1141.59 L886.69 1140.86 L884.85 1139.54 L881.37 1136.03 L876.74 1129.43 L875.72 1127.4 L875.11 1126.54 L874.08 1125.46 L873.51 1124.98 L863.89 1122.04 L862.26 1121.12 L860.05 1119.89 L857.45 1115.89 L856.09 1115.06 L853.06 1114.39 L851.91 1113.68 L851.45 1112.38 L850.75 1108.07 L850.23 1106.33 L848.57 1103.73 L847.78 1103 L844.95 1105.64 L843.99 1106.12 L843.11 1106.2 L842.46 1106.59 L842.25 1107.93 L842.29 1109.24 L842.59 1110.22 L843.16 1110.88 L844.13 1111.24 L844.13 1112.08 L842.09 1111.96 L840.41 1111.53 L838.97 1111.36 L837.74 1112.08 L837.45 1112.66 L837.23 1113.64 L837.36 1114.56 L838.89 1115.41 L838.31 1116.34 L837.34 1117.16 L836.82 1117.25 L835.46 1119.91 L832.1 1121.32 L824.99 1122.3 L824.12 1122.42 L822.37 1122.91 L820.56 1122.78 L819.27 1122.45 L811.24 1117.47 L810.46 1116.64 L809.23 1118.95 L807.9 1126.06 L807.01 1128.99 L805.05 1131.86 L802.95 1133.12 L800.42 1133.41 L795.79 1133.14 L792.61 1132.58 L790.56 1132.7 L789.13 1132.6 L788.45 1132.67 L788.06 1133.23 L787.74 1135.38 L787.38 1136.02 L785.1 1136.12 L779.28 1134.11 L776.62 1133.64 L776.02 1135.14 L775.81 1136.71 L775.98 1138.25 L776.62 1139.72 L779.19 1141.81 L780.66 1143.99 L781.11 1146.61 L780.59 1149.99 L781.71 1152.74 L783.53 1154.48 L788.06 1157.37 L790.13 1159.73 L793.5 1167.82 L795.29 1169.84 L797.41 1171.66 L799.16 1173.64 L799.81 1176.21 L798.83 1178.74 L796.76 1180.51 L794.39 1182.09 L792.49 1184.03 L790.89 1186.1 L791.14 1192.49 L789.2 1194.87 L786.56 1195.02 L779.72 1193.27 L776.62 1193.14 L773.34 1194.46 L770.09 1194.79 L766.8 1194.04 L766.26 1193.75 L763.28 1192.11 L751.93 1182.12 L749.69 1178.78 L748.2 1175 L746.23 1171.66 L742.53 1169.67 L741.1 1169.61 L738.25 1170.04 L736.36 1169.83 L734.24 1168.92 L732.9 1168.05 L731.55 1167.97 L729.48 1169.48 L728.5 1167.06 L726.48 1164.93 L724.1 1163.88 L722.1 1164.68 L721.33 1163.6 L720.45 1162.65 L719.43 1161.82 L718.37 1161.12 L714.68 1163.74 L712.73 1164.85 L710.53 1165.45 L707.39 1167.55 L703.7 1168.81 L699.77 1169.37 L696.02 1169.33 L693.88 1169.06 L692.55 1168.52 L691.45 1167.49 L688.08 1162.74 L687.11 1162.14 L685.2 1161.54 L684.29 1161.05 L681.86 1158.65 L674 1146.67 L672.75 1143.85 L672.26 1140.69 L672.27 1136.38 L674.1 1136.45 L681.01 1134.82 L683.4 1133.84 L684.35 1132.79 L685.93 1129.9 L686.86 1129.11 L688.17 1129.23 L690.49 1130.84 L692.19 1130.93 L692.95 1130.33 L695.44 1127.85 L696.5 1127 L698.03 1126.49 L701.52 1125.84 L702.88 1125.14 L703.45 1124.18 L704.59 1121.04 L705.24 1119.71 L706.1 1118.7 L709.18 1115.89 L713.38 1110.27 L714.98 1106.59 L715.32 1102.56 L713.42 1093.5 L713.64 1089.33 L714.66 1083.05 L714.19 1081.74 L712.76 1079.3 L712.55 1076.23 L713.17 1073.13 L714.19 1070.62 L714.8 1070.2 L716.63 1069.78 L717.21 1069.27 L717.17 1068.54 L716.22 1066.63 L716.08 1064.56 L716.33 1063.74 L716.88 1063.6 L718.96 1063.69 L719.67 1063.41 L720.68 1060.37 L718.5 1056.03 L719.79 1053.43 L725.03 1050.07 L726.28 1048.27 L722.77 1047.56 L722.75 1047.56 L722.73 1047.56 L721.06 1046.28 L717.19 1040.72 L717 1040.16 L717.04 1038.64 L716.74 1037.96 L716.17 1037.82 L714.46 1038.13 L713.76 1037.96 L710.53 1034.61 L707.63 1034.04 L706.53 1031.77 L706.55 1028.7 L707.07 1025.75 L707.96 1022.98 L709.11 1021.08 L714.5 1015.38 L718.16 1012.39 L721.95 1009.92 L722.44 1009.7 L722.55 1006.01 L722.11 1003.07 L721.65 1002.49 L719.08 1002.99 L716.55 1003.05 L713.85 1002.56 L711.78 1001.21 L711.01 998.7 L712.17 995.67 L714.8 993.93 L720.96 991.95 L725.66 988.97 L726.17 988.46 L727.77 986.86 L728.57 984.4 L728.79 978.6 L729.35 975.61 L732.6 967.1 L733.94 960.06 L732.61 953.55 L728.91 948.14 L723.04 944.3 L717.34 942.37 L714.43 942 L709.01 942.46 L707.11 942.18 L705.48 941.25 L703.81 939.56 L702.36 937.39 L697.14 926.07 L695.57 920.95 L695.81 916.09 L698.99 912.51 L701.75 911.4 L703.17 910.6 L703.93 909.58 L703.84 909.18 L703.69 908.51 L702.68 907.78 L701.42 907.28 L686.04 903.36 L680.6 903.11 L679.26 902.89 L662.05 896.69 L658.39 895.37 L655.59 893.21 L653.52 890.42 L652.22 887.14 L651.72 883.54 L651.84 877.41 L651.4 874.43 L649.96 871.8 L648.89 870.86 L646.33 869.43 L645.18 868.78 L644.14 868 L641.58 865.23 L640.52 864.35 L636.98 862.32 L635.76 861.25 L634.91 860 L634.3 858.58 L633.08 854.29 L631.98 851.82 L630.59 849.53 L628.81 847.37 L626.62 845.49 L619.2 841.45 L616.88 839.48 L615.47 837.06 L614.81 834.25 L614.66 831.14 L615.27 825.22 L616.69 819.43 L618.52 814.29 L618.71 812.8 L618.62 811.28 L615.77 799.88 L615.71 798.3 L615.92 797.06 L615.99 796.64 L616.88 793.5 L617.13 791.92 L617.04 790.26 L616.58 788.75 L615.27 785.88 L614.83 784.37 L614.39 779.85 L613.6 771.69 L614.25 768.62 L622.79 748.31 L623.39 745.22 L623.9 738.83 L623.65 730.55 L624.12 723.79 L624.03 722.1 L623.65 720.48 L620.52 713.46 L620.02 712.7 L619.06 711.83 L616.81 710.56 L615.77 709.79 L614.83 708.66 L612.79 704.68 L610.18 700.74 L608.61 699.08 L602.33 695.09 L599.86 694.21 L579.35 683.4 L575.49 679.85 L571.57 675.16 L570.98 674.08 L570.16 671.33 L569.8 670.46 L569.27 669.59 L567.34 667.2 L564.36 661.18 L562.36 658.57 L553.76 653.38 L553.03 652.72 L552.53 652.28 L551.48 650.98 L550.69 649.51 L549.48 645.29 L543.63 632.29 L542.63 630.89 L541.94 629.93 L533.69 622.41 L531.93 620.24 L530.42 617.56 L524.8 603.54 L518.23 591.89 L515.77 589.2 L512.52 587.49 L509.32 587.17 L506.42 587.92 L503.87 589.63 L501.71 592.14 L501.16 592.99 L500.69 593.57 L500.08 593.93 L499.11 594.1 L496.97 593.64 L495.81 592.27 L494.91 590.49 L493.57 588.89 L491.61 587.54 L489.52 586.44 L487.3 585.65 L485 585.26 L477.32 584.84 L475.53 584.35 L468.01 580.91 L466.86 580.18 L465.73 579.13 L463.85 577.78 L456.14 575.69 L452.75 575.38 L449.39 574.53 L448.25 574.44 L446.36 574.75 L445.72 574.78 L443.29 574.31 L436.05 572.07 L434.71 572.07 L424.16 574.26 L420.96 575.67 L418.07 577.81 L415.87 580.62 L414.54 584 L414.5 584.9 L414.71 585.46 L415.07 585.98 L415.36 586.75 L416.48 587.22 L421.99 591.05 L422.8 592.2 L422.65 593.46 L421.45 594.5 L419.76 595.09 L414.9 595.94 L412.02 597.01 L408.09 597.64 L406.97 598.05 L405.84 598.75 L404.4 600.53 L403.56 602.69 L402.79 607.35 L401.93 610.31 L400.35 612.37 L398.16 613.77 L395.39 614.75 L395.43 614.69 L395.52 614.56 L395.59 614.46 L395.87 613.86 L395.79 613.9 L395.2 614.21 L394.18 614.75 L393.04 616.03 L392.38 617.88 L392.18 620.41 L393.27 628.55 L392.63 629.9 L391.32 630.81 L390.14 632.79 L388.63 634.78 L386.32 635.67 L384.12 635.07 L380.04 632.41 L377.66 631.8 L375.5 632.24 L364.15 637.37 L362.21 638.52 L361.4 640 L353.76 644.22 L348.91 648.7 L346.9 649.9 L342.22 651.05 L340.4 652.18 L339.69 654.31 L340.45 656.85 L341.71 658.85 L341.71 659.86 L338.79 659.47 L332 656.12 L330.13 655.59 L330.17 654.31 L332.38 645.25 L330.7 639.71 L326.46 637.53 L315.17 637.49 L310.34 636.57 L305.94 634.29 L302.36 631.25 L299.89 628.09 L295.94 628.34 L292 626.33 L285.37 620.41 L282.27 616.22 L281.28 615.66 L280.78 615.19 L276.78 612.34 L275.53 609.96 L275.04 607.63 L274.19 605.64 L271.76 604.27 L265.66 603.96 L261.84 603.76 L260.89 604.49 L258.81 606.74 L238.82 628.33 L236.11 629.2 L231.01 626.24 L225.84 624.81 L224.6 623.26 L223.77 623.26 L221.59 625.34 L220.51 627.88 L219.34 633.79 L216.13 642.93 L215.66 645.68 L203.39 648.09 L201.23 649.51 L200.08 652.16 L198.66 653.71 L195.64 651.8 L195.64 653.91 L195.31 655.73 L194.71 657.25 L193.85 658.44 L191.41 659.36 L189.89 659.93 L192.83 662.35 L190.22 664.15 L185.75 666.06 L183.14 668.78 L182.62 669.86 L181.98 670.89 L181.49 672 L181.21 672.31 L179.99 669.65 L179.76 668.78 L179.59 668.17 L179.25 668.06 L178.76 668.3 L178.16 668.78 L176.41 670.47 L174.42 670.64 L172.42 670.45 L170.59 671.07 L169.79 672.26 L170.64 672.67 L172.01 672.75 L172.71 672.97 L172.59 673.82 L172.39 674.21 L170.03 677.22 L169.2 677.54 L168.2 677.47 L166.54 678.04 L151.96 690.09 L149.53 693.37 L146.88 698.52 L146.04 699.65 L144.47 700.27 L142.7 700.59 L141.35 701.39 L141.02 703.44 L138.77 706.67 L138.06 707.41 L136.8 708.17 L136.35 708.24 L135.79 707.85 L132.01 706.29 L128.06 703.94 L125.84 703.45 L124.01 701.11 L121.83 699.17 L119.43 697.57 L116.88 696.26 L111.09 695.17 L106.36 694.28 L104.26 692.64 L104.21 689.57 L106.03 686.65 L110.46 681.44 L113.22 675.16 L113.49 674.09 L114.12 671.58 L113.87 668.78 L113.56 667.37 L113.84 666.23 L114.68 665.34 L115.92 664.66 L116.04 664.36 L116.08 664.06 L116.04 663.77 L115.92 663.48 L115.05 662.51 L114.72 661.59 L114.96 660.73 L115.92 659.97 L118.63 658.8 L119.36 657.03 L118.94 652.29 L119.43 649.48 L120.41 648.04 L124.58 645.7 L128.06 642.65 L130.15 639.27 L131.86 635.65 L134.16 631.91 L135.9 630.52 L140.14 627.86 L141.15 626.06 L140.74 624.11 L138.48 618.93 L138.03 616.25 L138.57 613.75 L140.53 608.53 L140.83 606.33 L140.37 605.11 L139.51 604.42 L138.55 603.87 L137.77 603.08 L136.73 600.27 L136.28 599.31 L136.23 594.41 L136.52 592.99 L137.21 591.99 L139.46 589.48 L139.86 588.58 L138.55 586.72 L130.19 582.83 L129.11 581.79 L126.06 578.89 L124.21 576.38 L123.32 573.97 L124.03 571.18 L127.87 567.2 L128.83 564.51 L129.07 563.11 L129.61 562.46 L138.09 557.74 L139.85 556 L140.35 554.47 L140.22 551.37 L140.58 550 L141.49 549.08 L143.81 548.22 L144.97 547.63 L148.65 544.11 L150.34 541.82 L151.05 539.7 L150.35 537.49 L147.24 534.36 L146.52 531.83 L146.97 529.56 L148.92 525.06 L149.53 522.68 L148.83 514.32 L149.04 511.63 L150.1 509.12 L153.32 505.38 L154.64 503.29 L155.92 498.74 L156.84 496.72 L162.45 491.26 L161.33 487.12 L157.8 483.09 L152.02 477.94 L150.47 476.22 L149.6 474.06 L149.29 470.76 L149.7 462.55 L147.01 450.85 L146.97 449.98 L147.19 449.28 L147.24 448.47 L146.77 447.31 L146.01 446.75 L143.77 446.28 L142.9 445.64 L142.1 441.47 L142.81 435.75 L144.81 430.76 L147.77 428.86 L150.8 428.03 L152.59 424.92 L153.28 420.95 L153 417.53 L152.5 415.69 L151.85 414.29 L150.8 413.18 L149.05 412.2 L146.8 411.59 L145.39 411.96 L144.21 412.82 L142.69 413.66 L139.49 414.56 L135.79 415.02 L131.98 414.71 L128.34 413.33 L122.53 409.72 L119.66 408.63 L115.92 408.23 L104.21 408.38 L103.44 408.22 L102.75 408.31 L101.48 409.12 L100.98 409.76 L99.37 412.57 L94.01 419.02 L87.95 424.78 L86.68 426.61 L85.69 426.25 L84.72 424.84 L83.54 423.49 L81.63 422.4 L70.86 418.23 L67.39 418.41 L64.61 420.5 L63.12 422.97 L62.05 424.76 L59.76 424.91 L55.97 423.78 L52.17 422.12 L49.84 420.64 L48.22 418.94 L47.82 416.88 L47.82 414.6 L47.37 412.27 L46.31 410.43 L43.61 407.06 L42.52 405.3 L41.74 402.89 L41.42 398.3 L40.99 396.1 L40.09 394.46 L38.72 392.67 L37.89 391.6 L37.28 389.68 L37.85 387.12 L41.04 382.86 L42.74 380.58 L44.18 376.67 L45.11 375.42 L46.14 374.73 L48.7 373.65 L49.84 372.87 L51.13 370.71 L51.65 368.42 L52.28 363.55 L55.7 354.57 L58.97 344.58 L59.93 338.96 L59.68 331.71 L59.39 330.31 L58.79 330.48 L58.09 332.35 L57.11 332.88 L54.94 332.09 L52.77 330.74 L51.78 329.55 L51.35 328.79 L49.12 327.81 L48.1 327.11 L47.6 326.31 L46.92 324.36 L46.29 323.26 L42.89 318.73 L35.33 301.99 L32.68 299.03 L27.68 297.66 L22.88 298.77 L18.94 301.45 L16.33 304.81 L14.81 309.88 L14.55 310.14 L13.83 310.26 L10.89 311.36 L10.48 311.62 L9.25 312.75 L9.34 318.25 L7.33 320.28 L4.96 320.29 L2.58 319.04 L0.78 316.84 L0.03 314.07 L0.29 309.2 L0.08 306.79 L0 304.9 L0.36 302.94 L1.86 301.17 L3.15 299.2 L3.72 296.71 L4.01 293.69 L5.23 289.27 L6.9 276.73 L8.32 271.85 L10.02 268.12 L10.02 266.28 L10.98 264.01 L13.91 259.81 L14.55 258 L15.1 255.65 L16.46 253.92 L20.04 250.76 L23.45 246.52 L25.52 244.68 L30.74 243.12 L32.36 241.22 L33.57 238.98 L35.38 237.16 L37.87 236.67 L49.39 238.57 L55.01 240.16 L58.09 240.06 L62.37 238.63 L66.32 236.42 L67.49 235.51 L69.98 233.58 L73.35 230.32 L73.35 229.45 L69.51 228.63 L57.77 230.7 L55.32 228.92 L55.6 226.11 L56.82 220.37 L57.11 217.32 L57.64 216.61 L60.11 214.93 L60.81 213.99 L60.61 212.88 L58.99 208.98 L61.42 207.89 L67.35 206.64 L69.83 205.2 L71.42 202.99 L78.27 190.29 L82.46 173.09 L82.66 171.38 L82.58 169.83 L83.03 168.69 L84.75 168.25 L85.98 168.33 L87.16 168.58 L88.26 169.05 L89.27 169.75 L91.83 170.72 L94.82 170.32 L99.67 168.25 L101.14 167.04 L105.58 162.44 L107.42 161.82 L119.77 155.31 L138.24 140.06 L140.08 139.17 L140.61 137.03 L140.33 134.48 L142.38 134.62 L143.97 136.94 L144.13 141.13 L141.56 152.68 L141.97 155.68 L142.99 156.42 L146.8 158.5 L149.25 160.29 L149.82 160.17 L150.13 160.17 L150.35 161.32 L148.77 165.37 L146.73 168.25 L147.01 169.12 L148.18 170.36 L148.44 170.88 L148.27 172.83 L146.94 178.07 L148.44 179.75 L150.35 183.64 L151.61 185.54 L153.64 187.44 L155.7 188.2 L158 187.92 L160.8 186.69 L167.19 182.29 L169.73 181.34 L184.75 178.46 L187.72 178.48 L190.56 179.02 L195.03 180.54 L195.92 180.62 L196.49 181.07 L197.05 182.64 L196.84 183.93 L196.09 185.28 L195.6 186.63 L196.2 187.98 L198.15 188.3 L203.36 186.02 L205.89 186.06 L207.88 187.78 L210.28 192.2 L212.39 193.73 L214.19 193.81 L216.78 193.37 L219.22 192.57 L220.64 191.52 L220.87 190.13 L221.1 188.72 L220.23 186.7 L219.76 185.1 L221.54 183.48 L224.51 184.11 L225.73 183.89 L226.8 183.17 L227.59 182.26 L227.88 181.54 L228.05 181.11 L228.17 179.64 L227.71 177.82 L226.66 176.29 L225.19 175.02 L223.52 174.01 L216.65 171.44 L214.8 169.75 L213.82 167.35 L213.88 164.93 L215.2 159.65 L215.75 145.62 L217.67 142.59 L218.2 139.9 L216.42 134.24 L216.61 131.89 L218.55 130.64 L221.43 130.24 L224.19 129.43 L225.85 126.91 L225.55 124.07 L223.65 122.92 L221.18 122.23 L219.22 120.84 L218.74 119.35 L219.17 116.38 L219.06 114.99 L218.31 113.81 L216.16 111.91 L215.6 111.04 L215.52 108.89 L216.01 106.35 L218.63 98.4 L218.57 97.01 L215.28 94 L214.63 93 L212.97 89.4 L209.96 85.27 L209.59 84.05 L209.5 82.96 L209.26 81.85 L208.34 80.6 L203.65 79.25 L200.76 77.43 L199.51 75.44 L198.66 69.76 L197.57 66.82 L193.98 60.91 L192.72 57.95 L192.66 54.8 L193.57 52.28 L194.24 49.53 L193.52 45.71 L191.87 43.22 L187.8 38.27 L187.47 35.82 L189.58 33.25 L190.77 32.1 L192.13 31.35 L193.81 31.34 L195.4 31.86 L197.02 32.11 L198.77 31.31 L199.42 30.19 L201.23 24.24 L201.58 21.97 L201.74 21.36 L204.04 18.98 L204.38 18.78 L204.65 15.94 L204.44 13.16 L204.57 10.27 L205.82 7.14 L207.68 4.83 L210.39 2.45 L213.56 0.64 L217.34 0 L218.51 0 L219.1 0.07 L223.04 3.41 L227.39 12.83 L230.67 16.11 L234.01 16.76 L235.25 14.9 L235.81 11.99 L237.15 9.49 L239.49 8.6 L245.24 8.46 L248.06 7.28 L250.81 6.95 L253.39 7.15 L261.5 9.1 L262.77 9.57 L264.07 10.43 L264.68 11.61 L264.76 12.91 L265.65 14.08 Z "/>
</g>
</svg>
