<svg xmlns="http://www.w3.org/2000/svg" viewBox="0 0 1000 608.13">
<g fill="#ccc" stroke="#333" stroke-width="0.5" stroke-linejoin="round">
<path fill-rule="evenodd" d="M880.76 141.76 L904.93 141.53 L904.19 150.9 L904.58 156.97 L903.09 162.22 L902.61 166.7 L906.05 170.47 L920.48 177.31 L927.87 185.65 L929.74 187.76 L943.69 196.5 L946.26 198.8 L947.99 202.45 L948.8 208.41 L948.11 222.71 L947.12 230.53 L945.79 235.98 L941.61 239.97 L928.77 246.22 L926.19 250.06 L928.1 254.69 L931.68 256.58 L934.91 259.12 L935.64 265.62 L934.95 268.39 L932.72 273.86 L931.86 276.66 L931.5 279.23 L931.2 284.28 L930.73 287.14 L921.57 306.89 L918.76 315.75 L920.97 316.35 L923.28 316.98 L934.72 310.54 L940.56 308.91 L946.69 310.67 L949.64 313.19 L955.06 319.4 L958.1 321.81 L958.84 325.4 L956.24 331.15 L952.93 337.1 L951.47 341.31 L953.83 345.64 L967.41 355.31 L968.83 359.59 L968.95 370.87 L969.67 376.18 L971.54 380.26 L973.98 382.96 L985.01 388.36 L987.42 390.22 L988.27 393.17 L987.3 395.38 L983.72 398.82 L982.89 401.77 L983.33 404.18 L984.44 406.4 L991.62 415.6 L992.69 417.66 L993.18 420.36 L992.69 428.92 L993.08 434.64 L994.09 439.68 L999.66 456.66 L1000 459.3 L999.73 462.96 L998.92 464.91 L997.8 466.51 L996.67 469.16 L995.47 474.99 L994.67 480.85 L993.36 486.34 L990.57 491.13 L985.34 487.56 L979.44 489.85 L977.08 491.56 L973.31 494.29 L967.41 497.16 L961.7 498.39 L959.96 499.31 L957.81 501.56 L956.44 504.26 L955.23 507.29 L953.56 510.56 L944.17 517.81 L939.84 522.29 L939.26 528.2 L934.77 536.25 L921.05 545.34 L917.21 556.24 L916.24 567.94 L915.05 573.18 L913.84 576.95 L909.96 577.45 L892.61 575.85 L888.06 574.47 L883.75 571.9 L880.3 567.88 L877.48 571.23 L871.03 577.54 L868.35 578.68 L864.56 576.56 L855.96 569.22 L852.96 567.57 L847.35 566.63 L829.46 568.94 L829.23 569.09 L826.25 570.98 L818.29 580.76 L810.38 595.32 L807.63 598.56 L796.62 604.25 L793.46 604.49 L786.11 601.53 L782.42 601.14 L779.04 603 L776.13 608.13 L768.26 607.51 L760.48 605.36 L741.34 596.05 L732.7 589.46 L725.42 576.29 L722.22 568.8 L718.76 563.36 L705.07 551.42 L696.54 541.77 L688.77 536.57 L676.35 528.27 L665.9 516.42 L661.87 511.85 L653.94 506.31 L652.26 504.62 L651.05 502.04 L648.48 493.7 L647.47 491.52 L645.78 490.78 L637.56 491.45 L635.19 490.97 L628.28 487.62 L618.9 489.34 L604.32 486.8 L571.22 481.05 L566.25 477.4 L562.22 469.91 L559.77 461.92 L558.43 459.51 L553.84 454.39 L552.46 451.84 L550.93 447.23 L547.37 432.13 L543.76 421.65 L541.29 417.47 L538.36 416.5 L536.45 418.31 L535.93 420.96 L535.76 423.72 L534.89 425.9 L533.76 426.14 L530.71 424.93 L529.33 425 L516.84 430.56 L511.82 432.79 L506.38 437.1 L495.17 452.38 L492.56 455.1 L484.6 459.77 L479.9 461.84 L475.36 460.6 L466.59 454.13 L462.15 452.38 L457.88 453.14 L441.22 461.89 L437.57 462.56 L437.37 462.6 L433.19 461.79 L428.57 459.19 L415.62 448.94 L400.42 444.05 L398.63 443.47 L394.06 443.34 L384.55 445.57 L380.26 444.86 L380.08 444.04 L380.23 442.47 L380.06 440.63 L378.89 438.9 L377.74 438.48 L373.97 439.12 L364.38 438.63 L359.94 439.93 L351.65 444.9 L346.68 444.54 L332.4 438.43 L323.1 434.46 L320.04 433.85 L304.05 437.6 L301.51 439.24 L302.71 441.82 L295.8 449.32 L288.84 450.99 L282.55 446.09 L277.67 433.81 L274.31 426.63 L269.83 424.11 L264.93 425.02 L260.88 427.86 L255.82 431.4 L236.3 439.51 L234.22 439.81 L231.83 438.81 L225.72 432.34 L222.06 430.37 L221.72 430.19 L212.88 428.13 L171.94 429.53 L169.23 428.41 L164.11 424.57 L161.48 423.21 L155.27 422.79 L139.97 430.03 L137.5 431.2 L98.76 449.51 L86.56 450.07 L81.44 452.7 L62.18 467.58 L60.02 468.3 L53.76 468.61 L49.53 470.81 L44.4 475.14 L39.49 480.53 L36.01 485.98 L33.66 493.95 L32.66 500.78 L30.59 505.47 L25.05 507.02 L16.93 507.09 L11.7 508.39 L11.7 508.31 L11.59 507.18 L10.23 498.02 L8.31 489.89 L2.13 474.27 L0.66 468.92 L0.07 463.58 L0.34 462.05 L1.61 457.18 L1.94 454.32 L1.94 451.66 L1.77 449.42 L0.33 439.63 L0 434.65 L0.27 429.87 L1.44 426.04 L3.3 422.66 L4.11 420.72 L4.77 418.45 L5.07 415.69 L5.1 410.78 L5.79 408.23 L4.78 404.02 L4.4 399.51 L5.21 397.18 L7.68 399.55 L8.54 402.13 L9.27 408.68 L10.5 411.63 L8.54 415.05 L9.5 415.99 L10.5 416.6 L10.5 420.15 L10.5 421.86 L8.54 425.11 L11.7 429.63 L12.85 430.36 L14.01 429.78 L14.98 428.32 L15.34 426.37 L13.8 421.13 L13.53 416.69 L13.73 412.46 L14.28 409.77 L13.66 408.07 L13.06 403.68 L12.38 401.25 L11.63 399.4 L10.97 398.26 L8.54 396.13 L7.03 395.39 L5.78 395.22 L4.76 394.66 L3.83 392.71 L3.26 389.94 L3.66 388.82 L4.38 387.74 L5.78 377.46 L10.7 363.05 L12.38 354.89 L13.33 333.35 L12.78 328.36 L11.81 323.87 L11.61 319.59 L13.33 315.2 L24.64 307.61 L25.96 305.3 L35.08 299.71 L37.58 297.04 L42.63 289.24 L44.03 287.62 L45.74 286.6 L49.61 283.04 L54.01 278.97 L57.1 274.1 L59.74 266.86 L61.39 257.8 L61.56 247.48 L61.15 244.78 L59.66 237.95 L59.95 235.22 L61.25 231.62 L61.56 229.41 L61.25 212.8 L61.56 207.49 L62.47 202.94 L64.15 198.41 L66.34 194.95 L68.7 193.55 L70.58 191.47 L75.76 177.67 L85.61 164.55 L100.8 134.63 L104.99 129.88 L110.79 126.71 L136.2 124.95 L142.19 123.05 L169.12 108.29 L209.02 86.38 L214.87 84.53 L218.04 84.27 L219.59 83.73 L221.28 82.68 L223.1 81.93 L225.1 82.36 L226.49 83.24 L226.46 83.54 L225.75 84.17 L225.1 86.03 L223.8 95.78 L223.29 106.39 L223.82 111.61 L225.17 115.38 L232.8 126.8 L263.54 153.66 L273.4 166.09 L284.58 175.9 L291.74 180.06 L296.46 181.16 L298.21 181.97 L298.61 183.96 L298.67 186.49 L299.29 189.03 L302.34 195.31 L302.95 196.57 L304.33 200.74 L305.41 205.77 L306.48 214.73 L307.66 219.4 L309.71 221.42 L310.93 223.78 L314.8 247.33 L316.24 251.26 L318.17 252.84 L320.62 253.81 L327.16 261.51 L338.58 266.16 L350.4 268.44 L352.1 269.88 L358.83 279.84 L360.07 280.9 L360.97 281.66 L367.43 283.72 L376.15 284.65 L399.72 278.85 L408.12 274.75 L411.7 273 L416.99 268.44 L419.48 264.8 L421.23 261.4 L423.12 258.87 L428.49 257.36 L433.8 253.86 L447.28 244.97 L448.45 241.34 L451.12 238.4 L454.24 236.39 L456.63 235.48 L456.67 232.75 L458.04 230.93 L461.34 228.54 L470.51 217.87 L473.47 210.75 L474.61 200.53 L474.15 188.7 L470.85 156.7 L470.61 147.17 L469.96 141.52 L468.49 138.99 L467.67 135.91 L468.27 129.16 L469.9 119.67 L468.29 104.51 L467.54 101.1 L461.48 90.89 L459.53 86.03 L459.53 81.36 L458.05 69.2 L457.65 63.06 L458.05 59.77 L459.06 56.64 L460.44 53.83 L466.44 56.31 L470.37 56.1 L473.6 54.28 L475.14 51.66 L477.4 45.49 L479.13 43.48 L484.6 40.56 L491.85 33.87 L494.61 33.26 L504.29 34.16 L512.68 33.22 L514.83 31.5 L517.37 24.31 L519.39 21.61 L523.7 22.73 L527.29 25.05 L530.88 25.65 L532.35 24.3 L535.23 21.63 L538.57 19.47 L549.16 17.91 L552.69 15.46 L560.97 6.93 L562.89 4.94 L565.9 3.01 L569.15 2.04 L575.61 1.86 L579.19 4.28 L581.09 9.64 L582.36 16.06 L584.04 21.67 L586.06 23.39 L588.23 23.39 L592.65 21.09 L595.39 17.46 L594.45 13.3 L590.58 6.25 L590.74 1.73 L592.51 0 L595.02 0.45 L597.48 2.49 L598.43 4.28 L600.07 9 L600.94 10.53 L602.19 11.3 L603.05 11.1 L603.94 10.61 L605.34 10.53 L610.87 13.55 L619.23 23.73 L624.67 27.23 L629.54 28.32 L630.88 29.26 L632.07 31.2 L632.28 32.63 L632.32 32.9 L632.44 34.62 L633.18 36.68 L636.09 40.52 L639.14 42.41 L642.39 42.91 L645.84 42.61 L653.25 40.04 L654.8 39.5 L656.91 39.57 L658.99 43.2 L660.27 48.46 L662.04 53.64 L665.5 57 L694.49 59.59 L696.12 60.41 L697.14 61.68 L697.6 64.15 L697.11 65.7 L696.33 67.24 L695.92 69.61 L696.33 74.95 L697.53 78.14 L712.77 90.96 L717.36 96.31 L730.42 117.78 L735.11 123.36 L740.83 127.48 L742.58 128.23 L753.53 132.98 L753.56 132.99 L755.86 135.25 L760.48 141.88 L763.03 144.79 L765.17 144.42 L767.05 142.72 L768.92 141.61 L770.23 141.96 L772.78 143.82 L774.11 144.27 L775.52 143.62 L776.18 142.05 L776.66 140.15 L777.54 138.49 L781.62 134.87 L786.13 132.18 L790.75 130.67 L801.45 131.25 L803.89 130.52 L806.73 127.98 L808.38 124.42 L809.8 120.6 L811.95 117.33 L814.5 116.14 L816.2 117.45 L817.74 119.28 L819.88 119.68 L822.3 119.13 L824.7 119.19 L829.46 120.82 L832.71 123.42 L837.77 131.26 L840.56 134.55 L843.84 136.15 L854.92 136.85 L876.21 144.71 Z "/>
</g>
</svg>
