<svg xmlns="http://www.w3.org/2000/svg" viewBox="0 0 1000 1306.54">
<g fill="#ccc" stroke="#333" stroke-width="0.5" stroke-linejoin="round">
<path fill-rule="evenodd" d="M3.73 1280.02 L3.73 1278.73 L4.54 1275.24 L1.51 1275.7 L0.54 1274.73 L0.54 1272.73 L0 1270.3 L4.11 1261.42 L10.06 1252.48 L17.2 1245.5 L31.91 1239.3 L36.67 1231.39 L40.79 1222.34 L45.33 1215.62 L41.33 1210.23 L45.33 1209.48 L47.49 1210.52 L49.87 1215.62 L69.89 1172.22 L72.81 1148.51 L58.96 1128.33 L73.19 1117.68 L83.19 1102.9 L95.74 1068.13 L97.37 1057.64 L97.8 1036.19 L100.29 1025.11 L112.4 1006.9 L116.62 997.05 L113.92 987.07 L148.48 960.45 L165.85 942.15 L173.31 918.57 L174.72 908.28 L200.09 839.02 L195.92 833.56 L206.25 824.53 L214.04 791.73 L225.24 784.51 L224.81 774.92 L251.04 710.54 L253.69 694.72 L254.83 661.5 L254.99 655.67 L252.83 646.23 L248.71 638.54 L246.5 631.96 L250.07 625.63 L257.21 623.22 L265.97 624.66 L273.6 627.98 L277.65 631.6 L282.2 631.6 L288.63 627.98 L298.1 628.66 L304.32 629.09 L314 625.63 L318.22 620.26 L324.55 604.32 L328.01 597.76 L328.23 594.44 L327.26 593.23 L323.09 592.84 L328.77 586.12 L336.78 566.95 L341.59 558.99 L345.97 557.42 L357.01 557.26 L359.77 553.97 L359.44 546.66 L356.36 542.87 L352.79 540.59 L350.68 537.59 L350.52 518.01 L361.39 482.84 L364.31 457.92 L362.2 448.51 L352.79 430.87 L350.68 419.52 L350.68 392.06 L352.79 386.17 L362.2 379.31 L364.31 375.15 L364.69 349.86 L367.82 324.73 L375.94 303.42 L391.57 289.76 L402.93 299.19 L413.8 282.39 L423.86 256.84 L432.79 240.26 L469.63 219.97 L481.2 204.23 L469.14 184.75 L469.14 179.73 L481.47 183.01 L534.21 169.2 L569.75 135.23 L580.46 127.42 L587.28 120.26 L591.01 108.9 L591.55 70.99 L589.71 53.94 L585.6 39.64 L578.46 30.47 L586.93 30.15 L592.77 31.78 L597.64 34.08 L609.25 43.55 L623.68 47.77 L638.86 48.19 L656.45 45.68 L673 46.88 L702.06 48.98 L704.95 48.06 L712.92 43.22 L716.97 42.22 L720.34 43.68 L728.17 49.57 L732.22 50.99 L772.34 48.73 L778.93 45.73 L785.05 39.13 L787.52 31.7 L787.8 15.87 L789.99 9.69 L803.8 0 L813.69 6.52 L829.36 35.08 L842.75 47.14 L858.48 52.57 L874.97 52.24 L891.05 47.02 L888.44 72.48 L883.7 76.23 L876.62 70.48 L866.8 67.64 L856.97 73.77 L855.6 83.45 L856.42 95.34 L853.4 108.02 L840.42 118.28 L822.21 128.16 L811.08 140.04 L817.71 152.56 L819.6 156.13 L821.39 156.69 L823.24 156.84 L825.1 156.69 L826.88 156.13 L839.8 152.21 L859.24 151.32 L877.45 152.78 L886.58 156.01 L886.58 156.13 L890.84 169.61 L897.44 180.03 L906.37 187.53 L917.63 192.44 L927.25 204.44 L932.06 207.62 L936.94 205.92 L947.52 213.56 L951.16 220.61 L950.61 229.54 L948.27 242.76 L946.49 248.32 L944.08 252.13 L941.95 256.31 L941.4 262.92 L943.19 269.37 L946.49 275.61 L960.84 295.87 L967.92 303.63 L972.66 305.71 L977.54 305.33 L981.86 306.37 L985.3 312.63 L983.92 323.09 L977.54 331.96 L972.52 342.35 L975.68 357.48 L980.01 369.05 L996.08 385.04 L999.64 392.88 L1000 393.68 L981.25 414.44 L965.86 440.36 L936.11 465.9 L923.13 482.39 L919.28 493.73 L917.98 503.17 L914.34 510.59 L903.48 516.04 L894.34 516.5 L880.06 511.15 L872.43 510.48 L858.42 517.64 L836.3 545.84 L809.85 569.12 L799.41 582.04 L790.27 596.37 L776.05 625.31 L777.22 628.21 L781.48 635.86 L785.67 640.74 L805.24 656.05 L831.35 660.52 L842.82 667.61 L844.13 684.05 L836.09 694.64 L823.31 696.71 L798.24 690.71 L764.1 673.86 L752.55 671.63 L742.46 675.45 L733.18 683.02 L722.47 689.49 L708.59 689.82 L703.23 686.41 L694.78 675.72 L690.38 673.16 L666.55 687.84 L655.01 692.82 L642.64 696.07 L631.99 700.51 L625.4 709.17 L616.47 726.22 L594.48 745.08 L585.35 758.8 L581.29 767.91 L569.13 779.12 L564.19 786.24 L563.23 792.93 L565.15 807.42 L563.36 815.1 L560.2 818.19 L551.55 821.5 L548.87 824.22 L546.33 841.28 L555.12 846.79 L569.82 849.55 L585.35 858.28 L594.83 860.92 L607.05 867.04 L618.18 875.33 L624.02 884.34 L621.89 899.14 L611.66 911.24 L597.99 920.31 L585.35 926.14 L569.75 925.93 L554.09 931.02 L546.53 941.59 L555.53 957.78 L544.95 983.21 L524.34 1000.68 L512.12 1007.99 L495.52 1017.94 L479.55 1027.51 L469.32 1039.75 L456.06 1066.39 L445.21 1078.52 L437.31 1083.55 L428.1 1087.64 L418.62 1090.32 L409.83 1091.18 L411.28 1099.1 L407.25 1107.14 L396.04 1118.4 L383.05 1131.8 L368.71 1142.51 L360.65 1139.3 L353.26 1132.66 L345.93 1136.66 L344.6 1147.32 L335.63 1156.68 L335.63 1156.76 L335.18 1159.88 L335.15 1160.06 L331.31 1156.76 L331.17 1156.65 L331.1 1156.68 L322.65 1150.43 L310.63 1131.37 L306.78 1126.65 L299.02 1127.53 L294.55 1135.07 L290.64 1145.93 L284.59 1156.76 L279.44 1174.29 L277.86 1213.45 L274.29 1233.68 L268.59 1247.01 L256.22 1269.24 L252.92 1281.31 L232.52 1283.04 L200.71 1296.75 L163.21 1306.54 L154.41 1305.29 L148.23 1297.2 L143.63 1287.79 L137.03 1279.73 L129.61 1273.71 L125.76 1271.94 L122.33 1270.37 L114.23 1270.37 L89.63 1278.51 L84.89 1278.16 L75.48 1275.72 L71.5 1275.43 L67.17 1277.07 L59.82 1282.79 L56.93 1284.02 Z "/>
</g>
</svg>
