<svg xmlns="http://www.w3.org/2000/svg" viewBox="0 0 1000 986.96">
<g fill="#ccc" stroke="#333" stroke-width="0.5" stroke-linejoin="round">
<path fill-rule="evenodd" d="M813.02 158.52 L819.01 158.18 L828.69 160.85 L837.54 165.07 L841.3 169.78 L841.43 179 L843.81 184.97 L849.24 188.7 L858.5 191.18 L872.64 197.69 L906.53 233.63 L920.08 237.76 L936.51 238.19 L949 243.44 L951.08 270.52 L955.69 276.16 L962.12 281.07 L967.77 287.44 L970.87 295.42 L975.37 312.01 L986.84 327.64 L991 337.81 L991.38 340.68 L991 347.89 L991.42 351.3 L993.25 354.17 L998.73 359.63 L1000 362.36 L998.49 369.23 L990.89 380.14 L990.13 387.55 L990.4 394.38 L988.49 399.64 L985.05 403.83 L980.38 407.34 L969.55 412.12 L957.32 415.93 L945.73 421.05 L937.06 429.93 L934.09 439.83 L933.97 450.06 L933.94 451.93 L936.77 463.21 L942.63 470.53 L935.92 475.17 L935.28 482.55 L935.37 490.36 L930.74 496.27 L899.1 506.09 L887.17 515.57 L880.5 527.4 L875.3 540.8 L867.63 554.93 L867.57 556.22 L867.04 566.77 L864.57 579.3 L864.36 590.65 L870.35 599.12 L875.53 603.18 L876.68 606.56 L876.42 610.77 L877.31 617.43 L881.82 626.55 L882.79 631.2 L880.16 635.27 L875.45 637.62 L864.57 640.85 L859.56 643.11 L827.38 663.18 L811.15 673.3 L763.38 704.84 L736.92 715.79 L709.74 721.68 L672.84 735.77 L658.95 735.67 L638.99 727.91 L632.11 727.13 L625.45 728.75 L607.61 739.5 L597.46 743.13 L577.63 740.24 L567.73 741.81 L559.6 748.98 L556.11 755.6 L549.15 768.82 L542.72 775.31 L538.9 778.21 L533.8 785.68 L530.96 788.53 L526.99 790.3 L514.91 792.07 L507.39 795.12 L498.77 800.38 L492.44 807.56 L491.55 816.41 L496.05 822.86 L502.08 825.66 L506.88 829.89 L507.98 840.76 L505.1 851.05 L499.66 857.5 L464.75 885.13 L461.53 890.79 L462.42 894.54 L467.22 902.91 L468.53 907.64 L468.02 911.54 L461.06 933.72 L459.66 936.63 L456.37 940.97 L453.1 943.78 L449.59 945.7 L446.17 948.17 L443.52 952.61 L441.16 962.23 L441.44 969.98 L442.46 977.63 L442.37 986.96 L432.48 982.61 L383.94 978.37 L375.32 975.55 L367.12 971.41 L363.22 968.3 L359.99 965.04 L356.51 962.28 L351.75 960.65 L348.18 961.24 L340.33 965.14 L336.21 965.83 L318.97 963.51 L304.65 959.02 L292.3 951.13 L270.11 925.73 L245.07 906.56 L242.48 902.52 L241.8 898.23 L241.59 893.94 L240.23 889.71 L230.34 875.67 L219.59 865.03 L218.27 860.37 L216.75 855.04 L201.76 848.1 L195.3 842.68 L190.89 835.45 L187.87 823.79 L184.88 820.69 L178.27 820.59 L169.57 824.23 L166.68 824.72 L162.5 824.09 L154.31 821.76 L154.03 821.67 L149.57 821.13 L150.25 813.71 L141.09 788.09 L140.33 774.47 L149.31 752.07 L155.47 745.78 L155.81 741.07 L151.94 737.88 L145.66 736.11 L136.53 736.11 L131.43 737.34 L127.63 735.82 L122.56 727.91 L119.8 721.24 L114.23 698.71 L108.37 689.14 L88.67 672.42 L80.81 663.15 L69.52 636.11 L35.59 554.93 L35.54 554.93 L35.54 554.88 L32.04 547.84 L20.07 529.7 L14.59 524.81 L9.19 521.78 L3.31 516.99 L0 515.38 L5.05 503.65 L5.22 496.03 L8.32 491.58 L12.66 491.58 L16.52 497.2 L19.32 493.63 L22.46 486.01 L24.67 484.01 L28.71 483.91 L29.98 486.36 L31.04 489.29 L34.4 490.75 L36.27 489.43 L49.56 475.32 L51.77 473.8 L63.36 469.12 L75.42 467.85 L79.58 466.29 L86.93 462.23 L98.48 459.84 L107.23 456.13 L120.6 448.22 L122.51 446.2 L123.41 445.25 L126.13 441.05 L128.16 436.07 L128.97 430.66 L131.18 428.95 L140.82 429.39 L143.03 427.39 L144.77 418.9 L149.31 411.54 L166.38 392.77 L169.1 390.72 L170.72 387.89 L171.31 381.9 L170.12 378.19 L167.7 375.27 L166.04 372.54 L167.02 369.28 L170.72 366.26 L174.49 364.99 L178.32 362.89 L182.31 357.44 L183.33 353.2 L184.13 342.24 L185.37 338.44 L192.18 334.11 L208.95 328.6 L212.33 327.49 L216.43 323.98 L215.75 318.53 L213.18 307.58 L213.39 303.06 L216.13 298.87 L220.27 296.39 L224.48 294.79 L227.45 293.13 L250.98 264.15 L260.28 246.65 L259.81 244.03 L258.28 235.33 L261.06 232.12 L263.89 235.33 L265.92 234.55 L269.73 232.61 L272.34 232.12 L268.77 227.46 L263.63 222.16 L261.74 217.84 L268.26 216.04 L273.38 213.76 L278.41 208.32 L286.35 196.81 L287.92 196.23 L289.88 196.86 L291.53 197.01 L292.21 195.06 L292.23 191.62 L292.68 190.16 L293.59 188.66 L294.55 186.13 L294.97 182.35 L295.01 175.84 L298.37 172.11 L304.85 169.87 L309.24 166.23 L306.23 158.33 L353.02 161.53 L363.98 156.58 L367.8 149.5 L370.39 142.08 L373.7 135.87 L379.69 132.43 L387.42 133.4 L392.31 137.91 L396.13 142.85 L400.76 145.23 L411.92 145.23 L415.58 144.16 L416.09 141.4 L415.96 137.76 L417.7 134.03 L433.24 113.23 L451.46 93.7 L452.78 90.99 L464.12 74.23 L469.59 67.4 L473.67 61.59 L477.41 63.05 L499.62 60.81 L504.8 60.29 L513.08 63.97 L522.55 64.98 L532.06 63.72 L540.34 60.53 L548.24 53.32 L559.37 34.1 L567.35 26.07 L575.76 22.54 L632.96 18.72 L641.12 16.73 L664.52 0.77 L670.63 0 L678.4 5.75 L683.88 12.38 L687.62 20.12 L690.12 29.31 L693.09 48.52 L697.43 55.11 L715.64 55.59 L721.72 60.72 L733.65 83.34 L737.05 85.95 L749.87 88.28 L750.19 88.4 L756.67 90.85 L762.87 94.62 L762.96 94.71 L768.64 99.66 L773.91 106.06 L790.43 135.29 Z "/>
</g>
</svg>
