<svg xmlns="http://www.w3.org/2000/svg" viewBox="0 0 1000 1037.63">
<g fill="#ccc" stroke="#333" stroke-width="0.5" stroke-linejoin="round">
<path fill-rule="evenodd" d="M0 405.95 L7.75 402.38 L9.64 401.24 L9.12 395.01 L10.14 390.84 L16.84 387.01 L19.17 382.96 L20.69 378.29 L21.23 374.61 L20.35 369.65 L21.13 368.01 L26.46 367.41 L28.28 366.75 L29.58 365.41 L30.07 363.26 L29.26 360.17 L25.8 354.49 L25.16 351.92 L25.92 350.99 L30.34 346.9 L38.85 333.52 L43 332.65 L63.12 323.54 L65.23 321.54 L81.13 301.09 L85.5 295.46 L121.77 266.66 L131.76 261.03 L141.05 258.87 L144.3 257.47 L147.01 255.33 L149.6 252.17 L182.21 212.28 L191.49 204.37 L203.02 198.08 L204.8 197.47 L210.41 196.61 L209.8 136.97 L210.15 134.07 L211.15 131.76 L213.35 129.95 L219.54 126.51 L222.14 124.03 L227.81 113.45 L231.41 108.95 L237.15 106.1 L242.04 105.35 L261.75 105.25 L266.77 104.55 L271.57 103.04 L276.3 100.29 L282.31 94.43 L283 89.85 L281.08 84.94 L279.29 77.97 L279.79 72.41 L284.09 63.01 L291.61 32.73 L291.77 19.96 L294.44 20.09 L297 19.64 L302.03 17.71 L303.95 21.83 L308.05 19.47 L316.31 11.32 L320.45 10.07 L324.58 10.16 L338.48 13.66 L342.15 15.79 L343.81 19.4 L341.35 31 L342.41 34.28 L345.67 35.39 L350.87 34.53 L360.7 28.69 L370.24 21.21 L374.39 19.04 L378.3 17.78 L382.41 17.23 L387.17 17.17 L388.38 16.99 L391.83 16.07 L392.96 16.63 L394.1 17.76 L395.29 19.36 L397.47 18.71 L401.89 16.4 L407.95 14.62 L408.28 13 L407.46 11.1 L407.45 9.12 L409.13 6.97 L410.88 5.15 L412.06 3.05 L411.92 0 L416.07 0.59 L418.65 3.81 L420.05 8.08 L421.62 19.65 L422.74 24.05 L425.28 28.39 L428.65 32.06 L429.61 31.41 L429.66 27.85 L430.27 22.75 L433.26 19.31 L438.08 19.36 L442.97 21.63 L446.14 24.86 L447.47 30.14 L445.45 33.1 L442.24 35.34 L439.94 38.48 L439.61 42.96 L441.79 43.65 L445.45 42.82 L449.67 42.7 L451.64 42.93 L453.72 42.66 L455.52 41.77 L456.7 40.14 L458.45 38.18 L460.44 39.61 L463.58 44 L475.83 49.19 L480.12 52.28 L481.87 54.16 L483.14 54.83 L480.12 56.64 L479.11 57.08 L477.49 57.99 L475.97 59.21 L473.31 61.96 L475.55 64.09 L476.79 66.69 L477.74 69.42 L479.11 71.89 L480.3 72.96 L480.69 74.06 L480.29 75.18 L479.11 76.28 L476.72 80.19 L475.14 87.22 L475.57 93.84 L479.11 96.46 L485.05 97.67 L487.47 98.97 L488.28 101.91 L488.3 104.75 L492.75 122.65 L492.25 125.21 L489.58 129.66 L489.23 132.51 L492.17 128.9 L494.77 126.85 L497.36 127.15 L500.22 130.52 L501.47 133.17 L501.91 135.73 L501.37 138.19 L499.61 140.47 L499.28 141.24 L496.13 151.95 L495.53 162.37 L497.92 172.63 L503.54 182.94 L509.89 191.07 L512.01 195.28 L518.25 203.3 L515.59 209.64 L513.17 218.42 L513.55 226.72 L518.73 232.76 L516.07 234.77 L513.97 237.96 L512.55 241.68 L511.36 248.26 L509.61 251.05 L505.24 256.17 L506.16 259.59 L504.09 264.85 L498.55 273.15 L493.51 276.97 L491.19 279.34 L490.2 282.41 L490.05 285.77 L489.41 288.68 L487.89 291.19 L485.2 293.49 L486.08 294.19 L486.2 294.28 L488.22 293.27 L495.33 286.33 L498.06 282.27 L502.79 290.6 L505.57 292.99 L509.26 287.62 L510.67 287.17 L511.91 286.36 L512.44 283.69 L513.44 282.83 L515.69 282.39 L519.78 282.27 L523.25 282.74 L525.02 283.38 L527.06 284.64 L528.77 286.77 L530.46 291.66 L531.93 293.35 L535.77 293.97 L544.09 291.76 L547.85 292.19 L551.39 297.2 L554.71 312.63 L560.77 318.22 L562.25 318.48 L567.71 318.27 L569.08 319.27 L569.22 323.54 L571.11 325.07 L575.89 327.51 L576.76 330.78 L574.47 339.27 L577.28 336.76 L579.19 336.13 L580.57 335.67 L584.01 335.08 L587.25 334.07 L590.64 331.6 L593.72 328.8 L597.09 326.94 L601.28 327.28 L603.25 326.15 L608.67 324.53 L609.76 324.4 L610.56 320.55 L611.69 320.19 L614.26 321.35 L615.58 315.56 L618.71 317.48 L623.34 324.89 L626.58 324.51 L637.16 320.44 L639.86 318.87 L641.44 313.98 L640.33 309.3 L638.52 304.86 L638.02 300.67 L639.18 298.02 L641.38 294.61 L645.83 289.1 L648.12 287.63 L652.11 286.47 L654.18 284.58 L655.1 282.39 L655.47 277.36 L656.34 275.06 L657.81 273.85 L664.63 269.74 L668.77 265.27 L671.19 260.8 L672.14 255.91 L671.88 250.16 L671.22 249.04 L670.12 248.72 L669.13 248.28 L668.86 246.75 L669.3 245.33 L670.74 242.79 L671.09 241.38 L671.69 232.86 L673.38 227.75 L679.78 219.94 L681.71 215.02 L710.83 216.54 L709.52 225.78 L711.05 232.52 L715.62 238.1 L723.49 243.92 L730.86 248.65 L741.08 253.79 L745.49 262.47 L750.49 279.88 L753.44 303.77 L754.76 308.54 L756.37 311.48 L760.54 317.43 L762.12 320.67 L764.04 328.31 L765.19 330.26 L768.12 333.94 L769.1 335.87 L769.23 337.5 L768.71 340.62 L768.91 342.2 L769.77 343.74 L773.37 347.38 L774.87 349.94 L775.54 352.23 L775.88 358.24 L780.06 381.71 L779.44 387.64 L777.61 389.96 L772.62 393.85 L771.3 395.96 L771 400.33 L771.3 404.37 L771.07 408.23 L767.95 415.02 L769.15 416.86 L771.15 418.2 L772.34 419.64 L772.52 422.97 L772.12 426.42 L770.07 433.81 L767.02 440.94 L763.53 446.33 L741.57 470.95 L736.76 476.33 L719.11 490.38 L715.78 494.39 L715.22 494.36 L711.15 496.63 L710.88 496.71 L711.15 497.09 L710.05 500.51 L709.53 501.57 L708.41 502.26 L705.47 502.74 L704.31 503.28 L698.29 510.92 L702.42 511.18 L704.8 511.69 L710.67 511.51 L713.5 512.35 L716.23 514.76 L723.49 524.5 L727.98 526.03 L731.03 523.52 L732.95 518.95 L734.06 514.4 L735.24 512.33 L736.79 513.36 L739.61 517.04 L747.28 521.15 L750.5 524.81 L750.16 526.24 L748.35 527.8 L747.09 531.87 L747.53 534.19 L749.73 538.68 L750.29 540.57 L749.06 542.8 L746.82 544.05 L745.95 545.55 L748.86 548.49 L751.48 545.93 L754.48 544.79 L757.47 544.88 L760.06 546.02 L763.24 543.32 L765.77 544.33 L768.13 547.03 L770.72 549.37 L771.91 549.24 L772.71 548.13 L773.74 547.36 L775.52 548.34 L776.74 550.32 L777.02 552.34 L777.02 554.03 L777.39 555.05 L779.61 555.86 L798.54 560.17 L801.46 561.25 L804.11 562.8 L805.74 564.03 L807.81 564.72 L811.77 564.67 L815.13 563.85 L820.59 560.82 L823.44 559.64 L834.81 558.05 L841.42 557.9 L845.66 558.88 L849.65 561.61 L865.41 565.36 L866.72 565.53 L867.77 565.09 L868.91 564.78 L870.42 565.28 L870.84 566.1 L871.48 568.96 L872.33 570.14 L883.19 578.89 L886.98 583.54 L887.58 586.86 L884.35 596.34 L883.21 601.51 L882.61 607.08 L883.26 612.05 L885.93 615.47 L886.03 614.32 L888.38 613.06 L891.43 612.24 L893.63 612.39 L896 614.57 L896.98 616.83 L897.77 622.43 L898.56 623.3 L899.87 623.7 L901.12 624.33 L901.67 625.9 L901.16 627.21 L898.92 628.45 L898.38 629.58 L898.2 636.56 L898.45 638.35 L901.64 642.35 L911.29 647.41 L914.27 650.34 L918.61 656.46 L922.02 654.71 L924.87 649.83 L927.58 646.59 L929.15 647.86 L931.82 650.97 L935.43 653.87 L939.76 654.53 L940.13 655.43 L945.17 658.19 L945.84 658.33 L951.12 660.65 L952.35 662.25 L950.37 664.8 L952.25 666.39 L955.48 670.47 L957.23 671.42 L960.06 670.05 L963.08 667.49 L964.89 666.75 L964.08 670.89 L967.87 671.57 L969.53 674.78 L970.73 678.24 L973.05 679.69 L974.95 677.82 L976.16 673.79 L976.92 666.5 L984.74 669.92 L985.84 678.44 L984.25 688.81 L984.03 697.82 L988.53 717.07 L991.73 723.51 L996.93 733.99 L1000 737.95 L994.87 737.1 L993.21 740.06 L994.38 744.72 L997.68 748.99 L992.83 749.28 L991.24 749.2 L993.71 751.58 L994.13 751.99 L992.83 754.02 L989.97 756.31 L988.21 759.9 L988.37 769.14 L987.27 771.74 L983.85 769.92 L983.91 773.84 L984.87 778.22 L986.56 782.42 L988.86 785.74 L992.49 787.78 L995.05 787.28 L996.87 787.66 L998.21 792.27 L998.85 797 L998.62 799.76 L997.2 802.31 L994.24 806.46 L993.65 808.1 L992.75 812.14 L991.53 813.68 L989.15 814.74 L988.58 813.79 L988.57 811.94 L987.79 810.33 L987.52 809.05 L988.76 807.84 L989.15 806.88 L986.36 806.38 L985.76 807.07 L979.44 810.49 L977.62 812.75 L976.59 814.98 L974.01 823.07 L976.02 834.63 L975.83 838.76 L974.39 843.07 L967.81 855.06 L964.37 853.69 L960.23 853.61 L956.23 855.46 L953.16 859.9 L952.58 864.15 L954.49 878.35 L954.52 878.35 L954.18 883.62 L955.89 887 L958.16 890.23 L959.56 894.98 L959.58 898.7 L958.62 898.62 L956.58 897.16 L953.36 896.82 L945.9 902.74 L945.79 905.05 L947.53 912.63 L947.19 915.4 L945.81 920.47 L945.78 922.38 L945.77 922.66 L947 925.5 L948.85 927.26 L950.77 928.71 L952.24 930.49 L952.9 932.69 L953.97 945.43 L952.9 997.9 L953.25 1000.11 L953.91 1002.37 L954.35 1004.92 L953.88 1011.13 L955.62 1016.07 L955.96 1018.37 L955.21 1020.8 L952.66 1025.37 L952.33 1027.85 L953.65 1030.73 L961.74 1036.26 L961.66 1036.28 L948.89 1037.63 L945.23 1037.1 L939.51 1034.68 L936.38 1034.13 L919.7 1034.13 L917.67 1033.36 L916.6 1031.62 L915.81 1029.89 L914.69 1029.11 L910.71 1028.81 L901.12 1024.97 L898.12 1023.15 L895.36 1020.76 L893.9 1018.04 L892.55 1014.72 L890.33 1011.9 L883 1009.66 L877.15 1005.05 L874.42 1004 L870.38 1003.5 L867.96 1002.23 L866.06 1000.59 L863.67 999 L859.3 997.24 L848.72 994.43 L840.33 993.14 L824.98 987.13 L795.23 983.51 L786.61 980.58 L776.13 968.99 L772.26 967.05 L767.54 966.16 L742.32 957 L715.1 937.7 L701.03 929.84 L666.93 917.39 L659.33 913.31 L642.19 898.78 L635.83 894.72 L628.31 891.24 L625.76 890.76 L620.73 888.52 L613.24 887.37 L607.24 885.55 L601.5 882.86 L597.31 879.68 L598.1 879.14 L598.26 878.98 L598.32 878.7 L598.82 877.84 L588.1 874.89 L579.47 869.84 L565.47 857.74 L561.6 855.25 L553.13 851.23 L545.5 845.55 L541.1 843.9 L537.01 841.83 L533.77 837.47 L536.95 837.47 L533.73 833.02 L528.81 830.32 L523.38 828.27 L518.59 825.77 L490.06 798.95 L488.32 795.29 L485.74 786.39 L483.55 782.03 L480.96 779.52 L477 776.78 L472.71 774.56 L469.12 773.66 L468.42 773.28 L461.51 771.88 L460.04 771.98 L459.72 769.61 L462.63 765.95 L463.21 763.59 L459.23 757.74 L434.85 743.49 L399.33 709.34 L365.72 681.68 L357.03 671.84 L355.22 670.34 L350.98 667.87 L349.45 666.05 L348.75 663.58 L349.8 660.46 L349.45 657.52 L347.17 653.75 L343.32 650.55 L338.97 648.29 L335.27 647.44 L332.65 646 L315.36 632.3 L305.38 621.36 L292.34 613.16 L287.88 611.21 L278.63 609.41 L274.32 606.92 L271.76 603.65 L272.41 600.32 L274.65 601.72 L276.56 601.92 L278.11 600.92 L279.23 598.64 L274.33 597.52 L270.82 594.77 L267.73 591.44 L264.06 588.58 L256.12 583.65 L252.07 581.97 L247.37 581.69 L247.37 583.53 L260.02 590.04 L265.59 594.68 L267.4 600.32 L263.7 595.74 L256.91 591.62 L249.14 588.46 L199.6 576.16 L168.1 560.07 L163.32 555.67 L165.15 551.49 L166.33 553.5 L167.6 554.92 L169.38 555.88 L172 556.53 L167.92 549.74 L167.11 543.82 L169.56 538.32 L175.17 532.71 L171.68 532.71 L169.13 533.43 L167.11 534.67 L165.15 536.24 L159.3 524.47 L151.23 515.83 L141.81 509.4 L103.26 488.45 L59.41 472.72 L30.06 459.67 L24.76 453.34 L24.55 443.55 L25.96 438.08 L26.28 435.78 L26.37 432.55 L23.03 426.28 L22.13 425.06 L17.54 423.76 L12.7 420.74 L8.58 417.31 L6.2 414.83 Z "/>
</g>
</svg>
