<svg xmlns="http://www.w3.org/2000/svg" viewBox="0 0 1000 965.66">
<g fill="#ccc" stroke="#333" stroke-width="0.5" stroke-linejoin="round">
<path fill-rule="evenodd" d="M139.8 0 L141.11 0.32 L143.27 1.15 L144.2 1.75 L145 3.68 L145.97 4.5 L148.03 5.46 L155.65 6.68 L157.97 7.56 L156.68 6.16 L152.57 4.82 L151.52 3.41 L154.55 5.14 L161.34 7.4 L176.07 16.8 L178.7 19.54 L181.11 20.26 L185.15 22.95 L190.13 25.41 L192.93 26.19 L216.97 28.75 L222.93 28.31 L238.69 23.66 L241.27 22.48 L243.3 20.84 L244.38 20.18 L245.83 19.92 L250.2 19.74 L256.16 20.82 L256.88 21.17 L257.53 21.74 L270.01 28.43 L272.87 29.13 L283.6 28.67 L286.32 29.08 L291.67 30.68 L296.46 32.79 L308.07 34.81 L308.69 35.05 L309.83 36.11 L310.2 36.34 L311.27 36.81 L313.55 39.1 L316.99 41.34 L322.47 46.1 L325.33 49.2 L326.59 49.67 L336.81 51.42 L337.82 51.97 L338.78 52.83 L341.54 54.36 L342.81 54.77 L354.42 55.28 L367.25 57.6 L370.1 58.66 L371.49 58.9 L372.37 59.32 L374.72 62.51 L377.02 63.87 L377.86 64.73 L378.43 67.44 L378.98 68.94 L380.35 71.67 L382.99 75.35 L383.37 76.52 L383.25 78.08 L382.68 80.75 L382.51 83.76 L382.41 85.48 L382.78 90.92 L383.37 93.59 L390.92 113.2 L392.44 115.9 L399.27 125.6 L403.34 129.99 L408.01 133.66 L425.85 141.97 L445.64 145.53 L468.91 145.78 L482.39 148.76 L496.15 153.51 L506.88 155.89 L509.11 155.88 L509.68 156.14 L510.12 156.46 L512.43 157.68 L514.23 159.4 L514.89 159.8 L515.46 160.05 L524.74 162.8 L529.64 165.22 L534.95 167.01 L539.52 167.86 L540.34 168.6 L542.08 171.22 L543.23 172.28 L544.45 172.89 L550.12 174.16 L560.11 177.96 L562.19 179.2 L563.91 180.84 L569.49 187.43 L584.88 198.91 L588.34 202.88 L590.22 204.59 L594.38 206.84 L597.01 207.37 L598.25 207.98 L607.41 214.01 L610.06 215.15 L615.65 215.99 L621.28 216.1 L627.18 215.42 L630.45 214.47 L633.41 213.61 L638.47 211.1 L645.51 206.46 L646.8 205.86 L649.63 205.34 L650.92 204.66 L659.26 198.11 L669.69 185.52 L672.45 180.63 L673.97 178.51 L676.27 176.66 L677.39 175.54 L681.38 167.03 L684.33 158.9 L684.69 155.76 L684.33 146.3 L683.16 144.37 L681.6 139.52 L680.27 137.46 L677.5 134.56 L676.49 133.02 L672.24 121 L671.87 117.93 L671.81 114.67 L671.58 113.46 L670.48 110.66 L670.09 109.29 L669.87 106.21 L670.03 102.84 L670.95 96.63 L671.81 93.84 L671.67 93.1 L671.42 92.29 L671.31 91.48 L671.6 90.76 L672.39 89.63 L678.11 77.48 L679.6 75.22 L691.58 63.07 L692.55 61.48 L695.6 57.83 L696.87 57.07 L699.38 55.97 L700.5 55.03 L701.35 54.12 L710.54 46.77 L725.28 40.4 L733.95 34.44 L741.31 30.72 L744.19 30.06 L756.17 30.8 L759.01 30.54 L764.24 29.13 L766.75 27.7 L776.45 18.83 L777.37 18.38 L780.43 18.15 L783.24 17.36 L784.96 18.82 L787.72 19.94 L790.79 20.65 L793.39 20.9 L807.18 19.41 L807.5 19.16 L808.16 18.07 L808.47 17.82 L809.86 17.57 L810.54 17.54 L811.28 17.82 L811.79 18.27 L811.89 18.67 L811.89 19.17 L812.15 19.92 L814.15 22.03 L816.7 22.58 L822.51 22.48 L825.01 23.36 L831.19 28.11 L832.42 28.84 L833.49 29.32 L834.65 29.57 L837.59 29.79 L852.31 34.3 L855.73 36.57 L856.85 36.9 L857.56 37.02 L859.67 37.88 L860.51 38 L862.67 37.88 L864.11 38.34 L866.73 39.69 L869.57 40.14 L870.81 40.64 L871.6 41.42 L871.75 42.48 L871.39 43.25 L870.3 44.61 L870.08 45.31 L870.67 49.87 L871.27 51.03 L872.24 51.95 L873.51 52.73 L873.01 54.19 L872.22 58.9 L870.97 58.39 L871.19 57.67 L871.05 57.04 L870.64 56.46 L870.08 55.84 L869.11 61.96 L869.2 63.48 L870.15 64.26 L873.99 65.75 L875.4 66.02 L876.42 66.64 L877.65 68.07 L878.67 69.7 L879.47 71.93 L880.34 72.44 L881.34 72.75 L882.11 73.19 L882.6 74.04 L883.19 75.65 L883.8 76.24 L883.69 75.01 L882.97 71.67 L884.19 72.14 L886.94 72.19 L887.5 72.43 L889.27 73.91 L889.67 74.16 L897.59 74.86 L906.33 74.72 L917.08 77.26 L927.06 81.37 L925.58 82.83 L925.3 83.4 L925.8 83.72 L927.45 84.41 L931.42 87.52 L932.85 87.92 L944.84 87.78 L961.55 88.98 L967.23 87.24 L968.64 86.22 L969.38 85.94 L971.92 86.44 L972.42 86.3 L972.91 86.02 L973.38 85.88 L973.89 86.19 L974.14 86.4 L974.91 86.86 L975.79 87.1 L977.03 87.77 L979.09 88.12 L981.67 89.14 L989 90.73 L991.28 92.13 L992.26 94.56 L991.69 97.51 L991.55 99.14 L992.02 100.45 L994.17 102.89 L997.52 107.79 L997.85 109.06 L998.77 111.15 L1000 113.34 L999.76 113.58 L999.66 113.82 L995.73 117 L993.96 119.53 L991.65 125.81 L981.41 134.23 L980.64 136.58 L980.62 139.27 L981.24 145.48 L981.3 151.51 L982.76 159.38 L983.2 160.87 L985.4 165.43 L986.22 169.18 L988.97 175.07 L989.83 178.03 L989.43 180.56 L988.49 183.08 L987.71 186.01 L987.04 190.04 L985.14 195.08 L984.93 196.54 L984.33 199.01 L983.1 201.52 L979.42 207.13 L977.52 209.08 L975.81 211.26 L975.21 212.28 L974.16 214.78 L971.54 219.51 L970.53 222.08 L970.52 224.89 L971.08 226.46 L972.86 229.68 L978.28 243.32 L978.57 244.95 L978.49 246.4 L977.44 250.18 L977.86 253.2 L981.09 258.67 L982 261.65 L982 263.42 L981.43 268.67 L981.57 271.46 L982.2 273.97 L987.42 286.67 L988.54 290.55 L988.97 294.71 L988.97 303.61 L988.97 315.69 L988.97 344.33 L988.97 372.59 L988.97 378.17 L988.97 403.25 L988.97 406 L988.97 416.83 L988.97 440.76 L988.97 447.05 L988.97 460.43 L988.97 474.22 L988.97 494.77 L988.97 515.27 L988.97 535.72 L988.97 556.11 L988.97 576.46 L988.97 596.77 L988.97 617.02 L988.97 637.22 L988.97 657.38 L988.97 677.49 L988.97 697.56 L988.97 717.58 L988.97 737.56 L988.97 757.5 L988.97 777.39 L988.97 797.24 L988.97 805.7 L988.97 814.16 L988.97 822.61 L988.97 831.05 L988.97 839.48 L988.96 847.91 L988.95 856.33 L988.95 864.74 L988.95 873.15 L988.95 881.54 L988.95 889.94 L988.95 898.32 L988.94 904.71 L988.93 911.1 L988.93 917.49 L988.93 923.88 L988.93 931.37 L988.93 931.79 L988.87 931.89 L988.81 931.99 L988.75 932.1 L988.69 932.2 L988.55 932.22 L988.41 932.24 L988.27 932.25 L988.14 932.27 L981.79 932.27 L972.59 932.26 L964.89 932.26 L957.05 932.25 L948.62 932.24 L941.5 932.24 L936.12 932.24 L925.96 932.24 L925.96 940.6 L925.96 948.96 L925.96 957.31 L925.96 965.66 L918.18 961.58 L910.4 957.5 L902.61 953.42 L894.83 949.34 L887.05 945.25 L879.26 941.17 L871.48 937.08 L863.7 932.99 L855.91 928.9 L848.13 924.81 L840.35 920.72 L832.57 916.62 L824.78 912.52 L817 908.43 L809.22 904.33 L801.44 900.23 L793.65 896.12 L785.87 892.02 L778.08 887.92 L770.3 883.8 L762.52 879.69 L754.73 875.58 L746.94 871.47 L739.17 867.36 L731.38 863.24 L723.6 859.12 L715.82 855 L708.03 850.88 L700.26 846.75 L692.47 842.63 L684.68 838.5 L676.9 834.37 L669.12 830.25 L661.33 826.11 L653.55 821.98 L645.77 817.85 L637.98 813.71 L630.2 809.57 L623.79 806.15 L622.42 805.43 L614.64 801.28 L606.85 797.14 L599.07 792.99 L591.29 788.85 L583.5 784.7 L575.72 780.54 L567.94 776.39 L560.15 772.24 L552.37 768.08 L544.59 763.92 L536.8 759.76 L529.02 755.6 L521.24 751.44 L513.45 747.27 L505.67 743.1 L497.89 738.93 L490.1 734.76 L482.33 730.59 L474.54 726.42 L466.75 722.24 L458.97 718.05 L451.19 713.87 L443.4 709.69 L435.62 705.51 L427.83 701.32 L422.1 698.23 L420.81 698.4 L418.01 699.79 L414.37 701.58 L410.74 703.37 L407.1 705.17 L403.48 706.96 L399.84 708.76 L396.21 710.55 L392.57 712.34 L388.93 714.14 L385.3 715.93 L381.67 717.72 L378.03 719.51 L374.4 721.3 L370.76 723.09 L367.14 724.88 L363.5 726.67 L359.86 728.46 L358.76 729.02 L358.72 729.04 L358.71 729.04 L347.93 734.96 L337.15 740.86 L326.37 746.76 L315.59 752.66 L311.61 754.84 L310.63 754.95 L309.72 754.48 L306.85 751.92 L298.96 744.88 L291.09 737.85 L283.2 730.8 L275.32 723.75 L271.78 720.57 L264.38 716.41 L257.98 714.86 L252.42 713.5 L246.86 712.16 L241.3 710.81 L235.74 709.46 L230.18 708.1 L224.62 706.76 L219.06 705.4 L213.5 704.05 L207.94 702.7 L202.39 701.35 L196.82 700 L191.26 698.65 L185.71 697.3 L180.14 695.94 L174.58 694.59 L169.02 693.24 L164.2 683.42 L159.79 674.44 L152.72 660 L152.62 659.8 L148.08 650.51 L143.71 641.58 L142.09 639.46 L140.02 638.34 L137.41 637.47 L117.42 630.83 L102.38 625.83 L90.37 621.83 L89.01 621.56 L87.64 621.72 L80.67 624.31 L73.33 627.05 L70.82 627.3 L69.65 626.84 L61.36 620.14 L60.22 618.86 L59.43 616.45 L58.33 610.01 L57.14 608.13 L47.76 602.6 L46.98 600.74 L46.85 591.1 L46.56 581.27 L46.3 572.1 L45.46 567.68 L43.04 563.22 L33.41 549.74 L25.67 538.91 L16.05 525.4 L7.22 512.99 L5.75 509.09 L7.31 505.77 L8.19 504.64 L9.34 501.85 L11.49 499.81 L12.04 498.79 L12.28 497.59 L12.35 496.19 L34.61 485.52 L35.79 484.1 L38.42 475.05 L38.28 473.55 L37.56 471.59 L37.74 469.14 L39.32 461.62 L39.08 460.6 L38.08 459.75 L35.26 458.17 L34.57 457.53 L33.96 456.15 L32.74 448.75 L27.4 429.86 L27.43 428.69 L27.72 427.53 L28.77 424.74 L29.6 420.56 L30.5 419.05 L33.21 416.05 L33.72 414.69 L33.09 413.21 L32.17 411.62 L31.97 410.13 L33.52 409 L35.29 408.03 L36.35 406.62 L40.63 392.42 L40.81 391.8 L40.92 389 L31.72 364.53 L30.9 360.37 L34.07 335.21 L35.58 323.19 L35.4 309.53 L34 298.52 L29.01 281.19 L24.02 263.83 L16.58 249.75 L8.52 237.66 L5.23 233.73 L1.48 229.24 L0 226.86 L14.69 218.71 L28.79 211.24 L30.65 210.74 L35.24 210.44 L36.85 209.5 L44.68 199.31 L51.33 188.54 L57.07 181.98 L60.96 173.87 L61.95 170.91 L61.98 168.45 L60.4 163.3 L60.12 160.7 L60.47 157.87 L60.38 156.5 L58.39 152.29 L56.47 144.53 L51.77 131.91 L51.65 130.63 L52.32 125.81 L53.31 124.1 L57.34 119.59 L61.59 112.05 L64.83 109.43 L71.91 109.52 L75.36 108.15 L76.39 107.32 L77.32 106.38 L78.07 105.26 L79.13 102.7 L81.79 100.2 L82.61 97.74 L83.14 91.79 L84.56 90.27 L85.74 90.43 L86.88 91.08 L88.03 91.54 L89.26 91.16 L91.37 89.43 L93.66 88.01 L95.72 85.94 L98.26 80.03 L99.98 78.18 L119.46 68.83 L135.95 60.91 L140.35 57.96 L141.12 57.23 L142.4 56 L143.52 53.67 L143.3 50.53 L141.83 47.84 L137.61 43.67 L136.32 40.78 L136.28 36.66 L137.19 28.76 L136.74 20.98 L137.86 15.89 L137.9 11.69 L138.05 10.53 L139.86 3.38 Z "/>
</g>
</svg>
