<svg xmlns="http://www.w3.org/2000/svg" viewBox="0 0 1000 761.74">
<g fill="#ccc" stroke="#333" stroke-width="0.5" stroke-linejoin="round">
<path fill-rule="evenodd" d="M964.91 236.39 L966.49 243.54 L967.14 251.63 L966.72 259.57 L965.09 266.21 L961.78 271.47 L957.61 276.3 L954.29 281.78 L953.53 289.02 L956.73 295.3 L956.19 298.8 L950.15 304.94 L948.69 308.25 L946.44 319.42 L945.26 322.25 L941.2 329.82 L939.55 335.39 L940.32 338.51 L943 340.37 L953.14 344.19 L956.03 344.34 L966.3 341.56 L994.54 346.53 L998.44 349.55 L1000 354.58 L998.12 359.39 L994.02 362.53 L989.65 363.7 L983.04 365.47 L980.42 367.03 L975.53 371.89 L972.84 375.62 L971.61 378.79 L970.52 387.06 L968.62 395.71 L966 400.05 L962.26 400.73 L944.3 392.65 L941.87 392.93 L940.43 394.39 L939.43 396.14 L938.37 397.31 L936.7 397.85 L935.26 397.88 L916.4 392.96 L908.73 394.31 L903.39 402.79 L902.93 406.17 L903.09 413.54 L902.77 417.12 L901.96 419.66 L895.7 433.36 L892.72 437.95 L889.88 442.33 L887.33 445.16 L881.19 448.7 L860.52 452.94 L857.36 452.88 L851.17 451.44 L848.05 451.35 L841.65 454.09 L839.65 455.82 L839.03 458.04 L838.73 460.72 L837.64 463.75 L834.09 467.95 L830.13 471.02 L826.75 474.56 L824.98 480.12 L825.22 482.76 L826.68 488.65 L826.79 491.09 L826.03 493.58 L825.17 494.15 L824.01 494.18 L822.34 495.03 L818.63 498.37 L816.82 501.01 L816.29 504.96 L816.87 520.01 L816.6 523.06 L815.94 526.18 L815.04 528.88 L814.3 531.8 L814.11 535.51 L815.25 541.34 L819.47 551.77 L820.44 557.45 L819.56 563.29 L817.18 567.86 L813.93 571.21 L803.52 577.41 L800.92 580.94 L799.05 586.87 L798.31 594.55 L798.44 600.64 L797.8 606.28 L794.76 612.63 L786.95 622.08 L783.75 628.39 L783.52 635.74 L785.84 639.5 L789.54 640.94 L796.92 640.44 L807.12 635.06 L809.67 634.38 L812 635.74 L812.98 638.13 L813.49 640.98 L815.3 646.16 L815.95 647.23 L816.64 647.4 L818.59 646.75 L819.37 646.93 L821 648.76 L822.51 650.89 L823.85 653.51 L824.98 656.74 L825.66 657.7 L826.59 658.05 L827.42 658.66 L827.86 660.44 L827.46 661.73 L825.45 664.44 L824.92 665.78 L824.77 679.08 L823.41 683.65 L819.49 686.61 L817.47 686.91 L811.08 686.04 L809.23 686.88 L806.54 690.64 L804.77 691.7 L801.04 691.82 L785.97 689.31 L781.37 687.04 L777.51 683.33 L776.22 678.14 L777.49 676.09 L782.34 674.41 L783.57 672.24 L782.62 669.75 L778.53 667.54 L778.93 664.65 L782.41 662.65 L786.39 662.98 L787.83 661.88 L775.83 645.44 L775.02 643.8 L773.89 642.68 L771.73 642.17 L767.44 644.24 L760.61 654.34 L756.48 657.04 L742.5 657.82 L731.7 653.94 L728.65 654.45 L726.49 658.27 L723.01 671.97 L720.19 678.05 L713.23 685.87 L705.81 690.69 L698.17 691.95 L684.75 686.71 L676.93 685.59 L669.05 686.47 L668.2 686.99 L663.19 690.01 L662.5 691.85 L662.48 694.05 L662.7 695.99 L662.61 697.1 L659.42 699.11 L657.91 701.03 L656.84 701.13 L656.54 702.11 L657.33 706.53 L659.35 712.79 L661.64 717.75 L663.15 723.26 L662.82 731.18 L662.8 731.19 L662.78 731.22 L662.77 731.25 L660.6 736.17 L657.6 737.8 L646.57 739.61 L643.45 739.39 L640.94 736.89 L638.74 731.25 L638.12 730.85 L637.49 730.68 L636.86 730.8 L632.8 733.94 L621.93 736.08 L613.34 741.08 L593.84 758.61 L587.68 761.74 L581.56 761.68 L576.16 760.06 L570.41 760.31 L567.12 759.67 L565.31 756.89 L562.37 748.59 L557.6 742.78 L552.24 740.91 L546.65 741.93 L536.13 747.62 L531.1 749.03 L520.19 749.16 L517.4 748.49 L512.38 745.25 L509.73 744.14 L507.16 744.63 L494.16 752.15 L492.84 752.37 L491.4 751.92 L488.34 750.12 L487.16 749.88 L484.54 750.92 L481.59 753.1 L470.95 754.63 L462.56 758.24 L459.92 758.46 L457 757.42 L441.71 748.13 L435.84 746.59 L436.54 744.9 L436.65 743.32 L436.16 741.87 L435.15 740.57 L433.34 739.07 L431.97 736.98 L431.25 734.35 L431.35 731.25 L432.18 729.97 L433.1 728.83 L435.15 727.11 L437.69 722.66 L437.63 716.12 L435.15 702.59 L433.85 696.39 L431.99 689.89 L429.61 684.08 L426.8 679.91 L425.23 678.98 L421.57 677.97 L419.82 676.77 L418.25 674.51 L415.16 668.58 L413.52 666.02 L410.37 663.33 L406.98 660.42 L393.26 655.22 L386.77 651.23 L376.21 642.35 L373.12 640.85 L369.69 641.61 L365.63 643.35 L361.72 643.36 L358.66 639.07 L358.68 635.98 L359.66 632.67 L360.28 629.9 L359.21 628.28 L353.37 627.59 L351.45 626.28 L350.38 624.41 L349.62 622.13 L348.65 619.85 L346.84 618.01 L345.1 617.6 L341.23 618.41 L339.38 618.17 L329.18 612.89 L325.56 612.39 L321.32 614.38 L321.09 614.81 L316.78 622.82 L313.58 625.43 L303.33 607.17 L298.81 597.09 L297.82 585.65 L299.04 562.88 L302.76 548.89 L303.52 543.57 L303.33 540.38 L302.27 533.66 L302.29 530.65 L303.01 528.59 L306.74 523.06 L306.83 521.88 L306.37 520.57 L306.02 519.16 L306.37 517.74 L306.95 517.24 L308.39 516.87 L310.19 515.32 L313.18 513.69 L314.57 512.11 L316.89 508.13 L322.18 504.24 L324.75 501.44 L326.95 496.28 L327.39 491.06 L326.7 485.61 L324.15 473.65 L322.78 469.88 L320.67 467.43 L310.52 462.66 L309.11 460.36 L311.01 456.37 L308.74 455.48 L307.11 453.63 L305.9 451.61 L304.79 450.37 L303.19 449.85 L293.62 449.92 L290.82 448.42 L288.82 444.84 L286.55 438.2 L283.7 424.78 L281.83 418.84 L280.22 416.95 L279.25 415.82 L275.1 413.45 L257.26 418.8 L228.94 415.3 L225.78 414.91 L207.29 419.73 L205.11 422 L203.18 424.74 L200.01 427.07 L196.09 427.47 L191.52 425.99 L187.74 422.77 L186.19 417.86 L186.19 412.99 L185.64 409.69 L183.6 408.18 L179.19 408.63 L174.74 412.05 L173.28 412.7 L171.61 412.05 L167.46 409.26 L161.44 407.75 L158.15 405.58 L152.36 400.49 L140.58 397.93 L137.64 395.43 L134.72 391.53 L122.75 382.12 L115.82 378.7 L98.6 378.13 L92.42 373.14 L81.85 354.86 L76.63 349.61 L72.37 350.26 L58.37 361.94 L58.62 360.48 L57.85 353.61 L57.83 351.39 L58.93 350.18 L60.16 350.62 L61.39 350.48 L62.39 347.48 L62.06 345.04 L60.91 341.57 L59.5 338.43 L58.37 337.08 L56.99 335.76 L56.46 332.62 L56.59 325.85 L54.8 325.61 L44.97 335.06 L44.04 332.79 L44.03 332.14 L44.5 331.89 L51.01 316.88 L52.45 314.6 L55.09 311.32 L55.11 303.98 L53.1 291.88 L51.01 282.94 L50.77 280.59 L50.02 279.57 L48.4 277.77 L46.77 275.35 L46.04 272.48 L46.2 268.81 L46.49 266.42 L46.55 264.18 L46.04 261.07 L39.65 244 L38.39 238.7 L37.89 233.01 L36.8 230 L29.75 217.64 L28.07 215.77 L26.58 214.76 L25.5 212.84 L24.72 205.35 L23.14 199.44 L20.44 173.84 L20.44 160.49 L20.82 157.17 L22.39 152.95 L22.77 150.12 L22.77 124.04 L21.92 113.36 L28.38 111.75 L38.39 111.66 L45.23 109.74 L47.78 103.96 L49.01 95.54 L51.92 85.71 L56.21 78.98 L62.26 72.33 L68.59 66.99 L73.81 64.28 L81.54 63.9 L84.19 63.01 L107.95 44.65 L114.27 41.4 L129.32 40.72 L177.11 18.13 L180.15 16.69 L199.03 7.75 L206.7 8.28 L209.93 9.96 L216.25 14.69 L219.59 16.07 L270.1 14.35 L281.01 16.88 L281.42 17.1 L285.93 19.54 L293.48 27.52 L296.41 28.75 L298.98 28.38 L323.06 18.38 L329.3 14.01 L334.3 10.51 L340.35 9.38 L345.87 12.5 L350.02 21.35 L356.04 36.5 L363.8 42.54 L372.38 40.48 L380.91 31.24 L379.43 28.05 L382.56 26.03 L402.28 21.39 L406.06 22.15 L417.53 27.05 L435.15 34.58 L441.27 35.03 L451.51 28.9 L456.98 27.3 L468.82 27.9 L473.46 27.11 L474.89 27.63 L476.33 29.76 L476.54 32.04 L476.35 33.96 L476.57 34.98 L481.87 35.85 L493.6 33.11 L499.23 33.27 L501.44 33.98 L520.19 40.02 L536.16 52.65 L541.86 55.87 L547.02 56.87 L547.27 56.82 L551.77 55.99 L572.33 45.19 L577.59 44.26 L583.07 46.41 L593.89 54.39 L599.48 55.92 L605.29 53.37 L615.1 47.62 L618.32 44.26 L632.14 25.41 L638.86 20.09 L645.06 17.34 L660.46 10.48 L662.17 10.4 L665.93 11.89 L667.32 11.59 L668.39 8.91 L668.61 5.5 L669.24 2.23 L671.6 0 L675.22 1.19 L678.26 6.35 L682.71 19.28 L687.11 37.91 L688.99 43.59 L690.7 46.74 L696.36 53.05 L698.01 56.03 L701.04 65.89 L706 75.12 L712.14 79.63 L752.96 86.72 L770.95 89.84 L782.52 87.73 L791.05 91.87 L793.97 92.45 L804.12 91.63 L806.19 92.54 L807.44 95.23 L810.61 105.51 L812.1 108.7 L814.18 110.78 L823.96 117.61 L828.93 123.26 L841.83 137.87 L857.14 148.11 L866.73 154.52 L877.25 166.43 L894.13 181.16 L898.41 187.87 L902.35 197.11 L911.34 213.36 L921.99 221.49 L945.6 232.97 L955.2 235.62 Z M11.04 354.64 L0 351.79 L0.04 351.72 L12.76 329.55 L19.9 311.85 L26.85 287.38 L28.68 262.1 L29.75 256.97 L28.82 255.54 L29.75 252.67 L28.27 246.6 L28.75 227.77 L27.34 219.52 L32.82 226.49 L35.22 239.83 L35.57 266.13 L35.19 269.91 L33.61 274.94 L33.24 278.54 L33.24 289.84 L31.29 294.75 L28.6 299.7 L27.67 304.36 L30.91 308.45 L30.91 310.32 L28.46 313.46 L25.34 319.13 L22.64 325.83 L21.51 331.99 L19.28 338.05 L10.96 349.2 Z "/>
</g>
</svg>
