<svg xmlns="http://www.w3.org/2000/svg" viewBox="0 0 1000 1443.35">
<g fill="#ccc" stroke="#333" stroke-width="0.5" stroke-linejoin="round">
<path fill-rule="evenodd" d="M511.09 108.01 L502.3 136.66 L496.13 163.87 L488.12 219.48 L490.36 220.91 L497.97 220.2 L500.85 220.61 L496.13 227.05 L484.32 250.14 L498.1 258.11 L506.36 274.35 L514.24 315.61 L510.69 337.56 L516.21 353.58 L538.12 387.05 L557.41 442.54 L567.51 459.77 L581.16 432.65 L602.94 468.03 L644.67 568.89 L664.48 589.05 L707.52 608.29 L726.02 620.3 L732.06 631.09 L737.18 644.77 L744.78 665.07 L746.1 671.68 L756.33 672.6 L775.36 661 L786.51 661.31 L808.03 674.94 L844.51 709.82 L866.03 723.54 L888.2 729.64 L949.09 729.64 L988.19 741.23 L993.18 741.54 L1000 748.96 L999.61 748.55 L996.85 751.29 L996.72 767.86 L994.88 769.18 L988.85 811.95 L988.72 825.87 L992.13 834.6 L991.6 842.21 L979.27 853.08 L978.35 870.64 L981.24 886.68 L987.27 900.78 L996.33 912.96 L985.3 908.6 L979.4 911.54 L975.07 921.08 L983.73 931.12 L986.22 935.38 L892.93 996.02 L873.24 1023.69 L875.48 1030.18 L883.61 1035.75 L891.35 1043.35 L892.53 1056.32 L889.12 1065.13 L879.54 1079.31 L866.68 1105.85 L833.62 1146.75 L814.46 1176.9 L807.24 1198.45 L807.24 1260.44 L804.77 1279.26 L796.48 1342.39 L800.42 1401.57 L800.33 1415.96 L774.96 1413.28 L741.24 1394.7 L680.74 1349.32 L678.52 1347.65 L643.75 1333.71 L607.66 1329.87 L534.71 1337.95 L542.97 1355.93 L507.15 1359.26 L498.1 1362.9 L491.41 1374.81 L491.54 1387.33 L488.65 1397.83 L473.3 1403.69 L460.96 1422.46 L442.33 1429.42 L334.08 1435.98 L312.03 1443.35 L294.58 1387.43 L270.7 1363.3 L190.13 1344.01 L158.25 1328.96 L136.07 1308.15 L96.18 1254.88 L126.36 1240.42 L155.49 1209.17 L167.56 1178.62 L146.04 1166.78 L160.35 1153.22 L170.45 1133.59 L186.72 1088.43 L196.82 1076.48 L209.42 1064.73 L216.51 1047.71 L209.42 1019.84 L200.24 1012.04 L174.78 1009.1 L166.12 1002.51 L161.66 988.11 L163.5 981.12 L167.3 974.83 L167.96 962.05 L169.93 951.2 L176.09 944.2 L180.82 936.09 L179.62 925.53 L179.11 921.08 L171.76 909.41 L163.5 908.8 L155.36 911.54 L148.27 910.22 L140.66 905.96 L122.95 900.58 L114.81 893.98 L115.34 889.42 L112.58 862.01 L110.62 852.77 L80.7 793.46 L72.3 780.97 L56.16 771.01 L42.51 768.67 L29.65 762.37 L16.27 740.01 L8.53 715.31 L6.69 691.82 L12.33 673 L27.42 662.83 L15.22 651.44 L17.45 644.32 L19.81 639.74 L21.65 633.83 L21.52 622.44 L54.85 625.9 L43.04 607.98 L14.96 586.5 L0 579.28 L5.12 560.54 L49.07 484.03 L54.19 471.49 L57.21 461.5 L61.93 451.2 L71.91 437.95 L80.83 431.93 L99.59 427.55 L110.09 417.65 L124 390.52 L118.88 379.6 L109.96 368.58 L111.4 341.33 L119.28 330.82 L144.99 319.39 L154.18 309.58 L157.33 293.96 L157.33 275.37 L155.89 252.49 L163.5 240.23 L182 224.08 L189.74 212.84 L192.89 199.35 L195.38 167.24 L199.97 154.66 L220.97 135.43 L268.21 112.21 L287.1 92.46 L297.21 64 L302.45 36.87 L313.21 18.54 L340.24 15.67 L359.8 0 L367.93 8.91 L372.13 27.86 L379.87 42.4 L391.09 47.87 L396.67 50.59 L410.97 52.64 L439.84 48.03 L450.86 41.17 L458.99 32.37 L468.84 31.03 L485.24 46.91 L490.75 65.13 L489.31 83.86 L492.19 99.52 Z "/>
</g>
</svg>
