<svg xmlns="http://www.w3.org/2000/svg" viewBox="0 0 1000 1842.51">
<g fill="#ccc" stroke="#333" stroke-width="0.5" stroke-linejoin="round">
<path fill-rule="evenodd" d="M572.8 922.1 L732.85 958.48 L801.44 958.48 L801.44 1032.54 L767.75 1083.86 L709.99 1120.89 L641.4 1120.89 L596.87 1265.1 L706.38 1304.73 L778.58 1332.66 L859.21 1295.64 L859.21 1320.32 L813.48 1369.04 L885.68 1419.05 L977.14 1418.4 L987.97 1456.72 L1000 1493.75 L1000 1531.42 L977.14 1543.76 L942.24 1556.1 L851.99 1502.84 L859.21 1594.42 L801.44 1619.1 L755.72 1606.76 L693.14 1555.45 L691.94 1650.93 L670.28 1726.91 L687.12 1805.5 L641.4 1817.84 L554.75 1750.29 L478.94 1805.5 L468.11 1830.18 L433.21 1842.51 L398.32 1842.51 L352.59 1805.5 L314.08 1716.52 L375.45 1700.94 L332.13 1278.1 L330.93 1276.8 L210.59 1149.47 L182.91 1089.71 L182.91 1088.41 L215.4 951.33 L318.89 933.14 L341.76 909.75 L488.57 877.27 Z M245.49 59.15 L281.59 0 L364.62 49.4 L364.62 74.09 L456.08 110.49 L501.81 148.18 L528.28 211.23 L546.33 274.91 L468.11 261.27 L422.38 298.96 L433.21 336 L456.08 348.35 L551.14 292.46 L501.81 385.39 L501.81 397.74 L478.94 373.04 L456.08 397.74 L468.11 424.38 L468.11 461.42 L468.11 473.77 L468.11 498.46 L422.38 522.5 L341.76 584.23 L296.03 608.92 L238.27 608.92 L192.54 671.95 L133.57 671.95 L73.41 749.92 L72.2 751.22 L0 591.38 L4.81 573.19 L33.69 483.51 L73.41 442.58 L81.83 433.48 L155.23 307.41 L227.44 211.23 L204.57 159.88 L180.51 159.88 L192.54 185.23 L110.71 211.23 L66.19 131.29 L133.57 110.49 L133.57 98.14 L227.44 98.14 Z "/>
</g>
</svg>
