<svg xmlns="http://www.w3.org/2000/svg" viewBox="0 0 1000 1986.57">
<g fill="#ccc" stroke="#333" stroke-width="0.5" stroke-linejoin="round">
<path fill-rule="evenodd" d="M141.71 1207.06 L141.24 1202.35 L142.61 1197.02 L152.63 1176.83 L155.58 1172.22 L163.78 1164.19 L167.02 1160.12 L169.6 1155.48 L171.81 1150.02 L172.52 1145.55 L172.56 1139.28 L171.53 1134.42 L169 1134.06 L167.79 1130 L167.13 1128.98 L166.15 1128.41 L164.18 1128.3 L163.29 1127.98 L161.43 1126.34 L159.61 1124.08 L158.21 1121.53 L157.66 1119.02 L158.2 1117.05 L160.83 1112.04 L161.89 1110.5 L163 1108.43 L163.44 1106 L163.29 1101 L162.97 1099.52 L162.48 1098.2 L162.16 1096.81 L162.35 1095.11 L163 1094.45 L165.39 1092.93 L166.19 1092.04 L166.88 1089.3 L167.22 1087.06 L168.32 1085.53 L171.34 1084.98 L173.17 1082.44 L172.62 1076.73 L169.86 1067.07 L167.8 1062.44 L165.17 1058.12 L158.66 1051.77 L157.66 1050.08 L156.59 1045.31 L153.98 1040.56 L141.31 1023.95 L138.92 1019.23 L137.98 1014.26 L138.92 1005.78 L140.78 1001.26 L140.78 992.35 L140.66 991.99 L140.08 990.93 L139.93 990.36 L140.17 989.37 L141.33 988.2 L141.71 987.41 L142.56 983.81 L142.65 982.39 L142.07 977.85 L138.79 967.74 L132.26 949.85 L122.44 936.1 L113.55 923.16 L112.46 918.88 L112.47 890.11 L107.09 862.02 L106.86 852.53 L110.93 834.63 L111.63 828.22 L110.89 826.08 L107.6 822.98 L105.69 816.4 L97.01 804.03 L96.23 800.56 L96.29 796.08 L97.48 787.22 L98.92 783.02 L105.92 771.49 L108.38 765.51 L109.24 765.1 L110.87 765.93 L111.74 764.85 L113 760.68 L123.46 744.3 L125.71 741.98 L126.71 739.89 L127.14 737.85 L127.56 731.05 L131.41 731.15 L134.76 725.66 L139.42 713.31 L140.37 711.82 L144.12 707.91 L144.85 706.71 L145.98 703.45 L146.97 702 L149.2 699.43 L150.86 696.75 L153.49 690.77 L157.09 685.44 L161.89 680.14 L165.88 674.48 L167.13 668.06 L166.37 665.28 L163.89 659.17 L163.29 656.23 L163.98 652.78 L165.58 651.17 L167 651.87 L167.13 655.37 L169.3 651.63 L170.37 647.68 L170.3 643.68 L169 639.71 L163.83 631.88 L161.75 627.56 L161.42 622.92 L162.02 621.11 L163.1 619.08 L164.38 617.13 L165.68 615.66 L166.62 614.13 L166.95 612.23 L167.35 604.17 L167.8 602.22 L168.92 600.93 L171.2 600.29 L175.77 600.26 L180.48 599.47 L210.43 602.39 L214.14 601.52 L215.84 601.64 L219.17 604.42 L221.57 605.78 L224.06 606.46 L225.99 605.81 L227.29 604.14 L228.13 602.75 L229.15 601.57 L231.06 600.44 L232.96 599.91 L236.92 599.29 L238.73 598.48 L237.61 597.5 L245.62 593.68 L249.59 591.12 L252.29 587.66 L256.97 579.79 L260.06 575.9 L263.12 572.94 L266.84 570.74 L275.29 567.08 L280.66 563.37 L281.63 564.25 L281.94 566.32 L282.14 570.86 L284.55 578.8 L284.68 579.5 L284.76 580.82 L284.68 581.83 L283.91 584.73 L283.73 587.16 L283.95 589.02 L284.98 590.24 L287.15 590.67 L289.25 589.98 L290.61 588.42 L291.78 586.58 L293.25 585.22 L297.92 583.44 L299.87 582.08 L300.79 579.85 L300.44 578.6 L297.75 577.58 L296.11 575.87 L295 573.46 L294.93 571.65 L296.18 570.5 L318.61 568.06 L319.56 567.76 L320.57 567.29 L322.37 566.1 L323.39 570.09 L324.44 571.58 L324.95 571.93 L325.15 572.46 L325.19 574.48 L323.7 578.62 L323.79 580.07 L326.19 578.87 L327.13 581.65 L328.14 581.32 L329.48 578.87 L328.07 571.51 L328.48 569.93 L330.67 567.71 L331.75 566.1 L331.62 565.74 L331.75 562.13 L332.03 560.87 L332.5 559.81 L332.83 558.7 L332.76 557.25 L331.69 555.43 L330.21 554.19 L329.42 552.92 L330.42 550.96 L334.84 546.22 L339.37 543.27 L340.8 543.18 L343.08 544.08 L345.14 544.62 L347.24 544.62 L349.26 544.85 L354.22 548.04 L357.31 547.59 L365.68 542.68 L367.4 542.05 L369.26 541.69 L371.38 541.56 L374.35 541.99 L375.38 543.25 L375.14 547.97 L375.25 550.22 L375.75 551.38 L376.88 551.91 L378.87 552.37 L380.03 552.47 L382.42 552.28 L383.59 552.37 L387.32 554.4 L390.49 554.52 L390.49 553.63 L389.15 551.88 L388.26 549.44 L388.84 547.9 L390.09 546.66 L391.14 545.12 L391.16 542.62 L387.86 544.34 L384.64 546.85 L382.78 547.73 L383.59 544.57 L385.57 541.32 L388.41 538.36 L391.64 535.81 L394.81 533.84 L397.94 532.57 L401.22 531.94 L408.04 531.91 L411.49 532.37 L413.09 532.93 L413.76 533.9 L413.77 535.57 L413.96 537.07 L414.51 538.44 L415.62 539.69 L414.03 542.27 L413.38 544.55 L412.43 546.58 L409.9 548.46 L412.89 550.94 L415.08 553.17 L416.83 555.78 L421.65 565.77 L423.87 568.46 L426.89 570.98 L427.02 569.59 L426.92 567.76 L427.04 566.07 L427.82 565.13 L428.93 565.47 L430.47 568.19 L431.56 569.03 L434.28 568.4 L435.44 565.93 L435.34 562.82 L434.37 560.26 L438 559.91 L440.63 562.48 L443.01 565.88 L445.8 568.06 L447.23 566.94 L445.73 563.16 L442.44 557.25 L439.73 556.03 L434.04 550.66 L430.62 549.44 L426.19 549.71 L424.99 549.44 L422.48 547.92 L422.73 546.96 L424.36 546.03 L426.01 544.57 L429.66 538.83 L430.26 536.05 L428.76 533.84 L427.25 533.68 L425.38 533.93 L423.8 533.93 L423.13 532.86 L423.58 530.55 L425.58 526.65 L427.11 521.44 L429.7 518.7 L435.83 513.81 L444.49 503.99 L447.67 501.63 L447.91 502.36 L448.21 502.95 L448.46 503.61 L448.52 504.55 L450.06 503.68 L453.78 500.13 L459.61 495.85 L461.24 494.3 L464.47 492.09 L468.13 491.72 L471.75 491.78 L474.87 490.84 L473.06 489.61 L468.8 488.43 L468.3 487.05 L469.77 485.51 L477.69 483.56 L491.84 473.25 L502.2 463.72 L508 462.02 L511.82 459.93 L513.95 459.46 L514.84 459.93 L515.25 461.04 L515.43 462.36 L515.41 466.11 L515.63 466.89 L517.31 470.42 L518.39 471.86 L519.87 473.07 L522.01 474.31 L526.71 476.26 L529.02 477.81 L529.04 479.57 L527.68 481.43 L525.6 485.04 L523.89 486.5 L521.76 487.92 L520.35 489.41 L514.23 501.79 L512.59 506.59 L513.03 509.95 L514.5 510.28 L515.52 508.28 L516.77 503.6 L518.38 502.14 L520.88 501.31 L525.77 500.58 L530.43 498.82 L534.77 496.5 L539.04 495.26 L543.48 496.78 L548.47 494.88 L550.64 493.38 L551.08 490.84 L550.55 490.03 L549.65 489.82 L548.54 489.73 L547.33 489.38 L546.16 488.66 L545.65 488.02 L543.35 483.72 L541.45 474.68 L541.49 473.78 L541.05 473.35 L539.32 473.25 L538.1 473.49 L534.12 475.29 L533.74 473.48 L533.92 471.86 L535.22 468.4 L533.36 468.66 L531.86 468.61 L530.83 467.94 L529.98 465.04 L527.65 463.69 L526.71 462.47 L526.44 459.25 L527.65 456.18 L531.39 450.9 L535.96 446.82 L541.87 442.9 L547.02 438.34 L549.99 429.93 L551.91 427.4 L558.83 420.82 L561.71 419.14 L564.81 418.07 L568.05 417.71 L569.83 416.15 L570.24 412.84 L569.35 409.91 L567.11 409.47 L565.6 410.74 L564.8 413.03 L563.27 413.84 L561.14 413.97 L559.85 413.17 L557.72 409.95 L558.57 409.95 L562.71 403.32 L579.85 385.04 L581.78 383.62 L582.67 384.18 L583.21 385.75 L584.08 387.47 L586.9 390.73 L587.07 392.22 L586.47 400.92 L586.99 403.07 L587.57 403.63 L588.47 403.94 L589.34 404.59 L589.78 406.07 L589.42 406.46 L587.9 409.95 L580.01 419.23 L577.93 422.57 L576.53 426.82 L575.13 444.2 L575.58 445.91 L577.51 447.01 L579.14 446.66 L583.64 444.16 L585.02 443.12 L587.5 439.24 L588.8 435.28 L590.58 431.53 L594.47 428.39 L596.02 429.58 L596.49 428.27 L596.35 424.6 L597.12 422.22 L606.95 403.34 L607.69 399.2 L608.29 397.44 L612.76 392.84 L613.15 391.67 L613.14 389.1 L613.65 388.01 L614.7 387.19 L617.05 386.05 L617.83 385.53 L620.93 381.93 L622.17 379.83 L622.68 377.87 L623.65 375.7 L625.68 374.54 L627.63 373.12 L628.24 370.11 L634.07 378.32 L636.76 380.68 L638.56 381.41 L642.86 382.61 L644.35 383.69 L645.06 385.39 L644.9 388.68 L645.21 390.46 L647.21 388.2 L647.35 385.04 L646.22 382.17 L644.35 380.68 L648.16 377.62 L651.79 378.03 L654.53 381.01 L655.59 385.59 L655.39 395.24 L656.14 397.93 L658.42 394.35 L659.19 390.17 L659.14 384.34 L657.89 379.15 L655.13 376.9 L653.29 376.28 L651.57 374.79 L648.53 371.53 L645.94 370.13 L643.88 370.46 L639.57 373.02 L637.8 373.75 L636.02 374.1 L634.13 373.67 L632.06 371.96 L630.96 369.97 L630.11 367.91 L629.17 367.16 L625.29 372.56 L623.55 374.23 L622.17 374.96 L621.33 373.85 L618.48 368.72 L617.83 367.13 L618.11 366.55 L619.51 365.14 L619.79 364.22 L619.52 362.86 L619 362.05 L618.38 361.38 L616.05 356.46 L616.1 355.61 L616.67 355.15 L616.92 354.73 L615.36 353.52 L615.11 353.09 L615.33 346.97 L616.2 342.2 L617.91 337.73 L620.73 334.12 L624 332.13 L625.02 330.96 L625.41 328.7 L625.59 324.48 L626.16 322.96 L627.38 321.46 L630.62 320.43 L637.01 325.08 L641.48 324.83 L643.32 324.34 L646.04 324.72 L647.15 324.34 L648.35 322.77 L649.22 320.47 L649.77 318.02 L649.97 316.07 L649.47 312.84 L648.1 308.94 L646.01 305.56 L643.33 303.96 L645.13 302.02 L648.08 302.85 L653.72 306.95 L654.83 307.53 L656.01 307.99 L657.13 308.62 L657.98 309.75 L658.16 311.59 L657.28 312.95 L656.14 314.28 L655.59 316.07 L655.14 319.68 L653.15 327.01 L652.71 330.67 L652.68 331.95 L652.89 334.17 L653.73 335.93 L655.59 335.97 L656.51 334.83 L656.57 333.22 L656.39 331.56 L656.53 330.25 L657.6 329.37 L659.37 328.25 L660.77 327.01 L660.77 325.79 L659.68 324.53 L658.62 322.91 L657.81 321.16 L657.55 319.52 L658.54 316.41 L662.25 311.31 L663.1 308.29 L663.1 305.01 L662.72 301.75 L661.5 299.24 L656.06 297.37 L653.02 295.23 L648.01 290.42 L658.45 284.95 L658.45 283.17 L651.85 278.82 L646.31 276.59 L644.77 275.36 L641.17 268.58 L639.05 259.32 L640.14 251.43 L646.15 248.71 L644.68 246.53 L642.99 245.72 L641.71 244.43 L641.44 240.9 L641.86 237.94 L642.96 233.73 L644.82 230.82 L647.59 231.74 L649.64 231.9 L650.77 228.4 L651.38 222.08 L652.55 221 L654.03 220.1 L655.47 220.1 L656.53 221.6 L655.95 222.48 L654.56 223.65 L653.71 225.24 L654.66 227.39 L655.43 226.97 L656.77 226.69 L657.55 226.43 L656.81 228.14 L657.11 229.71 L658.21 230.47 L659.83 229.76 L660.36 228.59 L660.4 227.35 L660.96 226.21 L663.1 225.38 L660.58 222.62 L660.4 221.57 L665.49 221.6 L667.59 223.21 L668.54 226.82 L669.05 230.7 L669.75 233.19 L673.56 231.44 L675.66 232.62 L676.71 235.52 L677.33 238.97 L679.71 245.38 L680.07 247.75 L680.07 248.71 L680.18 249.67 L680.6 250.43 L682.75 251.22 L682.43 252.3 L681.01 254.02 L682.53 256.86 L686.11 259.54 L690.19 261.54 L693.23 262.3 L697.12 261.3 L701.07 258.71 L702.96 255.26 L700.68 251.6 L701.64 249.4 L701.71 241.95 L702.48 239.66 L704.99 235.11 L705.48 233.19 L702.49 228.21 L701.89 225.69 L704.55 224.49 L706.13 225.3 L710.16 231.25 L710.86 228.63 L712.06 226.1 L713.46 223.99 L714.83 222.56 L716.59 221.92 L719.18 221.48 L721.71 221.37 L723.37 221.6 L723.33 220.9 L723.41 219.44 L723.37 218.72 L726.54 221.52 L728.16 222.4 L729.47 222.08 L729.17 220.84 L726.77 215.9 L725.68 211.96 L723.27 208.77 L722.34 207.16 L721.93 205.25 L721.85 203.3 L722.34 199.44 L724.49 199.93 L725.74 201.23 L726.7 202.83 L728.06 204.27 L728.13 206.56 L730.64 208.26 L737.92 211.16 L739.19 211.45 L740.57 211.24 L742.21 210.48 L743.92 210.07 L745.65 210.34 L747.28 210.83 L748.76 211 L753.75 209.59 L758.75 206.66 L763.25 202.75 L766.67 198.38 L764.28 195.58 L766.24 191.56 L771.36 185.32 L770.92 183.59 L768.9 180.31 L768.47 178.1 L768.55 173.46 L768.86 171.1 L771.95 159.99 L773.78 156.07 L777.59 150.93 L778.65 148.75 L779.47 146.48 L779.8 144.71 L780.47 143.12 L782.08 141.02 L783.95 139.2 L785.43 138.51 L784.83 134.94 L787.01 125.84 L787.31 122.06 L786.52 120.26 L783.76 116.96 L782.62 115.26 L781.73 113.32 L781.2 111.74 L780.48 105.42 L779.97 103.86 L777.92 100.82 L777.06 100.28 L776.31 100.49 L775.63 100.37 L775.03 98.91 L775.07 97.49 L775.74 96.66 L776.51 95.97 L776.98 94.98 L776.88 93.81 L776.1 92.09 L776.05 91.13 L777.59 87.68 L777.92 87.28 L776.88 85.6 L775.31 85.43 L773.37 86.18 L771.36 87.28 L771.3 83.15 L770.08 80.79 L765.65 76.71 L763.52 70.99 L762.36 69.08 L761.97 71.83 L756.36 69.04 L758.02 67.69 L760.43 63.86 L761.97 63.71 L763.63 64.49 L765.1 64.92 L768.52 65.11 L773.22 66.06 L776.12 68.59 L780.27 76.63 L781.78 77.46 L783.93 76.8 L786 75.36 L787.31 73.85 L787.88 71.75 L788.25 64.24 L788.55 63.41 L790.12 60.39 L790.13 59.67 L789.87 57.68 L790.12 56.55 L791.34 54.76 L793.09 53.39 L795.04 52.87 L796.77 53.69 L797.67 51.17 L799.1 49.98 L800.78 48.93 L802.4 46.87 L804.42 49.39 L806.21 47.46 L807.97 44.02 L809.9 42 L812.16 43.9 L814.21 43.14 L815.78 40.85 L816.55 38.25 L816.38 37.16 L815.91 36.14 L815.51 35 L815.61 33.44 L816.36 31.88 L817.41 31 L818.51 30.36 L819.43 29.51 L820.79 29.27 L821.12 28.51 L820.3 26.65 L819.11 25.28 L818.19 25.05 L817.15 25.14 L815.61 24.71 L814.93 24.11 L814.47 23.29 L813.88 22.44 L812.8 21.76 L811.29 21.51 L806.22 21.76 L808.07 19.19 L813.59 17.4 L815.61 15.04 L817.69 16.5 L822.17 22.81 L823.11 21.76 L824.13 22.81 L824.27 20.09 L823.22 17.05 L821.19 14.67 L818.43 14.08 L818.97 12.66 L819.83 11.7 L820.71 10.95 L821.31 10.26 L822.71 9.64 L823.11 9.28 L822.93 8.83 L822.46 7.98 L822.22 6.97 L822.64 5.94 L826.76 1.42 L829.16 0 L831.64 0.57 L833.05 1.58 L836.84 5.94 L837.75 7.93 L837.78 11.97 L838.69 13.64 L841.4 17.21 L841.76 20.63 L841.38 24.26 L841.93 28.46 L844.38 33.66 L844.68 35.75 L843.88 35.82 L838.69 29.99 L837.42 29.74 L836.4 30.95 L835.46 32.56 L834.45 33.44 L832.58 32.97 L831.04 31.48 L830.02 29.49 L829.68 27.61 L828.22 28.31 L827.14 29.42 L826.41 30.79 L826.01 32.39 L827.67 33.24 L827.28 34.89 L824.99 39.11 L827.07 39.07 L829.9 39.49 L832.41 40.35 L833.52 41.55 L833.05 42.48 L831.07 44.17 L830.7 44.95 L830.94 46.16 L831.41 47.44 L832.11 47.93 L833.05 46.87 L834.51 44.35 L835.63 43.76 L836.74 44.74 L838.2 46.87 L838.01 47.59 L837.41 48.55 L837.33 49.39 L838.69 49.75 L841.43 49.85 L842.76 49.61 L843.83 48.88 L844.62 46.46 L842.67 42.5 L843.32 40.62 L845.82 39.22 L847.39 40.19 L851.37 46.46 L851.76 48.08 L851.83 49.72 L852.26 51.67 L853.57 53.85 L854.98 55.41 L855.99 57.3 L856.11 60.39 L857.02 58.56 L858.21 57.37 L859.71 56.73 L861.65 56.55 L863.73 56.91 L864.58 57.69 L865.16 58.77 L867.53 61.06 L868.32 62.82 L868.4 64.41 L867.35 65.11 L865.44 64.65 L863.77 63.89 L862.25 63.76 L860.8 65.11 L864.15 67.9 L865.92 70.12 L867.48 70.33 L870.17 67.03 L873.99 75.66 L874.86 78.64 L875.16 82.37 L874.82 84.19 L873.49 83.93 L872.38 82.37 L871.98 80.62 L872.02 76.71 L871.2 80.54 L873.23 88.55 L872.49 91.67 L871.41 93.13 L870.8 94.62 L870.7 96.18 L871.11 97.86 L872.38 100.23 L873.35 100.07 L874.39 99.09 L875.89 98.91 L877.95 100.28 L880.73 102.76 L883.18 105.6 L884.23 108.04 L884.54 109.84 L885.89 112.85 L886.2 114.37 L885.84 116.18 L884.07 119.28 L883.38 121.1 L884.61 120.45 L885.83 120.2 L886.98 120.38 L888.05 121.1 L888.88 119.53 L889.78 118.34 L890.55 117.06 L891.26 113.18 L892.26 111.96 L893.77 111.69 L895.65 112.45 L895 113.85 L894.62 114.37 L896.49 114.86 L898.33 115.77 L899.98 116.96 L903.4 120.17 L904 121.1 L903.4 124.67 L903.59 125.95 L905.34 129.69 L906.63 131.16 L908.36 131.76 L910.25 131.64 L912.15 131.75 L913.46 132.86 L913.56 135.7 L912.58 136.45 L911.05 136.89 L910.54 137.94 L912.53 140.43 L914.38 141.46 L916.24 142.07 L917.67 143.29 L918.23 146.15 L918.96 148.2 L922.12 151.99 L922.84 153.37 L923.11 160.93 L921.91 172.29 L922.04 174.44 L922.7 177.3 L922.84 179.55 L923.37 181.33 L927.1 186.83 L927.53 189.29 L927.04 195.33 L927.62 197.42 L929.48 198.52 L931.15 198.02 L932.67 197.24 L934.1 197.42 L935.31 199.45 L935.15 201.92 L934.1 206.66 L934.38 210.45 L936.36 218.72 L937.93 222.56 L938.54 223.32 L940.18 224.62 L940.75 225.38 L940.94 226.48 L940.69 229.04 L940.75 230.21 L941.29 233.14 L941.69 234.14 L942.04 234.68 L942.49 234.98 L943.03 235.16 L943.6 235.21 L944.43 235.42 L944.56 235.99 L944.54 236.76 L944.98 237.58 L945.28 239.17 L944.17 243.97 L944.98 246.25 L946.01 247.84 L949.19 254.5 L950.42 259.16 L951.87 287.37 L954.62 297.89 L955 301.97 L954.87 307 L953.59 310.96 L953.21 313.5 L953.02 318.5 L953.35 321.44 L954.29 323.1 L957.72 326.28 L960.03 330.52 L960.13 334.58 L958.42 345.47 L957.1 349.86 L956.78 352.06 L957.01 354.55 L958.73 361.31 L959.74 377.04 L963.48 384.77 L963.88 389.93 L962.69 394.51 L959.59 396.28 L960.86 398.01 L964.52 399.89 L966.16 401.13 L967.23 402.97 L968.11 405.47 L969.75 414.53 L979.58 436.42 L982.09 440.31 L988.76 448.51 L990.14 450.8 L991.28 455.62 L992.73 457.1 L994.53 458.14 L996.24 459.46 L998.09 462.93 L999.23 467.57 L1000 476.7 L999.87 477.56 L999.06 479.82 L997.75 482.03 L997.7 483.02 L998.01 484.02 L998.21 485.45 L998.03 486.46 L996.71 489.87 L996.45 491.29 L996.71 492.7 L997.08 493.94 L997.18 494.83 L996.6 495.94 L994.94 497.69 L994.37 498.63 L993.43 503.6 L990.98 510.72 L990.71 513.35 L989.83 517.18 L977.62 540.48 L976.55 544.57 L977.94 545.4 L977.04 547.29 L967.11 560.26 L963.97 568.28 L962.4 570.09 L960.19 570.67 L958 570.36 L955.91 570.43 L953.88 572.04 L951.11 565 L948.76 562.72 L945.44 563.17 L938.68 557.25 L936.13 554.17 L935.12 549.93 L934.46 542.61 L934.18 541.56 L932.54 540.9 L930.59 539.34 L928.8 537.46 L927.62 535.88 L926.7 533.98 L925.99 531.73 L925.59 529.34 L925.66 527.04 L926.41 524.7 L927.3 522.81 L927.47 520.94 L926.13 518.77 L925.26 517.95 L924.47 517.52 L923.58 517.33 L922.38 517.29 L921.74 516.85 L917.83 511.67 L917.48 509.84 L918.23 505.43 L918.3 502.92 L917.21 495.71 L917.4 494.85 L917.89 494.02 L918.07 493.04 L917.21 491.81 L916.54 491.58 L913.98 491.33 L910.38 493.21 L905.38 493.76 L896.5 493.76 L892.03 495.29 L888.97 498.11 L881.13 509.25 L881.27 512.94 L884.23 521.09 L884.38 523.1 L884.23 525.09 L882.8 528.99 L882.44 528.99 L883.35 530.76 L884.94 532.3 L886.46 534.17 L887.57 538.95 L889.51 543.64 L890.45 550.84 L891.83 555.29 L893.86 559.13 L894.22 560.77 L893.77 563.17 L892.77 565.58 L888.58 573.02 L887.34 577.14 L887.27 581.9 L888.18 586.65 L889.95 590.67 L893.54 594.17 L902.49 597.4 L906.45 599.95 L909.6 604.56 L910.17 608.67 L907.25 622.06 L907.02 627.63 L907.77 632.59 L910.24 634.73 L911.65 635.65 L911.99 637.82 L911.46 643.35 L910.87 645.41 L910.74 646.5 L910.74 651.45 L910.11 653.28 L902.86 665.98 L898.89 670.62 L892.77 675.59 L893.01 682.18 L894 685.2 L896.09 688.32 L898.97 691.01 L901.93 692.57 L905.2 693.1 L908.86 692.73 L904.7 695.08 L900.35 696.75 L892.3 697.96 L888.88 699.84 L881.97 700.47 L879.22 701.07 L877.01 702.63 L875.26 704.85 L866.1 723.47 L859.71 741.56 L852.69 758.28 L851.32 768.54 L851.95 770.71 L856.11 777.46 L862.68 812.88 L863.44 822.2 L861.81 832.17 L856.99 849.32 L850.29 871.18 L850.12 873.71 L850.29 876.2 L850.85 878.18 L851.49 879.22 L853.02 881.07 L853.67 882.13 L853.98 883.78 L853.16 884.6 L851.76 885.16 L850.38 886.07 L846.2 894.08 L842.78 922.8 L841.82 924.65 L839.22 927.95 L838.2 929.73 L834.91 939.62 L826.85 956.53 L819.7 983.46 L809.03 1008.13 L804.01 1015.86 L791.5 1061.42 L774.17 1105.98 L769.48 1128.98 L769.17 1132.38 L769.24 1137.82 L764.79 1151.02 L763.92 1149.21 L762.23 1146.83 L760.42 1145.52 L759.18 1147.02 L759.75 1148.71 L763.09 1153.37 L763.85 1155.59 L763.47 1157.47 L752.14 1181.26 L744.25 1202.56 L740.74 1213.46 L733.33 1236.53 L719.61 1288.69 L718.16 1291.06 L716.33 1293.37 L715.19 1295.6 L715.77 1297.72 L717.57 1295.85 L718.58 1296.39 L718.92 1298.34 L718.67 1300.73 L717.78 1302.91 L715.34 1307.27 L714.83 1309.82 L714.36 1314.85 L713.07 1319.85 L708.1 1331.62 L707.61 1333.64 L707.34 1338.12 L705.09 1350.75 L703.08 1356.08 L701.17 1359.74 L683.82 1416.1 L666.35 1456.97 L648.88 1497.92 L646.98 1507.72 L642.46 1517.67 L636.69 1557.08 L634.04 1566.1 L633.28 1580.17 L628.63 1596.75 L623.47 1611.38 L620.13 1633.09 L603.84 1683.25 L602.25 1681.19 L601.47 1679.47 L600.69 1679.14 L599.17 1681.2 L597.73 1684.47 L598.68 1685.35 L600.93 1685.57 L603.37 1686.83 L603.93 1690.72 L596.87 1722.56 L589.4 1742.75 L586.99 1747.17 L586.02 1748.11 L583.84 1749.54 L583.14 1750.17 L582.85 1750.17 L581.42 1750.69 L581.26 1750.72 L580.36 1751.49 L580.64 1751.93 L581.23 1752.41 L581.26 1753.24 L581.23 1753.63 L580.32 1757.44 L577.93 1762.43 L577.55 1763.47 L569.68 1785.36 L568.62 1786.33 L566.96 1785.78 L564.03 1784.38 L563.36 1785.29 L565.23 1793.53 L561.65 1817.9 L550.12 1847.27 L546.69 1852.73 L546.3 1854.98 L546.39 1859.68 L545.42 1862.07 L538.38 1867.49 L536.47 1872.15 L537.64 1881.9 L536.09 1885.7 L534.68 1883.98 L533.74 1881.97 L533.28 1879.73 L533.27 1877.34 L532.06 1879.48 L531.94 1881.69 L532.26 1884.04 L532.33 1886.64 L531.75 1889.6 L530.74 1890.85 L526.71 1892.41 L524.37 1893.91 L520.5 1897.53 L513.91 1905.6 L512.56 1906.4 L512.1 1905.75 L510.68 1902.34 L509.08 1902.11 L508.68 1902.27 L508.57 1902.71 L500.54 1908.56 L497.54 1911.4 L496.06 1912.44 L492.05 1914.02 L490.48 1915.03 L488.55 1917.75 L487.14 1918.92 L486.03 1918.84 L484.67 1918.31 L483.25 1918.33 L481.91 1919.96 L480.6 1920.92 L471.19 1923.52 L469.05 1923.45 L464.47 1922.12 L450.39 1920.18 L434.51 1920.63 L414.05 1925.7 L386.87 1937.78 L369.61 1946.83 L350.4 1957.6 L336.64 1970.72 L334.03 1972.64 L331.14 1973.83 L328.07 1974.09 L321.15 1980.7 L311.67 1982.78 L272.6 1984.49 L270.5 1984.98 L268.48 1985.93 L266.41 1986.57 L264.06 1986.09 L262.76 1984.38 L261.46 1978.54 L260.3 1976.07 L256.11 1972.82 L241.46 1967.29 L237.34 1964.24 L235.56 1962.16 L233.85 1957.55 L231.53 1955.41 L221.37 1947.85 L212.12 1943.35 L206.69 1941.71 L192.17 1939.6 L177.73 1938.8 L157.47 1934.59 L154.95 1933.19 L152.9 1927.33 L148.44 1922.24 L147.44 1918.92 L150.1 1920.04 L152.49 1922.19 L156.72 1927.16 L159.47 1929.15 L161.79 1929.23 L162.96 1927.58 L162.35 1924.18 L160.16 1924.61 L158.28 1923.51 L154.77 1919.96 L152.5 1918.44 L150.41 1917.51 L148.2 1917.05 L145.56 1916.93 L140.73 1914.93 L132.44 1905.8 L127.56 1903.29 L123.19 1903.33 L121.64 1902.92 L110.69 1895.48 L109.11 1892.19 L108.23 1880.28 L106.86 1875.26 L96.91 1861.51 L95.51 1856.58 L96.84 1843.05 L95.51 1838.01 L94.12 1835.45 L88.24 1828.96 L87.57 1828.42 L86.88 1827.75 L86.14 1826.57 L85.76 1825.22 L85.34 1822.13 L84.73 1820.9 L80.17 1816.89 L70.63 1810.33 L66.45 1805.87 L61.8 1795.12 L59.52 1772.59 L61.35 1746.7 L58.95 1732.15 L59.22 1730.72 L60.42 1727.94 L60.75 1726.46 L60.59 1724.74 L58.95 1720.3 L57.8 1714.33 L56.9 1711.62 L55.19 1708.94 L57.15 1705.85 L56.87 1695.23 L57.51 1690.5 L60.55 1687.57 L69.78 1683.47 L72.16 1680.18 L71.9 1677.75 L70.05 1673.84 L70.28 1671.06 L72.39 1669.04 L73.02 1668.01 L73.87 1665.5 L73.94 1664.26 L73.49 1662.8 L72.01 1660.73 L68.35 1657.64 L65.72 1654.03 L59.89 1648.4 L58.95 1647.84 L58.08 1647.71 L57.15 1647.45 L56.05 1646.45 L55.72 1645.63 L55.19 1642.27 L53.75 1637.06 L53.17 1623.65 L51.36 1612.49 L49.48 1606.26 L45.74 1602.14 L36.35 1595.17 L34.86 1593.01 L32.6 1588.32 L30.65 1586.46 L28.13 1584.59 L23.42 1579.3 L20.55 1574.78 L18.99 1571.56 L18.38 1569.54 L17.64 1563.41 L15.9 1559.36 L15.19 1551.58 L13.56 1547.37 L12.74 1542.08 L12.07 1540.8 L10.2 1538.28 L9.46 1536.95 L8.52 1533.48 L8.45 1530 L8.99 1523.15 L7.57 1509.46 L5.64 1502.3 L2.38 1495.56 L2.35 1494.08 L2.47 1492.57 L2.43 1491.16 L1.51 1487.5 L0 1484.06 L0.35 1480.94 L3.29 1478.65 L7.03 1478.3 L9.93 1481.04 L10.83 1478.72 L10.6 1476.2 L10.05 1473.58 L9.93 1470.9 L5.22 1470.82 L3.34 1464.89 L3.29 1451.47 L3.59 1449.83 L4.93 1446.88 L5.23 1445.36 L5.23 1441.83 L5.47 1440.34 L6 1439.64 L6.64 1439.14 L7.11 1438.34 L7.38 1438.26 L7.97 1438.05 L8.6 1437.69 L8.99 1437.23 L7.97 1433.2 L8.18 1431.23 L8.79 1429.44 L9.71 1427.76 L10.88 1426.2 L12.48 1428.34 L12.69 1430.84 L11.8 1436.22 L14.61 1432.22 L15.14 1425.28 L14.92 1417.79 L15.56 1412.06 L17.09 1409.31 L26.29 1398.17 L28.65 1396.31 L31.28 1395.95 L34.3 1397.75 L34.3 1358.35 L35.34 1354.68 L38.23 1347.87 L39.09 1344.24 L40.16 1346.76 L41.25 1346.78 L43.86 1344.24 L47.61 1342.25 L49.42 1339.56 L49.99 1339.13 L57.64 1339.31 L62.78 1337.83 L65.35 1338.48 L67.79 1339.56 L70.28 1340.14 L73.7 1338.82 L77.69 1335.64 L81.01 1331.68 L82.39 1328.01 L83.09 1323.69 L88.02 1309.88 L93.21 1281.44 L101.87 1264.46 L104.75 1261.61 L109.24 1260.5 L111.73 1258.32 L119.14 1244.37 L120.85 1238.44 L122.12 1231.49 L124.01 1224.97 L127.56 1220.24 L127.59 1221.56 L127.81 1222.46 L128.5 1224.25 L131.84 1216.27 L133.76 1213.74 L139.79 1209 Z M924.72 685.86 L925.23 683.8 L925.46 681.55 L925.93 679.33 L927.1 677.46 L928.78 676.13 L934.1 673.05 L933.52 676.52 L928.56 686.87 L924.93 697.96 L918.22 712.74 L913.32 719.37 L909.43 727.85 L906.92 731.05 L905.71 727.13 L906.41 723.41 L909.71 716.25 L910.3 714.28 L910.61 712.42 L910.74 708.4 L911.19 705.95 L912.33 704.04 L915.43 700.47 Z M701.71 199.44 L702.71 200.56 L704.62 201.83 L706.23 203.32 L706.4 205.12 L705.48 206.15 L704.12 206.77 L702.61 207.07 L701.2 207.16 L700.53 206.83 L700.07 206.14 L699.83 205.45 L699.83 205.12 L699 205.28 L697.03 206.17 L692.05 205.37 L690.34 204.59 L688.5 203.21 L687.56 203.21 L687.56 205.12 L686.95 205.09 L686.58 204.83 L686.25 204.5 L685.77 204.27 L684.44 202.57 L683.53 199.59 L682.88 193.56 L683.42 190.83 L684.18 188.41 L684.1 186.65 L682.02 185.86 L683.42 184 L685.44 184.6 L687.6 185.59 L689.46 184.81 L690.37 185.68 L691.68 186.3 L693.08 186.44 L694.13 185.86 L694.31 184.77 L693.64 183.71 L692.79 182.6 L692.34 181.47 L692.45 178.57 L693.09 176.95 L694.62 176.29 L697.45 176.15 L699.83 176.84 L700.94 178.61 L700.8 180.97 L699.36 183.4 L700.57 184.12 L701.94 187.01 L702.96 190.16 L703.08 191.65 L704.75 192.64 L704.01 194.97 L702.48 197.58 Z "/>
</g>
</svg>
