<svg xmlns="http://www.w3.org/2000/svg" viewBox="0 0 1000 2460.11">
<g fill="#ccc" stroke="#333" stroke-width="0.5" stroke-linejoin="round">
<path fill-rule="evenodd" d="M710.06 687.95 L613.37 686.84 L602.72 689.45 L599.76 693.48 L599.79 699.21 L601.86 712.89 L601.26 725.62 L598.93 738.06 L586.4 769.04 L562.89 804.72 L529.7 855.13 L523.13 871.08 L521.66 885.3 L522.15 887.03 L529.79 914.25 L547.94 978.67 L565 1039.48 L569.02 1074.92 L574.09 1119.31 L578.36 1157.2 L581.93 1188.8 L579.92 1215.64 L580.69 1241.63 L590.83 1264.67 L591.21 1265.29 L592.24 1266.32 L597.49 1271.59 L601.1 1276.54 L607.35 1287.75 L608.81 1291.26 L609.16 1293.16 L610.09 1294.47 L613.41 1296.21 L618.38 1297.2 L657.86 1296.51 L668.42 1298.15 L678.75 1301.92 L678.99 1302.07 L688.41 1307.92 L719.92 1336.89 L746.93 1361.73 L773.78 1393.97 L806.97 1433.75 L835.16 1467.57 L861.6 1499.29 L882.3 1539.33 L909.02 1573.29 L941.42 1614.48 L952.56 1628.65 L963.77 1642.91 L978.79 1658.21 L982.4 1662.85 L984.18 1668.29 L987.34 1735.04 L989.38 1737.88 L993.37 1738.51 L1000 1738.31 L988.42 1765.83 L979.94 1786.04 L964.99 1821.35 L962.94 1829.34 L963.04 1836.81 L964.3 1842 L971.52 1871.88 L980.32 1907.83 L979.43 1920.98 L979.41 1921.27 L977.68 1946.64 L974.94 1986.67 L972.99 2015.06 L969.9 2061.2 L966.77 2073.19 L964.63 2081.36 L964.76 2086.43 L966.48 2096.22 L966.17 2101.26 L963.23 2108.2 L958.58 2113.51 L936.22 2129.14 L932.97 2130.8 L930.13 2131.06 L924.29 2129.97 L921.11 2130.13 L891.67 2139.06 L884.21 2139.83 L882.68 2141.72 L881.75 2146.7 L879.75 2149.65 L875.89 2149.49 L871.77 2147.5 L869.13 2145.01 L866.89 2139.63 L861.79 2136.18 L855.45 2134.42 L849.36 2134.08 L842.37 2135.91 L836.57 2139.89 L815.07 2159.52 L813.28 2161.66 L806.5 2169.78 L800.82 2181.84 L798.71 2196.72 L799.42 2200.11 L803.12 2209.15 L801.9 2212.41 L794.63 2221.25 L794.18 2222.86 L792.97 2227.2 L793.07 2240 L791.38 2245.75 L787.14 2250.24 L765.61 2264.68 L761.69 2267.44 L766.76 2281.74 L771.7 2289.69 L772.98 2293.02 L774.77 2295.72 L778.21 2296.85 L781.05 2297.35 L787.81 2299.98 L789.79 2301.08 L791.19 2302.61 L792.78 2305.94 L794 2307.67 L794.95 2308.3 L797.57 2309.46 L798.43 2310.06 L805.86 2318.25 L806.81 2319.95 L807.71 2341.26 L808.95 2347.66 L815.14 2360.22 L816.7 2368.25 L808.98 2374.84 L808.25 2381.64 L808.95 2393.87 L807.96 2395.37 L806.08 2396.81 L804.58 2398.44 L804.71 2400.48 L806.15 2401.98 L816.13 2407.94 L817.98 2410.71 L816.41 2414.91 L813.13 2420.81 L812.75 2426.02 L815.46 2438.16 L815.87 2444.7 L815.07 2450.07 L813.38 2454.51 L811.06 2458.18 L810.98 2458.19 L793.42 2460.11 L762.3 2459.04 L746.07 2456.47 L741.35 2451.87 L742.3 2443.56 L732.26 2428.02 L734.68 2417.95 L741.38 2412.34 L749.19 2408.48 L755.98 2403.61 L759.59 2394.77 L760.51 2384.41 L760.32 2372.71 L757.48 2362.72 L750.53 2357.52 L740.36 2357.22 L731.17 2358.12 L722.37 2356.65 L713.28 2349.39 L707.61 2341.73 L704.96 2338.83 L700.75 2335.73 L698.65 2334.94 L693.93 2334.07 L691.82 2332.87 L690.42 2330.44 L689.43 2324.21 L688.12 2321.55 L686 2319.99 L683.18 2317.92 L677.76 2315.59 L673.04 2312.76 L670.01 2307.83 L667.78 2300.88 L665.29 2296.45 L650.94 2284.2 L647.81 2279.91 L642.3 2269.13 L638.31 2264.71 L618.76 2254.23 L616.44 2253.37 L614.52 2251.9 L610.73 2242.36 L609.1 2239.4 L607.03 2237.11 L597.05 2229.49 L593.19 2225.67 L589.87 2220.68 L581.23 2198.42 L574.34 2191.24 L560.66 2189.21 L550.04 2188.81 L544.02 2182.6 L531.29 2154.5 L532.54 2143.58 L538.63 2122.83 L537.25 2113.81 L532.06 2106.51 L506.32 2079.27 L501.83 2076.48 L491.56 2071.58 L487.73 2068.19 L484.38 2059.27 L483.81 2047.84 L485.37 2036.63 L488.69 2028.58 L497.46 2019.03 L502.94 2014.79 L508.17 2012.28 L514.55 2010.29 L517.9 2008.3 L518.02 2008.12 L537.1 1981.37 L540.76 1971.2 L541.75 1958.46 L538.94 1939.13 L538.98 1928.34 L542.84 1922.98 L548.38 1920.1 L554.44 1910.27 L560.66 1906.44 L562.7 1902.47 L564.23 1894.36 L565.67 1890.4 L569.18 1885.7 L572.97 1883.05 L576.99 1880.91 L581.13 1877.76 L586.81 1869.47 L588.02 1861.1 L584.94 1838.4 L581.61 1813.95 L582.35 1808.5 L585.18 1804.99 L584.39 1801.36 L582.44 1797.37 L581.74 1792.84 L583.56 1788.35 L589.84 1779.57 L592.1 1774.85 L592.68 1769.46 L590.45 1764.61 L587.07 1759.83 L584.29 1754.71 L582.47 1748.34 L581.74 1742.99 L581.64 1719.44 L579.92 1709.38 L576.61 1699.98 L571.44 1689.69 L568.51 1678.78 L572.68 1659.79 L572.3 1649.14 L567.26 1639.03 L551.19 1623.01 L544.02 1614.12 L533.94 1593.34 L529.82 1587.38 L527.24 1583.66 L518.6 1579.02 L515.89 1579.48 L513.56 1580.99 L511.33 1582.84 L508.97 1584.38 L506.51 1584.88 L501.57 1584.32 L499.24 1584.61 L468.72 1595.61 L446.24 1596.24 L436.36 1600.45 L434.09 1603.71 L430.52 1611.75 L428.1 1613.36 L395.63 1608.98 L386.61 1608.95 L378.16 1611.12 L360.24 1622.13 L351.47 1625.35 L342.76 1624.46 L326.16 1611.62 L319.63 1613.69 L314.95 1620.87 L312.32 1630.13 L312.29 1641.14 L311.3 1646.84 L308.27 1649.01 L302.85 1647.33 L299.19 1644.04 L296.57 1639.78 L294.69 1634.61 L290.32 1622.55 L287.71 1618.53 L284.17 1615.74 L275.87 1611.85 L272.33 1609.05 L269.72 1604.93 L268.14 1600.95 L266.12 1597.16 L262 1593.54 L248.99 1587.64 L245.01 1584.42 L239.39 1576.88 L223.78 1545.02 L218.36 1537.42 L214.07 1529.08 L213.21 1527.42 L211 1525.34 L208.25 1524.26 L203.84 1521.36 L201.25 1518.43 L193.54 1505.64 L192.2 1499.92 L193.76 1484.1 L190.35 1475.06 L183.43 1469.6 L166.43 1460.14 L161.17 1453.76 L151.57 1435.56 L147.17 1431.88 L144.08 1433.65 L141.11 1441.7 L138.32 1444.46 L127.62 1447.62 L123.32 1449.92 L119.14 1454.65 L109.49 1470.43 L103.83 1471.77 L96.62 1462.44 L95.03 1457.61 L96.11 1441.57 L96.69 1439.76 L96.56 1438.09 L94.81 1435.39 L92.32 1434.11 L86.74 1434.41 L84.19 1432.27 L82.31 1427.28 L81.64 1422.55 L80.41 1417.72 L65.05 1398.7 L60.51 1394.73 L51.05 1391.21 L39.67 1388.91 L30.77 1384.91 L29.02 1376.34 L32.34 1372.79 L43.67 1367.38 L46.3 1363.93 L44.58 1360.12 L32.88 1343.52 L24.71 1339.87 L13.39 1339.78 L3.64 1337.54 L0 1327.47 L1.34 1320.88 L4.31 1318.42 L8.74 1318.84 L14.48 1320.81 L18.37 1320.19 L26.69 1313.04 L30.82 1310.38 L42.19 1308.67 L46.21 1305.85 L47.58 1298.67 L47.39 1292.9 L48.06 1287.91 L50.64 1284.47 L56.32 1283.59 L65.09 1278.86 L70.6 1266.7 L74.72 1249.76 L79.09 1231.83 L84.71 1219.48 L92.38 1209.68 L101.66 1206.96 L103.32 1202.54 L102.36 1198.87 L97.42 1191.58 L95.03 1186.21 L93.74 1180.91 L93.37 1175.41 L98.19 1140.35 L106.64 1121.01 L108.07 1112.21 L105.44 1104.52 L97.87 1097.48 L89.55 1092.22 L87.54 1088.78 L85.72 1065.56 L86.8 1060.04 L90.95 1051.44 L102.08 1034.77 L111.55 1015.85 L114.8 1011.57 L119.17 1007.68 L121.69 1006.6 L123.83 1007.09 L125.48 1008.82 L126.79 1011.3 L128.96 1013.36 L131.64 1012.09 L134.45 1009.7 L136.9 1008.27 L141.78 1006.96 L144.11 1006.7 L147.06 1007.51 L149.21 1009.7 L152.88 1016.7 L154.18 1018.3 L157.34 1018.17 L158.81 1016.6 L159.83 1014.44 L161.68 1012.58 L163.24 1011.53 L164.61 1010.39 L166.49 1009.25 L169.6 1008.23 L173.92 1005.23 L179.06 994.38 L182.6 990.33 L185.09 989.25 L193.28 987.88 L197.14 988.17 L200.14 989.68 L202.72 991.31 L205.18 992.13 L212 990.56 L219.05 986.08 L225.38 979.68 L230.21 972.4 L233.72 969.16 L243.08 965.37 L245.8 961.62 L246.06 953.85 L247.46 951.5 L252.15 950.65 L254.38 945.42 L262.44 940.51 L263.76 939.71 L266.53 934.62 L266.05 928.19 L262.51 926.85 L257.35 927.01 L245.29 922.77 L222.56 929.69 L211.71 925.87 L205.75 916.5 L200.3 894.51 L196.44 884.19 L192.87 879.86 L184.19 871.5 L181.86 866.38 L181.42 855.75 L182.53 845.28 L194.67 816.46 L197.55 800.36 L199.32 795.34 L200.36 790.42 L199.15 785.92 L195.67 779.01 L195.64 773.96 L199.72 762.07 L200.77 750.54 L197.27 699.34 L195.45 694.27 L191.27 689.48 L186.23 688.6 L180.81 689.28 L175.68 689.25 L170.51 687.33 L169.49 684.89 L174.02 675.09 L176.03 669.2 L176.38 665.33 L174.94 638.52 L177.85 634.06 L185.71 640.57 L188.31 636.27 L188.37 632.24 L187.76 628.17 L188.27 623.75 L189.68 622.06 L194.4 620.01 L196.12 618.55 L196.53 616.63 L195.47 613.08 L195.93 611.03 L217.58 577.51 L221.82 568.7 L224.5 559.3 L214.61 541.88 L207.74 534.96 L202.03 527.06 L197.59 518.36 L194.59 508.9 L193.66 499.66 L192.71 490.16 L190.38 480.25 L185.91 476.42 L181.67 477.04 L177.81 477.04 L175.38 475.32 L175.65 470.8 L178.37 465.28 L181.26 464.28 L184.48 465.15 L188.24 465.25 L192.79 462.46 L198.57 453.63 L202.34 450.35 L206.51 448.92 L214.3 447.39 L218.59 445.67 L222.84 444.93 L233.06 446.94 L237.8 447.2 L241.85 445.35 L247.46 439.73 L252.15 438.86 L258.46 434.96 L261.86 429.51 L266.88 416.88 L281.9 399.94 L286.01 397.22 L289.97 395.43 L302.06 386.64 L306.84 382.26 L311.91 374.63 L311.8 373.38 L311.7 372.23 L311.43 369.15 L309.25 363.44 L309.2 355.2 L300.8 354.1 L296.03 348.59 L290 334.51 L287.64 331.82 L279.03 324.1 L276.42 320.44 L268.32 301.09 L267.2 293.57 L269.15 276.03 L268.43 266.15 L264.01 261.06 L257.89 256.75 L252.15 249.17 L244.14 246.35 L238.56 241.72 L233.53 236.18 L227.05 230.64 L201.86 219.4 L197.71 213.67 L197.9 205.57 L199.53 197.67 L205.34 182.87 L214.49 168.59 L216.69 161.99 L214.71 153.25 L209.86 140.89 L207.85 138.46 L196.44 134.25 L192.68 132.24 L188.98 128.94 L186.33 125.16 L181.86 116.65 L178.48 112.99 L170.75 108.2 L167.83 103.77 L167 99.14 L168.01 96.2 L169.6 93.68 L170.46 90.31 L170 85.56 L168.63 81.38 L164.18 73.52 L158.01 69.16 L141.37 68.28 L134.22 64.82 L132.44 72.94 L131.42 82.19 L128.71 87.92 L121.88 85.43 L120.25 82.45 L119.55 78.67 L118.31 75.34 L114.91 73.75 L110.75 74.79 L107.34 77.15 L103.93 78.7 L99.85 77.34 L96.08 68.83 L101.54 46.26 L101.41 37.73 L98.67 36.43 L94.2 32.26 L92.13 31 L88.54 31.16 L86.48 32.68 L84.6 33.33 L81.6 30.84 L80.14 26.6 L79.47 8.34 L84.22 3.26 L90.09 0.26 L96.08 0 L101.5 3.17 L116.94 18.59 L135.94 33.36 L138.75 34.49 L147.06 36.34 L156.1 39.92 L157.25 40.6 L160.05 39.63 L164.29 36.11 L166.33 35.11 L170.64 35.07 L177.05 37.01 L180.75 37.37 L183.4 36.53 L188.27 33.3 L191.02 32.78 L196.53 34.72 L213.88 47.1 L219.59 52.5 L224.9 64.11 L228.61 69.97 L233.37 73.33 L239.33 75.17 L252.15 76.08 L261.75 73.75 L269.02 69.48 L276.51 66.34 L286.97 67.44 L296.38 70.42 L304.48 71.85 L304.64 71.87 L312.48 70.84 L320.65 66.21 L330.55 63.47 L339 68.74 L346.88 76.73 L354.88 82 L362.12 84.97 L370.86 90.22 L378.29 96.52 L381.63 102.73 L385.24 105.36 L390.31 99.82 L390.31 97.69 L394.87 94.68 L397.42 91.48 L398.5 87.4 L398.73 81.68 L400.9 72.23 L401.47 66.76 L395.73 52.79 L400.32 44.94 L407.59 38.89 L411.36 34.59 L416.36 30.1 L427.08 34.01 L436.65 40.33 L437.06 40.6 L439.99 44.1 L444.27 46.49 L454.73 59.23 L457.05 60.59 L462.38 66.44 L471.31 70.55 L501.32 102.38 L510.53 105.74 L512.48 109.89 L513.24 115.48 L514.77 121.4 L516.56 123.9 L523.41 131.01 L524.82 131.79 L530.4 137.2 L530.75 138.49 L561.55 176.82 L565.06 183.26 L574.34 196.44 L577.95 207.16 L578.36 210.56 L577.72 214.15 L574.98 220.27 L574.34 223.38 L576.7 234.07 L586.94 257.21 L589.87 273.86 L592.45 280.7 L593.12 284.59 L593.03 287.93 L586.78 322.16 L588.15 328.94 L594.08 338.89 L595.39 344.73 L594.72 347.71 L591.85 354.75 L591.21 358.77 L591.42 360.45 L591.72 362.92 L593.16 367.27 L595.2 371.39 L597.68 374.96 L600.3 376.19 L602.98 376.03 L604 376.33 L605.08 376.65 L605.94 380.31 L605.69 386.35 L606.52 388.2 L613.15 396.08 L616.08 402.41 L616.34 409.25 L612.26 415.87 L614.2 418.76 L614.75 420.16 L616.05 421.94 L618.06 423.4 L619.91 425.64 L620.71 429.7 L616.95 432.53 L615.06 435.19 L616.24 443.4 L612.26 463.04 L612.26 476.97 L611.59 480.22 L605.91 493.05 L603.07 496.72 L596.92 504.65 L595.39 512.57 L596.73 519.01 L600.84 531.91 L601.73 539.61 L604.06 545.13 L618.76 557.84 L620.39 560.93 L621.35 563.69 L622.81 565.67 L628.39 567.07 L630.85 568.79 L632.76 571.23 L633.53 574.06 L634.52 581.25 L637.26 587.36 L641.28 591.98 L646.16 594.77 L646.16 596.72 L644.34 597.76 L641.69 599.85 L639.84 600.82 L646.67 613.63 L648.64 616.04 L650.68 615.81 L654.61 612.37 L656.9 611.55 L659.42 611.88 L672.75 616.4 L680.21 620.33 L685.99 625.57 L688.31 632.04 L689.62 634.42 L695.39 639.23 L698.04 647.76 L700.94 651.08 L703.84 653.58 L705.15 655.89 L705.85 657.78 L707.32 660.61 L708.85 664.32 L709.55 668.91 L709.55 685.22 Z M626.61 822.49 L633.24 822.88 L640.23 825.36 L645.14 828.72 L647.66 835.08 L646.7 843.06 L643.29 850.89 L638.44 856.76 L632 860.48 L625.01 861.65 L618.86 859.53 L614.91 853.04 L614.81 846.42 L616.82 839.02 L622.53 825.33 Z M585.73 815.61 L586.01 815.42 L597.08 813.07 L606.04 818.35 L610.28 828 L607.35 838.92 L601 845.25 L596.35 845.05 L592.49 840.94 L588.53 835.3 L580.31 825.95 L579.6 820.66 Z "/>
</g>
</svg>
