<svg xmlns="http://www.w3.org/2000/svg" viewBox="0 0 1000 332.33">
<g fill="#ccc" stroke="#333" stroke-width="0.5" stroke-linejoin="round">
<path fill-rule="evenodd" d="M919.8 163.45 L919.47 163.16 L916.77 160.8 L916.57 160.18 L916.95 159.51 L917.86 158.87 L918.91 158.37 L919.71 158.13 L920.65 158.19 L922.49 158.79 L923.41 158.94 L923.97 159.2 L924.46 159.78 L925.14 160.86 L925.62 161.34 L926.06 161.61 L926.56 161.74 L927.25 161.77 L929.62 162.53 L929.84 163.04 L929.84 163.05 L930.17 163.79 L927.39 163.77 L923.88 163.77 L921.56 163.77 L919.8 163.45 Z M123.66 56.34 L124.96 57.28 L127.69 59.12 L128.27 59.41 L129.47 59.11 L129.7 58.51 L129.27 58.1 L128.44 58.36 L129.01 57.56 L130.1 57.6 L136.02 59.78 L137.16 60.46 L139.29 62.72 L145.4 74.78 L146.47 76.1 L147.55 76.97 L147.98 77.31 L150.67 78.98 L151.84 79.92 L152.84 81.16 L153.51 82.82 L154.03 83.61 L155.41 84.23 L164.54 91.47 L166.71 92.55 L168.81 92.97 L169.63 93.52 L172.28 95.87 L177 101.2 L182.2 109.39 L183.98 113.74 L189.04 122.21 L192.03 127.69 L192.33 128.67 L192.53 129.03 L193.42 130.08 L193.69 130.59 L193.72 131.18 L193.35 132.69 L193.42 133.85 L193.92 135.98 L194.78 143.7 L194.72 144.87 L194.22 145.83 L193.87 146.85 L194.49 149.13 L194.39 149.88 L196.04 154.6 L196.16 156.16 L196.03 156.71 L195.34 158.5 L194.93 159.12 L194.6 159.43 L193.88 160.3 L193.69 160.69 L193.72 161.13 L194.04 162.46 L193.72 162.99 L193.43 163.17 L193.33 163.22 L192.92 163.38 L192.51 163.67 L191.45 165.06 L191 165.86 L190.95 166.76 L191.29 168.36 L193.18 173.07 L193 174.35 L191.84 173.64 L190.98 175.11 L190.44 177.39 L190.25 179.07 L190.3 180.96 L190.15 181.88 L189.26 181.9 L188.76 182.56 L188.34 183.44 L188.13 184.14 L188.17 185.15 L188.45 186.01 L190.41 190.31 L190.6 190.95 L191.48 192.21 L193.22 193.86 L194.42 195.58 L193.69 197.06 L195.44 196.72 L192.95 201.99 L192.68 204.09 L193.52 210.4 L193.87 211.41 L194.11 212.43 L193.01 224.77 L193.35 226.8 L195 230.42 L197.37 233.59 L203.39 239.55 L203.49 239.59 L204.09 239.86 L204.87 240.02 L205.77 240.06 L206.04 240.21 L206.81 240.91 L207.35 241.11 L207.85 241.03 L209.06 240.44 L209.85 240.73 L209.93 241.09 L209.8 241.53 L209.95 242.01 L211.71 243.38 L212.34 244.17 L213.65 247.06 L213.21 248.24 L213.17 249.22 L213.54 250.17 L217.3 254.92 L217.74 255.33 L218.86 256.15 L219.21 256.48 L219.44 257.02 L219.45 258.04 L219.56 258.61 L219.9 259.17 L220.79 260.27 L220.98 260.88 L220.87 261.36 L220.37 262.36 L220.25 262.97 L220.61 264 L223 266.96 L224.3 270.15 L225.23 271.42 L225.83 272.7 L226.16 273.25 L227.23 274.48 L227.56 275.03 L227.97 276.15 L228.04 277.14 L227.9 279.36 L228.14 280.41 L228.71 281.51 L229.41 282.09 L230.02 281.6 L230.34 281.6 L231.76 284.07 L232.22 286.4 L233.16 287.73 L233.43 288.48 L233.5 290.2 L233.8 290.91 L234.4 291.62 L234.81 292.27 L234.54 292.8 L234.88 293.49 L235.24 295.61 L236.28 298.4 L236.77 300.74 L236.82 302.01 L236.47 302.57 L236.05 303.04 L236.19 305.27 L235.94 306.05 L234.01 306.05 L233.76 306.22 L233.23 306.96 L232.98 307.13 L230.68 307.02 L229.68 306.82 L227.62 305.99 L227.22 305.65 L227.17 305.13 L227.21 304.16 L226.93 303.42 L226.32 302.88 L225.62 302.41 L225.12 301.91 L224.84 300.04 L226.2 299.14 L228.09 298.4 L229.33 296.98 L228.38 296.76 L227.47 296.99 L226.62 297.49 L224.91 298.78 L224.53 298.97 L224.35 298.62 L224.05 297.7 L222.43 294.35 L221.23 292.54 L220.08 291.76 L219.78 292.37 L220.3 293.75 L222.23 296.81 L222.25 297.51 L221.99 298.94 L222.1 299.6 L222.32 300.33 L222.45 301.11 L222.31 301.91 L220.51 303.37 L218.07 302.77 L213.65 300.48 L212.35 300.59 L210.3 301.65 L209.23 301.91 L207.17 301.73 L206.41 301.8 L205.58 302.25 L202.97 305.53 L201.44 306.76 L199.64 306.43 L199.54 306.2 L199.17 305.67 L198.78 305.3 L198.59 305.55 L198.65 306.12 L198.89 306.88 L198.94 307.3 L198.81 307.86 L197.9 309.21 L197.18 310.98 L196.55 309.99 L194.76 308.46 L194.04 307.47 L193.61 306.46 L191.96 300.93 L191.01 298.96 L189.59 297.33 L187.43 295.96 L181.37 293.66 L172.77 288.31 L170.69 287.32 L169.56 287 L168.39 286.89 L167.54 286.68 L166.96 286.15 L166.13 284.8 L165.14 283.64 L163.93 282.59 L162.5 281.68 L160.92 280.94 L160.1 281.24 L157.57 281.63 L156.71 281.6 L155.56 280.97 L154.89 279.97 L153.92 277.81 L153.08 276.82 L148.92 273.48 L148.34 272.85 L147.98 272.21 L148.42 272.12 L148.48 271.95 L148.38 271.74 L148.33 271.51 L147.68 270.87 L146.78 270.2 L144.85 269.07 L137.7 266.17 L129.52 262.78 L127.8 261.8 L126.41 260.69 L122.55 256.43 L121.99 256.17 L120.89 255.95 L119.89 255.38 L119.28 254.59 L119.37 253.7 L118.52 253.49 L117.71 253.18 L116.21 252.28 L115.31 252.87 L113.7 252.97 L113.08 253.7 L112.72 252.43 L112.62 250.8 L112.36 249.4 L111.5 248.8 L111.15 248.62 L110.66 248.21 L109.92 247.4 L108.89 244.45 L108.45 243.91 L107.77 243.63 L105.34 243.4 L104.71 243.01 L104.2 242.46 L103.31 241.83 L100.5 241.34 L99.46 240.86 L97.74 240.57 L96.63 240.1 L94.61 238.67 L93.44 237.26 L90.92 233.41 L89.34 232.05 L87.1 231.53 L84.82 231.31 L83.59 230.49 L84.46 228.19 L83.32 228.04 L83.42 227.35 L85.96 224.24 L86.69 223.56 L87.42 223.28 L87.99 222.71 L87.99 221.38 L87.6 218.93 L87.27 218.27 L85.81 217.12 L85.48 216.48 L84.46 209.83 L84.16 208.82 L83.43 207.99 L81.68 206.5 L81.48 206.11 L81.3 205.65 L81.01 205.27 L79.99 205.01 L79.48 204.78 L79.07 204.5 L78.9 204.25 L78.54 203.43 L76.12 200.23 L74.53 198.65 L74.21 198.19 L73.79 197.02 L72.79 195.56 L72.29 193.28 L71.92 192.19 L71.07 191.09 L67.37 188.54 L66.12 188 L65.62 187.66 L65.34 187.28 L64.55 185.88 L63.22 184.23 L62.37 183.64 L59.99 183.23 L59.44 182.69 L59.49 181.81 L60.03 180.62 L60.94 179.77 L61.13 179.39 L60.55 179.23 L59.42 179.39 L58.85 179.56 L58.61 179.77 L58.05 180 L56.79 179.6 L55.49 178.97 L54.78 178.53 L54.21 177.77 L53.9 176.96 L53.76 176.02 L53.79 173.47 L54.05 172.63 L54.68 172.26 L57.89 172.41 L58.9 172.25 L59.7 171.24 L60.58 170.85 L61.62 170.66 L62.46 170.83 L61.95 169.73 L60.76 169.85 L59.55 170.46 L58.98 170.83 L57.68 170.7 L57.44 169.9 L57.63 168.7 L57.6 167.38 L57.08 166.7 L54.43 164.9 L53.6 164.09 L52.59 163.36 L51.46 163.14 L50.29 163.86 L49.78 162.81 L49.3 161.15 L49.08 159.62 L49.41 158.94 L48.65 158.69 L48.41 158.07 L48.38 157.27 L48.17 156.47 L47.59 155.9 L47.09 155.79 L46.87 155.5 L47.13 154.38 L47.6 153.08 L47.77 152.38 L47.83 151.41 L48.05 150.74 L49.02 150.03 L49.25 149.32 L49.38 147.9 L50.29 144.58 L50.95 143.19 L50.17 143.5 L49.26 143.26 L48.5 142.58 L48.17 141.62 L48.35 140.59 L48.82 139.64 L49.49 139.19 L50.29 139.66 L50.64 138.94 L51.04 138.35 L51.49 137.89 L52 137.57 L50.79 137.35 L49.67 137.76 L48.84 137.78 L48.52 136.37 L48.35 133.84 L48.83 133.17 L50.29 133.07 L50.29 132.69 L50 132.63 L49.25 132.34 L49.64 131.62 L49.52 131.29 L48.52 130.94 L48 130.88 L47.68 131.03 L47.42 130.96 L47.13 130.24 L47.08 129.54 L47.48 128.68 L47.48 128.15 L47.18 127.97 L46.68 127.95 L46.24 127.75 L46.09 127.07 L45.57 127.35 L45.02 127.46 L43.81 127.45 L43.25 127.23 L43.5 126.78 L44.03 126.4 L44.32 126.37 L44.28 125.69 L44.1 125.46 L43.71 125.3 L43.12 124.8 L42.61 124.55 L42.05 124.67 L41.54 125 L41.19 125.36 L40.56 124.65 L40.27 123.97 L40.09 123.28 L39.8 122.53 L38.54 121.09 L38.22 120.02 L37.46 118.28 L37.03 117.56 L36.64 116.39 L36.71 115.97 L36.89 115.93 L37.13 116 L37.36 115.87 L37.88 115.3 L38.45 114.83 L38.9 114.22 L39.27 112.54 L40.02 110.95 L40.14 109.9 L40.01 109.33 L39.52 108.3 L39.41 107.99 L39.53 107.37 L40.03 106.44 L40.14 105.87 L39.97 105.21 L38.75 102.88 L37.69 101.42 L37.44 100.72 L37.36 99.56 L37.68 95.16 L37.35 93.96 L36.19 91.92 L35.94 90.82 L35.59 86.46 L36.06 86.66 L36.66 86.8 L37.24 86.77 L37.68 86.46 L37.75 85.96 L37.36 85.65 L36.87 85.42 L36.64 85.19 L37.21 79.21 L35.85 68.88 L35.42 68 L34.67 67.02 L34.06 65.91 L33.15 63.61 L31.31 60.26 L30.7 58.22 L29.92 57.43 L28.26 56.26 L26.96 54.62 L25.86 52.42 L25.07 50.03 L24.75 47.84 L24.55 46.87 L24.98 46.08 L25.42 44.96 L25.63 43.68 L25.61 43.23 L25.45 42.34 L25.49 41.88 L25.83 41.35 L26.28 40.96 L26.59 40.52 L26.48 39.79 L26.08 38.6 L26.02 37.73 L26.36 35.65 L26.43 34.49 L26.57 33.91 L26.9 33.48 L27.62 33.25 L28.09 33.53 L28.22 33.69 L28.45 33.97 L28.89 34.21 L29.66 34.23 L29.66 34.13 L30.43 33.64 L30.89 33.6 L31.48 33.65 L32.02 33.85 L32.37 34.22 L34.26 39.98 L34.84 40.95 L35.84 41.83 L37.31 42.54 L37.8 42.78 L38.94 43.13 L39.79 43.2 L41.11 43.05 L41.87 43.23 L43.5 44.41 L44.42 44.84 L47.53 45.74 L49.28 46.52 L50.19 46.74 L51.1 46.62 L54.38 44.27 L55.25 44.26 L55.33 44.58 L55.31 45.72 L55.45 46.15 L55.88 46.47 L56.35 46.53 L56.88 46.53 L57.46 46.61 L58.63 47.3 L59.1 48.28 L59.25 50.71 L59.36 51.3 L59.59 51.86 L60.2 52.9 L60.3 53.33 L60.19 53.8 L60.03 54.23 L60.01 54.28 L59.91 54.74 L59.95 56.22 L60.07 56.65 L60.5 57.41 L60.72 57.38 L61 57.03 L61.63 56.83 L62.3 56.92 L64.43 57.45 L65.38 57.2 L66.72 55.77 L67.7 55.56 L69.34 56.91 L70.18 57.18 L72.52 56.68 L73.16 56.9 L73.5 57.57 L73.64 58.61 L73.55 59.86 L73.08 60.29 L72.41 60.6 L71.73 61.46 L71.68 62.64 L72.5 63.41 L73.44 64.12 L73.81 65.14 L73.54 67.14 L73.46 70.06 L73.1 71.73 L73.02 72.7 L72.63 73.63 L71.7 73.98 L70.63 74.19 L69.79 74.74 L67.7 78.99 L67.36 79.56 L67.24 80.16 L67.33 80.74 L67.6 81.16 L67.99 81.77 L68.58 82.97 L68.94 83.38 L69.43 83.58 L70.4 83.53 L70.91 83.63 L72.05 84.4 L73.02 85.52 L73.79 86.8 L74.38 88.08 L75.23 88.48 L76.64 88.03 L79.03 86.59 L79.82 85.84 L80.47 84.93 L80.9 83.9 L81.06 82.76 L81.69 80.44 L83.25 79.62 L85.25 79.25 L87.22 78.32 L89.01 77.16 L94.48 75.03 L96.24 74.34 L97.42 74.07 L98.51 74.33 L99.32 75.4 L99.55 75.98 L99.83 76.39 L100.22 76.63 L100.82 76.73 L101.3 76.93 L101.32 77.35 L101.16 77.86 L101.13 78.32 L102.13 80.66 L102.92 81.53 L103.98 81.76 L104.49 81.5 L104.54 81.45 L105.41 80.65 L106.02 80.46 L106.7 80.67 L107.1 81.18 L107.42 81.81 L107.86 82.35 L108.95 82.94 L109.78 82.85 L110.38 82.2 L110.78 81.12 L111.05 80.8 L112.54 79.89 L112.85 79.44 L113.03 78.98 L113.28 78.55 L113.84 78.18 L115.51 76.73 L115.83 74.78 L115.85 72.59 L116.62 70.47 L117.87 68.94 L121.64 66.03 L123 64.67 L123.57 63.04 L123.34 59.04 Z M789.54 125.38 L790.39 125.4 L791.17 125.3 L791.75 124.92 L792.23 123.22 L792.82 122.76 L793.52 122.83 L794.09 123.55 L794.25 123.91 L794.52 124 L795.63 123.93 L796.11 124.01 L796.63 124.22 L797.03 124.5 L797.58 125.5 L798.48 125.81 L799.53 125.82 L800.35 125.67 L800.96 125.26 L802.65 123.55 L802.87 123.24 L804.9 121.45 L806.53 119.37 L807.17 119.04 L808.2 118.87 L809.18 118.42 L809.99 117.85 L810.47 117.26 L810.77 116.45 L811.12 114.37 L811.19 112.52 L811.31 112.03 L811.85 110.98 L812.28 110.54 L812.72 110.24 L812.92 109.85 L812.59 109.17 L810.66 110.07 L808.77 110.02 L807.04 109.3 L802.5 105.36 L802.37 104.88 L802.49 104.45 L802.46 104.12 L801.92 104 L801.69 104.11 L800.7 104.98 L800.41 104.35 L800.57 103.63 L800.87 102.84 L801.21 101.16 L801.57 100.49 L801.93 99.95 L802.09 99.56 L802.69 99.02 L805.34 97.46 L805.95 96.42 L806.52 95.65 L810.12 93.07 L811.9 89.18 L812.9 88.18 L813.62 89.35 L811.86 92.65 L812.9 94.12 L813.17 93.59 L813.39 92.2 L813.63 91.64 L815.37 93.15 L816.43 93.62 L820.93 93.94 L822.4 93.85 L823.75 93.42 L825.32 92.06 L826.63 90.04 L827.64 87.8 L828.27 85.73 L828.65 83.49 L828.95 82.5 L829.5 81.67 L830.25 81.06 L834.82 78.49 L835.62 77.61 L835.95 76.44 L836.1 74.07 L836.41 73.08 L839.53 68.01 L840.26 65.79 L839.46 64.28 L838.32 64.68 L837.92 64.01 L838.43 63.05 L839.98 62.56 L840.88 61.99 L843.29 58.36 L844.37 57.38 L845.02 57.06 L845.88 56.93 L846.48 57.14 L847.24 57.5 L847.88 57.61 L848.15 57.11 L847.94 55.4 L847.32 55.26 L846.35 55.73 L845.06 55.89 L845.06 55.56 L846.44 54.83 L847.24 53.96 L847.46 53.78 L847.83 53.72 L848.85 53.78 L849.33 53.48 L849.43 53.3 L849.43 53.02 L849.87 51.38 L850.01 51.06 L850.27 50.63 L850.74 50.08 L855.26 46.64 L856.02 45.86 L856.94 45.15 L857.9 44.72 L858.66 44.16 L858.96 43.06 L858.99 42.27 L859 42.14 L859.17 41.16 L859.55 40.39 L860.23 40.07 L861.12 39.38 L864.28 35.14 L865.05 34.41 L865.58 33.69 L865.89 32.79 L865.98 31.48 L865.9 29.74 L865.98 29.22 L866.2 28.81 L866.82 27.96 L867.03 27.43 L866.94 25.47 L867.12 24.61 L868.56 23.92 L868.98 23.12 L869.47 21.1 L869.53 19.97 L869.65 19.53 L870.01 19.35 L870.23 19.17 L870.77 18.34 L871.05 17.73 L871.49 17.3 L872.04 16.98 L872.63 16.89 L872.79 17.1 L873.31 18.26 L875.41 19.63 L875.72 20.21 L876.42 23.9 L875.47 23.35 L874.93 23.18 L874.68 23.39 L874.35 24.99 L874.33 25.3 L874.91 25.82 L875.72 26.09 L876.45 26.55 L876.77 27.61 L876.56 29.63 L876.02 30.97 L874.33 33.42 L873.41 35.21 L872.68 37.42 L872.96 39.21 L875.03 39.72 L876.09 39.19 L876.89 38.24 L877.5 37.33 L878.01 36.92 L878.71 36.63 L880.97 34.44 L882.63 33.24 L882.96 32.61 L883.16 30.84 L883.41 30.62 L883.74 30.52 L884.1 30.24 L884.8 28.84 L886.64 26.95 L886.91 26.19 L886.6 25.13 L885.46 22.88 L885.52 21.8 L885.93 21.21 L886.34 21.15 L886.81 21.32 L887.44 21.45 L887.87 21.28 L888.21 20.91 L888.34 20.54 L888.14 20.37 L887.76 20.12 L887.66 19.58 L887.76 19 L887.96 18.64 L888.49 18.54 L889.1 18.7 L889.68 18.92 L890.07 18.99 L890.52 18.74 L891.29 18.07 L891.62 18.1 L892.02 18.33 L893.31 18.89 L893.73 18.99 L893.9 19.2 L896.53 20.8 L896.82 21.05 L897.03 21.45 L897.07 22.33 L896.75 24.79 L896.53 25.3 L895.82 25.68 L895.6 26.57 L895.7 27.63 L895.99 28.49 L897.82 30.9 L898.11 31.83 L898.24 35.01 L898.45 35.84 L899.04 36.92 L899.7 37.31 L901.76 37.24 L902.54 37.49 L903.23 38.09 L904.34 39.37 L905.6 40.55 L906.49 41.19 L907.32 41.47 L908.15 41.27 L908.71 40.71 L909.93 38.67 L910.73 37.71 L911.15 37.7 L911.32 38.49 L911.35 39.9 L911.56 39.93 L912.74 41.12 L912.54 41.05 L912.41 41.28 L912.36 41.62 L912.39 41.85 L912.58 41.95 L913.23 42.12 L913.44 42.2 L914.2 42.91 L914.69 43.16 L915.35 43.25 L916.07 42.89 L916.61 42.8 L917.11 43.06 L918.33 44.48 L918.87 45.29 L919.38 46.4 L919.73 46.4 L919.92 45.96 L920.17 45.77 L920.45 45.81 L920.77 46.05 L921 46.41 L921.06 46.8 L921.06 47.25 L921.12 47.84 L921.29 48.31 L921.76 49.2 L921.85 49.55 L921.66 50.03 L921.31 50.49 L921.07 50.96 L921.6 52.33 L921.12 55.73 L920.79 56.49 L920.03 56.58 L918.34 56.26 L917.39 56.58 L916.47 57.2 L915 58.53 L914.54 59.4 L914.81 60.22 L915.91 61.51 L916.73 63.51 L917.48 63.83 L917.64 64.12 L917.72 64.62 L917.85 65.01 L917.86 65.44 L917.64 66.06 L917.22 66.49 L916.75 66.65 L916.36 66.87 L916.22 67.49 L916.56 68.33 L917.28 68.52 L918.01 68.84 L918.34 70.1 L918.04 70.93 L917.31 71.65 L915.53 72.73 L909.07 74.92 L907.84 76.26 L908.75 76.1 L911.66 74.83 L912.97 74.5 L916.57 74.48 L919.98 74.06 L922.5 74.34 L923.4 74.24 L923.71 73.66 L923.27 72.38 L923.81 72.06 L924.34 72.09 L924.94 72.27 L925.67 72.38 L926.58 72.32 L928.99 71.85 L929.5 71.51 L929.81 70.86 L930.52 70.22 L931.9 69.24 L933.56 67.08 L934.46 66.62 L934.67 66.37 L935.03 66.22 L935.76 66.41 L937.5 68.19 L937.61 68.7 L937.57 69.26 L937.64 69.72 L938.52 70.18 L938.65 70.8 L938.57 71.85 L938.83 73.03 L940.96 75.91 L941.24 76.17 L941.28 76.5 L939.79 78.53 L939.03 78.98 L937.9 79.31 L936.7 79.37 L935.76 79.03 L934.9 79.31 L931.74 79.03 L930.88 79.31 L930.34 79.93 L930.24 80.56 L930.71 80.84 L930.93 81.22 L932.46 85.19 L932.88 85.55 L933.11 85.6 L933.4 85.48 L934.02 85.35 L934.8 85.1 L936.83 84.16 L937.69 83.95 L938.1 84.04 L938.45 84.48 L938.92 84.65 L939.31 84.56 L939.8 84.35 L940.33 84.25 L940.83 84.48 L941.36 85.22 L941.73 85.42 L942.22 85.19 L942.62 84.63 L942.62 84.17 L942.4 83.63 L942.74 82.73 L942.96 82.38 L943.28 82.02 L943.42 81.59 L943.02 80.65 L943.09 80.11 L943.88 79.51 L946.16 79.28 L948.26 78.34 L949.35 78.58 L952 79.98 L952.25 80.07 L952.51 79.85 L953.07 79.22 L953.5 79.07 L954.02 79.27 L954.49 79.57 L954.81 79.72 L955.82 79.97 L961.03 83.01 L962.82 84.48 L963.52 84.9 L964.41 85.31 L965.16 85.81 L965.44 86.46 L965.26 86.97 L964.88 87.26 L964.53 87.45 L964.36 87.64 L963.87 90.54 L963.53 91.65 L963.37 92.73 L963.7 93.8 L964.05 93.8 L964.56 92.5 L964.87 91.92 L965.26 91.48 L965.49 90.97 L965.41 89.6 L965.62 89.05 L966.94 88.13 L968.06 88.14 L969.04 88.83 L971.44 91.76 L972.42 92.68 L973.3 93.07 L974.64 93.32 L975.65 93.99 L976.31 95.01 L976.63 96.25 L977.02 95.96 L977.23 95.71 L977.32 95.37 L977.3 94.85 L979.7 96.67 L980.64 96.94 L981.7 97.43 L982.56 98.5 L982.75 99.59 L981.85 100.09 L982.4 100.54 L983.2 100.83 L984.03 100.84 L984.63 100.47 L984.78 99.78 L984.48 99.24 L984.35 98.8 L985.02 98.38 L986.26 98.41 L988.67 99.68 L990.2 99.74 L994.18 97.84 L995.48 97.65 L996.27 98.03 L997.02 98.81 L998.23 100.47 L999.33 101.56 L999.81 102.23 L1000 103.08 L999.89 104.19 L999.41 105.88 L999.3 106.76 L999.55 109.13 L999.44 110.42 L998.27 111.43 L995.8 114.12 L993.78 115.27 L984.47 118.66 L974.97 121.42 L973.14 122.54 L971.95 123.06 L970.68 123.43 L969.61 123.55 L968.82 123.36 L967.22 122.68 L965.76 122.45 L964.7 122.14 L964.05 122.15 L963.44 122.37 L961.94 123.55 L960.83 124.23 L960.34 124.21 L959.67 123.74 L959.39 123.36 L958.47 121.79 L956.72 119.74 L955.12 118.92 L954.06 118.6 L953.59 118.87 L953.09 118.72 L952 119.42 L950.43 120.76 L950.01 120.47 L949.76 120.65 L949.66 121.16 L949.74 121.83 L947.77 121.36 L945.95 122.45 L943.09 125.67 L942.23 126.31 L941.85 126.72 L941.7 127.26 L941.77 127.88 L941.98 128.1 L942.33 128.21 L943.63 129.06 L943.97 129.35 L944.26 129.81 L944.83 131.29 L946.06 133.16 L947.45 134.82 L949.04 136.29 L950.81 137.57 L951.46 138.19 L951.89 138.51 L952.35 138.65 L952.82 138.66 L953.89 138.81 L954.28 138.97 L954.52 139.27 L954.93 140.21 L955.16 140.57 L955.48 140.85 L955.84 141.07 L956.72 141.44 L956.85 140.57 L957.55 140.38 L958.45 140.64 L959.18 141.09 L959.73 141.78 L959.83 142.42 L959.57 143.05 L959.01 143.71 L958.81 144.36 L959.26 144.92 L959.88 145.41 L960.19 145.83 L960.62 146.13 L961.55 145.66 L963.01 144.58 L963.59 144.86 L964.82 145.04 L965.44 145.28 L965.16 145.97 L965.75 146.93 L967.77 149.12 L967.79 149.49 L967.36 150.04 L966.8 150.38 L966.35 150.31 L965.85 150.06 L965.06 149.88 L965.33 150.74 L965.09 151.5 L964.58 152.15 L964.05 152.66 L963.27 153.23 L962.55 153.41 L960.54 153.33 L959.68 153.43 L958.04 153.91 L957.07 154.06 L954.86 154.1 L953.69 153.89 L952.9 153.33 L952.23 154.22 L951.84 154.48 L947.23 155.78 L943.09 156.16 L941.88 156.54 L935.13 159.97 L934.02 159.99 L930.88 159.07 L930.03 158.94 L929.41 158.67 L927.45 156.85 L926.73 156.43 L926.3 156.24 L925.86 156.16 L925.67 155.94 L925.33 154.98 L925.14 154.76 L924.45 154.69 L922.86 154.06 L921.58 153.83 L921.12 153.68 L920 152.9 L919.42 151.99 L918.96 151.01 L918.15 150.04 L917.38 150.13 L916.26 150.85 L915.27 151.72 L914.82 152.28 L915.02 152.73 L915.99 153.32 L916.22 153.87 L916.22 155.98 L916.41 156.52 L917.18 157.25 L917.26 157.9 L917.03 158.48 L916.59 158.96 L915.53 159.67 L915.19 160 L914.94 160.45 L914.63 160.8 L914.47 161.23 L914.66 161.49 L915.56 162.36 L915.91 162.78 L915.39 162.73 L914.95 162.8 L912.85 163.64 L912.4 163.23 L911.58 162.92 L910.18 163.01 L909.35 162.98 L907.61 162.71 L906.2 162.32 L905 161.58 L902.13 158.54 L898 156.42 L896.12 155.1 L895.71 154.57 L895.42 154.09 L895.03 153.74 L894.29 153.61 L893.66 153.77 L892.85 154.51 L892.35 154.78 L882.98 154.96 L880.11 154.18 L878.01 154.18 L874.01 154.94 L872.05 154.5 L870.18 153.18 L869.28 153.06 L867.67 154.43 L866.71 154.72 L865.72 154.74 L864.38 154.22 L863.09 154.88 L862.41 154.84 L860.19 151.6 L859.63 151.53 L859.28 152.18 L858.21 153.24 L857.81 153.98 L857.83 154.5 L858.09 154.88 L858.2 155.2 L857.78 155.61 L856.89 155.84 L856.31 155.62 L855.77 155.59 L854.51 156.89 L853.98 157.05 L853.45 156.98 L852.95 156.75 L851.64 154.55 L851.46 153.9 L851.28 153.64 L850.92 153.52 L850.56 153.57 L850.22 153.55 L848.85 152.21 L847.55 152.47 L846.13 153.2 L844.68 153.61 L843.98 153.52 L841.69 152.9 L840.51 152.84 L839.98 152.74 L839.44 152.44 L839.01 153.55 L838.63 154.17 L838.09 154.61 L837.17 155.17 L834.72 157.61 L834.08 157.96 L833.23 157.66 L832.7 157.04 L832.39 156.23 L832.19 155.38 L831.87 155.01 L831.24 154.66 L830.02 154.21 L827.88 154.07 L826.86 153.81 L826.38 153.07 L826.15 152.26 L825.7 151.84 L825.09 151.92 L824.42 152.59 L823.92 154.21 L823.96 155.9 L823.73 157.43 L821.8 159.08 L821.59 159.74 L821.35 160.27 L820.65 160.45 L820.15 160.17 L819.8 159.73 L819.41 159.57 L817.23 161.58 L816.87 162.06 L816.53 162.39 L815.5 162.67 L815.05 163.16 L814.65 164.34 L814.35 165.23 L813.78 169.74 L813.14 171.95 L812.16 173.94 L811.69 174.5 L809.9 175.48 L809.54 175.85 L809.51 177.01 L810.32 177.74 L811.36 178.32 L812.08 179.06 L812.11 180.75 L810.14 186.69 L809.84 188.69 L809.82 190.73 L810.04 191.94 L811.3 195.02 L811.36 195.55 L811.25 196.59 L811.27 197.1 L811.44 197.74 L812.28 199.26 L812.69 200.32 L812.72 200.88 L812.43 201.36 L811.89 201.56 L811.44 201.43 L810.98 201.2 L810.48 201.12 L809.39 202.23 L808.46 204.61 L806.69 212.29 L806.72 213.18 L807.53 214.16 L808.3 214.42 L808.43 214.8 L806.66 217.16 L806.34 218.08 L806.14 220.25 L805.73 221.25 L804.91 221.6 L802.82 221.83 L799.49 223.28 L797.89 223.54 L796.43 222.85 L795.13 220.91 L794.43 220.7 L793.56 222.01 L792.69 223.81 L792.1 224.48 L789.18 226.47 L788.35 227.27 L787.68 228.33 L787.46 228.93 L787.33 229.46 L787.14 229.98 L786.74 230.57 L786.05 231.16 L785.61 231.36 L785.5 231.59 L785.76 232.27 L787.09 233.99 L787.43 234.99 L786.86 236.24 L786.31 236.62 L785.77 236.73 L785.31 236.92 L785 237.55 L785.05 238.05 L785.6 239.07 L785.76 239.56 L785.53 240.61 L785.08 241.75 L784.97 242.78 L785.74 243.5 L786.3 243.51 L787.4 242.98 L787.95 242.82 L788.56 242.88 L789.21 243.08 L789.84 243.37 L790.34 243.71 L791.11 244.54 L791.89 245.72 L792.47 246.92 L792.59 247.82 L791.91 248.8 L790.85 249.17 L788.54 249.38 L787.45 250.07 L785.53 252.24 L784.75 252.71 L783.87 253.09 L781.69 254.96 L780.72 255.59 L778.76 255.42 L778.13 255.77 L777.78 256.88 L777.85 257.95 L778 258.74 L777.68 259.33 L776.31 259.78 L772.37 260.32 L770.83 261.21 L770.05 263.2 L769.47 265.99 L769.52 266.94 L769.71 267.39 L770.28 268.19 L770.4 268.71 L770.34 270.41 L770.4 270.84 L770.92 271.97 L771.51 272.04 L772.33 271.67 L773.51 271.53 L774 271.86 L774.22 272.54 L774.21 273.31 L774.07 273.95 L773.63 275 L773.41 275.86 L773.41 276.73 L773.62 277.82 L773.54 278.78 L772.88 279.4 L770.03 280.5 L767.27 280.84 L766.77 281.04 L766.24 281.44 L765.77 281.93 L765.5 282.38 L765.36 282.93 L765.42 283.28 L765.58 283.66 L765.74 284.29 L765.8 285.87 L765.24 289.4 L764.28 292.08 L762.97 294.26 L762.21 295.13 L760.42 296.57 L759.85 297.43 L759.85 298.66 L760.08 299.75 L760.09 300.85 L759.77 301.84 L758.95 302.6 L757.76 302.89 L756.66 302.55 L752.62 299.69 L751.44 299.11 L750.25 298.94 L749.28 299.19 L741.72 302.37 L741.59 302.43 L740.49 303.19 L739.99 303.34 L739.33 303.12 L738.81 302.64 L738.35 302.08 L737.83 301.62 L735.96 301.04 L733.91 301.07 L726.56 302.22 L725.62 302.6 L724.45 303.59 L721.39 307.46 L713.31 312.88 L712.05 313.17 L710.61 312.45 L708.04 309.4 L706.94 308.79 L705.87 308.74 L704.79 309.04 L702.79 309.87 L700.47 309.79 L696.71 306.86 L694.28 305.97 L691.32 305.36 L689.03 305.21 L688.3 304.99 L686.63 303.69 L684.76 302.79 L682.8 302.61 L680.81 302.96 L678.86 303.62 L678.1 303.59 L677.95 303.18 L678.25 302.63 L679.8 301.48 L680.6 300.65 L681.17 299.68 L681.47 298.56 L681.42 297.4 L680.94 296.7 L680.08 296.22 L678.86 295.73 L677.99 295.6 L675.52 295.7 L674.53 295.47 L673.67 295.18 L672.84 295.07 L671.9 295.41 L671.4 295.87 L671.08 296.35 L670.73 296.78 L670.12 297.06 L669.77 297.03 L668.45 296.63 L653.25 295.84 L652 296.13 L651.18 296.71 L650.47 297.42 L649.59 298.1 L648.7 298.39 L645.54 298.69 L644.33 299.09 L638.46 301.89 L637.52 302.62 L637.14 303.9 L637.39 304.34 L638.55 304.38 L638.87 304.82 L638.84 305.42 L638.66 305.96 L637.07 309.16 L634.39 316.87 L634.02 317.47 L633.34 317.77 L632.04 317.96 L627.93 317.93 L624.71 318.95 L620.28 324.33 L617.21 325.12 L615.75 324.69 L613.1 323.57 L611.73 323.19 L610.82 323.12 L610.07 323.22 L605.8 324.88 L604.61 326.57 L603.99 326.88 L603.42 325.74 L603.21 324.87 L602.93 324.11 L602.4 323.63 L601.51 323.61 L599.5 324.24 L598.5 324.44 L597.41 324.38 L596.27 324.05 L589.44 321.03 L588.42 320.93 L577 323.86 L573.8 323.96 L572.26 324.23 L570.85 324.91 L568.02 327.33 L567.51 328.12 L567.47 329.03 L567.35 329.44 L566.98 329.69 L566.7 329.63 L566.19 329.2 L566.05 329.12 L565.4 329.45 L565.36 329.6 L564.34 330 L564.13 329.99 L563.56 329.79 L563.29 329.79 L562.72 330.13 L561.77 331.03 L561.1 331.28 L560.41 331.19 L559.96 330.84 L559.62 330.44 L559.24 330.21 L558.67 330.16 L558.47 330.32 L558.29 330.71 L557.78 331.33 L555.63 332.33 L553.21 332.03 L550.86 330.89 L548.95 329.38 L546.81 326.46 L545.97 325.71 L545.33 325.45 L542.74 324.88 L542 325 L541.31 325.22 L540.84 325.05 L540.75 324.01 L540.49 322.77 L537.95 319.07 L536.85 316.91 L536.1 315.88 L535.17 315.4 L532.18 315 L531.22 314.64 L530.06 313.79 L528.99 311.84 L528.04 310.98 L526.21 310.1 L525.57 309.55 L524.96 308.48 L523.98 305.48 L523.36 304.65 L522.43 304.19 L521.45 304.19 L520.44 304.31 L519.42 304.22 L518.53 303.49 L517.63 301.33 L517.26 300.98 L516.29 301.52 L515.99 301.43 L515.87 300.01 L515.52 299.47 L510.98 295.58 L510 294.34 L509.44 293.3 L509.17 292.3 L509.11 289.96 L509.45 285.94 L509.18 284.97 L508.27 284.63 L506.03 284.61 L505.36 284.38 L504.79 283.89 L504.33 283.27 L503.98 282.65 L503.72 282.02 L503.7 281.63 L503.72 281.26 L503.4 279.42 L503.45 278.64 L503.89 278 L505.74 276.43 L506.29 275.8 L507.06 274.67 L508.4 272.3 L509.35 269.57 L509.36 269.6 L509.59 270.47 L509.7 271.6 L510.21 273.67 L510.29 274.67 L510.1 275.49 L509.86 276.2 L509.83 277.02 L510.29 278.15 L511.79 280.28 L512.72 281.23 L513.76 281.98 L516.9 283.32 L518.71 284.51 L520.78 285.38 L521.65 286.03 L522.26 286.9 L523.12 288.67 L523.74 289.49 L524.45 289.65 L526.97 289.6 L527.58 289.49 L528.36 289.09 L529.46 288.96 L535.96 289 L536.64 289.16 L537.63 289.85 L538.2 290.01 L538.44 289.87 L539.22 289.22 L539.6 289 L540.07 288.83 L540.37 288.78 L540.66 288.96 L541.88 290.32 L542.23 290.42 L542.48 289.53 L542.97 288.93 L543.1 288.62 L543.06 288.31 L542.82 287.79 L542.75 287.58 L542.68 285.97 L542.75 285.49 L543.38 284.38 L544.2 283.87 L544.89 284.13 L545.29 285.61 L545.75 286.23 L545.91 286.54 L545.95 286.88 L545.87 287.6 L545.91 287.93 L546.09 288.29 L546.31 288.58 L546.59 288.81 L546.93 289 L547.29 289.15 L547.74 289.25 L548.87 289.32 L549.39 289.1 L550.02 288.15 L551.55 287.62 L552.47 287.11 L553.29 287.01 L553.95 287.93 L553.32 288.71 L552.87 289.42 L552.61 290.21 L552.52 291.23 L552.33 291.63 L551.43 292.56 L551.14 293.15 L552.5 292.58 L553.21 292.51 L553.95 292.8 L554.43 293.37 L554.57 293.92 L554.74 294.35 L555.31 294.57 L555.77 294.47 L556.83 293.93 L557.42 293.87 L558.11 294.12 L560.2 295.26 L563.14 296.14 L564.44 296.87 L565.08 298.08 L564.78 299.36 L563.87 300.28 L561.95 301.53 L561.95 301.91 L563.3 301.87 L564.35 301.68 L565.29 301.21 L566.31 300.32 L566.82 299.36 L566.75 298.37 L566.5 297.44 L566.47 296.66 L567.83 295.6 L570.19 295.93 L574.53 297.7 L576.72 299.12 L580.59 303.01 L582.55 304.31 L585.59 305.83 L586.23 306.05 L587.45 305.87 L589.14 304.99 L590.21 304.66 L591.86 305.31 L593.7 306.83 L595.7 307.78 L597.89 306.74 L597.05 306.71 L595.63 306.18 L594.94 306.05 L594.71 305.73 L594.24 304.32 L593.88 304 L593.07 303.87 L591.65 303.37 L590.9 303.3 L590.31 303.47 L588.47 304.31 L587.36 304.35 L586.4 304.07 L585.57 303.52 L584.83 302.76 L583.92 302.09 L581.66 301.19 L580.82 300.48 L579.9 298.05 L578.92 297.1 L578.7 296.48 L578.64 294.99 L578.7 294.57 L579.39 292.8 L579.81 290.93 L580.28 290.27 L583.22 289.71 L584.34 289.67 L585.34 290.01 L586.01 290.93 L586.68 292.11 L587.5 292.82 L588.66 292.29 L589.31 292.16 L590.02 292.66 L590.87 293.11 L591.98 292.8 L590.95 292.49 L590.47 292.27 L589.56 291.57 L589.11 291.52 L588.66 291.55 L587.66 291.27 L587.33 291.3 L587.16 291.17 L587.11 290.55 L586.53 289.72 L586.41 289.49 L586.23 289.3 L585.31 289.12 L584.99 289 L584.78 288.76 L583.6 286.75 L583.35 286.06 L583.25 285.3 L583.49 285.01 L584.63 284.73 L584.99 284.42 L584.91 284.12 L584.14 283.64 L583.95 283.22 L584.12 282.19 L584.55 281.25 L585.68 279.51 L587.28 276.2 L588.74 271.48 L588.84 270.29 L589.12 270.04 L589.73 270.14 L590.75 270.47 L592 270.37 L590.68 269.25 L590.58 268.03 L591.29 267.38 L592.2 267.45 L593.2 267.81 L595.06 268.18 L595.49 268.09 L596.18 267.65 L596.51 267.28 L597.46 265.96 L597.61 265.56 L597.13 265.15 L596.53 265.34 L596.02 265.87 L595.6 267.14 L595.12 267.25 L594.58 267.04 L593.19 266.15 L592.13 265.97 L588.49 266.51 L587.77 266.41 L587.5 265.86 L587.46 264.69 L587.77 263.88 L588.54 263.06 L589.56 262.58 L590.58 262.78 L590.05 261.82 L589.09 261.47 L588.18 261.29 L587.77 260.88 L587.86 259.96 L588.47 257.56 L588.98 253.99 L589.61 252.6 L590.9 251.58 L591.33 252.44 L592 252.85 L593.71 253.38 L594.3 253.89 L595.57 255.45 L596 255.79 L596.29 255.94 L596.61 256.23 L596.97 256.44 L597.4 256.33 L599 255.24 L599.47 255.09 L601.19 254.83 L601.56 254.92 L602.48 255.6 L603.49 256.17 L603.07 255.25 L602.05 254.19 L600.38 252.66 L599.96 252.03 L599.36 249.89 L598.96 249.14 L600.54 249.23 L601.96 249.6 L603.18 249.65 L604.18 248.8 L604.46 248.92 L604.54 248.99 L604.62 248.96 L604.91 248.8 L603.8 248.38 L601.87 247.91 L601.05 247.4 L600.41 246.86 L599.89 246.3 L599.61 245.51 L599.63 244.27 L600.53 241.14 L600.78 239.14 L601.13 238.4 L601.68 237.84 L605.34 235.03 L610.9 231.59 L612.46 230.83 L622.19 228.91 L629.98 228.64 L644.46 224.81 L658.56 221.1 L666.34 219.45 L669.47 218.22 L670.07 218.23 L678.92 215.47 L680.62 214.58 L683.34 211.67 L684.42 209.73 L683.76 208.59 L684.14 208.14 L685.49 207.23 L687.94 205.09 L688.48 204.79 L688.69 204.31 L690.39 201.63 L694.37 198.12 L695.3 196.72 L695.46 196.32 L695.56 195.9 L695.65 194.8 L695.92 194.29 L697.11 193.36 L697.38 193.04 L697.73 192.5 L700.16 189.75 L701.36 187.69 L701.77 186.54 L701.93 185.34 L702.34 184.4 L703.31 183.6 L705.41 182.4 L717.76 171.73 L728.45 157.81 L729.52 155.34 L729.15 153.33 L730.24 151.64 L730.76 149.47 L730.75 147.05 L729.6 142.24 L729.93 141.42 L731.1 141.09 L734.43 142.68 L737.22 143.11 L738.29 143.67 L739.96 144.97 L741.21 145.45 L741.81 145.84 L742.2 146.89 L742.52 147.04 L743.3 147.06 L743.67 147.21 L743.78 147.55 L743.83 147.95 L744 148.28 L744.54 148.88 L744.84 149.44 L745.23 150.87 L745.23 152.29 L745.93 153.34 L746.27 155.62 L746.11 156.11 L745.4 156.74 L745.23 157.03 L745.32 157.8 L745.56 158.27 L747.3 158.39 L749.52 158.83 L751.61 158.45 L752.55 158.51 L753.19 159.18 L754.25 162.41 L754.75 163.41 L755.48 164.39 L758.68 167.36 L759.76 168.12 L760.16 168.51 L760.41 169.03 L760.79 170.3 L761.04 170.7 L763.14 170.94 L765.54 169.54 L770.22 165.06 L770.61 164.32 L770.9 162.21 L771.25 161.21 L772.42 159.47 L772.79 158.53 L772.61 157.64 L771.02 158.29 L770.99 157.24 L771.29 156.77 L771.61 156.46 L772.84 155.28 L773.39 154.41 L773.76 153.55 L774.23 151.62 L774.35 150.15 L773.97 149.9 L773.22 150.03 L772.22 149.66 L771.31 148.24 L771 146.37 L770.75 140.4 L770.58 139.27 L770.28 138.21 L769.3 136.32 L768.92 135.38 L768.95 134.53 L769.02 134.47 L769.45 134.07 L771.32 133.28 L772.18 132.74 L773.83 131.17 L774.75 130.59 L775.89 130.27 L776.82 130.32 L777.76 130.48 L778.65 130.46 L779.47 129.96 L779.8 129.18 L779.84 128.32 L780 127.54 L781.16 126.37 L781.71 126.11 L782.2 125.81 L782.6 125.45 L782.9 124.98 L783.25 126.02 L783.3 128.01 L783.6 129.86 L783.61 129.87 L783.26 133.92 L783.46 138.08 L783.9 140.06 L785.57 144.04 L786.16 146.05 L786.77 151.09 L787.18 151.81 L787.85 152.27 L790.75 153.34 L791.82 153.57 L793.34 153.42 L793.76 153.57 L794.56 154.24 L795.09 154.47 L796.07 154.43 L796.52 154.6 L797.44 155.21 L798.62 155.73 L799.73 155.77 L800.47 154.96 L800.34 153.91 L799.61 152.81 L797.82 151.13 L796.64 149.56 L795.97 147.55 L795.69 145.4 L795.72 143.38 L796.13 141.36 L796.21 140.48 L795.98 139.27 L792.66 129.62 L791.38 127.8 L790.72 127.35 L790.04 127.03 L789.57 126.55 Z M946.08 76.93 L946.77 77.15 L946.93 77.65 L946.66 78.14 L946.08 78.36 L945.76 78.41 L944.86 78.73 L944.54 78.76 L944.17 78.73 L943.69 78.6 L943.33 78.36 L943.25 78.01 L943.56 77.53 L944.12 77.15 L944.74 76.97 Z M599.31 253.87 L599.36 254.07 L599.41 254.53 L599.26 254.84 L598.77 254.55 L598.27 254.33 L597.8 254.55 L597.42 255 L597.2 255.47 L596.65 254.79 L595.81 252.71 L595.27 252.28 L594.28 251.82 L594.05 250.76 L594.43 248.51 L594.53 246.45 L593.59 237.99 L593.68 235.44 L594.42 233.82 L596.18 234.49 L597.22 236.1 L597.76 238.23 L597.8 247.13 L598.24 250.91 Z M233.15 233.76 L233.28 236.29 L233.15 236.9 L232.55 237.36 L231.59 237.66 L230.58 237.73 L229.83 237.45 L228.86 236.41 L228.46 235.79 L228.44 235.34 L228.47 235.06 L228.22 234.2 L228.28 233.76 L228.51 233.48 L229.16 233.15 L229.48 232.9 L229.98 232.11 L229.98 231.36 L229.77 230.59 L229.65 229.76 L229.76 229.22 L230.06 228.7 L230.5 228.38 L231.05 228.45 L231.29 228.67 L231.37 228.96 L231.44 229.58 L231.57 229.95 L232.22 230.94 L232.54 231.6 Z M971.89 146.67 L973.04 147 L973.61 147.72 L973.41 148.44 L972.24 148.77 L970.34 148.77 L969.62 149.47 L969.27 149.5 L968.99 149.33 L968.99 149.17 L968.92 148.1 L968.68 147.83 L968.07 147.33 L967.88 147.05 L967.71 146.5 L967.89 146.36 L968.42 146.35 L968.55 146.35 L969.29 146.34 Z M960.89 138.65 L961.58 137.79 L962.89 137.82 L964.33 138.33 L965.44 138.97 L965.44 139.35 L964.69 139.41 L964.21 139.75 L963.99 140.33 L964.05 141.09 L963.07 140.19 L962.82 140.04 L962.56 140.28 L962.38 140.75 L962.16 141.08 L961.76 140.91 L960.98 140.31 L960.14 139.92 L959.35 139.72 L958.67 139.66 L958.47 139.57 L958.01 139.13 L957.77 138.97 L956.02 138.65 L952.55 137.57 L952.55 137.25 L956.56 137.25 L957.12 137.1 L957.48 136.75 L957.77 136.39 L958.14 136.18 L959.15 136.35 L959.61 137.09 L960.02 137.99 Z M794.76 102.01 L795.33 104.57 L795.3 105.81 L794.41 106.76 L793.91 106.73 L792.91 106.13 L792.49 106.2 L791.48 107.05 L790.2 107.8 L790.29 107.05 L791.73 103.07 L792.14 102.56 L793.61 101.21 L794.41 100.89 Z M33.85 97.65 L34.29 98.44 L35.08 98.86 L35.56 99.34 L34.63 101.1 L34.41 103.08 L34.2 104 L32.96 106.36 L32.78 107.27 L30.03 106.76 L28 106.78 L27.93 106.89 L27.89 107.01 L27.73 107.07 L27.46 106.97 L27.24 106.72 L27.19 106.49 L27.89 106.08 L28.06 105.36 L27.81 102.67 L27.91 100.28 L27.8 99.81 L27.56 99.41 L27.32 99.1 L27.21 98.87 L27.32 98.37 L27.51 97.98 L27.54 97.63 L27.21 97.27 L27.85 97.02 L28.11 97.31 L28.32 97.76 L28.8 97.99 L29.2 97.85 L29.5 97.53 L29.75 97.18 L30.03 96.94 L31 96.71 L32.03 96.74 L33.01 97.04 Z M7.19 57.14 L7.91 55.55 L9.1 55.08 L9.77 54.46 L9.91 55.32 L9.53 55.75 L9.15 56.33 L9.15 56.95 L9.07 57.28 L9.1 58.11 L9.42 58.99 L9.23 59.76 L8.75 60.49 L8.17 60.73 L7.35 60.01 L7.07 59.23 L6.6 59.08 L6.21 58.07 Z M13.01 50.87 L13.53 51.66 L13.71 52.13 L13.81 52.55 L13.29 52.83 L12.55 53.04 L12.12 53.51 L11.47 53.91 L11.23 54.65 L10.4 54.12 L10.15 52.9 L9.17 52.93 L8.26 53.26 L7.46 54.24 L6.76 55.03 L5.93 55.04 L5.28 55.69 L4.66 55.98 L4.25 56.14 L3.58 53.65 L3.92 52.75 L3.76 51.43 L2.93 51.16 L1.61 50.88 L0.69 50.95 L0.25 50.23 L0.04 49.33 L0 47.2 L1.23 47.66 L2.22 47.23 L3.88 47.29 L4.65 47.81 L6.4 48.02 L7.17 47.86 L8 47.19 L8.61 46.27 L9.1 46.24 L9.88 46.23 L9.64 45.79 L9.55 45.4 L10.02 45.47 L10.49 45.67 L10.88 46.79 L11.27 47.52 L11.87 48.02 L12.92 48.51 L12.85 48.93 L13.22 49.15 L13.66 49.54 L13.44 50.16 Z M907.84 30.24 L909.12 31.84 L909.98 33.44 L909.77 35.01 L907.84 36.57 L906.53 36.95 L904.97 36.99 L903.41 36.77 L902.11 36.33 L901.64 35.96 L901.46 35.53 L901.59 35.08 L902.05 34.7 L902.59 34.52 L905.17 34.41 L905.98 34.2 L906.57 33.73 L906.8 32.88 L906.34 32.43 L904.52 32.33 L904.34 31.64 L904.93 31.02 L907.01 30.75 Z M884.1 0 L884.82 0.68 L885.12 1.9 L885 3.14 L884.48 3.89 L883.54 3.01 L882.78 3.37 L882.51 4.33 L883.06 5.26 L878.18 6.49 L878.42 6.98 L878.86 7.25 L879.13 7.54 L878.88 8.1 L878.41 8.32 L877.69 8.38 L876.95 8.3 L876.42 8.1 L878.88 3.51 L879.61 3.18 L881.32 2.77 L882.01 2.46 Z M892.68 0.67 L896.51 0 L897.72 0.36 L898.32 1.2 L898.39 2.41 L897.89 6.36 L897.33 7.9 L896.55 8.86 L895.67 8.42 L894.71 8.8 L891.75 9.38 L891.12 9.66 L890.83 9.95 L889.47 10.59 L889 10.9 L888.65 11.49 L888.44 12.07 L888.16 12.59 L887.61 13.01 L887.23 11.76 L886.84 7.85 L887.09 7.02 L887.29 6.64 L887.23 4.37 L887.41 3.89 L887.7 3.64 L888.5 3.36 L889 3.08 L890.23 1.84 L891.37 1.04 L892 0.77 Z M82.82 220.46 L82.62 221.02 L82.23 221.28 L81.42 221.49 L81.08 221.04 L81.45 220.33 L82.39 219.95 Z M86.2 220.18 L86.14 220.54 L86.22 221.2 L86.08 222.37 L85.38 223.02 L84.4 223.4 L83.64 223.94 L83.34 224.23 L83.05 224.47 L82.66 224.6 L82.57 224.28 L82.66 223.74 L83.9 220.64 L84.59 219.56 L85.48 219.2 L86.13 219.51 Z "/>
</g>
</svg>
