<svg xmlns="http://www.w3.org/2000/svg" viewBox="0 0 1000 7314.14">
<g fill="#ccc" stroke="#333" stroke-width="0.5" stroke-linejoin="round">
<path fill-rule="evenodd" d="M447.67 7307.82 L456.51 7314.14 L450.26 7313.99 L448.13 7312.31 Z M486.06 7297.84 L483.32 7301.5 L481.49 7304.85 L478.9 7307.36 L474.18 7308.73 L474.94 7303.48 L477.68 7300.96 Z M411.33 7283.82 L413.85 7293.27 L410.95 7291.82 L410.42 7289.76 L410.95 7287.17 Z M519.65 7255.18 L507.77 7271.33 L507.31 7261.73 L510.28 7253.05 L514.85 7249.39 Z M525.98 7220.59 L523.99 7237.96 L518.05 7231.56 L516.22 7224.1 L518.74 7216.63 L526.51 7210.54 L527.5 7213.28 L526.97 7215.49 L526.05 7217.7 Z M702.24 6935.09 L709.7 6943.62 L711.61 6948.11 L711.08 6954.44 L704.98 6949.11 L702.39 6944.46 L701.78 6939.89 Z M384.37 6456.19 L387.57 6459.08 L391 6461.06 L392.67 6464.03 L391.38 6469.75 L391.3 6469.82 L387.57 6467.08 L386.58 6464.83 L386.2 6463.96 L386.12 6463.46 L385.51 6460.22 Z M490.63 6444.99 L498.55 6447.08 L498.48 6447.12 L494.06 6452.38 L492.46 6452.3 L491.85 6449.03 Z M329.45 6416.96 L329.45 6417.19 L332.8 6426.75 L332.8 6426.86 L328.84 6425.38 L328.53 6424.31 L328.15 6423.28 L328.53 6421.87 L328.99 6420.46 L328.99 6420.16 Z M649.91 6402.64 L649.83 6402.68 L641 6407.51 L642.37 6401.95 L644.8 6401.04 L647.32 6401.84 Z M279.71 6383.9 L280.85 6385.61 L282.91 6386.18 L283.52 6386.72 L283.9 6387.02 L281.92 6389.15 L281.92 6389.23 L277.42 6386.87 L277.19 6385.42 Z M775.59 6306.66 L775.52 6306.73 L771.1 6313.28 L771.02 6313.4 L769.04 6309.21 L768.51 6308.14 L769.2 6306.66 L772.17 6306.96 Z M256.02 6292.11 L256.09 6292.26 L258.61 6300.56 L258.68 6300.79 L255.48 6298.2 L254.95 6295.99 L255.71 6293.94 Z M239.72 6205.08 L239.41 6213.5 L236.06 6209.61 L236.06 6207.55 Z M755.48 6194.11 L755.56 6194.3 L758 6202.56 L754.04 6200.96 L753.43 6199.17 L754.57 6196.96 Z M658.06 6068.91 L657.45 6071.39 L657.45 6073.56 L656.99 6074.85 L656.84 6074.85 L655.16 6074.7 L654.02 6071.58 L654.71 6070.24 L656.69 6069.79 Z M644.2 5955.33 L643.59 5957.8 L643.59 5959.98 L643.05 5961.42 L642.22 5961.19 L641.3 5961 L640.23 5957.8 L641.15 5956.66 L641.22 5956.62 L642.06 5956.4 L642.82 5956.2 Z M626.22 5876.1 L626.22 5876.25 L625.69 5878.08 L625.61 5878.39 L625.61 5880.33 L625.46 5881.09 L625.3 5881.89 L624.54 5882.27 L623.71 5882.69 L623.63 5882.73 L622.41 5879.53 L623.02 5878.01 L624.77 5877.13 Z M137.19 3381.61 L137.34 3381.77 L138.41 3383.79 L140.31 3385.16 L140.69 3386.42 L140.62 3386.42 L136.88 3388.18 L134.06 3386.42 L133.99 3386.42 L134.6 3385.16 L136.27 3383.79 Z M101.92 3375.66 L102 3375.81 L102.91 3377.15 L103.29 3377.8 L105.58 3379.21 L106.72 3380.32 L104.43 3381.31 L99.56 3381.31 L99.18 3380.24 L99.18 3380.16 L101.01 3378.18 Z M227.99 3342.84 L212.45 3352.38 L212.29 3352.46 L216.1 3345.59 L220.06 3342.61 L224.18 3342.31 Z M240.63 3280.07 L241.77 3282.13 L242.99 3283.01 L243.68 3283.54 L244.06 3284.88 L240.33 3286.59 L237.43 3284.88 L237.89 3283.54 L239.49 3282.13 Z M7.24 3178.66 L7.24 3178.86 L8.61 3182.06 L10.89 3184.24 L11.81 3186.3 L11.73 3186.3 L9.14 3189.89 L7.16 3188.66 L4.57 3187.1 L4.57 3184.39 L6.32 3181.83 Z M741.77 2976.81 L741.62 2976.93 L734.92 2983.38 L732.63 2984.75 L734.23 2981.66 L736.37 2980.02 Z M17.14 2919.39 L17.6 2921.64 L18.66 2922.6 L19.42 2923.25 L20.03 2923.97 L20.49 2924.43 L20.41 2924.47 L18.51 2925.88 L13.71 2924.28 L13.63 2924.2 L13.41 2923.13 L13.33 2922.98 L15.31 2921.64 Z M770.64 2825.31 L770.8 2834.86 L770.8 2834.93 L767.29 2831.88 L765.31 2830.04 L765.16 2827.94 L767.9 2826.8 Z M267.37 2672.94 L267.52 2673.05 L269.27 2674.62 L271.02 2675.46 L272.17 2676.3 L272.32 2678.13 L269.27 2678.13 L268.36 2676.99 L268.28 2675.15 Z M952.85 2514.5 L951.02 2516.79 L947.97 2517.56 L947.82 2517.63 Z M952.85 2497.31 L952.7 2497.42 L950.11 2500.94 L950.18 2498.61 Z M647.62 2477.21 L648.16 2485.81 L644.96 2484.21 L644.96 2482.49 L644.96 2482.41 L646.25 2480.27 Z M674.06 2326.45 L674.06 2326.68 L674.06 2329.05 L674.59 2331.19 L674.36 2332.64 L672.23 2333.56 L670.55 2331.3 L671.16 2329.89 L672.76 2328.55 Z M754.11 2243.45 L754.04 2246.05 L754.57 2248.22 L754.34 2249.68 L752.21 2250.4 L751.75 2249.87 L750.53 2248.3 L751.14 2246.81 L752.74 2245.51 Z M275.67 2081.81 L275.67 2081.89 L266.61 2095.65 L266.45 2095.84 L266.99 2086.59 L269.42 2082.84 L272.62 2082.08 Z M217.78 2078.87 L222.81 2078.41 L222.65 2078.48 L220.98 2079.56 L217.93 2078.94 Z M713.67 2010.52 L703.61 2011.89 L705.9 2007.49 L707.95 2007.15 L710.47 2008.91 Z M213.44 1951.56 L210.24 1954.66 L210.01 1954.85 L210.92 1952.86 Z M227.38 1949.27 L227.3 1949.5 L226.84 1951.41 L226.77 1951.71 L225.47 1952.13 L224.25 1952.52 L224.18 1952.56 Z M336.91 1869.12 L336.91 1869.28 L335.69 1871.91 L333.64 1872.33 Z M340.95 1858.34 L341.03 1858.45 L341.79 1861.09 L343.16 1863.23 L343.16 1864.57 L339.58 1864.84 L337.37 1862.47 L338.13 1861.17 L339.81 1860.21 Z M380.48 1831.95 L380.18 1834.63 L377.29 1835.13 L377.13 1835.17 Z M392.22 1820.98 L392.52 1821.09 L395.11 1822.16 L398.46 1823.54 L398.16 1823.5 L395.26 1822.93 Z M164.08 1759.98 L164 1760.09 L163.24 1762.27 L161.03 1763.15 L160.8 1763.27 Z M418.42 1753.74 L418.42 1755.69 L415.22 1756.96 Z M762.8 1751.56 L762.72 1751.64 L760.51 1753.29 L760.44 1753.32 L757.24 1752.41 Z M850.62 1717.91 L840.57 1724.6 L835.69 1725.56 L828.69 1723.57 L828.53 1723.49 L834.1 1720.51 L839.81 1718.75 L845.29 1717.98 Z M400.59 1702.99 L400.44 1703.1 L397.24 1706.2 L397.24 1704.75 Z M735.15 1694.34 L735.07 1694.38 L729.66 1695.19 L729.51 1695.22 L732.18 1693.81 L732.25 1693.81 L733.47 1694.04 Z M884.29 1670.78 L884.14 1670.86 L882.08 1672.39 L878.43 1671.7 Z M900.29 1660.99 L900.14 1660.99 L894.12 1661.98 L893.97 1661.98 L897.24 1660.34 Z M251.14 1652.04 L250.46 1654.56 L247.79 1655.29 Z M667.05 1643.16 L667.12 1643.35 L668.19 1645.61 L670.02 1647.45 L670.55 1648.86 L668.88 1649.51 L665.83 1647.94 L665.68 1646.68 L666.74 1645.08 Z M597.58 1637.5 L599.1 1638.88 L599.18 1638.88 L601.92 1638.65 L602 1638.65 L602.22 1638.65 L603.98 1638.8 L602.83 1641.25 L593.92 1642.47 L593.77 1642.47 L592.4 1639.8 L593.77 1638.99 L596.44 1638.76 Z M623.32 1581.61 L617.84 1582.41 L617.54 1582.49 L620.28 1580.58 Z M798.07 1559.3 L795.7 1560.76 L792.28 1560.22 Z M634.75 1548.32 L634.75 1548.59 L634.9 1551.8 L632.85 1553.14 L632.62 1553.26 Z M241.77 1544.08 L241.7 1544.19 L240.33 1545.99 L239.87 1547.86 L239.11 1549.2 L237.2 1549.82 L236.06 1546.03 L237.13 1544.92 L239.41 1544.84 Z M309.87 1520.32 L308.42 1522.15 L307.97 1524.03 L307.21 1525.4 L305.38 1525.98 L305.3 1526.02 L304.31 1522.8 L304.16 1522.15 L305.23 1521 L307.36 1521 Z M727.83 1472.6 L724.94 1474.36 L722.27 1473.52 L722.12 1473.48 Z M300.27 1312.97 L298.52 1315.04 L297.99 1317.3 L297.15 1318.83 L294.79 1318.94 L293.88 1314.24 L295.17 1313.09 L295.25 1313.09 L295.78 1313.16 L297.61 1313.43 Z M247.64 713.9 L247.64 714.02 L249.09 715.86 L249.31 715.97 L250.99 716.89 L251.37 717.24 L251.9 717.85 L251.14 719.84 L246.8 718.96 L246.12 717.54 L247.26 715.55 Z M194.47 617.55 L195.99 619.58 L197.82 620.58 L198.51 621.23 L198.81 621.5 L198.81 621.58 L197.97 623.49 L193.71 622.61 L193.56 622.34 L192.87 621.19 L194.01 619.28 Z M386.27 7230.95 L393.28 7237.35 L399.45 7247.26 L403.95 7258.91 L406.08 7269.88 L399.07 7269.88 L383.84 7235.6 L380.33 7218.16 L393.28 7211.76 L393.28 7218.69 L387.49 7219.22 L386.58 7221.89 L387.34 7225.93 L387.34 7226 Z M636.65 4992.86 L636.81 4992.9 L646.79 4995.22 L641.76 5000.86 L639.7 5000.48 L639.63 5000.48 L638.48 4996.97 Z M669.64 4978.57 L669.71 4978.76 L670.55 4982.91 L672.3 4986.38 L671.39 4988.63 L669.94 4988.78 L664.15 4989.43 L664.53 4985.77 L664.53 4985.66 L664.91 4985.12 L666.29 4983.18 L668.42 4981.2 Z M718.69 4959.4 L728.98 4959.86 L722.5 4965.42 L720.06 4965.27 L719.38 4962.3 Z M779.94 4944.5 L773.16 4949.91 L762.26 4958.49 L762.26 4958.56 L761.88 4958.18 L761.65 4957.88 L761.2 4957.53 L760.97 4957.12 L763.1 4954.49 L765.16 4951.82 L769.88 4948.58 L779.78 4944.54 Z M797.15 4918.86 L797 4919.2 L793.88 4926.78 L793.34 4928.23 L792.5 4925.03 L793.34 4923.01 L793.95 4922.36 L795.17 4921.22 Z M530.62 4897.97 L523.08 4901.4 L523.39 4896.37 L524.91 4895.69 L526.58 4896.49 L527.42 4896.91 Z M812.69 4860.48 L808.73 4880.22 L805.76 4889.4 L801.57 4897.52 L801.26 4897.97 L809.64 4867.45 Z M809.87 4819.32 L809.64 4829.34 L809.64 4829.49 L807.66 4826.86 L807.82 4824.73 Z M591.94 4805.26 L594.38 4807.31 L596.97 4808.46 L597.58 4809.87 L593.01 4813.03 L590.27 4811.2 L590.57 4809.56 L591.86 4807.66 Z M804.39 4772.29 L803.24 4776.45 L800.81 4776.1 L800.73 4776.1 L802.56 4774.2 Z M657.22 4766.27 L657.22 4770.39 L656.54 4768.79 Z M815.13 4719.93 L811.17 4729.23 L811.17 4729.38 L810.25 4726.14 L811.01 4724.08 L812.84 4722.37 Z M826.33 4694.24 L842.93 4694.54 L843.01 4694.54 L841.18 4695.92 L838.28 4698.13 L826.4 4705.6 L820.84 4708.49 L820.84 4704.68 L821.98 4701.33 Z M335.92 4641.3 L333.71 4642.94 L332.27 4643.02 L330.82 4643.09 L330.97 4643.02 Z M392.22 4622.43 L392.22 4622.51 L391.3 4624.49 L391.3 4626.63 L390.77 4627.69 L388.1 4626.78 L387.57 4624.26 L388.41 4623.42 L390.23 4623.27 Z M403.11 4610.16 L404.4 4612.07 L408.14 4617.56 L402.65 4617.56 L401.66 4615.95 L402.57 4613.21 Z M246.72 4539.72 L244.82 4542.05 L244.74 4542.09 L241.77 4541.48 Z M225.85 4490.48 L226.69 4501.15 L222.5 4497.87 L222.35 4495.51 L224.18 4493.3 Z M617 4471.19 L616.93 4471.76 L616.62 4474.81 L615.4 4476.49 L615.17 4476.75 Z M626.6 4387.67 L633.23 4399.37 L636.96 4409.51 L637.8 4411.72 L638.56 4424.38 L634.45 4436.46 L634.37 4436.65 L626.22 4395.33 Z M589.66 4323.39 L590.04 4334.34 L590.04 4334.41 L588.67 4333.34 L586.84 4331.86 L586.84 4331.74 L586.61 4329.53 L588.21 4326.86 Z M431.22 4278.9 L429.62 4281.65 L427.1 4281.65 L426.95 4281.65 Z M201.48 4158.12 L203.84 4159.26 L206.35 4159.42 L207.42 4160.48 L205.59 4164.18 L202.47 4163.76 L201.93 4162.47 L202.09 4160.41 Z M175.73 4146.91 L176.8 4156.75 L176.8 4156.82 L170.86 4153.93 L170.48 4151.79 L173.14 4149.65 Z M315.89 4102.37 L325.18 4099.17 L325.18 4099.25 L321.22 4105.62 L318.78 4106.19 L315.97 4102.41 Z M625.91 4068.09 L625.15 4070.5 L625.91 4072.44 L625.91 4074.04 L624.01 4075.15 L623.93 4075.19 L621.19 4070.8 L621.95 4069.12 L624.09 4068.78 Z M668.72 4061.12 L660.65 4070.8 L661.79 4065.08 L664.15 4062.41 L667.05 4061.5 Z M808.5 3960.83 L808.65 3960.94 L809.95 3962.12 L810.79 3962.81 L808.96 3965.14 L808.96 3964.56 Z M632.31 3950.38 L632.92 3952.59 L634.14 3954.27 L634.6 3955.53 L632.77 3956.29 L632.62 3956.33 L629.42 3954.19 L629.42 3952.89 L631.17 3951.86 Z M302.94 3904.04 L308.96 3909.57 L304.77 3911.59 L304.31 3911.17 L303.47 3910.49 L303.47 3907.66 L303.47 3907.59 Z M823.13 3902.71 L823.13 3902.82 L821.07 3910.79 L820.38 3908.58 L820.84 3906.79 Z M843.46 3896.26 L843.39 3896.34 L835.54 3906.06 L836.46 3900.27 L839.12 3897.63 L841.79 3896.6 Z M173.45 3889.17 L173.45 3889.28 L171.16 3896.95 L168.72 3899.5 L168.57 3896.95 Z M202.93 3781.73 L204.07 3783.56 L205.29 3783.9 L205.9 3784.09 L207.04 3784.93 L205.59 3787.75 L201.33 3788.25 L200.87 3786.99 L202.09 3784.7 Z M868.83 3760.22 L868.37 3763.76 L864.49 3766.17 Z M274.3 3757.01 L274.45 3757.13 L275.52 3759 L277.5 3760.33 L277.96 3761.82 L274.6 3763.99 L271.71 3762.62 L271.94 3761.21 L273.39 3759.38 Z M334.55 3667.68 L335.69 3669.51 L335.77 3669.55 L337.75 3670.12 L338.89 3670.88 L337.22 3673.82 L333.1 3674.24 L332.65 3673.02 L333.71 3670.65 Z M324.73 3623.12 L324.8 3623.24 L326.1 3625.11 L327.93 3626.56 L328.38 3628 L324.95 3630.1 L324.73 3629.99 L322.14 3628.84 L322.44 3627.39 L323.81 3625.49 Z M138.94 3567.35 L140.08 3569.18 L142.14 3569.67 L142.52 3570.02 L143.05 3570.55 L141.61 3573.45 L137.34 3573.8 L137.19 3573.8 L137.04 3572.65 L138.1 3570.32 Z M778.34 3521.64 L778.49 3521.8 L779.33 3522.52 L780.62 3523.63 L780.7 3523.86 L780.93 3525.99 L781 3526.18 Z M994.74 3437.36 L994.9 3437.47 L999.92 3441.75 L1000 3441.82 L998.17 3441.1 L995.66 3440.11 L995.51 3439.69 Z M768.51 3390.39 L770.95 3394.74 L771.02 3394.82 L768.81 3393.75 L768.74 3393.67 Z M250.46 3172.21 L251.75 3174.28 L253.66 3175.69 L253.66 3177.02 L250.08 3178.74 L247.26 3177.14 L247.64 3175.76 L249.31 3174.39 Z M244.29 3136.3 L245.51 3138.44 L246.88 3139.43 L247.33 3139.81 L247.64 3141.11 L243.83 3142.79 L243.45 3142.56 L241.09 3141.15 L241.54 3139.81 L243.22 3138.44 Z M243.14 3075.57 L244.29 3077.63 L245.05 3078.24 L246.12 3079.12 L246.42 3080.42 L242.69 3082.1 L239.95 3080.42 L240.4 3079.12 L242 3077.63 Z M704.3 3066.41 L702.39 3068.01 L700.72 3070.07 L699.65 3070.99 L698.89 3069.16 L699.8 3066.22 L701.17 3065.68 L702.85 3066.22 Z M710.16 2997.04 L710.09 2997.12 L709.7 2998.72 L705.44 3000.75 L705.13 3000.9 Z M617.99 2974.37 L617.84 2974.52 L614.64 2976.89 L614.64 2975.89 Z M690.59 2811.45 L690.51 2811.6 L689.44 2813.32 L687.31 2813.89 L687.16 2813.93 Z M806.26 2694.43 L812.51 2700.29 L811.68 2708.24 L809.18 2723.3 L798.75 2750.49 L787.9 2761.78 L773.21 2770.41 L750.77 2768.47 L741.17 2764.29 L698.62 2749.23 L699.45 2744.21 L774.26 2747.68 L782.24 2743.16 L787.48 2727.48 L794.16 2705.73 Z M243.68 2672.59 L256.32 2676.15 L256.25 2676.15 L252.36 2677.1 L252.29 2677.14 L249.31 2676.3 Z M852.76 2601.29 L852.61 2601.36 L849.56 2603.27 L846.66 2602.89 L846.44 2602.89 Z M867.38 2581.73 L867.38 2581.88 L867.23 2584.36 L867.84 2586.43 L867.69 2587.92 L865.55 2588.76 L863.8 2586.43 L864.34 2585.17 L865.86 2583.87 Z M892.14 2574.74 L892.06 2574.85 L891.3 2577.07 L891.68 2579.36 L891.68 2579.51 L891.3 2580.89 L890.08 2580.66 L888.25 2580.28 L888.1 2580.24 L886.27 2576.69 L887.49 2575.69 L889.78 2575.66 Z M920.25 2553.2 L920.09 2555.83 L920.7 2557.89 L920.55 2559.42 L918.57 2560.3 L916.82 2558.05 L917.35 2556.67 L918.88 2555.26 Z M254.8 2511.14 L253.88 2526.34 L247.18 2525.58 L245.51 2525.42 L242 2517.44 Z M813.15 2340.05 L813.15 2340.28 L813.07 2342.73 L813.6 2344.79 L813.45 2346.24 L811.32 2347.12 L810.71 2346.32 L809.64 2344.87 L810.25 2343.49 L811.7 2342.19 Z M884.29 1590.22 L888.94 1597.33 L891 1604.91 L890.23 1612.83 L887.04 1620.55 L887.04 1620.75 L882.62 1595.15 Z M300.27 1548.21 L300.2 1548.28 L298.9 1549.89 L297.46 1553.49 L295.93 1554.75 L294.1 1550.27 L294.1 1550.2 L295.02 1548.9 L297.61 1548.9 Z M186.4 1519.17 L185.02 1521.12 L184.41 1522.96 L183.73 1524.45 L181.9 1525.02 L180.53 1521.04 L181.52 1520.05 L183.81 1519.97 Z M312.84 1402.8 L312.77 1402.95 L311.24 1404.79 L310.79 1406.63 L310.1 1408.04 L308.27 1408.66 L308.12 1408.69 L307.05 1404.79 L308.04 1403.68 L310.41 1403.68 Z M308.73 1347.15 L307.36 1348.99 L306.67 1350.9 L306.14 1352.28 L304.16 1352.93 L303.02 1348.99 L304.16 1347.99 L306.29 1347.84 Z M662.71 1290.04 L662.32 1290.89 L651.36 1311.79 L651.28 1311.63 L650.59 1311.36 L650.52 1311.33 L650.29 1311.25 L653.11 1304.7 Z M282.68 1258.96 L281.76 1263.82 L278.95 1266.66 L278.87 1266.69 Z M652.88 1236.15 L652.88 1236.38 L653.18 1239.25 L654.71 1241.54 L654.94 1243.65 L654.94 1243.73 L651.36 1246.37 L647.7 1243.34 L648.54 1241.28 L650.9 1239.25 Z M273.08 1218.61 L273.08 1218.69 L271.71 1227.15 L271.71 1227.26 L269.2 1224.81 L267.82 1223.51 L267.9 1221.6 L270.49 1220.41 Z M716.1 1193.08 L716.03 1193.11 L701.02 1202.38 L700.72 1202.53 L705.9 1195.41 L709.78 1192.62 L712.98 1192.39 Z M260.97 1170.91 L261.05 1171.18 L263.63 1184.12 L260.05 1181.13 L259.37 1178.11 Z M696.6 1126.65 L696.6 1126.8 L696.07 1129.25 L696.07 1129.33 L696.07 1131.51 L696.07 1133.16 L694.01 1134.27 L691.12 1130.86 L691.96 1129.4 L694.32 1128.41 Z M231.03 1072.35 L229.66 1083.76 L225.55 1077.79 L226.16 1074.95 Z M659.89 1071.2 L665.05 1082.95 L656.99 1079.01 L654.94 1076.41 Z M216.1 1060.78 L216.03 1060.86 L214.35 1062.39 L213.97 1064.54 L213.44 1065.53 L212.07 1064.8 L210.62 1064 L210.47 1060.06 L211.61 1059.48 L213.67 1060.52 Z M529.71 964.73 L529.63 964.85 L528.11 968.37 L524.76 968.14 Z M531 938.53 L530.85 938.61 L526.43 941.6 L526.05 941.83 L527.96 939.53 Z M501.37 918.92 L501.29 919 L500 921.52 L496.42 922.21 Z M547.99 895.51 L547.91 895.63 L546.62 897.81 L545.93 899.77 L545.17 901.15 L543.34 901.41 L543.19 901.45 L543.42 898.69 L544.56 897.47 L546.08 896.78 Z M500.08 881 L499.92 881.07 L495.35 884.37 L497.03 882.07 Z M548.52 864.91 L548.52 864.98 L545.93 875.02 L543.42 871.19 L543.95 869.08 L546.24 867.36 Z M327.01 833.91 L326.86 834.03 L322.29 837.09 L322.14 837.24 L323.51 835.18 Z M521.25 817.59 L521.71 820.62 L523.08 822.92 L523.31 825.18 L519.88 827.71 L516.22 824.72 L516.91 822.69 L519.42 820.62 Z M415.22 773.18 L413.09 775.87 L410.19 776.48 L410.04 776.48 Z M496.42 765.67 L496.42 765.83 L494.44 770.96 L490.78 773.34 L490.4 773.57 L490.94 773.18 Z M373.02 752.72 L372.94 752.84 L371.19 755.52 L368.45 755.98 L368.14 756.02 Z M479.43 734.94 L479.51 735.09 L480.58 737.55 L481.57 738.01 L482.56 738.47 L484 739.92 L483.17 743.6 L477.61 742.3 L477.53 742.03 L476.77 740.46 L478.44 737.93 Z M411.56 730.19 L411.26 730.42 L406.99 733.33 L406.69 733.56 L408.21 731.57 Z M470.29 712.98 L468.08 714.59 L466.86 716.24 L465.49 717.16 L463.67 716.43 L464.43 713.86 L465.95 713.25 L468.01 713.4 Z M314.21 695.85 L315.43 697.92 L317.41 698.77 L318.33 699.76 L317.64 701.76 L313.07 700.91 L312.54 699.38 L313.6 697.54 Z M5.71 655.69 L5.64 655.73 L3.73 657.45 L2.21 659.64 L0.99 660.52 L0 658.72 L0.99 655.69 L2.51 655.08 L4.04 655.69 Z M204.07 628.78 L205.59 630.85 L207.42 631.85 L207.88 632.31 L208.41 632.77 L208.41 632.85 L207.57 634.76 L203.31 633.88 L203.15 633.61 L202.47 632.39 L203.46 630.55 Z M340.7 627.68 L338.28 632.46 L335.54 634.72 L335.39 634.88 Z M259.52 516.81 L257.54 518.23 L256.63 520.15 L255.71 521.22 L253.66 520.3 L254.57 515.89 L256.02 515.24 L256.09 515.28 L257.77 516.35 Z M223.87 510.95 L225.32 513.02 L227.15 513.94 L228.29 514.86 L227.38 516.93 L223.03 516.01 L222.5 514.47 L223.42 512.71 Z M323.05 494.84 L322.97 495 L322.59 497.38 L323.2 499.37 L323.43 500.71 L323.51 500.75 L321.37 501.59 L320.61 500.37 L318.94 497.76 L319.47 496.3 L321.53 495.77 Z M336.91 457.58 L334.93 459.03 L333.87 460.91 L333.1 462.03 L330.97 461.11 L331.89 456.66 L333.41 455.97 L333.49 456.01 L335.24 457 Z M360.07 414.17 L352.83 420.77 L353.29 415.17 L355.04 413.75 L357.4 414.02 Z M394.2 374.6 L391.91 378.43 L390.77 381.77 L389.02 384.18 L384.83 385.41 L384.75 385.45 L385.51 378.2 L387.95 375.56 Z M329.3 327.69 L329.3 327.77 L328.84 330.15 L328.92 330.46 L329.45 332.07 L329.52 333.56 L327.47 334.41 L326.71 333.22 L324.95 330.65 L325.79 329.07 L327.62 328.61 Z M218.69 323.67 L216.86 325.12 L215.8 327 L214.81 328.15 L212.98 327.35 L212.9 327.27 L213.82 322.82 L215.34 322.17 L217.09 323.21 Z M444.32 302.42 L448.74 301.92 L449.95 303.19 L449.95 303.26 L449.95 305.6 L450.87 308.25 L438.07 337.59 L430.53 350.48 L418.42 360.25 L418.27 360.37 L422.3 345.14 L437.77 319.68 Z M465.04 260.95 L479.66 263.22 L472.35 268.2 L467.02 269.82 L464.27 267.63 Z M291.06 250.6 L290.98 250.64 L289.08 252.09 L287.93 254.01 L287.1 255.09 L285.19 254.28 L285.12 254.24 L285.88 249.72 L287.55 249.18 L289.31 250.14 Z M430.15 248.79 L428.17 250.25 L427.25 252.09 L426.34 253.24 L424.21 252.32 L425.12 247.84 L426.65 247.26 L428.47 248.3 Z M272.62 239.9 L272.17 242.31 L272.78 244.34 L272.78 244.42 L272.85 245.73 L270.87 246.49 L270.8 246.49 L268.36 242.81 L269.12 241.28 L271.02 240.7 Z M386.88 240.51 L386.81 240.59 L384.9 242.04 L383.99 243.81 L383 244.88 L381.86 244.5 L380.94 244.15 L382.01 239.67 L383.46 238.97 L385.21 239.97 L385.28 240.01 Z M261.96 232.53 L260.05 233.91 L258.91 235.68 L258.15 236.86 L256.4 236.14 L256.17 236.02 L256.02 235.98 L256.86 231.61 L258.61 230.84 L260.28 231.92 Z M394.42 198.58 L393.97 201.07 L394.5 203.07 L394.73 204.37 L394.8 204.45 L392.67 205.29 L390.23 201.53 L390.77 199.96 L392.82 199.46 Z M495.35 177.9 L495.35 177.98 L494.44 191.1 L490.4 203.83 L485.91 209.63 L483.17 201.92 L484 193.32 L486.82 184.35 L490.78 178.21 Z M225.7 141.3 L225.7 141.68 L226.01 144.71 L224.42 146.69 Z M480.8 128.18 L477.22 147.13 L476.46 147.36 L476.01 147.36 L475.85 147.36 L475.7 147.28 L475.24 147.13 L474.63 146.75 L473.95 137.61 L474.63 131.71 L476.69 128.6 Z M193.86 109.6 L193.86 112.75 L192.57 114.86 L192.49 114.9 Z M276.05 74.99 L276.05 75.18 L277.65 87.96 L273.77 83.2 L273.69 79.83 L273.69 79.75 Z M248.17 47.82 L248.17 47.94 L246.8 53.19 L246.12 50.32 Z M213.44 13.7 L213.44 13.82 L212.52 22.68 L207.42 17.19 L207.57 15.31 L210.47 14.74 Z M186.24 0 L186.93 1.46 L186.93 3.34 L185.02 5.3 Z "/>
</g>
</svg>
