<svg xmlns="http://www.w3.org/2000/svg" viewBox="0 0 1000 947.55">
<g fill="#ccc" stroke="#333" stroke-width="0.5" stroke-linejoin="round">
<path fill-rule="evenodd" d="M0 659.79 L1.05 660.28 L2.38 660.51 L3.69 660.34 L6.3 659.41 L7.59 659.19 L8.51 659.68 L11.07 661.98 L11.74 662.33 L12.23 661.59 L12.55 660.6 L13 660.27 L14.13 660.55 L15.34 660.55 L16.52 660.22 L17.59 659.48 L19.02 657.49 L19.89 656.74 L22.33 656.21 L23.43 655.61 L24.34 654.83 L24.81 654 L25.05 653.42 L25.37 653 L25.68 652.67 L25.88 652.38 L26.12 652.28 L26.55 652.16 L26.89 651.95 L26.89 651.55 L26.47 650.97 L26.31 650.67 L26.26 650.29 L26.57 648.03 L26.88 646.91 L27.33 645.93 L27.33 645.92 L27.46 644.78 L27.29 643.88 L26.85 643.18 L26.14 642.6 L25.75 642.6 L25.43 642.89 L25.04 643.04 L24.44 642.6 L24.55 642.28 L24.69 640.39 L25.39 637.86 L25.45 637.21 L25.26 636.34 L25.21 635.75 L25.36 634.43 L26.51 631.07 L26.85 628.09 L27.1 627.08 L29.13 622.7 L30.09 618.21 L30.87 616.21 L32.41 614.51 L32.55 613.82 L32.55 611.67 L34.08 611.91 L34.34 611.95 L35.96 612.48 L37.58 612.6 L39.35 611.67 L41.51 609.36 L42.52 608.78 L44.13 608.29 L44.84 607.95 L45.38 607.34 L45.52 607.03 L45.56 606.7 L45.52 606.38 L45.38 606.07 L45.13 605.91 L44.92 605.75 L44.76 605.56 L44.66 605.29 L44.83 605.24 L45.38 605.18 L48.84 605.9 L50.26 606.5 L51.79 607.83 L57.41 616.05 L58.54 617.34 L73.86 628.71 L75.84 630.63 L77.51 633.9 L79.76 636.13 L81.76 639.22 L82.3 638.16 L83.23 634.58 L83.75 633.57 L85.38 632.01 L86.07 630.95 L86.65 628.63 L87.09 627.61 L88.07 626.64 L88.72 626.41 L89.34 626.41 L89.84 626.31 L90.51 625.29 L91.49 624.72 L91.96 624.25 L92.44 622.93 L92.36 620.33 L92.59 619.13 L93.26 618.47 L94.24 618.42 L97.9 618.99 L100.43 619.02 L101.62 618.84 L101.78 618.78 L103.8 618.09 L104.8 617.93 L105.98 618.18 L106.89 618.02 L113.08 618.12 L114.75 618.45 L117.67 618.22 L118.51 618.34 L123.69 620.42 L124.22 620.43 L125.34 620.22 L125.8 620.26 L127.04 620.85 L129.25 622.27 L130.66 622.7 L133.12 622.77 L140.17 621.73 L147.19 622.37 L149.5 621.79 L152.94 619.76 L154.14 619.24 L157.09 618.62 L172.14 618 L171.41 614.52 L170.44 610.54 L170.45 608.71 L171.34 607.04 L175.04 602.57 L176.23 601.81 L177.68 602.46 L177.87 604.5 L177.04 608.8 L176.66 614.54 L187.17 614.54 L189.26 614.54 L196.7 614.54 L197.63 614.55 L203.21 614.55 L207.32 614.55 L211.81 614.55 L216.66 614.55 L221.83 614.55 L229.94 614.56 L238.62 614.56 L247.78 614.57 L257.36 614.57 L267.25 614.57 L277.39 614.58 L287.69 614.58 L298.08 614.58 L308.47 614.59 L318.77 614.59 L328.91 614.59 L338.8 614.6 L348.38 614.6 L357.54 614.61 L360.25 614.61 L366.22 614.61 L374.33 614.61 L378.99 614.62 L383.39 614.62 L387.51 614.62 L391.33 614.62 L399.46 614.62 L408.99 614.63 L409.01 614.63 L409.03 614.64 L409.05 614.65 L409.06 614.65 L409.08 614.66 L409.1 614.66 L409.12 614.67 L409.14 614.68 L409.16 614.68 L409.17 614.68 L409.18 614.68 L409.19 614.68 L409.21 614.68 L409.21 614.68 L409.23 614.68 L409.24 614.68 L409.25 614.67 L409.25 614.66 L409.26 614.66 L409.27 614.65 L409.27 614.64 L409.28 614.64 L409.29 614.63 L409.29 614.62 L409.29 614.61 L409.29 614.6 L409.29 614.59 L409.29 614.57 L409.29 614.56 L409.29 614.55 L409.29 614.54 L409.29 614.52 L409.35 614.21 L409.41 613.91 L409.42 613.83 L409.46 613.59 L409.52 613.29 L410.66 607.18 L411.8 601.06 L412.93 594.95 L414.07 588.83 L415.18 582.87 L416.29 576.9 L417.39 570.93 L418.5 564.96 L418.84 563.09 L418.79 562.69 L418.72 562.28 L418.43 561.96 L418.14 561.64 L415.71 559.95 L413.23 558.23 L410.84 556.56 L408.15 554.69 L405.92 553.14 L403.54 551.47 L403.01 550.46 L402.48 549.45 L402.21 546.91 L401.61 541.2 L401.01 535.49 L400.41 529.78 L399.81 524.06 L399.21 518.34 L398.61 512.63 L398.01 506.9 L397.41 501.18 L396.81 495.45 L396.21 489.72 L395.61 483.99 L395 478.25 L394.41 472.51 L393.81 466.77 L393.2 461.02 L392.61 455.27 L391.99 449.37 L391.37 443.45 L390.75 437.53 L390.14 431.61 L389.52 425.69 L388.9 419.76 L388.28 413.83 L387.67 407.89 L387.06 401.95 L386.44 396.01 L385.82 390.07 L385.2 384.12 L384.81 380.38 L384.42 376.63 L384.04 372.89 L383.65 369.14 L382.73 360.3 L382.73 360.29 L381.86 352.25 L380.99 344.21 L380.12 336.15 L379.25 328.1 L378.38 320.04 L377.51 311.97 L376.64 303.89 L375.76 295.81 L375 288.82 L374.58 285.03 L373.67 276.68 L372.76 268.33 L372.34 264.52 L371.49 256.69 L370.63 248.84 L369.78 241 L368.92 233.14 L368.07 225.28 L367.21 217.41 L366.35 209.54 L365.5 201.65 L364.64 193.77 L363.79 185.87 L362.93 177.97 L362.08 170.06 L361.22 162.14 L360.37 154.22 L359.51 146.29 L358.65 138.36 L357.8 130.41 L357.13 124.2 L356.94 122.46 L356.09 114.51 L355.23 106.54 L354.37 98.57 L353.52 90.59 L352.66 82.6 L351.81 74.6 L351.37 70.5 L350.4 61.48 L349.44 52.44 L349 48.33 L348.96 47.95 L348.39 42.55 L347.8 37.25 L347.21 31.95 L346.63 26.64 L346.05 21.34 L345.46 16.02 L344.87 10.71 L344.29 5.39 L343.7 0.06 L357.12 0.06 L370.55 0.05 L383.97 0.04 L397.39 0.03 L410.81 0.02 L424.23 0.02 L437.65 0.01 L451.07 0 L451.07 0.01 L451.08 0.02 L451.09 0.02 L455.72 3.21 L460.34 6.4 L464.96 9.58 L469.59 12.77 L476.32 17.62 L481.15 21.09 L485.98 24.57 L490.81 28.04 L495.64 31.51 L500.47 34.98 L505.3 38.45 L510.14 41.92 L514.96 45.39 L519.8 48.85 L524.62 52.32 L529.45 55.78 L534.29 59.24 L539.12 62.69 L543.95 66.15 L548.77 69.61 L553.61 73.06 L558.86 76.82 L564.11 80.58 L569.36 84.33 L574.62 88.07 L579.87 91.82 L585.12 95.57 L590.37 99.32 L595.62 103.06 L600.87 106.8 L606.13 110.54 L611.37 114.28 L616.63 118.02 L621.88 121.75 L627.13 125.48 L632.38 129.22 L637.63 132.95 L642.88 136.67 L648.13 140.4 L653.38 144.13 L658.64 147.85 L663.89 151.57 L669.14 155.3 L674.39 159.01 L679.64 162.73 L684.89 166.45 L690.14 170.17 L695.39 173.88 L700.65 177.59 L705.9 181.3 L711.15 185.01 L716.4 188.72 L721.65 192.42 L726.9 196.13 L732.16 199.83 L737.41 203.53 L742.66 207.23 L743.52 207.84 L747.91 210.93 L753.17 214.63 L758.41 218.32 L763.66 222.02 L768.92 225.71 L774.17 229.4 L779.42 233.09 L784.67 236.79 L789.92 240.47 L795.17 244.15 L800.42 247.84 L805.68 251.52 L812.78 256.5 L813.56 257.81 L814.68 261.98 L814.81 263.41 L814.05 270.5 L812.7 276.35 L812.66 277.62 L812.82 279.23 L813.27 280.05 L814.11 280.39 L815.49 280.58 L816.77 280.56 L819.19 280.04 L820.46 280.01 L821.88 280.39 L822.72 281.09 L823.99 283.34 L824.92 284.56 L825.96 285.3 L828.58 286.12 L831.02 286.53 L832.13 286.87 L833.2 287.57 L835.43 287.94 L837.82 289.2 L841.7 292.2 L842.93 294.04 L843.3 296.35 L843.25 301.2 L843.85 302.14 L851.06 308.17 L852.33 308.78 L853.65 308.86 L854.74 308.71 L855.72 308.78 L856.66 309.51 L857.25 310.83 L857.47 312.05 L857.92 312.85 L859.26 312.9 L859.91 312.57 L860.94 311.6 L861.79 311.36 L862.51 311.45 L863.03 311.78 L863.5 312.2 L864.1 312.58 L867.92 313.93 L868.82 314.05 L870.41 313.34 L872.88 310.98 L874.28 310.06 L875.56 309.83 L876.68 310.13 L877.73 310.77 L881.45 313.75 L883.69 316.19 L885.61 318.93 L888.06 323.46 L888.77 324.16 L889.7 324.5 L891.16 324.84 L892.34 325.31 L894.53 326.52 L895.71 326.78 L896.36 326.83 L901.89 327.92 L905.22 328.06 L921.84 331.57 L929.51 334.98 L933.02 337.79 L934.02 338.26 L936.21 338.92 L937.16 339.38 L938.01 340.2 L938.25 341.09 L937.13 354.07 L937.2 356.55 L937.97 358.91 L938.29 359.29 L938.62 359.49 L938.93 359.74 L939.19 360.3 L939.15 360.71 L938.82 361.99 L938.81 362.6 L939.34 363.78 L940.11 364.74 L940.76 365.77 L940.92 367.19 L940.32 368.66 L939.22 369.53 L937.93 370.24 L936.8 371.2 L936.25 372.38 L935.95 374.87 L935.68 375.97 L934.37 377.34 L933.55 377.87 L933.25 378.46 L932.78 379.71 L931.89 381.12 L931.34 382.26 L931.42 383.42 L932.44 384.87 L933.52 385.95 L934.72 386.88 L936.01 387.62 L938.81 388.83 L942.38 392.38 L943.8 393.28 L944.41 393.54 L945.3 393.67 L946.85 393.59 L951.76 392.39 L951.77 392.39 L958.12 391.14 L968.48 389.1 L973.01 388.21 L978.84 387.07 L989.21 385.03 L999.57 382.99 L999.6 390.92 L999.62 398.84 L999.65 406.76 L999.67 414.67 L999.67 414.82 L999.7 422.57 L999.72 430.48 L999.75 438.37 L999.77 446.26 L999.79 454.14 L999.8 457.6 L999.82 462.02 L999.84 469.89 L999.86 477.76 L999.89 485.63 L999.92 493.48 L999.94 501.33 L999.96 509.17 L999.98 513.18 L1000 519.83 L999.19 520.42 L998.55 520.45 L998.06 520.66 L997.71 521.77 L997.63 522.92 L997.96 529.14 L997.69 529.8 L996.91 531.06 L996.75 531.63 L996.77 535.62 L996.81 544.09 L996.84 549.54 L996.87 556.52 L996.38 558 L995.52 558.8 L992.88 560.17 L991.46 561.27 L990.3 562.52 L989.39 563.95 L983.97 577.35 L983.71 579.09 L983.95 580.83 L984.7 582.69 L984.75 582.77 L984.78 582.86 L984.79 582.94 L984.78 583.04 L984.8 583.42 L984.76 583.61 L984.7 583.79 L981.18 587.34 L980.26 588.78 L979.87 589.94 L979.32 596.1 L978.84 598.52 L978.07 600.36 L977.91 600.75 L976.39 602.6 L974.11 603.85 L969.29 604.77 L967.06 605.99 L962.33 611.26 L957.02 614.52 L956.42 616.2 L955.85 623.45 L954.74 623.22 L954.41 623.11 L948.17 622.04 L936.77 620.08 L929.54 618.84 L927.14 618.89 L926.17 619.12 L925.74 619.44 L925.58 620.07 L925.47 621.22 L925.46 623.55 L925.12 624.38 L922.12 624.48 L916.27 624.69 L910.41 624.88 L904.56 625.09 L898.7 625.29 L892.85 625.49 L886.99 625.69 L881.14 625.9 L875.29 626.09 L869.44 626.3 L863.57 626.5 L857.72 626.7 L851.87 626.9 L846.01 627.1 L840.16 627.3 L834.31 627.51 L828.46 627.71 L823.99 627.87 L821.95 628.36 L820.31 629.36 L816.21 633.19 L811.36 637.75 L807.39 641.46 L802.31 646.22 L800.83 646.96 L799.18 647.31 L789.91 647.61 L788.14 648.29 L786.41 648.97 L784.73 649.38 L783.9 649.45 L774.49 646.08 L772.6 646.17 L768.67 647.56 L766.75 647.98 L764.7 647.97 L756.7 645.93 L756.21 646.59 L756.19 648.14 L756.53 651.26 L741.28 645.93 L741.27 645.93 L733.17 642.56 L728.95 641.56 L725.16 642.24 L721.38 644.56 L719.19 645.54 L717.49 645.51 L716.89 644.72 L715.49 640.94 L714.93 640.66 L712.97 640.67 L699.67 640.75 L697.66 641.3 L696.55 642.12 L695.85 642.64 L692.61 645.92 L692.6 645.93 L680.07 657.08 L680.06 657.09 L677.92 658.45 L675.61 659.44 L664.03 662.31 L661.46 663.55 L640.45 677.25 L636.22 678.06 L631.96 678.29 L626.98 677.89 L624.08 678.03 L622.26 678.84 L621.77 680.5 L620.66 695.86 L620.42 696.52 L619.9 696.95 L616.93 698.3 L615.75 698.83 L614.81 698.98 L612.87 698.52 L598.71 691.73 L594.1 690.72 L590.8 691.53 L585.87 694.38 L584.52 695.55 L581.09 699.42 L580.07 700.58 L571.12 705.59 L569.51 708.24 L569.86 708.17 L570.04 708.26 L570.14 708.41 L570.24 708.51 L567.87 716.61 L566.79 718.39 L565.83 720.79 L566.11 724.13 L567.82 730.02 L565.68 730.84 L563.59 731.64 L563.15 731.71 L562.72 731.52 L562.29 731.24 L561.79 731.06 L560.31 730.9 L559.84 731.03 L559.13 731.39 L558.08 732.56 L557.38 732.82 L556.95 731.86 L556.79 730.94 L556.49 730.36 L555.41 729.33 L553.89 728.42 L552.62 728.46 L551.29 728.74 L549.6 728.57 L546.9 726.5 L545.28 725.94 L544.08 727.14 L545.33 728.1 L545.73 729.6 L545.48 733.07 L545.16 734.54 L544.26 736.84 L546.4 752.38 L545.57 752.94 L535.62 753.54 L534.29 754.06 L534.06 755.82 L534.77 757.98 L534.84 759.1 L534.23 760.1 L533.49 760.29 L532.75 760.18 L530.19 759.78 L528.83 759.82 L528.44 759.75 L527.9 759.39 L526.93 758.36 L526.52 758.2 L525.72 758.32 L525.3 758.2 L520.34 754.32 L517.57 752.63 L513.07 749 L511.95 748.53 L509.46 747.85 L507.37 747.02 L506.39 746.83 L505.18 746.93 L503.99 746.9 L502.58 746.53 L501.83 745.92 L502.58 745.19 L503.11 744.88 L504.33 743.71 L504.81 743.53 L505.38 743.44 L505.8 743.19 L505.83 742.52 L505.51 742.36 L504.05 742.08 L503.53 741.86 L503.33 741.47 L503.02 740.23 L502.96 740.15 L502.66 739.71 L502.43 739.54 L502.21 739.48 L502 739.54 L501.8 739.72 L500.99 740.69 L501.33 740.95 L502.11 741.01 L502.58 741.35 L502.26 741.93 L501.46 742.64 L500.54 743.24 L499.89 743.48 L499.15 743.74 L498.23 744.8 L497.68 745.14 L496.06 745.57 L495.56 745.83 L494.54 746.78 L493.91 747.91 L492.89 750.45 L491.95 751.96 L490.8 753.29 L490.14 753.65 L489.56 753.63 L488.99 753.51 L488.41 753.62 L487.49 754.25 L486.39 755.25 L485.5 756.35 L485.22 757.28 L485.64 757.86 L486.92 758.59 L487.06 759.13 L486.63 759.68 L485.94 759.87 L482.06 759.68 L481.04 760.12 L480.28 762.19 L479.9 762.7 L479.59 763.24 L479.59 764.01 L479.93 764.57 L481.69 766.2 L483.3 769.77 L484.08 770.84 L485.84 772.35 L486.96 773.78 L487.45 775.5 L487.25 779.03 L488.02 781.85 L487.94 782.59 L486.67 786.62 L486.08 787.4 L485.99 787.46 L485.25 787.95 L484.12 788.34 L482.85 788.5 L482.02 788.26 L480.29 787.22 L478.51 786.83 L476.5 786.98 L474.48 787.49 L472.72 788.18 L472.08 788.28 L471.67 788.17 L471.45 788.34 L471.09 791.57 L471.62 792.59 L474.25 794.64 L475.26 795.64 L476.54 798.55 L477.07 799.35 L477.39 799.57 L477.42 799.8 L477.02 800.65 L476.16 801.8 L475.01 802.94 L473.97 804.19 L473.49 805.69 L475.69 810.97 L476.25 813.62 L474.45 813.98 L473.9 813.5 L473.43 812.83 L472.83 812.34 L471.94 812.39 L471.28 812.8 L471.12 813.23 L471.14 813.73 L470.92 814.7 L471.03 815.4 L470.95 815.77 L470.72 816.03 L465.38 820.46 L466.9 823.42 L466.3 824.08 L464.48 824.16 L462.31 825.4 L461.67 826.61 L461.55 827.61 L461.3 828.25 L461.24 828.4 L460.04 828.98 L459.43 829.02 L458.19 828.87 L457.55 829.03 L456.92 829.58 L456.48 830.38 L456.08 831.12 L455.6 831.75 L454.72 832.28 L453.01 832.57 L451.97 832.92 L450.79 831.9 L449.51 831.88 L446.93 832.81 L445.67 832.8 L444.37 832.49 L443.06 832.37 L441.74 832.92 L441.19 833.39 L440.61 833.72 L439.97 833.88 L439.28 833.84 L438.18 833.97 L435.79 833.89 L434.84 833.97 L433.96 834.37 L431.95 835.59 L430.09 836.17 L429.17 836.97 L427.56 838.79 L425.21 840.71 L424 842.41 L423.58 842.76 L423.14 842.82 L422.8 842.65 L422.47 842.4 L422.06 842.2 L421.68 842.22 L421.4 842.42 L421.18 842.64 L420.92 842.76 L418.81 843.11 L418.62 843.24 L418.16 843.72 L417.84 843.82 L417.49 843.7 L416.75 843.16 L416.48 843.07 L415.65 843.19 L415.27 843.31 L415.27 843.61 L415.65 844.31 L415.99 844.44 L417.56 845.37 L417.79 845.63 L418.84 845.41 L419.37 845.45 L420 845.64 L421.18 846.16 L422.14 846.76 L422.85 847.62 L423.31 848.85 L423.37 849.93 L423.25 851.29 L422.73 853.71 L422.39 854.34 L421.94 854.98 L421.6 855.66 L421.61 856.36 L422.08 857.05 L422.62 857.17 L423.24 857.09 L423.92 857.2 L426.08 858.94 L426.64 861.12 L426.64 866.23 L426.97 867.65 L427.03 868.45 L426.53 868.99 L425.22 869.62 L424.29 870.43 L424.02 871.55 L424.44 878 L424.33 878.99 L423.57 880.28 L421.67 882.22 L421.09 883.64 L420.72 886.16 L420.1 887.03 L418.66 887.93 L417.65 888.37 L416.61 888.69 L410.57 889.46 L409.7 890.05 L409.51 891.02 L409.61 891.57 L410.22 894.77 L409.84 896.37 L411.22 896.04 L412.04 897.75 L413.16 902.07 L413.89 903.37 L414.11 904.12 L413.27 907.68 L413.29 908.2 L413.2 908.81 L412.8 909.1 L412.31 909.34 L411.9 909.8 L411.59 910.71 L411.01 914.02 L411.04 914.58 L411.34 915.59 L411.41 916.11 L412.34 916.47 L411.74 917.02 L411.32 918.01 L411.25 918.95 L411.71 919.38 L411.89 919.96 L411.07 923.2 L409.64 925.43 L409.41 925.94 L408.92 929.08 L408.58 929.97 L406.94 929.35 L405.61 928.47 L404.84 928.2 L404.25 928.22 L402.57 928.65 L399.19 928.98 L391.39 930.71 L387.04 933.02 L386.12 933.7 L385.42 934.73 L385.17 935.85 L385.42 939.22 L384.72 939.76 L381.89 938.77 L381.18 939.33 L380.96 940.87 L380.54 942.18 L379.82 943.36 L378.68 944.49 L373.27 944.52 L368.69 942.89 L367.87 942.37 L366.68 940.91 L366.02 940.47 L365.1 940.66 L364.9 938.38 L365.06 937.54 L365.81 936.71 L365.96 936.81 L366.25 937.06 L366.66 937.22 L367.16 937.04 L367.29 936.71 L367.2 936.31 L367.06 935.95 L367.02 935.73 L368.5 934.08 L367.6 933.34 L367.79 932.21 L368.71 930.3 L367.72 929.13 L367.51 928.54 L367.64 928 L368.29 926.89 L368.39 926.53 L368.12 925.92 L367.76 925.71 L367.27 925.73 L366.58 925.83 L366.17 925.71 L365.82 925.34 L365.5 924.91 L365.19 924.59 L364.64 924.53 L364.13 924.66 L363.81 924.51 L363.84 923.58 L364.12 923.08 L365.23 922.18 L365.63 921.67 L365.71 920.94 L365.54 920.19 L365.19 919.34 L365.67 918.79 L366.33 918.48 L366.94 918.12 L367.26 917.39 L367.06 916.9 L366.5 916.43 L365.85 916.08 L364.7 915.66 L364.53 915.17 L364.83 912.62 L364.75 911.77 L364.14 911.41 L362.68 911.61 L361.25 912.23 L360.12 913.02 L358.94 913.57 L357.37 913.52 L356.13 913.32 L354.81 913.39 L353.77 913.9 L353.35 915.03 L353.23 917.44 L353.55 918.29 L354.25 918.74 L355 919.1 L355.45 919.68 L355.24 921.12 L354.1 921.89 L352.62 922.16 L351.35 922.08 L348.05 921.42 L347.07 921.08 L344.61 919.76 L343.37 918.91 L342.46 918.07 L341.23 915.94 L340.43 915.43 L339.09 915.87 L339.17 916.08 L338.32 917.53 L338.18 917.58 L337.89 918.73 L337.77 919.87 L337.88 920.39 L338.1 920.82 L338.27 921.31 L337.97 924.12 L337.37 926.1 L337.48 927.15 L338.25 928.36 L338.7 928.59 L339.37 928.8 L340.01 929.07 L340.39 929.53 L340.38 930.19 L340.07 930.74 L339.67 931.21 L339.41 931.67 L339.15 933.65 L339.11 933.94 L338.6 934.68 L337.2 935.14 L335.86 934.99 L333.57 933.63 L332.25 933.2 L330.93 933.34 L327.36 935 L326.19 935.16 L322.76 934.73 L321.39 934.94 L320.67 935.71 L319.22 940.61 L319.35 941.44 L319.99 941.99 L320.79 942.5 L321.37 943.18 L321.5 944.75 L320.76 946.05 L319.5 947 L318.09 947.5 L316.59 947.55 L315.51 946.57 L314.61 945.18 L313.62 944.01 L312.6 943.41 L306.63 941.74 L301.83 940.99 L298.01 940.91 L297.02 940.65 L296.51 939.89 L296.45 938.41 L296.84 935.89 L296.48 934.94 L295.1 934.86 L293.45 935.48 L292.9 935.62 L292.11 935.6 L292.03 935.22 L292.18 934.62 L292.09 933.96 L291.07 932.24 L290.83 931.63 L290.79 931.08 L290.84 930.43 L290.79 929.72 L290.46 929.01 L289.94 928.44 L289.35 928.08 L288.65 927.93 L287.78 927.98 L286.34 929.84 L285.87 930.28 L285.32 930.48 L284.23 930.46 L283.62 930.52 L282.21 930.39 L280.03 929.05 L278.77 929.25 L278.43 929.77 L278.2 930.53 L277.89 931.18 L277.35 931.35 L276.63 931.26 L276.09 931.39 L275.27 932.08 L275.27 932.5 L274.99 932.6 L274.43 932.88 L275.16 933.78 L274.48 934.8 L273.14 935.61 L271.92 935.86 L272.71 936.91 L271.99 938.15 L271.88 939.04 L271.54 939.52 L271.09 939.81 L270.69 940.15 L270.48 940.82 L270.25 941.29 L268.8 943.14 L268.21 943.63 L267.68 943.99 L267.09 944.21 L265.54 944.43 L264.97 944.8 L263.83 945.75 L262.74 946.27 L261.47 946.61 L260.2 946.63 L259.06 946.2 L260.37 943.25 L260.7 941.81 L260.58 940.23 L260.18 938.82 L259.55 937.27 L258.66 935.96 L257.48 935.28 L254.19 935.12 L252.61 934.82 L251.44 933.99 L251.11 933.2 L251.04 931.57 L250.83 930.82 L250.23 929.86 L249.83 929.71 L249.31 930.03 L248.38 930.43 L246.98 930.7 L245.67 930.67 L244.56 930.1 L243.05 927.24 L241.2 924.69 L240.52 923.07 L239.58 910.87 L239.31 909.77 L237.71 909.15 L237.84 907.87 L239.11 904.44 L239.54 903.96 L239.9 903.4 L240.03 902.26 L239.94 895.88 L239.58 894.48 L238.64 893.06 L237.39 891.87 L236.05 891.19 L235.33 891.2 L234.15 891.86 L233.56 891.95 L232.43 891.55 L231.88 891.46 L231.24 891.63 L230.01 891.67 L228.8 891.28 L227.78 891.27 L226.21 894.59 L225.61 895.54 L224.52 896.29 L223.55 896.59 L222.47 896.71 L221.38 896.69 L220.36 896.52 L219.16 896.64 L218.12 897.19 L217.17 897.48 L216.24 896.83 L215.97 895.86 L216.2 894.78 L216.7 893.76 L217.24 892.98 L220.03 890.13 L220.67 888.9 L220.71 888.2 L220.56 887.61 L220.58 887 L221.14 886.26 L221.63 886.06 L222.86 886.05 L223.4 885.76 L223.91 884.79 L224.26 882.59 L224.99 881.52 L225.43 881.26 L226.67 880.71 L227.19 880.39 L227.4 880.31 L228 880.26 L228.21 880.11 L228.31 879.67 L228.18 879.3 L227.99 878.99 L227.94 878.76 L228.58 877.37 L229.15 876.93 L231.49 877.47 L232.56 877.6 L233.79 877.53 L234.9 877.15 L235.6 876.33 L235.95 874.73 L235.33 874.45 L234.22 874.63 L233.1 874.43 L232.61 873.5 L233.34 872.7 L234.6 872.11 L235.69 871.82 L234.34 870.69 L232.51 869.82 L228.85 868.7 L227.18 868.65 L226.46 868.37 L225.98 867.47 L225.74 866.34 L225.47 865.02 L225.13 864.25 L223.57 865.47 L221.94 865.36 L218.63 863.86 L217.95 862.96 L217.28 861.79 L216.78 860.54 L216.57 859.43 L215.23 854.97 L214.4 854.39 L213.56 854.59 L212.58 855.05 L211.33 855.23 L210.24 854.86 L209.24 854.25 L208.22 853.79 L207.09 853.87 L210.13 838.06 L210.08 837.32 L209.76 836.72 L209.35 836.13 L209.05 835.45 L208.95 834.12 L209.01 832.95 L208.75 831.9 L207.65 830.94 L206.39 830.71 L205 830.88 L203.66 830.8 L202.55 829.87 L202.3 828.7 L202.56 827.35 L203.47 824.92 L203.52 823.53 L203.05 822.16 L202.25 821.07 L201.34 820.55 L200.15 821.03 L199.41 821.06 L198.97 820.35 L198.77 819.73 L198.18 818.75 L197.98 818.13 L198.08 816.5 L198.72 815.2 L199.52 813.96 L200.07 812.58 L199.97 811.22 L199.29 809.82 L198.2 808.66 L196.15 807.59 L188.9 803.82 L186.34 802.96 L181.72 801.97 L180.92 802.02 L180.47 802.41 L180.01 802.68 L179.15 802.36 L178.34 801.89 L177.99 801.83 L177.58 801.91 L176.56 802.63 L173.7 803.34 L172.82 804.45 L173.15 805.08 L174.02 806.14 L175.12 807.19 L176.79 808.1 L176.95 808.56 L176.98 809.12 L177.27 809.71 L177.73 809.97 L178.75 810.2 L179.09 810.5 L179.13 811.29 L178.87 812.47 L178.32 813.45 L177.53 813.68 L177.71 815.15 L177.42 815.96 L176 817.4 L172.28 816.75 L171.23 816.89 L168.76 818.07 L167.78 818.76 L166.58 819.85 L159.76 822.14 L157.83 823.4 L156.91 824.38 L156.48 825.34 L156.39 826.4 L156.52 827.68 L156.23 828.46 L155.48 829.52 L154.01 831.11 L150.64 831.03 L149.55 830.68 L148.93 830.3 L147.95 829.53 L147.3 829.27 L146.88 829.27 L145.64 829.47 L145.06 829.46 L143.96 828.93 L141.88 827.26 L140.77 826.94 L139.55 826.73 L137.44 825.61 L136.28 825.26 L135.54 824.9 L134.31 823.92 L133.57 823.54 L132.96 823.4 L131.95 823.35 L131.75 823.29 L131.33 823.16 L130.85 822.85 L130.02 822.14 L129.42 821.87 L128.99 821.81 L127.51 821.87 L126.33 821.64 L124.2 820.62 L122.2 820.22 L121.82 819.84 L121.53 819.43 L121.04 819.18 L118.74 820.11 L118.37 820.84 L118.22 820.84 L118.04 820.48 L117.61 820.16 L117.49 820.3 L117.23 820.88 L116.66 821.19 L116.1 821.23 L115.76 821.47 L115.8 822.37 L114.9 822.05 L114.5 821.85 L114.11 821.52 L113.31 822.05 L111.22 823.8 L110.8 824.31 L110.21 825.2 L107.31 824.97 L106.21 825.37 L106.15 825.96 L106.65 827.21 L106.44 827.44 L105.87 827.71 L105.85 828.3 L106.02 828.96 L106 829.41 L104.77 830.29 L103.56 830.87 L102.89 831.62 L103.31 832.98 L102.37 833.28 L101.12 833.93 L100.02 834.69 L99.55 835.31 L99.33 836.16 L98.79 837.3 L98.12 838.36 L97.52 838.94 L96.62 839.37 L94.11 839.48 L92.35 837.65 L89.89 832.92 L88.26 831.27 L87.98 830.61 L88.07 830.11 L88.66 829.02 L88.83 828.46 L88.44 826.74 L87.35 825.84 L85.93 825.16 L84.52 824.1 L82.08 820.28 L81 819.48 L79.52 819.08 L78.31 819.14 L75.68 820.01 L74.26 819.96 L73.44 820.13 L72.99 820.76 L72.2 823.42 L71.51 824.22 L69.55 825.64 L69.5 825.7 L69.22 826.04 L68.35 827.41 L67.87 827.64 L67.36 827.67 L66.95 827.88 L66.58 829.67 L65.93 830.86 L65.03 831.79 L64.07 832.05 L63.08 832.11 L61.13 832.92 L59.95 832.92 L58.76 832.49 L57.52 831.86 L56.33 831.06 L55.32 830.18 L52.87 826.88 L51.79 826 L48.08 824.34 L46.94 823.31 L45.84 820.81 L46.82 818.99 L48.54 817.19 L49.67 814.74 L49.65 813.31 L49.25 810.85 L49.51 809.46 L50.45 808.94 L51.91 809 L53.06 808.85 L53.07 807.64 L53.19 805.99 L53.6 804.35 L53.72 802.9 L52.95 801.83 L52.82 802.18 L52.34 802.94 L52.23 802.39 L51.85 801.37 L51.71 800.85 L51.34 799.86 L50.87 800.04 L50.53 800.7 L50.57 801.16 L50.08 800.72 L49.38 799.49 L48.94 799.21 L48.26 798.97 L48.7 798.58 L49.96 797.99 L50.11 797.28 L50.03 796.83 L49.89 796.41 L49.84 795.74 L50.15 793.78 L50.14 793.14 L49.84 792.5 L49.37 792.16 L48.91 791.99 L48.68 791.84 L48.62 790.92 L48.99 790.46 L49.47 790.13 L50.11 788.49 L50.91 788.24 L51.75 788.09 L52.24 787.28 L52.13 786.69 L51.49 785.54 L51.49 785.26 L51.91 784.81 L52.04 784.14 L51.99 783.4 L51.86 782.76 L51.66 782.24 L51.4 781.79 L51.18 781.51 L51.1 781.45 L50.95 781.4 L50.67 781.36 L50.43 781.22 L50.4 780.83 L50.55 780.49 L50.73 780.23 L50.83 779.96 L50.64 778.95 L50.86 778.31 L51.2 777.66 L51.45 777.03 L51.32 776.7 L50.97 776.38 L50.68 776.05 L50.72 775.67 L51.12 775.45 L51.55 775.6 L51.93 775.81 L52.2 775.8 L52.72 775.37 L53.11 775.14 L53.32 774.77 L53.19 773.15 L53.05 772.44 L52.77 771.8 L52.26 771.26 L52.12 772.34 L51.67 773.05 L50.97 773.34 L50.03 773.16 L50.19 772.54 L50.34 771.33 L50.35 770.79 L50.55 770.54 L50.88 770.28 L50.98 770.02 L50.45 769.77 L50.21 769.56 L49.98 769.17 L49.64 768.41 L48.8 767.2 L48.92 766.85 L49.26 766.37 L49.33 765.93 L48.69 765.68 L47.7 765.42 L46.94 764.96 L46.22 764.41 L45.38 763.9 L44.31 763.65 L44 762.64 L43.98 760.47 L43.41 759.64 L42.69 758.97 L42.11 758.21 L41.93 757.1 L42.16 756.42 L42.93 755.3 L43.02 754.62 L42.76 754.02 L41.39 752.8 L39.9 750.71 L39.46 749.5 L39.46 748.15 L39.02 748.35 L38.26 748.55 L37.59 748.47 L37.43 747.85 L37.51 746.97 L37.23 746.69 L35.71 746.75 L34.52 747 L33.95 746.93 L33.34 746.45 L32.99 745.84 L32.56 745.34 L31.69 745.22 L30.77 745.72 L30.15 746.75 L29.79 748.03 L29.64 749.23 L27.09 751.17 L26.76 751.52 L26.42 751.48 L25.7 750.88 L25.43 750.45 L25.05 749.25 L24.82 748.78 L24.35 748.44 L22.75 747.64 L22.21 747.5 L22.07 746.81 L22.94 743.48 L23.07 742.37 L22.65 741.65 L22.16 741.44 L21.6 741.36 L20.97 741.05 L20.62 740.65 L20.09 739.72 L19.7 739.29 L16.2 736.72 L15.09 735.46 L13.75 733.35 L12.99 731.1 L11.74 728.67 L10.92 727.44 L10.09 726.73 L15.26 723.81 L17.29 721.71 L18.26 718.92 L18.62 716.39 L18.63 715.12 L18.26 713.95 L17.2 712.67 L16.07 711.8 L15.08 710.82 L14.47 709.2 L14.48 706.6 L15.84 701.81 L16.29 699.28 L16.15 697.89 L13.92 692.63 L13.32 691.72 L12.47 691.14 L10.08 690.27 L9.34 689.64 L8.76 688.86 L8.26 688 L9.16 687.67 L9.42 686.9 L9 686.08 L3.35 683.97 L2.57 683.82 L2.68 681.1 L2.53 679.83 L1.81 677.1 L1.68 675.79 L2.05 674.71 L3.19 674.01 L3.63 673.61 L3.8 672.93 L3.86 672.17 L3.98 671.53 L4.43 670.87 L5.61 669.72 L5.95 669.17 L6.01 668.13 L5.55 667.75 L4.93 667.6 L4.5 667.24 L4.36 666.56 L4.48 666.13 L4.74 665.69 L5.08 664.93 L4.41 664.89 L3.42 664.7 L2.5 664.28 L2.04 663.57 L1.67 662.7 L0.46 661.61 Z "/>
</g>
</svg>
