<svg xmlns="http://www.w3.org/2000/svg" viewBox="0 0 1000 883.55">
<g fill="#ccc" stroke="#333" stroke-width="0.5" stroke-linejoin="round">
<path fill-rule="evenodd" d="M950.14 597.84 L989.6 662.26 L1000 740.8 L986 791.58 L950.14 771.69 L909.61 816.83 L896.67 843.91 L896.67 883.55 L854.87 866.67 L843.41 859.61 L753.66 850.71 L628.05 811.33 L516.02 749.31 L467.85 673 L459.58 663.31 L422.66 643.28 L414.6 627.96 L414.6 528.17 L403.14 414.57 L388.29 363.46 L360.92 330.3 L394.02 300.54 L427.33 280.09 L463.82 268.15 L504.99 264.22 L504.99 288.08 L481.22 292.54 L465.95 300.41 L432.21 330.3 L638.45 354.15 L681.73 371.46 L769.36 446.81 L845.32 473.93 L858.48 498.82 L861.45 530.92 L861.23 563.14 L875.24 565.89 Z M190.32 0 L258.01 24.94 L342.03 79.01 L392.74 132.93 L360.92 156.15 L315.09 157.99 L245.07 189.99 L199.24 200.22 L150.86 196.55 L97.18 181.86 L45.83 159.69 L3.39 132.14 L11.46 97.38 L1.91 62.21 L0 34.91 L30.98 24.15 Z "/>
</g>
</svg>
