<svg xmlns="http://www.w3.org/2000/svg" viewBox="0 0 1000 1510.59">
<g fill="#ccc" stroke="#333" stroke-width="0.5" stroke-linejoin="round">
<path fill-rule="evenodd" d="M417.76 1358.01 L417.79 1357.96 L418.67 1358.31 L419.86 1358.59 L420.73 1358.3 L421.4 1357.05 L421.69 1355.78 L421.64 1354.51 L421.23 1353.28 L422.34 1355.14 L421.74 1357.66 L420 1359.19 Z M954.77 1283.16 L955.35 1283.77 L955.93 1284.59 L957.52 1285.92 L957.81 1286.52 L956.82 1286.52 L955.3 1286.5 L954.51 1285.88 L954.34 1284.76 Z M982.2 1134.4 L983.39 1133.46 L984.01 1132.46 L983.91 1131.46 L983.04 1130.47 L985.04 1131.49 L984.3 1133.56 L982.09 1135.38 L979.59 1135.59 L980.17 1135.13 L980.8 1134.85 Z M504.35 1510.59 L511.71 1508.1 L513.09 1506.9 L516.61 1502.38 L515.18 1506.01 L512.65 1508.8 L509.01 1510.45 Z M638.47 1327.98 L641.4 1326.34 L642.5 1325.39 L643.39 1324.05 L644.29 1322.13 L645.63 1317.64 L646.6 1310.66 L648.13 1306.83 L651.17 1304.13 L654.75 1301.89 L657.48 1299.34 L659.84 1296.36 L657.9 1301.8 L649.56 1307.44 L647.68 1313.24 L646.98 1317.68 L645.09 1323.79 L642.16 1328.3 Z M1000 1290.25 L996.82 1289.94 L993.23 1290.61 L990.01 1290.59 L987.94 1288.22 L988.25 1288.39 L989.18 1288.76 L990.62 1289.08 L995.01 1289.23 Z M959.52 1153.32 L955.62 1152.8 L949.45 1148.17 L945.26 1147.2 L938.37 1148.25 L935.21 1146.87 L932.94 1142.11 L934.41 1144.07 L936.01 1145.46 L937.96 1146.18 L947.58 1145.74 L949.56 1146.18 L956.17 1151.44 Z M905.71 1132.74 L901.75 1135.05 L890.87 1136.66 L886.39 1139.05 L882.24 1139.05 L877.34 1138.34 L856.41 1128.93 L852.67 1125.99 L854.84 1123.66 L854.87 1125.11 L855.13 1126.03 L855.85 1127.73 L880.94 1137.84 L882.58 1137.82 L886.41 1137.09 L889.6 1135.97 Z M515.09 1103.16 L525.8 1103.16 L523.6 1105.47 L520.08 1105.33 L513.35 1103.72 L505.9 1102.35 L502.82 1101.23 L503.44 1099.09 L505.63 1101.09 L508.94 1102.05 L512.19 1102.99 Z M488.26 1088.79 L486.36 1087.5 L485.06 1084.87 L484.84 1081.95 L486.14 1079.79 L486.72 1081.78 L487.63 1086.74 Z M240.37 522.72 L238.9 525.4 L236.09 526.94 L232.84 526.87 L230.24 524.78 L235.58 524.32 Z M567.95 1352.22 L568.24 1350.57 L568.85 1350.84 Z M964.79 1140.94 L965.12 1140.53 L965.34 1140.16 L965.63 1139.91 L966.09 1139.79 L965.12 1141.73 L963.87 1143.45 L962.37 1144.95 L960.63 1146.24 L961.53 1144.84 Z M545.88 1063.3 L546.18 1062.4 L546.25 1061.82 L545.36 1060.75 L543.77 1060.15 L541.86 1060.05 L542.69 1059.79 L543.84 1059.63 L545 1059.72 L545.88 1060.2 L546.42 1061.49 L546.49 1061.92 L546.42 1062.69 L546.33 1063.81 Z M314.11 952.09 L315 953.67 L313.81 953.14 Z M363 891.13 L362.87 890.26 L362.81 889.53 L363.22 888.87 L364.28 888.25 L364.47 889.17 L364.24 889.84 Z M825.41 865.16 L824.37 866.85 L823.54 866.6 L823.46 866.57 L823.36 866.53 L823.29 866.47 L823.25 866.39 L823.87 865.04 L824.35 864.71 L825.17 864.61 Z M734.79 782.29 L734.57 779.75 L735.33 779.8 L735.8 781.09 Z M828.81 658.22 L828.79 656.41 L829.39 656.32 L829.41 658.14 Z M38.23 453.04 L38.62 453.16 L39.22 453.46 L39.78 454.07 L40.23 455.15 Z M0 443.66 L0 441.74 L0.68 441.37 L0.99 442.12 Z M552.57 0.05 L553.01 0 L552.07 1.18 L550.52 2.67 L549.1 3.62 L550.73 1.76 Z "/>
</g>
</svg>
