<svg xmlns="http://www.w3.org/2000/svg" viewBox="0 0 1000 1519.46">
<g fill="#ccc" stroke="#333" stroke-width="0.5" stroke-linejoin="round">
<path fill-rule="evenodd" d="M182.44 1474.37 L182.18 1478.04 L181.46 1482.24 L179.92 1486.92 L179.59 1489.31 L180.4 1491.65 L176.9 1492.82 L172.9 1495.97 L170.46 1499.57 L171.57 1502.1 L171.68 1503.18 L172.45 1504.49 L172.55 1505.33 L172.05 1506.73 L171.23 1507.02 L170.32 1506.97 L169.54 1507.42 L167.61 1510.91 L166.51 1512.45 L164.72 1513.69 L152.69 1517.54 L140.52 1519.46 L136.23 1519.11 L129.52 1516.94 L125.55 1516.49 L122.52 1517.88 L114.26 1510.4 L112.44 1508.27 L111.81 1506.22 L114.09 1505.33 L117.64 1506.06 L119.6 1505.69 L120.46 1503.71 L121.21 1499.41 L121.05 1497.84 L119.48 1496.96 L120.64 1493.22 L120.78 1484.78 L121.44 1480.15 L122.43 1477.48 L125.68 1470.99 L126.87 1469.72 L127.17 1469.25 L130.34 1466.58 L131.72 1465.91 L134.83 1465.02 L136.23 1464.39 L138.68 1461.85 L139.12 1459.02 L139.22 1456.17 L141.39 1452.16 L143.16 1446.69 L144.04 1445.05 L144.67 1444.13 L148.63 1440.92 L149.61 1440.48 L151.53 1440.33 L152.36 1439.84 L152.99 1438.76 L153.86 1437.68 L155.38 1437.2 L157.64 1437.54 L164.07 1439.43 L165.79 1440.33 L166.53 1442.02 L165.72 1444.65 L166.28 1446.11 L167.3 1447.56 L168.38 1450.12 L169.6 1452.31 L169.97 1454.07 L170.69 1455.02 L171.28 1455.14 L172.97 1454.87 L173.53 1455.02 L175.13 1456.39 L175.55 1457.37 L175.09 1462.31 L176.19 1463.9 L177.68 1465.09 L179.06 1469.45 L181.81 1472.75 Z M0 0.89 L0.2 0.5 L0.5 0.21 L0.98 0.04 L1.65 0 L2.67 3.29 L6.38 9.12 L6.48 12.05 L3.49 8.47 L0.81 4.24 L0.06 2.35 Z M997.47 1391.2 L1000 1391.82 L999.38 1394.79 L996.49 1398.07 L992.08 1399.61 L988.9 1400.13 L986.62 1401.42 L984.46 1403.12 L981.7 1404.82 L977.59 1400.44 L976.81 1400.13 L977.23 1397.3 L978.39 1396.06 L980.1 1395.29 L984.97 1392.25 L989.56 1390.68 L994.31 1389.98 Z "/>
</g>
</svg>
