<svg xmlns="http://www.w3.org/2000/svg" viewBox="0 0 1000 1099.54">
<g fill="#ccc" stroke="#333" stroke-width="0.5" stroke-linejoin="round">
<path fill-rule="evenodd" d="M685.08 0 L701.23 10.68 L717.38 21.34 L733.51 32 L749.65 42.64 L765.8 53.27 L781.94 63.89 L798.08 74.5 L814.23 85.1 L830.37 95.69 L846.51 106.27 L862.65 116.84 L878.8 127.4 L892.47 136.33 L906.14 145.26 L919.82 154.19 L931.49 161.79 L933.49 163.09 L943.36 169.52 L957.53 179.19 L971.68 188.84 L985.84 198.49 L1000 208.13 L981.94 208.14 L963.88 208.15 L945.81 208.16 L927.75 208.17 L909.69 208.18 L891.63 208.19 L873.56 208.2 L855.5 208.21 L856.29 215.38 L857.08 222.54 L857.86 229.69 L858.65 236.85 L859.44 243.99 L860.23 251.13 L861.01 258.26 L861.8 265.4 L862.58 272.66 L862.63 273.17 L863.22 278.71 L864.52 290.87 L865.82 303.02 L866.41 308.53 L867.56 319.29 L868.71 330.05 L869.86 340.79 L871.01 351.51 L872.17 362.24 L873.31 372.95 L873.57 375.28 L874.47 383.64 L875.62 394.34 L876.78 405.02 L877.93 415.69 L879.07 426.35 L880.23 437.01 L881.38 447.65 L882.53 458.28 L883.68 468.91 L884.83 479.53 L885.99 490.14 L887.14 500.73 L888.29 511.32 L889.44 521.91 L890.59 532.48 L891.75 543.04 L892.9 553.59 L894.05 564.14 L894.61 569.26 L895.84 580.51 L897.06 591.74 L897.62 596.85 L898.65 606.25 L899.83 617.12 L901 627.99 L902.17 638.85 L903.34 649.71 L904.52 660.55 L905.69 671.38 L906.85 682.21 L908.03 693.03 L908.03 693.04 L909.26 704.94 L909.79 709.99 L910.31 715.03 L910.83 720.07 L911.35 725.1 L912.18 733.11 L913.01 741.11 L913.85 749.11 L914.67 757.1 L915.5 765.09 L916.33 773.07 L917.17 781.05 L918 789.02 L918.83 796.99 L919.66 804.96 L920.49 812.91 L921.32 820.87 L922.12 828.61 L922.94 836.33 L923.75 844.06 L924.55 851.79 L925.36 859.51 L926.16 867.23 L926.97 874.94 L927.78 882.65 L928.59 890.35 L929.4 898.06 L930.2 905.75 L931.02 913.44 L931.82 921.14 L932.63 928.82 L933.44 936.51 L934.25 944.19 L934.6 947.62 L935.32 948.98 L936.03 950.34 L939.24 952.59 L942.24 954.67 L945.86 957.18 L949.07 959.43 L952.42 961.75 L955.68 964.03 L956.08 964.45 L956.47 964.89 L956.55 965.43 L956.63 965.98 L956.17 968.49 L954.68 976.53 L953.19 984.56 L951.7 992.59 L950.21 1000.62 L948.68 1008.85 L947.15 1017.08 L945.61 1025.31 L944.09 1033.53 L944.01 1033.94 L943.95 1034.26 L943.93 1034.36 L943.86 1034.78 L943.77 1035.19 L943.77 1035.21 L943.77 1035.23 L943.77 1035.25 L943.77 1035.26 L943.77 1035.29 L943.77 1035.3 L943.77 1035.31 L943.77 1035.33 L943.77 1035.34 L943.76 1035.35 L943.75 1035.36 L943.74 1035.36 L943.74 1035.38 L943.73 1035.38 L943.72 1035.39 L943.71 1035.4 L943.69 1035.4 L943.67 1035.4 L943.66 1035.4 L943.64 1035.4 L943.62 1035.4 L943.61 1035.4 L943.59 1035.4 L943.57 1035.4 L943.54 1035.39 L943.52 1035.39 L943.49 1035.38 L943.47 1035.37 L943.44 1035.36 L943.42 1035.35 L943.39 1035.34 L943.36 1035.33 L930.54 1035.33 L919.6 1035.32 L914.46 1035.32 L908.92 1035.32 L903 1035.32 L896.72 1035.32 L885.8 1035.31 L877.77 1035.31 L874.13 1035.31 L861.79 1035.3 L848.91 1035.3 L835.59 1035.29 L821.94 1035.29 L808.08 1035.29 L794.1 1035.28 L780.12 1035.27 L766.26 1035.27 L752.61 1035.26 L739.29 1035.26 L726.4 1035.25 L714.07 1035.25 L702.39 1035.25 L691.48 1035.24 L684.52 1035.23 L678 1035.23 L671.95 1035.23 L666.42 1035.23 L658.91 1035.23 L657.66 1035.22 L647.64 1035.22 L644.83 1035.22 L630.69 1035.22 L631.2 1027.49 L632.31 1021.7 L632.06 1018.96 L630.1 1018.09 L628.51 1019.1 L623.53 1025.12 L622.33 1027.37 L622.32 1029.83 L623.62 1035.19 L624.6 1039.88 L604.35 1040.72 L600.38 1041.54 L598.75 1042.24 L594.13 1044.98 L591.01 1045.75 L581.57 1044.9 L572.09 1046.29 L568.77 1046.2 L566.87 1045.63 L563.9 1043.72 L562.24 1042.91 L561.61 1042.86 L560.11 1043.14 L559.4 1043.14 L552.42 1040.33 L551.29 1040.17 L547.36 1040.47 L545.11 1040.04 L536.79 1039.9 L535.56 1040.12 L533.97 1039.78 L532.62 1040 L529.91 1040.93 L529.69 1041 L528.08 1041.24 L524.68 1041.2 L519.76 1040.44 L518.44 1040.51 L517.54 1041.4 L517.23 1043.01 L517.33 1046.51 L516.69 1048.29 L516.06 1048.92 L514.74 1049.68 L513.84 1051.06 L513.16 1051.19 L512.33 1051.19 L511.45 1051.5 L510.13 1052.81 L509.54 1054.19 L508.75 1057.3 L507.84 1058.73 L505.64 1060.83 L504.94 1062.19 L503.68 1067 L502.95 1068.43 L500.27 1064.28 L497.24 1061.28 L495 1056.88 L492.33 1054.29 L471.71 1038.99 L470.19 1037.25 L462.63 1026.19 L460.57 1024.4 L458.66 1023.59 L454 1022.62 L453.26 1022.7 L453.02 1022.78 L453.16 1023.13 L453.38 1023.39 L453.65 1023.61 L454 1023.82 L454.18 1024.24 L454.24 1024.67 L454.18 1025.11 L454 1025.53 L453.27 1026.36 L452.32 1026.81 L450.15 1027.46 L448.79 1028.25 L445.88 1031.36 L443.5 1032.61 L441.32 1032.44 L439.14 1031.73 L438.8 1031.68 L436.73 1031.36 L436.73 1034.26 L436.54 1035.18 L434.46 1037.46 L433.42 1040.16 L432.13 1046.2 L429.4 1052.1 L429.06 1053.45 L428.59 1057.47 L427.06 1061.99 L426.85 1063.76 L426.92 1064.56 L427.17 1065.73 L427.1 1066.6 L426.15 1070 L425.96 1072.55 L425.81 1072.98 L426.62 1073.58 L427.15 1073.38 L427.58 1072.98 L428.1 1072.98 L429.05 1073.76 L429.66 1074.71 L429.88 1075.91 L429.7 1077.45 L429.7 1077.46 L429.1 1078.79 L428.67 1080.29 L428.26 1083.33 L428.32 1083.85 L428.55 1084.25 L429.11 1085.02 L429.12 1085.57 L428.65 1085.85 L428.08 1086.01 L427.76 1086.15 L427.48 1086.53 L427.06 1086.98 L426.63 1087.55 L426.32 1088.32 L425.67 1089.44 L424.46 1090.5 L422.97 1091.3 L419.69 1092.01 L418.52 1093.03 L416.59 1095.7 L415.16 1096.7 L413.56 1097.14 L411.93 1097.14 L410.41 1096.77 L409.81 1097.21 L409.38 1098.53 L408.72 1099.54 L407.82 1099.06 L404.38 1095.97 L403.14 1095.31 L401.4 1095.6 L397.89 1096.85 L396.13 1097.09 L394.34 1096.78 L392.92 1096.12 L388.4 1092.55 L383.27 1090.12 L381.83 1088.91 L379.08 1085.61 L377.95 1084.93 L377.91 1084.03 L376.01 1077.29 L375.62 1076.47 L374.91 1075.66 L374.04 1075.18 L372.13 1074.73 L371.27 1074.22 L369.84 1073.14 L365.35 1070.47 L364.3 1069.13 L363.65 1068.48 L362.89 1068.21 L361.64 1068.41 L359.06 1069.2 L358.22 1069.31 L358.16 1069.32 L355.98 1068.38 L353.56 1066.04 L352.92 1065.42 L350.86 1064.75 L350.77 1064.53 L350.52 1063.76 L350.46 1063.09 L350.9 1060.95 L350.89 1060.26 L350.68 1059.61 L350.25 1059.03 L349.51 1058.51 L348.69 1058.27 L347.83 1058.27 L346.08 1058.64 L345.3 1058.62 L344.58 1058.36 L343.87 1057.8 L342 1055.92 L341.51 1054.87 L342.34 1054.24 L345.13 1054.53 L346.48 1054.31 L346.92 1053.13 L346.39 1051.75 L345.36 1050.65 L340.5 1047.31 L339.51 1046.24 L338.83 1044.94 L338.52 1043.56 L338.51 1040.73 L338.36 1040.07 L337.99 1039.44 L337.17 1038.35 L336.9 1037.77 L336.57 1035.43 L336.32 1034.7 L335.81 1034.07 L334.51 1033.47 L333.24 1033.64 L332.04 1034.31 L330.96 1035.19 L329.73 1035.96 L328.56 1036.11 L326.06 1035.46 L325.59 1035.1 L325.3 1034.32 L325.15 1033.6 L325.14 1032.86 L325.6 1029.68 L325.41 1028.49 L324.82 1027.49 L323.95 1026.68 L322.93 1026.08 L321.05 1025.57 L320.45 1025.33 L318.94 1024.23 L318.36 1023.99 L317.17 1023.93 L314.72 1024.36 L313.5 1024.39 L312.73 1022.29 L312.61 1021.58 L312.7 1020.82 L313 1020.14 L314.23 1018.2 L314.37 1017.57 L314.28 1016.95 L313.93 1016.25 L313 1014.88 L312.45 1014.29 L311.8 1013.77 L310.55 1013.04 L309.98 1012.59 L309.56 1012.01 L309.45 1011.29 L309.63 1010.57 L309.9 1009.85 L310.08 1009.13 L310.06 1007.5 L309.67 1006.05 L308.94 1004.74 L307.47 1003.01 L307.12 1002.5 L306.94 1001.93 L306.94 1001.23 L307.26 999.8 L307.31 999.08 L307.13 998.37 L306.65 997.72 L304.59 996.14 L303.88 995.4 L303.26 994.58 L302.74 993.7 L301.6 990.84 L301.49 990.19 L301.41 988.7 L301.2 988.05 L300.71 987.44 L298.47 985.92 L298.06 985.42 L297.41 984.28 L297 983.83 L295.78 983.79 L292.8 984.97 L291.97 984.4 L292.12 983.08 L293.49 980.5 L293.34 979.31 L292.8 979.21 L292.34 979.22 L291.89 979.36 L290.77 979.82 L286.48 980.74 L284.01 981.82 L283.39 982.01 L283.1 982.04 L281.57 982.05 L281.1 982.15 L278.86 983.35 L278.33 983.5 L277.76 983.4 L277.58 983.29 L277.05 982.81 L276.82 982.69 L276.32 982.5 L276.12 982.38 L276.02 982.25 L275.89 981.95 L275.8 981.81 L275.43 981.54 L274.59 981.2 L274.2 980.96 L273.94 980.07 L274.31 978.95 L274.77 977.52 L274.94 976.44 L274.16 976.34 L273.4 976.38 L272.68 976.58 L271.99 976.99 L271.37 977.59 L269.93 979.7 L269.37 980.32 L268.05 981.33 L266.72 982.11 L266.08 982.35 L265.41 982.41 L264.72 982.24 L263.98 981.77 L263.34 981.14 L262.82 980.39 L262.44 979.58 L261.75 977.3 L261.34 976.61 L260.8 976.02 L259.52 975.04 L258.85 974.64 L255.65 973.7 L254.26 972.94 L253.95 971.58 L254.37 970.06 L254.34 969.34 L253.98 968.58 L253.18 967.52 L253.01 966.97 L253.17 966.25 L253.68 964.94 L253.62 964.34 L253.14 963.77 L252.38 963.35 L250.78 962.72 L250.06 962.25 L248.63 960.53 L248.08 960.02 L245.37 958.44 L240.53 954.02 L237.76 950.77 L235.82 949.38 L235.24 948.84 L233.86 947.01 L233.2 946.62 L232.27 946.45 L230.31 946.32 L229.46 945.92 L229.04 945.26 L228.93 943.73 L228.66 943.07 L227.86 942.7 L224.74 942.98 L223.98 942.63 L223.84 941.98 L224.27 940.36 L224.3 939.43 L223.96 938.79 L223.33 938.36 L218.16 936.3 L216.56 936.41 L215.78 936.71 L213.64 938.01 L212.83 938.38 L211.98 938.61 L211.11 938.72 L210.22 938.7 L206.92 938 L206.05 938.02 L202.63 939 L201.73 939.03 L200.83 938.87 L198.54 937.77 L197.82 937.57 L197.01 937.59 L194.26 938.32 L193.32 938.43 L179.38 937.42 L176.9 938.02 L175.39 937.79 L174.54 936.71 L173.92 935.47 L173.85 935.32 L172.78 934.17 L171.86 933.7 L170.03 934.46 L169.2 935.02 L168.67 935.81 L168.41 937 L168.23 937.55 L167.83 938.08 L167.32 938.46 L166.75 938.71 L166.14 938.76 L165.55 938.57 L164.7 937.75 L164.06 936.78 L163.32 935.95 L162.15 935.59 L160.98 935.91 L160.28 936.75 L160.11 937.85 L160.6 938.99 L161.92 940.29 L162.19 940.83 L162.16 941.46 L161.81 941.95 L161.28 942.3 L159.56 942.95 L150.8 944.34 L149.48 944.39 L145.62 943.77 L143 943.87 L141.73 944.14 L138.29 945.59 L137.15 945.88 L135.95 945.9 L134.94 945.47 L134.38 944.67 L133.91 943.8 L133.15 943.17 L131.91 943.06 L130.73 943.59 L129.72 944.5 L127.74 947.36 L126.95 948.1 L125.98 948.58 L124.78 948.7 L121.27 947.98 L120.03 948.18 L119.06 948.78 L117.26 950.44 L116.13 951.17 L114.93 951.57 L113.68 951.64 L112.4 951.31 L110.47 950.39 L109.78 950.18 L107.14 950.04 L103.45 948.82 L102.14 948.75 L100.13 949.12 L99.45 949.12 L96.6 948.42 L95.45 948.55 L92.21 950 L91.61 950.12 L91.1 950.07 L90.04 949.65 L89.36 949.49 L88.75 949.6 L88.18 949.9 L87.59 950.32 L85.65 950.59 L83.8 950.38 L82.15 949.57 L80.77 948.1 L79.78 946.62 L79.18 945.99 L78.43 945.53 L77.4 945.33 L76.42 945.51 L75.48 945.95 L73.09 947.67 L72.25 948.06 L71.33 948.22 L70.41 948.16 L67.71 947.64 L65.86 948.02 L64.12 949.09 L62.61 950.56 L61.48 952.15 L60.87 953.75 L60.44 957.14 L57.11 971.53 L56.76 972.52 L56.24 973.39 L54.97 974.23 L51.96 974.96 L50.77 975.99 L50.18 977.7 L49.82 983.44 L48.4 986.87 L47.28 990.62 L46.79 991.59 L46.6 1000.83 L45.8 1005.5 L43.95 1008.69 L45.18 994.39 L45.02 986.88 L44.21 969.78 L45.02 964.22 L45.59 962.7 L47.85 958.36 L48.54 954.1 L49.23 952.84 L50.09 950.6 L50.08 941.46 L50.73 937.74 L57.26 920.95 L59 918.09 L60.2 912.32 L61.6 909.51 L65.51 903.92 L72.49 888.68 L72.96 886.59 L74.11 885 L81.75 860.86 L84.2 850.39 L84.81 839.01 L86.22 825.29 L85.32 809.73 L82.53 780.3 L81.62 777.23 L77.42 767.85 L75.49 757.19 L74.08 753.69 L74.82 751.65 L74.68 749.29 L71.5 737.34 L71.03 736.21 L68.7 730.59 L65.12 724.6 L60.3 718.96 L58.77 717.51 L58.44 717.33 L58.15 716.73 L57.47 716.55 L56.67 716.46 L55.98 716.13 L54.6 715.2 L51.41 714.25 L50.08 713.47 L49.48 712.47 L48.12 708.82 L47.85 707.27 L47.02 705.63 L45.44 704.25 L44.51 702.96 L45.62 701.61 L50.36 702.9 L54.93 702.24 L58.89 699.93 L61.82 696.3 L63.76 692.94 L64.22 691.26 L64.95 690.12 L65.12 689.53 L64.87 688.96 L64.33 688.62 L63.79 688.58 L63.55 688.92 L63.13 688.88 L58.59 693.88 L56.26 695.76 L59.6 688.62 L58.45 689.26 L55.14 692.04 L53.98 693.34 L53.42 694.17 L52.93 695.13 L52.77 696.15 L53.17 697.16 L53.2 697.7 L52.5 699.33 L52.31 700.16 L52.1 700.41 L51.62 700.56 L51.07 700.59 L50.64 700.48 L50.25 700.22 L50.2 700.05 L50.23 699.81 L50.08 699.3 L49.95 698.6 L49.98 696.49 L50.08 695.76 L50.85 694.41 L52.98 692.14 L53.42 690.66 L53.73 688.86 L54.52 687.96 L55.6 687.31 L56.82 686.26 L64.61 674.37 L65.1 673.92 L65.65 673.56 L66.1 673.09 L66.28 672.27 L66.38 670.55 L66.63 669.89 L67.15 669.64 L67.31 669.31 L68.74 667.74 L69.12 667.22 L69.14 666.29 L68.94 665.52 L68.54 664.85 L67.96 664.26 L68.6 663.68 L69.01 662.99 L69.18 662.19 L69.12 661.3 L67.83 662.03 L67.4 662.48 L67.16 661.11 L68.33 658.97 L67.96 657.75 L66.45 656.81 L65.42 657.54 L64.82 658.83 L64.61 659.52 L63.27 660.34 L62.68 659.94 L62.63 658.89 L62.94 657.75 L63.39 656.78 L63.89 656.04 L68.69 651.13 L70.04 649.01 L70.74 646.43 L70.38 644.29 L67.91 639.9 L66.89 637.54 L67.53 637.58 L68.12 637.53 L68.65 637.32 L69.12 636.89 L70.93 634.07 L71.62 632.34 L71.9 630.63 L71.69 629.05 L71.14 627.74 L68.81 624.12 L68.31 623.85 L67.15 623.78 L66.37 623.41 L65.99 622.59 L65.75 621.77 L65.42 621.41 L64.12 620.6 L61.82 614.87 L61.07 614.08 L60.36 613.57 L59.81 613.03 L59.6 612.17 L59.83 611.87 L60.29 611.7 L60.62 611.46 L60.46 610.98 L60.23 610.63 L59.7 609.56 L59.36 607.9 L56.28 599.8 L55.48 598.6 L54.28 598.12 L53.61 597.03 L53.51 594.86 L53.15 593.28 L51.75 593.95 L50.08 592.81 L50.08 592.16 L53.77 591.11 L54.85 590.6 L53.17 590.38 L50.29 590.87 L48.97 590.59 L47.85 589.19 L48.46 588.6 L47.3 586.15 L46.75 585.75 L45.02 585.02 L44.45 588.82 L45.09 597.26 L43.95 600.55 L43.13 599.19 L42.06 598.24 L40.01 596.92 L39.33 596.17 L38.29 594.13 L37.52 593.09 L36.5 592.35 L33.94 590.99 L33.32 590.38 L33.26 589.38 L33.65 588.97 L34.16 588.82 L34.44 588.6 L34.41 587.85 L33.94 587.13 L33.83 586.49 L33.45 585.18 L32.52 584.13 L30.26 582.31 L29.95 581.65 L29.98 580.03 L29.68 579.34 L28.31 577.82 L27.39 573.71 L26.89 572.73 L26.03 571.66 L25.47 570.37 L25.13 569 L24.97 567.68 L24.61 568.1 L24.1 568.53 L23.86 568.88 L22.67 567.7 L22.2 566.38 L21.99 564.95 L21.58 563.46 L21.06 562.83 L20.31 562.22 L19.64 561.4 L19.35 560.15 L18.91 559.3 L16.96 556.59 L16.51 555.37 L16.35 554.14 L15.94 552.74 L14.9 550.27 L13.34 548.32 L12.23 548.99 L10.11 552.98 L6.62 557.78 L5.8 558.48 L5.33 559.51 L5.94 561.07 L6.85 560.62 L6.95 562.11 L6.44 565.3 L6.26 568.14 L5.94 568.88 L5.15 569.4 L3.26 569.98 L2.59 570.66 L2.53 571.43 L2.91 572.09 L3.7 573 L4.29 574.39 L4.35 574.96 L4.26 576.03 L3.49 579.72 L2.79 581.63 L1.98 582.58 L0 573.17 L0.31 570.57 L2.22 562.63 L2.76 559.84 L6.22 549.83 L7.79 541.44 L9.2 533.84 L9.98 533.12 L19.44 533.12 L22.82 533.12 L32.35 533.11 L47.15 533.11 L66.35 533.11 L89.09 533.11 L114.45 533.1 L141.57 533.1 L169.58 533.09 L197.58 533.09 L224.7 533.09 L227.22 533.09 L250.06 533.08 L272.79 533.08 L292 533.07 L306.81 533.07 L316.33 533.07 L319.71 533.07 L331.65 533.07 L330.76 518.88 L330.28 511.29 L327.98 474.97 L326.63 452.95 L325.28 430.9 L324.22 425.18 L320.26 413.82 L319.4 408.17 L320.47 402.21 L323.12 396.59 L330.1 386.7 L331.65 384.68 L339.82 379 L350.03 371.92 L358.82 365.81 L363.94 362.25 L368.92 360.52 L382.66 358.55 L385.6 357.66 L403.49 349.06 L411.8 346.78 L412.89 345.35 L413.22 342.31 L413.22 335.13 L413.22 328.4 L413.22 321.67 L413.22 314.93 L413.22 308.19 L413.22 301.44 L413.22 294.69 L413.22 287.94 L413.22 281.18 L413.22 274.42 L413.22 267.65 L413.22 260.88 L413.22 254.11 L413.22 247.34 L413.22 240.55 L413.22 233.77 L413.22 226.98 L413.22 220.19 L413.22 213.39 L413.22 206.58 L413.22 199.78 L413.22 192.97 L413.22 186.16 L413.22 179.33 L413.22 172.51 L413.22 165.69 L413.22 158.85 L413.22 152.02 L413.22 145.18 L413.22 138.34 L413.22 131.49 L413.22 124.64 L413.22 117.77 L421.43 117.77 L429.65 117.77 L437.86 117.77 L446.08 117.77 L454.29 117.77 L462.51 117.77 L470.73 117.77 L478.95 117.77 L487.16 117.77 L495.38 117.77 L503.6 117.77 L511.81 117.77 L520.03 117.77 L528.24 117.77 L536.46 117.77 L544.68 117.77 L552.89 117.77 L561.1 117.77 L569.32 117.77 L577.54 117.77 L585.76 117.77 L593.97 117.77 L602.18 117.77 L610.4 117.77 L618.62 117.77 L626.84 117.77 L635.05 117.77 L643.27 117.77 L651.49 117.77 L659.7 117.77 L667.91 117.77 L676.14 117.76 L683.06 117.76 L684.65 117.31 L685.21 116.12 L685.21 112.01 L685.21 110.75 L685.21 107.22 L685.2 101.72 L685.19 94.58 L685.18 86.14 L685.17 76.7 L685.16 66.6 L685.15 56.15 L685.14 45.71 L685.13 35.57 L685.12 26.09 L685.11 17.58 L685.09 10.39 L685.09 4.84 L685.09 1.26 Z M57.37 665.5 L58.96 662.06 L59.97 660.74 L60.72 661.84 L58.25 673.51 L56.19 678.94 L52.91 683.89 L51.51 682.02 L51.24 681.47 L51.26 680.77 L51.46 679.97 L51.47 679.11 L50.94 678.22 L50.34 676.67 L50.9 675.05 L53.25 671.47 L53.42 671.09 L53.33 668.58 L53.42 667.81 L54.08 666.18 L55.12 664.84 L56.3 664.41 Z M62.01 672.87 L62.94 672.67 L63.59 673.38 L62.63 674.93 L61.29 676.21 L60.28 677.38 L58.93 679.85 L56.01 684 L55.75 684 L56.16 682.51 L58.94 677.29 Z M49.27 672.61 L49.89 672.74 L49.94 673.63 L49.73 675.37 L49.21 676.59 L48.69 677.27 L48.07 676.72 L47.66 674.86 L48.13 673.16 Z M50.73 595.86 L51.43 596.04 L51.78 596.5 L51.64 599.36 L51.14 599.65 L50.08 599.21 L49.51 597.64 L49.93 596.35 Z "/>
</g>
</svg>
