<svg xmlns="http://www.w3.org/2000/svg" viewBox="0 0 1000 356.45">
<g fill="#ccc" stroke="#333" stroke-width="0.5" stroke-linejoin="round">
<path fill-rule="evenodd" d="M999.18 179.11 L999.36 179.32 L999.63 179.4 L999.89 179.51 L1000 179.81 L999.86 180.32 L999.17 181.56 L998.91 181.85 L998.36 181.97 L997.87 181.85 L997.39 181.65 L996.84 181.55 L995.97 181.56 L995.39 181.48 L994.78 181.28 L994.62 180.59 L995.1 179.91 L996.99 178.27 L997.77 177.75 L998.56 177.55 L999.18 177.99 L999.23 178.24 L999.17 178.84 Z M809.64 114.81 L809.86 115.21 L810.19 115.36 L810.6 115.31 L811.01 115.09 L811.54 117.19 L811.55 117.59 L811.24 117.69 L810.36 117.62 L810.18 117.72 L810.26 118.15 L810.63 118.9 L810.71 119.38 L810.56 120.03 L810.19 120.4 L809.71 120.58 L807.78 120.85 L807.02 120.8 L806.61 120.35 L805.74 120.64 L805.21 120.28 L804.83 119.67 L804.42 119.24 L804.59 118.72 L804.64 118.2 L804.52 117.72 L804.13 117.32 L804.24 117.16 L804.42 116.74 L803.32 116.67 L803.03 116.05 L803.3 114.68 L803.68 114.29 L804.45 114.27 L805.13 114.09 L805.24 113.16 L806.07 113.52 L806.33 113.71 L806.73 113.49 L807.02 113.51 L807.3 113.64 L807.7 113.71 L808.7 113.67 L809.07 113.71 L809.1 113.8 L809.76 114.24 L809.89 114.26 L810.15 114.62 L810.04 114.7 Z M541.37 96.84 L542.72 96.51 L543.28 96.69 L543.83 97.41 L543.85 98.02 L543.6 98.75 L543.19 99.09 L542.73 98.49 L542.46 98.49 L542.12 98.75 L541.66 98.73 L541.13 98.58 L540.55 98.49 L540.67 98.34 L540.79 98.28 L541.09 98.24 L541.46 98.05 L542.52 97.83 L542.73 97.55 L542.56 97.15 L541.7 97.27 Z M552.9 93.8 L553.18 93.61 L553.52 93.65 L553.96 93.77 L554.54 93.8 L554.13 94.28 L553.45 94.75 L552.71 95.09 L552.08 95.18 L552.05 94.68 L552.1 94.27 L552.35 93.53 L552.53 93.56 L552.64 93.61 Z M5.15 8.11 L4.72 8.8 L4.82 9.39 L5.35 9.61 L6.21 9.22 L6.02 9.68 L5.55 10.33 L5 10.91 L4.57 11.18 L4.01 10.99 L3.71 10.14 L3.2 10.32 L2.83 10.71 L0.64 14.21 L0.17 14.76 L0 13.78 L0.37 12.39 L1.01 11.14 L1.69 10.6 L1.97 10.32 L2.3 8.96 L2.5 8.51 L3.09 8.17 L3.34 8.45 L3.45 9.52 L3.52 9.12 L3.65 8.72 L3.82 8.37 L4.03 8.11 L4.38 7.85 L4.85 7.58 L5.2 7.58 Z M670.23 356.07 L670.48 356.15 L670.62 356.29 L670.42 356.45 L669.98 356.45 L669.85 356.2 L670.03 356.1 Z M666.5 354.55 L666.79 354.41 L667.22 354.5 L666.98 354.75 L666.51 354.72 Z M669.64 354.29 L669.77 354.54 L669.6 354.66 L669.26 354.63 L669.04 354.42 L669.05 354.23 L669.28 354.16 Z M673.08 242.92 L672.98 242.27 L673.59 241.84 L673.68 242.48 Z M669.48 241.32 L669.58 241.93 L668.86 242.34 L668.76 241.73 Z M624.59 181.32 L624.75 180.85 L625.29 180.37 L625.91 180.07 L626.31 180.17 L626.19 180.54 L625.64 180.9 L625.01 181.18 Z M764.45 161.7 L764.4 161.61 L764.33 161.54 L764.31 161.48 L764.41 161.46 L764.53 161.5 L764.53 161.56 L764.47 161.62 Z M450.39 124.53 L450.4 124.25 L450.43 124.01 L450.51 123.8 L450.7 123.62 L450.79 123.9 L450.75 124.12 L450.6 124.32 Z M795.45 123.71 L795.57 123.3 L795.68 123.18 L795.95 123.13 L795.93 123.37 L795.83 123.5 Z M552.1 99.54 L551.96 98.04 L552.01 97.38 L552.33 97.72 L552.45 98.17 L552.44 98.65 L552.3 99.12 Z M445.18 97.32 L444.99 96.93 L445.25 96.92 L445.28 96.99 L445.22 97.14 Z M494.09 48.66 L493.97 48.23 L494.16 48.29 L494.18 48.38 L494.13 48.51 Z M464.52 48.69 L464.38 48.17 L464.48 47.5 L464.79 47 L465.26 47.02 L465.32 47.37 L465.09 47.9 L464.75 48.41 Z M482.51 32.43 L482.75 32.05 L482.88 31.97 L483.1 32.03 L483 32.24 L482.87 32.31 L482.69 32.35 Z M98.08 0.32 L98.38 0.03 L98.77 0 L98.83 0.15 L98.5 0.45 L98.13 0.59 Z "/>
</g>
</svg>
