<svg xmlns="http://www.w3.org/2000/svg" viewBox="0 0 1000 1261.91">
<g fill="#ccc" stroke="#333" stroke-width="0.5" stroke-linejoin="round">
<path fill-rule="evenodd" d="M0 97.28 L0.21 93.77 L2.06 87.05 L5.18 81.92 L14.57 75.97 L15.97 70.45 L17.62 66.82 L23.21 68.99 L27.06 73.36 L30.09 78.63 L33.59 83.23 L38.9 85.66 L44.53 85.22 L47.77 82.26 L49 76.72 L48.8 68.63 L47.3 60.4 L45.62 55.25 L45.43 51.41 L48.43 47.21 L50 47.08 L54.7 48.96 L56.65 49.03 L59.12 46.44 L59.92 43.28 L60.92 40.61 L64.01 39.59 L73.45 43.77 L82.77 51.81 L92.6 57.79 L103.36 55.9 L106.07 53.03 L108.13 53.39 L110.07 54.58 L113.19 54.31 L116.63 55.02 L118.16 53.96 L117.8 51.81 L116.86 49.43 L116.66 47.72 L116.78 44.89 L115.98 41.26 L116.25 38.15 L119.39 37.05 L122.42 37.91 L128.33 41.68 L158.78 53.28 L168.1 53.79 L178.9 48.16 L180.45 46.21 L195.84 26.77 L206.14 21.42 L211.61 22.84 L219.7 30.48 L223.58 31.98 L228.34 29.56 L245.61 14.86 L252.14 5.87 L263.91 5.87 L267.29 5.01 L274.67 0 L280.88 0.82 L281.47 12.11 L287.2 14.93 L322.7 14.62 L332.24 19.09 L350.62 32.78 L354.88 37.38 L360.73 46.15 L363.94 50.98 L366.18 52.99 L372.42 62.86 L383.98 67.37 L394.25 68.66 L409.27 70.54 L415.1 73.35 L419.77 78.85 L421.33 86.53 L415.74 103.29 L419.89 106.48 L426.24 106.78 L430.66 105.57 L439.48 98.04 L444.16 97.33 L446.22 104.37 L447.25 112.63 L450.25 117.46 L455.1 119 L461.75 117.51 L467.84 113.95 L472.34 110.04 L477.16 106.89 L490.28 105.34 L495.16 105.98 L498.13 109.4 L498.66 117.51 L496.76 126.31 L493.6 130.22 L489.51 132.94 L485.04 138.18 L483.16 144.12 L483.69 150.06 L486.87 153.62 L492.84 152.46 L497.22 147.44 L500.24 140.98 L503.96 135.89 L510.49 134.98 L514.96 138.11 L517.69 143.88 L517.34 150.35 L512.6 155.66 L520.69 172.48 L524.09 176.02 L529.84 180.08 L532.81 179.83 L533.87 175.86 L533.99 168.61 L535.59 161.33 L535.96 159.67 L541.15 144.19 L547.49 141.28 L556.61 141.7 L582.79 152.63 L602.55 152.9 L612.85 154.71 L620.82 160.11 L622.72 163.51 L623.41 166.59 L623.64 169.49 L624.32 172.42 L628.88 183.44 L629.79 194.57 L630.29 197.15 L632.2 199.93 L636.88 204.34 L638.7 207.49 L644.53 217.59 L653.7 227.63 L659.76 232.29 L663.82 235.42 L672.5 239 L682.85 237 L695.33 220.57 L704.34 216.14 L709.27 216.36 L713.24 217.92 L716.74 221.24 L720.06 226.68 L722.3 233.27 L724.8 247.82 L727.06 254.02 L731.06 257.14 L742.27 260.56 L745.12 262.62 L744.2 268.41 L739.83 274.43 L734.56 280.11 L731.09 284.89 L728.53 292.31 L728.56 296.96 L731.3 299.72 L741.12 303.28 L744.76 306.67 L745.86 311.24 L742.46 316.65 L734.01 327.53 L732.45 340.75 L732.71 355.68 L729.77 371.6 L722.4 384.45 L715.09 394.22 L711.37 405.31 L715.06 422.22 L715.09 422.26 L715.12 422.28 L715.14 422.32 L717 426.09 L717.8 427.71 L722.24 440.4 L724.59 444.87 L729.77 448.87 L732.71 446.37 L735.4 441.84 L740.09 439.73 L744.15 441.95 L749.3 450.77 L758.04 456.61 L759.98 461.11 L761.26 466.12 L763.57 470.6 L767.51 472.91 L771.98 473.84 L776.38 475.79 L780.1 481.31 L781.57 487.96 L781.69 494.03 L782.57 499.99 L783.51 501.58 L786.33 506.39 L790.22 509.86 L794.51 511.94 L799.07 512.4 L803.66 510.94 L808.63 506.17 L810.6 500.32 L811.9 493.9 L814.81 487.38 L820.56 486.72 L826.22 487.1 L831.6 489.08 L836.35 493.35 L840.19 500.6 L842.81 510.32 L843.07 520.04 L839.81 527.29 L832.78 531.02 L831.75 540.12 L834.66 562.05 L833.01 572.34 L828.9 577.31 L822.72 579.11 L814.81 579.91 L814.16 581.1 L813.95 582.39 L814.19 583.68 L814.81 585.03 L823.51 601.42 L825.98 603.97 L829.07 601.42 L831.56 596.05 L834.87 591.32 L840.22 590.8 L843.99 593.4 L847.25 597.84 L849.31 603.52 L849.57 609.88 L847.41 615.57 L843.99 619.48 L840.88 624.08 L838.75 639.63 L837.51 645.15 L837.28 646.16 L836.96 651.62 L839.46 656.24 L841.07 656.63 L848.28 655.94 L850.87 657.34 L855.34 662.54 L857.78 664.68 L862.4 666.34 L871.72 667.11 L876.08 668.73 L880.72 673.41 L887.37 684.34 L892.58 688.16 L901.58 689.56 L909.96 688.74 L918.05 689.77 L926.18 696.61 L927.52 699.49 L929.79 707.02 L931.14 709.31 L933.67 709.53 L936.29 707.74 L939.05 706.49 L942.11 708.24 L942.82 711.01 L942.76 719.93 L943.14 723.75 L944.25 726.78 L947.38 732.76 L948.64 735.93 L949.07 743.58 L946.73 769.4 L945.55 774.24 L944.17 777.95 L943.17 781.88 L942.99 787.35 L944.04 791.63 L947.58 800.12 L948.23 804.04 L944.94 812.95 L938.67 814.18 L933.76 814.7 L934.64 823.92 L938.67 828.89 L951.23 834.21 L951.76 835.25 L953.17 839.21 L954.17 840.09 L956.03 839.49 L959.5 837.22 L961.11 837.28 L963.36 839.06 L965.23 841.61 L968.73 848.8 L966.56 852.37 L979.63 862.79 L984.47 868.56 L987.29 866.06 L991.59 865.29 L996.21 866.14 L1000 868.56 L993.06 881.32 L985.65 888.63 L973.16 890.8 L939.41 888.85 L934.82 889.87 L929.73 892.75 L919.23 902.13 L913.64 902.98 L907.96 896.67 L907.39 893.84 L907.55 885.87 L907.08 882.11 L905.73 878.66 L899.81 869.27 L884.84 854.94 L881.2 848.59 L881.11 860.2 L877.99 866.29 L872.25 868.52 L864.19 868.61 L862.37 871.21 L863.78 881.32 L861.66 888.05 L857.84 891.98 L853.16 893.73 L848.31 893.22 L843.87 890.5 L840.02 885.29 L836.09 876.25 L832.04 872.6 L828.07 871.11 L819.13 869.39 L814.81 867.6 L813.16 864.66 L812.66 861.55 L813.22 858.35 L814.81 855.06 L816.34 852.18 L816.9 849.34 L816.4 846.65 L814.81 844.09 L808.19 842.99 L807.94 843.14 L802.28 846.31 L796.98 852.18 L784.6 871.3 L781.01 871.41 L775.92 863.87 L769.24 849.59 L765.24 848.25 L760.24 856.66 L759.33 861.68 L760.68 870.03 L760.51 873.75 L758.57 879.04 L757.13 879.68 L755.18 879.04 L751.71 880.31 L741.39 891.81 L735.06 895.67 L730.24 891.52 L730.15 887.22 L732.12 883.26 L734.67 879.43 L736.48 875.46 L737.04 870.6 L736.8 835.63 L734.93 826.76 L730.39 820.94 L730.05 820.94 L724.27 820.92 L699.28 835.15 L693.87 837.19 L683.74 841.01 L662.53 855.36 L656.73 864.45 L654.97 876.06 L657.26 891.17 L662.26 910.67 L662.53 917.16 L660.85 924.57 L658.85 930.48 L659.03 936.1 L663.9 942.63 L663.94 942.65 L673.43 951.64 L680.75 958.57 L682.32 967.52 L678.94 977.25 L672.5 988.26 L662.71 999.36 L660.53 1005.85 L661.21 1015.94 L666.26 1033.85 L665.68 1041.89 L658.59 1045.26 L608.97 1058.36 L604.02 1061.62 L600.88 1067.58 L600.66 1074.41 L604.61 1088.57 L605.79 1095.42 L605.39 1103.63 L603.47 1108.91 L599.85 1112.5 L594.39 1115.62 L586.11 1117.48 L583.96 1119.34 L583.86 1121.68 L584.58 1125.37 L584.96 1129.61 L583.96 1133.51 L576.52 1137.92 L557.48 1139.79 L552.9 1147.42 L553.73 1150.57 L554.9 1155.01 L553.14 1158.27 L544.9 1160.93 L539.99 1164.21 L536.84 1167.6 L530.22 1177.48 L528.25 1182.17 L530.78 1185.09 L535.22 1187.72 L538.87 1191.49 L540.46 1197.21 L540.99 1202.89 L542.22 1208.5 L546.15 1213.96 L538.62 1217.53 L536.96 1219.07 L536.72 1219.53 L535.15 1222.53 L535.08 1223.46 L535.66 1224.21 L537.49 1238.03 L536.22 1242.84 L530.22 1245.59 L511.99 1244.85 L490.66 1239.23 L470.34 1237.65 L470.31 1237.67 L455.19 1249.09 L455.16 1249.15 L452.69 1253.94 L450.72 1259.03 L450.13 1261.91 L442.57 1252.74 L440.57 1248.59 L440.42 1234.9 L440.04 1233.96 L439.33 1233.1 L438.24 1230.58 L433.46 1221.93 L426.93 1216.84 L411.04 1208.35 L414.62 1203.77 L419.3 1199.25 L424.01 1195.82 L427.74 1194.48 L437.1 1194.56 L441.16 1192.54 L439.39 1187.26 L439.95 1180.72 L437.45 1139.84 L435.04 1136.02 L430.04 1126.28 L425.6 1113.89 L424.8 1102.07 L426.07 1099.85 L429.83 1097.13 L430.66 1095.1 L430.1 1093.56 L427.57 1088.36 L426.77 1085.34 L427.16 1082.1 L428.3 1078.98 L428.92 1075.87 L427.74 1072.63 L426.04 1069.8 L425.33 1067.35 L424.8 1062.76 L417.86 1042.23 L416.89 1036.43 L417.39 1032.38 L420.92 1018 L420.83 1015.79 L419.1 1014.58 L419.01 1012.38 L419.77 1010.32 L422.04 1008.84 L424.04 1003.05 L424.8 1000.84 L429.6 986.95 L431.27 976.82 L434.54 967.26 L433.63 963.67 L431.95 960.85 L430.16 958.45 L424.93 949.84 L424.36 946.33 L427.74 944.8 L430.95 943.95 L431.63 941.72 L430.66 934.7 L431.83 931.85 L434.6 930.36 L437.83 929.36 L440.52 927.93 L443.95 924.55 L447.8 916.01 L448.25 914.59 L447.98 909.53 L446.83 901.17 L447.52 898.16 L450.95 896.99 L452.3 895.24 L453.95 882.65 L455.83 880.73 L457.9 879.82 L458.42 879.59 L459.75 877.25 L457.69 871.64 L461.72 869.61 L463.38 866.48 L463.72 863.04 L463.69 850.23 L463.31 846.8 L462.32 846.38 L461.11 846.76 L459.98 845.74 L456.28 838.42 L455.69 835.13 L456.28 819.64 L457.32 816.51 L459.98 814.7 L457.51 807.89 L458.95 801.96 L461.81 796.79 L463.69 792.33 L463.75 786.66 L463.1 782.26 L462.86 780.63 L459.98 769.42 L444.04 737.29 L444.05 729.48 L432.57 709.7 L427.93 698.03 L428.25 694.71 L428.71 689.75 L428.71 686.65 L425.54 682.58 L425.89 677.6 L425.67 672.86 L420.92 669.59 L423.36 663.31 L423.23 662.27 L422.46 656.05 L416.89 640.87 L413.01 633.79 L404.21 622.53 L403.89 622.12 L401.33 615.23 L395.71 618.01 L389.53 615.12 L382.86 610.88 L375.92 609.52 L375.83 603.49 L372.27 600.28 L364.21 594.99 L355.5 585.28 L352.85 583.32 L350.15 582.45 L348.88 581.2 L350.62 578.13 L350.62 575.29 L338.29 568.56 L334.91 563.86 L338.1 562.86 L338.62 561.09 L337.79 558.56 L337.03 555.28 L336.53 555.02 L333.1 543.58 L325.91 534.34 L322.88 529.06 L323.23 523.82 L317.44 513.67 L314.47 510.44 L307.35 508.69 L305.09 507.27 L302.94 505.44 L299.92 503.51 L292.23 501.77 L290.03 500.64 L286.35 494.45 L279.5 477.94 L276.3 475.14 L275.64 474.57 L271.64 471.86 L273.91 458.92 L268.85 454.48 L269.7 449.55 L270.79 445.22 L272.33 441.98 L274.67 440.12 L272.64 436.02 L269.02 432.68 L264.76 430.19 L260.88 428.62 L260.43 428.86 L253.11 428.62 L251.46 427.8 L250.35 426.75 L248.93 425.86 L246.4 425.49 L243.4 422.81 L241.58 416.67 L239.52 405.35 L238.79 405.07 L235.7 404.65 L234.58 403.91 L233.99 402.06 L234.05 398.24 L233.68 396.71 L232.79 394.09 L231.51 388.73 L230.96 386.41 L230.67 385.19 L221.75 381.79 L213.81 373.68 L195.28 349.08 L188.75 337.89 L186.16 328.61 L192.72 327.25 L192.72 324.61 L191.16 321.53 L191.61 317 L190.75 313.5 L190.58 312.8 L189.13 311.37 L184.08 307.62 L182.99 305.71 L181.66 302.12 L178.44 295.75 L174.52 289.61 L171.13 286.77 L180.87 280.7 L178.71 277.1 L175.6 275.57 L172.16 274.53 L169.19 272.29 L169.43 269.66 L168.96 256.56 L169.19 254.65 L164.01 248.48 L157.57 244.84 L154.48 240.97 L159.48 234.09 L159.48 232.32 L159.48 231.46 L157.69 230.48 L151.72 225.65 L155.1 222.59 L157.07 218.85 L156.78 214.91 L153.48 211.13 L149.66 213.3 L147.06 207.51 L143.32 202.09 L136.01 205.33 L135.32 204.12 L134.78 202.67 L134.36 201.06 L134.07 199.28 L139.87 196.61 L139.87 193.45 L132.42 189.13 L125.6 183 L120.63 174.82 L118.51 164.38 L119.25 162 L122.25 158.1 L122.4 156.01 L122.42 155.66 L120.92 153.5 L118.33 151.33 L115.89 150.19 L112.36 153.14 L107.04 151.32 L99.24 146.64 L99.24 143.99 L104.83 143.64 L108.07 140.43 L108.07 136.75 L98.24 132.99 L96.13 128.45 L94.68 123.53 L91.14 120.42 L88.57 122.88 L85.33 127.61 L82.57 129.08 L81.42 121.86 L79.62 118.65 L67.62 106.32 L64.56 108.25 L58.06 100.03 L53.23 97.58 L41.5 99.94 L35.9 98.73 L32.8 92.25 L29.74 96.94 L26.63 96.28 L20.1 90.5 L13.62 90.77 Z "/>
</g>
</svg>
