<svg xmlns="http://www.w3.org/2000/svg" viewBox="0 0 1000 481.5">
<g fill="#ccc" stroke="#333" stroke-width="0.5" stroke-linejoin="round">
<path fill-rule="evenodd" d="M899.83 113.89 L893.26 128.62 L892.78 129.76 L886.26 144.61 L879.73 159.37 L879.6 160.21 L880.04 161.84 L880.05 162.69 L879.43 164.21 L872.35 175.37 L872.07 176.14 L871.92 177.12 L871.92 178.06 L872.63 187.37 L872.34 188.85 L871.43 189.7 L864.15 193.19 L863.46 194.01 L863.47 194.45 L864.44 200.46 L864.94 203.23 L865.37 204.32 L866.12 205.36 L873.98 213.77 L875.9 214.77 L877.71 213.61 L881.18 209.09 L884.2 207.11 L886.14 206.49 L891.89 207.78 L894.09 207.72 L901.92 205.97 L904.11 205.87 L905.08 206.07 L908.79 207.66 L911.11 208.51 L911.81 208.94 L919.5 216.15 L920.85 216.3 L922.07 214.69 L923.21 212.62 L924.34 211.38 L926.03 210.03 L932.69 201.17 L933.48 200.45 L934.98 199.91 L939.88 200.23 L940.63 200.13 L942.71 199.22 L944.53 198.85 L946.39 198.82 L947.13 199.05 L948.63 200 L949.43 200.22 L955.42 200.62 L957.58 201.7 L959.54 204.09 L962.89 209.7 L964.58 211.43 L970.96 214.25 L973.66 215.25 L974.4 215.8 L974.82 216.49 L975.05 217.36 L975.43 220.67 L975.6 221.46 L975.97 221.98 L976.7 222.44 L979.61 223.57 L980.85 223.97 L981.45 224.35 L981.68 224.99 L981.52 225.44 L980.78 226.51 L980.57 227.16 L981.77 227.52 L986.6 232.01 L987.06 232.56 L987.47 233.39 L987.75 234.14 L988.13 234.69 L990.06 235.26 L991.37 236.28 L993.56 238.86 L994.46 240.27 L995.24 241.84 L995.45 242.74 L995.48 245.44 L995.58 245.97 L995.66 246.23 L995.74 246.46 L996.19 247.13 L997.21 248.2 L997.66 248.78 L997.82 249.17 L997.91 249.53 L998.03 249.87 L998.3 250.21 L998.63 250.29 L999.14 250.33 L999.56 250.45 L999.67 250.76 L999.48 251.23 L999.31 251.57 L999.2 251.93 L999.2 252.49 L999.26 252.72 L999.37 252.91 L999.52 253.04 L999.68 253.13 L999.87 253.32 L999.85 253.55 L999.75 253.82 L999.72 254.14 L999.74 255.15 L999.34 256.6 L999.26 257.38 L999.38 257.77 L999.89 258.58 L1000 258.95 L999.91 259.37 L999.72 259.7 L999.48 260.02 L998.93 260.99 L998.36 261.61 L997.74 262 L997.21 261.97 L996.56 261.64 L996.12 261.79 L995.74 262.34 L995.26 263.2 L994.82 263.71 L994.18 264.18 L993.5 264.54 L992.95 264.69 L992.28 264.48 L991.19 263.57 L990.52 263.42 L989.71 263.44 L987.39 263.04 L985.89 263.06 L983.1 263.72 L981.66 263.78 L973.75 261.55 L972.95 261.2 L972.24 260.54 L971.34 258.67 L970.79 257.95 L970.16 258.1 L969.38 259.08 L968.92 259.35 L968.4 259.17 L968.07 258.54 L967.93 257.79 L967.69 257.13 L967.04 256.81 L966.09 257.14 L965.35 258.07 L964.15 260.18 L963.11 260.83 L962 260.53 L960.85 259.88 L959.66 259.52 L959.22 259.64 L958.37 260.24 L957.88 260.42 L955.42 260.43 L954.25 260.18 L952.26 259.15 L951.15 258.77 L950.07 258.65 L949.08 258.74 L948.13 259.08 L947.13 259.74 L945.98 260.75 L945.56 260.93 L943.89 261 L943.33 261.22 L940.89 263.09 L939.88 263.25 L938.35 263.62 L937.63 263.96 L936.94 264.47 L936.35 265.2 L935.52 266.89 L935.04 267.59 L934.43 267.91 L931.28 268.27 L930.57 268.1 L929.07 267.22 L928.52 266.54 L927.73 264.67 L927.3 264.15 L926.93 264.24 L925.49 265.28 L925.24 265.34 L924.93 265.25 L924.34 265 L921.88 265.6 L922.39 267.03 L922.46 267.71 L922.24 268.34 L921.12 269.92 L920.75 271.16 L920.61 274.26 L920.13 275.26 L919.02 275.59 L908.33 274.85 L904.41 273.95 L903.88 273.94 L903.56 274.11 L902.95 274.88 L901 276.55 L900.54 276.75 L898.61 277.01 L897.32 277.42 L896.64 277.93 L896.22 278.25 L895.6 279.67 L895.33 280.49 L894.88 281.13 L889.66 286.57 L885.18 295.41 L884.99 296.63 L885.42 298.02 L886.08 299.04 L886.38 300.09 L885.72 301.58 L883.84 304.29 L883.03 304.93 L881.5 305.73 L881 305.87 L880.52 305.88 L878.93 305.64 L878.62 305.78 L878.02 306.49 L871.32 312.24 L868.99 314.95 L868.22 315.6 L867.3 316.04 L862.17 317.44 L857.96 318.24 L851.4 318.25 L845.57 319.17 L844.53 318.99 L839.31 316.9 L838.25 316.8 L837.19 317 L832.98 318.65 L832.67 318.88 L832.53 319.29 L832.29 321.3 L832 322.29 L831.09 324.23 L829.41 326.78 L822.97 332.92 L821.47 333.89 L821.03 334.33 L820.72 334.81 L820.13 335.95 L819.16 337.33 L818.11 338.26 L816.92 338.85 L815.55 339.2 L813.71 339.37 L812.95 339.68 L811.34 341.45 L808.17 343.73 L806.21 345.82 L805.04 346.78 L804.1 347.07 L801.85 346.82 L801.38 346.64 L800.5 345.91 L800.01 345.71 L788.56 344.67 L785.83 343.5 L784.47 343.5 L777.49 341.57 L773.31 339.66 L772.44 339 L771.77 338.12 L770.51 335.95 L767.94 333.35 L767.05 332.75 L766.02 332.54 L757.57 332.69 L754.58 331.8 L753.74 331.82 L753.39 331.82 L752.92 331.93 L752.6 332.23 L752.31 332.62 L751.94 332.97 L751.31 333.27 L749.97 333.62 L749.35 333.91 L747.58 335.28 L746.78 336.12 L746.09 337.13 L740.28 349.1 L739.95 350.19 L739.93 350.89 L740.06 352.38 L740.04 353.12 L739.87 353.9 L739.62 354.46 L738.96 355.51 L738.17 357.26 L737.85 357.74 L737.77 357.83 L737.03 358.59 L736.32 359.8 L735.77 361.17 L735.48 362.44 L735.46 364.21 L735.9 365.1 L737.85 366.29 L738.39 366.99 L738.62 367.78 L738.79 369.46 L739.28 371.07 L740.04 372.45 L742.86 376.38 L743.91 377.45 L747.4 379.83 L748.36 380.78 L749.21 381.88 L752.06 386.99 L752.49 388.45 L752.6 389.71 L752.52 391.14 L752.15 392.31 L751.44 392.81 L750.9 392.91 L749.43 393.59 L747.15 393.48 L746.57 393.75 L741.7 399.75 L740.78 400.64 L739.77 401.15 L736.46 401.44 L735.61 401.8 L733.66 403.4 L726.12 406.46 L722.31 408.64 L721.08 409.83 L716.83 415.75 L713.19 419.64 L712.75 420.5 L711.98 422.61 L710.96 424.44 L709.67 425.89 L706.77 428.25 L706.02 428.99 L705.26 431.2 L704.7 431.9 L696.4 435.54 L695.34 436.22 L694.95 436.59 L694.67 436.92 L694.38 437.19 L693.92 437.41 L693.38 437.51 L691.66 437.49 L689.34 437.82 L681.71 441.19 L677.08 444.63 L676.83 444.74 L676.66 444.73 L676.51 444.8 L676.32 445.14 L676.2 445.31 L676.05 445.39 L671.18 445.76 L669.68 446.27 L668.85 446.37 L660.8 445.38 L659.77 445.46 L656.7 447.09 L655.64 447.46 L654.66 447.53 L646.56 445.99 L639.83 446.09 L637.18 445.36 L635.4 445.18 L631.43 445.82 L618.15 447.96 L604.87 450.1 L591.59 452.23 L577.61 458.38 L563.64 464.52 L551.37 470.92 L549.15 472.12 L547.77 473.19 L547.35 473.39 L546.77 473.57 L545.17 474.46 L543.42 474.75 L542.88 474.96 L537.1 481.09 L535.82 481.5 L534.63 479.99 L533.95 479.33 L533.29 479.07 L524.24 479.04 L521.25 478.58 L521.03 478.19 L521.12 469.66 L509 472.06 L496.88 474.45 L495.96 474.3 L486.84 469.41 L477.73 464.52 L477.71 464.51 L476.75 464.06 L465.98 461.55 L455.22 459.03 L444.45 456.52 L442.58 455.54 L439.86 452.59 L435.16 444.89 L432.12 442.6 L428.62 441.67 L425.07 441.36 L419.1 441.99 L406.65 439.93 L394.2 437.87 L381.75 435.8 L380.33 435.81 L369.47 439.14 L364.88 440.54 L352.26 438.87 L339.64 437.19 L327.01 435.51 L314.39 433.83 L304.18 432.47 L293.97 431.11 L293.89 431.12 L282.77 432.28 L271.64 433.45 L268.67 433.94 L268.27 433.84 L268 433.77 L267.78 433.08 L267.37 427.76 L267.16 426.77 L266.79 425.91 L266.03 424.92 L254.04 412.95 L252.98 411.56 L252.38 409.97 L252.08 408.17 L251.95 406.21 L251.69 404.65 L247.33 395.15 L244.12 384.87 L242.44 381.06 L241.66 380.14 L240.56 379.81 L238.94 379.72 L235.98 378.95 L235.71 378.49 L235.71 377.47 L236 374.99 L235.79 372.81 L235.83 372.39 L235.97 371.95 L236.39 371.12 L236.6 369.93 L236.98 369.2 L237.9 367.94 L238.16 367.08 L237.59 366.8 L226.94 368.19 L225.61 368 L222.87 366.49 L217.12 364.68 L216.42 364.35 L215.98 363.78 L215.62 363.03 L215.14 362.38 L213 360.32 L209.02 357.83 L208.09 357.34 L206.1 357.35 L205.24 357.01 L204.72 356.31 L203.9 354.42 L203.34 353.63 L200.78 350.8 L200.37 350.52 L199.86 350.3 L199.35 350.24 L197.94 350.92 L196.54 350.93 L193.94 350.56 L192.46 349.99 L190.82 348.18 L185.83 341.16 L185.03 340.44 L179.96 337.79 L176.71 337.63 L176.06 337.38 L174.87 336.6 L174.23 336.32 L173.49 336.27 L171.99 336.53 L171.22 336.46 L168.78 335.32 L167.96 335.22 L165.99 335.42 L165.26 335.5 L164.66 335.32 L164.06 335.24 L163.46 335.28 L162.85 335.45 L161.93 335.4 L161.03 335.01 L159.31 333.99 L158.9 333.93 L157.86 334.16 L157.38 334.19 L155.95 333.98 L152.4 334.97 L150.33 335.08 L147.32 335.76 L146.82 335.74 L145.41 335.16 L144.87 335.08 L143.35 335.32 L142.84 335.31 L141.42 334.79 L140.88 334.79 L139.35 335.21 L138.57 335.01 L135.92 333.09 L134.9 332.62 L133.89 332.36 L132.84 332.3 L131.78 332.42 L130.03 332.77 L124.68 332.47 L123.99 332.54 L122.72 332.96 L122.07 333.03 L119 332.26 L118.63 332.34 L118.35 332.49 L118.06 332.52 L117.68 332.24 L115.64 329.6 L115.1 329.22 L114.42 329.24 L113.89 329.63 L113.39 330.19 L112.86 330.62 L112.24 330.65 L109.21 329.94 L107.2 328.88 L106.74 328.45 L106.06 327.41 L105.66 326.94 L104.62 326.37 L103.23 326.07 L101.82 326.01 L100.69 326.19 L98.53 327.46 L97.53 327.45 L97.04 326.18 L97.12 325.45 L97.3 324.97 L97.32 324.48 L96.94 323.73 L96.4 323.31 L95.14 322.75 L94.97 322.24 L94.95 320.76 L94.57 319.54 L94.09 318.38 L93.8 317.08 L93.32 316.16 L91.28 314.65 L90.62 313.88 L92.04 303.35 L92.48 302.37 L98.96 293.54 L100.69 291.87 L101.04 291.61 L101.54 290.33 L101.63 288.25 L101.34 286.21 L100.69 285.01 L99.87 283.76 L98.33 278.67 L98.24 277.75 L98.54 277.06 L99.47 275.87 L100.69 272.59 L101.03 271.75 L101.51 269.95 L101.9 269.14 L102.57 267.51 L102.87 266.52 L102.94 265.83 L102.48 265.22 L101.82 264.97 L101.34 264.55 L101.41 263.39 L101.83 261.46 L101.91 260.24 L101.95 259.63 L101.62 257.95 L100.69 256.42 L99.58 255.3 L99.14 254.65 L98.98 253.72 L99.06 253.35 L99.43 252.66 L99.49 252.32 L99.38 251.84 L99.16 251.58 L98.91 251.36 L98.67 251.04 L98.37 250.21 L98.16 249.42 L97.9 248.66 L97.42 247.95 L96.79 247.37 L96.13 246.95 L95.42 246.74 L94.69 246.77 L93.46 246.52 L92.52 245.47 L84.95 232.02 L84.88 231.68 L84.95 231.35 L85.15 231.04 L85.48 230.37 L85.61 229.6 L85.53 228.85 L85.15 228.25 L84.31 227.66 L84.11 226.44 L84.17 224.96 L84.1 223.57 L83.66 222.95 L82.65 222.11 L82.24 221.48 L81.32 219.18 L80.9 218.51 L80.56 217.58 L80.87 216.94 L81.25 216.44 L81.1 215.94 L80.44 215.41 L79.77 215.02 L76.9 214.23 L75.46 213.57 L74.11 212.64 L72.96 211.44 L72.58 210.8 L72.21 209.89 L72 208.91 L72.12 208.07 L72.38 207.06 L72.24 206.22 L71.77 205.71 L70.46 205.68 L69.24 205.3 L68.73 205.55 L68.49 206.12 L68.44 206.74 L68.34 207.36 L67.94 207.92 L66.93 208.28 L63.65 208.55 L62.65 208.28 L62.31 207.73 L62.03 206.41 L61.78 205.79 L61.28 205.28 L60.19 205.05 L59.67 204.78 L59.31 204.18 L59.07 203.4 L58.8 202.74 L58.37 202.47 L57.84 202.33 L57.43 201.9 L57.19 201.25 L57.21 200.46 L57.07 199.18 L56.14 198.69 L54.95 198.74 L54.07 199.07 L52.52 199.13 L52.02 199.06 L50.77 198.36 L50.31 198.33 L49.69 198.63 L48.18 199.87 L47.65 200.45 L46.88 201.05 L46.1 201.2 L44.49 200.88 L41.62 200.86 L40.73 200.46 L40.72 200.46 L40.71 200.46 L37.2 195.62 L36.71 195.21 L35.86 194.98 L34.06 195.24 L33.25 195.21 L32.32 194.53 L30.26 192.39 L29.37 192.08 L28.59 192.17 L27.98 191.95 L26.75 190.93 L26.27 190.26 L26.04 189.44 L25.9 188.53 L25.66 187.64 L25.58 186.71 L26.03 184.97 L25.78 184.15 L23.84 181.83 L23.11 181.47 L22.49 181.57 L21.88 181.77 L21.17 181.76 L20.13 181.07 L18.54 178.95 L17.69 178.25 L15.54 177.11 L14.99 177.03 L13.92 177.13 L13.37 177.09 L12.82 176.82 L11.81 176.02 L10.96 175.57 L10.45 174.97 L10.16 174.78 L9.83 174.77 L9.09 174.93 L8.73 174.92 L7.69 174.34 L6.72 173.26 L6.44 172.12 L7.45 171.32 L7.89 170.96 L8.15 170.44 L8.32 169.93 L8.53 169.58 L9.93 168.64 L10.2 168.21 L10.06 167.01 L9.27 166.02 L7.45 164.75 L6.74 164.51 L5.34 164.62 L3.29 163.65 L2.65 163.23 L2.18 162.65 L2.07 162.23 L2.01 161.25 L1.88 160.8 L1.61 160.48 L1.28 160.26 L0.59 159.97 L0.07 159.4 L0 158.58 L0.25 157.71 L0.66 156.99 L3.11 155.78 L4.26 154.74 L4.24 153.03 L3.77 152.48 L3.17 152.25 L2.68 151.86 L2.49 150.82 L2.65 149.81 L2.92 149.14 L3.1 148.44 L3.01 147.34 L2.56 145.91 L2.51 145.35 L3.15 145.63 L3.71 145.68 L6.87 145.21 L7.45 144.88 L8 144.12 L9.14 142.99 L11.59 141.47 L12.69 140.36 L12.83 139.13 L12.23 137.73 L11.81 136.27 L12.44 134.86 L12.74 134.33 L13.24 132.75 L13.65 132.1 L14.43 131.6 L19.99 130.57 L20.71 130.57 L22.24 131.08 L22.99 131.15 L24.96 131.01 L25.55 130.79 L26.86 129.94 L27.31 129.76 L27.36 129.75 L27.91 129.83 L28.38 130.2 L29.19 131.33 L29.84 131.95 L30.58 132.14 L35.28 132.47 L35.42 132.2 L34.79 130.66 L34.83 128.86 L34.91 128.1 L35.2 127.59 L35.85 127.42 L36.45 127.69 L36.78 128.3 L37.03 129.06 L37.36 129.75 L37.67 130.23 L37.89 130.76 L38.14 131.22 L38.53 131.52 L39.74 131.3 L44.3 129.28 L45.37 128.38 L46 127.23 L45.56 126.03 L44.84 124.69 L45.12 123.57 L46.03 122.97 L47.14 123.21 L48.96 124.95 L49.85 125.54 L50.86 125.5 L51.66 124.67 L52.31 123.46 L53.03 122.53 L54.07 122.54 L55.47 121.59 L58.46 120.52 L60.51 119.42 L61.13 118.86 L61.45 118.13 L61.1 117.26 L60.55 116.88 L59.16 116.19 L58.77 115.59 L58.8 115.16 L59.25 114.62 L59.3 114.1 L59.16 113.81 L58.6 113.32 L58.43 112.99 L58.42 112.38 L58.6 110.51 L58.69 110.06 L58.98 109.8 L60.05 108.87 L61.7 108.27 L66.23 108.12 L67.9 107.73 L69.43 106.95 L70.27 105.71 L70.29 105.18 L70.34 104.16 L70.54 102.9 L71.02 101.93 L71.97 101.28 L76.05 100.4 L77.31 99.82 L81.07 96.9 L81.69 96.65 L82.97 96.51 L83.59 96.3 L85.15 94.96 L86.51 94.77 L89.19 95.37 L90.54 95.34 L91.1 95.16 L91.64 94.88 L92.13 94.44 L92.53 93.82 L92.68 93.14 L92.69 91.74 L92.97 91.2 L94.08 90.53 L96.49 89.79 L97.64 88.89 L99.87 86.06 L100.69 85.25 L101.84 84.7 L105.5 84.66 L106.54 84.33 L109.55 82.68 L110.71 82.69 L113.34 83.25 L114.39 82.94 L114.91 82.12 L115.14 81.12 L115.46 80.12 L116.23 79.29 L119.36 78.02 L120.2 77.16 L121.77 74.2 L122.59 73.39 L124.77 72.04 L127.08 71.18 L129.44 70.9 L134.5 71.93 L137.49 71.79 L140.1 70.27 L141.7 66.77 L141.78 65.86 L141.8 64.99 L141.93 64.21 L142.35 63.6 L142.98 63.21 L143.77 62.98 L144.5 63.12 L144.98 63.85 L145.57 65.77 L146.33 67.02 L147.31 67.79 L148.6 68.28 L149.79 69.15 L151.57 71.86 L152.75 72.53 L153.43 72.45 L154.16 72.14 L154.85 71.64 L155.4 71 L155.76 70.2 L155.97 68.57 L156.18 67.78 L157.3 66.93 L159.21 66.57 L161.18 66.72 L162.44 67.43 L162.82 69.19 L162.81 71.53 L163.38 73.47 L163.72 74.45 L163.99 75.02 L164.34 75.36 L164.96 75.68 L166.9 76.22 L167.96 76.19 L169.49 76.17 L176.74 75.7 L180.3 76.91 L191.2 77.38 L202.1 77.86 L202.76 78.24 L203.21 78.86 L203.36 79.62 L203.41 81.41 L204.66 84.52 L204.9 85.72 L205.04 90.75 L205.42 93.28 L205.74 94.52 L206.17 95.53 L206.89 96.37 L209.48 97.5 L210 97.98 L210.21 98.6 L210.33 99.3 L210.54 100.04 L210.91 100.62 L212.25 101.92 L212.57 102.52 L213.13 103.91 L213.47 104.4 L214.13 104.62 L214.95 104.49 L217.92 103.4 L223.36 103.14 L224.36 103.39 L225.2 104.16 L225.93 105.71 L226.47 106.82 L226.68 107.13 L228.17 107.99 L236.83 107.88 L238.23 108.31 L239.64 109.49 L240.15 110.06 L240.63 110.47 L240.74 110.56 L241.36 110.83 L241.98 110.69 L242.5 110.15 L243.31 108.86 L243.95 108.42 L246.95 107.97 L248.22 107.36 L249.39 105.69 L250.28 104.79 L251.53 104.38 L252.75 104.63 L253.53 105.7 L253.53 105.71 L253.91 107.06 L254.48 108.03 L255.22 108.33 L256.1 107.65 L256.44 107.05 L256.83 106.52 L257.26 106.07 L257.71 105.7 L258.16 105.46 L258.62 105.41 L259.09 105.51 L259.56 105.7 L259.56 105.7 L259.57 105.7 L259.57 105.71 L264.21 107.81 L265.62 108.92 L266.93 110.29 L267.65 110.74 L268.47 110.86 L269.29 110.59 L270.83 109.51 L271.64 109.14 L272.53 109.12 L273.17 109.43 L273.65 110.1 L274.07 111.16 L274.54 112.03 L275.07 112.24 L275.67 111.98 L276.34 111.47 L278.03 109.72 L278.7 109.52 L287.01 110.83 L288.15 111.86 L289.28 113.89 L289.75 114.4 L290.62 114.73 L291.08 114.9 L291.69 115.31 L291.98 116.17 L292.72 117.4 L294.34 118.18 L296.12 118.56 L297.34 118.59 L298.64 118.18 L300.11 117.44 L302.72 115.55 L304.84 113.91 L305.8 112.72 L306.03 111.25 L305.74 110.34 L305.47 109.76 L305.58 109.38 L307.93 108.74 L310.77 107.37 L311.48 107.22 L312.14 107.48 L313.17 108.68 L313.76 109.06 L314.31 108.74 L315.15 107.58 L316.14 106.66 L320.54 104.24 L322.33 102.27 L327.21 91.59 L327.42 90.83 L327.51 89.88 L327.45 89.05 L327.19 87.52 L327.33 85.9 L328.32 83 L328.39 81.4 L328.4 81.4 L328.4 81.4 L328.17 80.14 L327.61 79.21 L326.86 78.58 L326.06 78.23 L324.13 77.89 L323.28 77.58 L320.92 75.72 L320.25 75.03 L319.78 74.1 L318.26 70.12 L317.31 67.6 L317.42 66.54 L318.75 64.59 L318.57 64.04 L317.59 63.25 L317.15 62.68 L316.86 62.08 L316.55 61.55 L315.07 60.58 L313.94 59.41 L313.1 57.94 L313.03 56.43 L315.01 52.2 L315.5 50.55 L315.78 48.87 L315.95 48.15 L316.85 45.84 L316.93 45.08 L316.82 44.03 L316.45 42.32 L316.43 41.59 L316.65 40.7 L316.99 40.04 L317.88 38.86 L318.26 38.21 L319.69 34.89 L320.29 33.79 L320.63 33.33 L321.12 33.19 L322.51 32.42 L323.33 32.36 L325.9 32.89 L326.2 32.01 L326.32 30.83 L326.02 28.66 L326.15 27.49 L326.47 26.58 L327.24 24.9 L327.55 23.91 L329.38 20.73 L332.26 19.33 L338.28 17.6 L339.3 16.75 L340.27 15.65 L341.15 14.36 L343.19 10.08 L343.66 7.69 L343.92 6.92 L345.12 5.28 L345.36 4.57 L345.44 3.71 L345.46 2 L345.65 1.16 L346.6 0.05 L347.89 0 L348.2 0.25 L348.97 0.86 L349.34 2.49 L349.97 3.61 L350.91 4.25 L356.31 6.22 L357.37 6.84 L358.09 7.67 L358.67 8.6 L359.32 9.4 L360.2 9.87 L367.44 12.03 L371.25 12.17 L372.19 12.57 L374.5 14.74 L376.51 17.16 L378.67 19.17 L381.4 20.06 L384.27 19.71 L387.75 20.33 L397.1 20.3 L398.97 21.41 L401.08 22.05 L414.46 28.99 L415.94 30.27 L417.24 30.6 L418.54 30.61 L419.81 30.9 L421 32.03 L422.11 33.47 L423.19 34.13 L424.36 34.12 L427.29 33.01 L428.66 32.86 L430.01 33.15 L432.31 34.15 L433.96 34.03 L434.8 34.12 L435.37 34.41 L437.02 35.68 L437.85 35.97 L440.34 35.79 L440.92 35.99 L442.01 36.95 L442.58 37.28 L444.98 37.46 L445.71 37.9 L446.22 38.41 L449.1 40.43 L449.4 41.26 L448.96 42.3 L447.59 44.59 L447.54 45.06 L447.73 45.55 L447.97 46.46 L448.05 47.31 L448.01 48.13 L447.8 49.82 L447.94 51.66 L448.53 53.64 L449.35 55.47 L450.2 56.85 L450.52 57.51 L450.57 58.22 L450.4 58.92 L450.08 59.54 L450.83 60.81 L450.59 62.17 L450 63.55 L449.7 64.9 L450.12 66.4 L451.02 67.39 L452.94 68.89 L453.62 70.33 L453.34 71.45 L452.61 72.49 L451.96 73.7 L451.83 75.13 L452.16 76.62 L452.8 77.93 L453.57 78.82 L454.97 79.41 L458.05 79.83 L459.33 80.87 L461.62 85.19 L462.59 85.97 L462.64 85.98 L467.09 87.16 L470.96 90.08 L472.21 90.66 L473.66 91.02 L478.51 90.36 L480.74 90.95 L481.93 93.51 L482.34 94.94 L483.07 95.78 L484 96.13 L487.12 95.8 L488.11 96.02 L489.2 96.54 L491.07 97.91 L493.16 98.89 L495.23 99 L498.88 96.34 L500.75 96.41 L504.74 98.15 L506.78 98.52 L509.33 98.18 L511.71 97.12 L513.24 95.34 L513.91 94.26 L515.54 93.03 L516.42 92.17 L517.28 91.33 L518.17 90.78 L520.29 90.16 L523.49 90.34 L524.53 90.11 L525.21 89.65 L526.44 88.45 L527.22 88.21 L530.09 88.24 L530.99 87.96 L532.88 86.72 L533.58 86.43 L534.59 86.26 L538.19 86.74 L539.07 86.66 L539.92 86.42 L540.72 86.03 L544.12 83.1 L545.29 82.39 L546.85 82.2 L556.51 84.86 L560.86 84.52 L561.71 84.74 L563.2 85.4 L564.74 85.75 L566.42 85.76 L567.25 85.94 L568.93 87.33 L569.06 87.65 L569.06 88.1 L569.1 88.56 L569.22 88.95 L569.46 89.17 L571.93 89.48 L572.72 89.85 L573.97 90.82 L574.63 91.17 L575.33 91.28 L581.39 89.44 L584.76 89.06 L588.13 89.49 L590.91 90.44 L592.22 91.22 L596.83 95.22 L597.98 95.84 L598.27 96.29 L598.74 98.1 L598.99 98.57 L599.62 99.27 L599.85 99.6 L600.02 100.12 L600.31 101.26 L600.58 101.77 L600.99 102.15 L601.93 102.61 L602.37 102.91 L603.92 104.44 L604.78 105.06 L605.79 105.5 L606.73 105.41 L607.52 104.99 L608.28 104.87 L610.12 106.51 L621.47 106.71 L621.95 106.94 L622.13 107.02 L623.26 107.86 L623.92 108.07 L624.89 107.94 L625.25 107.96 L626.72 108.47 L628.22 108.57 L628.53 109.06 L628.41 110.31 L628.16 111.13 L627.88 111.8 L627.71 112.53 L627.78 113.55 L628.33 115.85 L628.51 117.63 L628.48 118.24 L628.31 118.83 L627.61 120.64 L627.63 121.26 L628.01 121.59 L628.73 121.69 L629.97 121.59 L630.38 121.95 L630.12 123.01 L630.05 123.77 L630.38 124.51 L630.9 125.13 L633.19 126.81 L633.82 127.15 L636.41 127.48 L637.23 127.86 L637.67 128.34 L637.95 128.95 L638.19 129.61 L638.5 130.25 L640.3 132.45 L644.61 136.27 L646.61 137.66 L647.6 137.74 L648.8 137.84 L653.23 137 L656.59 137.03 L658.81 136.64 L662 137.63 L662.77 137.58 L665.96 136.74 L669.88 137.13 L670.67 137.41 L671.42 137.85 L673.12 138.52 L673.75 138.81 L674.98 138.68 L675.33 138.94 L675.45 139.23 L675.57 140.08 L675.72 140.43 L676.26 140.74 L677.02 141.06 L683.62 140.56 L685.37 141.28 L686.39 142.41 L686.84 142.45 L689.35 143.07 L697.69 145.53 L699.05 145.37 L700.39 144.82 L701.67 143.92 L702.79 142.74 L703.28 142.08 L703.59 141.74 L703.94 141.82 L705.52 143.6 L706.08 143.98 L707.85 144.47 L710.82 146.33 L712.1 146.73 L713.44 146.84 L714.79 146.69 L718.2 145.51 L722.07 143.37 L727.44 139.37 L731.64 137.88 L732.21 137.5 L733.12 136.32 L733.66 135.88 L734.41 135.74 L735.11 135.99 L736.49 136.75 L737.27 136.91 L738.03 136.9 L738.79 136.72 L742.3 134.84 L743.68 134.37 L755.16 133.63 L758.15 132.28 L767.66 128.01 L768.93 127.78 L772.38 128.15 L775.09 129.61 L776.03 129.83 L777.03 129.76 L778.38 129.35 L781.2 127.9 L783.01 126.22 L783.67 125.77 L784.37 125.43 L785.08 125.24 L786.66 125.17 L787.2 124.81 L787.53 123.77 L787.61 122.06 L787.7 121.31 L788.02 120.42 L790.18 116.1 L790.98 114.91 L791.91 113.95 L798.22 109.11 L799.05 107.96 L799.56 107.42 L801.17 106.27 L801.71 105.7 L803.32 104.39 L808.69 101.55 L809.34 101.41 L810.66 101.64 L811.32 101.63 L811.72 101.45 L815.55 97.58 L816.18 97.19 L817.48 96.78 L818.11 96.45 L820.06 94.48 L822.61 92.93 L825.29 91.93 L826.74 92.15 L829.6 93.63 L831.09 94.01 L836.89 93.17 L839.82 93.91 L847.39 98.37 L847.95 98.92 L848.34 99.55 L849.02 100.96 L849.44 101.61 L854 106.73 L858.93 110.41 L859.53 110.62 L861.46 110.6 L862.17 110.81 L863.28 110.83 L865.44 110.49 L868.71 111.26 L869.74 111.26 L870.81 110.91 L880.22 105.43 L882.76 104.66 L885.32 104.69 L887.9 105.7 L896.44 109.14 L897.74 110.32 L898.86 111.93 Z "/>
</g>
</svg>
