<svg xmlns="http://www.w3.org/2000/svg" viewBox="0 0 1000 1200.71">
<g fill="#ccc" stroke="#333" stroke-width="0.5" stroke-linejoin="round">
<path fill-rule="evenodd" d="M32.73 804.95 L33.45 794.5 L30.87 786.59 L21.84 781.34 L17.8 778.83 L11.13 770.83 L5.59 761.51 L1.88 750.59 L1.51 738.33 L4.41 715.56 L1.99 704.12 L7.37 699.17 L13.23 696.69 L19.25 697.17 L25.12 700.96 L30.5 700.2 L32.43 695.89 L31.3 689.55 L27.64 682.48 L38.13 676.36 L43.56 673.19 L54.59 662.35 L56.88 656.61 L60.4 647.77 L60.61 627.15 L55.24 607.76 L46.31 596.12 L35.71 585.1 L17.64 555.52 L10.6 538.53 L5.75 521.56 L5.27 509.22 L10.38 501.28 L16.89 496.2 L20.71 489.29 L17.75 475.69 L5.43 450.71 L0.27 436.48 L0 424.17 L10 396.3 L25.76 381.18 L54.86 374.6 L85.78 374.19 L106.92 377.19 L97.62 322.92 L97.35 304.3 L97.62 302.87 L101.76 281.25 L110.2 263.2 L132.63 231.59 L120.1 225.37 L128.01 213.72 L194.43 164.72 L208.14 160.34 L206.48 157.47 L203.52 150.86 L201.74 148.01 L211.32 143.4 L242.3 140.48 L254.93 144.11 L268.92 153.96 L272.58 159.12 L272.9 164.03 L272.47 169.15 L273.71 175.14 L278.44 183.18 L289.03 196.96 L289.32 197.62 L290.86 201.13 L296.29 196.24 L300.44 190.25 L303.72 183.93 L306.51 180.08 L307.64 178.52 L313.67 175.23 L327.33 174.48 L331.04 171.3 L315.39 141.33 L299.95 98.17 L281.93 74.33 L278.28 71.59 L266.82 74.57 L266.87 70.88 L269.13 64.99 L269.4 60.32 L262.46 49.47 L258.7 47.08 L250.69 44.85 L245.68 41.09 L245.41 35.05 L248.48 29.15 L253.43 25.61 L263 20.77 L275.37 6.88 L283.06 1.19 L294.9 0 L302.21 7.25 L307.8 17.84 L314.63 26.46 L323.4 29.56 L334.53 29.17 L344.75 25.11 L358.68 8.57 L371.65 6.99 L396.44 10.83 L385.95 27.47 L386.33 48.08 L394.83 66.97 L408.43 78.68 L479.86 111.02 L488.52 117.34 L510.25 150.15 L540.96 182.42 L547.25 191.84 L556.18 211.97 L561.45 220.03 L579.88 235.62 L580.97 236.55 L597.05 257.76 L606.03 266.04 L616.74 271.72 L639.81 278.67 L651.05 279.94 L657.67 277.45 L661.92 273.2 L666.11 273.6 L681.33 301.48 L690.91 314.16 L701.61 322.9 L713.76 327.54 L731.03 328.69 L748.67 327.25 L754.69 323.46 L766.85 310.93 L771.8 308.23 L778.3 310.47 L782.18 316.18 L785.13 323.49 L789.06 330.42 L794.22 335.66 L825.53 357.9 L843.48 375.78 L844.49 376.8 L876.03 408.21 L882.54 410.38 L888.51 412.36 L916.42 415.19 L931.32 421.71 L958.59 441.46 L990.59 457.74 L999.19 469.11 L1000 486.72 L994.89 514.21 L952.78 521.43 L932.82 528.88 L928.41 531.73 L924.06 539.56 L923.63 546.37 L924.43 552.84 L923.63 559.71 L910.61 574.43 L892.97 569.21 L873.5 557.4 L854.89 552.51 L849.03 555.33 L844.13 559.3 L833.22 568.12 L828.97 573.94 L828.05 587.96 L833.97 598.89 L834.43 599.33 L864.2 627.92 L868.23 635.21 L869.25 637.73 L862.31 655.96 L856.4 667.34 L854.57 673.11 L854.41 684.51 L855.86 694.44 L855.27 703.63 L848.98 712.92 L835.58 705.14 L824.4 713.28 L805.68 738.33 L792.45 742.18 L767.06 741.42 L754.15 750.44 L754.05 750.59 L749.26 755.22 L729.58 766.93 L726.22 768 L721.29 769.59 L711.83 768.42 L703.01 763.88 L685.9 750.59 L676.92 728.72 L675.15 722.17 L674.82 717.39 L675.79 706.71 L676.71 701.73 L680.58 693.39 L683 689.48 L683.91 690.21 L683.45 683.12 L683 676.07 L678.59 658.04 L670.57 642.71 L658.69 636.53 L646.59 642.29 L637.22 650.82 L631.96 655.61 L618.35 671.76 L609.64 686.01 L606.63 695.76 L603.72 714.29 L600.82 722.74 L594.36 730.16 L586.89 734.47 L580.65 739.87 L577.74 750.48 L577.74 750.59 L571.45 763.74 L564.24 775.55 L555.75 785.35 L545.47 792.15 L538.54 803.7 L511.91 834.7 L509.22 838.73 L504.33 850.26 L503.31 855.37 L503.63 865.01 L503.15 868.65 L453.29 946.57 L437.85 963.3 L436.35 970.74 L441.51 981.95 L441.56 982.06 L449.74 991.12 L479.54 1013.31 L487.33 1022.8 L488.62 1024.38 L489.86 1031.11 L480.34 1052.05 L477.81 1064.09 L477.22 1077.96 L479.11 1091.35 L483.89 1101.9 L484.05 1102.01 L487.87 1106.86 L485.13 1118.65 L482.01 1121.25 L477.76 1121.83 L475.07 1124.37 L478.41 1140.49 L477.17 1145.48 L475.18 1149.11 L474.53 1152.6 L474.8 1157.3 L474.48 1160.19 L475.72 1162.97 L480.56 1167.67 L484.7 1175.11 L484.32 1193.39 L484.77 1200.71 L475.33 1192.61 L456.23 1171.25 L447.37 1166.87 L409.39 1154.24 L400.41 1148.49 L387.66 1143.71 L383.38 1140.86 L379.23 1133.89 L379.07 1130.04 L379.74 1126.17 L378.22 1119.16 L375.76 1118 L370.38 1113.13 L366.57 1107.74 L369.16 1105.26 L369.49 1102.3 L367.21 1067.73 L337.73 1040.55 L333.67 1030.42 L338.41 1020.29 L334.56 1016.18 L328.08 1013.21 L320.11 999.16 L300.3 999.62 L295.89 992.14 L294.71 984.51 L292.08 982.71 L288.56 982.65 L285.22 980.31 L278.15 965.11 L270.57 957.28 L249.69 941.55 L243.63 930.83 L239.99 907.63 L235.46 897.87 L227.96 893.58 L218.82 893.58 L210.94 896.93 L207.04 902.68 L204.5 899.39 L201.37 896.24 L199.88 893.09 L191.5 897.87 L187.56 900.7 L184.85 903.74 L183.62 905.08 L179.56 906.94 L176.13 903.11 L171.17 893.09 L154.02 878.72 L146.23 869.1 L146.02 859.47 L143.01 856.98 L138.52 851.79 L135.34 849.42 L135.34 845.03 L136.49 834.94 L127.47 826.34 L117.09 825.89 L114.3 840.22 L110.82 840.22 L106.63 837.38 L95.32 838.96 L93.04 837.64 L90.33 833.08 L83.97 827.92 L76.69 823.62 L71.35 821.41 L72.58 818.98 L72.63 818.2 L73.13 817.69 L75.25 816.19 L62.16 806.85 L58.1 799.85 L60.68 791.7 L67.29 789.29 L110.02 803.52 L116.03 805.53 L131.15 813.64 L138.9 821.41 L142.93 810.46 L142.08 801.63 L130.26 775 L129.97 768.45 L132.08 758 L114.81 779.94 L91.13 784.47 L35.87 777.24 L35.87 782.49 L45.65 789.69 L41.33 810.12 L50.1 816.19 L39.93 812.75 Z "/>
</g>
</svg>
