<svg xmlns="http://www.w3.org/2000/svg" viewBox="0 0 1000 801.82">
<g fill="#ccc" stroke="#333" stroke-width="0.5" stroke-linejoin="round">
<path fill-rule="evenodd" d="M640.48 0.2 L641.23 2.49 L642.16 4.56 L643.44 6.37 L645.26 8.04 L645.26 8.07 L644.85 9.54 L645.13 12.07 L646.36 17.33 L646.75 21.6 L647.07 22.82 L647.57 23.76 L648.22 24.5 L648.71 24.59 L650.11 24.37 L650.53 24.5 L650.64 25.09 L650.47 26.62 L650.53 27.26 L651.91 32.65 L652.78 34.69 L654.51 36.32 L657.99 38.82 L660.9 41.62 L667.86 51.59 L669.13 52.59 L671.14 52.95 L672.64 53.43 L674.26 54.58 L677.04 57.15 L679.37 60.39 L680.78 61.98 L684.43 63.25 L688.91 67.48 L692.21 69.4 L703.92 72.99 L714.86 75.47 L714.95 75.49 L724.68 78.38 L727.02 78.55 L728.72 78.09 L733.47 75.05 L744.89 73.05 L751.8 69.91 L758.83 68.45 L762.29 66.79 L763.1 67.96 L762.85 68.4 L761.85 68.74 L761.45 69.11 L761.82 69.72 L762.36 70.42 L763.56 72.1 L764.76 72.68 L766.47 72.79 L768.74 72.99 L770.31 72.85 L773.14 72.6 L775.01 71.67 L775.77 69.86 L776.46 67.11 L778.18 65.23 L780.38 64.37 L782.52 64.67 L784.11 65.77 L787.57 68.96 L789.32 70.17 L795.49 71.16 L797.69 72.42 L798.67 72.45 L799.71 72.34 L800.61 72.36 L801.51 72.66 L803.13 73.45 L803.98 73.74 L808.17 74.08 L811.69 73.35 L821.91 69.68 L823.65 68.58 L827.38 64.6 L828.26 64.04 L828.94 64.09 L829.71 64.5 L830.59 64.83 L831.63 64.67 L834.24 61.99 L837.46 54.01 L839.55 50.88 L839.39 49.82 L839.79 48.98 L840.56 48.66 L841.54 49.19 L841.91 50.02 L841.47 51.75 L841.85 52.95 L841.02 56.03 L842.11 59.92 L842.25 60.39 L842.27 60.44 L840.7 62.05 L840.96 64.84 L842.66 66.69 L845.14 65.78 L846.29 67.48 L845.55 68.39 L845.19 69.92 L845.11 71.61 L845.4 74.87 L845.78 76.19 L846.5 77.38 L847.69 78.9 L849.82 80.45 L852.72 81.4 L858.71 81.99 L855.11 79.05 L848.82 71.78 L847.59 69.65 L847.99 68.86 L849.1 69.74 L853.09 74.08 L853.73 75.16 L857.64 79.25 L861.16 81.29 L865.41 82.77 L873.93 83.99 L877.7 83.66 L879.69 83.16 L881.02 82.33 L882.75 80.33 L884.32 79.06 L885.99 78.65 L893.84 81.7 L895.68 81.99 L897.64 82.64 L899.83 83.88 L901.98 84.68 L902.1 88.63 L902.88 91.3 L904.35 93.29 L906.86 94.26 L909.93 96.48 L912.49 98.91 L915.26 100.72 L918.96 101.07 L920.01 101.88 L920.33 103.06 L920.44 104.43 L920.84 105.82 L921.97 107.19 L926.34 109.91 L929.13 112.56 L937.78 118.07 L939.28 119.61 L938.98 120.34 L937.91 121.17 L935.91 125.68 L931.59 132.4 L930.92 134.1 L940.83 144.34 L943.83 145.25 L944.76 145.79 L935.98 156.49 L939.13 160.25 L941.21 164.68 L947.08 183.03 L947.3 184.42 L947.5 185.69 L947.3 187.68 L943.46 203.67 L943.19 208.33 L943.93 213.2 L944.8 216.09 L944.74 217.18 L944.11 218.64 L943.28 219.7 L942.32 220.54 L941.53 221.54 L941.15 223.06 L941.65 224.62 L942.91 225.5 L945.77 226.53 L947.21 227.6 L948.1 228.77 L951.81 237.69 L952.19 240.95 L951.15 243.64 L949.91 245.48 L948.37 250.98 L947.24 253.47 L946.38 255.97 L946.37 265.66 L947.12 268.9 L951.29 272.97 L952.77 275.78 L953.89 278.87 L955.59 281.29 L957.72 283.27 L960.12 285.03 L961.51 286.38 L962.04 288.41 L962.02 290.71 L961.76 292.85 L961.56 293.86 L961.22 294.78 L960.74 295.6 L960.12 296.27 L956.63 298.8 L967.78 317.54 L970.48 319.85 L975.71 321.8 L998.72 339.58 L1000 341.78 L995.23 347.15 L992.5 349.24 L989.44 350.51 L986.03 351.01 L984.69 351.71 L983.36 353.47 L982.54 355.19 L981.43 358.71 L980.12 367.61 L979.95 368.77 L979.98 369.59 L979.86 370.39 L979.34 371.43 L978.83 371.95 L977.47 373.03 L977.15 373.64 L977.51 375.22 L978.84 375.25 L981.9 374.02 L983.48 374 L985.19 374.53 L986.53 375.72 L986.94 377.75 L985.32 381.2 L982.09 381.98 L975.88 381.68 L975.18 381.65 L973.21 381.55 L970.08 381.41 L965.95 381.22 L960.95 380.98 L955.23 380.71 L948.92 380.41 L942.18 380.09 L935.13 379.76 L927.92 379.42 L920.68 379.08 L913.57 378.75 L906.71 378.42 L900.27 378.12 L894.36 377.84 L889.13 377.6 L877.81 377.07 L863.04 381.2 L847.76 382.5 L843.02 385.19 L848.7 400.35 L852.15 409.83 L837.76 411.86 L819.93 417.27 L795.86 421.63 L792.8 421.9 L789.29 421.09 L783.68 424.04 L782.53 449.01 L776.44 449.4 L771.9 452.73 L770.86 454.03 L770.53 455.79 L771.05 463.07 L770.88 465.27 L769.13 468.23 L768.58 470.11 L768.87 471.78 L769.85 472.65 L771.22 472.74 L772.69 472.08 L775.1 469.8 L776.32 469.15 L777.76 469.52 L778.94 470.78 L781.19 474.4 L782.65 475.82 L785.62 477.28 L786.59 478.16 L787.38 479.94 L787.75 481.64 L787.86 483.51 L792.31 490.7 L787.71 498.08 L783.68 502.1 L784.25 508.13 L784.83 514.16 L769.29 522.19 L755.48 525.53 L742.82 526.2 L733.04 528.87 L724.99 533.55 L715.78 545.56 L704.27 554.89 L692.19 560.22 L683.56 564.88 L676.66 570.21 L667.45 578.19 L658.82 584.17 L650.76 592.8 L645.01 604.07 L637.53 616 L628.9 627.24 L620.84 629.89 L613.94 627.24 L611.06 618.64 L600.7 619.97 L590.92 621.95 L580.56 621.95 L568.48 621.95 L556.97 623.28 L544.89 626.58 L533.38 627.9 L526.48 634.51 L512.09 628.57 L502.89 627.9 L496.56 628.57 L487.35 632.53 L479.87 640.46 L470.51 639.92 L468.8 640.55 L466.99 640.76 L465.14 640.7 L461.51 640.07 L457.66 639.89 L454.84 641.14 L449.82 646.28 L448.56 647.29 L444.6 649.35 L439.57 654.09 L430.85 660.02 L423.33 667.22 L420.59 669.15 L411.32 673.27 L405.7 677.11 L400.25 682.36 L398.89 683.17 L395.99 684.47 L394.75 685.49 L391.93 690.51 L390.89 691.58 L387.15 693.67 L383.45 696.64 L372.91 702.38 L371.36 703.72 L370.44 705.49 L370.14 708.02 L370.14 712.31 L370.14 717.93 L370.14 723.54 L370.14 729.15 L370.14 734.76 L370.14 740.36 L370.14 745.97 L370.14 751.57 L370.14 757.16 L370.14 762.75 L370.14 768.34 L370.14 773.93 L370.14 779.52 L370.14 785.1 L370.14 790.67 L370.14 796.25 L370.14 801.82 L364.37 801.82 L359.1 801.82 L359.06 801.82 L358.55 801.82 L352.8 801.82 L347.02 801.82 L341.24 801.82 L335.45 801.81 L329.67 801.81 L323.89 801.81 L318.11 801.81 L312.32 801.81 L306.54 801.8 L300.76 801.8 L294.98 801.8 L289.19 801.8 L283.41 801.8 L277.63 801.8 L271.85 801.8 L266.07 801.8 L260.28 801.8 L254.5 801.8 L248.72 801.8 L242.93 801.79 L237.15 801.79 L231.37 801.79 L225.58 801.79 L219.81 801.78 L214.02 801.78 L208.23 801.78 L202.46 801.78 L196.67 801.78 L190.88 801.78 L185.11 801.78 L179.32 801.78 L173.54 801.77 L167.76 801.77 L161.98 801.77 L156.19 801.77 L150.41 801.77 L144.63 801.76 L138.84 801.76 L133.06 801.76 L127.28 801.75 L121.49 801.75 L115.71 801.75 L113.28 801.75 L112.39 801.75 L109.93 801.75 L104.14 801.75 L98.36 801.75 L92.58 801.75 L86.8 801.74 L81.02 801.74 L75.23 801.74 L69.45 801.74 L63.66 801.74 L57.88 801.74 L52.1 801.74 L46.31 801.74 L40.53 801.74 L34.75 801.73 L28.97 801.73 L23.18 801.73 L17.41 801.73 L11.62 801.73 L5.83 801.73 L0 801.73 L0 801.7 L0.06 801.29 L0.58 799.63 L1.46 798.74 L3.94 797.49 L6.61 795.24 L9.62 794.25 L10.96 792.67 L14.43 786.98 L16.36 780.21 L17.3 778.26 L18.6 776.96 L20.18 776.02 L27.94 773.06 L42.85 770.49 L54.73 770.73 L69.42 765.9 L91.95 762 L92.86 761.35 L94.71 759.4 L95.1 759.15 L96.54 758.81 L114.92 750.69 L139.36 739.9 L142.06 737.76 L144.03 735.19 L147.28 729.67 L148.54 728.28 L150.03 726.96 L151.26 725.48 L151.78 723.6 L152.5 722.15 L157.4 718.74 L161.25 713.97 L161.9 712.63 L165.31 710.48 L165.96 709.76 L166.64 708.47 L167.06 707.85 L169.87 705.59 L170.15 705.22 L171.84 702.35 L174.14 699.9 L175.42 699.03 L198.88 686.95 L204.51 683.15 L211.25 679.66 L214.42 677.52 L224.54 667.94 L233.02 655 L235.25 652.31 L236.8 650.99 L239.93 649.84 L241.21 648.4 L243.19 645.22 L245.27 642.55 L246.22 640.88 L246.62 639.15 L247.04 638.34 L249.99 636.19 L250.38 635.59 L251.11 633.61 L254.5 628.5 L255 627.44 L255.19 625.44 L255.69 623.32 L256.43 621.4 L257.3 619.98 L261.23 616.34 L261.85 615.16 L262.35 613.65 L265.79 608.98 L276.47 597.33 L284.89 582.35 L290.06 569.95 L290.87 566.42 L292.26 554.28 L293.77 547.95 L293.99 546.06 L293.64 543.51 L292.73 542.26 L291.45 541.38 L290.06 539.89 L289.14 538.26 L287.04 533.46 L286.36 530.29 L285.67 529.83 L284.75 529.73 L283.83 529.39 L283.09 528.65 L281.58 526.07 L275.69 522.07 L273.94 521.98 L272.04 521.56 L270.84 520.19 L270.99 516.52 L272.73 512.92 L274.92 509.51 L276.47 506.4 L277 504.25 L277.07 503.06 L276.75 502.15 L276.17 501.29 L276.12 500.68 L276.33 499.99 L276.47 498.85 L275.85 479.99 L275.54 478.27 L274.22 474.82 L275.25 472.56 L277.39 458.94 L277.59 453.42 L277.23 451.17 L276.36 449.95 L275.27 449.05 L274.22 447.74 L276.79 444.42 L278.71 441.09 L280.63 435.28 L281.58 433.9 L283.1 432.52 L283.63 431.81 L284.09 430.09 L285.24 428.87 L285.74 427.76 L286.84 426.17 L287.25 425.26 L288.41 417.5 L289.06 415.97 L296.59 407.75 L299.92 403.06 L300.53 402.4 L301.74 401.47 L302.42 400.74 L303.04 399.79 L303.76 398.13 L304.16 397.43 L313.85 387.36 L314.84 385.38 L315.47 383.94 L316.43 380.04 L316.57 378.44 L316.98 377.24 L319.96 373.5 L321.13 370.8 L321.77 367.8 L322.2 357.75 L321.85 357.28 L320.3 356.5 L319.96 355.79 L320.15 353.68 L320.67 352.19 L322.9 347.82 L323.51 345.87 L323.66 343.94 L323.02 342.38 L322.29 341.39 L321.57 339.97 L321.08 338.35 L321.03 336.71 L322.6 333.73 L334.76 323.37 L344.12 312.19 L352.09 306.53 L354.88 303.88 L364.19 291.25 L374.53 279.75 L375.16 278.6 L375.25 277.36 L375.2 275.24 L375.95 273.99 L382.76 265.87 L383.42 265.5 L384.13 265.7 L384.93 266.58 L385.64 266.78 L387.65 266.67 L389.14 266.31 L392.16 264.76 L395.14 262.33 L399.96 256.35 L402.89 253.94 L406.31 252.49 L417.55 249.89 L425.37 246.38 L429.41 244.57 L433.22 243.6 L435.26 242.74 L437.05 240.45 L439.1 239.52 L444.6 237.8 L447.88 236.09 L449.42 235.74 L450.94 234.89 L452.31 233.2 L453.7 231.93 L455.32 232.36 L456.28 231.75 L457.07 231.88 L457.84 232.26 L458.75 232.36 L459.53 232.05 L460.97 231.14 L463.38 230.66 L465.09 229.96 L466.65 229.08 L467.73 228.25 L470.51 224.63 L472.9 223.47 L475.2 220.63 L476.78 220.08 L476.22 220.82 L477.88 221.39 L479.62 220.86 L480.57 220.22 L486.63 216.13 L489.78 213.3 L492.77 211.64 L496.09 210.42 L499.02 209.94 L499.06 209.94 L500.47 209.41 L503.07 207.09 L506.04 206.04 L514.64 199.1 L523.3 189.62 L530.58 177.4 L536.01 165.66 L545.05 151.97 L545.89 150.28 L547.27 146.35 L549.17 143.28 L566.94 105.63 L574.08 81.13 L589.02 43.13 L589.46 41.2 L589.61 38.73 L589.97 37.3 L591.74 33.28 L593.45 27.81 L593.6 26.95 L593.85 26.01 L594.93 24.47 L595.18 23.47 L595.67 18.7 L596.24 16.34 L596.98 14.81 L598.56 13.12 L601.41 12.65 L608.98 13.77 L609.98 13.58 L612.2 11.34 L613.22 10.55 L614.72 9.74 L616.22 9.37 L617.26 9.89 L618.69 9.21 L620.65 9.16 L622.6 9.65 L624 10.59 L628.85 7.68 L630.23 6.43 L633.18 3 L634.71 1.64 L636.42 0.81 L637.09 0.86 L637.46 1.23 L638.45 1.79 L639.21 1.74 L639.53 0.96 L639.72 0.18 L639.93 0 L640.44 0.21 Z "/>
</g>
</svg>
