<svg xmlns="http://www.w3.org/2000/svg" viewBox="0 0 1000 1633.81">
<g fill="#ccc" stroke="#333" stroke-width="0.5" stroke-linejoin="round">
<path fill-rule="evenodd" d="M178.67 1631.67 L179 1604.54 L178.03 1595.92 L173.59 1586.94 L172.89 1584 L171.71 1573.18 L172.17 1570.12 L175.28 1561.84 L175.62 1559.04 L174.98 1555.42 L173.86 1551.54 L173.37 1547.78 L174.6 1544.49 L168.34 1542.88 L165.64 1541.42 L163.19 1539.08 L159.5 1527.05 L159.11 1523.92 L159.68 1521.02 L163.68 1510.55 L164.42 1509.29 L165.62 1508.12 L166.53 1507.56 L167.18 1506.92 L167.56 1505.53 L167.55 1503.27 L166.69 1496.73 L166.14 1494.55 L165.15 1492.4 L164.8 1489.15 L164.92 1485.72 L165.3 1483.09 L166.9 1478 L166.76 1455.41 L166.68 1438.9 L166.61 1426.52 L166.51 1409.07 L166.44 1394.65 L167.21 1387.55 L166.7 1379.56 L164.33 1371.63 L161.03 1364.45 L155.69 1352.81 L155.09 1348.44 L154.47 1332.12 L154.41 1330.43 L153.9 1328.8 L152.79 1327.48 L146.72 1322.98 L144.94 1321.3 L143.63 1319.15 L139.81 1310.13 L136.18 1297.29 L134.33 1293.58 L125.3 1283.78 L123.54 1280.14 L122.96 1275.91 L124.94 1252.54 L124.36 1249.44 L117.9 1229.2 L114.02 1217.07 L109.18 1201.92 L104.33 1186.77 L100.17 1173.79 L101.1 1171.96 L108.6 1166.64 L114.72 1162.27 L119.61 1156.81 L124.54 1151.29 L129.48 1145.77 L134.4 1140.25 L139.33 1134.72 L144.25 1129.21 L149.19 1123.7 L154.11 1118.18 L159.05 1112.67 L163.98 1107.17 L168.91 1101.66 L173.83 1096.15 L178.76 1090.65 L183.7 1085.15 L188.63 1079.66 L193.56 1074.17 L198.48 1068.68 L203.04 1063.6 L206.38 1059.81 L210.02 1062.16 L209.89 1061.69 L209.77 1061.26 L202.92 1049.47 L203.04 1049.08 L203.4 1048.53 L203.75 1047.89 L203.76 1047.21 L203.49 1047 L203.07 1047.02 L202.65 1046.96 L201.8 1045.79 L200.44 1044.93 L199.92 1044.04 L207.19 1034.66 L211.94 1028.54 L214.14 1024.12 L214.72 1020.27 L213.43 1009.82 L212.08 999.03 L212.26 994.87 L213.25 990.6 L216.22 986.74 L220.3 986.21 L224.73 986.76 L228.76 986.08 L231.14 983.45 L234.21 977.42 L237.16 971.64 L243.27 964.05 L247.44 958.85 L248.17 957.57 L248.69 956.13 L249.36 953.06 L249.31 952.26 L248.68 950.92 L248.56 950.22 L248.77 949.25 L250.05 946.88 L250.52 945.33 L251.22 940.45 L252.07 939.55 L253.6 939.26 L255.09 938.79 L255.82 937.36 L256.37 934.29 L257.65 933.17 L262.68 933.34 L262.41 932.57 L261.85 930.23 L262.19 922.84 L264.01 916.94 L264.15 912.82 L264.79 910.48 L265.08 908.55 L264.14 907.45 L262.06 906.57 L260.03 905.28 L258.47 903.68 L257.69 901.92 L258.47 898.05 L258.33 896.03 L256.66 895.08 L254.91 895.68 L252.1 898.58 L249.98 899.17 L247.81 899.06 L246.11 898.66 L245.04 897.58 L244.72 895.36 L245.02 894.35 L245.58 893.48 L245.98 892.52 L245.84 891.22 L245.61 890.24 L245.58 889.32 L246.25 882.1 L246.22 880.27 L245.58 878.1 L244.26 877.64 L242.55 877.86 L240.74 877.77 L239.75 876.59 L239.64 874.54 L240.23 870.49 L240.04 867.56 L240.26 866.58 L243.77 862.58 L245.14 860.37 L245.89 858.7 L246.22 856.92 L246.32 854.46 L249.05 842.12 L248.45 838.71 L247.66 837.73 L246.78 837.03 L246.04 836.26 L245.57 835.04 L245.36 833.88 L245.07 833.2 L244.53 832.75 L243.51 832.32 L241.88 832.14 L236.03 833.02 L234.76 832.96 L233.69 832.59 L232.95 831.8 L232.72 830.47 L232.88 829.21 L232.72 828.12 L232.01 825.9 L232.15 824.68 L233.06 823.85 L234.27 823.17 L235.27 822.41 L234.09 821.62 L233.49 820.16 L232.84 814.8 L232.98 813.9 L242.03 809.63 L244.88 809.21 L248.73 809.51 L251.21 809.29 L252.83 807.97 L253.84 805.83 L254.5 803.17 L254.7 799.89 L253.97 797.18 L251.14 791.54 L249.93 787.98 L249.61 785.94 L249.85 784.27 L251.01 782.92 L252.62 782.24 L254.41 781.72 L256.09 780.83 L257.92 779.72 L259.99 778.75 L261.66 777.47 L262.29 775.46 L261.96 774.44 L260.76 773.02 L260.62 772.05 L260.89 772.12 L262.87 769.22 L265.58 767.15 L266.02 766.06 L265.29 764.16 L263.59 762.26 L259.19 758.67 L257.77 756.58 L257.35 755.09 L257.51 754.27 L258.07 753.52 L258.8 752.21 L259.64 750.09 L259.7 749.35 L259.39 746.08 L256.08 735.88 L255.88 733.65 L256.39 731.69 L256.47 730.85 L255.32 729.47 L255.17 728.54 L255.65 727.75 L256.4 727.26 L257.12 726.6 L257.5 725.31 L257.32 723.56 L256.21 720.79 L256.07 718.86 L256.33 716.93 L256.93 714.88 L257.96 713.23 L259.52 712.5 L261.92 710.89 L262.3 707.28 L262.02 702.95 L262.38 699.17 L263.94 695.5 L264.31 693.61 L263.92 691.57 L262.63 689.83 L259.1 688.21 L257.46 686.92 L257.04 686.1 L256.05 682.77 L256.04 681.68 L256.64 681.02 L257.46 680.49 L258.07 679.72 L261.76 672.48 L263.1 670.41 L263.53 669.74 L264.11 668.19 L264.04 666.63 L263.38 665.75 L261.28 664.57 L260.46 663.89 L259.48 661.93 L259.13 659.78 L259.09 658.8 L258.97 655.13 L257.69 649.06 L255.28 643.38 L251.35 636.37 L246.03 626.87 L245.9 626.24 L252.64 619.61 L254.12 617.66 L255.74 614.51 L258.39 604.15 L259.04 601.33 L257.88 601.47 L256.32 602.13 L253.5 603.93 L251.97 604.36 L249.02 604.16 L243.26 602.88 L240.31 602.69 L238.85 602.94 L237.54 603.45 L236.73 604 L236.7 603.99 L236.16 603.77 L233.66 601.84 L232.72 597.96 L232.65 595.7 L232.2 594.29 L231.14 593.3 L219.88 588.75 L204.98 582.7 L195.28 578.78 L187.88 577.65 L169.29 578.11 L159.53 576.54 L158.03 575.81 L157.21 574.32 L156.75 570.58 L155.92 568.84 L154.8 567.9 L150.86 565.82 L149.04 564.27 L143.34 558.01 L140.76 555.86 L138.45 554.82 L122.75 553.77 L119.13 551.96 L117.72 550.95 L115.84 550.68 L113.81 550.66 L111.97 550.42 L111.8 550.13 L111.92 549.66 L111.95 549.2 L111.51 548.95 L111.13 548.99 L110.39 549.17 L110.04 549.1 L109.45 548.45 L109.15 547.54 L108.75 546.64 L107.81 545.98 L105.99 544.97 L104.8 543.62 L103.04 540.31 L101.7 538.61 L100.15 537.5 L98.38 536.83 L88.83 534.56 L84.66 534.23 L82.3 535.7 L81.53 537.08 L80.82 537.04 L80.08 536.46 L79.28 536.26 L77.9 536.97 L76.16 538.96 L75.06 539.91 L72.97 540.83 L71.4 540.61 L70.01 539.53 L68.49 537.91 L64.7 535.24 L60.52 534.36 L50.39 534.43 L35.05 534.54 L28.3 534.58 L17.75 534.66 L17.63 527.86 L17.44 516.16 L17.29 506.85 L17.15 498.96 L18.48 498.42 L18.7 498.17 L17.62 495.3 L17.12 494.53 L14.44 491.66 L14.24 490.31 L14.85 488.16 L16.58 484.79 L16.83 483.81 L16.53 482.87 L15.15 480.93 L14.85 479.81 L14.61 473.46 L14.21 471.46 L13.55 469.65 L12.57 467.92 L11.38 466.64 L10.03 466.13 L6.97 464.12 L4.64 459.48 L1.13 447.3 L0.67 443.08 L0.67 438.74 L0 435.83 L0.05 435.19 L0.06 435.15 L1.6 434.73 L9.84 433.74 L16.8 430.24 L25.55 425.85 L35.54 422.17 L43.55 419.2 L56.6 414.4 L65.94 412.24 L79.25 409.16 L80.93 409.03 L90.67 406.65 L102.78 403.7 L112.57 401.31 L120.63 398.29 L129.38 393.65 L135.84 390.23 L149.28 385.76 L161.66 381.64 L171.09 378.5 L178.19 375.21 L181.79 374.09 L189.34 372.7 L198.09 369.69 L207.98 366.29 L222.2 361.4 L238.02 355.95 L254.21 350.39 L266.04 346.32 L274.23 343.51 L281.06 341.16 L286.24 344.05 L288.35 345.71 L289.39 348.47 L288.92 353.29 L289.32 355.03 L291.68 358.93 L292.46 359.82 L293.81 360.7 L294.64 361.04 L295.32 361.67 L295.58 362.17 L296.89 364.72 L298.54 367.03 L303.3 376.74 L305.01 379.04 L306.23 380.02 L310.19 381.82 L311.44 382.92 L312.06 384.08 L312.54 385.29 L313.34 386.55 L314.42 387.4 L316.95 388.58 L318.02 389.44 L318.82 390.66 L320.15 394.34 L320.73 395.91 L321.52 397.21 L322.64 398.21 L324.29 398.73 L325.22 398.06 L325.52 396.33 L325.53 392.97 L326.33 390.15 L327.75 387.96 L329.74 387.33 L334.8 391.24 L337.46 391.52 L340.13 390.53 L345.59 387.18 L348.17 386.52 L350.92 386.53 L360.81 387.86 L361.55 387.37 L362.64 384.92 L363.33 383.93 L366.34 382.64 L373.19 382.45 L382.49 379.1 L383.2 379.01 L384.71 379.18 L385.46 379.03 L386.18 378.56 L386.86 378 L387.57 377.53 L388.39 377.39 L391.03 378.81 L391.81 379.94 L393.07 381.76 L396.14 388.09 L398.33 390.8 L403.23 395.68 L404.76 398.77 L404.88 402.01 L403.6 407.8 L404.5 411.12 L406.07 414.26 L407.08 417.12 L407.61 420.19 L407.64 427.37 L407.86 429 L408.42 430.94 L409.26 432.5 L410.29 433.96 L410.97 435.44 L410.8 437.08 L410.11 438.52 L408.19 441.19 L407.64 442.56 L407.85 443.94 L408.44 445.16 L408.69 446.27 L407.82 447.33 L407.6 448.99 L408.61 456.45 L409.55 463.37 L409.18 465.91 L407.45 468.44 L406.19 469.4 L404.96 470.06 L403.81 470.86 L402.74 472.29 L402.3 473.5 L401.84 475.97 L401.21 477.18 L399.32 478.35 L397.47 481.35 L395.78 482.22 L394.6 483.86 L394.59 487.15 L395.45 493.04 L395.15 496.92 L394.03 500.02 L388.22 508.17 L388.18 508.23 L387.16 508.83 L385.22 509.44 L383.62 510.21 L381.95 511.5 L379.28 514.41 L378.27 516.86 L377.79 520.28 L377.97 523.76 L378.99 526.48 L380.15 527.51 L383.28 529.01 L384.65 529.86 L392.5 538.16 L394.08 540.38 L394.5 543.13 L392.64 549.46 L392.26 552.79 L396.14 561.35 L397.98 563.24 L401.21 563.36 L405.38 563.98 L407.48 566.17 L410.12 572.96 L411.13 574.48 L412.3 575.64 L415.34 577.96 L415.98 578.66 L416.47 579.56 L417.63 582.47 L418.21 582.92 L418.92 583.18 L424.88 586.37 L426.09 587.72 L427.78 591.01 L428.73 592.32 L433.1 596.05 L433.86 597.4 L434.54 599.52 L435.46 601.02 L436.9 601.88 L438.55 602.59 L439.41 603.22 L440.06 603.7 L440.46 604.51 L440.76 606.41 L441.19 607.15 L441.83 607.51 L443.27 607.78 L443.91 608.02 L445.19 608.96 L446 609.85 L447.73 612.18 L450.5 614.4 L453.18 614.84 L455.98 614.57 L459.08 614.66 L461.2 616.24 L462.06 619.29 L462.12 622.85 L461.84 626.01 L460.74 628.71 L458.67 630.19 L456.29 631.37 L454.25 633.08 L453.51 636.15 L456.57 640.88 L456.28 643.42 L457.72 644.82 L462.67 645.6 L472.15 645.93 L477.5 645.34 L477.53 645.34 L478.24 644.22 L478.75 642.87 L478.99 641.23 L478.87 639.24 L478.04 635.54 L478.16 633.95 L479.16 632.15 L479.64 630.87 L479.07 630.03 L476.03 628.21 L475.59 627.75 L475.55 627.13 L476.01 626.63 L476.58 626.2 L476.89 625.74 L476.67 622.01 L476.89 619.94 L479.25 617.93 L478.77 615.48 L476.89 611.65 L476.51 609.71 L476.23 603.21 L475.94 602.69 L473.68 600.2 L473.42 600.01 L472.62 599.66 L472.33 599.47 L471.96 598.94 L471.47 597.92 L471.04 597.46 L470.44 597.12 L468.38 596.32 L467.52 596.17 L466.47 595.82 L465.92 595 L465.53 593.99 L464.03 591.56 L462.48 587.2 L463.68 586.36 L470.24 581.96 L471.53 580.6 L472.05 578.84 L472.02 574.94 L472.38 573.62 L472.52 573.13 L474.74 570.43 L475.11 569.44 L473.98 566.69 L473.77 565.65 L474.41 561.12 L476.14 557.44 L478.21 554.97 L478.75 554.31 L485.3 548.33 L487.07 547.12 L489.2 546.56 L491.06 546.66 L492.99 547.2 L494.54 548.25 L495.22 549.89 L496.03 550.65 L497.29 551.26 L498.46 551.31 L499.07 550.41 L499.36 548.89 L499.82 548.31 L502.1 548.08 L511.07 545.36 L512.04 545.31 L513.82 545.64 L514.68 545.56 L515.67 545.06 L522.49 540.29 L523.91 538.67 L524.8 536.56 L524.9 535.02 L524.37 532.04 L524.33 530.49 L524.98 528 L525.94 524.35 L526.88 510.29 L527.47 501.63 L528.31 489.44 L528.84 481.7 L528.84 481.61 L529.11 477.61 L526.43 466.65 L524.23 457.54 L523.85 455.96 L523.82 453.69 L524.44 451.25 L529 440.49 L531.58 434.33 L535.11 425.94 L533.09 426 L531.88 425.81 L531.25 424.95 L530.29 404.6 L529.75 402.94 L528.65 401.53 L524.07 396.87 L520.65 392.52 L517.26 388.2 L507.38 375.65 L499.24 365.3 L492.93 353.1 L484.87 343.43 L476.28 333.12 L466.17 321 L457.98 311.17 L449.75 303.6 L440.15 294.77 L437.28 292.99 L437.2 292.94 L434.05 291.79 L430.84 291.29 L418.8 291.5 L417.29 291.2 L416.28 290.67 L416 290.27 L415.89 289.69 L415.44 288.62 L413.54 285.21 L412.44 283.7 L410.84 282.09 L410.52 281.78 L410.41 281.59 L407.32 274.57 L407.08 266.65 L407.7 258.47 L406.61 248.84 L405.3 237.29 L403.76 223.76 L402.54 212.96 L397.34 194.42 L391.81 174.79 L389.48 166.5 L389.33 165.97 L389.77 161.63 L391.78 156.77 L401.89 141.41 L409.06 130.54 L412.88 121.09 L413.59 117.3 L413.77 113.42 L413.14 109.25 L413.13 107.51 L414.03 106.28 L417.28 105.48 L446.75 105.82 L485.97 106.22 L489.9 106.11 L490.06 106.64 L490.69 107.25 L491.56 107.54 L493.87 107.65 L494.28 107.61 L495.54 107.1 L495.56 107.01 L496.17 106.83 L496.54 106.62 L496.97 106.66 L497.81 107.31 L498.32 108.03 L498.56 108.7 L498.99 109.23 L500.06 109.58 L500.17 107.93 L501.2 107.86 L502.72 108.46 L504.26 108.86 L506.47 107.61 L506.58 107.62 L511.65 106.28 L512.59 105.67 L513.25 103.7 L514.04 102.37 L515.08 101.09 L516.22 100.35 L515.49 98.24 L517.22 97.21 L521.94 96.35 L523.6 95.04 L526.54 91.31 L527.78 90.46 L531.63 91.17 L534.3 92.31 L534.9 92.48 L538.45 92.44 L539.7 93.07 L541.32 95.04 L540.43 97.18 L541.27 99 L543.03 99.93 L544.85 99.39 L546.2 99.3 L548.16 100.19 L551.59 102.31 L552.52 102.69 L554.6 103.23 L555.5 103.62 L556.29 104.24 L556.9 104.89 L557.54 105.39 L558.4 105.58 L559.91 106.32 L560.44 108.11 L560.65 110.29 L561.28 112.2 L560.68 113.64 L560.96 115.62 L561.81 117.35 L562.89 118.11 L566.77 117.44 L567.89 117.64 L569.35 118.53 L570.32 118.81 L571.7 118.66 L575.12 117.68 L578.08 117.23 L578.73 116.79 L579.22 116.34 L579.66 116.13 L590.65 116.13 L591.38 116.65 L591.95 118.9 L592.54 119.41 L593.07 119.6 L595.43 120.79 L597.05 120.96 L602.95 120.01 L604.35 119.53 L606.86 119.25 L607.55 118.81 L608.05 118.2 L608.97 117.44 L612.44 116.11 L613.51 115.54 L614.36 114.74 L616.97 110.88 L621.23 105.82 L622.83 105.29 L623.72 105.74 L625.58 105.88 L627.91 107.4 L629.3 107.67 L638 106.88 L638.88 106.5 L639.72 105.86 L641.19 104.99 L642.32 107.94 L644.88 111.16 L648.16 113.94 L651.47 115.54 L659.46 117.36 L663.56 117.81 L666.93 117.44 L667.84 117.02 L668.58 116.55 L669.31 116.19 L670.2 116.13 L671.28 116.65 L672.96 118.42 L673.72 118.81 L678.38 120.13 L680.53 120.13 L682.31 119.83 L682.95 119.5 L683.73 118.81 L684.26 117.86 L684.79 116.53 L685.52 115.34 L686.66 114.82 L688.62 114.4 L692.02 112.6 L694.07 112.2 L697.05 112.17 L699.06 111.81 L700.81 110.81 L705 107.44 L711.84 104.41 L713.79 103.03 L714.97 101.98 L715.74 100.7 L715.56 99.52 L715 98.34 L714.62 97.06 L715.12 94.91 L717.37 90.88 L717.24 89.15 L718.12 87.98 L719.57 83.65 L719.81 82.24 L720.45 81.41 L726.36 78.04 L727.92 77.66 L731.75 77.42 L732.58 77.21 L733.47 76.26 L738.84 75.34 L740.96 75.39 L741.7 75.4 L741.7 75.25 L741.99 74.98 L742.47 74.75 L743.04 74.74 L743.2 74.98 L743.7 75.86 L744 76.05 L744.91 76.35 L746.76 77.71 L747.88 78.02 L748.96 77.83 L751.04 76.96 L751.97 76.7 L756.31 77.38 L759.69 79.73 L764.88 85.21 L768.21 86.93 L775.67 88.81 L778.42 90.43 L778.47 90.46 L780.82 87.54 L790.08 81.23 L792.2 78.54 L793.7 77.26 L796.5 76.49 L798.41 75.6 L799.43 75.4 L800.56 75.52 L802.59 76.01 L803.63 76.05 L805.35 75.13 L809.09 71.55 L810.33 70.75 L812.3 70.26 L813.95 69.1 L816.47 66.89 L819.64 66.16 L831.94 66.17 L835.19 65.52 L838.09 64.21 L840.31 64.65 L844.14 66.75 L846.12 67.49 L848.62 67.52 L850.98 66.8 L853.17 65.59 L871.61 50.75 L873.1 49.93 L874.71 49.39 L881.96 48.85 L897.74 45.37 L900.12 44.36 L909.53 37.84 L919.23 33.67 L921.02 32.73 L932.78 23.49 L935.41 22.51 L936.5 21.44 L938.27 19.11 L943.83 13.57 L947.39 10.91 L953.48 8.77 L956.86 6.34 L959.85 3.32 L961.34 0.55 L962.95 0 L964.4 0.34 L964.97 1.31 L963.97 2.57 L965.75 2.97 L968.26 0.83 L969.82 1.86 L970.29 3.87 L969.3 5.46 L967.9 6.72 L967.19 7.79 L967.9 9.31 L969.6 9.94 L971.56 10.32 L973.02 11.06 L973.68 12.51 L973.9 15.77 L974.59 17.3 L975.94 18.07 L979.63 18.54 L981.07 19.26 L981.85 20.85 L980.48 21.27 L976.87 20.92 L973.84 21.78 L965.9 28.05 L966.54 31.38 L967.28 30.87 L967.8 30.27 L968.18 29.6 L968.47 28.76 L970.28 30.31 L976.87 33.63 L978.59 35.59 L976.83 37.41 L971.67 39.87 L969.96 41.43 L968.06 43.89 L966.91 46.58 L967.9 50.13 L967.12 53.44 L967.89 54.39 L968.96 54.12 L970.19 51.74 L971.09 51.12 L973.49 52.16 L973.46 54.89 L972.17 57.94 L970.74 59.94 L967.74 63.14 L967.19 64.2 L967.12 65.44 L967.83 67.83 L967.89 68.78 L966.73 70.45 L960.47 75.06 L959.76 76.3 L958.38 79.64 L957.61 80.61 L956.41 81.03 L954.16 81.03 L953.06 81.21 L954.02 82.66 L954.83 84.49 L955.57 85.2 L956.27 83.23 L957.7 84.07 L959.17 85.47 L960.46 87.04 L961.34 88.42 L964.06 87.75 L964.58 90.78 L963.99 94 L963.33 97.71 L962.34 100.69 L961.58 102 L960.47 103.3 L960.07 104.82 L961.17 106.32 L962.62 107.68 L963.33 108.85 L962.76 109.93 L960.64 112.35 L960.47 113.17 L961.48 114.57 L961.78 115.69 L962.04 118.8 L962.48 120.69 L964.22 122.37 L964.52 122.88 L964.64 123.49 L964.81 128.17 L965.35 129.82 L966.54 131.32 L967.35 130.86 L967.86 130.76 L969.17 131.32 L966.62 133.92 L965.98 136.71 L966.62 139.58 L967.89 142.42 L970.74 146.48 L970.74 147.37 L969.33 148.88 L968.73 149.88 L968.47 152.98 L967.35 157.6 L967.19 158.96 L967.55 160.66 L969.28 163.31 L969.82 164.86 L969.62 166.46 L968.91 168.43 L967.83 170.12 L966.54 170.84 L965.2 170.43 L963.86 169.86 L962.91 170.12 L962.69 172.14 L965 171.61 L967.07 173.16 L968.56 175.7 L969.17 178.13 L968.88 179.46 L968.29 180.62 L967.89 181.84 L968.17 183.37 L969 184.16 L970.29 184.38 L973.02 184.03 L972.74 185.04 L972.19 185.84 L971.42 186.41 L969.27 186.96 L968.65 187.84 L967.89 189.89 L965.42 193.39 L965.23 195 L966.54 196.52 L967.54 196.96 L968.68 197.15 L972.63 197.34 L973.11 197.79 L973.02 204.4 L973.37 205.79 L974.21 206.4 L975.28 206.68 L978.01 208.08 L978.53 208.88 L977.87 210.07 L976.93 210.22 L975.33 208.37 L974.3 208.37 L973.67 209.31 L973.74 210.54 L974.62 214.78 L975.4 214.81 L976.44 214.26 L977.52 214.35 L978.19 215.35 L978.99 217.86 L979.44 218.36 L980.58 218.69 L981.08 219.5 L981.08 220.56 L980.73 221.65 L979.22 223.2 L977.19 223.65 L975.17 223.11 L973.66 221.65 L973.58 222.42 L973.75 223.39 L974.04 224.14 L974.3 224.28 L972.92 225.15 L970.28 224.92 L969.82 225.64 L970.4 226.45 L971.56 227.21 L972.4 228.33 L972.03 230.22 L970.97 232.78 L970.4 233.56 L969.57 234.36 L969.32 234.45 L969.1 234.08 L968.47 233.56 L968.56 232.75 L968.24 232.11 L967.19 231.58 L966.36 231.5 L965.78 231.65 L963.08 233.09 L961.15 234.46 L959.56 236.05 L958.9 237.52 L959.06 239.35 L959.54 240.39 L964.29 244.75 L965.72 245.22 L967.19 244.7 L968.44 243.01 L967.94 241.64 L966.92 240.31 L966.54 238.77 L967.29 238.09 L968.73 238.04 L970.29 238.44 L971.39 239.1 L972.74 239.47 L974.33 239.03 L975.66 239.05 L976.23 240.76 L975.7 243.89 L973.45 249.48 L973.02 252.67 L973.25 254.39 L974.12 257.64 L974.3 259.33 L973.66 266.6 L973.13 268.49 L971.93 269.62 L970.61 270.57 L969.82 271.91 L970.06 273.07 L971.3 272.59 L973.66 270.61 L973.66 278.52 L974.1 278.35 L975.15 278.09 L975.59 277.92 L975.22 280.12 L972.37 283.21 L971.67 284.82 L971.48 288.97 L970.92 290.98 L969.82 292.43 L969.82 292.44 L971.46 293.8 L972.83 295.56 L974.29 297.07 L976.23 297.72 L976.35 298.35 L975.11 299.83 L972.03 302.71 L970.98 304.61 L971.29 306.78 L973.86 312.35 L974.33 314.11 L975.79 325.6 L977.01 328.2 L977.07 329.26 L977.26 330.33 L978.73 331.74 L979.35 332.56 L979.87 333.47 L980.09 334.25 L980.3 336.66 L981.26 340.92 L981.43 342.91 L980.98 345.51 L979.9 346.67 L976.23 348.09 L977.31 348.74 L978.23 349.66 L978.71 350.81 L978.51 352.15 L977.59 353.26 L976.37 353.7 L973.66 354.11 L970.9 355.76 L971.55 357.4 L972.92 359.39 L972.37 362.13 L973.66 361.71 L974.72 359.85 L975.56 359.81 L976.2 360.63 L975.91 361.61 L975.76 362.59 L976.87 363.44 L975.47 364.5 L974.88 364.76 L975.88 365.35 L976.86 365.33 L977.82 364.86 L978.8 364.1 L978.78 361.27 L981.11 359.46 L985.74 357.52 L986.88 358.31 L988.03 359.67 L988.55 361.13 L988.35 364.08 L988.84 365.17 L990.42 366.09 L989.38 367.48 L988.93 369.31 L988.9 371.21 L989.13 372.79 L987.85 373.21 L985.63 375 L984.63 375.43 L983.33 375.03 L981.53 373.14 L980.09 372.79 L982 383.39 L980.33 382.85 L979.47 383.46 L979.56 384.55 L980.73 385.43 L978.8 387.42 L978.99 387.96 L979.41 388.48 L979.86 388.8 L980.09 388.75 L979.38 393.26 L979.44 394.77 L981.43 392.9 L982.82 390.65 L985.39 382.47 L986.13 381.73 L991.8 378.98 L992.97 378.74 L995.62 379.66 L998.16 381.94 L999.49 384.88 L998.5 387.75 L997.28 388.58 L994.4 389.24 L992.97 389.77 L991.73 390.87 L991.82 391.72 L992.83 392.19 L994.26 392.13 L995.22 391.45 L996.07 390.49 L997 390 L998.18 390.74 L998.66 392.09 L998.52 393.75 L996.56 399.3 L996.73 400.35 L997.54 402.01 L997.84 402.33 L998.39 402.72 L998.98 403.27 L999.46 404.07 L999.58 404.71 L999.59 406.04 L999.79 406.72 L1000 408.25 L998.7 413.95 L998.52 414.49 L998.56 414.96 L999.14 415.68 L999.48 416.24 L999.49 416.8 L999.26 417.32 L998.82 417.72 L994.32 419.62 L993.62 420.36 L993.15 421.19 L989.78 424.71 L988.55 425.94 L987 426.76 L985.3 427.22 L983.65 427.37 L982.86 426.77 L981.81 423.83 L980.73 422.72 L981.1 424.56 L981.2 426.39 L981.73 428.04 L983.35 429.36 L984.85 429.61 L989.32 429.6 L990.42 429.36 L991.38 430.92 L992.39 433.09 L993.08 435.23 L993.04 436.73 L991.64 435.55 L990.68 435.45 L989.78 435.82 L988.55 436.07 L983.35 434.68 L982.51 436.45 L983.69 439.25 L987.2 444.05 L984.28 445.1 L981.35 445.49 L978.77 446.5 L976.87 449.43 L975.52 448.91 L973.61 448.47 L971.72 448.34 L970.4 448.7 L969.91 449.71 L969.13 453.24 L968.47 454.68 L971.82 455.21 L973.49 455.8 L974.88 456.74 L975.69 453.8 L977.59 452.66 L980.01 452.99 L982.36 454.38 L983.65 456.54 L984.36 459.65 L983.97 462.37 L982 463.41 L983.19 464.88 L982.97 466.1 L979.44 469.98 L979.02 470.63 L979.18 472.17 L978.89 472.98 L978.4 473.82 L977.87 474.47 L976.06 476.15 L975.59 476.77 L975.43 477.5 L975.57 479.08 L975.24 479.8 L974.46 481.1 L974.12 482.58 L974.44 483.6 L975.59 483.5 L974.97 484.92 L974.16 486.17 L973.09 487.23 L971.67 488.16 L970.41 488.7 L969.56 488.78 L967.19 488.16 L966.89 490.71 L965.46 492.43 L961.7 495.19 L960.3 496.91 L954.45 506.65 L935.73 526.28 L931.75 528.63 L931.17 529.49 L930.97 530.73 L930.57 531.82 L929.51 532.31 L928.64 532.44 L927.42 532.83 L926.37 533.48 L925.98 534.37 L927.03 535.47 L929.05 534.34 L932.4 530.97 L932.93 533.22 L932.18 534.94 L931.09 536.52 L930.53 538.38 L930.11 540.81 L929.01 542.32 L925.98 545.12 L922.07 552.64 L919.54 556.31 L916.29 557.89 L910.26 558 L908.53 558.5 L902.7 561.65 L899.89 564.1 L899.66 564.52 L899.81 565.36 L900.45 565.72 L901.51 565.86 L901.57 567.02 L901.43 569.43 L901.51 570.6 L902.2 572.62 L903.39 574.36 L904.94 575.72 L906.71 576.63 L902.44 579.36 L900.87 579.96 L900.76 579.27 L900.28 577.98 L900.17 577.28 L899.27 577.71 L898.34 577.95 L897.38 578.03 L896.38 577.95 L896.87 578.41 L897.76 579.5 L898.25 579.96 L895.72 580.87 L894.78 581.47 L893.76 582.64 L893.89 582.82 L893.99 583.43 L893.92 584.22 L893.47 584.99 L891.88 586.67 L890.02 588.03 L886.17 590.21 L883.36 592.53 L879.58 593.76 L878.67 594.4 L876.3 596.84 L859.72 605.48 L845.44 614.63 L843.85 616 L841.4 619.62 L840.09 620.49 L838.37 619.62 L838.36 620.02 L838.34 621.62 L837.31 622.96 L835.67 623.81 L833.81 624.33 L835.47 624.93 L836.87 624.48 L837.72 624.49 L837.72 626.4 L837.15 628.17 L836.09 629.76 L834.73 631.02 L833.23 631.77 L829.85 632.15 L826.57 631.95 L823.44 632.25 L818 635.94 L814.51 637.1 L799.73 638.48 L798.3 637.94 L796.08 635.58 L794.52 635.13 L796.59 637.94 L794.88 640.03 L791.42 641.36 L788.18 641.9 L788.59 640.1 L784.19 644.59 L782.72 644.57 L781.71 643.85 L780.97 643.09 L780.35 642.91 L779.6 643.53 L779.23 644.28 L779.28 645.12 L779.71 645.94 L753.14 656.58 L751.91 657.48 L749.77 659.97 L748.44 660.91 L746.85 660.84 L745.13 658.58 L745 651.94 L743.63 650.02 L744.28 652.04 L743.16 652.48 L741.97 652.4 L740.82 651.97 L739.78 651.37 L741.09 653.39 L743.3 655.69 L744.38 657.86 L742.35 659.5 L744.22 660.79 L742.03 662.5 L735.94 664.88 L723.61 667.57 L718.43 670.36 L706.27 678.73 L705.32 678.89 L705.58 677.6 L703.23 678.6 L699.75 681.63 L696 684.2 L692.74 683.72 L690.42 686.35 L678.34 693.56 L675.82 696.1 L674.41 697.13 L673.04 697.48 L672.08 696.64 L670.49 698.92 L669.56 699.71 L668.22 700.02 L665.71 700.07 L664.76 700.65 L664.38 702 L663.33 703.59 L660.92 705.18 L658.12 706.03 L655.96 705.4 L655.55 709.05 L652.87 712.46 L646.28 718.28 L639.42 729.79 L636.65 732.44 L636.61 731.68 L636.01 729.74 L635.36 730.42 L634.52 729.15 L633.69 728.2 L632.73 727.46 L631.49 726.8 L630.16 725.77 L629.82 724.55 L629.84 723.17 L629.53 721.65 L627.61 719.46 L624.9 718.49 L622.42 719.12 L621.18 721.65 L624.21 719.64 L626.26 721.23 L627.56 724.55 L628.3 727.72 L628.75 731.38 L629.45 732.64 L632.59 733.41 L633.68 734.11 L634.72 735 L636.01 735.82 L633.13 741.29 L631.84 742.97 L629.4 745.53 L628.6 746.93 L628.3 748.72 L627.56 749.92 L625.77 749.64 L623.62 748.92 L621.83 748.78 L620.39 749.71 L619.44 751.14 L617.97 754.18 L619.74 753.51 L622.49 751.47 L623.81 750.81 L622.7 752.88 L616.17 760.93 L612.34 764.17 L603.51 774.55 L599.12 778.64 L596.02 779.34 L595.34 783.33 L594.73 784.76 L594.13 784.32 L592.17 783.41 L592.48 785.37 L592.81 786.04 L591.6 785.92 L589.88 785.97 L588.58 786.32 L588.64 787.09 L589.2 788.31 L588.73 789.47 L587.04 791.53 L583.37 799.45 L581.9 801.7 L582.07 800.39 L581.88 799.51 L581.37 799.22 L580.62 799.66 L580.25 800.44 L579.95 802.6 L579.13 804.72 L579.9 804.99 L580.78 804.58 L580.62 803.8 L580.96 804.01 L581.61 804.28 L581.9 804.48 L582.01 804.78 L582.02 805.74 L583.25 808.02 L582.43 808.99 L580.86 809.58 L579.63 810.23 L577.86 810.91 L575.73 810.23 L573.61 809.12 L571.89 808.53 L569.71 806.38 L566.5 799.98 L566.38 803.05 L568.42 809.94 L568.95 813.5 L567.65 816.75 L568.47 817 L569.08 817.48 L569.44 818.17 L569.58 819.08 L569.21 819.53 L568.39 819.38 L567.09 818.77 L563.99 819.27 L561.24 820.13 L557.91 820.48 L556.51 819.08 L556.05 813.35 L556.25 812.61 L556.62 811.69 L556.62 810.91 L555.75 810.57 L554.86 810.72 L554.32 811.09 L551.49 814.26 L546.99 821 L545.01 822.51 L541.92 822.91 L542.49 820.89 L542.12 819.81 L541.19 819.74 L540.05 820.81 L539.5 822.25 L539.11 824.03 L538.54 825.73 L537.43 826.91 L535.41 827.38 L534.29 826.54 L533.43 825.35 L532.22 824.82 L531.32 825.05 L530.51 825.54 L529.95 826.31 L529.72 827.29 L530.03 828.26 L530.73 828.07 L531.59 827.59 L532.22 827.65 L531.65 829.23 L518.1 838.58 L517.25 839.57 L515.8 841.74 L514.84 842.6 L513.65 842.3 L512.35 843.61 L510.34 847.36 L511.02 847 L511.56 846.87 L512.91 846.68 L512.91 847.36 L510.3 848.84 L507.81 850.85 L503.22 855.52 L505.15 855.52 L504.36 856.89 L500.17 861.76 L499.48 862.24 L498.4 862.44 L497.58 862.77 L497.23 863.56 L496.97 864.55 L496.45 865.47 L491.61 871.97 L482.03 882.25 L471 891.17 L462 900.65 L458.74 902.08 L456.38 902.74 L451.25 908.09 L448.41 910.27 L447.55 909.23 L446.48 909.98 L443.92 913.06 L438.8 916.47 L435.83 915.3 L435.03 914.58 L434.35 913.06 L433.84 910.19 L433.44 908.81 L432.74 908.22 L431.95 907.7 L427.97 904.13 L423.47 902.45 L422.41 901.7 L418.7 896.08 L417.92 895.2 L416.49 894.53 L415.87 892.99 L415.52 891.17 L414.97 889.75 L414.05 889.11 L412.56 888.46 L410.91 887.95 L409.51 887.76 L408.06 888.39 L407.07 891.17 L405.92 891.79 L405.92 892.53 L407.39 892.43 L409.18 890.83 L410.77 890.43 L412.42 890.65 L413.76 891.32 L414.64 892.49 L415.3 895.57 L416.11 897.1 L421.1 904.43 L421.68 904.81 L422.63 905.15 L424.3 905.49 L425.16 905.82 L425.74 906.61 L426.58 908.22 L428.79 910.75 L429.16 911.64 L428.72 914.28 L427.28 917.04 L425.17 918.82 L422.73 918.52 L422.97 920.24 L423.86 920.24 L424.98 919.53 L425.94 919.14 L427.61 919.65 L427.96 920.46 L427.22 923.31 L427.28 924.93 L427.9 928.16 L427.97 929.45 L427.87 930.28 L427.69 930.82 L427.39 931.28 L426.9 931.87 L426.46 932.82 L426.63 933.67 L427.01 934.48 L427.22 935.29 L427.09 937.48 L427.22 938.46 L427.51 939.21 L428.33 940.67 L428.63 942.18 L429.09 943.66 L429.16 944.54 L428.91 945.37 L428.15 946.31 L427.97 947 L427.18 948.2 L425.36 947.67 L422.41 945.91 L420.85 946.31 L419.53 946.93 L418.46 946.87 L417.66 945.3 L417.77 946.05 L417.75 946.62 L417.66 947.34 L419.11 949.02 L425.94 952.82 L425.94 953.44 L425.17 954.26 L424.45 955.46 L423.83 956.88 L422.83 960.24 L422.4 961.29 L420.48 963.43 L419.98 964.9 L422.19 966.45 L421.74 967.53 L420.29 968.6 L419.06 969.05 L417.81 968.83 L416.25 967.82 L416.59 969.3 L417.09 970.77 L417.75 972.08 L418.53 973.08 L419.76 973.94 L421.76 974.32 L422.73 974.79 L423.02 975.48 L423.4 976.94 L423.51 978.61 L423.05 979.97 L419.33 983.16 L418.88 984.38 L422.18 982.65 L424.15 982.18 L425.62 982.7 L425.85 985.3 L426.54 986.3 L427.97 985.13 L428.74 987.24 L429.99 988.18 L431.62 988.88 L433.35 990.28 L434.33 991.51 L435.04 992.8 L435.47 994.39 L435.63 996.48 L436.14 997.41 L438.83 995.44 L440.07 996.17 L439.97 997.76 L438.73 998.72 L437.66 999.79 L438.08 1001.66 L438.61 1000.8 L439.36 1000.23 L440.31 999.85 L441.41 999.6 L445.9 999.94 L446.38 1000.78 L449.45 1003.38 L449.82 1004.36 L449.89 1005.78 L449.75 1008.46 L450.78 1007.85 L451.59 1007.9 L452.14 1008.58 L452.33 1009.84 L452.02 1010.54 L450.7 1011.9 L450.4 1012.96 L450.98 1014.72 L453.86 1017.42 L454.96 1018.84 L454.31 1020.04 L453.82 1021.38 L453.56 1022.81 L453.61 1024.33 L456.24 1022.17 L457.57 1021.85 L459.44 1022.96 L460.08 1023.53 L460.25 1023.78 L460.34 1024.14 L460.73 1025.09 L460.65 1025.77 L460.65 1025.78 L460.22 1026.43 L460.21 1026.92 L461.37 1027.15 L460.73 1029.37 L460.2 1030.41 L459.44 1031.33 L458.42 1030.66 L457.38 1030.55 L456.56 1031.09 L456.23 1032.33 L456.52 1033.06 L457.16 1033.23 L457.81 1033.22 L458.16 1033.33 L458.25 1033.95 L458.13 1034.76 L458.14 1037.59 L457.48 1039.1 L456.25 1039.99 L454.6 1040.27 L453.96 1039.88 L453.2 1039.22 L452.42 1039.09 L451.74 1040.27 L451.62 1041.73 L452.17 1042.42 L453.06 1042.8 L454.46 1043.76 L454.85 1043.83 L455.19 1043.93 L455.52 1044.4 L455.59 1044.93 L455.4 1045.52 L455.15 1045.91 L454.96 1045.85 L455.11 1047 L455.08 1047.9 L455.29 1048.61 L456.23 1049.29 L455.66 1050.49 L456.3 1051.03 L457.38 1051.38 L458.16 1052.04 L458.4 1053.45 L457.74 1053.98 L456.63 1054.23 L455.52 1054.79 L454.54 1056.03 L454.91 1056.42 L455.93 1056.69 L456.87 1057.55 L457.12 1058.7 L456.87 1063 L459.21 1060.49 L462.01 1048.54 L462.15 1050.3 L461.49 1056.81 L460.59 1059.74 L461.37 1068.58 L464.33 1076.32 L470.03 1086.18 L471.4 1087.92 L472.64 1088.65 L475.56 1095.56 L475.79 1099.87 L475.33 1108.66 L476.2 1113.02 L479.02 1119.26 L479.4 1120.92 L479.84 1127.36 L480.82 1132.17 L481.65 1140.65 L478.84 1166.74 L478.82 1171.07 L479.37 1173.56 L480.7 1174.75 L482.38 1175.41 L483.96 1176.29 L485.78 1179.63 L487.13 1181.16 L487.75 1180.08 L487.48 1175.63 L488.17 1174.12 L490.32 1172.81 L488.12 1169.12 L486.85 1164.16 L486.83 1159.18 L488.45 1155.41 L488.06 1154.48 L488.12 1153.73 L488.48 1153.08 L489.09 1152.56 L490.19 1155.56 L491.06 1156.25 L492.3 1154.63 L489.95 1150.36 L489.09 1149.79 L489.56 1148.57 L491.61 1145.64 L491.69 1145.05 L491.58 1144.35 L491.58 1143.74 L491.97 1143.49 L492.36 1143.36 L492.92 1143.07 L493.39 1142.75 L493.59 1142.51 L494 1141.33 L494.97 1140.89 L496.05 1140.99 L496.8 1141.41 L497.17 1142.37 L497.14 1143.56 L496.8 1145.97 L498.72 1163.1 L499.46 1161.36 L499.83 1159.61 L500.19 1153.93 L501.02 1151.49 L501.29 1149.79 L501.93 1149.79 L500.65 1162.34 L500.65 1164.39 L501.29 1171.07 L501.07 1173.24 L496.4 1189.01 L496.1 1201.76 L499.04 1223.96 L500.65 1227.97 L501.57 1226.7 L501.84 1226.1 L501.93 1225.18 L503.57 1225.92 L505.1 1225.95 L505.86 1225.41 L505.15 1224.43 L505.15 1223.79 L507.07 1224.68 L506.58 1227.63 L503.17 1234.67 L501.09 1237.7 L497.44 1246.81 L495.73 1249.84 L495.07 1251.47 L494.82 1253.54 L495.03 1255.68 L495.95 1259.45 L496.1 1261.55 L495.42 1265.85 L489.95 1282.58 L488.45 1295.96 L488.45 1304.79 L488.23 1306.86 L487.62 1309.12 L486.79 1310.02 L485.82 1307.94 L485.91 1305.98 L486.33 1304.15 L485.96 1302.8 L483.64 1302.27 L482.08 1302.65 L482.38 1303.47 L483.41 1304.23 L483.96 1304.43 L484.53 1306.81 L484.6 1307.94 L484.4 1309.88 L483.53 1313.92 L483.32 1316.04 L483.48 1319.43 L483.32 1320.69 L483 1321.74 L482.28 1323.17 L482.03 1324.21 L482.09 1324.83 L482.52 1326.81 L482.61 1328.04 L482.42 1329.21 L481.54 1331.17 L481.33 1332.28 L482.16 1332.19 L486.53 1326.95 L485.02 1323.4 L484.86 1321.51 L485.82 1319.93 L487.2 1319.67 L488.55 1320.49 L491.02 1322.74 L492.8 1323.59 L493.9 1323.6 L494.51 1322.68 L495.21 1315.47 L494.82 1314.32 L494.82 1313.56 L498.67 1314.52 L499.66 1315.67 L500.1 1320.23 L500.38 1321.03 L500.97 1321.34 L501.16 1321.86 L495.75 1339.68 L495.52 1341.78 L495.72 1343.12 L496.6 1345.21 L496.8 1346.37 L496.48 1347.32 L495.81 1348.02 L495.12 1348.6 L494.82 1349.13 L494.32 1351.17 L493.21 1353.1 L478.7 1374.67 L468.05 1386.37 L467.78 1387.4 L467.75 1388.74 L467.55 1389.77 L467.06 1390.68 L460.08 1397.63 L432.42 1412.47 L417.06 1419.87 L401.43 1423.85 L401.19 1423.96 L388.89 1429.23 L386.44 1429.95 L375.99 1434.38 L370.75 1435.22 L349.82 1443.04 L330.57 1450.19 L317.03 1457.41 L305.7 1461.41 L291.87 1469.1 L288.07 1470.11 L288.07 1469.4 L289.6 1468.71 L291.16 1467.65 L292.47 1466.41 L293.27 1465.09 L292.02 1465.49 L288.2 1467.4 L287.37 1468.37 L286.22 1469.23 L283.9 1469.49 L282.18 1470.16 L282.82 1472.32 L283.38 1471.96 L284.75 1471.47 L283.38 1473.77 L281.22 1475.16 L276.4 1477.29 L274.41 1478.68 L250.03 1495.84 L247.4 1498.84 L242.47 1505.87 L240.33 1510.21 L238.62 1516.91 L237.3 1519.15 L237.99 1524.33 L237.54 1525.26 L237.62 1524.66 L237.44 1523.93 L237.05 1522.97 L236.47 1522.97 L235.81 1523.83 L234.94 1524.42 L234.19 1525.08 L233.86 1526.18 L233.76 1527.67 L233.51 1529.08 L233.12 1530.36 L232.57 1531.54 L228.15 1535.82 L227.43 1536.99 L226.92 1537.61 L224.44 1539.71 L223.59 1540.22 L222.47 1540.31 L221.66 1540.02 L219.74 1538.79 L218.15 1538.28 L216.54 1538.23 L215 1538.73 L213.59 1539.85 L212.8 1541.85 L213.18 1543.8 L214.17 1544.94 L215.17 1544.46 L215.08 1543.94 L215.17 1540.55 L215.81 1540.17 L217.2 1540.41 L218.63 1540.88 L219.41 1541.26 L219.88 1542.06 L220.57 1543.8 L221.01 1544.46 L221.93 1545.03 L223.95 1545.81 L224.92 1546.65 L225.59 1547.8 L226.43 1550.19 L227.11 1551.35 L227.92 1552.11 L228.64 1552.63 L229.16 1553.24 L229.71 1556.44 L231.41 1560.92 L231.99 1563.17 L233.61 1561.63 L236 1562.14 L238.31 1563.52 L239.7 1564.6 L241.73 1567.1 L242.95 1569.49 L244.29 1571.59 L246.11 1573.19 L247.19 1573.71 L248.16 1573.28 L249.26 1572.66 L250.66 1572.54 L249.79 1569.21 L249.67 1566.44 L250.17 1563.66 L251.24 1560.3 L252.11 1555.47 L252.89 1554.21 L254.04 1553.35 L257.72 1551.72 L257.78 1554.52 L255.37 1571.33 L254.31 1600.54 L253.03 1608.5 L252.18 1610.88 L251.95 1612.11 L252.53 1616.42 L251.95 1624.75 L251.74 1625.81 L250.66 1628.71 L250.83 1629.78 L251.65 1631.31 L251.95 1632.32 L237.41 1632.75 L224.21 1633.14 L212.06 1633.5 L201.09 1633.81 L195.78 1632.94 L188.94 1631.81 L186.22 1631.7 L181.43 1632.27 Z M421.31 146.83 L420.07 147.69 L418.33 151.86 L417.72 154.12 L417.75 156.14 L418.95 158.12 L420.83 158.76 L422.95 158.4 L424.92 157.27 L426.4 155.48 L427.44 153.1 L427.73 150.66 L426.96 148.72 L425.46 147.7 L423.33 146.94 Z M408.85 144.73 L406.99 146.27 L407.2 147.88 L409.71 150.73 L410.91 152.45 L412.09 153.7 L413.51 153.76 L415.44 151.83 L416.34 148.5 L415.04 145.56 L412.31 143.95 L408.94 144.67 Z M253.23 1549.51 L252.16 1546.44 L254.32 1543.61 L257.71 1541.43 L260.36 1540.22 L260.3 1541.39 L259.66 1544.46 L258.67 1547.44 L258.36 1548.08 L257.48 1549.01 L257.24 1549.11 L256.94 1548.69 L255.86 1548.08 L255.5 1547.6 L255.45 1546.88 L255.11 1546.42 L253.87 1546.65 L253.9 1547.09 Z M494.23 1085.95 L495.3 1083.97 L496.15 1084.04 L496.66 1085.58 L496.8 1088.02 L496.22 1095.33 L492.89 1109.45 L490.97 1109.6 L490.24 1108.18 L490.19 1106.17 L491.22 1098.47 Z M911.75 561.54 L914.95 561.88 L915.21 564.12 L914.78 566.11 L912.28 568.71 L911.5 571.56 L911.68 573.29 L911.16 574.67 L908.83 575.36 L906.75 574.67 L904.5 572.78 L903.11 569.41 L903.46 565.61 L904.49 563.89 L907.17 562.59 Z "/>
</g>
</svg>
