<svg xmlns="http://www.w3.org/2000/svg" viewBox="0 0 1000 2217.91">
<g fill="#ccc" stroke="#333" stroke-width="0.5" stroke-linejoin="round">
<path fill-rule="evenodd" d="M44.55 806.79 L45.43 806.46 L46.26 805.99 L47.01 805.38 L47.66 804.65 L48.93 803.05 L50.29 802.62 L51.66 802.5 L52.89 801.8 L53.72 800.17 L53.72 798.52 L53.46 796.84 L53.47 795.07 L54.13 792.74 L54.4 792.85 L54.96 792.99 L55.45 792.68 L55.53 791.44 L55.13 788.04 L55.45 786.46 L56.54 785.6 L59.24 786.36 L66.3 791.61 L73.47 798.52 L75.45 801.21 L76.35 804.65 L76.9 808.11 L78.06 809.25 L79.37 808.09 L80.42 804.65 L81.26 802.02 L82.9 801.49 L84.73 802.54 L86.16 804.66 L86.75 805.34 L87.42 805.67 L88.14 805.63 L88.89 805.19 L89.14 804.94 L89.34 804.66 L89.45 803.83 L89.41 802.98 L89.23 802.12 L88.89 801.31 L88.17 799.76 L87.83 798.16 L88.03 796.59 L90.07 792.59 L91.15 791.72 L92.51 791.4 L94.51 790.56 L94.19 789.59 L94.34 781.45 L94.17 780.57 L94.41 779.88 L95.73 779.36 L96.77 779.29 L99.74 779.82 L101.75 780.45 L103.27 781.65 L104.96 782.4 L107.43 781.64 L105.36 777.91 L105.41 776.43 L105.55 776.24 L106.1 776.32 L108.51 775.19 L109.6 775.01 L110.46 774.48 L110.98 772.98 L111.05 771.78 L110.12 757.7 L108.74 752.78 L104.78 748.53 L103.86 746.59 L102.7 742.63 L102.6 739.82 L103.8 735.08 L103.96 732.47 L103.29 730.12 L100.78 725.67 L99.9 723.38 L99.55 720.85 L100.52 711.23 L104.17 707.95 L104.56 708.14 L105.61 705.35 L109.58 700.59 L111.19 698.09 L111.39 695.86 L110.69 693.42 L108.48 689.1 L107.59 686.53 L107.04 683.18 L107.25 679.97 L108.61 677.79 L111.36 676.76 L113.52 677.32 L115.25 679 L116.75 681.36 L119.08 683.28 L121.99 683.1 L124.89 681.65 L127.05 679.75 L128.72 677.5 L133.34 668.15 L133.38 666.65 L133.14 665.19 L133.1 663.3 L134 655.15 L133.51 650.04 L133.67 647.94 L134.38 645.97 L136.55 642.87 L136.94 641.84 L136.99 640.74 L136.79 639.37 L136.11 632.3 L136.16 628.91 L139.73 605.48 L139.5 601.48 L139.02 600.21 L137.5 598.03 L136.83 596.77 L133.33 594.35 L131.49 580.24 L131.6 575.9 L131.24 573.95 L130.78 573.11 L130.13 572.53 L129.2 571.35 L126.81 567.37 L125.92 565.38 L125.35 563.21 L125.14 560.62 L125.3 558.29 L125.35 557.63 L126.09 554.85 L127.48 552.9 L130.41 551.82 L132.61 553.09 L135.74 558.07 L136.86 559.5 L140.49 563.22 L141.2 564.88 L141.58 566.42 L142.43 567.51 L144.45 567.81 L146.77 567.61 L150.22 565.63 L152.07 564.96 L152.8 565.31 L153.38 566.17 L154.06 566.81 L155.14 566.53 L155.8 565.92 L156.33 565.12 L156.76 564.19 L157.02 563.22 L159.73 561.54 L165.08 561.27 L170.7 561.98 L174.25 563.21 L178.67 569.27 L180.99 570.42 L189.83 569.29 L193.06 570.06 L196.2 571.29 L200.04 572.26 L202.57 572.74 L208.93 576.26 L210.71 577.7 L212.29 579.96 L213.89 581.77 L215.79 581.89 L217.13 580.4 L217.46 580.03 L217.81 577.56 L217.65 574.9 L217.81 572.49 L218.91 570.07 L223.95 563.21 L224.35 561.46 L224.94 556.79 L225.44 555.61 L226.6 554.22 L227.08 552.09 L227.5 547.72 L228.81 543.12 L234.23 530.2 L234.69 528.17 L235.03 524.06 L235.63 522.13 L236.45 521.1 L238.77 519.44 L239.56 518.44 L239.67 517.43 L239.29 515.31 L239.34 514.58 L240.59 513.17 L241.94 512.21 L242.94 510.81 L243.22 505.87 L243.97 504.42 L245.24 503.37 L246.93 502.3 L248.46 496.09 L249.31 494.33 L250.62 493.04 L255.59 489.8 L256.93 486.98 L259.25 478.6 L260.18 476.65 L261.81 476.34 L263.19 476.36 L264.56 476.17 L266.09 475.25 L267.43 473.57 L268.31 471.48 L268.73 469.19 L268.73 467 L269.37 463.37 L273.83 457.33 L275.57 454.1 L277.65 443.61 L279.45 441.12 L281.55 437.34 L282.13 432.14 L281.35 427.03 L279.39 423.52 L275.4 421.61 L270.92 420.72 L266.91 419.22 L264.29 415.47 L263.94 410.41 L270.37 392.05 L272.87 388.02 L275.08 385.65 L276.09 384.56 L279.71 382 L281.83 381.2 L285.68 380.73 L287.75 380.11 L289.75 378.52 L292.59 373.84 L294.19 371.81 L295.16 371.39 L297.35 371.35 L298.41 370.81 L298.49 370.29 L297.59 369.14 L297.65 368.49 L298.1 368.08 L299.27 367.42 L299.67 367.01 L309.65 352.22 L310.49 351.28 L311.56 350.85 L313.92 350.55 L314.91 349.86 L315.63 347.64 L315.43 344.85 L313.18 332.11 L313.27 329.7 L314 327.03 L315.27 325.87 L319.42 324.35 L321.25 323.11 L325.96 318 L329.44 313.69 L330.74 311.22 L330.61 308.62 L329.21 307.14 L325.23 305.84 L323.73 304.52 L322.64 296.2 L323.09 295.15 L323.9 294.18 L324.43 293.26 L324.02 292.31 L323.13 291.83 L322.21 291.62 L321.31 291.28 L320.46 290.46 L319.08 286.71 L318.57 281.8 L318.78 276.82 L319.54 272.93 L321.07 268.77 L321.27 266.93 L320.79 264.56 L318.66 260.45 L318.45 258.48 L319.97 256.08 L321.7 254.67 L324.96 250.96 L326.11 249.07 L326.7 247.67 L326.84 246.83 L326.81 246.05 L327.16 242.5 L327.58 241.58 L328.67 240.44 L329.64 239.92 L332.09 239.33 L333.18 238.82 L334.11 237.84 L335.66 235.47 L336.7 234.62 L338.74 234.28 L340.5 236.85 L341.37 236.94 L342.89 237.1 L344.93 236.44 L349.04 234.44 L357.56 231.61 L359.56 230.39 L362.83 226.19 L365.35 220.99 L368.36 216.81 L372.98 215.62 L375.54 216.08 L377.8 216.13 L379.64 215.19 L380.98 212.63 L382.09 209.69 L383.3 208.09 L385.05 207.38 L390.17 206.78 L391.64 206.16 L392.74 204.76 L395.6 199.79 L400.38 193.83 L403.38 192.63 L409.66 191.45 L412.7 189.85 L415.77 186.81 L418.21 183.25 L422.26 175.39 L426.52 169.41 L433.3 164.53 L440.9 161.07 L470.37 155.99 L477.8 156.33 L479.51 156.92 L481.83 156.7 L484.15 155.94 L485.88 154.95 L488.12 152.22 L489.07 150.08 L490.28 149.06 L493.31 149.7 L494.31 150.3 L494.98 150.92 L495.78 151.31 L497.18 151.23 L498.31 150.58 L500.16 148.55 L501.43 148.03 L503.43 148.16 L505.53 148.72 L509.39 150.54 L511.33 151.93 L512.75 153.51 L515.06 157.54 L516.37 159.13 L519.93 162.17 L520.58 163.17 L519.65 165.61 L518.6 167.71 L518.7 169.69 L521.22 171.8 L536.51 178.93 L537.5 179.87 L538.28 180.91 L539.16 181.81 L540.41 182.36 L541.5 182.27 L542.72 181.73 L543.62 181.34 L544.76 181.18 L546.17 181.72 L547.07 182.51 L547.96 182.92 L549.42 182.33 L549.84 181.53 L550.96 178.3 L551.16 177.33 L550.55 176.02 L549.61 175.26 L548.6 174.65 L547.78 173.75 L547.48 172.6 L547.44 170.34 L546.79 169.35 L543.73 166.12 L525.64 142.19 L523 137.72 L522.51 135.35 L523.98 131.67 L523.79 129.82 L523.36 128.74 L522.96 126.41 L522.88 125.23 L522.55 124.07 L521.31 122.15 L520.85 120.9 L520.86 118.28 L521.76 115.8 L523.24 113.63 L525.04 111.98 L529.46 108.91 L531.4 107.14 L535.17 102.3 L536.63 101.34 L540.2 100.26 L541.8 99.77 L542.49 99.77 L542.89 99.31 L543.07 97.69 L543.44 96.36 L544.22 95.7 L546.43 94.91 L547.09 94.22 L547.96 92.39 L548.68 91.93 L549.87 91.56 L550.82 90.97 L556.42 85.89 L558.19 83.88 L559.62 81.84 L560.95 80.56 L562.99 79.53 L565.15 79.01 L566.89 79.22 L568.19 80.8 L568.26 82.49 L568.73 83.34 L571.18 82.46 L573.24 81.25 L573.76 80.32 L573.55 78.86 L573.48 76.04 L573.97 74 L575.83 70.39 L576.44 68.58 L575.64 65.04 L570.25 59.17 L568.73 55.97 L569.4 51.66 L572.7 44.01 L572.13 40.54 L573.28 38.3 L577.25 36 L578.17 34.72 L578.89 32.04 L580.43 31.53 L582.49 31.89 L584.71 31.85 L585.95 30.43 L586.45 27.9 L586.45 23.13 L586.21 21.94 L585.83 20.79 L585.67 19.65 L586.2 18.53 L587.93 16.66 L588.58 15.61 L588.92 14.19 L590.42 12.21 L592.08 7.68 L593.3 5.54 L594.82 1.13 L596.88 0 L599.25 1.64 L601.74 5.54 L604.37 7.14 L607.42 5.07 L610.68 3.44 L613.92 6.38 L618.41 19.7 L621.23 23.51 L624.78 24.59 L631.64 21.28 L635.92 23.15 L641.17 30.28 L644.94 32.58 L646.52 34.05 L646.62 36.12 L645.62 39.69 L646.31 40.98 L650.79 41.7 L652.71 42.79 L660.09 49.82 L660.5 50.21 L661.41 52.29 L661.53 54.66 L660.92 66 L660.47 68.6 L659.21 71.33 L659.92 72.76 L663.86 74.92 L665.73 76.79 L667.01 78.9 L666.94 80.76 L664.72 81.88 L662.87 83.22 L663.5 85.46 L665.35 87.7 L669.16 90.18 L669.6 91.38 L669.36 93.03 L669.29 95.52 L669.76 96.7 L670.46 97.34 L670.81 98.07 L669.73 101.06 L670.02 102.22 L673.76 108.13 L675.58 112.15 L677.94 121.94 L680.05 126.14 L683.82 127.86 L687.75 126.69 L689.9 123.73 L690.97 119.8 L691.55 115.71 L691.47 111.06 L691.76 108.69 L692.89 107.62 L694.23 108.04 L700.04 111.02 L702.01 112.74 L705.33 111.13 L707.69 112.86 L710.02 117.75 L711.58 119.23 L714.49 119.1 L715.82 118.39 L716.85 117.49 L717.87 116.8 L719.23 116.72 L720.19 117.34 L721.29 118.56 L722.23 119.93 L722.79 121.03 L723.07 123.65 L721.88 128.7 L721.57 133.82 L722.25 144.92 L722.57 146.24 L723.28 146.55 L724.1 146.61 L724.8 147.14 L725.95 151.1 L725.56 155.24 L722.89 163.63 L722.16 167.27 L722.04 171.31 L723.17 179.49 L724.13 181.69 L725.4 182.39 L726.93 182.93 L728.58 184.64 L729.29 187.15 L728.61 189.35 L727.38 191.48 L726.5 193.83 L729.06 204.78 L729.13 205.91 L728.77 207.19 L727.17 209.09 L726.71 210.42 L727.11 212.85 L729.81 216.85 L730.69 219.14 L730.57 221.7 L728.91 226.32 L728.65 228.91 L730.26 232.94 L730.36 233.99 L730.29 235.01 L730.32 236.09 L730.73 237.29 L731.27 239.91 L730.49 242.28 L728.2 246.43 L727.44 250.61 L727.01 266.77 L726.59 269.17 L725.91 271.45 L724.83 273.56 L720.4 278.82 L719.48 281.42 L718.93 283.78 L718.67 285.89 L719.33 287.1 L721.56 286.67 L722.54 287.78 L725.26 293.74 L725.71 295.75 L725.12 296.94 L724.25 297.61 L723.59 298.33 L723.62 300.91 L722.96 301.94 L718.92 305.29 L717.4 305.41 L716.68 303.98 L716.84 299.54 L716.13 299.37 L714.22 300.08 L709.87 301.16 L708.45 302.46 L707.93 304.33 L708.12 306.48 L708.85 308.61 L710.94 313 L711.44 315.25 L711.25 318 L712.03 319.59 L713.14 319.78 L714.45 319.56 L715.78 319.94 L716.8 321.11 L720.44 326.66 L721.46 329.04 L722.02 329.53 L723.39 330.05 L723.96 330.79 L724.25 332.35 L724.01 334.01 L723.41 335.55 L722.63 336.76 L716.88 341.3 L715.1 342.03 L714.02 341.89 L712.97 341.32 L709.8 340.08 L707.26 337.94 L705.85 337.32 L703.92 337.4 L702.66 338.31 L700.04 341.39 L698.57 342.76 L697.6 344.82 L696.12 349.06 L695.34 349.99 L694.5 350.64 L693.84 351.45 L693.61 352.89 L693.57 354.42 L693.23 355.42 L689 360.69 L688.4 362.23 L687 367.66 L685.88 369.5 L684.27 370.84 L681.98 372.01 L679.47 372.88 L678.04 372.63 L674.77 369.34 L673.13 368.42 L664 365.16 L662.87 365.36 L662.69 366.9 L662.79 372.9 L662.22 374.82 L660.98 376.35 L658.93 378.25 L658.39 379.08 L658.36 379.91 L658.94 383.15 L659.4 384.23 L659.75 385.43 L659.55 390.11 L659.76 391.86 L659.35 392.76 L657.3 393.12 L655.72 394.33 L654.26 397.01 L652.3 402.22 L651.03 403.53 L646.46 405.84 L644.67 407.1 L639.62 413.7 L637.3 415.05 L634.96 415.28 L633.84 414.31 L633.06 412.58 L631.78 410.56 L627.71 408.41 L625.19 411.35 L622.53 421.06 L619.98 426.59 L618.14 429.42 L616.37 430.79 L614.37 431.45 L613.92 432.54 L614.54 436.98 L614.34 445.37 L614.89 449.43 L616.65 453.11 L620.75 456.41 L622.08 458.32 L621.22 460.78 L619.36 461.78 L616.92 461.8 L612.41 460.92 L609.96 461.37 L607.58 462.97 L603.3 466.68 L595.77 471.74 L595.75 471.75 L595.39 474.4 L596.03 489.82 L593.28 506.38 L593.22 509.2 L593.92 510.15 L602.93 508.79 L605.56 508.75 L607.28 509.11 L608.11 509.96 L608.66 511.13 L609.02 512.43 L609.23 513.66 L609.81 515.12 L611.86 516.62 L612.67 517.85 L612.81 520.44 L611.11 521.12 L608.81 521.38 L607.1 522.68 L607.8 525.81 L616.01 528.83 L616.65 533.23 L616.03 534.15 L615.21 534.82 L614.49 535.65 L614.14 536.96 L614.47 538.38 L616.05 540.54 L616.53 541.79 L616.2 544.69 L614.82 547.39 L593.57 569.59 L595.41 571.92 L599.82 573.88 L603.95 576.85 L604.57 577.82 L605.05 578.93 L605.6 581.28 L606.97 579.23 L608.12 578.62 L609.04 578.14 L611.41 577.39 L613.61 576.36 L619.32 570.66 L621.5 569.15 L623.92 568.34 L625.53 568.17 L627.06 567.73 L629.12 566.07 L633.6 560.89 L635.08 559.89 L658.98 550.29 L667.48 548.2 L671.66 548.36 L679.89 550.45 L684.05 550.53 L685.9 549.87 L689.39 547.74 L691.26 547.05 L695.64 546.79 L700.04 547.08 L703.23 547.88 L707.65 551.21 L710.67 552.65 L712.34 553.43 L713.66 552.53 L715.37 551.99 L718.47 550.38 L723.07 549.63 L726.89 547.87 L738.21 546.94 L742.35 545.73 L743.51 544.91 L743.65 545.2 L744.37 548.71 L742.45 552.44 L732.38 559.35 L726.96 564.05 L725.01 564.88 L722.86 565.53 L721.01 566.34 L720.52 567.37 L721.29 568.33 L722.26 570.32 L722.09 571.36 L721.18 574.39 L721.11 575.97 L721.92 584.92 L721.57 585.89 L721.04 586.58 L721.06 587.32 L722.39 588.48 L723.42 588.8 L726.02 588.81 L729.36 589.92 L733.75 590.68 L735.45 591.99 L736.1 593.84 L736.24 599.97 L737.09 602.03 L741.72 609.43 L742.43 610.01 L742.58 610.69 L741.79 612.36 L741.02 613.16 L735.79 616.32 L734.47 617.64 L734.08 619.36 L736.2 625.68 L737.3 626.48 L739.55 625.77 L741.64 625.72 L743.31 627.39 L744.6 629.83 L746.16 634.63 L746.46 637.04 L746.22 639.34 L745.3 641.55 L744.41 642.17 L743.11 642.65 L742.12 643.33 L742.14 644.55 L742.92 644.85 L746.93 644.74 L748.51 647.85 L742.89 658.17 L742.76 662.15 L751.03 663.02 L755.18 664.22 L757.36 664.49 L759.47 664.23 L761.37 664.44 L762.12 666.13 L762.79 668.46 L764.55 670.58 L766.76 671.54 L768.67 671.56 L772.88 670.99 L773.84 671.11 L776.66 672.02 L778.29 672.17 L778.73 672.32 L778.98 672.36 L780.01 672.25 L780.58 672.68 L780.62 674.9 L780.89 675.69 L781.72 676.39 L782.5 676.89 L783.42 676.95 L784.67 676.29 L787.04 674.25 L788.07 673.69 L790.08 673.17 L791.1 672.13 L792.01 670.22 L793.33 668.54 L795.53 668.16 L797.43 669.41 L800.77 673.96 L803.24 675.57 L811.57 675.88 L813.22 676.89 L813.44 678.57 L813.06 680.41 L812.93 682.37 L813.86 684.4 L817.84 689.93 L818.22 692.7 L815.69 694.82 L812.27 694.65 L806.21 691.45 L804.37 692.18 L804.13 693.56 L804.76 698.98 L804.48 701.08 L803.28 702.99 L800.53 706.35 L798.33 710.97 L797.4 711.78 L796.04 712.17 L794.79 712.7 L793.65 713.47 L792.65 714.55 L792.64 717.63 L797.88 731.01 L798.14 733.59 L797 737.65 L796.67 740.07 L796.95 741.29 L798.03 743.32 L798.19 744.61 L797.71 745.98 L796.78 747.33 L789.85 754.66 L785.44 756.91 L784.81 758.48 L785.17 759.34 L785.81 760.19 L786.03 761.66 L785.51 763.15 L783.51 765.56 L782.7 766.9 L781.34 772.75 L780.58 774.68 L776.92 779.56 L776.14 781.95 L777.88 783.87 L774.48 785.69 L776.92 788.26 L782.02 790.62 L786.53 791.78 L795.1 792.64 L798.98 792.25 L805.66 789.42 L807.17 789.2 L812.93 791.59 L814.56 791.71 L818.32 791.31 L828.83 793.94 L829.8 794.52 L830.67 795.48 L831.69 797.56 L832.2 798.26 L834.43 799.42 L835.53 798.48 L836.64 796.76 L838.85 795.64 L840.57 796.1 L847.32 799.61 L848.16 800.39 L848.82 801.34 L849.67 801.97 L851.07 801.76 L851.97 800.85 L852.03 798.46 L852.65 797.5 L854.76 797.16 L863.16 798.64 L862.32 800.2 L862.26 801.84 L862.87 803.39 L864.05 804.66 L865.74 808.53 L864.59 813.14 L860.69 821.83 L860.44 824.56 L860.9 826.59 L862.8 830.8 L864.03 837.49 L865.19 839.45 L869.19 841.68 L878.71 841.88 L882.95 843.17 L884.57 844.52 L885.42 845.41 L885.82 846.09 L885.53 847.19 L884.69 847.57 L883.57 847.81 L882.42 848.45 L881.11 850.11 L880.1 852.11 L879.41 854.14 L879.07 855.85 L879.12 857.84 L879.56 860.47 L880.37 862.93 L881.53 864.45 L883.82 866.03 L887.61 871.52 L890.35 872.53 L891.55 871.9 L895.14 869.08 L896.68 868.16 L900.14 866.89 L901.73 865.94 L903.15 864.48 L903.17 864.45 L904.52 862.37 L905.84 861.02 L907.56 860.29 L909.92 860.13 L912.19 860.6 L913.91 861.66 L917.26 864.47 L917.81 866.5 L918.83 868.28 L920.31 869.29 L922.26 869.08 L924.8 868.48 L930.23 869.53 L933.1 869.29 L938.65 867.61 L941.32 866.32 L943.05 864.48 L943.07 864.45 L947.78 861.96 L953.63 855.58 L958.13 848.85 L962.33 845.1 L967.07 842.73 L977.82 839.52 L979.88 838.65 L985.45 834.59 L986.83 833.49 L988.31 832.6 L989.88 832.03 L993.89 832.86 L994.56 834.74 L994.87 840.6 L995.83 841.84 L997.27 842.8 L998.62 845 L999.44 847.45 L999.21 849.19 L1000 850.55 L999.31 851.95 L998.21 853.62 L997.82 855.79 L998.35 857.63 L998.59 859.78 L998.14 861.57 L996.59 862.32 L981.06 875.15 L970.67 880.62 L969.13 881.14 L965.4 885.01 L964.16 886.03 L960.08 887.77 L957.56 888.11 L955.41 887.29 L954.57 886.7 L953.64 886.31 L952.65 886.09 L951.61 886.03 L950.17 886.4 L949.79 887.36 L949.85 888.66 L949.68 890.1 L946.16 904.56 L940.4 915.24 L939.07 917.09 L936.98 918.31 L931.99 919.36 L929.95 920.28 L931.31 923.55 L931.48 924.49 L930.89 925.28 L928.82 926.7 L928.37 927.29 L928.13 929.85 L927.1 934.68 L926.86 937.04 L928.92 938.54 L938.8 936.8 L942.02 937.49 L942.02 938.22 L939.19 940.97 L937.09 942.59 L936.11 943.35 L932.79 945.21 L929.19 946.42 L926.6 946.5 L921.88 945.16 L912.19 943.56 L910.09 943.98 L908.57 945.51 L907.56 947.39 L906.19 948.99 L901.8 950.3 L900.06 951.85 L897.2 955.41 L894.18 958.07 L893.04 959.52 L892.58 961.5 L892.04 963.02 L889.58 966.55 L888.77 968.46 L888.77 970.01 L887.34 973.14 L886.14 977.25 L884.74 987.79 L883.71 991.51 L883.47 994.05 L883 996.14 L881.9 997.8 L880.65 999.29 L880.34 1000.93 L880.41 1002.53 L880.59 1004.56 L875.72 1001.43 L874.85 1000.12 L874.3 998.99 L873.57 998 L872.1 997.09 L870.49 996.76 L869.19 996.77 L867.99 996.35 L866.7 994.72 L865.64 993.79 L865.23 992.7 L864.98 991.55 L864.26 990.51 L863.12 989.59 L862.57 989.48 L862.05 989.75 L855.99 990.65 L853.52 991.49 L851.52 992.82 L850.26 994.65 L848.78 998.93 L847.78 1000.86 L845.9 1002.63 L843.95 1003.3 L839.45 1003.29 L837.15 1003.7 L833.02 1005.47 L830.88 1005.86 L829.8 1005.62 L828.11 1004.44 L827.11 1004.01 L825.95 1003.92 L823.92 1004.2 L822.85 1004.15 L814.32 1001.31 L808.89 997.53 L807.32 996.93 L805.17 997.71 L806.17 999.71 L810.26 1004.04 L811.21 1006.23 L812.47 1013.12 L816.1 1017.07 L816.86 1018.96 L816.28 1021.95 L815.14 1023.98 L814.96 1024.1 L813.91 1024.8 L812.6 1025.47 L811.16 1027.03 L807.48 1030.16 L794.12 1034.34 L791.29 1034.79 L789.02 1033.64 L784.71 1030.03 L782.77 1029.11 L778.18 1027.77 L776.04 1027.56 L771.49 1028.24 L766.59 1030.2 L762.48 1033.29 L760.3 1037.33 L759.08 1045.45 L759.21 1046.62 L759.85 1048.77 L759.93 1049.87 L759.65 1050.43 L759.12 1051.05 L758.59 1051.89 L758.36 1053.09 L758.73 1055.94 L759.28 1058.15 L759.4 1060.39 L758.53 1063.33 L757.06 1065.89 L755.52 1067.22 L751.22 1068.95 L747.24 1071.88 L745.51 1072.25 L743.37 1068.98 L741.97 1067.7 L740.42 1066.59 L737.08 1065.04 L730.57 1070.12 L728.44 1070.86 L718.58 1072.31 L716.62 1073.19 L715.69 1074.11 L713.8 1076.55 L712.95 1077.14 L710.46 1077.62 L708.24 1078.49 L707.09 1079.52 L706.93 1080.32 L706.49 1080.47 L704.59 1079.58 L703.44 1078.62 L702.6 1077.54 L701.62 1076.83 L700.4 1076.96 L700.04 1076.99 L696.16 1079.07 L691.14 1079.23 L685.93 1078.73 L681.46 1078.8 L676.51 1081.18 L673.7 1081.79 L671.66 1080.34 L671.38 1079.1 L671.52 1076.68 L671 1075.52 L670.19 1075.08 L666.42 1073.9 L662 1069.82 L659.68 1068.51 L656.85 1068.98 L655.41 1068.5 L654.04 1066.53 L652.38 1064.91 L650.03 1065.46 L649.3 1067.07 L647.82 1074.8 L647.93 1076.95 L648.85 1081.23 L648.82 1083.32 L648.23 1084.81 L647.32 1085.14 L646.24 1085.11 L645.02 1085.49 L644.05 1086.36 L642.43 1088.31 L641.53 1089.13 L634.62 1092.63 L632.76 1092.9 L630.48 1093.24 L629.51 1094.69 L629.41 1096.84 L629.63 1099.19 L630 1100.68 L630.43 1101.26 L630.5 1101.92 L629.76 1103.64 L628.81 1104.9 L625.12 1108.19 L621.42 1113.29 L621.49 1114.13 L622.32 1116.41 L622.49 1117.58 L623.2 1120.41 L624.75 1122.61 L625.76 1124.65 L624.89 1126.96 L623.82 1127.4 L622.56 1127.29 L621.53 1127.47 L621.09 1128.73 L621.71 1129.81 L624.67 1132.23 L625.66 1133.33 L626.48 1135.55 L626.76 1137.66 L626.28 1146.87 L625.53 1148.55 L623.96 1150.36 L617.06 1155.71 L615.85 1157.91 L615.13 1162.43 L614.34 1164.25 L612.75 1165.97 L610.42 1167.65 L609.28 1168.79 L609.73 1170.2 L612.24 1172.7 L614.92 1174.73 L616.09 1175.97 L616.56 1177.46 L616.13 1180.52 L616.23 1181.49 L617.6 1185.85 L617.94 1187.94 L618 1190.53 L618.55 1194.92 L619.82 1199.58 L620.61 1204.35 L619.72 1209.07 L619.05 1210.41 L618.72 1210.63 L618.18 1210.48 L612.89 1211.96 L607.01 1211.79 L604.85 1212.51 L597.12 1217.68 L592.8 1219.76 L587.61 1219.63 L584.87 1220.13 L583.68 1219.97 L582.48 1219.21 L581.98 1218.39 L581.67 1217.41 L579.4 1213.79 L578.42 1213.15 L577.62 1213.04 L575.23 1212.75 L575.92 1214.07 L578.31 1216.31 L579.57 1218.53 L580.03 1220.26 L582.59 1225.64 L585.42 1230.07 L585.8 1232.66 L585.83 1235.34 L586.47 1238.23 L588.02 1240.83 L590.24 1243.09 L592.64 1244.91 L594.89 1246.22 L595.93 1245.37 L596.41 1244.48 L598.48 1238.86 L598.68 1238.59 L599.95 1238.29 L605.6 1240.6 L607.03 1241.42 L607.72 1243.18 L607.66 1245.32 L606.83 1247.13 L605.16 1247.89 L604.85 1248.99 L606.08 1251.43 L611.79 1259.41 L612.22 1260.17 L612.34 1260.86 L612.34 1261.86 L612.58 1263.24 L613.61 1265.38 L613.87 1266.65 L613.75 1267.35 L613.27 1268.47 L613.17 1269.05 L613.33 1270.06 L613.72 1270.15 L614.21 1270.02 L614.68 1270.32 L616.2 1271.05 L616.43 1271.53 L616.77 1272.95 L618.39 1276.91 L618.86 1277.5 L619.22 1278.13 L619.72 1279.5 L619.98 1280.87 L619.62 1281.49 L619.25 1281.81 L616.2 1283.88 L613.06 1289.44 L612.36 1291.18 L613.87 1296.71 L611.32 1297.06 L612.19 1298.67 L613.58 1299.84 L614.69 1301.22 L615.21 1302.79 L615.84 1304.13 L618.53 1306.42 L619.48 1307.62 L619.7 1308.82 L619.72 1310.16 L619.87 1311.64 L620.56 1313.27 L621.63 1314.7 L637.08 1329.19 L639.95 1331.88 L641.59 1332.98 L644.22 1334.23 L645.39 1334.95 L646.38 1336.09 L646.87 1337.83 L649.33 1341.71 L650.48 1345.05 L651.25 1346.65 L652.72 1348.22 L654.22 1349 L655.84 1349.56 L657.16 1350.41 L657.83 1352.05 L657.76 1353.49 L657.36 1355.94 L657.6 1357.46 L658.49 1358.57 L668 1367.7 L669.73 1368.69 L671.87 1370.43 L675.78 1376.14 L678.31 1377.89 L677.4 1378.91 L676.88 1380.24 L677.13 1381.24 L680.02 1381.26 L680.12 1382.16 L679.55 1383.21 L679.11 1383.61 L680.61 1386.24 L682.12 1387.72 L684.05 1388.32 L689.51 1388.45 L691.75 1389.1 L693.74 1390.39 L695.78 1392.42 L696.95 1394.19 L698.83 1398 L700.04 1399.53 L700.69 1401.06 L700.73 1403 L701.14 1404.7 L702.88 1405.51 L703.92 1406.24 L704.64 1407.83 L705.6 1411.14 L704.2 1410.11 L702.93 1409.77 L702.04 1410.33 L701.76 1411.98 L702.24 1413.38 L703.24 1413.98 L704.33 1414.42 L705.15 1415.36 L704.82 1416.65 L703.47 1418.08 L701.67 1419.23 L700.04 1419.71 L698.71 1421.63 L697.83 1423.84 L698.05 1425.91 L701.35 1428.49 L701.91 1429.79 L702.69 1432.96 L704.23 1435.18 L708.1 1437.87 L709.71 1440 L710.18 1441.18 L710.4 1442.23 L710.35 1443.29 L709.98 1444.52 L710.01 1445.77 L710.7 1446.97 L717.5 1456.06 L718.4 1458.17 L718.23 1459.39 L717.12 1461.81 L717.25 1463.07 L718.69 1466.43 L720.31 1474.77 L721.01 1476.5 L723.13 1478.03 L724.92 1476.7 L728.23 1471.69 L734.94 1466.33 L736.43 1463.58 L737.36 1458.79 L738.28 1456.93 L740.6 1454.99 L741.03 1458.93 L743.11 1460.99 L745.68 1462.66 L747.6 1465.51 L747.69 1467.61 L746.59 1472.66 L746.06 1477.9 L745.51 1479.74 L742.38 1483.41 L740.99 1485.52 L740.28 1487.8 L740.06 1490.27 L740.14 1492.95 L739.63 1493.99 L737.01 1496.88 L736.03 1497.59 L734.32 1497.82 L733.54 1497.31 L732.91 1496.5 L731.59 1495.89 L724.78 1495 L722.82 1495.08 L720.5 1496.22 L719.57 1498.15 L718.89 1500.46 L717.34 1502.73 L716.11 1503.77 L715.27 1504.24 L714.33 1504.37 L712.88 1504.37 L711.75 1504.03 L710.39 1503.43 L709.08 1503.25 L708.09 1504.18 L708.43 1505.71 L711.42 1510.02 L712.18 1512.33 L711.83 1514.39 L710.49 1518.89 L710.57 1521.67 L711.39 1526.52 L711.13 1528.62 L707.65 1540.24 L707.34 1542.94 L707.76 1547.2 L707.95 1549.1 L707.72 1555.69 L710.33 1572.87 L710.54 1578.68 L709.53 1584.08 L706.6 1587.46 L706.23 1584.95 L704.59 1583.14 L702.31 1581.83 L700.04 1580.83 L697.91 1581.96 L696.13 1582.66 L692.14 1583.53 L691.41 1584.03 L691.33 1584.96 L691.79 1586.92 L691.65 1587.94 L691.05 1588.57 L690.07 1589.14 L689.94 1589.27 L689.67 1589.69 L689.4 1590.26 L689.25 1590.86 L689.53 1591.16 L690.21 1591.56 L690.87 1592.08 L691.17 1592.75 L691.17 1594.49 L690.9 1595.26 L690.12 1595.49 L688.45 1594.84 L684.65 1592.5 L682.63 1591.72 L680.1 1591.3 L678.76 1591.61 L674.83 1597.25 L673.19 1598.88 L671.25 1599.8 L670.39 1599.76 L667 1599.6 L667.08 1600.94 L667.08 1600.96 L667.83 1602.76 L668.5 1604.37 L667.95 1606.48 L665.64 1610.51 L665.14 1612.75 L665.98 1615.46 L669.4 1619.05 L669.42 1619.08 L670.02 1621.59 L669.66 1622.77 L669.05 1623.76 L668.57 1624.86 L668.56 1625.77 L668.55 1626.35 L668.98 1627.57 L671.19 1631.52 L671.93 1634.04 L671.8 1638.18 L671.99 1640.6 L672.32 1641.21 L673.52 1642.19 L673.88 1642.93 L673.84 1643.49 L673.46 1645.16 L674.35 1647.4 L680.36 1657.04 L693.78 1670.1 L695.24 1672.36 L696.2 1674.84 L696.81 1677.62 L697.63 1679.22 L698.99 1679.76 L700.44 1680.55 L708.17 1696.48 L713.22 1702.91 L714.14 1703.82 L715.59 1704.8 L716.37 1705.11 L718.08 1705.51 L718.9 1705.89 L719.62 1706.6 L721.04 1708.5 L721.8 1709.07 L723.49 1709.13 L724.8 1708.67 L725.87 1708.83 L728.54 1714.16 L731.06 1716.84 L744.24 1726.89 L746.62 1727.94 L749.29 1728.73 L751.24 1729.99 L752.35 1731.85 L752.61 1734.46 L753.2 1736.56 L756.74 1740.85 L758.1 1743.02 L759.22 1745.54 L760.23 1746.88 L763.72 1749.5 L764.22 1750.18 L764.78 1751.9 L765.22 1752.59 L765.8 1752.9 L767.35 1753.33 L767.86 1753.68 L768.43 1754.64 L768.67 1755.39 L768.64 1756.27 L768.37 1757.64 L768.41 1759.62 L769.67 1765.09 L770.52 1766.93 L774.13 1770.43 L774.74 1771.4 L775.38 1772.4 L775.42 1775.4 L775.05 1778 L775.32 1787.6 L779.31 1805.3 L779.41 1807.49 L778.84 1813.2 L779.21 1815.39 L779.21 1816.49 L778.73 1817.68 L778.09 1818.64 L777.63 1819.71 L777.7 1821.25 L779.1 1825.53 L779.56 1827.87 L779.24 1829.84 L779.15 1829.92 L777.63 1831.29 L773.23 1831.79 L771.11 1832.6 L769.78 1834.51 L769.79 1836.73 L770.13 1839.27 L769.82 1842.15 L768.86 1844.85 L768.25 1847.4 L768.79 1849.68 L771.25 1851.61 L773.15 1852.8 L775.22 1854.65 L776.75 1856.85 L777.02 1859.07 L776.55 1860.36 L775.98 1861.36 L775.56 1862.42 L775.45 1863.91 L775.69 1864.95 L777.15 1868.41 L777.53 1871.92 L777.91 1873.05 L778.79 1874.28 L781 1876.41 L781.85 1877.74 L782.26 1880.08 L782.12 1882.26 L782.23 1884.3 L783.37 1886.26 L784.37 1886.75 L786.91 1887.17 L788.07 1887.92 L788.57 1888.95 L788.82 1891.26 L789.2 1892.17 L790.24 1892.8 L792.85 1893.55 L793.68 1894.41 L794.39 1895.61 L795.48 1896.74 L796.71 1897.73 L802.19 1900.8 L803.24 1902.38 L803.41 1903.4 L803.69 1905.16 L803.67 1907.58 L803.35 1910.1 L802.91 1911.31 L801.72 1913.76 L801.44 1914.9 L801.91 1917.24 L804.44 1921.81 L805.17 1924.29 L805.48 1930.62 L805.85 1932.79 L806.46 1934.19 L808.17 1936.25 L808.93 1937.5 L809.23 1938.73 L808.96 1940.8 L809.05 1942.01 L809.48 1943.21 L810.67 1945.45 L811.08 1946.6 L810.88 1948.15 L809.97 1949.18 L808.89 1950.05 L808.31 1951.15 L808.69 1953.18 L810.25 1953.56 L816.51 1951.49 L817.65 1951.45 L818.62 1951.9 L819.08 1952.89 L818.83 1953.96 L818.36 1955.12 L818.17 1956.42 L816.41 1961.78 L816.04 1964.93 L817.81 1966.56 L819.92 1967.25 L821.44 1968.64 L822.22 1970.57 L822.09 1972.89 L820.37 1977.47 L820 1979.8 L820.82 1982.31 L822.19 1984.04 L824.19 1985.79 L826.33 1987.17 L828.21 1987.71 L828.44 1988.8 L826.81 1996.33 L825.87 1999.03 L818.73 2008.7 L817.4 2009.78 L812.79 2010.06 L810.23 2010.57 L808.41 2011.73 L807.39 2013.6 L807.24 2016.25 L807.45 2020.84 L807.03 2022.74 L806.01 2024.98 L804.64 2026.87 L801.44 2030.12 L800.4 2031.94 L799.77 2034.74 L799.6 2036.72 L798.91 2038.61 L794.7 2043.2 L793.52 2044.95 L791.83 2049.5 L790.48 2052.03 L786.9 2056.37 L785.46 2058.9 L782.1 2069.02 L781.34 2069.96 L778.98 2070.76 L777.88 2071.38 L777.06 2072.45 L776.01 2074.79 L775.29 2075.88 L774.09 2076.82 L773.22 2077.5 L768.79 2079.81 L766.97 2081.68 L766.49 2082.69 L765.5 2086.1 L764.55 2087.48 L763.46 2087.45 L762.29 2086.83 L761.02 2086.45 L759.61 2086.24 L759.05 2085.94 L758.6 2086.08 L757.58 2087.17 L756.95 2088.15 L756.5 2089.32 L756.23 2090.56 L756.17 2091.73 L756.41 2093.11 L757.29 2095.41 L757.3 2097.08 L756.89 2099.35 L756.42 2100.25 L755.59 2101.18 L755.06 2101.3 L751.1 2103.04 L749.91 2103 L748.95 2102.53 L747.92 2102.29 L746.44 2102.95 L745.5 2104.01 L745.01 2105.25 L744.58 2106.33 L743.79 2107.32 L742.97 2107.57 L740.6 2107.72 L739.55 2108.04 L737.42 2109.95 L732.51 2116.5 L731.4 2119.06 L730.42 2123.92 L730.82 2125.36 L732.95 2127.21 L733.68 2128.43 L735.24 2135.53 L735.14 2137.81 L733.6 2142.12 L732.47 2147.87 L730.36 2154.73 L729.53 2155.08 L728.99 2155.57 L728.56 2156.21 L727.2 2159.01 L725.41 2164.64 L724.65 2169.05 L723.65 2170.78 L721.21 2173.37 L718.89 2176.81 L712.85 2189.55 L709.6 2194.06 L707.66 2195.72 L706.79 2194.6 L706.59 2193.54 L705.58 2191.92 L705.2 2191.03 L705.09 2189.91 L705.26 2187.6 L705.2 2186.48 L704.52 2182.85 L704.42 2177.72 L702.16 2174.08 L701.81 2172.79 L701.71 2171.96 L701.84 2171.24 L703.71 2166.65 L704.23 2164.79 L704.77 2159.59 L706.03 2155.55 L706.03 2153.18 L704.23 2146.56 L702.22 2143.21 L702.14 2140.92 L702.92 2136.14 L702.36 2131.41 L698.8 2123.14 L698.31 2118.32 L698.35 2113.48 L698.82 2111.9 L700.26 2111.3 L702.68 2111.65 L704.09 2112.64 L706.03 2116.01 L707.17 2114.73 L707.13 2113.11 L706.31 2111.59 L705.2 2110.59 L706.49 2109.94 L707.73 2110.13 L708.89 2110.93 L709.9 2112.14 L710.65 2110.35 L711.47 2107.26 L712.09 2105.96 L713.97 2103.29 L714.28 2101.71 L713.61 2099.71 L714.75 2099.8 L715.76 2099.57 L716.65 2099.03 L717.41 2098.17 L716.22 2097.74 L713.48 2097.48 L712.47 2097.01 L711.96 2096.31 L711.63 2095.41 L711.93 2094.63 L715.51 2093.7 L716.76 2092.37 L717.76 2091.05 L719.31 2090.44 L719.85 2090.66 L721.07 2091.66 L722.1 2091.98 L722.32 2091.64 L723.9 2091.08 L725.5 2090.77 L725.82 2091.15 L726.47 2089.84 L726.96 2087.82 L727.05 2085.73 L726.51 2084.19 L727.34 2083.49 L726.64 2082.42 L724.71 2080.99 L724.3 2080.33 L724.57 2079.01 L725.2 2078.46 L726.02 2078.15 L726.92 2077.62 L727.58 2076.2 L727.12 2074.62 L726.27 2072.67 L725.82 2070.2 L723.85 2070.81 L722.46 2069.89 L720.45 2066.34 L725.39 2065.02 L727.77 2063.6 L728.78 2061.35 L728.78 2057.83 L730.16 2054.55 L730.76 2052.17 L731.44 2051.45 L731.68 2050.82 L730.25 2048.9 L728.05 2043.51 L727.53 2041.63 L727.47 2039.68 L728.1 2037.65 L725.39 2038.34 L724.87 2037.33 L725.82 2033.35 L726.8 2031.07 L729.06 2030.28 L733.42 2029.9 L732.39 2028.32 L732.14 2023.92 L731.14 2022.09 L730.13 2021.81 L728.3 2022.63 L727.34 2022.09 L727.09 2021.01 L727.96 2019.14 L727.34 2018.15 L728.82 2016.3 L729.13 2014.56 L728.78 2010.47 L729.05 2008.52 L729.71 2005.91 L730.89 2004.02 L732.66 2004.2 L734.01 2003.47 L734.86 2003.83 L735.67 2004.57 L736.86 2004.98 L738.11 2004.51 L738.28 2003.39 L738.22 2002.09 L738.72 2001.04 L740.15 2000.8 L742.24 2001.14 L744.31 2001.84 L745.63 2002.66 L746.39 2002.66 L744.73 1999.37 L736.75 1997.8 L734.31 1995.69 L735.13 1992.9 L737.54 1990.29 L739.06 1987.65 L737.2 1984.77 L737.99 1986.75 L737.34 1988.09 L736.27 1989.03 L735.24 1990.31 L732.66 1994.91 L731.93 1995.03 L730 1994.85 L729.62 1995.3 L729.31 1995.53 L727.96 1996.91 L727.72 1997.24 L726.45 1997.8 L726.09 1999.16 L726.01 2000.81 L725.44 2002.23 L724.27 2003.45 L723.35 2003.89 L722.22 2003.62 L719.27 2001.88 L715.86 1999.25 L715.13 1998.39 L714.95 1997.24 L714.35 1995.86 L714.37 1994.91 L714.64 1994.09 L715.96 1991.81 L716.57 1991.36 L717.19 1991.51 L717.55 1991.4 L717.41 1990.18 L714.37 1990.18 L716.13 1987.65 L716.65 1987.16 L717.47 1986.95 L718.52 1986.93 L719.39 1987.02 L719.69 1987.16 L720.68 1985.46 L721.53 1983.37 L722.97 1981.81 L725.82 1981.66 L724.44 1980.05 L722.1 1980.14 L717.41 1981.66 L708.31 1981.66 L709.33 1979.34 L711.55 1978.48 L717.03 1978.56 L718.98 1978.08 L721.1 1976.93 L722.78 1975.51 L724.09 1973.07 L725.41 1972.53 L726.74 1972.29 L727.34 1971.93 L727.48 1968.13 L727.34 1966.93 L726.55 1965.01 L725.69 1963.69 L725.44 1962.42 L726.51 1960.65 L721.21 1961.03 L720.48 1960.25 L718.98 1959.01 L717.74 1957.62 L717.79 1956.39 L718.53 1954.96 L718.01 1953.95 L717.28 1952.88 L717.41 1951.27 L718.19 1950.71 L719.62 1950.25 L722.1 1949.79 L722.1 1948.94 L720.45 1948.94 L721.5 1947.69 L724.63 1945.93 L726.17 1944.67 L726.62 1943.36 L726.23 1941.96 L725.46 1940.85 L724.68 1940.4 L720.97 1940.96 L718.52 1942.36 L716.36 1944.13 L713.61 1945.83 L712.71 1945.41 L710.74 1944.75 L709.9 1944.28 L708.11 1942.48 L707.21 1940.4 L707.34 1938.22 L708.65 1936.1 L710.47 1934.81 L712.61 1934.11 L722.51 1932.04 L724.84 1930.6 L725.82 1928.33 L725.09 1926.5 L723.34 1925.45 L719.69 1924.03 L716.96 1921.31 L716.3 1920.84 L714.81 1920.32 L714.55 1919.11 L715.13 1916.61 L715.24 1914.09 L715.78 1912.64 L717.14 1911.92 L719.69 1911.52 L723.9 1911.52 L725.25 1911.17 L726.07 1910.39 L726.17 1909.61 L725.44 1909.25 L724.52 1909.08 L723.04 1908.11 L722.1 1907.64 L720.87 1907.46 L719.62 1907.5 L718.42 1907.39 L717.41 1906.78 L716.54 1904.4 L717.45 1901.99 L718.91 1899.56 L719.69 1897.1 L720.05 1896.71 L720.86 1896.74 L721.7 1896.85 L722.1 1896.75 L722.01 1896.02 L721.21 1894.35 L721.5 1891.12 L722.1 1889.68 L722.91 1888.59 L723.61 1887.93 L724.11 1887.06 L724.3 1885.37 L723.9 1885.05 L720.83 1885.79 L719.36 1885.59 L718.62 1885.05 L718.52 1884.3 L718.93 1883.46 L719.8 1883.07 L720.99 1883.11 L722.1 1882.92 L722.73 1881.84 L721.78 1881.31 L717.06 1881.84 L715.96 1880.7 L715.92 1879.43 L716.09 1879.69 L716.65 1879.57 L717.82 1879 L718.62 1878.86 L719.2 1878.47 L719.69 1877.16 L717.79 1867.9 L716.73 1867.26 L714.12 1864.2 L712.85 1863.22 L713.99 1860.71 L714.73 1859.68 L715.54 1859.27 L715.13 1858.66 L713.61 1854.52 L712.45 1852.17 L712.18 1851.02 L711.8 1846.6 L711.98 1845.27 L712.85 1844.4 L712.13 1841.05 L711.59 1832.75 L710.19 1831.08 L708.77 1830.31 L702.92 1825.62 L702.33 1821.48 L701.75 1820.07 L700.64 1821.66 L700.12 1820.63 L699.85 1819.49 L699.8 1818.26 L699.88 1816.98 L698.47 1813.45 L698.44 1811.9 L699.88 1810.74 L699.72 1809.95 L699.67 1809.06 L699.88 1806.91 L698.89 1807.52 L698.31 1808.4 L697.62 1810.74 L697.73 1808.81 L697.42 1807.1 L696.79 1805.62 L696.1 1804.43 L695.58 1804 L694.89 1803.62 L694.24 1803.07 L693.83 1802.16 L693.92 1801.29 L695 1800.27 L695.27 1799.4 L694.69 1798.11 L692.13 1794.41 L691.09 1792.08 L689.97 1791.04 L688.49 1790.17 L687 1789.67 L687.43 1788.27 L686.93 1787.27 L684.66 1785.7 L684.69 1783.28 L680.51 1777.42 L679.34 1774.7 L680.16 1775.48 L680.87 1773.99 L678.05 1773.28 L675.9 1773.38 L674.51 1772.5 L674.03 1768.84 L675.31 1764.66 L675.55 1762.92 L675.31 1761.33 L674.91 1759.86 L674.84 1758.36 L675.55 1756.74 L674.87 1755.48 L673.27 1749.24 L673.27 1744.16 L673 1742.92 L672.62 1741.92 L672.56 1741.03 L673.27 1740.17 L673.27 1739.47 L672.02 1738.27 L670.49 1736.38 L669.2 1734.25 L668.66 1732.36 L667.95 1732.36 L667.82 1733.75 L667.31 1736.15 L667.19 1737.51 L667.55 1738.13 L669.12 1740.01 L669.47 1740.6 L669.34 1743.79 L668.79 1745.29 L667.57 1746.89 L667.33 1748.35 L668.99 1752.71 L669.47 1754.75 L669.23 1756.91 L668.2 1760.93 L667.25 1770.4 L668.81 1775.68 L669.09 1777.72 L668.79 1779.65 L667.95 1781.8 L667.57 1782.44 L667.18 1782.95 L666.79 1783.64 L666.37 1784.85 L666.08 1786.23 L666.03 1787.34 L666.37 1789.67 L667.69 1791.06 L668.07 1791.96 L667.19 1792.73 L666.32 1792.65 L665.51 1792 L664.09 1790.39 L663.94 1791.24 L663.51 1792.07 L663.34 1792.73 L663.1 1791.48 L663.17 1789.92 L663.02 1788.6 L662.23 1788.04 L661.72 1787.56 L662.28 1786.49 L663.28 1785.4 L664.09 1784.85 L663.64 1784.27 L663.02 1783.12 L662.58 1782.51 L664.18 1782.07 L664.91 1780.7 L664.87 1778.89 L664.09 1777.11 L665.94 1777.18 L666.06 1776.3 L665.13 1775.22 L663.71 1774.7 L661.06 1774.85 L660.24 1774.67 L658.78 1773.99 L659.16 1773.3 L659.91 1771.5 L660.3 1770.79 L657.53 1769.57 L656.5 1766.1 L657.18 1763.23 L659.54 1763.77 L658.86 1758.69 L658.78 1753.93 L659.43 1752.08 L659.62 1750.97 L659.16 1750.48 L658.56 1750.3 L657.64 1749.83 L656.8 1749.17 L656.45 1748.42 L656.12 1745.72 L654.6 1740.99 L654.16 1738.62 L654.67 1736.02 L657.13 1732.5 L658.02 1730.8 L658.13 1729.21 L659.27 1727.17 L659.54 1725.68 L659.37 1724.58 L658.02 1720.55 L659.54 1720.55 L659.14 1719.01 L658.54 1717.79 L657.89 1717.57 L657.26 1718.99 L651.95 1711.94 L648.95 1705.45 L646.58 1701.89 L645.75 1699.36 L645.23 1696.62 L645.06 1694.22 L645.37 1691.71 L646.85 1688.22 L647.33 1686.03 L646.36 1687.03 L645.55 1688.22 L644.68 1688.9 L643.54 1688.38 L643.09 1687.29 L641.95 1682.11 L638.57 1675.82 L637.7 1672.49 L638.98 1669.5 L636.2 1667.48 L634.58 1664.54 L634.58 1661.31 L636.64 1658.45 L640.99 1657.16 L643.81 1659.88 L646.47 1663.64 L650.37 1665.5 L646.47 1660.27 L645.33 1657.72 L647.33 1656.94 L645.68 1656.24 L644.09 1655.35 L643.37 1654.07 L644.3 1652.17 L643.49 1651.49 L642.73 1650.46 L642.18 1649.39 L641.95 1648.64 L641.74 1648.11 L641.23 1648.52 L640.43 1649.74 L640.63 1650.01 L641.01 1650.67 L641.31 1651.47 L641.26 1652.17 L639.66 1653.48 L638.1 1652.74 L636.94 1650.75 L636.64 1648.24 L635.89 1648.24 L635.59 1650.32 L636.44 1655.15 L635.51 1656.09 L634.9 1656.38 L634.31 1657.01 L633.47 1657.55 L632.09 1657.66 L631.33 1657.35 L630.68 1656.76 L630.19 1656.04 L629.81 1655.3 L626.76 1642.14 L624.52 1638.77 L624.5 1638.75 L625.11 1637.6 L625.36 1636.38 L625.33 1633.65 L625.58 1632.35 L626.61 1630.72 L626.85 1629.73 L626.51 1626.9 L625.57 1625.14 L624.1 1623.98 L622.22 1622.98 L622.84 1622.02 L623.69 1621.45 L624.73 1621.25 L626.01 1621.4 L625.57 1620.59 L624.98 1619.07 L624.5 1618.26 L625.84 1616.33 L626.22 1614.04 L625.87 1604.85 L626.29 1602.99 L627.61 1600.9 L624.52 1600.95 L622.89 1600.64 L621.68 1599.28 L618.77 1594.27 L618.51 1593.26 L618.44 1591.39 L618.64 1588.38 L618.22 1587.11 L616.9 1585.89 L617.25 1584.81 L617.75 1584.08 L618.51 1583.66 L619.58 1583.53 L620.72 1579.59 L621.41 1580.15 L622.32 1579.72 L624.5 1578.02 L623.62 1576.69 L620.79 1568.49 L620.85 1566.95 L622.22 1563.78 L621.46 1562.32 L618.74 1555.35 L618.82 1554.68 L619.23 1553.82 L619.23 1552.84 L618.93 1551.89 L618.44 1551.1 L618.91 1550.01 L618.82 1548.38 L618.24 1546.64 L617.33 1545.23 L616.81 1544.17 L617.01 1543.16 L617.49 1542.2 L617.74 1541.29 L617.39 1540.4 L615.84 1538.61 L615.4 1537.71 L615.54 1537.01 L616.57 1536.03 L616.9 1535.34 L616.98 1527.79 L616.34 1526.29 L614.64 1525.81 L615.33 1522.65 L613.01 1519.8 L606.99 1515.54 L603.93 1511.53 L600.89 1508.61 L600.15 1507.66 L600.18 1507.1 L599.4 1502.45 L599.45 1501.28 L599.72 1500.41 L600.3 1499.87 L601.29 1499.68 L602.95 1498.97 L604.21 1497.25 L605.04 1495.16 L607.19 1482.1 L608.21 1479.68 L608.51 1478.28 L608.4 1476.83 L608.05 1475.74 L606.99 1473.55 L605.8 1468.98 L605.42 1464.02 L605.82 1459.03 L606.99 1454.42 L608.62 1450.95 L611.06 1447.92 L614.32 1445.76 L618.42 1444.93 L618.44 1444.92 L617.92 1444.05 L617.25 1443.39 L616.4 1442.88 L615.4 1442.54 L614.36 1443.27 L608.73 1447.17 L606.23 1448.09 L604.3 1448.25 L597.12 1447.37 L594.29 1447.57 L591.73 1448.09 L591.08 1448.43 L590.57 1448.95 L589.98 1449.45 L589.11 1449.67 L588.49 1449.56 L587.16 1449.08 L586.43 1448.95 L583.2 1449.08 L580.92 1449.83 L579.13 1451.34 L577.33 1453.7 L573.68 1436.54 L573.68 1433.76 L572.83 1430.94 L570.76 1434.13 L567.94 1433.37 L564.57 1428.85 L562.88 1424.9 L561.76 1420.58 L561.76 1417.39 L563.38 1414.97 L562.37 1413.57 L562.08 1412.37 L562.12 1411.31 L562.91 1408.34 L562.08 1408.34 L561.11 1410.81 L560.73 1412.28 L560.57 1413.96 L559.41 1413.14 L558.94 1411.75 L558.92 1410.05 L559.05 1408.34 L560.57 1405.24 L559.68 1404.47 L558.67 1404.59 L557.47 1405.24 L556.55 1402.88 L556.93 1399.92 L558.29 1394.06 L558.21 1392.2 L557.86 1391.23 L556.01 1389.3 L555.31 1388.35 L554.47 1386.87 L553.8 1385.2 L553.65 1383.67 L555.57 1380.69 L558.67 1381.44 L562.15 1382.71 L565.18 1381.29 L560.89 1379.19 L558.7 1378.47 L556.39 1378.19 L553.74 1378.74 L552.62 1380.18 L551.95 1382.22 L550.7 1384.54 L548.9 1382.11 L547.32 1378.22 L546.84 1374.5 L548.36 1372.56 L548.36 1371.76 L546.04 1371.27 L545.27 1369.38 L544.92 1366.87 L543.81 1364.54 L541.59 1363.44 L538.8 1362.66 L536.98 1361.43 L537.67 1358.98 L525.57 1350.11 L524.57 1349.02 L523.95 1347.85 L523.63 1345.86 L523.77 1342.08 L523.19 1340.55 L521.91 1342.38 L521.01 1346.84 L520.15 1348.58 L519.74 1347.93 L518.9 1346.93 L518.63 1346.19 L517.92 1346.52 L517.27 1346.96 L516.72 1347.43 L516.35 1347.85 L517.11 1348.58 L519.65 1351.95 L523.36 1354.36 L526.25 1356.89 L526.28 1360.64 L524.01 1363.43 L521.23 1365.83 L519.44 1369.01 L520.15 1374.15 L524.54 1381.96 L526.2 1386 L526.28 1390.88 L525.62 1392.56 L523.61 1396.16 L522.74 1401.35 L521.55 1402.08 L517.87 1401.2 L518.19 1402.31 L518.68 1403.33 L519.33 1404.3 L520.15 1405.24 L518.71 1405.1 L516.27 1404.51 L514.83 1404.38 L514.83 1405.24 L516.35 1406.04 L517.77 1407.1 L518.85 1408.41 L519.39 1410 L519.14 1411.78 L517.5 1414.45 L516.81 1417.07 L515.21 1421.09 L513.56 1421.37 L512.78 1422.09 L512.94 1423.09 L514.07 1424.26 L512.09 1427.17 L510.19 1428.94 L505.71 1432.18 L504.66 1433.43 L502.67 1436.73 L500.56 1443.11 L496.18 1446.53 L493.5 1449.71 L487.17 1452.15 L480.35 1453.62 L473.54 1454.37 L469.52 1451.32 L466.96 1450.85 L464.74 1449.65 L457.26 1444.04 L455.41 1442.28 L454.61 1440.57 L454.5 1437.67 L454.12 1435.48 L453.46 1433.55 L451.23 1428.85 L450.53 1426.43 L450.22 1424.03 L450.14 1421.49 L451.12 1419.67 L455.61 1416.68 L456.96 1415.47 L453.68 1415.15 L448.01 1419.61 L444.08 1420.3 L444.72 1421.37 L446.63 1423.59 L447.03 1424.65 L447.79 1429.01 L448.93 1430.96 L451.83 1434.39 L452.4 1436.57 L452.15 1437.94 L451.02 1440.44 L450.83 1441.68 L451.13 1442.94 L452.43 1445.43 L457.78 1452.77 L459.51 1455.9 L461.43 1457.19 L462.44 1458.81 L460.76 1461.61 L458.92 1462.64 L456.76 1467.32 L449.71 1469.77 L443.31 1471.17 L441.06 1472.08 L438.28 1472.44 L435.91 1471.65 L434.9 1469.19 L433.66 1467.92 L425.79 1464.84 L432.45 1470.83 L432.56 1473.77 L427.15 1479.97 L422.83 1483.86 L420.82 1484.6 L418.65 1484.33 L418.58 1483.46 L419.34 1481.98 L419.66 1479.86 L417.7 1481.55 L416.4 1483.59 L414.82 1485.18 L412.06 1485.47 L412.41 1484.49 L412.82 1481.45 L404.85 1489.31 L402.58 1492.91 L400.23 1493.4 L397.89 1492.87 L396.81 1491.35 L396.7 1489.47 L396.3 1487.14 L395.57 1485.05 L394.48 1483.89 L395.3 1494.95 L394.53 1497.36 L391.39 1502.04 L390.68 1504.06 L390.68 1509.59 L390.31 1511.03 L387.8 1515.54 L372.1 1532.35 L365.23 1537.31 L361.93 1540.44 L360.13 1541.67 L357.99 1542.43 L355.51 1542.59 L348.44 1541.64 L346.65 1541.11 L345.93 1539.69 L345.33 1528.35 L346.19 1527.38 L347.52 1526.71 L348.68 1525.09 L349.24 1523.05 L348.82 1521.14 L351.55 1518.68 L353.35 1515.29 L354.41 1511.45 L354.95 1507.66 L354.88 1505.18 L354.34 1503.36 L352.67 1499.68 L352.32 1497.53 L352.78 1496.15 L353.56 1494.73 L354.11 1492.51 L353.43 1492.51 L352.59 1493.61 L351.52 1494.65 L350.63 1495.8 L350.32 1497.25 L350.8 1499.14 L352.33 1502.63 L352.67 1504.86 L352.35 1510.07 L351.91 1511.53 L348.59 1515.78 L346.95 1520.88 L344.46 1523.95 L341.89 1524.89 L340.47 1521.92 L341.28 1519.46 L343.12 1516.5 L344.59 1513.06 L344.26 1509.24 L340.49 1515.41 L338.82 1519.07 L338.11 1523.04 L338.86 1531.61 L337.57 1534.33 L333.22 1535.34 L329.99 1534.03 L327.9 1530.74 L326.85 1526.39 L326.74 1521.92 L329.22 1508.9 L328.26 1505.21 L325.91 1511.53 L324.78 1506.76 L326.18 1501.87 L329.26 1498.07 L333.22 1496.53 L336.96 1496.77 L338.11 1496.53 L339.04 1495.8 L338.66 1495.31 L337.52 1495.03 L336.23 1494.95 L335.46 1494.71 L334.91 1493.61 L334.33 1493.37 L333.76 1493.48 L332.05 1494.09 L331.21 1494.17 L330.45 1494.4 L329.76 1494.07 L329.02 1492.51 L328.26 1492.51 L327.44 1494.44 L324.38 1498.84 L321.77 1501.01 L321.47 1504.08 L322.13 1509.96 L322.03 1513.06 L320.05 1527.45 L319.14 1530.23 L317.7 1532.11 L316.57 1532.52 L315.04 1532.86 L313.66 1533.32 L313.09 1534.12 L312.87 1534.94 L312.39 1535.85 L311.79 1536.61 L311.22 1536.92 L308.37 1537.09 L307.01 1536.92 L303.22 1535.34 L298.22 1534.78 L296.91 1533.86 L298.22 1531.76 L299.41 1530.99 L300.66 1530.42 L301.75 1529.65 L302.46 1528.24 L302.41 1527.3 L302.02 1526.23 L301.45 1525.36 L300.88 1525.02 L298.81 1527.68 L297.62 1528.12 L297.08 1525.41 L297.27 1521.75 L297.08 1520.28 L295.7 1516.99 L295.57 1515.54 L296.11 1514.05 L297.3 1512.2 L298.68 1510.62 L299.77 1509.96 L301.65 1509.73 L303.62 1508.97 L305.11 1507.51 L305.49 1505.21 L301.63 1507.66 L301.1 1505.5 L300.62 1500.42 L298.77 1496.67 L298.72 1494.89 L299.31 1493.24 L301.38 1489.91 L302.83 1488.41 L304.74 1487.42 L307.37 1487.05 L309.4 1486.43 L311.16 1484.88 L312.47 1482.8 L313.09 1480.66 L312.6 1481.4 L311.13 1482.89 L310.81 1483.46 L310.26 1484.17 L307.58 1484.64 L305.56 1485.52 L303.1 1485.42 L302.05 1485.87 L299.31 1489.56 L299.01 1490.13 L297.78 1491.14 L297.2 1493.5 L297.08 1498.51 L297.33 1499.75 L298.36 1502.1 L298.6 1503.24 L298.82 1503.93 L299.23 1504.43 L299.42 1504.93 L297.98 1507.53 L297.84 1508.05 L296.84 1509.67 L290.25 1514.04 L288.84 1516.22 L285.64 1523.44 L284.5 1524.88 L282.95 1526.23 L281.02 1527.18 L278.8 1527.38 L276 1526.48 L274.92 1524.85 L274.43 1522.71 L273.43 1520.28 L273.13 1522.41 L271.97 1522.2 L270.61 1520.65 L269.63 1518.77 L272.67 1516.7 L276.76 1514.53 L280.94 1511.71 L284.18 1507.66 L285.23 1501.89 L286.04 1500.92 L287.05 1500.02 L287.91 1498.89 L288.35 1497.84 L288.59 1496.83 L288.67 1494.52 L289.11 1494.07 L290.06 1493.52 L290.89 1492.56 L291.01 1490.93 L288.95 1492.14 L287.92 1493.54 L286.4 1497.25 L283.42 1502.28 L282.6 1504.5 L281.19 1507.28 L279.4 1508.82 L277.41 1510.06 L271.12 1516.18 L268.35 1517.57 L265.77 1517.12 L265.3 1514.08 L268.23 1510.1 L274.19 1504.5 L276.52 1500.42 L278.25 1495.64 L279.12 1490.54 L278.8 1485.47 L277.12 1481.8 L276.73 1479.86 L277.66 1477.89 L278.96 1475.89 L281.14 1468.8 L281.78 1467.97 L282.88 1467.77 L284.18 1467.94 L284.18 1467.14 L283 1465.87 L281.24 1454.91 L281.29 1453.6 L281.78 1452.11 L282.52 1451.45 L283.42 1451.2 L284.11 1450.61 L284.18 1448.95 L280.29 1450.82 L278.81 1450.54 L278.04 1448.09 L277.28 1450.67 L278.8 1460.82 L278.8 1467.54 L278.2 1469.34 L275.61 1472.33 L275.01 1473.94 L274.34 1476.87 L272.59 1479.57 L270.23 1481.55 L267.7 1482.31 L267.49 1481.5 L268.66 1479.68 L271.15 1476.63 L273.43 1471.89 L272.78 1469.84 L271.5 1470.09 L270.23 1471.95 L269.36 1475.7 L268.65 1476.87 L267.67 1477.87 L266.59 1478.28 L265.26 1478 L264.37 1477.31 L263.66 1476.52 L262.8 1475.92 L260.72 1475.48 L260.11 1476.44 L260.46 1481.05 L260.3 1483.76 L259.83 1485.94 L259.15 1487.74 L253.43 1497.45 L250.38 1501.09 L246.87 1502.85 L244.56 1503.19 L242.88 1503.97 L241.85 1505.69 L241.48 1508.84 L240.59 1510.1 L238.53 1510.83 L236.23 1510.85 L234.66 1509.96 L232.32 1512.55 L230.75 1513.31 L229.42 1512.41 L226.65 1507.96 L226.12 1506.31 L226.06 1504.52 L226.71 1491.43 L229.23 1478.07 L228.96 1469.36 L229.27 1467.94 L229.67 1467.31 L231.04 1465.76 L231.55 1464.84 L233.16 1455.67 L232.62 1448.61 L233.16 1447.37 L237.1 1448.57 L239.6 1448.47 L240.74 1446.18 L241.59 1442.74 L241.28 1441.08 L239.22 1440.17 L239.22 1439.45 L241.93 1438.04 L243.03 1436.08 L243.07 1430.24 L243.3 1428.47 L244.3 1425.2 L244.53 1423.87 L244.99 1422.18 L247.08 1419.81 L247.55 1418.36 L247.33 1413.44 L246.87 1411.58 L245.42 1408.63 L244.91 1406.9 L245.29 1405.24 L246.22 1404.61 L247.33 1404.87 L248.58 1405.3 L249.83 1405.24 L251.18 1404.21 L254.44 1399.62 L252.18 1399.62 L253.24 1397.81 L253.68 1395.76 L253.56 1387.89 L253.69 1386.85 L254.14 1385.67 L255.96 1382.95 L256.61 1381.48 L257.12 1379.33 L256.78 1377.37 L253.68 1375.89 L253.11 1374.45 L253.3 1372.83 L254.44 1371.76 L259.58 1374.12 L260.46 1373.71 L260.87 1373.1 L261.75 1372.61 L262.57 1371.98 L262.8 1370.9 L262.26 1369.92 L261.33 1369.42 L260.35 1369.05 L259.7 1368.52 L259.33 1367.01 L259.7 1361.76 L260.47 1360.26 L262.06 1360 L263.42 1359.33 L263.5 1356.59 L264.96 1356.98 L266.43 1357.59 L267.76 1358.5 L268.87 1359.77 L266.91 1352.09 L265.89 1339.91 L265.77 1338.31 L266.16 1336.29 L266.18 1334.98 L265.77 1333.39 L264.96 1331.75 L264.53 1331.11 L264.36 1330.51 L264.31 1329.02 L265.07 1326.02 L266.92 1326.7 L269.15 1328.86 L271.15 1330.28 L270.51 1328.65 L268.44 1324.72 L268.49 1323.44 L268.95 1322.13 L268.32 1320.85 L266.59 1319.06 L265.37 1316.74 L264.69 1314.32 L264.31 1309.08 L263.25 1306.67 L258.56 1302.17 L257.5 1298.64 L257.2 1291.71 L256.52 1288.66 L252.53 1280.36 L252.18 1278.64 L252.91 1276.96 L256.34 1275.47 L257.5 1274.22 L257.8 1271.54 L257.32 1268.78 L256.25 1266.24 L254.14 1263.02 L253.99 1261.73 L253.99 1260.39 L253.69 1259.05 L253.07 1257.95 L251.82 1256.62 L251.34 1255.93 L250.61 1251.27 L249.8 1248.89 L247.98 1247.87 L242.88 1248.48 L240.76 1248.31 L239.22 1246.99 L239.02 1245.94 L239.05 1244.31 L239.25 1242.74 L239.6 1241.8 L240.5 1241.47 L241.73 1242.99 L243.47 1242.33 L244.88 1243.68 L246.05 1243.8 L246.92 1243.17 L248.26 1241.13 L249.15 1240.53 L247.84 1238.62 L247.21 1236.52 L246.11 1234.83 L243.42 1234.13 L241.77 1233.36 L241.03 1231.48 L240.5 1229.26 L239.6 1227.42 L233.88 1221.06 L231.58 1217.69 L230.03 1214.14 L231.58 1214.56 L231.94 1213.46 L230.91 1203.74 L230.45 1202.46 L219.36 1191.65 L219.36 1190.77 L220.19 1190.77 L222.21 1192.35 L226.32 1192.3 L233.84 1190.77 L232.11 1189.95 L230.86 1189.17 L228.15 1191.12 L226.41 1190.38 L223.14 1185.24 L219.82 1181.09 L219.18 1178.88 L219.36 1175.55 L218.16 1176.5 L217.65 1178.1 L217.62 1179.82 L217.82 1181.16 L216.1 1181.6 L213.74 1181.01 L211.52 1179.67 L210.24 1177.88 L209.16 1178.42 L208.72 1178.76 L207.04 1176.62 L206.37 1173.16 L206.88 1169.7 L208.72 1167.53 L207.29 1163.45 L207.15 1161.84 L207.38 1160.35 L208.48 1158.35 L208.72 1157.46 L209.86 1155.34 L210.15 1155.03 L209.97 1154.26 L209.66 1153.36 L209.48 1152.58 L212.47 1150.6 L213.28 1149.8 L211.71 1149.8 L209.1 1150.55 L207.98 1150.53 L206.2 1149.73 L206.04 1148.85 L206.63 1147.62 L207.15 1145.72 L207.01 1144.51 L206.35 1141.96 L206.44 1140.16 L206.96 1138.68 L208.42 1135.57 L208.72 1134.03 L207.91 1124.23 L208.36 1122.34 L209.46 1121.25 L210.55 1118.78 L211.02 1116.08 L210.24 1114.3 L209.14 1117.32 L206.21 1122.9 L205.61 1126.36 L206.5 1132.42 L206.51 1136.01 L205.28 1137.61 L203.96 1138.9 L202.18 1141.36 L199.86 1142.86 L196.93 1141.29 L196.43 1140.09 L196.27 1137.14 L195.83 1136 L194.52 1135.34 L193.47 1136.08 L192.85 1137.61 L192.8 1139.29 L193.35 1140.13 L196.93 1143.71 L197.85 1145.15 L197.87 1146.16 L197.52 1147.15 L197.27 1148.52 L197.53 1156.3 L198.11 1158.63 L198.86 1159.94 L200.72 1162.34 L201.07 1163.85 L200.96 1165.16 L200.44 1166.93 L200.31 1167.89 L199.9 1169.14 L197.27 1172.34 L197.02 1172.49 L196.06 1172.93 L195.83 1173.07 L195.83 1173.72 L196.04 1174.61 L196.35 1175.36 L196.59 1175.55 L195.08 1176.67 L193.94 1175.65 L192.52 1173.96 L187.89 1172.34 L182.11 1166.65 L179.91 1165.48 L175.05 1163.54 L173.32 1162.28 L172.44 1161.03 L171.82 1159.91 L171.12 1158.87 L169.9 1157.9 L168.75 1157.65 L167.92 1157.93 L167.12 1157.76 L166.1 1156.22 L165.88 1154.9 L166.24 1152.2 L165.72 1150.97 L165.07 1149.98 L164.47 1148.65 L164.01 1147.28 L163.82 1146.12 L163.06 1144.28 L159.18 1140.99 L157.69 1139.29 L154.71 1132.89 L153.51 1132.05 L147 1123.14 L145.81 1120.8 L145.38 1118.81 L145.48 1113.85 L146.23 1112.1 L148.11 1110.34 L150.59 1109.22 L153.13 1109.4 L153.95 1110.19 L154.33 1111.26 L154.8 1112.21 L155.82 1112.61 L159.62 1112.61 L161.81 1116.26 L162.46 1119 L160.73 1120.73 L165.61 1124.12 L168.08 1125.16 L171.42 1125.55 L172.01 1128.49 L175.54 1131 L180.23 1132.41 L184.39 1132.05 L187.86 1130.18 L195.02 1124.81 L197.27 1122.34 L197.35 1121.8 L197.15 1120.35 L197.27 1119.86 L197.6 1119.66 L198.52 1119.34 L198.79 1119.12 L200.69 1116.27 L201.4 1114.56 L201.48 1112.42 L201.07 1108.59 L201.72 1107.15 L201.81 1106.26 L201.07 1105.45 L200.4 1105.48 L196.93 1106.17 L194.34 1105.65 L193.31 1104.42 L193.83 1103.07 L195.83 1102.15 L194.67 1101.56 L193.47 1101.34 L190.85 1101.35 L189.7 1100.99 L186.72 1098.05 L182.22 1094.96 L179.96 1092.81 L178.99 1090.45 L178.05 1089.06 L173.87 1087.36 L172.94 1085.58 L173.74 1083.36 L175.7 1082.21 L178.21 1082.05 L180.59 1082.76 L179.96 1080.74 L180.86 1078.93 L182.38 1077.22 L183.63 1075.43 L182.04 1072.96 L181.34 1072.21 L180.49 1075.53 L178.79 1078.67 L176.26 1080.59 L172.94 1080.26 L171.8 1079.36 L170.93 1077.9 L170.52 1076.02 L170.72 1073.89 L171.55 1072.47 L174.12 1071.24 L175.21 1069.87 L171.91 1069.48 L170.45 1071.27 L169.74 1073.56 L168.75 1074.69 L163.74 1074.65 L162.38 1073.49 L162.3 1070.6 L160.95 1073.66 L160.09 1074.8 L158.51 1075.43 L158.51 1067.77 L159.07 1066.27 L165.1 1057.45 L167.24 1055.96 L169.91 1055.75 L173.7 1056.07 L172.67 1054.73 L172.31 1053.34 L172.86 1052.31 L174.51 1052.04 L173.91 1051.03 L173.21 1050.2 L172.39 1049.67 L171.42 1049.54 L170.77 1050 L170.76 1051.68 L170.31 1052.04 L164.64 1052.08 L163.41 1052.41 L162.6 1052.78 L161.6 1052.88 L159.62 1052.78 L159.29 1053.21 L158.45 1055.35 L157.69 1056.07 L156.22 1056.21 L154.66 1055.66 L153.32 1054.72 L152.44 1053.66 L152.98 1053.32 L153.86 1052.47 L154.57 1052.04 L150.47 1050.44 L149.28 1049.32 L150.79 1047.93 L149.14 1047.08 L148.57 1045.67 L149.12 1044.4 L150.79 1043.97 L150.53 1043.1 L150.09 1042.28 L148.76 1043 L147.62 1043.8 L146.78 1044.85 L146.38 1046.32 L145.83 1045.7 L144.51 1044.59 L143.96 1043.97 L143.16 1046.69 L142.47 1047.59 L141.3 1047.93 L140.06 1047.45 L138.71 1046.28 L137.64 1044.84 L137.21 1043.53 L136.63 1040.65 L134.35 1034.56 L134.17 1031.71 L133.34 1031.71 L133.3 1036.19 L133.03 1038.53 L131.89 1039.05 L131.24 1037.64 L129.54 1030.09 L128.78 1030.09 L127.96 1032.56 L126.44 1034.44 L124.35 1035.77 L121.96 1036.56 L118.87 1036.28 L115.59 1035.16 L112.83 1034.56 L111.27 1035.83 L109.62 1035.01 L108.07 1033.9 L106.8 1032.53 L105.95 1030.98 L106.12 1033.29 L106.88 1035.17 L108.99 1039.05 L111.27 1047.2 L117.89 1060.23 L118.16 1063.33 L115.86 1061.43 L114.06 1058.4 L111.27 1052.04 L109.53 1046.17 L108.14 1042.85 L106.3 1041.4 L103.81 1042.91 L103.02 1046.42 L103.47 1050.38 L105.5 1054.72 L106.12 1058.45 L106.63 1060.11 L108.05 1061.91 L108.48 1062.25 L108.99 1062.53 L109.34 1063.02 L110.46 1064.7 L110.44 1064.95 L108.26 1062.4 L107.17 1062.07 L106.63 1061.79 L105.57 1060.3 L104.2 1057.03 L98.28 1047.96 L97.54 1045.91 L97.09 1042.79 L95.95 1040.65 L92.98 1037.43 L90.74 1034.19 L89.54 1032.96 L89.01 1031.79 L88.81 1028.31 L88.37 1026.86 L90.38 1027.39 L96.4 1026.86 L97.73 1026.24 L98.87 1024.77 L100.58 1022.01 L100.87 1022.65 L101.12 1023.11 L101.31 1023.62 L101.34 1024.43 L102.15 1024.43 L104.51 1018.2 L105.12 1017.09 L105.12 1016.36 L101.59 1017.28 L96.95 1022.31 L93.74 1024.43 L90.62 1023.85 L90.29 1020.09 L91.82 1013.85 L93.77 1011.82 L96.27 1002.87 L97.92 1000.84 L100.66 999.73 L101.83 997.07 L102.84 991.13 L100.78 992.8 L99.74 997.59 L98.3 999.29 L96.48 998.97 L95.48 996.68 L95.13 993.67 L95.26 991.13 L99.52 983.41 L101.2 979.05 L99.82 976.47 L99.31 978.72 L98.38 981.37 L97.14 983.93 L95.64 985.9 L94.2 988.58 L93.91 991.97 L94.45 998.55 L93.49 1003.72 L91.1 1008.25 L84.57 1017.09 L80.4 1026.12 L80.02 1026.41 L79.39 1027.03 L78.41 1027.6 L76.98 1027.74 L76.16 1027.4 L75.59 1026.73 L74.64 1025.24 L67.56 1019.71 L66.36 1018.34 L66.52 1016.53 L67.03 1014.76 L67.97 1013.07 L69.4 1011.5 L76.57 1006.58 L80.7 1005.71 L85.33 1004.15 L84.34 1003.6 L83.38 1003.37 L81.16 1003.34 L79.83 1003.17 L79.42 1002.68 L79.2 1001.89 L78.42 1000.84 L75.75 998.65 L74.67 997.5 L73.96 995.99 L72.96 985.45 L72.45 983.54 L71.15 982.4 L68.64 982.21 L69.07 984.87 L67.83 987.35 L66.04 988.28 L64.85 986.26 L66.51 985.65 L67.12 985.53 L64.01 983.13 L62.98 979.48 L62.41 975.46 L60.65 972.01 L58.29 968.77 L54.22 961.68 L51.12 959.45 L53.84 964.82 L58.84 972.39 L59.26 973.62 L60.23 982.96 L62.51 989.51 L62.62 991.45 L61.81 996.86 L62.71 1009.07 L61.81 1011.5 L61 1010.05 L59.04 1007.51 L58.02 1005.69 L53.14 992.65 L50.85 989.29 L40.55 979.69 L39.36 977.8 L38.34 972.31 L36.9 969.98 L32.85 965.94 L32.03 964.69 L31.63 963.66 L30.97 962.95 L29.36 962.69 L28.22 962.31 L25.95 960.64 L24.81 960.26 L22.91 959.19 L21.77 956.68 L20.64 951.26 L14.5 933.33 L12.57 930.25 L11.78 928.37 L10.62 917.7 L10.02 916.26 L5.48 912.44 L4.82 910.6 L4.09 908.83 L1.48 906.38 L0.64 904.73 L0 902.62 L0.38 900.76 L1 897.23 L1.14 894.9 L0.34 890.16 L0.37 887.82 L0.96 885.74 L4.07 881.25 L5.57 876.16 L6.81 873.82 L8.66 873.53 L12.17 873.59 L16.41 868.47 L19.97 869.68 L21.44 871.63 L21.91 873.59 L22.14 875.58 L22.91 877.68 L23.85 878.66 L25.04 879.32 L27.58 880.2 L32.27 880.65 L35.97 879.85 L38.84 880.5 L41 885.3 L41.85 890.12 L42.64 892.58 L43.96 894.08 L46.22 893.89 L48.82 892.19 L50.98 889.91 L51.99 887.98 L51.79 886.77 L51.59 885.56 L47.59 873.46 L46.42 867.48 L46.15 864.45 L44.52 835.95 L46.46 817.65 L46.15 814.03 Z M653.69 2217.22 L651.48 2217.91 L649.34 2217.44 L648.2 2216.02 L649.02 2213.88 L650.67 2213.1 L652.43 2213.71 L653.63 2215.24 Z M672.72 2135.58 L671.96 2138.05 L670.35 2139.71 L668.72 2139.83 L667.9 2137.71 L668.39 2136.08 L669.75 2135.09 L671.52 2134.61 L673.27 2134.52 L673.13 2134.79 L672.85 2135.3 Z M695.04 2083.8 L695.41 2082.01 L696.48 2080.94 L697.47 2081.06 L697.63 2082.84 L697.09 2084.19 L696.23 2085.18 L695.42 2085.24 Z M587.8 1992.58 L587.21 1992.16 L585.56 1990.57 L587.62 1990.62 L589.18 1991.93 L589.48 1993.09 Z M629.18 1879.99 L629 1877.68 L629.73 1876.19 L630.95 1876.11 L632.26 1877.97 L632.64 1879.73 L632.14 1880.63 L630.92 1880.7 Z M680.16 2188.78 L678.43 2188.54 L677.75 2188.88 L677.72 2189.54 L677.88 2190.26 L678.53 2191.1 L679.47 2191.56 L679.99 2192.14 L679.34 2193.4 L677.22 2194.01 L675.99 2195.88 L675.22 2197.87 L674.41 2198.8 L672.62 2199.49 L668.81 2202.03 L667.19 2201.88 L666.8 2203.16 L666.3 2204.2 L666.03 2205.06 L666.37 2205.8 L663.5 2210.45 L662.14 2211.72 L661.88 2209.59 L660.71 2209.95 L660.33 2207.61 L660.44 2204.62 L660.68 2203.04 L661.12 2202.04 L661.47 2198.8 L662.93 2198.44 L663.77 2197.65 L664.18 2196.85 L664.47 2196.49 L665.1 2196.09 L665.57 2195.17 L665.95 2194.14 L666.37 2193.4 L667.19 2192.71 L670.17 2191.03 L673.38 2188.19 L675.58 2187.23 L677.88 2188.02 L678.38 2187.68 L678.7 2187.6 L680.16 2188.02 Z M667.95 2180.63 L667.71 2179.97 L666.62 2178.49 L666.37 2177.58 L666.79 2176.31 L667.52 2175.27 L667.89 2174.34 L667.19 2173.37 L667.19 2172.53 L669.09 2172.5 L672 2174.22 L674.03 2174.85 L674.08 2175.36 L673.92 2175.51 L673.62 2175.52 L673.27 2175.62 L672.94 2176.29 L672.62 2176.78 L672.61 2177.28 L673.27 2177.99 L671.58 2178.93 L670.39 2179.78 L669.69 2180.98 L669.01 2186.34 L667.95 2189.55 Z M637.47 2138.46 L636.48 2140.17 L637.16 2140.84 L638.35 2140.88 L638.98 2140.77 L639.6 2141.43 L640.12 2142.23 L641.03 2144.19 L640.47 2144.86 L639.9 2145.32 L639.17 2145.52 L638.16 2145.4 L639.19 2147.2 L639.74 2147.78 L637.32 2148.92 L635.51 2148.46 L635.02 2146.88 L636.64 2144.7 L635.95 2143.25 L635.46 2141.14 L635.78 2139.25 Z M702.16 2093.61 L704.96 2094.97 L707.56 2097.12 L708.78 2100.2 L707.48 2104.34 L705.88 2105.39 L703.93 2105.43 L702.69 2104.64 L703.33 2103.23 L704.31 2102.83 L705.17 2102.87 L705.8 2102.69 L706.03 2101.65 L705.71 2100.88 L704.9 2100.58 L703.88 2100.71 L702.92 2101.26 L702.92 2099.71 L702.3 2098.12 L701.92 2096.37 L701.86 2094.77 Z M635.13 2094.3 L635.79 2091.1 L637.52 2089.85 L639.75 2089.88 L641.95 2090.44 L640.78 2093.56 L639.28 2095.77 L637.21 2097.44 L634.37 2098.88 L635.15 2097.72 L635.59 2096.65 L635.59 2095.55 Z M677.06 2099.71 L677.39 2101.8 L677.39 2104.04 L678.02 2105.67 L680.16 2105.96 L679.18 2107.43 L678.75 2108.83 L679.01 2110.13 L680.16 2111.3 L679.59 2111.24 L679.45 2111.43 L679.46 2111.76 L679.34 2112.14 L678.05 2114.64 L677.07 2115.62 L675.17 2116.01 L673.62 2115.53 L673.11 2114.29 L673.27 2110.59 L673.73 2110.91 L674.03 2111.3 L675.7 2109.98 L675.27 2108.89 L673.27 2107.51 L673.3 2105.85 L674.19 2102.29 L674.03 2100.41 L673.6 2100.11 L672.08 2099.64 L671.75 2099.29 L671.7 2098.28 L671.59 2097.62 L671.34 2097.14 L669.39 2094.68 L667.19 2092.76 L666.95 2093.28 L666.57 2093.81 L666.37 2094.3 L665.67 2090.44 L664.62 2089.89 L663.61 2089.83 L662.88 2090.35 L662.58 2091.57 L661.87 2092.27 L658.45 2094.63 L657.26 2095.08 L655.91 2093.95 L656.88 2092.15 L659.54 2089.28 L659.86 2088.75 L661.34 2087.82 L661.88 2087.35 L662.12 2086.61 L662.5 2084.6 L662.96 2083.84 L664.36 2083.42 L666.41 2083.7 L668.55 2084.54 L670.17 2085.81 L671.26 2087.56 L671.98 2089.58 L672.38 2091.76 L672.51 2093.95 L673.06 2095.97 L674.38 2097.21 L675.9 2098.27 Z M706.03 2084.19 L704.96 2084.55 L704.21 2085.22 L703.81 2086.17 L703.76 2087.35 L701.3 2086.28 L700.32 2084.26 L700.46 2082.03 L701.4 2080.33 L703.22 2078.89 L703.93 2078.14 L704.44 2077.23 L704.63 2076.15 L704.36 2074.14 L704.44 2073.37 L705.61 2071.47 L706.41 2071.79 L706.99 2073.48 L707.83 2077.75 L707.89 2079.48 L707.48 2082.64 L707.66 2085.8 L707.48 2086.51 L706.64 2086.85 L706.21 2086.13 L706.03 2085.02 Z M677.88 2053.19 L678.53 2053.44 L679.54 2053.18 L680.46 2053.13 L680.87 2053.97 L680.1 2055.1 L678.37 2056 L674.79 2056.99 L674.79 2055.52 L674.33 2053.76 L673.11 2052.54 L671.96 2051.62 L671.75 2050.8 L673.05 2050.26 L675.36 2050.02 L678.58 2050.03 L677.83 2052.26 Z M678.24 1990.62 L679.74 1990.72 L681.38 1993.16 L682.67 1996.27 L683.2 1998.39 L682.87 1999.46 L682.14 1999.82 L681.36 1999.96 L680.87 2000.33 L680.68 2001.4 L680.87 2004.98 L679.54 2009.7 L679.29 2012.05 L680.16 2014.28 L678.71 2017.11 L678.81 2023.56 L677.88 2026.81 L677.06 2025.97 L676.85 2026.55 L676.59 2027.03 L676.37 2027.56 L676.3 2028.29 L675.28 2027.29 L673.71 2025.33 L673.27 2024.42 L672.5 2025.28 L672.14 2025.9 L672.16 2026.56 L672.51 2027.59 L670.66 2027.72 L669.75 2028.46 L670.04 2029.34 L671.75 2029.9 L670.67 2030.42 L669.41 2030.7 L668.09 2030.7 L666.92 2030.4 L665.67 2029.9 L665.63 2029.34 L665.67 2027.59 L666.76 2027.93 L667.76 2027.73 L668.67 2027.05 L669.47 2025.97 L669.14 2024.96 L668.71 2022.59 L668.31 2021.7 L668.14 2020.66 L669.14 2019.82 L670.37 2019.14 L670.99 2018.57 L670.75 2017.66 L670.23 2017.29 L669.72 2016.8 L669.47 2015.5 L669.82 2014.52 L671.4 2013.41 L672.08 2011.29 L672.84 2010.91 L673.6 2010.76 L674.03 2010.47 L674.08 2009.18 L673.38 2006.98 L673.27 2005.75 L673.8 2003.41 L677.06 1997.24 L677.58 1992.17 Z M706.79 1990.18 L707.73 1990.71 L708.31 1991.55 L708.69 1992.68 L709 1994.06 L709.14 1995.28 L709.04 1998.75 L707.99 2002.03 L708.31 2010.82 L707.95 2012.26 L706.38 2014.05 L706.03 2015.5 L706.15 2017.05 L706.67 2019.8 L706.79 2021.31 L705.56 2020.43 L703.82 2018.29 L702.92 2017.44 L701.73 2017.01 L700.29 2016.66 L699 2016.14 L698.31 2015.13 L696.41 2017.36 L695.35 2017.06 L695 2015.2 L695.27 2012.73 L694.4 2013.39 L693.88 2013.34 L693.5 2012.79 L693.05 2011.95 L693.83 2009.63 L692.91 2008.06 L691.5 2007 L690.79 2006.14 L689.47 2002.95 L689.77 2001.47 L692.37 2001.04 L691.67 2000.11 L689.68 1998.38 L689.27 1997.63 L689.52 1996.16 L690.15 1995.64 L690.91 1995.44 L691.55 1994.91 L692.04 1994.69 L692.91 1994.15 L693.21 1993.61 L691.94 1993.36 L690.74 1993.39 L689.77 1993.3 L689.01 1992.85 L688.51 1991.81 L691.06 1991.27 L696.01 1992.06 L697.62 1991.81 L697.25 1991.36 L697.05 1991.04 L696.79 1990.18 L698.24 1990.21 L701.4 1991.04 L702.74 1990.81 L705.33 1990.05 Z M653.47 2001.82 L654.36 2002.25 L654.83 2002.96 L654.81 2003.88 L654.16 2004.98 L656.1 2007.19 L656.78 2008.19 L657.26 2009.63 L654.54 2008.03 L653.68 2007.26 L653.47 2006.53 L652.79 2005.95 L651.12 2003.44 L649.15 2002.23 L648.61 2001.4 L650.02 2001.04 L650.45 1999.99 L650.48 1997.74 L649.8 1995.61 L648.09 1994.91 L648.63 1992.04 L647.28 1985.85 L648.85 1983.21 L648.64 1987.48 L648.85 1988.71 L649.45 1989.4 L652.3 1991.81 L653.11 1993.31 L653.13 1996.33 L653.75 1998.64 L656.45 1998.01 L656.28 1999.37 L655.61 2000.43 L654.6 2001.22 Z M610.01 1978.56 L611.13 1979.53 L611.58 1980.61 L611.33 1981.75 L610.44 1982.86 L610.27 1983.39 L610.84 1986.31 L610.38 1986.25 L608.51 1985.53 L607.62 1982.91 L607.7 1981.47 Z M675.55 1983.99 L675.52 1981.07 L675.81 1978.95 L676.8 1978.27 L678.96 1979.68 L679.43 1981.24 L678.89 1983.16 L677.72 1984.54 L676.36 1984.47 Z M677.06 1975.39 L676.37 1976.27 L675.5 1976.62 L674.65 1976.35 L672.54 1973.11 L673.51 1971.48 L675.33 1970.75 L676.3 1971.16 L676.5 1972.23 L677.17 1974.43 Z M714.37 1971.58 L718.69 1972.71 L720.56 1973.71 L720.45 1975.39 L720.45 1974.68 L717.47 1975.59 L710.94 1975.65 L708.65 1976.59 L706.83 1978.23 L704.63 1979.7 L702.4 1980.54 L700.43 1980.27 L698.8 1976.88 L698.39 1975.41 L698.31 1973.83 L698.61 1972.93 L699.67 1971.26 L699.88 1970.38 L699.64 1969.23 L699.07 1968.71 L698.33 1968.32 L697.12 1967 L696.61 1966.66 L696.23 1966.13 L696.1 1964.95 L696.1 1961.43 L695.22 1957.92 L695.19 1956.44 L696.1 1955.15 L696.82 1956.36 L699.88 1959.1 L702.16 1962.28 L703.93 1965.97 L705.08 1967.08 L707.48 1968.41 L709.49 1967.79 L711.17 1968.68 Z M658.02 1946.61 L659.06 1946.04 L660.58 1945.42 L661.96 1945.31 L662.58 1946.22 L662.88 1951.02 L662.58 1952.11 L661.71 1950.41 L660.28 1949.07 L658.46 1948.67 L656.45 1949.79 L655.83 1949.48 L655.61 1949.31 L655.43 1949.13 L653.9 1946.52 L651.68 1944.31 L651.12 1942.73 L651.43 1940.67 L652.43 1938.1 L653.87 1935.89 L655.36 1934.97 L657.51 1935.07 L659.33 1935.52 L660.58 1936.55 L661.06 1938.39 L661.01 1939.5 L660.63 1941.72 L660.3 1942.73 L659.7 1943.56 L658.89 1944.31 L658.21 1945.23 Z M654.56 1926.35 L654.47 1926.97 L652.64 1930.31 L651.7 1931.22 L650.58 1931.96 L649.4 1932.45 L648.47 1932.64 L648.23 1933.28 L647.33 1937.3 L646.3 1935.31 L645.81 1934.97 L645.35 1933.05 L643.92 1932.86 L642.31 1933.15 L641.26 1932.64 L641.57 1931.07 L642.97 1929.87 L644.09 1928.67 L643.54 1927.13 L642.08 1928.21 L641.64 1928.74 L641.26 1929.46 L640.43 1929.46 L640.63 1926.24 L642.26 1924.93 L644.61 1924.24 L648.08 1922.22 L649.29 1922.1 L649.91 1922.54 L649.26 1923.64 L648.17 1924.66 L647.7 1925.39 L647.9 1926.12 L648.85 1927.13 L650.32 1926.84 L650.92 1926.89 L651.95 1927.13 L651.9 1925.91 L652 1924.65 L652.37 1923.65 L654.38 1922.66 L655.01 1921.34 L655.36 1919.99 L655.74 1919.28 L657.37 1919.86 L658.56 1921.86 L658.92 1924.33 L658.02 1926.35 L657.06 1926.95 L656.37 1926.89 L655.61 1926.55 Z M704.44 1911.52 L704.74 1913.36 L704.44 1919.71 L703.82 1921.23 L702.38 1921.74 L700.88 1921.2 L700.01 1919.56 L701.59 1911.78 L702.85 1909.53 Z M675.55 1903.32 L675.85 1902.57 L676.47 1903.19 L677.01 1904.16 L677.06 1904.52 L679.52 1908.03 L678.74 1910.58 L676.25 1911.56 L673.62 1910.33 L672.89 1909.09 L672.84 1907.9 L673.27 1904.91 L673.62 1904.55 L674.41 1904.44 L675.18 1904.17 Z M627.61 1901.06 L628.08 1900.69 L629.11 1900.16 L630.16 1899.87 L630.63 1900.25 L631.08 1902.12 L631.81 1903.05 L631.95 1904.21 L630.63 1906.78 L630.59 1906.26 L630.4 1905.97 L630.11 1905.7 L629.81 1905.3 L629.62 1904.55 L629.42 1904.42 L629.02 1904.41 L628.35 1904.52 L628.35 1903.68 L628.86 1902.97 L628.53 1902.57 L627.94 1902.07 Z M699.13 1901.49 L699.61 1904.65 L699.56 1909.03 L699.02 1913.22 L697.96 1915.83 L690.79 1926.78 L686.19 1930.83 L680.87 1929.46 L681.9 1926.98 L682.38 1926.35 L682.76 1923.95 L684.31 1919.28 L684.66 1916.61 L684.45 1915.57 L683.48 1913.97 L682.99 1912.5 L682.49 1912.11 L682.38 1911.52 L682.81 1910.86 L683.69 1910.25 L684.4 1909.62 L684.31 1908.83 L682.21 1904.96 L680.95 1899.8 L680.87 1894.36 L682.38 1889.68 L684.31 1891.53 L690.36 1893.07 L692.37 1895.2 L692.37 1896.22 L691.55 1901.06 L691.89 1902.86 L694.59 1907.64 L695 1904.71 L696 1901.07 L697.42 1899.18 Z M680.16 1844.4 L681.03 1844.59 L681.8 1844.01 L682.7 1843.63 L683.96 1844.4 L684.69 1845.63 L684.45 1846.4 L683.2 1847.52 L682.49 1848.49 L681.87 1848.94 L681.35 1849.48 L680.87 1850.7 L680.7 1851.78 L680.87 1855.37 L682.12 1860.22 L682.23 1862.55 L680.87 1863.94 L680.79 1861.63 L679.29 1858.92 L679.34 1856.93 L678.54 1854.72 L677.06 1847.52 L674.55 1840.51 L674.03 1838.16 L673.87 1835.94 L674.2 1830.79 L674.79 1829.52 L676.36 1829.6 L677.18 1831.36 L679.41 1842.8 Z M639.74 1755.88 L640.43 1756.74 L639.79 1758.04 L639.36 1760.25 L638.98 1764.54 L638.16 1764.54 L637.87 1762.65 L637.78 1759.41 L638.27 1756.57 Z M135.69 1723.68 L136.15 1728.81 L135.55 1731.02 L133.34 1732.36 L134.28 1723.92 L134.57 1722.49 L135.05 1722.16 Z M166.78 1641.18 L167.99 1639.7 L168.76 1637.77 L169.9 1635.98 L172.18 1634.9 L172.18 1635.61 L171.26 1637.63 L169.96 1639.82 L168.41 1641.31 Z M610.01 1559.83 L610.82 1561.63 L610.9 1563.55 L610.54 1565.39 L610.01 1566.92 L609.24 1564.64 L608.51 1556.76 L609.11 1557.44 L609.54 1558.12 L609.84 1558.9 Z M294.81 1517.52 L295.02 1519.32 L296.08 1522.37 L296.32 1523.83 L295.86 1525.34 L293.83 1528.77 L292.12 1533.17 L289.24 1533.75 L285.92 1532.84 L283.36 1531.4 L283.36 1530.61 L285.57 1529 L287.18 1526.74 L289.49 1521.92 L292.46 1517.63 L294.29 1515.93 L294.81 1517.51 Z M276.38 1484 L276.98 1489.78 L275.55 1495.56 L272.78 1500.97 L267.21 1508.14 L266.1 1509.07 L264.31 1509.96 L258.26 1511.96 L256.61 1512.99 L255.93 1513.58 L255.93 1514.5 L256.06 1515.56 L255.96 1516.33 L254.84 1517.74 L252.42 1519.73 L251.34 1521.14 L251.8 1522.91 L250.94 1524.74 L248.39 1528.24 L247.55 1528.24 L247.55 1527.38 L249.17 1524.49 L248.28 1520.36 L245.29 1513.18 L246.11 1509.56 L249.17 1507.53 L253.14 1505.75 L256.74 1502.85 L257.92 1500.93 L259.59 1497.22 L260.46 1495.74 L263.85 1492.44 L270.77 1484.02 L274.24 1481.27 Z M601.67 1461.61 L601.58 1463.4 L601.89 1467.88 L601.67 1470.31 L601.06 1471.6 L600.34 1472.53 L599.72 1473.56 L599.4 1475.13 L599.54 1476.11 L599.12 1480.32 L599.67 1483.91 L597.02 1486.54 L593.62 1485.4 L592.91 1480.26 L591.66 1478.49 L587.22 1474.8 L588.33 1471.17 L589.83 1470.09 L590.06 1467.56 L589.54 1464.64 L588.71 1462.4 L587.35 1460.37 L586.72 1459.1 L586.43 1457.65 L586.83 1456.87 L587.59 1456.31 L587.98 1455.61 L587.26 1454.42 L588.41 1452.9 L590.19 1451.68 L592.2 1450.86 L594.02 1450.53 L598.62 1452.68 L601.21 1453.41 L603.56 1453.7 L603.94 1455.95 L604.03 1458.02 Z M174.51 1183.56 L174.81 1184.98 L175.81 1187.64 L176.03 1188.77 L175.7 1191.6 L174.67 1194.26 L173.02 1196.5 L170.72 1198.05 L168.7 1198.37 L165.88 1198.24 L163.39 1197.72 L162.3 1196.86 L161.73 1195.39 L160.41 1193.94 L157.69 1191.65 L147 1178.76 L146.49 1177.77 L145.48 1174.75 L155.82 1173.94 L158.34 1172.94 L159.59 1171.2 L160.77 1170.6 L163 1173.07 L165.39 1174.96 L166.47 1175.28 L167.65 1175.46 L170.31 1175.55 L174.18 1175.07 L174.97 1175.9 L175.21 1178.76 L174.56 1182.27 Z M199.55 1111 L199.88 1112.68 L199.73 1115.14 L199.01 1117.35 L197.69 1118.31 L196.16 1119.05 L193.6 1122.62 L191.79 1124.14 L191.58 1124.39 L191.2 1124.64 L190.52 1124.82 L189.87 1124.6 L189.59 1123.97 L189.38 1123.34 L188.93 1123.14 L187.56 1123.86 L187.56 1124.81 L187.96 1125.83 L187.8 1126.79 L186.91 1127.26 L185.64 1127.36 L183.2 1127.23 L180.89 1127.52 L180.23 1127.31 L178.99 1126.36 L177.67 1124.92 L175.01 1120.85 L174.51 1119.49 L174.27 1118.25 L173.18 1116.78 L172.94 1115.47 L172.8 1115.15 L172.56 1114.91 L172.29 1114.54 L172.18 1113.85 L172.44 1113.39 L173.02 1113.42 L173.54 1113.36 L173.7 1112.61 L172.86 1110.73 L171.28 1109.77 L167.62 1108.59 L166.04 1107.52 L164.91 1106.22 L163 1102.15 L164.16 1102 L164.64 1101.52 L164.53 1100.73 L163.82 1099.67 L168.15 1094.2 L169.13 1094.1 L170.02 1094.34 L172.1 1094.56 L172.94 1094.83 L173.97 1095.71 L174.51 1096.59 L174.94 1097.52 L175.62 1098.5 L180.92 1102.7 L182.8 1104.57 L184.65 1103.64 L187.04 1103.28 L189.5 1103.67 L191.61 1105.01 L193.66 1106.63 L197.94 1109.17 Z M147.82 1064.95 L149.12 1068.51 L149.28 1070.31 L148.57 1072.21 L142.44 1067.14 L140.65 1064.52 L136.88 1051.58 L136.45 1047.73 L138.58 1047.93 L140.87 1049.49 L142.06 1050.64 L142.93 1051.69 L143.26 1052.41 L143.97 1053.38 L145.54 1054.33 L147.11 1055.53 L147.82 1057.28 L147.37 1062.82 Z M87.69 1037.84 L88.07 1039.55 L93.31 1053.34 L94.12 1057.52 L94.45 1062.53 L93.74 1062.53 L93.15 1060.32 L92.63 1055.2 L91.82 1053.21 L90.29 1051.02 L83.43 1038.18 L83.05 1036.19 L82.77 1035.59 L82.16 1035.12 L81.62 1034.48 L81.54 1033.32 L81.9 1032.16 L82.44 1031.66 L83.09 1031.81 L83.81 1032.59 L85.73 1033.84 L86.45 1034.72 L87.07 1035.69 L87.52 1036.73 Z "/>
</g>
</svg>
