<svg xmlns="http://www.w3.org/2000/svg" viewBox="0 0 1000 965.4">
<g fill="#ccc" stroke="#333" stroke-width="0.5" stroke-linejoin="round">
<path fill-rule="evenodd" d="M352.19 932.85 L350.82 933.87 L350.08 935.17 L349.15 936.01 L347.2 935.71 L346.35 935.17 L341.84 931.43 L339.55 928.76 L338.46 927.09 L330.5 919.06 L329.21 918.5 L328.63 917.96 L324.18 911.88 L319.45 906.33 L309.66 899.14 L307.68 897.16 L303.91 892.27 L298.61 888.01 L297.6 886.86 L295.31 883.16 L292.91 880.61 L292.51 880.02 L292.45 879.05 L292.93 877.35 L293.02 876.55 L292.08 873.93 L290.09 871.15 L282.72 863.74 L281.78 862.26 L281.42 860.26 L281.45 855.93 L281.29 855.26 L280.83 854.22 L273.77 842.79 L272.58 840.13 L271.68 838.81 L270.47 838.25 L269.83 837.51 L267.67 833.14 L264.65 829.2 L264.19 828.31 L263.19 821.74 L262.78 820.93 L262.29 820.33 L261.85 819.67 L261.67 818.62 L262.18 815.22 L261.15 809.86 L261.67 808.65 L260.19 805.59 L259.76 803.99 L259.61 802.13 L259.68 798.69 L259.26 797.04 L258.09 795.59 L257.57 795.38 L256.23 795.28 L255.57 795.02 L255.42 794.66 L254.91 793.78 L254.37 793.02 L254.11 793.02 L253.9 791.21 L253.38 789.66 L251.01 784.67 L250.63 783.27 L250.96 781.02 L250.19 779.4 L249.14 777.73 L248.51 776.33 L248.35 774.42 L248.55 772.76 L249.16 771.59 L250.26 771.15 L251.02 770.96 L251.77 770.67 L252.32 770.7 L252.55 771.49 L252.55 774.65 L253.06 774.65 L253.34 773.01 L254.8 768.69 L254.84 767.82 L254.37 766.73 L252.86 761.69 L251.89 756.71 L250.18 753.65 L247.74 751.11 L244.94 749.18 L240.56 747.35 L239.9 746.62 L239.34 740.18 L239.62 733.95 L238.14 731.69 L237.89 731.13 L238.18 730.16 L238.62 730.14 L239.2 730.35 L239.9 730.02 L240.89 727.39 L240.83 723.87 L240.04 720.34 L238.89 717.61 L235.57 712.08 L235.15 709.39 L236.37 706.35 L235.82 706.35 L232.03 701.82 L230.77 699.63 L230.59 698.66 L230.59 697.97 L230.77 696.83 L230.77 690.35 L231.08 688.67 L233.3 684.43 L233.5 683.07 L233.49 681.21 L233.18 679.56 L231.55 677.94 L231.09 675.86 L230.77 672.14 L228.95 667.17 L228.54 663.34 L227.79 660.3 L227.71 658.66 L230 652.56 L229.78 651.61 L231.28 645.79 L231.55 642.46 L230.81 639.35 L229.79 637.23 L228.26 634.05 L227.33 630.87 L227.1 624.35 L226.19 621.22 L221.96 613.1 L220.19 610.62 L216.55 607.03 L215.51 604.59 L212.99 601.63 L212.54 599.59 L212.82 598.72 L213.86 597.51 L214.1 597.04 L214.1 593.71 L213.75 592.16 L212.11 589.13 L210.49 585.02 L206.49 577.23 L204.96 571.63 L203.51 568.94 L203.01 565.23 L202.45 564.02 L202.82 562.39 L202.81 559.68 L202.48 556.91 L201.91 555.14 L202.45 554.01 L202.94 551.8 L203.46 550.72 L203.92 550.5 L204.6 550.38 L205.21 550.09 L205.48 549.32 L206.49 547.37 L205.91 546.38 L205.98 541.85 L204.69 537.98 L204.47 536.57 L205.48 524.95 L205.11 522.06 L204.28 519.84 L201.54 512.54 L200.61 508.91 L200.67 508.13 L201.26 507.41 L203.06 504.15 L203.96 503.24 L203.95 504.93 L204.31 505.67 L204.75 505.25 L204.97 503.49 L204.87 500.38 L203.5 491.02 L202.71 488.18 L201.44 486.08 L200.39 483.84 L199.6 481.24 L199.1 478.45 L198.83 473.2 L198.92 472.43 L199.26 471.66 L200.22 470.14 L200.43 469.37 L200.43 466.07 L200.67 465.91 L201.1 465.91 L201.31 466.2 L200.89 466.91 L201.23 467.41 L201.63 468.18 L201.91 468.51 L201.47 470.12 L201.35 471.76 L201.89 472.6 L203.46 471.84 L203.35 472.75 L202.45 475.17 L203.56 474.12 L205.23 470.88 L206.24 470.2 L207.08 469.41 L207.62 467.54 L208 463.86 L207.49 449.86 L206.09 439.35 L204.36 436.5 L203.56 432.94 L200.89 427.43 L199.46 422.71 L197.08 417.66 L196.63 417.02 L191.81 411.58 L190.27 408.96 L190.21 407.04 L190.05 406.33 L178.67 391.35 L173.12 386.14 L172.54 384.85 L166.45 379.12 L165.02 378.42 L165.01 377.58 L165.32 376.75 L165.51 376.39 L165.97 374.39 L166.02 373.88 L165.78 372.87 L165.46 372.14 L159.53 363.19 L158.41 358.09 L156.11 352.41 L148.55 342.4 L143.94 334.64 L141.08 331.1 L139.2 328.77 L132.6 316.88 L129.54 312.69 L128.6 309.77 L127.54 308.67 L125.54 307.07 L124.06 304.34 L123.29 301.71 L122.51 295.2 L120.5 288.16 L114.09 275.59 L112.35 268.66 L111.94 265.32 L110.43 258.91 L107.82 252.29 L106.11 249.54 L103.14 248.62 L99.93 246.39 L97.45 242.09 L95.09 232.34 L89.36 221.29 L88.67 219 L85.54 214.8 L80.11 204.82 L79.48 203.02 L78.68 201.86 L76.79 197.94 L76.18 197.09 L72.88 191.2 L71.88 188.71 L71.51 187.21 L71.04 183.63 L70.2 181.93 L67.83 178.82 L66.32 176.08 L62.75 167.07 L61.22 164.66 L58.99 162.01 L56.32 159.93 L55.59 158.89 L54.72 153.26 L54.08 151.62 L42.04 135.49 L33.75 130.05 L30.14 125.91 L29.69 125.5 L28.39 123.67 L27.62 123.25 L26.91 122.76 L23.21 120.5 L22.03 116.42 L21.77 114.99 L20.82 112.57 L20.72 111.67 L20.74 110.88 L20.67 110.12 L20.82 109.34 L19.09 106.84 L16.23 99.24 L15.77 98.72 L9.71 92.33 L8.57 88.82 L8.04 84.25 L6.71 80.55 L5.86 77.8 L4.9 70.31 L3.2 64.63 L2.06 56.69 L1.21 52.72 L0.67 50.17 L0 46.03 L0.3 39.95 L2.77 24.39 L3.58 23.3 L3.59 23.31 L4.57 23.48 L5.85 24.16 L6.65 24.32 L7.74 24.21 L8.11 23.88 L8.27 23.36 L8.71 22.74 L10.07 21.81 L13.1 20.36 L16.58 17.72 L19.6 16.29 L22.99 15.29 L26.41 14.82 L26.92 14.7 L27.36 14.53 L27.89 14.57 L28.65 15.06 L31.18 15.83 L32.02 15.65 L32.42 15.3 L32.78 15.08 L33.46 15.3 L33.93 15.73 L34.11 16.26 L34.23 16.85 L34.52 17.46 L34.93 17.88 L35.66 18.4 L36.49 18.86 L37.27 19.05 L37.97 19.38 L38.32 20.1 L38.53 20.83 L38.77 21.15 L44.09 20.63 L48.87 20.81 L49.94 20.37 L50.95 19.54 L51.71 19.5 L53.47 20.54 L54.86 21.01 L59.19 21.38 L61.8 21.98 L62.73 21.9 L64.53 20.97 L67.83 18.08 L69.64 17.46 L71.5 17.19 L72.89 16.47 L75.49 14.25 L78.77 12.67 L81.28 11.88 L81.77 11.22 L82.37 10.1 L83.05 9.5 L83.61 9.25 L84.93 8.84 L85.57 8.4 L85.87 7.7 L86 6.83 L86.36 6.08 L88.13 5.59 L89.56 4.88 L91.86 4.35 L95.75 2.07 L103.69 0.68 L105.37 0.1 L106.98 0 L108.35 1.01 L109.33 0.49 L109.87 0.93 L110.36 1.68 L111.15 2.07 L112.81 2.34 L113.68 2.36 L114.45 2.07 L114.45 2.65 L116.33 1.76 L117.47 1.48 L117.97 1.8 L118.44 1.84 L120.24 1.36 L121.55 1.01 L122.9 1.49 L125.51 3.3 L126.83 3.7 L128.58 3.92 L130.12 4.57 L131.22 5.63 L132.19 8.68 L133.26 9.72 L133.9 10.98 L133.19 13.19 L139.48 16.71 L145.95 22.06 L153.06 26.04 L160 29.94 L160.92 30.76 L164.31 35.33 L165.39 36.18 L167.1 36.52 L168.02 36.35 L169.2 35.59 L169.86 35.41 L170.69 35.51 L172.04 35.94 L173.64 36.14 L174.84 36.52 L175.72 36.52 L176.53 36.28 L177.69 35.6 L178.19 35.41 L181.46 35.96 L183.09 35.7 L183.79 34.16 L183.86 33.77 L184.7 33.78 L184.72 33.78 L189.76 33.78 L208.71 33.79 L227.66 33.8 L246.61 33.8 L265.55 33.8 L283.67 33.81 L284.49 33.81 L303.43 33.82 L322.38 33.82 L341.32 33.82 L360.26 33.83 L379.2 33.83 L398.15 33.84 L410.67 33.84 L417.1 33.84 L436.05 33.84 L454.99 33.85 L463.95 33.86 L473.93 33.86 L492.88 33.87 L496.83 33.87 L497.41 33.92 L497.51 34.39 L497.78 35.11 L498.26 35.41 L498.74 35.8 L499.96 38.73 L500.09 39.53 L500.3 39.69 L502.06 40.22 L504.6 45.17 L504.83 46.03 L505.82 46.57 L509.67 49.78 L509.91 50.35 L510.28 51.72 L510.68 52.43 L511.38 53.13 L512.75 53.8 L513.46 54.3 L517.69 58.78 L519.17 60.75 L520.18 61.63 L523.05 62.32 L529.64 65.63 L539.28 67.42 L545.52 67.1 L548.04 66.1 L549.63 65.76 L550.46 65.78 L552.66 66.24 L555.97 66 L557.13 66.77 L568.86 70.3 L581.53 70.13 L585.74 69.17 L587.43 69 L588.94 69.39 L589.61 70.79 L590.28 71.35 L591.81 72.05 L593.52 72.6 L594.69 72.69 L595.06 72.29 L595.92 70.84 L596.39 70.52 L608.05 70.52 L610.82 72.11 L613.41 73.02 L614.13 73.13 L618.43 72.69 L620.46 72.73 L621.42 72.57 L622.46 72.11 L623.01 72.69 L624.1 71.75 L625.86 71.28 L627.84 71.38 L629.58 72.11 L632.14 69.94 L632.93 70.46 L633.96 70.4 L636.42 69.94 L637.28 70.26 L640.16 72.69 L642.07 72.21 L643.91 73.02 L645.57 74.51 L647.01 76.11 L647.75 76.71 L650.29 77.99 L652.43 79.58 L653.36 80.06 L655.22 79.56 L658.13 79.42 L660.8 79.67 L661.97 80.32 L662.52 80.97 L663.74 81.5 L664.95 81.71 L665.5 81.39 L666.06 80.7 L667.31 81.05 L669.54 82.18 L671.13 83.65 L673.03 83.49 L675.22 82.67 L677.65 82.18 L678.67 80.13 L684.44 78.55 L685.5 78.26 L692.32 76.4 L693.52 76.94 L694.75 76.63 L696.01 76.06 L697.36 75.82 L698.42 76.02 L701.44 75.82 L702.63 76.12 L705.98 77.99 L710.18 79.5 L712.38 80.59 L713.59 82.18 L714.01 82.33 L715.39 81.93 L720.71 80.9 L739.24 77.31 L757.77 73.74 L776.31 70.15 L794.84 66.57 L809.92 63.58 L824.99 60.57 L840.07 57.58 L855.14 54.59 L861.31 53.37 L864.32 52.78 L866.91 52.26 L868.3 52.23 L870.49 51.77 L873.65 51.11 L876.83 50.46 L879.99 49.8 L883.14 49.15 L886.3 48.5 L889.46 47.84 L892.62 47.19 L895.79 46.53 L898.95 45.88 L902.11 45.23 L905.27 44.57 L908.42 43.92 L911.59 43.27 L914.75 42.61 L917.91 41.96 L921.07 41.3 L923.25 40.85 L924.6 40.75 L925.98 40.96 L929.89 41.09 L930.7 41.56 L931.3 41.28 L934.39 40.4 L935.69 40.22 L937.03 40.47 L940.15 41.6 L942.36 42.01 L943.76 42.71 L945.64 43.05 L946.23 43.48 L946.69 44.01 L947.33 44.49 L948.51 44.93 L949.16 45.03 L949.86 44.98 L950.64 44.64 L951.76 43.61 L952.57 43.15 L952.96 42.62 L953.48 42.09 L954.19 41.85 L957.51 41.85 L963.82 42.86 L964.21 43.03 L964.57 43.39 L965.08 43.75 L965.85 43.92 L968.23 43.81 L973.3 44.85 L975.27 45.77 L976.21 47.14 L977.71 46.45 L978.6 47.08 L978.68 47.14 L979.53 48.37 L980.71 49.26 L981.41 49.3 L982.79 48.85 L983.55 48.73 L983.81 48.98 L983.32 50.31 L983.32 50.84 L983.77 51.43 L984.16 51.73 L984.7 51.84 L985.56 51.85 L985.77 52.15 L987.11 53.36 L987.35 53.49 L987.97 55.77 L988.11 56.14 L988.79 56.3 L989.32 56.71 L989.68 57.24 L989.87 57.77 L990.52 56.89 L991.05 56.86 L992.14 58.01 L992.37 58.45 L992.28 59.44 L992.4 59.88 L992.72 60.21 L993.55 60.65 L993.95 60.94 L994.9 62.22 L995.45 62.46 L996.7 62.53 L997.72 62.78 L998.72 63.39 L999.53 64.25 L1000 65.23 L995.15 64.32 L992.18 64.28 L989.74 66.74 L987.31 67.76 L985.03 67.84 L984.32 66.24 L982.27 67.53 L981.34 67.68 L980.71 66.77 L979.58 67.27 L978.98 66.95 L978.5 66.28 L977.72 65.76 L978.18 64.65 L977.37 64.79 L977.02 65.17 L976.77 65.69 L976.21 66.24 L975.73 66.5 L970.29 68.29 L968.86 68.4 L967.59 68.73 L965.85 70.19 L964.34 70.52 L963.89 70.77 L963.43 71.87 L962.8 72.11 L962.12 72.22 L961.48 72.49 L960.93 72.81 L960.54 73.13 L958.55 75.69 L956.01 77.31 L954.91 78.32 L951.18 82.82 L950.91 82.98 L950.67 83.41 L949.64 84.66 L949.4 85.12 L948.65 85.31 L945.26 85.66 L944.31 85.89 L941.79 83.53 L941.66 82.33 L941.32 81.88 L940.83 81.66 L940.28 81.13 L939.01 78.66 L938.11 77.83 L936.47 77.51 L933.95 77.39 L932.86 77.8 L931.66 79 L929.56 82.71 L928.86 83.24 L928.2 83.11 L926.92 82.43 L926.12 82.18 L924.57 81.98 L923.09 82.18 L920.49 83.49 L916.95 87.84 L914.48 89.66 L911.78 90.16 L911.18 90.45 L909.05 92.53 L908.47 92.98 L906.36 93.9 L905.47 94.56 L905.12 94.96 L904.85 95.49 L904.52 95.24 L904.17 95.02 L903.77 94.93 L903.34 95.01 L900.77 96.84 L900.54 99.52 L899.37 100.65 L897.19 102.14 L896.28 102.97 L894.95 104.97 L894.09 105.85 L892.93 106.21 L885.99 113.78 L884.89 114.48 L883.35 114.75 L881.61 116.83 L881.12 117.24 L880.79 117.44 L878.16 118.35 L876.86 118.39 L875.9 117.58 L875.32 114.32 L874.15 110.99 L873.49 109.92 L874.54 108.29 L873.85 106.66 L871.44 104.03 L872.07 102.79 L871.65 102.05 L870.88 101.44 L870.47 100.58 L870.17 99.66 L869.41 99.32 L868.41 99.14 L867.4 98.73 L867.01 98.12 L865.94 96.8 L864.84 95.85 L864.06 96.62 L863.43 96.54 L862.76 96.3 L862.36 96.08 L862.26 95.67 L862.4 94.36 L862.36 93.9 L861.91 93.11 L859.68 90.46 L858.83 88.54 L857.98 87.37 L857.78 86.95 L857.69 86.41 L857.78 84.57 L857.54 84.31 L857 84.25 L856.46 84.09 L856.22 83.53 L856.23 82.49 L856.13 81.97 L855.7 81.63 L854.75 81.13 L851.96 81.01 L846.85 81.45 L840.48 82 L831.75 82.76 L825.31 84.01 L819.08 85.23 L812.84 86.45 L806.61 87.67 L800.38 88.88 L794.15 90.1 L787.92 91.32 L781.7 92.53 L775.46 93.75 L769.23 94.98 L763 96.19 L756.78 97.41 L750.53 98.62 L744.31 99.84 L738.07 101.07 L731.85 102.28 L725.62 103.49 L724.36 103.74 L723.09 103.99 L721.84 104.24 L720.57 104.48 L719.18 104.54 L717.78 104.6 L714.31 104.75 L710.84 104.89 L707.36 105.04 L703.9 105.18 L699.73 105.36 L695.55 105.53 L691.4 105.7 L687.23 105.87 L684.96 105.97 L683.6 106.02 L683.6 108.24 L683.6 111.41 L683.6 114.58 L683.6 117.76 L683.6 120.95 L683.6 124.13 L683.6 127.31 L683.6 130.49 L683.6 133.67 L683.6 136.85 L683.6 140.03 L683.6 143.22 L683.6 146.4 L683.6 149.58 L683.6 152.77 L683.6 155.95 L683.6 159.15 L683.63 168.91 L683.64 172.52 L683.66 178.68 L683.69 188.46 L683.73 198.25 L683.75 208.04 L683.79 217.84 L683.82 227.66 L683.84 237.48 L683.87 247.31 L683.9 257.14 L683.92 265.03 L683.92 266.98 L683.95 276.82 L683.98 286.69 L684.02 296.55 L684.05 306.43 L684.08 316.25 L684.08 316.31 L684.08 320.87 L684.11 325.44 L684.12 329.99 L684.13 334.55 L684.14 339.12 L684.16 343.69 L684.18 348.26 L684.19 352.83 L684.2 357.4 L684.22 361.98 L684.24 366.56 L684.25 371.14 L684.27 375.73 L684.28 380.31 L684.3 384.89 L684.31 389.48 L684.32 392.75 L683.37 395.67 L679.15 395.67 L661.86 395.67 L644.57 395.67 L627.29 395.67 L610 395.67 L610.01 402.53 L610.02 414.53 L610.04 426.53 L610.05 438.56 L610.06 450.59 L610.07 464.38 L610.09 478.16 L610.11 491.97 L610.11 500.33 L610.12 505.79 L610.13 519.65 L610.15 533.51 L610.16 545.12 L610.16 547.38 L610.18 561.28 L610.18 575.21 L610.21 589.14 L610.22 603.09 L610.23 617.08 L610.25 618.09 L610.25 622.65 L610.25 627.22 L610.25 631.79 L610.26 636.35 L610.27 640.92 L610.27 645.49 L610.27 650.06 L610.27 654.64 L610.27 659.22 L610.27 663.79 L610.27 668.37 L610.28 672.96 L610.28 677.54 L610.28 682.13 L610.28 686.73 L610.28 687.78 L610.28 691.32 L610.28 695.91 L610.28 700.5 L610.28 705.1 L610.28 709.7 L610.29 714.31 L610.29 718.91 L610.29 723.52 L610.29 728.12 L610.29 732.74 L610.3 737.35 L610.3 741.97 L610.3 746.58 L610.3 751.21 L610.3 755.83 L610.3 760.46 L610.31 765.08 L610.31 769.71 L610.31 774.34 L610.31 778.97 L610.31 783.62 L610.31 788.25 L610.32 792.9 L610.32 797.54 L610.32 802.19 L610.32 806.83 L610.32 811.48 L610.32 816.13 L610.33 820.79 L610.34 825.45 L610.34 830.11 L610.34 834.78 L610.34 839.43 L610.34 844.09 L610.34 848.76 L610.34 853.44 L610.34 858.11 L610.34 862.79 L610.34 867.48 L610.34 872.14 L610.34 876.83 L610.34 881.52 L610.34 886.21 L610.34 890.9 L610.35 895.6 L610.36 900.29 L610.36 904.99 L610.36 909.69 L610.36 914.39 L610.36 917.7 L610.24 920.19 L607.95 920.78 L607.18 920.85 L604.8 920.54 L603.97 920.65 L602.03 921.75 L598.72 924.76 L596.56 925.39 L593 925.64 L591.32 926.23 L589.86 927.39 L588.59 928.06 L581.17 928.62 L580.53 928.83 L579.76 929.34 L579.28 929.92 L578.85 930.6 L578.19 931.41 L577.79 932.1 L577.17 933.65 L576.7 933.94 L575.99 934.23 L575.54 934.96 L573.41 941.71 L572.64 942.92 L571.36 943.98 L569.85 944.67 L563.86 946.22 L562.79 946.69 L562 946.55 L560.24 945.11 L559.17 945.2 L558.23 946.01 L557.39 947.13 L556.11 949.57 L555.84 951.32 L556.33 953.16 L559.09 957.95 L559.05 958.97 L558.18 959.51 L555.75 959.71 L555.3 960.02 L554.49 961.36 L553.89 961.98 L549.69 964.22 L546.63 965.24 L543.79 965.4 L542.53 963.75 L542.19 963.4 L541.37 963.12 L538.79 962.79 L538.27 962.61 L537.49 961.7 L535.63 958.75 L534.4 957.58 L518.97 955.32 L504.82 957.41 L502.14 958.9 L500.55 959.4 L500.22 959.24 L499.31 958.39 L498.99 958.2 L498.57 958.28 L497.93 958.7 L497.53 958.83 L496.09 959.06 L495.28 959.31 L494.7 959.69 L493.27 960.3 L491.46 959.99 L488.36 958.83 L486.71 958.7 L480.21 959.65 L477.58 960.58 L476.21 960.55 L470 958.36 L467.17 956.88 L462.68 953.12 L460.19 951.52 L457.51 950.38 L445.18 947.63 L442.8 947.84 L442 948.22 L440.53 949.23 L439.82 949.57 L438.88 949.63 L436.5 948.94 L434.9 948.22 L434.57 946.52 L434.63 944.45 L434.23 942.66 L433.12 941.87 L431.86 942.15 L430.46 942.81 L428.96 943.19 L425.9 943.55 L422.63 944.34 L419.87 943.9 L419.74 941.37 L420.66 937.87 L421.13 934.57 L420.32 932.72 L417.61 931.71 L417.04 930.29 L416.61 928.38 L414.62 925.76 L414.01 924.24 L414.3 923.03 L415.26 921.91 L416.55 921.07 L417.79 920.75 L418.97 919.9 L419.58 917.92 L419.76 915.61 L419.61 913.82 L419.23 912.87 L418.05 911.3 L417.54 910.44 L417.25 909.41 L417.17 908.55 L416.96 907.69 L416.29 906.66 L416 905.85 L415.9 904.79 L415.6 903.86 L414.77 903.46 L412.86 903.57 L408.17 904.68 L405.81 904.23 L404.24 902.28 L403.88 898.36 L404.08 896.47 L404.1 894.58 L403.43 893.13 L401.57 892.55 L400.14 891.89 L399.17 890.37 L398.32 888.65 L397.29 887.41 L396.46 887.06 L395.71 887.05 L394.25 887.41 L393.42 887.84 L390.96 889.68 L388.99 889.17 L388.13 889.41 L387.08 890.54 L386.19 890.88 L385.45 890.75 L384.71 889.84 L384.13 889.68 L383.68 890.05 L382.42 891.49 L382.16 891.72 L381.61 898.36 L381.07 899.2 L380.75 899.16 L380.37 898.85 L379.14 898.89 L378.83 898.65 L378.53 898.52 L378.08 898.88 L377.94 899.38 L378.13 899.82 L379.43 901.5 L379.46 902.1 L378.33 902.37 L376.76 902.36 L376.36 902.67 L376.06 903.46 L376.28 904.05 L376.84 904.9 L377.26 905.9 L377.12 906.95 L376.43 907.48 L375.68 907.22 L374.94 906.68 L374.3 906.37 L372.99 907.02 L372.67 908.52 L372.97 910.24 L373.49 911.53 L375.07 913.94 L375.59 915.47 L374.8 916.16 L373.72 916.89 L373.33 918.56 L373.24 920.48 L373.04 921.9 L372.23 923.33 L370.9 925.12 L369.43 926.38 L368.2 926.25 L367.89 925.47 L367.68 924.4 L367.35 923.45 L366.69 923.04 L365.93 923.34 L360.34 928.92 L357.51 929.83 L355.48 930.89 L353.54 932.21 Z "/>
</g>
</svg>
