<svg xmlns="http://www.w3.org/2000/svg" viewBox="0 0 1000 569.02">
<g fill="#ccc" stroke="#333" stroke-width="0.5" stroke-linejoin="round">
<path fill-rule="evenodd" d="M993.75 359.61 L996.8 360.33 L998.44 360.94 L999.45 361.77 L999.7 363.4 L998.22 365.96 L998.84 371.66 L997.57 375.18 L995.8 378.74 L992.85 390.34 L985.22 403.4 L982.09 410.38 L981.94 411.86 L982.09 413.19 L982.68 415.9 L983.01 416.5 L984.11 417.66 L984.34 418.26 L984.06 419.44 L983.5 420.23 L982.86 420.93 L982.4 421.85 L981.35 425.02 L981.04 426.56 L981.17 428.48 L981.7 429.98 L983.22 432.67 L983.54 434.24 L982.79 437.62 L979.8 444.39 L977.92 448.64 L977.44 458.31 L975.64 462.33 L975.44 463.5 L975.63 464.61 L976.22 465.66 L978.16 467.54 L980.39 472.49 L982.59 473.91 L984.49 474.79 L986.1 476.3 L988.67 479.92 L991.12 484.39 L992.96 489.22 L994.03 491.35 L996.77 495.54 L997.83 497.69 L998.31 500.06 L998.77 505.99 L999.85 511.44 L1000 514.05 L999.81 516.65 L999.3 519.39 L997.24 525.43 L991.72 536.33 L989.93 542.21 L989.03 545.17 L988.95 546.57 L989.33 548.29 L988.34 553.9 L984.67 560.53 L980.04 565.44 L976.22 565.89 L974.46 564.19 L970.5 561.79 L968.75 560.17 L967.99 558.86 L967.19 556.46 L966.61 555.34 L966.3 555.41 L963.34 552.97 L963.23 552.44 L961.05 552.98 L957.31 556.16 L955.2 556.18 L952.93 555 L950.84 554.24 L949.27 554.87 L948.44 557.78 L947.55 559.87 L945.75 560.79 L943.71 560.53 L942.07 559.07 L940.06 557.98 L937.41 558.9 L936.07 559.93 L933.03 562.28 L928.48 564.32 L924.19 563.13 L915.38 558.09 L911.6 557.38 L907.53 557.61 L903.57 558.75 L900.15 560.8 L898.74 562.77 L896.44 567.71 L894.94 569.02 L893.28 568.71 L888.11 566.39 L886.5 565.39 L885.39 563.6 L884.55 561.48 L883.28 560.19 L879.51 561.36 L872.95 562.1 L869.42 560.65 L866.59 556.9 L864.55 552.3 L863.32 548.29 L863.3 548.28 L861.89 541.5 L861.82 539.18 L861.44 536.57 L860.03 536.63 L858.26 538.11 L854.54 542 L852.97 543.19 L848.39 544.8 L844.95 546 L841.12 548.28 L839.86 551.36 L837.48 554.08 L834.47 556.07 L831.35 556.98 L830.22 556.77 L825.87 555.06 L824.19 555.31 L823.27 556.67 L822.46 558.29 L821.17 559.31 L818.91 558.8 L810.32 553.58 L802.04 549.78 L799.59 548.29 L799.56 548.29 L797.91 546.33 L796.23 544.82 L794.3 543.76 L791.91 543.19 L788.15 541.67 L780.63 537.58 L776.95 536.23 L775.86 536.23 L773.2 536.58 L772.32 536.46 L771.46 535.5 L771.41 533.55 L770.52 532.61 L768.44 532.19 L765.81 532.6 L761.15 534.2 L758.42 535.96 L757.55 536.23 L756.27 535.99 L755.52 535.41 L754.93 534.76 L754.11 534.31 L752.25 533.76 L751.47 533.66 L751.28 533.64 L748.49 533.81 L747.73 533.49 L747.09 532.92 L738.61 527.6 L734.89 526.36 L730.51 527.75 L727.61 528.07 L725.46 529.32 L717.07 536.6 L714.42 538.17 L712.42 538.5 L711.57 537.73 L711.34 536.66 L711.32 535.45 L711.08 534.3 L710.11 533.43 L708.92 533.75 L707.69 534.25 L706.58 533.96 L699.95 528.68 L698.21 526.53 L696.9 521.69 L697.81 511.51 L696.85 506.81 L695.13 504.71 L685.49 499.31 L684.17 498.85 L674.45 502.7 L669.07 505.62 L664.64 508.03 L662.41 508.73 L660.16 508.04 L658.03 507.93 L655.99 509.78 L654.28 511.86 L654.02 512.18 L652.03 513.66 L647.77 514.96 L645.92 515.01 L634.57 512 L630.98 508.23 L630.96 503.48 L630.53 499.31 L625.72 497.29 L622.93 497.59 L616.03 500.32 L612.9 500.03 L612.69 498.18 L612.84 496.09 L610.72 495.01 L609.17 494.8 L607.64 494.37 L604.81 492.89 L603.77 490.4 L603.07 487.52 L601.29 484.9 L598.53 483.31 L592.41 481.25 L589.52 479.5 L589.5 479.48 L588.2 477.32 L586.29 476.89 L584.27 477.61 L582.6 478.9 L581.22 478.92 L566.42 474.87 L564.82 473.75 L564.11 470.79 L565.21 467.63 L566.94 464.47 L568.16 461.49 L568.82 456 L568.56 450.71 L567.4 445.55 L565.4 440.53 L562.28 435.91 L558.65 433.34 L523.31 426.83 L520.65 425.11 L518.33 421.8 L517.12 419.22 L515.46 417.93 L511.74 418.54 L510.59 418.18 L509.27 414.81 L508.12 413.53 L505.17 412.35 L503.84 411.56 L502.69 410.38 L502.15 407.84 L499.98 407.34 L497.53 408.36 L491.3 416.09 L488.69 417.88 L484.78 418.03 L479.88 417.15 L478.29 416.61 L478.17 416.65 L475.45 417.46 L469.75 417.86 L467.37 418.81 L468.43 421.02 L471.93 424.99 L472.23 426.28 L472.72 427.69 L472.69 428.82 L471.48 429.28 L470.76 429.82 L469.89 431.13 L469.73 430.97 L469.08 430.3 L463.42 428.24 L446.4 419.06 L437.43 415.69 L423.98 413.87 L412.44 413.77 L409.24 414.92 L408.62 416.26 L408.36 417.95 L408.6 419.56 L410.46 422.11 L410.29 423.78 L409.45 425.52 L406.8 429.48 L404.74 431.59 L402.34 432.94 L399.59 433.08 L396.77 432.09 L395.53 430.71 L394.76 428.76 L393.34 426.12 L391.82 424.39 L385.73 419.21 L381.2 417.41 L366.17 417.52 L358.39 415.59 L352.75 412.4 L349.68 411.4 L334.43 410.38 L331.67 407.16 L330.34 401.9 L329.16 391.53 L327.66 386.2 L325.53 382.73 L324.82 382.44 L322.14 381.37 L306.66 385.39 L296.16 386.61 L291.4 385.12 L284.76 378.34 L275.24 373.56 L260.57 361.36 L255.21 359.23 L253.12 358.02 L250.82 355.56 L248.36 353.45 L248.19 353.39 L245.36 352.45 L239.06 351.81 L235.43 353.43 L230.48 359.3 L227.66 361.25 L224.28 360.99 L220.86 358.95 L217.46 356.38 L211.31 352.83 L206.43 347.56 L203.8 345.38 L200.91 344.32 L194.72 342.87 L192.3 340.99 L192.27 340.97 L190.68 338.41 L188.19 336.64 L177.32 331.02 L175.45 329.5 L174.93 328.2 L174.8 326.75 L174.22 324.75 L172.63 322.19 L170.42 319.79 L167.81 317.89 L165 316.89 L163.12 317.15 L162.33 318.42 L161.81 320.15 L160.69 321.78 L158.92 322.68 L156.87 323.02 L155.54 322.4 L155.94 320.42 L153.93 319.92 L153.15 318.85 L153.64 317.7 L155.51 316.94 L153.84 313.58 L146.71 305.32 L145.04 301.44 L142.54 293.14 L140 289.9 L137.13 288.37 L124.93 286.02 L119.2 284.91 L118.31 283.4 L118.08 281.66 L117.65 280.17 L116.2 279.34 L114.3 279.99 L111.92 279.93 L109.48 279.44 L107.51 278.79 L105.22 277.12 L104.63 275.16 L104.45 273.05 L103.45 270.96 L101.7 270.18 L96.66 270.16 L94.38 269.72 L92.32 268.46 L87.63 263.53 L85.62 262.17 L81.77 261.08 L79.66 260.07 L78.38 258.44 L75.94 253.77 L74.38 252.63 L69.82 251.8 L67.71 251.08 L65.53 249.95 L64.7 248.83 L64.76 247.52 L64.97 246.31 L64.57 245.48 L61.94 245.39 L59.87 245.33 L57.41 246.71 L56.19 248.63 L55.86 251.03 L56.9 259.94 L56.29 261.79 L53.88 260.47 L48.69 254.18 L46.45 252.85 L43.99 252.72 L41.63 253.36 L39.25 253.7 L36.79 252.69 L35.39 250.92 L32.04 243.98 L31.1 243.18 L28.86 242.63 L27.86 242.15 L26.92 241.1 L25.64 238.85 L24.94 237.95 L22.87 236.65 L18.54 235.91 L16.19 235.07 L14.41 233.66 L10.31 228.15 L6.34 225.8 L5.25 225.58 L3.01 225.13 L0.75 223.32 L0 217.62 L0.1 214.8 L0.44 212.25 L1.26 209.88 L2.78 207.59 L4.69 206.07 L6.74 205.01 L8.5 203.64 L9.54 201.21 L9.54 201.18 L9.14 196.57 L10.17 190.3 L12.57 184.96 L16.37 183.11 L18.46 183.39 L21.03 183.42 L23.39 182.72 L24.92 180.86 L24.6 178.69 L22.54 172.81 L23.16 170.76 L25.28 170.48 L26.83 171.71 L28 171.98 L30.53 162.74 L31.02 159.47 L30.69 156.81 L29.79 156.03 L28.66 156.08 L27.61 155.9 L26.93 154.44 L26.03 148.74 L23.43 144.13 L22.54 141.76 L23.02 139.26 L24.33 138.26 L27.91 137.08 L28.65 135.79 L28.99 133.97 L29.83 133.05 L30.93 132.25 L32.05 130.8 L32.09 130.78 L34.55 128.89 L35.61 127.8 L36.48 126.53 L36.53 125.81 L36.22 125.02 L36.04 124.15 L36.48 123.17 L37.16 122.63 L38.68 121.79 L39.38 121.27 L42.15 118.14 L43.61 115.23 L43.8 112.12 L42.67 108.43 L40.99 104.64 L39.82 101.08 L39.81 97.49 L41.61 93.58 L44.84 90.94 L52.17 88.95 L54.78 86.75 L61.07 78.78 L63.8 74.35 L65.44 69.24 L66.48 66.81 L68.31 65.78 L72.74 65.21 L75.09 64.46 L76.65 63.45 L79.85 60.4 L84.23 57.39 L85.45 56.04 L89.13 50.11 L90.85 48.3 L98.24 42.65 L100.68 38.92 L99.05 35.13 L100.77 33.44 L102.92 30.85 L104.86 29.41 L104.88 29.39 L106.08 31.14 L107.27 33.65 L109.42 34.19 L117.69 31.36 L118.66 31.3 L119.95 32.45 L121.53 34.81 L122.94 37.59 L124.51 42.21 L127.33 46.9 L128.26 49.07 L129.52 55.32 L129.57 55.56 L131.16 56.87 L134.46 56.04 L137.34 55.98 L143.05 58.64 L145.79 58.11 L147.07 56.09 L146.88 52.11 L148.58 50.93 L150.73 50.26 L151.93 49.35 L152.06 49.05 L152.57 47.93 L153.05 45.74 L152.87 44.77 L151.87 42.56 L151.95 41.52 L153.27 40.55 L155.18 40.41 L157.18 40.52 L158.76 40.28 L160.71 38.89 L162.16 36.95 L163.05 34.63 L163.61 30.19 L165.15 27.58 L165.57 26.23 L165.46 25.01 L164.67 22.73 L164.49 21.48 L164.37 16.5 L164.8 14.24 L166.1 12.19 L166.73 10.22 L166.44 7.97 L166.76 6.12 L169.21 5.37 L171.5 6.32 L176.01 10.76 L178.5 12.11 L181.73 12.61 L183.12 12.1 L184.51 6.63 L185.1 5.46 L186.02 4.88 L188.36 4.46 L190.01 3.7 L190.65 2.49 L191.03 1.25 L191.83 0.38 L194.59 0 L197.26 0.85 L212.2 7.69 L214.86 8.38 L217.63 7.92 L220.24 6.94 L222.9 6.51 L228.15 8.82 L232.37 8.48 L234.79 8.96 L235.89 9.76 L237.36 11.86 L238.21 12.62 L239.42 12.83 L240.6 12.41 L241.79 11.8 L242.95 11.41 L248.14 11.06 L251.01 11.35 L252.92 12.36 L253.47 14.55 L252.1 22.72 L252.46 26.49 L253.8 28.96 L256.05 30.56 L259.27 31.72 L261.14 33.52 L260.57 36.24 L257.69 41.62 L257.83 43.55 L258.63 46.54 L259.77 49.42 L260.92 51.02 L263.42 51.4 L265.63 50.55 L267.9 50.13 L273.44 53.65 L275.93 54.03 L278.45 54.05 L281.2 54.76 L282.21 55.63 L283.68 57.96 L284.69 58.79 L286.71 59.11 L288.6 58.82 L290.48 58.83 L292.36 60.04 L293.97 62.16 L295.95 64.13 L298.17 65.79 L300.48 67 L306.43 68.86 L308.59 70.16 L318.01 81.98 L320.14 83.51 L321.44 83.47 L323.97 82.66 L325.24 82.75 L326.67 83.69 L326.7 84.85 L326.14 86.25 L325.78 87.94 L326.91 90.35 L334.35 96.21 L336.64 99.77 L337.99 101.05 L339.46 101.84 L340.94 102.34 L342.22 103.17 L343.06 104.89 L344.8 107.46 L347.37 106.55 L350.15 104.44 L352.56 103.41 L353.72 103.95 L355.51 106.06 L356.52 106.84 L357.77 107.01 L360.5 106.6 L361.92 106.86 L368.93 113.02 L369.91 114.46 L371.58 117.88 L372.86 118.91 L374.66 118.79 L375.4 117.27 L375.75 115.29 L376.35 113.77 L377.21 113.41 L380.45 112.6 L383.32 112.29 L384.8 112.35 L386.21 112.91 L387.89 114.2 L388.34 114.94 L388.78 116.81 L389.11 117.45 L390.06 118.04 L392.15 118.76 L393.06 119.31 L395.92 122.24 L396.93 124.1 L397.24 126.21 L396.82 127.39 L396.1 128.16 L395.45 129.11 L395.26 130.78 L397.31 133.84 L405.18 132.15 L408.53 135.58 L408.84 138.11 L408.53 140.2 L408.75 141.98 L412.46 145.06 L412.73 146.62 L412.59 148.34 L413.19 150.31 L414.65 151.69 L416.22 152.48 L417.49 153.53 L418.6 157.5 L419.96 158.7 L423.35 160.08 L425.51 161.6 L426.69 163.73 L427.85 169.02 L428.11 172.07 L428.41 173.49 L429.23 174.63 L430.74 175.25 L433.86 175.67 L435.17 176.77 L436.62 177.65 L441.61 178.59 L443.43 178.69 L445.36 177.89 L445.49 177.84 L446.4 175.87 L446.93 173.4 L447.83 171.09 L450.34 168.64 L453.32 167.59 L456.47 167.47 L459.57 167.78 L462.34 167.43 L467.83 164.72 L470.75 163.85 L471.64 163.39 L472.69 161.51 L473.43 160.78 L477.23 159.73 L479.54 159.4 L481.06 159.39 L482.59 159.79 L483.73 160.4 L484.47 161.48 L484.78 163.35 L486.31 162.53 L487.86 162.11 L489.29 162.44 L490.4 163.91 L492.08 165.62 L494.27 165.23 L496.61 164.3 L498.78 164.35 L499.93 165.71 L500.7 169.52 L501.56 171.04 L503.24 171.44 L505.2 171.16 L506.85 171.39 L507.62 173.37 L506.82 175.71 L505.17 177.92 L504 180.23 L504.71 182.92 L507.43 185.62 L508.17 186.61 L508.61 187.95 L509.31 192.38 L512.11 194.08 L514.85 194.98 L516.19 196.8 L513.15 208.78 L515.43 212.51 L516.64 214.49 L522.89 218.17 L531.25 219.92 L532.76 220.56 L534.02 221.67 L536.05 225.1 L538.66 227.36 L539.69 228.63 L541.55 235.06 L543.15 237.78 L546.21 238.71 L549.01 238.63 L551.11 239.53 L553.12 240.75 L555.55 241.64 L562.36 242.78 L563.47 243.42 L564.65 245.88 L565.48 246.9 L567.9 247.8 L570.21 248.28 L571.67 249.43 L571.03 255.92 L572.63 257.07 L578.26 257.35 L580.6 258.57 L583.81 262.28 L585.94 264 L587.52 264.65 L588.99 264.85 L595.79 264.42 L597.28 264.68 L599.3 265.34 L600.63 265.53 L601.83 265.14 L602.81 264.26 L604.35 260.97 L605.09 260.13 L608.75 258.13 L609.89 257.82 L610.93 257.31 L611.75 256.18 L612.93 253.75 L613.73 252.56 L614.57 251.76 L617.37 251.12 L619.84 252.1 L624.37 255.3 L630.4 257.23 L631.26 258.88 L629.91 265.89 L629.51 267.04 L628.76 268.31 L627.87 268.99 L625.75 269.88 L625.02 270.89 L624.83 271.71 L624.82 274.33 L624.07 276.21 L620.9 278.13 L620.15 279.51 L621.15 287.15 L621.15 289.87 L620.68 294.03 L620.48 295.83 L621.36 297.88 L624.06 299.54 L627.11 299.58 L629.61 298.34 L631.95 297.85 L635.9 301.49 L638.13 302.41 L640.53 302.93 L642.52 303.07 L644.18 302.67 L647.61 301.1 L649.03 300.86 L650.64 301.61 L651.76 302.82 L653.06 303.86 L655.17 304.08 L657.04 303.2 L659.94 300.02 L661.64 298.95 L663.65 298.87 L665.5 299.55 L669.07 301.37 L671.75 300.88 L674.59 300.84 L677.42 301.19 L680.08 301.89 L682.56 303.59 L684.21 305.32 L685.79 305.27 L689.15 300.15 L690.11 299.33 L692.71 298.38 L693.56 297.56 L693.7 296.35 L693.68 295 L694.07 293.86 L695.76 293.54 L696.38 296.58 L696.6 302.77 L698.54 306.36 L700.87 309.4 L703.58 311.95 L706.8 314.06 L712.22 316.52 L714.85 318.13 L716.7 320.3 L717.15 321.75 L717.73 324.82 L719.86 327.69 L720.11 329 L719.95 330.34 L720.03 332.02 L720.99 335.25 L722.3 337.14 L726.61 341 L728.16 343.57 L728.12 346.26 L727.57 349.05 L727.5 351.91 L728.91 355.37 L731.06 356.23 L736.74 355.57 L739.81 355.9 L740.2 355.84 L741.07 355.69 L742.79 354.9 L746.66 350.99 L747.36 350.44 L747.28 348.99 L746.66 348.02 L745.85 347.19 L745.24 346.13 L745.17 344.59 L745.53 343.39 L745.55 342.26 L744.47 341 L744.47 340.97 L744.46 340.97 L743.22 340.1 L743.03 339.29 L743.26 338.41 L743.26 337.25 L743.8 334.9 L743.9 334.16 L743.51 333.07 L742.11 330.98 L741.93 329.58 L752.65 318.46 L755.12 318.95 L756.35 321.67 L756.49 325.13 L755.7 327.91 L754.65 330.26 L754.93 331.57 L755.83 332.62 L756.73 334.19 L757.57 338.23 L758.44 339.9 L760.25 340.96 L760.27 340.97 L760.32 341 L762.8 341.71 L765.31 341.98 L767.66 342.53 L769.69 344.11 L772.59 347.8 L773.76 348.65 L774.96 348.88 L775.95 348.48 L776.95 347.94 L778.09 347.76 L779.19 348.34 L783.34 351.81 L785.75 352.79 L787.41 352.66 L791.91 350.33 L794.55 348.9 L796.21 346.88 L796.98 344.24 L796.95 341 L796.91 338.56 L797.66 336.96 L798.72 335.57 L799.64 333.69 L799.93 331.61 L799.99 329.37 L800.35 327.31 L801.5 325.76 L803.47 325.42 L805.14 326.61 L806.83 328.22 L808.72 329.09 L810.55 328.64 L813.29 326.17 L814.83 325.39 L817.05 325.54 L819.45 326.51 L821.67 327.97 L823.4 329.55 L823.92 331.23 L823.45 335.4 L824.39 337.27 L828.1 338.58 L836.76 338.21 L840.16 340.97 L840.16 341 L841.23 344.35 L843.22 346.64 L845.88 347.9 L849.03 348.18 L852.7 347.57 L854.16 347.12 L854.97 346.87 L857.06 347.01 L860.11 348.87 L863.98 353 L870.68 361.87 L875.5 364.48 L878.72 364.66 L884.97 363.94 L892.05 365.83 L894.93 364.1 L897.62 361.63 L901.06 360.39 L903.7 361.2 L903.13 363.09 L901.71 365.42 L901.71 367.52 L903.88 367.46 L914.79 364.36 L919.58 363.18 L921.67 362.95 L924.1 363.64 L924.67 364.3 L925.14 365.42 L925.79 366.56 L926.8 367.37 L928.85 367.43 L932.67 365.35 L934.51 364.78 L937.45 365.31 L939.73 366.21 L942.42 367.28 L945.66 366.99 L949.29 365.24 L952.18 362.59 L954.49 359.25 L956.39 355.43 L957.83 353.26 L959.16 353.01 L961.55 354.36 L971.19 354.82 L972.49 355.24 L975.1 356.57 L976.58 356.88 L978.22 356.58 L981.45 355.26 L982.91 355.1 L985.71 356.05 L990.99 358.99 Z "/>
</g>
</svg>
