<svg xmlns="http://www.w3.org/2000/svg" viewBox="0 0 1000 681.75">
<g fill="#ccc" stroke="#333" stroke-width="0.5" stroke-linejoin="round">
<path fill-rule="evenodd" d="M999.95 6.94 L999.99 7.57 L1000 7.93 L999.96 8.27 L999.87 8.65 L999.68 9.14 L999.65 9.31 L999.66 9.58 L999.71 9.72 L999.77 9.83 L999.82 10.02 L999.95 11.6 L999.92 12.39 L999.8 13.09 L999.52 13.82 L998.43 15.54 L998.33 15.82 L998.19 16.2 L998.08 16.93 L997.96 19.29 L997.86 20.06 L997.62 20.53 L997.15 20.38 L996.95 20.3 L996.3 20.39 L995.59 20.18 L994.34 20.2 L993.9 20.34 L993.66 20.51 L993.43 20.68 L993.54 20.91 L993.52 21.1 L993.46 21.28 L993.46 21.46 L993.55 21.6 L993.99 21.97 L993.25 22.34 L993.03 22.36 L993.2 22.7 L993.24 23.09 L993.26 23.47 L993.34 23.8 L993.6 24.1 L993.95 24.27 L995 24.42 L995.68 24.69 L996.06 24.75 L996.4 24.72 L996.73 24.63 L996.86 24.51 L996.94 24.36 L997.02 24.32 L997.83 25.64 L998.01 26.2 L997.9 26.98 L997.64 27.6 L997.54 27.93 L997.53 28.32 L997.65 28.79 L997.73 28.93 L997.76 28.99 L997.72 29.1 L997.14 29.46 L996.99 29.63 L996.68 30.13 L996.42 30.37 L995.85 30.62 L995.59 30.89 L995.3 31.49 L995.14 31.64 L994.35 31.73 L994.28 31.74 L994.07 31.86 L993.84 32.09 L993.77 32.21 L993.66 32.49 L993.56 32.62 L993.4 32.7 L993.26 32.71 L993.14 32.77 L993.05 32.99 L993.08 33.32 L993.29 33.47 L993.58 33.56 L994.44 34.04 L994.78 34.4 L994.85 34.51 L994.88 34.65 L994.87 34.92 L994.8 34.98 L994.7 35 L994.6 35.12 L994.29 35.67 L993.99 36.04 L993.63 36.23 L992.46 36.27 L991.14 36.72 L990.49 37.22 L990.27 37.32 L990 37.32 L989.16 37.07 L989.26 37.55 L989.21 37.77 L988.71 37.9 L988.67 37.57 L988.46 37.45 L987.95 37.37 L987.89 37.29 L987.74 37.03 L987.65 36.94 L987.54 36.93 L987.13 37.02 L986.68 36.83 L986.26 36.49 L985.83 36.29 L985.38 36.53 L985.54 36.65 L986.04 37.18 L986.21 37.46 L986 37.4 L985.69 37.32 L985.26 37.21 L984.72 37.35 L984.53 37.45 L984.26 37.66 L984 37.77 L983.46 37.86 L983.24 38.02 L983.2 38.21 L983.5 38.44 L983.68 38.86 L983.65 39.29 L983.44 39.5 L983.36 39.58 L983.35 39.81 L983.48 39.86 L983.86 39.86 L984.01 39.93 L984.31 40.15 L984.44 40.29 L984.26 40.89 L984.57 41.28 L985.46 41.68 L985.31 42.15 L985.24 42.46 L985.29 42.72 L986.17 43.93 L986.71 44.55 L986.8 45.25 L986.87 45.63 L986.82 46.05 L986.72 46.5 L986.7 46.89 L986.9 47.13 L986.82 47.32 L986.78 47.78 L986.71 48.05 L986.58 48.23 L986.24 48.47 L986.1 48.61 L985.43 49.86 L985.15 50.2 L985.01 50.43 L984.9 50.86 L984.86 51.33 L984.95 51.72 L985.27 51.89 L985.92 51.44 L986.23 51.54 L986.12 51.6 L985.82 51.85 L986.1 52.11 L985.9 52.37 L985.15 52.78 L983.92 53.74 L983.75 53.95 L983.49 54.48 L983.33 54.66 L983.09 54.69 L982.91 54.53 L982.75 54.32 L982.57 54.22 L982.2 54.42 L982.27 54.91 L982.48 55.51 L982.49 56.04 L982.67 56.01 L983.02 55.83 L983.19 55.78 L983.38 55.81 L983.72 55.92 L984.2 55.87 L984.23 55.98 L984.15 56.15 L984.1 56.33 L984.11 56.63 L984.15 56.8 L984.25 56.91 L984.56 57.1 L984.99 57.26 L984.97 57.34 L984.9 57.45 L984.87 57.59 L984.98 58.02 L984.98 58.19 L984.9 58.41 L984.75 58.58 L984.45 58.56 L984.27 58.66 L984.16 58.87 L984.17 59.05 L984.2 59.24 L984.13 59.49 L983.94 59.67 L983.74 59.62 L983.79 59.89 L983.89 60.06 L984.03 60.16 L984.11 60.28 L984.08 60.56 L983.82 60.61 L982.86 60.57 L982.71 60.53 L982.56 60.48 L981.41 60.51 L981.28 60.41 L981.01 60.11 L980.88 60.06 L980.76 60.15 L980.62 60.37 L980.55 60.47 L980.41 60.49 L980.27 60.47 L980.03 60.33 L980.17 59.85 L980.19 59.6 L979.98 59.54 L979.7 59.4 L979.62 59.35 L979.4 59.19 L979.18 58.87 L979.16 58.41 L980.11 57.34 L980.26 57.28 L980.42 57.22 L980.48 57.17 L980.65 56.91 L980.88 56.42 L981.03 56.17 L980.9 56.09 L980.77 56.09 L980.48 56.17 L981 55.33 L981.21 54.82 L981.03 54.57 L981.06 54.3 L981.13 54.09 L981.24 54.03 L981.39 54.16 L981.49 54.02 L981.56 53.87 L981.66 53.58 L981.62 53.5 L981.6 53.43 L981.57 53.28 L981.72 53.3 L981.86 53.28 L981.99 53.22 L982.11 53.14 L981.81 52.82 L981.85 52.58 L982.04 52.39 L982.01 52.29 L981.89 52.02 L981.66 52 L981.26 52.11 L981.08 51.96 L980.81 51.58 L980.59 51.45 L980.42 51.43 L979.87 51.54 L979.64 51.54 L979.5 51.44 L979.37 51.29 L979.19 51.17 L978.44 50.94 L978.22 50.75 L978.14 50.68 L978.1 50.2 L978 49.79 L977.76 49.47 L977.45 49.27 L977.16 49.24 L976.9 49.37 L976.35 49.76 L976.07 49.86 L974.51 49.8 L974.09 49.9 L974.01 49.92 L973.77 49.86 L973.77 49.11 L973.54 48.81 L973.29 48.79 L972.78 48.83 L972.55 48.71 L972.49 48.57 L972.35 48.1 L972.28 47.92 L971.83 47.41 L971.74 47.21 L971.79 46.75 L971.94 46.41 L971.98 46.05 L971.72 45.56 L971.33 45.29 L971.29 45.24 L971.09 45.3 L971.01 45.42 L970.96 45.62 L970.87 45.88 L970.66 46.22 L970.36 46.64 L970.03 46.96 L969.74 47.04 L969.23 46.81 L968.98 46.74 L968.06 46.71 L967.78 46.59 L967.85 46.33 L968 46.31 L968.58 46.58 L968.48 46.21 L968.54 45.89 L968.63 45.59 L968.6 45.27 L968.46 45.09 L968.24 44.94 L968 44.85 L967.81 44.83 L967.37 45.06 L966.35 46.32 L966.21 46.42 L966.03 46.49 L965.83 46.5 L965.41 46.39 L965.03 46.46 L964.85 46.45 L964.6 46.26 L964.62 46.06 L964.73 45.79 L964.75 45.44 L964.65 45.26 L964.48 45.23 L964.09 45.3 L963.38 45.56 L962.69 45.96 L962.85 46.14 L962.82 46.29 L962.73 46.46 L962.72 46.67 L962.83 46.86 L963.12 47.22 L963.2 47.42 L963.14 47.79 L962.89 47.92 L962.27 47.88 L962.02 47.8 L961.54 47.53 L961.42 47.53 L961.15 47.52 L961.1 47.45 L960.99 47.21 L960.96 46.95 L960.96 46.73 L960.94 46.56 L960.8 46.47 L960.65 46.67 L960.36 46.76 L959.17 46.72 L958.9 46.63 L958.63 46.47 L957.9 45.83 L957.68 45.75 L957.13 45.69 L956.95 45.8 L956.56 46.55 L956.41 46.77 L956.2 46.88 L955.73 46.93 L955.56 47.04 L955.41 47.06 L955.27 47 L954.91 46.61 L954.11 46.22 L953.6 45.72 L953.39 45.7 L952.84 45.9 L952.54 45.92 L951.79 45.75 L951.56 45.62 L951.36 45.32 L951.18 44.98 L951.02 44.73 L950.58 44.35 L950.44 44.12 L950.39 43.77 L950.53 43.58 L951.89 42.74 L955.44 42.35 L955.73 42.39 L955.93 42.51 L956.14 42.71 L956.33 42.97 L956.45 43.28 L956.32 43.33 L956.09 43.49 L956 43.57 L956 43.7 L957.27 43.83 L957.91 44.09 L958.46 44.57 L958.63 44.9 L958.89 45.64 L959.09 45.9 L959.4 46 L960.09 45.9 L960.35 46.03 L960.61 45.95 L961.04 45.97 L961.19 45.93 L961.45 45.86 L961.62 45.38 L961.52 44.92 L961.24 44.57 L960.87 44.36 L960.75 44.33 L960.28 44.25 L959.73 44.01 L959.52 43.99 L959.11 44.04 L958.91 44.01 L958.59 43.81 L957.54 42.83 L958.25 42.5 L958.6 42.4 L959.78 42.46 L960.13 42.56 L960.44 42.83 L960.44 42.83 L960.38 42.43 L960.21 42.27 L960.16 42.27 L959.64 42.24 L959.5 42.19 L959.37 42.1 L959.26 41.97 L959.19 41.78 L959.15 41.54 L959.15 41.3 L959.19 41.11 L959.36 40.93 L959.59 40.83 L960.04 40.79 L959.9 40.65 L959.57 40.41 L958.65 40.13 L958.46 39.85 L958.37 39.14 L958.15 38.69 L957.83 38.4 L957.46 38.14 L957.21 38.33 L956.87 38.43 L956.53 38.43 L956.27 38.51 L956.22 38.59 L956.13 38.61 L956 38.61 L955.88 38.01 L956.26 37.75 L957.09 37.5 L957.21 37.34 L957.47 37.32 L957.91 37.42 L958.28 37.62 L958.33 37.64 L958.43 37.62 L958.57 37.56 L958.73 37.42 L958.63 37.23 L958.29 36.76 L958.2 36.69 L958.12 36.6 L958.09 36.47 L958.12 36.3 L958.19 36.18 L958.25 36.1 L958.28 36.03 L958.23 35.7 L957.98 34.86 L957.83 34.5 L957.91 34.33 L958 34.19 L958.61 34.33 L959.12 34.24 L959.58 33.95 L961.47 31.64 L963.08 29.26 L964.42 26.82 L965.22 24.46 L965.34 23.84 L965.34 23.68 L965.59 23.13 L966.16 18.9 L966.39 17.82 L966.43 17.49 L966.55 16.8 L967.11 15.35 L967.24 14.63 L967.25 14.22 L967.31 13.7 L967.41 13.25 L967.56 13.06 L968.37 13.18 L968.5 13.06 L968.6 13.22 L968.4 13.89 L968.71 14.29 L969.26 14.45 L969.78 14.42 L970.08 14.25 L970.64 13.76 L970.91 13.65 L971.44 13.58 L971.96 13.35 L974.62 10.96 L974.82 10.73 L975.06 10.52 L975.67 10.38 L975.94 10.2 L976.21 9.66 L976.57 8.15 L976.84 7.48 L977.31 6.93 L977.59 6.68 L978.08 6.47 L978.3 6.21 L978.51 5.91 L978.75 5.67 L979.02 5.57 L979.65 5.46 L980.11 5.06 L982.23 4.2 L982.71 3.86 L983.01 3.84 L983.9 3.38 L985.17 3.32 L986.61 3.27 L987.77 3.23 L987.91 3.28 L988.14 3.49 L988.27 3.54 L988.38 3.5 L988.72 3.23 L990.69 2.65 L993.81 2.17 L995.11 2.39 L995.39 2.52 L995.61 2.75 L996.06 4.58 L996.13 4.61 L996.45 4.84 L996.47 4.9 L996.54 4.95 L996.6 5.05 L996.69 5.15 L997.11 5.29 L997.64 5.59 L997.87 5.52 L997.99 5.64 L998.15 5.69 L998.3 5.64 L998.41 5.52 L998.5 5.52 L998.5 5.67 L998.4 5.76 L998.35 5.83 L998.35 5.92 L998.41 6.11 L998.44 6.46 L998.84 6.69 L999.8 6.94 Z M949.1 47.4 L951.23 46.7 L951.43 46.54 L951.64 46.52 L952.47 47.06 L953.76 47.43 L954.19 47.81 L954.47 47.93 L955 47.93 L955.51 48.07 L955.82 48.03 L957.12 47.47 L957.29 47.26 L957.36 46.84 L957.49 46.65 L957.78 46.66 L958.08 46.78 L958.28 46.9 L958.36 47.04 L958.51 47.37 L958.63 47.5 L958.78 47.55 L959.1 47.59 L959.23 47.7 L959.31 47.73 L959.77 47.77 L960 47.43 L960.08 47.35 L960.34 47.38 L960.63 47.55 L960.62 47.64 L960.52 48.13 L960.45 48.34 L959.93 49.06 L959.27 49.57 L957.63 50.4 L957.03 50.88 L956.74 50.97 L955.17 50.99 L955.01 50.92 L954.81 50.68 L954.79 50.46 L954.81 50.23 L954.74 49.95 L954.49 49.79 L952.87 49.25 L952.54 49.19 L952.21 49.21 L951.68 49.33 L951.47 49.34 L951.28 49.39 L951.13 49.54 L951.11 49.78 L951.14 50.05 L951.1 50.25 L950.48 50.35 L950.06 50.3 L949.75 50.16 L949.66 50.11 L949.33 49.76 L949.15 49.23 L949.16 48.74 L949.21 48.21 Z M2.72 678.97 L2.81 679.03 L2.95 679.16 L3.01 679.28 L2.85 679.34 L2.73 679.48 L2.83 680.19 L2.8 680.45 L2.69 680.54 L2.45 680.56 L2.36 680.64 L2.37 680.76 L2.5 681.11 L2.53 681.24 L2.51 681.37 L2.45 681.54 L2.38 681.69 L2.31 681.75 L2.16 681.73 L2.09 681.67 L1.81 681.08 L1.75 680.83 L1.72 680.59 L1.78 680.17 L1.79 679.89 L1.72 679.61 L1.52 679.31 L1.27 679.16 L0.63 679.06 L0.34 678.97 L0.09 678.8 L0 678.58 L0.19 678.31 L0.09 678.23 L0.14 678.07 L0.23 677.94 L0.36 677.86 L0.54 677.86 L0.74 677.96 L1.02 678.33 L1.13 678.41 L1.36 678.47 L2.18 678.87 L2.6 678.93 Z M71.68 606.45 L71.86 606.56 L71.94 606.75 L72.1 606.82 L72.37 607.01 L72.32 607.19 L72.19 607.3 L71.89 607.25 L71.71 606.91 Z M958.19 40.79 L958.74 40.95 L958.99 41.13 L959.01 41.47 L958.88 41.69 L958.66 41.84 L958.43 41.93 L957.41 42.13 L957.18 42.12 L956.68 41.93 L956.4 41.73 L956.27 41.44 L956.19 41.17 L955.98 41 L955.46 40.79 L955.37 40.71 L955.29 40.59 L955.18 40.5 L955 40.49 L954.68 40.88 L954.6 40.95 L954 40.99 L953.73 40.91 L953.56 40.65 L953.59 39.96 L954.07 39.64 L955.19 39.48 L955.24 39.46 L955.46 39.48 L955.63 39.58 L956.9 39.61 L957.19 39.68 L957.41 39.85 L957.9 40.46 L957.97 40.57 L958.05 40.68 Z M969.5 9.9 L969.5 10.04 L969.78 10.04 L969.68 10.33 L969.51 10.67 L969.14 11.24 L968.52 11.76 L968.22 12.34 L967.78 12.47 L967.31 12.28 L967.06 11.72 L967.14 11.14 L967.4 10.49 L967.73 9.96 L968.36 9.42 L968.67 8.76 L969 8.21 L969.41 8.23 L969.47 8.36 L969.5 8.47 L969.49 8.58 L969.41 8.68 L969.6 8.99 L969.74 9.38 L969.73 9.73 Z M969.32 7.48 L969.88 6.75 L970.75 5.95 L971.65 5.42 L972.31 5.52 L972.31 5.67 L971.96 5.67 L971.79 5.76 L971.41 5.91 L970.36 6.93 L970.08 7.37 L969.74 7.66 Z M976.53 2.84 L976.7 2.7 L978.67 2.32 L978.36 2.75 L977.98 2.88 L977.21 2.92 L977.24 2.99 L977.27 3.15 L977.3 3.23 L977.12 3.32 L976.57 3.37 L975.98 3.63 L975.51 3.75 L973.68 4.56 L973.3 4.55 L973.14 4.22 L973.29 3.84 L974 3.59 L974.23 3.37 L974.54 3.38 L976.31 3.01 Z M979.84 2.01 L983.01 1.87 L983.55 2.16 L982.24 2.46 L980.88 2.46 L980.54 2.55 L979.9 2.84 L979.57 2.76 L979.34 2.43 L979.41 2.11 L979.64 1.92 Z M986.95 1.1 L988.26 0.98 L988.63 1.1 L988.63 1.25 L988.45 1.25 L986.18 1.99 L985.91 2.32 L985.84 2.18 L985.83 2.11 L985.91 2.01 L985.77 1.7 L986.11 1.41 L986.6 1.18 Z M989.98 0.03 L990.17 0 L990.9 0.32 L990.84 0.32 L990.79 0.35 L990.75 0.4 L990.72 0.49 L990.24 0.33 L990.01 0.18 Z M68.49 604.77 L68.6 604.83 L68.69 605.01 L68.61 605.17 L68.49 605.21 L68.32 605.09 L68.35 604.86 Z "/>
</g>
</svg>
