<svg xmlns="http://www.w3.org/2000/svg" viewBox="0 0 1000 149.92">
<g fill="#ccc" stroke="#333" stroke-width="0.5" stroke-linejoin="round">
<path fill-rule="evenodd" d="M964.39 142.07 L964.58 142.12 L964.64 142.16 L964.6 142.18 L964.52 142.2 L964.44 142.24 L964.4 142.25 L964.37 142.24 L964.35 142.28 L963.96 142.24 L963.94 142.23 L963.93 142.2 L963.9 142.16 L963.84 142.1 L963.81 142.06 L963.79 142.01 L963.84 142.02 L963.89 142.04 L963.96 142.11 L964 142.11 L964.22 142.06 L964.25 142.02 L964.27 142.01 L964.3 142.01 Z M973.11 149.55 L973.14 149.67 L973.14 149.71 L973.1 149.75 L973.08 149.8 L973.05 149.87 L972.96 149.92 L972.88 149.91 L972.78 149.9 L972.74 149.87 L972.69 149.83 L972.65 149.81 L972.62 149.76 L972.58 149.74 L972.55 149.78 L972.48 149.71 L972.45 149.66 L972.48 149.62 L972.54 149.62 L972.64 149.65 L972.73 149.68 L972.75 149.59 L972.77 149.51 L972.82 149.42 L972.86 149.37 L972.93 149.32 L972.99 149.32 L973.01 149.34 L973 149.39 L973.03 149.38 L973.07 149.41 L973.09 149.45 L973.18 149.49 L973.23 149.55 L973.18 149.57 Z M964.68 140.9 L964.64 140.95 L964.6 140.93 L964.57 140.92 L964.52 140.95 L964.55 140.98 L964.57 141.02 L964.6 141.13 L964.58 141.12 L964.54 141.11 L964.52 141.1 L964.53 141.16 L964.54 141.19 L964.52 141.21 L964.46 141.28 L964.51 141.26 L964.55 141.26 L964.6 141.28 L964.64 141.31 L964.57 141.34 L964.42 141.32 L964.35 141.34 L964.35 141.37 L964.4 141.37 L964.5 141.43 L964.56 141.43 L964.53 141.51 L964.5 141.58 L964.54 141.59 L964.62 141.58 L964.65 141.58 L964.64 141.62 L964.64 141.66 L964.64 141.7 L964.65 141.74 L964.63 141.73 L964.58 141.74 L964.56 141.74 L964.56 141.77 L964.6 141.77 L964.65 141.79 L964.69 141.83 L964.71 141.86 L964.71 141.93 L964.68 142.01 L964.63 142.05 L964.59 142.02 L964.52 141.97 L964.43 141.93 L964.35 141.89 L964.31 141.79 L964.28 141.84 L964.25 141.87 L964.17 141.92 L964.19 141.86 L964.22 141.79 L964.24 141.72 L964.22 141.66 L964.19 141.61 L964.16 141.58 L964.12 141.57 L964.08 141.62 L964.1 141.64 L964.14 141.68 L964.15 141.72 L964.13 141.74 L964.09 141.72 L964.02 141.68 L963.98 141.68 L964.01 141.72 L964.04 141.74 L964.07 141.77 L964.08 141.83 L964.08 141.89 L964.06 141.94 L964.03 141.97 L963.99 141.98 L963.94 141.97 L963.91 141.96 L963.87 141.93 L963.84 141.87 L963.82 141.88 L963.78 141.92 L963.71 142.01 L963.68 141.76 L963.79 141.58 L964.17 141.31 L964.22 141.23 L964.26 141.13 L964.27 140.99 L964.29 140.89 L964.33 140.78 L964.33 140.69 L964.27 140.61 L964.32 140.6 L964.36 140.58 L964.39 140.57 L964.44 140.6 L964.48 140.6 L964.62 140.57 L964.65 140.55 L964.65 140.58 L964.64 140.64 L964.64 140.67 L964.68 140.67 L964.81 140.64 L964.8 140.67 L964.81 140.72 L964.83 140.77 L964.85 140.79 L964.73 140.79 L964.71 140.81 L964.7 140.83 L964.7 140.87 Z M999.99 136.65 L1000 136.73 L999.99 136.8 L999.97 136.87 L999.95 136.94 L999.95 137.02 L999.94 137.05 L999.92 137.05 L999.8 137.05 L999.71 137.02 L999.65 136.96 L999.65 136.84 L999.68 136.79 L999.79 136.64 L999.84 136.6 L999.88 136.59 L999.92 136.59 L999.96 136.61 Z M5.08 114.54 L5.1 114.56 L5.17 114.6 L5.07 114.67 L5.04 114.72 L5.03 114.81 L4.93 114.88 L4.87 114.9 L4.88 114.85 L4.87 114.84 L4.85 114.8 L4.84 114.79 L4.85 114.78 L4.84 114.77 L4.86 114.74 L4.89 114.63 L4.9 114.6 L4.87 114.55 L4.84 114.53 L4.83 114.51 L4.86 114.47 L4.9 114.45 L4.96 114.43 L5.01 114.43 L5.05 114.44 L5.07 114.46 L5.07 114.49 L5.07 114.51 Z M4.42 113.17 L4.41 113.21 L4.39 113.22 L4.37 113.21 L4.36 113.17 L4.36 113.08 L4.36 113.04 L4.34 113 L4.38 112.97 L4.44 112.9 L4.48 112.81 L4.5 112.74 L4.44 112.66 L4.36 112.63 L4.21 112.63 L4.05 112.6 L3.99 112.62 L3.99 112.71 L4.05 112.76 L4.3 112.81 L4.1 112.99 L4.08 113.04 L4.18 113.17 L4.2 113.23 L4.2 113.28 L4.2 113.33 L4.21 113.37 L4.27 113.43 L4.38 113.33 L4.4 113.42 L4.4 113.48 L4.42 113.51 L4.47 113.58 L4.5 113.61 L4.58 113.63 L4.61 113.64 L4.65 113.74 L4.57 113.77 L4.45 113.77 L4.37 113.79 L4.34 113.81 L4.27 113.84 L4.2 113.91 L4.07 113.96 L4.05 114.04 L4.03 114.05 L3.86 114.05 L3.81 114.04 L3.78 114 L3.78 113.92 L3.76 113.85 L3.69 113.7 L3.67 113.68 L3.64 113.66 L3.63 113.64 L3.65 113.62 L3.71 113.58 L3.88 113.45 L3.91 113.42 L3.92 113.37 L3.99 113.33 L4.04 113.27 L4.02 113.17 L3.9 112.94 L3.84 112.87 L3.77 112.81 L3.74 112.8 L3.7 112.79 L3.66 112.8 L3.63 112.82 L3.6 112.83 L3.57 112.81 L3.55 112.84 L3.57 112.9 L3.54 112.9 L3.5 112.9 L3.46 112.92 L3.37 112.88 L3.17 112.95 L3.09 112.87 L3.13 112.8 L3.19 112.77 L3.25 112.75 L3.3 112.71 L3.3 112.68 L3.29 112.65 L3.28 112.62 L3.32 112.6 L3.33 112.62 L3.4 112.67 L3.43 112.68 L3.68 112.65 L3.74 112.62 L3.77 112.54 L3.78 112.48 L3.8 112.43 L3.86 112.42 L3.88 112.42 L3.94 112.46 L3.98 112.47 L4.09 112.46 L4.13 112.47 L4.32 112.56 L4.39 112.58 L5.01 112.53 L5.01 112.55 L4.97 112.55 L4.94 112.58 L4.92 112.62 L4.92 112.68 L4.8 112.61 L4.69 112.67 L4.59 112.8 L4.45 113.04 L4.43 113.1 Z M0.14 61.85 L0.09 61.87 L0.09 61.84 L0.09 61.8 L0.09 61.77 L0.03 61.73 L0.01 61.7 L0 61.67 L0.05 61.67 L0.1 61.67 L0.15 61.69 L0.19 61.71 L0.23 61.73 L0.26 61.76 L0.31 61.85 L0.27 61.83 L0.22 61.83 L0.19 61.85 L0.17 61.89 L0.14 61.85 Z M18.97 2.31 L18.95 2.29 L18.94 2.27 L18.93 2.25 L18.92 2.23 L18.95 2.25 L18.96 2.27 L18.98 2.29 L18.98 2.32 L18.97 2.32 L18.97 2.32 L18.97 2.31 Z M15.34 0.06 L15.31 0.03 L15.29 0 L15.32 0.02 L15.34 0.05 L15.35 0.09 L15.34 0.12 L15.34 0.11 Z M965.79 129.69 L965.77 129.72 L965.75 129.81 L965.77 129.84 L965.78 129.89 L965.79 129.93 L965.79 129.98 L965.76 129.96 L965.75 129.94 L965.72 129.88 L965.7 129.87 L965.6 129.89 L965.6 129.86 L965.74 129.71 Z M967.98 126.53 L968.01 126.47 L968.08 126.42 L968.14 126.42 L968.17 126.47 L968.13 126.51 L968.07 126.56 L968 126.58 Z M968.79 124.68 L968.76 124.72 L968.72 124.73 L968.68 124.71 L968.66 124.66 L968.67 124.61 L968.71 124.58 L968.75 124.57 L968.79 124.58 L968.82 124.61 Z M971.26 124.47 L971.31 124.56 L971.27 124.65 L971.21 124.72 L971.19 124.75 L971.2 124.71 L971.18 124.67 L971.15 124.64 L971.13 124.58 L971.17 124.58 L971.21 124.56 L971.24 124.53 Z M970.17 125.77 L970.29 125.85 L970.33 125.89 L970.33 125.92 L970.31 125.93 L970.28 125.94 L970.26 125.93 L970.25 125.92 L970.23 125.87 L970.21 125.85 L970.14 125.85 L970.13 125.88 L970.15 125.98 L970.12 126 L970.02 125.95 L970.05 126.02 L969.84 126.02 L969.67 126.05 L969.6 126.08 L969.42 126.25 L969.37 126.32 L969.33 126.35 L969.28 126.34 L969.23 126.32 L969.2 126.29 L969.15 126.26 L969.05 126.28 L969.02 126.27 L968.99 126.22 L968.97 126.17 L968.95 126.14 L968.89 126.19 L968.84 126.2 L968.82 126.22 L968.82 126.23 L968.8 126.33 L968.76 126.3 L968.62 126.41 L968.53 126.44 L968.58 126.5 L968.67 126.48 L968.84 126.41 L968.81 126.49 L968.78 126.55 L968.69 126.64 L968.69 126.54 L968.65 126.54 L968.6 126.6 L968.56 126.66 L968.51 126.68 L968.42 126.71 L968.32 126.71 L968.27 126.69 L968.25 126.61 L968.27 126.51 L968.3 126.41 L968.33 126.34 L968.36 126.32 L968.42 126.31 L968.47 126.26 L968.57 126.22 L968.52 126.18 L968.52 126.14 L968.54 126.1 L968.56 126.05 L968.55 125.99 L968.54 125.94 L968.54 125.89 L968.56 125.84 L968.59 125.79 L968.62 125.77 L968.69 125.72 L968.73 125.7 L968.77 125.72 L968.8 125.73 L968.84 125.74 L968.89 125.68 L968.88 125.58 L968.86 125.47 L968.87 125.39 L968.91 125.36 L968.99 125.36 L969.03 125.33 L969.07 125.25 L969.09 125.21 L969.09 125.15 L969.08 125.06 L969.04 124.97 L968.95 124.82 L968.93 124.78 L968.94 124.74 L968.96 124.71 L968.98 124.68 L968.97 124.66 L968.97 124.64 L968.96 124.62 L968.95 124.6 L968.94 124.57 L968.94 124.55 L968.95 124.53 L968.96 124.5 L968.97 124.39 L969.01 124.33 L969.07 124.31 L969.16 124.3 L969.24 124.33 L969.28 124.34 L969.31 124.32 L969.35 124.28 L969.39 124.27 L969.52 124.34 L969.57 124.39 L969.62 124.44 L969.87 124.8 L969.91 124.84 L969.96 124.87 L970 124.91 L970.01 124.96 L970.05 124.98 L970.11 125.01 L970.14 125.06 L970.09 125.12 L970.15 125.15 L970.15 125.17 L970.08 125.2 L969.82 125.17 L969.84 125.12 L969.68 125.11 L969.63 125.14 L969.66 125.22 L969.65 125.26 L969.51 125.46 L969.59 125.45 L969.68 125.32 L969.74 125.29 L969.77 125.3 L969.85 125.36 L969.92 125.38 L970.03 125.43 L970.02 125.46 L970.01 125.48 L970 125.5 L969.98 125.51 L969.98 125.54 L970.01 125.54 L970.16 125.48 L970.19 125.48 L970.23 125.46 L970.25 125.45 L970.26 125.47 L970.27 125.5 L970.29 125.53 L970.32 125.55 L970.34 125.57 L970.33 125.61 L970.31 125.71 L970.3 125.74 L970.27 125.76 L970.24 125.75 L970.21 125.74 L970.17 125.74 Z M966 119.96 L966.05 120 L966.09 120.07 L966.11 120.17 L966.12 120.25 L966.11 120.34 L966.07 120.4 L966.03 120.44 L965.96 120.45 L965.96 120.43 L965.94 120.39 L965.91 120.37 L965.89 120.44 L965.87 120.45 L965.85 120.46 L965.82 120.45 L965.81 120.41 L965.79 120.33 L965.79 120.25 L965.79 120.2 L965.75 120.12 L965.7 120.13 L965.53 120.34 L965.48 120.37 L965.42 120.39 L965.44 120.34 L965.46 120.26 L965.5 120.2 L965.53 120.17 L965.54 120.16 L965.57 120.1 L965.59 120.04 L965.62 120.03 L965.69 120.03 L965.92 119.95 L965.97 119.95 Z M966.73 118.15 L966.76 118.29 L966.8 118.43 L966.9 118.69 L966.81 118.71 L966.77 118.7 L966.72 118.65 L966.68 118.62 L966.61 118.6 L966.56 118.57 L966.54 118.52 L966.51 118.47 L966.5 118.43 L966.53 118.42 L966.52 118.4 L966.54 118.36 L966.71 118.09 L966.71 118.11 L966.72 118.12 L966.72 118.13 Z M987.49 102.56 L987.54 102.56 L987.54 102.59 L987.54 102.63 L987.55 102.68 L987.53 102.73 L987.51 102.84 L987.49 102.89 L987.45 102.92 L987.4 102.92 L987.35 102.91 L987.3 102.92 L987.26 102.94 L987.19 103 L987.16 103.02 L987.12 103.03 L986.98 103.02 L986.98 103.02 L986.99 103 L987.02 102.97 L987.03 102.97 L987.06 102.96 L987.13 102.97 L987.15 102.95 L987.3 102.79 L987.35 102.84 L987.41 102.81 L987.45 102.75 L987.45 102.68 L987.42 102.7 L987.38 102.7 L987.35 102.67 L987.34 102.63 L987.39 102.63 L987.42 102.6 L987.46 102.57 Z M985.82 101.82 L985.85 101.8 L985.87 101.77 L985.87 101.73 L985.86 101.69 L985.83 101.73 L985.82 101.74 L985.8 101.7 L985.8 101.65 L985.8 101.61 L985.82 101.56 L985.86 101.61 L985.9 101.65 L985.93 101.68 L985.99 101.69 L985.99 101.67 L985.96 101.64 L985.93 101.6 L985.9 101.55 L985.9 101.49 L985.9 101.44 L985.94 101.3 L985.95 101.26 L985.97 101.27 L985.97 101.3 L985.98 101.33 L986.01 101.34 L986.02 101.29 L986.04 101.25 L986.06 101.24 L986.1 101.26 L986.1 101.31 L986.09 101.38 L986.11 101.44 L986.13 101.4 L986.22 101.38 L986.26 101.34 L986.17 101.34 L986.23 101.28 L986.26 101.25 L986.28 101.21 L986.31 101.11 L986.33 101.08 L986.34 101.14 L986.34 101.19 L986.33 101.24 L986.3 101.34 L986.32 101.37 L986.32 101.4 L986.31 101.41 L986.29 101.42 L986.25 101.47 L986.24 101.49 L986.23 101.53 L986.22 101.62 L986.2 101.67 L986.19 101.67 L986.14 101.67 L986.12 101.68 L986.09 101.72 L986.07 101.74 L986 101.77 L985.98 101.78 L985.97 101.8 L985.96 101.83 L985.95 101.85 L985.92 101.87 L985.88 101.89 L985.84 101.89 L985.8 101.87 L985.81 101.86 L985.82 101.85 L985.82 101.83 Z M982.92 110.78 L982.94 110.83 L982.92 110.92 L982.91 111.02 L982.9 111.22 L982.88 111.25 L982.86 111.3 L982.87 111.38 L982.92 111.62 L983 111.85 L983 111.91 L982.96 111.87 L982.93 111.86 L982.91 111.89 L982.94 111.94 L982.98 111.97 L983.15 112.02 L983.07 112.06 L982.89 112.07 L982.8 112.1 L982.73 112.17 L982.76 112.2 L982.84 112.21 L982.9 112.23 L982.96 112.16 L983.06 112.13 L983.16 112.13 L983.21 112.14 L983.22 112.2 L983.25 112.25 L983.27 112.28 L983.29 112.27 L983.3 112.17 L983.32 112.07 L983.4 112.12 L983.41 112.15 L983.42 112.22 L983.41 112.32 L983.42 112.35 L983.46 112.34 L983.48 112.31 L983.5 112.26 L983.53 112.22 L983.56 112.2 L983.61 112.21 L983.65 112.23 L983.68 112.26 L983.69 112.31 L983.77 112.22 L983.8 112.2 L983.82 112.27 L983.85 112.31 L983.89 112.34 L983.92 112.39 L983.92 112.42 L983.91 112.45 L983.9 112.48 L983.9 112.5 L983.91 112.52 L983.93 112.56 L983.94 112.58 L983.95 112.68 L983.94 112.8 L983.92 112.91 L983.88 113 L983.85 112.95 L983.78 113.04 L983.73 113.03 L983.71 113.11 L983.71 113.14 L983.69 113.1 L983.66 113.1 L983.64 113.11 L983.61 113.14 L983.6 113.09 L983.56 113 L983.55 112.95 L983.55 112.89 L983.56 112.86 L983.56 112.83 L983.53 112.78 L983.51 112.73 L983.52 112.67 L983.51 112.62 L983.48 112.6 L983.43 112.62 L983.42 112.66 L983.42 112.7 L983.46 112.74 L983.42 112.84 L983.42 112.95 L983.45 113.05 L983.53 113.19 L983.52 113.2 L983.46 113.19 L983.28 113.19 L983.24 113.17 L983.17 113.09 L983.11 113.11 L983.08 113.08 L983.02 113 L982.91 112.89 L982.9 112.84 L982.96 112.76 L982.91 112.77 L982.83 112.8 L982.6 112.84 L982.53 112.88 L982.36 112.9 L982.12 112.99 L982 113 L981.98 112.99 L981.99 112.95 L982.02 112.92 L982.05 112.9 L982.13 112.89 L982.55 112.74 L982.59 112.74 L982.63 112.72 L982.61 112.69 L982.54 112.64 L982.5 112.64 L982.41 112.65 L982.36 112.63 L982.34 112.61 L982.31 112.55 L982.29 112.53 L982.21 112.49 L982.14 112.5 L982.07 112.53 L981.99 112.55 L981.94 112.59 L981.91 112.69 L981.9 112.8 L981.9 112.9 L981.91 112.95 L981.91 112.98 L981.91 113 L981.87 113.04 L981.84 113.06 L981.61 113.1 L981.58 113.09 L981.52 113.11 L981.47 113.17 L981.34 113.21 L981.28 113.26 L980.99 113.4 L980.45 113.8 L980.37 113.81 L980.32 113.8 L980.28 113.81 L980.24 113.83 L980.03 113.98 L979.93 114 L979.89 114.02 L979.85 114.05 L979.82 114.09 L979.79 114.11 L979.71 114.14 L979.64 114.19 L979.61 114.21 L979.56 114.22 L979.51 114.28 L979.48 114.31 L979.46 114.35 L979.39 114.37 L979.36 114.4 L979.18 114.59 L979.12 114.63 L979.06 114.6 L979.02 114.63 L978.99 114.66 L978.96 114.7 L978.95 114.74 L978.8 115.02 L978.79 115.07 L978.79 115.29 L978.77 115.36 L978.74 115.42 L978.66 115.52 L978.65 115.56 L978.65 115.6 L978.64 115.64 L978.61 115.65 L978.58 115.66 L978.5 115.71 L978.57 115.79 L978.58 115.92 L978.58 116.22 L978.61 116.41 L978.62 116.48 L978.6 116.55 L978.57 116.58 L978.53 116.6 L978.5 116.65 L978.58 116.67 L978.61 116.76 L978.61 116.89 L978.59 117.13 L978.56 117.2 L978.52 117.26 L978.5 117.31 L978.47 117.37 L978.46 117.43 L978.27 117.79 L977.96 118.11 L977.81 118.45 L977.74 118.73 L977.7 118.81 L977.67 118.91 L977.71 118.96 L977.76 119.01 L977.75 119.1 L977.65 119.23 L977.62 119.28 L977.62 119.32 L977.63 119.37 L977.64 119.42 L977.6 119.49 L977.52 119.54 L977.47 119.61 L977.49 119.7 L977.45 119.75 L977.42 119.78 L977.38 119.77 L977.33 119.73 L977.34 119.78 L977.35 119.82 L977.37 119.9 L977.32 119.94 L977.29 119.96 L977.19 119.95 L977.13 119.97 L977.13 120.01 L977.17 120.05 L977.24 120.06 L977.17 120.21 L977.15 120.23 L977.12 120.24 L977.08 120.26 L977.02 120.31 L977 120.32 L976.98 120.31 L976.97 120.32 L976.97 120.35 L976.97 120.39 L976.97 120.41 L976.98 120.42 L977.01 120.42 L977.05 120.44 L977.09 120.46 L977.12 120.47 L977.16 120.42 L977.21 120.47 L977.28 120.5 L977.34 120.55 L977.34 120.6 L977.29 120.64 L977.16 120.67 L977.1 120.7 L977.05 120.78 L977.02 120.81 L977 120.82 L976.97 120.82 L976.94 120.84 L976.91 120.94 L976.8 121.01 L976.77 121.08 L976.83 121.05 L976.93 121.02 L977.01 120.95 L977.14 120.9 L977.18 120.86 L977.22 120.77 L977.25 120.72 L977.29 120.7 L977.33 120.69 L977.36 120.67 L977.39 120.61 L977.42 120.66 L977.43 120.73 L977.42 120.95 L977.4 121 L977.35 121.02 L977.29 121.02 L977.24 121.02 L977.23 121.03 L977.2 121.05 L977.18 121.08 L977.18 121.1 L977.18 121.13 L976.6 121.19 L976.36 121.27 L976.15 121.42 L975.99 121.66 L975.94 121.75 L975.93 121.8 L975.92 121.92 L975.9 122 L975.89 122.03 L975.87 122.12 L975.82 122.2 L975.76 122.26 L975.7 122.3 L975.55 122.36 L975.48 122.4 L975.42 122.48 L975.37 122.55 L975.32 122.61 L974.93 122.89 L974.83 123.03 L974.8 123.24 L974.8 123.35 L974.79 123.39 L974.71 123.42 L974.65 123.48 L974.62 123.49 L974.57 123.48 L974.48 123.45 L974.43 123.44 L974.38 123.44 L974.3 123.48 L974.26 123.49 L974.3 123.51 L974.53 123.52 L974.47 123.66 L974.38 123.72 L974.28 123.76 L974.19 123.84 L974.15 123.84 L974.08 123.81 L974 123.79 L973.94 123.82 L973.91 123.85 L973.76 123.94 L973.77 123.96 L973.8 124.01 L973.82 124.03 L973.74 124.05 L973.65 124.02 L973.56 124.02 L973.51 124.11 L973.45 124.06 L973.43 124.05 L973.34 124.04 L973.29 124.04 L973.25 124.07 L973.19 124.13 L973.16 124.16 L973.12 124.17 L973.03 124.18 L972.99 124.17 L972.95 124.14 L972.96 124.05 L972.96 124.01 L972.95 124.01 L972.92 124 L972.89 124.02 L972.89 124.12 L972.86 124.14 L972.85 124.16 L972.84 124.18 L972.83 124.19 L972.74 124.19 L972.69 124.18 L972.66 124.14 L972.64 124.1 L972.63 124.08 L972.59 124.08 L972.59 124.12 L972.6 124.17 L972.59 124.22 L972.51 124.27 L972.42 124.24 L972.32 124.19 L972.24 124.17 L972.15 124.17 L972.1 124.16 L972.07 124.11 L972 123.86 L971.99 123.82 L971.98 123.77 L971.94 123.77 L971.86 123.8 L971.57 123.86 L971.47 123.86 L971.5 123.81 L971.53 123.8 L971.57 123.79 L971.61 123.77 L971.55 123.74 L971.48 123.72 L971.34 123.72 L971.36 123.77 L971.4 123.81 L971.41 123.84 L971.38 123.88 L971.39 123.9 L971.41 123.93 L971.42 123.94 L971.27 123.99 L970.78 123.94 L970.82 123.87 L970.83 123.85 L970.86 123.83 L970.9 123.82 L971 123.82 L971.03 123.83 L971.06 123.88 L971.14 123.89 L971.19 123.87 L971.13 123.8 L971.05 123.77 L970.8 123.77 L970.69 123.7 L970.63 123.69 L970.61 123.76 L970.63 123.84 L970.71 123.95 L970.74 124.03 L970.67 124.01 L970.57 123.89 L970.5 123.86 L970.49 123.84 L970.49 123.8 L970.47 123.76 L970.4 123.74 L970.38 123.71 L970.36 123.68 L970.36 123.63 L970.44 123.6 L970.47 123.61 L970.5 123.62 L970.51 123.63 L970.51 123.65 L970.52 123.67 L970.54 123.65 L970.69 123.52 L970.71 123.41 L970.69 123.28 L970.64 123.19 L970.57 123.19 L970.59 123.29 L970.57 123.39 L970.51 123.44 L970.45 123.44 L970.42 123.38 L970.36 123.21 L970.21 122.93 L970.17 122.88 L970.09 122.86 L969.81 122.91 L969.77 122.93 L969.77 122.98 L969.78 123.03 L969.77 123.05 L969.73 123.03 L969.68 123.01 L969.64 122.99 L969.6 123.01 L969.52 123 L969.46 123 L969.44 123.04 L969.42 123.08 L969.39 123.09 L969.36 123.08 L969.33 123.07 L969.29 123.05 L969.27 123.05 L969.25 123.06 L969.2 123.1 L969.19 123.1 L969.16 123.09 L969.13 123.06 L969.1 123.02 L969.07 123.01 L969.05 122.97 L969.01 122.9 L968.98 122.87 L968.91 122.83 L968.88 122.8 L968.92 122.78 L968.96 122.76 L968.99 122.74 L969.02 122.69 L968.87 122.5 L968.8 122.38 L968.8 122.3 L968.76 122.26 L968.65 122.25 L968.59 122.23 L968.46 122.14 L968.42 122.13 L968.1 122.1 L968.07 122.1 L968.06 122.13 L968.06 122.2 L968.04 122.23 L968.01 122.29 L968 122.35 L968 122.4 L967.98 122.46 L967.94 122.51 L967.9 122.53 L967.81 122.52 L967.76 122.53 L967.67 122.59 L967.63 122.6 L967.58 122.6 L967.46 122.55 L967.4 122.55 L967.35 122.56 L967.33 122.57 L967.31 122.59 L967.3 122.6 L967.28 122.59 L967.27 122.56 L967.26 122.55 L967.22 122.54 L967.05 122.46 L967 122.46 L966.95 122.47 L966.9 122.46 L966.71 122.41 L966.33 122.42 L966.14 122.39 L965.98 122.27 L965.9 122.16 L965.88 122.12 L965.9 122.09 L965.98 122.06 L966.01 122.03 L966.12 121.91 L966.21 121.77 L966.29 121.58 L966.34 121.5 L966.39 121.47 L966.48 121.45 L966.6 121.34 L966.67 121.3 L966.67 121.27 L966.61 121.28 L966.44 121.38 L966.32 121.43 L966.25 121.47 L966.21 121.52 L966.2 121.57 L966.21 121.6 L966.22 121.62 L966.21 121.66 L966.2 121.67 L966.11 121.77 L966.11 121.78 L966.1 121.78 L966.08 121.75 L966.08 121.72 L966.09 121.69 L966.09 121.66 L966.06 121.63 L966.02 121.76 L965.93 121.81 L965.73 121.85 L965.73 121.78 L965.74 121.72 L965.76 121.69 L965.81 121.72 L965.82 121.59 L965.85 121.5 L965.9 121.44 L965.98 121.38 L966.15 121.34 L966.22 121.31 L966.27 121.22 L966.17 121.26 L966.08 121.3 L966.04 121.29 L965.98 121.28 L965.94 121.26 L965.93 121.23 L966.09 121.04 L966.11 121 L966.12 120.97 L966.09 120.94 L966.06 120.94 L966.02 120.97 L966 121 L965.99 121.02 L965.98 121.04 L965.97 121.07 L965.96 121.09 L965.91 121.13 L965.89 121.15 L965.82 121.27 L965.81 121.31 L965.77 121.36 L965.5 121.44 L965.46 121.46 L965.4 121.53 L965.38 121.55 L965.35 121.53 L965.33 121.48 L965.32 121.43 L965.32 121.4 L965.33 121.35 L965.33 121.3 L965.31 121.22 L965.31 120.86 L965.33 120.76 L965.38 120.72 L965.56 120.7 L965.75 120.7 L965.73 120.72 L965.75 120.75 L965.82 120.69 L965.9 120.67 L966.08 120.67 L966.15 120.66 L966.3 120.6 L966.37 120.59 L966.46 120.6 L966.5 120.6 L966.53 120.57 L966.55 120.54 L966.58 120.51 L966.63 120.47 L966.77 120.41 L966.83 120.37 L966.86 120.28 L966.74 120.33 L966.7 120.34 L966.5 120.31 L966.24 120.39 L966.17 120.37 L966.22 120.25 L966.26 120.21 L966.31 120.17 L966.46 120.13 L966.5 120.09 L966.23 120.13 L966.18 120.12 L966.16 120.02 L966.16 119.93 L966.19 119.87 L966.26 119.84 L966.33 119.82 L966.48 119.75 L966.56 119.73 L966.71 119.79 L966.78 119.79 L966.84 119.73 L966.75 119.74 L966.71 119.72 L966.67 119.68 L966.85 119.62 L966.94 119.56 L966.96 119.46 L966.59 119.65 L966.36 119.7 L966.2 119.79 L966.17 119.79 L966.11 119.81 L966.08 119.81 L966.03 119.81 L966.01 119.79 L965.97 119.72 L965.97 119.66 L966.08 119.43 L966.13 119.19 L966.15 119.13 L966.28 119.06 L966.42 119.12 L966.55 119.21 L966.67 119.24 L966.64 119.14 L966.6 119.04 L966.55 119.01 L966.52 119.1 L966.47 119.06 L966.36 119 L966.31 118.97 L966.27 118.92 L966.26 118.88 L966.28 118.83 L966.32 118.76 L966.41 118.66 L966.47 118.61 L966.5 118.62 L966.52 118.69 L966.57 118.74 L966.69 118.8 L966.67 118.82 L966.64 118.84 L966.63 118.87 L966.62 118.91 L966.7 118.9 L966.78 118.86 L966.86 118.86 L966.94 118.94 L966.96 118.98 L966.97 119.01 L966.97 119.05 L966.94 119.1 L966.87 119.16 L966.84 119.2 L966.86 119.21 L966.96 119.21 L966.99 119.19 L967.03 119.14 L967.05 119.09 L967.06 119.04 L967.08 119.02 L967.15 119.09 L967.19 119.11 L967.22 119.15 L967.24 119.24 L967.29 119.37 L967.3 119.36 L967.31 119.35 L967.33 119.37 L967.36 119.38 L967.38 119.4 L967.37 119.27 L967.22 119.08 L966.94 118.8 L966.98 118.74 L967.03 118.72 L967.31 118.63 L967.36 118.64 L967.39 118.67 L967.44 118.76 L967.48 118.8 L967.53 118.82 L967.59 118.82 L967.64 118.8 L967.67 118.74 L967.63 118.73 L967.53 118.74 L967.49 118.71 L967.46 118.67 L967.45 118.65 L967.46 118.57 L967.47 118.53 L967.5 118.51 L967.5 118.5 L967.39 118.51 L967.29 118.56 L967.22 118.58 L966.99 118.6 L966.94 118.57 L966.93 118.52 L966.91 118.44 L966.89 118.36 L966.84 118.32 L966.83 118.27 L966.82 118.09 L966.84 118.03 L966.9 117.98 L966.99 117.99 L967.05 118.03 L967.16 118.19 L967.19 118.21 L967.24 118.23 L967.28 118.23 L967.31 118.2 L967.29 118.18 L967.19 118.09 L967.09 117.96 L967.03 117.91 L966.96 117.9 L967.07 117.72 L967.14 117.65 L967.2 117.67 L967.31 117.85 L967.31 117.91 L967.31 117.96 L967.31 118 L967.34 118.04 L967.36 117.98 L967.35 117.9 L967.36 117.87 L967.41 117.85 L967.58 117.87 L967.53 117.82 L967.37 117.76 L967.31 117.73 L967.27 117.66 L967.23 117.59 L967.23 117.53 L967.27 117.47 L967.34 117.44 L967.41 117.46 L967.48 117.5 L967.56 117.52 L967.61 117.55 L967.68 117.61 L967.75 117.65 L967.79 117.6 L967.73 117.59 L967.4 117.39 L967.36 117.36 L967.38 117.3 L967.42 117.25 L967.56 117.13 L967.61 117.1 L967.66 117.09 L967.73 117.09 L967.71 117.07 L967.69 117.02 L967.67 117.01 L967.89 116.88 L967.98 116.87 L968.02 116.99 L968.03 117.01 L968.05 117.03 L968.07 117.06 L968.07 117.1 L968.07 117.14 L968.04 117.21 L968.04 117.25 L968.06 117.3 L968.09 117.34 L968.11 117.39 L968.09 117.47 L968.2 117.48 L968.25 117.47 L968.24 117.43 L968.23 117.41 L968.22 117.38 L968.21 117.35 L968.21 117.32 L968.2 117.29 L968.14 117.24 L968.13 117.2 L968.14 117.14 L968.14 117.08 L968.12 117.02 L968.1 116.98 L968.06 116.85 L968.05 116.8 L968.09 116.67 L968.17 116.58 L968.27 116.56 L968.36 116.65 L968.38 116.7 L968.37 116.73 L968.35 116.76 L968.32 116.82 L968.31 116.89 L968.32 116.95 L968.35 116.99 L968.4 117.03 L968.4 116.94 L968.43 116.88 L968.46 116.83 L968.48 116.76 L968.47 116.68 L968.4 116.6 L968.38 116.53 L968.35 116.48 L968.34 116.45 L968.4 116.42 L968.43 116.39 L968.46 116.38 L968.49 116.4 L968.54 116.47 L968.59 116.52 L968.64 116.55 L968.71 116.57 L968.66 116.54 L968.56 116.41 L968.48 116.35 L968.47 116.3 L968.5 116.25 L968.54 116.21 L968.69 116.17 L968.71 116.14 L968.73 116.09 L968.75 116.06 L968.76 116.05 L968.81 116.04 L968.83 116.02 L968.91 115.93 L968.99 115.9 L969.08 115.92 L969.2 116.03 L969.3 116.09 L969.33 116.13 L969.42 116.3 L969.44 116.26 L969.45 116.2 L969.44 116.14 L969.42 116.09 L969.4 116.07 L969.34 116.03 L969.27 115.95 L969.25 115.94 L969.24 115.93 L969.22 115.93 L969.21 115.9 L969.2 115.87 L969.21 115.76 L969.19 115.65 L969.17 115.59 L969.15 115.55 L969.22 115.45 L969.45 115.18 L969.53 115.11 L969.63 115.04 L969.7 114.95 L969.69 114.82 L969.94 114.82 L969.97 114.81 L970 114.74 L970 114.68 L969.99 114.67 L969.97 114.63 L969.9 114.6 L969.9 114.58 L970.03 114.53 L970.08 114.5 L970.18 114.38 L970.36 114.26 L970.47 114.15 L970.56 114.03 L970.57 114.01 L970.57 113.97 L970.58 113.92 L970.6 113.87 L970.63 113.84 L970.66 113.81 L970.69 113.79 L970.72 113.78 L970.7 113.77 L970.65 113.72 L970.7 113.69 L970.76 113.68 L970.93 113.67 L971.04 113.64 L971.13 113.59 L971.19 113.55 L971.21 113.52 L971.25 113.5 L971.32 113.51 L971.35 113.5 L971.42 113.43 L971.47 113.46 L971.51 113.53 L971.57 113.59 L971.7 113.61 L971.86 113.56 L972.01 113.46 L972.18 113.29 L972.31 113.2 L972.37 113.15 L972.42 113.11 L972.59 113.02 L972.64 112.97 L972.65 112.94 L972.65 112.9 L972.67 112.87 L972.69 112.85 L972.76 112.8 L972.79 112.79 L972.84 112.76 L972.95 112.63 L973 112.6 L973.06 112.58 L973.26 112.44 L973.4 112.4 L973.48 112.35 L973.51 112.3 L973.52 112.27 L973.55 112.24 L973.59 112.21 L973.61 112.2 L973.69 112.19 L973.71 112.2 L973.74 112.2 L973.76 112.2 L973.8 112.18 L973.84 112.13 L973.95 112.1 L974.05 112.03 L974.16 112.05 L974.22 112.05 L974.37 111.93 L974.42 111.91 L974.47 111.88 L974.56 111.74 L974.6 111.69 L974.62 111.65 L974.62 111.6 L974.68 111.53 L974.75 111.52 L974.78 111.48 L974.79 111.43 L974.8 111.34 L974.86 111.27 L974.92 111.22 L975.3 111.03 L975.33 110.97 L975.36 110.87 L975.42 110.85 L975.46 110.81 L975.49 110.75 L975.51 110.7 L975.54 110.67 L975.6 110.64 L975.67 110.59 L975.71 110.57 L975.76 110.56 L975.79 110.57 L975.85 110.61 L975.88 110.62 L976.06 110.33 L975.97 110.31 L975.9 110.39 L975.84 110.49 L975.78 110.54 L975.83 110.37 L975.92 110.26 L976 110.2 L976.02 110.14 L976.02 110.12 L976.23 110.1 L976.29 110.07 L976.32 110.05 L976.29 110.01 L976.34 109.97 L976.38 109.92 L976.42 109.88 L976.49 109.91 L976.49 109.84 L976.53 109.83 L976.54 109.8 L976.66 109.73 L976.91 109.64 L977.01 109.55 L977.1 109.54 L977.15 109.54 L977.18 109.53 L977.2 109.5 L977.24 109.46 L977.27 109.44 L977.37 109.38 L977.42 109.33 L977.52 109.18 L977.57 109.15 L977.62 109.11 L977.86 108.69 L977.89 108.65 L977.92 108.64 L977.98 108.62 L978.03 108.58 L978.05 108.53 L978.09 108.46 L978.12 108.43 L978.15 108.41 L978.19 108.38 L978.24 108.31 L978.31 108.18 L978.36 108.15 L978.56 107.74 L978.62 107.67 L978.65 107.61 L978.66 107.49 L978.67 107.4 L978.81 107.19 L978.87 107.02 L978.95 106.46 L979 106.32 L979.01 106.24 L979.04 106.14 L979.05 106.11 L979.15 105.99 L979.19 105.93 L979.21 105.84 L979.26 105.61 L979.3 105.53 L979.33 105.41 L979.39 105.27 L979.37 105.22 L979.35 105.25 L979.33 105.22 L979.33 105.2 L979.33 105.02 L979.37 104.99 L979.54 105.02 L979.73 104.99 L979.79 104.99 L979.81 104.99 L979.95 104.93 L980.21 104.76 L980.28 104.68 L980.31 104.66 L980.35 104.65 L980.39 104.65 L980.41 104.65 L980.43 104.56 L980.45 104.54 L980.48 104.52 L980.51 104.49 L980.55 104.43 L980.65 104.19 L980.67 104.17 L980.68 104.17 L980.69 104.16 L980.69 104.08 L980.7 104.07 L980.71 104.06 L980.72 104.05 L980.74 104.02 L980.76 103.98 L980.77 103.94 L980.77 103.9 L980.8 103.84 L980.88 103.78 L980.96 103.73 L981.02 103.71 L981.01 103.67 L981 103.63 L981.01 103.6 L981.05 103.53 L981.05 103.48 L981.06 103.4 L981.06 103.31 L981.08 103.28 L981.1 103.29 L981.12 103.28 L981.14 103.26 L981.18 103.25 L981.21 103.25 L981.16 103.14 L981.14 103.1 L981.11 102.68 L981.12 102.64 L981.15 102.55 L981.15 102.52 L981.13 102.33 L981.13 101.92 L981.12 101.81 L981.12 101.74 L981.14 101.71 L981.18 101.71 L981.2 101.7 L981.22 101.68 L981.26 101.61 L981.33 101.52 L981.33 101.5 L981.34 101.46 L981.35 101.44 L981.36 101.42 L981.38 101.42 L981.4 101.42 L981.42 101.41 L981.43 101.39 L981.44 101.37 L981.45 101.35 L981.47 101.34 L981.47 101.34 L981.51 101.34 L981.53 101.34 L981.57 101.3 L981.65 101.25 L981.68 101.24 L981.69 101.22 L981.84 101.11 L982.12 100.76 L982.24 100.64 L982.34 100.6 L982.3 100.72 L982.29 100.76 L982.33 100.78 L982.35 100.76 L982.36 100.73 L982.38 100.7 L982.43 100.73 L982.46 100.72 L982.48 100.7 L982.5 100.68 L982.48 100.62 L982.57 100.59 L982.57 100.55 L982.54 100.52 L982.53 100.5 L982.5 100.54 L982.46 100.56 L982.42 100.57 L982.38 100.55 L982.49 100.41 L982.62 100.35 L983.17 100.32 L983.35 100.34 L983.52 100.39 L983.61 100.4 L983.55 100.43 L982.94 100.38 L982.9 100.39 L982.87 100.43 L982.84 100.5 L982.81 100.65 L982.79 100.72 L982.75 100.75 L982.77 100.83 L982.76 100.86 L982.72 100.86 L982.67 100.86 L982.71 100.96 L982.72 100.97 L982.77 100.99 L982.78 101 L982.78 101.07 L982.75 101.18 L982.77 101.24 L982.78 101.22 L982.84 101.19 L982.88 101.29 L982.98 101.39 L983.22 101.58 L983.26 101.6 L983.29 101.58 L983.36 101.53 L983.37 101.52 L983.41 101.52 L983.42 101.51 L983.41 101.46 L983.42 101.44 L983.46 101.4 L983.49 101.4 L983.52 101.44 L983.55 101.38 L983.59 101.35 L983.63 101.35 L983.67 101.41 L983.68 101.46 L983.69 101.49 L983.67 101.56 L983.69 101.6 L983.68 101.63 L983.65 101.67 L983.7 101.68 L983.74 101.67 L983.77 101.69 L983.8 101.74 L983.8 101.76 L983.77 101.92 L983.78 101.99 L983.78 102.02 L983.78 102.05 L983.75 102.1 L983.68 102.17 L983.61 102.23 L983.64 102.24 L983.66 102.25 L983.68 102.24 L983.71 102.23 L983.74 102.41 L983.75 102.47 L983.76 102.52 L983.79 102.57 L983.82 102.62 L983.8 102.68 L983.79 102.65 L983.78 102.62 L983.75 102.6 L983.73 102.58 L983.71 102.72 L983.72 102.75 L983.76 102.79 L983.78 102.82 L983.78 102.86 L983.8 102.86 L983.83 102.82 L983.86 102.87 L983.88 103.02 L983.92 103.12 L983.92 103.15 L983.9 103.17 L983.85 103.19 L983.84 103.22 L983.86 103.28 L983.91 103.31 L983.97 103.32 L984.1 103.32 L984.16 103.31 L984.22 103.29 L984.32 103.19 L984.42 103.13 L984.47 103.08 L984.57 102.93 L984.75 102.76 L984.82 102.73 L984.85 102.67 L984.88 102.66 L984.9 102.67 L984.9 102.7 L984.89 102.73 L984.88 102.76 L984.98 102.72 L985.02 102.69 L985.06 102.65 L985.11 102.56 L985.13 102.53 L985.15 102.53 L985.18 102.55 L985.2 102.55 L985.22 102.51 L985.2 102.47 L985.22 102.42 L985.27 102.37 L985.31 102.35 L985.36 102.37 L985.41 102.42 L985.43 102.49 L985.44 102.56 L985.46 102.56 L985.47 102.52 L985.48 102.51 L985.5 102.52 L985.51 102.56 L985.55 102.53 L985.51 102.44 L985.55 102.4 L985.63 102.38 L985.69 102.34 L985.72 102.3 L985.71 102.26 L985.69 102.24 L985.66 102.23 L985.55 102.3 L985.53 102.29 L985.53 102.24 L985.53 102.22 L985.58 102.16 L985.6 102.14 L985.67 102.11 L985.69 102.09 L985.73 102.07 L985.87 102.05 L985.88 102.03 L985.94 101.93 L986.01 101.89 L986 102.06 L986.07 102.07 L986.08 102.06 L986.17 101.97 L986.17 101.95 L986.18 101.91 L986.18 101.89 L986.2 101.88 L986.24 101.87 L986.38 101.79 L986.4 101.79 L986.44 101.79 L986.47 101.8 L986.49 101.82 L986.52 101.92 L986.47 101.93 L986.34 101.89 L986.36 101.94 L986.34 101.97 L986.31 102 L986.3 102.05 L986.27 102.04 L986.24 102.03 L986.21 102.05 L986.18 102.07 L986.2 102.1 L986.21 102.11 L986.22 102.12 L986.24 102.12 L986.19 102.17 L986.1 102.2 L986.01 102.2 L985.97 102.16 L985.93 102.16 L985.85 102.17 L985.81 102.2 L985.88 102.28 L985.84 102.3 L985.81 102.33 L985.81 102.36 L985.86 102.38 L985.85 102.43 L985.83 102.47 L985.81 102.51 L985.78 102.53 L985.8 102.56 L985.84 102.57 L985.87 102.55 L985.88 102.49 L985.94 102.4 L985.94 102.38 L986.13 102.35 L986.23 102.34 L986.3 102.38 L986.27 102.38 L986.24 102.38 L986.23 102.4 L986.22 102.44 L986.21 102.48 L986.19 102.47 L986.17 102.46 L986.15 102.46 L986.13 102.45 L986.11 102.44 L986.09 102.44 L986.09 102.47 L986.09 102.48 L986.11 102.5 L986.11 102.52 L986.1 102.56 L986.09 102.57 L986.07 102.57 L986.05 102.56 L986.03 102.64 L985.99 102.67 L985.95 102.68 L985.92 102.74 L985.96 102.74 L986.01 102.76 L986.05 102.8 L986.07 102.85 L986.06 102.89 L986.04 102.97 L986.03 103.02 L986 103.06 L985.92 103.1 L985.76 103.15 L985.77 103.19 L985.79 103.22 L985.82 103.24 L985.84 103.25 L986.14 103.07 L986.24 103.04 L986.24 103.02 L986.2 103 L986.16 103.01 L986.13 103 L986.11 102.97 L986.23 102.95 L986.29 102.95 L986.33 102.98 L986.37 103 L986.44 102.99 L986.51 102.97 L986.55 102.94 L986.53 102.93 L986.49 102.89 L986.66 102.9 L986.74 102.88 L986.8 102.81 L986.48 102.82 L986.44 102.84 L986.43 102.85 L986.43 102.87 L986.42 102.88 L986.4 102.89 L986.38 102.89 L986.37 102.88 L986.35 102.88 L986.34 102.86 L986.36 102.81 L986.21 102.88 L986.13 102.87 L986.11 102.76 L986.12 102.7 L986.15 102.67 L986.19 102.64 L986.22 102.61 L986.23 102.59 L986.22 102.56 L986.22 102.54 L986.24 102.53 L986.27 102.53 L986.28 102.52 L986.29 102.49 L986.28 102.46 L986.38 102.48 L986.35 102.54 L986.34 102.6 L986.36 102.71 L986.41 102.62 L986.43 102.55 L986.47 102.51 L986.55 102.51 L986.5 102.43 L986.49 102.4 L986.54 102.32 L986.54 102.27 L986.52 102.23 L986.47 102.23 L986.45 102.26 L986.44 102.32 L986.42 102.36 L986.39 102.34 L986.3 102.25 L986.28 102.2 L986.38 102.2 L986.36 102.15 L986.35 102.12 L986.37 102.1 L986.41 102.12 L986.42 102.05 L986.47 102.07 L986.57 102.17 L986.63 102.21 L986.69 102.23 L986.74 102.22 L986.78 102.15 L986.83 102.2 L986.88 102.18 L986.91 102.12 L986.89 102.05 L986.94 102.06 L986.98 102.1 L987.02 102.16 L987.03 102.21 L987.03 102.26 L987.03 102.28 L987.01 102.3 L986.95 102.31 L986.94 102.32 L986.94 102.35 L986.95 102.38 L987 102.42 L987.06 102.4 L987.11 102.36 L987.17 102.28 L987.28 102.16 L987.32 102.15 L987.34 102.2 L987.32 102.26 L987.17 102.49 L987.16 102.53 L987.15 102.6 L987.15 102.63 L987.14 102.62 L987.1 102.65 L987.06 102.68 L987.07 102.68 L987.06 102.69 L987.03 102.71 L987 102.71 L986.99 102.67 L986.99 102.52 L986.98 102.5 L986.96 102.53 L986.94 102.57 L986.93 102.61 L986.89 102.59 L986.89 102.62 L986.91 102.67 L986.93 102.71 L986.99 102.77 L987.01 102.81 L987.03 102.86 L987.02 102.87 L986.98 102.88 L986.97 102.89 L986.97 102.88 L986.92 102.92 L986.89 102.94 L986.88 102.96 L986.86 102.98 L986.82 102.99 L986.67 102.99 L986.6 103.01 L986.55 103.07 L986.52 103.04 L986.48 103.04 L986.46 103.05 L986.44 103.09 L986.39 103.08 L986.34 103.09 L986.29 103.12 L986.25 103.16 L986.24 103.2 L986.31 103.2 L986.39 103.18 L986.42 103.16 L986.48 103.18 L986.52 103.16 L986.56 103.13 L986.61 103.09 L986.64 103.09 L986.67 103.1 L986.7 103.1 L986.76 103.07 L986.81 103.05 L986.84 103.04 L986.87 103.08 L986.91 103.11 L986.95 103.14 L986.98 103.15 L987.02 103.14 L987.06 103.1 L987.09 103.09 L987.16 103.08 L987.22 103.06 L987.34 102.97 L987.3 103.06 L987.26 103.15 L987.24 103.17 L987.18 103.22 L987.15 103.26 L987.14 103.3 L987.13 103.33 L987.11 103.36 L987.02 103.39 L986.96 103.44 L986.92 103.45 L986.93 103.42 L986.98 103.33 L986.98 103.31 L986.96 103.3 L986.9 103.36 L986.86 103.35 L986.88 103.3 L986.8 103.35 L986.74 103.45 L986.7 103.55 L986.65 103.65 L986.58 103.74 L986.57 103.79 L986.57 103.86 L986.6 103.97 L986.61 104.03 L986.59 104.09 L986.64 104.1 L986.67 104.15 L986.69 104.2 L986.68 104.22 L986.69 104.24 L986.72 104.25 L986.75 104.24 L986.76 104.17 L986.75 104.15 L986.72 104.08 L986.71 104.02 L986.75 104.05 L986.91 104.32 L986.91 104.37 L986.93 104.42 L986.94 104.46 L986.95 104.53 L986.96 104.57 L987.02 104.77 L987.03 104.8 L987.06 104.86 L987.12 104.9 L987.19 104.91 L987.24 104.89 L987.23 104.98 L987.03 105.36 L986.98 105.44 L986.65 105.79 L986.44 106.02 L986.35 106.16 L986.32 106.24 L986.3 106.32 L986.3 106.44 L986.3 106.5 L986.27 106.54 L986.25 106.58 L986.23 106.63 L986.23 106.64 L986.17 106.71 L986.12 106.81 L986.06 106.87 L985.94 106.95 L985.88 107.01 L985.79 107.15 L985.77 107.16 L985.75 107.17 L985.72 107.17 L985.69 107.23 L985.68 107.25 L985.64 107.28 L985.61 107.31 L985.59 107.34 L985.59 107.4 L985.6 107.43 L985.65 107.49 L985.67 107.53 L985.65 107.56 L985.63 107.58 L985.57 107.5 L985.54 107.48 L985.49 107.48 L985.46 107.49 L985.4 107.54 L985.37 107.55 L985.33 107.58 L985.19 107.76 L985.13 107.91 L985.09 108.08 L985.02 108.22 L984.9 108.28 L984.9 108.31 L984.92 108.31 L984.93 108.32 L984.94 108.33 L984.96 108.34 L984.74 108.81 L984.71 108.94 L984.67 109.02 L984.61 109.09 L984.53 109.14 L984.52 109.18 L984.53 109.25 L984.53 109.29 L984.54 109.31 L984.53 109.34 L984.51 109.38 L984.49 109.42 L984.46 109.43 L984.44 109.45 L984.44 109.5 L984.43 109.53 L984.4 109.56 L984.28 109.63 L984.25 109.64 L984.17 109.65 L984.05 109.72 L984.04 109.75 L984.03 109.8 L984.01 109.83 L983.99 109.86 L983.85 109.96 L983.48 110.06 L983.38 110.1 L983.31 110.2 L983.09 110.35 L983.05 110.43 L982.99 110.59 L982.92 110.69 L982.91 110.72 Z M989.7 86.82 L989.76 86.79 L989.78 86.8 L989.81 86.84 L989.83 86.88 L989.81 86.9 L989.77 86.91 L989.74 86.94 L989.73 86.98 L989.76 87.05 L989.76 87.08 L989.75 87.11 L989.74 87.12 L989.7 87.11 L989.68 87.11 L989.62 87.13 L989.57 87.14 L989.51 87.13 L989.39 87.09 L989.41 87.06 L989.35 87 L989.32 87 L989.29 87.03 L989.26 87.04 L989.25 87 L989.25 86.94 L989.28 86.89 L989.3 86.9 L989.44 86.89 L989.47 86.91 L989.49 86.95 L989.52 86.97 L989.58 86.93 Z M991.6 86.42 L991.58 86.42 L991.57 86.43 L991.55 86.43 L991.53 86.43 L991.52 86.43 L991.5 86.42 L991.46 86.41 L991.45 86.39 L991.46 86.38 L991.47 86.36 L991.47 86.36 L991.47 86.34 L991.47 86.33 L991.47 86.32 L991.45 86.31 L991.43 86.3 L991.4 86.29 L991.39 86.25 L991.47 86.22 L991.49 86.25 L991.52 86.34 L991.55 86.35 L991.57 86.36 L991.59 86.38 Z M988.82 85.6 L988.85 85.58 L988.9 85.6 L988.93 85.64 L988.95 85.69 L988.97 85.77 L988.96 85.8 L988.92 85.82 L988.82 85.81 L988.79 85.8 L988.83 85.77 L988.84 85.73 L988.81 85.65 Z M989.6 84.85 L989.62 84.88 L989.64 84.9 L989.66 84.94 L989.66 84.98 L989.64 85.01 L989.59 85.03 L989.55 85.04 L989.51 85.03 L989.45 84.96 L989.49 84.89 L989.57 84.85 Z M990.74 85.22 L990.79 85.3 L990.81 85.32 L990.76 85.44 L990.73 85.46 L990.69 85.47 L990.67 85.44 L990.66 85.4 L990.66 85.35 L990.64 85.32 L990.61 85.33 L990.57 85.35 L990.54 85.35 L990.52 85.32 L990.51 85.23 L990.5 85.2 L990.48 85.18 L990.46 85.18 L990.39 85.2 L990.4 85.17 L990.4 85.15 L990.39 85.13 L990.37 85.1 L990.31 85.12 L990.23 85.09 L990.16 85.02 L990.14 84.94 L990.22 85.02 L990.24 85.03 L990.26 85.01 L990.26 84.96 L990.26 84.91 L990.27 84.88 L990.29 84.82 L990.25 84.79 L990.19 84.76 L990.16 84.7 L990.25 84.7 L990.28 84.69 L990.31 84.65 L990.26 84.59 L990.25 84.52 L990.28 84.47 L990.35 84.46 L990.38 84.47 L990.4 84.49 L990.42 84.52 L990.43 84.57 L990.44 84.59 L990.53 84.65 L990.47 84.68 L990.48 84.72 L990.52 84.76 L990.59 84.81 L990.66 84.84 L990.69 84.84 L990.71 84.85 L990.7 84.89 L990.67 84.92 L990.66 84.95 L990.65 85 L990.63 85.04 L990.63 85.08 L990.67 85.14 L990.68 85.15 L990.7 85.16 L990.71 85.17 L990.73 85.17 L990.74 85.18 L990.74 85.19 L990.73 85.21 Z M981.23 77.89 L981.24 77.89 L981.26 77.89 L981.26 77.9 L981.25 77.91 L981.23 77.92 L981.23 77.93 L981.24 77.95 L981.23 77.96 L981.24 77.96 L981.24 77.97 L981.22 77.97 L981.2 77.97 L981.19 77.96 L981.18 77.95 L981.16 77.93 L981.14 77.92 L981.14 77.9 L981.14 77.89 L981.15 77.89 L981.17 77.9 L981.21 77.9 L981.22 77.9 Z M994.7 97.04 L994.72 97.11 L994.74 97.1 L994.76 97.13 L994.8 97.15 L994.88 97.21 L994.9 97.23 L994.93 97.25 L994.98 97.25 L995.08 97.24 L995.17 97.26 L995.16 97.31 L995.11 97.38 L995.08 97.47 L995.06 97.5 L995.03 97.53 L995 97.55 L994.93 97.58 L994.91 97.62 L994.85 97.86 L994.85 97.87 L994.85 97.89 L994.85 97.91 L994.85 97.94 L994.84 97.95 L994.79 97.96 L994.78 97.97 L994.74 98.04 L994.65 98.37 L994.59 98.52 L994.55 98.58 L994.54 98.61 L994.54 98.66 L994.54 98.75 L994.54 98.78 L994.53 98.79 L994.5 98.85 L994.49 98.87 L994.44 98.99 L994.38 99.13 L994.26 99.29 L994.14 99.41 L994.12 99.42 L994.09 99.4 L994.07 99.38 L994.04 99.36 L994.01 99.38 L993.94 99.48 L993.92 99.54 L993.91 99.62 L993.92 99.59 L993.95 99.56 L993.97 99.54 L994 99.54 L993.82 99.91 L993.79 100.17 L993.74 100.26 L993.67 100.26 L993.6 100.24 L993.55 100.26 L993.39 100.53 L993.22 100.7 L993.2 100.74 L993.19 100.78 L993.18 100.82 L993.16 100.86 L993.11 100.97 L993.09 100.98 L993.04 100.99 L993.02 101 L993 101.04 L992.9 101.31 L992.83 101.42 L992.73 101.67 L992.69 101.84 L992.65 101.91 L992.51 101.97 L992.45 102.04 L992.4 102.12 L992.37 102.2 L992.28 102.54 L992.22 102.68 L991.94 103.08 L991.51 103.43 L991.41 103.55 L991.26 103.65 L991.1 103.73 L990.48 104.22 L990.29 104.3 L990.25 104.33 L990.15 104.44 L990.11 104.46 L989.89 104.48 L989.85 104.45 L989.82 104.33 L989.78 104.3 L989.79 104.24 L989.78 104.2 L989.76 104.16 L989.74 104.12 L989.73 104.06 L989.78 103.79 L989.77 103.74 L989.74 103.72 L989.4 103.59 L989.33 103.58 L989.25 103.6 L989.19 103.64 L989.05 103.79 L989.02 103.81 L988.99 103.82 L988.95 103.81 L988.89 103.76 L988.85 103.72 L988.84 103.69 L988.88 103.62 L988.88 103.56 L988.86 103.49 L988.85 103.4 L988.88 103.32 L988.94 103.18 L988.95 103.08 L988.92 103 L988.84 102.98 L988.76 102.99 L988.7 103.02 L988.66 103.05 L988.63 103.09 L988.6 103.14 L988.59 103.2 L988.72 103.23 L988.76 103.27 L988.74 103.35 L988.72 103.38 L988.69 103.4 L988.66 103.41 L988.63 103.39 L988.6 103.38 L988.57 103.4 L988.54 103.44 L988.5 103.45 L988.37 103.43 L988.23 103.35 L988.13 103.25 L988.11 103.12 L988.14 103.05 L988.19 103.02 L988.32 102.99 L988.36 102.95 L988.47 102.82 L988.54 102.75 L988.61 102.59 L988.65 102.56 L988.71 102.53 L988.75 102.49 L988.78 102.49 L988.82 102.58 L988.85 102.55 L988.87 102.52 L988.86 102.48 L988.85 102.43 L988.84 102.42 L988.8 102.37 L988.78 102.32 L988.81 102.3 L988.84 102.29 L988.89 102.22 L988.92 102.2 L988.95 102.19 L988.99 102.17 L989.02 102.13 L989.05 102.1 L989.07 102.05 L989.07 102.02 L989.08 101.92 L989.14 101.75 L989.17 101.7 L989.33 101.52 L989.49 101.25 L989.62 100.96 L989.7 100.7 L989.73 100.64 L989.75 100.57 L989.76 100.36 L989.78 100.27 L989.78 100.25 L989.78 100.23 L989.78 100.21 L989.79 100.2 L989.81 100.2 L989.83 100.19 L989.85 100.18 L989.83 100.13 L989.82 100.07 L989.82 100.02 L989.83 99.98 L989.85 99.92 L989.89 99.71 L989.9 99.56 L989.89 99.52 L989.87 99.49 L989.83 99.41 L989.79 99.17 L989.74 98.97 L989.71 98.87 L989.66 98.79 L989.45 98.57 L989.39 98.46 L989.14 98.17 L988.94 98.05 L988.78 97.97 L988.71 97.96 L988.59 97.96 L988.48 97.96 L988.26 97.88 L988.09 97.86 L988.01 97.84 L987.95 97.8 L987.65 97.52 L987.6 97.45 L987.43 97.19 L987.32 97.07 L987.18 96.99 L987.03 96.94 L986.55 96.86 L986.39 96.81 L986.01 96.52 L985.9 96.41 L985.82 96.27 L985.77 96.1 L985.75 95.93 L985.76 95.77 L985.8 95.59 L985.88 95.43 L986.01 95.33 L986.3 95.2 L987.02 94.75 L987.08 94.73 L987.45 94.76 L987.59 94.71 L987.71 94.62 L988.05 94.27 L988.09 94.19 L988.11 94.06 L988.14 93.97 L988.14 93.93 L988.14 93.82 L988.16 93.79 L988.16 93.78 L988.2 93.77 L988.18 93.7 L988.19 93.65 L988.21 93.6 L988.22 93.53 L988.23 92.91 L988.25 92.78 L988.35 92.55 L988.39 92.43 L988.41 92.29 L988.42 92.08 L988.45 91.95 L988.45 91.88 L988.44 91.81 L988.41 91.75 L988.4 91.69 L988.41 91.64 L988.46 91.66 L988.51 91.66 L988.56 91.65 L988.61 91.64 L988.61 91.68 L988.63 91.71 L988.64 91.74 L988.66 91.76 L988.68 91.76 L988.68 91.71 L988.72 91.74 L988.76 91.78 L988.8 91.81 L988.85 91.78 L988.83 91.77 L988.78 91.71 L988.85 91.68 L988.94 91.69 L989.02 91.68 L989.07 91.61 L989.01 91.61 L988.99 91.62 L988.97 91.64 L988.95 91.61 L988.96 91.54 L988.9 91.49 L988.82 91.46 L988.77 91.48 L988.75 91.52 L988.73 91.55 L988.72 91.58 L988.67 91.59 L988.64 91.56 L988.64 91.51 L988.65 91.46 L988.66 91.42 L988.69 91.38 L988.71 91.37 L988.74 91.36 L988.78 91.35 L988.86 91.25 L988.91 91.21 L988.91 91.14 L988.88 91.08 L988.82 91.08 L988.77 91.14 L988.75 91.22 L988.71 91.27 L988.63 91.21 L988.62 91.14 L988.64 90.81 L988.72 90.64 L988.85 90.59 L989.01 90.59 L989.16 90.57 L989.15 90.54 L989.13 90.51 L989.11 90.5 L989.08 90.49 L989.12 90.46 L989.15 90.42 L989.16 90.37 L989.14 90.32 L989.03 90.39 L989.01 90.41 L989 90.45 L988.99 90.47 L988.98 90.46 L988.96 90.45 L988.94 90.44 L988.86 90.48 L988.81 90.43 L988.63 89.73 L988.47 89.34 L988.44 89.18 L988.44 89.14 L988.46 89.1 L988.49 89.08 L988.58 89.06 L988.61 89.04 L988.64 88.97 L988.66 88.89 L988.7 88.82 L988.77 88.79 L988.77 88.78 L988.76 88.76 L988.73 88.74 L988.69 88.76 L988.66 88.78 L988.61 88.82 L988.59 88.84 L988.51 88.99 L988.47 89.01 L988.4 88.95 L988.36 88.89 L988.25 88.62 L988.22 88.51 L988.15 88.38 L988.14 88.35 L988.13 88.27 L988.01 88.05 L987.99 87.95 L988.03 87.95 L988.11 87.96 L988.23 87.93 L988.27 87.94 L988.29 87.97 L988.29 88.01 L988.26 88.05 L988.26 88.07 L988.4 88.35 L988.41 88.46 L988.45 88.55 L988.5 88.59 L988.53 88.51 L988.49 88.42 L988.49 88.36 L988.52 88.34 L988.6 88.35 L988.64 88.35 L988.68 88.31 L988.62 88.32 L988.48 88.29 L988.43 88.27 L988.47 88.25 L988.63 88.11 L988.65 88.12 L988.64 88.2 L988.76 88.06 L988.82 88 L988.89 88 L989 88.12 L989.04 88.14 L989.07 88.13 L989.08 88.09 L989.07 88.04 L989.05 88 L989.05 87.96 L988.91 87.9 L988.85 87.86 L988.81 87.87 L988.78 87.83 L988.76 87.76 L988.74 87.71 L988.67 87.79 L988.63 87.76 L988.62 87.68 L988.65 87.64 L988.69 87.63 L988.72 87.6 L988.75 87.57 L988.76 87.53 L988.58 87.5 L988.39 87.51 L988.29 87.53 L988.22 87.59 L988.2 87.63 L988.18 87.72 L988.16 87.76 L988.14 87.79 L988.11 87.8 L988.05 87.73 L988.01 87.8 L987.95 87.85 L987.88 87.87 L987.83 87.84 L987.79 87.78 L987.68 87.38 L987.62 87.05 L987.57 86.89 L987.42 86.63 L987.03 86.14 L986.95 85.98 L986.93 85.82 L986.94 85.78 L986.95 85.75 L986.98 85.73 L987.01 85.72 L986.98 85.82 L986.98 85.86 L986.99 85.91 L987.04 85.82 L987.06 85.78 L987.11 85.77 L987.14 85.8 L987.19 85.91 L987.24 85.96 L987.31 86.08 L987.35 86.11 L987.39 86.12 L987.42 86.15 L987.42 86.19 L987.38 86.22 L987.49 86.27 L987.52 86.27 L987.52 86.28 L987.49 86.3 L987.45 86.31 L987.41 86.32 L987.44 86.34 L987.45 86.37 L987.45 86.4 L987.43 86.44 L987.47 86.44 L987.49 86.45 L987.55 86.49 L987.55 86.46 L987.55 86.41 L987.55 86.39 L987.58 86.44 L987.61 86.52 L987.63 86.56 L987.66 86.49 L987.69 86.49 L987.7 86.45 L987.71 86.4 L987.72 86.34 L987.74 86.32 L987.78 86.28 L987.8 86.25 L987.76 86.26 L987.74 86.27 L987.72 86.2 L987.74 86.05 L987.72 86.01 L987.7 86.06 L987.68 86.03 L987.68 85.85 L987.68 85.84 L987.69 85.82 L987.74 85.77 L987.72 85.73 L987.68 85.69 L987.66 85.65 L987.67 85.62 L987.73 85.56 L987.73 85.54 L987.64 85.48 L987.62 85.49 L987.58 85.55 L987.54 85.58 L987.52 85.59 L987.35 85.61 L987.26 85.59 L987.2 85.53 L987.18 85.42 L987.22 85.44 L987.24 85.35 L987.27 85.35 L987.31 85.37 L987.36 85.39 L987.48 85.38 L987.53 85.36 L987.58 85.33 L987.62 85.28 L987.66 85.26 L987.74 85.22 L987.82 85.15 L987.84 85.14 L987.87 85.14 L987.89 85.13 L987.9 85.08 L987.88 85.07 L987.87 85.06 L987.87 85.06 L987.86 85.03 L987.83 85.06 L987.79 85.09 L987.75 85.1 L987.74 85.1 L987.71 85.1 L987.68 85.12 L987.62 85.18 L987.59 85.2 L987.57 85.16 L987.52 85.19 L987.46 85.24 L987.41 85.27 L987.34 85.26 L987.3 85.24 L987.28 85.22 L987.27 85.16 L987.29 85.15 L987.38 85.17 L987.42 85.22 L987.44 85.22 L987.46 85.13 L987.5 85.02 L987.57 84.94 L987.58 84.9 L987.59 84.87 L987.59 84.84 L987.61 84.79 L987.65 84.81 L987.69 84.81 L987.69 84.78 L987.66 84.72 L987.63 84.7 L987.53 84.67 L987.54 84.78 L987.5 84.9 L987.44 84.99 L987.36 85.03 L987.4 84.98 L987.41 84.96 L987.38 84.95 L987.35 84.96 L987.33 84.96 L987.32 84.92 L987.31 84.87 L987.29 84.86 L987.27 84.87 L987.24 84.87 L987.21 84.85 L987.19 84.85 L987.19 84.84 L987.18 84.79 L987.19 84.76 L987.2 84.72 L987.22 84.65 L987.18 84.65 L987.15 84.68 L987.09 84.75 L987.1 84.65 L987.06 84.65 L986.93 84.75 L986.96 84.78 L986.96 84.85 L987 84.87 L987.05 84.87 L987.09 84.87 L987.12 84.89 L987.15 84.94 L987.13 84.99 L987.13 85.02 L987.15 85.03 L987.17 85.03 L987.19 85.01 L987.21 84.97 L987.24 84.97 L987.27 85 L987.32 85.08 L987.22 85.11 L987.2 85.12 L987.19 85.15 L987.18 85.17 L987.15 85.17 L987.13 85.17 L987.1 85.16 L987.07 85.11 L987.04 85.1 L987.01 85.1 L986.99 85.09 L986.92 84.99 L986.9 84.93 L986.87 84.89 L986.82 84.84 L986.77 84.83 L986.63 84.83 L986.61 84.8 L986.59 84.77 L986.55 84.73 L986.5 84.69 L986.46 84.67 L986.42 84.65 L986.4 84.58 L986.4 84.45 L986.38 84.4 L986.3 84.31 L986.27 84.21 L986.23 84.17 L986.15 84.1 L986.25 84.01 L986.27 83.95 L986.26 83.87 L986.25 83.84 L986.22 83.81 L986.19 83.79 L986.17 83.79 L986.16 83.84 L986.18 83.87 L986.21 83.9 L986.22 83.91 L986.21 83.99 L986.1 84.05 L986.09 84.1 L986.23 84.31 L986.25 84.34 L986.31 84.38 L986.33 84.46 L986.35 84.55 L986.37 84.61 L986.39 84.64 L986.42 84.72 L986.44 84.76 L986.47 84.78 L986.51 84.79 L986.54 84.82 L986.56 84.88 L986.59 84.91 L986.62 84.93 L986.64 84.95 L986.79 85.19 L986.83 85.21 L986.87 85.2 L986.91 85.2 L986.93 85.25 L986.88 85.27 L986.9 85.32 L986.96 85.37 L986.99 85.45 L986.97 85.52 L986.91 85.57 L986.78 85.63 L986.65 85.63 L986.58 85.51 L986.49 85.17 L986.13 84.67 L986.03 84.47 L985.39 83.61 L984.76 82.76 L984.74 82.7 L984.77 82.64 L984.86 82.52 L984.88 82.46 L984.88 82.38 L984.9 82.3 L984.94 82.26 L985 82.28 L985.01 82.25 L985.01 82.24 L985.04 82.27 L985.07 82.31 L985.1 82.34 L985.14 82.35 L985.15 82.33 L985.14 82.21 L985.15 82.17 L985.22 82.28 L985.24 82.23 L985.24 82.16 L985.25 82.09 L985.3 82.05 L985.33 82.04 L985.35 82.06 L985.36 82.07 L985.4 82.05 L985.41 82.02 L985.43 81.95 L985.47 81.87 L985.37 81.9 L985.34 81.89 L985.34 81.85 L985.34 81.83 L985.32 81.81 L985.29 81.81 L985.28 81.83 L985.28 81.95 L985.25 81.9 L985.21 81.74 L985.16 81.79 L985.17 81.86 L985.2 81.92 L985.22 81.98 L985.21 82.04 L985.16 82.07 L985.11 82.07 L985.04 82.02 L985.01 82.02 L984.99 82.03 L985.02 82.1 L985 82.11 L984.97 82.12 L984.95 82.13 L984.92 82.15 L984.9 82.13 L984.87 82.08 L984.85 82.08 L984.82 82.1 L984.76 82.14 L984.79 82.19 L984.77 82.21 L984.73 82.23 L984.71 82.26 L984.71 82.28 L984.71 82.3 L984.72 82.31 L984.73 82.31 L984.72 82.56 L984.71 82.59 L984.68 82.6 L984.66 82.57 L984.42 82.24 L984.38 82.14 L984.4 82.09 L984.49 81.98 L984.48 81.98 L984.44 81.97 L984.42 81.98 L984.47 81.91 L984.5 81.88 L984.51 81.84 L984.43 81.85 L984.38 81.9 L984.35 81.98 L984.32 82.07 L984.29 82.05 L984.2 81.94 L984.19 81.91 L984.21 81.88 L984.31 81.81 L984.34 81.76 L984.3 81.75 L984.22 81.8 L984.17 81.81 L984.12 81.8 L984.08 81.76 L984.01 81.67 L983.9 81.55 L983.88 81.51 L983.89 81.44 L983.93 81.42 L983.98 81.43 L984.03 81.46 L984.12 81.33 L984.18 81.17 L984.19 81 L984.15 80.83 L984.06 80.61 L984.02 80.56 L983.85 80.38 L983.8 80.31 L983.72 80.09 L983.68 80.05 L983.63 80.03 L983.06 79.27 L982.95 79.17 L982.71 79.03 L982.74 79 L982.76 78.97 L982.78 78.91 L982.78 78.88 L982.78 78.83 L982.79 78.8 L982.83 78.83 L982.9 78.86 L983.06 78.87 L983.13 78.91 L983.17 78.87 L983.26 78.85 L983.34 78.8 L983.66 78.82 L983.71 78.82 L983.74 78.79 L983.77 78.76 L983.8 78.75 L983.84 78.79 L983.76 78.85 L983.74 78.91 L983.75 79.1 L983.74 79.14 L983.73 79.17 L983.7 79.19 L983.66 79.19 L983.65 79.17 L983.63 79.13 L983.61 79.09 L983.57 79.07 L983.58 79.06 L983.59 79.02 L983.59 79 L983.54 78.98 L983.52 78.99 L983.5 79.07 L983.49 79.15 L983.47 79.17 L983.42 79.14 L983.42 79.17 L983.41 79.2 L983.39 79.22 L983.36 79.24 L983.39 79.27 L983.48 79.33 L983.49 79.29 L983.5 79.26 L983.52 79.24 L983.55 79.24 L983.54 79.29 L983.53 79.31 L983.52 79.33 L983.55 79.35 L983.57 79.36 L983.6 79.34 L983.61 79.3 L983.63 79.35 L983.63 79.39 L983.63 79.59 L983.64 79.61 L983.67 79.59 L983.7 79.51 L983.71 79.41 L983.69 79.31 L983.65 79.24 L983.72 79.27 L983.76 79.44 L983.79 79.64 L983.82 79.77 L983.91 79.88 L984.03 79.98 L984.12 80.1 L984.15 80.24 L984.01 80.08 L983.96 80.03 L983.97 80.15 L984.08 80.27 L984.46 80.49 L984.45 80.53 L984.39 80.6 L984.37 80.63 L984.36 80.67 L984.36 80.81 L984.37 80.83 L984.39 80.82 L984.42 80.83 L984.51 80.85 L984.53 80.85 L984.55 80.82 L984.56 80.78 L984.58 80.75 L984.62 80.73 L984.65 80.69 L984.65 80.59 L984.61 80.43 L984.62 80.35 L984.68 80.33 L984.75 80.32 L984.81 80.28 L984.83 80.23 L984.82 80.19 L984.81 80.16 L984.81 80.13 L984.84 80.1 L984.87 80.1 L984.88 80.13 L984.9 80.17 L984.9 80.2 L984.9 80.23 L984.88 80.29 L984.96 80.24 L985 80.24 L984.98 80.27 L984.99 80.3 L985.03 80.36 L984.92 80.4 L984.8 80.4 L984.77 80.42 L984.75 80.47 L984.77 80.53 L984.8 80.6 L984.82 80.64 L984.86 80.69 L984.91 80.74 L984.96 80.77 L985.02 80.78 L985.16 80.76 L985.21 80.78 L985.26 80.85 L985.3 80.8 L985.3 80.78 L985.27 80.74 L985.24 80.71 L985.21 80.67 L985.21 80.61 L985.23 80.55 L985.27 80.55 L985.31 80.59 L985.34 80.64 L985.37 80.6 L985.41 80.6 L985.44 80.62 L985.47 80.69 L985.51 80.71 L985.6 80.71 L985.61 80.7 L985.61 80.69 L985.63 80.67 L985.65 80.66 L985.67 80.67 L985.68 80.69 L985.68 80.71 L985.68 80.73 L985.7 80.75 L985.71 80.78 L985.72 80.8 L985.74 80.8 L985.76 80.8 L985.78 80.81 L985.82 80.83 L985.78 80.85 L985.77 80.88 L985.76 80.91 L985.74 80.94 L985.68 80.99 L985.65 81.02 L985.66 81.05 L985.75 81.13 L985.81 81.13 L985.82 81.11 L985.82 81.09 L985.82 81.06 L985.88 80.94 L985.88 80.92 L985.87 80.87 L985.88 80.85 L985.9 80.83 L985.94 80.83 L985.99 80.8 L986.04 80.8 L986.12 80.8 L986.11 80.82 L986.13 80.86 L986.18 80.92 L986.3 81.01 L986.34 81.06 L986.36 81.14 L986.4 81.21 L986.48 81.22 L986.65 81.2 L986.71 81.22 L986.78 81.27 L986.84 81.34 L986.86 81.42 L986.74 81.46 L986.71 81.45 L986.7 81.42 L986.7 81.38 L986.69 81.34 L986.67 81.35 L986.65 81.37 L986.62 81.37 L986.59 81.32 L986.52 81.36 L986.49 81.38 L986.52 81.4 L986.57 81.48 L986.47 81.5 L986.47 81.54 L986.51 81.58 L986.57 81.55 L986.6 81.57 L986.63 81.58 L986.66 81.57 L986.69 81.55 L986.72 81.61 L986.71 81.65 L986.69 81.7 L986.69 81.74 L986.7 81.78 L986.81 81.89 L986.82 81.92 L986.83 81.97 L986.84 82.06 L986.85 82.07 L986.87 82.03 L986.89 81.98 L986.89 81.93 L986.95 81.96 L986.98 81.97 L987.01 81.98 L987.01 81.96 L987 81.92 L986.99 81.91 L987.03 81.9 L987.06 81.92 L987.07 81.94 L987.1 81.95 L987.12 81.94 L987.13 81.91 L987.12 81.87 L987.1 81.86 L987.03 81.85 L986.95 81.83 L986.89 81.79 L986.86 81.74 L986.88 81.76 L986.92 81.72 L986.98 81.72 L987.13 81.74 L987.11 81.71 L987.11 81.69 L987.13 81.69 L987.17 81.7 L987.2 81.71 L987.2 81.72 L987.23 81.7 L987.24 81.69 L987.24 81.67 L987.25 81.64 L987.33 81.55 L987.41 81.48 L987.44 81.57 L987.41 81.64 L987.37 81.71 L987.36 81.79 L987.38 81.87 L987.42 81.9 L987.49 81.91 L987.55 81.91 L987.55 81.93 L987.52 81.98 L987.61 82.08 L987.57 82.12 L987.55 82.11 L987.47 82.02 L987.38 81.96 L987.36 81.93 L987.4 82 L987.51 82.24 L987.57 82.28 L987.63 82.29 L987.68 82.31 L987.68 82.3 L987.68 82.29 L987.69 82.28 L987.7 82.28 L987.71 82.3 L987.72 82.33 L987.73 82.33 L987.75 82.36 L987.82 82.48 L987.84 82.52 L987.73 82.54 L987.74 82.58 L987.88 82.7 L988.02 82.84 L988.05 82.92 L988.01 83.04 L987.97 83.02 L987.84 82.99 L987.79 82.99 L987.76 83.01 L987.81 83.05 L987.91 83.11 L987.9 83.11 L987.86 83.13 L987.93 83.15 L987.96 83.16 L987.97 83.19 L987.96 83.23 L987.94 83.25 L987.9 83.27 L987.87 83.28 L988.04 83.38 L988.07 83.42 L988.07 83.46 L988.05 83.54 L988.06 83.57 L988.12 83.7 L988.05 83.72 L987.99 83.69 L987.94 83.63 L987.87 83.59 L987.89 83.52 L987.81 83.5 L987.82 83.44 L987.77 83.45 L987.7 83.48 L987.66 83.49 L987.64 83.48 L987.61 83.45 L987.6 83.44 L987.58 83.45 L987.56 83.5 L987.55 83.51 L987.5 83.51 L987.5 83.51 L987.51 83.48 L987.51 83.42 L987.5 83.37 L987.49 83.33 L987.46 83.29 L987.43 83.25 L987.42 83.33 L987.43 83.51 L987.42 83.57 L987.41 83.61 L987.4 83.65 L987.41 83.7 L987.43 83.72 L987.48 83.73 L987.5 83.7 L987.52 83.66 L987.54 83.62 L987.59 83.61 L987.78 83.63 L987.84 83.65 L987.88 83.71 L987.87 83.78 L987.82 83.85 L987.76 83.91 L987.81 83.96 L987.82 84.05 L987.81 84.14 L987.82 84.2 L987.85 84.24 L987.98 84.34 L988.03 84.37 L988.06 84.37 L988.13 84.37 L988.16 84.39 L988.19 84.43 L988.19 84.47 L988.17 84.5 L988.16 84.53 L988.18 84.62 L988.21 84.66 L988.25 84.69 L988.3 84.75 L988.46 84.99 L988.55 85.09 L988.66 85.17 L988.73 85.2 L988.74 85.22 L988.72 85.27 L988.72 85.28 L988.73 85.28 L988.74 85.29 L988.73 85.31 L988.72 85.31 L988.71 85.31 L988.7 85.3 L988.7 85.29 L988.69 85.31 L988.68 85.3 L988.67 85.3 L988.66 85.34 L988.68 85.41 L988.75 85.43 L988.82 85.44 L988.89 85.46 L988.81 85.48 L988.58 85.47 L988.53 85.47 L988.54 85.52 L988.57 85.67 L988.62 85.76 L988.63 85.82 L988.62 85.88 L988.61 85.94 L988.55 85.77 L988.51 85.7 L988.43 85.67 L988.48 85.83 L988.48 85.89 L988.41 85.89 L988.41 85.91 L988.44 85.92 L988.47 85.94 L988.49 85.96 L988.51 85.98 L988.49 86.02 L988.43 86.06 L988.41 86.08 L988.41 86.13 L988.44 86.19 L988.45 86.24 L988.45 86.31 L988.46 86.32 L988.5 86.36 L988.53 86.37 L988.57 86.39 L988.64 86.39 L988.76 86.34 L988.8 86.34 L988.83 86.37 L988.81 86.39 L988.68 86.46 L988.61 86.49 L988.57 86.48 L988.45 86.44 L988.51 86.5 L988.55 86.59 L988.72 87.11 L988.66 87.09 L988.62 87.06 L988.58 87.05 L988.51 87.09 L988.49 87.07 L988.48 87.05 L988.48 87.02 L988.49 86.99 L988.44 86.98 L988.4 86.88 L988.36 86.88 L988.26 86.93 L988.21 86.96 L988.16 87.02 L988.16 87.04 L988.19 87.04 L988.29 87.03 L988.34 87.04 L988.31 87.07 L988.27 87.09 L988.24 87.12 L988.26 87.15 L988.3 87.17 L988.32 87.19 L988.31 87.21 L988.32 87.36 L988.33 87.4 L988.37 87.42 L988.39 87.41 L988.39 87.36 L988.39 87.32 L988.39 87.28 L988.41 87.31 L988.44 87.27 L988.46 87.23 L988.49 87.21 L988.53 87.19 L988.57 87.18 L988.7 87.21 L988.88 87.21 L988.94 87.25 L988.93 87.35 L988.9 87.4 L988.87 87.42 L988.86 87.45 L988.87 87.52 L988.89 87.56 L988.9 87.59 L988.92 87.58 L988.95 87.54 L989.03 87.16 L989.05 87.16 L989.11 87.32 L989.13 87.4 L989.12 87.5 L989.19 87.48 L989.26 87.48 L989.29 87.45 L989.25 87.36 L989.24 87.31 L989.3 87.29 L989.39 87.3 L989.45 87.32 L989.48 87.4 L989.45 87.56 L989.49 87.63 L989.53 87.64 L989.57 87.62 L989.6 87.6 L989.64 87.59 L989.71 87.54 L989.73 87.55 L989.74 87.56 L989.76 87.57 L989.85 87.52 L989.87 87.52 L989.9 87.53 L989.96 87.58 L990 87.59 L990.02 87.6 L990.12 87.73 L990.14 87.76 L990.15 87.8 L990.16 87.86 L990.16 87.94 L990.12 88.18 L990.14 88.26 L990.17 88.34 L990.21 88.4 L990.26 88.46 L990.36 88.52 L990.48 88.52 L990.61 88.49 L990.72 88.43 L990.74 88.41 L990.75 88.39 L990.76 88.37 L990.8 88.36 L990.83 88.38 L990.84 88.42 L990.83 88.49 L990.85 88.56 L990.89 88.61 L990.94 88.61 L990.99 88.58 L990.94 88.57 L990.91 88.53 L990.9 88.48 L990.88 88.37 L990.86 88.27 L990.85 88.23 L990.8 88.12 L990.8 88.07 L990.8 87.89 L990.78 87.84 L990.77 87.81 L990.71 87.6 L990.69 87.56 L990.66 87.52 L990.63 87.48 L990.55 87.43 L990.53 87.4 L990.51 87.36 L990.5 87.32 L990.48 87.29 L990.45 87.26 L990.51 87.23 L990.58 87.25 L990.64 87.24 L990.68 87.19 L990.59 87.19 L990.54 87.18 L990.5 87.16 L990.54 87.15 L990.57 87.14 L990.6 87.12 L990.62 87.09 L990.6 87.09 L990.58 87.08 L990.56 87.07 L990.54 87.06 L990.69 87.02 L990.73 86.98 L990.72 86.89 L990.67 86.93 L990.66 86.94 L990.64 86.91 L990.63 86.87 L990.62 86.84 L990.64 86.8 L990.58 86.7 L990.6 86.6 L990.63 86.52 L990.62 86.44 L990.6 86.43 L990.57 86.42 L990.54 86.41 L990.53 86.38 L990.52 86.37 L990.47 86.3 L990.42 86.27 L990.31 86.23 L990.27 86.19 L990.24 86.14 L990.23 86.08 L990.22 85.95 L990.24 85.9 L990.3 85.9 L990.37 85.91 L990.46 85.89 L990.48 85.91 L990.49 85.94 L990.51 85.97 L990.52 86 L990.53 86.01 L990.54 86.02 L990.56 86.03 L990.62 86.09 L990.65 86.09 L990.72 86.01 L990.77 86.07 L990.8 86.16 L990.8 86.25 L990.74 86.32 L990.79 86.37 L990.86 86.37 L990.91 86.38 L990.93 86.48 L990.94 86.57 L990.93 86.61 L990.9 86.6 L990.86 86.57 L990.84 86.57 L990.83 86.6 L990.84 86.64 L990.88 86.66 L990.96 86.65 L990.99 86.66 L991 86.69 L991 86.73 L990.98 86.77 L990.97 86.8 L990.99 86.9 L991.03 86.91 L991.14 86.82 L991.1 86.8 L991.08 86.8 L991.1 86.77 L991.14 86.76 L991.18 86.76 L991.21 86.79 L991.24 86.8 L991.28 86.78 L991.35 86.73 L991.4 86.71 L991.44 86.71 L991.48 86.72 L991.52 86.76 L991.55 86.77 L991.58 86.75 L991.61 86.74 L991.62 86.8 L991.6 86.85 L991.58 86.86 L991.5 86.85 L991.48 86.87 L991.43 86.97 L991.39 86.99 L991.32 87.02 L991.28 87.05 L991.24 87.11 L991.2 87.19 L991.23 87.21 L991.23 87.24 L991.22 87.26 L991.23 87.29 L991.26 87.32 L991.29 87.35 L991.31 87.34 L991.31 87.31 L991.36 87.27 L991.33 87.16 L991.37 87.11 L991.43 87.14 L991.55 87.12 L991.61 87.17 L991.62 87.21 L991.62 87.3 L991.63 87.34 L991.67 87.4 L991.69 87.42 L991.7 87.47 L991.72 87.64 L991.71 87.75 L991.71 87.77 L991.71 87.8 L991.69 87.84 L991.67 87.88 L991.66 87.92 L991.67 87.94 L991.7 87.92 L991.74 87.88 L991.75 87.86 L991.8 87.92 L991.79 88.01 L991.75 88.1 L991.71 88.18 L991.7 88.21 L991.73 88.22 L991.77 88.23 L991.79 88.24 L991.8 88.29 L991.8 88.39 L991.81 88.43 L991.79 88.41 L991.76 88.39 L991.75 88.35 L991.74 88.31 L991.72 88.31 L991.73 88.4 L991.75 88.48 L991.75 88.54 L991.72 88.58 L991.81 88.63 L991.84 88.66 L991.87 88.72 L991.9 88.86 L991.91 89 L991.92 89.06 L991.97 89.17 L991.98 89.22 L991.99 89.24 L992.03 89.28 L992.04 89.3 L992.04 89.35 L992.03 89.34 L992.01 89.32 L991.98 89.33 L991.96 89.38 L991.99 89.41 L992.1 89.43 L992.15 89.45 L992.2 89.48 L992.24 89.52 L992.28 89.56 L992.31 89.6 L992.36 89.71 L992.38 89.75 L992.46 89.83 L992.49 89.87 L992.5 89.93 L992.4 89.85 L992.37 89.84 L992.33 89.83 L992.28 89.84 L992.24 89.83 L992.2 89.79 L992.22 89.77 L992.31 89.74 L992.21 89.67 L992.17 89.63 L992.13 89.58 L992.07 89.55 L992 89.54 L991.87 89.57 L991.89 89.59 L991.91 89.63 L991.93 89.64 L991.92 89.66 L991.91 89.69 L991.9 89.71 L991.91 89.74 L991.93 89.77 L991.94 89.77 L991.96 89.76 L991.97 89.76 L991.98 89.77 L992.01 89.78 L992.02 89.79 L992.03 89.81 L992.02 89.83 L992.01 89.85 L992 89.86 L992.02 89.94 L992.02 89.96 L992.04 89.97 L992.05 89.98 L992.1 89.98 L992.12 89.97 L992.14 89.96 L992.15 89.94 L992.16 89.93 L992.21 89.96 L992.23 90 L992.25 90.05 L992.27 90.1 L992.32 90.07 L992.35 90.09 L992.37 90.13 L992.4 90.15 L992.44 90.13 L992.45 90.1 L992.47 90.07 L992.52 90.08 L992.56 90.1 L992.58 90.13 L992.58 90.18 L992.58 90.24 L992.59 90.27 L992.63 90.27 L992.67 90.25 L992.72 90.25 L992.68 90.08 L992.61 89.97 L992.6 89.92 L992.64 89.91 L992.69 89.96 L992.79 90.14 L992.86 90.18 L992.94 90.2 L993.11 90.28 L993.19 90.3 L993.22 90.31 L993.29 90.38 L993.32 90.39 L993.4 90.39 L993.42 90.41 L993.43 90.43 L993.45 90.44 L993.48 90.42 L994.04 90.83 L994.16 90.88 L994.33 90.91 L994.5 90.98 L994.69 91.01 L994.85 91.1 L995.11 91.14 L995.21 91.2 L995.05 91.2 L995.02 91.21 L995.03 91.23 L995.16 91.32 L995.2 91.34 L995.24 91.35 L995.28 91.33 L995.28 91.28 L995.27 91.24 L995.25 91.2 L995.3 91.19 L995.32 91.2 L995.35 91.23 L995.38 91.25 L995.57 91.25 L995.57 91.25 L995.61 91.31 L995.62 91.32 L995.63 91.31 L995.65 91.3 L995.66 91.3 L995.67 91.28 L995.67 91.26 L995.67 91.23 L995.69 91.22 L995.72 91.22 L995.81 91.2 L996.06 91.18 L996.13 91.14 L996.18 91.09 L996.39 90.96 L996.48 90.88 L996.51 90.84 L996.52 90.81 L996.52 90.72 L996.57 90.64 L996.57 90.6 L996.59 90.58 L996.71 90.51 L996.75 90.45 L996.78 90.32 L996.82 90.26 L996.86 90.21 L996.87 90.18 L996.88 90.14 L996.9 90.11 L997.18 90.03 L997.24 90.03 L997.29 90.01 L997.33 89.97 L997.39 89.87 L997.44 89.85 L997.56 89.83 L997.61 89.81 L997.65 89.77 L997.66 89.74 L997.65 89.7 L997.61 89.64 L997.72 89.67 L998.41 89.7 L998.48 89.72 L998.51 89.75 L998.48 89.79 L998.48 89.81 L998.51 89.83 L998.56 89.88 L998.59 89.91 L998.64 89.93 L998.69 89.93 L998.78 89.93 L998.82 89.94 L998.87 89.99 L998.91 90 L999 90 L999.03 90.01 L999.07 90.03 L999.12 90.06 L999.18 90.13 L999.22 90.2 L999.22 90.26 L999.19 90.29 L999.14 90.38 L999.03 90.49 L998.98 90.66 L998.94 90.75 L998.84 90.82 L998.8 90.89 L998.72 91.12 L998.69 91.17 L998.64 91.23 L998.62 91.27 L998.61 91.31 L998.63 91.39 L998.67 91.46 L998.7 91.54 L998.69 91.64 L998.64 91.68 L998.59 91.73 L998.56 91.78 L998.63 91.93 L998.62 92 L998.59 92.07 L998.54 92.14 L998.53 92.21 L998.57 92.28 L998.62 92.34 L998.65 92.39 L998.64 92.43 L998.62 92.47 L998.57 92.51 L998.56 92.56 L998.55 92.64 L998.53 92.69 L998.57 92.7 L998.6 92.72 L998.61 92.76 L998.61 92.81 L998.59 92.84 L998.49 92.9 L998.47 92.93 L998.48 93.16 L998.46 93.19 L998.14 93.54 L997.86 93.8 L997.81 93.82 L997.7 93.72 L997.63 93.7 L997.56 93.72 L997.5 93.77 L997.47 93.78 L997.46 93.77 L997.45 93.77 L997.44 93.82 L997.44 93.83 L997.45 93.87 L997.46 93.89 L997.51 93.94 L997.53 93.98 L997.53 94.03 L997.48 94.12 L997.46 94.2 L997.46 94.38 L997.43 94.6 L997.39 94.7 L997.38 94.84 L997.36 94.9 L997.39 94.97 L997.36 95.03 L997.33 95.08 L997.31 95.15 L997.5 95.17 L997.59 95.22 L997.63 95.31 L997.48 95.47 L997.41 95.65 L997.39 95.77 L997.35 95.81 L997.31 95.85 L997.27 95.89 L997.19 95.67 L997.17 95.55 L997.17 95.45 L997.19 95.39 L997.21 95.33 L997.23 95.28 L997.26 95.24 L997.26 95.2 L997.22 95.17 L997.17 95.17 L997.13 95.23 L997.1 95.21 L997.02 95.15 L996.97 95.14 L996.53 95.12 L996.08 95.1 L996.04 95.09 L996.02 95.06 L995.99 95.06 L995.92 95.12 L995.4 95.38 L995.01 95.56 L994.98 95.61 L994.97 95.69 L994.94 95.77 L994.9 95.84 L994.83 95.93 L994.73 96.04 L994.67 96.09 L994.66 96.1 L994.63 96.2 L994.59 96.25 L994.57 96.29 L994.56 96.34 L994.56 96.4 L994.57 96.46 L994.59 96.5 L994.63 96.52 L994.66 96.56 L994.68 96.64 L994.69 96.97 Z "/>
</g>
</svg>
