<svg xmlns="http://www.w3.org/2000/svg" viewBox="0 0 1000 422.81">
<g fill="#ccc" stroke="#333" stroke-width="0.5" stroke-linejoin="round">
<path fill-rule="evenodd" d="M47.8 58.31 L47.92 59.68 L47.83 60.94 L47.51 62.13 L46.9 63.2 L46.02 61.23 L44.08 61.9 L42.88 60.85 L41.61 57.48 L41.61 56.43 L42.49 55.33 L43.22 52.06 L44.25 51.75 L45.47 52.87 L46.5 56.63 Z M505.34 408.64 L506.7 411.09 L508.4 412.65 L509.7 414.61 L509.76 418.29 L508.18 417.12 L506.62 413.68 L505.34 413.42 L504.71 414.48 L504.77 416.28 L505.34 419.73 L503.57 422.81 L499.49 422.3 L492.1 419.25 L492.79 415.74 L492.85 407.53 L493.86 404.81 L496.18 404.21 L499.63 404.97 L503.06 406.59 Z M412.27 384.73 L413.95 384.2 L415.33 384.28 L416.48 385.09 L417.64 386.64 L417.66 388.3 L417.29 389.26 L416.66 389.37 L415.79 388.46 L414.8 389.28 L414.08 389.76 L412.27 390.47 L412.27 391.32 L414.76 391.72 L414.48 392.7 L413.09 393.61 L412.27 393.72 L411.32 393.36 L409.49 392.95 L408.26 391.97 L409.15 389.99 L410.12 388.35 L410.28 387.01 L410.67 385.82 Z M585.11 249.84 L585.98 252.75 L585.92 257.75 L584.98 263.12 L583.34 267.02 L584.02 273.42 L583.73 276.33 L582.09 277.56 L580.51 277.83 L575.63 279.22 L571.9 281.37 L566.41 280.89 L561.91 278.59 L562.14 274.71 L559.42 273.47 L556.01 272.63 L552.54 272.6 L549.67 273.75 L549.36 273.33 L549.1 272.87 L548.91 272.38 L548.79 271.78 L550.17 270.84 L551.78 269.44 L553.02 267.53 L553.29 265.12 L552.62 263.98 L549.71 260.81 L548.79 259.43 L548.02 256.94 L547.64 253.24 L547.12 250.87 L546.11 248.57 L542.53 243.19 L544.42 242.23 L546.09 241.85 L547.76 241.92 L549.67 242.25 L552.98 243.84 L555.02 244.41 L557.25 242.39 L565.74 236.48 L566.08 238.3 L563.69 241.98 L563 244.63 L563.69 246.98 L565.2 249.5 L566.97 251.62 L568.31 252.77 L572.33 253.72 L576.96 253.17 L581.45 251.68 Z M363.51 151.12 L364.55 150.99 L367.85 151.12 L367.19 152.37 L365.91 153 L362.63 153.96 L361.91 153.22 L361.24 152.73 L360.36 152.37 L359.1 152.06 L360.08 151.4 L361.11 151.08 L362.25 150.99 Z M493.86 193.75 L495.48 195.01 L497.38 196.96 L498.05 198.73 L493.8 200.29 L492.95 202.26 L492.98 207.57 L492.7 210.37 L491.88 212.11 L490.47 213.35 L488.49 214.68 L486.3 213.73 L483.35 213.73 L480.76 212.67 L479.64 208.52 L478.68 207.87 L476.56 207.57 L474.42 207.03 L473.46 205.67 L473.24 203.35 L472.55 202.59 L460.7 201.3 L456.86 200.03 L453.47 197.1 L450.4 193.75 L450.07 192.78 L449.86 191.52 L449.36 190.44 L446.64 189.4 L445.88 188 L445.95 186.17 L446.8 184.3 L441.61 179.57 L440.62 177.67 L448.56 178.29 L451.21 177.67 L453.65 176.26 L455.19 174.67 L457.48 170.95 L461.36 166.33 L462.63 163.59 L461.9 160.57 L460.29 159.63 L453.47 156.69 L443.67 157.81 L443.42 156.47 L444.01 153.52 L445.54 150.58 L448.16 149.23 L452.56 148.52 L453.47 148.75 L454.35 149.56 L455.3 149.98 L456.43 150.16 L457.89 150.17 L459.18 149.77 L460.16 148.72 L460.79 147.34 L461.02 145.88 L465.43 144.51 L475.16 149.96 L476.91 150.17 L477.81 152.64 L476.8 155.03 L475.18 157.44 L474.35 160.05 L474.44 161.69 L475.23 165.3 L476.91 169.08 L476.42 170.82 L474.72 173.59 L474.35 175.26 L474.76 176.3 L475.77 176.84 L477.06 177.31 L478.33 178.1 L479.65 179.34 L480.76 180.13 L484.08 181.37 L485.59 181.53 L486.86 181.46 L487.81 181.82 L488.49 183.35 L488.95 184.04 L489.73 185.46 L490.33 186.08 L488.89 188.51 L488.44 189.83 L488.49 191 L489.57 192.57 L490.95 193.12 L492.45 193.3 Z M390.98 110.37 L392.41 111.43 L395.65 113.22 L396.28 114.14 L395.72 115.69 L394.33 116.21 L390.49 116.02 L388.85 116.48 L387.63 117.57 L386.9 118.98 L386.65 120.33 L386.28 120.71 L384.31 125.97 L383.48 127.57 L383.4 129.68 L383.84 133.56 L384.56 134.52 L386.28 134.56 L390.01 134.03 L385.06 143.54 L382.95 146.31 L380.93 147.68 L378.05 149.01 L374.97 149.96 L372.43 150.17 L371.39 149.23 L370.59 148.28 L372.59 147.46 L374.38 146.09 L377.65 142.62 L379.79 139.67 L380.76 137.92 L381.16 135.45 L380.93 127.03 L381.63 125.07 L383.12 123.1 L384.72 120.39 L386.02 117.5 L386.65 115 L386.08 112.38 L383.62 108.94 L382.47 107.73 L381.92 107.92 L381.16 108.4 L381.47 107.18 L382.87 105.85 L384.81 104.9 L386.65 104.63 L388.23 105.45 L389.21 107 L390 108.81 Z M442.38 362.15 L442.03 363.44 L441.23 363.64 L440.29 363.69 L439.66 364.58 L439.97 365.47 L440.79 366.46 L441.43 367.6 L441.02 368.88 L440.58 369.8 L439.66 373.18 L438.68 375.06 L438.02 376.03 L437.07 377.1 L436.83 376.43 L436.44 375.8 L435.68 376.15 L435.02 376.84 L433.47 377.51 L432.85 378 L432.99 378.71 L433.54 379.94 L429.46 383.27 L427.01 384.27 L423.81 383.77 L426.49 382.79 L427.53 382.1 L428.26 380.81 L426.25 380.87 L425.38 381.15 L424.37 379.98 L423.66 378.17 L422.6 376.16 L422.06 375.61 L421.65 373.98 L420.83 374.99 L420.04 376.92 L419.81 377.96 L418.75 377.39 L418.06 376.08 L417.45 374.51 L416.67 373.18 L417.24 373.01 L418.44 372.32 L417.26 370.61 L416.1 371.02 L415.24 372.89 L414.76 376.92 L414.52 377.62 L414.48 378.4 L414.92 379.94 L415.28 380.13 L417.64 381.86 L416.22 382.2 L414.44 381.89 L412.9 381.41 L412.27 381.34 L411.92 382.06 L411.1 382.86 L410.08 383.5 L409.15 383.77 L405.91 383.02 L404.18 381.29 L404.35 379.35 L406.87 377.96 L406.87 377.1 L404.53 377.35 L401.69 377.03 L399.89 375.75 L400.69 373.18 L399.82 372.32 L397.89 373.01 L394.89 371.91 L392.18 369.88 L390.98 367.92 L390.41 367.67 L387.46 368.98 L386.11 369.36 L385.08 369.11 L381.84 367.7 L380.72 366.97 L380.27 365.6 L381.14 364.82 L381.72 364 L380.28 362.6 L379.12 362.17 L375.33 361.61 L374.02 361.73 L372.59 363.78 L371.71 366.9 L370.42 369.11 L367.85 368.4 L367.82 368.97 L367.76 369.22 L367.54 369.31 L367.05 369.36 L368.06 371.97 L366.74 372.64 L365.03 372.02 L364.78 370.79 L365.16 369.58 L365.37 366.03 L366.24 364.58 L366.24 363.64 L364.35 363.76 L362.63 363.3 L361.15 362.28 L359.98 360.66 L364.17 360.85 L365.99 360.32 L367.05 358.87 L364.71 358.73 L363.93 357.51 L364.4 353.04 L363.11 353.15 L360.31 352.68 L359.1 353.04 L358.67 353.86 L358.12 356.41 L357.76 356.96 L356.13 357.21 L355.5 357.91 L355.12 358.95 L354.24 360.24 L353.04 360.76 L352.44 359.9 L352.65 358.4 L353.79 356.96 L352.47 356.14 L349.3 353.04 L349.3 352.18 L350.13 351.71 L350.56 351.2 L350.81 350.42 L350.98 349.22 L350.18 349.22 L348.9 350.59 L345.52 349.84 L345.76 351.13 L343.3 352.13 L341.15 351.32 L339.08 350.18 L336.83 350.18 L336.72 347.52 L335.54 345.43 L333.8 344.02 L331.99 343.52 L330.38 342.61 L328.9 341.08 L327.32 340.79 L325.36 343.52 L323.96 342.68 L322.61 341.61 L323.21 340.88 L323.52 340.13 L323.6 339.13 L323.59 337.7 L324.4 337.7 L325.49 338.96 L326.91 339.57 L327.98 339.03 L328.02 336.83 L327.23 335.48 L324.7 334.36 L323.59 332.95 L327.12 332.97 L328.58 333.27 L329.78 333.88 L329.66 332.42 L329.09 331.54 L328.09 331.13 L326.69 331.04 L326.02 330.18 L326.24 328.36 L326.76 326.69 L327.13 326.27 L326.09 323.16 L324.45 321.84 L319.98 320.46 L318.41 321.43 L317.58 321.04 L317.75 319.89 L319.17 318.55 L317.81 317.89 L316.86 316.85 L316.38 315.49 L316.44 313.81 L314.42 315.12 L313.68 316.42 L313.8 319.98 L313.2 320.83 L311.83 320.82 L310.33 320.53 L309.38 320.46 L309.87 321.14 L309.77 322.82 L308.93 323.95 L307.16 322.89 L305.3 320.29 L304.12 319.06 L300.1 317.51 L297.43 312.93 L295.57 311.9 L294.69 311.65 L293.71 311.04 L292.06 309.6 L291.27 309.15 L290.61 309.4 L289.92 309.9 L289.06 310.07 L285.3 310 L284.05 309.26 L283.76 307.13 L286.47 308.36 L285.61 306.98 L281.99 303.41 L281.99 302.32 L282.53 301.03 L282.68 299.99 L281.51 299.52 L280.15 299.85 L279.62 300.69 L279.68 301.94 L280.15 303.41 L277.98 302.65 L277.54 301.08 L277.72 299.01 L277.41 296.74 L276.32 295.34 L274.97 294.16 L273.96 292.58 L273.96 289.92 L272.98 289.92 L271.94 292.11 L270.59 293.89 L268.91 295.16 L266.82 295.71 L266.93 292.86 L266.79 291.26 L265.81 290.68 L263.35 290.88 L263.26 291.19 L263.32 291.85 L263.16 292.52 L262.38 292.86 L261.67 292.75 L244.41 284.12 L240.44 280.45 L241.99 277.56 L241.99 276.53 L240.14 277.21 L239.05 276.84 L239.24 276.1 L241.11 275.59 L239.05 274.02 L236.91 274.53 L234.75 275.82 L232.62 276.53 L230.37 276.1 L216.75 270 L214.97 268.53 L213.91 266.65 L212.71 262.27 L212.36 261.42 L209.92 261.13 L208.31 260.31 L204.71 257.53 L203.67 257.24 L202.5 257.21 L201.58 256.96 L201.2 256.06 L199.44 254.06 L199.03 253.72 L194.2 245.1 L193.97 243.8 L194.39 243.11 L194.46 242.48 L193.57 241.69 L193.25 241.4 L192.35 241.42 L191.19 241.87 L190.39 242.31 L190.5 242.25 L190.05 244.22 L188.92 244.88 L187.75 244.2 L187.13 242.25 L186.16 243.11 L185.16 243.8 L184.02 243.95 L182.57 243.19 L185 240.51 L184.71 238.21 L182.68 236.96 L179.84 237.51 L180.92 235.43 L180.32 234.03 L177.25 231.81 L176.09 233.68 L176.49 236.61 L175.49 238.46 L174.1 239.31 L172.84 239 L171.79 237.96 L171.07 236.48 L171.58 235.38 L171.67 234.18 L172.09 232.98 L172.84 231.81 L171.86 230.61 L170.94 230.32 L169.96 230.17 L168.83 229.46 L168.1 228.58 L167.21 226.99 L157.66 215.32 L157.03 213.42 L156.84 210.45 L156.93 208.27 L156.76 205.81 L155.73 204.34 L153.25 205.2 L153.41 203.39 L153.62 202.96 L154.2 202.35 L154.2 201.31 L153.35 201.3 L152.73 201.09 L151.48 200.48 L152.24 199.41 L152.08 198.83 L151.17 198.83 L149.71 199.53 L149.4 201.13 L147.93 201.34 L146.74 200.28 L146.25 198.11 L145.43 198 L143.84 198.26 L142.79 199.03 L143.59 200.48 L142.76 201.47 L141.83 202.35 L139.45 195.85 L137.8 193.19 L135.65 191.86 L138.14 190.06 L137.01 188.88 L134.3 187.75 L132.12 186.08 L134.16 185.9 L135.23 185.02 L135.37 183.76 L134.69 182.41 L133.08 181.47 L131.42 181.28 L130.32 180.69 L130.26 178.53 L129.46 178.53 L127.44 179.88 L125.42 178.9 L122.32 175.78 L120.96 175.39 L118.31 175.32 L116.93 174.74 L116.38 174.02 L114.76 170.95 L111.88 170.39 L109.56 168.93 L103.92 163.07 L100.05 160.45 L98.31 158.61 L97.03 156.4 L97.87 156.29 L99.79 156.62 L101.83 155.85 L102.83 153.69 L102.04 151.87 L100.15 150.63 L97.87 150.17 L95.94 148.69 L93.09 142.2 L90.71 140.73 L86.81 131.2 L86.09 131.71 L85.49 131.84 L84.89 131.93 L84.16 132.14 L82.85 129.7 L74.64 124.28 L72.68 121.27 L71.19 115.62 L70.91 113.67 L70.26 111.4 L68.74 110.37 L67 109.68 L65.69 108.4 L65.08 105.57 L66.56 105.27 L70.04 106.51 L71.27 105.06 L71.78 102.73 L71.8 98.5 L71.27 97.54 L69.94 95.73 L68.33 94.01 L66.87 93.24 L60.78 92.93 L59.27 92.29 L60.13 90.48 L60.23 88.67 L59.41 87.75 L57.58 88.52 L58.13 89.9 L57.4 91.45 L56.13 92.71 L54.93 93.24 L53.01 92.7 L52.41 91.42 L52.06 90.14 L50.96 89.54 L49.05 88.17 L49.49 85.46 L51.87 83.59 L55.82 84.75 L57.02 83.12 L56.52 81.45 L54.05 78.25 L55.57 77.6 L56.52 76.26 L56.68 74.48 L55.82 72.62 L53.9 71.09 L52.35 71.37 L50.71 72.26 L48.68 72.62 L48.68 71.57 L49.35 71.02 L49.77 70.4 L50.44 68.76 L48.57 68.14 L47.91 66.86 L48.06 65.15 L48.68 63.2 L49.68 63.35 L51.47 63.2 L53.9 64.68 L56.42 66.81 L58.44 69.12 L59.74 72.4 L60.95 73.17 L63.85 74.48 L73.4 85.84 L75.34 87.66 L81.34 91.08 L83.93 91.54 L86.81 90.49 L87.61 90.49 L89.31 94.32 L90.69 95.74 L93.01 96.07 L91.84 94.37 L89.95 89.68 L89.11 85.21 L89.38 84.14 L90.58 84.11 L113.86 93.14 L117.98 96.77 L124.88 105.65 L126.75 107.4 L129.34 109.27 L132.05 110.7 L134.29 111.3 L138.31 115 L139.63 115.62 L143.59 116.96 L145.45 118.72 L149.07 123.59 L151.07 124.6 L152.18 125.57 L156.84 132.14 L163.55 138.21 L164.81 138.32 L168.74 140.77 L170.74 142.71 L170.11 144.51 L172.38 146.11 L177.64 146.33 L179.84 148.28 L182.28 149.16 L187.09 153.08 L200.75 155.85 L201.14 156.12 L202.19 157.4 L202.94 157.81 L203.39 157.64 L204.04 157.16 L204.82 156.74 L205.68 156.69 L207.27 157.28 L207.85 157.77 L208.25 158.45 L209.23 159.53 L212.36 162.21 L213.34 164.04 L212.76 166.15 L214.06 171.83 L215.41 173.82 L217.37 175.25 L219.37 176.41 L220.95 177.82 L221.6 179.98 L222.69 180.42 L229.54 181.37 L231.88 182.14 L232.58 182.86 L232.03 187.48 L231.21 190.61 L230.87 191.43 L230.3 192.43 L230.51 193.35 L231.03 194.25 L231.31 195.21 L231.76 197.59 L232.83 199.1 L237.11 202.32 L240.75 204.29 L242.43 205.67 L244.11 207.53 L245.09 207.93 L248.44 208.14 L249.38 208.58 L249.64 209.49 L249.13 210.98 L249.89 210.66 L250.23 210.59 L250.46 210.45 L250.92 209.94 L254.88 213.26 L256.59 215.11 L257.09 216.56 L257.77 217.01 L258.12 217.41 L258.76 218.54 L256.59 218.51 L254.6 217.97 L252.73 217.02 L250.92 215.72 L251.49 217.03 L252.7 218.61 L254.25 219.9 L255.77 220.44 L257.09 221.32 L258.07 223.36 L258.89 225.59 L259.75 227.08 L262.75 228.42 L270.55 230.44 L272.98 232.85 L276.74 231.85 L280.22 233.77 L282.79 237.12 L283.76 240.35 L286.03 239.81 L287.39 245.7 L289.93 248.02 L288.58 245.26 L288.45 244.22 L289.06 243.19 L290.24 242.48 L291.46 242.53 L292.58 243.4 L293.46 245.1 L294.18 243.87 L294.34 242.37 L293.82 240.81 L292.5 239.41 L294.81 240.02 L296.67 242.37 L301.16 250.81 L302.04 253.17 L301.45 254.36 L298.7 253.72 L299.64 255.17 L304.94 258.47 L304.18 259.75 L305.22 259.88 L306.8 259.43 L307.61 258.94 L307.28 257.16 L306.52 255.85 L305.64 254.79 L304.94 253.72 L303.87 250.4 L303.59 247.84 L304.56 246.87 L307.16 248.42 L311.15 252.77 L312.48 253.16 L315.69 253.57 L316.88 254.2 L317.16 255.14 L316.25 255.58 L315.13 255.9 L314.76 256.5 L315.32 257.1 L316.19 257.37 L317.33 257.53 L317.64 259 L317.87 261.58 L318.21 263.22 L321.2 261.74 L323.59 261.73 L325.75 262.94 L332.43 269.01 L333.23 269.44 L334.93 269.91 L335.54 270.39 L336.83 272.81 L341.38 275.85 L346.18 278.17 L356.45 281.44 L356.45 282.32 L352.84 282.32 L352.84 283.27 L353.76 283.89 L354.05 284.69 L354.2 285.52 L354.68 286.2 L355.53 286.6 L357.3 286.75 L361.74 287.92 L363.59 288.88 L365.07 291.55 L370.1 295.29 L370.66 296.27 L371.11 298.79 L371.9 300 L372.68 300.54 L374.99 301.51 L374.02 302.38 L376.99 304.98 L382.72 311.54 L385.2 312.85 L387.53 314.7 L391.01 318.3 L394.1 320.56 L395.38 318.55 L399.89 321.73 L401.57 322.36 L401.57 323.41 L400.58 324.09 L399.53 324.61 L398.39 324.99 L397.17 325.23 L397.17 326.27 L398.22 326.76 L402.01 326.27 L403.7 326.63 L405.07 327.32 L406.12 327.7 L406.87 327.13 L407.82 329.66 L409.24 331.02 L411.29 331.65 L414.04 332 L421.58 333.88 L423.42 334.93 L430 340.13 L431.22 341.83 L432.66 344.47 L432.85 345.63 L432.66 349.22 L432.13 350.02 L431.22 351.02 L431.19 351.84 L433.1 352.18 L434.24 352.75 L435.3 354.14 L437.07 356.96 L441.65 360.66 Z M78.79 70.71 L80.81 73.56 L78.33 72.9 L74.65 70.92 L71.62 68.74 L70.99 66.23 L70.91 60.29 L71.8 60.29 L77.55 67.99 Z M8.68 15.96 L10.11 18.39 L10.4 19.43 L6.98 22.54 L3.14 13.74 L2.63 10.7 L2.86 5.07 L2.15 3.05 L0 1.71 L0.79 0 L2.87 1.11 L4.39 3.1 L7.04 9.56 L7.94 13.99 Z M999.59 377.16 L1000 377.38 L999.76 377.78 L999.39 377.56 Z "/>
</g>
</svg>
