<svg xmlns="http://www.w3.org/2000/svg" viewBox="0 0 1000 893.11">
<g fill="#ccc" stroke="#333" stroke-width="0.5" stroke-linejoin="round">
<path fill-rule="evenodd" d="M400.01 817.68 L399.87 817.61 L389.81 813.4 L385.9 812.79 L383.06 811.24 L381.47 807.58 L379.57 800.17 L375.9 794.68 L354.39 770.44 L352.62 769.16 L351.67 768.72 L348.58 766.53 L347.92 765.66 L340.91 763.67 L337.79 760.73 L331.02 752.48 L325.64 749.68 L318.76 742.36 L309.98 737.33 L307.06 734.7 L306.28 733.03 L304.36 726.91 L298.11 724.1 L290.61 716.78 L272.04 708.6 L268.89 706.28 L266.21 703.12 L263.95 696.64 L239.8 678.12 L235.92 673.24 L230.53 661.04 L228.34 659.18 L226.32 658.1 L221 652.7 L217.86 648.19 L214.43 641.72 L213.77 638.65 L212.79 635.79 L210.47 633.4 L205.5 629.52 L200.8 623.59 L193.19 610.35 L186.11 590.97 L184.12 587.85 L179.09 583.49 L137.82 558.15 L135.23 554.96 L123.87 548.38 L117.71 541.72 L103.79 535.43 L103.27 530.66 L105.59 533.74 L109.54 536.38 L114.15 538.27 L118.55 539.12 L113.54 533.59 L110.95 531.5 L108.16 530.66 L106.44 529.32 L101.89 520.66 L100.64 520.66 L102.7 528.31 L99.41 525.42 L94.14 518.74 L90.27 515.03 L87.77 513.97 L75.17 504.17 L73.49 502.43 L72.58 500.28 L71.49 496.69 L70.93 497.81 L69.36 499.77 L68.74 500.79 L46.56 475.03 L43.96 469.62 L44.82 470.62 L45.66 471.19 L48.09 472.45 L48.09 471.16 L47.13 470.82 L45.34 469.62 L45.34 468.34 L44.82 466.24 L41.44 463.41 L36.87 460.94 L32.83 459.86 L32.83 461.15 L38.18 464.68 L40.98 467.3 L41.08 469.62 L39.03 469.33 L36.05 467.05 L31.58 462.69 L7.92 448.45 L3 444.08 L0.03 438.95 L0 432.89 L3.79 425.72 L9.47 420.7 L15.29 417.07 L19.57 412.46 L20.56 404.53 L21.81 404.53 L21.25 408.97 L20.56 410.19 L22.82 410.19 L25.55 410.55 L27.86 411.26 L28.83 412.23 L29.78 412.84 L34.9 417.24 L36.18 417.98 L39.83 422.89 L40.71 423.57 L43.3 425.14 L43.96 425.72 L44.13 427.07 L43.72 430.19 L43.96 431.5 L50.56 438.1 L59.14 439.96 L79.89 438.68 L79.89 437.14 L69.38 437.41 L64.12 436.83 L61.85 434.96 L63.89 431.66 L73.63 426.77 L74.95 425.86 L121.2 422.89 L124.18 423.21 L128.82 426.07 L131.2 426.23 L132.3 422.86 L136.5 420.79 L141.66 417.52 L143.95 415.04 L148.67 407.63 L149.81 406.72 L152.78 405.23 L153.8 404.17 L154.35 402.14 L153.55 401.39 L152.42 400.89 L151.91 399.59 L153.65 388.7 L153.28 388.18 L151.76 384.85 L151.39 383.65 L151.73 383.09 L153.19 377.26 L154.63 374.49 L156.25 372.45 L165.94 364.09 L168.61 362.25 L171.85 361.31 L175.32 361.61 L186.92 367.36 L188.81 367.96 L190.72 367.45 L192.15 366.47 L193.61 365.47 L196.37 362.9 L197.94 360.18 L198.37 356.99 L197.18 351.06 L196.75 349.8 L195.29 347.17 L193.99 345.99 L192.61 345.66 L191.41 345.03 L190.64 342.96 L190.96 340 L193.52 334.28 L193.85 331.05 L187.34 306.17 L187.24 302.64 L188.49 296 L188.35 292.68 L187.58 291.34 L185.82 290 L185 289.38 L184.21 288.3 L183.82 286.42 L184.4 275.36 L184.59 271.76 L185.06 268.87 L185.4 267.61 L186.36 266.76 L188.69 265.15 L193.26 262.84 L197.48 262.47 L206.27 263.58 L222.71 260.43 L230.67 259.96 L237.35 263.64 L240.92 264.65 L243.85 263.72 L246.56 262.28 L249.51 261.86 L252.69 265.15 L253.88 266.01 L255.79 266.62 L257.2 266.83 L267.6 266.16 L271.3 265.24 L274.31 263.77 L276.66 261.1 L277.82 257.97 L279.41 251.82 L282.6 246.75 L295.81 232.5 L302.77 221.59 L304.88 220.18 L307.26 219.26 L309.69 217.98 L312.05 215.5 L313.5 212.86 L314.29 210.85 L315.34 209.05 L317.6 206.99 L320.37 205.55 L335.8 203.25 L335.75 205.55 L333.57 210.02 L334.15 215.52 L348.39 225.91 L352.75 231.7 L354.11 232.97 L356.91 233.94 L358.77 233.54 L360.6 232.78 L363.35 232.6 L367.78 234.56 L370.14 238.16 L372.11 242.42 L375.33 246.35 L379.79 247.9 L384.5 247.75 L388.6 248.09 L391.29 251.12 L391.66 251.27 L391.8 251.32 L392.23 250.92 L393.62 249.65 L395.29 246.29 L395.72 243.08 L394.57 240.67 L391.55 239.73 L390.79 237.92 L391.63 233.91 L393.62 227.67 L393.86 223.12 L394.84 221.98 L396.93 222.46 L400.51 222.71 L403.08 221.49 L407.17 217.93 L408.89 218.45 L410.14 218.45 L410.04 217.47 L410.36 217.23 L410.91 217.24 L411.52 217.04 L410.87 214.85 L417.94 212.68 L419.9 210.65 L421.81 207.76 L426.22 206.29 L427.95 205.98 L431.28 205.38 L435.04 204.13 L436.92 201.28 L437.37 197.97 L438.53 195.22 L445.78 193.22 L449.22 191.21 L454.44 187.1 L456.78 184.18 L459 180.17 L460.66 176.22 L462.13 170.9 L464.06 167.63 L466.38 164.59 L468.32 162.71 L469.2 162.55 L471.36 162.89 L472.21 162.71 L472.77 162.03 L473.35 160.51 L474.77 158.78 L475.59 157.38 L476.7 156.22 L478.59 155.73 L483.38 153.34 L485.47 152.89 L493.1 152.89 L498.1 152 L503.14 150.33 L507.28 147.81 L509.62 144.37 L509.42 139.63 L506.83 135.48 L503.23 132.18 L499.99 130.03 L505.5 125.77 L505.73 124.45 L505.26 121.27 L505.5 119.95 L510.15 114.98 L510.87 113.63 L511.28 103.1 L512.15 97.32 L513.75 94.36 L517.43 95.3 L520.65 98.86 L524.07 101.43 L528.33 99.4 L535.51 92.18 L536.71 89.35 L537 88.67 L531.77 88.67 L532.97 87.07 L537.41 82.85 L531.7 78.77 L530.61 76.74 L533.78 75.87 L534.82 75.38 L535.48 74.13 L536.53 66.42 L538.33 63.16 L541.08 60.56 L541.49 60.28 L544.63 58.15 L548.24 55.56 L557.49 46.58 L560.79 44.65 L572.85 42.44 L578.16 42.21 L583.39 43.8 L587.82 47.12 L590.78 52.05 L590.16 52.64 L588.58 54.68 L588.47 55.09 L592.48 55.6 L593.04 58.11 L592.83 60.89 L596.96 63.69 L599.06 67.18 L602.1 74.31 L605.83 72.07 L609.69 72.49 L617.49 75.87 L622.04 76.85 L636.76 77.29 L635.99 78.77 L635.39 82.85 L638.45 81.9 L640.58 83.08 L642.69 84.89 L645.78 85.82 L648.01 85.16 L653.23 82.23 L660.75 79.58 L664.46 74.98 L667.26 69.72 L669.92 65.78 L671.88 67.79 L673.33 73.21 L674.87 74.31 L677.94 74.6 L682.83 75.71 L685.07 75.87 L689.2 73.68 L690.24 69.09 L689.19 59.31 L690.31 56.84 L692.85 56.65 L695.63 57.63 L697.45 58.66 L699 59.98 L703.77 65.14 L706.22 66.15 L709.18 65.92 L714.1 64.48 L715.29 63.78 L716.1 62.78 L717.14 61.91 L718.98 61.51 L720.67 61.8 L721.62 62.3 L722.47 62.39 L723.85 61.51 L723.85 59.95 L722.09 58.23 L720.69 56.31 L718.35 51.42 L720.56 49.56 L722.03 49.45 L726.65 52.4 L727.17 53.37 L727.93 54.1 L730.05 54.39 L733.45 54.28 L734.49 54.85 L734.87 56.46 L738.34 56.88 L758.27 55.81 L757.23 54.1 L757.27 52.18 L758.27 47.4 L760.7 48.78 L763.95 52.27 L766.52 52.96 L766.27 52.08 L765.28 50.12 L766.74 50.73 L767.54 50.95 L768.24 51.47 L769.41 52.96 L771.86 50.74 L775.45 48.73 L779.45 47.43 L783.17 47.4 L781.6 46.34 L780.61 45.32 L779.17 42.88 L790.41 42.19 L794.6 40.54 L794.19 37.3 L796.73 37.14 L798.81 37.43 L800.31 38.38 L801.07 40.15 L802.56 40.15 L800.65 34.17 L801.43 31.85 L805.19 30.05 L809.19 29.49 L813.66 29.73 L817.37 30.84 L819.09 33.03 L820.59 33.03 L821.46 30.48 L821.88 27.67 L822.87 25.41 L827.81 23.55 L832.83 19.53 L835.73 18.66 L835.34 17.93 L834.8 16.45 L834.35 15.81 L837.34 16.69 L838.48 17.24 L837.86 14.44 L838.12 12.02 L839.25 11.12 L841.23 12.96 L841.35 9.8 L841.68 8.52 L842.74 7.13 L841.38 5.11 L842.06 4.06 L844.09 3.82 L846.75 4.28 L847.81 5.31 L850.27 9.09 L852.12 10.12 L856.85 9.56 L860.94 7.1 L864.08 3.62 L866.01 0 L868.53 2.03 L871.11 3.05 L873.22 4.36 L874.27 7.13 L877.31 5.12 L880.78 4.89 L889.66 5.83 L887.26 7.01 L887.11 8.11 L888.59 9.15 L891.04 10.12 L891.87 9.97 L900.8 10.12 L906.13 7.66 L908.93 7.13 L915.74 7.53 L918.4 7.09 L916.92 9.24 L913.23 10.96 L911.4 12.92 L908.44 9.39 L906.01 11.83 L904.08 16.26 L902.58 18.63 L900.01 19.88 L897.55 22.88 L895.73 26.42 L895.01 29.3 L894.48 30.27 L891.91 32.8 L890.88 34.29 L890.36 36.32 L889.99 40.78 L889.5 42.84 L887.85 45.44 L885.42 47.3 L878.48 50.07 L878.97 48.83 L879.53 47.83 L881.24 45.81 L881.24 47.37 L881.92 46.2 L882.31 45.25 L882.49 44.22 L882.5 42.84 L880.94 43.8 L880.29 43.96 L878.48 42.84 L878.48 41.55 L880.89 40.4 L883.19 40.1 L885.21 40.85 L886.75 42.84 L886.6 38.9 L884.43 33.5 L883.88 29.3 L882.63 25.12 L879.75 24.43 L876.48 25.66 L874.1 27.16 L870.13 30.88 L861.21 42.41 L859.09 47.37 L861.06 45.29 L861.73 44.38 L864.5 46.6 L866.69 55.16 L868.04 57.07 L870.7 58.68 L873.6 61.48 L876.65 62.49 L879.75 58.63 L878.28 57.34 L874.56 55.05 L872.86 54.35 L875.14 53.08 L877.47 53.76 L879.58 55.82 L881.24 58.63 L881.11 53.87 L882.57 52.39 L884.37 54.2 L892.26 90.71 L892.69 91.88 L894.58 95.77 L896.25 105.71 L906.03 134.25 L907.08 142.42 L906.11 149.54 L900.63 162.67 L883.88 189.78 L876.65 198.59 L875.62 202.04 L874.2 204.57 L864.6 211.32 L860.55 217.08 L857.75 223.7 L852.9 242.98 L845.14 269.17 L840.37 292.84 L840.66 303.01 L839.83 307.96 L839.79 311.93 L835.56 322.24 L831.97 335.93 L829.75 362.61 L830.14 367.6 L831.57 370.47 L830.07 371.76 L831.2 374.3 L837.93 415.3 L842.35 442.16 L835.56 496.69 L835.56 508.75 L836.23 510.73 L839.16 516.66 L841.11 523.24 L846.74 531.15 L848.08 536.3 L847.56 542.61 L845.45 545.98 L841.36 547.33 L834.87 547.58 L829.93 548.6 L824.9 550.42 L820.19 551.18 L816.17 548.99 L817.69 547.51 L821.85 544.56 L823.05 543.21 L823.22 540.79 L822.46 537.55 L821.17 534.71 L816.75 530.75 L817.1 517.24 L816.17 512.08 L816.91 511.67 L817.15 511.65 L817.27 511.54 L817.68 510.79 L818.93 510.79 L826.06 513.08 L831.03 506.63 L832.72 497.33 L830.07 491.04 L830.07 489.5 L831.8 487.54 L832.49 484.76 L832.82 473.21 L833.18 472.78 L834 472.09 L834.94 471.04 L835.56 469.62 L834.89 464.08 L830.98 460.79 L825.59 459.47 L820.43 459.87 L816.27 462.31 L814.48 466.13 L814.59 470.34 L816.17 473.99 L820.6 476.38 L821.06 476.8 L821.03 477.5 L821.38 481 L821.67 482.45 L822.53 483.86 L823.47 484.45 L824.24 485.26 L824.55 487.38 L824.45 490.87 L824.01 492.3 L823.05 493.87 L823.85 494.84 L825.93 498.1 L819.61 501.8 L808.88 510.85 L802.4 513.61 L793.69 514.55 L790.02 515.76 L788.52 518.48 L788.52 529.23 L788.77 529.47 L789.57 529.02 L791.26 529.12 L793.69 529.64 L795.32 529.59 L796.67 530.01 L798.29 531.94 L799.66 541.16 L798.86 545.57 L797.45 549.75 L796.78 553.69 L798.29 557.44 L802.03 559.28 L808.34 557.92 L809.42 561.09 L809.18 563.16 L808.15 567.2 L807.92 569.55 L808.33 570.84 L809.27 568.96 L812.47 558.37 L813.7 555.71 L815.48 554.62 L819.46 555.2 L820.3 556.77 L810.89 575.75 L806.42 600.22 L807.89 626.61 L809.42 631.04 L808.04 631.88 L806.54 632.45 L807.36 628.21 L805.93 624.69 L800.9 618.39 L798.79 613.16 L800.5 610.95 L803.44 608.93 L805.04 604.18 L804 600.68 L801.35 596.65 L797.8 593.18 L794.02 591.37 L787.9 592.03 L788.2 595.09 L791.41 597 L794.02 594.19 L795.53 594.19 L798.93 597.76 L800.32 599.92 L800.9 602.64 L800.16 606.13 L797.11 610.61 L796.78 613.91 L795.64 617.85 L792.02 617.97 L783.7 615.44 L782.62 616.13 L785.08 617.64 L790.02 619.66 L791.21 621.27 L792.03 623.47 L792.49 626.02 L792.64 628.74 L792.23 630.6 L790.43 634.4 L790.02 635.91 L790.36 637.04 L791.05 638.23 L791.51 639.51 L791.26 640.89 L790.21 642.16 L789.08 642.76 L788.03 643.13 L787.27 643.71 L783.54 648.56 L782.39 649.34 L780.65 649.95 L778.68 651.43 L776.99 653.31 L776.14 655.09 L778.78 656.88 L782.01 659.83 L784.75 663.02 L786.48 666.97 L787.95 668.05 L789.92 668.76 L791.95 669.02 L794.92 668.68 L795.14 667.75 L794.31 666.4 L794.02 664.81 L795.39 660.81 L796.5 658.71 L798.29 657.9 L801.65 657.78 L803.58 659.48 L812.92 697.05 L813.41 704.3 L813.31 706.95 L813.05 708.57 L812.28 709.82 L810.67 711.33 L810.28 710.74 L807.42 711.32 L804.63 712.24 L804.41 712.74 L802.81 713.42 L800.8 716.4 L798.97 717.07 L796.53 717.12 L794.56 717.42 L792.88 718.22 L791.26 719.76 L789.21 726.14 L787.26 735.77 L784.54 743.04 L780.25 742.37 L779 742.37 L772.6 750.56 L770.75 753.72 L769.7 757.25 L769.72 778.06 L775.9 805.02 L780.25 815.73 L786.31 825.09 L788.26 830.22 L793.08 837.94 L794.77 839.57 L798.44 841.85 L799.89 845.8 L801.49 850.17 L805.04 849.51 L804.27 847.32 L804.28 847.32 L805.84 847.73 L807.41 851.31 L807.85 851.51 L808.24 852.71 L807.64 855.44 L809.65 856.53 L809.76 861.04 L811.61 868.34 L811.03 873.92 L803.95 877.58 L790.71 880.76 L789.67 881.01 L776.29 886.11 L772.16 890.95 L771.41 891.41 L765.9 890.31 L764.55 890.76 L761.74 892.72 L759.77 893.11 L757.89 892.82 L756.53 892.17 L744.38 882.54 L743.45 879.04 L741.23 877.52 L738.51 877.98 L736.12 880.38 L732.68 879.55 L727.68 882.78 L725.24 880.38 L723.85 880.38 L721.53 882.15 L719.21 881.26 L715.47 877.58 L713.05 877.99 L711.29 877.73 L709.86 877.52 L706.72 877.46 L704.46 879.11 L703.4 877.71 L698.96 874.13 L698.5 873.42 L697.68 872.55 L697.3 871.39 L698.2 869.81 L699.03 869.23 L701.83 867.76 L701.08 862.84 L697.6 859.9 L693.75 857.93 L691.95 855.92 L689.81 854.46 L680.44 850.84 L678.31 848.84 L677.75 847.4 L675.07 844.02 L674.18 842.53 L673.76 839.99 L673.81 837.91 L673.34 836.37 L671.43 835.4 L669.71 836.43 L658.87 843.53 L656.95 844.33 L654.75 844.11 L652.59 843.26 L650.79 842.23 L649.06 840.77 L644.48 835.04 L643.63 834.42 L642.66 833.89 L641.61 833.47 L640.52 833.16 L630.47 828.71 L625.82 827.21 L621.47 827.46 L617.96 826.95 L610.29 821.41 L606.71 819.83 L600.4 821.34 L585.48 831.24 L564.67 845.04 L559.95 846.75 L555.31 846.23 L522.77 834.16 L493.81 823.39 L486.57 820.7 L459.34 810.58 L438.94 802.98 L432.42 799.3 L426.73 794.15 L420.96 791.16 L414.24 793.98 L408.56 801.67 L404.88 809.72 Z M810.56 847.58 L810.39 848.42 L809.36 849.39 L808.5 849.5 L808.5 848.79 L809.02 848.4 L809.02 848.01 L807.94 847.45 L807.25 847.55 L806.22 847.03 L807.2 846.89 Z M798.29 653.56 L796.76 647.96 L796.3 640.55 L797.73 634.05 L801.88 631.17 L802.19 631.22 L802.43 631.39 L802.5 631.79 L802.4 632.45 L801.07 634.56 L799.68 637.92 L798.63 641.67 L798.29 644.99 L799.47 652.52 L799.57 655.28 Z M933.82 598.89 L933.41 594.29 L935.33 590.67 L938.14 589.21 L940.43 591.07 L939.65 592.43 Z M991.61 128.58 L994.89 126.94 L997.56 126.96 L999.34 128.66 L1000 132.06 L998.62 137.86 L994.93 139.54 L984.22 138.61 L983.36 138.52 L984.14 138.52 L984.27 138.53 L984.69 138.42 L984.93 137.92 L984.85 137.09 L988.09 135.27 L989.41 132.94 L990.13 130.55 Z "/>
</g>
</svg>
