<svg xmlns="http://www.w3.org/2000/svg" viewBox="0 0 1000 785.79">
<g fill="#ccc" stroke="#333" stroke-width="0.5" stroke-linejoin="round">
<path fill-rule="evenodd" d="M217.7 785.79 L217.26 785.42 L216.67 784.39 L216.14 784.1 L215.92 783.61 L215.79 783.04 L215.56 782.54 L215.24 781.52 L215 781.02 L214.72 780.75 L214.37 780.54 L213.94 780.16 L211.83 777.12 L211.32 776.63 L210.61 776.14 L208.3 775.31 L205.46 773.55 L204.76 773.32 L204.08 772.92 L203.33 772.77 L202.44 773.3 L201.59 773.7 L200.72 773.47 L199.94 772.95 L199.41 772.44 L198.5 771.39 L197.06 768.94 L196.6 767.77 L196.28 766.3 L196.13 764.92 L195.93 764.57 L195.07 763.92 L194.88 763.58 L184 753.61 L181.44 749.81 L180.82 748.6 L180.59 748.27 L180.06 748.1 L177.96 747.86 L177.22 747.58 L176.52 747.22 L176 746.68 L175.6 745.22 L175.1 744.43 L174.47 743.74 L173.18 743.04 L170.15 740.31 L169.4 741.29 L167.9 741.35 L167.25 741.48 L165.97 741.43 L165.36 741.55 L164.66 742.01 L163.65 743.23 L163.07 743.71 L162.41 743.87 L161.74 743.42 L161.06 743.69 L160.72 744.07 L160.53 744.53 L160.41 745.04 L160.2 745.54 L159.32 746.95 L158.74 747.28 L156.52 746.68 L156.08 746.77 L155.32 747.33 L154.93 747.52 L154.62 747.49 L154.08 747.17 L153.83 747.12 L151.58 747.73 L151.29 747.92 L150.72 748.48 L150.36 748.69 L149.88 748.73 L149.69 748.44 L149.59 748.08 L149.41 747.94 L148.67 747.91 L148.07 747.82 L147.63 748 L147.33 748.8 L146.98 749.48 L146.66 749.37 L146.3 749 L145.83 748.88 L145.5 749.13 L144.98 749.85 L144.83 750.02 L144.02 750.1 L142.56 750.04 L141.7 750.15 L140.17 750.86 L139.61 751.98 L139.66 753.45 L140.28 757.05 L142.41 763.12 L142.77 763.76 L143.22 764.28 L143.87 764.82 L144.54 765.13 L145.15 765.27 L145.56 765.57 L145.69 766.38 L145.65 767.49 L145.19 767.59 L144.53 767.34 L143.89 767.4 L143.45 767.87 L142.96 768.8 L142.53 769.29 L141.98 769.44 L141.39 769.36 L140.85 769.5 L140.49 770.33 L140.58 771.04 L141.32 772.16 L141.44 772.82 L138.15 770.01 L133.14 762.98 L128.69 756.73 L123.97 750.1 L121.26 746.29 L120.05 744.02 L120.2 742.14 L121.15 741.34 L124.8 740.58 L125.09 740.36 L125.54 739.72 L125.94 739.5 L126.13 739.56 L126.81 739.9 L127.13 739.95 L130.89 739.63 L131.82 739.39 L132.26 738.7 L132.14 737.27 L132.14 736.95 L132.35 736.27 L132.35 735.99 L132.09 735.51 L131.29 734.62 L130.93 734.12 L130.41 733.12 L130.1 732.29 L129.62 728.39 L129.42 727.57 L128.99 726.7 L128.43 725.97 L127.27 725.25 L126.6 724.72 L125.93 724.02 L125.69 723.67 L125.32 722.41 L123.67 720.47 L121.13 719.78 L114.98 719.26 L114.4 719.59 L113.33 720.78 L112.63 721.25 L112.14 721.16 L111.69 720.94 L111.18 721.05 L110.89 721.36 L110.46 722.23 L109.39 723.81 L108.72 725.09 L107.97 726.2 L106.9 726.91 L105.78 727.04 L97.77 726.35 L91.3 725.78 L89.2 725.23 L87.43 724.23 L83.08 720.55 L79.6 717.6 L74.45 713.23 L72.82 711.85 L68.14 707.88 L64.36 704.67 L60.76 701.62 L58.85 700.66 L54.33 700.28 L52.51 699.28 L51.95 698.24 L51.77 697.01 L51.76 695.81 L51.74 691.68 L51.71 685.57 L51.68 680.06 L52.51 677.45 L53.85 677.69 L58.91 679.72 L62.31 680.58 L63.71 681.17 L64.15 681.03 L64.78 678.81 L65.08 678.09 L65.42 677.73 L66.56 678.07 L67.59 679 L68.82 679.59 L70.54 678.91 L69.33 677.54 L68.36 676.86 L67.3 676.59 L64.62 676.25 L63.49 675.88 L56.6 672.68 L54.52 671.13 L53.33 669.16 L53.01 666.23 L50.45 663.49 L47.04 661.43 L44.12 660.54 L41.74 660.77 L40.61 660.71 L39.37 660.1 L38.61 659.38 L38.56 658.95 L38.78 658.68 L38.82 658.44 L38.77 658.04 L38.78 657.51 L38.6 657.06 L37.96 656.93 L29.57 657.2 L27.9 656.62 L27.03 655 L27.3 654 L27.92 652.65 L28.3 651.42 L27.86 650.81 L26.65 650.36 L25.94 649.59 L25.29 648.73 L23.16 647.32 L22.2 646.43 L21.94 646.06 L21.44 645.36 L20.9 644.15 L20.4 643.59 L19.08 642.72 L18.69 642.25 L18.66 641.56 L19.18 640.39 L19.2 639.82 L18.52 639.06 L17.41 638.48 L16.37 637.76 L15.87 636.61 L15.74 635.46 L15.07 634.89 L14.25 634.48 L13.67 633.81 L13.66 633.24 L14.19 632.19 L14.26 631.77 L13.99 631.22 L13.64 630.87 L13.25 630.57 L12.85 630.12 L12.05 628.91 L11.77 628.16 L12.05 627.39 L13.56 625.03 L13.86 624.26 L14.19 622.24 L14.43 621.65 L15.03 620.87 L15.09 620.33 L14.91 619.95 L12.23 616.3 L3.13 607.95 L2.26 607.16 L0.37 604 L0 600.69 L4.22 588.64 L3.8 586.65 L1.97 582.86 L2.07 580.99 L2.85 579.97 L3.72 579.25 L4.29 578.37 L4.14 576.88 L3.78 573.63 L3.81 572.01 L4.32 571.32 L12.66 573.45 L14.8 573.46 L16.81 573.03 L20.9 571.57 L22.88 571.48 L32.69 575 L33.56 574.92 L35.31 574.49 L37.11 573.78 L38.96 573.08 L48.63 572.76 L50.35 572.39 L51.89 571.63 L57.19 566.66 L61.33 562.79 L66.4 558.04 L70.68 554.03 L72.38 553 L74.51 552.48 L79.17 552.31 L85.27 552.1 L91.38 551.89 L97.49 551.69 L103.59 551.47 L109.7 551.26 L115.8 551.05 L121.92 550.84 L128.02 550.63 L134.13 550.42 L140.23 550.21 L146.34 550 L152.44 549.79 L158.56 549.58 L164.66 549.37 L170.77 549.16 L176.88 548.95 L180.01 548.84 L180.36 547.98 L180.36 545.55 L180.49 544.35 L180.65 543.69 L181.1 543.35 L182.12 543.12 L184.61 543.07 L192.15 544.36 L204.04 546.4 L210.55 547.52 L210.9 547.63 L212.06 547.87 L212.65 540.31 L213.28 538.56 L218.82 535.16 L223.76 529.66 L226.08 528.39 L231.1 527.42 L233.49 526.13 L235.08 524.19 L235.24 523.79 L236.04 521.87 L236.55 519.34 L237.11 512.92 L237.52 511.71 L238.48 510.21 L242.16 506.5 L242.22 506.31 L242.26 506.12 L242.24 505.71 L242.25 505.62 L242.24 505.53 L242.2 505.44 L242.16 505.36 L241.37 503.42 L241.13 501.6 L241.39 499.78 L247.05 485.81 L248 484.31 L249.21 483.01 L250.69 481.86 L253.44 480.43 L254.34 479.6 L254.85 478.05 L254.81 470.77 L254.79 465.09 L254.74 456.26 L254.72 452.09 L254.89 451.5 L255.71 450.18 L255.99 449.49 L255.64 443 L255.72 441.81 L256.1 440.65 L256.6 440.43 L257.27 440.4 L258.11 439.78 L258.09 432.84 L258.08 428.67 L258.06 420.49 L258.03 412.3 L258 404.1 L257.97 395.9 L257.95 387.69 L257.93 379.48 L257.91 374.86 L257.9 371.26 L257.88 363.04 L257.85 354.81 L257.83 346.58 L257.8 338.33 L257.78 330.24 L257.77 330.09 L257.75 321.83 L257.72 313.57 L257.7 305.31 L257.67 297.04 L269.6 294.61 L281.52 292.19 L293.44 289.77 L305.38 287.35 L311.67 286.07 L325.52 283.26 L339.37 280.45 L345.67 279.17 L353.81 277.51 L356.66 276.43 L359.39 274.5 L364.37 269.96 L368.36 266.32 L372.35 262.68 L376.34 259.04 L380.32 255.4 L384.31 251.75 L388.29 248.11 L392.28 244.46 L396.27 240.81 L400.25 237.17 L404.24 233.52 L408.22 229.87 L412.21 226.21 L416.2 222.56 L420.18 218.9 L424.16 215.25 L428.15 211.59 L431.8 208.24 L434.18 206.09 L439.08 201.82 L443.6 197.89 L448.11 193.96 L452.63 190.02 L457.13 186.08 L463.4 180.61 L471.69 175.39 L475.99 172.67 L480.28 169.95 L484.59 167.24 L488.9 164.52 L493.19 161.79 L497.5 159.08 L501.8 156.36 L506.09 153.63 L510.4 150.91 L514.71 148.19 L519.01 145.47 L523.31 142.74 L527.61 140.02 L531.91 137.3 L536.22 134.57 L540.52 131.84 L544.82 129.11 L549.12 126.38 L553.43 123.65 L557.73 120.92 L562.03 118.19 L566.33 115.46 L570.64 112.72 L574.94 109.99 L579.24 107.26 L583.54 104.52 L587.84 101.79 L592.14 99.05 L596.45 96.31 L600.75 93.57 L605.05 90.83 L609.35 88.09 L613.65 85.35 L617.96 82.61 L622.26 79.87 L626.56 77.13 L630.86 74.38 L635.16 71.64 L639.46 68.9 L643.77 66.15 L648.07 63.4 L652.37 60.65 L656.67 57.9 L660.97 55.16 L665.27 52.41 L669.58 49.66 L673.88 46.9 L678.18 44.16 L682.49 41.4 L686.8 38.65 L691.1 35.89 L695.4 33.14 L699.7 30.38 L704.01 27.62 L708.3 24.86 L712.61 22.1 L716.91 19.34 L721.2 16.58 L725.51 13.82 L729.82 11.06 L734.12 8.3 L738.42 5.54 L742.72 2.77 L747.02 0 L752.59 1.36 L758.18 2.72 L763.76 4.07 L769.34 5.43 L774.91 6.79 L780.5 8.14 L786.07 9.49 L791.64 10.85 L797.23 12.21 L802.8 13.56 L808.38 14.92 L813.96 16.27 L819.54 17.63 L825.12 18.99 L830.7 20.33 L836.28 21.69 L842.7 23.25 L850.12 27.42 L853.67 30.61 L861.58 37.69 L869.49 44.76 L877.39 51.82 L885.31 58.87 L888.18 61.44 L889.1 61.92 L890.08 61.8 L894.08 59.62 L904.9 53.7 L915.71 47.78 L926.52 41.86 L937.34 35.92 L937.34 35.92 L937.38 35.9 L938.15 40.2 L938.91 44.5 L939.66 48.79 L940.42 53.09 L941.18 57.38 L941.94 61.67 L942.7 65.97 L943.45 70.25 L944.22 74.54 L944.98 78.82 L945.74 83.1 L946.5 87.38 L947.26 91.66 L948.02 95.94 L948.54 98.84 L949.05 101.74 L949.53 104.48 L949.56 105.83 L949.61 109.38 L949.69 114.4 L949.79 120.15 L949.88 125.9 L949.96 130.91 L950.02 134.45 L950.04 135.79 L950.06 137.57 L950.32 138.66 L951.31 139.67 L954.3 141.24 L955.51 142.1 L957.68 144.77 L959.19 147.12 L960.24 148.79 L961.3 150.44 L962.36 152.11 L963.42 153.77 L964.48 155.43 L965.55 157.09 L966.6 158.76 L967.66 160.41 L968.72 162.07 L969.77 163.73 L970.84 165.39 L971.9 167.05 L972.96 168.71 L974.01 170.37 L975.08 172.03 L976.13 173.69 L977.18 175.32 L974.63 176.8 L973.07 179.41 L972.54 182.54 L973.06 185.59 L973.81 187.3 L974.71 188.77 L975.84 190.06 L980.98 194.18 L982.74 196.14 L986.42 200.25 L990.11 204.36 L993.79 208.47 L997.47 212.58 L998.97 214.25 L999.86 215.72 L1000 216.83 L999.54 217.98 L998.24 220.36 L995.71 225.01 L993.17 229.66 L990.64 234.3 L988.11 238.94 L987.16 240.69 L985.19 245.97 L984.96 248.77 L984.7 251.84 L984.45 254.9 L984.19 257.97 L983.93 261.03 L983.68 264.09 L983.42 267.16 L983.17 270.21 L982.91 273.28 L982.66 276.34 L982.41 279.39 L982.15 282.45 L981.89 285.51 L981.64 288.57 L981.38 291.62 L981.13 294.67 L980.87 297.73 L980.62 300.78 L980.36 303.83 L980.11 306.88 L979.85 309.93 L979.59 312.98 L979.34 316.03 L979.09 319.07 L978.84 322.12 L978.58 325.17 L978.33 328.21 L978.07 331.26 L977.82 334.3 L977.56 337.34 L977.3 340.38 L977.05 343.43 L976.79 346.46 L976.54 349.51 L976.28 352.54 L976.03 355.58 L975.78 358.62 L975.52 361.65 L975.26 364.69 L975.01 367.72 L974.75 370.76 L974.55 373.22 L974.5 373.79 L974.24 376.82 L973.99 379.85 L973.73 382.88 L973.48 385.92 L973.22 388.94 L972.96 391.97 L972.71 395 L972.46 398.03 L972.2 401.06 L971.95 404.08 L971.69 407.1 L971.44 410.13 L971.18 413.15 L970.93 416.17 L970.67 419.19 L970.41 422.22 L970.16 425.24 L969.9 428.26 L969.65 431.27 L969.39 434.29 L969.15 437.31 L968.89 440.32 L968.63 443.34 L968.49 445.01 L968.28 445.79 L968.09 446.47 L967.26 447.69 L965.11 450.02 L961.57 453.87 L958.02 457.73 L954.47 461.58 L950.92 465.43 L947.37 469.27 L943.83 473.12 L940.28 476.97 L936.74 480.81 L933.19 484.65 L929.64 488.49 L926.1 492.34 L922.56 496.18 L919.01 500.02 L915.46 503.85 L911.91 507.7 L908.36 511.53 L905.92 514.17 L902.21 518.18 L898.76 521.9 L896.96 524.46 L895.07 527.14 L893.18 529.81 L891.3 532.49 L889.42 535.16 L887.52 537.83 L885.64 540.5 L883.75 543.17 L881.86 545.84 L879.97 548.51 L878.09 551.18 L876.2 553.85 L874.32 556.52 L872.43 559.19 L870.54 561.86 L868.66 564.53 L866.77 567.19 L864.93 569.77 L863.3 573.31 L861.23 577.77 L860.29 579.8 L859.95 581.05 L859.88 582.44 L860.13 583.78 L861.02 586.57 L861.1 587.9 L860.54 589.43 L859.57 589.94 L858.37 590.05 L857.1 590.34 L856.47 590.83 L854.45 593.1 L853.2 593.98 L852.97 594.32 L853.07 594.66 L853.75 595.27 L853.96 595.66 L854.36 598.16 L854.29 599.37 L853.8 600.56 L851.68 602.35 L850.65 602.55 L849.16 602.84 L846.59 603.05 L844.31 604.01 L842.7 604.82 L840.63 607.72 L840.61 611.57 L841.82 616.1 L842.7 619.42 L843.36 622.42 L843.8 624.5 L844.26 626.57 L844.72 628.65 L845.17 630.73 L845.62 632.81 L846.08 634.88 L846.53 636.95 L846.98 639.03 L847.44 641.1 L847.89 643.18 L848.34 645.25 L848.79 647.33 L849.25 649.4 L849.7 651.48 L850.16 653.55 L850.61 655.63 L834.97 654.95 L834.9 654.97 L833.07 655.28 L832.49 655.74 L832.52 656.86 L831.56 657.54 L829.04 659.92 L828.6 660.51 L828.26 661.17 L828.24 661.43 L828.56 661.89 L828.65 662.26 L828.48 662.77 L828.07 662.87 L827.63 662.84 L827.35 662.95 L826.76 663.85 L826.89 664.16 L827.79 664.28 L826.63 665.78 L825.1 666.34 L823.4 666.66 L821.71 667.43 L821.93 666.91 L822.07 666.25 L821.93 665.73 L821.31 665.61 L820.96 665.88 L820.49 666.96 L820.02 667.43 L820.04 666.73 L820.02 666.5 L818.98 666.85 L817.79 666.91 L817.08 666.65 L817.43 666.01 L817.43 665.61 L815.68 665.76 L814.06 666.35 L808.38 669.22 L806.63 669.56 L804.87 669.16 L804.61 670.22 L804.03 670.28 L803.22 669.88 L802.24 669.61 L802.24 670.09 L802.76 670.24 L803.21 670.51 L803.61 670.9 L804.01 671.42 L803.18 672.11 L801.42 674.08 L801.37 674.27 L801.46 674.79 L801.42 674.97 L801.23 675.01 L800.68 674.93 L800.52 674.97 L800.24 675.12 L799.4 675.42 L799.22 675.66 L799.47 676.42 L799.87 676.91 L799.9 677.16 L799.01 677.23 L798.87 677 L798.51 676.55 L798.14 676.27 L797.96 676.53 L797.88 676.56 L797.45 677.63 L795.82 679.64 L794.79 680.45 L793.35 680.78 L792.62 681.12 L792.18 682.62 L791.62 682.96 L790.66 682.77 L790.04 682.31 L789.49 681.74 L788.82 681.23 L788.74 682.28 L788.62 682.66 L788.2 683.11 L787.76 683.43 L787.31 683.57 L787.1 683.2 L786.77 683.43 L784.46 685.62 L784.28 686.67 L783.46 687.86 L783.02 688.83 L784.03 689.2 L783.63 690.64 L783.29 691.33 L782.78 691.91 L782.31 692.05 L780.87 692.32 L780.59 692.55 L780.04 696.01 L779.76 696.78 L778.88 697.21 L777.84 697 L776.63 696.57 L775.18 696.34 L773.44 696.28 L771.22 696.2 L770.18 695.89 L769.58 696.26 L769.12 695.94 L768.65 695.36 L768.02 695.01 L767.42 695.09 L767.03 695.41 L766.75 695.74 L766.51 695.89 L766.01 695.8 L765.9 695.56 L765.87 695.2 L765.63 694.77 L764.91 694.37 L761.72 693.24 L760.67 693.45 L759.34 694.37 L758.45 694.52 L756.35 694.7 L752.63 693.8 L751.39 693.18 L748.48 690.86 L739.68 685.45 L732.7 682.59 L713.59 677.71 L682.8 677.88 L671.31 676.53 L665.22 677.02 L663.51 677.39 L632.76 684.03 L630.12 685.14 L618.13 691.9 L617.01 692.99 L616.74 693.67 L616.5 695.25 L616.21 695.9 L615.7 696.43 L615.45 696.48 L615.13 696.43 L614.46 696.67 L613.24 697.45 L611.12 699.48 L600.27 712.37 L599.83 712.89 L599.11 713.52 L598.42 713.97 L597.98 714.16 L596.64 714.26 L583.22 712.68 L582.07 712.75 L578.7 713.71 L576.36 713.71 L557.93 711.55 L555.71 711.29 L539.05 706.33 L536.73 704.99 L535.65 703.66 L533.83 700.64 L532.6 699.27 L529.83 697.18 L528.32 696.45 L526.62 696.08 L525.87 696.08 L524.3 696.27 L523.57 696.5 L522.85 696.87 L522.59 697.05 L522.35 697.03 L521.72 696.78 L521.25 696.48 L514.94 690.69 L513.37 688.79 L512.53 688.06 L511.7 687.66 L511.64 687.63 L509.76 687.12 L508.84 686.68 L506.7 684.99 L504.96 683.91 L503.47 682.48 L502.75 681.92 L501 681.25 L484.98 678.96 L482.81 679.17 L480.65 680.14 L457.66 694.07 L455.68 694.72 L453.42 694.7 L446.82 693.49 L445.41 693.76 L441.57 698.31 L438.58 700.96 L437.22 701.63 L436.86 701.69 L435.72 701.88 L431.02 701.91 L428.91 701.67 L426.98 700.93 L424.93 699.4 L422.63 697.26 L418.89 692.92 L417.32 690.02 L412.18 680.52 L401.86 669.16 L392.99 660.69 L388.76 658.24 L387.63 658 L384.19 657.25 L382.98 657.5 L379.32 659.56 L378.66 659.74 L378.24 659.56 L377.85 659.21 L377.27 658.88 L359.38 651.74 L341.48 644.6 L339.43 644.16 L330.09 645.79 L328.33 646.68 L327.61 647.65 L326.55 650.04 L325.67 651.08 L323.73 652.47 L323.01 652.79 L320.83 653.2 L311.77 652.8 L305.38 653.96 L301.7 653.74 L300.27 653.09 L298.84 651.73 L297.39 651.07 L295.37 651.29 L282.78 654.39 L275.25 656.24 L271.83 657.6 L268.87 659.72 L258.92 669.28 L257.16 670.16 L255.26 670.53 L251.17 670.66 L251.04 686.21 L250.82 687.71 L248.83 701.62 L238.73 717.56 L234.64 721.5 L220.82 731.94 L220.56 732.62 L221.18 748.74 L219.48 757.23 L219.45 760.04 L221.02 764.78 L221.31 766.99 L220.24 769.13 L219.16 770.25 L218.47 771.18 L218.18 772.24 L218.54 775.91 L218.75 776.54 L219.11 777.22 L219.32 777.44 L219.59 777.6 L221.07 779.2 L221.85 780.38 L222.16 781.66 L221.71 783.05 L220.95 783.83 Z "/>
</g>
</svg>
