<svg xmlns="http://www.w3.org/2000/svg" viewBox="0 0 1000 811.91">
<g fill="#ccc" stroke="#333" stroke-width="0.5" stroke-linejoin="round">
<path fill-rule="evenodd" d="M77.12 186.7 L81.4 184.13 L82.41 183.1 L83 181.26 L82.59 179.58 L81.56 178.02 L79.61 175.91 L79.25 175.7 L78.97 175.42 L78.5 174.51 L78.23 173.68 L77.75 168.84 L78.13 167.45 L79.05 166.23 L80.47 164.75 L81.88 161.92 L81.49 159.01 L79.42 152.77 L79.46 149.07 L81.71 137.86 L80.88 116.62 L81.23 115.72 L99.45 101.96 L104.84 96.77 L118.15 75.75 L120.78 57.41 L121.06 55.44 L121.24 34.94 L126.63 34.76 L129.13 34.28 L131.46 33.12 L144.57 20.51 L148.47 17.72 L152.99 15.93 L162.91 13.49 L179.5 9.4 L182.17 9.11 L184.08 9.98 L185.96 11.78 L187.85 12.63 L192.69 12.93 L201.13 11.39 L213.07 11.93 L215.93 11.38 L216.89 10.97 L219.45 9.13 L220.6 7.76 L222 4.6 L222.95 3.32 L225.27 2.15 L237.58 0 L240.29 0.59 L263.88 10 L287.47 19.41 L288.23 19.84 L288.75 20.3 L289.3 20.55 L290.17 20.31 L294.99 17.59 L296.59 17.26 L301.12 18.25 L302.62 18.57 L308.18 21.79 L319.88 32.96 L333.49 47.94 L340.27 60.47 L342.33 64.28 L347.27 70 L350.29 72.82 L353 74.84 L355.54 75.82 L358.32 76.13 L364.52 76.1 L366.02 75.85 L366.5 75.77 L368.29 74.88 L372.23 71.39 L377.3 65.39 L379.16 65.03 L387.85 66.63 L390.84 66.65 L393.45 65.8 L423.75 47.43 L426.59 46.16 L429.45 45.88 L450.58 48.9 L452.88 49.79 L453.84 50.52 L455.79 52.4 L458.09 53.83 L460.91 56.06 L462.12 56.64 L464.59 57.31 L464.68 57.35 L465.77 57.87 L466.88 58.84 L468.95 61.35 L477.27 68.98 L477.88 69.37 L478.72 69.69 L479.04 69.73 L479.38 69.49 L480.33 69.01 L481.29 68.7 L483.35 68.45 L484.34 68.45 L486.59 68.94 L488.58 69.9 L492.23 72.66 L493.85 74.46 L496.25 78.44 L497.68 80.19 L500.74 81.97 L522.69 88.5 L525.62 88.84 L549.91 91.69 L553 91.69 L557.45 90.43 L558.96 90.33 L576.66 92.41 L578.42 92.28 L579 92.04 L579.9 91.44 L580.86 90.61 L581.44 89.92 L595.74 72.93 L598.53 70.26 L600.14 69.22 L601.02 68.91 L601.45 68.97 L601.78 68.91 L602.45 68.22 L602.83 67.36 L603.15 65.27 L603.5 64.38 L604.98 62.94 L620.78 54.03 L624.26 52.56 L664.8 43.81 L667.06 43.32 L675.08 42.67 L690.23 44.45 L730.81 44.24 L756.01 50.66 L765.22 54.43 L776.81 61.56 L780.65 64.62 L782.29 65.44 L787.19 66.63 L789.95 66.4 L791.13 66.19 L792.88 64.99 L794.27 64.7 L798.47 66.19 L799.42 66.72 L799.74 67.29 L799.77 67.76 L799.92 68.09 L800.58 68.2 L800.89 68 L801.26 67.56 L801.78 67.15 L802.57 67.04 L803.4 67.51 L804.02 68.26 L804.63 68.69 L805.42 68.2 L806.78 68.6 L809.72 68.71 L812.01 68.79 L813.93 69.1 L815.52 69.66 L816.88 69.94 L818.04 69.37 L818.42 68.36 L819.14 63.8 L819.52 63.49 L821.4 63.14 L822.03 62.95 L822.7 62.19 L823.15 61.27 L823.68 59.38 L822.35 58.89 L822.92 57.61 L824 56.05 L824.24 54.66 L827.29 51.77 L827.72 51.47 L828 51.96 L828.59 51.77 L829.17 51.35 L829.72 50.76 L829.89 50.25 L829.99 48.87 L830.88 49.55 L831.59 50.3 L832.42 50.9 L833.69 51.15 L834.42 50.7 L834.99 48.73 L835.97 48.28 L837.85 47.85 L839.22 46.77 L841.37 44.13 L841.93 42.71 L842.04 42.67 L842.27 42.33 L842.76 42.7 L843.24 43.29 L843.42 43.6 L844.59 43.5 L844.56 43.17 L844.03 42.54 L843.7 41.53 L843.94 41.22 L845.05 40.82 L845.41 40.62 L845.62 40.56 L846.35 40.67 L846.6 40.62 L846.66 40.39 L846.54 39.69 L846.6 39.45 L848.91 36.85 L850.01 35.94 L849.48 35.25 L848.96 34.74 L848.37 34.39 L847.68 34.19 L847.68 33.55 L848.97 33.91 L850.04 34.43 L850.8 34.36 L851.14 32.96 L853.47 33.49 L855.77 33.04 L863.26 29.26 L865.4 28.47 L867.7 28.28 L867.7 28.82 L867.24 29.65 L868.18 30 L869.75 29.92 L871.12 29.45 L871.15 29.75 L871.12 30.68 L871.74 30.06 L872.36 28.63 L872.83 28.28 L873.63 28.44 L873.82 29.13 L873.63 29.99 L873.34 30.68 L875.57 29.67 L877.82 29.25 L879.84 28.5 L881.36 26.53 L880.18 26.37 L880.01 25.96 L880.78 24.77 L881.15 24.63 L881.73 24.67 L882.27 24.54 L882.5 23.86 L882.38 23.38 L881.96 22.77 L881.98 22.43 L882.43 21.56 L883.01 20.79 L886.33 17.65 L887.6 16.75 L887.55 15.28 L888.32 14.66 L890.74 14.25 L890.83 14.24 L911.44 15.12 L930.51 41.96 L949.58 68.76 L954.26 91.52 L958.95 114.26 L959.06 120.86 L959.19 121.27 L959.62 122.68 L959.59 124.31 L959.09 126.92 L959.15 127.92 L959.91 129.22 L961.02 129.89 L962.3 130.16 L979.43 130.69 L984.76 132 L987.04 133.21 L987.3 134.08 L986.87 135.34 L987.04 136.13 L987.63 136.73 L990.1 138.6 L991.02 138.99 L991.02 139.62 L990.7 139.75 L989.88 140.2 L991.52 141.39 L993.2 142.28 L994.51 143.38 L995.06 145.15 L995.53 145.55 L996.61 145.16 L997.77 144.55 L998.47 144.28 L999.46 144.81 L999.86 145.62 L1000 146.53 L998.39 148.18 L998.18 148.71 L997.77 149.22 L997.27 150.21 L995.83 156.32 L996.02 157.22 L994.53 158.2 L994.69 159.84 L996.27 163.51 L996.42 164.44 L996.43 165.05 L996.12 167.91 L995.18 170.6 L993.39 179.27 L992.77 180.7 L989.72 184.76 L989.33 185.51 L989.45 186.25 L990.21 187.28 L990.54 187.41 L991.96 187.39 L992.58 187.77 L992.93 188.32 L993.22 188.92 L993.66 189.49 L995.02 190.87 L995.95 192.32 L996.43 194.03 L996.47 196.18 L996.16 197.96 L995.52 200.07 L994.65 202.11 L993.65 203.66 L992.22 204.44 L987.92 206.01 L986.17 207.08 L983.11 209.84 L981.36 210.87 L976.42 212.43 L974.86 213.31 L967.43 220.21 L966.78 220.48 L964.53 220.75 L963.51 221.19 L961.22 223.58 L959.73 224.68 L957.96 225.6 L956.11 226.08 L954.38 225.83 L948.54 223.32 L945.26 222.37 L942.69 222.38 L939.49 224.98 L936.35 228.18 L933.6 231.71 L931.6 235.27 L930.17 238.65 L929.17 239.96 L926 241.81 L924.66 242.97 L923.74 244.43 L923.37 246.17 L923.92 249.39 L923.32 250.73 L922.87 251.75 L908.02 273.08 L905.73 277.97 L902.6 288.57 L899.76 304.57 L897.9 309.83 L897.87 310.93 L898.44 312.65 L898.58 313.63 L898.4 314.77 L897.07 317.62 L896.1 318.89 L894.32 320.25 L893.55 320.71 L892.36 321.42 L890.81 322.1 L884.27 322.81 L881.49 323.89 L880.01 326.77 L880.03 328.46 L881.03 331.23 L881.36 332.85 L881.02 334.86 L879.05 337.97 L878.42 339.68 L878.55 341.6 L879.41 342.95 L881.83 345.48 L882.74 347.38 L882.53 348.74 L881.75 350.13 L880.94 352.15 L879.86 357.85 L879.45 363.33 L877.11 369.32 L871.69 371.49 L865.13 372.51 L859.36 375.04 L858.24 375.93 L855.83 379.05 L854.91 379.98 L854.22 380.45 L849.33 382.78 L848.78 383.19 L848.19 384.72 L848.59 385 L850.96 385.37 L851.76 387.08 L852.44 389.62 L852.36 392.96 L852.04 394.52 L851.52 395.97 L847.67 402.92 L846 406.94 L845.91 410.35 L846.51 413.43 L844.63 429.32 L843.7 432.94 L841.9 435.43 L840.79 435.91 L839.76 435.89 L838.7 435.7 L837.51 435.65 L836.56 436.12 L835.96 437.11 L835.23 439.5 L834 442.21 L832.52 443.84 L823.99 448.37 L822.7 448.67 L821.47 448.43 L818.78 447.2 L817.7 446.88 L816.18 447.06 L815.14 447.61 L814.18 448.29 L812.86 448.86 L811.7 448.97 L810.51 448.78 L808.22 448.04 L808.9 449.26 L810.86 454.03 L811.09 455.23 L811.14 457.56 L810.42 458.34 L807.91 460.09 L807.28 460.95 L806.75 461.97 L806.09 462.94 L805.1 463.65 L803.34 463.9 L800.14 463.36 L798.32 464.12 L796.41 466.85 L795.76 470.49 L795.97 474.32 L797.29 481.12 L797.22 482.79 L796.96 483.51 L796.58 484.6 L793.18 489.46 L792.7 491.51 L792.71 494.78 L793.17 498.01 L793.74 500.08 L793.97 501.47 L793.49 502.69 L790.34 506 L782.06 517.56 L779.07 523.03 L778.5 524.76 L778.24 526.61 L778.38 528.38 L779.57 533.31 L779.24 535.02 L778.2 535.98 L776.89 536.89 L774.66 540.22 L769.45 545.34 L764.54 550.14 L759.38 557.86 L757.69 559.46 L756.2 560.58 L755.53 561.33 L756.02 561.82 L758 562.19 L759.17 563.19 L763.31 569.21 L766.56 572.76 L767.59 574.87 L766.84 576.78 L766.03 577.11 L765.33 576.91 L764.58 576.56 L763.65 576.47 L762.51 576.82 L761.56 577.4 L758.01 580.62 L756.77 581.43 L756.53 582.18 L756.39 582.99 L755.9 583.65 L755.34 583.85 L754.04 583.9 L753.11 584.13 L752.25 584.04 L751.86 584.14 L751.52 584.54 L751.22 585.64 L750.91 586.07 L746.09 589.12 L740.96 593.84 L739.45 595.97 L738.99 598.22 L739.53 599.48 L741.36 601.56 L741.77 603.06 L741.55 605.34 L741.01 607.57 L738.6 613.23 L736.63 615.98 L734.36 617.25 L731.07 617.58 L728.88 619.36 L727.63 622.2 L727.12 625.68 L726.59 627.59 L724.96 629.11 L722.83 630.17 L720.77 630.66 L719.86 630.61 L718.05 630.16 L717.13 630.08 L716.82 630.26 L715.94 631.06 L715.44 631.27 L714.84 631.19 L713.9 630.6 L713.46 630.45 L711 630.71 L705.84 631.25 L703.6 630.94 L702.23 629.67 L700.6 625.68 L699.19 619.2 L698.93 615.92 L699.06 612.59 L698.81 608.59 L697.2 605.22 L694.36 602.98 L686.59 601.55 L683.93 598.88 L682.26 595.21 L681.49 591.39 L680.13 588.04 L677.4 586.18 L670.55 583.6 L664.72 580.49 L662.52 579.77 L661.02 578.56 L660.57 574.43 L659.03 572.45 L657.82 574.82 L656.79 577.87 L656.08 581.03 L655.59 587.46 L655.24 587.74 L654.76 587.85 L654.24 588.24 L653.21 589.62 L652.53 590.76 L652.19 592.07 L652.14 593.96 L630.67 594.27 L628.37 593.58 L626.62 592.22 L625.75 590.58 L624.56 584.4 L623.88 583.04 L622.71 582.79 L620.76 583.91 L600.35 601.26 L598.4 602.09 L596.78 601.61 L595.16 600.81 L593.18 600.67 L591.62 602.43 L585.3 622.52 L585.22 622.78 L584.18 623.6 L581.2 623.62 L580.19 623.63 L577.72 624.13 L576.48 625.17 L574.53 628.87 L573.21 630.17 L571.51 631.02 L568.18 632.26 L567.68 632.45 L565.23 633.98 L562.7 638.87 L560.38 640.28 L559.06 640.36 L558.01 640.27 L557.03 640.37 L555.88 641 L554.74 642.3 L552.37 647.34 L550.24 650.33 L538.81 659.57 L531.12 667.59 L531.12 667.6 L529.33 670.19 L528.28 671.31 L526.95 672.01 L526.5 672.58 L526.32 674.96 L526.02 676.06 L524.54 676.24 L522.73 675.58 L520.94 675.33 L519.51 676.7 L518.39 678.12 L515.45 680.1 L514.56 681.48 L514.72 683.18 L515.61 684.51 L516.34 685.97 L515.97 688.07 L514.51 689.87 L513.04 690.96 L512.4 692.17 L513.49 694.28 L515.17 695.92 L517.03 697.36 L518.6 699.01 L519.45 701.24 L519.08 703.26 L517.82 704.9 L516.25 706.4 L515 708.03 L514.48 709.84 L514.6 711.48 L514.9 713.1 L514.94 714.87 L514.39 716.74 L512.6 720.28 L512.06 722.3 L512.16 723.41 L512.85 725.43 L512.93 726.32 L510.7 737.69 L510.1 738.77 L509.23 739.17 L508.25 739.34 L507.32 739.76 L506.48 740.66 L504.86 743.14 L504.35 744.26 L503.11 747.91 L502.34 749.56 L501.1 751.3 L501.1 751.31 L497.83 756.5 L497.32 758.01 L495.04 759.69 L494.31 760.98 L494.58 762.76 L494.83 763.91 L495.14 765.11 L493.72 766.5 L493.64 766.5 L493.67 766.48 L493.5 766.09 L492.93 765.7 L492.18 765.52 L491.51 765.84 L490.63 766.57 L489.89 767.43 L489.56 768.09 L489.4 768.82 L488.66 770.43 L488.44 771.28 L488.5 772.11 L489.05 773.32 L489.01 774.08 L488.27 775.4 L487.32 775.8 L486.2 775.63 L484.96 775.22 L484.58 775.32 L483.78 775.39 L483.21 775.17 L483.57 774.37 L483.92 773.82 L484.31 772.93 L484.49 772.11 L484.14 771.75 L483.39 771.94 L481.78 772.75 L480.69 772.94 L478.22 772.02 L478.07 769.72 L478.89 766.74 L479.28 763.81 L478.76 763.81 L478.21 766.66 L476.37 768.13 L473.99 768 L471.82 766.03 L472.09 765.71 L472.44 764.9 L471.79 764.73 L470.12 763.81 L470.5 762.68 L469.82 761.74 L467.56 760.04 L465.57 758.93 L465.47 758.85 L465 757.47 L464.06 755.67 L463.46 754.92 L462.43 754.62 L461.52 754.22 L460.51 753.32 L459.68 752.36 L459.26 751.77 L458.74 751.77 L458.74 752.28 L463.31 756.6 L464.43 758.04 L466.6 762.03 L466.92 763.98 L465.57 764.9 L466.11 766.04 L466.95 767.37 L467.9 768.48 L468.7 768.94 L469.53 769.67 L470.79 773.27 L471.82 774.66 L471.53 775.18 L470.87 777.05 L470.75 777.82 L471.08 779.02 L471.89 779.49 L472.83 779.77 L473.58 780.42 L473.83 782.37 L472.54 783.54 L470.92 784.52 L470.12 785.87 L468.98 788.41 L468.17 788.8 L467.38 788.95 L463.75 788.95 L459 788.41 L451.87 788.41 L448.39 787.9 L446.79 787.95 L444.01 789.4 L442.4 789.6 L438.73 789.6 L424.49 791.26 L423.7 790.79 L422.65 790.66 L421.66 790.99 L421.03 791.88 L421.92 791.84 L422.69 791.93 L423.34 792.13 L423.87 792.46 L422.08 792.93 L419.38 793.07 L416.94 792.68 L415.86 791.57 L414.7 791.27 L407.32 790.75 L407.6 790.39 L407.75 790.12 L407.98 789.88 L408.45 789.6 L407.39 789.28 L406.42 789.42 L405.73 789.37 L405.56 788.41 L405.85 787.92 L406.42 787.54 L406.99 787.05 L407.32 786.18 L407.07 785.76 L405.56 783.84 L405.81 783.52 L406.18 782.7 L404.92 781.25 L405.2 779.13 L406.7 775.22 L406.18 775.22 L405.24 775.92 L404.77 776.26 L404.16 777 L403.9 777.82 L404.09 779.06 L404.35 779.98 L404.34 780.81 L403.65 781.81 L403.63 782.34 L404.77 783.7 L405.04 784.41 L404.77 784.62 L403.39 786.18 L402.61 786.79 L401.66 787.32 L400.71 787.41 L399.91 786.69 L399.34 786.69 L398.62 788.42 L396.81 788.23 L393.92 786.69 L391.84 786.58 L389.67 786.15 L387.83 785.28 L386.78 783.84 L386.27 784.16 L385.7 784.33 L384.2 784.41 L383.93 784.67 L383.83 785.25 L383.55 785.85 L382.75 786.18 L382.75 786.69 L383.3 787.03 L383.89 787.32 L383.38 787.84 L384.45 788.23 L385.87 789.37 L388.15 789.84 L388.55 790.41 L388.43 791.15 L387.92 791.88 L384.2 792.46 L383.79 792.01 L381.92 789.29 L376.65 783.53 L375.92 781.81 L375.92 779.54 L375.69 778.75 L375.14 778.74 L373.96 779.32 L372.15 779.33 L371.87 779.22 L371.18 778.45 L369.68 777.22 L369.04 776.37 L367.67 772.57 L366.76 771.28 L366.65 772.1 L366.23 772.91 L365.8 773.47 L365.58 773.56 L365.81 774.41 L366.25 774.56 L366.8 774.63 L367.33 775.22 L368.16 778.11 L368.94 779.33 L370.46 779.85 L373.05 781.15 L374.92 784.01 L375.22 786.77 L373.07 787.84 L374.14 788.61 L375.41 789.82 L376.16 791.27 L375.63 792.74 L373.33 795.32 L371.91 795.95 L370.18 795.26 L370.14 796.55 L370.18 796.97 L368.63 796.26 L367.49 795.33 L366.99 794.1 L367.33 792.46 L366.22 793.45 L366 794.85 L366.46 796.33 L367.33 797.59 L365.06 798.16 L364.44 798.16 L363.44 796.22 L362.94 794.12 L362.72 789.86 L361.36 787.58 L360.96 786.18 L361.9 785.56 L362.26 784.87 L362.69 783.31 L362.92 781.58 L362.72 780.42 L363.15 780.62 L363.93 780.76 L364.44 780.94 L363.89 780.01 L362.22 778.13 L361.86 777.21 L361.45 775.4 L361.08 774.66 L359.52 776.8 L358.99 776.78 L358.65 775.42 L357.67 773.56 L357.26 774.84 L357.46 776.83 L357.1 777.51 L358.02 778.86 L359.88 783.84 L359.02 783.84 L358.43 783.74 L358 783.42 L357.67 782.7 L357.33 782.93 L356.53 783.27 L355.79 781.65 L354.91 780.23 L352.49 777.51 L352.66 778.91 L353.07 780.02 L354.24 782.07 L354.93 782.94 L355.24 783.46 L355.39 784.12 L355.07 784.84 L354.49 785.25 L354.21 785.74 L354.82 786.69 L355.65 785.4 L357.2 785 L358.69 785.37 L359.37 786.44 L358.57 792.19 L358.74 794.16 L361.69 800.04 L362.75 801.38 L362.62 802.18 L362.13 802.99 L361.33 803.35 L360.24 803.2 L359.34 802.81 L357.79 802.1 L357.83 802.48 L357.95 802.86 L358.24 803.35 L356.4 802.77 L354.57 801.93 L352.7 801.51 L350.78 802.21 L349.83 801.24 L349.18 799.91 L349.05 798.42 L349.64 796.97 L348.22 796.23 L346.93 794.04 L346.02 791.4 L345.66 789.29 L345.82 787.78 L346.23 786.95 L346.8 786.36 L347.42 785.56 L347.8 784.71 L348.14 783.37 L347.9 782.11 L346.52 781.56 L344.38 780.34 L342.9 777.54 L341.63 772.37 L341.38 770.31 L341.67 769.25 L342.53 768.09 L343.1 767.07 L342.89 766.35 L342.13 766.29 L341.1 767.23 L340.31 766.28 L340.04 765.68 L339.92 764.9 L339.2 765.26 L338.51 765.38 L337.8 765.26 L337.07 764.9 L337.44 766.31 L337.6 767.82 L338.01 769.02 L339.07 769.52 L339.81 770.15 L340.41 771.64 L341.1 774.66 L341.43 777.78 L341.79 779.23 L342.53 779.85 L343.59 780.41 L344.68 781.72 L346.23 784.41 L344.36 786.01 L343.95 786.69 L343.79 787.87 L345.45 796.09 L346.28 798.55 L347.42 799.88 L347.24 801.82 L348.94 803.29 L350.01 804.5 L347.94 805.63 L345.33 806.1 L341.99 806.33 L338.91 806.05 L337.07 805.01 L336.82 803.81 L337.14 798.87 L337.54 798.27 L337.64 797.88 L337.46 797.44 L336.69 796.79 L336.5 796.45 L336.5 793.54 L336.81 792.19 L338.68 787.19 L338.86 786.3 L338.78 783.84 L337.2 785.79 L335.93 789.31 L335.37 793.1 L335.93 795.88 L335.57 796.57 L335.53 798.22 L335.37 799.31 L334.59 797.42 L334.33 796.27 L334.1 791.14 L333.66 790.12 L333.34 790.69 L332.96 791.17 L332.51 791.56 L331.95 791.88 L332.39 793.07 L332.47 796.97 L332.8 798.33 L333.81 800.14 L334.48 801.75 L335.32 804.64 L335.37 805.63 L334.75 806.52 L333.9 806.82 L331.33 806.78 L328.98 807.01 L328.49 806.51 L327.59 803.81 L327.34 801.23 L327.45 797.42 L327.1 794.36 L325.84 792.2 L323.31 792.46 L325.64 794.3 L326.47 797.24 L326.17 800.64 L325.07 803.87 L324.91 806.66 L320.76 807.65 L315.92 807.18 L313.63 805.63 L312.52 805.83 L311.42 806.15 L312.05 807.72 L310.68 808.24 L308.6 808.38 L307.06 808.78 L305.46 809.48 L301.63 809.58 L299.98 810.2 L298.01 807.87 L299.7 804.32 L305.15 798.16 L304.06 798.07 L303.39 797.91 L302.87 797.89 L302.21 798.16 L299.36 801.59 L298.98 797.08 L297.65 793.03 L297.13 793.03 L297.04 794.69 L297.19 796.81 L297.58 798.89 L298.22 800.4 L297.4 799.58 L296.71 798.67 L295.76 797.93 L294.24 797.59 L295.14 799.54 L296.05 800.84 L296.62 802.23 L296.51 804.44 L295.97 806.08 L295.37 807.3 L294.85 807.68 L294.16 807.9 L293.66 808.39 L293.67 809.58 L294.34 809.25 L294.87 809.25 L295.99 809.58 L295.53 810.37 L293.17 811.17 L290.07 811.34 L287.98 810.77 L287.69 811.17 L287.15 811.56 L286.84 811.91 L285.49 811.41 L284.75 810.56 L284.46 809.39 L284.52 807.87 L284.86 806.48 L285.98 804.49 L286.21 803.35 L285.83 803.51 L284.91 803.73 L284.52 803.87 L284.53 802.55 L284.83 800.29 L283.92 800.19 L283.05 799.97 L282.06 799.56 L281.05 799.88 L280.79 800.73 L280.95 801.96 L281.32 803.14 L281.67 803.87 L281.32 804.97 L281.76 805.88 L282.44 806.87 L282.81 808.18 L282.58 809.98 L281.93 809.89 L280.95 809.03 L279.69 808.49 L277.84 808.4 L277.18 807.96 L277.06 805.01 L277.56 804.88 L277.71 804.63 L276.62 803.01 L276.49 802.73 L276.39 801.31 L276.49 799.88 L275.99 799.88 L275.36 802.73 L274.93 802.36 L273.65 801.59 L274.91 804.44 L275.17 805.84 L274.22 806.78 L272.96 806.64 L271.68 805.81 L270.61 804.88 L269.95 804.44 L268.26 803.83 L266.4 802.29 L265.41 800.25 L266.26 798.16 L265.32 798.09 L264.73 798.35 L264.48 798.95 L264.55 799.88 L264.03 799.88 L262.67 798.48 L259.3 796.55 L258.29 795.26 L258.87 795.62 L259.97 796.11 L260.56 796.45 L259.92 795.4 L258.91 794.91 L257.74 794.62 L256.58 794.16 L254.8 792.23 L254.16 791.34 L251.94 789.05 L251.41 788.69 L243.67 781.45 L241.34 778.21 L240.54 774.66 L240.89 774.77 L241.15 774.88 L241.73 775.22 L241.72 773.67 L238.07 771.42 L237.13 769.8 L236.72 768.46 L234.63 764.85 L233.72 763.81 L236.56 765.52 L235.85 763.52 L233.18 760.52 L230.87 754.05 L230.13 750.14 L229.68 748.85 L228.62 746.66 L228.17 745.4 L227.97 744 L227.71 743.36 L227.12 742.72 L226.54 741.87 L226.26 740.54 L226.67 739.53 L227.67 739.13 L228.97 739.23 L230.25 739.66 L231.15 740.41 L232.66 742.49 L233.72 743.14 L232.45 739.86 L231.95 738.57 L233.73 738.75 L235.42 739.14 L234.81 738.15 L232.53 735.64 L231.67 735.14 L231.36 735.49 L231.43 737.02 L231.13 737.37 L230.34 737.4 L229.76 737.49 L228.54 737.94 L227.44 737.47 L225.44 737.81 L224.56 737.37 L224.4 736.69 L224.56 733.67 L224.19 729.8 L222.45 722.27 L222.91 721.16 L224.85 720.75 L230.37 720.64 L231.95 720.18 L232.17 720.96 L232.39 721.51 L233.1 722.52 L233.77 721.98 L234.4 720.73 L234.86 720.18 L235.34 719.85 L238.24 718.71 L239.61 718.46 L240.87 718.51 L241.73 719.08 L242.26 719.08 L241.63 718.02 L239.63 716.28 L238.84 715.04 L238.53 713.87 L238.43 712.5 L238.59 711.18 L239.12 710.18 L240.23 709.46 L241.49 709.21 L244.27 709.27 L245.27 708.79 L246.25 707.7 L247.43 705.84 L246.09 706.39 L244.98 707.37 L243.78 708.01 L242.26 707.55 L242.03 707.96 L241.5 708.33 L241.11 708.75 L239.18 708.32 L237.19 709.32 L236.03 711.17 L236.56 713.33 L235.6 715.36 L234.51 716.61 L233.15 716.92 L231.39 716.18 L230.9 715.61 L230.76 715.07 L230.44 714.67 L229.4 714.52 L228.96 715 L229.19 716.09 L229.72 717.24 L230.25 717.95 L225.43 717.67 L216.03 714.52 L215.64 714.07 L215.26 713.16 L214.94 712.7 L212.31 710.28 L210.6 709.08 L209.98 707.29 L209.8 705.51 L210.03 704.69 L210.59 704.38 L211.95 702.91 L212.67 702.4 L213.28 702.29 L221.44 702.64 L224.54 703.15 L226.26 704.13 L226.83 704.13 L227.65 702.94 L229.03 699.95 L229.68 698.98 L230.76 698.51 L232.08 698.54 L233.35 698.92 L234.24 699.55 L234.46 700.16 L234.93 702.01 L235.14 702.4 L236.01 702.36 L236.44 702.12 L236.57 701.61 L236.56 700.69 L235.94 699.38 L234.53 697.95 L232.84 696.76 L231.39 696.12 L229.8 696.15 L229.01 696.99 L227.97 699.55 L227.1 700.34 L225.74 701 L224.22 701.36 L222.85 701.27 L221.27 700.38 L220.59 699.19 L220.61 697.76 L222.17 693.2 L222.36 691.96 L222.23 690.4 L221.71 690.4 L219.43 696.64 L218.53 698.29 L217.45 699.36 L216.02 699.95 L214.02 700.12 L213.12 700.36 L211.17 701.5 L209.07 702.29 L208.56 702.05 L207.44 701.27 L206.17 700.11 L204.86 698.47 L203.82 696.74 L203.04 694.38 L202.25 693.22 L201.48 691.72 L201.18 689.77 L201.38 688.09 L201.88 686.2 L202.66 684.65 L203.68 684 L204.64 684.33 L206.3 685.66 L206.93 685.82 L207.36 685.29 L207.18 684.54 L206.85 683.69 L206.93 682.86 L209.55 680.56 L216.38 678.06 L218.3 674.85 L216.56 675.16 L213.71 677.72 L210.41 678.72 L204.09 682.05 L202.89 682.93 L198.68 686.88 L197.82 686.8 L194.71 679.96 L184.59 666.77 L182.88 665.17 L179.61 663.76 L178.09 662.04 L175.99 658.73 L173.08 655.68 L170.51 653.61 L164.25 649.65 L161.49 647.9 L156.37 643.09 L153.18 641.04 L151.84 640.45 L144.55 637.24 L139.25 636.25 L121.24 632.92 L99.94 631.14 L64.38 632.92 L62.51 632.61 L61.49 631.87 L60.67 630.93 L59.49 630.05 L60.27 629.65 L60.84 629.51 L61.32 629.64 L61.82 630.05 L63.12 628.86 L63.6 629.31 L63.77 630.58 L64.1 631.83 L67.03 629.13 L67.52 629.19 L67.8 629.86 L68.45 629.89 L69.53 629.48 L71.12 629.44 L72.53 629.19 L73.82 628.51 L74.96 627.19 L75.12 626.28 L74.93 625.34 L74.98 624.62 L75.82 624.32 L79.2 624.32 L80.98 623.97 L84.65 622.79 L85.77 623.13 L87.64 622.39 L89.31 621.39 L90.49 620.05 L90.94 618.26 L91.97 617.85 L98.91 616.83 L98.28 616.33 L97.75 616.1 L97.24 616.09 L96.63 616.25 L91.89 615.13 L87.21 616.92 L82.74 619.51 L78.69 620.84 L77.17 620.85 L76.31 620.97 L73.38 622.54 L72.42 622.88 L71.44 623.07 L70.36 623.13 L70.16 622.93 L69.1 622.56 L68.09 622.61 L67.55 622.19 L67.29 621.92 L66.95 620.84 L66.86 619.81 L67.44 618.01 L67.52 616.83 L66.09 617.66 L65.08 618.54 L63.24 620.55 L62.57 620.81 L61.69 620.84 L60.95 621.03 L60.63 621.72 L60.76 622.31 L61.22 623.55 L61.25 624.32 L60.92 625.22 L59.74 627.02 L59.49 628.03 L59.17 628.62 L58.57 629.08 L58.23 629.59 L58.67 630.34 L59.07 630.78 L59.3 631.21 L59.43 631.71 L59.87 632.11 L59.46 633.98 L54.6 634.51 L45.26 634.06 L34.28 635.34 L21.39 634.7 L2.73 636.44 L2.76 631.33 L3.4 627.58 L3.7 625.86 L3.98 625.04 L5.52 620.53 L5.69 618.76 L4.98 615.22 L5 613.5 L5.96 611.7 L7.47 610.35 L8.49 609.67 L8.96 608.73 L8.68 604.85 L8.52 604 L8.03 603.62 L6.99 603.53 L6.14 603.27 L5.44 602.76 L4.8 601.91 L4.38 600.25 L4.6 598.44 L5.49 594.92 L5.07 591.4 L3.95 588.18 L3.67 585.13 L5.83 582.11 L6.8 581.65 L7.87 581.33 L8.73 580.88 L9.05 579.97 L8.57 579.18 L6.38 577.37 L5.67 576.47 L5.35 575.38 L5.44 574.8 L5.8 574.24 L6.56 572.64 L7.23 571.78 L7.5 570.98 L7.59 569.82 L5.84 549.15 L6.05 548.22 L6.68 547.85 L7.55 547.86 L9.35 548.22 L9.62 548.05 L9.68 547.58 L9.88 546.83 L10.1 543.31 L8.26 540.23 L5.8 537.28 L4.13 534.16 L3.69 530.86 L3.88 528.1 L4.68 516.77 L4.44 515.56 L3.7 514.35 L1.71 512.11 L0.77 509.7 L0.09 508.67 L0.05 508.35 L0 507.97 L0.19 507.32 L1.04 505.72 L1.34 504.97 L1.65 499.67 L2.7 494.34 L2.89 489.3 L3.11 487.76 L3.76 486.34 L4.63 484.93 L5.28 483.39 L5.32 481.54 L4.75 479.75 L3.12 476.24 L2.47 474.38 L2.17 472.38 L2.27 470.76 L2.91 467.27 L2.91 466.49 L2.7 464.94 L2.72 464.19 L3.16 463.14 L4.82 461.25 L5.49 460.26 L6.14 457.42 L5.95 454.96 L4.32 434.41 L4.32 434.32 L4.34 433.42 L4.81 432.78 L6.22 432.14 L6.67 431.69 L6.77 430.95 L6.34 429.65 L6.24 428.9 L6.55 427.6 L7.59 425.2 L7.62 423.91 L7.3 423.32 L6.89 423.17 L6.54 422.99 L6.39 422.3 L6.6 422.12 L7.54 420.7 L7.8 420.19 L8.26 417.88 L8.44 412.53 L8.17 410.3 L14.6 410.83 L15.72 410.67 L16.52 410.07 L17.23 409.33 L18.11 408.75 L19.01 408.58 L21.57 408.5 L22.47 408.61 L23.39 409.04 L24.2 409.6 L25.03 410 L26 410 L31.7 408.51 L33.75 407.08 L35.02 404.44 L37.8 395.78 L39.51 392.5 L40.03 390.75 L40.04 385.26 L39.75 383.85 L38.69 381.2 L38.13 378.84 L38.46 376.5 L40.06 373.89 L40.66 373.44 L42.01 372.99 L42.63 372.44 L47.71 365.76 L47.81 365.32 L47.37 364.24 L47.26 363.67 L47.89 361.59 L49.24 361.18 L50.86 361.48 L52.34 361.57 L55.05 360.04 L55.63 357.83 L54.97 355.26 L53.95 352.65 L53.65 350.99 L53.84 349.07 L54.58 347.38 L55.92 346.38 L61.91 343.91 L65.16 343.04 L70.17 343.59 L71.65 342.2 L73.84 338.18 L76.54 334.94 L77.38 333.26 L77.9 326.03 L78.44 324.66 L79.74 323.42 L80.95 322.83 L81.99 322.05 L82.75 320.19 L82.82 319.72 L83.04 318.2 L82.8 316.88 L82.05 315.81 L76.39 309.94 L75.2 308 L75.12 306.42 L76.83 302.59 L78.93 299.33 L79.26 298.33 L79.35 296.66 L79.58 296.12 L80.13 295.33 L81.76 293.7 L83.4 293.17 L85.15 293.48 L90.49 296.29 L91.79 296.09 L93.06 294.5 L93.61 292.93 L93.7 288.56 L94.45 286.3 L96.58 282.07 L97.2 279.79 L97.19 277.19 L97.18 275.14 L96.76 272.67 L96 271.03 L94.94 270.42 L93.76 270.19 L92.69 269.87 L91.91 268.92 L91.12 266.14 L90.71 265.23 L90.08 264.5 L89.35 263.89 L88.68 263.18 L88.25 262.17 L88.36 260.7 L90.17 256.23 L90.26 253.73 L88.55 246.17 L88.55 246.15 L87.69 244.7 L87.07 243.14 L86.74 241.44 L86.74 239.61 L87.59 236.31 L86.89 235.63 L86.22 235.59 L86.12 235.59 L85.33 235.73 L84.65 235.62 L82.63 233.69 L67.69 212.52 L66.45 210.21 L66.31 208.25 L67.98 203.68 L68.5 202.38 L69.49 198.55 L75.28 188.64 Z M405.87 794.16 L408.63 793.88 L409.49 794.15 L409.02 795.26 L408.28 796.26 L406.83 796.58 L403.65 796.45 L402.37 796.67 L398.22 798.16 L396.77 798.31 L390.63 797.94 L389.35 797.29 L388.86 796.19 L389.63 794.69 L390.46 794.26 L394.49 793.03 L395.48 793.38 L398.44 794.91 L399.91 795.26 L401.43 795.09 L404.43 794.34 Z M383.63 793.54 L387.42 793.15 L388.49 793.54 L387.49 794.45 L386.97 795.44 L386.8 796.57 L386.78 797.88 L386.43 799.17 L385.64 799.99 L384.52 800.7 L383.34 801.19 L375.92 802.73 L373.09 802.47 L372.28 801.47 L373.09 799.89 L375.75 797.06 L377.63 794.16 L379.23 792.31 L379.58 791.51 L379.9 790.12 L381.04 790.82 L382.33 793.07 Z "/>
</g>
</svg>
