<svg xmlns="http://www.w3.org/2000/svg" viewBox="0 0 1000 1128.63">
<g fill="#ccc" stroke="#333" stroke-width="0.5" stroke-linejoin="round">
<path fill-rule="evenodd" d="M592.66 6.68 L746.9 24.66 L762.93 53.94 L932.23 524.59 L1000 662.33 L916.69 693.69 L862.28 744.57 L755.65 873.09 L507.41 1045.84 L462.23 1022.19 L414.62 1042.24 L307.51 1128.63 L288.8 1066.92 L241.44 1039.16 L175.13 1035.56 L99.83 1045.84 L118.78 1025.27 L134.08 1002.65 L153.02 980.54 L185.09 959.46 L157.4 854.58 L144.28 826.31 L0 778.5 L16.27 665.42 L144.28 463.95 L134.08 427.98 L112.46 394.57 L95.7 359.12 L99.83 312.87 L120.48 279.99 L143.55 273.82 L170.76 271.25 L205.49 246.59 L325.97 6.68 L517.61 0 Z "/>
</g>
</svg>
