<svg xmlns="http://www.w3.org/2000/svg" viewBox="0 0 1000 6987.59">
<g fill="#ccc" stroke="#333" stroke-width="0.5" stroke-linejoin="round">
<path fill-rule="evenodd" d="M314.06 6912.16 L362.37 6891.88 L390.82 6889.32 L401.77 6912.16 L398.48 6924.75 L393.01 6933.86 L384.26 6939.42 L370.62 6941.24 L359.68 6945.58 L352.44 6955.91 L346.21 6967.93 L338.13 6977.7 L318.43 6987.59 L307.58 6984.12 L297.39 6975.75 L278.79 6971.06 L248.4 6974.75 L231.82 6974.18 L224.66 6967.41 L236.45 6948.92 L263.89 6930.95 L294.02 6917.45 Z M770.79 5959.99 L776.26 5973.72 L774.83 5987.32 L771.46 6001.92 L770.79 6018.48 L775 6027.85 L789.14 6044.71 L792 6055.69 L785.35 6083.27 L769.19 6112.41 L748.57 6127.91 L728.54 6114.15 L723.74 6100.26 L719.7 6070.76 L713.72 6055.69 L701.01 6038.7 L698.23 6030.94 L699.58 6018.48 L711.62 5993.9 L733.33 5965.66 L756.06 5949.27 Z M916.16 5750.81 L929.88 5745.57 L945.88 5747.71 L953.28 5756.04 L940.99 5769.09 L929.21 5776.59 L921.21 5788.37 L903.79 5834.17 L904.46 5843.45 L912.71 5856.93 L907.83 5866.7 L901.43 5871.58 L893.69 5871.14 L884.43 5864.91 L871.8 5876.68 L865.4 5890.81 L866.08 5905.76 L873.82 5920.11 L879.71 5934.36 L865.15 5933.93 L847.05 5927.56 L842.17 5924.07 L819.19 5929.57 L810.35 5927.43 L806.82 5912.39 L808.59 5896.56 L820.96 5856.93 L822.14 5841.62 L821.63 5829.72 L823.48 5819.51 L831.31 5809.7 L836.78 5806.3 L856.31 5798.4 L859.85 5793.25 L860.52 5780.87 L862.63 5776.42 L875.34 5770.05 L902.27 5761.41 Z M835.1 4568 L843.52 4584.05 L836.87 4592.3 L822.22 4595.72 L793.35 4598.52 L779.8 4597.34 L767.17 4592.65 L756.82 4583.39 L751.01 4571.68 L752.27 4561.33 L760.86 4554.57 L777.86 4553.26 L791.33 4557.29 L823.15 4561.29 Z M898.85 2609.82 L940.82 2611.25 L954.55 2617.98 L965.15 2628.61 L969.19 2642.61 L965.57 2660.85 L956.06 2670.64 L943.52 2677.5 L930.81 2687.11 L885.44 2733.91 L870.45 2742.5 L845.45 2741.52 L838.81 2716.2 L866.16 2701.5 L877.8 2676.74 L883.94 2624.47 Z M785.61 2011.12 L758.59 1986.06 L755.53 1942.7 L773.96 1918.67 L813.22 1920.36 L827.27 1937.52 L833.59 1950.59 L835.27 1964.63 L835.1 1984.72 L830.56 1997.08 L818.69 2007.35 L802.78 2012.95 Z M917.59 4235.72 L896.72 4214.89 L914.14 4209.13 L933.42 4216.74 Z M985.61 3575.67 L965.91 3554.68 L981.73 3550.1 L999.24 3558.39 Z M984.85 3270.94 L962.04 3259.46 L956.57 3242.37 L964.14 3228.73 L981.06 3227.54 L993.86 3236.59 L1000 3249.39 L997.98 3262.11 Z M520.79 994.22 L506.48 985.68 L496.46 972.23 L496.46 959.76 L512.12 954.53 L525.25 959.4 L530.89 970.49 L529.21 983.63 Z M360.61 601.75 L349.49 597.85 L340.32 590.19 L335.77 579.67 L338.38 567.35 L348.23 556.91 L353.03 562.28 L355.05 573.04 L355.56 578.95 L362.37 577.83 L371.72 574.34 L379.88 572.59 L383.42 576.8 L381.31 585.85 L376.18 593.11 L368.77 598.53 Z M14.06 42.25 L3.11 31.82 L0 16.99 L4.8 4.32 L18.18 0 L30.72 6.83 L31.4 19.78 L24.49 33.21 Z "/>
</g>
</svg>
