<svg xmlns="http://www.w3.org/2000/svg" viewBox="0 0 1000 792.99">
<g fill="#ccc" stroke="#333" stroke-width="0.5" stroke-linejoin="round">
<path fill-rule="evenodd" d="M47.94 261.27 L56.97 270.93 L61.68 273.47 L68.04 273.13 L70.95 270.69 L75.18 262.75 L77.67 261.03 L81.34 263.31 L88.75 273.77 L92.5 276.54 L100.88 273.62 L105.34 268.61 L108.81 264.71 L115.3 253.49 L119.41 243.67 L119.63 241.88 L120.94 231.04 L119.78 226.1 L116.03 210.15 L116.51 198.24 L121.3 172.37 L125.21 161.06 L132.83 151.76 L142.82 146.04 L179.31 133.57 L206.98 124.11 L218.19 120.28 L228.06 115.31 L232.63 110.8 L245.67 97.93 L255.06 91.88 L258.08 91.96 L260.7 92.69 L265.93 95.58 L280.76 107.09 L294.58 120.7 L300.94 131.21 L304.53 138.76 L306.05 140.32 L309.36 143.72 L312.45 144.34 L329.26 147.73 L333.33 146.84 L333.92 143.15 L334.1 142 L333.74 131.35 L333.13 126.87 L331.96 124.04 L331.16 121.22 L331.64 116.58 L354.56 81.34 L357.23 79.16 L359.64 77.19 L366.45 76.62 L380.03 81.84 L384.22 81.41 L383.77 77.87 L380.95 73.25 L380.35 68.66 L386.75 65.07 L391.27 66.51 L394.89 70.26 L398.92 71.26 L400.64 69.15 L404.36 64.6 L411.29 69.4 L419.31 69.21 L435.66 64.92 L436.54 65.38 L440.82 67.63 L460.16 67.24 L473.81 71.03 L480.52 71.36 L486.42 67.63 L492.06 60.76 L497.14 57.66 L535.21 34.38 L543.07 32.58 L558.66 32.76 L561.4 32.08 L574.61 20.56 L578.8 18.58 L583.68 19.64 L604.5 30.44 L617.23 35 L624.17 35.81 L630.21 36.51 L643.7 34.02 L697.45 11.31 L707.72 0.65 L711.26 0 L713 2.56 L713.28 11.53 L714.41 15.35 L720.13 22.12 L726.37 26.9 L733.26 29.54 L740.96 30.01 L779.39 82.16 L794.13 93.26 L799.29 108.39 L804.07 116.61 L805.33 118.78 L813.47 127.03 L847.27 151.41 L850.94 153.29 L869.91 163.01 L881.56 165.47 L883.33 167.01 L884.78 169.31 L886.51 171.49 L889.09 172.53 L906.86 171.73 L910.85 172.17 L912.58 174.28 L913.5 177.73 L914.83 181.28 L917.9 183.68 L920.63 183.6 L926.6 181.51 L928.81 181.66 L933.2 184.6 L935.34 187.23 L936.09 190.93 L936.15 191.22 L936.47 198.16 L936.59 198.24 L939.65 203.93 L940.58 209.56 L941.26 222.15 L944.16 234.2 L948.35 246.16 L948.96 249.84 L948.8 257.57 L949.8 261.53 L950.3 262.09 L951.45 263.38 L956.01 265.84 L957.82 267.95 L960.28 274.15 L964.43 292.06 L972.77 311.74 L975.18 315.59 L979.45 317.51 L988.68 317.99 L992.83 319.95 L999.72 330.95 L1000 343.26 L995.73 355.4 L990.59 363.71 L987.15 369.26 L984.61 376.84 L983.4 379.44 L981.27 380.78 L975.14 382.56 L973.21 384.35 L971.36 390.33 L970.15 397.54 L969.78 405.04 L970.43 412 L971.68 414.97 L975.38 420.78 L976.27 424.31 L975.95 427.35 L974.06 435.99 L974.28 443.98 L975.3 480.39 L975.83 482.92 L978.08 488.21 L978.57 491.22 L977.6 493.67 L973.09 499.28 L971.84 502.48 L972.65 513.57 L974.62 524.47 L973.21 534.13 L963.9 541.43 L928.45 538.72 L917.06 540.77 L910.89 541.88 L903.61 548.32 L899.32 552.1 L895.7 566.72 L895.25 568.51 L893.64 609.55 L889.94 629.55 L885.46 640.01 L881.23 643.08 L876.16 640.54 L869.23 634.31 L866.21 630.22 L864.48 626.2 L862.64 623.76 L862.22 623.2 L857.71 622.08 L851.78 623.71 L850.46 627.49 L850.78 632.14 L849.89 636.37 L843.2 644.98 L836.52 650.6 L835.14 651.14 L829.14 653.51 L820.56 654.02 L807.83 652.1 L801.63 652.15 L794.13 654.42 L788.7 655.84 L782.45 656.53 L770.89 656.03 L766.46 654.34 L758.2 648.94 L754.65 647.2 L749.78 646.85 L739.91 648.62 L732.54 648.86 L729.27 650.97 L726.81 650.68 L726.01 648.89 L725.45 642.07 L724.44 640.06 L720.85 639.02 L708.97 637.49 L694.22 632.76 L689.74 632.2 L686.69 631.82 L677.87 632.6 L668.96 636.74 L654.94 649.53 L646.76 652.47 L643.86 651.37 L630.93 644.37 L629.97 642.9 L629.32 640.27 L628.11 637.79 L625.25 636.77 L623.64 637.76 L619.65 642.25 L617.8 643.64 L592.86 651 L581.02 657.44 L577.44 660.11 L571.03 664.9 L567.96 668.38 L566.39 673.29 L566.06 681.86 L565.99 683.55 L565.26 687.48 L559.95 695.44 L546.05 708.9 L540.77 718.53 L540.73 718.59 L540.69 718.64 L526.03 728.94 L522.16 733.79 L521.43 738.06 L521.39 743.64 L519.98 749.5 L515.07 754.57 L511.78 755.29 L503.95 757.02 L483.72 752.46 L472.73 757.5 L471.92 759.53 L471.07 766.19 L469.58 769.07 L467.65 769.76 L462.05 769.44 L459.79 769.79 L455.89 772.93 L446.78 782.02 L443.36 784.28 L432.48 782.15 L415.28 766.64 L413.8 766.44 L384.05 762.27 L374.51 762.46 L365.28 766.64 L351.1 780.79 L345.02 784.28 L331.8 787.08 L318.39 787.1 L312.49 785.86 L298.16 782.84 L288.01 782.28 L260.37 790.65 L203.13 792.99 L202.97 779.3 L199.78 769.6 L193.26 763.26 L173.88 757.47 L153.29 754.49 L152.95 754.57 L145.31 756.46 L132.34 767.39 L125.49 770.13 L115.66 767.95 L111.64 764.52 L106.44 760.09 L100.8 748.17 L93.26 718.48 L85.73 684.73 L81.74 676.39 L77.51 673.13 L74.05 672.62 L73.04 672.47 L68.13 672.71 L62.81 672.14 L59.74 670.7 L51.77 666.96 L49.03 659.93 L49.27 650.76 L47.3 639.07 L41.13 627.06 L26.71 606.58 L21.8 593.43 L15.19 565.45 L13.09 549.82 L13.23 548.79 L14.62 538.61 L20.22 540.38 L25.82 536.95 L30.9 530.51 L34.61 523.42 L37.35 514.75 L37.43 507.71 L36.99 506.54 L35.05 501.32 L30.42 494.71 L27.48 492.75 L20.99 491.7 L18.21 489.34 L17.44 486.52 L16.64 478.03 L15.35 474.02 L14.59 472.57 L10.39 464.5 L7.41 461.39 L3.06 459.4 L0.32 451.65 L1.45 437.61 L0 430.2 L19.02 426.03 L24.66 423.64 L29.89 420.46 L33.2 417.07 L35.29 411.65 L35.28 410.58 L35.25 407.09 L26.99 382.91 L25.02 371.77 L21.92 334 L23.04 328.5 L26.19 321.54 L30.01 316.47 L39.08 307.53 L41.62 302.95 L41.31 299.53 L40.65 292.14 L37.55 278.93 L37.67 276.09 L38.03 267.35 Z "/>
</g>
</svg>
