<svg xmlns="http://www.w3.org/2000/svg" viewBox="0 0 1000 1079.64">
<g fill="#ccc" stroke="#333" stroke-width="0.5" stroke-linejoin="round">
<path fill-rule="evenodd" d="M640.13 893.7 L631.42 898.24 L627.21 901.57 L626.24 904.12 L626.58 907.56 L627.88 914.3 L627.21 921.29 L625.21 927.36 L622.23 932.82 L618.66 937.93 L610.46 946.55 L600.61 952.92 L590.04 956.7 L579.54 957.53 L563.37 956.59 L553.19 958.73 L551.07 958.19 L549.17 956.27 L547.21 953.42 L545.94 952.56 L516.21 955.17 L507.16 957.92 L502.51 958.34 L487.9 953.9 L468.9 955.57 L463.99 955.04 L454.05 956.12 L443.72 960.32 L433.9 966.48 L425.45 973.45 L424.55 974.61 L422.65 977.03 L420.55 982.23 L417.42 989.98 L414.88 992.92 L408.94 997.54 L406.25 1000.28 L393.09 1020.44 L386.95 1025.34 L382.98 1026.85 L380.13 1027.17 L378.27 1028.52 L377.46 1033.18 L378.53 1049.97 L378.46 1050.01 L376.73 1052.56 L376.09 1055.54 L374.62 1055.78 L371.34 1057.79 L367.1 1060.39 L364.46 1059.77 L342.95 1045.96 L341.7 1044.82 L337.97 1038.38 L336.96 1037.49 L334.02 1037.91 L330.84 1038.93 L318.75 1045.39 L315.66 1046.53 L312.17 1046.94 L306.48 1046.77 L303.17 1047.49 L300.05 1049.61 L298.65 1051.07 L298.43 1051.68 L298.74 1052.42 L299.22 1055.45 L300.27 1059.51 L301.15 1061.58 L300.99 1064.24 L300.51 1066.96 L300.05 1068.36 L292.67 1066.91 L290.6 1059.02 L289.06 1055.32 L286.78 1055.54 L285.35 1054.96 L284.7 1050.58 L284.26 1041.62 L279.69 1044.92 L277.63 1044.8 L276.79 1040.89 L275.78 1038.69 L273.5 1036.19 L271.01 1034.18 L269.42 1033.5 L267.05 1035.5 L268.04 1037.96 L270.21 1040.05 L271.43 1040.89 L271.73 1042.87 L273.14 1048.15 L273.53 1050.94 L272.25 1049.67 L270.6 1048.48 L268.87 1047.53 L267.32 1046.94 L265.39 1046.69 L264.42 1046.81 L263.59 1046.64 L262.04 1045.49 L259.56 1042.75 L251.85 1030.7 L251.17 1028.78 L250.23 1027.37 L246.58 1026.58 L245.64 1025.8 L245.23 1024.36 L245.11 1022.16 L245.45 1018.49 L244.74 1017.72 L242.4 1017.49 L240.8 1017.1 L238.11 1015.34 L236.61 1014.81 L230.23 1014.5 L227.48 1013.93 L221.31 1010.99 L217.43 1010.09 L213.55 1010.03 L210.77 1011.42 L210.66 1014.57 L213.48 1017.85 L217.32 1020.44 L220.29 1021.49 L225.64 1020.71 L227.17 1021.78 L226.09 1025.61 L227.7 1024.93 L229.27 1024.5 L230.79 1024.66 L232.41 1025.61 L230.59 1028.11 L229.25 1030.95 L232.13 1030.94 L233.31 1030.51 L234.5 1029.49 L235.56 1030.95 L233.71 1032.77 L231.79 1034.26 L229.66 1035.39 L227.13 1036.15 L224.64 1036.04 L222.81 1034.74 L221.03 1032.85 L218.74 1030.95 L218.25 1035.45 L219.69 1040.05 L220.37 1044.39 L217.57 1048.15 L219.84 1050.45 L220.82 1050.94 L220.2 1052.78 L219.19 1053.53 L216.1 1053.61 L215.44 1054.16 L215.73 1055.44 L216.63 1057.59 L217.16 1060.44 L217.12 1062.15 L216.1 1062.92 L214.45 1062.85 L212.94 1062.49 L211.55 1061.73 L210.2 1060.39 L210.84 1059.94 L210.95 1059.75 L211 1059.53 L211.36 1058.93 L209.48 1057.91 L207.79 1057.78 L206.56 1058.77 L206.1 1060.99 L205.05 1061.16 L203.06 1060.75 L201.77 1059.26 L202.86 1056.15 L199.15 1059.53 L197.22 1064.35 L194.69 1068.81 L189.16 1071.03 L183.76 1071.17 L180.92 1071.69 L179.69 1072.91 L178.98 1076.14 L177.27 1078.76 L175.1 1079.64 L173.19 1077.56 L175.28 1067.48 L177.61 1063.02 L181.71 1064.26 L190.12 1060.39 L187.73 1058.99 L182.44 1059.99 L179.69 1058.93 L181.64 1056.15 L184.89 1053.56 L188.57 1051.68 L191.8 1050.94 L199.4 1052.82 L202.33 1051.92 L202.86 1046.94 L200.28 1048.04 L198.19 1047.65 L196.55 1046.21 L195.38 1044.15 L199.94 1039.05 L200.16 1036.99 L196.01 1036.15 L193.04 1035.07 L191.68 1033.02 L190.23 1031.89 L186.96 1033.5 L187.43 1034.24 L187.82 1035.48 L188.11 1036.15 L184.16 1036.14 L182.35 1036.53 L180.66 1037.49 L183.63 1038.69 L187.51 1040.86 L190.33 1043.68 L190.12 1046.94 L187.24 1044.46 L183.14 1042.62 L178.85 1041.9 L175.39 1042.83 L176.11 1044.27 L177.09 1045.43 L178.26 1046.3 L179.69 1046.94 L174.87 1050.99 L171.89 1052.86 L169.07 1053.61 L169.18 1053.23 L169.03 1052.37 L168.62 1051.45 L167.94 1050.94 L158.46 1050.94 L160.34 1048.01 L167 1043.72 L169.07 1040.16 L167.88 1036.81 L161.17 1033.02 L161.62 1029.49 L158.55 1030.1 L156.77 1032.9 L155.39 1036.52 L153.68 1039.55 L151.31 1041.39 L148.77 1042.2 L145.93 1042.21 L137.01 1040.74 L135.32 1040.16 L131.12 1036.63 L129.49 1036.15 L126.08 1035.86 L123.58 1034.71 L122.57 1032.27 L123.63 1028.16 L119.86 1030.52 L118.39 1030.95 L119.03 1027.61 L120.35 1025.53 L122.39 1024.46 L125.27 1024.15 L127.19 1023.45 L131.11 1020.52 L133.21 1020.15 L135.36 1021.06 L139.42 1023.62 L142.17 1024.15 L144.65 1024 L146.8 1023.42 L148.58 1022.21 L150.05 1020.15 L148.9 1018.69 L147.21 1019.99 L145.48 1020.25 L143.79 1019.57 L140.55 1016.64 L139.81 1016.44 L139.32 1015.86 L138.46 1013.34 L137.99 1009.56 L139.46 1008.13 L145.83 1008.01 L152.63 1006.67 L154.41 1007.39 L155.04 1009.06 L155.39 1010.89 L156.25 1012.14 L159.51 1012.4 L160.57 1005.78 L163.73 1004.12 L162.37 1001.08 L159.82 999.93 L153.68 1000 L150.9 999.55 L145.57 997.64 L143.22 997.19 L140.74 997.72 L133.21 1001.45 L125.76 1002.83 L123.63 1004.12 L111.97 997.19 L106.89 991.9 L103.87 990.56 L102.51 994.03 L100.82 995.37 L96.91 996.37 L89.77 997.19 L71.78 993.75 L70.27 991.72 L71.24 989.47 L74.97 987.95 L82.27 987.37 L85.35 985.78 L86.61 981.87 L87.65 981.36 L94.08 979.92 L95.21 978.38 L97.73 973.55 L99.35 971.88 L102.93 971.15 L105.41 972.95 L109.36 979.25 L110.91 978.55 L120.47 971.88 L116.56 970.23 L108.46 971.46 L104.07 968.42 L101.87 965.86 L101.53 964.32 L101.46 961.05 L103.01 948.66 L103.65 946.68 L110.45 936.1 L111.54 933.84 L113.42 927.95 L115.23 925.91 L116.4 925.42 L117.26 925.66 L117.67 927.04 L117.34 929.94 L119.27 927.78 L121.86 923.4 L124.07 918.61 L124.79 915.28 L123.82 913.29 L121.06 911.14 L120.47 909.17 L120.76 906.84 L121.1 905.18 L120.89 903.62 L118.6 901.63 L119.07 900.09 L121.2 899.98 L124.27 901.75 L126.05 900.57 L127.35 900.22 L128.17 902.11 L130.52 904.72 L133.84 901.66 L137.39 899.78 L141.28 902.39 L142.28 900.23 L142.21 896.53 L142.7 893.62 L140.98 891.94 L139.8 889.59 L139.51 887.21 L140.56 885.42 L142.75 886.2 L144.39 889.4 L145.68 892.24 L149.23 891.67 L149.83 890.13 L149.01 887.29 L149.26 884.69 L150.67 885.29 L151.38 887.18 L152.91 888.13 L155.51 887.44 L157.88 887.09 L161.56 884.74 L162.74 884.63 L164.39 886.06 L167.94 887.3 L169.53 885.67 L170.83 884.97 L172.5 882.96 L174.87 881.32 L178.43 879.8 L182.77 880.02 L184.23 880.18 L187.77 881.24 L189.65 881.49 L190.04 880.84 L190.3 879.42 L191.06 877.98 L192.85 877.33 L199.7 881.49 L200.43 883.37 L200.87 887.09 L201.81 888.11 L203.65 887.83 L204.45 885.95 L204.89 883.85 L205.57 882.84 L207.11 883.38 L208.62 884.67 L209.76 886.21 L210.2 887.5 L211.85 890.23 L215.61 892.37 L219.87 893.29 L222.93 892.39 L221.5 890.91 L219.69 887.85 L218.74 886.89 L217.08 886.38 L213.96 886.22 L212.32 885.42 L205.34 876.57 L202.86 874.63 L200.88 874.26 L197.22 874.25 L195.38 873.29 L194.43 871.99 L190.44 864.63 L190.59 863.71 L190.56 863.51 L189.16 863.83 L188.72 864.68 L188.15 866.3 L186.98 867.72 L184.87 867.89 L186.28 868.85 L187.48 870.05 L188.46 871.51 L186.17 872.99 L181.54 875.32 L179.05 874.71 L177.5 871.94 L176.45 871.94 L175.54 874.57 L174.11 875.32 L170.02 874.63 L169.75 874.05 L169.37 872.88 L168.77 871.93 L167.94 871.94 L167.15 873.15 L167.47 874.4 L168.32 875.46 L169.07 876.1 L169.07 877.33 L166.81 878.14 L164.34 878.11 L162 877.21 L160.04 875.37 L159.08 873.17 L159.6 871.51 L162.67 867.89 L161.58 867.25 L160.57 866.42 L161.28 864.56 L160.49 862.25 L158.69 860.37 L156.25 859.78 L157.07 864.56 L154.92 870.92 L150.54 871.14 L148.77 868.65 L148.07 866.28 L145.71 865.08 L143.94 863.54 L142.7 858.31 L143.64 854.98 L144.29 851.66 L144.78 844.25 L144.97 840.9 L146.77 836.16 L148.21 831.53 L150.83 827.62 L152.51 824.31 L152.16 822.17 L154.25 819.1 L157.51 813.47 L160.39 809.55 L161.62 806.24 L163.28 803.41 L166.41 803.43 L170.25 803.62 L173.19 802.84 L165.33 801.63 L165.73 800.14 L166.34 798.66 L166.29 797.32 L165.65 796.17 L165.96 794.88 L165.84 793.23 L166.11 791.8 L166.75 790.91 L166.93 790.15 L165.84 789.16 L167.28 787.33 L168.88 786.56 L172.72 786.45 L174.49 785.87 L173.96 784.45 L172.72 782.67 L172.23 781.01 L174.5 777.12 L177.81 775.53 L181.5 775.65 L184.87 776.94 L183.95 773.92 L182.58 772.41 L182.2 770.57 L188.11 759.64 L190.12 757.67 L187.7 757.34 L185.7 755.75 L184.91 753.11 L186 749.62 L185.26 748.94 L183.91 746.9 L185.48 747.43 L186.12 747.72 L186.96 748.4 L190.23 746.45 L191.55 744.97 L192.32 742.83 L189.13 742.84 L179.57 741.34 L176.57 740.1 L177.02 737.23 L180.66 731.8 L178.97 731.67 L177.31 731.89 L175.74 732.39 L174.34 733.16 L174.88 727.96 L177.09 724.95 L180.02 722.63 L182.77 719.54 L183.59 717.15 L184.21 714.4 L185.3 712.16 L189.67 710.39 L190.94 708.32 L191.17 705.65 L190.12 703.03 L187.77 704.83 L171.74 713.26 L168.33 714.44 L167 715.29 L165.62 715.66 L164.26 714.69 L160.19 709.66 L159.51 709.18 L158.08 707.33 L155.39 706.61 L153.96 705.29 L156.25 701.66 L145.83 701.66 L146.36 702.87 L147.41 705.95 L147.94 707.13 L141.09 707.13 L139.57 706.73 L139.16 705.71 L139.05 704.39 L138.46 703.03 L137.54 701.41 L137.21 700.17 L136.58 699.36 L134.73 699.07 L132.35 699.6 L130.84 699.68 L128.9 699.07 L127.72 698.2 L124.33 695.1 L123.63 694.16 L123.18 692.84 L122.05 692.53 L120.68 692.52 L119.44 692.11 L115.12 687.5 L113.42 687.3 L111.97 690.74 L110.22 689.3 L108.16 688.65 L106.39 687.49 L105.01 681.5 L103.3 679.05 L100.94 677.11 L98.3 675.58 L95.9 674.68 L92.47 674.21 L91.2 673.79 L90.6 671.91 L86.2 671.51 L84.62 670.27 L84.01 665.73 L82.42 663.26 L81.52 665.43 L81.4 667.44 L81.93 669.27 L82.95 670.86 L83.75 673.14 L83.06 675.41 L83.02 677.91 L82.12 679.63 L82.19 681.62 L84.12 682.31 L83.49 685.4 L81.56 685.54 L79.91 686.84 L80.59 688.9 L82.08 691.03 L80.73 691.58 L77.84 690.48 L74.55 692.39 L71.45 695.49 L67.46 697.48 L66.16 700.98 L65.67 701.81 L63.57 700.31 L63.62 699.47 L63.81 698.87 L64.43 697.58 L63.28 697.28 L62.78 696.96 L62.33 696.33 L61.57 694.17 L64.31 690.95 L64.86 687.31 L66.85 686 L67.59 683.16 L67.14 680.37 L66.05 680.28 L64.75 681.11 L63.57 681.18 L62.97 680.3 L61.96 677.93 L61.36 676.95 L59.96 676.02 L58.6 675.71 L57.56 675.17 L57.17 673.53 L57.32 671.77 L58.04 668.61 L58.23 666.69 L57.55 665.67 L54.66 664.08 L53.99 662.51 L54.58 658.42 L54.36 656.98 L52.96 656.42 L47.54 656.22 L34.38 653.67 L33.71 653.96 L33.14 654.53 L32.56 654.99 L31.81 654.92 L31.19 654.26 L30.58 652.64 L30.19 652.3 L29.63 651.52 L28.95 647.84 L28.55 646.69 L27.49 646.22 L23.31 645.45 L21.2 641.21 L20.11 639.78 L19.03 638.65 L17.98 637.81 L16.99 637.23 L18.62 634.72 L20.71 633.69 L22.82 633.03 L24.45 631.73 L25.39 628.9 L26.47 619.13 L29.97 614.08 L34.33 614.72 L39.22 616.59 L44.43 615.13 L41.29 613.48 L34.15 613.07 L30.66 612.38 L27.76 609.95 L26.67 606.61 L26.06 603.02 L24.45 599.88 L26.85 597.42 L48.84 576.52 L49.48 576.14 L51.12 575.81 L51.99 575.15 L52.23 574.38 L52.47 572.06 L52.94 571.01 L55.41 568.79 L61.63 564.8 L64.09 561.98 L66.47 560.33 L74.24 558.61 L77.24 557.1 L78.85 553.78 L80.13 549.12 L81.66 544.95 L84.07 543.17 L87.62 542.3 L90.85 540.16 L98.41 532.56 L103.64 525.69 L104.7 523.18 L105.44 522.02 L107.01 523.47 L108.47 525.62 L108.9 526.59 L110.13 527.23 L111.58 527.71 L115.32 528.09 L119.49 527.34 L122.57 527.59 L125.6 527.34 L127.91 526.59 L128.68 524.57 L127.54 522.05 L125.82 519.54 L123.91 517.03 L123.91 514.25 L125.42 511.73 L129.26 510.23 L132.89 508.97 L135.37 507.45 L139.21 505.7 L142.06 503.93 L145.14 501.67 L149.53 499.65 L154.9 497.88 L158.91 496.12 L161.02 495.37 L162.36 493.86 L163.31 491.83 L164.27 489.56 L166.75 488.56 L169.05 488.3 L171.36 489.31 L173.43 490.07 L176.42 489.07 L177.58 488.93 L178.95 489.5 L180.82 491.3 L181.79 491.83 L185.24 491.97 L185.83 490.45 L185.5 487.87 L185.53 487.72 L186.11 484.9 L187.25 483.97 L189.93 484.46 L191.36 483.52 L191.87 482.24 L191.97 479.39 L192.41 477.84 L193.84 475.48 L195.34 474.29 L197.32 473.85 L203.71 473.67 L205.77 472.83 L206.83 470.56 L207.14 466.16 L207.86 462.17 L209.66 460.84 L211.94 461.46 L214.07 463.32 L215.27 465.05 L215.55 465.64 L224.6 465.46 L226.75 464.1 L225.32 461.01 L220.92 455.61 L226.84 448.01 L230.06 445.71 L230.42 445.45 L235.13 444.48 L236.5 443.88 L237.25 442.53 L237.86 441.12 L238.82 440.31 L240.34 440.2 L241.63 440.52 L248.23 443.56 L249.72 443.33 L256.05 438.88 L257.97 437.9 L260.49 437.53 L262.15 438.58 L263.95 440.64 L265.83 442 L267.9 440.94 L270.16 439.16 L274.91 438.58 L276.87 437.53 L278.03 435.53 L277.21 434.56 L275.14 434.35 L272.67 434.61 L274.44 431.61 L277.14 430.72 L280.07 430.19 L282.68 428.28 L285.81 423.39 L286.76 420.95 L286.34 419.15 L287.32 417.58 L288.56 416.47 L290.05 415.71 L291.7 415.11 L291.28 412.47 L292.85 410.36 L295.15 408.15 L296.96 405.34 L294.74 401.55 L298.38 398.13 L315.84 387.73 L318.01 385.79 L319.49 383.43 L323.37 374.48 L325.14 372.21 L329.01 368.36 L330.73 365.96 L334.32 357.47 L336 354.88 L343.61 345.65 L348.49 341.93 L352.92 342.02 L352.44 342.91 L352.18 343.67 L351.76 344.34 L350.82 344.95 L350.82 346.47 L356.13 344.92 L356.13 339.65 L354 333.17 L352.92 327.99 L353.89 325.34 L359.23 316.76 L361.78 307.46 L364.63 301.77 L365.19 299 L364.63 296.31 L362.97 293.5 L363.05 290.98 L368.45 285.23 L370.89 280.3 L373.37 279.75 L378.81 280.06 L380.48 279.07 L385.43 274.48 L387.85 273.01 L385.73 271.23 L383.49 269.88 L381.56 268.31 L380.38 265.84 L383.02 264.76 L385.47 264.76 L387.75 265.65 L389.95 267.25 L394.54 272.35 L397.2 274.12 L398.38 272.25 L400.32 267.11 L408.94 263.51 L410.89 258.08 L412.38 255.73 L415.68 253.41 L418.96 252.4 L420.47 253.91 L420.63 258.45 L421.48 259.6 L423.4 259.48 L426.88 260.2 L429.72 262.53 L434.89 266.75 L436.35 266.53 L436.99 269.3 L440.31 274.6 L441.59 277.24 L438.97 276.94 L437.33 277.87 L436.78 279.88 L437.4 282.88 L438.87 284.97 L441.19 286.54 L445.91 288.5 L445.48 289.3 L444.76 291.33 L447.34 291.76 L455.37 294.94 L457.48 296.96 L454.11 298.31 L450.82 300.24 L447.97 303.01 L445.91 306.79 L447.03 306.95 L448.4 307.33 L449.54 307.99 L450.53 309.96 L451.72 309.57 L453.81 308.21 L455.23 308.62 L456.03 309.57 L456.65 310.52 L457.48 311 L458.64 310.07 L460.65 305.83 L461.7 305.04 L463.99 306.1 L467.46 308.73 L469.59 309.25 L471 308.87 L472.11 308.23 L473.16 308.1 L474.31 309.25 L474.44 310.67 L473.48 311.98 L472.18 312.98 L471.25 313.47 L473.91 314.69 L476.8 315.59 L482.83 316.28 L484.29 315.99 L486.97 314.89 L488.18 314.74 L489.65 315.31 L490.8 316.27 L491.63 317.2 L492.21 317.68 L495.64 317.97 L498.06 316.96 L500.23 315.58 L502.85 314.74 L505.45 315.44 L508.14 316.93 L510.82 317.71 L513.45 316.28 L513.73 320.89 L515.9 323.08 L521.87 324.71 L526.98 328.3 L528.16 328.91 L529.5 328.28 L531.21 325.48 L531.91 325.4 L536.16 327.04 L550.7 327.47 L554.67 326.1 L557.52 328.07 L560.6 328.62 L563.11 327.36 L564.15 324.01 L565.63 322.54 L569.04 321.43 L575.3 320.49 L579.92 324.71 L581.5 323.95 L582.77 322.49 L584.11 320.49 L585.8 322.7 L585.91 326.36 L585.67 330.05 L586.23 332.32 L587.57 332.69 L589.08 332.23 L591.69 330.79 L591.12 335.31 L593.78 337.43 L597.48 337.33 L599.91 335.14 L602.11 336.4 L599.91 339.34 L606.41 339.91 L612.51 334.14 L628.22 305.29 L630.59 297.32 L627.55 292.86 L627.26 289.16 L625.35 284.96 L622.56 281.5 L618.44 279.58 L612.56 274.74 L608.42 270.83 L607.77 266.3 L606.13 261.98 L598.85 247.94 L597.92 243.98 L592.78 242.31 L591.26 239.38 L590.05 236.15 L587.04 218.45 L587.2 215.39 L589.23 212.5 L592.32 211.55 L599.39 211.39 L624.27 204.39 L639.96 205.71 L643.56 206.91 L646.71 209.47 L653.86 209.06 L659.15 211.72 L661.32 212.01 L667.69 209.53 L669.17 209.83 L670.87 211.04 L672.31 210.31 L674.47 207.06 L675.99 205.58 L677.58 204.95 L689.08 205.87 L693.21 204.95 L695.01 201.33 L709.82 202.1 L720 204.9 L723.13 205.75 L728.77 203.87 L731.05 195.59 L732.44 192.83 L735.7 191.92 L739.38 191.47 L742.11 190.06 L746.23 185.7 L747.79 182.95 L747.98 179.28 L751.65 181.48 L754.27 181.7 L756.47 180.19 L760.82 175.13 L765.39 171.03 L768.28 167.75 L769.49 166.68 L770.55 165.51 L771.03 164.32 L770.27 162.44 L766.81 162.17 L765.87 160.69 L766.27 158.31 L767.62 157.21 L769.28 156.6 L770.55 155.72 L771.11 153.92 L771.01 152.24 L771.32 150.7 L773.15 149.32 L772.02 148.08 L770.74 147.23 L769.41 146.73 L767.89 146.6 L767.89 145.04 L772.86 145.06 L774.42 143.87 L775.35 140.77 L775.04 139.66 L774.11 139.14 L773.24 138.38 L773.15 136.5 L773.63 134.74 L774.39 133.34 L775.47 132.43 L783.73 130.65 L784.82 130.16 L785.33 126.4 L786.62 123.33 L788.33 122.4 L790.08 124.98 L792.28 123.69 L790.99 121.89 L790.19 119.98 L790.43 118.5 L792.28 117.98 L793.97 118.59 L795.35 121.19 L797.54 122.12 L798.95 121.68 L800.61 120.48 L802.55 119.42 L804.91 119.41 L812.36 125.75 L813.35 127.46 L817.7 129.88 L818.67 131.46 L819.2 133.61 L820.49 134.34 L822.05 133.97 L823.42 132.81 L824.23 130.7 L824.36 128.66 L824.8 127.13 L828.58 125.62 L829.63 123.35 L829.81 120.56 L829.2 117.98 L835.64 118.51 L841.45 120.07 L846.4 119.14 L850.34 112.15 L851.07 104.64 L850.74 96.45 L851.52 89.29 L855.61 84.88 L855.61 83.59 L853.01 82.93 L852.3 80.11 L853.76 77.19 L857.71 76.3 L857.03 73.27 L858.13 71.44 L859.38 70.08 L859.23 68.43 L857.38 66.63 L855.82 65.89 L854.77 64.46 L854.46 60.56 L854.72 57.95 L855.34 55.57 L857.22 51.18 L859.69 45.82 L860.53 42.88 L861.15 36.54 L866.57 21.64 L867.7 19.48 L868.5 17.28 L868.64 12.43 L869.28 10.19 L871.03 8.7 L875.68 8.16 L877.8 7.19 L876.36 6.64 L875.19 5.79 L874.26 4.58 L873.59 3 L875.28 2.29 L878.13 0.39 L879.9 0 L881.97 0.39 L883.12 1.4 L887.77 7.7 L889.25 9.17 L891.46 10.19 L893.39 10.47 L899.41 10.19 L906.66 7.02 L910.85 5.99 L912.71 7.91 L912.23 10.7 L911.01 14.1 L909.32 17.1 L907.34 18.69 L913.76 21.72 L922 21.49 L928.96 22.75 L931.65 30.18 L929.45 48.02 L929.58 56.13 L932.61 63.42 L941 72.06 L942.18 75.65 L952.69 84.88 L954.38 85.33 L955.74 85.21 L956.93 85.29 L958.04 86.32 L958.4 87.97 L957.84 92.02 L958.59 94.24 L961.87 96.78 L964.24 95.62 L964.72 92.51 L962.27 89.29 L964.22 86.1 L966.74 84.09 L969.4 83.92 L971.73 86.32 L972.19 88.57 L973.06 96.81 L973.93 100.73 L975.76 104.9 L976.04 105.79 L976.28 108.09 L976.87 109.11 L977.62 109.69 L978.24 110.72 L980.84 118.44 L982.65 121.31 L985.5 123.69 L988.99 124.9 L991.65 127.81 L993.33 131.48 L993.93 136.5 L993.88 141.77 L994.27 144.56 L995.83 146.52 L1000 149.86 L999.32 151.13 L994.94 152.36 L989.46 154.18 L987.16 154.61 L985.18 156.5 L984.22 156.6 L984.36 152.81 L984.23 150.52 L983.82 149.23 L981.83 147.19 L979.87 145.66 L975.42 145.01 L972.12 143.09 L970.75 141.38 L966.21 140.56 L963.89 141.6 L964.47 144.24 L962.47 146.39 L959.95 146.94 L958.68 145.07 L956.72 143.76 L954.92 143.72 L954.85 145.56 L954.67 147.36 L952.85 148.85 L951.33 150.68 L951.66 153.5 L951.65 154.96 L952.4 156.32 L953.66 156.51 L954.67 157.01 L954.7 159.34 L953.91 160.82 L952.74 160.49 L950.41 157.62 L948.84 158.07 L947.71 160.58 L949.12 163 L947.43 163.57 L946.3 166.32 L943.76 166.75 L943.08 171.43 L941.25 172.84 L939.44 173.17 L939.62 170.16 L940.77 165.73 L939.5 162.11 L937.46 161.95 L930.86 168.56 L927.42 173.31 L925.25 174.94 L923.3 175.16 L923.61 178.06 L922.84 190.18 L922 190.25 L920.68 189.64 L918.93 190.7 L916.82 193.54 L917.34 193.88 L917.8 195.21 L916.7 196.09 L915.26 195.83 L912.65 193.62 L910.63 192.51 L906.42 192.57 L903.38 194.92 L902.6 198.88 L902.45 200.44 L900.17 200.76 L899.79 202.43 L899.05 203.74 L897.75 208.79 L897.35 212.13 L896.26 212.72 L894.43 208.22 L892.57 208.94 L892.33 213.18 L889.38 214.8 L890.43 215.73 L891.22 216.79 L892.54 219.04 L891.04 219.54 L889.91 220.48 L888.25 223.3 L888.78 222.86 L888.38 224.89 L887.66 227.36 L887.29 228.31 L886.68 232.19 L885.1 233.58 L883.92 232.98 L882.48 231.12 L878.81 229.61 L876.21 231.04 L875.23 235.45 L874.15 240.74 L874.33 247.62 L872.04 254.38 L869.8 256.38 L869.39 259.87 L867.9 261.13 L865.39 257.07 L863.35 257.22 L857.41 261 L855.57 266.87 L853.56 274.04 L852.26 276.57 L848.21 278.36 L844.48 283.65 L843.3 290.25 L841.18 298.85 L838 304.32 L839.83 309.15 L839.37 312.59 L838.61 315.7 L839.63 321.76 L843.07 326.2 L846.15 329.16 L848.14 331.02 L851.45 330.68 L852.69 333.62 L854.86 336.57 L856.57 337.89 L857.55 338.04 L859.93 337.57 L860.78 337.89 L862.25 339.97 L862.1 340.64 L861.29 341.5 L860.78 344.2 L860.48 344.85 L859.28 349.41 L859.17 350.5 L856.73 352.48 L855 357.05 L848.91 382.85 L847.73 391.92 L850.25 399.59 L849.28 402.31 L848.94 405.5 L849.1 412.15 L850.25 421.33 L850.9 423.33 L853.72 426.84 L855.89 428.33 L854.46 429.44 L853.48 433.92 L854.06 435.36 L851.17 439.2 L851.65 443.21 L849.78 448.03 L848.44 450.72 L846.83 450.5 L845.64 448.48 L843.51 449.25 L840.17 449.87 L837.25 449.29 L834.51 449.96 L831.99 449.43 L830.17 449.92 L826.13 449.68 L823.38 451.87 L822.94 455.7 L820 456.28 L817.85 458.69 L816.03 459.38 L811.45 459.01 L803.81 461.57 L797.99 465.75 L792.21 468.89 L790.37 471.11 L788.53 474.42 L785.97 480.65 L784.74 483.46 L783.65 482.93 L782.18 481.45 L780.84 478.51 L779.64 476.49 L777.03 476.25 L773.99 476.95 L771.56 478.85 L770.74 480.96 L769.82 483.08 L769.82 484.19 L769.91 485.5 L769.1 487.01 L768.89 488.11 L768.49 490.7 L767.81 491.79 L767.37 493.85 L766.84 495.06 L765.62 496.47 L764.91 497.68 L764.78 499.75 L764.61 504.73 L762.86 505.41 L761.95 507.22 L761.27 509.4 L755.74 516.44 L749.96 524.26 L742.65 523.98 L734.28 526.82 L722.56 539.33 L716.52 544.65 L711.89 545.55 L709.28 548.06 L704.25 549.67 L701.65 549.77 L699.79 552.08 L695.11 551.31 L689.9 552.87 L687.1 557 L685.1 557 L684.89 555.1 L681.99 556.51 L679.28 559.72 L678.9 564.95 L680.8 566.05 L685.11 567.84 L685.71 569.74 L686.81 571.23 L686.01 574.24 L686.31 579.12 L684.21 579.95 L682.81 581.25 L681.71 582.55 L680.81 583.35 L679.71 583.25 L677.61 582.26 L674.61 582.06 L672.91 583.36 L667.61 586.07 L666.51 589.18 L665.22 590.78 L662.52 592.39 L657.84 592.53 L655.75 594.62 L653.02 597.62 L650.93 598.73 L647.3 600.26 L644.28 599.62 L640.11 600.16 L635.95 606.17 L634.41 613.99 L630.45 612.94 L627.07 606.49 L624.5 604.15 L620.32 606 L619.01 608.35 L620.02 613.76 L618.59 614.12 L615.21 613.71 L613.7 613.76 L612 614.41 L609.22 616.05 L607.8 616.39 L606.52 615.98 L606.02 615.07 L605.38 614.17 L584.95 610.58 L584.25 611.52 L584.05 614.45 L583.56 615.56 L582.32 616.68 L580.79 617.54 L579.36 617.88 L578.3 618.84 L575.77 623.36 L574.65 624.74 L573.15 625.32 L569.51 622.9 L567.1 627.46 L567.14 630.96 L566.02 639.35 L564.57 641.21 L550.27 642.7 L552.52 644.66 L552.15 646.67 L547.28 649.1 L541.88 648.37 L537 650.17 L534.52 656.55 L532 658.48 L529.75 655.65 L525.91 653.64 L523.36 657.79 L521.17 658.6 L518.55 660.59 L516.37 663.05 L514.45 667.65 L510.05 670.48 L509.06 672.16 L508.76 673.66 L507.42 676.78 L507.04 678.44 L507.1 680.2 L507.82 683.14 L508.16 687.89 L508.72 690 L509.7 690.93 L511.17 690.74 L514.97 692.55 L517.67 696.33 L518.33 700.9 L512.5 709.5 L509.99 717.8 L512.29 731.12 L516.55 751.07 L516.41 756.55 L515.23 758.59 L513.54 759.39 L511.74 758.76 L510.2 756.55 L510.01 753.92 L510.99 750.97 L513.35 745.54 L508 738.01 L507.45 735.3 L506.09 733.18 L504.2 732.47 L502.21 733.92 L497.66 738.28 L497.29 738.82 L496.2 740.39 L495.36 741.34 L488.1 744.07 L488.1 745.54 L489.87 746.43 L493.59 747.47 L495.36 748.4 L497.26 746.98 L499.73 746.23 L501.83 747.06 L502.74 750.31 L501.72 751.78 L496.88 752.85 L495.36 753.71 L494.55 752.54 L493.67 751.68 L492.7 751.17 L491.64 750.99 L490.18 751.44 L490.3 752.53 L490.96 753.87 L491.16 755.07 L489.38 760.34 L488.1 765.96 L487.11 771.64 L488.79 775.31 L490.41 779.34 L492.74 781.01 L494.53 781.83 L497.78 785.48 L499.48 786.45 L502.51 785.99 L503.15 784.24 L502.77 782.24 L502.74 781.01 L505.5 780.7 L508.64 788.34 L511.73 790.39 L523.32 789.22 L527.13 790.39 L528.89 791.89 L530.22 793.74 L531.71 795.29 L533.9 795.95 L544.46 795.86 L546.8 796.18 L548.39 797.73 L551.93 804.02 L556.73 810.86 L557.75 812.88 L558.7 815.73 L561.02 819.12 L566.25 824.52 L566.74 827.06 L567.39 827.83 L568.82 826.55 L569.82 825.91 L570.69 826.5 L571.29 827.78 L571.79 830.83 L572.53 832.39 L573.7 833.54 L575.2 833.99 L578 835.67 L583.19 844.11 L586.15 847.5 L597.94 850.36 L616.29 873.29 L618.59 872.38 L625.56 868.56 L627.48 867.89 L632.17 875.37 L633.37 876.51 L636.01 878.07 L637.48 879.42 L639.32 882.98 L639.37 883.63 L639.58 886.52 L639.43 890.07 L640.08 893.62 Z M110.26 698.95 L109.56 700.25 L107.63 701.19 L109.26 705.45 L111.32 709.79 L108 711.74 L103.54 714.41 L100.23 718.37 L97.3 718.86 L93.59 720.8 L96.42 715.71 L98.4 716.59 L99.51 714.32 L97.32 712.22 L97.66 711.27 L99.45 711.06 L99.52 710.24 L99.93 709.28 L99.11 708.59 L99.12 705.15 L101.59 703.72 L101.47 700.77 L103.33 699.13 L103.13 697.41 L106.01 697.08 Z M103.59 912.58 L106.2 917.16 L106.75 919.32 L100.14 917.45 L97.02 916.1 L94.12 913.8 L90.65 916.54 L89.23 914.78 L89.87 911.53 L95.69 907.76 L97.54 907.34 L98.33 909.17 L100.86 910.04 L102.62 911.05 Z M172.22 1061.89 L173.6 1061.5 L169.75 1066.82 L167.13 1069.51 L163.06 1072.14 L161.77 1073.44 L159.59 1074.91 L156.43 1075.59 L155.54 1074.15 L160.1 1068.71 L162.29 1067.64 L163.87 1068.29 L164.26 1067 L164.62 1065.26 L165.45 1065.24 L165.85 1065.01 L166.05 1064.43 L166.66 1064.08 L167.68 1063.94 Z M144.31 1058.2 L143.56 1056.54 L143.34 1055.49 L144.13 1054.96 L147.16 1052.72 L149.88 1051.72 L150.6 1051.67 L151.05 1052.37 L151.27 1053.23 L150.87 1053.63 L150.07 1053.8 L148.01 1055.94 L145.63 1057.99 Z M126.24 1048.34 L127.83 1048.67 L128.42 1050.59 L127.98 1052.02 L127.65 1051.96 L127.16 1051.99 L125.5 1053.78 L124 1054.29 L122.33 1054.31 L121.2 1053.75 L121.21 1052.85 L121.95 1052.39 L122.6 1051.63 L123.39 1051.13 L124.48 1051.43 L125.46 1051.91 L125.94 1051.72 L126.09 1050.91 L126.19 1050.5 L125.84 1049.54 Z M73.41 714.47 L74.33 712.88 L76.04 712.49 L76.51 713.82 L76.51 716.03 L76.06 718.15 L74.97 719.38 L72.94 719.25 L72.25 718.35 L72.81 716.68 L72.54 715.66 Z M73.31 710.95 L71.55 712.2 L69.4 712.22 L66.8 710.37 L60.45 712.2 L59.96 712.66 L59.27 712.32 L59.5 710.99 L60.62 710.05 L62.1 709.22 L64.66 706.89 L65.3 707.11 L67.42 706.85 L71.28 705.78 L73.97 705.98 L75.02 707.33 L74.64 709.15 Z M59.29 733.82 L58.84 732.06 L58.8 730.51 L60.17 730.01 L61.84 728.45 L62.13 730.03 L62.23 730.38 L62.65 731.02 L62.84 733.27 L60.92 734.26 L60.22 734.39 Z M0.51 658.39 L1.23 657.65 L0.96 656.86 L1.38 656.78 L1.82 656.48 L1.49 656.04 L1.87 655.83 L2.43 655.57 L2.88 655.6 L3.17 655.99 L3.56 656.31 L3.78 657.14 L4.4 657.31 L4.36 657.87 L4.35 658.31 L4.85 658.38 L4.84 658.91 L4.67 659.47 L4.09 659.65 L3.69 660.17 L2.94 660.19 L2.48 660.92 L2.27 661.56 L1.83 661.54 L1.52 661.08 L0.74 660.91 L0.05 660.82 L0.03 660.73 L0 659.94 L0.2 659.03 Z "/>
</g>
</svg>
