<svg xmlns="http://www.w3.org/2000/svg" viewBox="0 0 1000 1333.58">
<g fill="#ccc" stroke="#333" stroke-width="0.5" stroke-linejoin="round">
<path fill-rule="evenodd" d="M544.37 149.03 L548.19 149.53 L550.57 153.22 L555.62 154.24 L555.02 158.11 L551.47 159.96 L548.51 161.02 L547.06 162.27 L543.3 164.98 L541.21 165.89 L539.2 165.32 L537.63 164.53 L537.44 163.16 L537.73 159.68 L541.13 157.98 L542.37 156.5 L541.61 155.34 L541.2 153.93 L540.94 151.64 Z M544.68 160.54 L547.21 159.66 L547.89 157.35 L546.05 156.04 L544.94 156.05 L544.24 156.78 Z M521.08 46.05 L521.09 46 L521.67 44.68 L522.87 39.61 L531.29 26.22 L534.35 19.85 L535.64 18.57 L537.72 17.43 L537.83 18.21 L537.72 20.13 L539.19 22.44 L538.8 23.24 L538.24 25.26 L539.19 25.26 L540.42 23.99 L543.73 23.81 L544.39 22.89 L545.16 22.48 L546.83 23.1 L548.34 24.69 L548.73 27.19 L549.62 25.62 L550.5 25.7 L551.59 26.28 L553.08 26.22 L556.53 23.66 L557.89 23.32 L561.77 24.41 L562.62 24.28 L562.97 23.09 L562.39 21.82 L561.4 20.82 L560.49 20.42 L558 20.12 L556.46 20.22 L555.33 20.9 L554.61 21.79 L553.36 23.05 L551.87 23.83 L550.45 23.32 L550.43 21.75 L551.4 15.79 L551.4 13.55 L555.13 16.56 L556.8 17.16 L557.49 15.1 L556.89 13.99 L555.46 12.56 L553.7 11.33 L552.21 10.83 L552.75 9.51 L553.45 9.25 L554.23 9.26 L554.97 8.8 L556.53 6.86 L557.24 5.17 L557.07 2.08 L557.49 0 L558.27 0 L560.01 3.87 L561.98 2.56 L562.62 1.94 L563.57 2.99 L562.97 4.06 L562.92 4.42 L563.2 4.77 L563.57 5.81 L564.77 4.8 L565.51 5.16 L566.15 6.1 L567.05 6.86 L569.99 7.68 L571.55 7.83 L573.19 7.75 L572.92 7.11 L572.49 5.48 L572.24 4.84 L574.93 3.87 L576.21 7.45 L575.94 8.83 L574.16 8.97 L570.94 8.8 L568.8 9.59 L565 12.96 L562.89 14.34 L563.04 14.34 L563.01 15.16 L561.91 16.63 L564.75 19.62 L566.2 20.78 L567.92 21.39 L569.07 20.8 L570.4 19.67 L571.78 19.4 L573.19 21.39 L570.83 25.59 L569.67 26.07 L568.87 23.32 L567.56 23.47 L566.16 23.32 L566.64 24.73 L566.78 25.62 L566.59 26.35 L566.16 27.19 L567.76 28.87 L569.68 30.02 L571.36 31.47 L572.24 34.05 L570.75 34.02 L569.38 33.68 L568.16 33.01 L567.05 32.02 L565.21 32.92 L563.67 32.26 L562.72 30.54 L562.62 28.25 L561.87 28.72 L559.95 29.63 L559.22 30.09 L559.16 28.58 L559.41 27.43 L560.01 26.65 L560.96 26.22 L558.08 25.73 L554.92 27.59 L553.04 30.22 L553.95 32.02 L553.31 33.55 L553.16 35.28 L553.41 37.11 L553.95 38.89 L555.07 36.03 L556.12 34.5 L557.49 34.05 L558.29 34.94 L558.42 36.59 L558.07 38.42 L557.49 39.84 L559.97 40.89 L571.37 40.73 L570.27 42.61 L568.35 44.28 L564.42 46.61 L560.71 48.02 L559.57 49.28 L560.01 51.53 L563.22 49.82 L565 51.41 L565.06 54.03 L562.14 56.03 L562.73 57.45 L564.42 59.78 L564.9 60.82 L566.05 61.37 L568.87 62.16 L567.87 62.82 L567.51 63.27 L567.05 65.13 L565.16 64.13 L563.09 63.54 L561.24 63.75 L560.01 65.13 L562.02 68.49 L561.15 71.59 L559.06 74.58 L557.49 77.59 L557.34 78.62 L557.49 81.98 L554.97 84.43 L552.86 88.26 L551.44 90.07 L549.6 91.17 L549.6 88.19 L547.84 91.19 L546.04 95.78 L545.13 100.93 L546.04 105.62 L546.72 107.3 L541.44 108.83 L539.4 109.22 L537.4 108.66 L536.51 107.61 L535.25 104.76 L534.1 103.82 L531.12 103.28 L530.63 102.99 L530.41 102.87 L529.69 101.18 L529.09 94.87 L529.19 92.45 L530.56 90.98 L532.2 89.7 L533.11 87.86 L532.51 86.1 L529.56 82.11 L528.99 79.71 L529.61 77.6 L532.07 74.13 L532.92 72.1 L533.45 59.42 L534.29 55.22 L534.56 52.63 L533.92 49.73 L531.92 44.28 L530.48 44.1 L524.03 45.79 Z M559.97 198.59 L562.78 209.94 L570.94 227.02 L572.3 228.45 L573.13 231.71 L573.98 237.54 L588.94 266.05 L592.04 269.53 L599.23 275.97 L613.13 293.04 L615.88 297.48 L617.05 300.08 L618.16 304.08 L630.67 319.11 L645.78 332.04 L657.63 341.71 L661.79 344.39 L679.86 351.38 L703.16 357.63 L712.92 362.03 L720.39 364.39 L725.68 365.37 L728.6 365.53 L737.19 365.01 L739.53 365.53 L743.17 370.34 L744.52 371.39 L747.6 372.22 L751.22 374.05 L754.41 374.47 L770.98 373.54 L776.53 373.88 L782.23 375.1 L790.06 378.43 L792.23 378.9 L794.41 379.84 L799.08 384.61 L801.4 386.47 L805.83 387.93 L811.72 388.67 L817.87 388.58 L823.09 387.5 L825.87 386.45 L826.99 385.54 L827.91 382.98 L829 382.93 L831.42 383.62 L836.87 383.74 L839.76 384.31 L842.35 385.61 L843.47 387.35 L846.01 392.87 L847.13 394.05 L847.77 394.31 L848.33 394.91 L848.84 395.58 L849.28 396.03 L849.57 395.94 L850.27 395.83 L851.18 395.83 L851.99 396.03 L853.8 397.57 L854.8 398.74 L855.36 399.82 L856.32 399.82 L857.1 397.93 L857.4 398.68 L857.66 399.14 L857.9 399.69 L858.05 400.76 L858.92 400.76 L859.07 400.17 L859.7 398.86 L860.38 399.47 L860.79 399.64 L862.38 398.86 L865.44 403.02 L866.31 405.3 L865.86 407.38 L866.87 409.3 L868.17 415.63 L869.82 418.31 L877.27 425.3 L881.85 427.41 L883.66 429.9 L885.83 435.85 L887.06 438.02 L890.91 441.74 L892.85 444.52 L893.91 452.69 L902 461 L902.53 462.12 L903.27 466.23 L903.8 467.19 L904.39 467.85 L907.94 470.73 L914.71 474.71 L919.01 477.97 L922.16 481.75 L924.41 486.03 L929.01 497.83 L929.47 499.82 L930.46 502.49 L932.76 504.31 L937.36 506.83 L942.41 514.96 L943.13 517.18 L944.84 519.28 L950.15 524.35 L954.15 526.45 L957.06 529.03 L959.98 530.71 L960.71 531.37 L960.83 532.82 L960.06 533.17 L958.99 532.87 L958.18 532.4 L958.2 534.34 L959.13 535.22 L960.66 535.4 L962.53 535.22 L972.31 531.82 L975.71 533.21 L980.84 537.1 L981.62 537.18 L983.61 536.9 L984.32 537.1 L984.67 537.74 L984.91 539.21 L985.25 539.92 L985.23 540.31 L985.08 540.94 L985.18 541.76 L986.03 542.74 L986.67 543.11 L987.48 543.41 L988.33 543.6 L989.12 543.68 L989.57 543 L988.74 541.51 L986.9 539.41 L987.44 537.55 L988.79 537.51 L991.33 537.1 L994.74 538.03 L997.5 541.59 L999.34 546.21 L1000 550.34 L997.5 572.86 L995.83 578.91 L993.29 584.31 L986.03 594.6 L982.25 597.83 L980.12 600.14 L979.16 602.56 L978.82 605.74 L976.49 612.3 L975.9 618.92 L974.66 621.65 L969.62 623.79 L968.07 626.18 L965.98 631.18 L955.93 644.87 L952.08 657.17 L949.66 662.85 L937.76 681.88 L936.81 686.27 L936.39 687.47 L935.37 688.43 L917.46 696.44 L913.77 698.67 L899.54 710.36 L882.36 728.55 L877.13 736.71 L875.84 737.94 L874.1 739.19 L872.1 742.07 L868.2 749.38 L867.77 750.63 L867.45 755.45 L867.06 756.84 L866.31 758.01 L858.92 764.05 L859.45 766.88 L857.31 768.81 L851.99 771.49 L852.14 771.74 L851.16 774.23 L851.02 774.28 L850.14 775.13 L849.57 775.84 L849.28 776.59 L849.59 777.84 L850.38 779.11 L851.5 780.19 L852.78 780.86 L854.66 779.96 L856.79 777.95 L858.22 777.14 L858.05 779.84 L856.79 781.65 L854.47 783.39 L852.18 784.06 L851.02 782.63 L850.23 782.63 L849.52 784.54 L848.56 788.22 L847.54 790.14 L846.54 791.06 L843.74 792.68 L842.35 793.93 L840.74 796.55 L839.34 800.01 L838.38 803.8 L838.03 807.38 L834.8 813.87 L833.04 818.63 L833.19 820.81 L832.48 821.84 L831.8 826.36 L831.42 827.39 L830.39 827.6 L828.69 828.21 L826.98 829.1 L825.78 830.16 L824.93 833.8 L822.18 835.28 L818.6 835.15 L815.28 833.94 L812.86 832.74 L811.16 832.17 L807 832.01 L805.39 832.27 L802.37 833.55 L800.53 833.94 L800.92 832.74 L801.67 832.11 L801.05 831.73 L796.54 830.45 L794.01 830.16 L791.29 829.03 L790.99 826.36 L792.63 820.81 L792.61 822.52 L793.12 824.03 L794.08 825.35 L795.33 826.46 L795.81 823.72 L794.52 817.62 L795.76 814.83 L797.45 812.14 L798.75 808.22 L799.08 804.2 L797.93 801.26 L795.36 800.4 L791.65 800.71 L787.91 801.88 L783.83 804.54 L778.66 805.9 L777.05 807.03 L776.24 808.22 L774.05 814.6 L773.96 816.13 L774.79 817.57 L775.14 818.81 L774.1 819.84 L772.54 820.55 L769.41 821.27 L767.08 822.42 L764.79 823.93 L761.78 826.79 L760.68 828.19 L759.88 829.73 L759.57 831.51 L759.98 832.8 L761.78 834.84 L762.18 836.14 L761.25 839.13 L758.98 840.85 L753.43 843.12 L751.32 844.49 L749.03 846.34 L747.21 848.56 L746.47 851.03 L745.78 852.55 L744.33 854.3 L743.09 856.63 L743 859.94 L745.41 865.44 L746.17 868.73 L744.11 873.66 L742.14 881.05 L742.07 882.96 L741.81 886.97 L738.85 894.13 L736.73 901.72 L735.25 905.09 L727.22 917.06 L725.99 920.6 L726.52 924.75 L727.42 926.3 L728.53 927.54 L729.5 928.88 L729.9 930.74 L729.97 934.85 L729.77 936.83 L729.12 938.57 L728.19 942.11 L727.92 944.82 L728.86 947.42 L735.02 957.58 L735.98 959.83 L736.76 963.57 L736.74 967.18 L736.14 970.59 L734 976.79 L733.5 979.56 L733.8 982.65 L736.37 989.53 L737.6 991.66 L740.79 995.45 L741.58 997.62 L740.45 1003.24 L740.33 1005.97 L745.14 1014.69 L745.17 1016.66 L742.07 1019.83 L740.22 1021.32 L739.71 1021.51 L734.01 1022.35 L733.38 1023.05 L732.81 1023.85 L731.42 1024.93 L729.83 1025.86 L728.6 1026.25 L702.12 1024.95 L694.98 1026.07 L664.75 1030.82 L649.02 1035.34 L627.57 1044.22 L619.34 1050.19 L613.93 1052.9 L611 1055.19 L609.73 1058.06 L608.68 1059.45 L595.1 1073.06 L592.75 1077.9 L592.21 1084.25 L593.03 1088.64 L593.15 1090.19 L592.75 1091.89 L590.9 1094.45 L590.22 1096.63 L589.08 1099.3 L588.74 1100.72 L588.74 1106.29 L587.59 1111.92 L581.01 1127.39 L582.91 1130.02 L582.6 1132.82 L580.81 1135.44 L578.31 1137.45 L572.79 1139.88 L570.05 1141.49 L566.16 1148.48 L565.35 1149.12 L563.53 1149.68 L562.62 1150.23 L556.71 1156.82 L556.37 1157.82 L556.53 1160.8 L555.09 1161.09 L535.2 1158.52 L532.63 1158.92 L528.83 1160.72 L526.01 1161.26 L515.19 1160.34 L512.61 1160.75 L504.38 1164.08 L499.73 1165.26 L467.19 1166.77 L454.4 1170.12 L451.55 1170.38 L450.53 1170.63 L449.88 1171.19 L449.31 1171.82 L448.51 1172.29 L446.19 1172.36 L446 1172.29 L441.82 1173.44 L440.7 1174.03 L438.98 1176.21 L437.16 1181.47 L435.97 1183.68 L434.08 1185.89 L433.52 1186.94 L431.58 1192.41 L431.08 1193.34 L429.33 1195.31 L417.57 1205.16 L413.99 1211.68 L413.12 1214.36 L412.77 1217.47 L413.29 1221.05 L414.63 1222.83 L418.91 1225.2 L421.39 1227.83 L422.35 1230.61 L422.39 1236.69 L421.51 1239.23 L416.33 1246.28 L416.05 1247.5 L415.83 1249.35 L415.98 1251.01 L416.76 1251.73 L417.78 1252.19 L417.82 1253.22 L417.2 1254.92 L416.49 1255.66 L413.16 1257.33 L411.98 1258.1 L411.21 1259.2 L410.72 1260.34 L410.18 1262.65 L408.96 1264.69 L409.37 1265.37 L408.16 1266.83 L404.31 1268.02 L402.36 1269.08 L401.71 1270.27 L401.02 1272.11 L399.97 1273.79 L398.42 1274.53 L393.24 1280.48 L387.52 1284.6 L386.74 1284.6 L385.5 1282.59 L384.01 1283.47 L382.45 1285.37 L380.98 1286.42 L378.98 1286.77 L377.13 1287.42 L375.38 1287.79 L373.56 1287.32 L371.57 1289.42 L369.21 1290.2 L364 1290.88 L359.76 1292.53 L357.65 1292.54 L356.21 1290.88 L354.75 1291.68 L352.42 1291.33 L350.98 1291.87 L346.65 1289.06 L345.71 1290.05 L344.67 1287.5 L344.1 1285.17 L342.68 1283.46 L337.47 1282.5 L333.81 1281.25 L332.25 1280.97 L330.76 1281.12 L328.14 1281.74 L326.61 1281.88 L322.12 1280.98 L320.45 1280.97 L319.09 1281.35 L316.43 1282.54 L315.67 1282.79 L309.68 1281.05 L306.56 1280.84 L303.95 1282.79 L302.76 1282.15 L301.52 1281.87 L277.84 1284.6 L267.78 1284.6 L265.57 1285.19 L259.96 1288.03 L258.59 1289.06 L258.12 1290.25 L258.16 1291.28 L258.43 1292.24 L258.59 1293.26 L258.18 1294.4 L256.39 1296 L255.99 1296.82 L254.58 1298.21 L251.37 1298.86 L245.56 1299.2 L237.95 1300.82 L235.46 1301.02 L233.16 1301.79 L230.54 1303.32 L227.91 1304.34 L225.6 1303.66 L223.24 1305.2 L220.02 1307.88 L217.19 1310.85 L215.98 1313.31 L214.93 1314.77 L212.56 1316.22 L208.09 1318.25 L203.93 1319.3 L183.63 1319.72 L172.9 1321.31 L152.14 1327.99 L141.33 1333.58 L133.4 1315.65 L125.43 1297.66 L117.48 1279.67 L109.55 1261.65 L104.62 1250.51 L103.28 1248.67 L101.1 1247.89 L96.32 1247.61 L94.44 1246.41 L94.64 1246.34 L95.31 1246.26 L95.54 1246.19 L91.51 1236.65 L86.07 1223.79 L80.63 1210.92 L75.21 1198.04 L69.77 1185.16 L64.32 1172.27 L58.88 1159.38 L53.44 1146.46 L48 1133.56 L42.55 1120.64 L37.13 1107.71 L31.68 1094.77 L26.24 1081.84 L20.81 1068.88 L15.37 1055.93 L9.93 1042.96 L4.49 1029.99 L0.9 1021.45 L0 1019.31 L14.15 1014.33 L35.91 1006.66 L57.66 998.98 L79.39 991.3 L101.17 983.63 L122.92 975.94 L144.67 968.26 L166.44 960.57 L188.19 952.88 L209.95 945.19 L231.69 937.49 L253.45 929.79 L275.22 922.09 L296.98 914.38 L318.71 906.68 L340.47 898.98 L362.23 891.26 L381.36 884.47 L385.45 871.4 L386.29 868.73 L388.65 861.17 L392.31 849.43 L397.06 834.17 L402.7 816.1 L408.97 795.93 L415.68 774.34 L422.62 752.01 L427.92 734.93 L429.56 729.66 L436.26 707.99 L442.54 687.71 L448.16 669.52 L452.92 654.13 L456.58 642.26 L458.93 634.61 L459.78 631.9 L460.41 629.84 L465.16 614.37 L465.1 611.22 L463.78 608.23 L457.03 596.96 L446.75 579.82 L436.49 562.66 L426.2 545.48 L415.94 528.29 L407.86 514.77 L409.23 494.66 L408.43 474.52 L408.43 474.51 L408.87 470.42 L412.83 457.13 L424.93 435.85 L427.74 427.38 L430.4 413.56 L431.82 408.95 L434.19 405.36 L434.22 405.35 L438.96 400.13 L440.72 397.45 L444.91 380.23 L446.07 377.89 L452.01 369.07 L452.55 367.22 L452.14 356.68 L451.56 352.68 L449.53 349.63 L444.91 346.86 L442.79 344.91 L441.67 342.41 L442.18 340.38 L447.65 339.34 L453.05 337.28 L455.52 335.91 L459.25 333.86 L462.72 332.45 L466.35 331.77 L470.56 331.87 L474.7 332.57 L476.66 332.52 L478.75 331.73 L481.03 331.33 L484.35 333.92 L486.71 334.21 L501.52 328.13 L509.56 326.15 L510.97 323.94 L506.25 315.42 L504.75 309.51 L502.74 304.51 L498.93 302.9 L491.81 305.8 L489.67 305.69 L481.7 303.93 L480.18 303.17 L479.98 301.06 L481 298.62 L485.94 289.79 L486.75 287.76 L487.2 281 L486.91 279.83 L485.95 278.59 L483.4 276.86 L482.59 275.88 L482.18 273.76 L482.47 266.2 L480.88 260.3 L480.71 257.35 L481.99 255.41 L483.78 253.47 L484.57 248.78 L488.13 245.49 L487.71 242.78 L485.81 238.51 L485.15 237.02 L484.88 234.45 L485.44 229.23 L485.44 226.6 L484.37 215.84 L485.7 211.51 L489.55 206.59 L493.16 203.27 L493.71 202.77 L498.14 199.94 L503.03 198.66 L508.17 199.45 L508.5 199.5 L511.95 201.68 L513.4 205.83 L514.45 212 L514.96 215 L511.91 212.79 L510.27 211.94 L508.5 211.51 L506.26 212.19 L505.85 213.95 L506.76 216.03 L511.5 220.35 L515.25 229.99 L519.14 233.12 L520.94 233.37 L521.15 233.4 L523.84 233.3 L526.27 232.61 L527.42 231.17 L528.19 228.77 L530.92 225.43 L533 220.21 L533.02 220.2 L534.92 219.33 L539.68 218.74 L541.96 217.63 L546.16 213.49 L546.88 212.79 L550.44 210.24 L551.11 208.85 L551.19 207.88 L551.42 205.37 L551.83 200.79 L552.49 200.03 L553.06 199.37 Z M490.41 1220.74 L489.94 1219.47 L489.85 1219.22 L489.85 1219.21 L490.53 1218.18 L492.02 1217.49 L493.82 1217.01 L496.37 1218.57 L497.37 1218.91 L497.36 1218.92 L495.45 1220.07 L491.62 1220.05 L490.42 1220.73 Z M518.28 1211.55 L518.28 1211.56 L518.64 1213.41 L518.67 1213.61 L519.87 1215.23 L521.54 1216.37 L523.39 1217.01 L519.35 1219.58 L517.2 1220.41 L515.19 1220.74 L509.56 1220.47 L507.78 1219.74 L506.69 1216.87 L510.04 1214.81 L514.9 1213.17 Z M880.71 798.99 L880.98 801.88 L881.74 804.18 L885.65 811.32 L886.77 813.4 L886.28 814.89 L885.15 815.98 L880.28 819.62 L875.13 822.51 L872.81 824.61 L869.77 829.26 L868.26 832.44 L866.78 838.95 L865.63 841.26 L865.63 841.27 L865.63 842.78 L865.65 842.9 L865.85 844.15 L865.86 845.06 L865.32 846 L861.03 850.27 L858.74 853.45 L857.58 854.73 L856.44 855.14 L854.83 855.37 L853.38 855.73 L852.78 856.58 L852.34 858.01 L851.26 859.55 L849.86 860.66 L848.43 860.78 L848.41 860.78 L847.75 859.53 L847.19 858.51 L846.54 854.28 L846.42 850.05 L846.69 847.75 L846.65 847.59 L846.34 846.35 L847.23 835.62 L847.91 833.9 L849.28 832.01 L849.98 831.32 L852.25 829.59 L853.21 829.23 L853.46 828.97 L853.71 828.7 L854.27 826.19 L854.58 825.45 L856.73 824.65 L858.84 824.56 L861 824.23 L863.25 822.67 L864.29 821.23 L864.76 820.58 L865.23 818.9 L865.32 818.59 L865.86 813.4 L866.64 810.89 L867.82 808.85 L873.93 800.71 L876.27 795.79 L877.7 791.31 L878.81 789.72 L880.71 789.21 L882.24 791.46 L882.24 791.47 L882.08 793.8 L881.21 796.28 Z "/>
</g>
</svg>
