<svg xmlns="http://www.w3.org/2000/svg" viewBox="0 0 1000 959.3">
<g fill="#ccc" stroke="#333" stroke-width="0.5" stroke-linejoin="round">
<path fill-rule="evenodd" d="M934.1 46.91 L934.49 48.77 L933.33 54.85 L933.34 57.9 L933.82 59.05 L935.37 61.01 L936 62.03 L936.16 63.38 L935.37 64.01 L934.24 64.53 L933.42 65.53 L933.36 66.34 L933.87 67.71 L933.82 68.55 L933.51 69.15 L933.06 69.54 L930 71.52 L929.19 72.31 L928.75 73.55 L929.1 76.14 L930.47 78.57 L932.37 80.43 L934.3 81.32 L939.06 81.62 L940.82 82.65 L942.34 85.42 L942.9 88.34 L943.15 91.49 L943.79 94.19 L945.51 95.74 L946.98 95.84 L949.9 95.04 L951.34 94.86 L952.58 95.13 L953.57 95.5 L954.52 95.48 L956.8 93.86 L957.88 93.87 L958.97 94.07 L960.14 93.86 L960.59 93.42 L961.34 92.09 L961.93 91.61 L962.6 91.4 L963.28 91.29 L964.67 91.25 L966.13 90.78 L968.42 88.41 L969.55 88.77 L970.15 91.24 L969.28 97.43 L970.49 99.93 L972.56 101.11 L977.03 102.77 L979.02 104.27 L980.5 106.36 L981.27 107.24 L982.38 107.84 L983.24 107.92 L991.62 128.22 L1000 148.46 L999.6 148.72 L998.41 150.28 L998.65 152.11 L999.15 154.19 L998.74 156.53 L997.79 157.81 L994.07 160.81 L992.89 162.14 L992.11 162.76 L991.17 162.57 L989.55 161.52 L987.88 161.05 L985.69 161.25 L983.53 161.99 L982.02 163.18 L981.52 164.91 L981.75 168.95 L981.17 170.39 L975.54 175.82 L974.74 176.26 L969.4 177.4 L968.33 177.38 L967.35 177.01 L964.67 175.01 L962.31 174.62 L959.95 175.53 L951.44 180.5 L944.83 182.22 L942.78 182.28 L938.87 180.59 L936.71 181.06 L935.73 181.96 L934.45 184.14 L933.62 185.17 L933.18 185.42 L931.52 185.94 L927.49 188.99 L923.92 192.72 L922.67 193.75 L921.51 194.05 L918.9 193.69 L917.6 193.7 L914.01 194.57 L911.3 194.46 L895.04 190.05 L892.5 188.79 L890.06 186.97 L889.07 185.87 L888.17 184.45 L887.41 183.95 L886.69 183.47 L884.44 183.44 L880.41 184.32 L874.65 184.62 L852.88 180.22 L837.28 174.5 L833.37 173.83 L829.48 174.17 L825.53 175.76 L820.91 179.2 L819.3 180.03 L809.51 181.73 L808.67 182.14 L806.87 183.66 L806.75 185.4 L807.24 187.34 L807.28 189.47 L806.35 190.97 L803.4 193.06 L802.4 194.76 L802.4 194.77 L802.31 197.6 L802 198.5 L801.45 199.1 L799.92 199.94 L799.27 200.43 L798.26 202.12 L797.95 203.99 L798.44 205.8 L799.76 207.24 L801.3 208.15 L802.79 208.74 L804.38 208.98 L806.13 208.79 L808 208.98 L809.03 210.25 L810.41 213.96 L811.26 215.38 L811.74 217 L811.56 218.52 L810.41 219.63 L806.71 221.59 L805.26 223.12 L804.71 225.4 L805.29 227.62 L806.68 229.59 L808.5 230.94 L810.41 231.33 L814.62 230.22 L815.87 230.3 L819.15 231.48 L821.37 231.36 L823.7 230.79 L825.94 230.71 L827.87 232.09 L828.65 234.48 L828.04 236.88 L826.63 239.03 L824.96 240.71 L822.8 242.26 L820.63 243.25 L813.98 244.41 L812.54 245.76 L810.41 249.59 L810.04 250.47 L809.76 251.4 L809.57 252.36 L809.43 254.53 L809.57 255.68 L809.89 256.77 L810.41 257.79 L813.34 260.32 L817.28 262.46 L820.58 265.12 L821.58 269.2 L820.26 274.84 L818.35 280.22 L817.77 281.46 L817.1 282.5 L816.29 283.39 L815.26 284.15 L812.95 285.07 L811.95 285.76 L811.34 287.06 L811.13 290.3 L811.99 292.59 L813.66 294.32 L815.91 295.91 L817.92 297.96 L821.34 302.72 L823.62 304.05 L829.37 305.02 L831.05 306.09 L831.72 307.73 L831.87 311.45 L832.62 315.22 L832.44 316.76 L831.77 318.13 L831.41 318.68 L831.34 318.78 L830.76 319.65 L831.37 321.03 L832.17 322.1 L833.21 322.8 L834.54 323.05 L835.69 322.74 L837.7 321.5 L838.92 321.4 L839.94 321.94 L841.74 323.78 L842.76 324.34 L843.99 324.39 L847.25 323.86 L848.47 323.47 L849.74 322.55 L850.23 321.44 L850.49 320.18 L851.09 318.75 L852.18 317.62 L853.3 317.39 L854.14 318.08 L854.37 319.72 L853.95 321.3 L852.39 324.38 L851.94 326.01 L851.97 327.62 L852.41 330.6 L852.33 332.06 L851.83 333.31 L851.15 334.58 L850.7 335.91 L850.88 337.37 L852.73 342.48 L854.38 344.46 L856.58 345.23 L858.96 345.09 L861.18 344.36 L863.57 344.2 L867.82 346.37 L870.37 346.11 L872.98 345.04 L875.02 344.83 L876.94 345.61 L879.25 347.53 L881.33 348.82 L885.66 349.87 L887.76 351.12 L891.97 354.61 L893.73 356.07 L895.34 358.12 L895.71 359.78 L895.07 361.21 L893.09 363.49 L892.59 364.72 L891.95 367.21 L891.74 368 L889.81 367.85 L888.98 368 L887.53 368.5 L885.64 369.48 L884.24 370.86 L884.3 372.52 L883.51 372.44 L882.1 372.04 L881.57 372.28 L880.9 372.95 L880.36 373.19 L879.86 373.16 L876.08 371.71 L874.95 371.95 L875.42 374.01 L874.8 374.05 L873.28 373.94 L872.7 374.24 L872.23 374.96 L871.96 375.57 L871.57 376.09 L870.82 376.5 L869.32 376.67 L867.93 376.52 L866.71 376.74 L865.73 377.99 L862.98 376.99 L861.91 378.57 L861.37 381.11 L860.21 383 L858.93 383.28 L854.95 382.46 L853.19 385.82 L852.4 386.43 L851.41 386.8 L846.75 390.44 L845.81 391.42 L845.22 392.59 L845.01 394.19 L844.98 395.14 L844.87 395.48 L844.6 395.72 L844.12 396.4 L844.01 396.74 L843.83 397.6 L843.7 397.93 L843.52 398.09 L843.04 398.32 L842.9 398.42 L842.25 399.58 L842.05 399.83 L842.67 400.65 L846.13 407 L847.92 413.86 L849.77 416.74 L849.93 418.1 L849.61 419.46 L848.87 420.62 L847.87 421.89 L847.12 423.14 L844.69 429.36 L844.26 431.02 L844.25 434.25 L843.26 437.12 L843.09 438.58 L843.29 439.98 L843.62 441 L844.15 441.91 L844.97 442.93 L845.98 443.37 L848.68 442.88 L849.92 442.92 L850.84 443.48 L851.97 444.51 L852.5 445.19 L848.93 447.15 L847.6 448.15 L846.67 449.42 L846.65 450.91 L845.71 451.79 L844.85 452.93 L843.89 453.93 L842.67 454.35 L841.3 454.38 L840.14 454.58 L839.1 455.1 L838.03 456.09 L837.35 457.33 L837.09 458.35 L836.61 458.91 L835.28 458.81 L833.67 458.34 L832.98 458.28 L832.19 458.45 L831.54 458.89 L831.02 459.53 L830.61 460.29 L831.06 461.59 L830.37 462.86 L829.12 463.83 L827.9 464.21 L827.69 464.51 L828.25 465.93 L828.3 466.44 L827.84 466.97 L826.91 467.67 L826.39 468.18 L825.12 470.1 L824.11 470.99 L823.64 471.56 L823.24 473.01 L822.34 473.71 L822.14 474.29 L821.95 475.31 L821.45 475.69 L820.03 475.98 L818.72 476.64 L817.76 477.3 L816.92 478.1 L816.01 479.2 L815.37 480.56 L815.44 481.79 L815.64 483.14 L815.4 484.88 L814.57 485.79 L812.12 486.49 L811.6 487.06 L811.22 488 L808.09 492.42 L807.48 492.92 L806.7 493.06 L805.67 492.7 L805.8 493.17 L805.94 494.18 L806.05 494.65 L804.91 494.53 L803.68 495.18 L802.7 496.24 L802.29 497.36 L802.12 497.65 L805.16 499.31 L806.41 501.17 L807.81 504.22 L808.69 507.35 L808.56 508.29 L808.41 509.42 L798.16 518.05 L795.78 519.39 L784.56 521.95 L773.91 526.96 L772.99 528.02 L770.34 536.71 L767.71 545.35 L764.51 555.79 L761.12 562.39 L758.09 568.28 L753.27 577.63 L749.43 582.83 L747.85 585.5 L745.84 590.38 L745.08 591.43 L744.06 592.15 L736.1 596.34 L729.06 600.03 L720.86 604.33 L712.01 608.97 L710.3 610.16 L705.72 615.79 L704.25 618.71 L700.63 632.81 L699.39 636.17 L697.68 639.2 L695.27 641.74 L687.69 648.01 L682.76 654.49 L682.06 655.89 L681.73 657.18 L681.02 665.73 L680.67 666.79 L679.84 667.45 L670 670.48 L661.32 673.15 L656.16 673.58 L651.26 673.17 L645.93 673.63 L640.68 674.77 L636.01 676.37 L628.41 680.17 L621.39 683.67 L616.32 684.81 L612.01 684.23 L608.84 682.04 L606.46 678.56 L604.54 674.11 L604.35 672.76 L604.6 670.17 L604.08 668.75 L603.34 667.88 L601.59 666.45 L599.55 664.08 L598.01 662.86 L596.28 661.95 L594.45 661.37 L593.16 661.19 L591.96 661.5 L589.58 662.46 L587.19 662.83 L586.1 663.17 L584.99 663.94 L581.52 667.8 L577.28 670.89 L576.67 671.53 L571.29 677.12 L570.6 678.39 L566.04 691.84 L564.6 693.89 L559.33 699.03 L555.62 705.07 L548.38 712.02 L544.4 714.82 L538.81 720.48 L536.27 724.84 L534.61 730.08 L533.28 738.61 L531.99 746.85 L532.47 749.69 L534.4 751.87 L543.98 755.84 L546.5 757.54 L550.95 761.54 L553.62 762.56 L568.46 761.95 L570.78 762.55 L573 763.79 L574.76 766.02 L575.06 768.56 L574.69 774.24 L574.91 776.97 L574.7 778.16 L574.13 779.59 L573.79 780.94 L573.89 782.27 L574.36 785.04 L574.07 787.56 L573.15 790.1 L569.83 795.66 L569.56 796.79 L569.5 799.24 L568.97 802.81 L568.99 803.85 L570.14 807.31 L572.1 810.62 L574.52 813.52 L577.07 815.75 L578.21 817.16 L579.47 820.95 L580.38 822.55 L581.33 823.26 L583.74 824.13 L587.23 824.89 L594.45 824.7 L596.88 824.18 L599.22 823.16 L601.55 822.47 L604.02 822.98 L605.35 824.82 L605.58 827.62 L605.29 833.62 L604.91 841.45 L605.39 843.83 L606.37 845.26 L608.85 847.97 L609.34 849.68 L609.63 851.29 L610.35 852.65 L612.42 854.99 L616.31 858.38 L617.37 859.75 L618.07 861.37 L620.13 870.75 L621.48 874.51 L623.2 878.08 L626.91 883.92 L628.99 889.87 L630.21 891.76 L630.65 892.46 L629.39 893.38 L625.3 895.37 L624.42 897 L623.92 899.12 L624.11 901.05 L625.3 902.11 L625.53 902.5 L625.6 902.92 L625.51 903.37 L625.3 903.83 L625.16 905.19 L625.06 905.72 L625.05 906.23 L625.13 906.74 L625.3 907.23 L626.72 908.04 L629.19 908.46 L631.34 909.16 L631.82 910.85 L631.22 911.49 L628.26 912.56 L627.6 913.31 L627.15 914.07 L626.51 914.57 L625.3 914.53 L623.96 913.94 L622.78 913.85 L621.63 914.22 L617.86 916.79 L616.9 918.01 L617.12 919.2 L617.92 920.32 L617.55 920.78 L616.48 921.02 L615.21 921.49 L612.89 922.69 L611.62 923.04 L603.36 922.39 L601.08 921.25 L600.03 920.24 L599.57 919.27 L599.27 916.57 L598.67 914.19 L598.73 913.45 L599.06 913.03 L600.13 912.32 L600.5 911.63 L599.74 910 L597.15 909.94 L590.7 911.5 L587.88 913.5 L586.8 913.92 L583.42 914.11 L582.23 914.67 L579.97 916.33 L578.75 916.6 L577.48 916.67 L573.92 917.87 L571.77 918.07 L571.04 918.48 L570.38 919.59 L568.89 923.8 L568.22 925.03 L565.99 926.93 L563.28 927.52 L550.75 927.7 L547.39 927.3 L544.67 925.94 L539.84 920.8 L538.04 919.98 L520.62 919.5 L516.02 921.21 L513.58 921.57 L512.44 921.34 L508.96 919.63 L507.47 919.19 L506.28 919.4 L503.77 920.8 L502.1 921.42 L500.99 921.3 L500.12 920.42 L498.93 918.24 L498.48 917.69 L497.93 917.24 L497.38 917.01 L496.52 917.09 L496.2 917.49 L496.09 918.04 L495.89 918.58 L493.97 922.19 L493.34 922.71 L492.16 921.77 L491.8 917.83 L490.9 916.43 L487.7 916.29 L486.38 919.13 L486.35 924.57 L486.33 931.66 L486.29 941.04 L481.47 941.01 L475.39 940.97 L468.21 940.91 L465.37 941.37 L463.4 942.79 L463.42 942.26 L463.33 941.63 L463.11 941.08 L462.72 940.82 L461.97 940.95 L461.94 941.52 L462.17 942.2 L462.26 942.68 L461.7 943.57 L460.96 944.37 L460.12 944.74 L459.24 944.34 L458.86 943.71 L458.72 943.18 L458.49 942.9 L457.87 943.02 L457.31 943.48 L457.17 944.09 L457.2 944.69 L457.13 945.12 L457.24 945.26 L457.5 945.48 L457.65 945.75 L457.43 945.99 L457.18 946.01 L456.58 945.89 L456.39 945.91 L455.95 946.18 L454.85 946.68 L454.37 947 L452.9 949.27 L452.88 949.35 L452.88 949.26 L451.3 945.1 L451.23 947.2 L451.3 947.86 L451.46 948.29 L451.99 949.17 L452.11 949.5 L451.87 950.84 L450.76 953.48 L450.42 954.81 L450.48 956.03 L451.13 957.97 L451.3 959.19 L450.78 959.3 L449.63 958.38 L447.89 956.65 L447.68 958.31 L446.62 958.35 L445.45 957.38 L444.91 955.99 L445.1 955.5 L445.96 954.85 L446.17 954.56 L446.1 953.31 L446.17 952.98 L446.62 951.81 L447.02 951.55 L447.89 951.55 L447.89 951.13 L447.03 950.43 L446.06 949.37 L445.25 948.02 L444.91 946.48 L445.39 944.68 L445.51 943.88 L444.52 944.01 L443.07 943.07 L442.41 942.79 L444.14 948.67 L444.91 950.21 L443.78 952.7 L443.09 953.91 L442.41 954.31 L442.07 953.93 L441.79 953.18 L441.6 952.37 L441.54 951.8 L441.22 951.44 L440.54 951.54 L439.94 951.84 L439.85 952.05 L439.23 951.88 L438.55 951.59 L437.98 951.12 L437.74 950.42 L437.52 949.97 L437.02 949.9 L436.44 949.92 L436.02 949.75 L435.69 949.07 L435.78 948.19 L435.4 947.63 L434.91 947.5 L434.39 947.82 L433.49 948.79 L433.22 947.75 L433.14 945.26 L432.65 944.64 L432.27 946.16 L431.65 950.61 L431.19 951.55 L429.4 951.33 L427.58 950.77 L424.21 949.24 L424.96 949.79 L425.6 950.64 L425.76 951.6 L425.06 952.51 L424.03 952.75 L422.67 952.63 L420.39 952.05 L419.76 952 L419.22 952.07 L418.85 951.96 L418.7 951.34 L418.79 950.52 L419.01 949.96 L419.29 949.45 L419.54 948.79 L420.05 944.97 L420.39 944.14 L420.39 943.72 L420.11 943.74 L420.05 943.63 L420.06 943.44 L420.01 943.21 L419.24 944.37 L419.2 947.18 L418.7 948.37 L417.79 948.81 L416.87 948.53 L416.24 947.7 L416.18 946.48 L415.33 947.35 L414.8 947.03 L414.31 946.21 L413.6 945.56 L412.73 945.5 L412.58 946.04 L412.94 946.79 L413.6 947.4 L410.17 946.58 L409.4 946.02 L409.99 945.91 L410.43 945.97 L410.89 945.93 L411.5 945.56 L411.99 944.97 L412.71 943.48 L413.23 942.79 L412.61 943.05 L411.95 943.54 L411.28 943.88 L410.65 943.72 L410.53 943.04 L410.71 941.96 L411.12 940.45 L408.48 939.91 L407.71 939.52 L408.76 937.21 L409.38 936.5 L410.24 936.8 L411.95 935.65 L412.56 934.98 L412.76 933.95 L411.33 935.17 L410.05 935.04 L408.71 934.36 L407.06 933.95 L403.54 934.18 L401.72 933.9 L400.93 932.86 L400.67 930.65 L400.01 928.97 L398.4 926.1 L398.11 925.23 L397.97 924.34 L397.91 920.99 L397.67 920.44 L397.1 919.67 L397.39 919.22 L397.72 918.5 L397.94 918.2 L397.52 916.4 L398.75 915.5 L400.63 915.26 L402.24 915.43 L401.01 914.76 L399.95 914.5 L397.33 914.5 L396.63 913.72 L396.75 911.96 L397.56 908.95 L397.18 909.44 L396.75 909.8 L395.84 910.34 L395.72 908.58 L395.1 907.02 L394.11 905.61 L392.89 904.28 L394.11 903.15 L393.86 902.66 L392.46 902.47 L391.88 901.64 L391.51 900.69 L391.3 899.69 L391.2 898.72 L392.18 899.1 L393.33 899.26 L394.47 899.15 L395.46 898.72 L393.69 897.58 L392.77 897.13 L391.62 896.87 L390.53 896.99 L389.74 897.24 L389.26 897 L389.1 895.69 L389.56 893.8 L390.7 892.04 L392.21 890.55 L393.73 889.45 L395.48 888.53 L395.64 888.02 L395 887.09 L394.23 886.47 L393.68 886.54 L392.99 886.88 L390.73 887.36 L390.19 887.19 L389.84 885.75 L389.5 885.05 L389.01 884.5 L388.49 884.26 L387.39 884.4 L386.72 884.63 L386.04 884.68 L384.88 884.26 L384.42 884.77 L384.96 886.24 L383.8 885.73 L381.29 883.8 L380.18 883.56 L379.09 882.97 L378.2 882.23 L377.72 881.52 L377.26 881.52 L377.27 882.75 L377.41 883.27 L377.72 883.8 L376.24 883.63 L375.05 882.83 L373.9 881.82 L372.59 881.01 L370.84 880.93 L369.21 881.48 L367.68 881.79 L366.27 881.01 L365.63 881.27 L362.36 881.66 L360.83 882.27 L360.1 882.4 L358.53 881.82 L358.69 880.49 L359.94 879.07 L361.63 878.22 L361.63 877.76 L360.2 876.96 L360.2 874.35 L361.17 869.14 L361.33 865.07 L361.63 863.77 L362.19 862.65 L363.35 861.11 L363.7 860.01 L363.65 858.53 L362.68 856.39 L362.44 855.12 L361.99 854.57 L359.76 852.54 L358.86 852.09 L358.16 851.57 L354.89 848.36 L352.76 847.03 L351.97 845.94 L352.33 844.59 L353.91 845 L354.64 843.62 L354.39 841.8 L352.98 840.9 L352.13 839.69 L351.59 837.29 L350.93 835.52 L349.8 836.19 L349.67 835.88 L349.47 835.56 L349.38 835.25 L348.57 835.53 L348.19 835.01 L347.96 834.14 L347.65 833.39 L345.56 831.12 L345.13 830.08 L343.59 830.57 L342.08 830.44 L341.15 829.65 L341.33 828.16 L340.29 828.93 L339.05 829.37 L336.87 829.61 L336.13 829.51 L334.85 829.12 L334.09 829.1 L333.85 829.26 L333.49 829.6 L332.95 829.92 L330.74 830.38 L329.48 831.18 L328.47 832.24 L327.77 833.39 L326.64 835.81 L326.28 836.19 L325.62 836.45 L324.92 837.07 L324.33 837.83 L323.98 838.48 L325.63 838.46 L330.53 837.59 L331.31 837.35 L331.96 836.79 L332.87 835.68 L333.06 835.5 L333.29 835.36 L333.57 835.28 L333.9 835.25 L334.13 835.06 L334.1 834.61 L334.01 834.13 L334.09 833.81 L335.38 833.34 L337.25 833.06 L338.92 833.11 L339.65 833.6 L339.92 834.33 L340.59 834.68 L341.42 834.91 L342.13 835.25 L342.67 835.88 L343.58 837.37 L344.27 838.06 L345.14 837.36 L346.31 837.03 L347.52 837.22 L348.53 838.06 L346.39 839.92 L348.88 841.51 L349.73 842.62 L348.91 843.7 L348.02 843.56 L346.88 842.8 L345.13 841.32 L340.35 839.14 L337.4 838.47 L335.35 838.99 L333.7 838.61 L331.7 839.16 L329.7 839.98 L327.98 840.39 L322.42 840.43 L318.44 841.57 L313.5 842.32 L310.85 842.25 L309.42 842.39 L307.3 843.44 L305.83 843.88 L303.68 845.1 L301.15 845.56 L297.89 847.19 L296.69 847.39 L295.31 847.22 L286.57 844.75 L285.31 844.59 L283.97 844.89 L282.54 845.48 L281.18 845.87 L280.04 845.56 L280.33 845.21 L280.84 844.12 L278.84 844.24 L277.19 844.6 L275.78 845.17 L274.49 845.99 L272.48 844.93 L270.78 845.6 L269.47 847.16 L268.05 849.67 L267.57 850.17 L266.95 850.46 L266.03 850.69 L265.3 850.7 L263.73 850.29 L261.98 850.04 L260.08 849.43 L259.04 849.29 L255.25 849.29 L251.55 848.58 L249.64 848.49 L247.88 849.29 L246.52 848.69 L244.56 848.48 L240.67 848.78 L239.08 849.44 L237.69 850.59 L236.61 852.01 L236 853.49 L235.64 855.26 L235.67 856.08 L236 856.79 L236.69 857.14 L237.71 857.44 L238.5 857.88 L238.56 858.65 L238.08 858.69 L235.16 859.58 L234.27 859.52 L232.7 859.08 L231.78 859.08 L233.43 856.45 L233.47 855.3 L232.42 853.72 L231.33 853.06 L229.63 852.45 L227.88 852.07 L226.73 852.09 L226 852.68 L225.1 854.13 L224.37 854.42 L223.59 854.49 L222.38 854.81 L221.85 854.88 L220.5 854.45 L218.36 852.37 L216.99 851.58 L214.37 850.95 L211.71 850.69 L211.14 850.51 L210.34 849.63 L209.83 849.29 L206.09 849.15 L200.57 847.97 L200.58 847.01 L201.13 845.79 L201.34 844.59 L201.01 844.22 L200.43 843.87 L199.89 843.35 L199.65 842.49 L199.9 841.77 L200.52 841.42 L201.29 841.32 L201.98 841.32 L203.43 841.62 L204.05 841.4 L204.32 840.39 L204.04 840.08 L203.41 839.95 L202.59 839.92 L199.77 840.6 L198.22 840.74 L197.54 840.15 L194.09 841.86 L193.29 842.72 L194.2 842.46 L194.56 842.25 L195 843.45 L195.46 843.78 L196.06 843.41 L196.91 842.49 L197.75 842.47 L198.54 843.65 L199.65 845.99 L198.85 847.26 L198.42 847.38 L197.33 847.39 L195.04 847.76 L193.94 847.81 L192.87 847.39 L191.29 848.04 L188.97 847.61 L182.7 845.3 L178.56 844.6 L174.37 844.71 L170.34 845.34 L168.36 845.99 L167.24 846.59 L166.2 847.39 L164.53 849.29 L163.62 851.01 L162.97 851.49 L162 851.16 L162.28 852.26 L162.75 853.14 L164.62 855.42 L164.92 855.64 L165.04 855.82 L164.99 856.28 L164.83 856.78 L164.6 857.23 L164.29 857.55 L163.91 857.68 L161.95 857.31 L158.4 855.71 L156.29 855.35 L152.04 855.86 L151 855.69 L148.09 854.42 L144.04 853.29 L141.92 853.09 L140.01 853.49 L136.17 855.6 L134.74 855.86 L129.47 855.35 L118.86 853.02 L108.65 852.74 L103.87 852.87 L100.76 853.22 L100.01 854.7 L100.17 855.64 L101.52 856.28 L100.29 856.79 L98.74 856.29 L96.85 856.8 L95.09 857.76 L93.89 858.65 L93.21 859.33 L92.49 860.28 L92.06 861.35 L92.24 862.38 L93.04 863.19 L94.35 863.49 L95.21 863.96 L94.83 864.91 L92.28 864.92 L89.21 864.74 L87.12 864.16 L88.61 862.93 L88.84 862.7 L89.07 862.55 L89.26 862.38 L89.79 862.1 L90.34 862.14 L90.77 862 L90.95 861.21 L90.07 859.5 L89.67 858.26 L88.3 857.25 L87 856.42 L85.25 856.29 L83.15 855.88 L80.27 855.99 L77.65 856.89 L76.25 857.44 L75.51 858.74 L74.95 859.86 L75.82 860.62 L76.12 862.17 L76.8 862.81 L77.31 863.58 L75.98 864.01 L73.53 863.86 L70.64 863.51 L66.96 863.41 L63.98 863.86 L63.28 865.16 L63.07 865.74 L62.52 866.32 L61.89 868.29 L61.15 868.26 L59.89 869.09 L58.38 869.66 L56.19 869.96 L54.62 869.39 L54.04 868.33 L54.39 866.86 L55.01 866.14 L54.56 865.22 L54.8 864.63 L55.86 863.77 L56.51 863.01 L56.67 862.57 L56.74 861.68 L56.92 860.95 L57.75 859.8 L57.97 859.08 L57.93 858.07 L57.71 857.85 L57.35 858.03 L56.93 858.18 L56.75 858.32 L56.2 858.91 L55.86 859.08 L55.54 858.95 L54.72 858.33 L54.37 858.18 L53.64 858.06 L53.27 857.78 L52.95 857.45 L52.44 857.21 L51.74 857.13 L49.73 857.21 L48.74 856.98 L48.12 856.94 L47.4 857.21 L45.9 857.1 L47.87 851.41 L48.24 845.66 L48.67 838.86 L49.04 833 L49.3 829.01 L49.51 828.02 L49.87 827.37 L50.78 826.46 L51.16 825.93 L51.34 823.57 L50.66 820.86 L50.35 818.33 L51.66 816.53 L52.96 816.22 L54.16 816.25 L55.23 816 L56.16 814.85 L56.51 813.64 L57.16 808.86 L57.94 803.15 L58.52 798.87 L59.02 795.18 L59.58 791 L60.11 788.86 L61.01 787.01 L62.5 785.84 L69.94 783.72 L72.16 782.25 L73.31 781.68 L74.57 781.29 L77.13 780.86 L77.69 780.15 L77.91 778.46 L78.96 776.78 L81.28 777.09 L84.02 778.07 L86.34 778.39 L87.68 777.68 L87.62 776.7 L87.02 775.43 L86.68 773.85 L87.12 773 L89.06 771.09 L89.7 769.89 L89.64 769.46 L89.4 769.07 L89.22 768.62 L89.33 768.01 L89.72 767.49 L90.26 767.16 L91.46 766.67 L91.97 766.39 L92.76 765.8 L93.28 765.57 L93.86 765.51 L95.16 765.57 L95.79 765.41 L96.15 765.08 L96.66 764.18 L97.14 763.8 L97.73 763.63 L108.05 762.53 L109.32 762.09 L109.83 761.69 L110.32 761.17 L110.85 760.84 L111.51 760.98 L112.2 761.32 L112.72 761.36 L114.63 760.92 L115.16 760.72 L115.62 760.47 L116.04 760.16 L116.68 758.98 L117.15 758.35 L117.82 758.15 L122.02 758.26 L126.86 758.38 L132.44 758.52 L134.84 758.89 L137.28 758.95 L139.08 758.55 L139.67 758.6 L140.2 758.85 L140.64 759.17 L141.13 759.42 L141.75 759.45 L143.13 758.09 L143.78 755.33 L144.27 745.29 L144.72 744.2 L145.74 743.67 L148.25 743.27 L149.17 742.42 L149.37 741.16 L148.85 740.04 L148.08 738.91 L147.53 737.62 L147.21 729.8 L147.3 728.98 L147.56 728.29 L148.22 727.35 L148.45 726.65 L149.13 725.53 L150.34 725.01 L151.69 725 L152.75 725.42 L150.65 720.75 L149.76 719.44 L149.11 718.72 L148.55 718.36 L147.02 717.81 L146.32 717.38 L144.72 715.9 L143.95 715.62 L143.33 715.61 L139.96 716.68 L139.16 716.71 L138.13 716.6 L136.49 716.68 L133.26 717.68 L131.66 717.93 L128.06 718.65 L126.39 718.75 L124.44 718.32 L122.99 717.51 L122.49 717.35 L122.06 717.43 L121.21 717.92 L120.72 717.93 L119.79 717.43 L117.13 715.04 L118.1 714.98 L118.71 714.52 L119.09 713.74 L119.37 712.75 L119.49 711.62 L119.18 710.87 L117.97 709.4 L121.21 702.08 L121.59 699.19 L121.26 695.56 L120.67 689.14 L120.36 685.64 L119.84 680.01 L119.47 675.86 L117.86 669.15 L116.71 664.32 L117.7 656.37 L118.61 649.18 L118.31 646.73 L116.94 645.89 L106.84 647.95 L105.59 647.16 L101.69 642.93 L100.79 641.41 L100.39 640.19 L99.97 639.48 L99.32 639.07 L98.29 638.74 L97.29 638.17 L96.66 637.32 L96.13 636.38 L95.41 635.53 L93.7 634.64 L85.55 632.98 L80.42 630.68 L78.45 630.25 L74.35 629.9 L72.48 629.32 L69.53 627.61 L65.84 626.57 L64.7 625.95 L62.75 623.69 L58.83 620.05 L56.27 616.72 L49.9 610.92 L48.11 608.72 L46.34 604.84 L44.56 602.85 L44.24 601.79 L44.1 600.61 L43.74 599.24 L41.13 593.23 L40.59 592.5 L39.9 591.95 L39.1 591.59 L38.63 591.22 L38.48 590.8 L38.66 590.37 L39.1 589.92 L39.67 589.31 L39.88 588.67 L39.7 588.06 L39.1 587.58 L38.04 587.12 L37.57 586.1 L37.25 584.9 L36.62 583.89 L35.95 583.54 L35.38 583.47 L34.82 583.26 L34.16 582.52 L33.84 581.71 L33.68 579.95 L33.48 579.16 L32.69 577.94 L30.73 575.77 L30.14 574.33 L30.14 572.94 L30.88 570.46 L30.99 569.08 L30.42 567.29 L29.34 566.51 L28.04 565.99 L26.83 565 L21.76 558.93 L16.93 553.14 L12.28 547.57 L8.25 542.73 L4.98 538.86 L0 532.94 L1.95 533.84 L6.36 535.27 L11.49 536.93 L16.64 538.6 L21.77 540.26 L26.91 541.92 L32.05 543.58 L37.18 545.23 L42.32 546.9 L47.46 548.56 L52.59 550.21 L57.73 551.87 L62.87 553.54 L68.01 555.19 L73.14 556.85 L78.29 558.51 L83.43 560.16 L88.56 561.82 L94.42 563.71 L100.78 564.92 L108.5 564.19 L110.28 564.02 L113.3 563.74 L116.33 563.45 L119.35 563.17 L122.38 562.88 L125.4 562.6 L128.43 562.31 L131.45 562.03 L134.48 561.74 L137.51 561.45 L140.53 561.16 L143.56 560.88 L146.58 560.6 L149.61 560.31 L152.64 560.02 L155.66 559.74 L158.69 559.45 L168.11 558.56 L181.65 561.18 L193.01 563.38 L200.05 566.42 L201.73 565.73 L203.98 561.33 L205.39 559.5 L207.56 558.39 L224.22 553.39 L225.56 553.41 L236.94 553.5 L245.36 553.57 L255.62 555.44 L258.69 555.54 L267.64 552.92 L271.23 551.87 L274.81 550.82 L278.4 549.77 L281.97 548.72 L285.56 547.67 L289.14 546.62 L292.72 545.57 L296.3 544.52 L299.89 543.47 L303.47 542.42 L307.06 541.37 L310.64 540.32 L314.22 539.27 L317.81 538.22 L321.39 537.16 L324.97 536.11 L330.23 534.57 L335.14 531.02 L336.78 528.85 L338.06 526.65 L338.43 526.44 L338.94 526.26 L339.17 525.94 L338.67 525.26 L336.77 523.79 L334.23 521.2 L332.06 519.68 L331.69 518.72 L331.84 517.59 L332.74 514.89 L336.73 506.75 L337 505.38 L336.86 501.06 L338.02 491.61 L337.87 490.15 L337.52 488.68 L337.05 487.76 L335.56 485.83 L334.51 482.98 L334.7 479.86 L340.76 456.77 L341.32 455.78 L342.37 455.21 L350.71 453.5 L352.1 452.88 L357.9 446.89 L359.08 445.24 L361.17 437.11 L362.67 436.07 L365.03 435.74 L366.62 434.51 L368.06 432.86 L369.9 431.25 L374.06 429.19 L376.37 428.53 L380 428.44 L380.91 428.93 L381.34 429.93 L381.47 431.54 L381.32 432.13 L380.97 432.57 L380.73 433.01 L380.81 433.59 L381.28 433.97 L382.05 434.22 L383.46 434.47 L384.71 434.5 L387.08 433.9 L388.31 433.84 L389.54 434.22 L391.79 435.47 L393.06 435.92 L394.08 436.04 L397.28 435.89 L401.23 436.25 L402.37 436.04 L406.65 434.21 L410.31 433.71 L412.59 432.72 L415.89 432.1 L417.03 431.68 L420.96 429.14 L421.77 428.39 L422.62 427.77 L423.62 427.47 L426.12 427.57 L427.06 427.13 L427.7 425.78 L427.41 422.75 L425.18 422.02 L420.05 422.7 L418.83 422.36 L417.6 421.58 L416.71 420.51 L416.35 417.68 L415.54 416.43 L414.64 415.33 L414.19 414.25 L414.98 412.97 L416.93 412.92 L420.94 413.82 L422.84 413.62 L424.71 412.86 L426.05 411.92 L428.08 410.48 L431.87 406.19 L433.6 405.34 L434.44 405.31 L436.32 405.62 L438.82 405.48 L439.49 405.12 L440.18 404.13 L441.21 403.29 L444.45 401.48 L444.8 400.97 L445.01 399.44 L445.31 398.79 L447.35 396.9 L447.65 396.35 L448.03 395.65 L449.34 392.55 L450.13 391.59 L451.4 391.5 L452.98 392.06 L454.34 392.81 L455.92 394.1 L456.55 395.06 L457.32 395.82 L458.67 396.03 L461.11 395.91 L463.55 396.1 L470.03 398.43 L472.31 398.81 L473.37 398.47 L474.71 397.66 L475.51 396.76 L474.94 396.1 L473.75 395.94 L470.06 396.03 L468.71 395.81 L467.63 395.33 L467.42 394.62 L468.62 393.67 L471.29 392.24 L472.75 391.74 L474.13 391.71 L476.2 392.53 L479.81 394.58 L483.28 395.22 L484.06 395.66 L484.46 396.55 L484.65 399.48 L485.11 400.55 L486.7 402.41 L489.55 406.54 L491.19 407.7 L493.63 407.42 L497.55 405.4 L499.65 404.73 L501.89 404.88 L503.54 404.19 L505.77 402.59 L507.71 400.79 L508.52 399.49 L509.46 398.9 L510.35 397.9 L517.1 387.43 L518.78 385.61 L521.73 383.38 L521.88 383.12 L522.1 382.7 L521.94 381.76 L519.99 376.23 L518.78 369.33 L518.83 367.76 L519.31 364.67 L519.33 361.59 L519.77 358.47 L519.84 356.88 L519.61 355.35 L518.01 351.26 L517.36 348.12 L517.66 345.09 L518.82 342.32 L520.69 339.96 L521.93 339.16 L524.49 338.26 L525.58 337.35 L528.83 332.44 L529.58 331 L529.77 330.1 L529.15 327.68 L529.04 326.39 L528.88 325.83 L528.45 325.51 L527.92 325.29 L527.38 324.93 L526.94 324.45 L526.62 323.87 L526.51 322.44 L527.18 321.45 L529.28 319.87 L530.79 317.75 L532.38 316.54 L532.74 316.2 L533.36 314.07 L532.2 306.09 L532.8 304.84 L533.39 303.59 L535.02 301.5 L537.08 300.15 L539.56 299.82 L540.83 299.85 L542.83 299.47 L543.42 299.65 L543.94 299.9 L544.5 300 L545.63 299.73 L548.52 297.63 L550.92 297.22 L555.05 299.29 L557.65 299.1 L562.27 296.27 L562.89 296.14 L564.68 296.3 L565.43 295.97 L565.9 295.31 L567.96 291.38 L568.69 291.08 L570.16 291.58 L571.5 291.69 L572.7 291.01 L583.17 282.16 L583.61 279.74 L582.63 277.44 L579.38 273.76 L579.06 273.22 L578.61 272.03 L578.17 271.64 L576.45 271.07 L575.96 270.74 L575.11 269.62 L574.57 268.29 L574.34 266.86 L574.44 265.46 L575.71 260.79 L575.75 258.99 L575.51 258.51 L575.03 258.17 L574.01 257.68 L573.45 257.2 L573.18 256.82 L572.81 255.67 L572.29 252.73 L571.68 251.93 L569.05 252.4 L565.73 250.97 L564.78 250.84 L563.31 250.63 L562.38 250.05 L561.75 248.62 L561.31 247.17 L560.76 246.06 L559.3 243.89 L558.75 242.71 L557.93 239.89 L557.38 238.92 L555.57 237.1 L555.2 236 L556.01 234.92 L557.1 233.79 L557.22 232.69 L557.01 231.57 L557.14 230.38 L558.17 229.34 L559.82 228.77 L563.09 228.26 L565.18 228.41 L578.51 233.1 L582.01 233.44 L584.13 234.52 L585.25 234.85 L590.24 235.06 L595.33 236.16 L597.21 236.23 L605.5 235.03 L613.83 235.12 L618.21 234.29 L619.31 232.09 L619.57 231.14 L620.19 230.97 L621.85 231.5 L622.99 231.6 L623.87 231.31 L624.6 230.64 L625.3 229.63 L626.57 229.19 L629.59 228.55 L630.58 227.63 L630.86 226.23 L630.65 225.04 L630.59 223.82 L631.27 222.34 L632.99 220.36 L633.38 219.36 L633.47 217.57 L633.29 216.06 L632.69 213.45 L632.7 212.1 L634.51 206.89 L634.24 205.05 L629.86 202.59 L627.94 200.74 L626.19 198.6 L624.91 196.67 L624.32 195.27 L623.98 193.59 L624.06 191.94 L624.78 190.61 L625.69 190.2 L625.84 190.13 L627.14 190.12 L629.65 190.51 L630.77 189.96 L631.44 188.46 L631.64 186.63 L631.42 185.07 L630.96 183.4 L631.04 182.25 L631.69 181.38 L636.03 177.82 L638.41 176.56 L639.24 175.73 L642.49 171.07 L643.43 168.5 L644.58 166.19 L646.76 164.5 L654.19 161.47 L655.1 161.1 L655.69 160.57 L656.13 159.78 L656.67 158.03 L657.16 157.23 L657.16 157.23 L657.16 157.23 L657.83 156.74 L658.27 156.13 L658.37 155.42 L658.03 154.66 L658.12 151.36 L659.73 149.35 L663.99 146.37 L665.54 143.96 L666.08 142.48 L665.82 141.46 L663.94 139.93 L660.52 135.99 L659.41 134.08 L659.52 132.03 L661.41 129.56 L664.42 126.92 L665.03 125.81 L665.12 124.33 L664.6 123.3 L663.78 122.38 L663.33 121.72 L662.99 121.21 L662.61 119.52 L662.88 118.08 L663.3 116.71 L663.34 115.26 L662.76 114.13 L661.76 113.37 L658.36 111.7 L657.12 110.69 L656.54 109.4 L657.32 107.88 L658.43 106.44 L658.79 105.06 L658.52 103.71 L657.74 102.37 L657.33 101.95 L656.42 101.23 L656.06 100.7 L655.79 99.85 L655.78 99.16 L655.84 98.5 L655.77 97.74 L655.37 96.62 L653.31 92.89 L652.43 91.74 L649.63 89.74 L648.97 88.58 L648.71 86.09 L647.79 85 L646 84.23 L644.26 83.85 L642.6 83.15 L641.02 81.44 L640.16 80.78 L637.94 79.55 L637.26 78.92 L637.2 78.63 L636.95 77.49 L637.54 76.32 L639.53 74.29 L639.83 73.59 L640.15 71.97 L640.48 71.41 L642.9 69.83 L644.77 68.93 L645.35 68.51 L645.78 67.79 L646.09 66.16 L646.41 65.66 L650.31 64.29 L651.57 63.31 L656.28 58.01 L657.31 57.32 L658.47 56.89 L659.97 56.58 L661.17 55.92 L660.82 54.92 L660.17 53.74 L660.48 52.57 L662.03 51.03 L662.53 50.21 L663.04 48.98 L663.78 46.61 L664.38 45.95 L665.54 45.83 L666.78 46.35 L670.33 48.75 L672.15 50.71 L673.06 51.07 L674.04 51.02 L675.01 50.66 L675.74 49.81 L675.56 48.76 L674.51 46.68 L674.43 44.25 L675.7 43.43 L679.7 43.17 L680.69 42.79 L681.49 42.11 L682.24 41.31 L683.08 40.6 L686.01 38.91 L687.01 37.88 L688.29 37.16 L690.82 36.54 L691.82 35.59 L691.9 34.89 L691.64 34.24 L691.53 33.61 L692.07 32.95 L692.8 32.56 L694.35 32.05 L697.94 31.54 L699.02 30.92 L698.58 29.65 L697.66 28.17 L697.89 27.19 L698.89 26.47 L701.61 25.31 L707.06 24.06 L709.79 23.89 L712.33 23.05 L715.15 23.23 L716.45 22.88 L720.31 19.6 L723.3 18.06 L727.28 17.11 L731.37 16.81 L736.52 17.58 L741.97 17.3 L743.77 16.79 L745.26 15.99 L746.79 15.62 L748.7 16.4 L749.55 16.44 L750.28 16.09 L751.76 15.06 L752.76 14.69 L761.97 13.71 L763.92 13.91 L765.73 14.4 L766.64 14.52 L767.53 14.4 L770.61 13.32 L773.57 13.53 L777.65 12.98 L779.56 13.26 L781.57 13.58 L789.63 12.19 L793.92 12.38 L794.02 12.38 L794.03 12.38 L794.06 12.39 L797.83 12.55 L801.61 13.26 L803.52 14.05 L808.57 17.26 L810.41 17.73 L812.24 18.43 L814.02 18.44 L817.67 17.24 L818.26 16.46 L818.56 13.81 L818.96 12.74 L819.85 12.06 L820.85 11.8 L824.91 12.31 L826.39 11.77 L829.41 9.29 L834.56 6.01 L836.16 4.67 L838.73 3.96 L840.05 3.87 L841.26 4.26 L841.49 4.45 L841.69 4.68 L842.81 6.34 L844.02 7.42 L845.01 7.13 L845.43 4.67 L845.67 4.08 L845.74 3.52 L845.63 3 L845.31 2.54 L846.51 1.92 L850.48 0.91 L852.73 0 L853.68 0.22 L854.56 1.44 L856.23 2.94 L860.76 3.04 L862.71 4.67 L862.73 4.67 L864.5 7.38 L864.97 8.31 L865.33 10.66 L865.68 11.39 L866.51 11.05 L866.89 10.31 L867.43 8.08 L868.03 7.1 L868.93 6.46 L870 5.99 L872.13 5.43 L874.45 5.41 L879.74 4.67 L880.87 4.89 L881.75 5.39 L883.51 6.98 L885.6 8.16 L892.9 9.71 L895.23 10.72 L896.88 12.37 L897.9 14.69 L898.33 17.65 L898.45 20.82 L898.89 23.7 L900.21 25.58 L903.95 25.75 L904.34 25.22 L904.53 24.42 L904.9 23.68 L908.76 22.21 L913.65 23.19 L918.53 25.56 L922.34 28.28 L926 31.6 L927.54 33.54 L933.82 45.59 L933.84 45.66 Z M403.04 934.45 L403.96 935.36 L405.37 935.4 L408.13 934.45 L409.35 935.23 L409.82 935.41 L409.82 935.42 L408.58 935.95 L408.3 936.89 L407.88 937.79 L406.22 938.19 L405.14 937.78 L404.15 936.8 L403.65 935.98 L403.41 935.57 Z "/>
</g>
</svg>
