<svg xmlns="http://www.w3.org/2000/svg" viewBox="0 0 1000 1438.55">
<g fill="#ccc" stroke="#333" stroke-width="0.5" stroke-linejoin="round">
<path fill-rule="evenodd" d="M873.24 286.72 L875.42 287.23 L876.5 288.34 L876.84 290.05 L877 292.3 L875.87 293.7 L873.24 298.19 L875.6 301.86 L874.51 302.87 L871.84 303 L869.44 303.94 L865.41 309.62 L862.92 312 L861.84 310.63 L863.29 305.23 Z M926.74 225.14 L922.67 226.33 L923.14 228.68 L925.38 231.41 L926.74 233.74 L925.2 235.66 L921.81 236.48 L916.19 236.62 L913.57 238.12 L907.01 244.69 L902.84 246.2 L899.22 245.54 L896.53 243.71 L894.83 240.97 L894.29 237.57 L894.49 232.56 L895.31 231.61 L904.13 240.93 L905.92 240.65 L909.45 238.53 L919.23 229.73 L921.17 227.06 L921.38 223.75 L920.49 220.66 L920.4 218.84 L922.73 219.39 L924.23 220.28 L925.38 221.38 L926.26 222.93 Z M928.82 206.01 L933.62 207.31 L940.09 210.27 L944.39 214.69 L942.96 220.35 L940.09 221.13 L937.69 218.11 L935.84 214.05 L934.34 211.57 L930.61 210.39 L927.89 211.25 L922.73 215.58 L922.26 211.42 L922.76 208 L924.79 205.95 Z M977.99 105.89 L981.32 115.27 L982.2 128.58 L980.78 141.91 L977.2 151.34 L971.75 158.89 L971.5 160.74 L974.6 164.8 L974.6 166.56 L973.31 167.82 L970.96 175.08 L964.48 183.56 L962.99 189.57 L964.89 200.09 L963.53 203.92 L962.27 204.78 L960.89 204.3 L957.63 204.03 L955.03 202.42 L953.28 202.18 L951.99 203.19 L949.07 207.12 L947.58 207.92 L944.57 207.39 L943.39 206.42 L942.99 204.74 L940.52 197.8 L938.42 188.76 L936.58 184.78 L934.34 183 L932.76 183.11 L932.03 182.65 L932.44 179.03 L933.32 175.89 L934.93 173.02 L937.15 170.72 L940 169.28 L941.09 172.91 L943.57 173.39 L946.2 171.38 L947.58 167.53 L946.83 165.22 L944.66 162.93 L940 159.69 L942.15 157.67 L945.88 152.39 L949.23 150.11 L949.68 150.29 L949.91 148.74 L949.89 144.9 L949.68 144.56 L952.63 139.08 L956 135.55 L960.73 133.63 L967.7 133.08 L974.33 131.17 L975.98 126.5 L973.76 111.85 L971.18 106.3 L970.55 103.01 L971.64 101.78 L974.12 102.32 L976.64 103.92 Z M3.05 1411.19 L8.28 1407.99 L14.6 1407.57 L16.95 1410.77 L13.71 1415.1 L8.17 1418.02 L2.04 1419.09 L0 1416.15 Z M302.89 785.25 L301.08 781.09 L302.85 780.22 L304.66 781.86 Z M842.15 339.97 L838.14 335.86 L835.77 330.27 L836.58 326.02 L842.2 325.81 L845.91 328.65 L847.17 333.05 L845.95 337.37 Z M183.64 1430.56 L187.78 1431.53 L189.61 1435.38 L184.66 1438.55 L180.11 1437.5 L179.16 1434.37 L181.83 1431.58 Z M995.09 0 L998.58 0.04 L1000 3.86 L997.43 10.66 L992.74 13.02 L990.32 10.06 L990.4 5.92 Z "/>
</g>
</svg>
