<svg xmlns="http://www.w3.org/2000/svg" viewBox="0 0 1000 1142.4">
<g fill="#ccc" stroke="#333" stroke-width="0.5" stroke-linejoin="round">
<path fill-rule="evenodd" d="M204.72 825.07 L233.09 846.3 L259.25 862.12 L239.01 878.94 L215.29 900.94 L215.14 900.94 L204.14 908.45 L121.75 987.72 L106.08 1017.67 L105.86 1032.18 L111.88 1061.49 L109.77 1076.08 L84.24 1103.66 L46.73 1131.54 L35.04 1142.4 L21.95 1101.68 L17.74 1087.62 L0 1054.75 L16.32 1044.19 L26.52 1030.79 L59.14 1001.48 L73.85 975.01 L107.95 949.43 L122.36 923.37 L177.15 866.61 L202.95 829.24 Z M573.09 495.83 L581.2 485.91 L581.93 472.92 L580.43 458.14 L588.06 449.83 L571.28 390.66 L573.27 361.06 L566.05 338.69 L555.58 318.48 L552.34 307.3 L554.66 294.28 L582.98 268.06 L588.33 257.4 L590.89 246.44 L589.61 237.36 L584.56 230.9 L575.45 228.03 L577.71 216.73 L580.27 189.6 L583.28 178.66 L586.07 176.65 L595.78 173.07 L598.49 171.02 L603.77 153.27 L606.63 138.57 L615.36 93.75 L629.67 68.7 L648.88 54.79 L670.72 44.35 L693.32 30.01 L711.62 8.6 L721.78 0.8 L734.81 0 L736.07 0.67 L745.81 5.83 L766.6 23.07 L779.85 27.8 L825.72 25.55 L847.41 28.12 L869.1 41.62 L875.58 61.93 L875.28 88.67 L879.27 110.44 L898.17 116.08 L915.57 116.64 L932.67 121.12 L991.56 136.4 L993.75 143.02 L994.95 150.87 L990.43 150.87 L990.43 144.94 L985.01 144.94 L985.01 150.87 L988.93 159.27 L988.33 185.14 L994.95 197.96 L991.72 208 L991.49 224.44 L994.2 240.85 L1000 250.92 L996.38 252.99 L993.6 255.3 L991.64 258.46 L990.43 263.25 L1000 263.25 L990.55 303.92 L987.35 317.68 L990.43 327.89 L990.43 334.3 L984.49 337.36 L981.17 341.23 L981.17 345.9 L985.01 351.42 L972.81 372.41 L972.36 382.36 L980.04 393.03 L967.76 403.12 L963.77 417.96 L965.13 457.63 L973.04 477.79 L974.62 486.94 L975.07 498.66 L976.28 505.8 L980.57 515.3 L980.04 522.13 L976.73 526.08 L971.68 527.55 L967.16 530.08 L965.13 537.04 L982.9 605.74 L975.07 616.42 L975.07 622.8 L990.43 669.06 L967.24 695.01 L948.95 737.58 L932.67 775.46 L921.07 837.54 L917.08 900.94 L917.3 902.31 L917.38 903.1 L917.08 903.37 L916.63 903.06 L867.07 907.21 L824.97 931.36 L745.51 997.78 L702.96 1013.79 L612.05 1012.99 L568.44 1018.99 L549.91 1025.43 L529.88 1028.6 L510.6 1025.56 L494.48 1013.3 L485.97 984.63 L496.59 956.08 L529.43 900.94 L533.57 873.11 L533.87 849.21 L537.11 826.05 L548.66 803.53 L550.22 800.49 L563.55 784.66 L625.94 744.92 L650.83 722.98 L666.02 709.9 L674.41 696.69 L691.33 693.05 L695.26 696.41 L704.28 697.59 L713.53 707.83 L732.35 705.18 L742.65 712.1 L746.12 708.63 L748.93 710.12 L751.41 714.25 L756.19 717.05 L759.44 715.75 L760.82 708.47 L764.39 704.85 L766.76 692.45 L770.88 688.7 L774.3 683.39 L772.05 676.27 L767.26 671.48 L766.93 665.37 L770.89 653.31 L774.36 648.2 L772.21 645.72 L771.39 638.78 L769.24 628.88 L772.71 623.26 L775.84 616.82 L772.38 614.67 L767.59 614.18 L766.1 612.53 L770.23 606.25 L767.69 603.8 L764.95 601.3 L761.15 600.64 L752.83 602.81 L748.54 596.2 L747.22 590.26 L747.88 581.67 L744.57 571.43 L737.31 569.45 L732.35 573.08 L732.02 578.37 L735.33 584.97 L737.97 593.56 L740.28 605.78 L740.28 618.99 L740.01 622.11 L738.2 623.26 L726.08 616.68 L721.19 616.49 L716.56 617.81 L715.57 622.27 L718.15 627.24 L718.44 631.86 L709.52 632.88 L682.58 627.09 L671.24 618.04 L664.74 618.8 L653.89 612.54 L646.97 598.07 L638.4 592.9 L629.74 592.54 L623.6 593.62 L616.02 597.95 L602.81 611.28 L592.21 614.19 L583.91 614.91 L568.43 612.49 L566.34 610.74 L567.29 607.33 L575.32 600.26 L581.72 593.18 L587.57 591.27 L604.72 590.45 L607.79 586.93 L611.21 546.15 L604.57 532.59 L594.7 530.74 L586.73 524.57 L585.53 519.9 L588.42 514.99 L583.67 510.96 Z "/>
</g>
</svg>
