<svg xmlns="http://www.w3.org/2000/svg" viewBox="0 0 1000 415.99">
<g fill="#ccc" stroke="#333" stroke-width="0.5" stroke-linejoin="round">
<path fill-rule="evenodd" d="M81.43 9.14 L83.42 10.37 L99.76 23.3 L109.79 33.41 L116.18 36.9 L120.63 33.88 L120.23 36.82 L119.47 39.12 L114.85 47.19 L114.39 49.14 L114.93 51.51 L116.38 53.11 L118.3 54.37 L119.71 55.72 L119.58 57.58 L117.28 59.41 L113.01 59.07 L112.61 61.01 L111.77 62.34 L111.98 63.2 L112.81 63.55 L113.79 63.35 L115.46 64.5 L116.94 66.51 L118.01 68.82 L118.41 70.99 L119.3 72.63 L125.37 76.38 L126.53 76.38 L127.81 74.38 L129.88 74.13 L130.86 73.52 L128.85 70.39 L131.11 71.02 L131.97 72.77 L132.46 74.83 L133.59 76.38 L135.44 76.87 L136.73 76.12 L137.32 74.3 L137.06 71.57 L138.23 71.57 L138.39 73.84 L139.59 74.96 L140.95 75.12 L141.6 74.51 L141.68 72.39 L142 70.88 L142.74 70.43 L144.02 71.57 L144.19 71.04 L144.18 70.57 L144.39 70.32 L145.19 70.39 L145.51 71.96 L145.98 73.18 L146.63 74.17 L147.51 75.1 L148.66 75.1 L148.66 73.92 L149.82 73.92 L149.37 76.5 L149.67 81.2 L148.66 83.31 L143.49 80.11 L140.77 79.1 L136.44 78.73 L134.55 80.06 L134.03 83.07 L134.55 86.28 L135.8 88.22 L135.8 89.29 L134.86 88.89 L132.33 88.22 L133.24 90.67 L137.3 92.81 L138.23 94.63 L137.06 105.84 L136.29 105.66 L135.78 105.47 L135.32 105.18 L134.65 104.66 L137.56 107.5 L141.67 109.41 L145.77 109.82 L148.66 108.17 L154.75 110.17 L156.92 111.47 L156.88 112.87 L159.4 116.73 L160.25 117.67 L160.65 118.26 L160.93 119.41 L161.52 120.02 L162.21 120.2 L164.11 120.01 L167.34 120.18 L175.42 117.67 L179.21 117.3 L181.33 118.18 L183.11 119.41 L185.85 120.02 L188.33 119.42 L190.8 117.92 L192.27 115.98 L191.77 114.05 L193.68 113.24 L195.17 113.23 L197.56 114.05 L197.89 114.7 L199.53 116.13 L201.34 116.99 L202.19 115.87 L203.9 115.43 L213.89 120.02 L216.93 118.54 L217.77 115.58 L217.15 108.71 L205.67 102.2 L199.69 93.26 L198.14 91.74 L195.92 90.76 L192.77 88.5 L190.12 86.05 L189.45 84.49 L192.06 84.52 L196.37 85.61 L200.4 86 L202.19 83.9 L196.69 81.29 L194.05 79.36 L195.24 77.45 L198.72 77.4 L201.66 79.62 L205.67 84.49 L209.59 87.45 L210.3 88.22 L210.05 89.69 L208.67 90.14 L206.94 89.87 L205.67 89.29 L205.67 90.46 L207.05 92.14 L208.39 93.61 L209.23 96.12 L210.49 96.61 L212.73 96.61 L216.71 97.1 L219.23 97.31 L223.49 101.92 L226.16 102.76 L228.66 108.41 L229.49 109.24 L231.88 110.99 L242.05 125.61 L248.89 132.96 L252.25 135.17 L253.25 136.73 L255.09 138.72 L257.08 140.42 L258.57 141.14 L260.06 141.47 L263.15 142.47 L265.2 142.47 L268.21 141.51 L277.04 143.25 L279.09 142.62 L283.82 142.62 L287.82 145.2 L296.91 145.75 L303.4 144.49 L312.42 144.05 L318.93 143.19 L326.47 142.34 L333.71 141.14 L335.03 141.81 L336.6 141.47 L338.16 140.38 L339.5 138.79 L352.82 134.38 L365.76 128.96 L368.68 127.91 L374.94 128.12 L378.75 127.06 L380.37 125 L381.83 123.33 L385.35 118.72 L387.21 116.27 L388.92 115.22 L389.49 114.68 L390.05 113.46 L390.94 112.24 L392.46 111.7 L394.98 108.75 L398.94 106.88 L405.12 103.16 L407.47 102.2 L410.21 99.39 L420.02 94.4 L432.34 89.2 L449.06 83.81 L468.7 82.25 L471.27 81.38 L476.82 78.16 L478.49 77.45 L484.43 76.77 L490.72 75.1 L496.36 72.81 L501.26 70.04 L507.31 63.13 L513.93 57.26 L518.24 53.15 L518.63 51.21 L521.95 45.78 L526.24 44.04 L527.3 44.14 L527.93 45.74 L527.56 52.23 L527.93 53.95 L528.87 55.1 L530.36 55.97 L532.1 56.13 L533.82 55.23 L535.09 52.09 L535.31 48.62 L536.26 46.97 L539.63 49.25 L539.25 47.8 L538.84 44.84 L538.46 43.38 L538.87 43.7 L539.63 44.45 L540.79 43.38 L538.69 40.39 L540.25 38.75 L542.19 39.63 L545.39 39.35 L549.17 41.02 L552.27 46.22 L553.53 48.19 L552.85 44.41 L551.97 41.77 L551.87 39.37 L553.53 36.34 L556.05 34.04 L561.12 32.15 L563.96 30.35 L564.33 29.84 L564.79 28.57 L565.12 27.99 L565.7 27.56 L566.83 25.73 L568.39 24.76 L570.9 22.98 L571.98 18.56 L573.16 14.41 L576.16 13.24 L577.52 11.98 L576.7 11.08 L574.79 11.79 L573.3 12.2 L572.34 11.15 L573.43 10.43 L574.43 9.71 L575.34 7.91 L577.8 6.83 L579.7 5.3 L581.14 3.59 L584.22 2.69 L586.93 3.06 L590.27 1.98 L594.62 0 L597.69 0.85 L598.52 2.9 L599.43 4.55 L599.46 5.86 L597.69 6.84 L597.69 7.92 L599.35 8.65 L599.4 9.05 L600.01 10.37 L600.84 9.78 L601.45 9.43 L601.93 8.94 L602.42 7.92 L603.58 7.92 L604.63 8.72 L606.01 9.35 L609.39 10.37 L609.47 8.88 L610.65 5.67 L611.55 7.22 L612.68 7.83 L613.92 7.68 L615.18 6.84 L621.62 8.4 L631.11 9.46 L641.85 12.44 L647.46 14.43 L655.26 15.44 L658.45 13.76 L661.63 12.8 L665.53 13.07 L668.46 13.33 L671.39 12.61 L674.57 11.66 L679.93 11.21 L685.97 10.17 L693.15 9.64 L695.41 11.02 L695.4 12.96 L692.49 14.56 L690.39 14.15 L688.69 15.43 L686.83 15.58 L681.67 16.21 L678.84 16.76 L676.98 19.9 L677.44 23.93 L678.3 29.5 L681.28 30.48 L684.03 29.85 L685.8 30.66 L687.98 30.27 L690.16 29.96 L692.02 29.64 L693.87 30.05 L696.21 30.06 L699.19 31.29 L700.96 31.86 L702.48 33.13 L703.77 34.17 L704.58 35.53 L705.86 35.27 L708.04 35.12 L709.41 35.21 L711.1 35.62 L713.2 35.38 L714.1 33.78 L715.95 33.38 L719.09 34.12 L723.92 33.18 L725.32 31.58 L728.21 32.15 L730.16 31.84 L732.03 31.13 L734.3 30.01 L736.06 32.27 L738.81 33.58 L740.98 33.35 L746.63 34.91 L750.42 34.53 L752.67 36.23 L755.41 36.65 L757.83 35.62 L759.79 33.98 L762.64 32.93 L765.17 33.56 L768.45 35.77 L770.87 36.72 L776.46 36.72 L779.26 38.68 L781.1 37.95 L783.63 38.72 L785.4 40.52 L787.32 42.17 L791.94 44.32 L793.71 45.37 L796.1 46.15 L800.5 47.04 L804.03 48.99 L806.54 50.95 L809.2 52.16 L810.83 52.91 L812.45 53.08 L814.67 53.69 L816.88 55.04 L819.53 56.54 L822.62 58.34 L825.28 58.81 L827.95 58.39 L829.57 59 L831.64 60.21 L833.85 60.51 L836.94 62.47 L838.58 64.62 L842.97 65.63 L848.43 66.41 L851.67 67.62 L853.77 69.33 L854.4 71.54 L858.07 75.46 L860.27 75.79 L863.26 77.22 L868.91 83.7 L871.77 88.22 L874.06 91.2 L876.59 95 L882.43 98.94 L881.57 96.56 L880.82 94.47 L878.92 90.47 L878.71 87.83 L881.69 89.29 L883.87 93.22 L885.24 95.12 L889.88 98.29 L890.51 102.2 L892.2 104.1 L894.3 105.37 L896.86 107.59 L897.46 109.59 L898.94 111.45 L900.8 112.99 L901.33 114.53 L899.67 117.61 L902.98 121.42 L905.35 126.78 L907.12 128.67 L908.69 127.3 L909.43 127.62 L909.63 130.04 L912.9 132.05 L916.37 135.22 L920.17 139.64 L923.42 141.14 L922.55 139.73 L921.43 138.66 L920.46 137.5 L920.05 135.8 L920.92 135 L922.8 136.59 L924.59 138.83 L925.2 139.96 L930.25 143.88 L929.61 146.93 L932.75 149.56 L933.73 146.63 L935.41 146.95 L936.87 149.9 L936.32 152.72 L935.99 155.34 L935.23 157.31 L937.37 159.27 L942.71 162.94 L946.74 164.99 L952.3 165.94 L957.57 165.54 L960.72 163.52 L961.39 164.36 L962.22 165.04 L963.2 165.54 L964.3 165.87 L964.06 168.24 L962.29 169.5 L959.54 169.77 L956.81 170.39 L954.03 172.14 L953.86 173.45 L954.68 175.19 L954.87 178.26 L952.82 182.54 L948.03 187.67 L946.17 189.66 L944.75 194.75 L944.74 198.68 L946.28 199.68 L951.39 199.2 L954.25 200.16 L956.02 201.64 L958.83 206.44 L961.29 212.43 L962.69 224.2 L964.16 230.32 L966.05 233.27 L968.21 234.08 L970.48 234.21 L972.65 235.14 L973.92 236.92 L977.6 244.7 L981.98 251.18 L983.56 253.52 L988.49 263.01 L992.13 276.39 L992.45 280.53 L993.56 283.02 L995.2 284.59 L997.02 285.91 L998.68 287.67 L1000 290.35 L999.03 291.07 L992.74 291 L987.63 292.07 L981.93 293.97 L976.71 296.72 L973.12 300.33 L968.77 310.14 L963.77 316.51 L963.22 318.6 L965.49 323.62 L968.98 326.94 L970.04 330.11 L965.05 334.65 L941.24 349.49 L933.5 357.31 L929.25 360.75 L925.4 361.15 L923.59 359.19 L921.53 350.63 L920.24 348.37 L915.54 341.97 L915.09 341.64 L913.65 341.3 L913.15 340.84 L913.16 340.19 L913.86 338.67 L913.93 338.21 L912.28 336.33 L903.8 329.07 L902.04 328.12 L897.97 330.37 L896.9 336.67 L897.7 343.95 L899.23 349.24 L903.06 356.74 L903.57 360.41 L902.04 364.82 L899.52 367.99 L896.27 369.94 L892.52 370.53 L888.47 369.63 L882.56 388.66 L875.62 410.96 L875.5 410.93 L871.72 409.84 L866.83 405.39 L859.56 396.27 L856.84 394.29 L855.5 392.83 L854.92 390.9 L855.3 389.11 L855.98 387.32 L856.28 385.56 L855.5 383.84 L854.53 383.1 L854.06 383.42 L853.71 384.1 L853.19 384.47 L851.85 383.93 L851.46 382.84 L851.81 381.94 L852.59 382.03 L850.56 378.91 L849.46 378.29 L847.86 379.69 L846.81 379.69 L842.71 374.99 L840.01 372.56 L838 371.51 L837.45 370.76 L837.03 369.12 L836.22 367.47 L834.54 366.73 L833.47 365.97 L832.63 364.26 L831.52 360.87 L830.47 360.87 L829.74 363.45 L829.36 361.77 L829.2 355.77 L828.36 352.69 L826.56 352.01 L824.93 353.38 L824.57 356.41 L823.64 354.16 L823.93 352.57 L824.55 351.07 L824.57 349.19 L823.93 347.38 L823.23 346.41 L821.2 344.62 L817.58 339.94 L815.1 338.04 L811.82 337.6 L812.22 335.71 L811.49 334.3 L810.04 333.33 L808.34 332.81 L809.96 329.53 L810.83 327.18 L810.72 324.95 L809.51 322.08 L804.4 314.24 L803.6 312.29 L802.01 306.81 L798.32 302.19 L794.11 298.08 L790.96 294.09 L788.74 288.81 L787.37 283.34 L787.31 281.28 L787.71 279.31 L787.37 277.6 L784.33 272.08 L783.89 269.94 L784.8 266.71 L786.79 263.58 L788.79 262.41 L790.75 267.95 L793.2 269.03 L795.93 268.62 L797.91 266.96 L802.73 269.49 L809.31 266.1 L815.12 259.79 L817.62 253.54 L817.3 250.03 L816.39 247.88 L814.94 246.36 L812.98 244.71 L808.02 238.91 L806.03 237.68 L806.03 236.4 L810.63 236.9 L812.08 236.65 L814.24 235.35 L814.24 234.06 L813.26 233.57 L812.76 233.07 L812.41 232.48 L811.82 231.72 L813.18 231.17 L813.58 231.1 L814.24 229.37 L815.68 230.33 L817.62 232.17 L818.77 232.88 L820.26 233.3 L821.57 233.26 L824.04 232.88 L824.3 232.21 L826.38 229.32 L826.88 228.84 L826.63 224.13 L826.88 222.35 L827.37 222.03 L830.47 218.83 L831.19 217.24 L831.5 215.73 L831.52 212.33 L832.24 211.41 L833.85 210.63 L835.45 210.41 L836.16 211.16 L837.01 217.42 L837.42 218.83 L839.1 220.25 L841.89 221.78 L844.93 223.02 L847.33 223.52 L849.28 224.62 L850.73 227.22 L853.71 235.4 L855.37 237.66 L857.51 239.29 L860.08 239.92 L860.88 239.58 L862.69 239.04 L864.51 239.12 L865.83 241.56 L867.01 242.48 L868.51 243.17 L869.98 243.43 L872.3 243.43 L872.3 242.37 L869.7 241.8 L867.32 240.4 L865.43 238.5 L864.3 236.4 L872.78 238.03 L877.3 239.69 L880.18 242.98 L884.24 245.2 L885.16 246.41 L885.32 248.96 L885.86 250.77 L886.93 252.02 L888.64 252.9 L890.47 251.85 L892.36 252.89 L893.84 255.25 L894.44 258.18 L895.61 260.08 L898.25 260.75 L900.99 259.98 L902.56 257.59 L897.82 257.63 L891.58 250.03 L888.64 250.56 L879.91 239.5 L878.2 238.21 L875.7 236.8 L860.61 234.06 L856.93 232.6 L854 230.12 L852.04 226.83 L851.33 222.93 L847.63 215.46 L846.56 210.85 L849.13 208.29 L847.29 207.08 L845.24 205.4 L843.35 203.37 L841.96 201.15 L841.21 198.32 L841.71 196.7 L842.66 195.55 L843.23 194.12 L842.98 191.97 L842 191.42 L840.47 191.06 L838.58 189.43 L837.76 187.5 L837.58 185.87 L837.04 184.54 L835.12 183.56 L835.81 185.15 L835.95 189.47 L836.8 191.13 L839.06 192.61 L839.91 192.78 L839.97 193.3 L839.86 198.95 L840.15 200.45 L842.5 206.03 L842.73 207.82 L841.96 209.46 L840.91 209.46 L837.69 204.02 L835.63 201.36 L833.96 199.97 L831.31 199.96 L829.05 201.43 L827.48 204.1 L826.88 207.7 L825.87 210.34 L823.34 212.36 L820.15 213.68 L817.09 214.15 L815.64 213.57 L815.01 212.23 L814.98 210.67 L815.3 209.46 L816.28 208.29 L821.2 205.84 L821.86 206.41 L822.32 206.69 L823.52 207.12 L823.72 201.48 L822.85 196.26 L820.04 186.98 L818.77 186.98 L817.58 189.43 L818.41 191 L820.03 192.35 L821.2 194.12 L820.95 197.17 L819.64 199.61 L818.81 201.64 L820.04 203.49 L820.04 204.77 L819.5 205.15 L818.92 205.42 L817.62 205.84 L816.88 204.46 L815.86 203.68 L814.89 203.12 L814.24 202.42 L813.69 200.92 L813.98 200.74 L814.65 200.79 L815.3 199.97 L817.13 196.68 L816.93 195.06 L814.24 194.12 L815.05 196.26 L814.69 197.27 L813.78 197.86 L812.98 198.8 L810.66 203.49 L807.93 203.9 L806.44 202.01 L804.86 196.47 L803.6 197.74 L803.43 199.95 L801.09 203.4 L798 206.36 L795.59 207.12 L794.03 204.23 L792.26 194.08 L790.96 190.61 L791.6 189.44 L792.01 188.26 L790.96 188.26 L790.96 189.43 L789.69 189.43 L789.69 185.91 L788.64 185.91 L787.99 190.12 L791.08 198.65 L792.73 206.87 L795.91 209.5 L796.65 212.33 L792.01 222.35 L791.33 220.87 L790.12 220.11 L788.7 219.56 L788.38 219.39 L787.37 218.83 L783.46 214 L781.58 212.87 L782.49 210.77 L782.36 207.7 L781.55 204.6 L780.41 202.42 L779.16 203.39 L778.47 204.44 L778.15 205.66 L778 207.12 L777.21 205.48 L775.36 203.12 L774.61 201.15 L774.52 198.73 L775.77 192.95 L774.61 189.96 L769.65 183.26 L767.66 181.11 L770.21 181.24 L772.07 181.8 L773.74 182.01 L775.77 181.11 L773 178.93 L772.06 177.15 L772.31 171.15 L761.76 168.22 L762.65 165.58 L763.03 164.8 L761.92 164.66 L761.34 164.93 L760.6 165.87 L759.21 164.95 L757.9 165.04 L756.66 165.57 L755.44 165.87 L753.94 165.01 L752.87 163 L751.33 158.84 L753.75 156.86 L754.65 153.75 L754.46 150.21 L753.65 147 L752.39 147 L752.15 149.77 L752.82 153.31 L752.72 155.77 L750.17 155.31 L747.33 158.45 L742.12 151.62 L737.42 151.69 L734.1 149.62 L730.71 142.33 L728.04 139.96 L728.04 138.79 L729.31 138.79 L729.31 137.61 L726.79 136.87 L725.2 135.28 L723.88 133.38 L722.14 131.75 L723.49 134.62 L723.79 136.87 L722.72 138.61 L719.93 139.96 L717.38 140.38 L715.66 139.73 L712.34 135.8 L711.15 133.08 L710.48 129.77 L709.57 126.97 L687.26 115.22 L678.38 113.25 L674.07 110.19 L673.35 109.24 L673.14 107.57 L673.61 106.59 L674.28 105.63 L674.61 104.02 L674.69 100.47 L674.43 97.47 L673.07 95.58 L669.87 95.27 L669.87 93.99 L673.51 93.72 L676.29 92.22 L678.21 89.85 L679.25 86.95 L680.31 86.95 L681.81 89.27 L683.46 89.18 L686.2 86.95 L689.65 85.72 L691.19 84.81 L692 83.31 L690.92 83.86 L688.64 84.04 L687.26 84.49 L686.13 85.38 L683.96 87.75 L683.25 88.22 L681.89 87.7 L681.45 86.62 L680.92 85.73 L679.25 85.77 L678.2 86.67 L676.13 89.79 L675.15 90.46 L674.75 90.83 L674.21 91.64 L673.25 92.45 L671.61 92.81 L670.03 92.9 L668.78 93.22 L667.95 93.97 L667.66 95.27 L668.71 96.44 L670.9 97.09 L672.88 98.58 L673.35 102.2 L672.58 104.31 L670.82 107.24 L668.45 109.28 L665.82 108.71 L664.71 108.13 L660.6 107 L660.42 106.24 L659.59 104.86 L658.7 104.4 L658.28 106.43 L655.4 107.38 L641.75 104.96 L637.32 105.84 L636.25 105.84 L636.25 104.66 L632.08 105.96 L622.48 105.03 L618.66 107 L617.16 105.84 L615.58 105.97 L613.95 106.62 L611 107.19 L608.89 107.99 L607.6 108.17 L606.33 108.55 L605.98 109.35 L605.87 110.16 L605.32 110.52 L604.78 111.11 L600.01 114.05 L599.67 115.59 L599.83 117.06 L599.5 118.19 L597.69 118.73 L600.63 123.74 L601.26 125.78 L599.03 124.2 L596.29 121.46 L593.99 118.22 L593.05 115.22 L592 115.22 L592.23 116.22 L592.54 116.86 L593.05 117.67 L593.05 118.73 L592 118.73 L593.22 123 L592.43 126.7 L589.95 128.5 L586.09 127.06 L578.34 128.44 L575.9 129.71 L576.83 131.75 L576.83 132.82 L574.94 132.19 L573.73 131.38 L572.6 131.02 L570.92 131.75 L570.42 131.19 L570.22 130.9 L569.82 130.75 L568.7 130.58 L568.7 131.75 L569.18 132.34 L569.45 133.22 L569.86 134.1 L566.95 133.6 L564.18 135.03 L561.92 137.47 L560.48 139.96 L559.76 143.28 L560.48 153.5 L560.85 154.49 L561.64 155.01 L562.44 155.35 L562.8 155.9 L562.64 156.98 L562.29 157.91 L561.75 158.84 L561.37 160.17 L560.69 161.6 L559.8 162.98 L558.8 164.16 L558.12 164.66 L556 165.68 L553.86 166.13 L553.74 166.77 L553.95 167.54 L553.53 168.22 L550.64 168.99 L547.87 170.38 L550.01 172.52 L555.8 173.83 L561.27 171.62 L566.38 169.04 L568.33 167.97 L568.96 167.15 L569.78 167.15 L569.84 168.6 L569.21 169.86 L563.48 174.33 L556.68 180.5 L553.41 181.76 L547.87 183.59 L541.45 185.17 L540.19 186.81 L540.49 188.7 L540.16 190.01 L539.63 190.61 L538.75 190.96 L536.85 191.36 L536.14 191.66 L533.57 194.08 L532.36 194.94 L530.82 195.29 L529.9 196.02 L528.26 199.24 L527.4 199.97 L527.04 200.63 L523.44 203.76 L511.45 211.67 L504.65 216.17 L497.01 220.14 L485.18 226.26 L480.19 228.3 L472.08 229.37 L470.57 229.18 L468.39 228.41 L467.44 228.3 L465.95 228.71 L462.98 230.15 L461.64 230.54 L457.01 229.37 L454.77 227.91 L453.74 226.7 L454.58 225.87 L452.88 226.54 L452.8 227.29 L453.06 228.21 L452.37 229.37 L449.28 231.4 L438.54 242.1 L437.19 245.24 L437.76 261.68 L437.55 263.67 L437.15 264.27 L436.14 265.78 L438.89 267.1 L440.12 270.38 L440.95 273.73 L442.46 275.26 L444.97 275.78 L451.44 278.63 L453.42 280.05 L459.15 281.77 L462.73 287.94 L465.18 295.12 L467.44 299.94 L483.67 312.92 L493.97 322.31 L509.48 342.13 L517.4 356.66 L519.48 361.71 L519.29 365.02 L516.68 371.56 L515.35 373.01 L513.28 373.5 L508.74 373.74 L507.35 374 L495.37 378.52 L484.68 378.5 L482.61 379.69 L480.55 378.73 L475.99 377.66 L474.4 376.18 L473.24 376.18 L471.72 376.93 L466.28 378.52 L466.28 379.69 L468.47 379.44 L470.24 379 L471.77 378.33 L473.24 377.46 L474.4 378.52 L462.19 382.53 L457.67 385.81 L457.01 390.31 L459.91 395.16 L459.37 396.72 L455.16 397.32 L453.99 397.67 L452.66 398.47 L451.56 399.44 L451.1 400.25 L450.67 402.14 L449.55 402.8 L448.02 403.22 L446.36 404.34 L445.63 405.77 L445.69 406.96 L445.53 408.01 L444.14 409.01 L442.86 409.11 L439.65 408.13 L437.82 407.84 L417.05 410.45 L415.82 410.68 L397.31 414.15 L383.68 414.64 L380.18 413.69 L379.03 413.69 L378.15 414.69 L377.28 415.02 L376.41 414.69 L375.54 413.69 L374.38 413.69 L372.06 415.99 L370.15 414.82 L367.43 410.28 L366.52 409.53 L365.28 408.73 L363.79 408.11 L362.17 407.84 L360.53 407.3 L360.46 406.09 L361.24 404.89 L362.17 404.34 L362.86 403.59 L362.67 399.91 L362.8 398.49 L363.68 397.28 L365.59 395.83 L366.26 394.99 L366.87 392.71 L367.01 389.55 L366.31 386.74 L361.98 384.1 L362.05 380.88 L363.85 375.6 L363.02 373.37 L356.89 366.73 L356.3 366.38 L355.02 365.19 L354.22 363.91 L356.29 362.71 L356.62 361.25 L356.81 359.52 L357.47 358.06 L357.71 356.07 L356.12 353.68 L353.87 351.56 L352.15 350.36 L352.15 349.19 L353.41 349.19 L353.41 348.02 L345.2 339.83 L343.52 338.88 L342.23 338.5 L341.59 337.92 L341.82 336.31 L342.63 334.79 L343.88 333.72 L345.57 333.34 L347.62 333.87 L346.8 332.4 L344.89 330.9 L342.75 329.76 L341.24 329.3 L340.99 328.49 L344.15 323.35 L342.29 323.47 L340.64 323.26 L339.29 322.78 L338.24 322.07 L338.82 321.94 L339.3 321.96 L339.56 321.77 L339.5 321 L335.58 320.25 L333.98 317.8 L334.09 315.19 L335.34 313.99 L336.29 313.61 L337.14 312.82 L338.27 312.01 L340.08 311.65 L342.21 311.65 L343.92 311.34 L344.99 310.33 L345.2 308.13 L344.15 308.13 L340.3 310.33 L339.11 305.75 L339.5 295.16 L335.83 302 L333.24 304.3 L331.29 301 L330.23 301 L330.61 302.84 L331.25 304.18 L332.25 305.13 L333.71 305.79 L333.71 306.97 L326.01 306.97 L324.43 306.6 L322.32 304.99 L320.22 304.62 L315.93 303.36 L315.09 300.67 L314.65 298.17 L311.58 297.5 L313.26 298.2 L313.76 298.81 L313.9 299.94 L311.65 300.68 L312.06 302.05 L315.06 304.62 L318 306.19 L318.53 306.38 L318.26 307.9 L317.76 309.14 L317.49 310.16 L320.64 316.1 L318.99 320.56 L315.21 324.2 L311.58 326.85 L310.84 325.46 L310.71 324.64 L311 324.04 L311.58 323.35 L311.58 322.07 L309.2 321.92 L306.84 322.07 L306.84 323.35 L308.64 323.84 L309.64 324.87 L311.58 328.02 L309.29 328.89 L308.29 328.76 L306.84 328.02 L308.08 330.07 L309.27 331.54 L310.32 331.54 L312.58 330.3 L315.06 329.3 L315.79 331.22 L315.06 338.66 L315.41 340.66 L315.46 341.83 L315.06 343.33 L314.42 344.17 L312.37 345.84 L311.58 346.95 L310.32 346.95 L308.86 345.87 L303.4 342.94 L302.2 342.75 L301.28 340.59 L299.17 339.81 L295.25 339.83 L281.2 335.89 L276.6 336.31 L275.9 334.34 L274.76 332.61 L273.4 331.27 L272.06 330.47 L268.14 331.45 L263.12 331.02 L259.33 329.39 L259.1 326.85 L260.54 326.4 L263.71 324.73 L265.62 322.92 L258.95 320.98 L257.08 321.53 L256.89 324.51 L252.98 321.71 L250.99 321 L250.99 319.83 L252.1 318.33 L251.17 316.9 L249.6 315.35 L248.77 313.45 L249.06 310.64 L249.83 308.81 L252.25 305.79 L252.25 304.62 L251.04 303.82 L249.81 303.51 L248.6 303.75 L247.5 304.62 L246.46 304.62 L245.18 303.45 L245.18 302.18 L246.77 300.88 L246.75 299.64 L245.37 298.82 L242.88 298.78 L243.4 296.16 L243.56 293.3 L244.53 291.69 L247.5 292.82 L247.07 291.29 L246.38 290.22 L244.04 288.14 L244.82 286.86 L244.53 284.36 L245.18 282.28 L243.11 283.13 L242.13 282.88 L241.83 283.05 L241.82 285.21 L242.63 287.59 L242.9 288.86 L242.34 289.41 L241.08 289.22 L240.2 288.64 L239.67 287.71 L239.5 286.43 L238.94 284.55 L235.94 280.4 L234.76 278.77 L232.33 272.29 L231.28 270.57 L230.24 273.23 L230.03 274.62 L230.12 276.33 L228.33 274.57 L228.31 272.08 L228 269.68 L225.38 268.23 L225.38 266.96 L226.82 267.79 L228.15 268.17 L229.27 267.94 L230.12 266.96 L231.28 266.96 L231.86 267.46 L232.23 267.66 L233.6 268.23 L227.81 257.59 L224.06 252.9 L222.38 250.24 L221.9 247.05 L220.85 247.05 L219.87 248.97 L219.46 250.86 L220 252.3 L221.9 252.9 L220.85 254.39 L218.3 257.17 L217.16 258.76 L216.11 258.76 L213.06 256.43 L199.77 251.15 L198.28 250.22 L191.21 248.53 L188.81 248.22 L187 247.11 L187.67 244.57 L190.5 239.92 L188.45 240.55 L186.17 242.03 L184.31 244.09 L183.54 246.41 L182.49 246.92 L180.15 245.45 L176.58 242.37 L174.09 244.22 L168.58 243.88 L163.01 242.15 L160.25 239.92 L159.2 239.92 L158.91 243.04 L154.64 252.49 L154.28 252.18 L153.54 251.8 L153.3 251.73 L153.3 252.9 L152.25 252.9 L153.83 248.91 L153.77 247.65 L152.25 248.22 L152.44 246.81 L152.71 245.76 L153.29 245.07 L154.46 244.71 L154.46 243.42 L152.18 243.63 L149.26 245.34 L146.92 245.77 L145.45 245.27 L143.29 242.98 L141.6 242.37 L141.6 241.2 L142.47 240.93 L143.24 240.3 L144.02 239.92 L142.06 234.62 L141.88 232.22 L142.86 230.54 L142.86 229.37 L141.87 228.6 L141.68 227.74 L142.08 226.81 L142.86 225.87 L143.06 226.31 L143.02 226.79 L143.2 227.1 L144.02 227.03 L143.2 224.74 L143.4 222.98 L144.77 221.74 L147.51 221.07 L143.53 220.94 L141.45 221.11 L140.54 221.71 L137.83 227.33 L137.65 228.3 L134.35 228 L131.78 226.89 L130.53 224.67 L131.27 221.07 L128.48 222.27 L125.52 223.19 L122.51 223.37 L119.58 222.35 L119.89 223.48 L120.25 225.91 L120.63 227.03 L117.92 227.44 L113.08 229.95 L110.89 230.54 L107.69 229.68 L105.26 227.74 L104.91 225.72 L107.98 224.57 L107.98 223.52 L106.55 222.94 L105.77 221.94 L105.52 220.55 L105.66 218.83 L103.94 220.13 L103.67 222.25 L102.93 224.44 L99.77 225.87 L99.77 227.03 L100.48 227.98 L101.16 229.16 L101.72 230.45 L102.08 231.72 L98.88 232.41 L97.7 232.36 L96.29 231.72 L91.94 232.53 L84.99 230.65 L73.1 225.87 L66.95 224.57 L60.21 224.57 L53.52 225.49 L41.52 229.22 L36.37 232.17 L32.39 236.37 L29.89 242.37 L29.44 249.43 L30.63 256.64 L34.64 268.23 L34.64 269.3 L32.45 271.55 L31.42 274.39 L29.93 275.84 L26.42 273.98 L27.48 270.07 L28.33 262.41 L19.38 242.75 L18.6 237.31 L17.44 235.55 L14.47 233.98 L12.92 233.76 L10.87 234.58 L9.8 234.52 L8.85 233.76 L7.21 231.34 L6.31 230.37 L1.56 227.56 L0 225.89 L0.19 223.74 L1.69 222.52 L9.42 218.16 L16.93 210.96 L21.81 208.45 L26.61 206.97 L31.04 204.78 L34.8 200.14 L36.39 195.08 L36.89 189.05 L35.89 177.08 L34.54 171.86 L32.43 167.43 L29.59 163.41 L24.26 157.43 L22.75 155.17 L21.92 152.74 L22.12 150.17 L23.49 148.69 L28.54 145.53 L30.13 143.69 L30.15 141.35 L28.81 140.51 L28 139.73 L29.65 137.52 L31.63 136.1 L49.15 128.9 L54.23 125.8 L56.55 121.98 L56.69 121.76 L56.01 120.14 L51.63 112.73 L49.33 111.19 L41.61 108.55 L33.81 102.77 L30 101.06 L29 100.48 L28.25 99.42 L27.77 98.06 L27.16 96.76 L25.98 95.88 L24.41 95.89 L19.33 98.03 L19.31 96.13 L18.95 67.96 L18.68 47.33 L18.5 33.08 L18.94 29.77 L20.36 27.37 L23.54 26.24 L32.59 25 L35.12 23.54 L35.39 22.14 L34.61 21.66 L33.5 21.32 L32.77 20.33 L31.6 15.61 L29.54 11.95 L29.86 10.35 L31.78 7.61 L34.94 4.93 L38.07 4.58 L47.9 8.51 L54.99 14.53 L56.62 15.15 L57.99 14.51 L59.73 16.48 L61.9 20.63 L63.7 22.65 L65.37 23.44 L68.34 24.35 L71.5 24.9 L73.75 24.55 L74.85 22.35 L75.56 15.74 L76.76 13.88 L79.35 14.3 L81.94 15.68 L83.26 15.6 Z M211.46 402 L213.12 401.38 L214.49 401.54 L216.09 401.93 L218.43 402 L216.33 403.7 L214.07 408.13 L212.62 410.29 L213.29 411.16 L213.89 412.52 L212.62 412.52 L210.02 404.76 L210.3 403.28 L209.59 402.31 L209.52 401.78 L210.3 400.83 L210.95 400.86 L211.37 400.97 L211.55 401.29 Z M323.28 355.13 L325.58 353.93 L328.55 352.85 L333.71 351.63 L335.86 352.37 L338.14 352.66 L342.99 352.69 L340.96 356.34 L339.63 357.97 L337.71 358.64 L335.86 359.56 L334.55 359.81 L333.08 359.18 L332 358.32 L331.05 357.81 L329.95 357.55 L328.39 357.47 L326.65 357.85 L325.78 358.77 L325.2 359.89 L324.33 360.87 L319.59 363.32 L317.2 366.13 L316.22 366.73 L314.79 366.73 L313.19 366.36 L311.96 365.91 L311.57 365.66 L306.89 367.31 L305.83 367.25 L307.41 365.03 L309.06 363.32 L310.79 362 L312.87 361.17 L318.99 360.23 L320.75 358.67 L321.84 356.78 Z M235.8 383.2 L237.82 384.27 L242.99 383.78 L244.04 385.01 L248.77 393.83 L245.6 395.13 L241.95 396.15 L238.34 396.17 L232.43 392.77 L225.15 392.25 L221.9 391.49 L220.13 389.97 L216.04 385.43 L212.77 383.49 L205.67 377.46 L201.8 369.3 L200.4 368 L200.02 367.25 L198.72 362.73 L199.38 362.62 L202.92 362.61 L204.51 362.15 L204.47 361.48 L206.62 357.61 L206.94 357.47 L207.38 355.46 L207.44 353.93 L207.69 352.57 L208.62 350.99 L209.92 350.13 L213.06 349.47 L217.85 345.95 L219.51 345.03 L219.58 345.67 L220.84 345.67 L220.38 344.37 L220.02 342.25 L219.58 340.9 L220.84 340.9 L220.84 342.17 L221.9 342.17 L221.81 341.32 L222.05 341.07 L222.55 341.04 L223.16 340.9 L227.01 351.97 L227.17 353.96 L227.5 354.32 L228.85 356.41 L228.94 356.86 L228.75 358.23 L228.85 358.64 L229.39 358.73 L230.8 358.52 L231.28 358.64 L232.8 359.69 L233.89 360.11 L234.54 361.1 L234.76 363.86 L233.76 364.66 L228.33 366.73 L228.17 367.9 L226.9 372.89 L226.53 373.74 L227.59 375.87 L230.65 378.63 L231.28 380.33 L231.59 382.08 L232.4 383.59 L233.51 384.17 L234.76 383.2 Z M142.86 245.78 L139.26 244.73 L136.87 244.48 L135.8 245.24 L135.81 246.79 L135.93 247.63 L137.06 250.56 L132.33 247.05 L131.05 246.75 L127.65 246.31 L126.53 245.78 L125.23 243.08 L126.79 241.51 L132.33 239.92 L134.75 241 L138.26 242.1 L141.45 243.57 Z M120.63 235.35 L125.37 238.75 L121.97 239.62 L116.05 242.75 L113.21 243.43 L111.19 242.52 L108.78 240.32 L106.71 237.65 L105.66 235.35 L106.72 235.35 L110.58 235.84 L119.4 229.57 L123.05 230.54 L125.08 232.37 L124.96 234.05 L123.29 234.85 L120.63 234.06 Z M672.19 227.03 L673.3 229.21 L674.07 232.91 L675.28 234.32 L676.11 234.58 L677 235.22 L676.3 235.85 L674.51 236.23 L672.66 235.4 L670.54 236.55 L670.41 238.02 L671.45 239.04 L671.43 240.51 L670.35 240.7 L669.71 241.53 L669.57 243.84 L667.33 244.1 L664.39 238.02 L664.9 235.79 L665.99 235.91 L666.12 234.64 L666.83 232.33 L666.19 230.67 L667.02 227.92 L669.07 225.5 L670.35 225.31 L671.12 225.5 L672.05 226.47 Z M117.35 265.04 L117.83 262.96 L118.98 260.72 L120.56 258.78 L122.39 257.7 L124.37 257.59 L124.77 258.68 L124.58 260.54 L124.79 262.8 L121.68 264.19 L119.82 264.8 Z M673.83 214.33 L672.4 215.24 L669.11 212.78 L666.07 210.49 L668.09 206.33 L670.33 208.11 L672.06 210.21 L672.85 209.56 L673.23 207.97 L674.16 208.58 L673.51 210.73 L674.77 211.57 L674.53 212.88 Z M157.93 52.78 L162.23 54.75 L164.34 56.22 L166.15 58.65 L162.86 58.18 L159.44 59.56 L156.72 62.14 L155.25 66.09 L154.44 65.77 L152.6 63.84 L152.68 63.7 L153.06 63.57 L153.3 62.81 L153.31 58.87 L152.67 57.32 L150.98 56.3 L150.98 55.23 L153.3 56.3 L151.77 52.7 L149.23 51.45 L146.12 50.85 L142.86 49.25 L142.86 48.19 L143.82 47.35 L144.69 47.01 L145.54 47.25 L146.34 48.19 L147.84 48.79 L149.21 49.1 L150.64 48.94 L152.24 48.19 L153.91 49 Z M123.05 37.4 L127.6 33.91 L130.35 32.78 L133.59 32.7 L138.28 39.69 L139.46 44.06 L137.06 46.9 L137.06 48.19 L137.81 49.01 L138.05 49.46 L137.79 50.13 L137.06 51.51 L134.73 47.53 L131.15 43.83 Z M706.45 201.36 L706.21 199.43 L706.85 198.6 L708.5 199.57 L710.38 200.74 L711.46 202.11 L712.23 203.95 L712.71 205.94 L712.87 207.7 L712.83 209.04 L714.95 209.42 L716.09 211.67 L715.78 213.58 L714.36 214.54 L713.97 216.71 L716.26 221.14 L714.78 224.97 L713.24 226.38 L713.24 227.91 L712.27 229.2 L710.16 229.06 L709.32 228.23 L708.11 228.42 L706.97 228.63 L705.75 228.92 L705.3 228.03 L704.91 226.94 L704.34 228.03 L703.07 229.56 L701.66 231.47 L701.72 232.94 L701.27 234.41 L702.93 236.4 L703.25 239.78 L704.27 240.61 L705.55 240.68 L705.55 241.45 L704.46 242.34 L702.09 240.99 L700.31 239.52 L700.56 237.09 L699.42 233.07 L698.34 231.47 L695.29 230.13 L694.21 229.37 L693.27 227.61 L694.03 224.92 L695.25 223.49 L695.84 220.5 L695.21 219.41 L693.72 217.77 L693.27 216.49 L693.97 215.22 L694.68 214.14 L694.74 212.99 L693.98 209.91 L694.21 208.29 L692.45 203.71 L693.1 201.29 L695.27 201.23 L696.8 202.26 L703.65 199.3 L705.18 200.75 L705.65 201.59 L705.92 202.42 Z M591.32 142.88 L592.52 141.84 L593.61 142.21 L594.13 142.05 L594.24 142.57 L593.87 142.99 L594.34 144.03 L595.12 144.55 L596.16 144.91 L596.27 145.85 L595.9 146.84 L595.12 147.1 L594.55 146.22 L593.87 145.59 L592.62 145.85 L591.53 145.54 L591.11 144.5 Z M252.12 89.66 L252.59 90.13 L253.54 90.4 L253.91 90.03 L254.69 90.08 L255.69 90.61 L256.59 91.24 L257.27 91.92 L257.48 92.55 L257.96 93.03 L257.85 93.5 L257.12 93.5 L256.27 93.08 L254.85 92.87 L253.11 92.66 L252.33 92.66 L251.54 92.87 L251.33 91.76 L250.96 90.97 L250.59 90.29 L250.91 89.76 Z M170.8 78.6 L169.92 77.72 L170.02 76.94 L171.09 77.43 L171.77 78.5 L172.75 79.08 L173.92 79.18 L174.51 80.64 L174.9 81.81 L176.07 82.29 L177.33 82.88 L177.04 83.95 L175.48 84.63 L174.22 85.41 L173.24 85.12 L171.68 84.05 L170.32 83.18 L169.44 81.81 L169.53 80.45 Z "/>
</g>
</svg>
