<svg xmlns="http://www.w3.org/2000/svg" viewBox="0 0 1000 685.97">
<g fill="#ccc" stroke="#333" stroke-width="0.5" stroke-linejoin="round">
<path fill-rule="evenodd" d="M8.28 83.01 L9.13 82.96 L10.49 83.51 L12.82 82.3 L15.35 82.6 L18.01 83.47 L20.71 83.97 L22.76 83.97 L23.59 84.27 L24.14 84.63 L24.57 85 L25.03 85.29 L25.78 85.45 L27.48 85.53 L28.22 85.78 L28.53 86.19 L29.21 87.59 L29.57 88.03 L30.44 87.69 L32.35 89.72 L33.84 90.3 L35.26 90.49 L48.09 95.82 L62.97 102.84 L65.06 103.23 L65.28 103.72 L65.3 104.38 L65.58 105.04 L68.54 107.06 L69.87 107.29 L72.35 106.82 L76.12 106.55 L76.81 106.84 L80.42 110.06 L80.77 110.69 L80.62 111.25 L80.32 112 L80.11 112.77 L80.28 113.45 L80.73 113.58 L82.42 113.71 L83.03 113.9 L85.21 113.14 L86.66 113.83 L88.15 114.77 L89.6 115.26 L91.11 115.39 L92.1 115.72 L93.95 116.61 L102.23 119.03 L109.32 122.45 L116.84 124.77 L129.85 128.74 L131.32 128.9 L132.07 129.08 L134.27 130.26 L135.14 130.37 L136.08 130.4 L136.97 130.53 L138.89 131.66 L144.2 133.02 L145.7 133.05 L147.89 132.86 L149.04 132.76 L150.11 133.02 L150.56 132.52 L151.67 132.97 L156.23 133.43 L156.86 133.64 L158.11 134.58 L158.95 134.79 L159.75 134.83 L173.87 137.33 L176.85 138.34 L178.01 139.12 L181.81 142.92 L182.47 144.77 L182.75 145.23 L183.19 145.56 L184.23 146 L184.77 146.34 L185.32 146.61 L187.27 147.24 L187.53 147.51 L188.12 147.23 L189.08 146.55 L189.46 146.56 L189.9 146.71 L190.04 147.13 L189.53 147.94 L190.15 148.78 L190.83 149.36 L191.73 149.69 L194.09 149.88 L195.34 150.17 L196.37 150.65 L198.83 154.52 L199.66 155.12 L202.39 156.35 L203.36 156.58 L204.91 157.32 L208.13 162.02 L209.83 162.67 L212.03 162.8 L216.34 162.51 L217.03 162.61 L217.79 162.49 L219.45 162.51 L218.91 163.05 L218.27 163.38 L217.53 163.49 L216.75 163.41 L217.26 164.19 L217.86 164.59 L218.5 164.9 L219.21 165.43 L220.24 165.87 L221.88 164.98 L222.85 165.43 L223.35 166.39 L223.68 166.85 L224.2 167.03 L224.92 166.97 L225.09 166.79 L225.09 166.51 L225.33 166.13 L225.96 165.44 L226.54 164.54 L226.85 163.64 L226.68 162.96 L228.91 162.37 L231.89 162.34 L234.87 162.73 L237.11 163.41 L237.97 163.25 L241.4 163.39 L242.37 163.64 L243.27 164.54 L244.02 165.54 L244.58 166.66 L244.87 167.98 L244.87 173.64 L245.3 174.37 L246.3 175.13 L246.89 175.45 L247.51 175.78 L248.48 176.17 L256.72 177.46 L259.32 178.43 L261.06 179.96 L262.23 180.76 L264.22 181.31 L265.81 182.31 L266.14 182.67 L266.21 182.88 L266.36 183 L266.52 183.21 L266.59 183.61 L266.42 184.05 L265.58 184.41 L265.27 184.77 L265.24 185.56 L265.62 186.44 L266.45 187.15 L269.39 187.67 L270.53 188.28 L272.5 190.21 L273.97 191.14 L274.31 191.56 L274.3 193.97 L274.53 194.32 L275.49 194.88 L277.92 198.41 L279.7 199.38 L286.55 201.61 L289.18 201.59 L292.03 200.91 L294.85 200.58 L297.42 201.61 L300.13 205.01 L304.19 208.4 L306.58 211.17 L307.13 212.21 L308.53 214.09 L309.16 214.5 L309.71 214.47 L310.18 214.31 L310.55 214.33 L311.58 215.48 L312.99 218.6 L320.21 226.7 L321.23 227.6 L322.47 228.11 L323.52 228.8 L323.74 229.09 L325.99 229.74 L326.59 230.36 L327.56 231.62 L328.25 232.85 L328.05 233.41 L327.3 234.02 L326.83 235.43 L326.45 238.44 L326.5 240 L327.18 242.73 L327.35 244.08 L327.5 244.46 L328.11 245.37 L328.25 245.94 L328.18 246.5 L327.7 247.25 L327.35 247.99 L327.4 248.17 L327.24 250.55 L326.96 252.02 L326.89 252.71 L326.99 255.53 L326.88 256.75 L326.45 257.98 L324.08 261.32 L323.74 262.76 L323.82 263.3 L324.12 264.31 L324.18 265.05 L324.02 265.87 L322.84 268 L322.67 270.14 L323.4 272.22 L324.8 273.76 L326.67 274.39 L330.68 273.68 L332.26 274.1 L333.22 276.2 L333.67 276.2 L333.77 275.73 L334.06 274.9 L334.13 274.39 L334.58 274.54 L334.77 274.64 L335.03 274.83 L335.83 273.89 L336.81 273.7 L337.81 273.61 L338.68 272.99 L339.85 274.17 L340.97 274.59 L342.18 274.91 L343.65 275.75 L344.15 275.32 L344.48 275.27 L344.73 275.45 L345.01 275.75 L345.72 275.72 L347.97 276.74 L349.11 277.11 L350.73 277.06 L351.5 277.22 L351.83 277.79 L352.13 278.58 L352.88 278.83 L354.53 278.92 L355.8 279.52 L356.51 279.75 L357.7 279.41 L358.33 279.81 L358.96 280.4 L359.54 280.78 L360.24 280.79 L361.61 280.39 L362.49 280.29 L363.27 280.3 L363.78 280.43 L365 281.19 L365.45 281.5 L366.03 281.99 L366.75 282.21 L367.62 282.14 L367.22 282.14 L368.67 282.12 L369.96 281.86 L371.19 281.89 L372.43 282.8 L372.76 283.43 L373.01 284.09 L373.43 284.61 L375.02 284.96 L375.81 285.31 L384.13 291.85 L388.52 293.03 L390.78 294.39 L392.29 294.73 L392.85 295.09 L393.18 296.31 L393.48 297.47 L394.46 297.8 L395.65 297.5 L396.69 297.12 L398.21 296.9 L399.37 297.11 L400.38 297.44 L401.43 297.61 L402.4 298.02 L402.94 299.01 L403.35 300.22 L403.92 301.24 L407.36 303.51 L407.89 303.58 L408.56 303.73 L409.14 303.96 L409.64 304.45 L410.22 304.19 L411.15 303.51 L411.87 303.48 L412.29 303.61 L413.03 304.42 L413.9 305.82 L414.55 306.47 L414.84 306.04 L415.63 305.72 L421.73 306.46 L422.35 306.46 L422.97 306.28 L423.75 305.69 L424.37 304.91 L425.03 304.25 L425.96 303.97 L426.55 304.11 L428.2 304.88 L428.64 304.84 L428.79 304.73 L428.87 304.52 L429.11 304.19 L429.57 303.93 L429.89 304.03 L430.24 304.42 L433.51 305.6 L436.55 305.98 L437.7 306.5 L438.6 307.22 L439.35 308.06 L439.61 308.19 L440.4 308.38 L440.67 308.55 L440.82 308.9 L440.93 309.59 L441.08 309.91 L441.53 310.37 L443.33 311.23 L447.97 315.63 L449.73 318.78 L450.4 319.49 L451.47 320.12 L452.11 321.63 L452.63 323.42 L453.35 324.46 L454.88 326.64 L459.81 329.14 L461.52 330.85 L461.77 331.77 L461.67 332.37 L461.48 332.91 L461.52 333.66 L461.96 334.52 L462.57 335.19 L463.1 335.94 L463.47 337.79 L464.09 339.35 L464.23 340.23 L464.01 340.81 L463.62 341.3 L463.41 341.85 L463.77 342.71 L463.06 343.59 L463.15 344.57 L463.54 345.7 L463.77 347.09 L463.57 347.39 L462.64 348.01 L462.43 348.2 L462.54 349.03 L462.86 349.47 L463.3 349.52 L463.77 349.11 L463.33 354.52 L458.15 356.31 L446.54 356.93 L445.9 357.32 L444.74 358.4 L444.23 358.71 L443.5 358.67 L442.77 358.37 L442.06 358.17 L441.32 358.48 L440.12 358.78 L435.7 357.34 L434.18 357.35 L431.45 358.07 L430.03 358.25 L419.73 357.69 L418.91 357.8 L418.54 357.13 L418.04 356.61 L417.41 356.23 L416.61 355.97 L415.58 355.86 L412.32 355.97 L411.43 356.26 L409.78 357.51 L408.68 357.8 L406.47 357.7 L405.34 357.81 L404.37 358.25 L404.28 359.86 L403.27 362.64 L403.02 364.16 L403.09 367.37 L403.51 370.53 L403.95 372.09 L406.12 374.78 L407.53 376.07 L408.22 376.94 L408.64 377.26 L409.38 377.43 L409.9 377.33 L410.78 376.49 L411.64 376.07 L411.54 376.97 L411.2 377.66 L410.85 378.24 L410.7 378.76 L410.84 379.59 L411.43 380.68 L411.64 381.53 L411.54 382.38 L411.06 383.95 L411.15 384.76 L411.41 384.85 L414.83 387.5 L415.6 388.34 L416.19 389.31 L416.43 390.71 L416.16 393.87 L416.61 394.77 L416.94 395.5 L416.73 395.82 L416.36 396.08 L416.19 396.63 L416.57 397.28 L417.06 398.46 L417.37 400.49 L417.55 401.15 L418.62 402.86 L418.91 403.47 L419.3 403.75 L419.61 404.02 L419.81 404.34 L419.73 404.72 L419.38 404.92 L419 405.05 L418.91 405.25 L419.31 405.95 L419.6 405.99 L420 405.89 L420.71 406.2 L421.02 406.69 L420.97 407.12 L421.14 407.42 L422.07 407.57 L422.36 407.39 L423.46 406.2 L423.88 406.2 L424.27 406.53 L424.58 406.87 L424.63 407.22 L424.33 407.57 L428.32 408.54 L430.29 409.47 L431.15 411 L431.4 411.69 L431.99 412.02 L432.7 412.16 L433.23 412.17 L434.22 412.33 L434.83 412.76 L435.36 413.33 L436.15 413.95 L435.6 414.56 L435.99 414.71 L436.78 414.73 L437.46 414.9 L439.08 416.21 L439.84 417.05 L440.17 417.84 L440.13 420.34 L440.77 420.96 L444.36 421.53 L445.29 422.04 L445.6 423.02 L445.63 424.73 L446.1 426.12 L446.97 427.19 L447.52 428.24 L446.99 429.57 L450.19 429.11 L450.19 428.61 L449.57 428.33 L449.1 427.87 L448.85 427.22 L448.83 426.33 L450.62 427.72 L452.04 429.18 L453 431.11 L453.53 435.41 L454.06 436.52 L454.92 437.29 L456.1 437.76 L457.17 437.86 L459.18 437.39 L460.62 437.32 L461.02 437.54 L461.4 437.92 L461.89 438.05 L462.65 437.54 L463.28 437.27 L464.05 437.33 L464.82 437.63 L467.93 439.92 L469.39 440.66 L470.82 440.96 L471.33 441.6 L471.49 442.1 L472.28 444.59 L472.89 445.52 L474.18 445.68 L475.56 445.35 L476.72 445.23 L477.37 446.02 L478.09 445.63 L478.85 445.55 L480.53 445.52 L480.88 445.3 L481.92 444.9 L482.67 444.87 L482.13 445.78 L482.09 446.86 L483.45 452.93 L484.42 454.47 L484.78 456.4 L485.99 458.84 L486.52 460.37 L486.93 462.28 L486.97 464.18 L486.4 465.72 L488.25 469.83 L488.6 471.33 L488.48 472.51 L487.8 474.89 L487.73 476.15 L487.85 477.57 L488.17 478.89 L488.7 479.87 L489.76 480.65 L492.12 481.79 L492.77 482.66 L494.29 482.16 L495.6 482.54 L496.68 483.22 L497.55 483.58 L498.04 483.71 L498.56 484.07 L498.97 484.58 L499.13 485.18 L499.49 485.62 L501.88 486.36 L502.44 486.93 L503.19 488.64 L503.86 489.63 L504.81 490.67 L505.19 491.78 L505.04 496.41 L505.82 500.87 L506.19 501.47 L506.79 501.57 L507.32 501.83 L507.69 502.19 L507.83 502.6 L507.75 503.03 L507.39 503.66 L507.3 503.99 L507.43 504.38 L508.02 505.17 L508.2 505.64 L508.82 508.32 L509.98 510.88 L511.72 512.99 L514.07 514.31 L519.81 515.36 L522.15 515.28 L523.15 515.65 L523.75 515.4 L526.55 514.73 L527.65 514.67 L528.51 514.5 L529.24 514.21 L530.62 513.41 L531.36 512.83 L531.96 512.12 L532.21 511.35 L532.73 511.56 L533.93 511.66 L535.3 511.56 L536.32 511.12 L537.68 512.15 L539.48 512.03 L543.7 511.05 L544.09 510.9 L544.38 510.68 L544.49 510.45 L544.64 509.8 L545 509.56 L545.45 509.47 L545.85 509.29 L546.9 508.08 L547.58 507.47 L548.52 507 L549.29 508.94 L555.25 508.51 L556.69 509.75 L557.37 509.37 L557.94 509.27 L558.34 509.53 L558.5 510.25 L558.95 510.25 L559.59 509.84 L560.17 510.21 L560.59 510.98 L560.75 511.79 L560.6 512.72 L560.22 513.48 L559.4 514.73 L559.76 514.92 L560.01 515.09 L560.3 515.21 L560.75 515.24 L559.69 515.6 L559.14 515.68 L558.5 515.65 L559.42 516.57 L560.61 516.76 L561.44 517.07 L561.24 518.43 L560.53 519.46 L559.45 520.27 L558.24 520.62 L557.14 520.27 L556.64 520.91 L555.53 522.92 L555.33 523.72 L555.19 525.17 L554.57 527.4 L554.43 528.77 L553.93 529.88 L551.73 531.75 L551.23 533.37 L551.52 534.88 L552.78 537.48 L553.07 538.91 L554.12 541.32 L556.54 542.45 L561.24 543.27 L563.01 544.19 L563.39 544.52 L564.08 545.3 L564.41 545.56 L564.71 545.62 L565.47 545.5 L565.76 545.56 L566.6 546.37 L566.67 546.48 L568.96 547.4 L568.33 548.28 L569.37 548.53 L569.65 548.52 L574.92 548.46 L576.19 548.72 L580.14 550.32 L581.17 550.22 L582.33 549.43 L582.98 549.16 L583.66 549.27 L584.6 549.64 L585.27 549.51 L586.85 548.91 L587.48 548.77 L588.99 548.97 L591.58 549.89 L594.7 550.28 L597.9 551.52 L599.41 551.61 L603.62 551.02 L605.34 551.2 L606.09 551.75 L607.02 553.81 L607.55 554.22 L608.06 554.3 L608.51 554.59 L608.82 555.64 L608.98 556.64 L608.9 556.83 L608.43 556.77 L607.43 557.01 L603.85 558.87 L602.55 559.35 L597.9 560.27 L595.35 561.07 L593.8 561.21 L592.49 560.68 L591.63 561.49 L588.52 562.4 L587.48 562.97 L586.82 564.4 L587.11 565.55 L588.87 567.64 L593.72 571.58 L595.8 574.1 L595.65 576.77 L597.32 576.9 L598.38 577.33 L600.43 579.37 L601.27 579.96 L602.47 580.47 L603.78 580.84 L604.97 580.98 L608.78 580.78 L610.19 580.98 L611.48 581.38 L613.79 582.79 L614.27 582.89 L615.18 582.82 L615.79 582.63 L617 582.03 L617.68 581.9 L618.29 582.16 L618.77 582.77 L619.48 583.94 L621.57 584.59 L622.06 584.88 L623.09 586.28 L624.31 587.32 L625.19 587.81 L627.84 588.32 L630.56 589.31 L632.01 589.62 L633.3 589.24 L633.72 589.37 L634.49 589.41 L635.23 589.31 L635.56 589.01 L638.3 589.66 L639.96 590.31 L640.67 590.21 L641.69 589.44 L642.28 589.33 L645.08 589.66 L644.72 590.17 L643.86 591.12 L643.72 591.53 L644.15 592.21 L645.65 593.22 L645.98 594.08 L646.76 594.44 L648.52 594.21 L652.8 593.15 L657.1 592.95 L658.11 592.61 L660.09 591.04 L661.38 590.62 L663.09 590.87 L662.91 591.68 L661.69 592.55 L659.01 593.22 L650.84 597.64 L648.48 598.51 L645.98 598.92 L644.86 598.91 L644.5 598.77 L644.18 598.46 L642.87 598.58 L639.89 597.37 L638.5 597.04 L635.73 596.86 L634.43 596.52 L633.51 595.93 L631.73 595.94 L629.52 597.74 L628.23 600.32 L629.19 602.63 L629.51 602.66 L629.62 602.59 L629.68 602.13 L630.64 602.66 L633.65 602.81 L634.88 603.3 L635.42 603.63 L636.14 603.84 L638.34 604.17 L639.01 604.57 L640.07 605.38 L648.09 607.83 L649.64 609.1 L650.09 611.4 L650.87 612.49 L651.11 613.2 L650.74 613.92 L649.72 614.55 L641.7 617.51 L640.98 617.14 L640.73 616.96 L638.96 617.37 L638.01 617.41 L637.49 617.57 L636.46 618.29 L636.34 618.57 L635.69 619.37 L634.98 620.04 L634.65 619.94 L634.45 620.18 L634.04 620.53 L633.69 621.1 L633.71 622.01 L632.77 621.62 L631.62 621.56 L630.49 621.73 L629.68 622.01 L628.86 620.48 L627.77 620 L626.4 620.28 L623.33 621.88 L623.32 622.01 L622.86 621.88 L622.29 621.6 L621.88 621.28 L621.92 621.09 L621.22 621.36 L620.54 621.78 L619.25 622.93 L618.79 622.37 L617.23 621.3 L617.05 620.86 L617.31 620.46 L617.7 620 L617.91 619.46 L617.2 619.02 L615.61 619.28 L613.93 619.92 L612.93 620.59 L611.85 619.14 L611.53 618.79 L610.89 618.51 L610.62 618.67 L610.37 618.89 L609.74 618.79 L608.86 617.71 L608.37 617.37 L607.93 617.34 L607.38 617.41 L606.75 617.36 L606.08 616.91 L607.3 616.11 L607.16 615.35 L606.49 614.63 L606.08 613.92 L605.86 613.67 L605.41 614.28 L604.76 615.53 L604.2 615.55 L603.61 615.33 L602.55 614.61 L602.69 614.32 L602.92 613.2 L602.22 613.82 L602.02 614.15 L601.55 614.15 L601.16 613.53 L600.33 613 L598.4 612.31 L598.85 613.2 L598.64 613.27 L598.46 613.27 L598.38 613.36 L598.4 613.7 L597.76 613.33 L597.11 613.05 L596.41 612.87 L595.65 612.77 L596.41 611.99 L597.45 611.66 L598.27 611.2 L598.4 609.98 L598.03 610.16 L597.09 610.44 L597.35 609.93 L597.75 609.55 L598.25 609.28 L598.85 609.1 L599.3 609.84 L600.01 609.91 L601.79 609.52 L604.75 610.32 L607.8 609.36 L608.37 609.1 L608.52 608.72 L608.67 607.58 L608.82 607.22 L609.2 607.06 L610.67 606.76 L609.81 606.4 L608.92 606.34 L608 606.37 L607.02 606.31 L606.33 606.01 L604.97 605.11 L603.56 604.85 L602.78 604.5 L602.29 604.43 L602.02 604.58 L601.59 605.24 L601.33 605.38 L601.21 605.84 L601.05 606.86 L600.76 607.94 L600.21 608.6 L599.71 608.16 L599.43 607.7 L599.32 607.17 L599.3 606.53 L599.19 606.01 L598.92 605.78 L598.61 605.63 L598.4 605.38 L597.83 603.72 L597.46 603.08 L596.82 602.39 L595.07 601.31 L591.42 600.17 L590.02 599.17 L588.63 598.5 L586.44 598.27 L582.11 598.46 L579.88 598.95 L578.67 599.05 L577.01 598.45 L576.31 598.92 L575.49 599.34 L574.39 598.92 L573.93 599.42 L574.84 599.83 L574.84 600.29 L572.79 600.29 L572.25 600.05 L572.06 598.85 L571.62 598.46 L570.9 598.6 L570.32 599.14 L569.6 599.45 L568.47 598.92 L569.21 598.45 L569.22 598 L568.71 597.67 L567.04 597.34 L566.83 596.84 L566.79 596.17 L566.44 595.47 L563.5 594.32 L562.65 594.71 L561.42 596.04 L560.75 596.62 L559.95 596.07 L558.64 595.63 L557.19 595.35 L555.98 595.24 L555.12 595.02 L550.36 592.55 L549.39 592.19 L547.63 591.96 L546.42 591.61 L545.85 591.53 L544.57 591.73 L543.98 591.76 L543.59 591.53 L542.05 592.16 L541.27 592.38 L540.61 592.45 L539.73 592.71 L538.93 593.3 L538.24 593.93 L537.68 594.32 L536.37 594.46 L535.11 594.01 L530.62 591.79 L529.82 591.59 L528.81 591.53 L525.4 592.04 L524.56 592 L523.34 591.63 L522.45 591.53 L521.79 591.23 L521.94 589.76 L521.34 589.24 L521.48 589.02 L521.65 588.56 L521.79 588.32 L521.11 588.35 L520.89 588.32 L521.24 587.54 L521.77 587.13 L522.48 586.97 L523.37 586.94 L523.75 586.4 L523.15 585.41 L522.25 584.91 L521.79 585.84 L521.47 586.31 L520.73 586.24 L519.97 585.91 L519.53 585.61 L519.22 585 L518.58 582.82 L518.17 582.82 L517.74 585.53 L517.25 586.82 L516.11 587.36 L515.43 588.12 L515.23 588.39 L514.8 588.29 L514.07 587.9 L510.95 587.9 L509.4 587.46 L508.56 587.34 L508.2 587.63 L507.85 588.2 L507.04 588.55 L506.07 588.72 L500.88 588.79 L499.58 589.24 L495.28 587.56 L494.61 586.71 L494.03 585.33 L492.77 584.31 L491.52 584.1 L491 585.1 L490.04 584.49 L489.25 583.66 L488.29 582.87 L486.89 582.36 L486.3 582.34 L485.08 582.43 L484.63 582.36 L484.23 581.98 L483.8 580.99 L483.24 580.52 L482.44 582.88 L479.85 584.38 L476.69 584.87 L474.2 584.15 L473.21 585.74 L472.48 586.45 L471.49 586.94 L470.28 586.18 L469.53 584.91 L468.97 583.51 L468.29 582.36 L467.26 581.73 L466.21 581.88 L464.96 582.26 L463.33 582.36 L463.33 581.9 L464.58 581.49 L465.15 580.41 L465.03 579.27 L464.23 578.68 L463.67 578.78 L463.23 579.13 L462.96 579.66 L462.72 581.05 L462.35 580.9 L461.52 580.02 L458.79 579.43 L457.23 579.78 L454.71 582.36 L454.26 582.36 L453.1 576.77 L452.49 576.66 L451.64 576.37 L450.92 576.02 L450.6 575.68 L450.27 575.21 L449.49 575.09 L448.59 575.1 L447.94 575.02 L447.09 574.42 L444.73 572.09 L444.23 571.08 L443.87 570.03 L442.98 569.17 L441.93 568.42 L441.08 567.64 L440.55 566.7 L440.27 565.63 L440.17 562.77 L439.93 561.39 L439.32 560.17 L433.38 552.4 L431.59 550.6 L430.95 549.72 L430.4 548.61 L429.66 547.59 L428.43 546.94 L427.98 547.4 L427.93 545.89 L427.35 544.82 L426.42 544.02 L425.23 543.27 L424.17 542.8 L423.36 542.75 L423.13 543.32 L423.88 544.65 L422.35 544.75 L420.28 544.11 L418.26 543.1 L416.83 542.11 L416.45 541.33 L416.11 539.08 L415.7 538.2 L414.93 537.6 L414.11 537.39 L413.19 537.48 L412.09 537.74 L412.43 538.29 L413.48 538.64 L413.9 539.11 L414.06 539.86 L413.97 540.5 L413.73 540.92 L413.45 540.98 L413.44 540.98 L412.69 540.96 L411.47 540.43 L410.33 539.54 L409.48 537.45 L407.76 534.86 L407.12 533.62 L406.29 530.36 L405.7 528.87 L404.6 527.4 L403.3 527 L400.59 527.6 L399.89 526.67 L400.69 526.51 L401.28 526.15 L401.5 525.59 L401.21 524.88 L400.59 524.45 L399.99 522.83 L399.89 520.84 L400.79 519.35 L400.43 519.03 L400.07 518.6 L399.73 518.09 L399.45 517.52 L399.95 517.3 L401.21 517.02 L402.73 515.98 L403.02 515.91 L403.44 515.22 L405.31 513.8 L405.76 512.95 L405.72 512.28 L405.52 511.56 L405.21 510.94 L404.83 510.66 L403.97 510.85 L403.56 511.5 L403.5 512.18 L403.71 512.49 L403.64 512.96 L401.57 515.08 L400.79 515.65 L398.43 515.84 L396.4 514.95 L394.42 513.62 L392.18 512.49 L391.39 512.35 L390.19 512.55 L389.42 512.49 L388.94 512.28 L387.99 511.69 L383.4 510.67 L382.16 510.25 L380.51 509.11 L379.46 507.61 L378.63 506.05 L377.64 504.72 L377.92 503.83 L377.74 502.76 L377.36 501.85 L376.97 501.47 L377.37 500.84 L377.5 499.61 L377.86 498.74 L379 499.2 L379.99 498.41 L380.68 497.6 L380.99 496.65 L380.81 495.45 L379.89 496.37 L378.79 496.78 L378.13 496.53 L378.54 495.45 L378.21 495.19 L377.92 494.83 L377.72 494.38 L377.64 493.87 L377.29 493.02 L376.5 492.86 L375.64 492.98 L375.14 492.99 L374.87 492.44 L374.87 491.77 L374.94 491.07 L374.89 490.43 L374.6 489.62 L374.24 488.97 L371.09 485.42 L370.27 484.24 L369.93 483.35 L369.49 482.64 L366.31 480.79 L364.71 479.32 L359.03 470.91 L358.23 468.87 L358.15 466.18 L357.96 465.62 L357.4 464.84 L357.28 464.56 L357.28 462.49 L356.9 461.35 L356.25 460.15 L355.38 459.22 L353.2 458.41 L351.27 456.52 L350.7 456.1 L349.13 455.86 L348.41 455.19 L347.3 452.86 L348.16 452.14 L347.97 451.05 L347.21 449.96 L346.36 449.21 L347.04 448.92 L347.5 448.52 L347.63 448.02 L347.3 447.39 L345.95 447.67 L343.98 446.92 L340.49 445.1 L336.69 444.17 L334.53 444.06 L332.81 444.61 L331.53 443.69 L327.34 442.29 L326.45 441.19 L326.31 440.96 L325.99 440.7 L325.69 440.34 L325.54 439.82 L325.73 439.61 L326.62 439.49 L326.89 439.13 L326.81 438.74 L326.5 438.48 L326.15 438.25 L325.99 437.98 L326.11 437.52 L326.89 435.94 L326.45 435.94 L325.65 436.98 L324.68 436.95 L323.57 436.75 L322.34 437.32 L323.3 438.67 L322.12 439.18 L318.07 439.13 L317.24 438.88 L316.01 437.69 L315.12 437.32 L314.12 437.37 L313.13 437.63 L312.12 437.74 L311.05 437.32 L311.05 437.76 L309.82 437.33 L305.35 438.18 L303.78 438.09 L302.56 437.8 L301.54 437.26 L297.71 433.59 L295.83 432.61 L293.32 432.3 L292.74 432.44 L292.09 432.67 L291.39 432.83 L290.65 432.75 L290.06 432.39 L288.66 431.12 L288.18 430.35 L287.25 429.7 L286.73 428.84 L286.12 429.54 L285.62 430.52 L285.68 430.88 L284.45 430.98 L282.77 430.52 L281.3 429.63 L280.67 428.4 L280.45 427.67 L279.97 427.05 L279.5 426.87 L279.28 427.47 L279.26 428.9 L279.02 429.25 L278.41 429.57 L274.31 429.57 L273.59 429.11 L271.6 426.83 L270.76 427.95 L270.04 427.83 L269.24 427.2 L268.19 426.83 L267.76 426.92 L266.98 427.24 L266.59 427.24 L266.46 427.08 L266.11 426.46 L265.93 426.33 L265.38 426.14 L264.69 425.67 L264.17 425.14 L264.11 424.73 L265.19 423.41 L265.7 422.18 L265.79 415.68 L265.58 414.19 L264.78 413.08 L264.27 414.35 L263.99 417.57 L263.39 419 L263.78 420.07 L262.98 420.63 L261.65 420.83 L260.47 420.87 L259.41 420.53 L258.49 419.74 L257.07 418.04 L254.68 416.24 L254.05 414.75 L253.31 413.94 L251.64 412.54 L251.25 413.78 L251.48 415 L251.9 416.21 L252.14 417.4 L251.51 418.4 L250.04 418.88 L248.36 418.92 L247.09 418.59 L246.47 417.94 L245.74 416.8 L245.13 415.58 L244.87 414.65 L244.86 413.9 L244.78 413.31 L244.56 412.82 L244.17 412.35 L243.9 411.72 L244.08 410.09 L243.97 409.39 L242.96 408.19 L242.58 409.01 L242.61 413.74 L242.08 415.88 L242.12 416.72 L242.48 417.29 L243.97 418.59 L243.66 419.24 L243.02 419.73 L242.4 419.92 L242.12 419.7 L241.77 418.83 L240.05 417.45 L239.41 416.72 L239.23 416.24 L238.99 415.07 L238.96 414.65 L238.78 414.29 L238.36 414.02 L237.91 413.77 L237.61 413.53 L237.04 412.36 L236.29 410.22 L235.75 409.39 L235.35 409.39 L235.64 410.54 L235.75 413.08 L236.07 414.1 L236.94 415.93 L237.11 416.94 L237.23 419.12 L237.61 420.87 L237.99 421.54 L238.62 422.31 L239.17 423.22 L239.41 424.28 L240.16 425.01 L241.48 426.74 L242 428.34 L240.32 428.61 L240.14 428.21 L238.82 426.42 L238.51 426.12 L238.17 425.42 L237.39 424.48 L236.48 423.61 L235.75 423.14 L235.05 424.69 L233.84 425.26 L232.7 424.7 L232.19 422.91 L231.91 420.91 L231.19 419.08 L228.98 415.8 L229.29 417.56 L230.05 419.46 L230.49 421.03 L229.84 421.82 L228.75 421.3 L227.27 418.23 L226.24 417.17 L225.82 417.96 L225.17 418.49 L224.37 418.81 L223.52 419 L223.52 419.5 L225.24 419.61 L225.67 420.7 L225.25 422.2 L224.43 423.55 L225.11 423.84 L225.96 424.59 L226.59 425.52 L226.68 426.33 L226.02 426.84 L223.52 427.74 L222.62 428.2 L221.39 426.97 L220.75 426.58 L219.91 426.33 L219.18 426.44 L218.39 426.75 L217.61 426.92 L216.95 426.58 L215.82 425.69 L203.4 421.41 L198.58 418.57 L197.02 417.26 L196.35 416.05 L196.02 414.73 L193.63 410.3 L193.15 409.14 L192.92 408.85 L192.28 408.47 L191.63 408.23 L190.06 408.03 L189.31 408.03 L188.3 407.65 L186.04 405.88 L185.42 405.25 L185.27 405.02 L185.01 404.34 L184.52 405.25 L185.2 406.29 L187.32 408.55 L187.95 408.97 L188.59 409.11 L190.05 409.73 L191.58 410.03 L191.7 410.39 L191.47 410.84 L191.37 411.25 L192.5 414 L197.88 423.14 L198.31 424.47 L198.54 425.89 L198.6 427.47 L198.9 429.02 L199.62 430.23 L201.31 432.3 L204.49 437.17 L205.55 439.97 L204.63 441.26 L204.52 441.42 L203.3 441.06 L202.32 439.96 L201.42 438.68 L200.41 437.76 L199.3 437.5 L195.44 437.32 L195.85 437.6 L196.35 438.34 L196.8 438.68 L197.36 438.87 L198.49 438.98 L199.05 439.13 L200.22 439.8 L202.71 442.33 L201.68 443.69 L200.55 444.35 L199.19 444.58 L193.02 444.51 L191.79 444.16 L191.25 443.79 L190.12 442.75 L189.53 442.33 L187.23 441.61 L186.59 441.19 L185.32 440.58 L183.78 440.62 L179.51 441.69 L175.76 441.42 L174.6 441.09 L173.87 440.24 L172.77 437.76 L171.92 436.41 L170.98 435.74 L169.75 435.54 L168.02 435.54 L167.78 435.35 L167.08 435.05 L166.34 434.91 L166 435.28 L166.15 435.87 L166.54 436.32 L167.09 436.64 L167.77 436.86 L170.46 437.13 L171.18 437.71 L171.43 439.36 L171.92 440.59 L173.12 441.54 L178.51 443.94 L179.29 444.82 L179.96 447.47 L183.78 454.27 L184.27 455.94 L183.88 457.22 L182.78 457.8 L181.42 457.99 L164.61 458.38 L163.95 458.66 L162.12 459.78 L156.49 460.2 L140.97 464.25 L139.48 464.35 L138.27 464.09 L131.78 461.09 L123.38 459.73 L123.1 459.65 L122.44 459.29 L121.34 459.81 L118.04 460.56 L116.8 460.66 L115.31 460.99 L111.57 463.44 L110.12 464.01 L108.83 464.09 L105.92 463.86 L104.48 463.48 L103.49 462.57 L102.88 461.38 L101.34 454.75 L99.93 452.99 L97.07 452.44 L93.32 453.23 L90.99 453.4 L90.48 453.55 L90.09 453.89 L89.6 454.48 L88.88 455.05 L88.14 455.25 L87.4 455.37 L86.68 455.64 L85.79 456.35 L85.41 456.96 L85.67 457.49 L86.68 457.92 L88.16 456.52 L89.06 455.9 L90.06 455.64 L90.57 455.44 L91.01 455.05 L91.41 454.78 L92.48 455.19 L93.31 455.14 L96.11 454.38 L97.92 454.11 L99.54 454.43 L100.23 455.87 L100.4 457.35 L102.4 463.74 L103.88 465.57 L106.03 466.77 L108.82 467.05 L111.16 466.24 L115.57 463.26 L117.93 462.49 L123.19 463.39 L124.29 462.98 L127 463.86 L129.27 465.87 L129.96 466.18 L131.37 466.57 L135.63 469.41 L138.18 470.42 L146.46 472.11 L149.01 473.05 L150.97 474.31 L159.56 481.42 L163.29 485.86 L165.28 489.13 L167.8 492.17 L168.41 493.22 L168.72 494.12 L168.72 502.8 L169.12 504.99 L169.09 506.17 L168.49 507.21 L166.91 508.69 L166.16 509.2 L165.07 509.75 L163.09 510.28 L159.33 510.29 L157.38 510.66 L157.83 511.12 L157.16 511.34 L155.78 511.43 L154.75 511.62 L154.05 511.54 L153.73 511.58 L153.56 511.82 L153.35 512.28 L153.04 512.74 L152.6 512.95 L151.63 513.13 L145.75 514.96 L144.64 515.51 L143.02 516.85 L141.47 517.8 L140.83 517.98 L140.08 518.33 L139.47 519.12 L138.89 520.04 L138.33 520.72 L136.99 521.46 L133.9 522.73 L131.56 524.55 L124.47 527.31 L123.38 527.99 L122.93 528.77 L119.28 530.83 L116.63 531.13 L114.31 530.4 L112.31 529.08 L109.14 526.35 L106.88 524.81 L104.49 523.78 L102.53 523.96 L100.79 523.08 L99.78 522.73 L98.23 522.6 L97.23 522.35 L94.36 520.72 L90.9 519.5 L90.06 519.35 L89.35 519.57 L88.09 520.51 L87.32 520.72 L85.09 520.65 L75.72 521.34 L74.4 521.62 L70.39 523.08 L69.04 523.37 L67.42 523.47 L66.03 523.25 L63.25 522.32 L61.76 522.09 L56.16 523.11 L54.5 523.01 L53.95 523.45 L53.01 523.89 L51.97 524.25 L51.07 524.38 L50.04 524.03 L49.18 523.36 L48.3 522.97 L47.23 523.47 L46.42 523.34 L45.03 523.32 L43.71 523.11 L42.71 521.73 L39.96 519.81 L37.87 518.77 L35.41 518.19 L32.85 518.18 L30.48 518.89 L25.32 522.95 L23.22 523.96 L20.07 524.26 L17.58 523.34 L10.49 517.02 L8.45 515.81 L8.46 508.11 L8.49 495.19 L8.49 482.68 L8.47 470.89 L8.45 453.19 L8.45 441.96 L8.45 439.29 L8.45 426.66 L8.45 414.29 L8.45 396.69 L8.45 393.96 L8.45 385.58 L8.45 375.42 L8.46 368.22 L7.47 368.31 L6.22 367.65 L5.99 365.53 L4.42 365.96 L3.91 365.07 L3.8 363.66 L3.47 362.59 L2.2 361.66 L1.65 361.08 L1.43 360.34 L1.59 360.03 L2.21 359.16 L2.33 358.71 L1.95 357.93 L0.57 356.69 L0.08 355.98 L0 355.31 L0.17 354.72 L0.53 353.93 L1.1 351.74 L1.04 350.5 L0.08 350.03 L0.67 349.02 L1.63 348.69 L2.73 348.45 L3.69 347.76 L3.58 347.27 L3.13 346.67 L2.9 346.16 L3.47 345.94 L4.01 345.89 L4.36 345.7 L4.54 345.34 L4.6 343.66 L4.75 342.89 L5.23 342.45 L6.23 342.3 L6.68 341.72 L6.87 340.51 L6.57 339.51 L5.53 339.54 L5.55 338.73 L5.34 338.14 L4.89 337.8 L4.19 337.71 L4.77 337.4 L5.41 337.24 L6.11 337.21 L6.85 337.26 L6.68 336.41 L7.04 335.9 L7.54 335.43 L7.8 334.74 L7.64 334.35 L7 333.79 L6.85 333.4 L6.92 333.16 L7.24 333.02 L7.57 331.69 L8.18 330.92 L8.45 330.83 L8.45 323.79 L8.45 308.67 L8.45 295.66 L8.45 283.34 L8.45 266.24 L8.45 263.53 L8.45 255.19 L8.45 242.23 L8.45 242.05 L8.44 241.32 L8.4 227.06 L8.37 215.26 L8.3 187.25 L8.27 175.88 L8.22 162.47 L8.2 148 L8.15 126.06 L8.21 109.62 L8.25 96.7 L8.29 85.04 Z M854.09 682.56 L854.41 682.76 L854.84 682.89 L855.23 683.07 L855.37 683.44 L855.18 684.12 L854.83 684.32 L854.43 684.2 L854.09 683.86 L853.54 684.22 L853.14 684.33 L852.73 684.22 L852.2 683.86 L851.5 684.43 L850.69 684.74 L849.86 684.72 L849.04 684.36 L848.78 685.18 L848.41 685.25 L847.96 685 L847.44 684.82 L844.52 684.82 L844.17 684.76 L843.94 684.36 L843.58 684.36 L843.23 684.55 L842.7 685.15 L842.49 685.28 L841.75 685.56 L841.05 685.97 L840.45 685.92 L840.02 684.82 L840.6 684.89 L841.16 684.78 L841.5 684.46 L841.4 683.86 L841.03 683.47 L840.55 683.5 L839.98 683.73 L839.33 683.86 L838.74 683.66 L838.39 683.21 L838.16 682.76 L837.93 682.56 L837.24 682.67 L836.68 682.86 L836.14 682.89 L835.45 682.56 L835.64 682.28 L835.95 681.55 L835.33 681.49 L835.03 681.27 L834.93 680.86 L835 680.17 L834.32 680.71 L833.78 681.34 L833.22 681.85 L832.52 682.05 L830.04 680.63 L829 681.22 L828.37 680.75 L828.11 679.76 L828.18 678.78 L828.61 678.26 L829.23 677.7 L829.55 677.1 L829.09 676.44 L828.37 676.15 L828.07 676.37 L827.89 676.77 L827.53 676.98 L827.08 676.83 L826.74 676.5 L826.42 676.02 L825.42 676.36 L824.43 676.98 L822.77 678.32 L822.45 676.94 L825.05 675.7 L825.03 674.64 L824.43 674.29 L822.96 674.3 L822.32 674.14 L821.69 673.61 L820.91 672.35 L820.28 671.63 L819.78 671.53 L819.25 671.76 L818.83 671.8 L818.67 671.17 L819.02 669.73 L818.88 669.26 L818 669.06 L817.55 668.87 L817.02 668.39 L816.58 667.84 L816.4 667.43 L816.47 666.61 L816.68 665.86 L817.31 664.42 L820.77 666.87 L822.07 667.22 L823.31 666.86 L823.88 666.86 L824.36 667.98 L824.95 668.22 L825.7 668.38 L826.42 668.61 L827.98 669.67 L828.68 669.99 L830.23 670.31 L830.91 670.57 L832.77 672.11 L836.85 673.71 L839.95 675.72 L840.69 676.02 L842.1 676.1 L849.73 678.2 L850.4 678.55 L850.58 679.28 L851.07 679.94 L851.72 680.43 L853.17 680.86 L853.58 681.39 Z M888.49 666.52 L888.6 667.17 L888.88 667.99 L889.32 668.71 L889.85 669.06 L889.4 669.87 L888.93 670.51 L888.35 671.01 L887.59 671.41 L887.05 670.4 L885.85 669.87 L884.38 669.75 L882.99 669.99 L880.67 671.21 L879.71 671.11 L879.43 669.49 L879.01 669.49 L878.6 671.25 L877.63 672 L876.22 671.98 L874.45 671.41 L873.49 671.48 L872.91 671.18 L872.65 670.22 L872.39 669.79 L871.76 669.43 L871 669.17 L870.35 669.06 L870.68 668.57 L871.1 668.17 L871.6 667.87 L872.2 667.65 L871.86 667.38 L871.26 666.3 L871.68 666.26 L871.91 666.36 L872.2 666.72 L873.3 667.36 L876.22 667.55 L877.62 668.15 L878.11 667.65 L878.93 668.04 L879.34 667.88 L879.35 667.38 L879.01 666.72 L878.52 666.72 L878.52 667.22 L878.11 667.22 L877.63 666.95 L877.18 666.64 L876.96 666.28 L877.17 665.84 L876.58 665.57 L876.16 665.18 L875.89 664.65 L875.81 664 L877.1 664.41 L878.93 664.42 L881.68 664 L882.44 664.37 L883.01 664.32 L883.54 664.13 L884.17 664 L884.76 664.3 L885.05 664.87 L885.39 665.24 L886.2 664.92 L887.56 665.51 L888.22 665.93 Z M815.95 661.74 L816.6 661.34 L816.89 661.24 L816.89 660.78 L815.05 659.4 L814.57 659.81 L814.29 659.69 L814.04 659.31 L813.69 658.93 L811.4 657.55 L810.4 656.38 L810.62 655.54 L811.45 655.23 L812.29 655.68 L813.13 656.36 L816.4 657.05 L819.3 659.12 L820.51 659.4 L820.27 660 L819.81 660.8 L819.18 661.31 L818.46 661.01 L818.3 661.31 L817.67 661.65 L816.79 661.87 Z M791.03 618.29 L791.56 618.33 L793.83 619.2 L794.64 619.71 L795.24 620.51 L795.19 621.11 L794.66 621.6 L793.78 622.01 L793.07 622.21 L790.13 622.47 L789.37 622.63 L788.08 623.19 L787.42 623.39 L785.93 623.29 L784.09 622.77 L780.15 621.09 L776.08 620.17 L773.34 618.29 L773.34 617.83 L773.8 617.88 L774 617.75 L774.1 617.55 L774.24 617.37 L778.54 618.66 L779.47 618.54 L780.11 618.56 L782.11 619.83 L782.87 620.17 L784.88 619.58 L787.18 618.38 L789.35 617.6 Z M676.36 616.49 L674.53 617.95 L674.39 618.58 L675.91 618.79 L675.54 619.12 L674.88 619.84 L674.51 620.17 L674.49 620.8 L673.54 620.89 L672.42 620.31 L671.89 619 L671.31 618.49 L668.43 618.5 L667.25 618.29 L666.98 619.27 L667.06 620.19 L667.04 620.96 L666.43 621.51 L665.77 619.61 L665.63 618.65 L665.93 617.37 L666.37 616.67 L667.06 616.1 L667.98 615.71 L669.1 615.53 L672.75 615.53 L673.33 615.73 L673.95 616.31 L674.51 616.49 L675.02 616.34 L675.25 615.93 L675.44 615.69 L675.91 615.99 L675.98 616.23 L675.97 616.42 L676.05 616.52 Z M663.19 611.82 L664.01 612.22 L664.75 612.8 L664.93 613.59 L664.09 614.61 L664.58 615.07 L664.34 615.75 L664.32 616.71 L664.09 617.37 L664.52 618.08 L664.58 618.73 L664.27 619.28 L663.64 619.71 L662.36 619.09 L660.71 618.54 L659.05 618.35 L657.76 618.79 L657.06 617.44 L656.58 616.85 L656 616.49 L656.45 615.99 L657.37 616.67 L658.46 617.24 L659.65 617.64 L660.93 617.83 L662.18 617.85 L662.54 617.69 L662.2 617.26 L657.76 613.3 L657.41 612.7 L657.56 612.07 L658.17 611.71 L658.78 611.82 L659.3 612.24 L659.61 612.77 L660.53 612.65 L661.44 612.63 L662.33 612.45 Z M683.13 572.73 L684.98 571.47 L687.72 570.55 L690.2 570.93 L691.31 573.6 L691.03 575.01 L689.78 577.91 L689.24 580.78 L687.24 584.7 L686.79 585.1 L687.08 585.82 L686.43 588 L686.79 589.24 L685.44 588.31 L683.05 586.28 L681.78 585.61 L675.01 583.74 L671.89 583.28 L670.48 583.28 L669.44 583.16 L668.65 582.82 L668.37 581.79 L668.14 579.81 L668.27 578.06 L669.1 577.72 L669.61 577.06 L670.47 576.15 L670.93 575.35 L670.24 575.02 L669.8 574.72 L669.14 574.01 L668.15 572.73 L667.74 572.73 L667.89 574.49 L666.72 575.55 L665.29 575.59 L664.58 574.29 L664.45 573.76 L664.16 573.52 L663.83 573.38 L663.64 573.14 L663.56 572.59 L663.64 569.26 L663.41 568.79 L662.04 566.93 L661.83 566.47 L661.65 565.62 L661.17 564.96 L660.52 564.54 L659.17 564.21 L658.92 563.78 L658.84 563.29 L658.67 562.97 L658.29 562.87 L657.26 562.73 L656.86 562.56 L656.15 561.92 L655.58 561.22 L655.23 560.33 L655.1 559.12 L655.16 558.01 L655.39 556.67 L655.81 555.82 L657.73 556.81 L659.04 557.8 L660.07 559.03 L660.47 560.48 L661.11 561.97 L662.62 562.89 L664.43 563.58 L665.93 564.39 L670.24 569.25 L671.41 569.95 L673.05 570.57 L674.6 571.41 L675.5 572.73 L673.95 572.31 L673.51 573.34 L673.76 574.73 L674.31 575.44 L675.02 575.82 L677.36 577.64 L678.63 578.22 L679.86 578.6 L680.35 578.59 L680.88 578.22 L681.26 577.55 L681.35 576.8 L681.16 576.18 L680.65 575.94 L680.61 575.43 L681.51 574.32 Z M658.26 552.44 L658.5 553.58 L657.2 553.46 L654.38 552.44 L650.22 552.9 L648.73 552.9 L646.46 552.27 L644.15 551.25 L641.61 550.48 L638.72 550.6 L636.13 551.01 L633.96 551.02 L633.71 550.55 L634.68 549.51 L636.91 547.86 L638.5 547.04 L639.15 546.3 L639.26 545.36 L639.21 543.94 L638.72 543.27 L635.56 541.41 L633.52 536.76 L633.3 534.76 L633.86 533.18 L635.25 532.06 L637.03 531.43 L638.72 531.33 L642.57 533.35 L644.79 533.97 L645.66 534.78 L646.89 536.36 L648.68 537.59 L649.85 538.1 L650.74 537.97 L652.01 537.32 L653.33 537.13 L654.55 536.74 L655.51 535.45 L658.08 537.23 L660.14 539.17 L660.47 539.61 L660.53 540.01 L660.39 541.02 L660.47 541.41 L661.13 542.02 L662.06 542.62 L663.04 543.09 L663.87 543.27 L664.04 543.65 L663.64 546.25 L663.33 546.74 L662.78 546.94 L662.4 547.2 L662.69 547.86 L663.48 548.35 L664.22 548.38 L664.77 548.53 L665.24 550.24 L665.79 550.64 L666.42 550.94 L666.84 551.52 L666.85 552.44 L666.44 553.23 L665.77 553.86 L664.99 554.27 L664.3 553.55 L663.17 554.33 L660.93 556.57 L660.96 555.46 L661.65 553.86 L661.83 553.1 L661.38 552.54 L660.33 552.36 Z M629.68 533.62 L629.76 533.6 L630.32 534.28 L630.45 534.63 L630.23 534.88 L629.91 535.12 L629.68 535.45 L629.35 536.51 L628.26 538.97 L627.61 539.82 L627.45 540.29 L628.03 540.46 L629.19 540.49 L629.23 541.1 L629.13 541.56 L628.77 542.32 L627.61 543.53 L625.93 543.52 L624.09 542.8 L622.45 541.9 L622.32 542.08 L622.27 542.13 L622.19 542.19 L621.92 542.32 L621.99 541.31 L621.91 540.26 L621.57 539.45 L620.84 539.11 L619.78 538.97 L617.23 538.2 L616.63 537.9 L616.21 537.18 L615.84 536.36 L615.41 535.68 L612.83 533.44 L612.44 532.89 L612.48 530.7 L612.74 528.76 L613.41 526.97 L614.69 525.3 L616.23 523.92 L617.84 522.9 L619.47 522.49 L621.06 523.01 L624.57 524.9 L626.14 526.09 L627.39 527.63 L628.61 530.57 L628.9 532.17 L629.46 533.09 Z M803.41 518.17 L804.51 518.69 L803.46 519.48 L802.99 520.24 L803.33 520.67 L803.08 521.05 L802.78 521.6 L802.1 521.82 L801.42 521.43 L800.91 520.88 L800.1 520.42 L799.68 520.76 L799.05 521.56 L799.22 522.07 L800.45 523 L801.72 524.07 L802.11 525.17 L801.56 525.89 L801.13 525.93 L800.79 524.91 L799.9 523.98 L798.54 524.02 L796.72 525.47 L794.09 525.72 L792.77 526.1 L792.31 525.68 L791.25 525.76 L790.7 524.79 L789.68 523.6 L788.75 523.18 L787.77 522.32 L787.26 521.44 L786.79 520.85 L786.41 521.69 L785.65 522.37 L785.82 523.38 L787.39 523.69 L787.3 524.92 L786.24 526.15 L785.23 524.24 L783.91 523.69 L782.05 523.01 L780.94 522.37 L780.18 520.93 L780.6 519.96 L782.05 521.1 L783.57 521.18 L783.2 520.2 L783.56 519.58 L784.03 519.27 L784.45 519.21 L784.82 519.05 L784.17 518.39 L783.66 518.05 L782.9 517.67 L781.54 516.99 L779.63 515.42 L778.15 514.36 L777.13 513.3 L775.47 513.94 L774.88 513.55 L774.07 512.79 L773.01 512.11 L771.06 511.3 L768.76 511.73 L768.29 511.17 L770.62 510.25 L770.62 509.75 L770.29 508.72 L768.85 507.1 L767.44 506.38 L765.74 507.52 L765.66 508.71 L765.83 509.94 L765.87 512.57 L765.83 513.38 L765.44 514.31 L764.81 510.96 L763.27 508.11 L764.34 506.75 L767.49 505.02 L768.76 505.32 L771.82 508.46 L777.21 507.96 L780.1 508.26 L781.75 508.72 L784.17 509.11 L786.24 508.72 L787.43 508.77 L788.83 508.77 L790.1 508.94 L791.07 509.4 L791.67 510.29 L792.47 510.59 L793.66 512.66 L794.85 513.38 L797.01 514.02 L798.28 513.38 L799.85 514.31 L800.48 515.03 L800.31 516.73 L801.93 517.28 Z M678.87 493.22 L679.81 493.75 L680.57 495 L680.98 496.4 L680.88 497.37 L680.12 496.55 L678.17 493.22 L674.43 490.82 L674.31 490.43 L674.6 489.88 L677.82 485.51 L679.3 482.05 L679.52 480.79 L679.33 480.53 L678.17 479.42 L677.34 478.84 L676.77 478.6 L672.95 478.27 L671.81 477.75 L671.36 476.46 L672.54 474.83 L672.75 474.17 L672.89 473.35 L673.24 472.69 L674.31 471.45 L675.46 470.54 L676.88 470.06 L679.97 469.83 L680.01 470.14 L679.91 470.22 L679.72 470.22 L679.52 470.29 L679.43 473.52 L679.16 474.89 L678.63 476.23 L680.62 478.43 L680.57 481.3 L678.42 490.67 L678.26 492.44 Z M182.51 484.48 L183.88 484.92 L184.89 486.03 L185.44 487.51 L185.42 489.05 L184.75 490.37 L183.86 490.66 L183.08 490.08 L182.75 488.85 L182.33 487.9 L181.33 487.24 L173.6 483.58 L172.11 482.43 L171.35 482.08 L170.37 481.9 L169.53 481.64 L169.17 481.04 L168.77 480.15 L164.63 476.7 L160.91 475.66 L159.15 474.89 L158.43 474.27 L156.9 472.11 L156.12 471.47 L154.73 470.55 L154.1 469.83 L155.1 469.72 L155.98 469.5 L156.76 469.57 L159.2 472.36 L160.19 473.16 L166.04 474.48 L171.59 476.48 L173.03 476.68 L173.67 476.94 L174.13 477.54 L174.81 478.75 L181.15 484.03 Z M167.36 470.29 L165.95 469.54 L164.11 468.16 L163.21 466.7 L164.61 465.72 L165.5 465.69 L166.04 466 L166.43 466.39 L166.95 466.63 L167.75 466.63 L169.84 466.18 L174.3 466.12 L180.21 466.8 L180.95 467.3 L181 468.98 L181.2 469.95 L182.26 471.7 L182.71 472.71 L182.65 473.57 L182.02 474.14 L180.75 474.36 L177.33 474.27 L175.98 473.98 L172.82 472.45 L171.71 471.17 L170.28 470.76 Z M476.24 282.35 L477.72 284.04 L478.11 285.78 L477.46 291.7 L476.01 294.96 L475.56 296.7 L474.88 296.4 L474.61 296.21 L474.65 296.66 L474.59 297.58 L474.61 298.02 L473.95 297.89 L473.4 298.02 L472.89 298.4 L472.4 298.97 L472.07 298.12 L471.88 295.89 L471.49 294.85 L470.94 294.32 L470.15 293.93 L468.29 293.48 L466.09 293.28 L465.12 292.82 L464.23 291.67 L464.05 291.2 L463.77 289.81 L463.38 289.23 L460.89 287.09 L460.1 286.16 L458.77 283.95 L457.71 282.72 L457.45 282.14 L457.45 281.59 L457.86 279.87 L457.6 276.71 L457.86 275.75 L458.56 274.98 L460.23 274.68 L461.07 273.89 L461.23 274.23 L461.42 274.37 L461.65 274.5 L461.98 274.83 L462.18 274.59 L462.4 274.5 L462.62 274.47 L462.88 274.39 L463.65 275.08 L465.13 276.79 L466.03 277.56 L467 278.03 L469.65 278.47 L471.34 279.16 L473.04 280.1 Z M997.74 351.18 L998.13 352.66 L999.76 355.25 L1000 356.93 L999.56 358.46 L998.68 360 L997.53 361.36 L996.35 362.38 L997.04 359.35 L997.15 357.67 L996.58 356.93 L996.03 357.58 L994.09 361.88 L992.46 360.02 L990 360.59 L987.56 362.28 L985.96 363.75 L984.31 365.94 L983.48 366.63 L982.11 366.89 L981.37 366.75 L980.16 366.12 L979.37 365.98 L976.4 365.98 L973.58 365.39 L970.64 364.39 L965.55 361.88 L962.76 359.57 L962.13 359.21 L961.05 358.9 L959.87 358.18 L957.84 356.43 L957.22 355.67 L956.4 354.22 L948.39 345.43 L947.45 343.66 L948.65 343.67 L949.17 343.8 L949.71 344.12 L950.88 341.85 L951.54 338.77 L951.75 335.5 L951.52 332.71 L950.21 329.63 L948.02 327.94 L941.43 325.97 L939.04 324.65 L937.56 323.39 L936.08 322.84 L935.4 322.42 L934.8 321.8 L934.59 321.37 L934.31 319.95 L933.33 317.22 L932.19 315.94 L932.01 315.61 L931.53 315 L928.4 313.58 L926.52 311.41 L924.84 310.3 L923.94 309.55 L923.2 308.67 L922.91 307.83 L922.33 306.89 L919.85 305.06 L919.29 303.74 L919.22 303 L918.93 301.69 L918.87 301.02 L919.29 300.38 L919.57 299.75 L919.69 298.97 L919.39 297.54 L918.66 296.43 L917.07 294.85 L916.51 294.03 L916.27 293.5 L916.17 293.03 L916.33 292.44 L917.5 289.68 L918.29 284.03 L918.8 282.67 L918.91 281.43 L917.97 280.29 L917.97 279.87 L918.17 279.72 L918.23 279.64 L918.28 279.55 L918.42 279.38 L919.61 280.5 L920.16 280.72 L920.64 280.29 L920.81 279.2 L920.45 278.19 L919.95 277.27 L919.69 276.42 L918.93 274.91 L916.05 272.1 L916.17 270.71 L918.35 270.42 L921.08 271.93 L923.49 274.2 L924.75 276.2 L925.88 275.99 L927.11 276.63 L928.2 277.72 L928.85 278.92 L929.24 278.29 L929.76 278.04 L930.38 278.11 L931.07 277.56 L931.82 277.9 L932.77 278.03 L937.21 278.04 L937.89 278.29 L937.44 278.92 L937.44 279.38 L938.15 279.78 L938.48 279.43 L938.76 278.84 L939.28 278.47 L940.3 278.47 L940.59 278.76 L940.56 279.26 L940.6 279.87 L940.2 280.55 L940.1 280.99 L940.38 281.19 L941.72 281.63 L941.95 281.65 L942.31 282.49 L942.62 284 L944.31 285.97 L945.71 289.05 L946.76 290.52 L947.09 290.78 L947.6 290.96 L947.87 291.21 L948.37 292.05 L948.6 292.33 L948.71 292.97 L948.36 295.3 L948.88 296.41 L949.49 298.8 L950.12 299.88 L951.13 299.57 L952.18 299.92 L953.3 300.5 L954.46 300.79 L957.72 304.37 L957.92 304.68 L958.18 304.96 L958.71 305.33 L959.01 305.39 L959.77 305.27 L960.1 305.33 L960.5 305.69 L961.23 306.94 L962.17 308.03 L962.71 308.93 L963.41 312.38 L963.67 313.12 L965.91 317.66 L969.26 321.12 L969.62 321.31 L970.48 321.12 L971.09 320.65 L971.68 319.95 L972.45 320.43 L972.93 321.47 L973.63 322.58 L975.08 323.17 L976.72 322.97 L977.07 322.21 L977.21 321.23 L978.24 320.4 L978.24 320.89 L978.08 321.18 L977.99 321.42 L978.13 321.74 L978.69 322.22 L978.44 322.97 L980.04 324.57 L980.71 326.09 L981.23 326.46 L981.9 326.69 L982.56 326.76 L983.22 327.11 L983.79 327.91 L984.61 329.49 L985.34 330.54 L986.18 331.4 L987.17 332 L988.44 332.21 L989.8 332.81 L990.83 334.21 L992.24 337.26 L993.7 339.24 L995.3 341.01 L996.64 342.97 L997.25 345.47 L997.19 346.22 L996.87 347.5 L996.8 348.2 L996.96 349 L997.6 350.5 Z M479.63 267.09 L481.39 268.1 L482.68 269.95 L482.79 271.84 L480.98 272.99 L479.03 272.41 L478.04 270.55 L478.17 268.43 Z M446.99 261.16 L448.18 261.31 L448.73 261.93 L449.08 262.73 L449.69 263.42 L449.09 264.56 L448.43 265.15 L446.54 266.18 L445.18 264.32 L445 264.29 L444.39 264.37 L444.23 264.32 L444.17 264.03 L444.2 263.76 L444.2 263.49 L444.03 263.21 L444.02 262.52 L444.84 261.81 L445.99 261.27 Z M420.71 260.01 L420.85 261.6 L421.28 263.16 L421.99 264.46 L422.97 265.27 L422.97 265.69 L421.99 266.71 L421.81 268.01 L421.88 269.29 L421.61 270.26 L421.08 270.67 L420.7 270.57 L420.33 270.31 L419.81 270.26 L419.1 270.55 L417.55 271.62 L415.26 271.53 L413.4 270.23 L410.7 267.09 L408.24 265.28 L407.53 264.32 L407.18 263.3 L407.13 262.14 L407.53 259.79 L408.04 258.28 L408.66 257.72 L411.15 257.03 L412.14 256.36 L413.14 255.49 L414.29 254.82 L415.7 254.76 L417.99 257.26 L418.91 257.98 L420.46 258.7 L420.67 259.07 Z M917.97 256.12 L917.88 258.16 L916.17 264.32 L916.01 268.65 L915.41 270.47 L913.91 271.21 L914.32 269.81 L913.31 270.15 L912.86 270.96 L912.47 271.89 L911.65 272.57 L910.48 267.97 L907.82 261.39 L907.55 259.57 L907.04 258 L907.04 257.04 L907.78 256.61 L908.23 256.12 L908.43 255 L908.4 251.4 L908.07 250.02 L907.11 249.73 L905.29 251.21 L905.68 248.94 L907.22 246.49 L909.26 244.34 L911.16 242.97 L913.32 243.39 L914.77 245.17 L915.55 247.44 L915.72 249.32 L915.31 251.36 L915.3 252.37 L915.72 253.4 L916.34 254.02 L917.01 254.41 L917.6 254.97 Z M547.2 234.32 L547.71 233.94 L550.32 232.95 L551.07 234.06 L550.88 235.05 L549.46 237.04 L548.6 236.61 L547.7 236.03 L547.11 235.26 Z M354.12 230.44 L354.28 229.41 L354.76 228.51 L355.6 227.96 L356.79 227.97 L357.77 229.42 L358.12 230.2 L358.15 231.14 L357.7 230.94 L357.28 230.65 L357.19 230.91 L357.2 231.06 L357.13 231.12 L356.79 231.14 L357.06 232.28 L356.06 232.34 L354.76 231.63 Z M573.48 218.42 L574.41 218.82 L575.45 219.5 L576.29 220.36 L576.64 221.34 L576.57 222.45 L576.43 223.02 L576.19 223.36 L575.61 223.49 L575.37 223.16 L575.24 222.65 L575.06 222.24 L574.56 221.54 L574.26 220.77 L573.85 220.1 L573.03 219.73 L572.04 219.93 L571.71 220.6 L572.03 221.3 L573.03 221.58 L572.62 222.13 L572.09 222.45 L570.77 222.94 L569.2 221.67 L569.93 220.21 L571.77 218.98 Z M340.49 211.17 L341.43 211.95 L343.88 214.54 L344.23 215.54 L344.38 217.2 L344.35 219.51 L344.03 220.03 L343.8 220.77 L343.65 222.24 L343.33 222.99 L342.59 223.59 L340.15 225.11 L338.37 225.8 L336.68 226.21 L335.73 225.8 L333.57 223.83 L333.22 223.36 L332.71 222.35 L332.48 221.29 L332.52 220.13 L332.81 218.82 L333.8 216.07 L334.51 214.9 L337.78 211.48 L339.07 210.82 Z M765.21 198.63 L764.99 199.64 L761.73 207.04 L761.44 209.33 L762 211.57 L763.96 215.69 L764.68 218.28 L764.79 221.09 L763.6 225.37 L763.13 228.22 L758.88 234.86 L758.19 235.26 L757.93 235.58 L756.87 237.8 L756.39 238.18 L755.22 238.89 L753.86 240.43 L752.94 240.96 L750.05 241.34 L748 242.03 L746.61 242.02 L743.27 241.26 L742.3 241.15 L740.91 240.77 L740.14 240.66 L739.39 241.27 L738.5 240.96 L737.08 240.21 L735.87 241.03 L735.51 242.41 L735.7 250.26 L736.08 251.95 L736.77 252.97 L740.1 255.68 L740.52 256.14 L740.69 256.82 L741.01 257.28 L741.72 257.59 L742.96 257.98 L745.71 261.39 L746.02 262.55 L747.32 265.05 L747.52 266.64 L745.49 270.26 L745.14 270.44 L744.77 270.87 L744.48 271.4 L744.35 271.85 L744.11 272.35 L743.51 272.48 L742.76 272.48 L742.05 272.57 L738.94 274.22 L738.44 274.61 L735.7 277.56 L735.16 277.72 L733.01 278.01 L730.92 278.83 L730.09 278.92 L729.02 279.43 L727.93 280.5 L726.6 281.47 L724.85 281.65 L723.41 280.93 L721.51 278.53 L720.33 277.56 L719.08 277.21 L717.43 277.09 L715.82 277.26 L714.67 277.79 L713.1 279.98 L712.39 280.29 L711.55 280.07 L711.36 279.56 L711.33 278.9 L711.04 278.24 L709.84 277.64 L705.38 277.56 L703.11 277.28 L702.12 277.57 L701.28 278.47 L700.88 279.91 L701.25 281.04 L701.86 281.96 L702.19 282.8 L702.51 283.03 L704.1 283.09 L704.67 283.28 L706.5 285.07 L706.65 286.24 L705.51 287.36 L703.77 287.96 L702.19 287.59 L701.17 288.17 L699.96 289.08 L698.96 290.09 L698.54 290.97 L698.42 292.31 L698.1 293.58 L697.61 294.69 L696.99 295.53 L694.94 297.5 L694.05 298.02 L691.98 298.87 L691.01 299.09 L690.4 298.97 L689.49 300.13 L687.01 301.92 L685.89 303.06 L685.54 303.76 L685.42 304.26 L685.21 304.73 L683.51 306.16 L683.05 306.11 L682.77 305.33 L679.06 306.68 L677.17 307.59 L676.36 308.76 L675.46 310.49 L673.4 310.68 L669.59 309.91 L664.85 310.99 L664.09 311.48 L663.51 312.12 L662.21 311.44 L660.02 309.46 L659.61 309.46 L659.33 310.18 L658.91 310.98 L658.66 311.74 L659.28 313.27 L659 314.1 L658.52 314.89 L657.93 316.53 L657.19 316.99 L656 317.22 L653.71 318.13 L651.31 318.52 L650.74 318.79 L650.02 319.39 L649.67 319.36 L649.41 318.92 L648.96 318.34 L647.99 318.32 L646.62 319.02 L645.34 320.03 L644.63 320.89 L644.44 320.76 L644.34 320.76 L644.28 320.72 L644.18 320.4 L641.81 322.74 L640.37 323.69 L638.96 324.08 L638.4 324.44 L636.78 326.18 L636.04 326.76 L633.15 327.56 L631.43 327.74 L630.32 327.44 L629.57 327.1 L628.87 327.39 L628.23 327.87 L627.61 328.13 L627.4 327.98 L627.27 327.67 L627.1 327.36 L626.71 327.22 L626.53 327.28 L626 327.58 L623.33 328.16 L621.6 328.29 L620.4 327.9 L619.8 326.86 L619.38 326.49 L617.96 326.2 L617.55 325.9 L617.05 325.7 L616.09 325.81 L614.97 326.57 L613.56 327.8 L612.11 328.67 L610.88 328.35 L610.72 328.05 L610.66 327.71 L610.67 326.99 L610.53 326.61 L610.2 326.42 L609.82 326.29 L608.85 325.68 L608.41 326.02 L607.92 327.22 L607.78 327.32 L607.02 327.67 L607.81 328.35 L607.73 329 L607.07 329.54 L606.08 329.9 L606.3 328.93 L606.01 327.91 L605.39 327.09 L604.54 326.76 L603.63 326.93 L602.47 327.39 L601.26 328.12 L600.21 329.04 L599.42 328.15 L598.74 327.95 L598.12 328.07 L597.49 328.13 L595.7 328.01 L595.28 328.13 L593.57 327.82 L587.27 327.67 L586.82 327.87 L585.59 328.79 L584.81 329.04 L583.22 328.71 L582.19 328.65 L581.16 329.04 L580.76 328.44 L578.23 326.56 L577.54 325.82 L577.15 325.07 L576.19 323.58 L575.23 321.57 L571.42 316.52 L569.83 315.36 L563.5 313.58 L562.24 312.76 L561.47 312.38 L560.34 312.18 L559.25 312.44 L557.59 313.71 L556.91 314 L556.36 314.15 L554.77 314.76 L553.73 314.91 L551.65 314.84 L550.86 314.58 L550.32 314 L549.91 314 L550.06 314.96 L549.75 316.21 L549.17 317.4 L548.52 318.13 L547.6 318.46 L544.95 318.54 L544.46 318.84 L543.45 319.3 L542.63 319.29 L542.64 318.13 L543.21 317.82 L544.01 317.93 L544.46 317.8 L544 316.77 L544.43 315.85 L543.98 314.58 L542.87 313.49 L541.33 313.09 L541.98 311.99 L542.74 311.08 L543.13 310.15 L542.64 308.97 L542.12 310.27 L541.55 310.4 L540.86 310.15 L539.93 310.37 L534.9 308.32 L532.13 307.58 L530.41 308.06 L529.91 307.65 L529.47 307.19 L529.8 306.58 L530.21 306.06 L530.7 305.64 L531.32 305.33 L530.88 304.72 L530.48 304.63 L530.04 304.66 L529.47 304.42 L529.21 304 L529.19 303.55 L529.02 303.2 L528.36 303.06 L526.2 302.89 L525.42 303.12 L524.54 303.97 L524.05 303.51 L524.51 302.53 L524.46 301.68 L524.2 300.88 L524.05 300.11 L523.55 299.4 L522.47 299.35 L521.39 299.44 L520.89 299.19 L520.48 298.4 L519.53 298.28 L517.68 298.48 L516.59 297.93 L515.04 296.37 L514.07 295.76 L512.5 297.12 L511.57 297.76 L510.7 298.02 L509.47 297.69 L507.47 296.01 L506.4 295.3 L505.01 295.04 L501.91 294.82 L500.73 294.17 L500.1 293.9 L499.26 293.83 L498.54 293.58 L498.23 292.8 L495.92 290.31 L494.75 287.51 L494.47 285.02 L495.61 277.51 L496.78 275.15 L498.57 273.2 L500.94 272.08 L501.26 272.01 L501.32 271.97 L501.31 271.87 L501.43 271.62 L502.48 272.02 L503.26 272.42 L504.81 273.68 L505.33 273.97 L506.48 274.22 L507.07 274.61 L507.41 275.14 L507.74 276.36 L508.02 276.88 L509.79 277.95 L511.75 277.57 L513.64 276.28 L515.24 274.61 L516.11 274.02 L517 274.1 L519.03 274.83 L521.35 274.65 L522.2 274.83 L522.83 275.31 L523.47 275.99 L524.27 276.64 L525.4 277.11 L528.07 277.54 L529.06 278.01 L529.17 277.17 L529.57 276.77 L530.87 276.2 L531.9 275.37 L532.32 275.27 L533.34 275.25 L534.24 275 L537.68 272.99 L542.79 275.21 L543.59 275.98 L544.74 276.08 L549.69 278.35 L550.58 278.92 L551.13 278.94 L551.55 279.01 L551.93 279.23 L552.36 279.63 L553.16 280.83 L553.07 280.78 L553.66 281.57 L553.97 281.89 L562.31 280.96 L563.95 280.29 L564.96 281.1 L565.8 280.82 L566.62 280.03 L567.6 279.38 L568.04 280.06 L568.77 280.69 L569.49 280.77 L569.86 279.87 L571.69 281.05 L572.13 281.19 L572.79 280.63 L573.38 278.85 L574.16 278.47 L575.37 278.19 L579.81 276.2 L579.99 276.57 L580.22 276.75 L580.46 276.88 L580.75 277.11 L581.12 276.57 L581.67 276.28 L582.32 276.28 L583 276.65 L583.62 276.05 L583.88 275.35 L583.8 274.61 L583.46 273.89 L583.78 273.87 L583.85 273.97 L583.85 274.16 L583.91 274.39 L584.5 274.51 L584.88 275.49 L584.96 276.77 L584.32 278.76 L585.04 279.41 L586.05 279.78 L586.65 279.87 L587.55 279.54 L588.17 279.07 L588.88 278.65 L590.02 278.47 L590.59 278.23 L591.18 277.6 L591.57 276.72 L591.58 275.75 L592.04 275.75 L594.27 277.06 L596.87 277.13 L599.42 276.29 L601.55 274.83 L602.24 274.01 L603.97 271.18 L604.31 270.03 L604.08 269.23 L603.5 268.95 L602.75 268.8 L602.02 268.45 L601.45 267.81 L600.41 266.08 L599.76 265.27 L600.21 264.62 L600.74 263.21 L601.1 262.51 L601.47 262.1 L602.29 261.39 L602.74 260.93 L603.72 260.16 L605.01 259.47 L606.23 258.52 L607.02 257.03 L607.08 256.3 L606.97 255.61 L606.57 254.35 L606.44 254.3 L605.67 253.86 L605.66 253.38 L605.99 252.65 L606.23 251.48 L606.87 250.28 L607.02 249.55 L606.87 249.16 L606.23 248.59 L606.08 248.22 L606.15 247.76 L606.31 247.56 L606.48 247.41 L607.59 244.36 L609.84 242.89 L612.72 242.6 L615.64 243.42 L617.11 244.15 L617.84 244.65 L618.35 245.24 L618.67 246.21 L618.47 246.77 L618.1 247.19 L617.91 247.73 L617.31 248.89 L615.92 249.55 L612.93 250.26 L611.74 251.12 L610.26 252.65 L609.37 254.11 L610.49 255.46 L610.78 257.04 L610.84 258.74 L610.67 259.79 L610.2 260.19 L608.93 260.44 L608.37 260.7 L607.56 261.38 L607.4 261.69 L608.59 262.76 L608.9 263.37 L609.12 264.85 L610.82 267.55 L612.72 271.45 L612.93 272.33 L613.01 273.56 L613.3 274.99 L613.84 276.4 L614.69 277.56 L615.95 278.39 L617.33 278.78 L621.89 279.13 L623.23 279.52 L624.45 279.72 L625.58 279.38 L626.06 278.71 L626.61 277.64 L627.27 276.64 L628.06 276.2 L629 275.84 L631.02 274.25 L631.7 273.89 L632.52 272.84 L632.84 272.57 L633.28 272.41 L636.64 271.83 L637.91 271.8 L639.14 272.03 L643.08 273.57 L644.47 274.43 L645.08 275.5 L645.36 276.76 L646.12 278.18 L647.21 279.06 L648.49 278.7 L649.54 278.13 L651.8 277.95 L652.84 277.56 L654.65 276.1 L655.45 275.11 L656 273.89 L655.61 273.05 L655.81 272.4 L656.32 272.16 L656.86 272.57 L658.83 271.53 L660.65 272.16 L662.14 273.59 L663.19 274.83 L665.2 274.63 L665.93 274.39 L666.42 273.99 L667.49 272.57 L668.84 272.22 L670.21 271.36 L671.41 270.31 L672.25 269.35 L672.89 268.01 L673.01 266.61 L672.75 263.66 L672.88 262.26 L673.63 259.27 L675.35 255.38 L676.9 252.96 L678.64 250.9 L680.42 249.32 L680.87 249.07 L681.84 248.71 L682.28 248.45 L683.49 246.84 L684.49 246.17 L686.34 243.42 L687.24 242.51 L687.43 242.48 L687.96 242.56 L688.14 242.51 L688.17 242.34 L688.1 241.77 L688.14 241.61 L688.75 241.35 L690.49 240.84 L691.11 240.46 L691.66 239.95 L692.47 239.44 L693.4 239.05 L694.28 238.89 L695.1 238.53 L695.44 237.67 L695.82 235.67 L696.28 235.67 L697.09 236.4 L701.28 237.53 L702.74 238.11 L704 238.27 L705.26 237.81 L706.75 236.54 L709.42 237.94 L711.93 239.8 L713.23 239.49 L714.27 238.69 L715.11 237.65 L716.33 235.45 L716.78 234.26 L717.07 232.92 L717.17 231.37 L717.24 231.17 L717.37 231.03 L717.52 230.83 L717.59 230.44 L717.44 230.05 L717.13 229.85 L716.82 229.72 L716.68 229.53 L716.49 228.8 L715.62 227.32 L715.33 226.57 L715.2 223.96 L715.54 218.6 L714.91 216.07 L713.54 214.18 L712.89 212.96 L712.61 211.37 L712.62 208.49 L712.38 207.19 L711.71 205.69 L710.85 204.62 L708.81 203.02 L708.06 202.02 L707.82 201.42 L707.69 200.84 L707.64 199.51 L707.41 198.72 L706.26 197.67 L705.8 197 L705.72 196.33 L705.9 195.76 L706.13 195.3 L706.26 194.98 L706.16 194.31 L705.38 192.47 L704.98 190.93 L705.12 189.86 L705.85 188.84 L707.16 187.45 L708.16 187.83 L711.81 188.5 L714.43 188.4 L715.32 188.57 L716.5 189.1 L717.17 189.3 L718.01 189.18 L718.86 188.92 L719.43 189.08 L719.43 190.21 L720.55 189.5 L721.87 189.4 L724.64 189.72 L725.47 189.92 L727.84 191.03 L728.51 191.56 L728.9 192.84 L729.19 194.51 L729.77 195.97 L731.01 196.59 L732.48 196.84 L735.23 197.7 L736.63 197.5 L737.47 196.87 L739.57 194.08 L739.96 192.77 L739.15 191.64 L738.04 190.63 L737.54 189.72 L738.14 188.44 L739.27 188.59 L740.6 189.28 L741.82 189.72 L742.38 189.66 L743.06 189.52 L743.66 189.32 L743.9 189.08 L744.23 188.89 L745.92 189.28 L746.61 189.3 L747.45 188.31 L747.76 186.85 L748.29 185.58 L749.81 185.18 L750.83 186.33 L752.02 187.26 L753.01 188.35 L753.82 191.32 L753.67 191.85 L752.73 192.06 L752.33 192.03 L751.17 191.78 L750.71 191.56 L750.52 191.05 L750.37 190.27 L750.04 189.67 L749.31 189.72 L748.95 190.34 L748.99 191.3 L749.31 192.92 L749.34 195.42 L749.85 196.19 L751.17 196.59 L751.52 196.44 L751.96 196.14 L752.56 195.92 L753.43 196.1 L753.93 196.53 L754.4 197.15 L754.98 197.7 L755.88 197.95 L759.96 198.41 L761.15 198.41 L763.91 197.56 L764.84 197.57 Z M279.77 178.85 L280.93 179.36 L281.57 180.15 L281.76 181.18 L281.57 182.43 L281.18 183.44 L280.54 184 L279.58 184.23 L278.17 184.27 L277.09 183.88 L276.47 182.89 L276.18 181.62 L276.12 180.41 L276.35 179.59 L276.86 179.43 L277.35 179.59 L277.51 179.75 L278.65 178.82 L279.14 178.6 Z M816.4 140.66 L818.39 139.15 L819.15 138.89 L820.33 140.42 L820.84 141.42 L820.92 142.52 L820.39 142.24 L820.27 142.26 L820.23 142.41 L820.06 142.52 L819.2 141.82 L817.23 141.14 Z M823.66 133.88 L825.4 133.88 L826.39 134.55 L826.72 135.68 L826.42 137.04 L825.6 135.89 L824.32 135.77 L822.84 136.09 L821.41 136.18 L821.74 135.42 L822.28 134.8 Z M912.32 126.84 L913.89 129.97 L917.25 135.53 L918.66 138.73 L918.26 139.99 L916.42 136.16 L915.04 132.63 L912.58 129.11 L910.44 125.43 L906.45 123.13 L909.26 123.47 L911.38 124.49 Z M780.6 117.06 L780.91 117.46 L781.7 117.59 L781.96 117.96 L782 118.63 L781.86 119.2 L781.51 120.23 L780.61 122.4 L780.79 123.71 L780.15 124.34 L779.49 124.03 L777.43 122.36 L776.99 121.85 L773.57 118.13 L773 117.28 L772.44 115.93 L772.73 114.45 L774.08 113.25 L775.58 112.12 L778.07 111.84 L780.6 112.54 L780.48 116.2 Z M670.91 106.66 L671.65 106.79 L672.27 106.72 L672.77 106.82 L673.16 107.52 L672.02 107.82 L670.91 108.42 L670.5 107.42 L669.82 107.2 L668.15 107.52 L665.24 107.52 L661.96 106.78 L660.51 106.82 L659.61 107.98 L658.6 107.6 L658 107.81 L657.47 108.21 L656.65 108.42 L656.2 108.11 L656.75 107.38 L658.26 106.17 L659.28 106.38 L660.85 105.37 L663.64 103.04 L667.61 104.38 L669.1 105.26 L670.31 106.33 Z M742.3 103.94 L742.72 104.76 L742.78 106.6 L741.72 107.66 L740.96 109.14 L739.24 109.2 L737.91 107.29 L737.07 105.8 L737.14 103.47 L736.89 102.62 L736.15 102.39 L735.42 102.02 L734.82 101.19 L735.28 101.19 L735.21 100.29 L735.71 99.38 L736.44 99.05 L737.08 99.84 L737.93 101.31 L739.14 102.62 L740.53 103.48 Z M738.44 96.67 L737.96 97.57 L736.71 98.28 L735.28 98.75 L732.78 99.64 L732 99.15 L732.01 97.1 L731.8 95.47 L731.52 93.13 L731.82 89.95 L733.32 89.99 L736.13 90.98 L736.63 91.24 L737.9 92.38 L738.21 92.56 L738.14 93.16 L738.33 94.45 L738.18 95.72 L737.08 96.21 L737.19 96.39 L737.54 97.16 L738.16 96.77 Z M736.41 87.13 L734.94 86.39 L734.94 84.74 L735.95 83.18 L737.54 82.61 L738.59 83.15 L739.46 84.24 L740 85.3 L740.04 85.78 L739.83 85.99 L739.65 86.46 L739.32 86.92 L738.67 87.13 Z M812.79 193.6 L812.18 197.28 L812.1 198.96 L812.79 200.66 L811.13 202.52 L807.29 205.73 L806.43 207.95 L806.64 209.23 L807.28 210.04 L808.06 210.7 L808.69 211.57 L808.95 212.51 L809.04 213.54 L808.95 214.61 L808.69 215.65 L808.2 216.21 L806.59 217.23 L806.02 217.92 L806.11 219.59 L806.02 220.18 L805.63 220.81 L804.69 221.55 L804.21 222.03 L803.73 222.91 L802.97 225.06 L802.41 226.11 L801.81 226.73 L801.17 227.19 L800.58 227.8 L800.14 228.84 L798.69 228.4 L798.08 229.33 L797.71 230.81 L796.95 232.01 L796.39 230.01 L795.36 228.06 L793.75 226.4 L791.48 225.21 L791.68 223.58 L789.89 221.9 L787.53 220.28 L786.02 218.82 L785.7 217.75 L785.61 214.09 L785.32 213.65 L783.9 212.96 L783.35 212.53 L783.19 212.07 L782.69 208.73 L782.03 206.59 L781.96 205.69 L783.19 202.55 L783.3 202.07 L784.12 194.96 L783.35 193.37 L783.74 192.58 L783.71 191.71 L783.4 190.9 L782.87 190.21 L783.47 188.95 L783.52 187.76 L783.06 186.6 L781.35 184.35 L778.07 177.82 L777.65 175.93 L777.18 174.8 L776.08 172.92 L774.69 171.53 L774.11 170.69 L773.87 169.53 L773.64 169.23 L772.66 168.55 L772.43 168.18 L772.36 167.42 L772.17 166.71 L771.89 166.1 L771.53 165.67 L771.02 165.46 L769.82 165.4 L769.23 165.18 L768.83 164.67 L768.13 163.25 L766.96 162.41 L761.37 155.45 L761.15 154.8 L761.42 153.26 L761.36 152.73 L760.74 152.22 L759.75 151.56 L758.11 149.94 L757.38 149.01 L756.66 147.21 L755.67 146.77 L754.46 146.51 L753.43 146.13 L753.2 145.8 L752.72 144.67 L752.48 144.28 L751.88 143.86 L750.63 143.26 L748.88 141.94 L747.66 141.74 L746.3 141.76 L736.51 139.87 L733.96 138.89 L724.94 133.38 L711.93 120.47 L710.88 119.81 L706.75 118.87 L702.77 117.25 L702.19 116.83 L702.04 116.51 L701.73 116.17 L701.43 115.72 L701.17 114.41 L700.88 113.9 L699.89 112.99 L695.53 110.57 L694.28 109.58 L693.82 109.31 L690.8 108.14 L689.33 106.71 L688.64 106.17 L687.46 105.82 L686.27 105.62 L685.36 105.18 L684.99 104.15 L683.37 102.59 L682.03 102.59 L681.51 102.49 L681.46 102.25 L681.53 101.94 L681.37 101.68 L680.4 101.07 L679.52 100.33 L679.4 100.13 L679.24 99.61 L679.11 99.42 L678.23 98.93 L677.95 98.7 L677.41 98.38 L676.7 98.17 L674.42 97.88 L673.89 97.54 L673.16 96.67 L672.34 95.92 L671.92 95.62 L671.36 95.31 L670.66 95.12 L669.03 94.92 L667.18 94 L665.81 93.89 L660.65 94.85 L657.89 94.84 L655.53 94.15 L654.16 92.56 L654.22 91.75 L654.71 90.78 L655.55 90.32 L656.65 90.99 L657.86 91.52 L659.25 90.98 L661.83 89.39 L663.23 90.43 L664.31 89.43 L664.37 87.95 L662.69 87.54 L663.73 86.55 L663.56 85.85 L662.82 85.43 L662.08 85.29 L660.8 85.19 L659.91 84.96 L657.76 83.97 L659.12 81.25 L658.99 81.05 L658.88 80.46 L659.03 80.05 L660.44 80.78 L661 81.42 L661.47 82.14 L662.08 82.82 L664.2 84.07 L664.58 84.17 L664.92 84.97 L665.69 85.5 L667.25 86.23 L668.89 88.32 L669.59 88.94 L670.1 89.1 L672.9 89.54 L673.49 89.84 L673.93 90.15 L674.31 90.3 L674.56 90.59 L675.14 92.04 L675.5 92.56 L676.25 92.87 L677.03 92.94 L677.83 93.16 L678.63 93.5 L682.7 95.23 L684.06 96.68 L684.58 99.17 L685.73 100.8 L688.4 101.35 L693.36 101.19 L694.11 101.35 L694.52 101.75 L694.81 102.28 L695.18 102.81 L695.82 103.11 L696.5 102.98 L697.12 102.71 L697.63 102.59 L699.09 102.87 L700.35 103.43 L701.51 104.23 L702.64 105.26 L704.67 107.75 L705.08 107.86 L706.55 107.89 L707.16 107.98 L710.96 110.77 L711.71 110.69 L716.85 113.9 L718.08 115.26 L718.76 116.43 L719.85 117.88 L721.29 118.8 L723.05 118.46 L723.44 120.11 L724.25 121.24 L725.25 121.88 L726.2 122.07 L728.64 121.95 L729.41 122.07 L730.75 122.83 L731.57 122.99 L732.56 122.54 L733.26 122.93 L734.33 123.94 L735.57 124.81 L735.81 124.84 L737.88 124.84 L738.52 125.03 L739.4 125.68 L739.75 125.75 L740.49 125.74 L741.04 125.8 L741.1 125.98 L741.03 126.27 L741.19 126.64 L741.27 126.91 L741.14 127.7 L741.19 128 L741.35 128.1 L741.9 128.32 L742.05 128.41 L742.46 128.93 L744.91 131.33 L748.16 136.1 L749.92 138.05 L751.95 139.74 L754.33 141.16 L759.01 143.32 L760.03 144.41 L761.31 145.09 L761.6 145.45 L762 147.94 L762.28 148.22 L762.84 148.35 L763.2 148.6 L763.46 148.96 L763.83 149.69 L764.58 150.64 L765.17 152.19 L765.66 152.96 L766.98 153.8 L768.32 153.75 L769.45 153.07 L770.17 152.05 L771.05 153.01 L771.93 154.27 L772.61 155.61 L772.89 156.81 L773.17 157.46 L774.41 158.78 L774.69 159.52 L774.56 160.33 L774.29 160.99 L774.11 161.66 L774.44 162.44 L775.05 163.02 L775.61 163.67 L775.6 163.87 L776.28 164.12 L776.99 164.26 L778.54 164.32 L780.2 164.64 L781.37 165.45 L782.43 166.48 L783.76 167.49 L785.03 168.14 L786.25 168.59 L787.52 168.85 L789 168.93 L790.36 168.36 L791.29 167.4 L792.04 167.2 L792.88 168.93 L793.02 169.59 L793.14 170.95 L793.29 171.6 L793.63 172.25 L794.48 173.44 L794.64 174.09 L795.19 175.13 L796.47 175.61 L797.99 175.72 L799.2 175.68 L799.24 175.55 L800.14 174.77 L800.82 175.64 L800.92 176.51 L800.84 177.43 L801 178.43 L801.7 179.4 L803.81 181.12 L804.67 182.02 L806.43 185.68 L807.51 187.19 L808.12 188.32 L808.02 188.85 L809.25 189.36 L810.84 190.62 L812.21 192.19 Z M636.04 78.5 L636.41 79.46 L636.04 80.38 L635.43 81.33 L635.11 82.37 L635.15 83.48 L635.3 84.36 L635.59 85.11 L636.04 85.78 L635.59 86.51 L635.13 86.84 L633.71 87.13 L631.23 88.03 L630.54 88.19 L629.87 88.42 L629.38 88.39 L629.19 87.79 L628.75 87.05 L627.76 87.23 L626.69 87.86 L626.03 88.49 L625.67 88.22 L625 87.85 L624.67 87.54 L623.61 87.86 L618.65 88.1 L618.12 88.21 L617.63 88.23 L617 88.03 L616.44 87.6 L614.29 85.29 L612.87 84.49 L612.27 84.02 L611.19 80.76 L608.4 77.43 L607.43 76.69 L605.92 77.2 L603.94 76.28 L602.48 74.87 L602.55 73.9 L603 73.65 L603.41 73.89 L603.83 74.26 L604.31 74.39 L604.92 74.13 L609.74 70.82 L610.79 70.65 L611.68 70.64 L612.45 70.55 L613.14 70.1 L615.8 69.16 L615.86 68.97 L616.72 68.83 L618.07 68.21 L619.03 68.06 L620.51 68.64 L624.11 70.83 L625.58 70.82 L626.16 71.16 L627.89 71.94 L628.53 72.1 L628.76 72.22 L629.37 72.86 L629.68 73.07 L631.46 73.49 L633.3 74.18 L634.86 75.32 L635.63 76.91 L635.11 78.95 L635.79 78.65 Z M461.52 58.98 L462.96 60.78 L463.97 61.67 L465.13 62.19 L463.61 64.73 L462.41 65.82 L460.84 66.25 L458.12 66.25 L457.12 66.14 L456.5 65.84 L455.16 64.86 L455.31 64.41 L455.43 64.22 L455.61 64 L457.32 64.5 L458.91 63.89 L459.76 62.53 L459.26 60.83 L459.86 60.47 L460.37 59.97 L460.66 59.45 L460.62 58.98 Z M435.47 42.18 L436.08 42.6 L436.25 43.57 L436.15 45.61 L435.36 47.28 L433.46 47.68 L431.08 47.56 L428.88 47.69 L429.21 47.34 L429.82 46.29 L428.48 46.26 L427.79 46.63 L427.42 47.39 L427.08 48.55 L426.63 48.55 L426.14 47.5 L425.5 48.62 L425.01 50.38 L425.03 51.3 L424.26 51.88 L422.17 54.56 L421.16 55.37 L420.45 55.57 L419.88 55.62 L419.28 55.55 L418.49 55.37 L416.07 54.19 L415.49 54.01 L414.03 54.33 L411.48 55.67 L409.83 55.82 L409.83 55.52 L409.92 55.32 L410.28 54.92 L408.17 55.62 L406.11 56.05 L403.86 56.14 L396.28 54.92 L395.98 54.75 L395.46 54.15 L395.12 54.01 L394.72 54.09 L394.11 54.39 L393.78 54.46 L393.4 54.25 L393.03 53.78 L392.57 53.32 L391.93 53.11 L391.6 52.92 L391.03 52.02 L390.78 51.71 L390.31 51.41 L390.01 51.3 L388.77 51.3 L387.16 50.82 L386.77 50.85 L386.42 51.44 L386.44 52.02 L386.8 52.48 L387.4 52.66 L388.39 53.08 L388.94 54.01 L388.83 54.95 L387.85 55.37 L385.38 55.79 L384.21 55.58 L383.56 54.46 L382.31 55 L381.12 55.29 L380.25 55.79 L379.5 58.1 L378.5 58.35 L377.31 57.84 L376.29 56.73 L375.89 55.81 L375.11 53.15 L375.14 52.44 L376.18 51.18 L376.76 50.81 L377.91 51.25 L378.58 51.21 L380.7 50.66 L381.2 50.61 L381.52 50.33 L381.75 49.45 L381.61 48.76 L381.18 47.92 L379.63 45.93 L379.28 45.3 L379.07 44.6 L379 43.81 L379.1 42.94 L379.38 42.75 L380.39 43.13 L380.63 43.38 L380.94 43.83 L381.41 44.16 L382.16 44.02 L382.39 43.52 L382.9 41.68 L383.33 41.28 L383.53 41.2 L383.64 41.05 L383.83 40.9 L384.21 40.82 L384.6 40.97 L385.22 41.62 L385.58 41.77 L386.3 41.68 L387.38 41.33 L388.08 41.28 L388.9 41.46 L390.51 42.05 L391.48 42.18 L392.33 41.97 L394.89 40.42 L396.64 39.84 L398.23 39.75 L399.72 40.08 L401.21 40.82 L402.88 40.26 L414.12 40.82 L414.74 41.16 L415.51 41.94 L416.21 42.85 L416.61 43.58 L417.06 43.58 L417.36 42.53 L418.16 41.96 L418.97 41.91 L419.36 42.42 L419.75 43.16 L420.7 43.29 L422.56 43.13 L425.27 44.27 L425.76 44.25 L426.18 44.52 L428.88 45.39 L429.95 45.14 L431.71 45.17 L433.41 45.53 L434.35 46.29 L434.8 46.29 L434.8 44.48 L434.6 43.91 L433.98 42.88 L433.86 42.42 L433.34 41.81 L432.44 41.2 L432.04 40.71 L433.03 40.42 L433.69 40.79 L434.76 41.94 Z M587.75 8.42 L588.02 8.88 L588.87 10.92 L589.57 12.18 L591 14.15 L591.58 15.48 L590.5 15.56 L588.96 16.35 L588.02 16.39 L587.39 16.15 L587.19 15.87 L587.07 15.51 L586.65 15.03 L585.57 14.18 L585.03 13.87 L584.4 13.63 L584.33 15.55 L583.25 15.18 L580.95 13.22 L580.3 13.02 L579.67 12.53 L578.29 11.15 L578 10.55 L577.77 10.24 L577.39 10.06 L576.53 10.13 L576.19 10.02 L575.31 8.99 L574.92 7.81 L574.84 5.23 L576.99 0.81 L577.55 0 L577.95 0.39 L578.54 0.52 L580.05 0.49 L580.65 0.71 L582.11 2.3 L586.16 4.55 L587.07 5.46 L587.24 6.25 L587.15 6.98 L587.19 7.71 Z M882.57 206.55 L884.43 207.34 L885.86 208.81 L886.66 210.66 L886.64 212.53 L885.22 214.25 L883.43 213.67 L882.11 211.95 L882.11 210.22 L882.5 210.88 L883.05 212.37 L883.47 212.94 L884.21 213.4 L884.66 213.35 L885.52 212.3 L885.86 210.75 L884.83 209.13 L883.3 207.81 L882.11 207.04 L882.02 207.13 L881.95 207.24 L881.84 207.37 L881.66 207.5 L881.73 207.03 L881.94 206.82 Z M879.87 204.79 L879.56 203.4 L879 201.94 L878.76 200.75 L879.43 200.21 L879.86 200.86 L880.14 202.1 L880.32 204.79 Z M769.75 184.77 L770.85 185.91 L771.05 187.14 L770.72 188.41 L770.16 189.72 L769.75 189.72 L769.33 189.55 L767.82 189.2 L767.49 189.08 L767.45 188.19 L767.29 187.49 L766.87 186.95 L766.1 186.54 L767.8 185.4 L768.33 184.78 L768.85 183.83 L769.54 184.48 Z M847.69 178.43 L847.2 178.85 L848.07 181.72 L847.16 183.83 L845.36 184.35 L843.58 182.43 L843.39 182.32 L843.13 182.39 L842.87 182.37 L842.72 182.02 L842.73 181.57 L842.87 181.27 L843.03 181 L843.47 180.01 L844.34 178.95 L844.52 178.64 L845.1 177.92 L846.3 177.23 L847.41 177.19 Z M851.29 175.68 L852.53 175.86 L853.13 176.72 L853.03 177.76 L852.19 178.43 L851.3 178.31 L850.58 177.73 L849.79 177.27 L848.62 177.49 L849.12 176.82 L850.58 176.16 Z M743.82 602.79 L744.12 602.04 L744.85 602.07 L744.69 602.69 Z M728.94 598.94 L728.86 598.47 L729.46 598.22 Z M727.83 593.21 L728.46 592.58 L728.61 592.88 L728.08 593.57 Z M248.11 142.57 L248.77 142.76 L249.33 143.17 L249.41 143.67 L249 143.89 L248.6 143.77 L248.09 143.79 L247.82 143.74 L247.59 143.48 L247.63 142.97 Z M212.48 123.72 L213.27 122.54 L214.75 121.95 L216.42 123.72 L217.3 124.7 L216.03 125.89 L213.76 125.3 Z M130.23 25.6 L130.26 24.19 L131.25 23.2 L132.5 22.91 L133.37 23.62 L132.95 23.75 L132 24.24 L130.96 24.92 Z M673.05 551.53 L673.42 551.82 L673.68 552.28 L673.49 553 L672.61 553.54 L672.24 553.23 L672.14 552.45 L671.82 552.04 L671.63 551.77 L671.21 551.26 L669.37 550.28 L668.47 549.41 L668.76 548.41 L669.96 547.74 L671.18 547.6 L672.2 547.92 L672.89 548.34 L673.07 548.97 L673.26 549.07 L673.28 549.42 L673.03 550.53 L672.7 550.67 L672.53 550.73 L672.6 551.26 L672.73 551.5 Z M196.23 474.93 L196.64 475.22 L196.7 475.88 L196.07 477.31 L194.92 477.8 L194.03 477.09 L193.88 476.13 L194.67 475.51 L195.39 475.29 L195.83 475.01 Z M186.87 467.92 L187 468.53 L187.35 469.4 L187.17 469.99 L186.43 470.43 L185.14 470.28 L183.65 469.38 L181.28 466.67 L178.04 465.21 L178.68 464.29 L181.93 464.05 L184.46 464.58 L185.72 465.53 L186.49 466.73 Z M186.11 449.13 L187.23 449.91 L187.91 450.95 L187.79 452.08 L186.36 453.01 L184.19 452.83 L182.86 451.1 L181.91 449.22 L182.83 448.16 L184.64 448.43 L185.53 448.79 Z M186.95 445.42 L187.66 446.25 L188.41 447.9 L187.93 448.52 L186.97 448.06 L185.16 447.48 L182.42 447.28 L180.75 446.41 L180.22 445.23 L179.58 443.82 L180.48 443.04 L182.78 443.17 L185.66 444.47 Z M683.89 234.88 L685.04 235.54 L686.19 236.66 L686.19 237.65 L685.1 238.6 L684.39 238.88 L682.74 239.18 L681.55 238.99 L681.02 238.54 L680.12 237.98 L679.33 237.15 L679.47 236.38 L680.45 235.53 L680.93 235.18 L682.02 234.65 L683.03 234.59 Z M180.97 134.55 L179.87 134.56 L178.01 133.81 L177.58 133.7 L176.87 133.38 L175.81 132.49 L175.9 131.89 L176.31 131.42 L176.39 130.69 L176.85 130.28 L178.17 130.45 L179.89 131.33 L181.55 132.56 L181.97 133.81 Z M605.56 21.59 L606.52 21.54 L606.83 21.73 L606.44 22.16 L605.31 22.46 L603.6 22.35 L602.61 21.99 L602.37 21.77 L601.85 21.62 L601.31 21.78 L601.14 21.99 L601.03 22.28 L600.47 22.41 L599.81 21.87 L599.46 21.03 L599.46 20.34 L600.01 20.18 L601.53 20.65 L602.12 20.11 L602.39 19 L602.9 18.79 L603.65 19.61 L604.04 20.55 L604.57 21.31 Z "/>
</g>
</svg>
