<svg xmlns="http://www.w3.org/2000/svg" viewBox="0 0 1000 1077.61">
<g fill="#ccc" stroke="#333" stroke-width="0.5" stroke-linejoin="round">
<path fill-rule="evenodd" d="M0 375.11 L2.72 368.7 L6.06 356.54 L9.22 345.1 L14.41 327.7 L18.75 313.18 L24.29 294.63 L28.36 281.07 L32.7 266.19 L36.88 251.93 L40.74 238.72 L44.57 225.61 L45.03 217.25 L45.03 217.18 L44.8 198.63 L44.65 186.4 L44.52 175.21 L44.38 163.65 L45.39 160.26 L49.73 153.64 L52.32 149.87 L54.81 146.25 L60.13 138.54 L65.45 130.81 L70.77 123.11 L76.09 115.39 L78.07 112.36 L80.04 109.33 L82.02 106.32 L84.01 103.3 L85.54 100.02 L86.33 98.35 L87.08 96.76 L88.61 93.49 L90.16 90.22 L93.51 80.92 L96.85 71.61 L100.2 62.31 L103.54 53.04 L105.79 46.82 L106.74 45.32 L108.64 44.52 L119.23 42.91 L121.79 42.51 L127.4 41.65 L133.02 40.79 L135.57 40.4 L175.85 31.63 L216.11 22.85 L256.38 14.09 L296.65 5.33 L314.57 1.43 L324.33 1.3 L346.75 1.02 L369.17 0.72 L391.58 0.43 L413.99 0.13 L423.65 0 L426.02 0.6 L429.58 3.14 L432.98 5.58 L438.98 9.3 L450.08 16.21 L461.18 23.12 L472.28 30.02 L483.38 36.93 L494.47 43.85 L505.57 50.75 L516.66 57.68 L527.77 64.59 L532.43 67.5 L533.72 68.97 L534.1 70.77 L533.74 74.96 L533.98 79.01 L536.01 86.26 L536.4 90.22 L536.09 93.03 L536.25 98.37 L536.06 101.02 L534.3 107.72 L534.39 111.02 L534.44 113.05 L535.16 113.5 L536.14 113.36 L536.98 113.62 L537.82 114.5 L538.94 115.94 L539.18 117.27 L534.81 118.79 L533.93 120.92 L534.68 123.26 L536.98 124.88 L537.7 124.68 L538.26 123.94 L539 123.22 L540.22 123.15 L541.01 123.62 L541.97 124.6 L542.53 125.81 L541.39 129.29 L541.65 132.52 L542.48 135.67 L543.41 137.79 L545.29 140 L547.85 142 L550.53 143.45 L552.78 144.01 L554.54 145.02 L554.22 147.28 L552.34 150.95 L552.09 153.53 L552.22 156.78 L552.72 159.84 L554.07 162.89 L554.17 164.32 L554.04 167.08 L554.36 168.84 L555.92 171.32 L556.48 172.73 L556.42 174.09 L555.53 176.54 L555.59 178.01 L556.32 179.44 L557.44 180.34 L558.47 180.19 L559.56 175.76 L561.13 174.79 L563.03 175.09 L564.67 176.26 L565.15 177.05 L565.84 178.93 L566.29 179.75 L567.04 180.46 L568.87 181.76 L569.91 182.78 L570.21 184.01 L569.31 184.97 L567.91 185.6 L565.33 186.14 L564.38 186.85 L563.04 188.36 L561.24 189.7 L560.37 190.84 L561.14 191.62 L564.22 191.91 L566.65 192.41 L568.66 193.75 L569.98 195.69 L570.28 197.99 L569.06 199.3 L564.14 202.04 L563.04 203.67 L563.41 205.11 L564.22 205.73 L565.04 205.96 L565.41 206.28 L566.01 206.28 L568.76 208.56 L571.48 211.52 L572.28 211.52 L572.79 209.29 L574.98 211.22 L575.17 214 L574.06 216.95 L570.83 221.95 L570.92 223.76 L572.79 227.64 L573.52 233.32 L573.04 239.3 L571.38 244.7 L568.66 248.71 L565.29 251.21 L564.67 252.2 L564.59 253.79 L565.18 254.77 L565.93 255.44 L566.29 256.16 L567.28 257.49 L569.19 258.07 L570.47 259.32 L569.54 262.66 L561.62 274.96 L559.79 279.32 L559.33 282.02 L559.45 284.86 L560.44 287.12 L562.61 288.05 L563.74 289.14 L562.88 291.69 L561.35 294.6 L560.54 296.79 L561.03 298.96 L562.28 301.26 L563.78 303.1 L565.04 303.85 L565.7 305.07 L560.54 313.63 L560.6 316.11 L561.04 318.45 L560.93 320.9 L559.36 323.7 L558.53 325.91 L559.63 327.75 L561.28 329.86 L562.16 332.81 L561.62 334.4 L558.84 339.64 L557.73 340.77 L557.46 342.01 L554.85 349.53 L554.66 351.3 L554.71 353.24 L554.92 354.56 L556.48 355.41 L556.51 355.42 L557.87 356.57 L558.94 358.61 L560.42 360.2 L564.43 361.56 L565.71 361.56 L567.77 360.68 L568.58 360.56 L569.6 361.16 L571.28 363.02 L571.85 363.45 L573.29 363.12 L575.2 361.48 L576.42 361.52 L577.63 361.82 L578.56 361.65 L580 360.92 L579.72 360.71 L579.76 360.03 L579.98 359.27 L580.21 358.84 L580.65 358.8 L581.8 359.22 L582.29 359.21 L584.65 358.32 L586.2 358.45 L587.79 358.93 L590.21 359.03 L591.53 358.66 L592.45 358.15 L593.29 357.92 L594.39 358.42 L596.24 363.56 L597.63 366.2 L599.2 367.73 L601.26 368.25 L604.11 367.82 L605.15 367.4 L605.63 367.04 L606.26 366.87 L607.74 367.03 L608.65 367.4 L611.44 369.24 L616.04 368.15 L617.06 368.17 L619.53 369.14 L620.83 369.23 L622.54 369.89 L626.45 372.39 L627.21 372.4 L627.64 371.62 L628.63 371.86 L630.47 372.9 L631.81 372.87 L632.42 372.19 L632.63 371.38 L632.78 371 L634.62 371.16 L639.93 372.46 L642.22 372.05 L645.19 369.56 L646.82 369.16 L647.34 369.67 L647.7 371.65 L648.52 372.34 L649.65 372.43 L650.41 372.09 L651.09 371.63 L651.98 371.42 L653.92 371.71 L657.48 373.07 L658.57 373.63 L658.62 373.91 L658.78 374.46 L659.35 374.99 L661.46 375.37 L662.14 375.58 L662.83 375.65 L663.73 375.27 L665.18 374.89 L668.97 375.19 L670.93 375.03 L673.87 376 L675.15 376.04 L676.47 375.17 L676.36 377.23 L676.95 377.73 L677.95 377.57 L679.09 377.63 L681.19 378.7 L682.39 378.77 L683.72 375.43 L685.11 377.4 L686.33 380.61 L686.59 382.25 L689.38 382.66 L690.95 382.13 L693.71 379.1 L694.49 377.9 L694.64 377.07 L695.07 376.85 L696.7 377.44 L697.6 377.35 L701.48 376.16 L702.38 376.34 L702.52 376.91 L702.77 377.16 L704 376.35 L704.55 375.5 L705.51 373.19 L706.12 372.67 L708.12 373.71 L712.16 378.4 L714.04 378.85 L714.6 377.81 L713.34 375.49 L714.09 374.72 L715.42 374.32 L716.38 373.87 L720.35 370.88 L721.64 369.47 L723.66 365.84 L723.97 365.54 L724.84 365.09 L725.25 364.53 L725.91 362.5 L726.27 361.7 L728.09 359.01 L729.17 357.83 L730.4 356.74 L732.48 356.11 L741.05 354.56 L742.73 354.73 L743.96 356.07 L747.11 363.92 L749.91 368.17 L753.54 371.67 L760.17 375.65 L763.69 379.09 L765.74 380.38 L767.82 380.88 L788.29 381.92 L789.88 381.47 L791.4 380.61 L792.99 381.39 L794.7 382.75 L796.55 383.71 L803.97 384.42 L806.18 385.77 L806.46 384.85 L807.77 382.2 L813.75 390.37 L818.58 394.01 L819.76 395.37 L820.79 398.5 L821.18 409.39 L822.01 414.07 L824.08 418.25 L827.17 421.59 L831.13 423.8 L833.55 424.68 L835.11 425.61 L836 427.14 L836.39 429.81 L836.26 430.81 L835.61 432.94 L835.52 434.03 L835.77 435.15 L836.54 437.23 L836.64 438.37 L835.42 442.66 L833.36 446.39 L831.8 450.32 L832.09 455.15 L834.74 465.1 L834.74 467.33 L834.06 471.69 L834.32 473.88 L837.46 477.55 L838.74 479.54 L839.39 482.07 L838.81 486.79 L838.89 488.93 L840.17 490.61 L843.48 492.66 L843.92 493.79 L846.53 503.42 L846.48 505.59 L843.7 511.48 L843.32 513.62 L844.11 516.53 L847.76 520.44 L849.07 522.89 L848.87 526.88 L845.67 534.09 L845.97 538.6 L846.7 542.48 L846.79 542.94 L846.69 547.61 L847.09 551.96 L849.37 555.33 L854.65 561.02 L857.23 569.1 L859.03 594.22 L860.16 597.6 L862.85 600.51 L866.52 602.17 L874 602.75 L877.76 603.57 L877.77 603.59 L877.78 603.59 L877.8 603.6 L882.03 605.18 L886.31 606.06 L890.52 605.71 L894.59 603.6 L894.61 603.6 L894.61 603.57 L897.65 602.03 L905.18 602.09 L908.84 600.99 L910.85 600.02 L914.84 599.85 L916.91 599.51 L918.92 598.3 L921.52 594.8 L923.07 593.19 L930.74 588.82 L946.28 583.37 L948.31 582.27 L951.3 578.99 L953.13 578.07 L956.3 578.95 L976.46 590.5 L978.87 592.3 L985.45 601.53 L996.63 608.27 L999.95 610.09 L1000 610.12 L997.51 612.11 L993.37 615.24 L990.54 618.93 L989.37 622.93 L989.7 625.03 L991.23 629.17 L991.81 634.05 L992.75 635.68 L995.55 639.42 L996.54 642.41 L998.12 646.49 L997.99 650.28 L996.86 654.32 L995.38 657.18 L990.77 664.11 L989.38 668.34 L989.35 672.34 L991.03 681.31 L990.96 685.56 L986.54 699.05 L985.03 703.67 L981.62 708.67 L980.73 710.82 L975.25 734.64 L974.18 739.16 L973.96 741.62 L974.06 743.83 L975.03 746.37 L978.06 751.42 L978.43 753.91 L977.35 756.22 L973.34 759.95 L971.9 762.29 L969.27 770.9 L966.31 775.59 L964.09 778.53 L960.69 781.64 L958.04 786.54 L956.63 791.19 L956.39 792.67 L956.32 795.5 L956.78 798.42 L957.98 800.82 L958.81 803.31 L958.49 806.46 L957.8 809.63 L957.77 809.93 L957.53 812.24 L959.43 816.49 L959.78 819.15 L957.98 820.34 L953.79 820.11 L952.7 821.36 L952.66 824.84 L954.83 831.75 L955.17 834.35 L955.76 836.14 L958.45 839.47 L959.24 841.07 L959.04 844 L957.89 846.35 L956.6 848.44 L955.98 850.6 L956.93 856.56 L957.04 859.03 L955.98 861.03 L954.98 861.37 L952.09 861.55 L951.11 862.01 L950.39 863.43 L950.47 864.76 L950.87 866.14 L951.45 870.17 L952.74 874.41 L952.66 877.38 L950.21 885.86 L950.67 887.87 L952.82 890.47 L953.24 892.19 L952.48 893.68 L951.11 895.64 L950.14 897.39 L950.07 897.74 L949.93 898.38 L950.22 900.99 L950.22 906.97 L948.39 911.15 L948.23 911.86 L947.88 912.61 L946.73 920.72 L946.18 922.87 L945.13 924.69 L941.48 928.86 L938.13 931.64 L936.34 933.81 L935.21 936.21 L935.34 938.08 L935.97 939.96 L936.34 942.43 L936.23 945.48 L935.79 948.75 L934.83 951.71 L933.17 953.87 L931.94 954.47 L931.29 954.14 L930.74 953.46 L929.84 952.96 L924.56 952.96 L921.71 953.69 L919.74 955.59 L918.45 958.23 L916.88 964.36 L916.02 966.7 L914.85 968.67 L913.15 970.73 L911.19 971.64 L905.36 972.15 L902.96 973.05 L895.24 980.83 L894.42 983.11 L896.06 988.36 L895.66 991.26 L893.75 992.86 L890.99 993.34 L886.27 993.09 L884.43 992.53 L882.23 991.33 L879.68 990.31 L876.82 990.27 L871.02 993.49 L865.45 994.21 L863.05 994.94 L860.95 996.35 L858.95 998.56 L857.53 1001.11 L856.81 1003.83 L856.51 1010 L855.26 1012.13 L852.34 1012.4 L849.05 1012.06 L846.69 1012.32 L845.32 1014.44 L844.83 1017.18 L844.14 1019.59 L842.18 1020.63 L839.03 1021.43 L838.94 1023.45 L841.81 1028.92 L842.32 1030.5 L842.55 1031.92 L842.31 1033.32 L840.72 1036.04 L840.82 1036.94 L841.11 1038.04 L841.01 1039.89 L839.85 1042.95 L837.93 1045.25 L835.41 1046.7 L832.44 1047.2 L829.1 1049.79 L824.84 1054.87 L820.41 1058.4 L813.22 1054.44 L810.02 1053.54 L808.58 1052.71 L807.56 1051.35 L805.76 1046.33 L803.98 1043.82 L801.57 1042.88 L798.8 1042.94 L795.91 1043.38 L795.27 1043.4 L793.03 1043.47 L790.41 1042.93 L782.46 1039.81 L782.4 1039.8 L779.46 1039.23 L776.41 1039 L773.39 1040.73 L771.14 1042.46 L766.79 1047.48 L764.1 1048.69 L760.68 1049.64 L757.94 1051.16 L757.29 1054.07 L757.74 1057.72 L757.29 1060.72 L755.9 1063.39 L753.58 1066.01 L751.26 1069.4 L749.63 1073.51 L747.5 1076.77 L743.67 1077.61 L743.61 1077.58 L739.91 1076.07 L736.33 1073.18 L733.25 1069.6 L731 1065.97 L726.22 1059.93 L726.16 1059.92 L718.3 1058.76 L715.32 1059.64 L709.96 1061.22 L703.88 1066.01 L699.48 1066.86 L699.44 1066.83 L695.16 1064.18 L687.81 1056.77 L683.64 1055.05 L683.62 1055.05 L679.28 1055.51 L674.95 1057.28 L663.19 1063.81 L659.29 1064.7 L654.63 1064.47 L653.61 1064.31 L650.83 1064.25 L650.79 1064.24 L649.51 1063.84 L648.41 1063.13 L645.24 1060.41 L644.05 1059.82 L643.99 1059.8 L638.58 1058.31 L637.46 1058 L636.21 1057.31 L635.36 1056.46 L633.44 1054.54 L632.37 1053.82 L629.85 1053.13 L629.38 1053 L626.25 1053.01 L614.23 1054.75 L611.18 1054.44 L610.4 1054.17 L608.52 1053.51 L589.24 1043.64 L589.19 1043.62 L587.86 1043.14 L575.7 1040.58 L575.66 1040.57 L570.56 1038.82 L570.52 1038.82 L565.24 1037.67 L563.59 1037.32 L559.94 1035.75 L559.9 1035.74 L552.84 1034.24 L550.67 1033.77 L550.66 1033.77 L546.91 1033.66 L539.72 1034.99 L537.95 1035.09 L524.94 1033.4 L492.51 1036.27 L481.87 1040.89 L481.4 1041.33 L481.4 1041.23 L481.91 1034.62 L481.71 1031.88 L480.23 1029.34 L477.29 1027.12 L475.67 1025.51 L474.95 1023.78 L475.55 1019.92 L477.28 1017.2 L479.98 1015.58 L486 1014.53 L486.59 1013.14 L486.37 1011.08 L486.39 1008.68 L486.69 1007.5 L487.08 1006.45 L487.64 1005.47 L488.39 1004.52 L489.48 1003.89 L489.5 1003.87 L490.16 1004.45 L490.46 1005.42 L490.46 1005.94 L490.57 1006.27 L491.41 1006.84 L491.44 1006.85 L492.42 1007.07 L492.89 1006.4 L492.99 1004.17 L493.21 1003.25 L493.63 1002.2 L494.7 1000.34 L496.82 997.71 L497.76 995.82 L495.98 994.21 L495.73 992.44 L496.71 990.76 L498.57 989.45 L503.84 988.03 L506.42 986.98 L507.51 985.3 L508.7 984.03 L514.15 983.58 L515.71 982.24 L514.95 979.92 L512.78 978.28 L511.36 976.42 L512.83 973.5 L514.81 972.87 L516.93 973.57 L518.95 973.89 L520.58 972.14 L520.15 971.05 L519.19 969.52 L519.02 968.17 L520.99 967.59 L522.43 967.62 L523.33 967.46 L523.78 966.78 L524.11 956.4 L524.65 953.87 L525.26 952.36 L525.64 952.19 L526.25 952.64 L530 953.37 L531.41 953.28 L532.03 952.47 L531.7 951.25 L531.01 950.2 L530.43 949 L530.4 947.43 L530.85 947.02 L532.87 945.53 L533.66 944.69 L532.99 943.97 L531.95 942.08 L531.22 941.06 L528.53 939.1 L527.89 938.34 L527.42 936.09 L527.8 934.07 L528.45 932.01 L528.78 929.69 L529.16 928.64 L530.83 927.38 L531.22 926 L528.34 923.28 L527.93 921.61 L528.75 919.5 L532.73 912.4 L533.34 910.51 L533.66 908.32 L533.05 904.07 L533.06 901.92 L534.02 900.99 L535.91 900.56 L538.61 899.42 L540.67 897.83 L540.6 896.05 L538.86 894.8 L536.96 893.84 L535.56 892.5 L535.28 890.13 L536.48 890.57 L537.43 891.13 L538.09 891.88 L538.52 892.84 L539.57 891.39 L540.63 888.65 L541.78 884.2 L542.99 882.94 L550.71 880.09 L554.68 877.82 L568.42 867.46 L569.97 865.34 L569.99 863.57 L564.48 861.94 L565.39 859.95 L569.54 856.51 L570.28 855.49 L570.96 853.97 L570.84 852.59 L568.11 851.57 L567.77 850.64 L568.11 849.71 L570.62 848.75 L573.12 847.41 L574.74 846.22 L575.55 845.62 L576.85 843.79 L575.05 839.31 L574.62 836.77 L576.41 835.66 L578.59 834.9 L580.89 833.12 L582.9 831.04 L584.17 829.36 L582.89 829.02 L581.77 828.5 L580.82 827.75 L580.1 826.65 L582.58 822.83 L584.06 821.4 L586.6 820.34 L587.94 820.21 L589.19 820.31 L590.36 820.19 L591.47 819.44 L591.92 818.41 L592.54 815.47 L592.77 814.85 L596.26 815.32 L598.13 815.26 L598.93 814.45 L599.48 811.38 L600.79 810.44 L602.4 810.03 L603.81 808.54 L604.43 806.2 L606 794.75 L605.85 792.6 L605 790.87 L603.4 789.08 L596.02 783.26 L595.97 781.67 L592.37 772.41 L592.31 772.37 L588.69 769.88 L586.38 766.61 L582.54 758.04 L581.12 756.33 L577.39 754.49 L575.6 753.15 L570.35 746.98 L568.66 745.47 L566.31 744.61 L556.88 744.58 L555.21 744.02 L554.49 742.69 L554.04 741.2 L553.23 740.1 L552.11 739.85 L549.46 740.19 L548.28 740.1 L540.01 735.89 L538.52 735.97 L537.35 733.99 L526.62 726.56 L524.43 726.63 L522.45 728.1 L519.1 731.62 L517.67 732.66 L516.16 733.44 L514.82 733.65 L513.3 733.21 L512.67 732.46 L512.31 731.43 L511.57 730.15 L503.93 721.56 L501.11 717.58 L499.65 716.13 L496.96 714.76 L470.69 709.62 L470.07 708.99 L469.77 707.95 L469.03 707.39 L468.1 706.97 L467.23 706.3 L465.54 705.78 L459.47 705.63 L457.01 705 L434.2 687.63 L430.41 686.7 L429.26 685.84 L426.87 683.46 L425.72 682.73 L424.99 682.59 L422.74 682.56 L420.39 681.69 L415.94 678.74 L413.14 677.76 L409.74 675.34 L404.79 673.63 L403.65 672.72 L403 671.84 L402.13 671.15 L400.32 670.88 L399.2 670.46 L397.65 668.61 L393.74 667.15 L391.78 664.72 L389.36 660.08 L388.25 658.81 L383.62 654.72 L380.73 653.4 L380.31 652.37 L380.02 651.18 L379.61 650.28 L378.87 649.63 L376.28 648.48 L373.58 646.91 L372.3 645.91 L371.01 644.48 L370.06 643.79 L367.86 643.34 L365.85 642.1 L362.86 641.71 L361.67 641.28 L360.81 640.48 L358.72 637.61 L354.16 632.9 L311.32 604.44 L309.17 603.9 L306.72 604.15 L301.13 606.16 L298.29 606.81 L289.38 607.09 L280.06 605.66 L276.3 605.86 L275.19 605.66 L273.92 604.93 L271.6 602.83 L270.31 602.03 L269.23 601.85 L265 602.03 L257.64 600.57 L253.73 597.76 L251.56 596.7 L247.3 596.5 L246.62 596.25 L244.71 592.1 L244.58 591.36 L243.49 591.12 L241.43 589.96 L240.12 589.5 L238.74 589.38 L233.27 589.68 L232.11 589.37 L229.68 587.26 L228.56 586.88 L221.6 587.05 L218.14 587.13 L215.67 586.84 L212.25 584.77 L208.26 581.46 L203.89 579.3 L199.35 580.63 L195.6 578.21 L194.47 577.07 L192.76 574.2 L192.04 573.44 L191.83 571.7 L190.41 569.01 L188.47 566.54 L185.35 564.74 L183.31 561.33 L182.21 560.13 L183.29 558 L183.71 555.05 L183.28 552.42 L181.81 551.28 L179.76 550.56 L177.98 548.95 L176.39 547.17 L174.91 545.95 L174.02 545.83 L171.64 546 L170.84 545.95 L169.75 545.18 L167.45 542.82 L166.38 542.33 L163.92 541.59 L162.69 539.82 L161.97 537.77 L161.02 536.12 L153.31 532.66 L150.56 532.53 L148.92 532.06 L147.72 531.21 L146.32 529.93 L144.51 528.64 L142.58 527.82 L140.4 527.39 L137.83 527.27 L136.74 526.58 L135.63 523.53 L133.73 522.29 L133.84 520.99 L134.39 519.5 L134.95 518.43 L132.82 518.38 L131.42 518.12 L130.36 517.57 L124.35 511.21 L122.63 510.38 L117.01 510.38 L115.41 509.92 L114.41 509.3 L112.54 507.21 L110.87 506.03 L109.14 505.27 L107.8 504.16 L107.26 501.9 L107.18 499.5 L106.85 497.98 L106.11 496.74 L104.83 495.2 L103.55 494.07 L100.86 492.54 L99.47 491.27 L96.77 487.32 L95.82 486.36 L82.56 478.23 L78.32 473.54 L76.67 471.06 L76.66 470.47 L76.31 469.87 L76.93 466.85 L76.66 465.62 L75.33 463.67 L73.11 458.91 L71.37 456.28 L68.85 453.62 L67.76 452.13 L67.31 450.56 L66.75 450.53 L65.57 449.73 L64.54 448.79 L64.43 448.34 L63.59 447.93 L63.13 446.94 L62.8 445.78 L62.37 444.82 L59.12 441.22 L58.37 439.85 L57.85 438.39 L57.06 437.29 L55.46 436.82 L54.98 436.13 L56.45 433.1 L54.17 431.65 L54.22 429.97 L55.05 427.13 L54.42 425.8 L53.99 425.57 L53.28 425.67 L51.81 425.29 L48.85 423.93 L47.3 422.63 L47.28 421.02 L48.96 418.69 L49.63 416.53 L48.68 414.23 L46.04 411.14 L45.39 410.95 L44.59 411.02 L43.9 410.83 L43.61 409.9 L43.63 408.48 L43.52 407.82 L43.2 407.21 L42.34 406.68 L41 406.28 L36.76 405.71 L35.89 405.59 L33.56 404.7 L25.26 398.94 L23.25 396.9 L22.42 394.96 L21.39 394.07 L16.61 392.57 L15.11 391.89 L12.22 388.08 L10.19 386.37 L7.38 385.65 L6.04 385.49 L4.43 385.01 L2.98 384.19 L2.1 383.02 L2.32 381.96 L3.11 380.83 L3.58 379.49 L2.85 377.76 L3.66 377.76 L3.04 376.76 L2.21 375.92 L1.19 375.34 Z "/>
</g>
</svg>
