<svg xmlns="http://www.w3.org/2000/svg" viewBox="0 0 1000 1472.34">
<g fill="#ccc" stroke="#333" stroke-width="0.5" stroke-linejoin="round">
<path fill-rule="evenodd" d="M934.73 1403.3 L924.6 1413.21 L921 1415.69 L917.43 1416.29 L913.73 1415.77 L910.39 1415.95 L907.88 1418.64 L907.27 1422.18 L908.18 1425.07 L909.53 1427.96 L910.23 1431.47 L910.39 1433.57 L910.81 1434.97 L912.56 1438 L913.21 1439.59 L913.41 1441.14 L913.16 1442.72 L908.38 1453.66 L906.66 1456.27 L905.23 1457.85 L902.12 1460.58 L898.36 1465.09 L896.98 1466.23 L895.22 1466.92 L892.9 1466.96 L891.02 1467.59 L885.41 1470.78 L883.44 1471.36 L879.35 1471.8 L870.89 1470.97 L866.82 1471.26 L864.82 1472.34 L862.84 1470.57 L858.92 1468.04 L854.03 1464.48 L851.58 1462.91 L848.77 1461.35 L845.88 1459.79 L842.02 1457.69 L838.06 1453.85 L837.79 1453.48 L837.36 1452.59 L836.93 1452.1 L836.56 1451.87 L835.76 1451.76 L835.31 1451.58 L830.72 1447.3 L829.35 1446.46 L826.56 1445.64 L825.55 1444.72 L824.5 1441.47 L823.73 1439.81 L822.61 1439.09 L821.34 1438.56 L818.01 1436.01 L816.42 1435.13 L811.74 1433.6 L810.14 1433.37 L806.07 1429.36 L804.37 1428.32 L803.31 1427.33 L800.9 1424.54 L799.66 1423.62 L795.82 1421.93 L792.92 1419.84 L791.24 1418.95 L789.57 1418.59 L786.95 1418.95 L786.6 1419.16 L786.55 1418.28 L787.06 1417.33 L788.22 1415.71 L788.56 1413.79 L788.31 1412.14 L787.87 1410.48 L787.14 1402.13 L786.8 1400.59 L785.7 1397.3 L785.35 1394.5 L785.02 1394.15 L784.52 1394 L783.9 1393.59 L781.74 1390.76 L778.95 1388.78 L778.74 1388.54 L777.65 1385.96 L776.32 1384.92 L775.05 1384.51 L771.98 1383.98 L770.11 1383.34 L769.37 1382.84 L767.99 1381.59 L766.66 1380.7 L766.29 1380.53 L753.16 1377.2 L750.15 1375.82 L747.6 1373.71 L743.93 1369.29 L742.02 1367.46 L737.71 1364.9 L736.01 1364.16 L734.22 1363.68 L729.27 1363.29 L728.62 1362.98 L728.19 1362.16 L728.3 1360.41 L728.12 1359.54 L727.04 1358.47 L723.84 1356.6 L723.18 1355.88 L722.36 1354.48 L720.48 1353.61 L716.7 1352.72 L714.77 1351.52 L714.41 1350.06 L714.45 1348.45 L713.73 1346.86 L709.33 1341.67 L707.52 1340.38 L706.63 1340.1 L705.9 1340.1 L705.24 1340.02 L704.53 1339.48 L703.71 1338.28 L703.17 1337.8 L702.38 1337.61 L701.88 1337.36 L700.17 1336.2 L699.38 1335.81 L696.1 1335.25 L691.5 1333.26 L683.24 1333.36 L676.21 1330.78 L667.75 1324.62 L654.16 1319.69 L651.51 1316.83 L648.02 1315.05 L645.08 1312.97 L643.71 1312.46 L640.61 1312.53 L639.13 1312.12 L637.92 1311.36 L636.78 1310.92 L635.51 1311.51 L634.84 1310.39 L633.85 1306.97 L633.16 1306.17 L632.37 1305.8 L630.07 1305.28 L625.71 1303.07 L620.85 1301.9 L611.59 1298.69 L605.48 1297.7 L603.55 1299.08 L603.58 1297.11 L602.14 1295.92 L601.39 1295.08 L600.83 1294.59 L597.96 1293.61 L592.33 1291.02 L589.99 1289.54 L585.08 1286.06 L579.57 1282 L577.3 1279.97 L577.27 1279.02 L577.69 1278.03 L577.07 1276.76 L576.21 1275.68 L573.8 1274.52 L567.11 1270.82 L565.87 1270.48 L562.46 1270.02 L561.17 1269.18 L560.12 1267.95 L559.87 1267.1 L558.89 1266.44 L556.98 1265.77 L553.98 1266.47 L551.2 1265.74 L548.44 1264.73 L544.98 1262.36 L544.61 1261.88 L544.41 1260.28 L544.21 1259.45 L543.8 1258.79 L543.72 1257.66 L543.3 1256.5 L541.28 1255.76 L537.35 1254.53 L526.07 1249.55 L520.52 1246.48 L512.91 1243.34 L511.24 1241.02 L502.51 1236.45 L500.35 1234.72 L499.29 1234.38 L498.11 1234.56 L497.57 1234.8 L497.01 1234.68 L495.76 1233.77 L493.36 1231.11 L492.48 1230.41 L490.93 1229.91 L489.36 1229.66 L488.15 1229.15 L487.67 1227.86 L487.26 1227.54 L485.89 1227.2 L485.77 1226.59 L485.89 1226.29 L486.98 1225.73 L488.58 1225.31 L488.88 1224.21 L487.67 1222.43 L485.38 1220.98 L482.18 1219.6 L480.06 1217.44 L481.59 1217.52 L482.47 1217.06 L482.81 1216.24 L482.71 1215.26 L482.36 1214.5 L481.81 1213.75 L477.97 1210.12 L476.4 1209.38 L472.27 1208.79 L471.11 1207.91 L470.42 1206.51 L469.71 1204.63 L466.01 1199.21 L465.45 1197.59 L464.84 1196.79 L462.01 1194.86 L461.13 1193.97 L461 1193.42 L461.13 1190.84 L460.83 1190.25 L457.34 1187.53 L450.84 1184.33 L448.71 1183.18 L447.08 1182.3 L445.17 1181.05 L441.72 1178.21 L437.78 1176.28 L437.51 1175.88 L436.85 1175.43 L436.06 1175.04 L435.4 1174.88 L434.52 1174.56 L433.93 1173.81 L433.45 1172.9 L432.92 1172.09 L432.36 1171.56 L431.78 1171.13 L428.48 1169.46 L427.31 1168.27 L427.58 1166.43 L427.33 1164.52 L427.14 1162.61 L426.09 1160.89 L424.73 1158.92 L423.93 1158.42 L423.69 1157.5 L424.06 1156.76 L424.61 1155.47 L424.29 1154.75 L423.36 1152.9 L421.56 1151.98 L418.89 1150.31 L417.95 1149.39 L416.42 1147.21 L415.36 1146.1 L414.55 1145.73 L412.62 1145.53 L411.83 1145.23 L411.3 1144.62 L410.49 1142.03 L412.65 1141.79 L413.27 1141.04 L413.4 1140.24 L412.84 1139.18 L412.1 1137.63 L411.61 1136.78 L411 1135.02 L410.04 1133.55 L408.81 1132.94 L407.52 1132.47 L406.85 1131.36 L406.43 1130.06 L405.85 1129.04 L404.8 1128.44 L402.08 1127.35 L401.95 1129.14 L400.4 1131.68 L398.88 1128.95 L399.54 1126.79 L399.48 1123.76 L398.77 1121.91 L399.61 1121.28 L399.63 1119.98 L400.66 1119.36 L400.16 1118.49 L400.35 1117.81 L400.54 1116.94 L399.79 1116.01 L399.34 1114.63 L400.27 1114.28 L400.46 1112.25 L399.91 1110.84 L398.49 1109.97 L398.29 1108.97 L398.37 1108.38 L398.61 1107.77 L398.7 1107.2 L398.29 1106.69 L397.45 1106.5 L396.93 1106.89 L396.71 1108.2 L396.16 1108.87 L395.17 1108.5 L393.82 1108.75 L392.35 1107.88 L390.7 1107.82 L390.73 1105.69 L390.92 1104.55 L391.99 1101.95 L392.85 1100.82 L392.48 1099.77 L393.22 1099.16 L394.63 1099.47 L396.09 1098.31 L397.48 1098.35 L398.45 1098.49 L398.87 1099.41 L398.07 1100.58 L397.89 1101.69 L398.63 1102.3 L399.66 1102.84 L401.14 1104.02 L401.76 1103.17 L401.82 1101.44 L402.25 1099.73 L403.42 1096.1 L404.1 1093.64 L404.06 1092 L404.34 1089.8 L405.26 1087.15 L406.17 1084.59 L407.51 1077.84 L406.98 1071.78 L406.34 1068.79 L404.36 1063.05 L400.15 1057.35 L397.57 1054.89 L392.51 1048.12 L386.19 1039.85 L383.63 1036.97 L383.03 1035.01 L381.88 1033.23 L381.01 1029.66 L381.39 1026.8 L381.03 1023.48 L379.79 1021.38 L378.97 1020.41 L373.54 1015.74 L372.04 1013.82 L368.68 1007.16 L367.95 1006.1 L368.04 1003.94 L367.97 1003.18 L367.35 1002.39 L366.13 1001.16 L363.65 997.76 L360.19 995.41 L358.68 994.27 L357.68 992.11 L359.31 990.01 L360 986.98 L359.33 983.89 L356.6 981.58 L354.37 977.55 L346.83 973.3 L342.31 971.37 L341.44 971.33 L341.15 970.91 L339.77 969.6 L339.28 968.82 L339.09 967.69 L339.31 966.99 L339.63 966.37 L339.77 965.51 L338.54 962.31 L335.77 960.27 L333.76 959.65 L332.3 959.2 L328.98 958.89 L329.64 957.39 L330.54 956.23 L331.33 954.94 L331.68 953.02 L331.27 947.59 L330.6 945.76 L330.01 943.35 L329.65 942.54 L328.44 940.63 L328 938.97 L328.46 936.97 L327.28 935.06 L327.28 934.33 L328.73 934.53 L329.6 933.42 L329.28 931.77 L327.36 928.16 L327.01 926.44 L326.13 924.53 L324.98 922.98 L323.83 922.35 L322.81 921.98 L321.92 921.13 L320.56 919.34 L320.3 918.8 L320.85 918.03 L320.83 917.34 L320.52 916.71 L319.17 915.14 L318.08 913.11 L317.47 912.21 L316.76 911.83 L315.9 911.58 L315.3 910.97 L314.31 909.58 L312.94 908.68 L309.54 907.14 L306.97 904.96 L294.71 898.4 L292.68 896.87 L291.65 895.98 L291.84 894.97 L291.67 893.11 L291.27 891.52 L291.81 891.02 L291.59 890.34 L292.23 889.66 L292.96 889.62 L293.92 889.85 L294.64 889.4 L295.56 889.09 L295.88 887.82 L295.8 885.73 L294.72 883.86 L293.91 882.67 L294.37 881.72 L292.74 879.89 L293.11 879.08 L292.3 877.66 L292.67 876.98 L291.99 875.43 L290.54 873.59 L290.86 872.91 L291.68 872.15 L290.97 870.51 L290.29 869.23 L290.39 868.19 L289.81 866.59 L288.95 865.18 L287.78 863.63 L286.57 861.81 L286.75 860.54 L284.72 858.93 L283.28 857.6 L283.29 856.42 L283.7 855.69 L282.35 853.83 L282.45 853.24 L280.17 851.1 L278.97 850.22 L278.51 849.27 L278.06 848.4 L277.45 847.71 L275.74 846.18 L270.73 837.54 L270.92 836.64 L269.89 834.68 L268.35 833.48 L266.26 831.72 L266.43 830.45 L265.57 828.67 L264.13 826.75 L262.9 825.2 L262.75 824.43 L263.39 823.67 L263.26 822.76 L262.36 821.9 L259.36 819.96 L259.24 818.41 L259.17 816.29 L257.69 815.06 L257.01 814.32 L256.84 813.05 L256.22 811.37 L256.6 810.42 L255.83 809.29 L255.48 808.2 L253.94 806.46 L250.6 803.4 L249.89 801.77 L249.36 800.95 L249.32 800.13 L250 800 L250.49 799.55 L250.36 798.55 L249.65 797.59 L249.88 797.1 L249.75 796.14 L249.71 795.46 L248.45 793.73 L248.12 791.84 L247.68 790.98 L246.99 789.89 L246.77 789.07 L245.95 788.75 L245.68 788.38 L245.23 788.24 L245.09 787.79 L245.23 787.38 L245.69 786.89 L245.6 786.02 L245.67 785.08 L245.6 784.09 L245.24 782.83 L244.68 782.1 L244.54 780.73 L244.89 779.11 L245.6 778.01 L245.64 775.51 L242.52 772.69 L239.97 769.74 L239.46 767.86 L238.13 766.46 L237.49 765.02 L236.7 764.21 L235.76 762.55 L234.54 761.21 L234.18 758.75 L234.68 756.52 L233.18 755.7 L232.88 754.37 L232.95 753.25 L232.2 752.11 L231.69 750.17 L232.34 749.06 L233.34 748.07 L232.69 746.78 L231.66 746.77 L230.01 745.53 L229.66 743.34 L229.89 742.01 L230.5 741.38 L230.99 740.91 L230.12 740.58 L229.42 739.66 L228.76 739.21 L228.32 738.2 L227.31 737.82 L226.22 737.93 L225.52 738.36 L223.74 736.34 L223.64 735.59 L223.49 734.69 L222.75 734.2 L222.14 733.5 L222.87 732.98 L223.56 732.4 L224.47 732.2 L225.07 730.61 L225.19 729.01 L224.46 727.09 L222.98 726.17 L221.44 725.73 L220.26 726.2 L219.63 726.63 L219.36 727.27 L219.72 727.9 L219.76 728.91 L220.12 730.51 L220.06 731.47 L219.16 731.19 L218.12 729 L216.59 727.23 L215.47 726.05 L215.53 725.2 L215.21 724.77 L215.59 724.4 L216.81 724.84 L218.68 725.39 L219.15 724.75 L219.54 723.8 L219.56 722.18 L218.88 720.26 L218.04 719.08 L216.98 718.12 L215.92 718.06 L214.48 718.26 L213.79 717.72 L213.05 716.44 L213.17 715.11 L213.72 713.78 L214.1 712.99 L213.41 712.29 L211.5 711.58 L211.45 710.73 L212.09 710.9 L212.47 710.37 L212.49 708.61 L212.02 706.59 L211.39 705.36 L210.5 703.7 L209.87 702.52 L208.71 701.13 L207.08 698.87 L203.37 693.93 L203.53 693.19 L203.54 692.44 L204.13 691.76 L205.05 691.13 L205.23 688.84 L204.87 686.98 L205.04 685.76 L204.47 683.68 L203.76 680.6 L201.38 677.28 L198.99 674.2 L195.86 671.25 L194.07 669.91 L191.59 668.94 L190.44 667.99 L189.46 666.79 L189.89 665.78 L190.69 665.9 L191.11 666.12 L192.12 665.38 L192.51 663.74 L192.47 662.09 L187.61 654.9 L187.47 653.15 L185.53 650.53 L185.87 649.37 L183.29 646.42 L174.92 639.17 L174.89 637.2 L170.22 634.06 L161.05 627.12 L156.94 622.49 L154.38 618.75 L153.47 615.45 L149.59 611.06 L148.66 610.18 L147.92 609.35 L148.29 608.77 L149.25 608.46 L150.22 607.57 L150.34 606.03 L149.3 604.12 L146.47 599.58 L140.83 591.79 L138.7 589.23 L138.55 587.32 L138.14 585.83 L138.21 585.06 L139.06 584.14 L139.39 583.09 L138.52 580.75 L137.58 578.67 L137.65 577.19 L136.31 573.51 L133.79 570.75 L130.7 567.6 L129.65 566.47 L130.15 564.79 L130.28 562.72 L128.77 560.8 L120.37 552.37 L116.28 548.3 L115.39 546.64 L111.12 543.02 L110.02 540.52 L109.74 537.97 L108.5 535.37 L106.62 533.02 L105.35 531.67 L96.31 524.49 L92.32 521.95 L82.15 516.04 L69.34 509.54 L48.2 498.94 L43.23 496.58 L38.28 491.79 L32.52 487.81 L25.58 483.81 L18.66 478.48 L16.34 475.5 L14.71 470.84 L14.9 467.67 L14.87 464.2 L14.81 463.46 L16.45 462.09 L16.91 460.55 L17.28 460.03 L19.06 459.93 L19.9 458.1 L19.99 456.84 L20.73 455.81 L22.13 455.91 L23.65 458.3 L25.92 459.37 L28.92 460.51 L31.42 460.9 L34.31 458.03 L37.42 452.41 L38.04 444.99 L36.07 438.9 L32.07 430.17 L29.68 427.49 L22.31 420.33 L20.97 418.66 L19.21 418.2 L18.17 418.55 L16.28 417.19 L14.63 414.6 L12.59 412.28 L10.99 409.87 L11.38 409.09 L11.91 408.43 L12.95 408 L13.56 406.4 L13.28 405.51 L12.62 404.69 L12.71 403.66 L13.83 403.38 L13.48 401.98 L13.13 400.28 L13.81 399.11 L15.06 399.28 L16.47 398.49 L17.78 399.83 L20.14 399.64 L21.34 397.9 L21.67 395.11 L19.96 391.33 L17.35 388.65 L14.87 386.78 L12.99 383.95 L11.7 381.58 L9.02 378.01 L2.69 371.21 L0 367.84 L0.38 366.74 L1.36 366.25 L2.55 365.09 L2.34 363.53 L1.66 361.73 L2.34 357.67 L2.38 356.42 L1.93 355 L1.18 353.38 L0.68 351.85 L1.01 350.66 L1.84 349.93 L2.39 349.53 L2.86 349.08 L3.46 348.19 L4.59 345.49 L4.61 343.69 L3.46 339.24 L3.84 337.68 L4.73 335.8 L5.81 334.08 L6.7 332.99 L13.59 328.29 L15.38 326.46 L16.85 323.84 L17.96 322.61 L19.45 322.08 L20.88 321.75 L21.74 320.87 L22.98 318.29 L27.24 311.87 L29.71 309.28 L32.7 306.94 L35.93 305.12 L37.13 304 L37.6 302.34 L37.81 300.56 L38.35 298.89 L39.76 296.12 L41.88 293.44 L44.72 291.12 L57.25 283.64 L59.51 281.45 L62.85 276.55 L63.33 274.9 L63.97 274.64 L64.76 274.51 L65.46 274.1 L66.69 273.62 L72.18 273.81 L73.7 273.47 L75.32 272.79 L76.61 271.75 L77.14 270.34 L77.36 269.47 L78.41 267.68 L78.75 266.82 L78.78 266.05 L79.32 266.33 L80.61 267 L83.6 267.79 L84.71 268.65 L84.55 270.04 L84.06 271.68 L84.24 273.33 L84.72 273.78 L86.02 274.32 L86.53 274.89 L86.72 275.59 L86.72 276.37 L86.57 277.88 L85.96 280.02 L85.95 280.63 L86.46 281.18 L87.24 281.44 L87.93 281.76 L88.14 282.5 L88.15 283.38 L88.61 284.9 L88.7 285.77 L88.58 286.55 L88.06 288.09 L87.93 288.79 L87.93 289.58 L88.01 290.19 L88.49 291.68 L88.57 292.45 L88.31 293.07 L87.97 293.62 L87.82 294.22 L88.19 295.82 L89.78 298.35 L90.48 299.95 L90.58 300.66 L90.58 302.13 L90.79 302.81 L91.48 303.61 L92.19 304.07 L92.66 304.54 L92.66 304.63 L92.65 305.37 L91.39 306.79 L85.23 309.62 L84.11 311.01 L82.96 312.85 L81.63 314.49 L79.98 315.3 L78.5 315 L75.17 313.21 L73.53 312.69 L71.93 312.6 L70.33 312.71 L68.87 313.14 L67.69 313.98 L66.83 315.26 L65.91 317.18 L65.23 319.17 L65.22 319.23 L65.08 320.69 L65.48 321.67 L66.78 323.47 L67.21 324.48 L67.23 325.23 L66.93 326.73 L66.92 327.47 L68.59 330.98 L71.35 331.27 L74.77 330.26 L78.42 329.8 L77.55 331.56 L67.1 345.46 L66.8 346.81 L67.49 348.47 L68.57 349.43 L72.11 351.45 L73.42 351.92 L74.83 351.88 L75.45 351.82 L76.21 351.14 L79.45 349.4 L85.52 344.73 L86.77 343.39 L87.36 342.13 L88.17 339.36 L88.84 338.24 L89.5 337.71 L90.32 337.31 L91.18 337.01 L94.4 336.59 L94.62 336.51 L95.13 337.37 L96.44 337.78 L98.05 338.08 L99.41 338.57 L100.84 339.79 L103.39 342.58 L104.99 343.7 L107.13 344.88 L109.18 345.12 L111.21 345.15 L113.29 345.67 L115.29 347.52 L116.95 350 L118.92 352.04 L121.85 352.5 L127.16 350.86 L129.88 349.23 L132.74 348.85 L134.92 349.94 L138.91 353.89 L139.53 354.18 L140.66 355.02 L141.14 355.28 L143.05 355.26 L144.65 356.21 L145.09 356.95 L144.9 358.12 L143.08 361.36 L143.02 363.07 L145.33 366.44 L146.23 371.15 L148.3 375.05 L148.32 375.15 L148.56 376.62 L149.13 378.3 L150.49 379.39 L152.12 380.25 L153.5 381.27 L153.92 381.97 L154.44 383.54 L154.86 384.22 L155.55 384.72 L157.09 385.3 L157.79 385.76 L158.83 387.27 L159.67 388.95 L160.78 390.28 L162.59 390.77 L166.27 390.63 L168.2 390.56 L169.58 390.79 L172.23 391.72 L173.61 392.03 L174.41 392 L175.69 391.68 L176.51 391.77 L177.36 392.18 L178.22 392.81 L179.69 394.26 L181.97 392.37 L184.01 390.19 L184.57 388.53 L185.45 384.66 L186.29 383.36 L187.88 382.96 L189.96 382.94 L191.79 382.53 L192.62 380.96 L192.22 379.06 L190.44 375.5 L190.38 373.33 L191.27 371.15 L192.75 369.11 L196.35 365.78 L199.65 363.91 L206.89 361.02 L207.74 360.45 L209.9 359.03 L210.61 357.75 L210.7 356.22 L210.63 354.64 L210.84 353.18 L211.98 351.34 L213.2 349.84 L213.41 348.56 L211.53 347.42 L210.57 345.9 L209.93 342.96 L209.84 339.99 L210.49 338.32 L211.95 337.11 L212.63 335.56 L213.38 332.1 L218.2 322.01 L219.04 318.5 L218.97 313.78 L219.35 312.48 L220.15 311.64 L221.03 311.41 L221.99 311.34 L223.01 311.02 L224.11 310.41 L224.44 310.09 L224.44 309.54 L225.22 303.68 L225.78 302.16 L226.6 300.63 L227.07 300.27 L228.05 299.81 L228.67 299.41 L230.6 297.53 L231.08 296.01 L230.07 290.89 L230.07 289.89 L230.11 289.48 L230.49 289.35 L231.5 289.18 L232.1 288.72 L232.15 287.95 L231.82 286.34 L231.78 283.49 L231.97 281.95 L232.5 280.32 L233.96 277.15 L234.06 276.8 L235.09 273.59 L235.69 270.17 L235.74 269.3 L235.26 267.75 L235.18 267.24 L236.05 265.74 L237.38 265.34 L239.03 265.57 L242.46 266.53 L243.44 267.32 L244.04 268.51 L245.13 273.6 L245.88 275.04 L246.96 274.52 L248.21 273.5 L249.61 273.2 L250.83 272.68 L251.56 271.06 L251.39 268.88 L250.4 267.75 L249.15 266.86 L248.24 265.42 L248.25 263.69 L249.18 262.57 L252.06 260.42 L253.04 259.02 L255.48 254.33 L256.59 253.11 L260.41 249.93 L268.4 239.22 L274.22 234.13 L275.7 233.37 L278.76 232.3 L280.94 231.54 L290.88 228.06 L300.82 224.59 L310.76 221.1 L320.69 217.63 L330.63 214.14 L340.57 210.67 L350.51 207.19 L360.45 203.71 L367.73 201.17 L368.91 200.45 L372.42 198.32 L376.89 194.89 L381.61 191.27 L386.33 187.66 L391.04 184.05 L395.76 180.43 L400.47 176.82 L405.19 173.21 L409.91 169.6 L414.62 165.99 L418.57 161.39 L422.51 156.79 L426.46 152.19 L430.41 147.59 L434.35 142.99 L438.31 138.39 L442.25 133.79 L446.19 129.2 L449.38 125.49 L453.72 121.46 L454.97 119.95 L455.57 119.21 L456.6 116.47 L457.76 111.9 L460.14 102.58 L462.51 93.26 L464.88 83.94 L467.26 74.63 L468.26 70.72 L468.74 70.03 L470.98 72.09 L472.06 73.33 L472.52 74.12 L473.3 74.76 L475.1 74.8 L478.46 74.4 L482.19 74.4 L482.9 74.35 L482.88 73.82 L482.31 73.03 L481.55 72.37 L480.94 71.47 L480.8 70.74 L480.92 69.37 L480.9 68.66 L477.39 56.74 L477.42 55.75 L477.92 54.33 L478.09 53.52 L478.05 52.72 L477.71 51.26 L477.63 50.49 L477.99 49.55 L478.83 48.98 L479.79 48.49 L480.5 47.74 L480.66 47.04 L480.55 46.44 L480.37 45.87 L480.3 45.22 L480.55 42.12 L480.26 40.65 L479.36 39.25 L479.01 39.13 L478.27 39.51 L477.87 39.43 L477.56 39.05 L477.15 38.15 L476.81 37.78 L473.73 35.38 L473.41 34.92 L472.96 34.67 L471.98 34.75 L471.17 34.61 L470.28 34.05 L468.8 32.66 L466.54 29.55 L465.08 26.2 L462.55 17.28 L461.65 16.12 L460.39 15.33 L458.7 14.78 L457.72 14.28 L456.06 12.72 L455.11 12.14 L454.34 12.03 L452.64 12.16 L451.9 12 L451.18 11.17 L450.41 9.63 L450.03 7.88 L450.47 6.51 L451.63 6.13 L453.05 6.5 L454.49 7.08 L455.72 7.32 L457.13 7.17 L458.24 7.19 L459.31 7.44 L464.88 10.44 L466.92 10.63 L469.05 9.22 L469.71 9.16 L472.41 9.55 L473.67 9.48 L474.72 9.13 L475.73 8.63 L477.52 7.37 L478.46 6.16 L479.65 5.74 L480.9 4.78 L481.88 3.61 L482.28 2.6 L482.55 1.07 L483.31 0.26 L484.52 0 L486.11 0.17 L489.66 1.14 L491.33 1.98 L492.83 3.16 L495.94 7.43 L496.85 8.32 L497.52 8.55 L498.91 8.58 L499.65 8.81 L500.14 9.18 L503.37 12.69 L504.43 13.51 L506.12 14.25 L508.82 14.83 L510.13 15.31 L510.92 15.24 L511.81 14.55 L513.78 11.39 L514.72 11.17 L516.38 12.64 L517.5 14.22 L520.2 19.69 L518.02 21.34 L517.4 22.41 L518.8 22.89 L519.62 22.98 L521.17 23.38 L523.14 23.56 L523.64 23.8 L523.97 24.14 L524.51 24.55 L524.92 24.94 L525.16 25.34 L525.63 25.63 L526.72 25.68 L527.12 25.48 L527.62 25.11 L528.28 24.72 L529.13 24.55 L529.89 25.16 L532.12 28.92 L535.45 32.43 L537.5 34.05 L542.3 36.94 L543.24 37.75 L544.28 38.92 L544.97 40.02 L545.39 40.2 L546.47 40.24 L546.86 40.59 L547.03 41.38 L547.12 42.26 L547.12 42.29 L547.28 43 L551.06 51.14 L550.87 51.7 L549.85 52.57 L549.48 53.25 L549.45 54.76 L550 55.91 L552.68 58.88 L553.22 59.24 L553.98 59.47 L555.35 59.51 L555.96 59.78 L555.35 61.04 L555.8 61.97 L556.61 62.8 L557.04 63.79 L556.57 64.67 L555.47 64.67 L554.2 64.45 L553.22 64.63 L552.67 65.56 L553.15 66.28 L555.13 67.6 L555.92 68.66 L557.04 72.23 L558.81 74.55 L560.91 75.7 L565.62 76.55 L570.44 78.39 L572.59 78.33 L573.82 76.02 L574.72 76.85 L576.57 82.36 L576.95 83.03 L577.59 83.56 L578.57 83.97 L579.01 83.85 L579.43 83.44 L580.29 83.03 L580.58 82.69 L580.85 82.18 L581.25 81.97 L581.91 82.53 L582 83.19 L581.26 84.58 L581.37 85.23 L582.45 85.81 L584.92 85.26 L586.22 85.73 L586.68 86.46 L587.89 89.6 L589.32 91.83 L590.09 92.66 L591.18 93.38 L593.29 94.12 L594.55 94.39 L595.5 94.41 L596.82 93.67 L598.09 91.67 L599.28 91.23 L599.94 92.65 L601.04 93.85 L602.54 94.69 L604.38 95 L605.25 95.26 L606.76 96.37 L608.62 96.91 L609.02 97.61 L609.23 98.48 L609.8 99.71 L609.92 100.57 L610.07 100.93 L610.38 101.01 L611.44 100.86 L611.73 100.93 L611.98 101.51 L612.13 102.17 L612.23 103.88 L612.38 104.42 L612.75 105.06 L613.2 105.58 L614.44 106.15 L614.05 106.99 L612.81 108.49 L613.54 109.69 L616.47 111.06 L617.36 112.45 L619.02 113.67 L619.63 114.52 L619.78 115.31 L619.77 116.14 L619.88 117.18 L620.71 120.48 L620.63 121.99 L618.71 123.12 L618.03 124.33 L617.13 126.94 L616.96 130 L618.54 131.96 L623.65 135.09 L623.77 135.38 L624.03 136.44 L624.14 136.71 L624.51 136.78 L625.38 136.67 L626.5 136.8 L627.38 136.76 L628.33 136.89 L629.32 137.52 L631.22 139.24 L632.03 139.36 L632.63 138.49 L633.9 137.25 L635.12 137.1 L637.77 137.78 L638.27 137.52 L638.59 135.42 L639.4 135.42 L641.51 137.79 L642.27 138.34 L643.01 138.66 L643.67 139.08 L644.2 139.95 L643.62 142.89 L644.04 143.99 L645.91 146.19 L646.36 147.51 L646.19 148.24 L645.4 150.22 L645.29 151.33 L645.59 152.58 L646.12 153.61 L647.5 155.65 L648.03 157.13 L648.46 158.94 L649.08 160.6 L650.15 161.6 L647.82 165.43 L647.07 167.15 L644.2 169.74 L643.49 170.6 L643.23 171.12 L643.13 171.91 L643.29 172.68 L644.04 173.89 L644.2 174.36 L644.45 174.75 L645.53 175.58 L645.78 176 L646.17 178.36 L646.36 178.97 L647.66 179.84 L651.11 180.7 L651.81 181.41 L652.3 183.09 L653.34 182.15 L654.27 180.36 L654.46 179.51 L659.91 182.5 L660.16 182.95 L661.31 183.96 L662.66 187.61 L663.41 188.93 L664.03 189.43 L664.76 189.43 L668.11 188.76 L669.2 188.36 L670.14 187.46 L672.4 186.65 L674.36 185.67 L675.68 186.13 L677.76 187.61 L677.97 186.64 L678.35 185.9 L678.99 185.33 L679.97 184.86 L680.36 185.43 L680.69 186.12 L680.92 186.93 L681.18 189 L681.65 189.18 L682.96 188.74 L683.96 187.81 L686.04 183.49 L687.03 182.21 L688.48 182.44 L689.87 183.19 L693.46 186.09 L694.95 186.56 L703.05 187.84 L703.76 188.45 L704.17 189.41 L705.21 190.37 L706.61 191.11 L708.08 191.44 L709.85 191.3 L713.01 190.46 L714.85 190.27 L715.52 190.05 L715.75 189.5 L715.68 187.88 L716.09 187.55 L718.12 187.14 L718.91 187.07 L724.01 188.25 L725.19 187.88 L728.68 183.88 L730.89 181.97 L733.09 181.1 L735.67 181.07 L740.62 181.77 L742.01 181.43 L742.98 180.46 L743.35 178.7 L743.93 178.09 L747.66 175.19 L750.51 170.83 L750.9 170.01 L751.7 169.95 L756.29 167.04 L758.02 166.26 L758.62 166.68 L758.5 169.47 L759.18 170.81 L760.71 170.57 L763.36 169.2 L765.23 169.54 L766.78 170.47 L768.25 171.6 L769.89 172.49 L774.44 173.43 L775.33 174.11 L775.71 175.59 L775.81 178.9 L776.36 180.11 L777.62 180.71 L778.23 179.78 L779.01 176.81 L780.1 175.68 L780.91 175.97 L782.29 178.43 L784.17 180.81 L784.45 181.63 L784.24 182.3 L783.15 183.28 L782.83 183.88 L783.73 185.53 L786.4 184.97 L792.05 182.21 L792.67 183.3 L794.14 182.95 L795.79 182.08 L796.96 181.63 L797.82 181.82 L798.77 182.53 L799.61 182.8 L800.46 182.62 L801.95 181.46 L804.19 180.33 L805.7 176.58 L807.5 175.73 L809.7 175.35 L810.73 175.37 L812.72 176.57 L813.71 176.78 L814.64 176.67 L815.36 176.27 L814.63 174.26 L814.46 172.46 L815.29 171.35 L817.56 171.41 L820.91 172.83 L822.89 173.21 L824.53 172.49 L826.93 173.95 L831.02 178.32 L833.75 180.11 L836.66 181.14 L838.13 181.5 L840.17 181.76 L840.58 182.15 L840.77 182.77 L840.77 185.07 L841.07 185.22 L843.56 187.29 L844.05 188.15 L844.15 188.95 L844.15 190.05 L844.29 191.02 L844.84 191.44 L848.09 191.44 L848.71 191.12 L848.77 190.37 L848.71 189.47 L848.91 188.74 L850.29 187.86 L851.32 188.52 L852.3 189.65 L853.52 190.27 L854.85 190.44 L856.34 190.9 L857.73 191.58 L858.72 192.43 L859.18 193.28 L859.46 194.09 L859.9 194.76 L860.83 195.22 L861.65 195.16 L863.51 194.35 L864.38 194.14 L866.08 194.13 L867.76 194.31 L868.76 195.07 L868.38 196.79 L868 197.05 L866.65 197.55 L866.27 197.92 L866.32 198.59 L866.7 199.32 L867.2 199.9 L867.6 200.14 L869.53 199.61 L871.11 198.65 L872.63 198.14 L874.37 199 L875.36 200.46 L876.47 203.82 L877.36 205.24 L878.82 205.79 L880.14 205.18 L881.48 204.8 L883.05 206.02 L883.28 206.82 L883.25 207.62 L883.39 208.31 L884.12 208.73 L884.81 208.55 L885.23 207.89 L885.59 207.04 L886.04 206.32 L887.65 205.25 L888.51 205.83 L889.53 209.31 L890.03 210.48 L890.68 211.44 L891.59 212.15 L892.03 212.29 L892.01 212.36 L890.24 215.17 L884.04 224.86 L877.84 234.53 L871.65 244.22 L865.44 253.91 L859.24 263.6 L853.04 273.29 L846.85 282.97 L840.65 292.67 L838 296.82 L841.43 297.19 L852.16 302.82 L853 303.41 L857.22 304.45 L859.33 304.48 L861.36 303.6 L864.47 300.76 L866.17 299.73 L868.39 299.49 L871.43 300.56 L874.4 302.72 L876.98 305.44 L878.87 308.14 L879.85 310.92 L880.29 313.76 L881.13 316.37 L883.24 318.49 L891.23 322.57 L893.6 324.51 L895.21 326.37 L896.59 328.41 L898.79 332.82 L898.97 335.02 L898.24 337.14 L896.85 339.01 L894.21 340.94 L893.09 341.09 L891.99 340.8 L891.01 340.11 L890.04 339.13 L889.61 338.55 L889.24 336.58 L888.38 335.14 L886.81 334.55 L885.04 334.72 L883.59 335.49 L882.56 336.94 L881.27 339.94 L879.76 341.26 L878.89 340.14 L878.26 338.89 L877.73 338.14 L877.11 338 L876.42 338.02 L875.66 337.79 L871.75 334.7 L870.99 333.65 L870.85 332.22 L871.57 329.23 L871.43 327.62 L870.83 326.46 L869.89 325.42 L868.9 325.13 L867.45 327.41 L866.48 327.12 L864.51 325.36 L863.19 324.83 L862.04 324.71 L860.91 324.96 L859.66 325.54 L856.43 328.13 L855.24 328.53 L854.41 328.03 L854.18 326.86 L853.8 325.71 L852.57 325.23 L851.31 325.87 L850.78 327.22 L850.45 328.65 L849.76 329.49 L846.03 327.3 L845.98 326.11 L846.26 324.65 L846.14 323.51 L844.9 323.24 L843.63 323.76 L842.9 324.65 L842.03 327.06 L841.16 327.73 L839.74 327.7 L834.83 326.37 L834.01 326.46 L830.24 328.3 L829.22 329.22 L828.97 330.28 L829.65 332.2 L829.41 332.95 L828.19 333.36 L826.97 333.95 L826.38 335.13 L825.95 336.55 L825.17 337.84 L822.81 340.15 L821.82 341.43 L821.09 342.94 L819.46 344.61 L817.8 343.1 L816.55 341.62 L816.2 343.39 L814.67 344.66 L810.54 342.93 L808.6 343.7 L807.54 345.49 L806.83 345.92 L805.6 345.72 L804.93 345.12 L804.09 343.33 L803.57 342.83 L802.27 343.57 L801.12 345.43 L800.07 346.64 L797.89 344.2 L796.06 343.84 L794.19 344.25 L792.91 345.38 L792.7 346.32 L792.87 347.1 L792.85 347.92 L792.08 348.95 L791.82 348.9 L791.37 348.68 L790.84 348.56 L790.35 348.82 L789.65 349.75 L789.36 350.02 L788.28 350.47 L787.65 350 L787.14 349.16 L786.4 348.55 L785.31 348.42 L781.66 348.97 L779.25 349 L778.07 349.17 L776.98 349.63 L776.45 350.31 L775.96 352.05 L775.53 352.53 L774.91 352.49 L772.92 352.07 L771.81 352.18 L768.21 353.73 L768.51 352.06 L767.71 352.3 L766.1 353.89 L765.1 354.24 L764.41 354.31 L763.79 353.99 L762.98 353.19 L761.72 352.25 L760.9 352.5 L760 353.13 L758.49 353.36 L757.6 353.08 L755.79 352.24 L754.96 352.16 L754.31 352.49 L754.1 353 L754 353.54 L753.71 353.9 L753.16 354.06 L746.64 354.79 L745.29 355.17 L743.24 356.62 L739.51 360.23 L737.18 360.97 L735.89 362.08 L735.15 362.57 L734.51 362.73 L733.72 362.44 L733 362.08 L732.33 362.04 L731.73 362.7 L730.32 365.58 L729.42 366.73 L727.91 367.98 L723.54 370.41 L719.53 373.4 L718.11 374.23 L716.67 374.71 L715.64 374.75 L712.68 374.33 L711.72 374.58 L711.33 375.1 L711.13 375.69 L710.71 376.11 L707.44 377.01 L706.59 377.94 L706.02 382.27 L705.18 383.55 L703.88 384.46 L702.18 385.36 L701.76 385.46 L700.67 385.48 L700.3 385.62 L700.06 386.06 L700.02 386.55 L700.04 386.98 L699.97 387.28 L699.55 388.01 L699.31 388.69 L698.82 389.15 L697.67 389.19 L696.19 389.41 L694.77 390.04 L693.52 391 L691.59 393.09 L689.4 394.13 L688.38 395.14 L688.04 395.99 L687.97 396.75 L687.76 397.47 L687 398.16 L686.25 398.37 L682 398.37 L680.36 397.9 L678.87 397.73 L677.88 398.49 L676.87 399.79 L675.5 400.4 L672.27 401.02 L671.86 400.99 L670.86 400.66 L670.46 400.7 L670.22 401.1 L670.17 402.25 L670.07 402.57 L668.97 403.16 L668.35 403.3 L667.32 403.34 L665.41 403.84 L665.09 405.01 L665.64 406.4 L666.38 407.57 L666.8 408.8 L667.23 413.65 L667.09 414.91 L666.4 416.03 L665.54 417.09 L664.93 418.24 L664.42 421.64 L664.08 422.89 L661.75 427.78 L661.02 430.35 L661.36 432.98 L662.06 435.52 L662.05 437.74 L660.75 445.09 L659.94 447.42 L658.82 449.62 L650.57 460.6 L647.86 463.1 L643.35 473.15 L641.63 475.95 L640.37 478.92 L640.33 482.58 L641.06 484.51 L644.88 488.84 L645.33 490.21 L646.16 496.58 L646.62 498.41 L648.35 502.01 L648.89 503.86 L648.88 505.59 L648.51 507.36 L647.24 510.61 L645.37 513.89 L643.2 516.14 L640.46 517.6 L636.91 518.53 L631.33 518.59 L629.63 519.18 L626.81 521.7 L623.72 523.61 L618.36 528.24 L611.99 531.92 L608.02 535.1 L605.82 536.43 L604.78 537.32 L603.84 539.34 L603.07 540.32 L599.76 542.39 L598.91 543.34 L598.43 544.67 L598.25 549.05 L596.31 556.28 L595.18 558.53 L594.72 560.49 L595.16 561.68 L595.42 562.37 L600.87 570.22 L601.66 573.61 L602.33 575.11 L602.57 576.56 L601.65 578.17 L600.34 578.94 L598.8 579.17 L595.68 579.03 L593.66 579.17 L592.27 579.63 L589.4 581.37 L587.64 582.04 L586.18 581.94 L582.97 580.69 L581.24 580.69 L581.52 582.13 L583.8 586.01 L584.29 588.05 L583.85 589.36 L583.23 590.57 L583.16 592.29 L582.15 594.04 L581.12 594.48 L578.43 595.6 L579.13 597 L582.31 598.88 L592.63 609.72 L594.82 611.21 L597.31 612.3 L600.26 613.19 L602.64 615.11 L603.4 618.27 L602.52 621.34 L599.96 622.95 L597.31 621.99 L596.12 621.97 L596.03 623.41 L596.89 627.25 L597.37 628.35 L599.77 630.17 L603.13 631.52 L606.13 633.11 L607.42 635.68 L607.97 637.47 L610.57 641 L611.42 642.88 L611.46 644.42 L611.02 647.4 L611.25 648.9 L612.25 650.75 L614.53 653.78 L615.24 655.89 L615.64 659.17 L616.18 660.68 L617.31 661.75 L623.58 665.24 L624.42 665.96 L625.71 667.64 L626.5 668.38 L627.27 668.7 L628.94 668.9 L629.64 669.16 L630.76 670.32 L631.32 671.79 L631.4 673.41 L630.66 676.97 L630.71 678.48 L631.22 679.8 L634.57 684.19 L636.02 685.57 L637.65 686.46 L642.25 687.44 L643.75 688.23 L645.13 689.58 L646 691.09 L647.4 694.5 L653.5 703.42 L654.67 704.4 L657.6 706.35 L658.63 707.45 L660.81 710.75 L661.29 712.08 L662.13 718.77 L661.79 721.17 L661.14 722.68 L660.32 723.7 L656.72 726.58 L656.67 728.78 L656.21 729.74 L655.14 730.36 L653.85 730.71 L652.73 730.88 L651.79 731.47 L650.93 732.73 L649.63 735.29 L647.79 737.76 L643.63 741.99 L641.93 744.67 L673.68 744.82 L683.29 746.76 L683.68 746.95 L684.37 747.55 L684.82 747.68 L685.18 747.58 L685.81 747.14 L686.11 747.07 L687.65 747.38 L690.85 748.39 L694.14 750.03 L695.62 750.48 L699.17 750.87 L703.95 750.53 L705.59 750.86 L707.11 751.67 L709.31 753.61 L710.72 754.59 L711.52 754.68 L712.43 754.53 L713.24 754.56 L713.71 755.24 L713.8 756.01 L713.7 758.37 L713.92 760.04 L714.65 761.37 L716.8 763.94 L717.28 765.38 L717 766.91 L716.06 769.93 L716.99 772.97 L722.56 776.47 L724.21 779.68 L724.43 780.57 L725.08 782.2 L725.28 783.04 L725.1 784.03 L723.86 785.53 L723.42 786.35 L723.29 788.01 L723.45 789.41 L723.36 790.82 L722.49 792.5 L726.73 792.51 L740.83 792.52 L754.92 792.54 L769.01 792.57 L783.11 792.59 L786.05 792.6 L787.48 792.23 L788.25 791.61 L788.57 791 L789 790.55 L790.14 790.43 L790.99 790.72 L791.56 791.21 L792.21 791.59 L793.3 791.52 L794.83 790.72 L797.61 788.53 L801.46 787.23 L802.51 785.68 L803.24 783.81 L804.26 782.07 L805.58 781.06 L810.86 778.72 L815.77 777.41 L817.21 776.29 L817.81 775.37 L818.75 773.34 L819.43 772.39 L820.35 771.62 L822.39 770.37 L823.29 769.6 L825.55 766.27 L826.83 764.82 L830.8 762.67 L832.37 761.41 L835.34 758.36 L836.96 757.13 L842.21 754.18 L843.69 752.69 L846.45 749.28 L848.09 747.86 L849.63 747.11 L851.21 746.77 L854.52 746.42 L854.62 747.47 L854.5 747.69 L853.68 749.11 L853.47 750.43 L853.08 751.43 L851.6 752.1 L851.77 752.35 L851.98 752.97 L852.14 753.24 L851.14 753.5 L850.48 754.29 L850.33 755.31 L851.4 757.2 L850.66 757.39 L849.59 757.22 L849.18 757.07 L847.08 757.12 L846.67 757.23 L847.44 758.7 L848.02 761.32 L848.53 762.8 L849.42 764 L851.74 765.85 L852.66 767 L853.19 768.65 L853.07 770.15 L852.45 771.52 L851.49 772.86 L851.23 773.36 L851.04 774.33 L850.64 774.8 L850.21 774.86 L849.38 774.33 L848.97 774.33 L848.17 774.81 L847.4 775.39 L846.76 776.09 L846.3 776.94 L845.56 780.16 L845.55 784.96 L845.54 788.51 L845.53 795.17 L845.5 805.39 L845.48 815.62 L845.45 825.85 L845.42 836.07 L845.4 846.31 L845.37 856.55 L845.35 866.78 L845.33 873.3 L852.11 867.82 L853.8 867.45 L855.93 869.31 L859.46 873.55 L861.46 875.39 L865.09 877.18 L869.06 877.84 L873.14 877.64 L877.09 876.87 L880.31 875.75 L899.48 865.94 L902.8 866.1 L904.3 866.54 L905.84 866.63 L909.05 866.42 L911.16 866.57 L912.53 867.14 L915.5 869.07 L918.13 869.6 L927.93 868.56 L929.4 868.59 L929.68 869.09 L929.96 869.58 L930.25 870.07 L930.53 870.57 L930.81 871.07 L931.1 871.58 L931.38 872.08 L931.66 872.57 L939.91 887.14 L948.15 901.73 L956.4 916.34 L964.65 930.95 L972.89 945.57 L981.14 960.2 L989.39 974.84 L997.63 989.49 L999.59 992.98 L1000 993.72 L999.2 994.07 L998.74 994.81 L998.26 996.43 L997.61 997.66 L996.7 998.86 L995.57 999.88 L993.21 1001.16 L992.13 1002.08 L991.37 1003.25 L991.28 1004.57 L992.01 1005.33 L994.57 1006.05 L995.36 1006.94 L993.53 1010.57 L992.93 1011.29 L986.41 1013.07 L984.8 1014.17 L983.58 1015.85 L982.58 1018.14 L980.85 1017.89 L979.89 1019.41 L979.04 1021.37 L976.55 1023.32 L976.11 1025.15 L976.13 1028.63 L977.11 1036.61 L977.25 1037.77 L976.65 1047.38 L976.86 1050.66 L977.99 1057.05 L977.07 1072.91 L977.36 1074.74 L976.88 1076.76 L976.18 1078.71 L975.5 1079.75 L973.83 1081.58 L973.21 1082.51 L973.03 1083.63 L973.18 1084.65 L973.16 1085.6 L972.47 1086.49 L971.57 1086.66 L969.16 1086.22 L968.12 1086.32 L967.02 1088.17 L968.64 1090.52 L972.91 1094 L973.78 1095.21 L973.78 1096.14 L973.4 1097.1 L973.13 1098.41 L973.22 1099.52 L974.24 1102.64 L975.6 1104.71 L975.9 1107.47 L975.91 1110.43 L976.39 1113.05 L977.44 1114.54 L981.67 1117.34 L982.49 1118.51 L982.95 1119.77 L983.45 1122.58 L985.41 1128.03 L985.76 1130.89 L984.24 1132.54 L978.89 1133.23 L976.24 1133.91 L974.24 1135.35 L973.81 1136.75 L973.68 1138.33 L973.77 1141.48 L974.39 1142.94 L975.47 1144.57 L975.82 1146.2 L974.24 1147.68 L969.11 1150.56 L967.57 1151.7 L964.45 1155.32 L963.89 1155.6 L962.54 1155.96 L962.06 1156.33 L961.81 1157.74 L962.05 1161.5 L961.58 1162.41 L959.85 1162.36 L958.06 1161.98 L956.5 1162.14 L955.49 1163.73 L954.99 1174.2 L953.9 1176.55 L952.64 1177.29 L948.25 1178.52 L946.48 1179.6 L945.76 1180.71 L945.65 1182.11 L945.98 1188.8 L945.82 1189.44 L944.52 1192.51 L944.17 1194.03 L944.67 1195.45 L946.37 1197.05 L947.69 1198.29 L952.24 1205.29 L953.53 1206.61 L958.24 1210.14 L959.52 1211.39 L961.47 1214.2 L963.34 1216.04 L963.16 1217.54 L961.92 1218.55 L960.05 1218.42 L958.52 1218.52 L957.45 1221.68 L954.82 1222.6 L953.3 1223.98 L952.04 1225.67 L951.58 1226.99 L952.49 1229.43 L952.45 1230.14 L951.9 1230.51 L949.74 1231.24 L948.94 1231.68 L947.91 1233.16 L947.5 1234.77 L947.3 1236.41 L946.88 1238.02 L941.76 1245.81 L941.06 1248.26 L941.51 1250.72 L942.47 1253.14 L945.84 1261.61 L949.19 1270.08 L952.56 1278.55 L955.91 1287.03 L957.69 1291.52 L960.44 1295 L961.91 1296.26 L963.61 1297.34 L965.5 1297.97 L967.52 1297.97 L968.42 1297.59 L969.95 1296.4 L970.81 1296.09 L971.67 1296.17 L974.24 1296.98 L976.47 1296.23 L978.25 1297.33 L981.47 1300.89 L985.58 1302.56 L987.4 1303.8 L988.21 1306.02 L986.44 1308.84 L977.55 1312.4 L974.91 1313.75 L972.84 1316.34 L972.14 1317.77 L971.97 1319.44 L972.07 1324.26 L971.88 1326.82 L972.27 1328.19 L974.39 1331.18 L973.43 1332.44 L972.12 1334.15 L970.79 1335.15 L966.19 1337.56 L964.73 1337.91 L961.9 1338.19 L960.63 1338.98 L959.9 1340.16 L958.4 1344.62 L957.31 1346.37 L949.29 1354.95 L947.19 1359.54 L946.25 1360.65 L942.87 1362.67 L942.36 1363.22 L942.13 1364.02 L942.38 1364.5 L942.96 1364.76 L943.33 1365.28 L942.96 1366.59 L941.27 1368.56 L939.15 1369.36 L936.89 1369.79 L934.73 1370.65 L932.29 1372.31 L928.02 1376.24 L927.54 1376.39 L926.18 1376.61 L925.83 1376.72 L924.95 1378.52 L923.72 1383.11 L922.37 1385.23 L922.54 1385.25 L926.6 1385.79 L927.84 1386.23 L931.03 1388.8 L932.6 1390.43 L933.74 1391.92 L934.63 1394.36 L934.87 1397.29 L934.73 1403.21 Z M406.4 1136.77 L406.9 1137.7 L407.14 1138.38 L407.95 1138.81 L407.64 1139.37 L406.71 1139.18 L405.47 1138.25 L404.42 1137.69 L404.42 1136.76 L405.04 1136.46 Z M386.77 1101.51 L387.32 1101.75 L387.32 1102.61 L386.94 1103.41 L386.21 1103.59 L385.35 1103.59 L384.67 1103.41 L384.87 1102.42 L385.55 1101.75 L385.73 1100.89 L386.58 1100.95 Z M324.41 958.37 L327.48 961.16 L328.15 961.92 L328.45 962.45 L327.63 962.22 L326.65 962.36 L325.6 961.61 L324.1 960.62 L323.2 959.34 L322.75 958.21 L323.51 957.84 Z M39.09 503.09 L38.64 503.67 L38.1 504.99 L38.53 506.1 L39.18 506.85 L39.24 507.81 L39.15 509.13 L39.36 510.54 L38.47 510.67 L37.44 510.58 L37.15 509.84 L37.46 509.04 L37.18 507.78 L36.53 507.18 L37.12 506.53 L37.36 505.35 L38.28 502.56 Z "/>
</g>
</svg>
