<svg xmlns="http://www.w3.org/2000/svg" viewBox="0 0 1000 212.01">
<g fill="#ccc" stroke="#333" stroke-width="0.5" stroke-linejoin="round">
<path fill-rule="evenodd" d="M105.9 210.39 L107.55 209.66 L109.11 209.66 L110.47 210.33 L111.6 211.65 L109.98 212.01 L108.41 211.95 L107.01 211.41 Z M998.64 135.91 L996.81 136.38 L998.58 135.81 L998.75 135.81 L999.58 135.93 L999.86 136.44 L1000 137.38 L999.88 136.68 L999.58 136.29 L998.77 135.9 Z M405.5 73.33 L409.94 75.23 L412.09 80.93 L412.2 86.94 L410.54 89.75 L407.1 87.36 L403.49 82.05 L402.15 76.44 Z M1.31 0 L1.96 0 L1.84 0.63 L1.02 1.53 L0.37 1.88 L0 0.95 L0.37 0.51 L0.84 0.54 Z "/>
</g>
</svg>
