<svg xmlns="http://www.w3.org/2000/svg" viewBox="0 0 1000 947.43">
<g fill="#ccc" stroke="#333" stroke-width="0.5" stroke-linejoin="round">
<path fill-rule="evenodd" d="M470.02 868.49 L470.45 865.93 L470.16 862.75 L468.72 856.19 L468.28 854.79 L467.1 852.1 L466.64 850.62 L465.97 845.32 L465.56 844.12 L464.06 843 L462.5 843.27 L460.95 843.95 L459.49 844.07 L458.23 843.31 L456.27 840.99 L454.97 839.92 L453.55 839.49 L450.48 839.22 L449.14 838.29 L448.52 837.13 L447.52 832.64 L445.16 827.78 L443.43 823.09 L443.39 818.94 L446.13 815.75 L443.48 814.31 L443.05 812.42 L443.3 810.04 L442.68 807.23 L441.2 806.33 L437.27 808.86 L434.95 808.86 L427.53 804.76 L423.68 803.38 L419.65 803.87 L419.87 803.87 L420.04 803.96 L420.18 804.14 L420.29 804.4 L417.5 806.85 L416.05 807.13 L414.07 805.51 L413.52 804.46 L412.82 802.06 L412.4 801.21 L411.21 800.32 L408.87 799.84 L407.7 799.31 L404.55 796.59 L403.03 795.75 L396.66 794.53 L395.36 793.03 L396.01 790.16 L390.18 786.34 L388.77 785.98 L387.11 785.57 L387.55 789.09 L388.08 789.31 L388.87 789.06 L389.73 789.09 L390.43 790.16 L390.6 791.71 L390.1 792.39 L386.85 793.36 L382.85 793.48 L381.03 793.96 L378.09 796.59 L374.46 797.69 L370.83 796.92 L364.36 790.47 L363.24 788.92 L362.45 787.06 L361.9 785.14 L361.22 783.42 L360.11 782.1 L359.17 781.16 L358.86 780.27 L359.18 779.41 L360.11 778.62 L360.15 778.5 L360.17 778.38 L360.15 778.24 L360.11 778.09 L358.71 777.79 L356 776.44 L354.69 776.08 L353.62 776.33 L352.78 776.82 L351.77 777.01 L350.21 776.3 L345.36 770.15 L345.15 769.01 L345.89 767.44 L346.98 766.89 L351.8 766.7 L354.46 765.65 L358.71 763.1 L360.73 761.35 L361.67 758.98 L360.11 756.1 L359.06 755.05 L358.83 753.48 L359.03 752.05 L360.11 749.13 L360.34 748.63 L360.41 748.17 L360.36 747.75 L360.11 747.39 L358.28 744.9 L357.72 744.38 L356.03 743.75 L355.38 744.17 L355.12 745.24 L354.56 746.51 L351.6 750.62 L349.89 752.02 L347.58 752.63 L338.66 751.05 L333.9 751.48 L330.97 755.05 L330.46 755.4 L329.93 755.51 L329.39 755.39 L328.89 755.05 L327.96 752.15 L325.78 750.38 L323.57 750.55 L322.49 753.4 L321.16 752.4 L320.47 750.79 L320.27 748.81 L320.4 746.78 L319.94 746.38 L319.53 745.93 L319.18 745.41 L318.9 744.82 L320.74 744.07 L318.68 743.19 L313.99 743.33 L311.62 742.64 L308.1 740.41 L307.12 739.35 L306.52 737.99 L305.9 735.97 L305.56 734.27 L305.78 733.83 L304.62 733.48 L301.57 734.11 L300.2 734.09 L298.92 733.41 L296.6 731.45 L295.51 730.78 L285.25 727.9 L282.94 728.18 L281.47 727.29 L278.65 725.59 L276.37 725.3 L273.66 726.95 L273.67 729.14 L276.87 733.87 L278 736.74 L278.74 740.07 L279.72 743.1 L281.59 745.03 L284.03 746.46 L285.84 748.46 L286.89 751.26 L287.04 755.05 L288.34 756.77 L288.53 758.83 L287.89 760.16 L286.69 759.7 L285.62 758.11 L285.16 757.16 L284.56 756.75 L283.1 756.73 L282.82 757.15 L282.84 759.04 L282.59 759.61 L281.69 759.68 L279.85 759.02 L278.97 759.05 L277.77 759.88 L276.11 762.19 L275.17 763.03 L274.06 763.31 L272.84 763.63 L270.84 763.49 L268.86 763.78 L266.62 765.7 L264.83 768.42 L263.75 770.53 L262.53 772.26 L260.31 773.87 L257.24 778.08 L253.18 778.38 L248.99 776.2 L245.56 773.02 L243.81 770.72 L242.87 768.77 L241.73 763.46 L240.65 760.51 L237.63 757.35 L236.36 755.05 L234.91 753.08 L232.38 748.45 L230.94 746.42 L228.72 744.86 L224.28 743.23 L222.5 740.87 L222.25 739.5 L222.33 738.08 L222.26 736.62 L221.56 735.17 L220.61 734.87 L216.06 734.87 L214.89 735.25 L214.18 735.87 L213.45 736.03 L212.17 735 L211.69 734.09 L210.4 730.05 L207.17 729.48 L206.23 726.68 L207.01 724.19 L209 724.65 L208.82 724.17 L208.33 722.43 L208.94 722.37 L209.86 721.79 L210.4 721.57 L211.94 720.28 L213.69 719.24 L215.19 717.95 L215.96 715.92 L217.53 715.41 L220.73 716.3 L222.44 715.92 L223.38 714.6 L225.43 712.56 L226.29 711.36 L226.01 711.45 L226 710.53 L226.14 709.32 L226.29 708.52 L226.72 707.61 L227 707.18 L227 706.66 L226.62 705.47 L229.76 704.18 L228.85 701.18 L220.35 692.15 L217.28 690.41 L214.02 689.57 L210.4 689.5 L209.11 689.78 L208.38 691.36 L207.66 693.36 L206.44 694.9 L204.76 695.29 L203.25 694.58 L200.09 692.15 L195.88 691.72 L189.69 697.73 L185.45 698.51 L185.24 698.04 L185.17 697.54 L185.26 697.04 L185.45 696.53 L186.88 695.36 L187.11 693.49 L186.57 691.31 L185.7 689.18 L184.4 686.71 L183.06 685.41 L181.41 685.17 L175.5 687.4 L172.73 687.48 L172.09 687.25 L167.05 678.65 L166.73 677.69 L166.51 676.61 L164.04 676.37 L155.74 678.39 L154.69 678.05 L153.96 677.33 L152.64 675.31 L151.5 674.55 L131.53 667.53 L127.38 667.88 L126.45 669.04 L125.5 670.72 L124.39 671.89 L124.23 671.84 L122.98 671.44 L122.34 670.13 L122.42 668.63 L122.7 667.05 L122.67 665.52 L121.47 662.55 L119.96 661.29 L118.15 660.49 L116.16 658.89 L115.1 657.18 L113.92 654.56 L113 651.77 L112.7 649.52 L113.4 646.61 L114.26 644.95 L114.37 643.42 L112.77 640.82 L110.11 639.5 L104.42 639.41 L103.48 637.08 L103.02 634.67 L101.85 634.08 L100.57 634.99 L99.67 637.06 L99.67 637.08 L99.34 638.69 L98.21 638.92 L96.81 638.23 L95.63 637.06 L94.79 635.5 L89.73 634.38 L87.84 632.63 L87.56 633.94 L87.09 634.67 L85.65 635.73 L85.08 635.85 L84.51 636.12 L84.01 636.54 L83.56 637.08 L83.54 637.08 L83.97 638.87 L85.59 640.16 L87.1 642.38 L87.22 646.98 L86.91 647.78 L85.93 648.89 L85.65 649.43 L85.56 650.32 L85.62 650.92 L85.73 651.37 L85.86 656.87 L85.65 658.23 L74.25 657.39 L70.64 658.4 L68.52 658.33 L68.53 655.39 L69.94 653.05 L73.49 649.09 L78.52 637.08 L82.98 625.75 L83.28 623.93 L83.3 620.87 L83.47 619.31 L84.01 618.21 L84.78 617.47 L85.44 616.41 L85.65 614.37 L85.76 610.35 L86.58 605.88 L87.93 601.64 L89.64 598.27 L89.23 597.82 L88.87 597.33 L89.38 592.7 L87.93 589.57 L85.67 586.9 L83.82 583.65 L83.54 582.54 L83.11 579.68 L83.11 579.53 L82.51 572.75 L82.14 568.53 L82.99 566.53 L81.96 564.33 L80.11 562.38 L78.55 561.16 L76.29 560.07 L71.61 558.68 L69.33 557.37 L69.33 557.35 L67.23 555.85 L60.71 553.65 L58.5 551.33 L58.17 549.64 L57.95 548.49 L58.77 545.37 L60.71 542.28 L61.88 539.07 L61.72 534.83 L60.74 530.75 L59.45 527.97 L54.6 523.92 L52.35 521.28 L51.32 517.18 L50.93 512.93 L49.55 511.07 L47.74 509.81 L46.1 507.3 L45.8 503.88 L47.11 501.08 L52.84 495.23 L54.67 492.76 L56.21 489.84 L57.05 486.68 L57.41 476.79 L57.94 475.21 L60.1 471.29 L60.52 469.75 L60.71 468.27 L61.03 466.81 L61.79 465.43 L63.63 463.14 L57.14 458.26 L56.14 455.93 L56.75 451.71 L57.82 448.75 L58.2 446.42 L56.76 444.16 L56.76 443.15 L58.71 440.56 L58.74 437.23 L57.19 434.37 L54.39 433.14 L51.56 432.48 L48.17 430.73 L45.93 428.21 L46.53 425.24 L44.44 420.49 L42.07 413.36 L41.51 406.86 L46.68 402.29 L49.09 398.44 L50.74 394.59 L50.28 392.84 L48.42 391.14 L49.19 387.33 L51.99 381.44 L48.88 378.87 L48.31 378.23 L42.52 371.7 L36.55 369.32 L33.68 365.38 L31.78 364.49 L30.74 363.49 L27.33 356.73 L25.78 354.91 L15.17 347.06 L12.45 345.6 L9.19 341.73 L7.19 340.85 L4.97 340.69 L2.88 340.03 L1.15 338.66 L0 336.34 L2.65 334.03 L3.68 332.02 L4.1 328.9 L3.87 326.83 L2.65 320.95 L2.05 319.29 L2.05 318.26 L6.88 314.66 L12.96 311.47 L18.84 306.77 L21.9 303.54 L23.24 300.55 L23.52 299.15 L26.51 289.74 L26.3 287.34 L25.71 284.98 L25.35 282.27 L25.62 280.06 L26.34 278.02 L27.33 276.54 L28.38 275.97 L29.11 274.87 L31.71 269.72 L30.41 268.52 L30.02 267.59 L28.49 266.29 L27.88 265.23 L27.57 263.59 L27.51 260.56 L27.36 259.14 L26.68 256 L24.59 246.25 L23.55 237.58 L21.46 234.04 L20.41 230.54 L17.99 226.78 L17.27 223.31 L17.2 219.59 L17.46 213.44 L17.28 211.78 L15.18 205.24 L13.68 201.95 L14.09 199.33 L13.97 194.59 L13.97 194.57 L14.95 194.46 L16.74 193.68 L18.06 192.45 L18.19 191.08 L16.43 189.85 L17.41 189.27 L17.73 188.69 L17.41 188.11 L16.43 187.54 L17 186.29 L17.98 187.17 L19.37 187.87 L20.61 188.8 L21.77 192.05 L23.18 193.14 L25.91 194.46 L27.91 196.62 L29.01 197.54 L33.41 198.29 L38.77 200.22 L40.63 201.68 L42.15 203.87 L45.43 210.19 L46.58 211.68 L47.1 211.19 L47.22 208.49 L47.67 206.92 L48.52 205.89 L49.89 204.81 L49.82 204.17 L49.79 203.5 L49.89 202.52 L48.82 202.2 L46.26 201.97 L45.11 201.37 L42.02 193.88 L42.67 190.16 L45.11 182.84 L46.26 183.85 L47.25 183.57 L48.34 182.92 L49.89 182.84 L49.18 178.58 L49.55 175.18 L50.24 172.16 L50.57 168.98 L49.89 168.98 L49.65 171 L48.87 172.34 L46.48 174.76 L47.1 175.91 L46.23 175.55 L45.53 175.1 L44.97 174.46 L44.43 173.6 L44.94 173.11 L45.85 171.9 L46.48 171.29 L45.11 168.42 L42.73 167.07 L31.66 165.91 L30.1 164.18 L31.36 160.88 L31.04 160.55 L30.96 160.5 L30.92 160.36 L30.74 159.73 L29.76 161.42 L28.98 161.66 L28.13 161.21 L26.94 160.88 L26.07 161.23 L25.39 162.07 L24.72 163.16 L23.87 164.26 L26.85 164.84 L28.47 165.58 L29.32 166.67 L29.12 168.72 L28.08 170.22 L26.82 170.8 L25.91 170.13 L23.18 171.86 L21.83 172.3 L20.4 172.45 L20.4 173.6 L21.77 174.14 L21.7 174.49 L20.4 174.76 L19.46 174.61 L17.88 173.79 L16.71 173.6 L15.05 172.48 L10.25 165.51 L7.91 164.44 L7.67 164.47 L6.87 161.82 L5.13 159.67 L6.08 159.39 L6.9 158.82 L8.6 154.25 L10.25 155 L11.33 155.91 L14.39 157.07 L24.26 157.89 L28.23 157.07 L32.1 155 L39.27 149.71 L65.67 137.93 L88.45 131.94 L116.22 120.19 L134.2 115.37 L153.89 110.03 L173.25 101.23 L189.33 99.22 L200.37 95.5 L199.12 96.78 L194.17 99.01 L196.34 100.55 L205.13 99.01 L205.13 97.95 L204.45 97.95 L204.45 96.68 L209.21 96.68 L209.16 95.85 L209.06 95.7 L208.87 95.75 L208.53 95.5 L208.72 92.75 L206.43 92.64 L200.99 94.35 L204.43 92.64 L208.56 89.93 L214.73 82.65 L213.48 85.21 L211.25 87.55 L210.38 88.82 L211.29 88.49 L213.1 88.11 L214.69 87.47 L216.08 85.8 L219.58 84.14 L220.86 82.65 L219.67 80.17 L217.69 80.1 L216.81 81.17 L215.35 82.65 L219.58 75.33 L231.14 60.41 L231.14 61.46 L230.61 63.14 L231.61 63.57 L233.22 62.95 L234.5 61.46 L235.13 59.16 L234.55 58.45 L233.25 59 L231.77 60.41 L233.81 56.3 L237.28 52.82 L244.1 48.55 L264.95 45.47 L273.05 42.23 L277.29 41.51 L281.06 40.15 L290.63 29.62 L320.73 15.46 L358.49 8.3 L375.43 2.46 L402.07 0 L418.49 0 L420.75 0.84 L424.37 4.02 L425.71 4.72 L427.8 5.2 L461.89 25.64 L468.1 33.73 L469.11 35.63 L470.14 38.31 L470.23 40.65 L468.47 41.51 L468.03 40.92 L467.54 39.66 L466.94 38.42 L465.12 37.13 L463.9 33.89 L462.26 31.79 L457.51 23.72 L456.58 23.28 L453.08 22.55 L452.19 22.18 L451.24 20.55 L448.42 19.57 L442.45 15.46 L436.59 12.63 L435.65 11.28 L432.41 8.77 L431.55 8.37 L430.34 8.92 L429.7 9.81 L428.29 14.75 L428.09 15.89 L428.09 18.42 L428.63 19.06 L431.02 20.13 L431.55 20.78 L432.76 22.89 L434.22 26.08 L434.16 27.4 L433.78 28.55 L433.81 29.68 L434.97 30.9 L434.36 34.27 L435.5 35.71 L437.4 35.31 L439.06 33.16 L438.47 36.02 L439.28 38.31 L440.52 40.24 L443.04 48.07 L443.82 49.73 L443.43 53.68 L443.51 60.48 L444.16 66.91 L445.56 69.78 L447.12 70.31 L450.17 72.65 L451.73 73.19 L453.07 73.33 L454.74 73.85 L456.16 74.78 L456.77 76.27 L458.46 78.64 L475.29 84.1 L479.01 84.38 L482.12 82.65 L482.97 83.53 L484.14 84.17 L486.88 85 L524.32 79.39 L532.58 75.38 L536.5 74.46 L539.67 73 L545.81 66.57 L547.51 65.82 L549.63 67.55 L554.57 69.27 L562.35 69.68 L582.96 70.78 L621.62 72.86 L650.44 74.39 L679.26 75.93 L714.97 77.83 L758.23 80.14 L785.99 81.61 L813.75 83.09 L837.04 84.34 L855.8 85.34 L862.67 83.05 L864.55 81.52 L867.07 76.82 L867.21 76.57 L869.7 75.4 L871.82 75.69 L877.8 78.79 L878.89 78.94 L881.16 78.46 L882.18 78.7 L883.24 79.78 L883.81 81.11 L884.25 82.45 L884.88 83.55 L886 84.32 L889.43 84.72 L890.06 85.67 L889.7 87.3 L889.12 89.24 L889.11 91.05 L890.9 93.57 L893.19 93.56 L895.58 92.54 L897.59 92.09 L899.4 92.98 L905.59 98.18 L909.4 100.52 L917.45 103.57 L919.44 105.28 L921.28 106.86 L922.24 108.35 L924.06 111.84 L924.98 113.16 L926.01 113.86 L928.15 114.46 L929.07 115 L930.72 117.45 L932.11 120.86 L933.21 124.67 L933.97 128.3 L935.43 136.24 L935.46 140.08 L933.97 142.68 L932.76 143.69 L932.23 144.36 L931.74 145.11 L931.68 146.93 L932.1 148.47 L932.91 149.7 L933.97 150.58 L934.56 151.34 L934.85 152.19 L934.79 153.12 L934.37 154.11 L934.5 159.08 L935.53 163.22 L936.85 167.12 L937.87 171.38 L938.79 180.36 L939.84 183.84 L942.26 187.41 L942.27 187.41 L942.5 197.77 L944.88 209.51 L953.35 235.63 L958.06 245.45 L960.06 250.74 L964.05 266.54 L965.81 271.29 L967.61 273.71 L968.59 276.06 L969.36 278.49 L970.55 281.06 L972.33 283.03 L974.05 284.36 L975.1 286.37 L974.87 290.4 L973.97 292.8 L972.77 294.8 L971.81 297.09 L971.67 300.33 L972.53 303.15 L975.55 307.04 L976.7 309.5 L976.86 310.77 L976.63 312.77 L976.64 313.82 L977.48 318.44 L977.52 319.77 L977.22 320.79 L976.12 323.02 L975.84 324.33 L975.93 326.1 L976.27 327.1 L976.68 327.93 L976.93 329.2 L977.77 349.22 L977.98 354.18 L976.6 361.22 L972.63 366.13 L959.38 375.2 L942.7 379.96 L933.86 385.13 L925.06 392.48 L912.91 411.23 L908.9 416.15 L907.07 419.02 L902.44 428.51 L902.75 428.58 L903.48 429.2 L904.22 429.83 L905.31 431.43 L905.63 433.58 L904.84 436.48 L907.09 437.92 L914.27 439.86 L915.81 439.26 L917.12 440.59 L923.31 442.92 L925.41 443.15 L925.41 444.16 L924.68 445.66 L924.97 445.93 L926.4 445.37 L927.65 445.93 L928.54 446.86 L929.49 447.04 L930.87 445.37 L931.26 446.1 L932.25 446.93 L932.91 447.7 L934.58 446.07 L934.96 447.29 L934.68 449.24 L934.28 449.81 L937.06 455.37 L938.99 455.99 L943.73 455.84 L945.61 456.99 L946.27 458.25 L946.77 459.57 L947.37 460.6 L948.31 461.02 L949.53 461.87 L949.93 463.74 L950.03 465.61 L950.86 467.64 L952.27 473.76 L953.42 476.53 L951.85 477.7 L950.54 479.77 L948.65 484.27 L948 487.25 L947.93 492.49 L947.28 494.32 L947.67 494.47 L947.85 494.48 L947.92 494.67 L947.97 495.42 L946.77 496.09 L946.36 499.59 L945.25 500.93 L946.81 503.86 L948.65 506.35 L947.54 510.1 L945.62 512.01 L943.52 513.3 L941.83 515.26 L941.43 516.42 L941.03 518.15 L940.46 521.86 L940.82 522.69 L941.49 523.82 L941.72 524.83 L940.8 525.27 L940.41 525.72 L940.73 526.75 L941.34 527.86 L941.83 528.56 L940.55 530.15 L939.94 530.53 L939.05 530.65 L939.05 531.85 L940.18 533.09 L940.31 534.65 L939.79 538.99 L940.14 541.3 L941.01 543.54 L943.19 547.31 L942.51 547.38 L941.83 547.31 L943.07 549.82 L944.66 550.43 L946.02 551.25 L946.41 553.39 L946.6 554.38 L947.27 556.63 L948.84 557.72 L950.64 558.39 L952.05 559.36 L950.5 562.56 L950.65 563.56 L954.72 569.57 L955.53 571.49 L954.37 572.03 L953.66 573.15 L953.54 574.79 L954.16 576.95 L952.33 577.67 L950.56 579.56 L949.19 581.9 L948.65 584.03 L949.3 587.43 L950.87 588.24 L952.8 588.28 L954.5 589.39 L960.03 601.54 L962.28 604.28 L967.35 607.5 L972.1 612.36 L973.21 614.29 L971.56 615.15 L971.19 616.61 L972.66 619.76 L975.28 623.83 L976.15 625.96 L977.33 632.6 L977.33 633.59 L976.9 634.83 L977.64 635.48 L978.9 636 L980.12 636.83 L981.23 638.52 L981.5 639.82 L981.61 641.25 L982.15 643.33 L983.65 645.82 L990.4 652.07 L998.71 656.67 L1000 658.65 L998.77 661.39 L995.74 662.04 L992.43 662.06 L990.4 662.97 L987.76 661.47 L985 661.84 L982.71 663.59 L981.48 666.3 L981.67 669.32 L983.14 671.33 L985.51 672.43 L988.29 672.77 L988.29 673.75 L986.99 676.51 L988.4 678.92 L991.12 680.63 L993.8 681.29 L993.19 684.89 L993.98 688.2 L996.51 694.32 L996.53 694.38 L994.22 698.39 L995.23 705.86 L995.95 707.94 L996.46 708.38 L996.34 708.73 L995.09 710.53 L993.2 712.55 L986.78 715.92 L986.5 717.81 L986.65 720.83 L986.49 722.87 L986.03 724.56 L983.85 729.71 L978.6 731.9 L960.51 732.13 L957.07 733.22 L955.34 734.1 L953.99 735.43 L952.9 737.73 L951.65 741.88 L951.58 742.1 L950.2 744.12 L942.33 752.69 L939.44 755.03 L939.43 755.03 L939.42 755.04 L939.41 755.04 L933.97 759.23 L929.46 762.73 L906.66 787.56 L903.65 792.22 L900 795.09 L896.03 799.49 L885.21 815.4 L881.03 819.71 L880.51 820.98 L879.69 824.1 L879.23 825.2 L878.36 826.07 L876.6 826.73 L875.72 827.31 L874.75 828.5 L868.6 839.67 L866.92 841.38 L865.83 841.85 L863.68 842.28 L862.57 843.25 L861.85 844.58 L860.12 849.5 L852.55 859.71 L850.06 865.65 L851.98 871.15 L852.65 873.39 L853.27 879.92 L853.64 881.67 L853.92 882.52 L855.22 884.58 L857.38 886.86 L857.94 888.03 L858.38 890.47 L859.73 904.51 L859.35 906.73 L857.67 911.38 L856.25 916.79 L854.68 920.1 L854.14 921.95 L854.75 922.76 L855.21 922.46 L856.53 920.79 L858.1 921.9 L857.98 921.96 L857.6 922.05 L860.83 924.34 L863.75 928.2 L865.59 929.56 L870.07 932.07 L871.27 933.62 L871.28 934.91 L870.38 937.89 L870.25 939.96 L870.69 941.39 L872.31 944.19 L872.43 944.51 L872.62 945 L871.46 947.43 L869.44 946.56 L867.23 944.56 L865.45 943.63 L864.34 943.27 L862.5 940.68 L861.48 939.72 L860.4 939.59 L858.15 940.28 L854.54 940.01 L852.41 940.21 L850.26 939.95 L847.81 938.27 L844.06 934.12 L842.06 933.5 L839.96 935.53 L836.5 933.82 L828.69 933.48 L825.03 932.36 L819.97 927.26 L817.85 926.42 L812.33 926.63 L807.65 925.19 L806.91 924.55 L806.68 923.59 L806.96 922.61 L806.95 921.53 L805.85 920.31 L805.03 920.15 L802.63 920.45 L801.63 920.38 L800.48 919.87 L797.23 917.77 L790.16 916.42 L787.34 914.35 L786.68 909.48 L785.42 904.08 L782.55 899.43 L778.95 896.03 L773.58 893.34 L769.91 889.96 L768.09 888.91 L766.08 889.28 L764.35 890.87 L762.94 892.55 L761.9 893.25 L760.36 892 L757.01 886.82 L755.33 885.09 L754.34 884.8 L752.79 885.15 L752.04 885.04 L751.03 884.34 L749.17 882.52 L748.16 881.84 L746.29 881.36 L739.14 882.17 L737.63 882.78 L735.81 883.52 L734.35 883.09 L730.64 883.9 L728.99 883.92 L719.27 881.16 L713.67 878.17 L712.29 877.84 L710.49 879.09 L707.37 883.72 L705.66 885.33 L703.51 885.69 L701.99 884.63 L700.56 883.04 L698.76 881.79 L697.21 881.65 L693.16 882.48 L691.63 883.21 L689.61 885.47 L690.83 886.87 L693.13 888.27 L694.34 890.58 L693.53 891.98 L691.68 892.36 L689.58 892.38 L688.01 892.71 L685.96 894.72 L682.7 899.5 L680.54 901.38 L678.2 902.22 L676.36 901.88 L674.74 900.7 L673.11 899 L671.25 897.6 L669.68 897.37 L667.98 897.47 L665.74 897.12 L664.16 895.97 L655.3 885.35 L653.74 885.07 L649.97 885.68 L647.81 885.35 L646.89 885.42 L645.87 886 L644.28 887.97 L643.14 889.05 L640.77 889.89 L638.59 889.36 L630.15 885.04 L628.59 885.39 L628.61 888.03 L623.46 888.23 L619.37 886.69 L618.18 886.71 L617.16 887.48 L616.79 888.43 L616.59 889.84 L616.07 892.02 L615.36 894.15 L614.86 894.83 L607.16 895.51 L605.64 896.36 L603.46 898.97 L602.48 899.88 L600.29 899.62 L600.04 899.38 L599.47 900.14 L597.56 904.44 L597 906.26 L596.31 907.96 L595.07 909.46 L594.5 914.8 L593.47 918.62 L591.52 920.12 L588.21 918.5 L583.06 913.64 L580.29 912.2 L577.09 912.55 L575.28 913.9 L573.33 915.91 L571.93 917.37 L569.71 918.19 L565.11 917.84 L562.59 916.92 L561.3 915.13 L561.71 913.12 L565.48 906.94 L565.93 906.58 L566.57 906.4 L567.14 906.06 L567.38 905.2 L567.19 904.53 L567.16 904.49 L566.4 903.7 L566.37 903.64 L566.21 903.29 L566.2 903.28 L564.84 902.27 L564.49 901.76 L564.49 901.75 L564.55 901.11 L565.32 899.96 L565.47 899.34 L564.88 891.93 L564.38 889.38 L563.45 886.48 L563.43 886.46 L562.53 885.78 L559.19 887.13 L557.17 887.33 L554.99 887.1 L549.26 885.14 L549.26 885.09 L549.47 883.28 L549.41 880.88 L549.57 880.05 L550.03 879.08 L546.04 879.04 L543.95 878.48 L542.24 877.15 L541.73 876.06 L540.12 871.17 L538.3 863.42 L537.09 860.32 L534.75 858.76 L534 857.96 L532.32 854.99 L531.47 854.64 L530.93 854.41 L530.35 854.67 L529.97 855.43 L521.31 865 L520.56 865.65 L519.15 866.22 L518.11 866.39 L515.04 866.36 L513.12 866.77 L511.49 867.57 L510.04 868.96 L508.68 871.15 L507.08 876.13 L507.25 876.31 L507.57 876.77 L507.77 877.5 L507.53 878.52 L507.09 878.85 L505.86 878.88 L505.57 878.95 L504.87 881.94 L504.61 883.85 L503.89 885.08 L500.81 886.31 L498.31 886.81 L497.28 886.74 L496.32 886.25 L494.34 884.8 L493.42 884.48 L491.24 885 L487.38 887.25 L484.86 887.45 L482.91 887.08 L482.35 885.35 L482.76 880.31 L482.51 878.03 L482.02 875.96 L481.92 873.77 L482.79 871.18 L479.91 869.41 Z "/>
</g>
</svg>
