<svg xmlns="http://www.w3.org/2000/svg" viewBox="0 0 1000 600.59">
<g fill="#ccc" stroke="#333" stroke-width="0.5" stroke-linejoin="round">
<path fill-rule="evenodd" d="M964.16 174.47 L962.32 174.87 L961.93 175.2 L961.71 175.68 L961.17 176.32 L960.51 176.88 L959.9 177.12 L959.33 177.59 L957.55 179.05 L957.48 179.25 L957.14 179.93 L957.01 180.29 L956.74 182.04 L956.66 183.2 L956.67 183.72 L956.74 184.13 L956.93 184.45 L957.2 184.6 L957.43 184.78 L957.55 185.17 L957.34 185.88 L955.67 188.31 L954.95 190.88 L954.56 191.47 L955.02 192.14 L954.97 192.73 L954.59 193.3 L954.01 193.91 L954.56 194.18 L955.69 195.02 L959.91 200.46 L960.08 200.76 L960.34 201.43 L960.51 201.75 L960.78 202.04 L961.46 202.54 L961.67 202.77 L963.28 206.89 L963.67 207.26 L964.21 207.77 L964.82 207.78 L965.82 207.57 L966.79 207.13 L967.28 206.45 L967.5 206.52 L967.61 206.53 L968.65 206.21 L969.77 206.12 L970.31 206.51 L970.43 206.6 L970.03 208.04 L969.71 208.8 L969.18 210.49 L968.43 212.03 L968.08 213.56 L967.71 214.19 L967.38 215.42 L966.37 215.54 L964.11 214.61 L963.42 214.54 L963.07 214.92 L962.68 215.98 L962.27 216.53 L961.97 216.72 L961.45 216.87 L960.95 217.13 L960.46 217.07 L959.95 216.92 L959.43 216.87 L959.01 217.17 L957.74 217.43 L957.46 217.73 L957.49 218.13 L957.61 218.61 L957.63 219.13 L957.42 220.03 L956.54 222.38 L956.1 224.11 L955 226.07 L951.34 229.16 L950.63 230.19 L950.09 231.71 L949.74 234.13 L949.53 234.89 L949.26 235.3 L948.21 236.43 L947.83 236.68 L947.93 236.99 L947.9 237.23 L947.82 237.46 L947.77 237.71 L947.34 238.2 L947.22 238.4 L947.24 238.93 L947.3 238.99 L947.46 238.98 L947.67 239.67 L947.7 240.01 L947.79 240.3 L947.82 240.35 L948.15 240.87 L948.46 241.19 L949.14 241.76 L949.36 242.07 L949.64 243.01 L949.88 244.23 L949.99 245.34 L949.91 245.9 L950.59 247.46 L950.9 251.45 L951.29 253.09 L951.02 253.85 L951.22 254.99 L951.81 257.19 L951.93 257.43 L952.01 257.64 L952.13 257.8 L952.38 257.9 L952.38 258.21 L952.08 258.58 L951.42 258.08 L950.57 257.84 L949.65 257.81 L948.79 257.9 L947.93 258.24 L946.32 259.37 L945.65 259.61 L943.32 261.13 L943.01 261.56 L936.97 265.69 L935.66 266.89 L935.08 266.88 L934.46 266.61 L933.62 266.43 L931.16 266.4 L930.48 266.12 L930.13 266.69 L929.71 266.64 L929.2 266.32 L928.81 266.12 L929.21 266.74 L929.34 267.06 L929.39 267.49 L928.49 266.16 L927.06 264.95 L924.21 263.36 L922.58 263 L921.32 262.42 L919.97 262.48 L916.77 262.94 L915.41 262.46 L913.89 261.93 L912.7 262.47 L910.97 262.69 L909.23 262.04 L909.15 262.12 L907.03 260.94 L905.33 260.63 L903.47 260.77 L902.88 260.94 L902.36 261.31 L901.1 262.68 L898.65 262.68 L898.17 262.81 L897.14 263.47 L896.62 263.7 L896.02 263.75 L895.08 264 L894.21 264.79 L893.42 264.47 L892.7 265.19 L892.37 265.44 L891.96 265.6 L891.16 266.28 L890.74 266.43 L890.14 266.21 L889.7 265.77 L889.27 265.5 L888.67 265.75 L888.95 264.35 L889.16 263.66 L889.36 263.36 L890.91 260.89 L891.5 259.52 L892.04 258.33 L891.67 256.84 L892.39 256.16 L893.32 255.2 L893.89 252.98 L893.58 252.11 L893.26 251.32 L893.91 250.05 L895.02 248.79 L895.23 247.57 L895.93 245.9 L896.4 243.65 L896.65 242.3 L896.74 240 L896.51 238.81 L896.12 238.01 L895.59 237.37 L895.51 236.72 L896.05 234.5 L896.24 233.12 L896.59 231.83 L897.11 231.58 L898.25 231.37 L898.47 230.16 L898.47 229.97 L898.09 230.31 L897.2 230.55 L896.22 230.56 L895.89 229.68 L896.18 227.11 L896.68 224.4 L896.61 222.73 L896.37 221.52 L895.74 220.24 L894.42 219.99 L892.78 218.96 L892.97 218.54 L893.25 218.36 L893.56 218.21 L893.87 217.9 L895.94 213.42 L896.68 209.81 L897.59 207.09 L897.44 204.36 L897.14 201.15 L896.76 198.34 L895.73 196.33 L894.7 195.25 L893.44 193.76 L891.99 192.56 L890.88 192.12 L891.49 191.49 L892.4 191.87 L893.87 193.17 L895.69 193.8 L896.56 194.28 L896.62 194.94 L898.28 194.88 L902.27 195.96 L904.27 195.32 L903.07 195.24 L902.04 195.02 L899.11 193.63 L898.76 193.2 L898.53 192.5 L898.46 191.79 L898.52 191.14 L898.73 190.66 L899.07 190.42 L899.07 190.04 L898.5 189.83 L898.11 189.23 L897.99 188.52 L898.25 187.95 L897.63 187.84 L896.85 189.46 L896.05 189.72 L896.05 190.04 L896.94 190.16 L897.35 190.9 L897.36 191.73 L897.03 192.12 L896.07 192.05 L895.28 191.84 L893.87 191.08 L892.34 190.54 L890.39 190.91 L888.6 193 L888.91 193.24 L886.65 194.2 L882.78 194.67 L881.97 194.99 L881.33 195.47 L880.6 195.63 L879.57 195.33 L879.39 195.32 L879.26 195.03 L879.27 194.67 L879.38 194.35 L879.53 194.21 L879.82 193.77 L881.01 192.57 L881.26 190.96 L881.26 188.55 L880.29 186.21 L879.08 184.27 L878.51 182.73 L879.24 182.33 L881.11 182.09 L882.81 181.94 L883.64 182.45 L884.05 183.07 L884.29 183.07 L884.05 182.02 L884.65 181.71 L885.91 181.36 L886.5 181.29 L886.5 180.98 L887.1 180.26 L887.75 179.62 L888.88 178.73 L890.31 177.49 L890.47 177.38 L890.7 177.18 L890.88 177.11 L890.88 176.79 L890.48 176.12 L890.01 175.1 L889.77 174.04 L890.06 173.27 L889.14 173.33 L888.72 172.5 L888.49 171.26 L888.13 170.05 L889.82 166.43 L890.85 164.83 L892.24 163.75 L893.04 163.55 L894.75 163.41 L895.51 163.08 L896.95 161.99 L897.58 161.33 L897.96 160.59 L896.89 161.38 L895.11 162.7 L891.67 163.08 L891.15 163.52 L890.38 164.99 L888.45 167.78 L886.24 172.2 L885.01 173.63 L884.59 174.31 L884.34 175.15 L884.43 176.12 L884.51 177.82 L884.67 179.04 L884.1 180.25 L882.08 180.89 L879.81 181.28 L877.22 181.03 L876.49 181.6 L875.76 182.49 L874.21 181.51 L872.45 180.76 L871.48 180.6 L869.78 180.85 L868.98 180.58 L869 179.55 L869.26 178.69 L868.75 176.46 L868.75 175.36 L868.97 174.87 L869.45 174.28 L870.43 173.28 L871.73 169.13 L871.63 166.04 L871.18 164.1 L871.58 162.96 L871.74 161.57 L873.29 158.73 L873.78 157.34 L874.6 155.47 L874.76 153.52 L875.01 151.89 L874.47 149.35 L874 148.33 L872.57 146.82 L872.27 146.31 L872.73 146.16 L874.52 146.68 L877.46 144.73 L878.19 144.08 L879.01 144 L879.5 144.59 L879.91 144.71 L880.38 144.23 L880.08 143.55 L879.42 142.93 L880.07 141.88 L880.97 140.82 L881.3 140.25 L882.03 139.76 L883.18 139.03 L883.75 138.05 L884.16 137.24 L884.98 135.77 L885.07 134.87 L884.99 133.88 L885.48 132.5 L885.73 130.53 L888.87 122.09 L893.85 107.43 L894.44 106.68 L894.9 107.37 L895.57 107.68 L897.16 107.75 L897.16 107.36 L896.52 106.75 L895.92 106.3 L895.22 106.03 L893.4 105.79 L892.72 105.35 L892.31 104.58 L892.24 103.47 L892.75 102.01 L893.96 99.57 L896.62 89.15 L897.17 85.88 L897.93 83.48 L898.44 80.42 L898.54 80.26 L898.77 80.1 L898.8 81.21 L898.77 81.56 L899.57 80.23 L900.14 79.76 L900.71 80.1 L900.95 80.1 L900.95 79.77 L900.86 79.64 L900.7 79.34 L900.6 78.99 L900.71 78.69 L901.09 78.47 L901.32 78.62 L901.47 78.9 L901.67 79.05 L902.06 78.89 L902.4 78.51 L902.88 77.62 L902.25 77.23 L901.89 76.61 L902 76.04 L902.75 75.79 L903.67 75.7 L904.39 75.43 L905 74.98 L905.63 74.39 L904.96 74.43 L903.95 74.94 L903.1 75.12 L902.95 75.2 L902.73 75.22 L901.81 74.81 L901.52 74.39 L901.2 72.93 L902.72 70.8 L902.34 69.68 L902.27 70.54 L902.02 71.26 L901.73 71.46 L901.52 70.76 L900.96 71.83 L900.53 73.2 L900.26 74.66 L900.16 75.98 L899.98 76.83 L899.55 78.05 L899.02 79.18 L898.53 79.77 L902.34 61.82 L902.34 59.88 L901.86 56.34 L901.9 54.47 L902.61 53.74 L902.61 53.41 L901.12 53.06 L900.35 51.6 L899.82 49.77 L899.07 48.28 L899.26 47.58 L899.17 46.98 L898.95 46.41 L898.77 45.74 L898.78 44.12 L898.59 43.6 L898.31 43.46 L898.15 42.91 L898 42.35 L897.44 41.39 L897.21 40.62 L897.21 39.97 L897.14 38.44 L897.57 36.66 L897.1 35.45 L897.03 34.35 L896.85 33.6 L896.75 32.71 L896.23 31.09 L896.05 29.89 L895.79 29.01 L895.75 28.04 L895.42 27.08 L895.35 25.83 L895.49 25.23 L896.38 24.88 L898.83 24.47 L899.52 24.15 L900.15 23.68 L900.71 23.14 L896.29 24.47 L895.37 24.6 L894.85 24.54 L894.13 24.08 L893.36 22.34 L893.36 20.81 L893.69 18.4 L893.42 16.88 L893.58 16.32 L893.87 15.8 L896.7 13.44 L898.05 11.9 L898.53 9.92 L898.97 9.59 L899.87 9.12 L900.9 8.81 L901.72 8.26 L902.02 7.72 L902.44 6.57 L902.79 6.03 L903.47 5.51 L904.16 5.37 L905.62 5.33 L906.36 5.03 L907.73 4.08 L908.48 3.79 L914.64 2.79 L915.31 2.43 L916.33 1.5 L916.69 1.27 L916.99 1.19 L917.67 1.16 L918.4 0.86 L919.6 0 L919.95 0.52 L920.32 1.34 L920.19 3.65 L920.33 4.52 L920.84 4.92 L921.44 4.75 L922.15 4.42 L922.98 4.34 L923.74 4.66 L924.35 5.26 L924.67 6.06 L924.58 6.99 L924.16 7.67 L923.52 8.2 L922.36 8.96 L921.2 10.11 L919.66 12.4 L919.28 13.36 L919.22 14.36 L919.68 15.32 L921.1 15.88 L921.4 16.3 L921.47 17.01 L921.32 18.29 L921.3 18.39 L924.74 18.61 L926.45 18.11 L926.53 18.09 L927.84 16.73 L928.23 16.08 L928.72 15.56 L929.28 15.3 L929.92 15.4 L930.67 15.38 L931.04 14.69 L931.24 13.79 L931.42 13.18 L932.21 12.87 L932.32 14.32 L932.59 15.87 L933.85 15.87 L934.13 15.55 L934.27 15.21 L934.46 14.91 L934.87 14.77 L935.95 14.84 L938.43 14.24 L939.55 13.65 L940.17 13.82 L941.28 14.61 L941.97 14.96 L944.12 15.05 L943.5 16.73 L943.53 17.24 L944.17 17.6 L944.88 17.67 L945.73 17.54 L946.54 17.25 L947.14 16.82 L947.35 16.43 L947.39 16.07 L947.47 15.75 L947.77 15.49 L948.08 15.49 L948.68 15.92 L949.07 15.96 L949.62 16.16 L950.13 16.87 L950.52 17.8 L950.68 18.65 L951.21 18.19 L952.17 17.08 L952.71 16.72 L953.31 16.61 L954.76 16.66 L955.48 16.54 L958.31 15.56 L959.62 14.74 L959.99 14.2 L960.45 13.53 L960.54 12.68 L960.28 10.95 L960.37 10.2 L960.66 9.88 L961.27 9.41 L961.97 9.02 L962.54 8.92 L963.82 9.73 L965.04 10.79 L966.29 11.36 L967.71 10.74 L968.64 10.06 L969 10.24 L969.55 10.52 L970.53 11.29 L971.64 11.52 L974.12 11.31 L975.07 10.72 L975.32 9.12 L976.54 9.34 L977.99 11.6 L979.18 11.96 L982.02 11.84 L983.38 11.42 L983.91 10.27 L984.88 10.69 L985.42 11.33 L985.58 12.22 L985.25 14.53 L985.57 14.91 L986.28 15.01 L987.31 15.36 L986.85 16.37 L985.88 20.74 L985.71 21.24 L985.42 21.68 L985.19 22.19 L985.31 22.65 L985.58 23.11 L985.76 23.62 L985.86 24.61 L986.07 25.65 L986.62 26.51 L987.74 26.93 L988.15 26.82 L988.75 26.51 L989.3 26.13 L989.56 25.8 L989.84 25.56 L990.39 25.58 L993.62 26.26 L995.57 26.97 L997.36 28.14 L999.04 29.92 L999.59 30.71 L1000 31.23 L998.1 34.04 L997.07 35.14 L996.81 35.68 L996.84 36.1 L996.95 36.45 L996.93 36.81 L995.41 39.25 L995.41 39.71 L994.16 39.8 L993.61 40.02 L993.09 40.44 L993.21 40.46 L993.24 40.78 L993.19 41.2 L993.09 41.49 L992.93 41.54 L992.44 41.44 L992.28 41.49 L991.03 43.54 L989.74 44.86 L988.44 45.88 L986.1 46.9 L985.74 47.16 L983.13 47.2 L982.43 47.33 L981.97 47.84 L980.55 49.99 L980.25 50.78 L980.02 51.21 L978.62 52.42 L978.1 53.09 L977.95 53.47 L978.05 54.78 L977.72 55.74 L976.14 58.09 L975.59 58.63 L974.51 58.75 L972.05 58.53 L971.23 58.95 L971.21 58.96 L971.06 59.96 L970.63 60.65 L970.71 61.32 L971.1 61.91 L972.36 63.25 L972.92 64.19 L973.78 66.34 L974.11 67.45 L974.44 67.89 L975.03 68.04 L975.47 68.35 L975.67 69.05 L975.5 69.71 L974.85 69.92 L974.8 71.26 L974.84 71.61 L974.98 72.16 L974.94 72.45 L974.83 72.74 L974.75 73.26 L974.75 74.28 L974.84 75.03 L975.34 76.75 L975.66 78.51 L975.75 79.45 L975.74 80.09 L975.46 80.98 L974.54 82.68 L974.3 83.5 L974.38 84.41 L974.73 84.95 L975.17 85.42 L975.59 86.14 L975.81 87.04 L975.7 87.68 L974.77 89.01 L974.04 90.85 L974.27 92.55 L975.19 94.07 L976.53 95.33 L975.84 96.59 L975.48 96.96 L973.76 98.23 L973.51 98.52 L973.37 98.92 L973.34 99.37 L973.32 99.79 L973.2 100.1 L972.47 100.61 L971.69 100.66 L970.91 100.59 L970.65 100.64 L970.14 100.72 L968.43 101.85 L967.71 102.18 L967.35 102.66 L966.96 103.87 L966.62 104.48 L966.95 105.24 L967.24 107.02 L967.71 107.73 L968.19 107.87 L969.25 108.03 L969.68 108.19 L970.1 108.57 L970.65 109.44 L971.53 110.55 L973.13 113.46 L972.45 114.6 L972.26 115.16 L972.34 115.72 L972.18 116.19 L971.95 117.47 L971.82 117.67 L971.44 117.97 L971.32 118.2 L971.32 118.5 L971.47 119.02 L971.46 119.28 L971.39 119.74 L971.36 120.61 L971.22 121.11 L970.22 122.62 L969.84 122.85 L968.93 123.23 L968.62 123.49 L968.33 124.2 L968.38 124.76 L968.55 125.23 L968.62 125.67 L968.47 126.16 L967.99 127.01 L967.81 127.5 L967.79 127.98 L967.91 128.33 L967.95 128.71 L967.49 129.83 L966.91 130.07 L961.05 130.81 L959.8 130.75 L958.94 130.21 L958.26 130.43 L956.66 130.38 L955.92 130.54 L955.27 130.82 L954.72 130.97 L946.12 130.56 L946.17 130.7 L946.48 131.42 L947.77 135.02 L948.49 135.67 L949.67 137.27 L950.34 137.91 L951.69 138.61 L952.03 139.06 L952.41 140.19 L953.02 140.69 L953.87 141.1 L955.54 141.55 L955.84 142.06 L955.83 143.17 L955.62 144.35 L955.31 145.09 L955.1 145.82 L955.12 146.96 L955.31 148.06 L955.61 148.66 L956.36 149.26 L958.34 151.7 L957.8 152.64 L957.74 153.72 L958.05 154.75 L958.6 155.56 L959.59 156.11 L960.7 156.41 L961.64 156.85 L962.13 157.83 L962.04 158.35 L961.6 159.35 L961.66 159.78 L962.07 160.2 L962.65 160.5 L963.26 160.61 L963.74 160.42 L964.7 159.84 L965.75 159.72 L966.79 160.01 L967.71 160.64 L968.35 161.26 L968.91 162.18 L969.16 163.19 L968.88 164.07 L969.34 164.43 L969.4 164.9 L969.18 165.41 L968.79 165.93 L967.46 168.54 L966.56 169.78 L965.7 170.5 L966.26 171.51 L966.05 172.3 L966.1 173.04 L965.77 173.24 L965.29 173.65 L964.8 174.15 Z M590.05 485.71 L588.66 483.45 L588.32 483.02 L588.07 482.57 L587.91 482.08 L587.85 481.51 L588.53 482.14 L589.27 483.23 L589.85 484.51 Z M578.02 476.48 L577.32 477.9 L575.67 478.5 L573.75 478.62 L570.52 478.35 L563.9 475.59 L562.39 474.62 L561.05 473.45 L559.98 472.1 L559.63 471.27 L559.54 470.42 L559.77 469.75 L560.38 469.48 L560.63 469.24 L561.61 467.86 L561.97 467.66 L562.23 467.59 L562.52 467.66 L562.97 467.86 L563.39 468.2 L564.34 469.26 L564.74 469.48 L564.99 469.52 L565.85 469.8 L566.89 470.44 L567.96 470.53 L569.03 470.3 L569.81 469.8 L570.4 469.53 L571.28 469.32 L572.8 469.15 L573.46 469.39 L574.67 470.28 L575.15 470.48 L577.22 472.06 L577.67 472.32 L578.14 472.42 L579.67 472.49 L580.36 472.68 L581.02 473.07 L581.41 472.79 L581.84 472.69 L582.26 472.79 L582.65 473.07 L581.97 473.25 L580.56 473.9 L580.05 474.04 L579.57 474.4 L578.28 476.03 Z M595.92 458.89 L595.41 459.53 L594.94 459.98 L594.39 460.09 L593.59 459.72 L593.59 459.39 L594 459.36 L594.32 459.17 L594.55 458.84 L595.05 457.32 L595.86 456.57 L596.83 456.34 L597.67 456.79 L597.94 456.44 L597.92 457.83 L598.07 458.4 L598.49 458.75 L597.08 458.47 L596.49 458.48 Z M930.23 267.8 L932.29 268.08 L933.09 267.78 L934.04 266.8 L934.13 266.95 L934.2 267.11 L934.31 267.49 L934.08 267.65 L934.04 267.8 L933.31 268.28 L932.3 268.53 L931.2 268.5 L930.23 268.17 Z M247.94 265.75 L248.74 266.29 L249.44 267.2 L249.93 268.3 L250.12 269.36 L249.52 270.1 L248.19 269.96 L245.86 269.19 L244.55 269.53 L243.86 269.52 L243.56 269.02 L243.3 268.38 L242.82 267.81 L242.56 267.3 L242.99 266.8 L243.81 266.05 L245.28 265.67 L246.84 265.6 Z M242.72 223.42 L244.26 224.04 L245.22 225.54 L245.33 227.37 L244.35 228.96 L242.84 229.66 L237.54 230.34 L235.75 230.83 L233.84 231.03 L232.05 230.94 L231.14 231.02 L230.44 231.37 L229.36 230.7 L228.31 230.25 L226.06 229.65 L222.52 229.49 L217.71 225.89 L216.33 223.95 L217.05 221.32 L220.12 221.03 L221.13 221.32 L222.52 222.5 L222.77 222.92 L222.81 223.51 L222.92 224.01 L223.14 224.35 L223.46 224.48 L228.52 225.17 L229.12 225.01 L230.17 224.27 L230.71 224.11 L231.07 224.24 L231.91 224.92 L232.32 225.17 L232.98 224.79 L237.06 223.55 Z M126.62 193.89 L128.44 194.09 L129.1 194.61 L129.36 195.8 L128.82 196.34 L127.6 196.36 L124.49 195.9 L123.6 195.96 L122.8 196.25 L121.34 197.41 L120.87 197.15 L120.5 196.53 L120.03 195.98 L119.15 195.69 L113.46 195.58 L112.66 195.98 L110.03 193.52 L109.1 191.97 L109.1 189.72 L110.3 188.62 L111.63 188.23 L114.45 188.3 L116.05 188.6 L120.03 191.08 L121.45 191.7 L121.54 191.81 L121.96 191.97 L122.76 192.66 L123.18 192.82 L124.03 192.97 Z M106.67 186.21 L107.22 188.49 L106.94 188.55 L105.66 189.11 L105.31 189.37 L105.55 189.67 L105.65 189.86 L105.78 189.97 L106.12 190.04 L105.61 190.38 L105.15 190.37 L104.2 190.04 L103.71 190.08 L102.5 190.39 L101.99 190.42 L101.09 189.98 L100.06 188.4 L99.27 187.63 L97.44 186.53 L97.39 186.11 L98.73 185.86 L99.88 185.83 L100.43 185.73 L100.93 185.48 L101.27 185.1 L101.93 184.09 L102.29 183.77 L105.76 185.36 Z M135.33 185.86 L138.29 186.95 L139.8 187.76 L140.53 188.68 L139.86 188.93 L139.1 189.06 L137.53 188.99 L136.88 188.77 L135.57 188.09 L134.37 187.85 L133.69 187.59 L133.03 187.21 L132.48 186.75 L131.9 186.43 L130.83 186.62 L130.16 186.21 L129.61 186.58 L129.22 186.39 L128.52 185.48 L128.02 185.18 L123.89 183.78 L123.18 183.23 L122.39 181.88 L122.09 181.67 L121.77 181.73 L121.62 181.83 L121.47 181.85 L121.12 181.67 L121.03 181.49 L121.07 181.26 L121.04 181.06 L120.73 180.98 L120.4 180.81 L118.54 179.17 L118.39 178.82 L118.4 178.16 L119.12 178.45 L120.44 179.36 L121 179.55 L121.71 179.66 L129.61 182.69 Z M170.05 181.29 L169.83 181.48 L168.95 181.84 L168.69 182.02 L168.62 182.44 L168.79 183.31 L168.69 183.77 L168.45 183.96 L167.3 184.49 L166.3 184.09 L163.61 184.07 L162.7 183.39 L162.2 183.97 L161.75 183.98 L160.77 183.39 L159.74 183.15 L158.7 183.07 L157.79 182.69 L156.79 181.77 L155.97 180.61 L155.57 179.55 L155.24 177.96 L156.15 176.75 L157.63 175.96 L158.97 175.68 L165.1 176.06 L166.25 176.57 L167.86 177.55 L169.16 178.7 L169.36 179.73 L169.23 180.23 L169.55 180.53 L169.95 180.83 Z M131.64 164.83 L130.83 164.79 L129.98 164.63 L129.18 164.3 L128.52 163.75 L128.07 162.89 L128.13 162.14 L128.8 160.59 L129.19 160.31 L129.61 160.22 L130.03 160.31 L130.43 160.59 L130.7 160.24 L131.33 161.1 L132.65 162.2 L133.29 162.89 L133.54 163.77 L133.09 164.37 L132.33 164.72 Z M3.07 139.42 L3.44 139.75 L3.93 140.04 L4.47 140.11 L5 139.77 L5.75 140.76 L6.07 141.65 L6.11 143.84 L5.82 145.01 L5.11 146.44 L4.29 147.32 L3.64 146.85 L2.89 147.21 L2.01 147.31 L1.2 147.19 L0.64 146.85 L0.27 146.14 L0.01 145.14 L0 144.19 L0.37 143.68 L0.16 142.8 L0.37 142.08 L0.71 141.31 L0.89 140.28 L1.16 139.48 L1.82 138.96 L2.63 138.71 L3.37 138.72 Z M6.68 128.05 L8.06 128.34 L8.16 129.86 L7.37 131.38 L6.11 131.65 L6.06 131.31 L5.42 129.7 L5.27 129.46 L5.39 128.92 L5.73 128.43 L6.2 128.11 Z M608.36 600.39 L608.55 600.45 L608.55 600.59 L608.38 600.57 Z M614.88 594.91 L615.23 595.17 L615.25 595.5 L615.06 595.79 L614.92 595.73 L614.65 595.66 L614.47 595.58 L614.49 595.5 L614.49 595.41 L614.52 595.32 Z M886.95 172.4 L887.18 172.25 L887.21 172.57 L886.94 173.34 L886.41 174.17 L885.67 174.93 L885.41 174.83 L885.74 173.93 L886.14 173.18 L886.59 172.7 L886.84 172.49 Z "/>
</g>
</svg>
