<svg xmlns="http://www.w3.org/2000/svg" viewBox="0 0 1000 234.49">
<g fill="#ccc" stroke="#333" stroke-width="0.5" stroke-linejoin="round">
<path fill-rule="evenodd" d="M30.43 159.61 L34.7 163.57 L34.78 166.3 L32.69 169.01 L28.92 175.84 L27.35 177.56 L26.09 179.34 L25.59 182.4 L24.01 183.53 L20.52 183.88 L17.03 183.53 L15.44 182.4 L13.04 178.86 L2.48 172.96 L0 167.61 L2.42 161.95 L6.71 159.69 L28.19 159.06 Z M961.72 159.61 L958.42 156.42 L953 157.72 L945.93 160.68 L916.84 167.53 L911.03 170.29 L903.37 167.83 L891.81 169.23 L881.01 167.72 L875.31 156.7 L881.07 156.51 L882.92 156.7 L890.27 156.07 L897.66 153.27 L904.36 149.23 L909.65 144.92 L913.16 143.06 L942.84 138.26 L947.57 139.1 L960.48 143.59 L979.97 144.37 L984.8 146.26 L988.44 150.84 L985.72 152.27 L975.8 151.6 L973.29 152.54 L966.23 157.43 L964.28 159.61 Z M987.31 95.31 L982.19 87.2 L966.69 72.67 L966.79 71.28 L975.93 71.23 L986.52 73.38 L995.53 77.82 L1000 84.62 L998.91 84.89 L994.92 84.62 L997.46 87.29 L993.5 87.48 L990.42 86.62 L988.34 84.7 L987.31 81.72 L984.8 81.72 L988.15 88.38 L988.79 91.48 Z M857.35 95.31 L855.82 100.12 L858.46 102.89 L861.51 104.25 L866.67 101.7 L865.6 105.32 L866.64 108.16 L871.1 114.2 L867.26 116.99 L866.73 120.31 L863.42 120.61 L859.79 114.84 L855.66 114.87 L854.31 119.02 L857.93 123.96 L854.37 127.02 L849.95 126.23 L843.72 122.98 L837.24 125.17 L830.44 128.53 L823.11 130.25 L816.98 133.04 L810.54 139.47 L797.39 159.89 L796.33 170.18 L791.19 176.95 L789.27 178.13 L780.69 180 L778.75 182.4 L782.54 193.9 L775.31 200.61 L761.41 209.2 L742.13 215.91 L733.76 215.72 L725.27 213.91 L717.67 213.18 L713.18 214.13 L702.24 218.51 L699.63 218.8 L688.3 218.51 L680.67 220.44 L658.91 232.06 L654.32 232.43 L650.22 232.27 L646.64 232.62 L643.7 234.49 L642.08 232.06 L641.61 231 L641.39 229.16 L645.42 227.98 L646.37 226.11 L644.83 223.72 L641.39 221.15 L634.16 227.66 L629.9 228.87 L624.64 227.57 L614.42 226.49 L610.88 225.58 L608.98 223.37 L607.62 220.72 L605.67 218.51 L601.02 215.97 L597.69 215.21 L591.62 215.59 L583.01 217.67 L572.43 224.99 L564.88 224.07 L557.67 218.45 L551.64 211.37 L545.33 207.27 L538.4 208.76 L533.14 209.43 L529.22 211.43 L523.84 212.48 L511.63 213.18 L507.72 215.19 L503.93 217.75 L499.52 218.63 L493.67 215.59 L491.06 217.39 L488.37 218.51 L485.83 214.1 L479.44 213.53 L464.28 215.59 L461.47 214.91 L450.34 210.51 L435.12 210.51 L435.43 205.17 L432.12 203.55 L427.13 204.66 L422.43 207.59 L422.43 210.51 L427.51 210.51 L423.23 216.39 L415.91 220.42 L407.42 222.87 L399.65 224.07 L388.08 223.66 L382.44 224.23 L378.29 223.87 L376.35 224.07 L374.87 225.66 L374.24 228.36 L374.06 232.06 L367.11 231.25 L361.86 227.41 L353.52 218.51 L346 218.1 L337.62 216.69 L328.64 216.83 L323.34 215.12 L318.17 219.53 L312.08 222.8 L306.64 224.07 L302.17 223.47 L289.34 222.14 L281.21 217.63 L277.21 220.8 L279.82 229.75 L275.78 229.51 L270.39 221.23 L268.47 217.55 L268.63 206.69 L277.48 202.52 L280.14 201.07 L283.53 200.04 L286.4 198.53 L287.62 195.61 L286.12 193.51 L282.54 191.64 L277.64 192.57 L272.89 190.46 L273.16 183.18 L275.66 179.5 L279.27 176.9 L277.76 172.93 L276.23 166.41 L280.18 162.35 L279.98 149.75 L283.72 135.59 L286.61 132.5 L289.72 129.51 L291.83 124.95 L289.38 120.82 L284.65 116.55 L278.75 97.83 L275.25 90.57 L266.96 88.91 L260.25 87.23 L254.36 75.71 L250.71 70.04 L247.65 63 L248.4 60.23 L259 57.13 L267.51 53.47 L274.55 50.52 L279.78 47.24 L289.01 39.88 L289.51 31.19 L285.58 24.34 L285.09 14.39 L291.9 5.42 L310.45 0 L330.23 0.64 L343.63 6.66 L382.63 14.66 L421.19 9.59 L426.48 10.28 L440.41 15.17 L445.94 15.52 L460.48 12.27 L481.57 10.32 L491.42 11.57 L501.27 15.17 L507.34 14 L531.24 14.24 L545.96 18.59 L577.54 12.27 L606.7 21.13 L623.68 16.16 L643.33 22.46 L647.49 19.26 L652.35 20.07 L655.03 23.42 L656.37 25.62 L659.53 27.2 L663.08 25.08 L666.02 21.17 L669.71 22.27 L668.48 27.41 L675.68 31.22 L676.87 35.08 L679.25 39.98 L684.93 40.3 L697.17 36.56 L697.17 33.64 L691.02 32.85 L684.26 29.39 L678.91 24.02 L674.36 19.3 L698.77 27 L704.78 28.29 L709.06 29.72 L715.03 30.85 L720.37 28.42 L723.65 23.37 L732.07 25.19 L749.06 30.1 L754.86 26.17 L759.32 27.08 L763.88 30.52 L775.85 33.23 L782.35 36.83 L789.1 43.99 L793.18 42.02 L795.95 38.12 L798.11 38.96 L798.56 40.9 L796.64 43.06 L795.15 46.09 L797.95 45.42 L801.81 43.88 L804.17 42.36 L810.49 51.57 L816.76 54.96 L821.69 51.48 L831.65 59.36 L844.58 61.2 L851.06 56.51 L854.02 53.66 L857.13 51.56 L860.1 52.34 L860.25 55 L856.62 74.34 L855.8 90.7 Z "/>
</g>
</svg>
