<svg xmlns="http://www.w3.org/2000/svg" viewBox="0 0 1000 2046.03">
<g fill="#ccc" stroke="#333" stroke-width="0.5" stroke-linejoin="round">
<path fill-rule="evenodd" d="M65.72 1808.6 L87.44 1806.02 L117.62 1778.89 L125.52 1746.32 L115.64 1625.1 L106.05 1592.91 L56.6 1500.31 L52.75 1481.38 L65.16 1445.63 L67.88 1420.67 L66.57 1397.79 L59.42 1387.82 L28.58 1368.83 L20.12 1325.53 L18.43 1278.58 L7.9 1248.4 L16.17 1225.34 L14.39 1198.52 L9.31 1170.15 L7.9 1142.24 L17.11 1072.98 L16.36 1046.24 L0 950.14 L13.26 895.01 L14.86 869.8 L0 854.08 L31.21 812.67 L53.27 809.02 L66.43 825.22 L70.08 848.71 L80.32 858.43 L80.29 883.34 L111.13 889.07 L92.8 837.31 L88.85 815.22 L87.44 792.09 L89.7 777.71 L93.83 762.59 L94.58 746.75 L87.44 730.91 L78.04 724.65 L52.65 719.75 L39.3 713.39 L52.46 697.13 L67.69 692.85 L83.77 690.87 L99.29 682.32 L103.05 675.02 L110.38 655.36 L115.08 651.35 L122.7 654.11 L130.03 666.16 L138.59 668.87 L144.6 678.51 L142.44 700.1 L134.83 734.82 L134.83 761.45 L135.95 771.04 L145.26 795.32 L150.81 802.3 L159.08 809.54 L170.65 806.05 L173 802.66 L172.25 796.41 L176.95 766.45 L177.7 735.81 L182.78 722.15 L195.94 708.54 L203.93 712.61 L213.43 721.37 L229.41 722.15 L236.74 713.24 L252.91 675.85 L261.75 660.11 L229.79 672.52 L200.26 677.84 L175.82 667.82 L159.08 633.82 L157.77 615.57 L166.23 555.05 L169.05 549.3 L180.24 539.86 L182.78 533.23 L181.37 527.91 L175.44 520.18 L174.13 514.81 L174.13 476.23 L190.11 480.2 L195.56 470.01 L199.42 456.18 L210.14 449.18 L218.03 453.57 L224.8 464.74 L229.03 479.46 L229.41 494.5 L245.77 483.49 L256.49 465.99 L259.87 445.11 L253.85 423.64 L245.96 432.42 L229.22 414.08 L231.29 386.71 L261.47 313.3 L266.27 288.36 L269.46 229.91 L279.05 237.12 L282.63 240.84 L286.01 248.32 L293.16 248.32 L319.29 171.33 L342.42 137.74 L375.42 123.76 L392.91 119.84 L441.52 100.37 L451.58 93.04 L457.78 73.36 L484.77 45.72 L491.16 26.39 L512.22 34.2 L535.92 26.71 L577.94 0 L669.8 50.11 L688.42 71.06 L690.3 95.82 L687.85 127.9 L688.79 155.79 L700.92 167.72 L722.83 176.51 L729.6 198 L730.73 224.47 L736.46 248.32 L754.42 264.94 L768.9 267.5 L777.92 269.07 L827.85 264.99 L856.05 267.77 L879.18 275.19 L899.4 286.48 L918.58 300.91 L934 316.75 L946.6 336.5 L954.87 359.02 L974.8 498.89 L974.52 516.37 L971.14 531.25 L961.83 537.51 L955.06 533.28 L948.57 514.75 L938.51 510.42 L929.39 515.8 L921.21 528.43 L916.89 543.15 L918.58 555.05 L928.92 564.59 L938.89 563.34 L946.6 555.83 L950.83 546.28 L969.44 575.81 L954.12 605.6 L930.99 614.63 L926.48 581.34 L910.77 586.04 L871.29 607.53 L888.12 614.52 L905.7 625.37 L919.8 638.31 L926.48 651.35 L922.53 679.3 L906.83 690.56 L887.08 695.25 L871.29 703.85 L863.39 698.85 L855.4 695.88 L858.03 763.01 L855.58 782.45 L855.4 784.17 L849 795.42 L839.41 807.51 L832.93 819.91 L835.65 831.78 L878.06 905.78 L884.92 923.85 L887.08 941.71 L883.51 997.18 L879.18 1064.45 L880.59 1092.53 L887.08 1106.83 L901.47 1113.07 L969.35 1123.83 L979.88 1135.17 L989.66 1160.43 L993.7 1182.88 L997.74 1205.54 L1000 1310.99 L987.5 1442.31 L993.61 1457.46 L983.55 1468.36 L965.78 1545.32 L950.92 1569.58 L910.87 1614.84 L898.65 1645.98 L889.43 1650.85 L878.9 1654.32 L871.29 1659.14 L865.64 1670.23 L835.56 1785.93 L833.96 1792.35 L827.85 1806.02 L814.31 1816.21 L808.01 1840.38 L800.21 1893.68 L784.98 1913.08 L738.25 1941.06 L728.47 1950.48 L722.26 1979.95 L707.69 1999.7 L691.8 2015.63 L681.18 2033.31 L667.73 2014.39 L672.06 1996.5 L682.4 1976.38 L688.42 1950.48 L679.48 1936.36 L658.71 1933.82 L618.09 1937.86 L616.3 1915.61 L608.97 1914.99 L597.22 1923.63 L581.8 1929.22 L561.49 1931.44 L542.97 1938.84 L533.28 1952.23 L535.92 1960.51 L536.38 1962.2 L458.04 2025.19 L397.98 2045.64 L332.61 2046.03 L263.29 2036.06 L205.2 2011.31 L150.22 1948.79 Z "/>
</g>
</svg>
