<svg xmlns="http://www.w3.org/2000/svg" viewBox="0 0 1000 1160.53">
<g fill="#ccc" stroke="#333" stroke-width="0.5" stroke-linejoin="round">
<path fill-rule="evenodd" d="M997.87 30.8 L998.96 34.48 L1000 51.16 L998.5 70.43 L997.27 73.4 L996.98 74.99 L996.1 77.19 L994.01 78.99 L989.33 81.36 L986.59 83.23 L984.86 85.63 L980.46 98.76 L978.38 102.04 L977.87 103.39 L977.33 106.32 L976.74 107.69 L974.34 111.13 L971.14 117.9 L970.7 119.67 L970.24 123.27 L966.9 132.32 L956.74 149.52 L956.34 150.63 L954.98 151.09 L947.37 158.22 L945.62 160.39 L944.58 162.53 L943.11 170.35 L942.27 172.97 L941.12 175.48 L939.64 177.9 L937.78 182.52 L936.42 184.53 L934.16 185.21 L933.62 186.57 L930.42 190.39 L929.44 191.94 L924.29 205.93 L924.29 207.9 L925.07 211.94 L925.4 216.01 L924.77 228.73 L925.52 234.86 L925.5 236.96 L925.07 239.26 L923.72 243.65 L923.45 245.94 L924.45 284.04 L924.15 286.81 L916.3 304.02 L915.56 306.62 L914.94 311.48 L910.28 326.37 L909.8 334.64 L908.86 337.27 L903.35 346.53 L900.39 349.8 L897.83 354.81 L896.95 357.87 L898.49 367.1 L898.45 377.63 L902.4 394.56 L902.39 398.19 L900.4 408.45 L900.48 412.2 L901.29 415.44 L903.83 421.82 L905.78 422.91 L907.18 425.06 L908.02 427.63 L908.29 429.91 L907.43 442.8 L906.69 444.93 L895.28 460.89 L884.83 489.41 L882.4 494.17 L876.99 518.92 L876.64 522.26 L876.98 525.62 L880.23 538.9 L881.4 562.44 L880.4 563.76 L878.54 566.39 L870.06 574.31 L869.33 575.24 L868.77 576.27 L868.51 578.22 L868.3 578.77 L867.86 579.25 L866.3 580.39 L864.6 582.35 L861.82 584.4 L854.35 593.4 L836.49 614.91 L833.04 618.1 L830.32 621.4 L829.3 622.24 L825.73 623.97 L825.36 624.65 L822.75 627.74 L821.38 628.55 L814.43 630.52 L807.72 631.46 L805.14 632.16 L796.27 635.8 L789.87 637.6 L785.64 638.3 L784.83 638.65 L783.43 639.61 L782.62 639.94 L782.25 640.75 L779.12 644.39 L773.93 648.97 L769.77 653.8 L763.58 658.82 L760.55 660.63 L759.68 661.49 L759.08 662.46 L757.64 666.16 L754.56 671.66 L752.52 676.56 L750.32 679.68 L745.38 689.52 L741 695.24 L737.94 701.4 L736.14 704.18 L733.52 708.24 L732.54 710.42 L731.87 712.62 L731.69 714.13 L731.77 718.65 L730.99 722.58 L729.26 725.94 L718.74 739.83 L718.42 740.26 L717.7 741.85 L717.28 743.66 L716.45 744.05 L714.13 745.82 L712.07 746.69 L711.44 747.03 L710.23 748.11 L708.2 750.72 L699.83 758.92 L694.2 763.17 L686.79 770.27 L683.02 772.83 L679.73 775.78 L676.48 780.02 L674.86 782.83 L673.9 785.82 L674.06 788.9 L674.25 789.93 L674.24 790.78 L672.51 796.76 L672.23 798.92 L672.69 800.96 L673.91 802.8 L674.22 803.49 L674.47 804.74 L674.55 811.16 L678.97 843.08 L676.17 862.69 L673.03 872.19 L672.67 874.05 L672.52 875.96 L673.45 883.67 L674.02 888.45 L673.51 895.06 L674.22 902.54 L673.68 909.73 L674.24 911.95 L675.47 914.45 L675.5 917.5 L674.69 923.3 L675.39 926.11 L676.96 927.65 L678.51 928.72 L679.22 930.15 L678.97 933.26 L678.33 935.72 L676.6 939.74 L670.05 951.1 L667.32 958.21 L664.35 964 L656.09 974.08 L650.69 985.03 L649.71 988.03 L647.82 989.92 L645.59 996.24 L641.46 1003.47 L640.52 1004.5 L639.75 1005.85 L637.34 1013.68 L634.13 1016.75 L633.47 1017.39 L628.32 1020.09 L622.44 1021.85 L616.48 1022.76 L610.65 1023.63 L591.47 1029.74 L589.11 1030.82 L587.08 1032.39 L585.4 1034.9 L581.31 1048 L580.6 1049.16 L577.66 1052.25 L577.14 1053.15 L575.98 1053.6 L572.69 1055.32 L567.53 1057.21 L552.74 1064.67 L550.15 1066.37 L546.51 1067.93 L543.27 1069.82 L541.87 1072.45 L541.16 1074.24 L536.19 1081.3 L529.18 1091.26 L526.29 1093.95 L519.2 1097.54 L518.12 1099 L517.27 1100.73 L507.01 1110.84 L496.13 1129.08 L495.11 1131.27 L493.75 1133.26 L491.66 1134.98 L485.42 1137.68 L476.62 1143.19 L472.71 1144.57 L467.63 1145.06 L466.14 1144.51 L462 1141.99 L460.34 1141.43 L459.73 1141.07 L458.65 1139.32 L458.02 1138.7 L456.92 1138.6 L454.08 1138.74 L453.49 1138.2 L452.4 1136.76 L449.96 1136.67 L447.36 1137.36 L445.78 1138.2 L443.05 1141.11 L441.43 1141.94 L438.89 1142.34 L436.57 1142.75 L436.01 1138.7 L438.15 1128.34 L437.64 1126.96 L436.97 1125.76 L436.43 1124.49 L436.35 1122.92 L436.68 1121.67 L437.7 1119.33 L437.93 1118.06 L437.4 1114.73 L435.93 1112.61 L433.95 1110.75 L431.93 1108.23 L430.83 1103.15 L429.83 1100.18 L429.94 1099.14 L431.03 1097.21 L433.13 1095.3 L438.15 1093.2 L439.74 1091.58 L441.23 1089.5 L443.45 1087 L445.32 1084.35 L445.74 1081.86 L444.88 1080.96 L440.28 1078 L437.68 1074.96 L435.52 1071.65 L434.62 1069.72 L434.58 1069.01 L435.03 1068.29 L435.61 1066.38 L435.84 1064.67 L435.86 1063.25 L435.53 1062.19 L434.76 1061.57 L432.3 1061.75 L426.58 1064.86 L420.54 1066.32 L417.83 1068.21 L412.86 1072.59 L407.88 1074.94 L402.79 1076.6 L391.1 1078.01 L386.15 1080 L382.24 1085.28 L382 1085.67 L381.71 1085.96 L379.6 1087.49 L377.36 1090.19 L375.97 1091.01 L374.66 1091.07 L370.79 1089.95 L370.65 1089.91 L366.91 1090.16 L365.69 1089.84 L364.24 1088.56 L362.37 1085.06 L361.15 1083.44 L358.17 1081.5 L355.45 1081.22 L347.02 1084.17 L345.48 1085.01 L344.96 1086.54 L346.39 1099.4 L345.91 1101.97 L343.84 1107.36 L343.38 1110.28 L345.15 1116.01 L344.28 1117.17 L343.28 1117.06 L342.18 1116.74 L341.1 1117.3 L340.55 1118.76 L340.92 1121.22 L340.22 1122.15 L339.05 1122.28 L336.02 1121.42 L334.73 1121.34 L331.95 1123.14 L329.07 1128.5 L327.54 1128.99 L326.33 1129.37 L324.72 1128.64 L322.1 1125.91 L320.41 1125.16 L318.89 1125.38 L314.57 1127.9 L315.92 1129.05 L316.46 1130.2 L316.07 1131.2 L314.57 1131.99 L307.74 1137.03 L304.07 1141.5 L302.67 1142.63 L299.84 1136.81 L298.88 1132.17 L298.17 1130.56 L296.92 1129.33 L294.96 1128.26 L286.91 1125.36 L284.5 1123.78 L278.25 1118.34 L274.71 1116.06 L273.42 1114.74 L271.77 1110.38 L269.39 1106.91 L268.32 1104.91 L265.44 1101.52 L262.2 1101.86 L260.02 1104.81 L260.31 1109.3 L254.13 1106.22 L245.41 1095.78 L240.15 1091.58 L237.56 1088.63 L235.17 1082.23 L233.23 1079.54 L231.16 1078.36 L229.57 1078.52 L227.98 1079.24 L225.92 1079.67 L224.09 1079.28 L221.65 1077.96 L220.69 1077.44 L218.86 1076.77 L215.7 1078.61 L214.19 1081.68 L213.12 1084.86 L211.32 1087 L208.92 1088.38 L206.75 1090.12 L204.9 1092.25 L202.02 1097.62 L200.55 1099.16 L198.46 1099.94 L183.73 1102.64 L174.68 1105.6 L172.69 1105.78 L169.09 1105.32 L167.85 1107.18 L168.01 1112.9 L167.38 1115.68 L161.83 1126.7 L160.45 1128.34 L158.55 1129.07 L154.05 1129.54 L152.03 1130.02 L150.11 1130.76 L148.93 1131.78 L147.25 1128.67 L146.04 1127.14 L144.8 1126.38 L143.22 1126.38 L142.6 1126.99 L138.56 1140.66 L135.06 1146.3 L120.09 1159.06 L118.96 1160.53 L116.93 1158.69 L115.09 1156.5 L112.09 1151.5 L107.09 1145.44 L103.84 1142.27 L102.58 1138.61 L95.18 1130.85 L93.8 1129.22 L93.68 1128.47 L94.32 1127.57 L95.1 1127.72 L96.87 1129.75 L97.55 1129.39 L98.18 1127.77 L97.81 1124.96 L94.32 1120.41 L88.68 1115.31 L88.05 1113.64 L88.16 1112.28 L91.29 1112.32 L93.8 1109.56 L94.39 1106.56 L91.97 1101.55 L76.9 1086.4 L63.11 1074.57 L50.99 1063.83 L44.71 1059.93 L38.17 1054.15 L35.66 1050.11 L35.02 1049.26 L33.31 1046.35 L32.95 1045.06 L33.09 1042.13 L32.96 1040.62 L32.44 1039.57 L20.74 1030.23 L7.76 1021.67 L3.33 1018.43 L0 1016.26 L2.07 1012.4 L10.9 988.57 L13.08 984.37 L16.54 981.41 L21.07 978.47 L25.03 975.21 L29.31 972.57 L34.78 971.47 L39.84 969.78 L42.81 965.97 L45.29 961.87 L48.96 959.35 L55.62 960.31 L60.54 964.09 L71.09 981.18 L73.31 983.59 L76.19 984.56 L83.43 983.63 L86.09 983.93 L93.74 986.12 L96.21 986.19 L96.54 986.06 L98.87 985.17 L101.74 983.02 L104.09 980.22 L105.13 977.22 L104.2 974.4 L101.65 973.02 L98.5 972 L95.76 970.37 L94.44 967.59 L94.81 964.51 L102.39 946.57 L104.19 943.37 L109.91 939.08 L111.7 936.22 L110.3 931.93 L105.16 929.52 L98.86 927.79 L94.03 925.49 L88.67 921.08 L85.87 919.4 L78.35 916.25 L77.32 915.48 L76.18 914.34 L75.93 913.83 L76.15 913.07 L76.28 903.86 L76.94 901.53 L78.69 898.23 L80.08 897.39 L81.91 897.54 L84.97 897.22 L88.25 895.2 L88.25 892.34 L86.3 889.28 L76.19 878.53 L71.61 871.86 L69.44 869.41 L66.79 868.55 L63.02 869.7 L57.63 873.48 L55.35 873.87 L54.67 870.75 L55.99 865.65 L56.25 864.69 L65.93 848.88 L67.15 845.51 L67.79 842.75 L67.79 839.99 L67.08 836.59 L65.83 833.61 L62.47 828.24 L61.44 825.44 L61.38 823.11 L62.34 815.75 L61.86 812.82 L59.01 805.07 L60.06 802.46 L60.35 802.38 L65.27 802.54 L71.98 804.58 L73.81 805.51 L74.63 806.54 L75.16 807.65 L76.18 808.84 L80.67 812.35 L83.09 813.63 L85.28 813.81 L87.49 812.52 L92 808.37 L94.95 807.19 L99.74 806.24 L105.34 804.44 L109.5 802.38 L110.87 803.19 L113.27 804.96 L117.78 810.55 L121.84 813.34 L125.96 813.8 L178.69 802.49 L177.18 799.56 L178.14 795.26 L179.93 790.69 L180.85 786.87 L179.9 781.37 L180.15 779.41 L181.09 777.39 L183.48 773.62 L184.07 771.33 L178.9 768.98 L176.14 764.72 L175 759.35 L173.89 745.02 L174.39 743.22 L175.88 743.57 L177.46 745.25 L179.98 747.92 L182.32 748.65 L184.03 747.72 L184.61 746.37 L184.7 744.93 L184.94 743.77 L185.75 742.08 L186.41 741.22 L187.22 740.46 L193.72 736.09 L195.15 735.57 L201.69 735.39 L207.34 737.74 L216.11 744.1 L216.7 744.53 L222.32 746.34 L224.56 747.88 L226.09 751.12 L229.02 760.76 L230.21 763.58 L230.98 764.56 L233.06 766.59 L233.65 767.39 L234.17 770.42 L233.93 770.48 L233.93 771.1 L233.8 771.89 L234.08 772.58 L236.58 773.22 L236.5 773.99 L235.98 774.87 L235.73 775.51 L235.17 776.51 L234.94 777.35 L235.25 778.23 L237 779.93 L237.5 780.86 L237.6 782.24 L238.18 784.6 L240.07 784.53 L243.3 782.88 L244.45 784.01 L246.93 788.08 L248.18 789.6 L248.86 793.19 L249.21 794.26 L250.16 795.27 L250.97 795.25 L251.6 795.38 L251.93 796.88 L250.82 798.06 L250.08 799.15 L249.8 800.5 L249.71 801.64 L249.34 802.8 L248.8 803.92 L248.18 804.85 L246.7 806.1 L246.01 807.34 L246.4 808.14 L248.18 808.04 L249.72 806.5 L252.12 804.1 L253.84 803.59 L257.13 804.18 L265.7 808.07 L268.47 808.74 L269.93 808.44 L272.47 806.95 L274.01 806.75 L275.31 807.04 L298.47 815.64 L300.83 815.91 L303.39 815.28 L306.27 815.75 L306.96 815.76 L308.82 815.18 L309.67 815.4 L310.79 817.04 L311.47 817.26 L312.87 816.46 L313.48 815.39 L313.85 814.15 L314.57 812.88 L315.89 811.6 L320.2 808.62 L321.33 807.5 L323.26 805.07 L324.58 803.89 L326.16 803.09 L329.33 802.08 L330.66 801.17 L331.25 799.99 L331.64 797.17 L332.53 795.8 L342.64 786 L343.71 784.52 L344.19 783.13 L344.4 780.51 L344.76 779.04 L346.16 776.38 L348.93 772.25 L349.23 771.53 L349.66 771.7 L351.06 772.7 L352.88 774.46 L354.49 776.98 L355.64 779.78 L356.85 785.27 L359.87 791.44 L361.51 793.89 L363.94 796.36 L364.83 797.67 L365.27 801.36 L366.3 802.34 L367.7 803.01 L369.07 803.99 L370.88 806.46 L370.32 807.32 L368.74 808.3 L366.86 812.31 L364.1 813.7 L363.11 814.87 L363.02 819.99 L362.86 820.65 L365.03 822.56 L368.07 823.57 L371.32 823.73 L374.11 823.15 L376.4 821.77 L377.68 821.19 L378.97 821.19 L380.19 822.08 L380.59 824.51 L381.44 825.3 L382.45 825.31 L388.56 823.4 L389.4 823.25 L390.73 823.36 L392.78 824.54 L394.1 825.09 L395.3 824.91 L396.1 823.91 L396.7 822.18 L397.53 819.81 L398.65 818.63 L399.93 817.63 L400.86 816.48 L400.81 812.99 L401.41 811.64 L402.5 810.5 L405.04 808.34 L406.25 807.53 L407.56 806.93 L413.91 805.44 L414.48 805.81 L413.49 801.58 L403.43 793.06 L403.01 788.52 L404.8 787.11 L409.36 785.45 L411.13 783.51 L411.16 782.54 L410.34 780.16 L410.49 778.86 L411.2 778.23 L413.49 777.41 L414.4 776.51 L415.02 774.61 L415.76 767.61 L416.64 764.98 L416.78 763.66 L416.13 762.54 L415.05 761.74 L414.36 761.05 L414.28 760.23 L414.98 758.98 L414.91 757.45 L415.24 756.27 L415.9 755.28 L416.84 754.32 L432.3 748.28 L432.59 748.17 L436.12 746.25 L437.08 744.42 L436.06 738.62 L436.15 737.5 L436.96 734.08 L437.37 723.49 L438.22 720.62 L439.83 718.83 L442.96 716.93 L441.94 716.06 L439.14 715.59 L436.87 714.89 L435.27 709.5 L432.69 708.06 L431.81 707.07 L433 706.02 L435.72 705.05 L436.97 704.44 L438.23 703.52 L439.13 702.17 L439.66 700.63 L440.51 699.48 L444.86 698.65 L444.81 696.65 L443.33 694.26 L441.58 692.53 L443.26 688.68 L443.48 685.48 L443.96 684.24 L445.5 682.75 L447.18 681.67 L448.13 680.14 L447.39 677.38 L442.72 674.29 L440.77 672.27 L439.98 669.73 L440.35 668.26 L441.27 667.3 L442.37 666.45 L443.33 665.37 L444.07 663.97 L444.55 662.69 L445.08 659.71 L445.22 655.56 L445 654.37 L443.97 652.65 L441.72 650.43 L441.17 649.89 L440.24 648.27 L440.2 647.13 L440.94 644.84 L441.05 643.7 L440.59 642.15 L439.18 639.28 L435.39 628.86 L435.42 626.95 L436.82 624.12 L437.48 618.38 L438.18 615.33 L440.22 612.06 L442.57 609.48 L444.07 606.64 L443.5 602.6 L442.61 599.23 L442.59 595.96 L443.33 592.7 L448.72 581.03 L449.63 576.72 L448.43 572.74 L445.32 566.33 L443.68 564.59 L438.4 560.95 L435.46 556.99 L430.98 554.19 L425.93 551.96 L422.23 550.89 L419.95 551.24 L417.89 552.22 L415.86 552.9 L413.7 552.4 L411.27 551.41 L408.99 551.42 L406.8 552.18 L404.56 553.37 L404.32 548.4 L403.35 542.92 L401.72 537.6 L399.48 533.05 L396.02 529.66 L391.16 527.3 L385.83 526.48 L381 527.75 L380.04 526.46 L378.97 525.57 L377.68 525.06 L372.93 524.51 L371.9 524.87 L371.39 525.75 L371.03 526.71 L370.47 527.3 L368.71 527.94 L367.86 528.11 L367.07 527.52 L360.93 520.2 L361.05 516.44 L362.45 513.15 L368.48 505.15 L370.13 502.96 L371.49 501.67 L372.87 499.95 L372.74 498.55 L372.05 497.07 L371.79 495.12 L372.35 493.8 L374.23 491.37 L374.44 489.99 L373.39 488.35 L371.8 488.06 L370.25 488.02 L369.39 487.12 L368.82 477.52 L368.19 474.28 L366.9 470.16 L366.24 466.83 L366.85 463.65 L371.36 456.93 L376.07 446.37 L378.9 443.36 L388.71 437.95 L391.2 435.1 L391.72 432.35 L390.9 429.63 L389.4 426.86 L393.44 421.26 L400.01 420.37 L407.47 421.2 L414.14 420.85 L415.92 420.16 L416.68 419.61 L417.17 418.91 L427.02 410.4 L427.9 407.56 L428.29 400.74 L432.14 395.22 L438.26 389.96 L442.8 384.49 L441.93 378.31 L441.47 376.67 L442.48 375.59 L444.05 374.65 L445.28 373.41 L445.52 371.61 L444.51 370.54 L441.34 368.94 L438.81 366.64 L436.59 364.02 L434.72 361.11 L433.25 358.01 L431.18 351.21 L429.36 348.51 L422.99 345.57 L420.92 342.79 L419.84 339.4 L419.97 329.38 L419.62 325.9 L417.64 317.61 L416.84 316.13 L415.42 315.01 L413.91 314.38 L412.77 313.65 L412.56 312.91 L412.36 312.18 L410.78 311.87 L409.77 311.15 L408.92 310.26 L407.77 309.48 L402.54 308.05 L399.88 307.79 L397.49 308.41 L392.74 310.24 L389.92 310.07 L387.84 308.58 L385.87 306.65 L383.46 305.21 L381.16 304.7 L356.08 302.36 L354.2 302.81 L354.09 303.44 L352.84 306.88 L351.22 310.06 L350.78 310.35 L349.36 310.88 L348.96 310.75 L347.41 310 L346.73 309.86 L345.83 310.21 L344.23 311.45 L343.38 311.88 L340.93 312.33 L339.71 312.41 L338.46 312.36 L335.83 312.6 L333.95 313.83 L332.22 315.25 L327.45 317.1 L324.42 321.18 L322.7 322.42 L318.25 323.24 L314.25 323.26 L310.14 322.47 L305.5 320.82 L303.48 320.63 L300.59 320.96 L297.99 321.67 L296.92 322.67 L296.07 325.02 L293.82 325.63 L291.4 325.97 L288.93 328.99 L286.5 330.05 L283.75 330.61 L279.18 330.27 L276.48 330.7 L275.08 330.52 L275.07 330.5 L274.67 328.66 L273.4 327.81 L271.81 327.17 L270.47 325.99 L272.99 325.73 L273.98 324.09 L274.47 322.24 L275.53 321.36 L277.4 321.1 L279.65 320.33 L281.54 319.05 L282.79 316.39 L283.6 315.92 L283.89 315.22 L282.78 313.61 L282.34 312.71 L282.29 311.69 L282.37 310.61 L282.19 304.33 L282.33 303.22 L280.2 301.89 L277.81 295.46 L275.08 294.06 L275.87 292.18 L275.71 290.36 L274.78 288.79 L273.27 287.63 L272.36 288.62 L269.9 285.22 L267.73 281.36 L270.01 278.73 L270.44 275.54 L269.64 269.49 L270.15 266.69 L271.06 264.19 L271.44 261.87 L270.47 259.59 L272.14 258.61 L273.5 256.85 L274.52 254.84 L275.89 249.96 L276.08 247.84 L275.53 246.26 L274.84 245.27 L273.77 242.87 L272.06 240.51 L272.61 239.91 L274.19 239.46 L275.08 237.38 L275.98 235.83 L276.88 234.76 L277.75 233.93 L278.44 233.01 L278.72 231.66 L277.96 229.18 L278 228.06 L279.21 227.58 L279.91 227.09 L282.33 224.45 L283.12 223.84 L287.86 221.22 L289.22 218.04 L289.68 213.77 L289.64 205.79 L312.49 206 L332.92 206.19 L338.49 206.23 L359.97 206.41 L383.72 206.63 L404.83 206.81 L418.81 206.94 L420.04 206.79 L425.89 204.52 L434.31 205.66 L436.39 206.84 L438.96 209.22 L440.86 209.64 L441.62 209.39 L444.34 207.72 L454.82 205.48 L456.01 205.07 L456.44 203.92 L456.14 202.7 L456.11 201.46 L457.34 200.3 L458.02 199.45 L461.43 200.39 L465.83 205.29 L469 206.71 L467.87 208.82 L469.16 209.48 L472.61 209.35 L474.46 210.47 L477.08 213.17 L479.05 213.96 L478.14 210.72 L479.1 210.24 L482.69 212.15 L480.78 213.64 L479.95 213.96 L481.26 214.43 L482.64 214.28 L483.81 213.96 L484.48 213.96 L484.64 214.9 L484.51 217.87 L484.94 218.5 L493.11 217.6 L495.08 217.11 L496.02 215.88 L496.28 214.26 L496.28 212.61 L497.18 211.79 L499.11 213.69 L500.85 216.29 L501.27 217.6 L503.87 219.37 L502.44 223.09 L501.89 226.35 L507.16 226.76 L510.05 226.43 L511.27 225.82 L512.33 222.62 L513.62 222.8 L519.93 227.83 L521.98 228.42 L524.56 227.58 L526.12 229.94 L528.35 229.27 L530.47 227.09 L531.82 224.94 L532.63 224.94 L534.58 225.67 L536.32 221.75 L540.56 223.3 L542.35 222.55 L544.42 221.94 L547.22 223.04 L547.88 223.84 L548.61 225.86 L549.13 226.76 L549.86 227.16 L554.38 228.82 L555.42 229.66 L556.17 230.69 L556.46 231.66 L556.28 233.41 L556.05 234.16 L556.24 234.7 L557.29 235.83 L557.93 235.94 L561.05 237.33 L560.99 237.64 L562.56 237.4 L565.06 236.13 L567.73 235.24 L574.52 231.21 L580.32 230.41 L586.13 231.48 L597.44 234.84 L610.06 236.24 L610.63 236.85 L612.02 237.62 L613.68 238.27 L616.79 238.77 L617.75 239.33 L622.83 245.81 L624.49 246.68 L628.03 247.91 L631.2 250 L632.49 250.62 L633.38 251.56 L633.73 253.56 L634.38 254.68 L635.96 254.61 L637.75 253.92 L639.16 253.15 L639.57 255.25 L641.54 256.22 L644.12 256.79 L646.41 257.69 L647.78 256.95 L649.38 256.98 L650.85 257.59 L651.93 258.59 L652.51 260.12 L652.31 261.43 L651.93 262.68 L651.93 264.04 L653.06 266.35 L658.29 273.11 L664.26 264.54 L665.42 264.2 L668.28 265.17 L669.71 264.54 L670.13 262.45 L666.95 247.76 L662.47 236.13 L660.1 232.12 L658.96 231.11 L658.14 230.71 L657.63 230 L657.48 225.09 L657.83 223.81 L659.86 220.98 L659.84 219.81 L659.38 218.77 L659.19 217.6 L659.12 217.52 L659.04 217.17 L659.04 216.57 L659.19 215.78 L659.59 215.2 L660.18 215.03 L660.72 215.01 L661 214.87 L661.29 212.99 L660.94 211.76 L660.37 210.6 L660.1 208.89 L660.4 207.37 L661.99 204.4 L662.87 201.47 L665 200.17 L667.69 200.64 L670.16 203 L675.5 199 L676.6 197.55 L675.89 196.36 L675.13 195.77 L681.95 181.26 L687.99 168.44 L692.26 159.34 L698.3 146.52 L703.96 134.51 L705.79 130.62 L708.86 124.09 L712.65 116.01 L713.27 112.81 L712.1 110.42 L710.18 108.26 L708.56 105.75 L708.19 99.88 L713.32 90 L714.2 85.22 L713.19 82.25 L711.8 79.53 L710.74 76.71 L710.84 73.42 L712.38 70.38 L716.95 64.01 L717.7 61.16 L717.78 57.89 L721.11 49.52 L722.29 38.4 L724.42 32.46 L728.51 27.5 L733.94 23.91 L740.18 22.1 L743.24 21.9 L745.91 22.1 L756.86 24.84 L759.66 24.68 L762.27 23.35 L762.53 22.22 L762.16 20.81 L762.33 19.72 L764.28 19.53 L765.53 19.85 L767.96 20.75 L769.18 20.98 L772.86 20.54 L774.17 20.65 L775.62 21.48 L776.6 22.6 L777.67 23.26 L779.44 22.67 L780.47 22.47 L782.25 22.7 L783.06 22.65 L784.18 22.16 L785.67 20.86 L786.59 20.25 L788.8 19.21 L790 18.92 L793.58 19.15 L795.41 18.86 L798.97 17.46 L800.8 16.96 L806.13 17.13 L808.04 16.84 L810.26 15.84 L811.45 14.61 L812.54 13.2 L814.38 11.67 L816.3 10.96 L818 11.14 L821.43 12.29 L826.25 11.95 L829.09 9.3 L831.74 5.97 L836.9 3.31 L838.62 2.42 L840.64 0.93 L842.8 0 L845.84 0.47 L846.42 1.06 L846.94 2.81 L847.59 3.34 L849.44 3.53 L850.04 3.87 L854.96 8 L859.78 10.12 L865.16 10.91 L876.03 10.9 L876.75 10.75 L878.28 10.17 L879.23 10.12 L880.12 10.53 L881.41 12.01 L882.25 12.48 L883.47 12.5 L886.04 11.99 L887.19 12.08 L889.21 13.27 L890.91 15.21 L892.16 17.65 L892.79 20.29 L893.7 22.38 L895.6 22.76 L898.11 22.03 L903.19 19.56 L903.94 18.99 L904.64 19.28 L909.34 22.25 L910.61 22.73 L912.26 22.56 L916.41 20.54 L920.92 19.32 L925.56 19.28 L930.14 20.8 L932.47 23.09 L934.16 28.4 L935.9 30.34 L938.79 30.73 L941.57 29.41 L943.89 27.19 L945.43 24.9 L945.94 23.61 L946.88 19.59 L947.68 17.75 L948.66 17.44 L949.85 17.77 L951.32 17.82 L961.9 16.88 L962.7 17.05 L964.2 17.8 L965.13 17.82 L965.64 17.34 L966.19 15.52 L966.78 14.96 L968.29 14.76 L970.54 14.89 L971.75 14.38 L974.18 12.01 L975.65 10.23 L977.38 10.15 L980.7 12.89 L982.87 15.44 L988.3 24.21 L990.42 29.1 L992.04 30.73 Z "/>
</g>
</svg>
