<svg xmlns="http://www.w3.org/2000/svg" viewBox="0 0 1000 704.13">
<g fill="#ccc" stroke="#333" stroke-width="0.5" stroke-linejoin="round">
<path fill-rule="evenodd" d="M278.61 51.96 L280.76 51.29 L282.66 50 L283.54 47.86 L282.65 44.66 L283.53 42.79 L285.14 42.66 L287.02 43.53 L288.65 44.67 L290.31 45.7 L292.02 46.22 L293.71 45.96 L298.23 42.37 L299.65 39.67 L302.02 32.28 L304.1 29.07 L306.26 28.03 L308.66 28.38 L316.02 30.94 L317.85 32.28 L322.2 37.51 L327.25 41.83 L329.63 44.63 L330.4 44.94 L331.18 45.04 L331.97 44.95 L332.81 44.64 L332.96 44.58 L333.12 44.56 L333.27 44.58 L333.43 44.64 L340.29 48.08 L342.48 47.95 L342.89 47.62 L343.22 47.36 L343.83 46.62 L344.36 45.73 L344.82 44.67 L345.96 43.71 L347.14 43.36 L351.12 42.64 L353.07 43.3 L359.88 44.09 L364.23 45.56 L366.69 45.91 L374.05 45.52 L375.78 46.4 L381.27 51.5 L381.99 53.94 L384.25 53.9 L394.9 49.51 L398.23 49.68 L399.97 50.93 L405.23 52.37 L407.32 53.35 L411.17 57.04 L413.03 57.43 L413.18 57.3 L419.43 59.72 L421.73 59.81 L428.8 56.21 L434.01 56.04 L438.14 52.44 L440.57 51.12 L442.61 51.05 L448.65 52.52 L454.63 52.42 L456.69 52.94 L457.56 53.45 L461.64 55.88 L464.31 58.03 L465.96 60.09 L466.67 62.6 L466.77 64.67 L467.25 66.61 L469.12 68.77 L472.68 71.01 L481.23 74.39 L482.77 75.77 L484.09 77.6 L487.65 84.04 L490.12 87.88 L492.11 89.24 L495.52 88.63 L496.95 88.38 L504.89 86.96 L511.5 84.07 L511.51 84.05 L511.53 84.04 L515.94 79.77 L526.2 62.73 L530.72 59.56 L582.62 53.88 L589.58 51.04 L595.15 50.34 L598.35 48.93 L600.13 48.58 L605.17 49.09 L611.89 47.06 L619.63 46.98 L622.09 46.96 L627.09 44.63 L628.11 43.03 L630.45 37.64 L631.75 35.96 L634.51 33.6 L635.79 32.11 L637.42 28.74 L639.14 23.82 L640.25 18.8 L640.11 15.21 L640.88 9.97 L641.76 10.34 L643.71 10.53 L645.52 9.96 L649.03 8.2 L650.82 7.72 L655.81 7.48 L657.57 7.06 L670.91 4.05 L674.13 2.52 L679.19 0.1 L681.6 0 L684.03 2.15 L685.18 2.39 L686.32 0.65 L687.47 3.06 L689.55 3.51 L693.91 2.63 L695.7 3.54 L698.12 6.59 L699.26 5.88 L703.71 10.46 L704.38 11.65 L704.81 14.34 L705.83 13.79 L707.04 12.03 L707.99 11.12 L709.31 12.27 L709.85 14.1 L710.63 15.79 L714.28 17.18 L714.28 18.55 L713.08 19.74 L711 19.87 L711 20.86 L713.9 22.6 L715.88 23.28 L717.19 22.18 L718.1 22.6 L719.06 23.41 L719.62 24.21 L719.61 24.34 L719.55 25.12 L718.44 26.57 L718.16 27.45 L718.95 31.33 L720.8 34.37 L723.33 36.65 L726.1 38.25 L726.1 39.43 L723.94 40.42 L724.05 41.08 L724.21 41.68 L724.41 42.21 L724.67 42.66 L727.38 41.46 L728.77 43.48 L729.74 45.63 L731.16 44.82 L732.38 46.22 L732.49 47.69 L731.76 49.08 L730.5 50.22 L732.72 52.01 L733.39 52.37 L733.39 52.69 L733.39 53.35 L731.53 55.91 L732.68 57.34 L735.07 58.7 L736.99 60.99 L736.91 61.7 L737.08 66.57 L736.99 67.55 L738.1 68.38 L739.38 68.76 L740.53 69.33 L741.33 70.67 L737.71 72.93 L738.97 73.98 L740.43 76.26 L741.63 78.63 L742.12 79.96 L742.52 80.67 L744.4 82.07 L744.94 82.6 L745 82.85 L745.32 84.16 L745.16 85.84 L745.74 86.98 L745.74 87.97 L743.3 88.47 L744.26 91.92 L746.69 96.08 L753.57 105.22 L756.52 108.23 L759.84 109.49 L759.94 109.95 L760.15 110.81 L760.62 112.8 L760.96 113.77 L761.09 114.34 L761.07 115.76 L761.29 116.45 L761.7 116.73 L762.85 116.88 L763.12 116.98 L763.89 121.19 L764.57 123.47 L765.68 124.47 L766.62 124.6 L767.15 124.94 L767.56 125.32 L768.17 125.63 L770.9 125.72 L771.06 125.63 L772.5 126.21 L774.09 127.14 L775.43 128.38 L776.19 129.9 L775.32 130.59 L774.74 131.8 L774.34 133.41 L774.02 135.24 L775.9 136.89 L775.06 141.7 L776.55 142.7 L776.79 142.92 L777.98 143.96 L780.52 150.09 L781.89 152.39 L782.71 152.81 L785.57 153.45 L786.69 154.17 L787.49 154.85 L788.33 155.38 L790.97 156.03 L792.08 157.23 L794.23 161 L794.1 162.95 L795.22 164.91 L797.9 168.34 L799.17 172.59 L799.35 172.69 L799.64 173.91 L799.94 174.85 L799.75 175.51 L798.57 175.88 L799.82 177.62 L804.4 180.13 L804.4 181.18 L803.76 182.32 L804.23 182.78 L805.23 183.11 L806.22 183.84 L809.45 187.44 L812.45 189.41 L813.77 190.61 L813.8 192.84 L816.38 193.35 L818.86 194.92 L821.16 196 L823.25 194.96 L824.2 197.53 L824.31 197.68 L827.58 201.86 L829.03 204.49 L831.1 210.13 L831.38 212.44 L831.43 212.83 L830.52 215.16 L832.29 216.38 L832.37 218.14 L832.24 219.99 L833.42 221.5 L833.42 222.65 L833.25 224.5 L833.13 225.73 L834.85 230.07 L839.12 237.42 L839.11 240.32 L845.04 252.25 L846.11 256.42 L846.2 257.03 L846.44 258.66 L846.42 260.77 L845.72 262.42 L844.66 264.34 L844.12 266.55 L845.04 269.08 L844.05 269.75 L843.66 270.91 L843.44 276.67 L843.66 277.89 L845.04 280.61 L845.46 280.99 L845.91 280.85 L846.27 281.01 L846.42 282.28 L846.43 287.04 L846.3 288.32 L845.68 289.48 L844.19 290.24 L844.95 292.32 L844.46 293.19 L844.26 293.27 L843.5 293.61 L842.8 294.33 L842.19 299.01 L841.68 299.66 L840.41 300.09 L840.15 301.21 L840.58 304.31 L840.68 306.19 L840.51 306.72 L839.08 309.89 L837.81 311.15 L836.81 311.68 L835.61 312.05 L834.58 312.61 L834.14 313.66 L834.5 316.27 L834.25 317.1 L833.06 317.42 L831.8 317.99 L832.02 319.29 L833.96 322.49 L834.62 323.38 L835.25 324.43 L835.58 325.77 L834.37 329.32 L833.75 333.08 L831.97 338.24 L831.68 339.06 L830.94 341.21 L830.1 341.76 L829.81 342.53 L829.85 343.35 L830.49 343.8 L830.52 344.62 L829.21 349.96 L829.03 351.46 L829.39 353.62 L831.97 361.25 L832.16 362.95 L832.43 363.86 L833.06 364.92 L833.5 366.12 L833.27 367.27 L832.84 368.43 L832.7 369.64 L832.99 370.76 L833.93 372.69 L834.14 373.26 L833.84 374.02 L832.44 375.03 L831.97 375.85 L832.26 380.25 L833.91 384.85 L835.77 388.47 L836.67 389.88 L837.6 405.07 L837.39 407.51 L838.04 409.47 L836.54 410.22 L833.06 410.19 L831.67 410.69 L829.92 411.96 L828.19 413.64 L826.85 415.34 L832.76 418.5 L835.19 420.39 L836.96 423.6 L837.37 424.54 L837.63 424.86 L837.77 425.21 L837.82 430.29 L838.57 431.84 L841.38 435.24 L842.8 436.99 L843.03 436.96 L845.41 436.71 L848.5 438.45 L850.57 441.28 L850.02 444.27 L853.15 452.4 L855.2 456.15 L857.64 457.73 L859.43 458.21 L863.13 460.34 L872.54 462.77 L881.3 467.4 L895.37 470.57 L899.31 470.04 L902.62 469.95 L903.97 469.37 L905.16 467.99 L902.16 466.6 L901.42 465.94 L900.92 464.83 L900.61 463.48 L900.81 462.33 L903.84 460.79 L903.67 458.53 L903.79 456.37 L906.6 455.68 L908.24 456.24 L911.02 458.23 L913.43 458.67 L914.78 459.62 L916.51 461.49 L918.61 462.74 L921.04 461.84 L921.52 460.8 L921.84 457.9 L922.48 456.61 L923.24 456.03 L924.17 455.76 L926.51 455.68 L927.95 454.95 L933.38 450.45 L937.69 449.21 L939.51 448.38 L941.03 446.79 L941.9 446.37 L944.46 446.21 L944.99 445.78 L945.39 444.7 L946.28 443.62 L947.88 442.23 L950.15 440.97 L951.89 440.9 L953.61 441.23 L955.83 441.19 L956.74 440.84 L957.67 440.19 L958.49 439.41 L959.1 438.62 L960.09 437.94 L961.24 438.2 L962.39 438.81 L963.43 439.14 L971.56 439.97 L986.27 445.31 L991.2 449.77 L992.45 450.45 L994.79 452.66 L996.57 457.81 L997.12 463.66 L995.74 467.99 L996.34 468.93 L996.5 470.02 L996.26 471.14 L995.71 472.23 L994.78 472.03 L992 472.14 L992 473.07 L993.58 475.27 L994.73 477.95 L996.56 479.99 L1000 480.35 L997.56 482.93 L996.28 487.07 L995.42 500.25 L994.84 502.77 L993.44 507.01 L993.17 509.13 L993.03 511.55 L992.74 513.74 L992 515.17 L992.69 518.38 L990.02 522.5 L991.36 525.27 L990.65 527.08 L989.81 527.67 L988.81 527.83 L987.73 528.43 L986.23 530.72 L985.43 531.42 L983.34 530.29 L982.19 530.52 L981.07 531.08 L980.06 531.38 L959.43 534.62 L946.34 535.5 L942.53 536.76 L931.93 544.09 L928.82 547.14 L926.1 550.97 L925.38 549.87 L925.48 547.67 L924.05 544.94 L923.38 542.64 L925.74 541.64 L928.3 541.18 L932.19 539.16 L936.41 538.1 L938.78 536.44 L940.69 533.84 L941.33 530.46 L940.71 528.59 L939.35 526.61 L936.22 523.24 L936.79 525.62 L936.96 526.79 L937 528.43 L935.32 528.07 L933.8 529.15 L932.4 529.61 L931.16 527.4 L930.69 524.66 L930.44 515.68 L931.53 512.85 L936.47 511.01 L937.72 509.06 L936.78 507.52 L932.19 504.43 L930.8 503.86 L927.55 503.86 L924.25 502.74 L923.15 502.94 L922.77 503.7 L922.44 505.09 L921.82 506.42 L920.66 507.01 L918.31 507.18 L917.23 507.62 L913.34 511.34 L912.21 513.05 L911.6 516.19 L911.76 517.04 L912.74 517.79 L912.98 518.79 L912.77 519.65 L912.29 520.05 L911.8 520.31 L911.6 520.78 L911.91 522.11 L912.65 523.25 L913.5 524.04 L915.88 525.08 L920.99 530.46 L919.65 531.92 L919.06 532.32 L918.09 532.49 L919.09 533.31 L919.55 533.51 L919.55 534.62 L918.23 535.48 L918.14 536.87 L918.94 538.38 L920.33 539.62 L919.3 540.4 L917.97 540.72 L913.27 540.9 L912.15 541.35 L905.77 545.33 L904.7 546.32 L903.7 548.4 L903.51 550.32 L904.21 551.13 L905.76 549.87 L905.32 551.67 L903.33 552.35 L902.87 554.49 L903.19 556.87 L904.08 557.54 L909.69 556.53 L912.22 555 L914.54 552.72 L916.72 549.87 L915.21 546.83 L922.58 549.18 L924.27 550.42 L924.71 553 L923.84 555.97 L922.02 558.34 L919.55 559.1 L921.41 556.59 L923.14 553.75 L923.42 551.28 L920.99 549.87 L920.99 550.97 L921.79 552.01 L921.56 552.48 L919.55 553.01 L918.01 551.99 L917.38 551.9 L916.91 552.31 L916.45 553.01 L915.93 554.02 L913.91 555.55 L910.61 559.09 L908.71 560.11 L903.59 562.76 L902.15 564.07 L903.98 560.65 L904.32 559.1 L902.74 558.87 L901.38 559.18 L900.42 560.21 L899.98 562.15 L901.36 562.15 L900.71 563.64 L901.11 564.8 L902.17 565.65 L903.59 566.19 L899.38 567.49 L897.76 568.96 L897.76 571.27 L898.23 570.56 L898.95 569.83 L899.26 569.24 L900.76 570.1 L902.15 571.27 L901.24 573.26 L899.95 577.03 L899.13 581.08 L899.62 583.96 L900.49 584.17 L901.32 583.09 L901.91 581.44 L902.59 577.93 L903.62 576.75 L905.76 575.31 L908.91 571.01 L910.76 568.98 L912.65 568.13 L914.65 567.6 L916.11 566.01 L917.03 563.98 L918.09 561.14 L917.4 564.04 L916.47 566.53 L909.53 579.96 L904.53 583.78 L895 596.64 L893.91 600 L893.58 601.81 L892.21 600.74 L890.54 601.48 L889.14 602.71 L888.05 604.41 L887.44 606.21 L887.15 608.27 L887.01 613.89 L887.46 615.71 L889.14 618.85 L890.62 623.5 L890.93 625.7 L890.59 626.99 L891.31 628.01 L889.9 627.16 L888.58 627.52 L887.56 628.66 L886.99 630.1 L887.69 632.84 L889.45 644.76 L891.26 652.35 L891.31 653.23 L891.04 654.43 L890.07 655.81 L889.54 658.52 L888.05 662.8 L887.71 664.79 L885.18 669.85 L884.72 671.27 L883.04 679.33 L882.42 680.69 L882.09 682.07 L882.59 683.46 L882.12 684.77 L881.88 686.24 L881.81 687.8 L881.93 689.36 L881.44 690.79 L866.23 691.68 L843.68 687.76 L821.85 677.79 L818.27 674.96 L813.5 658.07 L810.98 653.84 L810.98 653.82 L805.1 654.51 L797.79 658.66 L790.85 660.37 L786.71 654.71 L786.03 653.79 L783.93 649.33 L781.52 648.46 L775.29 650.45 L755.12 650.62 L753.97 649.79 L751.92 646.18 L750.67 645.04 L744.71 642.18 L742.49 639.64 L742.98 636.3 L741.25 634.96 L741.09 634.83 L738.51 635.08 L736.27 633.82 L725.14 631.57 L717.44 626.78 L714.7 628.54 L702.28 629.8 L692.27 635.78 L688.49 636.93 L683.73 636.93 L682.52 637.23 L680.41 638.56 L679.41 638.85 L677.29 639.1 L673.74 640.36 L652.76 643.46 L643.93 644.76 L641.63 645.1 L633.27 648.8 L624.73 651.02 L621.08 653.01 L617.18 657.39 L615.31 660.22 L614.53 662.49 L601.81 671.88 L600.81 673.6 L599.95 675.69 L594.97 682.06 L591.8 683.89 L588.3 687.51 L588.11 688.06 L585.65 692.15 L581.25 694.06 L580.55 694.08 L574.04 694.29 L572.15 695.64 L570.5 697.23 L568.24 698.62 L565.85 699.66 L563.86 700.14 L561.9 701.16 L559.5 701.41 L554.73 701.14 L554.06 701.26 L552.47 701.55 L548.1 703.5 L545.68 704.13 L541.07 703.51 L537.21 701.26 L533.58 698.44 L533.23 698.24 L529.73 696.15 L525.39 695.09 L511.68 694.06 L499.21 689.57 L476.89 691.15 L471.92 690.43 L467.28 688.69 L450.19 682.27 L446.61 681.84 L442.9 683.05 L437.01 687.48 L435.18 688.05 L432.91 688.16 L414.16 689.08 L413.12 688.82 L376.14 679.49 L370.11 675.93 L367.77 675.48 L358.82 677.48 L357.21 677.21 L354.23 676.71 L342.81 670.37 L325.94 669.5 L316.35 670.86 L312.38 672.99 L308.68 673.79 L305.5 675.16 L297.11 675.92 L283.05 677.18 L279.79 676.4 L277.12 674.07 L275.8 671.29 L275.75 667.97 L278.31 656.95 L279.49 653.65 L281.6 652.26 L283.78 651.94 L287.99 650.55 L290.3 650.24 L293.99 648.19 L295.79 643.67 L294.83 639.15 L292.44 638.06 L290.3 637.09 L285.49 636.44 L281.66 634.76 L258.95 619.2 L258.85 619.13 L258.29 616.95 L258.72 609.85 L257.88 607.84 L255.87 606.9 L251.5 606.28 L247.44 604.43 L243.9 601.39 L241.08 597.53 L239.23 593.24 L239.11 592.11 L239.36 589.77 L239.26 588.66 L238.79 587.63 L236.57 585.58 L236.25 584.37 L236.27 582.44 L236.55 580.45 L237.01 579.06 L237.74 578.4 L238.72 578.08 L242.44 577.91 L243.8 577.29 L244.68 575.84 L245.01 573.28 L245.62 570.81 L247.19 569.31 L249.29 568.67 L251.5 568.76 L253.72 569.66 L257.56 572.27 L259.85 572.82 L261.88 572.45 L264.24 571.34 L266.1 569.43 L266.72 566.74 L261.39 560.76 L259.85 559.64 L251.5 558.63 L247.94 556.85 L244.32 553.91 L236.96 545.75 L235.4 544.83 L233.45 544.42 L230.86 544.32 L229.75 545.19 L226.07 549.25 L224 550.51 L219.62 551.51 L218.06 552.69 L217.43 555.03 L205.39 576.79 L204.01 578.23 L201.49 578.89 L199.2 578.63 L196.84 577.6 L195.01 575.8 L193.88 571.5 L192.91 570.54 L191.71 569.81 L190.59 568.76 L190.02 567.62 L189.64 565.75 L189.43 564.76 L189.21 563.69 L186.26 556.53 L185.21 555.49 L181.84 554.93 L172.27 549.92 L170.53 549.55 L168.71 550.04 L164.84 551.72 L160.1 552.7 L154.63 552.74 L149.47 551.16 L145.6 547.25 L144.6 544.57 L143.97 541.89 L143.05 539.51 L141.19 537.76 L139.12 537.17 L132.65 537.71 L123.65 536.7 L121.94 535.89 L120.1 531.95 L118.2 530.5 L118.11 530.46 L116.32 529.67 L116.7 527.63 L117.66 526 L119.04 524.76 L121.87 523.75 L128.01 524.06 L130.98 523.61 L135.28 522.39 L136.78 521.12 L137.07 518.25 L136.22 515.84 L134.67 514.46 L130.98 513.01 L128.34 511.7 L123.26 510.81 L120.8 509.14 L120.73 508.33 L121 507.34 L120.67 506.57 L118.88 506.48 L117.44 506.1 L117.22 504.84 L117.73 503.3 L118.49 502.11 L119.54 501.57 L122.24 501.38 L123.35 500.99 L124.68 499.88 L125.02 499.16 L125.07 498.11 L125.49 496 L125.8 495.38 L126.7 494.29 L127 493.67 L127.06 492.92 L127.06 491.82 L127 490.89 L126.85 490.67 L127.65 489.46 L128.56 488.51 L129.66 487.96 L130.98 487.88 L132.32 486.72 L132.71 484.83 L132.23 482.85 L131.29 481.71 L128.65 478.51 L125.94 476.29 L122.95 474.67 L111.72 471.14 L107.26 471 L105.37 470.21 L101.86 467.72 L100.13 465.67 L96.53 460.32 L94.81 459.04 L93.73 459.31 L92.02 461.2 L91 461.69 L89.75 461.39 L88.82 460.55 L87.92 459.51 L86.83 458.65 L81.83 456.37 L78.11 454.66 L76.49 453.34 L72.42 447.94 L65.59 441.73 L62.13 436.64 L60.61 435.08 L58.86 434.22 L56.97 433.61 L55.44 432.59 L54.77 430.48 L57.14 428.56 L58.67 426.99 L58.94 424.87 L57.59 421.38 L54.48 416 L54.1 413.53 L54.92 409.75 L56.09 406.98 L56.51 405.68 L56.8 403.53 L56.71 395.66 L56.97 394.11 L57.39 392.67 L57.41 391.29 L56.54 389.81 L55.24 389.13 L54.07 389.62 L53.14 390.92 L52.51 392.67 L51.18 393.77 L49.76 394.2 L48.35 393.89 L47.08 392.72 L46.08 390.67 L43.65 387.53 L42.62 385.8 L42.37 384.83 L42.24 384.35 L42.01 381.26 L41.65 379.99 L40.91 379.05 L39.07 377.8 L38.33 377.09 L34.82 370.78 L33.19 369.15 L31.21 368.35 L27.18 367.9 L25.26 366.98 L19.69 361.81 L17.71 360.46 L13.55 358.61 L11.75 357.25 L10.13 354.8 L7.91 347.83 L6.64 345.54 L0 337.23 L4.27 331.79 L21.29 331.31 L23.87 327.15 L28.19 328.14 L32.37 329.9 L35.45 332.74 L36.5 333.46 L37.78 333.95 L38.57 333.97 L44.54 332.71 L46.6 331.65 L48.22 329.85 L48.79 328.35 L48.81 328.01 L48.91 326.16 L49.43 325.02 L50.23 324.73 L51.21 325.08 L52.22 325.24 L53.07 324.38 L53.08 323.16 L52.1 319.76 L52.04 318.33 L52.5 317.47 L56.65 314.02 L57.58 313.51 L58.78 312.87 L60.99 312.24 L63.12 312.34 L64.1 312.84 L66 314.47 L66.86 314.89 L67.91 314.8 L69.46 313.93 L70.19 313.7 L72.08 314.1 L76.02 315.81 L78.11 315.74 L79.07 315.32 L79.98 315.32 L80.81 315.74 L81.54 316.62 L83.61 318.41 L85.51 317.69 L90.56 311.53 L91.24 311.17 L94.33 311.2 L95.34 310.4 L96.56 308.07 L97.47 305.12 L97.9 298.3 L98.97 294.97 L100.75 292.88 L102.82 292.15 L107.3 291.95 L109.75 290.08 L109.08 286.71 L105.99 280.79 L106.25 277.63 L107.74 275.19 L109.56 272.88 L110.87 270.06 L111.29 264.17 L111.89 261.26 L113.51 259.31 L115.77 258.73 L119.66 259.03 L121.95 257.81 L124.14 254.91 L124.85 252.9 L125.06 252.32 L126.2 250.51 L129.08 250 L131.2 248.8 L133.13 245.92 L133.49 242.88 L130.63 240.92 L130.32 240.63 L130.04 240.26 L129.82 239.83 L129.91 238.9 L130.15 238 L130.51 237.17 L130.98 236.44 L133.25 230.21 L134.6 227.69 L136.81 225.62 L140.67 224.58 L141.76 223.62 L142.65 221.65 L142.61 219.97 L142.25 218.32 L142.15 216.44 L142.32 214.61 L142.45 214.2 L142.92 214.02 L147.75 210.04 L148.65 208.91 L150.66 201.26 L151.06 201.11 L151 200.95 L150.04 199.14 L149.31 198.54 L148.3 198.33 L147.39 197.89 L147.14 197.07 L146.98 196.56 L151.12 191.59 L153.48 189.35 L158.69 185.86 L160.83 183.75 L161.54 182.38 L162.07 179.64 L162.54 178.23 L163.54 176.74 L165.88 174.5 L166.77 173.25 L167.41 171.34 L167.38 169.9 L167.13 168.49 L167.16 166.69 L167.6 164.96 L168.82 162.65 L169.38 161.23 L170.59 155.65 L171.24 153.83 L175.32 147.86 L177.25 145.68 L179.15 144.51 L183.86 143.12 L185.98 138.79 L185.84 133.58 L184.91 128.16 L184.64 123.29 L186.65 119.46 L189.77 116.03 L196.34 111.07 L201.52 109.76 L202.12 109.31 L202.95 108.68 L203.51 107.49 L203.54 107.32 L203.7 106.3 L203.77 105.14 L204.09 104.11 L206.71 100.35 L207.04 99 L207.4 96.12 L207.79 94.95 L208.57 93.97 L210.36 92.67 L211.17 91.85 L213.49 88.33 L214.69 87.09 L216.65 86 L218.53 85.31 L219.87 85.18 L224.76 85.92 L226.27 85.79 L227.67 85.21 L228.89 84.05 L230.61 77.84 L233.86 77.08 L241.7 81.23 L245.35 81.83 L249.39 81.24 L253.25 79.57 L256.34 76.86 L258.95 73.41 L260.24 72.39 L262.4 71.4 L264.68 71.16 L265.31 70.74 L266.21 68.97 L266 67.81 L265.47 66.8 L265.42 65.45 L266.56 63.32 L268.25 62.13 L272.49 60.55 L274.22 58.95 L276.88 54 Z "/>
</g>
</svg>
