<svg xmlns="http://www.w3.org/2000/svg" viewBox="0 0 1000 871.3">
<g fill="#ccc" stroke="#333" stroke-width="0.5" stroke-linejoin="round">
<path fill-rule="evenodd" d="M77.87 818.97 L70.37 810.56 L60.26 805.57 L45.55 803.99 L38.99 801.39 L20.61 789.37 L16.8 785.44 L20.1 747.79 L16.8 736.33 L11.73 731.18 L6.21 728.53 L1.83 725.52 L0 719.21 L1.78 712.74 L10.33 705.1 L8.6 699.08 L3.61 690.17 L1.78 680.39 L0.79 669.84 L4.48 656.9 L11.4 650.94 L24.63 646.36 L34.92 643.35 L43.44 638.31 L50.44 631.18 L56.14 622.26 L59.86 614.93 L61.54 609.63 L62.12 605.35 L67.19 600.61 L71.36 599.13 L85.53 599.59 L107.45 593.79 L124.4 580.39 L136.71 561.19 L144.45 537.86 L147.3 517.28 L146.28 499.56 L133.2 422.2 L132.13 404.17 L134.58 386.55 L143.84 364.85 L162.22 335.44 L174.84 315.26 L185.22 295.55 L191.17 286.84 L214.94 267.14 L219.93 260.67 L233.42 232.87 L239.12 225.54 L246.86 222.28 L284.5 220.75 L285.72 220.45 L286.81 219.73 L287.83 218.66 L289.49 216.05 L298.98 201.1 L315.93 183.43 L335.57 169.28 L354.91 162.4 L374.71 163.47 L385.05 162.71 L394.21 160.21 L404.36 154.51 L411.97 149.01 L420.22 144.74 L432.18 142.6 L438.03 143.92 L448.52 150.29 L451.93 151.51 L456 149.11 L458.95 139.39 L463.4 134.1 L467.96 131.24 L472.23 129.97 L476.61 130.63 L476.66 130.63 L482.06 133.38 L495.9 153.49 L498.09 163.83 L499.26 184.09 L504.05 194.53 L512.5 202.42 L522.12 205.17 L532.47 204.05 L543.29 200.03 L576.73 181.5 L581.82 180.43 L586.3 169.68 L592.71 163.06 L595.27 161.69 L609.81 153.9 L629.92 146.06 L635.26 141.07 L637.81 133.59 L640.81 114.49 L644.32 107.77 L648.19 105.48 L652.11 104.82 L656.03 104.52 L659.67 103.45 L667.28 98.92 L689.19 78.09 L695.63 69.85 L700.92 60.94 L701.86 57.68 L702.96 50.6 L704.38 47.65 L706.06 46.26 L707.84 44.8 L716.09 41.08 L719.09 38.59 L721.64 31.1 L724.82 10.74 L728.97 3.72 L736.5 1.02 L744.64 2.24 L753.04 4.68 L761.34 5.75 L769.07 3.82 L775.54 0.92 L782.23 0 L789.72 2.33 L795.12 4.01 L791.21 8.09 L787.42 13.49 L785.87 19.04 L787.5 24.33 L794.68 29.27 L796.3 35.99 L795.26 38.89 L793.4 41.69 L792.08 44.65 L792.89 47.6 L797.22 50.5 L801.14 49.89 L804.35 48.16 L806.38 47.6 L812.44 51.98 L814.53 55.03 L816.46 67.76 L819.46 74.94 L828.42 89.8 L831.32 99.83 L835.9 105.79 L836.9 109.81 L836.41 111.34 L835.29 113.48 L834.12 116.38 L833.61 120.04 L836.26 127.94 L842.62 132.72 L857.13 138.73 L862.32 142.39 L869.7 149.42 L874.23 152.17 L906.75 164.24 L916.42 165.61 L925.99 171.41 L928.79 184.3 L927.88 197.13 L926.35 202.93 L923.73 205.78 L926.66 212.2 L934.8 223.09 L940.91 229.61 L943.1 233.38 L947.88 251.1 L952.61 262.2 L960.32 268.26 L972.03 263.78 L975.62 274.21 L975.21 286.89 L968.85 325.75 L968.7 331.04 L969.82 333.59 L974.19 340.31 L975.42 344.84 L969.77 358.39 L971.5 363.58 L975.42 383.34 L972.72 391.69 L967.7 399.07 L964.93 406.66 L968.7 415.47 L960.71 421.74 L957.7 424.95 L955.26 428.92 L970.02 431.26 L971.5 444.3 L965.01 472.97 L974.22 470.98 L983.1 475.42 L990.61 482.95 L995.88 490.08 L1000 504.4 L983.05 559.25 L978.78 580.95 L980.86 614.67 L978.78 624.71 L973.69 633.93 L967.27 638.56 L959 642.23 L951.39 646.61 L944.52 648.29 L940.96 650.33 L936.48 651.55 L932.46 650.58 L906.75 637.9 L901.46 636.22 L895.1 637.09 L889.45 641.52 L882.42 654.76 L876.9 659.4 L866.6 659.96 L855.91 656.9 L845.42 655.58 L835.9 661.18 L819.72 660.57 L803.33 652.88 L776.58 630.92 L773.76 627.05 L771.21 620.12 L768.87 617.42 L767.19 618.03 L751.62 614.31 L749.22 613.09 L741.31 615.44 L736.5 619.92 L734.46 622.6 L732.2 625.57 L725.86 631.43 L718.79 635.05 L709.52 638.05 L700.11 639.99 L692.17 640.35 L686.06 638.97 L670.69 631.48 L664.96 630.92 L663.21 634.23 L662.95 638.87 L661.93 642.33 L639.69 670.25 L631.29 676.06 L620.3 676.41 L609 672.03 L598.72 665.21 L590.62 658.12 L575.36 640.04 L569.35 635.4 L563.72 633.42 L558.99 633.26 L554.84 633.67 L551.03 633.11 L542.35 625.65 L541.5 624.91 L538.12 622.01 L534.18 619.77 L529.14 619.92 L527.71 622.67 L527.77 627.25 L524.56 652.47 L528.1 690.37 L517.43 727.61 L515.37 778.17 L515.14 783.66 L512.5 794.51 L507.81 805.26 L501.81 815.45 L495.24 824.37 L485.16 834.61 L475.9 840.07 L465.95 841.95 L453.71 841.6 L442.71 838.28 L437.06 838.33 L433.4 842.92 L431.77 853.26 L429.63 857.85 L424.85 860.76 L413.83 862.13 L404.54 860.7 L384.05 853.94 L378.79 852.19 L375.27 851.99 L360.61 857.29 L356.95 859.53 L353.03 861.06 L347.94 860.86 L337.15 862.28 L327.94 868.15 L318.57 871.3 L307.12 864.83 L289.3 861.51 L279.79 859.74 L270.96 860.76 L249.71 869.98 L237.59 871.1 L233.24 861.72 L232.66 855.56 L228.08 845.32 L226.96 839.61 L228.64 834.46 L235.46 826.1 L236.52 820.5 L233.52 814.38 L222.83 804.35 L222.72 803.89 L221.03 797.21 L221.66 791.4 L221.31 789.11 L215.3 784.63 L206.29 779.48 L195.88 776.98 L175.09 774.39 L164.1 771.02 L134.19 757.98 L126.18 756.81 L97.52 758.69 L86.35 769.65 Z "/>
</g>
</svg>
