<svg xmlns="http://www.w3.org/2000/svg" viewBox="0 0 1000 2092.61">
<g fill="#ccc" stroke="#333" stroke-width="0.5" stroke-linejoin="round">
<path fill-rule="evenodd" d="M980.44 536.68 L1000 691.93 L999.58 830.02 L937.99 1236.02 L952.77 1468.55 L889.31 1726.31 L875.57 1762.73 L860.17 1769.16 L796.09 1787.15 L774.24 1801.72 L750.52 1852.28 L704.33 2053.42 L672.49 2084.04 L656.68 2092.61 L631.29 2092.61 L537.66 1964.52 L155.22 1815.43 L69.5 1712.17 L53.27 1684.53 L22.06 1650.04 L2.08 1610.18 L37.66 1527.69 L43.28 1474.33 L37.66 1370.61 L29.55 1336.75 L14.98 1310.18 L2.08 1276.74 L0 1223.16 L13.32 1167.43 L59.51 1069.26 L69.5 1025.53 L97.38 952.22 L219.73 774.7 L265.5 656.34 L389.93 467.84 L416.56 446.61 L466.5 418.3 L491.89 392.99 L503.95 360.39 L523.93 267.3 L544.32 230.83 L669.37 50.63 L741.78 0 L840.62 32.61 L817.73 123.57 L851.85 170.77 L907.62 202.95 L948.81 248.85 L962.96 314.49 Z "/>
</g>
</svg>
