<svg xmlns="http://www.w3.org/2000/svg" viewBox="0 0 1000 4143.75">
<g fill="#ccc" stroke="#333" stroke-width="0.5" stroke-linejoin="round">
<path fill-rule="evenodd" d="M512.28 4136.4 L514.56 4138.7 L515.29 4139.9 L515.82 4142.03 L512.42 4143.75 L507.87 4141.48 L499.39 4134.88 L499.39 4133.86 L500.46 4131.15 L501.35 4130.18 L502.9 4129.77 L508.13 4129.38 L509.59 4129.77 L510.37 4130.93 L511.6 4134.94 Z M240.71 3657 L241.93 3655.44 L242.47 3654.96 L247.82 3655.44 L249.77 3656.72 L251.45 3658.42 L253.95 3659.92 L253.44 3661.08 L252.92 3661.87 L252.33 3662.43 L251.61 3662.86 L247.84 3666.7 L245.68 3668.29 L244.21 3668.32 L241.08 3664.94 L237.52 3661.89 L238.63 3660.52 Z M991.85 936.96 L993.25 936.72 L996.66 936.76 L998.14 936.14 L999.16 938.21 L999.82 939.99 L1000 941.69 L999.64 943.43 L998.59 945.33 L997.31 946.36 L995.83 947.14 L994.12 948.37 L993.85 947.69 L993.46 947.32 L993.01 947.08 L992.56 946.68 L990.93 948.33 L989.04 949.4 L987.07 949.62 L985.19 948.73 L984.13 947.2 L984.4 945.91 L985.17 944.6 L985.61 943.03 L986.34 941.26 L988.05 939.45 L990.11 937.93 Z M7.01 0.79 L8.02 2.53 L12.24 5.72 L14.02 7.79 L12.83 8.55 L10.18 9.73 L8.92 10.61 L7.69 11.15 L4.47 11.3 L3.04 11.72 L1.29 11.06 L0.77 9.81 L0.62 8.35 L0 7.07 L1.27 5.32 L3.09 1.32 L4.68 0 L5.03 0.86 L5.44 1.32 L6.06 1.32 Z "/>
</g>
</svg>
