<svg xmlns="http://www.w3.org/2000/svg" viewBox="0 0 1000 2430.78">
<g fill="#ccc" stroke="#333" stroke-width="0.5" stroke-linejoin="round">
<path fill-rule="evenodd" d="M791.4 1051.69 L748.76 1093.22 L694.85 1185.22 L647.24 1218.54 L669.41 1218.54 L647.24 1241.29 L631.98 1218.91 L608.36 1204.87 L578.2 1198.77 L543.67 1199.52 L543.67 1176.77 L588.01 1190.69 L655.6 1177.14 L655.72 1152.53 L635.98 1130.02 L626.89 1114.36 L651.61 1090.24 L734.46 1036.52 L769.11 1007.92 L773.35 1019.73 L774.68 1030.8 L778.8 1041.37 Z M870.75 717.88 L817.57 759.3 L743.19 723.6 L561.11 594.21 L537.25 504.38 L545.25 400.34 L586.19 319.2 L578.44 307.62 L564.02 277.38 L644.34 264.31 L678.74 195.22 L699.21 107.08 L737.73 36.36 L776.14 11.46 L811.87 1 L843.85 0 L918.72 12.2 L940.16 20.42 L952.03 40.97 L970.68 85.66 L1000 221.86 L998.55 409.3 L958.09 592.97 Z M54.88 2361.4 L90.73 2383.99 L98.85 2410.3 L80.68 2422.59 L49.42 2430.78 L11.63 2427.93 L0 2411.55 L12.36 2395.91 L15.38 2383.12 L9.09 2371.95 L12.72 2363.88 L34.28 2355.19 Z M418.05 1977.24 L427.26 1988.66 L433.07 2016.61 L417.2 2037.84 L399.88 2055.35 L391.4 2082.05 L374.92 2099.93 L344.52 2101.55 L317.75 2091.12 L325.02 2081.8 L358.93 2074.35 L374.68 2054.23 L369.11 2027.16 L370.56 1997.36 L397.46 1979.23 Z M798.06 1566.8 L823.62 1520.2 L848.09 1525.42 L822.41 1585.81 L810.42 1602.95 L800.85 1604.57 Z "/>
</g>
</svg>
