<svg xmlns="http://www.w3.org/2000/svg" viewBox="0 0 1000 2259.86">
<g fill="#ccc" stroke="#333" stroke-width="0.5" stroke-linejoin="round">
<path fill-rule="evenodd" d="M975.44 2022.76 L953.47 2048.25 L936.34 2076.57 L924.38 2108.42 L918.89 2145.22 L978.35 2177.78 L1000 2184.85 L907.42 2233.68 L797.38 2259.86 L693.65 2249.01 L620.62 2184.85 L705.61 2053.91 L750.85 1998.45 L812.89 1947.46 L859.1 1930.47 L934.08 1918.66 L989.01 1940.38 Z M487.64 1431.71 L639.68 1567.88 L585.07 1740.6 L426.08 1905.91 L199.87 2081.05 L151.24 2097.57 L102.92 2065.95 L74.16 1991.61 L85.47 1945.58 L85.31 1904.97 L21.81 1846.41 L0.97 1774.85 L66.41 1686.98 L213.77 1547.32 L271.29 1318.43 L237.52 1089.85 L46.05 616.06 L33.45 521.69 L21.81 311.74 L0 217.52 L2.75 161.49 L35.39 92.63 L76.1 40.86 L120.37 6.18 L166.59 0 L213.77 32.78 L140.09 89.3 L98.89 146.53 L100.99 206.36 L157.21 271.87 L223.46 304.62 L364.52 339.03 L568.91 510.78 L575.38 567.93 L572.95 647.59 L558.25 718.69 L505.25 774.38 L487.64 828.88 L461.63 883.6 L415.9 908.47 L393.12 896.15 L382.45 868.68 L375.67 841.2 L363.06 828.88 L335.27 833.14 L265.63 868.68 L210.53 847.36 L184.2 854.94 L184.36 908.47 L201.81 940.44 L225.88 945.42 L249.15 942.58 L280.66 960.57 L303.93 961.05 L329.13 965.31 L349.49 988.04 L356.76 1027.35 L345.13 1055.52 L328.49 1075.64 L319.92 1092.45 L319.92 1330.97 L336.89 1404.52 L378.9 1426.75 Z "/>
</g>
</svg>
