<svg xmlns="http://www.w3.org/2000/svg" viewBox="0 0 1000 1018.11">
<g fill="#ccc" stroke="#333" stroke-width="0.5" stroke-linejoin="round">
<path fill-rule="evenodd" d="M807.4 687.6 L871.52 688.92 L927.23 707.7 L970.01 749.46 L994.86 819.98 L998.49 849.14 L1000 923.98 L994.86 952.08 L979.05 991.2 L966.62 1004.85 L910.66 1018.11 L767.5 1006.43 L723.71 888.53 L747.55 752.62 Z M649.44 485.29 L691.47 509.21 L728.48 562.02 L728.73 615.49 L659.97 641.63 L620.83 614.83 L587.7 493.18 L526.6 455.07 L486.32 409.35 L457.97 399.1 L360.85 404.61 L321.08 399.1 L223.09 359.15 L90.84 276.87 L0 173.03 L24.47 68.24 L36.51 57.2 L44.79 51.28 L53.95 47.73 L68.51 44.18 L106.15 28.01 L119.45 18.54 L127.98 0 L435.13 185.12 L510.66 266.88 L564.12 399.36 L598.87 459.8 Z "/>
</g>
</svg>
