<svg xmlns="http://www.w3.org/2000/svg" viewBox="0 0 1000 451.66">
<g fill="#ccc" stroke="#333" stroke-width="0.5" stroke-linejoin="round">
<path fill-rule="evenodd" d="M432.41 99.21 L434.98 107.3 L436.4 115.52 L436.98 133.14 L440.43 147.77 L447.02 156.68 L451.29 166.33 L447.6 183.27 L440.12 195.17 L431.59 204.51 L424.63 215.53 L421.79 233.23 L424 250.8 L423.54 258.71 L419.01 262.08 L401.37 261.89 L393.59 260.21 L385.76 256.47 L374.05 246.37 L367.97 238.83 L360.64 234.85 L345.12 235.97 L307.79 249.55 L192.88 262.08 L185.65 256.9 L178.02 246.68 L172.09 240.77 L160.02 234.1 L154.24 229.49 L151.76 222.76 L150.22 215.72 L143.23 200.4 L141.63 191.12 L137.9 181.9 L129.1 176.11 L118.99 172.06 L111.19 167.57 L95.21 142.54 L85.59 130.83 L66.35 123.36 L58.82 117.63 L47.47 107.05 L45.14 103.25 L44.29 95.22 L42.39 91.11 L38.15 88.75 L28.32 89.62 L24.42 88.31 L15.91 78.17 L4.54 60.61 L0 43.93 L11.92 36.46 L37.34 36.46 L65.02 46.92 L90.25 47.67 L106.77 45.3 L124.35 35.59 L132.79 33.35 L149.25 31.86 L158.66 29.49 L178.72 19.16 L187.34 16.18 L245.92 16.18 L261.07 13.81 L292.48 3.17 L309.63 0 L325.79 0.12 L342.19 3.11 L358.25 10.45 L373.32 23.52 L416.25 73.06 L416.92 76.3 L415.65 84.95 L416.25 88.31 L420.16 91.74 L429.23 95.47 Z M905.88 372.4 L939.19 368.85 L976.46 387.74 L1000 415.86 L992.19 439.94 L994.34 442.93 L997.73 450.91 L978.82 451.66 L926.21 446.17 L894.77 449.11 L880.19 447.8 L864.82 439.94 L852.69 446.55 L840.34 445.8 L816.83 439.94 L804.85 441.06 L772.99 450.91 L765.34 450.67 L758.83 448.54 L754.36 444.3 L752.66 437.88 L749.55 431.33 L742.22 428.21 L727.31 424.78 L714.09 417.67 L702.38 413.62 L690.4 412.62 L661.08 416.55 L647.98 416.11 L636.45 412.06 L625.77 403.83 L610.22 379.07 L602.41 369.97 L595.27 372.4 L590.19 372.4 L577.21 353.7 L568.5 348.27 L551.68 346.21 L536.52 339.29 L534.55 323.09 L540.54 305.39 L549.13 293.48 L607.77 272.17 L670.97 262.08 L704.92 263.63 L736.32 270.61 L841.98 312.55 L874.17 316.29 L890.35 322.22 L903.42 332.06 L910.96 346.21 L909.75 354.01 L904.79 358.62 L901.61 363.8 Z "/>
</g>
</svg>
