<svg xmlns="http://www.w3.org/2000/svg" viewBox="0 0 1000 1674.14">
<g fill="#ccc" stroke="#333" stroke-width="0.5" stroke-linejoin="round">
<path fill-rule="evenodd" d="M219.49 1291.52 L241.93 1306.81 L265.1 1331.68 L284.12 1360.5 L294.53 1387.7 L298.92 1414.36 L298.51 1430.21 L294.53 1448.42 L286.56 1467.77 L278.11 1479.88 L253.64 1502.97 L241.2 1518.01 L212.67 1565 L206.57 1567.36 L197.3 1569.51 L191.45 1573.78 L198.11 1591.01 L190.72 1595.12 L179.58 1597.31 L171.77 1599.75 L156.33 1617.11 L154.38 1620.2 L121.05 1620.97 L116.58 1620.2 L105.93 1656.13 L95.52 1669.99 L82.43 1654.34 L75.2 1671.82 L64.87 1674.14 L54.63 1664.63 L48.37 1646.86 L50 1645.56 L54.87 1628.33 L55.2 1620.2 L51.95 1610.04 L47.88 1605.65 L43.98 1603.45 L40.97 1599.75 L5.61 1485.98 L0 1476.31 L4.63 1467.45 L6.42 1458.67 L6.83 1438.55 L9.19 1430.62 L28.53 1407.57 L32.6 1398.55 L33.66 1392.17 L36.09 1385.87 L71.3 1350.46 L79.02 1346.72 L116.49 1334.04 L147.71 1308.27 L179.99 1287.86 Z M1000 25.21 L994.63 29.77 L983.42 34.28 L972.12 40.87 L966.02 51.89 L980.81 54.29 L993.98 61.4 L999.02 68.93 L989.92 72.38 L975.53 75.8 L971.71 84.5 L972.85 107.11 L967.81 126.95 L962.85 136.95 L955.53 141.18 L943.09 143.22 L939.44 148.95 L939.84 157.61 L938.7 168.47 L936.1 164.69 L933.01 157.29 L931.39 154.28 L924.72 157.2 L918.38 161.68 L909.6 145.53 L895.78 140.78 L881.15 139.8 L869.93 134.35 L866.76 103.45 L867.49 85.07 L876.76 86.61 L893.34 79.7 L901.39 70.35 L903.83 57.95 L903.91 41.64 L909.19 22.57 L922.61 7.44 L940.33 0 L958.54 4.07 L986.02 6.59 L996.99 11.47 Z "/>
</g>
</svg>
