<svg xmlns="http://www.w3.org/2000/svg" viewBox="0 0 1000 823.71">
<g fill="#ccc" stroke="#333" stroke-width="0.5" stroke-linejoin="round">
<path fill-rule="evenodd" d="M770.72 398.56 L774.19 404.32 L776.45 406.89 L778.84 407.91 L781.69 408.32 L784.37 408.3 L786.84 407.46 L790.06 404.87 L790.17 405.3 L792.6 404.94 L793.05 405.24 L793.44 405.78 L793.86 406.08 L794.39 405.66 L794.44 406.06 L794.38 406.53 L794.2 406.92 L793.89 407.08 L793.62 407.34 L793.72 407.9 L793.94 408.41 L794.06 408.51 L793.92 410.3 L794.2 410.54 L795.04 410.26 L795.68 409.77 L796.99 407.47 L797.65 406.79 L798.26 406.37 L798.63 405.79 L798.61 404.58 L799.31 404.95 L800.18 405.03 L800.91 405.19 L801.23 405.83 L801.46 406.52 L802.04 406.62 L802.78 406.63 L803.5 407.08 L803.5 407.47 L802.73 407.83 L801.75 408.13 L800.91 408.58 L800.55 409.42 L800.37 409.42 L799.28 410.61 L799.06 411.04 L798.82 411.72 L798.61 412.07 L795.8 414.16 L795.36 414.77 L795.23 415.02 L794.62 415.88 L794.39 416.34 L794.29 416.85 L794.19 418.01 L794.06 418.51 L794.04 418.81 L794.08 419.16 L794.07 419.45 L793.89 419.58 L793.38 419.55 L793.16 419.6 L793.07 419.75 L793.03 420.88 L793.08 421.46 L793.24 421.71 L796.22 421.98 L797.31 421.71 L797.89 421.35 L798.29 421 L798.73 420.74 L799.44 420.64 L802.58 421.3 L803.43 421.96 L804.82 423.52 L806.87 424.15 L807.17 426.15 L807.15 427.49 L807.05 430.83 L807.31 432.18 L808.02 433.4 L810.72 436.92 L813.2 440.14 L815.67 443.37 L818.15 446.59 L820.62 449.8 L823.1 453.02 L825.58 456.23 L828.05 459.45 L830.53 462.66 L833 465.86 L835.48 469.07 L837.95 472.28 L840.43 475.49 L842.9 478.69 L845.38 481.89 L847.85 485.09 L850.33 488.29 L852.88 491.57 L853.83 492.41 L855 492.79 L862.63 493.81 L869.22 494.69 L875.82 495.57 L882.43 496.45 L889.03 497.33 L895.63 498.22 L902.23 499.1 L908.83 499.98 L915.43 500.86 L922.04 501.74 L928.64 502.62 L935.24 503.5 L941.84 504.38 L948.43 505.26 L955.03 506.14 L961.64 507.02 L968.24 507.9 L974.73 508.76 L975.45 508.63 L978.6 504.51 L981.62 509.56 L985.45 515.98 L989.29 522.39 L993.13 528.8 L996.96 535.2 L999.48 539.41 L999.98 540.53 L1000 541.7 L998.22 547.48 L997.99 548.25 L997.67 549.26 L996.8 552.12 L995.43 556.55 L993.65 562.29 L991.55 569.09 L989.21 576.66 L986.7 584.75 L986.09 586.72 L984.11 593.1 L981.52 601.44 L979.02 609.5 L976.67 617.03 L974.57 623.78 L972.79 629.48 L971.43 633.86 L970.55 636.68 L970.23 637.68 L968.71 642.56 L961.56 645.1 L953.44 647.98 L945.31 650.86 L937.2 653.73 L929.07 656.61 L920.94 659.48 L912.82 662.36 L904.7 665.24 L896.57 668.11 L888.45 670.98 L880.32 673.85 L872.2 676.72 L864.08 679.59 L855.95 682.46 L847.83 685.32 L839.71 688.19 L831.58 691.06 L826.3 692.91 L818.8 693.98 L811.2 695.06 L803.59 696.15 L795.99 697.23 L788.38 698.31 L780.78 699.39 L773.18 700.47 L765.57 701.55 L757.97 702.63 L750.37 703.71 L742.76 704.79 L735.16 705.88 L727.55 706.96 L719.95 708.04 L712.35 709.12 L704.74 710.2 L697.14 711.28 L691.01 712.15 L686.6 713.77 L684.48 714.86 L677.66 718.38 L669.52 722.56 L660.42 727.25 L652.26 731.44 L646.18 734.57 L645.11 735.32 L641.43 739.96 L637.12 745.37 L629.62 754.82 L622.53 763.71 L617.91 769.5 L617.11 771.05 L614.87 777.25 L611.69 786.03 L610.3 787.91 L610.25 787.97 L604.84 791.15 L599.02 794.57 L597.61 795.14 L596.07 795.36 L589.81 795.09 L589.15 795.06 L588.54 794.67 L584.53 789.08 L581.02 784.16 L577.95 779.88 L576.19 778.85 L565.64 780.31 L557.8 781.4 L546.28 780.21 L537.3 779.29 L525.5 778.07 L515.44 777.03 L513.27 776.31 L505.55 771.79 L502.86 771.24 L494.88 771.18 L493.7 771.18 L487.84 771.14 L478.22 771.07 L477.19 771.3 L474.21 772.43 L472.88 772.51 L469.62 771.83 L466.72 771.72 L462.13 772.21 L458.48 773.06 L457.58 773.12 L455.58 772.54 L454.61 772.41 L453.91 772.92 L453.22 774.15 L452.49 775.04 L451.59 775.47 L450.35 775.29 L448.53 774.34 L447.72 774.25 L446.7 774.8 L445.97 775.66 L445.37 776.63 L444.62 777.37 L443.51 777.54 L442.94 777.41 L442.66 777.26 L442.5 777.02 L442.32 776.62 L442.44 775.63 L442.44 775.09 L442.16 774.96 L441.04 775.29 L440.21 775.33 L438.33 775.16 L436.56 775.36 L435.7 775.36 L434.75 775.02 L432.79 773.46 L429.47 769.73 L427.46 768.52 L423.96 767.01 L423.19 766.81 L421.57 766.74 L420.71 766.54 L419.66 766.68 L418.63 767.08 L414.45 769.72 L410.31 773.29 L408.03 776.11 L407.9 776.34 L410.61 777.24 L411.54 777.95 L412.03 779.02 L411.86 780.02 L410.8 780.55 L409.72 780.79 L408.46 781.33 L407.48 782.12 L407.19 783.1 L407.23 784.24 L406.96 785.25 L405.96 787.22 L405.68 788.25 L405.88 789.05 L406.25 789.88 L406.52 790.97 L406.51 792.05 L406.31 793.01 L405.54 794.92 L405.22 796.16 L405.41 797 L406.41 798.93 L406.98 800.74 L407.53 801.2 L409.29 801.69 L409.78 802.07 L410.1 802.61 L410.17 803.25 L409.97 803.77 L409.61 804.03 L409.17 804.23 L408.74 804.54 L408.06 805.57 L408.16 806.25 L408.6 807 L408.88 808.16 L408.9 808.24 L408.61 809.17 L407.8 809.32 L405.89 808.74 L404.7 808.51 L404.1 808.77 L403.86 809.45 L403.8 810.5 L403.6 811.44 L402.38 814.67 L401.78 815.52 L400.76 816.29 L398.68 817.53 L397.99 817.78 L396.14 818.12 L395.64 818.34 L395.45 818.99 L395.58 819.74 L395.64 820.54 L395.23 821.33 L394.01 822.19 L392.34 822.9 L390.07 823.71 L390 823.57 L390.01 821.78 L389.68 821.27 L390.33 819.65 L390.01 818.71 L387.71 816.1 L387.18 814.98 L387 814.03 L387.05 811.86 L387.61 809.75 L387.59 808.84 L386.73 808.63 L387.05 808.26 L386.48 807.73 L386 806.96 L385.89 806.26 L386.41 805.89 L386.12 805.4 L384.79 804.2 L384.49 803.85 L383.88 802.95 L382.77 801.7 L382.45 801.47 L380.93 800.63 L380.45 800.57 L379.93 800.85 L378.31 798.59 L378.97 796.4 L378.63 795.6 L378.63 793.16 L378.42 792.32 L377.96 792.02 L377.51 791.79 L377.31 791.13 L376.93 790.69 L376.06 790.63 L375.09 790.68 L374.41 790.62 L373.83 790.1 L373.36 789.3 L372.77 787.91 L372.56 787.18 L372.32 785.48 L372.09 784.8 L371.66 784.41 L369.52 783.47 L369.64 784.33 L369.99 785.12 L370.82 786.52 L369.86 787.13 L370.34 790.38 L369.82 791.3 L369.55 790.27 L369.52 786.86 L369.33 785.84 L368.69 783.91 L367.86 777.17 L367.55 775.97 L367.34 775.09 L367.62 772.61 L367.55 771.56 L367.21 770.45 L366.9 769.99 L366.44 769.8 L365.95 769.77 L365.58 769.67 L365.34 769.43 L365.25 768.99 L364.96 768.42 L359.85 764 L359.42 763.86 L359.28 764.13 L358.95 763.7 L358.44 762.66 L357.5 761.33 L357.23 760.49 L357.03 760.1 L356.68 759.94 L355.6 760.16 L355.12 760.05 L354.91 759.43 L354.67 759 L352.61 756.85 L352.53 756.94 L352.23 757.08 L351.87 757.19 L351.61 757.19 L351.15 756.73 L349.69 754.63 L349.21 754.37 L346.39 751.71 L345.37 752.14 L343.59 750.89 L342.51 751.06 L342.07 749.75 L341.23 748.92 L340.21 748.21 L339.26 747.28 L337.27 744.72 L336.97 743.88 L337.04 743.25 L337.18 742.69 L337.1 742.29 L336.49 742.14 L336.14 741.99 L336.07 741.62 L336.1 741.18 L336.02 740.81 L334.02 739 L333.29 737.97 L333.72 737.03 L332.9 735.99 L332.56 735.44 L332.42 734.79 L332.22 734.5 L331.8 734.36 L331.53 734.05 L331.75 733.27 L330.79 733.17 L329.87 732.93 L330 732.72 L330.07 732.55 L330.19 732.41 L330.45 732.25 L330.16 731.65 L329.73 731.37 L329.19 731.35 L328.54 731.57 L328.84 731.1 L329.07 730.62 L329.12 730.18 L328.86 729.83 L329.16 729.16 L328.88 728.82 L328.27 728.73 L327.53 728.81 L327.68 728.12 L327.53 727.17 L327.17 726.22 L326.74 725.56 L326.52 724.97 L326.23 723.07 L326.1 722.66 L325.99 722.24 L325.92 719.55 L325.81 719.26 L325.67 719.05 L325.45 718.92 L325.11 718.87 L324.86 718.69 L324.77 718.26 L324.74 717.79 L324.65 717.47 L322.93 716.28 L322.67 715.97 L322.6 715.44 L322.36 714.82 L322 714.3 L321.27 713.97 L320.99 713.73 L320.78 713.48 L320.7 713.37 L320.41 713.47 L319.91 713.99 L319.73 714.08 L319.21 713.89 L318.69 713.56 L318.19 713.15 L317.81 712.69 L316.54 709.85 L316 709.08 L315.4 708.43 L315.1 707.85 L315.05 707.16 L315.19 706.19 L316.32 702.9 L316.49 701.87 L316.63 701.48 L316.88 701.3 L316.94 701.02 L316.49 700.31 L316.29 700.27 L315.24 699.7 L315.19 699.62 L313.25 699.14 L312.76 697.56 L312.73 697.27 L311.81 696.04 L311.6 695.88 L311.56 695.36 L311.63 694.82 L311.92 693.82 L312.15 693.27 L312.38 692.89 L312.56 692.5 L312.66 691.58 L312.89 690.54 L313.5 689.31 L313.08 688.56 L312.21 687.99 L311.27 687.59 L309.22 686.99 L308.37 686.4 L307.89 685.01 L307.22 683.95 L307.03 683.47 L307.05 682.92 L307.4 681.76 L307.37 681.27 L307.1 680.35 L307.03 679.84 L306.83 679.4 L305.96 678.93 L305.76 678.48 L305.55 677.42 L305.04 676.87 L304.31 676.48 L303.02 675.44 L303.11 675.28 L303.17 674.67 L303.06 674.16 L302.6 673.38 L302.49 672.95 L302.42 672.42 L302.16 671.61 L302.19 671.05 L302.51 670.54 L302.95 670.14 L303.18 669.77 L302.85 669.36 L302.96 668.82 L302.86 668.29 L302.6 667.87 L302.49 667.27 L298.43 665.81 L297.31 665.2 L294.9 662.7 L293.74 662.08 L293.74 661.76 L294.26 661.83 L295.36 662.45 L295.65 660.39 L295.53 657.86 L295.19 656.76 L293.01 653.59 L292.08 652.97 L289.64 652.68 L288.69 652.72 L288.27 653.2 L288.81 654.47 L288.1 653.88 L287.49 652.83 L287.1 651.82 L287.05 651.37 L286.37 650.94 L284.44 648.09 L282.97 647.18 L282.66 646.86 L282.71 646.5 L283.31 645.16 L283.02 644.26 L282.46 643.72 L281.01 643.1 L279.23 642 L278.8 641.84 L278.36 641.15 L277.94 641 L277.51 640.76 L276.33 639.08 L275.95 638.89 L274.78 638.6 L274.37 638.55 L273.49 638.31 L272.53 637.75 L270.36 636 L268.66 634.06 L268.98 633.33 L268.18 632.78 L266.93 632.42 L265.47 632.2 L265.19 631.95 L264.75 631.3 L264 630.63 L263.58 630.14 L263.63 629.92 L263.13 629.61 L261.62 628.21 L260.86 627.84 L259.79 627.86 L258.61 628.07 L257.66 628.42 L257.26 628.85 L256.13 628.42 L254.1 627.19 L253.04 626.74 L253.1 627.39 L253.38 627.74 L253.77 628 L254.16 628.33 L254.39 628.44 L254.85 628.75 L255.13 629.08 L254.83 629.23 L254 629.01 L249.35 626.15 L248.69 625.57 L248.06 625.27 L247.12 625 L246.26 624.59 L245.52 623.05 L244.7 622.25 L242.15 620.26 L240.86 618.98 L238.04 614.39 L237.11 613.6 L237.11 613.22 L237.58 613.25 L237.96 613.19 L238.23 612.96 L238.41 612.53 L237.68 612.4 L237.07 612.05 L235.97 610.99 L235.66 610.43 L235.38 608.94 L235.16 608.37 L233.57 606.57 L233.43 605.73 L234.19 604.53 L232.55 603.97 L231.89 603.87 L232.01 604.27 L232.23 604.55 L232.52 604.76 L232.86 604.91 L231.93 604.61 L230.88 604.01 L230.26 603.25 L230.59 602.45 L230.15 602.23 L229.96 601.93 L230 601.54 L230.27 601.1 L230.48 601.49 L230.84 601.77 L231.32 601.97 L231.89 602.1 L231.66 601.5 L231.59 601.22 L231.57 600.91 L231.48 600.43 L231.25 600.41 L230.93 600.5 L230.59 600.37 L229.96 599.45 L229.7 599.43 L229.62 600.37 L228.61 599.72 L227.25 598.63 L226.27 597.37 L226.35 596.21 L226.55 596.47 L226.91 596.79 L227.24 596.9 L227.35 596.55 L227.19 595.95 L226.92 595.72 L226.57 595.6 L226.19 595.34 L225.73 595.11 L225.24 595.2 L224.74 595.41 L224.28 595.51 L224.27 595.31 L222.93 593.25 L222.63 592.51 L222.49 591.66 L222.47 590.44 L222.31 589.97 L221.66 589.53 L221.52 589.06 L221.46 588.45 L221.28 588.23 L220.97 588.13 L218.97 586.7 L218.45 586.11 L218.15 584.72 L217.71 583.72 L217.6 583.12 L217.71 582.87 L218.16 582.22 L218.25 581.91 L217.92 581.17 L216.14 578.4 L215.49 578 L214.01 575.61 L217.76 572.31 L218.29 571.07 L218.36 569.44 L217.99 567.97 L217.28 567.19 L217.28 566.91 L217.79 566.46 L217.72 565.78 L216.95 564.09 L216.35 565.18 L215.86 565.32 L215.41 564.74 L214.98 563.71 L215.33 563.4 L214.55 562.27 L214.38 560.78 L214.45 559.19 L214.36 557.79 L213.85 556.4 L213.94 555.64 L214.83 555.31 L215.09 555.02 L215.33 554.33 L215.35 553.53 L214.98 552.9 L214.62 553.97 L214.37 554.41 L214.01 554.65 L213.34 554.68 L213.19 554.43 L213.2 554.03 L213.04 553.6 L212.73 553.32 L212.52 553.17 L212.33 552.97 L212.09 552.55 L211.95 552.08 L211.88 551.24 L211.74 550.81 L211.64 550.78 L211.09 550.46 L210.99 550.29 L210.86 549.9 L210.76 549.73 L209.15 547.68 L207.78 544.62 L206.91 540.31 L206.98 539.34 L208.23 538.86 L209.52 540.51 L210.44 540.52 L210.65 539.39 L210.65 538.39 L210.76 537.85 L210.96 537.65 L211.6 537.19 L211.74 536.93 L211.83 535.96 L212.28 533.92 L212.39 532.89 L212.09 532.89 L211.41 534.64 L211.09 533.89 L211.25 533.33 L211.56 532.78 L211.74 532.03 L211.74 529.93 L212.09 528.54 L213.65 526.73 L214.14 524.55 L214.47 524.05 L214.9 523.62 L215.33 523.08 L215.98 521.65 L216.79 520.82 L216.95 520.6 L216.95 519.95 L216.69 519.36 L216.23 519.03 L215.63 519.16 L215.31 519.66 L214.98 521.12 L214.67 521.65 L213.51 521.87 L213.46 520.4 L214.07 518.25 L213.7 515.44 L214.04 512.57 L213.68 511.17 L213.32 510.48 L212 508.67 L210.76 505.79 L209.84 504.25 L209.49 503.45 L209.62 502.82 L210.87 501.66 L210.79 501.26 L208.51 498.71 L207.58 497.94 L207.17 498.19 L207.34 498.48 L208.18 499.36 L208.5 499.82 L208.65 500.37 L208.7 500.89 L208.82 501.41 L209.14 501.93 L208.79 502.28 L208.16 500.84 L206.84 498.77 L205.55 497.32 L203.1 492.86 L203.11 492.17 L204.49 492.93 L206.04 496.36 L206.87 496.62 L207.39 496.94 L207.85 496.87 L208.22 496.5 L208.5 495.92 L208 495.33 L207.2 493.77 L206.7 493.46 L206.36 493.31 L205.97 492.93 L205.68 492.41 L205.55 491.86 L205.13 491.04 L204.18 490.64 L203.1 490.38 L202.31 489.94 L201.35 490.13 L200.66 489.31 L199.68 487.12 L200.21 486.59 L200.61 485.91 L200.89 485.15 L200.98 484.43 L200.86 482.95 L200.64 482.16 L200.6 481.52 L200.04 481.27 L199.62 482.05 L199.02 480.93 L198.19 479.8 L197.32 478.08 L196.47 477.07 L196.12 475.93 L195.54 475.15 L195.4 474.45 L194.99 473.56 L195 472.81 L194.64 471.26 L194 470.04 L193.39 468.54 L193.12 466.51 L192.95 465.05 L192.67 463.92 L192.56 463 L191.76 462.15 L191.41 461.57 L191.26 460.72 L191.19 459.87 L190.13 460.47 L189.67 460.17 L189.28 460.17 L189.33 461.04 L189.77 461.49 L190.97 461.94 L190.97 462.29 L189.38 462.15 L188.34 461.17 L188.3 458.65 L186.19 455.91 L185.08 452.35 L184.74 451.17 L184.54 449.89 L184.19 448.69 L183.45 447.75 L182.97 447.51 L182.46 447.4 L181.67 447.13 L181.22 446.61 L181 445.86 L180.62 444.95 L180.04 444.2 L179.26 443.96 L178.49 443.74 L177.85 443.38 L177.38 443.01 L176.92 442.14 L176.15 441.22 L175.77 440.91 L174.99 440.34 L174.02 440.04 L173.24 439.94 L172.11 439.18 L171.5 438.72 L170.56 437.84 L169.66 436.7 L168.69 435.94 L167.88 435.19 L166.46 433.81 L166.07 433.62 L165.68 433.52 L165.26 433.71 L164.87 433.97 L163.8 433.23 L163.06 432.63 L161.11 431.39 L159.63 430.25 L159.9 429.62 L160.73 429.05 L161.9 428.86 L161.43 428.39 L160.73 428.62 L159.83 429.08 L159.48 428.41 L160.03 427.52 L160.23 426.71 L159.72 426.51 L159.41 426.9 L158.82 427.01 L158.55 427.51 L158.82 427.79 L158.98 428.26 L159.05 428.92 L159.09 429.39 L158.81 429.7 L157.76 429.3 L156.32 429.68 L154.16 428.02 L153.51 427.42 L151.67 425.96 L151.24 424.91 L150.62 424.48 L149.81 424.08 L148.95 423.61 L148.25 422.95 L147.32 422.32 L146.19 422.36 L145.66 422.3 L144.94 422.83 L144.79 423.52 L145.06 424.57 L143.04 424.64 L142.53 423.86 L141.13 423.2 L140.04 423.55 L138.99 422.45 L138.33 421.29 L137.29 419.8 L135.61 418.36 L135.07 416.6 L135.54 415.55 L135.89 415.67 L136.82 416.3 L137.22 415.48 L136.91 414.5 L130.38 404.96 L127.46 400.88 L126.08 399.03 L126.01 397.58 L126.17 397.2 L126.21 396.68 L126.16 396.16 L126.01 395.79 L125.66 395.62 L125.04 396.24 L124.55 396.31 L123.71 395.8 L123.1 394.96 L122.28 393.1 L123.49 393.13 L124.56 393.3 L125.62 393.33 L126.82 392.92 L127.41 392.04 L127.48 389.4 L128.52 387.18 L128.38 386 L127.47 383.81 L127.17 382.55 L127.47 379.46 L127.38 378.27 L127.13 377.15 L126.72 376.12 L126.17 375.15 L125.28 374.07 L124.73 373.55 L124.22 373.18 L123.77 372.77 L123.33 371.79 L122.93 371.37 L121.98 370.63 L121.05 369.59 L120.23 368.41 L119.65 367.23 L119.55 366.71 L119.45 365.54 L119.33 365.08 L119.02 364.6 L118.3 363.8 L118.07 363.29 L118.9 362.68 L118.2 361.49 L116.09 359.34 L115.73 358.67 L114.96 356.43 L114.72 356.06 L114.07 355.63 L113.82 355.35 L113.76 355.05 L113.8 354.4 L113.66 354.1 L113.25 353.46 L112.57 351.94 L112.2 351.37 L111.6 350.91 L110.21 350.34 L109.61 349.96 L107.74 346.96 L106.56 345.48 L105.53 345.4 L105.43 345.99 L105.75 346.6 L105.92 347.12 L105.36 347.45 L104.76 347.26 L103.31 346.22 L102.59 345.97 L102.17 345.69 L101.1 344.32 L100.8 343.81 L100.74 343.49 L100.8 342.36 L100.69 342.05 L100.12 341.91 L99.83 341.65 L99.25 340.32 L99.19 339.09 L99.64 337.91 L100.64 336.76 L101.26 335.68 L101.44 334.23 L101.25 332.74 L100.8 331.53 L99.67 330.32 L98.17 329.52 L96.51 329.1 L94.93 328.97 L93.23 328.35 L92.09 326.84 L89.08 319.65 L87.99 317.8 L85.93 315.01 L82.42 306.33 L78.67 299.58 L76.4 296.67 L73.65 294.2 L72.39 292.75 L71.64 290.45 L70.21 287.93 L69.27 284.62 L68.42 284.86 L67.77 284.26 L66.65 282.44 L63.57 279.68 L59.77 274.72 L58.41 272.08 L58.25 271.66 L58.19 271.13 L58.3 270.69 L58.76 269.93 L58.87 269.47 L58.64 268.83 L57.5 267.1 L53.51 262.33 L51.26 260.78 L50.68 260.26 L49.56 258.86 L48.28 256.76 L46.85 255.33 L45.04 251.97 L44.52 250.59 L44.34 249.51 L44.31 247.58 L44.03 246.57 L43.64 245.87 L42.07 244.21 L41.21 242.77 L39.99 239.49 L39 238.12 L38.56 237.81 L37.6 237.43 L37.23 237.18 L36.96 236.81 L36.75 236.08 L36.27 235.07 L36.06 233.54 L35.6 232.79 L33.15 230.02 L32.4 228.68 L31.94 228.16 L31.2 227.82 L28.9 225.98 L28.9 226.35 L28.57 226.35 L28.05 225.64 L28.66 225.09 L29.73 224.62 L30.55 224.11 L31.05 224.36 L31 224.05 L30.55 223.21 L30.27 223.09 L28.95 222.81 L28.57 222.64 L28.25 222.64 L28.25 223.01 L27.96 223.01 L27.77 222.68 L27.49 222.32 L27.16 222.03 L26.8 221.91 L25.95 221.95 L25.52 221.89 L24.96 221.31 L22.75 219.71 L22.28 220.06 L21.72 220.03 L21.22 220.03 L21.35 220.34 L21.53 220.6 L21.74 220.81 L21.26 220.56 L20.73 220.19 L20.18 219.99 L19.62 220.26 L19.14 220.57 L17.69 221.01 L17.3 221.23 L17.02 221.51 L16.85 221.91 L16.53 221.91 L16.53 221.54 L16.2 221.54 L15.58 221.71 L14.61 221.53 L13.65 221.54 L12.99 222.31 L12.86 222.03 L12.83 222.03 L12.63 221.91 L12.63 221.54 L12.99 221.54 L12.99 221.14 L12.81 220.77 L13.05 220.46 L13.49 220.23 L13.93 220.07 L13.48 219.87 L13.02 219.81 L12.53 219.88 L11.99 220.07 L11.99 220.44 L12.34 220.44 L12.34 220.81 L11.81 220.99 L11.47 221.35 L11.02 222.31 L10.87 222.08 L10.72 222.01 L10.56 221.98 L10.4 221.91 L10.59 221.59 L10.86 221.28 L11.23 221.01 L11.69 220.81 L11.67 220.6 L11.66 220.38 L11.69 220.07 L11.02 220.04 L10.49 220.16 L10.15 220.5 L10.05 221.14 L9.79 220.99 L9.71 220.96 L9.64 221.03 L9.4 221.14 L9.38 220.97 L9.4 220.61 L9.4 220.44 L9.13 220.44 L9.13 220.81 L8.75 220.81 L8.51 220.35 L8.29 220.11 L8.06 220.14 L7.78 220.44 L7.34 220.11 L7.23 219.95 L6.94 219.52 L6.77 219.27 L6.48 218.6 L6.34 218.74 L6.16 218.88 L5.97 219.06 L5.8 219.34 L5.18 218.87 L5.01 219.1 L4.98 219.64 L4.83 220.07 L4.47 220.29 L3.84 220.57 L3.53 220.81 L3.53 221.14 L4.54 221.91 L4.54 222.31 L4.23 222.33 L4.09 222.42 L4.02 222.54 L3.92 222.64 L3.53 222.31 L3.3 223.2 L3.26 223.9 L2.96 224.35 L1.91 224.51 L1.99 224.26 L2.04 224.22 L2.12 224.23 L2.26 224.11 L1.91 223.74 L1.7 222.97 L1.61 222.27 L1.59 220.97 L1.24 220.58 L0.08 221.08 L0.29 220.44 L0 220.07 L0.7 219.05 L1.15 218.66 L1.56 218.47 L1.59 218.2 L1.89 218.05 L2.29 217.67 L2.56 217.5 L2.26 217.13 L2.4 216.85 L2.58 216.63 L2.84 216.48 L3.21 216.4 L3.21 216.64 L3.1 216.7 L2.97 216.68 L2.88 216.73 L3.35 216.98 L3.75 217.11 L4.03 216.96 L4.18 216.4 L3.92 216.4 L3.92 216.03 L3.58 215.69 L3.65 215.33 L4.01 215.04 L4.54 214.89 L4.54 214.53 L4.37 214.05 L4.83 211.58 L5.01 211.69 L5.34 211.82 L5.51 211.95 L5.48 211.78 L5.51 211.21 L5.23 211.4 L5.11 211.51 L4.83 211.21 L5.79 210.29 L6.75 208.5 L7.49 206.56 L7.99 204.02 L8.92 202.62 L9.26 201 L9.6 200.09 L10.97 197.73 L10.61 195.29 L10.48 192.74 L9.77 190.3 L10.64 186.98 L11.25 185.24 L11.99 183.81 L11.99 183.47 L11.69 183.47 L12.5 182.07 L12.62 181.42 L12.34 180.82 L12.34 180.48 L12.88 178.82 L12.78 178.11 L11.99 177.86 L11.99 177.52 L12.69 176.33 L13.46 174.08 L13.82 171.78 L13.28 170.41 L13.28 169.67 L13.83 168.66 L14.28 167.49 L15.23 162.63 L15.45 161.92 L15.98 160.7 L15.91 160.36 L15.98 159.58 L16.43 159.13 L17.53 158.51 L17.21 157.59 L17.08 156.4 L17.26 155.6 L17.82 155.9 L17.87 155.73 L17.88 155.58 L17.94 155.5 L18.17 155.53 L17.81 154.72 L17.69 153.8 L17.88 153 L23.15 153.92 L28.78 154.9 L36.17 156.18 L42.77 157.33 L49.81 158.55 L55.42 159.53 L58.13 160 L63.6 160.94 L68.53 161.8 L69.84 161.75 L71.05 161.25 L76.2 156.99 L81.22 152.82 L86.74 148.24 L90.4 145.21 L93.45 140.03 L96.41 135.01 L98.59 131.29 L101.22 126.82 L102.35 125.6 L103.66 124.94 L107.77 124.08 L112 123.2 L118.83 121.78 L125.6 120.36 L131.96 119.04 L137.55 117.87 L138.57 116.96 L140.68 111.8 L142.25 107.97 L143.96 103.81 L145.35 100.4 L145.97 99.41 L147.07 98.49 L152.22 95.58 L157.96 92.35 L161.43 90.4 L161.75 90.2 L161.8 90.18 L161.82 90.16 L161.8 90.12 L159.45 87.36 L154.25 81.22 L149.03 75.09 L143.82 68.94 L138.61 62.78 L138.46 62.6 L138.31 62.43 L138.16 62.25 L138.01 62.07 L131.84 55.37 L125.75 48.76 L125.66 48.66 L119.48 41.94 L113.31 35.21 L115.13 34.67 L125.07 31.68 L136.83 28.15 L148.59 24.62 L151.37 23.78 L160.35 21.08 L162.06 20.59 L171.03 17.99 L181.7 14.89 L192.36 11.78 L203.04 8.68 L208.43 7.11 L208.44 7.11 L208.44 7.11 L210.08 6.41 L215.72 1.03 L216.64 0.34 L217.12 0.18 L217.26 0.14 L217.4 0.09 L217.53 0.04 L217.66 0 L227.05 1.61 L236.44 3.23 L245.82 4.84 L255.2 6.46 L259.01 7.11 L259.02 7.11 L259.03 7.11 L259.04 7.11 L275.22 10.24 L277.78 11.24 L280.42 12.79 L285.31 15.72 L289.47 18.22 L293.64 20.71 L297.8 23.21 L301.96 25.7 L306.13 28.2 L310.29 30.68 L314.45 33.17 L318.63 35.67 L322.79 38.15 L326.95 40.64 L331.11 43.13 L335.28 45.61 L339.44 48.09 L343.6 50.57 L347.77 53.05 L351.93 55.53 L356.17 58.05 L359.31 60.79 L363.33 64.28 L367.34 67.76 L371.35 71.24 L375.36 74.72 L379.86 78.64 L384.36 82.56 L388.86 86.48 L389.78 87.28 L393.35 90.39 L393.36 90.39 L393.36 90.39 L393.37 90.4 L398.39 94.5 L402.57 97.93 L406.75 101.34 L410.94 104.76 L415.12 108.17 L420.56 112.61 L426 117.04 L431.44 121.46 L436.88 125.89 L439.18 127.76 L442.32 130.31 L447.75 134.73 L453.19 139.14 L458.63 143.55 L463.15 147.21 L467.68 150.88 L472.21 154.54 L476.72 158.2 L480.38 161.15 L480.68 161.27 L480.99 161.39 L481.28 161.51 L481.59 161.63 L485.94 162.02 L489.72 162.37 L493.5 162.71 L497.28 163.05 L501.06 163.39 L505.93 163.84 L510.79 164.28 L515.65 164.72 L520.52 165.16 L525.38 165.6 L530.25 166.04 L535.12 166.48 L539.98 166.92 L543.6 167.25 L547.21 167.58 L550.83 167.91 L554.45 168.24 L559.45 168.69 L561.53 168.25 L562.77 167.98 L563.6 167.81 L565.68 167.36 L567.76 166.92 L573.06 167.58 L578.36 168.23 L583.66 168.89 L588.97 169.55 L593.69 170.18 L598.42 170.8 L603.15 171.43 L607.88 172.05 L610.53 172.4 L610.53 172.4 L610.55 172.41 L610.56 172.41 L611.14 173.41 L613.43 177.33 L616.06 184.56 L616.28 185.92 L616.46 188.84 L616.92 190.49 L617.57 192.09 L618.29 193.31 L619.3 194.25 L620.39 195.02 L621.28 195.95 L621.67 197.38 L624.22 197.36 L632.66 197.27 L641.1 197.18 L649.54 197.09 L657.97 197.01 L659.09 198.19 L659.68 198.62 L660.91 199.18 L661.09 199.58 L661.53 201.94 L661.53 203.74 L661.12 204.95 L660.03 204.55 L659.79 204.9 L659.74 205.06 L659.68 205.29 L660.61 205.35 L661.39 205.15 L661.98 204.65 L662.3 203.81 L662.85 204.18 L662.82 204.66 L662.3 205.65 L662.01 207.06 L661.97 207.7 L662.22 208.97 L662.82 210.05 L666.78 214.44 L667.03 215.09 L666.34 216.12 L665.99 217.13 L665.95 218.19 L666.22 219.34 L666.69 220.19 L668.19 222.27 L668.51 222.83 L668.44 223.46 L668.38 223.66 L669.13 224.11 L670.75 224.85 L671.27 224.91 L672.89 224.85 L673.31 224.97 L674.26 225.5 L674.83 225.62 L675.02 225.76 L675 226.1 L674.85 226.47 L674.67 226.72 L674.36 226.86 L674.04 226.84 L673.69 226.72 L672.88 227.13 L672.67 227.47 L672.73 228.22 L673.18 228.93 L674.14 229.91 L675.22 230.78 L676.1 231.15 L676.12 231.39 L677.19 233 L679.1 234.9 L679.33 235.45 L678.91 236.53 L678.85 237.21 L678.89 237.84 L679.05 238.12 L678.94 238.5 L678.51 239.35 L677.91 240.23 L677.26 240.71 L677.6 240.08 L677.67 239.63 L677.56 238.32 L677.7 237.56 L677.98 237.13 L678.14 236.69 L677.91 235.92 L677.21 236.67 L676.44 238.66 L675.64 239.22 L676.51 236.9 L676.62 236.29 L676.38 235.27 L676 235.35 L675.6 236.08 L674.7 239.85 L674.67 240.71 L674.56 240.84 L674.4 241.2 L674.46 241.49 L674.99 241.45 L675.26 241.19 L675.59 240.29 L675.94 239.95 L675.94 242.34 L676.13 242.91 L676.57 242.84 L677.02 242.38 L677.26 241.81 L677.6 242.4 L677.65 243.11 L677.56 244.01 L678.16 244.24 L678.62 243.97 L678.96 243.45 L679.21 242.91 L679.23 243.84 L679.13 244.16 L678.88 244.41 L679.11 244.89 L679.06 245.22 L678.76 245.4 L678.23 245.44 L678.72 246.61 L678.88 246.94 L677.73 246.35 L677.25 246.36 L676.91 246.94 L677.91 247.36 L678.76 247.3 L679.43 246.8 L679.86 245.84 L680.18 245.84 L680.51 246.6 L679.93 247.19 L679.73 248.24 L680 249.1 L680.83 249.13 L681.18 248.74 L680.97 248.36 L680.6 248 L680.51 247.64 L680.88 247.14 L681.39 246.86 L682.48 246.6 L683.4 246.51 L684.03 246.82 L685.72 248.4 L687.47 249.3 L687.93 249.94 L687.02 250.59 L687.7 250.92 L688.3 250.84 L688.58 250.47 L688.32 249.86 L689.12 250.22 L689.94 250.45 L691.75 250.59 L692.15 250.48 L692.99 249.98 L693.37 249.86 L693.87 249.92 L694.81 250.2 L695.32 250.26 L696.28 250.54 L697.01 251.23 L698.1 252.79 L698.44 253.09 L698.78 253.27 L699.1 253.5 L699.39 253.92 L699.51 254.32 L699.61 255.28 L699.75 255.71 L699.15 255.74 L698.79 255.48 L698.66 254.97 L698.75 254.28 L698.42 254.28 L697.43 255.48 L694.81 255.2 L693.88 256.11 L693.53 256.11 L693.21 255.19 L692.39 255.18 L690.59 256.11 L690.98 256.33 L692.02 256.63 L692.56 256.87 L692.98 257.18 L693.26 257.46 L693.59 257.71 L694.18 257.96 L694.49 258.38 L694.73 258.57 L694.99 258.48 L695.79 257.68 L695.8 257.57 L696.06 257.34 L696.16 257.03 L696.3 256.85 L696.62 257.04 L696.98 257.36 L697.42 257.57 L697.09 258.31 L696.64 258.68 L696.17 258.94 L695.8 259.39 L695.66 259.98 L695.63 261.37 L695.5 261.98 L696.01 261.84 L696.57 261.55 L697.11 261.15 L697.59 260.7 L698.13 260.51 L698.77 260.69 L699.75 261.25 L699.37 262.29 L699.51 263.32 L699.86 264.36 L700.04 265.45 L699.95 267.73 L700.21 268.69 L701.02 268.58 L700.96 269.55 L701.29 269.91 L701.8 269.79 L702.31 269.31 L702.07 268.51 L702.5 267.99 L703.24 267.95 L703.93 268.58 L704.22 268.18 L704.47 268.78 L704.33 269.32 L704.08 269.88 L703.93 270.58 L703.77 270.99 L703.36 271.16 L702.83 271.17 L702.31 271.09 L702.69 271.71 L703.84 271.94 L704.22 272.58 L704.7 272.29 L705.01 271.85 L705.55 270.76 L705.59 271 L705.63 271.03 L705.71 271.02 L705.88 271.09 L705.4 272.05 L705.8 272.21 L707 271.82 L707.75 271.96 L709.03 272.52 L709.79 272.58 L708.51 271.18 L708.12 270.34 L708.83 269.64 L709.41 269.61 L709.87 269.91 L710.29 270.26 L710.77 270.4 L711.14 270.23 L712.06 269.31 L711.89 270.15 L711.45 271.45 L711.42 272.22 L711.7 273.44 L711.96 274.11 L712.22 274.4 L713.11 274.82 L713.97 275.82 L716.71 280.14 L718.1 281.88 L718.52 282.21 L719.87 282.81 L720.31 283.16 L721 283.89 L721.49 284.26 L724.44 285.62 L726.29 286.98 L727.34 287.1 L728.44 287.03 L729.62 287.2 L731.09 288.05 L732.46 289.4 L734.84 292.65 L735.65 294.1 L739.11 296.61 L739.89 297.49 L740.06 298.85 L737.91 296.93 L736.76 296.2 L734.17 295.88 L733.5 295.65 L733.04 295.05 L732.67 293.09 L732.25 293.42 L731.82 294.32 L731.6 295.19 L731.56 295.85 L731.58 296.49 L731.73 297.07 L732.07 297.58 L732.54 298.08 L732.67 298.35 L732.48 301.6 L732.54 302.49 L733.82 306.53 L734.36 307.38 L735.14 308.15 L736 308.69 L740.07 310.11 L741.47 311.35 L742.3 313.16 L742.65 315.57 L742.62 321.34 L742.45 322.59 L741.96 323.65 L741.03 324.24 L741.01 323.43 L740.63 323.15 L740.13 323.34 L739.71 323.92 L740.01 325.25 L739.89 327.29 L739.51 329.37 L739.08 330.81 L738.34 330.25 L738.13 329.5 L738.15 328.66 L738.08 327.89 L737.75 327.25 L737.32 326.83 L736.88 326.49 L736.49 326.08 L736.23 325.88 L736.01 325.88 L735.86 325.75 L735.77 324.29 L735.67 323.93 L735.49 323.52 L735.12 323 L734.54 322.42 L733.91 322.08 L733.37 322.26 L732.13 324.66 L731.75 325 L731.22 325.33 L731.47 326.04 L731.97 326.73 L732.24 326.99 L732.35 327.37 L732.79 328.14 L732.87 328.64 L732.71 328.77 L732.38 328.89 L732.05 329.11 L731.9 329.51 L732.01 330.28 L732.19 331.03 L732.22 331.79 L731.9 332.61 L732.7 332.89 L733.37 332.47 L733.71 331.68 L733.51 330.81 L733.97 330.94 L734.29 331.21 L734.84 331.89 L735.09 332.01 L735.3 331.96 L735.44 332 L735.49 332.41 L735.49 332.73 L735.55 332.9 L735.69 332.96 L735.98 332.97 L737.18 333.26 L737.66 333.97 L737.91 334.91 L738.43 335.85 L738.43 336.21 L737.49 337.21 L737.99 339.68 L739.11 342.41 L740.06 344.17 L742.91 347.62 L744.11 349.61 L744.59 352.12 L744.3 352.12 L743.47 349.61 L743.13 349.21 L742.56 349.08 L741.86 348.75 L741.27 348.34 L740.68 347.45 L739.93 346.86 L739.24 346.77 L739.08 347.8 L739.43 348.54 L740.65 349.43 L741.03 349.96 L741.28 349.43 L741.35 349.21 L741.68 349.21 L743.48 353 L748.89 360 L750.14 361.1 L750 360.4 L749.69 359.58 L749.55 358.9 L749.97 358.62 L750.47 358.38 L750.69 358.5 L750.88 359.65 L751.12 359.94 L751.36 360.09 L751.46 360.22 L751.84 360.95 L752.72 361.36 L754.35 361.85 L754.75 362.36 L755.67 364.72 L755.32 365.08 L755.9 365.89 L756.54 367.28 L757.07 368.79 L757.3 369.95 L757.24 370.61 L757 371.77 L756.94 372.46 L757.05 373.13 L757.27 373.61 L757.49 373.96 L757.75 374.87 L758.44 376.14 L758.56 376.94 L758.26 379.09 L758.65 381.22 L759.06 382.43 L759.56 383.06 L759.92 382.05 L761.15 383.07 L762.44 384.7 L762.98 385.56 L763.78 386.35 L764.72 389.81 L765.91 390.6 L766.85 391.5 L767.26 393.5 L767.37 396.7 L767.57 397.31 L767.98 398.22 L768.48 399.1 L768.99 399.59 L769.69 399.57 Z M361.44 807.14 L361.43 807.84 L361.3 808.73 L360.97 809.81 L361.09 810.64 L361.52 812.11 L361.05 813.1 L361.07 813.19 L359.99 813.11 L358.67 811.51 L357.59 811.12 L356.57 811.04 L356.06 810.59 L357.4 810.03 L358.17 809.4 L357.86 808.38 L356.66 807.73 L355.45 807.91 L354.05 808.03 L353.09 808.28 L352.2 808.78 L351.43 809.22 L350.48 808.89 L349.4 807.87 L348.64 807.16 L347.56 806.9 L346.29 806 L345.15 805.1 L344.59 804.07 L344.28 802.54 L343.45 801.96 L342.62 801.96 L342.06 801.83 L342.18 801.5 L342.13 800.42 L341.43 799.53 L340.99 798.57 L341.06 797.67 L341.76 797.87 L342.01 798.26 L342.58 798.71 L344.43 799.55 L345.44 800.7 L345.95 801.41 L346.13 802.62 L346.1 803.19 L346.95 804.15 L347.77 804.86 L348.09 805.05 L349.81 804.88 L350.37 805.77 L351.33 805.84 L352.29 805.53 L353.11 805.47 L353.68 806.05 L353.68 806.63 L354.25 806.63 L355.66 806.01 L354.32 805.74 L353.62 804.65 L354.2 803.75 L354.55 802.34 L354.86 801.86 L355.54 801.75 L355.84 801.87 L356.22 802.02 L357.53 802.84 L357.59 803.67 L358.22 804.69 L358.12 805.22 L359.29 805.4 L359.6 806.36 Z M348.74 802.89 L348.04 802.31 L347.35 801.42 L346.15 799.88 L345.14 798.47 L344.76 797.91 L344.76 797.9 L345.29 797.43 L346.44 797.36 L347.27 797.11 L347.88 796.58 L348.36 795.71 L348.85 795.75 L348.94 795.76 L349.19 794.77 L348.84 793.58 L348.2 793.29 L347.56 792.99 L346.95 792.94 L345.88 792.71 L345.29 792.66 L345.17 792.44 L345.54 792.04 L345.98 791.86 L346.1 792.29 L347.64 792.44 L348.85 792.93 L349.65 793.88 L349.7 794.08 L349.99 795.4 L350 796.34 L349.74 797.42 L349.92 798.31 L351.45 798.71 L351.89 799.8 L349.94 799.83 L349.38 800.55 L349.65 801.4 L350.82 801.8 L351.48 802.21 L352.37 802.6 L352.68 803.82 L352.68 804.39 L351.28 803.55 L349.57 803.03 Z M711.74 260.89 L712.68 261.29 L715.21 262.02 L717.6 262.71 L716.72 263.04 L716 262.87 L715.3 262.53 L714.51 262.35 L713.73 262.45 L712.99 262.76 L712.32 263.21 L711.74 263.77 L711.36 263.36 L711.31 263.4 L711.09 263.44 L710.71 263.16 L710.45 263.04 L710.44 263.04 L710.44 262.71 L711.08 262.43 L711.2 262.14 L711 261.81 L710.79 261.61 L710.6 261.42 L710.12 261.19 L709.6 261.27 L709.09 261.47 L708.65 261.58 L708.04 261.83 L707.44 262.46 L706.92 263.3 L706.56 264.17 L706.43 262.78 L707.31 261.41 L708.69 260.42 L710.12 260.16 L710.65 260.25 L711.06 260.44 Z M116.5 363.29 L117 363.7 L117.24 363.93 L117.13 363.98 L116.92 363.89 L116.56 363.83 L116.52 364.04 L116.71 364.38 L116.33 364.32 L115.4 363.71 L115.16 363.14 L115.24 362.78 L114.78 362.73 L114.2 362.9 L113.87 362.46 L113.64 361.74 L113.21 361.74 L112.69 362.12 L112.59 361.75 L112.94 360.77 L113.4 360.23 L113.98 360.22 L114.63 360.32 L115.19 360.67 L115.65 361.7 L115.96 361.66 L116.06 361.28 L116.26 361.54 Z M112.48 363.35 L113.25 363.32 L113.4 363.55 L112.53 364.03 L112.16 364.32 L111.66 364.89 L111.18 365.84 L110.47 366.36 L109.47 365.7 L108.57 364.69 L107.7 364 L105.79 361.96 L105.67 361.82 L105.5 361.52 L105.5 361.32 L105.59 361.34 L105.69 361.23 L105.6 360.93 L105.14 360.4 L104.6 359.63 L104.62 359.25 L105.12 359.37 L105.58 359.77 L106.45 360.85 L106.86 361.17 L107.73 361.65 L109.39 362.37 L110.19 362.59 L110.78 362.65 L111.23 362.91 L111.44 363.29 L110.45 363.33 L110.31 364 L110.68 364.63 L111.25 364.48 L111.83 363.84 Z M108.08 357.32 L107.62 357.17 L107.01 356.58 L107.11 355.83 L107.69 355.38 L108.37 355.47 L108.89 356.03 L108.87 356.65 L108.37 357.13 Z M105.27 359.17 L104.81 358.83 L104.59 358.77 L104.37 358.69 L104.12 358.31 L104.09 357.78 L103.67 357.64 L103 357.52 L102.88 357.34 L103.07 357.41 L103.02 357.17 L102.62 356.61 L101.9 356.13 L101.05 356.18 L100.66 356.42 L100.45 356.62 L100.09 356.74 L100.1 356.25 L100.57 355.52 L101.31 355.31 L102.2 355.63 L104.55 357.2 L104.81 357.6 L105.06 358.22 L105.78 358.66 L106.52 358.93 L107.59 359.59 L109.27 360.99 L109.69 361.46 L109.62 361.65 L109.43 361.81 L109.49 362.04 L109.24 361.9 L108.51 361.33 L107.87 360.93 L107.39 360.81 L107.19 360.47 L106.94 359.89 L106.5 359.68 L106.2 359.81 L105.76 359.67 Z M110.51 356.47 L110.45 354.97 L110.39 354.64 L110.39 354.04 L110.7 353.63 L111.16 353.45 L111.57 353.65 L111.8 354.16 L111.83 354.65 L111.7 355.03 L111.48 355.05 L111.19 354.82 L111.14 354.91 L111.26 355.3 L111.23 355.48 L111.12 355.42 L111.45 356.16 L111.79 357.56 L111.58 358.04 L111.05 357.22 L110.74 357 Z M100.18 355.25 L100.13 355.57 L99.85 356.18 L99.45 356.44 L99.13 356.28 L98.51 355.83 L94.71 353.88 L93.68 353.63 L93.36 354.37 L92.89 354.12 L91.99 353.25 L91.38 352.54 L91.09 351.42 L91.48 350.5 L92.65 349.28 L93.17 348.63 L93.56 348.38 L93.64 348.72 L93.36 349.32 L92.57 350.52 L92.63 351.01 L92.96 351.45 L93.29 351.7 L93.58 351.71 L93.81 351.8 L94.05 352.15 L94.44 352.37 L94.83 352.51 L96.06 353.78 L96.68 354.24 L97.32 354.3 L97.72 354.2 L97.84 354.32 L97.88 354.7 L98.04 355.13 L98.48 355.33 L98.89 355.28 L98.96 355.24 L98.81 355.18 L98.84 354.95 L99.06 354.74 L99.45 354.8 Z M93.59 346.88 L93.52 346.46 L93.39 345.34 L93.51 343.16 L94.27 341.34 L95.46 340.21 L95.8 340.07 L95.17 340.7 L94.65 341.52 L94.26 342.43 L94.12 343.45 L94.54 344.38 L95.44 345.25 L95.8 345.4 L96.14 345.46 L96.11 345.81 L95.7 346.5 L95.55 347.19 L95.61 347.49 L95.69 347.78 L96.05 348.06 L96.6 347.94 L96.76 348.03 L96.51 348.47 L96.03 348.71 L95.43 348.6 L94.48 347.83 L93.95 347.49 Z "/>
</g>
</svg>
