<svg xmlns="http://www.w3.org/2000/svg" viewBox="0 0 1000 735.81">
<g fill="#ccc" stroke="#333" stroke-width="0.5" stroke-linejoin="round">
<path fill-rule="evenodd" d="M856.07 323.33 L857.31 328.22 L860.54 331.13 L861.53 333.47 L862.78 335.36 L865.24 336.48 L867.88 337.01 L869.68 337.12 L868.78 339.13 L868.06 340.34 L867.75 341.47 L868.14 343.31 L869.28 344.26 L870.93 344.65 L872.17 345.67 L872.01 348.47 L871.11 349.94 L867.94 353.03 L866.74 354.78 L866.41 356.5 L866.25 358.54 L865.8 360.37 L864.62 361.42 L861.55 363.32 L860.57 366.21 L860.93 369.71 L862.84 377.03 L863.26 380.44 L862.96 387.71 L865.05 388.13 L880.19 393.76 L881.31 395.96 L880.61 398.04 L878.21 398.93 L879.54 401.23 L881.1 403.31 L883.08 405 L889.49 407.34 L891.77 408.88 L893.36 411.34 L899.35 425.42 L899.71 429.13 L898.51 435.92 L894.86 448.77 L894.85 455.71 L896.48 460.05 L899.12 462.69 L902.15 465.02 L904.98 468.44 L905.97 471.59 L905.95 474.99 L904.98 481.77 L902.4 489.24 L896.96 494.86 L883.11 502.68 L885.34 504.59 L887.53 507.89 L890.87 514.39 L892.9 520.42 L896.5 526.07 L899.48 529.45 L908.86 536.34 L909.88 537.49 L911.33 539.98 L912.25 541.05 L913.95 541.9 L915.45 542.09 L916.76 542.65 L917.88 544.59 L917.53 547.55 L915.2 556.5 L915.59 558.34 L917.02 558.72 L921.31 560.86 L922.57 561.78 L923.19 563.02 L924.2 566.24 L924.94 567.4 L926.87 569 L927.78 569.1 L928.66 568.16 L935.48 562.98 L935.9 559.76 L936.86 556.34 L938.5 553.56 L940.98 552.22 L943.31 552.56 L944.47 553.88 L945.4 555.51 L947.03 556.8 L948.57 557 L951.74 556.33 L955.83 556.18 L956.57 556.91 L956.35 559.28 L956.78 560.94 L958.57 561.14 L960.61 560.61 L961.79 560.07 L961.8 563.7 L962.97 566.94 L966.97 572.53 L970.65 575.8 L971.34 577.41 L971.09 579.24 L969.02 582.24 L968.41 584.05 L968.89 587.03 L970.45 589.08 L972.38 590.87 L973.89 593.07 L973.97 598.9 L974.78 601.6 L977.65 602.28 L979.9 603.64 L981.82 605.11 L983.87 606.36 L986.52 607.04 L988.23 607.73 L988.04 608.9 L987.14 610.17 L986.82 611.13 L989.06 614.37 L989.97 616.41 L990.6 617.45 L991.25 618 L992.66 618.67 L992.41 619.38 L991.5 620.08 L990.96 620.75 L990.95 622.18 L990.55 625.43 L990.11 627.09 L992.64 627.57 L994.52 626.79 L995.7 624.89 L996.1 621.99 L997.46 623.44 L998.2 625.15 L998.57 627.06 L998.92 631.39 L998.37 632.39 L997.33 633.02 L995.92 634.17 L995.21 634.19 L994.18 633.62 L993.04 633.23 L991.97 633.8 L991.85 634.82 L992.64 635.73 L993.58 636.58 L993.93 637.46 L993.25 639.15 L992.35 640.87 L991.74 642.6 L992.25 645.31 L992 646.03 L991.52 646.72 L991.11 647.64 L991.18 648.67 L991.82 649.06 L992.58 649.16 L992.98 649.3 L993.19 649.45 L993.79 650.22 L994.5 651.41 L995.02 652.81 L995.36 654.51 L995.51 656.5 L995.16 658.31 L994.03 659.52 L994.03 660.27 L995.74 663.35 L996.04 664.93 L994.71 667.08 L992.46 667.48 L990.32 668.17 L988.6 672.55 L987.34 673.43 L986.34 674.68 L986.49 677.13 L987.11 677.54 L988.34 678 L989.61 678.9 L990.41 680.62 L990.44 682.34 L989.6 687.6 L989.75 689.37 L990.12 690.51 L990.32 691.72 L989.92 693.62 L986.55 695.2 L985.38 696.25 L987.19 696.87 L988.36 697.63 L990.24 700.93 L991.55 702.1 L991.46 700.87 L992.37 699.1 L993.63 698.61 L994.63 701.27 L994.98 702.67 L996.01 705.39 L996.31 706.89 L997.59 704.84 L997.94 703.9 L1000 706.78 L999.67 710.66 L998.57 715.05 L998.27 719.47 L993.79 719.29 L983.13 715.42 L977.65 714.85 L963.67 715.92 L956.92 717.18 L944.42 721.87 L938.29 722.89 L925.01 722.33 L921.67 721.6 L911.85 717.45 L911.63 717.17 L911.31 716.99 L910.19 717 L909.48 717.29 L907.69 718.55 L901.51 721.94 L899.35 722.38 L895.9 722.04 L886.1 718.76 L882.08 718.89 L879.16 720.33 L873.79 725.27 L867.78 728.64 L840.35 735.81 L837.72 734.47 L833.11 727.36 L830.21 725.25 L823.17 722.7 L819.76 721.87 L816.95 721.74 L814.21 722.3 L811.04 723.53 L806.3 726.15 L805.08 726.51 L804.87 726.57 L802.56 726.5 L801.97 725.86 L801.85 724.7 L800.98 723.12 L796.41 718.01 L793.74 715.83 L790.57 714.52 L787.23 714.13 L776.74 714.73 L773.39 714.29 L772.44 712.92 L771.74 711.29 L769.15 710.03 L764.34 709.68 L762.78 709.08 L761.08 707.51 L760.73 706.09 L760.99 704.97 L761.06 704.32 L757.03 700.76 L750.68 697.44 L744.78 697.51 L742.06 704.14 L741.53 707.34 L739.66 708.98 L737 709.17 L734.1 708.03 L730.96 708.38 L728.14 708.1 L725.74 706.79 L723.87 704.11 L723.15 700.88 L723.73 698.14 L726.15 692.48 L726.77 689.62 L726.94 686.27 L726.24 683.14 L724.16 680.87 L721.69 680.49 L718.88 680.96 L715.91 681.05 L712.98 679.54 L711.46 681.39 L710.17 680.5 L709.1 680.4 L707.95 680.57 L706.5 680.56 L704.45 681.18 L703.79 681.29 L703.05 680.92 L701.5 679.24 L700.6 678.8 L699.38 678.9 L696.63 679.67 L695.22 679.89 L693.81 679.66 L691.81 678.35 L690.44 677.98 L689.01 678.08 L684.15 679.11 L683.36 679.38 L682.99 679.85 L682.54 680.25 L681.59 680.32 L680.81 680.03 L679.41 679.03 L678.66 678.71 L678.15 678.57 L670.85 676.57 L618.32 674.64 L560.76 674.4 L518.48 674.22 L503.18 674.16 L445.63 673.91 L432.57 673.85 L388.07 673.67 L380.13 673.63 L375.47 674.34 L371.26 676.26 L361.83 683.07 L351.95 687.62 L343.33 693.98 L342.86 694.33 L301.87 713.58 L296.27 714.76 L268.27 713.1 L266.66 713.01 L253.77 713.93 L250.65 713.35 L240.49 709.94 L234.73 709.42 L222.46 711.56 L221.36 712.04 L220.66 712.59 L219.89 712.9 L218.56 712.67 L215.05 711.28 L213.32 710.96 L211.61 711.32 L200.4 717.42 L187.39 724.47 L182.48 726.48 L174.3 726.55 L165.82 728.67 L162.82 728.79 L140.81 727.31 L134.85 728.76 L131.14 731.33 L130.07 729.23 L129.31 727.03 L128.59 723.63 L127.56 722.5 L125.12 720.78 L121.39 717.13 L119.73 714.98 L119.04 712.83 L119.04 705.91 L119.4 704.41 L120.99 702.95 L121.36 701.42 L122.55 699.67 L130.62 694.83 L134.16 694.7 L139.2 695.13 L144.63 691.72 L146.37 690.26 L147.29 688.91 L148 687.51 L149.07 685.94 L155.29 681.39 L158.27 684.89 L160.57 691.2 L162.83 692.62 L162.93 690.03 L164.59 688 L167.46 687.18 L170.66 687.89 L176.1 691.01 L180.99 692.36 L186.37 694.91 L189.19 695.13 L192.38 693.59 L196.29 688.73 L199.16 687.18 L202.94 687.34 L206.16 688.51 L209.37 688.85 L213.08 686.56 L214.97 685.79 L216.23 687.25 L217.18 689.36 L218.11 690.58 L230.76 685.83 L233.66 685.14 L237.56 684.9 L240.07 684.16 L242.17 682.61 L244.59 681.37 L248.15 681.5 L251 683.05 L255.3 686.48 L257.87 688.54 L259.23 690.07 L261.12 690.41 L271.53 690.58 L272.53 691.31 L274.63 693.53 L275.41 693.99 L276.84 693.8 L281.01 692.75 L282.87 691.6 L284.67 689.4 L286.97 688.08 L290.37 689.56 L291.25 688.79 L292.28 688.29 L293.34 688.27 L295.56 689.88 L296.5 689.72 L297.33 689.31 L298.23 689.56 L299.5 691.03 L300.59 693.85 L301.46 695.13 L302.51 696.1 L303.68 696.8 L305.14 697.24 L307.11 697.29 L308.96 696.91 L316.38 693.84 L319.35 690.79 L324.34 684.28 L326.19 682.9 L327.85 682.05 L329.02 680.89 L329.47 678.6 L328.54 677.59 L326.76 676.81 L325.77 675.91 L327.16 674.57 L325.57 670.8 L324.09 665.73 L323.56 660.55 L324.95 656.39 L326.83 655.25 L329.15 655.17 L331.59 655.38 L333.81 655.15 L336.07 654.15 L337.61 652.95 L338.63 651.43 L339.36 649.46 L342.7 652.73 L345.75 653.61 L347.83 651.85 L348.22 647.2 L345.71 649.84 L343.32 649.76 L340.87 648.68 L338.25 648.32 L335.79 649.41 L331.79 652.37 L328.88 652.98 L327.23 652.99 L324.79 653.34 L322.59 654.5 L321.62 656.96 L321.62 666.62 L323.46 672.86 L323.74 674.57 L323.84 677.29 L323.72 678.63 L323.23 679.74 L319.3 683.15 L318.05 684.77 L309.87 692.24 L307.72 693.59 L305.79 693.69 L304.1 692.93 L302.67 691.72 L303.6 686.74 L298.67 684.49 L287.15 682.63 L279.33 687.62 L276.47 688.31 L275.91 687.78 L275.2 686.61 L274.03 685.43 L272.09 684.9 L270.1 685.26 L267.36 686.82 L265.39 687.18 L263.5 686.65 L261.06 685.37 L257.01 682.63 L256.82 681.81 L257.03 680.63 L257.11 679.57 L256.5 679.12 L254.35 678.83 L253.22 678.49 L252.48 678.09 L251.46 676.71 L249.25 672.3 L248.66 671.74 L247.91 671.42 L247.29 670.84 L246.67 667.29 L245.83 665.38 L244.83 665.38 L244.83 666.62 L244.59 667.3 L242.85 670.71 L242.1 671.79 L241.49 677.47 L236.95 680.36 L230.31 681.5 L228.59 682.25 L225.25 684.45 L224.26 684.9 L222.54 684.71 L218.61 683.67 L212.47 683.67 L210.64 684.1 L207.54 685.48 L205.81 685.94 L203.85 685.94 L198.61 684.9 L196.84 685.26 L194.58 686.82 L193.11 687.18 L192.56 687.96 L191.76 689.75 L190.65 691.64 L189.19 692.75 L182.53 690.58 L177.14 687.49 L174.62 685.37 L173.56 683.15 L172.92 682.76 L171.43 682.29 L169.93 681.56 L169.13 680.36 L169.4 678.71 L170.43 677.24 L171.92 676.18 L173.56 675.81 L173.56 674.57 L171.07 674.51 L169.49 673.25 L168.57 671.23 L168.02 668.89 L166.91 682.63 L165.69 682.63 L163.54 679.73 L157.57 674.55 L156.83 671.28 L154.93 672.81 L153.67 674.66 L152.19 676.2 L149.62 676.85 L147.68 676.44 L146.37 675.31 L145.72 673.54 L145.84 671.28 L148.14 666.93 L151.38 663.66 L153.5 659.88 L152.5 654.01 L151.77 658.52 L151.39 659.8 L150.52 661.26 L149.76 661.98 L148.99 662.46 L145.76 665.46 L144.38 667.18 L143.71 669.33 L143.51 672.87 L144.68 678.77 L144.33 681.49 L139.44 683.59 L132.34 689.56 L126.89 691.47 L123.89 689.69 L122.63 685.38 L122.36 679.74 L123.24 673.86 L125.82 668.01 L130 664.73 L135.67 666.62 L135.93 664.15 L133.61 662.33 L130.25 661.66 L127.39 662.65 L124.05 666.77 L122.19 668.11 L120.14 667.66 L121.1 666.3 L121.43 664.87 L121.1 663.46 L120.14 662.08 L123.66 657.13 L124.37 654.67 L123.57 651.74 L122.36 651.74 L121.6 653.58 L120.49 654.39 L119.47 653.76 L119.04 651.22 L119.44 649.23 L120.41 647.1 L126.2 638.44 L126.79 636.33 L126.62 634.2 L125.86 630.29 L125.68 628.38 L126.04 624.9 L127.64 617.97 L128 613.53 L127.75 610.8 L127.05 609.41 L127.29 605.57 L127.88 603.7 L128.91 602.34 L131.48 599.8 L131.99 598.2 L134.39 594.12 L140.06 592.85 L147.12 592.92 L173.88 593.16 L198.55 593.39 L234.48 593.72 L255.64 593.9 L266.08 594 L270.41 594.04 L276.49 594.09 L277.58 593.29 L277.89 581.41 L277.95 578.81 L278.22 566.97 L278.87 564.62 L280.75 563.58 L292.07 562.48 L299.36 560.14 L301.41 560.09 L312.36 561.17 L315.01 560.9 L319.89 559.26 L323.65 557.2 L327.45 555.76 L332.51 555.99 L350.23 559.78 L356.21 559.77 L361.5 558.79 L366.82 556.81 L371.48 553.7 L374.82 549.32 L375.81 544.71 L376.42 534.38 L378.69 530.67 L382.37 526.83 L385.75 523.3 L389.46 521.8 L393.92 524.72 L401.22 531.61 L409.28 537.49 L409.3 537.5 L409.34 537.52 L409.36 537.54 L419.98 542.99 L425.47 544.44 L431.68 544.95 L434.13 545.67 L439.56 549.02 L442.53 549.99 L445.86 550.63 L447.59 551.71 L450.87 556.3 L455.4 560.37 L460.83 562.68 L466.76 563.39 L472.78 562.68 L478.04 561.35 L479.89 562.01 L484.54 566.36 L486.04 567.77 L488.2 569 L490.55 569.69 L495.66 569.89 L497.82 570.51 L499.64 572.4 L500.88 574.08 L502.42 575.46 L504.14 576.65 L510.06 579.73 L514.3 580.94 L518.69 581.29 L527.93 580.47 L536.74 582.13 L541.44 581.97 L544.99 580.2 L552.79 574.29 L555.23 573.19 L558.04 573.23 L565.01 570.69 L571.55 570.61 L578.07 568.85 L590.34 567.79 L598.38 564.25 L603.01 557.16 L603.63 548.62 L599.74 540.73 L598.1 539.37 L594.41 537.18 L593.27 536.2 L592.93 535.91 L592.09 534.5 L591.05 531.33 L590.21 529.88 L587.5 527.65 L583.6 525.65 L579.47 524.21 L576.06 523.61 L573.88 523.96 L570.58 525.92 L568.67 526.77 L566.97 527.04 L564.15 526.8 L562.41 526.86 L559.11 527.69 L551.6 531.56 L542.23 533.69 L539.15 535.03 L530.15 540.68 L520.62 544.1 L517.8 544.78 L514.83 544.37 L510.93 542.53 L499.15 534.05 L497.83 533.1 L496.19 531.3 L495.14 529.06 L492.97 521.8 L491.42 518.61 L489.23 515.84 L486.09 513.31 L479.11 510.02 L472.43 509.51 L465.85 511.29 L455.89 516.9 L453.88 517.55 L451.61 516.72 L444.93 512.66 L443.81 511.38 L440.65 500.54 L439.2 497.46 L437.15 494.61 L434.49 492.45 L431.42 489.95 L425.48 487.96 L409.09 487.22 L399.42 483.53 L395.95 483.36 L384.11 487.74 L371.87 495.6 L368.41 496.43 L367.04 495.38 L363.89 491.18 L362.37 489.73 L355.34 488.6 L347.82 491.46 L340.96 496.53 L335.9 502.03 L334.09 504.88 L332.41 508.37 L331.14 512.05 L330.94 513.19 L330.54 515.45 L330.22 522.09 L327.66 522.95 L319.72 522.92 L309.64 522.88 L299.55 522.85 L289.47 522.8 L279.37 522.77 L269.29 522.73 L259.21 522.69 L249.11 522.65 L239.03 522.61 L235.56 522.6 L228.95 522.59 L218.86 522.54 L208.78 522.51 L198.69 522.47 L188.6 522.43 L178.52 522.39 L168.44 522.35 L158.27 522.31 L158.25 522.28 L156.65 519.83 L155.83 518.08 L155.93 513.39 L158.71 510.78 L162.79 508.66 L166.91 505.43 L166.04 504.94 L164.37 503.68 L163.48 503.25 L165.54 501.27 L167.06 498.72 L166.79 496.69 L163.48 496.29 L163.92 498.96 L163.12 502.2 L161.4 504.47 L159.05 504.29 L157.89 507.8 L155.37 510.17 L152.18 511.07 L149.07 510.09 L146.22 507.09 L145.5 504 L146.85 497.43 L147.17 493.31 L147.6 491.64 L149.07 489.44 L154.84 482.57 L155.83 480.21 L156.78 480.83 L159.32 482.03 L160.26 482.6 L159.89 481.83 L159.05 479.06 L164.69 478.04 L164.97 481.34 L166.14 484.47 L167.98 486.37 L170.34 485.92 L169.11 482.11 L168.83 477.88 L168.14 474.54 L165.69 473.36 L166.55 471.1 L170.07 455.52 L170.34 452.8 L166.79 458.03 L165.3 461.3 L164.02 468.22 L162.36 472.36 L160.21 475.11 L158.04 474.5 L156.83 474.5 L155.21 476.74 L152.34 477.62 L148.97 478.06 L145.84 479.06 L144.09 480.53 L143.51 481.92 L143.24 483.35 L142.42 484.88 L141.53 485.7 L139.67 486.77 L138.6 487.69 L136.98 490.76 L135.75 491.88 L134.1 491.11 L133.59 489.48 L133.58 487.41 L133.27 485.64 L131.78 484.88 L129.72 483.41 L128.87 480.11 L129.09 476.59 L130.22 474.5 L129.23 472.21 L128.54 469.61 L128 464.22 L128.16 461.38 L128.71 459.75 L129.72 458.65 L133.45 455.66 L135.35 454.92 L137.43 454.82 L142.21 455.38 L144.48 456.09 L146.02 457.44 L145.84 459.66 L148.11 457.6 L149.9 455.13 L152.16 453.78 L155.83 455.09 L155.77 451.41 L157.04 449.76 L159.1 448.74 L161.36 446.99 L159.34 447.7 L157.14 448.16 L155.09 447.76 L153.5 445.94 L160.84 441.36 L163.48 438.98 L167.7 433.78 L170 431.77 L175.21 430.25 L177.74 427.03 L179.71 426.3 L181.06 426.94 L182.36 428.16 L183.71 428.9 L185.3 428.07 L186.29 427.32 L188.92 426.05 L190.2 425.15 L179.97 424.76 L175.58 423.08 L175.88 419.45 L173.31 420.79 L172.36 423.21 L172.86 425.74 L174.67 427.44 L172.66 428.57 L170.99 428.44 L169.36 427.82 L167.46 427.44 L166.1 427.96 L165.52 429.23 L165.18 430.77 L164.69 432.12 L160.52 439.54 L159.05 441.27 L157.39 442.03 L153.87 442.87 L151.94 444.17 L150.52 446.01 L148.49 449.9 L146.85 451.56 L143.2 452.78 L139.75 452.09 L136.24 450.86 L132.34 450.51 L136.15 443.63 L136.27 442.42 L139.01 441.63 L143.51 436.58 L141.34 437.23 L139.24 440.5 L137.43 441.27 L133.85 441.38 L132.43 441.71 L131.23 442.42 L133.14 444.65 L132.98 446.15 L130.22 449.37 L129.74 450.66 L129.33 453.05 L128.5 454.46 L125.28 458.16 L124.58 459.66 L123.84 464.36 L124.58 480.21 L123.57 480.21 L122.61 448.1 L121.79 443.25 L119.1 435.19 L116.14 429.23 L114.7 427.44 L112.58 426.45 L108.35 425.49 L106.74 424.02 L105.9 421.61 L104.52 412.58 L103.46 409.71 L102.15 407.61 L99.08 404.47 L97.67 403.69 L96.6 403.46 L95.9 402.77 L95.65 400.57 L95.85 398.85 L96.67 395.56 L96.86 393.64 L96.06 390.87 L94.1 387.9 L89 382.71 L77.39 377.2 L75.6 375.28 L74.68 373.06 L68.94 364.4 L64.66 352.86 L58.11 343.78 L53.44 339.45 L50.65 337.52 L47.46 336.03 L43.94 335.44 L41.31 334.69 L34.42 331.06 L33.37 329.82 L28 329.88 L23.34 329.31 L19.27 329.58 L15.63 332.21 L16.99 333.82 L18.95 334.41 L17.73 336.85 L15.63 337.85 L16.18 338.38 L17.18 339.6 L17.73 340.13 L16.73 342.53 L16.18 342.7 L15.63 343.68 L13.49 342.28 L2.58 328.68 L0 326.28 L26.81 319.07 L34.74 312.57 L58.96 302.18 L64.53 297.66 L90.34 266.7 L95.5 258.97 L106.82 246.31 L129.4 206.01 L140.68 190.94 L161.91 155.09 L162.67 153.41 L162.39 151.67 L161.36 149.28 L165.03 142.94 L166.63 133.63 L167.01 115.24 L167.98 113.31 L170.22 105.84 L173.04 99.03 L173.76 87.58 L174.93 84.19 L177.3 82.13 L183.29 80.69 L185.82 79.01 L186.85 77.29 L187.55 75.31 L194.19 46.67 L195.04 39.91 L196.26 36.74 L198.51 33.56 L201.51 30.63 L204.97 28.5 L208.67 27.75 L214.04 28.78 L215.86 28.91 L217.7 28.58 L219.36 27.8 L224.13 24.38 L225.99 23.5 L227.95 23.15 L230 23.56 L231.49 24.48 L232.69 25.73 L234.65 28.67 L237.41 31.6 L240.7 33.2 L244.36 33.63 L248.24 33.08 L249.4 32.25 L250.55 31.65 L251.76 31.44 L253.12 31.76 L255.21 32.6 L256.24 32.7 L257.44 32.46 L263.87 29.57 L266.16 29.31 L271.84 30.69 L273.2 30.69 L277.21 29.96 L279.8 30.1 L287.14 32.52 L292.41 32.82 L293.79 33.23 L297.62 35.07 L300.17 35.72 L302.66 35.58 L305.06 34.77 L307.3 33.33 L310.89 30.02 L312.81 28.82 L315.29 28.42 L322.26 29.87 L324.66 29.63 L326.59 28.67 L328.15 27.19 L332.1 21.5 L334.11 19.7 L336.47 18.63 L338.93 18.85 L340.45 20.12 L341.38 21.84 L342.49 23.43 L344.5 24.29 L346.89 24.24 L349.17 23.66 L356.01 20.79 L358.54 20.24 L363.76 20.06 L371.44 21.28 L374.06 21.18 L391.5 18.42 L394.92 17.12 L395.98 16.42 L396.68 15.46 L396.73 14.2 L396.2 13.12 L393.57 10.54 L392.61 8.27 L392.93 6.08 L394.34 4.41 L396.66 3.77 L399 4.48 L400.47 6.12 L401.74 8.07 L403.44 9.7 L404.61 10.08 L405.81 9.97 L406.96 9.48 L407.97 8.72 L408.77 7.67 L409.13 6.58 L409.64 4.2 L410.69 2.64 L412.36 1.52 L415.98 0 L417.83 0.95 L419.95 3.23 L420.1 3.53 L421.34 5.99 L423.02 8.14 L426.02 8.6 L430.97 7.41 L458.7 9.42 L460.58 9.2 L466.06 7.75 L467.68 7.71 L469.1 8.11 L473.67 10.29 L475.45 10.61 L477.25 10.55 L484.05 8.61 L485.78 8.57 L492.37 9.95 L494.12 9.99 L495.86 9.78 L497.56 9.32 L499.16 8.58 L503.42 6 L504.98 5.39 L508.16 5.19 L518.46 9.28 L519.71 10.14 L520.39 11.4 L520.32 13.26 L519.47 16.48 L519.74 17.78 L521.26 18.47 L527.48 17.91 L529.06 18.66 L529.61 19.98 L529.82 23.01 L530.67 24.32 L532.36 25.12 L536.25 25.39 L538.1 25.72 L539.42 26.51 L542.17 30.15 L543.33 31.22 L547.18 33.97 L552.69 40.45 L562.33 49.25 L567.73 52.39 L568.82 53.41 L571.66 56.83 L573.1 57.78 L576.3 59.03 L577.79 59.86 L578.76 61 L578.88 62.18 L577.85 64.79 L577.55 66.22 L577.88 67.33 L579.48 69.43 L580.2 70.95 L580.25 72.38 L579.42 75.41 L580.03 78.11 L582.79 79.62 L589.16 81.5 L590.5 82.3 L593.06 84.26 L594.13 85.42 L594.93 86.79 L596.31 91.34 L597.08 92.96 L598.1 94.44 L599.39 95.7 L600.86 96.63 L602.24 96.98 L603.55 96.84 L604.83 96.37 L607.49 94.83 L610.11 92.8 L611.22 91.58 L614.1 87.37 L615.33 86.18 L616.7 85.37 L618.13 84.97 L619.64 84.89 L621.19 85.08 L620.86 87.24 L619.94 90.08 L619.21 92.31 L619.73 94.08 L620.5 94.56 L622.18 95.23 L622.92 95.77 L623.1 96.06 L623.35 96.66 L623.56 96.91 L623.95 97.14 L624.95 97.53 L625.4 97.77 L626.46 98.71 L626.82 98.93 L627.95 99.13 L629.01 98.84 L633.46 96.45 L634.4 96.25 L637.45 96.23 L638.02 96.17 L639.25 95.8 L644.17 93.65 L652.72 91.81 L654.93 90.9 L655.83 90.62 L656.76 90.59 L657.83 90.81 L658.13 93.17 L655.41 98.3 L655.11 100.92 L656.76 102.06 L662.68 99.73 L665.12 99.79 L665.93 100.69 L667.24 102.97 L668.04 103.95 L672.5 106.98 L673.48 108.2 L673.89 109.5 L674.05 112.46 L674.28 113.76 L676.53 119.45 L677.58 121.21 L678.8 122.82 L680.23 124.3 L684.33 127.45 L685.28 128.75 L685.63 130.15 L685.53 131.59 L684.91 134.44 L684.91 135.83 L685.26 136.97 L685.95 137.98 L688.89 141.43 L690.34 144.03 L691.12 146.91 L691.16 150.17 L690.8 151.59 L690.26 153.02 L689.9 154.45 L690.11 155.89 L690.95 157.04 L692.09 157.94 L694.57 159.41 L695.87 160.43 L696.97 161.6 L698.82 164.33 L699.51 165.74 L699.7 166.97 L699.41 168.21 L696.96 172.07 L696.36 173.44 L696.19 174.94 L696.42 176.36 L697.96 180.55 L700.4 180.48 L705.27 179.62 L707.64 179.75 L708.8 180.23 L711.81 182.41 L712.99 182.89 L716.73 183.91 L718.76 185.11 L720.5 186.72 L721.67 188.7 L722.05 191.07 L721.14 197.41 L721.16 198.88 L721.46 200.31 L722.03 201.86 L722.96 202.58 L727.93 203.87 L730.26 203.57 L732.72 202.04 L734.87 200.3 L737.25 198.96 L739.8 198.61 L742.37 199.82 L743.4 201.06 L743.89 202.53 L744.55 207.19 L745.09 208.33 L746.72 210.49 L747.45 211.76 L747.75 213.06 L747.78 218.7 L748.4 221.45 L749.74 224.04 L751.71 226.17 L761.38 232.81 L763.45 235.01 L764.5 237.76 L763.62 240.09 L760.93 240.53 L755.38 239.96 L753.73 241.21 L754.71 243.31 L758.42 247.05 L759.83 248.17 L761.28 248.69 L762.83 248.72 L766.3 247.99 L768.02 247.99 L769.65 248.46 L771.13 249.49 L771.98 250.65 L772.39 251.94 L772.42 253.32 L771.54 257.59 L771.65 258.92 L772.15 260.44 L772.34 260.9 L776.43 262.21 L777.72 263.46 L782.52 268.12 L786.87 269.98 L786.98 269.96 L788.66 269.74 L793.79 268.17 L796.29 267.78 L797.81 268.32 L799.08 269.61 L801.18 272.27 L810.13 277.58 L812.96 279.74 L814.69 280.76 L818.49 281.65 L820.22 282.61 L821.62 284.21 L822.4 285.85 L826.18 299.26 L826.27 301.07 L828.51 302.42 L833.99 308.98 L836.85 311.39 L847.07 316.23 Z "/>
</g>
</svg>
