<svg xmlns="http://www.w3.org/2000/svg" viewBox="0 0 1000 1455.27">
<g fill="#ccc" stroke="#333" stroke-width="0.5" stroke-linejoin="round">
<path fill-rule="evenodd" d="M294.71 1226.13 L297.63 1221.81 L297.91 1217.55 L297.23 1212.94 L297.31 1207.65 L298.15 1204.97 L300.9 1199.68 L304.12 1191.23 L303.65 1190.05 L301.78 1186.67 L287.96 1173.4 L287.74 1173.19 L285 1168.12 L285.42 1161.61 L287.39 1158.91 L292.46 1154.81 L294.73 1152.97 L297.46 1151.66 L306.09 1153.93 L315.13 1159.42 L323.32 1161.84 L329.36 1155.01 L329.74 1151.82 L329.36 1148.82 L329.56 1145.65 L331.59 1142.02 L333.63 1140.69 L342.9 1137.24 L362.44 1133.88 L364.82 1121.12 L364.44 1112.95 L360.45 1107.67 L345.59 1100.11 L332.93 1090.95 L326.02 1087.92 L313.06 1086.6 L310.29 1085.68 L307.27 1084.68 L292.63 1070.1 L292.16 1069.63 L283.82 1061.32 L269.29 1051 L266.9 1048.57 L265.07 1045.35 L263.7 1041.96 L261.9 1039.31 L258.88 1038.26 L256.59 1039.52 L250.94 1045.33 L248.15 1047.1 L239.96 1047.76 L231.94 1047.23 L226.3 1045.08 L221.33 1041.02 L216.89 1035.13 L209.82 1022.19 L207.87 1022 L205.9 1023.98 L202.83 1025.13 L197.61 1024.54 L186.9 1021.32 L181.93 1018.68 L177.76 1014.84 L170.3 1004.99 L169.79 1004.56 L161.24 997.32 L158.79 993.58 L154.65 984.24 L151.72 979.86 L137.47 964.89 L127.38 949.66 L123.36 946.72 L90.21 931.71 L83.89 926.27 L79.94 917.5 L79.77 907.93 L84.64 900.21 L89.98 900.21 L92.88 894.56 L95.15 887.1 L98.49 881.6 L101.14 880.82 L107.31 881.83 L110.13 881.71 L112.98 880.09 L118.57 875.63 L121.16 874.86 L125.23 877.28 L129.35 882.61 L132.77 888.99 L134.77 894.6 L136.67 897.56 L138.74 894.73 L141.76 887.43 L144.68 887.19 L153.82 890.87 L155.72 889.66 L156.24 888.28 L155.57 886.75 L153.82 885.1 L152.65 881.58 L152.35 876.95 L152.8 872.14 L153.82 868.16 L160.01 862.06 L159.61 853.23 L153.82 834.66 L148.98 823.65 L124.29 796.85 L111.35 775.89 L103.99 766.33 L95.67 759.92 L92.85 758.13 L95.6 755.43 L96.12 753.05 L94.97 748.84 L94.95 746.44 L96.27 743.25 L98.34 741.41 L103.34 739.76 L106.86 739.55 L110.05 740.73 L116.17 745.07 L122.41 750.94 L125.53 752.9 L129.03 752.71 L132.62 751.63 L145.46 750.71 L159.21 752.1 L165.13 751.58 L170.85 749.5 L180.79 742.05 L184.91 737.45 L186.95 731.93 L185.15 725.61 L182.13 722.9 L179.96 723.66 L178.49 725.68 L177.61 726.62 L175.37 724.81 L171.42 719.98 L163.56 715.36 L162.14 713.28 L157.79 706.88 L154.05 703.36 L152.52 701.22 L152 695.21 L149.95 692.54 L148.5 692.58 L145.78 695.36 L144.36 695.78 L142.66 694.81 L140.09 692.21 L129.53 684.37 L124.98 679.61 L123.46 675.29 L122.96 668.45 L119.97 661.2 L115.8 655.08 L111.7 651.63 L108.93 651.09 L101.14 652.99 L97.72 652.8 L95.6 652.14 L90.6 649.59 L80.24 647.33 L75.38 645.09 L71.01 639.77 L65.64 628.17 L63.77 621.43 L63.34 614.99 L65.41 607.93 L68.76 603.68 L71.61 598.72 L72.08 589.45 L68.21 574.44 L68.83 569.1 L77.37 566.26 L79.27 564.65 L80.84 562.34 L82.22 559.64 L82.69 557.24 L82.44 551.81 L82.94 549.53 L84.14 547.99 L86.76 546.45 L87.86 545.34 L99.22 525.91 L102.69 515.73 L104.51 512.59 L107.08 509.82 L111.95 505.71 L114.27 502.19 L116.77 495.9 L125.31 454.83 L126.31 453.24 L127.58 452.91 L128.43 451.97 L128.21 448.52 L127.51 445.69 L126.51 443.75 L125.08 442.39 L123.68 440.77 L122.76 439.69 L122.71 440.01 L122.06 440.38 L119.62 440.65 L117.22 439.8 L112.38 435.15 L110.23 435.15 L108.23 436.15 L106.01 436.5 L95.3 434.2 L92.9 434.67 L88.63 436.5 L86.21 436.5 L85.01 434.87 L84.11 432.01 L82.59 429.96 L79.54 430.69 L57.87 446.53 L53.98 447.94 L48.99 448.66 L41.27 451.08 L36.08 441.12 L35.38 434.27 L41.89 430.6 L45.17 431.64 L50.03 436.98 L53.55 437.42 L56.45 435.66 L58.67 432.77 L62.47 426.31 L64.76 424.89 L67.54 423.69 L69.26 421.22 L68.28 416.01 L66.09 413.58 L61.14 415.47 L58.52 413.05 L58.02 409.57 L58.82 405.41 L59.97 401.29 L60.49 398.08 L60.22 394.49 L58.22 384.4 L57.32 376.18 L56.58 372.88 L54.73 368.61 L52.93 366.39 L50.53 363.98 L48.61 361.33 L48.29 358.28 L51.96 354.99 L65.49 356.35 L70.71 355.27 L71.68 349.75 L68.56 343.27 L66.89 338.22 L72.2 336.95 L75.08 338.51 L79.62 345.08 L82.22 347.73 L86.86 349.5 L92.03 349.82 L102.14 348.49 L103.34 347.63 L104.06 346.09 L104.96 344.58 L106.71 343.8 L107.83 344.42 L109.78 347.41 L110.95 348.25 L131.83 347.29 L132.61 346.51 L135.37 343.75 L135.97 335.71 L133.42 328.8 L128.78 326.63 L107.44 324.33 L100.23 322.04 L85.08 314.51 L75.73 310.65 L62.61 302.9 L61.32 295.64 L60.69 292.46 L57.49 288.99 L53.68 287.55 L50.24 286.87 L44.75 286.96 L40.87 284.11 L39.27 282.01 L36.59 281.13 L36.41 281.07 L32.01 278 L31.54 271.14 L36.81 268.17 L42.91 267.27 L45.01 262.52 L41.42 256.54 L38 253.06 L36.76 248.98 L36.58 242.68 L39.77 234.12 L41.78 234.41 L56.1 236.54 L63.12 229.65 L60.42 224.68 L57.32 222.91 L53.83 222.14 L49.76 220.24 L47.34 218.13 L46.26 216.6 L45.51 214.82 L44.02 212.07 L41.82 210.42 L39.67 211.07 L37.6 212.55 L33.38 214.78 L30.96 217.71 L27.84 220.17 L23.37 220.24 L21.02 217.96 L16.2 210.13 L14.16 208.45 L14.98 205.49 L15.28 199.02 L16.28 192.52 L19.2 189.59 L21.85 187.63 L28.49 178.4 L29.84 175.42 L28.44 170.47 L24.92 167.36 L20.8 164.98 L17.48 162.33 L15.45 157.88 L14.46 147.38 L13.33 142.14 L6.32 133.46 L4.59 130.49 L0.9 126.67 L0 124.54 L0.42 123.06 L1.3 121.59 L1.8 119.56 L2.5 110.1 L10.19 109.37 L13.23 108.7 L14.98 106.43 L14.26 103.74 L11.71 100.9 L6.74 96.96 L8.94 94.39 L10.84 92.56 L14.98 89.85 L13.61 84.47 L28.44 85.6 L33.06 87.72 L34.43 87.04 L34.73 85.92 L34.18 84.45 L32.33 81.49 L32.06 80.2 L32.31 78.92 L33.06 77.67 L38.8 73.57 L44.92 74.45 L49.18 73.27 L49.46 62.96 L53.25 56.38 L58.82 54.01 L64.26 56.06 L67.84 62.9 L67.84 62.96 L73.2 66.1 L94.37 68.31 L101.09 67.02 L103.84 63.48 L104.96 59.24 L106.76 54.94 L109.51 52.87 L111.6 51.29 L116 50.3 L124.93 50.25 L128.98 48.85 L131.45 46.11 L133.25 42.62 L135.22 39.6 L138.24 38.18 L140.91 37.77 L142.99 36.9 L147.06 33.57 L148.78 31.16 L150 28.55 L151.7 26.21 L158.07 22.76 L157.44 19.87 L155.64 16.69 L155.22 13.82 L158.71 9.86 L164.33 6.09 L170.3 3.39 L174.77 2.6 L179.91 2.76 L193.94 0 L199.14 0.27 L204.15 1.91 L209.42 5.29 L224.18 14.76 L228.4 15.62 L248.5 7.28 L252.19 5.75 L261.9 3.61 L277.36 5.05 L287.47 10.78 L294.34 9.97 L300.43 6.89 L302.8 6.6 L306.74 7.55 L308.04 8.6 L310.51 12.04 L312.36 13.05 L314.13 12.83 L320.2 9.89 L324.54 11.68 L337.68 22.94 L352.86 41.92 L355.75 47.14 L360.82 63.06 L364.52 68.67 L368.64 71.76 L378.12 76 L382.67 79.09 L395.38 90.9 L399.77 92.99 L408.98 94.02 L413.5 95.85 L417.22 99.58 L425.24 113.99 L426.93 115.6 L431.13 118.45 L432.83 120.62 L433.65 123.5 L434.17 130.56 L434.47 131.67 L435.05 133.89 L437.4 137.85 L442.94 145 L445.24 149.69 L448.13 152.36 L451.35 153.07 L454.6 152.09 L457.64 149.58 L459.07 145.58 L461.19 142.61 L463.86 141.5 L466.83 143.04 L468.83 146.42 L468.78 149.58 L467.83 152.86 L467.23 156.42 L467.43 174.4 L466.78 179.29 L465.81 182.27 L463.14 188.59 L461.26 197.23 L462.14 202.87 L469.23 215.16 L472.32 223.14 L471.7 227.97 L468.2 231.57 L462.79 235.95 L464.33 240.78 L467.83 243.11 L472.15 244.5 L476.14 246.46 L479.61 250.01 L487.5 261.65 L503.11 275.84 L512.42 288.18 L516.12 291.2 L524.61 295.09 L536.04 300.31 L538.54 302.28 L540.58 304.64 L542.71 306.56 L545.55 307.25 L547.9 306.13 L551.79 301.82 L554.27 301.2 L558.19 304.13 L566.42 316.35 L570.37 321.03 L578.38 326.7 L582.7 328.51 L592.89 328.83 L618.56 336.89 L625.37 340.61 L631.56 345.68 L637.6 352.99 L639.75 355.59 L640.85 360.12 L639.95 364.42 L636.91 367.08 L633.89 367.25 L631.36 368.53 L629.29 370.68 L627.47 373.46 L627.79 373.96 L627.94 376.08 L627.94 378.61 L627.79 380.3 L627.12 381.73 L625.07 384.21 L624.35 385.64 L623.4 390.45 L623.27 392.85 L622.5 394.49 L619.45 397.04 L616.93 397.92 L610.77 398.36 L608.37 399.58 L606.62 402.3 L605.47 405.83 L605.97 408.71 L609.24 409.57 L613.34 409.78 L614.09 411.53 L613.49 413.79 L613.64 415.64 L619.25 419.45 L630.86 421.5 L636.91 424.5 L645.32 427.8 L648.87 430.95 L650.81 436.47 L650.14 443.01 L646.72 445.91 L636.91 448.7 L630.12 449.74 L616.08 449.03 L609.62 451.34 L606.47 454.16 L604.27 457.89 L603.4 462.56 L607.5 464.36 L607.69 464.44 L612.04 467.77 L616.23 476.76 L620.15 478.6 L640.7 480.91 L655.48 479.68 L660.23 481.03 L664.47 485.02 L666.57 490.45 L668.01 496.59 L670.29 502.72 L679.13 511.64 L690.93 515.24 L703.42 515.17 L714.25 512.92 L723.09 509.08 L727.24 507.97 L731.23 508.81 L753.08 520.26 L760.79 521.52 L763.19 523.91 L769.93 540.28 L770.43 542.7 L770.9 544.97 L771.78 549.25 L773.08 551.85 L775.62 554.25 L778.37 555.91 L780.59 558.12 L783.16 567.93 L787.36 572.04 L792.75 574.4 L797.97 575 L803.74 573.49 L806.88 570.18 L834.39 520.47 L835.82 515.14 L839.39 512.43 L849.4 510.15 L854.12 507.27 L862.53 497.99 L865.08 496.01 L871 496.24 L875.44 497.19 L879.01 499.29 L895.81 517.93 L904.08 524.65 L912.22 528.7 L931.29 531.02 L934.81 533.58 L947 547.24 L945.57 553.39 L941.33 557.73 L935.93 560.27 L931.29 561.13 L926.07 559.87 L917.28 553.91 L912.22 551.85 L907.17 551.65 L902.38 553.11 L898.78 556.52 L897.39 562.16 L896.64 568.03 L894.64 571.34 L891.52 572.76 L883.03 573.14 L880.78 573.88 L879.11 575.38 L878.06 578.55 L877.44 583.1 L877.39 587.51 L878.11 590.27 L883.18 594.96 L884.25 597.3 L884.48 599.84 L883.9 605.18 L884.18 607.77 L888.42 617.57 L894.86 626.39 L902.95 633.33 L912.22 637.56 L922.2 638.99 L926.8 641.13 L928.72 645.72 L927.72 661.93 L929.02 666.92 L929.24 667.07 L918.88 671.93 L916.76 674.18 L913.09 680.22 L909.17 684.78 L908.6 685.22 L908.27 687.27 L908.55 689.06 L909.02 690.13 L909.37 690.14 L906.87 700.11 L906.4 703.9 L906.65 707.19 L908.22 714.3 L908.25 717.25 L905.4 722.45 L901.11 723.3 L896.14 722.95 L891.19 724.72 L888.4 728.91 L886.55 733.75 L883.83 737.24 L878.46 737.4 L874.7 738.01 L867.08 739.24 L861.63 741.6 L858.69 746.16 L858.14 750.33 L858.01 760.06 L857.46 765.3 L856.84 766.79 L854.44 771.26 L853.72 772.96 L853.24 783 L850.95 793.32 L847.85 801.03 L846.58 808.33 L849.75 817.39 L856.02 824.94 L856.27 827.54 L855.37 833.12 L855.42 835.9 L856.49 840.26 L858.04 844.62 L859.96 848.7 L862.16 852.22 L865.18 855.04 L872.29 858.98 L874.79 861.41 L876.39 865.81 L876.61 873.47 L878.46 877.59 L878.54 877.81 L878.59 877.99 L878.54 878.16 L878.46 878.3 L877.66 879.5 L877.41 880.71 L877.66 881.95 L878.46 883.1 L878.76 883.9 L878.86 884.72 L878.76 885.58 L878.46 886.44 L877.79 888.09 L877.54 889.76 L877.74 891.4 L880.68 897.52 L885.2 913.35 L887.5 919.71 L890.82 922.84 L898.83 926.67 L900.51 928.4 L903.9 932.96 L906.2 934.71 L908.77 935.3 L913.99 935.02 L916.24 935.64 L918.06 937.66 L920.75 943.35 L921.33 943.98 L922.73 945.5 L925.02 946.36 L929.62 946.12 L931.97 946.39 L935.93 948.18 L937.14 949.05 L939.23 950.56 L956.51 968.01 L959.55 972.49 L960.43 975.13 L961.18 981.18 L961.93 983.81 L963.42 986.05 L969.27 991.92 L975.66 1000.66 L979.03 1004.06 L983.32 1006.74 L995.21 1009.33 L999.23 1011.13 L999.6 1015 L1000 1019.2 L997.45 1030.28 L993.01 1041.17 L988.09 1048.69 L986.12 1050.15 L982.02 1052.09 L979.98 1053.92 L978.78 1056.24 L977.03 1062.3 L975.76 1064.86 L965.62 1074.49 L962.42 1079.06 L962.42 1079.11 L962.4 1079.13 L962.37 1079.13 L959.23 1080.37 L952.54 1081.95 L949.72 1083.66 L948.02 1086.45 L946.52 1090.62 L942.25 1106.65 L940.82 1110.35 L940.63 1110.83 L937.78 1114.29 L930.44 1117.42 L923.1 1119.22 L904.9 1114.29 L898.31 1115.15 L895.01 1117.44 L893.76 1119.3 L893.69 1119.4 L892.02 1120.41 L887.72 1119.74 L884.4 1119.82 L882.23 1121.7 L878.46 1127.53 L875.91 1129.71 L869.77 1132.98 L867.68 1134.92 L866.14 1137.3 L865.4 1138.44 L865.03 1139.68 L865.88 1140.9 L871.62 1154.9 L874.87 1159.86 L878.46 1162.72 L878.74 1163.71 L878.81 1164.71 L878.74 1165.73 L878.46 1166.72 L875.24 1169.79 L868.95 1181.84 L870.67 1186.34 L869.55 1194.45 L868.77 1197.86 L865.75 1211.03 L864.9 1217.57 L865.95 1218.04 L878.46 1229.78 L885.88 1235.16 L888.95 1238.94 L890.79 1243.56 L890.79 1243.61 L891.77 1248.53 L890.94 1255.34 L887.65 1267.35 L885.08 1272.58 L882.36 1274.45 L879.33 1275.12 L875.64 1276.91 L871.92 1281.79 L868.07 1293.79 L864.58 1298.42 L860.19 1299.84 L850.12 1300.02 L845.5 1302.49 L840.74 1302.2 L836.47 1300.56 L832.6 1297.6 L829.05 1293.4 L828.35 1291.04 L828.18 1285.48 L827.1 1283.89 L824.91 1284.3 L818.54 1290.9 L785.23 1304.98 L776.87 1306.52 L773.13 1306.09 L768.83 1305.59 L760.94 1302.76 L748.03 1296.06 L745.01 1295.41 L742.42 1296.64 L734.23 1303.77 L732.53 1304.19 L722.87 1304.08 L718 1305.2 L694.4 1319.63 L691.26 1321.55 L687.76 1325.81 L684.1 1328.12 L679.95 1327.91 L671.49 1325.56 L659.5 1325.81 L656.85 1324.41 L656.31 1324.13 L646.17 1326.78 L641.2 1326.9 L636.91 1323.93 L634.6 1326.75 L633.54 1328.06 L631.04 1327.43 L628.79 1325.11 L626 1324.22 L622.03 1326.45 L622.4 1329.29 L624.15 1332.15 L624.42 1334.35 L621.83 1334.61 L613.41 1331.38 L609.19 1331.73 L607.7 1332.95 L606.05 1334.3 L591.84 1356.14 L591.54 1359.02 L592.04 1360.77 L592.76 1362.52 L593.14 1365.29 L593.36 1371.9 L593.25 1372.61 L592.89 1374.89 L590.37 1375.45 L579.95 1373.34 L578.03 1372.96 L575.98 1370.85 L575.04 1369.89 L572.82 1365.21 L568.87 1358.7 L560.31 1350.26 L551.12 1343.12 L547.87 1341.34 L546.25 1340.88 L544.38 1340.83 L538.56 1344.58 L530.48 1352.56 L527.65 1355.35 L521.53 1358.43 L514.58 1360.81 L497.44 1366.67 L474.82 1374.4 L468.63 1377.95 L463.91 1383.71 L461.49 1390.72 L458.52 1406.75 L458.22 1414.13 L460.54 1424.01 L461.26 1427.08 L460.45 1433.79 L460.32 1434.9 L457.77 1440.99 L453.75 1447.94 L451.6 1450.36 L448.83 1453.46 L443.64 1455.27 L441.32 1453.56 L436.72 1447.08 L434.45 1445.66 L432.9 1446.73 L430.28 1451.65 L428.48 1453.16 L424.54 1453.37 L421.62 1451.8 L416.02 1445.81 L416.17 1443.43 L414.95 1439.43 L414.9 1437.08 L416.05 1433.16 L417.52 1431.37 L419.27 1430.06 L421.24 1427.51 L423.79 1421.56 L423.79 1417.44 L422.59 1413.17 L421.47 1406.7 L413.88 1386.71 L412.4 1380.63 L412.35 1370.21 L411.73 1364.45 L409.13 1355.77 L400 1335.85 L395.38 1329.5 L393.44 1327.4 L389.41 1323.04 L359.55 1301.04 L355.83 1300.4 L339.33 1300.8 L336.45 1300.37 L334.48 1298.15 L332.38 1292.8 L332.04 1290.47 L332.46 1286.06 L331.89 1283.53 L330.49 1281.55 L326.72 1278.3 L325.59 1276.26 L325.89 1274.16 L328.39 1270.32 L328.46 1267.62 L327.27 1265.1 L324.02 1261.94 L322.7 1260.09 L315.91 1243.61 L315.88 1243.55 L315.88 1243.51 L315.83 1243.51 L311.76 1238.3 L299.7 1231.62 Z "/>
</g>
</svg>
