<svg xmlns="http://www.w3.org/2000/svg" viewBox="0 0 1000 596.14">
<g fill="#ccc" stroke="#333" stroke-width="0.5" stroke-linejoin="round">
<path fill-rule="evenodd" d="M30 592.56 L29.78 593.76 L29.1 595.23 L28.09 596.14 L27.01 595.69 L26.9 594.62 L27.74 593.59 L28.97 592.84 Z M128.96 591.87 L128.96 590.37 L129.52 589.99 L129.8 590.56 Z M707 162.14 L707.76 163.11 L708 163.59 L708.07 164.22 L707.65 163.74 L707.39 163.24 Z M937.72 0 L938.34 2.06 L937.61 2.05 L936.95 1 Z M28.58 556.11 L30.61 557.53 L31.53 558.49 L31.02 558.91 L29.73 559.44 L26.34 562.02 L24.53 563.03 L17.2 562.84 L9.17 565.33 L2.68 565.63 L0 558.91 L2.29 561.74 L6.62 563.02 L11.22 562.76 L14.31 560.97 L16.03 561.06 L18.71 560.21 L21.25 559.05 L22.54 558.17 L23.15 558.91 L23.85 558.17 L24.83 558.66 L25.93 558.91 L25.93 558.17 L24.94 557.52 L24.35 556.59 L24.03 555.43 L23.85 554.1 Z M7.59 555.48 L7.41 555.15 L7.46 554.92 L7.38 554.79 L6.85 554.73 L6.82 554.27 L7.01 554.18 L7.3 554.22 L10.7 552.97 L14.52 553.22 L18.42 553.92 L21.8 554.1 L20.17 555.67 L17.07 556.05 L13.95 555.61 L12.27 554.73 L11.01 555.43 L8.76 555.1 Z M996 339.06 L997.16 333.82 L998.21 331.78 L1000 330.8 L999.56 332.99 L998.51 335.15 Z M912.13 86.49 L911.41 86.22 L911.45 85.82 L911.97 85.73 L911.72 85.42 L910.92 85.17 L909.94 85.39 L909.11 85.13 L908.55 84.72 L908.71 84.37 L909.47 84.44 L909.74 84.23 L909.45 83.72 L910.81 82.41 L911.43 82.16 L912.64 82.06 L913.71 81.6 L914.17 80.8 L914.55 80.01 L915.1 79.62 L915.37 78.42 L915.3 76.73 L915.99 76.53 L916.68 76.59 L917.41 76.7 L918.3 77.61 L918.63 78.81 L918.22 79.26 L917.91 80.32 L917.91 81.11 L917.8 82.27 L918.09 82.71 L917.63 82.85 L917.58 83.03 L918.35 82.99 L919.47 84.44 L921.65 85.98 L923.51 87.23 L924.71 88.44 L924.02 91.19 L924.39 91.8 L924.67 94.08 L923.83 94.32 L923.55 95.43 L924.44 97.39 L924.58 98.76 L925.32 99.35 L925.64 100.75 L923.83 100.75 L922.3 99.95 L921 97.67 L920.58 96.6 L919.7 96.27 L919 96.74 L918.26 96.37 L918.72 94.55 L920.37 94.56 L921.05 94.04 L920.4 93.15 L919.93 92.54 L920.07 91.71 L919.7 91.05 L918.72 90.96 L917.75 89.52 L916.82 88.21 L915.47 88.07 L913.75 87.05 L912.87 86.51 Z M898.1 70.52 L896.28 70.91 L894.9 69.26 L894.25 66.88 L894.64 65.03 L896.29 65.57 L898.07 66.83 L898.99 68.54 Z M943.47 53.61 L942.13 53.38 L940.93 53.23 L940.19 52.49 L940.11 51.76 L939.46 50.25 L940.74 49.79 L941.42 49.67 L942.16 49.64 L943.58 50.93 L944.91 51.49 L946.35 51.75 L947.13 52.71 L948.12 52.27 L949.38 52.45 L950.36 53.65 L948.76 53.73 L948.49 54.55 L948.47 55.61 L947.59 56.42 L946.36 56.39 L944.97 55.81 L944.04 54.84 Z M648.26 319.23 L648.79 320.3 L648.41 320.21 L648.29 319.97 L648.29 319.65 Z M910.26 205.38 L910.16 206.53 L909.98 206.89 L909.97 206.48 Z M908.26 86.37 L908.6 86.49 L909.04 86.82 L909.36 87.07 L909.27 87.22 L908.97 87.09 L908.48 87.02 L908.19 86.8 L908.04 86.57 Z M911.86 87.29 L912.08 87.38 L912.44 87.6 L912.64 87.93 L912.55 88.24 L912.49 88.42 L912.37 88.45 L911.97 88 L911.72 87.76 L911.73 87.56 L911.61 87.4 L911.68 87.27 Z M922.04 83.33 L922.28 83.42 L922.56 84.13 L922.46 84.41 L922.14 84.44 L921.73 84.29 L921.45 84.02 L921.08 83.87 L921.05 83.44 L921.26 83.25 L921.6 83.26 L921.85 83.44 Z M922.3 82.59 L922.44 82.62 L922.69 82.84 L923.02 82.93 L923.15 83.17 L922.98 83.41 L922.72 83.29 L922.39 83.07 L922.21 82.81 Z M921.68 80.55 L921.82 80.43 L922.26 80.3 L922.72 80.4 L923.12 80.4 L923.31 80.52 L923.12 80.92 L922.81 81.36 L922.15 81.62 L921.75 81.9 L921.56 81.93 L921.52 81.64 L921.62 81.11 L921.56 80.76 Z M942.92 48.66 L943.22 48.31 L943.92 48.31 L945.54 48.42 L945.98 48.45 L945.84 48.94 L944.91 48.94 L945.02 49.53 L944.99 49.86 L943.78 49.44 Z M938.05 53.41 L938.38 53.52 L938.31 54 L937.79 54.08 L937.76 53.63 Z M936.47 55.26 L936.65 55.45 L936.87 55.93 L936.58 55.93 L936.13 55.52 Z M938.42 41.65 L938.79 41.72 L939.27 41.87 L938.94 42.13 L938.2 42.06 L937.68 41.94 L937.79 41.69 Z M954.8 54.34 L956.02 54.85 L956.68 56.11 L957.31 57.07 L956.64 57.41 L956.02 58 L955.76 58.85 L955.06 58.67 L954.17 57.78 L953.95 56.56 L954.47 55.34 Z M958.45 52.34 L958.93 52.45 L959.89 53.49 L960.04 54.26 L959.45 54.41 L958.93 53.86 L958.27 52.93 Z M958.23 48.94 L958.56 48.97 L958.67 49.6 L958.97 50.23 L958.6 50.27 L958.23 49.49 Z M963.54 54 L964.02 54.3 L963.91 54.89 L963.8 55.56 L963.43 55.37 L963.32 54.63 Z M965.54 78.34 L965.96 78.46 L966.46 79.12 L966.54 79.57 L966.01 79.74 L965.44 79.69 L964.84 79.09 L964.79 78.71 L965.11 78.46 Z "/>
</g>
</svg>
