<svg xmlns="http://www.w3.org/2000/svg" viewBox="0 0 1000 1030.46">
<g fill="#ccc" stroke="#333" stroke-width="0.5" stroke-linejoin="round">
<path fill-rule="evenodd" d="M1000 507.24 L999.78 524.55 L989.59 565.6 L983.76 578.34 L983.09 585.88 L985.5 595.33 L988.1 601.98 L987.18 608.18 L979.03 616.14 L972.61 619.87 L966.11 621.91 L959.31 622.86 L932.59 623 L925.97 624.01 L918.18 627.87 L913.3 633.97 L905.61 648.31 L902.09 651.67 L893.7 656.33 L890.72 658.79 L889.37 661.92 L888.89 665.85 L889.71 746.69 L882.11 747.86 L879.7 748.69 L864.07 757.21 L851.49 767.94 L807.28 822.01 L803.78 826.29 L800.1 829.19 L795.7 831.09 L783.1 834.01 L769.56 841.64 L720.4 880.69 L714.47 888.32 L692.92 916.04 L690.06 918.75 L662.8 931.1 L657.16 932.27 L645.63 950.41 L639.63 955.96 L638.61 957.22 L639.48 960.71 L644.17 968.4 L645.27 972.59 L644.6 975.51 L642.84 977.32 L640.37 978.22 L633.15 979.03 L632.09 981.25 L633.28 987.98 L632.55 992.96 L630.49 999.29 L627.33 1004.78 L618.25 1009.97 L616.87 1015.62 L617.57 1024.07 L615 1025.61 L604.5 1030.46 L599 1026 L585.38 1022.88 L578.75 1019.4 L572.46 1014.98 L567.46 1010.59 L570.46 1010.1 L572.01 1009.37 L573 1008.13 L574.26 1006.03 L564.97 1005.8 L560.93 1006.44 L558.23 1008.31 L556.16 1008.31 L553.15 1000.81 L548.53 995.97 L530.98 981.19 L484.13 953.83 L406.57 925.59 L326.7 893.72 L263.18 873.41 L273.25 864.97 L285.37 864.5 L297.77 868.47 L308.61 873.41 L308.07 870.47 L306.48 868.34 L303.98 867 L300.71 866.56 L298.15 865.82 L295.45 861.76 L292.78 859.72 L286.6 857.26 L283.08 856.95 L277.2 860.11 L274.38 858.66 L271.68 856.24 L268.93 854.96 L267.87 852.11 L270.79 845.84 L275.04 839.56 L281.27 834.09 L284.74 828.97 L289.1 825.38 L295.05 827.36 L298.69 825.62 L302.53 825.05 L310.86 825.11 L312.56 824.73 L316.56 823.33 L318.78 823.01 L321.2 823.72 L325.21 826.74 L326.71 827.36 L333.25 825.54 L338.88 822.1 L345.24 819.1 L354.06 818.66 L353.38 817.52 L352.63 815.05 L352.01 813.88 L358.05 812.06 L364.15 811.21 L368.68 808.85 L370.1 802.28 L367.63 802.28 L365.57 802.78 L363.33 802.92 L361 803.27 L358.77 804.56 L356.83 801.53 L356.31 800.2 L353.03 800.82 L349.26 800.93 L346.1 801.46 L344.81 803.42 L343.95 806.32 L341.79 807.74 L335.97 809.34 L332.06 811.21 L325.7 811.4 L322.44 812.15 L315.63 815.41 L308.42 816.8 L301.36 819.74 L297.31 820.73 L295.17 820.51 L288.52 819 L284.88 818.66 L277.38 815.89 L274.95 809.5 L273.21 802.46 L267.69 797.71 L267.69 795.66 L269.33 794.12 L270.26 792.16 L270.5 789.59 L270.17 786.3 L267.67 788.57 L265.25 790.12 L263.05 790.3 L261.12 788.39 L258.86 788.39 L258.86 793.14 L250.81 785.29 L254.96 774.09 L267.69 756.42 L273.1 759.32 L274.88 760.99 L276.96 758.7 L274.99 754.34 L274.71 749.73 L276.65 746.17 L281.27 745 L274.59 740.46 L268.63 745.73 L258.86 760.99 L242.35 771.26 L231.62 775.19 L226.79 771.37 L224.23 771.52 L202.96 767.45 L200.83 767.39 L198.7 767.07 L195.33 765.76 L182.15 756.4 L177.34 754.2 L173.25 751.11 L170.24 745 L169.13 738.88 L170.13 734.8 L173.46 731.85 L179.29 729.03 L173.31 729.99 L156.47 736.91 L140.85 726.75 L136.4 718.01 L133.33 714.37 L128.32 712.84 L124.7 711.28 L120.32 707.45 L113.29 699.15 L119.8 697.85 L131.04 691.48 L137.27 690.01 L142.47 690.69 L147.94 692.34 L158.94 697.07 L152.25 690.2 L143.84 684.35 L136.7 677.72 L131.12 661.4 L130.47 660.32 L128.96 659.19 L129.53 656.65 L131.61 652.22 L132.37 647.49 L134.46 642.83 L137.4 638.56 L140.85 634.99 L130.19 633.52 L125.74 629.33 L123.11 622.83 L118.02 614.42 L114.24 611.84 L109.77 609.96 L106.01 607.14 L104.47 601.75 L104.68 596.94 L105.38 592.56 L106.78 588.47 L108.99 584.51 L106 585.1 L104.08 586.39 L102.37 587.86 L99.93 589.09 L97.64 589.58 L96.22 589.51 L94.65 589.25 L91.92 589.09 L77.31 591.37 L69.78 594.3 L60.68 599.59 L52.46 605.96 L47.5 612.14 L45.44 612.14 L46.16 606.83 L45.44 592.61 L43.99 585.56 L43.82 581.45 L45.44 577.65 L41.55 574.5 L30.08 555.99 L29.42 555.84 L28.7 554.64 L27.15 554.43 L25.58 553.78 L24.9 551.26 L23.21 547.69 L14.8 536.52 L12.4 535.02 L10.94 531.75 L8.92 528.59 L4.74 527.38 L9.33 521.56 L10.78 518.87 L11.31 514.58 L10.41 511.43 L6.09 505.12 L4.74 502.02 L11.79 503.09 L13.78 504.31 L16.04 502.92 L16.81 503.73 L18.3 506.6 L23.91 504.2 L29.92 504.31 L35.81 506.19 L40.92 509.08 L45.13 513.82 L51.91 525.13 L63.3 531.15 L71.36 538.78 L79.74 544.72 L85.68 543.82 L88.62 543.39 L88.62 541.1 L84.58 540.2 L81.1 538.54 L78.59 535.87 L77.31 531.94 L81.83 531.94 L81.83 529.67 L72.12 527.42 L62.99 524.26 L58.13 519.16 L61.27 511.15 L65.17 508.25 L75.12 504.39 L79.36 502.02 L81.84 498.68 L83.86 495.04 L86.51 493.13 L90.89 495.16 L90.77 491.3 L91.74 487.62 L93.39 484.3 L95.42 481.42 L98.65 482.31 L120.57 483.89 L126.79 485.61 L130.47 486 L133.2 485.02 L139.83 480.37 L142.9 478.93 L136.82 477.62 L129.77 478.48 L123.56 477.92 L122.82 474.14 L122.55 474.35 L128.91 466.31 L140.85 440.05 L132.58 450.22 L127.27 459.34 L120.8 466.25 L108.99 469.8 L103.1 469.5 L98.12 468.54 L93.76 468.54 L85.18 473.72 L79.25 474.23 L73.74 472.28 L70.33 467.7 L77.79 466.31 L81.71 462.24 L85.05 457.42 L90.89 453.78 L90.89 451.49 L87.93 451.01 L86.13 450.41 L84.94 449.16 L83.89 446.91 L81.83 446.91 L78.69 457.23 L76.34 461.23 L72.6 462.93 L67.27 461.26 L62.58 457.23 L56.56 449.2 L53.16 451.09 L50.57 450.71 L48.71 448.46 L47.5 444.82 L45.88 450.51 L48.63 454.17 L53.64 456.52 L59.02 458.36 L54.49 460.63 L63.62 467.48 L64.13 474.96 L59.28 482.15 L52.23 488.09 L53.62 490.91 L53.6 493.89 L52 496.27 L48.63 497.22 L45.94 496.18 L43.91 493.65 L35.13 478.93 L32.66 473.64 L30.56 463.8 L27.89 457.69 L24.49 451.96 L21.38 448.05 L19.84 444.41 L19.57 438.9 L20.16 428.59 L21.82 428.42 L20.16 392.92 L29.42 382.43 L33.18 381.53 L34.64 382.69 L35.75 384.88 L38.47 387 L63.92 386.81 L69.2 385.95 L75.94 382.96 L85.47 382.02 L104.47 382.43 L90.81 378.21 L88.62 379.19 L86.13 381.05 L80.45 381.08 L74.31 379.88 L70.33 378.05 L66.67 379.64 L61.37 380.67 L56.56 380.09 L54.49 376.79 L53.44 374.28 L51.14 373.6 L48.75 373.65 L47.5 373.26 L47.26 370.64 L48.11 369.62 L49.2 369.02 L52.49 362.44 L59.12 359.33 L67.35 357.83 L74.86 357.45 L74.86 354.94 L69.09 353.08 L61.61 354.43 L47.5 359.52 L39.79 360.33 L31.46 358.54 L24.96 353.79 L22.62 345.79 L21.34 347.3 L20.6 347.47 L20.24 348 L20.16 350.58 L15.31 345.79 L13.45 346.16 L12.85 347.51 L12.1 348.63 L11.31 350.58 L4.19 344.76 L5.32 328.8 L0 322.68 L0 320.6 L7.86 314.86 L22.35 310.35 L30.99 308.79 L36.21 310.04 L48.78 317.98 L56.33 320.61 L61.34 319.78 L71.39 312.39 L84.17 306.16 L90.18 302.32 L94.69 296.7 L99.06 286.17 L101.79 281.28 L104.98 276.71 L106.87 275.74 L112.06 275.24 L113.27 274.86 L112.92 272.09 L108.37 266.48 L106.91 263.11 L108.43 253.47 L113.68 243.11 L120.6 238.2 L127.06 244.94 L134.31 241.08 L140.78 240.63 L147.15 241.08 L154.12 239.91 L159.65 235.27 L167.56 222.08 L173.3 219.14 L177.86 217.86 L178.06 215.28 L176.73 212.25 L176.66 209.58 L179.32 206.05 L181.2 204.39 L186.78 201.22 L188.2 201.46 L189.89 202.6 L191.51 202.95 L192.81 200.84 L193.66 198.81 L194.77 197.55 L197.06 195.61 L198.58 193.5 L209.87 157.07 L209.94 155.39 L209.29 153.87 L209.51 152.48 L212.05 151.25 L213.93 150.68 L214.99 150.1 L215.7 149.21 L216.58 147.69 L219.47 136.68 L221.03 133.84 L224.09 132.69 L227.32 133.09 L229.98 132.88 L231.32 129.97 L231.72 115.75 L232.71 114.69 L238.12 105.11 L241.16 102.02 L251.44 95.71 L252.52 95.51 L252.95 94.24 L252.89 90.13 L253.54 88.5 L255.18 88.48 L256.9 88.74 L257.92 87.93 L257.79 86.27 L256.54 82.51 L256.33 81.5 L260.85 56.55 L260.82 53.02 L260.4 50.74 L260.62 48.66 L262.61 45.61 L274.53 38.59 L289.55 33.09 L339.32 22.45 L346.99 22.73 L352.94 26.65 L358.98 32.1 L366.84 36.97 L373.08 39.28 L378.54 40.49 L384.17 40.74 L394.62 38.45 L456.9 24.82 L459.16 21.7 L460.77 1.17 L601.62 0.39 L671.92 0 L680.32 0.88 L691.54 4.25 L696.12 4.66 L699.79 7.87 L702.2 15.35 L706.7 37.51 L709.15 41.45 L733.77 57.11 L747.36 70.23 L758.89 85.15 L766.77 100.27 L770.65 111.69 L772.67 114.89 L774.52 116.06 L779.92 118.05 L782.07 119.78 L783.51 122.4 L785.74 131.21 L788.18 134.5 L796.67 140.41 L799.89 143.73 L801.06 146.5 L802.75 155.74 L805.11 158.85 L808.55 160.48 L811.07 162.65 L810.71 167.42 L808.91 175.78 L810.32 181.73 L813.93 186.78 L818.86 192.25 L824.05 195.62 L824.7 197.52 L821.15 199.99 L817.97 202.93 L822.08 204.3 L827.93 204.56 L830.07 204.14 L833.32 204.58 L836.85 204.54 L839.93 205.25 L843.9 211.18 L847.86 214.71 L852.27 217.69 L855.73 219.32 L869.85 231.69 L870.28 235.88 L869.01 239.6 L867.1 243.32 L865.57 247.53 L865.61 250.41 L866.94 256.1 L866.51 259.2 L863.88 263.11 L860.37 265.31 L856.66 266.97 L853.42 269.27 L847.51 279.74 L843.9 294.23 L846.26 306.41 L858.16 310.04 L871.86 309.55 L885.02 310.92 L892.76 313.13 L896.69 316.37 L897.03 318.55 L897.33 320.55 L897.46 321.42 L892.38 341.28 L890.81 352.92 L891.39 377.34 L891.93 380.69 L894.95 390.17 L895.03 391.65 L894.67 395.2 L894.84 396.42 L895.97 397.81 L898.35 399.36 L899.28 400.2 L912.85 418.32 L917.85 421.97 L919.67 425.19 L933.87 444.32 L931.29 451.49 L926.77 458.02 L920.54 462.38 L912.9 462.98 L906.19 464.31 L899.83 469.66 L894.57 476.75 L889.28 486.52 L884.18 491.37 L881.87 495.43 L881.1 499.87 L881.13 503.84 L880.21 506.49 L876.63 506.95 L871.86 535.89 L866.98 544 L860.95 551.13 L853.33 562.42 L849.93 573.31 L856.59 579.24 L859 568.01 L865.54 561.01 L874.94 557.93 L885.89 558.51 L890.81 560.61 L900.29 566.75 L903.8 567.53 L909.86 565.1 L921.48 557.42 L941.05 538.21 L945.1 533.03 L953.11 516.64 L956.33 512.08 L960.2 508.46 L964.38 505.75 L969.36 503.84 L979.44 502.41 L981.67 502.58 L990.72 505.32 L993.38 506.83 L996.2 507.76 Z M267.69 813.88 L263.91 816.22 L263.59 820.05 L265.65 829.85 L264.76 835.81 L262.5 839.33 L259.54 842.7 L256.61 848.11 L256.27 853.41 L259.11 864.48 L258.86 868.64 L254.65 872.52 L248.91 873.47 L243.57 871.46 L240.57 866.56 L247.33 866.56 L242.83 858.2 L237.02 850 L230.4 843.73 L223.6 841.27 L218.79 840.85 L188.58 832.83 L177.78 827.26 L149.68 823.01 L115.75 813.88 L115.75 811.4 L128.13 808.4 L129.45 803.83 L133.51 799.6 L138.4 797.71 L151.15 795.67 L187.3 795.66 L192.85 794.87 L205.36 791.6 L225.15 789.92 L232.01 790.43 L238.49 793.14 L233.61 798.93 L236.86 800.65 L249.62 800.2 L255.54 801.91 L260.27 804.9 L264.19 809.01 Z "/>
</g>
</svg>
