<svg xmlns="http://www.w3.org/2000/svg" viewBox="0 0 1000 507.88">
<g fill="#ccc" stroke="#333" stroke-width="0.5" stroke-linejoin="round">
<path fill-rule="evenodd" d="M882.54 158.53 L951.13 174.12 L989.24 188.24 L1000 205.17 L968.17 258.2 L921.32 314.6 L864.83 359.67 L802.96 377.94 L735.04 385.45 L681.24 406.08 L584.85 472.11 L568.93 486.91 L561.08 496.33 L546.74 502.49 L511.32 507.88 L444.07 506.53 L410.89 498.01 L396.77 481.53 L373.23 443.75 L316.07 417.52 L247.25 401.48 L188.3 395.09 L68.59 398.23 L19.95 386.35 L0 348.23 L11.88 304.73 L94.15 188.24 L106.03 136.11 L119.7 106.74 L150.64 75.23 L187.18 53.03 L213.63 48.66 L273.71 56.51 L335.57 48.66 L412.24 12 L453.26 0 L526.56 4.26 L597.18 27.36 L804.53 130.95 Z "/>
</g>
</svg>
