<svg xmlns="http://www.w3.org/2000/svg" viewBox="0 0 1000 492.49">
<g fill="#ccc" stroke="#333" stroke-width="0.5" stroke-linejoin="round">
<path fill-rule="evenodd" d="M1000 142.71 L998.66 147.12 L997.39 153.24 L996.57 159.41 L996.64 163.94 L993.92 166.26 L987.17 167.26 L984.08 169.69 L980.27 180.91 L978.1 185.66 L977.88 186.97 L977.9 190.42 L977.55 192.05 L975.9 194.44 L971.69 198.01 L970.35 199.93 L970.02 200.41 L968.86 203.66 L968.73 205.74 L969.08 207.92 L969.46 216.96 L969.06 218.77 L967.84 221.82 L966.32 224.03 L964.67 225.33 L963.32 227.08 L962.78 230.65 L963 236.35 L961.87 242.01 L959.73 246.97 L956.92 250.71 L954.79 252.09 L950.11 253.59 L947.95 255.07 L946.63 256.94 L944.8 261.18 L943.71 263.11 L932.24 272.42 L929.61 276.74 L929.24 282.12 L931.29 292.86 L930.68 297.02 L928.73 301.34 L928.57 320.4 L925.25 324.67 L922.18 327.11 L918.92 328.07 L908.41 327.03 L905.23 327.24 L902 328.36 L892.84 328.83 L890.28 329.84 L884.93 332.92 L877.36 334.05 L868.27 338.71 L862.93 339.18 L857.43 337.29 L852.79 333.85 L848.63 328.98 L838.8 313.83 L837.36 311 L835.08 300.06 L833.55 297.05 L830.56 296.37 L824.08 296.46 L821.28 295.18 L820.1 293.31 L818.51 288.18 L817.35 285.9 L815.84 284.52 L812.66 283.27 L806.77 279.73 L804.21 278.95 L795.1 281.85 L789.11 281.98 L786.17 282.58 L782.74 284.62 L781.27 287.09 L780.27 289.92 L778.22 292.89 L775.62 294.35 L773.63 293.48 L771.45 291.63 L768.27 290.24 L762.45 291.57 L748.86 298.08 L744.41 297.05 L740.87 293.55 L735.97 291.32 L730.8 290.39 L726.41 290.73 L720.15 290.17 L710.58 284.3 L705.07 283.72 L702.53 283.05 L697.32 278.28 L694.6 276.84 L691.75 276.89 L654.6 285.5 L643.71 286.24 L638.65 288.29 L638.45 290.29 L638.39 292.49 L638.74 297.09 L638.85 298.02 L638.86 298.95 L638.79 299.9 L638.65 300.83 L636.29 304.37 L635.89 304.79 L630.55 310.46 L627.92 313.94 L625.89 318.04 L619.07 339.03 L615.4 346.65 L611.01 353.38 L605.91 358.54 L601.9 360.64 L599.77 359.73 L597.8 357.54 L594.29 355.77 L592.32 356.64 L587.02 361.55 L584.08 362.86 L580.99 362.53 L579.2 361.86 L577.69 362.16 L575.49 364.78 L574.8 366.63 L573.84 371.37 L572.55 373.73 L571.1 374.88 L567.78 376.16 L560.8 380.46 L560.21 380.82 L553.54 382.91 L549.49 385.42 L541.54 392.87 L537.4 394.39 L533.75 392.99 L527.08 386.92 L522.76 385.54 L516.42 387.97 L514.75 387.75 L513.1 385.26 L513.54 383.03 L514.54 380.76 L514.45 378.18 L511.32 374.38 L507.2 373.7 L499.11 375.28 L497.35 374.36 L493.54 369.63 L491.54 367.92 L489.78 367.41 L487.91 367.35 L471.76 371.66 L468.73 373.42 L466.81 377.25 L465.16 387.44 L463.07 391.6 L463.02 391.73 L462.98 391.85 L463.02 392.01 L463.07 392.19 L463.34 393.63 L463.43 395.06 L463.34 396.44 L463.07 397.8 L453.67 404.5 L429.97 404 L419.48 410.75 L417.56 411.14 L395.78 408.47 L385.27 410.01 L381.82 409.85 L377.87 409.66 L375.29 410.87 L366.82 412.78 L350.12 416.54 L347.05 419.05 L342.35 428.85 L340.68 430.3 L337.27 430.88 L335.67 431.81 L333.39 434.64 L333.62 435.61 L334.84 436.66 L335.42 439.69 L333.66 450.51 L333.22 456.02 L334.37 460.93 L339.5 465.97 L346.25 470.91 L345.98 471.01 L341.66 472.54 L337.69 473.6 L334.64 475.87 L328.83 482.53 L324.55 485.19 L319.43 485.73 L314.19 484.7 L307.8 481.87 L299.92 481.3 L263.97 485.5 L250.83 490.86 L244.32 491.48 L222.67 489.23 L182.44 491.83 L172.29 492.49 L157.59 488.47 L153.6 486.31 L146.12 482.26 L144.29 480.2 L142.91 477.52 L139.66 474.41 L136.02 471.79 L133.4 470.47 L131.42 470.77 L129.66 471.64 L127.85 471.7 L125.71 469.49 L119.77 460.56 L118.14 459.48 L113.73 458.55 L111.92 457.79 L110.19 456.19 L92.17 431.98 L86.64 427.38 L75.19 425.65 L73.37 425.14 L66.09 423.1 L59.76 421.73 L53.35 425.62 L49.25 421.92 L43.57 419.89 L39.54 417.68 L40.49 413.37 L38.38 411.61 L37.69 411.18 L38.69 406.29 L39.6 403.63 L41.39 401.41 L39.11 398.96 L38.27 397.43 L35.64 392.63 L33.79 391.44 L30.98 391 L28.56 389.52 L24.14 384.65 L22.88 380.55 L22.87 374.84 L22.03 370.08 L19.29 360.61 L19.22 359.35 L19.45 356.33 L19.29 355.18 L18.64 354.27 L17.55 353.9 L15.61 352.12 L14.01 351.39 L12.67 350.52 L12.09 348.97 L11.87 347.77 L11.31 346.25 L10.71 344.93 L10.24 344.37 L9.47 343.82 L9.8 342.49 L10.49 340.96 L10.89 339.78 L10.09 337.69 L8.29 335.68 L6.44 334.15 L5.44 333.56 L1.91 333.18 L0.54 332.36 L0 330.77 L0.11 327.86 L0.42 326.66 L0.85 325.88 L1.31 324.21 L2.87 310.09 L3.59 306.3 L5.37 302.74 L9.96 296.1 L10.89 292.57 L12.2 290.07 L15.1 287.72 L17.98 284.67 L18.36 283.31 L19.29 279.98 L17.66 267.57 L18.09 262.52 L20.87 259.13 L22.88 255.42 L31.76 229.77 L36.08 222.39 L42.12 217.14 L44.64 213.93 L45.68 208.9 L47.27 206.42 L56.71 199.53 L64.57 197.84 L73.01 200.05 L93.04 210.24 L96.09 209.66 L99.51 207.41 L102.73 205.29 L106.91 204.06 L109.47 205.3 L114.84 211 L121.26 212 L155 198.68 L158.1 196.11 L164.16 185.64 L166.99 183.28 L171.31 182.54 L175.01 183.17 L178.37 182.98 L181.6 179.82 L183.04 176.16 L184.4 167.88 L185.49 163.91 L187.81 159.23 L191.49 156.85 L195.74 156.19 L205.16 156.92 L210.98 154.24 L216.15 149.41 L219.8 143.22 L220.96 137.33 L220.74 125.35 L220.71 123.73 L221.35 116.53 L223.58 107.72 L226.86 99.52 L231.09 92.63 L236.26 87.72 L259.89 78.48 L266.39 73.38 L270.52 70.12 L270.96 57.32 L276.08 58.48 L280.02 55.88 L287.49 46.71 L293.26 43.6 L294.72 42.12 L295.6 39.74 L296.04 34.72 L296.95 32.5 L300.56 30.21 L308.33 31.34 L313.33 28.68 L314.55 28.43 L315.77 28.68 L321.52 31.59 L326.6 33.15 L331.52 32.87 L338.72 26.23 L342.01 24.97 L349.19 24.77 L366.58 26.38 L371.66 29.49 L370.12 34.05 L370.3 37.9 L371.15 41.56 L371.61 45.56 L370.88 54.43 L371.86 57.47 L375.29 58.11 L379.74 57.77 L386.52 53.81 L390.35 52.9 L391.97 53.46 L395.45 56.01 L397.14 56.87 L398.95 57 L403.36 56.12 L408.77 53.95 L410.04 51.78 L410.5 48.42 L411.73 43.16 L412.24 43.05 L414.4 43 L415.18 42.41 L415.6 40.61 L415.25 39.33 L414.69 38.52 L414.38 38.21 L417.19 29.44 L419.59 25.6 L422.15 23.15 L425.01 21.74 L428.39 21.01 L433.8 21.07 L435.61 20.77 L438.1 19.77 L439.42 18.62 L454.65 1.79 L455.32 0.45 L456.34 0 L457.3 0.4 L458.79 1.01 L461.75 6.24 L463.07 7.66 L467.19 10.4 L469.31 15.84 L472.51 29.48 L475.34 38.08 L476.24 40.01 L479.26 42.34 L482.92 43.33 L489.95 43.4 L489.13 45.1 L488.86 46.57 L488.97 50.79 L488.59 53.97 L488.58 54.05 L498.68 57.5 L502.5 57.92 L506.06 57.56 L511.94 55.19 L513.52 56.39 L513.56 56.41 L515.19 61.52 L516.08 66 L517.11 79.03 L516.84 80.13 L515.5 82.15 L515.39 83.27 L515.39 83.29 L516.01 84.2 L518.4 85.98 L518.42 85.99 L518.7 86.6 L518.75 86.7 L520.08 88.11 L520.14 88.18 L520.47 89.34 L520.05 90.86 L519.04 91.46 L517.91 91.78 L517.13 92.42 L510.49 103.28 L509.78 106.83 L512.05 109.96 L516.48 111.59 L524.57 112.2 L528.47 110.76 L530.94 108.2 L534.37 104.65 L537.55 102.28 L543.17 101.66 L548.05 104.2 L557.11 112.74 L562.94 115.6 L566.37 112.95 L568.18 106.23 L569.18 96.84 L571.36 94.2 L572.57 91.21 L573.57 88.01 L576.93 80.45 L577.93 79.12 L578.36 79.54 L582.23 80 L583.95 78.38 L587.78 73.8 L590.45 72.3 L604 71.1 L604.87 69.9 L606.13 66.17 L607.03 62.32 L607.4 59.84 L608.05 58.17 L609.85 56.82 L611.93 56.78 L619.12 59.49 L628.19 59.15 L628.16 54.5 L630.9 53.88 L645.74 61.47 L649.59 62.42 L653.75 60.93 L655.76 59.03 L658.55 55.56 L660.35 54.55 L661.97 54.43 L665.76 55.01 L672.4 53.93 L675.14 54.42 L690.73 73.1 L693.51 75.14 L697.44 75.75 L700.44 75.57 L703.2 75.99 L706.48 78.44 L709.35 81.43 L712.2 83.5 L715.43 84.11 L719.55 82.63 L723.34 79.33 L729.08 70.9 L732.69 67.38 L735.45 66.8 L739.15 66.75 L742.4 66.1 L743.83 63.63 L741.69 59.56 L737.64 57.1 L735.5 54.64 L739.06 50.66 L741.74 49.37 L748.87 47.92 L751.6 48.17 L754.77 50.36 L757.28 53.17 L759.96 55.02 L763.74 54.39 L766.75 51.56 L772.23 43.41 L775.41 41.21 L777.84 41.8 L787.67 47.06 L804.79 51.91 L807.69 51.88 L814.21 50.45 L816.78 51.21 L819.98 49.91 L822.64 48.83 L835.22 47.41 L838.51 48.26 L840.28 49.46 L843.55 52.65 L845.33 53.89 L846.65 54.07 L849.38 53.46 L851.12 53.97 L854.08 57.01 L859.97 66.13 L862.68 68.33 L864.51 67.1 L867 64.14 L870.03 61.35 L873.57 60.69 L876.78 62.53 L883.22 68.48 L892.68 73.22 L899.01 79.2 L904.05 87.38 L906.27 96.88 L907.43 105.44 L912.4 109.09 L924.83 111.46 L930.55 115.16 L932.58 116.06 L934.34 116.17 L938.55 115.66 L940 115.93 L941.93 118.09 L941.95 119.97 L941.46 121.71 L941.86 123.4 L943.16 124.52 L951.4 127.05 L961.11 126.67 L964.85 128.16 L973.74 137.12 L980.18 139.11 L993.92 139.7 Z "/>
</g>
</svg>
