<svg xmlns="http://www.w3.org/2000/svg" viewBox="0 0 1000 660">
<g fill="#ccc" stroke="#333" stroke-width="0.5" stroke-linejoin="round">
<path fill-rule="evenodd" d="M88.14 643.8 L88.11 643.79 L82.17 642.3 L71.2 630.49 L71.87 628.55 L71.07 624.7 L73.24 620.04 L73.24 617.22 L70.14 616.61 L67.73 614.84 L65.87 611.85 L64.56 607.65 L71.22 609.22 L98.37 605.16 L123.07 601.47 L123.07 598.67 L119.71 593.81 L114.96 588.63 L110 583.18 L125.65 581.81 L138.18 588.61 L153.17 587.06 L159.57 579.12 L165.64 571.58 L168.07 565.65 L167.74 564.78 L167.58 564.36 L164.72 564.15 L159.97 561.43 L156.55 557.69 L131.26 514.95 L109.27 504.98 L106.24 502.61 L93.67 492.82 L88.36 491.17 L77.43 489.83 L68.57 484.98 L66.32 480.53 L63.72 475.38 L64.77 459.79 L74.3 437.99 L77.14 431.5 L79.38 422.66 L81.76 413.31 L76.38 404.62 L74.75 405.01 L65.52 407.17 L55.28 412.11 L45.77 412.84 L37.14 402.88 L37.01 402.36 L36.81 401.91 L36.55 401.48 L36.26 401.11 L34.78 399.9 L30.64 395.04 L35.5 390.62 L37.14 389.53 L39.6 386.27 L40.49 383.11 L39.7 380.15 L37.14 377.46 L44.39 367.77 L49.94 363.52 L79.73 340.75 L88.82 323.94 L87.56 319.5 L86.39 315.39 L83.21 314.77 L78.94 313.94 L69.59 314.96 L61.52 313.68 L51.97 304.18 L46 299.98 L37.14 298.18 L32.71 295.64 L23.2 294.98 L18.28 293.27 L22.9 301.38 L14.24 302.73 L11.55 298.75 L10.43 292.39 L6.23 286.61 L6.2 286.56 L6.17 286.51 L4.23 275.01 L2.46 269.55 L0 264.94 L8.27 259.76 L9.64 257.39 L14.14 249.64 L18.41 239.87 L21.85 235.72 L26.05 235.27 L29.99 233.35 L37.6 227.77 L52.3 219.86 L60.04 211.75 L66.8 202.21 L74.58 194.86 L85.34 193.44 L93.18 193.71 L99.12 190.51 L101.77 184.99 L102.6 183.28 L103.06 171.49 L104.83 169.05 L106.01 166.19 L106.6 162.93 L106.57 159.31 L111.37 159.72 L132.34 164.83 L136.67 164.78 L157.27 161.38 L166.86 162.98 L195.89 176.76 L201.11 177.4 L206.24 176.47 L211.81 175.47 L217.38 175.61 L222.57 177.16 L227.23 179.51 L245.07 194.95 L248.46 195.88 L249.08 196.05 L278.43 196.89 L316.47 197.97 L327.17 195.62 L330.54 196.38 L332.05 198.55 L333.07 201.14 L334.84 203.28 L340.28 205.8 L344.65 207.83 L349.97 208.66 L360.93 206.04 L365.26 212.03 L368.83 219.91 L373.03 224.32 L378.55 221.89 L379.95 218.3 L381.5 214.32 L384.16 205.41 L388.85 198.64 L391.93 197.38 L398.82 196.76 L402.04 195.81 L405.32 193.67 L411.68 187 L413.13 186.62 L415.01 186.96 L417.36 187.38 L419.62 181.69 L423.33 177.2 L424.91 174.06 L426.81 171.87 L432.09 169.48 L434.91 171.49 L443.05 170.13 L450.07 166.91 L451.84 165.35 L454.41 159.47 L457.75 151.8 L460.08 144.73 L462.54 137.25 L466.15 129.47 L471.46 121.73 L475.47 120.03 L479.93 120.57 L485.33 119.85 L486.49 119.69 L493.4 115.32 L497.88 112.49 L502.44 113.35 L508.54 122.14 L520.35 105.23 L538.63 99.35 L546.17 100.16 L552.48 100.85 L573.74 103.14 L584 104.25 L624.6 102.11 L642.17 101.19 L651.52 104.71 L657.17 109.69 L658.64 110.99 L665.83 115.49 L675.34 113.8 L681.25 109.15 L682.11 107.22 L683.28 104.58 L684.13 100.2 L684.3 99.33 L687.42 92.74 L692.27 89.02 L699.07 87.23 L705.83 87.14 L710.62 88.5 L714.72 87.33 L716.33 86.11 L718 84.86 L719.9 80.81 L719.87 74.87 L720.85 67.88 L725.97 71 L750.28 74.63 L758.68 74.15 L768.04 70.36 L780.21 65.44 L789.03 64.67 L797.86 66.42 L819.38 77.33 L832.28 79.63 L835.75 82.07 L841.68 89.54 L841.72 89.57 L841.04 78.92 L837.46 71.76 L830.7 67.43 L827.06 56.09 L826.8 47.98 L827.2 41.25 L827.29 39.85 L829.49 25.44 L829.22 22.16 L827.81 21.13 L827.52 20.11 L830.6 16.84 L832.47 15.76 L845.44 12.54 L846.58 12.26 L853.22 8.31 L866.27 0.55 L877.76 3.37 L879.39 3.77 L893.39 2.55 L922.77 0 L926.01 1.87 L930.82 7.86 L932.25 9.63 L935.04 11.12 L939.7 11.38 L941.11 13.72 L940.38 17.87 L938.58 23.53 L936.38 28.75 L935.17 30.83 L932.35 35.7 L931.49 39.18 L931.07 40.9 L931.79 42.62 L936.15 55.95 L939.76 60.61 L942.48 65.94 L945.44 69.45 L949.83 68.68 L949.93 76.47 L952.41 77.53 L952.67 77.65 L954.33 78.36 L960.23 78.72 L964.99 81.91 L966.73 90.65 L964.22 93.08 L962.33 94.92 L956.3 97.82 L953.38 102.39 L954.59 105.46 L955.9 108.81 L961.68 113.47 L973 120.23 L984.71 138.56 L995.41 147.74 L1000 167.63 L992.32 161.43 L989.21 159.64 L985.86 159.07 L978.97 159.95 L976.21 159.64 L973.56 157.71 L968.21 152.01 L965.39 150.2 L961.78 149.92 L957.74 150.25 L953.71 149.7 L950.03 146.74 L948.06 150.2 L947.92 150 L945.67 146.74 L944.44 148.2 L941.17 152.06 L935.04 154.12 L930.18 157.14 L920.21 161.07 L919.25 162.16 L910.99 171.49 L910.76 175.38 L910.59 178.22 L911.81 184.52 L915.58 197.21 L915.81 200.94 L915.22 208.35 L916.07 212.19 L918.01 214.54 L923.42 218.13 L924.9 220.32 L925.28 224.31 L925.39 225.44 L923.91 226.84 L916.66 226.72 L905.34 229.52 L902.65 229.64 L897.3 228.4 L892.78 225.73 L885.16 218.44 L882.08 216.93 L878.18 217.69 L875.52 220.53 L873.09 224.03 L870.07 226.58 L866.36 227.26 L864.56 226.88 L854.82 224.83 L854.65 233.06 L855.37 239.66 L855.34 245.63 L853.04 251.94 L852.26 252.79 L848.78 256.61 L842.51 261.02 L835.92 264.37 L834.4 264.8 L830.7 265.84 L820.14 267.74 L810.67 272.97 L799.5 279.13 L798.6 279.16 L798.1 279.18 L783.78 279.61 L778.73 280.91 L773.91 283.21 L772.77 284.09 L769.48 286.63 L763.05 297.52 L756.98 301.45 L734.19 299.76 L728.89 299.37 L722.07 302.87 L717.87 308.59 L716.69 310.2 L710.81 321.52 L706.25 334.5 L706.22 346.03 L710.65 356.34 L716.93 363.01 L719.44 365.69 L723.31 368 L732.2 371.71 L736.08 374.57 L738.92 378.92 L740.54 381.4 L739.16 386.18 L735.45 391.78 L733.02 401.01 L732.99 401.08 L733.36 410.53 L733.91 424.54 L733.42 432.14 L731.78 437.84 L729.55 443.24 L728.3 448.71 L729.65 454.53 L733.39 463.7 L733.58 470.2 L730.4 474.77 L723.9 478.2 L717.7 479.99 L705.4 480.44 L693.48 478.4 L685.16 476.98 L682.1 478.53 L676.2 483.43 L673.05 484.56 L669.41 483.92 L665.8 482.72 L662.22 482.3 L658.74 483.97 L657.23 488.23 L658.48 492.98 L658.97 497.31 L655.39 500.26 L655.17 500.44 L624.05 510.82 L615.4 513.7 L602.61 520.87 L599.91 524.02 L598.29 528.44 L597.98 529.31 L598.6 531.21 L600.93 532.36 L603.98 535.39 L607.13 541.5 L608.81 543.73 L611.63 545.79 L615.76 547.34 L617.07 546.43 L617.5 544.6 L618.94 543.38 L622.78 542.34 L623.96 541.71 L624.95 542.58 L630.08 548.49 L630.69 549.2 L635.87 557.84 L637.61 561.85 L631.05 561.8 L626.62 563.35 L622.68 565.46 L613.37 568.44 L611.53 571.82 L610.35 575.41 L608.18 577.31 L604.21 579.35 L604.54 583.07 L606.8 587.95 L608.54 593.03 L608.67 593.43 L610.58 605.24 L613.14 615.03 L617.7 622.76 L633.68 633.57 L630.62 636.24 L624.95 644.21 L622.19 646.79 L618.65 647.84 L608.35 647.63 L590.66 654.2 L577.44 659.11 L563.17 657.1 L539.95 637.24 L536.79 634.53 L521.3 634.11 L518.15 631.23 L514.61 629.57 L511.76 629.18 L507.1 628.54 L501.62 623.39 L494.4 618.66 L488.62 618.9 L487.47 628.54 L481.37 639.11 L467.79 644 L454.57 641.2 L449.58 628.54 L449.55 628.52 L449.51 628.45 L449.48 628.45 L420.02 615.45 L413.72 610.04 L413.62 607.7 L414.73 599.69 L414.14 596.18 L412.31 593.69 L412.19 593.62 L410.17 592.45 L407.94 591.51 L397.05 582.79 L392.95 578.48 L390.03 572.76 L389.73 566.63 L390.09 558.3 L389.41 551.33 L385.93 549.32 L382.16 550.93 L380.51 551.64 L378.05 554.36 L374.08 563.56 L370.74 568.44 L362.73 577.45 L359.78 581.83 L357.78 587.62 L357.53 589.55 L356.23 599.78 L354.56 606.2 L350.36 613.84 L337.93 622.99 L332.05 628.52 L319.85 635.46 L305.25 636.8 L290.52 633.99 L277.88 628.45 L270.93 626.71 L262.79 629.1 L247.7 636.19 L239.5 637.71 L238.75 637.67 L238.56 637.66 L231 637.24 L222.67 634.37 L214.69 628.52 L210.49 624.23 L205.93 621.82 L197.53 620.04 L192.58 618.99 L190.38 620.46 L189.26 623.67 L189.26 628.54 L195.99 636.61 L191.92 642.2 L177.06 648.54 L172.43 653.1 L169.64 657.47 L166.26 660 L149.3 657.52 L144.31 655.93 L140.08 651.63 L125.09 642.11 L93.56 643.55 Z "/>
</g>
</svg>
