<svg xmlns="http://www.w3.org/2000/svg" viewBox="0 0 1000 433.36">
<g fill="#ccc" stroke="#333" stroke-width="0.5" stroke-linejoin="round">
<path fill-rule="evenodd" d="M375.11 390.79 L379.68 393.63 L381.01 395.3 L379.25 396.55 L378.36 396.56 L377.7 396.34 L377.06 396.22 L376.17 396.55 L375.77 397.08 L375.18 398.63 L374.63 399.21 L373.57 399.14 L372.66 398.13 L371.84 396.85 L371.05 396.03 L369.91 396.54 L369.47 396.55 L369.03 396.35 L366.22 394.45 L365.83 393.93 L364.99 390.67 L364.33 389.32 L362.8 388.13 L362.02 387.9 L360.43 387.8 L359.68 387.6 L358.75 387.02 L358.57 386.56 L358.7 386.09 L358.7 385.51 L358.61 384.75 L358.68 384.15 L358.47 383.57 L357.62 382.89 L357 382.59 L356.2 382.36 L355.36 382.25 L354.6 382.36 L354.25 382.74 L353.53 384.04 L353.06 384.46 L352.39 384.59 L351.51 384.6 L349.94 384.46 L348.65 383.97 L345.74 382.36 L344.25 381.84 L344.63 381.05 L344.86 380.75 L343.49 379.76 L342.28 379.86 L341.25 380.42 L340.4 380.75 L339.07 380.41 L338.09 379.55 L335.94 376.85 L335.62 375.78 L335.26 375.25 L334.7 374.67 L334.54 374.27 L334.98 372.94 L335.5 372.03 L337 370.63 L337.54 369.71 L337.79 370.02 L338.05 370.13 L338.32 370.18 L338.61 370.28 L339.69 371.44 L340.43 371.97 L341.23 372.33 L342.06 372.39 L343.84 372.3 L344.55 372.63 L346.06 373.97 L347.61 374.98 L351.81 377.01 L354.04 378.7 L356.7 380.01 L358.88 381.69 L360.43 382.4 L363.78 383.41 L366.87 384.79 Z M322.63 356.64 L323.95 356.81 L325.23 357.19 L326.11 357.96 L326.27 359.25 L324.52 358.55 L323.07 358.18 L321.77 357.56 L320.57 356.12 L321.17 356.06 L321.67 356.15 L322.15 356.34 Z M468.02 278.84 L468.38 278.13 L468.09 277.81 L467.57 277.68 L467.24 277.55 L466.24 275.7 L466.22 274.69 L467.24 273.81 L468.88 275.15 L470.11 277.29 L470.24 279.28 L468.53 280.15 L468 280.06 L467.72 279.76 L467.69 279.35 Z M515.61 320.93 L516.41 320.56 L516.94 321.18 L516.87 322.09 L515.87 322.55 L514.87 322.37 L513.99 322.1 L513.08 322.04 L512.03 322.55 L511.47 322.2 L510.69 322.06 L509.42 322.03 L508.39 321.84 L503.01 319.74 L501.28 319.96 L499.63 321.5 L498.78 321.04 L497.83 320.89 L495.79 320.93 L495.06 320.76 L494.52 320.33 L494.05 319.84 L493.48 319.41 L490.16 318.09 L488.96 317.09 L488.31 316.8 L487.36 316.96 L485.17 317.7 L484.47 317.56 L483.76 317.14 L480.62 316.23 L480.73 316.38 L480.31 316.58 L479.34 316.8 L478.85 316.63 L478.08 315.88 L477.81 315.71 L477.07 315.5 L476.57 314.97 L475.97 313.63 L475.55 314.75 L475.49 315.24 L473.85 314.01 L472.97 313.78 L471.86 314.15 L471.67 313.67 L471.12 313.04 L470.83 312.63 L470.14 312.92 L469.52 312.42 L469.17 311.64 L469.3 311.06 L468.6 310.16 L467.71 310.09 L466.7 310.23 L465.71 309.97 L465.16 309.24 L464.96 308.37 L464.55 307.66 L463.4 307.37 L463.01 306.89 L462.02 305.95 L461 305.26 L460.54 305.54 L460.18 306.21 L459.37 305.71 L457.97 304.28 L457.99 303.63 L457.66 303.17 L457.11 302.88 L456.43 302.67 L456.58 302.09 L456.43 301.55 L456.03 301.02 L455.4 300.54 L454.78 301.29 L453.88 301.55 L452.83 301.43 L451.78 301.11 L453.32 296.36 L452.49 295.83 L452.4 295.1 L452.44 294.29 L452.05 293.49 L451.59 293.38 L450.07 293.72 L449.2 293.75 L449.9 292.86 L450.49 291.62 L450.42 290.53 L449.2 290.11 L449.97 288.19 L450.49 287.3 L451.02 286.93 L451.43 286.76 L451.28 286.4 L450.75 285.89 L450.34 285.78 L449.15 285.92 L448.7 285.89 L448.18 285.48 L447.85 284.96 L447.37 284.51 L446.37 284.33 L444.33 284.33 L443.45 284.1 L443.1 283.55 L442.63 283.22 L441.58 283.16 L439.98 283.28 L439.51 283.51 L439.18 283.87 L438.79 284.18 L438.21 284.33 L437.68 284.25 L437.16 283.89 L435.2 283.63 L434.39 283.32 L433.77 282.76 L433.46 281.61 L434.11 279.94 L433.77 279.11 L434.14 278.75 L434.32 278.5 L434.49 278.29 L434.85 278.12 L434.33 276.93 L434.29 275.27 L434.91 273.85 L436.34 273.34 L436.74 273.55 L437.16 273.71 L437.59 273.96 L437.97 274.37 L442.11 273.61 L450.09 277.17 L458.15 282.22 L462.58 285.89 L463.98 285.33 L464.96 285.93 L466.47 288.27 L467.58 288.97 L468.76 289.1 L469.89 289.01 L470.83 289.06 L471.78 289.47 L473.99 290.84 L474.41 291.4 L475.13 292.15 L476.75 292.22 L478.5 291.83 L479.6 291.14 L482.4 292.08 L483.67 292.15 L484.73 291.67 L485.39 292.27 L486.5 293.7 L487.28 294.28 L488.16 294.55 L490.61 294.28 L491.89 294.54 L492.27 294.36 L492.61 292.75 L493.11 292.35 L493.79 292.21 L494.51 292.19 L496 292.88 L498.01 295.72 L498.86 296.36 L499.71 296.87 L500.34 298.03 L501.86 302.15 L502.21 302.67 L502.76 303.11 L503.25 303.26 L503.64 303.59 L504.02 306.1 L504.65 307.25 L505.63 308.13 L508.3 309.92 L509.07 310.87 L509.37 312.07 L509.39 316.43 L509.16 316.8 L508.68 316.96 L508.13 317.36 L507.65 317.85 L507.36 318.32 L507.87 320.22 L510.25 320.61 L513.25 320.5 Z M875.92 249.39 L875.35 248.01 L875.68 247.31 L876.48 247.39 L877.34 248.37 L877.62 249.35 L877.42 249.95 L876.82 250.01 Z M869.8 243.06 L870.75 242.94 L871.03 243.16 L870.71 243.3 Z M485.8 246.69 L484.74 245.8 L483.72 244.09 L482.98 242.05 L482.1 236.72 L482.21 235.72 L482.98 234.59 L483.87 234.45 L484.85 234.56 L485.8 234.17 L485.85 234.79 L485.73 235.18 L485.28 235.72 L485.15 236.29 L485.03 236.53 L484.73 236.76 L485.19 237.85 L486.15 244.14 L486.15 245.41 Z M442.02 213.31 L441.69 213.46 L440.86 213.69 L440.54 213.83 L440.54 212.24 L440.04 210.79 L438.44 208.07 L438.99 207.67 L439.35 207.72 L439.98 208.64 L440.98 209.69 L443.56 211.28 L444.08 212.02 L444.39 213.23 L446.64 216.44 L448.55 220.31 L449.47 221.4 L449.87 222.03 L450.42 223.72 L451.02 224.54 L451.74 225.32 L452.33 226.16 L453.32 227.92 L453.82 229.32 L453.97 230.64 L453.86 233.38 L454.12 234.66 L455.22 237.19 L455.4 238.89 L455.04 240.61 L454.32 241.96 L453.61 242.24 L453.32 240.69 L450.23 237.28 L449.52 235.42 L449.04 234.58 L448.22 234.17 L447.41 234.41 L446.87 236.55 L446.09 237.85 L444.86 236.55 L443.54 234.77 L442.47 232.9 L442.02 231.3 L442.02 226.64 L442.02 222.2 L441.84 220.53 L441.88 219.56 L443.1 217.37 L442.87 216.15 L442.28 214.89 Z M399.34 245.65 L399.22 247.93 L397.25 249.21 L391.6 250.39 L388.67 251.33 L387.07 252.17 L385.71 253.25 L380.28 251.89 L375.48 249.61 L373.85 249.3 L370.77 249.87 L369.8 249.59 L369.14 248.91 L368.59 248.07 L367.93 247.26 L367.6 247.19 L366.72 247.32 L366.39 247.26 L366.2 246.99 L365.71 246.01 L365.36 245.65 L363.14 244.76 L362.52 244.35 L361.34 243.96 L352.93 243.58 L346.59 244.57 L343.23 244.62 L341.16 244.36 L340.32 244.37 L339.64 244.62 L339.14 244.35 L337.54 244.09 L335.88 243.64 L334.21 243.52 L332.58 243.23 L330.02 241.88 L328.82 241.49 L327.37 241.72 L326.17 242.25 L324.95 242.34 L323.4 241.2 L319.93 237.64 L318.58 236.76 L316.52 235.72 L316.44 235.4 L316.57 234.51 L316.52 234.17 L316.22 233.84 L315.6 233.68 L315.21 233.38 L314.93 232.71 L314.85 231.94 L314.7 231.31 L314.17 231.04 L312.91 230.86 L312.67 230.38 L312.88 229.71 L312.89 228.91 L312.19 227.2 L311.31 225.65 L310.24 224.25 L309.01 222.98 L307.89 222.15 L307.39 221.62 L307.19 220.9 L308.17 220.39 L308.89 219.82 L309.3 219.04 L309.15 218.25 L308.09 216.69 L307.76 215.96 L307.73 215.07 L308.27 213.05 L308.19 212.26 L307.84 211.24 L307.76 210.43 L306.96 209.64 L306.67 209.41 L306.99 208.91 L307.76 208.07 L307.97 205.48 L308.46 204.38 L309.56 203.91 L310.72 203.57 L315.44 200.76 L318.04 201.65 L320.7 203.36 L324.73 207.03 L327.78 209.26 L328.26 209.91 L328.59 211 L329.39 212.31 L330.4 213.53 L331.39 214.35 L332.77 214.84 L334.36 214.98 L337.28 214.88 L338.06 214.76 L338.78 214.45 L339.4 214.03 L339.9 213.57 L340.56 213.42 L341.51 213.67 L343.23 214.35 L344.74 214.77 L345.54 214.89 L346.35 214.88 L347.08 214.57 L348.4 213.54 L349.14 213.31 L350.74 213.48 L353.15 214.19 L354.6 214.35 L355.1 214.21 L355.73 213.54 L356.14 213.31 L356.55 213.35 L357.2 213.77 L357.62 213.83 L363.27 213.83 L363.56 213.75 L364.33 213.37 L364.8 213.31 L364.92 213.48 L365.25 213.83 L365.69 214.19 L367.21 214.84 L368.77 216.99 L371.78 218.05 L373 219.44 L375.11 222.72 L377.9 222.35 L381.33 223.86 L384.48 226.22 L386.43 228.39 L386.96 229.67 L387.28 231.23 L387.45 234.43 L387.83 235.03 L388.65 235.06 L389.85 234.69 L390.8 234.83 L391.58 235.22 L393.14 236.25 L395.64 236.92 L396.27 237.28 L396.45 238.05 L396.38 239.11 L396.58 240.05 L397.52 240.45 L397.78 240.82 L397.85 241.65 L397.8 243.29 L397.98 244.02 L398.39 244.48 L398.89 244.93 Z M324.44 195.04 L323.38 194.55 L322.74 193.35 L322.61 191.81 L323.14 190.36 L323.6 190.26 L323.97 190.28 L324.33 190.18 L324.73 189.8 L325.29 191.25 L325.63 192.97 L325.47 194.44 Z M356.37 194 L357.2 193.75 L358.06 193.16 L358.77 192.48 L359.22 191.92 L360.17 188.2 L360.94 186.61 L362.24 186.74 L364.27 190.35 L365.08 190.88 L366.22 190.92 L367.12 191.06 L367.81 191.38 L368.4 191.92 L367.48 192.88 L366.37 194.91 L365.36 195.56 L364.8 196.08 L363.2 195.55 L361.67 194.65 L360.19 194.07 L358.7 194.52 L359.02 195.45 L357.9 196.09 L356.17 196.47 L354.6 196.6 L354.96 196 L354.91 195.51 L354.43 195.18 L353.52 195.04 L353.96 194.29 L354.6 194 Z M276.86 186.22 L277.62 186.11 L279.16 184.3 L279.93 183.67 L279.91 184.01 L279.79 184.21 L279.6 184.4 L279.42 184.66 L279.42 185.42 L279.28 185.61 L279.42 186.22 L278.69 186.95 L278.51 187.63 L278.91 187.97 L279.93 187.72 L279.72 189.6 L278.63 190.84 L275.28 192.44 L275.34 190.39 L275.6 188.96 Z M344.55 186.22 L344 186.12 L343.58 185.87 L343.32 185.46 L343.23 184.92 L343.84 184.73 L345.19 184.58 L346.59 184.15 L347.38 183.1 L347.89 183.67 L348.24 183.06 L348.38 182.58 L348.26 182.11 L347.89 181.49 L348.18 181.16 L348.38 181.13 L348.9 181.49 L350.25 182.08 L351.63 181.95 L352.95 182.12 L354.04 183.67 L354.6 183.67 L355.33 182.39 L356.66 182.6 L358.17 183.67 L359.45 184.92 L359.93 186.6 L359.42 188.75 L358.36 190.73 L357.15 191.92 L356.9 191.34 L356.63 191.1 L356.24 191.13 L355.62 191.36 L355.53 190.46 L355.11 189.78 L354.43 189.39 L353.52 189.34 L353.71 189.74 L354.04 190.88 L353.52 190.88 L352.3 188.89 L351.37 188.14 L350.2 188.53 L349.06 189.06 L347.67 189.13 L346.3 188.8 L345.27 188.28 L345.12 187.84 L345.09 187.15 L344.97 186.5 Z M274.76 183.28 L275.33 183.17 L276.86 183.67 L274.34 188.76 L273.27 189.8 L269.69 190.88 L269.04 190.43 L268.51 189.65 L267.93 189.21 L267.07 189.8 L265.16 187.13 L265.29 186.27 L267.63 186.22 L267.17 185.2 L267.41 184.48 L268.13 184.24 L269.12 184.66 L269.12 183.67 L269.48 183.8 L270.66 184.14 L270.55 183.34 L270.26 182.64 L269.78 182.02 L269.12 181.49 L270.2 181.49 L270.93 181.86 L271.52 181.91 L271.96 181.64 L272.24 181.03 L272.75 182.06 L272.86 182.86 L273.05 183.51 L273.79 184.14 L274.17 184.13 Z M343.23 183.67 L342.3 182.95 L342.4 182.17 L342.92 181.29 L343.23 180.22 L342.88 178.22 L343.12 177.59 L344.25 177.39 L345.43 178.97 L345.84 179.96 L345.79 181.49 L344.74 181.04 L344.11 181.6 Z M158.25 161.74 L159.75 162.47 L160.83 164.07 L160.76 165.67 L158.76 166.4 L158.1 166.19 L155.4 164.79 L151.81 163.81 L147.83 162.12 L146 160.78 L146.22 159.61 L149.03 160.03 L150.24 160.07 L151.35 159.61 L151.81 160.18 L152.45 159.18 L152.86 158.73 L153.3 158.52 L153.99 158.65 L154.43 159.03 L154.74 159.42 L155.12 159.61 L156.38 159.94 L157.15 160.67 L157.7 161.4 Z M204.3 164.79 L206.39 165.62 L206.31 166.32 L206.06 166.92 L205.65 167.33 L203.94 167.76 L202.37 169.07 L201.17 169.52 L199.75 167.26 L199.4 166.87 L198.66 166.45 L198.66 165.51 L199.17 163.55 L199.52 162.86 L201.73 161.17 L202.13 160.49 L202.46 159.62 L202.68 158.62 L202.76 157.53 L203.27 157.53 L203.27 159.14 L203.89 160.25 L204.41 162 L204.59 163.74 Z M191.39 146.07 L192.95 145.72 L194.84 145.72 L196.41 146.24 L197.07 147.38 L197.26 149 L197.14 149.56 L196.56 150.23 L195.86 150.43 L195.01 150.36 L194.29 150.43 L193.99 151.03 L193.64 151.3 L192.19 151.88 L192 152.35 L192.45 152.8 L193.92 153.03 L194.51 153.39 L194.93 153.12 L195.25 153.01 L196.05 152.87 L195.09 154.15 L194.6 154.58 L193.99 154.95 L195.7 156.67 L195.06 158.44 L192 161.17 L191.06 162.6 L190.69 163.02 L190.02 163.43 L188.71 163.74 L188.12 164.07 L187.05 164.23 L185.38 163.88 L183.89 163.37 L183.23 163.02 L183.03 162.52 L182.57 162.17 L181.69 161.74 L181.36 161.35 L180.92 160.56 L180.61 160.18 L178.42 158.23 L178.05 157.79 L178.05 153.91 L178.56 151.27 L178.87 150.81 L179.31 150.36 L179.64 149.73 L179.59 148.67 L181.62 149.92 L182.44 149.96 L182.72 148.67 L183.23 148.74 L183.49 148.97 L183.75 149.76 L184.35 148.77 L184.15 148.04 L183.75 147.25 L183.75 146.07 L184.2 145.57 L186.81 144.53 L187.39 144.42 L187.61 144.31 L187.84 144.01 L188.4 144.53 L188.4 145.05 L187.77 145.52 L187.51 146.09 L187.63 146.73 L188.12 147.38 L189.1 147.8 L189.92 147.38 L190.65 146.65 Z M138.96 149.76 L138.63 149.76 L138.3 149.54 L137.92 149.44 L137.42 149.76 L137.31 150.14 L137.42 151.83 L136.85 154.02 L136.76 155.25 L137.16 156.26 L139.88 159.18 L141.4 160.26 L143.1 160.7 L143.1 161.17 L141.93 161.44 L140.53 161.38 L139.19 161.04 L138.19 160.44 L137.31 159.57 L136.78 159.26 L136.11 159.14 L135.48 158.83 L135.36 158.1 L135.42 157.24 L135.37 156.55 L134.87 155.68 L132.89 152.93 L132.01 152.35 L130.8 151.96 L129.18 151.02 L127.74 149.88 L127.12 148.93 L127.32 147.84 L127.81 146.91 L128.47 146.15 L129.17 145.57 L131.17 144.5 L132.31 143.67 L133.74 140.83 L135.85 138.75 L138.12 137.29 L139.51 137.31 L140.87 138.24 L142.01 139.68 L142.81 141.57 L143.1 143.78 L142.85 144.26 L141.75 145.54 L140.97 148.08 L140.78 148.44 L140.57 148.69 L140.43 149.19 L140.26 149.47 L139.8 149.84 L139.46 149.87 L139.18 149.76 Z M313.91 144.53 L314.79 145.33 L314.73 145.83 L313.91 146.61 L313.23 146.98 L312.53 147.08 L311.76 146.94 L310.84 146.61 L309.98 146.15 L309.36 145.65 L308.27 144.53 L307.36 143.08 L306.73 142.81 L305.71 143.54 L304.65 142.34 L303.49 141.71 L302.66 140.81 L302.59 138.83 L303.14 136.83 L304.12 135.54 L305.63 134.83 L307.76 134.63 L309.95 135.14 L310.57 136.36 L310.33 139.91 L310.79 141.53 L311.65 142.6 Z M542.93 135.46 L542.32 134.68 L542.65 134.35 L543.45 134.39 L544.35 134.71 L544.09 135.01 L543.77 135.21 L543.37 135.35 Z M439.46 228.91 L435.58 226.17 L434.85 226.1 L434.65 224.81 L434.11 223.65 L431.13 219.74 L430.75 219.04 L430.57 218.29 L430.44 216.81 L430.19 215.96 L429.37 214.66 L425.84 210.95 L420.69 208.33 L418.89 206.22 L415.39 205.74 L415.79 204.43 L413.69 202.05 L412.67 201.32 L412.1 201.21 L410.89 201.32 L410.36 201.03 L410.13 200.48 L410.24 199.23 L410.11 198.68 L408.36 197.13 L404.11 195.22 L402.46 193.48 L397.01 183.38 L395.69 179.66 L394.68 177.86 L395.09 177.28 L395.21 176.85 L395.09 176.42 L394.68 175.84 L394.63 174.73 L393.47 170.91 L392.44 169.27 L389.34 163.01 L389.05 161.97 L389.01 157.88 L388.87 157.19 L386.43 151.83 L387.75 150.94 L389.97 149.03 L391.35 148.67 L391.35 147.98 L389.55 144.01 L386.58 140.08 L386.2 139.35 L385.23 138.87 L382.67 136.34 L381.86 135.2 L380.92 131.82 L382.44 130.68 L385.23 131.01 L388.02 132.04 L389.5 133.42 L390.06 133.65 L390.84 133.49 L391.65 133.07 L392.12 132.47 L391.87 131.81 L389.55 130.27 L389.76 129.74 L390.28 129.22 L390.95 128.9 L391.6 128.98 L391.6 129.45 L393.35 129.48 L394.28 130.01 L395.7 132.04 L396.61 132.79 L397.4 133.21 L398.1 133.86 L398.83 135.2 L399.16 136.12 L399.29 136.76 L399.34 137.55 L399.55 137.92 L400.59 138.56 L400.92 138.83 L403.45 142.71 L407.34 146.92 L410.36 149.47 L412.14 151.81 L412.88 153.26 L413.17 154.68 L412.58 156.26 L411.16 157.15 L409.47 157.77 L408.05 158.52 L408.55 159.52 L408.88 160.52 L408.85 161.52 L407.65 163.59 L407.63 164.56 L407.89 165.53 L408.05 166.64 L408.37 167.76 L409.78 169.09 L410.11 169.79 L410.57 170.54 L411.63 170.35 L413.43 169.52 L414.1 169.81 L416.16 171.37 L416.82 172.11 L416.87 172.64 L416.55 173.06 L416.36 173.53 L416.82 174.23 L417.42 174.58 L417.92 174.54 L418.25 174.35 L418.36 174.23 L420.12 175.06 L422 176.4 L423.73 178.09 L425.07 179.98 L424.09 179.6 L423.32 180.19 L423.1 181.06 L423.76 181.49 L424.66 181.87 L425.53 182.8 L425.96 184.01 L425.58 185.18 L426.24 185.55 L426.53 186.03 L426.62 186.65 L426.61 187.46 L426.74 188.26 L427.12 188.46 L427.61 188.47 L428.15 188.76 L428.59 189.08 L429.11 189.35 L429.55 189.8 L429.72 190.62 L429.47 190.97 L427.58 192.44 L428.95 193.07 L429.43 193.46 L429.72 194 L430.7 193.62 L431.58 193.85 L432.03 194.53 L431.78 195.56 L432.34 195.63 L433.77 196.08 L433.77 196.6 L431.74 197.07 L430.99 197.12 L430.72 197.52 L430.79 198.42 L431.1 199.31 L431.5 199.72 L431.98 200.31 L432.42 203.06 L433.32 203.91 L432.3 204.47 L431.83 203.99 L431.46 203.24 L430.75 202.88 L430.05 203.3 L430.22 204.12 L430.84 205.03 L433.8 208.11 L434.65 209.32 L437.02 215.28 L437.7 215.96 L438.48 216.59 L439.55 218.04 L441 220.64 L441.89 226.63 L441.86 228.26 L441.39 229.23 L440.59 229.47 Z M121.43 126.86 L121.84 129.38 L122.4 130.45 L123.48 131.01 L123.48 131.57 L121.31 130.3 L120.22 127.48 L118.83 124.89 L115.79 124.27 L116.05 124.04 L116.54 123.48 L116.82 123.23 L115.59 122.67 L114.28 121.64 L113.73 120.62 L114.76 120.08 L115.78 120.91 L117.73 121.05 L119.6 121.43 L120.45 122.97 L120.56 123.95 Z M127.63 127.9 L127.12 127.9 L126.97 126.82 L126.4 126.62 L125.68 126.67 L125.02 126.38 L124.73 125.82 L124.04 123.7 L123.32 122.37 L122.48 121.23 L121.38 120.3 L119.89 119.56 L120.45 119.09 L119.68 119.01 L119.33 118.82 L119.27 118.51 L119.38 118.05 L121.22 118.69 L122.97 118.56 L124.6 118.69 L126.09 120.08 L126.81 121.67 L127.36 123.65 L127.67 125.82 Z M97.81 110.19 L98.08 111.46 L98.87 111.27 L100.12 114.56 L98.17 114.49 L95.94 112.53 L96.25 110.19 Z M171.9 148.67 L172.93 149.3 L173.64 150.25 L173.87 151.46 L173.44 152.87 L172.93 152.87 L172.77 151.62 L172.22 150.83 L171.62 150.33 L171.34 149.99 L171.08 148.91 L170.44 147.84 L168.77 146.07 L166.79 144.99 L162.7 144.63 L160.81 143.78 L157.51 141.46 L155.73 139.33 L155.4 139.09 L155.28 137.98 L154.67 136.25 L154.43 135.2 L154.43 130.53 L154.98 131.41 L155.28 132.31 L155.4 134.4 L155.81 135.31 L157.57 135.81 L157.97 136.49 L158.21 137.28 L158.74 137.15 L159.27 136.43 L159.51 135.46 L159.11 134.67 L157.34 132.98 L156.61 130.52 L155.78 128.71 L154.61 126.95 L153.3 125.82 L152.38 125.59 L151.69 125.79 L150.93 126.15 L149.77 126.38 L149.28 126.07 L148.74 125.52 L148.21 125.41 L147.76 126.38 L146.94 125.89 L146.31 125.89 L145.15 126.38 L145.08 126.45 L144.48 126.75 L144.13 126.86 L141.57 126.9 L138.8 126.63 L137.93 126.86 L137.27 127.94 L136.78 129.36 L135.97 130.71 L134.34 131.57 L133.02 131.29 L130.46 129.79 L129.68 130.01 L129.17 130.01 L128.7 122.97 L128.92 122.51 L130 120.97 L130.46 120.64 L131.52 120.64 L132.4 120.53 L133.13 120.22 L133.83 119.56 L134.19 120.54 L134.71 120.84 L135.3 120.63 L135.83 120.08 L136.06 119.38 L136.06 117.75 L136.39 116.97 L136.13 116.08 L136.55 115.05 L138.19 113.06 L138.93 111.93 L140.05 109.38 L140.78 108.38 L143.98 105.22 L145.15 104.45 L146.36 103.99 L148.63 103.38 L149.77 102.94 L149.73 103.3 L149.83 103.38 L150.03 103.4 L150.28 103.46 L155.5 106.41 L157.51 106.57 L156.98 107.93 L157.21 108.9 L157.7 109.81 L157.97 111.01 L157.87 113.89 L158.02 115.3 L158.53 116.46 L157.82 117.85 L158.07 118.82 L159.79 120.36 L160.44 121.55 L160.22 122.51 L159.86 123.37 L160.06 124.27 L160.57 123.72 L161.01 123.83 L161.49 124.16 L162.11 124.27 L162.59 124.08 L163.5 123.48 L164.17 123.23 L165.63 122.95 L166.86 122.94 L168.04 123.34 L170.19 124.9 L170.49 125.21 L170.88 125.82 L171.04 126.3 L171.34 127.9 L172.27 129.16 L174.21 130.48 L174.98 131.57 L174.86 133.47 L174.98 134.16 L175.4 134.84 L176.57 135.77 L177.02 136.23 L177.65 137.51 L178.14 140.16 L178.56 141.46 L178.91 141.71 L179.4 141.76 L179.86 141.92 L180.15 142.5 L180.13 143.24 L179.86 143.86 L178.37 146.36 L178.19 146.8 L178.05 147.64 L178.03 148.35 L178.12 149.02 L178.3 149.63 L178.56 150.23 L173.94 148.4 L171.9 148.21 Z M82.84 111.51 L83.2 113.47 L83.23 114.52 L82.84 115.47 L83.42 117.08 L83.2 118.94 L82.35 120.48 L81.05 121.12 L80.37 120.18 L78.48 114.64 L77.37 112.93 L77.19 111.25 L77.71 107.6 L76.9 103.77 L76.92 102.12 L78.23 101.39 L79.35 102.36 L80.28 103.46 L80.61 104.26 L81.07 106.04 L82.08 107.77 L82.48 109.07 L82.75 110.43 Z M119.89 115.47 L116.1 115.78 L112.2 112.58 L109.19 108.07 L108.05 104.45 L108.18 103.5 L108.44 102.58 L109.12 100.88 L110.91 98.12 L111.17 97.51 L112.18 96.53 L114.49 95.61 L117.07 94.93 L118.87 94.66 L122.36 96.5 L124.83 99.16 L126.39 102.42 L127.12 106.05 L127.22 109.65 L127.01 110.94 L125.87 114.09 L124.59 116.27 L123.01 117.26 L121.43 115.47 L120.79 115.71 L120.48 115.75 Z M97.55 84.78 L98.12 85.87 L96.98 88.3 L94.21 92.08 L92.81 93.25 L90.99 95.15 L89.81 97.28 L90.35 99.08 L91.05 100.01 L91.06 100.82 L90.51 101.47 L89.56 101.86 L89.32 101.6 L88.7 101.08 L87.86 100.86 L86.98 101.39 L86.48 101.39 L86.31 99.86 L86.64 98.34 L86.42 97.2 L82.88 96.23 L82.63 94.97 L83.4 91.82 L83.1 91.22 L82.43 90.71 L81.72 90.28 L81.31 89.96 L80.33 87.93 L79.82 87.37 L78.55 86.94 L78.48 86.85 L77.88 86.78 L77.81 86.56 L77.89 86.24 L77.1 84.51 L76.65 84.26 L75.66 84.78 L74.27 81.36 L74.8 77.96 L76.8 75.11 L79.82 73.36 L80.79 73.59 L81.49 73.92 L82.11 73.98 L82.84 73.36 L83.06 74 L83.45 74.55 L84.38 75.43 L84.56 75.82 L84.48 76.15 L84.55 76.38 L85.72 76.53 L85.95 76.75 L85.98 77.15 L85.96 77.75 L86.28 78.06 L87.01 78.36 L87.74 78.88 L88.37 80.66 L89.1 81.16 L90.62 81.64 L90.07 82.2 L91.08 83.28 L92.78 82.64 L94.47 83.25 L96.08 84.25 Z M4.68 54.7 L5.88 55.32 L6.72 56.14 L7.41 57.03 L8.27 57.8 L6.72 59.24 L5.12 59.61 L1.3 59.31 L0 58.69 L0.48 57.31 L2.58 54.7 L3.1 54.87 L3.53 54.86 Z M23.18 31.82 L25.43 32.37 L26 32.64 L27.03 33.93 L27.03 34.94 L26.59 35.99 L26.3 37.29 L25.75 37.77 L24.49 38.14 L23.1 38.27 L22.16 38.07 L20.92 39.17 L19.68 39.16 L18.39 39 L17.04 39.66 L16.34 39.3 L15.48 38.47 L14.93 38.07 L12.81 37.41 L12.38 37.03 L12.5 36 L14.47 31.82 L15.08 32.19 L15.31 31.07 L15.77 29.69 L17.04 29.24 L16.78 28.64 L16.82 28.17 L17.04 27.69 L17.98 28.05 L20.62 30.31 Z M45.84 24.07 L46.43 24.39 L47.85 24.8 L48.4 25.06 L47.66 25.51 L46.86 25.62 L46.06 25.45 L45.32 25.06 L45.14 26.24 L44.78 27.39 L44.18 28.42 L43.23 29.24 L43.14 28.65 L43.01 28.35 L42.85 28.1 L42.71 27.69 L42.21 28.29 L41.62 28.68 L40.92 28.83 L40.15 28.78 L41.34 27.94 L42.46 26.91 L42.7 26.29 L42.35 25.77 L41.88 25.25 L41.73 24.59 L41.99 23.52 L42.31 23.18 L42.97 23.04 L43.49 22.82 L43.09 22.37 L42.44 22 L42.2 22 L41.23 20.58 L40.46 19.04 L40.67 17.53 L42.71 16.28 L44.3 16.28 L44.3 16.8 L43.26 17.06 L42.46 17.64 L41.93 18.53 L41.73 19.64 L42.39 20.27 L43.68 20.6 L44.64 21.04 L44.3 22 L45.41 23.65 Z M857.19 383.5 L857.28 384.57 L857.2 386.05 L861.28 385.76 L861.71 388.78 L856.09 389.17 L854.51 389.36 L853.25 389.32 L851.11 389.05 L849.99 387.51 L849.1 386.67 L848.07 386.27 L847.66 385.71 L846.36 384.08 L845.43 382.93 L845.42 381.67 L846.02 380.88 L846.77 380.46 L848.3 379.71 L849.69 379.71 L851.41 379.8 L853.13 379.51 L854.9 379.88 L858.06 381.03 Z M829.66 356.12 L827.92 357.99 L827.35 358.06 L826.59 358.24 L826.02 358.09 L825.39 357.73 L825.37 357.21 L825.42 356.52 L825.87 355.95 L826.13 355.44 L826.04 354.38 L824.98 355.02 L824.12 355.74 L823.68 355.08 L823.84 353.35 L824.93 351.96 L826.25 350.75 L827.24 350.41 L828.39 350.83 L829.55 351.77 L830.16 352.86 L830.22 354.31 Z M798.92 311.02 L798.1 311.89 L797.8 313.37 L795 314.48 L794.1 315.29 L792.72 315.93 L791.91 316.58 L790.44 316.48 L789.93 316.62 L787.99 315.85 L787.05 316.58 L786.37 317.09 L785.53 316.84 L782.88 317.27 L779.69 320.96 L777.45 324.36 L776.5 323.41 L776.73 321.31 L775.83 320.23 L774.93 320.06 L772.8 321.99 L770.56 321.86 L769.53 320.05 L769.32 317.04 L769.27 315.44 L770.71 314.42 L771.38 313.38 L772.24 312.18 L772.93 312.13 L772.6 314.77 L773.71 316.01 L774.45 316.23 L774.83 315.24 L774.92 314.08 L775.14 312.06 L776.39 310.3 L778.66 308.18 L782.06 307.93 L787.4 308.51 L789.82 307.43 L792.41 307.97 L793.68 308.65 L793.89 309.01 L794.19 309.34 L796.42 309.05 L798.53 309.13 Z M223.62 76.46 L224.71 76.93 L225.91 78.02 L226.65 79.24 L226.43 80.08 L225.25 80.21 L224.13 79.55 L223.27 78.5 L222.79 77.49 L222 78.51 L220.57 78.18 L217.67 76.46 L217.82 77.18 L218.74 79 L218.01 78.99 L216.14 78.53 L214.31 78.53 L214.42 78.05 L214.1 76.98 L213.24 75.91 L211.74 75.43 L211.46 75.18 L211.08 74.66 L210.91 74.11 L211.23 73.88 L211.95 73.96 L213.15 74.3 L213.57 74.35 L213.7 74.5 L214.34 74.63 L214.76 74.44 L214.31 73.62 L214.31 73.18 L214.84 72.86 L215.56 72.85 L216.14 73.36 L217 73.76 L218.85 74.14 L219.73 75.31 L220.98 75.91 L222.44 76.32 Z M326.73 144.79 L328.95 146.5 L329.81 147.78 L328.82 148.67 L328.15 148.54 L325.76 147.13 L325.4 147.05 L324.52 147.17 L324.16 147.13 L323.78 146.72 L323.61 146.2 L323.38 145.75 L322.08 145.24 L321.19 143.85 L319.63 143.34 L319.11 142.83 L318.06 141.46 L315.7 139.61 L314.98 138.83 L314.82 138.09 L314.98 137.42 L314.79 136.94 L313.66 136.75 L312.8 136.24 L309.3 133.12 L303.05 131.79 L300.37 130.16 L298.5 129.38 L296.83 127.97 L295.61 127.32 L294.32 127.03 L293.32 127.38 L290.79 125.84 L289.41 125.43 L288.14 125.82 L287.38 124.07 L286.7 123.12 L285.84 122.72 L284.79 122.63 L283.8 122.3 L283.12 121.67 L283.01 120.64 L281.38 121.19 L279.77 120.88 L278.25 120.05 L271.21 114.9 L270.75 114.82 L269.59 114.99 L269.12 114.9 L268.81 114.41 L268.74 113.74 L268.76 113.12 L268.66 112.78 L268.06 112.68 L267.75 112.96 L267.5 113.3 L267.07 113.34 L265.02 112.31 L264.53 112.23 L263.45 112.38 L262.96 112.31 L262.95 112.1 L262.62 111.06 L262.45 110.75 L261.61 110.36 L260.97 110.17 L260.56 109.75 L260.41 108.64 L259.91 109.02 L258.31 109.72 L258.17 108.21 L257.5 107.05 L256.41 106.31 L255 106.05 L250.62 103.98 L250.22 101.08 L249.59 99.77 L248.31 100.12 L246.02 99.57 L244.93 98.86 L245.49 97.77 L244.66 96.85 L243.91 96.22 L243.4 96.22 L242.61 97.24 L241.82 96.29 L240.79 93.58 L239.95 92.57 L238.81 91.68 L237.51 91.22 L236.22 91.56 L235.5 90.21 L232.23 88.39 L231.04 87.37 L230.68 86.35 L230.71 85.55 L230.91 84.82 L231.04 84.02 L231.04 80.88 L225.18 75.95 L221.31 73.88 L220.65 72.7 L220.54 71.4 L221.06 70.53 L222.33 70.72 L223.87 71.66 L231.25 74.19 L231.87 74.61 L232.6 74.63 L233.27 73.73 L234.07 72.96 L235.15 73.36 L235.42 73.07 L235.64 72.92 L235.87 72.83 L236.22 72.75 L236.77 74.24 L237.86 75.21 L240.79 76.46 L241.09 76.01 L241.6 75.48 L242.16 75.04 L242.63 74.87 L243.56 75.18 L243.96 75.95 L244.2 76.89 L244.68 77.75 L246.15 79.14 L247.05 79.81 L247.8 80.08 L248.27 80.58 L249.46 82.78 L250.82 83.58 L251.98 85.14 L252.62 85.82 L253.55 86.38 L256.25 87.37 L257.6 88.19 L259.86 90.13 L261.44 91 L260.67 92.5 L261.23 93.83 L262.41 94.54 L263.48 94.14 L266.48 95.38 L267.36 95.96 L267.87 96.92 L268.16 98.03 L268.64 98.68 L269.69 98.29 L271.73 99.89 L273.42 99.08 L274.82 98.78 L276.19 98.88 L277.84 99.31 L276.89 99.75 L277.13 100.45 L277.92 101.1 L278.63 101.39 L279.9 101.51 L280.61 101.87 L281.03 102.52 L281.42 103.46 L282.7 102.51 L283.46 103.16 L284.06 104.38 L284.83 105.01 L287.27 105.22 L288.27 104.94 L288.7 103.98 L290.09 104.62 L290.66 104.99 L291.26 105.53 L292.44 104.66 L293.21 105.49 L293.86 107.07 L294.62 108.38 L295.84 109.32 L297.97 110.51 L298.96 111.27 L299.15 111.38 L300.02 111.75 L300.19 111.99 L300.37 112.6 L300.49 112.78 L303.98 115.58 L310.93 119.74 L325.43 130.69 L325.76 131.43 L324.16 133.12 L322.59 135.29 L322.02 135.71 L321.36 135.34 L320.52 135.13 L319.68 135.23 L319.03 135.71 L319.09 136.15 L320.27 136.99 L320.89 138.27 L321.6 138.27 L322.31 137.91 L322.92 137.23 L323.62 137.86 L325.87 141.01 L326.48 142.16 L326.68 143.25 Z M214.54 71.76 L213.93 71.11 L213.3 70.26 L212.47 69.49 L210.23 68.93 L208.64 67.86 L207.63 67.63 L207.08 67.21 L206.97 66.35 L207.28 65.6 L207.89 65.56 L208.62 66.05 L209.39 66.35 L210.07 66.78 L210.49 67.63 L211.48 67.32 L212.36 67.69 L214.08 69.17 L215 68.42 L216.63 68.54 L218.41 69.23 L219.77 70.21 L219.04 70.59 L218.54 71.11 L218.41 71.82 L218.74 72.75 L215.4 72.08 Z M157.95 60.85 L158.51 61.42 L158.04 62 L157.88 62.79 L158.04 63.66 L158.51 64.47 L156.46 62.97 L156.38 64.11 L155.61 64.53 L153.29 64.47 L153.29 64.01 L153.74 63.75 L154.4 63.23 L154.83 62.97 L151.87 62.1 L151.03 61.65 L150.43 61.55 L148.51 61.65 L147.74 61.42 L148.97 60.54 L150.26 59.82 L152.23 60.2 L154.36 59.95 L156.25 60.03 L157.48 61.42 Z M208.38 61.42 L208.09 62.11 L207.89 62.86 L207.82 63.66 L207.86 64.47 L206.75 63.83 L206.37 63.44 L205.82 66.08 L204.78 65.33 L204.13 64.3 L203.29 63.5 L201.71 63.44 L201.71 62.97 L202.74 61.89 L203.25 61.89 L203.96 62.02 L205.91 60.15 L207.34 59.82 L207.34 61.89 L207.63 61.75 L208.13 61.57 Z M170.31 61.13 L170.46 62.27 L171.34 65.05 L171.9 66.08 L169.87 66.19 L168.8 66.13 L167.54 65.6 L167.05 65.71 L166.53 65.94 L165.96 66.08 L165.4 65.9 L164.92 65.2 L164.42 65.04 L162.98 64.18 L163.76 62.27 L166.22 59.31 L169.8 60.59 Z M151.81 55.47 L151.81 57.32 L151.56 58.33 L150.58 58.76 L148.49 58.84 L147.58 59.37 L145.66 62.97 L145.52 62.08 L145.2 61.61 L144.74 61.55 L144.13 61.89 L143.15 61.1 L141.33 60.69 L137.93 60.38 L136.47 59.91 L135.46 58.93 L135.15 57.52 L135.83 55.73 L135.19 55.96 L134.74 56.32 L133.83 57.28 L133.25 57.01 L132.91 57.24 L132.8 58.32 L131.37 57.49 L128.7 56.58 L127.12 55.73 L123.14 55.4 L122.46 55.47 L121.98 56.21 L120.92 56.17 L119.86 55.4 L119.05 53.11 L118.24 52.02 L117.22 51.02 L116.3 50.56 L115.64 50.93 L114.17 51.52 L113.13 51.65 L113.74 50.56 L113.05 49.32 L111.92 48.32 L110.47 47.66 L108.84 47.41 L107.82 47.03 L106.61 46.05 L99.59 37.81 L99.27 37.11 L99.09 36.16 L98.76 35.33 L98.06 34.97 L97.06 34.7 L96.5 34.06 L95.74 32.38 L92.8 28.28 L91.89 27.69 L91.16 26.97 L88.53 22.48 L87.3 21.61 L83.73 19.74 L82.61 19.38 L81.71 18.97 L73.33 11.64 L73.15 11.38 L71.57 10.09 L71.07 9.04 L70.48 4.92 L70.5 3.4 L71.07 2.34 L73.57 0.23 L74.85 0 L76.59 0.25 L78.09 0.81 L78.98 1.78 L79.5 2.03 L80.04 2.42 L80.28 3.09 L80.61 3.76 L81.33 3.78 L82.06 3.51 L82.38 3.33 L85.23 4.17 L87.22 5.68 L91.08 10.09 L92.14 11.01 L95.53 13.3 L98.75 14.17 L103.43 17.36 L106.57 18.86 L109.28 19.37 L110.57 20.02 L111.49 20.34 L112.31 20.82 L112.67 21.73 L112.96 22.29 L113.64 22.37 L114.49 22.33 L115.23 22.48 L115.97 23.11 L117.59 25.34 L120.45 27.69 L121.08 28.8 L121.29 30.12 L121.43 33.37 L122.26 36.77 L123.48 39.66 L124.22 40.62 L125 41.43 L125.69 42.4 L126.09 43.79 L127.25 43.1 L127.63 42.72 L128.22 44.05 L129.21 45.03 L130.51 45.66 L132.01 45.86 L133.03 46.34 L133.75 47.42 L134.19 48.71 L134.34 49.76 L134.76 50.41 L135.75 50.89 L137.93 51.6 L138.78 52.09 L139.7 52.83 L140.52 53.74 L141.05 54.7 L141.52 54.7 L141.7 53.44 L142.26 53.4 L143.05 53.86 L143.87 54.18 L145.49 54.18 L146.24 54.04 L148.96 53.03 L150.43 52.98 L151.45 53.72 Z M998.98 431.49 L999.78 431.57 L1000 432.66 L999.46 432.93 L998.24 433.36 L997.9 432.69 L998.48 432.09 Z M768.69 290.22 L767.96 290.44 L767.38 290.28 L767.01 289.55 L767.08 288.68 L767.26 288.15 L767.71 287.79 L768.77 288.07 L769.42 289.09 L769.26 289.84 Z M385.03 97.73 L385.95 100.45 L385.41 100.57 L384.75 100.46 L383.32 98.5 L382.91 97.57 L383.25 96.65 L384.09 96.47 L384.59 96.92 Z M861.77 381.46 L861.81 382.14 L861.37 383.32 L860.14 384.22 L858.82 384.44 L858.32 383.58 L858.72 382.31 L859.73 381.32 L861.09 381.2 Z M806.77 278.25 L807.87 278.2 L808.84 278.88 L808.09 280.32 L806.7 281.63 L805.63 281.78 L805.54 280.67 L805.69 279.67 L805.19 279.63 L804.99 279.1 L805.52 277.52 L805.78 275.92 L805.73 274.45 L806.03 274.89 L806.02 278.56 L806.51 278.39 Z M77.9 90.2 L78.17 90.45 L78.95 91.02 L78.65 92.14 L77.1 92.91 L75.75 92.21 L75.83 91.53 L76.43 90.79 L77.22 90.16 Z "/>
</g>
</svg>
