<svg xmlns="http://www.w3.org/2000/svg" viewBox="0 0 1000 1317.89">
<g fill="#ccc" stroke="#333" stroke-width="0.5" stroke-linejoin="round">
<path fill-rule="evenodd" d="M526.38 528.63 L528.4 526.67 L530.35 524.78 L534.64 520.62 L538.93 516.46 L540.88 514.57 L545.52 510.06 L550.17 505.54 L554.81 501.02 L559.47 496.51 L564.12 491.99 L568.77 487.47 L573.42 482.96 L578.06 478.44 L582.7 473.92 L587.36 469.39 L592.01 464.88 L596.66 460.36 L601.31 455.84 L605.97 451.32 L610.62 446.79 L615.27 442.27 L619.92 437.75 L624.56 433.22 L628.32 429.56 L629.21 428.7 L633.86 424.18 L638.52 419.65 L643.16 415.13 L647.81 410.61 L652.46 406.07 L657.1 401.55 L661.75 397.03 L666.42 392.5 L671.07 387.97 L657.44 387.97 L639.95 387.97 L627.48 387.97 L612.41 387.97 L597.53 387.97 L583.9 387.97 L575.4 387.97 L569.78 385.16 L563.74 383.12 L555.72 380.4 L547.68 377.69 L539.66 374.97 L531.62 372.25 L523.58 369.53 L515.56 366.81 L507.52 364.1 L499.49 361.38 L491.46 358.67 L483.43 355.94 L475.4 353.23 L467.37 350.51 L459.35 347.79 L451.31 345.07 L443.28 342.35 L435.24 339.63 L426.8 336.83 L418.37 334.03 L409.93 331.24 L401.5 328.45 L393.06 325.64 L384.64 322.84 L376.2 320.05 L367.77 317.25 L359.34 314.45 L350.91 311.65 L342.47 308.85 L334.04 306.05 L325.61 303.25 L317.17 300.45 L308.74 297.65 L300.3 294.85 L292.63 292.3 L288.89 290.09 L282.21 283.97 L270.02 272.8 L261.5 265.01 L254.13 258.24 L252.77 257.5 L251.24 257.6 L248.9 258.49 L247.12 258.32 L239.76 253.87 L234.76 250.86 L233.55 249.35 L233.13 247.53 L232.89 244.27 L232.3 242.53 L230.13 238.14 L229.26 237.27 L227.33 235.98 L226.41 235.14 L225.77 234.09 L224.86 231.98 L223.94 231.02 L223.15 230.63 L220.57 229.97 L218.48 227.64 L217.18 223.82 L214.41 208.34 L212.58 205.22 L209.01 203.6 L204.65 202.83 L201.15 201.41 L198.49 198.74 L196.66 194.23 L195.87 191.04 L194.66 187.86 L192.94 184.98 L190.67 182.66 L181.5 176.67 L179 173.66 L176.31 167.73 L174.53 161.48 L173.3 152.6 L172.26 149.95 L170.79 148.03 L165.51 142.87 L162.96 138.82 L161.05 134.46 L160.92 132.4 L162.16 131.49 L164.07 130.9 L165.93 129.84 L167.08 128.22 L167.78 126.3 L168.7 122.35 L169.61 119.98 L170.74 118.42 L174.16 115.63 L175.65 114.04 L176.27 112.55 L176.64 110.94 L177.39 108.99 L178.87 107.45 L182.88 105.76 L184.48 104.4 L185.21 102.76 L186.18 98.78 L187.37 96.69 L212.73 56.8 L217.7 48.98 L218.85 50.43 L220.21 51.48 L222.26 51.67 L221.72 47.9 L223.1 49.53 L225.29 53.06 L227.16 55.01 L228.39 55.63 L230.64 58.38 L232.39 59.01 L234.26 59.42 L237.09 61.51 L238.66 62.34 L239.29 60.69 L240.42 59.52 L241.5 59.42 L241.97 61 L240.5 70.07 L241.37 73.28 L243.12 76.2 L245.31 78.38 L245.92 78.66 L247.48 79.04 L248.16 79.41 L248.54 79.97 L249.03 81.42 L250.47 83.4 L251.28 86.1 L253.75 89.68 L257.72 97.75 L266.97 106.88 L274.04 115.77 L282.9 123.45 L293.04 130.46 L299.68 136.58 L304.66 139.51 L316.59 149.48 L319.41 151.12 L323.6 153.59 L327.59 155.27 L334.86 154.86 L342.15 155.7 L346.43 156.6 L350.37 155.91 L353.67 154.76 L359.34 153.11 L362.17 152.29 L365.96 152.71 L372.13 153.59 L376.4 153.85 L382.39 153.46 L385.47 150.85 L384.88 149.12 L386.17 149.12 L396.68 142.78 L398.15 142.16 L401.07 141.27 L410.17 135.49 L416.7 129.49 L418.29 128.64 L419.97 128.83 L421.74 129.46 L423.57 129.85 L425.18 129.75 L428.63 128.94 L432.63 127.29 L435.46 125.61 L437.98 123.69 L440.85 120.14 L442.1 119.39 L449.39 116.98 L450.43 116.43 L451.56 115.2 L452.48 113.9 L453.61 112.87 L455.36 112.44 L456.63 111.82 L458.13 109.08 L459.63 108.45 L461.36 108.49 L462.83 108.73 L464.19 109.32 L465.57 110.45 L466.41 111.71 L467.04 112.92 L467.89 113.73 L469.49 113.78 L469.09 112.03 L470.65 112.05 L479.56 116.15 L482.91 116.57 L486.26 117.49 L487.8 118.13 L491.49 118.92 L494.83 118.37 L501.55 116.43 L504.43 116.8 L506.89 118.32 L511.09 122.78 L513.77 124.86 L517.12 126.11 L520.81 126.62 L524.55 126.47 L527.86 125.67 L529.53 124.98 L532.19 123.25 L535.35 122.72 L538.03 121.58 L541.9 121.41 L543.54 121.15 L544.82 120.51 L548.12 117.82 L556.55 113.95 L560.35 110.94 L564.56 109.06 L565.12 108.46 L566.03 106.99 L566.52 106.46 L567.2 106.17 L568.52 106.01 L569.14 105.79 L578.16 102.53 L585.3 97.04 L590.05 93.09 L593.42 89.55 L594.67 88.73 L599.08 87.43 L600.23 86.7 L602.58 84.8 L612.49 79.73 L614.34 79.01 L616.22 78.57 L619.2 79.04 L624.22 77.78 L627.4 78.35 L642.23 86.05 L645.36 86.7 L650.8 83.88 L662.81 83.65 L668.11 84.37 L685.54 83.25 L688.45 82.38 L689.66 81.26 L691.8 78.36 L693.69 77.44 L693.85 76.72 L694.1 75.99 L695.01 75.66 L696.66 75.68 L697.47 75.6 L699.24 75.08 L701.21 74.87 L702.17 74.39 L702.78 73.68 L703.04 72.98 L703.2 72.29 L703.52 71.66 L704.76 70.37 L705.86 69.71 L708.76 69.06 L715.58 68.37 L718.85 67.68 L721.56 66 L723.01 65.44 L729.13 65.66 L734 64.45 L735.71 64.33 L742.32 65.83 L746.01 67.22 L749.67 69.37 L758.11 72.14 L759.56 72.42 L761.2 72.39 L762.92 72.28 L766.52 72.06 L779.11 69.6 L791.67 67.29 L795.35 65.66 L796.8 63.62 L797.78 62.89 L798.97 63.37 L799.88 63.89 L800.86 63.94 L807.02 63.37 L808.85 62.95 L810.37 62.34 L815.49 59.34 L817.28 59.01 L818.66 58.17 L820.83 53.98 L822.19 52.34 L823.93 51.7 L826.11 51.53 L830.41 51.67 L830.94 51.49 L832.47 50.62 L833.35 50.34 L834.45 50.3 L837.28 50.95 L845.75 51.86 L850.19 51.22 L853.01 48.95 L853.75 49.04 L855.47 47.92 L856.57 47.61 L856.95 47.42 L858.14 46.54 L858.88 46.28 L859.59 46.34 L860.24 46.58 L860.7 46.83 L860.85 46.95 L869.58 46.69 L871.36 46.95 L877 43.9 L878.88 42.14 L879.91 41.61 L883.33 41.68 L884.18 41.28 L884.93 40.7 L885.99 40.17 L890.09 39.08 L892.06 37.79 L900.04 31.3 L904.43 30.41 L906.23 29.18 L909.43 25.54 L912.34 22.91 L913.47 21.3 L913.94 19.21 L914.07 17 L914.46 14.78 L915.08 12.67 L915.95 10.8 L918.12 7.94 L919.52 6.67 L920.86 6.13 L922.02 5.98 L924.45 4.79 L924.9 4.14 L925.32 3.67 L925.76 3.39 L926.34 3.43 L927.18 3.98 L927.71 4.06 L929.76 3.5 L933.77 1.76 L937.29 1.01 L938.28 0.33 L940.76 0 L947.38 4.52 L957.24 5.55 L962.9 10.17 L964.77 10.8 L972.32 10.8 L974.18 11.3 L977.43 13.08 L979.21 13.48 L981.43 13.53 L983.74 13.84 L985.68 14.64 L988.1 15.26 L986.64 18.43 L985.59 22.47 L983.96 25.45 L984.56 30.06 L983.81 32.92 L982.06 34.53 L980.43 37.26 L977.44 40.1 L974.27 44.28 L972.04 46.65 L971.66 47.28 L971.76 48.37 L972.21 49.87 L972.32 50.64 L972.06 52.88 L971.43 55 L968.35 61.74 L967.88 63.27 L967.69 69.67 L967.04 73.78 L968.32 78.25 L972.63 80.9 L976.79 81.1 L978.23 83.09 L975.83 85.19 L973.71 89.91 L972.67 91.42 L971.94 92.8 L971.42 94.93 L971.11 97.22 L972.01 110.75 L973.32 128.07 L975.47 135.69 L974.86 136.73 L972.67 137.1 L970.38 137.82 L969.85 139.57 L970.35 143.81 L969.88 145.79 L968.93 147.01 L967.46 147.62 L965.43 147.79 L963.53 148.43 L961.85 149.93 L961.06 151.69 L961.86 153.11 L963.74 153.43 L978.32 150.51 L979.32 150.64 L980.38 150.93 L981.18 150.91 L981.52 150.15 L981.11 149.06 L980.21 148.47 L979.32 148.04 L978.9 147.46 L978.83 145.24 L978.57 143.21 L977.97 141.22 L976.95 139.16 L978.44 140.5 L979.94 141.56 L981.21 142.84 L982.87 143.81 L983.69 144.39 L984.78 144.9 L986.94 146.5 L988.09 147.21 L989.87 147.6 L991.28 147.93 L992.23 147.74 L993.19 147.17 L994.28 146.85 L996.25 147.05 L997.91 147.31 L998.66 149.48 L1000 150.38 L999.42 152.1 L998.13 155.41 L996.94 155.83 L996.47 156.23 L995.75 156.81 L996.08 158.14 L995.25 158.14 L993.53 157.43 L992.26 157.49 L990.72 157.09 L988.88 157.67 L986.21 157.15 L985.49 155.3 L985.26 154.16 L984.65 153.02 L983.15 152.51 L968.72 154.29 L961.74 156.76 L953.15 162.02 L951.48 165.15 L950.69 171.1 L951.76 176.7 L948.98 184.05 L949.45 188.48 L950.57 191.55 L950.69 192.75 L950.51 193.82 L949.65 195.24 L948.4 201.98 L948.73 203.07 L947.63 205.11 L947 206.9 L946.13 211.75 L944.85 215.27 L944.15 216.34 L944.66 219.05 L944.5 220.03 L944 221.85 L943.3 227.77 L941.55 230.35 L941.49 233.31 L942.21 238.43 L944.48 244.65 L944.82 246.68 L944.54 248.52 L943.86 250.22 L937.93 259.95 L936.02 261.48 L932 263.21 L930.39 264.26 L929.17 265.78 L926.32 270.41 L925.76 271.87 L926.53 278.06 L926.46 280.2 L925.05 283.81 L922.26 287.22 L911.77 295.55 L908.83 298.59 L906.49 301.73 L904.8 304.73 L903.45 308.68 L901.72 316.7 L900.23 320.05 L895.66 325.65 L895 327.65 L895.29 333.52 L895 335.25 L893.46 338.85 L892.19 340.58 L890.72 341.32 L888.93 341.95 L887.97 343.51 L887.3 345.46 L886.44 347.26 L880.3 355.42 L879.39 356.65 L877.95 359.8 L875.24 368.35 L873.13 372.08 L870 375.05 L857.66 382.64 L849.31 391.24 L847.6 394.02 L846.48 397.54 L845.59 404.36 L846.11 405.51 L847.52 406.44 L847.93 408.61 L847.68 411.04 L847.14 412.76 L844.4 416.66 L841.54 419.77 L840.71 421.41 L840.34 425.63 L839.94 427.32 L830.05 444.69 L824.87 453.79 L818.54 461.04 L803.86 481.67 L796.8 495.62 L792.4 502.4 L787.68 515.6 L775.89 540.48 L775.63 542.59 L775.83 544.76 L776.73 548.78 L776.93 550.86 L775.56 559.28 L772.2 566.56 L764.1 580.57 L754.4 597.33 L739.64 620.13 L734.94 630.44 L732.4 633.91 L725.5 640.53 L715.93 656.51 L704.53 668.91 L692.43 685.31 L678.39 713.73 L668.13 728.69 L657.81 739.79 L632.68 766.8 L624.2 778.65 L609.5 793.76 L597.16 806.62 L581.19 823.43 L578.62 826.13 L561.52 846.12 L548.68 857.55 L541.58 866.11 L528.38 877.13 L521.35 884.36 L515.34 888.65 L515.16 889.46 L514.7 890.43 L514.16 891.23 L513.71 891.56 L512.1 892.17 L511.14 893.69 L510.39 895.63 L509.39 897.5 L508.06 898.49 L504.33 900.24 L495.32 909.69 L494.23 911.12 L492.66 914.07 L491.75 915.28 L487.73 917.82 L486.26 920.6 L484.29 922.22 L465.09 934.6 L454.14 940.78 L443.97 946.64 L411.5 965.39 L408.24 967.26 L406.19 967.7 L405.14 968.04 L386.17 976.96 L369.91 988.13 L369.19 989.03 L368.06 989.48 L355.05 998.86 L342.98 1006.38 L322.19 1022.56 L311.53 1033.51 L309.33 1034.46 L305.45 1036.84 L304.27 1037.91 L303.94 1038.7 L303.71 1039.68 L303.55 1041.55 L303.17 1041.93 L301.35 1042.46 L300.95 1042.82 L300.28 1043.77 L293.49 1050.55 L291.55 1051.82 L289.48 1052.36 L288.32 1053.31 L283.9 1058.94 L273.11 1064.72 L269.48 1067.38 L264.92 1073.76 L263.3 1074.69 L261.98 1075.14 L257.72 1078.55 L239.41 1096.19 L221.98 1115.86 L212.36 1125.31 L203.3 1134.19 L184.25 1155.27 L172.69 1167.94 L167.12 1172.47 L160.97 1177.47 L154.52 1184.03 L152.18 1187.34 L151.95 1188.33 L151.99 1189.17 L151.69 1189.78 L149.38 1190.27 L148.68 1190.9 L144.89 1195.95 L144.39 1197.54 L145.54 1198.56 L144.57 1200.15 L144.23 1200.53 L144.24 1199.94 L144.19 1199.45 L144 1199.01 L143.58 1198.56 L138.47 1202.54 L137.7 1203.49 L137.07 1205.07 L135.6 1206.78 L132.47 1209.68 L122.93 1221.17 L122.6 1221.99 L122.6 1222.73 L122.46 1223.26 L121.6 1223.46 L121.24 1223.79 L117.38 1229.83 L114.92 1232.37 L113.5 1233.44 L111.96 1234.19 L110.13 1234.63 L107.28 1234.56 L105.84 1234.86 L104.97 1235.87 L106.81 1236.27 L106.73 1238.13 L105.87 1240.19 L105.28 1241.15 L103.91 1241.88 L102.53 1243.6 L101.44 1245.66 L100.98 1247.43 L100.56 1248.19 L97.38 1250.68 L96.31 1251.23 L95.92 1250.57 L95.51 1246.55 L95.61 1242.79 L95.05 1241.15 L94.48 1241.15 L94.72 1242.6 L94.44 1243.67 L93.97 1244.63 L93.74 1245.79 L93.87 1246.92 L94.34 1248.32 L94.48 1249.37 L94.74 1250.57 L95.38 1251.15 L96.05 1251.56 L96.42 1252.32 L96.28 1253.51 L95.3 1255.47 L95.05 1256.59 L94.54 1257.82 L92.3 1259.86 L91.78 1260.54 L91.63 1261.79 L91.17 1262.83 L90.54 1263.78 L86.92 1268.1 L86.5 1269.07 L86.83 1269.96 L87.58 1269.9 L88.48 1269.37 L89.18 1268.78 L88.03 1271.31 L85.86 1271.57 L83.87 1270.1 L83.23 1267.41 L82.64 1267.41 L82.75 1269.36 L83.87 1272.77 L83.95 1274.59 L83.36 1276.35 L73.37 1292.51 L71.12 1295.28 L69.3 1298.1 L65.7 1305.33 L63.91 1306.79 L61.73 1308.02 L58.33 1313.71 L56.4 1315.34 L56.99 1315.34 L54.51 1317.89 L54.59 1315.98 L54.84 1309.98 L54.5 1308.17 L53.34 1306.07 L49.67 1301.32 L44.85 1295.09 L40.03 1288.86 L35.09 1282.48 L30.39 1276.4 L26.02 1270.76 L20.75 1263.95 L15.85 1257.61 L11.11 1251.5 L8.68 1248.34 L6.24 1245.2 L3.82 1242.04 L1.37 1238.89 L1.29 1231.62 L1.2 1224.87 L1.11 1218.13 L0.97 1207.73 L0.83 1197.35 L0.69 1186.98 L0.55 1176.58 L0.48 1170.13 L0.41 1163.67 L0.3 1155.83 L0.3 1143.86 L0.3 1131.91 L0.3 1119.94 L0.3 1107.99 L0.3 1096.02 L0.3 1084.07 L0.3 1072.11 L0.3 1060.15 L0.3 1048.19 L0.3 1037.84 L0.3 1036.23 L0.3 1024.26 L0.3 1012.31 L0.3 1000.34 L0.3 988.37 L0.3 976.41 L0.3 964.44 L0.3 954.25 L0.3 944.06 L0.3 933.87 L0.3 923.67 L0.3 916.57 L0.17 903.68 L0.05 891.33 L0 886.2 L1.37 883.55 L4.65 880.3 L12.51 872.51 L20.38 864.72 L28.25 856.92 L36.1 849.13 L41.06 842.03 L46 834.95 L50.96 827.86 L55.9 820.77 L63.93 809.26 L71.95 797.75 L79.98 786.24 L87.99 774.72 L89.27 772.84 L90.59 771.78 L91.09 770.58 L91.02 767.64 L91.67 765.77 L93.37 764.27 L100.12 760.12 L105.53 755.8 L108.83 754.13 L111.94 753.35 L120.22 753.26 L127.44 753.19 L138.7 751.27 L153.36 748.76 L167.75 746.31 L174.55 745.14 L178.56 743.54 L182.13 741.19 L182.25 741.06 L185.07 737.9 L186.51 734.81 L188.21 728.1 L189.5 724.87 L190.13 723.84 L190.88 722.9 L198.06 717 L206.08 710.39 L216.94 705.23 L227.87 700.03 L238.62 694.92 L245.23 691.78 L255.95 689.3 L263.22 687.63 L272.67 685.45 L275.53 684.79 L283.87 681.83 L287.38 680.99 L293.13 681.32 L298.1 681.61 L303.05 681.9 L308.02 682.19 L312.97 682.47 L317.94 682.76 L322.89 683.05 L327.85 683.34 L332.8 683.63 L337.76 683.91 L342.73 684.2 L347.45 684.47 L347.68 684.49 L352.64 684.78 L357.6 685.06 L362.56 685.35 L367.52 685.64 L372.48 685.92 L377.66 686.23 L380.43 685.07 L388 676.86 L388.03 676.86 L393.46 670.89 L403.73 659.64 L414 648.37 L424.26 637.11 L434.52 625.84 L435.63 624.62 L444.79 614.58 L455.05 603.3 L465.32 592.03 L475.58 580.76 L481.4 574.75 L487.24 568.73 L493.07 562.72 L498.92 556.7 L504.76 550.68 L510.61 544.67 L516.43 538.65 L522.26 532.63 Z "/>
</g>
</svg>
