<svg xmlns="http://www.w3.org/2000/svg" viewBox="0 0 1000 747.28">
<g fill="#ccc" stroke="#333" stroke-width="0.5" stroke-linejoin="round">
<path fill-rule="evenodd" d="M1000 651.35 L994.55 651.32 L988.17 651.3 L987.93 646.33 L984.62 646.09 L982.26 647.75 L981.79 651.29 L981.78 651.34 L981.78 651.35 L981.31 653.92 L973.84 651.33 L973.71 651.29 L973.67 651.22 L969.64 643.88 L966.21 637.65 L970.34 627.11 L963.96 625.23 L955.53 625.23 L958.72 618.65 L956.84 616.39 L950.23 620.05 L944.28 623.35 L942.78 620.53 L936.89 622.75 L929.95 625.37 L922.19 628.3 L915.25 630.92 L908.8 633.36 L901.92 635.95 L893.68 638.96 L887.9 641.86 L882.05 644.79 L876.17 647.84 L869.51 651.28 L860.95 659.79 L852.39 668.3 L843.83 676.81 L835.26 685.32 L828.4 692.23 L821.42 699.23 L811.94 708.74 L803.83 716.89 L797.6 723.16 L797.18 723.4 L794.04 725.24 L790.37 725.7 L776.74 725.01 L769.02 724.62 L766.4 724.11 L764.62 723.18 L753.92 714.42 L752.22 713.71 L750.72 714.25 L745.58 718.07 L738.93 721.46 L731.81 723.61 L718.5 724.69 L702.93 725.96 L699.22 726.83 L683.62 736.33 L682.62 737.49 L682.53 738.58 L682.89 741.62 L682.88 742.94 L682.62 744.14 L682.5 744.68 L681.94 745.41 L680.91 745.45 L675.59 744.38 L674.16 743.64 L672.86 742.3 L672.3 741.39 L671.23 739.67 L670.26 739.16 L669.59 739.11 L662.93 738.7 L661.77 738.1 L661.19 736.66 L660.93 732.75 L660.61 731.14 L659.39 729.1 L653.36 722.34 L651.35 720.66 L650.85 720.43 L649.14 719.63 L648.88 719.58 L648.7 720.07 L641.95 727.66 L641.16 728.38 L639.61 729.04 L630.82 730.33 L629.33 731.08 L628.34 732.32 L628.26 732.39 L627.34 733.2 L625.79 732.88 L614.97 726.98 L607.96 723.17 L604.63 722.11 L601.16 721.62 L597.16 721.62 L594.95 722.24 L591.8 724.7 L589.54 726.47 L588.78 726.77 L587.16 727.09 L586.37 727.41 L583.76 729.49 L582.61 730.02 L581.75 730.14 L580.07 730.1 L579.18 730.4 L578.25 731.23 L577.82 732.15 L577.55 733.13 L577.17 734.13 L571.57 742.3 L569.71 745.95 L569.36 747.28 L568.35 745.51 L569.2 741.13 L567.97 739.62 L565.34 738.58 L564.23 737.74 L563.65 736.47 L563.39 733.56 L563.05 732.72 L561.51 731.6 L560.18 732.57 L558.77 734.24 L556.97 735.25 L554.6 735.24 L553.61 735.36 L552.14 735.91 L549.47 737.39 L548.41 737.66 L546.73 737.87 L545.85 737.85 L545.11 737.58 L544.23 736.86 L544.26 736.44 L544.76 735.91 L545.23 734.87 L545.85 731.56 L545.91 729.9 L543.88 717.45 L542.72 715.24 L541.9 714.96 L541.05 715.05 L540.2 715.28 L539.38 715.4 L537.67 715.36 L536.92 715.23 L533.71 714.2 L526.84 710.11 L521.17 708.28 L515.65 708.2 L514.25 707.72 L513.64 706.91 L513.5 706.05 L513.49 705.16 L513.3 704.23 L512.74 703.29 L510.7 700.87 L509.94 698.91 L509.48 696.95 L508.6 695.28 L506.66 694.21 L503.1 693.48 L501.84 692.68 L500.57 690.86 L498.61 687.05 L497.3 685.48 L495.32 684.29 L494.32 684.12 L493.34 684.12 L492.45 683.92 L491.78 683.12 L491.7 682.08 L492.21 681.18 L492.85 680.34 L493.13 679.48 L492.3 677.76 L490.45 676.01 L488.26 674.75 L486.4 674.47 L482.51 674.52 L480.22 672.65 L479.24 669.52 L479.28 665.8 L480.04 663.25 L480.15 662.37 L480.02 661.62 L479.43 660.21 L479.36 659.46 L479.87 658.62 L480.26 658.15 L480.69 657.63 L480.97 656.73 L479.95 656.11 L479.09 655.75 L477.16 654.58 L476.6 654.36 L474.72 654.85 L474.08 654.72 L472.85 653.99 L470.39 651.8 L469.41 651.11 L465.87 649.46 L464.88 649.26 L462.33 649.21 L459.76 648.11 L458.8 647.83 L458.27 647.9 L456.95 648.56 L456.55 648.29 L455.67 647.41 L455.33 647.18 L453.51 646.85 L452.24 647.08 L451.53 648.14 L451.32 651.11 L451.05 652.59 L451.13 653.46 L450.97 654.4 L449.38 655.88 L448.82 656.78 L448.28 658.75 L447.58 660.47 L446.52 662.02 L442.17 665.78 L441.33 667.03 L440.46 669.05 L439.21 671.09 L437.81 671.39 L436.12 671.02 L434.03 671.07 L433.08 672.07 L432.83 673.67 L432.21 675.03 L430.07 675.34 L428.16 674.41 L422.76 668.94 L421.81 668.25 L418.44 666.79 L418.2 666.89 L417.96 665.68 L417.04 665.29 L412.95 662.56 L412.28 661.84 L407.14 663.12 L405.29 663.31 L401.27 662.98 L398.68 663.33 L397.8 663.34 L395.65 662.46 L395.24 660.81 L395.12 658.91 L393.89 657.26 L392.73 656.9 L392 657.3 L391.26 658.02 L390.11 658.6 L388.37 658.6 L387.62 658.72 L384.11 665.51 L382.83 667.27 L381.56 668.09 L378.06 668.92 L377.06 669.56 L376.73 670.49 L376.53 671.47 L375.93 672.24 L375.16 672.47 L374.34 672.39 L373.52 672.22 L372.71 672.17 L370.81 672.63 L369.59 673.48 L366.33 677.77 L364.76 679.27 L362.95 680.38 L361.03 680.59 L358.99 679.95 L358.29 679.14 L358.01 677.95 L357.25 676.16 L354.39 674.05 L350.83 674.21 L347.09 674.92 L343.75 674.48 L342.15 673.33 L340.59 671.75 L338.23 668.75 L337.88 667.1 L337.32 666.41 L335.95 666.31 L335.17 666.79 L333.77 668.29 L332.92 668.37 L330.32 664.66 L329.9 663.86 L329.65 663.18 L329.51 662.48 L329.46 661.57 L329.73 659.64 L330.15 658.17 L329.89 657.24 L325.52 656.61 L324.57 656.74 L324 656.62 L323.13 655.7 L322.7 655.54 L321.95 655.94 L321.59 656.21 L321.74 656.33 L321.67 656.53 L321.62 656.94 L321.42 657.3 L320.9 657.35 L319.46 656.75 L319 656.68 L316.58 657.03 L315.92 656.97 L314.94 656.39 L313.4 654.73 L312.53 654.01 L311.87 653.79 L309.79 653.35 L309.42 653.35 L308.8 651.96 L308.43 649.93 L308.26 646.43 L308.94 641.47 L308.63 639.63 L308.3 638.85 L307.73 637.88 L307.02 637.02 L306.23 636.56 L305.47 636.6 L303.83 637.05 L303.2 637.05 L302.08 636.16 L301.56 634.75 L300.89 631.23 L299.78 629.21 L298.27 628.25 L290.79 627.43 L289.09 626.83 L287.56 625.57 L287.11 624.72 L286.75 622.9 L286.44 622.09 L285.72 621.27 L283.07 619.24 L282.47 618.99 L281.91 618.68 L281.4 618.29 L280.93 617.85 L281.5 614.06 L281.35 612.95 L280.49 611.86 L278.03 610.08 L276.65 606.73 L274.34 604.78 L269.49 601.51 L267.76 599.35 L266.36 596.84 L264.1 591.47 L263.75 590.18 L263.29 585.99 L262.61 583.82 L262.43 582.76 L262.61 581.45 L266.05 572.14 L265.89 571.31 L266.08 569.81 L265.74 569.09 L264.93 568.53 L264.3 568.58 L263.83 568.85 L263.54 568.96 L263.22 569.03 L262.82 569.23 L262.37 569.15 L261.86 568.34 L261.81 567.76 L262.19 566.53 L262.32 565.05 L262.53 564.5 L262.46 564.04 L261 563.05 L260.6 562.67 L260.42 562.17 L260.38 561.4 L260.12 560.08 L259.41 558.75 L258.39 557.65 L257.19 557.05 L255.5 556.49 L255.09 555.85 L255.05 554.95 L254.44 553.53 L253.68 552.97 L250.12 551.62 L249.34 551.65 L247.79 552.15 L247.01 552.14 L246.45 551.73 L245.82 550.43 L244.25 549.23 L243.26 546.8 L242.35 545.82 L238.65 546.74 L236.87 546.64 L235.79 545.16 L234.99 543.23 L233.96 543.04 L232.54 543.54 L230.57 543.69 L228.6 542.81 L227.92 541.29 L227.43 537.48 L226.52 536.34 L224.99 535.37 L218.95 532.99 L212.96 533.28 L210.24 532.92 L205.27 531.2 L203.95 530.15 L203.11 528.62 L202.41 526.78 L201.48 525.32 L199.97 524.88 L196.54 527.27 L195.2 527.65 L194.91 525.85 L195.58 524.19 L196.96 522.73 L198.64 521.53 L200.18 520.66 L201.58 519.51 L202.38 517.94 L202.33 516.32 L201.22 514.98 L199.84 514.64 L198.6 514.7 L197.81 514.18 L197.79 512.14 L197.51 509.94 L196.17 508.96 L192.65 508.21 L191.05 507.18 L189.01 504.47 L187.61 503.09 L185.96 502.15 L184.68 501.62 L183.75 500.82 L183.17 499.06 L183.36 497.52 L183.83 495.92 L183.7 494.66 L182.1 494.13 L182.68 493.13 L183.48 492.55 L184.33 492.09 L185.05 491.46 L186.69 488.03 L189.38 484.42 L190.75 481.83 L191.39 480.98 L191.34 479.99 L191.24 478.12 L187.15 475.79 L182.14 473.92 L179.22 472.43 L177.8 470.93 L174.35 468.51 L171.71 465.2 L170.37 464.6 L168.84 464.2 L166.93 463.01 L166.06 461.99 L165.76 461.05 L165.62 460.08 L165.27 458.99 L165.23 458.47 L165.4 457.94 L165.44 457.48 L165.06 457.15 L164.57 457.15 L164.02 457.29 L163.49 457.35 L163.05 457.09 L162.23 455.16 L161.94 450.74 L161.41 448.81 L157.6 448.5 L156.61 448.22 L156.38 447.69 L156.34 447.04 L155.85 446.44 L155 446.09 L153.3 445.84 L152.44 445.61 L149.77 444.1 L149.38 443.31 L149.17 441.71 L148.82 441.04 L147.4 440.37 L143.59 440.01 L142.32 439.57 L141.55 438.18 L141.54 437.05 L141.08 436.34 L138.97 436.25 L138.03 436.01 L136.69 434.66 L135.85 434.29 L134.2 434.32 L133.52 434.13 L131.46 432.49 L129.88 431.84 L124.66 430.49 L123.32 429.75 L119.51 426.26 L118.25 425.47 L116.85 425.23 L115.23 425.79 L113.02 424.76 L109.72 422.24 L104.96 419.86 L103.84 419.05 L102.92 417.81 L102.47 416.57 L101.92 414.11 L101.25 412.89 L100.7 412.47 L99.28 412.03 L98.61 411.66 L98.11 411.08 L97.3 409.72 L96.76 409.14 L95.63 408.38 L90.59 405.71 L88.78 401.44 L88.4 400.05 L88.45 398.98 L90.26 397.25 L95.85 395.34 L97.75 393.67 L98.13 392.17 L97.88 390.91 L97.39 389.72 L97.06 388.44 L97.39 384.76 L97.32 383.51 L96.87 382.06 L95.61 379.79 L94.74 377.08 L93.92 375.74 L92.83 374.68 L90.68 373.96 L90.17 373.49 L89.75 372.97 L89.13 372.58 L87.04 372.23 L85.84 372.24 L83.21 372.82 L82.04 372.89 L79.46 371.93 L76.93 369.99 L72.86 365.41 L72.13 365.01 L71.47 364.53 L70.9 363.97 L70.43 363.34 L70.26 361.81 L68.52 360.01 L68.33 356.97 L67.5 355.59 L60.22 348.86 L57.51 347.61 L52.61 347.05 L49.92 345.55 L48.21 345.35 L46.56 345.34 L41.81 344.45 L35.86 345.4 L33.16 345.31 L30.49 343.64 L29.66 343.45 L29.05 343.08 L28.59 342.52 L28.25 341.76 L26.23 339.81 L23.31 340.12 L17.84 342.01 L17.4 341.76 L15.99 340.65 L15.35 340.32 L14.74 340.23 L13.52 340.23 L12 340.06 L11.48 340 L8.55 339.31 L7.21 338.79 L4.95 337.56 L2.65 335.83 L0.83 333.67 L0 331.17 L0.31 328.37 L1.32 325.46 L6.07 317.45 L6.92 316.5 L10.35 314.21 L10.93 313.4 L10.51 312.36 L8.21 310.54 L7.6 309.33 L7.93 308.11 L9.49 305.85 L9.68 304.63 L8.15 303.81 L4.99 303.88 L4.13 304 L4.51 303.46 L4.69 302.24 L5.21 301.55 L10.09 297.81 L12.65 296.59 L21.91 290.72 L23.84 290.31 L31.55 289.5 L35.71 288.1 L36.55 287.64 L37.02 287.07 L37.02 277.92 L37.1 277.36 L37.61 276.08 L45.29 262.99 L45.62 262.16 L45.71 261.71 L47.34 245.3 L47.92 243.75 L48.6 242.76 L51.05 240.5 L56.25 234.63 L56.87 232.66 L57.02 231.65 L56.88 208.77 L57.19 207 L57.48 206.46 L57.81 206.12 L58.12 206.04 L58.92 205.98 L59.84 205.82 L60.57 205.48 L61.3 205.04 L64.22 202.61 L67.15 200.82 L68.26 199.58 L70.58 196.39 L71.73 195.21 L72.44 194.23 L73.17 192.66 L73.66 191.16 L75.88 186.54 L76.8 184 L76.91 183.5 L76.93 182.96 L76.88 182.48 L76.62 181.59 L75.92 179.97 L75.79 179.54 L75.61 178.59 L75.67 177.87 L75.89 176.96 L80.13 167.75 L80.97 166.72 L81.57 166.17 L82.1 165.96 L83.43 165.56 L84.67 165.07 L85.57 164.88 L87.75 165.05 L88.72 164.89 L90.77 164.09 L91.25 164.08 L92.24 164.2 L92.81 164.13 L93.57 163.81 L94.18 163.67 L94.75 163.61 L95.76 163.78 L96.23 163.94 L97.08 164.32 L97.57 164.47 L98.07 164.56 L98.58 164.57 L99.04 164.46 L99.86 164.16 L100.33 164.12 L101.25 164.25 L101.74 164.24 L102.2 164.16 L103.78 163.41 L104.21 163.28 L105.21 163.17 L105.75 163.16 L106.76 163.05 L107.63 162.78 L108.43 162.4 L109.69 161.97 L110.66 161.79 L111.68 161.7 L115.09 161.82 L116.05 161.66 L117.11 161.36 L117.37 161.32 L123.63 159.1 L127.28 158.19 L127.76 158.12 L130.5 158.09 L132.43 157.78 L133.77 157.4 L134.26 157.32 L137.66 157.46 L138.35 157.38 L139.1 157.17 L140.88 156.3 L144.66 155.29 L145.58 155.2 L145.9 155.44 L149.58 160.05 L150.02 160.77 L150.19 161.17 L150.29 161.64 L150.8 174.97 L150.96 175.45 L151.18 175.82 L151.74 176.42 L152.39 176.97 L155.45 178.78 L156.73 179.34 L159.04 180.02 L159.27 180.14 L159.81 180.57 L160.11 180.86 L160.61 181.53 L165.68 189.9 L166.68 191.18 L167.87 192.44 L167.9 192.47 L174.41 194.95 L190.4 213.81 L206.39 232.66 L210.13 235.11 L212.23 236.08 L217.14 236.48 L218.04 236.4 L250.76 225.24 L272.7 224.72 L276.59 225.41 L288.7 225.36 L295.59 226.24 L296.08 226.18 L297.85 225.7 L298.32 225.66 L309.18 227.26 L317.54 226.81 L318.94 226.56 L319.81 226.22 L328.45 244.3 L332.52 248.9 L366.32 249.19 L400.11 249.49 L400.22 249.49 L399.17 247.37 L398.82 244.3 L398.94 240.65 L400.68 237.35 L406.15 231.92 L412.56 226.93 L414.26 225.54 L424.66 220 L434.84 216.27 L454.39 211.92 L461.53 205.07 L465.48 198.78 L465.61 186.42 L468.19 184.39 L472.86 181.52 L495.48 170.47 L499.3 168.13 L519.29 180.98 L539.27 193.83 L561.7 214.15 L563.06 215.14 L564.23 215.52 L565.41 214.82 L566.41 213.88 L568.05 213.26 L569.14 212.98 L578.71 212.72 L578.74 212.72 L596.89 211.72 L602.86 209.29 L621.08 191.14 L639.3 172.98 L648.57 161.39 L650.92 159.02 L656.19 150.76 L661.76 136.55 L662.87 134.95 L682.83 117.9 L702.8 100.83 L704.21 98.13 L704.6 95.98 L698.57 84.49 L697.26 78.65 L697 69.66 L698.2 55.66 L697.78 46.81 L697.62 45.81 L697.23 44.44 L696.96 43.93 L674.67 18.75 L702.83 18.63 L730.99 18.5 L731.12 16.41 L731.06 15.31 L730.89 14.31 L729.83 11.29 L729.21 7.27 L729.17 6.15 L729.25 5.05 L729.58 2.97 L729.61 1.85 L729.55 1.31 L729.45 0.81 L729.47 0.37 L729.72 0 L770.19 0.5 L769.66 7.63 L764.74 24.4 L764.83 34.44 L763.68 45.91 L763.39 46.84 L762.29 49.31 L761.32 50.72 L760.21 52.09 L759.89 52.6 L759.51 53.44 L759.48 54.7 L763.69 86.75 L767.89 118.76 L767.57 120.37 L767.26 121.43 L765.02 125.42 L764.44 126.73 L764.32 127.75 L765.23 128.44 L783.87 135.35 L784.77 135.79 L785.49 136.35 L792.2 144.57 L810.56 159.73 L828.91 174.89 L830.17 176.4 L833.97 185.91 L834.39 187.35 L834.52 189.63 L834.43 191.4 L833.49 197.1 L833.8 199.66 L834.43 201.36 L834.94 203.31 L834.94 203.91 L834.87 204.42 L834.59 205.33 L829.15 216.31 L827.37 224.12 L826.84 230.68 L827.16 234.48 L827.78 236.92 L828.06 237.49 L828.29 237.9 L828.54 238.15 L828.8 238.26 L843.2 238.32 L844.25 259.74 L845.47 284.57 L846.69 309.38 L846.3 311.52 L845.95 313.43 L844.86 315.38 L843.1 317.34 L834.73 324.91 L833 325.95 L831.42 326.38 L826.63 326.4 L823.72 326.74 L822.3 327.12 L820.94 327.71 L820.06 328.31 L816.55 331.35 L816.18 331.47 L815.26 331.61 L811.4 331.12 L809.35 328.77 L807.69 325.84 L805.04 323.59 L803.32 323.31 L802.07 323.81 L800.86 324.5 L799.25 324.78 L797.97 324.23 L796.69 323.2 L795.27 322.38 L793.54 322.45 L794.01 323.09 L793.98 323.4 L793.18 323.85 L787.47 324.53 L786.37 324.28 L785.69 324.35 L785.05 324.68 L783.89 325.59 L783.08 325.86 L773.88 323.81 L772.39 324.03 L769.95 326.17 L770.03 326.51 L770.28 327.01 L769.65 327.58 L768.37 327.85 L767.21 328.41 L766.82 329.01 L766.68 329.67 L766.69 331.12 L766.6 331.51 L766.18 332.09 L766.11 332.55 L766.3 332.82 L767.06 333.37 L767.21 333.67 L767.02 334.71 L766.28 336.33 L766.11 336.97 L766.39 337.98 L766.98 338.81 L767.58 339.44 L768.2 340.4 L768.97 340.85 L770.11 341.33 L769.99 342.43 L769.4 342.88 L768.6 343.15 L767.85 343.72 L767.2 344.67 L766.86 345.45 L766.72 346.32 L766.69 347.52 L766.96 347.98 L768.11 348.81 L768.37 349.27 L768.15 350.97 L767.48 352.16 L766.42 353.02 L764.96 353.71 L762.42 354.13 L762.07 354.56 L761.89 355.29 L761.49 356.15 L760.98 356.96 L756.17 361.89 L755.1 363.36 L754.67 364.22 L754.29 366.02 L753.88 366.61 L753.48 367.04 L753.1 367.83 L753.03 367.97 L751.91 369.19 L751.59 370.13 L753.73 375.82 L754.45 377.16 L755.91 378.03 L756.24 378.75 L756.5 379.53 L756.8 380.06 L757.4 380.33 L759.69 380.59 L761.57 381.42 L762.7 381.59 L763.22 380.88 L763.65 380.67 L766.4 380.06 L767.11 380.19 L769.53 381.17 L772.28 381.59 L773 381.81 L774.3 382.94 L775.64 384.5 L777.17 385.88 L781.88 387.09 L782.95 387.06 L785.03 385.68 L785.79 385.31 L789.45 384.56 L791.64 384.48 L793.1 385.02 L793.86 385.62 L795.41 386.06 L796.26 386.48 L797.08 387.25 L798.25 388.8 L799.14 389.45 L800.96 389.97 L806.46 389.45 L807.35 389.68 L809.67 391.2 L812.34 391.97 L813.14 392.37 L814.28 393.66 L816.96 397.42 L821.23 400.6 L822.07 400.82 L823.83 401.03 L824.71 401.23 L827.24 402.73 L837.76 413.51 L839.22 415.86 L839.8 418.74 L839.85 426.72 L840.06 427.15 L840.6 427.41 L844.49 430.46 L846.8 433.36 L848.43 434.57 L850.02 434.22 L851.43 433.55 L852.58 434.25 L853.39 435.76 L853.8 437.51 L853.8 440.18 L853.8 441.1 L854.01 443.03 L854.67 443.87 L855.32 444.09 L855.85 444.59 L856.69 445.68 L860.16 448.24 L860.57 448.75 L861 450.23 L861.59 450.64 L862.16 450.9 L862.43 451.21 L874.43 454.09 L879.89 457.92 L880.63 459.04 L881.2 460.34 L881.56 461.83 L881.68 463.5 L881.5 463.74 L880.71 464.3 L880.52 464.38 L880.61 464.9 L881 465.77 L881.1 466.13 L881.68 469.62 L882.66 470.46 L884.16 470.79 L887.78 470.79 L889.62 471.02 L891.07 471.59 L896.83 475.42 L897.35 476.35 L897.76 477.92 L898.79 479.09 L899.37 479.46 L900.22 482.94 L901.1 486.39 L902.98 491.25 L903.67 496.16 L904.39 497.88 L907.77 503.69 L908.32 505.9 L908.38 510.92 L908.8 512.63 L911.79 517.84 L913.39 522.01 L914.8 523.63 L916.4 525.1 L917.85 526.91 L918.52 528.57 L919.24 533.13 L919.4 534.11 L918.5 535.92 L918.21 536.88 L918.17 537.87 L918.6 538.8 L919.99 540.3 L920.26 541.25 L920.07 542.46 L919.8 543.44 L919.64 544.37 L919.79 545.49 L920.63 547.37 L927.49 557.13 L928.7 559.4 L929.44 564.35 L930.32 565.99 L934.1 568.78 L940.89 572.76 L944.16 575.41 L944.78 577.12 L945.15 578.13 L944.64 579.09 L943.91 579.98 L943.3 580.9 L943.21 581.94 L943.54 582.72 L946.32 587.14 L947.58 588.56 L949.14 589.3 L951.19 588.99 L953.1 587.65 L956.55 583.86 L958.42 582.61 L959.94 582.31 L961.73 582.31 L963.5 582.54 L965.02 582.94 L966.94 584.07 L970.6 587.03 L972.65 587.59 L974.67 587.16 L976.18 586.46 L977.75 586.09 L979.9 586.67 L985.47 590.11 L990.11 591.91 L990.53 592.67 L988.24 596.01 L987.67 597.99 L987.93 599.64 L989.61 602.87 L990.36 604.91 L990.38 606.66 L989.69 608.37 L986.45 612.48 L986.02 613.57 L985.66 631.36 L986.37 635.5 L988.45 639.03 Z "/>
</g>
</svg>
