<svg xmlns="http://www.w3.org/2000/svg" viewBox="0 0 1000 1424.16">
<g fill="#ccc" stroke="#333" stroke-width="0.5" stroke-linejoin="round">
<path fill-rule="evenodd" d="M163.26 133.09 L163.5 133.93 L163.8 134.29 L164.61 134.92 L165.49 136.31 L167.9 138.22 L169.14 139.64 L169.66 140 L170.1 140.13 L171.06 140.19 L171.53 140.33 L175.09 142.5 L181.09 147.48 L181.59 148.15 L183.04 151.31 L184.3 153.31 L184.81 154.42 L184.74 155.18 L184.33 156.04 L184.76 156.73 L185.63 157.26 L186.52 157.62 L186.61 158.96 L186.7 159.29 L186.99 159.6 L187.83 160.03 L188.14 160.35 L188.24 160.83 L188.07 161.14 L187.86 161.43 L187.86 161.82 L188.06 162.18 L188.54 162.84 L188.73 163.25 L189.04 164.85 L189.34 165.42 L190.11 165.92 L191.47 166.54 L191.73 167.01 L191.88 168.03 L192.58 167.93 L192.55 168.36 L192.3 169 L192.33 169.53 L192.79 169.74 L193.22 169.56 L193.62 169.3 L194.05 169.29 L194.65 169.82 L193.27 170.7 L192.97 171.51 L192.88 172.95 L194.97 174.82 L195.35 176.18 L195.06 176.69 L194.04 177.32 L193.79 177.69 L193.93 178.24 L194.41 178.42 L194.96 178.51 L195.32 178.82 L195.35 179.39 L194.94 180.5 L194.95 181.03 L195.33 181.56 L196.51 182.16 L196.99 182.56 L197.45 183.48 L198.43 186.9 L197.94 187.89 L197.91 188.37 L198.54 188.15 L199 187.91 L199.27 187.94 L199.79 188.54 L199.8 188.73 L201.05 191.81 L201.45 196.29 L201.35 200.01 L201.51 200.98 L203.25 204.09 L203.09 204.89 L201.08 207.75 L200.22 209.75 L199.15 211.6 L196.46 215.01 L195.09 217.59 L194.45 218.43 L193.07 219.45 L192.87 220.08 L192.27 222.86 L192.13 224.37 L192.27 225.69 L192.56 226.33 L193.31 227.41 L193.53 228.17 L193.45 229.36 L192.44 232.89 L192.45 234.46 L192.71 236.38 L193.18 238.27 L193.82 239.7 L194.11 240.1 L194.37 240.37 L195.08 240.86 L195.53 241.43 L196.01 243.08 L196.24 243.6 L196.37 243.46 L197.37 242.73 L200.37 241.32 L202.53 239.8 L203.74 239.16 L206.33 238.82 L208.31 239.66 L210.17 240.83 L216.32 242.22 L217.76 242.18 L221.81 241.01 L222.47 241 L223.77 241.16 L224.43 241.14 L228.33 240.07 L230.46 240 L231.52 240.19 L233.81 241.24 L237.77 241.34 L240.53 242.09 L241.52 242.11 L242.57 241.7 L245.21 239.89 L246.07 239.05 L246.58 238.13 L246.77 237.18 L246.72 236.17 L246.31 233.84 L246.36 233.03 L246.92 232.48 L248.16 232.03 L249.62 231.77 L254.13 231.74 L257.07 231.03 L259.8 229.33 L262.14 226.95 L263.91 224.21 L265.41 220.09 L266.3 218.23 L268.17 216.3 L268.66 215.27 L269.08 214.95 L271.21 214.57 L271.94 214.33 L273.06 213.73 L275.48 211.37 L277.06 209.02 L278.08 208.17 L279.55 207.9 L281.66 208.36 L282.46 208.03 L283.33 206.67 L284.1 204.88 L284.62 204.19 L285.53 203.53 L285.98 203.07 L286.09 202.95 L288.04 199.95 L288.07 199.36 L287.9 198.84 L287.88 198.38 L288.37 197.96 L289.69 197.46 L290.15 197.13 L290.56 196.48 L290.79 195.61 L290.93 194.39 L290.91 193.24 L290.67 192.59 L290.07 191.66 L290.57 190.79 L291.5 189.98 L292.21 189.2 L292.71 188.33 L292.64 188.01 L292.36 187.26 L292.03 186.75 L291.76 186.65 L291.58 186.48 L291.54 185.77 L291.82 184.65 L292.44 183.59 L294.52 181.13 L294.79 180.63 L294.91 180.09 L295.01 179.36 L294.94 178.8 L294.76 178.35 L294.82 177.94 L295.45 177.45 L295.86 176.95 L295.65 176.41 L295.21 175.86 L294.94 175.35 L294.97 174.91 L295.09 174.49 L295.46 173.7 L296.39 170.51 L296.7 170.01 L297.88 169.53 L298.39 168.92 L299.13 166.92 L299.52 166.29 L299.91 165.84 L300.4 165.52 L301.04 165.24 L301.57 164.9 L301.76 164.5 L301.87 164.06 L302.13 163.6 L303.94 161.74 L305.04 161.16 L306.15 161.32 L306.45 161.74 L306.66 162.26 L306.95 162.53 L307.51 162.2 L307.95 161.83 L311.45 160.16 L313.66 159.5 L315.96 159.34 L318.51 159.82 L320.63 160.64 L321.35 160.81 L322.17 160.75 L323.7 160.18 L324.3 160.06 L324.97 160.27 L325.38 160.69 L326.09 161.78 L326.7 162.44 L327.17 162.78 L328.53 163.41 L329.7 164.14 L334.61 168.01 L334.96 168.53 L335.54 169.13 L338.14 169.94 L338.58 170.33 L339.05 171.41 L339.37 171.86 L339.8 172.13 L340.74 172.44 L341.15 172.7 L342.92 175.04 L345.02 176.58 L345.72 177.59 L346.61 178.14 L349.01 177.54 L349.55 177.64 L350.03 177.94 L350.51 178.35 L350.55 178.77 L350.3 179.21 L350.37 179.45 L351.37 179.31 L356.2 177.99 L358.64 177.97 L360.69 179.16 L363.9 183.01 L365.86 184.47 L368.2 184.86 L369.48 184.53 L370.41 184.13 L371.34 184.01 L373.39 184.78 L376.92 186.1 L379.38 187.79 L381.02 188.16 L384.42 187.78 L385.94 188.12 L387.24 188.47 L388.65 188.3 L391.42 187.56 L392.34 187.17 L395.11 185.04 L397.22 184.01 L399.01 183.75 L400.8 184.05 L402.92 184.71 L404.87 185.06 L414.57 184.04 L417.92 182.37 L423.91 177.64 L424.91 174.54 L426.95 169.59 L427.45 168.39 L428.94 161.7 L433 152.52 L434.03 149.11 L435.43 146.62 L435.52 144.71 L436.87 141.58 L437.36 139.93 L437.39 137.87 L436.91 134.13 L436.98 132.87 L437.24 132.63 L437.6 132.57 L439.13 132.04 L441.52 132.13 L442.22 131.76 L443.73 130.64 L450.81 128.4 L456.06 126.75 L458.24 126.44 L459.11 126.52 L460 126.73 L460.84 126.8 L461.88 126.97 L461.9 126.97 L464.92 123.83 L465.26 123.24 L466.62 119.61 L467.79 118.07 L469.06 117.02 L472.08 115.04 L474.9 112.08 L475.31 111.33 L476.29 110.78 L480.4 109.44 L481.37 108.89 L482.11 108.21 L482.6 107.32 L483.5 102.85 L483.59 100.58 L486.86 87.06 L487.03 85.69 L486.71 84.66 L488.04 82.24 L487.94 81.83 L487.83 81.33 L488.06 80.38 L488.96 78.77 L489.78 76.68 L490.23 76.31 L490.72 76.52 L490.98 77.13 L491.34 77.69 L492.14 77.73 L492.85 77.2 L492.82 76.47 L492.53 75.59 L492.45 74.58 L492.77 74.73 L493.09 74.93 L493.23 74.46 L493.5 74.15 L494.36 73.54 L494.04 73.54 L494.41 72.92 L494.86 72.55 L495.38 72.49 L495.95 72.84 L496.15 72.24 L495.9 71.92 L495.51 71.58 L495.31 70.96 L495.51 70.55 L495.99 70.47 L496.52 70.68 L496.9 71.15 L497.1 70.8 L497.45 70.38 L497.56 70.08 L497.9 70.48 L498.27 70.67 L498.69 70.66 L499.15 70.45 L498.49 69.48 L499.01 68.88 L500.74 68.34 L502.52 67.44 L503.33 66.84 L504.1 66.09 L505.19 64.34 L505.86 63.79 L506.38 65.36 L506.86 65.08 L507.3 64.49 L507.43 64.19 L507.99 63.92 L508.68 63.68 L509.05 63.78 L508.71 64.51 L509.36 64.86 L509.82 64.55 L510.2 63.97 L510.64 63.47 L511.24 63.23 L513.17 63.16 L514.18 62.85 L515.11 62.23 L515.8 61.32 L516.06 60.18 L515.99 59.85 L515.86 59.45 L515.78 59.11 L515.9 58.98 L516.07 58.89 L516.24 58.67 L516.34 58.38 L516.37 58.1 L516.58 57.32 L517.45 56.35 L517.86 54.94 L518.38 54.95 L519.04 55.28 L519.68 55.49 L520.22 55.28 L522.06 53.76 L523.33 55.19 L523.96 55.49 L524.63 55.14 L524.9 54.67 L525.59 52.73 L525.66 52.7 L526.01 52.42 L526.07 52.35 L526.29 52.26 L526.2 52.06 L526 51.84 L525.9 51.69 L525.81 51.45 L525.61 51.1 L525.47 50.7 L525.59 50.31 L526.09 50.4 L527.09 50.47 L527.82 50.2 L527.52 49.27 L529.29 48.81 L531.23 48 L532.83 46.86 L533.58 45.45 L533.2 43.31 L533.18 42.16 L533.72 41.65 L534.62 41.51 L535.59 41.14 L536.47 40.69 L537.1 40.28 L537.83 39.51 L538.4 38.5 L538.59 37.38 L538.2 36.3 L538.28 35.75 L539.14 35.34 L540.21 35.03 L540.91 34.73 L541.09 34.42 L541.35 33.65 L541.55 33.36 L541.92 33.16 L542.39 33.05 L542.87 32.87 L543.29 32.48 L543.64 31.82 L543.65 31.42 L543.51 31.03 L543.42 30.41 L543.51 29.76 L543.74 29.28 L545.21 27.42 L545.64 27.13 L546.14 26.99 L547.28 26.88 L547.73 26.61 L549.42 24.61 L550.12 24 L551.83 23.03 L553.61 22.55 L557.44 22.28 L560.38 23.04 L561.12 22.81 L562.11 21.95 L562.94 21.79 L563.85 21.93 L565.09 21.94 L566.73 21.39 L570.09 19.47 L572.11 18.85 L573.13 18.68 L574.06 18.42 L574.73 17.88 L574.99 16.92 L575.45 16.26 L576.51 16.2 L578.51 16.44 L579.34 15.8 L580.42 13.78 L580.88 13.35 L581.09 12.76 L580.73 9.23 L581.82 7.81 L582.71 6.88 L583.42 6.46 L583.41 6.22 L584.38 4.89 L584.8 4.71 L590.43 4.4 L591.26 4.08 L592.01 3.41 L592.91 2.8 L594.12 2.65 L596.66 3.2 L597.99 3.33 L598.86 3.02 L599.18 3.24 L599.47 3.31 L600.16 3.34 L601.16 2.8 L602.86 1.84 L603.82 1.62 L606.15 2.19 L607.31 2.31 L607.8 1.81 L608.2 0.98 L609.09 0.78 L610.66 0.93 L612.39 0.14 L613.33 0 L614.18 0.6 L614.73 0.38 L617.86 0.22 L618.81 0.5 L621.51 2.31 L623.1 2.65 L624.24 3.26 L625.92 3.41 L626.6 3.61 L627.86 4.4 L628.32 4.58 L629.32 4.81 L629.8 5.05 L630.68 6.01 L630.74 6.23 L630.85 6.39 L632.23 6.56 L632.91 6.85 L634.24 7.83 L635.36 8.39 L636.17 8.46 L638.23 8.17 L639.38 8.26 L640.25 8.52 L640.94 8.95 L641.6 9.54 L643.06 10.57 L644.65 10.96 L646.37 10.9 L648.26 10.57 L649.15 10.28 L650.89 9.47 L651.79 9.23 L652.66 9.2 L655.68 9.55 L657.02 9.54 L657.45 9.66 L658.16 10.15 L658.48 10.26 L659.18 10.04 L660.43 9.15 L661.34 8.86 L666.52 8.44 L668.03 7.83 L669.39 8.2 L672.18 8.5 L677.25 9.7 L678.84 10.41 L679.64 10.57 L680.08 10.47 L680.43 10.39 L681.97 9.64 L682.66 9.54 L683.16 9.85 L684.11 11.01 L684.44 11.26 L684.77 11.36 L685.49 11.83 L685.87 11.98 L686.24 11.93 L686.99 11.61 L687.46 11.63 L687.92 12.01 L689 13.61 L688.55 14.51 L690.6 20.93 L693 28.42 L695.39 35.91 L697.31 41.91 L700.51 51.92 L700.79 53.45 L699.81 65.01 L700.1 67.1 L700.97 68.9 L705.43 73.74 L706.35 75.58 L708.14 81.93 L710.03 86.38 L710.68 87.45 L711.56 88.28 L714.56 90.5 L715.11 91.15 L715.36 91.96 L715.39 92.8 L715.7 100.87 L715.99 103.02 L718.64 108.78 L720.27 112.33 L721.44 116.25 L721.69 120.2 L721.31 123.71 L721.35 130.84 L721.4 139.47 L721.43 145.59 L721.47 153.75 L721.54 164.92 L720.75 167.44 L720.56 168.74 L720.5 170.44 L720.67 172.04 L721.16 173.11 L721.43 174.18 L721.86 177.42 L721.87 178.54 L721.67 179.23 L721.36 179.54 L720.91 179.82 L720.31 180.39 L719.94 181.02 L717.97 186.2 L717.69 187.63 L717.88 189.18 L719.7 195.13 L717.04 196.46 L715.71 196.77 L714.37 196.37 L710.3 193.71 L709.54 193.22 L705.27 190.44 L700.34 187.24 L695.42 184.05 L694.24 183.65 L692.87 183.67 L691.26 184.1 L689.95 184.76 L685.26 188.95 L681.14 192.64 L680.54 193.72 L679.83 196.45 L677.33 202.47 L674.17 208.12 L670.8 212.4 L666.48 217.89 L665.48 221.78 L665.53 227.31 L665.61 234.49 L666.07 238.07 L666.38 239.28 L667.19 239.24 L667.96 239.08 L668.75 238.64 L669.47 238.04 L670 237.37 L670.24 238.07 L671.04 240.45 L671.66 241.39 L672.99 242.81 L673.48 243.58 L673.76 244.62 L673.7 245.92 L673.22 247.96 L673.41 249.26 L674.46 251.08 L679.23 255.42 L681.45 258.79 L682.17 259.51 L682.87 259.98 L686.95 261.4 L688.59 261.97 L692.15 263.2 L696.93 264.85 L700.05 265.49 L705.18 265.56 L711.95 265.66 L716.42 265.72 L720.59 265.77 L720.56 265.08 L720.43 264.49 L720.19 263.93 L719.88 263.36 L719.62 262.59 L719.5 258.72 L719.47 257.72 L719.37 254.5 L720.19 249.71 L720.92 245.42 L721.7 240.81 L721.6 239.25 L724.72 239.27 L725.47 239.41 L726.61 240.57 L727.36 240.9 L728.72 241.2 L731.09 240.92 L732.43 240.97 L735.82 241.53 L738.44 241.96 L743.87 241.81 L749.87 241.63 L756.4 241.44 L763.59 241.22 L763 243.35 L762.29 250.15 L761.44 253.47 L761.33 254.61 L761.09 255.7 L759.43 258.03 L759.31 258.48 L759.12 259.99 L759.01 260.44 L758.58 261.24 L758.38 262.62 L753.52 276.48 L750.3 291.87 L750.23 293.04 L750.14 293.58 L749.7 294.83 L749.56 295.39 L749.56 296.03 L749.82 297.02 L749.88 297.58 L747.66 310.71 L747.36 311.69 L743.45 317.84 L743.19 318.68 L743 319.9 L742.49 321.01 L741.69 321.81 L740.65 322.13 L740.82 322.64 L740.99 322.79 L741.23 322.7 L741.6 322.49 L741.97 324.32 L741.46 326.28 L740.7 328.2 L740.29 329.93 L739.7 330.85 L735.69 334.99 L735.08 335.47 L733.59 336.2 L733 336.61 L732.55 337.2 L731.68 338.72 L731.07 339.51 L725.96 343.92 L724.68 342.86 L722.85 343.15 L721.78 344.28 L722.81 345.73 L723.18 345.28 L723.8 344.73 L724.55 344.33 L725.32 344.25 L724.44 345.96 L722.62 347.48 L716.87 350.57 L715.19 350.92 L713.4 350.86 L711.33 350.44 L711.39 350.9 L711.48 351.2 L711.65 351.41 L711.96 351.57 L711.96 351.9 L710.54 352.78 L701.49 363.19 L699.29 365.16 L698.56 365.52 L698.28 365.73 L698.17 366.05 L697.99 366.99 L697.8 367.19 L697.21 367.61 L695.42 370.13 L694.75 370.71 L693.17 371.71 L692.54 372.28 L692.31 372.81 L692.06 373.92 L691.48 374.28 L691.1 374.62 L690.75 375.04 L690.38 375.99 L684.26 384.44 L678.15 396.72 L677.67 398.85 L678.17 400.93 L676.3 400.92 L675.85 401.35 L675.63 402.76 L676.33 402.37 L677.92 401.83 L678.51 401.26 L678.51 401.66 L678.43 402.03 L678.28 402.41 L677.87 403.09 L676.67 404.55 L671.85 408.99 L670.48 410.68 L668.25 414.62 L665.64 420.76 L658.91 432.72 L657.97 434.91 L657.79 435.73 L657.42 436.5 L655.22 438.9 L647.32 453.67 L646 455.57 L645.26 456.35 L644.59 456.66 L643.97 457.2 L642.5 460.39 L638.19 466.18 L634.81 470.73 L633.49 471.66 L631.99 474.92 L629.54 477.83 L622.76 484.33 L621.92 484.77 L619.06 485.59 L618 486.09 L617.08 486.83 L616.69 487.78 L613.84 491.32 L612.82 491.76 L612.4 492.06 L612.09 493.1 L611.76 493.53 L611.4 493.84 L611.15 493.96 L610.11 494.23 L609.27 494.9 L607.78 496.57 L607.04 497.01 L605.21 497.69 L604 498.55 L603.6 498.65 L603.16 498.69 L602.67 498.84 L602.45 498.86 L601.93 498.78 L601.72 498.84 L601.43 499.2 L601.5 499.49 L601.67 499.73 L601.72 499.96 L600.8 502.01 L599.43 502.79 L599.18 503.12 L598.99 504.46 L598.48 505.18 L596.96 506.3 L595.45 507.98 L594.73 509.01 L594.42 509.89 L594.29 510.41 L593.47 511.92 L592.97 512.21 L592.83 512.32 L592.75 512.54 L592.6 513.21 L592.51 513.41 L589.44 514.83 L588.99 515.5 L588.8 516.4 L588.34 517.42 L587.06 519.43 L581.34 525.64 L576.55 532.25 L574.08 533.79 L573.67 534.33 L567.43 540.15 L566.36 541.72 L565.97 542.08 L565.2 542.45 L564.78 542.78 L563.07 544.59 L562.25 545.74 L561.89 546.76 L561.59 547.42 L556.43 551.48 L555.24 552.12 L553.73 553.41 L552.98 553.81 L552.83 554.68 L551.75 555.53 L549.46 556.79 L547.27 558.38 L545.89 559.14 L543.32 559.91 L542.14 561.03 L541.24 562.56 L540.89 564.2 L540.46 565.38 L539.45 566.54 L534.69 570.54 L533.28 571.05 L532.86 571.49 L532.26 572.39 L531.62 572.76 L531.55 572.97 L531.53 573.25 L531.49 573.55 L531.3 573.83 L529.08 574.86 L528.17 575.9 L527.66 576.15 L526.75 576.29 L524.45 577.15 L523.66 577.65 L519.5 582.09 L517.95 583.38 L514.66 584.64 L514.13 585.1 L513.92 585.19 L512.84 586.8 L512.48 587 L512.13 587.11 L511.74 587.06 L511.24 586.8 L510.91 588.22 L509.8 589.43 L507.27 591.47 L506.13 592.15 L505.94 592.15 L505.75 592.01 L505.6 591.86 L505.51 591.8 L505.35 591.97 L505.16 592.57 L500.2 596.01 L499.76 596.55 L496.24 598.27 L495.52 598.85 L495.16 599.24 L495 599.62 L494.91 600.04 L494.65 600.48 L494.28 600.83 L493.86 600.96 L492.91 601.14 L488.88 603.33 L487.98 603.56 L486.86 603.63 L485.83 603.96 L483.22 606.26 L482.28 606.52 L480.04 606.8 L478.49 607.73 L474.03 609.67 L473.47 609.73 L473.11 609.97 L472.8 611.02 L472.51 611.26 L471.5 611.42 L467.05 613.67 L465.23 614.17 L463.31 614.27 L459.36 613.69 L458.13 613.74 L457.24 614.15 L456.42 614.29 L455.33 613.82 L453.58 612.79 L447.4 611.53 L441.02 611.19 L436.93 611.8 L433.12 613.02 L429.66 614.73 L428.17 615.9 L426.97 617.44 L426.08 619.26 L425.31 622.41 L425.19 623.73 L425.4 624.34 L426.31 624.79 L426.52 625.28 L426.74 625.62 L428.08 626.62 L428.94 628.04 L429.35 628.54 L429.28 628.97 L429.19 629.15 L429.03 629.34 L427.57 628.86 L426.56 629.2 L425.62 629.79 L424.41 630.1 L422.96 629.93 L420.5 629.14 L419.16 628.92 L416.84 629.22 L415.69 629.23 L414.43 628.48 L412.78 628.18 L411.19 627 L409.5 626.32 L405.56 625.25 L401.3 625.16 L397.13 625.75 L394.41 626.54 L393.3 627.14 L392.57 628.01 L393.23 630.31 L392.71 631.44 L391.92 632.4 L391.43 632.78 L389.21 634.81 L388.89 635.66 L389.08 636.34 L389.52 636.71 L389.96 636.98 L390.15 637.39 L390 637.87 L389.2 638.49 L388.89 638.92 L388.57 638.92 L387.99 638.08 L387.01 637.75 L383.83 637.67 L381.27 636.97 L380.2 636.82 L377.26 637.39 L376.37 637.31 L372.36 636.23 L370.34 635.17 L368.71 633.69 L367.81 633.35 L362.15 632.66 L361.34 632.21 L360.7 631.75 L357.69 630.45 L349.37 629.68 L348.37 629.44 L346.37 628.7 L341.41 628.18 L333.16 626.24 L330.98 626.32 L323.49 628.07 L322.49 628.52 L321.6 629.13 L320.85 629.89 L320.4 631.12 L320.72 632.24 L321.54 633 L322.6 633.17 L322.6 633.55 L306.53 632.02 L306.28 631.66 L306.01 630.05 L305.89 629.68 L304.49 629.57 L303.91 629.34 L303.52 628.92 L303.69 629.76 L304.03 630.1 L304.48 630.28 L304.95 630.66 L305.41 631.44 L305.42 631.85 L305.11 632.21 L304.83 631.92 L304.18 631.72 L302.89 631.6 L302.3 631.74 L301.85 631.94 L301.36 632.08 L300.64 632.02 L296.93 630.84 L295.44 629.91 L294.84 629.72 L294.32 629.37 L293.94 628.54 L293.84 628.01 L293.87 627.62 L294.18 627.41 L294.89 627.42 L294.16 626.79 L293.13 626.45 L291.08 626.24 L291.52 627.08 L292.14 627.91 L292.87 628.58 L293.62 628.92 L292.77 629.22 L291.64 629 L286.4 627.14 L285.47 627 L284.25 627.04 L283.34 627.22 L282.58 627.58 L280.17 629.58 L278.29 630.58 L276.2 631.06 L271.86 630.57 L269.91 630.61 L265.91 631.6 L264.98 632.04 L264.22 632.63 L262.86 634.14 L262.28 635.32 L262.48 636.23 L263.16 636.9 L263.98 637.39 L263.35 637.94 L262.42 638.27 L256.38 639.18 L254.65 639.94 L253.48 641.23 L253.34 642.15 L253.58 643.99 L253.13 644.61 L252.21 646.26 L251.94 646.46 L249.19 648.09 L247.29 648.81 L245.31 649.21 L243.29 649.33 L238.39 648.32 L236.65 647.24 L235.62 646.98 L234.61 647.17 L232.67 647.99 L231.03 648.3 L230.7 648.62 L230.5 648.99 L230.25 649.33 L229.94 649.58 L226.85 650.94 L224.85 651.25 L222.83 651.08 L215.2 648.22 L213.34 647.8 L208.82 647.39 L206.6 647.63 L204.74 648.56 L205.08 648.56 L202.43 649.32 L201.56 649.75 L202.82 649.96 L203.93 650.82 L204.49 652 L204.11 653.17 L203.23 653.53 L195.01 652.03 L188.51 652.92 L186.57 653.84 L184.96 655.12 L182.41 658.59 L181.54 659.44 L180.66 659.8 L179.99 659.94 L179.67 660.31 L179.42 660.81 L178.94 661.34 L178.54 661.55 L177.03 662.15 L176.28 662.67 L175.44 663.46 L174.75 664.41 L174.47 665.39 L173.97 665.22 L172.83 665.52 L170.95 666.35 L167.5 668.89 L166.19 670.66 L166.82 672.18 L166.82 672.54 L166.07 672.75 L164.85 673.53 L164.09 673.7 L163.36 673.59 L162.64 673.32 L161.96 672.95 L159.03 670.74 L158.36 670.05 L157.54 669.61 L150.09 669.83 L149.42 670 L148.64 670.78 L148 670.99 L147.5 670.88 L147.19 670.52 L146.98 670.13 L146.76 669.83 L144.41 668.38 L140.87 664.78 L138.49 663.41 L137.76 662.84 L137.04 661.94 L136.17 661.25 L135.06 661.11 L133.94 661.42 L133.06 662.15 L132.65 661.85 L132.24 661.76 L131.84 661.86 L131.44 662.15 L131.61 661.52 L134.38 657.68 L134.61 657.07 L134.38 655.52 L133.65 653.72 L132.69 652.04 L131.78 650.87 L131.13 650.38 L130.54 650.23 L127.29 650.91 L124.44 650.71 L123.82 650.52 L123.18 649.89 L122.33 648.3 L121.59 647.8 L121.59 647.41 L122.79 647.19 L123.35 646.37 L123.66 645.19 L124.14 643.91 L123.33 644.38 L122.23 646.23 L121.74 646.63 L118.19 646.4 L117.59 646.44 L116.25 646.95 L111.72 647.72 L110.75 648.37 L110.56 648.83 L110.11 648.95 L109.59 648.84 L109.15 648.56 L108.72 647.87 L108.77 647.32 L109.15 646.63 L108.84 644.78 L108.81 644.34 L108.97 643.71 L109.19 643.45 L109.46 643.24 L109.79 642.76 L110.18 641.66 L110.11 640.84 L109.44 638.92 L109.38 637.76 L109.79 637.25 L110.43 636.79 L111.04 635.81 L109.09 632.82 L108.34 632.4 L105.58 631.72 L101.23 631.3 L96.94 631.52 L96.26 631.81 L95.86 632.08 L94.18 632.78 L93.38 633.37 L92.99 633.78 L92.56 634.35 L91.88 635.07 L91.67 635.47 L91.61 636.23 L91.72 636.82 L91.96 637.12 L92.26 637.36 L92.56 637.73 L93.2 640.08 L93.27 640.63 L93.3 641.14 L92.88 644.87 L93.07 646.02 L93.86 646.63 L92.99 646.9 L91.84 646.29 L90.73 645.27 L90.03 644.34 L88.91 642.1 L88.76 641.43 L88.81 641.07 L89.02 640.3 L89.07 639.86 L88.98 639.66 L88.79 639.53 L88.56 639.42 L88.44 639.31 L87.99 637.83 L87.61 637.22 L86.27 636.76 L85.84 636.22 L85.73 635.49 L85.87 634.7 L86.21 634.26 L86.64 634.1 L87.01 633.81 L87.17 632.98 L87.19 632.21 L87.28 631.61 L87.48 631.06 L87.8 630.45 L87.12 630.55 L86.85 630.65 L86.5 630.86 L85.84 629.82 L85.77 629.01 L86.16 628.27 L86.85 627.42 L87.5 626.38 L87.99 624.37 L88.44 623.18 L89.95 621.95 L91.74 622 L93.24 621.76 L93.86 619.7 L93.66 618.63 L92.76 617.18 L92.56 616.45 L92.45 615.35 L91.21 610.4 L90 607.95 L89.74 606.86 L89.32 606.64 L87.17 604.02 L86.4 603.51 L86.03 603.18 L85.87 602.68 L85.87 600.38 L85.75 599.22 L85.43 598.26 L84.28 596.36 L82.95 594.92 L77.93 591.39 L78.39 590.45 L78.12 589.35 L76.95 587.17 L76.34 585.69 L75.22 584.15 L75.08 583.57 L74.63 582.84 L72.5 580.77 L71.71 580.35 L70.75 579.96 L70.11 579.06 L69.59 578.04 L69.04 577.28 L70.23 576.68 L70.92 576.51 L71.41 576.71 L71.77 577.34 L72.03 577.94 L72.35 578.47 L72.88 578.83 L72.67 579.43 L73.01 579.89 L74.28 580.92 L75.14 582.13 L75.75 582.77 L76.34 583 L77.06 582.57 L76.87 581.95 L75.87 580.92 L75.63 580.45 L75.53 579.51 L75.4 579.14 L75.19 579 L74.67 578.94 L74.44 578.83 L73.42 577.8 L73.04 577.26 L72.88 576.71 L73.02 574.31 L72.88 573.49 L72.22 572.41 L71.12 571.87 L69.77 571.75 L68.38 571.98 L68.8 572.85 L69.04 573.14 L68.47 573.28 L67.99 573.52 L67.08 574.25 L66.58 573.66 L66.3 573.09 L66.18 572.57 L66.16 572.18 L65.98 571.7 L65.66 571.21 L65.49 570.59 L65.81 569.74 L65.59 569.3 L65.02 567.7 L64.74 566.47 L64.71 566.02 L64.86 565.55 L65.34 564.96 L65.61 564.28 L65.35 563.64 L64.27 562.19 L64.02 562.04 L63.84 561.83 L63.88 561.35 L64.06 561.28 L64.4 561.36 L64.71 561.38 L64.86 561.16 L65.01 561 L65.72 560.36 L65.98 560.22 L66.36 560.14 L66.45 559.95 L66.46 559.66 L66.62 559.27 L66.65 558.84 L66.61 557.14 L66.76 556.44 L67.4 555.93 L68.5 555.47 L69.62 555.21 L70.31 555.28 L69.97 555.69 L70.51 556.51 L72.88 558.71 L74.88 559.51 L76.66 559.05 L78.21 557.85 L83.84 552.12 L84.92 549.97 L85.59 547.99 L86.67 543.5 L86.85 541.31 L86.63 537.48 L86.36 536.6 L85.8 535.37 L86.07 534.47 L87.17 533 L87.38 530.78 L85.58 523.59 L85.06 517.73 L84.24 515.35 L83.97 514.16 L84.08 511.76 L84.01 510.61 L83.49 509.49 L82.91 508.73 L82.38 507.8 L82.1 507.07 L82.06 506.58 L82.1 506.14 L82.06 505.56 L81.07 501.74 L80.29 499.92 L79.17 498.06 L77.01 495.27 L76.66 494.5 L76.56 494.09 L74.44 490.97 L72.22 488.63 L71.87 487.78 L71.58 486.79 L70.87 485.95 L69.33 484.58 L67.52 481.74 L66.2 480.69 L65.74 479.35 L65.18 476.78 L64.6 476.1 L62.7 474.56 L62.29 473.99 L62.04 473.28 L59.53 469.12 L59.3 468.95 L58.82 467.62 L58.64 467.27 L58.04 466.33 L57.06 463.9 L56.57 462.99 L53.34 458.38 L50.76 453.18 L50.52 452.41 L50.13 450.43 L49.56 448.53 L46.83 444.76 L45.58 442.42 L45.76 440.37 L44.61 439.05 L42.01 434.22 L41.59 432.97 L40.74 431.91 L37.75 426.7 L37.55 426.15 L37.4 424.76 L37.01 423.05 L36.81 422.6 L36.71 421.17 L34.26 416.88 L33.63 415.09 L33.46 412.99 L32.38 408.69 L29.46 401.82 L29.16 399.99 L29.06 399.73 L28.84 399.45 L28.63 399.08 L28.53 398.52 L28.49 397.95 L27.26 393.54 L27.55 393.54 L27.32 392.85 L27.33 391.41 L27.26 390.65 L26.11 387.57 L26.13 387 L25.52 386.49 L25.2 385.34 L25.01 383.31 L23.63 379.5 L23.29 378.91 L21.57 373.62 L21.37 373.28 L20.47 372.29 L20.27 371.77 L20.14 371.52 L19.29 370.49 L18.31 367.28 L18.04 366.79 L17.56 366.28 L17.36 365.82 L17.4 364.6 L17.23 364.09 L16.8 363.29 L16.41 362.06 L16.24 360.81 L16.46 359.94 L15.75 358.74 L12.79 356.1 L12.35 355.43 L11.65 353.38 L11.29 352.66 L9.19 349.72 L6.06 347 L5.56 345.85 L5.09 343.97 L4.83 342.1 L4.98 340.99 L4.79 340.64 L4.39 339.72 L4.31 339.33 L4.14 339.05 L3.75 338.96 L3.31 338.93 L3.02 338.82 L2.02 336.58 L1.26 335.96 L0.09 334.7 L0 334.41 L0.48 334.07 L0.78 333.29 L0.88 332.45 L0.79 331.92 L1.65 331.52 L2.86 330.69 L4.14 330.02 L5.92 329.44 L9.44 325.93 L9.93 325.74 L10.34 326 L10.55 326.6 L10.68 327.27 L10.87 327.76 L11.65 327.85 L12.57 327.05 L13.41 325.92 L13.92 325.02 L14.05 324.13 L14.11 322.92 L14.35 321.87 L15.03 321.41 L15.52 320.98 L15.2 320.01 L14.21 318.49 L13.88 317.68 L13.69 316.6 L13.89 315.66 L14.72 315.25 L15.12 315.44 L15.58 315.78 L16.05 315.95 L16.49 315.61 L16.58 314.95 L16.31 314.32 L15.96 313.79 L15.82 313.41 L16.01 312.92 L16.26 312.72 L17.25 312.73 L17.96 312.56 L17.95 312.18 L17.13 311.12 L17 310.85 L17.1 310.53 L17.38 310.3 L17.57 310.38 L17.76 310.54 L18.54 310.51 L18.78 310.7 L18.98 310.73 L19.32 310.2 L19.67 306.02 L19.83 305.88 L20.62 304.97 L20.91 304.74 L21.27 304.84 L21.74 305.41 L22.2 305.5 L22.76 305.28 L23.42 304.56 L23.96 304.42 L25.2 304.74 L26.75 303.58 L27.28 303.31 L28.2 303.08 L28.67 303.09 L29.19 303.31 L29.84 304.09 L30.37 305.17 L30.98 306.13 L31.89 306.54 L33.05 306.91 L33.48 307.82 L33.47 309.01 L33.34 310.2 L33.57 312.67 L34.55 313.9 L36.04 314.18 L38.99 313.48 L40.19 313.41 L40.72 313.67 L40.91 314.25 L40.97 314.92 L41.15 315.43 L41.57 316.08 L41.71 316.62 L41.76 317.16 L41.94 317.81 L42.26 318.35 L43 319.34 L43.24 319.94 L43.34 321.07 L43.23 322.52 L42.84 323.76 L42.1 324.3 L41.31 324.5 L40.51 325.03 L39.9 325.74 L39.72 326.5 L40.1 327.45 L41.36 329.1 L41.63 330.31 L41.99 331.2 L43.69 331.83 L44.2 333 L43.9 335.08 L43.32 337.28 L43.41 338.88 L45.14 339.15 L47.2 338.66 L49.13 338.43 L50.07 338.19 L50.96 337.77 L51.75 337.6 L52.45 338.1 L52.7 339.22 L52.66 340.52 L52.87 341.6 L53.88 342.05 L55.37 342.48 L55.97 342.44 L56.42 342.23 L57.34 341.59 L57.84 341.36 L59.34 341.23 L67.1 342.96 L68.79 343.67 L70.36 344.68 L73.19 347.05 L74.97 347.98 L78.88 349.36 L79.74 349.38 L81.4 348.8 L85.49 348.2 L86.53 348.27 L88.48 349 L89.62 349.2 L90.53 348.82 L90.89 348.58 L91.4 348.42 L92.3 348.27 L92.56 348.19 L92.96 347.93 L93.22 347.88 L93.43 348 L94 348.53 L94.21 348.64 L95.21 348.32 L96.89 347.38 L105.81 346.07 L115.52 347.49 L116.29 348.22 L117.46 350.09 L117.95 350.66 L118.28 350.77 L119.91 350.98 L120.42 351.16 L120.64 351.38 L121.43 352.41 L123.22 352.31 L125.14 351.67 L127.79 350.26 L128.17 349.87 L128.68 349.03 L128.96 348.83 L130.49 348.7 L131.04 348.36 L131.06 347.72 L129.33 344.71 L129.02 343.55 L129.19 342.44 L130 340.91 L130.53 340.21 L131.12 339.69 L131.79 339.64 L132.9 340.55 L133.39 340.63 L134.07 340.34 L137.84 339.36 L138.79 338.92 L139.6 338.26 L140.08 337.49 L141.42 333.25 L141.71 332.79 L142.15 332.61 L142.45 332.42 L142.84 331.45 L143.09 331.01 L143.5 330.5 L143.78 330.07 L144.08 329.71 L144.56 329.39 L144.97 329.26 L149.64 328.9 L150.44 328.48 L151.36 327.75 L152.41 327.38 L154.66 327.22 L156.02 326.82 L158.1 324.93 L159.32 324.23 L159.84 324.17 L161.35 324.37 L161.83 324.32 L163.27 323.95 L163.35 322.38 L163.35 320.3 L163.35 317.34 L163.35 314.37 L163.35 311.42 L163.34 308.46 L163.34 305.51 L163.34 302.55 L163.34 299.6 L163.34 296.65 L163.34 293.7 L163.34 290.76 L163.34 287.81 L163.34 284.86 L163.33 281.92 L163.33 278.97 L163.33 276.03 L163.33 273.1 L163.33 270.17 L163.33 267.23 L163.33 264.29 L163.33 261.36 L163.32 258.43 L163.32 255.5 L163.32 252.57 L163.32 249.65 L163.32 246.72 L163.32 243.8 L163.32 240.87 L163.32 237.95 L163.32 235.03 L163.32 232.12 L163.32 229.2 L163.31 226.29 L163.31 223.37 L163.31 220.46 L163.31 217.55 L163.31 214.64 L163.31 211.73 L163.31 208.82 L163.3 205.92 L163.3 203.01 L163.3 200.11 L163.3 197.22 L163.3 194.31 L163.3 191.41 L163.29 188.52 L163.29 185.62 L163.29 182.73 L163.29 179.84 L163.29 177.62 L163.29 176.95 L163.29 174.06 L163.29 171.17 L163.29 168.28 L163.29 165.39 L163.29 162.51 L163.29 159.63 L163.29 156.74 L163.29 153.86 L163.29 150.98 L163.29 148.11 L163.28 145.23 L163.28 142.36 L163.28 139.48 L163.28 136.6 L163.28 133.73 Z M581.69 349.74 L579.13 347.11 L577.26 343.8 L576.67 343.08 L576.02 342.52 L576.01 342.51 L575.31 342.08 L574.58 341.8 L574.54 341.79 L573.09 341.53 L572.71 341.23 L571.36 338.67 L570.67 338.09 L568.61 338.04 L568.12 337.29 L567.78 335.12 L567.5 334.08 L567.08 333.2 L566.46 332.45 L565.58 331.8 L564.88 331.89 L562.24 333.7 L561.31 333.92 L554.84 334.35 L553.89 334.75 L552.99 335.66 L551.73 337.83 L550.83 338.65 L549.9 339.01 L548.82 339.15 L547.75 339.04 L546.81 338.62 L546.23 338.68 L543.71 338.94 L543.29 338.77 L542.83 339.43 L542.21 340.2 L540.93 342.1 L540.78 342.4 L538.71 344.61 L536.96 346.97 L536.76 347.39 L536.77 347.8 L536.72 348.11 L536.3 348.24 L535.04 348.24 L534.52 347.97 L534.08 347.41 L533.53 346.9 L532.66 346.79 L531.98 347.18 L531.6 347.88 L531.31 348.72 L530.88 349.52 L529.64 350.08 L524.34 349.72 L524.68 350.61 L524.19 351.02 L523.45 351.28 L523.07 351.7 L523.07 352.44 L523.02 352.86 L522.91 353.15 L522.81 353.32 L522.76 353.48 L522.76 353.87 L522.68 354.09 L522.49 354.08 L522.27 354.01 L522.09 354.07 L521.19 355.37 L520.63 355.99 L520.05 356.25 L519.31 356.45 L519.52 356.94 L520.1 357.54 L520.51 358.07 L520.21 358.12 L519.78 358.34 L519.55 358.43 L519.23 358.07 L518.92 358.43 L519.09 359.41 L519.14 359.71 L518.09 361.69 L515.43 364.97 L515.09 365.16 L514.62 365.34 L514.15 365.62 L513.84 366.09 L513.81 366.61 L514.1 367.85 L514.18 368.46 L513.72 368.86 L513.33 368.98 L511.44 369.61 L510.67 370.1 L510.53 370.53 L510.44 371.77 L510.32 372.25 L509.87 372.87 L509.44 373.1 L509.01 373.25 L508.59 373.59 L508.48 373.96 L508.67 374.27 L508.94 374.6 L509.08 375.02 L509.01 375.69 L508.83 376.01 L508.52 376.25 L506.59 378.37 L506.07 379.2 L505.88 380.16 L505.63 380.39 L504.53 380.34 L504.28 380.53 L504.19 381.15 L503.96 381.71 L503.65 382.18 L503.55 382.29 L503.34 382.52 L501.82 383.42 L500.83 383.84 L499.53 384.11 L498.7 384.56 L498.22 384.74 L496.86 384.89 L495.55 385.42 L495.3 385.59 L493.79 387.18 L493.58 387.33 L493.2 387.17 L493.08 386.84 L492.94 386.56 L492.48 386.57 L492.23 386.8 L491.88 387.66 L491.56 388.06 L491.12 387.43 L490.63 387.43 L490.28 387.93 L490.26 388.79 L489.69 390.12 L490.07 390.3 L490.73 390.84 L491.34 391.19 L491.96 391.74 L493.32 393.79 L493.71 394.59 L493.71 394.6 L493.72 394.6 L497.56 403.78 L498.84 406.84 L499.72 407.89 L501.95 409.78 L502.62 410.87 L503.25 413.41 L503.56 414.17 L504.13 415.06 L504.56 415.24 L505.14 415.1 L506.17 415.1 L506.88 415.3 L507.32 415.66 L507.28 416.19 L506.59 416.9 L505.57 419.44 L505.66 420.98 L506.69 423.88 L506.62 424.72 L507.12 424.78 L507.15 424.79 L508.08 425.05 L508.55 425.12 L508.88 425.07 L509.86 424.66 L510.61 424.67 L510.95 425.02 L511.29 426.34 L511.79 427.16 L512.52 427.77 L514.22 428.55 L514.39 429.16 L514.54 429.69 L515.75 430.89 L516.87 432.48 L517.03 432.96 L517.05 433.44 L517.13 433.93 L517.42 434.38 L520.26 436.55 L522.77 439.43 L524.16 440.32 L525.78 440.83 L527.73 441.09 L528.2 441.01 L529.09 440.57 L529.49 440.51 L530.03 440.69 L530.43 441 L530.79 441.37 L531.23 441.72 L532.16 442.19 L533.14 442.51 L538.63 442.99 L539.75 443.48 L539.76 442.43 L539.64 441.56 L539.61 440.68 L539.88 439.6 L540.18 439.09 L540.56 438.81 L540.96 438.6 L541.33 438.28 L541.7 437.79 L541.86 437.46 L542.65 434.95 L542.71 434.51 L542.56 433.97 L542.02 433.02 L541.92 432.6 L542.28 431.96 L546.23 428.83 L546.85 428.1 L547.17 426.94 L547.05 425.71 L546.5 425.23 L545.82 424.91 L545.31 424.18 L545.41 423.18 L546.13 422.37 L547.11 421.77 L547.96 421.43 L549.32 421.23 L549.77 421.03 L550.09 420.71 L550.67 419.86 L551.1 419.53 L551.83 418.8 L552.62 417.3 L553.01 416.55 L553.93 415.74 L555.05 415.56 L557.3 415.89 L558.45 415.48 L560.46 414.26 L561.22 414.08 L562 414.17 L564.26 415.05 L565.83 415.06 L570 413.46 L573.08 412.8 L576.07 411.56 L581.48 407.99 L583.31 406.84 L586.96 404.57 L587.52 404.32 L588.75 403.95 L589.29 403.69 L589.58 403.23 L589.47 402.7 L588.96 401.67 L588.86 400.91 L588.89 400.44 L588.76 400.06 L588.18 399.6 L587.5 398.64 L587.52 397.35 L587.8 395.94 L587.86 394.74 L587.87 394.6 L588.74 393 L589.33 391.48 L590.08 390.14 L591.43 389.07 L595.01 387.96 L595.53 387.29 L595.52 386.4 L595.6 385.57 L596.36 385.05 L595.69 384.22 L595.37 382.94 L595.38 382.73 L595.39 381.57 L595.73 380.45 L596.71 379.45 L598.02 378.87 L599.4 378.44 L600.63 377.9 L601.16 377.5 L601.55 377.02 L601.76 376.43 L601.73 375.66 L601.82 374.82 L602.68 373.58 L602.85 372.8 L602.7 372.5 L602.08 371.88 L601.88 371.55 L601.83 371.17 L601.87 370.35 L601.83 370.03 L601.36 368.88 L600.06 367.11 L599.55 365.23 L599.2 364.33 L598.56 363.61 L597.83 363.05 L597.31 362.41 L597.08 359.35 L595.66 358.75 L593.8 358.71 L592.27 358.24 L588.44 354.17 L586.84 353.43 L585.79 353.15 L585.17 352.73 L584.9 352.06 L584.89 351.01 L584.46 350.48 L583.46 350 L582.37 349.7 Z M985.34 1414.82 L986.84 1414.38 L988.41 1414.6 L992.71 1415.88 L994.91 1418.46 L996.19 1418.99 L995.68 1420.8 L994.7 1422.46 L993.43 1423.67 L992.04 1424.16 L991.65 1424.07 L990.85 1423.72 L985.7 1423.49 L984.99 1423.65 L983.31 1423.38 L982.53 1422.99 L981.85 1422.29 L981.62 1421.77 L981.35 1420.82 L981.29 1419.92 L982.14 1419.14 L983.15 1417.55 L983.59 1417.19 L983.88 1416.86 L984.87 1415.34 Z M994.57 1401.77 L994.75 1400.28 L996.4 1399.3 L998.5 1399.21 L1000 1400.38 L999.94 1402.35 L998.18 1403.01 L995.97 1402.69 Z "/>
</g>
</svg>
