<svg xmlns="http://www.w3.org/2000/svg" viewBox="0 0 1000 1063.16">
<g fill="#ccc" stroke="#333" stroke-width="0.5" stroke-linejoin="round">
<path fill-rule="evenodd" d="M594.78 0 L599.51 9.39 L606.91 24.04 L608.38 30.46 L612.15 40.18 L626.15 67.9 L637.06 96.96 L638.84 100.12 L644.53 107.17 L646.71 113.09 L673.14 150.93 L683.4 165.88 L695.68 179.51 L697.42 180.94 L705.66 190.64 L706.08 194.73 L706.12 199.65 L707.1 203.82 L712.71 206.95 L714.34 210.3 L718.97 225.4 L721.04 228.9 L723.51 230.39 L725.59 232.54 L732.8 246.74 L737.14 252.2 L738.64 255.2 L739.22 258.38 L740.31 261.47 L747.96 269.89 L750.4 276.8 L752.57 291.88 L755.55 300.16 L763.68 311.5 L764.3 313.88 L763.37 316.18 L761.9 318.37 L760.97 320.51 L760.91 322.43 L762.05 328.65 L763.45 346.37 L764.92 354.55 L770.18 371.24 L770.61 379.4 L768.96 386.95 L765.38 393.81 L762.48 401.93 L762.52 402.26 L763.33 410.03 L765.5 418.12 L766.36 426.28 L765.38 443.1 L764.42 446.72 L759.51 452.66 L757.6 456 L756.76 459.89 L756.09 483.65 L756.64 486.87 L757.6 488.67 L758.66 489.38 L759.51 490.38 L760.43 497.05 L761.6 502.17 L762.88 503.06 L763.73 504.16 L763.14 507.23 L761.86 508.95 L760.21 509.75 L758.65 510.26 L756.01 512.45 L755.86 515.13 L759.2 518.23 L761.6 520.93 L764.13 524.03 L767.35 524.58 L771.42 521.38 L781.5 510.34 L783.44 507.09 L786.05 509.18 L786.64 512.54 L787.76 516.05 L788.58 519.95 L786.11 523.83 L780.39 535.21 L779.96 540.3 L778.26 553.7 L774.15 565.33 L774.38 572.6 L770.17 585.22 L767.07 591.35 L765.72 594.42 L767.04 597.9 L768.5 599.65 L769.56 601.52 L768.96 605.77 L768.62 610.8 L767.55 618.36 L765.94 621.57 L763.33 625.08 L760.93 626.38 L759.89 622.95 L758.96 618.48 L756.91 615.13 L754.7 614.56 L753.38 618.36 L755.55 618.86 L756.84 620.5 L757.46 622.91 L757.6 625.67 L756.91 628.28 L755.28 628.89 L753.46 629.06 L752.2 630.33 L752.43 631.72 L752.63 635.34 L753.28 639.07 L751.8 641.46 L750.46 643.86 L751.78 645.72 L752.84 646.79 L752.62 649.44 L749.36 650.51 L746.29 652.36 L741.88 656.73 L738.16 656.59 L737.35 659.38 L737.08 662.96 L736.14 664.82 L735.07 666.41 L735.96 669.06 L736.02 670.15 L734.22 673.79 L731.7 679.16 L728.88 682.56 L727.36 685.74 L726.29 687.89 L723.84 687.85 L722.03 687.77 L719.8 688.13 L718.16 688.04 L716.43 688.81 L714.54 689.04 L714.39 691.76 L715.65 693.65 L715.86 695.91 L715.05 698.49 L711.5 700.15 L708.63 697.65 L706.89 696.21 L705.6 694.61 L701.44 699.07 L699.55 702.63 L698.94 706.41 L697.65 707.31 L696.89 705.41 L695 703.36 L695.16 705.19 L695.54 709.13 L694.33 709.12 L693.79 707.82 L693.11 707.51 L691.49 708.6 L689.94 709.57 L688.88 708.27 L687.6 703.9 L688.13 699.97 L689.34 694.98 L689.57 692.18 L688.82 691.5 L687.38 693.62 L682.54 702.17 L680.35 702.32 L680.19 698.39 L680.35 694.68 L679.29 694.53 L677.91 697.6 L676.79 702.24 L672.86 701.79 L662.42 701.96 L661.82 698.4 L660.76 696.51 L659.32 701.89 L657.73 702.65 L654.04 700.98 L652.31 697.74 L650.42 697.52 L647.98 699.4 L647.98 690.92 L647.32 690.22 L645.97 690.78 L644.82 692.57 L644.73 695.56 L642.21 693.59 L640.25 690.75 L638.08 688.99 L634.9 690.27 L635.59 687.53 L634.28 683.64 L634.9 682.2 L633.31 677.1 L632.38 676.56 L630.56 678.22 L628.59 681.33 L628.55 683.4 L630.56 687.61 L631.68 692.74 L632.34 694.54 L633.7 696.87 L636.34 700.44 L636.73 702.24 L635.98 704.82 L637.23 704.99 L639.19 705.84 L640.31 706.14 L638.92 707.07 L637.53 707.44 L634.31 707.45 L632.62 707.06 L632.15 706.03 L632.07 704.74 L631.54 703.5 L630.02 701.89 L628.93 701 L620.38 697.98 L617.98 697.83 L612.73 698.84 L611.3 699.55 L611.4 700.91 L613.23 703.5 L610.29 704.09 L604.86 706.83 L598.62 708.53 L597.81 710.98 L597.5 713.65 L595.81 715.39 L595.81 716.71 L611.63 708.3 L614.31 708.11 L614.86 711.52 L615.81 714.02 L616.13 716.24 L614.86 718.81 L612.83 719.95 L609.73 720.47 L606.64 720.32 L604.59 719.47 L603.51 721.36 L604.25 722.28 L605.68 723.11 L606.75 724.77 L606.91 725.77 L606.96 727.22 L606.75 731.25 L605.57 739.17 L607.02 740.56 L608.42 740.09 L609.51 738.55 L610.01 736.65 L612.15 739.17 L609.94 743.13 L605.94 748.35 L602.39 749.42 L597.63 749.1 L597.71 746.14 L600.77 746.1 L602.07 745.87 L602.86 744.57 L593.01 743.46 L590.96 742.64 L588.69 739.48 L588.37 737.89 L589.99 736.87 L593.64 735.45 L590.04 728.21 L587.45 730.78 L584.84 735.81 L581.17 736.05 L577.81 731.53 L576.06 730.41 L572.46 730.04 L570.87 731 L569.99 733.34 L569.67 736.3 L569.75 739.17 L566.39 738.6 L559.03 738.93 L556.12 737.31 L555.79 736.26 L555.75 733.43 L555.58 732.68 L554.84 732.49 L553.08 732.82 L550.79 732.29 L547.06 731.97 L545.75 731.25 L545.01 729.7 L545.09 728.18 L545.49 726.73 L545.75 725.43 L545.49 711.08 L545.75 708.78 L546.21 707.7 L547.03 706.29 L547.72 704.43 L547.92 702.05 L545.44 705.02 L543.4 708.49 L540.88 711.09 L537.08 711.42 L539.98 718.28 L538.01 719.62 L533.71 719.52 L529.61 722.12 L527.94 717.47 L526.94 715.58 L525.15 714.2 L524.69 720.43 L522.99 725.36 L519.67 728.34 L515.44 728.72 L513.75 728.05 L512.24 727.66 L510.99 727.8 L510.02 728.72 L507.66 726.76 L506.01 726.32 L504.96 726.02 L498.54 726.09 L496.39 725.73 L495.54 724.74 L495.15 723.27 L494.23 721.4 L492.41 719.95 L491.98 721.43 L492.25 723.75 L492.6 724.77 L491.45 728.33 L490.82 729.55 L489.35 731.25 L483.35 736.05 L480.02 737.54 L477.63 735.48 L474.64 729.38 L472.16 728.39 L470.43 730.86 L469.58 734.73 L469.76 737.96 L471.23 741.38 L473.68 745.8 L476.5 749.65 L479.01 751.27 L480.79 753.58 L482.46 754.39 L484.43 753.14 L489.35 748.52 L492.75 748.07 L495.66 748.63 L498.37 748.81 L501.35 747.21 L501.17 751.02 L500.65 753.73 L499.08 759.19 L497.26 768.82 L495.94 771.05 L490.37 772.92 L485.96 770.71 L482.42 769.95 L479.52 776.33 L478.59 775.71 L478.36 775.77 L478.14 776.12 L477.35 776.33 L478.59 778.87 L479.52 781.58 L480.68 790.19 L479.96 791.79 L478.32 790.88 L475.72 788.15 L471.93 787.68 L469.1 786.12 L467.28 783.28 L466.51 778.96 L467.48 774.88 L469.54 770.86 L471.04 767.06 L470.3 763.8 L469.03 761.99 L466.51 756.55 L465.85 756.12 L464.96 756.1 L464.03 755.96 L463.26 755.12 L463.18 754.13 L463.45 752.97 L463.92 752.23 L461.52 747.17 L461.1 745.28 L461.25 744.14 L461.94 742.26 L462.1 741.27 L461.75 740.18 L461.01 739.33 L460.28 739.09 L459.93 739.89 L459.39 740.32 L456.68 747.21 L455.63 748.67 L455.09 749.05 L454.28 749.14 L448.87 751.05 L445.72 751.45 L438.87 751.27 L436.29 752.04 L438.38 753.76 L442.47 755.56 L445.84 756.55 L445.84 757.76 L439.1 759.92 L435.7 761.83 L435.12 764.46 L436.47 765.57 L439.45 764.37 L441.04 765.05 L442.16 766.89 L441.83 767.57 L440.97 767.79 L440.54 768.3 L442.74 775.98 L447.32 780.09 L452.28 783.28 L455.67 788.15 L454.05 787.9 L451.26 787.89 L450.07 788.15 L456.88 790.78 L457.76 792.91 L458.21 796.93 L456.76 798.38 L455.13 799.77 L452.03 799.62 L450.07 800.12 L442.86 795.62 L440.54 794.86 L438.48 795.26 L435.93 796.43 L433.76 797.98 L432.85 799.46 L433.22 800.07 L435.12 804.06 L437.34 804.55 L438.68 805.44 L444.71 803.87 L448.01 806.68 L440.49 813.59 L437.82 817.39 L434.91 816.05 L430.34 819.52 L430.82 822.88 L432.85 825.08 L428.46 825.1 L421.98 816.54 L419.75 811.94 L413.8 805.5 L411.98 805.91 L405.7 809.2 L406.33 811.18 L406.78 811.94 L404.2 811.05 L401.71 810.56 L399.58 809.44 L398.11 806.68 L397.92 803.85 L398.92 802.21 L402.45 800.12 L403.58 799.1 L406.78 794.86 L408.76 790.71 L409.89 789.28 L412.2 788.15 L412.05 791.37 L411.27 794.49 L408.95 800.12 L413.59 799.81 L417.48 798.39 L419.8 795.18 L419.75 789.49 L418.82 787.26 L417.59 785.99 L416.65 784.5 L416.51 781.58 L417.36 780.05 L421.93 774.99 L423.58 775.86 L424.67 777.04 L424.94 778.55 L424.1 780.38 L425.05 782.9 L426.41 784.66 L428.23 785.25 L430.68 784.34 L431.71 782.99 L433.88 778.33 L435.12 776.33 L432.91 773.04 L432.06 769.6 L430.94 768.04 L427.93 770.39 L424.47 771.86 L421.61 769.47 L417.7 763.14 L415.45 766.68 L412.25 774.91 L410.03 777.63 L407.75 778.55 L405.81 778.45 L401.84 777.63 L399.97 778.29 L398.23 779.89 L395.36 783.68 L394.09 784.76 L388.28 788.15 L385.14 790.55 L383.13 791.72 L381.2 792.23 L380 792.85 L379.72 794.44 L379.8 796.57 L379.5 798.81 L378.46 800.4 L376.99 802.12 L376.25 804.17 L377.44 806.68 L368.69 815.29 L368.98 823.24 L367.49 824.57 L363.27 822.45 L361.88 824.14 L361.22 826.02 L361.3 828.09 L362.19 830.33 L360.14 829.68 L355.7 826.51 L349.61 824.73 L348.21 823.89 L346.98 820.2 L347.63 810.45 L347.03 806.68 L347.91 804.28 L347.71 801.31 L346.67 798.72 L344.86 797.37 L343.14 797.86 L341.41 799.49 L340.09 801.57 L339.56 803.41 L340.2 806.07 L341.21 808.39 L341.26 810.01 L336.37 811.65 L337 813.99 L340.55 818.51 L334.47 822.04 L332.19 824.14 L334.55 825.08 L335.09 825.51 L335.25 826.45 L335.07 827.39 L334.55 827.81 L333.58 827.62 L332.11 826.73 L331.34 826.51 L329.25 826.83 L328.82 827.71 L328.8 829.14 L327.98 831.04 L326.74 831.88 L322.05 833.07 L320.28 834.56 L319.65 835.81 L315.79 848.78 L315.47 850.64 L315.47 852.85 L311.6 852.03 L304.29 854.43 L302.46 854.06 L302.24 851.79 L303.74 847.18 L303.44 845 L302 843.75 L300 843.36 L295.85 843.57 L295.85 842.37 L296.69 841.26 L296.96 840.5 L297.27 837.47 L297.82 837.37 L298.53 837.6 L299.21 837.13 L301.45 833.05 L301.88 831.09 L301.27 829.13 L300.49 828.5 L299.33 828.09 L296.96 827.81 L295.26 827.34 L295.03 826.3 L295.49 825.36 L295.85 825.08 L295.92 822.62 L296.51 820.25 L296.23 818.98 L293.69 819.82 L294.38 815.18 L297.54 812.85 L301.76 812.04 L305.71 811.94 L304.99 810.45 L304.01 809.31 L302.77 808.51 L301.27 808 L303.78 806.24 L305.33 804.19 L305.38 802.39 L303.44 801.31 L302.73 801.6 L301.3 803.38 L300.29 804.06 L298.98 804.05 L296.93 802.78 L295.85 802.75 L294.89 803.63 L294.23 804.94 L293.69 806.68 L292.28 806.99 L290.93 806.95 L289.38 806.68 L285.98 806.74 L284.13 807.07 L281.79 808 L281.49 804.94 L280.14 803.17 L276.37 801.31 L276.42 800.7 L275.64 799.15 L274.68 798.22 L274.2 799.46 L273.74 800.19 L272.62 800.84 L271.34 801.1 L270.33 800.71 L267.04 797.56 L266.63 797.37 L266.09 795.43 L266.36 794.87 L267 794.61 L267.62 793.55 L268.25 794.45 L269.84 794.47 L270.99 793.55 L270.33 791.57 L266.09 789.49 L262.8 787.07 L262.53 781.52 L263.91 775.34 L265.57 771.05 L265.74 769.59 L265.61 767.8 L265.84 766.29 L267.13 765.67 L268.32 765.78 L269.56 766.14 L270.49 766.77 L271.53 769.07 L276.37 776.33 L274.86 778.32 L274.4 780.25 L274.67 782.22 L275.18 784.34 L278.46 793.55 L280.44 794.73 L288.29 796.05 L291.66 798.38 L293.48 798.21 L294.77 794.86 L292.99 795.13 L292.05 794.66 L288.78 793.95 L287.25 791.54 L285.23 789.52 L285.79 785.1 L283.7 785.48 L282.68 788.21 L281.04 788.35 L280.04 784.75 L279.55 779.94 L280.76 777.2 L279.84 773.83 L284.18 773.4 L290.83 774.85 L291.69 776.39 L291.27 778.9 L291.31 779.68 L291.25 780.42 L291.62 781.58 L293.27 782.65 L294.23 783.95 L296.3 785.3 L299.15 786.43 L300.87 788.1 L303.08 789.69 L304.75 790.79 L305.44 789.94 L302.12 785.55 L304.09 785.12 L307.02 786.81 L310.8 788.88 L315.37 790.34 L318.69 789.49 L315.35 788.92 L312.64 787.21 L307.88 783.02 L309.04 781.58 L305.61 779.07 L300.42 772.42 L297.54 771.05 L293.6 770.26 L288.91 770.56 L285.67 768.46 L281.68 769.54 L278.01 768.33 L277.53 766.5 L279.8 763.66 L282.02 762.75 L286.74 763.49 L292.77 760.79 L300.02 766.14 L302.46 765.67 L303.08 766.09 L303.47 766.48 L303.89 766.82 L304.63 767.1 L303.93 763.39 L304.24 760 L306.14 757.51 L310.02 756.55 L317.29 758.72 L321 759 L319.88 756.55 L322.33 755.31 L323.65 755.04 L325.3 755.12 L322.94 752.41 L319.34 751.75 L311.11 752.48 L311.73 750.61 L311.52 749.34 L311.11 748.02 L311.11 746.01 L311.69 744.73 L312.52 743.79 L313.22 742.61 L313.27 740.6 L312 737.75 L309.82 737.09 L307.45 738.2 L305.71 740.6 L305.52 742.21 L306.56 745.46 L306.8 747.21 L306.53 747.47 L304.63 751.27 L302.85 757.86 L301.2 760.11 L298.05 760.39 L298.05 759.94 L297.05 759.19 L297.7 758.16 L298.55 756.15 L299.21 755.12 L297.05 754.02 L295.61 754.67 L294.22 755.89 L292.13 756.55 L287.91 755.6 L286.56 756.24 L286.3 758.23 L284.13 758.2 L280.71 759.33 L279.04 758.48 L278.5 756.43 L279.64 754.51 L282.87 751.27 L284.05 749.5 L284.71 748.1 L284.98 746.79 L285.04 745.28 L284.62 742.4 L285.16 740.97 L287.21 739.17 L285.24 737.61 L283.51 734.37 L282.56 730.59 L282.87 727.41 L285.08 725.38 L288.07 723.32 L289 721.62 L285.04 720.68 L283.24 721.01 L282.18 721.93 L281.33 722.89 L280.13 723.32 L278.58 724.12 L278.81 726.01 L279.58 728.23 L279.64 730.04 L277.42 732.06 L274.55 732.26 L271.78 731.35 L269.79 730.04 L271.3 729 L271.96 728.72 L270.56 727.72 L269.38 726.51 L268.4 725.07 L267.62 723.32 L269.44 722.39 L271.22 722.48 L275.18 723.32 L274.71 719.17 L279.13 714.76 L277.96 710.71 L273.44 704.44 L270.65 701.89 L267.62 700.85 L268.87 705.2 L267.78 707.69 L265.53 707.77 L263.29 704.82 L264.77 702.75 L260.69 697.33 L260.13 694.11 L262.41 691.45 L265.65 691.02 L268.53 692.49 L269.79 695.56 L271.8 694.27 L272.93 692.04 L274.2 687.61 L275.33 689.82 L275.53 691.68 L275.11 695.26 L274.4 697.08 L274.2 698.2 L274.51 699.35 L275.14 699.35 L275.88 699.07 L276.37 699.4 L277 701.96 L277.16 703.05 L277.74 703.68 L279.64 704.82 L281.17 705.36 L283.84 705.46 L285.04 706.14 L284.13 708.35 L284.38 710.48 L285.52 712.46 L287.21 714.2 L291.21 705.13 L291.62 702.05 L291.54 698.6 L290.77 697.36 L287.79 696.61 L286.53 695.9 L285.48 694.84 L283.85 690.48 L278.65 684.4 L277.45 681.6 L277.8 680.65 L278.54 679.85 L279.29 678.8 L279.64 677.01 L277.96 675.83 L277.14 674.29 L277.45 671.6 L275.42 672.41 L273.31 672.74 L268.8 672.8 L270.56 670.61 L273.47 669.94 L276.76 669.76 L279.64 669.06 L278.69 668.69 L278.19 668.25 L277.61 667.86 L276.37 667.62 L277.14 665.86 L278.07 664.84 L279.09 664.05 L280.13 662.92 L280.67 661.45 L280.41 660.18 L279.91 658.96 L279.64 657.61 L280.18 654.58 L281.56 651.59 L285.04 646.27 L285.97 647.24 L288.29 650.26 L291.09 651.11 L292.51 651.02 L292.13 649.59 L286.9 643.64 L286.13 641.57 L287.29 636.97 L290.01 631.28 L294.31 621.23 L297.93 616.01 L303.1 614.16 L308.99 612.94 L314.03 612.67 L316.36 610.8 L318.59 607.58 L321.75 606.77 L324.58 609.95 L327.48 613.54 L329.61 614.25 L327.54 606.97 L326.07 603.66 L323.67 602.28 L301.18 605.96 L293.34 601.07 L293.82 595.83 L293.95 593.73 L297.66 591.88 L300.9 588.67 L303.9 585.23 L308.66 582.46 L314.5 579.23 L318.93 573.04 L319.61 567.2 L322.04 565.75 L323.84 564.61 L324.8 563.78 L330.49 563.2 L336.05 563.89 L339.58 566.62 L342.11 567.25 L343.8 570.18 L344.46 568.59 L345 566.38 L345.23 564.08 L343.12 562.39 L341.66 561.32 L338.63 559.82 L335.18 557.47 L332.38 555.37 L330.91 554.62 L331.34 552.93 L332.65 551.12 L333.97 550.04 L335.42 549.7 L344.27 550.28 L346.2 550.12 L347.63 549.37 L348.6 547.61 L348.96 546.17 L349.72 545.17 L351.91 544.8 L352.6 544.16 L351.78 542.73 L350.09 541.25 L348.21 540.56 L347.71 540.96 L336.06 545.67 L332.15 545.86 L324.47 545.36 L316.89 544.76 L316.82 541.39 L316.34 536.75 L314.88 535.48 L310.15 533.85 L303.17 534.95 L302.49 529.04 L316.86 527.49 L324.67 526.52 L332.58 526.05 L335.13 524.51 L337.85 525.31 L341.18 523.6 L347.03 519.16 L354.45 516.2 L357.58 513.95 L357.87 511.12 L348.58 513.99 L345.31 514.99 L342.11 517.2 L339.43 519.79 L336.46 521.22 L332.92 521.81 L329.61 523.28 L327.2 522.1 L326.38 520.74 L326.12 518.94 L325.3 516.48 L323.98 514.35 L321.31 510.83 L319.88 508.44 L322.09 506.65 L321.05 505.42 L318.89 504.51 L316.9 503.85 L313.27 497.61 L310.49 496.39 L308.38 497.61 L307.38 497.61 L307.3 495.44 L303.72 493.15 L300.62 493.64 L299.66 497.33 L299.13 498.6 L298.05 497.61 L298.68 491.87 L304.06 489.14 L308.82 487.63 L315.47 489.55 L313.12 485.67 L311.79 484.14 L310.02 482.85 L308.96 482.6 L307.7 483.34 L306.8 482.85 L305.61 481.55 L304.63 480.16 L307.96 470.99 L309.87 466.95 L312.19 465.41 L310.43 463.25 L303.7 461.19 L301.27 459.9 L303.66 457.69 L310.72 455.97 L312.19 453.92 L311.17 451.31 L308.67 450.65 L303.44 450.62 L302.36 449.87 L300.49 447.59 L299.21 446.46 L299.21 445.12 L301.27 445.12 L298.9 440.71 L301.77 439.12 L305.04 438.12 L308.09 433.67 L314.62 431.85 L317.71 430.19 L308.46 430.19 L306.23 431.47 L302.81 436.57 L300.29 437.05 L298.72 435.13 L297.27 431.49 L296.36 427.75 L296.46 425.55 L299.76 421.67 L301.3 419.28 L300.8 418.2 L297.76 419.3 L296.38 418.01 L295.14 417.18 L294.39 417.03 L293.65 415.21 L294.34 413.56 L294.21 411.75 L293.41 408.36 L292.45 406.92 L292.38 406.09 L294.57 405.95 L297.74 404.48 L301.04 404.59 L301.29 402.18 L302.24 400.05 L300.95 398.34 L299.07 397.95 L296.52 395.42 L298.13 393.11 L300.36 391.31 L298.86 388.57 L295.05 387.85 L294.28 384.55 L295.5 382.12 L299.21 381.53 L297.08 379.1 L296.34 377.87 L295.85 376.13 L294.53 377.27 L292.28 379.73 L289.76 380.8 L289.26 382.2 L289.35 383.6 L290.47 385.32 L290.67 388.67 L289.5 392.52 L290.2 397.7 L288.51 402.12 L287.08 403.92 L284.14 401.63 L281.08 401.49 L278.03 399.48 L278.79 388.81 L279.73 384.95 L277.91 384.08 L278.46 379.07 L276.76 377.02 L274.2 377.47 L272.77 380.05 L272.38 383.21 L271.24 385.53 L267.62 385.58 L269.11 388.63 L272 393.25 L273.04 396.51 L271.3 397.99 L271.53 399.62 L274.2 403.24 L271.78 403.73 L269.73 404.9 L268.01 406.59 L266.63 408.64 L266.65 407.19 L266.47 405.72 L266.11 404.39 L265.57 403.24 L267.75 398.42 L263.09 390.77 L264.49 386.93 L263.29 381.53 L260.36 383.17 L256.16 388.48 L253.07 389.63 L251.25 389.99 L249.62 390.64 L248 390.75 L246.07 389.63 L245.61 388.71 L244.95 386.87 L244.71 385.05 L245.48 384.23 L252.02 384.3 L253.69 383.16 L253.65 380.18 L251.95 377.07 L249.51 375.87 L246.95 375.12 L244.9 373.43 L244.09 375.8 L243.62 380.72 L242.73 383.01 L240.87 384.7 L240.25 383.11 L240.45 378.15 L240.14 373.33 L240.58 372 L244.64 366.82 L245.44 365.02 L246.07 362.49 L246.58 364.41 L247.26 366.13 L248.11 367.76 L249.21 369.37 L250.05 368.58 L251.09 368.66 L252.29 369.08 L253.65 369.37 L251.98 367.02 L250.29 363.97 L254.81 365.33 L256.67 364.84 L257.87 362.49 L253.82 362.2 L251.33 361.07 L251.03 358.6 L253.65 354.38 L250.06 351.4 L250.29 348.65 L253.03 346.42 L256.9 345.02 L255.89 349.86 L256.28 351.2 L258.46 351.67 L262.4 351.6 L263.45 350.86 L264.49 349.08 L264.77 344.62 L264.37 338.62 L265.11 333.73 L268.8 332.59 L268.32 335.33 L268.44 339.62 L269.13 343.96 L271.11 349.18 L270.14 351.02 L268.59 352.66 L267.62 354.38 L267.67 356.2 L268.67 359.12 L268.8 359.91 L267.93 360.85 L265.08 362.72 L264.49 363.23 L264.64 364.94 L265.16 366.74 L266 367.8 L267.13 367.28 L269.8 364.81 L271.8 364.75 L276.37 367.9 L273.09 360.79 L271.93 356.36 L273.62 354.38 L276.18 357.65 L277.74 358.67 L278.46 356.52 L279.13 355.86 L280.78 355.19 L283.96 354.38 L283.96 353.15 L282.69 352.95 L279.64 351.67 L279.64 350.44 L283.45 349.54 L285.7 345.89 L286.28 341.43 L285.04 338.14 L283.66 337.68 L279.51 337.61 L277.45 336.78 L275.92 334.9 L275.42 333.06 L276.18 332.42 L278.46 334.07 L279.51 331 L278.38 329.17 L275.94 328.43 L273.04 328.65 L274.22 327.12 L275.79 326.02 L277.49 325.73 L279.04 326.61 L280.55 327.77 L281.88 328.04 L282.49 327.43 L281.79 325.93 L281.79 324.45 L287.63 324.36 L290.43 325.34 L291.62 327.97 L290.82 329.59 L289.3 331.31 L288.37 333.56 L289.38 336.78 L290.77 335.38 L292.56 334.4 L294.11 334.44 L294.77 336.1 L294.95 337.49 L295.69 338.75 L295.85 340.1 L295.57 340.62 L294.14 342.33 L293.69 343.56 L293.69 352.41 L294.22 354.98 L295.38 356.77 L296.54 357.45 L297.05 356.52 L297.7 351.59 L300.6 342.12 L301.27 337.45 L302.13 336.36 L304.05 337.66 L306.8 340.72 L307.92 342.86 L308.73 344.85 L309.93 346.15 L312.19 346.25 L312.19 345.02 L311.05 343.52 L309.67 339.47 L308.46 337.45 L298.74 327.17 L298.05 326.61 L298.59 324.47 L299.94 324.71 L301.57 326.25 L304.1 329.41 L305.44 330.61 L307.07 331.35 L309.04 331.36 L310.53 330.49 L310.67 329.12 L309.58 327.85 L307.34 327.29 L304.32 325.83 L301.03 322.76 L299.55 318.17 L299.21 315.09 L302.11 315.01 L304.64 316.23 L306.91 318.23 L310.09 320.5 L313.12 322.6 L314.36 323.87 L316.76 325.51 L319.08 326.79 L320.67 329.5 L319.92 332.18 L318.38 334 L318.69 335.42 L320.27 338.44 L320.46 340.3 L319.88 343.56 L321.62 342.35 L322.32 340.88 L322.74 339.23 L322.14 334.36 L322.79 332.75 L323.79 331.06 L325.26 328.3 L327.88 327.07 L330.33 327.05 L333.08 327.4 L336.12 328.51 L339.96 329.55 L342.72 331.36 L346.06 334.8 L346.29 339.04 L343.8 347.61 L345.7 346.35 L348.68 342.5 L350.31 342.2 L351.44 343.83 L352.1 346.75 L352.45 352.41 L352.28 353.62 L351.54 356.32 L351.39 357.88 L351.7 359.51 L353.11 361.88 L354.45 368.04 L354 369.81 L351.39 370.6 L351.87 372.27 L352.49 373.41 L353.4 374.18 L354.72 374.78 L355.65 370.34 L357.21 367.69 L358.01 364.87 L356.69 359.91 L359.91 360.85 L363.27 361.26 L357.83 355.22 L356.2 351.89 L359.44 350.44 L362.36 349.95 L369.25 347.17 L374.32 343.3 L376.7 342.17 L378.42 340.23 L379.5 335.42 L379.2 334.56 L377.72 333.01 L377.44 332.59 L378.29 331.8 L379.14 331.69 L379.96 331.72 L382.16 330.49 L383.57 330.28 L384.61 329.59 L385.03 327.29 L375.54 329.95 L374.11 331.98 L374.61 338.12 L373.47 339.5 L369.78 340.72 L364.52 339.98 L358.29 336.34 L352.67 330.8 L350.53 325.5 L360.02 324.45 L360.02 323.22 L359.36 322.9 L357.87 321.75 L359.65 321.52 L361.34 321.62 L362.89 322.15 L364.25 323.22 L363.58 319.44 L361.41 316.06 L359.84 312.2 L361 306.96 L359.21 306.15 L357.83 307.99 L356.98 311.15 L356.69 314.34 L355.96 317.81 L354.45 318.61 L352.95 317.11 L349.92 317.74 L346.86 318.52 L339.56 316.32 L339.61 314.07 L338.92 312.1 L339.49 309.42 L339.18 306.01 L341.02 302.64 L343.21 299.63 L345.73 298.41 L348.43 297.38 L352.45 297.32 L356.73 296.15 L357.62 294.82 L357.87 291.14 L356.89 290.42 L354.68 291.62 L351.39 294.48 L349.34 294.06 L347.83 293.17 L347.01 291.6 L347.03 289.17 L343.26 291.1 L340.2 293.28 L334.55 299.42 L333.09 300.58 L331.26 301.24 L329.56 301.18 L328.52 300.16 L328.59 298.34 L329.56 296.55 L331.89 293.25 L327.27 294.32 L325.8 293.86 L325.3 291.14 L326.15 289.12 L328.09 287.98 L330.29 287.23 L331.89 286.33 L333.82 283.7 L333.31 283.02 L329.07 283.61 L327.66 282.74 L326.55 280.6 L325.49 277.93 L324.22 275.45 L324.92 275.24 L325.38 274.93 L326.38 273.97 L327.54 274.86 L329.3 274.77 L332.38 273.97 L334.9 274.67 L337 275.97 L339.08 276.65 L341.52 275.45 L341.32 277.67 L341.52 279.82 L342.29 281.49 L343.8 282.25 L345.47 281.59 L346.24 279.72 L347.03 275.45 L349.7 271.44 L351.89 271.75 L354.37 273.25 L357.87 272.74 L357.12 271.11 L356.15 269.9 L354.92 269.09 L353.44 268.65 L351.24 268.74 L350.23 267.22 L347.86 266.79 L345.95 267.39 L344.05 267.28 L341.05 266.69 L336.08 265.11 L329.18 259.86 L328.82 257.56 L331.89 253.09 L333.98 250.97 L333.52 249.62 L325.21 248.56 L321.34 253.5 L317.34 250.44 L318.97 246.81 L321.07 243.64 L319.75 241.4 L316.91 239.86 L314.31 238.48 L314.68 234.83 L314.16 231.96 L315.7 229.28 L320.25 227.91 L321.61 227.21 L321.95 225.55 L319.81 224.96 L319.23 226.7 L315.97 227.06 L315.12 225.06 L314.77 221.41 L315.55 216.57 L314.77 214.81 L313.54 211.85 L312.13 209.53 L310.5 206.73 L308.69 204.95 L308.65 202.25 L308 198.21 L306.29 191.91 L304.01 175.43 L304.63 172.72 L306.73 172.33 L315.47 175.47 L318.25 174.86 L320.58 173.77 L322.64 173.36 L324.76 174.78 L325.54 177.15 L325.85 180.84 L325.62 184.63 L324.76 187.23 L324.69 191.92 L329.56 196.01 L335.72 198.61 L339.56 198.84 L336.58 195.75 L327.44 189.15 L330.1 182.04 L330.89 177.78 L330.22 174.78 L328.72 171.64 L328.59 169.92 L328.41 167.63 L329.13 163.6 L330.8 160.39 L329.61 158.9 L328.05 159.12 L325.64 160.77 L324.54 143.49 L325.38 138.7 L327.29 137.31 L330.22 136.98 L334.31 135.43 L340.62 130.39 L354.16 109.65 L356.93 106.83 L363.04 102.08 L365.66 99.05 L368.88 91.07 L371.03 85.73 L372.99 83.23 L373.92 82.05 L382.61 74.87 L392.71 68.53 L403.34 64.21 L413.56 63.11 L418.61 63.65 L438.16 61.93 L453.19 66.5 L457.97 66.06 L467.29 63.23 L497.87 60.55 L499.18 61.44 L501.2 64.37 L503.15 66.34 L505.33 66.9 L515.81 64.7 L532.44 65.67 L543.24 64.81 L554.12 60.93 L564.25 54.37 L572.69 45.5 L576.36 40.24 L579.42 34.63 L581.49 28.38 L582.18 21.19 L580.83 14.26 L580.49 10.72 L581.49 8.1 L585.81 4.67 Z M284.09 433.08 L285.29 436.72 L287.43 440.03 L288.33 443.1 L286.82 442.4 L279.78 442.8 L277.49 442.43 L277.06 439.48 L277.83 438.44 L279.04 437.31 L279.69 435.57 L275.91 437.96 L274.14 437.11 L274.63 434.16 L277.49 430.19 L276.41 428.97 L274.24 431.54 L273.51 429.77 L271.84 430.66 L272.71 425.93 L272.1 418.7 L271.37 414.33 L269.73 408.82 L271.1 407.02 L273.91 404.41 L276.93 403.37 L279.04 406.76 L279.33 407.97 L278.64 409.42 L277.43 410.39 L277.57 411.74 L280.24 417.8 L280.67 419.73 L279.97 421.33 L280.79 422.75 L282.59 423.82 L284 426.28 L280.67 426.28 L280.67 427.5 L281.75 427.71 L284 428.97 L283.82 430.22 L283.66 431.19 Z M266.63 165.85 L269.75 165.8 L272.65 166.26 L274.13 167.92 L273.08 171.48 L270.27 173.92 L266.78 174.14 L260.18 172.72 L258.72 173.29 L256.94 174.24 L255.4 174.28 L254.77 172.1 L255.12 171.42 L256.94 165.88 L258.89 163.99 L261.12 163.38 L263.66 164.04 Z M369.81 1009.94 L371.01 1012.41 L370.28 1013.25 L368.74 1013.7 L367.65 1015.01 L367.72 1016.12 L368.73 1017.88 L368.73 1018.9 L368.19 1019.92 L366.83 1021.71 L366.56 1022.27 L363.7 1025.58 L358.32 1029.88 L356.64 1033.47 L354.26 1037.66 L354.15 1039.34 L353.09 1041.81 L349.18 1042.26 L347.67 1043.06 L343.51 1042.69 L337.43 1047.5 L321.4 1050.45 L316.04 1055.01 L309.48 1056.47 L302.45 1055.76 L294.42 1057.26 L287.75 1055.25 L272.68 1055.47 L267.98 1057.67 L265.18 1062.63 L262.63 1063.16 L260.07 1061.94 L256.46 1056.09 L251.66 1054.45 L246.99 1049.56 L245.36 1043.6 L248.19 1035.88 L250.86 1031.09 L252.51 1029.41 L258.02 1026.14 L262.73 1017.95 L267.06 1016.84 L269.06 1012.51 L276.48 1009.95 L292.65 1005.31 L296.7 1001.81 L312.16 1000.19 L322.68 995.6 L325.2 996.31 L338.02 994.24 L345.45 993.63 L350.36 994.46 L352.24 997.28 L354.58 999.11 L362.23 1002.15 L364.55 1004.51 L366.11 1010.2 L367.65 1012.43 L368.38 1011.57 L369.39 1010.74 Z M405.8 817.64 L410.76 817.05 L413.34 817.25 L415.5 818.3 L417.23 821.42 L416.72 825 L414.63 827.92 L411.7 829.13 L405.16 830.33 L402.63 829.97 L400.77 829.06 L396.98 826.51 L396.98 825.08 L397.84 824.01 L397.99 823.12 L397.38 822.26 L395.89 821.26 L398.09 819.64 L400.61 818.6 Z M280.07 814.81 L280.32 817.45 L279.89 820.41 L279.04 823.28 L275.92 829.97 L274.65 832.01 L273.08 833.07 L272.81 832.47 L270.1 829.91 L268.85 829.13 L268.85 830.33 L268.2 833.41 L253.11 841.65 L251.29 842.28 L244.62 842.84 L242.77 842.37 L242.42 840.7 L243.31 839.29 L244.49 838.12 L244.94 837.13 L244.09 835.95 L239.52 833.07 L239.52 837.13 L236.19 833.2 L238.16 826.78 L242.68 821.59 L247.11 821.26 L248.54 817.1 L249.47 815.62 L250.94 813.98 L252.64 813.04 L254.15 812.78 L255.3 811.93 L255.74 809.2 L257.6 811.49 L260.11 811.75 L262.36 810.27 L263.33 807.34 L262.11 804.93 L258.04 801.71 L259.09 800.12 L261.66 799.93 L264.28 801.36 L266.55 803.17 L268.24 804.06 L268.63 804.6 L269.09 805.82 L269.85 807.14 L270.91 808 L271.64 807.76 L275.22 805.5 L275.36 807.17 Z M502.37 778.96 L504.02 779.39 L505.46 781.68 L506.6 784.5 L507.94 789.33 L508.08 792.14 L507.61 794.88 L506.46 797.53 L504.87 799.16 L503.09 799.3 L501.31 798.34 L495.7 792.62 L495.04 790.4 L495.99 786.85 L496.69 785.93 L499.66 783.68 L500.19 782.52 L501.39 777.63 L498.99 775.07 L499.27 773.51 L501 772.71 L502.97 772.48 L504.68 773.25 L505.1 775.05 L504.29 777.18 Z M218.07 773.41 L219.97 775.13 L220.46 775.93 L220.67 777.41 L220.32 778.92 L219.66 780.33 L217.26 783.57 L216.15 784.39 L215.06 784.48 L213.43 784.34 L213.42 783.73 L211.12 782.38 L208.63 781.32 L207.93 781.58 L206.5 778.37 L207.58 776.87 L212.27 774.99 L215.15 771.04 L216.13 770.53 L216.72 770.93 Z M220.95 760.36 L221.02 764.46 L220.28 764.13 L218.47 763.62 L217.67 763.14 L216.31 764.96 L214.14 764.97 L212.15 764.55 L211.27 765.05 L210.95 767.64 L210.1 769.92 L208.72 771.62 L206.84 772.48 L204.98 772.26 L203.61 770.96 L202.78 768.92 L202.51 766.37 L202.99 763.97 L204.26 762.27 L206 761.14 L207.93 760.39 L210.09 761.22 L212.93 760.6 L218.11 758.61 L219.17 758.47 L219.93 758.6 L220.51 759.16 Z M228.69 734.73 L229.38 732.16 L230.93 731.78 L232.69 733 L233.95 735.18 L234.32 737.96 L233.83 740.66 L232.62 742.97 L230.77 744.57 L228.49 745.25 L227.17 744.75 L226.14 743.85 L224.8 743.37 L219.62 744.53 L217.67 744.57 L217.67 743.37 L219.24 742 L222.09 737.44 L224.26 735.45 L225.27 735.52 L226.78 735.93 L228.1 735.91 Z M547.95 753.79 L548.77 755.98 L548.3 757.91 L547.43 759.96 L546.96 762.49 L547.4 766.47 L547.27 768.74 L546.37 769.73 L545.1 770.45 L546.44 774.36 L545.79 776.33 L543.35 776.78 L541.03 775.38 L538.52 774.28 L535.58 775.65 L533 776 L531.43 772.26 L529.64 764.46 L527.04 763.05 L524.96 764.49 L523.55 767.74 L523.03 771.77 L522.06 773.46 L519.81 773.53 L517.44 772.72 L515.99 771.77 L515.01 770.03 L514.78 768.6 L514.74 766.91 L514.39 764.46 L510.02 750.2 L509.44 746.76 L509.86 743.37 L511.68 739.89 L512.9 739 L514.14 738.77 L515.09 738.13 L515.84 733.86 L516.77 732.64 L519.31 730.65 L521.4 729.63 L523.8 730.37 L525.9 732.25 L527.13 734.67 L526.91 737.21 L525.52 739.64 L521.95 743.37 L522.6 744.7 L523.34 748.08 L524.23 749.84 L525.58 750.79 L528.97 751.93 L530.88 755.34 L533.95 754.8 L537.85 753.27 L541.53 752.48 L546.87 753.38 Z M655.6 743.37 L655.42 745.65 L654.71 748.08 L653.32 749.43 L651.17 748.52 L652.04 751.12 L654.09 755.49 L654.52 758.48 L653.31 758.96 L650.53 758 L647.55 756.43 L645.75 755.12 L645.26 757.82 L644.77 759.28 L642.02 762.49 L641.13 764.99 L643.01 766.44 L645.62 767.53 L646.93 769.01 L644.46 771.19 L632.97 774.76 L629.51 774.99 L634.93 771.05 L632.69 769.98 L631.84 768.27 L631.97 765.97 L632.77 763.14 L627.85 765.67 L626.39 764.65 L625.68 762.43 L625.77 760.2 L626.77 759.19 L630.71 758.38 L631.84 756.26 L631.91 753.25 L632.77 749.84 L630.6 748.52 L628.97 750.53 L623.28 753.06 L620.77 755.12 L618.96 752.31 L616.7 749.83 L614.86 747.04 L614.37 743.37 L615.39 741.15 L617.48 739.1 L619.89 737.53 L621.95 736.65 L627.89 735.42 L629.51 735.45 L632.12 736.55 L634.2 737.91 L636.33 738.96 L639.27 739.17 L639.27 737.96 L636.33 736.03 L634.65 733.14 L633.9 729.84 L633.73 726.75 L635.82 727.01 L646.93 720.68 L645.04 717.13 L645.93 713.6 L648.37 711.64 L651.17 712.75 L651.86 714.35 L651.91 716.23 L650.88 723.41 L650.96 724.54 L651.69 726.82 L652.66 728.64 L653.36 730.51 L653.32 733.05 L652.69 735.36 L650.19 741.93 L653.4 740.79 L654.93 739.73 L655.45 740.11 Z M237.35 708.11 L236.5 708.33 L232.28 707.21 L230.77 707.45 L230.19 707.02 L229.8 706.59 L229.39 706.26 L228.69 706.14 L229.93 699.99 L230.77 698.2 L231.87 697.57 L233.75 696.94 L235.49 696.08 L236.27 694.84 L237.47 692.2 L240.33 690.34 L243.58 689.57 L246.01 690.22 L241.18 693.04 L240.07 694.67 L239.95 696.61 L240.64 698.61 L242.77 702.05 L241.07 702.76 L239.29 704.5 L237.93 706.54 Z M309.13 223.54 L309.75 224.18 L310.37 225.15 L311.21 225.95 L311.87 227.3 L312.26 228.35 L311.4 228.7 L310.06 229.7 L309.52 230.43 L306.75 231.09 L305.52 230.89 L303.84 231.68 L300.13 233.3 L298.14 235.1 L297.03 237.05 L290.12 242.28 L288.56 241.92 L287.11 242.09 L286.48 241.93 L285.82 239.5 L284.56 238.7 L283.99 239.33 L283.46 239.51 L283.28 239.1 L283.55 238.4 L283.16 237.43 L282.19 237.3 L281.55 238.15 L280.57 238.92 L279.39 238.38 L277.68 237.95 L278.69 236.95 L278.34 235.87 L276.6 234.21 L276.18 233.17 L276.79 231.69 L277.73 231.41 L279.05 232.09 L286.23 227.05 L291.37 226.49 L294.87 226.57 L298.09 224.87 L299.2 220.39 L301.44 219.56 L303.27 221.41 L304.16 221.76 L305.08 222.28 L305.98 222.65 L306.87 222.7 L307.83 222.89 Z M997.29 217.26 L1000 219.31 L999.81 224.39 L998.05 230.04 L996.21 233.79 L993.19 235.31 L989.15 234.52 L985.23 232.17 L982.62 229.02 L981.79 224.95 L983.14 221.9 L985.99 220 L991.63 219.04 L995.39 217.65 Z M276.37 187.37 L278.34 188.94 L279.87 190.67 L280.18 192.58 L278.5 194.74 L275.29 194.94 L264.53 186.54 L265.92 185.27 L266.58 183.68 L267.48 179.91 L267.97 178.94 L268.74 177.91 L269.64 177.16 L270.55 176.93 L271.14 177.27 L271.53 177.88 L271.76 178.73 L272.25 182.4 L272.44 183.09 L273.2 184.41 L274.2 185.54 Z M300.33 207.05 L299.12 207.19 L298.16 206.75 L296.5 204.94 L295.3 204.21 L294.45 204.51 L293.79 205.19 L293.18 205.56 L284.85 206.02 L281.75 204.57 L278.5 200.21 L283.38 198.93 L284.54 198.16 L285.88 196.05 L285.7 195.08 L284.81 194.47 L284 193.37 L278.34 182.58 L278 180.94 L278.58 178.79 L278.42 169.29 L279.08 167.12 L280.62 166.54 L284.36 162.19 L287.25 161.44 L289.78 163.27 L292.16 166.1 L294.56 168.31 L299.66 170.88 L301.69 172.92 L302.5 176.14 L302.32 177.76 L301.49 180.47 L301.31 181.68 L301.67 183.04 L303.14 185.74 L303.48 187.23 L304 194.43 L303.48 196.11 L304.36 197.19 L305.25 199.33 L305.75 200.21 L303.7 201.44 L301.92 205.66 Z M18.88 130.09 L20.62 132.26 L20.36 135.21 L18.17 136.82 L15.08 134.95 L11.05 135.31 L10.21 135.71 L10.27 137.82 L11.82 138.59 L13.68 138.93 L14.54 139.7 L11.3 142.25 L4.83 141.34 L0 137.21 L1.65 130.09 L5.68 131.53 L14.48 128.44 Z M427.38 906.57 L428.3 907.4 L429.44 907.72 L429.85 908.37 L429.66 909.31 L427.41 908.22 L425.25 907.72 L424.86 907.12 L424.32 905.81 L423.97 904.22 L423.38 903.8 L422.88 903.19 L422.5 901.88 L422.73 901.11 L422.65 900.22 L422.77 899.43 L423.27 899.26 L423.85 899.46 L424.59 899.22 L425.01 898.73 L425.25 898.66 L425.63 899.47 L425.09 901.25 L425.36 903.23 Z M462.7 824.01 L463.41 825.92 L463.41 827.05 L462.21 828.34 L459.32 830.22 L456.79 831 L455.89 830.48 L455.83 828.84 L454.76 827.71 L453.16 827.2 L452.42 826.2 L452.85 825.44 L451.12 824.33 L450.06 823.54 L450.63 822.1 L450.52 821.02 L450.25 820.16 L451.03 819.72 L452.15 820.21 L453.34 820.9 L455.56 821.46 L455.59 821.96 L456.33 821.77 L457.76 820.35 L459.22 820.27 Z M502.51 813.16 L503.55 813.74 L504.25 814.85 L503.9 816.04 L501.93 816.73 L500.64 816.78 L500.3 816.44 L499.79 815.67 L498.32 814.85 L496.01 814.07 L494.46 812.87 L493.75 811.24 L492.97 810.05 L491.67 809.34 L490.55 807.99 L491.4 806.34 L494.07 805.07 L496.97 804.68 L499.04 806.21 L501.44 810.89 L501.15 812.24 L501.23 812.93 Z M235.69 795.88 L236.05 796.24 L236.35 797.22 L236.2 799.22 L235.71 801.36 L235.57 803.22 L234.68 804.18 L233.4 805.13 L232.07 806.39 L228.95 808.25 L227.22 808.51 L225.39 807.98 L224.82 806.99 L225.74 806.67 L226.71 806.63 L227.51 805.82 L228.45 805.1 L228.29 804.44 L224.77 803.66 L225.62 802.64 L227.82 802.3 L230.11 802.23 L231.92 800.84 L232.71 798.96 L231.93 797.04 L230.35 794.49 L229.34 791.25 L230.54 790.35 L232.47 791.91 L233.62 793.11 L235.57 794.21 Z M225.86 801.13 L224.35 801.83 L223.07 800.76 L222.45 794.07 L223.02 790.36 L224.35 788.66 L226.37 793.11 L228.06 795.58 L229.39 798.28 L228.95 800.54 L227.52 801.02 Z M131.95 778.21 L133.77 777.74 L134.08 778.52 L132.68 779.9 L131.95 780.78 L131.53 781.88 L129.03 784.81 L128.54 786.16 L127.5 787.91 L126.68 789.03 L126.04 789.75 L124.49 789.1 L123.47 786.34 L123.64 783.76 L124.51 781.42 L125.57 779.35 L126.72 777.53 L128.05 776.55 L129.35 776.29 L130.06 776.84 L130.59 778.24 Z M247.42 769.65 L247.96 771.34 L248.02 773.41 L247.11 775.25 L245.09 775.45 L243.24 773.6 L241.76 771.46 L240.06 771.44 L239.21 772.2 L238.65 772.46 L237.47 772.57 L236.35 771.74 L236.07 770.09 L234.63 767.44 L231.51 764.14 L230.85 762.54 L232.38 762.95 L233.64 762.96 L234.81 762.35 L236.5 762.18 L238.5 762.49 L239.98 763.14 L240.93 764.17 L242.32 764.88 L244.2 765.01 L245.75 765.38 L246.81 766.35 L247.38 767.41 L247.26 768.37 Z M246.56 758.17 L246.06 758.68 L245.52 759.92 L245.85 762.52 L244.9 763.55 L243 764.05 L241.16 763 L239.09 761.22 L236.44 760.23 L234.49 759.08 L236.05 757.77 L240 757.12 L242.31 756.11 L243.51 755.12 L245.03 755.8 L246.18 757.37 Z M232.41 752.31 L231.08 750.47 L229.98 748.46 L230.46 746.93 L232.78 745.76 L234.68 745.56 L236.19 746.42 L237.66 746.37 L238.09 745.21 L237.78 742.94 L239.29 741.46 L241.36 741.5 L242.37 741.4 L243.16 741.84 L243.92 742.94 L244.09 744.14 L241.96 745.5 L242.73 748.51 L242.35 750.33 L241.22 751.03 L239.66 750.96 L238.67 752.09 L238.71 754.24 L238.19 756.08 L236.5 757.04 L235.07 756.92 L234.72 755.78 L234.78 755.01 Z M548.46 747.97 L549.1 748.48 L549.98 749.81 L548.3 750.24 L541.13 748.34 L537.21 749.61 L534.91 749.33 L532.55 747.89 L531.15 745.14 L532.24 742.16 L534.41 739.35 L535.79 736.71 L537.23 734.85 L539.75 734.16 L540.56 736.3 L539.45 739.43 L538.9 741.56 L539.05 743.33 L539.89 743.91 L540.82 741.81 L542.68 738.86 L544.2 738.6 L544.66 739.95 L545.48 740.72 L546.26 741.16 L546.63 743.48 L547.53 746.69 Z M258.89 734.23 L257.48 734.84 L255.55 734.78 L254.76 733.03 L255.08 731.19 L256.32 730.51 L259.03 730.51 L259.96 730.89 L260 731.72 L259.48 733.72 Z M248.1 708.63 L248.5 709.5 L248.65 710.49 L248.62 712.38 L247.95 713 L247.15 713.45 L246.29 713.13 L244.87 711.55 L244.23 711.11 L243.38 711.53 L242.62 711.46 L242.38 710.61 L241.78 710.3 L240.99 710.33 L240.77 709.9 L241.92 709.03 L241.47 708.78 L240.76 708.9 L240.07 708.7 L240.37 707.82 L241.6 707.01 L242.62 706.85 L244 707.49 L246.02 707.33 L247.43 707.73 Z M670.55 713.79 L669.85 717.79 L668.8 719.22 L667.99 719.5 L667.6 718.66 L666.83 715.27 L665.63 714.01 L665.2 713.02 L665.4 711.64 L664.86 710.04 L664.02 708.51 L664.46 707.11 L666.13 706.16 L667.95 705.97 L669.54 706.44 L670.62 708.89 Z M260.73 607.19 L260.04 606.46 L259.53 605.17 L259.84 603.93 L261.51 603.06 L261.27 602.74 L260.49 602.24 L260.87 601.77 L261.75 601.28 L262.35 600.44 L263.3 600.28 L263.87 600.02 L263.6 598.95 L264.28 598.98 L266.07 599.31 L267.27 598.33 L267.85 597.69 L268.54 598.21 L268.87 599.38 L268.28 600.83 L265.36 603.35 L263.4 605.54 L262.16 606.5 L261.65 606.98 Z M235.65 280.68 L234.53 281.31 L233.87 281.09 L233.88 280.37 L234.37 277.12 L235.26 274.43 L236.42 272.81 L237.7 273.7 L238.81 275.58 L239.95 276.52 L243.85 278.58 L245.05 279.9 L244.4 281.14 L242.38 283.19 L240.95 283.8 L239.09 284.08 L237.52 283.36 L236.49 281.57 L236.07 280.55 Z M296.56 270.53 L298.2 271.62 L298.82 274.03 L298.13 274.86 L296.42 275.44 L295.76 276.75 L295.63 277.98 L294.25 279.6 L292.46 280.03 L291.23 279.13 L289.93 279.26 L288.9 278.61 L288.54 276.1 L288.83 273.52 L290.14 271.7 L292.94 270.21 Z M317.16 275.27 L317.54 276.19 L317.93 277.89 L317.09 279.73 L309 286.18 L305.33 286.64 L305.36 285.64 L307.09 283.29 L307.33 281.95 L306.6 280.79 L308.67 278.43 L308.73 276.05 L307.88 273.1 L306.71 271.06 L305.56 269.74 L305.91 269.33 L308.51 270.6 L310.74 268.64 L311.25 268.8 L310.78 270.53 L311.44 272.09 L313.3 273.16 L316.32 274.43 Z M170.38 190.55 L172.13 190.78 L173.24 191.95 L172.75 194.12 L171.24 195.62 L170.32 196.06 L169.8 194.95 L168.95 192.48 L169.15 190.75 Z M16.31 156.93 L17.57 157.58 L17.79 158.84 L17.08 160.64 L16.59 162.7 L15.95 164.43 L14.77 165.07 L13.54 164.97 L12.49 165.34 L11.68 166.19 L11.25 166.35 L11.25 165.82 L11.28 165.56 L10.76 164.58 L9.5 162.93 L9.97 161.35 L12.64 159.22 L14.35 157.44 L15.15 156.8 Z M81.51 901.12 L80.73 900.63 L77.64 897.78 L75.87 896.69 L75.48 895.2 L76.26 893.18 L77.47 892.06 L79.22 892.65 L80.62 894.38 L82.89 899.08 L83.04 900.6 L82.55 901.45 L81.86 901.32 Z M314.78 878.13 L316.16 878.72 L317.48 880.37 L317.09 881.22 L316.43 880.62 L315.87 880.52 L315.58 881.27 L314.99 881.04 L313.54 880.24 L312.06 880.28 L311.21 881.12 L310.67 882.15 L308.9 883.35 L307.33 884.77 L304.94 886.21 L301.91 886.08 L300.22 883.84 L300.1 880.94 L301.49 878.09 L304.31 876.13 L306.72 876.13 L309.85 878.13 L310.78 878.25 L312.1 877.84 L313.88 877.87 Z M326.37 881.08 L327 881.43 L327.54 882.36 L327.04 882.94 L326.34 883.05 L326.11 884.19 L326.11 886.12 L325.31 887.63 L323.75 888.05 L322.94 887.57 L322.65 886.68 L321.89 886.07 L321.08 885.89 L320.73 883.32 L321.74 878.9 L322.09 876.44 L321.04 875.46 L320.73 874.58 L322.05 873.32 L322.12 872.66 L323.48 872.68 L326.16 874.06 L326.54 875.93 L325.03 877.23 L324.76 878.69 Z M364 872.56 L365.52 873.94 L366.47 875.02 L366.06 877.42 L365.67 878.45 L364.67 880.24 L362.81 881.24 L360.45 881.44 L358.71 880.54 L357.27 879.25 L356.23 879.37 L355.69 880.33 L355.09 879.98 L354.45 877.03 L355.43 875.04 L355.69 873.22 L356.31 871.77 L357.43 870.69 L359.69 869.57 L362.4 870.27 Z M316.87 868.64 L317.52 869.57 L317.65 871.25 L316.55 872.18 L316 874.36 L313.69 874.49 L312.41 874.75 L313.18 876.13 L312.38 876.8 L309.97 876.14 L308.72 874.97 L308.41 874.2 L307.74 873.96 L306.99 873.8 L306.83 873.16 L307.65 870.87 L308.11 870.01 L308.18 869.43 L307.87 868.97 L308 868.54 L308.58 868.26 L308.95 867.84 L308.85 867.3 L308.03 865.96 L308.56 865.5 L309.82 865.91 L311.04 866.57 L314.34 867.13 L316.05 868.02 Z M233.88 851.42 L233.73 853.55 L233.98 854.93 L233.24 856.03 L231.7 856.23 L230.81 856.97 L230.11 856.64 L229.46 855.61 L228.91 855.63 L228.64 856.59 L227.64 856.74 L224.36 855.37 L223.25 853.78 L223.15 852.73 L223.82 851.82 L223.89 850.87 L225.08 850.08 L230.54 851.23 L232.82 850.88 Z M355.2 851.3 L354.52 852 L353.09 852.29 L352.32 851.18 L352 849.71 L351.14 848.54 L349.92 848.02 L348.29 848.26 L346.4 848.93 L344.87 848.92 L344.27 848.61 L343.66 848.21 L340.15 846.65 L339.93 846 L341.56 845.79 L343.14 845.32 L343.84 844.92 L344.42 844.64 L345.67 844.83 L347.12 845.51 L348.87 844.78 L351.01 843.03 L352.63 842.62 L353.56 843.33 L354.71 843.64 L355.38 843.59 L356.05 843.46 L357.81 843.65 L360.06 844.2 L361.45 845.02 L361.14 846.43 L360.23 847.5 L359.98 848.16 L359.83 849.5 L358.83 850.59 L357.47 850.32 L356 850.6 Z M392.89 844.32 L393.43 844.79 L393.74 845.68 L392.77 845.89 L391.43 845.21 L389.85 844.86 L388.72 845.3 L389.13 845.82 L390.1 846.38 L388.95 847.53 L386.15 849.73 L384.52 850.46 L384.37 848.77 L385.16 847.57 L386.16 846.9 L385.6 846.14 L382.12 845.42 L382.59 844.65 L382.21 843.68 L381.16 843.04 L378.5 842.79 L377.47 842.44 L377.01 842.14 L377.39 841.78 L378.56 841.54 L379.48 840.92 L380.95 839.14 L382.52 837.82 L382.4 837.32 L382.9 837.49 L384.02 838.59 L385.05 840.14 L385.65 841.87 L386.89 842.42 L389.05 841.73 L390.64 841.55 L391.38 842.2 L391.92 843.07 Z M340.94 851.17 L341.25 852.35 L342.14 854.49 L341.6 855.01 L340.82 854.9 L340.05 854.68 L338.63 854.07 L337.42 853.28 L336.74 853.41 L336.59 854.53 L335.83 854.98 L334.43 854.34 L332.03 853.78 L329.05 852.73 L329.03 851.49 L330.5 850.36 L330.11 848.95 L328.74 848.58 L327.09 849.01 L325.03 848.44 L323.17 847.22 L322.06 845.82 L321.6 843.73 L321.44 841.35 L321.57 838.93 L322.2 836.51 L323.45 834.66 L325.16 833.83 L326.07 833.62 L328.86 833.34 L330.68 833.94 L332.38 835.1 L334.27 837.33 L335.74 841.03 L336.18 844.07 L336.68 845.48 L337.54 846.65 L338.03 848.29 Z M340.71 837.01 L339.93 836.95 L339.23 836.24 L339.81 835.1 L340.55 833.98 L341.65 831.55 L343.88 828.6 L347.01 826.86 L350.31 826.08 L352.28 826.42 L353.03 827.57 L353.16 828.84 L352.33 829.69 L352.46 830.15 L353.93 831.05 L355.14 832.41 L356.2 833.95 L356.34 835.12 L355.18 835.32 L351.93 834.32 L350.58 834.66 L349.78 835.84 L345.6 837.79 L344.12 839.77 L343.66 841.83 L342.81 842.43 L341.78 841.23 L341.8 839.24 L341.47 837.57 Z M583.63 787.64 L584.03 788.07 L583.8 789.1 L582.28 790.98 L581.59 791.43 L580.57 791.58 L579.08 791.24 L577.84 791.42 L576.15 792.26 L575.32 793.04 L574.38 793.24 L574.22 792.52 L574.78 791.29 L574.62 790.29 L573.93 789.6 L573.33 789.46 L572.64 788.93 L572.7 787.97 L573.13 787.09 L573.19 786.04 L573.82 785.43 L574.9 785.16 L579.92 787.84 L579.93 789.03 L580.65 789.11 Z M598.09 752.8 L599.61 752.18 L602.05 751.56 L604.82 751.39 L606.37 752.91 L606.78 755.39 L605.94 756.94 L606.52 757.86 L605.83 759.03 L604.24 758.38 L603.61 758.76 L603.65 759.25 L604.96 759.51 L606.26 760.58 L605.62 761.75 L604 763.78 L601.38 763.81 L600.23 762.34 L599.61 760.83 L598.28 760.78 L598.59 759.51 L598.15 758.25 L596.11 757.94 L595.38 757.36 L596.9 756.15 L597.18 754.68 L595.65 753.46 L592.79 752.48 L590.98 753.05 L589.91 752.99 L589.57 751.72 L590.84 750.32 L592.7 749.85 L595.15 750.84 L597.01 752.27 Z M574.96 749.7 L577.33 752.36 L578.22 753.86 L577.59 754.9 L575.89 754.9 L575.09 755.32 L575.21 756.69 L574.73 757.28 L573.23 756.85 L572.3 756.4 L570.56 755.18 L569.55 753.67 L569.75 752.63 L570.83 750.85 L572.96 749.24 Z M273.83 744.31 L276.84 745.37 L277.16 749.47 L274.05 752.34 L272.34 751.7 L273.35 750.56 L273.85 749.45 L273.44 748.68 L269.02 746.24 L268.36 745.89 L263.67 746.65 L261.6 747.67 L259.25 748.05 L257.36 747.41 L256.4 746.15 L257.25 745.13 L259.76 744.97 L262.99 743.79 L263.56 743.07 L264.07 742.53 L264.23 741.71 L266.22 741.1 L266.93 739.9 L267 738.48 L265.76 736.78 L265.24 734.87 L266.96 733.97 L269.71 734.63 L272.54 736.07 L274.55 738.1 L274.34 739.24 L272.96 739.42 L270.55 741.02 L270.25 741.92 L270.34 743.06 L270.56 743.96 L271.58 744.29 Z M256.95 708.91 L257.25 707.96 L256.16 707.63 L252.1 706.95 L251.2 706.16 L249.8 706.03 L249.12 705.88 L248.44 705.26 L247.53 704.8 L246.68 703.76 L244.98 699.77 L245.95 698.21 L247.96 697.53 L249.82 698.22 L251.3 699.21 L252.64 698.75 L254.16 697.94 L255.15 698.43 L255.48 699.29 L256.25 699.25 L257.24 698.97 L257.64 700.23 L256.54 701.34 L255.08 701.44 L254.46 702.16 L254.46 703.19 L256.2 704.99 L257.67 705.66 L259.33 705.77 L260.27 707.11 L260.75 708.82 L261.55 709.91 L261.83 711.39 L261.21 713.27 L260.59 713.77 L260.18 713.16 L258.33 712.74 L257.56 711.75 L256.93 710.6 Z "/>
</g>
</svg>
