<svg xmlns="http://www.w3.org/2000/svg" viewBox="0 0 1000 847.95">
<g fill="#ccc" stroke="#333" stroke-width="0.5" stroke-linejoin="round">
<path fill-rule="evenodd" d="M914.45 845.54 L914.7 843.62 L915.25 842.62 L916.27 842.22 L924.25 842.04 L924.25 843.18 L923.44 844.62 L923.29 846.32 L922.89 847.62 L917.71 847.8 L915.99 847.15 Z M908.06 842.04 L908.51 843.73 L908.66 845.46 L909.08 846.92 L910.36 847.81 L909.45 847.95 L908.57 847.8 L907.71 847.35 L906.91 846.58 L904.45 845.14 L902.1 843.11 L901.42 841.14 L903.97 839.77 L907.86 839.95 L907.95 840.43 L907.86 841.15 Z M967.05 770.91 L969.98 770.24 L972.71 771.23 L978.05 775.37 L976.13 777.58 L974.18 779.32 L972.14 780.46 L969.93 780.98 L967.04 780.23 L965.03 777.41 L964.74 773.82 Z M998.27 678.37 L998.67 679.69 L999.77 682.32 L1000 683.37 L999.46 686.73 L999.42 688.37 L999.15 687.73 L998.88 687.55 L998.59 687.47 L994.79 684.91 L983.88 680.9 L981.56 676.75 L981.82 675.91 L982.4 674.68 L982.98 673.09 L983.23 671.21 L983.83 670.04 L985.21 669.54 L993.84 669.57 L996.83 670.34 L999.42 672.86 Z M984.39 578.64 L982.02 578.48 L979.79 577.04 L978 574.79 L976.9 572.27 L979.88 567.89 L981.48 566.87 L983.23 567.84 L983.63 568.84 L984.35 571.96 L985.02 573.25 L986.17 574.14 L987.44 574.46 L990.15 574.43 L988.81 576.15 L987.4 577.17 Z M958.35 460.48 L960 458.79 L961.93 459.12 L963.81 460.96 L965.32 463.65 L964.91 463.69 L964.68 463.97 L964.47 464.35 L964.17 464.73 L963.59 463.65 L962.53 463.89 L961.16 463.05 Z M923.09 401.24 L924.41 401.69 L926.32 402.82 L927.84 404.34 L927.99 405.97 L926.76 407.25 L921.94 408.7 L919.23 407.97 L918.27 407 L917.9 404.92 L918.53 403.47 L919.98 402.29 L921.7 401.52 Z M884.33 342.61 L885.72 340.35 L887.47 339.63 L889.38 340.09 L891.24 341.49 L891.24 342.61 L889.95 343.37 L888.83 345.45 L887.77 346.93 L886.63 345.82 L884.97 343.28 Z M84.74 71.24 L85.99 71 L87.64 72.49 L90.22 75.69 L90.22 76.68 L89.6 76.61 L89.22 76.92 L88.91 77.37 L88.48 77.77 L86.43 78.22 L85.46 78.13 L84.45 77.77 L84.45 76.68 L86.13 76.68 L82.67 74.69 L82.47 72.85 L83.06 72.09 L83.98 71.76 Z M0 4.49 L0.76 2.8 L2.08 2.24 L5.13 2.44 L1.79 4.3 L0.9 4.51 Z M183.85 103.47 L181.57 103.74 L183.35 107.56 L187 110.73 L191.14 112.87 L194.36 113.7 L194.36 114.8 L193.27 115.08 L192.11 115.87 L191.18 116.95 L190.8 118.16 L190.07 118.6 L188.43 118.45 L185.67 117.68 L183.98 120.63 L181.44 121.42 L178.7 120.85 L176.39 119.68 L172.2 116.44 L169.78 115.08 L167.17 114.8 L168 116.32 L169.07 117.53 L170.25 118.31 L171.44 118.6 L172.52 119.1 L174.21 121.59 L175.24 122.69 L176.15 123.21 L177.07 123.47 L179.27 123.6 L180.08 124.03 L181.74 126.05 L182.74 126.69 L182.74 127.61 L181.79 127.74 L180.89 127.68 L180.05 127.36 L179.27 126.69 L179.45 127.38 L179.69 129.03 L179.85 129.7 L177.41 129.77 L176.47 129.2 L175.82 127.61 L175.5 129.53 L175.52 130.33 L175.82 131.61 L174.75 131.63 L172.96 130.9 L172.02 130.7 L171.5 131.13 L170.87 132.02 L170.02 132.76 L167.56 132.78 L166.37 132.35 L165.41 131.33 L164.81 129.7 L165.59 129.62 L166.11 129.37 L167.17 128.61 L163.72 126.69 L159.92 121.6 L158.28 120.9 L156.32 119.24 L153.23 115.7 L153.11 113.61 L152.23 113.88 L150.93 111.7 L151.26 109.49 L150.51 106.95 L149.79 103.93 L146.91 98.65 L140.56 89.78 L139.38 88.69 L138.3 88.54 L136.95 88.08 L135.81 87.3 L135.32 86.16 L135.6 84.56 L136.8 82.79 L137.05 81.65 L136.11 79.66 L134.04 77.72 L131.82 76.28 L130.42 75.69 L128.03 75.71 L127.14 76.14 L125.44 78.19 L124.27 78.53 L123.05 78.36 L122.01 77.77 L120.57 76.02 L119.6 74.34 L118.4 72.85 L109.85 68.74 L109.25 68.69 L108.47 68.83 L107.79 68.78 L107.5 68.2 L107.6 67.55 L108.02 65.92 L108.13 65.69 L108.13 64.96 L108.59 63.89 L108.71 63.26 L108.61 62.15 L108.35 62.08 L107.96 62.22 L107.5 61.82 L106.25 60.24 L104.64 59.29 L102.88 58.86 L101.16 58.75 L101.79 57.76 L100.07 56.86 L100.56 55.39 L101.36 54.72 L102.37 54.61 L103.52 54.81 L101.5 52.45 L98.2 52.36 L91.63 53.82 L90.53 53.48 L87.28 51.71 L85.58 50.33 L84.79 49.46 L84.45 48.87 L84.52 47.89 L84.9 46.54 L84.98 45.36 L84.16 44.83 L83.05 44.47 L81.71 43.6 L80.42 42.5 L79.48 41.41 L78.8 41.05 L77.21 41.65 L76.31 41.41 L74.86 40.43 L72.88 39.89 L71.36 40.03 L68.93 41.51 L63.8 42.1 L62.19 42.68 L60.67 43.93 L60.16 42.92 L59.46 42.36 L58.65 42.28 L57.78 42.85 L56.83 40.73 L57.17 39.74 L63.51 37.03 L64.81 36.95 L63.18 34.74 L58.46 32.88 L57.21 30.12 L60.73 30.21 L64.64 28.96 L71.72 25.21 L69.63 24.25 L61.92 24.27 L58.99 25.21 L57.92 24.83 L55.94 23.45 L54.93 23.16 L47.1 23.16 L45.06 23.75 L44.31 25.09 L44.89 26.46 L46.79 27.17 L45.23 27.84 L38.6 29.21 L35.3 28.87 L33.53 29.06 L33.93 28.42 L34.32 27.59 L34.68 27.17 L33.56 26.43 L30.6 23.16 L33.67 21.26 L35.19 19.96 L36.41 18.23 L35.05 17.78 L32.14 18.09 L30.6 17.25 L35.93 14.48 L38.44 12.44 L39.87 9.4 L29.76 9.4 L24.83 10.29 L23.56 9.88 L21.76 8.58 L20.8 8.33 L16.07 10.17 L13.45 10.51 L11.26 8.86 L9.61 7.99 L6.31 11.43 L4.61 11.35 L4.82 9.98 L5.22 8.68 L5.88 7.71 L6.91 7.35 L6.51 6.22 L6.12 5.56 L5.54 5.32 L4.61 5.39 L6.01 4.54 L10.37 4.49 L14.73 2.66 L16.47 2.44 L18.28 2.9 L21.08 4.93 L22.53 5.39 L24.32 5.09 L26.18 4.3 L27.95 3.06 L29.44 1.46 L29.44 0.12 L31.26 0 L33.61 0.63 L35.21 1.46 L34.43 1.8 L34 2.23 L33.75 3.06 L33.53 4.49 L50.19 4.02 L56.16 1.94 L59.51 1.46 L59.51 2.44 L54.33 5.39 L54.91 6.45 L54.33 8.33 L52.6 8.33 L54.38 10.12 L55.76 11.01 L57.24 11.34 L59.25 11.35 L59.99 11.2 L61.43 10.45 L62.16 10.29 L67.06 10.29 L72.1 13.67 L72.88 13.81 L73.4 11.49 L74.67 10.99 L76.17 11 L77.43 10.29 L77.29 8.86 L78.58 8.47 L80.32 8.53 L81.52 8.33 L79.96 10.57 L80.49 11.2 L81.83 11.15 L82.67 11.35 L82.62 12.9 L81.81 14.01 L79.79 15.28 L80.14 16.61 L80.06 17.87 L79.69 19.09 L79.16 20.28 L81.42 20.05 L83.16 18.16 L84.78 15.6 L86.7 13.32 L88.6 12.26 L91.31 11.43 L93.6 11.83 L94.25 14.3 L90.63 17.82 L89.09 19.85 L90.22 21.19 L92.06 20.78 L98.86 16.27 L98.41 15.81 L97.57 14.72 L97.13 14.3 L98.94 13.73 L100.91 13.95 L105.25 15.28 L107.56 16.68 L108.13 17.25 L108.29 18.78 L107.26 20.59 L107.5 22.17 L107.09 23.43 L107.51 24.28 L108.38 24.6 L109.34 24.14 L109.64 23.09 L109.96 19.5 L110.43 18.23 L112.55 17.46 L120.86 19.22 L120.23 20.28 L121.89 20.35 L122.85 20.59 L123.69 21.19 L123.69 22.17 L123 23.4 L122.78 24.01 L122.54 25.21 L121.12 24.28 L119.6 24.13 L118.11 24.74 L116.78 26.1 L119.15 26.71 L120.1 27.24 L119.71 28.16 L118.72 28.56 L116.63 28.49 L115.62 29.06 L117.78 30.46 L120.52 30.16 L125.53 28.16 L130.42 27.17 L131.14 27.98 L131.89 29.43 L132.85 30.25 L134.17 29.06 L134.57 30.07 L134.7 30.58 L134.57 31.1 L134.17 32.1 L132.89 31.04 L131.51 30.98 L128.98 32.1 L127.78 33.08 L120.66 38.44 L120.08 38.69 L119.6 39.04 L119.13 39.89 L119.25 40.54 L119.69 41.4 L119.85 42.52 L119.13 43.93 L121.25 44.17 L122.91 43.98 L124.39 43.25 L130.15 38.19 L132.35 37.35 L133.59 38.92 L134.64 37.75 L135.86 38.36 L136.58 40.1 L136.16 42.36 L135.5 42.81 L134.64 42.87 L133.91 43.17 L133.59 44.38 L133.86 45.21 L134.36 45.64 L134.62 46.31 L134.17 47.89 L134.99 49.25 L135.15 50.79 L134.82 52.35 L134.17 53.82 L137.49 49.84 L139.3 48.66 L140.79 49.31 L143 53.44 L144.5 55.31 L146.27 55.78 L147.75 54.65 L147.58 52.71 L146.76 50.19 L146.27 47.34 L145.98 46.26 L144.02 43.93 L143.42 42.76 L143.07 41.83 L142.92 40.69 L142.86 38.92 L148.37 41.01 L150.93 42.59 L151.51 44.83 L152.49 44.61 L153.45 44.61 L154.16 45.08 L154.44 46.36 L154.59 47.93 L154.8 49.06 L154.66 49.96 L153.81 50.85 L156.35 52.81 L156.29 53.49 L155.15 54.47 L154.44 57.31 L155.57 58.09 L162.51 57.76 L162.27 59.67 L162.2 61.58 L161.72 63.09 L160.21 63.8 L160.63 65.15 L161.28 66.07 L162.11 66.59 L163.08 66.77 L163.07 68.05 L163.8 68.9 L164.89 69.42 L165.97 69.75 L166.46 69.63 L167.7 68.74 L168.31 69.18 L169.74 70.74 L171.81 70.56 L172.61 70.96 L172.93 72.21 L173.19 73.88 L173.85 74.95 L174.79 75.52 L173.33 76.85 L171.4 78.35 L167.7 82.74 L168.69 83.69 L170.26 85.89 L171.15 86.62 L172.5 86.89 L180.32 86.46 L181.57 85.72 L183.74 83.76 L184.74 83.26 L185.67 83.64 L185.34 85.27 L183.88 89.68 L181.91 93.31 L181.57 93.67 L183.59 100.2 Z M833.39 407.12 L835.09 405.59 L836.92 405.72 L837.16 407.43 L835.6 409.01 L833.66 408.82 Z "/>
</g>
</svg>
