<svg xmlns="http://www.w3.org/2000/svg" viewBox="0 0 1000 890">
<g fill="#ccc" stroke="#333" stroke-width="0.5" stroke-linejoin="round">
<path fill-rule="evenodd" d="M569.96 460.61 L568.97 459.7 L568.28 458.72 L567.78 457.61 L567.37 456.37 L567.98 456.28 L568.83 456.36 L569.81 456.91 L570.55 457.49 L571.35 457.67 L572.52 457.08 L572.13 458.24 L570.19 459.78 Z M676.29 488.89 L677.43 491.16 L677.83 491.75 L677.84 491.77 L676.5 492.26 L675.58 491.26 L675.44 489.75 Z M727.56 25 L727.45 25.71 L727.42 26.99 L727.43 27.74 L728.7 28.36 L729.26 29.12 L729.41 30.31 L729.53 30.57 L729.63 30.8 L730.11 30.72 L730.63 30.46 L731.59 30.34 L732.49 29.95 L732.9 30 L733.74 30.4 L734.18 30.72 L734.17 31.01 L734.05 31.38 L734.12 31.91 L734.45 32.96 L734.67 33.24 L735.21 33.49 L735.69 33.56 L736.25 33.49 L736.73 33.21 L736.98 32.67 L737.34 31.63 L738 31.22 L738.88 31.26 L740.26 31.67 L742.12 32.65 L742.61 32.56 L743.1 32.38 L743.63 32.39 L744.91 33.71 L745.08 35.94 L744.6 38.37 L743.92 40.3 L743.36 41.06 L741.53 43.04 L741.16 43.55 L741.72 44.87 L742.53 45.78 L743.51 46.35 L744.6 46.65 L745.82 46.75 L746.57 46.5 L746.95 45.68 L747.06 44.08 L747.37 42.86 L748.13 42 L749.13 41.62 L750.13 41.88 L749.2 42.69 L748.84 43.49 L749.04 44.3 L749.79 45.17 L750.63 45.68 L753.2 46.14 L754.73 46.99 L756.18 48.18 L757.85 48.02 L758.23 48.17 L758.97 48.65 L759.3 48.93 L760.84 49.12 L761.58 49.33 L762.12 49.97 L763.67 51.13 L765.36 51.69 L768.91 51.98 L772.33 51.36 L773.52 51.77 L774.17 53.46 L774.35 53.93 L774.33 54.36 L774.18 54.64 L774.13 54.96 L774.38 55.52 L774.83 55.96 L775.27 56.01 L775.7 55.95 L776.15 56.02 L777.68 56.98 L778.47 57.64 L780.19 59.96 L780.26 60.22 L780.17 60.48 L780.16 60.71 L780.46 60.85 L781.18 60.85 L781.37 60.91 L781.63 61.27 L781.57 61.67 L781.56 62.03 L781.99 62.31 L782.34 62.26 L783.09 61.74 L783.48 61.61 L783.55 60.17 L784.69 60.2 L787.08 61.33 L788.44 61.22 L789.51 60.58 L791.65 58.88 L792.04 59.28 L792.38 59.14 L792.69 58.68 L792.93 58.08 L793.62 58.73 L793.72 58.79 L796.3 60.36 L796.83 61.49 L798.02 61.63 L799.31 61.28 L800.11 60.94 L800.01 61.99 L800.27 63.04 L800.8 63.93 L801.53 64.54 L801.81 64.87 L801.86 65.3 L801.99 65.69 L802.46 65.9 L803.02 66.06 L803.33 66.34 L803.54 66.64 L803.79 66.91 L805.55 67.61 L807.09 67.46 L810.51 66.19 L813.24 65.79 L814.07 65.22 L814.79 65.11 L817.16 65.73 L817.87 66.08 L818.82 67.77 L819.51 68.6 L820.17 68.5 L821.42 66.74 L822.21 65.94 L823.02 65.65 L824.24 66.7 L824.34 66.9 L824.33 67.15 L824.36 67.4 L824.58 67.61 L825.46 67.78 L826.33 67.73 L828.03 67.28 L828.76 67.6 L834.3 67.43 L835.88 67.65 L836.46 67.43 L836.76 66.94 L836.85 66.79 L836.89 65.81 L836.59 64.9 L836.06 64.23 L835.43 64 L835.7 63.39 L835.86 63.13 L836.19 62.87 L835.7 62.19 L836.33 60.49 L836.23 59.2 L836.44 58.33 L837.47 57.92 L838.68 57.83 L839.46 57.91 L841 58.52 L841.77 58.69 L842.64 58.61 L843.4 58.74 L845.32 59.88 L846.64 60.4 L847.02 60.7 L847.73 61.4 L848.21 61.6 L848.63 61.38 L849.05 61.04 L849.5 60.89 L849.88 61.04 L850.61 61.64 L850.95 61.85 L854.74 62.1 L855.67 62.39 L856.46 63.1 L856.89 63.97 L857.23 64.91 L857.68 65.74 L858.44 66.3 L858.94 66.36 L860.42 65.88 L865.89 65.9 L866.94 66.18 L866.74 67.04 L866.97 67.28 L867.39 67.31 L867.76 67.51 L868.54 68.93 L869.4 70.11 L870.15 72.18 L870.79 73.03 L870.59 73.39 L870.34 74 L870.29 74.57 L870.66 74.82 L870.66 75.05 L869.92 76.33 L869.77 77.02 L870.78 76.88 L871.56 77.58 L871.71 78.54 L870.83 79.17 L870.58 79.23 L869.83 79.58 L871.11 81.58 L871.11 82.34 L871.62 82.72 L874.31 83.08 L874.67 83.03 L875.18 82.74 L875.46 82.4 L875.66 82.05 L875.91 81.77 L878.71 81.41 L880.13 80.8 L880.61 79.18 L880.77 78.99 L880.91 78.92 L881.03 78.97 L881.15 79.16 L881.67 79.35 L882.21 79.35 L882.71 79.11 L883.13 78.61 L883.26 78.7 L883.35 78.82 L883.38 78.97 L883.36 79.16 L884.18 79.5 L886.94 79.88 L887.87 80.27 L890.36 81.99 L891.41 82.23 L892.24 82.28 L892.93 82.58 L893.53 83.59 L894.12 85.84 L894.54 86.77 L895.41 87.54 L895.96 87.89 L896.56 87.99 L897.72 87.86 L898.45 87.67 L898.96 87.33 L899.71 86.53 L900.77 85.72 L900.98 85.37 L901.32 84.48 L901.53 84.16 L902.24 83.83 L904.33 84.09 L907.08 83.23 L908.48 83.08 L909.72 83.78 L910.25 84.22 L912.83 85.45 L914.22 85.75 L914.92 85.78 L915.25 86.76 L915.95 87.69 L916.81 88.37 L917.63 88.59 L918.53 89.11 L919.03 89.27 L919.49 89.26 L919.79 88.97 L920.16 87.99 L920.5 87.68 L921.36 87.65 L923.41 88.35 L924.39 88.54 L925.57 88.47 L925.56 88.21 L925.01 87.59 L924.6 86.44 L924.95 85.92 L926.83 84.43 L927.61 84.03 L928.52 83.96 L930.26 84.23 L931.19 84.08 L931.9 83.63 L933.24 82.32 L933.96 81.89 L934.67 81.82 L935.43 81.84 L936.18 81.72 L937.64 80.57 L939.08 81.13 L939.83 80.63 L940.31 80.73 L941.61 80.77 L941.9 80.85 L942.19 81.51 L942.53 82.08 L942.97 82.54 L943.5 82.88 L944.41 83.17 L945.55 83.3 L946.71 83.24 L948.63 82.91 L948.53 83.72 L948.15 85.01 L948.34 85.95 L948.34 86.98 L948.91 87.84 L949.66 88.44 L950.65 88.26 L951.69 88.22 L952.27 89.06 L952.58 89.06 L953.05 88.6 L953.64 88.71 L954.7 89.43 L953.65 91.53 L953.49 92.13 L953.34 93.04 L953 93.48 L952.6 93.81 L952.27 94.43 L951.57 94.08 L949.92 94.43 L948.53 93.84 L948.15 93.24 L947.32 93.41 L946.38 94.43 L945.87 95.72 L945.8 97.85 L945.76 99.31 L946.03 100.39 L946.74 101.16 L948.28 102.09 L949.13 103.24 L950.12 104.71 L950.05 105.45 L949.47 106.03 L949.29 106.82 L949.54 107.75 L949.78 108.99 L949.82 109.39 L950 109.72 L950.83 110.41 L951.06 110.86 L950.9 112.02 L949.8 113.94 L949.25 115.47 L948.52 116.25 L947.26 118.03 L945.78 117.9 L944.08 119.15 L943.65 120.79 L942.38 121.52 L938.41 124.65 L937.61 125.95 L936.18 126.29 L935.13 126.58 L933.97 126.86 L933.48 127.01 L933.27 127.13 L932.59 127.77 L932.46 128.02 L932.28 128.46 L931.86 128.56 L931.34 128.54 L930.74 129.93 L925.12 132.32 L916.12 136.49 L915.21 137.45 L912.65 139.22 L909.33 140.63 L908.03 141.62 L906.83 143.26 L904.68 147.07 L903.4 148.85 L901.95 150.21 L898.83 151.93 L897.02 152.44 L893.99 152.75 L891 153.53 L890.1 154.08 L889.66 154.21 L888.14 154.14 L879.46 156.8 L875.67 157.08 L864.52 161.28 L861.39 161.96 L861.05 162.24 L860.27 163.65 L860.1 164.1 L859.87 164.44 L859.4 164.67 L858.34 164.03 L858.01 163.9 L856.05 163.95 L854.19 164.31 L852.49 165.08 L851.29 165.79 L846.27 170.79 L843.84 174.04 L839.01 178.99 L838.15 180.71 L839.34 181.4 L840.61 181.91 L841.15 181.88 L841.37 181.59 L841.21 181.15 L840.61 180.71 L841.36 180.77 L841.96 181.09 L842.47 181.58 L843.53 182.91 L844.68 183.87 L845.23 183.81 L846.1 184.11 L846.04 185.34 L845.41 186.56 L844.97 187.2 L842.12 188.04 L840.89 189.14 L838.7 192.58 L837.36 193.65 L836.07 194.13 L834.65 194.33 L833.6 192.66 L835.74 192.38 L836.75 193.09 L838.21 192.17 L839.83 189.63 L838.94 189.49 L837.59 189.61 L833.93 190.81 L833.06 191.39 L832.32 192.19 L831.65 193.23 L830.27 196.62 L829.55 198.38 L828.76 199.5 L827.99 200.34 L827.39 201.31 L827.1 202.8 L825.95 203.98 L822.86 210.01 L822.34 210.62 L821.15 211.6 L820.56 212.23 L819.04 214.38 L816.4 216.6 L813.7 221.99 L812.48 223.3 L810.22 224.72 L809.08 226.4 L807.15 230.51 L806 232.26 L803.22 235.38 L798.64 243.04 L798.4 243.65 L798.3 245.04 L797.99 246.01 L797.51 246.74 L796.45 247.91 L795.84 248.77 L795.3 249.78 L795.06 250.75 L794.77 251.47 L793.38 253.51 L792.91 254.53 L792.59 256.59 L792.73 259.46 L793.03 261.9 L793.89 265.7 L796.67 271.82 L797.15 272.74 L797.7 273.75 L797.15 274.12 L796.52 274.64 L796.77 275.68 L797.2 277.76 L797.94 279.65 L799.1 281.74 L800.26 284.03 L801.92 286.95 L802.57 287.79 L804.23 289.11 L805.9 290.86 L806.84 291.6 L808.05 291.91 L810.08 292.11 L812.21 292.73 L814.12 293.81 L815.51 295.37 L815.32 295.47 L814.87 295.8 L815.4 296.04 L815.75 296.42 L816.96 297.39 L817.4 297.27 L817.68 297.98 L817.7 298.87 L817.4 299.31 L816.56 299.35 L815.81 299.54 L815.13 299.91 L814.5 300.5 L813.98 301.7 L813.9 301.85 L813.72 302.05 L812.87 302.1 L812.55 302.25 L811.96 302.84 L811.44 303.12 L810.97 303.5 L810.53 304.39 L810.86 305.2 L809.96 304.98 L809.35 305.13 L808.76 305.41 L807.95 305.56 L806.62 305.58 L806 305.79 L805.37 306.3 L804.84 307.23 L804.83 308.06 L804.89 308.84 L804.61 309.65 L803.93 310.38 L803.27 310.64 L801.42 310.64 L799.41 311.1 L798.3 311.53 L796.88 312.55 L792.64 314.35 L791.97 314.82 L791.69 315.48 L791.34 315.71 L789.72 317.54 L789.23 318.38 L789.05 319.49 L789.06 320.08 L788.89 320.31 L787.46 320.39 L786.83 320.58 L786.37 321.05 L786.2 321.91 L784.62 321.81 L784.22 324.06 L784.88 329.24 L784.37 329.9 L783.6 330.09 L782 329.97 L781 330.23 L780.19 330.89 L779.56 331.77 L779.09 332.71 L778.81 333.51 L778.62 334.39 L778.48 336.77 L778.28 340.5 L778.19 341.54 L777.8 342.05 L776.62 342.51 L775.78 343.4 L775.35 344.15 L773.57 348.64 L773.47 349.55 L773.48 349.62 L773.68 351.86 L773.47 352.42 L772.26 350.92 L771.18 353.88 L770.59 354.37 L769.6 354.67 L769.24 355.43 L769.39 356.48 L770.85 359.13 L771.29 359.68 L772.72 360.62 L773.74 361.12 L774.62 361.23 L775 360.54 L775.82 361.02 L776.12 361.67 L775.94 362.34 L775.3 362.84 L774.93 363.24 L774.54 363.46 L774.14 363.46 L773.75 363.19 L773.33 363.46 L772.11 363.91 L771.37 364.08 L770.11 364.76 L768.45 364.76 L767.88 364.87 L767.26 365.17 L766.17 365.91 L765.79 365.62 L764.02 364.76 L762.56 364.47 L759.73 364.41 L758.94 364.51 L758.25 364.76 L757.75 365.19 L757.51 365.73 L757.65 366.27 L758.14 367.24 L756.75 366.91 L755.42 366.59 L755.14 365.95 L754.91 365.46 L753.97 365.31 L752.67 364.77 L752.06 364.6 L751.39 365.28 L751.21 365.81 L749.96 365.76 L748.46 365.56 L747.14 366.24 L746.44 366.72 L744.46 368.67 L743.72 369.14 L742.84 369.33 L742.6 369.45 L742.25 369.71 L741.92 370.03 L741.77 370.29 L741.66 370.56 L741.19 372.41 L741.14 372.78 L740.76 373.08 L740.5 373 L740.26 372.81 L739.96 372.78 L739.56 373.03 L738.68 373.8 L738.27 373.95 L737.61 374.08 L735.35 375.07 L734.33 375.7 L734.14 376.35 L733.83 376.8 L733.03 376.69 L732.62 377.18 L732.37 378.16 L731.78 379.31 L730.47 381.21 L727.86 383.84 L726.73 385.41 L725.94 387.68 L725.62 389.62 L725.08 391.13 L724.84 392.69 L723.52 396.09 L722.58 397.64 L722.54 398.32 L722.66 398.82 L722.83 399.24 L722.91 399.73 L722.83 400.22 L722.62 400.51 L722.28 400.65 L721.28 400.72 L721.01 400.85 L720.46 401.4 L718.9 402.48 L718.28 403.23 L717.83 405.52 L717.3 406.19 L716.61 406.71 L715.88 407.5 L715.71 407.93 L715.48 408.98 L715.24 409.43 L714.84 409.69 L714.34 409.82 L713.93 410 L713.47 411.05 L712.78 411.59 L711.89 411.95 L711.02 412.08 L709.36 411.55 L708.11 410.28 L707.02 408.76 L705.84 407.5 L704.26 406.51 L703.34 406.16 L702.33 406.02 L701.51 406.19 L700.07 406.95 L699.16 407.16 L698.75 407.05 L697.55 406.52 L697.01 406.4 L693.49 407.02 L692.77 407.44 L691.89 409.56 L690.98 412.03 L689.85 413.22 L689.63 413.38 L689.13 413.9 L688 414.39 L686.49 414.6 L685.69 414.31 L684.78 414.7 L683.61 413.91 L682.74 413.2 L681.92 412.84 L681.52 412.96 L681.12 413.47 L680.71 413.6 L680.25 413.33 L679.03 411.7 L677.79 410.82 L676.94 410.75 L674.52 411.55 L670.57 410.85 L667.01 411.14 L663.84 410.57 L659.32 411.12 L658.67 411.56 L658.05 412.17 L657.14 412.84 L655.52 413.86 L652.75 413.83 L651.04 412.44 L650.15 412.59 L649.54 412.92 L647.91 412.14 L647.26 411.25 L645.87 411.32 L644.39 411.43 L643.76 412.01 L641.47 412.27 L638.27 411.25 L636.71 410.73 L634.45 411.2 L631.27 412.12 L627.01 410.95 L625.98 411.19 L624.64 412.18 L620.78 412.76 L619.55 412.92 L611.62 412.29 L610.86 412.51 L610.28 413.02 L609.04 415.19 L608.79 415.66 L608.18 416.31 L607.71 417.12 L607.52 418.01 L606.21 420.21 L603.41 420.6 L602.2 422.99 L600.66 424.01 L600.24 424.26 L599.3 424.63 L597.42 425.07 L595.57 425.01 L590.42 424.36 L589.42 424.32 L589 424.46 L588.5 424.85 L585.36 427.05 L582.32 427.32 L580.27 428.6 L579.72 428.79 L578.09 428.99 L577.38 429.24 L576.81 429.58 L576.23 430.36 L575.01 432.52 L574.97 433.04 L574.22 435.05 L573.83 435.88 L573.61 436.13 L573.28 436.43 L572.92 436.68 L572.18 436.97 L572.23 437.38 L572.42 437.88 L571.92 438.62 L570.46 441.33 L570.25 441.9 L570.04 444.47 L569.17 444.47 L568.81 443.26 L568.1 442.75 L567.05 442.37 L566.19 442.34 L566.05 442.88 L565.64 443.35 L565.44 444.05 L565.48 444.83 L565.77 445.55 L565.55 445.95 L565.67 446.8 L565.92 447.34 L566.05 447.79 L565.91 448.41 L565.61 448.78 L565.3 449.07 L564.37 449.44 L559.92 451.04 L559.28 451.46 L557.91 451.87 L557.12 450.21 L555.25 449.15 L554.47 448.54 L553.41 448.93 L552.49 448.62 L551.61 448.08 L549.72 447.53 L549.05 446.91 L548.09 445.5 L545.2 442.67 L544.34 442.11 L543.37 442.12 L541.39 442.5 L539.03 441.81 L537.89 440.28 L537.01 438.44 L536.01 436.78 L533.58 435.48 L533.29 434.69 L533.17 433.77 L532.88 432.76 L532.48 431.82 L530.96 430.07 L529.91 427.64 L529.24 425.98 L528.24 424.05 L527.27 423.24 L526.89 422.79 L527.43 422.54 L527.8 422.62 L529.22 423.92 L529.6 424.42 L529.37 424.88 L529.7 425.42 L530.38 426.19 L530.93 426.06 L531.26 425.75 L531.74 425.02 L532.69 423.93 L532.38 423.89 L531.47 424.19 L530.69 424.08 L530.33 423.23 L530.62 421.55 L530.22 420.49 L528.08 418.46 L527.6 418.21 L524.59 418.01 L523.79 417.8 L523.12 417.1 L522.58 414.9 L522.1 413.83 L521.49 412.8 L521.2 411.76 L521.41 410.77 L522.24 409.86 L523.05 409.44 L524.71 408.85 L525.3 408.34 L525.77 407.05 L525.39 404.74 L525.63 403.41 L527.14 402.11 L530.74 402.38 L532.01 400.73 L531.15 401.3 L530.01 401.77 L528.88 401.79 L528.06 401.07 L526.18 401.81 L525.34 402.44 L525 403.61 L525.26 406.96 L525 407.59 L523.42 407.61 L522.17 405.97 L520.73 402.28 L519.73 400.53 L518.46 399.19 L507.56 391.3 L506.38 390.67 L505.35 390.39 L504.59 390.06 L502.76 388.53 L501.86 388.11 L500.99 387.67 L500.19 386.42 L499.89 384.97 L500.19 384.27 L500.73 383.81 L502.26 381.48 L502.77 380.49 L500.52 383.04 L499.29 383.92 L497.89 383.92 L497.89 384.27 L498.86 385.77 L499.33 386.75 L499.41 387.35 L498.82 387.42 L494.92 385.5 L493.49 385.03 L491.74 384.45 L490.57 384.98 L491.83 385.14 L492.42 385.44 L481.66 385.72 L480.98 386.02 L480.1 386.83 L479.28 386.93 L478.52 386.62 L477.81 386.21 L477.15 383.76 L476.93 382.5 L477.23 381.65 L476.79 379.81 L476.45 375.38 L475.69 373.63 L475.78 373 L475.66 371.77 L475.39 370.41 L475.08 369.36 L474.83 369.02 L474.07 368.38 L473.73 368.02 L473.36 367.45 L473.32 367.39 L473.23 367.07 L473.19 366.69 L472.96 365.92 L472.78 365.93 L472.71 365.86 L472.69 365.27 L472.83 365.05 L473.3 364.5 L473.36 364.22 L473.45 363.97 L473.49 363.7 L473.37 363.35 L473.79 363.07 L474.96 361.81 L475.27 361.36 L475.5 360.52 L475.89 357.82 L476.5 356.13 L477.28 354.98 L481.37 351.53 L482.59 349.34 L483.08 347.42 L484.06 344.8 L484.29 343.8 L484.27 343.22 L484.13 342.69 L484.11 342.23 L484.41 341.9 L485.83 341.61 L486.3 341.29 L486.88 341.33 L487.44 341.51 L487.99 341.58 L488.54 341.29 L489.13 341.12 L489.46 340.9 L489.92 340.28 L490.36 339.11 L490.75 338.68 L491.52 338.76 L494.03 339.8 L495.16 339.67 L495.53 338.3 L495.94 337.59 L496.33 335.88 L497.16 334.17 L497.76 332.28 L498.11 331.44 L498.56 329.83 L498.42 329.74 L497.82 329.3 L496.58 329.4 L495.42 329.76 L495.29 329.74 L495.05 329.67 L494.51 330.42 L493.42 330.91 L492.3 331.15 L491.63 331.14 L491.02 330.57 L490.59 330.16 L488.8 325.57 L488.57 325.31 L487.81 324.75 L487.5 324.43 L487.31 324.08 L487.02 323.32 L486.83 322.99 L482.13 316.93 L480.87 316 L480.26 315.69 L480.9 315.01 L481.33 314.38 L481.38 313.72 L480.87 312.98 L481.3 312.31 L482.11 309.45 L483.97 306.75 L484.21 305.96 L484.07 305.52 L483.81 305.32 L483.52 305.15 L483.3 304.79 L483.23 304.34 L483.21 303.76 L483.3 302.46 L483.6 300.52 L483.75 300.11 L484.13 299.35 L484.21 299.14 L486.19 297.51 L486.83 296.98 L487.5 296.72 L488.24 296.1 L488.84 295.38 L489.09 294.84 L489.52 294.48 L491.57 294.03 L492.29 293.67 L492.82 293.11 L493.37 292.66 L493.73 292.43 L493.68 291.62 L493.91 290.73 L493.29 289.61 L494.25 288.81 L495.24 287.42 L496.73 284.51 L497.17 283.94 L497.41 283.36 L497.34 282.84 L496.83 282.44 L497.14 281.46 L496.86 280.34 L496.24 279.31 L495.53 278.62 L494.5 277.91 L493.34 277.59 L492.17 277.72 L491.11 278.37 L490.57 278.58 L489.89 278.46 L489.24 278.12 L488.78 277.66 L488.72 277.18 L489.21 276.06 L489.3 275.48 L488.76 274.39 L487.71 273.9 L486.48 273.57 L485.38 272.95 L484.76 272.06 L484.42 270.91 L484.48 269.7 L485.08 268.65 L482.88 265.94 L482.04 265.27 L481.71 264.59 L481.5 263.37 L481.48 262.1 L481.71 261.29 L482.06 260.46 L482.29 259.14 L482.29 257.92 L481.97 257.34 L480.1 256.84 L479.16 256.39 L478.48 255.83 L478.06 254.57 L477.67 254.07 L476.17 253.29 L475.43 252.57 L474.1 250.8 L473.3 250.06 L471.86 246.06 L471.53 245.25 L471.46 245.1 L481.05 245.56 L481.66 245.39 L482.39 245.07 L483.22 244.9 L484.99 244.95 L485.75 244.71 L486.71 245.31 L488.1 245.37 L494.64 244.55 L495.29 244.28 L495.8 243.04 L495.75 242.61 L495.62 242.22 L495.63 241.68 L495.84 241.14 L496.37 240.19 L496.54 239.64 L496.47 239.16 L496.28 238.63 L496.21 238.01 L496.54 237.22 L496.88 236.93 L497.9 236.5 L498.32 236.25 L499.44 234.57 L499.59 234.01 L499.63 233.04 L499.7 232.53 L499.71 232.24 L499.55 231.65 L499.55 231.33 L499.68 231.07 L500.11 230.74 L500.25 230.51 L500.51 229.08 L500.68 228.56 L500.6 227.93 L500.81 227.31 L501.57 226.03 L499.78 222.8 L498.8 221.56 L498.19 220.59 L497.72 220.16 L497.24 219.98 L496.06 219.81 L495.53 219.66 L495 218.87 L494.68 216.88 L494.31 216.03 L494.69 215.35 L495.13 214.01 L495.53 213.47 L496.32 213.1 L498.24 211.84 L498.8 211.75 L499.1 211.7 L499.97 211.78 L500.83 211.72 L501.64 211.15 L501.78 210.8 L501.8 210.34 L501.83 209.84 L501.99 209.39 L502.27 209.07 L504.19 207.65 L504.58 207.24 L505.36 205.84 L503.87 204.43 L502.83 202.74 L502.57 200.84 L503.39 198.79 L504.43 197.31 L504.56 196.6 L504.31 195.59 L503.84 194.8 L503.35 194.27 L502.96 193.67 L502.87 192.65 L503.14 191.74 L504.17 189.84 L504.48 188.85 L504.48 188.14 L504.39 187.09 L504.03 185.13 L503.47 183.21 L503.37 182.38 L503.37 181.24 L503.46 180.66 L503.58 180.34 L503.62 180.01 L503.48 179.4 L503.42 179.01 L503.48 177.52 L504.21 177.29 L504.39 176.55 L504.17 175.77 L503.69 175.43 L503.02 175.25 L502.66 174.76 L502.29 173.52 L501.33 171.13 L500.7 170.09 L499.31 168.6 L498.87 167.93 L498.78 167.19 L499.26 166.41 L499.43 165.31 L499.45 165.3 L500.37 164.82 L503.1 165.07 L504.31 164.94 L504.92 164.33 L506.68 161.71 L507.05 160.64 L506.94 159.18 L507.1 158.77 L507.68 158.02 L509.25 156.67 L509.5 156.19 L509.83 155.31 L511.41 152.92 L511.93 152.34 L512.72 152.2 L515.62 152.16 L516.02 151.87 L518.63 150.72 L520.08 149.59 L521.51 148.12 L522.91 145.84 L523.09 145.78 L523.63 145.89 L523.81 145.84 L523.92 145.51 L523.97 145.05 L523.95 144.69 L523.81 144.66 L524.39 144.2 L525.01 143.96 L526.39 143.85 L526.4 143.34 L528.09 140.62 L528.11 140.22 L527.99 139.82 L527.96 139.36 L528.24 138.75 L529.39 137.54 L531.51 134.4 L531.06 133.82 L530.44 132.94 L528.56 130.96 L526.57 129.66 L524.4 128.86 L520.8 128.11 L520.19 128.09 L519.88 128.36 L519.58 128.72 L518.98 129.14 L518.31 129.48 L517.85 129.61 L516.6 129.14 L515.99 128.19 L515.76 127.02 L515.64 125.92 L515.44 125.36 L515.14 124.84 L515 124.33 L515.27 123.76 L515.58 123.27 L515.77 122.71 L516.86 117.84 L517.37 116.72 L516.22 116.33 L515.43 116.21 L515.08 115.79 L515.44 113.21 L515.26 112.23 L514.66 111.51 L513.58 111.05 L512.99 112.33 L511.48 112.8 L508.31 112.93 L506.98 112.53 L505.36 110.01 L504.01 109.77 L503.73 111.55 L502.67 112.21 L499.91 112.44 L498.66 112.18 L497.58 111.32 L496.96 111.01 L496.57 110.81 L495.53 111.57 L493.95 112.26 L492.55 111.62 L491.2 110.44 L489.77 109.54 L489.13 109.65 L488.35 110.09 L487.67 110.61 L487.34 110.97 L487.24 111.8 L487.53 113.73 L487.43 114.68 L486.92 115.42 L486.51 116.02 L485.05 116.94 L481.9 118.03 L481.1 118.16 L479.48 118.11 L478.81 118.23 L478.21 118.64 L477.14 119.87 L476.55 120.38 L476.37 119.43 L475.94 118.4 L475.37 117.6 L474.75 117.38 L474.32 117.34 L473.65 116.86 L473.3 116.86 L472.97 117.15 L472.89 117.51 L472.84 117.91 L472.61 118.34 L471.93 118.83 L471.03 119.15 L470.08 119.29 L469.29 119.21 L468.58 118.81 L468.55 118.25 L469.24 116.37 L466.85 116.27 L466.07 115.88 L464.84 114.99 L464.14 114.82 L462.89 115.47 L460.14 116.14 L458.93 116.06 L458.47 116.22 L458.26 116.55 L458.1 116.93 L457.8 117.28 L456.39 117.28 L456.08 115.56 L455.96 113.94 L455.09 114.28 L454.88 114.97 L454.66 115.97 L454.24 116.74 L453.42 116.76 L452.7 116.64 L452.07 116.94 L451.53 117.52 L451.09 118.24 L449.63 119.76 L449.55 119.78 L447.64 120.34 L443.81 120.1 L443.82 119.98 L444 118.55 L443.92 117.76 L443.59 117.29 L442 116.67 L441.49 115.6 L441.56 114.49 L441.98 113.41 L443.7 110.86 L444.99 109.58 L446.28 108.74 L446.99 108.14 L447.46 107.39 L447.57 106.35 L447.2 105.46 L446.53 104.8 L445.68 104.43 L444.75 104.53 L443.96 104.89 L443.29 105.08 L442.72 104.64 L442.58 103.66 L442.71 101.09 L442.31 100.18 L441.91 99.6 L440.58 100.56 L439.76 100.9 L439 100.93 L438.66 101.01 L438.27 101.27 L437.13 102.31 L436.38 102.71 L429.52 103.82 L428.68 104.15 L427.15 105.2 L426.34 105.54 L424.71 105.59 L423.93 105.74 L423.18 106.31 L422.79 106.92 L422.32 108.2 L421.98 108.81 L421.07 109.42 L419.93 109.77 L418.93 110.28 L418.43 110.65 L417.93 111.63 L417.26 112.55 L416.45 113.24 L415.53 113.5 L414.78 113.94 L414.07 114.8 L413.37 115.43 L412.63 115.17 L412.74 114.35 L411.86 102.71 L412 101.67 L412.48 101.25 L414.24 101.22 L415.06 100.98 L415.39 100.43 L415.19 99.96 L414.34 99.55 L414.15 99.17 L414.37 98.96 L415.53 98.35 L415.64 98.1 L415.75 97.53 L415.98 96.97 L416.45 96.71 L416.66 96.55 L417.49 95.48 L419.82 93.68 L420.4 93.43 L420.6 93.31 L422.02 91.96 L422.82 91.64 L423.72 91.01 L424.01 90.7 L424.17 90.2 L424.17 88.36 L424.12 87.96 L423.95 87.91 L423.58 88.03 L422.91 88.68 L422.43 89.81 L421.8 90.87 L420.7 91.35 L419.8 91.56 L417.4 92.68 L416.91 93.21 L416.43 93.32 L414.1 93.16 L413.24 93.43 L413.41 92.68 L413.87 91.35 L413.87 90.52 L414.15 90.52 L414.78 91.47 L415.03 91.01 L415.06 89.07 L414.97 88.58 L414.88 88.31 L415.03 88.16 L415.67 88.03 L417.27 88.4 L417.49 88.25 L417.81 87.47 L419.49 85.48 L420.25 84.78 L421.71 83.81 L422.35 83.18 L422.67 82.31 L422.27 82.52 L421.91 82.49 L421.46 82.31 L421.07 82.36 L420.93 82.42 L420.83 82.52 L419.85 83.12 L418.75 84.01 L418.12 84.37 L417.16 84.63 L415.75 84.76 L414.3 84.58 L413.24 83.92 L412.88 83.24 L412.68 82.09 L412.33 81.45 L411.76 81.13 L410.22 80.87 L409.9 80.63 L410.24 80.04 L411.05 79.53 L411.98 79.15 L412.63 78.99 L413.17 79.18 L413.54 79.68 L413.52 80.25 L412.94 80.63 L413.33 80.89 L413.95 81.14 L414.6 81.26 L415.06 81.08 L415.24 80.45 L415.12 79.74 L415.13 79.09 L415.67 78.61 L415.12 76.52 L415.06 75.49 L415.22 74.59 L415.63 73.87 L416.17 73.39 L416.76 73.22 L417.33 72.46 L418.96 68.76 L419.31 67.41 L419.03 67.41 L418.73 68.37 L418.29 69.31 L417.69 70.02 L416.91 70.3 L416.07 69.97 L415.53 69.21 L415.08 68.27 L414.49 67.77 L413.81 69.03 L413.71 69.78 L414.15 70.3 L413.19 71.69 L412.66 72.04 L412.03 71.53 L412.27 70.9 L411.65 71.21 L410.18 72.36 L410.81 73.13 L410.29 73.54 L408.69 74.01 L408.56 74.32 L408.21 75.69 L407.84 75.83 L407.48 76.16 L406.84 76.93 L406.18 76.18 L406.09 75.07 L405.87 74.07 L404.87 73.63 L404.2 72.98 L404.43 71.52 L405.07 69.97 L405.63 69.06 L405.6 68.34 L405.74 67.44 L406.01 66.24 L406.52 65.51 L406.73 65.08 L407.08 64.66 L407.6 64.47 L407.71 64.34 L408.99 63.6 L410.14 62 L410.81 61.38 L411.87 61.12 L412.18 60.7 L412.47 59.75 L412.35 58.77 L411.42 58.27 L411.24 59.65 L410.55 60.5 L409.53 60.95 L408.36 61.12 L406.1 60.78 L405.18 60.97 L405.33 61.99 L404.3 63.1 L403.74 63.39 L402.9 63.23 L402.31 62.71 L402.02 61.93 L401.78 60.96 L401.36 59.88 L401.91 59.89 L402.32 59.67 L402.64 59.24 L402.9 58.64 L402.54 57.94 L401.92 57.52 L401.08 57.18 L401.03 56.7 L400.8 55.89 L400.75 55.54 L400.84 55.3 L401.24 54.83 L401.36 54.46 L401.41 53.92 L401.38 53.53 L401.07 53.3 L400.31 53.22 L399.89 52.97 L399.2 51.85 L398.65 51.6 L398.65 51.98 L398.91 52.63 L398.65 52.98 L398.24 53.09 L398.02 53.03 L397.83 52.23 L397.39 52.15 L396.89 52.48 L396.5 52.85 L396.17 53.37 L395.72 54.58 L395.43 55.12 L395.22 55 L394.78 53.59 L394.38 53.22 L394.38 52.85 L394.67 52.27 L395.59 49.72 L395.62 49.34 L395.72 48.86 L395.86 48.38 L396.03 48.04 L396.2 47.5 L395.92 47.11 L395.26 46.62 L394.93 45.18 L395.31 44.85 L395.89 44.82 L396.2 44.28 L396.44 43.17 L396.96 42.66 L397.48 42.28 L397.68 41.56 L398.34 42.14 L398.92 42.3 L399.5 42.1 L400.14 41.56 L400.38 41.24 L400.5 40.94 L400.68 40.64 L401.08 40.32 L401.44 40.13 L401.76 40.03 L402.57 39.94 L402.57 39.49 L401.81 39.85 L400.82 40.09 L400.1 40.02 L400.14 39.49 L398.72 40.22 L398.1 40.14 L397.68 39.07 L399.8 37.04 L401.23 36.26 L402.89 36.99 L403.66 36.98 L404.46 36.82 L405.03 36.57 L405.59 36.08 L406.16 35.73 L406.61 34.9 L406.84 33.99 L407.17 33.99 L407.99 34.71 L409.18 34.68 L410.35 34.2 L411.12 33.61 L410.18 33.66 L409.66 33.31 L408.99 31.94 L408.8 31.96 L408.25 31.66 L407.89 31.29 L408.21 31.11 L408.65 31.07 L410.44 30.27 L412.33 28.98 L413.73 28.61 L414.06 28.17 L414.41 27.87 L414.91 27.73 L415.49 28.06 L416.88 29.49 L417.64 29.82 L418.44 29.95 L420.16 30.52 L420.99 30.65 L422.22 30.18 L423.79 29.28 L425.46 28.77 L426.98 29.44 L429.31 28.33 L429.68 27.94 L429.83 27.4 L430.19 26.93 L430.64 26.61 L431.54 26.38 L431.73 26.14 L431.84 25.85 L432.1 25.65 L434.54 25 L434.7 25.81 L435.09 26.4 L436.08 27.28 L436.65 26.59 L436.8 26.03 L436.69 24.59 L437.09 23.79 L437.99 23.95 L439.28 24.78 L439.92 25 L440.2 25.55 L440.37 26.24 L440.66 26.9 L441.68 27.92 L442.14 28.52 L442.45 29.44 L442.79 28.47 L442.77 27.52 L442.45 25.65 L442.48 24.71 L442.69 24.16 L443.17 23.72 L444 23.14 L443.12 22.72 L442.31 22.61 L440.81 22.73 L440.03 22.47 L438.96 21.31 L438.23 21.02 L439.06 20.35 L443.54 19.77 L443.85 19.66 L444.17 19.37 L444.37 18.97 L444.3 18.51 L444.08 18.46 L443.06 18.93 L440.36 19.38 L440.52 19.17 L440.64 19.07 L440.96 18.93 L440.79 18.77 L440.36 18.51 L439.83 19.31 L438.95 19.68 L436.99 19.77 L437.33 18.83 L437.5 17.54 L437.72 16.62 L438.23 16.83 L438.81 16 L438.45 15.68 L438.09 15.18 L437.87 14.57 L437.9 13.91 L438.07 13.91 L438.84 14.05 L439.14 13.91 L440.19 14.07 L441.47 13.39 L447.94 8.42 L448.1 9.1 L448.47 9.46 L448.97 9.5 L449.49 9.26 L449.02 9.29 L448.88 9.26 L448.88 8.88 L449.07 8.76 L449.28 8.56 L449.49 8.42 L448.63 7.72 L448.5 7.07 L448.72 6.41 L448.88 5.69 L449.15 5.17 L449.81 5 L451.3 5.03 L452.63 4.65 L453.88 3.9 L454.98 2.87 L455.85 1.67 L457.08 1.86 L457.61 2.74 L457.95 3.83 L458.61 4.64 L458.61 5.03 L458.35 4.88 L457.91 4.75 L457.67 4.64 L457.36 5.17 L457.16 5.72 L457.13 6.24 L457.4 6.7 L456.94 7.06 L456.8 7 L456.46 6.7 L456.18 6.99 L456.06 7.08 L455.85 7.16 L455.85 7.58 L458.08 7.7 L458.49 7.25 L457.67 5.9 L458.19 5.54 L458.73 5.51 L459.83 5.9 L459.73 5.7 L459.61 5.25 L459.52 5.03 L460.14 4.33 L460.95 3.65 L461.84 3.13 L463.61 2.67 L464.55 2.02 L465.31 1.14 L465.62 0.21 L465.76 0 L466.08 0.18 L466.4 0.65 L466.53 1.29 L466.34 1.65 L465.32 2.92 L465.29 3.81 L465.5 4.07 L465.83 3.98 L466.22 3.8 L466.3 3.64 L466.27 3.34 L466.34 3.05 L466.69 2.92 L466.99 2.89 L467.74 2.51 L467.89 3.34 L468.99 5.48 L468.86 6.45 L469.25 6.29 L469.8 5.52 L470.17 4.64 L470.71 4.85 L471.1 4.53 L471.53 4.05 L472.17 3.8 L473.92 4.01 L474.45 4.19 L478.11 6.29 L479.92 6.97 L482.71 11.98 L484.82 13.02 L484.67 13.27 L484.57 13.47 L484.44 13.64 L484.18 13.81 L484.18 14.27 L484.77 14.55 L485.13 14.38 L485.47 14.05 L486 13.81 L486.65 13.81 L487.57 14.13 L489.25 14.39 L491.97 14.28 L492.7 13.81 L493.49 14.25 L494.26 14.38 L494.79 14.77 L494.85 15.98 L494.55 16.66 L494.07 17.38 L493.84 18.23 L494.24 19.29 L494.28 19.29 L494.52 19.29 L494.77 18.3 L494.91 17.28 L495.17 16.44 L495.77 15.98 L496.17 14.55 L498.72 13.98 L503.07 13.81 L503.75 14.03 L506.41 13.81 L508.24 14.36 L509.39 14.49 L511.84 13.17 L514.1 13.41 L516.37 14.23 L517.99 15.11 L518.46 14.77 L518.97 14.64 L520.09 14.65 L520.01 14.36 L519.9 13.68 L519.82 13.4 L520.43 13.52 L521.47 14.13 L522.1 14.27 L524.39 13.81 L526.68 13.81 L527.33 13.69 L528.49 13.14 L529.55 12.87 L529.82 12.55 L530.16 12.24 L530.76 12.14 L532.18 13.2 L532.75 13.4 L536.2 13.78 L536.89 13.4 L537.59 13.75 L538.25 13.45 L538.92 12.92 L539.62 12.6 L544.78 12.6 L545.01 12.04 L544.71 11.59 L544.52 11.1 L545.08 10.46 L544.99 10.26 L544.87 9.81 L544.78 9.63 L546.21 9.63 L546.73 9.35 L546.93 8.6 L547.23 8.02 L547.93 8.07 L549.38 8.79 L550.33 9.62 L552.77 12.53 L553.6 13.81 L553.9 13.81 L554.14 12.94 L554.47 13.2 L554.99 14.27 L557.3 14.65 L566.25 14.27 L567.6 14.63 L567.74 15.49 L567.17 16.46 L566.4 17.2 L566.7 17.62 L567.16 17.34 L568.09 17.02 L568.55 16.78 L568.87 16.38 L569 15.97 L569.24 15.65 L569.9 15.53 L571.77 15.71 L572.48 15.97 L575.68 18.12 L577.19 18.67 L581.02 18.86 L582.09 19.16 L582.56 19.94 L583.1 19.59 L586.2 20.55 L586.56 20.42 L587.21 19.85 L587.72 19.75 L588.2 19.89 L589.2 20.43 L592.36 21.1 L595.98 22.82 L596.88 23.09 L606.77 23.97 L606.95 23.99 L608.13 25.14 L609.06 24.22 L610.31 23.98 L611.54 24.32 L612.4 25.14 L612.68 25.14 L613.15 24.37 L613.57 24.16 L615.63 24.4 L621.15 23.81 L622.38 22.85 L625.19 21.96 L626.25 21.8 L628.24 21.8 L628.49 21.64 L628.53 21.34 L628.6 21.06 L628.97 20.93 L629.28 21.03 L630.36 21.8 L630.58 21.51 L630.78 21.44 L630.99 21.44 L631.27 21.38 L631.07 21.27 L630.66 20.93 L630.66 20.55 L632.2 19.42 L632.97 19.09 L633.7 19.29 L634.25 18.95 L634.38 19.02 L634.61 19.29 L635.9 18.49 L637.23 18.2 L638.55 18.46 L639.79 19.29 L637.86 20.17 L637.05 20.71 L636.45 21.38 L636.92 21.94 L637.12 22.11 L637.36 22.26 L637.21 22.3 L637.09 22.3 L637.02 22.36 L637.03 22.64 L637.52 22.66 L637.92 22.58 L638.58 22.26 L638.89 21.95 L639.48 21.1 L639.65 20.93 L640.04 21.07 L640.46 21.66 L640.87 21.8 L641.06 21.55 L640.95 21 L640.69 20.43 L640.4 20.13 L640.4 19.75 L641.02 19.84 L641.28 19.93 L641.58 20.13 L641.66 19.83 L641.72 19.83 L641.91 19.75 L641.58 19.29 L642.07 19.08 L643.38 18.99 L643.89 18.67 L644.33 18.23 L644.82 17.98 L648.22 16.9 L649.34 16.98 L649.25 18.04 L650.02 18.08 L650.61 18.53 L651.1 19.05 L651.51 19.29 L654.57 19.83 L654.8 20.05 L654.94 20.36 L654.99 20.74 L654.92 21.27 L654.75 21.36 L654.47 21.29 L654.11 21.38 L653.92 21.22 L653.5 20.95 L653.08 20.83 L652.89 21.16 L652.74 21.51 L652.38 21.84 L651.68 22.26 L652.56 22.43 L653.06 23.11 L653.48 23.38 L654.11 22.26 L654.59 22.98 L655.21 23.04 L656.53 22.64 L657.17 22.76 L659.29 23.51 L662.02 23.89 L664.04 24.65 L664.62 24.76 L665.08 25.03 L666.11 26.21 L667.27 26.57 L668.13 26.84 L668.98 26.95 L669.99 26.17 L671.4 27.05 L673.61 28.97 L673.61 28.51 L673.08 27.04 L672.93 26.28 L672.67 25.84 L672.67 25.6 L672.89 25.31 L673.48 25.11 L674 24.49 L675.93 23.29 L676.64 23.09 L676.64 22.64 L676.34 22.64 L676.34 22.26 L677.08 21.82 L678.18 21.7 L680.45 21.8 L682.55 21.59 L683.48 21.21 L684.25 20.93 L684.82 21.07 L685.75 21.77 L686.63 22.64 L687.01 23.3 L687.53 24.84 L687.7 26.13 L687.88 25.89 L688.22 24.76 L688.26 24.47 L688.24 24.11 L688.29 23.76 L688.5 23.51 L689.02 23.41 L689.55 23.56 L690.05 23.78 L691.44 24.03 L694.01 25.14 L695.92 25.54 L696.92 25.94 L697.77 27.24 L702.08 29.29 L703.87 29.83 L705.76 30.04 L707.69 29.81 L709.17 29.4 L709.68 29.35 L709.94 29.54 L710.25 29.98 L710.65 30.41 L711.2 30.6 L711.31 30.54 L711.46 30.39 L711.67 30.25 L711.97 30.18 L712.18 30.32 L712.28 30.6 L712.41 30.89 L712.73 31.02 L714.01 30 L714.57 29.81 L715.49 29.67 L718.64 28.51 L719.66 27.86 L720.17 27.62 L720.82 27.65 L721.35 28.08 L721.67 28.67 L722.02 28.97 L722.64 28.51 L722.39 28.34 L722.01 27.9 L721.71 27.65 L723.52 26.83 L725.19 25.31 L726.79 24.44 Z M895.41 82.32 L894.4 82.17 L893.82 81.72 L893.73 80.96 L894.22 79.88 L894.73 79.64 L895.19 80.29 L895.64 81.3 L896.13 82.16 L895.98 82.22 L895.53 82.32 Z M10.37 879.46 L11.25 879.59 L12.03 880.05 L12.58 880.69 L12.8 881.35 L12.54 882.18 L10.7 884.95 L10.65 885.26 L10.68 885.57 L10.68 885.88 L10.53 886.16 L10.31 886.31 L10.07 886.41 L9.87 886.56 L9.79 886.86 L9.64 887.12 L9.31 887.4 L8.98 887.75 L8.83 888.22 L8.71 889.39 L8.34 889.98 L7.69 890 L6.73 889.43 L6.07 888.71 L5.66 888.03 L5.07 887.54 L1.79 887.08 L0.91 886.67 L0.3 885.98 L0 884.21 L1.19 883.64 L3.09 883.82 L4.91 884.26 L5.57 883.82 L7.29 882.14 L7.64 881.67 L7.69 881.13 L7.88 880.89 L8.83 880.46 Z M123.34 870.5 L123.7 870.8 L124.4 871.22 L124.58 871.53 L124.46 872.35 L124.11 873.25 L124 874.16 L124.58 874.97 L124.58 875.31 L124.09 875.55 L123.77 875.98 L123.34 877.06 L123.73 877.78 L124.03 878.68 L123.95 879.45 L123.2 879.77 L122.65 880.15 L121.22 881.94 L120.61 882.52 L117.48 883.5 L116.97 883.76 L116.76 883.8 L115.59 885.12 L115.06 885.37 L114.6 885.14 L114.18 884.77 L113.75 884.57 L111.83 884.43 L110.99 884.23 L110.27 883.92 L107.87 881.86 L107.51 881.35 L107.33 881 L106.4 880.47 L105.99 880.14 L105.81 879.85 L104.52 876.99 L104.25 875.96 L104.48 874.97 L104.3 874.39 L104.22 873.61 L104.27 872.82 L104.48 872.22 L104.88 871.77 L106.63 870.81 L107.42 870.21 L108.51 869.16 L109.26 867.9 L109.02 866.69 L109.54 866.23 L109.72 865.32 L109.63 864.32 L109.36 863.59 L109.85 863.55 L110.33 863.58 L110.77 863.7 L111.18 863.93 L111.82 863.77 L114.21 864.59 L117.57 864.59 L120.35 865.26 L121.41 864.92 L121.24 863.21 L122.55 862.97 L122.73 863.06 L122.97 863.71 L122.96 864.1 L122.58 864.28 L122.27 864.89 L122.3 866.26 L122.58 868.25 L122.69 868.59 L122.79 869.19 L122.98 869.87 Z M38.11 861.59 L40.35 861.05 L42.41 861.67 L44.29 862.9 L46.71 864.66 L47.23 865.83 L47.49 866.95 L46.8 867.94 L45.93 868.51 L44.62 869.75 L43.65 870.43 L42.66 870.68 L41.53 871.06 L40.41 870.78 L38.09 869.33 L36.62 867.1 L36.61 865.31 L36.81 863.41 Z M77.3 864.48 L76.71 865.34 L76.01 866.21 L73.13 869.12 L72.47 870.18 L72.05 870.81 L70.54 870.49 L68.11 871.43 L67.09 871.84 L66.25 872.17 L65.52 872.03 L65.04 871.33 L64.94 870.86 L65.02 870.26 L64.61 870.09 L64.26 869.78 L64.13 869.37 L64.04 868.42 L63.96 868.06 L63.35 867.3 L61.61 865.58 L61.26 864.78 L60.96 863.7 L60.29 862.86 L59.56 862.16 L59.1 861.49 L58.8 859.27 L58.65 858.79 L58.03 857.82 L57.49 856.64 L56.02 855.13 L55.6 854.13 L56.67 853.44 L59.09 852.3 L59.96 852.68 L61.01 853.41 L61.53 853.57 L62.08 853.56 L63.35 853.19 L64.33 852.7 L65.77 852.22 L66.79 851.82 L67.67 852.03 L69.45 851.87 L70.32 851.8 L71.22 851.08 L72.35 850.95 L72.83 850.74 L73.77 850.63 L74.67 849.92 L76.75 848.05 L77.62 847.27 L77.89 846.84 L78 846.1 L78.16 845.79 L79 845.34 L79.36 845.07 L80.16 844.62 L81.15 844.44 L81.96 844.09 L82.24 843.15 L82.96 843.43 L87.3 843.56 L90.02 842.58 L91.07 843.15 L90.66 844.58 L89.31 845.56 L86.02 847.38 L85.28 848.76 L84.36 849.66 L83.14 850.95 L81.91 851.98 L81.12 852.29 L80.51 852.8 L80.05 853.75 L80.03 854.81 L80.28 855.66 L80.39 856.16 L80.25 856.68 L79.82 857.05 L79.42 857.49 L79.12 858.67 L77.67 861.37 L77.29 863.57 Z M186.39 834.86 L188.04 834.17 L189.68 833.95 L191.19 834.44 L192.48 835.89 L192.98 837.6 L193.12 839.88 L192.79 844.19 L192.5 845.24 L191.71 847.17 L191.55 847.86 L191.5 849.55 L191.55 850.09 L191.68 850.42 L192.09 851.13 L192.15 851.5 L191.94 851.98 L191.14 852.72 L190.97 853.02 L190.95 853.48 L190.87 853.97 L190.72 854.42 L189.97 855.48 L189.61 856.34 L189.12 858.05 L188.12 859.72 L186.65 860.54 L181.95 861.3 L179.91 861.92 L178.42 862.95 L176.66 863.42 L175.74 863.93 L174.31 865.51 L173.11 867.18 L171.78 868.6 L169.93 869.47 L168.78 869.47 L167.03 868.65 L166.13 868.44 L163.18 868.61 L162.64 868.44 L162.81 868.26 L162.99 867.66 L163.11 867.06 L163.09 866.86 L163.41 866.77 L164.93 867.03 L165.8 866.96 L167.45 866.42 L170.01 865.25 L173.17 863.16 L174.5 861.87 L175.2 861.01 L175.69 860.18 L175.96 859.2 L176.2 856.7 L176.59 855.8 L177.56 854.26 L178.67 850.67 L178.92 850.09 L179.49 849.65 L180.81 847.47 L181.82 844.97 L183.57 842.38 L184.08 839.86 L184.72 838.32 L184.94 836.49 L185.18 835.83 L185.64 835.31 Z M18.28 830.67 L18.19 831.68 L18.51 832.89 L18.92 833.74 L19.79 834.19 L19.83 835.12 L18.49 836.68 L17.86 837.81 L18.21 838.82 L18.74 840.63 L18.38 841.59 L18.1 842.91 L17.06 844.34 L16.17 846.32 L15.35 848.02 L14.95 849.05 L14.67 849.05 L14.41 848.57 L13.42 848.04 L13.11 847.08 L12.78 844.59 L12.27 843.98 L11.94 843.17 L11.02 841.93 L10.77 840.81 L9.07 838.12 L8.89 836.84 L8.7 836.04 L8.49 835.25 L7.77 834.72 L7.33 834.16 L7.57 832.62 L8.73 830.94 L10.26 829.56 L11.38 828.79 L12.3 829.38 L13.39 829.55 L14.47 829.81 L16.26 829.11 L17.14 829.46 L17.87 830.12 Z M208.15 809.25 L208.93 809.08 L209.77 809.61 L211.05 810.83 L210.61 811.86 L210.44 812.69 L210.11 813.37 L209.23 813.96 L209.06 814.74 L209.21 815.43 L209.44 816.17 L209.53 817.08 L209.44 817.44 L209.07 818.12 L208.92 818.51 L208.89 818.93 L208.97 819.82 L208.92 820.24 L208.19 821.48 L206.93 822.6 L205.48 823.4 L203.4 823.93 L202.96 824.4 L202.61 824.88 L202.07 825.09 L201.37 825.15 L200.35 825.39 L199.64 825.44 L198.09 825.79 L196.9 826.71 L195.96 828.04 L195.19 829.6 L194.91 829.6 L194.44 828.9 L193.52 828.61 L191.41 828.59 L191.07 828.32 L190.79 827.71 L190.67 827.1 L190.82 826.83 L191.31 826.67 L191.69 826.28 L192.15 825.44 L192.32 824.61 L192.5 822.11 L192.64 821.44 L194.13 819.01 L194.91 818.16 L195.54 817.69 L196.26 817.36 L197.11 817.15 L198.11 817.08 L198.94 816.84 L200.44 815.56 L201.31 815 L202.14 814.73 L202.84 814.63 L205.12 814.63 L205.74 814.43 L206.23 813.81 L206.77 812.57 L207.25 810.87 L207.59 810.01 Z M207.98 806.98 L208.37 807.91 L207.75 809.11 L206.63 809.95 L205.56 809.79 L205.56 809.41 L206.25 808.68 L206.6 807.54 L207.03 806.73 Z M774.72 355.14 L774.31 356.39 L774.39 357.68 L775 359.77 L774.09 358.73 L773.9 357.07 L773.94 355.23 L773.75 353.64 L773.98 353.61 L774.03 353.71 L774.03 353.86 L774.08 353.99 L774.23 354.23 L774.5 354.81 Z M875.1 302.54 L876.85 301.76 L877.59 302.7 L877.55 303.95 L876.49 304.19 L874.97 304.15 L872.79 302.72 L872.07 302.34 L871.21 302.97 L870.78 303.27 L870.06 304.32 L869.35 304.77 L868.73 304.57 L868.93 303.42 L868.75 302.98 L868.75 302.39 L868.98 302.01 L869.19 301.49 L869.21 301.03 L868.89 300.84 L868.72 300.62 L868.98 300.19 L869.53 299.55 L869.84 299.88 L870.29 299.69 L870.73 299.03 L870.88 298.15 L871.06 298.12 L871.11 298.2 L871.11 298.33 L871.15 298.47 L873.31 301.58 Z M878.64 278.93 L878.41 279.44 L878.68 280.59 L879.4 282.49 L878.66 282.53 L878.08 283 L877.69 283.73 L877.55 284.62 L877.32 284.97 L875.76 286 L874.37 288.15 L873.81 288.62 L872.58 289.28 L872.09 289.86 L871.93 289.64 L871.64 289.37 L871.49 289.12 L870.76 290.07 L870.14 290.41 L869.67 292.34 L869.63 293.74 L868.18 293.76 L867.75 292.62 L866.98 292.02 L866.33 292.27 L866.02 292.27 L865.87 292.2 L865.83 292.16 L865.39 292.27 L865.06 291.56 L864.31 291.32 L863.56 291.56 L863.26 292.27 L861.85 291.32 L861.34 290.72 L861.14 289.69 L861.68 288.31 L861.82 287.47 L861.42 286.78 L861.79 286.43 L862.24 286.15 L862.74 286.08 L863.26 286.39 L863.59 286.1 L864.02 285.99 L865.09 286 L864.7 283.59 L864.73 282.25 L865.24 281.67 L865.82 281.43 L866.49 280.88 L867.57 279.72 L867.85 279.72 L868.25 280.07 L869.13 279.39 L869.64 279.72 L870.52 278.98 L871.74 278.33 L872.98 277.99 L873.91 278.16 L874.32 277.61 L874.94 277.35 L875.58 277.4 L876.31 278 L876.62 278.1 L877.41 278.16 L877.92 278.28 L878.28 278.54 Z M956.34 239.06 L957.61 239.43 L960.13 240.93 L961.66 241.06 L961.4 241.66 L961.44 242.14 L961.59 242.57 L961.66 243.04 L961.49 243.34 L961.22 243.56 L961.09 243.93 L961.36 244.65 L960.75 246.26 L960.28 247.06 L959.69 247.4 L958.94 247.68 L958.44 248.36 L958.3 249.26 L958.63 250.17 L956.82 251.83 L954.95 254.09 L953.55 256.86 L953.14 260.06 L952.7 259.8 L952.53 259.64 L951.81 262.02 L950.41 263.53 L946.34 266.06 L944.63 267.54 L944.29 268.11 L944.1 268.29 L943.7 268.59 L943.29 268.74 L943.1 268.52 L941.89 266.7 L941.61 266.5 L940.91 266.18 L940.64 265.95 L940.44 265.42 L940.35 264.79 L940.2 264.25 L939.88 264.03 L939.45 263.9 L938.76 263.33 L938.37 263.2 L937.84 263.27 L937.14 263.54 L936.7 263.6 L932.83 263.31 L931.1 262.6 L930 261.21 L929.53 258.07 L928.88 257.65 L929.01 256.72 L929.69 255.31 L929.19 254.12 L927.93 252.96 L926.44 252.09 L925.27 251.74 L924.3 252.05 L921.44 253.65 L920.84 254.31 L920.36 255.87 L919.26 257.03 L918.04 257.18 L917.2 255.71 L917.11 255.59 L916.99 255.13 L917.13 254.77 L917.51 254.53 L916.32 253.31 L915.96 253.8 L915.62 254.01 L915.31 253.87 L915.08 253.31 L913.85 254.03 L913.56 254.1 L913.13 253.78 L912.76 252.75 L911.95 252.09 L911.74 251.06 L911.78 249.89 L912.04 249.02 L915.23 247.01 L916.17 246.8 L916.96 246.28 L919.15 243.92 L919.81 243.56 L920.7 243.43 L921.46 243.18 L922.22 242.56 L923.6 241.06 L923.78 240.79 L924.1 240.07 L924.2 239.88 L924.41 239.83 L924.92 239.93 L925.12 239.88 L926.19 238.78 L926.33 238.5 L926.53 238.37 L927.43 237.33 L927.73 237.08 L928.05 236.99 L929.36 236.32 L930 235.81 L930.51 235.28 L931.02 234.87 L931.68 234.71 L931.84 234.59 L932.12 234.07 L932.29 233.95 L933.22 234.03 L933.64 233.95 L934.94 233.32 L937.62 231.52 L938.99 231.15 L941.49 230.91 L943.95 230.27 L948.56 228.38 L949.17 229.17 L949.4 228.93 L949.53 228.86 L950.1 229.17 L949.63 229.52 L948.07 230.26 L947.5 230.39 L946.85 230.74 L946.25 231.4 L945.72 231.86 L945.22 231.58 L944.89 231.58 L944.8 233.45 L946.37 233.73 L949.77 232.77 L949.77 233.13 L949.33 233.45 L949.28 233.84 L949.32 234.27 L949.17 234.71 L948.9 235.01 L948.65 235.18 L947.93 235.5 L946.52 235.86 L946.2 236.31 L946.13 237.51 L946.65 238.8 L947.81 239.94 L949.24 240.75 L950.53 241.06 L953.58 241.06 L954.36 240.75 L955.71 239.37 Z M998.48 230.89 L998.68 231.75 L999.63 233.32 L1000 234.27 L999.7 234.27 L999.52 233.9 L999.23 233.57 L998.88 233.28 L998.48 233.08 L998.35 236.89 L996.05 237.2 L992.89 235.65 L985.69 230.87 L984.19 230.27 L982.41 230.23 L979.21 230.89 L977.5 230.27 L977.68 229.58 L977.72 228.75 L977.87 227.98 L978.38 227.5 L978.02 227.18 L977.11 226.85 L976.71 226.5 L976.28 225.8 L976.27 225.52 L976.45 225.22 L976.56 224.51 L977.11 223.8 L980.2 223.11 L981.26 223.55 L985.55 223.11 L987.33 223.19 L987.84 223.11 L988.47 222.84 L989.21 222.23 L989.69 221.96 L989.81 222.64 L990.21 223.11 L991.2 223.9 L991.11 224.07 L991.01 224.5 L991.04 224.93 L991.34 225.13 L991.62 224.95 L991.95 224.56 L992.39 223.9 L992.3 223.05 L992.6 222.82 L992.87 223.13 L992.69 223.9 L992.96 224.31 L994.21 225.13 L994.46 225.57 L994.66 225.84 L995.12 226.28 L995.36 226.41 L996.02 226.54 L996.33 226.71 L996.79 227.36 L997.17 228.31 L997.13 229.16 L996.33 229.48 L997.02 229.83 L997.73 229.78 L998.26 229.93 Z M939.94 274.64 L939.8 276.19 L938.9 277.52 L937.51 277.39 L936.75 275.46 L937.94 274.31 L939.72 273.53 Z M616.2 497.43 L616.26 497.44 L616.34 497.46 L616.3 497.5 L616.23 497.49 L616.16 497.47 L616.12 497.44 L616.16 497.42 Z M633.85 495.12 L633.87 495.09 L633.89 495.11 L633.86 495.15 L633.84 495.13 Z M633.94 494.98 L633.98 494.98 L633.99 495.01 L633.96 495.01 L633.93 495.01 L633.92 495.01 L633.92 494.99 Z M699.11 496.75 L699.33 496.71 L699.45 496.92 L699.24 497.1 L699.04 496.97 Z M566.49 456.86 L566.61 456.98 L566.53 457.12 L566.42 457.08 L566.4 456.94 Z "/>
</g>
</svg>
