<svg xmlns="http://www.w3.org/2000/svg" viewBox="0 0 1000 803.1">
<g fill="#ccc" stroke="#333" stroke-width="0.5" stroke-linejoin="round">
<path fill-rule="evenodd" d="M735.54 492.01 L734.87 491.08 L735.95 491.08 Z M189.74 798.56 L190.54 797.38 L192.73 795.75 L194.03 796.02 L194.48 797.16 L194.48 797.45 L193.94 799.36 L191.53 802.76 L189.83 803.1 L188.31 802.05 L188.44 800.51 Z M1.07 617.87 L0 616.05 L0.89 614.78 L5.54 612.74 L6.79 613.62 L3.44 617.57 Z M185.45 526.61 L182.68 526.18 L181.74 524.45 L181.88 522.18 L184.15 520.14 L185.76 520.07 L187.86 521.91 L188.67 523.82 Z M239.7 419.52 L238.31 416.93 L239.92 413.6 L241.22 413.39 L242.74 414.34 L243.41 416.78 L242.02 419.32 Z M184.56 419.25 L181.88 416.64 L181.47 413.91 L182.68 413.28 L185.99 415.82 L186.79 417.59 L186.3 419.14 Z M234.56 407.83 L232.01 407.01 L231.88 404.42 L232.95 403.19 L234.61 402.87 L236.48 403.65 L237.29 405.37 Z M989.99 214.41 L990.44 214.63 L991.87 217.29 L991.15 218.25 L989.9 218.41 L986.91 218.8 L983.29 222.09 L981.23 220.71 L980.25 218.27 L981.23 214.57 L983.02 214.13 L988.65 213.63 Z M995.35 164.89 L991.73 164.41 L989.81 162.37 L989.45 160.09 L990.35 159.16 L995.98 159.57 L997.77 160.36 L998.03 160.41 L1000 163.09 L998.97 164.78 L998.3 165.32 Z M137.77 43.4 L133.97 41.67 L134.28 40.37 L137.77 38.02 L140.05 37.66 L142.33 39.93 L140.23 43.08 Z M544.02 6.08 L541.51 5.78 L538.92 2.66 L539.46 1.16 L540.71 1.5 L545.31 0 L545.8 1.91 L545.09 4.87 Z M183.22 754.29 L182.46 752.66 L184.02 753.18 Z "/>
</g>
</svg>
