<svg xmlns="http://www.w3.org/2000/svg" viewBox="0 0 1000 1764.95">
<g fill="#ccc" stroke="#333" stroke-width="0.5" stroke-linejoin="round">
<path fill-rule="evenodd" d="M993.59 1238.75 L994.68 1245.89 L999.27 1261.83 L1000 1271.22 L997.45 1289.15 L976.84 1360.7 L975.67 1368.07 L975.23 1377.83 L973.71 1385.97 L967.26 1398.53 L965.84 1404.14 L963.29 1411.85 L954.62 1425.43 L950.54 1431.83 L953.6 1442.79 L948.69 1455.79 L906.55 1522.58 L892.49 1536.67 L866.52 1555.13 L858.04 1557.67 L846.67 1563.77 L763.6 1629.18 L747 1638.19 L693.06 1657.38 L693.02 1657.38 L692.29 1650.88 L692.26 1650.5 L689.05 1647.97 L688.98 1647.99 L688.25 1648.17 L685.56 1648.9 L683.84 1652.51 L682.97 1660.09 L680.53 1662.95 L676.6 1664.01 L671.39 1666.32 L661.67 1672.2 L651.94 1676.49 L605.36 1686.5 L582.78 1694.27 L558.02 1698.77 L546.73 1703.13 L539.95 1712.69 L527.82 1710.31 L520.36 1713.19 L516.13 1714.83 L498.91 1727.6 L481.68 1740.34 L473.74 1749.57 L455.42 1748.49 L455.39 1748.47 L447.74 1749.57 L441.77 1751.84 L435.61 1755.35 L424.72 1763.52 L421.59 1764.25 L418.46 1764.95 L411.03 1762.07 L403.16 1758.01 L398.65 1756.63 L395.51 1755.7 L369.62 1758.78 L362.23 1757.33 L358.47 1753.61 L356.07 1748.72 L354.18 1745.87 L352.76 1743.73 L345.18 1748.14 L338.41 1748.65 L326.35 1746.91 L323.48 1746.49 L321.33 1745.54 L319.83 1743.41 L317.94 1741.31 L314.44 1740.34 L312.37 1741.07 L310.73 1742.54 L308.98 1743.78 L306.65 1743.71 L305.85 1743.05 L305.12 1742.41 L302.28 1738.36 L300.9 1737.52 L300.53 1737.3 L300.53 1737.26 L297.36 1736.15 L278.24 1729.28 L270.41 1727.67 L264.84 1726.5 L255.12 1718.68 L252.93 1717.62 L248.63 1715.53 L248.56 1715.49 L245.28 1718.84 L236.94 1712.1 L200.49 1673.41 L197.5 1671.07 L197.47 1671.05 L197.14 1670.63 L196.12 1669.4 L195.57 1667.51 L195.72 1663.68 L194.59 1661.71 L193.06 1659.71 L189.02 1654.42 L168.37 1610.75 L167.49 1606.57 L167.49 1606.54 L167.6 1602.8 L167.71 1599.06 L167.71 1599.02 L166.95 1596.75 L163.23 1589 L159.44 1567.99 L151.21 1553.22 L146.04 1532.09 L144.15 1524.36 L143.2 1523.61 L141.27 1522.43 L139.27 1520.67 L138.03 1518.2 L138.54 1515.56 L140.72 1514.92 L143.02 1515.18 L143.05 1515.18 L144.15 1515.12 L140.72 1491.5 L140.43 1489.61 L131.11 1465.63 L92.76 1367.12 L86.68 1333.08 L86.1 1329.71 L86.1 1297.28 L86.6 1296.01 L91.05 1285.31 L92.21 1280.18 L92.1 1274.95 L92.1 1274.86 L70.69 1198.7 L73.64 1187.53 L73.49 1194.41 L75.17 1198.74 L77.57 1202.08 L79.69 1206.03 L83.98 1221.13 L86.1 1224.76 L88.86 1224.76 L89.52 1220.45 L90.79 1218.63 L91.92 1218.34 L91.96 1218.34 L92.21 1218.6 L92.1 1204.8 L92.1 1204.7 L91.12 1198.67 L88.86 1193.69 L86.75 1192.24 L80.85 1190.96 L78.23 1189.2 L77.94 1188.57 L76.33 1185.32 L77.06 1181.74 L78.77 1178.4 L79.69 1175.21 L57.69 1014.11 L54.96 1008.27 L56.81 1006.28 L58.2 1006.08 L61.4 1008.27 L62.13 1000.46 L64.35 991.4 L64.9 987.07 L65.45 982.71 L62.93 975.91 L59.55 969.69 L58.89 965.55 L58.23 961.42 L58.27 944.77 L47.96 894.13 L46.76 888.29 L41.45 877.16 L36.93 853.8 L29.61 835.35 L18.36 784.39 L18.36 769.92 L20.18 770.75 L20.29 770.87 L20.43 771 L20.43 771.46 L21.41 773.01 L23.02 764.6 L20.65 737.89 L18.36 729.8 L25.71 724.94 L32.67 715.94 L37.69 705.69 L39.7 697.08 L41.74 691.45 L54.96 670.56 L54.81 670.91 L48.15 686.68 L39.7 701.72 L41.55 705.38 L42.03 706.28 L45.34 709.59 L49.68 711.32 L54.96 711.29 L50.62 723.58 L46.11 732.59 L44.14 734.16 L42.06 734.38 L40.43 735.65 L39.7 740.45 L40.1 751.14 L39.7 754.47 L32.12 778.69 L32.41 783.18 L33 792.16 L40.83 801.48 L43.05 804.13 L34.09 822.89 L48.36 833.28 L69.12 834.91 L79.69 827.43 L77.68 819.37 L74.3 813.07 L72.98 810.66 L71.38 808.67 L67.41 803.67 L62.93 800.8 L61.62 795.91 L76.7 767.1 L76.12 761.88 L74.19 758.02 L71.96 754.78 L70.58 751.39 L70.22 745.95 L70.73 736.57 L70.58 732.7 L70.58 732.59 L70.33 731.86 L69.12 728.64 L68.4 727.97 L67.52 727.15 L66.65 725.31 L67.52 720.25 L69.63 715.96 L75.5 708.27 L76.7 703.26 L77.65 693.8 L81.83 674.87 L86.1 630.69 L88.83 625.67 L91.78 623.18 L94.03 620.18 L94.98 613.57 L94.98 594.74 L97.57 585.49 L103.65 579.54 L110.86 574.63 L116.69 568.33 L117.42 566.1 L121.86 552.25 L122.48 551.66 L122.81 551.35 L123.79 547.3 L127.94 538.24 L131.91 494.17 L121.13 466.06 L122 461.17 L122.81 429.11 L122.81 428.66 L121.71 417.96 L120.4 412.68 L118.07 408.7 L116.25 404.17 L120.4 401.92 L126.41 400.79 L130.38 399.58 L156.35 376.07 L169.9 369.38 L175.54 364.42 L178.53 353.39 L183.88 342.05 L186.94 326.29 L201.33 288.92 L201.84 286.85 L203.18 281.39 L205.95 270.34 L205.95 243.99 L206.93 240.14 L206.06 237.54 L200.82 236.52 L188.47 230.06 L183.66 225.56 L180.64 217.03 L180.13 215.48 L177.98 204.85 L177.76 198.82 L183.12 193.15 L193.02 188.19 L204.02 184.66 L213.05 183.31 L217.1 181.23 L226.93 168.12 L228.06 167.27 L229.77 165.94 L233.05 163.99 L237.09 162.47 L242.22 161.66 L237.96 153.76 L235.41 150.29 L232.83 146.82 L226.24 140.28 L217.53 133.74 L184.43 114.21 L177.76 105.88 L192.18 106.34 L205.84 111.84 L232.79 127.58 L258.5 134.08 L265.28 138.43 L275.88 147.74 L278.5 152.65 L273.04 155.46 L274.24 158.56 L275.84 161.66 L273.04 164.72 L273.07 164.74 L282.43 171.07 L304.54 165.65 L344.96 149.53 L355.85 150.58 L379.71 157.19 L407.86 169.93 L429.09 174.03 L429.16 174.03 L398.72 153.06 L388.23 148.18 L378.91 146.15 L377.52 145.5 L376.17 144.86 L368.09 138.69 L365.03 136.88 L361.97 136.4 L358.29 136.59 L352.76 136.88 L349.26 138.23 L348.75 139.01 L347.77 140.65 L346.02 141.55 L340.08 137.14 L337.72 136.73 L323.18 137.12 L319.03 135.9 L287.2 108.2 L273.55 99.32 L273.51 99.32 L268.63 97.16 L245.61 87.04 L237.31 82.22 L231.74 82.14 L232.79 93.19 L235.89 96.44 L240.69 100.12 L243.54 104.6 L240.69 110.4 L237.31 111.44 L234.03 109.66 L231.04 107.15 L222.45 102.66 L205.73 88.02 L196.12 83.88 L196.15 83.92 L201.03 89.31 L209.85 96.96 L214.73 102.5 L203.88 100.39 L193.17 95.9 L171.64 83.88 L154.49 70.32 L144.29 66.7 L143.27 66.07 L139.41 63.56 L135.81 62.1 L135.26 65.32 L130.34 61.94 L128.49 57.56 L127.61 52.33 L125.86 46.42 L122.91 41.37 L121.17 39.08 L116.58 33.06 L113.63 27.83 L123.32 22.95 L140.94 6.56 L148.88 3.01 L148.92 3.01 L183.88 6.12 L202.13 4.07 L208.79 4.84 L211.41 10.9 L210.98 20.42 L212.29 23.73 L216.11 24.98 L219.83 25.52 L230.53 28.29 L232.79 29.51 L234.79 33.5 L239.6 33.34 L243.39 32.17 L244.85 31.73 L247.03 31.41 L248.56 31.19 L248.6 31.21 L252.06 33.24 L253.55 34.11 L266.08 47.82 L305.56 90.97 L319.47 99.76 L351.74 114.72 L352.76 115.17 L352.76 111.81 L336.51 103.55 L297.18 71.21 L264.95 33.83 L248.56 25 L222.89 18.89 L216.11 14.01 L215.24 7.11 L224.63 3.01 L227.69 2.49 L237.02 0.92 L255.55 0 L264.48 1.68 L270.67 6.06 L274.78 20.92 L278.9 27.13 L337.5 96.29 L346.13 102.66 L363.61 112.69 L487.18 213.27 L487.65 214.08 L490.79 219.36 L495.81 225.63 L505.43 234.71 L511.54 242.67 L506.12 245.53 L506.08 245.54 L503.02 244.16 L502.66 243.99 L502.59 243.98 L497.89 237.89 L495.3 236.56 L495.27 236.52 L487.18 235.19 L483.65 236.26 L485.4 239.88 L485.98 241.02 L509.21 262.76 L518.28 267.76 L518.32 267.78 L514.71 262.15 L512.53 257 L513.66 253.2 L519.85 251.74 L522.76 253.72 L527.5 267.78 L531.83 276.43 L548.84 310.54 L545.41 309.26 L535.95 305.74 L530.01 305.63 L527.5 312.08 L530.99 313.73 L538.28 314.93 L544.76 319.02 L544.83 319.57 L545.78 329.38 L545.85 329.38 L548.84 329.38 L550.33 326.78 L551.68 325.66 L553.21 324.92 L555.25 323.48 L555.25 323.52 L557.54 332.52 L557.8 333.64 L564.13 348.16 L572.62 361.17 L581.25 366.82 L581.91 367.35 L582.93 368.22 L582.89 371.39 L580.81 374.58 L576.66 376.07 L575.46 374.74 L570.54 366.82 L565.19 363.98 L552.92 360.81 L545.78 357.52 L549.06 362.1 L550.88 364.64 L567.05 379.83 L567.19 388.46 L572.51 392.22 L572.47 392.26 L567.7 396.7 L563.48 401.73 L563.52 401.75 L570.54 407.3 L578.12 406.71 L584.31 400.9 L588.9 392.83 L591.89 385.36 L591.96 385.4 L608.13 405 L622.48 429.71 L628.34 435.83 L636.54 438.23 L643.09 443.54 L652.71 466.92 L655.15 469.48 L657.73 472.23 L657.77 472.25 L668.77 477.26 L674.27 489.03 L680.57 512.71 L681.7 508.36 L683.15 506.66 L685.59 507.22 L685.63 507.23 L689.96 509.61 L688.65 513.96 L701.11 527.59 L705.26 534.35 L705.22 542.51 L701.94 545.79 L697.28 547.94 L693.02 552.9 L693.09 552.86 L696.34 552.03 L699.69 551.17 L700.52 550.7 L702.2 549.8 L702.24 549.84 L711.92 570.98 L713.34 581.99 L702.24 583.8 L702.2 583.8 L704.49 576.51 L701.51 570.65 L696.55 569.82 L693.02 577.61 L694.22 583.65 L697.39 587.94 L699.14 592.53 L695.83 599.52 L693.2 597.5 L688.32 593.69 L680.57 588.88 L672.74 587.08 L665.27 590.24 L659.48 598.05 L661.52 602.14 L668.44 601.07 L677.76 593.35 L684.17 600.19 L689.96 608.38 L696.96 615.21 L706.79 618.04 L727.37 617.64 L734.32 613.22 L729.73 602.62 L741.5 597.22 L746.16 595.78 L751.11 596.13 L751.15 596.17 L756.57 599.3 L761.53 604.6 L765.24 610.79 L768.41 628.91 L775.4 652.21 L775.62 658.28 L775.84 664.38 L770.16 660.38 L764.22 648.38 L759.01 645.84 L758.83 649.12 L760.98 663.81 L761.16 664.93 L763.6 670.56 L766.59 671.98 L769.32 673.27 L769.39 673.27 L775.44 673.27 L780.25 675.44 L783.09 692.74 L786.51 704.73 L787.09 706.72 L788.04 714.06 L788.04 714.1 L789.42 718.79 L798.75 750.38 L802.28 770.97 L794.16 782.21 L794.16 782.26 L789.64 763.63 L788.99 761 L782.18 742.12 L778.9 742.12 L778.35 756.45 L778.9 760.96 L778.57 760.81 L778.24 762.1 L778.24 762.14 L778.24 764.38 L778.9 767.1 L780.39 768.87 L784.18 770.03 L784.22 770.05 L784.98 771.46 L788.62 780.94 L796.49 786.71 L796.53 786.71 L804.03 786.09 L806.65 776.37 L809.38 776.37 L812.22 781.56 L812.99 782.96 L816.67 799.27 L820.42 805.55 L825.41 811.03 L828.61 816.36 L834.15 829.12 L836.33 826.91 L839.21 824.74 L840.52 822.67 L842.49 826.88 L840.52 829.12 L841.5 830.74 L842.38 831.81 L842.52 832.08 L843.03 832.98 L843.32 835.01 L843.36 834.97 L845.58 833.13 L850.17 830.92 L852.5 829.12 L852.5 829.16 L853.56 831.7 L854.83 834.78 L853.89 838.44 L852.32 842.08 L852.39 844.9 L852.5 847.62 L855.63 853.69 L861.17 857.93 L864.78 860.71 L868.05 866.13 L865.98 866.26 L864.92 866.98 L863.57 867.9 L862.74 868.43 L861.9 868.95 L860.59 873.87 L859.28 878.8 L864.52 894.2 L867.36 897.48 L873.77 904.87 L873.84 904.87 L883.31 903.14 L886.37 903.14 L889.47 912.57 L893 918.39 L894.09 920.2 L913.4 940.41 L919.62 950.28 L920.72 959.01 L910.81 962 L910.77 962.02 L906.18 958.9 L895.19 944.88 L889.43 939.9 L882 937.16 L881.93 937.16 L881.16 937.23 L875.88 937.69 L871.22 942.47 L868.05 952.49 L873.41 954.93 L878.58 955.66 L883.02 954.01 L886.37 949.4 L891.65 951.38 L896.5 953.81 L898.17 955.79 L899.3 957.17 L898.61 962.02 L904.55 967.59 L910.48 973.16 L915.14 978.52 L920.02 986.68 L919.99 986.7 L917.69 989.36 L917.11 991.95 L917.87 995.06 L920.02 999.32 L922.79 995.92 L921.12 989.79 L921.12 989.75 L926.4 991.62 L936.78 999.32 L939.25 1002.92 L947.48 1023.96 L946.97 1024.86 L944.42 1036.28 L944.79 1037.53 L944.86 1037.72 L946.97 1042.09 L947.48 1043.85 L945.74 1046.95 L942.53 1049.43 L940.6 1052.19 L942.89 1056.19 L945.08 1059.08 L945.84 1061.34 L945.95 1061.63 L947.26 1064.2 L950.54 1067.12 L945.74 1070.61 L946.17 1072.32 L946.61 1074.06 L950.21 1074.82 L953.82 1070.19 L956.59 1070.19 L956.62 1070.21 L960.05 1088.41 L959.94 1095.11 L960.01 1095.11 L963.07 1095.11 L963.07 1094.94 L963.44 1088.63 L964.53 1082.38 L966.42 1077.06 L969.19 1073.27 L969.19 1070.21 L968.93 1069.49 L967.95 1066.66 L968.75 1065.25 L971.23 1066.29 L975.23 1070.19 L976.62 1073.75 L977.64 1083.32 L984.52 1094.28 L995.7 1132.67 Z M932.19 982.2 L931.42 977.46 L929.67 973.78 L927.53 969.26 L926.07 964.83 L926.29 960.15 L927.67 956 L928.25 951.62 L926.07 946.37 L926.07 946.31 L931.82 951.93 L937.32 964.96 L941.36 970.99 L942.35 973.6 L946.5 984.81 L957.39 1002.15 L962.42 1010.14 L969.99 1049.51 L969.99 1049.54 L969.7 1058.54 L963.07 1064.04 L956.77 1059.06 L954.84 1057.02 L953.93 1056.08 L953.64 1053.84 L953.31 1051.6 L953.38 1050.68 L955.24 1022.27 L953.93 1012.46 L949.01 1008.27 L947.16 1004.25 Z M26.11 342.05 L21.12 340.08 L18.9 335.73 L20.32 331.38 L26.11 329.38 L46.11 329.38 L54.96 331.67 L64.1 334.03 L83.18 341.33 L101.39 351.96 L116.69 366.82 L116.65 366.8 L109.33 365.27 L96.44 358.85 L88.86 357.52 L100.48 370.8 L109.62 381.27 L113.63 388.46 L102.92 387.1 L95.93 381.68 L91.12 375.78 L87.52 372.98 L82.89 370.62 L64.46 354.13 L55.32 350.04 L46.18 345.94 L39.48 344.12 L35.91 343.14 Z M33.58 149.53 L30.01 152.96 L26.37 156.4 L15.08 157.06 L4.59 153.57 L0 147.85 L0 129.26 L1.31 124.49 L4.26 125.1 L7.32 128.92 L9.18 133.74 L16.9 136.18 L26.11 136.88 L28.41 138.56 Z M107.44 96.29 L100.52 91.25 L93.6 80.85 L82.74 59.11 L87.7 51.33 L88.83 41.37 L91.63 33.3 L101.39 31.19 L106.56 32.76 L106.64 32.78 L107.07 36.61 L105.32 41.95 L104.12 48.12 L104.3 54.34 L104.96 59.31 L105 59.61 L105.4 60.61 L106.93 64.21 L108.97 66.55 L110.57 68.4 L112.46 68.88 L121.13 68.4 L122.59 69.75 L123.24 76.57 L124.34 79.39 L129.43 82.62 L136.35 85.6 L142.14 88.9 L142.62 89.94 L144.15 93.19 L141.05 96.4 L135.15 96.44 L128.81 94.46 L124.34 91.64 L121.17 90.86 L113.12 95.63 L107.47 96.29 Z "/>
</g>
</svg>
