<svg xmlns="http://www.w3.org/2000/svg" viewBox="0 0 1000 839.05">
<g fill="#ccc" stroke="#333" stroke-width="0.5" stroke-linejoin="round">
<path fill-rule="evenodd" d="M62.62 703.84 L64.95 695.3 L65.32 694.69 L66.27 693.65 L66.43 692.99 L66.46 691.77 L66.66 690.57 L67.03 689.48 L68.03 687.34 L68.3 686.27 L68.18 684.5 L68.13 683.71 L66.62 679.2 L65.82 674.89 L64.96 674.15 L63.56 674.12 L57.9 674.72 L57.31 674.46 L57.29 672.63 L57.12 672.08 L55.59 670.64 L50.8 669 L48.75 667.98 L46.62 665.93 L44.8 663.35 L43.6 660.5 L43.32 657.58 L46.65 638.84 L47.7 635.76 L47.88 634.69 L47.81 633.74 L47.51 633.44 L47 634.32 L46.21 633.83 L43.88 634.25 L40.01 635.48 L39.36 635.97 L39 636.16 L38.62 636.32 L40.15 629.63 L40.21 628.88 L40.17 628.14 L40.01 627.41 L35.64 613.82 L33.67 610.7 L33.55 609.95 L34.92 607.94 L37.88 600.93 L37.1 600.15 L31 597.86 L23.55 592.86 L21.84 595.41 L19.93 597.26 L17.65 598.53 L14.84 599.37 L12.52 599.69 L9.99 599.66 L7.53 599.19 L5.44 598.16 L4.21 596.95 L1.87 592.52 L0.25 590.48 L0 589.78 L0.14 589.4 L1.1 587.5 L2.59 582.94 L7.48 573.57 L9.21 571.17 L11.25 569.2 L12.3 568.61 L18.7 566.04 L19.68 565.35 L25.18 559.51 L27.28 556.72 L27.78 554.17 L27.07 552.77 L24.96 550.2 L24.19 548.74 L23.92 547.56 L23.88 544.04 L23.01 541.67 L19.21 538.1 L18.15 535.73 L18.15 534.36 L18.27 533.41 L18.07 532.51 L17.13 531.29 L15.74 529.97 L15.81 529.42 L17.26 527.02 L22.11 520.82 L22.7 520.07 L24.13 518.61 L25.85 517.45 L35.3 512.92 L36.45 512.13 L38.66 510.04 L40.01 509.28 L41.61 508.97 L42.99 508.42 L43.88 507.37 L43.96 505.57 L43.55 503.59 L43.02 502.4 L41.96 501.73 L38.6 501.14 L37.61 500.6 L36.89 499.7 L36.35 498.37 L36.18 497.64 L36.24 497.16 L36.77 496.11 L37.03 495.85 L37.83 495.47 L38.14 495.16 L38.2 494.71 L37.98 494.35 L37.69 494.02 L37.49 493.66 L36.65 487.05 L36.19 486.2 L34.35 484.83 L32.99 482.55 L34.11 480.36 L36.52 478.52 L39.06 477.27 L51.02 474.04 L51.63 473.6 L51.92 472.74 L51.82 472.19 L50.92 470.23 L50.59 469.15 L50.1 465.77 L50.1 464.18 L50.58 463.23 L52.76 461.75 L53.94 460.64 L54.28 459.62 L54.33 458.47 L54.65 456.97 L55.34 455.69 L60.71 450.02 L61.88 449.05 L63.24 448.29 L65.26 447.5 L65.72 446.94 L68.39 442.01 L68.84 440.63 L69.6 433.45 L69.48 431.39 L68.89 429.46 L67.61 427.71 L66.34 426.33 L65.34 424.73 L64.91 422.95 L65.34 421.02 L66.46 419.63 L71.16 416.7 L74.97 412.04 L76.53 410.95 L77.99 410.77 L80.82 410.42 L89.98 412.37 L94.46 411.94 L102.27 409.04 L106.18 408.19 L113.02 408.2 L120.26 409.3 L127.19 411.7 L128.8 411.77 L129.5 409.91 L129.5 409.86 L129.5 406.29 L129.5 391.91 L129.48 377.51 L129.47 363.1 L129.46 348.66 L129.45 334.21 L129.44 319.75 L129.42 305.26 L129.41 290.76 L129.41 276.23 L129.39 261.69 L129.38 247.13 L129.37 232.55 L129.36 217.96 L129.34 203.34 L129.33 188.69 L129.32 174.03 L129.32 166.14 L129.32 158.25 L129.32 150.35 L129.32 142.45 L138.91 142.45 L144 142.45 L150.73 142.45 L158.69 142.46 L166.11 142.47 L173.38 142.47 L182.07 142.48 L188.07 142.48 L188.2 142.46 L188.33 142.45 L188.46 142.43 L188.6 142.41 L188.65 142.32 L188.71 142.22 L188.76 142.12 L188.82 142.02 L188.82 141.62 L188.82 134.55 L188.82 128.52 L188.82 122.48 L188.83 116.44 L188.84 110.4 L188.84 102.48 L188.84 94.55 L188.84 86.61 L188.84 78.67 L188.84 70.72 L188.85 62.76 L188.85 54.8 L188.85 46.83 L188.85 38.86 L188.85 30.87 L188.86 22.88 L188.86 14.89 L194.65 14.89 L200.45 14.89 L206.25 14.89 L212.05 14.89 L217.84 14.89 L223.63 14.89 L229.43 14.89 L235.22 14.89 L241.01 14.89 L246.81 14.9 L252.61 14.9 L258.4 14.9 L264.2 14.9 L269.99 14.9 L275.78 14.9 L281.58 14.9 L287.38 14.9 L293.17 14.91 L298.96 14.91 L304.76 14.91 L310.55 14.91 L316.35 14.91 L322.15 14.91 L327.94 14.91 L333.73 14.91 L339.53 14.91 L345.33 14.91 L351.13 14.91 L356.92 14.91 L362.71 14.92 L368.51 14.92 L374.31 14.92 L380.1 14.92 L385.9 14.92 L391.69 14.92 L397.48 14.92 L403.28 14.92 L409.08 14.92 L414.88 14.92 L420.67 14.93 L426.46 14.93 L432.26 14.93 L438.06 14.93 L443.85 14.93 L449.64 14.93 L455.44 14.93 L461.23 14.93 L467.03 14.93 L472.83 14.93 L478.62 14.94 L484.41 14.94 L490.21 14.94 L495.99 14.94 L501.8 14.94 L507.6 14.94 L513.39 14.94 L519.18 14.94 L524.98 14.94 L530.77 14.94 L536.56 14.94 L542.36 14.94 L548.17 14.95 L553.96 14.95 L559.75 14.95 L562.03 14.95 L562.82 14.47 L565.75 8.44 L565.96 8.02 L568.65 2.5 L570.18 0.8 L571.3 0.21 L572.44 0 L573.59 0.18 L574.68 0.74 L575.99 2.03 L576.52 3.46 L576.45 5.06 L575.07 9.18 L573.17 14.89 L576.7 14.88 L578.31 14.88 L584.4 14.88 L590.5 14.88 L596.59 14.88 L602.69 14.88 L608.78 14.88 L614.88 14.88 L620.97 14.88 L627.07 14.88 L633.16 14.88 L638.01 14.88 L639.26 14.88 L645.36 14.88 L651.46 14.88 L657.55 14.88 L663.65 14.88 L669.74 14.88 L675.78 14.88 L675.84 14.88 L677.11 14.88 L684.41 20.81 L692.5 27.39 L699.58 33.13 L699.72 33.25 L717.92 30.65 L725.82 29.52 L730.88 14.88 L731.26 14.88 L745.11 14.88 L758.96 14.88 L772.82 14.87 L786.67 14.87 L800.53 14.87 L814.38 14.87 L828.24 14.87 L842.09 14.87 L855.95 14.87 L869.8 14.87 L883.65 14.86 L897.57 14.86 L897.39 15.83 L897.23 16.13 L896.98 16.25 L896.03 16.39 L894.98 16.76 L896.4 17.84 L896.97 18.69 L897.01 26.44 L898.36 35.25 L897.82 37.03 L898.67 37.61 L898.86 38.36 L898.9 39.14 L899.27 39.85 L899.93 40.53 L900.36 41.14 L903.55 48.83 L911.27 60.83 L916.35 65.68 L922.69 73.84 L923.14 74.91 L923.01 76.15 L922.6 77.25 L921.85 77.78 L920.71 77.3 L919.5 78.2 L918.43 77.29 L916.8 74.45 L916.39 73.89 L915.95 73.09 L915.77 72.38 L916.19 72.07 L916.96 72.29 L917.39 72.82 L917.66 73.46 L918.02 74.01 L919.39 75.08 L920.19 75.41 L920.71 75.12 L920.58 74.59 L919.11 72.9 L918.18 70.43 L917.54 69.54 L916.6 69.85 L914.93 68.58 L914.44 69.26 L913.98 69.14 L913.59 68.52 L913.35 67.67 L913.5 66.9 L913.88 66.16 L914 65.41 L913.35 64.62 L911.73 64.27 L910.75 65.34 L910.36 67.04 L910.5 68.58 L910.8 68.94 L911.54 68.99 L911.68 69.42 L911.48 70.18 L911.28 70.72 L911.54 72.34 L911.52 73.09 L911.28 73.81 L910.68 74.42 L910.07 74.6 L909.66 74.94 L909.65 76 L909.95 76.57 L911.68 78.6 L913.27 82.36 L914.03 86.35 L914.57 94.75 L915.43 98.69 L918.08 106.29 L918.22 110.42 L918.06 111.43 L917.74 112.44 L917.17 113.05 L915.36 112.78 L915.15 113.6 L915.38 115.49 L914.93 120 L915.36 122.57 L915.38 123.51 L916.78 127.23 L917.26 129.47 L917.58 131.54 L917.89 134.58 L916.98 136.98 L917 137.41 L916.79 138.11 L916.06 139.02 L915.78 139.61 L915.74 141.32 L916.18 143.48 L919.95 153.51 L920.3 155.65 L920.3 159.78 L920.18 160.91 L919.87 161.6 L918.87 163.01 L918.69 163.98 L919.11 167.78 L919.02 168.98 L919.11 169.51 L919.34 170.11 L920.3 171.74 L921.52 175.35 L923.88 188.76 L924.36 195.26 L924.58 196.02 L925.08 196.45 L925.62 196.79 L925.99 197.24 L925.99 197.66 L925.68 198.49 L925.65 198.92 L927.1 200.96 L927.82 204.1 L929.05 208.14 L929.86 210.77 L930.36 214.03 L931.15 215.17 L932.44 217.57 L933.81 219.95 L935.78 221.78 L936.1 222.51 L936.64 223.2 L937.31 223.57 L938.03 223.34 L938.7 222.95 L939.14 223.06 L942.7 222.52 L944.68 221.62 L944.95 222.78 L946.28 223.5 L947.39 223.71 L948.61 223.62 L948.99 224.34 L949.13 225.37 L950.09 226.25 L949.64 228.68 L950.56 228.18 L951.25 227.96 L951.92 228.49 L952.9 229.5 L959.61 231.42 L962.08 233.81 L963.74 236.64 L966.32 239.21 L967.96 240.3 L970.55 241.32 L971.3 242.21 L970.55 243.3 L968.98 244.12 L968.58 246.3 L970.21 249.84 L973.08 252.49 L976.28 253.24 L978.66 252.83 L979 250.52 L980.2 250.15 L982.27 248.9 L982.64 249.57 L982.14 250.1 L981.3 250.55 L980.69 251.01 L980.6 251.51 L980.65 252.2 L980.49 252.95 L979.79 253.65 L978.89 253.91 L978.1 253.86 L977.43 253.92 L976.98 254.47 L977.76 254.47 L979.83 254.08 L980.62 254.23 L981.16 254.56 L981.65 254.97 L982.27 255.33 L983.06 255.53 L984.74 255.74 L985.55 256.01 L986.45 256.17 L987.06 255.88 L987.15 255.38 L986.41 254.93 L987.35 254.07 L988.53 255.28 L990.43 258.36 L989.88 259.2 L990.87 259.82 L992.36 259.94 L993.32 259.25 L993.95 260.22 L994.16 262.7 L994.54 263.5 L995.72 263.69 L996.3 262.73 L996.2 261.3 L995.36 260.07 L996.37 260.7 L998.85 263.28 L999.24 264.25 L999.23 265.23 L999.38 265.85 L1000 267.24 L999.86 267.81 L991.39 274.95 L989.74 277.38 L986.15 286.95 L984.51 289.63 L983.31 290.57 L980.35 292.02 L979.32 292.97 L979.02 294.2 L979.1 295.53 L978.94 296.76 L977.94 297.77 L976.53 297.98 L975.48 297.33 L974.57 296.4 L973.61 295.79 L971.51 296.47 L971.16 296.53 L970.89 297.08 L970.96 297.48 L971.11 297.91 L971.1 298.56 L970.47 299.76 L969.49 300.62 L968.6 300.63 L968.26 299.28 L968.35 298.03 L968.28 296.99 L967.72 296.37 L966.36 296.36 L964.96 296.88 L964.9 296.92 L960.88 299.64 L959.02 302.06 L957.85 302.96 L956.42 303.29 L955.06 302.87 L953.28 301.14 L952.07 300.8 L949.99 301.93 L947.4 306.62 L944.97 307.9 L942.56 308.23 L934.68 310.7 L934.04 311.09 L933.89 311.81 L934.55 314.66 L934.61 315.79 L934.33 318.39 L933.96 319.67 L932.65 322.01 L932.37 323.4 L931.88 324.65 L928.52 328.68 L922.95 327.1 L921.23 327.25 L918.4 329.01 L916.6 329.13 L915.71 329 L912.48 329.52 L911.89 329.42 L909.59 328 L908.97 327.77 L907.44 327.51 L906.37 327.07 L905.48 326.45 L904.53 326.03 L903.32 326.19 L902.92 326.65 L902.92 326.68 L902.79 327.18 L902.93 327.73 L904.11 329.39 L904.33 330.58 L904.05 331.78 L902.6 333.87 L902.81 334.54 L903.43 335.15 L903.94 335.92 L904.09 336.71 L903.98 339.21 L904.06 339.45 L904.41 340.01 L904.49 340.37 L904.37 340.63 L903.94 341.13 L903.83 341.4 L903.61 345.13 L902.14 348.86 L901.5 349.72 L899.54 351.14 L898.63 351.96 L898.09 353.14 L897.99 354.24 L898.1 356.26 L897.92 357.46 L897.19 359.94 L897.15 360.8 L897.56 362.23 L898.33 363.33 L899.27 364.33 L900.11 365.47 L900.17 365.65 L900.55 366.72 L900.52 367.82 L900.31 368.93 L900.23 370.26 L900.53 371.56 L901.62 374.08 L901.78 375.4 L901.17 376.98 L898.68 379.57 L897.71 381.19 L895.73 386.85 L893.04 394.55 L890.18 402.71 L888.58 405.36 L885.64 408.42 L884.91 409.79 L881.68 421.63 L881.52 424.25 L882.34 426.94 L880.39 428.26 L879.23 430.17 L876.21 439.15 L875.13 440.85 L870.75 445.14 L870.27 446.21 L870.18 447.56 L870.87 453.42 L872.08 463.74 L872.48 467.15 L873.18 473.12 L874.08 480.85 L874.98 488.47 L876.3 499.76 L870.95 516.48 L870.69 517.79 L870.71 519.35 L871.04 520.86 L872.07 523.92 L872.24 526.98 L871.15 529.67 L868.68 535.81 L868.47 537.04 L868.26 540.51 L867.71 542.24 L858.87 555.06 L853.11 575.2 L853.2 576.37 L853.67 577.34 L853.86 577.86 L853.88 578.39 L853.35 579.29 L852.46 580.18 L851.77 581.22 L851.83 582.57 L853.22 585.01 L853.47 585.92 L853.49 587.41 L852.32 594.19 L851.81 595.39 L850.88 595.77 L849.25 595.32 L848.71 595.02 L848.37 594.76 L847.97 594.56 L847.25 594.44 L846.74 594.46 L828.78 597.07 L827.26 597.57 L827.18 597.61 L826.36 597.99 L826.14 598.18 L826.16 598.51 L825.75 600.07 L825.66 600.72 L825.45 601.34 L824.86 601.99 L824.34 602.21 L823.19 602.3 L822.68 602.51 L822.14 603.12 L810.94 621.91 L810.31 623.62 L810.15 625.31 L809.98 626.07 L809.43 626.9 L808.81 627.41 L807.51 628.09 L806.93 628.59 L806.48 629.28 L805.42 631.94 L804.83 635.28 L804.31 636.73 L803.15 638.07 L800.92 639.36 L800.38 639.89 L800.21 640.45 L800.2 640.74 L800.17 641.85 L800.05 642.44 L798.25 644.46 L794.26 646.01 L792.96 646.51 L790.65 648.02 L789.74 649.19 L788.93 650.59 L788.29 652.08 L787.87 653.53 L787.83 654.76 L788.28 657.06 L788.17 659.55 L788.6 660.8 L789.84 663.27 L789.99 664.41 L789.77 665.6 L782.27 682.25 L782.09 683.57 L782.67 685.21 L783.71 686.38 L784.47 687.62 L784.24 689.51 L780.31 701.12 L780.27 701.79 L780.84 702.58 L782.6 703.88 L782.93 704.79 L782.48 706.87 L781.47 708.32 L778.25 710.78 L777.17 711.82 L776.92 712.54 L776.92 713.27 L776.56 714.35 L775.8 715.36 L775.15 715.44 L774.42 715.23 L773.42 715.33 L772.68 715.97 L771.89 717.83 L771.41 718.32 L770.79 718.09 L770.7 717.2 L770.94 715.38 L770.57 714.46 L769.78 713.77 L768.03 712.63 L760.83 706.26 L760.09 705.96 L759.08 706.35 L751.91 711.32 L750.88 712.23 L749.94 713.5 L747.64 717.98 L742.51 725.27 L742.05 727.42 L742.31 729.92 L745.21 743.24 L745.27 745.97 L744.77 748.53 L744.58 748.88 L744.01 749.48 L743.84 749.8 L743.83 750.48 L744.03 751.96 L743.94 752.63 L742.59 754.65 L739.08 757.92 L731.72 778.85 L729.85 787.82 L730.08 792.44 L719.97 792.4 L719.78 792.32 L719.61 792.15 L719.44 791.86 L719.24 791.46 L718.81 789.75 L718.59 787.08 L718.96 782.46 L720.21 776.98 L724.03 769.27 L724.23 768.63 L724.28 768.27 L724.28 767.85 L723.92 766.47 L723.48 765.28 L723.26 763.48 L723.92 759.48 L723.99 758.24 L723.89 756.64 L723.59 755.62 L720.93 748.94 L720.04 747.88 L707.15 737.23 L694.25 726.58 L689.54 720.8 L689.03 720.41 L688.39 720.1 L675.3 715.25 L674.66 714.76 L674.75 714.04 L675.15 713.12 L676.73 710.32 L676.95 709.58 L677.17 708.44 L674.22 685.96 L671.26 663.44 L671.28 662.55 L671.55 661.96 L671.77 661.6 L672.55 660.64 L673.23 659.65 L674.01 657.91 L674.21 657.26 L675.02 649.21 L674.96 642.15 L678.41 630.37 L678.78 625.36 L650.36 625.01 L650.18 625.27 L650.16 625.57 L650.23 625.93 L650.27 626.3 L650.25 627.09 L650.02 628.55 L649.97 629.33 L650 630.11 L650.43 632.94 L651.18 635.06 L651.3 635.76 L651.33 636.54 L651.24 638 L631.46 638.09 L611.68 638.18 L627.34 655.87 L627.52 656.23 L627.8 657.19 L627.91 657.9 L628.21 664.11 L627.37 673.95 L627.55 680.27 L628.47 684.37 L632.71 692.44 L632.43 693.95 L631.44 695.85 L617.41 707.84 L603.38 719.82 L602.61 720.95 L598.7 730.93 L594.99 736.73 L593.34 738.39 L586.82 746.54 L574.02 759.3 L561.22 772.05 L557.03 773.76 L544.28 774.46 L544.26 774.46 L537.53 774.64 L536.76 774.83 L535.62 775.27 L534.92 775.93 L534.08 776.42 L533.26 776.16 L532.31 775.46 L516.55 761.18 L502.51 752.16 L488.47 743.13 L485.78 744.78 L469.89 752.54 L466.61 754.55 L464.8 755.98 L464.7 764.66 L461.93 769.08 L456.92 773.9 L443.18 776.95 L436.03 779.57 L428.72 783.47 L427.52 784.44 L427.52 767.14 L427.52 749.81 L404.42 749.81 L381.31 749.81 L358.21 749.81 L358.21 774.98 L362.36 783.94 L361.75 784.18 L360.77 784.36 L354.89 784.67 L347.26 783.55 L346.93 783.58 L345.69 783.92 L345.34 783.96 L340.51 783.34 L332 783.37 L329.26 782.89 L313.85 783.25 L290.86 791.09 L290.23 791.15 L286.78 790.87 L285.3 790.19 L282.68 788.47 L271.44 775.22 L260.21 761.97 L255.63 760.23 L255.61 760.21 L254.77 759.32 L254.07 758.42 L250.51 752.55 L250.16 752.07 L249.95 751.87 L249.57 751.57 L249.41 751.48 L247.79 751.01 L246.88 750.61 L244.74 749.34 L244.28 748.96 L243.89 748.53 L243.73 748.27 L243.62 747.94 L243.26 738.57 L243.19 738.24 L243.07 737.96 L242.76 737.45 L240.18 734.22 L239.95 734.05 L239.31 734.11 L236.65 734.82 L235.4 735.43 L234.87 735.58 L234.39 735.63 L232 735.54 L231.66 735.59 L230.71 735.86 L229.36 736.08 L227.43 736.1 L227.09 736.15 L224.53 736.79 L220.13 738.34 L219.95 738.37 L219.2 738.59 L218.53 738.69 L216.13 738.61 L215.41 738.68 L214.74 738.8 L213.85 739.11 L213.29 739.37 L212.68 739.56 L211.97 739.64 L211.59 739.64 L210.89 739.72 L210.58 739.82 L209.47 740.34 L209.15 740.4 L208.81 740.4 L208.16 740.31 L207.83 740.34 L207.25 740.55 L206.93 740.63 L206.57 740.62 L206.22 740.56 L205.88 740.45 L205.28 740.18 L204.95 740.08 L204.24 739.95 L203.84 740 L203.41 740.1 L202.88 740.32 L202.48 740.37 L201.78 740.28 L201.44 740.29 L200 740.85 L199.32 740.97 L197.79 740.84 L197.16 740.98 L196.29 741.33 L195.35 741.6 L194.98 741.76 L194.56 742.14 L193.97 742.86 L190.99 749.33 L190.84 749.98 L190.79 750.48 L190.92 751.15 L191.01 751.45 L191.5 752.59 L191.68 753.21 L191.72 753.55 L191.7 753.93 L191.63 754.28 L190.98 756.06 L189.42 759.31 L189.08 760.36 L188.56 761.47 L188.06 762.16 L187.26 762.99 L185.63 765.22 L184.85 766.1 L182.79 767.36 L180.74 769.06 L180.23 769.37 L179.71 769.61 L179.07 769.72 L178.5 769.77 L178.29 769.82 L178.06 770.06 L177.85 770.44 L177.63 771.68 L177.73 787.76 L177.62 788.47 L177.19 789.85 L173.54 793.97 L171.81 795.56 L171.34 796.26 L170.93 797.35 L169.79 808.87 L169.72 809.19 L169.49 809.78 L164.1 818.97 L163.74 819.87 L163.68 820.27 L163.68 826.69 L163.35 827.09 L162.76 827.42 L159.84 828.4 L154.42 828.97 L153.07 829.26 L146.56 833.38 L144.76 834.24 L141.33 836.86 L140.97 837.35 L140.84 838.21 L140.58 838.59 L137.22 839.05 L131.01 838.01 L129.32 838.3 L128.18 838.12 L125.81 837.13 L122.5 837.48 L118.73 836.61 L116.67 836.66 L114.8 837.53 L113.84 837.82 L111.92 837.3 L110.02 837.34 L109.24 837.03 L108.35 836.4 L107.41 836 L106.4 835.89 L105.31 836.11 L104.48 836.58 L103.07 837.66 L102.19 837.85 L100.97 837.3 L100.07 835.98 L99.58 834.37 L99.61 832.92 L100.39 831.35 L102.85 828.57 L103.86 826.91 L104.59 823.48 L104.68 821.38 L104.24 820.08 L103.2 820.03 L100.99 822.21 L99.36 822.34 L97.77 821.42 L96.99 820.2 L96.83 818.72 L98.14 811.05 L98.45 810.6 L99.13 809.57 L100.03 809.21 L101.96 809.29 L102.92 809.12 L103.61 808.69 L104.91 807.37 L107.22 804.46 L108 803.85 L108.53 803.13 L108.45 802.24 L107.84 800.39 L107.92 799.32 L109.41 794.63 L109.38 794.23 L109.05 793.74 L108.7 793.6 L108.26 793.62 L107.81 792.86 L107.64 792.29 L107.72 790.41 L107.6 789.61 L107.02 788.12 L106.98 787.46 L107.72 785.71 L109.92 782.31 L110.73 780.52 L111.02 778.21 L109.28 767.77 L108.05 765.07 L98.14 748.99 L88.23 732.89 L77.41 722.3 L71.22 717.92 L62.75 705.5 Z M920.3 87.83 L920.91 88.27 L921.12 88.42 L921.38 89.25 L920.69 93.49 L920.25 94.52 L919.65 94.53 L919.04 93.07 L918.99 91.08 L919.44 89.12 Z "/>
</g>
</svg>
