<svg xmlns="http://www.w3.org/2000/svg" viewBox="0 0 1000 1026.33">
<g fill="#ccc" stroke="#333" stroke-width="0.5" stroke-linejoin="round">
<path fill-rule="evenodd" d="M976.86 664.36 L968.65 670.23 L962.35 680.14 L953.4 691.05 L949.99 696.56 L944.91 709 L950.6 708.13 L953.27 711.66 L953.85 717.22 L953.28 722.4 L952.69 723.01 L951.57 723.58 L950.47 724.41 L949.94 725.75 L950.46 725.96 L952.75 727.6 L953.28 728.26 L954.79 734.17 L955.21 737.63 L954.12 739.15 L951.3 740.8 L952.61 744.25 L955.31 747.28 L956.61 747.69 L956.73 751.06 L954.95 758.57 L954.21 760.01 L950.83 764.97 L949.94 767.78 L949.78 770.36 L950.19 772 L951.73 773.66 L954.95 776.31 L952.02 777.91 L950.37 779.94 L946.5 791.35 L944.58 795.11 L926.74 819.26 L918.15 836.75 L908.59 860.95 L904.62 866.89 L892.9 878.63 L889.96 879.81 L886.27 880.34 L880.86 880.4 L878.24 881.83 L875.77 883.25 L869.17 899.97 L866.41 902.11 L861.61 902.62 L853.38 900.11 L849.84 900.73 L845.9 905.52 L841.28 907.03 L836.57 907.91 L831.79 908.04 L826.98 907.31 L824.13 905.87 L823.54 903.9 L823.81 901.53 L823.49 898.92 L821.3 893.34 L822.7 888.72 L823.36 888.45 L824.65 888.49 L825.82 888.09 L826.22 886.57 L825.92 885.21 L824.88 882.56 L824.52 881.12 L824.36 876.19 L823.27 875.09 L819.96 873.22 L814.6 871.13 L810.49 871.3 L806.65 873.38 L802.48 875.62 L790.37 879.22 L780.97 875.83 L756.89 852.36 L755.85 850.07 L756.65 846.7 L761.38 841.9 L762.99 838.62 L761.66 836.18 L757.31 836.69 L747.29 840.7 L742.39 843.8 L732.95 851.82 L724.08 856.09 L722.02 856.83 L720.07 856.61 L718.17 854.62 L719.03 849.95 L717.88 847.67 L709.51 848.36 L689.91 863.43 L684.2 863.08 L681.32 859.5 L677.45 858.08 L673.11 858.43 L668.88 860.15 L664.77 864.17 L663.41 868.74 L662.76 873.23 L660.72 877.01 L653.73 880.03 L644.92 879.87 L635.43 878.65 L626.36 878.51 L612.42 879.77 L607.73 879.14 L602.59 879.11 L593.51 883.36 L574.17 888.2 L569.32 887.18 L566.75 885.13 L563.92 879.77 L562.1 877.61 L559.76 876.36 L542.45 872.08 L538.31 870.05 L524.99 859.07 L519.56 856.01 L513.72 855.47 L510.78 856.42 L509.26 857.81 L507.38 862.11 L504.78 872.56 L504.62 883.44 L503.35 887.73 L496.19 898.45 L494.31 900.43 L491.39 901.77 L488.63 901.57 L486.46 900.26 L484.21 899.23 L481.19 899.93 L478 903.85 L474.28 910.89 L471.37 918.15 L470.66 922.7 L473.48 924.58 L484.21 925.22 L488.75 926.3 L493.39 930.58 L495.63 940.23 L498.95 945.43 L505.54 949.97 L507.66 951.83 L516.43 963.21 L524.8 970.39 L526.65 973.16 L527.41 976.29 L527.02 978.53 L526.13 980.76 L525.34 983.9 L525.65 994.8 L527.02 1004.58 L525.72 1013.41 L517.94 1021.49 L501.81 1026.33 L486.37 1023.14 L471.03 1016.95 L455.22 1012.84 L443.42 1013.55 L439.54 1013.1 L434.9 1011.15 L426.1 1005.51 L421.37 1003.51 L416.66 1002.95 L409.47 1004.72 L404.89 1005.2 L401.31 1004.47 L388.57 999.83 L387.76 996.99 L386.27 994.61 L384.12 992.88 L378.98 991.22 L376.91 989.98 L375.17 988.3 L373.8 986.21 L364.57 981.4 L340.55 981.01 L333.84 978.25 L310.25 944.83 L308.46 937.52 L306.6 932.17 L304.19 921.36 L301.08 916.59 L298.9 915.43 L293.24 914.38 L290.97 913.24 L289.92 911.04 L290.05 902.21 L287.32 896.74 L278.55 889.08 L276.68 884.64 L278.26 881.11 L278.7 878.56 L277.51 876.18 L273.45 872.42 L272.3 870.26 L271.5 866.89 L272.01 864.51 L273.21 861.8 L273.54 859.12 L271.5 856.86 L266.5 860.53 L263.05 861.72 L261.46 859.44 L262.75 851.18 L262.31 849.39 L256.12 842.18 L254.93 839.96 L254.77 835.79 L255.93 832.58 L256.59 829.69 L254.93 826.56 L249.84 829.44 L247.89 828 L246.42 818.34 L243.99 813.84 L237.66 807.14 L236.38 803.94 L237.34 801.5 L239.03 798.4 L239.58 795.74 L237.22 794.58 L228.83 795.85 L228.02 796.41 L226.4 791.78 L230.63 782.94 L228.92 781.33 L226.02 781.87 L221.11 784.16 L218.82 784.68 L215.88 783.63 L214.79 781.33 L214.01 779.03 L212.04 777.99 L211.04 775.45 L207.79 762.76 L210.07 760.33 L213.89 757.28 L216.56 753.84 L215.39 750.2 L207.25 749.34 L204.12 747.54 L206.12 744.34 L207.41 742.08 L207.26 740.16 L206.55 738.01 L206.12 735.05 L206.9 734.18 L210.34 734.36 L211.13 733.36 L210.88 731.51 L209.71 728.4 L209.45 726.51 L207.16 721.06 L202.93 717.17 L200.7 712.69 L204.44 705.5 L203.6 705.06 L203.43 704.93 L203.38 704.72 L202.93 703.98 L201.27 705.51 L199.13 706.93 L196.7 707.72 L194.24 707.32 L191.52 705.32 L191.98 703.71 L193.56 701.76 L194.24 698.79 L191.61 693.13 L191.05 690.42 L191.25 687.42 L192.57 682.37 L192.89 679.45 L192.01 676.52 L190.48 674.51 L189.94 672.47 L191.96 669.4 L192.32 667.86 L192.89 659.34 L192.13 655.9 L186.04 643.35 L178.29 649.43 L171.74 650.54 L165.2 648.53 L157.46 645.17 L157.73 649.62 L156.02 651.77 L149.09 653.56 L148.48 654.38 L146.75 656.05 L144.91 657.09 L144.06 656 L143.49 654.73 L142.04 654 L140.11 653.65 L138.14 653.56 L136.73 652.49 L133.61 650.63 L130.45 650.01 L128.06 654.83 L125.81 655.17 L123.13 654.42 L115.53 650.17 L115.47 650.14 L111.35 647.84 L104.43 646.42 L102.36 645.55 L101.15 644.53 L100.33 643.28 L99.27 640.37 L98.76 637.8 L98.91 635.76 L100.15 631.33 L100.29 629.68 L99.76 626.64 L99.72 625.04 L103.45 617.81 L103.8 613.47 L99.79 608.92 L94.68 605.94 L93.73 605.49 L93.22 604.75 L90.58 604.4 L89.39 603.89 L88.29 602.67 L87.97 601.82 L87.76 600.94 L85.81 597.32 L84.58 593.02 L83.69 591.24 L74.35 585.25 L62.37 580.28 L58.29 577.68 L55.55 573.12 L54.09 567.94 L53.43 556.8 L52.39 552.09 L47.18 540.91 L34.76 522.68 L30.77 518.01 L14.65 505.28 L8.71 497.8 L6.29 489.13 L3.09 468.24 L0 457.66 L0.43 452.57 L3.84 447.35 L25.17 425.5 L27.89 421.33 L29.48 416.48 L30 410.29 L29.31 406.22 L27.98 402.48 L27.21 398.62 L28.18 394.12 L30.6 390.34 L33.41 387.21 L35.73 383.99 L37.54 375.85 L42.05 364.93 L46.2 357.97 L50.08 345.46 L54.46 339.12 L56.42 334.85 L56.76 330.19 L54.72 325.84 L48.15 317.43 L44.87 307.32 L40.81 304.6 L36.72 302.52 L34.87 299.14 L36.55 290.87 L40.49 285.22 L44.96 280.42 L48.27 276.32 L53.25 267.99 L55.1 266.25 L58.18 265.47 L60.55 266.15 L62.9 267.32 L65.97 267.93 L71.97 267.1 L74.82 264.86 L78.5 257.86 L85.07 251.51 L93.29 247.47 L102.5 246.93 L112.12 251.13 L122.87 247.26 L128.49 246.28 L134.78 245.95 L136.1 246.75 L139.86 250.32 L141.48 251.13 L144.65 250.85 L148.77 249.59 L168.16 247.59 L174.33 245.95 L176.95 244.92 L178.77 243.9 L180.88 243.08 L184.37 242.59 L186.51 242.99 L188.42 243.81 L190.43 244.02 L192.89 242.59 L183.95 234.5 L182.85 231.75 L183.15 228.49 L183.91 225.7 L187.56 217.4 L189.19 210.34 L190.8 206.93 L193.56 205.49 L197.91 205.64 L201.02 206.6 L203.11 209.15 L204.44 214.05 L208.25 212.47 L212.11 210.23 L215.1 207.38 L216.3 203.95 L214.46 199.03 L206.3 189.08 L204.63 184.9 L204.44 184.41 L203.38 182.9 L200.93 182.15 L198.14 182.29 L196.08 183.5 L195.65 185.85 L196.91 188.23 L199.42 191.21 L198.78 192.85 L197.15 193.9 L195.04 194.18 L192.89 193.57 L191.66 192.22 L191.22 190.29 L190.84 173.1 L190.05 172.41 L188.51 172.49 L186.04 171.89 L182.51 173.33 L180.33 173.33 L179.35 171.05 L180.19 168.34 L182.19 165.71 L194.1 153.69 L196.62 149.76 L197.6 144.01 L197.88 138.73 L198.65 134.82 L200.92 129.69 L204.27 126.23 L206.45 124.13 L214.31 121.13 L217.62 118.45 L219.91 115.45 L221.5 111.93 L227.39 85.33 L228.56 61.99 L230.24 53.8 L230.79 47.65 L233.71 37.62 L236.54 30.83 L243.03 20.1 L244.05 17.33 L245.43 15.14 L247.47 13.72 L253.07 12.73 L254.77 11.62 L256.04 10.5 L257.33 10.01 L258.47 9.29 L261.58 5.81 L262.95 4.66 L265.35 3.77 L267.83 3.32 L270.46 0.6 L272.25 0 L279.04 1.8 L294.2 5.4 L303.17 6.41 L315.33 6.42 L334.46 7.24 L345.03 7.85 L349.21 9.45 L356.81 14.27 L361.3 16.22 L365.99 17.45 L377.53 18.48 L404.13 24.69 L419.63 28.8 L432.18 29.33 L443.71 32.31 L452.02 34.69 L459.67 36.69 L476.18 40.28 L486.28 43.65 L492.26 45.28 L497.31 46.16 L506.82 49.48 L522.3 50.97 L526.74 55.88 L530.25 57.94 L531.69 61.23 L531.69 82.48 L531.8 82.48 L533.51 82.48 L534.8 78.6 L535.22 74.75 L535.04 66.42 L534.24 62.1 L530.01 52.81 L527.36 46.75 L531.13 41.78 L528.67 39.58 L525.67 39.71 L522.8 39.84 L519.39 36.96 L518.59 32.04 L519.69 28.35 L523.67 23.16 L525.34 20.63 L528.58 17.23 L530.96 14.69 L534.54 11.98 L538.97 10.29 L544.75 8.77 L550.7 8.45 L573 7.48 L585.38 6.48 L595.48 6.32 L654.86 9.29 L669.32 12.04 L676.21 16.81 L680.08 18.44 L685.28 20.1 L687.01 20.98 L689.6 23.1 L692.12 25.18 L694.57 26.68 L695.34 26.89 L697.39 27.43 L699.48 27.43 L702.04 27.79 L705.49 28.13 L708.29 27.17 L711.44 25.84 L715.42 25.47 L719.61 28.51 L724.48 32.12 L726.38 35.76 L723.44 42.97 L719.82 47.01 L720.13 46.86 L726.88 44.6 L729.17 39.11 L729.4 33.62 L730.69 31.72 L736.1 31.7 L744.19 37.4 L749.16 38.44 L752.36 37.72 L754.35 36.43 L756.25 35.99 L761.73 39.36 L763.82 39.73 L765.9 39.28 L768.31 38.44 L770.23 37.24 L771.56 35.59 L773.21 34.17 L776.08 33.55 L778.4 34.05 L780.86 35.28 L785.2 38.44 L784.09 36.43 L782.43 34.49 L780.5 32.82 L778.52 31.72 L775.29 31.08 L773.06 31.42 L770.79 33.24 L767.98 34.96 L762.37 35.47 L758.61 33.09 L755.16 32.32 L751.27 34.57 L747.57 34.39 L743.87 31.31 L740.06 29.39 L725.84 25.29 L720.86 22.89 L716.61 20.07 L714.79 17.42 L713.88 14.83 L712.44 13.17 L714.07 10.59 L716.23 9.2 L723.01 6.48 L730.74 5.16 L740.66 4.55 L748.23 4.48 L807.11 6.48 L811.58 7.55 L822.07 8.72 L831.62 10.44 L881.06 17.39 L911.24 24.1 L934.74 28.76 L955.17 35.39 L972.79 40.46 L978.41 41.06 L981.46 42.13 L987.66 41.69 L989.08 43.7 L991.64 44.67 L993.06 47.15 L992.66 49.73 L998.6 61.11 L1000 65.5 L997.66 68.24 L991.82 79.46 L989.03 84.3 L987.73 94.1 L984.32 113.16 L981.69 122.81 L978.62 128.49 L974.17 133.88 L969.92 137.59 L967.63 140.07 L966.63 142.37 L965.17 147.08 L954.77 163.3 L949.99 168.87 L930.71 182.81 L920.38 193.46 L918.09 196.74 L915.31 200.74 L912.47 210.54 L910.89 212.21 L907.12 214.87 L906.03 216.44 L905.43 219.23 L904.62 220.75 L891.24 235.87 L886.73 243.03 L885.23 246.91 L884.54 251.13 L886.68 260.94 L886.2 264.57 L885.05 265.87 L878.53 270.45 L877.4 272.87 L877.83 275.38 L879.38 278.84 L879.38 309.21 L880.17 312.52 L882.16 313.88 L884.68 314.58 L887.05 315.93 L889.96 320.46 L890.04 324.65 L889.2 329.34 L889.41 335.38 L892.46 343.41 L892.9 346.29 L892.9 356.36 L891.75 360.59 L886.9 369.59 L886.2 375.81 L890.46 402.32 L897.93 417.91 L900.09 428.5 L900.32 434.75 L898.75 438.96 L896.07 443.55 L897.04 447.74 L899.9 451.08 L902.94 453.13 L911.17 455.35 L913.7 457.37 L914.65 462.43 L913.94 466.13 L910.65 474.62 L909.64 478.44 L909.96 484.54 L912.28 488.66 L920.65 496.21 L922.2 498.6 L924.83 507.11 L926.47 509.34 L929.88 512.09 L931.53 513.81 L937.6 525.15 L942.2 527.65 L943.24 529.75 L944.09 529.61 L945.93 532.49 L948.27 537.3 L950.75 540.3 L952.16 541.2 L954.95 542.47 L963.31 544.95 L965.91 546.67 L970.98 554.21 L973.52 556.9 L978.52 574.32 L984.24 583.05 L984.38 584.53 L987 584.06 L989.7 583.23 L992.28 582.83 L994.5 583.7 L997.93 587.21 L999.4 590.31 L999.04 594.06 L997.08 599.63 L995.12 609.94 L995.91 628.51 L991.91 638.33 L983.01 647.58 L981.87 650.89 L981.29 655.19 L979.63 660 L977 664.26 Z "/>
</g>
</svg>
