<svg xmlns="http://www.w3.org/2000/svg" viewBox="0 0 1000 2293.69">
<g fill="#ccc" stroke="#333" stroke-width="0.5" stroke-linejoin="round">
<path fill-rule="evenodd" d="M728.83 0 L732.83 3.89 L742.01 5.37 L747.27 10.71 L750.89 11.9 L752.68 14.83 L752.65 18.66 L751.4 22.09 L749.08 23.34 L748.85 27.68 L750.47 30.25 L763.22 35.6 L769.4 41.48 L774.28 46.68 L778.81 55.32 L779.78 56.68 L780.19 57.06 L780.74 58.96 L781.08 59.68 L781.8 60.06 L787.25 60.1 L788.82 61.15 L789.5 63.29 L789.96 65.67 L792.28 72.21 L793.2 74.23 L795.66 76.63 L801.54 78.34 L808.36 85.46 L812.6 88.47 L814.15 95.04 L828.1 99.17 L831.53 103.63 L831.98 104.91 L834.17 108.05 L835.22 110.01 L836.14 111.27 L836.49 111.5 L837.05 112.09 L837.16 113.44 L837.1 114.93 L837.23 115.9 L839.82 118.25 L857.5 118.44 L862.71 120.06 L862.98 120.52 L862.93 122.57 L863.24 123.03 L869.28 123.52 L874.22 126.35 L877.58 126.75 L880.83 129.12 L882.23 129.08 L883.57 128.62 L885.01 128.6 L887.16 130.82 L889.37 134.56 L891.63 137.32 L896.2 135.37 L898.12 137.47 L901.32 144.47 L903.51 147.48 L914.88 155.44 L916.01 157.09 L916.52 158.81 L916.74 160.49 L917.14 162.25 L918.15 164.27 L921.61 168.68 L922.77 172.14 L922.33 176.97 L923.03 178.48 L923.12 180.12 L922.72 185.26 L922.36 187.1 L922.33 188.22 L922.5 190.1 L922.73 190.49 L923.05 190.65 L923.57 191.79 L925.23 191.75 L931.73 187.07 L934.36 186.94 L935.38 188.45 L936.23 190.61 L939.32 202.79 L939.6 204.53 L940.22 206.32 L945.91 211.83 L948.01 213.56 L954.83 222.26 L960.15 224.33 L961.6 226.94 L961.53 230.52 L959.61 234.47 L957.1 236.61 L951.68 238.6 L949.1 240.84 L947.75 244.41 L947.4 249.14 L947.63 254.08 L948.01 258.3 L948 270.25 L948.3 272.75 L949.14 275.94 L950.01 283.96 L950.62 287.27 L952.45 292.54 L953.04 295.71 L953.28 300.51 L951.9 302.52 L949.14 304.67 L947.15 306.94 L948.01 309.35 L946.58 313.47 L944.85 317.02 L943.92 320.86 L944.87 325.76 L947.43 329.19 L950.28 328.99 L953.31 327.56 L956.43 327.24 L961.64 330.71 L966.86 331.67 L968.53 332.49 L969.5 333.93 L969.35 338.42 L968.44 344 L968.44 348.64 L971.06 350.37 L969.35 356.54 L967.22 359.87 L958.55 363.97 L957.05 365.71 L956.43 368.84 L956.19 372.68 L956.59 374.08 L957.99 374.87 L957.39 377.39 L956.66 379.56 L955.81 381.41 L954.85 382.96 L955.41 386.89 L956.76 389.42 L958.41 391.59 L960.5 395.67 L961.29 396.57 L961.95 397.77 L962.22 399.9 L962.25 402.43 L962.4 404.1 L962.72 405.52 L963.27 407.28 L966.06 413.69 L967.86 416.8 L969.23 418.12 L971.56 419.17 L973.44 421.8 L977.8 431.75 L980.77 435.9 L982.38 438.76 L984.48 444 L987.58 453.63 L987.79 455.04 L987.42 456.77 L986.29 457.41 L984.5 457.3 L982.83 457.78 L981.72 461.3 L979.24 465.58 L979.19 467.01 L980.05 474.12 L980.07 478.1 L979.75 481.96 L979.18 485.54 L978.44 488.64 L978.99 492.06 L979.31 495.54 L979.17 498.85 L978.44 501.81 L976.85 503.53 L972.75 506.48 L972.63 508.62 L971.08 510.49 L968.72 511.75 L966.88 513.43 L966.88 516.49 L964.97 517.3 L962.73 519.02 L960.86 521.93 L960.08 526.26 L960.42 528.59 L961.89 532.13 L962.22 534.1 L962.33 536.68 L962.74 540.15 L962.7 542.75 L962.44 544.76 L961.78 547.26 L961.65 549.14 L961.9 551.25 L963.02 555.53 L963.69 560.48 L966.35 570.05 L968.33 573.27 L971.06 575.74 L979.01 578.69 L980.7 581.05 L984.85 593.73 L985.54 595.39 L986.34 596.61 L988.2 598.64 L988.99 599.9 L989.76 602.53 L991.72 611.92 L991.85 614.75 L991.68 618.92 L993.3 622.66 L995.32 626.31 L997.02 633.75 L1000 639.01 L999.98 642.4 L998.23 645.8 L995.54 646.3 L989.99 644.83 L990.48 645.96 L990.61 646.54 L990.84 646.92 L991.56 647.38 L989.69 648.49 L985.96 647.6 L984.19 648.67 L983.76 649.8 L983.18 652.89 L982.62 653.88 L981.85 654.04 L981.21 653.52 L980.61 652.82 L979.41 652.24 L978.71 651.57 L978.11 650.57 L977.86 649.3 L977.67 647.6 L977.2 647.6 L976.35 648.67 L972.6 648.61 L970.77 647.94 L969.98 645.53 L969.25 642.48 L967.52 641.17 L963.75 641.01 L962.59 641.9 L960.62 646.07 L959.56 647.38 L958.63 647.35 L958.09 646.47 L957.74 645.43 L957.43 644.83 L951.33 644.77 L947.97 643.68 L948.46 641.07 L947.93 640.21 L946.89 640.41 L945.92 641.01 L945.98 641.33 L945.35 643.68 L944.83 644.27 L944.3 644.52 L943.74 645 L943.21 646.23 L944.07 647.05 L944.42 648.08 L944.45 649.45 L944.3 651.33 L944.09 652.87 L943.71 653.12 L942.96 652.76 L941.67 652.49 L940.38 651.27 L939.55 648.43 L939.26 645.08 L939.55 642.4 L937.91 642.65 L936.78 644.2 L935.85 646.1 L934.8 647.38 L933.08 647.42 L931.48 646.06 L928.52 642.4 L927.23 641.58 L925.9 641.6 L924.96 642.97 L924.86 646.23 L925.5 648.54 L926.64 650.13 L929.09 652.49 L927.89 653.44 L923.02 655.93 L922.24 656.8 L920.72 658.97 L920.81 662.49 L918.78 664.43 L916.92 663.95 L917.53 660.13 L915.34 655.03 L914.4 653.88 L910.1 653.31 L906.6 651.25 L905.99 650.63 L904.37 647.38 L903.31 646.89 L901.52 647.6 L900.18 647.38 L898.41 645.21 L896.02 637.56 L894.43 634.61 L885.84 626.85 L884.31 626.35 L882.87 626.94 L883.85 628.84 L885.8 631.34 L886.54 633.34 L886.78 634.95 L887.06 639.73 L887.37 642.17 L887.72 643.99 L887.88 645.91 L887.64 648.67 L887.04 651.2 L886.19 653.23 L885.13 654.57 L883.93 655.03 L884.31 650.74 L882.39 648.45 L877.94 647.38 L876.88 648.11 L874.33 651.04 L873.47 651.33 L873.01 649.71 L873.47 647.64 L874.33 645.78 L875.04 644.83 L874 642.41 L872.86 640.85 L870.28 638.56 L870.47 637.88 L870.85 636 L865.35 634.68 L862.64 635.1 L862.43 638.56 L859.25 639.73 L862.43 644.83 L862.21 647.05 L861.19 647.29 L858.73 646.23 L859.61 647.97 L860.76 652 L861.91 653.88 L859.26 658.68 L856.16 657.21 L853.03 654.07 L850.32 653.88 L851.92 656.85 L853.43 658.63 L855.22 659.6 L860.29 660.79 L862 662.27 L863.14 665.24 L864 670.41 L863.03 670.22 L862.08 670.33 L861.16 670.83 L860.3 671.8 L859.52 667.29 L857.87 665.14 L855.85 665.02 L854.02 666.59 L854.61 667.55 L854.82 668.79 L854.62 670.22 L854.02 671.8 L854.61 672.83 L855.14 674.4 L856.11 678.02 L854.36 679.13 L848.78 679.4 L854.41 681.69 L857.32 681.73 L858.73 678.02 L858.35 676.11 L856.47 673.53 L856.11 671.8 L856.74 670.19 L857.93 670.99 L859.14 672.81 L859.82 674.34 L859.25 675.48 L863.42 677.56 L863.74 678.71 L860.34 681.48 L859.82 683.09 L860.61 684.68 L862.32 685.92 L865.31 686.99 L865.8 687.76 L866.35 689.58 L867.15 693.32 L865.33 694.62 L863.92 693.13 L862.62 690.76 L861.11 689.54 L858.82 689.06 L857.15 688.15 L855.35 686.12 L854.44 685.8 L853.49 686.99 L853.94 689.61 L851.77 689.04 L843.98 683.18 L838.22 680.65 L835.92 677.38 L834.76 676.11 L831.52 675.2 L828.92 672.1 L824.17 670.41 L823.01 669.33 L822.3 668.3 L820.71 664.74 L819.7 663.32 L817.3 661.67 L816.22 660.13 L818.03 667.76 L822.64 672.55 L832.01 678.02 L838.33 684.31 L843.38 686.93 L844.44 687.91 L845.6 689.54 L847.32 692.57 L848.33 693.4 L849.84 693.32 L847.84 695.02 L843.55 695.08 L841.42 695.84 L840.72 696.5 L840.57 696.98 L840.51 697.69 L840.09 699.07 L839.34 699.73 L838.64 698.87 L837.94 697.76 L837.22 697.74 L835.15 699.15 L824.69 695.56 L823.07 695.84 L826.65 702.14 L828.77 704.32 L830.49 703.31 L828.92 701.26 L828.29 700.9 L830.24 700.63 L834.64 706.65 L836.71 708.46 L836.13 711.01 L835.73 713.2 L835.19 714.91 L834.1 716.01 L832.85 715.87 L831.69 714.6 L829.86 710.98 L829.1 713.2 L829.38 715.09 L829.91 716.85 L829.86 718.64 L828.75 720.05 L827.16 720.3 L825.75 719.4 L825.16 717.38 L822.87 719.42 L820.57 720.62 L818.22 720.79 L811.76 718.14 L810.41 718.54 L811.51 721.15 L807.95 721.33 L806.03 720.8 L804.42 717.38 L802.63 717.46 L799.39 718.64 L799.39 719.78 L802.54 721.27 L803.62 721.15 L803.62 722.3 L798.1 721.4 L795.15 722.03 L793.69 724.93 L794.16 725.14 L794.84 725.89 L795.2 726.18 L792.08 728.69 L793.67 729.17 L795.34 730.32 L796.88 732.09 L798.08 734.39 L799.28 735.77 L801.02 736.27 L802.42 735.34 L802.57 732.45 L804.01 732.99 L805.36 734.32 L807.81 737.57 L810.31 739.76 L811.44 741.77 L811.25 744.39 L808.87 747.83 L805.4 750.02 L801.89 750.51 L799.39 748.83 L798.63 746.96 L797.21 742.22 L796.25 739.96 L795.19 738.17 L794.02 736.6 L792.65 735.48 L791.05 735.06 L789.01 733.09 L786.68 729.08 L784.16 725.82 L781.61 726.18 L782.03 726.41 L782.76 727.15 L783.18 727.43 L782.16 729.75 L778.97 730 L777.94 732.45 L787.67 735.17 L790.02 737.57 L794.63 746.33 L798.87 751.83 L804.41 763.16 L805.09 766.96 L803.64 768.59 L799.39 768.88 L800.37 770.03 L800.8 771.6 L800.75 773.52 L799.34 778.78 L799.77 779.77 L799.77 779.78 L800.99 780.14 L802.57 781.31 L800.83 782.74 L794.4 782.55 L793.47 783.79 L794.26 786.51 L795.6 789.09 L796.25 789.97 L793.87 792.14 L793.17 792.46 L792.38 792.16 L790.88 791.15 L790.02 791.21 L790.02 791.54 L789.88 792.34 L789.67 793.2 L789.46 793.69 L788.15 794.88 L787.04 796.29 L786.75 797.96 L787.89 799.88 L786.63 801.1 L777.31 801.69 L776.34 802.35 L776.19 803.75 L776.63 804.81 L777.01 806.07 L776.6 808.01 L775.99 809.32 L775.14 810.76 L774.17 811.89 L773.19 812.22 L773.97 817.01 L772.46 818.96 L770.92 820.35 L771.58 823.52 L770.35 824.61 L767.71 825.75 L766.35 825.88 L765.15 825.02 L764.7 823.07 L764.55 820.95 L764.22 819.6 L762.98 819.03 L761.79 819.77 L760.91 821.53 L760.55 824.08 L760.93 826.39 L761.88 827.37 L764.22 828.33 L763.9 830.2 L763.74 830.9 L765.13 832.62 L766.5 833.31 L769.48 833.35 L774.35 831.91 L779.23 834.15 L781.12 835.67 L781.61 838.27 L780.63 839.17 L776.71 838.82 L775.24 839.37 L776.55 842.39 L778.16 844.79 L781.61 848.06 L781.61 849.28 L780.34 849.35 L779.81 850.29 L780.01 851.63 L781.05 852.96 L781.05 854.07 L779.03 853.15 L775.41 849.01 L773.46 848.06 L771.85 846.72 L770.32 844.06 L768.71 842.02 L766.87 842.61 L766.05 844.99 L766.21 848.04 L767.09 850.97 L768.44 852.96 L770.58 853.68 L773.14 853.92 L775.46 854.9 L776.86 857.96 L775.44 858.2 L775.48 859.92 L776.47 861.89 L777.9 862.85 L779.55 862.93 L780.29 863.26 L781.05 863.94 L781.45 864.81 L782.11 867.13 L782.38 867.6 L782.99 868.17 L784.03 870.69 L784.75 871.26 L785.48 870.78 L785.68 869.81 L785.54 868.97 L785.27 868.93 L785.8 866.75 L785.9 865.06 L786.34 864.4 L787.89 865.28 L789.46 867.66 L791.18 870.98 L792.59 872.51 L793.48 868.08 L794.18 868.06 L794.89 868.78 L795.2 869.54 L795.2 873.7 L796.08 875.78 L797.15 877.04 L798.43 877.57 L799.97 877.46 L799.01 878.63 L797.95 879.57 L796.83 879.92 L795.73 879.27 L793.76 875.63 L793.17 875.02 L789.44 878.42 L787.3 879.78 L786.36 878.05 L786.14 876.82 L785.62 876.22 L785.01 876.24 L784.49 876.85 L784.3 877.95 L784.74 878.39 L785.8 878.66 L787.26 881.81 L788.27 882.72 L789.22 881.66 L790.06 881.04 L793.17 880.62 L794.16 880.98 L794.43 881.75 L795.04 884.7 L795.2 885.96 L794.28 888.68 L794.43 890.61 L795.37 891.76 L796.79 892.14 L797.51 891.58 L798.36 889.06 L798.87 888.5 L800.45 888.91 L802.01 889.71 L801.54 887.17 L802.57 887.17 L803.47 888.06 L804.06 889.75 L804.14 892.14 L803.66 893.87 L802.78 894.11 L801.75 894.11 L800.72 895.17 L799.86 896.37 L797.96 897.54 L797.06 898.8 L792.72 906.43 L789.61 909.71 L788.15 912.06 L786.28 913.73 L784.64 912.02 L783.24 909.24 L782.09 907.77 L782.41 909.35 L782.53 910.86 L782.41 912.36 L782.09 913.92 L782.58 914.46 L782.79 915.05 L782.92 915.7 L783.18 916.45 L781.93 916.97 L779.73 918.69 L778.42 918.85 L777.33 918.2 L776.86 917.57 L776.37 917.85 L766.65 933.01 L766.35 933.31 L764.02 932.24 L763.74 932 L763.08 932.9 L761.11 938.22 L755.13 945.63 L753.75 949.02 L754.69 952.04 L754.19 955.21 L751.16 961.84 L750.98 962.55 L750.91 963.48 L750.61 965.67 L750.8 965.32 L750.97 965.94 L751.09 966.93 L751.13 967.57 L751 968.12 L750.7 968.23 L750.36 968.45 L750.14 969.34 L750.02 972.86 L749.8 974.65 L749.3 975.43 L748.4 975.8 L747.8 976.62 L747.42 977.44 L747.22 977.82 L745.55 978.89 L744.28 981.45 L742.77 987.34 L741.33 992.97 L740.62 994.57 L736.96 998.02 L733.54 998.21 L732.78 999.21 L732.41 1001.58 L733.02 1002.71 L734.17 1002.98 L735.4 1002.77 L733.75 1006.84 L732.77 1008.49 L731.98 1008.15 L730.35 1004.11 L729.37 1003 L728.02 1002.77 L724.37 1006.92 L724.12 1009.19 L723.49 1010.61 L722.66 1010.9 L721.76 1009.88 L722.52 1008.07 L722.36 1006.49 L721.64 1005.1 L719.98 1002.97 L719.65 1002.81 L716.01 1011.45 L714.56 1013.36 L712.77 1012.25 L713.2 1013.67 L713.15 1014.56 L712.9 1015.45 L712.77 1016.97 L713.31 1020.75 L713.35 1021.81 L712.88 1023.75 L712.16 1025.7 L711.29 1027.21 L710.43 1027.81 L709.04 1027.27 L708.27 1025.82 L708.17 1023.7 L708.85 1021.17 L708.8 1019.53 L708.08 1017.25 L707.05 1015.27 L706.02 1014.6 L705.35 1017.01 L705.46 1027.57 L704.68 1031.83 L703.7 1032.19 L702.49 1030.98 L701.59 1029.02 L701.54 1027.17 L702.18 1025.21 L702.74 1022.79 L703.05 1020.35 L702.88 1018.26 L701.38 1020.53 L699.94 1024.25 L699.17 1028.51 L699.69 1032.43 L697.9 1032 L692.85 1032.43 L692.06 1032.84 L691.17 1033.58 L690.28 1033.88 L689.45 1033.02 L688.93 1031.32 L688.63 1030.58 L688.14 1030.07 L686.73 1029.78 L685.19 1030.27 L683.74 1031.41 L682.63 1033.02 L681.94 1035.32 L682.12 1037.26 L683.43 1040.77 L677.44 1037.88 L676.32 1037.78 L675.2 1039.07 L672.44 1040.67 L671.88 1041.36 L670.71 1045.82 L667.93 1048.85 L664.72 1051.35 L662.19 1054.22 L661.97 1055.95 L663.23 1060.52 L663.66 1064.47 L663.39 1065.13 L661.55 1065.73 L660.84 1066.47 L659.85 1067.85 L658.07 1069.76 L657.14 1070.17 L653.48 1067.85 L653.25 1065.41 L653.54 1063.58 L653.29 1062.11 L651.45 1060.83 L651.63 1060.17 L651.8 1058.99 L651.92 1058.39 L650.89 1057.7 L648.82 1054.76 L644.81 1053.16 L643.79 1051.94 L642.22 1049.33 L640.51 1047.83 L638.68 1047.94 L636.7 1050.06 L637.55 1051.05 L638.44 1051.72 L640.4 1052.52 L639.32 1056.86 L640.27 1058.25 L642.33 1058.85 L644.59 1060.83 L642.46 1062.39 L641.39 1062.89 L640.12 1063.06 L639.84 1063.73 L640.6 1065.19 L643.69 1069.83 L643.97 1071.04 L644.07 1073.01 L643.41 1073.51 L641.9 1072.59 L639.32 1070.19 L633.03 1061.91 L631.01 1060.82 L630.94 1062.24 L633.03 1067.85 L631.41 1068.69 L629.83 1067.26 L628.33 1065.19 L626.96 1064.14 L626 1065.36 L625.65 1068.23 L625.68 1074.23 L625.59 1075.87 L625.23 1078.65 L625.14 1080.17 L625.14 1085.37 L624.36 1087.66 L623.3 1088.8 L622.39 1088.23 L622.06 1085.37 L620.39 1088.16 L616.49 1089.37 L614.69 1091.2 L615.16 1091.66 L616.25 1093.63 L615.36 1094.76 L613.94 1098.72 L613.07 1100.6 L614.69 1100.6 L613.43 1103.4 L611.94 1103.19 L608.89 1099.34 L607.55 1103.01 L608.82 1105.12 L611.15 1106.09 L613.07 1106.31 L612.47 1108.3 L611.6 1108.51 L610.63 1108.35 L609.69 1109.27 L609.19 1110.98 L608.98 1112.36 L608.54 1113.22 L607.31 1113.38 L606.98 1112.68 L604.83 1109.7 L604.42 1109.27 L603.8 1108.2 L602.26 1106.51 L601.57 1105.25 L601.93 1103.01 L601.06 1101.84 L599.71 1101.03 L598.66 1099.97 L597.35 1098.22 L595.76 1097.29 L594.76 1097.86 L595.24 1100.6 L594.24 1101.14 L589.97 1099.34 L586.81 1099.06 L585.43 1099.52 L584.21 1100.6 L585.78 1102.36 L597.86 1107.58 L596.4 1110 L593.97 1110.98 L588.92 1111.06 L589.26 1112.74 L589.44 1113.38 L588.2 1115.06 L587.12 1114.93 L586.14 1113.44 L585.78 1111.06 L585.57 1108.33 L587.22 1107.61 L591.01 1107.58 L591.01 1106.31 L583.74 1104.19 L581.55 1105.25 L582.6 1106.36 L583.04 1107.76 L583.24 1109.38 L583.64 1111.06 L585.36 1115.39 L585.78 1116.85 L574.72 1113.21 L571.13 1113.38 L571.13 1114.53 L572.75 1114.6 L574.52 1115.51 L576.09 1116.98 L577.16 1118.64 L577.8 1120.51 L578.23 1122.57 L578.04 1124.27 L576.89 1124.95 L575.3 1124.26 L573.77 1122.99 L572.22 1122.44 L570.56 1123.79 L570 1125.39 L569.68 1127.3 L569.14 1129.18 L567.96 1130.73 L570.56 1130.73 L567.17 1133.79 L566.12 1134.19 L565.65 1135.11 L565.17 1139.15 L564.53 1140.07 L563.74 1139.5 L561.15 1135.46 L560.01 1134.52 L558.83 1134.09 L557.61 1134.34 L556.4 1135.46 L558.9 1137.5 L560.21 1138.95 L561.15 1141.11 L556.11 1140.07 L555.89 1139.71 L555.21 1137.91 L554.83 1137.23 L554.18 1136.81 L553.99 1137.4 L553.97 1138.33 L553.78 1138.92 L553.87 1139.17 L552.73 1141.11 L550.86 1142.37 L546.41 1143.52 L548.31 1145.13 L568.07 1144.86 L570.11 1145.87 L571.61 1148.03 L572.07 1150.5 L571.41 1151.34 L570.34 1150.5 L569.56 1148.03 L569 1148.03 L568.35 1151.28 L566.57 1152.05 L564.43 1151.39 L559.93 1148.67 L558.79 1149.42 L557.97 1152.72 L561.57 1155.59 L562.72 1156.17 L565.51 1155.08 L567.04 1154.88 L567.96 1156.17 L567.16 1159.64 L564.08 1160.05 L558.54 1158.47 L559.69 1160.81 L563.39 1162.42 L564.24 1164.22 L564 1165.75 L563.33 1166.86 L562.47 1167.54 L560.6 1168.05 L559.9 1168.71 L559.3 1169.5 L558.54 1170.15 L556.82 1170.96 L555.96 1171.04 L554.49 1170.47 L553.26 1170.4 L552.73 1170.15 L552.48 1169.63 L552.32 1168.85 L552.17 1167.76 L549.68 1164.32 L548.45 1163.11 L546.94 1163.07 L547.12 1163.73 L547.46 1165.47 L543.76 1165.47 L543.76 1166.51 L544.6 1167.17 L544.77 1168.35 L544.42 1169.76 L543.76 1171.19 L545.46 1172.17 L547.98 1169.02 L549.55 1170.15 L547.72 1175.34 L546.56 1177.28 L545.08 1178.06 L544.37 1178.78 L543.64 1180.14 L542.84 1180.9 L541.94 1179.88 L541.91 1178.8 L542.31 1177.5 L542.88 1176.38 L543.28 1175.78 L542.17 1175.16 L541.45 1176.43 L540.85 1178.55 L540.09 1180.45 L538.66 1181.82 L537.12 1182.05 L533.82 1181.5 L534.18 1179.92 L534.39 1179.31 L533.13 1178.14 L531.64 1177.82 L528.58 1178.06 L530.5 1175.2 L537.2 1176.14 L539.09 1173.39 L535.88 1171.93 L534.36 1170.86 L533.34 1168.91 L533.53 1168.56 L533.6 1168.36 L533.66 1168.17 L533.82 1167.76 L532.09 1168.25 L529.45 1170.2 L527.03 1172.77 L525.97 1175.2 L525.43 1175.81 L524.2 1175.28 L522.94 1174.26 L522.26 1173.39 L522.1 1171.9 L522.26 1165.99 L522.11 1165.49 L521.39 1163.98 L521.22 1163.07 L521.37 1162.23 L522.09 1160.79 L522.26 1160.24 L521.88 1157.69 L520.95 1157.68 L519.76 1158.51 L518.6 1158.47 L518.1 1157.23 L516.75 1151.05 L516.08 1149.63 L515.29 1148.5 L514.38 1147.64 L513.32 1146.98 L513.87 1146.22 L514.94 1143.52 L513.24 1143.77 L510.83 1146.3 L509.67 1146.98 L508.25 1146.26 L506.98 1144.77 L505.74 1143.79 L504.43 1144.57 L513.92 1153.21 L516.23 1156.75 L517.63 1160.01 L519.45 1165.34 L520.38 1170.53 L519.13 1173.39 L519.13 1174.63 L522.46 1177.03 L523.35 1178.06 L524.29 1179.47 L524.59 1180.04 L524.45 1183.26 L525.02 1185.13 L527.54 1189.22 L528.1 1192.35 L527.91 1194.21 L527.2 1197.05 L527.28 1198.1 L527.69 1199.71 L527.39 1200.54 L526.7 1200.87 L525.97 1201 L525.43 1200.67 L523.67 1199.08 L522.81 1198.71 L518.08 1198.71 L519.6 1200.85 L531.21 1206.16 L531.28 1207.99 L531.55 1209.42 L532.05 1210.47 L532.82 1211.22 L531.15 1211.83 L525.47 1217.09 L525 1216.57 L524.89 1214.51 L524.28 1209.57 L524.33 1208.56 L524.1 1208.05 L523.07 1207.92 L522.59 1208.46 L522.21 1209.73 L521.38 1214.97 L521.26 1216.35 L521.22 1217.58 L520.95 1218.94 L520.29 1219.55 L518.6 1220.32 L519.69 1222.57 L517.3 1227 L515.88 1228.85 L514.38 1229.49 L513.54 1228.89 L512.23 1226.67 L511.52 1226.18 L507.57 1226.18 L504.39 1227.51 L502.72 1228.89 L501.77 1230.72 L501.83 1233.54 L503.08 1234.55 L504.62 1235.33 L505.48 1237.5 L495.45 1237.02 L494.33 1236.46 L493.43 1235.7 L492.01 1233.32 L491.6 1232.97 L488.18 1226.18 L484.85 1221.03 L483.99 1220.32 L482.41 1221.23 L481.6 1225.26 L480.31 1226.18 L478.77 1226.48 L477.46 1227.45 L476.64 1229.17 L476.62 1231.74 L480.02 1237.5 L480.21 1238.09 L480.35 1239.44 L480.39 1240.92 L480.29 1241.91 L479.71 1242.67 L478.83 1243.04 L477.88 1243.15 L477.15 1243.04 L478.02 1244.03 L478.92 1245.42 L479.37 1247.19 L478.97 1249.3 L478.88 1251.02 L479.49 1253.1 L480.46 1254.82 L481.38 1255.54 L483.78 1254.97 L484.84 1255.21 L486.08 1256.67 L486.68 1258.13 L487.21 1259.88 L487.82 1261.47 L488.7 1262.41 L488.7 1263.42 L487.98 1263.37 L487.51 1263.64 L486.55 1264.65 L493.17 1268.59 L494.7 1267.8 L497.21 1268.51 L499.72 1269.97 L501.29 1271.4 L494.92 1275.88 L493 1276.39 L492.8 1275.61 L494.92 1271.4 L493.66 1270.53 L492.27 1270.9 L491.06 1272.06 L490.26 1273.63 L489.92 1276.05 L490.01 1278.72 L490.22 1281.07 L490.26 1282.6 L489.72 1284.76 L489.49 1285.26 L488.19 1288.07 L487.64 1290.33 L487.49 1293.57 L487.54 1295.56 L487.12 1296.92 L485.56 1298.26 L487.22 1299.24 L486.48 1301.45 L483.94 1305.06 L484.84 1305.88 L485.97 1307.39 L486.57 1308.85 L485.82 1309.52 L482.16 1310.11 L481.33 1310.63 L480.9 1312.32 L481.07 1314.15 L480.87 1315.59 L479.23 1316.19 L478.47 1316.68 L477.97 1317.94 L477.69 1319.72 L477.67 1321.76 L477.97 1323.8 L479.02 1326.67 L479.23 1327.91 L478.99 1328.98 L477.91 1329.83 L477.67 1330.63 L477.61 1330.35 L477.54 1331.57 L477.54 1332.89 L477.67 1332.86 L477.87 1332.97 L478.25 1333.4 L478.4 1334.24 L477.93 1335.67 L477.54 1336.42 L477.24 1337.21 L477.15 1338.08 L477.41 1338.99 L478.39 1339.64 L482.37 1338.49 L481.99 1340.04 L481.4 1341.07 L480.64 1341.64 L479.76 1341.82 L479.76 1343.03 L481.05 1343.81 L481.22 1345.63 L480.95 1348.05 L480.86 1350.66 L481.26 1353.62 L481.88 1354.49 L485.64 1353.49 L486.96 1352.68 L488.3 1352.51 L489.75 1353.97 L490.68 1355.87 L491.15 1357.72 L491.13 1359.52 L490.52 1361.29 L490.03 1363.42 L489.79 1366.2 L489.32 1368.58 L488.18 1369.6 L486.66 1369.46 L485.47 1368.93 L484.46 1367.88 L483.47 1366.2 L480.66 1359.28 L479.05 1356.63 L476.62 1355.18 L476.75 1357.29 L477.15 1358.89 L478.18 1361.79 L475.29 1361.02 L474.27 1359.73 L474.53 1357.28 L471.72 1354.61 L468.48 1353.7 L461.87 1353.97 L462.82 1355.79 L463.99 1356.42 L466.62 1356.28 L471.87 1359.58 L471.2 1362.28 L468.82 1364.06 L466 1364.98 L464.03 1365.09 L464.03 1366.2 L464.62 1366.36 L466.11 1367.41 L463.92 1368.36 L460.41 1366.85 L458.74 1368.41 L468.58 1370.69 L470.29 1372.81 L468.61 1373.77 L467.27 1373.5 L464.5 1371.71 L462.85 1371.35 L457.7 1371.71 L457.7 1372.81 L460.43 1372.67 L461.64 1373.27 L462.46 1375 L459.18 1376.64 L455.61 1377.1 L457.61 1378.86 L465.59 1380.51 L465.59 1381.6 L458.22 1381.3 L457.43 1382.2 L458.12 1383.02 L459.85 1383.65 L461.27 1385.06 L463.21 1385.57 L464.03 1385.99 L464.03 1387.18 L460.84 1387.18 L460.84 1388.18 L463.84 1389.66 L464.5 1390.48 L464.86 1392.42 L464.44 1393.45 L463.66 1394.39 L462.93 1395.95 L463.36 1397.32 L463.67 1398.65 L464.27 1399.76 L465.06 1400.42 L466.05 1400.41 L466.52 1399.6 L466.93 1398.61 L467.66 1398.15 L468.18 1398.65 L468.26 1399.78 L467.93 1400.91 L467.16 1401.42 L466.27 1401.55 L465.44 1401.97 L464.69 1402.68 L464.03 1403.71 L463.46 1402.47 L462.58 1400.97 L461.76 1400.4 L461.08 1403.41 L459.6 1404.84 L459.27 1406.44 L459.66 1407.36 L461.87 1411.25 L464.09 1413.41 L466.64 1414.63 L466.76 1416.39 L472.45 1420.07 L470.15 1420.67 L467.67 1420.17 L462.93 1417.8 L464.04 1420.97 L466.09 1422.43 L468.41 1423.21 L470.29 1424.34 L467.01 1424.14 L465.64 1423.72 L461.65 1419.74 L460.37 1419.18 L458.74 1418.98 L458.74 1420.07 L460.6 1421.01 L462.91 1423.29 L465.11 1426.14 L466.64 1428.78 L467.6 1432.62 L466.4 1434.05 L464.39 1435.05 L462.93 1437.58 L465.59 1439.65 L465.21 1443.65 L464.65 1444.97 L463.46 1446.25 L465.01 1448.41 L465.3 1450.43 L464.43 1451.73 L462.46 1451.78 L463.31 1452.25 L465.38 1452.28 L466.11 1452.75 L466.47 1453.69 L466.61 1454.76 L466.43 1455.63 L465.85 1456 L465.18 1456.7 L464.62 1458.41 L464.22 1460.56 L464.03 1462.58 L464.3 1463.22 L464.88 1464.06 L465.59 1464.74 L463.98 1466.42 L463.46 1466.8 L467.5 1466.16 L469.37 1466.42 L470.29 1467.99 L465.72 1469.21 L464.15 1471.17 L463.46 1475.54 L463.36 1477.46 L463.42 1478.08 L465.06 1479.84 L466.42 1480 L467.01 1480.37 L466.8 1482.32 L467.01 1483.4 L467.68 1485.31 L467.91 1485.81 L469.14 1484.99 L469.81 1485.31 L470.16 1486.02 L472.92 1494.99 L472.3 1495.19 L471.61 1495.63 L471.07 1496.29 L470.87 1497.14 L471.16 1498.98 L471.72 1499.06 L472.37 1498.74 L472.92 1499.37 L473.12 1501.44 L472.92 1503.05 L472.98 1504.4 L474 1505.71 L475.46 1506.19 L476.64 1506.09 L477.01 1506.63 L476.1 1508.91 L475.16 1510.02 L472.68 1511.43 L470.62 1513.98 L467.74 1516.14 L465.94 1516.84 L465.57 1517.57 L465.6 1518.31 L466.11 1518.65 L467.02 1518.47 L468.73 1517.67 L469.53 1517.47 L471.06 1517.99 L472.59 1520.26 L475.06 1521.33 L479.23 1525.05 L476.1 1527.18 L476.1 1528.26 L477.31 1529.15 L478.87 1529.39 L480.15 1529.01 L480.42 1528.93 L481.61 1527.71 L483 1526.82 L493.21 1525.07 L495.34 1525.26 L496.81 1526.6 L497.9 1527.99 L500.75 1529.84 L501.77 1531.45 L500.84 1532.81 L498.11 1534.53 L497.55 1535.22 L497.79 1537.49 L498.9 1540.99 L499.16 1542.67 L500.18 1545.92 L502.67 1547.68 L508.09 1548.56 L508.09 1547.41 L506.99 1542.91 L509.68 1538.46 L513.81 1535.04 L521.66 1532.72 L523.97 1532.87 L525.97 1534.64 L527.54 1540.06 L527.4 1541.95 L526.95 1543.54 L526.27 1544.69 L525.41 1545.37 L525.41 1546.44 L527.39 1546.62 L529.3 1547.97 L532.82 1551.75 L535.43 1553.78 L535.75 1554.71 L536.23 1557.25 L536.48 1558.12 L538.88 1561.75 L541.59 1564.02 L547.98 1566.58 L546.69 1567.43 L544.74 1569.48 L543.76 1570.82 L543.76 1571.97 L544.84 1573.29 L545.35 1574.11 L545.89 1575.15 L547.1 1574.07 L549.15 1571.7 L550.6 1570.82 L551.91 1570.53 L552.89 1570.74 L555.35 1571.97 L560.68 1571.79 L562.2 1572.94 L562.11 1573.4 L562.05 1574.66 L562.06 1576.13 L562.2 1577.25 L562.52 1577.75 L564.24 1579.37 L564.24 1580.42 L563.29 1580.69 L562.36 1580.51 L561.45 1580.56 L560.59 1581.47 L571.21 1585.62 L574.23 1588.86 L571.08 1590.52 L558.58 1585.58 L556.17 1582.58 L552.17 1576.1 L553.24 1581.54 L556.23 1585.73 L559.69 1589.36 L562.2 1593.06 L560.89 1593.18 L559.86 1592.34 L557.97 1589.81 L558.51 1593.56 L560.06 1595.77 L563.77 1598.42 L565.65 1600.81 L566.66 1601.59 L567.96 1601.58 L568.87 1601.11 L569.58 1600.28 L569.88 1599.04 L569.91 1598.76 L569.88 1603.42 L570.04 1605.69 L570.37 1606.87 L571.82 1611.97 L572.18 1614.17 L572.66 1614.17 L573.08 1611.87 L573.15 1608.89 L572.87 1605.93 L572.18 1603.68 L573.81 1602.74 L575.83 1602.35 L577.79 1602.74 L580.42 1605.43 L583.1 1606.16 L584.21 1607.88 L584.58 1610.37 L584.45 1615.67 L584.97 1617.88 L588.32 1622.81 L588.92 1624.75 L587.76 1620.78 L586.31 1616.92 L585.58 1612.9 L586.56 1608.46 L589.44 1606.83 L590.47 1607.46 L590.74 1608.06 L590.53 1610.5 L590.68 1613.08 L591.05 1615.03 L594.4 1626.47 L597.07 1633.58 L598.53 1635.56 L601.88 1636.7 L603.64 1637.85 L604.92 1639 L605.23 1639.36 L605.26 1639.74 L605.18 1640.99 L605.23 1641.36 L606.37 1643.17 L606.95 1643.63 L607.84 1643.54 L607.69 1642.81 L607.47 1641.1 L607.31 1640.41 L608.67 1640.69 L609.98 1641.36 L609.72 1643.56 L609.6 1649.66 L609.69 1650.92 L607.15 1650.71 L606.12 1649.95 L600.59 1640.81 L598.12 1637.55 L595.76 1636.24 L596.55 1638.19 L599.19 1643.02 L599.54 1645.61 L598.68 1648.08 L593.89 1655.59 L592.5 1656.73 L590.77 1657.17 L587.42 1656.99 L585.7 1657.4 L584.47 1658.67 L584.11 1660.8 L585.5 1660.79 L588.39 1659.24 L607.71 1658.34 L611.02 1660.28 L610.2 1663.7 L608.92 1665.76 L607.25 1666.93 L602.6 1668.36 L601.19 1668.34 L600 1667.64 L599.26 1666.49 L598.44 1664.21 L597.86 1663.39 L596.94 1665.99 L595.3 1667.98 L593.43 1669.27 L587.74 1671.02 L585.95 1672.61 L585.78 1674.8 L583.05 1674.94 L582.6 1675.32 L582.48 1676.66 L582.17 1677.71 L581.67 1678.45 L581.03 1678.94 L584.74 1678.94 L584.24 1680.13 L583.34 1681.53 L582.32 1682.69 L581.55 1683.17 L580.76 1682.74 L580.14 1681.86 L579.42 1681.08 L578.45 1681.01 L579.96 1683.88 L580.48 1685.54 L579.76 1686.28 L578.78 1686.76 L576.92 1688.89 L573.65 1690.34 L569.31 1694.61 L564.98 1696.33 L562.97 1698.21 L559.54 1702.88 L556.98 1705.09 L554.32 1705.59 L548.51 1704.93 L548.51 1705.96 L551.12 1708.02 L550.06 1708.98 L547.98 1708.7 L546.94 1709.05 L548.33 1709.86 L549.55 1711.11 L549.1 1713.2 L550.35 1714.48 L552.25 1715.13 L553.78 1715.32 L551.44 1717.08 L546.86 1716.95 L542.34 1715.48 L540.09 1713.26 L540.97 1712.67 L541.91 1712.38 L542.86 1712.51 L543.76 1713.26 L543.51 1711.99 L543.18 1708.94 L542.76 1708.02 L541.79 1707.83 L540.09 1709.52 L539.04 1710 L538.45 1709.67 L537.57 1708.28 L537 1708.02 L536.58 1708.37 L535.65 1709.7 L535.17 1710 L534.37 1710.73 L534.37 1712.41 L534.84 1714.2 L535.43 1715.32 L532.91 1717.03 L532.03 1717.28 L531.15 1717 L529.48 1715.69 L528.58 1715.32 L539.09 1725.58 L536.36 1726.22 L535.18 1725.86 L535.19 1727.6 L541.14 1727.64 L542.96 1726.49 L543.76 1726.72 L544.32 1728.66 L544.79 1728.66 L547.41 1722.2 L552.27 1720.22 L557.74 1721.19 L562.2 1723.53 L561.77 1724.01 L561 1725.12 L560.59 1725.58 L562.89 1726.32 L563.9 1726.05 L564.81 1724.46 L562.74 1719.37 L562.2 1717.28 L565.86 1717.28 L562.81 1715.15 L561.41 1713.7 L560.59 1711.11 L565.02 1711.45 L567.02 1712.36 L569 1714.2 L569.13 1714.72 L569.43 1716.71 L569.56 1717.28 L574.8 1720.37 L573.92 1722.24 L572.61 1722.25 L571.06 1721.58 L569.56 1721.39 L571.3 1722.42 L573.94 1723.25 L576.35 1724.58 L577.42 1727.08 L576.84 1729.36 L575.37 1730.38 L571.38 1730.62 L570.15 1730.97 L568.93 1731.61 L567.67 1731.88 L566.38 1731.18 L565.43 1730.45 L563.22 1729.76 L562.2 1729.68 L555.81 1730.64 L553.78 1729.68 L553.93 1728.99 L554.15 1727.2 L554.3 1726.51 L552.78 1726.46 L551.44 1727.09 L550.21 1728.22 L549.03 1729.68 L550.02 1730.38 L550.89 1731.42 L551.61 1732.61 L552.17 1733.79 L552.17 1734.81 L549.58 1734.77 L548.81 1735.49 L549.29 1737.37 L553.76 1739.93 L555.56 1740.5 L557.63 1742.07 L559.48 1744.36 L560.59 1747.08 L553.61 1741.23 L551.93 1741.51 L551.91 1743.3 L553.13 1744.41 L554.75 1744.97 L555.87 1745.12 L556.42 1746.08 L556.83 1747.92 L557.55 1749.13 L559.02 1748.19 L558.75 1748.78 L558.59 1749.27 L558.36 1749.73 L557.97 1750.23 L557.97 1751.26 L559.99 1750.33 L560.81 1750.4 L561.15 1751.8 L560.94 1753.56 L560.39 1754.98 L559.63 1755.57 L558.77 1754.78 L557.12 1754.41 L554.23 1755.31 L551.46 1756.87 L550.13 1758.48 L550.99 1758.23 L551.75 1758.41 L552.36 1759.09 L552.73 1760.33 L545.55 1763.88 L543.28 1764.41 L544.31 1763.53 L546.43 1762.22 L547.46 1761.35 L546.41 1760.33 L546.92 1759.81 L547.46 1759.41 L547.46 1758.48 L546.2 1758.34 L545.03 1758.63 L543.96 1759.44 L543.02 1760.84 L542.09 1761.65 L539.53 1761.94 L538.52 1762.47 L537.85 1763.47 L536.22 1767.05 L535.27 1767.75 L531.21 1767.55 L531.36 1768.27 L531.61 1770.01 L531.77 1770.7 L529.86 1769.69 L528.95 1769.75 L528.1 1770.7 L529.32 1773.03 L528.15 1775.54 L526.17 1778.44 L524.93 1781.87 L525.06 1783.61 L525.49 1784.75 L525.64 1785.95 L524.93 1787.95 L523.93 1789.1 L522.59 1789.8 L521.22 1789.83 L520.21 1788.96 L519.8 1790.79 L519.65 1792.8 L519.69 1797.06 L518.7 1796.1 L517.89 1794.69 L517.58 1792.95 L518.08 1790.98 L517.52 1789.06 L517.26 1788.46 L516.55 1787.61 L515.98 1787.63 L515.47 1787.94 L514.94 1787.95 L513.7 1787.1 L512.98 1786.26 L511.52 1783.34 L510.56 1782.28 L510.71 1784.28 L511.61 1787.5 L512.84 1790.06 L511.97 1792.64 L511.53 1793.63 L510.99 1794.02 L510.62 1793.33 L510.69 1791.74 L510.98 1790.04 L511.27 1788.96 L508.69 1787.75 L508.5 1784.96 L508.9 1781.63 L508.09 1778.82 L508.09 1777.72 L509.19 1775.49 L509.57 1770.93 L509.53 1766.43 L509.4 1764.41 L509.22 1763.75 L510.21 1760.21 L510.19 1758.48 L509.37 1757.68 L508.34 1758.15 L507.43 1759.39 L507.05 1760.84 L506.94 1765.49 L506.54 1767.66 L505.72 1768.58 L505.02 1767.91 L502.3 1764.41 L502.52 1762.22 L504.06 1758.86 L504.43 1756.86 L504.15 1755.15 L503.46 1753.57 L502.6 1752.24 L501.77 1751.26 L502.86 1756.36 L501.94 1758.62 L500.89 1760.34 L499.64 1761.61 L498.11 1762.47 L498.83 1765.63 L498.5 1768.82 L498.37 1771.66 L499.68 1773.74 L498.9 1776.08 L498.35 1779.31 L497.8 1781.5 L497.07 1780.76 L496.22 1781.64 L496.21 1781.65 L495.83 1782.21 L495.49 1782.87 L496.09 1783.72 L496.72 1784.34 L497.39 1784.72 L498.11 1784.9 L498.11 1785.92 L497.35 1787.16 L498.31 1787.72 L499.31 1788.65 L498.63 1790.98 L497.18 1792.16 L495.58 1791.94 L493.95 1791.24 L492.35 1790.98 L493.1 1792.82 L494.15 1794.2 L496.54 1796.14 L496.54 1797.06 L494.92 1797.06 L495.46 1797.73 L496.01 1798.17 L493.86 1798.08 L488.08 1793.34 L485.56 1792 L485.56 1793.01 L486.92 1794.03 L487.23 1795.67 L486.55 1800.18 L485.88 1802.64 L485.77 1803.75 L486.32 1804.22 L486.87 1804.47 L488.7 1806.15 L486.51 1807.36 L477.15 1805.14 L479.76 1809.2 L480.16 1811.36 L478.7 1813.31 L474.68 1813.13 L472.45 1813.65 L472.45 1816.33 L463.74 1816.14 L461.4 1815.32 L460.55 1814.36 L459.02 1811.8 L457.96 1811.29 L457.07 1811.61 L454.84 1812.99 L453.46 1813.31 L454.5 1813.92 L456.92 1814.25 L457.7 1815.32 L457.71 1816.63 L457.23 1817.86 L456.59 1818.82 L456.09 1819.36 L457.66 1820.44 L460.9 1820.01 L462.46 1820.45 L462.46 1821.36 L460.69 1823.32 L459.57 1825.33 L458.43 1826.63 L456.65 1826.49 L452.14 1823.54 L449.38 1823.02 L447.77 1825.39 L451.43 1825.59 L452.8 1826.78 L454.04 1829.51 L452.29 1829.49 L445.49 1831.84 L419.05 1828.62 L392.61 1825.39 L392.61 1826.49 L393.58 1826.96 L394.4 1827.97 L394.73 1829.25 L394.23 1830.51 L393.08 1830.84 L389.85 1830.08 L388.43 1830.51 L388.43 1831.42 L389.39 1830.89 L390.32 1830.59 L391.1 1830.98 L391.56 1832.52 L393.1 1831.45 L396.56 1833.24 L398.15 1831.97 L399.26 1830.26 L400.29 1829.82 L401.21 1830.32 L402.85 1832.39 L403.17 1832.56 L403.2 1833.06 L403.17 1835.03 L403.54 1836.29 L404.4 1836.82 L405.36 1836.71 L406.05 1836.08 L406.57 1834.25 L406.98 1831.92 L407.52 1829.79 L408.39 1828.5 L409.47 1828.82 L413.35 1831.03 L414.37 1831.97 L423.41 1831.65 L425.06 1832.3 L426.49 1834.03 L427.53 1834.78 L430.66 1835.25 L432.02 1836.62 L431.87 1835.9 L431.65 1834.24 L431.5 1833.52 L434.21 1834.46 L435.16 1834.53 L434.42 1837.25 L434.91 1839.59 L436.3 1841.16 L438.3 1841.55 L437.59 1842.41 L437.26 1842.64 L437.26 1843.46 L439.35 1843.46 L439.35 1844.56 L438.6 1845.93 L439.56 1846.69 L442.49 1847.56 L446.72 1851.57 L444.88 1852.69 L441.03 1852.75 L439.35 1853.56 L440.03 1855.67 L438.3 1857.28 L435.7 1858.3 L433.83 1858.66 L433.34 1858.96 L432.43 1860.3 L432.02 1860.66 L431.46 1860.57 L430.43 1859.8 L429.89 1859.56 L420.5 1857.79 L416.04 1854.93 L408.51 1852.32 L406.31 1853.56 L409.04 1853.96 L425.22 1862.74 L427.75 1863.04 L428.75 1863.78 L429.46 1865.64 L429.47 1866.99 L429.2 1868.21 L429.06 1869.41 L429.46 1870.72 L430.11 1870.64 L431.3 1870.03 L432.33 1869.28 L432.5 1868.74 L433.42 1869.49 L433.78 1870.29 L434.07 1873.72 L423.09 1871.63 L424.35 1873.19 L427.15 1875.44 L428.32 1876.71 L428.04 1878.25 L428.21 1879.25 L429.15 1879.69 L429.99 1879.52 L430.39 1878.97 L430.37 1878.04 L429.89 1876.71 L434.4 1875.77 L435.92 1876.05 L435.16 1878.69 L434.75 1878.9 L433.48 1878.63 L433.02 1878.69 L432.96 1879.15 L432.92 1880.04 L432.81 1881 L432.5 1881.67 L431.62 1882.22 L428.84 1882.67 L428.84 1883.67 L430.58 1884.09 L436.21 1887.56 L435.47 1888.41 L435.16 1888.64 L436.18 1889.55 L437.03 1891.09 L437.61 1893.02 L437.82 1895.1 L437.69 1897.02 L437.29 1897.37 L436.62 1896.98 L435.69 1896.67 L435.08 1897.07 L435.33 1897.99 L436.02 1898.98 L436.73 1899.56 L434.23 1904.15 L429.96 1901.34 L425.4 1896.16 L422 1893.6 L423.12 1896.13 L426.17 1899.1 L427.27 1901.63 L426.77 1901.57 L425.72 1901.7 L425.22 1901.63 L426.92 1904.48 L429.55 1907.97 L431.09 1910.78 L429.46 1911.53 L429.67 1913.38 L429.26 1914.44 L428.4 1914.81 L427.27 1914.58 L428.89 1915.83 L430.23 1916.42 L431.4 1917.29 L432.5 1919.44 L431.88 1920.65 L431.22 1920.99 L430.53 1920.55 L429.89 1919.44 L427.68 1920.9 L427.31 1921.78 L428.32 1923.38 L426.72 1922.31 L425.1 1917.94 L424.09 1917.46 L423.05 1919.01 L423.51 1920.95 L425.22 1924.46 L426.15 1924.24 L427.27 1924.46 L427.31 1924.6 L428.14 1927.29 L428.81 1928.52 L429.67 1927.87 L430.45 1926.79 L431.03 1927.11 L431.38 1928.52 L431.5 1930.82 L431.94 1931.65 L433.98 1934.11 L434.64 1935.3 L433.33 1935.29 L430.41 1933.33 L431.09 1935.5 L433.33 1937.65 L433.59 1939.23 L432.77 1940.79 L431.47 1940.77 L430.11 1939.86 L429.15 1938.74 L427.64 1935.15 L427.01 1934.76 L426.75 1937.71 L426.08 1938.72 L424.53 1938.8 L421.47 1938.25 L421.72 1936.98 L421.72 1935.74 L421.45 1934.52 L420.95 1933.33 L421.81 1933.21 L422.63 1933.39 L423.39 1933.81 L424.09 1934.41 L414.17 1923.21 L413.45 1923.3 L412.87 1924.06 L412.58 1925.35 L412.79 1926.34 L413.35 1927.36 L415.46 1930.23 L419.9 1932.35 L419.5 1932.78 L418.74 1933.97 L418.33 1934.41 L418.82 1935.86 L418.9 1937.2 L418.56 1938.35 L417.81 1939.23 L416.38 1937.64 L414.88 1936.57 L411.53 1935.3 L412.58 1937.18 L412.01 1938.25 L411.48 1937.73 L409.96 1937.18 L409.96 1938.25 L426.44 1956.98 L428.84 1958.97 L428.32 1959.94 L427.02 1959.45 L423.35 1956.81 L422.28 1955.58 L416.21 1946.26 L406.83 1938.25 L407.45 1940.81 L408.33 1942.47 L410.96 1945.13 L415.3 1948.24 L418.61 1952.54 L419.2 1953.75 L419.65 1954.91 L420.24 1955.77 L421.21 1956.12 L422.05 1956.68 L424.7 1959.59 L425.66 1960.92 L424.65 1961.99 L426.25 1961.97 L427.61 1962.55 L428.69 1963.82 L429.46 1965.83 L427.79 1965.83 L427.79 1966.81 L428.84 1966.81 L428.84 1967.87 L423.66 1967.33 L421.34 1966.41 L418.9 1964.85 L419.44 1966.18 L420.86 1967.8 L421.47 1968.76 L422.19 1971.01 L422.02 1972.21 L421.03 1972.42 L419.38 1971.68 L420.03 1973.15 L420.91 1973.52 L421.82 1973.69 L422.56 1974.62 L423 1976.38 L422.66 1977.03 L421.93 1977.34 L421.21 1978.09 L420.49 1979.07 L418.36 1981.16 L417.81 1981.55 L417.38 1980.99 L417.21 1979.66 L417.21 1978.06 L417.28 1976.66 L416.65 1977.37 L415.98 1977.59 L415.28 1977.34 L414.57 1976.66 L415.34 1978.33 L415.71 1978.9 L416.24 1979.5 L415.1 1981.2 L414.57 1981.55 L414.57 1982.53 L416.24 1983.5 L416.24 1984.48 L414.15 1984.48 L414.15 1985.36 L420.08 1985.57 L422.89 1986.71 L425.07 1992.61 L426.82 1996.3 L427.48 1998.85 L425.22 1998.2 L426.19 2000.57 L425.77 2001.19 L424.66 2001.3 L423.61 2002.09 L423.21 2003.78 L423.65 2005.26 L424.72 2006.35 L426.22 2006.86 L424.95 2007.74 L423.51 2008.18 L422.63 2009.2 L423.09 2011.79 L418.56 2010.84 L416.65 2011.54 L415.67 2014.7 L418.33 2016.65 L417.61 2017.95 L416.8 2018.55 L416.63 2019.17 L417.81 2020.52 L411.87 2024.02 L410.63 2026.75 L412.58 2031.34 L410.4 2033.45 L409.8 2036.85 L410.32 2040.62 L411.53 2043.81 L413.73 2047.68 L414.57 2048.71 L415.38 2049.15 L415.86 2048.96 L416.31 2049 L417.02 2050.11 L418.33 2053.44 L417.17 2054.25 L417.64 2055.87 L418.71 2057.72 L419.38 2059.3 L418.4 2059.38 L415.67 2058.34 L415.56 2057.96 L415.68 2057.3 L415.67 2056.69 L415.12 2056.42 L414.63 2056.55 L414.37 2056.88 L414.24 2057.21 L414.15 2057.37 L413.82 2057.74 L413.66 2058.44 L413.53 2059.2 L413.34 2059.78 L413.03 2060.03 L412.76 2059.79 L412.44 2059.44 L411.19 2059.17 L409.36 2058.38 L408.39 2058.34 L408.98 2059.37 L409.58 2060.22 L410.25 2060.83 L410.96 2061.22 L410.96 2062.27 L409.41 2062.31 L408.39 2063.63 L408.02 2065.92 L408.39 2068.9 L409.15 2070.61 L410.05 2071.72 L410.56 2072.75 L410.2 2074.27 L408.13 2078.1 L408.12 2078.99 L408.4 2082.77 L408.39 2084.31 L408.12 2085.71 L406.03 2092.49 L405.95 2093.79 L406.57 2095.35 L407.53 2096.06 L408.46 2095.48 L409.36 2094.49 L410.2 2093.97 L410.9 2094.46 L411.04 2095.58 L410.83 2096.83 L410.44 2097.7 L409.54 2098.1 L407.45 2097.09 L406.31 2096.83 L405.1 2097.19 L403.52 2098.47 L402.36 2098.74 L402.02 2099.48 L402.51 2101.15 L403.64 2104.03 L403.86 2108.51 L403.75 2111.04 L403.17 2113.03 L402.17 2113.99 L400.87 2114.43 L399.59 2114.31 L397.77 2112.76 L396.78 2113.03 L395.82 2113.7 L394.99 2114.07 L394.25 2114.56 L393.57 2115.67 L391.83 2119.6 L391.63 2120.36 L391.65 2121.05 L391.56 2122.55 L391.21 2125.51 L391.04 2128.75 L390.56 2130.12 L388.39 2130.33 L387.91 2131.68 L387.42 2134.36 L383.72 2141.67 L382 2146.65 L379.78 2158.19 L377.63 2169.35 L377.12 2170.08 L376.26 2170.55 L375.81 2171.67 L375.5 2173.05 L375.04 2174.26 L373.77 2175.87 L370.79 2178.67 L369.5 2180.42 L365.08 2190.32 L363.35 2192.56 L362.07 2192.35 L360.67 2190.99 L358.52 2189.81 L360.82 2185.19 L361.41 2182.53 L359.86 2181.36 L356.07 2182.9 L354.11 2182.83 L352.77 2180.42 L351.91 2181.04 L351.48 2180.63 L351.09 2179.88 L350.37 2179.48 L349.44 2179.21 L348.34 2177.96 L347.76 2177.69 L346.48 2178.9 L344.97 2181.17 L343.46 2182.37 L342.22 2180.42 L342.75 2179.58 L343.47 2177.98 L343.77 2176.42 L343.02 2175.72 L341.98 2176.08 L339.08 2178.54 L335.86 2180.2 L335.38 2180.89 L335.25 2183.04 L334.87 2183.57 L333.33 2182.3 L332.75 2181.63 L332.12 2180.68 L331.29 2179.84 L330.14 2179.48 L329.05 2179.73 L328.24 2180.37 L326.96 2182.3 L326.47 2183.62 L326.46 2184.52 L326.11 2185.04 L322.69 2185.25 L321.64 2184.95 L320.72 2184.18 L322.21 2183.35 L322.82 2183.32 L322.37 2181.99 L320.72 2178.54 L319.08 2180.9 L316.07 2182.83 L312.84 2183.42 L310.5 2181.83 L309.92 2181.26 L309.31 2181.49 L308.73 2182.01 L308.13 2182.3 L305.23 2182.3 L304.63 2181.81 L304.36 2179.41 L303.89 2178.54 L303.37 2178.63 L301.5 2179.38 L300.76 2179.48 L301.04 2180.32 L301.57 2182.5 L301.86 2183.32 L297.22 2181.18 L294.53 2180.67 L292.61 2181.83 L290.91 2182.28 L288.39 2181.79 L286.47 2181.9 L286.59 2184.18 L285.1 2184.83 L283.81 2183.81 L282.46 2182.27 L280.84 2181.36 L277.04 2181.4 L275.23 2182.26 L274.04 2184.18 L273.82 2185.32 L273.67 2186.92 L273.77 2188.34 L274.28 2188.96 L275.38 2189.39 L275.91 2190.43 L276.24 2191.7 L276.66 2192.8 L278.83 2196.08 L279.57 2197.76 L280.32 2200.2 L279.44 2200.65 L278.48 2201.47 L277.59 2202.47 L276.92 2203.51 L276.31 2204.09 L275.93 2203.51 L275.57 2202.07 L274.04 2202.07 L273.52 2203.14 L273.06 2203.68 L272.42 2203.51 L271.86 2203.14 L271.28 2202.99 L269.14 2203.02 L268.35 2202.88 L268.21 2202.31 L269.29 2201.05 L268.63 2200.27 L268.05 2199.33 L267.7 2198.11 L267.72 2196.45 L266.1 2198.41 L265.27 2197.44 L264.92 2196.78 L265.1 2196.45 L264.15 2196.82 L262.37 2198.12 L261.68 2198.41 L259.61 2198.86 L258.19 2200.07 L255.64 2204.03 L252.74 2207.55 L251.04 2209.03 L249.58 2209.63 L248.04 2210.8 L247.04 2213.37 L246.27 2215.94 L245.37 2217.11 L242.27 2218.84 L239.49 2223.18 L237.48 2228.83 L236.71 2234.46 L236.38 2239.65 L236.51 2241.85 L237.28 2244.18 L238.55 2245.77 L241.51 2248.04 L242.47 2249.74 L242.64 2251.21 L242.58 2252.66 L242.65 2254.17 L243.3 2255.81 L244.09 2256.86 L245.76 2258.6 L248.94 2263.84 L249.66 2266.32 L249.32 2269.26 L248.23 2271.03 L244.08 2275.77 L242.73 2276.73 L241.8 2277.7 L238.28 2284.11 L236.81 2286.1 L235.38 2287.2 L233.64 2287.69 L228.71 2287.66 L226.43 2287.21 L224.22 2286.35 L218.15 2282.34 L216.15 2281.54 L213.64 2281.26 L212.49 2281.5 L210.54 2282.67 L209.43 2283.1 L208.34 2283.09 L204.68 2282.26 L194.49 2283.1 L193.13 2283.5 L192.26 2284.49 L191.53 2285.72 L190.56 2286.87 L189.4 2287.47 L186.11 2286.87 L183.47 2287.53 L176.38 2292.4 L174.12 2293.24 L168.85 2293.69 L166.4 2293.32 L153.76 2288.62 L149.62 2288.49 L148.11 2287.93 L147.27 2287.8 L146.82 2287.55 L145.57 2286.38 L144.91 2285.95 L143.31 2285.52 L141.72 2285.95 L140.87 2286.47 L139.75 2287.58 L138.85 2287.8 L138.05 2287.65 L137.03 2287.02 L136.23 2286.87 L134.74 2287.47 L133.22 2288.39 L132.1 2288.32 L131.8 2285.95 L134.14 2281.26 L134.66 2281.24 L135.09 2281.32 L135.56 2281.73 L136.23 2282.69 L137.61 2283.54 L139.52 2283.43 L141.3 2282.59 L142.29 2281.26 L141.84 2279.5 L142.09 2278.64 L142.83 2278.65 L143.81 2279.5 L143.06 2275.83 L139.43 2269.75 L138.59 2266.07 L139.5 2261.77 L141.72 2259.17 L147.01 2255.3 L147.85 2254.14 L148.7 2252.53 L149.35 2250.68 L149.61 2248.81 L149.11 2246.15 L148.02 2244.61 L146.93 2243.66 L145.79 2241.48 L144.37 2241.84 L142.95 2241.74 L142.29 2239.06 L140.4 2239.18 L138.98 2238.62 L138.12 2236.66 L139.08 2236.46 L139.69 2235.89 L140.05 2234.81 L140.21 2233.03 L139.24 2227.09 L136.58 2224.43 L133.48 2222.78 L131.22 2219.9 L130.42 2217.78 L130.23 2216.7 L130.17 2214.72 L129.97 2214.09 L129.48 2213.33 L128.87 2212.7 L128.34 2212.43 L127.35 2211.47 L126.88 2209.23 L126.53 2206.71 L125.94 2204.88 L124.6 2203.56 L123.42 2202.74 L122.6 2201.49 L122.28 2198.83 L121.78 2197.35 L115 2188.42 L114.44 2187.51 L111.56 2180.84 L110.73 2179.48 L110.03 2175.12 L109.73 2173.84 L107.87 2169.75 L106.96 2166.56 L103.92 2164.3 L102.89 2162.54 L117.81 2169.05 L118.38 2169.5 L119.34 2171.51 L119.93 2171.96 L120.53 2172.25 L121.67 2173.55 L122.3 2173.84 L122.96 2173.69 L124.03 2173.05 L124.66 2172.9 L127.87 2173.29 L129.35 2173.07 L130.7 2171.96 L131.69 2170.06 L132.16 2167.89 L131.85 2166.11 L128.32 2164.06 L126.75 2161.03 L124.37 2154.91 L117.63 2149.87 L115.92 2146.65 L118.63 2141.67 L122.98 2140 L132.14 2143.43 L136.5 2141.67 L137.59 2140.04 L138.81 2137.51 L139.81 2134.56 L140.21 2131.68 L139.89 2128.93 L137.54 2122.55 L136.18 2116.4 L135.09 2114.68 L132.81 2114.07 L130.97 2114.26 L127.92 2115.42 L126.71 2115.55 L125.52 2115.42 L124.37 2115.02 L120.39 2110.49 L119.66 2108.75 L119.2 2105.65 L118.04 2104.13 L116.67 2102.89 L115.48 2100.65 L113.87 2095.35 L114.3 2092.29 L114.14 2090.73 L109.21 2087.18 L108.87 2086.72 L108.82 2086.17 L108.82 2085.65 L108.68 2085.28 L108.18 2084.99 L106.94 2084.61 L106.55 2084.31 L105.08 2081.57 L104.28 2080.78 L101.81 2080.2 L99.86 2078.88 L97.04 2077.97 L95.62 2076.32 L94.76 2073.86 L94.52 2070.83 L94.68 2070.13 L95.35 2068.89 L95.52 2068.47 L95.45 2067.63 L95.11 2066.26 L95.04 2065.54 L94.88 2064.73 L94.43 2063.64 L93.84 2062.68 L91.43 2061.5 L89.09 2059.58 L87.26 2057.07 L87.1 2054.49 L86.54 2054.16 L85.06 2052.56 L86.52 2050.4 L86.19 2048.5 L83.97 2044.77 L83.71 2043.67 L83.47 2040.84 L83.44 2039.55 L82.97 2039.49 L80.64 2039.66 L79.73 2039.07 L82.14 2036.82 L82.96 2035.63 L82.15 2035.12 L80.39 2035.03 L78.91 2034.63 L77.53 2033.75 L76.07 2032.22 L78.21 2032.22 L79.26 2031.94 L80.3 2031.34 L79.22 2030.63 L78.06 2030.33 L75.59 2030.28 L75.59 2029.33 L76.39 2028.5 L76.92 2027.54 L77.5 2026.75 L79.23 2026.09 L79.59 2025.32 L79.59 2024.36 L79.25 2023.52 L79.35 2021.82 L78.8 2020.49 L77.94 2019.45 L77.12 2018.67 L76.93 2018.26 L76.69 2017.58 L76.35 2016.93 L75.83 2016.65 L75.2 2016.85 L73.97 2017.6 L73.46 2017.61 L72.13 2016 L73.19 2014.23 L75.2 2012.2 L76.64 2009.86 L72.93 2009.86 L74.65 2008.73 L75.36 2007.44 L75.2 2005.78 L72.85 2000.69 L72.41 2000.15 L71.65 2000.26 L71.12 2000.95 L70.62 2001.72 L70.05 2002.09 L68.82 2004.2 L67.77 2013.88 L66.7 2016.65 L66.18 2014.16 L64.48 2014.62 L63.23 2014.62 L64.09 2010.82 L63.23 2010.92 L62.39 2010.85 L61.62 2010.52 L60.91 2009.86 L61.82 2008.58 L61.71 2006.69 L61.19 2004.44 L60.91 2002.09 L61.19 1999.77 L61.91 1998.2 L62.93 1997.13 L64.09 1996.26 L62.78 1995.11 L61.43 1994.31 L61.94 1994.15 L63.04 1993.24 L61.43 1991.76 L60.91 1991.38 L62 1989.18 L61.53 1981.22 L61.94 1977.55 L61.64 1977.26 L60.8 1976.77 L60.43 1976.66 L60.03 1978.69 L59.09 1979.66 L58.15 1979.49 L57.71 1978.09 L57.44 1975.88 L56.79 1974.36 L56.1 1973.11 L55.67 1971.68 L56.41 1968.67 L61.38 1968.12 L62.47 1965.83 L60.81 1966.77 L58.69 1967.2 L56.51 1967.19 L54.62 1966.81 L50.73 1964.48 L48.99 1964.28 L49.3 1966.81 L48.25 1967.2 L46.84 1967.16 L45.75 1966.46 L45.64 1964.85 L45.82 1963.08 L53.11 1955.58 L53.79 1954.55 L53.6 1953.59 L52.18 1953.27 L50.45 1953.48 L49.3 1954.06 L47.42 1951.44 L45.93 1948.55 L44.32 1946.46 L41.98 1946.21 L43.68 1944.14 L44.63 1943.45 L45.64 1943.17 L44.84 1940.19 L45.89 1938.72 L49.87 1937.18 L49.87 1936.29 L48.83 1936.29 L48.83 1935.3 L49.58 1935.01 L49.89 1934.74 L50.4 1933.33 L48.14 1931.91 L48.68 1929.44 L52.02 1923.38 L53 1919.83 L53.22 1917.76 L52.77 1915.97 L52.06 1914.51 L51.69 1913.04 L51.94 1911.67 L53.07 1910.54 L52.82 1909.98 L52.7 1909.54 L52.49 1908.56 L54.38 1908.11 L55.17 1905.49 L55.86 1895.92 L56.16 1894.96 L56.98 1894.6 L58 1894.53 L58.79 1894.18 L59.41 1893.29 L59.86 1891.62 L58.64 1891.82 L57.64 1891.38 L56.96 1890.18 L56.41 1886.29 L55.66 1885.08 L54.79 1884.02 L54.05 1882.67 L53.68 1879.18 L54.98 1877.09 L59.34 1874.71 L58.38 1872.88 L56.78 1873.28 L53.53 1875.62 L49.3 1875.16 L47.38 1875.55 L47.31 1877.61 L46.21 1878.4 L43.72 1878.42 L39.87 1882.2 L39.12 1882.67 L38.65 1883.24 L36.98 1885.86 L36.22 1886.65 L35.15 1886.9 L34 1886.74 L32.91 1886.28 L32 1885.65 L32.35 1886.38 L33.04 1888.64 L30.46 1887.79 L29.75 1885.57 L30.29 1882.38 L31.47 1878.69 L33.21 1874.61 L35.18 1871.47 L39.36 1866.64 L38.27 1865.64 L39.34 1864.03 L40.51 1862.92 L43.03 1861.66 L41.7 1859.43 L39.89 1860.32 L38.08 1862.64 L36.8 1864.74 L36.02 1862.84 L34.55 1857.84 L34.09 1855.66 L33.62 1855.66 L34.11 1859.93 L33.98 1865 L33.21 1870.03 L31.73 1874.21 L29.63 1877.68 L27.41 1880.36 L22.06 1884.66 L22.75 1882.53 L23.59 1880.91 L24.57 1879.65 L25.68 1878.69 L25.68 1877.61 L24.5 1877.78 L22.29 1879.07 L21.54 1878.69 L21.11 1876.85 L21.55 1875.26 L22.43 1874.13 L23.37 1873.72 L26.07 1873.41 L25.51 1872.34 L24.11 1870.19 L24.2 1866.64 L22.89 1866.75 L22.18 1867.99 L21.67 1869.81 L21.01 1871.63 L20.1 1872.57 L18.93 1873.1 L18.21 1872.79 L18.63 1871.17 L21.28 1865.19 L22.91 1862.22 L23.56 1860.68 L24.2 1858.66 L23.52 1860.23 L20.24 1864.92 L18.98 1865.97 L18.4 1866.64 L18.15 1867.26 L17.58 1869.01 L17.31 1869.63 L15.22 1870.74 L13.1 1869.85 L11.14 1869.88 L9.46 1873.72 L8.63 1872.75 L8.53 1871.81 L8.77 1870.69 L8.94 1869.19 L8.7 1867.89 L7.37 1864.74 L7.72 1862.13 L8.83 1861.27 L11.56 1861.66 L10.98 1858.71 L11.73 1857.26 L13.05 1856.26 L14.21 1854.65 L11.45 1852.88 L11.03 1852.11 L10.87 1851.26 L10.15 1849.94 L9.99 1849.11 L10.15 1848.43 L10.51 1847.87 L10.87 1847.55 L11.03 1847.56 L11.09 1843.19 L11.3 1842.09 L12.01 1841.04 L12.65 1840.55 L13.2 1839.95 L13.65 1838.54 L12.07 1838.54 L12.38 1836.73 L12 1836.06 L11.4 1835.63 L11.03 1834.53 L11.08 1833.23 L11.56 1831.79 L11.56 1830.51 L10.85 1828.39 L7.85 1823.93 L8.12 1821.02 L8.42 1819.69 L7.99 1819.33 L6.03 1819.36 L5.3 1818.12 L5.39 1815.48 L6.25 1813.04 L7.85 1812.39 L7.56 1810.39 L8 1809.13 L8.77 1807.94 L9.46 1806.15 L9.59 1804.89 L9.46 1799.63 L9.05 1798.85 L8.15 1798.51 L7.26 1797.97 L6.85 1796.6 L6.85 1793.08 L6.69 1791.53 L6.28 1790.06 L6.51 1789.48 L6.65 1789.03 L6.85 1787.95 L2.95 1786.66 L0.9 1785.22 L0 1783.34 L0.71 1781.07 L2.36 1779.66 L5.8 1777.72 L2.57 1777.99 L1.12 1777.32 L0.52 1775.22 L0.86 1773.34 L1.63 1771.8 L6.55 1764.5 L8.57 1763.01 L16.3 1761.62 L18.88 1762.79 L19.97 1767.05 L20.53 1770.23 L21.88 1773.55 L23.43 1776.27 L24.63 1777.72 L25.23 1777.72 L25.23 1777.67 L25.28 1777.76 L26.43 1782.31 L26.34 1791.87 L28.68 1793.23 L33.62 1793.55 L38.56 1792.3 L42.6 1788.31 L44.85 1780.38 L45.35 1776.56 L46.02 1773.22 L47.96 1766.68 L48.8 1762.71 L49.05 1755.56 L51.12 1746.23 L51.82 1743.89 L53.18 1741.45 L53.84 1739.31 L53.89 1739.17 L53.89 1735.99 L53.51 1732.59 L51.76 1722.52 L43.6 1692.61 L43.11 1689.36 L43.41 1685.34 L44.85 1683.04 L55.17 1677.37 L57.01 1675.3 L60.01 1670.38 L60.44 1669.13 L60.44 1666.39 L60.92 1660.62 L60.81 1658.31 L59.87 1655.84 L59.41 1655.23 L57.2 1652.35 L56.28 1650.2 L56.79 1645.01 L58.71 1643.1 L59.91 1641.9 L63.88 1640.49 L76.18 1641.72 L79.32 1641.04 L90.57 1631.82 L102.53 1617.67 L105.33 1613.04 L107.45 1607.4 L108.5 1600.67 L108.27 1595.14 L106.28 1585.21 L105.64 1579.97 L105.98 1577.44 L106.97 1575.37 L111.1 1570.07 L112.58 1567.59 L113.78 1564.62 L114.68 1560.88 L115.24 1555.26 L114.93 1550.42 L113.84 1546 L105.27 1523.79 L97.19 1508.64 L95.12 1502.48 L93.98 1496.9 L92.31 1485.42 L90.9 1480.15 L87.93 1472.89 L87.71 1469.67 L89.84 1467.54 L107.51 1462.17 L111.95 1461.93 L120.59 1463.56 L122.22 1462.63 L122.76 1460.92 L122.97 1460.27 L124.45 1449.5 L124.93 1447.38 L125.51 1445.95 L131.1 1437.45 L132.64 1433.95 L133.78 1429.44 L136.35 1414.39 L136.25 1412.49 L135.5 1410.98 L115.33 1382.75 L113 1380.49 L110.51 1379.56 L105.27 1379.2 L102.38 1378.5 L100.21 1377.08 L94.19 1368.92 L90.63 1365.99 L81.76 1356.24 L80.7 1354.09 L86.66 1312.75 L92.63 1271.06 L92.45 1264.85 L92.38 1262.49 L90.25 1254.36 L89.72 1252.91 L75.3 1212.8 L75.21 1209.47 L76.21 1204.85 L78.93 1196.73 L80.11 1192.09 L80.28 1188.22 L75.74 1162.59 L75.46 1159.08 L76.31 1156.41 L85.37 1143.24 L72.89 1108.82 L67.73 1094.5 L84.01 1066.18 L85.15 1062.81 L85.12 1058.98 L81.36 1041.52 L90.77 1031.37 L105.27 1004.98 L120.54 979.42 L126.16 973.31 L143.57 961.51 L162.84 955.9 L189.86 963.02 L216.87 970.14 L218.77 970.14 L220.15 968.39 L232.83 942.18 L233.8 938.97 L233.87 935.77 L230.36 894.09 L228.93 889.81 L226.17 887.8 L220.15 886.42 L216.92 885.19 L194.14 868.67 L214.43 832.18 L234.71 795.42 L234.73 795.39 L245.3 778.58 L246.94 773.16 L247 772.96 L247.43 771.53 L249.54 754.59 L250.63 750.11 L252.18 747.34 L258.44 741.25 L260.9 735.86 L261.21 727.33 L260.68 717.67 L260.6 708.88 L264.46 665.1 L265.18 662.18 L270.31 650.15 L271.21 646.2 L270.87 638.62 L262.91 585.44 L282.55 582.81 L302.19 580.17 L335.02 557.08 L335.78 554.58 L335.63 550.68 L335.03 544.51 L334.57 541.81 L331.03 521.02 L330.76 515.71 L349.38 494.89 L377.68 439 L384.33 429.85 L398.49 415.06 L403.02 412.24 L405.31 409.95 L406.53 406.66 L408.7 381.07 L408.24 377.57 L384.44 333.4 L388.55 318.68 L389.99 316.3 L402.81 313.62 L407.53 311.15 L411.7 306.37 L419.68 292.69 L421.33 288.39 L433.06 241.86 L434.67 237.83 L436.59 235.05 L468.16 208.61 L474.28 196.75 L475.92 195.23 L497.9 209.14 L519.88 223.01 L521.85 222.36 L524.13 218.63 L526.51 213.51 L540.66 184.29 L542.34 176 L538.29 135.2 L538.38 128.83 L539.86 109.56 L540.27 107.14 L541.06 105.94 L542.4 105.41 L561.31 97.99 L564.8 100.48 L577.27 113.19 L581.54 114.37 L607.42 112.27 L641.39 129.3 L675.81 144.66 L678.89 144.43 L681.88 141.81 L699.93 118.18 L678.2 104.83 L692.72 91.07 L699.22 80.09 L707.05 57.64 L708.07 53.37 L708.4 49.36 L707.81 30.57 L707.22 26.96 L688.93 3.04 L708.88 1.52 Z M460.84 2020.52 L458.73 2020.79 L457.09 2022.53 L454.52 2027.38 L456.24 2031.49 L456.38 2033.64 L455.17 2037.25 L455.19 2038.5 L455.09 2039.07 L454.8 2039.3 L453.75 2039.79 L453.46 2040.03 L453.08 2041.35 L452.77 2043.47 L452.47 2044.77 L449.27 2050.94 L448.81 2053 L448.28 2056.72 L446.95 2058.32 L445.24 2059.09 L443.53 2060.26 L444.01 2061.48 L444.62 2062.31 L445.39 2062.84 L446.24 2063.15 L444.72 2064.58 L443.58 2066.12 L441.44 2069.95 L441.99 2071.75 L442.46 2074.67 L442.34 2077.38 L441.18 2078.58 L440.44 2080.11 L439.18 2087.5 L438.3 2090.06 L438.11 2090.08 L434.57 2092.19 L434.07 2092.92 L433.59 2094.12 L433.25 2095.43 L433.07 2096.8 L433.02 2098.21 L432.65 2101.01 L428.21 2115.28 L427.53 2118.03 L427.27 2121.25 L427 2122.48 L426.35 2123.88 L425.58 2125 L424.95 2125.47 L423.97 2125.97 L423.49 2127.18 L423.09 2130.22 L423.08 2131 L423.57 2131.42 L423.61 2132.12 L423.4 2132.81 L422.74 2134.29 L422.56 2134.96 L422.41 2137.34 L422.17 2138.89 L421.74 2140.21 L420.61 2142.76 L419.6 2145.64 L418.81 2148.53 L418.33 2151.12 L418.25 2152.23 L418.33 2155.38 L418.09 2156.78 L417 2158.72 L416.76 2160.09 L416.16 2162.31 L412.3 2171.49 L410.91 2173.19 L409.19 2174.37 L407.52 2174.47 L406.31 2172.9 L406.15 2171.67 L406.32 2168.51 L406.31 2167.16 L405.26 2163.4 L405.9 2160.4 L405.98 2156.99 L405.78 2151.12 L406.42 2148.95 L405.95 2146.48 L405.13 2143.85 L404.69 2141.2 L405.26 2129.27 L405.5 2127.92 L406.83 2123.57 L408.6 2120.36 L408.87 2119.26 L409.39 2116.35 L422.26 2083.55 L423.56 2082.12 L425.18 2081.55 L427.53 2081.45 L429.61 2080.81 L430.72 2079.1 L432.02 2073.79 L435.49 2065.08 L439.47 2057.3 L442.75 2048.96 L444.1 2038.54 L444.4 2037.1 L445.12 2036.39 L446.74 2035.6 L447.77 2034.29 L448.18 2033.07 L448.4 2025.05 L448.73 2022.6 L450.42 2020.76 L452.77 2016.93 L454.04 2015.77 L455.5 2014.99 L456.3 2015.06 L456.93 2017.13 L457.57 2017.39 L458.28 2016.95 L458.74 2015.77 L459.27 2015.77 L459.29 2016.4 L459.43 2016.78 L459.62 2017.13 L459.79 2017.61 L460.16 2018.24 L460.48 2018.93 L460.71 2019.68 Z M607.58 1942.11 L608.35 1942.93 L610.53 1946.87 L611.02 1948.17 L605.64 1948.71 L603.47 1950.81 L603.09 1956.12 L602.21 1954.81 L601.26 1954.09 L600.57 1954.37 L600.48 1956.12 L599.76 1957.24 L599.3 1958.73 L599.3 1960.38 L600 1961.99 L596.93 1962.8 L594.17 1962.88 L593.22 1962.58 L591.62 1961.23 L590.77 1960.92 L589.72 1961.29 L589.63 1962.24 L589.9 1963.5 L589.97 1964.85 L588.92 1969.74 L587.58 1973.24 L587.18 1974.71 L586.82 1975.56 L586.47 1976.7 L586.3 1978.09 L586.79 1978.47 L589.97 1979.5 L589.26 1981.72 L588.77 1983.68 L588.48 1985.67 L588.39 1987.93 L587.8 1989.83 L586.71 1991.86 L586.22 1993.73 L587.35 1995.18 L586.79 1997.41 L587.12 1998.78 L588.1 1999.35 L589.44 1999.18 L589.05 1999.9 L588.39 2002.09 L591.38 2003.37 L594.45 2004.04 L594.75 2003.56 L594.9 2002.64 L595.28 2002.06 L596.29 2002.57 L597.51 2003.49 L597.89 2003.95 L598.38 2005 L598.84 2006.47 L599.14 2008.41 L598.85 2010.1 L597.6 2010.82 L595.24 2010.82 L594.95 2010.68 L594.08 2010 L593.63 2009.86 L593.26 2010.16 L592.33 2011.49 L591.82 2011.79 L589.29 2012.44 L586.89 2014.1 L584.7 2016.46 L582.89 2019.15 L580.02 2021.77 L578.97 2023.71 L579.5 2026.42 L580.09 2026.75 L581.71 2026.42 L582.35 2026.9 L582.6 2031.34 L579.9 2032.7 L580.02 2033.18 L573.2 2034.77 L571.13 2036.08 L571.13 2037.14 L572.18 2037.14 L572.18 2038.02 L570.44 2038.48 L560.92 2043.87 L559.03 2045.47 L557.45 2047.67 L562.72 2047.67 L560.92 2049.15 L555.46 2052.08 L554.3 2053.97 L553.78 2061.22 L554.6 2063.02 L555.8 2064.01 L558.54 2065.06 L554.3 2065.06 L554.3 2066.02 L555.35 2067.07 L553.36 2068.84 L552.52 2069.97 L551.76 2072.92 L550.76 2073.83 L543.52 2077.53 L540.9 2077.98 L538.52 2076.57 L543.51 2067.55 L543.71 2066.36 L543.59 2064.97 L543.28 2063.15 L544.28 2061.92 L547.11 2060.85 L548.24 2059.78 L548.86 2058 L549.5 2054.21 L550.13 2052.56 L548.3 2053.74 L546.64 2055.74 L545 2057.13 L543.28 2056.42 L543.28 2055.37 L544.3 2054.14 L545.14 2052.25 L545.31 2050.48 L544.32 2049.58 L544.64 2048.85 L545.04 2047.5 L545.36 2046.78 L542.09 2045.21 L540.14 2033.2 L535.51 2029.07 L535.64 2026.37 L536.75 2023.68 L539.62 2021.35 L540.6 2018.77 L541.01 2015.86 L540.61 2013.73 L541.62 2011.96 L541.43 2011.11 L540.71 2010.59 L540.09 2009.86 L539.84 2009.25 L539.09 2007.92 L538.95 2007.15 L539.03 2005.33 L538.8 2004.51 L537.98 2002.61 L537.16 1999.8 L536.59 1996.53 L536.48 1993.24 L537.72 1987.95 L540.27 1983.7 L552.8 1970.16 L563.37 1951.42 L566.15 1948.06 L570.04 1946.21 L571.11 1946.44 L572.28 1947.07 L573.47 1947.37 L574.52 1946.65 L575.01 1945.61 L575.42 1943.52 L575.85 1942.11 L576.98 1939.47 L578.3 1937.22 L579.81 1935.48 L581.55 1934.41 L583.34 1934.17 L584.77 1934.9 L585.9 1936.59 L586.82 1939.23 L586.87 1939.97 L586.68 1940.52 L586.43 1941.05 L586.3 1941.65 L586.47 1942.5 L586.82 1942.92 L587.18 1943.21 L587.35 1943.66 L587.52 1945.06 L587.98 1946.18 L589.44 1948.17 L590 1944.51 L591.27 1942.71 L592.55 1941.29 L593.15 1938.74 L592.79 1937.86 L592.18 1936.71 L592.04 1935.73 L593.11 1935.3 L597.86 1934.41 L597.86 1935.3 L596.68 1937.82 L598.16 1939.19 L600.02 1939.09 L600 1937.18 L601.17 1936.36 L602.69 1935.82 L604.17 1935.74 L605.23 1936.29 L604.66 1937.18 L605.02 1938.54 L605.57 1940.18 L606.38 1941.53 Z M625.4 1926.44 L627.91 1926.46 L629.09 1926.99 L630.43 1928.31 L629.95 1928.96 L629.46 1929.3 L628.89 1929.4 L628.28 1929.3 L627.17 1931.18 L623.48 1929.91 L621.79 1930.82 L620.22 1932.42 L616.9 1933.74 L615.21 1936.29 L616.23 1937.19 L616.8 1938.05 L616.97 1939.03 L616.78 1940.32 L614.54 1944.37 L614.43 1945.13 L613.19 1944.92 L612.03 1944.29 L610.97 1943.34 L609.98 1942.11 L607.31 1936.73 L607.53 1935.03 L608.07 1933.98 L609.69 1931.81 L610.24 1930.41 L610.62 1928.96 L611.13 1927.61 L612.03 1926.44 L613.27 1925.98 L615.88 1926.07 L617.01 1924.91 L617.68 1924.87 L618.88 1925.31 L620.26 1925.44 L621.53 1924.46 L621.86 1926.85 L622.88 1927.29 Z M48.3 1914.58 L48.28 1917.05 L48.43 1917.9 L48.83 1918.54 L48.06 1922.56 L47.78 1923.38 L46.82 1924.18 L46.12 1924.07 L45.85 1923.12 L46.21 1921.4 L44.96 1920.87 L43.75 1922.14 L42.86 1924.44 L42.23 1928.35 L41.55 1929.49 L40.69 1930.07 L39.12 1929.66 L38.52 1930.5 L37.96 1931.62 L37.27 1932.35 L36.22 1932.31 L35.55 1931.68 L35.08 1930.87 L34.61 1930.37 L32.6 1930.17 L32.15 1929.65 L32 1927.87 L31.75 1926.65 L31.27 1925.38 L30.97 1924.11 L31.21 1922.93 L32.08 1922.28 L34.22 1922.7 L35.19 1922.48 L33.62 1921.6 L31.87 1921.61 L30.44 1921.17 L29.85 1918.99 L30.46 1916.39 L31.91 1915.71 L35.19 1916.47 L42.24 1916.47 L43.92 1915.78 L45.26 1914.49 L46.6 1913.71 Z M53.53 1889.63 L54.04 1892.4 L54.16 1895.62 L54.05 1902.12 L53.35 1904.84 L51.67 1905.63 L49.67 1905.92 L45.96 1908.83 L41.86 1907.42 L39.89 1908.56 L38.62 1905.88 L36.55 1905.22 L34.34 1905.98 L32.61 1907.58 L31.83 1909.06 L31.54 1910.09 L31.26 1910.6 L30.48 1910.54 L29.68 1910.03 L27.25 1907.58 L27.25 1912.6 L26.77 1912.6 L26.27 1909 L25.99 1908.07 L23.58 1905.31 L22.86 1904.06 L23.03 1901.94 L24.57 1899.73 L32.15 1892.2 L34.81 1891.21 L36.77 1889.27 L37.79 1888.64 L39.08 1888.59 L41.35 1889.11 L42.51 1888.64 L42.16 1887.06 L42.27 1885.6 L42.79 1884.41 L43.6 1883.67 L43.24 1882.24 L43.03 1881.67 L44.29 1880.78 L45.6 1880.78 L48.3 1881.67 L49.15 1884.91 L50.59 1886.25 L52.18 1887.31 Z M629.9 1869.63 L626.8 1872.17 L623.67 1873.25 L620.9 1871.52 L618.88 1865.64 L621.53 1865.64 L623.55 1866.94 L627.91 1867.98 Z M560.87 1737.88 L560.61 1737.49 L559.91 1735.56 L559.54 1734.81 L558.29 1733.71 L554.3 1731.74 L563.26 1731.89 L567.99 1733.33 L574.8 1737.88 L570.85 1738.01 L569.19 1737.63 L567.43 1735.93 L567.52 1739.27 L568.68 1740.34 L572.18 1739.93 L570.15 1742.73 L567.76 1742.32 L563.77 1738.81 Z M570.04 1575.15 L570.39 1575.5 L570.91 1575.73 L571.4 1576.05 L571.61 1576.68 L571.32 1578.19 L570.65 1578.22 L567.29 1576.1 L563.04 1571.01 L558.7 1568.53 L557.71 1565.24 L557.38 1561.07 L557.69 1553.37 L557.62 1551.6 L556.64 1548.26 L556.91 1547.11 L557.78 1546.75 L559.02 1547.41 L559.38 1548.21 L560.25 1549.73 L560.59 1550.59 L560.59 1551.16 L560.44 1551.93 L560.38 1552.81 L560.59 1553.78 L561.54 1555.23 L563.6 1557.23 L564.24 1559.07 L562.97 1558.88 L561.19 1557.32 L560.06 1557.06 L560.81 1559.21 L564.24 1566.58 L565.02 1569.06 L565.76 1570.58 L566.8 1570.67 L568.48 1568.8 L568.68 1570.99 L569.01 1572.46 Z M745.37 1012.25 L747.34 1007.18 L750.39 1007.75 L751.59 1011.18 L748 1014.6 L748.57 1013.43 L747.98 1011.71 L747.23 1011.22 L746.35 1011.54 Z M565.08 1761.91 L565.31 1762.28 L565.44 1763.12 L565.22 1763.78 L564.96 1764.12 L562.83 1767.92 L561.29 1769.03 L561.05 1770.02 L560.8 1770.76 L560.79 1771.7 L560.64 1772.61 L560.42 1773.22 L560.06 1773.9 L559.58 1774.7 L558.94 1775.16 L558.23 1774.85 L557.84 1774.85 L557.48 1775.37 L556.75 1775.41 L555.97 1775.08 L555.13 1774.08 L554.28 1772.61 L554.04 1771.46 L554.4 1770.92 L554.96 1770.98 L555.59 1770.6 L555.33 1769.69 L554.69 1768.56 L554.79 1767.98 L555.25 1768.12 L555.95 1767.83 L556.72 1766.94 L556.91 1765.93 L556.36 1765.49 L556.6 1764.77 L559.71 1762.6 L561.12 1760.92 L562.43 1759.75 L563.59 1758.97 L564.61 1759.06 L565.08 1760.71 Z M582.73 1745.29 L584.87 1745.6 L585.35 1745.84 L584.42 1746.94 L579.1 1750.45 L578.43 1750.06 L578.89 1748.41 L579.77 1746.71 L580.82 1745.29 L581.85 1744.89 Z M588.95 1732.39 L589.42 1732.53 L590 1733.24 L589.76 1734.15 L589.07 1734.88 L588.5 1735.65 L587.53 1737.61 L587.47 1738.07 L587.48 1738.51 L587.27 1738.79 L586.92 1739 L586.41 1738.89 L585.63 1738.21 L584.8 1737.79 L584.37 1737.78 L583.94 1737.85 L583.25 1737.26 L583.4 1735.73 L584.46 1733.84 L585.93 1732.44 L587.33 1731.96 L588.41 1732.14 Z M579.68 1725.58 L578.75 1724.57 L577.93 1723.38 L577.57 1722.68 L576.77 1721.41 L577.48 1720.84 L580.6 1720.92 L580.83 1720.55 L581.37 1720.57 L581.97 1720.92 L582.67 1721.58 L583.91 1723.53 L584.43 1723.87 L584.71 1724 L584.9 1724.88 L585.12 1726.84 L584.69 1728.62 L583.55 1729.82 L580.2 1731.58 L579.79 1731.69 L579.46 1731.04 L579.74 1729.97 L580.21 1729.61 L580.43 1729.15 L580.26 1728.25 L580.15 1726.93 Z M536.07 1718.86 L537.3 1718.24 L546.09 1720.69 L546.99 1721.61 L545.73 1721.93 L545.05 1721.76 L543.52 1721.73 L543.96 1722.26 L544.93 1723.85 L544.14 1725.39 L542.46 1725.87 L540.58 1725.52 L538.62 1724.33 L537.3 1723.1 L536.86 1721.96 L536.51 1720.81 L535.96 1719.96 Z M593.33 1716.22 L594.16 1716.62 L594.5 1717.58 L594.19 1718.15 L593.44 1718.72 L592.83 1718.2 L592.74 1717.22 Z M600.08 1717.56 L600.39 1718.29 L600.53 1719.8 L599.72 1720.62 L598.45 1719.71 L597.48 1718.35 L597.13 1717.95 L596.83 1717.54 L596.79 1716.49 L597.46 1715.65 L598.49 1715.71 L599.58 1716.78 Z M598.81 1711.48 L597.53 1713.9 L596.37 1715.52 L594.72 1715.3 L593.82 1712.91 L594.81 1710.61 L596.73 1709.72 L597.74 1709.49 L598.09 1709.64 L598.69 1710.37 Z M578.19 1700.51 L577.42 1700.86 L576.74 1701.65 L576.38 1703.09 L575.66 1703.3 L574.5 1702.49 L574.11 1702.58 L574.18 1703.34 L573.85 1703.61 L573.43 1703.51 L574.26 1706.54 L574 1708.15 L573.18 1708.7 L572.52 1708.24 L572.21 1706.97 L572.39 1711.97 L571.79 1711.81 L570.97 1712.34 L570.52 1713.24 L570.07 1713.2 L569.68 1712.3 L569.4 1710.99 L568.98 1709.61 L568.25 1708.37 L567.66 1706.95 L567.56 1705.44 L567.31 1704.78 L567 1704.07 L567.3 1702.89 L568.1 1702.27 L569.11 1702.2 L569.94 1702.59 L570.59 1704.25 L570.65 1704.12 L570.5 1703.42 L570.76 1702.82 L571.17 1702.59 L571.68 1702.53 L572.14 1702.27 L572.05 1702.07 L571.52 1702.23 L571.06 1702.18 L570.8 1701.81 L570.44 1701.61 L569.88 1701.69 L569.68 1701.17 L570.11 1700.01 L570.78 1698.83 L572.36 1696.99 L573.28 1695.68 L574.6 1694.64 L576.35 1694 L578.02 1693.97 L579.56 1694.64 L580.31 1695.53 L580.32 1696.23 L580.67 1696.49 L581 1696.47 L584.51 1695.42 L584.39 1696.22 L580.09 1698.31 Z M602.79 1681.29 L603.1 1681.44 L603.45 1682.09 L603.32 1682.73 L603.01 1682.73 L602.6 1682.92 L602.05 1683.48 L601.06 1683.71 L599.65 1683.54 L598.94 1683.01 L597.82 1687.61 L597.24 1688.95 L596.5 1689.26 L595.73 1689.65 L594.04 1688.84 L593.66 1687.06 L594.42 1685.56 L599.73 1678.98 L600.86 1678.39 L601.8 1679.2 Z M593.33 1686.24 L591.54 1687.68 L591.29 1688.11 L591.31 1688.55 L591.01 1688.85 L590.42 1688.94 L589.85 1689.16 L587.91 1690.29 L586.91 1690.65 L585.87 1690.55 L585.85 1690.11 L587.22 1689.33 L588.88 1688.03 L590.37 1686.13 L591.09 1685 L594.14 1681.5 L598.7 1677.79 L598.69 1679.1 L597.24 1681.32 L593.61 1685.91 Z M604.22 1654.56 L604.4 1654.68 L604.67 1655.18 L604.65 1656.05 L604.33 1656.87 L603.56 1657.64 L602.35 1658.09 L601.15 1658.02 L600.14 1657.56 L599.56 1657.17 L599.31 1657.56 L598.85 1658.05 L598.18 1657.92 L596.17 1658.24 L595.74 1656.98 L596.65 1654.56 L600.03 1648.72 L600.79 1646.73 L601.37 1646.34 L602.09 1646.63 L602.83 1647.23 L603.57 1648.35 L604.15 1650.03 L604.22 1652.03 L603.92 1653.99 L603.9 1654.91 L604.11 1654.75 Z M583.35 1595.3 L583.72 1595.28 L583.72 1594.71 L582.45 1592.9 L582.93 1592.23 L584.45 1592.54 L585.58 1593.36 L586.22 1594.28 L586.56 1595.39 L587.08 1596.01 L587.83 1596.33 L588.28 1597.21 L588.26 1598.15 L587.94 1598.48 L587.98 1598.61 L588.43 1598.44 L588.84 1598.13 L589.2 1598.41 L589.65 1599.7 L589.7 1600.84 L587.8 1601.93 L586.19 1602.46 L584.3 1602.03 L583.38 1601.63 L583.08 1600.75 L582.6 1598.87 L582.52 1597.46 L582.64 1596.66 L582.92 1595.67 Z M352.13 2188.44 L353.09 2188.41 L353.78 2188.17 L353.7 2188.91 L352.82 2189.73 L351.79 2189.91 L351.61 2190.62 L351.98 2192.14 L352 2193.34 L351.89 2193.89 L351.48 2194.22 L350.78 2194.18 L350.44 2194.07 L347.98 2192.07 L347.31 2190.05 L348.27 2188.02 L349.36 2187.4 L349.83 2187.93 L350.45 2188.29 L351.23 2188.28 Z M441.09 1878.83 L441.9 1879.54 L442.16 1880.48 L442.04 1882.33 L441.2 1883.49 L440.26 1883.6 L439.61 1883.08 L438.77 1880.88 L438.47 1878.89 L439.42 1877.99 Z M443 1874.58 L444.44 1873.91 L445.09 1874.2 L444.81 1874.39 L444.66 1874.43 L444.28 1875.21 L444.02 1875.66 L443.26 1876.48 L442.25 1877 L440.98 1877.06 L439.51 1876.61 L438.08 1875.48 L437.13 1873.79 L436.7 1872.43 L436.3 1871.77 L435.99 1870.99 L436.1 1870.04 L435.7 1869.08 L434.84 1867.82 L435.22 1866.5 L436.58 1865.75 L437.26 1865.55 L438.26 1864.98 L438.78 1864.84 L439.1 1865.04 L440.1 1864.61 L440.55 1864.86 L440.9 1865.24 L440.7 1866.07 L439.91 1867.33 L439.05 1867.77 L438.19 1867.6 L439.59 1868.97 L439.46 1869.46 L438.57 1869.45 L438.09 1870.22 L438.32 1871.34 L439.51 1872.88 L441.36 1874.65 Z M552.52 1781.02 L554.77 1779.46 L555.25 1779.86 L555 1781.29 L553.85 1782.69 L552.2 1783.67 L551.59 1784.22 L550.99 1784.54 L550.38 1784.42 L550.1 1785.15 L550.83 1786.21 L552.01 1786.69 L552.13 1787.29 L549.98 1787.77 L548.77 1788.44 L546.13 1789.19 L544.47 1790.46 L543.68 1790.48 L543.08 1790.08 L542.73 1789.61 L542.88 1788.3 L544.06 1786.09 L545.24 1784.65 L547.96 1782.44 L549.08 1782.17 L550.14 1782.2 L550.84 1781.98 L551.31 1781.58 Z M543.08 1775 L542.8 1776.74 L542.47 1777.35 L541.89 1776.55 L541.28 1776.22 L540.74 1776.84 L540.11 1776.78 L539.24 1775.65 L539.07 1775.79 L539.32 1777.27 L539.29 1778.55 L539.41 1779.88 L538.98 1781.04 L537.94 1781.68 L536.9 1781.29 L535.48 1779.58 L535.15 1779.71 L534.56 1780.13 L533.41 1781.56 L532.24 1782.47 L531.78 1782.25 L531.77 1781.33 L531.93 1780.8 L532.39 1778.65 L532.89 1777.77 L533.71 1777.46 L534.14 1776.92 L534.01 1776.05 L534.24 1775.07 L535 1773.79 L535.83 1773.07 L537.5 1773.35 L539.34 1772.63 L541.08 1772.37 L544.49 1772.79 L544.42 1773.45 L541.59 1774.74 L541.74 1775.07 L542.1 1774.72 L542.61 1774.65 Z M505.48 1777.43 L505.11 1778.7 L504.93 1779.89 L505.2 1781.59 L505.23 1783.09 L504.92 1784.55 L504.7 1786.02 L504.49 1787.04 L503.96 1787.61 L503.44 1788.05 L503.59 1789.17 L504.24 1791.02 L503.76 1791.17 L501.68 1787.92 L501.63 1788.65 L500.94 1788.48 L500.26 1786.69 L500.37 1784.22 L499.86 1782.94 L499.24 1782.86 L499.12 1781.8 L499.31 1779.2 L500.05 1776.77 L500.78 1775.03 L500.94 1773.83 L500.8 1772.95 L500.84 1771.4 L500.62 1767.31 L501.26 1765.79 L502.09 1765.72 L502.29 1766.8 L502.54 1767.67 L502.85 1767.86 L503.2 1768.01 L503.9 1768.94 L504.47 1770.64 L504.99 1772.74 L505.4 1775.19 Z M537.45 1195.86 L533.94 1197.23 L529.97 1196.43 L528.37 1192.92 L529.11 1190.12 L529.81 1188.07 L530.07 1186.3 L531.04 1184.73 L532.82 1184.17 L534.18 1184.76 L535 1185.79 L535.8 1186.3 L537.71 1185.21 L539.34 1185.52 L540.14 1185.97 L540.24 1187.3 L539.94 1189.6 L539.27 1191.26 L539.16 1192.25 L538.86 1192.78 L537.94 1192.6 L537.09 1192.76 L536.86 1193.56 L537.44 1194.02 L537.86 1194.93 Z M747.8 1029.23 L747.32 1030.96 L746.67 1032.42 L745.67 1033.58 L744.36 1033.68 L744.49 1032.04 L747.32 1027.96 L747.65 1028.14 Z M749.89 1014.58 L750.57 1014.22 L751.54 1012.84 L752.96 1011.33 L753.75 1011.03 L753.63 1011.36 L753.27 1011.94 L753.15 1012.57 L753.41 1013.36 L753.33 1014.12 L752.8 1014.93 L752.55 1016.1 L752.73 1017.49 L752.84 1019.18 L752.55 1021.3 L751.8 1023.39 L750.71 1024.76 L749.58 1025.68 L749.05 1025.52 L748.48 1025.56 L747.33 1026.87 L747.13 1025.09 L748.57 1016.61 L749.18 1015.3 Z M865.54 710.63 L866.29 711.61 L865.72 713.2 L864 714.61 L863.06 715.15 L856.88 715.63 L856.13 714.99 L856.22 712.97 L856.87 711.07 L857.76 710.61 L858.54 711.19 L858.9 712.17 L859.76 712.89 L861.25 711.73 L862.69 709.86 L864.23 709.84 Z M846.05 715.22 L845.65 714.43 L845.21 712.38 L845.32 710.77 L845.57 710.05 L845.57 708.16 L846.28 707.11 L847.62 707.12 L850.39 708.69 L850.78 709.75 L850.16 710.47 L850.11 711.57 L850.89 713.08 L851.69 714.06 L852.04 715 L852.15 716.41 L852.04 717.48 L851.13 717.15 L850.43 716.55 L849.72 716.11 Z M879.86 697.15 L881.05 697.94 L881.56 699.15 L881.34 700.18 L880.61 700.47 L879.36 700.14 L877.76 699.25 L876.65 696.81 L877.1 695.3 L878.5 696.26 L879.22 697.02 Z M851.04 701.12 L849.09 697.61 L848.59 695.38 L849.45 694.62 L850.48 694.04 L851.63 694.25 L857.53 698.12 L858.13 698.15 L858.69 697.94 L859.32 698.57 L860.05 700 L861.77 701.64 L861.73 703.29 L860.64 704.15 L859.77 703.92 L858.89 702.34 L857.86 701.13 L856.75 700.27 L855.64 699.93 L855.01 700.56 L855.3 702.14 L855.03 702.33 L855.01 702.95 L855.18 704.01 L856 705.5 L856.16 706.22 L855.74 706.4 L854.65 705.74 Z M878.56 687.07 L882.22 685.09 L883.42 685.89 L883.12 687.64 L881.89 688.3 L881.31 689.16 L881.18 690.58 L880.72 691.74 L880.05 692.4 L879.23 692.18 L878.36 691.62 L878.1 691.73 L878.43 692.36 L877.92 692.21 L875.6 690.6 L875.16 689.83 L874.82 688.27 L875.34 687.32 L876.14 687.25 L877.24 687.43 Z M877.96 684.83 L877.08 683.69 L876.76 682.87 L877.8 681.54 L879.87 681.46 L880.59 683.82 L879.41 685.03 Z M908.03 662.26 L909.12 663.46 L909.75 665.24 L909.5 666.49 L908.67 666.13 L908.13 666.11 L907.89 667.13 L908.04 668.65 L908.74 671.42 L907.61 670.71 L905.31 668.17 L903.16 665.03 L901.86 661.48 L902.17 658.33 L903.57 657.33 L905.53 657.49 L907.53 659.1 L907.8 660.58 L906.66 660.72 L906.75 661.27 Z M971.95 655.28 L972.22 656.01 L972.37 657.15 L972.12 658.81 L971.61 659.99 L971.11 660.7 L970.88 661.36 L970.99 661.9 L970.17 663.2 L967.44 665.9 L964.49 663.9 L963.09 661.26 L963.1 657.27 L963.71 656.27 L964.25 657.92 L964.87 658.59 L965.32 657.81 L965.54 655.62 L965.98 655.85 L966.79 656.86 L967.7 657.42 L968.61 657.6 L969.49 657.06 L970.26 656.05 L970.75 656.28 L971.16 657.16 L971.4 656.51 L971.6 655.25 Z M891.05 662.76 L890.39 661.81 L889.88 660.82 L889.92 659.71 L890.24 658.1 L890.35 655.71 L890.63 652.93 L891.49 652.17 L894.86 655.92 L895.75 658.81 L896.44 662.67 L895.98 664.32 L892.54 663.71 Z "/>
</g>
</svg>
