<svg xmlns="http://www.w3.org/2000/svg" viewBox="0 0 1000 641.46">
<g fill="#ccc" stroke="#333" stroke-width="0.5" stroke-linejoin="round">
<path fill-rule="evenodd" d="M997.16 306.35 L995.99 316.79 L995.19 319.7 L993.88 321.76 L989.05 327.6 L989.46 332.41 L991.04 337.12 L991.59 341.58 L988.91 345.67 L985.16 348.08 L984.26 351.04 L984.47 354.72 L983.99 359.31 L981.86 363.12 L979.45 365.42 L978.4 368.49 L980.25 374.67 L984.26 379.34 L993.7 380.35 L998.33 384.26 L1000 390.48 L999.84 398.8 L998.08 406.79 L996.72 409.04 L994.98 411.94 L990.97 412.71 L975.1 408.52 L967.38 409.25 L964.54 408.79 L962.04 407.63 L960.65 406.15 L959.48 404.52 L957.74 402.98 L948.6 399.83 L947.61 396.33 L948.83 389.7 L948.39 386.06 L944.86 383.16 L939.16 383.21 L918.18 389.27 L916.05 390.44 L915.08 392.83 L912.36 403.34 L910.52 405.81 L905.74 410.6 L903.84 413.47 L903.54 415.78 L903.49 422.86 L902.53 426.28 L902.8 429.26 L903.33 431.6 L904.41 433.4 L906.33 434.72 L902.42 441.38 L905.9 445.74 L912.4 448.28 L922.32 450.21 L926.15 451.75 L927.77 455.32 L926.1 462.33 L924.5 464.49 L919.85 468.67 L918.18 471.79 L917.05 476.14 L916.92 479.08 L917.81 481.78 L919.82 485.36 L928.96 494.69 L931.81 500.41 L928.9 506.54 L922.71 510.45 L913.37 514.01 L906.03 513.86 L905.85 506.62 L903.61 501.17 L894.86 493.38 L891.6 488.98 L890.16 481.94 L890.07 475.59 L888.6 470.37 L883.06 466.71 L878.5 465.53 L874.19 465.2 L864.53 466.87 L849.77 474.47 L845.17 475.97 L842.33 475.36 L836.92 472.09 L834.54 472.03 L832.14 474.76 L831.7 478.43 L832.04 482.07 L831.95 484.6 L828.56 489.31 L824.39 491 L798.99 490.7 L793.84 488.81 L789.14 485.61 L786.32 481.71 L781.9 470.13 L779.93 468.51 L775.03 465.78 L773.43 464.2 L772.99 462.4 L773.31 457.5 L771.98 426.65 L771.27 424.63 L769.53 425.02 L765.96 427.66 L764.45 429.72 L763.67 432 L762.59 433.93 L760.19 434.9 L758.51 434.17 L752.85 428.76 L752.69 424.78 L748.3 423.6 L737.51 424.94 L733.27 428.88 L729.42 436.63 L727.68 444.51 L729.81 448.85 L732.77 450.9 L733.2 454.13 L732.63 458.18 L732.65 462.77 L735.63 474.16 L735.93 478.3 L734.55 485.36 L728.07 498.95 L724.77 510.43 L722.75 513.67 L720.19 516.08 L717.53 517.33 L715.13 519.12 L713.89 522.3 L712.86 525.99 L711.24 529.07 L711.12 529.3 L695.01 540.21 L690.91 546.37 L690.04 550.5 L690.52 557.7 L689.81 561.63 L688.05 564.62 L685.94 565.86 L681.09 567.39 L675.41 571.8 L674.44 575.43 L678.38 586.55 L671.1 593.29 L670.62 594.08 L670.46 594.9 L670.62 595.71 L671.1 596.52 L673.48 598.94 L675.31 604.74 L677.33 607.73 L679.48 608.97 L684.32 609.94 L686.4 611.27 L688.92 616.56 L688.07 621.97 L682.55 632.74 L675.47 641.46 L668.81 640.21 L661.55 636.97 L652.77 639.65 L653.6 634.75 L654.93 630.97 L655.82 627.02 L655.45 621.51 L654.22 617.35 L652.36 613.18 L648.51 606.32 L646.34 601.23 L644.89 599.2 L643.4 598.03 L630.69 591.19 L627.3 589.99 L623.5 589.74 L623.86 588.89 L624.71 587.35 L628.61 578.38 L634.95 570.65 L638.23 563.15 L632.59 555.69 L629.25 554.52 L622.44 554.68 L618.89 554.19 L617.2 553.03 L615.57 550.04 L614.87 549.78 L613.74 549.36 L612.37 550.01 L608.93 553.06 L607.35 553.96 L603.45 553.76 L593.12 547.71 L588.84 546.22 L586.69 545.12 L572.69 524.38 L566.39 517.9 L560.27 514.8 L554.48 512.47 L550.4 509.09 L547.97 503.94 L547.1 496.12 L547.86 487.86 L551.46 471.24 L552.21 461.98 L552.1 452.28 L551.18 445.02 L548.13 440.6 L541.77 439.48 L538.83 440.11 L529.42 442.15 L523.39 445.44 L518.68 450.46 L516.82 454.53 L517.67 455.9 L519.13 457.02 L519.22 460.27 L517.9 463.21 L515.7 465.86 L513.15 467.81 L506.88 471 L495.97 485.43 L491.39 488.63 L481.77 490.78 L476.98 493 L472.65 497.41 L470.43 500.54 L469.49 503.24 L470.27 504.48 L475.45 509.01 L482 521.69 L482.62 533.43 L477.81 543.79 L468.12 552.22 L465.71 553.03 L461.13 553.53 L458.91 555.24 L457.33 558.53 L456.85 562.19 L456.83 565.78 L455.66 574.87 L455.25 575.51 L453.09 580.26 L452.93 580.96 L450.16 584.57 L448.58 585.89 L446.45 586.55 L430.73 590.11 L427.54 592.68 L425.13 597.3 L424.53 603.36 L419.97 603.57 L419.69 604.09 L419.01 607.37 L419.19 609.03 L418.66 610.1 L415.89 611.62 L414.61 611.55 L410.64 610.33 L404.55 610.45 L393.9 606.55 L391.72 606.79 L390.05 607.59 L388.2 608.03 L385.47 607.09 L385.15 606.28 L380.98 600.19 L377.66 597.09 L374.18 595.08 L351.59 589.41 L347.88 591.34 L345.73 594.97 L343.3 598.15 L338.65 598.74 L332.05 601.61 L318.95 611.22 L311.85 613.73 L295.19 611.95 L292.28 612.95 L286.05 616.82 L272.38 622.45 L265.69 623.7 L258.45 623.83 L251.65 622.43 L246.49 619.34 L236.55 608.18 L235.02 605.61 L233.82 602.4 L232.27 596.57 L229.72 589.94 L228.92 586.55 L227.85 585.82 L212.84 568.83 L207.8 566.6 L205.95 567.36 L204.37 569 L202.67 570.28 L200.56 569.99 L198.62 568.5 L198.48 567.51 L198.94 566.17 L198.85 563.7 L199.17 563.38 L199.1 560.05 L198.71 556.88 L198.09 557.19 L199.1 555.54 L200.88 553.36 L202.44 550.92 L202.67 548.47 L199.28 545.18 L181.64 541.28 L179.72 535.91 L181.76 524.94 L185.61 513.48 L193.46 498.16 L188.42 489.46 L180.57 481.09 L176.33 473.76 L177.52 470.05 L183.36 463.18 L184.94 457.8 L184.69 454.65 L184.46 451.7 L182.39 448.51 L179.05 446.85 L146.03 438.28 L131.26 437.81 L117.06 440.63 L98.16 453.63 L90.96 455.47 L83.68 455.81 L76.85 458.03 L69.66 464.28 L63.34 472.66 L58.67 479.03 L57.47 483.4 L58.39 486.6 L60.43 492.06 L60.54 493.35 L62.67 498.65 L63.61 500.01 L65.93 501.22 L69.64 499.52 L71.2 500.19 L72.34 507.58 L66.61 513.66 L52.43 523.08 L41.12 536.36 L33.93 540.06 L26.39 536.69 L16.29 537.08 L6.23 539.48 L0.89 542.67 L3.85 535.73 L5.54 532.5 L6.23 529.76 L2.31 524.83 L0 520.44 L0.82 516.59 L6.23 513.15 L19.52 506.62 L19.88 506.51 L20.25 506.47 L20.66 506.51 L22.4 507.07 L23.73 507.23 L25.01 507.08 L29.89 505.56 L30.86 503.42 L30.65 500.46 L30.76 497 L32.34 487.91 L33.08 485.41 L36.3 478.17 L40.25 469.32 L39.95 465.77 L37.25 460.9 L33.99 457.38 L23.1 450.67 L22.04 450.02 L24.58 447.57 L24.99 445.45 L24.53 443.28 L24.53 440.83 L24.37 439.84 L23.85 438.51 L23.37 436.99 L23.37 435.35 L24.24 433.39 L26.76 430.66 L34.48 417.38 L42.31 407.46 L36.95 401.44 L36.26 397.19 L39.24 393.28 L69.04 365.92 L84.92 357.18 L87.12 355.32 L92.96 348.71 L100.31 344.8 L102.65 343.05 L105.14 339.91 L105.99 337.22 L105.9 331.76 L104.25 329.94 L103.08 328.35 L102.46 326.53 L102.78 324.95 L106.27 314.42 L107.8 311.63 L108.23 310.56 L109.04 308.53 L109.4 304.04 L108.69 300.45 L105.74 294.81 L104.82 291.87 L108.12 280.48 L118.87 274.24 L142.71 266.72 L157.5 255.43 L162.56 248.09 L159.9 242.06 L162.88 236.89 L164.97 234.83 L170.53 232.82 L171.36 230.76 L172.18 230.18 L175.37 228.53 L175.09 222.96 L181.73 220.64 L195.77 207.62 L196.26 207.17 L200.47 200.19 L206.91 193.54 L221.96 182.47 L221.07 174.37 L222.49 167.67 L226.65 163.36 L228.67 163.11 L229.86 162.63 L233.09 158.25 L235.41 156.89 L237.67 156.26 L239.76 154.93 L241.48 151.34 L239.16 148.02 L235.84 144.99 L232.54 142.29 L228.46 144.26 L202.1 146.87 L203.2 142.68 L205.95 137.56 L209.22 133.27 L214.93 129.9 L215.27 123.72 L221.09 122.42 L224.68 120.34 L227.98 117.52 L229.66 114.76 L228.58 110.85 L226.29 106.32 L225.74 102.67 L229.86 101.4 L231.83 99.85 L233.82 99.34 L235.84 99.85 L237.86 101.4 L243.61 102.24 L254.65 100.31 L259.87 101.4 L262.76 103.07 L263.17 103.14 L265.71 103.55 L271.74 102.94 L267.7 112.24 L268.96 117.59 L273.77 120.49 L280.28 122.54 L281.2 123.27 L281.82 124.45 L282.71 125.64 L284.43 126.36 L285.92 126.06 L294.3 122.4 L300.16 121.17 L306.33 121.43 L315.56 121.83 L317.7 120.96 L321.72 119.34 L324.87 115.2 L326.09 113.6 L326.8 110.53 L326.44 108.68 L325.36 107.15 L324.63 106.35 L323.51 104.33 L323.48 102.31 L326.07 101.55 L329.51 102.75 L330.51 103.39 L332.39 104.6 L335.26 105.02 L338.65 101.95 L339.04 101.4 L339.34 100.47 L339.36 99.62 L339.32 99.49 L339.13 98.79 L337.55 96.56 L337.07 95.24 L337.36 94.21 L338.65 93.51 L340.94 94 L342.73 93.41 L343.69 91.54 L343.62 88.25 L342.86 88.27 L339.17 85.44 L338.65 85.22 L347.1 78.27 L348.31 77.27 L353.63 74.3 L361.42 71.35 L361.54 71.31 L372.85 67.9 L377.86 67.37 L374.96 75.6 L372.6 77.88 L367.37 77.84 L366.8 77.83 L375.04 82.2 L378.25 83.91 L383.13 84.56 L392.86 82.54 L401.6 80.72 L405.77 78.34 L409.29 74.11 L413.33 67.78 L416.44 69.38 L430.73 70.24 L432.09 71.65 L432.8 74.74 L433.23 77.82 L433.83 79.21 L462.67 79.21 L472.63 76.97 L474.78 75.5 L475.77 74.07 L476.66 72.41 L478.54 70.24 L480.35 68.83 L485.16 66.23 L489.22 65.01 L490.73 63.41 L491.83 61.8 L492.97 61.05 L504.93 59.03 L508.94 59.02 L514.69 60.78 L517.25 61.05 L518.45 62.48 L519.64 65.65 L521.19 68.82 L523.37 70.24 L531.78 72.49 L545.96 72.57 L546.63 72.46 L552.78 71.42 L553.06 69.85 L555.65 64.23 L562.43 59.73 L569.07 59.05 L572.48 62.26 L575.12 66.71 L575.58 67.28 L577.57 69.74 L580.55 68.73 L581.03 67.89 L581.99 66.19 L582.24 63.73 L582.13 61.39 L582.4 59.15 L582.31 58.02 L581.78 56.74 L581.42 55.24 L581.92 53.42 L582.72 52.73 L583.89 52.29 L584.85 52.25 L585.06 52.78 L585.2 54.8 L586.64 55.53 L587.9 47.74 L585.88 47.54 L584.86 47.12 L582.33 46.08 L579.24 45.55 L568.48 47.39 L565.15 49.06 L562.08 51.27 L558.81 52.97 L554.87 53.14 L550.29 50.52 L544.61 46.17 L543.51 46 L540.02 44.72 L541.44 41.16 L540.89 38.35 L539.96 35.94 L540.21 33.51 L542.38 31.01 L548 27.92 L550.36 25.71 L552.03 19.12 L553.06 16.72 L556.06 12.29 L557.8 11.25 L560.27 11.32 L572.21 8.93 L575.55 7.23 L573.49 2.03 L577.02 0 L582.54 0.31 L586.64 2.17 L586.98 4.57 L587.19 8.83 L587.97 12.83 L590.15 14.46 L592.89 12.66 L594.04 5.46 L596.06 3.35 L598.92 4.3 L601.05 7.55 L602.79 11.37 L604.44 13.99 L606.73 14.51 L609.18 14 L611.36 14.43 L612.82 17.76 L612.23 19 L609.27 23.46 L608.54 25.61 L609.48 28.3 L611.24 30.49 L611.79 33 L612.23 35.14 L623.93 34.97 L622.12 32.94 L624.12 26.48 L630.07 26.75 L637.31 30.98 L643.04 36.42 L638.96 37.37 L638.98 39.66 L642.12 42.8 L642.28 42.97 L648.72 47.79 L654.15 49.22 L662.83 48.39 L670.89 45.81 L674.42 41.96 L678.61 40.3 L703.33 43.09 L715.58 43.09 L718.59 47.79 L726.88 47.78 L735.49 49.78 L796.28 87.75 L797.52 93.55 L797.94 95.51 L804.49 105.41 L812.73 109.19 L819.08 114.8 L818.9 128.68 L816.74 133.66 L808.15 144.54 L807.12 147.47 L805.98 153.24 L805.13 155.49 L797.57 164.63 L790.45 176.73 L786.78 182.96 L782.95 193.96 L782.43 204.94 L784.12 210.33 L786.53 215.03 L788.38 220.25 L788.5 227.2 L786.39 231.55 L783 235.04 L780.41 238.53 L780.66 241.57 L785.66 243.05 L799.2 245.31 L803.75 243.86 L807.9 244.96 L819.51 243.51 L823.23 244.08 L865.1 257.32 L864.73 261.02 L865.67 261.83 L867.05 261.72 L867.89 262.73 L867.89 264.64 L866.98 267.75 L866.43 275.37 L865.72 278.87 L866.08 281.91 L868.9 285.92 L874.4 290.15 L898.11 297.81 L906.68 305.98 L911.67 308.88 L921.25 311.96 L924.32 312.08 L925.83 312.14 L931.55 310.51 L941.22 305.57 L943.49 302.26 L944.08 299.78 L944.27 297.05 L945.32 292.95 L948.69 287.25 L952.28 286.58 L956.59 287.71 L962.11 287.45 L962.23 281.39 L966.1 273.94 L971.69 267.51 L978.12 263.81 L979.34 263.57 L980.57 263.81 L981.74 264.57 L981.77 264.57 L981.77 264.62 L984.06 267.09 L988.68 274.56 L996.22 280.57 L998.19 282.93 L999.38 288.41 L996.63 299.43 Z "/>
</g>
</svg>
