<svg xmlns="http://www.w3.org/2000/svg" viewBox="0 0 1000 918.08">
<g fill="#ccc" stroke="#333" stroke-width="0.5" stroke-linejoin="round">
<path fill-rule="evenodd" d="M5.14 841.2 L9.14 835.19 L16.66 826.25 L17.81 821.67 L17.23 819.44 L18.99 814.11 L21.56 809.64 L22.64 809.36 L24.75 805.32 L21.22 799.44 L20.38 797.21 L18.4 780.14 L18.86 777.76 L13.24 775.38 L13.24 772.72 L14.89 770.06 L16.53 766.55 L16.05 761.37 L12.66 759.26 L12.06 750.86 L7.85 747.91 L6.79 746.51 L11.83 739.35 L6.08 735.41 L9.37 733.89 L10.54 732.62 L13.01 730.8 L13.36 728.4 L13.83 727.41 L14.06 724.47 L14.89 723.36 L14.68 722.4 L18.29 720.23 L22.05 717.98 L24.81 716.33 L29.47 712.38 L31.86 706.63 L29.83 702.97 L31.54 700.58 L35.08 699.43 L38.6 699.48 L41.46 698.16 L44.55 696.11 L46.87 693.37 L47.35 690.02 L46.03 687.99 L43.51 686.11 L40.75 684.73 L38.6 684.13 L35.09 682.16 L31.77 681.53 L29.78 680.29 L30.36 676.43 L30.96 675.81 L32.92 675.07 L33.63 674.37 L34.04 672.63 L33.6 669.36 L33.82 667.84 L34.94 666.23 L37.69 663.7 L38.6 661.64 L40.67 658.54 L45.64 654.27 L47.66 650.42 L49.15 648.46 L51.56 647.45 L54.35 646.72 L56.96 645.59 L62.35 642.27 L63.35 642.85 L65.26 645.27 L66.47 646.04 L69.61 645.97 L72.03 644.5 L74.13 642.79 L76.41 641.93 L79.02 642.43 L86.74 646.24 L92.41 647.6 L95.3 647.13 L97.12 644.74 L96.82 641.02 L94.23 639.42 L88.33 638.41 L83.9 634.95 L82.95 633.84 L81.99 632.11 L81.72 631.46 L84.94 624.91 L87 621.67 L89.37 618.75 L95.35 613.49 L100.35 607.11 L103.52 605.49 L105.24 605.64 L108.47 606.85 L110.54 606.75 L112.99 605.52 L113.81 603.84 L114.11 601.7 L114.98 599.14 L117.92 595.41 L124.64 589.64 L128.12 583.78 L132.36 579.08 L132.28 578.9 L131.48 577.13 L127.84 573.51 L126.86 570.9 L126.15 567.48 L127.28 565.13 L128.73 563.12 L129.04 560.76 L128.26 559.34 L127.28 559.11 L126.18 559.19 L125.11 558.72 L123.51 556.97 L120.26 552.39 L119.52 550.98 L119.11 549.52 L119.24 548.02 L119.72 547.08 L120.26 546.21 L120.66 544.96 L121.19 541.97 L121.32 539.95 L120.49 538.35 L118.1 536.63 L117 537.01 L115.91 536.29 L113.74 533.58 L111.19 532.47 L109.17 530.77 L107.68 528.42 L106.72 525.37 L106.72 525.34 L104.65 524.61 L100.53 524.28 L96.14 524.48 L93.22 525.37 L92.81 525.5 L92.39 525.53 L91.98 525.5 L91.57 525.37 L91.14 524.56 L89.65 521.73 L92.16 519.05 L96.28 516.81 L99.21 514.49 L99.9 511.62 L99.71 508.94 L100.02 506.75 L102.24 505.36 L104.46 506 L106.06 507.3 L107.14 506.46 L107.73 500.7 L104.09 501.88 L100.36 501.95 L96.81 500.73 L93.78 498 L90.24 491.54 L88 490.07 L84.88 492.26 L84.38 493.66 L84.32 497.23 L83.76 498.91 L82.38 500.41 L80.88 501.09 L71.81 501.6 L70.9 501.27 L69.13 499.94 L68.37 499.61 L67.45 499.84 L65.65 500.93 L64.99 501.14 L58.42 500.67 L54.68 500.4 L50.7 500.96 L47.27 500.87 L44.01 499.92 L41.38 497.77 L40.28 497.25 L38.96 496.89 L37.05 496.96 L36.41 493.56 L33.67 487.88 L32.69 483 L31.22 480.3 L30.89 478.68 L30.89 471.2 L30.45 470.06 L27.81 465.52 L27.23 463.68 L26.41 459.84 L21.56 446.75 L22.47 446.26 L22.57 445.39 L23.47 444.21 L23.74 442.94 L23.47 441.67 L22.57 440.5 L22.57 439.24 L23.32 438.44 L23.37 438.32 L23.03 438.05 L22.57 436.73 L23.78 434.16 L24.64 432.82 L25.84 431.61 L26.63 428.83 L26.14 426.14 L25.26 423.68 L24.72 421.59 L24.72 412.8 L25.67 410.62 L32.74 399.68 L35.92 396.49 L34.55 391.55 L28.84 379.93 L30.89 373.75 L30.16 370.61 L29.05 358.67 L29.39 356.02 L27.87 354.54 L20.62 344.7 L17.54 343.16 L16.03 342.04 L15.4 340.22 L14.27 339.18 L11.85 339.56 L9.53 340.43 L8.7 340.91 L7.08 340.05 L7.3 337.98 L8.07 335.46 L8.22 333.23 L7.3 332.28 L2.05 329.44 L2.31 328.53 L2.63 326.71 L3 325.67 L2.05 325.67 L0 326.81 L0 325.67 L3.01 324.59 L6.01 322.68 L8.28 320.01 L9.16 316.71 L8.82 314.64 L7.49 312.11 L7.18 309.82 L8 308.47 L11.52 307.3 L17.31 296.07 L17.58 295.08 L17.54 290.75 L16.92 287.2 L15.33 282.85 L13.29 278.79 L11.3 276.14 L18.55 276.59 L22.16 275.75 L23.69 272.98 L24.33 269.41 L28.24 263.51 L29.67 264 L32.64 263.4 L35.67 262.28 L38.6 261.82 L40.48 263.97 L40.53 266.37 L40.08 268.79 L40.42 271.01 L42.16 272.52 L44.49 273.08 L49.2 273.22 L53.64 275.3 L62.39 281.68 L64.91 281.23 L65.26 281.16 L66.94 275.69 L67.85 262.6 L71.16 257.21 L75.99 255.45 L79.61 256.48 L82 255.9 L83.26 249.35 L83.28 249.32 L86.26 248.1 L92.18 250.42 L95.38 249.36 L95 244.08 L95.47 217.19 L95.75 214.45 L96.62 213.05 L97.85 211.81 L98.05 210.2 L95.89 207.66 L97.63 205.9 L99.52 208.16 L101.4 209.51 L103.47 210.21 L107.59 210.78 L108.49 211.06 L109.31 211.06 L110.58 210.46 L111.3 209.4 L111.5 208.07 L112.04 206.87 L113.74 206.28 L116.5 205.85 L127.9 207.62 L130.76 207.67 L141.4 205.64 L142.27 204.09 L142.13 199.89 L141.59 197.25 L140.53 194.17 L139.07 191.34 L139.06 191.3 L137.32 189.27 L134.86 188.3 L129.91 187.78 L128.38 186.27 L129.07 186.23 L129.91 184.55 L130.89 181.75 L130.92 180.1 L130.75 178.69 L130.33 177.41 L129.6 176.16 L128.87 175.63 L126.49 174.56 L125.43 173.63 L124.64 172.22 L121.8 162.07 L121.41 158.98 L122.05 156.18 L126.54 148.98 L127.24 140.9 L127.13 132.58 L129.16 124.66 L130.95 120.27 L131.46 116.59 L131.58 112.97 L132.24 108.81 L134.1 105.13 L136.55 101.8 L138.25 98.18 L137.74 93.59 L139.13 93.5 L140.55 93.69 L140.7 93.75 L168.37 103.39 L177.86 104 L180.73 104.68 L183.73 105.87 L186.56 107.52 L188.87 109.7 L193.45 113.96 L194.63 116.37 L194.79 120.27 L193.48 126.29 L194.04 128.44 L196.87 130.97 L199.84 132.62 L201.23 132.21 L202.4 130.45 L204.73 128.08 L207.56 126.8 L210.04 127 L212.51 127.76 L215.32 128.13 L224.88 125.65 L228.21 125.38 L252.65 129.9 L258.91 129.95 L281.04 115.64 L290.16 111.59 L315.06 106.26 L339.15 95.17 L343.34 94.02 L346.06 92.29 L360.63 82.97 L370.71 79.04 L375.86 78.5 L385.72 79.76 L414.28 88.4 L421.71 92.53 L437.61 109.36 L441.96 113.96 L451.11 118.75 L461.69 120.12 L486.12 118.95 L489.43 117.96 L497.28 117.4 L520.37 125.2 L528.45 124.87 L558.83 119.05 L607.45 109.71 L639.7 97.56 L654.64 88.56 L660.05 86.71 L665.68 85.65 L671.31 83.01 L682.02 75.8 L701.91 62.4 L704.94 60.52 L708.14 59.28 L711.41 58.62 L714.85 58.42 L721.74 56.4 L741.84 45.22 L749.28 42.35 L777.46 38.17 L813.33 45.41 L820.04 48.17 L823.28 49.04 L865.13 47.05 L927.74 32.21 L944.7 28.19 L951.27 24.22 L962.6 13.53 L970.15 3.52 L972.32 2.21 L975.05 0 L976.76 2.07 L976.95 4.26 L976.7 6.14 L976.86 6.95 L978.91 7.29 L983.47 9.52 L984.33 9.1 L985.27 8.06 L986.27 7.24 L987.2 7.53 L987.85 8.54 L988.61 10.39 L989.27 11.4 L994.39 15.54 L995.42 16.08 L996.4 18.49 L993.71 29.03 L995.42 31.43 L996.6 32.56 L996.89 35.23 L997 40.56 L997.97 42.79 L999.1 44.71 L999.95 46.82 L1000 49.56 L999.94 49.6 L995.29 53.2 L985.68 62.38 L985.68 62.4 L985.63 62.41 L970.13 79.08 L940.09 111.31 L919.83 133 L915.86 136.4 L911.74 138.35 L865.13 148.3 L855.37 149.94 L850.95 152 L847.93 156.15 L847.93 156.17 L847.92 156.18 L847.92 156.2 L834.65 182.18 L833.42 187.19 L828.58 233.92 L828.59 237.03 L829.18 240.25 L833.04 249.3 L833.05 249.29 L833.05 249.31 L844.67 274.66 L846.3 280.61 L847.02 286.69 L847.65 312.15 L846.83 317.94 L844.45 323.53 L839.38 331.18 L832.29 341.88 L832.29 341.91 L832.28 341.91 L832.26 341.91 L830.88 347.46 L829.56 365.45 L823.28 388.2 L821.81 399.4 L821.93 403.67 L822.78 433.94 L824.06 465.96 L823.72 470.76 L822.43 475.27 L796.63 525.34 L796.63 525.37 L791.22 537.34 L787.8 542.2 L783.41 545.07 L746.5 555.01 L724.46 568.38 L707.84 578.46 L691.22 588.52 L674.6 598.57 L668.75 602.11 L657.98 608.62 L641.36 618.67 L624.76 628.7 L608.12 638.72 L591.51 648.75 L574.89 658.76 L558.27 668.77 L541.65 678.77 L525.03 688.77 L508.41 698.76 L491.79 708.75 L475.17 718.73 L458.55 728.7 L421.74 751.62 L389.6 771.93 L376.85 779.98 L350.68 796.47 L331.54 808.83 L305.79 825.44 L280.03 842 L266.2 850.9 L254.26 858.56 L228.54 875.1 L211.91 885.77 L211.87 885.77 L188.87 900.82 L164.72 917.41 L162.79 918.08 L160.68 917.99 L151.08 915.46 L147.82 915.36 L145.21 916.9 L139.79 912.78 L119.22 910.26 L113.74 909.59 L111.3 908.06 L102.83 907.2 L99.87 906.29 L97.64 905.03 L84.44 892.47 L74.75 885.77 L69.86 880.83 L68.23 879.93 L67.45 880.18 L65.74 881.73 L64.99 882.09 L64.09 881.93 L62.54 881.32 L61.59 881.22 L56.03 881.97 L53.88 881.9 L52.07 881.84 L51.53 881.71 L51.5 880.95 L50.66 878.87 L43.89 868.55 L42.47 865.56 L42.36 862.21 L42.81 859.17 L42.11 857.14 L38.6 856.87 L36.43 857.27 L34.86 856.72 L33.54 855.47 L32.17 853.76 L32.73 853.85 L33.21 853.12 L33.42 851.96 L33.18 850.77 L32.61 850.46 L30.67 850.48 L29.92 850.23 L27.33 847.59 L25.9 846.75 L9.74 842.97 L8.36 841.21 L8.38 841.17 L7.74 840.67 L6.96 840.54 L6.08 840.73 Z "/>
</g>
</svg>
