<svg xmlns="http://www.w3.org/2000/svg" viewBox="0 0 1000 990.97">
<g fill="#ccc" stroke="#333" stroke-width="0.5" stroke-linejoin="round">
<path fill-rule="evenodd" d="M973.27 99.99 L954.2 123.24 L951.18 128.16 L948.8 135.01 L947.25 142.87 L946.71 150.68 L946.97 158.26 L950.33 174.06 L950.13 178.09 L948.69 182.13 L948.89 190.39 L952.38 196.76 L959.02 200.86 L966.84 202.31 L966.84 204.13 L963.52 203.8 L960.38 204.12 L957.74 204.98 L955.84 206.34 L958.52 211.46 L959.9 218.09 L959.05 223.85 L952.95 227.32 L952.49 229.83 L953.28 232.87 L955.01 235.63 L955.62 238.49 L953.04 240.91 L946.71 244.6 L939.52 252.84 L939.28 256.05 L939.72 263.18 L938.54 265.91 L937.23 268.2 L936.4 271.5 L935.87 277.99 L935.3 279.65 L934.28 281.01 L933.75 282.41 L934.82 284.1 L935.04 284.34 L935.72 285.11 L936.64 286.62 L937.36 288.13 L937.55 289.22 L936.13 291.66 L930.19 297.46 L923.79 306.31 L919.07 310.09 L917.57 312.1 L918.29 314.25 L917.44 315.79 L910.62 320.94 L908.07 323.4 L905.2 329.56 L902.28 342 L894.7 353.11 L893.19 357.59 L893.39 362.4 L895.22 367.75 L896.77 370.01 L898.11 371.08 L898.96 372.48 L899.02 375.78 L897.91 379.48 L894.17 385.32 L893.39 388.88 L893 395.43 L889.72 412.04 L883.23 429.47 L875.04 470.32 L870.13 480.32 L858.86 545.75 L854.2 572.71 L851.91 577.68 L844.7 587.29 L842.02 592.28 L839.9 598.55 L838.41 610.19 L838.54 620.55 L837.54 630.41 L832.58 640.57 L830.46 642.75 L825.57 646.31 L823.41 648.55 L822.34 650.87 L820.63 656.79 L815.74 665.41 L812.73 678.74 L810.56 684.75 L800.08 699.87 L798.77 702.65 L784.59 714.67 L781.23 718.55 L780.75 721.24 L781.4 727.64 L781.23 730.5 L779.96 733.76 L777.78 737.35 L772.93 743.5 L768.12 748.08 L751.7 759.04 L740.65 771.16 L737.96 772.58 L735.8 775.38 L730.47 789.09 L727.8 794.23 L719.59 804.48 L716.27 810.59 L714.35 823.13 L709.46 840.23 L699.71 857.3 L698.32 863.11 L696.61 879.55 L696.87 894.5 L697.75 947.21 L696.15 954.69 L693.55 960.78 L690.13 963.3 L686.06 967.06 L686.19 975.61 L687.64 984.93 L687.31 990.97 L682.68 984.03 L675.77 978.78 L667.74 975.15 L659.66 973.17 L659.33 979.92 L656.97 982.33 L653.5 981.46 L649.74 978.29 L649.52 975.9 L650.81 968.75 L645.17 959.36 L644.72 956.85 L644.78 954.8 L645.17 951.44 L645.17 940.48 L645.76 937.26 L648.25 933.66 L648.82 930.58 L628.51 877.86 L626.83 874.98 L621.17 867.97 L616.71 857.91 L614.66 855 L606.36 848.45 L603.04 846.54 L601.93 846.17 L600.81 845.39 L599.83 841.59 L599.17 840.23 L594.7 837.32 L584.47 832.43 L579.84 829.24 L574.95 824.95 L572.68 823.51 L569.69 822.21 L568.05 822.3 L566.17 823 L563.99 823.06 L550.66 812.64 L538.3 795.11 L551.32 810.83 L549.79 803.35 L547.63 799.25 L545.9 795.98 L540.48 789.81 L531.27 781.29 L527.73 776.95 L526.07 772.13 L528.27 767.43 L529.43 763.24 L527.88 757.35 L525.15 751.53 L520.15 743.72 L515.43 733.32 L514.38 728.7 L514.49 725.71 L516.02 722.03 L516.37 719.57 L515.8 718.27 L514.49 717.3 L513.14 715.97 L512.55 713.6 L509.67 708.6 L508.88 706.63 L506.72 692.71 L505.73 686.31 L503.88 682.61 L499.9 678.6 L504.75 675.15 L507.46 668.95 L506.37 663.6 L499.9 662.68 L498.66 664.57 L497.59 668.03 L495.77 670.77 L492.39 670.63 L491.06 668.35 L491.56 661.19 L490.73 658.69 L486.58 656.88 L484.24 658.98 L482.34 661.94 L479.54 662.68 L476.57 660.11 L475.83 656.58 L476.51 653.09 L477.71 650.72 L480.7 649.17 L484.5 648.66 L487.65 647.65 L488.72 644.56 L487.26 642.96 L477.71 640.57 L477.71 638.58 L485.7 638.51 L484.92 635.82 L480.57 632.07 L477.71 628.79 L478.41 624.71 L480.96 623.26 L483.74 622.33 L485.09 619.74 L484.26 615.74 L482.86 612.46 L483.81 609.44 L485.23 605.65 L487.55 602.96 L487.06 600.62 L487.54 598.33 L490.99 589.17 L492.61 587.41 L495.23 586.75 L491.42 584.2 L493.04 580.05 L496.97 579.79 L500.29 578.3 L501.74 578.78 L500.88 575.54 L498.62 577.18 L496.73 576.71 L494.22 576.59 L494.18 573.22 L496.69 567.46 L500.46 567.2 L505.93 567.24 L502.2 556.59 L497.94 548.37 L499.9 544.66 L499.9 542.66 L496.8 541.13 L497.22 539.38 L498.98 537.25 L499.9 534.67 L504.05 529.29 L495.32 529.83 L495.11 520.93 L499.79 515.68 L499.57 498.9 L500.31 486.37 L503.16 476.36 L507.61 468.54 L508.88 458.3 L511.26 449.34 L512.55 446.28 L518.84 437.96 L519.89 435.18 L520.67 433.63 L526.37 429.26 L527.99 426.15 L529.65 418.92 L530.87 415.88 L538.1 408.96 L540.2 406.04 L542.95 398.13 L547.15 390.22 L553.04 373.77 L555.8 368.99 L558.88 365.92 L561.41 364.21 L563.64 363.13 L565.23 361.65 L565.87 358.63 L567.07 355.81 L572.31 351.69 L573.51 348.58 L574.12 338.28 L575.04 335.44 L577.79 332.82 L589.37 319.28 L590 318.53 L590.77 315.16 L594.13 312.35 L596.4 305.81 L599.17 293.24 L608.68 276.75 L611.56 266.63 L614.97 261.02 L628.53 245.97 L635.93 237.75 L637.84 233.62 L638.73 226.89 L640.98 221.18 L647.01 210.53 L648.65 204.16 L650.22 201.42 L657.12 199.37 L659.07 197.21 L660.22 194.52 L661.62 192.02 L665.9 187.55 L670.6 184.08 L676.3 182.58 L683.64 183.97 L682.66 178.37 L685.43 174.6 L689.23 170.75 L691.11 164.89 L691.96 163.02 L695.63 161.18 L697.14 155.66 L702.82 144.05 L705.04 141.01 L705.79 139.41 L705.74 137.67 L705.07 135.8 L703.95 133.51 L705.48 130.48 L707.25 128.6 L707.31 128.52 L708.84 126.24 L709.46 122.32 L710.31 119.34 L712.43 116.42 L715.13 114.21 L717.71 113.34 L717.49 112.08 L718.17 109.09 L720.46 102.86 L722.56 99.5 L731.65 85.02 L738.75 76.56 L746.08 70.34 L764.89 64.15 L769.28 61.4 L773.06 58.07 L777.65 55.58 L786.78 52.29 L807.31 48.57 L818.8 46.5 L823.65 44.59 L829.94 39.35 L831.82 38.41 L834.13 38 L837.23 37.95 L840.81 39.15 L842.74 41.84 L843.98 44.65 L845.58 46.23 L849.11 44.8 L845.42 38.99 L839.5 33 L836.38 31.04 L837.28 28.28 L839.13 26.73 L841.08 25.81 L841.88 24.87 L844 19.61 L847.26 13.65 L853.96 7.57 L863.77 2.57 L875.02 0 L886.05 1.3 L890.64 4.75 L900.86 19.18 L904.53 26.8 L905.73 26.3 L908.48 25.54 L911.63 25.17 L913.85 25.79 L913.72 26.7 L912.65 28.01 L911.63 29.82 L911.71 32.05 L912.81 33.35 L916.58 36 L917.37 37.04 L919.07 38.73 L923.01 40.17 L969.79 51.54 L973.09 53.64 L971.43 57.38 L970.97 60.37 L971.69 65.67 L974.18 74.54 L976.87 78.69 L979.03 79.68 L986.17 78.59 L989.84 78.98 L994.15 80.14 L997.95 82.05 L1000 84.66 L978.9 95.1 Z M881.4 950.45 L886.11 954.04 L888.21 956.56 L887.88 959.36 L882.31 961.12 L874.8 958.09 L867.9 953.22 L863.9 949.46 L865.1 946.7 L865.06 944.1 L864.03 941.72 L862.22 939.57 L882.23 939.57 L882.23 941.36 L881.7 942.47 L880.83 944.93 L880.48 947.87 Z M30.78 226.3 L38.39 224.74 L45.64 231.36 L50.41 244.25 L49.33 253.18 L45.42 257.9 L38.47 253.54 L33.3 251.86 L25.04 252.69 L17.77 257.29 L13.81 263.51 L10.38 265.26 L6.36 263.35 L3.6 263.17 L1.18 262.1 L0 259.99 L0.42 259.22 L2.64 256.4 L3.34 255.11 L3.54 253.02 L3.43 250.5 L2.69 246.07 L0.92 241.83 L0.68 239.67 L2.23 238.76 L9.96 234.95 L20.2 241.67 L27.34 240.8 L28.41 231.86 Z M367.28 496.5 L372.06 505.33 L373.37 509.45 L372.78 512.5 L370.81 510.48 L368.19 508.76 L365.31 508.19 L361.29 510.45 L358.43 510.8 L357.01 511.59 L356.22 513.09 L355.13 517.24 L354.43 518.48 L349.67 521.25 L344.73 521.94 L339.8 520.03 L334.84 515.09 L336.15 512.5 L338.88 515.79 L342.97 516.66 L347.36 515.45 L350.96 512.5 L348.47 511.57 L346.5 510.38 L344.91 508.74 L343.47 506.5 L342.9 507.44 L342.9 507.76 L342.7 507.94 L341.63 508.5 L341.39 504.4 L341.63 500.33 L343.47 500.33 L345.61 500.87 L353.19 496.13 L357.93 494.5 L356.66 499.02 L356.09 500.33 L360.2 499.07 L363.34 499.42 L365.64 499.25 Z M321.41 496.5 L324.73 485.9 L327.92 482.76 L332.22 486.5 L329.66 488.03 L327.89 491.71 L325.08 500.33 L324.95 502.65 L325.64 504.62 L325.34 506 L322.26 506.5 L320.03 506.58 L318.46 506.87 L317.15 507.48 L315.9 508.5 L312.1 508.5 L312.76 506.37 L314 505.09 L315.9 504.5 L318.48 504.31 L320.71 503.45 L321.34 501.37 Z M347.05 489.41 L346.18 485.88 L344.15 482.91 L339.71 478.49 L345.39 474.31 L348.73 476.1 L352.01 478.91 L353.38 481.91 L350.89 484.33 L351.9 487.91 L350.41 490.27 L348.19 490.92 Z M853.81 772.15 L852.39 767.85 L852.96 767.23 L863.22 766.47 L864.36 767.14 L865.1 769.1 L864.29 773.12 L863.38 774.76 L863.01 776.46 L863.38 778.12 L863.31 779.23 L862.53 779.02 L860.76 779.02 L859.84 778.8 L859.38 778.24 L856.69 777.16 Z M467.63 540.94 L481.87 526.55 L492.7 512.77 L495.25 512.02 L486 526.97 L481.48 531.53 L478.48 535.2 L474.62 539.06 L471.58 541.19 L467.01 544.82 L463.82 546.52 Z "/>
</g>
</svg>
