<svg xmlns="http://www.w3.org/2000/svg" viewBox="0 0 1000 716.49">
<g fill="#ccc" stroke="#333" stroke-width="0.5" stroke-linejoin="round">
<path fill-rule="evenodd" d="M412.1 3.66 L415.62 5.18 L418.59 7.87 L420.36 10.77 L422.01 14.86 L422.22 17.75 L419.68 17.16 L417.53 15.08 L413.79 10.02 L411.66 7.83 L411.53 7.69 L410.04 4.2 Z M462.35 135.06 L464.98 139.13 L462.86 143.21 L458.56 146.41 L454.63 147.75 L447.8 146.21 L446.1 146.81 L445.21 147.59 L442.89 148.83 L442.8 148.58 L442.37 148.16 L441.74 147.86 L441.03 147.95 L440.59 148.35 L439.8 149.42 L434.8 153.68 L433.06 154.75 L424.89 157.52 L421.5 160.73 L420.9 165.01 L421.06 170.16 L419.96 175.94 L418.24 178.96 L416.02 181.27 L413.47 182.89 L410.71 183.89 L405.28 184.07 L403.79 184.83 L402.93 186.32 L401.88 190 L400.76 191.44 L398 190.46 L397.03 188.26 L397.39 185.36 L398.59 182.24 L400.25 179.9 L402.2 178.5 L404.32 177.4 L406.35 175.96 L408.23 172.26 L406.93 169.3 L403.95 167.24 L400.76 166.23 L390.59 164.7 L385.71 162.55 L381.21 161.98 L378.91 160.76 L376.86 158.52 L375.27 156.2 L373.44 154.16 L370.63 152.74 L367.69 152.51 L361.33 152.92 L358.56 152.03 L340.33 140.02 L335.86 139.55 L285.47 157.61 L283.34 157.93 L281.32 157.7 L280.5 156.9 L279.15 154.34 L278.12 154.02 L277.54 154.75 L277 157.64 L276.63 158.73 L273.99 162.61 L271.94 166.4 L271.11 170.68 L272.14 175.97 L272.64 176.96 L272.92 177.99 L273.02 179.09 L272.92 180.23 L275.88 185.64 L276.02 187.85 L263.72 192.24 L257.57 181.68 L253.81 177.46 L252.04 177.1 L251.57 177.46 L251.54 178.48 L250.97 180.15 L248.52 185.64 L242.67 203.43 L241.24 209.82 L240.83 216.4 L241.72 219.45 L243.65 221.66 L245.89 223.59 L247.7 225.83 L248.66 228.57 L249.12 231.71 L248.48 251.49 L250.29 255.48 L255.33 253.41 L256.12 252.2 L256.44 250.91 L256.9 249.84 L258.13 249.3 L258.84 249.79 L261.94 253.01 L264.59 253.92 L270.1 253.02 L272.92 253.03 L275.32 252.67 L277.66 251.84 L279.84 250.5 L284.12 246.77 L286.34 245.87 L297.48 245.17 L302.71 245.79 L307.76 247.48 L313.1 250.54 L318.07 252.06 L327.95 250.03 L333.18 250.59 L337.03 252.36 L338.1 251.5 L340.1 248.64 L342.26 246.69 L344.91 245.86 L347.71 245.89 L350.32 246.5 L354.61 249.01 L356.68 249.77 L358.79 249.07 L359.86 247.47 L363.43 239.77 L365.4 238.25 L366.63 239.87 L367.21 242.96 L367.24 245.79 L365.88 251.74 L366.09 254.07 L368.3 254.9 L370.57 254.35 L381.97 245.95 L383.62 245.32 L384.94 245.48 L387.6 246.29 L388.88 246.32 L389.66 245.79 L390.3 244.89 L391.08 244.01 L392.31 243.57 L394.42 243.13 L398.56 241.56 L400.76 241.29 L402.52 242.01 L405.4 244.55 L407.01 245.53 L409.25 245.75 L413.94 244.88 L416.18 245.17 L419.29 247.53 L421.06 251.02 L423.57 258.95 L423.61 259.08 L423.62 259.11 L424.99 260.24 L427.98 261.51 L429.21 262.68 L429.94 264.94 L429.64 267.22 L429.07 269.43 L429 271.48 L430.94 274.88 L434.33 276.9 L438.21 277.59 L441.73 277.05 L445.62 274.86 L447.16 274.39 L449.1 274.34 L450.24 274.53 L451.27 274.13 L452.83 272.33 L455.24 271.17 L458.03 272.48 L461.18 274.5 L464.68 275.47 L468.79 273.36 L471.13 268.8 L473.01 263.39 L475.65 258.79 L479.86 256.02 L485.17 254.56 L490.61 254.25 L497.89 255.67 L499.47 255.68 L500.85 254.65 L504.93 249.95 L506.71 248.59 L511.15 246.18 L512.08 245.43 L513.84 243.55 L514.72 242.9 L515.97 242.45 L519.6 241.79 L524.02 239.72 L526.36 239.48 L530.64 242.11 L532.76 243.97 L532.92 244.11 L534.77 246.6 L535.54 249.27 L534.85 251.74 L531.6 256.54 L530.52 259.12 L533.17 264.89 L538.47 267.32 L544.67 267.61 L557.69 264.86 L560.22 264.79 L562.24 266.62 L563.39 270.4 L563.72 274.68 L563.25 278 L561.78 280.48 L560.06 282.24 L558.76 284.29 L558.49 287.69 L559.44 290.98 L561.31 293.62 L563.65 295.41 L566.1 296.19 L570.78 295.64 L575.45 293.63 L588.08 284.7 L590.23 283.58 L595 282.59 L599.48 280.13 L601.82 279.77 L604.01 281.49 L605.44 285.11 L606.21 289.3 L606.42 292.79 L607.57 295.28 L610.23 296.42 L615.74 297.33 L616.82 297.97 L618.77 299.53 L621.44 300.93 L621.84 301.96 L621.85 303.23 L622.2 304.81 L623.4 307.52 L624.69 309.4 L624.72 309.44 L626.17 309.33 L631.43 297.81 L634.35 288.92 L635.9 286.4 L638.17 285.57 L640.96 285.19 L645.73 282.76 L647.96 282.67 L652.17 283.76 L654.32 283.87 L656.41 283.53 L660.41 279.26 L661.81 278.65 L663.74 279.2 L666.98 281.31 L669.07 281.36 L670.51 280.43 L672.95 277.36 L674.26 276.21 L676.48 275.53 L678.62 275.65 L702.25 281.87 L704.19 281.78 L709.71 280.59 L712.36 280.79 L720.34 282.53 L722.58 283.25 L724.5 283.12 L730.78 279.78 L732.4 279.47 L733.97 279.95 L736.22 281.05 L740.7 282.32 L744.77 282 L757.75 277.51 L765.04 276.13 L765.93 274.44 L766.2 272.11 L767.18 269.55 L770.31 267.38 L784.28 263.9 L788.8 263.46 L800.57 264.76 L804.19 266.62 L804.1 269.86 L805.46 279.3 L805.62 282.68 L805.3 285.33 L801.31 296.86 L800.31 301.76 L801.02 306.46 L804.04 311.77 L809.45 317.13 L810.63 319.42 L811.77 325.07 L812.57 327.71 L814 329.84 L821.58 335.69 L825.8 340.38 L827.64 341.64 L828.93 344.42 L829.31 347.17 L828.65 349.67 L826.82 351.69 L824.04 352.61 L817.91 352.63 L815 354 L813.18 355.9 L811.4 358.52 L810.35 361.5 L810.72 364.46 L812.27 366.89 L815.99 371.09 L817.39 373.41 L817.79 376.58 L816.99 383.78 L817.46 386.32 L822.05 394.03 L822.92 396.39 L824.13 403.2 L825.26 405.78 L827.69 408.43 L829.88 409.85 L834.51 411.67 L836.73 412.94 L840.59 416.53 L842.58 417.74 L854.86 418.14 L856.98 417.62 L858.68 414.9 L857.66 412.35 L856.03 409.64 L855.93 406.49 L856.91 405.67 L861.95 403.94 L862.85 402.9 L863.04 401.53 L863.01 400.07 L863.31 398.75 L865.11 396.04 L866.93 394.87 L869.11 394.91 L876.99 397.68 L879.47 398.1 L882.33 398.02 L891.24 394.91 L893.89 395.27 L912.1 404.27 L933.77 412.6 L936.1 414.58 L938.05 416.88 L940.21 418.67 L943.1 419.07 L946.03 418.82 L948.37 419.32 L950.42 420.84 L952.44 423.56 L952.46 423.59 L953.61 425.39 L954.53 426.24 L956.79 427.55 L957.65 428.53 L958.02 429.91 L958.19 431.45 L959.12 436.1 L959.09 439.28 L958.34 442.27 L956.86 444.91 L951.44 451.03 L950.22 453.65 L949.75 456.59 L949.77 472.1 L952.26 490.77 L954.72 495.36 L963.73 500.48 L965.31 504.96 L964.8 515.19 L965.1 519.52 L965.05 520.58 L965.46 521.46 L966.9 522.32 L967.98 523.31 L967.72 524.46 L965.54 527.96 L964.61 528.48 L964.08 529.3 L964.45 531.45 L965.1 532.67 L966.03 533.55 L972.53 537.15 L974.09 538.75 L974.56 541.66 L974.13 543.18 L973.19 544.85 L971.17 547.58 L970.31 549.08 L969.91 550.56 L969.67 551.99 L969.25 553.32 L967.63 555.76 L965.85 557.81 L964.45 560.08 L963.95 563.16 L965.19 568.84 L968.15 573.44 L972.01 577.01 L983.6 583.81 L985.85 585.83 L992.31 594.41 L995.96 597.97 L1000 600.84 L993.75 602.91 L990.75 604.42 L989.19 607.18 L988.87 613.14 L987.76 615.08 L975.87 619.55 L972.82 620.04 L970.44 621.45 L969.26 624.23 L967.85 626.83 L965.25 628.1 L961.45 625.93 L955.6 615.92 L951.98 612.02 L935.59 601.92 L931.89 603.99 L918.91 604.85 L917.8 604.87 L916.71 604.61 L912.1 603.18 L909.31 601.97 L906.89 602.18 L904.65 602.69 L900.95 602.01 L899.51 601.95 L898.24 601.53 L896.38 598.39 L895.12 597.57 L893.67 597.67 L892.19 598.71 L891.51 596.61 L890.01 600.92 L886.89 601.35 L883.17 600.35 L879.79 600.41 L877.72 602.57 L877.51 608.08 L875.15 610.86 L872.04 612.19 L857.83 615.06 L848.18 618.59 L845.49 619.16 L838.29 622.58 L832.8 623.2 L830.23 623.98 L825.36 628.51 L823.54 628.93 L821.58 628.45 L818.7 628.19 L817.43 628.65 L815.36 630.27 L813.99 630.36 L813.11 629.69 L811.28 627.17 L810.31 626.27 L807.68 626.07 L802.28 627.76 L800.23 626.53 L799.67 623.17 L801.29 620.02 L803.98 617.67 L806.67 616.7 L811.58 616.19 L813.44 615.27 L815.65 613.42 L817.8 610.87 L818.65 608.53 L818.68 601.77 L818.82 600.44 L819.64 596.38 L815.08 595.82 L809.55 595.95 L800.67 593.58 L785.35 587.91 L779.64 588.07 L771.69 592.49 L769.57 591.87 L767.42 590.56 L764.38 590.16 L761.2 590.49 L758.61 591.37 L756.58 592.89 L750.35 599.62 L748.96 600.27 L746.2 599.22 L745.07 599.62 L740.2 603.46 L738.19 605.92 L736 610.62 L734.53 612.84 L731.94 614.61 L722.74 615.53 L713.63 621.07 L710.81 624.45 L707.64 625.57 L701.64 626.71 L696.55 629.84 L692.75 635.1 L686.79 647.53 L681.46 655.93 L680.68 659.01 L679.55 660.54 L660.49 663.38 L656.18 665.55 L647.36 663.92 L641.61 665.11 L628.67 670.38 L623.62 673.87 L622.36 675.3 L620.51 678.11 L619.34 679.33 L615 681.84 L611.65 685.51 L574.56 713.22 L569.58 715.3 L563.3 716.49 L557.09 716.49 L551.09 715.16 L545.73 712.31 L541.42 707.78 L539.7 705 L538.29 701.98 L537.32 698.72 L536.45 691.36 L535.17 688.16 L527.91 676.35 L526.8 673.46 L526.41 669.99 L526.41 663.43 L525.96 661.54 L523.75 658.09 L522.99 656.39 L522.72 654.42 L522.99 644.75 L523.99 638.16 L524.73 635.72 L525.62 634.28 L525.15 630.42 L529.87 622.32 L529.98 617.84 L530.74 615.82 L531.09 612.44 L530.85 605.66 L529.88 599.48 L530.28 597.18 L531.72 593.58 L532.96 587.12 L531.17 574.11 L531.72 567.05 L532.18 566.13 L533.73 564 L534.35 562.64 L534.69 561.01 L535.3 556.03 L536.75 551 L536.97 549.41 L536.68 547.63 L535.51 544.2 L535.3 542.68 L536.36 539.79 L541.08 536.72 L543.07 533.85 L543.57 530.93 L543.68 527.08 L543.47 523.55 L543.07 521.59 L544.02 520.47 L540.14 515.66 L536.27 513 L531.68 512.72 L516.08 518.11 L513.76 519.88 L511.22 521.29 L508.48 520.11 L503.63 516.15 L502.27 515.96 L501.29 516.26 L500.62 515.92 L500.15 513.84 L500.3 512.12 L501.6 508.45 L502.46 504.32 L506.26 497.12 L508.01 490.47 L510.37 485.86 L511.19 481.1 L513.51 474.08 L514.21 470.39 L513.39 463.15 L510.35 458.37 L505.97 455.43 L495.43 451.01 L487.54 442.79 L482.61 439.14 L479.03 437.31 L477.44 436.93 L475.9 436.99 L474.91 437.44 L473.97 437.5 L472.65 436.41 L471.81 435.05 L470.74 432.07 L469.98 430.78 L468.7 429.35 L467.37 428.2 L465.91 427.34 L464.28 426.89 L461.3 426.99 L460.37 428.15 L460.79 431.86 L459.45 433.53 L456.38 432.77 L451.11 430.23 L449.61 430.48 L448.88 431.17 L448.4 431.93 L447.53 432.36 L446.39 432.29 L444.33 431.57 L443.17 431.35 L439.12 431.33 L437.05 431.81 L436.18 432.96 L434.59 435.74 L427.11 436.53 L424.75 438.03 L424.75 439.14 L427.3 441.09 L426.27 443 L421.75 446.38 L420.56 447.05 L417.65 446.87 L416.46 447.55 L415.92 449 L415.89 450.69 L416.04 452.35 L416.02 453.72 L414.29 459.28 L413.01 459.93 L411.27 460.4 L409.71 461.3 L408.53 465.3 L404.77 472.72 L401.45 481.68 L399.88 484.42 L398.57 485.77 L394.21 487.65 L392.85 488.65 L387.2 494.53 L381.46 502.16 L380.4 502.97 L377.92 504.29 L377.31 504.62 L376.66 505.48 L376.03 506.93 L374.61 507.53 L373.11 507.81 L372.21 508.31 L371.76 509.81 L371.73 511.19 L372.18 512.52 L373.18 513.84 L370.19 514.96 L367.2 515.46 L364.32 514.88 L361.75 512.74 L360.27 516.86 L360.87 521.84 L362.65 526.56 L364.81 529.94 L366.27 530.63 L370.48 531.94 L371.35 533.3 L371.69 535.61 L372.54 537.72 L373.7 539.44 L374.92 540.57 L374.22 542.44 L374.49 544.69 L375.79 549.41 L375.94 551.79 L375.62 553.21 L375.17 554.51 L374.92 556.53 L373.32 558.89 L372.7 559.34 L372.17 559.9 L372.21 561.19 L372.38 562.67 L372.21 563.74 L371.49 564.95 L371.21 565.28 L370.56 565.95 L370.13 565.79 L367.67 565.9 L367.42 565.95 L365.57 570.65 L365.24 572.06 L364.38 572.58 L359.93 578.16 L356.26 579.64 L352.41 578.95 L348.59 577.55 L345.08 576.97 L345.88 578.16 L341.91 577.43 L340.72 576.97 L340.28 576.56 L339.55 575.88 L339.07 574.8 L338.41 573.99 L336.75 573.66 L334.04 572.67 L332.66 570.38 L331.47 567.8 L329.37 565.95 L326.35 565.78 L320.99 568.52 L318.39 569.25 L317.12 569.85 L315.8 571 L314.46 571.7 L313.13 570.96 L312.19 570.26 L309.35 569.39 L308.33 569.25 L305.17 569.67 L299.77 572.01 L296.91 572.56 L279.48 570.97 L276.93 572.11 L274.73 578.88 L271.95 581.6 L266.28 585.77 L265.82 586.53 L265.03 588.47 L264.53 589.27 L263.55 590.18 L261.71 591.48 L261.05 592.37 L260.27 594.92 L260.01 597.91 L260.1 604.06 L260.34 604.63 L261.54 604.95 L261.91 605.66 L261.87 606.53 L261.57 606.78 L261.22 606.88 L261.05 607.36 L261.1 608.85 L261.3 610.35 L261.68 611.74 L262.35 612.84 L263.43 615.24 L264.27 620.77 L265.32 622.22 L264.29 625.76 L266.47 626.76 L268.81 627.25 L268.42 629.3 L264.02 636.71 L261.91 638.76 L256.75 642.05 L254.69 644.47 L253.31 645.77 L251.79 646.33 L251.35 646.43 L248.41 647.06 L245.87 648.26 L243.3 648.51 L231.2 640.31 L230.53 640 L227.7 638.03 L226.51 636.71 L224.22 631 L221.92 629.05 L219 627.13 L216.47 624.81 L214.58 618.96 L212.59 616.14 L210 613.76 L207.47 612.34 L198.75 611.25 L198.3 611.06 L197.56 610.9 L197.2 611.43 L197.87 613.34 L198.69 614.38 L200.77 615.94 L201.36 616.64 L201.81 618.96 L201.13 620.39 L199.71 620.78 L197.87 619.93 L196.17 617.66 L195.02 615.08 L193.58 613.03 L190.9 612.34 L188.09 613.27 L187.63 615.09 L189.14 619.93 L189.47 623.36 L188.93 624.92 L187.41 624.8 L182.65 621.73 L181.16 621.01 L179.49 620.85 L176.85 621.12 L171.87 620.4 L169.56 620.52 L168.11 622.22 L168.76 622.86 L169.12 623.56 L169.86 625.52 L166.97 625.97 L165.41 628.29 L164.69 630.87 L164.19 632.09 L161.88 632.44 L157.1 633.94 L154.54 634.28 L153.92 634.98 L152.15 638.07 L151.02 638.76 L149.67 638.87 L143.59 640.26 L135.66 640.85 L137.49 644.6 L136.65 646.99 L134.14 648.26 L130.81 648.62 L128.29 648.02 L125.8 647.04 L123.33 646.85 L120.9 648.62 L119.94 651.27 L120.04 654.51 L120.9 661.24 L119.55 663.54 L116.48 663.52 L111.22 661.75 L107.87 662.22 L105.51 664.18 L103.47 666.31 L101.09 667.31 L99.52 668.31 L91.06 675.61 L89.76 676.48 L88.22 677.11 L87.21 677.07 L86.62 677.04 L85.46 676.21 L84.81 674.97 L84.3 673.56 L83.55 672.23 L79.16 666.76 L78.02 665.75 L75 664.15 L73.61 662.94 L71.57 659.65 L70.23 656.82 L68.46 654.83 L62.67 653.45 L59.5 651.82 L56.6 649.69 L55.02 647.53 L54.88 645.13 L55.98 634.88 L56.56 632.52 L58.97 627.72 L60.44 622.28 L61.11 616.5 L60.67 609.73 L58.13 597.01 L58.62 590.25 L62.21 580.34 L67.66 570.84 L74.24 562.45 L81.14 555.84 L90.46 542.8 L94.22 535.38 L99.67 518.85 L101.93 516.53 L105.92 515.17 L111.88 514.36 L113.83 513.75 L114.47 513.28 L115.84 512.27 L116.8 510.23 L117.38 507.76 L118.34 504.99 L118.35 504.98 L118.36 504.97 L118.36 504.95 L118.38 504.93 L119.91 501.84 L124.89 494.22 L128.06 485.24 L130.15 475.72 L129.58 469.45 L126.49 464.5 L116.34 455.42 L109.72 451.68 L107.53 449.43 L102.8 440.75 L97.79 435.93 L96.57 433.62 L96.14 431.25 L95.87 426.05 L95.15 423.56 L92.04 418.82 L91.09 416.66 L90.75 413.07 L91.18 403.67 L90.91 400.36 L89.19 394.23 L88.85 391.24 L89.86 388.77 L93.09 386.47 L93.75 385.47 L93.84 383.63 L93.27 382.11 L92.52 380.66 L92.13 379 L92.57 375.45 L94 374.56 L96.26 374.63 L99.26 374.02 L101.42 372.74 L103.38 370.99 L104.97 368.78 L106.1 366.04 L106.25 362.43 L104.97 359.12 L103.65 357.16 L101.26 353.61 L96.94 344.03 L94.99 341.64 L94.96 341.64 L94.94 341.61 L94.92 341.61 L93.92 341.35 L92.87 341.26 L91.83 341.35 L90.83 341.61 L88.7 343.19 L86.57 343.96 L84.47 343.56 L82.5 341.64 L81.5 341.05 L79.34 340.3 L77.51 340.29 L75.71 340.77 L74.01 341.63 L73.97 341.63 L73.96 341.64 L64.25 344.93 L60.82 344.99 L44.47 342.33 L42.26 340.13 L42.13 340 L42.13 339.96 L41.49 335.95 L42.95 323.18 L42.71 320.92 L42.69 320.89 L41.54 318.92 L40.72 318.65 L38.59 319.11 L37.72 318.96 L37.01 318.19 L35.99 316.35 L35.43 315.71 L30.39 313.67 L19.99 313.28 L4.54 307.75 L0.94 304.4 L0.94 304.36 L0 297.84 L0.22 295.48 L0.48 294.33 L1.09 293.59 L2.29 292.52 L3.65 292.07 L4.8 292.42 L5.65 292.12 L6.61 286.63 L8.23 281.07 L8.37 274.97 L9.22 268.32 L10.82 261.94 L11.99 260.43 L13.93 260.19 L17.22 260.65 L17.86 260.5 L18.45 260.19 L18.98 259.71 L19.42 259.11 L18.53 251.77 L21.06 249.29 L31.28 247.68 L43.18 239.14 L47.93 237.61 L53.93 237.73 L97.62 249.09 L116.75 249.69 L127.2 253.44 L133.47 253.89 L139.82 253.29 L147.67 251.2 L150.2 250.04 L150.17 249.98 L149.27 247.89 L148.82 246.87 L150.55 244.38 L156.01 240.89 L159.09 237.64 L160.8 234.37 L161.5 230.38 L162.78 203.57 L164.1 199.99 L165.58 200.1 L167.28 200.81 L171.63 196.93 L173.73 198.52 L177.14 204.1 L178.86 204.98 L179.72 203.9 L180 202.25 L180.01 201.41 L179.98 201.18 L180.89 198.67 L181.33 198.41 L182.67 198.18 L183.15 197.84 L184.71 194.65 L184.74 192.3 L181.88 186.19 L180.64 182.59 L180.19 179.46 L181.07 178.16 L183.73 180.02 L186.34 185.74 L188.29 192.95 L191.21 197.49 L196.65 195.21 L196.22 191.5 L184.96 175.92 L184.33 174.25 L184.14 172.68 L184.41 169.25 L183.97 167.98 L181.7 166.15 L181.43 164.65 L183.09 161.58 L185.1 163.2 L188 168.42 L189.65 167.9 L194.19 163.93 L196.78 163.09 L206.08 164.56 L208.99 164.08 L210.03 162.04 L210.23 159.6 L209.82 157.04 L208.99 154.7 L203.03 150.39 L173.1 156.25 L171.88 156.49 L167.36 154.75 L161.64 151.14 L158.34 147.48 L161.01 145.6 L166.22 144.22 L173.32 142.33 L176.16 142.07 L183.57 143.37 L186.56 142.97 L191.01 140.41 L193.55 139.36 L214.35 136.12 L217.27 136.6 L221.31 138.65 L225.7 140.88 L237.2 144.34 L243.56 144.55 L248.36 142.33 L248.36 138.37 L239.06 129.97 L238.53 125.02 L241.89 124.6 L246.81 126.48 L250.93 125.77 L251.87 117.56 L251.06 113.84 L249.67 110.66 L246.34 104.64 L245.1 101.64 L242.37 92.17 L242.35 92.17 L237.21 83.45 L237.26 79.97 L241.84 76.81 L249.61 76.16 L251.44 75.04 L251.97 72.76 L251.09 63.8 L251.17 57.6 L252.06 52.54 L254.03 48.14 L257.29 43.92 L259.11 42.4 L261.15 41.26 L265.31 39.89 L267.62 40.15 L269.32 41.54 L270.92 43.25 L272.92 44.48 L277 44.88 L279.89 47.6 L284.88 55.38 L286.38 56.74 L289.61 58.87 L291.02 60.58 L293.36 64.57 L294.68 66.34 L296.29 67.81 L300.23 69.28 L303.65 68.22 L306.7 65.5 L312.07 58.67 L314.6 56.53 L317.41 55.12 L340.98 47.69 L353.07 38.35 L366.34 33.07 L375.6 27.47 L382.69 19.14 L386.23 1.28 L391.04 0 L396.73 2.38 L398.3 4.11 L400.76 6.8 L401.09 7.37 L401.49 7.87 L405.52 11.42 L428.84 37.87 L429.9 39.35 L429.65 42.47 L427.13 41.53 L422.68 37.65 L420.13 37.93 L418.93 40.07 L419.24 42.97 L421.24 45.57 L432.94 48.29 L437.83 51.14 L436.72 56.82 L436.44 58.23 L436.43 58.3 L434.45 59.56 L434 60.25 L433.78 61.05 L433.35 61.7 L431.25 62.18 L430.17 62.71 L428.34 64.16 L426.42 65.92 L418.65 72.32 L414.17 77.91 L412.54 79.31 L410.61 80.22 L408.72 80.75 L406.93 81.55 L405.2 83.29 L402.12 88.54 L400.84 90.24 L399.61 90.74 L390.81 92.81 L387.01 95.28 L384.98 98.53 L385.19 102.07 L385.39 102.86 L385.62 103.31 L387.3 105.78 L387.23 105.72 L387.51 105.98 L388.61 107.3 L388.96 108.01 L387.23 113.85 L393.6 116.69 L396.28 117.47 L399.08 117.22 L401.49 116.48 L403.92 116.21 L406.75 117.4 L410.14 122.98 L411.85 130.74 L414.14 137.85 L419.29 141.56 L424.68 141.91 L430.16 141.46 L448.39 135.83 L459.72 134.8 Z M403.51 194.61 L419 199.81 L423.49 199.97 L427.53 198.11 L429.11 198.52 L430.06 201.59 L429.86 204.58 L428.55 205.78 L424.34 206.62 L420.68 208.51 L414.11 213.81 L413.38 213.23 L409.72 206.98 L408.45 205.37 L404.12 202.34 L402.41 199.9 L401.45 197.13 L401.59 194.56 Z "/>
</g>
</svg>
