<svg xmlns="http://www.w3.org/2000/svg" viewBox="0 0 1000 973.03">
<g fill="#ccc" stroke="#333" stroke-width="0.5" stroke-linejoin="round">
<path fill-rule="evenodd" d="M323.48 760.63 L322.1 759.75 L315.38 757.2 L311.21 754.42 L310.55 754.29 L308.99 754.45 L308.34 754.21 L307.81 753.53 L307.54 752.17 L307.2 751.47 L305.96 750.13 L304.82 749.52 L298.39 748.97 L290.66 747.28 L287.29 747 L286.06 746.18 L284.77 744.19 L283.03 740.05 L282.04 738.79 L278.78 736.59 L275.15 735.69 L263.44 735.92 L261.53 735.68 L259.72 735.04 L257.95 733.71 L254.64 730.34 L253.81 729.89 L252.79 729.34 L251.97 729.3 L250.24 729.71 L249.4 729.79 L248.46 729.51 L245.88 728.01 L243.58 727.68 L242.15 728.29 L240.86 729.26 L238.99 730.04 L235.17 729.12 L233.34 725.55 L233.35 721.05 L235.04 717.37 L221.65 713.69 L219.56 713.87 L216.49 715.53 L214.65 716.19 L212.84 716.18 L211.32 715.59 L202.67 708.92 L200.6 706.13 L199.92 702.24 L199.93 698.85 L199.31 696.54 L197.52 695.04 L194.06 694.05 L192.63 693.14 L190.7 690.9 L189.29 690.17 L187.93 690.07 L186.71 690.2 L185.56 690.09 L184.36 689.3 L184.05 688.66 L183.75 687 L183.42 686.43 L182.62 685.96 L182.33 686.08 L182.1 686.44 L181.46 686.69 L180.42 686.92 L175.77 688.58 L175.08 689.04 L174.32 689.31 L173.16 689.12 L172.2 688.39 L170.5 686.1 L169.45 685.38 L167.29 685.38 L165.38 686.37 L163.55 687.69 L161.64 688.64 L157.87 688.61 L153.9 687.15 L150.19 684.94 L147.24 682.63 L141.16 676.15 L135.44 667.88 L130.95 658.88 L128.6 650.26 L126.44 642.09 L119.87 626.05 L100.7 596.03 L98.28 587.47 L97.4 581.5 L94.22 570.1 L87.47 555.53 L82.1 547.18 L69.18 532.05 L62.16 526.18 L58.24 524.17 L49.61 519.76 L37.53 510.54 L34.68 507.55 L32.65 504.13 L28.12 491.96 L22.02 484.05 L19.47 479.79 L18.38 476.24 L16.88 465.45 L14.17 455.34 L13.94 451.75 L15.73 446.02 L22.45 436.92 L25.34 431.84 L26.19 424.85 L24.49 417.27 L15.76 396.63 L12.1 382.03 L5.1 369.18 L2.09 361.82 L1.96 361.28 L0.25 354.08 L0 346.52 L1.78 338.89 L7.22 324.03 L8.08 316.41 L7.75 312.83 L7.47 311.67 L28.51 311.4 L32.93 312.45 L36.6 312.73 L37.01 312.89 L38.04 312.09 L38.31 311.08 L38.36 309.91 L38.7 308.64 L39.26 308.1 L40.79 307.39 L41.26 306.61 L41.45 305.14 L41.61 304.83 L43.07 303.93 L44.03 304.05 L45 304.55 L46.51 304.8 L47.3 304.53 L52.07 302.28 L55.29 299.26 L58.38 297.51 L59.29 296.77 L61.28 295.64 L62.42 294.21 L64.71 288.71 L65.64 287.37 L71.76 282.27 L74.47 278.96 L76.58 275.31 L76.81 274.75 L78.21 271.37 L79.77 264.88 L80.85 263.04 L85.57 258.19 L89.02 252.22 L91.29 250.77 L95.3 252.08 L95.61 250.5 L95.33 249.09 L94.82 247.7 L94.44 246.19 L94.54 244.51 L94.54 244.45 L95.17 242.83 L98.88 236.99 L99.55 235.32 L99.58 233.67 L99.37 231.87 L99.86 230.79 L102.36 228.99 L102.58 228.63 L102.92 227.57 L103.15 227.29 L104.65 227.06 L104.82 227.08 L104.87 227.25 L106.59 227.11 L106.68 226.92 L106.84 226.13 L106.98 225.91 L109.37 225.36 L109.99 225.14 L110.7 224.51 L111.87 223.12 L116.09 221.16 L118.45 218.87 L118.56 216.47 L115.85 214.99 L115.22 214.64 L116.88 212.65 L118.57 211.07 L120.55 209.84 L123.01 208.91 L124.12 208.77 L124.99 208.28 L125.57 207.47 L125.84 206.4 L128.22 207.58 L130.71 207.3 L132.88 205.82 L134.23 203.41 L134.19 202.88 L133.79 201.28 L133.74 200.62 L135.01 198.81 L135.79 196.66 L135.95 195.54 L135.86 194.4 L135.49 193.76 L134.32 192.9 L134 192.22 L134.08 191.7 L134.5 190.5 L134.49 190.03 L133.6 188.78 L131.39 186.7 L130.95 185.38 L131.54 183.95 L134.32 180.74 L134.59 180.26 L135.19 179.19 L133.09 179.17 L128.89 180.34 L126.8 180.52 L125.61 180.17 L123.55 178.82 L122.45 178.41 L121.34 178.49 L120.44 178.84 L119.5 179.07 L118.31 178.81 L118.07 178.42 L117.81 176.95 L117.58 176.4 L117.19 176.14 L116 175.64 L110.17 172.15 L109.44 172.02 L108.18 172.49 L107.12 173.37 L105.34 175.83 L104.91 176.03 L104.89 176 L104.52 174.88 L103.73 174.11 L103.21 173.39 L103.62 172.41 L101.99 171.96 L100.62 170.68 L98.38 167.77 L98.18 166.21 L99.21 164.21 L101.17 161.56 L101.2 159.28 L101.5 157.88 L102.22 156.7 L107.39 151.27 L107.97 149.57 L105.91 150.33 L102.69 151.8 L100.79 152.42 L99.04 152.41 L98.05 151.44 L98.39 149.23 L99.13 148.11 L101.27 146.07 L102.14 144.95 L102.53 144 L103.26 141.15 L106.67 132.84 L107.87 130.94 L110.85 127.19 L112.59 126.17 L114.5 126.41 L116.45 126.97 L118.33 126.87 L119.34 126.02 L120.62 123.61 L121.65 122.8 L122.81 122.64 L123.78 122.95 L128.47 125.26 L129.2 125.44 L130.02 125.21 L130.67 124.84 L131.92 124.53 L133.31 123.74 L134.82 123.07 L135.99 122.22 L136.92 120.54 L137.3 118.71 L136.92 112.55 L137.7 108.59 L140.79 98.58 L140.04 95.97 L139.08 94.67 L137.71 93.3 L136.09 92.49 L134.41 92.85 L135.59 87.62 L135.32 85.24 L132.63 84.81 L133.07 84.09 L133.62 83.5 L135.08 82.36 L134.39 80.75 L134.9 79.37 L135.81 78.02 L136.31 76.5 L135.59 72.89 L135.27 71.94 L136.31 69.47 L136.08 68.64 L135.28 67.42 L135.08 66.95 L135.11 65.99 L136.27 58.9 L136.34 56.58 L135.69 54.68 L133.55 55.5 L132.14 54.39 L131.28 52.37 L130.41 49.13 L130.01 48.45 L128.89 47.26 L127.41 45.27 L126.87 44.1 L127.35 43.58 L127.63 42.52 L127.8 40.18 L127.29 37.83 L125.54 36.77 L123.78 36.52 L117.84 34.31 L117.02 33.81 L115.67 32.53 L114.72 31.86 L112.07 30.77 L110.91 29.89 L110.43 28.45 L110.52 27.78 L110.74 27.25 L110.94 26.86 L111.03 26.59 L110.85 25.85 L110.01 24.76 L109.48 22.93 L107.85 20.22 L107.3 18.91 L106.95 16.59 L106.57 16.03 L105.46 15.23 L105.09 15.34 L104.51 15.65 L103.79 15.76 L103 15.23 L102.85 14.7 L103.09 14.16 L103.43 13.65 L103.62 13.12 L103.33 11.89 L102.02 10.99 L101.72 10.02 L102 9.01 L102.69 8.03 L103.41 7.28 L103.51 7.17 L104.24 6.59 L105.35 6.69 L106.02 7.13 L106.48 7.64 L106.99 7.87 L108.07 7.78 L109.74 7.39 L114.28 6.98 L116.24 7.19 L118.4 7.87 L119.54 6.92 L122.76 3.52 L124.06 2.84 L127.46 1.76 L130.84 0 L134.02 0.8 L135.45 1.5 L141.26 1.5 L157.71 1.5 L174.16 1.5 L176.08 1.5 L190.61 1.5 L207.07 1.5 L223.51 1.5 L239.49 1.5 L239.96 1.5 L256.42 1.5 L272.87 1.5 L289.33 1.5 L305.64 1.5 L305.78 1.5 L316.87 1.5 L322.23 1.5 L338.68 1.5 L355.13 1.5 L368.91 1.5 L371.58 1.5 L387.37 1.5 L388.04 1.5 L404.48 1.5 L411.85 1.5 L418.69 1.5 L419.06 1.46 L420.46 1.5 L420.63 3.85 L421.84 4.64 L425.17 4.9 L431.91 8.67 L451.2 19.44 L470.5 30.21 L485.05 38.34 L489.79 40.99 L509.08 51.75 L528.38 62.53 L532.45 64.81 L547.67 73.3 L566.95 84.08 L586.24 94.86 L605.53 105.64 L624.81 116.42 L644.1 127.19 L663.39 137.97 L682.68 148.75 L701.97 159.53 L721.27 170.31 L728.16 174.16 L740.56 181.1 L747.98 185.25 L749.36 187.46 L750.95 197.22 L751.14 198.4 L752.94 209.41 L751.31 209.53 L750.42 210.3 L750.1 211.55 L750.23 213.16 L748.53 213.29 L746.4 214.44 L744.39 216.03 L743.08 217.48 L742.62 218.28 L742.2 219.29 L741.97 220.34 L742.1 221.29 L742.75 221.95 L744.23 222.13 L744.69 222.84 L744.32 224.33 L743.61 226.09 L743.87 227.32 L748.17 227.07 L750.09 227.24 L751.99 227.74 L753.69 228.56 L754.94 229.72 L755.62 231.1 L757.18 236.65 L758.08 238.49 L759.31 240.11 L764.21 243.63 L771.88 249.17 L779.54 254.7 L787.22 260.24 L794.88 265.77 L802.55 271.31 L810.23 276.84 L817.29 281.95 L817.89 282.38 L825.57 287.91 L833.23 293.44 L840.89 298.99 L848.57 304.53 L856.25 310.06 L863.92 315.6 L871.59 321.15 L879.26 326.68 L886.88 332.2 L887.5 332.76 L889.09 333.2 L889.66 335.74 L889.17 338.66 L887.5 340.2 L885.05 341.44 L887.03 342.24 L888.38 342.35 L889.17 342.85 L889.39 344.85 L889.28 346.77 L888.95 348.33 L888.36 349.77 L885.5 354.65 L884.34 355.75 L883.82 354.43 L884.13 352.64 L884.71 350.9 L885 349.19 L884.43 347.6 L882.85 352.25 L881.47 353.9 L879.52 353.76 L881.08 356.18 L881.32 357.08 L881.63 362.2 L881.36 363.1 L880.75 363.49 L879.35 363.05 L878.58 363.39 L878.24 363.85 L877.35 365.59 L877.2 366.83 L878.49 366.75 L881.36 365.57 L881.43 366.93 L882.42 369.09 L882.58 369.93 L882.22 370.59 L878.8 373.59 L878.21 374.36 L876.43 378.09 L873.68 382.23 L873.39 382.88 L874.09 383.54 L875.07 382.79 L876.46 381.03 L877 382.14 L873.11 393.45 L872.13 395.44 L870.88 397.11 L869.93 397.73 L868.89 398.24 L868.08 398.95 L867.81 400.18 L868.19 400.94 L868.9 401.28 L869.52 401.83 L869.65 403.27 L868.44 406.85 L865.85 412.15 L862.72 416.9 L859.78 418.78 L861 419.34 L860.41 421.21 L860.34 425.41 L859.47 427.09 L858.33 428.53 L856.7 431.88 L854.71 434.9 L854.06 436.85 L853.73 438.96 L853.7 444.78 L853.32 445.66 L852.73 446.29 L852.23 447.08 L851.88 447.92 L851.81 448.22 L851.33 450.52 L850.47 452.36 L849.81 454.33 L849.9 456.52 L850.23 457.1 L851.35 458.39 L851.75 458.99 L852.6 462.47 L852.97 463.36 L853.5 463.89 L855.48 465.16 L856.89 466.35 L857.05 466.91 L857.4 470.32 L857.18 472.49 L856.55 474.44 L855.48 475.76 L856.17 478.01 L856.48 483.08 L857.6 485.33 L858.58 486.04 L859.69 486.62 L860.62 487.24 L861 488.11 L861.14 489.08 L861.54 490.1 L862.12 491.03 L862.85 491.81 L863.37 492.18 L863.82 492.37 L865 492.42 L865.61 492.69 L865.92 493.28 L866.17 493.91 L866.58 494.34 L867.72 494.54 L870.21 494.68 L871.18 495.24 L872.1 495.58 L873.07 495.24 L872.98 494.52 L872.2 494.17 L870.75 493.6 L868.98 492.42 L871.56 493.22 L873.43 494.06 L878.4 498.78 L881.36 502.36 L883.73 504.06 L884.43 504.83 L885.79 507.16 L886.58 507.99 L888.11 508.91 L888.87 509.58 L889.47 510.61 L889.83 511.78 L889.96 512.93 L890.51 515.19 L891.85 517.66 L893.47 518.87 L894.92 517.31 L895.32 519.93 L894.9 523.46 L894.94 526.66 L896.76 528.37 L896.7 526.72 L896.55 526.02 L896.15 525.27 L897.8 525.38 L899.1 525.89 L901.66 527.44 L903.03 527.81 L905.75 528.05 L906.88 528.68 L908.21 529.16 L911.5 529.12 L912.14 529.64 L912.52 530.88 L914.18 533.07 L914.93 535.74 L919.23 541.44 L919.51 542.07 L919.41 542.95 L918.97 543.5 L918.51 543.97 L918.29 544.55 L919.05 550.32 L918.96 552.71 L917.61 552.59 L916.71 553.74 L916.03 556.19 L915.5 557.25 L914.5 558.05 L913.65 558.02 L913.01 557.22 L912.7 555.68 L908.93 558.33 L908.82 558.46 L908.11 559.42 L907.6 561.03 L907.39 562.48 L906.99 563.82 L905.96 565.06 L904.79 565.99 L904.23 566.21 L903.48 566.3 L902.78 566.58 L902.86 567.26 L903.27 568.06 L903.51 568.77 L902.99 569.8 L901.74 570.03 L900.32 569.94 L899.21 570.01 L900.09 571.47 L900.98 572.48 L901.59 573.64 L901.6 575.59 L901.2 576.91 L900.41 578.77 L899.45 580.43 L897.07 582.63 L896.03 586.05 L894.45 596.04 L894.55 597.9 L894.92 599.77 L896.07 602.68 L896.38 604.38 L895.84 605.73 L895.54 607.02 L896.9 610.33 L896.46 611.93 L892.46 616.61 L895.21 616 L897.17 613.75 L898.45 610.74 L899.21 607.81 L900.6 608.96 L901.68 610.19 L901.81 611.49 L900.38 612.83 L903.76 612.5 L905.3 612.67 L906.88 613.79 L909.32 616.18 L909.61 617.45 L909.03 619.7 L907.7 622.64 L907.58 623.75 L908.55 626.92 L908.63 630.46 L909.03 632.09 L910.41 631.23 L910.87 630.79 L910.59 633.59 L909.47 636.15 L906.57 640.77 L903.59 648.93 L902.27 651.41 L901.66 651.11 L901.38 651.14 L901.09 651.29 L900.38 651.41 L901.01 652.76 L900.81 656.01 L901.06 657.61 L899.77 657.04 L899.76 657.77 L899.21 659.47 L897.75 657.85 L897.01 657.3 L896.15 657.04 L896.86 658.36 L896.9 659.43 L896.26 660.22 L894.92 660.71 L896.06 663.04 L896.8 665.42 L897.2 667.95 L897.31 670.71 L896.71 675.98 L896.99 678.54 L899.99 681.63 L901.12 683.73 L901.9 686.06 L902.27 688.12 L902.11 695.71 L901.6 697.49 L904.74 698.38 L905.28 698.95 L905.53 699.68 L905.9 700.31 L906.88 700.59 L908.68 700.73 L909.22 701.26 L909.26 702.38 L909.64 704.31 L910.43 705.79 L911.42 706.47 L912.49 706.94 L913.66 707.76 L914.42 709.03 L915.46 712.21 L916.44 713.68 L918.97 715.6 L919.51 716.43 L918.26 716.79 L917.19 716.72 L916.55 716.5 L915.23 715.48 L915.05 715.29 L913.33 713.68 L911.51 711.44 L910.14 710.64 L908.41 710.88 L907.4 711.29 L906.88 711.43 L906.51 711.69 L904.68 714.3 L906.04 714.82 L911.47 714.3 L910.28 715.78 L909.98 716.73 L910.67 717.25 L912.43 717.41 L913.96 717.9 L913.97 719.16 L913.44 720.96 L913.33 722.99 L913.55 723.33 L914.35 723.95 L914.56 724.29 L914.58 726.01 L914.56 726.16 L914.07 727.08 L914 727.4 L914.19 727.62 L914.61 727.79 L915.02 728.07 L915.23 728.62 L914.97 729.49 L914.45 730.08 L914.09 730.74 L914.27 731.74 L914.93 733.2 L914.93 733.89 L914.56 734.8 L915.83 734.53 L917.38 733.79 L918.83 732.87 L919.82 732.04 L920.9 731.96 L922.21 733.16 L926.07 738.09 L927.61 740.7 L928.04 743.51 L926.62 746.38 L926.56 747.02 L927.08 747.77 L927.76 748.53 L928.16 749.21 L928.16 750.23 L927.66 752.06 L927.54 752.94 L927.83 755.96 L927.52 757.05 L926.32 758.59 L925.11 759.65 L924.32 759.83 L923.44 759.7 L922.02 759.84 L920.9 760.36 L920.44 761.21 L920.46 762.48 L920.74 764.24 L921.55 763.84 L922.57 763.66 L924.43 763.57 L924.65 762.57 L925.1 762.18 L925.99 762.63 L926.56 763.23 L926.86 763.48 L927.24 763.57 L928.23 763.99 L928.38 764.94 L928.18 765.98 L928.16 766.68 L928.77 767.52 L930.92 769.5 L931.68 771.3 L932.74 776.27 L933.69 777.65 L934.9 778.51 L934.67 779.09 L933.95 779.66 L933.75 780.42 L934.19 781.41 L934.63 782.04 L935.82 783.23 L936.33 784.22 L936.03 786.07 L936.85 787.84 L936.11 788.43 L934.3 789.13 L932.79 790.57 L932.39 791.34 L933.12 791.68 L936.69 791.6 L937.36 791.68 L937.65 792.34 L938.36 794.8 L938.92 795.73 L940.4 796.82 L941.1 797.5 L941.7 798.54 L942.3 801.13 L941.65 802.99 L939.96 803.88 L937.36 803.57 L938.12 804.8 L940.68 806.79 L940.77 807.59 L939.8 808.23 L936.7 809.56 L933.94 810.24 L933.89 811.29 L935.03 813.59 L934.85 815.3 L934.19 816.58 L933.15 817.61 L931.83 818.57 L934.14 818.15 L938.34 813.05 L940.18 813.25 L941.38 813.92 L944.06 813.73 L945.97 815.65 L947.16 815.81 L948.47 815.75 L949.68 815.97 L951.92 817.7 L957.37 826.79 L957.53 832.05 L958.28 834.78 L959.2 833.69 L959.66 832.19 L959.68 830.6 L959.22 829.2 L958.41 827.36 L958.61 826.59 L959.68 826.49 L961.4 826.74 L962.7 827.13 L965.48 828.35 L967.24 828.76 L970.83 830.07 L971.27 829.96 L971.54 830.1 L971.83 831.09 L971.66 832.28 L971.07 833.5 L970.79 834.84 L971.52 836.37 L971.79 837.22 L971.13 837.68 L970.26 838.06 L969.99 838.63 L970.46 839.36 L970.92 839.42 L971.4 839.21 L971.83 839.14 L973.33 840.07 L974.03 840.21 L974.34 839.49 L974.4 838.54 L974.68 838 L975.24 837.9 L976.18 838.29 L977.28 839.05 L979.36 840.92 L980.47 841.69 L980.46 840.86 L980.61 840.28 L980.85 839.79 L981.09 839.14 L981.8 839.63 L982.33 839.77 L982.87 839.6 L983.6 839.14 L982.07 838.7 L977.41 836.71 L980.47 832.91 L981.67 833.29 L982.19 834.33 L982.46 835.6 L982.93 836.71 L983.72 837.36 L985.74 838.34 L986.67 839.14 L987.16 839.95 L990.05 846.46 L990.96 847.3 L991.19 847.15 L994.22 847.76 L994.65 847.93 L997.55 847.08 L997.97 845.27 L996.89 843.86 L995.31 844.18 L994.9 843.1 L995.2 842.32 L996.02 841.85 L997.16 841.69 L997.99 842 L998.38 842.75 L998.69 843.68 L999.22 844.49 L1000 846.14 L999.17 847.61 L997.69 848.99 L996.54 850.43 L997.11 850.37 L998.3 850.47 L998.87 850.43 L997.9 853.53 L997.77 854.53 L998.01 855.22 L998.52 855.91 L998.93 856.76 L998.87 857.97 L997.45 860.61 L994.59 863.49 L991.37 865.82 L985.54 867.86 L982.15 870.41 L976.83 875.7 L975.14 877.92 L974.09 878.95 L971.59 879.89 L960.35 888.72 L958.64 889.62 L949.37 893.6 L940.37 899.83 L938.1 900.79 L923.02 904.12 L916.09 904.64 L914.55 905.15 L913.13 905.93 L895.51 920.12 L893.41 921.27 L891.16 921.95 L888.77 921.93 L886.88 921.23 L883.22 919.22 L881.1 918.79 L878.33 920.05 L875.22 920.67 L863.47 920.66 L860.43 921.36 L858.03 923.47 L856.45 924.58 L854.57 925.05 L853.39 925.81 L849.81 929.24 L848.17 930.11 L847.17 930.07 L845.23 929.6 L844.15 929.49 L843.18 929.68 L841.36 930.53 L838.68 931.26 L837.24 932.49 L835.22 935.06 L826.37 941.09 L824.13 943.88 L824.08 943.85 L821.45 942.31 L814.32 940.51 L811.14 938.87 L806.18 933.63 L802.96 931.38 L798.8 930.73 L797.91 930.98 L795.93 931.81 L794.89 931.99 L793.83 931.7 L792.06 930.4 L791.19 930.11 L790.9 929.93 L790.43 929.08 L790.27 928.86 L789.72 928.87 L789.27 929.08 L788.99 929.35 L788.99 929.49 L788.29 929.48 L786.26 929.43 L781.12 930.31 L780.28 931.21 L779.48 931.42 L775.82 931.65 L774.33 932.01 L768.69 935.23 L768.07 936.03 L767.84 937.37 L766.46 941.51 L765.61 942.63 L765.74 944.28 L763.59 948.13 L763.11 950.19 L763.48 951.41 L764.01 952.54 L764.18 953.67 L763.45 954.89 L762.32 955.9 L760.46 957.21 L753.92 960.1 L749.92 963.33 L748.24 964.29 L746.32 964.63 L743.47 964.66 L741.52 965.04 L738.27 966.76 L736.39 967.16 L735.31 967.65 L734.61 968.79 L734.1 970.06 L733.6 970.97 L732.85 971.63 L732.24 971.95 L730.53 972.23 L728.48 972.23 L724.03 970.97 L723.3 970.6 L721.7 968.9 L720.66 968.41 L719.82 968.47 L719.12 968.81 L718.41 969.26 L717.54 969.66 L714.32 970.01 L710.4 969.59 L702.76 967.84 L699.61 966.32 L696.47 963.66 L694.02 960.59 L692.95 957.76 L691.54 958.6 L690.74 959.2 L689.89 959.57 L681.58 960.32 L680.25 960.07 L678.02 958.62 L676.25 958.48 L675.39 958.05 L673.87 958.56 L669.8 963.39 L667.3 967.08 L666.5 967.84 L665.47 968.39 L662.15 969.66 L661.28 970.38 L660.79 970.97 L660.13 971.39 L657.74 971.65 L656.4 972.12 L650.76 973.03 L649.21 972.86 L646.96 971.73 L646.45 971.54 L645.89 971.06 L645.35 968.9 L644.64 968.41 L634.15 968.41 L633.72 968.61 L633.26 969.04 L632.64 969.46 L629.81 969.89 L626.54 970.83 L625.22 970.97 L624.29 970.71 L622.9 969.85 L621.82 969.66 L618.12 970.3 L617.09 969.58 L616.28 967.92 L616.01 966.03 L616.59 964.66 L615.98 962.83 L615.78 960.75 L615.28 959.03 L613.83 958.33 L613.01 958.14 L612.4 957.67 L611.81 957.05 L611.06 956.45 L610.2 956.09 L608.21 955.56 L607.33 955.2 L604.05 953.18 L602.17 952.33 L600.88 952.42 L599.14 952.93 L597.46 952.04 L596.66 950.3 L597.51 948.26 L595.96 946.37 L594.76 945.77 L591.37 945.81 L590.8 945.65 L588.25 944.56 L584.57 943.88 L583.38 944.69 L580.58 948.26 L578.99 949.51 L574.48 950.33 L572.82 951.32 L573.52 953.33 L572.43 954.04 L571.44 955.26 L570.69 956.53 L570.06 958.42 L569.16 959 L564.31 960.28 L564.21 960.27 L562.1 961.46 L560.62 961.08 L559.17 960.5 L558.19 960.58 L558.08 962.15 L557.05 961.82 L556.65 961.31 L556.41 960.67 L555.93 959.98 L555.13 959.37 L554.71 959.32 L554.36 959.53 L553.78 959.7 L553.76 959.78 L552.56 960.27 L552.17 960.3 L549.96 960.2 L549.12 959.92 L548.53 959.34 L548.37 958.83 L544.62 958.94 L507.14 958.56 L506.99 957.76 L506.99 953.01 L506.78 951.68 L506.34 950.6 L505.91 949.77 L505.7 949.22 L505.32 948.55 L504.48 947.82 L503.63 946.85 L502.86 944.37 L501.18 942.97 L500.8 942.28 L500.12 940.39 L498.44 938.87 L496.27 937.72 L492.39 936.4 L491.65 936.31 L490.98 936.55 L489.84 937.55 L489.25 937.62 L488.67 936.92 L486.68 933.18 L487.22 932.9 L487.99 932.29 L488.52 931.99 L488.52 931.42 L487.1 930.61 L485.93 929.26 L485.13 927.48 L484.85 925.39 L484.62 924.57 L484.07 923.86 L483.35 923.36 L481.73 922.95 L481.3 922.37 L481.02 921.57 L480.55 920.67 L476.26 916.97 L475.59 915.36 L475.33 913.11 L474.13 909.36 L473.74 907.48 L474.18 905.17 L475.97 902.87 L476.8 901.8 L478.46 898.06 L478.65 897.12 L478.65 893.06 L479.81 887.34 L479.47 884.95 L480.02 884.17 L481.11 883.35 L480.88 882.17 L480.34 881.51 L479.76 881.09 L479.38 880.57 L479.22 880.16 L478.65 879.32 L479.84 877.39 L479.77 875.4 L478.91 873.56 L476.98 871.26 L476.74 870.72 L476.81 868.96 L476.56 867.9 L476.25 867.8 L475.95 867.72 L475.17 867.76 L474.41 867.4 L473.68 866.37 L473.09 865.17 L472.67 863.9 L472.58 863.18 L472.52 862.69 L472.71 861.52 L473.54 859.47 L473.74 858.6 L473.36 856.9 L471.63 854 L471.23 852.03 L473.05 842.06 L473.08 841.09 L472.88 839.95 L472.13 837.96 L471.28 833.11 L468.3 826.37 L467.61 823.26 L467.79 822.35 L468.59 820.57 L468.78 819.53 L468.66 818.53 L467.61 815.41 L464.91 811.57 L463.88 809.7 L454.91 798.54 L454.81 798.16 L453.19 796.59 L452.78 796.36 L450.78 794.29 L450.26 793.56 L449.81 791.84 L449.59 790.21 L449.02 789 L446.34 788.02 L437.6 778.75 L435 777.55 L433.45 775.85 L432.77 775.45 L429.73 771.74 L428.48 771.05 L427.63 770.03 L427.51 769.95 L424.72 768.11 L421.6 766.97 L420.14 768.28 L419.04 769.53 L416.93 771.29 L415.59 773.58 L417.26 777.65 L417.09 779.24 L416.46 781.99 L416.4 783.66 L416.08 784.84 L415.34 785.78 L414.01 786.65 L414.01 787.28 L412.53 788.89 L411.48 788.12 L410.51 786.31 L408.35 784.48 L405.8 782.95 L403.69 782.08 L401.36 780.55 L399.07 778.22 L396.61 776.69 L393.72 777.49 L391.35 778.83 L389.06 779.14 L389.02 779.13 L386.66 778.71 L383.92 777.85 L380.87 777.52 L378.69 778.44 L376.57 779.68 L373.77 780.36 L370.04 780.1 L368.3 779.56 L366.92 778.58 L365.84 776.87 L364.29 773.49 L362.63 771.92 L357.58 768.31 L355.97 767.75 L355.17 767.9 L353.75 768.84 L352.98 769.09 L351.9 768.98 L350.04 768.42 L348.78 768.43 L348.19 768.72 L346.95 769.75 L346.13 770.03 L345.8 769.83 L343.17 768.79 L340.75 768.25 L339.93 767.92 L334.4 763.62 L329.9 759.13 L328.32 758.2 L326.58 758.28 L324.87 759.15 Z M950.24 599.77 L951.62 601.3 L951.47 604.22 L950.04 610.33 L947.48 616.22 L946.28 617.86 L946.1 618.53 L946.12 619.11 L946 619.7 L945.39 621.56 L945.12 622.05 L944.33 623.11 L944.17 623.75 L943.73 624.84 L942.67 624.84 L940.18 624.1 L937.57 624.95 L936.43 626.92 L935.88 629 L935.03 630.23 L931.47 631.63 L929.65 632.04 L928.16 632.09 L926.34 631.35 L923.97 628.8 L922.52 627.69 L923.36 627.49 L924.88 627.44 L925.64 627.12 L925.66 626.87 L925.89 626.22 L926.18 625.63 L926.32 625.61 L926.52 624.92 L927.03 624.76 L927.65 624.81 L928.16 624.64 L932.03 620.87 L933.34 618.8 L932.5 617.78 L933.01 616.26 L934.04 615.55 L935.44 615.36 L937.09 615.37 L938.59 615.07 L941.39 613.76 L942.93 613.45 L942.43 612.72 L941.58 612.59 L939.26 612.83 L939.26 612.27 L940.34 612.01 L941.29 611.5 L942.93 610.35 L944.85 609.56 L945.68 608.85 L946.3 606.52 L947.03 605.17 L947.92 603.99 L948.71 603.49 L949.15 603.02 L950.07 600.68 Z M918.59 480.59 L918.92 481.41 L921.34 485.69 L920.93 489.6 L918.67 492.31 L915.45 493.4 L912.14 492.42 L910.84 491.25 L909.63 489.67 L908.75 487.85 L906.98 480.15 L907.19 478.8 L905.17 479.42 L905.18 480.39 L906.02 481.59 L906.57 482.81 L906.46 484.85 L906.02 485.34 L903.51 484.4 L903.91 482.67 L903.4 481.28 L901.06 478.8 L898.23 474.43 L897.44 473.77 L896.76 473.19 L895.54 473.86 L895.54 474.52 L896.06 474.6 L896.13 474.87 L896.05 475.27 L896.15 475.76 L894.94 474.92 L894.56 476.33 L894.88 478.37 L895.84 479.42 L895.62 479.53 L895.48 479.73 L895.14 479.78 L894.31 479.42 L893.5 478.89 L893.19 478.55 L892.98 478.18 L888.45 472.93 L887.6 471.51 L886.45 467.45 L885.66 465.83 L888.89 461.88 L888.16 456.66 L886.49 451.05 L886.88 445.97 L886.78 444.87 L886.87 443.81 L887.12 442.89 L887.5 442.22 L887.77 442.7 L888.46 443.63 L888.73 444.13 L890.23 441.69 L893.44 439.01 L894.92 437.28 L895.66 434.44 L896.29 427.76 L897.93 426.13 L898.98 428.88 L901.72 433.84 L902.27 437.01 L901.63 440.81 L901.6 442.22 L901.88 443.61 L902.67 446.19 L902.83 447.52 L903.24 448.92 L904.96 451.76 L905.96 455.9 L906.51 456.22 L908.41 456.52 L908.61 457.73 L908.38 458.83 L908 459.95 L907.8 461.17 L907.84 462.61 L908.02 463.71 L908.38 464.72 L909.03 465.83 L907.95 467.16 L907.49 467.89 L907.19 468.92 L908.49 468.37 L909.29 468.92 L909.97 469.93 L910.87 470.72 L910.94 469.38 L911.53 468.5 L912.25 468.43 L912.7 469.54 L913.11 469.48 L913.22 469.42 L913.22 469.27 L913.33 468.92 L914.78 469.29 L914.79 467.41 L914.37 464.72 L914.56 462.75 L916.12 464.81 L916.93 467.38 Z M927.54 398.64 L927.59 395.48 L927.94 394.04 L928.77 392.79 L928.22 391.82 L929.34 391.63 L932.5 392.17 L931.78 390.9 L929.9 388.59 L929.39 387.2 L930.79 387.55 L932.56 387.69 L934.15 387.42 L935.03 386.58 L933.99 386.34 L933.12 386.01 L932.39 385.51 L931.83 384.73 L933.23 384.74 L935.38 384.18 L936.8 384.11 L938.43 384.96 L939.32 384.7 L939.93 382.88 L938.12 383.55 L935.92 382.94 L931.83 380.35 L930.94 380.92 L929.85 380.59 L928.83 379.67 L928.16 378.5 L929.12 378.9 L929.76 379.36 L930.37 379.54 L931.22 379.12 L932.08 379.38 L935.13 379.84 L936.8 379.79 L936.13 379.12 L936.82 377.37 L936.48 375.88 L935.52 375.4 L934.3 376.66 L934.77 374.83 L935.03 374.25 L934.5 373.58 L933.8 373.14 L932.9 373.1 L931.83 373.68 L932.03 372.68 L932.17 372.27 L932.5 371.73 L932.14 370.66 L932.25 369.38 L932.72 368.43 L933.4 368.35 L934.46 368.85 L934.94 368.54 L934.87 367.77 L934.3 366.86 L933.53 366.4 L930.62 365.28 L930.88 364.43 L932.12 363.42 L932.5 362.49 L931.22 363.1 L930.48 361.44 L930.97 360.13 L932.18 359.71 L933.75 360.64 L934.1 359.19 L933.09 358.35 L931.62 357.56 L930.62 356.33 L930.57 355.29 L931.12 352.76 L931.23 351.39 L931.43 351.85 L931.65 352.23 L931.9 352.49 L932.17 352.58 L932.87 352.97 L933.36 353.83 L933.66 354.7 L933.75 355.1 L934.74 354.96 L935.08 354.29 L935.27 353.55 L935.82 353.19 L936.28 353.51 L937.72 354.96 L938.03 355.37 L942.18 357.75 L942.93 358.46 L942.99 359.49 L943.21 360.4 L943.58 360.73 L944.17 360.02 L944.11 359.29 L943.76 358.43 L943.78 357.42 L944.85 356.33 L944.94 356.99 L945.26 357.66 L945.39 358.18 L946.13 356.7 L946.65 354.89 L946.85 353.19 L946.67 352.01 L947.89 352.81 L947.89 354.65 L947.65 356.8 L948.67 360.18 L947.66 361.8 L946.06 363.07 L944.85 363.67 L945.29 365.27 L945.01 367.02 L944.46 368.79 L944.17 370.5 L945.04 373.2 L945.12 373.68 L945.94 373.3 L946.02 372.44 L945.86 371.56 L946 371.11 L947.14 371.61 L947.29 373.2 L946.67 376.66 L946.65 381.98 L946 383.43 L946.67 384.11 L945.6 385.37 L942.93 393.35 L942.24 394.32 L941.87 394.7 L941.74 395.27 L941.7 396.8 L941.29 397.99 L940.5 398.2 L939.98 397.47 L940.42 395.86 L939.93 395.86 L939.33 397.33 L939.01 397.87 L938.59 398.33 L938.89 399.28 L938.41 400.29 L937.4 401.22 L936.13 402.03 L935.27 402.27 L935.03 401.93 L935.33 401.36 L936.13 400.86 L936.13 400.18 L934.85 400.5 L933.88 401.11 L933.15 401.25 L932.5 400.18 L929.37 400.28 L928.07 399.86 Z M936.44 632.17 L939.32 631.85 L941.35 631.95 L941.78 633.24 L940.82 634.41 L937.08 638.58 L934.41 641.04 L932.91 640.93 L932.38 639.44 L932.91 637.09 L933.98 635.16 Z M890.07 430.71 L890.01 431.94 L890.45 433.55 L891.19 434.66 L890.57 435.59 L891.13 436.76 L891.13 438.55 L890.02 438.8 L889.03 438.74 L888.84 437.44 L889.03 435.84 L889.27 433.3 L889.02 431.45 Z M921.47 396.88 L922.26 397.3 L923.57 398.14 L924.52 399.46 L925.57 401.08 L927 401.61 L928.36 401.97 L929.26 403.13 L929.05 404.23 L926.63 404.39 L925.05 403.13 L923.68 401.51 L922.89 400.35 L921.84 399.25 L920.89 397.93 Z "/>
</g>
</svg>
