<svg xmlns="http://www.w3.org/2000/svg" viewBox="0 0 1000 1837.95">
<g fill="#ccc" stroke="#333" stroke-width="0.5" stroke-linejoin="round">
<path fill-rule="evenodd" d="M670.18 1104.43 L669.26 1101.93 L669.59 1095.56 L669.35 1092.67 L667.73 1089.2 L659.56 1078.31 L654.5 1074.1 L653.72 1072.84 L653.72 1064.85 L652.51 1059.39 L650.43 1055.88 L636.23 1042.1 L636.02 1040.95 L638.85 1041.23 L637.38 1039.21 L632.93 1035.71 L633.08 1034.41 L633.08 1033.57 L631.11 1034.69 L629.25 1035.12 L627.8 1035.93 L627.25 1038.2 L628.97 1049.63 L630.46 1052.54 L630.7 1053.42 L630.27 1054.77 L629.26 1054.77 L627.99 1054.2 L626.84 1053.84 L626.38 1053.3 L626.49 1050.64 L626.42 1049.63 L624.23 1046.84 L620.85 1044.4 L617.17 1042.48 L604.22 1037.92 L602.31 1036.72 L600.61 1036.49 L599.19 1038.62 L598.46 1038.62 L595.75 1037.42 L595.09 1036.93 L594.62 1035.88 L594.69 1034.94 L594.97 1034.14 L595.09 1033.57 L594.25 1031.09 L592.08 1027.38 L591.81 1025.15 L595.05 1025.97 L598.08 1024.94 L600.62 1022.95 L602.5 1020.94 L603.46 1018.06 L602.52 1015.57 L600.73 1014.47 L599.19 1015.81 L600.17 1016.23 L600.87 1016.81 L601.36 1017.54 L601.68 1018.34 L599.95 1020.43 L597.48 1021.86 L595.24 1021.64 L594.26 1018.76 L594.58 1013.29 L595.31 1010.68 L596.73 1008.15 L595.99 1008.15 L595.22 1009.11 L593.44 1012.45 L592.63 1012.45 L592.13 1010.94 L591.85 1009.39 L591.96 1007.9 L592.63 1006.55 L591.24 1007.6 L589.31 1008.29 L587.6 1008.11 L586.87 1006.55 L584.89 1007.11 L584.32 1007.39 L585.48 1008.11 L585.93 1009.11 L585.81 1010.3 L585.22 1011.6 L585.96 1011.6 L588.52 1009.84 L589.32 1011.19 L589.87 1012.39 L589.96 1013.6 L589.34 1014.97 L591.79 1016.83 L593.05 1020.64 L592.01 1023.1 L587.6 1020.94 L580.2 1013.29 L576.59 1011.31 L575.08 1010.23 L575.28 1009.07 L573.34 1006.48 L570.6 1003.54 L568.77 1000.61 L569.51 998.05 L569.96 999.05 L570.46 999.39 L571.12 999.48 L571.98 999.73 L570.4 998.65 L571.2 997.62 L572.83 996.36 L573.63 994.59 L572.72 994.59 L572.08 995.81 L571.3 996.3 L570.4 996.18 L569.51 995.52 L570.73 994.41 L571.34 994.07 L571.98 993.83 L565.87 993.97 L565.32 992.95 L567.87 990.46 L562.78 990.73 L561.22 991.23 L561.22 992.14 L562.81 993.3 L563.9 994.98 L565.31 996.29 L567.87 996.36 L567.28 997.9 L567.02 999.53 L566.96 1003.1 L562.81 996.78 L561.18 994.98 L559.16 994.28 L556.9 994.07 L555.37 994.59 L555.37 989.24 L555.14 987.93 L554.6 986.68 L554.06 986.06 L553.81 986.63 L553.59 987.38 L552.51 988.18 L552.18 988.85 L553.75 994.16 L553.81 995.52 L549.75 992.39 L548 990.58 L547.16 988.85 L549.63 989.61 L549.19 987.56 L548.36 987.11 L547.36 987.28 L546.33 987.09 L545.35 986.16 L544.86 985.24 L544.49 984.18 L543.86 982.88 L541.88 980.11 L539.65 977.86 L537.01 975.99 L533.92 974.36 L531.92 973.77 L524.49 973.52 L522.31 974.23 L521.06 975.9 L520.15 977.86 L519.11 979.42 L517.01 980.51 L514.56 980.72 L509.62 980.34 L508.71 980.7 L508.53 981.5 L508.6 982.35 L508.42 982.88 L507.86 982.98 L506.53 982.85 L504.56 982.93 L500.95 982.03 L495.65 982.86 L492.97 983.78 L491.82 984.94 L491.29 987.23 L489.99 987.38 L486.95 985.4 L478.59 981.64 L469.6 979.42 L450.18 976.89 L447.64 977.43 L443.48 979.81 L438.24 980.75 L436.97 981.96 L436.93 982 L436.53 984.1 L436.53 987.09 L430.71 984.48 L430.71 983.71 L432.47 982.35 L431.73 980.31 L429.69 979.12 L427.51 980.34 L426.2 979.59 L425.14 979.67 L424.02 980.09 L422.49 980.34 L423.06 979.93 L423.57 979.4 L423.93 978.7 L424.12 977.74 L421.67 977.74 L422.08 977.01 L422.9 975.1 L423.3 974.36 L422.3 974.32 L420.02 973.52 L422.12 968.04 L423.7 965.71 L425.87 966.77 L426.61 966.77 L427.46 965.42 L428.51 964.3 L429.45 962.93 L429.96 960.79 L429.79 958.89 L429.16 957.15 L428.3 955.57 L423.79 949.01 L423.3 947.36 L423.73 946.2 L424.61 945.49 L425.64 944.84 L426.61 943.84 L426.91 942.92 L427.17 940.65 L427.51 939.62 L428.55 940.21 L429.83 939.6 L430.98 938.35 L431.61 937.08 L431.55 934.15 L430.35 932.13 L428.93 930.37 L428.26 928.22 L427.75 927.45 L426.61 927.1 L425.49 926.56 L424.94 925.26 L427.51 921.88 L429.46 918.27 L432.02 914.66 L433 912.57 L432.93 910.2 L431.61 905.75 L431.05 904.56 L429.42 901.91 L429.06 901.06 L429.34 899.76 L429.89 898.97 L430.45 898.37 L431.46 895.58 L433.24 894.8 L435.44 894.29 L437.36 892.99 L437.85 891.26 L438.06 888.4 L437.82 885.73 L436.1 883.31 L437 880.62 L439.1 876.85 L439.1 876.01 L437.67 877.02 L436.47 878.15 L435.2 879.08 L433.67 879.46 L426.23 879.46 L423.23 879.06 L417.2 877.26 L412.06 876.63 L409.46 875.54 L401.04 874.39 L397.4 873.02 L392.65 869.64 L390.46 868.78 L390.16 867.85 L390.4 866.67 L391.02 865.29 L391.28 863.57 L391.15 861.62 L389.84 864.13 L389.39 866.11 L389.52 871.36 L388.51 873.1 L386.11 874.18 L370.93 876.85 L365.04 876.58 L362.07 876.81 L359.75 877.78 L354.05 874.91 L352.27 873.47 L351.05 875.83 L349.64 877.29 L347.7 878.34 L337.25 882.46 L332.74 883.39 L329.84 884.7 L327.48 885.77 L325.52 886.31 L323.8 887.58 L322.89 890.15 L321.73 892.06 L319.28 891.39 L321.01 892.15 L320.8 894.31 L319.87 896.24 L318.36 897.61 L316.4 898.15 L314.63 899.08 L314.39 901.24 L314.41 901.35 L315.16 905.38 L318.95 910.44 L325.93 916.35 L326.33 916.93 L327.17 917.62 L328.04 918.52 L328.4 919.77 L328.5 920.88 L329.7 925.53 L331.7 930.33 L331.4 932.49 L330.33 934.46 L326.36 939.86 L325.51 941.61 L324.3 945.6 L322.66 954.51 L322.01 956.33 L317.63 963.32 L316.03 968.17 L314.91 973.24 L314.36 978.46 L314.4 982.38 L314.42 983.71 L316.48 991.69 L316.81 994.21 L316.36 1002.04 L316.81 1004.78 L320.45 1013.6 L320.6 1015.39 L319.57 1017.21 L316.92 1026.34 L317.05 1027.51 L318.12 1028.86 L319.33 1029.99 L320.24 1031.12 L320.8 1032.41 L321.18 1034.95 L321.5 1035.92 L321.54 1037.09 L321.01 1038.62 L320.38 1039.28 L318.44 1040.8 L317.63 1041.98 L316.89 1046.4 L316.4 1047.49 L313.74 1051.91 L301.69 1064.73 L298.79 1070.11 L297.83 1075.78 L299.48 1080.12 L299.09 1080.82 L297.39 1080.99 L296.53 1081.51 L296.21 1082.43 L296.18 1083.81 L297.08 1088.47 L296.83 1089.2 L296.45 1090.11 L296.36 1091.24 L297.08 1092.67 L292.67 1093.19 L289.22 1096.56 L279.43 1112.8 L278.83 1114.16 L278.32 1116.1 L275.97 1119.51 L275.45 1121.72 L275.28 1124.6 L274.79 1127.21 L274.03 1129.69 L270.92 1136.6 L270.61 1137.74 L270.08 1139.06 L267.76 1141.54 L267.24 1142.78 L266.86 1149.86 L267.24 1152.42 L269.27 1157.54 L269.27 1159.84 L267.24 1161.8 L266.35 1159.37 L264.44 1159.43 L262.32 1160.86 L260.72 1162.56 L259.86 1163.88 L259.04 1165.53 L258.44 1167.48 L258.18 1169.73 L258.59 1172.37 L260.33 1176.8 L260.72 1178.98 L260.38 1181.43 L259.29 1184.16 L258.72 1185.6 L258.18 1187.79 L258.41 1190.64 L260.27 1195.77 L260.72 1198.33 L260.27 1200.19 L259.27 1200.13 L258.38 1199.28 L258.18 1198.75 L255.91 1198.66 L254.2 1198.84 L253.06 1199.1 L252.04 1199.71 L251.62 1200.85 L251.62 1205.88 L251.06 1208.11 L243.82 1219.13 L243.38 1220.22 L243.66 1221.51 L244.03 1222.38 L243.74 1222.88 L242.14 1223.04 L240.03 1223.62 L238.05 1225.1 L236.37 1227.05 L235.07 1229.05 L234.32 1231.52 L233.37 1237.4 L232.15 1239.47 L230.84 1240.01 L229.33 1240.22 L228.11 1240.81 L227.6 1242.43 L227.88 1243.34 L228.64 1243.89 L229.72 1244.13 L230.97 1244.11 L230.08 1245.75 L228.97 1247.08 L228.01 1248.5 L227.6 1250.39 L228.37 1251.99 L232.09 1254.48 L233.43 1255.9 L233.64 1257.46 L233.5 1259.71 L232.98 1261.72 L232.15 1262.59 L230.43 1262.59 L229.52 1262.74 L226.85 1264.26 L226.44 1262.69 L225.55 1261.61 L224.31 1260.79 L222.74 1260 L220.9 1260.88 L219.32 1261.01 L217.99 1261.29 L216.9 1262.59 L216.88 1263.94 L217.73 1269.28 L218.99 1271.12 L223.49 1275.21 L225.7 1277.9 L227.08 1278.27 L229.32 1277.64 L227.76 1280.08 L222.9 1280.56 L221.84 1282.32 L221.14 1285.23 L217.9 1290.63 L216.9 1293.68 L217.13 1297.06 L218.29 1299.28 L219.6 1301.09 L220.19 1303.24 L219.82 1304.69 L218.11 1305.93 L217.73 1307.49 L218.55 1312.88 L218.55 1322.53 L218.73 1322.89 L219.11 1323.24 L219.4 1323.78 L219.38 1324.65 L218.91 1325.36 L217.4 1326.54 L216.9 1327.23 L216.49 1328.45 L216.25 1329.61 L216.1 1331.87 L216.08 1332.24 L216.46 1334.78 L218.15 1339.71 L218.79 1344.47 L219.46 1347.27 L220.49 1349.96 L224.19 1355.52 L224.88 1357.42 L225.14 1360.24 L225.52 1362.26 L230.6 1371.62 L237.62 1380.71 L236.67 1380.95 L236.07 1380.92 L235.51 1380.79 L234.66 1380.71 L233.67 1380.89 L233.58 1381.34 L233.73 1381.9 L233.43 1382.45 L230.43 1384.1 L229.32 1384.95 L227.01 1387.45 L226.38 1389.48 L226.85 1394.54 L229.37 1400.13 L235 1401.34 L240.9 1401.75 L244.2 1404.96 L248.15 1404.54 L252.12 1404.59 L255.84 1403.98 L259.09 1401.62 L260 1399.76 L260.62 1397.6 L261.47 1395.56 L263.2 1394.13 L264.69 1393.95 L270.15 1394.96 L272.15 1394.58 L273.77 1393.74 L275 1392.91 L275.9 1392.53 L279.65 1391.62 L281.67 1390.19 L281.71 1389.95 L286.27 1390.22 L287.04 1390.4 L287.74 1389.39 L289.34 1389.48 L291.63 1390.39 L292.81 1390.86 L293.44 1390.32 L294.75 1389.65 L295.44 1389.12 L296.89 1390.52 L301.48 1392.54 L301.59 1393.71 L301.42 1395.06 L302.21 1397.05 L304.4 1400.87 L305.39 1400.03 L305.45 1409.23 L306.04 1411.62 L307.03 1413.21 L308.12 1414.58 L309.04 1416.06 L309.42 1417.95 L309.42 1423.82 L309.68 1425.06 L310.85 1427.05 L311.07 1428.43 L310.83 1428.52 L310.27 1429.17 L309.71 1430.07 L309.42 1430.94 L309.42 1433.89 L310.83 1443.26 L310.24 1445.17 L311.8 1448.93 L314.21 1472.68 L315.16 1476.58 L317.21 1479.78 L324.04 1483.9 L325.11 1485.68 L325.6 1487.79 L328.27 1493.06 L330.22 1495.98 L330.99 1498.41 L331.7 1499.48 L332.62 1500.03 L335.27 1501.18 L335.81 1501.52 L336.5 1503 L338.11 1503.37 L340.03 1502.93 L341.57 1501.98 L340.46 1498.44 L340.22 1493.54 L338.98 1489.29 L334.92 1487.68 L337.27 1486.66 L340.91 1489.31 L344.23 1493.15 L345.69 1495.7 L351.84 1511.73 L355.62 1535.9 L360.39 1557.78 L363.39 1571.55 L372.16 1613.92 L379.44 1631.3 L385.92 1641.52 L387.47 1643.99 L388.36 1646.46 L388.28 1648.18 L385.17 1647.93 L383.65 1646.35 L379.32 1642.43 L376.99 1641.03 L376.04 1640.43 L372.66 1640.55 L370.4 1639.37 L372.01 1636.14 L370.82 1632.22 L370.01 1626.93 L368.3 1625.87 L368.52 1616.19 L368.04 1607.77 L366.05 1603.08 L362.37 1601.57 L358.35 1602.08 L355.63 1606.18 L354.76 1608.26 L354.01 1608.91 L352.72 1608.22 L351.97 1607.35 L351.62 1606.57 L351.51 1605.6 L351.51 1604.15 L352.33 1601.77 L356.42 1599.25 L358.1 1596.98 L358.52 1592.26 L357.75 1585.85 L356.11 1579.78 L353.91 1576.08 L351.62 1575.22 L349.31 1575.63 L346.95 1576.5 L344.5 1576.98 L343.32 1578.02 L337.97 1582.76 L336.57 1584.45 L336.34 1586.81 L337.76 1597.05 L339.92 1602.86 L340.72 1607.34 L341.46 1609.4 L342.8 1610.26 L343.13 1610.67 L345.69 1612.83 L346.25 1613.62 L346.57 1614.22 L350.51 1624.05 L352.72 1627.87 L355.63 1630.24 L358.27 1630.59 L361.27 1630.65 L363.72 1631.45 L364.75 1634.05 L364.76 1634.24 L364.84 1636.93 L365.05 1638.38 L365.5 1639.52 L366.57 1640.47 L368.28 1640.49 L369.45 1641.08 L370.56 1642.07 L368.6 1643.08 L367.54 1643.5 L366.74 1644.09 L366.4 1644.83 L366.78 1646.2 L367.63 1647.19 L368.63 1647.74 L370.26 1651.07 L371.72 1652.42 L373.42 1653 L375.29 1652.77 L376.69 1654.11 L377.68 1654.87 L378.74 1655.27 L381.78 1655.4 L383.18 1655.17 L386.1 1654.29 L389.11 1651.51 L390.05 1650.05 L389.69 1646.7 L389.66 1644.61 L392.75 1648.47 L411.31 1673.9 L413.64 1675.85 L416.87 1677.03 L418.81 1677.72 L421.53 1676.46 L423.52 1678.28 L427.12 1681.61 L433.36 1686.33 L439.32 1689.25 L442.83 1689.29 L447.81 1689.13 L462.67 1688.62 L467.51 1686.38 L469.04 1683.75 L473.07 1684.45 L474.74 1685.84 L476.97 1686.38 L477.82 1686.92 L478.07 1686.67 L481.94 1686.92 L481.01 1684.46 L479.17 1681.83 L471.24 1678.56 L474.76 1677.37 L478.27 1678.01 L481.38 1680.52 L486.02 1683.36 L490.15 1684.67 L492.25 1685.18 L494.06 1685.4 L496.39 1685.94 L498.42 1686.63 L499.3 1687.33 L502.62 1688.75 L506.77 1691.06 L507.84 1692.22 L520.13 1713.28 L526.78 1723.5 L532.59 1732.44 L537.01 1736.82 L549.1 1744.41 L562.51 1757.3 L568.87 1761.89 L568.91 1761.92 L568.13 1768.32 L568.69 1777.78 L567.33 1781.64 L564.13 1784.84 L555.21 1791.72 L552.24 1795.34 L550.43 1800.36 L550.37 1805.53 L549.61 1810.17 L545.68 1813.59 L544.34 1814.46 L543.74 1815.49 L543.33 1816.57 L542.6 1817.64 L539.07 1819.8 L538.44 1820.53 L537.48 1823.1 L536.06 1824.63 L534.09 1824.85 L531.53 1823.46 L530.48 1822.16 L529.72 1820.7 L528.78 1819.49 L527.18 1818.99 L525.73 1819.42 L523.66 1821.33 L523.55 1821.44 L522.35 1822.05 L519.85 1821.52 L517.97 1819.45 L515.61 1813.91 L515.67 1812.83 L516.05 1811.62 L516.01 1810.62 L514.87 1810.16 L513.46 1809.92 L512.52 1809.35 L511.88 1808.38 L511.32 1807.02 L509.41 1804.47 L506.83 1803.87 L504.03 1804.51 L499.88 1806.13 L486.92 1811.16 L482.69 1813.91 L478.04 1816.13 L473.31 1816.99 L469.61 1818.93 L468.12 1824.42 L467.76 1827.11 L466.72 1829.56 L465.19 1831.7 L463.33 1833.48 L457.68 1836.89 L454.33 1837.95 L452.32 1837.01 L450.93 1833.98 L449.1 1830.94 L446.82 1828.3 L444.11 1826.49 L442.91 1826.25 L440.62 1826.35 L439.45 1825.88 L438.62 1824.92 L437.2 1822.08 L436.29 1820.64 L435.66 1819.65 L435.43 1818.27 L435.72 1816.85 L436.51 1815.5 L441.46 1805.44 L443.45 1804.16 L445.99 1803.65 L448.18 1802.84 L449.1 1800.62 L449.3 1798.33 L450.15 1794.38 L450.34 1787.48 L450.97 1782.74 L450.11 1780.33 L447.87 1778.64 L445.94 1776.82 L446.05 1774.03 L447.67 1772 L449.25 1771.27 L450.35 1770.24 L450.58 1767.3 L450.25 1764.83 L449.45 1763.26 L447.92 1762.73 L442.39 1763.92 L440.39 1763.27 L436.51 1760.09 L434.21 1760.57 L431.05 1763.97 L428.78 1764.55 L423.76 1763.3 L422.15 1763.08 L420.67 1763.57 L420.01 1764.38 L419.49 1764.45 L418.47 1762.65 L418.18 1761.63 L418.11 1758.13 L418.33 1757.05 L418.37 1756.94 L418.76 1755.92 L419.01 1754.8 L418.78 1753.8 L417.34 1751.34 L416.81 1750.01 L416.53 1748.62 L416.19 1742.85 L415.07 1740.53 L412.29 1738.91 L410.92 1738.71 L409.68 1738.73 L408.56 1738.57 L407.55 1737.81 L407.22 1736.8 L407.26 1734.1 L407.07 1733.35 L405.01 1733.37 L397.25 1738.93 L395.11 1739.22 L392.94 1738.69 L388.82 1736.86 L381.47 1734.72 L379.27 1733.7 L375.42 1730.92 L373.63 1730.48 L370.51 1730.84 L368.48 1730.67 L365.8 1729.84 L364.63 1729.28 L361.15 1727.6 L358.79 1725.52 L357.43 1723.22 L352.95 1709.61 L352.13 1708.72 L350.85 1708.26 L349.46 1708.13 L348.36 1708.23 L346.54 1709.38 L346.54 1709.61 L344.71 1709.58 L343.68 1709.01 L343.13 1708.34 L342.82 1707.96 L341.72 1707.3 L340 1707.85 L339.23 1708.86 L338.89 1710.24 L338.73 1712.98 L337.93 1717.9 L338.06 1719.97 L339.03 1722.78 L339.27 1724.5 L338.55 1725.55 L337.49 1726.46 L336.68 1727.73 L336.57 1728.81 L336.97 1730.92 L337.02 1731.98 L336.52 1735 L335.46 1737.65 L334.46 1739.52 L333.58 1736.99 L332.16 1735 L329.98 1734.36 L331.45 1730.45 L331.6 1728.5 L330.39 1727.66 L328.83 1728.06 L327.91 1729.07 L326.75 1731.72 L322.73 1728.32 L319.28 1724.34 L318.87 1723.29 L318.54 1721.88 L318.07 1720.66 L317.21 1720.13 L315.68 1720.93 L314.8 1721.15 L314.42 1720.58 L314.68 1719.7 L315.77 1718.23 L315.99 1717.64 L315.69 1716.42 L314.65 1714.38 L314.42 1713.05 L313.89 1712.63 L312.74 1712.7 L311.57 1712.54 L311.07 1711.39 L310.51 1709.16 L309.18 1707.63 L306.04 1705.23 L303.16 1700.67 L301.26 1698.99 L299.09 1699.76 L298.02 1699.82 L297.15 1698.24 L296.18 1695.12 L295.33 1694 L294.69 1693.5 L284.27 1689.56 L281.27 1686.75 L281.3 1681.88 L281.83 1679.69 L282.47 1679.42 L284.21 1679.39 L284.65 1678.87 L284.53 1677.73 L283.85 1676.59 L282.53 1676.07 L280.68 1675.06 L280.83 1672.75 L281.32 1670.23 L280.47 1668.61 L282.43 1664.59 L283.67 1662.7 L285 1661.91 L285.38 1661.11 L288.77 1656.55 L287.87 1655.21 L285.8 1655.85 L283.56 1657.14 L282.12 1657.76 L280.28 1656.89 L279.59 1655.42 L279.65 1651.13 L275.45 1653.54 L273.47 1655.22 L272.63 1655.27 L272.24 1653.54 L271.35 1653.54 L269 1652.86 L265.85 1647.88 L263.71 1642.21 L264.35 1639.52 L266.92 1638.1 L269.15 1634.61 L270.74 1630.24 L271.35 1626.18 L270.61 1626.18 L267.2 1632.73 L264.85 1635.21 L261.85 1634.05 L261.35 1632.15 L261.94 1626.92 L261.47 1625.27 L259.86 1625.11 L258.62 1626.83 L257.79 1629.23 L257.44 1631.15 L257.94 1635.44 L257.47 1637.16 L255.35 1637.86 L254.09 1637.51 L252.27 1636.68 L250.66 1635.7 L249.97 1634.88 L249.32 1634.52 L245.91 1633.95 L244.2 1632.88 L242.72 1631.01 L239.19 1625.27 L240.31 1623.27 L240.5 1620.43 L240.08 1614.9 L239.82 1614.08 L238.62 1612.11 L238.38 1610.71 L237.82 1610.54 L235.19 1610.57 L234.25 1610.26 L235.85 1607.69 L235.67 1605.02 L234.79 1601.97 L233.91 1596.46 L233.08 1596.33 L232.01 1596.85 L230.97 1596.98 L229.91 1596.44 L228.73 1595.6 L228.37 1594.83 L229.73 1594.49 L230.23 1593.72 L229.45 1592 L227.99 1590.29 L226.41 1589.52 L224.46 1589.25 L223.48 1588.53 L221.84 1586.19 L219.43 1584.42 L217.08 1583.09 L215.21 1581.43 L214.37 1578.64 L213.61 1578.64 L213.33 1582.8 L212.15 1586.15 L209.66 1587.81 L205.38 1586.95 L202.64 1584.04 L201.97 1576.01 L200.37 1572.83 L205.38 1568.9 L206.14 1567.44 L206.36 1565.16 L207.11 1561.53 L207.02 1559.47 L204.7 1561.83 L203.54 1562.27 L202.02 1562.04 L201.4 1561.33 L199.55 1558.22 L198.67 1557.32 L196.73 1556.75 L194.75 1555.66 L193.87 1553.2 L194.01 1551.97 L194.22 1551.23 L194.28 1550.54 L193.87 1549.5 L193.03 1548.45 L191.09 1547.37 L190.14 1546.56 L189.44 1545.29 L189.25 1544.42 L188.75 1544.08 L187.22 1544.44 L186.46 1545.13 L185.58 1547.3 L185.16 1547.77 L183.31 1548.29 L181.52 1549.3 L179.79 1549.98 L178.09 1549.5 L177.5 1548.58 L176.67 1545.88 L176.08 1544.85 L174.58 1543.95 L173.9 1544.43 L173.57 1545.43 L173.16 1546.1 L171.59 1547.48 L170.96 1547.45 L170.69 1545.69 L170.37 1544.6 L168.81 1543.01 L168.2 1542.02 L167.93 1539.68 L168.2 1533.71 L167.78 1532.09 L168.2 1528.19 L168.2 1526.09 L167.81 1524.17 L165.75 1519.43 L164.02 1522.84 L163.28 1522.84 L162.87 1513.99 L162.04 1512.78 L159.75 1513.43 L156.25 1515.66 L154.96 1515.28 L154.16 1515.28 L154.16 1516.11 L153.34 1516.11 L153.1 1514.68 L153.6 1508.2 L154.25 1507.18 L156.22 1505.71 L157.12 1504.12 L155.51 1503.35 L152.92 1502.83 L150.87 1501.98 L150.31 1504.69 L148.65 1505.42 L146.53 1505.55 L144.66 1506.51 L143.42 1507.84 L141.53 1509.39 L139.65 1510.02 L138.45 1508.55 L137.63 1508.55 L137.42 1510 L136.79 1510.78 L135.96 1510.68 L135.16 1509.46 L134.33 1509.46 L134.33 1511.04 L131.84 1510.76 L129.75 1511.75 L129.02 1513.04 L132.75 1514.54 L133.19 1516.55 L133.16 1518.89 L133.89 1520.72 L133.92 1524.02 L131.9 1529.02 L129.35 1532.27 L127.74 1530.31 L127.01 1530.31 L126.92 1531.44 L126.59 1532.2 L125.29 1533.71 L123.36 1531.97 L121.16 1527.81 L118.06 1526.59 L117.68 1525.7 L117.18 1524.82 L115.8 1524.42 L114.48 1524.33 L113.49 1524.05 L112.71 1523.56 L112.06 1522.84 L111.6 1521.03 L111.6 1515.82 L110.86 1514.07 L109.76 1512.25 L107.31 1500.85 L102.18 1485.27 L102.01 1482.63 L102.6 1480.45 L103.42 1479.53 L103.83 1480.61 L104.13 1482.95 L105.04 1484.53 L107.95 1487.68 L108.64 1485.23 L107.59 1483.75 L105.88 1482.56 L104.65 1481.03 L104.59 1480.24 L104.92 1479.63 L105.29 1479.11 L105.48 1478.61 L105.41 1476.62 L105.48 1476.04 L106.83 1472.27 L107.12 1471.05 L106.89 1468.37 L105 1463.57 L104.65 1461.89 L105.15 1460.78 L106.01 1460.1 L107.02 1459.5 L107.95 1458.56 L108.36 1457.77 L108.6 1456.99 L109.06 1449.41 L109.66 1446.72 L112.31 1442.53 L113.42 1437.72 L115.76 1434.43 L117.29 1431.52 L118.27 1430.94 L118.72 1431.23 L120.51 1431.7 L122.01 1431.68 L121.6 1430.52 L121.29 1428.99 L122.47 1427.28 L125.29 1424.19 L121.69 1425.69 L119.41 1426.28 L118.23 1425.32 L117.89 1422.15 L119.36 1420.83 L122.24 1420.7 L124.18 1419.73 L122.82 1415.86 L119.29 1411.2 L117.71 1408.44 L117.07 1405.42 L116.98 1402.95 L117.54 1403.65 L119.08 1404.12 L120.06 1403.76 L121.02 1402.89 L122.82 1400.87 L120.6 1399.71 L120.55 1397.83 L121.66 1395.77 L122.01 1394.13 L123.45 1392.11 L124.33 1389.87 L126 1382.27 L126.95 1380.06 L129.41 1375.71 L131.55 1364.92 L133.24 1361.53 L136.8 1364.04 L140.79 1360.89 L142.14 1359.39 L141.83 1358.19 L140.9 1357.98 L138.6 1358.3 L137.63 1358.19 L137.14 1357.64 L136.69 1356.02 L136.39 1355.69 L133.98 1354.7 L134.98 1352.66 L137.22 1350.97 L138.45 1351.03 L138.72 1350.56 L139.83 1349.11 L140.1 1348.56 L139.78 1347.66 L137.63 1344.77 L139.6 1344.66 L139.98 1343.65 L139.19 1342.33 L137.63 1341.35 L138.45 1340.59 L140.28 1341.78 L142.18 1342.54 L143.69 1342.23 L144.3 1340.14 L144.81 1340.02 L145.78 1338.98 L146.32 1337.81 L145.53 1337.25 L143.06 1337.22 L141.98 1336.96 L140.92 1336.35 L140.37 1337.18 L140.24 1337.54 L140.1 1338.09 L139.35 1338.09 L139.49 1337.09 L139.45 1334.37 L139.35 1333.91 L140.36 1332.88 L141.31 1332.63 L142.28 1332.6 L143.39 1332.24 L145.07 1331.04 L146.37 1329.58 L147.42 1327.78 L148.39 1325.56 L147.42 1326.45 L145.43 1328.96 L144.3 1329.66 L143.22 1329.46 L142.57 1328.59 L142.04 1327.67 L139.92 1326.29 L140.89 1324.14 L142.84 1321.88 L144.3 1320.56 L144.85 1321.42 L145.61 1321.87 L146.51 1321.84 L147.57 1321.31 L146.88 1320.5 L148.69 1319.19 L149.22 1317.9 L148.81 1317.43 L147.89 1317.18 L147.02 1316.68 L147.26 1316.01 L148.49 1314.86 L149.47 1313.35 L150.42 1312.68 L153.1 1312.72 L154.16 1312.12 L154.43 1310.87 L153.28 1310.35 L151.95 1310.5 L151.69 1311.22 L150.4 1309.53 L150.41 1308.73 L150.87 1307.12 L156.22 1297.85 L157.95 1295.9 L161.24 1286.5 L164.04 1281.18 L164.96 1278.44 L165.54 1275.54 L165.75 1273.04 L166.2 1270.63 L168.06 1266.06 L168.2 1263.43 L170.49 1256 L171.71 1249.76 L173.38 1245.08 L173.49 1242.61 L171.8 1234.91 L171.01 1233.6 L168.7 1231.59 L168.26 1230.02 L169.33 1224.76 L170.53 1221.98 L175.86 1214.88 L178.16 1212.81 L179.31 1212.46 L181.87 1212.3 L182.76 1212.03 L183.62 1210.96 L184.08 1209.78 L184.61 1208.44 L185.63 1207.29 L187.24 1206.57 L188.36 1206.83 L189.39 1207.34 L190.69 1207.39 L194.99 1205.5 L195.56 1205.37 L196.45 1204.36 L196.97 1203.39 L197.41 1200.92 L197.4 1199.12 L196.44 1196.62 L196.18 1195.13 L196.26 1193.86 L196.54 1192.52 L197.03 1191.24 L197.71 1190.18 L198.82 1189 L199.31 1188.85 L199.92 1189.17 L201.45 1189.4 L202.82 1189.81 L204.09 1190.48 L205.27 1190.51 L206.3 1189.02 L207.38 1185.32 L207.9 1184.22 L209.87 1182.2 L214.67 1179.7 L215.62 1178.96 L216.91 1177.94 L217.7 1176.76 L218.83 1174.22 L219.73 1173.06 L220.91 1172.38 L223.48 1171.52 L224.3 1170.5 L227.95 1159.53 L229.5 1156.78 L233.39 1152.08 L234.85 1149.33 L236.68 1144.4 L237.96 1142.5 L242.53 1137.53 L243.28 1135.48 L243.46 1133.33 L244.14 1130.3 L245.27 1128.33 L248.74 1124.8 L250.23 1122.75 L251.33 1120.32 L251.78 1118.26 L251.56 1113.28 L251.72 1110.41 L252.83 1108.38 L254.8 1107.13 L257.57 1106.57 L262.58 1106.27 L264.01 1105.09 L271.76 1094.61 L272.78 1091.69 L274.55 1083.52 L274.3 1082.34 L272.25 1081.75 L269.94 1080.26 L267.77 1078.36 L266.28 1076.49 L265.39 1073.76 L265.79 1071.23 L267.66 1066.27 L267.8 1063.75 L266.95 1061.66 L265.31 1060.16 L263.01 1059.41 L261.1 1057.64 L261.5 1054.22 L263.41 1048.41 L263.61 1047 L264.12 1045.75 L264.4 1044.59 L263.9 1043.51 L262.84 1043.03 L261.61 1043.07 L254.82 1045.31 L253.13 1044.9 L252.72 1042.7 L253.35 1041.51 L254.52 1040.56 L255.51 1039.44 L255.72 1037.76 L255.28 1036.51 L253.99 1034.09 L253.53 1032.79 L253.43 1031.48 L253.71 1029.24 L253.39 1027.9 L252.57 1026.55 L250.71 1024.31 L250.05 1022.8 L249.65 1020.44 L249.32 1013.58 L248.52 1010.88 L245.78 1005.93 L245.27 1003.4 L245.57 1002.15 L246.86 999.5 L247.34 998.19 L247.69 995.46 L247.71 992.84 L247.4 990.93 L247.22 989.82 L246.08 988.11 L240.14 984.78 L238.81 983.71 L237.62 982.47 L236.85 981.18 L235.95 980.24 L233.13 979.44 L231.99 978.75 L231.58 977.76 L231.31 975.26 L230.77 974.15 L229.52 973.33 L226.76 972.88 L225.68 972.34 L224.44 970.22 L224.32 968 L224.47 965.64 L224.03 963.1 L223.1 961.67 L220.71 959.35 L219.75 958.01 L219.34 956.79 L218.93 952.99 L217.35 949.23 L217.09 948.11 L217.21 946.5 L217.66 945.34 L218.28 944.26 L218.79 942.86 L218.5 940.45 L216.84 938.07 L214.6 936.06 L212.53 934.78 L209.87 932.68 L209.28 930.21 L209.94 927.44 L210.99 924.51 L211.32 921.39 L210.95 918.64 L210.94 916.23 L212.38 914.16 L214.69 913.28 L219.45 912.74 L221.1 911.25 L221.2 911.17 L221.55 909.03 L221.05 906.49 L219.53 901.86 L219.45 900.19 L219.95 899.02 L220.65 897.98 L221.16 896.7 L221.16 895.5 L220.76 893.12 L221.39 886.94 L221.27 884.56 L216.95 865.37 L216.65 854.96 L217.05 852.14 L217.01 848.89 L216.32 847.8 L215.66 846.76 L211.75 842.96 L210.83 840.96 L209.46 835.03 L209.42 832.89 L209.7 831.39 L209.74 830.45 L209.48 829.63 L208.86 828.59 L208.31 828.21 L206.63 827.74 L205.99 827.41 L205.52 826.66 L204.91 824.8 L204.37 824.06 L200.59 821.21 L199.49 819.76 L198.27 817.03 L196.8 814.68 L192.97 810.03 L192.32 807.75 L192.05 804.92 L190.84 802.9 L188.72 801.54 L185.83 800.69 L183.25 799.54 L168.96 788.65 L166.23 785.74 L163.33 779.96 L162.17 779.79 L160.75 780.29 L158.92 780.22 L158.1 779.6 L156.56 777.55 L155.77 776.77 L154.89 776.36 L153.03 775.93 L152.19 775.59 L150.62 774.53 L149.62 773.54 L144.14 766.57 L135.76 749.3 L134.19 748.45 L132.71 747.86 L131.82 746.12 L131.16 743.1 L130.12 740.42 L128.54 737.96 L113.99 723.8 L107.47 713.35 L106.51 710.93 L106.92 709.12 L106.96 708.51 L106.57 707.71 L105.28 706.64 L104.91 705.98 L104.7 703.36 L104.85 698.88 L104.04 696.14 L101.65 691.85 L101.18 690.54 L101.19 689.9 L101.2 688.91 L101.73 687.72 L102.39 686.65 L102.77 685.37 L102.13 682.65 L102.1 682.62 L98.4 678.73 L97.48 675.78 L98.03 673.36 L100.53 668.99 L101.13 666.7 L100.4 664.95 L99.58 663 L99.58 662.98 L99.5 661.52 L103.17 661.7 L104.11 661.74 L106.21 660.75 L107.99 658.99 L112.25 652.86 L113.71 652.53 L116.45 652.98 L118.64 653.83 L122.76 656.36 L124.56 657.07 L125.41 656.82 L125.71 655.99 L125.71 654.1 L125.39 653.38 L124.66 652.81 L123.93 652.38 L123.63 652.05 L123.79 651.4 L124.08 650.78 L124.38 650.32 L124.52 650.19 L125.57 649.57 L126.23 648.89 L126.38 647.78 L125.88 645.66 L125.97 644.65 L126.76 644.1 L131.09 643.16 L133.02 642.41 L135.32 641.18 L137.79 642.26 L140.26 643.68 L142.04 645.65 L142.43 648.36 L145.61 644.7 L146.71 638.85 L146.48 632.55 L143.66 613.92 L143.9 606.77 L143.7 604.71 L143.24 600.1 L143.58 597.17 L147.35 584.57 L147.63 582.29 L146.74 577.03 L146.66 574.02 L148.11 569.14 L148.49 566.91 L147.66 564.41 L144.43 559.73 L144.05 558.06 L145.12 557.06 L146.54 557.25 L148.03 557.9 L149.25 558.28 L150.82 558.27 L151.84 558.14 L152.75 557.62 L154.08 556.5 L155.76 554.03 L156.51 551.53 L157.51 549.44 L160.03 548.2 L162.15 548.11 L169.53 549.08 L170.96 549.74 L171.65 550.62 L172.5 551.18 L174.35 550.92 L175.41 550.16 L178.25 547.02 L178.81 545.89 L178.72 542.98 L178.96 540.31 L179.73 537.84 L181.24 535.55 L184.62 531.56 L185.22 529.58 L185.8 523.89 L186.99 518.42 L186.89 516.14 L184.81 513.05 L182.02 511.24 L179.77 509.01 L179.31 504.73 L176.79 506.84 L175.8 508.85 L174.79 514.05 L173.17 517.03 L165.9 522.84 L162.3 528.28 L160.37 529.72 L158.06 528.06 L157.3 526.18 L155.55 517.14 L153.99 513.5 L153.84 512.13 L155.05 509.5 L155.24 508.18 L154.25 505.9 L146.88 496.04 L146.13 494.74 L146.11 493.39 L146.51 492.05 L146.56 490.9 L146.32 489.76 L145.81 488.48 L144.07 486.17 L139.87 483.26 L138.2 480.85 L137.35 477.41 L136.74 476 L133.17 473.2 L132.93 470.96 L133.88 468.56 L135.32 466.48 L137.09 465.96 L139.05 464.72 L140.5 463.16 L140.87 461.76 L139.98 460.75 L138.8 460.27 L137.72 459.62 L137.19 458.1 L137.49 456.31 L138.46 455.71 L139.83 456.08 L141.35 457.19 L140.32 453.6 L139.53 451.87 L138.4 451.09 L136.52 450.21 L136.07 448.36 L136.03 446.26 L135.32 444.6 L134.02 442.94 L131.97 438.82 L130.7 436.9 L128.5 434.69 L126.33 433.29 L123.9 432.58 L117.99 432.45 L115.9 431.8 L114.25 430.19 L112.64 427.34 L113.11 426.91 L113.73 425.77 L113.62 424.79 L110.48 424.78 L110.22 423.69 L110.78 422.25 L111.76 421.14 L109.02 419.24 L104.78 413.05 L102.46 411.16 L100.58 410.09 L90.27 400.2 L89.31 398.98 L89.05 397.34 L89.49 394.68 L89.56 393.13 L88.84 391.34 L87.41 390.42 L85.65 389.82 L84.02 388.97 L82.42 387.27 L81.59 385.53 L80.35 381.92 L77.68 377.7 L77.14 375.81 L76.07 374.58 L74.8 373.79 L71.95 372.44 L70.17 371.25 L67.06 368.34 L50.31 352.62 L49.15 351.07 L48.4 349.31 L48.24 347.7 L48.22 346.25 L47.98 344.95 L46.95 343.64 L44.03 341.17 L43.35 339.71 L42.79 338.01 L41.58 336.51 L40.07 335.25 L39.13 333.5 L41.89 333.12 L40.26 327.12 L41.02 325.24 L44.42 319.21 L47.73 316.97 L48.13 316.62 L48.52 315.94 L48.24 314.45 L47.69 312.97 L47.31 312.29 L46.8 311.65 L45.04 307.36 L44.67 305.82 L44.42 305.29 L42.78 304.5 L42.26 304.18 L41.73 304.32 L41.31 304.22 L41.13 303.13 L41.24 302.5 L41.77 301.29 L41.89 300.53 L41.62 299.14 L40.5 296.83 L40.23 295.34 L40.23 294.25 L40.11 293.5 L39.64 292.67 L33.45 284.02 L32.12 281.38 L32.45 280.18 L34.26 279.36 L35.17 277.4 L35.23 275.08 L34.48 273.18 L32.93 272.28 L26.8 269.78 L25.43 270.11 L25.2 270.39 L22.96 276.49 L22.44 277.46 L21.32 278.38 L18.88 276.95 L16.28 274.98 L13.87 272.53 L12.19 269.71 L11.49 266.58 L11.46 263.67 L11.05 260.86 L7.98 256.06 L5.21 250.22 L4.71 248.35 L3.34 245.94 L0.75 243.51 L0 242.08 L2.59 242.4 L3.46 242.51 L4.52 243.22 L6.99 247.14 L7.32 248.2 L7.86 249.09 L9.17 249.91 L10.45 250.09 L13.42 249.54 L19.05 249.69 L23.73 247.43 L32.12 241.83 L34.46 241.05 L40.83 241.23 L46.57 239.62 L47.16 239.78 L47.51 239.55 L48.24 238.1 L49.2 232.98 L48.34 227.81 L46.97 222.76 L46.37 217.99 L46.31 215.19 L45.94 212.91 L44.46 208.19 L44.34 207.14 L44.82 203.82 L44.31 202.2 L43.04 200.86 L40.12 198.66 L37.41 195.95 L36.92 194.43 L38.16 193.19 L40.68 191.36 L42.4 189.5 L43.26 187.52 L44.05 182.63 L45.35 180.24 L52.84 174.44 L54.54 172.48 L55.35 170.66 L55.88 160.66 L55.56 158.38 L54.68 155.97 L53.61 154.78 L50.4 152.15 L49.72 150.99 L50.2 149.62 L51.32 149.43 L52.69 149.54 L53.85 149.07 L54.79 146.56 L53.7 144.35 L52.02 141.96 L51.24 138.9 L51.06 137.62 L50.16 135.16 L50.08 134.24 L54.09 128.72 L58.09 125.15 L59.13 123.79 L59.92 121.92 L59.85 121.21 L59.39 120.57 L58.99 118.96 L58.74 116.41 L58.85 114.08 L59.91 112.5 L62.38 112.14 L64.39 111.84 L71.89 108.05 L72.86 107.17 L74.62 105.05 L75.68 104.1 L77 103.69 L78.17 103.72 L79.15 103.36 L79.78 101.74 L79.82 99.48 L78.83 94.85 L78.7 92.51 L80.31 84.13 L81.1 82.39 L83.65 81.79 L85.45 83.55 L86.93 85.68 L88.5 86.2 L91.57 85.7 L94.08 87.11 L98.87 91.53 L102.96 92.82 L103.84 93.3 L104.4 94.55 L104.25 97.18 L104.55 98.51 L106.77 100.09 L109.81 99.43 L115.18 96.85 L120.03 96.77 L125.67 97.32 L131.12 97.14 L135.32 94.89 L135.72 94.85 L137.04 94.71 L138.1 95.48 L139.01 96.66 L140.26 97.7 L142.32 98.66 L142.8 98.5 L142.97 97.63 L144.22 96.51 L146.62 95.57 L149.32 95.05 L150.24 94.41 L152.3 91.76 L153.31 90.77 L155.42 89.82 L166.12 88.24 L168.42 87.44 L175.48 81.93 L179.11 83.61 L180.79 84.81 L182.31 86.2 L184.62 89.75 L186.5 89.35 L190.81 86.17 L195.48 84.3 L197.15 82.85 L198.75 80.08 L199.69 76.89 L199.56 74.46 L198.96 72.06 L198.56 68.97 L198.81 67.67 L199.38 66.76 L199.95 66.09 L200.27 65.48 L200.18 64.29 L199.48 61.95 L199.34 60.69 L200.66 51.88 L203.03 47.5 L207.49 44.16 L212.79 42.03 L217.72 41.29 L220.05 41.52 L225.02 42.97 L227.13 43.96 L231.81 47.88 L234.26 49.13 L237.34 48.64 L251.82 44.11 L255.8 40.71 L257.37 39.02 L258.79 38.3 L259.93 37.54 L260.13 37.41 L261.36 35.21 L261.99 31.97 L261.16 29.92 L257.22 25.64 L255.87 18.16 L254.83 15.79 L250.4 11.1 L249.32 8.93 L251.65 8.08 L253.35 8.73 L259.23 12.83 L268.48 15.91 L269.64 15.97 L271.84 15.66 L273.1 15.76 L274.18 16.23 L276.02 17.5 L277.19 17.76 L279.51 17.34 L283.99 15.42 L286.48 14.97 L291.36 14.99 L293.48 14.26 L295.51 12.34 L296.59 10.25 L298.2 5.61 L299.57 3.62 L301.74 2.18 L304.41 1.27 L310.99 0.29 L311.55 0 L312.14 0.13 L313.39 1.12 L314.16 2.25 L314.44 3.49 L314.87 4.68 L316.03 5.68 L317.43 7.45 L318.73 7.91 L320.14 7.9 L321.89 8.26 L323.48 9.24 L324.26 10.31 L324.86 11.54 L325.81 12.96 L331.09 16.35 L330.84 20.79 L331.53 23.31 L333.17 25.31 L335.35 26.46 L337.5 26.45 L339.33 24.59 L339.26 19.59 L340.38 18.56 L340.75 18.32 L343.43 17.31 L344.09 17.21 L344.32 16.97 L345.71 12.34 L348.09 9.28 L351.68 6.84 L356.06 5.83 L360.61 7.08 L363.03 9.78 L369.92 25.04 L373.02 29.16 L373.6 30.17 L374.22 31.94 L374.67 32.67 L375.61 33.31 L377.64 34.21 L378.03 34.9 L378.93 35.99 L380.91 37.22 L382.89 37.93 L383.79 37.45 L384.42 35.75 L384.97 35.6 L385.23 36.87 L385.46 43.48 L384.59 48.6 L381.6 57.72 L378.48 65.9 L377.92 70.35 L377.44 72.43 L376.27 74.4 L375.23 75.11 L372.89 76.09 L371.95 76.72 L371.1 77.87 L369.79 81.43 L368.24 83.5 L365.33 87.4 L364.81 89.72 L365.37 91.47 L366.12 92.45 L367.38 94.08 L368.19 95.58 L368.58 97.59 L368.88 101.77 L369.59 103.97 L370.58 105.58 L373.04 108.65 L374.01 110.32 L374.42 112.45 L374.42 114.52 L374.78 116.41 L376.27 117.96 L378.38 119.3 L381.85 120.82 L385.31 121.85 L387.4 121.71 L388.38 120.08 L389.73 117.83 L392.26 115.92 L395.42 115.76 L405.24 119.56 L406.99 120.56 L408.06 121.78 L408.95 123.07 L409.85 123.4 L411.01 121.73 L416.53 116.48 L421.42 110.6 L422.89 108.03 L423.35 107.45 L424.5 106.71 L425.13 106.63 L425.83 106.77 L436.51 106.64 L439.92 107.01 L442.54 108 L447.83 111.29 L451.16 112.55 L454.63 112.83 L458.01 112.41 L460.92 111.59 L462.3 110.83 L463.39 110.04 L464.67 109.7 L466.72 110.25 L468.32 111.15 L469.28 112.16 L469.86 113.44 L470.32 115.12 L470.57 118.24 L469.94 121.86 L468.32 124.69 L465.55 125.45 L462.85 127.18 L461.03 131.73 L460.38 136.94 L461.11 140.74 L461.9 141.34 L463.95 141.76 L464.64 142.27 L465.07 143.33 L465.02 144.06 L464.82 144.71 L464.86 145.5 L467.31 156.17 L466.93 163.65 L467.22 166.66 L468.01 168.63 L469.43 170.2 L474.69 174.89 L477.91 178.57 L478.94 182.34 L473.82 187.32 L472.99 189.16 L471.82 193.31 L470.61 195.22 L467.68 198.63 L466.71 200.91 L466.52 203.37 L467.16 210.99 L466.6 213.16 L464.82 217.26 L464.41 219.33 L465.07 221.64 L467.9 224.49 L468.54 226.51 L467.89 228.44 L466.35 230.53 L463 233.74 L461.94 234.28 L459.82 235.06 L459 235.9 L458.67 237.15 L458.78 239.98 L458.33 241.37 L456.73 242.95 L449 247.26 L448.5 247.85 L448.28 249.13 L447.41 251.58 L443.9 255.21 L443.26 257.75 L444.07 259.96 L445.76 262.24 L448.54 264.89 L449.53 265.83 L457.15 269.38 L458.34 271.07 L457.98 271.9 L455.93 274.18 L455.29 275.1 L455.03 276.4 L455.08 280.86 L455.48 281.74 L456.44 284.29 L457.15 285.02 L458.02 285.51 L458.8 286.15 L459.23 287.26 L458.95 289.26 L457.16 294.03 L456.67 296.31 L457.08 298.74 L459.14 303.47 L459.51 305.25 L458.59 306.89 L454.72 309.31 L453.14 310.58 L451.05 314 L449.49 317.29 L447.58 320.38 L444.41 323.16 L440.61 325.29 L439.71 326.61 L439.26 329.16 L439.64 333.48 L438.98 335.1 L436.51 336.17 L435.64 336.86 L435.42 337.64 L435.72 338.48 L436.51 339.37 L436.62 339.63 L436.66 339.9 L436.62 340.17 L436.51 340.44 L435.38 341.06 L434.62 341.88 L434.36 342.92 L434.64 344.2 L434.88 346.76 L434.3 349.04 L434.05 350.02 L431.53 355.74 L427.5 360.49 L425.83 363.16 L425.88 365.95 L427.8 367.45 L432.11 368.26 L437.38 369.26 L439.71 370.44 L441.9 371.91 L443.88 373.68 L445.55 375.81 L447.58 376.26 L451.18 378.4 L454.63 379.83 L455.14 380.18 L455.55 380.11 L456.7 379.42 L457.35 378.75 L459.4 375.81 L459.7 373.93 L460.93 373.2 L462.54 372.91 L463.97 372.35 L464.74 371.32 L467.16 366.62 L469.38 363.63 L482.66 352.64 L484.18 352.12 L485.09 352.19 L485.85 351.9 L488 349.15 L488.18 348.79 L488.29 348.02 L487.66 347.82 L486.4 347.74 L485.63 347.37 L486.36 346.28 L488.03 345.72 L489.85 345.9 L491.67 345.74 L493.26 344.2 L493.81 343.76 L494.25 343.54 L494.56 343.64 L494.72 344.2 L494.93 345 L496.04 347.42 L496.29 347.13 L496.75 346.12 L497.33 345.19 L497.81 344.2 L500.18 341.72 L504.26 339.98 L506.63 338.33 L503.96 336.13 L505.34 335.61 L507.57 334.77 L508.35 333.68 L508.9 332.3 L509.2 330.64 L509.2 328.72 L511.95 330.46 L513.25 329.05 L514.3 326.63 L516.27 325.34 L527.46 323.14 L527.88 320.63 L530.81 312.29 L531.88 306.91 L532.86 304.6 L534.85 302.69 L535.6 302.69 L536.73 304.11 L541.45 305.41 L546.1 308.11 L548.57 307.31 L566.79 287.64 L568.69 285.59 L569.56 284.91 L573.04 285.1 L578.6 285.38 L580.82 286.63 L581.59 288.44 L582.04 290.57 L583.18 292.74 L586.82 295.34 L587.28 295.77 L588.19 296.28 L591.01 300.1 L597.05 305.5 L600.65 307.32 L604.25 307.1 L606.51 309.98 L609.77 312.75 L613.78 314.83 L618.18 315.67 L628.48 315.71 L632.34 317.69 L633.88 322.75 L631.86 331 L631.82 332.17 L633.53 332.66 L639.72 335.71 L642.38 336.07 L642.38 335.14 L641.23 333.32 L640.54 331 L641.19 329.07 L642.84 328.03 L647.11 326.99 L648.94 325.89 L653.37 321.8 L660.33 317.96 L661.07 316.61 L662.84 315.56 L673.19 310.89 L675.16 310.48 L677.32 311.04 L681.05 313.47 L683.05 314.02 L685.16 313.2 L686.54 311.38 L687.61 309.58 L688.81 308.75 L689.39 307.52 L688.39 300.1 L688.58 297.79 L689.18 296.1 L690.22 294.93 L691.15 294.44 L691.69 294.16 L691.76 294.12 L691.5 294.67 L691.44 294.76 L691.36 294.88 L691.32 294.93 L693.85 294.04 L695.85 292.77 L697.29 290.89 L698.07 288.19 L698.77 283.94 L699.54 281.97 L700.85 280.35 L701.88 279.71 L702.9 279.34 L706.48 278.76 L709.11 277.79 L713.54 277.01 L715.09 276.47 L716.18 275.53 L716.31 274.37 L715.58 273.33 L710.55 269.84 L709.53 269.41 L709.27 268.7 L708.94 268.23 L708.74 267.72 L708.78 266.9 L709.99 263.81 L712.01 261.26 L714.63 259.31 L717.56 258.02 L727.17 256.02 L728.39 256.03 L734.99 258.07 L737.21 258.49 L737.79 258.47 L739.52 258.18 L740.56 258.27 L743.62 259.04 L746.71 259.33 L753.74 261.23 L755.45 262.46 L756.49 263.41 L757.53 264.08 L764.39 267.22 L766.03 267.67 L773.02 268.05 L775.12 268.41 L777.15 269.12 L779.06 270.13 L780.84 271.36 L782.06 272.82 L782.88 274.44 L783.94 275.69 L785.89 276.11 L786.77 275.96 L787.33 275.63 L787.76 275.1 L788.27 274.33 L790.23 272.03 L792.56 270.48 L795.2 269.79 L798.12 270.09 L801.08 271.64 L803.32 274.09 L809.32 284.71 L814.44 297.5 L815.82 299.94 L817.42 301.92 L824.95 308.78 L825.57 309.65 L826.48 310.93 L831.81 322.79 L832.92 326.63 L833.64 327.97 L834.6 329.16 L835.05 329.56 L835.72 330.16 L843.56 334.89 L845.39 337.27 L848.1 342.76 L849.86 344.94 L850.34 345.73 L850.67 346.53 L851.42 349.03 L851.96 350.02 L855.54 354.3 L859.05 357.53 L877.75 367.38 L880.01 368.19 L885.73 371.82 L887.17 373.34 L889.54 376.93 L891.4 380.56 L892.26 381.6 L893.21 382.29 L895.25 383.45 L896.13 384.25 L896.59 384.94 L899.44 391.34 L899.79 392.82 L899.87 394.35 L899.44 400.52 L899.67 408.07 L899.21 413.89 L898.66 416.72 L890.88 435.23 L890.28 438.03 L891 445.47 L891.4 449.59 L891.8 450.97 L892.99 453.58 L893.42 454.96 L893.5 456.47 L893.27 457.92 L892.46 460.78 L892.39 461.16 L892.2 462.3 L892.26 463.73 L894.86 474.13 L894.94 475.51 L894.76 476.87 L893.09 481.56 L891.8 486.84 L891.25 492.23 L891.38 495.07 L891.98 497.63 L893.27 499.84 L895.38 501.63 L902.15 505.32 L904.15 507.04 L905.77 509 L907.04 511.09 L908.04 513.34 L909.16 517.25 L909.71 518.54 L910.48 519.69 L911.6 520.67 L914.82 522.52 L915.79 523.32 L918.13 525.84 L919.07 526.56 L920.12 527.14 L922.46 528.45 L923.43 529.31 L924.74 531.7 L925.15 534.42 L925.04 540.01 L925.49 543.29 L926.68 546.28 L928.56 548.82 L931.12 550.8 L934.45 552 L950.15 557.65 L951.37 557.86 L956.33 558.08 L970.35 561.66 L971.5 562.11 L972.42 562.78 L972.56 563.39 L972.64 563.75 L971.94 564.68 L970.65 565.41 L968.13 566.43 L965.24 569.68 L965.01 574.12 L966.45 578.79 L971.21 589.1 L972.53 591.09 L974.05 592.62 L975.54 593.47 L977.27 593.73 L982.22 593.31 L984.87 593.65 L990.06 595.41 L995.41 598.91 L998.79 603.85 L1000 609.78 L998.78 616.19 L995.82 623.95 L995.31 626.68 L995.11 631.97 L994.37 634.21 L992.92 635.67 L992.45 636.14 L988.17 638.86 L982.55 640.66 L980.15 642.25 L979.09 645.01 L979.8 647.3 L981.69 648.53 L984.14 648.98 L986.45 648.92 L988.8 648.47 L989.22 649 L989.61 651.68 L989.51 655.04 L989.07 655.24 L985.61 657.49 L982.28 660.22 L977.36 665.42 L976.31 667.15 L975.51 669.68 L975.03 672.36 L975.01 675.16 L976.02 677.23 L978.66 677.75 L981.6 680.8 L982.24 680.96 L983.8 680.68 L984.32 680.8 L984.6 681.42 L984.56 682.81 L984.73 683.32 L988.26 688.39 L989.78 689.56 L989.8 689.56 L989.81 689.56 L993.02 690.2 L991.87 691.85 L987.1 694.91 L985.92 697.28 L987.91 701.24 L986.99 704.01 L986.34 704.27 L984.45 704.18 L983.95 704.31 L983.72 705.06 L983.85 706.94 L984.71 708.69 L984.75 709.35 L984.22 709.82 L982.55 710.2 L981.99 710.58 L981.07 712.87 L980.5 715.69 L980.69 718.5 L981.99 720.73 L982.42 721.92 L981.49 727.64 L981.3 731.45 L983.03 739.7 L982.72 743.38 L981.26 746.73 L977.43 751.85 L974.62 754.42 L973.84 755.34 L973.24 756.56 L972.21 759.41 L971.68 760.29 L970.44 760.93 L967.26 761.53 L965.86 761.99 L964.9 762.77 L962.63 765.03 L961.94 765.57 L960.39 765.49 L958.27 764.02 L957.08 763.91 L956.23 764.63 L954.78 767.27 L953.92 768.23 L951.74 769.12 L945.44 770.61 L943.77 770.54 L940.24 772.44 L937.49 778.63 L933.78 784.87 L927.26 786.91 L924.62 785.63 L922.49 783.21 L918.66 776.09 L918.47 775.03 L919.03 769.4 L919 767.71 L918.41 766.2 L916.16 765.5 L911.4 764.64 L909.29 764.26 L908.34 763.77 L906.41 762.48 L905.48 762.08 L904.38 762.04 L902.1 762.37 L901.25 762.33 L899.28 761.33 L897.69 760.05 L896.05 759.04 L894.05 758.83 L892.4 759.68 L888.78 762.56 L886.97 762.94 L886.16 762.27 L885.54 760.05 L884.56 759.57 L883.57 759.99 L882.37 761.97 L881.61 762.6 L879.56 762.69 L876.57 761.4 L874.63 761.44 L872.72 762.55 L871.38 764.32 L870.22 766.21 L868.88 767.72 L866.48 768.72 L864.51 768.33 L862.62 767.46 L860.43 767.03 L859.15 767.38 L858.18 768.06 L857.4 768.76 L856.74 769.13 L856.32 769.14 L855.61 769.15 L854.81 768.93 L853.99 768.59 L840.28 766.58 L833.76 763.91 L830.89 763.66 L829.07 764.65 L827.48 765.93 L825.33 766.53 L823.87 766 L823.18 764.86 L823.07 763.75 L823.44 763.3 L822.41 763.27 L822.14 763.63 L821.95 764.29 L818.96 767.57 L818.05 768.02 L816.54 767.98 L815.69 767.34 L815.07 766.6 L814.35 766.23 L809.96 767.43 L806.58 769.11 L806.5 769.15 L805.41 769.69 L801.24 770.63 L797.94 767.86 L791.42 768.2 L790.3 769.24 L789.99 770.22 L789.36 770.96 L787.24 771.21 L785.45 770.85 L784.11 770.06 L782.91 769.13 L781.61 768.35 L779.87 767.77 L778.85 767.78 L777.86 768.02 L776.28 768.17 L773.99 767.9 L766.92 766.09 L762.79 765.81 L761.9 765.48 L761.52 764.34 L761.78 761.39 L761.49 760.12 L760.76 759.32 L759.77 758.67 L758.57 758.32 L757.35 758.41 L756.19 759.09 L755.83 759.99 L755.64 761 L754.9 761.99 L752.41 763.25 L750.66 762.87 L749.04 761.81 L746.89 761.08 L744.86 761.42 L740.21 763.8 L735.65 766.98 L734.77 767.33 L733.51 767.17 L732.58 766.59 L731.94 765.97 L731.49 765.68 L729.76 766.18 L726.4 768.64 L724.31 769.58 L721.72 769.9 L713.56 769.88 L709.9 771.02 L704.51 772.69 L697.24 773.78 L694.81 774.59 L690.83 776.75 L682.63 783.83 L681.17 785.09 L679.12 786.3 L674.67 787.59 L672.64 788.54 L670.78 790.47 L670.23 792.47 L670.22 793.02 L670.19 794.66 L669.9 797.1 L669.03 799.1 L666.52 802.71 L665.67 804.65 L665.27 807.5 L665.33 809.36 L664.9 810.95 L663.12 813.01 L656.18 818.48 L653.22 821.45 L650.99 825.41 L648.92 832.18 L647.95 834.34 L645.8 837.04 L645.22 838.09 L644.92 839.35 L644.76 841.91 L644.27 843.07 L641.42 845.54 L629.31 851.5 L625.45 854.49 L625.29 857.11 L627.87 859.66 L632.12 862.46 L629.93 863.08 L624.26 866.38 L621.93 867.21 L614.59 867.83 L604.84 866.99 L600.13 867.52 L597.86 870.45 L598.02 871.77 L599.32 873.87 L599.79 874.99 L599.87 875.98 L599.8 877.44 L599.79 877.78 L600.3 887.14 L599.51 894.68 L599.64 903.38 L599.76 903.69 L606.13 920.52 L608.52 924.68 L613.99 931.14 L615.91 935.04 L617.11 936.66 L619.16 937.91 L619.15 938.02 L619.11 938.66 L618.73 939.3 L618.1 939.83 L617.22 940.27 L616.59 940.71 L616.39 941.2 L616.62 941.72 L617.64 942.7 L617.8 943.16 L617.64 943.61 L616.28 945.1 L616.11 946.38 L616.47 947.77 L617.22 949.14 L617.84 952 L618.34 956.73 L619.11 959.29 L619.8 960.58 L620.4 961.34 L620.86 962.18 L621.14 963.69 L621.01 964.89 L619.77 968.8 L619.76 968.81 L618.26 970.15 L617.69 972.07 L617.53 974.69 L617.84 977.32 L618.7 979.29 L619.85 980.16 L620.56 980.7 L627.41 982.99 L631.01 985.63 L640.2 994.97 L643.2 996.76 L644.05 997.57 L644.5 998.59 L644.7 1000.65 L645.02 1001.62 L646.66 1003.4 L650.54 1005.48 L651.92 1007.08 L652.12 1008.41 L652.29 1009.51 L651.25 1011.25 L648.13 1013.99 L646.86 1016.31 L646.25 1018.66 L643.5 1038.84 L644.44 1043.74 L650.61 1053.33 L652.27 1055.35 L653 1056.24 L654.94 1060.51 L656.14 1066.63 L661.67 1077.33 L666.75 1084.52 L670.2 1089.71 L671.56 1094.6 L672.01 1101.62 Z M62.71 1382.17 L58.87 1379.15 L58.3 1378.21 L58.6 1377.32 L59.3 1376.63 L60.18 1376.21 L60.95 1376.17 L62.29 1377.19 L63.05 1378.98 L63.23 1380.87 Z M282.83 1362.31 L283.39 1364.86 L280.75 1365.89 L279.14 1365.12 Z M281.08 1352.8 L280.62 1353.75 L280.34 1353.97 L280.18 1353.46 L280 1352.26 L280.35 1352.3 L280.59 1352.49 L280.79 1352.7 Z M228.49 1723.44 L229.99 1724.54 L229.67 1725.13 L228.44 1725.61 L224.82 1728.04 L222.11 1728.51 L219.6 1727.79 L217.73 1725.93 L219.9 1726.43 L221.05 1725.32 L222.2 1723.88 L224.39 1723.44 L223.49 1723.44 L227.46 1723.21 Z M279.65 1730.52 L279.62 1731.64 L279.41 1732.35 L278.91 1732.88 L278 1733.45 L276.57 1731.35 L275.04 1726.21 L270.96 1722.4 L271.29 1720.76 L272.61 1719.32 L273.8 1717.64 L274.06 1716.42 L273.77 1714.2 L273.8 1713.43 L274.45 1712.67 L275.31 1712.28 L276.04 1711.74 L276.35 1710.56 L276.53 1708.34 L277.03 1706.11 L277.8 1705.37 L280.63 1711.55 L280.6 1717.48 L282.5 1721.92 L283.51 1725.45 L283.37 1727.14 L282.94 1728.49 L282.09 1729.11 L281 1729.27 L280.06 1729.54 Z M247.49 1639.52 L249.13 1640.7 L252.35 1641.39 L253.32 1642.84 L251.72 1642.69 L250.23 1642.84 L248.91 1643.28 L247.9 1644 L246.14 1646.91 L244.82 1648.29 L244.2 1647.35 L244.15 1641.22 L245.09 1638.39 Z M202.84 1593.59 L206.55 1597.14 L207.78 1597.89 L207.79 1602.23 L209.01 1606.69 L210.85 1610.69 L212.79 1613.66 L210.68 1615.11 L207.93 1613.52 L205.52 1610.64 L202.4 1603.6 L202.02 1602.41 L202.14 1598.22 L201.9 1596.19 L201.13 1594.49 L201.43 1594.22 L201.58 1594.13 L201.73 1594 L202.02 1593.59 Z M213.61 1592 L213.99 1593.58 L213.99 1595.91 L213.58 1598.14 L212.79 1599.47 L211.74 1599.68 L210.67 1599.38 L209.84 1598.82 L209.5 1598.26 L209.2 1597.51 L208.5 1597.03 L207.7 1596.65 L207.02 1596.23 L204.01 1591.27 L206.72 1589.83 L211.23 1590.54 Z M143.28 1537.56 L143.26 1537.48 L148.87 1540.68 L150.73 1542.61 L151.69 1546.1 L151.87 1559.32 L150.87 1562.04 L149.02 1561.89 L147.71 1560.11 L146.92 1557.71 L146.53 1554.79 L145.96 1552.99 L146.01 1551.99 L146.59 1551.14 L147.38 1551.04 L148.08 1550.8 L148.39 1549.5 L148.31 1548.46 L147.98 1547.34 L147.36 1546.46 L146.34 1546.1 L145 1545.83 L144.55 1545.15 L144.39 1544.23 L142.84 1541.67 L142.13 1539.55 L141.79 1537.3 L141.83 1535.3 L142.36 1535.79 L142.77 1536.32 Z M128.59 1562.04 L128.98 1561.47 L129.72 1560.88 L130.16 1560.37 L131.12 1562.26 L131.14 1564.12 L130.18 1565.54 L126.3 1566.8 L125.78 1568.52 L126.12 1572.83 L121.8 1570.71 L119.59 1570.65 L118.65 1573.29 L118.21 1576.37 L117.08 1578.19 L115.39 1578.58 L113.31 1577.39 L112.68 1575.67 L112.06 1567.85 L111.61 1566.94 L111.04 1566.06 L110.57 1565.03 L110.41 1563.7 L110.92 1563.29 L111.89 1562.87 L112.53 1562.04 L112.06 1560.37 L111.37 1559.93 L109.23 1559.28 L108.77 1559.05 L109.31 1557.84 L110.39 1556.87 L111.17 1555.96 L110.86 1554.94 L110.19 1553.52 L110.68 1552.28 L111.6 1551.11 L112.06 1549.95 L111.94 1548.6 L111.42 1546.21 L111.21 1541.89 L111.3 1541.12 L111.6 1540.21 L112.53 1538.3 L112.88 1537.04 L113.12 1534.5 L112.96 1531.86 L112.06 1526.99 L112.61 1527.07 L112.98 1527.24 L113.77 1527.82 L114.64 1527.44 L115.68 1527.75 L116.8 1528.53 L117.92 1529.58 L118.6 1531.29 L119.54 1537.04 L120.27 1537.04 L121.54 1535.87 L123.18 1536.83 L125.04 1538.71 L127.01 1540.29 L127.89 1538.85 L129.07 1538.24 L130.22 1538.66 L131.06 1540.29 L130.98 1542.33 L130.19 1544.27 L128.59 1547.01 L128.48 1548 L128.74 1550.2 L128.59 1551.16 L128.07 1551.68 L127.33 1552.07 L126.61 1552.64 L126.12 1553.66 L126.04 1555.8 L126.53 1558.14 L127.42 1560.34 Z M154.96 1529.48 L153.02 1537.85 L152.95 1539.38 L148.95 1537.95 L147.98 1537.41 L146.84 1535.86 L147.39 1535.12 L150.04 1534.47 L149.51 1532.46 L150.66 1530.67 L152.36 1528.89 L153.34 1526.99 L154.31 1527.23 L154.75 1527.75 L154.91 1528.5 Z M113.77 1410.79 L115.24 1412.27 L116.39 1414.21 L117.04 1416.55 L117.07 1419.2 L114.54 1421.77 L115.42 1422.53 L113.63 1423.43 L111.18 1424.11 L108.78 1424.01 L107.12 1422.53 L107.07 1420.85 L108.08 1411.01 L108.06 1410.19 L108.37 1409.71 L109.59 1409.2 L111.08 1408.98 L112.15 1409.38 Z M327.58 1356.91 L328.26 1357.07 L329.48 1358.36 L330.05 1360.02 L328.77 1361.36 L327.77 1364.82 L327.39 1368.71 L326.46 1371.88 L322.98 1373.55 L322.69 1374.36 L322.6 1375.32 L322.24 1376.12 L321.45 1376.54 L320.52 1376.57 L319.56 1376.48 L313.86 1377.04 L312.69 1377.46 L311.99 1375.1 L311.5 1370.57 L310.24 1368.2 L312.04 1366.01 L311.85 1363.77 L310.83 1361.53 L310.24 1359.4 L311.45 1357.97 L314.24 1357.6 L317.28 1357.81 L324.39 1359.63 L326.64 1359.23 Z M127.74 1334.67 L128.49 1337.27 L128.35 1338.93 L126.12 1342.26 L124.53 1339.61 L125.1 1337.84 L126.6 1336.2 L127.74 1333.91 Z M323.39 1331.34 L327.22 1333.78 L328.68 1337.84 L329.98 1347.27 L328.6 1346.22 L325.64 1344.52 L319.03 1341.76 L317.63 1340.59 L318.32 1339.15 L317.91 1337.78 L315.58 1335.13 L315.6 1334.32 L317.14 1331.78 L317.63 1330.58 L318.87 1331.13 L320.07 1331.24 L322.27 1331.07 Z M628.07 1096.79 L631.14 1096.54 L633.11 1099.68 L633.38 1104.13 L631.38 1107.79 L631.38 1108.63 L633.08 1108.63 L632.05 1110.25 L631.74 1111.44 L632.19 1114.58 L631.38 1114.58 L630.55 1113.91 L629.62 1111.91 L628.97 1111.15 L627.84 1110.61 L623.96 1109.47 L624.91 1108.13 L625.46 1107.53 L625.67 1106.87 L625.61 1105.34 L625.26 1104.18 L624.07 1101.42 L623.96 1100.22 L626.35 1091.33 L626.99 1090.41 L628.07 1090.99 L628.58 1092.35 L628.88 1093.73 L628.78 1095.19 Z M608.25 1055.52 L609.08 1056.36 L610.34 1058.65 L612.17 1060.79 L613.49 1062.84 L613.26 1064.85 L611.61 1065.6 L609.62 1064.35 L605.78 1060.49 L605.4 1061.93 L605.64 1063.34 L605.42 1064.42 L603.73 1064.85 L602.17 1064.67 L597.56 1063.16 L597.56 1063.94 L597.91 1064.36 L598.46 1065.62 L597.72 1065.01 L597.02 1064.56 L596.18 1064.23 L595.09 1063.94 L595.09 1063.16 L595.54 1061.49 L595.55 1053.84 L594.4 1052.6 L590.99 1044.59 L592.63 1044.59 L592.14 1043.72 L591.63 1043.04 L590.99 1042.48 L590.16 1041.98 L592.18 1042.06 L595.43 1042.92 L597.56 1042.83 L601.4 1045.61 L602.9 1047.12 L604.22 1048.79 L605.66 1051.99 L606.68 1053.65 L608.25 1054.76 Z M62.48 1376.6 L60.03 1374.53 L60.47 1372.18 L62.71 1370.76 L65.53 1371.45 L66.03 1372.21 L66.12 1373.2 L65.88 1374.19 L65.47 1374.95 L64.53 1375.01 L63.35 1374.54 L62.47 1374.7 Z M112.9 1427.96 L114.18 1428.82 L115.61 1431.16 L115.14 1433.64 L113.57 1436.47 L110.74 1443.48 L109.66 1443.31 L108.64 1440.96 L108.39 1438.45 L108.96 1435.85 L108.98 1432.6 L108.54 1428.87 L109.59 1426.92 L111.8 1427.36 Z "/>
</g>
</svg>
