<svg xmlns="http://www.w3.org/2000/svg" viewBox="0 0 1000 421.11">
<g fill="#ccc" stroke="#333" stroke-width="0.5" stroke-linejoin="round">
<path fill-rule="evenodd" d="M128.07 322.01 L128.37 328.3 L123.84 345.36 L122.37 356.14 L121.19 358.82 L120.23 360.07 L119.05 361.12 L113.2 368.81 L104.11 376.59 L101.3 378.12 L99.91 378.19 L98.84 378.79 L96.81 382.02 L96.06 391.14 L94.94 393.5 L92 397.71 L90.94 400.04 L91 402.15 L92.39 407.51 L92.07 410.42 L89.4 414.66 L85.29 417.25 L80.11 418.59 L74.26 419.16 L70.53 420.09 L69.28 421.11 L69 420.53 L68.02 416.54 L68.02 414.72 L69.09 409.27 L69.28 406.97 L68.21 401.8 L66.04 396.5 L63.08 391.46 L59.62 387.25 L55.02 383.32 L50.99 381.57 L46.78 381.79 L41.79 383.87 L37.69 387.34 L31.59 395.8 L27.73 398.16 L18.35 396.5 L9.94 389.19 L0 371.94 L5.58 370.41 L30.19 360.51 L35.54 359.88 L39.39 357.9 L46.08 348.3 L48.95 345.14 L58.22 340.82 L78.5 334.54 L108.34 328.84 L111.71 327.03 L114.29 323.59 L120.34 322.44 L127.97 322.04 Z M270.91 254.72 L281.36 248.74 L287.75 242.42 L302.5 219.89 L303.84 215.15 L306.66 212.42 L320.32 207.35 L324.81 203.49 L326 198.07 L327.86 170.48 L330.46 163.46 L334.4 157.2 L339.38 152.83 L345.48 150.78 L359.43 148.62 L365.26 145.46 L367.71 144.86 L378.87 146.52 L382.29 145.56 L391.31 140.2 L411.49 134.36 L417.61 133.68 L437.66 135.03 L443.91 133.68 L460.37 126.21 L467.8 125.31 L475.68 127.61 L479.25 127.41 L487.58 118.99 L493.18 121.45 L502.21 121.7 L518.74 118.99 L554.51 107.36 L568.86 106.54 L600.68 112.18 L612.88 118.14 L621.06 118.99 L627.75 117.64 L640.67 113.58 L643.22 113.23 L647.23 112.68 L660.94 112.48 L673.19 110.75 L679.48 107.59 L692.92 98.04 L702.63 95.23 L712.75 89.55 L716.12 88.97 L722.19 88.87 L725.39 87.44 L730.89 91.48 L737.36 94.08 L744.37 95.56 L751.49 96.04 L755.95 97.59 L767.18 108.27 L779.74 104.01 L803.12 92.93 L811.12 90.75 L816.9 86.67 L819.38 85.51 L822.75 85.49 L827.93 87.12 L830.14 87.44 L843.47 84.66 L856.51 78.8 L887.72 56.5 L894.56 53.54 L899.69 54.75 L904.37 58.2 L925.79 68.5 L931.66 70.08 L939.2 70.78 L946.61 70.08 L951.96 67.45 L961.33 60.76 L963.41 59.93 L967.36 60.81 L968.84 62.79 L969.66 65.49 L971.72 68.5 L978.16 72.38 L991.97 76.14 L997.79 80.08 L1000 86.24 L996.95 91.5 L974.69 108.22 L960.74 122.3 L932.8 144.11 L913.12 163.31 L911.04 166.47 L907.42 166.77 L886.08 171.54 L866.47 185.81 L857.75 190.14 L811.45 193.51 L804.8 195.11 L801.23 196.82 L792.31 203.49 L790.08 204.47 L787.48 205.04 L780.79 205.39 L777.66 206.57 L765.74 220.27 L754.68 239.26 L743.9 248.79 L731.04 252.46 L650.53 262.85 L642.03 266.41 L637.15 268.44 L614.49 284.1 L583.9 305.21 L578.23 307.02 L560.31 304.26 L554.28 304.74 L550.89 306.55 L544.24 312.14 L540.68 313.35 L528.03 313.35 L521.64 314.96 L502.11 325.98 L496.51 326.13 L481.04 323.87 L476.06 324.92 L469.83 329.9 L463.59 333.44 L444.06 340.72 L410.79 353.12 L399.84 359.88 L384.15 373.02 L375.74 376.69 L372.03 381.06 L366.37 389.6 L363.05 393.27 L359.73 395.91 L355.32 397.49 L341.09 398.54 L335.19 400.28 L330.04 403.57 L324.81 408.75 L314.2 416.33 L310.94 397.48 L309.53 392.9 L302.67 382.05 L302.37 379.88 L302.99 375.03 L302.56 373.05 L300.88 371.01 L294.42 366.96 L287.15 360.42 L285.07 356.94 L283.3 351.58 L281.45 340.93 L282.62 331.81 L287.65 325.62 L297.63 323.84 L303.87 323.9 L305.94 324.47 L308.05 326.04 L311.69 330.18 L313.61 331.36 L317.95 331.62 L320.58 329.83 L323.29 327.12 L328.01 324.57 L331.35 324.28 L338.84 324.76 L341.31 323.61 L342.3 320.65 L341.93 319.12 L341.48 317.33 L340.19 314.08 L339.6 311.21 L344.77 291.82 L344.88 285.13 L342.33 279.01 L337.9 274.07 L332.39 270.09 L326.66 266.83 L324.45 264.83 L323.31 262.91 L321.87 262.18 L318.72 263.58 L317.67 265.34 L316.32 271.33 L315.33 273.59 L311.22 277.23 L296.78 283.57 L289.01 288.64 L285.04 290.26 L279.55 290.65 L275.03 289.4 L271.46 286.63 L268.92 282.71 L267.38 277.99 L267.76 272.7 L271.82 262.21 Z M468.84 18.88 L472.16 13.52 L479.75 5.53 L488.08 0 L493.6 2.4 L491 12.22 L479.25 41.17 L477.17 50.54 L475.83 53.02 L473.01 55.2 L470.13 56.1 L468.84 54.75 L466.84 53.59 L457.02 50.61 L453.08 48.36 L449.88 44.73 L448.84 41.77 L449.66 38.77 L452.04 34.68 L455.83 31 L466.61 22.81 Z "/>
</g>
</svg>
