<svg xmlns="http://www.w3.org/2000/svg" viewBox="0 0 1000 2614.21">
<g fill="#ccc" stroke="#333" stroke-width="0.5" stroke-linejoin="round">
<path fill-rule="evenodd" d="M0 0 L26.2 5.4 L52.86 10.89 L115.83 23.84 L232.83 47.88 L277.6 57.09 L335 68.91 L336.11 69.66 L336.8 70.84 L337.06 72.49 L336.37 74.82 L336 76.99 L335.26 79.12 L333.46 81.21 L341.73 83.3 L335.53 105.49 L399.66 82.84 L431.85 76.59 L481.24 75.63 L547.91 74.38 L534.76 106.57 L533.27 116.96 L534.49 122.59 L538.79 133.2 L539.53 138.86 L531.52 154.27 L530.51 159.86 L529.72 171.79 L528.13 177.16 L521.5 186.78 L493.6 213.53 L486.22 230.99 L490.31 278.04 L489.94 298.45 L482.4 327.53 L475.24 381.28 L475.67 393.28 L479.8 401.14 L518.63 427.19 L567.43 459.87 L596.99 479.67 L640.68 508.93 L714.2 558.13 L768.36 594.4 L774.94 612.13 L775 616.14 L775.57 654.51 L776.53 711.43 L777.16 751.87 L781.2 776.18 L780.45 782.51 L779.23 787.69 L779.39 798.14 L778.76 803.46 L775.57 810.06 L766.45 824.15 L764.33 830.92 L765.97 841.51 L771.17 854.23 L778.76 862.02 L787.56 857.7 L793.45 872.46 L796.95 925.18 L804.38 945.92 L814.11 960.97 L816.74 965.04 L857.74 1008.22 L889.62 1041.87 L900.17 1060.5 L904.26 1073.01 L907.01 1087.19 L907.86 1152.21 L908.61 1208.92 L909.24 1257.08 L910.11 1326.58 L910.3 1342.07 L911.05 1348.19 L913.65 1354 L926.91 1370.88 L929.08 1375.95 L927.17 1385.12 L910.3 1413.11 L909.51 1417.51 L909.51 1426.51 L906.96 1439.17 L908.44 1441.32 L911.47 1442.36 L914.07 1447.14 L919.53 1491.64 L918.63 1551.06 L917.36 1633.64 L917.68 1715.66 L918.1 1818.33 L918.14 1827.44 L918.35 1872.01 L918.58 1922.88 L918.9 2000.14 L919.21 2075.24 L919.59 2151.19 L910.25 2153.97 L871.48 2153.7 L881.45 2190.44 L887.23 2199.01 L888.05 2199.63 L895.66 2205.34 L900.28 2210.93 L901.34 2218.11 L897.47 2239.82 L897.79 2248.65 L900.01 2257.55 L903.94 2268.13 L906.96 2280.6 L904.89 2288.6 L900.86 2294.03 L893.22 2304.3 L888.98 2315.89 L892.27 2321.7 L898.9 2327.11 L904.52 2337.45 L904.63 2341.47 L903.73 2345.8 L903.41 2350.56 L905.05 2355.85 L908.13 2360.1 L912.16 2364.18 L916.46 2367.64 L920.49 2370.04 L925.31 2370.6 L930.35 2370.12 L934.07 2371.43 L934.76 2377.34 L936.08 2380.93 L944.62 2387.99 L947.86 2392.4 L948.49 2397.59 L947.22 2408.67 L948.34 2413.18 L951.73 2415.97 L962.76 2421.67 L967.17 2424.98 L980.37 2446.29 L990.35 2485.07 L1000 2522.96 L989.34 2523.6 L923.41 2539.26 L912.8 2544.9 L916.49 2555.68 L916.33 2555.72 L818.93 2572.17 L737.57 2597.06 L700.89 2613.16 L696.8 2613.5 L693.63 2614.21 L694.95 2596.07 L688.9 2587.88 L646.41 2583.02 L639.36 2579.41 L633.84 2572.99 L627.11 2562.52 L623.18 2558 L619.31 2555.89 L615.49 2554.31 L611.4 2551.32 L603.45 2539.9 L590.03 2498.52 L550.88 2498.36 L540.38 2495.53 L533.75 2490.5 L517.04 2470.31 L504.15 2462.13 L478.8 2449.59 L467.98 2438.46 L459.86 2425.96 L453.71 2413.7 L450.52 2401.02 L451.22 2390.4 L451.43 2387.27 L454.66 2380.69 L458.27 2375.85 L458.59 2371.03 L452.01 2364.58 L447.34 2363.62 L433.02 2364.07 L428.19 2363.59 L423.68 2355.38 L416.47 2350.06 L409.73 2343.88 L406.87 2333.08 L411.32 2306.99 L410.79 2298.6 L406.44 2290.26 L398.97 2283.14 L390 2278.19 L381.2 2276.32 L377.8 2271.78 L362.95 2244.04 L356.69 2239.2 L351.76 2236.25 L350.11 2231.31 L353.56 2220.44 L364.38 2202.3 L365.6 2193.59 L359.55 2182.66 L344.97 2171.33 L339.08 2163.43 L346.56 2161.1 L354.09 2160.54 L375.73 2154.88 L382.36 2151.19 L392.18 2133.39 L392.55 2110.89 L390.27 2087.61 L392.02 2067.35 L404.38 2036.34 L409.15 2012.33 L415.99 1993.35 L416.63 1982.15 L408.41 1948.21 L405.01 1943.69 L386.13 1950.7 L375.94 1952.54 L366.61 1951.26 L350.43 1936.9 L342.16 1914.11 L339.61 1888.62 L341.57 1858.55 L343.43 1852.18 L346.61 1846.64 L351.81 1841.56 L358.55 1838.54 L366.77 1836.29 L373.72 1832.7 L376.63 1825.74 L376.48 1811.67 L378.07 1795.61 L384.64 1785.07 L399.5 1787.58 L398.06 1777.47 L399.18 1750.38 L394.51 1720.77 L394.93 1689.74 L394.57 1687.24 L389.52 1652.95 L389.95 1633.64 L389.68 1623.71 L384.96 1604.37 L383.05 1579.99 L380.35 1567.27 L382.89 1563.6 L386.92 1560.47 L389.74 1553.76 L388.83 1546.6 L385.28 1542.15 L381.3 1538.3 L379.18 1532.85 L379.76 1526.14 L382.42 1524.13 L386.34 1523.65 L390.64 1521.58 L407.72 1506.16 L416.31 1500.48 L438.96 1490.4 L447.18 1485.27 L451.05 1477.38 L449.04 1464.62 L447.13 1462.85 L440.98 1461.86 L438.96 1460.09 L438.64 1457.64 L439.07 1452.44 L437.79 1444.82 L437.95 1438.87 L436.84 1433.5 L417.16 1417.1 L410.53 1397.46 L401.56 1378.4 L367.94 1362.54 L354.57 1352.83 L342.16 1341.34 L333.4 1331.16 L312.88 1317.1 L292.45 1288.44 L277.42 1255.9 L274.16 1236.83 L273.03 1230.19 L276.52 1225.26 L282.99 1224.06 L289.06 1226.42 L294.55 1238.09 L299.93 1232.09 L303.35 1223.41 L300.6 1221.37 L306.01 1219.56 L310.77 1220.23 L315.95 1221.83 L322.61 1222.9 L328.26 1220.18 L330.06 1213.32 L330.8 1205.23 L333.4 1198.75 L333.46 1198.66 L344.76 1182.37 L338.34 1156.98 L313.58 1114.77 L313.58 1114.72 L313.47 1114.72 L306.59 1098.59 L311.87 1082.7 L320.55 1066.55 L323.26 1049.81 L323.21 1041.68 L326.46 1036.67 L338.07 1026.26 L344.28 1015.65 L344.12 1007.36 L337.75 988.75 L338.23 978.5 L342.42 973.52 L348.2 970.13 L353.4 964.74 L355.52 958.2 L356.37 942.96 L361.15 916.59 L357.96 904.39 L348.68 896.23 L333.4 891 L333.03 890.46 L332.93 889.95 L333.03 889.44 L336.43 883.62 L337.59 878.28 L336.69 873.16 L333.4 868.54 L306.17 858.56 L296.53 856.98 L275.88 858.13 L264.34 860.2 L256.56 863.62 L254 867.73 L252.43 878.26 L250.42 882.68 L246.52 885.99 L223.05 894.23 L213.5 896.15 L203.99 895.1 L201.66 888.14 L205.85 882.2 L202.24 873.89 L202.29 866.48 L223.68 862.12 L231.68 858.99 L238.24 854.45 L240.21 849.06 L235.7 843.42 L228.44 843.05 L215.36 845.52 L210.03 843.21 L204.95 839.62 L201.19 836.32 L199.91 834.83 L199.73 831.51 L202.13 816.85 L203.39 813.52 L229.23 816.42 L241.56 815.69 L250.74 809.67 L257.78 814.32 L267.25 815.94 L275.56 813.57 L279.11 806.4 L274.71 795.62 L264.55 793.65 L243.73 798.98 L227.74 797.26 L219.56 786.35 L219.19 771.14 L226.53 756.34 L240.21 770.79 L248.83 775.59 L258.03 774.43 L263.39 768.01 L264.82 758.91 L263.65 749.44 L261.27 741.78 L257.84 736.6 L254.17 732.54 L251.48 726.93 L250.74 717.24 L261.74 676.76 L261.9 670.84 L259.58 649.96 L260.63 642.69 L264.77 634.79 L271.34 627.64 L274.92 624.44 L275.24 620.17 L271.75 609.87 L265.61 597.54 L264.77 594.04 L265.77 589.22 L267.51 585.98 L267.82 582.67 L264.77 577.54 L273.76 575.82 L281.69 577.14 L287.42 575.63 L287.76 574.03 L289.59 565.39 L288.05 554.85 L283.91 551.41 L278.27 550.04 L271.75 545.82 L266.73 532.35 L269.42 495.43 L268.57 477.87 L272.28 470.88 L273.76 462.32 L276.2 454.33 L288.79 444.9 L278.32 436.18 L273.4 433.8 L250.9 437.58 L243.73 437.66 L248.24 427.11 L242.85 418.79 L234.11 410.85 L228.35 401.39 L229.07 396.92 L230.78 391.4 L230.55 385.64 L225.49 380.53 L220.24 379.32 L215.58 380.8 L210.77 383.17 L204.95 384.7 L200.01 383.99 L186.39 378.62 L185.04 380.13 L183.66 383.54 L181.49 386.61 L177.56 387.01 L176.08 385.18 L149.93 336.17 L141.8 327.48 L114.64 310.32 L110.41 305.18 L104.42 293.58 L100.36 288.7 L95.69 285.83 L79.64 280.48 L75 277.31 L71.79 274.17 L68.13 271.72 L56.28 270.18 L50.17 268.59 L44.53 265.87 L40.02 262.1 L34.78 251.3 L35.11 240.41 L38.26 227.23 L40.02 219.83 L42.75 197.99 L46.65 188.88 L53.89 179.63 L64.37 172.49 L68.8 168.24 L69.75 162.69 L67.13 152.42 L66.73 147.35 L77.84 94.85 L80.33 89.93 L84.45 85.6 L88.94 82.72 L92.53 79.12 L93.75 72.57 L95.21 54.05 L93.57 37.87 L85.82 25.62 L68.69 19.04 L59.04 19.2 L41.61 23.84 L32.21 24.81 L22.77 22.38 L12.33 16.56 L3.82 8.65 Z "/>
</g>
</svg>
