<svg xmlns="http://www.w3.org/2000/svg" viewBox="0 0 1000 3111.82">
<g fill="#ccc" stroke="#333" stroke-width="0.5" stroke-linejoin="round">
<path fill-rule="evenodd" d="M981.73 1365.15 L988.28 1367.68 L991.31 1370.62 L994.05 1374.01 L999.51 1377.96 L1000 1382.92 L999.61 1392.42 L996.22 1397.04 L987.93 1387.35 L983.21 1389.58 L980.76 1392.34 L981.18 1395.77 L984.94 1399.87 L981.36 1404.38 L979.03 1409.18 L972.94 1407.84 L968.9 1412.61 L966.88 1420.44 L966.9 1428.26 L961.48 1425.21 L958.48 1419.99 L955.34 1409.18 L962.29 1406.39 L962.65 1401.02 L960 1395.84 L958.04 1393.61 L953.11 1397.89 L951.68 1404.71 L949.73 1409.11 L943.21 1406.13 L942.79 1408.66 L941.52 1409.18 L939.56 1409.03 L937.02 1409.18 L931.35 1395.66 L939.56 1388.84 L951.76 1382.36 L958.04 1369.99 L961.01 1366.82 L967.96 1365.15 L975.89 1364.63 Z M565.96 2622.73 L568.66 2640.04 L568.43 2647.09 L565.96 2664.31 L566.31 2693.51 L563.56 2698.21 L556.8 2694.15 L554.04 2687.06 L548.54 2681.37 L536.07 2671.89 L536.07 2668.7 L537.79 2668.02 L542 2665.48 L539.46 2660.44 L539 2654.11 L541.23 2648.69 L549.86 2644.9 L552.61 2641.33 L556.8 2633.68 L557.8 2630.8 L561.02 2623.86 L564.37 2619.13 Z M500.54 2544.45 L505.27 2547.97 L506.89 2551.6 L506.47 2558.87 L502.73 2562.96 L478.05 2581.25 L476.5 2585.26 L477.2 2590.22 L478.68 2595.45 L479.53 2600.34 L477.94 2605.87 L474.08 2609.05 L469.19 2610.64 L464.44 2611.47 L455.07 2609.31 L450.67 2605.45 L443.71 2592.08 L438.01 2586.55 L417.34 2576.17 L414.08 2579.66 L403.33 2573.29 L397.18 2570.87 L391.76 2569.89 L387.65 2567.54 L376.94 2552.4 L370.7 2539.79 L374.83 2528.48 L384.88 2519.93 L396.32 2515.92 L390.92 2522.54 L384.05 2528.48 L381.12 2534.53 L387.44 2541.27 L392.13 2543.24 L396 2543.39 L420.59 2538.54 L424.6 2539.68 L427.85 2542.29 L431.27 2544.37 L434.02 2547.29 L435.1 2552.4 L428.62 2556.6 L425.62 2560.46 L427.42 2565.23 L431.98 2567.05 L436.32 2565.12 L440.66 2561.94 L445.2 2560.35 L450.55 2561.25 L458.23 2565.57 L461.74 2566.71 L468.18 2565.12 L470.74 2560.23 L473.27 2553.84 L479.53 2547.63 L483.98 2545.51 L489.58 2543.88 L495.4 2543.31 Z M806.16 1932.01 L812.04 1929.91 L816.61 1925.74 L819.78 1919.85 L821.51 1912.8 L823.65 1913.25 L828.4 1915.12 L830.11 1916.25 L826.67 1924.35 L826.09 1933.43 L823.9 1940.26 L815.58 1941.46 L812.27 1939.74 L809.6 1937.71 L807.55 1935.24 Z M498.91 1890.82 L505.83 1896.26 L509.01 1908.86 L508.22 1922.7 L503.24 1932.01 L503.24 1928.56 L500.54 1932.01 L498.38 1929.34 L496.11 1927.81 L491.11 1925.7 L491.45 1925.52 L490.95 1924.35 L491.11 1922.55 L485.82 1908.22 L485.45 1903.65 L487.03 1894.87 L489.65 1891.12 L493.55 1890.52 Z M830.13 1900.49 L837.77 1896.22 L842.12 1890.18 L845.68 1883.84 L851.12 1878.22 L853.4 1884.97 L852.09 1890.89 L849.55 1896.48 L848.15 1902.07 L844.94 1907.92 L838.06 1908.6 L831.7 1905.6 Z M849.64 1853.29 L855.21 1855.76 L856.94 1860.52 L854.67 1863.97 L848.15 1862.47 L843.4 1855.65 L837.67 1844.33 L835.67 1835.86 L842.24 1837.32 L844.46 1841.18 L846.63 1851.26 Z M255.08 0 L263.2 6.23 L260.96 18.91 L251.69 29.18 L238.79 27.93 L231.25 19.28 L232.52 10.19 L241.01 2.93 Z M2.52 3104.83 L6.55 3106.25 L9.2 3108.61 L7.57 3110.56 L5.33 3111.82 L3.95 3111.82 L1.48 3110.1 L0 3107.62 L0.46 3105.29 Z M679.16 1479.72 L674.68 1472.34 L675.93 1465.7 L680.98 1462.34 L687.81 1464.99 L690.87 1470.58 L689.39 1475.84 L684.95 1479.31 Z "/>
</g>
</svg>
