<svg xmlns="http://www.w3.org/2000/svg" viewBox="0 0 1000 947.08">
<g fill="#ccc" stroke="#333" stroke-width="0.5" stroke-linejoin="round">
<path fill-rule="evenodd" d="M658.62 472.02 L645.4 469.61 L636.99 483.47 L633.17 505.11 L633.95 525.89 L647.75 569.86 L650.61 591.28 L630.04 609.02 L630.48 629.32 L632.91 642.5 L640.23 682.35 L643.87 692.24 L648.62 701.41 L661.34 720.35 L687.75 739.08 L667.19 761.31 L658.25 798.68 L657.87 840.89 L663.08 877.62 L647.81 874.27 L630.68 879.5 L614.51 889.49 L601.93 900.28 L589.37 908.71 L573.23 914.76 L541.27 922.46 L533.95 923.17 L524 924.17 L480.37 917.05 L464.72 918.44 L419.45 927.4 L363.45 922.46 L302.58 927.4 L301.83 927.25 L273.42 922.46 L266.77 924.11 L246.52 932.27 L238.57 933.1 L224.59 936.45 L217.39 937.27 L207.35 935.71 L200.3 931.98 L193.82 927.16 L185.63 922.46 L172.41 918.52 L157.83 916.82 L96.24 916.7 L79.38 918.7 L66.48 924.93 L56.06 933.07 L42.23 941.32 L27.68 946.9 L15.27 947.08 L0 936.68 L6.94 926.9 L29.85 914.82 L33.24 912.12 L41.05 909.71 L64.1 905.36 L68.79 900.81 L76.2 889.96 L87.3 881.5 L99.19 875.68 L154.01 859.28 L157.34 857.67 L184.59 844.56 L205.73 825.75 L206.11 825.43 L205.5 803.64 L214.53 798.88 L225.29 798.71 L262.03 805.05 L290 804.03 L292.11 803.94 L300.1 803.64 L308.14 800.5 L317.63 792.8 L326.22 782.98 L331.68 773.63 L334.37 759.19 L333.48 753.75 L332.32 747.05 L328.73 735.35 L326.82 721.79 L325.52 717.88 L319.3 712.65 L317.1 709.47 L316.82 705.53 L318.75 704.47 L321.18 703.97 L322.4 701.85 L321.7 696.24 L317.57 682.09 L314.91 677.15 L313.34 666.74 L317.39 652.47 L326.82 630.05 L331.57 602.57 L331.68 574.15 L324.48 547.61 L307.44 525.89 L312.68 521.44 L284.3 502.02 L269.89 495.39 L249.59 486.09 L234.37 482.85 L198.13 480.38 L193.61 478.97 L190.11 475.08 L185.63 466.66 L222.57 441.05 L232.17 437.01 L261.3 439.49 L294.02 431.8 L311.81 432.04 L314.91 432.07 L323.82 427.97 L329.25 420.73 L332.9 417.76 L336.54 426.68 L341.84 426.68 L342.04 424.26 L341.84 416.78 L346.21 416.78 L346.7 420.44 L347.88 422.35 L349.56 423.91 L351.53 426.68 L346.21 432.07 L352.11 430.65 L356.27 427.3 L359.05 423.85 L360.79 422.17 L374.5 421.73 L375.83 422.17 L381.67 416.84 L395.12 401 L399.64 397.05 L409.56 396.23 L412.05 396.02 L449.71 400.62 L532.21 400.97 L538.26 396.35 L550.15 387.28 L591.6 382.24 L604.41 376.79 L696.61 366.42 L726.14 372.32 L695.94 425.62 Z M994.01 0 L999.31 5.37 L1000 23.37 L997.54 45.61 L992.22 61.3 L984.29 59.41 L979.9 59.41 L975.53 70.3 L969.28 71.51 L962.19 69.09 L955.19 69.27 L953.8 72.45 L943.16 86.73 L940.64 87.29 L924.15 97.52 L918.97 101.71 L911.11 106.48 L902.11 106.4 L893.52 104.63 L886.81 104.36 L843.82 126.12 L831.21 129.13 L812.06 145.76 L800.05 150.63 L795.02 139.04 L784.34 144.43 L774.45 142.75 L768.64 135.62 L770.29 124.62 L776.3 121.58 L786.17 119.99 L795.37 116.28 L799.39 106.84 L806.45 97.46 L866.61 57.82 L879.46 45.08 L886.81 39.59 L895.83 34.9 L919.15 26.26 L939.22 22.01 L947.58 17.23 L956.23 15.61 L967.54 22.3 L972.78 21.66 L986.32 5.55 Z "/>
</g>
</svg>
