<svg xmlns="http://www.w3.org/2000/svg" viewBox="0 0 1000 2098.98">
<g fill="#ccc" stroke="#333" stroke-width="0.5" stroke-linejoin="round">
<path fill-rule="evenodd" d="M985.55 1249.17 L985.78 1262.29 L978.77 1290.1 L978.16 1294.59 L978.04 1310.92 L973.66 1330.69 L975.43 1360.9 L971.86 1391.59 L972.04 1407.61 L977.05 1418.85 L993.45 1435.05 L999.14 1445.49 L1000 1457.71 L995.65 1466.76 L990.68 1471.52 L987.7 1474.38 L970.6 1485.84 L906.52 1516.63 L830.84 1552.95 L824.16 1560.15 L814.29 1583.1 L806.27 1591.14 L797.38 1596.66 L789.18 1603.36 L784.4 1604.85 L779.92 1603.06 L775.52 1600.54 L770.91 1599.91 L765.4 1605.83 L763.35 1628.94 L760.16 1638.51 L749.84 1648.21 L745.71 1658.17 L742.78 1662.5 L739.18 1666.16 L735.18 1669.39 L721.77 1674.71 L694.27 1674.35 L681.66 1684.53 L665.14 1713.83 L649.5 1731.36 L645.66 1738.01 L643.05 1756.73 L643.5 1761.71 L661.77 1810.74 L669.24 1840.91 L676.98 1857.27 L677.31 1862.59 L675.95 1873.56 L677.03 1883.69 L683.18 1903.69 L683.08 1913.25 L679.21 1924.76 L664.1 1956.26 L641.81 1981.76 L615.97 2023.61 L585.53 2063.18 L579.28 2066.83 L561.44 2068.02 L554.23 2069.94 L499.44 2098.98 L492.51 2067.77 L485.58 2036.53 L478.64 2005.26 L471.68 1973.96 L464.72 1942.61 L457.79 1911.24 L450.86 1879.82 L443.92 1848.36 L436.94 1816.88 L430.03 1785.35 L423.07 1753.79 L416.14 1722.19 L409.21 1690.55 L402.25 1658.9 L395.34 1627.18 L388.35 1595.42 L387.7 1592.39 L383.22 1571.69 L380.46 1566.23 L377.07 1562.15 L335.85 1532.25 L284.63 1495.07 L245.53 1466.61 L215.5 1447.39 L208.8 1440.04 L208.46 1439.67 L205.6 1430.09 L203.25 1400.07 L199.93 1359.17 L196.62 1349.86 L171.77 1310.94 L148.62 1274.59 L143.15 1271.23 L138.04 1272.38 L132.9 1272.03 L127.89 1270.47 L123.13 1268 L96.01 1248.32 L87.07 1245.27 L75.33 1244.17 L66.32 1241.43 L60.02 1234.48 L56.28 1220.8 L55.93 1181.95 L55.92 1180.73 L52.23 1169.21 L33.48 1136.37 L17.92 1109.09 L15.82 1101.59 L13.31 1086.29 L6.28 1072.56 L4.58 1067.51 L1.24 1051.29 L0 1039.82 L5.09 1010.21 L5.85 988.43 L9.21 980.43 L14.54 974.89 L24.42 964.63 L30.42 956.63 L37.12 949.64 L46.64 944.84 L62.2 942.33 L66.83 939.86 L69.89 936.14 L72.09 931.32 L81.3 896.25 L86.11 885.83 L95.68 878.85 L116.91 869.49 L127.13 862.14 L150.39 851.45 L152.45 849.6 L162.53 840.57 L168.3 837.06 L170.25 835.06 L171.31 833.01 L173.04 827.83 L174.58 825.4 L183.38 819.84 L185.26 816.5 L178.93 806.52 L179.61 801.89 L182.5 797.44 L190.37 789.08 L190.7 788.61 L192.62 785.94 L193.3 781.89 L188.75 751.81 L188.29 740.7 L190.77 729.14 L196.62 713.19 L200.92 691.17 L204.16 680.58 L215.72 667.76 L230.53 644.94 L232.96 639.05 L224.53 632.47 L214.33 629.28 L205.07 624.74 L199.43 614.05 L197.86 601.75 L198.37 590.78 L201.02 580.3 L209.8 558.99 L209.88 550.09 L207.48 524.96 L206.59 515.69 L202.41 505.83 L190.44 486.1 L187.53 475.55 L186.47 462.74 L187.89 438.69 L193.08 419.78 L194.06 416.19 L194.85 399.52 L200.01 377.22 L202.77 372.2 L205 366.46 L204.36 360.99 L202.54 355.37 L201.38 349.35 L202.54 336.81 L214.13 304.22 L214.38 302.64 L215.04 298.44 L215.42 285.88 L214.94 280.05 L212.87 274.45 L209.09 272.14 L204.46 270.85 L199.73 268.4 L178.48 265.61 L168.45 261.49 L168.46 261.3 L168.96 250.99 L174.73 243.93 L181.79 239.43 L197.61 233.44 L227.24 215.38 L232.73 209.27 L238.32 198.58 L240.42 187.84 L235.49 181.61 L226.93 177.09 L228.5 172.23 L236.07 168.47 L245.53 167.31 L254.69 167.94 L263.12 166.19 L280.1 159.33 L284.48 156.19 L284.68 152.47 L276.28 139.55 L275.44 136.41 L275.65 132.71 L274.88 124.61 L279.43 122.69 L296.82 115.45 L302.8 114.32 L323.72 114.32 L329.2 112.36 L339.32 103.73 L346.74 100.29 L348.61 99.43 L354.03 94.15 L361.64 84.82 L369.17 70.22 L372.44 68.03 L374.83 66.85 L381.68 59.47 L384.28 57.9 L391.65 54.87 L411.17 46.88 L414.16 45.04 L419.3 36.64 L423.79 34.27 L456.07 33.81 L465.41 30.08 L471.39 23.61 L474.82 21.36 L478.12 22.72 L480.63 24.21 L483.32 23.67 L485.93 22.4 L493.13 20.64 L498.86 18.01 L504.07 14.53 L507.53 10.99 L512.51 13.84 L517.02 13.02 L526.06 6.79 L531.16 4.11 L535.33 3.01 L546.11 2.78 L551.53 0.58 L554.52 0 L557.09 1.63 L559.06 3.56 L561.57 4.52 L582.49 5.05 L582.53 5.95 L583.05 8.88 L583.17 22.78 L575.6 28.93 L566.29 32.98 L561.17 40.58 L561.97 42.89 L565.79 51.31 L567.01 53.17 L568.44 54.16 L569.98 58.5 L571.97 59.47 L582.69 60.95 L587.63 60.01 L593.07 55.47 L596.06 51.35 L598.75 45.67 L598.67 40.64 L583.05 34.27 L580.7 34.57 L575.68 36.15 L572.87 36.19 L572.87 34.27 L578.82 30.08 L581.18 29.46 L582.67 28.03 L583.73 26.53 L584.58 25.7 L588.27 25.12 L612.1 30.52 L616.5 30.08 L629.59 24.2 L631.69 24.74 L635.61 30.86 L652.85 33.45 L660.8 40.77 L679.01 47.32 L683.67 51.27 L675.82 53.35 L672.19 54.9 L668.77 57.37 L667.43 52.32 L660.62 51.45 L652.79 53.52 L648.4 57.37 L650.2 62.4 L656.61 64.85 L664.02 65.19 L668.77 63.85 L670.46 66.51 L672.63 69.97 L673.43 72.91 L671.97 76.64 L670.3 72.23 L659.72 82.69 L661.69 97.78 L670.92 113.23 L682.14 124.79 L691.28 129.24 L693.85 131.06 L699.55 139.21 L702.04 142.75 L700.77 146.32 L695.15 151.94 L692.78 158.2 L690.21 160.65 L686.86 161.2 L683.67 158.41 L685.48 153.75 L683.19 152.48 L678.97 153.13 L671.02 155.75 L668.63 157.56 L664.44 163.54 L663.19 168.04 L666.71 169.56 L674.39 169.78 L677.57 171.5 L679.21 169.92 L679.96 169.19 L683.67 162.39 L688.93 174.11 L695.41 182.97 L704.03 188.34 L715.71 189.7 L719.08 188.83 L724.03 189.05 L736.45 182.7 L744.04 180.82 L748.82 175.86 L750.73 167.33 L752.34 160.3 L755.84 147.96 L760.26 144 L765.44 142.92 L776.82 143.78 L787.12 141.77 L796.62 137.99 L808.8 129.23 L816.33 121.28 L818.56 120.19 L819.5 117.35 L820.28 115.8 L834.34 104.23 L836.38 101.75 L837.01 98.34 L836.1 96.21 L835.66 94.22 L837.91 91.1 L843.19 88.58 L855.54 87.28 L864.99 80.06 L870.05 79.24 L874.37 81.44 L876.65 86.91 L876.31 89.54 L873.78 93.2 L873.16 96.43 L873.72 99.84 L876.11 104.23 L876.65 106.99 L877.54 109.12 L881.79 115.45 L883.36 118.51 L883.94 121.51 L884.36 128.07 L885.01 131.06 L886.15 133.47 L887.82 136.22 L889.58 138.47 L890.87 139.41 L892.31 141.09 L895.23 145.73 L893.84 150.78 L890.47 155.56 L880.67 159.6 L867.3 170.89 L860.05 184.4 L849.62 199.73 L832.38 231.89 L819.19 265.01 L812.89 273.51 L792.63 278.78 L768.95 292.25 L760.41 289.86 L751.93 296.21 L744.13 308.31 L740.64 319.89 L737.27 332.43 L734.38 344.91 L733.79 360.51 L733.26 376.59 L734.45 386.64 L737.6 396.93 L739.42 402.4 L740.62 404.32 L741.69 407.28 L743.09 413.96 L744 416.72 L749.38 424.93 L753.29 429.42 L756.68 431.36 L759.61 434.31 L766.04 454.24 L769.35 458.25 L786.3 474.25 L786.88 474.8 L791.62 477.38 L799.11 480.27 L813.82 475.06 L816.29 475.65 L818.56 477.01 L823.05 481.21 L820.34 485.23 L818.91 491.21 L820.16 497.32 L822.99 501.64 L832.87 506.4 L854.98 515.1 L864.81 513.97 L871.92 520.05 L875.35 527.05 L866.07 530.72 L864.81 537.72 L865.29 542.58 L865.53 544.91 L867.74 551.35 L871.48 555.94 L882.7 559.46 L876 565.49 L874.28 573.6 L873.03 581.12 L873.98 594.19 L870.98 600.32 L872.22 611.25 L878.01 620.6 L886.69 631.53 L891.77 635.48 L897.9 638.37 L901.24 640.1 L900.85 645.94 L894.04 646.18 L889.2 649.88 L884.48 659.37 L877.28 665.45 L873.83 672.16 L870.45 679.39 L865.77 683.65 L867.38 692.13 L866.31 701.19 L858.05 711.59 L848.62 716.33 L841.72 724.13 L843.5 731.09 L841.44 737.31 L841.39 749.17 L831.4 756.48 L829.24 758.81 L827.69 760.14 L826.69 761.91 L829.4 767.83 L830.4 771.9 L821.45 776.07 L815.67 780.4 L807.78 789.15 L803.97 796.91 L799.2 801.31 L796.92 806.62 L792.66 811.42 L788.72 814.03 L772.34 819.41 L770.13 820.79 L769.19 822.86 L768.81 825.96 L767.61 829.61 L765.76 832.66 L765.34 838.51 L763.64 841.85 L763.21 847.12 L759.44 850.7 L754 853.43 L731.13 856.86 L722.78 861.5 L709.76 883.25 L697.94 886.36 L695.51 886.17 L693.25 885.11 L690.5 884.84 L687.58 885.94 L686.08 887.46 L685.1 889.29 L679.86 896.3 L677.57 898.36 L674.39 899.2 L662.77 904.35 L657.85 908.25 L648.06 912.16 L642.05 918.55 L639.02 927.76 L630.27 945.48 L625.06 953.92 L621.64 955.13 L619.55 957.32 L619.51 957.34 L618.32 958.06 L620.63 963.17 L621.54 969.06 L621.5 981.46 L622.3 986.85 L625.89 998.32 L626.66 1003.75 L629 1013.39 L634.5 1024.38 L656.97 1056.82 L659.32 1059.23 L662.79 1061.09 L697.9 1096.12 L707.06 1101.64 L726.25 1110.07 L729.72 1110.87 L736.83 1112.51 L753.75 1109.98 L772.28 1104.71 L787.84 1096.19 L792.5 1094.91 L798.22 1105.32 L797.47 1125.53 L790.27 1131.75 L786.32 1133.39 L783.3 1137.37 L782.08 1142.35 L783.52 1146.98 L789.31 1156.91 L792.62 1160.57 L797.76 1162.2 L808.14 1159.93 L826.67 1148.6 L835.5 1145.97 L839.7 1144.11 L843.55 1139.57 L845.42 1134 L843.83 1128.94 L839.64 1124.06 L838.99 1121.53 L846.26 1115.69 L849.13 1117.7 L852.24 1118.23 L854.89 1116.99 L856.46 1113.68 L858.11 1113.68 L862.04 1116.32 L872.36 1121.11 L876.65 1123.91 L879.89 1127.99 L888.36 1141.17 L889.2 1143.99 L890.43 1158.69 L883.9 1169.2 L889 1187.15 L886.87 1195.62 L893.98 1193.44 L898.82 1198.59 L903.66 1205.09 L909.34 1208.25 L915.2 1209.62 L927.75 1216.08 L933.79 1218.26 L932.24 1219.66 L931.52 1220.01 L930.44 1220.25 L906.41 1212.41 L894.6 1211.05 L891.71 1220.25 L894.08 1223.76 L898.04 1227.02 L901.87 1231.2 L903.54 1237.53 L905.84 1240.43 L911.22 1240.41 L921.96 1238.43 L932.36 1240.72 L953.02 1248.42 L963.92 1248.42 L967.92 1245.56 L966.57 1241.62 L962.42 1238.13 L958.04 1236.62 L955.25 1234.69 L951.84 1230.43 L948.04 1226.45 L970.19 1242.31 L983.76 1248.74 L985.42 1249.14 Z M859.79 1055.22 L864.57 1058.19 L869.49 1060.47 L873.76 1063.16 L876.65 1067.29 L860.41 1082.31 L856.32 1084.25 L854.79 1085.56 L853.67 1088 L851.28 1097.62 L849.75 1097.62 L850.52 1089.83 L851.28 1087.39 L847.45 1088.65 L844.37 1097.95 L839.97 1104.64 L835.85 1109.24 L834.4 1114.56 L830.31 1110.39 L830.23 1105.24 L831.74 1100.42 L827.35 1093.7 L823.23 1091.67 L819.32 1088.18 L815.1 1086.85 L810.55 1091.49 L808.48 1095.87 L803.95 1096.91 L798.26 1092.4 L796.7 1087.93 L795.23 1079.83 L795.36 1072.05 L800.08 1063.75 L797.11 1051.66 L797.24 1042.52 L806.29 1039.11 L826.19 1043.44 L836.85 1044.12 L844.73 1039.11 L852.02 1048.02 Z M853.09 813.81 L855.47 811.93 L858.73 809.32 L886.69 809.56 L889.02 812.97 L885.36 816.7 L875.52 824.44 L870.81 823.45 L865.95 821.01 L857.84 817.02 Z M926.96 779.05 L929.17 779.95 L930.56 782.18 L936.5 788.32 L934.6 792.37 L910.76 802.49 L898.38 810.06 L893.89 811.85 L891.82 806.75 L895.21 802.74 L899.26 798.87 L903.66 792.4 L904.26 788.28 L904.05 786.38 L904.24 783.64 L906.18 782.51 L906.71 785.37 L910.4 787.8 L916.26 786.72 L916.8 780.04 L915.13 776.6 L917.03 772.54 L919.94 769.87 L921.93 766.66 L924.13 763.42 L928.17 765.79 L935.2 766.89 L936.35 769.54 L929.96 771.81 L929.07 773.58 L927.55 775.49 Z "/>
</g>
</svg>
