<svg xmlns="http://www.w3.org/2000/svg" viewBox="0 0 1000 532.21">
<g fill="#ccc" stroke="#333" stroke-width="0.5" stroke-linejoin="round">
<path fill-rule="evenodd" d="M15.19 202.18 L35.41 199.14 L35.53 222.29 L21.66 250.26 L0 261.92 L0 256.96 L8.21 248.74 L13.27 234.37 L15.43 217.6 Z M719.71 202.18 L704.22 192.6 L671.45 178.38 L658.63 163.64 L662.06 161.24 L665.13 160.01 L667.57 157.97 L669.19 153.28 L693.74 169.44 L706.71 174.78 L724.76 179.93 L739.69 186.19 L753.86 197.84 L761.17 214.29 L755.48 234.76 L746.85 236.57 L736.44 226.02 Z M501.67 136.49 L483.29 138.18 L477.51 133.64 L470.95 120.65 L468.27 111.41 L466.32 82.04 L472.46 82.56 L478.77 83.99 L484.67 86.42 L496.83 95.01 L503.84 95.08 L510.61 93.23 L517.28 92.48 L562.69 98.38 L583.81 94.04 L593.4 93.52 L603.12 98.38 L610.86 108.36 L628.79 147.31 L616.12 143.1 L608 132.02 L601.32 119.09 L593.01 109.27 L599 127.06 L612.9 154.77 L618.26 169.54 L608.33 171.55 L600.99 166.33 L587.96 147.31 L583.63 155.48 L582.45 158.72 L577.85 158.72 L566.3 136.98 L547.31 130.92 Z M106.54 126.09 L104.34 115.69 L112.07 90.7 L111.56 77.12 L128.2 85.25 L174.71 128.52 L184.52 132.15 L199.03 132.09 L213.41 129.59 L223.09 126.09 L233.69 115.82 L239.7 107.33 L247.71 105.25 L263.92 114.72 L263.92 120.65 L244.22 139.73 L238.26 147.31 L234.41 135.78 L233.69 130.98 L212.99 141.87 L215.75 142.84 L218.28 143.39 L220.69 144.53 L223.09 147.31 L212.11 153.21 L193.43 150.49 L182.69 153.28 L182.69 141.87 L153.41 165.55 L140.08 167.53 L131.78 147.31 L136.32 147.31 L140.96 154.09 L147.94 157.49 L153.11 155.83 L152.45 147.31 L147.94 143.1 L122.12 130.98 L124.53 141.87 L122.66 150.1 L116.59 155.67 L106.54 158.72 L104.85 153.4 L104.49 149.78 L105.09 146.41 L106.54 141.87 L107.77 145.31 L108.04 145.82 L108.85 145.82 L111.56 147.31 L114.45 136.88 L123.75 119.64 L126.73 109.27 L110.84 121.62 Z M339.65 43.53 L336.58 36.04 L337.79 28.25 L337.4 21.25 L329.09 16.28 L332.37 10.15 L337.06 5.29 L342.99 1.82 L349.76 0 L392.91 0 L397.3 0.91 L407.29 5 L413.06 5.9 L421.67 8.6 L423.35 14.92 L420.89 27.18 L427.32 73.88 L438.28 90.08 L461.32 92.48 L446.61 104.31 L433.79 101.23 L422.69 92.48 L413.06 87.56 L406.87 85.55 L398.05 80.55 L389.72 73.55 L385.08 65.77 L386.05 55.33 L397.42 36.72 L400.25 27.18 L394.65 13.36 L382.5 20.57 L364.86 41 L361.86 47.29 L354.7 48.97 L346.27 47.29 Z M993.2 354.7 L998.92 367.02 L1000 387.59 L996.51 408.05 L988.18 419.85 L983.15 404.79 L983.66 387.1 L987.72 369.45 Z M586.73 524.53 L592.26 520.84 L596.9 519.17 L593.53 525.24 L580.77 532.21 L578.39 530.76 Z M626.26 509.44 L630.35 505.02 L630.77 516.23 L626.02 528.72 L621.45 522.01 Z M940.16 491.52 L947.38 491.78 L952.97 496.56 L946.51 506.05 L937.3 515.94 L933.21 512.96 L936.88 498.3 Z M726.87 310.36 L728.38 315.11 L727.68 341.48 L728.31 359.65 L722.45 370.26 L710.08 374.01 L697.81 365.96 L696.24 352.38 L705.03 346.2 L713.96 347.49 L718.99 343.42 L719.11 324.46 L724.43 310.62 Z M263.53 83.34 L267.53 80.75 L269.91 84.05 L263.92 89.53 L257.51 88.92 Z M285.8 61.13 L289.71 58.8 L291.54 62.4 L291.51 68.92 L287.12 73.36 L282.19 75.43 L280.8 69.79 Z "/>
</g>
</svg>
