<svg xmlns="http://www.w3.org/2000/svg" viewBox="0 0 1000 422.29">
<g fill="#ccc" stroke="#333" stroke-width="0.5" stroke-linejoin="round">
<path fill-rule="evenodd" d="M928.62 69.31 L928.4 70.93 L928.83 73.13 L929.66 75.11 L930.66 76.07 L932.9 76.39 L935.15 77.52 L937.21 79.23 L938.84 81.3 L939.44 82.65 L939.66 83.97 L939.78 85.36 L940.06 86.93 L940.6 88.3 L942.77 91.78 L943.25 93.08 L943.44 94.22 L943.71 98.99 L943.55 99.55 L942.47 101.49 L942.15 101.92 L942.55 103.48 L940.34 106.08 L939.64 107.5 L939.69 109.15 L939.38 108.9 L939.15 108.81 L938.91 108.76 L938.6 108.64 L938.76 108.92 L938.85 109.13 L938.99 109.62 L937.75 109.77 L936.62 110.56 L934.83 112.69 L935.05 113.6 L936.16 114.84 L938.27 116.65 L938.27 117.12 L938.23 117.27 L937.45 119.89 L937.01 120.66 L936.65 121.78 L937.18 122.85 L938.6 124.19 L940.92 127.22 L941.67 128.97 L941.72 129.09 L940.77 129.84 L941.32 131.05 L942.95 133.06 L943.29 133.83 L942.78 134.71 L940.42 135.23 L939.69 135.91 L940.37 137.88 L942.76 139.2 L947.54 140.57 L953.26 143.74 L959.54 144.81 L960.37 144.52 L962.19 143.24 L963.3 142.94 L963.82 143.08 L964.48 143.72 L964.92 143.87 L965.47 143.8 L966.54 143.48 L968.03 143.29 L971.18 142.43 L972.94 142.43 L974.86 143.03 L977.74 144.73 L982.1 147.28 L985.12 149.92 L986.46 151.43 L987.05 152.42 L987.29 153.45 L987.49 154.05 L987.93 154.5 L988.72 155.08 L988.88 155.74 L988.9 156.51 L989.09 156.9 L989.79 156.47 L991.68 158.66 L992.65 159.26 L992.91 159.29 L993.49 159.2 L993.74 159.26 L993.99 159.49 L994.29 160.01 L997.5 164.24 L998.31 165.62 L998.82 166.47 L999.41 169.04 L1000 169.89 L995.75 166.8 L994.74 165.94 L991.62 164.48 L990.9 163.66 L989.49 161.52 L988.69 160.95 L987.4 161.33 L981.85 165.91 L981.62 166.68 L981.89 168.9 L981.78 169.71 L981.75 169.97 L981.44 170.84 L979.71 174.33 L979.47 175.24 L979.37 176.35 L979.47 177.31 L979.65 178.18 L979.62 178.99 L979.1 179.79 L979.09 179.79 L978.83 181.31 L979.01 182.58 L978.99 183.8 L978.11 185.15 L977.11 185.89 L974.4 187.12 L973.25 187.4 L971.92 187.29 L968.32 185.49 L967.07 185.35 L964.23 186.1 L963.03 186.23 L961.87 186.09 L961.05 186.11 L960.27 186.4 L959.21 187.06 L958.62 187.88 L958.94 188.7 L960.31 190.33 L960.32 190.35 L960.55 190.99 L960.86 192.43 L961.47 193.76 L961.46 194.26 L961.33 194.71 L961.35 195.31 L961.53 195.89 L962.16 197.23 L962.21 197.82 L961.85 199.04 L961.9 199.63 L963.25 200.67 L965.58 201.89 L967.59 203.33 L968.02 204.98 L966.98 207.02 L966.72 208.09 L967.2 210.74 L966.7 211.54 L965.86 212.25 L965.12 213.5 L965.12 213.51 L965.4 213.98 L965.56 214.43 L965.78 215.47 L966.1 215.95 L966.57 216.32 L966.97 216.74 L967.01 217.35 L966.98 217.91 L967.15 218.42 L967.38 218.93 L967.88 220.43 L968.59 221.44 L969.44 222.26 L972.21 223.6 L972.46 225.56 L971.04 230.42 L970.83 231.75 L970.93 232.6 L971.19 233.4 L971.45 234.6 L971.22 235.09 L970.77 235.55 L970.61 235.96 L971.26 236.3 L972.21 236.6 L972.6 236.87 L972.99 237.3 L973.36 238.41 L973.35 239.8 L973.11 242.44 L973.59 245.84 L973.53 246.98 L972.86 249.67 L972.86 250.46 L973.02 252.15 L972.99 252.76 L972.82 253.85 L972.97 254.44 L973.45 254.77 L974.22 255.13 L976.83 255.61 L978.55 254.61 L979.21 254.47 L980.03 254.78 L980.77 255.42 L981.41 256.32 L981.81 257.36 L981.83 258.42 L980.66 260.12 L978.77 261.6 L977.3 263.27 L977.52 266.46 L977.34 267.75 L977.02 269.06 L976.68 270.03 L976.29 270.55 L975.36 270.95 L974.93 271.32 L974.86 271.9 L975.28 273.15 L974.99 273.56 L973.99 274.06 L973.3 274.6 L972.82 275.44 L972.38 276.84 L971.92 277.85 L970.66 279.29 L970.18 280.24 L970.18 280.25 L969.73 281.1 L969.41 281.91 L969.32 282.75 L969.58 283.68 L969.62 284.53 L969.17 285.24 L968.63 285.91 L968.55 286.15 L968.4 286.65 L969.32 288.1 L971.14 288.4 L974.52 288 L975.15 288.19 L977.02 289.1 L977.59 289.5 L977.9 290.11 L978.09 290.87 L978.39 291.69 L978.97 292.44 L979.37 292.57 L979.73 292.44 L980.07 292.37 L980.47 292.68 L980.5 293.01 L980.3 294.06 L980.26 294.46 L980.64 295.21 L981.38 295.29 L982.21 294.99 L982.88 294.61 L984.3 294.45 L985.76 295.12 L987.07 296.25 L988.98 298.61 L989.1 299.22 L988.57 300.09 L986.76 301.55 L986.33 302.13 L986.1 304.13 L987.15 305.32 L988.33 306.21 L988.53 307.34 L988.06 308.66 L987.72 310.29 L987.62 311.93 L987.89 313.27 L987.89 313.28 L988.1 314.39 L987.41 316.35 L987.73 317.43 L988.43 317.83 L990.38 318.01 L991.18 318.63 L991.92 320.5 L992.41 321.05 L994.31 320.77 L994.78 321.36 L995.09 322.29 L995.53 323.18 L998.54 325.12 L999.72 326.51 L999.56 328.63 L998.94 329.43 L998.22 329.85 L997.57 330.41 L997.21 331.58 L997.37 332.9 L997.87 334.02 L998.19 335.13 L997.87 336.39 L997.22 335.27 L996.18 334.74 L990.7 333.96 L989.72 334.01 L988.05 334.79 L986.02 336.28 L984.14 338.05 L982.88 339.66 L981.58 340.69 L980.21 341.45 L975.77 342.91 L975.35 343.65 L975.17 344.67 L974.36 346.07 L974.36 346.08 L974.35 346.08 L974.35 346.08 L973.86 347.18 L973.37 347.65 L972.72 347.7 L970.55 347.14 L970.08 346.75 L969.74 346.07 L967.64 341.31 L967.25 339.95 L967.28 338.56 L967.73 337.23 L968.6 336.09 L969.27 335.69 L969.87 335.58 L970.39 335.34 L970.82 334.58 L970.89 333.94 L970.83 333.12 L970.57 331.68 L970.12 330.18 L969.5 329.04 L968.65 328.16 L967.48 327.39 L962.44 325.29 L961.45 325.12 L959.7 324.83 L957.34 325.2 L955.43 326.85 L953.88 329.11 L952.29 330.95 L949.49 331.47 L948.55 332.43 L947.89 332.61 L947.51 332.35 L946.38 331.25 L945.86 330.89 L944.63 330.58 L943.26 330.45 L937.91 330.82 L936.65 330.65 L935.33 330.11 L934.37 329.39 L933.94 329.16 L933.27 329.05 L932.62 329.16 L931.33 329.65 L930.66 329.74 L929.81 329.39 L927.38 327.39 L925.25 326.32 L924.55 325.77 L923.17 324.7 L922.54 324.57 L921.58 324.71 L921.12 324.93 L920.63 325.42 L920.16 325.52 L919.73 325.45 L919.37 325.32 L912.5 321.61 L911.61 321.35 L909.98 321.5 L907.88 322.07 L905.88 322.92 L904.55 323.93 L902.32 324.7 L900.22 324.39 L895.9 322.95 L895.45 322.62 L895.22 321.49 L894.77 321.14 L894.14 321.06 L893.68 321.1 L891.1 322.15 L890.76 322.39 L890.43 322.93 L890.32 323.39 L890.26 323.84 L890.06 324.36 L883.51 333.95 L882.87 335.73 L882.69 336.09 L881.85 336.46 L877.36 337.22 L874.37 338.21 L872.03 338.49 L872 336.63 L871.89 335.71 L871.48 335.31 L870.89 334.48 L871.82 330.81 L871.48 329.98 L871.13 329.79 L869.35 328.35 L869.12 328 L868.85 327.36 L868.63 327.01 L868.3 326.91 L867.96 327.19 L867.63 327.55 L867.33 327.7 L865.74 326.92 L865.03 326.8 L864.98 326.52 L865.06 325.87 L865 325.11 L864.41 324.39 L863.45 325.16 L862.7 325.61 L860.08 329.09 L856.14 332.81 L853.86 334.19 L847.96 335.58 L826.2 340.74 L811.65 341.43 L810.53 341.13 L808.19 340.17 L795.73 337.65 L785.93 339.11 L783.35 340.11 L776.36 343.99 L773.96 344.69 L772.77 344.76 L771.63 344.99 L770.52 345.42 L769.47 346.08 L762.55 350.73 L758.83 353.24 L756.88 354.16 L754.92 354.53 L753.04 355.17 L747.85 358.3 L736.64 362.52 L719.74 365.77 L709.18 367.79 L706.37 367.91 L698.34 365.19 L695.62 365.39 L694.47 365.73 L685.98 366.14 L682.3 365.66 L679.12 364 L677.61 362.4 L672.08 356.55 L669.5 355.11 L659.57 352.11 L656.14 351.67 L654.35 351.86 L650.85 353.23 L645.79 356.47 L644.84 357.07 L643.38 357.47 L635.01 361.32 L626.36 363.18 L623.19 364.58 L615.49 369.55 L613.32 369.54 L604.83 367.97 L603.67 368.06 L600.35 368.92 L599.37 368.79 L598.51 368.53 L597.65 368.46 L596.66 368.91 L595.85 369.73 L595.45 370.34 L594.96 370.48 L593.93 369.91 L592.95 369.03 L592.75 368.28 L593.21 366.19 L593.15 364.84 L592.74 364 L591.15 362.52 L590.35 361.76 L589.36 361.19 L588.32 360.77 L587.32 360.54 L584.02 360.33 L574.41 356.97 L574.36 356.95 L573.86 356.89 L573.38 356.92 L573.56 358.51 L572.97 359.77 L572.12 360.93 L571.47 362.21 L571.24 363.65 L571.2 364.91 L571.02 366.19 L570.4 367.72 L569.69 370.47 L569.73 373.36 L569.49 376.17 L567.93 378.67 L567.7 379.65 L567.84 380.72 L568.83 384.25 L569.1 384.74 L569.47 385.06 L570.3 385.43 L570.55 385.62 L570.8 386.05 L570.95 386.5 L571.01 386.99 L571 387.56 L570.66 388.53 L570.37 389.12 L570.13 389.13 L570.66 389.65 L572.38 389.84 L573.23 390.17 L573.84 390.88 L573.84 390.89 L574.35 391.88 L574.72 392.95 L574.91 393.86 L574.95 395.32 L574.65 395.86 L570.95 396.57 L569.96 396.55 L566 395.94 L565.04 396.09 L564.45 396.29 L564.26 396.71 L564.19 397.17 L563.94 397.54 L563.5 397.75 L563.21 397.75 L562.9 397.65 L561.47 397.45 L560.75 397.21 L560.1 396.74 L559.44 395.95 L558.83 396.56 L559.58 397.45 L559.51 398.01 L559.09 398.44 L558.79 398.93 L558.69 399.88 L558.53 409.22 L558.66 411.06 L557.54 411.43 L555.49 410.62 L554.45 411.05 L554.44 411.06 L554.01 413.33 L553.18 413.53 L551.92 413.18 L550.24 413.79 L549.09 415.66 L548.77 420.21 L548.19 422.11 L548.07 422.14 L547.19 422.29 L544.15 420.08 L542.61 419.35 L540.97 419.3 L540.16 419.11 L539.55 418.58 L539.44 417.81 L539.59 416.97 L539.58 416.14 L538.92 415.39 L537.9 415.55 L536.85 415.94 L535.82 416.15 L535.32 415.98 L535.33 415.97 L535.92 415.09 L538.18 411.08 L538.74 410.61 L538.67 409.48 L537.26 405 L533.6 398.9 L532.88 397.94 L532.23 396.86 L531.65 394.86 L530.91 394.01 L530.07 393.23 L529.43 392.45 L528.85 390.99 L528.92 389.95 L530.34 387.83 L530.79 387.3 L531.3 386.96 L531.86 386.79 L532.47 386.74 L532.74 386.5 L533.35 384.93 L533.78 384.47 L534.7 383.98 L535.17 383.6 L535.42 383.01 L535.71 381.65 L536.34 381.23 L536.59 380.92 L536.95 380.6 L539 379.86 L539.44 379.61 L541.91 376.53 L542.3 375.83 L542.85 375.79 L548.47 372.21 L549.29 372.02 L549.83 371.52 L550.46 370.35 L550.99 369.02 L551.25 368.02 L551.22 367.19 L551.01 366.58 L550.74 366.01 L550.53 365.31 L550.5 364.86 L550.53 360.76 L550.34 359.76 L549.83 358.64 L546.74 354.23 L544.94 352.41 L543.02 351.02 L541.01 350.5 L539.17 351.2 L537.39 352.81 L534.41 356.47 L533.69 357.06 L532.83 357.3 L532.32 357.72 L530.59 359.72 L529.79 360.37 L527.79 360.86 L523.45 361.06 L521.55 361.75 L520.95 362.36 L520.34 363.57 L519.77 363.97 L519.97 363.52 L520.01 363.21 L519.84 362.95 L519.41 362.64 L518.9 363.65 L518.13 364.44 L517.65 365.23 L517.99 366.24 L518.77 365.16 L519.94 365.51 L520.09 364.46 L520.39 364.56 L520.58 364.73 L520.71 364.99 L520.84 365.31 L521.08 364.86 L521.17 364.4 L521.11 363.94 L520.84 363.53 L521.57 363.1 L521.87 363.49 L522.06 364.13 L522.44 364.46 L523.02 364.27 L523.53 363.92 L524.08 363.71 L524.76 363.97 L521.68 365.41 L520.24 366.52 L519.41 368.02 L519.51 368.73 L520.21 368.25 L522.55 365.52 L523.24 365.07 L524.05 364.87 L522.09 366.89 L521.79 367.44 L521.34 368.6 L521.02 369.11 L520.79 369.77 L520.78 370.6 L520.7 371.31 L520.29 371.62 L519.79 371.75 L519 372.33 L518.5 372.46 L516.82 372.6 L516.17 372.46 L514.53 370.94 L514.03 370.68 L513.31 370.87 L512.85 371.31 L512.72 371.88 L513.24 371.97 L513.67 372.14 L515.46 372.91 L513.25 372.3 L510.99 372.02 L510.55 372.16 L509.31 372.84 L509.03 373.13 L508.85 373.61 L508.37 373.89 L507.26 374.28 L505.9 375.4 L505.79 375.61 L505.26 375.32 L504.44 374.08 L503.85 373.79 L503.11 373.57 L489.9 365.58 L488.46 365.07 L486.79 363.92 L485.75 363.53 L484.92 363.45 L484.23 363.48 L484.05 363.49 L483.22 363.66 L482.52 363.97 L482.63 363.67 L482.91 362.64 L482.16 362.27 L480.02 359.97 L475.74 357.7 L475.44 358.19 L473.92 357.34 L471.68 357.85 L468.22 359.48 L466.64 359.72 L466.05 359.97 L464.46 360.86 L464.15 361.14 L463.64 362.36 L463.37 362.64 L461.77 363.53 L457.17 367.69 L451.54 371.22 L449.91 372.63 L445.43 378.38 L444.97 379.36 L444.77 380.01 L444.27 380.43 L443.18 380.94 L441.33 382.86 L439.52 383.88 L439.39 385.6 L439.66 387.66 L439.55 389.39 L438.5 390.23 L436.9 390.56 L435.47 391.07 L434.92 392.45 L435.21 392.35 L435.39 392.17 L435.27 392.59 L434.28 393.89 L433.85 394.7 L433.66 395.64 L433.62 396.41 L433.34 396.86 L432.42 396.87 L432.42 396.47 L432.92 395.3 L432.66 393.52 L431.87 391.88 L430.8 391.17 L430.01 390.9 L429.38 390.45 L428.75 390.3 L427.93 390.94 L427 392.53 L426.49 393.1 L425.61 393.37 L426.01 393.48 L426.17 393.6 L426.33 393.86 L425.75 394.4 L424.99 395.75 L424.35 396.03 L423.83 396.12 L422.05 396.87 L421.67 397.18 L420.08 398.92 L419.83 399.61 L419.49 401.36 L419.2 401.81 L419.04 401.41 L417.74 399.37 L417.54 398.47 L417.05 398.22 L416.37 398.37 L415.63 398.68 L414.41 399.76 L413.23 401.31 L412.09 402.43 L410.96 402.22 L411.67 401.81 L411.67 401.33 L410.46 401.19 L408.23 400.59 L407.18 400.45 L406.06 400.67 L404.2 401.63 L403.43 401.81 L401.41 401.11 L400.32 400.97 L399.35 402.13 L398.21 402.27 L395.88 402.22 L394.34 402.65 L393.74 402.7 L393.1 402.54 L391.98 401.95 L391.44 401.81 L390.25 402.15 L389.59 402.97 L389.1 403.99 L388.4 404.9 L387.83 405.32 L387.62 405.32 L387.45 405.12 L386.96 404.9 L386.29 404.81 L384.65 404.9 L381.18 404.04 L380.16 403.98 L376.81 405.82 L376.21 406.03 L375.76 406.73 L372.99 408.92 L370.74 408.77 L366.04 407.65 L364.04 406.67 L360.88 404.6 L360.67 404.46 L358.77 404.29 L357.83 404.01 L353.85 401.71 L353.31 401.13 L352.93 400.36 L352.01 399.97 L350.94 399.67 L350.1 399.17 L347.66 395.89 L347.22 395.83 L346.99 395.5 L346.02 394.84 L345.79 394.46 L345.58 392.62 L345.43 392.05 L344.21 390.27 L341.05 387.48 L340.41 385.61 L340.33 385.08 L340.11 384.62 L339.52 383.82 L338.93 382.81 L338.76 382.59 L338.06 382.3 L337.91 382.27 L336.99 380.25 L336.34 379.18 L335.56 378.72 L332.37 375.46 L331.99 375.26 L331.53 375.18 L330.94 375.17 L330.37 375.04 L329.97 374.75 L329.66 374.45 L329.35 374.28 L327.25 374.37 L326.2 374.21 L325.75 373.57 L325.16 373.01 L323.82 372.52 L322.37 372.28 L321.44 372.46 L320.95 371.99 L318.94 371.13 L317.92 369.68 L317.25 369.03 L316.61 369.11 L315.52 368.94 L311.56 367.17 L310.67 366.44 L309.92 365.55 L300.06 361.14 L298.55 360.86 L298.43 359.28 L296.58 358.19 L275.62 355.03 L267.07 355.52 L265.61 355.12 L264.51 354.45 L262.4 352.8 L259.37 354.86 L257.97 356.26 L257.23 358.29 L256.54 359.43 L256.3 359.97 L256.3 361.97 L256.03 364.1 L256.09 365.26 L256.66 366.24 L256.66 366.64 L256.25 367.18 L255.93 367.71 L255.7 368.37 L255.59 369.31 L255.68 370.5 L255.99 371.17 L256.37 371.71 L256.66 372.46 L257.02 372.02 L256.89 373.4 L256.17 375.69 L256.3 376.46 L254.53 377.95 L253.74 378.95 L253.11 381.25 L251.97 383.03 L252.03 383.6 L251.33 384.67 L251.42 385.8 L251.98 386.71 L252.74 387.14 L252.35 388.07 L253.69 388.55 L252.95 389.49 L251.55 390.71 L250.92 392.05 L251.28 392.05 L251.52 391.76 L251.55 391.79 L251.64 391.94 L252.03 392.05 L251.49 392.59 L250.77 393.13 L250.13 393.74 L249.56 395.19 L248.86 396.03 L247.36 397.35 L247.45 394.62 L247.22 393.5 L246.61 392.93 L245.37 393.3 L239.83 390.72 L238.75 390.69 L234.82 391.35 L234.33 391.92 L234.14 392.87 L234.09 394.22 L233.77 394.22 L233.7 393.81 L233.38 392.93 L233.05 394.17 L233.05 394.7 L232.31 394.22 L232.34 394.68 L232.31 395.15 L230.35 394.7 L229.96 394.51 L229.56 394.14 L229.05 393.93 L228.36 394.22 L229.46 394.22 L229.46 394.7 L225.93 396.59 L225.15 396.47 L224.51 396.84 L223.93 396.81 L223.31 396.6 L222.65 396.47 L222.17 396.51 L221.92 396.64 L221.22 397.35 L220.34 397.84 L218.39 398.3 L217.66 398.68 L217.83 398.74 L217.97 398.76 L218.05 398.85 L218.02 399.17 L217.52 399.16 L216.22 399.56 L216.22 400.01 L217.29 400.01 L216.59 400.72 L215.84 401.29 L215.02 401.66 L214.09 401.81 L214.09 401.33 L214.38 401.12 L214.53 400.92 L214.64 400.7 L214.8 400.45 L214.12 400.55 L213.96 400.65 L213.73 400.93 L213.13 400.27 L212.51 400.05 L211.87 400.16 L211.23 400.45 L211.07 400.69 L211.03 400.98 L210.86 401.22 L210.31 401.33 L210.28 401.54 L209.42 402.7 L209.2 401.38 L207.42 400.52 L206.89 399.17 L207.59 399.52 L207.9 399.17 L207.84 398.58 L207.45 398.28 L204.78 398.68 L204.78 398.28 L205.25 398.01 L205.76 397.83 L206.32 397.75 L206.89 397.8 L205.76 397.29 L201.54 397.35 L200.13 397.03 L196.87 395.15 L196.26 395.76 L195.99 395.17 L195.8 393.37 L195.5 393.84 L195.29 393.74 L195.1 393.45 L194.77 393.37 L194.23 393.6 L194.02 393.75 L193.9 393.93 L193.63 394.22 L193.36 394.61 L193.17 395.05 L192.95 395.43 L192.56 395.63 L192.1 395.32 L191.78 394.65 L191.5 394.24 L191.13 394.7 L187.95 391.68 L187.71 391.46 L187.24 390.5 L186.56 389.69 L183.44 388.68 L182.58 387.58 L181.86 388.07 L181.65 387.21 L181.71 387.02 L181.86 386.74 L181.86 386.26 L180.4 386.26 L180.79 385.85 L180.19 385.47 L179.85 385.37 L179.33 385.37 L179.6 384.76 L180 384.36 L180.51 384.12 L181.11 384.04 L181.08 383.74 L181.05 383.68 L180.97 383.69 L180.79 383.6 L181.1 382.41 L180.79 381.3 L180.12 380.44 L179.33 380.01 L179.33 379.61 L180.02 379.03 L180.34 378.84 L180.79 378.72 L180.79 378.23 L180.58 375.97 L180.3 374.86 L179.72 375.17 L179.33 375.17 L178.7 374.37 L176.2 375.34 L175.05 375.17 L176.01 374.91 L176.23 374.29 L175.94 373.42 L175.37 372.46 L175.66 372.02 L176.13 370.82 L176.48 370.2 L177.22 370.85 L177.86 370.22 L178.53 369.27 L179.33 368.91 L179.33 369.31 L179.03 370.02 L179.46 370.24 L180.08 370.06 L180.4 369.55 L180.28 368.97 L180 368.4 L179.65 367.9 L179.33 367.53 L176.09 365.2 L172.02 363.48 L171.49 362.86 L171.11 361.93 L170.26 362.57 L169.29 363.77 L168.6 364.46 L168.6 364.87 L168.96 364.87 L168.96 365.31 L167.97 365.4 L167.55 365.51 L167.17 365.75 L166.99 366.3 L167.12 366.89 L167.12 367.36 L166.46 367.53 L166.72 368.09 L166.88 368.28 L167.17 368.46 L166.82 368.91 L167.35 369.51 L167.53 369.79 L167.86 369.79 L168.15 369.14 L168.45 368.63 L168.56 368.03 L168.24 367.13 L169.16 367.99 L168.83 369.08 L167.95 370.09 L167.17 370.68 L167.49 371.35 L166.92 371.7 L166.02 371.77 L165.36 371.62 L164.82 371.02 L164.82 370.43 L165.27 369.97 L166.07 369.79 L166.07 369.31 L165.18 368.87 L164.65 368.41 L164.11 368.18 L163.22 368.46 L162.95 366.74 L161.05 365.42 L158.72 364.94 L157.15 365.75 L156.79 365.75 L156.53 364.55 L155.97 364.08 L155.28 364.32 L154.63 365.31 L154.25 364.88 L153.59 363.08 L154.06 362.2 L154.28 360.9 L154.14 359.71 L153.59 359.08 L153.56 358.77 L153.64 358.69 L153.78 358.69 L153.95 358.64 L153.84 358.44 L153.73 358.3 L153.73 358.09 L153.95 357.7 L153.59 357.7 L153.35 358.3 L153.27 358.58 L153.23 359.08 L152.94 358.81 L152.93 358.74 L152.81 358.23 L152.14 357.48 L150.59 357.22 L149.46 357.88 L149.64 359.48 L149.11 359.03 L148.6 358.9 L148.07 358.85 L147.49 358.64 L148.21 358.19 L148.21 357.7 L147.03 357.71 L146.29 357.53 L145.89 356.89 L145.71 355.52 L146.06 355.55 L146.31 355.49 L146.42 355.27 L146.36 354.88 L146.23 354.7 L146.1 354.59 L146.03 354.38 L145.92 353.69 L145.67 353.29 L145.44 353.33 L145.32 353.94 L144.85 354.53 L143.8 354.85 L142.29 355.03 L141.74 355.2 L141.78 355.59 L142.11 356.05 L142.47 356.41 L142.79 356.44 L143.23 356.3 L143.73 356.33 L144.25 356.85 L143.7 357.8 L143.3 358.77 L142.75 359.44 L141.75 359.48 L139.04 358.09 L138.51 357.7 L138.19 357.7 L138.4 358.73 L138.51 359.08 L137.14 359.16 L136.59 358.98 L136.37 358.41 L136.6 357.83 L137.15 357.55 L138.51 357.3 L138.51 356.85 L137.88 356.42 L137.14 355.76 L136.33 355.36 L135.5 355.74 L134.77 356.81 L134.43 357.89 L134.57 358.83 L135.3 359.48 L135.06 360.91 L137.14 362.49 L137.48 363.97 L136.85 363.53 L136.02 363.26 L135.28 363.45 L134.94 364.46 L134.6 364.26 L134.26 363.97 L134.25 364.29 L134.18 364.5 L134.05 364.66 L133.84 364.87 L134.09 364.96 L134.16 364.97 L134.26 365.31 L131.56 366.27 L130.54 367.05 L129.6 368.46 L128.89 369.89 L127.89 371.51 L126.67 372.49 L125.29 372.02 L125.09 372.43 L124.94 372.65 L124.71 372.78 L124.25 372.91 L124.36 373.11 L124.47 373.57 L124.57 373.79 L123.94 374.07 L123.42 374.14 L123.02 373.92 L122.79 373.35 L122.25 374.26 L121.59 374.4 L120.9 374.01 L120.29 373.35 L120.39 373.15 L120.54 372.66 L120.65 372.46 L120.37 372.26 L120.21 372.06 L119.93 371.62 L123.86 371.62 L124.88 371.16 L125.48 370.51 L126 369.75 L126.74 368.91 L126.03 368.02 L125.02 368.98 L124.57 369.31 L124.57 368.91 L125.08 368.35 L125.26 367.57 L125.09 366.79 L124.57 366.24 L124.04 365.88 L123.91 366.08 L123.86 366.89 L123.61 367.2 L123.05 367.14 L122.45 366.89 L122.07 366.64 L121.62 366.84 L121.03 366.84 L120.51 366.58 L120.29 366 L120.56 365.76 L122.43 365.31 L122.07 364.87 L123.18 364.94 L123.5 364.87 L123.75 364.67 L124.06 364.35 L124.28 364.07 L124.25 363.97 L126.23 363.83 L126.74 363.53 L126.55 364.58 L127.32 364.64 L128.14 364.04 L128.17 363.08 L127.67 362.71 L126.64 362.61 L126.36 362.2 L126.46 361.77 L126.85 361.4 L127.46 360.86 L127.81 360.37 L127.99 360.82 L128.2 361.11 L128.88 361.75 L128.61 360.62 L128.53 359.28 L128.25 358.71 L127.64 358.56 L127.02 358.66 L126.57 358.97 L125.67 360.37 L124.53 361.14 L124.12 361.07 L123.86 360.37 L123.09 361.15 L121.06 361.76 L120.29 362.2 L119.93 362.2 L119.67 361.39 L119.17 361.6 L118.53 362.23 L117.76 362.64 L117.49 361.74 L117.12 361.82 L116.72 362.31 L116.33 362.64 L115.96 362.41 L115.63 361.96 L115.29 361.84 L114.91 362.64 L114.55 362.64 L113.9 362.08 L112.98 361.52 L111.95 361.31 L110.98 361.75 L110.98 361.31 L110.36 361.62 L109.76 361.59 L109.09 361.41 L108.28 361.31 L107.41 361.6 L106.31 363.04 L105.57 363.53 L105.57 363.97 L105.71 364.54 L104.99 366.6 L104.89 368.02 L103.15 367.14 L102.21 366.8 L101.33 366.64 L100.39 366.76 L99.62 366.98 L99.07 366.92 L98.79 366.24 L95.23 367.53 L95 367.98 L94.78 368.3 L94.52 368.46 L94.27 368.33 L93.63 367.69 L93.25 367.53 L92.06 367.31 L91.55 367.29 L90.95 367.53 L90.83 366.74 L90.41 366.3 L89.83 366.26 L89.17 366.64 L89.19 366.37 L89.11 366.28 L88.97 366.28 L88.78 366.24 L89.08 365.83 L89.08 365.44 L88.84 365.1 L88.41 364.87 L88.41 364.46 L89.07 364.73 L89.93 364.94 L90.81 364.96 L91.47 364.66 L91.93 363.99 L92.14 362.95 L92.73 362.2 L93.31 361.75 L93.79 361.64 L95.07 361.75 L98.9 361.18 L100.77 361.31 L101.77 361.01 L102.05 360.3 L102.1 359.43 L102.39 358.64 L103.54 358.33 L105.93 359.77 L106.67 359.48 L107.5 359.94 L108.23 359.9 L108.91 359.77 L109.53 359.97 L110.87 358.68 L111.57 358.32 L116.13 358.17 L116.69 357.95 L117.03 358.37 L117.87 358.77 L118.93 359.03 L119.93 359.08 L121.76 358.85 L122.61 359.12 L123.5 359.97 L123.67 359.29 L123.99 358.92 L124.96 358.19 L124.63 357.4 L124.13 357.01 L123.41 356.87 L122.43 356.85 L122.79 356.41 L123.28 356.58 L123.35 356.2 L123.04 355.58 L122.43 355.03 L122.67 354.99 L122.82 354.89 L122.97 354.76 L123.17 354.62 L123.56 354.82 L123.96 354.66 L124.41 354.36 L124.96 354.14 L124.96 353.73 L123.92 352.65 L123.5 352.06 L123.17 351.46 L123.86 351.95 L124.25 351.46 L123.94 351.27 L123.8 351.07 L123.69 350.83 L123.5 350.53 L123.94 350.56 L124.84 350.49 L125.29 350.53 L125.29 350.12 L124.25 350.12 L124.25 349.68 L125.48 349.66 L125.98 349.78 L126.36 350.12 L126.69 349.83 L126.95 349.75 L127.19 349.86 L127.46 350.12 L127.81 350.12 L128.34 349.76 L129.48 350.35 L129.99 350.12 L130.28 350.12 L130.38 350.61 L130.7 351.46 L130.85 351.12 L130.86 350.99 L130.8 350.86 L130.7 350.53 L130.86 350.25 L130.85 350.04 L130.64 349.86 L130.28 349.68 L130.28 349.23 L130.76 349.16 L131.18 349.22 L131.5 349.39 L131.74 349.68 L132.78 347.89 L133.16 347.45 L133.16 346.96 L132.45 346.96 L132.87 346.33 L133.16 345.66 L134 346.3 L134.84 346.46 L135.28 346.1 L134.94 345.17 L137.74 344.05 L139.28 343.69 L139.27 343.28 L138.92 342.82 L138.51 342.49 L137.98 342.36 L131.17 343.39 L128.66 343.34 L127.67 343.58 L127.81 344.28 L127.81 344.76 L126.92 344.28 L121.36 343.39 L120.79 343.57 L120.14 344.14 L119.55 344.28 L118.98 344.23 L117.43 343.87 L116.12 343.97 L111.86 345.39 L111.31 345.17 L110.98 345.17 L110.9 345.45 L110.59 346.1 L110.2 345.96 L109.68 345.86 L109.07 345.89 L108.46 346.1 L107.42 345.35 L105.75 345.33 L104.08 345.91 L103.07 346.96 L102.11 346.39 L100.66 345.8 L99.45 345.91 L99.18 347.45 L97.97 346.55 L97.42 346.26 L96.68 346.1 L95.1 346.29 L94.52 346.1 L94 345.61 L93.06 344.21 L92.73 343.87 L91.95 343.91 L91.14 344.58 L90.84 344.12 L90.95 343.87 L90.56 343.87 L90.45 344.49 L89.85 346.1 L89.65 345.75 L89.62 345.64 L89.71 345.53 L89.85 345.17 L89.77 345.1 L89.67 345.09 L89.57 345.02 L89.49 344.76 L89.72 344.51 L89.76 344.45 L89.67 344.32 L89.49 343.87 L89.02 344.2 L87.64 344.48 L86.99 344.76 L86.99 345.17 L87.21 345.88 L86.88 346.6 L86.26 347.18 L85.53 347.45 L85.78 348.09 L85.92 348.34 L85.45 348.2 L85.18 348.2 L84.82 348.34 L84.5 347.85 L83.57 348.08 L83.03 347.1 L82.75 345.67 L82.68 344.52 L82.43 343.44 L81.97 342.59 L81.78 341.64 L82.32 340.26 L82.77 340.23 L83.63 339.86 L84.55 339.25 L85.21 338.47 L84.84 338.13 L84.4 337.99 L83.93 338.09 L83.43 338.47 L83.23 338.25 L83.14 338.06 L83.04 337.57 L83.43 337.98 L84.02 337.25 L85.65 337.86 L86.64 337.57 L86.61 337.1 L86.72 336.6 L86.79 336.01 L86.64 335.3 L87.2 335.46 L87.57 335.83 L87.75 336.4 L87.71 337.17 L88.06 337.17 L88.33 336.46 L88.71 335.96 L89.12 335.82 L89.49 336.23 L89.65 336.08 L89.7 335.99 L89.73 335.9 L89.85 335.74 L89.83 336.87 L90.02 337.17 L90.4 337.12 L90.95 337.17 L91.37 337.46 L91.67 337.75 L92.05 337.86 L92.73 337.57 L92.61 337.75 L92.54 337.81 L92.46 337.85 L92.34 337.98 L93.1 339.34 L93.85 339.83 L94.64 339.63 L96.01 338.65 L97.11 338.16 L97.56 337.78 L98.11 337.44 L99.35 337.46 L99.89 337.17 L99.89 336.68 L99.2 336.8 L99.03 336.89 L98.79 337.17 L98.41 335.09 L98.01 334.01 L97.4 333.55 L97.4 333.06 L99.85 332.51 L100.52 332.67 L99.89 333.99 L100.47 333.8 L100.89 333.51 L101.68 332.61 L100.87 332.31 L100.57 331.86 L100.61 330.57 L100.73 330.29 L101.39 329.82 L101.68 329.47 L101.84 329 L101.9 328.16 L102 327.68 L101.37 327.24 L101.33 327.2 L100.88 327.09 L100.75 327.27 L100.73 327.53 L100.61 327.68 L99.33 327.63 L98.73 327.8 L98.47 328.33 L98.2 329.32 L97.54 330.21 L96.71 330.66 L95.95 330.37 L96.87 329.57 L96.98 328.71 L96.4 328.12 L95.23 328.13 L95.07 328.38 L94.57 328.89 L94.05 329.17 L93.79 328.78 L93.93 328.16 L94.27 327.53 L95.23 326.34 L95.17 325.82 L95.42 325.12 L95.49 324.23 L94.91 323.15 L94.52 323.15 L94.3 325 L93.13 325.66 L91.68 325.4 L90.56 324.5 L90.13 323.05 L90.55 321.71 L91.52 320.66 L92.73 320.06 L92.11 319.06 L91.1 318.62 L90.9 318.63 L90.02 318.66 L89.17 319.12 L88.69 319.97 L88.45 320.83 L87.91 321.39 L86.64 321.37 L86.64 321.85 L87.4 322.37 L87.08 322.63 L84.01 322.83 L83.29 323.1 L82.68 323.65 L82.3 323.14 L81.93 322.87 L81.58 322.86 L81.25 323.15 L81.16 322.68 L81.09 322.47 L80.9 322.26 L80.49 322.55 L80.34 322.59 L80.2 322.46 L79.79 322.26 L80.31 321.65 L80.67 321 L80.77 320.31 L80.54 319.57 L81.34 319.19 L81.64 319.12 L81.64 318.67 L81.19 317.4 L81.45 314.4 L80.54 314.67 L80.24 314.28 L79.89 314.28 L79.51 314.58 L79.11 315.08 L79.33 313.97 L79.64 312.99 L79.77 312.04 L79.47 311.03 L79.66 310.6 L79.45 310.32 L79.25 309.94 L79.47 309.19 L80.29 309.74 L80.76 308.7 L80.91 307.23 L80.72 306.49 L79.95 306.22 L76.94 304.24 L72.38 302.98 L70.43 301.95 L70.91 300.59 L71.83 300.34 L75.34 300.59 L76.47 300.44 L80.96 298.8 L81.65 298.31 L82.86 296.76 L83.23 295.76 L83.43 294.27 L83.49 292.85 L83.43 292.02 L83.03 291.41 L82.54 290.85 L82.21 290.08 L82.32 288.82 L82.5 288.58 L83.18 287.98 L83.43 287.51 L83.59 286.9 L83.69 286.35 L83.65 285.82 L83.43 285.21 L84.18 284.54 L83.74 283.06 L82.32 280.64 L81.01 281.1 L79.1 281.1 L77.2 280.77 L75.91 280.23 L75.63 279.86 L75.45 279.39 L75.15 279 L74.62 278.83 L74.2 278.81 L73.79 278.71 L73.49 278.52 L73.37 278.18 L73.21 277.15 L72.75 276.81 L71.24 276.57 L68.54 275.51 L67.17 275.37 L65.53 275.7 L64.61 276.08 L64.26 276.11 L64 276.33 L63.85 276.82 L63.64 277.3 L63.2 277.51 L62.77 277.17 L61.58 274.8 L61.86 273.95 L61.81 272.98 L61.55 272 L61.22 271.13 L60.69 270.22 L59.54 269.06 L59.05 268.41 L58.13 268.88 L57.89 268.06 L58.01 266.1 L57.3 265.45 L56.49 265.53 L55.58 265.88 L54.59 266.1 L51.32 266.12 L50.81 266.33 L50.13 270.64 L49.88 270.45 L49.86 270.4 L49.74 270.22 L49.41 270.22 L49.57 271.17 L49.57 272.02 L49.3 272.66 L48.67 272.95 L48.34 272.66 L47.72 271.04 L47.24 270.22 L47.22 271.62 L46.68 271.73 L45.97 271.18 L44.95 270.06 L44.61 269.51 L44.52 268.84 L44.72 267.92 L43.28 268.29 L41.96 267.19 L40.69 265.77 L39.4 265.19 L39.64 266.25 L39.75 266.55 L39.4 266.55 L39.12 266.14 L37.97 264.98 L38.06 264.3 L38.2 263.72 L38.22 263.13 L37.97 262.47 L37.61 262.47 L37.18 264.25 L36.08 264.69 L34.76 264.24 L33.06 262.8 L32.56 262.51 L29.85 261.66 L29.77 261.23 L30.06 260.19 L31.45 260.8 L32.03 259.88 L32.52 258.67 L33.66 258.38 L33.66 257.88 L32.68 257.21 L32.54 255.99 L32.95 255.26 L33.66 256.06 L33.75 255.44 L33.88 255.18 L34.08 255.02 L34.37 254.74 L34.58 255.55 L34.62 256.26 L34.45 256.88 L34.01 257.47 L34.27 257.67 L34.54 257.8 L34.86 257.87 L35.28 257.88 L35.68 258 L35.79 258.26 L35.86 258.57 L36.19 258.79 L36.95 258.84 L37.7 258.69 L38.06 258.25 L37.61 257.47 L37.61 257.01 L38.43 257.55 L38.76 257.56 L39.4 257.47 L40.01 257.2 L41.34 256.26 L41.73 256.06 L42.45 255.46 L42.51 254.13 L42.04 252.75 L41.18 252.01 L41.18 251.51 L42.5 252.14 L43.14 252.84 L43.6 252.77 L44.39 251.06 L43.65 250.61 L42.37 249.43 L41.3 249.04 L40.61 248.4 L40.1 248.32 L39.64 248.6 L39.23 249.5 L38.86 249.69 L37.85 249.64 L37.87 249.36 L38.34 248.67 L38.68 247.42 L38.48 246.61 L36.9 244.22 L37.22 244.68 L37.08 243.86 L36.43 241.85 L36.35 241.44 L36.4 241 L35.8 238.48 L35.82 237.53 L35.93 236.55 L36.2 235.78 L36.71 235.47 L37.49 235.33 L38.64 234.73 L39.22 234.59 L40.61 234.71 L41.91 235.04 L43.06 235.6 L44 236.38 L45.77 238.32 L46.63 239.54 L46.88 240.57 L48.1 242.51 L49.41 244.22 L49.87 244.67 L50.23 244.94 L50.52 245.3 L50.81 246.05 L50.91 246.78 L50.89 247.44 L50.92 248.07 L51.19 248.74 L50.85 249.02 L50.66 249.13 L50.46 249.19 L50.05 248.81 L49.5 248.69 L48.9 248.83 L48.31 249.19 L49.21 249.67 L49.19 250.27 L48.74 251.04 L48.31 252.01 L49.55 252.17 L50.09 252.9 L50.41 253.91 L51 254.95 L51.91 258 L52.75 259.43 L53.87 259.04 L54.15 258.2 L53.82 257.63 L52.98 257.01 L52.62 254.24 L52.9 253.1 L53.49 251.94 L54.28 251.24 L55.15 251.51 L55.15 251.06 L55.48 251.06 L56.07 251.73 L56.67 252.94 L57.65 255.65 L57.89 255.51 L58.49 255.29 L58.72 255.15 L59.12 256.01 L59.89 255.92 L60.82 255.44 L61.75 255.15 L65.89 254.74 L68.46 253.51 L69.29 253.33 L69.54 253.2 L70.22 252.6 L70.52 252.42 L71.06 252.45 L71.55 252.65 L72.05 252.75 L72.67 252.42 L72.74 252.69 L73.02 252.42 L74.46 253.1 L75.67 252.32 L76.9 251.01 L78.41 250.15 L78.41 249.69 L77.9 249.29 L77.67 249.34 L77.3 249.69 L76.94 249.19 L75.94 249.66 L74.18 249.47 L73.73 249.69 L72.39 249.04 L70.99 249.09 L67.72 250.46 L66.62 250.97 L66.45 250.93 L66.96 250.15 L66.06 249.52 L64.48 246.94 L63.77 246.5 L62.47 246.08 L61.95 245.76 L60.79 244.83 L60.15 243.73 L60.91 244.49 L61.84 245.2 L63.26 246.08 L64.07 246.05 L64.07 245.59 L63.44 244.82 L62.78 244.21 L62.06 243.72 L61.22 243.31 L61.44 242.52 L61.71 240.88 L61.93 240.08 L61.17 239.35 L60.69 239.58 L60.1 240.06 L59.05 240.08 L59.28 239.39 L59.43 239.12 L58.3 238.72 L57.65 238.63 L56.93 238.71 L57.04 238.4 L57.16 237.65 L57.26 237.34 L56.58 237.32 L56.09 237.06 L55.15 236.38 L55.52 235.96 L55.91 235.65 L56.37 235.47 L56.93 235.47 L55.89 233.91 L55.51 233.03 L55.15 231.81 L56.12 231.15 L58.8 230.58 L60.33 229.5 L60.62 229.62 L60.81 229.85 L60.89 229.98 L60.98 230.05 L61.56 230.15 L62.07 230.16 L63.27 230.7 L64 230.94 L64.79 230.9 L64.46 229.98 L64.97 229.62 L65.4 229.2 L65.81 229.05 L66.24 229.53 L66.4 229 L66.43 228.5 L66.37 227.93 L66.24 227.24 L65.89 227.74 L64.84 225.86 L64.46 225.41 L66.57 224.49 L66.89 225.93 L67.78 226.11 L68.33 225.23 L67.67 223.54 L68.54 223.26 L69.35 222.83 L70.03 222.3 L70.52 221.75 L71.58 222.46 L72.7 221.75 L73.1 220.69 L71.98 220.37 L72.85 218.57 L72.85 217.81 L71.98 217.12 L71.09 217.92 L70.5 218.33 L69.89 218.48 L68.92 218.49 L68.65 218.28 L68.13 217.33 L67.86 217.12 L67.21 217.33 L66.78 217.67 L66.39 217.74 L65.89 217.12 L65.3 217.66 L63.51 218.72 L62.84 218.91 L62.29 218.63 L61.47 217.4 L60.7 217.12 L59.72 216.44 L59.23 214.9 L59.34 213.2 L60.15 212.08 L60.15 211.62 L59.88 211.64 L59.05 211.62 L59.71 210.82 L60.9 209.91 L62.2 209.16 L63.2 208.86 L63.72 208.28 L63.31 206.98 L62.09 204.93 L60.62 203.06 L59.89 202.5 L58.27 201.65 L57.87 201.44 L56.85 200.67 L56.13 199.82 L56.19 199.12 L55.77 197.77 L55.54 196.43 L55.14 195.39 L54.23 194.98 L51.72 195.12 L50.45 195.02 L49.41 194.56 L49.94 194.02 L50.25 192.66 L50.63 191.98 L51.31 191.7 L51.79 191.99 L51.74 192.45 L50.81 192.67 L50.81 193.09 L51.37 193.07 L51.86 193.27 L52.27 193.63 L52.62 194.06 L52.32 193.01 L52.6 192.48 L53.17 192.17 L53.69 191.79 L54.61 190.39 L60.15 186.17 L59.66 185.79 L59.43 185.71 L59.43 185.29 L59.51 184.83 L59.52 184.43 L59.43 183.86 L61.33 183.72 L62.03 183.44 L62.67 182.94 L62.1 181.95 L62.93 181.29 L65.96 180.32 L66.16 180.2 L66.15 179.94 L66.24 179.25 L66.96 176.68 L66.89 175.24 L66.57 174.3 L65.76 173.8 L64.26 173.65 L63.06 174.16 L62.1 175.07 L61.1 175.52 L59.79 174.58 L52.44 175.92 L41.45 177.93 L40.27 178.42 L39.75 179.01 L39.21 179.01 L36.92 180.33 L36.51 180.63 L35.88 180.63 L33.12 180.13 L32.56 180.2 L31.88 180.56 L31.33 180.63 L30.85 181.2 L30.77 181.34 L30.61 181.69 L30.26 181.56 L29.7 181.09 L25.57 182.13 L23.49 182.13 L21.47 181.09 L21.25 179.62 L22.55 176.08 L23.37 172.73 L25.33 170.82 L25.78 169.25 L26.14 165.52 L25.91 164.79 L24.94 162.9 L24.72 162.02 L24.79 161.42 L25.01 161.2 L25.26 161.04 L25.42 160.64 L25.42 159.01 L25.68 157.23 L25.51 156.62 L24.72 156.46 L25 155.68 L25.78 152.28 L25.74 151.86 L25.46 150.53 L25.42 149.91 L25.56 149.31 L26.03 148.38 L26.14 147.81 L26.35 147.2 L27.44 145.27 L27.92 144.79 L30.71 145.74 L31.53 145.18 L33.28 144.41 L33.84 144.07 L36.04 141.84 L36.51 141.06 L36.66 140.5 L36.72 139.62 L36.9 139.2 L36.94 138.93 L36.89 138.63 L36.89 138.37 L37.06 138.26 L37.64 138.29 L37.91 138.22 L38.13 138.01 L38.46 137.15 L38.67 135.91 L38.64 134.61 L38.29 133.6 L38.63 132.59 L38.9 132.17 L39.26 132.09 L39.93 132.11 L40.65 131.97 L42.01 131.33 L43.75 130.85 L44.72 130.01 L47.03 126.94 L47.5 126.63 L47.96 126.47 L48.67 126.08 L49.33 125.55 L54.92 118.68 L56.02 117.79 L58.16 117.66 L62.67 118.05 L64.46 117.62 L65.03 117.78 L66.4 118.55 L69.38 118.82 L70.52 118.55 L71.98 117.38 L73.26 115.74 L74.86 114.45 L77.3 114.34 L79.07 114.69 L81.08 114.77 L82.24 114.48 L84.01 113.38 L84.82 113.36 L85.67 114.03 L86.21 115.01 L86.99 117.11 L86.28 117.62 L85.92 117.62 L85.68 117.32 L85.67 117.29 L85.59 117.42 L85.21 117.62 L87.46 120.07 L90.35 122.01 L93.45 123.38 L97.16 124.29 L98.62 124.29 L99.18 124.17 L101.01 122.95 L101.85 122.77 L103.3 123.1 L104.57 123.7 L105.77 123.95 L107.03 123.23 L108.09 123.71 L109.67 123.84 L111.08 123.49 L112.31 121.66 L115.13 120.17 L115.98 118.98 L115.02 118.94 L112.41 118.05 L111.64 118.52 L111.19 118.53 L110.98 117.83 L110.87 117.15 L110.58 116.96 L110.23 116.91 L109.91 116.64 L109.57 116.09 L109.34 115.8 L109.22 115.41 L109.17 114.55 L109.01 114.09 L108.62 113.99 L108.15 113.99 L107.74 113.83 L106.04 112.12 L105.57 111.44 L105.57 111.01 L106.2 110.73 L106.71 110.36 L107.56 109.37 L108.12 109.07 L108.58 109.37 L109.01 109.47 L109.53 108.63 L110.52 109.92 L110.59 110.12 L111.06 110.2 L111.21 110 L111.36 109.74 L111.86 109.61 L120.49 110.97 L122.8 111.78 L123.86 112.93 L122.94 114.53 L118.4 116.88 L117.05 118.05 L117.28 119.81 L119.17 120.37 L123.5 119.96 L127.91 118.31 L140.24 117.76 L142.98 118.22 L147.49 118.05 L146.93 118.18 L146.49 118.43 L146.18 118.84 L146.03 119.45 L148.16 118.65 L150.55 118.63 L153.03 119.28 L155.37 120.43 L155.69 120.01 L155.88 120.09 L156.08 120.34 L156.44 120.43 L156.9 120.22 L157.45 119.68 L157.87 119.45 L160.82 118.97 L161.61 118.3 L162.39 117.86 L163.4 118.01 L165.18 118.55 L166.76 118.64 L168.24 118.98 L168.97 119.32 L170.19 120.09 L171.1 120.43 L172.03 120.56 L176.07 120.48 L177 120.28 L177.73 119.7 L178.16 118.82 L178.62 116.96 L179.01 116.17 L179.67 116.46 L180.51 116.42 L181.42 116.13 L182.22 115.7 L181.28 114.56 L180.12 113.5 L178.89 112.72 L177.73 112.42 L174.87 112.42 L174.43 112.64 L173.27 113.61 L172.71 113.83 L169.95 113.17 L165.34 110.28 L162.5 109.61 L163.47 107.51 L165.25 106.32 L168.96 104.87 L170.53 103.86 L172.74 101.58 L173.59 101.22 L189.01 99.76 L191.18 99.02 L193.3 97.82 L194.39 96.97 L194.77 96.87 L195.15 97.24 L195.57 97.89 L196.07 98.33 L196.69 98.04 L197.17 97.73 L197.83 97.46 L198.4 97.13 L198.65 96.62 L198.85 96.11 L199.33 95.76 L199.93 95.54 L200.48 95.42 L201 95.52 L201.85 95.93 L202.62 96.75 L202.97 98.04 L203.55 98.03 L213.65 95.72 L219.6 95.42 L221.5 96.29 L222.57 96.28 L223.37 95 L222.84 93.41 L220.8 93.04 L216.58 93.58 L216.22 93.7 L215.84 93.89 L215.39 94.05 L214.8 94.06 L214.2 93.78 L213.15 92.81 L212.83 92.6 L211.99 92.45 L210.16 91.79 L209.1 91.66 L196.69 92.17 L195.73 92.5 L194.9 93.13 L194.03 93.52 L192.94 93.11 L192.5 92.52 L192.28 91.88 L192.04 91.38 L191.49 91.18 L191.7 91.04 L191.83 90.9 L191.99 90.77 L192.24 90.67 L192.04 89.98 L191.71 89.49 L191.29 89.13 L190.78 88.83 L190.55 89.26 L190.06 88.83 L189.63 89.23 L189.01 89.46 L187.6 89.77 L187.6 89.34 L188.1 89.28 L188.44 89.01 L188.62 88.53 L188.64 87.84 L189.14 88.18 L189.36 88.36 L189.32 88.06 L189.37 87.91 L189.5 87.86 L189.71 87.84 L189.13 86.95 L188.09 85.7 L187.55 85.31 L186.89 84.82 L185.82 85.02 L184.82 84.03 L181.86 82.64 L180.79 81.75 L179.71 80.38 L178.64 79.49 L175.77 77.93 L175.97 77.8 L176.02 77.77 L176.02 77.69 L176.12 77.42 L175.52 77.16 L175.26 76.43 L175.07 75.48 L174.7 74.59 L175.66 74.05 L176.71 72.85 L177.56 71.41 L178.28 68.77 L178.9 67.77 L179.03 66.93 L177.91 66.11 L179.14 64.2 L181.09 62.01 L183.16 60.53 L184.74 60.81 L185.07 60.81 L185.59 60.1 L186.41 60.01 L196.22 61.84 L206.62 64.3 L220.51 66.37 L233.69 66.73 L235.17 66.54 L235.94 66.19 L237.16 65.3 L237.87 65.11 L238.36 64.71 L238.74 63.91 L239.1 63.37 L239.51 63.7 L240.07 63.13 L240.7 62.06 L241.29 61.76 L241.98 62.32 L244.12 62.78 L245.86 64.13 L263.06 68.28 L264.8 69.81 L265.61 70.33 L270.06 71.16 L283.5 70.8 L284.79 70.05 L285.29 69.9 L285.93 69.94 L287.05 70.25 L287.62 70.33 L289.77 69.9 L290.08 69.96 L290.58 70.26 L290.85 70.33 L291.25 70.21 L291.36 69.93 L291.46 69.61 L291.77 69.38 L293.93 68.53 L295.67 67.42 L298.55 64.6 L299.29 63.64 L299.72 62.69 L299.93 61.57 L299.98 60.1 L300.09 59.47 L300.58 58.09 L300.69 57.25 L300.45 56.87 L299.47 56.2 L299.29 55.63 L299.85 54.74 L300.98 54.32 L303.38 54.16 L303.67 53.87 L304.51 52.57 L304.8 52.27 L305.34 52.14 L313.19 49.07 L324.3 41.64 L330.66 38.5 L332.56 36.99 L333.07 36.68 L338.01 35.02 L339.46 34.14 L340.33 32.4 L343.72 28.48 L343.97 28.12 L344.77 26.58 L346.53 26.07 L349.39 25.93 L349.48 25.49 L349.91 25.34 L350.46 25.01 L350.56 24.53 L350.71 24.2 L350.99 24.06 L351.24 24.22 L351.71 24.89 L351.89 25.01 L352.8 24.56 L353.96 23.26 L354.74 22.58 L358.34 20.67 L358.95 20.23 L359.65 19.88 L360.41 19.8 L361.19 20.19 L361.79 19.09 L363.01 18.21 L364.42 17.91 L365.65 18.54 L366.49 18.44 L369.68 17.26 L370.47 16.84 L371.24 16.92 L372.72 16.8 L374.23 16.45 L375.13 15.88 L375.7 16.2 L379.39 15.25 L381.26 14.39 L383.67 12.76 L391.89 9.97 L400.19 5.61 L402.09 5.5 L405.93 6.2 L411.48 6.2 L412.67 6.41 L415.29 7.39 L426.45 8.52 L427.4 8.17 L428.88 8.75 L435.67 8.17 L452.79 10.61 L458.75 8.86 L460.69 8.69 L461.53 8.92 L463.01 9.71 L464.83 10.33 L471.74 10.75 L474.47 10.44 L477.2 9.6 L478.06 9.12 L480.03 7.54 L481.92 6.4 L483.48 4.45 L484.68 2.08 L485.01 0 L485.74 0.26 L487.23 0.54 L487.9 0.96 L488.02 0.52 L488.25 0.42 L488.56 0.46 L488.97 0.44 L489.34 1.28 L489.9 1.88 L490.27 2.37 L490.04 2.88 L490.04 3.32 L491.98 4.9 L493.18 5.41 L494.71 5.29 L495.25 4.94 L496.1 4.03 L496.66 3.85 L497.44 3.96 L497.95 4.27 L499.02 5.29 L499.02 5.77 L496.21 5.42 L494.9 5.58 L493.81 6.46 L493.33 7.53 L492.88 9.08 L492.58 10.7 L492.53 12 L492.87 13.08 L494.29 15.7 L495.85 17.78 L498.66 20.19 L498.66 20.67 L497.95 20.67 L498.27 21.58 L498.78 22.71 L499.46 23.66 L500.96 24.44 L502.48 26.29 L503.29 26.93 L506.4 28.21 L508.67 28.58 L509.52 29.15 L511.18 30.75 L513.1 31.83 L515.41 32.58 L517.84 32.9 L520.09 32.7 L521.2 32.23 L523.17 31 L526.4 30.44 L531.92 28.08 L533.17 27.88 L534.41 27.46 L536.55 25.72 L537.7 25.45 L537.7 25.93 L537.47 26.36 L537.17 26.78 L536.77 27.14 L536.24 27.36 L536.32 28.42 L535.34 30.59 L535.53 31.75 L535.92 31.75 L536.03 30.07 L536.52 28.54 L537.23 27.29 L537.99 26.45 L538.54 25.99 L538.8 25.91 L541.94 28.84 L541.94 27.88 L542.3 27.88 L546.25 33.04 L546.98 35.04 L546.98 37.9 L546.8 38.59 L546.34 39.74 L546.26 40.07 L546.22 42.35 L546.42 43.41 L546.98 44.61 L549.3 47.53 L550.65 48.48 L552.33 51.79 L553.18 52.49 L555.8 53.9 L557.29 54.27 L557.57 54.6 L557.71 55.12 L557.74 55.85 L557.91 56.67 L558.35 57.02 L558.93 57.2 L559.52 57.48 L559.81 57.82 L560.33 58.64 L560.59 58.91 L561.11 59.11 L562.09 59.24 L562.54 59.62 L563.51 60.03 L564.82 59.71 L567.01 58.48 L569.77 56.03 L570.22 55.38 L570.38 54.7 L571.12 53.43 L571.29 53 L571.4 52.84 L571.75 51.37 L571.65 51.27 L572.33 50.66 L573.05 50.73 L573.92 51.06 L575.04 51.27 L579.55 51.27 L583.66 52.35 L591.4 56.27 L592.99 57.65 L593.86 59.86 L593.96 62.92 L594.27 64.11 L595.14 64.6 L596.24 64.86 L598.24 66.08 L599.27 66.54 L605.95 66.45 L607.83 66.97 L609.03 68.1 L609.61 68.43 L610.71 68.78 L611.93 68.9 L612.84 69.18 L614.1 70.63 L614.99 71.32 L617.14 72 L617.33 72.39 L618.56 73.73 L619.6 74.12 L621.69 73.89 L622.52 74.15 L622.82 73.77 L623.56 73.49 L623.95 73.2 L624.33 72.64 L625.01 70.8 L625.63 69.66 L626.41 68.55 L627.3 67.6 L628.22 66.97 L628.68 68.1 L629.54 68.75 L630.54 68.75 L631.43 67.96 L631.79 68.43 L633.14 68.2 L633.2 72.54 L634.12 73.73 L636.81 75.06 L637.53 75.62 L638.07 76.31 L638.98 77.93 L641.02 77.04 L643.47 77.37 L649.77 79.49 L652.85 80.01 L654.95 80.75 L656.13 80.77 L658.44 80.13 L659.44 80.35 L661.71 82.38 L662.78 82.38 L664.76 81.75 L666.72 82.32 L668.05 82.46 L668.65 81.97 L672.6 81.75 L673.41 81.19 L675.33 79.29 L676.02 78.88 L677.7 78.36 L678.34 78.41 L678.67 78.7 L679.47 79.84 L679.84 80.25 L680.35 79.97 L681.36 79.96 L681.91 79.83 L682.28 79.52 L682.72 79.04 L683.26 78.6 L683.87 78.41 L684.93 77.16 L685.12 76.75 L685.36 76.57 L686.53 76.16 L690.18 75.39 L691.04 74.82 L691.88 74.09 L692.88 73.75 L698.84 73.69 L703.05 72.73 L703.52 72.44 L704.84 71.32 L705.46 71.17 L707.17 71.32 L708.15 71.65 L709.76 73.02 L710.93 73.2 L711.81 72.9 L713.23 71.98 L714.29 71.79 L714.9 71.57 L717.71 69.9 L718.02 69.6 L718.21 69.32 L718.51 69.08 L719.13 68.9 L722.41 69.7 L723.16 70.46 L724.48 72.22 L727.59 74.96 L729.58 76.11 L731.65 76.51 L732.7 76.18 L733.76 75.66 L734.8 75.51 L736.21 76.53 L736.8 76.6 L737.94 76.51 L738.41 76.68 L741.52 79.17 L742.45 79.61 L743.45 79.83 L744.3 79.2 L747.59 78.06 L748.87 77.93 L751.87 80.75 L753.38 81.78 L755.48 82.19 L756.36 82.04 L757.91 81.39 L759.12 81.1 L760.99 80.37 L762.2 79.56 L764.62 78.88 L773.18 73.2 L775 74.01 L776.54 74.18 L778.02 73.76 L779.64 72.73 L781.61 71.01 L782.31 70.8 L783.93 70.6 L784.73 70.33 L785.37 69.9 L788.47 65.72 L792.12 62.98 L792.72 62.75 L793.51 62.88 L795.75 63.7 L797.06 63.48 L799.04 62.09 L799.89 61.76 L800.98 61.6 L802.2 61.19 L803.37 60.58 L804.34 59.86 L806.4 57.68 L807.48 56.89 L808.8 56.58 L810.15 56.49 L811.1 56.18 L816.02 52.14 L817.35 51.66 L818.47 51.04 L819.03 50.84 L820.85 50.59 L821.53 50.37 L822.5 49.6 L823.29 48.38 L823.82 46.9 L824.02 45.35 L824.57 45.01 L827.62 42.28 L828.34 40.97 L833.9 43.32 L834.57 43.44 L836.13 43.32 L837.44 42.72 L837.84 42.72 L837.91 43 L837.85 43.52 L837.84 44.09 L838.06 44.53 L838.67 44.78 L840.2 44.97 L840.89 45.2 L842.97 47.14 L843.6 47.41 L844.11 47.12 L846.2 45.32 L847.84 42.97 L848.55 42.41 L850.65 41.57 L854.4 43 L856.24 42.41 L857 42.05 L857.73 41.95 L858.47 42.07 L859.21 42.41 L860.85 41.94 L861.65 41.96 L862.39 42.41 L863.26 43.23 L864.51 43.34 L867.08 43.19 L876.24 46.78 L876.93 46.74 L877.56 46.71 L878.65 45.99 L880.21 43.62 L881.35 42.41 L881.87 41.29 L882.36 38.45 L882.9 37.27 L883.94 36.46 L884.02 36.44 L884.24 36.36 L885.27 36.02 L887.9 35.8 L895.21 36.43 L896.2 36.91 L895.8 37.56 L895.63 38.27 L895.52 38.96 L895.3 39.58 L894.88 40.09 L893.85 40.96 L893.41 41.65 L894.75 42.45 L895.75 43.55 L896.73 43.87 L898.01 42.39 L898.71 41.94 L899.09 42.4 L899.38 43.27 L899.81 44.05 L900.21 44.29 L901.75 44.81 L902.07 45.11 L902.28 45.43 L902.53 45.7 L903 45.88 L903.4 46.35 L904.96 49.3 L905.72 50.13 L909.56 52.76 L912.08 54.99 L913.69 55.75 L915.22 55.96 L915.29 56.32 L914.59 57.32 L913.82 57.99 L911 59.44 L912.42 59.9 L913.57 59.77 L914.59 59.89 L915.65 61.1 L916.9 64.18 L917.66 64.73 L922.46 63.38 L923.98 63.28 L925.63 63.72 L927.06 64.56 L928.47 65.87 L929.21 67.51 Z M122.94 8.88 L123.66 12.25 L123.68 13.01 L123.94 13.19 L124.27 13.63 L124.5 14.17 L124.41 14.66 L123.93 14.96 L123.4 14.86 L122.43 14.44 L121.57 14.48 L120.89 14.86 L120.45 15.81 L120.29 17.55 L120.6 19.43 L121.37 20.7 L122.32 21.79 L123.17 23.06 L124.16 26.21 L124.77 27.14 L125.72 28.03 L126.16 28.55 L126.41 29.28 L126.54 29.4 L126.68 29.6 L126.74 30.03 L126.61 30.29 L126.32 30.27 L126.07 30.31 L126.03 30.75 L126.42 31.84 L127.14 33.11 L127.98 34.17 L129.47 35.05 L130.24 36.07 L131.35 37.9 L134.22 40.63 L142.14 45.62 L153.45 50.49 L169.52 58.21 L174.7 59.38 L174.97 59.49 L175.09 59.65 L175.23 59.8 L175.57 59.86 L175.97 59.71 L176.3 59.06 L176.66 58.91 L177.89 59.1 L179.21 59.61 L180 60.38 L179.52 62.11 L178.83 63.4 L177.92 64.59 L177.03 65.11 L176.43 65.31 L176.56 65.77 L176.99 66.31 L177.3 66.89 L177.63 67.38 L177.73 67.48 L177.99 67.68 L177.89 68.07 L177.67 68.41 L177.55 68.43 L177.36 69.8 L176.99 71.03 L176.5 72.1 L175.95 72.97 L175.52 73.32 L174.59 73.62 L174.16 73.94 L173.75 74.55 L173.68 74.91 L173.7 75.2 L173.76 75.51 L173.91 75.75 L173.9 76.13 L173.59 76.51 L173.36 76.58 L172.23 76.49 L171.78 76.1 L171.49 76.04 L171.19 76.22 L170.73 76.85 L170.56 76.99 L169.99 77.14 L169.04 77.78 L166.96 78.22 L166.46 78.41 L166.16 78.64 L165.94 78.93 L165.62 79.19 L165 79.35 L163.73 79.29 L163.12 79.07 L162.86 78.64 L162.3 78.13 L160.99 78.07 L154.72 78.88 L153.16 78.22 L153.59 76.04 L152.98 75.39 L152.61 75.17 L152.13 75.06 L152.49 73.49 L151.97 72.09 L150.89 71.12 L149.64 70.8 L149.9 71.81 L151.03 72.98 L151.45 74.15 L151.46 74.85 L151.33 75.85 L150.98 76.81 L150.34 77.42 L148.83 77.2 L146.13 74.42 L144.8 73.73 L143.07 73.42 L139.45 72.09 L137.63 71.79 L135.85 71.79 L135.43 71.63 L134.86 70.95 L134.43 70.8 L132.48 71.26 L131.55 71.32 L131.19 71.1 L130.7 70.8 L128.2 71.76 L127.81 72 L127.3 72 L124.41 73.2 L123.64 73.4 L122.74 73.88 L121.92 74.48 L121.36 75.06 L120.2 76.95 L119.86 77.85 L119.93 78.41 L118.99 78.7 L114.79 78.19 L114 77.66 L113.26 77.04 L112.41 76.51 L110.37 75.94 L108.37 75.82 L97.21 77.44 L95.59 78.41 L94.47 80.72 L93.15 86.26 L92.02 88.36 L87.11 93.21 L84.87 97.17 L80.18 100.64 L79.89 100.97 L79.35 101.8 L79.11 102.05 L78.55 102.24 L77.29 102.41 L75.85 103.36 L73.41 103.31 L72.31 103.46 L71.43 104.19 L69.9 106.34 L69.29 106.79 L67.92 106.98 L67.21 107.08 L65.21 107.69 L62.18 109.58 L61.4 110.33 L60.48 110.96 L57.26 111.44 L56.28 112.04 L54.59 113.53 L53.87 113.83 L53.29 114.23 L52.81 116.28 L52.27 117.11 L50.58 118.03 L50.23 118.55 L50.13 119.7 L49.8 120.81 L49.01 121.73 L46.15 124.37 L45.78 124.64 L44.25 125.02 L43.56 125.58 L42.46 126.71 L42.45 126.97 L42.19 127.23 L40.82 128.89 L39.87 129.66 L38.68 130.41 L37.43 130.96 L36.35 131.18 L35.64 131.75 L35.81 133.01 L36.47 134.29 L37.22 134.91 L34.72 137.29 L33.94 137.88 L31.86 139.08 L30.28 140.56 L29.64 140.97 L26.87 141.93 L26.31 141.99 L25.82 141.62 L25.95 140.81 L26.36 139.99 L26.67 139.62 L27.53 138.96 L28.11 137.53 L28.52 136.08 L28.8 135.42 L31.16 132.11 L31.8 129.66 L31.53 127.78 L30.54 126.32 L28.98 125.11 L29.53 124.66 L29.7 124.2 L29.47 123.84 L28.8 123.7 L28.56 123.39 L29.03 122.74 L29.72 122.15 L30.06 122.05 L30.66 121.5 L33.34 120.46 L34.37 120.43 L35.15 119.04 L37.74 117.36 L40.2 115.3 L43.28 114.16 L45.58 112.17 L47.08 111.21 L48.7 110.46 L50.13 110.12 L52.58 110.43 L53.31 110.12 L54.01 109.36 L55.11 107.63 L55.87 106.79 L57.09 107.41 L58.77 106.85 L60.25 105.61 L60.89 104.16 L59.29 100.75 L58.88 100.13 L58.36 100.21 L54.9 100.77 L53.67 101.37 L52.98 101.58 L49.41 101.58 L47.99 102.03 L44 104.4 L42.51 103.4 L41.68 103.09 L40.82 102.99 L40.1 103.25 L39.28 103.73 L38.47 104.01 L37.08 103.3 L36.19 103.4 L33.4 104.22 L23.72 104.16 L22.36 103.93 L21.61 103.49 L21.17 102.43 L20.84 101.17 L20.4 100.13 L20.77 99.08 L20.63 97.57 L20.1 96.06 L19.33 95 L19.72 94.89 L19.89 94.76 L21.85 94.96 L23.46 94.18 L24.62 92.79 L25.06 90.95 L25.86 89.68 L28.67 87.24 L28.3 86.49 L28.34 86.03 L28.49 85.8 L29.01 85.55 L28.83 85.49 L28.69 85.47 L28.62 85.36 L28.66 85.03 L29.13 84.9 L29.36 84.75 L29.41 84.39 L29.41 83.66 L29.66 84.32 L29.73 84.6 L30.09 84.6 L30.46 84.2 L30.77 83.57 L31.19 82.2 L31.51 82.2 L31.69 82.59 L31.96 82.9 L32.33 83.11 L32.77 83.19 L33.47 82.99 L33.43 82.54 L33.12 82.06 L32.97 81.77 L33.6 81.12 L35.09 80.42 L35.82 79.84 L36.35 79.14 L36.2 78.9 L35.69 78.65 L35.14 77.95 L34.99 77.34 L35.14 76.89 L35.59 76.62 L36.37 76.53 L36.82 76.16 L37.18 75.35 L37.14 74.54 L35.75 73.86 L35.3 73.13 L34.57 71.57 L34.43 70.56 L35.32 68.77 L34.95 68.45 L34.17 68.22 L34.17 67.66 L35.14 66.12 L34.52 64.92 L34.36 63.69 L34.59 62.35 L35.14 60.83 L34.33 59.62 L34.92 59.07 L38.23 58.74 L39.12 58.27 L40.49 57.03 L41.95 56.08 L42.24 55.75 L42.37 55.44 L42.6 55.22 L43.15 55.13 L45.81 52.28 L46.35 52.98 L47.35 53.55 L48.47 53.85 L49.44 53.75 L50.11 53.08 L50.59 51.88 L50.84 50.43 L50.83 48.95 L50.61 47.55 L49.76 44.15 L49.5 41.56 L49.25 40.35 L48.69 39.35 L49.02 38.65 L48.82 36.84 L49.05 36.01 L48.86 35.62 L48.74 35.15 L48.68 34.63 L48.69 34.11 L47.7 35.61 L47.18 35.06 L44.81 33.83 L41.85 31.59 L42.31 30.71 L42.46 29.68 L41.64 29.47 L40.72 29.07 L38.71 28.56 L37.3 27.24 L36.37 26.94 L35 27.07 L34.47 26.33 L34.11 24.92 L34.31 23.4 L35.05 21.72 L37.21 19.82 L42.58 20.05 L45.07 19.29 L45.77 18.32 L46.21 17.04 L46.43 15.77 L46.47 15.26 L46.51 14.84 L46.57 14.47 L46.79 13.85 L46.83 13.46 L46.68 13.22 L46.04 12.82 L45.95 12.54 L46.17 12.08 L46.49 11.76 L46.88 11.47 L48.38 9.85 L49.23 9.24 L50.16 9.12 L55.07 9.95 L56.08 9.83 L56.61 9.44 L57.74 8.3 L58.36 8.11 L58.85 8.36 L59.82 9.21 L60.39 9.36 L60.83 9.14 L61.36 8.69 L61.99 8.15 L62.55 7.8 L63.13 7.78 L63.62 7.97 L64.1 7.97 L64.66 7.41 L65.2 7.17 L66.18 7.33 L66.64 7.21 L67.22 6.52 L67.64 5.67 L68.11 4.95 L68.84 4.64 L69.85 3.94 L71.01 1.75 L72.26 1.12 L72.33 1.12 L73.25 1.13 L74.2 1.43 L75.08 1.95 L75.89 2.6 L76.47 2.55 L77.64 2.6 L78.91 2.94 L79.13 2.84 L79.18 2.6 L79.31 2.32 L80.47 0.75 L81.13 0.22 L82.27 0.06 L84.11 0.5 L85.77 1.49 L87.19 2.91 L89.41 6.34 L90.56 7.7 L91.81 8.8 L95.65 10.96 L96.44 11.64 L97.68 13.41 L98.37 13.89 L99.22 13.52 L98.5 13.21 L98.62 13.05 L98.95 12.88 L99.11 12.73 L98.97 12.63 L98.81 12.54 L98.67 12.44 L98.6 12.27 L99.72 11.88 L100.25 11.52 L100.67 10.96 L101.07 11.26 L101.34 11.26 L101.53 10.92 L101.65 10.22 L105.72 9.16 L107.64 9.23 L110.37 10.73 L111.08 10.98 L111.76 10.95 L112.42 10.69 L112.57 10.26 L111.76 9.76 L111.87 9.06 L111.87 8.11 L112.03 7.41 L112.24 7.32 L112.45 7.29 L112.66 7.32 L112.87 7.41 L113.86 7.25 L114.34 7.27 L115.63 7.6 L117.02 8.28 L117.73 8.5 L120.28 8.2 L121.07 8.46 Z M20.75 156.46 L21.62 155.97 L21.93 156.64 L21.86 159.01 L21.51 160.04 L20.68 159.96 L18.98 158.78 L17.44 158.05 L16.74 157.51 L16.44 156.69 L16.86 156.14 L17.81 155.94 L19.68 155.95 L20.01 156.02 L20.26 156.02 L20.49 156.11 Z M18.23 134.02 L18.23 135.42 L17.08 136.05 L15.91 136.47 L12.39 137.02 L10.08 138.03 L5.36 138.76 L4.29 138.69 L3.03 138.24 L2.41 137.89 L2.15 137.53 L0 136.78 L0 136.36 L1.2 134.41 L2.91 132.61 L5 131.28 L8.55 130.6 L13.06 128.91 L13.72 128.81 L14.36 128.89 L14.7 129.2 L14.98 129.71 L15.39 130.16 L16.12 130.29 L16.12 130.76 L15.98 131.33 L15.88 132.2 L15.89 133.06 L16.12 133.6 L15.66 134.67 L16.18 134.93 L17.12 134.65 L17.9 134.02 Z M104.18 100.64 L105 100.41 L106.52 100.65 L107.84 101.36 L108.1 102.57 L107.13 103.29 L105.16 103.6 L104.18 103.93 L102.45 105.46 L101.42 105.89 L100.26 105.38 L99.68 105.35 L98.65 104.91 L97.82 104.16 L97.98 102.69 L97.62 102.19 L97.32 101.61 L97.56 100.85 L97.97 100.38 L98.34 100.15 L98.64 100.33 L98.79 101.07 L100.09 100.41 L101.44 99.94 L102.81 99.93 Z M103.53 113.93 L103.94 113.89 L104.15 114.09 L104.12 114.64 L103.55 114.76 L102.81 114.35 L101.95 114.14 L100.98 114.06 L100.23 113.54 L100.12 112.78 L100.69 112.28 L101.12 111.41 L101.55 110.8 L103.28 111.58 L103.37 112.05 L103.09 112.66 L103 113.45 Z "/>
</g>
</svg>
