<svg xmlns="http://www.w3.org/2000/svg" viewBox="0 0 1000 693.73">
<g fill="#ccc" stroke="#333" stroke-width="0.5" stroke-linejoin="round">
<path fill-rule="evenodd" d="M621.62 652.48 L619.91 649.81 L618.95 647.86 L618.77 645.54 L619.04 645.02 L620 644.08 L620.21 643.47 L620.16 641.94 L620.21 641.45 L620.68 639.39 L620.66 638.54 L620.21 637.9 L620.66 635.96 L620.62 634.55 L620.37 633.24 L620.05 630.13 L619.6 628.6 L618.98 627.14 L618.25 625.93 L617.12 624.55 L615.89 623.41 L614.47 622.64 L612.74 622.37 L611.78 621.93 L612.59 620.91 L614.02 619.72 L614.88 618.81 L614.92 617.99 L614.68 616.24 L614.88 615.19 L615.32 614.78 L615.99 614.52 L616.58 614.08 L616.85 613.14 L616.88 612.34 L617.01 611.49 L617.22 610.71 L617.57 610.11 L618.31 609.14 L618.45 608.6 L618.34 608.16 L618.15 605.53 L617.1 600.11 L616.07 598.4 L615.84 597.56 L615.81 595.53 L615.69 594.62 L615.4 593.7 L615.11 593.19 L614.68 592.66 L614.12 592.21 L613.44 591.92 L613.63 591.31 L613.74 591.07 L613.96 590.72 L612.96 588.22 L613.37 583.93 L614.88 576.89 L614.46 575.57 L614.34 574.52 L614.65 573.59 L615.08 572.93 L615.46 572.09 L615.74 571.11 L615.84 570.03 L615.73 568.93 L615.46 568.12 L614.88 566.77 L614.31 563.79 L611.45 563.4 L607.95 562.78 L600.73 562.91 L592.39 563.06 L577.38 563.33 L567.53 563.51 L556.35 563.71 L554.02 562.41 L552.57 559.86 L550.53 554.48 L549.04 552.07 L541.59 542.96 L538.33 537.98 L535.69 532.34 L533.61 529.54 L530.96 528.39 L525.18 527.36 L522.6 525.83 L517.98 521.92 L507.85 518.61 L507.1 518.56 L506.44 518.91 L505.62 520.21 L505.12 520.74 L504.45 520.89 L503.51 520.14 L503.02 518.68 L502.68 517.01 L502.18 515.63 L501 514.36 L499.96 514.18 L497.73 515.06 L497.15 515.03 L496.55 514.73 L495.98 514.27 L495.53 513.8 L494.37 513.49 L494.17 512.86 L494.38 512.13 L494.46 511.54 L494.57 511.29 L494.82 511 L494.91 510.57 L494.49 509.97 L493.17 508.49 L488.76 504.82 L487.94 503.6 L486.56 497.5 L486.39 495.64 L486.62 494.66 L487.06 493.78 L487.35 492.99 L487.15 492.26 L486.73 491.29 L486.95 489.32 L486.62 488.15 L485.26 486.26 L483.85 484.91 L482.23 484.48 L478.28 486.3 L476.77 486.15 L467.38 479.37 L465.08 476.98 L464.3 476.55 L462.26 476.24 L461.32 475.93 L460.33 475.21 L457.55 473.93 L452.09 472.67 L447.87 470.31 L447.49 470.93 L447.31 472.25 L446.37 473.42 L445.63 473.68 L444.91 473.73 L443.41 473.45 L442.61 473.45 L442.11 473.86 L441.67 474.39 L441.06 474.76 L439.47 474.93 L437.88 474.69 L434.84 473.44 L431.3 470.29 L430.15 469.7 L428.78 469.8 L427.69 470.59 L426.84 471.85 L426.2 473.33 L425.25 474.8 L424.03 475.39 L417.66 476.03 L416.67 475.76 L414.82 474.43 L413.93 474.01 L408.45 473.19 L407.25 472.73 L406.05 471.73 L405.7 470.72 L405.7 469.48 L405.51 467.86 L405.27 467.2 L404.15 465.12 L404.1 464.43 L404.25 463.79 L404.24 463.17 L403.7 462.57 L402.52 461.99 L401.38 461.72 L399.01 461.52 L394.37 460.43 L383.34 455.11 L380.9 454.45 L379.76 454.54 L378.57 454.82 L377.41 454.91 L376.36 454.47 L375.95 453.91 L375.3 452.57 L374.81 452.07 L374.23 451.93 L373.08 452.2 L372.83 452.17 L372.48 452.14 L371.58 451.57 L370.7 450.8 L369.75 450.21 L368.69 450.19 L367.64 450.47 L364.2 450.54 L360.62 449.5 L359.44 449.35 L358.25 449.54 L357.15 449.87 L356.04 450.03 L345.91 445.99 L344.13 443.62 L345.52 438.9 L345.69 437.41 L345.34 435.85 L343.84 433.7 L343.02 431.02 L340.72 428.53 L339.89 427.28 L338.62 424.18 L337 421.41 L336.7 420.62 L336.67 419.96 L336.48 419.38 L335.7 418.87 L334.19 418.35 L333.42 418.26 L332.65 418.35 L331.43 418.95 L330.81 419.62 L330.6 419.86 L329.18 422.33 L328.34 423.24 L326.07 424.75 L325.08 425.63 L323.81 426.35 L322.38 426.12 L319.58 424.96 L308.99 422.97 L307.9 422.61 L305.49 421.22 L302.74 418.97 L302.06 418.84 L298.69 419.42 L293.05 421.9 L291.91 422.11 L290.97 421.67 L290.08 420.96 L289.1 420.36 L287.9 420.06 L281.45 420.27 L278.89 421.25 L276.51 422.92 L272.08 427.05 L271.63 428.27 L273.55 430.48 L273.88 432.03 L273.63 433.69 L272.93 435.1 L271.82 435.92 L265.79 436.94 L264.65 436.78 L262.46 435.87 L262.12 435.73 L259.27 435.37 L249.21 437.21 L248.12 437.15 L247.14 436.83 L245.23 435.82 L244.04 435.45 L240.46 435.41 L239.42 435.06 L236.67 433.46 L232.32 432.49 L230.22 432.49 L216.31 435.42 L211.83 435.62 L210.12 436.31 L204.89 440.37 L203.44 441.12 L201.98 442.31 L201.18 442.42 L197.97 443.51 L196.45 444.36 L195.81 445.78 L194.94 446.12 L190.87 446.89 L189.51 447.35 L188.91 448.03 L188.14 449.66 L187.63 450.34 L186.87 450.63 L185.88 450.8 L185.03 451.27 L184.66 452.48 L184.11 453.41 L180.82 457.09 L170.25 464.4 L168.14 466.7 L167.23 468.18 L166.84 469.58 L166.53 471.35 L165.37 474.12 L165.44 475.99 L165.69 476.47 L166.52 477.22 L166.84 477.81 L166.93 478.43 L166.84 480.56 L166.62 481.83 L165.66 484.06 L165.44 485.42 L165.12 486.05 L163.33 487.55 L159.99 489.76 L159.11 490.59 L157.72 491.15 L155.99 493.02 L154.93 493.52 L153.38 493.54 L149.09 492.6 L147.5 492.85 L135.59 499.77 L133.08 500.61 L131.52 500.61 L129.9 500.4 L128.37 500.47 L127.07 501.34 L125.76 502.6 L124.49 503.14 L123.09 503.22 L103.89 501.54 L103.89 501.52 L102.9 490.4 L102.21 486.88 L100.89 483.36 L100.48 481.63 L100.15 477.72 L97.64 465.84 L96.39 440.24 L96.61 438.77 L97.57 435.81 L98.29 431.45 L100.03 424.63 L99.75 422.19 L100.56 419.38 L100.68 415.53 L100.32 408.94 L100.21 408.23 L99.58 406.97 L99.27 406.15 L99.09 405.27 L98.94 403.43 L97.88 397.96 L97.78 395.99 L98.43 388.73 L99.22 385.11 L100.32 382.13 L103.61 376.87 L104.82 373.62 L104.12 370.93 L105.17 370.07 L105.72 368.44 L106.13 366.61 L106.77 365.13 L107.54 363.85 L108.38 362.05 L108.75 360.76 L108.05 361 L107.94 359.11 L107.01 358.18 L104.55 357.29 L104.53 357.14 L104.24 356.35 L104.12 356.12 L103.79 355.91 L102.9 355.62 L102.69 355.5 L102.34 354.92 L102.02 354.19 L101.8 353.33 L101.68 352.35 L100.88 350.59 L100.09 349.97 L97.35 349.87 L95.65 349.39 L94.99 349.31 L94.26 349.61 L93.92 350.16 L93.58 350.35 L92.81 349.59 L92.21 348.23 L90.82 343.97 L90.38 343.06 L89.7 343.7 L89.91 345.13 L90.54 346.63 L91.11 347.46 L91.11 348.02 L89.97 347.41 L88.95 346.04 L88.47 344.36 L89.22 341.9 L88.65 340.24 L88.71 339.35 L89.12 338.78 L91.11 337.49 L89.01 337.28 L89 335.36 L90.58 331.23 L89.12 332.05 L87.18 333.55 L86.03 334.99 L87.02 335.63 L87.7 345.6 L86.88 344.23 L85.14 341.92 L84.34 340.59 L84.01 338.96 L83.93 337.13 L83.45 335.78 L81.93 335.63 L82.3 334.49 L82.54 333.03 L82.41 331.77 L81.69 331.23 L81.3 331.84 L80.17 334.71 L79.53 335.63 L79.27 333.5 L79.6 330.81 L80.97 325.64 L79.05 327.51 L80.21 324.41 L80.49 323.16 L80.02 323.4 L78.57 323.78 L79.34 321.82 L79.13 321.08 L78.28 321.53 L77.12 323.16 L76.61 322.49 L75.81 322.96 L72.76 323.16 L71.42 324.29 L70.78 324.22 L70.84 322.49 L70.35 322.49 L69.82 323.4 L69.05 324.29 L68.09 324.91 L66.99 324.97 L67.33 324.38 L67.95 322.49 L67.46 322.46 L66.46 322.56 L65.98 322.49 L65.89 322.6 L65.3 323.06 L65.03 323.16 L64.82 322.96 L64.32 322.09 L64.06 321.92 L63.13 322.25 L61.33 323.13 L60.22 323.16 L60.22 322.49 L60.66 321.82 L60.47 321.47 L59.87 321.32 L59.01 321.29 L58.21 321.12 L57.14 320.31 L56.37 320.05 L54.96 320.12 L51.56 321.16 L50.13 321.92 L52.66 323.53 L53.5 323.78 L52.21 325.82 L51.76 326.99 L51.56 328.46 L51.69 329.98 L52.53 333.77 L52.35 335.99 L51.68 337.07 L50.94 336.87 L49.21 323.98 L48.77 322.89 L45.82 318.36 L45.58 316.79 L46.25 315.02 L46.9 314.16 L48.93 312.22 L49.25 311.37 L49.49 310.21 L49.81 309.18 L51.23 308.01 L52.12 306.28 L54.68 299.18 L56.59 295.27 L59 292.66 L61.66 293.21 L60.18 294.03 L59.1 295 L57.07 297.87 L56.78 298.62 L56.13 301.26 L55.94 301.55 L54.45 303.14 L54.85 305.43 L57.46 305.78 L65.16 304.24 L69.62 304.43 L71.02 304.92 L71.87 306.09 L72.48 307.5 L73.24 308.74 L74.22 309.47 L75.41 309.86 L78.33 310.04 L79.55 310.66 L80.2 310.65 L80.49 309.73 L80.44 308.81 L80.22 308.15 L79.79 307.73 L79.05 307.55 L79.96 305.23 L80.83 305.54 L81.77 307.01 L82.89 308.18 L84.23 308.14 L86.28 306.14 L87.7 305.69 L88.34 305.94 L89.97 306.87 L90.58 306.93 L91.39 306.08 L91.18 305.16 L90.43 304.33 L89.66 303.76 L88.09 303.11 L85.13 302.4 L83.86 301.26 L84.99 300.88 L85.65 300.22 L85.72 299.23 L85.08 297.87 L84.13 296.91 L83.19 296.71 L79.81 297.09 L79.57 296.52 L79.53 294.71 L79.31 293.78 L78.75 292.69 L77.98 291.74 L77.12 291.23 L77.57 294.36 L77.57 295.65 L77.12 295.65 L74.56 291.6 L72.73 289.78 L70.84 289.35 L71.09 289.88 L71.8 291.91 L71.37 291.58 L70.26 290.97 L69.83 290.66 L69.87 292.4 L71.2 294.15 L71.32 295.65 L68.91 294.02 L68.64 290.75 L69.83 283.72 L69.01 284.19 L68.14 284.34 L67.27 284.18 L66.46 283.72 L66.46 283.11 L68.8 281.94 L72.48 276.75 L74.72 274.28 L74.33 273.81 L73.95 272.86 L73.72 272.46 L74.33 272.1 L74.96 271.9 L76.37 271.78 L77.38 271.46 L77.37 270.78 L76.94 270.14 L76.61 269.96 L77.39 268.84 L78.48 267.8 L79.49 266.58 L80.01 264.89 L79.63 265.11 L79.44 265.17 L79.29 265.26 L79.05 265.52 L77.84 264.3 L76.8 264.06 L74.2 264.26 L73.01 263.85 L71.39 262.36 L70.35 261.7 L69.11 261.35 L67.88 261.32 L66.69 261.66 L65.54 262.38 L62.58 265.74 L61.42 266.21 L61.09 266.4 L59.99 267.26 L59.48 267.45 L58.93 267.26 L57.67 266.4 L57.07 266.21 L56.3 265.82 L51.71 262.18 L50.51 262.64 L49.46 263.69 L48.43 264.26 L43.35 264.89 L43.75 264.05 L44.16 263.41 L44.68 262.88 L45.33 262.38 L40.46 263.96 L37.81 264.3 L35.62 263.63 L34.48 260.92 L33.5 259.95 L32.26 261.13 L32.25 262.1 L32.76 263.33 L33.94 265.2 L34.2 266.3 L34.66 271.5 L35.08 272.26 L37.08 274.96 L37.81 275.54 L40.46 280.54 L42.65 282.61 L43.35 283.11 L43.35 283.72 L39.99 281.85 L40.94 282.55 L42.88 285.03 L42.4 285.6 L40.15 283.37 L39.22 282.1 L37.21 277.27 L36.25 276.03 L33.75 274.94 L32.91 273.46 L32.43 271.54 L32.04 267.98 L31.42 267 L24.65 261.54 L22.21 259.01 L21.17 257.02 L21.71 253.03 L22.25 250.81 L22.83 249.45 L23.27 247.8 L22.55 246.07 L20.64 243.48 L21.52 242.66 L21.2 241.75 L19.72 240.28 L18.39 236.73 L18.6 233.17 L21.04 217.26 L22 214.2 L23.56 211.14 L27.79 205.22 L29.94 201.18 L30.3 197.84 L29.67 197.29 L27.84 196.84 L27.45 196.23 L27.6 195.38 L28.15 193.67 L28.12 193.35 L27.79 193.07 L28.68 192.5 L29.84 192.05 L30.3 192.14 L30.45 191.25 L30.35 190.26 L30.09 189.39 L29.86 188.9 L31.52 181.92 L34.18 174.87 L34.74 171.65 L33.74 165.18 L33.7 161.44 L34.46 162.01 L36.16 162.96 L36.85 163.69 L37.15 164.77 L36.98 165.86 L36.67 166.91 L36.63 167.86 L37.36 169.66 L40.43 173.6 L40.98 175.17 L41.81 178.72 L42.4 180.01 L44.65 181.59 L44.82 181.92 L46.6 181.94 L47.41 181.76 L48.16 181.28 L47.06 182.58 L45.34 183.21 L44.13 183.91 L44.56 185.41 L45.07 185.94 L46.19 186.85 L46.76 187.64 L46.92 188.48 L46.92 189.53 L47.14 190.43 L47.95 190.81 L51.07 191.07 L52.41 190.94 L53.98 190.23 L57.16 186.84 L58.29 186.42 L57.13 188.9 L56.81 190.33 L57.6 190.89 L62.86 190.23 L63.47 189.79 L63.59 188.75 L63.59 187.58 L63.82 186.71 L64.86 185.24 L65.62 184.73 L66.46 185.1 L66.54 185.63 L66.04 187.35 L65.98 188.21 L66.59 190.02 L67.64 191.47 L69.02 192.43 L70.59 192.77 L71.04 192.97 L72.04 193.87 L72.76 194.04 L73.58 193.86 L74.2 193.5 L75.16 192.77 L77.7 191.57 L78.66 190.47 L79.05 188.56 L78.93 184.58 L79.19 183.08 L80.92 179.48 L81.3 179.32 L82.19 179.32 L82.85 179.49 L83.54 179.91 L84.1 180.44 L84.34 180.93 L84.55 181.31 L85.53 181.69 L85.82 181.92 L85.85 182.51 L85.65 183.08 L85.39 183.55 L85.3 183.83 L85.69 185.78 L86.05 186.5 L86.78 187 L86.18 188.32 L85.8 188.96 L85.3 189.54 L86.1 191.15 L87.19 194.89 L88.22 196.57 L88.93 197.01 L89.63 197.14 L90.22 197.45 L90.58 198.42 L90.4 199.08 L89.41 201.1 L89.18 201.93 L90.33 204.19 L93.04 204.19 L96.23 203.55 L100.29 204.15 L101.46 203.06 L102.56 201.65 L105.58 199.93 L106.28 199.74 L106.99 199.88 L108.93 200.95 L110.72 201.21 L112.11 200.75 L113.41 200.08 L115.61 199.51 L116.16 198.95 L116.53 198.22 L116.66 197.5 L116.27 197.4 L114.41 196.51 L113.78 195.88 L117.85 196.05 L119.91 195.73 L122 194.54 L126.3 194.66 L126.5 194.91 L126.18 195.5 L125.49 197.72 L125.27 198.2 L125.56 198.49 L127.75 199.47 L138.36 199.74 L136.98 198.9 L135.48 198.42 L136.37 197.21 L139.16 196.49 L140.26 195.31 L133.26 195.42 L132.36 195.29 L131.82 194.45 L131.65 192.45 L131.35 190.79 L130.02 188.24 L129.57 185.81 L128.88 184.29 L128.71 183.51 L128.85 182.88 L129.1 182.44 L129.29 181.97 L129.19 181.28 L128.76 181.1 L128.06 181.2 L127.44 181.03 L127.27 180.01 L127.56 179.57 L128.08 179.5 L128.69 179.51 L129.19 179.32 L131 177.2 L131.96 176.47 L133.31 176.19 L135.33 177.11 L139.6 180.57 L140.78 180.59 L142.75 181.87 L142.95 183.2 L142.08 184.69 L140.78 186.42 L143.39 187.09 L151.53 185.52 L153.9 184.61 L155 184.4 L156.24 182.24 L159.2 180.65 L159.86 180.1 L162.51 175.66 L163.17 174.19 L163.45 172.64 L163.18 171.1 L162.52 169.79 L160.78 167.52 L158.53 163.86 L157.68 163.35 L157.68 162.77 L159.27 163.01 L160.94 163.85 L163.97 165.95 L163.52 165.14 L162.11 163.98 L161.52 163.35 L160.91 162.4 L160.64 161.87 L160.53 161.44 L160.63 160.8 L160.94 160.23 L161.29 159.96 L161.52 160.22 L160.36 158.63 L158.43 158.06 L156.37 157.76 L154.75 156.97 L154.65 154.19 L152.22 151.42 L138.14 140.49 L131.9 137.75 L130.71 136.89 L128.12 134.22 L124.84 132.36 L123.39 131.28 L123.05 130.79 L122.28 129.21 L120.72 126.87 L120.15 126.35 L117.61 125.82 L116.25 124.94 L115.17 123.7 L114.26 122.3 L112.87 119.32 L112.09 116.04 L111.78 112.34 L111.76 104.2 L111.35 100.78 L110.56 97.64 L109.41 94.59 L106.06 88.81 L105.52 87.12 L105.2 86.36 L104.45 86.06 L103.65 85.88 L103.12 85.5 L102.84 84.36 L103.04 83.49 L103.41 82.64 L103.64 81.63 L103.58 81.03 L103.21 79.14 L103.12 78.05 L103.96 75.83 L104.12 74.75 L104.07 73.18 L103.86 71.29 L103.41 69.44 L102.69 67.93 L100.5 65.76 L97.2 63.61 L93.63 62.5 L90.58 63.46 L87.57 61.76 L65.98 65.4 L61.86 67.61 L60.46 67.93 L55.04 67.69 L51.11 65.57 L48.16 66.88 L45.52 69.29 L43.83 71.22 L36.78 76.89 L35.15 79.63 L27.01 97.63 L25.79 99.52 L24.77 100.33 L24.24 101.34 L23.66 103.63 L23.33 106.05 L23.56 107.47 L24.42 107.23 L26.61 104.33 L27.67 103.61 L31.17 103.95 L32.81 104.72 L33.7 106.18 L33.62 107.45 L32.53 109.37 L32.26 110.39 L32.34 111.34 L32.67 113.18 L32.74 114.25 L32.46 116.37 L27.8 128.45 L27.45 130.35 L26.61 133.02 L26.45 133.9 L26.59 134.82 L27.45 137.16 L28.12 141.07 L28.6 146.94 L29.11 148.5 L32.82 156.29 L33.22 157.93 L32.84 159.86 L31.35 162.62 L31.3 164.68 L30.82 164.68 L30.43 163.78 L29.3 162.8 L28.9 162.13 L28.79 161.1 L29.34 158.24 L29.35 156.08 L29.1 154.13 L28.6 152.33 L27.88 150.59 L27.56 150.09 L26.67 149.03 L26.45 148.67 L26.28 147.55 L26.47 145.77 L26.45 144.84 L24.89 139.35 L24.77 138.44 L23.89 137.63 L22.76 134.07 L21.65 133.26 L20.71 133.07 L20.11 132.51 L19.81 131.59 L19.72 130.35 L19.58 129.49 L19.19 128.94 L18.01 127.79 L17.22 127.24 L15.36 126.96 L14.68 126.5 L12.25 123.29 L11 122.33 L9.69 121.75 L8.76 120.74 L8.63 118.45 L8.86 118.23 L10.31 115.56 L10.56 114.8 L10.63 113.72 L10.55 111.65 L10.66 110.99 L11.09 109.99 L11.11 109.4 L10.9 108.86 L10.56 108.5 L10.23 108.27 L10.07 108.11 L9.49 106.22 L9.11 105.47 L8.63 104.9 L8.11 104.73 L6.97 104.89 L6.47 104.58 L5.79 103.55 L5.41 103.1 L4.3 102.61 L3.23 101.27 L2.6 100.97 L0.88 100.47 L0 99.14 L2.9 96.17 L13.64 85.41 L22.99 76.02 L23.01 76.01 L23.01 75.99 L38.08 63.4 L49.09 59.49 L53.07 57.09 L68.59 50.9 L73.25 49.91 L85.64 47.64 L96.42 45.68 L113.28 42.6 L118.59 43.35 L123.7 45.21 L134.63 52.54 L146.49 60.49 L153.57 65.24 L161.92 70.84 L173.8 81.83 L175.47 84 L176.17 85.85 L176.16 87.45 L175.87 89.1 L175.77 91.13 L176.14 93.03 L176.87 94.74 L184.2 104.69 L187.38 109.01 L191.95 117.17 L196.42 125.13 L198.59 127.77 L201.04 129.95 L205.45 132.99 L206.56 134.26 L207.42 135.85 L209.39 140.6 L210.57 142.2 L212.04 143.32 L214.01 144.45 L216.19 145.19 L225.07 144.68 L229.22 143.07 L235.76 142.12 L242.04 139.04 L244.4 138.85 L249.21 139.31 L260.63 139.92 L273.73 140.64 L288.29 141.44 L290.84 141.58 L306.57 142.43 L313.22 143.84 L321.82 145.64 L323.19 144.84 L325.35 140.88 L326.74 139.28 L330.02 137.63 L331.52 136.55 L332.31 135.61 L332.47 134.97 L331.93 134.56 L328.4 133.69 L327.32 133.16 L326.33 132.43 L324.79 130.69 L323.43 128.37 L322.49 125.77 L322.17 123.17 L322.22 119.85 L321.96 117.14 L321.15 114.67 L319.58 112.09 L318.33 108.73 L318.41 105.76 L318.96 102.72 L319.13 99.17 L317.58 91.72 L317.6 88.08 L319.58 85.33 L326.34 82.15 L329.24 79.94 L331.87 76.02 L331.87 76 L335.73 68.72 L341.39 63.13 L348.01 59.89 L354.77 59.61 L364.73 61.35 L368 60.7 L371.89 58.78 L373.25 58.45 L378.06 58.68 L379.41 58.38 L380.96 57.25 L380.75 56.35 L379.84 55.33 L379.33 53.83 L379.91 52.59 L382.6 51.71 L383.61 50.58 L386.48 43.98 L387.09 41.76 L386.97 40.28 L385.46 37.02 L385.06 34.5 L386.25 33.48 L388.17 32.63 L389.96 30.56 L390.58 29.44 L391.33 28.49 L392.62 27.89 L394.18 27.6 L395.77 27.65 L397.11 28.12 L398.13 29.13 L399.74 31.54 L400.87 32.2 L402.01 32.09 L404.56 30.99 L405.83 30.77 L407.38 31.05 L414.37 34.36 L416.75 36.12 L418.56 38.56 L419.28 41.95 L419.04 43.69 L418.67 45.32 L418.64 46.8 L419.47 48.08 L420.62 48.37 L425.15 47.69 L426.02 47.16 L426.27 46.38 L425.95 45.54 L425.15 44.8 L422.31 41.43 L417.09 32.91 L415.21 28.46 L413.04 25.12 L410.56 23.18 L401.75 19.02 L400.43 17.83 L400.03 15.99 L400.68 14.59 L401.96 13.62 L404.62 12.45 L408.35 10.16 L409.67 9.74 L411.39 9.8 L418.98 12.89 L422.59 13.73 L426.2 13.96 L429.11 13.09 L430.6 10.31 L431.56 2.18 L432.87 0 L434.58 0.99 L449.73 18.91 L454.44 23.29 L459.39 25.53 L462.52 26.1 L464.59 25.98 L466.62 25.42 L468.66 24.43 L470.46 24.23 L472.15 25.31 L476.63 29.99 L477.62 31.6 L478.29 33.42 L479.13 40.7 L480.06 42.4 L482.08 43.5 L485.67 43.9 L487.32 44.47 L490.13 47.5 L491.89 48.18 L495.53 48.29 L510.4 45.99 L516.51 46.55 L519.65 46.16 L522.85 46.52 L525.07 48.97 L527.02 52.03 L529.49 54.27 L532.61 55.5 L534.24 56.48 L535.1 57.72 L534.86 59.31 L533.7 60.16 L532.26 60.75 L531.1 61.6 L530.46 66 L531.84 70.66 L532.06 74.4 L527.88 76.03 L527.86 76.03 L527.84 76.03 L527.82 76.02 L526.57 76.38 L525.78 77.32 L525.67 78.57 L526.45 79.91 L527.45 80.36 L531.1 80.23 L538.5 83.04 L540.58 84.83 L542.19 87.31 L542.99 88.54 L544.04 89.63 L547.38 91.62 L548.37 92.46 L549.22 93.55 L549.91 94.86 L550.04 96.2 L549.22 97.43 L548.12 97.58 L546.74 96.96 L544.31 95.41 L541.67 94.57 L539.46 94.76 L537.53 96.11 L535.72 98.71 L536.36 102 L538.52 106.19 L543.21 112.86 L543.85 114.59 L542.88 115.77 L539.97 117.24 L538.77 118.3 L537.85 119.62 L537.3 121.22 L536.42 128.76 L536.91 130.98 L538.89 132.95 L546.59 136.93 L553.36 140.42 L557.61 143.56 L561.43 147.4 L563.45 148.86 L565.9 149.57 L570.13 149.46 L578.63 146.6 L592.8 145.74 L597.73 146.94 L601.09 150.44 L601.55 150.05 L602.01 149.53 L602.94 147.94 L603.36 147.22 L603.63 147.44 L603.85 148.27 L604.24 149.12 L608.4 148.41 L609.65 148.45 L616.9 153.62 L619.75 154.79 L622.44 154.7 L624.87 153.46 L626.85 151.28 L628.19 148.35 L629.91 147.35 L630.59 144.06 L631.55 142.09 L633.12 141.31 L635.72 141.61 L642.57 143.42 L648.69 146.08 L664.43 157.71 L665.8 159.23 L670.97 167.94 L671.56 169.49 L671.8 171.39 L671.99 177.97 L672.33 179.34 L671.8 180.03 L672.59 181.88 L674.8 189.68 L675.61 193.92 L676.17 195.9 L676.94 197.13 L679.26 199.67 L680.06 200.97 L681.51 206.67 L682.46 208.63 L685.08 212.14 L685.5 213 L686.06 215.11 L686.18 215.32 L686.52 215.92 L688.04 217.08 L691.38 218.08 L697.2 221.44 L697.88 222.27 L698.1 226.18 L698.54 227.89 L700.35 231.54 L700.93 233.21 L701.19 235.05 L701.24 237.49 L701.53 239.37 L703.69 244.08 L703.96 246.04 L703.57 247.7 L702.99 249.37 L702.69 251.36 L702.89 253.47 L704.12 258.64 L704.89 261.09 L709.94 267.48 L710.7 267.91 L714.77 272.02 L723 277.93 L732.6 284.82 L744.03 293 L767.24 309.59 L777.01 316.56 L781.48 320.83 L789.04 331.43 L793.32 335.85 L801.12 341.45 L810.95 348.51 L822.27 356.63 L824.38 357.73 L826.46 358.13 L828.28 357.73 L833.73 355 L835.85 354.75 L837.53 355.79 L839.65 358.56 L843.65 363.75 L858.47 376.29 L867.51 381.53 L877.87 385.2 L882.6 388.18 L891.97 396.73 L898.62 402.81 L908.11 409.26 L915.11 414.01 L926.69 421.86 L931.44 423.44 L936.26 423.05 L938.08 422.02 L941.48 419.28 L943.49 418.46 L945.87 418.67 L952.96 422.11 L957.61 422.86 L959.59 423.9 L963.95 427.42 L968.51 428.72 L970.81 429.79 L972.88 431.76 L976.15 435.91 L983.29 439.27 L985.48 439.93 L990.86 439.96 L993.55 440.7 L996.1 441.94 L998.47 443.63 L998.48 443.64 L998.49 443.65 L999.35 446.08 L1000 447.92 L997.41 452.98 L993.52 458.08 L991.06 462.47 L990.79 465.97 L991.35 472.94 L991.09 476.48 L989.54 482.46 L989.28 485.63 L990.24 488.15 L991.63 489.34 L992.74 490.55 L993.02 491.97 L991.91 493.8 L990.59 495.15 L989.53 496.67 L989.38 498.29 L991.12 499.64 L989.94 500.4 L988.7 501.48 L987.62 502.69 L987.03 503.16 L986.3 503.29 L985.42 502.85 L984.36 501.28 L983.65 500.93 L981.97 501.15 L977.12 502.74 L975.27 502.56 L973.86 501.49 L972.69 500.29 L972.2 500.04 L971.57 499.72 L970.91 499.53 L969.92 498.7 L969.17 498.51 L966.84 498.64 L966.03 498.51 L964.61 497.79 L963.39 496.58 L961.44 493.95 L960.16 492.85 L944.36 486.9 L943.01 485.9 L942.52 485.33 L941.96 484.48 L940.78 481.81 L940.22 481.45 L938.82 481.13 L937.76 480.65 L937.58 481.91 L937.14 484.24 L936.21 485.02 L933.31 484.99 L932.1 485.26 L931.24 485.78 L930.53 486.69 L929.8 488.12 L929.79 488.14 L929.79 488.15 L928.91 489.9 L928.21 491.79 L927.87 493.77 L928.43 497.57 L928.47 499.53 L928.09 501.33 L927.19 502.57 L925.21 504.61 L921.95 509.12 L919.46 510.43 L918.51 510.45 L888.61 511.23 L883.4 512.96 L870.65 519.86 L868.59 521.4 L867.29 523.64 L866.97 527.08 L868.3 533.79 L868.59 537.23 L867.64 540.21 L865.06 544.97 L857.52 558.85 L856.35 561.66 L855.45 565.12 L855.22 566.93 L855.24 568.7 L855.57 570.49 L856.56 573.84 L856.75 575.65 L856.43 579.14 L855.62 582.37 L854.37 585.39 L848.85 593.97 L847.41 595.7 L845.07 597.59 L842.7 598.47 L837.52 599.68 L836.23 600.23 L835.16 600.94 L834.33 602 L833.21 605.5 L832.51 606.09 L831.64 605.89 L830.47 605.4 L827.57 604.92 L824.95 605.41 L822.47 606.65 L817.81 610.21 L816.93 611.33 L816.33 612.72 L816.34 614.27 L816.99 618.39 L816.96 619.48 L810.26 616.86 L808.29 616.44 L807.19 616.61 L806.03 616.79 L803.92 617.45 L797.31 621.35 L794.48 622.08 L785.79 622.62 L784.37 622.93 L783.06 623.66 L782.08 624.67 L780.42 626.96 L779.37 627.9 L773.68 630.58 L767.54 631.86 L752.22 631.52 L750.73 631.85 L749.64 632.98 L749.34 634.48 L749.83 635.59 L750.53 636.7 L750.84 638.23 L751.29 639.36 L754.89 642.62 L755.88 643.96 L756.35 644.35 L758.14 645.03 L758.49 645.48 L758.43 646.09 L758.02 646.88 L756.06 648.33 L750.66 650.1 L748.8 651.94 L748.68 653.23 L748.85 657.65 L749.07 658.71 L750.24 659.67 L750.49 660.57 L749.77 663.29 L749.47 666.56 L749.05 668.17 L748.1 669.16 L746.72 669.53 L743.79 669.78 L742.37 670.11 L737.64 672.39 L731.27 677.47 L730.95 677.63 L726.54 679.79 L724.7 681.66 L723.81 682.9 L722.89 683.79 L721.84 684.45 L716.73 686.66 L715.57 686.95 L714.94 686.85 L712.87 685.97 L712.11 686 L711.41 686.21 L710.71 686.26 L709.94 685.85 L705.32 681.56 L703.42 681.67 L701.12 683.8 L694.28 693.14 L693.16 693.73 L692.42 692.84 L691.1 689.73 L690.68 688.42 L690.8 684.93 L690.7 683.42 L690.22 681.89 L689.47 680.54 L688.43 679.46 L684.55 677.74 L682.62 676.43 L675.4 669.3 L673.54 668.01 L671.45 666.97 L667.34 666.89 L658.88 669.86 L654.69 670.18 L645.2 668.73 L640.55 666.85 L637.31 663.24 L632.74 659.03 L632.15 658.76 L631.68 658.55 L630.88 658.42 L630.31 658.1 L629.87 657.58 L629.4 656.91 L629.38 656.56 L629.66 655.63 L629.63 655.25 L628.51 654.26 L628.36 654.21 L628.25 654.23 L627.38 653.46 L627.98 652.49 L628.04 652.26 L627.38 651.67 L626.86 651.41 L626.27 651.41 L622.58 652.12 Z M41.69 347.6 L42.41 345.82 L43.63 344.6 L45.33 344.3 L45.67 344.89 L45.76 345.17 L45.76 345.6 L43.72 347.08 L43.38 350.73 L44.32 357.97 L45.17 365.51 L46.76 372.9 L46.47 374.02 L46.5 374.51 L46.76 375.3 L46.25 375.3 L46.06 373.16 L44.01 365.4 L42.88 362.96 L42.41 361.6 L42.28 360.68 L42.4 358.28 L42.24 355.86 L41.59 351.68 L41.43 349.59 Z M72.55 299.96 L73.36 299.2 L74.2 298.77 L74.65 299.41 L75.03 299.85 L75.38 299.91 L75.68 299.39 L75.99 301.38 L76.13 301.89 L77.57 304.1 L77.19 305.19 L76.32 306.25 L75.21 306.93 L74.2 306.93 L73.82 306.22 L73.03 303.33 L72.54 302.2 L72.16 300.98 Z "/>
</g>
</svg>
