<svg xmlns="http://www.w3.org/2000/svg" viewBox="0 0 1000 998.7">
<g fill="#ccc" stroke="#333" stroke-width="0.5" stroke-linejoin="round">
<path fill-rule="evenodd" d="M810.79 763.48 L813.11 760.13 L814.19 757.3 L813.72 754.82 L812.6 751.64 L812.45 747.29 L812.94 741.7 L814.79 745.29 L815.01 751.81 L817.2 755.25 L817.74 757.73 L815.68 760.24 Z M596.4 637.31 L594.49 637.05 L595.07 633.6 L597.09 629.1 L599.07 625.71 Z M271.68 404.48 L271.61 403.87 L271.1 402.62 L271.01 402.03 L271.78 403.85 L271.87 404.96 L271.68 405.26 Z M49.99 166.14 L51.28 162.66 L52.27 162.55 L52.14 164.22 Z M322.31 117.91 L321.2 116.18 L320.74 115.25 L320.49 114.49 L323.56 115.12 L325.63 116.18 L325.54 117.31 Z M2.65 4.07 L0 0.43 L1.23 0 L4 2.57 L6.13 7.76 Z M1000 992.99 L999.83 998.16 L999.61 998.7 L999.29 993.29 L997.85 989.63 L998.54 989.93 Z M989.71 977.94 L991.16 978.92 L992.51 982.65 L992.12 983.24 L990.75 979.81 L989.61 978.24 Z M676.33 482.9 L672.41 475.48 L671.68 472.92 L677.79 478.34 L678.52 478.6 L679.13 480.9 L679.32 483.53 L678.61 484.81 Z "/>
</g>
</svg>
