<svg xmlns="http://www.w3.org/2000/svg" viewBox="0 0 1000 1044.13">
<g fill="#ccc" stroke="#333" stroke-width="0.5" stroke-linejoin="round">
<path fill-rule="evenodd" d="M169.17 969.29 L167.16 968.67 L164.37 967.8 L161.88 968.14 L159.48 969.22 L156.6 969.94 L153.51 969.54 L150.39 968.63 L147.36 968.18 L144.56 969.18 L143.01 971.8 L141.83 979.37 L140.88 982.16 L139.77 983.08 L136.7 984.47 L136.04 985.01 L135.41 985.53 L134.88 986.63 L134.47 989.26 L134.12 990.47 L132.15 993.79 L129.76 996.85 L121.61 1004.6 L118.78 1006.29 L117.42 1006.68 L115.96 1006.8 L114.51 1007.04 L113.07 1007.9 L111.76 1010.4 L110.64 1017.5 L109.7 1020.28 L107.71 1022.14 L100.23 1025.06 L94.82 1027.96 L93.87 1028.47 L91.48 1030.93 L89.81 1034.93 L87.92 1035.32 L75.48 1042.22 L71.45 1043.71 L67.6 1044.13 L64.02 1043.11 L60.88 1040.17 L59.1 1036.29 L58.66 1028.75 L57.85 1024.91 L52.7 1017.42 L50.69 1016.4 L50.67 1016.4 L49.04 1016.15 L47.45 1016.63 L45.76 1017.69 L44.1 1019.66 L43 1023.28 L41.49 1024.17 L40.22 1023.71 L36.32 1021.34 L34.14 1020.85 L29.69 1021.65 L26.62 1023.24 L23.79 1025.28 L20.02 1027.41 L16.61 1028.33 L12.76 1028.62 L5.4 1028.22 L7.12 1017.46 L7.08 1013.96 L6.36 1011.89 L4.22 1008.22 L4.13 1006.27 L5.86 1001.63 L6.04 1000.07 L4.96 996.12 L3.08 993.31 L1.57 990.36 L1.55 985.94 L3.79 974.62 L3.96 971.32 L3.2 967.78 L0.5 960.74 L0 957.52 L0.53 955.32 L0.56 955.27 L1.48 953.71 L2.18 951.93 L1.96 949.22 L1.25 945.77 L1.14 943.96 L1.38 942.29 L3.43 939.07 L8.84 937.23 L10.91 934.77 L11.42 932.12 L11.89 921.1 L11.48 917.23 L9.85 910.09 L10 906.27 L12.29 891.84 L12.9 890.89 L13.92 890.13 L14.81 889.21 L15.04 887.79 L14.62 886.69 L13.2 884.74 L12.9 883.64 L13.63 881.63 L15.34 881.14 L17.29 881.01 L18.77 880 L19.16 877.45 L18.56 866.22 L17.71 863.4 L15.79 859.38 L15.28 858.32 L14.83 854.87 L18.78 831.8 L19.33 828.59 L22.37 810.62 L23.48 804.07 L26.67 785.38 L29.42 778.64 L30.39 775.19 L30.23 771.69 L28.06 763.7 L28.33 760.53 L29.93 755.57 L37.99 744.34 L38.99 742.28 L41.15 743.13 L42.49 744.29 L43.74 744.78 L45.56 743.62 L46.2 742.22 L52.06 712.08 L53.34 708.14 L55.44 704.71 L65.12 693.53 L68.61 689.5 L69.19 688.24 L71.82 682.52 L71.37 675.38 L67.98 660.57 L68.07 656.8 L70.33 641.32 L69.32 631.84 L69.59 629.99 L73.07 622.73 L75.44 621.36 L79.47 618.26 L82.07 616.26 L89.76 612.78 L109.32 608.34 L111.1 607.33 L113.09 604.99 L116.4 598.81 L116.97 598.15 L117.82 595.2 L121.95 590.86 L123.22 587.46 L122.23 580.01 L122.17 576.47 L124.5 574.28 L125.15 572.68 L125.62 570.78 L126 566.86 L126.49 565.67 L132.08 559.94 L133.66 559.15 L135.22 558.65 L136.91 558.96 L138.9 560.56 L142.06 562.03 L144.3 559.65 L146.53 555.95 L149.59 553.57 L151.73 553.38 L155.88 553.83 L158.34 553.57 L161.81 552.66 L164.36 551.6 L166.69 549.97 L170.36 546.86 L184.18 529.09 L192.16 518.82 L207.63 498.9 L232.42 478.89 L257.6 458.52 L270.68 447.96 L283.54 431.81 L287.77 426.49 L299.53 411.67 L310.44 397.93 L315.68 388.43 L317.26 379.55 L317.33 379.18 L317.02 378.71 L314.95 375.55 L304.59 369.66 L300.78 366.7 L299.38 363.54 L298.75 359.69 L298.48 351.77 L289.63 355.12 L286.58 355.59 L284.1 355.48 L276.07 354.09 L273.4 352.69 L272.45 351.03 L273.06 350.29 L274.08 349.75 L274.36 348.7 L273.93 347.35 L273.51 346.58 L263.17 334.95 L260.09 332.97 L253.29 332.94 L250.28 337.98 L247.73 343.88 L242.46 346.43 L239.37 345.03 L235.96 341.98 L232.93 338.37 L231.08 335.37 L230.58 332.69 L230.61 329.9 L230.2 327.67 L228.39 326.61 L215.55 326.49 L212.92 325.69 L212.39 322.55 L214.05 318.73 L216.36 315 L217.76 312.05 L217.92 308.76 L217.21 301.97 L217.44 298.56 L218.2 296.69 L221.78 291.09 L222.2 289.66 L222.34 288.89 L222.76 286.58 L228.88 270.08 L229.11 269.13 L229.14 267.31 L229.6 266.28 L230.38 265.77 L232.59 265.34 L233.31 264.98 L234.56 263.16 L239.09 250.82 L239.35 243.51 L237.36 236.25 L233.14 228.84 L229.97 225.92 L221.44 219.98 L219.24 217.26 L219.01 213.74 L219.75 209.84 L222.6 201.27 L230.07 178.78 L233.36 172.28 L234.02 171.86 L236.23 171.36 L237.08 170.93 L237.67 169.99 L237.89 168.06 L238.22 167.17 L241.85 160.91 L247.13 155.1 L248.53 153.08 L249.46 151.72 L250.62 147.8 L250.28 145.65 L248.44 141.8 L248.16 139.7 L249.39 134.51 L249.33 132.87 L246.96 128.5 L243.99 129.51 L240.52 132.49 L236.55 133.96 L237.32 131.08 L241.34 123.17 L253.44 105.52 L254.27 103.37 L254.84 101.24 L255.77 99.25 L257.79 97.46 L259.72 96.8 L263.34 96.89 L265.21 96.63 L267.7 95.49 L273.34 91 L275.05 90.31 L278.53 89.62 L280.18 88.96 L285.08 85.13 L291.87 79.82 L296.65 78.48 L305.3 78.49 L312.8 79.53 L320 81.82 L335.15 90.06 L358.55 102.81 L361.9 103.51 L363.88 101.77 L364.06 101.61 L366.2 98.93 L369.42 97.32 L388.43 94.52 L391.79 93.09 L393.49 91.54 L408.07 75.12 L408.47 74.07 L409.04 74.18 L412.72 75.9 L413.81 76.4 L418.14 80.04 L431.19 94.66 L433.82 99.07 L434.51 102.55 L435.07 111 L436.34 114.1 L438.84 115.41 L453.24 116.3 L454.69 116.39 L456.77 117.5 L459.1 121.23 L460.31 123.17 L463.12 126.07 L466.2 127.67 L477.72 130 L479.94 129.91 L481.14 128.32 L481.4 127.16 L481.96 124.57 L482 121.72 L481.2 115.15 L481.4 112.78 L483.57 110.29 L517.28 89.74 L525.3 87.86 L558.96 85.11 L587.75 82.77 L603.13 78.13 L617.52 70.81 L628.64 62.54 L631.87 61.38 L635.54 62.91 L658.67 81.84 L662.51 83.87 L668.18 84.97 L684.88 85.8 L714.34 87.3 L722.28 86.31 L729.07 82.33 L729.96 81.8 L743.45 68.25 L760.98 50.63 L781.46 30.06 L796.55 14.94 L811.4 0 L816.7 2.57 L820.83 5.82 L823.12 10.08 L822.87 15.73 L823.1 18.24 L824.71 20.25 L826.75 22.12 L828.29 24.19 L828.86 26.32 L828.91 28.48 L828.38 32.76 L827.66 35.32 L826.87 37.06 L826.79 38.93 L828.23 41.85 L830.41 43.88 L833.1 45.68 L835.22 47.79 L835.67 50.76 L833.72 55.47 L831.39 59.7 L831.13 62.88 L835.39 64.42 L838.27 63.86 L845.54 61.25 L849.1 61.27 L853.15 63.39 L853.62 65.9 L851.64 68.38 L842.89 72.92 L843.23 73.92 L846.11 75.01 L848.4 77.8 L844.74 80.14 L843.53 81.56 L845.86 82.44 L847.41 82.34 L850.58 81.52 L854.17 81.28 L857.81 80.25 L859.74 80.09 L859.85 80.99 L863.93 86.25 L866.69 93.66 L868.81 94.86 L869.66 94.1 L870.46 92.34 L872.37 90.54 L877.35 89.1 L880.65 90.42 L886.59 96.78 L890.04 98.58 L893.47 99.63 L896.16 101.37 L897.39 105.23 L896.93 119.99 L895.21 127.35 L891.72 132.71 L890.02 133.57 L888.15 134.07 L886.48 134.8 L885.46 136.41 L885.61 138.39 L887.86 142.33 L888.62 144.34 L888.33 146.08 L886.5 150.58 L885.95 152.65 L886.42 154.85 L887.86 156.82 L889.58 158.7 L890.93 160.66 L893.3 167.99 L895.11 190.52 L897.1 194.72 L900.93 197.15 L909.56 199.63 L913.41 202.18 L915.55 206.03 L915.56 206.05 L920.89 233.8 L922.72 237 L928.54 243.47 L931.28 247.85 L932.95 249.58 L935.45 250.24 L936.58 249.85 L938.63 248.17 L939.39 247.8 L939.84 247.48 L940.65 246.05 L941.11 245.76 L941.81 246.09 L942.21 246.72 L942.51 247.36 L942.87 247.69 L943.21 248.18 L948.4 250.68 L949.37 250.91 L950.61 252.47 L951.35 254.09 L955.08 265.65 L957.87 281.59 L965.59 297.66 L967.32 299.35 L969.83 299.54 L971.31 298.18 L972.52 296.66 L974.19 296.4 L976.03 298.9 L977.07 308.03 L978.13 311.53 L983.13 316.66 L984.81 319.79 L984.32 323.95 L981.61 327.2 L977.92 329.31 L974.61 331.86 L973 336.39 L974.19 343.6 L981.28 360.69 L984.59 368.68 L992.86 388.63 L992.88 392.17 L991.16 400.35 L990.87 403.92 L991.1 407.71 L991.86 411.38 L993.16 414.59 L994.77 416.49 L999.07 420.51 L1000 422.55 L999.32 424.52 L995.89 428.86 L995.1 431.09 L994.91 466.71 L993.81 470.69 L987.99 483.01 L986.67 485.09 L984.79 486.85 L982.98 487.68 L979.13 488.47 L977.3 489.39 L973.07 495.68 L969.21 510.48 L958.32 519.39 L958.64 522.46 L959 525.9 L962.18 533.36 L964.1 540.65 L961.79 548.09 L955.95 550.74 L940.88 552.28 L937.08 554.61 L930.83 560.61 L921.95 562.64 L920.7 565.99 L920.39 570.12 L919.46 571.71 L918.42 573.48 L918.21 573.52 L914.6 574.21 L911.61 572.52 L908.58 571.81 L904.83 575.48 L903.03 578.76 L901.49 582.49 L900.55 586.39 L900.43 594.61 L899.36 598.36 L894.6 610.1 L889.32 616.97 L886.69 624.34 L883.54 627.2 L871.78 633.09 L870.27 634.7 L869.88 637 L869.15 641.22 L866.2 649.07 L861.79 653.81 L855.86 656.82 L848.42 659.51 L843 663.22 L839.86 668.86 L839.71 669.49 L835.29 687.57 L834.73 689.13 L833.44 691.04 L830.28 694.79 L829.46 696.45 L829.65 699.83 L831.72 706.51 L831.2 710.24 L829.63 712.66 L823.04 717.78 L808.32 737.42 L806.76 739.5 L796.1 753.7 L795.53 757.32 L801.23 776.19 L806.89 795.02 L807.08 802.1 L803.71 831.19 L799.35 868.96 L796.32 895.25 L797.01 920.23 L798.05 957.52 L783.03 957.52 L749.51 957.52 L748.13 957.52 L715.95 957.52 L710.51 957.52 L682.42 957.52 L648.86 957.52 L615.33 957.52 L604.39 957.52 L581.79 957.52 L581.5 957.52 L548.25 957.52 L514.69 957.52 L481.14 957.52 L447.59 957.52 L446.63 957.52 L414.05 957.52 L380.52 957.52 L346.97 957.52 L317.34 957.52 L313.43 957.52 L279.89 957.52 L246.34 957.52 L234.5 957.52 L231.59 956.08 L225.11 954.45 L218.22 958.05 L211.27 960.24 L208.62 961.63 L202.07 968.56 L199.74 970.49 L195.32 969.11 L191.33 968.67 L182.09 969.52 L178.68 970.32 L176.47 970.49 L175.44 970.02 L174.5 968.99 L173.13 968.08 L170.86 967.88 L169.38 969.07 Z "/>
</g>
</svg>
