<svg xmlns="http://www.w3.org/2000/svg" viewBox="0 0 1000 669.01">
<g fill="#ccc" stroke="#333" stroke-width="0.5" stroke-linejoin="round">
<path fill-rule="evenodd" d="M534.29 24.31 L537.7 23.99 L539.53 24.37 L540.82 25.59 L541.12 27.07 L541.14 28.73 L541.37 30.12 L542.39 30.76 L543.33 30.58 L546.29 29.09 L548.3 28.89 L551.64 29.78 L552.67 29.71 L560.31 26.09 L562.77 24.12 L564.38 20.64 L565.05 15.19 L565.57 13.59 L566.11 13.01 L566.79 12.61 L567.41 12.07 L567.72 11.05 L567.52 10.27 L566.47 8.39 L566.2 7.42 L566.98 4.3 L569.24 3.83 L574.02 5.61 L576.68 4.79 L587.61 10.6 L589.28 10.58 L592.56 9.7 L594.19 9.67 L595.13 10.14 L596.78 11.49 L597.79 11.6 L598.78 11.07 L604.51 5.93 L605.51 5.44 L606.01 5.48 L606.74 5.88 L607.25 5.75 L607.68 5.28 L608.33 4.01 L608.88 3.69 L609.94 3.29 L610.65 2.6 L612.08 0.81 L612.98 0.15 L613.74 0 L619.16 1.06 L622.75 1.04 L623.7 1.24 L625.06 2.23 L625.23 2.36 L626.1 2.78 L627.1 2.71 L627.9 2.15 L628.65 1.47 L629.49 1.02 L630.54 2.54 L630.19 5.97 L631.13 7.39 L632.33 7.27 L636.13 3.47 L641 1.19 L643.53 0.72 L646.05 0.81 L647.44 1.3 L648.06 2.17 L648.51 3.4 L649.38 5 L650.47 6.06 L652.8 7.54 L653.85 9 L655.23 12.08 L655.97 13.08 L659.53 15.51 L660.47 16.54 L661.4 18 L661.93 19.06 L662.25 19.94 L662.39 20.79 L662.41 21.8 L661.45 23.84 L661.45 24.33 L661.64 25.88 L661.78 28.86 L662.1 30.59 L662.77 32.15 L663.92 34.06 L664.1 35.61 L663.67 36.93 L663.65 37.72 L666.42 37.74 L667.54 38.58 L669.59 41.28 L669.93 41.59 L670.66 42.1 L670.98 42.45 L671.13 42.87 L671.33 44.11 L671.3 44.33 L671.96 44.59 L673.01 44.07 L673.66 44.07 L674.65 44.73 L676.49 46.83 L677.58 47.62 L678.9 48.96 L679.71 49.78 L681.2 53.36 L681.28 57.06 L679.19 59.55 L678.11 59.83 L674.85 59.77 L665.41 62.05 L663.25 63.31 L662.72 65.41 L663.34 66.3 L665.3 66.85 L666.08 67.37 L666.33 68.03 L666.57 69.87 L666.8 70.69 L667.2 71.39 L669.54 74.07 L670.26 75.33 L670.72 76.87 L670.84 78.82 L670.72 79.76 L670.24 81.33 L670.08 82.19 L670.14 83.1 L670.35 83.88 L670.49 84.66 L670.35 85.57 L669.89 86.07 L668.68 86.35 L668.4 86.88 L668.62 87.61 L669.18 88.36 L670.28 89.42 L671.1 89.96 L672.03 90.34 L672.98 90.53 L673.86 90.53 L674.96 89.9 L675.44 92.89 L674.04 95.86 L671.84 98.27 L668.63 100.5 L672.62 102.21 L673.94 102.49 L674.93 102.03 L677 100.3 L678.93 99.79 L681 100.12 L684.96 101.56 L686.79 102.21 L690.38 101.58 L692.06 101.82 L692.84 102.64 L693.18 103.85 L693.43 105.22 L693.97 106.55 L694.78 107.34 L695.75 107.69 L699.81 107.95 L703.66 107.07 L708.21 105.14 L710.79 103.56 L711.67 103.47 L712.69 103.99 L713.75 104.64 L714.82 104.43 L715.93 103.93 L717.08 103.74 L718.15 104.16 L718.85 105.04 L719.29 106.32 L720.65 114.44 L721.75 117.34 L723.36 118.91 L725.24 119.07 L729 118.19 L730.91 118.32 L732 118.69 L733 119.27 L733.48 120.24 L733.02 121.77 L732.23 122.5 L729.21 123.15 L729.44 124.12 L729.44 125.92 L729.44 126.53 L729.58 127.4 L730.07 127.99 L731.38 128.29 L732.04 128.74 L732.74 129.91 L732.81 130.94 L732.67 132.02 L732.72 133.37 L733.12 134.49 L734.25 136.05 L734.74 137.13 L734.85 138.37 L734.72 139.43 L734.81 140.33 L735.59 141.11 L736.98 141.94 L737.6 142.53 L738.11 143.39 L738.58 145.85 L738.4 148.03 L738.49 149.95 L739.79 151.61 L735.5 153.55 L734.65 154.58 L734.74 155.7 L737.37 166.29 L738.55 168.43 L740.42 169.22 L741.63 169.45 L742.78 169.87 L743.78 170.69 L744.55 172.15 L744.98 174.21 L745.06 175.76 L745.41 177.1 L746.63 178.49 L747.7 179.25 L748.82 179.83 L749.96 180.17 L751.13 180.25 L752.18 179.9 L752.44 179.82 L753.19 178.91 L753.79 177.77 L754.71 176.65 L755.18 176.44 L756.24 176.4 L756.74 176.19 L757.36 175.53 L758.46 173.99 L759.23 173.39 L760.24 173.03 L765.48 172.42 L775.13 173.21 L776.65 174.04 L777.07 175.66 L778.65 176.47 L784.18 185.36 L785.45 186 L786.78 185.92 L788.09 185.35 L789.31 184.47 L790.39 183.39 L790.78 183.18 L791.46 183.16 L792 183.34 L793.14 184.01 L794.37 184.3 L795.89 185.4 L797.67 185.79 L798.16 185.99 L799.01 186.56 L799.15 186.78 L799 187.14 L798.88 189.06 L798.75 189.92 L798.92 190.69 L799.74 191.36 L800.93 191.82 L802.23 192.03 L803.48 191.86 L804.53 191.2 L805 190.49 L805.89 188.61 L806.41 187.82 L807.13 187.16 L816.33 181.68 L819.96 180.35 L823.63 180.08 L827.6 180.67 L835.66 178.32 L837.31 177.04 L840.55 173.72 L842.19 173.05 L847.76 172.28 L848.88 172.88 L849.71 175.14 L850.46 177.96 L851.36 180.26 L856.25 182.65 L857.97 184.53 L858.1 188.17 L857.54 190.22 L857.38 191.15 L857.48 192.09 L857.85 192.68 L859.78 194.66 L865.09 202.92 L867.08 204.31 L871.48 206.34 L873.64 207.72 L875.54 209.43 L877.24 211.6 L879.04 214.76 L879.1 214.92 L879.94 216.5 L879.97 217.83 L880.23 218.35 L881.47 217.55 L883.89 215.99 L884.59 215.76 L885.21 215.89 L886.22 216.55 L886.81 216.68 L889.42 214.84 L889.71 211.09 L889.31 207.09 L889.85 204.52 L890.73 204.29 L894.28 204.61 L895.8 204.32 L896.84 204.49 L897.63 205.44 L899.29 210.4 L899.95 211.39 L901.08 211.88 L903.51 212.15 L904.49 212.54 L905.78 213.43 L907.8 214.18 L911.83 213.45 L914.57 213.96 L915.09 213.74 L915.58 213.4 L916.94 212.94 L917.07 212.72 L917.06 212.93 L917.53 214.63 L917.68 216.01 L917.98 216.76 L918.33 217.15 L921.69 219.59 L927.48 221.28 L929.37 223.05 L930.71 225.17 L932.2 226.64 L937.47 226.31 L938.4 226.03 L939.47 225.12 L941.22 222.5 L942.17 221.4 L944.32 220.61 L945.72 221.82 L945.81 221.91 L948.88 229.93 L950.15 231.7 L951.76 232.77 L953.85 233.27 L956.05 232.79 L958.2 231.73 L960.29 231.27 L962.3 232.64 L963.36 233.11 L966.6 233.47 L967.32 234.38 L967.94 236.32 L968.82 239.98 L970.23 242.94 L971.92 244.11 L973.88 244.65 L976.13 245.73 L979 248.51 L980.14 249.04 L981.65 249.1 L983.35 248.75 L985.01 248.09 L986.42 247.26 L989.71 243.87 L991.04 243.39 L992.13 243.42 L997.56 244.9 L997.72 245.08 L998.4 245.82 L998.14 247.59 L997.29 248.77 L995.14 250.02 L994.16 250.95 L993.09 253.75 L993.42 256.44 L994.59 258.97 L996.77 262.41 L999.36 265.47 L1000 266.83 L999.87 268.34 L999.07 271.23 L999.01 274.3 L998.58 275.11 L997.27 275.84 L996.19 276.72 L994.35 279.65 L993.28 280.86 L990.02 283.12 L988.49 284.59 L987.32 286.62 L987.05 287.81 L986.9 290.23 L986.64 291.09 L986 291.53 L985.12 291.6 L983.49 291.32 L981.8 291.3 L977.22 292.92 L974.41 292.73 L973.46 293.42 L973.06 297.66 L973.82 298.72 L974.94 299.46 L975.95 300.46 L976.69 301.98 L977.14 303.13 L977.77 303.97 L979.07 304.56 L983.49 305.57 L985.41 305.28 L986.06 305.4 L986.64 305.9 L987.69 307.27 L988.4 307.56 L989.61 306.93 L990.59 305.63 L991.64 304.61 L993.05 304.8 L994.13 306.18 L994.08 307.82 L993.3 309.48 L992.24 310.9 L989.78 312.88 L987.54 313.13 L981.4 310.69 L980.12 310.76 L978.91 311.36 L977.8 312.61 L977.35 313.54 L976.97 314.49 L976.52 315.25 L975.14 315.82 L974.67 316.51 L971.28 327.84 L970.72 329.92 L972.86 329.79 L973.96 329.35 L980.56 330.18 L982.01 331.05 L983.11 332.5 L983.53 334.68 L983.6 335.3 L983.72 335.77 L983.85 336.12 L983.91 336.37 L983.68 337.08 L983.16 337.25 L982.65 337.22 L982.39 337.28 L982.54 338.58 L983.07 339.26 L983.65 339.73 L985.39 343.57 L985.98 345.7 L986.41 346.84 L986.94 347.56 L985.68 348.81 L984.72 350.04 L980.94 353.23 L984.76 355.66 L985.89 355.53 L988.79 354.46 L989.98 354.74 L990.78 356.14 L990.63 357.77 L989.91 359.29 L988.96 360.41 L986.3 362.44 L985.25 363.66 L982.44 368.92 L981.79 370.56 L981.66 372.49 L982.51 375.07 L982.44 375.84 L982.29 375.95 L981.92 375.85 L978.88 376.43 L978.29 376.84 L977.83 377.62 L977.94 378.04 L978.4 378.52 L978.96 379.42 L979.74 381.23 L979.84 382.06 L979.72 383.35 L979.53 384.01 L978.94 385.28 L978.78 386 L978.81 386.59 L979.06 387.73 L979.11 388.25 L978.7 390.61 L977.78 392.68 L976.38 394.08 L974.55 394.45 L968.99 392.97 L967.3 392.85 L963.93 393.52 L962.3 393.25 L961.03 392.82 L958.64 393.49 L957.4 393.54 L956.4 393.07 L954.54 391.8 L953.41 391.6 L945.3 392.34 L943.07 392.96 L941.97 393.05 L940.83 392.75 L937.85 390.7 L937.68 390.69 L928.87 390.34 L926.3 391.42 L924.37 393.76 L922.97 396.99 L921.99 400.76 L921.54 404.22 L920.95 405.54 L919.76 405.66 L917.81 404.88 L916.94 405.03 L915.89 405.84 L913.84 408.18 L912.8 409.07 L911.39 409.7 L899.78 411.31 L897.9 412.6 L896.48 414.95 L895.42 417.82 L894.64 420.69 L894.83 426.53 L894.51 428.87 L893.15 431.39 L891.49 433.67 L890.77 435.12 L890.67 436.42 L891.35 437.27 L892.43 437.42 L894.5 437.09 L895.5 437.17 L896.39 437.56 L896.9 438.46 L896.74 440.09 L896 441.31 L894.85 442.1 L893.59 442.72 L892.55 443.43 L891.49 445.3 L891.13 447.74 L891.38 450.32 L892.22 452.56 L892.21 452.58 L891.09 453.68 L888.09 457.91 L886.2 458.83 L887.44 456.22 L887.42 454.89 L885.99 454.33 L884.17 452.84 L883.9 452.98 L883.59 453.24 L882.15 454.11 L881.66 454.33 L879.52 453.48 L878.1 453.16 L877.45 453.54 L872.5 452.71 L866.52 454.84 L864.13 454.93 L856.95 453.61 L855.04 454.33 L851.52 458.04 L845.7 466.34 L844.24 469.2 L843.33 470.52 L842.09 471.08 L842.34 469.03 L841.12 467.45 L839.19 466.44 L837.33 466.09 L836.28 466.37 L833.73 468.36 L827.31 470.9 L826.33 471.08 L825.71 471.43 L823.89 472.95 L823.28 473.29 L821.34 474 L818.42 476.88 L816.61 477.17 L817.1 479.08 L816.36 480.9 L815.28 482.72 L814.72 484.68 L814.32 486.87 L813.29 489.05 L811.93 490.36 L810.52 489.98 L810.52 489.38 L810.93 489.38 L812.06 489.87 L813.1 487.63 L813.76 484.74 L813.77 483.3 L813.32 482.94 L811.31 480.54 L810.46 480.07 L808.65 479.41 L807.87 478.83 L806.93 479.39 L805.96 479.33 L804.42 478.83 L803.49 479.1 L802.87 479.68 L802.42 480.27 L801.99 480.54 L798.33 480.54 L796.03 481.93 L793.25 482.48 L791.45 483.37 L789.84 484.62 L786.09 488.6 L785.03 490.44 L784.7 492.79 L784.28 492.79 L784.3 491.59 L784.1 491.32 L783.56 491.63 L783.01 491.85 L782.94 492.36 L782.89 492.51 L782.61 491.77 L782.76 491.44 L782.82 490.92 L782.81 490.53 L782.18 490.1 L782.05 489.98 L781.56 489.02 L781.27 488.64 L780.9 488.32 L779.77 487.81 L778.78 487.84 L776.72 488.32 L772.7 487.72 L765.13 489.16 L763.8 489.12 L759.67 491.5 L756.56 493.28 L754.94 494.64 L750.47 499.9 L748.66 501.57 L742.1 504.9 L741.05 505.64 L740.18 506.63 L738.5 509.02 L737.64 509.86 L735.7 511.22 L734.87 512.04 L729.57 520.81 L729.29 521.14 L728.4 522.17 L725.4 527.98 L724.03 529.93 L722.76 531.31 L720.5 532.09 L719.14 533.23 L717.24 533.68 L715.92 534.68 L713.78 535.68 L712.79 535.34 L712.97 534.57 L714.73 532.55 L716.66 531.31 L716.51 531 L716.25 530.21 L722.05 528.43 L724.9 526.92 L726.42 523.82 L727.75 522.34 L728.33 520.97 L729.95 518.07 L731.97 515.99 L732.76 514.67 L732.98 512.64 L732.03 513.68 L731.07 514.52 L729.97 514.61 L728.63 513.44 L728.13 511.64 L728.46 509.52 L729.57 506.49 L729.16 506.22 L728.26 506.16 L727.68 506 L727.27 505.72 L726.56 505.03 L725.69 504.46 L724.97 503.36 L724.4 501.91 L724.23 500.45 L723.03 502 L723.44 503.6 L724.44 505.07 L724.99 506.24 L725.16 507.29 L725.47 507.88 L725.64 508.55 L725.4 509.79 L724.96 510.68 L723.09 512.64 L719.8 517.72 L719.61 517.93 L717.95 519.86 L715.49 521.41 L710.24 522.72 L709.71 522.75 L709.02 522.51 L708.68 522.01 L708.64 521.42 L708.5 521.1 L707.88 521.41 L707.49 522.13 L707.43 523.04 L707.25 523.82 L704.85 524.95 L704.64 525.31 L703.67 526.66 L703.37 527.43 L703.31 528.27 L703.42 528.9 L703.75 530.21 L704.03 535.33 L704.29 536.49 L704.83 537.76 L706.81 547.46 L707.32 548.52 L707.97 549.46 L708.52 550.45 L711.46 558.34 L713.89 563.15 L716.25 567.83 L732.21 591.49 L740.45 597.29 L742.51 597.47 L752.34 594.71 L753.5 593.91 L755.02 592.29 L755.24 591.53 L755.31 590.82 L755.55 590.29 L756.35 590.09 L756.65 589.83 L757.52 588.63 L757.7 588.25 L757.88 586.8 L758.38 585.33 L759.11 584.15 L760.01 583.61 L761.36 583.73 L761.49 584.51 L761.06 585.73 L760.77 587.14 L761.16 588.11 L762.11 588.89 L766.3 591.42 L768.48 592.16 L770.49 591.74 L772.13 589.6 L772.88 587.2 L773.08 586.85 L774.6 585.9 L775.8 584.71 L776.88 584.31 L783.26 584.36 L784.11 583.9 L785.01 583.16 L785.9 583.42 L786.31 584.4 L785.83 585.82 L786.55 585.78 L787.07 585.39 L787.55 584.93 L788.15 584.69 L789.21 584.91 L790.97 586.09 L792.1 586.36 L795.36 585.6 L796.47 585.82 L797.87 587.66 L798.82 588.51 L799.69 588.25 L800.69 587.23 L801.61 587.05 L802.47 587.54 L803.29 588.52 L804.27 591.21 L804.67 593.07 L804.25 593.91 L802.45 594.41 L801.77 594.44 L801.15 594.27 L799.5 593.37 L798.2 593.17 L797.13 593.41 L796.4 594.25 L796.13 595.82 L796.33 596.38 L796.68 596.7 L796.84 597.05 L796.47 597.73 L796 597.99 L794.74 598.08 L794.24 598.27 L793.51 599.32 L792.89 600.93 L792.44 602.63 L791.97 607.26 L791.94 608.97 L792.27 610.63 L793.79 612.35 L794.52 613.52 L794.41 614.7 L793.67 615.41 L789.66 616.88 L784.71 617.11 L784.11 617.28 L783.56 617.65 L783.34 618.1 L783.03 619.45 L782.81 619.85 L781.72 620.12 L776.8 619.03 L773.65 617.07 L773.65 617.65 L771.91 616.88 L770.67 618.13 L769.73 619.94 L768.89 620.87 L764.64 620.6 L760.82 621.3 L759.7 620.77 L759.22 619.02 L758.88 618.23 L757.23 616.19 L756.56 615.56 L752.97 613.28 L748.96 611.7 L746.55 611.3 L744.15 611.31 L741.86 611.8 L739.83 612.78 L736.9 615.15 L736.42 615.8 L736.28 616.71 L735.99 617.34 L735.82 617.96 L736.01 618.78 L736.33 619.13 L737.94 619.85 L737.94 620.33 L737.2 620.68 L735.39 620.56 L734.53 620.87 L733.87 621.76 L733.79 622.78 L734.15 625.15 L731.5 623.06 L731.27 623.37 L730.7 623.77 L730.32 624.13 L728.94 623.3 L727.99 623.95 L726.72 626.54 L725.72 627.42 L723.32 627.99 L722.34 628.46 L720.98 631.01 L719.8 634.42 L718.27 636.86 L715.87 636.47 L715.28 635.64 L714.77 634.56 L714.1 633.62 L713.01 633.22 L711.15 633.12 L710.57 633.22 L709.91 633.55 L709.49 633.96 L709.13 634.39 L708.67 634.77 L707.68 634.96 L705.86 634.52 L705.05 635.06 L704.16 635.45 L700.3 634.77 L698.3 635.51 L694.4 638.15 L692.32 639.09 L687.89 640.05 L686.05 640.86 L684.67 642.34 L684.63 642.12 L684.63 641.93 L684.57 641.82 L684.33 641.86 L682.13 644.99 L681.83 645.53 L681.29 646.23 L679.4 649.54 L677.24 655.21 L676.69 656.23 L676.21 656.38 L674.97 656.22 L674.18 656.23 L673.59 656.16 L673.34 656.23 L673.07 656.5 L673.05 656.73 L673.07 656.98 L672.93 657.28 L671.79 659.18 L671.06 659.77 L668.43 660.32 L667.75 661.19 L667.23 662.37 L666.49 663.66 L665.88 664.28 L664 665.59 L663.23 665.83 L661.96 666.01 L655.97 668.86 L654.86 669.01 L653.59 668.8 L650.1 667.42 L649.41 667.44 L648.25 667.85 L647.64 667.95 L643.95 667.85 L642.83 667.56 L638.64 665.59 L637.88 664.87 L637.57 663.42 L637.24 662.7 L635.57 660.54 L634.92 659.99 L633.92 660.05 L632.74 660.42 L631.55 660.5 L630.55 659.7 L629.86 658.96 L623.9 654.74 L623.49 653.81 L623.44 652.92 L623.42 652.88 L623.64 653.12 L625.33 652.74 L625.79 652.5 L627.02 651.57 L627.52 651.44 L628.71 651.53 L629.32 651.46 L629.77 651.18 L630.57 650.9 L633.41 650.84 L634.54 650.38 L633.78 650.08 L631.97 649.73 L631.48 649.31 L631.4 648.15 L631.88 647.19 L632.55 646.35 L633.03 645.53 L633.26 644.29 L633.17 643.44 L632.61 641.86 L632.26 639.71 L631.97 638.53 L631.48 637.54 L631.91 637.18 L632.11 636.9 L632.27 636.47 L632.65 634.89 L633.13 633.49 L633.88 632.48 L636.03 631.73 L636.63 630.76 L637.01 629.4 L637.22 627.87 L637.21 626.08 L636.6 623.01 L636.43 621.69 L636.28 621.23 L635.3 619.26 L635.11 618.55 L634.92 616.53 L634.04 613.33 L632.65 611.49 L628.86 609.02 L625.77 606.21 L624.83 605.8 L622.54 606.11 L620.46 606.92 L618.51 608.1 L617.24 608.45 L616.67 607.7 L616.15 606.59 L614.96 605.98 L612.47 605.26 L611.62 604.46 L609.68 602.01 L608.3 601.2 L607.83 600.53 L607.2 599.35 L606.68 598.96 L605.71 598.56 L605.23 598.27 L601.54 595.09 L599.54 593.76 L597.25 592.83 L588.98 592.11 L587.78 592.29 L586.9 592.92 L584.94 595.06 L584.15 595.52 L580.17 595.52 L578.99 595.13 L577.06 594.11 L575.81 593.91 L574.32 589.62 L574.08 588.52 L574.83 586.41 L576.5 584.62 L583.06 579.6 L584.15 579.29 L585.43 579.17 L586.46 578.85 L587.33 578.35 L588.12 577.72 L588.63 577.12 L588.96 576.59 L589.4 576.19 L590.24 576.04 L590.8 576.13 L591.88 576.54 L592.52 576.63 L593.29 576.37 L593.39 575.75 L593.21 575.02 L593.12 574.42 L593.24 573.74 L593.45 573.31 L593.84 572.75 L595.52 571 L599.33 568.43 L611.9 562.57 L612.61 562.03 L612.88 561.07 L612.62 560.77 L612.09 560.48 L611.67 560.01 L611.75 559.19 L612.22 558.74 L612.74 559.07 L613.64 560.28 L615.6 561.41 L617.56 561.18 L621.59 558.65 L623.6 557.78 L623.9 557.26 L625.58 555.39 L626.41 555.04 L628.74 553.52 L629.59 553.17 L629.99 553.34 L631 554.08 L631.68 554.25 L632.24 554.17 L633.58 553.76 L634.92 552.08 L636.05 551.34 L636.69 551.07 L637.22 550.99 L637.81 551.13 L638.43 551.45 L638.93 551.88 L639.12 552.37 L639.39 552.78 L640.01 552.84 L641.21 552.67 L641.29 551.73 L641.17 549.84 L641.31 548.38 L642.15 548.76 L643.07 548.26 L644.97 547.76 L645.94 547.18 L644.92 546.28 L643.86 545.73 L640.7 544.88 L639.3 545 L638.66 545.27 L638.28 545.77 L637.9 546 L637.22 545.49 L638.25 544.1 L638.72 543.18 L638.54 542.76 L637.9 542.5 L637.85 541.84 L638.14 541.05 L638.54 540.37 L638.47 539.79 L637.76 537.04 L637.67 536.14 L638.28 535.3 L638.81 534.37 L638.54 533.19 L637.7 531.57 L636.87 529.95 L635.93 529.11 L634.54 529.62 L633.34 530.65 L632.38 531.85 L632.31 533.02 L633.78 533.99 L633.78 534.58 L632.31 534.69 L630.89 535.15 L630.34 536.14 L631.48 537.86 L630.93 537.82 L629.77 537.31 L626.35 537.3 L625.87 536.92 L624.15 534.56 L622.68 533.26 L621.2 532.97 L620.08 534.58 L619.8 534.18 L619.56 534.08 L619.28 534.08 L618.94 533.99 L619.86 533.08 L620.46 531.99 L620.35 531.09 L619.12 530.71 L614.74 531.31 L615.14 530.25 L615.34 529.24 L615.88 523.65 L614.59 525.06 L613.65 527.27 L612.55 529.31 L610.78 530.21 L610.35 530.31 L609.65 530.7 L609.09 530.71 L608.57 530.5 L607.37 529.62 L604.14 527.98 L604.64 530.29 L603.85 531.35 L598.02 532.35 L597.25 532.35 L596.82 532.23 L596.33 531.91 L595.97 531.86 L594.69 531.94 L594.21 531.86 L591.18 530.82 L589.87 530.71 L589.04 530.92 L586.97 531.96 L579.99 533.22 L579.42 533.44 L578.85 533.84 L577.93 534.82 L577.53 535.13 L575.29 535.48 L564.14 532.23 L562.93 531.36 L562.22 531.44 L561.92 531.31 L561.81 531 L561.64 529.97 L561.54 529.62 L561.33 529.02 L561.09 527.91 L560.79 527.43 L561.84 526.47 L562.16 525.98 L562.3 525.19 L560.64 525.94 L559.19 526.12 L557.76 525.82 L555.27 524.92 L554.5 524.78 L553.77 524.4 L551.68 521.59 L550.15 520.26 L548.37 520.95 L545.61 519.49 L541.03 515.93 L540.93 516.84 L541.15 517.93 L541.26 518.84 L540.84 519.22 L537.33 519.1 L536.33 518.74 L535.49 518.15 L534.74 517.32 L534.46 516.08 L535.16 514.99 L536.26 514.15 L537.2 513.69 L538.34 513.56 L541.41 514.24 L545.6 513.44 L546.1 513.1 L549.01 510.39 L549.68 510.24 L550.42 510.26 L550.8 510 L550.33 509.02 L547.8 505.56 L546.9 505.19 L544.85 505.4 L542.41 505.01 L534.7 501.79 L533.41 501.46 L532.19 501.38 L531.32 501.82 L530.5 502.73 L530.18 503.18 L529.97 503.8 L529.89 504.56 L529.97 507.1 L528.7 503.7 L528.27 503.2 L527.47 502.89 L520.98 496.27 L520.09 494.39 L521.86 495.8 L523.32 497.39 L524.15 497.8 L533.85 497.08 L535.73 497.64 L538.93 499.6 L539.14 499.68 L539.7 499.9 L544.43 499.9 L549.22 500.94 L552.42 500.42 L553.56 500.45 L559.65 501.82 L562.68 503.8 L564.98 504.32 L567.39 504.12 L569.53 503.2 L571.05 501.54 L570.02 500.06 L571.53 497.97 L575.42 494.67 L576.47 493.97 L579.04 493.67 L580 493.04 L580.86 492.12 L581.72 491.49 L582.52 490.71 L583.17 489.38 L581.86 490.01 L580.35 491.1 L578.84 491.89 L577.53 491.63 L570.05 495.89 L565.99 496.44 L562.3 494.39 L561.44 493 L561.13 492.79 L560.5 493.03 L559.57 494.13 L559.07 494.39 L558.44 494.48 L557.36 494.86 L556.79 494.94 L555.48 496.59 L554.69 495.78 L553.91 492.83 L552.97 492.18 L549.56 491.49 L548.63 491.03 L547.86 490.17 L546.97 488.75 L546.24 487.16 L545.95 485.79 L545.74 484.26 L545.22 483.07 L544.6 481.92 L544.05 480.54 L543.82 477.18 L544.85 474.66 L546.35 472.32 L547.5 469.47 L547.78 467.86 L547.73 466.62 L547.14 465.82 L544.37 465.3 L543.81 464.64 L543.99 463.57 L545.64 461.08 L546.08 460.21 L545.75 459.64 L544.24 459.43 L541.82 459.86 L540.77 459.75 L539.89 458.83 L541.44 455.4 L541.64 453.42 L540.84 451.31 L540.05 450.6 L539.36 450.41 L538.8 450.06 L538.37 448.81 L538.2 447.27 L538.18 446.39 L537.97 445.75 L537.2 444.91 L533.92 443.35 L533.41 442.35 L533.68 440.71 L533.61 440.11 L533.04 439.84 L532.82 440.15 L532.04 441.61 L531.86 442.07 L532.21 443 L533.08 443.92 L534.15 444.63 L536.61 445.27 L537.17 446.23 L537.13 450.98 L537.38 451.44 L538.75 451.77 L539.13 452.15 L539.41 452.53 L539.7 452.71 L540.39 453.33 L539.96 454.7 L539.17 456.04 L538.75 456.6 L538.34 460.28 L540.1 461.06 L542.6 460.72 L544.43 461.04 L542.8 462.9 L542.06 464.18 L541.78 465.54 L542.24 466.95 L543.24 467.24 L544.46 466.81 L545.6 466.09 L545.86 467.85 L545.33 470.26 L544.32 472.38 L543.1 473.29 L541.74 473.73 L540.57 474.92 L539.86 476.67 L539.89 478.83 L541.97 481.65 L542.19 482.21 L541.78 485.79 L541.95 487.16 L542.23 487.8 L542.29 488.32 L541.78 489.38 L541.38 489.86 L540.16 490.71 L539.51 491.03 L537.08 491.52 L534.69 491.16 L529.28 489.09 L525.97 489.38 L525.02 489.89 L524.55 491 L524 491.98 L522.78 492.18 L522.32 491.93 L521.54 491.19 L521.04 491.03 L519.86 491.12 L519.24 491.06 L518.8 490.78 L518.57 489.63 L519.12 488.26 L522.19 483.07 L522.97 481.33 L522.95 480.54 L523.63 479.94 L526.18 476.12 L525.51 475.07 L525.05 475.55 L524.69 476.72 L524.29 477.72 L523.88 478.07 L522.81 478.53 L522.36 478.83 L522.04 479.25 L520.97 480.93 L520.9 481.23 L520.71 481.46 L520.09 481.65 L519.38 481.2 L518.61 480.54 L517.79 478.54 L517.19 477.53 L516.34 477.17 L516.96 479.2 L517.06 479.71 L517.18 480.89 L517.51 481.36 L518 481.63 L519.74 483.06 L519.95 483.65 L519.53 484.68 L518.5 486.34 L518.42 486.62 L517.56 487.31 L515.66 490.34 L514.98 491.03 L513.89 491.28 L511.43 492.63 L510.62 493.28 L509.86 492.89 L508.3 492.67 L507.59 492.18 L507.18 492.79 L506.13 492.06 L502.26 491.03 L500.74 491.04 L497.89 491.95 L494.92 492.36 L492.61 493.12 L491.41 493.28 L490.92 493.59 L489.63 494.72 L489.14 494.67 L488.51 494.38 L487.79 494.65 L484.51 496.95 L483.82 497.14 L481.49 496.61 L480.94 496.59 L480.28 497.18 L478.63 499.49 L478.29 500.17 L478.48 501.24 L479.42 503.25 L479.8 504.9 L480.01 504.89 L480.43 505.29 L480.7 505.77 L480.41 506 L480.26 506.16 L480.06 506.56 L479.88 507.02 L479.39 509.45 L479.27 509.79 L476.98 512.83 L476.05 513.69 L473.07 513.45 L472.58 513.96 L472.84 514.41 L474.1 515.26 L474.5 515.93 L474.51 516.81 L474.27 517.58 L472.67 520.78 L468.79 526.34 L467.59 528.63 L466.8 529.74 L465.93 530.21 L465.45 530.87 L464.34 534.02 L463.83 535.13 L457.01 541.72 L450.92 549.9 L447.78 553.06 L444.1 555.93 L444.24 554.88 L443.92 550.4 L443.49 550.23 L442.98 550.77 L442.55 551.53 L442.29 552.45 L442.09 554.57 L442 555.09 L441.79 555.62 L441.77 556.04 L441.66 556.32 L441.23 556.43 L441.09 556.26 L440.77 555.96 L440.44 555.83 L440.28 556.17 L439.81 556.43 L437.23 554.35 L435.9 553.76 L434.67 554.4 L434.22 555.98 L434.1 557.93 L433.8 559.73 L433.26 558.82 L432.67 558.11 L432.67 557.51 L433.04 556.67 L432.82 556.22 L432.33 556.41 L431.91 557.51 L431.85 558.86 L432.11 559.94 L432.54 560.76 L433.05 561.36 L432.67 563.53 L432.39 562.78 L431.96 562.23 L430.77 561.36 L430.63 561.05 L430.69 560.69 L430.66 560.4 L430.19 560.28 L429.85 560.45 L429.69 560.82 L429.58 561.19 L429.43 561.36 L428.14 561.39 L426.64 561.67 L425.46 562.47 L425.09 564.08 L425.5 565.12 L426.23 565.64 L427.71 566.2 L428.55 567.05 L428.93 567.65 L428.66 567.92 L427.68 568.32 L426.8 569.09 L425.85 569.54 L424.72 569.01 L424.55 569.51 L424.43 569.69 L424.45 569.93 L424.72 570.58 L423.89 571.04 L422.32 571.6 L421.65 572.25 L421.72 570.17 L421.1 568.04 L420.07 566.37 L418.81 565.7 L418.96 565.12 L418.62 561.36 L418.99 560.07 L419.34 559.47 L419.43 558.99 L418.99 558.11 L418.69 557.64 L418.53 557.49 L418.33 557.38 L417.19 556.4 L416.86 556.03 L416.6 555.34 L416.35 555.41 L416.09 555.8 L415.97 556.43 L416.15 556.98 L416.93 558.01 L417.1 558.38 L416.89 559 L415.87 560.41 L415.55 561.36 L415.49 562.58 L415.63 563.21 L415.93 563.75 L416.31 564.67 L414.41 566.14 L414.07 569.24 L414.19 573.04 L413.66 576.63 L415.06 577.34 L415.84 577.61 L416.92 577.72 L417.94 577.5 L418.73 576.95 L420.17 575.51 L419.47 576.39 L417.65 579.26 L416.92 579.88 L416.34 580.21 L415.99 580.96 L415.71 581.7 L415.38 582.04 L414.51 582.34 L414.55 583.04 L415.4 584.92 L415.87 585.51 L416.49 585.91 L417.1 585.82 L417.31 585.12 L417.21 584.16 L417.34 583.35 L418.24 583.12 L418.24 584.96 L418.41 585.3 L418.75 585.25 L419.03 584.99 L418.99 584.69 L419.46 584.83 L419.89 584.74 L420.26 585.05 L420.51 586.36 L420.87 585.16 L421.13 583.83 L421.57 583.23 L422.4 584.2 L422.81 585.48 L422.87 587.02 L422.43 588.09 L421.31 587.98 L422.1 588.86 L422.56 590.34 L422.77 592.06 L422.89 595.44 L422.82 596.11 L422.63 596.79 L422.16 597.86 L422.06 598.51 L421.43 600.41 L421.31 601.23 L421.37 601.89 L421.43 602.02 L421.33 602.09 L420.26 603.15 L419.35 603.67 L418.36 603.92 L417.5 603.74 L417.79 603.17 L417.92 602.58 L417.83 602.01 L417.51 601.51 L418.24 599.24 L417.95 596.18 L417.02 593.47 L415.79 592.31 L415.14 591.96 L412.55 589.62 L404.83 586.82 L400.57 586.38 L400.02 586.21 L399.41 585.89 L398.81 585.75 L398.3 586.11 L397.98 586.52 L397.55 586.93 L397.06 587.27 L396.58 587.46 L395.41 587.48 L394.51 587.31 L393.6 587.34 L392.41 588 L391.57 588.73 L391.1 589.3 L390.89 589.86 L390.61 590.09 L389.27 590.18 L388.81 590.4 L388.02 591.23 L387.06 591.66 L384.8 592.31 L381.95 594.68 L381.2 595.06 L379.97 595.1 L379.48 595.24 L379.08 595.54 L378.75 596.22 L378.58 597.74 L378.33 598.29 L377.05 598.76 L375.95 598.11 L375.04 597.13 L374.33 596.62 L373.07 596.4 L371.61 595.35 L370.75 595.06 L369.28 595.42 L369.22 596.55 L369.3 597.74 L367.72 598.54 L367.61 599.15 L367.77 599.86 L368.03 600.44 L368.42 600.79 L370 601.51 L369.37 602.24 L368.67 602.54 L366.93 602.59 L364.86 602.87 L357.48 601.2 L352.88 598.78 L347.95 597.5 L346.01 596.38 L345.07 596.13 L343.79 595.3 L342.71 593.34 L341.07 589.07 L341.36 587.5 L340.28 586.02 L338.65 585.1 L337.41 585.24 L337.28 585.25 L336.54 584.34 L336.65 583.78 L337.04 582.78 L337.52 581.85 L337.52 581.84 L340.47 579.61 L340.48 579.61 L344.44 579.91 L348.59 581.01 L352.15 581.15 L353.32 580.62 L353.57 579.68 L353.21 576.99 L353.1 576.84 L353.11 576.66 L353.41 576.08 L353.46 575.99 L353.79 575.69 L355.25 574.99 L354.49 573.93 L354.25 572.83 L354.14 571.73 L353.83 570.61 L353.12 569.88 L352.26 569.36 L351.77 568.79 L352.15 567.88 L353.44 565.95 L354.05 565.29 L355.01 564.65 L356.62 564.14 L356.96 563.5 L356.73 562.63 L356.57 562.02 L357.46 560.53 L361.17 560.17 L362.62 559.31 L362.82 558.55 L362.74 557.72 L362.6 557 L362.62 556.55 L363.04 556.18 L364.66 555.82 L365.72 555.21 L366.43 554.51 L366.8 553.49 L366.88 551.88 L366.65 550.55 L365.88 547.79 L365.92 546.46 L366.53 545.3 L367.5 544.66 L377.17 542.11 L378.55 541.45 L378.67 539.88 L377.68 536.39 L377.55 534.43 L377.97 533.16 L379.88 531 L381.14 528.85 L381.8 526.95 L381.49 525.21 L380.06 523.86 L378.21 522.11 L378.2 522.1 L377.26 520.83 L377.22 519.74 L377.61 518.58 L377.94 517.14 L377.89 515.87 L376.91 512.07 L376.46 509.13 L376.81 506.87 L377.94 505.09 L382.07 502.3 L384.05 501.55 L385.1 501.15 L389.97 498.38 L391.1 498.38 L391.16 498.38 L392.05 499.52 L392.41 501.25 L392.46 508.06 L392.35 509.01 L392 509.78 L391.5 510.53 L391.12 511.3 L391.14 512.14 L392.08 512.95 L393.31 512.2 L395.32 509.96 L396 509.71 L396.38 509.83 L396.66 509.71 L397.04 508.68 L397.07 507.95 L396.81 506.32 L396.98 505.35 L397.96 503.71 L398.74 503.97 L400.04 506.75 L401.03 508.22 L401.73 508.2 L404.14 504.47 L405.18 503.33 L406.28 502.71 L406.33 502.68 L407.62 502.9 L407.93 503.39 L408.03 503.92 L407.92 504.47 L407.62 505.03 L407.31 505.68 L407.2 506.3 L407.3 506.91 L407.62 507.48 L408.46 507.83 L410.2 508.16 L410.98 508.45 L411.77 509.16 L412.53 510.93 L413.28 511.94 L414.15 512.47 L415.1 512.57 L416.01 512.23 L416.75 511.47 L417.16 510.15 L416.89 508.18 L417.25 507.68 L418.82 507.66 L419.93 507.22 L420.54 506.04 L420.56 503.77 L421.27 505.01 L424.19 507.81 L425.34 509.63 L425.6 510.31 L425.7 511.04 L425.66 512.59 L425.78 513.15 L426.88 514.37 L427.97 514.21 L430.02 512.38 L431.01 511.82 L431.91 511.62 L438.48 512 L440.92 511.58 L442.36 510.15 L443.72 507.67 L442.98 507.19 L442.08 507.03 L441.24 507.18 L440.69 507.67 L439.75 506.54 L437.2 504.51 L437.62 503.82 L436.94 502.41 L436.58 501.92 L436.14 501.57 L435.82 501.56 L435.14 502 L434.78 502.12 L434.59 501.95 L434.31 501.17 L434.21 500.97 L431.76 499.93 L430.98 498.97 L430.8 497.17 L431.76 497.07 L432.98 496.83 L433.63 495.09 L433.5 494.33 L432.81 492.67 L432.6 491.84 L432.64 490.77 L432.83 490 L433.1 489.28 L433.33 488.34 L433.79 483.31 L433.71 481.81 L433.46 481.2 L432.85 480.03 L432.63 479.44 L432.56 478.69 L432.57 476.96 L432.43 476.42 L431.84 476.08 L431.3 476.32 L430.79 476.67 L430.29 476.63 L430.03 476.18 L429.59 474.71 L429.33 474.15 L427.74 472.82 L426.17 472.62 L424.53 472.78 L422.78 472.5 L421.76 471.76 L420.47 469.63 L419.56 468.72 L418.71 468.4 L416.9 468.25 L416 467.93 L415.52 467.51 L414.65 466.5 L414.14 466.22 L412.74 466.36 L412.42 466.28 L411.94 465.38 L412 464.32 L412.04 464.12 L412.29 463.04 L412.7 460.01 L413.31 459.12 L413.97 458.35 L414.4 457.25 L414.34 456 L413.94 454.9 L413.31 454.03 L412.57 453.53 L411.53 453.63 L410.88 454.55 L410.4 455.6 L409.8 456.09 L409.32 455.6 L407.62 452.4 L407.5 452.14 L407.45 451.89 L407.49 451.63 L407.62 451.4 L409.16 451.25 L410.37 450.9 L411.17 449.93 L411.49 447.92 L410.92 443.65 L411.12 441.87 L412.49 441.15 L413.13 439.73 L413.08 437.84 L412.57 435.94 L411.82 434.53 L410.89 433.7 L409.84 433.31 L408.74 433.24 L407.62 433.37 L407.05 434.64 L406.8 435.89 L406.42 437.03 L405.45 437.96 L404.55 438.24 L403.66 438.16 L402.83 437.75 L402.07 437.07 L401.52 436.14 L401.34 435.83 L401.16 434.66 L401.14 433.48 L400.85 432.18 L400.13 431.11 L399.27 430.73 L398.4 430.55 L397.63 430.1 L397.18 429.22 L396.93 428.25 L396.55 427.37 L394.85 426.23 L393.85 424.51 L393.06 424.08 L392.14 424.49 L391.62 425.38 L391.04 425.86 L390.03 425.08 L389.58 424.21 L388.71 421.74 L388.55 421.42 L388.19 420.69 L388.19 420.68 L388.18 420.67 L388.18 420.67 L387.46 417.37 L388.18 415.21 L389.61 413.31 L391.04 410.8 L391.62 407.7 L391.57 404.79 L391.87 402.21 L393.52 400.09 L394.18 399.04 L393.97 398.15 L393.26 397.48 L391.34 396.79 L390.81 396.25 L390.8 395.35 L391.3 393.9 L391.98 392.97 L393 391.86 L393.86 390.69 L394.04 389.56 L393.48 389.16 L391.3 388.49 L390.52 387.88 L390.08 386.67 L389.59 383.84 L389.15 382.55 L388.5 381.49 L387.82 380.85 L387.05 380.54 L386.09 380.5 L384.33 381.36 L381.9 384.57 L379.88 384.95 L378.19 384.26 L377.4 383.65 L376.22 382.74 L374.43 380.78 L373.29 378.81 L372.94 378.2 L372.03 377.34 L371.65 376.8 L371.56 376.3 L371.38 374.13 L370.49 371.98 L370.36 371.41 L370.31 370.84 L370.18 370.24 L369.81 369.58 L368.25 368.53 L366.25 368.17 L362.39 368.12 L357.29 365.99 L355.51 365.91 L354.28 366.47 L353.27 369.49 L353.2 369.82 L352.88 371.23 L352.86 372.65 L352.65 373.42 L352.07 373.47 L350.95 372.68 L350.29 371.99 L348.71 368.71 L349.64 367.68 L349.71 366.41 L349.17 365.29 L348.3 364.68 L347.03 364.86 L346.3 365.85 L345.72 367.11 L344.86 368.09 L343.7 368.31 L343.08 367.62 L342.98 366.46 L343.34 365.3 L344.21 364.28 L345.01 363.75 L345.63 362.99 L346 361.27 L345.89 359.69 L345.32 359.03 L344.36 358.9 L341.81 359.2 L340.87 359.82 L339.99 360.58 L338.8 361.27 L337.51 361.56 L336.56 361.27 L335.98 360.32 L335.77 358.71 L335.37 357.34 L334.46 357.48 L332.74 358.95 L331.88 359.18 L330.64 359.13 L329.84 358.5 L330.92 355.24 L330.62 353.74 L329.71 352.67 L328.57 352.12 L325.65 351.75 L323.64 351.5 L321.39 350.62 L320.17 348.7 L319.74 348.31 L319.11 347.37 L317.97 345.66 L317.14 344.76 L313.56 342.09 L311.7 341.22 L304.78 341.28 L303.66 340.73 L303.55 338.53 L302.34 338.37 L300.9 339.35 L300.24 339.51 L297.95 339.51 L296.67 341.27 L293.31 344.13 L292.38 344.6 L291.62 344.31 L290.05 342.82 L288.98 342.55 L286.97 343.59 L283.97 347.38 L283.67 347.76 L281.57 348.85 L279.75 348.75 L273.81 346.49 L272.66 345.76 L272.07 345.59 L271.46 345.81 L271.41 346.41 L271.56 347.12 L271.54 347.67 L271.58 348 L271.76 348.47 L271.83 348.89 L271.53 349.09 L270.86 348.96 L270.25 349.01 L269.88 348.78 L269.47 348.71 L268.95 349.27 L266.85 349.63 L264.93 348.47 L263.12 346.9 L261.28 346.09 L260.67 346.29 L260.48 346.81 L260.32 347.42 L259.84 347.93 L259.46 347.91 L258.55 347.55 L258.24 347.57 L257.66 348.39 L257.69 349.14 L258.02 350.14 L258.31 351.75 L258.35 353.32 L258.11 354.4 L257.48 354.98 L256.38 355.07 L255.35 354.59 L254.67 353.7 L254.07 352.67 L253.32 351.82 L252.23 351.39 L251.91 352.1 L251.64 353.18 L249.81 354.34 L249.2 355.34 L248.84 356.65 L248.8 357.33 L247.11 358.13 L240.11 359.71 L239.19 359.93 L236.57 360.06 L235.63 360.31 L233.79 361.24 L232.84 361.53 L231.82 361.43 L231.36 361.24 L230.95 363.99 L231.03 365.87 L230.44 368.5 L229.54 371.09 L228.69 372.85 L228.02 373.64 L226.57 374.87 L225.88 375.76 L224.66 378.58 L224.12 379.42 L221.5 380.64 L220.21 380.66 L216.15 380.7 L212.62 381.76 L209.98 381.49 L209.05 381.68 L207.37 382.42 L204.45 382.79 L200.8 384.27 L173.57 387.26 L171.2 388.92 L165.81 397.85 L163.5 400.1 L163.49 400.1 L163.49 400.11 L160.02 401.63 L155.85 402.37 L155.1 402.51 L153.31 402.83 L152.27 402.11 L150.98 400.1 L149.11 396.72 L148.41 395.76 L147.6 395.03 L143.12 393.26 L141.25 392.09 L140.27 390.95 L140.02 389.93 L139.97 388.85 L139.59 387.53 L138.73 386.45 L137.33 385.32 L135.19 384.05 L134.73 383.78 L133.65 383.51 L130.51 383.56 L127.35 382.79 L126.28 382.83 L125 383.52 L122.84 385.41 L120.1 385.5 L116.39 387.38 L115.19 387.34 L111.91 386.07 L111.83 386.14 L110.85 385.93 L108.84 384 L107.73 383.48 L104.98 382.73 L104.07 382.07 L102.32 381.98 L96.73 384.29 L95.55 384.3 L95.17 383.03 L92.29 380.35 L91.38 379.89 L87.52 380.09 L86.23 379.91 L83.95 379.14 L80.38 378.73 L79.35 378.38 L77.26 378.76 L76.64 378.94 L76.05 379.45 L75.81 380 L75.53 380.47 L75.2 380.86 L75.04 380.99 L74.82 381.16 L73.67 381.23 L70.07 379.43 L69.99 379.4 L69.91 379.39 L69.83 379.4 L69.75 379.43 L69.3 379.59 L68.89 379.64 L68.48 379.58 L68.08 379.42 L66.83 377.95 L64.18 375.69 L61.9 372.95 L60.94 372.24 L57.08 370.9 L55.82 370.71 L54.68 371.26 L53.6 372.95 L52.35 376.82 L51.61 378.24 L49.23 380.12 L48.35 380.26 L47.45 379.98 L46.58 379.45 L45.72 378.85 L44.74 378.39 L43.89 378.46 L43.43 379.44 L43.9 381.12 L43.44 382.24 L42.44 382.92 L41.31 383.27 L39.27 381.61 L38.81 380.6 L39.75 379.42 L39.86 378.13 L40.22 377.36 L40.43 376.5 L40.05 374.93 L39.47 373.79 L38.73 372.85 L37.09 371.31 L35.1 370.18 L34.9 369.79 L34 369.2 L33.05 369.47 L32.11 370.07 L31.09 370.41 L27.09 370.41 L26.36 370.82 L26.22 370.8 L25.92 370.46 L24.97 368.5 L24.19 365.86 L23.46 364.14 L19.34 358.7 L19.11 358.58 L18.89 358.54 L18.65 358.57 L17.58 359.11 L16.72 359.18 L15.84 359 L14.75 358.55 L14.52 358.52 L14.29 358.55 L14.07 358.66 L13.63 359.01 L13.2 359.13 L12.8 359.02 L12.44 358.65 L9.72 354.44 L9.13 352.74 L9.08 351.59 L9.2 350.63 L9.2 349.81 L8.79 349.11 L8.41 349.04 L6.87 349.13 L6.89 347.8 L7.71 345.28 L5.73 344.29 L3.84 344.05 L2.02 344.77 L1.47 345.37 L1.41 345.38 L1.31 345.39 L0 345.16 L0.05 339.14 L0.67 337.78 L0.86 336.46 L0.21 333.07 L0.33 331.37 L1.16 330.01 L4.78 327.06 L5.13 326.45 L5.7 325.11 L6.12 324.52 L6.81 324.06 L8.28 323.58 L8.96 323.14 L9.84 321.96 L10.52 320.4 L10.88 318.61 L10.81 316.81 L10.98 315.68 L11.4 315.13 L11.93 314.72 L12.41 314.02 L12.79 313.05 L12.92 312.48 L12.8 309.63 L12.69 308.94 L12.73 308.28 L13.09 307.25 L13.2 307.1 L13.62 306.5 L14.95 305.37 L15.47 304.61 L15.58 304.1 L15.58 303.01 L15.65 302.59 L16.33 301.09 L17.54 297.55 L18.51 296.78 L20.65 296.47 L21.51 295.73 L21.48 294.3 L21.74 292.35 L22.14 290.42 L22.57 289.02 L23.74 287.9 L24.85 288.24 L26.93 290.55 L28.29 291.48 L29.49 291.63 L30.67 291.51 L32.68 291.66 L33.93 291.28 L34.53 291.35 L35.09 291.89 L36.12 293.33 L36.73 293.52 L37.73 294.04 L38.95 295.15 L40.08 295.64 L40.72 294.29 L40.62 294.01 L40.55 293.84 L39.65 292.28 L39.41 291.49 L39.47 290.34 L39.98 288.68 L39.97 287.96 L39.3 287.1 L36.81 285.71 L35.79 284.95 L34.17 282.81 L32.37 281.54 L32.58 281.48 L32.65 281.45 L31.78 280.83 L31.05 281.76 L30.79 281.93 L30.45 281.48 L30.75 280.45 L31.62 278.61 L32.41 275.6 L33.34 273.02 L33.56 271.78 L32.81 263.98 L32.56 262.63 L32.25 261.97 L31.05 260.7 L30.33 259.56 L30.17 259.09 L29.97 258.12 L29.62 254.49 L29.25 253.24 L28.19 250.18 L29.57 246.88 L33.77 241.21 L34.73 238.47 L35.13 237.73 L35.75 237.2 L36.95 236.96 L37.55 236.7 L38.49 235.75 L41.9 229.54 L42.44 228.88 L42.93 228.55 L43.91 228.19 L44.39 227.71 L44.65 227.09 L45.1 225.36 L45.4 224.65 L47.72 222.26 L53.73 213.41 L55.94 210.97 L57.97 209.37 L59.64 206.78 L72.31 192.98 L74.82 191.03 L77.84 188.71 L77.85 188.71 L77.85 188.7 L77.86 188.7 L79.46 187.4 L83.84 182.64 L84.61 181.52 L84.64 181.4 L85.34 179.09 L85.95 177.81 L86.7 177.07 L87.66 176.58 L89.57 175.97 L99.62 175.85 L102.54 174.63 L103.76 171.77 L104.01 170.83 L104.1 169.7 L104.01 168.02 L104.17 166.97 L107.74 165.09 L108.79 163.97 L109.48 162.97 L109.55 162.77 L109.27 162.53 L108.87 161.37 L108.31 157.22 L109.59 154.99 L109.58 154.96 L108.17 151.56 L107.73 149.72 L108.07 147.72 L106.58 147.35 L105.07 146.4 L104.29 145.06 L105.01 143.53 L105.01 142.98 L103.46 142.79 L102.15 142.18 L101.33 141.06 L101.23 139.39 L101.91 137.88 L103.18 136.91 L104.71 136.7 L106.18 137.54 L107.31 137.03 L109.15 137.02 L110.84 136.66 L111.52 135.13 L110.8 134.03 L106.18 131.48 L102.43 128 L101.6 126.62 L101.3 125.46 L101.24 124.67 L101.08 123.95 L100.47 123.01 L99.79 122.54 L99.09 122.26 L98.68 121.9 L98.92 121.2 L98.92 120.66 L98.26 116.97 L97.78 115.78 L96.33 113.52 L95.51 111.77 L95.71 110.96 L96.63 110.48 L96.01 109.41 L93.37 106.71 L90.55 104.92 L89.3 103.39 L86.23 96.64 L85.28 96.02 L84.21 96 L83.34 95.55 L82.98 93.66 L83.28 92.48 L84.04 91.17 L85.03 90.12 L86.04 89.73 L85.7 88.53 L85.76 87.61 L86.16 86.99 L86.8 86.69 L86.35 85.63 L84.09 82.28 L84 81.73 L84.87 79.95 L84.08 79.41 L83.08 79.04 L82.21 78.43 L81.84 77.18 L81.73 76.63 L82.24 77.02 L82.73 76.77 L82.98 75.4 L82.85 74.54 L81.34 70.25 L81.02 69.54 L81.07 68.82 L81.75 67.64 L82.31 67.05 L83 66.67 L88.39 65.25 L89.69 65.29 L93.61 66.47 L95 66.6 L97.19 67.49 L98.74 69.39 L100.32 70.88 L102.54 70.51 L110.83 63.03 L117.12 58.69 L118.69 56.48 L120 50.63 L120.86 48.89 L122.88 45.87 L124.08 44.62 L125.26 44.18 L139.07 43.09 L142.47 43.92 L143.62 43.97 L159.2 41.44 L164.19 38.81 L166.71 37.98 L169.22 37.91 L178.58 40.45 L189.42 40.63 L196.97 40.76 L201.65 39.82 L213.48 42.07 L217.33 41.95 L219 42.32 L222.59 45.54 L224.25 46.27 L237.14 46.82 L237.81 47.16 L237.82 47.8 L237.65 48.61 L237.78 49.49 L238.46 50.45 L239.24 50.86 L251.45 51.24 L261.94 55.9 L265.6 56.51 L271.19 54.54 L276.1 54.73 L278.38 55.24 L279.86 56.11 L280.21 57.51 L280.06 59.42 L280.04 61.81 L280.48 63.56 L281.29 64.34 L282.4 64.46 L283.75 64.29 L285.39 64.69 L285.22 66.24 L284.4 68.16 L284.09 69.68 L284.83 70.38 L286.04 70.25 L288.25 69.54 L291.54 70.09 L292.69 70 L293.9 69.4 L295.45 67.7 L296.47 67.15 L298.42 67.2 L298.42 67.2 L304.42 69.63 L307.54 69.73 L308.42 70.23 L309.11 72.09 L308.68 74.33 L306.84 78.82 L306.95 79.06 L307.18 79.54 L307.93 80.37 L308.83 81.08 L309.62 81.42 L310.5 81.29 L311.08 80.73 L313.67 77.21 L313.96 76.64 L314.22 75.46 L314.17 74.48 L314.03 73.52 L314 72.39 L314.35 70.58 L315.07 69.08 L316.11 68.11 L317.38 67.89 L318.57 68.55 L321.92 72.21 L322.96 72.76 L323.98 73.03 L329.4 73.05 L330.47 72.65 L331.81 71.44 L333.61 67.98 L334.69 66.31 L335.88 65.22 L337.12 64.62 L338.25 64.69 L339.07 65.63 L339.28 66.53 L339.25 67.29 L339.3 68.1 L339.77 69.11 L340.43 69.78 L342.03 70.78 L342.72 71.54 L343.08 72.48 L343.68 74.94 L343.99 75.65 L344.71 75.94 L345.42 75.57 L346.86 74.17 L349.62 72.29 L351.06 71.79 L352.56 71.76 L357.54 72.82 L358.97 73.41 L359.46 74.62 L359.6 76.44 L360.47 81.42 L360.82 82.67 L361.36 83.62 L362.28 84.06 L363.08 83.7 L363.81 83.22 L364.52 83.29 L364.92 84.4 L365.31 86.05 L365.9 86.97 L366.9 85.84 L367.16 84.53 L367.04 81.14 L367.2 79.64 L368.29 77.18 L369.84 75.28 L371.62 73.88 L373.38 72.93 L375 72.58 L378.42 72.54 L379.88 71.99 L380.94 70.83 L382.25 68.01 L383.36 66.92 L384.45 66.53 L385.59 66.47 L387.82 67.03 L389.15 67.87 L389.84 68.97 L391.01 72.21 L392.86 75.02 L393.51 76.49 L393.73 78.82 L393.21 81.13 L393.58 82.14 L394.5 82.82 L395.64 84.16 L396.26 85.88 L396.73 87.82 L397.42 89.42 L398.69 90.15 L399.84 89.74 L400.54 89.13 L402.01 87.84 L403.28 87.43 L405.71 88.43 L406.81 88.41 L407.62 86.97 L408.43 84.8 L408.98 83.75 L409.73 83.37 L411.18 83.2 L412.46 82.67 L413.29 81.67 L414.08 80.5 L415.23 79.46 L416.32 79 L417.6 78.8 L418.82 78.97 L419.77 79.64 L420.69 81.24 L421.18 82.6 L421.88 83.57 L426.91 84.42 L427.91 84.16 L428.47 83.54 L429.41 81.82 L430.11 81.32 L430.68 81.37 L431.57 81.98 L432.26 81.94 L435.63 80.16 L436.9 79.78 L444.66 79.57 L446.25 80.01 L447.81 81.17 L449.89 84.03 L450.67 84.86 L453.47 86.23 L454.18 86.9 L454.51 87.51 L454.67 88.1 L454.73 88.8 L454.72 89.72 L454.63 90.42 L454.16 92.28 L454.01 92.36 L454.42 93.31 L456.12 95.5 L456.86 96.17 L457.71 96.51 L459.36 96.5 L460.16 96.7 L460.98 97.47 L462.21 99.34 L463.08 99.62 L463.86 99.52 L464.6 99.72 L465.31 100.19 L465.93 100.88 L466.35 101.72 L466.96 101.57 L467.19 101.07 L467.22 100.98 L467.29 98.87 L467.45 98.69 L468.44 96.94 L468.59 95.64 L470.28 94.41 L471.83 92.78 L471.5 90.28 L472.23 89.98 L472.17 89.51 L471.78 88.99 L471.5 88.51 L470.95 86.01 L470.71 85.42 L470.03 84.9 L469.46 84.87 L469.03 84.65 L468.81 83.6 L468.93 82.47 L469.34 81.84 L469.97 81.64 L470.71 81.78 L470.71 81.11 L470.12 80.87 L469.55 80.48 L469.09 79.8 L468.81 78.73 L469.13 78.01 L468.89 77.35 L468.32 76.75 L467.64 76.24 L468.12 75.83 L468.39 75.41 L468.81 74.42 L467.89 73.97 L466.05 73.44 L465.41 72.59 L465.41 72.04 L465.69 71.83 L465.88 71.65 L466.11 71.49 L466.55 71.37 L466.55 70.82 L466.07 70.53 L464.99 69.6 L464.99 68.94 L466.59 67.46 L467.29 67.15 L467.09 66.29 L466.92 65.94 L467.22 65.71 L467.68 65.04 L468.05 64.66 L467.72 63.43 L468.37 61.54 L468.05 60.33 L468.75 60.12 L470.47 60.06 L471.09 59.78 L471.4 58.93 L471.48 57.82 L471.65 56.77 L472.26 56.11 L472.26 55.44 L471.81 55.39 L470.71 54.83 L471.39 54.05 L472.63 53.23 L473.62 52.21 L473.56 50.82 L473.16 49.96 L473.14 49.62 L473.38 49.35 L473.74 48.71 L474.95 47.12 L475.1 46.81 L475.4 46.54 L475.67 45.94 L476.02 45.35 L477.16 44.74 L477.31 43.98 L477.35 43.14 L477.56 42.57 L478.01 42.42 L479.66 42.57 L480.14 42.33 L480.63 41.78 L481.38 40.73 L481.38 40.12 L481.09 39.74 L480.94 39.19 L480.97 38.86 L482.54 38.25 L483.33 37.76 L484.02 37.2 L484.63 36.53 L485.2 35.76 L485.21 35.46 L485.18 35 L485.28 34.45 L485.72 33.89 L486.17 33.53 L486.5 33.38 L486.81 33.53 L487.19 34.05 L488.63 33.94 L489.12 32.77 L488.59 31.57 L486.97 31.35 L487.15 30.9 L487.28 30.47 L487.44 30.02 L487.71 29.57 L487.39 28.05 L488.25 27.09 L489.63 26.65 L497.23 26.2 L499.37 26.47 L500.72 27.24 L503.26 29.42 L504.59 29.94 L505.89 29.37 L506.81 27.86 L507.66 26.05 L508.78 24.59 L513.14 22.78 L518.23 22.76 L527.94 24.65 Z M431.91 566.2 L440.62 558.11 L443.41 556.59 L431.32 568.12 L425.74 572.25 L421.49 574.07 L424.28 572.54 L425.4 571.65 L425.84 570.88 L426.14 570.13 L426.86 569.84 L427.71 569.73 L428.47 569.49 L429.36 568.77 L430.96 567 Z M602.24 538.16 L602.8 538.74 L605.34 538.53 L606.02 539.55 L605.06 540.59 L581.72 536.77 L582.13 536.3 L582.39 536.27 L582.83 536.77 L590.81 537.86 L594.63 537.06 L596.27 537.13 L598.04 538.46 L600.33 537.43 L601.65 537.3 Z M544.05 525.19 L551.29 526.97 L555.86 529.09 L556.59 529.62 L555.35 529.35 L553.01 528.23 L532.78 523.9 L524.08 520.53 L522.35 518.95 L520.85 516.48 L520.4 515.18 L519.91 513.13 L519.87 511.64 L520.85 512.04 L521.76 515.46 L522.64 517.83 L523.95 519.5 L526.18 520.81 Z "/>
</g>
</svg>
