<svg xmlns="http://www.w3.org/2000/svg" viewBox="0 0 1000 1535.39">
<g fill="#ccc" stroke="#333" stroke-width="0.5" stroke-linejoin="round">
<path fill-rule="evenodd" d="M1000 1385.47 L946.49 1391.23 L901.92 1405.85 L814.57 1446.26 L769.5 1460.35 L342.51 1521.57 L303.51 1535.39 L318.7 1498.09 L321.24 1466.46 L319.04 1377.49 L325.37 1350.02 L342.34 1332.65 L420.66 1356.66 L464.72 1336.46 L510.3 1307.21 L559.76 1296.13 L564.91 1301.8 L644.5 1355.69 L688.22 1371.11 L710.33 1382.81 L729.57 1400.36 L777.01 1360.92 L851.54 1344.7 L932.82 1349.13 L1000 1370.58 Z M706.29 95.34 L691.42 101.53 L713.7 131.26 L700.04 182.01 L633.2 146.09 L529.2 155.99 L498.26 127.51 L529.21 80.49 L563.88 65.59 L601.04 54.44 L592.37 38.34 L610.95 28.43 L680.31 47.03 L713.75 53.23 L744.71 66.87 L781.86 86.71 L790.51 109.01 L762.01 113.94 Z M352.33 157.3 L337.39 179.54 L271.72 154.82 L248.15 139.97 L229.54 102.83 L220.85 122.63 L201.01 109.02 L156.4 117.72 L124.15 111.55 L99.3 84.31 L33.57 104.19 L0 72 L61.45 39.35 L113.77 25.74 L189.78 28.51 L220.94 50.88 L239.52 44.69 L205.86 18.58 L189.72 0 L234.37 13.62 L311.26 58.21 L386.87 101.56 L417.79 151.03 L394.29 154.76 L375.82 148.63 Z "/>
</g>
</svg>
