<svg xmlns="http://www.w3.org/2000/svg" viewBox="0 0 1000 86.67">
<g fill="#ccc" stroke="#333" stroke-width="0.5" stroke-linejoin="round">
<path fill-rule="evenodd" d="M22.84 36.12 L22.87 36.11 L22.88 36.11 L22.86 36.12 L22.85 36.13 L22.84 36.13 L22.82 36.13 L22.82 36.13 L22.84 36.12 Z M50.46 86.64 L50.52 86.62 L50.51 86.65 L50.47 86.67 Z M2.63 84.97 L2.64 84.97 L2.65 84.97 L2.65 84.97 L2.66 84.98 L2.65 84.99 L2.64 84.99 L2.64 84.98 Z M2.7 84.89 L2.7 84.91 L2.69 84.9 Z M2.19 83.25 L2.18 83.21 L2.18 83.21 L2.18 83.2 L2.18 83.2 L2.19 83.21 Z M999.9 28.41 L999.93 28.41 L999.96 28.39 L999.97 28.37 L999.95 28.33 L999.99 28.36 L1000 28.4 L999.98 28.43 Z M0.18 0.01 L0.19 0.03 L0.2 0.03 L0.19 0.03 L0.16 0.04 Z M0.09 0 L0.07 0.03 L0.05 0.04 L0.03 0.05 L0 0.06 L0.01 0.03 L0.03 0.01 L0.06 0 Z M22.84 36.2 L22.87 36.2 L22.81 36.23 L22.79 36.24 L22.79 36.23 L22.79 36.22 Z M22.89 36.17 L22.89 36.16 L22.89 36.16 Z M297.54 31.06 L297.55 31.07 L297.58 31.07 L297.58 31.07 L297.59 31.07 L297.6 31.08 L297.6 31.09 L297.6 31.1 L297.6 31.1 L297.6 31.11 L297.6 31.12 L297.59 31.13 L297.59 31.13 L297.58 31.13 L297.58 31.13 L297.57 31.13 L297.56 31.13 L297.56 31.13 L297.56 31.13 L297.55 31.12 L297.55 31.12 L297.55 31.12 L297.55 31.11 L297.54 31.1 L297.54 31.1 L297.53 31.09 L297.52 31.08 L297.52 31.06 Z M44.55 68.4 L44.56 68.41 L44.55 68.44 L44.52 68.45 L44.47 68.45 L44.46 68.43 L44.47 68.44 L44.48 68.43 L44.51 68.41 L44.5 68.41 L44.49 68.41 L44.48 68.41 L44.46 68.4 L44.44 68.4 L44.43 68.4 L44.44 68.39 L44.52 68.39 Z M43.57 66.77 L43.61 66.77 L43.61 66.81 L43.57 66.81 Z "/>
</g>
</svg>
