<svg xmlns="http://www.w3.org/2000/svg" viewBox="0 0 1000 787.62">
<g fill="#ccc" stroke="#333" stroke-width="0.5" stroke-linejoin="round">
<path fill-rule="evenodd" d="M978.28 103.25 L982.69 105.85 L987.46 107.78 L990.94 108.53 L992.6 111.17 L997.16 126.68 L995.88 147.95 L996.13 150.28 L996.82 156.45 L996.53 158.16 L994.93 161.03 L995.13 163.13 L997.16 166.8 L998.14 169.12 L999.07 170.63 L999.76 172.42 L999.86 173.7 L1000 175.49 L999.8 178.07 L998.92 182.58 L998.26 189.44 L996.33 199.44 L995.55 231.78 L995.5 234.3 L999.93 252.42 L988.65 253.69 L987.71 254.77 L986.63 256.01 L985.96 263.49 L985.59 267.6 L985.45 269.18 L984.36 271.44 L978.54 275.61 L977.37 276.76 L970.51 283.52 L966.77 285.34 L959 286.31 L955.91 287.72 L955.87 287.74 L952.48 296.27 L948.01 301.73 L946.74 305.65 L944.88 308 L940.91 309.12 L936.5 309.3 L936.16 309.25 L933.22 308.84 L926.87 303.72 L920.75 287.96 L913 280.9 L911.52 277.51 L912.18 274.63 L915.83 273.52 L918.73 274.23 L921.41 275.61 L926.39 279.23 L925.56 274.33 L923.84 264.24 L921.48 257.47 L915.83 253.9 L915.3 253.82 L906.9 252.53 L898.91 254.62 L891.68 259.24 L890.78 260.06 L884.87 265.49 L878.58 273.52 L876.42 280.59 L878.15 298.18 L878.15 302.48 L877.25 311 L877.68 315.2 L878.77 317.64 L881.87 324.62 L882.56 329.04 L876.74 334.42 L875.45 342.08 L872.53 345.26 L870.43 348.43 L870.71 353.24 L873.3 362.87 L872.83 375.23 L873.5 378.7 L874.83 380.3 L878.99 383.13 L880.56 385.15 L881.03 387.06 L880.3 398.11 L878.97 401.42 L870.9 415.85 L869.25 419.83 L869.57 423.28 L872.06 424.52 L885.07 427.4 L888.57 427.59 L900.2 422.85 L906.43 425.47 L909.71 433.64 L912.16 443.3 L919.87 457.22 L917.57 460.83 L904.43 464.07 L880.24 474 L876.37 473.52 L870.96 469.3 L867.23 469.95 L863.81 471.24 L860.62 471.33 L853.85 470.18 L846.96 470.01 L841.04 471.12 L835.37 473.42 L829.27 476.78 L825.24 479.01 L816.41 482.38 L807.48 484.07 L806.65 487.39 L808.47 491.49 L811.95 494.66 L819.48 499.2 L822.81 504.18 L823.75 510.72 L824.42 527.94 L823.54 530.95 L813.84 545.36 L811.95 549.19 L805.1 577.33 L802.22 581.71 L794.47 590.23 L794.43 590.26 L790.54 596.11 L788.23 603.66 L783.89 626.23 L779.29 640.07 L759.52 674.83 L753.06 696.54 L752.33 703.23 L752.33 703.25 L753.64 736.16 L751.41 769.02 L737.6 787.06 L734.47 787.62 L706.07 783.84 L677.17 779.98 L648.28 776.14 L619.4 772.3 L590.55 768.44 L561.65 764.59 L532.78 760.75 L503.9 756.89 L474.99 753.03 L446.11 749.18 L417.24 745.33 L388.34 741.47 L359.47 737.62 L330.59 733.77 L301.7 729.92 L272.82 726.06 L243.95 722.2 L210.57 717.75 L205.46 716.06 L201.3 712.41 L190.16 698.07 L179.32 684.06 L168.49 670.05 L157.65 656.03 L146.84 642.03 L136 628 L125.18 613.96 L114.34 599.92 L103.52 585.89 L92.68 571.84 L81.86 557.77 L71.01 543.71 L60.17 529.64 L49.33 515.58 L38.51 501.48 L27.67 487.39 L16.85 473.29 L5.02 457.89 L1.91 452.54 L0.79 446.62 L1.22 432.03 L1.29 426.15 L0 417.4 L4.43 410.96 L4.63 400.89 L0.96 392.72 L5.07 388.05 L6.86 391.93 L11.31 398.44 L12.17 402.91 L12.17 416.06 L13.52 424.07 L16.48 425.96 L19.44 422.72 L21.45 412.41 L22.85 415.21 L24.92 422.29 L26.3 424.64 L27.28 425.2 L29.18 425.39 L30.93 424.93 L32.05 423.87 L32.3 422.77 L31.48 422.29 L35.46 412.53 L39.35 409.57 L43.65 416.06 L44.22 420.99 L42.09 435.58 L42.39 440.84 L44.93 452.1 L45.17 454.55 L44.93 462.21 L45.37 464.65 L47.31 469.28 L47.74 471.52 L49.87 475.55 L54.82 476.85 L64.91 477.09 L67.35 477.89 L69.2 478.96 L72.77 482.44 L74.65 483.71 L76.24 483.71 L76.81 482.71 L75.61 480.9 L75.21 478.43 L79.67 477.77 L91.53 478.46 L92.97 478.04 L94.43 478.46 L97.01 480.9 L103.45 484.01 L105.18 483.93 L113.95 482.32 L117.62 483.31 L119.68 482.07 L121.76 483.31 L124.99 481.75 L128.55 481.55 L132.31 481.81 L136.06 481.6 L139.51 480.33 L147.42 475.39 L150.92 474.85 L157.54 474.82 L160.3 473.99 L162.68 471.98 L165.22 469.36 L167.99 467.06 L170.95 466.08 L174.38 465.41 L178.37 463.73 L181.72 461.44 L183.12 459.03 L184.29 456.44 L190.61 453.72 L193.68 451.25 L196.42 448.44 L200.06 445.71 L203.71 443.61 L206.53 442.78 L208.8 441.1 L209.44 437.25 L209.51 433.05 L210.08 430.33 L214.14 428.02 L217.91 429.35 L221.17 432.49 L228.64 442.78 L230.97 443.66 L231.82 443.06 L232.5 441.9 L234.32 441.08 L239.02 441.23 L247.52 443.71 L252.04 444.33 L254.67 443.88 L259.14 441.73 L261.37 441.08 L263.77 441.12 L265.56 441.66 L267 442.33 L268.5 442.78 L286.18 444.33 L288.18 443.93 L295.55 441.08 L296.53 440.23 L296.82 438.99 L297.12 438.01 L298.39 437.97 L299.45 438.66 L300.25 439.65 L300.82 440.58 L301.23 441.08 L307.31 446.14 L311.13 447.97 L319.43 444.33 L323.69 445.97 L327.6 448.1 L331.11 447.3 L328.26 445.62 L327.45 443.45 L327.36 440.88 L326.75 437.97 L331.5 436.95 L336.96 439.43 L341.95 443.5 L345.31 447.3 L348.19 452.01 L349.88 453.23 L361.37 453.92 L387.94 448.44 L389.77 448.44 L391.6 449.68 L394.44 452.88 L396.62 454.39 L399.57 455.08 L402.65 454.88 L405.03 453.67 L408.8 456.53 L411.03 457.79 L412.94 458.32 L413.81 459.19 L416.48 463.33 L417.91 464.66 L419.64 465 L422.02 464.97 L424.3 464.56 L427.85 462.73 L429.98 463.25 L431.96 464.25 L433.64 464.66 L440.04 461.58 L441.44 460.58 L443.15 459.67 L445.15 460.04 L447.23 460.9 L449.24 461.43 L474.51 461.6 L479.73 460.95 L482 459.03 L494.74 452.1 L507.86 449.93 L511.98 447.78 L516.35 446.94 L521.82 444.33 L528.16 443.44 L530.34 442.78 L533.01 441.11 L536.8 438.1 L540.21 434.49 L541.67 431.06 L543.73 429.37 L557.39 425.39 L568.43 417.26 L570.3 416.92 L571.98 414.09 L575.92 414.3 L584.35 417.76 L585.92 415.19 L593.63 409.2 L597.52 403.73 L605.75 387.27 L604.58 381.55 L605.24 378.88 L608.59 377.15 L606.66 375.85 L605.75 375.59 L605.75 373.89 L608.98 374.2 L614.08 376.58 L617.11 377.15 L615.79 374.28 L612.24 370.37 L611.53 367.65 L614.63 369.1 L617.94 370.11 L620.91 371.44 L622.89 373.89 L624.19 373.89 L623.55 367.88 L619.65 365.98 L614.15 365.7 L608.59 364.54 L596.42 356.33 L591.57 355.18 L591.57 353.78 L594.07 353.05 L596.62 351.35 L598.75 348.88 L599.11 350.33 L599.82 352.23 L601.49 353.78 L600.93 351.44 L601.64 349.38 L604.33 345.83 L605.75 345.83 L607.39 352.13 L611.41 358.3 L616.52 362.15 L621.47 361.42 L620.2 360.74 L617.11 358.17 L619.49 358.29 L623.96 359.74 L625.73 359.86 L626.42 359.06 L628.22 355.9 L629.28 355.18 L637.07 339.46 L633.63 337.97 L632.04 335.93 L632.81 334.12 L636.36 333.36 L638.53 331.97 L639.14 328.85 L640.34 325.61 L644.17 323.85 L644.17 322.43 L642.36 321.1 L641.5 318.76 L640.89 315.87 L639.93 312.93 L641.05 311.28 L639.54 310.31 L637.92 308.64 L638.51 304.97 L640.42 302.84 L648.55 297.31 L649.57 295.77 L650.56 293.62 L651.75 292.34 L658.14 295.31 L658.47 295.6 L661.53 294.96 L664.53 292.89 L665.57 289.85 L662.75 286.24 L685.35 272.93 L695.51 265.55 L701.82 259.7 L705.97 256.9 L711.11 255.22 L711.55 255.07 L712.46 254.77 L713.29 254.5 L713.82 254.32 L714.83 253.71 L715.51 253.31 L715.88 253.08 L716.34 252.81 L717.21 252.28 L722.98 248.94 L721.86 244.24 L728.73 242.79 L729.69 243.57 L745.19 225.25 L766.41 198.05 L767.47 194.39 L767.3 191.23 L771.26 187.62 L774.57 188.12 L777.68 192.62 L778.73 195.75 L777.87 198.78 L775.14 203.01 L780.91 201.21 L782.02 197.14 L780.42 192.09 L776.24 184.32 L775.69 182.49 L776.83 180.49 L783.09 173.66 L784.91 172.89 L788.06 173.06 L787.1 170.18 L787.25 167.42 L788.52 165.12 L790.9 163.65 L793 165.47 L797.19 161.87 L803.78 152.66 L805.06 152.66 L805.98 155.46 L807.18 155.63 L808.39 153.91 L809.32 151.09 L810.74 152.66 L813.57 144.12 L815.54 140.39 L817.83 138.39 L815.24 137.02 L816.56 134.21 L819.23 130.56 L820.67 126.68 L821.58 122.79 L823.86 118.23 L827.06 114.5 L830.61 113.11 L828.83 116.87 L826.55 119.97 L825.23 122.81 L826.46 125.81 L829.69 127.13 L833.77 126.42 L838.3 125.02 L842.69 124.24 L843.99 122.43 L847.22 113.45 L849.05 110.1 L854.56 104.16 L857.89 101.58 L865.04 98.8 L870.36 91.22 L872.65 89.49 L874.52 89.2 L877.16 88.37 L879.49 87.13 L880.51 85.57 L881.44 85.03 L887.59 83.35 L894.99 77.3 L906.28 62.88 L911.95 58.01 L910.71 60.1 L909.4 64.83 L907.27 68.85 L908.11 70.23 L909.61 70.64 L910.41 69.9 L910.85 66.45 L912.78 59.92 L913.25 55.58 L914.57 53.59 L923.31 45.27 L925.13 42.88 L926.7 40.19 L927.97 36.9 L928.83 32.65 L927.41 32.65 L926.67 34.79 L925.44 36.59 L923.83 37.97 L921.89 38.8 L927.31 29.67 L931.81 19.89 L935.53 5.2 L936.39 3.18 L941.21 2.76 L951.75 0 L954.11 0.29 L957.37 9.2 L958.42 13.93 L957.97 18.16 L956.6 25.02 L955.74 45.74 L954.34 49.06 L950.33 54.72 L949.32 58.17 L950.24 62.11 L955.07 68.62 L956.04 71.49 L954.56 74.5 L951.88 76.59 L949.64 79 L949.47 82.95 L950.46 93.26 L951.64 96.02 L951.99 96.22 L952.8 96.7 L957.67 97.58 L959.54 99.11 L961.6 103.76 L963.06 105.48 L966.32 106.39 L969.65 105.76 Z M974.45 171.45 L968.84 175.71 L969.26 179.44 L969.93 181.75 L971.18 183.64 L969.15 186.06 L963.6 188.84 L963.13 194.53 L963.44 196.77 L966 198.05 L969.29 198.99 L972.7 197.5 L978.84 193.08 L981.2 191.03 L986.04 189.3 L991.84 186.28 L992.83 179.96 L984.57 178.28 L980.69 172.26 Z M974.95 190.25 L974.23 184.1 L975.37 182.91 L977.19 182.89 L980.2 185.04 L979.09 188.81 Z M433.64 439.66 L430 439.19 L427.65 438.34 L427.57 436.58 L430.8 433.32 L433.15 431.87 L433.45 431.69 L433.45 431.67 L438.55 429.77 L440.73 428.66 L444.69 425.11 L445.86 424.34 L447.31 423.38 L448.21 423.1 L450.66 422.29 L452.6 422.35 L455.64 423.65 L456.1 423.75 L457.17 423.99 L458.59 423.38 L463.56 419.31 L469.29 416.88 L471.57 415.53 L473.34 413.09 L474.46 415.91 L474.2 416.58 L473.34 417.76 L475.47 421.26 L476.44 422.29 L481.74 425.64 L482.52 426.13 L489.64 427.6 L491.16 428.22 L495.45 429.96 L497.58 436.43 L494.71 441.64 L488.35 443.89 L480.92 443.58 L474.76 441.08 L475.2 438.97 L473.6 436.06 L471.11 435.33 L468.95 439.66 L470.5 441.08 L464.86 444.77 L458.08 446.1 L451.18 445.33 L444.98 442.78 L441.39 440.76 L441.36 440.75 L439.3 440.04 Z M544.51 423.99 L542.45 419.93 L537.98 417.93 L532.74 416.43 L528.26 413.86 L525.98 407.94 L525.98 407.92 L528.82 403.19 L533.33 401.28 L534.4 402.23 L536.12 403.76 L541.41 409.65 L544 412.54 L546.2 418.09 L546.18 418.1 Z M208.78 397.39 L211.42 393.62 L216.39 390.71 L221.24 392.23 L223.51 395.85 L224.65 401.73 L224.21 405.24 L219.73 411.15 L215.88 414.64 L212.45 418.03 L209.73 415.1 L207.46 411.25 L204.96 405.82 L205.41 401.3 Z M364.21 415.91 L361.28 412.28 L358.34 412.04 L354.5 409.99 L352.45 413.38 L344.53 412.22 L341.59 411.75 L337.2 412.65 L336.45 412.91 L335.91 412.89 L335.41 411.68 L335.51 410.37 L336.15 408.72 L336.89 407.33 L337.54 406.73 L345.31 408.42 L347.41 407.91 L352.75 405.53 L353.82 404.54 L354.93 403.73 L361.78 400.97 L365.63 399.18 L367.44 399.18 L369.47 402.81 L371.5 403.95 L373.34 403.02 L373.8 400.54 L373.54 398.09 L372.27 395.84 L380.07 384.28 L383.74 381.68 L383.92 383 L384.85 385.26 L385.16 386.49 L389.97 389.18 L390.02 389.21 L388.65 398 L385.99 400.85 L377.83 404.66 L373.98 407.13 L368.99 407.79 L366.04 410.04 L366.03 412.53 Z M584.35 375.59 L574.43 372.47 L574.43 368.88 L582.85 360.97 L585.77 356.61 L587.19 356.61 L585.77 361.43 L587.27 365.56 L590.94 368.5 L598.65 372.47 L602.45 376.29 L602.62 378.9 L599.75 379.86 L594.29 378.85 Z M560.21 408.66 L558.34 410.2 L556.36 411.24 L554.58 411.69 L552.3 411.65 L551.03 410.94 L547.48 406.74 L544.85 404.88 L542.92 403.99 L542.16 402.52 L543.22 398.96 L544.74 396.88 L547.21 395.16 L550.17 394.19 L553.16 394.28 L554.99 398.12 L557.05 401.35 L561.68 406.74 Z M572.57 390.76 L574.53 392.82 L574.7 395.94 L572.48 402.56 L569.05 404.25 L563.37 394.3 L562.85 392.72 L564.32 392.47 L566.62 393.08 L568.63 394.36 L569.56 394.8 L569.83 393.76 L569.26 392.55 L566.2 390.26 L565.54 388.14 L568.21 387.82 Z M153.79 352.77 L158.53 355.99 L159.92 361.44 L157.21 366.21 L154.72 367.35 L151.7 365.69 L150.61 364.3 L149.6 363.71 L148.28 362.47 L148.1 359.42 L149.9 356.91 L151.48 354.18 Z "/>
</g>
</svg>
