<svg xmlns="http://www.w3.org/2000/svg" viewBox="0 0 1000 1086.13">
<g fill="#ccc" stroke="#333" stroke-width="0.5" stroke-linejoin="round">
<path fill-rule="evenodd" d="M157 20.32 L159.99 23.26 L163.63 34.62 L169.53 38.55 L174.23 39.04 L182.44 37.56 L186.96 37.47 L189.46 38.77 L192.28 43.18 L195.2 43.92 L197.05 43 L201.32 39.16 L203.72 38.01 L207.39 38.17 L209.74 39.72 L211.76 41.56 L214.49 42.66 L215.96 42.1 L218.29 39.27 L219.38 38.71 L220.87 39.47 L223.19 42.03 L224.13 42.66 L230.23 41.36 L235.65 37.05 L239.38 30.92 L240.41 24.09 L241.81 18.55 L245.81 11.53 L250.93 5.27 L255.65 2 L257.51 2.15 L261.02 3.83 L263.01 3.86 L266.69 1.93 L268.01 1.43 L274.89 0.13 L278.66 0 L287.7 2.53 L294.67 1.32 L301.79 1.12 L308.57 5.85 L312.05 11.73 L313.85 13.99 L325.53 22.03 L331.35 24.83 L334.53 27.01 L337.35 29.75 L339.08 32.69 L339.7 37.09 L339.11 39.36 L339.31 40.77 L342.3 42.66 L344.22 43.15 L346.02 43.11 L347.85 43.36 L349.88 44.64 L350.89 45.85 L352.55 48.57 L359.5 56.57 L361.84 58.46 L364.98 61.36 L374.98 67.77 L378.1 70.98 L382.64 78.68 L385.36 82.35 L387.87 84.55 L396.51 89.44 L407.51 98.76 L413.67 101.87 L417.43 105.47 L423.35 112.59 L424.42 114.98 L424.92 117.28 L425.74 119.4 L427.83 121.18 L431.46 123.55 L433.08 125.1 L434.33 126.93 L440.55 139.11 L443.37 142.66 L455.66 152.68 L458.67 158.71 L459.86 165.21 L459.87 165.26 L459.85 165.34 L458.94 171.75 L455.66 177.69 L454.88 182.44 L454.73 196.78 L453.59 206.78 L453.63 211.52 L454.6 213.08 L455.66 214.8 L455.94 214.76 L460.58 214.08 L472.93 214.87 L478.78 213.67 L483.27 213.62 L485.08 213.15 L486.58 211.99 L487.42 210.81 L488.12 209.55 L489.23 208.14 L492.19 206.15 L492.23 206.13 L499.43 201.28 L502.16 198.66 L503.68 195.26 L505.67 187.75 L508.11 184.86 L511.7 184.43 L516.29 185.38 L520.51 185.72 L522.96 183.46 L523.28 179.3 L522.62 170.28 L523.54 166.39 L526.47 163.48 L530.44 162.55 L534.39 163.63 L539.64 169.78 L546.47 173.73 L549.51 176.27 L553.68 181.42 L562.4 189.27 L576.29 205 L579.06 209.14 L580.07 212.74 L580.72 220.58 L582.02 224.34 L584.11 226.38 L590.34 230.48 L592.5 233.86 L595.03 242.97 L596.67 246.94 L599.61 250.43 L602.76 252.38 L610.13 255.24 L613.63 257.42 L622.52 265.57 L626.24 267.93 L629.09 268.48 L631.53 267.11 L633.99 263.66 L637.52 256.58 L639.95 255.74 L643.3 259.92 L646.34 265.18 L651.16 271.56 L656.57 277.02 L664.18 280.63 L666.52 283.08 L668.7 285.97 L671.1 288.44 L673.63 290.08 L679.28 292.33 L710.37 296.83 L716.84 296.81 L719.68 297.72 L722.12 300.2 L725.44 307.11 L727.59 310.07 L737.48 318.08 L740.23 321.02 L742.46 325.05 L743.24 328.92 L743.54 337.87 L745.45 342.75 L746.1 344.43 L751.22 349.38 L757.37 353.87 L763.04 359.23 L768.77 365.94 L781.67 377.87 L792.07 385.22 L801.31 393.9 L805.68 396.99 L807.78 396.78 L809.58 394.47 L812.99 391.25 L816.53 389.97 L820.22 390.36 L823.8 391.96 L827.01 394.38 L828.13 395.87 L829.81 399.13 L831.5 400.67 L833.34 401.37 L839.52 401.99 L842.75 402.97 L845.45 404.21 L850.8 407.91 L853 410.31 L853.82 412.58 L854.29 414.82 L855.38 417.2 L857.32 419.46 L859.77 421.61 L864.95 424.98 L875.95 427.34 L878.68 429.1 L879.79 432.15 L880.04 439.95 L885.41 452.9 L894.95 467.08 L897.21 473.27 L898.47 480.82 L899.06 492 L899.96 495.76 L901.67 498.68 L906.45 502.93 L908.4 505.62 L911.58 511.36 L915.46 516.65 L919.9 521.24 L931.73 529.71 L942.8 542.15 L953.41 545.74 L961.49 550.74 L964.67 551.73 L970.71 551.77 L976.94 555.62 L982.99 558.43 L985.87 560.55 L998.32 574.08 L1000 577.42 L999.4 581.48 L996.99 584.66 L990.2 589.99 L986.49 594.72 L982.54 599.75 L969.97 608.98 L964.72 614.64 L963.19 618.68 L962.7 627 L961.44 631.09 L959.37 633.54 L936.52 648.86 L930.1 654.5 L924.8 661.66 L924.79 661.68 L924.78 661.7 L923.09 667.43 L920.05 677.71 L920.18 694.26 L924.34 728.01 L920.06 765.12 L919.53 785.27 L924.8 794.52 L928.64 794.52 L932 793.87 L935.09 793.89 L938.15 796.06 L939.95 799.74 L941.3 803.71 L943.62 806.25 L949.66 805.89 L946.42 808.12 L942.96 811.25 L936.18 819.62 L932.02 827.09 L929.67 834.94 L925.93 853.71 L922.34 865.04 L921.35 875.39 L919.56 878.64 L912.99 883.23 L909.85 886.12 L900.7 897.95 L890.63 905.68 L887.37 909.56 L880.68 922.86 L878.93 925.19 L878.49 927.65 L874.44 940.72 L877.48 949.01 L877.26 953.08 L869.58 955.48 L852.22 965.26 L838.34 975.11 L809.74 1003.19 L807.46 1006.27 L806.68 1010.17 L806.77 1013.68 L805.75 1016.22 L788.69 1020.08 L784.4 1020.42 L785.16 1018.49 L786.31 1017 L789.53 1014.07 L788.22 1012.91 L787.03 1011.5 L786.12 1009.78 L785.68 1007.83 L785.99 1004.99 L787.89 999.44 L788.35 998.48 L785.6 995.69 L780.52 993.5 L775.15 992.19 L771.46 992.09 L773.57 993.65 L780.56 996.77 L779.05 999.63 L776 1002.76 L772.49 1005.23 L769.61 1006.27 L768.45 1007.79 L768.42 1010.89 L769.81 1013.29 L772.86 1012.78 L772.59 1011 L775.39 1011.61 L778.85 1014.55 L780.56 1019.58 L779.07 1022.48 L775.62 1025.38 L733.52 1048.04 L731.4 1049.15 L719.75 1052.5 L713.69 1057.62 L709.85 1059.41 L701.87 1061.88 L669.35 1077.62 L665.41 1078.31 L661.65 1079.68 L656.85 1085.33 L653.23 1086.13 L654.1 1083.82 L654.51 1082.37 L654.51 1081.44 L652.55 1078.4 L650.02 1075.85 L646.67 1074.13 L639.26 1073.16 L638.81 1072.27 L638.98 1070.82 L637.74 1068.79 L635.84 1067.35 L634.13 1066.53 L630.05 1065.66 L621.1 1066.11 L603.85 1070.18 L596.62 1068.79 L591.7 1063.89 L581.98 1050.75 L574.72 1046.79 L570.03 1046.46 L557.59 1045.41 L549.82 1046.25 L540.15 1043.68 L532.52 1040.16 L524.09 1042.14 L515.32 1038.4 L503.49 1042.5 L496.82 1040.55 L484.29 1044.87 L478.61 1047.25 L466.34 1055.47 L457.03 1062.26 L444.72 1069.56 L438.05 1068.97 L432.34 1072.26 L429.66 1073.98 L428.5 1078.76 L424.52 1073.06 L421.29 1072.42 L417.82 1071.09 L419.38 1069.03 L419.61 1066.47 L417.52 1064.66 L414.53 1064.24 L413.41 1067.7 L409.69 1070.74 L407.91 1070.76 L403.75 1070.13 L399.38 1070.74 L393.47 1065.66 L382.17 1058.98 L379.26 1056.3 L378.83 1052.91 L382.02 1050.13 L385.19 1046.89 L389.99 1045.69 L387.21 1042.51 L383.53 1040.95 L373.64 1036.93 L366.76 1035.85 L360.12 1036.14 L356.09 1038.92 L353.07 1038.48 L350.15 1037.08 L343.14 1032.62 L339.84 1031.06 L336.49 1028.79 L323.88 1025.23 L308.54 1023.28 L293.79 1016.81 L290.64 1014.51 L288.11 1008.9 L285.18 1006.1 L278.97 1001.59 L274.52 996.49 L270.61 992.62 L267.16 989.89 L262.11 986.7 L259.35 984.2 L259.63 981.08 L258.41 979.51 L255.67 977.6 L254.52 976.56 L250.99 972.52 L247.6 969.59 L241.6 966.85 L231.99 964.83 L215.29 964.44 L205.01 965.15 L201.59 962.19 L192.91 962.43 L188.12 965.4 L185.84 962.44 L181.04 961.98 L175.79 964.5 L169.17 967.46 L163.25 961.29 L158.46 961.06 L152.98 962.19 L145.45 965.6 L134.95 969.68 L131.52 969.21 L126.72 972.17 L121.25 971.69 L115.76 972.35 L109.6 971.41 L111.43 969.59 L109.85 966.16 L104.6 964.53 L101.19 959.02 L101.67 949.88 L96.95 944.73 L93.2 938.5 L79.28 921.88 L73.11 918.91 L70.93 915.43 L68.01 908.01 L64.7 904.8 L60.05 902.84 L55.07 901.92 L50.72 901.66 L45.63 900.63 L43.28 897.95 L41.11 889.43 L38.95 884.61 L23.05 861.45 L19.62 858.46 L12.56 854.17 L9.48 851.39 L6.88 847.03 L5.51 842.39 L0.89 815.88 L0 796.37 L2.55 777.07 L1.94 772.37 L0.81 767.94 L0.19 763.23 L1.15 757.9 L3.71 753.5 L10.13 744.96 L11.41 740.1 L10.22 735.7 L5.02 731.31 L3.83 726.88 L5.02 722.79 L7.91 719.18 L14.67 712.48 L16.63 707.98 L16.91 702.83 L13.76 683.36 L13.59 673.87 L16.51 666.69 L24.22 663.81 L41.66 664.86 L49.72 664.17 L56.6 660.74 L63.66 654.13 L66.74 650.08 L68.01 646.31 L68.32 641.12 L69.19 637.1 L71.98 628.67 L73.35 619.7 L71.74 613 L67.96 607.66 L59.85 599.04 L57.91 595.33 L56.91 591.25 L56.6 586.58 L56.96 576.52 L56.62 571.44 L55.21 567.55 L56.6 565.88 L55.01 560.15 L52.95 544.59 L50.72 541.41 L49.22 537.89 L45.41 521.16 L44.9 516.13 L44.97 515.59 L46.81 513.18 L51.5 503.3 L63.39 485.94 L64.34 479.19 L62.39 472.72 L49.57 455.48 L47.45 450.79 L48.51 446.25 L52.65 439.4 L54.62 430.84 L55.18 420.88 L54.49 411.43 L52.65 404.51 L46.74 397.74 L44.43 393.29 L45.67 388.74 L50.81 382.87 L53.77 380.66 L57.9 378.85 L66.79 377.07 L71.33 375.25 L73.28 372.07 L84.59 338.03 L86.29 328.33 L84.93 318.49 L79.95 312.21 L75.14 308.47 L72.92 306.75 L68.34 301.11 L70.71 294.31 L74.28 291.31 L81.34 286.99 L84.29 284.42 L86.11 280.29 L87.04 270.32 L88.77 265.8 L90.06 264.34 L93.15 261.89 L94.54 260.46 L98.44 252.16 L100.26 249.64 L100.28 243.95 L99.02 234.2 L101.41 224.52 L106.15 217.2 L109.62 209.73 L108.11 199.5 L100.19 187.8 L99.02 185.29 L100.47 181.42 L103.98 179.05 L111.96 176.94 L116.3 177.46 L118.63 176.58 L119.64 173.28 L120.71 168.02 L120.93 165.73 L120.73 156.61 L120.1 151.2 L119.64 147.24 L118.36 141.56 L116.63 133.86 L115.07 128.98 L110.88 119.87 L108.11 115.66 L103.89 107.21 L103.14 98.69 L105.52 90.85 L110.68 84.42 L147.63 50.43 L151.69 43.47 L153.07 35 L150.4 25.66 L149.55 20.88 Z "/>
</g>
</svg>
