<svg xmlns="http://www.w3.org/2000/svg" viewBox="0 0 1000 651.25">
<g fill="#ccc" stroke="#333" stroke-width="0.5" stroke-linejoin="round">
<path fill-rule="evenodd" d="M920.62 442.27 L920.87 443.06 L919.55 447.91 L918.98 448.85 L918.08 449.02 L916.58 448.57 L915.46 448.03 L914.21 447.12 L913.64 446.03 L914.58 444.9 L916.04 444.82 L917.05 444.32 L919.17 442.72 Z M872.49 423.33 L871.29 423.21 L866.13 423.68 L857.83 426.24 L855.33 426.45 L852.88 426.29 L850.53 424.6 L849.49 421.36 L848.71 417.83 L847.17 415.29 L845.88 414.75 L844.77 414.87 L843.67 415.21 L842.4 415.32 L841.18 414.96 L838.28 413.67 L839.06 411.01 L838.9 410.69 L838.4 410.09 L838.28 409.97 L838.31 410 L837.54 408.87 L837.44 408.66 L837.35 408.3 L837.25 406.69 L838.17 405.21 L839.9 404.09 L843.91 403.15 L844.47 402.92 L845.06 402.14 L846.46 399.75 L847.25 398.96 L848.06 398.6 L848.92 398.35 L849.8 397.94 L850.54 397.3 L852.59 394.76 L856.13 391.84 L857 391.04 L857.83 390.38 L858.32 390.14 L859.28 389.92 L859.48 389.62 L859.58 389.26 L859.78 388.94 L860.68 388.37 L860.69 388.34 L860.82 387.7 L861.32 385.11 L859.09 383.81 L853.77 382.57 L852.86 381.39 L852.71 380.06 L853.26 379.09 L854.42 378.96 L856.45 380.73 L857.6 381.16 L857.71 379.74 L857.23 379.06 L846.61 367.02 L844.77 365.4 L844.59 365.17 L844.44 364.92 L843.32 363.69 L842.6 362.9 L840.01 361.82 L837.82 362.4 L836.21 370.53 L832.98 374.33 L828.76 376.88 L822.72 379.29 L817.21 383.54 L806.48 386.92 L805.2 387.56 L804.04 388.54 L801.6 391.65 L800.21 392.89 L798.65 393.37 L796.86 392.7 L796.12 392.03 L795.52 391.23 L794.46 389.41 L793.81 388.63 L792.34 387.66 L791.66 387.04 L789.39 383.49 L788.07 382.26 L786.21 382.08 L785.3 381.52 L784.57 380.74 L783.8 380.1 L782.74 379.99 L780.85 380.61 L779.92 381.13 L779.09 381.82 L777.61 383.74 L776.71 385.75 L776.3 388.05 L776.27 390.87 L776.67 394.95 L776.43 395.99 L775.59 396.5 L772.06 396.8 L769.97 398.24 L769.95 399.82 L772.29 403.8 L772.3 403.8 L773.54 408.11 L774.11 409.47 L775.62 412.22 L776.26 413.67 L776.63 415.36 L776.2 419.1 L774.32 419.42 L772.08 418.56 L770.55 418.76 L770.79 421.01 L775.03 424.84 L775.03 426.64 L772.84 427.65 L769.94 427.56 L764.71 425.98 L762.71 424.97 L760.86 424.03 L759.54 423.81 L750.06 425.29 L748.91 425.77 L746.88 426.93 L745.52 427.12 L742.14 426.52 L740.85 426.64 L737.61 427.5 L735.24 428.13 L734.03 428.99 L735.53 430.66 L738.14 432.3 L740.19 433.09 L740.75 432.98 L754.38 430.31 L757.09 432.28 L757.47 433.34 L757.66 434.51 L757.57 435.62 L757.09 436.55 L755.77 436.77 L751.53 436.1 L750.35 436.48 L748.29 438.29 L747.54 438.53 L746.21 436.15 L745.3 435.41 L744.54 436.81 L744.67 437.49 L745.7 438.33 L745.9 438.9 L745.78 440.46 L745.86 441.18 L746.15 441.94 L751.28 449.04 L751.48 450.72 L749 451.76 L747.67 449.7 L746.78 446.41 L745.59 443.81 L744.38 442.96 L743.98 443.55 L744.18 444.98 L744.75 446.62 L746.05 449.4 L746.04 450.47 L745.33 451.92 L745.11 452.08 L744.5 452.18 L744.3 452.3 L743.88 453.44 L743.9 453.55 L743.89 453.93 L743.76 454.68 L743.37 455.18 L742.59 454.77 L741.04 452.23 L740.08 451.51 L738.1 453.28 L737.32 452.95 L736.65 452.9 L736.05 454.53 L735.46 466.75 L735.15 468.56 L734.37 470.05 L732.97 471.53 L730.48 473.12 L729.69 474.25 L729.89 474.72 L730.31 475.67 L730.32 475.7 L729.17 476.23 L725.59 477.18 L722.7 477.45 L719.84 477.25 L715.09 475.54 L706.37 475.27 L686.47 470.09 L683.74 470.04 L681.58 470.73 L676.16 474.62 L671.5 475.36 L670.35 476.49 L670.75 479.83 L670.56 480.1 L670.31 480.32 L670.04 480.46 L669.76 480.53 L668.26 480.32 L667.37 480.43 L666.84 481.12 L666.11 484.02 L665.72 487.05 L665.66 489.83 L664.92 492.37 L664.48 494.86 L664.1 495 L663.57 494.84 L662.95 495.05 L662.41 495.54 L662.13 495.87 L662.01 496.39 L661.91 497.47 L662.34 500.44 L662.34 500.46 L663.98 501.98 L671.01 504.5 L675.75 504.68 L678.05 505.61 L678.3 505.9 L678.76 506.74 L679.09 507.09 L679.49 507.16 L680.46 506.95 L680.83 507.07 L681.35 507.97 L681.36 507.98 L681.47 509.01 L680.81 514.83 L681.1 516.65 L681.1 516.67 L681.16 516.73 L682.17 517.73 L689.61 518.94 L691.17 518.92 L695.6 517.42 L695.6 517.41 L695.62 517.41 L696.39 517.02 L697.21 516.8 L698.05 516.81 L699.03 517.15 L699.49 517.42 L700.38 518.29 L701.34 518.47 L702.31 518.12 L703.28 517.41 L703.74 517.29 L704.21 517.25 L704.69 517.29 L705.14 517.41 L705.15 517.41 L705.16 517.42 L705.17 517.42 L706.06 518.51 L708.03 522.87 L709.12 524.49 L709.72 525.38 L710.3 526.89 L710.23 528.53 L709.72 529.78 L709 530.79 L708.1 531.58 L707.12 532.16 L705.75 532.45 L704.72 532.41 L704.07 532.82 L703.87 534.43 L704.05 535.19 L704.39 535.85 L704.65 536.54 L704.61 537.38 L704.31 537.84 L702.84 538.88 L702.38 540.01 L702.53 541.37 L703.31 544.16 L703.44 545.67 L703.24 549.95 L703.4 551.58 L703.83 552.57 L705.25 554.73 L705.58 555.86 L705.7 558.23 L705.9 559.31 L706.45 560.36 L708.73 562.56 L710.88 566.51 L711.88 567.54 L714.9 569.24 L719.52 573.38 L720.93 575.63 L721.19 578.48 L720.24 582.82 L718.79 586.91 L716.52 590.38 L715.83 591.79 L715.82 591.8 L715.82 591.81 L715.81 591.81 L715.81 591.82 L715.37 593.08 L715.11 594.2 L714.67 595.13 L714.05 595.59 L713.76 595.81 L712.86 596.08 L710.15 596.45 L708.34 597.07 L707.3 598.13 L704.82 605.66 L703.11 609.04 L698.87 614.98 L695.72 617.99 L692.72 621.81 L690.24 626.13 L688.61 630.65 L688.39 633.73 L689.54 639.52 L689.74 642.6 L689.44 645.24 L688.77 647.72 L687.67 649.9 L687.41 650.98 L687.14 649.61 L686.46 648.63 L685.43 648.01 L684.22 647.71 L682.14 647.8 L681.41 647.71 L680.76 647.38 L679.49 646.42 L678.82 646.21 L678.16 646.29 L677.05 646.63 L676.44 646.71 L676.08 647.05 L675.73 647.77 L675.27 648.47 L674.65 648.71 L673.69 647.86 L672.59 644.83 L671.25 644.17 L670.04 644.5 L668.97 645.31 L667.06 647.25 L665.9 648.12 L664.73 648.73 L663.47 649.09 L662.06 649.21 L660.57 649.55 L658.34 650.99 L657.04 651.25 L655.74 650.72 L655.07 649.6 L654.65 648.24 L654.07 646.98 L652.89 645.9 L650.31 644.91 L649.14 644.17 L648.59 643.05 L647.63 639.87 L646.91 639.21 L645.69 638.85 L643.36 637.17 L642.3 636.67 L639.49 636.6 L634.14 637.87 L626.52 638.21 L625.91 638.44 L624.76 639.44 L624.14 639.67 L622.56 639.6 L621.85 639.47 L618 637.83 L616.6 637.67 L615.11 637.79 L613.98 638.15 L612.54 637.03 L612.66 635.69 L613.54 634.43 L614.63 633.31 L615.55 631.8 L615.32 630.62 L614.4 629.63 L613.25 628.64 L612.46 626.56 L612.68 623.93 L613.95 618.98 L614.18 616.06 L613.71 610.28 L613.93 607.4 L615.96 603.76 L619.19 599.54 L621.33 595.36 L620.79 593.83 L620.08 591.82 L620.07 591.81 L620.06 591.8 L618.1 590.4 L615.99 589.38 L613.77 588.77 L609.31 588.74 L607.5 588.19 L601.6 585.42 L598.89 581.99 L597.18 580.36 L595.28 579.47 L591.5 578.39 L587.89 575.48 L586.26 574.62 L582.41 574 L576.54 571.15 L574.57 570.98 L572.91 571.66 L570.1 573.93 L568.59 574.78 L564.6 575.1 L560.67 573.79 L551.09 567.3 L545.3 563.37 L537.45 558.03 L531.95 553 L524.19 545.93 L520.28 543.46 L511.71 540.43 L504.23 536.09 L491.97 525.72 L488.66 521.42 L486.9 519.13 L485.52 518.27 L483.76 518.47 L479.25 520.74 L477.75 521.06 L476.03 520.74 L474.28 519.82 L464.91 513.1 L456.78 507.27 L450.33 502.63 L446.79 498.98 L440.53 490.2 L436.84 486.68 L428.75 480.9 L409.55 467.18 L400.09 460.41 L392.15 454.71 L385.34 449.82 L381.97 446.42 L381.34 446.06 L377.16 440.78 L376.53 438.75 L375.51 434.48 L375.35 432.73 L375.59 431.08 L376.08 429.7 L376.4 428.32 L376.17 426.7 L374.38 422.81 L374.15 421.25 L374.1 419.23 L373.89 417.71 L373.41 416.33 L371.91 413.31 L371.55 411.89 L371.37 408.66 L370.81 407.98 L365.99 405.19 L363.23 404.36 L361.97 403.41 L361.69 402.91 L361.59 402.73 L361.12 400.99 L360.78 400.28 L358.61 397.37 L357.82 395.75 L356.62 391.04 L355.96 389.97 L354.04 387.86 L353.4 386.85 L352.94 385.21 L352.27 381.7 L350.44 375.24 L349.79 373.72 L350.23 373.14 L349.95 372 L349.79 366.57 L349.59 364.99 L349.1 363.71 L344.82 356.5 L343.69 355.25 L330.67 345.62 L325.6 343.42 L319.94 341.92 L317.79 341.68 L316.48 342.32 L315.7 343.95 L315.13 346.68 L313.7 347.5 L312.6 349.93 L310.96 351.73 L308.95 352.75 L306.73 352.83 L304.36 351.86 L298.37 347.58 L297.33 347.55 L293.89 348.14 L293.57 347.44 L293.39 346.75 L293.16 346.57 L292.82 347.16 L292.05 348.48 L291.67 348.91 L291.28 349.23 L288.5 346.33 L284.43 345.34 L272.7 346.06 L265.67 348.42 L262.17 348.51 L260.15 347.93 L258.47 346.72 L255.31 343.54 L251.8 340.94 L246.19 338.05 L239.82 334.76 L238.18 333.13 L237.78 331.29 L238.51 325.06 L238.97 323.73 L239.73 322.64 L240.72 321.76 L243.13 320.55 L243.93 319.57 L243.4 318.14 L239.52 312.62 L237.73 309.15 L237.2 306.43 L238.7 304.28 L240.3 303.17 L242.12 303.01 L244.31 303.7 L246.32 304.98 L247.46 305.49 L248.37 305.37 L249.05 304.35 L248.94 303.24 L248.37 302.17 L247.66 301.26 L246.84 300.56 L244.09 298.92 L243.22 298.01 L242.55 297 L241.22 294.94 L239.5 293.46 L233.38 291.14 L230.36 291.25 L229.53 290.88 L228.89 289.76 L228.98 288.73 L229.63 287.96 L230.66 287.66 L230.68 287.67 L230.7 287.67 L230.72 287.67 L234.17 286.32 L233.99 283.22 L232.85 279.37 L233.38 275.73 L234.34 275.03 L235.53 274.53 L236.49 273.83 L236.69 272.52 L235.98 271.49 L234.63 270.68 L232.05 269.67 L230.01 267.81 L228.39 265.28 L226.55 263.25 L223.91 262.96 L221.31 263.27 L216.25 262.81 L203.95 264.72 L200.94 264.63 L199.48 264.07 L197.16 261.56 L195.79 261.08 L192.82 260.76 L191.15 259.84 L190.38 258.44 L189.69 252.42 L189.13 250.9 L188.31 249.57 L184.61 245.7 L183.21 244.81 L181.72 244.97 L180.03 245.79 L178.35 246.26 L176.64 246.36 L174.05 245.89 L169.95 244.03 L166.05 240.4 L153.52 225.58 L152.1 224.76 L151.03 226.56 L150.23 233.29 L149 235.6 L146.59 236.31 L143.6 236.12 L140.61 235.42 L134.33 232.87 L132.91 232.82 L131.82 233.17 L128.73 235.07 L126.54 236.03 L125.48 236.84 L124.94 237.99 L125.27 239.51 L126.36 240.5 L133.65 243.94 L135.7 245.55 L137.5 248.31 L139.05 251.99 L143.37 259.04 L145.72 261.83 L146.38 262.44 L146.64 263.14 L146.44 263.78 L145.72 264.22 L141.97 264.79 L141.02 264.54 L140.34 263.48 L140.36 262.26 L140.67 260.91 L140.87 259.47 L140.27 256.67 L138.77 254.65 L136.8 253.19 L131.01 250.45 L129.74 250.22 L128.69 250.4 L126.57 251.31 L125.63 251.4 L124.7 250.85 L123.37 248.86 L122.52 248.03 L121.42 247.64 L120.1 247.6 L118.8 247.84 L117.74 248.33 L117.12 249.12 L116.61 250.04 L115.12 251.76 L113.54 252.46 L112.55 253.31 L112.88 255.4 L114.13 258.09 L114.23 259.31 L113.72 261.15 L111.35 266.61 L110.52 267.55 L108.29 268.27 L107.81 269.3 L108.23 270.54 L108.98 271.38 L109.16 272.13 L107.88 273.06 L106.76 273.31 L102.78 273.12 L101.66 273.39 L98.44 274.98 L95.73 275.52 L87.49 274.08 L81.9 274.31 L76.42 277 L71.74 281.62 L68.54 287.64 L68.54 287.66 L66.36 290.9 L63.97 292.73 L58.38 295.36 L56.74 297.63 L56.72 300.65 L58.01 306.81 L57.86 309.75 L57.4 312.26 L57.34 314.72 L58.38 317.5 L59.67 319.64 L60.34 321.68 L60.56 323.92 L60.52 326.67 L60.78 328.82 L61.56 330.97 L62.68 332.89 L63.96 334.33 L64.78 334.93 L65.67 335.37 L68.59 336.09 L69.04 336.43 L68.91 336.96 L68.25 337.74 L67.01 338.63 L64.3 339.99 L63.15 341.32 L61.36 344.6 L60.23 345.26 L53.11 343.77 L47.61 342.61 L34.6 341.9 L32.49 341.78 L20.44 341.12 L9.6 340.53 L0.15 340.02 L0.14 322.19 L0.13 304.31 L0.12 286.35 L0.11 268.34 L0.1 250.26 L0.09 232.11 L0.08 213.89 L0.07 195.61 L0.07 177.26 L0.05 158.84 L0.05 140.35 L0.04 121.78 L0.03 103.14 L0.02 84.44 L0.01 65.65 L0 46.79 L0 46.78 L0 46.77 L0 46.77 L0 46.75 L0 46.74 L0 46.73 L0 46.72 L0 46.71 L0 46.7 L0.01 46.69 L0.01 46.69 L0.01 46.68 L0.01 46.67 L0.02 46.66 L0.02 46.65 L0.02 46.64 L0.02 46.64 L0.03 46.63 L0.04 46.62 L0.04 46.62 L0.05 46.61 L0.05 46.61 L0.05 46.6 L0.06 46.6 L0.07 46.59 L0.07 46.59 L0.08 46.58 L0.08 46.58 L0.09 46.58 L0.1 46.57 L0.1 46.57 L0.11 46.57 L0.11 46.56 L0.12 46.56 L0.13 46.56 L0.13 46.55 L0.14 46.55 L0.14 46.55 L0.15 46.55 L5.6 44.79 L11.06 43.04 L16.51 41.29 L21.99 39.53 L27.44 37.77 L32.9 36.01 L38.36 34.26 L42.61 32.89 L43.81 32.5 L49.28 30.74 L54.73 28.98 L60.19 27.22 L65.65 25.46 L71.11 23.7 L76.57 21.94 L82.03 20.17 L87.49 18.41 L94.77 16.17 L102.04 13.93 L109.32 11.7 L116.61 9.45 L119.97 8.45 L123.34 7.45 L126.7 6.44 L130.08 5.43 L133.58 4.42 L137.09 3.4 L140.6 2.38 L144.1 1.36 L148.82 0 L150.18 0.13 L151.77 0.83 L156.24 3.86 L157.51 4.73 L161.14 7.18 L166.81 11.02 L174.23 16.05 L179.31 19.48 L183.11 22.04 L193.13 28.81 L204.02 36.14 L215.45 43.84 L227.15 51.69 L238.8 59.51 L250.11 67.07 L260.77 74.2 L270.5 80.69 L278.99 86.35 L285.94 90.98 L291.05 94.38 L294.68 96.79 L296.18 98.49 L297.24 100.65 L297.61 102.63 L297.99 106.84 L298.55 108.74 L301.98 114.26 L308.66 121.5 L311.85 124.95 L315.05 128.41 L319.13 133.13 L322.47 137 L325.82 140.88 L329.16 144.74 L332.51 148.61 L335.78 152.39 L339.05 156.17 L342.33 159.94 L345.59 163.71 L349.96 168.72 L351.14 169.24 L352.32 169.75 L352.45 169.72 L357.26 168.84 L359.3 168.46 L361.36 168.08 L363.42 167.7 L365.46 167.32 L368.76 166.71 L372.04 166.1 L375.33 165.49 L378.61 164.89 L383.93 164.02 L389.24 163.15 L394.56 162.29 L399.88 161.42 L405.19 160.55 L410.51 159.69 L415.82 158.82 L421.14 157.95 L430.01 158.76 L438.88 159.57 L447.76 160.37 L456.63 161.18 L464.69 161.92 L472.77 162.65 L480.84 163.39 L488.9 164.13 L492.11 164.41 L493.13 164.12 L494.14 163.83 L499.99 160.57 L505.6 157.45 L511.38 154.23 L517.05 151.07 L518.1 150.67 L519.14 150.27 L520.08 150.42 L521 150.57 L521.97 151.44 L522.96 152.32 L529.23 160.51 L535.5 168.7 L538.4 171.78 L541.3 174.85 L547.3 178.62 L553.29 182.39 L554.44 183.42 L555.59 184.44 L560.54 194.69 L563.7 201.22 L568.06 210.22 L571.8 217.93 L572.31 217.99 L572.81 218.05 L581.22 213.5 L589.62 208.94 L588.37 228.67 L587.11 248.32 L586.97 250.4 L586.82 252.48 L586.53 253.16 L586.24 253.84 L585.55 254.11 L584.87 254.38 L584.7 254.92 L584.52 255.47 L584.49 257.85 L584.31 270.81 L584.1 286.1 L584.16 286.52 L584.23 286.94 L584.47 287.14 L584.73 287.34 L591.74 287.37 L598.13 287.39 L604.49 287.41 L611.52 287.45 L611.74 287.41 L611.95 287.38 L612.18 287.39 L612.4 287.4 L612.59 287.45 L612.79 287.49 L612.94 287.58 L613.08 287.66 L614.09 297.55 L615.1 307.42 L616.96 317.05 L618.82 326.66 L621.31 338.1 L623.8 349.51 L625.11 351.1 L626.4 352.69 L627.86 353.07 L628.8 353.32 L631.2 353.94 L637.96 353.54 L643.64 353.2 L652.13 352.69 L658.36 352.31 L665.79 351.87 L670.52 351.58 L678.07 351.12 L685.52 350.68 L686.19 350.87 L686.85 351.05 L688.08 351.69 L689.3 352.33 L689.93 352.56 L690.57 352.78 L691.13 352.7 L691.69 352.62 L693.38 351.5 L695.06 350.38 L695.8 349.9 L696.54 349.42 L696.9 350.52 L697.24 351.62 L697.32 351.67 L697.39 351.72 L697.59 352.16 L697.79 352.58 L699.08 354.28 L700.36 355.97 L700.66 356.66 L700.95 357.35 L701.18 358.84 L701.42 360.34 L701.8 360.97 L702.19 361.61 L702.53 361.32 L702.89 361.03 L703.26 360.85 L703.63 360.68 L703.98 360.73 L704.34 360.79 L704.66 361.2 L704.97 361.61 L705.37 360.74 L705.78 359.87 L706.4 359.81 L707.02 359.75 L707.14 360.57 L707.24 361.39 L707.25 361.48 L707.26 361.56 L707.18 361.92 L707.11 362.28 L707.39 362.37 L707.67 362.46 L707.76 362.54 L707.83 362.61 L707.17 363.11 L706.49 363.6 L706.24 363.73 L705.99 363.85 L706.23 363.98 L706.47 364.11 L706.61 364.29 L706.75 364.48 L706.98 364.93 L707.23 365.38 L707.22 366.48 L707.21 367.58 L706.92 368.87 L706.64 370.17 L706.2 371.43 L705.78 372.69 L705.32 373.7 L704.88 374.7 L704.56 375.2 L704.23 375.71 L703.8 376.19 L703.37 376.68 L702.9 377.06 L702.41 377.45 L701.39 377.91 L700.36 378.37 L700.11 378.61 L699.84 378.85 L699.75 379.15 L699.66 379.46 L699.85 379.59 L700.04 379.73 L701.2 379.98 L702.34 380.23 L703.23 380.73 L704.12 381.23 L706.78 383.88 L709.44 386.53 L711.39 388.07 L713.35 389.62 L715.7 390.86 L720.21 393.24 L727.07 396.85 L727.17 396.65 L727.27 396.46 L727.62 396.1 L727.98 395.73 L728.42 395.76 L728.86 395.78 L729.09 395.51 L729.3 395.24 L729.46 394.91 L729.62 394.57 L729.89 394.39 L730.16 394.21 L730.5 394.26 L730.84 394.32 L732 394.9 L733.16 395.48 L733.94 395.6 L734.72 395.71 L735.33 395.34 L735.95 394.97 L736.14 394.47 L736.31 393.97 L735.75 393.67 L735.19 393.37 L735.9 392.21 L736.61 391.04 L736.66 390.78 L736.72 390.52 L736.47 390.09 L736.22 389.67 L736.02 389.19 L735.83 388.72 L735.73 388.23 L735.62 387.74 L735.65 387.26 L735.67 386.78 L734.95 386.61 L734.21 386.43 L733.92 386.27 L733.65 386.12 L733.41 385.81 L733.17 385.5 L732.97 384.79 L732.78 384.05 L732.48 380.84 L732.2 377.62 L732.3 377.02 L732.41 376.43 L732.57 376.24 L732.74 376.04 L732.92 375.9 L733.11 375.76 L733.3 375.32 L733.49 374.89 L733.53 374.52 L733.56 374.14 L733.48 373.28 L733.41 372.42 L733.42 372 L733.43 371.57 L733.55 371.65 L733.69 371.72 L733.96 371.82 L734.24 371.93 L734.36 372.02 L734.5 372.1 L734.81 371.2 L735.13 370.3 L735.94 369.74 L736.75 369.18 L738.01 368.63 L738.54 368.4 L740.33 367.61 L740.92 366.88 L741.5 366.16 L742.57 363.07 L743.64 359.98 L744.43 359.07 L745.24 358.16 L747.25 357.28 L749.24 356.4 L749.97 355.14 L750.69 353.89 L751.06 353.39 L751.44 352.89 L752.04 352.69 L752.64 352.49 L753.89 352.33 L755.14 352.16 L756.19 351.64 L757.24 351.13 L758.24 350.45 L759.24 349.75 L759.73 349.26 L760.24 348.77 L760.46 348.33 L760.7 347.88 L761.15 344.19 L761.61 340.51 L761.58 339.87 L761.56 339.23 L761.48 338.77 L761.4 338.32 L761.31 338.18 L761.23 338.04 L761.1 337.94 L760.95 337.83 L760.68 337.49 L760.41 337.15 L760.34 336.83 L760.26 336.51 L760.39 336.23 L760.52 335.96 L760.77 335.76 L761.01 335.56 L762.35 334.9 L763.7 334.23 L764.24 334.06 L764.79 333.89 L765.34 334.1 L765.88 334.32 L766.17 333.52 L766.46 332.71 L767.18 332.01 L767.89 331.3 L769.47 330.29 L771.06 329.28 L771.54 329.18 L772 329.08 L772.87 329.4 L773.73 329.71 L774.16 329.65 L774.58 329.58 L775.7 328.86 L776.83 328.13 L777.26 328.01 L777.7 327.89 L779.43 328.21 L781.17 328.53 L781.5 328.32 L781.85 328.13 L781.81 327.73 L781.78 327.33 L781.29 326.43 L780.81 325.54 L780.7 325.13 L780.59 324.71 L780.98 323.7 L781.35 322.68 L782.12 322.11 L782.9 321.55 L784.55 321.01 L786.21 320.49 L789.18 318.15 L792.13 315.8 L792.96 314.82 L793.8 313.85 L794.29 313.47 L794.79 313.07 L798.71 311.97 L802.64 310.88 L805.89 310.75 L809.13 310.63 L810.35 310.12 L811.55 309.6 L812.44 308.55 L813.32 307.5 L813.72 306.9 L814.12 306.3 L814.57 305.93 L815.02 305.56 L816.65 304.96 L818.28 304.36 L820.69 302.57 L823.12 300.77 L823.85 299.9 L824.59 299.04 L826.57 295.61 L828.54 292.18 L828.96 291.74 L829.38 291.31 L829.87 291.02 L830.38 290.73 L830.91 290.54 L831.43 290.35 L831.91 290.1 L832.39 289.85 L832.76 289.43 L833.13 289.01 L833.35 288.33 L833.55 287.64 L834.27 286.04 L835 284.44 L836.24 283.35 L837.49 282.27 L840.33 281.03 L843.17 279.8 L843.6 279.88 L844.03 279.97 L844.57 280.35 L845.1 280.73 L845.56 281.26 L846.03 281.78 L846.24 282.29 L846.46 282.8 L846.66 283.54 L846.86 284.27 L847.32 284.73 L847.76 285.19 L848.38 285.44 L848.98 285.68 L849.67 285.78 L850.37 285.88 L851.27 285.44 L852.18 285 L852.8 283.84 L853.42 282.69 L853.96 281.26 L854.49 279.83 L855.17 278.55 L855.85 277.27 L856.67 276.29 L857.48 275.31 L857.79 274.78 L858.1 274.26 L858.34 273.52 L858.57 272.8 L858.99 272.23 L859.41 271.67 L860.11 271.64 L860.8 271.61 L862.15 271.99 L863.5 272.36 L864.6 272.2 L865.7 272.04 L866.8 271.48 L867.89 270.91 L869.87 269.29 L871.84 267.67 L873.11 266.46 L875.7 264.55 L877.55 264.3 L879.4 265.07 L887.57 270.95 L889.43 271.58 L889.63 271.65 L888.75 274.58 L886.59 276.11 L881.78 277.51 L873.55 283.68 L871.15 284.26 L868.28 284.13 L865.88 284.77 L864.87 287.64 L864.7 292.14 L864.05 293.45 L862.03 294.22 L856.23 294.89 L854.44 295.97 L848.68 300.92 L846.14 303.92 L844.44 307.6 L843.07 309.66 L841.31 310.84 L839.41 311.77 L835.94 314.53 L826.51 320.08 L825.28 322.1 L826.35 324.6 L828.5 325.74 L836.71 326.66 L836.71 326.67 L836.72 326.67 L836.74 326.68 L838.91 328.01 L839.88 328.9 L840.73 330.01 L842.16 332.7 L843.04 333.52 L844.06 333.57 L844.44 333.58 L846.43 332.82 L853.56 328.7 L855.54 328.4 L856.64 329.09 L857.62 330.41 L860.89 336.08 L861.44 337.66 L861.55 339.3 L860.69 344.06 L860.79 345.41 L861.51 346.47 L862.45 346.32 L863.58 345.77 L864.9 345.64 L866.02 346.11 L867.06 346.88 L868.02 347.86 L868.82 348.97 L869.89 349.99 L871.05 350.11 L873.55 349.73 L876.32 350.24 L877.62 350.84 L878.82 351.79 L879.88 352.38 L882.05 352.68 L882.98 353.44 L884.46 355.93 L885.37 356.55 L885.94 355.06 L885.82 353.44 L885.54 352.05 L885.7 350.98 L886.9 350.32 L888.28 350.43 L888.95 351.37 L889.66 354.28 L890.22 355.37 L890.96 356.16 L891.74 356.11 L892.36 354.63 L893.82 352.75 L897.8 356.2 L899.11 355.07 L899.42 352.38 L898.91 339.01 L899.27 338.03 L900.06 338.23 L902.87 340.87 L905.38 341.96 L907.37 341.57 L908.98 339.88 L910.92 335.67 L911.75 333.07 L912 331.52 L911.78 330.09 L910.15 327.98 L909.56 326.68 L909.56 326.67 L909.56 326.66 L910.71 323.68 L911.42 322.82 L912.7 322.29 L913.98 322.49 L914.72 323.53 L915.03 325.04 L915.03 326.66 L913.96 331.02 L914.01 331.97 L914.56 332.17 L914.91 331.54 L915.15 330.69 L915.42 330.26 L916.04 330.52 L916.36 331.77 L916.9 332.02 L917.37 331.61 L917.42 329.97 L917.79 329.64 L918.28 329.84 L918.74 330.27 L924.2 338.46 L925.14 340.76 L925.47 343.31 L925.33 346.61 L925.64 349.87 L927.15 350.61 L931.78 349.82 L933.18 350.99 L934.07 352.27 L935.08 352.8 L936.82 351.75 L938.08 350.62 L939.43 349.73 L940.85 349.5 L942.34 350.39 L943.01 351.87 L943.28 353.98 L943.38 356.18 L943.92 360.22 L943.92 361.73 L943.52 363.11 L942.73 364.95 L944.5 364.41 L947.84 363.39 L949.99 363.09 L950.43 362.73 L951.09 360.7 L951.4 360.14 L952.47 359.28 L953.24 359.81 L954.91 362.44 L956.13 363.2 L957.77 363.69 L960.87 363.99 L961.18 364.22 L961.34 364.54 L961.37 364.94 L961.27 365.4 L961.26 367.17 L962.31 367.72 L963.76 367.82 L964.88 368.26 L967.38 372.16 L969.19 374.15 L971.44 375.14 L973.95 375.44 L981.45 374.76 L983.7 375.38 L983.95 377.63 L983.79 378.91 L984.54 378.8 L987.23 376.91 L991.54 374.91 L992.48 375.55 L993.28 376.68 L994.46 377.52 L997.89 377.3 L999.21 377.6 L999.69 377.71 L999.69 377.71 L1000 379.26 L998.22 381.62 L995.46 383.2 L989.99 385.23 L985 388.37 L980.8 389.45 L978.76 390.33 L977.37 392.47 L976.69 397.58 L974.99 398.37 L972.85 397.38 L971.79 397.38 L971.34 398.65 L971.26 399.78 L970.99 400.87 L970.43 401.82 L969.53 402.53 L967.22 402.67 L963.12 399.84 L960.87 399.54 L959.2 398.7 L957.27 396.45 L955.33 394.74 L953.6 395.52 L953.41 396.78 L953.41 396.79 L954.65 398.9 L954.66 398.91 L954.66 400.28 L954.27 401.53 L954.28 402.39 L954.28 402.39 L954.79 403.09 L957.31 404.92 L957.32 404.92 L957.57 405.55 L957.93 406.43 L957.93 406.45 L957.87 408.24 L957.25 410.17 L956.06 411.8 L954.69 412.09 L953.11 411.49 L949.67 409.47 L948.81 409.15 L946.18 409.27 L945.44 409.03 L945.44 409.01 L945.72 408.32 L946.39 408.12 L947.39 408.03 L948.23 407.75 L948.46 406.97 L948.45 406.96 L947.92 406.53 L946.85 406.41 L946.41 406.43 L943.75 406.57 L942.77 406.82 L938.9 408.97 L938.36 409.76 L938.01 411.19 L937.17 413.33 L935.63 414.86 L930.59 417.43 L930.26 418.51 L930.68 419.66 L931.78 420.45 L933.46 421.24 L933.88 421.52 L934.27 421.78 L934.59 422.38 L934.21 423.21 L933.39 423.42 L932.47 423.26 L931.78 422.97 L931.32 422.87 L930.98 422.92 L930.31 423.14 L928.01 422.95 L925.71 422.39 L923.59 422.51 L921.78 424.33 L920.7 426.75 L920.06 427.79 L919.12 428.69 L916.06 430.51 L915.25 430.75 L914.08 430.23 L913.71 429.07 L913.73 425.94 L913.32 424.39 L912.5 422.67 L911.47 421.77 L910.41 422.72 L910.05 424.18 L909.92 425.5 L909.41 426.38 L907.97 426.52 L905.23 425.97 L903.9 425.46 L902.66 424.67 L901.61 423.66 L901.14 422.53 L900.58 421.61 L897.97 420.8 L896.14 419.08 L894.97 418.99 L893.14 419.19 L892.18 419.1 L891.37 418.75 L890.77 418.04 L890.25 417.24 L889.66 416.76 L888.83 417.02 L887.92 418.41 L887.41 420.1 L886.59 421.39 L884.74 421.57 L877.98 420.6 L874.6 421.18 Z M849.6 363.48 L848.66 363.73 L849.34 365.32 L849.4 365.38 L850.37 366.38 L852.08 368.69 L853.06 369.63 L854.21 369.9 L854.12 368.58 L853.36 366.72 L852.56 365.4 L851.21 364.18 Z M885.18 438.29 L885.47 438.18 L886.12 437.66 L886.42 437.48 L887.91 437.08 L888.64 437.22 L889.09 437.93 L888.7 439.12 L886 441.01 L885.05 441.94 L885.19 443.9 L887.75 446.67 L887.64 449.01 L887.02 449.93 L886.21 450.23 L884.26 450.28 L881.5 451.02 L880.64 450.94 L879.96 450.31 L879.82 449.47 L879.54 448.82 L878.43 448.77 L877.78 449.23 L876.98 450.03 L876.16 450.54 L875.42 450.16 L875.33 448.23 L877.81 444.3 L877.55 442.09 L876.88 441.55 L875.33 441.22 L874.56 440.81 L873.9 439.86 L872.46 436.69 L872.14 435.46 L872.21 434.2 L872.55 432.86 L873.55 430.48 L875.38 429.48 L876.7 430.31 L877.67 432.16 L878.48 434.24 L879.47 435.5 L881.05 436.55 L884.32 437.92 L884.52 438.09 L884.74 438.23 Z "/>
</g>
</svg>
