<svg xmlns="http://www.w3.org/2000/svg" viewBox="0 0 1000 2222.63">
<g fill="#ccc" stroke="#333" stroke-width="0.5" stroke-linejoin="round">
<path fill-rule="evenodd" d="M982.66 2187.21 L988.63 2191.85 L993.26 2194.57 L997.01 2197.65 L1000 2203.45 L996.89 2211.38 L994.87 2215.21 L991.91 2218.31 L988.63 2219.88 L982.01 2221.22 L979.62 2222.63 L976.78 2219.88 L973.05 2218.16 L965.46 2216.18 L956.45 2211.87 L952.35 2208.69 L951.87 2201.4 L953.97 2193.44 L957.56 2188.16 L961.36 2187.03 L968.93 2185.69 L976.97 2185.39 Z M862.02 1983.34 L871.61 1988.53 L876.19 1991.9 L882.43 1994.23 L880.62 1998.09 L870.12 2011.41 L868.09 2025.22 L865.83 2032.1 L863.03 2035.01 L857.3 2034.42 L844.68 2030.74 L839.79 2028.36 L827.58 2013.79 L824.54 2011.41 L818.62 2011.1 L816.3 2010.18 L815.34 2008.26 L814.42 2004.74 L812.33 2002.23 L810.23 2000.59 L809.29 1999.52 L808.55 1997.07 L798.6 1982.5 L797.37 1979.23 L797.03 1974.53 L797.42 1966.48 L799.03 1958.84 L802.33 1955.45 L804.64 1953.74 L804.64 1949.7 L803.39 1942.42 L804.6 1938.72 L805.97 1935.99 L808.06 1933.82 L811.32 1931.7 L817.24 1930.02 L828.66 1929.86 L833.55 1927.41 L838.37 1931.62 L838.63 1935.86 L836.9 1941.07 L835.74 1947.96 L839.79 1971.54 L842.39 1976.06 L848.61 1978.67 L855.95 1980.61 Z M833.55 1808.43 L830.95 1816.42 L825.05 1820.32 L818.86 1823.3 L815.34 1828.6 L809.37 1824.06 L783.21 1809.8 L779.64 1808.86 L776.03 1810.46 L773.62 1810.31 L764.34 1807.61 L761.72 1806.29 L758.64 1803.36 L751.46 1798.14 L746.5 1795.69 L730.16 1790.2 L729.63 1784.9 L734.5 1770.95 L734.57 1766.78 L733.49 1763.19 L731.66 1759.96 L729.2 1756.86 L728.67 1754.57 L730.6 1732.06 L732.4 1725.52 L736.33 1719.37 L745.29 1712.86 L756.95 1709.46 L768.97 1709.81 L779.01 1715.1 L782 1720.08 L783.21 1726.26 L783.21 1737.58 L784.87 1743.27 L789.2 1745.92 L801.2 1747.29 L801.08 1746.86 L802.5 1746.12 L804.55 1745.46 L806.14 1745.15 L807.34 1745.77 L807.15 1748.56 L809.73 1750.06 L811.34 1752.12 L812.74 1754.67 L813.34 1756.86 L809.87 1757.09 L791.11 1762.2 L798.28 1771.05 L799.18 1774.06 L801.13 1774.64 L810.3 1779.38 L813.34 1781.64 L822.3 1786.33 L828.59 1791.9 L832.3 1799.06 Z M600.59 1420.61 L603.6 1421.27 L606.59 1420.79 L609.12 1419.73 L610.71 1418.49 L611.22 1423.8 L602.4 1441.8 L600.01 1449.7 L597.82 1453.44 L593.87 1455.08 L586.26 1456.68 L585.63 1457.39 L584.81 1458.85 L583.42 1460.27 L581.23 1460.93 L579.71 1460.25 L577.83 1458.8 L576.38 1457.36 L576.14 1456.68 L555.14 1461.79 L552.87 1461.84 L547.69 1458.8 L546.54 1456.48 L545.89 1453.44 L544.59 1452.53 L541.41 1456.68 L541.17 1454.1 L539.91 1450.96 L539.6 1448.38 L538.3 1448.84 L538.13 1448.99 L538.13 1449.34 L537.58 1450.3 L535.14 1449.59 L532.83 1449.7 L530.93 1450.71 L529.48 1452.63 L531.34 1441.8 L529.48 1441.8 L526.45 1445.75 L521.7 1447.82 L511.13 1450.3 L511.13 1448.38 L516.26 1444.48 L522.84 1442.46 L528.11 1439.58 L529.48 1433.1 L527.03 1434.67 L525 1434.82 L523.7 1433.36 L522.76 1426.78 L521.46 1425.77 L519.51 1425.52 L517.2 1424.66 L512.43 1422.03 L508.5 1421.47 L504.89 1422.46 L501.01 1424.66 L498.92 1426.93 L494.92 1433.53 L492.92 1435.43 L489.67 1436.14 L487.69 1434.9 L486.82 1431.74 L482.66 1429.06 L483.55 1425.21 L490.89 1409.79 L494.36 1406 L502 1400.49 L505.06 1397.05 L516.84 1379.46 L524.57 1373 L533.53 1371.43 L535.05 1373.35 L536.11 1376.58 L537.58 1378.55 L542.76 1375.37 L563.16 1371.94 L567.93 1372.79 L572.12 1375.67 L572.82 1377.59 L573.83 1383.2 L575.03 1384.37 L577.54 1384.85 L579.27 1386.18 L582.21 1390.73 L584.62 1396.5 L586.26 1402.59 L589.01 1407.52 L594.52 1409.79 L596.33 1412.87 L598.69 1418.74 Z M498.72 1386.49 L499.45 1376.94 L508.65 1368.1 L519.51 1364.21 L525.36 1369.51 L521.61 1370.82 L515.01 1374.61 L511.06 1375.67 L504.17 1380.37 L501.08 1383.05 Z M533.46 1344.96 L534.83 1336.28 L538.13 1334.76 L542.13 1338.02 L545.6 1343.9 L548.06 1354.81 L543.38 1356.38 L536.83 1351.98 Z M553.69 1227.12 L552.1 1229.03 L550.95 1231.1 L549.36 1232.76 L539.53 1235.26 L536.49 1235.56 L533.46 1234.02 L534.95 1230.49 L538.42 1226.81 L541.34 1224.8 L552.87 1219.08 L556.92 1219 L563.76 1220.77 L561.28 1222.78 Z M603.46 1188.88 L598.64 1188.48 L595.61 1187.12 L594.74 1184.5 L596.28 1180.24 L595.97 1173.67 L601.53 1168.91 L609.12 1168.23 L614.64 1173.9 L606.74 1187.01 Z M494.77 1148.75 L491.02 1146.41 L482.3 1137.83 L480.61 1134.94 L481.28 1126.41 L480.61 1123.24 L475.94 1119.22 L473.55 1116.38 L473.62 1113.74 L474.88 1110.04 L475.43 1098.6 L476.73 1093.72 L478.61 1091.48 L480.49 1089.97 L482.05 1087.89 L482.66 1084.02 L482.51 1081.05 L482.08 1078.96 L480.61 1074.31 L483.52 1076.22 L485.33 1076.02 L487.14 1074.97 L489.81 1074.31 L492.7 1075.04 L494.15 1076.55 L494.94 1078.06 L495.88 1078.74 L497.95 1081.38 L503.11 1092.99 L506.07 1095.63 L506.65 1097.82 L507.35 1102.65 L508.65 1107.75 L511.13 1110.57 L513.44 1110.26 L518.33 1107.1 L521.25 1106.39 L523.82 1106.87 L526.16 1108 L528.11 1109.36 L529.48 1110.57 L532.59 1115.24 L534.52 1120.02 L537.14 1123.8 L542.52 1125.36 L543.48 1127.02 L544.73 1130.64 L547.53 1134.26 L552.83 1135.87 L568.51 1135.32 L575.3 1137.66 L580.21 1144.53 L576.31 1146.29 L577.03 1150.49 L578.79 1155.35 L578.19 1159.32 L575.08 1157.91 L572.12 1159.32 L556.44 1150.36 L551.62 1145.23 L546.76 1142.86 L541.02 1141.05 L536.57 1140.35 L524.26 1143.02 L515.49 1148.2 L506.87 1151.55 Z M535.48 1064.01 L531.44 1062.83 L528.98 1059.36 L525.36 1051.15 L533.96 1049.39 L537.75 1049.26 L541.34 1051.15 L544.83 1056.17 L544.88 1060.85 L541.65 1063.89 Z M501.01 1045.02 L503.83 1033.44 L507.23 1030.88 L515.18 1030.1 L512.43 1034.72 L512.16 1045.47 L510.09 1050.09 L504.89 1053.26 L500.12 1053.21 L498.05 1050.34 Z M491.91 1004.81 L487.84 1005.87 L483.52 1007.9 L479.36 1009.16 L475.65 1007.75 L472.23 1004.81 L468.28 1002.38 L464.3 1001.32 L460.57 1002.53 L452.74 996.98 L448.76 996.25 L444.43 998.26 L441.59 994.6 L431.76 988.57 L427.08 984.71 L422.82 982.15 L417.69 980.04 L414.51 977.38 L416.15 973.04 L412.13 969.43 L415.96 965.34 L423.23 961.98 L431.9 959.92 L436.29 956.86 L439.18 956.18 L452.33 956.18 L458.5 953 L469.58 941.66 L473.62 939.18 L475.07 937.37 L479.65 925.26 L482.3 924.01 L488.73 922.33 L494.58 928.8 L499.28 939.03 L505.06 958.29 L506.21 967.77 L511.83 973.47 L533.03 984.78 L535.19 987.42 L535.55 991.99 L533.31 995.7 L523.25 1003.63 Z M382.43 1026.93 L385.46 1026.78 L387.77 1030.6 L389.72 1035.52 L391.72 1038.71 L384.74 1045.92 L382.43 1046.93 L378.6 1047.76 L376.79 1049.94 L375.3 1052.96 L372.21 1056.42 L370.33 1059.34 L370.57 1061.95 L370.43 1064.26 L367.06 1066.07 L362.26 1066.12 L360.17 1063.56 L359.01 1060.04 L356.99 1057.28 L354.24 1056.5 L346.44 1055.17 L344.85 1054.51 L343.02 1051.75 L338.78 1051.7 L334.3 1052.5 L331.62 1052.28 L326.01 1049.99 L319.46 1052.43 L313.56 1056.65 L310.09 1059.79 L312.09 1061.62 L312.86 1062.81 L313.92 1063.51 L316.57 1064.01 L313.68 1067.88 L310.16 1069.31 L302.4 1070.34 L296.14 1076.63 L294.41 1076.27 L292.38 1074.77 L290.79 1074.74 L290.12 1078.74 L288.26 1078.74 L285.83 1075.57 L277.71 1072.76 L274.1 1065.67 L270.13 1062.38 L266.56 1058.01 L265.86 1051.15 L267.86 1051.15 L269.04 1053.18 L270.9 1054.97 L273.23 1056.37 L275.96 1057.28 L275.18 1052.35 L273.45 1046.17 L270.9 1040.3 L263.53 1030.42 L262.25 1027.08 L261.82 1022.51 L262.03 1016.84 L261.82 1015.13 L260.44 1013.17 L258.49 1012.12 L256.64 1011.57 L255.75 1011.12 L254.85 1004.49 L255.17 985.56 L256.68 981.62 L253.55 966.72 L253.36 964.91 L253.55 959.42 L252.88 957.06 L251.53 956.33 L250.13 956.11 L249.51 955.13 L247.94 949.71 L237.37 933.04 L232.64 935.89 L231.1 937.25 L229.3 934.97 L224.53 940.76 L210.92 949.86 L203.88 943.47 L199.93 941.86 L196.78 943.54 L194.78 940.41 L194.06 937.37 L193.67 934.24 L192.73 930.93 L190.44 927.82 L187.82 925.64 L185.58 923.16 L184.61 919.17 L185.87 911.88 L194.75 894.81 L193.48 874.49 L193.74 870.53 L195.26 868.03 L195.74 865.68 L196.78 863.97 L199.81 863.27 L208.89 856.79 L241.41 869.58 L241.03 880.4 L258.76 903.16 L253.55 913.91 L257.36 915.41 L260.44 917.54 L261.6 920.53 L259.62 924.44 L262.25 926.67 L264.83 929.53 L267.57 931.98 L273.45 933.99 L277.98 938.2 L281.04 939.18 L282.05 937.98 L281.59 935.19 L280 929.78 L281.25 929.28 L284.05 932.48 L288.26 939.18 L287.98 941.91 L285.69 945.32 L286.07 947.76 L292.74 950.92 L294.33 951.97 L296.14 951.97 L297.08 950.29 L297.97 949.41 L298.98 948.78 L300.19 947.76 L301.01 951.29 L302.28 954.75 L304.02 957.96 L306.26 960.57 L309.65 962.78 L316.52 964.76 L320.42 966.72 L327.07 973.07 L330.9 978.49 L335.12 980.72 L343.02 977.41 L345.79 978.91 L346.87 979.34 L346.87 981.62 L344.9 986.06 L350.2 991.99 L363.01 1002.53 L370.57 1001.17 L374.62 1008.13 L377.15 1023.37 L371.59 1033.61 L371.01 1039.29 L375.54 1042.71 L375.87 1036.75 L377.08 1032.84 L379.17 1029.9 Z M202.82 821.06 L196.95 820.91 L192.85 818.91 L184.61 812.7 L180.23 810.95 L171.94 808.75 L168.3 806.39 L163.32 797.99 L164.33 789.81 L170.04 783.65 L179.51 781.18 L200.46 783.78 L211.06 787.33 L212.02 792.81 L208.51 802.24 L210.63 811.15 L211.11 818.03 Z M188.51 755.82 L194.15 753.52 L198.22 753.57 L198.97 754.72 L194.75 755.82 L194.75 757.92 L197.79 758.75 L198.94 760.4 L198.49 762.42 L196.78 764.42 L203.59 768.12 L203.93 773.45 L199.6 776.88 L192.73 774.87 L191.74 776.13 L190.78 776.58 L188.51 777.03 L184.2 776.38 L181.1 775.25 L174.35 770.72 Z M492.92 749.32 L494.92 752.12 L496.8 752.92 L498.24 754.42 L498.82 759.07 L496.51 777.93 L496.96 783.08 L501.01 792.81 L501.01 802.19 L501.88 806.47 L508.82 826.27 L511.13 842.06 L512.55 846.59 L516.07 853.63 L517.2 859.06 L517.95 871.21 L517.17 881.96 L513.37 890.15 L505.06 894.81 L498.39 895.29 L494.87 893.16 L493.42 888.72 L492.34 876.32 L487.06 857.71 L483.81 834.1 L476.73 816.86 L474.11 805.94 L473.33 793.86 L474.78 781.13 L482.01 757.12 L483.67 732.57 L490.17 732.05 L492.05 746.3 Z M420 710.63 L419.04 716.28 L416.58 720.38 L396.95 736.7 L390.13 739.17 L359.23 739.02 L352.94 736.97 L342.82 731.87 L341.09 728.42 L343.91 723.13 L380.04 688.58 L386.47 686.45 L391.48 685.6 L405.84 679.96 L431.08 675.61 L438.65 676.86 L438.89 679.86 L432.1 686.45 L428.24 691.12 L424.29 697.42 L421.23 704.29 Z M178.4 579.3 L171.85 571.94 L170.47 568.65 L175.7 570.17 L183.31 576.13 L188.51 577.03 L185.91 579.9 L183.26 581.14 L180.71 580.92 Z M466.47 584.44 L466.97 582.04 L467.77 580.5 L467.65 578.82 L465.53 576.06 L464.71 573.14 L465.77 569.43 L468.03 566.18 L470.68 564.64 L474.3 566.78 L477.48 572.17 L479.77 578.23 L480.61 582.34 L481.09 589.42 L484.68 606.51 L484.8 609.65 L484.39 616.09 L484.68 619.23 L488.17 629.24 L488.73 632.73 L488.73 643.41 L489.67 646.06 L493.81 651 L494.77 653.69 L493.86 674.64 L495.45 679.11 L494.92 684.9 L492.92 693.6 L492.65 702.54 L490.89 711.63 L487.06 710.16 L483.88 710.16 L476.73 711.63 L478.44 704.49 L478.01 696.82 L474.56 682.26 L476.56 671.62 L476.44 638.77 L473.62 631.81 Z M183.55 754.77 L172.33 768.42 L169.77 770.37 L167.29 771.65 L164.55 772.37 L161.22 772.62 L157.68 772.07 L152.7 769.4 L149.95 768.42 L138.7 767.07 L126.03 767.42 L114.68 770.37 L107.43 777.03 L110.32 780.03 L107.92 780.38 L101.6 779.13 L97.94 781.53 L96.47 784.08 L95.44 786.78 L93.32 789.58 L87.34 792.48 L80.7 791.88 L74.29 788.46 L69.09 783.08 L72.79 777.28 L72.89 769.62 L69.76 763.02 L59.55 758.37 L55.26 753.92 L48.71 743.27 L45.45 734.02 L43.6 731.6 L35.77 723.8 L34.54 721.03 L33.6 717.18 L29.27 711.48 L28.28 708.53 L28.95 705.79 L31.7 699.52 L33.24 690.52 L37.19 678.01 L38.35 671.62 L38.08 657.39 L36.49 650.3 L29.39 639.97 L27.65 633.93 L26.45 621.18 L23.41 609.48 L23.63 605.28 L26.45 600.22 L21.34 598.5 L18.21 593.94 L16.62 588.08 L16.19 582.34 L14.89 577.03 L8.53 567.48 L6.07 562.37 L0.63 539.02 L1.01 534.03 L3.13 529.03 L4.19 521.63 L3.9 514.38 L2.02 509.92 L10.07 493.18 L9.49 485.61 L10.55 482.03 L19.87 479.12 L21.68 476.73 L23.05 475.71 L26.45 478.59 L27.65 481.08 L30.54 489.2 L31.44 490.92 L33.89 492.29 L35.46 495.52 L36.33 499.36 L36.57 502.6 L37.72 503.17 L44.61 512.01 L47.21 519.53 L49.04 523.05 L55.02 526.04 L67.06 535.18 L64.17 538.22 L65.54 545.32 L70.89 560.28 L73.81 574.49 L75.11 589.75 L74.72 593.41 L76.24 595.43 L78.19 597 L79.2 599.17 L83.25 637.12 L86.62 639.62 L94.23 639.77 L107.43 638.27 L115.05 638.54 L118.18 638.24 L120.06 635.85 L123.81 629.71 L126.22 627.19 L128.87 625.07 L131.04 622.37 L131.91 618.11 L133.62 584.29 L133.02 580.35 L131.43 575.53 L134.8 571.22 L140.12 568.03 L144.19 566.56 L166.45 568.65 L166.45 570.92 L161.08 571.82 L158.55 574.41 L157.92 578.3 L158.74 591.07 L157.59 594.21 L154.14 598.13 L159.05 598.7 L161.05 602.34 L162.23 612.79 L167.29 627.84 L168.3 633.73 L175.46 628.51 L179.14 627.64 L184.61 629.71 L183.19 635.32 L188.51 659.98 L187.09 664.88 L184.61 665.98 L183.6 667.02 L186.66 671.62 L187.98 672.37 L192.73 674.12 L194.75 675.61 L195.84 677.31 L198.68 684.15 L198.01 690 L196.7 695.02 L194.87 696.74 L192.73 692.55 L190.71 692.55 L192.75 702.81 L198.01 718.4 L204.94 732.65 L212.02 738.87 L214.55 740.17 L215.11 743.3 L214.34 746.77 L213.13 749.32 L211.01 751.1 L209.28 750.92 L207.16 749.92 L203.83 749.32 L192.75 749.32 L188.51 750.87 Z M294.33 327.59 L297.35 328.44 L315.51 337.33 L318.16 339.44 L320.42 342.4 L318.47 358.5 L317.58 361.14 L315.89 363 L308.28 375.95 L304.14 380.28 L300.91 382.07 L297.66 382.36 L277.79 380.67 L273.74 382.21 L269.48 381.92 L265.84 380.38 L262.83 378.64 L260.68 377.84 L259.38 376.15 L260.63 372.47 L263.62 366.46 L261.82 349.7 L262.54 344.19 L264.54 341.53 L267.45 339.82 L274.51 333.95 L276.63 333.55 L279.23 334.1 L284.22 333.85 L286.82 332.59 L291.37 328.54 Z M275.96 259.88 L275.76 253.56 L274.65 249.64 L271.64 246.41 L265.86 242.02 L258.85 231.33 L257.12 225.03 L257.6 216.86 L259.91 210.32 L263.96 205.28 L269.35 201.39 L282.17 195.81 L286.65 195.74 L290.84 198.39 L296.14 204.37 L304.62 220.51 L308.28 223.12 L304.6 228 L302.4 229.37 L304.31 233.71 L306.74 235.32 L309.51 236.06 L312.33 237.85 L313.92 238.57 L315.29 238.22 L316.18 238.47 L316.57 240.98 L315.72 242.17 L313.92 242.09 L311.75 241.72 L310.09 242.02 L305.25 245.62 L299.9 248.25 L293.61 249.78 L286.07 250.36 L287.08 251.22 L288.05 251.72 L287.98 252.66 L286.07 254.52 L289.49 261.67 L285.45 267.06 L279.23 267.6 Z M349.91 168.82 L352.6 170.67 L354 175.04 L354.05 179.94 L352.94 183.56 L350.39 184.88 L345.43 186.54 L339.55 187.78 L334.54 187.73 L332.42 191.05 L329.89 191.27 L329.43 188.45 L340.22 173.9 L344.37 170.3 Z M239.39 135.54 L241.61 139.5 L244.62 140.86 L248.08 140.12 L251.7 137.62 L251.05 145.55 L247.51 148.59 L241.99 148.77 L235.34 148.02 L232.26 143.51 L229.85 138.61 L229.73 133.7 L233.34 129.34 L241.03 127.34 L245.92 130.19 L245.94 134.15 Z M16.19 52.1 L20.76 47.99 L26.95 45.71 L32.86 46.16 L36.57 50.22 L36.2 55.59 L32.57 59.82 L27.39 61.82 L22.26 60.61 L20.02 58.85 L18.43 57.05 L17.25 54.84 Z M16.19 27.21 L14.45 28.05 L14.09 29.31 L14.24 31.09 L14.16 33.44 L13.59 34.68 L12.81 35.77 L11.71 36.71 L10.07 37.55 L5.3 34.97 L2.7 31.91 L1.81 27.5 L2.02 20.97 L3.76 12.61 L4.05 9.35 L3.32 7.07 L1.73 5.56 L0.34 3.61 L0 0 L10.04 2.77 L12.09 4.2 L13.66 7.37 L14.89 14.24 L16.19 16.82 L16.19 18.7 L14.74 20.43 L14.16 22.31 L14.55 24.44 Z M45.05 118.64 L40.83 106.61 L45.38 104.23 L49.79 109.03 Z "/>
</g>
</svg>
