<svg xmlns="http://www.w3.org/2000/svg" viewBox="0 0 1000 1123.64">
<g fill="#ccc" stroke="#333" stroke-width="0.5" stroke-linejoin="round">
<path fill-rule="evenodd" d="M984.87 538.71 L989.39 545.4 L997.05 554.04 L1000 558.83 L999.92 560.37 L998.99 562.01 L997.58 563.3 L996.05 563.79 L994.54 563.89 L990.86 564.74 L989.58 565.36 L988.8 566.23 L986.91 567.71 L986.37 568.87 L986.38 569.94 L986.56 570.8 L986.47 571.66 L985.61 572.78 L984.98 575.76 L984.24 577.06 L982.99 577.8 L981.41 577.89 L978.47 577.6 L976.9 578.1 L975.38 579.25 L974.21 580.47 L972.93 581.54 L969.39 582.92 L968.52 583.92 L967.76 585.12 L966.68 586.1 L966.39 586.36 L962.82 588.82 L961.19 590.3 L960.6 592.01 L958.81 593.37 L955.59 593.68 L949.34 593.57 L947.69 594.13 L946.65 595.11 L945.2 597.87 L943.54 599.86 L943.18 600.54 L943.12 601.19 L943.37 602.6 L943.36 603.41 L942.23 605.41 L942.41 606.52 L942.13 607.47 L941.43 607.99 L940.37 607.8 L939.88 608.16 L939.16 609.18 L938.12 611.09 L936.98 612.51 L933.64 613.59 L932.6 615.53 L932.67 616.65 L933.1 617.73 L934.8 620.87 L935.73 621.23 L936.75 621.47 L937.75 622.16 L938.07 622.71 L938.11 623.15 L938.03 623.62 L938 624.24 L938.3 624.96 L938.89 625.34 L939.56 625.6 L940.08 626.01 L940.6 626.96 L941.44 629.03 L942.09 630.04 L942.23 630.65 L942.22 631.24 L942.05 631.79 L941.72 632.32 L939.93 633.93 L939.01 635.94 L939.05 638.15 L940.13 640.36 L940.92 641.16 L946.05 645.23 L947.01 645.21 L948.64 642.28 L949.83 641.14 L951.4 640.55 L953.3 640.57 L954.22 640.91 L954.98 641.42 L955.79 641.83 L956.84 641.86 L958.04 641.68 L959.01 641.76 L959.89 642.24 L960.76 643.21 L960.81 643.27 L963.37 644.7 L964.32 645.56 L964.88 646.73 L964.94 647.99 L964.63 649.3 L964.05 650.53 L963.33 651.56 L962.29 652.43 L961.03 653.24 L959.92 654.18 L959.3 655.43 L958.62 659.11 L957.38 658.37 L955.41 658.83 L946 664.7 L940.7 665.98 L939.31 666.59 L938.11 667.56 L936.02 670.57 L934.83 671.83 L933.27 672.38 L932.17 672 L929.47 670.24 L927.96 669.84 L927.1 669.94 L925.4 670.34 L924.72 670.4 L923.83 670.13 L923.18 669.65 L922.65 669.14 L922.15 668.78 L920.52 668.34 L919.56 668.26 L919.13 668.55 L919.3 669.38 L920.03 670.42 L920.19 671.11 L920.16 671.72 L920.03 672.03 L918.03 674.14 L917.63 674.45 L916.1 674.67 L912.74 674.25 L911.38 675.29 L909.8 674.8 L908.24 674.57 L907.57 675.92 L906.19 675.51 L904.58 675.36 L903.19 675.63 L902.49 676.47 L900.18 679.14 L898.74 681.78 L897.67 684.53 L897.14 687.08 L897.31 688.6 L898.02 689.33 L899.04 689.91 L900.17 690.95 L900.75 692.06 L901.45 694.28 L902.25 695.38 L902.46 695.99 L902.55 696.6 L902.52 697.21 L902.36 697.83 L901.71 698.72 L901.35 699.75 L900.9 703.32 L901.01 704.14 L901.56 706.21 L901.95 706.89 L903.25 707.7 L903.61 708.22 L903.82 708.72 L904.07 708.89 L904.3 709.13 L904.44 709.86 L904.06 712.67 L904.04 713.68 L903.8 714.86 L902.98 715.09 L901.9 714.98 L900.89 715.14 L899.94 715.97 L899.15 717.87 L898.43 718.84 L897.54 719.37 L896.33 719.76 L893.89 720.21 L892.91 720.74 L892.24 721.79 L891.31 724.16 L887.85 729.66 L886.77 730.52 L884.3 731.9 L883.53 732.72 L884.79 735.7 L887.17 738.34 L892.75 744.52 L898.33 750.7 L903.91 756.89 L909.49 763.07 L915.08 769.25 L920.66 775.43 L926.24 781.6 L931.92 787.74 L934.04 788.03 L935.97 788.76 L937.48 790.1 L942.32 802.92 L942.81 806.41 L941.29 810.04 L936.32 816.15 L933.52 818.64 L930.16 820.8 L923.07 823.95 L922.43 824.04 L921.01 824.04 L920.43 824.24 L919.87 824.9 L917.83 829.49 L917.14 832.7 L916.6 834.21 L914.43 837.06 L911.87 838.29 L905.72 839.08 L901.62 840.23 L900.34 840.37 L899.06 840.08 L896.54 838.86 L895.22 838.47 L890.86 837.89 L889.51 838.11 L888.97 838.99 L890.96 841.94 L891.17 843.49 L890.05 844.57 L888.21 845.27 L886.23 845.64 L884.68 845.72 L880.44 845.47 L879 845.62 L875.79 846.9 L874.71 848.9 L874.28 854.59 L873.95 855.49 L873.46 856.37 L872.82 857.15 L872.08 857.75 L870.97 858.23 L870.28 858.14 L869.63 857.86 L868.63 857.79 L867.81 858 L866.48 858.6 L865.57 858.71 L864.94 858.6 L862.62 857.93 L859.8 857.77 L858.41 857.96 L857.04 858.39 L855.36 859.39 L851.54 863.51 L850.36 864.32 L848.9 864.98 L847.33 865.49 L845.85 865.79 L844.14 865.77 L842.75 865.34 L841.41 864.76 L839.82 864.29 L836.51 864.77 L830.91 868.84 L827.78 869.91 L824.9 869.58 L810.79 863.77 L807.56 863.05 L804.99 863.68 L804.73 864.12 L804.48 865.38 L804.09 865.95 L803.46 866.3 L801.16 866.75 L799.54 867.32 L798.84 868.17 L798.68 869.34 L798.67 870.86 L797.77 873.79 L795.73 874.31 L789.69 873.36 L785.51 873.74 L784.26 874.07 L782.65 875.05 L782.32 876.18 L782.56 877.53 L782.65 879.19 L782.14 881.01 L781.43 882.48 L780.99 884.01 L781.26 886.01 L781.65 886.82 L782.06 887.3 L782.36 887.82 L782.61 889.72 L783.88 892.56 L784.55 895.63 L784.59 898.7 L783.88 901.65 L782.3 904.39 L781.17 905.78 L780.43 906.31 L779.59 906.35 L778.52 906.2 L777.84 906.49 L776.39 907.79 L774.86 908.66 L773.58 909 L772.23 908.99 L770.51 908.78 L769.04 908.31 L767.26 907.36 L765.65 906.17 L764.64 905 L763.59 903.32 L755.79 894.14 L751.2 890.85 L746.93 884.96 L744.37 882.43 L739.52 879.63 L736.6 878.68 L734.1 878.92 L732.41 881.06 L731.89 883.92 L730.89 886.38 L727.81 887.32 L724.61 885.78 L719.55 881.36 L715.96 880.55 L714.55 880.71 L710.49 881.73 L708.64 881.84 L707.19 881.52 L704.21 880.31 L700.97 880.29 L697.89 881.79 L694.94 883.82 L692.03 885.38 L688.99 885.26 L687.07 883.11 L685.95 880.04 L684.71 874.78 L683.8 872.29 L682.55 870.05 L680.96 868.42 L679.05 867.47 L674.05 866.09 L664.88 865.36 L648.33 867.8 L646.97 867.24 L646.02 865.73 L644.85 862.47 L644.03 861.23 L643.08 859.78 L640.22 857.07 L636.82 855.34 L633.46 855.57 L632.47 856.5 L631.89 857.91 L631.69 859.52 L631.88 861.03 L632.75 862.66 L634.04 863.5 L635.57 864.1 L637.12 864.97 L638.21 866.18 L638.77 867.48 L639.66 870.45 L642.94 876.8 L642.95 876.8 L644.41 878.58 L647.86 881.31 L649.42 882.91 L652.62 887.4 L659.76 892.93 L662.71 894.59 L666.18 895.9 L667.89 896.95 L672.21 902.26 L675.41 904.91 L676.82 906.5 L677.35 908.32 L677.36 911.06 L677.19 912.38 L676.66 913.71 L674.67 916.36 L673.93 917.7 L673.68 919.47 L675.57 928.77 L675.84 931.83 L675.17 938.16 L675.35 941.23 L676.65 943.8 L678.99 946.55 L681.64 951.32 L683.96 954.27 L689.63 965.28 L690.87 969.26 L691.71 970.64 L691.95 971.41 L691.93 972.06 L691.44 974.02 L691.2 978.2 L690.87 979.6 L688.05 984.7 L687.51 986.48 L687.6 988.1 L688.24 989.37 L689.38 989.98 L690.97 989.6 L695.32 990.09 L704.19 992.51 L708.93 992.47 L713.57 991.86 L723.16 992.09 L727.81 992.81 L737.08 993.11 L738.55 993.66 L738.83 994.63 L738.08 997.2 L737.97 998.38 L738.14 1003.39 L737.98 1004.44 L736.96 1006.72 L735.92 1009.03 L735.68 1010.22 L735.8 1011.54 L735.1 1013.1 L732.77 1014 L727.81 1014.93 L727.09 1014.94 L724.99 1014.65 L724.03 1014.8 L719.94 1016.66 L709.25 1025.17 L707.74 1025.96 L706.33 1026.15 L697.6 1026.01 L694.84 1026.27 L692.14 1027.21 L689.07 1029.47 L687.82 1031.95 L687.33 1038.3 L686.17 1042.88 L686.43 1047.36 L686.21 1048.77 L685.81 1050.1 L684.92 1051.93 L683.7 1053.71 L682.21 1055.21 L678.72 1057.19 L674.67 1061.17 L669.56 1064.89 L668.06 1066.53 L666.67 1069.49 L665.77 1070.85 L664.51 1071.37 L663.07 1070.59 L662.69 1068.91 L662.94 1067.02 L663.41 1065.65 L664.97 1062.63 L664.91 1061.18 L663.3 1060.21 L661.64 1060.41 L659.87 1061.4 L656.78 1063.69 L652.88 1065.7 L651.17 1066.89 L649.76 1068.66 L648.22 1072.01 L647.26 1073.39 L637.93 1079.56 L636.43 1079.87 L634.95 1079.62 L631.26 1077.87 L629.95 1077.85 L628.77 1078.74 L627.12 1080.49 L625.66 1081.62 L624.39 1081.98 L623.05 1082.11 L621.34 1082.56 L620.58 1083.02 L618.15 1085.13 L617.86 1085.32 L617.13 1085.59 L616.82 1085.79 L616.66 1086.18 L616.58 1087.19 L616.45 1087.49 L613.72 1088.05 L610.7 1087.77 L608.03 1088.45 L606.31 1091.89 L605.7 1098.06 L604.92 1101.09 L603.15 1103.41 L601.67 1104.11 L600.18 1104.2 L597.16 1103.74 L595.25 1103.79 L594.01 1104.41 L589.45 1109.91 L588.64 1111.32 L587.93 1113.11 L587.84 1113.72 L587.95 1115.83 L587.62 1116.84 L586.23 1118.36 L584.87 1120.63 L583.27 1121.93 L581.44 1122.94 L579.83 1123.52 L578.13 1123.64 L576.82 1123.14 L575.8 1122.09 L575 1120.53 L574.84 1117.02 L576.62 1114.16 L578.83 1111.33 L580.02 1107.91 L579.91 1106.16 L579.43 1104.56 L578.64 1103.07 L576.87 1100.9 L576.06 1100.12 L575.17 1099.45 L574.2 1099.01 L573.31 1098.89 L571.79 1099.13 L566.47 1098.95 L565 1099.13 L563.2 1099.71 L560.25 1101.55 L553.88 1104.51 L552.42 1105.49 L550.76 1107.04 L547.93 1110.48 L546.35 1112.02 L544.87 1112.92 L543.43 1113.3 L540.21 1113.49 L538.61 1114.19 L536.26 1116.82 L534.55 1117.61 L532.93 1117.47 L531.7 1116.73 L530.52 1115.85 L529.07 1115.25 L527.63 1115.28 L523.45 1116.52 L518.94 1115.53 L514.46 1112.38 L511.34 1109.57 L509.99 1108.36 L506.44 1105.17 L501.42 1100.66 L495.67 1095.49 L489.91 1090.32 L484.89 1085.81 L481.33 1082.62 L479.99 1081.41 L478.45 1078.25 L478.08 1076.51 L479.44 1073.78 L479.36 1072.02 L478.8 1070.21 L478.02 1068.74 L477.27 1067.95 L476.43 1067.27 L475.74 1066.51 L475.46 1065.49 L475.96 1062.47 L475.67 1060.84 L474.97 1059.25 L473.4 1056.66 L472.69 1055.06 L472.4 1053.61 L472.4 1050.33 L472.19 1048.73 L465.86 1031.92 L464.54 1029.42 L464.35 1028.62 L464.04 1028.05 L462.66 1027.1 L462.08 1026.15 L461.54 1025.55 L461.01 1024.79 L460.83 1023.87 L462.02 1022.34 L462.34 1021.81 L462.59 1020.51 L462.34 1016.52 L461.87 1015.33 L460.76 1014.74 L459.43 1014.33 L458.32 1013.71 L457.68 1012.73 L456.47 1009.59 L455.95 1007.31 L454.78 1004.5 L454.75 1003.14 L455.59 1002.16 L457.01 1000.82 L457.98 999.31 L457.51 997.83 L457.1 997.17 L457.08 995.77 L456.81 995.04 L456.23 994.48 L453.74 992.98 L451.15 992.14 L450.47 991.72 L449.07 990.32 L448.27 989.75 L447.46 989.5 L446.81 989.12 L446.38 988.24 L446.05 987.23 L445.69 986.48 L445.01 985.89 L443.38 985.01 L442.68 984.47 L442.2 983.7 L441.82 982.88 L441.29 982.22 L440.37 981.95 L440.07 981.67 L438.91 980.22 L438.66 979.62 L438.35 979.14 L436.77 978.37 L436.1 977.88 L435.79 977.32 L435.35 975.93 L435.04 975.32 L433.93 974.32 L432.57 973.91 L429.26 973.85 L428.38 973.16 L427.95 971.54 L427.54 968.22 L427.01 966.89 L425.96 965.24 L424.63 964.14 L423.22 964.49 L421.75 965.03 L419.93 964.66 L416.89 963.19 L416.09 962.29 L415.46 962.03 L414.05 962.74 L413.22 962.81 L411.61 962.73 L410.14 963.12 L409.4 964.01 L408.82 965.03 L407.73 965.89 L407.78 960.84 L409.01 958.78 L410.85 957.07 L414.01 954.14 L417.16 951.22 L420.31 948.3 L423.47 945.38 L426.62 942.45 L429.78 939.53 L432.93 936.6 L436.09 933.68 L437.48 932.4 L438.35 931.98 L439.96 931.66 L440.73 931.4 L441.63 930.71 L446.09 925.14 L447.99 922.06 L448.34 918.97 L445.9 916.43 L443.13 915.34 L442.05 914.59 L441.03 913.16 L436.06 900.2 L433.97 897.41 L431.19 896.11 L429.69 896.21 L428.32 896.46 L426.97 896.45 L425.55 895.73 L424.25 894.16 L423.73 892.44 L423.31 888.79 L422.62 886.97 L419.67 881.85 L419.33 880.27 L419.1 875.7 L418.45 873.94 L417.97 873.67 L417.97 873.63 L418.18 872.41 L417.7 871.04 L416.89 870.2 L416.26 867.81 L414.88 866.35 L413.49 865.21 L412.87 863.81 L412.53 861.49 L411.89 859.2 L411.49 856.75 L411.86 853.97 L413.18 851.55 L413.37 850.67 L413.13 849.71 L412.1 848.08 L411.86 847.12 L411.97 846.52 L412.39 845.5 L412.36 844.89 L412.07 844.46 L411.16 844.13 L410.86 843.84 L410.24 841.26 L409.71 840.28 L408.34 839.3 L408.34 839.8 L407.69 839.34 L407.06 838.75 L406.57 838.05 L406.33 837.23 L406.45 836.21 L406.87 835.72 L407.39 835.36 L407.79 834.76 L407.9 834.04 L407.79 831.69 L408.26 829.73 L408.49 825.63 L408.86 824.02 L409.6 822.83 L410.17 821.65 L410.34 818.39 L410.86 817.01 L410.48 816.32 L410.59 815.88 L410.83 815.39 L410.86 814.48 L410.67 813.98 L410 812.68 L409.85 812.19 L409.91 810.46 L410.41 807.62 L411.36 804.74 L411.49 803.34 L411.36 800.05 L411.52 799.67 L411.86 799.3 L412.21 798.79 L412.36 798.01 L412.09 797.5 L410.77 795.96 L410.31 795.25 L410.05 794.51 L409.89 793.79 L409.82 793.02 L409.85 792.18 L410.04 791.28 L410.71 789.53 L410.86 788.89 L410.77 787.14 L410.48 785.84 L410.01 784.73 L409.35 783.54 L408.64 780.7 L409.31 777.59 L411.13 774.67 L413.87 772.39 L414.22 772.33 L415.04 772.45 L415.38 772.39 L415.78 772.04 L416.49 771.19 L416.89 770.87 L419.06 770.04 L419.68 769.61 L421.04 768.13 L421.84 767.56 L422.72 767.33 L423.12 766.93 L423.94 764.26 L424.38 763.71 L424.89 763.23 L425.33 762.62 L425.53 761.73 L425.29 761.37 L424.19 760.29 L423.94 759.96 L423.81 758.5 L422.97 754.15 L422.97 750.76 L423.55 747.58 L424.73 744.64 L426.5 741.97 L430.89 737.82 L431.57 736.64 L435.04 732.83 L436.1 732.18 L438.76 731.04 L439.66 730.3 L439.95 729.03 L439.77 727.33 L439.21 725.84 L437.32 724.48 L434.6 720.2 L434.59 717.35 L434.91 716.33 L435.71 715.47 L437.17 714.37 L437.64 714.02 L437.56 714.01 L434.65 713.75 L432.61 712.2 L430.65 710.31 L428.5 708.96 L416.94 706.26 L411.8 705.82 L410.49 705.44 L409.85 705.46 L408.97 705.9 L407.61 707.31 L406.84 707.95 L406.01 708.09 L405.02 708.07 L404.17 708.3 L403.81 709.24 L403.67 709.99 L403.29 710.74 L402.71 711.31 L402.01 711.54 L401.3 711.67 L398.74 712.55 L395.72 713.01 L386.33 712.11 L383.11 712.55 L374.72 715.57 L371.99 715.59 L367.16 714.25 L365.64 714.07 L364.05 714.24 L358.63 715.85 L354.05 716.09 L353.24 716.47 L351.31 718.17 L350.32 718.62 L348.55 718.41 L345.49 716.98 L343.97 716.65 L342.31 716.47 L337.61 715.03 L336.05 714.77 L331.35 715.03 L329.76 714.71 L328 714.08 L326.34 713.69 L325.04 714.07 L322.27 712.83 L320.74 712.48 L318.96 712.55 L317.55 713.17 L315.47 715.16 L313.89 716.1 L309.53 720.34 L305.33 722.71 L303.68 721.47 L300.53 717.85 L299.05 717.1 L297.08 717.45 L293.54 719.1 L291.71 719.63 L291.64 719.63 L290.78 719.63 L288.65 716.93 L283.06 709.85 L277.47 702.77 L271.88 695.69 L266.3 688.61 L260.71 681.53 L255.12 674.44 L249.53 667.36 L243.95 660.27 L242.68 658.67 L240.28 656.58 L238.18 656.07 L235.43 656.21 L232.76 656.88 L228.61 659.23 L226.3 659.13 L218.64 655.45 L217.55 655.06 L217.32 654.86 L216.87 654.19 L216.53 653.98 L215.82 653.93 L214.14 654.15 L213.35 654.14 L212.18 653.83 L211.43 653.39 L207.7 648.66 L207.18 648.18 L205.99 648.39 L203.91 649.05 L202.71 649.09 L200.21 648.52 L199.52 648.26 L198.48 647.37 L197.99 647.13 L195.81 647.18 L191.38 648.23 L188.17 648.47 L185.36 649.41 L183.83 649.46 L183.25 649.86 L182.91 650.59 L182.12 651.62 L178.99 653.85 L175.31 655.22 L171.31 655.69 L166.12 655.13 L165.43 655.57 L164.82 656.25 L163.88 656.91 L162.58 657.32 L161.86 657.12 L161.29 656.63 L160.43 656.22 L156.83 656.13 L155.84 655.71 L155.46 654.95 L155.4 654.01 L155.25 653.15 L154.59 652.63 L153.47 652.51 L150.4 653.1 L149.18 653.01 L146.8 652.36 L145.65 652.25 L144.5 652.49 L142.56 653.38 L141.68 653.62 L140.22 652.4 L138.57 651.98 L137.24 652.33 L137.16 652.45 L137.18 652.54 L135.72 652.45 L135.67 652.38 L135.54 652.18 L135.36 651.78 L135 651.49 L134.36 651.63 L133.37 652.2 L132.84 652.37 L132.33 652.31 L131.46 651.71 L131.04 651.11 L130.44 650.68 L127.94 650.59 L127 650.72 L126.52 651.26 L126.81 652.49 L124.72 651.95 L122.98 652.07 L121.23 652.37 L119.12 652.4 L119.31 653.72 L118.85 653.99 L118.05 653.83 L117.24 653.86 L116.31 654.46 L115.59 655.07 L114.8 655.55 L113.66 655.74 L111.24 655.54 L105.12 654.11 L102.93 653.59 L102.92 653.58 L102.08 653.13 L100.36 651.66 L99.37 651.06 L97.35 650.15 L96.51 649.6 L95.24 648.11 L91.18 640.25 L90.38 638.16 L89.84 636 L89.64 633.79 L89.69 633.15 L90.39 630.13 L90.22 629.74 L89.83 629.5 L87.28 626.19 L84.82 625.49 L78.77 625.59 L75.16 624.92 L73.32 624.29 L71.93 623.82 L69.23 621.86 L67.21 618.57 L66.97 616.82 L67.42 615.29 L68.05 613.8 L68.34 612.16 L68.09 610.74 L67.09 607.84 L66.87 606.32 L67.55 598.53 L69.02 593.99 L69.2 592.68 L69 589.46 L68.69 588.17 L68.17 587.34 L66.63 585.55 L66.29 584.9 L66.54 584.03 L67.21 583.56 L68.04 583.25 L68.83 582.86 L69.92 581.95 L70.79 580.95 L71.4 579.78 L71.75 578.33 L72.49 576.99 L73.87 576.81 L75.42 577.07 L76.69 577.08 L77.88 575.38 L77.74 572.52 L76.16 567.44 L73.71 562.81 L73.31 561.15 L73.39 559.95 L74.05 557.51 L74.19 556.3 L73.98 555.05 L73.49 553.8 L72.77 552.68 L71.9 551.79 L71.86 551.77 L71.17 551.39 L70.48 551.21 L69.73 550.92 L68.86 550.19 L67.12 548.29 L65.68 546.72 L64.23 545.15 L62.78 543.58 L61.33 542.01 L59.89 540.44 L58.44 538.86 L57 537.29 L55.55 535.72 L54.19 534.25 L52.72 531.74 L51.94 528.75 L51.1 525.49 L50.25 522.24 L49.4 518.98 L48.55 515.73 L47.7 512.47 L46.86 509.22 L46.01 505.96 L45.16 502.71 L44.79 501.3 L43.54 499.84 L44.61 498.13 L44.21 497.27 L42.98 496.54 L41.58 495.2 L41.03 495.8 L40.49 495.79 L39.84 495.57 L39 495.54 L38.09 495.81 L37.51 496.12 L34.99 497.79 L33.5 498.37 L32.1 498.01 L30.79 496.19 L30.38 494.57 L30.58 491.43 L30.28 489.61 L30.08 489.28 L29.39 488.58 L29.14 488.21 L29.15 487.93 L29.44 487.27 L29.47 486.99 L28.55 484.29 L28.1 483.73 L26.41 483.79 L23.21 486.8 L21.54 487.74 L19.65 488.27 L18.36 489.13 L15.84 491.52 L13.18 492.83 L10.11 493.26 L2.03 493.46 L0.98 493.48 L0 492.88 L0.02 491.26 L0.89 489.81 L3.61 487.92 L4.92 486.67 L5.85 485.16 L8.38 478.77 L14.27 470.04 L15.67 466.73 L16.75 465.74 L19.71 463.88 L20.88 462.62 L21.66 461.25 L23.52 456.19 L27.57 449.88 L29.88 445.13 L30.46 443.19 L30.17 441.81 L29.52 440.43 L29.04 438.5 L29.09 436.97 L29.71 434.04 L29.72 431.12 L33.56 417.97 L35.04 401.57 L34.98 400.11 L35.06 399.03 L35.08 398.68 L35.62 397.21 L36.77 395.68 L37.99 394.43 L39.02 393.05 L40.38 389.11 L44.91 383.81 L46.9 380.55 L50.46 370.32 L52.17 366.99 L54.1 364.78 L57.31 362.52 L58.68 361.19 L60.01 359.36 L62.55 353.08 L63.14 352.23 L64.54 350.72 L65.09 349.93 L65.3 349.2 L65.36 347.77 L65.69 347.1 L67.01 346.22 L68.59 345.97 L71.76 345.83 L75.85 344.3 L77.33 343.99 L78.77 344.15 L81.51 344.87 L82.8 344.54 L83.57 343.57 L85.77 339.45 L87.97 335.34 L90.17 331.22 L92.36 327.1 L94.56 322.99 L96.76 318.87 L98.95 314.75 L101.15 310.63 L101.89 309.24 L103.17 307.4 L104.6 306.43 L106.51 305.94 L110.82 304.81 L115.14 303.68 L119.46 302.55 L123.77 301.42 L128.09 300.29 L132.41 299.17 L136.72 298.04 L141.04 296.91 L143.03 296.39 L145.96 295.12 L148.48 292.95 L149.79 292.22 L152.01 292.28 L151.04 294.13 L150.81 295.48 L151.38 296.86 L149.35 297.08 L148.77 297.32 L148.48 297.88 L148.45 298.58 L148.28 299.17 L147.57 299.42 L145.94 299.72 L141.73 301.94 L138.78 302.83 L126.46 304.72 L112.65 308.97 L109.79 309.49 L107.99 310.13 L106.34 310.96 L105.38 311.75 L104.59 314.49 L104.68 317.75 L106.94 327.57 L113.01 339.87 L117.5 346.26 L119.43 348.18 L128.04 353.07 L129.15 353.98 L129.99 355.04 L130.12 356.09 L129.55 356.29 L126.1 357.06 L126.39 355.89 L125.88 354.91 L124.78 354.24 L122.79 353.85 L122.01 353.58 L121.32 353.46 L121.02 353.73 L120.83 354.08 L120.4 354.47 L119.52 355.02 L120.16 355.88 L122.83 358.35 L123.42 359.33 L123.39 360.24 L123.14 361.18 L123.08 362.23 L123.8 365.27 L125.05 368.38 L126.48 370.99 L128.26 373.35 L130.59 375.4 L133.69 377.08 L132.93 378.75 L132.31 381.69 L131.17 383.32 L131.55 383.9 L131.67 384.68 L131.54 385.53 L131.17 386.34 L131.53 387.52 L130.95 389.06 L130.1 390.73 L129.66 392.27 L129.76 396.38 L129.88 396.82 L129.76 397.1 L129.16 397.69 L128.65 397.97 L126.65 398.67 L125 400.44 L124.82 400.75 L123.62 401.06 L122.38 401.78 L120.56 403.31 L118.75 405.5 L114.48 413.54 L110.46 418.95 L110.01 420.66 L108.89 421.43 L105.93 422.27 L104.75 423.17 L103.76 424.48 L103.08 426.03 L102.44 429.19 L100.74 432.17 L99.26 436.35 L94.41 441.84 L93.31 444.09 L93.54 445.12 L94.93 448.07 L95.83 449.43 L100.86 454.57 L102.55 456.89 L106.39 465.38 L105.06 464.63 L104.45 463.24 L104.05 461.63 L103.37 460.23 L102.83 460.69 L103.06 460.99 L103.18 461.22 L103.37 461.76 L102.7 461.9 L102.4 462.09 L102.21 462.38 L101.86 462.78 L102.95 463.28 L104.1 464.28 L105.02 465.6 L105.38 467.11 L104.87 468.58 L103.67 468.64 L102.33 467.87 L101.36 466.86 L101.05 468.24 L101.67 469.69 L102.83 471.5 L103.96 470.68 L105.62 469.17 L107.16 468.44 L107.9 469.92 L108.45 469.92 L108.45 468.44 L109.21 468.95 L111.19 471.22 L111.95 471.72 L112.66 471.92 L113.32 472.2 L113.94 472.98 L111.7 472.54 L109.79 473.34 L108.82 474.98 L109.45 477.06 L110.23 474.51 L110.46 474 L114.73 474 L116.6 475.14 L118.33 477.28 L120.09 478.55 L122.03 477.06 L121.76 478.3 L121.57 478.64 L122.34 479.25 L122.51 479.79 L122.07 480.14 L121.02 480.16 L121.02 480.67 L121.93 481.53 L122.03 482.82 L121.63 484.18 L121.02 485.26 L120.29 484.62 L118.82 485.71 L115.99 488.36 L116.69 488.94 L117.49 488.32 L118.31 487.84 L119.01 488.87 L119.58 488.6 L120 488.32 L120.31 487.94 L120.56 487.34 L121.28 488.04 L121.05 488.82 L120.94 489.63 L122.03 490.4 L120.65 490.53 L120.76 491.54 L122.03 493.46 L120.29 495.4 L120.02 496.01 L120.24 496.81 L120.78 497.14 L121.32 497.34 L121.57 497.79 L122.01 497.83 L122.91 498.29 L123.58 498.81 L123.33 499.06 L123.22 499.36 L123.94 500.04 L125.59 501.15 L128.56 502.07 L131.78 502.61 L135.06 502.67 L138.22 502.11 L148.78 498.81 L155.99 495.69 L158.38 494.15 L159.89 492.39 L160.93 488.45 L162.33 487.38 L164.21 484.97 L164.96 484.24 L165.6 484.04 L167.52 483.78 L168.05 483.51 L168.55 483.17 L169.09 482.88 L169.76 482.76 L170.77 482.37 L171.54 481.39 L171.97 480.06 L172 478.64 L170.73 474.5 L170.3 468.26 L170.03 466.86 L169.64 465.9 L169.45 465.16 L169.49 464.31 L169.82 463.71 L171.27 461.76 L171.25 460.83 L172.55 455.54 L172.55 452.02 L173.03 451.53 L173.37 451.06 L173.55 450.49 L173.51 450.21 L173.05 448.96 L172.12 447.79 L170.84 446.57 L169.79 445.14 L169.49 443.3 L170.26 443.19 L170.77 442.92 L170.99 442.28 L170.8 441.71 L169.49 440.23 L168.15 438.16 L164.17 433.25 L162.59 432.18 L160.89 432.53 L159.3 425.84 L158.04 422.51 L156.41 419.71 L153.6 416.83 L151.94 415.61 L149.33 414.62 L148.65 413.4 L147.82 410.47 L147.17 409.48 L145.61 407.62 L145.01 405.4 L144.3 404.17 L142.74 402.29 L141.92 401.5 L141.56 401.01 L141.23 400.24 L141.14 399.53 L141.6 398.33 L142.05 394.47 L141.79 393.49 L140.68 392.52 L137.35 390.3 L136.24 388.79 L136.2 386.9 L136.55 386.31 L139.1 384.14 L139.3 384.06 L138.96 383.87 L136.88 380.42 L136.7 379.69 L136.81 378.68 L137.24 376.72 L137.25 375.59 L137 374.71 L136.51 374.13 L135.2 372.99 L134.41 371.75 L133.92 371.22 L133.18 370.94 L133.18 370.47 L138.57 370.22 L140.92 370.46 L143.29 371.45 L144.07 369.75 L143.74 368.25 L143.03 366.94 L142.74 365.77 L143.25 364.65 L145.05 363.46 L145.75 362.23 L143.86 362.26 L143.16 362.14 L142.28 361.72 L141.55 361.11 L140.15 359.63 L139.22 359.16 L142.38 358.04 L145.31 357.66 L151.38 357.62 L154.48 357.16 L155.36 356.8 L163.18 353.6 L166.47 351.66 L167.13 351.03 L171.54 349.38 L185.73 341.43 L197.26 338.37 L199.29 337.54 L200.88 338.24 L203.41 338.21 L211.94 337.16 L213.26 336.35 L214.43 334.46 L213.72 334.74 L213.12 335.19 L212.68 335.79 L212.42 336.52 L212.19 334.66 L213.97 334.01 L217.83 334.57 L220.26 333.87 L225.91 331.17 L228.59 329.35 L230.01 329.41 L232.78 329.76 L236.54 327.9 L238.09 326.02 L239.1 323.95 L239.16 322.57 L239.04 322.04 L238.51 321.55 L237.69 321.4 L238.42 320.87 L239.39 320.97 L240.46 321.46 L241.03 322.39 L241.75 323.22 L242.48 323.91 L243.31 323.57 L243.69 322.83 L243.98 321.82 L244.66 321.85 L245.49 322.31 L246.21 322.57 L246.77 323.05 L247.11 323.05 L247.26 322.34 L247.25 321.62 L247.16 321.12 L246.84 320.79 L246.21 320.57 L246.29 320.23 L246.38 320 L246.75 319.49 L245.68 319.12 L245.83 318.12 L242.67 317.05 L240.97 316.93 L240.73 316.71 L241.06 316.28 L241.6 316.3 L242.7 316.27 L242.09 315.68 L241.24 315.36 L240.25 315.05 L239.37 314.55 L237.89 313.46 L240.76 314.17 L242.78 315.31 L244.77 316.36 L246.08 317.02 L246.7 317.2 L248 317.55 L249.22 317.44 L250.51 317.79 L251.59 318.39 L252.98 317.81 L253.78 317.12 L255.26 317.63 L255.64 318.82 L256.23 319.12 L257.23 318.93 L257.71 320.22 L258.89 320.92 L260.37 321.72 L261.24 323.4 L263.49 324.2 L264.91 323.37 L265.33 322.29 L267.48 321.01 L268.42 320.05 L268.68 318.36 L267.13 315.78 L267.42 314.32 L266.8 313.45 L265.62 309.91 L265.17 307.68 L263.35 304.05 L262.9 304.05 L262.69 305.43 L262.1 305.28 L261.41 304.51 L260.88 304.05 L259.92 304.29 L259.3 304.82 L258.9 305.34 L258.62 305.58 L255.12 306.7 L253.48 306.83 L253.84 305.58 L250.87 306.94 L250.02 307.13 L247.83 307.2 L246.74 307.43 L245.98 307.92 L244.36 308.69 L239.61 309.14 L236.06 310.89 L234.2 310.41 L232.86 309 L232.62 307.13 L232.9 306.62 L233.79 305.63 L234.09 305.07 L234.15 304.53 L234 304.18 L233.79 303.88 L233.63 303.49 L233.63 301.48 L233.49 301.35 L232.82 300.41 L232.62 299.93 L233.06 300.2 L234.2 300.71 L234.64 300.96 L234.63 298.87 L234.48 297.98 L234.09 297.32 L233.3 296.92 L232.93 297.46 L232.63 298.32 L232.08 298.91 L231.73 297.6 L230.11 294.8 L229.75 294.33 L229.43 294.11 L229.2 293.78 L229.05 292.2 L228.84 291.73 L228.36 291.56 L227.55 291.67 L227.94 290.64 L228.51 287.87 L228.6 286.76 L228.91 285.54 L230.26 283.13 L230.57 281.62 L231.04 280.48 L233.31 277.84 L234.09 276.71 L234.33 275.45 L234.23 273.25 L234.64 272.55 L237.86 272.47 L239.17 272.1 L240.44 271.29 L245.04 267.32 L246.75 266.38 L248.49 266 L249.54 266.41 L250.51 267.07 L253.91 267.84 L255.3 268.97 L261.93 279.85 L262.9 282.89 L263.3 286.08 L263.36 292.56 L263.9 295.77 L268.42 308.66 L271.87 315.59 L274.41 318.78 L277.52 321.03 L280.1 321.39 L281.96 320.23 L283.88 318.71 L286.62 317.95 L292.85 318.94 L295.71 319.06 L298.74 317.95 L300.8 316.61 L302.03 316.1 L303.54 315.9 L304.29 316.14 L305.79 317.2 L306.56 317.44 L309.06 317.33 L309.8 317.44 L314.55 319.37 L315.43 319.26 L315.84 320.05 L316.82 320.92 L317.98 321.66 L318.9 322.1 L321.99 322.65 L333.54 322.15 L334.92 322.56 L336.06 323.44 L338.49 326.08 L339.94 327.16 L341.55 328.07 L344.06 329 L345.24 329.28 L346.26 329.36 L346.7 329.01 L347.09 329.26 L348.82 330.04 L349.21 330.59 L349.98 331.97 L351.8 333.38 L357.31 336.26 L358.97 337.44 L360.29 338.72 L360.83 339.82 L361.51 340.63 L366.36 342.72 L366.72 341.98 L366.84 341.65 L366.86 341.13 L367.41 341.13 L367.63 341.59 L368.37 342.72 L368.37 343.18 L367.81 344.6 L368.49 346.54 L371.36 350.77 L375.89 359.67 L376.61 361.75 L375.96 362.7 L375.41 362.38 L374.65 361.66 L373.67 360.97 L372.44 360.69 L371.5 360.89 L370.64 361.29 L369.9 361.77 L369.38 362.23 L371.83 362.89 L377.77 363.43 L379.53 364.79 L378.72 366.22 L377.51 366.81 L374.18 366.84 L373.07 367.47 L372.67 368.95 L372.71 370.65 L373.67 375.28 L375.97 381.82 L376.96 383.59 L378.58 386.52 L379.27 387.77 L381.68 390.86 L384.52 393.37 L387.58 394.57 L396.65 394.52 L397.95 394.8 L399.69 395.59 L401.45 396.16 L402.69 395.92 L403.75 395.38 L405.02 395.09 L405.92 395.15 L406.46 395.41 L406.71 395.96 L406.76 396.55 L406.78 396.87 L407.04 397.23 L407.6 396.7 L408.12 395.94 L408.29 395.59 L410.54 394.58 L413.51 393.95 L423.27 393.2 L429.52 391.53 L435.56 391.1 L441.93 390.42 L446.76 389.91 L452.85 390.16 L458.26 389.46 L462.46 387.24 L465.33 386.65 L468.23 385.56 L469.87 385.32 L479.19 385.44 L487.24 384.73 L504.55 383.71 L512.93 383.85 L513.77 384.06 L514.62 384.6 L518.63 385.32 L519.84 385.32 L520.76 384.63 L521.65 383.6 L522.7 382.66 L524.12 382.25 L525.9 382.52 L530.41 384.85 L535.27 386.01 L536.76 387.33 L540.18 387.73 L541.02 387.92 L540.48 388.98 L538.84 389.99 L536.9 390.6 L535.48 390.43 L535.54 391.31 L535.44 393.13 L535.73 393.8 L538 396.15 L543.57 400.5 L544.13 401.22 L546.59 402.73 L547.92 404.76 L553.13 407.91 L552.08 407.95 L551.06 407.76 L550.2 407.39 L549.61 406.89 L549.04 407.36 L548.56 407.91 L550.12 409.96 L552.04 409.53 L553.92 410.66 L557.15 413.54 L559.02 414.2 L561.02 414.51 L565.24 414.61 L563.06 413.18 L555.69 410.02 L554.13 407.91 L575.35 417.2 L584.29 419.91 L586.74 420.35 L595.26 421.89 L605.62 423.8 L608.64 425.38 L611.37 426.08 L612.2 426.4 L612.2 426.92 L606.63 425.1 L605.17 424.82 L605.81 425.89 L607.14 426.71 L608.68 427.24 L611.92 427.53 L612.7 427.42 L613.4 427.18 L614.64 426.53 L616.87 426.06 L619.51 424.4 L620.8 423.8 L622.26 423.61 L626.33 424.36 L631.79 424.71 L634.56 424.32 L636.66 423.08 L637.48 422.02 L638.1 420.9 L638.95 418.18 L638.98 417.02 L638.6 415.07 L638.95 414.05 L639.53 414.7 L640.26 415.08 L641.08 415.21 L641.97 415.12 L641.42 415.84 L641.12 416.01 L640.46 416.14 L641.3 417.16 L642.59 417.06 L643.33 416.36 L642.52 415.58 L643.37 414.98 L645.26 412.51 L646.34 412.34 L648.43 411.6 L649.6 411.5 L649.41 412.01 L649.29 412.22 L649.05 412.51 L649.46 412.39 L650.15 412.27 L650.56 412.05 L651.09 412.95 L651.52 412.83 L651.99 412.33 L652.28 412.2 L652.62 412.05 L653.39 412.24 L655.01 412.95 L655.63 413.07 L657.27 412.48 L659.35 410.41 L661.67 409.8 L663.02 409.1 L663.45 408.94 L664.02 408.57 L664.02 407.86 L663.61 407.36 L661.6 408.28 L659.89 408.18 L658.26 407.62 L657.14 406.89 L657.64 406.17 L658.4 406.28 L659.28 406.69 L660.16 406.89 L661.08 406.63 L662.65 405.67 L663.73 405.36 L663.52 404.4 L663.55 404.02 L663.73 403.31 L662.13 403.31 L662.13 402.75 L663.69 402.17 L664.43 402.47 L664.67 403.38 L664.7 404.59 L664.91 405.76 L665.44 405.73 L666.12 404.95 L666.75 403.82 L666.78 401.84 L669.73 400.66 L673.56 399.65 L676.26 398.2 L676.88 396.99 L677.2 396 L677.88 395.33 L679.57 395.09 L681.2 395.14 L682.36 395.33 L683.33 395.66 L686.58 397.2 L687.95 397.55 L689.67 397.69 L691.41 397.55 L695.97 396.62 L697.43 396.69 L700.31 397.49 L701.81 397.69 L705 397.58 L715.09 395.17 L717.18 394.06 L715.48 393.88 L713.6 394 L711.68 393.84 L709.89 392.78 L708.58 391.77 L704.8 389.95 L703.05 389.46 L699.16 389.37 L697.39 389.13 L695.71 388.15 L694.22 387.55 L692.25 387.6 L688.42 388.39 L688.78 388.02 L689.42 386.9 L688.36 386.94 L687.59 387.4 L686.99 387.98 L686.41 388.39 L685.42 388.62 L680.31 388.2 L679.32 388.39 L677.07 389.74 L676.53 389.97 L675.9 390.37 L675.25 392.12 L674.54 392.52 L673.42 392.12 L672.9 391.15 L672.77 390.05 L672.78 389.2 L672.12 387.73 L670.81 386.17 L669.84 384.67 L670.22 383.32 L671 382.89 L671.53 382.37 L671.81 381.67 L671.83 380.71 L672.28 380.71 L673 382.04 L674.03 382.71 L677.31 383.32 L678.22 383.65 L680.19 384.65 L681.11 384.85 L682.1 384.68 L686.43 382.57 L687.16 382.33 L688.17 382.25 L688.62 382.4 L688.87 382.73 L689.08 383.08 L689.42 383.32 L696.39 383.24 L698.02 383.83 L699.11 383.29 L701.96 382.69 L703.05 382.25 L703.79 381.49 L704.41 380.4 L704.85 379.08 L705.06 377.64 L705.61 377.64 L706.53 379.33 L707.93 380.47 L709.67 381.24 L717.32 383.07 L724.67 383.97 L726.27 383.83 L729.32 381.84 L731.09 381.09 L732.35 381.78 L732.86 381.78 L733.1 380.81 L733.76 380.72 L734.67 381.02 L735.61 381.22 L736.01 380.91 L736.45 379.35 L736.88 378.71 L737.37 379.23 L737.86 379.5 L738.37 379.49 L738.9 379.18 L739.36 379.69 L738.9 380.15 L740.4 380.71 L741.01 379.76 L742.03 379.85 L743.23 380.36 L744.43 380.71 L744.47 380.43 L744.81 379.89 L745.42 379.57 L746.23 379.92 L746.92 380.12 L747.69 379.78 L752.81 376.29 L753.53 376.06 L753.75 376.44 L753.97 377.15 L754.42 377.84 L755.31 378.16 L756.16 378.15 L756.87 378.05 L757.51 377.74 L758.1 377.08 L759.35 377.5 L764.38 377.08 L766.04 377.33 L768.99 378.41 L770.72 378.71 L772.48 378.5 L775.49 377.35 L778.12 376.92 L786.08 374.17 L787.11 374.01 L788.78 374.92 L789.63 375.08 L790.53 375.15 L792.09 375.47 L799.2 375.59 L809.85 377.5 L815.61 378.31 L818.92 378.75 L824.21 378.91 L826.51 379.67 L827.73 379.69 L828.64 379.28 L830.61 377.94 L831.55 377.64 L836.42 377.61 L838.57 377.17 L840.39 376.06 L841.21 376.93 L843.2 376.28 L843.87 377.08 L845.08 376.33 L847.03 375.63 L849.05 375.3 L850.45 375.59 L849.26 376.15 L848.16 376.96 L847.57 378.11 L847.9 379.69 L847.44 380.15 L846.63 379.38 L845.95 379.86 L845.07 380.75 L843.64 381.22 L843.37 381.36 L842.44 382.02 L841.86 382.25 L840.98 382.28 L840.27 382.15 L839.6 382.2 L838.8 382.81 L834.16 383.3 L832.54 383.81 L826.24 382.99 L821.42 383.32 L820.48 383.73 L819.59 384.71 L815.99 390.07 L814.42 391.39 L812.87 391.23 L811.16 390.27 L809.75 390.34 L808.31 390.78 L806.56 390.99 L805.72 390.82 L804.3 390.17 L803.5 389.97 L802.81 389.99 L801.57 390.34 L800.71 390.43 L799.18 390.26 L794.4 388.95 L790.3 388.63 L773.1 390.84 L771.08 391.34 L770.21 392.27 L769.45 393.47 L767.72 394.88 L765.84 396.07 L764.63 396.62 L764.63 397.13 L766.88 396.21 L770.95 392.77 L773.23 391.46 L775.96 391.29 L777.13 392.77 L777.36 394.95 L777.3 396.87 L777.75 399.21 L777.87 400.63 L777.53 401.27 L776.92 401.36 L775.78 401.74 L775.29 401.78 L774.66 401.48 L773.55 400.47 L772.96 400.24 L768.08 400 L765.79 400.55 L765.14 402.29 L765.64 401.92 L767.2 401.27 L767.6 403.09 L767.97 403.83 L768.66 404.33 L767.8 404.85 L766.63 406.35 L765.64 406.89 L767.01 407.81 L766.85 408.61 L765.96 409.45 L765.14 410.47 L769.42 410.27 L770.47 409.71 L770.8 408.38 L769.29 405.43 L769.67 403.82 L768.84 403.27 L768.59 402.36 L768.88 401.4 L769.67 400.75 L770.98 400.72 L772.22 401.36 L774.29 403.31 L775.01 402.76 L775.72 402.58 L776.47 402.5 L777.3 402.29 L779.58 400.96 L780.04 400.75 L781.32 400.97 L782.78 401.49 L784.07 402.14 L784.85 402.75 L785.09 403.34 L785.15 404.66 L785.39 405.36 L785.89 405.96 L787.61 407.12 L788.64 408.13 L789.37 409.13 L789.79 410.36 L789.88 412.05 L789.37 414.26 L789.37 415.12 L790.23 416.82 L790.38 417.44 L790.62 417.68 L791.16 417.9 L791.69 418.27 L792.09 419.56 L792.78 420.88 L792.94 421.29 L792.63 422.51 L791.81 423.85 L790.73 424.93 L789.63 425.38 L788.79 425.46 L787.35 425.81 L786.6 425.89 L785.65 425.75 L785.11 425.43 L784.75 425.08 L784.34 424.82 L783.14 424.58 L781.82 424.61 L780.75 425.08 L780.32 426.15 L780.15 426.81 L779.73 427.38 L779.14 427.78 L778.49 427.93 L778.12 427.64 L777.75 426.18 L777.53 425.64 L776.38 425.07 L774.35 426.13 L773.23 425.89 L773.06 425.34 L773.19 424.59 L773.21 423.85 L772.69 423.34 L771.97 423.34 L771.28 423.7 L770.67 424.25 L770.21 424.82 L769.96 424.04 L769.51 423.5 L768.9 423.11 L768.16 422.83 L767.01 423.74 L766.22 423.88 L764.13 423.34 L764.47 423.79 L764.69 424.11 L765.74 425.18 L766.74 425.91 L767.2 425.64 L767.51 424.93 L768.21 424.49 L768.89 424.49 L769.21 425.1 L769.52 428.86 L770.14 430.46 L771.27 430.48 L770.4 429.39 L770.56 428.48 L770.87 427.62 L770.47 426.66 L770.46 426.22 L770.72 425.5 L771.16 424.9 L771.72 424.82 L772.07 425.3 L771.7 426.5 L771.97 427.17 L773.12 427.79 L774.14 427.53 L775.15 427.03 L776.25 426.92 L777.18 427.43 L777.89 428.18 L778.79 428.79 L780.32 428.91 L779.44 430.8 L780.08 431.38 L781.22 430.93 L781.83 429.7 L781.1 427.23 L781.27 425.86 L782.79 425.38 L783.28 425.69 L784.61 427.02 L785.39 427.42 L786.3 427.46 L790.21 426.53 L791.99 425.54 L793.53 424.23 L794.4 422.83 L794.46 421.11 L793.26 417.93 L792.94 416.39 L793.46 414.29 L794.74 413.8 L796.37 414.29 L797.97 415.12 L800.97 417.3 L802.63 419.72 L804.5 425.89 L805.15 427.2 L805.94 428.32 L806.54 429.5 L806.56 431 L807.46 432.51 L807.7 433.51 L807.37 434.53 L806.56 436.11 L807.9 436.14 L808.97 436.76 L809.85 437.7 L811.28 439.7 L815.2 447.11 L815.62 448.4 L815.52 449.65 L815.15 450.78 L815.01 451.88 L815.13 452.1 L815.62 453.04 L817.67 451.02 L819.17 448.53 L821.19 442.83 L821.34 440.43 L820.11 435.73 L820.14 433 L821.46 434.01 L822.74 435.69 L825.47 440.97 L825.93 442.59 L826.14 453.14 L825.27 456.3 L823.2 458.15 L825.7 457.33 L827.13 454.83 L827.73 451.56 L827.27 442.28 L826.83 440.54 L825.26 437.68 L824.72 436.11 L829.01 436.62 L830.29 436.95 L830.81 437.78 L831.12 438.82 L831.8 439.77 L832.58 440.11 L834.93 440.65 L836.37 440.78 L836.98 440.75 L837.08 440.47 L836.33 439.77 L835.69 439.46 L833.48 438.83 L832.54 438.7 L832.44 438.31 L830.29 436.11 L829.1 435.52 L828.14 435.22 L823.74 435.12 L822.78 434.68 L821.65 433.55 L822.65 432.05 L823.12 430.79 L823.88 430.01 L824.62 429.61 L830.93 431.25 L834.58 432.73 L837.22 434.27 L844.62 440.08 L845.95 441.25 L848.17 444.26 L850.29 445.75 L851.51 446.64 L851.56 447.64 L851.75 448.2 L852.74 449.19 L853.06 449.91 L852.95 450.67 L852.18 452.88 L850.75 455.61 L850.45 457.17 L850.96 457.17 L852.97 453.04 L854.02 448.96 L855.29 449.08 L856.37 450.62 L857.27 452.48 L858 453.55 L857.61 455 L858 461.25 L858.67 459.74 L858.96 458.08 L859.01 454.83 L858.91 453.95 L858.63 453.28 L858.24 452.75 L857.77 452.25 L857.27 451.45 L856.92 449.75 L856.54 448.96 L856.04 448.66 L854.6 448.31 L854.02 447.94 L853.93 447.46 L852.71 445.84 L852.23 445.07 L852.07 444.48 L851.75 444 L852.42 443.82 L854.55 443.74 L857.35 444.3 L863.07 446.13 L863.94 446.23 L869.11 447.38 L870.49 446.44 L870.17 445.38 L869.21 444.36 L868.41 443.29 L867.88 443.08 L867.34 442.73 L866.1 441.94 L866 441.36 L865.83 440.78 L864.77 440.53 L863.78 439.68 L863.33 438.82 L863.74 438.55 L865.85 438.65 L866.57 438.97 L867.7 439.51 L869.81 440.64 L872.78 442.53 L875.2 444.11 L877.71 445.91 L878.79 447.25 L881.65 450.8 L881.29 448.74 L879.51 446.45 L879.01 445.1 L876.82 444.29 L875.7 443.08 L875.96 442.9 L877.04 443.8 L878.07 444.02 L879.46 444.16 L880.4 444.66 L881.17 445.51 L883.13 447.71 L884.34 448.92 L885.5 449.96 L886.62 451.17 L887.87 452.6 L888.81 453.37 L890.24 454.53 L893.72 457.32 L895.33 458.58 L896.09 460.91 L897.58 462.67 L898.61 462.23 L897.41 460.69 L899.19 460.68 L903.17 463.04 L904.5 462.23 L904.98 462.46 L907.74 462.23 L908.83 462.38 L911.54 463.75 L914.45 464.74 L915.66 465.56 L916.06 466.86 L915.57 466.78 L915.34 466.55 L915.06 465.84 L914.92 468.31 L915.06 468.9 L915.61 469.39 L916.12 469.33 L916.68 469.07 L917.35 468.9 L918.59 469.17 L920.14 469.86 L921.67 470.77 L922.9 471.73 L923.54 472.45 L924.67 474.04 L925.77 475.13 L926 475.46 L926.13 475.83 L926.17 476.32 L926.36 476.49 L927.31 476.75 L927.68 477.06 L928.29 478.59 L928.68 480.5 L928.56 482.37 L927.68 483.78 L927.53 483.15 L927.34 482.81 L926.72 482.2 L926.33 483.27 L926.2 484.46 L925.87 485.42 L924.89 485.82 L923.76 486.05 L922.06 487.1 L921.37 487.34 L920.52 487.43 L919.61 487.65 L918.77 487.98 L918.12 488.36 L917.66 489.18 L917.32 489.64 L916.86 489.84 L916.77 489.93 L915.06 490.4 L910.97 494.33 L909.28 494.94 L907.84 495.9 L906.46 498.13 L904.5 502.67 L905.56 502.25 L906.53 501.34 L907.24 500.25 L907.51 499.32 L907.87 498.67 L913.93 493.28 L915.76 492.15 L916.06 493.46 L915.7 494.2 L914.58 495.33 L914.06 496.01 L913.84 496.66 L913.58 498.28 L913.3 498.83 L912.83 499.41 L912.62 500 L912.59 501.4 L912.27 502.13 L911.51 502.55 L910.66 502.82 L910.03 503.13 L907.46 505.93 L906.97 505.96 L906.7 506.63 L905.41 508.72 L904.96 509.85 L904.08 512.95 L903.95 514.15 L904.46 515.67 L904.5 516.42 L903.41 519.6 L899.49 525.46 L898.46 528.68 L898.12 532.25 L897.33 534.91 L895.57 536.38 L892.33 536.4 L888.04 535.02 L887.08 534.83 L874.22 535.83 L871 535.09 L868.15 533.31 L866.69 533.33 L865.23 533.6 L864.21 534.35 L864.08 535.85 L864.73 536.64 L868.65 538.9 L871.42 539.45 L872.1 539.68 L872.56 540.18 L872.89 540.71 L873.18 540.98 L873.96 541.01 L875.25 540.58 L875.95 540.47 L876.06 540.69 L876.91 541.67 L878.08 542.72 L878.56 542.94 L879.49 543.01 L879.86 543.24 L880.5 544.29 L880.77 544.58 L882.21 544.76 L885.06 544.08 L886.3 544.03 L887.04 544.57 L887.52 545.58 L887.89 546.71 L888.32 547.64 L889.1 548.38 L891 549.56 L891.83 550.69 L894.13 549.09 L895.07 548.09 L895.45 546.85 L895.93 545.97 L897.07 544.95 L898.4 544.05 L899.42 543.52 L901.04 543.16 L905.75 543.52 L909.18 542.9 L910.8 542.96 L910.99 544.03 L909.8 545.05 L907.01 545.53 L906.46 546.85 L906.38 548.47 L906.44 549.32 L906.71 549.9 L907.46 550.23 L907.63 549.54 L907.51 547.64 L907.85 546.29 L908.19 546.02 L909.02 545.55 L909.75 545.41 L910.57 545.45 L911.25 545.35 L911.54 544.82 L911.69 544.16 L912.05 543.4 L912.47 542.77 L913.31 542.12 L913.46 541.23 L913.55 539.45 L913.69 538.73 L913.7 538.2 L913.88 537.78 L914.55 537.37 L915.95 537.89 L917.39 537.65 L918.86 537.14 L926.16 536.31 L935.41 535.23 L936.78 536.13 L937.22 536.88 L938.24 537.73 L939.42 538.47 L940.3 538.9 L941.75 539.23 L946.33 539.45 L951.14 540.62 L952.42 540.47 L952.66 540.14 L953.46 538.43 L954.97 536.86 L956.68 533.91 L959.02 532.94 L971.84 533.81 L974.82 534.59 L977.65 535.85 L980.26 537.54 L981.68 538.18 Z M911.54 534.83 L911.95 534.98 L912.19 535.14 L912.48 535.29 L913.05 535.38 L913.3 537.32 L912.34 539.04 L910.71 539.82 L909.02 538.9 L908.92 539.91 L909.53 540.9 L909.69 541.65 L903.45 542.51 L895.6 541.84 L892.84 541.95 L893.64 540.29 L894.63 538.77 L895.99 537.7 L897.91 537.37 L899.48 537.84 L901.84 539.77 L903.45 540.47 L902.58 539.26 L902.44 539.18 L902.6 538.58 L902.95 538.16 L903.29 537.87 L903.45 537.63 L905.5 535.38 L906.37 535.07 L911.15 534.76 Z M918.63 503.64 L920.3 503.28 L921.93 503.68 L923.41 504.59 L924.66 505.73 L923.12 506.16 L922.65 506.19 L923.74 507.96 L922.7 510.15 L920.73 512.15 L917.65 514.42 L907.76 518.59 L906.01 519.01 L910.16 515.97 L911.52 514.69 L914.02 510.97 L914.87 508.5 L915.61 507.77 L916.52 507.17 L917.35 506.47 L917.64 505.7 L917.55 505.03 L917.67 504.37 Z M906.46 513.92 L905.64 513.18 L905.91 511.73 L906.59 510.02 L906.97 508.53 L907.65 507.35 L909.25 506.71 L911.12 506.28 L912.59 505.73 L913.92 504.35 L916.67 500.84 L917.85 500.13 L919.65 499.97 L923.65 498.6 L923.65 499.3 L923.58 499.95 L923.41 500.57 L923.15 501.15 L923.15 500.59 L922.58 501.91 L921.92 502.51 L920.91 502.68 L919.33 502.67 L918.13 503.02 L916.95 503.84 L910.76 509.59 L910.38 510.25 L909.92 511.74 L909.53 512.35 L907.07 513.74 Z M922.1 497.07 L920.88 498.41 L917.2 499.64 L915.61 500.59 L916.89 498.01 L917.01 495.58 L917.41 493.49 L919.58 491.93 L922.17 491.24 L923.56 491.29 L924.16 492.16 L923.99 493.61 L923.54 495.04 L922.89 496.37 L922.1 497.53 Z M926.17 490.4 L927.27 489.53 L928.92 488.7 L930.59 488.58 L931.75 489.84 L931.98 490.18 L932.38 490.94 L932.75 491.37 L931.96 491.73 L930.96 491.79 L929.73 491.65 L927.68 492.95 L927.11 494.04 L926.58 495.45 L925.73 496.64 L924.16 497.07 L924.77 495.17 L925.35 491.77 Z M693.5 370.47 L694.96 371.17 L697.05 371.85 L698.87 372.87 L699.53 374.57 L698.46 376 L696.52 376.14 L694.95 375.36 L695 374.01 L693.04 373.84 L692.03 373.53 L691.44 372.99 L691.37 372.04 L691.85 371.22 L692.63 370.66 Z M601.34 359.63 L601.91 359.59 L602.54 359.63 L602.77 359.92 L602.14 360.69 L603.23 362.3 L603.01 363.34 L601.84 364.08 L600.09 364.79 L600.38 364.05 L600.59 363.77 L599.05 364.31 L597.71 364.45 L594.78 364.33 L593.31 363.97 L591.95 363.28 L590.69 362.84 L589.52 363.26 L587.78 361.81 L588.5 360.03 L590.36 358.71 L592 358.6 L593.81 357.84 L595.55 357.93 L599.33 359.42 L600.08 359.56 Z M703.05 346 L703.29 347.54 L704.36 350.32 L704.6 351.66 L706.98 356.08 L707.41 358.13 L705.06 357.62 L705.1 358.12 L705.02 359.13 L705.06 359.63 L703.98 358.83 L703.34 358.58 L703.05 358.88 L702.82 359.35 L701.22 360.86 L699.28 364.79 L695.04 364.09 L693.5 364.33 L688.63 366.03 L687.37 366.84 L687.58 364.63 L686.3 364.35 L684.69 364.35 L683.2 361.52 L681.62 360.4 L679.9 359.47 L678.82 358.6 L676.82 360.33 L675.24 360.71 L669.85 360.11 L669.48 359.94 L669.18 359.75 L668.76 359.63 L666.87 359.69 L666.2 359.63 L663.11 358.71 L661.67 358.6 L663.49 354.67 L663.73 353.73 L663.9 352.14 L664.47 351.47 L665.54 351.34 L667.2 351.38 L668 351.23 L668.58 350.94 L669.51 350.12 L670.27 349.86 L671.78 350.39 L673.76 349.55 L675.56 349.29 L677.16 349.59 L677.86 350.64 L677.82 351.58 L677.9 352.69 L678.39 353.6 L680.9 354.39 L683.61 356.15 L685.15 356.55 L688.16 356.86 L689.41 356.46 L690.48 355.02 L690.61 354.23 L690.48 351.94 L690.93 351.27 L691.99 350.4 L692.44 349.89 L692.75 349.07 L692.71 348.49 L692.81 347.96 L693.5 347.28 L694.12 347.07 L695.82 346.98 L696.51 346.77 L697.59 345.83 L699.42 343.55 L700.54 342.72 L700.8 344.06 L701.68 344.78 L702.61 345.29 Z M499.64 297.32 L500.78 297.36 L501.15 297.32 L499.77 298.51 L497.17 298.95 L494.4 298.56 L492.55 297.32 L494.79 297.85 L496.5 297.54 L497.89 296.35 L499.14 294.24 L499.79 294.74 L500.15 295.54 L500.13 296.46 Z M534.71 294.24 L536.45 294.1 L536.86 294.6 L536.99 296.06 L536.05 297.56 L533.9 297.42 L531.59 296.26 L530.13 294.71 L531.22 294.3 L532.51 294.18 Z M647.04 288.59 L647.97 289.09 L650.31 290.92 L650.75 291.73 L651.1 293.04 L651.05 294.26 L650.31 294.8 L647.16 294.69 L645.41 294.39 L643.98 293.77 L644.19 293.17 L644.3 292.98 L644.25 292.79 L643.98 292.19 L644.95 291.43 L646.18 289.33 Z M489.2 297.73 L490.24 297.32 L490.78 297.28 L490.82 297.4 L487.34 298.85 L486.99 299.17 L484.9 299.72 L484.25 299.89 L483.47 300.09 L481.75 300.03 L481.49 299.71 L483.07 299.88 L484.18 299.73 L484.55 299.64 L484.81 299.59 Z M490.42 290.78 L491.7 290.73 L492.01 290.94 L490.15 291.13 L489.89 291.09 L488.92 291.35 L487.65 291.09 L486.96 291.09 L486.47 290.9 L484.2 290.7 L484.43 290.53 Z M422.31 282.13 L422.98 282.2 L423.82 282.49 L423.18 282.6 L421.73 282.35 L421.16 282.09 L421.07 281.77 L421.28 281.51 L421.64 281.61 L421.97 281.93 Z M420.66 279.1 L420.58 279.05 L420.76 278.87 Z M420.87 278.9 L420.9 278.73 L420.96 278.9 L420.94 278.96 Z M420.9 277.21 L421.09 277.34 L420.98 277.65 L420.92 277.5 Z M420.59 276.19 L420.62 276.33 L420.37 276.21 Z M420.15 276.05 L420.04 275.79 L420.17 275.9 Z M718.3 0.53 L718.02 0.18 L718.31 0 L718.69 0.18 L718.73 0.52 L718.62 0.68 Z M884.01 537.03 L885.51 537.72 L887.39 537.59 L889.58 537.72 L890.27 539.1 L890.33 540.35 L890.45 541.92 L891.33 542.85 L892.39 543.29 L893.58 544.05 L893.64 545.11 L893.33 546.3 L892.39 546.74 L891.14 546.24 L889.39 544.86 L888.76 543.42 L887.82 542.29 L885.82 542.29 L883.25 542.41 L880.81 541.98 L879.3 540.73 L878.24 539.97 L876.67 539.22 L875.29 539.1 L872.97 538.16 L873.28 537.41 L874.79 537.59 L877.67 538.03 L880.43 537.91 L882.13 536.9 Z M931.54 526.69 L932.85 526.5 L933.79 525.57 L935.05 524.82 L936.05 523.82 L936.62 523.44 L936.93 523.69 L936.55 524.51 L935.8 525.88 L935.79 527.39 L936.42 528.64 L937.36 529.14 L939.61 529.09 L941.36 529.34 L941.86 530.28 L941.61 531.53 L940.92 532.85 L939.85 533.09 L938.47 533.03 L936.79 532.46 L935.28 532.4 L933.84 532.77 L932.21 532.83 L930.65 532.76 L929.58 533.26 L928.2 533.26 L926.89 533.13 L926.76 532.44 L927.64 531.38 L928.46 530 L929.47 528.38 L930.41 526.81 Z M916.34 518.6 L919.76 518.17 L921.35 517.66 L922.18 516.39 L922.94 515.44 L925.16 515.45 L929.1 515.45 L930.69 514.5 L932.47 513.81 L932.78 514.83 L932.08 515.71 L932.53 516.35 L933.54 516.73 L933.86 518.07 L934.05 518.89 L935 519.85 L935.88 521.5 L934.93 522.32 L933.08 523.46 L931.31 523.65 L929.72 525.04 L928.7 527 L927.55 528.59 L926.98 530.17 L925.45 531.76 L924.06 532.77 L921.26 532.96 L918.6 532.64 L916.63 533.01 L915.04 533.39 L912.51 532.63 L908.76 532.69 L905.84 533.07 L904.5 533.83 L903.17 534.85 L902.27 535.42 L901.51 535.87 L900.24 535.93 L899.73 535.3 L899.93 533.77 L900.12 532.75 L900.25 530.85 L900.45 528.18 L901.34 526.46 L903.44 523.92 L905.73 522.21 L908.34 520.82 L910.43 520.06 L912.97 519.11 L914.69 518.86 Z M814.7 437.02 L815.32 437.81 L815.79 439.63 L815.52 441.38 L815.1 442.73 L814.15 442.62 L813.36 440.63 L813.24 438.76 L813.4 437.53 L813.8 436.75 L814.39 436.8 Z M809.38 430.61 L809.8 430.79 L810.28 431.58 L809.92 432.72 L808.97 433.13 L808.12 432.38 L807.6 431.05 L807 428.6 L806.96 427.6 L807.65 427.4 L808.48 428.45 Z M821.35 427.23 L821.73 427.77 L822.1 428.97 L821.76 430.04 L821.03 430.81 L820.09 431.51 L818.92 431.83 L817.85 431.98 L817.14 432.3 L817.1 431.33 L818 429.25 L819.38 427.72 L820.72 427.18 Z M790.1 403.66 L790.6 404.12 L791.26 405.27 L791.14 406.69 L790.49 407.88 L790.06 407.88 L790.05 407.01 L789.77 406.3 L788.56 405.2 L788.06 404.54 L786.77 403.24 L784.51 401.52 L782.4 400.27 L781.08 398.89 L780.67 397.55 L780.78 396.19 L780.89 395.7 L781.18 394.76 L781.55 394.18 L781.86 394.2 L784.05 396.63 L785.87 399.06 Z M679.35 369.07 L680.02 369.3 L680.29 370.27 L678.89 371.22 L676.9 371.39 L675.49 370.68 L675.69 369.59 L676.78 369.12 L677.75 369.06 L679.09 369.15 Z "/>
</g>
</svg>
