<svg xmlns="http://www.w3.org/2000/svg" viewBox="0 0 1000 2100.23">
<g fill="#ccc" stroke="#333" stroke-width="0.5" stroke-linejoin="round">
<path fill-rule="evenodd" d="M734.55 1247.46 L734.81 1245.48 L733.77 1244.14 L732.38 1243.01 L731.52 1241.65 L733.04 1239.86 L732.37 1237.82 L731.01 1235.63 L730.54 1233.45 L731.62 1231.56 L737.3 1226.05 L739.3 1223.33 L739.69 1221.85 L738.53 1220.64 L730.35 1214.31 L728.22 1213.19 L726.61 1211.98 L725.52 1210.43 L724.97 1208.56 L725.17 1206.48 L724.26 1204.24 L724.38 1202.33 L725.67 1201.1 L728.22 1200.87 L732.11 1199.7 L734.36 1199.03 L736.57 1198.81 L740.29 1199.45 L742.39 1199.25 L743.89 1197.71 L744.02 1196.2 L742.77 1193.66 L742.73 1192.28 L743.34 1191.22 L745.27 1189.74 L746.11 1188.92 L747.53 1186.82 L748.28 1184.14 L748.59 1179.53 L749.09 1178.22 L750.37 1177.02 L751.17 1177.39 L751.83 1178.06 L752.72 1177.8 L753.11 1176.93 L754.13 1170.24 L754.1 1168.07 L753.21 1166.12 L751.24 1163.94 L745.17 1159.32 L743.56 1157.53 L742.64 1155 L742.35 1149.59 L742.16 1149.11 L741.73 1147.95 L739.34 1147.32 L733.5 1148.21 L730.96 1146.71 L730.37 1144.19 L730.44 1140.86 L730.08 1138.05 L728.22 1137.09 L727.23 1137.64 L726.45 1137.63 L725.86 1137.08 L725.44 1136.01 L724.69 1134.28 L724.03 1134.13 L723.35 1134.64 L722.55 1134.88 L719.85 1134.19 L718.87 1134.22 L717.5 1135.22 L716.64 1136.48 L715.69 1137.05 L714.01 1135.99 L706.82 1122.9 L705.07 1121.35 L699.88 1118.68 L697.61 1116.92 L696.3 1114.94 L695.69 1112.71 L695.07 1106.85 L694.48 1104.82 L693.07 1103.3 L685.58 1098.9 L684.02 1096.81 L684.21 1093.87 L687.62 1086.2 L689.12 1084.67 L690.8 1084.29 L692.19 1084.7 L693.44 1085.32 L694.69 1085.53 L695.83 1085.22 L705.27 1079.05 L707.7 1078.1 L712.89 1077.19 L714.86 1076.23 L716.91 1073.86 L720.63 1067.11 L722.63 1065.36 L724.27 1063.37 L724.1 1062.11 L723.18 1060.98 L722.55 1059.37 L722.71 1056.94 L722.73 1056.67 L723.03 1055.04 L722.4 1054.36 L719.75 1054.44 L712.19 1056.4 L708.24 1056.85 L704.44 1055.7 L701.31 1052.89 L696.26 1046.41 L692.73 1044.03 L690.6 1043.41 L688.7 1043.1 L686.86 1042.58 L684.78 1041.29 L683.1 1039.73 L682.28 1038.63 L681.92 1038.15 L681.13 1036.34 L679.68 1028.74 L678.51 1026.92 L675.9 1024.99 L673.39 1023.73 L673.03 1023.61 L671.05 1022.99 L665.74 1022.39 L661.1 1022.55 L659.34 1022.33 L657.88 1021.31 L657.54 1020.35 L657.08 1017.17 L656.45 1015.78 L655.56 1014.98 L652.23 1013.14 L649.88 1011.18 L648.62 1009.43 L646.97 1005.59 L646.5 1005.68 L645.64 1006.15 L644.73 1006.47 L644.19 1006.06 L644.19 1005.26 L644.51 1004.65 L644.94 1004.19 L645.1 1003.81 L645.68 999.09 L645.3 993.39 L642.94 989.7 L639.7 989.57 L636.78 994.52 L636.23 996.88 L634.7 998.34 L631.04 1000.7 L630.42 1001.87 L630.39 1002.96 L630.14 1004.03 L630 1004.13 L628.76 1005.09 L627.41 1005.65 L626.49 1005.71 L626.06 1005.07 L626.07 1003.54 L622.03 1004.19 L619.01 1001.84 L616.9 998.1 L614.99 992.49 L614.79 990.87 L615.42 983.28 L614.86 981.67 L612.79 980.7 L610.97 980.54 L608.23 979.43 L605.65 977.85 L602.56 974.41 L601.32 971.38 L600.57 967.92 L600.36 929.98 L600.34 926.84 L599.13 924.49 L595.37 928.09 L592.22 927.12 L589.88 926.71 L587.26 925.73 L584.95 924.57 L583.74 923.57 L583.74 923.55 L583.4 922.19 L582.74 920.87 L580.45 916.25 L580.55 915.61 L581.43 914.11 L581.51 913.29 L580.11 910.82 L573.57 904.67 L569.46 897.84 L568.71 895.7 L568.82 894.22 L569.93 891.95 L570.03 890.64 L569.55 889.81 L567.66 887.82 L566.96 886.85 L566.65 885.11 L566.79 883.6 L566.5 882.43 L564.87 881.71 L563.15 881.8 L562.45 882.66 L562.12 883.89 L561.52 885.07 L559.54 887.1 L557.97 888.11 L555.99 887.91 L553.02 886.33 L530.43 866.8 L518.6 852.37 L518.58 852.37 L515.72 849.36 L506.87 837.79 L503.31 834.42 L498.9 831.5 L491.81 828.36 L490.15 827.01 L488.89 824.73 L487.18 819.29 L485.92 816.94 L482.9 812.8 L479.39 806.08 L474.12 801.2 L472.61 796.36 L474.23 785.5 L473.88 784.78 L472.02 781 L472.02 780.98 L468.81 779.19 L467.88 778.18 L467.37 776.77 L466.87 773.51 L466.14 771.94 L465 770.83 L462.62 769.52 L461.51 768.53 L459.28 763.47 L458.72 763.05 L457.18 762.68 L456.55 762.16 L456.66 761.83 L456.97 761.28 L457.25 760.53 L457.21 759.66 L456.11 755.77 L455.29 754.48 L453.21 752.8 L450.48 751.68 L447.58 751.49 L445.12 752.59 L444.32 753.91 L443.7 757.09 L443.15 758.1 L441.91 758.92 L441.53 758.77 L441.22 758.17 L440.22 757.66 L438.07 757.11 L435.59 756.04 L433.37 754.47 L431.94 752.39 L431.85 750.76 L432.73 747.33 L432.52 745.74 L431.6 744.21 L430.99 744.11 L430.32 744.57 L426.76 744.96 L425.34 745.12 L423.9 744.68 L423 743.84 L421.8 741.62 L421.02 740.61 L414.42 736.47 L413.12 734.6 L413.03 731.62 L413.88 729.72 L413.97 727.98 L411.6 725.52 L407.32 722.38 L404.16 719.31 L402.69 715.32 L403.41 709.38 L405.48 701.44 L407.27 697.18 L409.24 694.59 L410.9 694.37 L412.5 694.89 L413.86 694.69 L414.87 692.3 L414.87 691.8 L414.87 690.05 L413.97 688.84 L411.01 686.82 L407.14 680.32 L405.46 679.78 L403.87 680 L402.29 680.44 L400.6 680.56 L397.3 679.36 L390.48 675.34 L388.26 674.9 L385.96 675.53 L383.28 675.61 L380.9 674.97 L379.48 673.52 L378.13 669.94 L374.54 668.88 L366.71 669.5 L364.85 669.29 L359.58 667.67 L354.01 666.87 L352.42 666.28 L351.37 665.37 L349.78 662.95 L349.06 662.16 L347.71 661.67 L345.08 661.45 L343.71 661.04 L341.67 659.63 L337.97 655.85 L336.02 654.35 L331.45 651.86 L329.85 650.37 L325.17 643.25 L323.51 641.58 L321.23 640.18 L318.68 639.5 L314.45 639.95 L312.03 639.4 L310.33 638.08 L306.42 632.15 L304.13 630.09 L301.95 629.03 L299.62 628.28 L297.02 627.1 L294.9 625.39 L293.14 623.53 L291.18 622 L291.14 621.99 L288.41 621.31 L284.48 622.48 L283.28 621.27 L283.27 618.69 L282.77 615.83 L281.38 614.44 L275.92 610.66 L260.83 603.84 L258.03 603.17 L255.18 603.32 L252.3 604.55 L252.13 604.55 L248.1 601.63 L244.68 599.82 L243.72 599.12 L243.04 598.1 L241.24 594.67 L239.07 594.39 L236.6 594.46 L235.22 593.8 L236.35 591.31 L238.16 589.91 L243.04 587.77 L245.13 586.18 L247.81 582.06 L249.42 580.68 L252.3 580 L255.38 578.38 L258.61 577.21 L260.61 576.97 L261.04 577.51 L261.11 577.45 L262.16 575.41 L262.62 573.97 L263.18 570.64 L264.06 569.1 L265.42 568.27 L266.89 567.94 L268.07 567.31 L268.64 565.6 L268.61 565.59 L267.05 563.61 L266.61 561.25 L266.44 558.77 L265.57 556.42 L264.02 555.12 L259.77 552.54 L258.19 550.47 L255.52 542.94 L255.18 541.15 L255.97 538.87 L257.23 538.31 L258.79 538.77 L265.31 542.15 L267.9 543.03 L270.69 542.6 L271.77 541.72 L272.76 539.56 L273.68 538.62 L274.37 537.9 L277.34 537.86 L283.06 536.29 L286.97 535.22 L288.76 536.78 L293.51 538.41 L295.99 542.6 L302.32 538.54 L304.79 537.9 L307.52 538.21 L309.11 539.43 L310.4 541.22 L312.32 543.19 L313.46 543.92 L316.91 545.45 L324.62 550.12 L326.93 550.61 L330.1 550.25 L331.28 549.74 L333.38 548.32 L334.6 547.92 L335.77 548.22 L338.1 549.59 L339.36 549.45 L340.56 547.91 L344.87 536.38 L346 534.46 L347.76 532.52 L349.89 530.96 L351.59 530.5 L353.44 530.28 L356.02 529.49 L359.28 526.47 L362.61 524.97 L365.3 522.95 L366.67 518.4 L366.92 516 L366.88 514.68 L365.88 513.88 L363.3 513.01 L359.28 512.75 L358.58 511.95 L359.43 509.27 L361.99 506.01 L369.43 501.55 L372.5 499.19 L373.76 497.18 L374.01 495.93 L374.66 495.22 L377.26 494.81 L381.28 495.28 L383.07 495.01 L384.43 493.82 L384.95 493.36 L385.46 491.37 L385.22 489.6 L384.79 487.84 L384.54 485.16 L384.16 483.89 L384.2 483 L384.68 482.65 L386.54 482.27 L386.98 481.7 L385.96 479.42 L380.72 475.96 L378.89 473.22 L378.69 469.97 L379.44 468.41 L379.31 467.33 L367.23 460.71 L361.74 460.99 L355.59 463.06 L349.78 464.25 L345.18 461.91 L344.64 460.01 L344.49 457.07 L344.71 454.12 L345.23 452.21 L346.38 451.33 L347.5 451.39 L348.56 451.07 L349.48 449.11 L349.57 447.81 L349.35 446.11 L348.94 444.46 L348.43 443.31 L346.46 441.75 L341.29 439.71 L339.1 438.13 L335.98 433.76 L334.09 432.71 L314.63 433.15 L309.08 431.75 L304.76 428.99 L305.66 426.27 L313.45 420.9 L313.46 420.9 L316.34 415.21 L319.7 417.89 L323.26 418.51 L326.65 417.44 L329.63 415.06 L338.41 402.95 L339.34 399.53 L339.49 398.96 L337.52 396.92 L329.79 394.28 L322.78 390.88 L320.52 388.54 L319.22 383.97 L317.38 381.94 L314.6 381.62 L311.49 381.71 L308.74 380.86 L307.74 379.79 L306.6 377.26 L305.87 376.19 L304.83 375.47 L302.7 374.66 L301.57 373.87 L299.79 371.72 L297.61 367.24 L295.99 365.03 L294.98 364.17 L293.77 363.32 L292.42 362.65 L291.19 362.25 L289.91 362.35 L286.84 363.21 L285.89 363.26 L285.42 362.53 L284 359.52 L283.2 358.39 L282.2 357.74 L278.33 356.3 L276.88 356.09 L273.79 356.03 L272.51 355.81 L271.37 355.24 L269.32 353.69 L268.38 353.18 L263.54 353.53 L257.27 360.92 L252.3 361.75 L250.71 361.7 L249.33 362.05 L246.61 363.29 L236.61 366.52 L235.5 367.22 L233.5 369.04 L232.28 369.71 L230.91 369.82 L228.15 369.44 L226.64 369.96 L225.31 371.57 L223.9 374.28 L222.76 377.23 L222.25 379.57 L222.54 382.55 L223.01 383.95 L222.46 384.95 L219.71 386.69 L218.03 387.28 L216.87 387.44 L216.02 388.01 L215.36 389.92 L215.53 391.29 L216.91 394.12 L216.98 395.3 L216.19 396.02 L214.72 396.78 L213.06 397.34 L211.82 397.51 L210.33 397.25 L209.76 396.89 L209.32 396.31 L206.34 393.68 L201.08 387.94 L198.44 386.4 L190.04 384.59 L190.03 384.56 L188.65 384.5 L187.48 384.16 L186.4 383.56 L185.34 382.77 L183.88 380.88 L181.39 376.02 L179.74 374.36 L177.86 373.63 L177.14 374.01 L176.73 374.93 L175.77 375.83 L173 377.41 L172.76 377.47 L169.32 378.44 L168.58 378.43 L167.13 378.23 L163.34 376.96 L155.67 372.81 L153.45 372.17 L152.23 372.3 L150.56 372.8 L149.57 373.1 L147.99 373.07 L146.65 372.6 L144.82 371.25 L143.68 370.65 L142.29 370.29 L139.83 369.95 L138.39 369.3 L137.53 368.66 L135.53 366.69 L131.64 361.8 L129.12 357.54 L124.89 348.19 L121.82 341.63 L119.74 339.17 L116.33 337.67 L114.34 337.95 L113.26 337.48 L112.62 336.48 L111.99 335.17 L111.05 332.61 L109.77 327.04 L109.74 326.89 L108.21 324.45 L106.82 323.6 L105.7 323.55 L104.77 323.28 L103.94 321.82 L103.94 320.41 L105.13 317.51 L105.3 316.18 L104.6 314.45 L103.28 312.89 L101.51 311.64 L99.48 310.84 L96.48 310.73 L93.9 311 L92.83 310.38 L94.39 307.6 L96.62 305.85 L101.22 304.7 L102.88 303.01 L103.37 300.55 L103.48 293.88 L104.05 290.89 L108.54 283.54 L108.7 281.87 L106.82 281.49 L104.18 282.75 L101.46 284.49 L99.41 285.48 L105.57 275.27 L108.51 272.59 L113.61 266.2 L116.33 263.57 L116.44 263.15 L116.49 262.74 L116.44 262.31 L116.33 261.9 L114.97 258.7 L114.52 255.15 L114.65 245.11 L114.4 243.42 L113.87 241.82 L112.75 239.89 L112.05 239.62 L111.28 240.2 L101.42 244.5 L99.07 244.67 L97.43 242.92 L96.99 240.09 L97.4 234.26 L96.25 227.57 L93.57 225.4 L91.18 227.71 L90.84 239.48 L89.21 244.17 L86.15 248.12 L81.93 250.94 L80.45 251.28 L73.27 251.41 L72.72 251.72 L72.35 251.5 L71.35 250.01 L70.46 247.72 L69.79 244.41 L69.51 241.07 L70.16 232.48 L68.87 226.49 L64.24 215.84 L60.05 212.31 L54.02 210.29 L48.87 207.6 L47.29 202.06 L47.41 201.49 L47.65 200.96 L47.95 200.49 L48.33 200.07 L49.53 198.24 L47.45 196.39 L44.05 194.42 L41.27 192.25 L40.33 190.59 L38.99 186.95 L38.09 185.4 L36.82 184.19 L32.56 181.61 L22.82 172.01 L14.63 167.85 L12.01 165.35 L11.14 162.4 L9.18 160.51 L6.83 158.85 L4.86 156.64 L4.64 155.74 L5.09 154 L5.09 153.2 L4.65 152.55 L3.47 151.66 L3.09 151.13 L1.73 146.49 L0.92 145.03 L0 142.99 L1.38 141.02 L3.86 139.53 L6.24 138.87 L9.23 139.53 L11.55 140.79 L13.51 141.06 L15.32 138.75 L16.04 136.24 L16.84 131.27 L18.21 128.58 L35.11 110.89 L36.13 108.94 L35.87 108.65 L35.35 107.43 L34.55 106.45 L33.27 105.61 L32.31 104.54 L32.25 102.88 L33.19 101.78 L34.61 101.64 L36.17 101.73 L37.57 101.32 L39.25 99.42 L40.33 97 L41.74 91.79 L41.74 91.77 L44.07 88.84 L47.48 88.34 L51.09 89.55 L54 91.79 L55.44 94.63 L55.79 97.3 L56.72 99.07 L59.79 99.2 L60.8 98.52 L61.42 97.41 L62.22 96.42 L63.65 96.08 L64.26 96.6 L66.29 98.94 L67.15 99.69 L69.84 100.67 L75.27 101.64 L78.07 102.8 L86.11 109.46 L88.74 110.57 L94.47 111.91 L96.98 113.23 L98.8 115.36 L99.88 117.84 L100.71 120.48 L105.39 129.77 L106.6 131.26 L108.91 132.44 L113.94 133.84 L118.37 137.09 L121.06 138.17 L123.8 138.19 L125.98 136.66 L126.52 134.27 L125.95 131.9 L125.86 129.9 L127.78 128.58 L129.97 128.18 L132.26 127.16 L139.16 122.35 L139.67 121.21 L139.53 119.7 L137.88 117.64 L137.53 116.44 L139.12 112.15 L142.76 109.29 L150.91 104.96 L153.15 103.07 L154.18 101.61 L156.56 95.02 L161.96 85.49 L163.58 85.12 L166.65 86.22 L168.41 87.24 L170 88.55 L171.38 90.08 L172.55 91.79 L174.48 92.87 L174.79 94.93 L174.56 97.49 L174.83 100.1 L175.73 102.18 L180.7 110.5 L184.19 114.42 L185.86 115.53 L188.34 115.93 L189.78 115.05 L194.13 108.56 L194.77 107.18 L194.63 106.02 L193.9 99.78 L194.25 98.35 L197.13 94.77 L198.29 92.43 L199.07 90.23 L200.09 88.42 L201.96 87.24 L207.82 83.85 L209.4 84.71 L218.63 96.05 L227.85 104.43 L229.36 106.2 L229.95 107.48 L232.67 111.84 L233.58 112.78 L234.65 113.29 L237.72 116.81 L238.52 117.07 L240.7 117.35 L241.5 117.72 L242.61 119.29 L244.55 123.02 L245.69 123.76 L247.77 124.28 L249.16 125.49 L250.33 126.87 L252.3 125.66 L253.84 123.91 L254.12 122 L253.87 119.88 L253.87 117.57 L254.48 115.35 L256.3 110.99 L256.85 108.73 L257.73 99.78 L259.07 95.62 L261.92 91.79 L263.18 90.53 L264.81 87.54 L265.8 86.26 L267.65 84.95 L269.3 84.5 L273.27 84.18 L284.83 80.02 L288.63 80.11 L287.53 83 L286.94 86.15 L287.07 89.32 L288.04 92.25 L289.76 94.28 L297.23 97.77 L300.06 99.56 L302.09 100.46 L304.17 100.13 L305.05 99.55 L316.89 91.79 L319.56 88.89 L328.36 81.58 L330.79 78.86 L331.11 78.39 L332.31 78.63 L332.35 79.3 L332.15 80.11 L332.62 80.76 L333.41 81.31 L333.95 81.9 L334.6 82.4 L335.85 82.7 L336.65 82.38 L338.03 80.73 L338.76 80.31 L341.37 80.64 L345.96 82.09 L348.74 81.91 L351.13 81.02 L353.11 79.71 L354.86 77.94 L359.58 71.2 L361.11 69.51 L367.83 65.39 L368.42 63.91 L368.3 60.94 L364.34 41.54 L366.18 39.97 L369.5 39.44 L372.95 36.51 L373.53 34.46 L373.7 32.09 L374.15 30.01 L375.62 28.8 L377.51 29 L381.08 31.16 L382.99 31.38 L384.37 30.56 L389.29 26.04 L393.95 23.61 L398.16 20.65 L400.12 19.81 L411.18 16.66 L411.66 16.23 L411.91 15.61 L412.27 15.03 L412.98 14.72 L413.36 14.88 L414.37 15.65 L414.79 15.82 L415.83 16.07 L416.63 16.56 L417.6 16.89 L419.14 16.62 L421.4 14.94 L422.26 12.52 L422.78 9.72 L423.9 6.88 L425.21 5.35 L429.9 1.11 L431.75 0 L434.27 0.07 L435.34 1.77 L435.93 4.37 L437 7.16 L438.6 9.2 L440.73 11.07 L442.91 12.55 L444.79 13.45 L446.09 13.53 L447.12 13.15 L448.18 13 L449.73 13.78 L450.41 14.58 L452.19 17.94 L454.96 23.73 L456.26 25.43 L462.14 29.39 L462.71 30.07 L463.65 31.2 L464.55 34.04 L464.6 39.55 L464.61 40.28 L465.21 43.03 L466.82 45.36 L468.78 46.19 L478.42 46.6 L482.24 47.77 L485.69 47.69 L487.1 48.6 L489.68 51.29 L491.31 52.08 L492.89 52.59 L494.45 53.34 L495.96 54.85 L495.96 54.88 L495.99 54.9 L496 54.9 L497.8 57.71 L505.46 66.41 L507.93 68.26 L509.07 67.81 L509.66 66.73 L510.14 65.54 L510.94 64.78 L512.39 64.56 L514.71 65.19 L516 65.35 L520.3 64.86 L522.53 64.17 L524.26 63.06 L526.44 58.52 L527.7 57.82 L538.35 56.99 L545.77 57.87 L550.93 59.2 L555.32 62.01 L558.13 67.12 L558.68 72.56 L559.63 74.29 L562.53 75.64 L565.42 76.18 L568.11 76.17 L570.73 75.77 L590.08 70.58 L592.22 69.38 L592.8 66.06 L594.14 65.2 L595.96 65.75 L598.1 66.67 L604.9 68.39 L606.9 69.65 L608.27 71.77 L609.28 74.12 L610.8 75.91 L613.85 76.39 L614.82 75.83 L615.91 73.82 L617.12 73.38 L618.57 73.74 L619.51 74.64 L620.97 76.59 L625.02 79.86 L627.21 83.69 L627.12 84.06 L629.12 84.12 L632.3 83.82 L635.21 84.12 L636.42 86.01 L635.44 87.82 L630.94 90.46 L629.34 91.91 L628.37 94.5 L627.82 99.13 L626.61 101.8 L623.69 106.39 L622.68 108.64 L620.3 116.21 L618.63 117.74 L615.7 117.78 L613.48 116.12 L612.05 113.58 L610.43 111.72 L607.76 112.04 L606.29 113.88 L605.15 116.93 L602.03 131.95 L601.42 133.17 L599.92 135.38 L599.46 137 L599.46 138.54 L600.29 142.12 L600.49 142.99 L600.76 148.43 L601.48 150.7 L603.32 152.63 L606.33 153.72 L611.75 153.98 L613.99 155.94 L614.79 157.82 L617.95 168.6 L617.63 170.05 L616.44 171.2 L614.79 173.36 L615.15 175.53 L616.01 177.15 L617.02 178.61 L617.73 180.31 L617.75 181.37 L617.33 183.75 L617.38 184.95 L617.73 185.74 L618.92 187.2 L619.21 187.8 L619.32 191.68 L618.63 195.11 L615.95 202.03 L615.94 203.28 L616.14 204.66 L616.62 205.94 L617.41 206.83 L619.54 206.92 L621.6 205.35 L626.03 200.35 L626.9 200.15 L628.78 200.81 L629.57 201.38 L630.63 202.91 L631.29 203.56 L634.08 205.03 L636.47 205.39 L642.1 205.25 L645.4 206.06 L647.04 207.63 L648.2 209.69 L650.03 211.97 L652.96 213.55 L655.32 213.1 L657.5 211.79 L659.88 210.79 L662.69 210.85 L665.06 212.01 L666.54 214.14 L666.66 217.17 L665.4 219.62 L663.45 221.77 L662.04 224.12 L662.31 227.13 L664.18 229.14 L667.02 230.09 L672.74 231.3 L676.68 233.76 L687.23 243.12 L692.64 244.56 L696.95 243.11 L700.87 242.65 L705.02 246.98 L708.62 257.61 L709.15 258.13 L711.13 260.05 L715.85 257.2 L719.54 253.32 L721.72 252.34 L724.43 253.09 L725.94 255.35 L726.48 260.49 L728.22 261.34 L730.58 262.28 L731.96 262.66 L733.12 262.62 L734.27 261.81 L735.39 259.48 L736.28 258.69 L738.71 258.37 L744.41 259.14 L747.17 259.14 L755.15 257.38 L757.65 256.34 L762.98 252.36 L765.07 251.54 L767.15 251.44 L769.57 251.77 L774.16 252.96 L776.98 254.2 L778 255.59 L778.62 257.4 L780.12 259.91 L781.78 261.53 L785.65 264.43 L790.38 269.57 L792.18 270.08 L798.58 276.67 L795.69 278.12 L792.78 281.16 L790.21 282.96 L788.35 280.66 L788.39 279.22 L789.06 278.26 L789.85 277.6 L790.21 277.08 L790.06 275.96 L789.72 275.18 L789.36 274.59 L789.19 274.13 L788.72 272.02 L787.49 270.7 L785.73 269.97 L783.72 269.6 L783.97 270.67 L783.82 271.29 L782.79 272.59 L781.88 272.59 L781.12 270.16 L780.19 271.52 L779.09 275.59 L777.46 276.28 L776.5 275.32 L776.1 273.27 L776.2 270.68 L775.37 270.68 L774.34 271.59 L774.34 272.59 L774.94 273.21 L775.15 273.66 L775.37 275.59 L774.34 275.59 L773.51 273.59 L772.58 274.68 L772.06 271.73 L770.33 271.02 L768.07 271.62 L766.08 272.59 L766.08 273.59 L768.27 273.57 L769.91 274.13 L771.02 275.39 L771.57 277.48 L769.71 276.67 L770.01 277.63 L770.39 279.71 L770.72 280.66 L769.26 280.63 L768.17 281.05 L767.38 281.78 L766.94 282.66 L767.85 283.56 L765.58 287.55 L763.1 287.46 L761.89 287.6 L761.34 288.1 L760.54 289.35 L758.72 289.43 L756.83 288.71 L755.79 287.55 L754.77 287.55 L754.36 288.19 L753.93 288.64 L753.93 289.55 L754.82 291.31 L754 292.39 L752.21 292.57 L750.14 291.64 L750.45 292.44 L750.44 292.78 L750.52 293.03 L751.14 293.53 L751.14 294.62 L750.02 295.24 L749.62 295.84 L749.99 296.59 L751.14 297.62 L750.24 297.75 L748.28 298.6 L748.82 298.87 L749.01 298.84 L749.08 298.95 L749.29 299.6 L748.66 299.31 L746.49 298.6 L745.86 302.26 L745.27 303.97 L744.1 304.68 L741.81 304.56 L740.25 304.08 L739.13 303.13 L738.16 301.6 L737.57 299.91 L737.27 298.34 L736.56 297.17 L734.81 296.7 L734.77 297.32 L735.31 298.77 L735.7 300.4 L735.2 301.6 L735.2 302.69 L736.87 303.51 L735.4 303.97 L732.39 304.02 L729.62 303.59 L729.3 303.59 L728 303.25 L726.57 302.44 L725.91 301.11 L725.11 300.8 L720.26 299.6 L719.41 301.6 L720.36 302.54 L724.05 304.68 L724.05 305.59 L721.39 306.77 L717.04 306.65 L713.75 307.67 L713.75 308.67 L714.55 309.78 L714.22 310.6 L713.4 311.43 L712.83 312.66 L712.59 317.93 L711.97 319.62 L713.02 320.48 L714.2 321.06 L715.41 321.15 L716.61 320.62 L715.78 327.16 L714.85 330.61 L712.83 332.65 L713.6 333.91 L713.75 334.73 L713.22 335.23 L711.97 335.55 L712.5 337.72 L712.79 339.89 L713.33 341.65 L714.68 342.6 L714.68 343.51 L712.43 345.32 L711.08 346.08 L709.18 346.68 L706.09 346.76 L703.54 346.86 L701.8 347.57 L700.02 346.91 L697.14 347.08 L694.27 347.79 L692.51 348.66 L693.2 348.96 L693.65 349.25 L694.22 349.48 L695.22 349.57 L695.22 350.56 L693.01 351.14 L690.08 354.42 L690.58 356.61 L688.52 356.74 L687.03 357.2 L685.67 357.37 L684.07 356.61 L684.07 357.61 L681.98 355.57 L675.34 354.61 L672.78 353.54 L672.78 352.64 L676.74 347.46 L684.07 342.6 L684.07 341.62 L682.28 341.74 L680.52 342.1 L678.91 342.71 L677.57 343.51 L676.96 344.46 L676.76 345.48 L676.36 346.33 L675.18 346.68 L674.63 346.21 L674.81 345.16 L675.31 344.08 L675.64 343.51 L675.04 343.14 L674.99 343.02 L674.71 342.6 L673.62 345.04 L672.39 346.17 L671.62 345.51 L671.92 342.6 L670.99 342.6 L671.06 344.18 L670.93 345.54 L670.61 346.67 L670.06 347.57 L670.16 345.49 L669.85 343.88 L668.95 342.84 L667.28 342.6 L667.28 343.51 L667.75 343.95 L668.5 344.94 L669.13 345.58 L668.7 345.64 L667.28 345.58 L669.13 347.57 L667.21 347.56 L665.91 346.9 L663.49 344.59 L663.17 346.6 L666.62 349.51 L667.28 351.56 L666.07 353.7 L663.92 354.66 L661.36 354.82 L658.84 354.63 L656.57 354.19 L654.53 353.44 L652.8 352.52 L651.41 351.56 L648.1 348.52 L646.57 347.95 L645.76 349.57 L645.23 348.75 L644.78 348.54 L643.9 348.66 L647.85 353.28 L649.55 354.63 L652.41 356.11 L653.19 356.61 L653.74 357.58 L654.03 358.78 L654.59 359.88 L656.05 360.59 L656.05 361.58 L652.54 361.5 L650.42 360.95 L649.03 359.47 L647.69 356.61 L646.69 356.61 L646.86 357.91 L647.26 359 L647.79 359.89 L648.55 360.59 L645.83 364.61 L644.73 363.64 L643.69 360.64 L641.11 358.6 L641.58 357.85 L641.41 357.64 L641.11 356.61 L640.18 356.61 L637.41 357.42 L634.31 355.89 L632.85 353.73 L635.07 352.64 L637.53 352.48 L638.89 351.98 L639.4 351.02 L639.26 349.57 L638.34 348.9 L636.92 348.23 L636.41 347.25 L638.25 345.58 L637.36 344.64 L636.33 343.92 L635.14 343.52 L633.68 343.51 L633.98 344.02 L634.31 345.1 L634.61 345.58 L631.48 345.3 L629.26 343.95 L627.18 343.18 L624.39 344.59 L624.39 345.58 L625.41 345.58 L625.41 346.68 L620.32 344.55 L617.38 343.91 L615.12 344.59 L616.29 344.91 L616.56 344.98 L620.67 346.68 L620.67 347.57 L619.77 347.25 L616.98 346.68 L616.98 347.57 L618.31 348.91 L618.79 350.45 L619.06 352.04 L619.77 353.54 L621.18 354.42 L624.61 354.59 L627.58 355.95 L629.26 355.93 L630.49 356.48 L630.99 359.06 L630.7 360.94 L629.42 362.86 L629.04 364.57 L628.2 364.57 L625.41 361.58 L622.99 364.6 L624.02 366.35 L626.65 367.71 L629.04 369.53 L630.19 372.9 L629.68 376.01 L627.97 377.37 L625.41 375.5 L626.34 378.09 L628.22 381.05 L630.56 383.74 L632.85 385.52 L633.68 384.44 L635.07 386.75 L637.4 394.45 L634.57 392.31 L633.35 391.02 L632.85 390.03 L632.12 389.23 L630.56 389.83 L629.1 390.9 L628.63 391.48 L627.44 391.68 L626.47 392.09 L625.3 392.45 L623.55 392.47 L619.67 391.38 L617.91 391.48 L617.91 392.47 L621.29 393.9 L623.39 395.32 L623.42 397.05 L620.67 399.42 L618.87 400.42 L616.75 401.24 L614.5 401.64 L612.24 401.39 L611.07 400.56 L609.14 397.71 L607.59 396.52 L608.39 398.73 L608.52 398.93 L609.31 400.14 L611.33 402.48 L612.03 403.02 L612.66 402.99 L613.09 403.31 L613.26 404.87 L613.13 405.71 L612.76 406.5 L612.3 407.11 L610.04 407.98 L607.02 410.78 L598.32 414.29 L600.71 415.65 L602.68 415.53 L606.66 413.39 L606.66 414.29 L605 416.63 L605.98 418.68 L607.28 420.82 L606.66 423.4 L605.82 423.56 L601.97 424.94 L601.57 425.28 L600.82 425.75 L599.85 426.86 L598.95 428.19 L598.32 429.34 L599.16 429.34 L600.98 428.04 L604.19 426.76 L607.25 426.36 L608.61 427.76 L608.11 434.07 L607.24 437.39 L605.74 439.33 L605.05 437.93 L604.83 437.26 L604.87 437.82 L604.73 438.17 L604.41 438.31 L603.9 438.25 L606.35 440.71 L606.64 441.98 L607.19 443.75 L607.42 446.02 L607.83 448.78 L608.39 452.82 L606.9 454.45 L603.9 451.21 L602.59 449.41 L600.82 447.93 L598.74 447.31 L596.39 448.06 L595.53 448.06 L596.2 449.18 L596.46 449.63 L597.56 450.07 L598.59 449.49 L599.16 448.06 L602.39 450.5 L602.97 451.21 L603.41 452.48 L604.81 454.9 L605.63 456.99 L605.26 459.12 L603.18 460.18 L601.37 459.97 L599.78 460.51 L596.46 461.28 L592.15 461.56 L590.39 462.02 L581.52 463.09 L581.52 462.02 L582.45 462.02 L582.45 461.11 L581.48 461.21 L580.86 461.39 L579.57 462.02 L579.57 463.09 L580.56 464.11 L579.63 464.9 L576.79 466.06 L575.84 467.11 L574.08 471 L569.35 476.99 L566.38 479.01 L563.06 483.84 L559.92 485.77 L556.62 489.65 L554.6 490.87 L555.87 487.65 L556.46 486.91 L555.45 485.84 L554.45 487.87 L552.84 492.19 L551.74 493.82 L549.68 495.02 L544.67 496.33 L542.37 497.78 L541.59 495.61 L542.01 493.3 L542.88 490.77 L543.38 487.9 L542.37 487.9 L541.95 490.22 L539.89 496.49 L539.16 497.78 L537.17 497.27 L534.98 496 L533.12 494.39 L532.14 492.83 L531.22 492.83 L530.49 494.73 L528.93 496.55 L522.96 502.07 L521.76 503.49 L520.93 505.68 L520.93 507.06 L521.9 509.32 L521.93 510.7 L519.07 514.66 L518.58 516.8 L518.6 520.86 L518.13 522.55 L517.71 522.01 L516.28 520.58 L515.42 522.09 L513.49 523.47 L509.78 525.51 L510.63 526.59 L512.43 525.74 L516.32 525.32 L518.13 524.52 L517.38 526.44 L514.95 529.76 L514.43 532.01 L513.56 533 L511.64 532.88 L509.71 533.04 L508.85 534.93 L508.22 537.29 L505.16 542.13 L504.13 544.43 L503.88 546.68 L503.86 550.68 L503.19 552.32 L502.99 549.08 L501.13 548.64 L499.36 550.02 L499.49 552.32 L500.03 551.31 L501.01 550.1 L501.35 549.27 L502.04 550.58 L502.4 552 L502.47 553.55 L502.61 554.22 L503.19 554.29 L503.24 559.66 L501.71 570.61 L502.34 576.04 L500.42 574.97 L498.56 578.91 L496.7 578.01 L496.7 578.91 L498.24 580.19 L498.82 581.82 L499.49 585.88 L501.98 590.69 L502.34 592.78 L499.49 590.81 L499.82 592.21 L500.42 593.84 L501.41 593.48 L502.08 593.84 L501.8 596.64 L501.46 597.49 L501.35 597.78 L500.27 598.5 L499.05 598.57 L498.03 598.85 L496.84 603.01 L495.1 603.1 L493.23 602.83 L492.91 603.6 L491.25 612.48 L491.06 617.71 L492.05 621.37 L488.61 623.07 L487.28 623.96 L486.41 625.3 L482.7 624.09 L479.37 627.57 L476.79 632.88 L475.35 637.17 L475.22 639.05 L475.95 640.38 L476.28 641.6 L476.43 643.51 L477.44 648.14 L478.14 649.94 L479.98 652.4 L482.92 654.95 L486.26 656.99 L489.27 657.88 L489.27 658.78 L487.4 660.82 L486.84 659.54 L486.04 658.6 L484.96 658.04 L483.62 657.88 L485.08 661.23 L485.48 661.89 L486.37 662.17 L488.73 661.94 L489.74 662.34 L492.58 665.49 L494.07 667.69 L494.84 669.74 L492.81 675.66 L493.41 676.6 L494.64 677.79 L494.85 680.52 L494.45 683.49 L493.91 685.42 L496.53 684.16 L496.51 680.79 L496.09 672.1 L495.77 671.61 L498.36 673.3 L499.21 677.39 L499.36 681.56 L499.95 683.46 L500.88 685.04 L504.13 695.31 L511.38 707.21 L516.28 712.64 L520.93 712.93 L521.3 715.6 L522.21 718.45 L523.42 721 L524.72 722.81 L527.87 725.2 L528.9 726.2 L534.02 732.82 L541.15 738.87 L542.78 740.94 L543.05 742.75 L540.51 743.35 L541.85 744.38 L544.14 743.91 L547.08 742.91 L550.35 742.37 L552.44 743.21 L559.58 748.77 L560.52 749.31 L563.46 750.4 L564.63 751.17 L568.44 756.15 L572.99 759.6 L574.86 761.39 L575.94 763.97 L574.95 763.97 L573.62 763.11 L571.87 763.48 L570.3 764.61 L569.46 766 L571.23 766.89 L571.83 766.45 L572.33 766.24 L574.08 766 L573.29 767.7 L573.55 769.07 L574.95 771.87 L574.98 770.1 L575.38 768.41 L576.01 766.98 L576.79 766 L578.22 765.26 L579.11 765.57 L580.04 766.09 L581.52 766 L582.67 765.18 L585.24 762.01 L586.93 762.7 L586.73 764.17 L585.24 766.89 L585.97 769.94 L587.5 772.94 L598.32 786.52 L599.16 787.57 L599.16 788.46 L596.35 790.28 L593.67 792.45 L592.3 794.25 L591.18 796.06 L589.69 797.26 L587.1 797.24 L587.1 798.31 L588.59 798.65 L589.14 799.56 L588.93 800.86 L588.03 802.3 L589.25 804.92 L590.45 809.04 L591.72 816.35 L592.41 817.95 L595.17 820.67 L595.53 821.71 L594.37 822.86 L592.88 822.73 L588.83 820.94 L587.03 817.6 L585.7 816.84 L583.65 816.52 L578.73 813.91 L569.5 812.96 L567.51 812.06 L566.58 812.93 L568.53 814.34 L571.69 815.59 L574.98 816.49 L579.56 817.03 L586.17 818.78 L586.17 819.85 L585.24 819.85 L582.55 818.73 L579.89 820.49 L579.43 823.4 L583.38 825.69 L582.61 823.97 L582.23 823.35 L581.52 822.77 L584.58 821.38 L588.99 822 L593.38 823.74 L596.39 825.69 L597.82 827.52 L601.11 833.57 L604.76 837.78 L611.4 849.1 L612.93 853.67 L614.1 855.98 L614.62 856.2 L617.31 858.35 L617.44 858.9 L618.04 859.28 L619.77 861.81 L631.69 875.2 L656.53 893.73 L664.81 899.88 L679 910.4 L681.09 914.46 L680.28 920.32 L681.82 921.56 L689.15 932.28 L691.08 933.44 L691.51 934.44 L691.08 935.14 L690.12 935.6 L689.15 936.24 L688.72 937.44 L687.91 938.03 L683.07 940.79 L683.07 941.76 L686.53 941.77 L688.12 941.5 L689.65 940.79 L689.82 940.13 L689.62 939.14 L689.55 938.26 L692.01 936.47 L693.23 936.04 L694.17 936.98 L694.98 938.28 L695.68 938.93 L697.69 940.01 L715.28 955.16 L719.76 958.48 L731.48 967.14 L746.01 980.39 L750.17 981.59 L750.17 982.65 L744.84 981.12 L728.2 972.23 L724.08 972.96 L734.47 978.86 L737.76 979.69 L739.25 980.25 L740.48 982.23 L741.92 982.61 L743.5 982.37 L744.6 981.59 L745.59 983.1 L746.89 984.13 L750.17 985.55 L750.17 986.61 L748.71 985.86 L748.32 985.55 L747.36 985.55 L747.08 986.03 L746.85 986.5 L746.52 987.58 L748.51 987.66 L750.37 987.45 L753.96 986.61 L753.13 987.51 L752.53 988.47 L752.14 989.58 L752.03 990.92 L752.53 990.78 L753.52 992.1 L754.26 993.7 L753.96 994.36 L755.29 994.35 L755.98 993.77 L756.48 992.87 L757.17 991.89 L758.59 991.11 L759.4 991.92 L759.96 993.32 L760.53 994.36 L765.71 997.9 L766.97 999.2 L770.09 1004.23 L772.57 1005.91 L775.52 1009.91 L778.17 1011.01 L777.86 1011.42 L777.13 1011.8 L776.24 1011.87 L775.36 1011.47 L774.51 1010.81 L773.51 1010.2 L772.11 1009.93 L771.82 1011.09 L773.55 1019.09 L774.24 1020.45 L775.85 1021.63 L779.12 1023.49 L780.05 1023.49 L781.28 1022.62 L782.44 1022.9 L783.31 1023.93 L783.75 1025.42 L785 1024.56 L785.7 1025.42 L790.68 1021.55 L791.28 1020.6 L790.38 1016.16 L790.25 1014.77 L792.32 1014.26 L798.47 1018.8 L801.4 1019.62 L802.56 1018.74 L803.19 1017.44 L803.99 1016.26 L805.62 1015.74 L805.73 1016.66 L807.05 1021.55 L808.17 1023.98 L812.62 1031.31 L808.74 1028.37 L806.85 1027.68 L806.04 1029.77 L807.11 1031.38 L809.56 1032.38 L812.1 1032.67 L813.55 1032.19 L814.48 1032.19 L816.95 1033.29 L820.34 1034.07 L824.08 1034.39 L827.56 1034.11 L826.99 1034.84 L825.5 1036.69 L820.78 1040.61 L819.12 1043.79 L819.2 1047.89 L821.52 1050.1 L824.52 1051.85 L826.63 1054.6 L828.75 1052.5 L829.82 1051.82 L830.82 1052.09 L831.96 1056.99 L832.21 1057.4 L831.49 1059.54 L830.09 1061.55 L828.35 1063.19 L826.63 1064.26 L829.19 1063.44 L831.68 1062.05 L833.75 1061.49 L834.99 1063.29 L833.66 1056.02 L832.68 1054.07 L832.53 1051.98 L833.46 1049.4 L833.41 1047.35 L830.35 1046.77 L830.35 1045.72 L831.42 1044.93 L832.22 1044.02 L832.77 1043 L833.14 1041.86 L834.14 1042.29 L834.34 1042.62 L834.43 1042.57 L834.99 1041.86 L835.92 1041.86 L837.11 1043.07 L838.71 1044.33 L840.64 1045.32 L842.93 1045.72 L843.04 1045.04 L843.9 1043.72 L844.84 1042.8 L845.29 1043.34 L845.55 1043.87 L847.15 1045.72 L845.62 1047.04 L844.13 1047.94 L842.97 1048.97 L842.5 1050.65 L841.24 1049.62 L837.79 1050.35 L835.92 1049.59 L834.93 1054.74 L835.85 1060.32 L837.73 1065.4 L838.16 1066.19 L839.71 1069.08 L841.37 1071.12 L848.54 1076.75 L850.67 1077.76 L852.56 1079.16 L853.65 1081.64 L852.16 1081.91 L851.06 1082.57 L850.79 1083.25 L851.79 1083.57 L852.58 1083.09 L853.54 1082.14 L854.53 1081.42 L855.52 1081.64 L856.18 1083.53 L857.44 1092.25 L861.69 1100.55 L883.9 1131.3 L887.65 1133.47 L892.71 1132.92 L891.49 1136.92 L890.57 1137.88 L889.01 1135.9 L887.42 1136.4 L885.36 1137.33 L884.21 1138.99 L885.3 1141.68 L888.51 1144.07 L890.67 1142.79 L893.73 1136.78 L894.57 1136.78 L895.32 1139.67 L895.5 1143.17 L896.25 1144.22 L899.51 1147.01 L900.24 1147.94 L900.88 1148.51 L903.33 1150.02 L903.93 1150.4 L904.88 1151.4 L905.11 1153.05 L904.93 1154.73 L904.97 1156.41 L905.81 1158.06 L905.32 1158.78 L905.13 1159.22 L904.88 1160.07 L905.81 1160.07 L906.01 1159.27 L906.81 1157.17 L907.76 1157.34 L908.87 1157.39 L911.46 1157.17 L911.46 1156.21 L908.05 1155.69 L907.01 1153.18 L907.96 1150.23 L910.53 1148.42 L910.53 1147.46 L909.71 1147.05 L909.33 1146.64 L908.58 1145.44 L909.64 1145.98 L910.56 1146.21 L911.39 1146.05 L912.3 1145.44 L913.01 1147.58 L913.87 1153.16 L914.74 1154.29 L915.81 1154.81 L919.09 1157.44 L919.82 1158.54 L919.58 1163.76 L920.33 1165.58 L923.81 1168.79 L925.47 1169.78 L926.53 1170.13 L928.34 1170.28 L929.19 1170.65 L928.09 1172.54 L926.64 1173.9 L924.85 1174.62 L922.61 1174.51 L922.61 1175.55 L923.97 1175.43 L924.83 1175.59 L925.27 1176.22 L925.47 1177.48 L923.52 1176.42 L922.9 1178.02 L922.48 1182.15 L921.85 1184.22 L919.66 1183.28 L917.83 1183.42 L917.06 1184.43 L918.05 1186.14 L918.89 1186.14 L920 1185.63 L921.11 1186 L921.82 1187.14 L921.85 1189.02 L922.61 1189.02 L922.68 1187.86 L922.88 1186.98 L923.52 1185.25 L924.77 1197.76 L927.96 1208.78 L936.52 1228.59 L933.79 1228.9 L934.43 1229.74 L937.45 1230.96 L938.04 1232.21 L940.78 1236.35 L941.67 1237.24 L946.75 1243.96 L947.47 1245.95 L948.68 1252.69 L947.54 1252.14 L946.71 1251.27 L946.15 1250.13 L946.27 1251.98 L946.88 1261.27 L947.6 1262.71 L947.76 1263.67 L947.47 1264.23 L946.18 1264.18 L945.42 1265.66 L944.52 1266.33 L944.06 1267.26 L944.88 1269.09 L945.76 1266.31 L945.88 1265.17 L950.47 1277.8 L952.86 1281.07 L953.47 1283.01 L953.32 1290.62 L953.6 1292.58 L954.32 1294.91 L956.11 1298.9 L960.43 1303.62 L961.68 1305.52 L962.22 1307.45 L963.12 1313.27 L961.72 1315.44 L963.67 1320.27 L968.26 1327.72 L965.71 1327.4 L964.68 1326.08 L964.01 1324.36 L962.62 1322.84 L959.49 1322.24 L959.23 1324.41 L960.79 1327.26 L965.01 1329.6 L966.41 1331.79 L970.12 1341.79 L971.98 1357.47 L973.17 1359.43 L976.77 1362.36 L977.56 1363.69 L976.62 1374.69 L977.09 1380.09 L975.97 1380.6 L972.44 1380.6 L972.12 1379.1 L972.91 1370.95 L971.05 1364.02 L969.95 1361.65 L968.26 1363.21 L967.87 1364.63 L967.33 1369.9 L965.93 1372.53 L965.77 1373.52 L967.33 1372.86 L968.33 1376.11 L969.22 1377.24 L970.97 1377.56 L969.46 1379.22 L967.76 1380.53 L966.52 1382.28 L966.32 1385.29 L967.96 1388.44 L968 1388.58 L968.26 1389.59 L968.26 1393.45 L968.58 1396.21 L969.42 1399.2 L970.73 1401.59 L972.44 1402.57 L972.54 1403.19 L974.17 1404.45 L975.97 1405.49 L976.62 1405.44 L977.08 1406.74 L977.03 1407.66 L976.3 1408.18 L974.76 1408.31 L974.76 1409.26 L975.35 1409.85 L975.57 1410.28 L975.76 1412.12 L974.6 1410.91 L971.58 1405.59 L970.15 1402.15 L966.5 1397.91 L965.47 1395.8 L964.48 1395.8 L964.33 1398.06 L965.07 1399.06 L966.24 1399.64 L967.33 1400.66 L968.01 1402.18 L968.56 1404.96 L969.11 1406.4 L970.88 1408 L972.12 1408.72 L971.98 1409.55 L971.45 1410.22 L970.97 1410.12 L971.91 1411.62 L974.76 1415.07 L975.76 1415.07 L976.28 1414.3 L976.79 1413.91 L978.49 1413.16 L978.02 1414.53 L976.86 1416.15 L976.62 1417.38 L977.06 1419.18 L978.21 1420.33 L979.72 1420.59 L981.26 1419.76 L981.95 1421.19 L980.81 1423.06 L981.26 1424.63 L979.95 1427.23 L979.07 1428.42 L977.56 1429.39 L976.44 1427.9 L973.5 1427.32 L972.91 1426 L973.57 1425.04 L975 1424.44 L976.31 1423.57 L976.62 1421.76 L975.8 1420.81 L971.46 1417.86 L970.15 1417.95 L969.09 1418.44 L968.19 1419.61 L967.33 1421.76 L968.06 1422.91 L967.73 1424 L967.66 1425.16 L969.11 1426.54 L968.06 1427.54 L967.6 1428.94 L967.33 1431.3 L969.67 1432.48 L971.98 1435.68 L973.84 1436.95 L975.33 1435.5 L976.46 1435.28 L977.56 1436.95 L977.76 1438.53 L977.32 1439.59 L976.28 1440.09 L974.76 1439.98 L974.76 1440.84 L975.43 1441.47 L975.78 1442.27 L975.89 1443.3 L975.76 1444.66 L975.1 1444.16 L973.57 1443.36 L972.91 1442.84 L972.28 1444.07 L971.98 1444.15 L970.97 1444.66 L972.83 1449.46 L974.04 1451.45 L975.76 1453.33 L975.57 1448.96 L976.04 1447.27 L977.56 1446.57 L977.56 1445.7 L976.96 1444.63 L977.06 1443.88 L977.63 1443.79 L978.49 1444.66 L979.02 1445.87 L979.28 1447.18 L979.42 1450.05 L979.12 1451.11 L977.56 1454.29 L977.59 1455.69 L978.49 1458.58 L978.15 1460.85 L977.5 1462.99 L977.13 1465.19 L977.56 1467.64 L978.67 1469.54 L980 1471.3 L980.82 1473.15 L980.41 1474.4 L982.15 1475.52 L983.28 1476.69 L986.09 1481.78 L989.7 1485.83 L992.38 1490.16 L998.07 1496.81 L998.99 1498.31 L999.3 1500.49 L999.17 1503.1 L998.71 1505.45 L998.06 1506.88 L997.44 1507.15 L995.03 1507.86 L994.36 1507.82 L994.01 1506.85 L994.72 1506.19 L995.7 1505.66 L996.2 1505.06 L996.51 1504.49 L996.96 1503.9 L996.81 1503.42 L995.35 1503.15 L992.5 1505.06 L992.07 1505.78 L991.22 1507.96 L990.63 1508.79 L989.51 1509.25 L988.32 1509.32 L988.06 1509.38 L987.12 1509.59 L985.91 1510.68 L986.82 1511.84 L986.95 1513.51 L986.84 1515.46 L986.92 1517.44 L992.97 1529.27 L995.08 1531.65 L997.13 1531.71 L999.6 1533.59 L1000 1534.14 L999.67 1535.22 L998.87 1535.6 L997.94 1535.85 L997.13 1536.56 L996.81 1538.64 L997.28 1544.33 L997.13 1546.07 L995.63 1546.93 L994.22 1545.36 L992.5 1541.23 L991.97 1540.57 L991.36 1540.17 L990.85 1539.49 L990.63 1537.98 L991.05 1537.72 L993.43 1535.52 L993.43 1534.66 L990.63 1529.81 L990.37 1531.13 L989.61 1531.81 L988.44 1531.98 L986.92 1531.71 L987.45 1532.96 L987.64 1534.14 L987.45 1535.32 L986.92 1536.56 L986.12 1535.15 L985.19 1534.16 L983.93 1533.63 L982.27 1533.62 L984.73 1530.11 L985.06 1529.38 L985.65 1528.97 L986.92 1528.49 L988.19 1527.72 L988.78 1526.44 L988.3 1524.22 L985.92 1521.06 L985.06 1519.34 L985.06 1515.1 L984.56 1514.49 L983.06 1514.84 L982.59 1515.7 L982.42 1516.8 L981.77 1517.87 L977.09 1520.96 L975.76 1522.2 L972.41 1526.34 L970.49 1528.18 L968.69 1528.95 L967.52 1529.86 L963.62 1535.52 L963.58 1536.85 L964.05 1542.27 L963.02 1543.21 L963.14 1545.35 L963.62 1547.61 L963.62 1548.93 L964.01 1549.07 L964.34 1549.06 L964.53 1549.23 L964.48 1549.88 L965.47 1549.88 L965.94 1548.46 L966.17 1546.84 L966.75 1545.54 L968.26 1545.12 L968.26 1544.26 L967.33 1544.26 L967.33 1543.21 L969.62 1544.01 L969.36 1545.9 L968.1 1548.21 L967.33 1550.31 L968.01 1552.82 L969.67 1554.6 L976.33 1558.99 L977.04 1560.16 L975.66 1563.02 L975.78 1564.42 L976.35 1565.56 L977.09 1566.04 L979.1 1566.76 L981.54 1568.44 L982.8 1570.37 L981.26 1571.84 L982.27 1572.79 L981.26 1573.73 L979.62 1571.79 L978.69 1573.07 L977.79 1575.41 L976.2 1576.67 L974.16 1575.99 L972.78 1574.34 L970.97 1570.89 L965.06 1564.26 L960.92 1561.65 L957.04 1562.24 L957.7 1563.06 L958.45 1564.56 L958.9 1565.18 L957.49 1564.57 L957.04 1564.23 L956.11 1564.23 L956.79 1566.11 L958.93 1568.41 L959.82 1569.94 L962.45 1569.47 L963.85 1571.64 L964.38 1574.98 L964.48 1578.01 L964.88 1579.19 L965.84 1580.64 L966.93 1581.87 L968.67 1583.02 L968.69 1584.25 L967.9 1585.01 L966.32 1584.28 L965.47 1584.28 L964.95 1585.2 L963.62 1588.94 L960.56 1587.58 L959.82 1587.04 L960.57 1588.25 L961.81 1589.28 L964.48 1590.93 L963.61 1593.04 L964.18 1594.67 L965.35 1596.09 L966.32 1597.57 L962.75 1596.58 L961.36 1596.89 L960.82 1598.52 L961.72 1597.66 L961.68 1597.57 L963.55 1598.55 L964.27 1599.63 L964.48 1601.47 L964.73 1602.42 L964.68 1602.88 L964.89 1603.45 L965.9 1604.7 L966.6 1606.33 L966.04 1607.56 L964.48 1609.06 L964.31 1610.25 L964.84 1616.03 L965.75 1618.47 L969.64 1625.87 L970.88 1627.34 L974.76 1630.03 L974.76 1630.9 L974.3 1633.36 L974.3 1633.83 L971.98 1635.73 L971.91 1638.03 L972.59 1640.1 L973.94 1641.63 L975.76 1642.37 L975.76 1643.4 L973.54 1644.29 L971.3 1644.17 L969.42 1643.16 L968.26 1641.43 L967.8 1641.71 L966.8 1642.07 L966.32 1642.37 L965.21 1638.17 L966.04 1628.06 L964.48 1623.3 L965.47 1623.3 L962.39 1615.09 L961.08 1609.13 L959.8 1607.5 L957.97 1609.93 L959.7 1613.19 L960.33 1613.73 L960.53 1614.23 L959.82 1618.13 L960.56 1619.54 L963.75 1622.5 L964.48 1624.72 L964.07 1628.75 L962.78 1632.71 L960.48 1636.39 L957.04 1639.53 L954.42 1639.95 L952.87 1644.46 L953.65 1649.13 L957.97 1649.96 L958.63 1648.69 L960.63 1645.93 L962.67 1643.65 L963.62 1643.83 L963.08 1645.82 L962.15 1647.58 L961.99 1649.47 L963.62 1651.86 L963.48 1654.87 L963.45 1655.44 L968.79 1662.23 L967.33 1665.22 L966.32 1664.18 L965.37 1665.23 L964.18 1668.07 L961.77 1671.08 L961.43 1672.29 L961.37 1673.67 L960.82 1675.73 L960.04 1676.68 L957.57 1678.79 L957.04 1679.91 L956.71 1681.49 L955.92 1683 L954.25 1685.21 L953.32 1685.21 L951.69 1683.81 L949.7 1683.7 L947.41 1683.88 L944.88 1683.32 L943.33 1681.54 L942.3 1676.72 L941.67 1675.73 L938.51 1676.52 L938.71 1678.25 L940.27 1680.01 L941.25 1680.86 L940.97 1682.78 L940.47 1684.66 L940.38 1686.69 L941.25 1689 L938.38 1689.08 L937.45 1689 L939.54 1692.52 L939.61 1698.52 L938.38 1707.95 L938.81 1713.32 L938.22 1714.94 L936.52 1716.64 L933.14 1719.41 L931.14 1720.65 L929.19 1721.29 L926.7 1721.14 L920.75 1718.45 L918.61 1718 L916.19 1717.98 L913.74 1718.43 L911.46 1719.41 L906.91 1722.6 L905.18 1724.29 L903.95 1726.03 L902.83 1728.55 L901.17 1735.58 L900.14 1737.99 L898.95 1739.12 L897.34 1739.45 L895.03 1739.45 L893.66 1739.13 L890.77 1737.78 L889.01 1737.56 L887.65 1737.88 L884.9 1739.08 L883.44 1739.45 L878.29 1739.45 L877.51 1739.89 L875.85 1741.77 L872.02 1743.04 L869.67 1745.05 L867.81 1747.53 L866.64 1749.77 L865.31 1755.4 L864 1756.91 L860.56 1757.42 L859.49 1757.81 L854.65 1760.26 L853.23 1760.52 L850.95 1760.64 L849.93 1761.12 L849.11 1762.93 L847.35 1769.28 L846.69 1770.67 L844 1770.98 L842.67 1771.99 L840.58 1776.35 L839.71 1776.35 L838.57 1772.12 L834.94 1770.95 L818.13 1774.29 L814.25 1775.61 L812.62 1777.85 L811.89 1779.23 L808.71 1782.56 L807.97 1784.47 L807.54 1786.14 L805.62 1790.05 L804.59 1795.74 L799.54 1805.9 L798.61 1805.9 L797.14 1805.01 L791.11 1803.23 L788.82 1802.89 L785.93 1803.05 L783.77 1803.46 L775.83 1806.87 L770.16 1811.66 L768.27 1812.7 L763.23 1814.41 L754.39 1819.13 L751.44 1819.56 L748.28 1820.67 L743.55 1823.31 L742.74 1823.76 L741.37 1824.87 L737.79 1828.48 L737.09 1829.94 L735.93 1831.7 L733.33 1833.25 L724.64 1837.17 L722.2 1837.85 L716.09 1838.62 L710.7 1840.34 L709.23 1839.91 L708.12 1841.44 L704.13 1845.14 L700.77 1850.28 L698.38 1850.23 L693.2 1847.1 L689.65 1846.59 L690.3 1845.37 L691.41 1844.93 L692.57 1844.63 L693.37 1843.77 L693.29 1842.54 L692.61 1841.29 L691.72 1840.3 L691.05 1839.91 L690.39 1839.43 L687.72 1836.6 L687.07 1836.74 L685.67 1836.73 L684.11 1836.53 L683.07 1836.13 L683.07 1838.1 L682.22 1838.1 L680.48 1836.22 L677.77 1834.87 L674.91 1834.64 L672.78 1836.13 L671.92 1836.13 L672.31 1834.93 L672.39 1834.17 L671.92 1832.35 L670.65 1835.08 L669.67 1836.28 L668.13 1837.07 L667.35 1834.44 L667.28 1833.29 L665.28 1834.29 L664.28 1835.06 L663.49 1836.13 L662.63 1836.13 L663.03 1833.95 L664.35 1832.83 L665.72 1832.28 L665.96 1832.18 L667.28 1831.4 L668.24 1829.89 L668.44 1828.52 L668.13 1818.61 L667.73 1817.74 L665.94 1815.81 L665.34 1814.41 L665.78 1814.74 L667.28 1815.35 L667.23 1814.77 L667.01 1811.86 L665.58 1809.59 L661.63 1805.9 L661.03 1807.92 L662.44 1809.47 L664.37 1810.76 L665.34 1812 L664.14 1815.44 L664.12 1817.29 L665.8 1818.1 L667.2 1819.11 L666.88 1821.37 L665.34 1824.79 L665.75 1825.81 L666.69 1826.55 L667.44 1827.37 L667.28 1828.58 L666.38 1828.8 L665.12 1828.09 L663.49 1826.69 L664.49 1825.74 L662.63 1823.76 L662.63 1822.9 L663.29 1821.7 L663.55 1820.03 L663.49 1816.2 L662.63 1816.2 L661.73 1820.09 L661.63 1824.23 L662.69 1827.94 L665.34 1830.46 L664.28 1831.03 L663.03 1831.7 L660.01 1837.04 L658.84 1838.1 L657.97 1837.4 L658.17 1836.19 L658.71 1834.72 L658.84 1833.29 L658.26 1831.84 L657.61 1831.2 L656.85 1830.64 L656.05 1829.43 L655.32 1826.74 L655.39 1824.27 L656.05 1819.56 L648.91 1813.47 L647.69 1812.43 L645.81 1813.4 L643.21 1814.73 L640.48 1815.46 L639.26 1813.94 L638.52 1812.43 L636.77 1810.39 L635.71 1809.48 L634.66 1808.56 L632.85 1807.7 L632.26 1807.93 L632.14 1807.98 L629.46 1809.46 L628.63 1810.07 L628 1811.61 L628.93 1812.52 L630.29 1813.18 L630.99 1813.94 L631.29 1815.29 L632.85 1819.13 L632.38 1820.72 L631.69 1821.5 L630.86 1822.04 L630.06 1822.9 L629.26 1825.13 L628.99 1826.26 L628.57 1827.95 L627.54 1830.38 L625.83 1831.4 L621.47 1832.98 L619.24 1832.9 L617.91 1830.46 L616.98 1830.46 L617.44 1832.51 L617.89 1833.33 L618.74 1834.24 L617.24 1834.57 L615.72 1835.33 L614.57 1836.39 L613.53 1839.2 L612.13 1840.03 L610.32 1840.72 L608.61 1841.88 L608.7 1839.57 L608.32 1837.81 L607.65 1836.41 L606.66 1835.18 L606.93 1840.01 L607.59 1841.96 L609.04 1842.74 L611.49 1842.25 L613.48 1840.98 L615.02 1839.16 L616.05 1837.07 L616.98 1837.07 L617.64 1839 L617.95 1841.24 L618.94 1842.81 L621.6 1842.74 L622.72 1841.64 L624.85 1837.9 L626.27 1837.07 L628.58 1837.91 L630.03 1839.91 L631.12 1842.29 L632.38 1844.2 L634.14 1846.23 L634.97 1848.26 L635.97 1860.19 L635.34 1863.23 L633.27 1864.54 L630.61 1864.29 L623.55 1862.65 L609.17 1862.72 L599.23 1860.78 L594.1 1860.76 L591.45 1860.12 L589.31 1858.9 L587.32 1858.11 L585.24 1858.79 L593.12 1863.78 L625.83 1875 L626.56 1875.44 L628.75 1877.39 L629.56 1877.83 L630.28 1878.12 L630.92 1878.77 L631.85 1879.42 L633.27 1879.72 L634.64 1879.8 L635.66 1880.13 L636.27 1880.86 L636.47 1882.12 L636.2 1885.26 L635.4 1887.36 L628.03 1895.1 L625.83 1896.38 L623.55 1895.83 L624.25 1894.76 L624.39 1893.48 L624.13 1892.18 L623.55 1891.03 L622.53 1891.03 L621.93 1893.38 L621.6 1893.94 L619.83 1895.78 L619.07 1896.92 L618.74 1898.1 L619.26 1898.51 L620.21 1899.68 L620.83 1900.92 L620.21 1901.48 L618.13 1901.74 L617.66 1902.38 L617.69 1903.29 L616.74 1904.65 L616.4 1905.68 L616.05 1906.12 L615.5 1906.25 L610.41 1906.05 L608.18 1905.23 L606.26 1903.82 L604.36 1901.96 L602.3 1900.46 L595.53 1897.63 L591.57 1894.43 L588.1 1890.21 L576.74 1872.09 L572.85 1868.11 L567.51 1866.43 L568.24 1867.22 L568.97 1867.58 L569.67 1867.85 L573.75 1871.07 L575.31 1872.9 L576.51 1878.19 L577.91 1881.04 L590.59 1897.65 L593.67 1900.46 L604.16 1905.46 L611.33 1911 L618.99 1915.09 L621.14 1915.63 L622.49 1916.86 L622.07 1919.64 L620.61 1922.58 L618.74 1924.27 L618.74 1923.25 L619.6 1922.24 L619.79 1920.97 L619.47 1919.68 L618.74 1918.63 L617.91 1918.63 L617.27 1923.48 L614.54 1926.6 L610.94 1927.83 L607.59 1927.02 L604.41 1924.42 L596.39 1915.63 L593.04 1913.07 L581.52 1906.12 L547.5 1871 L546.36 1870.18 L545.11 1869.5 L544.31 1869.33 L543.87 1869.69 L543.21 1870.22 L543.83 1870.91 L545.14 1871.53 L546.16 1872.17 L549.27 1875.59 L550.38 1877.56 L551.31 1882.2 L552.57 1884.2 L554.1 1885.97 L557.05 1888.73 L561.31 1891.88 L566.32 1895.58 L567.51 1896.77 L568.35 1897.98 L569.5 1900.28 L570.3 1901.48 L577.25 1908.09 L578.02 1908.52 L580.69 1911.86 L592.5 1921.66 L595.93 1925.49 L598.32 1929.93 L599.54 1935.4 L600.94 1936.92 L604.36 1937.47 L605.99 1938.59 L606.65 1941.17 L606.75 1944.03 L606.07 1951.07 L604.38 1955.8 L601.74 1959.84 L598.32 1962.89 L595.42 1964.67 L593.74 1965.07 L592.19 1964.4 L590.95 1964.02 L589.53 1964.6 L587.56 1965.89 L581.95 1965.77 L580.16 1964.91 L573.65 1959.89 L561.85 1953.48 L536.6 1929.6 L523.79 1913.51 L518.68 1908.74 L514.76 1905.83 L510.05 1904.6 L505.78 1901.88 L503.19 1901.48 L505.83 1905.42 L514.49 1914.08 L537.8 1937.37 L538.65 1939.74 L539.16 1942.18 L540.44 1944.96 L554.6 1965.89 L555.49 1967.87 L556.06 1969.99 L556.46 1975.7 L555.79 1977.45 L550.81 1982.84 L552.13 1984.19 L553.35 1984.73 L554.26 1985.49 L554.6 1987.46 L554.1 1989.58 L552.82 1990.56 L548.94 1991.3 L530.28 1997.03 L509.89 2005.38 L495.16 2011.41 L465.08 2022.64 L461.74 2025.5 L455.76 2031.92 L452.14 2034.74 L450.69 2036.56 L450.1 2038.98 L449.75 2039.35 L448.02 2039.81 L447.33 2040.38 L447.22 2041.02 L447.43 2042.55 L447.33 2043.2 L437.23 2062.52 L434.67 2066.3 L431.69 2069.66 L427.01 2073.42 L421.29 2074.24 L416.84 2076.12 L412.82 2080.94 L409 2087.23 L405.62 2090.78 L396.54 2093.27 L372.27 2100.23 L369.08 2099.74 L368.28 2099.26 L367.62 2098.64 L366.63 2098.09 L358.12 2096.77 L354.9 2095.56 L354.14 2095.13 L353.77 2093.61 L354.84 2093.25 L356.47 2093.84 L359.09 2093.35 L365.77 2088.94 L367.22 2088.06 L368.45 2087.72 L369.4 2087.18 L369.93 2085.74 L369.27 2084.36 L367.85 2083.64 L367.27 2083 L369.08 2081.9 L370.82 2082 L379.8 2083.78 L381.73 2083.34 L383.99 2082.23 L385.89 2080.72 L386.81 2079.08 L383.56 2080.63 L379.24 2081.8 L374.98 2081.85 L371.87 2080.02 L371.2 2078.5 L371.8 2077.73 L373.36 2077.37 L375.59 2077.12 L378.87 2077.12 L379.87 2076.88 L382.16 2075.24 L382.16 2074.38 L380.82 2072.05 L380.43 2069.29 L381.15 2066.7 L372.5 2070.54 L366.89 2071.93 L363.49 2070.18 L361.17 2065.53 L362.64 2060.26 L364.11 2055.43 L366.22 2049.12 L365.79 2043.86 L365.58 2034.18 L366.12 2022.19 L367.22 2013.88 L368.09 1993.62 L368.17 1985.22 L369.08 1969.57 L369.47 1963.82 L372.31 1938.74 L374.46 1931.15 L377.24 1923.13 L383.58 1923.35 L387.74 1922.78 L388.68 1920.35 L390.91 1918.02 L399.28 1911.77 L402.24 1910.39 L403.61 1911.42 L403.97 1913.64 L407.22 1922.31 L407.2 1920.38 L406.38 1915.2 L406.38 1909.11 L405.48 1906.15 L403.74 1903.03 L397.62 1894.97 L392.26 1889.86 L389.6 1888.29 L386.91 1887.96 L381.53 1889.28 L378.36 1889.14 L373.99 1886.54 L370.79 1882.25 L368.08 1877.6 L365.28 1873.97 L360.81 1871.27 L356.26 1870.62 L352.03 1871.87 L348.48 1875 L348.02 1876.32 L348.04 1877.53 L347.71 1878.42 L346.2 1878.77 L345.36 1879.37 L344.79 1882.02 L344.35 1882.62 L339.6 1882.35 L339.2 1882.62 L338.47 1881.38 L338.75 1880.48 L339.27 1879.46 L339.2 1877.83 L338.61 1876.92 L336.81 1874.83 L336.41 1873.53 L336.41 1869.77 L335.91 1866.54 L334.62 1864.61 L330.83 1861.7 L330.27 1862.59 L330.1 1862.97 L330 1863.59 L328.91 1863.59 L328.71 1859.81 L327.35 1857.15 L324.34 1853.2 L323.7 1851.38 L324.09 1851.05 L325.07 1851.08 L326.2 1850.28 L327.24 1848.72 L327.91 1847.37 L327.98 1846.05 L327.21 1844.63 L326.2 1844.63 L325.11 1846.76 L323.7 1848.44 L321.9 1849.62 L319.69 1850.28 L317.52 1850.1 L317.45 1848.6 L317.82 1846.32 L317.21 1844.59 L319.69 1845.13 L321.61 1844.82 L323.05 1843.48 L328.72 1835.14 L329.85 1832.96 L331.17 1830.95 L332.91 1829.6 L335.05 1829.12 L340.9 1828.87 L351.11 1830.13 L354.34 1830.53 L361.06 1831.36 L367.18 1831.11 L372.02 1829.15 L375.3 1825.74 L380.9 1817.16 L382.48 1815.4 L384.25 1813.89 L397.59 1807.08 L400.9 1803.88 L400.82 1799.39 L395.96 1790.36 L393.83 1785.16 L393.37 1780.37 L394.25 1778.18 L395.77 1776.18 L397.06 1775 L397.63 1774.48 L399.41 1773.22 L402.41 1771.63 L403.21 1772.22 L403.52 1774.04 L405.08 1776.14 L407.02 1776.8 L420.26 1779.28 L426.26 1780.41 L428.36 1781.77 L433.02 1785.88 L435.05 1786.59 L436.35 1785.29 L440.4 1777.02 L445.93 1770.57 L447.64 1769.4 L448.26 1769.72 L452.11 1770.79 L455.16 1772.33 L456.26 1772.46 L463.02 1771.02 L475.75 1768.32 L477.79 1767.88 L480.88 1766.45 L483.44 1764.79 L483.48 1764.77 L486.64 1762.86 L490.56 1761.73 L494.2 1762.11 L496.49 1764.77 L498.9 1768.99 L503.52 1775.4 L504.49 1777.5 L506.05 1782.32 L507.07 1784.3 L508.9 1786.53 L511.31 1788.09 L514.12 1788.04 L515.38 1786.66 L516.99 1783.92 L518.26 1780.89 L518.47 1778.63 L523 1782.34 L524.26 1783.83 L526.79 1786.74 L530.24 1789.23 L534.02 1791.16 L537.62 1792.41 L545.33 1793.17 L548.89 1794.07 L551.92 1796.56 L548.42 1783.25 L545.07 1776.88 L544.37 1774.63 L544.59 1774.32 L544.76 1770.76 L544.46 1770.44 L545.23 1769.02 L545.68 1768.53 L548.08 1768.25 L550.97 1768.35 L552.39 1768.4 L553.35 1767.56 L551.83 1764.8 L549.6 1756.86 L548.03 1754.48 L545.6 1752.6 L543.24 1752.23 L541.14 1753.48 L539.58 1756.47 L538.21 1753.6 L536.38 1751.34 L531.63 1747.28 L529.59 1744.98 L526.27 1739.75 L524.26 1737.89 L516.98 1736.1 L514.19 1733.98 L512.77 1730.15 L512.77 1730.13 L512.4 1727.14 L510.6 1726.04 L508.38 1725.47 L506.65 1724.1 L506.51 1722.13 L508.76 1711.7 L510.27 1706.98 L510.65 1704.91 L510.42 1702.8 L508.31 1695.47 L508.61 1691.85 L508.47 1690.01 L507.84 1688.45 L506.34 1687.32 L502.72 1686.66 L501.06 1685.76 L499.68 1683.45 L499.3 1682.82 L499.71 1680.06 L501.27 1677.61 L503.06 1675.66 L503.46 1675.31 L506.16 1673 L508.48 1672.52 L514.95 1674.92 L518.84 1675.12 L520.48 1673.15 L521.72 1670.24 L525.5 1666.26 L526.27 1664.55 L526.62 1662.68 L526.73 1660.75 L529.9 1657.4 L536.13 1658.45 L543.2 1660.65 L548.83 1660.75 L558.21 1663.72 L560.88 1665.16 L561.9 1666.35 L563.86 1669.41 L565.08 1670.41 L566.88 1670.72 L574.54 1668.71 L575.98 1668.56 L577.33 1668.78 L579.22 1669.43 L582.21 1671.56 L583.94 1672.5 L585.71 1672.45 L586.96 1670.34 L586.9 1670.18 L585.75 1667.12 L582.04 1660.75 L581.89 1658.56 L582.63 1656.65 L583.74 1654.8 L584.68 1652.82 L584.87 1651.62 L584.95 1649 L585.11 1648.08 L587.12 1644.8 L587.47 1644.44 L586.7 1641.02 L582.67 1633.44 L581.57 1630.26 L581.38 1629.7 L584.57 1628.86 L586.16 1628.72 L587.92 1629 L589.14 1629.89 L589.69 1631.1 L590.43 1632.05 L592.22 1632.16 L596.41 1629.2 L602.93 1629.28 L614.64 1630.91 L613.56 1628.82 L620.34 1630.36 L623.21 1629.56 L625.86 1626.01 L627.45 1621.49 L629.69 1618.23 L632.78 1616.35 L635.31 1616.13 L637 1615.98 L647.37 1616.78 L652.41 1616.2 L657.45 1614.23 L660.75 1611.98 L670.04 1602.64 L674.34 1597.3 L677.96 1594.74 L679.59 1593.22 L680.51 1591.26 L684.53 1586.97 L692.6 1582.98 L694.77 1582.3 L701.34 1580.24 L707.33 1579.71 L710.54 1581.67 L714.62 1588.03 L717.23 1590.34 L720.34 1590.16 L724.93 1583.91 L728.22 1581.63 L731.72 1580.18 L733.72 1577.67 L734.81 1574.5 L735.49 1571.09 L739.49 1559.73 L739.5 1556.47 L739.49 1556.45 L738.53 1554.64 L738.82 1553.13 L739.66 1551.63 L740.41 1549.85 L740.89 1545.63 L740.63 1541.1 L737.23 1525.73 L736.91 1521.57 L737.03 1517.82 L736.67 1514.17 L734.82 1510.28 L731.01 1505.92 L730.06 1504.28 L729.52 1502.18 L729.01 1497.95 L727.48 1494.43 L727.17 1492.89 L727.41 1491.37 L728.22 1490 L728.92 1489.44 L729.25 1488.69 L729.21 1487.78 L728.87 1486.76 L726.75 1485.19 L726.4 1483.2 L740.16 1449.63 L741.97 1445.21 L746.32 1434.57 L746.81 1430.29 L745.97 1416.57 L744.96 1411.46 L733.72 1389.42 L731.34 1386 L728.22 1382.55 L727.94 1381.93 L726.65 1379.81 L724.06 1376.7 L723.37 1374.59 L723.42 1373.13 L724.3 1370.12 L724.47 1368.87 L722.99 1364.62 L723.6 1362.27 L724.34 1360.68 L724.72 1359.07 L724.44 1357.34 L724.32 1356.64 L722.4 1352.53 L722.28 1351.25 L722.45 1349.91 L722.36 1348.54 L721.51 1347.2 L719.41 1346.38 L714.32 1346.89 L712 1346.03 L710.45 1343.47 L710.5 1340.63 L710.96 1337.72 L710.67 1334.97 L709.16 1332.55 L707.87 1331.21 L707.3 1329.56 L707.95 1326.2 L712.55 1312.91 L713.23 1307.96 L713.25 1306.64 L712.87 1305.23 L711.67 1302.53 L711.37 1301.27 L711.62 1298.4 L712.61 1295.83 L715.38 1290.89 L715.77 1289.61 L715.98 1288.34 L716.4 1287.18 L717.48 1286.17 L719.24 1285.62 L720.04 1286.22 L720.54 1287.16 L721.42 1287.59 L724.05 1286.93 L725.76 1285.5 L726.99 1283.37 L728.62 1279.69 L729.12 1277.78 L729.25 1276.78 L729.84 1274.87 L731.79 1272.03 L732.49 1270.45 L732.66 1268.22 L732.13 1264.05 L732.33 1261.87 L735.49 1254.74 L736.19 1251.21 Z M556.46 1954.89 L558.18 1956.61 L565.79 1958.37 L567.51 1959.65 L567.33 1963.1 L566.48 1965.54 L564.52 1966.81 L561 1966.74 L561 1965.89 L561.69 1963.28 L559.64 1960.35 L556.69 1957.81 L554.6 1956.39 L553.59 1957.25 L555.63 1959.81 L557.92 1961.57 L558.61 1962.58 L555.96 1962.89 L554.54 1961.68 L549.88 1954.42 L546.49 1950.28 L544.94 1947.79 L544.31 1945.48 L543.81 1942.48 L542.59 1940.31 L539.66 1936.45 L540.51 1935.58 L540.82 1936.29 L541.26 1936.72 L542.37 1937.47 L548.94 1946.89 L555.46 1953.34 Z M626.27 1865.47 L629.36 1866.22 L630.55 1867 L630.99 1868.82 L630.13 1869.97 L628.2 1870.92 L626.27 1871.29 L625.41 1870.67 L624.26 1868.93 L621.63 1867.8 L603.9 1864.54 L597.39 1861.7 L599.48 1861.53 L604.08 1863.5 L607.75 1864.32 L623.38 1864.51 Z M687.18 1838.38 L691.35 1842.05 L692.51 1843.77 L691.74 1843.42 L691.37 1843.31 L691.08 1843.18 L690.58 1842.74 L689.65 1842.74 L689.32 1844.46 L688.34 1845.18 L687.33 1845.77 L686.34 1848.54 L685.1 1849.32 L682.22 1850.28 L680.32 1852.02 L677.47 1856.28 L675.64 1857.93 L673.82 1851.09 L674.58 1848.55 L680.09 1847.13 L684.14 1845.02 L685 1844.2 L685.1 1842.77 L685.47 1841 L686.12 1839.38 Z M655.12 1841.88 L658.05 1843.77 L659.56 1845.04 L660.7 1846.59 L654.06 1848.21 L651.35 1849.42 L649.55 1851.32 L648.55 1851.32 L648.55 1848.8 L647.9 1846.89 L647.12 1845.32 L646.69 1843.77 L647.06 1841.25 L649.15 1838.28 L649.55 1836.13 L648.55 1836.13 L648.55 1838.1 L647.39 1834.86 L648.61 1832.81 L651.11 1831.5 L653.93 1830.55 L656.73 1832.51 L656.09 1836.71 L653.19 1843.77 L654.2 1843.77 Z M651.41 1829 L650.61 1830.46 L648.82 1829.96 L646.89 1828.63 L645.76 1827.54 L645.56 1827.13 L644.2 1824.95 L643.9 1824.79 L644.2 1823.56 L645.46 1822.45 L645.76 1821.45 L646.28 1818.59 L645.83 1817.28 L643.9 1816.2 L643.9 1815.35 L645.4 1814.95 L647.16 1814.73 L648.55 1814.88 L648.78 1815.88 L651.94 1817.98 L652.61 1819.13 L653.21 1819.48 L653.86 1819.74 L654.2 1819.99 L654.29 1821.02 L653.92 1821.57 L653.43 1821.92 L653.19 1822.39 L653.53 1823.91 L654.12 1825.41 L654.23 1826.7 L653.19 1827.54 L652.47 1827.08 L651.68 1825.74 L650.48 1822.9 L649.55 1822.9 L649.89 1824.63 L651.14 1827.16 Z M980.41 1594.73 L981.49 1595.19 L982.28 1595.85 L982.84 1596.66 L983.2 1597.57 L982.59 1598.11 L981.11 1599.13 L980.41 1599.47 L979.68 1598.56 L978.81 1598.04 L977.79 1598 L976.62 1598.52 L977.01 1598.82 L977.19 1598.8 L977.32 1598.89 L977.56 1599.47 L974.87 1599.23 L972.38 1597.87 L970.38 1596.14 L969.11 1594.73 L969.11 1593.78 L970.02 1594.07 L971.98 1594.41 L972.91 1594.73 L972.85 1594.24 L972.91 1592.74 L975.4 1593.75 Z M617.91 2076.27 L614.72 2076.59 L614.77 2078.1 L616.15 2080.11 L616.98 2081.9 L615.25 2081.22 L613.82 2081.29 L612.46 2081.67 L610.9 2081.9 L609.71 2082.47 L609.45 2083.81 L609.54 2085.37 L609.45 2086.59 L609.58 2087.23 L609.81 2087.84 L609.3 2088.29 L607.13 2088.47 L606.45 2087.87 L604.33 2085.08 L603.9 2084.24 L605.45 2080.92 L609.12 2077.3 L613.56 2074.23 L617.33 2072.57 L617.91 2072.79 L618.37 2073.05 L618.67 2073.53 L618.74 2074.38 L618.35 2074.47 L616.98 2074.38 L617.66 2075.22 L617.8 2075.63 Z M595.53 1917.6 L600.01 1922.18 L601.8 1924.94 L600.64 1926.16 L598.65 1924.98 L595.37 1919.8 L591.51 1917.73 L585.24 1911.86 L585.24 1911 L585.86 1911.4 L588.03 1911.86 L593.89 1916.02 Z M266.99 1851.32 L267.46 1853.68 L267.46 1868.3 L262.18 1881.71 L260.38 1889.32 L262.81 1893 L261.81 1895.93 L261.84 1897.6 L262.36 1899.09 L262.81 1901.48 L260.57 1900.27 L260.04 1899.6 L257.27 1898.37 L255.46 1892.29 L253.61 1880.65 L249.99 1870.28 L247.29 1865.82 L243.39 1862.65 L238.2 1860.02 L236.45 1858.25 L235.36 1852.77 L234.9 1851.28 L235.62 1850.88 L244.17 1852.12 L246.83 1851.96 L247.97 1850.8 L248.27 1850.15 L249.73 1848.01 L250.29 1847.54 L251.5 1846.99 L251.95 1845.66 L252.16 1844.09 L252.6 1842.74 L253.58 1841.47 L254.91 1840.38 L256.48 1840.26 L258.16 1841.88 L257.16 1840.93 Z M646.69 1838.96 L644.49 1838.42 L642.64 1837.64 L640.98 1837.3 L639.26 1838.1 L640.02 1838.48 L640.22 1838.49 L640.42 1838.29 L641.11 1838.1 L643.21 1840.05 L644.7 1842.92 L644.6 1845.5 L642.04 1846.59 L638.82 1845.28 L635.46 1842.17 L632.6 1838.42 L630.99 1835.18 L630.49 1832.98 L630.44 1831.33 L630.99 1827.54 L630.81 1827.46 L630.49 1826.49 L630.06 1824.28 L630.52 1823.85 L632.8 1823.49 L633.68 1822.9 L634.67 1819.46 L633.71 1816.27 L630.06 1810.54 L633.16 1810.51 L634.44 1810.95 L635.66 1812.12 L636.9 1814.16 L637.7 1815 L641.39 1816.05 L643.1 1817.74 L643.9 1819.88 L643.9 1821.87 L642.94 1822.76 L642.31 1823.7 L642.04 1825.27 L642.37 1825.86 L643.87 1828.09 L644.4 1828.58 L645.8 1829.48 L646.36 1831.38 L645.35 1833.07 L642.04 1833.29 L642.04 1834.24 L644.2 1834.34 L645.29 1835.29 L646.69 1838.1 Z M674.71 376.58 L675.38 377.05 L675.77 377.46 L676.57 378.47 L674.97 378.19 L673.99 377.22 L672.78 374.59 L672.29 375.83 L672.33 376.89 L672.85 377.79 L673.78 378.47 L673.78 379.47 L671.99 380.14 L670.65 380.14 L669.47 379.56 L668.13 378.47 L668.8 381.55 L672.95 383.95 L673.78 386.51 L672.78 386.51 L672.78 385.52 L671.92 385.52 L671.27 388.04 L670.06 390.57 L670.06 387.41 L669.07 387.78 L668.67 388.04 L668.13 388.5 L668.13 387.41 L667.28 388.5 L666.68 387.75 L666.27 387.41 L666.27 386.51 L669.13 386.51 L669.13 385.52 L668.59 385.2 L668.47 385.05 L668.44 384.88 L668.13 384.44 L667.28 384.44 L667.28 385.52 L666.27 385.52 L665.8 384.85 L664.96 384.07 L664.49 383.44 L663.49 383.44 L664.1 385.01 L664.49 385.52 L664.49 386.51 L661.76 384.6 L658.68 380.28 L656.98 378.47 L653.06 375.98 L651.54 373.95 L651.94 371.28 L655.12 370.14 L656.05 369.53 L656.55 368.56 L656.52 367.5 L656.73 366.42 L657.99 365.47 L656.98 366.56 L658.84 368.48 L663.04 369.11 L664.49 370.53 L665.34 370.53 L665.48 368.09 L666.88 367.59 L668.68 368.3 L670.06 369.53 L670.06 370.53 L669.63 372.08 L671.26 373.16 L673.44 373.69 L674.71 373.51 L675.64 373.51 L676.16 374.5 L676.77 375.33 L677.5 376.02 L678.43 376.58 L675.59 375.9 L674.71 375.5 Z M642.04 365.02 L642.79 367.04 L647.69 373.51 L648.35 377.21 L646.59 378.17 L644.24 377.68 L643.05 377.04 L642.38 374.66 L639.65 368.86 L639.26 365.47 L638.52 366.73 L638.31 368.01 L638.58 369.29 L639.26 370.53 L638.25 370.53 L636.5 369.42 L634.4 369.03 L632.6 368.12 L631.92 365.47 L633 361.37 L634.61 357.61 L639.93 359.88 L641.48 361.74 Z M735.23 360.59 L738.52 353.92 L739.02 351.56 L739.45 352.02 L739.66 352.48 L739.86 353.54 L739.05 356.86 L737.92 359.31 L731.48 368.91 L730.65 370.53 L729.69 373.48 L728.68 374.53 L726.87 374.59 L729.09 369.44 L729.33 367.13 L727.8 365.47 L727.8 364.57 L730.62 364.45 L732.55 363.93 L733.97 362.72 Z M765.11 344.59 L766.87 345.12 L771.6 348.66 L771.6 349.57 L770.18 349 L769.74 348.66 L768.9 348.66 L769.59 351.52 L768.6 353.76 L766.61 355.44 L764.18 356.61 L766.75 351.75 L766.97 350.06 L766.24 349.18 L764.88 348.39 L764.1 347.06 Z M736.23 344.59 L738.09 342.45 L738.89 341.96 L739.72 342.47 L739.2 344.39 L737.09 349.57 L735.7 354.68 L734.8 356.79 L733.38 358.6 L731.45 359.72 L729.26 360.27 L725.94 360.59 L719.83 362.17 L717.51 362.49 L717.51 361.58 L721.49 359.86 L725.14 357.73 L728.29 355.29 L730.65 352.64 L730.29 351.02 L730.75 348.78 L732.42 344.59 L733.01 345 L734.47 345.58 L734.86 344.29 L736.23 341.62 Z M748.27 330.62 L749.22 330.02 L749.74 330.21 L749.71 331.22 L744.83 341.83 L743.97 346.35 L742.61 349.99 L739.86 349.57 L741.31 349 L741.5 348.09 L741.14 346.81 L740.88 345.09 L741.31 343.65 L743.22 341.75 L743.67 340.11 L743.89 336.85 L744.17 335.62 L744.6 334.56 L745.1 333.84 Z M742.74 316.63 L745.81 315.56 L746.22 315.84 L745.59 317.63 L744.07 319.39 L739.58 322.5 L738.19 324.69 L737.09 324.69 L735.07 324.22 L732.35 327.17 L727.8 333.56 L726.29 334.38 L722.98 335.66 L721.29 336.64 L716.64 340.61 L714.5 338.85 L715.41 335.59 L717.41 331.96 L718.52 329.08 L718.79 327.4 L720.01 323.29 L720.67 318.86 L721.59 318.85 L722.59 320.05 L722.98 319.94 L723.13 318.71 L723.78 317.9 L725.01 317.63 L724.41 316.62 L724.28 314.37 L724.51 310.62 L724.85 308.85 L725.21 307.95 L725.71 307.34 L726.23 307.11 L726.76 307.09 L727.31 307.22 L727.89 307.51 L729.28 308.64 L732.42 312.66 L733.33 313.3 L734.24 313.48 L734.94 313.88 L735.23 315.15 L735.27 316.34 L735.4 317.21 L735.72 317.9 L736.23 318.54 L737.09 318.54 L738.02 317.99 Z M774.41 294.96 L774.7 295.31 L775.05 295.9 L775.21 296.45 L774.9 296.7 L773.85 296.91 L760.53 302.69 L760.93 302.31 L762.49 300.36 L770.39 295.56 L772.62 294.67 Z M781.91 290.64 L799.54 288.64 L799.54 289.55 L794.26 293.01 L792.18 293.85 L791.1 292.63 L790.25 292.63 L789.22 293.19 L779.95 296.43 L778.17 296.7 L778.5 295.2 L779.12 293.53 L779.85 294.99 L780.05 295.62 L780.65 294.43 L781.45 293.56 L782.48 292.95 L779.68 292.79 L776.24 293.53 L776.24 292.63 L780.75 291.2 Z M927.95 1826.3 L930.18 1828.29 L931.16 1831.04 L930.43 1833.09 L927.63 1832.9 L926.26 1831.47 L925.69 1829.3 L926.16 1827.28 Z M989.25 1541.73 L990.31 1544.4 L990.84 1546.07 L990.18 1547.86 L987.97 1547.14 L983 1543.64 L982.21 1542.5 L981.38 1541.54 L979.72 1541.1 L978.19 1540 L979.32 1538.09 L982.84 1537.67 L985.92 1538.13 L987.86 1538.69 L988.85 1540.11 Z M714.05 372.87 L715.63 373.89 L716.07 374.78 L715.95 376.75 L715.49 377 L714.82 376.07 L713.95 375.6 L712.86 375.79 L711.42 375.05 L710.31 372.51 L710.17 370.45 L710.7 370.46 L712.35 372.38 Z M715.76 363.86 L717.14 364.32 L717.53 365.21 L717.2 365.79 L716.81 366.2 L716.81 366.53 L716.82 366.83 L716.53 367.19 L714.72 368.01 L713.79 368.15 L712.89 367.96 L711.95 367.23 L710.5 365.39 L710.1 365.67 L709.41 365.45 L709.01 364.53 L709.18 363.8 L709.91 363.49 L710.84 363.81 L711.56 364.14 L712.13 363.97 L713.56 363.78 Z M776.07 343.89 L778.31 342.35 L780.23 342.68 L779.76 344.63 L778.62 345.8 L776.3 349.12 L774.99 349.24 L774.83 346.68 Z "/>
</g>
</svg>
