<svg xmlns="http://www.w3.org/2000/svg" viewBox="0 0 1000 555">
<g fill="#ccc" stroke="#333" stroke-width="0.5" stroke-linejoin="round">
<path fill-rule="evenodd" d="M21.07 517 L37.67 534.73 L39.15 537.87 L45.27 539.75 L67.47 551.57 L67.47 555 L41.6 553.28 L37.33 555 L31.21 552.22 L18.84 550.35 L14.14 547.82 L5.1 533.76 L0 519.33 L3.73 511.5 Z M985.5 0 L991.55 10.87 L997.59 19.32 L1000 27.51 L995.14 37.82 L996.82 39.69 L997.59 41.03 L998.76 44.56 L990.84 45.86 L989.29 50.65 L992.12 63.31 L989.53 69.24 L983.55 70.5 L976.89 68.59 L972.23 65.02 L971.7 57.31 L966.42 48.78 L964.09 40.74 L972.23 34.41 L968.65 23.98 L971.64 14.45 L978.25 6.25 Z "/>
</g>
</svg>
