<svg xmlns="http://www.w3.org/2000/svg" viewBox="0 0 1000 898.32">
<g fill="#ccc" stroke="#333" stroke-width="0.5" stroke-linejoin="round">
<path fill-rule="evenodd" d="M10.79 815.22 L10.9 812 L15.86 793.2 L16.35 787.58 L15.94 782.74 L16.22 779.83 L18.23 776.32 L18.64 774.87 L18.79 773.31 L18.71 771.81 L18.33 771.13 L16.79 769.81 L16.35 769.11 L16.99 767.23 L17.53 763.42 L19.8 758.18 L20.76 752.89 L21.8 749.9 L34.19 724.39 L38.46 719.88 L39.13 718.7 L39.32 717.92 L40.67 714.84 L41.35 714.18 L43.3 712.77 L43.99 712.05 L45.91 707.66 L47.23 705.81 L50.1 704.7 L50.75 704 L51.56 703.37 L52.9 703.29 L53.94 703.72 L54.84 704.46 L56.14 706.01 L69.19 700.75 L71.52 698.82 L73.89 695.95 L75.74 692.73 L79.91 677.87 L80.16 675.64 L81.33 674.18 L87.24 668.2 L88.72 666.3 L90.25 658.09 L90.61 647.14 L91.15 644.35 L92.57 639.74 L93.56 637.61 L95.94 634.25 L95.96 632.96 L95.53 631.93 L95.27 631.08 L95.26 629.59 L95.45 628.72 L96.5 626.35 L96.75 625.53 L97.33 625.07 L99.96 624.79 L102.8 624.02 L106.63 620.61 L110.6 616.04 L111.76 613.49 L112.56 610.87 L113.02 608.07 L113.18 605 L112.19 601.98 L109.88 601.5 L104.99 602.83 L105.83 600.43 L107.86 596.34 L108.97 594.82 L114.6 589.58 L115.09 588.72 L123.96 568.12 L125.3 566.37 L126.58 565.62 L128.1 564.19 L133.37 555.03 L135.03 546.34 L136.3 543.91 L138.1 541.37 L142.35 533.73 L148.1 527.05 L148.48 526.26 L150.44 524.78 L151.27 523.92 L151.9 522.53 L152.49 519.87 L152.97 518.52 L154.8 515.54 L156.68 513.16 L158.13 510.71 L158.71 507.49 L158.98 501.77 L158.54 499.31 L157.02 496.38 L157.41 495.67 L157.83 494.61 L156.45 495.65 L156.31 497.17 L156.54 498.96 L156.28 500.81 L155.43 501.79 L152.4 503.91 L151.27 504.43 L149.7 504.48 L148.68 504.19 L147.55 504.44 L145.67 506.13 L144.41 507.74 L143.56 509.29 L141.77 513.63 L140.23 516.45 L139.93 517.27 L139.67 518.84 L138.55 521.43 L138.3 522.59 L137.28 524.14 L131.74 529.23 L129.98 527.88 L130.76 525.72 L133.37 522.59 L134 520.71 L138.3 512.4 L145.67 502.18 L146.42 500.15 L148.13 497.85 L150.02 495.81 L158.66 488.38 L162.5 486.91 L167.62 483.71 L169.17 482.19 L173.08 481.81 L176.23 479.75 L178.71 476.89 L180.6 474.03 L185.46 468.31 L188.78 463.38 L193.33 460.05 L195.27 458.21 L196.06 455.83 L197.05 454.31 L207.89 445.3 L214.44 438.25 L222.59 425.79 L225.63 422.31 L229.44 418.83 L231.62 417.34 L234.01 416.16 L236.47 415.38 L241.6 414.51 L244.11 413.07 L248.09 409.92 L248.02 406.88 L248.39 406.12 L249.85 403.12 L252.67 399.61 L255.53 397.28 L258.51 395.64 L260.79 393.85 L262.24 391.21 L263.39 382.71 L266.23 374.94 L267.24 368.86 L268.88 365.1 L269.31 363.35 L269.08 361.2 L268.6 359.22 L268.46 357.25 L269.31 355.14 L268.42 354.33 L269.17 352.48 L269.72 350.41 L270.06 348.22 L270.12 346.12 L269.8 344.09 L268.67 341.23 L268.42 339.53 L268.55 327.93 L267.68 324.63 L271.3 309.39 L272.15 307.31 L275.72 294.06 L281.16 286.35 L282.71 285 L283.69 283.72 L287.22 275.12 L288.03 269.24 L288.28 268.4 L289.39 266.06 L290.04 261.9 L294.84 249.74 L303.68 237.13 L306.88 231.25 L307.55 229.51 L307.89 226.88 L309.79 220.97 L310.79 219.14 L310.35 217.02 L311.53 209.58 L311.18 207.64 L310.05 203.64 L310.38 202.32 L311.3 200.84 L312.55 196.99 L313.22 195.51 L319.87 186.79 L320.98 185.97 L326.63 184.69 L333.07 181.21 L342.92 171.51 L344.57 169.29 L345.67 167 L347.16 165.03 L349.91 163.78 L362.99 162.37 L365.26 161.32 L377.61 154.88 L399.18 139.33 L413.67 129.92 L420.66 121.92 L427.81 107.4 L430.24 100.29 L432.53 89.5 L435.98 81.77 L439.49 64.9 L441.72 59.82 L451.52 45.24 L451.56 44.5 L450.73 43.25 L450.71 42.5 L452.33 41.59 L458.68 26.4 L462.62 12.74 L462.88 9.91 L463.43 7.5 L465.78 2.37 L466.1 0 L474.51 0 L482.86 0 L491.2 0.01 L499.53 0.01 L507.87 0.01 L516.21 0.01 L524.55 0.02 L532.88 0.02 L541.23 0.02 L549.56 0.02 L557.9 0.03 L566.24 0.03 L574.58 0.03 L582.92 0.03 L591.26 0.03 L599.59 0.04 L607.93 0.04 L616.27 0.04 L624.61 0.04 L628.16 0.04 L629.45 0.04 L632.95 0.04 L641.28 0.04 L649.62 0.04 L657.96 0.05 L666.3 0.05 L674.64 0.05 L682.98 0.06 L691.31 0.06 L699.66 0.06 L707.99 0.06 L716.33 0.06 L724.67 0.07 L733.01 0.07 L741.34 0.07 L749.68 0.08 L758.03 0.08 L766.35 0.08 L774.69 0.08 L783.04 0.08 L791.37 0.09 L799.71 0.09 L808.05 0.09 L816.38 0.1 L824.73 0.1 L833.07 0.1 L841.41 0.1 L849.74 0.1 L858.08 0.1 L866.42 0.1 L874.75 0.11 L883.09 0.11 L891.43 0.11 L899.77 0.11 L908.1 0.11 L916.44 0.12 L924.78 0.12 L933.12 0.12 L941.45 0.12 L949.79 0.12 L958.13 0.14 L966.47 0.14 L974.8 0.14 L983.09 0.14 L983.83 0.14 L983.89 0.14 L991.48 0.14 L999.81 0.14 L999.81 12.74 L999.81 25.32 L999.81 37.89 L999.81 50.46 L999.83 52.29 L999.83 57.5 L999.83 65.58 L999.85 76.04 L999.87 88.42 L999.88 102.23 L999.9 116.97 L999.91 132.18 L999.92 147.38 L999.94 162.08 L999.96 175.81 L999.97 188.1 L999.98 198.5 L999.99 206.5 L999.99 211.64 L1000 213.46 L1000 219.45 L999.19 221.18 L996.87 221.84 L986.8 221.84 L974.83 221.85 L962.87 221.85 L950.92 221.85 L938.96 221.85 L927 221.85 L915.05 221.85 L903.09 221.85 L891.13 221.85 L879.17 221.85 L867.21 221.85 L855.26 221.85 L843.3 221.85 L831.35 221.85 L819.38 221.85 L807.43 221.85 L795.48 221.85 L783.51 221.85 L771.56 221.85 L759.6 221.85 L747.65 221.85 L735.69 221.85 L723.73 221.85 L711.78 221.85 L699.82 221.85 L687.86 221.85 L675.9 221.85 L663.94 221.85 L651.98 221.85 L640.02 221.85 L628.08 221.85 L616.12 221.85 L604.16 221.85 L604.16 231.84 L604.16 241.81 L604.16 251.78 L604.16 261.74 L604.16 271.69 L604.16 281.64 L604.16 291.59 L604.16 301.52 L604.16 311.45 L604.16 321.38 L604.16 331.3 L604.16 341.2 L604.16 351.1 L604.16 361.01 L604.16 370.9 L604.16 380.78 L604.16 390.67 L604.16 400.54 L604.16 410.42 L604.16 420.27 L604.16 430.13 L604.16 439.98 L604.16 449.83 L604.16 459.67 L604.16 469.5 L604.16 479.33 L604.16 489.15 L604.16 498.97 L604.16 508.78 L604.16 518.59 L604.16 528.39 L604.16 538.18 L604.16 548.64 L603.68 553.06 L602.09 555.13 L590 558.45 L563.97 570.98 L559.69 572.26 L539.69 575.14 L532.44 577.65 L524.99 582.83 L512.2 591.73 L497.34 602.03 L485.46 610.29 L483.19 613.23 L473.03 627.63 L469.19 635.81 L467.62 644.48 L468.87 652.7 L474.64 669.24 L476.19 677.56 L478.14 709.66 L480.1 741.7 L483.46 794.56 L484.16 805.61 L485.46 826.25 L468.07 826.25 L463.16 826.26 L449.3 826.26 L427.74 826.26 L399.79 826.27 L366.72 826.27 L333.46 826.28 L329.8 826.28 L290.33 826.29 L249.58 826.29 L208.82 826.3 L169.35 826.3 L132.44 826.31 L99.35 826.32 L71.4 826.32 L49.86 826.32 L36 826.33 L31.08 826.33 L17.31 826.33 L16.18 827.38 L14.12 838.43 L11.84 850.65 L6.8 865.22 L6.01 869.28 L3.23 880.84 L2.79 884.62 L5.67 898.32 L4.31 895.07 L0.53 889.34 L0 886.18 L0.39 884.44 L1.47 881.43 L1.69 879.63 L1.69 873.55 L2.18 871.33 L4.37 864.77 L9.25 826.83 L10.35 822.22 L10.61 820.34 Z "/>
</g>
</svg>
