<svg xmlns="http://www.w3.org/2000/svg" viewBox="0 0 1000 596.17">
<g fill="#ccc" stroke="#333" stroke-width="0.5" stroke-linejoin="round">
<path fill-rule="evenodd" d="M786.43 0 L787.02 1.4 L789.38 7.01 L792.94 15.51 L796.51 24.02 L800.08 32.51 L803.64 41.01 L807.2 49.49 L810.78 57.97 L814.33 66.45 L817.91 74.92 L821.48 83.39 L825.04 91.86 L828.61 100.31 L832.18 108.76 L835.75 117.21 L839.31 125.66 L842.87 134.1 L846.44 142.53 L849.09 148.79 L848.93 148.83 L848.49 148.89 L848.36 148.93 L849.59 149.72 L852.73 149.9 L854.16 150.41 L855.04 151.62 L858.27 158.93 L863.48 170.74 L868.69 182.54 L873.91 194.34 L879.12 206.1 L879.09 206.11 L877.35 207.02 L873.4 208.09 L870.32 207.33 L869.41 208.19 L868.43 208.37 L867.46 208.43 L866.6 208.9 L865.01 210.56 L864.07 211.26 L862.02 211.92 L859.17 213.6 L855.67 214.28 L853.98 215.03 L850.92 216.89 L849.64 217.44 L838.04 220.51 L832.61 223.07 L823.26 229.67 L814.78 236.63 L812.62 239.01 L811.51 240.74 L810.01 243.77 L807.28 246.98 L806.67 247.94 L806.31 249.03 L806.31 249.92 L806.52 250.97 L806.78 251.8 L806.92 252.05 L806.29 253.65 L804.42 255.8 L803.56 259.35 L801.55 261.72 L801.18 263.3 L801.84 264.96 L803 266.9 L803.76 268.92 L802.84 272.49 L804.18 273.78 L806.92 275.19 L806.99 276.47 L806.31 282.64 L806.67 286.43 L807.49 290.09 L808.08 290.62 L808.46 291.07 L808.63 291.57 L808.54 292.1 L808.1 292.88 L808.01 293.31 L807.94 294.02 L807.69 294.68 L807.25 295.17 L806.61 295.35 L804.8 295.57 L792.14 299.16 L791.44 299.75 L790.84 300.39 L790.36 300.78 L789.62 301 L788.35 301.12 L787.52 301.31 L780.97 303.89 L777.72 305.95 L777.79 307.86 L777.72 308.24 L777.53 308.35 L777.32 308.35 L777.22 308.41 L777.26 309.4 L776.99 309.53 L776.53 309.25 L776.03 309.05 L775.42 308.71 L774.77 308.13 L773.98 307.92 L772.93 308.73 L772.32 309.04 L768.1 309.92 L761.53 313.56 L760.47 314.61 L760.04 315.84 L760.51 317.53 L761.24 318.45 L761.24 319.03 L759.47 319.68 L750.65 320.52 L749.07 321.05 L747.65 321.81 L746.39 322.68 L744.38 325.04 L742.71 325.14 L742.07 325.41 L741.83 325.95 L740.9 326 L736.69 327.87 L735.51 328.58 L733.39 327.89 L731.06 328.84 L728.89 330.26 L727.25 330.99 L710.66 335.5 L692.45 338.93 L676.62 343.37 L667.66 344.23 L659.78 347.52 L657.52 348.82 L651.34 354.17 L650.07 354.92 L646.67 355.54 L641.8 358.16 L636.44 361.94 L635.23 362.01 L633.66 361.38 L631.59 361.86 L628.09 363.46 L626.51 363.93 L625.79 364.06 L624.96 364.1 L624.46 362.32 L623.95 361.34 L623.22 361.43 L621.97 361.85 L616.65 362.33 L604.68 366.35 L586.3 371.08 L576.49 376.58 L572.93 378.01 L569.15 378.62 L567.45 379.49 L564.17 381.81 L557.18 385.05 L553.96 387.35 L553.26 390.1 L552.43 389.96 L551.17 389.28 L549.53 388.72 L547.56 388.93 L545.83 389.84 L544.6 391 L540.44 397.01 L538.93 400.04 L538.12 403.62 L538.76 404.06 L538.81 405.04 L538.6 406.06 L538.41 406.61 L537.39 407.29 L533.97 408.69 L533.24 409.23 L532.75 411.29 L531.56 412.02 L530.05 412.31 L528.68 413.02 L528.29 413.63 L528.13 414.37 L528.11 416.3 L527.84 416.77 L527.25 417.23 L526.67 417.81 L525.81 420.18 L524.37 421.11 L521.23 422.47 L516.28 428.68 L514.71 429.62 L514.23 429.78 L513.24 430.52 L512.74 430.79 L512.2 430.89 L511.54 430.79 L501.81 430.58 L500.42 431.06 L496.7 434.31 L495.9 434.63 L495.21 434.67 L494.54 434.82 L493.81 435.49 L492.28 433.62 L489.36 433.09 L482.93 433.14 L483.17 433.47 L483.55 434.31 L480.09 434.37 L470.46 437.19 L470.87 435.1 L469.53 433.75 L467.67 432.8 L466.43 431.91 L465.86 432.55 L463.56 431.44 L456.13 429.62 L454.86 430.31 L450.44 431.67 L448.99 431.91 L447.84 432.7 L443.6 437.83 L439.8 439.82 L426.99 444.23 L425.19 445.43 L418.4 452.65 L407.71 462.18 L404.56 464.17 L385.27 470.11 L364.01 474.6 L356.7 479.48 L346.4 483.43 L345 483.69 L343.34 483.45 L340.36 482.53 L338.4 482.52 L336.63 483.01 L333.02 484.58 L331.34 484.91 L314.08 484.86 L310.46 484.27 L308.65 483.27 L307.54 482.91 L307.05 483.36 L306.67 483.57 L304.45 484.27 L297.27 485.44 L283.03 486.08 L281.58 486.41 L278.85 487.54 L277.63 487.79 L274.12 487.62 L272.6 487.78 L271.6 488.42 L260.12 491 L257.31 492.46 L249.29 500.7 L247.01 502.42 L245.81 503.62 L244.75 506.79 L240.8 511.86 L238.21 514.28 L235.07 515.68 L220.75 519.19 L217.46 520.95 L214.47 523.55 L213.33 524.99 L212.91 525.74 L212.43 526.59 L212.38 526.72 L211.83 528.21 L211.62 529.73 L211.47 529.98 L209.51 535.06 L209.34 535.92 L209.78 539.39 L209.5 540.63 L207.89 541.12 L206.09 540.82 L204.17 540.02 L202.89 538.9 L203.03 537.61 L204.4 537.09 L206.09 537.24 L207.55 537.07 L208.16 535.6 L207.83 535.57 L206.56 533.87 L206.45 533.53 L206.28 533.2 L206.41 532.81 L206.41 532.5 L205.88 532.36 L205.39 532.54 L205.32 532.92 L205.39 533.32 L205.31 533.53 L204.72 534.52 L204.45 534.7 L204.03 534.61 L203.25 534.21 L202.74 534.12 L200.87 534.22 L199.99 534.48 L199.62 534.99 L199.04 536.3 L197.67 537.43 L196.13 537.71 L195.01 536.45 L193.91 537.08 L193.56 537.83 L193.93 539.95 L194.56 539.4 L195.06 539.27 L197.63 539.53 L198.02 539.83 L197.86 540.85 L197.34 541.81 L196.13 542.79 L194.72 543.38 L193.64 543.19 L191.24 542.22 L190.51 541.76 L190.01 541.06 L190.02 540.67 L189.82 540.37 L188.75 539.95 L186.7 539.75 L185.01 540.33 L181.92 542.34 L181.83 541.96 L181.51 541.46 L181.35 541.12 L181.74 540.25 L181.21 539.09 L180.18 537.93 L179.07 537.09 L175.63 535.85 L172.15 535.71 L168.99 536.39 L166.5 537.61 L162.09 541.36 L157.34 546.48 L157.16 546.94 L156.55 547.99 L155.89 548.48 L155.57 547.3 L155.17 547.19 L153.21 547.95 L150.78 548.55 L145.38 551.15 L143.53 551.33 L141.86 551.15 L140.3 551.17 L137.18 552.84 L135.34 552.93 L133.7 552.34 L132.75 551.15 L133.88 551.24 L135.93 551.64 L137.08 551.73 L137.79 551.14 L137.75 550.01 L137.18 549.31 L136.22 549.98 L134.04 549.7 L131.36 550.77 L126.44 553.48 L124.05 554.11 L122.67 554.16 L120.55 553.44 L118.03 554.51 L116.77 554.64 L115.16 553.61 L113.69 550.6 L112.47 549.98 L110.75 549.74 L109.38 549.13 L107.04 547.59 L105.69 546.93 L104.13 546.37 L102.38 545.98 L100.52 545.84 L99.38 545.44 L96.19 543.55 L94.52 542.92 L91.57 542.98 L90.78 542.63 L89.51 541.69 L88.7 541.29 L87.94 541.12 L86.87 541.54 L82.12 546.32 L81.69 546.76 L80.54 547.37 L78.78 547.59 L76.89 547.31 L76.41 546.5 L77.99 539.66 L78.05 536.35 L77.32 533.4 L75.63 530.66 L73.11 528.3 L72.78 527.43 L72.52 526.36 L71.93 525.67 L71.34 525.12 L71.07 524.46 L70.96 522.77 L70.63 521.16 L70.09 519.66 L69.31 518.3 L66.37 514.92 L65.9 513.91 L65.78 513.25 L64.76 511.23 L63.97 509.05 L63.62 508.36 L58.62 502.07 L56.74 495.97 L57.85 493.3 L58.57 490.4 L59.07 475.18 L60.77 472.51 L61.09 471.74 L61.24 471.1 L61.59 470.56 L62.48 470.11 L61.38 467.41 L61.66 461.45 L61.29 458.4 L58.54 453.12 L58.17 452.2 L57.31 445.16 L56.82 444.38 L51.35 438.49 L49.48 433.91 L47.72 430.03 L45.84 427.32 L44.9 420.85 L44.19 417.8 L43.37 415.21 L41.84 410.85 L39.46 402.86 L38.79 401.13 L38.38 398.47 L37.33 395.98 L37.03 393.23 L36.81 392.45 L36.35 391.98 L34.82 390.86 L34.48 390.37 L34.64 389.34 L35.04 388.92 L35.66 389.08 L36.51 389.78 L37.38 391.49 L38.38 395.42 L39.66 396.51 L39.7 394.02 L39.54 392.85 L39.04 391.81 L40.26 388.26 L39.34 385.39 L37.71 382.78 L36.81 380 L37 379.38 L37.77 378.5 L37.95 377.99 L37.86 377.46 L37.65 377.21 L37.44 377.06 L37.08 376.01 L36.51 375.58 L35.94 375.3 L35.69 375 L35.49 374.56 L35.08 374.14 L34.68 373.56 L34.05 370.62 L33.96 369.67 L33.06 366.63 L29.08 361.58 L28.17 358.46 L28 356.65 L28.14 355.71 L28.79 355.86 L29.18 356.53 L29.04 357.11 L28.78 357.79 L28.79 358.75 L29.39 360.35 L30.4 362.11 L31.75 363.67 L33.34 364.69 L33.44 363.44 L33.96 360.57 L33.9 358.82 L33.01 355.73 L32.64 352.87 L32.21 351.8 L31.5 350.89 L29.38 348.83 L28.47 347.71 L27.88 346.28 L27.65 344.23 L28.06 339.57 L27.65 338.07 L26.54 336.64 L23.61 335.32 L20.94 332.99 L19.26 331.89 L17.42 330.99 L15.65 330.35 L13.8 329.92 L12.14 329.92 L10.94 330.65 L10.48 332.42 L9.56 332.66 L7.67 331.94 L6.02 330.5 L5.92 328.58 L5.37 327.38 L6.3 327.29 L9.08 327.94 L10.5 327.73 L11.41 327.13 L11.92 326.22 L12.19 325.04 L12.1 324.13 L11.25 322.85 L11.05 321.79 L13.22 317.72 L13.9 316.78 L14.33 317.89 L14.12 319.31 L13.52 320.65 L12.81 321.5 L14.4 322.24 L15.67 323.04 L19.05 325.93 L19.46 326.54 L19.64 327.67 L19.41 329.28 L19.7 329.85 L20.77 330.35 L20.86 329.65 L20.75 329.2 L20.5 328.88 L20.21 328.58 L21.45 327.25 L21.96 325.3 L21.77 318.68 L20.98 315.62 L19.64 313.18 L19.3 311.97 L19.34 311.03 L19.53 310.13 L19.64 309.05 L19.57 308.03 L19.39 307.03 L19.05 305.99 L17.86 303.83 L14.47 299.16 L14.64 298.45 L15.65 297.23 L14.85 296.37 L14.1 295.35 L13.55 294.15 L13.33 292.72 L14.2 289.65 L14 288.36 L12.19 287.72 L12.8 286.39 L13.63 285.66 L14.61 285.06 L15.65 284.17 L16.34 283.29 L16.68 282.54 L16.77 281.61 L16.8 280.25 L17.23 277.82 L18.35 276.14 L19.82 274.96 L21.34 274.01 L22.86 272.75 L23.73 271.22 L24.1 269.24 L24.81 257.38 L24.54 253.42 L22.26 241.23 L21.94 234.76 L21.83 234.16 L21.34 232.38 L21.41 232.44 L21.45 232.18 L21.45 231.75 L21.34 231.24 L21.1 230.78 L20.42 229.9 L20.32 229.7 L24.31 228.29 L27.24 227.03 L29.38 225.53 L30.1 224.14 L30 222.73 L29.78 221.41 L30.1 220.28 L30.99 219.89 L34.23 219.29 L35.45 218.85 L39.09 216.68 L40.9 215.33 L41.94 213.83 L44.09 208.15 L44.43 206.51 L44.54 204.67 L44.95 203.47 L46.02 203.02 L48.11 203.41 L51.45 204.43 L52.88 204.16 L53.39 202.54 L53.35 202.4 L52.86 200.37 L52.1 199.04 L51.92 197.84 L53.12 196.03 L53.87 195.49 L54.63 195.15 L55.26 194.69 L55.62 193.78 L55.5 192.65 L54.94 191.7 L54.08 191.03 L50.99 190.17 L50.03 189.37 L49.02 186.19 L47.26 182.79 L46.94 181.31 L47.5 179.15 L48.84 175.78 L49.2 174.11 L49.21 172.21 L48.74 170.29 L48.08 168.84 L47.75 167.43 L48.24 165.62 L49.99 162.17 L50.46 160.4 L50.38 158.38 L50.89 156.66 L52.62 155.28 L54.82 154.33 L56.73 153.9 L58.6 152.97 L58.9 151.22 L58.03 149.35 L56.4 148.09 L51.63 146.51 L51.87 146.11 L55.88 141.16 L63.14 134.88 L70.47 130.26 L72.29 129.55 L74.13 129.3 L75.65 129.66 L78.49 129.77 L79.84 130.12 L85.98 132.79 L89.52 134.9 L95.34 141.45 L98.79 144.2 L100.45 144.79 L101.97 144.8 L105.09 144.44 L108.39 144.74 L109.84 144.67 L111.8 144.09 L112.29 144.32 L112.29 145.27 L112.08 147.01 L112.41 147.71 L112.68 148.13 L113.18 148.4 L114.17 148.61 L116.13 148.32 L117.43 147.03 L118.5 145.32 L119.77 143.81 L121.57 142.85 L122.99 143.01 L126.19 144.66 L128.36 144.98 L129.95 144.24 L131.22 142.67 L132.44 140.5 L133.67 139.62 L135.36 139.83 L138.88 140.86 L140.47 140.75 L146.87 139.26 L154.94 138.4 L160.02 138.6 L165.75 139.79 L168.09 139.65 L173.32 137.66 L175.14 137.26 L192.03 137.37 L202.32 137.44 L204.39 137.46 L218.4 137.56 L223.13 138.52 L236.69 146.46 L240.5 147.72 L258.16 149.55 L278.88 151.69 L294.65 153.31 L314.88 155.4 L328.66 153.49 L347.19 150.92 L350.28 152.72 L355.67 160.26 L361.84 168.88 L368.88 178.71 L369.94 179.39 L371.11 179.44 L382.09 179.91 L384.81 179.53 L387.27 178.53 L397.5 172.52 L407 166.94 L407.09 166.83 L409.54 163.53 L415.11 148.11 L419.05 137.22 L420.46 134.51 L428.57 124.34 L441.01 108.71 L454.19 92.12 L461.76 82.63 L468.23 74.47 L470.1 73.15 L480.79 67.66 L495.11 60.3 L511.08 52.07 L525.39 44.72 L537.37 38.55 L541.09 36.63 L548.84 33.78 L559.6 32.25 L572.95 30.35 L586.31 28.45 L599.66 26.56 L613.01 24.66 L626.37 22.76 L639.72 20.86 L653.08 18.97 L666.43 17.07 L679.78 15.17 L693.15 13.27 L706.49 11.38 L719.84 9.47 L733.2 7.58 L746.55 5.68 L759.91 3.77 L773.26 1.87 Z M892.29 595.33 L893.93 594.69 L895.5 594.82 L896.43 595.29 L897.28 595.58 L897.45 596.17 L894.72 595.97 L893.52 595.88 Z M876.01 590.76 L877.28 590.76 L878.5 591.62 L878.84 593.01 L878.79 594.22 L877.57 594.57 L876.3 594.74 L873.82 593.76 L872.14 592.32 L870.36 591.8 L870.64 590.99 L871.91 590.59 L873.01 590.71 L873.87 590.36 L874.8 590.3 Z M812.32 588.55 L814.84 589.62 L819.45 588.57 L820.69 588.86 L820.69 588.86 L821.12 589.7 L820.02 590.11 L819.15 591.05 L819.81 591.55 L820.6 592.98 L818.22 592.56 L817.22 592.78 L815.77 593.21 L811.95 592.5 L808.24 592.3 L807.81 591.58 L806.92 590.3 L806.4 590.28 L805.87 590.25 L804.11 590.79 L803.21 590.94 L802.87 590.64 L801.93 589.26 L801.75 588.84 L801.3 588.94 L799.61 588.23 L798.53 588.45 L797.58 588.74 L797.03 588.3 L796.7 588.02 L793.92 586.74 L793.56 585.6 L794.78 585.23 L796.06 585.06 L798.09 585.08 L800.53 585.65 L803.13 587.43 L804.92 588.07 L806.29 588 L808.73 588.42 Z M73.64 548.17 L74.74 548.73 L74.88 549.03 L75.3 549.95 L75.18 551.17 L74.2 551.73 L73.63 551.52 L72.65 550.49 L72.17 549.98 L71.2 550.22 L70.62 549.94 L70.4 548.81 L71.02 548.43 L71.76 548.24 Z M994.19 559.3 L996.38 559.01 L997.98 558.03 L998.88 558.13 L1000 558.73 L998.97 559.82 L996.48 560.5 L994.68 561.09 L993.09 561.38 L992.19 562.07 L992.03 564.32 L988.5 565.82 L985.69 566.47 L982.31 567.85 L978.58 567.52 L975.46 568.69 L974.75 569.41 L973.19 571.61 L972.44 572.09 L970.28 573.05 L967.87 574.99 L966.67 575.71 L964.19 575.5 L960.31 575.78 L958.92 575.57 L957.53 575.96 L955.64 577.54 L953.78 576.92 L953.76 576.92 L952.45 576.52 L949.89 577.12 L946.32 577.71 L936.31 579.67 L932.54 580.06 L927.69 579.55 L923.13 578.15 L919.28 577.14 L917.6 575.45 L916.27 573.8 L914.9 572.11 L913.74 570.16 L911.55 569.41 L908.09 567.12 L899.45 561.69 L897.41 559.8 L897.17 559.31 L897.9 558.72 L900.14 559.38 L901.85 559.18 L903.64 558.12 L904.05 557.83 L904.19 557.07 L904.9 555.54 L905.2 554.64 L904.6 549.65 L905.83 549.17 L907.27 548.89 L910.77 548.37 L911.57 547.08 L912.46 545.79 L913.26 544.9 L914.85 544.71 L919.42 545.61 L922.12 545.93 L924.1 545.74 L926.17 545.53 L929.44 548.52 L935.19 552.79 L938.95 553.79 L942.12 554.6 L943.82 552.52 L944.62 550.44 L946.9 549.95 L948.49 550.15 L949.97 550.85 L952.75 550.46 L955.63 550.57 L958.72 548.79 L959.81 548.4 L961.81 547.11 L962.71 546.03 L964.91 545.84 L965.98 546.93 L967.17 547.82 L968.95 548.92 L970.25 548.63 L971.25 548.03 L971.67 548.24 L972.52 549.21 L973.19 549.98 L974.74 550.03 L976.63 550.42 L977.41 551.73 L978.7 552.23 L981.59 553.54 L984.98 554.25 L988.37 556.15 L990.13 556.7 Z M14.47 456.64 L18.01 454.1 L19.74 453.44 L20.77 454.3 L20.52 455.94 L17.99 458.64 L17.37 460.48 L16.52 461.29 L11.91 463.4 L11.9 463.41 L11.72 462.36 L11.68 462.15 L11.68 462.14 L12.32 460.37 Z M17.88 428.98 L18.5 428.39 L20.84 431.34 L21.34 432.55 L21.33 433.48 L20.21 436.66 L20.08 439.35 L20.25 440.83 L19.68 441.41 L17.37 441.35 L18.5 438.95 L16.74 438.27 L14.66 437.17 L13.9 436.48 L12.92 435.57 L12.8 435.2 L12.19 433.41 L12.93 432.11 L14.61 430.59 L16.53 429.37 Z M7.52 309.93 L5.39 311.32 L5.12 311.88 L5.48 312.02 L5.52 312.43 L5.2 312.97 L4.44 313.55 L3.25 314.16 L2.99 314.59 L3.9 314.77 L4.99 314.47 L6.07 313.86 L6.87 313.98 L6.87 315.04 L5.88 318.35 L5.64 319.51 L5.81 320.23 L5.63 320.91 L5.22 321.3 L5.31 321.46 L5.79 321.3 L5.7 321.81 L4.02 324.35 L3.04 325.26 L1.89 325.2 L0.97 324.45 L0 322.99 L0.01 321.04 L0.87 318.93 L1.1 314.47 L2.1 312.99 L3.17 311.89 L3.98 311.21 L4.32 310.48 L4.68 309.86 L6.51 308.9 L7.11 309.17 Z "/>
</g>
</svg>
