<svg xmlns="http://www.w3.org/2000/svg" viewBox="0 0 1000 868.3">
<g fill="#ccc" stroke="#333" stroke-width="0.5" stroke-linejoin="round">
<path fill-rule="evenodd" d="M935.58 105.03 L935.77 110.09 L936.17 111.27 L937 111.96 L937.53 111.78 L938.1 111.36 L939.09 111.31 L939.66 111.66 L940.9 112.82 L941.66 113.17 L941.7 115.54 L940.19 121.8 L941.23 124.15 L942.36 124.53 L943.31 124.1 L944.25 123.45 L945.4 123.16 L946.35 123.6 L946.69 124.52 L946.88 125.57 L947.34 126.39 L949.23 127.09 L949.98 125.5 L950.26 122.93 L950.76 120.68 L952.74 121.64 L957.35 121.89 L959.06 123.1 L960.29 125.27 L960.67 126.43 L960.8 127.75 L960.56 128.68 L960.12 129.38 L959.84 130.2 L960.07 131.48 L960.88 132.71 L963.02 134.03 L963.96 135.05 L965.2 137.41 L965.93 138.46 L966.96 139.37 L968 139.93 L971.16 141.09 L971.72 141.76 L973.06 145.19 L973.61 147.61 L973 149.44 L970.46 153.4 L968.86 157.5 L968.4 159.69 L968.35 161.94 L969.5 163.52 L976.48 166.64 L978.28 168.17 L979.67 169.71 L981.22 170.99 L983.44 171.77 L985.03 173.88 L986.73 175.07 L987.95 176.48 L988.15 179.22 L987.61 184.08 L987.92 186.16 L990.16 191.53 L990.89 192.54 L993.27 194.68 L993.93 195.43 L995.6 199.33 L996.92 200.86 L999.25 201.16 L999.26 203.44 L999.87 205.03 L999.94 205.88 L999.97 206.2 L1000 206.55 L998.59 208.66 L997.27 209.87 L993.92 212.31 L992.82 212.8 L991.68 213.56 L987.52 218.25 L986.13 221.75 L985.19 223.27 L983.44 224.34 L982.14 224.59 L980.58 226.14 L979.46 226.66 L978.15 226.58 L975.32 226.03 L974.14 226.23 L972.95 226.71 L970.79 227.13 L969.63 227.53 L968.59 228.44 L966.99 230.89 L965.73 231.66 L964.68 231.63 L963.79 231.39 L962.99 231.67 L962.24 233.2 L962.16 234.45 L962.84 234.93 L963.91 234.93 L965.08 234.76 L966.32 235.82 L966.96 238.56 L967.23 241.2 L967.49 243.76 L968.32 246.38 L969.55 248.79 L971.13 250.98 L973.04 252.9 L975.78 257.73 L975.03 260.33 L973.86 262.77 L967.86 272.06 L967.73 272.63 L968.02 273.61 L967.91 274.14 L967.43 274.55 L966.12 275.12 L965.74 275.59 L965.59 276.81 L965.76 277.94 L965.74 279.06 L965.02 280.25 L962.85 278.44 L962.04 279.68 L962.44 287.11 L962.34 288.18 L961.79 289.82 L960.53 292.53 L960.81 293.21 L962.24 293.74 L963.67 293.75 L965.17 293.56 L966.57 293.8 L967.72 295.13 L968.23 296.54 L969.2 310.72 L968.91 313.92 L967.78 317.22 L967.79 318.62 L968.75 320.53 L969.09 321.78 L968.8 323.14 L968.31 324.53 L967.51 328.99 L964.14 336.98 L963.84 339.88 L963.96 342.83 L964.6 344.25 L967.01 346.56 L968 347.77 L969.07 350.62 L970.58 356.72 L972.23 359.32 L975.24 360.38 L981.54 358.46 L984.88 359.63 L986.31 359.59 L987.29 359.96 L987.42 361.74 L986.65 363.15 L986.29 363.37 L984.06 364.74 L983.44 366.18 L982.14 366.42 L981.75 367.07 L981.68 369.22 L980.92 370.27 L978.33 371.32 L977.36 372.21 L976.02 374.23 L974.26 376 L972.31 377.24 L970.42 377.68 L969.74 377.45 L969.02 377 L968.19 376.58 L967.12 376.5 L964.85 376.88 L964.16 377.18 L963.18 378.3 L961.76 381.31 L960.56 382.14 L959.7 382.42 L959.18 382.74 L958.8 383.06 L958.36 383.35 L957.85 383.86 L957.57 384.46 L957.16 384.9 L956.29 384.93 L955.93 384.49 L954.91 382.55 L954.31 381.94 L953.5 381.72 L952.85 381.79 L951.5 382.15 L950.82 382.55 L950.04 383.21 L949.3 383.56 L948.7 382.99 L948.33 382.31 L947.87 381.83 L947.28 381.69 L946.58 381.99 L945.37 383.07 L944.47 384.25 L941.85 389.5 L938.76 394.12 L937.61 396.5 L937.31 398.03 L937.82 404.47 L938.37 405.42 L940.68 406.88 L942.78 408.83 L943.51 410.96 L943.11 413.4 L940.77 418.76 L939.43 428.47 L939.54 430 L939.89 431.47 L940.56 432.96 L941.93 434.98 L942.19 435.99 L941.73 437.22 L939.16 437.97 L937.03 440.69 L935.47 444.11 L934.27 449.08 L933.12 453.78 L931.59 457.15 L929.16 458.46 L927.59 458.7 L926.88 459.65 L926.69 461.04 L926.74 462.64 L926.36 464.63 L925.25 465.41 L922.1 465.88 L920.95 466.62 L918.65 468.6 L917.57 468.77 L915.98 468.23 L914.75 468.11 L913.93 468.79 L913.56 470.62 L914.56 473.41 L917.27 474.03 L920.41 474.06 L922.67 475.06 L925.91 479.67 L926.39 480.72 L925.66 481.68 L922.52 483.18 L921.6 484.16 L922.09 486.54 L924.55 487.65 L927.71 488.28 L930.33 489.26 L931.59 490.36 L935.84 495.63 L936.18 496.97 L936.37 498.28 L936.89 499.66 L937.6 500.25 L939.14 500.17 L939.83 500.53 L940.32 501.27 L940.35 501.74 L940.19 502.24 L939.89 506.68 L940.34 508.02 L942.33 510.61 L943.9 510.24 L946.58 505.86 L947.73 504.55 L948.93 503.91 L951.89 503.04 L952.66 502.28 L953.49 500.04 L954.34 499.55 L955.56 500.57 L958.22 505.62 L959.68 507.38 L953.47 509.52 L946.02 512.08 L935.26 515.78 L920.54 520.83 L906.16 525.78 L893.22 530.23 L884.23 533.33 L876.28 536.06 L869.41 537.33 L866.14 538.34 L859.68 541.34 L851.1 544.19 L839.85 547.94 L827.63 552 L821.75 555.12 L813.8 559.34 L806.46 562.08 L797.56 564.25 L786.55 566.94 L777.69 569.1 L776.16 569.22 L764.06 572.02 L755.57 573.98 L743.7 578.35 L736.42 581.05 L727.33 584.4 L719.38 588.38 L713.04 591.57 L705.56 592.47 L704.15 592.85 L704.15 592.89 L704.1 593.47 L704.71 596.11 L704.71 600.07 L705.12 603.9 L708.32 614.97 L710.44 619.2 L713.22 621.02 L714.45 621.49 L715.53 622.65 L716.42 624.23 L717.02 625.87 L717.38 627.69 L717.6 633.47 L717.87 634.48 L719.13 636.24 L719.41 637.1 L719.18 637.99 L717.6 641.06 L717.05 643.01 L717.23 644.24 L719.67 646.85 L720.12 647.55 L721.1 650.16 L720.9 650.38 L719.7 650.88 L716.31 652.25 L713.87 652.34 L711.14 651.15 L709.76 650.55 L707.61 650.24 L706.86 650.53 L705.57 651.65 L704.89 652.1 L703.53 652.4 L702.54 652.04 L700.34 650.54 L696.94 649.79 L693.51 650.29 L690.11 651.24 L686.72 651.79 L683.03 651.36 L675.7 649.35 L671.9 649 L669.93 649.43 L666.42 651.06 L662.73 651.65 L657.83 653.3 L655.76 653.59 L654 653.33 L652.34 652.87 L650.52 652.63 L648.48 653.2 L645.3 655.93 L643.78 656.88 L636.39 657.54 L635.1 657.83 L616.23 666.59 L613.21 669.78 L612.43 670.29 L610.71 670.72 L609.04 671.75 L607.67 672.96 L606.83 673.93 L605.01 677.39 L603.92 678.45 L601.85 678.84 L597.97 678.91 L596.14 679.25 L595.76 679.42 L594.52 680 L591.66 682.82 L589.8 685.19 L589.53 685.8 L588.36 687.62 L588.09 688.61 L588.27 689.42 L588.66 690.04 L589.06 690.54 L589.27 690.99 L588.79 694.02 L587.69 697.72 L587.23 701.27 L588.69 703.81 L586.64 708.58 L586.34 710.5 L586.66 712.04 L588.08 715.77 L588.09 717.8 L586.03 721.2 L585.69 721.93 L585.12 725.16 L583.96 726.54 L580.57 729.12 L579.87 730.64 L578.19 732.28 L577.46 732.95 L576.26 733.14 L573.86 733.14 L569.8 733.9 L538.74 746.19 L532.96 749.95 L524.53 757 L516.76 760.38 L503.55 766.13 L499.13 768.81 L495.75 772.52 L484.11 790.17 L482.71 793.29 L480.97 800.41 L478.65 804.92 L474.11 809.57 L465.37 817.62 L442.71 841.35 L441.84 842.66 L441.7 843.58 L441.81 845.8 L442.02 847.92 L439.15 851.49 L435.96 854.62 L433.42 857.07 L431.1 858.35 L429.82 858.72 L425.79 858.91 L424.89 859.28 L421.76 861.36 L419.72 860.69 L411.66 864.44 L409.59 864.69 L408.21 865.04 L407.09 865.72 L404.65 868 L403.63 868.3 L402.4 868.08 L397.54 866.5 L396.16 865.78 L394.98 864.77 L393.65 863.27 L392.53 862.34 L391.11 861.76 L388.84 861.36 L385.28 860.22 L378.71 856.59 L374.78 855.84 L371.6 856.32 L370.98 856.18 L370.44 855.64 L369.75 855.14 L368.93 854.75 L365 854.29 L364.22 854 L363.77 853.45 L363.28 852.61 L362.68 851.86 L361.89 851.54 L361.13 851.94 L358.09 854.31 L357.33 854.74 L355.35 855.12 L353.91 855.93 L352.42 856.31 L351.91 856.51 L351.82 856.85 L351.99 858 L351.91 858.35 L350.71 858.69 L349.11 858.74 L347.75 859.05 L347.24 860.14 L346.65 859.52 L341.93 861.98 L340.94 862.12 L337.31 861.98 L332.1 859.52 L331.24 858.48 L330.61 857.01 L330.73 855.73 L332.1 855.23 L330.91 853.69 L327.04 852.02 L326.21 850.63 L325.47 849.69 L323.75 848.58 L321.86 847.64 L318.66 846.79 L317.62 845.85 L316.52 845.13 L314.44 845.36 L309.9 847.35 L304.16 848.48 L303.66 848.68 L302.9 849.51 L302.42 849.7 L301.88 849.6 L301.08 849.14 L300.63 849.03 L294.19 849.03 L293.28 848.87 L290.45 847.81 L287.78 847.93 L286.95 847.81 L285.27 846.99 L282.66 844.94 L281.06 844.19 L280.47 843.58 L279.93 842.44 L278.98 841.44 L277.83 840.74 L276.65 840.45 L275.2 840.37 L274.57 840.1 L273.46 838.61 L273 838.28 L272.04 837.77 L271.67 837.39 L271.53 836.87 L271.63 835.72 L271.37 835.21 L270.1 833.88 L269.49 833.92 L268.74 834.94 L268.52 834.32 L268.1 833.71 L267.49 833.23 L266.7 833.04 L266.54 832.63 L265.83 829.98 L265.54 829.83 L263.99 828.43 L263.75 828.08 L262.75 828.07 L262.13 827.94 L261.68 827.6 L261.15 826.91 L261.15 826.29 L261.72 824.76 L261.42 824.47 L260.54 824.61 L258.94 825.12 L258.13 825.08 L256.77 824.05 L255.79 822.63 L255.69 822.56 L254.66 821.82 L252.92 822.63 L251.83 821.04 L249.55 819.97 L243.68 818.77 L240.93 818.9 L240.03 818.7 L239.44 818.28 L239.02 817.87 L238.57 817.67 L231.27 816.5 L227.42 816.5 L226.59 816.78 L226 817.39 L225.54 818.01 L224.61 818.54 L223.31 819.73 L222.4 820.13 L221.59 820.18 L220.84 820.07 L219.48 819.56 L218.74 819.01 L218.21 818.39 L217.52 817.89 L215.34 817.5 L213.73 816.69 L211.16 816.21 L207.55 814.9 L206 814.61 L204.49 814.83 L200.91 815.85 L200.22 816.17 L199.28 815.62 L194.75 815.47 L193.16 815.23 L191.6 815.35 L189.07 815.87 L185.41 816.62 L181.75 817.38 L178.09 818.14 L174.42 818.9 L170.77 819.66 L167.12 820.42 L163.46 821.17 L159.79 821.93 L156.12 822.69 L152.46 823.44 L148.8 824.2 L145.14 824.96 L141.49 825.71 L137.84 826.47 L134.16 827.23 L130.5 827.99 L127.95 828.52 L126.35 828.56 L123.35 829.16 L119.87 829.84 L119.38 828.68 L119.31 827.54 L119.92 826.25 L117.97 824.61 L116.36 822.63 L114.61 821.34 L113.35 820.73 L112.1 820.36 L109.32 820.13 L107.87 820.33 L106.41 820.71 L104.93 820.88 L103.46 820.46 L102.41 819.34 L102.36 818.06 L102.55 816.66 L102.3 815.23 L101.41 814.26 L97.62 812.78 L95.58 811.1 L93.48 808.68 L91.86 806.01 L91.2 803.6 L90.69 802.58 L87.11 798.7 L85.88 797.99 L81.8 796.87 L76.64 794.61 L74.34 793.09 L70.93 789.99 L68.27 788.55 L67.15 787.59 L66.35 786.27 L65.41 782.1 L64.21 779.71 L62.47 777.37 L58.64 773.19 L57.45 772.3 L52.35 770.22 L51.26 770.21 L50.76 769.82 L50.39 769.05 L50.4 767.49 L50.23 766.77 L49.14 765.64 L46.43 764.79 L45.21 764.03 L44.45 762.89 L43.54 760.38 L37.35 750.47 L36.69 749.7 L35.89 749.22 L34.52 748.96 L34.04 748.72 L33.58 748.19 L33 747.12 L31.66 745.28 L31.09 744.11 L30.25 743.26 L27.97 742.86 L27.64 742.66 L27 741.97 L26.58 741.72 L26.29 741.88 L25.98 742.16 L25.16 742.36 L23.87 742.86 L23.21 742.94 L22.05 742.53 L14.69 736.48 L14.13 735.26 L13.9 733.75 L13.53 732.46 L12.6 731.91 L10.97 731.68 L10.61 731.04 L10.84 730.08 L10.9 728.86 L10.42 727.58 L8.95 725.1 L8.56 724 L8.63 722.5 L9.08 720.84 L9.78 719.27 L10.58 718.13 L10.75 717.01 L9.34 716.35 L6.5 715.7 L6.35 715.16 L6.31 713.19 L6.17 712.32 L5.88 711.93 L4.85 711.03 L4.47 710.5 L4.09 709.19 L3.94 708.06 L3.63 706.94 L2.72 705.69 L3.42 705.76 L5.59 705.69 L2.61 700.86 L0.34 697.99 L0.14 696.07 L0.14 694.63 L0.14 689.23 L0.14 683.59 L0.06 683.34 L0.08 679.32 L0.09 670.24 L0.11 661.18 L0.13 652.12 L0.14 643.05 L0.14 639.14 L0.14 636.46 L0.14 634.58 L0.14 631.05 L0.13 617.68 L0.12 604.33 L0.11 590.99 L0.11 577.66 L0.1 564.33 L0.09 551.02 L0.08 537.7 L0.07 524.41 L0.06 511.13 L0.05 497.84 L0.04 484.58 L0.04 479.28 L0.04 471.31 L0.03 458.06 L0.02 444.8 L0.01 431.58 L0 418.35 L10.63 418.35 L21.26 418.35 L31.89 418.35 L42.51 418.35 L53.13 418.35 L63.76 418.35 L74.39 418.35 L85.01 418.35 L95.64 418.35 L106.28 418.35 L116.9 418.35 L127.53 418.35 L138.16 418.35 L148.79 418.35 L159.42 418.35 L170.03 418.35 L172.8 418.35 L171.79 415.16 L170.33 412.37 L168.43 409.85 L163.77 405.04 L162.03 402.58 L161.26 399.77 L161.82 396.3 L163.48 392.35 L165.11 385.88 L166.65 379.78 L167.68 377.25 L171.55 371.55 L174.44 367.31 L175.14 365.81 L175.38 364.32 L174.54 360.38 L174.19 355.03 L173.31 352.82 L171.15 350.54 L169.29 347.83 L168.84 343.92 L169.41 331.65 L169.93 320.4 L171.76 316.14 L171.91 315.26 L171.51 313.11 L171.15 306.58 L170.41 304.47 L169.52 302.81 L168.87 301.12 L168.87 298.91 L169.32 297.19 L170.84 293.7 L173.2 290.03 L173.58 289 L173.58 287.59 L173.36 285.49 L173.39 284.39 L173.59 283.42 L174.52 282.12 L177.2 280.02 L178.02 278.84 L177.97 277.8 L174.19 269.38 L173.7 267.15 L174.05 254.74 L172.38 254.47 L171.9 253.26 L172.28 249.9 L172.21 245.07 L172.52 243.51 L173.06 241.84 L172.74 240.56 L171.08 238 L170.54 236.52 L169.96 232.24 L172.87 232.34 L176.88 233.12 L180.57 234.47 L182.51 236.33 L182.52 237.09 L182.04 238.64 L181.98 239.45 L182.19 240.4 L182.79 242.16 L182.95 243.15 L182.81 246.05 L183.37 247.13 L185.09 246.88 L186.81 246.32 L188.25 246.37 L191.41 247.31 L193.1 247.55 L196.27 247.54 L197.87 247.75 L199.8 248.6 L202.27 250.19 L204.43 252.1 L205.39 253.87 L205.09 254.88 L204.38 255.65 L203.74 256.48 L203.68 257.72 L204.16 258.73 L205.61 260.03 L206.21 260.78 L206.66 262.31 L206.76 264.13 L206.61 266 L206.28 267.69 L205.62 269.1 L202.88 273.44 L201.81 274.58 L198.25 275.67 L197.16 276.6 L197.88 278.17 L199.26 278.81 L202.82 278.85 L204.4 279.12 L206.31 280.27 L209.21 282.95 L210.92 283.78 L212.9 283.95 L214.72 283.6 L218.3 282.26 L219.13 282.2 L220.13 282.28 L221.04 282.13 L221.59 281.41 L221.87 280.43 L222.22 279.6 L222.73 278.88 L223.47 278.2 L224.24 277.86 L226.16 277.43 L227.06 277 L227.9 276.15 L229.47 274.02 L230.39 273.14 L233.67 271.78 L240.12 271.76 L243.44 271.04 L249.79 267.88 L253.37 266.77 L256.65 267.06 L268.88 265.95 L273.99 264.86 L282.1 260.79 L284.79 260.34 L285.83 261.27 L286.01 263.22 L285.9 265.46 L286.08 267.24 L286.04 268.09 L285.37 268.68 L283.59 269.38 L282.6 270.15 L283.07 270.9 L284.02 271.65 L284.46 272.4 L283.74 274 L282.74 274.8 L282.03 275.78 L282.11 277.91 L282.77 279.68 L284.7 283.07 L285.34 284.6 L285.22 285.43 L284.06 286.82 L283.71 287.65 L283.7 288.46 L283.94 290.01 L286.25 297.14 L287.05 298.61 L287.75 299.37 L288.35 299.71 L289.08 299.81 L290.16 299.8 L291.3 300.04 L291.84 300.62 L292.25 301.36 L293 302.07 L297.9 304.42 L299.4 305.75 L299.54 306.2 L299.58 306.67 L299.54 307.14 L298.8 309.33 L299.34 310.52 L300.63 311.1 L302.31 311.04 L303.11 310.62 L303.63 310.03 L304.23 309.51 L305.31 309.36 L306.23 309.07 L306.56 308.26 L306.81 307.37 L307.48 306.81 L311.4 306.94 L314.33 308.83 L317.04 311.29 L320.31 313.2 L321.88 313.49 L326.8 313.52 L327.75 313.41 L329.44 312.61 L330.07 312.45 L331 312.61 L331.43 312.91 L331.76 313.32 L336.43 317.14 L338.26 317.84 L339.48 318.74 L340.65 321.46 L342.15 322.16 L343.26 322.31 L358.02 322.1 L359.94 322.84 L361.67 323.95 L363.4 324.78 L366.48 324.59 L368.24 325.44 L369.25 325.49 L370.2 325.08 L371.88 323.93 L372.77 323.55 L375.95 323.01 L379.22 322.92 L381.25 323.56 L382.71 324.69 L384.02 326 L385.59 327.21 L388.65 328.21 L395.58 328.69 L398.8 329.37 L400.44 330.33 L401.9 331.47 L403.37 332.16 L405.11 331.77 L406.41 330.49 L407.4 328.99 L408.7 327.89 L410.89 327.87 L414.89 328.3 L418.52 327.51 L421.82 325.61 L424.81 322.69 L426.48 319.3 L426.83 312.15 L427.66 308.7 L428.97 306.78 L430.23 305.57 L431.12 304.23 L431.27 301.9 L430.21 298.21 L430.16 296.55 L431.31 295.3 L432.05 295.19 L433.93 295.47 L434.78 295.44 L438.02 294.37 L441.68 294.06 L444.12 293.12 L444.68 293.04 L446.14 295.14 L447.03 299.13 L447.4 303.4 L447.24 306.34 L449.3 313.95 L465.26 323.81 L469.26 330.77 L469.62 334.27 L473.78 346.34 L475.12 348.13 L479.72 351.88 L480.18 352.26 L483.85 356.31 L486.25 357.11 L490.06 357.43 L493.99 357.25 L496.69 356.57 L498.31 355.25 L499.25 354.05 L500.37 353.36 L502.53 353.58 L504.28 354.24 L509.14 357.16 L510.38 358.75 L510.7 360.94 L511.26 362.81 L513.17 363.4 L514.7 363.13 L515.99 363.04 L522.29 363.66 L523.07 364.14 L523.38 364.88 L523.55 365.73 L523.94 366.52 L526.02 368.18 L527.27 367.65 L528.54 366.39 L530.67 365.84 L532.32 366.57 L533.61 367.85 L535.1 368.87 L537.36 368.86 L539.06 368.61 L540.76 368.73 L542.37 369.22 L543.84 370.05 L550.94 376.25 L552.11 378.13 L553.78 382.45 L554.83 384.43 L557.72 387.49 L558.6 389.14 L558.54 391.42 L557.56 392.87 L556.18 393.86 L555.32 395.11 L555.91 397.35 L557.68 399.66 L559.57 401.57 L560.92 403.64 L561.21 408.18 L562.11 409 L563.4 409.05 L564.73 408.46 L565.56 407.4 L566.79 404.88 L567.91 404.13 L571.9 405 L575.33 408.55 L581.12 416.16 L582.63 417.48 L583.25 418.43 L584.01 421.59 L584.36 421.98 L585.51 422.4 L585.84 422.77 L585.79 423.21 L585.38 424.17 L585.36 424.57 L585.42 424.96 L585.31 425.88 L585.41 426.37 L585.74 426.75 L586.23 426.9 L586.7 427 L586.98 427.2 L587.79 430.25 L588.61 430.74 L590.27 430.82 L591.05 431.15 L592.04 432.47 L594.67 445.41 L596.06 449.04 L598.66 451.61 L599.79 452.99 L601.18 453.3 L602.74 452.96 L604.29 452.38 L605.89 452.36 L606.54 452.35 L608.69 452 L610.75 451.98 L612.65 452.87 L613.42 453.97 L614 455.29 L614.75 456.33 L616.05 456.59 L616.96 456.07 L618.6 454.08 L619.75 453.42 L621.7 452.61 L626.66 449.28 L638.74 444.59 L640.49 443.49 L645.45 438.77 L647.42 437.9 L649.42 438.01 L650.99 438.91 L652.45 440.12 L654.09 441.18 L655.12 441.3 L655.86 441.04 L656.53 441.06 L657.3 442.03 L657.52 442.91 L657.38 443.86 L657.05 444.73 L656.64 445.4 L656.01 445.85 L654.48 446.23 L653.88 446.88 L653.75 447.63 L653.92 449.39 L653.76 450.21 L653.23 450.48 L652.42 450.63 L651.75 451.1 L651.75 452.33 L652.08 453.35 L652.52 454.32 L653.1 455.22 L653.84 455.97 L655.16 456.74 L657 457.47 L660.41 458.42 L665.9 458.48 L667.19 458.25 L668.51 455.48 L668.52 445.77 L668.54 432.65 L668.56 420.22 L668.58 407.08 L668.6 391.76 L668.62 378.65 L668.64 364.08 L668.66 353.88 L668.68 344.58 L668.68 344.54 L668.66 344.26 L668.65 344.11 L664.96 344.41 L663.14 345.05 L660.27 347.16 L655.79 349.24 L654.33 349.52 L653.41 349.01 L651.88 347.5 L650.78 347.08 L649.62 347.08 L648.84 347.4 L647.59 348.57 L645.92 349.58 L642.16 350.88 L640.86 351.85 L640.32 352.96 L639.29 356.38 L638.94 358.43 L638.62 359.22 L638.49 359.94 L638.81 360.63 L641.39 363.92 L642.72 364.43 L644.04 364.52 L645.06 364.97 L645.47 366.55 L645.17 368.18 L644.31 369.47 L643.03 370.27 L641.39 370.44 L640.75 370.22 L640.39 369.87 L640.09 369.5 L639.63 369.24 L639.07 369.2 L637.86 369.31 L637.29 369.24 L635.01 368.4 L631.46 366.44 L630.79 366.29 L627.36 366.21 L626.37 366.05 L625.57 365.71 L624.51 364.79 L622.97 363.08 L622.11 362.66 L615.13 362.79 L613.04 363.32 L611.26 364.12 L609.8 365.05 L608.87 363.35 L607.52 363.56 L606.05 364.29 L604.81 364.21 L603.95 363.77 L603.3 363.78 L602.9 363.54 L602.75 362.39 L602.53 361.51 L595.57 348.65 L593.35 345.88 L588.29 343.03 L587.51 342 L587.13 340.36 L586.19 338.69 L585.04 337.25 L583.96 336.28 L580.94 334.64 L579.77 333.71 L579.28 332.39 L579.02 329.95 L578.24 329.26 L575.25 329.71 L573.45 329.24 L569.25 326.93 L568.14 326.07 L566.63 322.79 L565.47 321.93 L563.46 323.09 L563.2 322.28 L562.18 320.58 L561.77 320.11 L561.01 319.45 L560.25 318.96 L559.35 318.9 L558.22 319.51 L557.3 318.16 L556.6 313.91 L555.56 313 L554.18 312.58 L553.48 311.47 L552.64 305.43 L552.38 304.55 L551.14 303.38 L550.57 302.57 L550.89 302.21 L550.94 301.34 L549.46 296.14 L548.96 295.35 L547.7 294.06 L547.06 293.16 L546.05 290.59 L545.6 289.89 L545.2 288.54 L545.1 283.88 L545.32 282.33 L549.73 275.83 L550.02 275.48 L551.92 273.98 L552.38 273.72 L551.73 270.48 L552.09 268.57 L552.89 267.29 L553.71 266.35 L555.3 263.03 L555.19 260.1 L555.3 259.16 L555.51 258.65 L556.24 257.55 L556.46 256.74 L556.43 255.65 L555.51 251.01 L555.56 250.16 L556.77 248.48 L557.89 246.36 L558.22 245.42 L558.28 244.54 L558.12 242.68 L558.22 241.8 L558.73 241 L560.23 239.45 L560.55 238.53 L560.74 237.63 L561.58 235.85 L561.77 234.91 L561.77 231.05 L562.2 229 L562.98 226.99 L564.09 225.14 L565.54 223.59 L566.18 222.74 L566.79 220.85 L568.08 218.71 L568.46 218.26 L568.96 218.02 L570.05 218.1 L570.53 217.98 L571.73 217.02 L573.07 215.67 L574.17 214.05 L574.62 212.3 L574.16 211.74 L572.16 210.21 L571.7 209.32 L571.84 208.32 L572.31 206.47 L572.28 205.44 L570.21 203.12 L569.08 201.54 L569.07 200.34 L569.41 199.52 L568.7 198.2 L569.07 197.38 L569.57 196.6 L569.91 195.59 L570.04 194.49 L569.94 193.46 L569.32 191.76 L568.54 190.38 L567.88 188.83 L567.62 186.66 L567.87 184.83 L568.36 183.45 L568.6 182.1 L568.14 180.41 L567.99 180.36 L567.24 179.91 L567.02 179.75 L566.79 179.29 L566.61 178.37 L566.44 177.97 L563.52 175.47 L564.33 173.87 L566.44 171.4 L567.78 168.72 L568.54 165.32 L568.77 158.4 L568.14 152.14 L568.49 150.27 L571.12 144.66 L571.95 140.91 L572.77 139.37 L574.35 138.73 L574.52 138.34 L572.28 136.04 L572.08 134.78 L571.54 134.27 L570.8 134 L569.94 133.41 L568.77 131.71 L568.25 129.98 L568.14 125.95 L567.96 125.01 L567.2 123.2 L567.02 122.37 L566.65 121.2 L565.04 119.36 L564.69 118.54 L565.12 118.07 L567.05 117.44 L567.62 116.77 L564.93 116.83 L563.88 116.41 L563.46 115.26 L563.42 113.79 L563.26 112.66 L562.91 111.71 L562.3 110.8 L560.25 109.28 L559.23 108.3 L558.8 106.95 L558.94 105.69 L559.1 104.13 L558.91 102.47 L557.15 100.29 L554.17 98.72 L549.97 97.84 L546.3 96.42 L544.93 93.25 L546.63 90.06 L550.29 87.63 L558.08 83.93 L566.02 78.04 L580.24 63.98 L591.16 49.42 L594.36 41.99 L594.78 34.29 L591.13 26.6 L590.82 24.97 L593.06 24.09 L603.3 22.53 L618.1 20.26 L631.59 18.18 L649.54 15.43 L650.95 15.22 L673.68 11.73 L696.38 8.24 L713.6 5.6 L735.56 2.23 L750.13 0 L752.36 8.21 L756.64 16.76 L762.08 24.64 L767.86 30.8 L770.67 33 L774.2 35.11 L777.98 36.49 L781.57 36.52 L783.38 35.62 L785.12 34.37 L786.95 33.42 L789 33.42 L790 34.11 L791.62 36.29 L792.54 36.98 L793.64 37.16 L794.36 36.91 L795.02 36.47 L799.44 34.89 L800.43 34.67 L801.04 34.43 L801.26 34.09 L801.54 33.97 L802.3 34.42 L802.62 34.97 L802.9 36.54 L803.19 37.15 L804.33 37.9 L805.43 38.01 L806.59 37.88 L807.88 37.98 L809.23 38.68 L811.06 40.8 L812.43 41.67 L815.71 42.61 L817.42 44.04 L818.01 46.24 L818 49.47 L818.64 53.17 L820.62 55.82 L828.85 62.17 L830.3 62.73 L832.02 62.74 L833.77 62.11 L836.69 60.53 L838.67 60.36 L851.42 63.86 L849.81 67.37 L849.8 71.64 L851.54 75.04 L855.17 75.92 L856.95 75.18 L858.19 74.26 L859.55 73.67 L861.73 73.99 L864.19 75.42 L865.08 75.68 L865.89 75.61 L867.53 75.21 L868.31 75.25 L869.28 75.78 L870.07 76.21 L873.22 79.41 L874.9 80.67 L876.63 81.28 L878.45 81.52 L889.59 81.29 L893.04 82.15 L896.15 84.25 L897.08 85.45 L898.74 89.38 L899.97 91.28 L901.14 92.06 L904.35 92.32 L911.7 93.93 L917.83 94.45 L918.9 95.03 L920.09 96.32 L920.41 96.98 L920.67 98.28 L921.17 98.92 L921.79 99.15 L923.28 98.99 L923.91 99.12 L927.87 101.76 L934.26 104.19 Z "/>
</g>
</svg>
