<svg xmlns="http://www.w3.org/2000/svg" viewBox="0 0 1000 917.61">
<g fill="#ccc" stroke="#333" stroke-width="0.5" stroke-linejoin="round">
<path fill-rule="evenodd" d="M5.17 290.86 L6.05 291.77 L8.44 292.9 L12.34 295.96 L14.85 297.18 L16.09 297.36 L20.08 297.18 L24.31 298.77 L25.68 299.02 L35.31 299.02 L35.97 299.17 L37.17 299.86 L37.97 300.01 L38.7 299.72 L39.82 298.49 L40.58 298.18 L49.16 296.5 L55.94 293.52 L59.06 293.19 L60.7 294.25 L62.26 295.66 L67.04 296.93 L69.86 298.34 L72.43 300 L73.54 301.4 L74.78 303.48 L80.57 305.97 L82.35 308.27 L80.29 309.02 L80.12 310.94 L81.05 313.13 L82.35 314.69 L90.13 318.37 L95.56 318.58 L97.04 318.37 L104.09 314.69 L104.97 315.62 L105.73 313.98 L107.77 313.52 L110.16 313.45 L111.95 312.94 L112.07 312.41 L111.82 310.7 L111.95 310.19 L112.72 309.88 L114.94 309.32 L117.09 308.11 L120.05 307.54 L121.19 306.9 L125.73 303.36 L126.87 302.76 L128.05 303.23 L128.96 304.36 L129.68 305.61 L130.36 306.44 L131.52 306.87 L137.4 307.57 L138.61 308.14 L139.66 308.89 L140.46 309.69 L141.39 309.91 L146.14 309.19 L152.01 310.32 L161.84 315.73 L167.16 317.44 L170.54 318.04 L172.67 318.9 L174.35 320.29 L176.33 322.54 L178.1 324.05 L180.16 325.12 L187.43 327.48 L189.26 327.82 L190.78 327.36 L194.44 323.96 L196.11 322.94 L198.17 322.41 L201.27 322.04 L213.32 316.44 L216.36 317.44 L221.04 314.33 L222.38 313.77 L228.41 313.5 L230.32 312.94 L233.8 311.02 L237.6 307.36 L242.36 302.68 L246.65 297.35 L246.33 294.19 L246.18 290.86 L246.39 289.48 L247.68 287.53 L281.55 252.05 L294.62 240.03 L301.4 233.07 L304.87 226.33 L307.47 215.69 L309.56 211.03 L326.96 184.64 L332.02 179.09 L338.62 175.09 L358.36 166.5 L369.99 161.45 L382.59 150.9 L391.23 145.29 L437.65 126.91 L443.72 125.78 L447.3 125.78 L449.1 125.49 L450.19 124.5 L452.71 122.04 L453.76 119.77 L458.82 115.91 L460.56 113.85 L461.4 109.03 L461.91 107.94 L465 102.84 L464.97 99.81 L462.86 94.24 L462.38 91.94 L462.83 89.06 L465.88 81.93 L463.7 78.14 L464.39 72.83 L466.04 67.3 L466.76 62.77 L466.44 62.1 L465.84 61.36 L465.26 60.42 L465 59.21 L465.39 57.74 L467.15 55.02 L467.55 54.1 L470.32 50.57 L474.6 46.35 L476.45 45.49 L477.02 45.22 L479.77 44.71 L485.55 44.6 L488.66 44.03 L490.28 42.45 L493 37.27 L494.26 35.83 L496.31 34.01 L498.8 32.47 L501.38 31.83 L502.54 31.07 L507.06 26.29 L535.27 13.2 L537.19 12.77 L548.24 11.79 L550.51 10.36 L555.27 6.28 L558.31 5.43 L561.03 5.79 L563.52 6.48 L566.14 6.87 L569.24 6.43 L576.56 3.96 L582.08 3.09 L587.33 0.64 L590.28 0 L595.96 0.53 L606.91 3.54 L612.43 4.17 L617.49 3.36 L622.58 1.93 L627.7 1.18 L632.79 2.3 L636.06 4.55 L637.56 5.09 L639.59 4.64 L640.6 3.96 L642.52 2.29 L643.65 1.87 L646.87 2.32 L648.93 3.22 L653 4.99 L656.66 4.87 L661.72 2.81 L661.9 13.54 L662.1 26.18 L662.37 42.09 L662.53 51.34 L676.87 51.23 L686.05 51.17 L706.9 51.02 L720.67 50.92 L726.35 52.12 L731.5 55.76 L733.56 57.96 L735.45 59.42 L737.58 59.72 L740.43 58.47 L741.92 57.18 L744.29 54.48 L746.16 53.51 L747.25 53.78 L748.26 54.57 L749.23 54.62 L750.27 52.75 L753.47 50.76 L759.15 51.2 L772.12 54.29 L774.54 55.2 L776.64 56.71 L778.46 59.02 L780.86 63.52 L782.47 65.36 L784.95 66.72 L786.22 67.63 L786.77 68.85 L787.18 70.09 L787.97 70.97 L788.45 71.07 L789.45 70.82 L789.97 70.76 L790.57 71.11 L790.54 71.73 L790.37 72.37 L790.6 72.76 L793.1 73.09 L795.86 73.11 L798.41 73.49 L800.33 74.85 L805.25 77.31 L826.59 78.74 L829.73 80.16 L833.25 83.07 L840.99 91.58 L843.46 93.7 L848.82 96.52 L850.34 97.8 L851.47 100.16 L852.09 105.25 L853.21 107.28 L855.24 108.27 L868.52 110.4 L893.78 109.77 L903.84 111.31 L917.03 116.64 L937.28 124.86 L952.58 131.04 L954.03 132.4 L954.64 134.31 L954.73 137.39 L956.01 142.65 L959.41 145.27 L960.14 145.57 L960.19 145.59 L961.29 144.85 L963.07 144.14 L965.05 143.81 L969.05 144.06 L976.89 145.81 L980.9 146.07 L982.98 145.5 L986.81 143.05 L988.94 142.16 L990.51 141.96 L989.62 145.8 L986.02 159.87 L983.82 164.16 L981.82 166.81 L972.65 175.82 L972.82 176.67 L980.06 189.59 L985.4 199.12 L988.67 206.84 L990.42 215.09 L990.58 220.08 L990.63 221.42 L991.11 224.34 L992.44 226.99 L993.56 227.92 L996.41 229.52 L997.3 230.72 L997.4 232.85 L996.61 234.95 L996.02 235.86 L994.21 238.67 L989.19 248.52 L988.35 249.56 L987.25 250.28 L986.43 251.18 L986.44 252.66 L987.79 257.19 L988.35 258.3 L990.59 260.06 L995.38 262.26 L997.14 264.62 L997.67 267.39 L997.17 269.97 L995.05 274.95 L994.56 280.09 L994.94 285.97 L994.42 290.88 L991.16 293.08 L989.04 294.06 L987.64 296.31 L986.82 299.1 L986.47 301.72 L986.66 304.35 L988.18 308.11 L988.41 310.48 L987.91 312.23 L986.91 313.13 L985.9 313.8 L985.25 314.87 L985.45 316.13 L987.02 318.01 L986.9 319.16 L986.21 321.82 L986.49 324.84 L990.99 338.72 L991.41 343.16 L991.32 344.17 L990.18 347.04 L989.19 348.82 L988.43 349.85 L988.21 350.97 L988.78 352.98 L990.72 355.84 L996.69 360.71 L999 363.29 L1000 365.87 L999.4 367.36 L995.71 370.17 L993.02 374.11 L992.66 374.01 L992.85 375.34 L994.47 377.27 L994.92 378.65 L994.07 381.38 L991.8 383.12 L988.99 384.44 L986.5 385.95 L984.22 387.16 L981.79 387.87 L979.6 388.79 L978.01 390.63 L977.69 392.9 L978.13 395.67 L979.77 400.51 L983.61 408.18 L984.6 411.86 L984.34 416.32 L983.45 419.94 L982.07 422.84 L979.86 424.64 L976.49 424.93 L971.26 424.53 L967.39 425.1 L955.09 430.9 L954.89 432.12 L955.78 439.41 L956.6 441.39 L958.2 442.46 L956.83 443.5 L955.2 444.42 L953.95 445.55 L953.77 447.21 L954.73 450.23 L954.94 451.71 L954.73 453.43 L955.04 455.23 L956.05 456.31 L957.5 456.81 L959.24 456.9 L967.18 455.69 L969.4 455.95 L970.78 456.52 L971.52 457.13 L971.91 458.06 L972.2 459.63 L972.83 461.3 L973.84 462.35 L975.04 463.3 L976.11 464.62 L976.93 469.27 L973.22 486.04 L973.08 489.38 L972.63 491.8 L971.62 494.07 L969.75 497.07 L964.98 502.51 L964.68 503.84 L964.95 507.82 L964.14 513.32 L964.28 516.11 L965.64 517.72 L968.09 517.84 L970.41 517.54 L972.21 518.17 L973.08 521.12 L973.12 523.61 L972.21 533.42 L972.25 534.67 L972.57 536 L972.75 537.77 L972.21 539.08 L971.46 540.25 L971.05 541.63 L971.48 544.64 L972.94 546.12 L975.25 546.65 L978.2 546.81 L981.08 546.01 L984.89 542.06 L987.27 541.25 L989.54 542.54 L989.73 545.29 L988.67 550.55 L989.73 552.94 L991.86 555.11 L994.61 556.87 L997.44 558.06 L998.73 559.56 L998.32 562.17 L997.46 565.36 L997.26 570.97 L994.79 578.97 L994.33 589.02 L995.09 592.2 L995.46 593.26 L988.62 593.02 L986.88 594.55 L986.14 598.71 L985.14 600.67 L983.12 601.3 L981.04 601.69 L979.87 602.92 L978.92 609.55 L978.29 611.66 L976.54 614.88 L976.27 616.2 L976.43 617.15 L977.28 618.98 L977.35 620.06 L976.44 624.23 L975.74 626.19 L974.75 627.93 L969.07 635 L960.77 645.32 L956.75 653.17 L952.58 661.37 L949.34 664.94 L943.87 665.87 L937.85 665.12 L932.3 665.84 L928.27 671.09 L926.92 676.89 L926.67 682.54 L928.51 697.21 L930.27 711.42 L929.47 716.65 L926.49 722.65 L920.03 730.97 L910.15 743.73 L910.85 744.93 L912.71 746.11 L913.86 747.7 L914.43 747.78 L915 747.75 L915.37 748.04 L915.35 748.96 L914.88 749.82 L914.39 750.57 L914.23 751.11 L923.54 767.13 L923.7 767.72 L923.87 768.36 L918.93 765.16 L914.39 770.32 L908.19 777.21 L901.51 784.68 L894.8 792.14 L888.1 799.61 L881.39 807.08 L874.69 814.56 L867.99 822.05 L861.29 829.53 L854.6 837.01 L847.88 844.5 L841.19 852 L834.48 859.5 L827.79 866.99 L821.09 874.5 L814.4 882 L807.68 889.51 L800.99 897.01 L794.34 904.44 L786.02 910.38 L775.82 917.61 L772.84 913.21 L771.57 912.16 L770.3 912.11 L768.24 912.99 L767.21 913.12 L766.18 912.71 L764.18 911.42 L763.26 911.15 L762.37 910.45 L759.77 907.28 L758.4 906.42 L756.49 906.71 L752.25 908.76 L751.29 908.98 L750.09 909.25 L747.88 908.81 L743.51 906.86 L729.58 903.57 L721.9 902.72 L718.17 901.71 L714 903.39 L699.77 904.54 L697.26 905.34 L693.82 907.81 L691.91 908.39 L691.03 908.11 L689.08 906.74 L687.9 906.42 L684.2 906.45 L675.92 905.48 L673.5 905.56 L671.05 906.24 L666.25 908.46 L663.82 909.25 L658.63 910.16 L653.89 910.33 L649.51 909.26 L645.5 906.42 L643.7 904.81 L641.8 903.62 L639.41 902.89 L636.25 902.65 L630.58 903.44 L628.34 903.27 L625.27 901.71 L621.62 899.03 L619.75 898.23 L615.94 897.77 L615.65 897.33 L615.48 896.71 L613.05 894.07 L611.74 893.42 L609 892.79 L607.74 892.27 L604.25 890.11 L602.39 889.56 L597.78 889.15 L594.64 887.48 L590.28 886.54 L582.85 881.56 L580.25 880.8 L571.63 881.25 L570.12 881.83 L567.79 880.19 L565.19 880.58 L560.45 882.76 L556.13 882.33 L553.68 882.89 L552.59 885.17 L551.22 886.54 L548.04 886.21 L541.65 884.66 L538.99 885.26 L534.31 887.88 L531.57 889.36 L529.68 889.28 L528.87 889.09 L527.99 888.51 L518.22 880.01 L517.42 878.72 L516.43 876 L515.73 874.76 L514.49 873.19 L513.84 872.76 L501.76 873.13 L497.05 872.29 L492.29 869.78 L488.43 865.64 L486 860.38 L485.01 854.54 L485.54 848.71 L486.94 845.75 L489.05 842.44 L490.61 839.22 L490.31 836.57 L488.2 834.91 L483.08 833.27 L480.8 831.74 L477.1 830.84 L469.32 830.37 L465.46 829.33 L446.71 820.54 L440.86 818.68 L435.91 814.74 L434.12 814.16 L430.32 813.79 L426.24 812.71 L424.82 812.95 L423.49 813.61 L418.99 814.77 L416.96 815.58 L414.81 815.98 L412.06 815.35 L401.67 809.93 L396.57 808.16 L391.84 807.25 L376.61 807.03 L367.03 805.11 L359.63 804.64 L357.54 803.96 L355.75 802.77 L354.2 801.07 L353.47 799.84 L352.32 797.04 L351.66 795.92 L350.78 795.38 L350.06 795.52 L349.44 795.38 L348.94 794.05 L349.6 792.27 L349.09 791.48 L348.18 791.18 L347.74 790.92 L348 789.62 L348.99 787.97 L349.42 786.89 L349.06 785.47 L345.27 777.62 L343.18 775.37 L342.36 774.09 L342.15 773.06 L342.22 770.93 L341.93 769.82 L340.72 767.88 L336.14 762.32 L332.88 757.12 L329.07 752.41 L320.2 745.87 L318.25 743.79 L313.85 737.71 L312.81 735.12 L312.84 732.73 L314.39 725.47 L314.57 722.58 L313.58 714.9 L313.58 713.56 L313.89 710.49 L313.85 708.93 L314.01 707.12 L314.75 705.88 L315.68 704.71 L316.36 703.16 L318.31 692.09 L318.02 686.62 L314.84 675.77 L315.85 670.88 L317.41 666.05 L317.79 660.66 L316.84 658.26 L315 656.49 L312.73 655.54 L307.59 655.47 L303.13 653.38 L295.87 654.71 L285.62 653.38 L271.16 653.34 L266.72 653.93 L261.91 656.44 L263.9 636.76 L261.61 620.78 L255.07 603.93 L253.4 601.55 L251.09 600.11 L248.43 599.32 L245.74 598.88 L244.18 598.83 L242.91 598.95 L241.62 598.87 L240.05 598.28 L238.66 597.14 L236.45 593.99 L235.29 592.65 L231.01 590.28 L226.87 589.83 L222.63 589.88 L218.02 589.02 L203.56 581.62 L198.78 580.72 L195.75 580.69 L193.21 580.18 L191.03 579.03 L189.08 577.01 L187.31 574.56 L186.34 573.51 L185.91 573.05 L184.07 572.01 L178.27 570.33 L175.91 569.27 L174.16 567.44 L173.25 564.37 L172.17 561.82 L169.99 559.55 L164.82 556.18 L162.38 555.18 L157.33 554.02 L154.98 553.09 L152.55 550.79 L149.02 545.29 L146.14 543.73 L142.26 543.03 L141.24 542.58 L139.68 541.53 L139.72 541.29 L140.57 540.84 L141.49 539.16 L142.41 536.33 L142.09 535.23 L140.82 533.48 L139.82 532.41 L138.57 531.47 L137.19 530.83 L130.34 530.69 L124.64 529.16 L119.66 526.04 L116.43 521.14 L104.17 486.27 L101.24 480.33 L97.37 475.18 L94.23 469.81 L93.21 467.27 L92.73 464.01 L93.14 461.24 L95.23 456.22 L95.67 453.43 L95.62 453.29 L92.2 442.66 L76.17 428.17 L71.6 418.01 L70.82 408.14 L69.35 403.38 L66.15 400.47 L61.21 397.97 L57.54 394.71 L51.48 385.96 L49.73 384.15 L45.39 381.18 L36.96 372.22 L35.31 369.49 L34.66 367.69 L33.46 362.01 L32.45 359.33 L28.31 352.57 L24.22 342.18 L21.49 337.2 L17.65 334.09 L13.3 331.5 L9.84 327.73 L4.56 318.66 L0.86 309.36 L0 306.15 L0 302.36 Z "/>
</g>
</svg>
